<svg width="398" height="206" viewBox="0 0 398 206" fill="none" xmlns="http://www.w3.org/2000/svg">
<path opacity="0.3" d="M240.25 56.3719C240.25 79.9992 225.84 108.5 202.328 108.5C178.815 108.5 157.25 91.8628 157.25 68.2355C157.25 44.6082 168.44 21.5 191.953 21.5C215.465 21.5 240.25 32.7446 240.25 56.3719Z" fill="#E6E6E6"/>
<g clip-path="url(#clip0_559_45342)">
<path d="M179.766 49.958C175.816 54.6034 173.756 60.5632 173.995 66.6559C174.233 72.7486 176.752 78.5294 181.052 82.8522C184.965 86.8139 190.137 89.2884 195.677 89.8502C201.217 90.4121 206.78 89.0261 211.409 85.9307" stroke="#777DA7" stroke-width="1.5" stroke-linecap="round" stroke-linejoin="round"/>
<path d="M173.777 49.4385L180.679 49.4525L180.701 56.4039" stroke="#777DA7" stroke-width="1.5" stroke-linecap="round" stroke-linejoin="round"/>
<path d="M217.742 80.0479C221.691 75.4005 223.749 69.4391 223.51 63.3451C223.27 57.2512 220.75 51.4697 216.448 47.1467C212.478 43.1313 207.217 40.6472 201.593 40.1329C195.97 39.6185 190.345 41.1068 185.712 44.3352" stroke="#777DA7" stroke-width="1.5" stroke-linecap="round" stroke-linejoin="round"/>
<path d="M223.723 80.5816L216.821 80.5605L216.807 73.6162" stroke="#777DA7" stroke-width="1.5" stroke-linecap="round" stroke-linejoin="round"/>
<path d="M198.75 81.798V74.3477" stroke="#777DA7" stroke-width="1.5" stroke-linecap="round" stroke-linejoin="round"/>
<path d="M193.942 57.0503V50.4434" stroke="#777DA7" stroke-width="1.5" stroke-linecap="round" stroke-linejoin="round"/>
<path d="M198.75 57.0503V50.4434" stroke="#777DA7" stroke-width="1.5" stroke-linecap="round" stroke-linejoin="round"/>
<path d="M203.558 57.0503V50.4434" stroke="#777DA7" stroke-width="1.5" stroke-linecap="round" stroke-linejoin="round"/>
<path d="M189.726 57.2959H207.775V62.7642L204.697 64.4441V69.4766C204.695 70.5311 204.275 71.5419 203.529 72.2876C202.784 73.0332 201.773 73.4529 200.718 73.4548H196.818C195.763 73.4529 194.752 73.0332 194.007 72.2876C193.261 71.5419 192.841 70.5311 192.839 69.4766V64.4722L189.726 62.7642V57.2959Z" fill="#85CEE2" stroke="#85CEE2" stroke-width="1.5"/>
<path d="M207.698 61.4355H196.002" stroke="#777DA7" stroke-width="1.5" stroke-linecap="round" stroke-linejoin="round"/>
</g>
<path d="M224 91.7501H208C207.869 91.7497 207.74 91.7154 207.626 91.6506C207.512 91.5858 207.417 91.4926 207.35 91.3801C207.286 91.2654 207.252 91.1364 207.252 91.0051C207.252 90.8738 207.286 90.7447 207.35 90.6301L215.35 76.6301C215.421 76.5228 215.518 76.4348 215.631 76.374C215.744 76.3131 215.871 76.2812 216 76.2812C216.129 76.2812 216.255 76.3131 216.369 76.374C216.482 76.4348 216.579 76.5228 216.65 76.6301L224.65 90.6301C224.714 90.7447 224.747 90.8738 224.747 91.0051C224.747 91.1364 224.714 91.2654 224.65 91.3801C224.583 91.4926 224.487 91.5858 224.374 91.6506C224.26 91.7154 224.131 91.7497 224 91.7501ZM209.29 90.2501H222.71H216H209.29Z" fill="#D4254E"/>
<path d="M216 86.25C215.802 86.2474 215.613 86.1676 215.473 86.0275C215.332 85.8874 215.253 85.6981 215.25 85.5V82C215.25 81.8011 215.329 81.6103 215.47 81.4697C215.61 81.329 215.801 81.25 216 81.25C216.199 81.25 216.39 81.329 216.53 81.4697C216.671 81.6103 216.75 81.8011 216.75 82V85.5C216.747 85.6981 216.668 85.8874 216.527 86.0275C216.387 86.1676 216.198 86.2474 216 86.25V86.25Z" fill="white"/>
<path d="M216 89.25C215.802 89.2474 215.613 89.1676 215.473 89.0275C215.332 88.8874 215.253 88.6981 215.25 88.5V88C215.25 87.8011 215.329 87.6103 215.47 87.4697C215.61 87.329 215.801 87.25 216 87.25C216.199 87.25 216.39 87.329 216.53 87.4697C216.671 87.6103 216.75 87.8011 216.75 88V88.5C216.747 88.6981 216.668 88.8874 216.527 89.0275C216.387 89.1676 216.198 89.2474 216 89.25V89.25Z" fill="white"/>
<rect x="139.75" y="125" width="118" height="5" rx="2.5" fill="#D4254E"/>
<rect x="139.75" y="125" width="118" height="5" rx="2.5" stroke="#D4254E"/>
<rect x="112.75" y="139" width="172" height="5" rx="2.5" fill="#D4254E"/>
<rect x="112.75" y="139" width="172" height="5" rx="2.5" stroke="#D4254E"/>
<rect x="161.75" y="161" width="74" height="23" rx="3.5" fill="#EDE9ED"/>
<rect x="161.75" y="161" width="74" height="23" rx="3.5" stroke="#6C3078"/>
<defs>
<clipPath id="clip0_559_45342">
<rect width="51" height="51" fill="white" transform="translate(173.25 39.5)"/>
</clipPath>
</defs>
</svg>
