<svg width="398" height="206" viewBox="0 0 398 206" fill="none" xmlns="http://www.w3.org/2000/svg">
<path d="M108.25 107.75C108.052 107.747 107.863 107.668 107.723 107.527C107.582 107.387 107.503 107.198 107.5 107V102C107.5 101.801 107.579 101.61 107.72 101.47C107.86 101.329 108.051 101.25 108.25 101.25C108.449 101.25 108.64 101.329 108.78 101.47C108.921 101.61 109 101.801 109 102V107C108.997 107.198 108.918 107.387 108.777 107.527C108.637 107.668 108.448 107.747 108.25 107.75V107.75Z" fill="#6B778C"/>
<path d="M108.25 100.25C108.052 100.247 107.863 100.168 107.723 100.027C107.582 99.8874 107.503 99.6981 107.5 99.5V99C107.5 98.8011 107.579 98.6103 107.72 98.4697C107.86 98.329 108.051 98.25 108.25 98.25C108.449 98.25 108.64 98.329 108.78 98.4697C108.921 98.6103 109 98.8011 109 99V99.5C108.997 99.6981 108.918 99.8874 108.777 100.027C108.637 100.168 108.448 100.247 108.25 100.25Z" fill="#6B778C"/>
<path d="M108.25 112C106.47 112 104.73 111.472 103.25 110.483C101.77 109.494 100.616 108.089 99.9351 106.444C99.2539 104.8 99.0757 102.99 99.4229 101.244C99.7702 99.4984 100.627 97.8947 101.886 96.636C103.145 95.3774 104.748 94.5202 106.494 94.1729C108.24 93.8257 110.05 94.0039 111.694 94.6851C113.339 95.3663 114.744 96.5198 115.733 97.9999C116.722 99.4799 117.25 101.22 117.25 103C117.25 105.387 116.302 107.676 114.614 109.364C112.926 111.052 110.637 112 108.25 112V112ZM108.25 95.5C106.767 95.5 105.317 95.9399 104.083 96.764C102.85 97.5881 101.889 98.7594 101.321 100.13C100.753 101.5 100.605 103.008 100.894 104.463C101.184 105.918 101.898 107.254 102.947 108.303C103.996 109.352 105.332 110.067 106.787 110.356C108.242 110.645 109.75 110.497 111.12 109.929C112.491 109.361 113.662 108.4 114.486 107.167C115.31 105.933 115.75 104.483 115.75 103C115.75 101.011 114.96 99.1032 113.553 97.6967C112.147 96.2902 110.239 95.5 108.25 95.5Z" fill="#6B778C"/>
<rect x="155.75" y="95.5" width="118" height="5" rx="2.5" fill="#9EA6B5"/>
<rect x="155.75" y="95.5" width="118" height="5" rx="2.5" stroke="#9EA6B5"/>
<rect x="128.75" y="105.5" width="172" height="5" rx="2.5" fill="#D2D6DD"/>
<rect x="128.75" y="105.5" width="172" height="5" rx="2.5" stroke="#D2D6DD"/>
</svg>
