<svg width="398" height="206" viewBox="0 0 398 206" fill="none" xmlns="http://www.w3.org/2000/svg">
<path d="M124.25 116.5H92.2499C91.9878 116.499 91.7303 116.431 91.5025 116.301C91.2747 116.172 91.0844 115.985 90.9499 115.76C90.822 115.531 90.7549 115.273 90.7549 115.01C90.7549 114.748 90.822 114.489 90.9499 114.26L106.95 86.2602C107.092 86.0457 107.285 85.8697 107.512 85.7479C107.739 85.6262 107.992 85.5625 108.25 85.5625C108.507 85.5625 108.761 85.6262 108.988 85.7479C109.214 85.8697 109.408 86.0457 109.55 86.2602L125.55 114.26C125.678 114.489 125.745 114.748 125.745 115.01C125.745 115.273 125.678 115.531 125.55 115.76C125.415 115.985 125.225 116.172 124.997 116.301C124.769 116.431 124.512 116.499 124.25 116.5ZM94.8299 113.5H121.67L108.25 90.0202L94.8299 113.5Z" fill="#D4254E"/>
<path d="M108.25 105.5C107.854 105.495 107.475 105.335 107.195 105.055C106.915 104.775 106.755 104.396 106.75 104V97C106.75 96.6022 106.908 96.2206 107.189 95.9393C107.471 95.658 107.852 95.5 108.25 95.5C108.648 95.5 109.029 95.658 109.311 95.9393C109.592 96.2206 109.75 96.6022 109.75 97V104C109.745 104.396 109.585 104.775 109.305 105.055C109.025 105.335 108.646 105.495 108.25 105.5V105.5Z" fill="#D4254E"/>
<path d="M108.25 111.5C107.854 111.495 107.475 111.335 107.195 111.055C106.915 110.775 106.755 110.396 106.75 110V109C106.75 108.602 106.908 108.221 107.189 107.939C107.471 107.658 107.852 107.5 108.25 107.5C108.648 107.5 109.029 107.658 109.311 107.939C109.592 108.221 109.75 108.602 109.75 109V110C109.745 110.396 109.585 110.775 109.305 111.055C109.025 111.335 108.646 111.495 108.25 111.5V111.5Z" fill="#D4254E"/>
<rect x="167.75" y="93.5" width="118" height="5" rx="2.5" fill="#D4254E"/>
<rect x="167.75" y="93.5" width="118" height="5" rx="2.5" stroke="#D4254E"/>
<rect x="140.75" y="107.5" width="172" height="5" rx="2.5" fill="#D4254E"/>
<rect x="140.75" y="107.5" width="172" height="5" rx="2.5" stroke="#D4254E"/>
</svg>
