<svg width="398" height="206" viewBox="0 0 398 206" fill="none" xmlns="http://www.w3.org/2000/svg">
<path d="M113.75 109.75H97.7499C97.6189 109.75 97.4902 109.715 97.3763 109.651C97.2624 109.586 97.1672 109.493 97.0999 109.38C97.036 109.265 97.0024 109.136 97.0024 109.005C97.0024 108.874 97.036 108.745 97.0999 108.63L105.1 94.6301C105.171 94.5228 105.268 94.4348 105.381 94.374C105.494 94.3131 105.621 94.2812 105.75 94.2812C105.879 94.2812 106.005 94.3131 106.119 94.374C106.232 94.4348 106.329 94.5228 106.4 94.6301L114.4 108.63C114.464 108.745 114.497 108.874 114.497 109.005C114.497 109.136 114.464 109.265 114.4 109.38C114.333 109.493 114.237 109.586 114.124 109.651C114.01 109.715 113.881 109.75 113.75 109.75ZM99.0399 108.25H112.46L105.75 96.5101L99.0399 108.25Z" fill="#D4254E"/>
<path d="M105.75 104.25C105.552 104.247 105.363 104.168 105.223 104.027C105.082 103.887 105.003 103.698 105 103.5V100C105 99.8011 105.079 99.6103 105.22 99.4697C105.36 99.329 105.551 99.25 105.75 99.25C105.949 99.25 106.14 99.329 106.28 99.4697C106.421 99.6103 106.5 99.8011 106.5 100V103.5C106.497 103.698 106.418 103.887 106.277 104.027C106.137 104.168 105.948 104.247 105.75 104.25V104.25Z" fill="#D4254E"/>
<path d="M105.75 107.25C105.552 107.247 105.363 107.168 105.223 107.027C105.082 106.887 105.003 106.698 105 106.5V106C105 105.801 105.079 105.61 105.22 105.47C105.36 105.329 105.551 105.25 105.75 105.25C105.949 105.25 106.14 105.329 106.28 105.47C106.421 105.61 106.5 105.801 106.5 106V106.5C106.497 106.698 106.418 106.887 106.277 107.027C106.137 107.168 105.948 107.247 105.75 107.25V107.25Z" fill="#D4254E"/>
<rect x="126.25" y="100.5" width="85" height="5" rx="2.5" fill="#D4254E"/>
<rect x="126.25" y="100.5" width="85" height="5" rx="2.5" stroke="#D4254E"/>
<rect x="220.25" y="100.5" width="20" height="5" rx="2.5" fill="#D4254E"/>
<rect x="220.25" y="100.5" width="20" height="5" rx="2.5" stroke="#D4254E"/>
<rect x="249.25" y="100.5" width="55" height="5" rx="2.5" fill="#D4254E"/>
<rect x="249.25" y="100.5" width="55" height="5" rx="2.5" stroke="#D4254E"/>
</svg>
