<svg width="398" height="206" viewBox="0 0 398 206" fill="none" xmlns="http://www.w3.org/2000/svg">
<path d="M220.583 83.0002H177.917C177.567 82.9992 177.224 82.9078 176.92 82.7349C176.616 82.562 176.363 82.3135 176.183 82.0136C176.013 81.7078 175.923 81.3636 175.923 81.0136C175.923 80.6635 176.013 80.3193 176.183 80.0136L197.517 42.6802C197.706 42.3942 197.964 42.1596 198.266 41.9973C198.569 41.8349 198.907 41.75 199.25 41.75C199.593 41.75 199.931 41.8349 200.234 41.9973C200.536 42.1596 200.794 42.3942 200.983 42.6802L222.317 80.0136C222.487 80.3193 222.577 80.6635 222.577 81.0136C222.577 81.3636 222.487 81.7078 222.317 82.0136C222.137 82.3135 221.883 82.562 221.58 82.7349C221.276 82.9078 220.933 82.9992 220.583 83.0002ZM181.357 79.0002H217.143L199.25 47.6936L181.357 79.0002Z" fill="#D4254E"/>
<path d="M199.25 68.3333C198.722 68.3264 198.217 68.1135 197.843 67.7399C197.47 67.3663 197.257 66.8616 197.25 66.3333V57C197.25 56.4696 197.461 55.9609 197.836 55.5858C198.211 55.2107 198.72 55 199.25 55C199.78 55 200.289 55.2107 200.664 55.5858C201.039 55.9609 201.25 56.4696 201.25 57V66.3333C201.243 66.8616 201.03 67.3663 200.657 67.7399C200.283 68.1135 199.778 68.3264 199.25 68.3333V68.3333Z" fill="#D4254E"/>
<path d="M199.25 76.3333C198.722 76.3264 198.217 76.1135 197.843 75.7399C197.47 75.3663 197.257 74.8616 197.25 74.3333V73C197.25 72.4696 197.461 71.9609 197.836 71.5858C198.211 71.2107 198.72 71 199.25 71C199.78 71 200.289 71.2107 200.664 71.5858C201.039 71.9609 201.25 72.4696 201.25 73V74.3333C201.243 74.8616 201.03 75.3663 200.657 75.7399C200.283 76.1135 199.778 76.3264 199.25 76.3333V76.3333Z" fill="#D4254E"/>
<rect x="140.25" y="113.5" width="118" height="5" rx="2.5" fill="#D4254E"/>
<rect x="140.25" y="113.5" width="118" height="5" rx="2.5" stroke="#D4254E"/>
<rect x="113.25" y="127.5" width="172" height="5" rx="2.5" fill="#D4254E"/>
<rect x="113.25" y="127.5" width="172" height="5" rx="2.5" stroke="#D4254E"/>
<rect x="162.25" y="149.5" width="74" height="23" rx="3.5" fill="#EDE9ED"/>
<rect x="162.25" y="149.5" width="74" height="23" rx="3.5" stroke="#6C3078"/>
</svg>
