<svg width="903" height="678" viewBox="0 0 903 678" fill="none" xmlns="http://www.w3.org/2000/svg">
<rect width="883" height="658" transform="translate(10 10)" fill="white"/>
<g filter="url(#filter0_d_539_47162)">
<g clip-path="url(#clip0_539_47162)">
<rect x="10" y="10" width="883" height="658" rx="2" fill="white"/>
<mask id="mask0_539_47162" style="mask-type:luminance" maskUnits="userSpaceOnUse" x="10" y="10" width="883" height="658">
<rect x="10" y="10" width="883" height="658" rx="2" fill="white"/>
</mask>
<g mask="url(#mask0_539_47162)">
</g>
<g clip-path="url(#clip1_539_47162)">
<g clip-path="url(#clip2_539_47162)">
<rect x="10" y="10" width="883" height="47" fill="#C7C7C7"/>
<path fill-rule="evenodd" clip-rule="evenodd" d="M95 21C95 19.8954 95.8954 19 97 19H852C853.105 19 854 19.8954 854 21V47C854 48.1046 853.105 49 852 49H97C95.8954 49 95 48.1046 95 47V21Z" fill="#F8F9FB"/>
</g>
<g clip-path="url(#clip3_539_47162)">
<circle cx="27.5" cy="32.5" r="7.5" fill="#FF6057"/>
<circle cx="49.5" cy="32.5" r="7.5" fill="#FFC12E"/>
<circle cx="73.5" cy="32.5" r="7.5" fill="#28CA40"/>
</g>
</g>
</g>
</g>
<rect x="50" y="69" width="180" height="16.3838" fill="#D2D6DD"/>
<g clip-path="url(#clip4_539_47162)">
<rect width="113" height="52" transform="translate(50 88.3838)" fill="white" fill-opacity="0.01"/>
<path d="M72.25 120.384H83.8516V112.649H72.25V120.384ZM83.5 120.384H95.1016V112.649H83.5V120.384ZM94.75 120.384H106.352V112.649H94.75V120.384ZM106 120.384H117.602V112.649H106V120.384ZM117.25 120.384H128.852V112.649H117.25V120.384ZM128.5 120.384H140.102V112.649H128.5V120.384Z" fill="#6C3078"/>
<rect x="50" y="138.384" width="113" height="2" rx="1" fill="#6C3078"/>
</g>
<g clip-path="url(#clip5_539_47162)">
<rect width="30" height="39" transform="translate(179 101.384)" fill="white" fill-opacity="0.01"/>
<path d="M184.625 119.884H196.227V112.149H184.625V119.884ZM195.875 119.884H207.477V112.149H195.875V119.884ZM207.125 119.884H218.727V112.149H207.125V119.884ZM218.375 119.884H229.977V112.149H218.375V119.884ZM229.625 119.884H241.227V112.149H229.625V119.884ZM240.875 119.884H252.477V112.149H240.875V119.884ZM252.125 119.884H263.727V112.149H252.125V119.884Z" fill="#D2D6DD"/>
</g>
<rect x="50.5" y="140.884" width="241" height="1" rx="0.5" fill="#D2D6DD" stroke="#D2D6DD"/>
<path d="M893 153.384H10V155.384H893V153.384Z" fill="#E7EDF9" mask="url(#path-8-inside-1_539_47162)"/>
<rect x="50.5" y="176.5" width="803" height="165" fill="white"/>
<rect x="66" y="192" width="132" height="10" rx="5" fill="#E6E6E6"/>
<rect width="772" height="108" transform="translate(66 218)" fill="#E7EDF9"/>
<rect x="67" y="219" width="770" height="20" fill="#E6E6E6"/>
<rect x="67" y="240" width="770" height="85" fill="white"/>
<rect x="50.5" y="176.5" width="803" height="165" stroke="#E7EDF9"/>
<rect x="50.5" y="358.5" width="256.333" height="275" fill="white"/>
<rect x="66" y="409" width="132" height="10" rx="5" fill="#E6E6E6"/>
<rect width="225.333" height="148" transform="translate(66 435)" fill="#E7EDF9"/>
<rect x="67" y="436" width="223.333" height="20" fill="#E6E6E6"/>
<rect x="67" y="457" width="223.333" height="125" fill="white"/>
<rect x="50.5" y="358.5" width="256.333" height="275" stroke="#E7EDF9"/>
<rect x="323.833" y="358.5" width="256.333" height="275" fill="white"/>
<rect x="339.333" y="409" width="132" height="10" rx="5" fill="#E6E6E6"/>
<rect width="225.333" height="148" transform="translate(339.333 435)" fill="#E7EDF9"/>
<rect x="340.333" y="436" width="223.333" height="20" fill="#E6E6E6"/>
<rect x="340.333" y="457" width="223.333" height="125" fill="white"/>
<rect x="323.833" y="358.5" width="256.333" height="275" stroke="#E7EDF9"/>
<rect x="597.167" y="358.5" width="256.333" height="275" fill="white"/>
<path opacity="0.3" d="M764.833 434.868C764.833 457.137 751.118 484 728.738 484C706.359 484 685.833 468.319 685.833 446.05C685.833 423.78 696.484 402 718.863 402C741.243 402 764.833 412.598 764.833 434.868Z" fill="#EDE9ED"/>
<path d="M671.439 512H678.257V510.404H673.203V507.716H677.753V506.12H673.203V503.684H678.005V502.088H671.439V512ZM679.774 512H681.454V508.332C681.454 507.436 681.888 506.624 682.994 506.624C683.806 506.624 684.142 507.17 684.142 507.996V512H685.822V508.36C685.822 507.492 686.214 506.624 687.264 506.624C688.258 506.624 688.51 507.352 688.51 508.192V512H690.19V507.996C690.19 506.386 689.56 505.112 687.768 505.112C686.76 505.112 686.046 505.504 685.556 506.358C685.206 505.518 684.492 505.112 683.456 505.112C682.336 505.112 681.692 505.7 681.398 506.33H681.37V505.28H679.774V512ZM692.025 515.192H693.705V511.146H693.747C694.097 511.58 694.769 512.168 696.029 512.168C697.947 512.168 699.277 510.628 699.277 508.64C699.277 506.652 698.031 505.112 695.959 505.112C695.021 505.112 694.139 505.476 693.649 506.288H693.621V505.28H692.025V515.192ZM697.597 508.64C697.597 509.69 696.855 510.656 695.623 510.656C694.391 510.656 693.649 509.69 693.649 508.64C693.649 507.59 694.391 506.624 695.623 506.624C696.855 506.624 697.597 507.59 697.597 508.64ZM701.446 506.708V509.788C701.446 511.37 701.866 512.168 703.644 512.168C704.036 512.168 704.624 512.112 704.974 511.944V510.53C704.764 510.684 704.358 510.74 704.064 510.74C703.322 510.74 703.126 510.32 703.126 509.648V506.708H704.974V505.28H703.126V503.334H701.446V505.28H700.06V506.708H701.446ZM708.245 512.056L707.923 512.854C707.643 513.554 707.419 513.848 706.593 513.848C706.299 513.848 706.005 513.778 705.739 513.68L705.529 515.192C705.949 515.304 706.383 515.36 706.817 515.36C708.301 515.36 708.889 514.702 709.379 513.442L712.557 505.28H710.807L709.127 509.942H709.099L707.223 505.28H705.375L708.245 512.056ZM722.391 506.134C721.845 505.392 720.893 505.112 719.997 505.112C718.639 505.112 717.295 505.784 717.295 507.282C717.295 509.844 720.921 508.752 720.921 510.138C720.921 510.67 720.291 510.908 719.801 510.908C719.087 510.908 718.639 510.558 718.205 510.082L717.085 511.132C717.771 511.902 718.667 512.168 719.703 512.168C721.075 512.168 722.601 511.608 722.601 510.012C722.601 507.394 718.975 508.374 718.975 507.17C718.975 506.666 719.507 506.456 719.955 506.456C720.529 506.456 720.949 506.694 721.271 507.142L722.391 506.134ZM724.51 506.708V509.788C724.51 511.37 724.93 512.168 726.708 512.168C727.1 512.168 727.688 512.112 728.038 511.944V510.53C727.828 510.684 727.422 510.74 727.128 510.74C726.386 510.74 726.19 510.32 726.19 509.648V506.708H728.038V505.28H726.19V503.334H724.51V505.28H723.124V506.708H724.51ZM733.549 512H735.061V508.136C735.061 507.184 735.061 505.112 732.191 505.112C731.127 505.112 730.077 505.434 729.335 506.19L730.217 507.072C730.665 506.652 731.309 506.372 732.009 506.372C732.905 506.372 733.549 506.806 733.549 507.632V507.814H733.129C731.449 507.814 728.901 507.968 728.901 510.152C728.901 511.482 730.105 512.168 731.351 512.168C732.247 512.168 733.031 511.832 733.507 511.076H733.549V512ZM733.451 509.368C733.451 510.306 732.905 510.908 731.757 510.908C731.211 510.908 730.581 510.642 730.581 510.026C730.581 509.06 732.177 508.99 733.101 508.99H733.451V509.368ZM737.471 506.708V509.788C737.471 511.37 737.891 512.168 739.669 512.168C740.061 512.168 740.649 512.112 740.999 511.944V510.53C740.789 510.684 740.383 510.74 740.089 510.74C739.347 510.74 739.151 510.32 739.151 509.648V506.708H740.999V505.28H739.151V503.334H737.471V505.28H736.085V506.708H737.471ZM748.778 509.228V508.766C748.778 506.428 747.504 505.112 745.628 505.112C743.598 505.112 741.974 506.526 741.974 508.64C741.974 510.754 743.598 512.168 745.628 512.168C746.692 512.168 747.686 511.79 748.47 510.824L747.266 509.914C746.846 510.432 746.3 510.824 745.46 510.824C744.522 510.824 743.766 510.222 743.654 509.228H748.778ZM743.654 507.968C743.78 507.002 744.396 506.372 745.39 506.372C746.44 506.372 747.084 506.988 747.098 507.968H743.654ZM755.094 506.708V509.788C755.094 511.37 755.514 512.168 757.292 512.168C757.684 512.168 758.272 512.112 758.622 511.944V510.53C758.412 510.684 758.006 510.74 757.712 510.74C756.97 510.74 756.774 510.32 756.774 509.648V506.708H758.622V505.28H756.774V503.334H755.094V505.28H753.708V506.708H755.094ZM759.961 512H761.641V505.28H759.961V512ZM759.723 502.998C759.723 503.53 760.171 504.006 760.787 504.006C761.403 504.006 761.879 503.572 761.879 502.998C761.879 502.424 761.403 501.99 760.787 501.99C760.171 501.99 759.723 502.466 759.723 502.998ZM764.172 506.708V509.788C764.172 511.37 764.592 512.168 766.37 512.168C766.762 512.168 767.35 512.112 767.7 511.944V510.53C767.49 510.684 767.084 510.74 766.79 510.74C766.048 510.74 765.852 510.32 765.852 509.648V506.708H767.7V505.28H765.852V503.334H764.172V505.28H762.786V506.708H764.172ZM769.04 512H770.72V501.416H769.04V512ZM779.116 509.228V508.766C779.116 506.428 777.842 505.112 775.966 505.112C773.936 505.112 772.312 506.526 772.312 508.64C772.312 510.754 773.936 512.168 775.966 512.168C777.03 512.168 778.024 511.79 778.808 510.824L777.604 509.914C777.184 510.432 776.638 510.824 775.798 510.824C774.86 510.824 774.104 510.222 773.992 509.228H779.116ZM773.992 507.968C774.118 507.002 774.734 506.372 775.728 506.372C776.778 506.372 777.422 506.988 777.436 507.968H773.992Z" fill="black"/>
<path d="M651.565 533H658.047V531.908H652.741V528.38H657.459V527.288H652.741V524.18H657.795V523.088H651.565V533ZM659.668 533H660.76V529.808C660.76 528.31 661.376 527.288 662.79 527.288C663.686 527.288 664.05 527.848 664.05 529.29V533H665.142V529.22C665.142 528.044 665.912 527.288 666.836 527.288C668.11 527.288 668.432 528.17 668.432 529.08V533H669.524V529.024C669.524 527.33 668.908 526.28 667.032 526.28C666.038 526.28 665.436 526.756 664.96 527.526C664.75 527.078 664.302 526.28 662.888 526.28C661.81 526.28 660.998 526.882 660.704 527.526H660.676C660.676 527.162 660.648 526.798 660.648 526.448H659.612C659.612 526.882 659.668 527.4 659.668 528.002V533ZM671.534 536.192H672.626V531.838H672.654C673.06 532.58 673.998 533.168 675.174 533.168C677.008 533.168 678.45 531.684 678.45 529.724C678.45 527.736 677.064 526.28 675.006 526.28C674.054 526.28 673.256 526.7 672.654 527.4H672.626V526.448H671.534V536.192ZM672.626 529.724C672.626 528.352 673.536 527.288 674.95 527.288C676.364 527.288 677.274 528.352 677.274 529.724C677.274 531.096 676.364 532.16 674.95 532.16C673.536 532.16 672.626 531.096 672.626 529.724ZM683.732 526.448H681.8V524.586H680.708V526.448H679.28V527.372H680.708V530.97C680.708 532.328 680.96 533.168 682.514 533.168C682.92 533.168 683.41 533.098 683.788 532.93L683.746 531.936C683.452 532.09 683.102 532.16 682.78 532.16C681.814 532.16 681.8 531.488 681.8 530.648V527.372H683.732V526.448ZM690.642 526.448H689.452L687.506 531.586H687.478L685.448 526.448H684.174L686.89 533.042L686.442 534.274C686.204 534.918 685.938 535.352 685.224 535.352C684.916 535.352 684.678 535.324 684.454 535.24L684.314 536.192C684.608 536.332 684.986 536.36 685.294 536.36C686.61 536.36 687.044 535.604 687.478 534.498L690.642 526.448ZM694.993 531.95C695.637 532.874 696.435 533.168 697.541 533.168C698.843 533.168 700.159 532.594 700.159 531.11C700.159 529.794 699.179 529.374 698.017 529.15C697.149 528.982 696.365 528.744 696.365 528.198C696.365 527.582 697.051 527.288 697.653 527.288C698.297 527.288 698.759 527.61 699.039 528.072L699.949 527.47C699.501 526.63 698.647 526.28 697.723 526.28C696.505 526.28 695.273 526.938 695.273 528.212C695.273 529.57 696.337 529.836 697.583 530.116C698.283 530.27 698.983 530.452 698.983 531.152C698.983 531.866 698.227 532.16 697.541 532.16C696.771 532.16 696.295 531.81 695.861 531.278L694.993 531.95ZM705.266 526.448H703.334V524.586H702.242V526.448H700.814V527.372H702.242V530.97C702.242 532.328 702.494 533.168 704.048 533.168C704.454 533.168 704.944 533.098 705.322 532.93L705.28 531.936C704.986 532.09 704.636 532.16 704.314 532.16C703.348 532.16 703.334 531.488 703.334 530.648V527.372H705.266V526.448ZM707.205 528.002C707.723 527.526 708.451 527.288 709.151 527.288C710.173 527.288 710.775 527.778 710.775 528.73V528.926H710.355C708.745 528.926 706.225 529.052 706.225 531.222C706.225 532.496 707.331 533.168 708.661 533.168C709.655 533.168 710.383 532.692 710.817 532.02H710.845C710.845 532.3 710.845 532.706 710.915 533H711.965C711.909 532.664 711.867 532.244 711.867 531.866V529.052C711.867 527.204 711.055 526.28 709.123 526.28C708.171 526.28 707.191 526.602 706.519 527.288L707.205 528.002ZM710.775 529.85V530.27C710.747 531.334 710.103 532.244 708.843 532.244C708.017 532.244 707.401 531.936 707.401 531.11C707.401 530.228 708.297 529.85 709.683 529.85H710.775ZM717.447 526.448H715.515V524.586H714.423V526.448H712.995V527.372H714.423V530.97C714.423 532.328 714.675 533.168 716.229 533.168C716.635 533.168 717.125 533.098 717.503 532.93L717.461 531.936C717.167 532.09 716.817 532.16 716.495 532.16C715.529 532.16 715.515 531.488 715.515 530.648V527.372H717.447V526.448ZM723.811 531.166C723.293 531.824 722.663 532.16 721.725 532.16C720.535 532.16 719.667 531.194 719.583 530.06H724.875V529.71C724.875 527.54 723.615 526.28 721.767 526.28C719.835 526.28 718.407 527.694 718.407 529.724C718.407 531.628 719.667 533.168 721.725 533.168C722.943 533.168 723.867 532.804 724.637 531.81L723.811 531.166ZM719.583 529.136C719.723 528.03 720.521 527.288 721.725 527.288C722.929 527.288 723.657 528.03 723.699 529.136H719.583ZM735.907 533H736.999V522.416H735.907V527.4H735.879C735.277 526.7 734.479 526.28 733.527 526.28C731.469 526.28 730.083 527.736 730.083 529.724C730.083 531.684 731.525 533.168 733.359 533.168C734.535 533.168 735.473 532.58 735.879 531.838H735.907V533ZM735.907 529.724C735.907 531.096 734.997 532.16 733.583 532.16C732.169 532.16 731.259 531.096 731.259 529.724C731.259 528.352 732.169 527.288 733.583 527.288C734.997 527.288 735.907 528.352 735.907 529.724ZM744.045 531.166C743.527 531.824 742.897 532.16 741.959 532.16C740.769 532.16 739.901 531.194 739.817 530.06H745.109V529.71C745.109 527.54 743.849 526.28 742.001 526.28C740.069 526.28 738.641 527.694 738.641 529.724C738.641 531.628 739.901 533.168 741.959 533.168C743.177 533.168 744.101 532.804 744.871 531.81L744.045 531.166ZM739.817 529.136C739.957 528.03 740.755 527.288 741.959 527.288C743.163 527.288 743.891 528.03 743.933 529.136H739.817ZM746.071 531.95C746.715 532.874 747.513 533.168 748.619 533.168C749.921 533.168 751.237 532.594 751.237 531.11C751.237 529.794 750.257 529.374 749.095 529.15C748.227 528.982 747.443 528.744 747.443 528.198C747.443 527.582 748.129 527.288 748.731 527.288C749.375 527.288 749.837 527.61 750.117 528.072L751.027 527.47C750.579 526.63 749.725 526.28 748.801 526.28C747.583 526.28 746.351 526.938 746.351 528.212C746.351 529.57 747.415 529.836 748.661 530.116C749.361 530.27 750.061 530.452 750.061 531.152C750.061 531.866 749.305 532.16 748.619 532.16C747.849 532.16 747.373 531.81 746.939 531.278L746.071 531.95ZM758.29 527.316C757.632 526.602 756.736 526.28 755.77 526.28C753.754 526.28 752.382 527.736 752.382 529.724C752.382 531.74 753.74 533.168 755.77 533.168C756.722 533.168 757.618 532.846 758.248 532.118L757.436 531.348C757.03 531.908 756.484 532.16 755.77 532.16C754.44 532.16 753.558 531.068 753.558 529.724C753.558 528.38 754.3 527.288 755.77 527.288C756.428 527.288 756.96 527.526 757.422 528.086L758.29 527.316ZM759.514 533H760.606V529.808C760.606 528.31 761.194 527.372 762.524 527.372C762.72 527.372 762.93 527.4 763.112 527.456L763.182 526.35C763.028 526.294 762.874 526.28 762.734 526.28C761.656 526.28 760.844 526.882 760.55 527.526H760.522C760.522 527.162 760.494 526.798 760.494 526.448H759.458C759.458 526.882 759.514 527.4 759.514 528.002V533ZM764.533 533H765.625V526.448H764.533V533ZM764.281 523.886C764.281 524.348 764.617 524.684 765.079 524.684C765.541 524.684 765.877 524.348 765.877 523.886C765.877 523.452 765.527 523.088 765.079 523.088C764.631 523.088 764.281 523.452 764.281 523.886ZM767.743 536.192H768.835V531.838H768.863C769.269 532.58 770.207 533.168 771.383 533.168C773.217 533.168 774.659 531.684 774.659 529.724C774.659 527.736 773.273 526.28 771.215 526.28C770.263 526.28 769.465 526.7 768.863 527.4H768.835V526.448H767.743V536.192ZM768.835 529.724C768.835 528.352 769.745 527.288 771.159 527.288C772.573 527.288 773.483 528.352 773.483 529.724C773.483 531.096 772.573 532.16 771.159 532.16C769.745 532.16 768.835 531.096 768.835 529.724ZM779.941 526.448H778.009V524.586H776.917V526.448H775.489V527.372H776.917V530.97C776.917 532.328 777.169 533.168 778.723 533.168C779.129 533.168 779.619 533.098 779.997 532.93L779.955 531.936C779.661 532.09 779.311 532.16 778.989 532.16C778.023 532.16 778.009 531.488 778.009 530.648V527.372H779.941V526.448ZM781.377 533H782.469V526.448H781.377V533ZM781.125 523.886C781.125 524.348 781.461 524.684 781.923 524.684C782.385 524.684 782.721 524.348 782.721 523.886C782.721 523.452 782.371 523.088 781.923 523.088C781.475 523.088 781.125 523.452 781.125 523.886ZM784.264 529.724C784.264 531.768 785.748 533.168 787.764 533.168C789.78 533.168 791.264 531.768 791.264 529.724C791.264 527.68 789.78 526.28 787.764 526.28C785.748 526.28 784.264 527.68 784.264 529.724ZM785.44 529.724C785.44 528.352 786.35 527.288 787.764 527.288C789.178 527.288 790.088 528.352 790.088 529.724C790.088 531.096 789.178 532.16 787.764 532.16C786.35 532.16 785.44 531.096 785.44 529.724ZM792.955 533H794.047V529.808C794.047 528.31 794.663 527.288 796.077 527.288C797.099 527.288 797.575 527.974 797.575 529.066V533H798.667V528.954C798.667 527.372 797.897 526.28 796.175 526.28C795.097 526.28 794.285 526.882 793.991 527.526H793.963C793.963 527.162 793.935 526.798 793.935 526.448H792.899C792.899 526.882 792.955 527.4 792.955 528.002V533Z" fill="black"/>
<rect x="684.333" y="554.5" width="82" height="35" rx="3.5" fill="#EDE9ED"/>
<path d="M703.833 576H705.807L706.703 573.732H711.001L711.925 576H713.941L709.671 566.088H708.145L703.833 576ZM707.305 572.22L708.859 568.188L710.385 572.22H707.305ZM720.643 570.134C719.999 569.42 719.061 569.112 718.207 569.112C716.177 569.112 714.553 570.526 714.553 572.64C714.553 574.754 716.177 576.168 718.207 576.168C718.795 576.168 719.943 575.916 720.629 575.23L719.509 574.026C719.201 574.432 718.725 574.656 718.207 574.656C716.975 574.656 716.233 573.69 716.233 572.64C716.233 571.59 716.975 570.624 718.207 570.624C718.655 570.624 719.089 570.89 719.481 571.296L720.643 570.134ZM722.244 570.708V573.788C722.244 575.37 722.664 576.168 724.442 576.168C724.834 576.168 725.422 576.112 725.772 575.944V574.53C725.562 574.684 725.156 574.74 724.862 574.74C724.12 574.74 723.924 574.32 723.924 573.648V570.708H725.772V569.28H723.924V567.334H722.244V569.28H720.858V570.708H722.244ZM727.112 576H728.792V569.28H727.112V576ZM726.874 566.998C726.874 567.53 727.322 568.006 727.938 568.006C728.554 568.006 729.03 567.572 729.03 566.998C729.03 566.424 728.554 565.99 727.938 565.99C727.322 565.99 726.874 566.466 726.874 566.998ZM730.385 572.64C730.385 574.754 732.009 576.168 734.039 576.168C736.069 576.168 737.693 574.754 737.693 572.64C737.693 570.526 736.069 569.112 734.039 569.112C732.009 569.112 730.385 570.526 730.385 572.64ZM732.065 572.64C732.065 571.59 732.807 570.624 734.039 570.624C735.271 570.624 736.013 571.59 736.013 572.64C736.013 573.69 735.271 574.656 734.039 574.656C732.807 574.656 732.065 573.69 732.065 572.64ZM739.265 576H740.945V572.332C740.945 571.436 741.379 570.624 742.485 570.624C743.661 570.624 743.717 571.856 743.717 572.598V576H745.397V571.758C745.397 570.386 744.753 569.112 742.947 569.112C741.827 569.112 741.197 569.686 740.889 570.358H740.861V569.28H739.265V576Z" fill="#6C3078"/>
<rect x="684.333" y="554.5" width="82" height="35" rx="3.5" stroke="#6C3078"/>
<path d="M706.869 445.606L718.032 434.442L723.185 439.595L730.053 432.726L733.485 436.164L737.78 431.869L734.343 428.437L746.364 426.716L744.648 438.737L741.217 435.306L733.485 443.032L730.053 439.595L723.185 446.463L718.032 441.316L708.584 450.758" stroke="#6B778C" stroke-width="1.5" stroke-linecap="round" stroke-linejoin="round"/>
<path d="M703.437 425V461.064H744.648" stroke="#9EA6B5" stroke-width="1.5" stroke-linecap="round" stroke-linejoin="round"/>
<path d="M739.495 442.174V457.626" stroke="#9EA6B5" stroke-width="1.5" stroke-linecap="round" stroke-linejoin="round"/>
<path d="M744.648 442.174V457.626" stroke="#9EA6B5" stroke-width="1.5" stroke-linecap="round" stroke-linejoin="round"/>
<path d="M734.348 446.463V457.626" stroke="#9EA6B5" stroke-width="1.5" stroke-linecap="round" stroke-linejoin="round"/>
<path d="M729.195 445.605V457.627" stroke="#9EA6B5" stroke-width="1.5" stroke-linecap="round" stroke-linejoin="round"/>
<path d="M724.042 449.9V457.627" stroke="#9EA6B5" stroke-width="1.5" stroke-linecap="round" stroke-linejoin="round"/>
<path d="M718.89 447.326V457.626" stroke="#9EA6B5" stroke-width="1.5" stroke-linecap="round" stroke-linejoin="round"/>
<path d="M713.737 450.758V457.626" stroke="#9EA6B5" stroke-width="1.5" stroke-linecap="round" stroke-linejoin="round"/>
<path d="M708.584 454.195V457.627" stroke="#9EA6B5" stroke-width="1.5" stroke-linecap="round" stroke-linejoin="round"/>
<path d="M700 430.153H703.437" stroke="#9EA6B5" stroke-width="1.5" stroke-linecap="round" stroke-linejoin="round"/>
<path d="M700 435.305H703.437" stroke="#9EA6B5" stroke-width="1.5" stroke-linecap="round" stroke-linejoin="round"/>
<path d="M700 440.453H703.437" stroke="#9EA6B5" stroke-width="1.5" stroke-linecap="round" stroke-linejoin="round"/>
<path d="M700 445.605H703.437" stroke="#9EA6B5" stroke-width="1.5" stroke-linecap="round" stroke-linejoin="round"/>
<path d="M700 450.758H703.437" stroke="#9EA6B5" stroke-width="1.5" stroke-linecap="round" stroke-linejoin="round"/>
<path d="M700 455.911H703.437" stroke="#9EA6B5" stroke-width="1.5" stroke-linecap="round" stroke-linejoin="round"/>
<path d="M713.737 426.716H710.3C710.074 426.716 709.851 426.76 709.642 426.847C709.434 426.933 709.244 427.06 709.085 427.219C708.925 427.379 708.799 427.568 708.712 427.777C708.626 427.985 708.582 428.209 708.582 428.434C708.582 428.66 708.626 428.884 708.712 429.092C708.799 429.301 708.925 429.49 709.085 429.65C709.244 429.809 709.434 429.936 709.642 430.022C709.851 430.108 710.074 430.153 710.3 430.153H711.993C712.448 430.153 712.885 430.334 713.206 430.655C713.528 430.977 713.709 431.414 713.709 431.869C713.709 432.324 713.528 432.76 713.206 433.082C712.885 433.404 712.448 433.584 711.993 433.584H708.607" stroke="#9EA6B5" stroke-width="1.5" stroke-linecap="round" stroke-linejoin="round"/>
<path d="M711.163 425V426.716" stroke="#9EA6B5" stroke-width="1.5" stroke-linecap="round" stroke-linejoin="round"/>
<path d="M711.163 433.584V435.305" stroke="#9EA6B5" stroke-width="1.5" stroke-linecap="round" stroke-linejoin="round"/>
<rect x="597.167" y="358.5" width="256.333" height="275" stroke="#E7EDF9"/>
<defs>
<filter id="filter0_d_539_47162" x="0" y="0" width="903" height="678" filterUnits="userSpaceOnUse" color-interpolation-filters="sRGB">
<feFlood flood-opacity="0" result="BackgroundImageFix"/>
<feColorMatrix in="SourceAlpha" type="matrix" values="0 0 0 0 0 0 0 0 0 0 0 0 0 0 0 0 0 0 127 0" result="hardAlpha"/>
<feOffset/>
<feGaussianBlur stdDeviation="5"/>
<feColorMatrix type="matrix" values="0 0 0 0 0 0 0 0 0 0 0 0 0 0 0 0 0 0 0.5 0"/>
<feBlend mode="normal" in2="BackgroundImageFix" result="effect1_dropShadow_539_47162"/>
<feBlend mode="normal" in="SourceGraphic" in2="effect1_dropShadow_539_47162" result="shape"/>
</filter>
<clipPath id="clip0_539_47162">
<rect width="883" height="658" fill="white" transform="translate(10 10)"/>
</clipPath>
<clipPath id="clip1_539_47162">
<rect width="883" height="47" fill="white" transform="translate(10 10)"/>
</clipPath>
<clipPath id="clip2_539_47162">
<rect width="883" height="47" fill="white" transform="translate(10 10)"/>
</clipPath>
<clipPath id="clip3_539_47162">
<rect width="61" height="15" fill="white" transform="translate(20 25)"/>
</clipPath>
<clipPath id="clip4_539_47162">
<rect width="113" height="52" fill="white" transform="translate(50 88.3838)"/>
</clipPath>
<clipPath id="clip5_539_47162">
<rect width="30" height="39" fill="white" transform="translate(179 101.384)"/>
</clipPath>
</defs>
</svg>
