<svg width="561" height="121" viewBox="0 0 561 121" fill="none" xmlns="http://www.w3.org/2000/svg">
<path d="M1.106 12H2.87V7.898H4.13C6.23 7.898 8.092 7.45 8.092 4.958C8.092 2.76 6.356 2.088 4.438 2.088H1.106V12ZM2.87 6.386V3.6H4.13C5.082 3.6 6.244 3.768 6.244 4.986C6.244 6.33 4.942 6.386 3.934 6.386H2.87ZM13.7106 12H15.2226V8.136C15.2226 7.184 15.2226 5.112 12.3526 5.112C11.2886 5.112 10.2386 5.434 9.49659 6.19L10.3786 7.072C10.8266 6.652 11.4706 6.372 12.1706 6.372C13.0666 6.372 13.7106 6.806 13.7106 7.632V7.814H13.2906C11.6106 7.814 9.06259 7.968 9.06259 10.152C9.06259 11.482 10.2666 12.168 11.5126 12.168C12.4086 12.168 13.1926 11.832 13.6686 11.076H13.7106V12ZM13.6126 9.368C13.6126 10.306 13.0666 10.908 11.9186 10.908C11.3726 10.908 10.7426 10.642 10.7426 10.026C10.7426 9.06 12.3386 8.99 13.2626 8.99H13.6126V9.368ZM17.0301 12H18.7101V8.402C18.7101 8.038 18.9341 6.708 20.5161 6.708C20.7821 6.708 21.0481 6.764 21.3281 6.834V5.21C21.1321 5.154 20.9361 5.112 20.7261 5.112C19.8441 5.112 19.1021 5.574 18.7381 6.344H18.7101V5.28H17.0301V12ZM23.0735 6.708V9.788C23.0735 11.37 23.4935 12.168 25.2715 12.168C25.6635 12.168 26.2515 12.112 26.6015 11.944V10.53C26.3915 10.684 25.9855 10.74 25.6915 10.74C24.9495 10.74 24.7535 10.32 24.7535 9.648V6.708H26.6015V5.28H24.7535V3.334H23.0735V5.28H21.6875V6.708H23.0735ZM27.9409 12H29.6209V5.28H27.9409V12ZM27.7029 2.998C27.7029 3.53 28.1509 4.006 28.7669 4.006C29.3829 4.006 29.8589 3.572 29.8589 2.998C29.8589 2.424 29.3829 1.99 28.7669 1.99C28.1509 1.99 27.7029 2.466 27.7029 2.998ZM37.3037 6.134C36.6597 5.42 35.7217 5.112 34.8677 5.112C32.8377 5.112 31.2137 6.526 31.2137 8.64C31.2137 10.754 32.8377 12.168 34.8677 12.168C35.4557 12.168 36.6037 11.916 37.2897 11.23L36.1697 10.026C35.8617 10.432 35.3857 10.656 34.8677 10.656C33.6357 10.656 32.8937 9.69 32.8937 8.64C32.8937 7.59 33.6357 6.624 34.8677 6.624C35.3157 6.624 35.7497 6.89 36.1417 7.296L37.3037 6.134ZM38.3316 12H40.0116V5.28H38.3316V12ZM38.0936 2.998C38.0936 3.53 38.5416 4.006 39.1576 4.006C39.7736 4.006 40.2496 3.572 40.2496 2.998C40.2496 2.424 39.7736 1.99 39.1576 1.99C38.5416 1.99 38.0936 2.466 38.0936 2.998ZM41.9403 15.192H43.6203V11.146H43.6623C44.0123 11.58 44.6843 12.168 45.9443 12.168C47.8623 12.168 49.1923 10.628 49.1923 8.64C49.1923 6.652 47.9463 5.112 45.8743 5.112C44.9363 5.112 44.0543 5.476 43.5643 6.288H43.5363V5.28H41.9403V15.192ZM47.5123 8.64C47.5123 9.69 46.7703 10.656 45.5383 10.656C44.3063 10.656 43.5643 9.69 43.5643 8.64C43.5643 7.59 44.3063 6.624 45.5383 6.624C46.7703 6.624 47.5123 7.59 47.5123 8.64ZM54.9586 12H56.4706V8.136C56.4706 7.184 56.4706 5.112 53.6006 5.112C52.5366 5.112 51.4866 5.434 50.7446 6.19L51.6266 7.072C52.0746 6.652 52.7186 6.372 53.4186 6.372C54.3146 6.372 54.9586 6.806 54.9586 7.632V7.814H54.5386C52.8586 7.814 50.3106 7.968 50.3106 10.152C50.3106 11.482 51.5146 12.168 52.7606 12.168C53.6566 12.168 54.4406 11.832 54.9166 11.076H54.9586V12ZM54.8606 9.368C54.8606 10.306 54.3146 10.908 53.1666 10.908C52.6206 10.908 51.9906 10.642 51.9906 10.026C51.9906 9.06 53.5866 8.99 54.5106 8.99H54.8606V9.368ZM58.2782 12H59.9582V8.332C59.9582 7.436 60.3922 6.624 61.4982 6.624C62.6742 6.624 62.7302 7.856 62.7302 8.598V12H64.4102V7.758C64.4102 6.386 63.7662 5.112 61.9602 5.112C60.8402 5.112 60.2102 5.686 59.9022 6.358H59.8742V5.28H58.2782V12ZM66.9192 6.708V9.788C66.9192 11.37 67.3392 12.168 69.1172 12.168C69.5092 12.168 70.0972 12.112 70.4472 11.944V10.53C70.2372 10.684 69.8312 10.74 69.5372 10.74C68.7952 10.74 68.5992 10.32 68.5992 9.648V6.708H70.4472V5.28H68.5992V3.334H66.9192V5.28H65.5332V6.708H66.9192Z" fill="#9EA6B5"/>
<path d="M6.672 37.288C10.112 37.288 12.592 34.76 12.592 31.336C12.592 27.912 10.112 25.384 6.672 25.384C3.232 25.384 0.752 27.912 0.752 31.336C0.752 34.76 3.232 37.288 6.672 37.288ZM6.672 36.04C4.016 36.04 2.192 33.944 2.192 31.336C2.192 28.728 4.016 26.632 6.672 26.632C9.328 26.632 11.152 28.728 11.152 31.336C11.152 33.944 9.328 36.04 6.672 36.04ZM14.5278 37H15.7758V33.352C15.7758 31.64 16.4478 30.568 17.9678 30.568C18.1918 30.568 18.4318 30.6 18.6398 30.664L18.7198 29.4C18.5438 29.336 18.3678 29.32 18.2078 29.32C16.9758 29.32 16.0478 30.008 15.7118 30.744H15.6798C15.6798 30.328 15.6478 29.912 15.6478 29.512H14.4638C14.4638 30.008 14.5278 30.6 14.5278 31.288V37ZM20.2648 37H21.5128V29.512H20.2648V37ZM19.9768 26.584C19.9768 27.112 20.3608 27.496 20.8888 27.496C21.4168 27.496 21.8008 27.112 21.8008 26.584C21.8008 26.088 21.4008 25.672 20.8888 25.672C20.3768 25.672 19.9768 26.088 19.9768 26.584ZM31.4685 29.512H30.2205V30.792H30.1885C29.6925 29.8 28.5565 29.32 27.5485 29.32C25.1645 29.32 23.5645 30.808 23.5645 33.256C23.5645 35.464 25.1965 37.096 27.5485 37.096C28.5405 37.096 29.5965 36.664 30.1885 35.704H30.2205V36.664C30.2205 38.248 29.6285 39.688 27.3885 39.688C26.2365 39.688 25.3885 39.24 24.6045 38.392L23.7085 39.416C24.7645 40.456 25.9325 40.84 27.3885 40.84C30.0125 40.84 31.4685 39.368 31.4685 36.664V29.512ZM24.9085 33.256C24.9085 31.688 25.9805 30.472 27.5485 30.472C29.1325 30.472 30.2205 31.608 30.2205 33.224C30.2205 34.664 29.2605 35.944 27.5485 35.944C26.0925 35.944 24.9085 34.776 24.9085 33.256ZM33.8898 37H35.1378V29.512H33.8898V37ZM33.6018 26.584C33.6018 27.112 33.9858 27.496 34.5138 27.496C35.0418 27.496 35.4258 27.112 35.4258 26.584C35.4258 26.088 35.0258 25.672 34.5138 25.672C34.0018 25.672 33.6018 26.088 33.6018 26.584ZM37.6215 37H38.8695V33.352C38.8695 31.64 39.5735 30.472 41.1895 30.472C42.3575 30.472 42.9015 31.256 42.9015 32.504V37H44.1495V32.376C44.1495 30.568 43.2695 29.32 41.3015 29.32C40.0695 29.32 39.1415 30.008 38.8055 30.744H38.7735C38.7735 30.328 38.7415 29.912 38.7415 29.512H37.5575C37.5575 30.008 37.6215 30.6 37.6215 31.288V37ZM51.1893 37H58.5972V35.752H52.5333V31.72H57.9253V30.472H52.5333V26.92H58.3093V25.672H51.1893V37ZM59.3136 37H60.8656L63.2016 33.768L65.5696 37H67.2176L64.1296 32.968L66.7056 29.512H65.1856L63.3136 32.2L61.3296 29.512H59.6976L62.3856 32.968L59.3136 37ZM74.1936 34.904C73.6016 35.656 72.8816 36.04 71.8096 36.04C70.4496 36.04 69.4576 34.936 69.3616 33.64H75.4096V33.24C75.4096 30.76 73.9696 29.32 71.8576 29.32C69.6496 29.32 68.0176 30.936 68.0176 33.256C68.0176 35.432 69.4576 37.192 71.8096 37.192C73.2016 37.192 74.2576 36.776 75.1376 35.64L74.1936 34.904ZM69.3616 32.584C69.5216 31.32 70.4336 30.472 71.8096 30.472C73.1856 30.472 74.0176 31.32 74.0656 32.584H69.3616ZM77.3403 37H78.5883V33.352C78.5883 31.64 79.2923 30.472 80.9083 30.472C81.9323 30.472 82.3483 31.112 82.3483 32.76V37H83.5963V32.68C83.5963 31.336 84.4763 30.472 85.5323 30.472C86.9883 30.472 87.3563 31.48 87.3563 32.52V37H88.6043V32.456C88.6043 30.52 87.9003 29.32 85.7563 29.32C84.6203 29.32 83.9323 29.864 83.3883 30.744C83.1483 30.232 82.6363 29.32 81.0203 29.32C79.7883 29.32 78.8603 30.008 78.5243 30.744H78.4923C78.4923 30.328 78.4603 29.912 78.4603 29.512H77.2763C77.2763 30.008 77.3403 30.6 77.3403 31.288V37ZM90.9013 40.648H92.1493V35.672H92.1813C92.6453 36.52 93.7173 37.192 95.0613 37.192C97.1573 37.192 98.8053 35.496 98.8053 33.256C98.8053 30.984 97.2213 29.32 94.8693 29.32C93.7812 29.32 92.8693 29.8 92.1813 30.6H92.1493V29.512H90.9013V40.648ZM92.1493 33.256C92.1493 31.688 93.1893 30.472 94.8053 30.472C96.4213 30.472 97.4613 31.688 97.4613 33.256C97.4613 34.824 96.4213 36.04 94.8053 36.04C93.1893 36.04 92.1493 34.824 92.1493 33.256ZM104.843 29.512H102.635V27.384H101.387V29.512H99.7545V30.568H101.387V34.68C101.387 36.232 101.674 37.192 103.451 37.192C103.915 37.192 104.475 37.112 104.907 36.92L104.859 35.784C104.523 35.96 104.123 36.04 103.755 36.04C102.651 36.04 102.635 35.272 102.635 34.312V30.568H104.843V29.512ZM106.484 37H107.732V29.512H106.484V37ZM106.196 26.584C106.196 27.112 106.58 27.496 107.108 27.496C107.636 27.496 108.02 27.112 108.02 26.584C108.02 26.088 107.62 25.672 107.108 25.672C106.596 25.672 106.196 26.088 106.196 26.584ZM109.783 33.256C109.783 35.592 111.479 37.192 113.783 37.192C116.087 37.192 117.783 35.592 117.783 33.256C117.783 30.92 116.087 29.32 113.783 29.32C111.479 29.32 109.783 30.92 109.783 33.256ZM111.127 33.256C111.127 31.688 112.167 30.472 113.783 30.472C115.399 30.472 116.439 31.688 116.439 33.256C116.439 34.824 115.399 36.04 113.783 36.04C112.167 36.04 111.127 34.824 111.127 33.256ZM119.715 37H120.963V33.352C120.963 31.64 121.667 30.472 123.283 30.472C124.451 30.472 124.995 31.256 124.995 32.504V37H126.243V32.376C126.243 30.568 125.363 29.32 123.395 29.32C122.163 29.32 121.235 30.008 120.899 30.744H120.867C120.867 30.328 120.835 29.912 120.835 29.512H119.651C119.651 30.008 119.715 30.6 119.715 31.288V37ZM127.774 35.8C128.51 36.856 129.422 37.192 130.686 37.192C132.174 37.192 133.678 36.536 133.678 34.84C133.678 33.336 132.558 32.856 131.23 32.6C130.238 32.408 129.342 32.136 129.342 31.512C129.342 30.808 130.126 30.472 130.814 30.472C131.55 30.472 132.078 30.84 132.398 31.368L133.438 30.68C132.926 29.72 131.95 29.32 130.894 29.32C129.502 29.32 128.094 30.072 128.094 31.528C128.094 33.08 129.31 33.384 130.734 33.704C131.534 33.88 132.334 34.088 132.334 34.888C132.334 35.704 131.47 36.04 130.686 36.04C129.806 36.04 129.262 35.64 128.766 35.032L127.774 35.8Z" fill="#333333"/>
<path d="M321.106 12H322.87V7.898H324.13C326.23 7.898 328.092 7.45 328.092 4.958C328.092 2.76 326.356 2.088 324.438 2.088H321.106V12ZM322.87 6.386V3.6H324.13C325.082 3.6 326.244 3.768 326.244 4.986C326.244 6.33 324.942 6.386 323.934 6.386H322.87ZM331.191 1.416H329.511V12H331.191V8.332C331.191 7.436 331.625 6.624 332.731 6.624C333.907 6.624 333.963 7.856 333.963 8.598V12H335.643V7.758C335.643 6.386 334.999 5.112 333.193 5.112C332.157 5.112 331.485 5.658 331.219 6.218H331.191V1.416ZM337.214 8.64C337.214 10.754 338.838 12.168 340.868 12.168C342.898 12.168 344.522 10.754 344.522 8.64C344.522 6.526 342.898 5.112 340.868 5.112C338.838 5.112 337.214 6.526 337.214 8.64ZM338.894 8.64C338.894 7.59 339.636 6.624 340.868 6.624C342.1 6.624 342.842 7.59 342.842 8.64C342.842 9.69 342.1 10.656 340.868 10.656C339.636 10.656 338.894 9.69 338.894 8.64ZM346.095 12H347.775V8.332C347.775 7.436 348.209 6.624 349.315 6.624C350.491 6.624 350.547 7.856 350.547 8.598V12H352.227V7.758C352.227 6.386 351.583 5.112 349.777 5.112C348.657 5.112 348.027 5.686 347.719 6.358H347.691V5.28H346.095V12ZM360.602 9.228V8.766C360.602 6.428 359.328 5.112 357.452 5.112C355.422 5.112 353.798 6.526 353.798 8.64C353.798 10.754 355.422 12.168 357.452 12.168C358.516 12.168 359.51 11.79 360.294 10.824L359.09 9.914C358.67 10.432 358.124 10.824 357.284 10.824C356.346 10.824 355.59 10.222 355.478 9.228H360.602ZM355.478 7.968C355.604 7.002 356.22 6.372 357.214 6.372C358.264 6.372 358.908 6.988 358.922 7.968H355.478Z" fill="#9EA6B5"/>
<path d="M320.608 31.336C320.608 33.912 321.328 37.192 324.448 37.192C327.568 37.192 328.288 33.912 328.288 31.336C328.288 28.76 327.568 25.48 324.448 25.48C321.328 25.48 320.608 28.76 320.608 31.336ZM321.952 31.336C321.952 29.672 322.208 26.632 324.448 26.632C326.688 26.632 326.944 29.672 326.944 31.336C326.944 33 326.688 36.04 324.448 36.04C322.208 36.04 321.952 33 321.952 31.336ZM335.595 25.672H333.947L329.451 32.92V34.408H334.251V37H335.595V34.408H337.227V33.16H335.595V25.672ZM334.251 33.16H330.603L334.219 27.24H334.251V33.16ZM338.581 37H345.877V35.752H340.101V35.72L343.589 32.44C344.725 31.368 345.797 30.36 345.797 28.552C345.797 26.536 344.213 25.48 342.341 25.48C340.517 25.48 339.093 26.456 338.789 28.312L340.245 28.44C340.453 27.352 341.253 26.632 342.389 26.632C343.525 26.632 344.453 27.368 344.453 28.552C344.453 29.656 343.925 30.264 342.853 31.304L338.581 35.464V37ZM347.28 31.336C347.28 33.912 348 37.192 351.12 37.192C354.24 37.192 354.96 33.912 354.96 31.336C354.96 28.76 354.24 25.48 351.12 25.48C348 25.48 347.28 28.76 347.28 31.336ZM348.624 31.336C348.624 29.672 348.88 26.632 351.12 26.632C353.36 26.632 353.616 29.672 353.616 31.336C353.616 33 353.36 36.04 351.12 36.04C348.88 36.04 348.624 33 348.624 31.336ZM362.608 37H364.176L367.184 32.216C367.792 31.24 368.256 30.344 368.256 29.032C368.256 26.824 366.608 25.48 364.464 25.48C362.32 25.48 360.672 26.824 360.672 29.032C360.672 31.144 362.128 32.584 364.096 32.584C364.56 32.584 365.2 32.488 365.616 32.248L365.648 32.28L362.608 37ZM364.464 31.432C363.104 31.432 362.016 30.504 362.016 29.032C362.016 27.56 363.104 26.632 364.464 26.632C365.824 26.632 366.912 27.56 366.912 29.032C366.912 30.504 365.824 31.432 364.464 31.432ZM370.122 28.44C370.122 29.512 370.826 30.632 371.978 30.936V30.968C370.618 31.256 369.738 32.456 369.738 33.88C369.738 35.944 371.338 37.192 373.354 37.192C375.37 37.192 376.97 35.944 376.97 33.88C376.97 32.456 376.09 31.256 374.73 30.968V30.936C375.882 30.632 376.586 29.512 376.586 28.44C376.586 26.664 375.178 25.48 373.354 25.48C371.53 25.48 370.122 26.664 370.122 28.44ZM371.466 28.504C371.466 27.432 372.234 26.632 373.354 26.632C374.474 26.632 375.242 27.432 375.242 28.504C375.242 29.576 374.474 30.376 373.354 30.376C372.234 30.376 371.466 29.576 371.466 28.504ZM371.082 33.784C371.082 32.456 372.09 31.528 373.354 31.528C374.618 31.528 375.626 32.456 375.626 33.784C375.626 35.112 374.618 36.04 373.354 36.04C372.09 36.04 371.082 35.112 371.082 33.784ZM385.477 25.672H378.565V26.92H384.037L379.429 37H380.949L385.477 26.92V25.672ZM397.445 25.672H395.877L392.869 30.456C392.261 31.432 391.797 32.328 391.797 33.64C391.797 35.848 393.445 37.192 395.589 37.192C397.733 37.192 399.381 35.848 399.381 33.64C399.381 31.528 397.925 30.088 395.957 30.088C395.493 30.088 394.853 30.184 394.437 30.424L394.405 30.392L397.445 25.672ZM395.589 31.24C396.949 31.24 398.037 32.168 398.037 33.64C398.037 35.112 396.949 36.04 395.589 36.04C394.229 36.04 393.141 35.112 393.141 33.64C393.141 32.168 394.229 31.24 395.589 31.24ZM407.615 25.672H401.679L401.567 31.56C402.239 31.16 403.103 30.856 403.871 30.856C405.455 30.856 406.671 31.768 406.671 33.432C406.671 35 405.599 36.04 404.239 36.04C403.279 36.04 402.511 35.464 402.127 34.616L400.783 35.128C401.391 36.376 402.415 37.192 404.127 37.192C406.335 37.192 408.015 35.688 408.015 33.432C408.015 31.304 406.575 29.704 404.399 29.704C403.935 29.704 403.375 29.768 402.943 29.976L402.991 26.92H407.615V25.672ZM415.626 25.672H413.978L409.482 32.92V34.408H414.282V37H415.626V34.408H417.258V33.16H415.626V25.672ZM414.282 33.16H410.634L414.25 27.24H414.282V33.16Z" fill="#333333"/>
<path d="M6.902 106.998C6.174 106.144 5.236 105.836 4.13 105.836C2.394 105.836 0.756 106.788 0.756 108.692C0.756 110.344 1.82 110.96 3.22 111.422C4.984 112.01 5.81 112.22 5.81 113.438C5.81 114.572 4.662 115.16 3.654 115.16C2.8 115.16 1.96 114.782 1.54 114.054L0.532 114.88C1.204 115.874 2.436 116.252 3.584 116.252C5.376 116.252 7.07 115.328 7.07 113.354C7.07 111.408 5.642 110.904 4.102 110.414C2.52 109.91 2.016 109.504 2.016 108.594C2.016 107.418 3.094 106.928 4.13 106.928C4.844 106.928 5.544 107.208 5.936 107.838L6.902 106.998ZM8.4373 112.724C8.4373 114.768 9.9213 116.168 11.9373 116.168C13.9533 116.168 15.4373 114.768 15.4373 112.724C15.4373 110.68 13.9533 109.28 11.9373 109.28C9.9213 109.28 8.4373 110.68 8.4373 112.724ZM9.6133 112.724C9.6133 111.352 10.5233 110.288 11.9373 110.288C13.3513 110.288 14.2613 111.352 14.2613 112.724C14.2613 114.096 13.3513 115.16 11.9373 115.16C10.5233 115.16 9.6133 114.096 9.6133 112.724ZM17.1278 116H18.2198V112.808C18.2198 111.31 18.8358 110.288 20.2498 110.288C21.1458 110.288 21.5098 110.848 21.5098 112.29V116H22.6018V112.22C22.6018 111.044 23.3718 110.288 24.2958 110.288C25.5698 110.288 25.8918 111.17 25.8918 112.08V116H26.9838V112.024C26.9838 110.33 26.3678 109.28 24.4918 109.28C23.4978 109.28 22.8958 109.756 22.4198 110.526C22.2098 110.078 21.7618 109.28 20.3478 109.28C19.2698 109.28 18.4578 109.882 18.1638 110.526H18.1358C18.1358 110.162 18.1078 109.798 18.1078 109.448H17.0718C17.0718 109.882 17.1278 110.4 17.1278 111.002V116ZM34.0757 114.166C33.5577 114.824 32.9277 115.16 31.9897 115.16C30.7997 115.16 29.9317 114.194 29.8477 113.06H35.1397V112.71C35.1397 110.54 33.8797 109.28 32.0317 109.28C30.0997 109.28 28.6717 110.694 28.6717 112.724C28.6717 114.628 29.9317 116.168 31.9897 116.168C33.2077 116.168 34.1317 115.804 34.9017 114.81L34.0757 114.166ZM29.8477 112.136C29.9877 111.03 30.7857 110.288 31.9897 110.288C33.1937 110.288 33.9217 111.03 33.9637 112.136H29.8477ZM46.1715 116H47.2635V105.416H46.1715V110.4H46.1435C45.5415 109.7 44.7435 109.28 43.7915 109.28C41.7335 109.28 40.3475 110.736 40.3475 112.724C40.3475 114.684 41.7895 116.168 43.6235 116.168C44.7995 116.168 45.7375 115.58 46.1435 114.838H46.1715V116ZM46.1715 112.724C46.1715 114.096 45.2615 115.16 43.8475 115.16C42.4335 115.16 41.5235 114.096 41.5235 112.724C41.5235 111.352 42.4335 110.288 43.8475 110.288C45.2615 110.288 46.1715 111.352 46.1715 112.724ZM54.31 114.166C53.792 114.824 53.162 115.16 52.224 115.16C51.034 115.16 50.166 114.194 50.082 113.06H55.374V112.71C55.374 110.54 54.114 109.28 52.266 109.28C50.334 109.28 48.906 110.694 48.906 112.724C48.906 114.628 50.166 116.168 52.224 116.168C53.442 116.168 54.366 115.804 55.136 114.81L54.31 114.166ZM50.082 112.136C50.222 111.03 51.02 110.288 52.224 110.288C53.428 110.288 54.156 111.03 54.198 112.136H50.082ZM60.6473 109.448H58.7153V107.586H57.6233V109.448H56.1953V110.372H57.6233V113.97C57.6233 115.328 57.8753 116.168 59.4293 116.168C59.8353 116.168 60.3253 116.098 60.7033 115.93L60.6613 114.936C60.3673 115.09 60.0173 115.16 59.6953 115.16C58.7293 115.16 58.7153 114.488 58.7153 113.648V110.372H60.6473V109.448ZM62.5872 111.002C63.1052 110.526 63.8332 110.288 64.5332 110.288C65.5552 110.288 66.1572 110.778 66.1572 111.73V111.926H65.7372C64.1272 111.926 61.6072 112.052 61.6072 114.222C61.6072 115.496 62.7132 116.168 64.0432 116.168C65.0372 116.168 65.7652 115.692 66.1992 115.02H66.2272C66.2272 115.3 66.2272 115.706 66.2972 116H67.3472C67.2912 115.664 67.2492 115.244 67.2492 114.866V112.052C67.2492 110.204 66.4372 109.28 64.5052 109.28C63.5532 109.28 62.5732 109.602 61.9012 110.288L62.5872 111.002ZM66.1572 112.85V113.27C66.1292 114.334 65.4852 115.244 64.2252 115.244C63.3992 115.244 62.7832 114.936 62.7832 114.11C62.7832 113.228 63.6792 112.85 65.0652 112.85H66.1572ZM69.343 116H70.435V109.448H69.343V116ZM69.091 106.886C69.091 107.348 69.427 107.684 69.889 107.684C70.351 107.684 70.687 107.348 70.687 106.886C70.687 106.452 70.337 106.088 69.889 106.088C69.441 106.088 69.091 106.452 69.091 106.886ZM72.7063 116H73.7983V105.416H72.7063V116Z" fill="#616C7F"/>
<path d="M1.232 58.088H4.172C4.62933 58.088 5.06333 58.1347 5.474 58.228C5.894 58.312 6.26267 58.4613 6.58 58.676C6.90667 58.8813 7.16333 59.1613 7.35 59.516C7.546 59.8613 7.644 60.2907 7.644 60.804C7.644 61.3453 7.54133 61.7933 7.336 62.148C7.13067 62.5027 6.86467 62.7827 6.538 62.988C6.22067 63.1933 5.87067 63.338 5.488 63.422C5.10533 63.506 4.74133 63.548 4.396 63.548H2.408V68H1.232V58.088ZM2.408 62.456H4.396C4.984 62.456 5.46 62.3253 5.824 62.064C6.19733 61.7933 6.384 61.378 6.384 60.818C6.384 60.258 6.19733 59.8473 5.824 59.586C5.46 59.3153 4.984 59.18 4.396 59.18H2.408V62.456ZM11.7118 58.088H12.8178L17.0318 68H15.6598L14.6518 65.564H9.69577L8.67377 68H7.34377L11.7118 58.088ZM12.2438 59.6H12.2158L10.1578 64.472H14.2038L12.2438 59.6ZM18.3492 58.088H20.8832C21.3592 58.088 21.8305 58.116 22.2972 58.172C22.7732 58.228 23.1979 58.3493 23.5712 58.536C23.9445 58.7227 24.2479 58.998 24.4812 59.362C24.7145 59.7167 24.8312 60.202 24.8312 60.818C24.8312 61.546 24.6119 62.134 24.1732 62.582C23.7345 63.03 23.1279 63.3147 22.3532 63.436L25.1672 68H23.7252L21.0372 63.548H19.5252V68H18.3492V58.088ZM19.5252 62.456H20.5752C20.9019 62.456 21.2379 62.4467 21.5832 62.428C21.9379 62.4093 22.2599 62.3487 22.5492 62.246C22.8479 62.1433 23.0905 61.9847 23.2772 61.77C23.4732 61.546 23.5712 61.2287 23.5712 60.818C23.5712 60.4633 23.5012 60.1787 23.3612 59.964C23.2212 59.7493 23.0345 59.586 22.8012 59.474C22.5772 59.3527 22.3205 59.2733 22.0312 59.236C21.7512 59.1987 21.4665 59.18 21.1772 59.18H19.5252V62.456ZM33.3117 59.18H30.0357V68H28.8597V59.18H25.5837V58.088H33.3117V59.18ZM34.7008 58.088H35.8768V68H34.7008V58.088ZM45.2815 60.132C44.9828 59.7307 44.6141 59.432 44.1755 59.236C43.7368 59.0307 43.2795 58.928 42.8035 58.928C42.2528 58.928 41.7441 59.04 41.2775 59.264C40.8201 59.488 40.4235 59.7913 40.0875 60.174C39.7515 60.5473 39.4901 60.986 39.3035 61.49C39.1168 61.9847 39.0235 62.5027 39.0235 63.044C39.0235 63.6227 39.1168 64.164 39.3035 64.668C39.4901 65.1627 39.7468 65.5967 40.0735 65.97C40.4095 66.334 40.8061 66.6233 41.2635 66.838C41.7301 67.0527 42.2435 67.16 42.8035 67.16C43.4101 67.16 43.9515 67.0433 44.4275 66.81C44.9035 66.5673 45.3188 66.222 45.6735 65.774L46.5555 66.516C46.1075 67.1133 45.5661 67.552 44.9315 67.832C44.3061 68.112 43.5968 68.252 42.8035 68.252C42.0941 68.252 41.4315 68.1213 40.8155 67.86C40.1995 67.5987 39.6628 67.2393 39.2055 66.782C38.7575 66.3153 38.4028 65.7647 38.1415 65.13C37.8895 64.4953 37.7635 63.8 37.7635 63.044C37.7635 62.316 37.8848 61.6347 38.1275 61C38.3795 60.3653 38.7295 59.8147 39.1775 59.348C39.6255 58.8813 40.1575 58.5127 40.7735 58.242C41.3895 57.9713 42.0661 57.836 42.8035 57.836C43.4755 57.836 44.1195 57.9573 44.7355 58.2C45.3608 58.4427 45.8835 58.8393 46.3035 59.39L45.2815 60.132ZM48.1949 58.088H49.3709V68H48.1949V58.088ZM51.8316 58.088H54.7716C55.2289 58.088 55.6629 58.1347 56.0736 58.228C56.4936 58.312 56.8623 58.4613 57.1796 58.676C57.5063 58.8813 57.7629 59.1613 57.9496 59.516C58.1456 59.8613 58.2436 60.2907 58.2436 60.804C58.2436 61.3453 58.1409 61.7933 57.9356 62.148C57.7303 62.5027 57.4643 62.7827 57.1376 62.988C56.8203 63.1933 56.4703 63.338 56.0876 63.422C55.7049 63.506 55.3409 63.548 54.9956 63.548H53.0076V68H51.8316V58.088ZM53.0076 62.456H54.9956C55.5836 62.456 56.0596 62.3253 56.4236 62.064C56.7969 61.7933 56.9836 61.378 56.9836 60.818C56.9836 60.258 56.7969 59.8473 56.4236 59.586C56.0596 59.3153 55.5836 59.18 54.9956 59.18H53.0076V62.456ZM62.3114 58.088H63.4174L67.6314 68H66.2594L65.2514 65.564H60.2954L59.2734 68H57.9434L62.3114 58.088ZM62.8434 59.6H62.8154L60.7574 64.472H64.8034L62.8434 59.6ZM68.9488 58.088H70.4328L76.1728 66.32H76.2008V58.088H77.3768V68H75.8928L70.1528 59.768H70.1248V68H68.9488V58.088ZM86.4953 59.18H83.2193V68H82.0433V59.18H78.7673V58.088H86.4953V59.18Z" fill="#616C7F"/>
<path d="M3.20502 78.0616L3.20494 99.5122" stroke="#B056BC" stroke-width="5.88726" stroke-linecap="round" stroke-linejoin="round"/>
<path d="M14.3551 89.0411C14.3551 87.6811 14.5791 86.4491 15.0271 85.3451C15.4911 84.2411 16.1311 83.3051 16.9471 82.5371C17.7631 81.7531 18.7311 81.1531 19.8511 80.7371C20.9711 80.3211 22.1951 80.1131 23.5231 80.1131C24.8511 80.1131 26.0751 80.3211 27.1951 80.7371C28.3151 81.1531 29.2831 81.7531 30.0991 82.5371C30.9151 83.3051 31.5471 84.2411 31.9951 85.3451C32.4591 86.4491 32.6911 87.6811 32.6911 89.0411C32.6911 90.4011 32.4591 91.6331 31.9951 92.7371C31.5471 93.8411 30.9151 94.7851 30.0991 95.5691C29.2831 96.3371 28.3151 96.9291 27.1951 97.3451C26.0751 97.7611 24.8511 97.9691 23.5231 97.9691C22.1951 97.9691 20.9711 97.7611 19.8511 97.3451C18.7311 96.9291 17.7631 96.3371 16.9471 95.5691C16.1311 94.7851 15.4911 93.8411 15.0271 92.7371C14.5791 91.6331 14.3551 90.4011 14.3551 89.0411ZM18.2431 89.0411C18.2431 89.8411 18.3631 90.5771 18.6031 91.2491C18.8591 91.9051 19.2191 92.4811 19.6831 92.9771C20.1471 93.4571 20.6991 93.8331 21.3391 94.1051C21.9951 94.3771 22.7231 94.5131 23.5231 94.5131C24.3231 94.5131 25.0431 94.3771 25.6831 94.1051C26.3391 93.8331 26.8991 93.4571 27.3631 92.9771C27.8271 92.4811 28.1791 91.9051 28.4191 91.2491C28.6751 90.5771 28.8031 89.8411 28.8031 89.0411C28.8031 88.2571 28.6751 87.5291 28.4191 86.8571C28.1791 86.1851 27.8271 85.6091 27.3631 85.1291C26.8991 84.6331 26.3391 84.2491 25.6831 83.9771C25.0431 83.7051 24.3231 83.5691 23.5231 83.5691C22.7231 83.5691 21.9951 83.7051 21.3391 83.9771C20.6991 84.2491 20.1471 84.6331 19.6831 85.1291C19.2191 85.6091 18.8591 86.1851 18.6031 86.8571C18.3631 87.5291 18.2431 88.2571 18.2431 89.0411ZM34.7798 85.8731H38.3798V87.7451H38.4278C38.8118 87.0251 39.2678 86.4891 39.7958 86.1371C40.3238 85.7691 40.9878 85.5851 41.7878 85.5851C41.9958 85.5851 42.2038 85.5931 42.4118 85.6091C42.6198 85.6251 42.8118 85.6571 42.9878 85.7051V88.9931C42.7318 88.9131 42.4758 88.8571 42.2198 88.8251C41.9798 88.7771 41.7238 88.7531 41.4518 88.7531C40.7638 88.7531 40.2198 88.8491 39.8198 89.0411C39.4198 89.2331 39.1078 89.5051 38.8838 89.8571C38.6758 90.1931 38.5398 90.6011 38.4758 91.0811C38.4118 91.5611 38.3798 92.0891 38.3798 92.6651V97.5371H34.7798V85.8731ZM44.6013 85.8731H48.2013V97.5371H44.6013V85.8731ZM44.3133 82.2011C44.3133 81.6251 44.5133 81.1371 44.9133 80.7371C45.3293 80.3211 45.8253 80.1131 46.4013 80.1131C46.9773 80.1131 47.4653 80.3211 47.8653 80.7371C48.2813 81.1371 48.4893 81.6251 48.4893 82.2011C48.4893 82.7771 48.2813 83.2731 47.8653 83.6891C47.4653 84.0891 46.9773 84.2891 46.4013 84.2891C45.8253 84.2891 45.3293 84.0891 44.9133 83.6891C44.5133 83.2731 44.3133 82.7771 44.3133 82.2011ZM63.0276 96.5531C63.0276 98.7611 62.4676 100.433 61.3476 101.569C60.2436 102.721 58.5556 103.297 56.2836 103.297C55.2436 103.297 54.2196 103.177 53.2116 102.937C52.2036 102.713 51.2756 102.265 50.4276 101.593L52.4196 98.6171C52.9796 99.0811 53.5636 99.4491 54.1716 99.7211C54.7956 99.9931 55.4756 100.129 56.2116 100.129C57.3156 100.129 58.1236 99.8571 58.6356 99.3131C59.1636 98.7851 59.4276 98.1051 59.4276 97.2731V96.1451H59.3796C58.9636 96.7051 58.4436 97.1051 57.8196 97.3451C57.2116 97.5691 56.6356 97.6811 56.0916 97.6811C55.2276 97.6811 54.4436 97.5371 53.7396 97.2491C53.0356 96.9451 52.4276 96.5291 51.9156 96.0011C51.4196 95.4571 51.0356 94.8171 50.7636 94.0811C50.4916 93.3451 50.3556 92.5371 50.3556 91.6571C50.3556 90.8891 50.4756 90.1371 50.7156 89.4011C50.9716 88.6651 51.3236 88.0171 51.7716 87.4571C52.2356 86.8971 52.7956 86.4491 53.4516 86.1131C54.1076 85.7611 54.8516 85.5851 55.6836 85.5851C56.1956 85.5851 56.6596 85.6411 57.0756 85.7531C57.5076 85.8651 57.8916 86.0091 58.2276 86.1851C58.5636 86.3611 58.8516 86.5611 59.0916 86.7851C59.3316 86.9931 59.5236 87.2011 59.6676 87.4091H59.7156V85.8731H63.0276V96.5531ZM53.9556 91.6331C53.9556 92.0171 54.0276 92.3851 54.1716 92.7371C54.3156 93.0731 54.5156 93.3771 54.7716 93.6491C55.0436 93.9051 55.3476 94.1131 55.6836 94.2731C56.0356 94.4331 56.4196 94.5131 56.8356 94.5131C57.2356 94.5131 57.6116 94.4331 57.9636 94.2731C58.3156 94.1131 58.6196 93.9051 58.8756 93.6491C59.1476 93.3771 59.3556 93.0731 59.4996 92.7371C59.6436 92.3851 59.7156 92.0171 59.7156 91.6331C59.7156 91.2491 59.6436 90.8891 59.4996 90.5531C59.3556 90.2011 59.1476 89.8971 58.8756 89.6411C58.6196 89.3691 58.3156 89.1531 57.9636 88.9931C57.6116 88.8331 57.2356 88.7531 56.8356 88.7531C56.4196 88.7531 56.0356 88.8331 55.6836 88.9931C55.3476 89.1531 55.0436 89.3691 54.7716 89.6411C54.5156 89.8971 54.3156 90.2011 54.1716 90.5531C54.0276 90.8891 53.9556 91.2491 53.9556 91.6331ZM65.9528 85.8731H69.5528V97.5371H65.9528V85.8731ZM65.6648 82.2011C65.6648 81.6251 65.8648 81.1371 66.2648 80.7371C66.6808 80.3211 67.1768 80.1131 67.7528 80.1131C68.3288 80.1131 68.8168 80.3211 69.2168 80.7371C69.6328 81.1371 69.8408 81.6251 69.8408 82.2011C69.8408 82.7771 69.6328 83.2731 69.2168 83.6891C68.8168 84.0891 68.3288 84.2891 67.7528 84.2891C67.1768 84.2891 66.6808 84.0891 66.2648 83.6891C65.8648 83.2731 65.6648 82.7771 65.6648 82.2011ZM72.1392 85.8731H75.5952V87.4571H75.6432C75.7552 87.2331 75.9152 87.0091 76.1232 86.7851C76.3312 86.5611 76.5792 86.3611 76.8672 86.1851C77.1552 86.0091 77.4832 85.8651 77.8512 85.7531C78.2192 85.6411 78.6192 85.5851 79.0512 85.5851C79.9632 85.5851 80.6992 85.7291 81.2592 86.0171C81.8192 86.2891 82.2512 86.6731 82.5552 87.1691C82.8752 87.6651 83.0912 88.2491 83.2032 88.9211C83.3152 89.5931 83.3712 90.3211 83.3712 91.1051V97.5371H79.7712V91.8251C79.7712 91.4891 79.7552 91.1451 79.7232 90.7931C79.7072 90.4251 79.6352 90.0891 79.5072 89.7851C79.3952 89.4811 79.2112 89.2331 78.9552 89.0411C78.7152 88.8491 78.3632 88.7531 77.8992 88.7531C77.4352 88.7531 77.0592 88.8411 76.7712 89.0171C76.4832 89.1771 76.2592 89.4011 76.0992 89.6891C75.9552 89.9611 75.8592 90.2731 75.8112 90.6251C75.7632 90.9771 75.7392 91.3451 75.7392 91.7291V97.5371H72.1392V85.8731Z" fill="#2C0831"/>
<path d="M322.226 109.448H321.134V116.966C321.134 117.722 321.008 118.352 320.182 118.352C320 118.352 319.832 118.324 319.65 118.268L319.524 119.22C319.762 119.332 320.028 119.36 320.28 119.36C321.904 119.36 322.226 118.142 322.226 117.47V109.448ZM320.882 106.886C320.882 107.348 321.218 107.684 321.68 107.684C322.142 107.684 322.478 107.348 322.478 106.886C322.478 106.452 322.128 106.088 321.68 106.088C321.232 106.088 320.882 106.452 320.882 106.886ZM324.021 112.724C324.021 114.768 325.505 116.168 327.521 116.168C329.537 116.168 331.021 114.768 331.021 112.724C331.021 110.68 329.537 109.28 327.521 109.28C325.505 109.28 324.021 110.68 324.021 112.724ZM325.197 112.724C325.197 111.352 326.107 110.288 327.521 110.288C328.935 110.288 329.845 111.352 329.845 112.724C329.845 114.096 328.935 115.16 327.521 115.16C326.107 115.16 325.197 114.096 325.197 112.724ZM332.712 116H333.804V112.808C333.804 111.31 334.42 110.288 335.834 110.288C336.856 110.288 337.332 110.974 337.332 112.066V116H338.424V111.954C338.424 110.372 337.654 109.28 335.932 109.28C334.91 109.28 334.126 109.84 333.832 110.358H333.804V105.416H332.712V116ZM340.491 116H341.583V112.808C341.583 111.31 342.199 110.288 343.613 110.288C344.635 110.288 345.111 110.974 345.111 112.066V116H346.203V111.954C346.203 110.372 345.433 109.28 343.711 109.28C342.633 109.28 341.821 109.882 341.527 110.526H341.499C341.499 110.162 341.471 109.798 341.471 109.448H340.435C340.435 109.882 340.491 110.4 340.491 111.002V116ZM349.18 114.404C348.718 114.404 348.34 114.782 348.34 115.244C348.34 115.706 348.746 116.084 349.18 116.084C349.614 116.084 350.02 115.706 350.02 115.244C350.02 114.782 349.642 114.404 349.18 114.404ZM351.439 114.95C352.083 115.874 352.881 116.168 353.987 116.168C355.289 116.168 356.605 115.594 356.605 114.11C356.605 112.794 355.625 112.374 354.463 112.15C353.595 111.982 352.811 111.744 352.811 111.198C352.811 110.582 353.497 110.288 354.099 110.288C354.743 110.288 355.205 110.61 355.485 111.072L356.395 110.47C355.947 109.63 355.093 109.28 354.169 109.28C352.951 109.28 351.719 109.938 351.719 111.212C351.719 112.57 352.783 112.836 354.029 113.116C354.729 113.27 355.429 113.452 355.429 114.152C355.429 114.866 354.673 115.16 353.987 115.16C353.217 115.16 352.741 114.81 352.307 114.278L351.439 114.95ZM358.128 116H359.22V112.808C359.22 111.31 359.836 110.288 361.25 110.288C362.146 110.288 362.51 110.848 362.51 112.29V116H363.602V112.22C363.602 111.044 364.372 110.288 365.296 110.288C366.57 110.288 366.892 111.17 366.892 112.08V116H367.984V112.024C367.984 110.33 367.368 109.28 365.492 109.28C364.498 109.28 363.896 109.756 363.42 110.526C363.21 110.078 362.762 109.28 361.348 109.28C360.27 109.28 359.458 109.882 359.164 110.526H359.136C359.136 110.162 359.108 109.798 359.108 109.448H358.072C358.072 109.882 358.128 110.4 358.128 111.002V116ZM370.148 116H371.24V109.448H370.148V116ZM369.896 106.886C369.896 107.348 370.232 107.684 370.694 107.684C371.156 107.684 371.492 107.348 371.492 106.886C371.492 106.452 371.142 106.088 370.694 106.088C370.246 106.088 369.896 106.452 369.896 106.886ZM376.997 109.448H375.065V107.586H373.973V109.448H372.545V110.372H373.973V113.97C373.973 115.328 374.225 116.168 375.779 116.168C376.185 116.168 376.675 116.098 377.053 115.93L377.011 114.936C376.717 115.09 376.367 115.16 376.045 115.16C375.079 115.16 375.065 114.488 375.065 113.648V110.372H376.997V109.448ZM378.335 116H379.427V112.808C379.427 111.31 380.043 110.288 381.457 110.288C382.479 110.288 382.955 110.974 382.955 112.066V116H384.047V111.954C384.047 110.372 383.277 109.28 381.555 109.28C380.533 109.28 379.749 109.84 379.455 110.358H379.427V105.416H378.335V116ZM388.746 111.898C388.746 110.68 389.684 108.958 391 108.958C391.588 108.958 392.134 109.56 392.134 110.274C392.134 111.422 391.182 113.242 389.964 113.242C389.264 113.242 388.746 112.668 388.746 111.898ZM393.744 108.3H392.834L392.582 109.182H392.554C392.246 108.342 391.644 108.034 391 108.034C389.026 108.034 387.738 110.05 387.738 111.996C387.738 113.214 388.522 114.166 389.712 114.166C390.538 114.166 391.028 113.746 391.462 113.242H391.49C391.518 113.872 391.91 114.166 392.386 114.166C393.702 114.166 395.662 112.542 395.662 110.12C395.662 107.614 393.492 105.836 390.93 105.836C388.046 105.836 385.694 108.132 385.694 111.044C385.694 113.942 387.99 116.252 390.93 116.252C392.75 116.252 394.444 115.328 395.34 113.802H394.458C393.702 114.824 392.316 115.496 390.93 115.496C388.62 115.496 386.618 113.55 386.618 111.044C386.618 108.636 388.508 106.592 390.93 106.592C392.876 106.592 394.738 107.992 394.738 110.19C394.738 111.744 393.674 113.242 392.778 113.242C392.54 113.242 392.442 113.158 392.442 112.962C392.442 112.752 392.498 112.486 392.568 112.262L393.744 108.3ZM402.841 110.316C402.183 109.602 401.287 109.28 400.321 109.28C398.305 109.28 396.933 110.736 396.933 112.724C396.933 114.74 398.291 116.168 400.321 116.168C401.273 116.168 402.169 115.846 402.799 115.118L401.987 114.348C401.581 114.908 401.035 115.16 400.321 115.16C398.991 115.16 398.109 114.068 398.109 112.724C398.109 111.38 398.851 110.288 400.321 110.288C400.979 110.288 401.511 110.526 401.973 111.086L402.841 110.316ZM403.687 112.724C403.687 114.768 405.171 116.168 407.187 116.168C409.203 116.168 410.687 114.768 410.687 112.724C410.687 110.68 409.203 109.28 407.187 109.28C405.171 109.28 403.687 110.68 403.687 112.724ZM404.863 112.724C404.863 111.352 405.773 110.288 407.187 110.288C408.601 110.288 409.511 111.352 409.511 112.724C409.511 114.096 408.601 115.16 407.187 115.16C405.773 115.16 404.863 114.096 404.863 112.724ZM412.378 116H413.47V112.808C413.47 111.31 414.086 110.288 415.5 110.288C416.396 110.288 416.76 110.848 416.76 112.29V116H417.852V112.22C417.852 111.044 418.622 110.288 419.546 110.288C420.82 110.288 421.142 111.17 421.142 112.08V116H422.234V112.024C422.234 110.33 421.618 109.28 419.742 109.28C418.748 109.28 418.146 109.756 417.67 110.526C417.46 110.078 417.012 109.28 415.598 109.28C414.52 109.28 413.708 109.882 413.414 110.526H413.386C413.386 110.162 413.358 109.798 413.358 109.448H412.322C412.322 109.882 412.378 110.4 412.378 111.002V116ZM424.244 119.192H425.336V114.838H425.364C425.77 115.58 426.708 116.168 427.884 116.168C429.718 116.168 431.16 114.684 431.16 112.724C431.16 110.736 429.774 109.28 427.716 109.28C426.764 109.28 425.966 109.7 425.364 110.4H425.336V109.448H424.244V119.192ZM425.336 112.724C425.336 111.352 426.246 110.288 427.66 110.288C429.074 110.288 429.984 111.352 429.984 112.724C429.984 114.096 429.074 115.16 427.66 115.16C426.246 115.16 425.336 114.096 425.336 112.724ZM433.46 111.002C433.978 110.526 434.706 110.288 435.406 110.288C436.428 110.288 437.03 110.778 437.03 111.73V111.926H436.61C435 111.926 432.48 112.052 432.48 114.222C432.48 115.496 433.586 116.168 434.916 116.168C435.91 116.168 436.638 115.692 437.072 115.02H437.1C437.1 115.3 437.1 115.706 437.17 116H438.22C438.164 115.664 438.122 115.244 438.122 114.866V112.052C438.122 110.204 437.31 109.28 435.378 109.28C434.426 109.28 433.446 109.602 432.774 110.288L433.46 111.002ZM437.03 112.85V113.27C437.002 114.334 436.358 115.244 435.098 115.244C434.272 115.244 433.656 114.936 433.656 114.11C433.656 113.228 434.552 112.85 435.938 112.85H437.03ZM440.118 116H441.21V112.808C441.21 111.31 441.826 110.288 443.24 110.288C444.262 110.288 444.738 110.974 444.738 112.066V116H445.83V111.954C445.83 110.372 445.06 109.28 443.338 109.28C442.26 109.28 441.448 109.882 441.154 110.526H441.126C441.126 110.162 441.098 109.798 441.098 109.448H440.062C440.062 109.882 440.118 110.4 440.118 111.002V116ZM453.469 109.448H452.279L450.333 114.586H450.305L448.275 109.448H447.001L449.717 116.042L449.269 117.274C449.031 117.918 448.765 118.352 448.051 118.352C447.743 118.352 447.505 118.324 447.281 118.24L447.141 119.192C447.435 119.332 447.813 119.36 448.121 119.36C449.437 119.36 449.871 118.604 450.305 117.498L453.469 109.448ZM454.522 114.404C454.06 114.404 453.682 114.782 453.682 115.244C453.682 115.706 454.088 116.084 454.522 116.084C454.956 116.084 455.362 115.706 455.362 115.244C455.362 114.782 454.984 114.404 454.522 114.404ZM463.039 110.316C462.381 109.602 461.485 109.28 460.519 109.28C458.503 109.28 457.131 110.736 457.131 112.724C457.131 114.74 458.489 116.168 460.519 116.168C461.471 116.168 462.367 115.846 462.997 115.118L462.185 114.348C461.779 114.908 461.233 115.16 460.519 115.16C459.189 115.16 458.307 114.068 458.307 112.724C458.307 111.38 459.049 110.288 460.519 110.288C461.177 110.288 461.709 110.526 462.171 111.086L463.039 110.316ZM463.885 112.724C463.885 114.768 465.369 116.168 467.385 116.168C469.401 116.168 470.885 114.768 470.885 112.724C470.885 110.68 469.401 109.28 467.385 109.28C465.369 109.28 463.885 110.68 463.885 112.724ZM465.061 112.724C465.061 111.352 465.971 110.288 467.385 110.288C468.799 110.288 469.709 111.352 469.709 112.724C469.709 114.096 468.799 115.16 467.385 115.16C465.971 115.16 465.061 114.096 465.061 112.724ZM472.575 116H473.667V112.808C473.667 111.31 474.283 110.288 475.697 110.288C476.593 110.288 476.957 110.848 476.957 112.29V116H478.049V112.22C478.049 111.044 478.819 110.288 479.743 110.288C481.017 110.288 481.339 111.17 481.339 112.08V116H482.431V112.024C482.431 110.33 481.815 109.28 479.939 109.28C478.945 109.28 478.343 109.756 477.867 110.526C477.657 110.078 477.209 109.28 475.795 109.28C474.717 109.28 473.905 109.882 473.611 110.526H473.583C473.583 110.162 473.555 109.798 473.555 109.448H472.519C472.519 109.882 472.575 110.4 472.575 111.002V116Z" fill="#616C7F"/>
<path d="M328.666 64.22C328.666 64.7613 328.596 65.2747 328.456 65.76C328.325 66.2453 328.111 66.6747 327.812 67.048C327.523 67.412 327.14 67.706 326.664 67.93C326.188 68.1447 325.609 68.252 324.928 68.252C324.247 68.252 323.668 68.1447 323.192 67.93C322.716 67.706 322.329 67.412 322.03 67.048C321.741 66.6747 321.526 66.2453 321.386 65.76C321.255 65.2747 321.19 64.7613 321.19 64.22V58.088H322.366V64.052C322.366 64.4533 322.408 64.8407 322.492 65.214C322.576 65.5873 322.716 65.9187 322.912 66.208C323.108 66.4973 323.369 66.7307 323.696 66.908C324.023 67.076 324.433 67.16 324.928 67.16C325.423 67.16 325.833 67.076 326.16 66.908C326.487 66.7307 326.748 66.4973 326.944 66.208C327.14 65.9187 327.28 65.5873 327.364 65.214C327.448 64.8407 327.49 64.4533 327.49 64.052V58.088H328.666V64.22ZM335.793 59.838C335.597 59.5207 335.336 59.292 335.009 59.152C334.683 59.0027 334.342 58.928 333.987 58.928C333.726 58.928 333.469 58.9607 333.217 59.026C332.965 59.0913 332.737 59.1893 332.531 59.32C332.335 59.4507 332.177 59.6233 332.055 59.838C331.934 60.0527 331.873 60.3047 331.873 60.594C331.873 60.818 331.906 61.0187 331.971 61.196C332.046 61.364 332.163 61.518 332.321 61.658C332.48 61.798 332.695 61.9287 332.965 62.05C333.236 62.1713 333.567 62.2927 333.959 62.414C334.342 62.5353 334.711 62.666 335.065 62.806C335.429 62.946 335.747 63.1233 336.017 63.338C336.297 63.5527 336.517 63.8233 336.675 64.15C336.843 64.4673 336.927 64.8687 336.927 65.354C336.927 65.8487 336.829 66.278 336.633 66.642C336.437 67.006 336.176 67.3093 335.849 67.552C335.532 67.7853 335.163 67.958 334.743 68.07C334.323 68.1913 333.889 68.252 333.441 68.252C333.152 68.252 332.863 68.224 332.573 68.168C332.284 68.1213 332.004 68.0467 331.733 67.944C331.472 67.832 331.225 67.692 330.991 67.524C330.758 67.3467 330.557 67.132 330.389 66.88L331.397 66.054C331.612 66.418 331.911 66.6933 332.293 66.88C332.676 67.0667 333.082 67.16 333.511 67.16C333.763 67.16 334.015 67.1227 334.267 67.048C334.529 66.9733 334.762 66.866 334.967 66.726C335.173 66.5767 335.341 66.3947 335.471 66.18C335.602 65.9653 335.667 65.718 335.667 65.438C335.667 65.13 335.616 64.8827 335.513 64.696C335.411 64.5 335.252 64.332 335.037 64.192C334.823 64.052 334.552 63.926 334.225 63.814C333.899 63.702 333.516 63.5713 333.077 63.422C332.723 63.31 332.396 63.184 332.097 63.044C331.799 62.8947 331.537 62.7173 331.313 62.512C331.099 62.2973 330.926 62.0453 330.795 61.756C330.674 61.4573 330.613 61.1027 330.613 60.692C330.613 60.216 330.707 59.8007 330.893 59.446C331.08 59.0913 331.332 58.7973 331.649 58.564C331.967 58.3213 332.326 58.1393 332.727 58.018C333.129 57.8967 333.549 57.836 333.987 57.836C334.547 57.836 335.056 57.9247 335.513 58.102C335.98 58.27 336.395 58.5687 336.759 58.998L335.793 59.838ZM338.869 58.088H345.099V59.18H340.045V62.288H344.763V63.38H340.045V66.908H345.351V68H338.869V58.088ZM347.168 58.088H349.702C350.178 58.088 350.649 58.116 351.116 58.172C351.592 58.228 352.016 58.3493 352.39 58.536C352.763 58.7227 353.066 58.998 353.3 59.362C353.533 59.7167 353.65 60.202 353.65 60.818C353.65 61.546 353.43 62.134 352.992 62.582C352.553 63.03 351.946 63.3147 351.172 63.436L353.986 68H352.544L349.856 63.548H348.344V68H347.168V58.088ZM348.344 62.456H349.394C349.72 62.456 350.056 62.4467 350.402 62.428C350.756 62.4093 351.078 62.3487 351.368 62.246C351.666 62.1433 351.909 61.9847 352.096 61.77C352.292 61.546 352.39 61.2287 352.39 60.818C352.39 60.4633 352.32 60.1787 352.18 59.964C352.04 59.7493 351.853 59.586 351.62 59.474C351.396 59.3527 351.139 59.2733 350.85 59.236C350.57 59.1987 350.285 59.18 349.996 59.18H348.344V62.456Z" fill="#616C7F"/>
<path d="M323.205 78.0616L323.205 99.5122" stroke="#B056BC" stroke-width="5.88726" stroke-linecap="round" stroke-linejoin="round"/>
<path d="M338.459 98.4011C338.459 99.1531 338.387 99.8251 338.243 100.417C338.099 101.025 337.859 101.537 337.523 101.953C337.187 102.385 336.739 102.713 336.179 102.937C335.635 103.177 334.955 103.297 334.139 103.297C333.867 103.297 333.587 103.281 333.299 103.249C333.011 103.233 332.731 103.185 332.459 103.105L332.651 99.9131C332.939 100.057 333.251 100.129 333.587 100.129C333.891 100.129 334.131 100.049 334.307 99.8891C334.483 99.7291 334.611 99.5291 334.691 99.2891C334.771 99.0491 334.819 98.7931 334.835 98.5211C334.851 98.2491 334.859 98.0011 334.859 97.7771V85.8731H338.459V98.4011ZM334.571 82.2011C334.571 81.6251 334.771 81.1371 335.171 80.7371C335.587 80.3211 336.083 80.1131 336.659 80.1131C337.235 80.1131 337.723 80.3211 338.123 80.7371C338.539 81.1371 338.747 81.6251 338.747 82.2011C338.747 82.7771 338.539 83.2731 338.123 83.6891C337.723 84.0891 337.235 84.2891 336.659 84.2891C336.083 84.2891 335.587 84.0891 335.171 83.6891C334.771 83.2731 334.571 82.7771 334.571 82.2011ZM340.613 91.7051C340.613 90.7771 340.781 89.9371 341.117 89.1851C341.453 88.4331 341.909 87.7931 342.485 87.2651C343.077 86.7211 343.765 86.3051 344.549 86.0171C345.349 85.7291 346.197 85.5851 347.093 85.5851C347.989 85.5851 348.829 85.7291 349.613 86.0171C350.413 86.3051 351.101 86.7211 351.677 87.2651C352.269 87.7931 352.733 88.4331 353.069 89.1851C353.405 89.9371 353.573 90.7771 353.573 91.7051C353.573 92.6331 353.405 93.4731 353.069 94.2251C352.733 94.9771 352.269 95.6251 351.677 96.1691C351.101 96.6971 350.413 97.1051 349.613 97.3931C348.829 97.6811 347.989 97.8251 347.093 97.8251C346.197 97.8251 345.349 97.6811 344.549 97.3931C343.765 97.1051 343.077 96.6971 342.485 96.1691C341.909 95.6251 341.453 94.9771 341.117 94.2251C340.781 93.4731 340.613 92.6331 340.613 91.7051ZM344.213 91.7051C344.213 92.5851 344.461 93.2971 344.957 93.8411C345.469 94.3851 346.181 94.6571 347.093 94.6571C348.005 94.6571 348.709 94.3851 349.205 93.8411C349.717 93.2971 349.973 92.5851 349.973 91.7051C349.973 90.8251 349.717 90.1131 349.205 89.5691C348.709 89.0251 348.005 88.7531 347.093 88.7531C346.181 88.7531 345.469 89.0251 344.957 89.5691C344.461 90.1131 344.213 90.8251 344.213 91.7051ZM359.294 79.3931V87.4571H359.342C359.422 87.2331 359.558 87.0091 359.75 86.7851C359.942 86.5611 360.174 86.3611 360.446 86.1851C360.718 86.0091 361.038 85.8651 361.406 85.7531C361.774 85.6411 362.174 85.5851 362.606 85.5851C363.518 85.5851 364.254 85.7291 364.814 86.0171C365.374 86.2891 365.806 86.6731 366.11 87.1691C366.43 87.6651 366.646 88.2491 366.758 88.9211C366.87 89.5931 366.926 90.3211 366.926 91.1051V97.5371H363.326V91.8251C363.326 91.4891 363.31 91.1451 363.278 90.7931C363.262 90.4251 363.19 90.0891 363.062 89.7851C362.95 89.4811 362.766 89.2331 362.51 89.0411C362.27 88.8491 361.918 88.7531 361.454 88.7531C360.99 88.7531 360.614 88.8411 360.326 89.0171C360.038 89.1771 359.814 89.4011 359.654 89.6891C359.51 89.9611 359.414 90.2731 359.366 90.6251C359.318 90.9771 359.294 91.3451 359.294 91.7291V97.5371H355.694V79.3931H359.294ZM369.475 85.8731H372.931V87.4571H372.979C373.091 87.2331 373.251 87.0091 373.459 86.7851C373.667 86.5611 373.915 86.3611 374.203 86.1851C374.491 86.0091 374.819 85.8651 375.187 85.7531C375.555 85.6411 375.955 85.5851 376.387 85.5851C377.299 85.5851 378.035 85.7291 378.595 86.0171C379.155 86.2891 379.587 86.6731 379.891 87.1691C380.211 87.6651 380.427 88.2491 380.539 88.9211C380.651 89.5931 380.707 90.3211 380.707 91.1051V97.5371H377.107V91.8251C377.107 91.4891 377.091 91.1451 377.059 90.7931C377.043 90.4251 376.971 90.0891 376.843 89.7851C376.731 89.4811 376.547 89.2331 376.291 89.0411C376.051 88.8491 375.699 88.7531 375.235 88.7531C374.771 88.7531 374.395 88.8411 374.107 89.0171C373.819 89.1771 373.595 89.4011 373.435 89.6891C373.291 89.9611 373.195 90.2731 373.147 90.6251C373.099 90.9771 373.075 91.3451 373.075 91.7291V97.5371H369.475V85.8731ZM383.328 95.4731C383.328 95.1691 383.384 94.8811 383.496 94.6091C383.608 94.3371 383.76 94.1051 383.952 93.9131C384.16 93.7051 384.4 93.5451 384.672 93.4331C384.944 93.3211 385.232 93.2651 385.536 93.2651C385.84 93.2651 386.128 93.3211 386.4 93.4331C386.672 93.5451 386.904 93.7051 387.096 93.9131C387.304 94.1051 387.464 94.3371 387.576 94.6091C387.688 94.8811 387.744 95.1691 387.744 95.4731C387.744 95.7771 387.688 96.0651 387.576 96.3371C387.464 96.6091 387.304 96.8491 387.096 97.0571C386.904 97.2491 386.672 97.4011 386.4 97.5131C386.128 97.6251 385.84 97.6811 385.536 97.6811C385.232 97.6811 384.944 97.6251 384.672 97.5131C384.4 97.4011 384.16 97.2491 383.952 97.0571C383.76 96.8491 383.608 96.6091 383.496 96.3371C383.384 96.0651 383.328 95.7771 383.328 95.4731ZM396.958 89.3051C396.43 88.6491 395.734 88.3211 394.87 88.3211C394.566 88.3211 394.27 88.3931 393.982 88.5371C393.694 88.6811 393.55 88.9291 393.55 89.2811C393.55 89.5691 393.694 89.7851 393.982 89.9291C394.286 90.0571 394.662 90.1771 395.11 90.2891C395.574 90.3851 396.062 90.4971 396.574 90.6251C397.102 90.7371 397.59 90.9211 398.038 91.1771C398.502 91.4331 398.878 91.7851 399.166 92.2331C399.47 92.6651 399.622 93.2491 399.622 93.9851C399.622 94.7371 399.454 95.3611 399.118 95.8571C398.798 96.3371 398.382 96.7291 397.87 97.0331C397.358 97.3211 396.782 97.5211 396.142 97.6331C395.502 97.7611 394.87 97.8251 394.246 97.8251C393.43 97.8251 392.606 97.7131 391.774 97.4891C390.942 97.2491 390.238 96.8331 389.662 96.2411L391.846 93.8171C392.182 94.2331 392.55 94.5531 392.95 94.7771C393.366 94.9851 393.846 95.0891 394.39 95.0891C394.806 95.0891 395.182 95.0331 395.518 94.9211C395.854 94.7931 396.022 94.5691 396.022 94.2491C396.022 93.9451 395.87 93.7211 395.566 93.5771C395.278 93.4171 394.902 93.2891 394.438 93.1931C393.99 93.0811 393.502 92.9691 392.974 92.8571C392.462 92.7291 391.974 92.5451 391.51 92.3051C391.062 92.0651 390.686 91.7291 390.382 91.2971C390.094 90.8491 389.95 90.2571 389.95 89.5211C389.95 88.8331 390.086 88.2411 390.358 87.7451C390.646 87.2491 391.014 86.8411 391.462 86.5211C391.926 86.2011 392.454 85.9691 393.046 85.8251C393.638 85.6651 394.238 85.5851 394.846 85.5851C395.614 85.5851 396.39 85.6971 397.174 85.9211C397.958 86.1451 398.622 86.5451 399.166 87.1211L396.958 89.3051ZM401.467 85.8731H404.923V87.4571H404.971C405.083 87.2331 405.243 87.0091 405.451 86.7851C405.659 86.5611 405.907 86.3611 406.195 86.1851C406.483 86.0091 406.811 85.8651 407.179 85.7531C407.547 85.6411 407.947 85.5851 408.379 85.5851C409.195 85.5851 409.915 85.7531 410.539 86.0891C411.179 86.4251 411.659 86.9531 411.979 87.6731C412.395 86.9211 412.899 86.3851 413.491 86.0651C414.083 85.7451 414.811 85.5851 415.675 85.5851C416.459 85.5851 417.115 85.7211 417.643 85.9931C418.187 86.2491 418.611 86.6091 418.915 87.0731C419.235 87.5211 419.459 88.0571 419.587 88.6811C419.731 89.2891 419.803 89.9451 419.803 90.6491V97.5371H416.203V90.7451C416.203 90.2011 416.083 89.7371 415.843 89.3531C415.619 88.9531 415.211 88.7531 414.619 88.7531C414.203 88.7531 413.851 88.8251 413.563 88.9691C413.291 89.0971 413.067 89.2811 412.891 89.5211C412.731 89.7611 412.611 90.0411 412.531 90.3611C412.467 90.6811 412.435 91.0171 412.435 91.3691V97.5371H408.835V91.3691C408.835 91.1611 408.827 90.9051 408.811 90.6011C408.795 90.2971 408.739 90.0091 408.643 89.7371C408.547 89.4651 408.387 89.2331 408.163 89.0411C407.955 88.8491 407.643 88.7531 407.227 88.7531C406.763 88.7531 406.387 88.8411 406.099 89.0171C405.811 89.1771 405.587 89.4011 405.427 89.6891C405.283 89.9611 405.187 90.2731 405.139 90.6251C405.091 90.9771 405.067 91.3451 405.067 91.7291V97.5371H401.467V85.8731ZM422.398 85.8731H425.998V97.5371H422.398V85.8731ZM422.11 82.2011C422.11 81.6251 422.31 81.1371 422.71 80.7371C423.126 80.3211 423.622 80.1131 424.198 80.1131C424.774 80.1131 425.262 80.3211 425.662 80.7371C426.078 81.1371 426.286 81.6251 426.286 82.2011C426.286 82.7771 426.078 83.2731 425.662 83.6891C425.262 84.0891 424.774 84.2891 424.198 84.2891C423.622 84.2891 423.126 84.0891 422.71 83.6891C422.31 83.2731 422.11 82.7771 422.11 82.2011Z" fill="#2C0831"/>
</svg>
