<svg width="601" height="131" viewBox="0 0 601 131" fill="none" xmlns="http://www.w3.org/2000/svg">
<path d="M0.574 7.086C0.574 10.18 2.758 12.252 5.81 12.252C8.904 12.196 11.088 10.124 11.088 7.03C11.088 3.852 8.904 1.78 5.81 1.836C2.758 1.836 0.574 3.908 0.574 7.086ZM2.422 6.974C2.422 5 3.78 3.432 5.824 3.432C7.882 3.432 9.24 5 9.24 6.974C9.24 9.088 7.882 10.656 5.824 10.656C3.78 10.656 2.422 9.088 2.422 6.974ZM12.6141 12H14.2941V8.402C14.2941 8.038 14.5181 6.708 16.1001 6.708C16.3661 6.708 16.6321 6.764 16.9121 6.834V5.21C16.7161 5.154 16.5201 5.112 16.3101 5.112C15.4281 5.112 14.6861 5.574 14.3221 6.344H14.2941V5.28H12.6141V12ZM18.0835 12H19.7635V5.28H18.0835V12ZM17.8455 2.998C17.8455 3.53 18.2935 4.006 18.9095 4.006C19.5255 4.006 20.0015 3.572 20.0015 2.998C20.0015 2.424 19.5255 1.99 18.9095 1.99C18.2935 1.99 17.8455 2.466 17.8455 2.998ZM28.1602 9.228V8.766C28.1602 6.428 26.8862 5.112 25.0102 5.112C22.9802 5.112 21.3562 6.526 21.3562 8.64C21.3562 10.754 22.9802 12.168 25.0102 12.168C26.0742 12.168 27.0682 11.79 27.8522 10.824L26.6482 9.914C26.2282 10.432 25.6822 10.824 24.8422 10.824C23.9042 10.824 23.1482 10.222 23.0362 9.228H28.1602ZM23.0362 7.968C23.1622 7.002 23.7782 6.372 24.7722 6.372C25.8222 6.372 26.4662 6.988 26.4802 7.968H23.0362ZM29.7313 12H31.4113V8.332C31.4113 7.436 31.8453 6.624 32.9513 6.624C34.1273 6.624 34.1833 7.856 34.1833 8.598V12H35.8633V7.758C35.8633 6.386 35.2193 5.112 33.4133 5.112C32.2933 5.112 31.6633 5.686 31.3553 6.358H31.3273V5.28H29.7313V12ZM38.3724 6.708V9.788C38.3724 11.37 38.7924 12.168 40.5704 12.168C40.9624 12.168 41.5504 12.112 41.9004 11.944V10.53C41.6904 10.684 41.2844 10.74 40.9904 10.74C40.2484 10.74 40.0524 10.32 40.0524 9.648V6.708H41.9004V5.28H40.0524V3.334H38.3724V5.28H36.9864V6.708H38.3724ZM47.4118 12H48.9238V8.136C48.9238 7.184 48.9238 5.112 46.0538 5.112C44.9898 5.112 43.9398 5.434 43.1978 6.19L44.0798 7.072C44.5278 6.652 45.1718 6.372 45.8718 6.372C46.7678 6.372 47.4118 6.806 47.4118 7.632V7.814H46.9918C45.3118 7.814 42.7638 7.968 42.7638 10.152C42.7638 11.482 43.9678 12.168 45.2138 12.168C46.1098 12.168 46.8938 11.832 47.3698 11.076H47.4118V12ZM47.3138 9.368C47.3138 10.306 46.7678 10.908 45.6198 10.908C45.0738 10.908 44.4438 10.642 44.4438 10.026C44.4438 9.06 46.0398 8.99 46.9638 8.99H47.3138V9.368ZM51.3333 6.708V9.788C51.3333 11.37 51.7533 12.168 53.5313 12.168C53.9233 12.168 54.5113 12.112 54.8613 11.944V10.53C54.6513 10.684 54.2453 10.74 53.9513 10.74C53.2093 10.74 53.0133 10.32 53.0133 9.648V6.708H54.8613V5.28H53.0133V3.334H51.3333V5.28H49.9473V6.708H51.3333ZM56.2007 12H57.8807V5.28H56.2007V12ZM55.9627 2.998C55.9627 3.53 56.4107 4.006 57.0267 4.006C57.6427 4.006 58.1187 3.572 58.1187 2.998C58.1187 2.424 57.6427 1.99 57.0267 1.99C56.4107 1.99 55.9627 2.466 55.9627 2.998ZM59.4734 8.64C59.4734 10.754 61.0974 12.168 63.1274 12.168C65.1574 12.168 66.7814 10.754 66.7814 8.64C66.7814 6.526 65.1574 5.112 63.1274 5.112C61.0974 5.112 59.4734 6.526 59.4734 8.64ZM61.1534 8.64C61.1534 7.59 61.8954 6.624 63.1274 6.624C64.3594 6.624 65.1014 7.59 65.1014 8.64C65.1014 9.69 64.3594 10.656 63.1274 10.656C61.8954 10.656 61.1534 9.69 61.1534 8.64ZM68.3543 12H70.0343V8.332C70.0343 7.436 70.4683 6.624 71.5743 6.624C72.7503 6.624 72.8063 7.856 72.8063 8.598V12H74.4863V7.758C74.4863 6.386 73.8423 5.112 72.0363 5.112C70.9163 5.112 70.2863 5.686 69.9783 6.358H69.9503V5.28H68.3543V12ZM76.3934 11.02C76.3934 11.622 76.9254 12.084 77.5134 12.084C78.1294 12.084 78.6334 11.594 78.6334 10.992C78.6334 10.39 78.1154 9.928 77.5134 9.928C76.8974 9.928 76.3934 10.418 76.3934 11.02ZM76.3934 6.274C76.3934 6.876 76.9254 7.338 77.5134 7.338C78.1294 7.338 78.6334 6.848 78.6334 6.246C78.6334 5.644 78.1154 5.182 77.5134 5.182C76.8974 5.182 76.3934 5.672 76.3934 6.274ZM84.8326 12H86.5966V7.632H91.2306V12H92.9946V2.088H91.2306V6.036H86.5966V2.088H84.8326V12ZM94.7195 8.64C94.7195 10.754 96.3435 12.168 98.3735 12.168C100.404 12.168 102.028 10.754 102.028 8.64C102.028 6.526 100.404 5.112 98.3735 5.112C96.3435 5.112 94.7195 6.526 94.7195 8.64ZM96.3995 8.64C96.3995 7.59 97.1415 6.624 98.3735 6.624C99.6055 6.624 100.348 7.59 100.348 8.64C100.348 9.69 99.6055 10.656 98.3735 10.656C97.1415 10.656 96.3995 9.69 96.3995 8.64ZM103.6 12H105.28V8.402C105.28 8.038 105.504 6.708 107.086 6.708C107.352 6.708 107.618 6.764 107.898 6.834V5.21C107.702 5.154 107.506 5.112 107.296 5.112C106.414 5.112 105.672 5.574 105.308 6.344H105.28V5.28H103.6V12ZM109.07 12H110.75V5.28H109.07V12ZM108.832 2.998C108.832 3.53 109.28 4.006 109.896 4.006C110.512 4.006 110.988 3.572 110.988 2.998C110.988 2.424 110.512 1.99 109.896 1.99C109.28 1.99 108.832 2.466 108.832 2.998ZM112.203 12H117.999V10.656H114.191L117.831 6.806V5.28H112.371V6.624H115.801V6.652L112.203 10.446V12ZM119.096 8.64C119.096 10.754 120.72 12.168 122.75 12.168C124.78 12.168 126.404 10.754 126.404 8.64C126.404 6.526 124.78 5.112 122.75 5.112C120.72 5.112 119.096 6.526 119.096 8.64ZM120.776 8.64C120.776 7.59 121.518 6.624 122.75 6.624C123.982 6.624 124.724 7.59 124.724 8.64C124.724 9.69 123.982 10.656 122.75 10.656C121.518 10.656 120.776 9.69 120.776 8.64ZM127.977 12H129.657V8.332C129.657 7.436 130.091 6.624 131.197 6.624C132.373 6.624 132.429 7.856 132.429 8.598V12H134.109V7.758C134.109 6.386 133.465 5.112 131.659 5.112C130.539 5.112 129.909 5.686 129.601 6.358H129.573V5.28H127.977V12ZM136.618 6.708V9.788C136.618 11.37 137.038 12.168 138.816 12.168C139.208 12.168 139.796 12.112 140.146 11.944V10.53C139.936 10.684 139.53 10.74 139.236 10.74C138.494 10.74 138.298 10.32 138.298 9.648V6.708H140.146V5.28H138.298V3.334H136.618V5.28H135.232V6.708H136.618ZM145.658 12H147.17V8.136C147.17 7.184 147.17 5.112 144.3 5.112C143.236 5.112 142.186 5.434 141.444 6.19L142.326 7.072C142.774 6.652 143.418 6.372 144.118 6.372C145.014 6.372 145.658 6.806 145.658 7.632V7.814H145.238C143.558 7.814 141.01 7.968 141.01 10.152C141.01 11.482 142.214 12.168 143.46 12.168C144.356 12.168 145.14 11.832 145.616 11.076H145.658V12ZM145.56 9.368C145.56 10.306 145.014 10.908 143.866 10.908C143.32 10.908 142.69 10.642 142.69 10.026C142.69 9.06 144.286 8.99 145.21 8.99H145.56V9.368ZM149.005 12H150.685V1.416H149.005V12Z" fill="#333333"/>
<line y1="32.5" x2="435.005" y2="32.5" stroke="#D2D6DD"/>
<path d="M467.579 7.086C467.579 10.18 469.763 12.252 472.815 12.252C475.909 12.196 478.093 10.124 478.093 7.03C478.093 3.852 475.909 1.78 472.815 1.836C469.763 1.836 467.579 3.908 467.579 7.086ZM469.427 6.974C469.427 5 470.785 3.432 472.829 3.432C474.887 3.432 476.245 5 476.245 6.974C476.245 9.088 474.887 10.656 472.829 10.656C470.785 10.656 469.427 9.088 469.427 6.974ZM479.619 12H481.299V8.402C481.299 8.038 481.523 6.708 483.105 6.708C483.371 6.708 483.637 6.764 483.917 6.834V5.21C483.721 5.154 483.525 5.112 483.315 5.112C482.433 5.112 481.691 5.574 481.327 6.344H481.299V5.28H479.619V12ZM485.088 12H486.768V5.28H485.088V12ZM484.85 2.998C484.85 3.53 485.298 4.006 485.914 4.006C486.53 4.006 487.006 3.572 487.006 2.998C487.006 2.424 486.53 1.99 485.914 1.99C485.298 1.99 484.85 2.466 484.85 2.998ZM495.165 9.228V8.766C495.165 6.428 493.891 5.112 492.015 5.112C489.985 5.112 488.361 6.526 488.361 8.64C488.361 10.754 489.985 12.168 492.015 12.168C493.079 12.168 494.073 11.79 494.857 10.824L493.653 9.914C493.233 10.432 492.687 10.824 491.847 10.824C490.909 10.824 490.153 10.222 490.041 9.228H495.165ZM490.041 7.968C490.167 7.002 490.783 6.372 491.777 6.372C492.827 6.372 493.471 6.988 493.485 7.968H490.041ZM496.736 12H498.416V8.332C498.416 7.436 498.85 6.624 499.956 6.624C501.132 6.624 501.188 7.856 501.188 8.598V12H502.868V7.758C502.868 6.386 502.224 5.112 500.418 5.112C499.298 5.112 498.668 5.686 498.36 6.358H498.332V5.28H496.736V12ZM505.377 6.708V9.788C505.377 11.37 505.797 12.168 507.575 12.168C507.967 12.168 508.555 12.112 508.905 11.944V10.53C508.695 10.684 508.289 10.74 507.995 10.74C507.253 10.74 507.057 10.32 507.057 9.648V6.708H508.905V5.28H507.057V3.334H505.377V5.28H503.991V6.708H505.377ZM514.417 12H515.929V8.136C515.929 7.184 515.929 5.112 513.059 5.112C511.995 5.112 510.945 5.434 510.203 6.19L511.085 7.072C511.533 6.652 512.177 6.372 512.877 6.372C513.773 6.372 514.417 6.806 514.417 7.632V7.814H513.997C512.317 7.814 509.769 7.968 509.769 10.152C509.769 11.482 510.973 12.168 512.219 12.168C513.115 12.168 513.899 11.832 514.375 11.076H514.417V12ZM514.319 9.368C514.319 10.306 513.773 10.908 512.625 10.908C512.079 10.908 511.449 10.642 511.449 10.026C511.449 9.06 513.045 8.99 513.969 8.99H514.319V9.368ZM518.338 6.708V9.788C518.338 11.37 518.758 12.168 520.536 12.168C520.928 12.168 521.516 12.112 521.866 11.944V10.53C521.656 10.684 521.25 10.74 520.956 10.74C520.214 10.74 520.018 10.32 520.018 9.648V6.708H521.866V5.28H520.018V3.334H518.338V5.28H516.952V6.708H518.338ZM523.206 12H524.886V5.28H523.206V12ZM522.968 2.998C522.968 3.53 523.416 4.006 524.032 4.006C524.648 4.006 525.124 3.572 525.124 2.998C525.124 2.424 524.648 1.99 524.032 1.99C523.416 1.99 522.968 2.466 522.968 2.998ZM526.478 8.64C526.478 10.754 528.102 12.168 530.132 12.168C532.162 12.168 533.786 10.754 533.786 8.64C533.786 6.526 532.162 5.112 530.132 5.112C528.102 5.112 526.478 6.526 526.478 8.64ZM528.158 8.64C528.158 7.59 528.9 6.624 530.132 6.624C531.364 6.624 532.106 7.59 532.106 8.64C532.106 9.69 531.364 10.656 530.132 10.656C528.9 10.656 528.158 9.69 528.158 8.64ZM535.359 12H537.039V8.332C537.039 7.436 537.473 6.624 538.579 6.624C539.755 6.624 539.811 7.856 539.811 8.598V12H541.491V7.758C541.491 6.386 540.847 5.112 539.041 5.112C537.921 5.112 537.291 5.686 536.983 6.358H536.955V5.28H535.359V12ZM543.398 11.02C543.398 11.622 543.93 12.084 544.518 12.084C545.134 12.084 545.638 11.594 545.638 10.992C545.638 10.39 545.12 9.928 544.518 9.928C543.902 9.928 543.398 10.418 543.398 11.02ZM543.398 6.274C543.398 6.876 543.93 7.338 544.518 7.338C545.134 7.338 545.638 6.848 545.638 6.246C545.638 5.644 545.12 5.182 544.518 5.182C543.902 5.182 543.398 5.672 543.398 6.274ZM554.581 12H556.107L560.111 2.088H558.207L555.421 9.578L552.719 2.088H550.689L554.581 12ZM566.724 9.228V8.766C566.724 6.428 565.45 5.112 563.574 5.112C561.544 5.112 559.92 6.526 559.92 8.64C559.92 10.754 561.544 12.168 563.574 12.168C564.638 12.168 565.632 11.79 566.416 10.824L565.212 9.914C564.792 10.432 564.246 10.824 563.406 10.824C562.468 10.824 561.712 10.222 561.6 9.228H566.724ZM561.6 7.968C561.726 7.002 562.342 6.372 563.336 6.372C564.386 6.372 565.03 6.988 565.044 7.968H561.6ZM568.295 12H569.975V8.402C569.975 8.038 570.199 6.708 571.781 6.708C572.047 6.708 572.313 6.764 572.593 6.834V5.21C572.397 5.154 572.201 5.112 571.991 5.112C571.109 5.112 570.367 5.574 570.003 6.344H569.975V5.28H568.295V12ZM574.338 6.708V9.788C574.338 11.37 574.758 12.168 576.536 12.168C576.928 12.168 577.516 12.112 577.866 11.944V10.53C577.656 10.684 577.25 10.74 576.956 10.74C576.214 10.74 576.018 10.32 576.018 9.648V6.708H577.866V5.28H576.018V3.334H574.338V5.28H572.952V6.708H574.338ZM579.206 12H580.886V5.28H579.206V12ZM578.968 2.998C578.968 3.53 579.416 4.006 580.032 4.006C580.648 4.006 581.124 3.572 581.124 2.998C581.124 2.424 580.648 1.99 580.032 1.99C579.416 1.99 578.968 2.466 578.968 2.998ZM588.568 6.134C587.924 5.42 586.986 5.112 586.132 5.112C584.102 5.112 582.478 6.526 582.478 8.64C582.478 10.754 584.102 12.168 586.132 12.168C586.72 12.168 587.868 11.916 588.554 11.23L587.434 10.026C587.126 10.432 586.65 10.656 586.132 10.656C584.9 10.656 584.158 9.69 584.158 8.64C584.158 7.59 584.9 6.624 586.132 6.624C586.58 6.624 587.014 6.89 587.406 7.296L588.568 6.134ZM593.768 12H595.28V8.136C595.28 7.184 595.28 5.112 592.41 5.112C591.346 5.112 590.296 5.434 589.554 6.19L590.436 7.072C590.884 6.652 591.528 6.372 592.228 6.372C593.124 6.372 593.768 6.806 593.768 7.632V7.814H593.348C591.668 7.814 589.12 7.968 589.12 10.152C589.12 11.482 590.324 12.168 591.57 12.168C592.466 12.168 593.25 11.832 593.726 11.076H593.768V12ZM593.67 9.368C593.67 10.306 593.124 10.908 591.976 10.908C591.43 10.908 590.8 10.642 590.8 10.026C590.8 9.06 592.396 8.99 593.32 8.99H593.67V9.368ZM597.116 12H598.796V1.416H597.116V12Z" fill="#333333"/>
<line x1="533.005" y1="131" x2="533.005" y2="33" stroke="#D2D6DD"/>
</svg>
