<svg width="952" height="88" viewBox="0 0 952 88" fill="none" xmlns="http://www.w3.org/2000/svg">
<mask id="path-1-inside-1_253_31975" fill="white">
<path d="M0 0H952V88H0V0Z"/>
</mask>
<path d="M0 0H952V88H0V0Z" fill="white"/>
<path d="M66.304 52H71.296V43.168H74.944C79.712 43.168 83.328 41.536 83.328 36.224C83.328 30.848 79.424 29.344 74.72 29.344H66.304V52ZM71.296 33.568H73.856C75.776 33.568 78.144 33.888 78.144 36.224C78.144 38.336 76.384 38.944 74.624 38.944H71.296V33.568ZM95.6123 52H100.028V44.096C100.028 38.912 98.5243 36.064 92.9243 36.064C90.3963 36.064 87.8363 36.896 86.0763 38.56L88.6363 41.184C89.6603 40.032 90.9723 39.328 92.5403 39.328C94.2043 39.328 95.6123 40.416 95.6123 42.112C91.6123 42.112 85.0843 42.208 85.0843 47.584C85.0843 50.72 87.7083 52.384 90.6203 52.384C92.5723 52.384 94.4923 51.712 95.5483 50.048H95.6123V52ZM95.6123 45.184V46.208C95.6123 48.128 93.8523 49.12 91.9643 49.12C90.9083 49.12 89.6923 48.576 89.6923 47.424C89.6923 45.312 92.9563 45.184 94.4283 45.184H95.6123ZM119.36 36.448H114.944V38.496H114.88C114.144 37.376 112.288 36.064 109.568 36.064C105.152 36.064 102.464 40.032 102.464 44.16C102.464 48.864 105.504 52.192 110.112 52.192C111.552 52.192 113.408 51.648 114.496 50.144H114.56V51.648C114.56 53.856 113.184 55.456 110.272 55.456C108.32 55.456 106.688 54.688 105.216 53.44L102.56 57.408C104.8 59.2 107.616 59.68 110.368 59.68C116.384 59.68 119.36 56.544 119.36 50.688V36.448ZM107.264 44.128C107.264 42.112 108.928 40.288 111.104 40.288C113.28 40.288 114.944 42.112 114.944 44.128C114.944 46.144 113.28 47.968 111.104 47.968C108.928 47.968 107.264 46.144 107.264 44.128ZM134.556 46.848C133.756 47.936 132.7 48.736 131.132 48.736C129.276 48.736 127.9 47.552 127.516 45.728H138.652V44.224C138.652 39.264 135.836 36.064 131.356 36.064C126.556 36.064 122.716 39.264 122.716 44.224C122.716 49.184 126.556 52.384 131.356 52.384C133.852 52.384 136.38 51.264 137.916 49.312L134.556 46.848ZM127.516 42.464C127.644 40.96 128.796 39.52 130.908 39.52C132.636 39.52 133.884 40.864 133.852 42.464H127.516ZM151.04 27.808V52H155.84V44.256C155.84 42.24 156.224 40.288 158.72 40.288C161.184 40.288 161.216 42.592 161.216 44.384V52H166.016V43.424C166.016 39.264 165.12 36.064 160.256 36.064C157.92 36.064 156.352 37.344 155.904 38.56H155.84V27.808H151.04ZM180.775 46.848C179.975 47.936 178.919 48.736 177.351 48.736C175.495 48.736 174.119 47.552 173.735 45.728H184.871V44.224C184.871 39.264 182.055 36.064 177.575 36.064C172.775 36.064 168.935 39.264 168.935 44.224C168.935 49.184 172.775 52.384 177.575 52.384C180.071 52.384 182.599 51.264 184.135 49.312L180.775 46.848ZM173.735 42.464C173.863 40.96 175.015 39.52 177.127 39.52C178.855 39.52 180.103 40.864 180.071 42.464H173.735ZM197.55 52H201.966V44.096C201.966 38.912 200.462 36.064 194.862 36.064C192.334 36.064 189.774 36.896 188.014 38.56L190.574 41.184C191.598 40.032 192.91 39.328 194.478 39.328C196.142 39.328 197.55 40.416 197.55 42.112C193.55 42.112 187.022 42.208 187.022 47.584C187.022 50.72 189.646 52.384 192.558 52.384C194.51 52.384 196.43 51.712 197.486 50.048H197.55V52ZM197.55 45.184V46.208C197.55 48.128 195.79 49.12 193.902 49.12C192.846 49.12 191.63 48.576 191.63 47.424C191.63 45.312 194.894 45.184 196.366 45.184H197.55ZM221.297 27.808H216.497V38.112H216.433C215.345 36.608 213.489 36.064 211.505 36.064C207.089 36.064 204.401 40.032 204.401 44.352C204.401 49.056 207.441 52.384 212.049 52.384C214.225 52.384 216.081 51.072 216.817 49.952H216.881V52H221.297V27.808ZM216.881 44.224C216.881 46.56 215.441 48.16 213.041 48.16C210.641 48.16 209.201 46.56 209.201 44.224C209.201 41.888 210.641 40.288 213.041 40.288C215.441 40.288 216.881 41.888 216.881 44.224ZM225.198 52H229.998V36.448H225.198V52ZM224.814 31.552C224.814 33.088 226.062 34.336 227.598 34.336C229.134 34.336 230.382 33.088 230.382 31.552C230.382 30.016 229.134 28.768 227.598 28.768C226.062 28.768 224.814 30.016 224.814 31.552ZM233.446 52H238.246V44.256C238.246 42.24 238.63 40.288 241.126 40.288C243.59 40.288 243.622 42.592 243.622 44.384V52H248.422V43.424C248.422 39.264 247.526 36.064 242.662 36.064C240.326 36.064 238.758 37.344 238.118 38.56H238.054V36.448H233.446V52ZM268.141 36.448H263.725V38.496H263.661C262.925 37.376 261.069 36.064 258.349 36.064C253.933 36.064 251.245 40.032 251.245 44.16C251.245 48.864 254.285 52.192 258.893 52.192C260.333 52.192 262.189 51.648 263.277 50.144H263.341V51.648C263.341 53.856 261.965 55.456 259.053 55.456C257.101 55.456 255.469 54.688 253.997 53.44L251.341 57.408C253.581 59.2 256.397 59.68 259.149 59.68C265.165 59.68 268.141 56.544 268.141 50.688V36.448ZM256.045 44.128C256.045 42.112 257.709 40.288 259.885 40.288C262.061 40.288 263.725 42.112 263.725 44.128C263.725 46.144 262.061 47.968 259.885 47.968C257.709 47.968 256.045 46.144 256.045 44.128Z" fill="#502252"/>
<path d="M952 87H0V89H952V87Z" fill="#D2D6DD" mask="url(#path-1-inside-1_253_31975)"/>
</svg>
