<svg width="347" height="193" viewBox="0 0 347 193" fill="none" xmlns="http://www.w3.org/2000/svg">
<g clip-path="url(#clip0_253_32661)">
<rect x="314.5" y="16" width="16" height="16" rx="8" fill="#DB3259"/>
<path d="M323.207 24L326.154 21.0533C326.203 21.0075 326.242 20.9523 326.269 20.891C326.297 20.8297 326.311 20.7635 326.313 20.6963C326.314 20.6292 326.301 20.5625 326.276 20.5002C326.251 20.438 326.214 20.3814 326.166 20.3339C326.119 20.2865 326.062 20.249 326 20.2239C325.938 20.1987 325.871 20.1864 325.804 20.1876C325.737 20.1888 325.671 20.2035 325.609 20.2308C325.548 20.2581 325.493 20.2975 325.447 20.3466L322.5 23.2933L319.554 20.3466C319.459 20.2583 319.333 20.2102 319.204 20.2125C319.074 20.2148 318.951 20.2673 318.859 20.3589C318.768 20.4505 318.715 20.5741 318.713 20.7036C318.711 20.8332 318.759 20.9585 318.847 21.0533L321.794 24L318.847 26.9466C318.753 27.0404 318.701 27.1675 318.701 27.3C318.701 27.4325 318.753 27.5596 318.847 27.6533C318.941 27.7469 319.068 27.7995 319.2 27.7995C319.333 27.7995 319.46 27.7469 319.554 27.6533L322.5 24.7066L325.447 27.6533C325.541 27.7469 325.668 27.7995 325.8 27.7995C325.933 27.7995 326.06 27.7469 326.154 27.6533C326.247 27.5596 326.3 27.4325 326.3 27.3C326.3 27.1675 326.247 27.0404 326.154 26.9466L323.207 24Z" fill="white"/>
<line x1="9" y1="60.5" x2="338" y2="60.5" stroke="#D2D6DD"/>
<line x1="9" y1="76.5" x2="338" y2="76.5" stroke="#D2D6DD"/>
<rect x="69" y="92" width="213" height="16" rx="2" fill="#E7EDF9"/>
<rect x="69" y="116" width="213" height="16" rx="2" fill="#E7EDF9"/>
<rect x="69" y="2" width="89" height="36" rx="4" fill="#E7EDF9"/>
</g>
<rect x="4.5" y="4" width="338" height="129" stroke="#E6E6E6" stroke-width="8"/>
<path d="M6.264 161H10.488C13.208 161 16.488 159.208 16.488 155.336C16.488 151.496 13.704 149.672 10.728 149.672H6.264V161ZM8.28 159.176V151.496H10.12C12.584 151.496 14.376 152.584 14.376 155.336C14.376 158.088 12.312 159.176 9.784 159.176H8.28ZM17.8446 157.16C17.8446 159.576 19.7006 161.192 22.0206 161.192C24.3406 161.192 26.1966 159.576 26.1966 157.16C26.1966 154.744 24.3406 153.128 22.0206 153.128C19.7006 153.128 17.8446 154.744 17.8446 157.16ZM19.7646 157.16C19.7646 155.96 20.6126 154.856 22.0206 154.856C23.4286 154.856 24.2766 155.96 24.2766 157.16C24.2766 158.36 23.4286 159.464 22.0206 159.464C20.6126 159.464 19.7646 158.36 19.7646 157.16ZM27.9943 161H29.9143V156.808C29.9143 155.784 30.4103 154.856 31.6743 154.856C33.0183 154.856 33.0823 156.264 33.0823 157.112V161H35.0023V156.152C35.0023 154.584 34.2663 153.128 32.2023 153.128C30.9223 153.128 30.2023 153.784 29.8503 154.552H29.8183V153.32H27.9943V161ZM36.9258 153.896H38.6378L39.9978 149.672H38.0458L36.9258 153.896ZM42.3229 154.952V158.472C42.3229 160.28 42.8029 161.192 44.8349 161.192C45.2829 161.192 45.9549 161.128 46.3549 160.936V159.32C46.1149 159.496 45.6509 159.56 45.3149 159.56C44.4669 159.56 44.2429 159.08 44.2429 158.312V154.952H46.3549V153.32H44.2429V151.096H42.3229V153.32H40.7389V154.952H42.3229ZM47.8536 159.88C47.8536 160.568 48.4616 161.096 49.1336 161.096C49.8376 161.096 50.4136 160.536 50.4136 159.848C50.4136 159.16 49.8216 158.632 49.1336 158.632C48.4296 158.632 47.8536 159.192 47.8536 159.88ZM47.8536 154.456C47.8536 155.144 48.4616 155.672 49.1336 155.672C49.8376 155.672 50.4136 155.112 50.4136 154.424C50.4136 153.736 49.8216 153.208 49.1336 153.208C48.4296 153.208 47.8536 153.768 47.8536 154.456Z" fill="#333333"/>
<path d="M69.904 149.672H68.56V156.488C68.56 158.312 67.888 160.04 65.632 160.04C63.376 160.04 62.704 158.312 62.704 156.488V149.672H61.36V156.68C61.36 159.144 62.512 161.288 65.632 161.288C68.752 161.288 69.904 159.144 69.904 156.68V149.672ZM71.6176 159.8C72.3536 160.856 73.2656 161.192 74.5296 161.192C76.0176 161.192 77.5216 160.536 77.5216 158.84C77.5216 157.336 76.4016 156.856 75.0736 156.6C74.0816 156.408 73.1856 156.136 73.1856 155.512C73.1856 154.808 73.9696 154.472 74.6576 154.472C75.3936 154.472 75.9216 154.84 76.2416 155.368L77.2816 154.68C76.7696 153.72 75.7936 153.32 74.7376 153.32C73.3456 153.32 71.9376 154.072 71.9376 155.528C71.9376 157.08 73.1536 157.384 74.5776 157.704C75.3776 157.88 76.1776 158.088 76.1776 158.888C76.1776 159.704 75.3136 160.04 74.5296 160.04C73.6496 160.04 73.1056 159.64 72.6096 159.032L71.6176 159.8ZM85.0061 158.904C84.4141 159.656 83.6941 160.04 82.6221 160.04C81.2621 160.04 80.2701 158.936 80.1741 157.64H86.2221V157.24C86.2221 154.76 84.7821 153.32 82.6701 153.32C80.4621 153.32 78.8301 154.936 78.8301 157.256C78.8301 159.432 80.2701 161.192 82.6221 161.192C84.0141 161.192 85.0701 160.776 85.9501 159.64L85.0061 158.904ZM80.1741 156.584C80.3341 155.32 81.2461 154.472 82.6221 154.472C83.9981 154.472 84.8301 155.32 84.8781 156.584H80.1741ZM96.7019 153.512H94.4939V151.384H93.2459V153.512H91.6139V154.568H93.2459V158.68C93.2459 160.232 93.5339 161.192 95.3099 161.192C95.7739 161.192 96.3339 161.112 96.7659 160.92L96.7179 159.784C96.3819 159.96 95.9819 160.04 95.6139 160.04C94.5099 160.04 94.4939 159.272 94.4939 158.312V154.568H96.7019V153.512ZM108.679 153.512H107.335L105.639 159.272H105.607L103.639 153.512H102.327L100.391 159.272H100.359L98.6469 153.512H97.2709L99.7029 161H100.983L102.871 155.24H102.903L105.031 161H106.263L108.679 153.512ZM109.658 157.256C109.658 159.592 111.354 161.192 113.658 161.192C115.962 161.192 117.658 159.592 117.658 157.256C117.658 154.92 115.962 153.32 113.658 153.32C111.354 153.32 109.658 154.92 109.658 157.256ZM111.002 157.256C111.002 155.688 112.042 154.472 113.658 154.472C115.274 154.472 116.314 155.688 116.314 157.256C116.314 158.824 115.274 160.04 113.658 160.04C112.042 160.04 111.002 158.824 111.002 157.256ZM130.267 161H131.515V148.904H130.267V154.6H130.235C129.547 153.8 128.635 153.32 127.547 153.32C125.195 153.32 123.611 154.984 123.611 157.256C123.611 159.496 125.259 161.192 127.355 161.192C128.699 161.192 129.771 160.52 130.235 159.672H130.267V161ZM130.267 157.256C130.267 158.824 129.227 160.04 127.611 160.04C125.995 160.04 124.955 158.824 124.955 157.256C124.955 155.688 125.995 154.472 127.611 154.472C129.227 154.472 130.267 155.688 130.267 157.256ZM133.937 161H135.185V153.512H133.937V161ZM133.649 150.584C133.649 151.112 134.033 151.496 134.561 151.496C135.089 151.496 135.473 151.112 135.473 150.584C135.473 150.088 135.073 149.672 134.561 149.672C134.049 149.672 133.649 150.088 133.649 150.584ZM144.036 153.512H142.692L140.468 159.384H140.436L138.1 153.512H136.644L139.7 161H141.076L144.036 153.512ZM145.499 161H146.747V153.512H145.499V161ZM145.211 150.584C145.211 151.112 145.595 151.496 146.123 151.496C146.651 151.496 147.035 151.112 147.035 150.584C147.035 150.088 146.635 149.672 146.123 149.672C145.611 149.672 145.211 150.088 145.211 150.584ZM155.455 161H156.703V148.904H155.455V154.6H155.423C154.735 153.8 153.823 153.32 152.735 153.32C150.383 153.32 148.799 154.984 148.799 157.256C148.799 159.496 150.447 161.192 152.543 161.192C153.887 161.192 154.959 160.52 155.423 159.672H155.455V161ZM155.455 157.256C155.455 158.824 154.415 160.04 152.799 160.04C151.183 160.04 150.143 158.824 150.143 157.256C150.143 155.688 151.183 154.472 152.799 154.472C154.415 154.472 155.455 155.688 155.455 157.256ZM164.756 158.904C164.164 159.656 163.444 160.04 162.372 160.04C161.012 160.04 160.02 158.936 159.924 157.64H165.972V157.24C165.972 154.76 164.532 153.32 162.42 153.32C160.212 153.32 158.58 154.936 158.58 157.256C158.58 159.432 160.02 161.192 162.372 161.192C163.764 161.192 164.82 160.776 165.7 159.64L164.756 158.904ZM159.924 156.584C160.084 155.32 160.996 154.472 162.372 154.472C163.748 154.472 164.58 155.32 164.628 156.584H159.924ZM167.903 161H169.151V157.352C169.151 155.64 169.823 154.568 171.343 154.568C171.567 154.568 171.807 154.6 172.015 154.664L172.095 153.4C171.919 153.336 171.743 153.32 171.583 153.32C170.351 153.32 169.423 154.008 169.087 154.744H169.055C169.055 154.328 169.023 153.912 169.023 153.512H167.839C167.839 154.008 167.903 154.6 167.903 155.288V161ZM172.696 159.8C173.432 160.856 174.344 161.192 175.608 161.192C177.096 161.192 178.6 160.536 178.6 158.84C178.6 157.336 177.48 156.856 176.152 156.6C175.16 156.408 174.264 156.136 174.264 155.512C174.264 154.808 175.048 154.472 175.736 154.472C176.472 154.472 177 154.84 177.32 155.368L178.36 154.68C177.848 153.72 176.872 153.32 175.816 153.32C174.424 153.32 173.016 154.072 173.016 155.528C173.016 157.08 174.232 157.384 175.656 157.704C176.456 157.88 177.256 158.088 177.256 158.888C177.256 159.704 176.392 160.04 175.608 160.04C174.728 160.04 174.184 159.64 173.688 159.032L172.696 159.8ZM188.889 153.512H186.681V151.384H185.433V153.512H183.801V154.568H185.433V158.68C185.433 160.232 185.721 161.192 187.497 161.192C187.961 161.192 188.521 161.112 188.953 160.92L188.905 159.784C188.569 159.96 188.169 160.04 187.801 160.04C186.697 160.04 186.681 159.272 186.681 158.312V154.568H188.889V153.512ZM189.986 157.256C189.986 159.592 191.682 161.192 193.986 161.192C196.29 161.192 197.986 159.592 197.986 157.256C197.986 154.92 196.29 153.32 193.986 153.32C191.682 153.32 189.986 154.92 189.986 157.256ZM191.33 157.256C191.33 155.688 192.37 154.472 193.986 154.472C195.602 154.472 196.642 155.688 196.642 157.256C196.642 158.824 195.602 160.04 193.986 160.04C192.37 160.04 191.33 158.824 191.33 157.256ZM203.54 159.8C204.276 160.856 205.188 161.192 206.452 161.192C207.94 161.192 209.444 160.536 209.444 158.84C209.444 157.336 208.324 156.856 206.996 156.6C206.004 156.408 205.108 156.136 205.108 155.512C205.108 154.808 205.892 154.472 206.58 154.472C207.316 154.472 207.844 154.84 208.164 155.368L209.204 154.68C208.692 153.72 207.716 153.32 206.66 153.32C205.268 153.32 203.86 154.072 203.86 155.528C203.86 157.08 205.076 157.384 206.5 157.704C207.299 157.88 208.1 158.088 208.1 158.888C208.1 159.704 207.236 160.04 206.452 160.04C205.572 160.04 205.028 159.64 204.532 159.032L203.54 159.8ZM216.928 158.904C216.336 159.656 215.616 160.04 214.544 160.04C213.184 160.04 212.192 158.936 212.096 157.64H218.144V157.24C218.144 154.76 216.704 153.32 214.592 153.32C212.384 153.32 210.752 154.936 210.752 157.256C210.752 159.432 212.192 161.192 214.544 161.192C215.936 161.192 216.992 160.776 217.872 159.64L216.928 158.904ZM212.096 156.584C212.256 155.32 213.168 154.472 214.544 154.472C215.92 154.472 216.752 155.32 216.8 156.584H212.096ZM220.011 164.648H221.259V159.672H221.291C221.755 160.52 222.827 161.192 224.171 161.192C226.267 161.192 227.915 159.496 227.915 157.256C227.915 154.984 226.331 153.32 223.979 153.32C222.891 153.32 221.979 153.8 221.291 154.6H221.259V153.512H220.011V164.648ZM221.259 157.256C221.259 155.688 222.299 154.472 223.915 154.472C225.531 154.472 226.571 155.688 226.571 157.256C226.571 158.824 225.531 160.04 223.915 160.04C222.299 160.04 221.259 158.824 221.259 157.256ZM230.544 155.288C231.136 154.744 231.968 154.472 232.768 154.472C233.936 154.472 234.624 155.032 234.624 156.12V156.344H234.144C232.304 156.344 229.424 156.488 229.424 158.968C229.424 160.424 230.688 161.192 232.208 161.192C233.344 161.192 234.176 160.648 234.672 159.88H234.704C234.704 160.2 234.704 160.664 234.784 161H235.984C235.92 160.616 235.872 160.136 235.872 159.704V156.488C235.872 154.376 234.944 153.32 232.736 153.32C231.648 153.32 230.528 153.688 229.76 154.472L230.544 155.288ZM234.624 157.4V157.88C234.592 159.096 233.856 160.136 232.416 160.136C231.472 160.136 230.768 159.784 230.768 158.84C230.768 157.832 231.792 157.4 233.376 157.4H234.624ZM238.153 161H239.401V157.352C239.401 155.64 240.073 154.568 241.593 154.568C241.817 154.568 242.057 154.6 242.265 154.664L242.345 153.4C242.169 153.336 241.993 153.32 241.833 153.32C240.601 153.32 239.673 154.008 239.337 154.744H239.305C239.305 154.328 239.273 153.912 239.273 153.512H238.089C238.089 154.008 238.153 154.6 238.153 155.288V161ZM244.466 155.288C245.058 154.744 245.89 154.472 246.69 154.472C247.858 154.472 248.546 155.032 248.546 156.12V156.344H248.066C246.226 156.344 243.346 156.488 243.346 158.968C243.346 160.424 244.61 161.192 246.13 161.192C247.266 161.192 248.098 160.648 248.594 159.88H248.626C248.626 160.2 248.626 160.664 248.706 161H249.906C249.842 160.616 249.794 160.136 249.794 159.704V156.488C249.794 154.376 248.866 153.32 246.658 153.32C245.57 153.32 244.45 153.688 243.682 154.472L244.466 155.288ZM248.546 157.4V157.88C248.514 159.096 247.778 160.136 246.338 160.136C245.394 160.136 244.69 159.784 244.69 158.84C244.69 157.832 245.714 157.4 247.298 157.4H248.546ZM256.171 153.512H253.963V151.384H252.715V153.512H251.083V154.568H252.715V158.68C252.715 160.232 253.003 161.192 254.779 161.192C255.243 161.192 255.803 161.112 256.235 160.92L256.187 159.784C255.851 159.96 255.451 160.04 255.083 160.04C253.979 160.04 253.963 159.272 253.963 158.312V154.568H256.171V153.512ZM263.444 158.904C262.852 159.656 262.132 160.04 261.06 160.04C259.7 160.04 258.708 158.936 258.612 157.64H264.66V157.24C264.66 154.76 263.22 153.32 261.108 153.32C258.9 153.32 257.268 154.936 257.268 157.256C257.268 159.432 258.708 161.192 261.06 161.192C262.452 161.192 263.508 160.776 264.388 159.64L263.444 158.904ZM258.612 156.584C258.772 155.32 259.684 154.472 261.06 154.472C262.436 154.472 263.268 155.32 263.316 156.584H258.612ZM271.731 155.288C272.323 154.744 273.155 154.472 273.955 154.472C275.123 154.472 275.811 155.032 275.811 156.12V156.344H275.331C273.491 156.344 270.611 156.488 270.611 158.968C270.611 160.424 271.875 161.192 273.395 161.192C274.531 161.192 275.363 160.648 275.859 159.88H275.891C275.891 160.2 275.891 160.664 275.971 161H277.171C277.107 160.616 277.059 160.136 277.059 159.704V156.488C277.059 154.376 276.131 153.32 273.923 153.32C272.835 153.32 271.715 153.688 270.947 154.472L271.731 155.288ZM275.811 157.4V157.88C275.779 159.096 275.043 160.136 273.603 160.136C272.659 160.136 271.955 159.784 271.955 158.84C271.955 157.832 272.979 157.4 274.563 157.4H275.811ZM279.34 161H280.588V157.352C280.588 155.64 281.292 154.472 282.908 154.472C284.076 154.472 284.62 155.256 284.62 156.504V161H285.868V156.376C285.868 154.568 284.988 153.32 283.02 153.32C281.788 153.32 280.86 154.008 280.524 154.744H280.492C280.492 154.328 280.46 153.912 280.46 153.512H279.276C279.276 154.008 279.34 154.6 279.34 155.288V161ZM294.599 153.512H293.239L291.015 159.384H290.983L288.663 153.512H287.207L290.311 161.048L289.799 162.456C289.527 163.192 289.223 163.688 288.407 163.688C288.055 163.688 287.783 163.656 287.527 163.56L287.367 164.648C287.703 164.808 288.135 164.84 288.487 164.84C289.991 164.84 290.487 163.976 290.983 162.712L294.599 153.512ZM60.352 183.8C61.088 184.856 62 185.192 63.264 185.192C64.752 185.192 66.256 184.536 66.256 182.84C66.256 181.336 65.136 180.856 63.808 180.6C62.816 180.408 61.92 180.136 61.92 179.512C61.92 178.808 62.704 178.472 63.392 178.472C64.128 178.472 64.656 178.84 64.976 179.368L66.016 178.68C65.504 177.72 64.528 177.32 63.472 177.32C62.08 177.32 60.672 178.072 60.672 179.528C60.672 181.08 61.888 181.384 63.312 181.704C64.112 181.88 64.912 182.088 64.912 182.888C64.912 183.704 64.048 184.04 63.264 184.04C62.384 184.04 61.84 183.64 61.344 183.032L60.352 183.8ZM73.7405 182.904C73.1485 183.656 72.4285 184.04 71.3565 184.04C69.9965 184.04 69.0045 182.936 68.9085 181.64H74.9565V181.24C74.9565 178.76 73.5165 177.32 71.4045 177.32C69.1965 177.32 67.5645 178.936 67.5645 181.256C67.5645 183.432 69.0045 185.192 71.3565 185.192C72.7485 185.192 73.8045 184.776 74.6845 183.64L73.7405 182.904ZM68.9085 180.584C69.0685 179.32 69.9805 178.472 71.3565 178.472C72.7325 178.472 73.5645 179.32 73.6125 180.584H68.9085ZM83.2071 178.504C82.4551 177.688 81.4311 177.32 80.3271 177.32C78.0231 177.32 76.4551 178.984 76.4551 181.256C76.4551 183.56 78.0071 185.192 80.3271 185.192C81.4151 185.192 82.4391 184.824 83.1591 183.992L82.2311 183.112C81.7671 183.752 81.1431 184.04 80.3271 184.04C78.8071 184.04 77.7991 182.792 77.7991 181.256C77.7991 179.72 78.6471 178.472 80.3271 178.472C81.0791 178.472 81.6871 178.744 82.2151 179.384L83.2071 178.504ZM88.7019 177.512H86.4939V175.384H85.2459V177.512H83.6139V178.568H85.2459V182.68C85.2459 184.232 85.5339 185.192 87.3099 185.192C87.7739 185.192 88.3339 185.112 88.7659 184.92L88.7179 183.784C88.3819 183.96 87.9819 184.04 87.6139 184.04C86.5099 184.04 86.4939 183.272 86.4939 182.312V178.568H88.7019V177.512ZM90.3429 185H91.5909V177.512H90.3429V185ZM90.0549 174.584C90.0549 175.112 90.4389 175.496 90.9669 175.496C91.4949 175.496 91.8789 175.112 91.8789 174.584C91.8789 174.088 91.4789 173.672 90.9669 173.672C90.4549 173.672 90.0549 174.088 90.0549 174.584ZM93.6426 181.256C93.6426 183.592 95.3386 185.192 97.6426 185.192C99.9466 185.192 101.643 183.592 101.643 181.256C101.643 178.92 99.9466 177.32 97.6426 177.32C95.3386 177.32 93.6426 178.92 93.6426 181.256ZM94.9866 181.256C94.9866 179.688 96.0266 178.472 97.6426 178.472C99.2586 178.472 100.299 179.688 100.299 181.256C100.299 182.824 99.2586 184.04 97.6426 184.04C96.0266 184.04 94.9866 182.824 94.9866 181.256ZM103.575 185H104.823V181.352C104.823 179.64 105.527 178.472 107.143 178.472C108.311 178.472 108.855 179.256 108.855 180.504V185H110.103V180.376C110.103 178.568 109.223 177.32 107.255 177.32C106.023 177.32 105.095 178.008 104.759 178.744H104.727C104.727 178.328 104.695 177.912 104.695 177.512H103.511C103.511 178.008 103.575 178.6 103.575 179.288V185ZM116.486 181.256C116.486 183.592 118.182 185.192 120.486 185.192C122.79 185.192 124.486 183.592 124.486 181.256C124.486 178.92 122.79 177.32 120.486 177.32C118.182 177.32 116.486 178.92 116.486 181.256ZM117.83 181.256C117.83 179.688 118.87 178.472 120.486 178.472C122.102 178.472 123.142 179.688 123.142 181.256C123.142 182.824 122.102 184.04 120.486 184.04C118.87 184.04 117.83 182.824 117.83 181.256ZM126.418 185H127.666V181.352C127.666 179.64 128.338 178.568 129.858 178.568C130.082 178.568 130.322 178.6 130.53 178.664L130.61 177.4C130.434 177.336 130.258 177.32 130.098 177.32C128.866 177.32 127.938 178.008 127.602 178.744H127.57C127.57 178.328 127.538 177.912 127.538 177.512H126.354C126.354 178.008 126.418 178.6 126.418 179.288V185ZM142.817 178.504C142.065 177.688 141.041 177.32 139.937 177.32C137.633 177.32 136.065 178.984 136.065 181.256C136.065 183.56 137.617 185.192 139.937 185.192C141.025 185.192 142.049 184.824 142.769 183.992L141.841 183.112C141.377 183.752 140.753 184.04 139.937 184.04C138.417 184.04 137.409 182.792 137.409 181.256C137.409 179.72 138.257 178.472 139.937 178.472C140.689 178.472 141.297 178.744 141.825 179.384L142.817 178.504ZM143.783 181.256C143.783 183.592 145.479 185.192 147.783 185.192C150.087 185.192 151.783 183.592 151.783 181.256C151.783 178.92 150.087 177.32 147.783 177.32C145.479 177.32 143.783 178.92 143.783 181.256ZM145.127 181.256C145.127 179.688 146.167 178.472 147.783 178.472C149.399 178.472 150.439 179.688 150.439 181.256C150.439 182.824 149.399 184.04 147.783 184.04C146.167 184.04 145.127 182.824 145.127 181.256ZM153.715 185H154.963V181.352C154.963 179.64 155.667 178.472 157.283 178.472C158.451 178.472 158.995 179.256 158.995 180.504V185H160.243V180.376C160.243 178.568 159.363 177.32 157.395 177.32C156.163 177.32 155.235 178.008 154.899 178.744H154.867C154.867 178.328 154.835 177.912 154.835 177.512H153.651C153.651 178.008 153.715 178.6 153.715 179.288V185ZM166.702 177.512H164.494V175.384H163.246V177.512H161.614V178.568H163.246V182.68C163.246 184.232 163.534 185.192 165.31 185.192C165.774 185.192 166.334 185.112 166.766 184.92L166.718 183.784C166.382 183.96 165.982 184.04 165.614 184.04C164.51 184.04 164.494 183.272 164.494 182.312V178.568H166.702V177.512ZM173.975 182.904C173.383 183.656 172.663 184.04 171.591 184.04C170.231 184.04 169.239 182.936 169.143 181.64H175.191V181.24C175.191 178.76 173.751 177.32 171.639 177.32C169.431 177.32 167.799 178.936 167.799 181.256C167.799 183.432 169.239 185.192 171.591 185.192C172.983 185.192 174.039 184.776 174.919 183.64L173.975 182.904ZM169.143 180.584C169.303 179.32 170.215 178.472 171.591 178.472C172.967 178.472 173.799 179.32 173.847 180.584H169.143ZM177.122 185H178.37V181.352C178.37 179.64 179.074 178.472 180.69 178.472C181.858 178.472 182.402 179.256 182.402 180.504V185H183.65V180.376C183.65 178.568 182.77 177.32 180.802 177.32C179.57 177.32 178.642 178.008 178.306 178.744H178.274C178.274 178.328 178.242 177.912 178.242 177.512H177.058C177.058 178.008 177.122 178.6 177.122 179.288V185ZM190.108 177.512H187.9V175.384H186.652V177.512H185.02V178.568H186.652V182.68C186.652 184.232 186.94 185.192 188.716 185.192C189.18 185.192 189.74 185.112 190.172 184.92L190.124 183.784C189.788 183.96 189.388 184.04 189.02 184.04C187.916 184.04 187.9 183.272 187.9 182.312V178.568H190.108V177.512ZM192.677 183.176C192.149 183.176 191.717 183.608 191.717 184.136C191.717 184.664 192.181 185.096 192.677 185.096C193.173 185.096 193.637 184.664 193.637 184.136C193.637 183.608 193.205 183.176 192.677 183.176Z" fill="#333333"/>
<defs>
<clipPath id="clip0_253_32661">
<rect x="8.5" y="8" width="330" height="121" fill="white"/>
</clipPath>
</defs>
</svg>
