<svg width="900" height="463" viewBox="0 0 900 463" fill="none" xmlns="http://www.w3.org/2000/svg">
<rect x="251.842" y="34.999" width="387" height="256" rx="50" fill="#FBFCFD"/>
<path fill-rule="evenodd" clip-rule="evenodd" d="M340.849 27.0479C349.567 27.0479 357.2 32.7247 360.293 40.8747C365.843 55.5019 373.294 70.8949 382 80.0479C396.489 95.2801 410.978 95.3295 424.237 95.3747C428.822 95.3903 433.26 95.4054 437.5 96.0479C454 98.5479 476 103.548 487.5 127.048C498.747 150.031 519.081 170.145 544.76 178.034C545.913 178.389 547.1 178.611 548.305 178.68C558.975 179.292 589.972 178.861 605 178.548C628.758 178.548 656.994 195.715 671.009 236.174C671.687 238.13 672 240.201 672 242.271V281.048C672 292.094 663.046 301.048 652 301.048H248C236.954 301.048 228 292.094 228 281.048V47.0478C228 36.0022 236.954 27.0479 248 27.0479H340.849Z" fill="#F0F3F6"/>
<path d="M441.823 74.7384V151.127C441.823 153.339 440.029 155.133 437.817 155.133H299.875C297.663 155.133 295.869 153.339 295.869 151.127V74.7384C295.869 72.5263 297.663 70.7324 299.875 70.7324H437.817C440.029 70.7324 441.823 72.5263 441.823 74.7384Z" fill="#FEFFFF"/>
<path d="M388.139 139.934L390.714 139.703L390.571 142.003L389.679 143.522L388.293 144.556L387.115 144.303L386.224 142.311L386.202 141.233L385.541 139.494L385.871 138.789L388.139 139.934ZM402.479 117.307L402.468 117.142L402.093 111.331L399.562 107.677L399.276 105.806L397.68 105.333L396.558 100.832L392.332 97.2659L392.244 94.5476L391.495 93.2379L391.121 89.5842L389.624 88.2745H388.59L387.742 84.3345L386.334 81.3301L384.738 84.8958L384.463 90.0574L381.37 94.6576L377.331 92.3135L377.243 92.2585L372.357 88.6597L374.514 85.0059L375.174 83.5972H373.865L373.578 82.8488L371.421 83.5091L366.546 81.9134L366.733 83.4101L363.916 83.5972L360.823 87.9113L361.483 89.1329L360.196 89.1769L357.841 88.2965L355.684 87.361L351.744 91.0148L352.118 92.6107H350.148L350.335 94.2945L348.838 93.0729L347.429 94.9548L347.991 96.8257L346.208 99.6431L338.427 102.923L335.709 105.828L334.96 106.863L334.212 105.927L334.3 110.153L336.083 113.719L335.147 114.941L338.24 119.442L340.584 124.229L341.145 126.761L340.298 127.509V128.819L344.612 129.754L347.617 127.41L353.339 126.287L354.649 124.229L356.905 123.008L361.88 121.412V121.401L365.434 120.95L368.714 121.885L370.497 124.141L372.467 127.047L375.89 124.284L374.976 127.586L376.781 126.794L376.682 128.642L378.091 128.741L378.564 131.46L380.633 133.617L380.655 133.628L383.637 135.312L386.169 134.277L388.139 135.873L390.483 134.376L394.236 133.342L394.247 133.32L395.457 130.535L398.087 126.221L401.18 121.907L402.589 118.716L402.479 117.307Z" fill="#D4DDE3"/>
<path d="M385.278 133.992C386.031 133.992 386.642 133.381 386.642 132.627C386.642 131.874 386.031 131.263 385.278 131.263C384.524 131.263 383.913 131.874 383.913 132.627C383.913 133.381 384.524 133.992 385.278 133.992Z" fill="#34B9B3"/>
<path d="M392.981 124.088C393.735 124.088 394.346 123.477 394.346 122.723C394.346 121.969 393.735 121.358 392.981 121.358C392.228 121.358 391.617 121.969 391.617 122.723C391.617 123.477 392.228 124.088 392.981 124.088Z" fill="#34B9B3"/>
<path d="M399.585 113.082C400.339 113.082 400.95 112.471 400.95 111.717C400.95 110.964 400.339 110.353 399.585 110.353C398.831 110.353 398.22 110.964 398.22 111.717C398.22 112.471 398.831 113.082 399.585 113.082Z" fill="#34B9B3"/>
<path d="M399.585 120.786C400.339 120.786 400.95 120.175 400.95 119.421C400.95 118.668 400.339 118.057 399.585 118.057C398.831 118.057 398.22 118.668 398.22 119.421C398.22 120.175 398.831 120.786 399.585 120.786Z" fill="#34B9B3"/>
<path d="M373.172 124.088C373.925 124.088 374.536 123.477 374.536 122.723C374.536 121.969 373.925 121.358 373.172 121.358C372.418 121.358 371.807 121.969 371.807 122.723C371.807 123.477 372.418 124.088 373.172 124.088Z" fill="#34B9B3"/>
<path d="M337.954 110.881C338.708 110.881 339.319 110.27 339.319 109.516C339.319 108.762 338.708 108.151 337.954 108.151C337.2 108.151 336.589 108.762 336.589 109.516C336.589 110.27 337.2 110.881 337.954 110.881Z" fill="#34B9B3"/>
<path d="M590.782 155.133H452.851C450.639 155.133 448.845 153.339 448.845 151.127V74.7384C448.845 72.5263 450.639 70.7324 452.851 70.7324H590.793C593.005 70.7324 594.799 72.5263 594.799 74.7384V151.138C594.788 153.35 592.994 155.133 590.782 155.133Z" fill="#FEFFFF"/>
<path d="M474.664 106.5L498.238 87.1855L521.811 106.5L545.396 93.6237L568.97 87.1855" stroke="#34B9B3" stroke-miterlimit="10" stroke-linecap="round"/>
<path d="M474.664 125.815L498.238 112.938L521.811 119.376H545.396L568.97 106.5" stroke="#CDD7DF" stroke-miterlimit="10" stroke-linecap="round"/>
<path d="M474.664 138.691L498.238 132.252L521.811 125.814L545.396 138.691L568.97 119.376" stroke="#E4EAEE" stroke-miterlimit="10" stroke-linecap="round"/>
<rect x="301.525" y="174.375" width="288" height="82" rx="10" fill="#FEFFFF"/>
<circle cx="528.025" cy="198.875" r="4" fill="white" stroke="#CDD7DF"/>
<path d="M528.072 194.422V203.329" stroke="#CDD7DF"/>
<circle cx="542.025" cy="198.875" r="4" fill="white" stroke="#CDD7DF"/>
<path d="M538.923 195.727L545.221 202.025" stroke="#CDD7DF"/>
<circle cx="556.025" cy="198.875" r="4" fill="white" stroke="#CDD7DF"/>
<path d="M559.929 196.648L552.215 201.102" stroke="#CDD7DF"/>
<circle cx="342.025" cy="198.875" r="4" fill="white" stroke="#CDD7DF"/>
<path d="M342.072 194.422V203.329" stroke="#CDD7DF"/>
<circle cx="356.025" cy="198.875" r="4" fill="white" stroke="#CDD7DF"/>
<path d="M352.923 195.727L359.221 202.025" stroke="#CDD7DF"/>
<circle cx="370.025" cy="198.875" r="4" fill="white" stroke="#CDD7DF"/>
<path d="M373.929 196.648L366.215 201.102" stroke="#CDD7DF"/>
<rect x="418.525" y="193.375" width="61" height="11" rx="2" fill="#CDD7DF"/>
<circle cx="424.025" cy="198.875" r="1.5" fill="white"/>
<circle cx="434.025" cy="198.875" r="1.5" fill="#E6E6E6"/>
<circle cx="444.025" cy="198.875" r="1.5" fill="white"/>
<circle cx="454.025" cy="198.875" r="1.5" fill="#E6E6E6"/>
<circle cx="464.025" cy="198.875" r="1.5" fill="white"/>
<circle cx="474.025" cy="198.875" r="1.5" fill="#E6E6E6"/>
<rect x="344.025" y="211.875" width="24" height="11" rx="1.5" fill="white" stroke="#CDD7DF"/>
<mask id="path-37-inside-1_500_43518" fill="white">
<path fill-rule="evenodd" clip-rule="evenodd" d="M360.525 223.375C360.525 221.166 358.735 219.375 356.525 219.375C354.316 219.375 352.525 221.166 352.525 223.375H360.525Z"/>
</mask>
<path fill-rule="evenodd" clip-rule="evenodd" d="M360.525 223.375C360.525 221.166 358.735 219.375 356.525 219.375C354.316 219.375 352.525 221.166 352.525 223.375H360.525Z" fill="white"/>
<path d="M360.525 223.375V224.375H361.525V223.375H360.525ZM352.525 223.375H351.525V224.375H352.525V223.375ZM356.525 220.375C358.182 220.375 359.525 221.718 359.525 223.375H361.525C361.525 220.614 359.287 218.375 356.525 218.375V220.375ZM353.525 223.375C353.525 221.718 354.869 220.375 356.525 220.375V218.375C353.764 218.375 351.525 220.614 351.525 223.375H353.525ZM352.525 224.375H360.525V222.375H352.525V224.375Z" fill="#CDD7DF" mask="url(#path-37-inside-1_500_43518)"/>
<path d="M354.525 220.375L351.525 216.875" stroke="#CDD7DF"/>
<rect x="-0.5" y="0.5" width="24" height="11" rx="1.5" transform="matrix(-1 0 0 1 553.525 211.375)" fill="white" stroke="#CDD7DF"/>
<mask id="path-41-inside-2_500_43518" fill="white">
<path fill-rule="evenodd" clip-rule="evenodd" d="M537.525 223.375C537.525 221.166 539.316 219.375 541.525 219.375C543.735 219.375 545.525 221.166 545.525 223.375H537.525Z"/>
</mask>
<path fill-rule="evenodd" clip-rule="evenodd" d="M537.525 223.375C537.525 221.166 539.316 219.375 541.525 219.375C543.735 219.375 545.525 221.166 545.525 223.375H537.525Z" fill="white"/>
<path d="M537.525 223.375V224.375H536.525V223.375H537.525ZM545.525 223.375H546.525V224.375H545.525V223.375ZM541.525 220.375C539.869 220.375 538.525 221.718 538.525 223.375H536.525C536.525 220.614 538.764 218.375 541.525 218.375V220.375ZM544.525 223.375C544.525 221.718 543.182 220.375 541.525 220.375V218.375C544.287 218.375 546.525 220.614 546.525 223.375H544.525ZM545.525 224.375H537.525V222.375H545.525V224.375Z" fill="#CDD7DF" mask="url(#path-41-inside-2_500_43518)"/>
<path d="M543.525 220.375L546.525 216.875" stroke="#CDD7DF"/>
<path d="M344.293 32.0469C344.293 45.3068 355.08 56.0938 368.34 56.0938C381.6 56.0938 392.387 45.3068 392.387 32.0469C392.387 18.7869 381.6 8 368.34 8C355.08 8 344.293 18.7869 344.293 32.0469Z" fill="#E4EAEE"/>
<path d="M349.497 32.0469H368.841L380.614 40.2092" stroke="#C4D0D9" stroke-miterlimit="10" stroke-linecap="round" stroke-linejoin="round"/>
<path d="M368.841 34.8988C370.416 34.8988 371.693 33.6218 371.693 32.0465C371.693 30.4713 370.416 29.1943 368.841 29.1943C367.265 29.1943 365.988 30.4713 365.988 32.0465C365.988 33.6218 367.265 34.8988 368.841 34.8988Z" fill="#C4D0D9" stroke="#C4D0D9" stroke-width="0.5" stroke-miterlimit="10" stroke-linecap="round" stroke-linejoin="round"/>
<path d="M420.834 32.0469C420.834 45.3068 431.621 56.0938 444.881 56.0938C458.141 56.0938 468.928 45.3068 468.928 32.0469C468.928 18.7869 458.141 8 444.881 8C431.621 8 420.834 18.7869 420.834 32.0469Z" fill="#E4EAEE"/>
<path d="M463.982 32.0469H445.381L453.073 45.9137" stroke="#C4D0D9" stroke-miterlimit="10" stroke-linecap="round" stroke-linejoin="round"/>
<path d="M445.381 34.8988C446.956 34.8988 448.233 33.6218 448.233 32.0465C448.233 30.4713 446.956 29.1943 445.381 29.1943C443.806 29.1943 442.529 30.4713 442.529 32.0465C442.529 33.6218 443.806 34.8988 445.381 34.8988Z" fill="#C4D0D9" stroke="#C4D0D9" stroke-width="0.5" stroke-miterlimit="10" stroke-linecap="round" stroke-linejoin="round"/>
<path d="M497.39 32.0469C497.39 45.3068 508.177 56.0938 521.436 56.0938C534.696 56.0938 545.483 45.3068 545.483 32.0469C545.483 18.7869 534.696 8 521.436 8C508.177 8 497.39 18.7869 497.39 32.0469Z" fill="#E4EAEE"/>
<path d="M502.593 32.0469H521.937V45.9137" stroke="#C4D0D9" stroke-miterlimit="10" stroke-linecap="round" stroke-linejoin="round"/>
<path d="M521.937 34.8988C523.512 34.8988 524.789 33.6218 524.789 32.0465C524.789 30.4713 523.512 29.1943 521.937 29.1943C520.361 29.1943 519.084 30.4713 519.084 32.0465C519.084 33.6218 520.361 34.8988 521.937 34.8988Z" fill="#C4D0D9" stroke="#C4D0D9" stroke-width="0.5" stroke-miterlimit="10" stroke-linecap="round" stroke-linejoin="round"/>
<path d="M565.612 164.779C565.491 165.374 565.37 165.968 565.238 166.562L565.48 179.604L565.513 181.541H545.12L545.021 178.569L544.878 173.969L544.669 167.916L539.684 168.785C536.822 169.281 534.192 167.101 534.181 164.196C534.126 153.389 534.786 143.638 536.998 136.154C537.538 134.305 539.133 132.963 541.037 132.709C546.199 132.038 551.228 131.807 556.06 132.192C562.476 132.709 567.505 137.97 567.769 144.419C568.023 150.626 567.109 157.538 565.612 164.779Z" fill="#E7EDF9"/>
<path d="M535.968 146.262C536.348 144.478 535.88 142.867 534.922 142.663C533.965 142.46 532.882 143.74 532.502 145.524C532.122 147.307 532.59 148.918 533.547 149.122C534.504 149.326 535.588 148.045 535.968 146.262Z" stroke="#333333" stroke-width="0.6674" stroke-miterlimit="10"/>
<path d="M565.238 166.562C564.148 167.233 562.96 167.762 561.661 168.169C557.193 169.566 552.252 168.851 548.686 165.825C547.145 164.515 545.824 162.501 544.999 160.256C544.317 158.462 543.954 156.514 544.031 154.687L537.647 150.318C537.086 149.933 536.932 149.151 537.328 148.579L538.099 147.457C538.55 146.807 538.704 146.004 538.55 145.233C538.253 143.814 537.768 141.448 537.438 139.852C537.229 138.828 536.591 137.959 535.71 137.398C531.429 134.679 529.041 130.343 528.392 124.51C528.128 122.166 530.703 120.504 532.651 121.825C535.975 124.092 540.388 124.708 546.111 123.344C546.111 123.344 547.904 122.903 550.667 122.496C559.306 121.209 577.454 120.196 580.304 133.788C584.057 151.749 565.238 166.562 565.238 166.562Z" fill="#C4D0D9"/>
<path d="M532.618 145.221L542.435 150.305" stroke="#333333" stroke-width="0.6674" stroke-miterlimit="10"/>
<path d="M538.803 152.244L541.499 149.372C542.578 148.227 544.416 148.249 545.45 149.438C546.308 150.417 546.33 151.881 545.505 152.882L541.917 157.251" fill="#E7EDF9"/>
<path opacity="0.2" fill-rule="evenodd" clip-rule="evenodd" d="M565.238 166.562C564.148 167.234 562.96 167.762 561.661 168.169C557.193 169.567 552.252 168.851 548.686 165.825C547.145 164.515 545.824 162.501 544.999 160.256C545.263 160.3 545.527 160.355 545.78 160.41C551.107 161.5 557.028 161.104 561.408 157.868C564.027 155.931 565.887 153.158 567.417 150.285C568.848 147.578 570.036 144.684 570.4 141.635C570.752 138.587 570.212 135.351 568.419 132.853C566.581 130.277 563.631 128.726 560.704 127.526C557.765 126.326 554.684 125.369 552.064 123.575C551.657 123.3 551.162 122.926 550.656 122.486C559.295 121.198 577.443 120.185 580.293 133.777C584.057 151.749 565.238 166.562 565.238 166.562Z" fill="#CBD6DE"/>
<path opacity="0.3" d="M561.661 168.17C560.34 168.588 558.987 168.808 557.633 168.852C557.49 168.962 557.358 169.072 557.215 169.183C556.048 170.085 554.838 170.932 553.583 171.736C552.075 172.693 550.479 173.596 548.741 174.036C547.321 174.399 546.143 174.223 544.867 173.981L544.922 175.841H565.403L565.227 166.574C564.159 167.235 562.971 167.763 561.661 168.17Z" fill="#E7EDF9"/>
<path d="M617.397 218.596L604.961 317.281H505.318L499.826 242.587C497.988 226.498 488.997 184.512 528.935 182.795L561.501 182.96L586.219 183.081C605.159 183.169 619.763 199.798 617.397 218.596Z" fill="#CBD6DE"/>
<path d="M498.351 270.209C501.103 273.709 504.261 277.132 507.64 280.434L504.922 283.779L494.675 296.358C482.735 287.983 471.168 277.803 464.884 263.903C448.948 226.727 484.639 199.015 514.705 185.809C515.619 185.424 518.799 184.51 519.746 184.158L520.065 184.037L520.494 183.883L531.995 222.028C523.125 223.855 506.187 229.5 496.612 237.919C492.496 241.529 489.734 245.656 489.558 250.202C489.536 257.674 493.729 264.046 498.351 270.209Z" fill="#CBD6DE"/>
<path d="M507.629 280.434C511.514 285.947 515.674 291.417 509.159 300.728L494.654 296.358L507.629 280.434Z" fill="#E6E6E6"/>
<path d="M506.671 288.225C505.791 287.576 504.932 287.202 504.085 287.026V287.015C501.708 286.564 498.858 286.509 495.721 286.696C490.625 287.015 487.39 292.352 489.448 297.03C490.592 299.627 491.77 301.806 493.025 303.336C493.124 303.468 493.234 303.589 493.355 303.71C493.399 303.765 493.454 303.831 493.498 303.875L493.509 303.864C493.795 304.15 494.092 304.436 494.466 304.7C498.714 307.848 504.899 306.714 508.278 302.158C511.635 297.624 510.919 291.373 506.671 288.225Z" fill="#E6E6E6"/>
<path d="M567.663 177.082H540.975V183.608H567.663V177.082Z" fill="#D2D6DD"/>
<path opacity="0.3" d="M567.663 177.082V183.608H560.125C558.573 182.618 557.032 181.561 555.392 180.725C552.927 179.459 550.242 178.678 547.523 178.128C546.148 177.841 544.75 177.621 543.363 177.434C542.736 177.346 541.9 177.379 541.305 177.159C541.25 177.137 541.195 177.115 541.151 177.093H567.663V177.082Z" fill="#D2D6DD"/>
<path opacity="0.3" d="M617.397 218.594L604.961 317.28H593.185C592.184 314.506 592.228 311.304 592.47 308.299C592.943 302.323 594.759 296.688 595.386 290.735C597.752 268.415 600.107 246.03 599.568 223.601C599.381 215.865 598.655 207.599 593.9 201.48C589.96 196.418 583.819 193.59 577.777 191.421C571.735 189.242 565.407 187.481 560.136 183.817C560.587 183.52 561.049 183.233 561.511 182.947L586.23 183.068C605.159 183.167 619.763 199.797 617.397 218.594Z" fill="#CBD6DE"/>
<path opacity="0.3" d="M507.629 280.434L504.91 283.78C501.95 279.873 498.373 276.483 494.995 272.928C491.594 269.352 488.336 265.533 486.223 261.065C484.11 256.596 483.252 251.369 484.792 246.681C485.651 244.039 487.313 241.684 489.426 239.89C490.713 238.801 493.74 236.346 495.578 237.051C496.029 237.216 496.359 237.524 496.601 237.92C492.485 241.53 489.723 245.657 489.547 250.202C489.536 257.675 493.729 264.047 498.351 270.21C501.092 273.71 504.25 277.133 507.629 280.434Z" fill="#CBD6DE"/>
<path d="M324.526 200.317L320.289 203.861C319.111 204.841 318.539 206.348 318.759 207.867L320.267 219.467C321.246 226.059 314.423 229.944 308.095 229.9H308.084C303.395 229.856 298.96 227.633 298.234 222.735L298.08 221.624L297.474 217.112L295.758 204.499C295.747 204.499 295.747 204.499 295.747 204.499L295.35 201.836L295.339 201.682L291.025 200.504L288.307 199.767C286.942 199.393 285.831 198.281 285.655 196.873C285.401 194.991 286.656 193.351 288.417 193.01L292.401 192.79C292.665 192.779 292.918 192.735 293.16 192.658C295.251 192.052 296.264 189.532 295.031 187.628C294.987 187.562 294.932 187.485 294.888 187.419L293.733 185.867C292.753 184.569 293.05 182.709 294.393 181.795L295.614 180.948L311.473 170.008L314.159 168.148C315.556 169.249 316.723 170.658 317.526 172.319C318.088 173.486 318.638 174.675 319.188 175.896L325.67 183.259C325.802 183.413 325.769 183.644 325.582 183.754L322.886 185.24C324.02 188.431 325.098 191.722 326.1 195.156C326.672 197.038 326.034 199.063 324.526 200.317Z" fill="#E4EAEE"/>
<path opacity="0.4" d="M295.196 184.976C295.361 185.736 295.669 186.583 295.295 187.288C295.229 187.409 295.141 187.519 295.042 187.618C294.998 187.552 294.943 187.475 294.899 187.409L293.743 185.857C292.764 184.558 293.061 182.698 294.404 181.785L295.625 180.938C295.086 182.181 294.877 183.535 295.196 184.976Z" fill="#FAFAFA"/>
<path opacity="0.4" d="M292.357 193.505C291.51 193.736 290.64 193.813 289.793 194.077C288.967 194.385 288.197 195.045 288.12 195.926C288.021 197.037 289.011 197.885 289.76 198.699C290.255 199.238 290.695 199.855 291.036 200.504L288.318 199.767C286.953 199.393 285.842 198.281 285.666 196.872C285.413 194.99 286.667 193.351 288.428 193.009L292.412 192.789C292.676 192.778 292.929 192.734 293.172 192.657C293.942 193.053 292.896 193.362 292.357 193.505Z" fill="#FAFAFA"/>
<path d="M293.744 185.857L294.899 187.408C296.517 189.554 295.086 192.625 292.412 192.779L288.428 192.999C286.667 193.34 285.412 194.98 285.666 196.862C285.842 198.26 286.953 199.382 288.318 199.756L292.434 200.879L295.361 201.682L295.372 201.836L296.385 208.649L275.42 216.055C274.88 216.243 274.308 215.912 274.198 215.362C274.154 215.109 274.11 214.867 274.077 214.625C272.657 205.765 274.022 196.862 279.569 191.315C277.092 181.256 282.276 170.856 291.818 166.817C297.045 164.594 302.108 163.637 306.939 164.737C309.426 165.298 311.848 166.399 314.192 168.16L303.803 175.324L294.415 181.796C293.061 182.698 292.753 184.558 293.744 185.857Z" fill="#C4D0D9"/>
<path opacity="0.4" d="M307.908 169.063C308.315 167.577 307.853 165.959 306.928 164.727C309.415 165.288 311.836 166.388 314.181 168.149L303.792 175.314C304.485 172.904 307.236 171.484 307.908 169.063Z" fill="#D2D6DD"/>
<path opacity="0.4" d="M296.374 208.648L275.409 216.055C274.869 216.242 274.297 215.912 274.187 215.362C274.143 215.109 274.099 214.867 274.066 214.624C274.979 214.107 275.97 213.711 276.927 213.315C280.438 211.862 283.883 210.123 286.832 207.713C289.187 205.787 290.607 203.553 292.302 201.088C292.357 201.011 292.401 200.945 292.445 200.89L295.372 201.693L295.383 201.847L296.374 208.648Z" fill="#D2D6DD"/>
<path d="M287.549 302.183L285.293 304.384L278.03 311.461L276.698 310.404C266.958 302.7 257.152 294.754 247.688 286.743L246.4 285.642L246.312 285.565C245.277 284.541 244.32 283.43 243.561 282.175C239.18 275.484 240.193 265.832 245.883 260.01C248.48 257.479 252.651 253.528 255.325 250.986C261.742 244.999 268.785 238.506 275.41 232.805C276.533 231.825 277.71 230.857 278.888 229.899L279.901 264.567L279.934 265.48C275.487 268.694 271.019 271.863 266.573 274.967C271.294 280.899 275.983 286.93 280.605 292.972L287.549 302.183Z" fill="#CBD6DE"/>
<path d="M341.124 242.544C336.666 239.374 338.394 231.946 335.247 226.113V225.386C334.763 224.924 334.278 224.451 333.794 223.989C333.299 223.405 332.716 222.844 332.055 222.327C332.044 222.327 332.044 222.316 332.044 222.316C329.557 220.379 325.837 218.926 320.103 218.376C322.48 231.428 299.776 233.145 298.081 221.634L297.795 219.73L292.59 221.017C290.169 221.623 287.978 222.712 286.096 224.154L286.085 224.143C283.719 226.025 281.254 227.951 278.866 229.91L279.911 265.501L280.583 292.982L287.549 302.182L278.041 311.471C278.69 311.878 279.79 311.482 281.023 310.646L281.199 317.722H342.169L344.37 268.924L344.877 267.504L347.056 261.396C349.499 254.485 347.1 246.781 341.124 242.544Z" fill="#CBD6DE"/>
<path d="M411.558 216.286C411.69 217.034 411.525 217.838 411.052 218.509L405.527 226.268L404.042 224.848L396.503 217.618L409.974 205.039C410.92 204.169 412.329 205.402 411.569 206.447L407.75 211.719L410.722 214.668C411.184 215.109 411.47 215.681 411.558 216.286Z" fill="#D9E0E6"/>
<path d="M313.995 228.48L318.386 233.268C319.135 234.082 320.455 233.884 320.929 232.883L327.323 219.434L319.938 218.113L313.995 228.48Z" fill="#E7EDF9"/>
<path d="M297.476 217.597L289.827 221.416L310.099 236.35C311.013 237.021 312.3 236.526 312.542 235.425L314.006 228.481L297.476 217.597Z" fill="#E7EDF9"/>
<path d="M405.528 226.257C394.038 240.96 382.163 255.333 370.156 269.596C366.436 274.516 359.448 276.387 353.736 273.988C352.03 273.349 350.456 272.172 349.092 270.994C348.266 270.312 346.032 268.463 345.174 267.758C345.064 267.67 344.954 267.571 344.844 267.483L347.023 261.375C349.488 254.475 347.089 246.771 341.124 242.534C336.667 239.364 338.394 231.936 335.236 226.092V225.366C336.634 226.697 338.031 228.04 339.407 229.394C346.351 236.14 353.142 243.051 359.855 250.018C365.226 245.131 370.607 240.267 376.033 235.436C382.79 229.427 389.581 223.451 396.492 217.596L404.031 224.826L405.528 226.257Z" fill="#CBD6DE"/>
<path d="M290.058 314.553C288.419 316.534 286.658 318.405 284.787 320.221C284.545 320.474 284.303 320.705 284.049 320.936C282.63 322.29 280.638 322.917 278.701 322.587C276.643 322.246 274.607 321.651 272.593 320.87C271.591 320.485 271.536 319.065 272.516 318.647C274.056 317.975 275.575 317.513 277.039 317.447C278.371 317.381 279.46 316.336 279.57 315.004C279.669 313.782 277.996 311.46 277.996 311.46L285.26 304.384L287.516 302.183C288.408 303.052 289.97 304.758 290.752 305.66C292.634 307.828 291.885 312.363 290.058 314.553Z" fill="#D9E0E6"/>
<path opacity="0.4" d="M290.059 314.553C288.419 316.534 286.658 318.405 284.787 320.221C284.391 319.45 284.49 318.449 284.82 317.624C285.205 316.655 285.865 315.819 286.328 314.894C287.45 312.66 287.384 309.986 286.658 307.587C286.317 306.475 285.843 305.407 285.282 304.373L287.538 302.172C288.43 303.041 289.992 304.747 290.774 305.65C292.634 307.829 291.885 312.363 290.059 314.553Z" fill="#D9E0E6"/>
<path opacity="0.4" d="M411.052 218.499L405.528 226.258L404.042 224.838C406.529 221.966 409.027 219.105 411.559 216.287C411.691 217.035 411.526 217.839 411.052 218.499Z" fill="#D9E0E6"/>
<path d="M394.457 311.045C394.457 313.125 385.883 314.82 375.307 314.82C364.731 314.82 356.158 313.125 356.158 311.045C356.158 310.22 357.511 309.45 359.801 308.822C363.278 307.887 368.924 307.271 375.307 307.271C382.571 307.271 388.888 308.063 392.134 309.24C393.609 309.769 394.457 310.385 394.457 311.045Z" fill="#E7EDF9"/>
<path opacity="0.5" d="M392.134 309.24C392.134 309.251 392.123 309.274 392.123 309.285C391.892 309.868 391.353 310.264 390.813 310.583C387.655 312.465 383.869 312.927 380.193 313.07C375.131 313.257 370.057 312.905 365.061 312.036C363.751 311.805 362.441 311.53 361.22 311.023C360.394 310.671 359.492 309.967 359.701 309.097C359.723 308.998 359.756 308.91 359.8 308.822C363.278 307.887 368.924 307.271 375.307 307.271C382.57 307.271 388.887 308.063 392.134 309.24Z" fill="#D9E0E6"/>
<path d="M388.338 307.875C388.338 309.031 387.534 310.054 386.401 310.285C381.976 311.177 377.552 311.496 373.139 311.254C370.619 311.111 368.11 310.791 365.6 310.285C364.478 310.054 363.674 309.031 363.674 307.875L364.401 282.827C364.412 282.386 364.775 282.034 365.226 282.034H386.786C387.226 282.034 387.589 282.386 387.611 282.827L388.338 307.875Z" fill="#D9E0E6"/>
<path d="M367.867 305.851H357.401C353.813 305.851 350.897 302.934 350.897 299.347V292.831C350.897 289.244 353.813 286.327 357.401 286.327H368.451V289.563H357.401C355.596 289.563 354.133 291.026 354.133 292.831V299.347C354.133 301.151 355.596 302.615 357.401 302.615H367.867V305.851Z" fill="#D9E0E6"/>
<path opacity="0.3" d="M388.338 307.876C388.338 309.032 387.534 310.055 386.401 310.286C381.976 311.178 377.552 311.497 373.139 311.255C374.922 310.22 376.76 309.274 378.312 307.942C380.149 306.368 381.602 304.079 381.415 301.658C381.338 300.711 381.019 299.787 380.865 298.84C380.59 297.256 380.799 295.627 381.162 294.064C381.492 292.611 381.954 291.104 381.646 289.64C381.382 288.363 380.535 287.263 379.544 286.404C377.42 284.599 374.647 283.785 372.182 282.486C371.917 282.343 371.653 282.2 371.389 282.035H386.786C387.226 282.035 387.589 282.387 387.611 282.828L388.338 307.876Z" fill="#D9E0E6"/>
<path d="M304.156 357.058C304.156 360.594 306.652 362.962 310.14 362.962C313.676 362.898 316.172 360.53 316.172 356.994C316.172 353.362 313.676 350.994 310.14 351.058C306.652 351.058 304.156 353.426 304.156 357.058ZM306.268 356.93C306.268 354.674 307.82 352.882 310.156 352.882C312.508 352.882 314.06 354.674 314.06 356.93C314.06 359.346 312.508 361.138 310.156 361.138C307.82 361.138 306.268 359.346 306.268 356.93ZM317.532 358.834C317.532 361.25 319.388 362.866 321.708 362.866C324.028 362.866 325.884 361.25 325.884 358.834C325.884 356.418 324.028 354.802 321.708 354.802C319.388 354.802 317.532 356.418 317.532 358.834ZM319.452 358.834C319.452 357.634 320.3 356.53 321.708 356.53C323.116 356.53 323.964 357.634 323.964 358.834C323.964 360.034 323.116 361.138 321.708 361.138C320.3 361.138 319.452 360.034 319.452 358.834ZM327.682 366.322H329.602V361.698H329.65C330.05 362.194 330.818 362.866 332.258 362.866C334.45 362.866 335.97 361.106 335.97 358.834C335.97 356.562 334.546 354.802 332.178 354.802C331.106 354.802 330.098 355.218 329.538 356.146H329.506V354.994H327.682V366.322ZM334.05 358.834C334.05 360.034 333.202 361.138 331.794 361.138C330.386 361.138 329.538 360.034 329.538 358.834C329.538 357.634 330.386 356.53 331.794 356.53C333.202 356.53 334.05 357.634 334.05 358.834ZM343.136 355.97C342.512 355.122 341.424 354.802 340.4 354.802C338.848 354.802 337.312 355.57 337.312 357.282C337.312 360.21 341.456 358.962 341.456 360.546C341.456 361.154 340.736 361.426 340.176 361.426C339.36 361.426 338.848 361.026 338.352 360.482L337.072 361.682C337.856 362.562 338.88 362.866 340.064 362.866C341.632 362.866 343.376 362.226 343.376 360.402C343.376 357.41 339.232 358.53 339.232 357.154C339.232 356.578 339.84 356.338 340.352 356.338C341.008 356.338 341.488 356.61 341.856 357.122L343.136 355.97ZM347.109 351.346H345.189V359.122H347.109V351.346ZM344.869 361.554C344.869 362.242 345.477 362.77 346.149 362.77C346.853 362.77 347.429 362.21 347.429 361.522C347.429 360.834 346.837 360.306 346.149 360.306C345.445 360.306 344.869 360.866 344.869 361.554ZM354.37 362.674H356.29V350.578H354.37V362.674ZM358.11 358.834C358.11 361.25 359.966 362.866 362.286 362.866C364.606 362.866 366.462 361.25 366.462 358.834C366.462 356.418 364.606 354.802 362.286 354.802C359.966 354.802 358.11 356.418 358.11 358.834ZM360.03 358.834C360.03 357.634 360.878 356.53 362.286 356.53C363.694 356.53 364.542 357.634 364.542 358.834C364.542 360.034 363.694 361.138 362.286 361.138C360.878 361.138 360.03 360.034 360.03 358.834ZM367.876 358.834C367.876 361.25 369.732 362.866 372.052 362.866C374.372 362.866 376.228 361.25 376.228 358.834C376.228 356.418 374.372 354.802 372.052 354.802C369.732 354.802 367.876 356.418 367.876 358.834ZM369.796 358.834C369.796 357.634 370.644 356.53 372.052 356.53C373.46 356.53 374.308 357.634 374.308 358.834C374.308 360.034 373.46 361.138 372.052 361.138C370.644 361.138 369.796 360.034 369.796 358.834ZM378.026 362.674H379.946V358.754H379.978L383.034 362.674H385.578L382.074 358.482L385.37 354.994H382.906L379.946 358.178V350.578H378.026V362.674ZM391.995 355.97C391.371 355.122 390.283 354.802 389.259 354.802C387.707 354.802 386.171 355.57 386.171 357.282C386.171 360.21 390.315 358.962 390.315 360.546C390.315 361.154 389.595 361.426 389.035 361.426C388.219 361.426 387.707 361.026 387.211 360.482L385.931 361.682C386.715 362.562 387.739 362.866 388.923 362.866C390.491 362.866 392.235 362.226 392.235 360.402C392.235 357.41 388.091 358.53 388.091 357.154C388.091 356.578 388.699 356.338 389.211 356.338C389.867 356.338 390.347 356.61 390.715 357.122L391.995 355.97ZM398.495 362.674H400.415V350.578H398.495V362.674ZM402.651 362.674H404.571V354.994H402.651V362.674ZM402.379 352.386C402.379 352.994 402.891 353.538 403.595 353.538C404.299 353.538 404.843 353.042 404.843 352.386C404.843 351.73 404.299 351.234 403.595 351.234C402.891 351.234 402.379 351.778 402.379 352.386ZM406.776 362.674H408.696V358.754H408.728L411.784 362.674H414.328L410.824 358.482L414.12 354.994H411.656L408.696 358.178V350.578H406.776V362.674ZM422.761 359.506V358.978C422.761 356.306 421.305 354.802 419.161 354.802C416.841 354.802 414.985 356.418 414.985 358.834C414.985 361.25 416.841 362.866 419.161 362.866C420.377 362.866 421.513 362.434 422.409 361.33L421.033 360.29C420.553 360.882 419.929 361.33 418.969 361.33C417.897 361.33 417.033 360.642 416.905 359.506H422.761ZM416.905 358.066C417.049 356.962 417.753 356.242 418.889 356.242C420.089 356.242 420.825 356.946 420.841 358.066H416.905ZM429.979 356.626V360.146C429.979 361.954 430.459 362.866 432.491 362.866C432.939 362.866 433.611 362.802 434.011 362.61V360.994C433.771 361.17 433.307 361.234 432.971 361.234C432.123 361.234 431.899 360.754 431.899 359.986V356.626H434.011V354.994H431.899V352.77H429.979V354.994H428.395V356.626H429.979ZM437.43 350.578H435.51V362.674H437.43V358.482C437.43 357.458 437.926 356.53 439.19 356.53C440.534 356.53 440.598 357.938 440.598 358.786V362.674H442.518V357.826C442.518 356.258 441.782 354.802 439.718 354.802C438.534 354.802 437.766 355.426 437.462 356.066H437.43V350.578ZM452.089 359.506V358.978C452.089 356.306 450.633 354.802 448.489 354.802C446.169 354.802 444.313 356.418 444.313 358.834C444.313 361.25 446.169 362.866 448.489 362.866C449.705 362.866 450.841 362.434 451.737 361.33L450.361 360.29C449.881 360.882 449.257 361.33 448.297 361.33C447.225 361.33 446.361 360.642 446.233 359.506H452.089ZM446.233 358.066C446.377 356.962 447.081 356.242 448.217 356.242C449.417 356.242 450.153 356.946 450.169 358.066H446.233ZM453.885 362.674H455.805V358.562C455.805 358.146 456.061 356.626 457.869 356.626C458.173 356.626 458.477 356.69 458.797 356.77V354.914C458.573 354.85 458.349 354.802 458.109 354.802C457.101 354.802 456.253 355.33 455.837 356.21H455.805V354.994H453.885V362.674ZM467.214 359.506V358.978C467.214 356.306 465.758 354.802 463.614 354.802C461.294 354.802 459.438 356.418 459.438 358.834C459.438 361.25 461.294 362.866 463.614 362.866C464.83 362.866 465.966 362.434 466.862 361.33L465.486 360.29C465.006 360.882 464.382 361.33 463.422 361.33C462.35 361.33 461.486 360.642 461.358 359.506H467.214ZM461.358 358.066C461.502 356.962 462.206 356.242 463.342 356.242C464.542 356.242 465.278 356.946 465.294 358.066H461.358ZM473.776 362.674H475.696V354.994H473.776V362.674ZM473.504 352.386C473.504 352.994 474.016 353.538 474.72 353.538C475.424 353.538 475.968 353.042 475.968 352.386C475.968 351.73 475.424 351.234 474.72 351.234C474.016 351.234 473.504 351.778 473.504 352.386ZM483.277 355.97C482.653 355.122 481.565 354.802 480.541 354.802C478.989 354.802 477.453 355.57 477.453 357.282C477.453 360.21 481.597 358.962 481.597 360.546C481.597 361.154 480.877 361.426 480.317 361.426C479.501 361.426 478.989 361.026 478.493 360.482L477.213 361.682C477.997 362.562 479.021 362.866 480.205 362.866C481.773 362.866 483.517 362.226 483.517 360.402C483.517 357.41 479.373 358.53 479.373 357.154C479.373 356.578 479.981 356.338 480.493 356.338C481.149 356.338 481.629 356.61 481.997 357.122L483.277 355.97ZM489.744 362.674H491.664V358.482C491.664 357.458 492.16 356.53 493.424 356.53C494.768 356.53 494.832 357.938 494.832 358.786V362.674H496.752V357.826C496.752 356.258 496.016 354.802 493.952 354.802C492.672 354.802 491.952 355.458 491.6 356.226H491.568V354.994H489.744V362.674ZM498.548 358.834C498.548 361.25 500.404 362.866 502.724 362.866C505.044 362.866 506.9 361.25 506.9 358.834C506.9 356.418 505.044 354.802 502.724 354.802C500.404 354.802 498.548 356.418 498.548 358.834ZM500.468 358.834C500.468 357.634 501.316 356.53 502.724 356.53C504.132 356.53 504.98 357.634 504.98 358.834C504.98 360.034 504.132 361.138 502.724 361.138C501.316 361.138 500.468 360.034 500.468 358.834ZM519.512 362.674H521.336V350.578H519.416V355.97H519.368C518.968 355.474 518.2 354.802 516.76 354.802C514.568 354.802 513.048 356.562 513.048 358.834C513.048 361.106 514.472 362.866 516.84 362.866C517.912 362.866 518.92 362.45 519.48 361.522H519.512V362.674ZM514.968 358.834C514.968 357.634 515.816 356.53 517.224 356.53C518.632 356.53 519.48 357.634 519.48 358.834C519.48 360.034 518.632 361.138 517.224 361.138C515.816 361.138 514.968 360.034 514.968 358.834ZM528.31 362.674H530.038V358.258C530.038 357.17 530.038 354.802 526.758 354.802C525.542 354.802 524.342 355.17 523.494 356.034L524.502 357.042C525.014 356.562 525.75 356.242 526.55 356.242C527.574 356.242 528.31 356.738 528.31 357.682V357.89H527.83C525.91 357.89 522.998 358.066 522.998 360.562C522.998 362.082 524.374 362.866 525.798 362.866C526.822 362.866 527.718 362.482 528.262 361.618H528.31V362.674ZM528.198 359.666C528.198 360.738 527.574 361.426 526.262 361.426C525.638 361.426 524.918 361.122 524.918 360.418C524.918 359.314 526.742 359.234 527.798 359.234H528.198V359.666ZM537.48 355.97C536.856 355.122 535.768 354.802 534.744 354.802C533.192 354.802 531.656 355.57 531.656 357.282C531.656 360.21 535.8 358.962 535.8 360.546C535.8 361.154 535.08 361.426 534.52 361.426C533.704 361.426 533.192 361.026 532.696 360.482L531.416 361.682C532.2 362.562 533.224 362.866 534.408 362.866C535.976 362.866 537.72 362.226 537.72 360.402C537.72 357.41 533.576 358.53 533.576 357.154C533.576 356.578 534.184 356.338 534.696 356.338C535.352 356.338 535.832 356.61 536.2 357.122L537.48 355.97ZM541.133 350.578H539.213V362.674H541.133V358.482C541.133 357.458 541.629 356.53 542.893 356.53C544.237 356.53 544.301 357.938 544.301 358.786V362.674H546.221V357.826C546.221 356.258 545.485 354.802 543.421 354.802C542.237 354.802 541.469 355.426 541.165 356.066H541.133V350.578ZM548.401 362.674H550.225V361.522H550.257C550.817 362.45 551.825 362.866 552.897 362.866C555.265 362.866 556.689 361.106 556.689 358.834C556.689 356.562 555.169 354.802 552.977 354.802C551.536 354.802 550.769 355.474 550.369 355.97H550.321V350.578H548.401V362.674ZM554.769 358.834C554.769 360.034 553.921 361.138 552.513 361.138C551.105 361.138 550.257 360.034 550.257 358.834C550.257 357.634 551.105 356.53 552.513 356.53C553.921 356.53 554.769 357.634 554.769 358.834ZM558.095 358.834C558.095 361.25 559.951 362.866 562.271 362.866C564.591 362.866 566.447 361.25 566.447 358.834C566.447 356.418 564.591 354.802 562.271 354.802C559.951 354.802 558.095 356.418 558.095 358.834ZM560.015 358.834C560.015 357.634 560.863 356.53 562.271 356.53C563.679 356.53 564.527 357.634 564.527 358.834C564.527 360.034 563.679 361.138 562.271 361.138C560.863 361.138 560.015 360.034 560.015 358.834ZM573.044 362.674H574.772V358.258C574.772 357.17 574.772 354.802 571.492 354.802C570.276 354.802 569.076 355.17 568.228 356.034L569.236 357.042C569.748 356.562 570.484 356.242 571.284 356.242C572.308 356.242 573.044 356.738 573.044 357.682V357.89H572.564C570.644 357.89 567.732 358.066 567.732 360.562C567.732 362.082 569.108 362.866 570.532 362.866C571.556 362.866 572.452 362.482 572.996 361.618H573.044V362.674ZM572.932 359.666C572.932 360.738 572.308 361.426 570.996 361.426C570.372 361.426 569.652 361.122 569.652 360.418C569.652 359.314 571.476 359.234 572.532 359.234H572.932V359.666ZM576.838 362.674H578.758V358.562C578.758 358.146 579.014 356.626 580.822 356.626C581.126 356.626 581.43 356.69 581.75 356.77V354.914C581.526 354.85 581.302 354.802 581.062 354.802C580.054 354.802 579.206 355.33 578.79 356.21H578.758V354.994H576.838V362.674ZM588.856 362.674H590.68V350.578H588.76V355.97H588.712C588.312 355.474 587.544 354.802 586.104 354.802C583.912 354.802 582.392 356.562 582.392 358.834C582.392 361.106 583.816 362.866 586.184 362.866C587.256 362.866 588.264 362.45 588.824 361.522H588.856V362.674ZM584.312 358.834C584.312 357.634 585.16 356.53 586.568 356.53C587.976 356.53 588.824 357.634 588.824 358.834C588.824 360.034 587.976 361.138 586.568 361.138C585.16 361.138 584.312 360.034 584.312 358.834ZM592.854 361.554C592.854 362.242 593.462 362.77 594.134 362.77C594.838 362.77 595.414 362.21 595.414 361.522C595.414 360.834 594.822 360.306 594.134 360.306C593.43 360.306 592.854 360.866 592.854 361.554Z" fill="#333333"/>
<path d="M332.408 386.674H333.88L336.696 377.074H336.728L339.528 386.674H340.984L344.312 375.346H342.904L340.28 384.754H340.248L337.48 375.346H335.976L333.192 384.754H333.16L330.584 375.346H329.096L332.408 386.674ZM345.685 380.962C346.277 380.418 347.109 380.146 347.909 380.146C349.077 380.146 349.765 380.706 349.765 381.794V382.018H349.285C347.445 382.018 344.565 382.162 344.565 384.642C344.565 386.098 345.829 386.866 347.349 386.866C348.485 386.866 349.317 386.322 349.813 385.554H349.845C349.845 385.874 349.845 386.338 349.925 386.674H351.125C351.061 386.29 351.013 385.81 351.013 385.378V382.162C351.013 380.05 350.085 378.994 347.877 378.994C346.789 378.994 345.669 379.362 344.901 380.146L345.685 380.962ZM349.765 383.074V383.554C349.733 384.77 348.997 385.81 347.557 385.81C346.613 385.81 345.909 385.458 345.909 384.514C345.909 383.506 346.933 383.074 348.516 383.074H349.765ZM353.293 386.674H354.541V383.026C354.541 381.314 355.245 380.146 356.861 380.146C358.029 380.146 358.573 380.93 358.573 382.178V386.674H359.821V382.05C359.821 380.242 358.941 378.994 356.973 378.994C355.741 378.994 354.813 379.682 354.477 380.418H354.445C354.445 380.002 354.413 379.586 354.413 379.186H353.229C353.229 379.682 353.293 380.274 353.293 380.962V386.674ZM366.28 379.186H364.072V377.058H362.824V379.186H361.192V380.242H362.824V384.354C362.824 385.906 363.112 386.866 364.888 386.866C365.352 386.866 365.912 386.786 366.344 386.594L366.296 385.458C365.96 385.634 365.56 385.714 365.192 385.714C364.088 385.714 364.072 384.946 364.072 383.986V380.242H366.28V379.186ZM376.358 379.186H374.15V377.058H372.902V379.186H371.27V380.242H372.902V384.354C372.902 385.906 373.19 386.866 374.966 386.866C375.43 386.866 375.99 386.786 376.422 386.594L376.374 385.458C376.038 385.634 375.638 385.714 375.27 385.714C374.166 385.714 374.15 384.946 374.15 383.986V380.242H376.358V379.186ZM377.455 382.93C377.455 385.266 379.151 386.866 381.455 386.866C383.759 386.866 385.455 385.266 385.455 382.93C385.455 380.594 383.759 378.994 381.455 378.994C379.151 378.994 377.455 380.594 377.455 382.93ZM378.799 382.93C378.799 381.362 379.839 380.146 381.455 380.146C383.071 380.146 384.111 381.362 384.111 382.93C384.111 384.498 383.071 385.714 381.455 385.714C379.839 385.714 378.799 384.498 378.799 382.93ZM398.16 380.178C397.408 379.362 396.384 378.994 395.28 378.994C392.976 378.994 391.408 380.658 391.408 382.93C391.408 385.234 392.96 386.866 395.28 386.866C396.368 386.866 397.392 386.498 398.112 385.666L397.184 384.786C396.72 385.426 396.096 385.714 395.28 385.714C393.76 385.714 392.752 384.466 392.752 382.93C392.752 381.394 393.6 380.146 395.28 380.146C396.032 380.146 396.64 380.418 397.168 381.058L398.16 380.178ZM399.559 386.674H400.807V383.026C400.807 381.314 401.479 380.242 402.999 380.242C403.223 380.242 403.463 380.274 403.671 380.338L403.751 379.074C403.575 379.01 403.399 378.994 403.239 378.994C402.007 378.994 401.079 379.682 400.743 380.418H400.711C400.711 380.002 400.679 379.586 400.679 379.186H399.495C399.495 379.682 399.559 380.274 399.559 380.962V386.674ZM410.647 384.578C410.055 385.33 409.335 385.714 408.263 385.714C406.903 385.714 405.911 384.61 405.815 383.314H411.863V382.914C411.863 380.434 410.423 378.994 408.311 378.994C406.103 378.994 404.471 380.61 404.471 382.93C404.471 385.106 405.911 386.866 408.263 386.866C409.655 386.866 410.711 386.45 411.591 385.314L410.647 384.578ZM405.815 382.258C405.975 380.994 406.887 380.146 408.263 380.146C409.639 380.146 410.471 380.994 410.519 382.258H405.815ZM414.481 380.962C415.073 380.418 415.905 380.146 416.705 380.146C417.873 380.146 418.561 380.706 418.561 381.794V382.018H418.081C416.241 382.018 413.361 382.162 413.361 384.642C413.361 386.098 414.625 386.866 416.145 386.866C417.281 386.866 418.113 386.322 418.609 385.554H418.641C418.641 385.874 418.641 386.338 418.721 386.674H419.921C419.857 386.29 419.809 385.81 419.809 385.378V382.162C419.809 380.05 418.881 378.994 416.673 378.994C415.585 378.994 414.465 379.362 413.697 380.146L414.481 380.962ZM418.561 383.074V383.554C418.529 384.77 417.793 385.81 416.353 385.81C415.409 385.81 414.705 385.458 414.705 384.514C414.705 383.506 415.729 383.074 417.313 383.074H418.561ZM426.186 379.186H423.978V377.058H422.73V379.186H421.098V380.242H422.73V384.354C422.73 385.906 423.018 386.866 424.794 386.866C425.258 386.866 425.818 386.786 426.25 386.594L426.202 385.458C425.866 385.634 425.466 385.714 425.098 385.714C423.994 385.714 423.978 384.946 423.978 383.986V380.242H426.186V379.186ZM433.459 384.578C432.867 385.33 432.147 385.714 431.075 385.714C429.715 385.714 428.723 384.61 428.627 383.314H434.675V382.914C434.675 380.434 433.235 378.994 431.123 378.994C428.915 378.994 427.283 380.61 427.283 382.93C427.283 385.106 428.723 386.866 431.075 386.866C432.467 386.866 433.523 386.45 434.403 385.314L433.459 384.578ZM428.627 382.258C428.787 380.994 429.699 380.146 431.075 380.146C432.451 380.146 433.283 380.994 433.331 382.258H428.627ZM441.747 380.962C442.339 380.418 443.171 380.146 443.971 380.146C445.139 380.146 445.827 380.706 445.827 381.794V382.018H445.347C443.507 382.018 440.627 382.162 440.627 384.642C440.627 386.098 441.891 386.866 443.411 386.866C444.547 386.866 445.379 386.322 445.875 385.554H445.907C445.907 385.874 445.907 386.338 445.987 386.674H447.187C447.123 386.29 447.075 385.81 447.075 385.378V382.162C447.075 380.05 446.147 378.994 443.939 378.994C442.851 378.994 441.731 379.362 440.963 380.146L441.747 380.962ZM445.827 383.074V383.554C445.795 384.77 445.059 385.81 443.619 385.81C442.675 385.81 441.971 385.458 441.971 384.514C441.971 383.506 442.995 383.074 444.579 383.074H445.827ZM453.809 386.674H455.057V383.026C455.057 381.314 455.761 380.146 457.377 380.146C458.545 380.146 459.089 380.93 459.089 382.178V386.674H460.337V382.05C460.337 380.242 459.457 378.994 457.489 378.994C456.257 378.994 455.329 379.682 454.993 380.418H454.961C454.961 380.002 454.929 379.586 454.929 379.186H453.745C453.745 379.682 453.809 380.274 453.809 380.962V386.674ZM468.444 384.578C467.852 385.33 467.132 385.714 466.06 385.714C464.7 385.714 463.708 384.61 463.612 383.314H469.66V382.914C469.66 380.434 468.22 378.994 466.108 378.994C463.9 378.994 462.268 380.61 462.268 382.93C462.268 385.106 463.708 386.866 466.06 386.866C467.452 386.866 468.508 386.45 469.388 385.314L468.444 384.578ZM463.612 382.258C463.772 380.994 464.684 380.146 466.06 380.146C467.436 380.146 468.268 380.994 468.316 382.258H463.612ZM482.038 379.186H480.694L478.998 384.946H478.966L476.998 379.186H475.686L473.75 384.946H473.718L472.006 379.186H470.63L473.062 386.674H474.342L476.23 380.914H476.262L478.39 386.674H479.622L482.038 379.186ZM494.127 386.674H495.375V374.578H494.127V380.274H494.095C493.407 379.474 492.495 378.994 491.407 378.994C489.055 378.994 487.471 380.658 487.471 382.93C487.471 385.17 489.119 386.866 491.215 386.866C492.559 386.866 493.631 386.194 494.095 385.346H494.127V386.674ZM494.127 382.93C494.127 384.498 493.087 385.714 491.471 385.714C489.855 385.714 488.815 384.498 488.815 382.93C488.815 381.362 489.855 380.146 491.471 380.146C493.087 380.146 494.127 381.362 494.127 382.93ZM498.372 380.962C498.964 380.418 499.796 380.146 500.596 380.146C501.764 380.146 502.452 380.706 502.452 381.794V382.018H501.972C500.132 382.018 497.252 382.162 497.252 384.642C497.252 386.098 498.516 386.866 500.036 386.866C501.172 386.866 502.004 386.322 502.5 385.554H502.532C502.532 385.874 502.532 386.338 502.612 386.674H503.812C503.748 386.29 503.7 385.81 503.7 385.378V382.162C503.7 380.05 502.772 378.994 500.564 378.994C499.476 378.994 498.356 379.362 497.588 380.146L498.372 380.962ZM502.452 383.074V383.554C502.42 384.77 501.684 385.81 500.244 385.81C499.3 385.81 498.596 385.458 498.596 384.514C498.596 383.506 499.62 383.074 501.204 383.074H502.452ZM505.149 385.474C505.885 386.53 506.797 386.866 508.061 386.866C509.549 386.866 511.053 386.21 511.053 384.514C511.053 383.01 509.933 382.53 508.605 382.274C507.613 382.082 506.717 381.81 506.717 381.186C506.717 380.482 507.501 380.146 508.189 380.146C508.925 380.146 509.453 380.514 509.773 381.042L510.813 380.354C510.301 379.394 509.325 378.994 508.269 378.994C506.877 378.994 505.469 379.746 505.469 381.202C505.469 382.754 506.685 383.058 508.109 383.378C508.909 383.554 509.709 383.762 509.709 384.562C509.709 385.378 508.845 385.714 508.061 385.714C507.181 385.714 506.637 385.314 506.141 384.706L505.149 385.474ZM512.793 386.674H514.041V383.026C514.041 381.314 514.745 380.146 516.361 380.146C517.529 380.146 518.073 380.93 518.073 382.178V386.674H519.321V382.05C519.321 380.242 518.441 378.994 516.473 378.994C515.305 378.994 514.409 379.634 514.073 380.226H514.041V374.578H512.793V386.674ZM521.62 386.674H522.868V385.346H522.9C523.364 386.194 524.436 386.866 525.78 386.866C527.876 386.866 529.524 385.17 529.524 382.93C529.524 380.658 527.94 378.994 525.588 378.994C524.5 378.994 523.588 379.474 522.9 380.274H522.868V374.578H521.62V386.674ZM522.868 382.93C522.868 381.362 523.908 380.146 525.524 380.146C527.14 380.146 528.18 381.362 528.18 382.93C528.18 384.498 527.14 385.714 525.524 385.714C523.908 385.714 522.868 384.498 522.868 382.93ZM531.033 382.93C531.033 385.266 532.729 386.866 535.033 386.866C537.337 386.866 539.033 385.266 539.033 382.93C539.033 380.594 537.337 378.994 535.033 378.994C532.729 378.994 531.033 380.594 531.033 382.93ZM532.377 382.93C532.377 381.362 533.417 380.146 535.033 380.146C536.649 380.146 537.689 381.362 537.689 382.93C537.689 384.498 536.649 385.714 535.033 385.714C533.417 385.714 532.377 384.498 532.377 382.93ZM541.653 380.962C542.245 380.418 543.077 380.146 543.877 380.146C545.045 380.146 545.733 380.706 545.733 381.794V382.018H545.253C543.413 382.018 540.533 382.162 540.533 384.642C540.533 386.098 541.797 386.866 543.317 386.866C544.453 386.866 545.285 386.322 545.781 385.554H545.813C545.813 385.874 545.813 386.338 545.893 386.674H547.093C547.029 386.29 546.981 385.81 546.981 385.378V382.162C546.981 380.05 546.053 378.994 543.845 378.994C542.757 378.994 541.637 379.362 540.869 380.146L541.653 380.962ZM545.733 383.074V383.554C545.701 384.77 544.965 385.81 543.525 385.81C542.581 385.81 541.877 385.458 541.877 384.514C541.877 383.506 542.901 383.074 544.485 383.074H545.733ZM549.262 386.674H550.51V383.026C550.51 381.314 551.182 380.242 552.702 380.242C552.926 380.242 553.166 380.274 553.374 380.338L553.454 379.074C553.278 379.01 553.102 378.994 552.942 378.994C551.71 378.994 550.782 379.682 550.446 380.418H550.414C550.414 380.002 550.382 379.586 550.382 379.186H549.198C549.198 379.682 549.262 380.274 549.262 380.962V386.674ZM560.83 386.674H562.078V374.578H560.83V380.274H560.798C560.11 379.474 559.198 378.994 558.11 378.994C555.758 378.994 554.174 380.658 554.174 382.93C554.174 385.17 555.822 386.866 557.918 386.866C559.262 386.866 560.334 386.194 560.798 385.346H560.83V386.674ZM560.83 382.93C560.83 384.498 559.79 385.714 558.174 385.714C556.558 385.714 555.518 384.498 555.518 382.93C555.518 381.362 556.558 380.146 558.174 380.146C559.79 380.146 560.83 381.362 560.83 382.93ZM566.227 383.506H567.571V382.77C567.571 381.858 567.667 381.634 568.339 380.994C569.299 380.098 570.163 379.314 570.163 377.906C570.163 376.066 568.787 375.058 567.043 375.058C565.299 375.058 563.923 376.05 563.635 377.794L565.075 377.954C565.235 376.914 565.955 376.21 567.027 376.21C568.083 376.21 568.723 376.93 568.723 377.954C568.723 378.962 567.987 379.57 567.331 380.242C566.499 381.074 566.227 381.314 566.227 382.498V383.506ZM566.899 384.85C566.371 384.85 565.939 385.282 565.939 385.81C565.939 386.338 566.403 386.77 566.899 386.77C567.395 386.77 567.859 386.338 567.859 385.81C567.859 385.282 567.427 384.85 566.899 384.85Z" fill="#333333"/>
<rect x="371.5" y="419.174" width="157" height="35" rx="3.5" fill="#6C3078"/>
<path d="M400.282 432.078C399.302 430.944 398.154 430.51 396.81 430.51C393.758 430.51 391.574 432.582 391.574 435.76C391.574 438.854 393.758 440.926 396.81 440.926C398.266 440.926 399.61 440.394 400.506 439.162L399.05 438.126C398.392 438.966 397.622 439.33 396.824 439.33C394.78 439.33 393.422 437.762 393.422 435.648C393.422 433.674 394.78 432.106 396.824 432.106C397.51 432.106 398.182 432.316 398.91 433.086L400.282 432.078ZM401.536 440.674H403.216V437.076C403.216 436.712 403.44 435.382 405.022 435.382C405.288 435.382 405.554 435.438 405.834 435.508V433.884C405.638 433.828 405.442 433.786 405.232 433.786C404.35 433.786 403.608 434.248 403.244 435.018H403.216V433.954H401.536V440.674ZM413.199 437.902V437.44C413.199 435.102 411.925 433.786 410.049 433.786C408.019 433.786 406.395 435.2 406.395 437.314C406.395 439.428 408.019 440.842 410.049 440.842C411.113 440.842 412.107 440.464 412.891 439.498L411.687 438.588C411.267 439.106 410.721 439.498 409.881 439.498C408.943 439.498 408.187 438.896 408.075 437.902H413.199ZM408.075 436.642C408.201 435.676 408.817 435.046 409.811 435.046C410.861 435.046 411.505 435.662 411.519 436.642H408.075ZM418.97 440.674H420.482V436.81C420.482 435.858 420.482 433.786 417.612 433.786C416.548 433.786 415.498 434.108 414.756 434.864L415.638 435.746C416.086 435.326 416.73 435.046 417.43 435.046C418.326 435.046 418.97 435.48 418.97 436.306V436.488H418.55C416.87 436.488 414.322 436.642 414.322 438.826C414.322 440.156 415.526 440.842 416.772 440.842C417.668 440.842 418.452 440.506 418.928 439.75H418.97V440.674ZM418.872 438.042C418.872 438.98 418.326 439.582 417.178 439.582C416.632 439.582 416.002 439.316 416.002 438.7C416.002 437.734 417.598 437.664 418.522 437.664H418.872V438.042ZM422.892 435.382V438.462C422.892 440.044 423.312 440.842 425.09 440.842C425.482 440.842 426.07 440.786 426.42 440.618V439.204C426.21 439.358 425.804 439.414 425.51 439.414C424.768 439.414 424.572 438.994 424.572 438.322V435.382H426.42V433.954H424.572V432.008H422.892V433.954H421.506V435.382H422.892ZM434.199 437.902V437.44C434.199 435.102 432.925 433.786 431.049 433.786C429.019 433.786 427.395 435.2 427.395 437.314C427.395 439.428 429.019 440.842 431.049 440.842C432.113 440.842 433.107 440.464 433.891 439.498L432.687 438.588C432.267 439.106 431.721 439.498 430.881 439.498C429.943 439.498 429.187 438.896 429.075 437.902H434.199ZM429.075 436.642C429.201 435.676 429.817 435.046 430.811 435.046C431.861 435.046 432.505 435.662 432.519 436.642H429.075ZM445.233 440.674H446.829V430.09H445.149V434.808H445.107C444.757 434.374 444.085 433.786 442.825 433.786C440.907 433.786 439.577 435.326 439.577 437.314C439.577 439.302 440.823 440.842 442.895 440.842C443.833 440.842 444.715 440.478 445.205 439.666H445.233V440.674ZM441.257 437.314C441.257 436.264 441.999 435.298 443.231 435.298C444.463 435.298 445.205 436.264 445.205 437.314C445.205 438.364 444.463 439.33 443.231 439.33C441.999 439.33 441.257 438.364 441.257 437.314ZM452.931 440.674H454.443V436.81C454.443 435.858 454.443 433.786 451.573 433.786C450.509 433.786 449.459 434.108 448.717 434.864L449.599 435.746C450.047 435.326 450.691 435.046 451.391 435.046C452.287 435.046 452.931 435.48 452.931 436.306V436.488H452.511C450.831 436.488 448.283 436.642 448.283 438.826C448.283 440.156 449.487 440.842 450.733 440.842C451.629 440.842 452.413 440.506 452.889 439.75H452.931V440.674ZM452.833 438.042C452.833 438.98 452.287 439.582 451.139 439.582C450.593 439.582 449.963 439.316 449.963 438.7C449.963 437.734 451.559 437.664 452.483 437.664H452.833V438.042ZM460.955 434.808C460.409 434.066 459.457 433.786 458.561 433.786C457.203 433.786 455.859 434.458 455.859 435.956C455.859 438.518 459.485 437.426 459.485 438.812C459.485 439.344 458.855 439.582 458.365 439.582C457.651 439.582 457.203 439.232 456.769 438.756L455.649 439.806C456.335 440.576 457.231 440.842 458.267 440.842C459.639 440.842 461.165 440.282 461.165 438.686C461.165 436.068 457.539 437.048 457.539 435.844C457.539 435.34 458.071 435.13 458.519 435.13C459.093 435.13 459.513 435.368 459.835 435.816L460.955 434.808ZM464.152 430.09H462.472V440.674H464.152V437.006C464.152 436.11 464.586 435.298 465.692 435.298C466.868 435.298 466.924 436.53 466.924 437.272V440.674H468.604V436.432C468.604 435.06 467.96 433.786 466.154 433.786C465.118 433.786 464.446 434.332 464.18 434.892H464.152V430.09ZM470.511 440.674H472.107V439.666H472.135C472.625 440.478 473.507 440.842 474.445 440.842C476.517 440.842 477.763 439.302 477.763 437.314C477.763 435.326 476.433 433.786 474.515 433.786C473.255 433.786 472.583 434.374 472.233 434.808H472.191V430.09H470.511V440.674ZM476.083 437.314C476.083 438.364 475.341 439.33 474.109 439.33C472.877 439.33 472.135 438.364 472.135 437.314C472.135 436.264 472.877 435.298 474.109 435.298C475.341 435.298 476.083 436.264 476.083 437.314ZM478.993 437.314C478.993 439.428 480.617 440.842 482.647 440.842C484.677 440.842 486.301 439.428 486.301 437.314C486.301 435.2 484.677 433.786 482.647 433.786C480.617 433.786 478.993 435.2 478.993 437.314ZM480.673 437.314C480.673 436.264 481.415 435.298 482.647 435.298C483.879 435.298 484.621 436.264 484.621 437.314C484.621 438.364 483.879 439.33 482.647 439.33C481.415 439.33 480.673 438.364 480.673 437.314ZM492.074 440.674H493.586V436.81C493.586 435.858 493.586 433.786 490.716 433.786C489.652 433.786 488.602 434.108 487.86 434.864L488.742 435.746C489.19 435.326 489.834 435.046 490.534 435.046C491.43 435.046 492.074 435.48 492.074 436.306V436.488H491.654C489.974 436.488 487.426 436.642 487.426 438.826C487.426 440.156 488.63 440.842 489.876 440.842C490.772 440.842 491.556 440.506 492.032 439.75H492.074V440.674ZM491.976 438.042C491.976 438.98 491.43 439.582 490.282 439.582C489.736 439.582 489.106 439.316 489.106 438.7C489.106 437.734 490.702 437.664 491.626 437.664H491.976V438.042ZM495.393 440.674H497.073V437.076C497.073 436.712 497.297 435.382 498.879 435.382C499.145 435.382 499.411 435.438 499.691 435.508V433.884C499.495 433.828 499.299 433.786 499.089 433.786C498.207 433.786 497.465 434.248 497.101 435.018H497.073V433.954H495.393V440.674ZM505.909 440.674H507.505V430.09H505.825V434.808H505.783C505.433 434.374 504.761 433.786 503.501 433.786C501.583 433.786 500.253 435.326 500.253 437.314C500.253 439.302 501.499 440.842 503.571 440.842C504.509 440.842 505.391 440.478 505.881 439.666H505.909V440.674ZM501.933 437.314C501.933 436.264 502.675 435.298 503.907 435.298C505.139 435.298 505.881 436.264 505.881 437.314C505.881 438.364 505.139 439.33 503.907 439.33C502.675 439.33 501.933 438.364 501.933 437.314Z" fill="white"/>
<rect x="371.5" y="419.174" width="157" height="35" rx="3.5" stroke="#6C3078"/>
<rect x="1" y="1" width="898" height="460.674" rx="3" stroke="#E7EDF9" stroke-width="2"/>
</svg>
