<svg width="900" height="432" viewBox="0 0 900 432" fill="none" xmlns="http://www.w3.org/2000/svg">
<rect x="264.996" y="35.0703" width="387" height="256" rx="50" fill="#FBFCFD"/>
<path fill-rule="evenodd" clip-rule="evenodd" d="M353.845 21.0708C362.562 21.0708 370.195 26.7476 373.288 34.8976C378.839 49.5249 386.289 64.9179 394.995 74.0708C409.484 89.3031 423.974 89.3525 437.232 89.3977C441.817 89.4133 446.255 89.4284 450.495 90.0708C466.995 92.5708 488.995 97.5708 500.495 121.071C511.742 144.054 532.076 164.168 557.755 172.057C558.908 172.412 560.096 172.634 561.3 172.703C571.97 173.315 602.967 172.884 617.995 172.571C641.753 172.571 669.99 189.737 684.005 230.197C684.682 232.153 684.995 234.224 684.995 236.294V275.071C684.995 286.116 676.041 295.071 664.995 295.071H260.995C249.949 295.071 240.995 286.116 240.995 275.071V41.0708C240.995 30.0251 249.949 21.0708 260.995 21.0708H353.845Z" fill="#F0F3F6"/>
<path d="M498.11 225.341H375.703C371.147 225.341 367.458 221.653 367.458 217.097V16.2443C367.458 11.6886 371.147 8 375.703 8H498.11C502.666 8 506.354 11.6886 506.354 16.2443V217.097C506.354 221.653 502.666 225.341 498.11 225.341Z" fill="#D4DDE3"/>
<path d="M394.065 8H498.117C502.673 8 506.362 11.6886 506.362 16.2443V112.64" stroke="#D2D6DD" stroke-miterlimit="10" stroke-linecap="round" stroke-linejoin="round"/>
<path d="M495.516 71.8525H378.296V97.6948H495.516V71.8525Z" fill="#F0F3F6"/>
<path d="M491.166 62.7191H382.654C380.251 62.7191 378.296 60.7719 378.296 58.3619V32.762C378.296 30.3593 380.244 28.4048 382.654 28.4048H491.166C493.569 28.4048 495.524 30.352 495.524 32.762V58.3619C495.516 60.7646 493.569 62.7191 491.166 62.7191Z" fill="#FBFCFD" stroke="#D2D6DD" stroke-width="0.5" stroke-miterlimit="10"/>
<path d="M456 130.54H431.524C427.211 130.54 423.721 127.042 423.721 122.736V117.608C423.721 116.138 422.53 114.94 421.054 114.94H381.206C379.737 114.94 378.539 116.131 378.539 117.608V145.618C378.539 147.087 379.729 148.285 381.206 148.285H414.712H421.054H456C457.073 148.285 457.947 147.418 457.947 146.338V132.487C457.94 131.407 457.073 130.54 456 130.54Z" fill="#FBFCFD" stroke="#D2D6DD" stroke-width="0.5" stroke-miterlimit="10"/>
<path d="M433.082 126.66C436.012 126.66 438.387 124.285 438.387 121.355C438.387 118.425 436.012 116.05 433.082 116.05C430.152 116.05 427.777 118.425 427.777 121.355C427.777 124.285 430.152 126.66 433.082 126.66Z" fill="#F6F8F9"/>
<path d="M447.447 126.66C450.377 126.66 452.752 124.285 452.752 121.355C452.752 118.425 450.377 116.05 447.447 116.05C444.517 116.05 442.142 118.425 442.142 121.355C442.142 124.285 444.517 126.66 447.447 126.66Z" fill="#F6F8F9"/>
<path d="M478.8 148.277C488.251 148.277 495.913 140.615 495.913 131.164C495.913 121.713 488.251 114.051 478.8 114.051C469.349 114.051 461.687 121.713 461.687 131.164C461.687 140.615 469.349 148.277 478.8 148.277Z" fill="#FBFCFD"/>
<path d="M487.794 137.688C489.131 135.852 489.925 133.603 489.925 131.164C489.925 125.021 484.943 120.039 478.8 120.039C472.658 120.039 467.676 125.021 467.676 131.164C467.676 133.603 468.469 135.859 469.807 137.688H487.794Z" fill="#D2D6DD" stroke="#D2D6DD" stroke-width="0.5" stroke-miterlimit="10"/>
<path d="M481.901 132.788H475.706C474.472 132.788 473.458 131.774 473.458 130.539C473.458 129.305 474.472 128.291 475.706 128.291H481.901C483.135 128.291 484.149 129.305 484.149 130.539C484.149 131.774 483.135 132.788 481.901 132.788Z" fill="#FBFCFD"/>
<path d="M478.996 219.07C478.996 191.456 501.381 169.07 528.996 169.07H684.996V275.07C684.996 286.116 676.041 295.07 664.996 295.07H478.996V219.07Z" fill="#E4EAEE"/>
<path d="M348.979 230.457L295.349 234.734L232.697 239.729C230.258 239.923 228.099 238.105 227.907 235.632L215.229 76.1814C215.035 73.7422 216.854 71.5835 219.326 71.391L263.067 67.8844L307.811 64.2683L309.376 84.1819L310.171 94.206C310.366 96.6452 312.523 98.4972 314.962 98.3029L323.182 97.6382L342.729 96.0858L353.045 225.632C353.304 228.108 351.485 230.267 348.979 230.457Z" fill="#D4DDE3"/>
<path d="M307.842 64.3027L310.235 94.2423C310.429 96.6815 312.586 98.5335 315.026 98.3392L342.793 96.122L307.842 64.3027Z" fill="#FBFCFD"/>
<path d="M316.545 185.909L257.703 190.588C253.326 190.939 249.487 187.661 249.136 183.284L244.457 124.442C244.107 120.064 247.385 116.225 251.762 115.875L310.604 111.196C314.981 110.845 318.82 114.123 319.17 118.501L323.85 177.342C324.2 181.72 320.955 185.56 316.545 185.909Z" stroke="white" stroke-width="1.3348" stroke-miterlimit="10" stroke-linecap="round" stroke-linejoin="round"/>
<path d="M245.312 135.202L320.027 129.227" stroke="white" stroke-width="1.3348" stroke-miterlimit="10" stroke-linecap="round" stroke-linejoin="round"/>
<path d="M246.78 153.878L321.528 147.906" stroke="white" stroke-width="1.3348" stroke-miterlimit="10" stroke-linecap="round" stroke-linejoin="round"/>
<path d="M248.28 172.557L322.995 166.583" stroke="white" stroke-width="1.3348" stroke-miterlimit="10" stroke-linecap="round" stroke-linejoin="round"/>
<path d="M274.676 189.255L268.737 114.509" stroke="white" stroke-width="1.3348" stroke-miterlimit="10" stroke-linecap="round" stroke-linejoin="round"/>
<path d="M299.603 187.277L293.63 112.528" stroke="white" stroke-width="1.3348" stroke-miterlimit="10" stroke-linecap="round" stroke-linejoin="round"/>
<path d="M692.615 157.543H665.612V84.6795C665.612 82.7832 664.073 81.2441 662.177 81.2441H547.946C546.05 81.2441 544.511 82.7832 544.511 84.6795V157.543H517.508C516.742 157.543 516.125 158.16 516.125 158.926V167.661C516.125 168.421 516.742 169.044 517.508 169.044H692.621C693.381 169.044 694.005 168.427 694.005 167.661V158.926C693.998 158.167 693.381 157.543 692.615 157.543Z" fill="#D4DDE3"/>
<path d="M553.499 146.932V91.8617C553.499 91.0889 554.128 90.459 554.901 90.459H654.995C655.767 90.459 656.397 91.0889 656.397 91.8617V146.932C656.397 147.704 655.767 148.334 654.995 148.334H554.908C554.128 148.334 553.499 147.704 553.499 146.932Z" fill="white"/>
<path d="M641.949 120.844L623.415 110.72L604.881 115.779H586.347L567.806 105.661" stroke="#CBD6DE" stroke-miterlimit="10" stroke-linecap="round"/>
<path d="M641.949 130.962L623.415 125.904L604.881 120.845L586.347 130.962L567.806 115.779" stroke="#40C1AC" stroke-miterlimit="10" stroke-linecap="round"/>
<path d="M567.805 106.948C568.515 106.948 569.091 106.372 569.091 105.662C569.091 104.952 568.515 104.376 567.805 104.376C567.095 104.376 566.52 104.952 566.52 105.662C566.52 106.372 567.095 106.948 567.805 106.948Z" fill="#CBD6DE" stroke="#CBD6DE" stroke-width="0.5" stroke-miterlimit="10" stroke-linecap="round"/>
<path d="M586.346 117.066C587.056 117.066 587.632 116.49 587.632 115.78C587.632 115.07 587.056 114.494 586.346 114.494C585.636 114.494 585.06 115.07 585.06 115.78C585.06 116.49 585.636 117.066 586.346 117.066Z" fill="#CBD6DE" stroke="#CBD6DE" stroke-width="0.5" stroke-miterlimit="10" stroke-linecap="round"/>
<path d="M604.88 117.066C605.59 117.066 606.166 116.49 606.166 115.78C606.166 115.07 605.59 114.494 604.88 114.494C604.17 114.494 603.594 115.07 603.594 115.78C603.594 116.49 604.17 117.066 604.88 117.066Z" fill="#CBD6DE" stroke="#CBD6DE" stroke-width="0.5" stroke-miterlimit="10" stroke-linecap="round"/>
<path d="M623.414 112.006C624.124 112.006 624.7 111.431 624.7 110.72C624.7 110.01 624.124 109.435 623.414 109.435C622.704 109.435 622.128 110.01 622.128 110.72C622.128 111.431 622.704 112.006 623.414 112.006Z" fill="#CBD6DE" stroke="#CBD6DE" stroke-width="0.5" stroke-miterlimit="10" stroke-linecap="round"/>
<path d="M641.948 122.13C642.659 122.13 643.234 121.555 643.234 120.844C643.234 120.134 642.659 119.559 641.948 119.559C641.238 119.559 640.663 120.134 640.663 120.844C640.663 121.555 641.238 122.13 641.948 122.13Z" fill="#CBD6DE" stroke="#CBD6DE" stroke-width="0.5" stroke-miterlimit="10" stroke-linecap="round"/>
<path d="M641.948 132.476C642.659 132.476 643.234 131.9 643.234 131.19C643.234 130.48 642.659 129.904 641.948 129.904C641.238 129.904 640.663 130.48 640.663 131.19C640.663 131.9 641.238 132.476 641.948 132.476Z" fill="#40C1AC" stroke="#40C1AC" stroke-width="0.5" stroke-miterlimit="10" stroke-linecap="round"/>
<path d="M605.062 122.13C605.772 122.13 606.348 121.555 606.348 120.844C606.348 120.134 605.772 119.559 605.062 119.559C604.352 119.559 603.776 120.134 603.776 120.844C603.776 121.555 604.352 122.13 605.062 122.13Z" fill="#40C1AC" stroke="#40C1AC" stroke-width="0.5" stroke-miterlimit="10" stroke-linecap="round"/>
<path d="M586.346 131.898C587.056 131.898 587.632 131.322 587.632 130.612C587.632 129.902 587.056 129.326 586.346 129.326C585.636 129.326 585.06 129.902 585.06 130.612C585.06 131.322 585.636 131.898 586.346 131.898Z" fill="#40C1AC" stroke="#40C1AC" stroke-width="0.5" stroke-miterlimit="10" stroke-linecap="round"/>
<path d="M567.805 117.066C568.515 117.066 569.091 116.49 569.091 115.78C569.091 115.07 568.515 114.494 567.805 114.494C567.095 114.494 566.52 115.07 566.52 115.78C566.52 116.49 567.095 117.066 567.805 117.066Z" fill="#40C1AC" stroke="#40C1AC" stroke-width="0.5" stroke-miterlimit="10" stroke-linecap="round"/>
<path d="M623.414 127.047C624.124 127.047 624.7 126.472 624.7 125.761C624.7 125.051 624.124 124.476 623.414 124.476C622.704 124.476 622.128 125.051 622.128 125.761C622.128 126.472 622.704 127.047 623.414 127.047Z" fill="#40C1AC" stroke="#40C1AC" stroke-width="0.5" stroke-miterlimit="10" stroke-linecap="round"/>
<path d="M567.993 163.069H642.13" stroke="white" stroke-miterlimit="10" stroke-linecap="round" stroke-linejoin="round"/>
<path d="M609.096 73.8301H605.4C604.8 73.8301 604.317 74.3174 604.317 74.9126V81.2435H610.178V74.9126C610.178 74.3131 609.695 73.8301 609.096 73.8301Z" fill="#CDD7DF"/>
<path d="M513.768 43.7138V47.4097C513.768 48.0092 513.28 48.4922 512.685 48.4922H506.354V42.6313H512.685C513.285 42.6313 513.768 43.1143 513.768 43.7138Z" fill="#CDD7DF"/>
<path d="M513.556 45.3887H600.248C604.114 45.3887 607.248 48.5227 607.248 52.3887V73.3593" stroke="#6B3077" stroke-dasharray="2 2"/>
<path d="M412.582 243.379L418.444 249.24L410.67 257.014L404.808 251.153L412.582 243.379Z" fill="#C9D4DC"/>
<path opacity="0.3" d="M408.699 255.053C408.594 254.4 408.509 253.747 408.516 253.086C408.537 251.92 408.903 250.698 409.823 249.981C411.052 249.033 412.787 249.286 414.312 249.581C415.352 249.785 416.398 250.045 417.445 250.227L418.436 249.237L412.577 243.378L404.8 251.155L408.699 255.053Z" fill="#C9D4DC"/>
<path d="M345.995 303.828L357.994 315.826L411.742 262.079C412.845 260.976 412.845 259.191 411.742 258.095L408.995 255.349L403.733 250.087C402.63 248.984 400.853 248.984 399.75 250.087L377.586 272.251L345.995 303.828Z" fill="#C4D0D9"/>
<path opacity="0.2" fill-rule="evenodd" clip-rule="evenodd" d="M377.579 272.25C377.713 272.777 377.965 273.255 378.366 273.627C379.37 274.548 380.951 274.47 382.216 273.986C384.407 273.143 386.065 271.316 387.421 269.398C388.784 267.488 389.95 265.415 391.587 263.736C393.61 261.671 396.272 260.273 398.099 258.032C399.103 256.81 399.869 255.32 401.211 254.484C402.475 253.705 404.07 253.627 405.517 253.958C406.74 254.239 407.878 254.772 408.995 255.355L403.733 250.094C402.63 248.991 400.853 248.991 399.75 250.094L377.579 272.25Z" fill="#D2D6DD"/>
<path d="M414.333 247.492C397.458 230.617 397.458 203.258 414.333 186.383C431.207 169.509 458.566 169.509 475.441 186.383C492.316 203.258 492.316 230.617 475.441 247.492C458.566 264.366 431.207 264.366 414.333 247.492Z" fill="#C4D0D9"/>
<path opacity="0.2" d="M414.333 186.385C426.887 173.831 445.236 170.628 460.761 176.746C446.304 172.82 430.203 176.522 418.85 187.874C401.976 204.748 401.976 232.11 418.85 248.984C423.171 253.304 428.187 256.515 433.526 258.622C426.494 256.711 419.848 253.009 414.333 247.495C397.459 230.614 397.459 203.259 414.333 186.385Z" fill="#D2D6DD"/>
<path d="M444.884 250.087C426.576 250.087 411.734 235.245 411.734 216.936C411.734 198.627 426.576 183.785 444.884 183.785C463.193 183.785 478.035 198.627 478.035 216.936C478.035 235.245 463.193 250.087 444.884 250.087Z" fill="white"/>
<path opacity="0.5" d="M421.443 193.494C430.406 184.53 443.234 181.776 454.572 185.225C444.695 183.912 434.333 187.045 426.739 194.639C413.792 207.586 413.792 228.576 426.739 241.523C430.723 245.507 435.464 248.253 440.494 249.792C433.526 248.864 426.796 245.731 421.436 240.378C408.496 227.431 408.496 206.441 421.443 193.494Z" fill="#E6E6E6"/>
<rect x="431.273" y="208.07" width="6" height="25" fill="#C4D0D9"/>
<rect x="442.273" y="198.07" width="6" height="35" fill="#C4D0D9"/>
<rect x="452.273" y="213.07" width="6" height="20" fill="#C4D0D9"/>
<path d="M584.701 194.465H616.688" stroke="#C4D0D9" stroke-width="0.25" stroke-miterlimit="10"/>
<path d="M626.791 238.892H576.665V163.07H633.715V231.968C633.715 235.792 630.615 238.892 626.791 238.892Z" fill="white"/>
<path d="M548.995 265.311L556.136 257.84L563.277 265.311L570.405 257.84L577.533 265.311L584.662 257.84L591.79 265.311L598.918 257.84L606.046 265.311V238.859H576.691L576.711 232.053C576.711 232.02 576.717 231.994 576.717 231.961V189.509H562.869H556.176C556.09 189.509 556.005 189.482 555.919 189.482H555.913C555.485 189.482 555.07 189.535 554.669 189.607C554.497 189.64 554.333 189.686 554.168 189.733C553.951 189.792 553.741 189.851 553.537 189.93C553.326 190.009 553.122 190.095 552.924 190.193C552.793 190.259 552.668 190.331 552.543 190.397C552.312 190.529 552.089 190.661 551.871 190.812C551.542 191.049 551.239 191.312 550.956 191.595C550.397 192.174 549.943 192.846 549.607 193.589C549.561 193.695 549.522 193.813 549.476 193.919C549.37 194.202 549.278 194.485 549.206 194.781C549.179 194.899 549.146 195.018 549.12 195.136C549.048 195.544 548.995 195.965 548.995 196.393V236.667V265.311V265.311Z" fill="white"/>
<path d="M555.913 203.206H568.227" stroke="#C4D0D9" stroke-miterlimit="10"/>
<path d="M555.913 210.538H570.853" stroke="#C4D0D9" stroke-miterlimit="10"/>
<path d="M555.913 217.87H574.355" stroke="#C4D0D9" stroke-miterlimit="10"/>
<path d="M555.913 225.195H573.032" stroke="#C4D0D9" stroke-miterlimit="10"/>
<path d="M555.913 232.027H568.227" stroke="#C4D0D9" stroke-miterlimit="10"/>
<path d="M576.665 189.516H562.817H555.893C559.717 189.516 562.817 192.616 562.817 196.44V231.968C562.817 233.876 563.594 235.607 564.844 236.865C566.095 238.115 567.826 238.892 569.741 238.892C569.827 238.892 569.912 238.872 569.998 238.865H576.639L576.658 232.06C576.658 232.027 576.665 232.001 576.665 231.968V189.516V189.516Z" fill="#F0F3F6"/>
<path d="M614.634 203.193H625.31" stroke="#C4D0D9" stroke-miterlimit="10"/>
<path d="M583.806 203.193H596.12" stroke="#C4D0D9" stroke-miterlimit="10"/>
<path d="M614.634 210.525H625.31" stroke="#C4D0D9" stroke-miterlimit="10"/>
<path d="M583.806 210.525H605.374" stroke="#C4D0D9" stroke-miterlimit="10"/>
<path d="M614.634 217.857H625.31" stroke="#C4D0D9" stroke-miterlimit="10"/>
<path d="M583.806 217.857H602.248" stroke="#C4D0D9" stroke-miterlimit="10"/>
<path d="M614.634 225.183H625.31" stroke="#C4D0D9" stroke-miterlimit="10"/>
<path d="M583.806 225.183H605.374" stroke="#C4D0D9" stroke-miterlimit="10"/>
<path d="M590.236 173.187H590.434C591.197 173.187 591.974 173.319 592.777 173.582C593.573 173.845 594.258 174.227 594.83 174.734L592.968 176.813C592.625 176.438 592.211 176.149 591.737 175.932C591.263 175.714 590.756 175.609 590.236 175.609V180.091L590.328 180.118C590.954 180.282 591.572 180.466 592.178 180.677C592.783 180.888 593.323 181.157 593.79 181.493C594.258 181.829 594.639 182.25 594.936 182.763C595.225 183.27 595.37 183.902 595.37 184.665C595.37 185.416 595.232 186.074 594.969 186.647C594.699 187.219 594.337 187.713 593.869 188.127C593.409 188.536 592.862 188.865 592.244 189.102C591.625 189.339 590.954 189.496 590.243 189.569V191.181H589.032V189.589C588.045 189.602 587.103 189.457 586.202 189.141C585.3 188.825 584.504 188.312 583.812 187.594L585.853 185.508C586.215 186.015 586.676 186.403 587.242 186.673C587.808 186.943 588.407 187.107 589.032 187.167V182.441L588.92 182.415C588.295 182.237 587.696 182.039 587.13 181.822C586.564 181.605 586.057 181.322 585.616 180.973C585.175 180.624 584.826 180.196 584.576 179.696C584.319 179.196 584.194 178.571 584.194 177.827C584.194 177.156 584.326 176.55 584.596 176.011C584.866 175.471 585.221 175.004 585.669 174.609C586.116 174.214 586.629 173.898 587.215 173.654C587.794 173.417 588.4 173.266 589.032 173.207V171.706H590.243V173.187H590.236ZM589.025 175.649C588.499 175.741 588.038 175.958 587.623 176.313C587.215 176.662 587.005 177.123 587.005 177.689C587.005 178.031 587.064 178.308 587.169 178.518C587.281 178.729 587.426 178.906 587.604 179.058C587.781 179.209 587.998 179.334 588.242 179.426C588.486 179.525 588.749 179.63 589.012 179.749V175.649H589.025ZM590.236 187.167C590.552 187.107 590.842 187.015 591.118 186.89C591.395 186.765 591.638 186.607 591.849 186.423C592.059 186.232 592.224 186.008 592.356 185.751C592.481 185.488 592.546 185.199 592.546 184.87C592.546 184.54 592.474 184.264 592.336 184.04C592.191 183.816 592.007 183.632 591.783 183.481C591.559 183.329 591.316 183.204 591.046 183.099C590.776 182.994 590.506 182.895 590.243 182.809V187.167H590.236Z" fill="#34B9B3"/>
<path d="M625.31 178.973H599.326V186.627H625.31V178.973Z" fill="#F0F3F6"/>
<path d="M326.656 326.21C326.656 329.746 329.152 332.114 332.64 332.114C336.176 332.05 338.672 329.682 338.672 326.146C338.672 322.514 336.176 320.146 332.64 320.21C329.152 320.21 326.656 322.578 326.656 326.21ZM328.768 326.082C328.768 323.826 330.32 322.034 332.656 322.034C335.008 322.034 336.56 323.826 336.56 326.082C336.56 328.498 335.008 330.29 332.656 330.29C330.32 330.29 328.768 328.498 328.768 326.082ZM340.032 327.986C340.032 330.402 341.888 332.018 344.208 332.018C346.528 332.018 348.384 330.402 348.384 327.986C348.384 325.57 346.528 323.954 344.208 323.954C341.888 323.954 340.032 325.57 340.032 327.986ZM341.952 327.986C341.952 326.786 342.8 325.682 344.208 325.682C345.616 325.682 346.464 326.786 346.464 327.986C346.464 329.186 345.616 330.29 344.208 330.29C342.8 330.29 341.952 329.186 341.952 327.986ZM350.182 335.474H352.102V330.85H352.15C352.55 331.346 353.318 332.018 354.758 332.018C356.95 332.018 358.47 330.258 358.47 327.986C358.47 325.714 357.046 323.954 354.678 323.954C353.606 323.954 352.598 324.37 352.038 325.298H352.006V324.146H350.182V335.474ZM356.55 327.986C356.55 329.186 355.702 330.29 354.294 330.29C352.886 330.29 352.038 329.186 352.038 327.986C352.038 326.786 352.886 325.682 354.294 325.682C355.702 325.682 356.55 326.786 356.55 327.986ZM365.636 325.122C365.012 324.274 363.924 323.954 362.9 323.954C361.348 323.954 359.812 324.722 359.812 326.434C359.812 329.362 363.956 328.114 363.956 329.698C363.956 330.306 363.236 330.578 362.676 330.578C361.86 330.578 361.348 330.178 360.852 329.634L359.572 330.834C360.356 331.714 361.38 332.018 362.564 332.018C364.132 332.018 365.876 331.378 365.876 329.554C365.876 326.562 361.732 327.682 361.732 326.306C361.732 325.73 362.34 325.49 362.852 325.49C363.508 325.49 363.988 325.762 364.356 326.274L365.636 325.122ZM369.609 320.498H367.689V328.274H369.609V320.498ZM367.369 330.706C367.369 331.394 367.977 331.922 368.649 331.922C369.353 331.922 369.929 331.362 369.929 330.674C369.929 329.986 369.337 329.458 368.649 329.458C367.945 329.458 367.369 330.018 367.369 330.706ZM376.87 331.826H378.79V319.73H376.87V331.826ZM380.61 327.986C380.61 330.402 382.466 332.018 384.786 332.018C387.106 332.018 388.962 330.402 388.962 327.986C388.962 325.57 387.106 323.954 384.786 323.954C382.466 323.954 380.61 325.57 380.61 327.986ZM382.53 327.986C382.53 326.786 383.378 325.682 384.786 325.682C386.194 325.682 387.042 326.786 387.042 327.986C387.042 329.186 386.194 330.29 384.786 330.29C383.378 330.29 382.53 329.186 382.53 327.986ZM390.376 327.986C390.376 330.402 392.232 332.018 394.552 332.018C396.872 332.018 398.728 330.402 398.728 327.986C398.728 325.57 396.872 323.954 394.552 323.954C392.232 323.954 390.376 325.57 390.376 327.986ZM392.296 327.986C392.296 326.786 393.144 325.682 394.552 325.682C395.96 325.682 396.808 326.786 396.808 327.986C396.808 329.186 395.96 330.29 394.552 330.29C393.144 330.29 392.296 329.186 392.296 327.986ZM400.526 331.826H402.446V327.906H402.478L405.534 331.826H408.078L404.574 327.634L407.87 324.146H405.406L402.446 327.33V319.73H400.526V331.826ZM414.495 325.122C413.871 324.274 412.783 323.954 411.759 323.954C410.207 323.954 408.671 324.722 408.671 326.434C408.671 329.362 412.815 328.114 412.815 329.698C412.815 330.306 412.095 330.578 411.535 330.578C410.719 330.578 410.207 330.178 409.711 329.634L408.431 330.834C409.215 331.714 410.239 332.018 411.423 332.018C412.991 332.018 414.735 331.378 414.735 329.554C414.735 326.562 410.591 327.682 410.591 326.306C410.591 325.73 411.199 325.49 411.711 325.49C412.367 325.49 412.847 325.762 413.215 326.274L414.495 325.122ZM420.995 331.826H422.915V319.73H420.995V331.826ZM425.151 331.826H427.071V324.146H425.151V331.826ZM424.879 321.538C424.879 322.146 425.391 322.69 426.095 322.69C426.799 322.69 427.343 322.194 427.343 321.538C427.343 320.882 426.799 320.386 426.095 320.386C425.391 320.386 424.879 320.93 424.879 321.538ZM429.276 331.826H431.196V327.906H431.228L434.284 331.826H436.828L433.324 327.634L436.62 324.146H434.156L431.196 327.33V319.73H429.276V331.826ZM445.261 328.658V328.13C445.261 325.458 443.805 323.954 441.661 323.954C439.341 323.954 437.485 325.57 437.485 327.986C437.485 330.402 439.341 332.018 441.661 332.018C442.877 332.018 444.013 331.586 444.909 330.482L443.533 329.442C443.053 330.034 442.429 330.482 441.469 330.482C440.397 330.482 439.533 329.794 439.405 328.658H445.261ZM439.405 327.218C439.549 326.114 440.253 325.394 441.389 325.394C442.589 325.394 443.325 326.098 443.341 327.218H439.405ZM452.479 325.778V329.298C452.479 331.106 452.959 332.018 454.991 332.018C455.439 332.018 456.111 331.954 456.511 331.762V330.146C456.271 330.322 455.807 330.386 455.471 330.386C454.623 330.386 454.399 329.906 454.399 329.138V325.778H456.511V324.146H454.399V321.922H452.479V324.146H450.895V325.778H452.479ZM459.93 319.73H458.01V331.826H459.93V327.634C459.93 326.61 460.426 325.682 461.69 325.682C463.034 325.682 463.098 327.09 463.098 327.938V331.826H465.018V326.978C465.018 325.41 464.282 323.954 462.218 323.954C461.034 323.954 460.266 324.578 459.962 325.218H459.93V319.73ZM474.589 328.658V328.13C474.589 325.458 473.133 323.954 470.989 323.954C468.669 323.954 466.813 325.57 466.813 327.986C466.813 330.402 468.669 332.018 470.989 332.018C472.205 332.018 473.341 331.586 474.237 330.482L472.861 329.442C472.381 330.034 471.757 330.482 470.797 330.482C469.725 330.482 468.861 329.794 468.733 328.658H474.589ZM468.733 327.218C468.877 326.114 469.581 325.394 470.717 325.394C471.917 325.394 472.653 326.098 472.669 327.218H468.733ZM476.385 331.826H478.305V327.714C478.305 327.298 478.561 325.778 480.369 325.778C480.673 325.778 480.977 325.842 481.297 325.922V324.066C481.073 324.002 480.849 323.954 480.609 323.954C479.601 323.954 478.753 324.482 478.337 325.362H478.305V324.146H476.385V331.826ZM489.714 328.658V328.13C489.714 325.458 488.258 323.954 486.114 323.954C483.794 323.954 481.938 325.57 481.938 327.986C481.938 330.402 483.794 332.018 486.114 332.018C487.33 332.018 488.466 331.586 489.362 330.482L487.986 329.442C487.506 330.034 486.882 330.482 485.922 330.482C484.85 330.482 483.986 329.794 483.858 328.658H489.714ZM483.858 327.218C484.002 326.114 484.706 325.394 485.842 325.394C487.042 325.394 487.778 326.098 487.794 327.218H483.858ZM496.276 331.826H498.196V324.146H496.276V331.826ZM496.004 321.538C496.004 322.146 496.516 322.69 497.22 322.69C497.924 322.69 498.468 322.194 498.468 321.538C498.468 320.882 497.924 320.386 497.22 320.386C496.516 320.386 496.004 320.93 496.004 321.538ZM505.777 325.122C505.153 324.274 504.065 323.954 503.041 323.954C501.489 323.954 499.953 324.722 499.953 326.434C499.953 329.362 504.097 328.114 504.097 329.698C504.097 330.306 503.377 330.578 502.817 330.578C502.001 330.578 501.489 330.178 500.993 329.634L499.713 330.834C500.497 331.714 501.521 332.018 502.705 332.018C504.273 332.018 506.017 331.378 506.017 329.554C506.017 326.562 501.873 327.682 501.873 326.306C501.873 325.73 502.481 325.49 502.993 325.49C503.649 325.49 504.129 325.762 504.497 326.274L505.777 325.122ZM512.244 331.826H514.164V327.634C514.164 326.61 514.66 325.682 515.924 325.682C517.268 325.682 517.332 327.09 517.332 327.938V331.826H519.252V326.978C519.252 325.41 518.516 323.954 516.452 323.954C515.172 323.954 514.452 324.61 514.1 325.378H514.068V324.146H512.244V331.826ZM521.048 327.986C521.048 330.402 522.904 332.018 525.224 332.018C527.544 332.018 529.4 330.402 529.4 327.986C529.4 325.57 527.544 323.954 525.224 323.954C522.904 323.954 521.048 325.57 521.048 327.986ZM522.968 327.986C522.968 326.786 523.816 325.682 525.224 325.682C526.632 325.682 527.48 326.786 527.48 327.986C527.48 329.186 526.632 330.29 525.224 330.29C523.816 330.29 522.968 329.186 522.968 327.986ZM542.012 331.826H543.836V319.73H541.916V325.122H541.868C541.468 324.626 540.7 323.954 539.26 323.954C537.068 323.954 535.548 325.714 535.548 327.986C535.548 330.258 536.972 332.018 539.34 332.018C540.412 332.018 541.42 331.602 541.98 330.674H542.012V331.826ZM537.468 327.986C537.468 326.786 538.316 325.682 539.724 325.682C541.132 325.682 541.98 326.786 541.98 327.986C541.98 329.186 541.132 330.29 539.724 330.29C538.316 330.29 537.468 329.186 537.468 327.986ZM550.81 331.826H552.538V327.41C552.538 326.322 552.538 323.954 549.258 323.954C548.042 323.954 546.842 324.322 545.994 325.186L547.002 326.194C547.514 325.714 548.25 325.394 549.05 325.394C550.074 325.394 550.81 325.89 550.81 326.834V327.042H550.33C548.41 327.042 545.498 327.218 545.498 329.714C545.498 331.234 546.874 332.018 548.298 332.018C549.322 332.018 550.218 331.634 550.762 330.77H550.81V331.826ZM550.698 328.818C550.698 329.89 550.074 330.578 548.762 330.578C548.138 330.578 547.418 330.274 547.418 329.57C547.418 328.466 549.242 328.386 550.298 328.386H550.698V328.818ZM555.292 325.778V329.298C555.292 331.106 555.772 332.018 557.804 332.018C558.252 332.018 558.924 331.954 559.324 331.762V330.146C559.084 330.322 558.62 330.386 558.284 330.386C557.436 330.386 557.212 329.906 557.212 329.138V325.778H559.324V324.146H557.212V321.922H555.292V324.146H553.708V325.778H555.292ZM565.622 331.826H567.35V327.41C567.35 326.322 567.35 323.954 564.07 323.954C562.854 323.954 561.654 324.322 560.806 325.186L561.814 326.194C562.326 325.714 563.062 325.394 563.862 325.394C564.886 325.394 565.622 325.89 565.622 326.834V327.042H565.142C563.222 327.042 560.31 327.218 560.31 329.714C560.31 331.234 561.686 332.018 563.11 332.018C564.134 332.018 565.03 331.634 565.574 330.77H565.622V331.826ZM565.51 328.818C565.51 329.89 564.886 330.578 563.574 330.578C562.95 330.578 562.23 330.274 562.23 329.57C562.23 328.466 564.054 328.386 565.11 328.386H565.51V328.818ZM569.416 330.706C569.416 331.394 570.024 331.922 570.696 331.922C571.4 331.922 571.976 331.362 571.976 330.674C571.976 329.986 571.384 329.458 570.696 329.458C569.992 329.458 569.416 330.018 569.416 330.706Z" fill="#333333"/>
<path d="M317.012 345.986C316.052 344.738 314.548 344.21 313.012 344.21C309.652 344.21 307.252 346.834 307.252 350.162C307.252 353.602 309.764 356.114 313.012 356.114C314.82 356.114 316.292 355.49 317.3 354.13L316.292 353.282C315.492 354.306 314.388 354.866 313.012 354.866C310.468 354.866 308.692 352.786 308.692 350.162C308.692 347.682 310.484 345.458 313.012 345.458C314.1 345.458 315.172 345.922 315.844 346.834L317.012 345.986ZM319.638 350.114C320.23 349.57 321.062 349.298 321.862 349.298C323.03 349.298 323.718 349.858 323.718 350.946V351.17H323.238C321.398 351.17 318.518 351.314 318.518 353.794C318.518 355.25 319.782 356.018 321.302 356.018C322.438 356.018 323.27 355.474 323.766 354.706H323.798C323.798 355.026 323.798 355.49 323.878 355.826H325.078C325.014 355.442 324.966 354.962 324.966 354.53V351.314C324.966 349.202 324.038 348.146 321.83 348.146C320.742 348.146 319.622 348.514 318.854 349.298L319.638 350.114ZM323.718 352.226V352.706C323.686 353.922 322.95 354.962 321.51 354.962C320.566 354.962 319.862 354.61 319.862 353.666C319.862 352.658 320.886 352.226 322.47 352.226H323.718ZM327.247 355.826H328.495V352.178C328.495 350.466 329.199 349.298 330.815 349.298C331.983 349.298 332.527 350.082 332.527 351.33V355.826H333.775V351.202C333.775 349.394 332.895 348.146 330.927 348.146C329.695 348.146 328.767 348.834 328.431 349.57H328.399C328.399 349.154 328.367 348.738 328.367 348.338H327.183C327.183 348.834 327.247 349.426 327.247 350.114V355.826ZM336.137 355.826H337.385V352.178C337.385 350.466 338.089 349.298 339.705 349.298C340.873 349.298 341.417 350.082 341.417 351.33V355.826H342.665V351.202C342.665 349.394 341.785 348.146 339.817 348.146C338.585 348.146 337.657 348.834 337.321 349.57H337.289C337.289 349.154 337.257 348.738 337.257 348.338H336.073C336.073 348.834 336.137 349.426 336.137 350.114V355.826ZM344.596 352.082C344.596 354.418 346.292 356.018 348.596 356.018C350.9 356.018 352.596 354.418 352.596 352.082C352.596 349.746 350.9 348.146 348.596 348.146C346.292 348.146 344.596 349.746 344.596 352.082ZM345.94 352.082C345.94 350.514 346.98 349.298 348.596 349.298C350.212 349.298 351.252 350.514 351.252 352.082C351.252 353.65 350.212 354.866 348.596 354.866C346.98 354.866 345.94 353.65 345.94 352.082ZM358.624 348.338H356.416V346.21H355.168V348.338H353.536V349.394H355.168V353.506C355.168 355.058 355.456 356.018 357.232 356.018C357.696 356.018 358.256 355.938 358.688 355.746L358.64 354.61C358.304 354.786 357.904 354.866 357.536 354.866C356.432 354.866 356.416 354.098 356.416 353.138V349.394H358.624V348.338ZM368.318 348.338H366.494V346.93C366.494 345.634 366.542 344.69 367.838 344.69C368.126 344.69 368.414 344.754 368.686 344.85L368.862 343.73C368.622 343.602 368.222 343.538 367.902 343.538C365.886 343.538 365.246 344.834 365.246 346.658V348.338H363.614V349.394H365.246V355.826H366.494V349.394H368.318V348.338ZM369.47 355.826H370.718V348.338H369.47V355.826ZM369.182 345.41C369.182 345.938 369.566 346.322 370.094 346.322C370.622 346.322 371.006 345.938 371.006 345.41C371.006 344.914 370.606 344.498 370.094 344.498C369.582 344.498 369.182 344.914 369.182 345.41ZM373.2 355.826H374.448V352.178C374.448 350.466 375.152 349.298 376.768 349.298C377.936 349.298 378.48 350.082 378.48 351.33V355.826H379.728V351.202C379.728 349.394 378.848 348.146 376.88 348.146C375.648 348.146 374.72 348.834 374.384 349.57H374.352C374.352 349.154 374.32 348.738 374.32 348.338H373.136C373.136 348.834 373.2 349.426 373.2 350.114V355.826ZM388.314 355.826H389.562V343.73H388.314V349.426H388.282C387.594 348.626 386.682 348.146 385.594 348.146C383.242 348.146 381.658 349.81 381.658 352.082C381.658 354.322 383.306 356.018 385.402 356.018C386.746 356.018 387.818 355.346 388.282 354.498H388.314V355.826ZM388.314 352.082C388.314 353.65 387.274 354.866 385.658 354.866C384.042 354.866 383.002 353.65 383.002 352.082C383.002 350.514 384.042 349.298 385.658 349.298C387.274 349.298 388.314 350.514 388.314 352.082ZM406.773 348.338H405.429L403.733 354.098H403.701L401.733 348.338H400.421L398.485 354.098H398.453L396.741 348.338H395.365L397.797 355.826H399.077L400.965 350.066H400.997L403.125 355.826H404.357L406.773 348.338ZM408.184 355.826H409.432V352.178C409.432 350.466 410.136 349.298 411.752 349.298C412.92 349.298 413.464 350.082 413.464 351.33V355.826H414.712V351.202C414.712 349.394 413.832 348.146 411.864 348.146C410.696 348.146 409.8 348.786 409.464 349.378H409.432V343.73H408.184V355.826ZM417.763 350.114C418.355 349.57 419.187 349.298 419.987 349.298C421.155 349.298 421.843 349.858 421.843 350.946V351.17H421.363C419.523 351.17 416.643 351.314 416.643 353.794C416.643 355.25 417.907 356.018 419.427 356.018C420.563 356.018 421.395 355.474 421.891 354.706H421.923C421.923 355.026 421.923 355.49 422.003 355.826H423.203C423.139 355.442 423.091 354.962 423.091 354.53V351.314C423.091 349.202 422.163 348.146 419.955 348.146C418.867 348.146 417.747 348.514 416.979 349.298L417.763 350.114ZM421.843 352.226V352.706C421.811 353.922 421.075 354.962 419.635 354.962C418.691 354.962 417.987 354.61 417.987 353.666C417.987 352.658 419.011 352.226 420.595 352.226H421.843ZM429.468 348.338H427.26V346.21H426.012V348.338H424.38V349.394H426.012V353.506C426.012 355.058 426.299 356.018 428.076 356.018C428.54 356.018 429.1 355.938 429.532 355.746L429.484 354.61C429.148 354.786 428.748 354.866 428.38 354.866C427.276 354.866 427.26 354.098 427.26 353.138V349.394H429.468V348.338ZM441.818 348.338H440.458L438.234 354.21H438.202L435.882 348.338H434.426L437.53 355.874L437.018 357.282C436.746 358.018 436.442 358.514 435.626 358.514C435.274 358.514 435.002 358.482 434.746 358.386L434.586 359.474C434.922 359.634 435.354 359.666 435.706 359.666C437.21 359.666 437.706 358.802 438.202 357.538L441.818 348.338ZM442.736 352.082C442.736 354.418 444.432 356.018 446.736 356.018C449.04 356.018 450.736 354.418 450.736 352.082C450.736 349.746 449.04 348.146 446.736 348.146C444.432 348.146 442.736 349.746 442.736 352.082ZM444.08 352.082C444.08 350.514 445.12 349.298 446.736 349.298C448.352 349.298 449.392 350.514 449.392 352.082C449.392 353.65 448.352 354.866 446.736 354.866C445.12 354.866 444.08 353.65 444.08 352.082ZM459.196 348.338H457.948V351.986C457.948 353.698 457.244 354.866 455.628 354.866C454.46 354.866 453.916 354.082 453.916 352.834V348.338H452.668V352.962C452.668 354.77 453.548 356.018 455.516 356.018C456.748 356.018 457.676 355.33 458.012 354.594H458.044C458.044 355.01 458.076 355.426 458.076 355.826H459.26C459.26 355.33 459.196 354.738 459.196 354.05V348.338ZM466.7 350.114C467.292 349.57 468.124 349.298 468.924 349.298C470.092 349.298 470.78 349.858 470.78 350.946V351.17H470.3C468.46 351.17 465.58 351.314 465.58 353.794C465.58 355.25 466.844 356.018 468.364 356.018C469.5 356.018 470.332 355.474 470.828 354.706H470.86C470.86 355.026 470.86 355.49 470.94 355.826H472.14C472.076 355.442 472.028 354.962 472.028 354.53V351.314C472.028 349.202 471.1 348.146 468.892 348.146C467.804 348.146 466.684 348.514 465.916 349.298L466.7 350.114ZM470.78 352.226V352.706C470.748 353.922 470.012 354.962 468.572 354.962C467.628 354.962 466.924 354.61 466.924 353.666C466.924 352.658 467.948 352.226 469.532 352.226H470.78ZM474.309 355.826H475.557V352.178C475.557 350.466 476.229 349.394 477.749 349.394C477.973 349.394 478.213 349.426 478.421 349.49L478.501 348.226C478.325 348.162 478.149 348.146 477.989 348.146C476.757 348.146 475.829 348.834 475.493 349.57H475.461C475.461 349.154 475.429 348.738 475.429 348.338H474.245C474.245 348.834 474.309 349.426 474.309 350.114V355.826ZM485.397 353.73C484.805 354.482 484.085 354.866 483.013 354.866C481.653 354.866 480.661 353.762 480.565 352.466H486.613V352.066C486.613 349.586 485.173 348.146 483.061 348.146C480.853 348.146 479.221 349.762 479.221 352.082C479.221 354.258 480.661 356.018 483.013 356.018C484.405 356.018 485.461 355.602 486.341 354.466L485.397 353.73ZM480.565 351.41C480.725 350.146 481.637 349.298 483.013 349.298C484.389 349.298 485.221 350.146 485.269 351.41H480.565ZM492.165 354.626C492.901 355.682 493.812 356.018 495.077 356.018C496.565 356.018 498.069 355.362 498.069 353.666C498.069 352.162 496.949 351.682 495.621 351.426C494.629 351.234 493.733 350.962 493.733 350.338C493.733 349.634 494.517 349.298 495.205 349.298C495.941 349.298 496.469 349.666 496.789 350.194L497.829 349.506C497.317 348.546 496.341 348.146 495.285 348.146C493.893 348.146 492.485 348.898 492.485 350.354C492.485 351.906 493.701 352.21 495.125 352.53C495.924 352.706 496.725 352.914 496.725 353.714C496.725 354.53 495.861 354.866 495.077 354.866C494.197 354.866 493.653 354.466 493.157 353.858L492.165 354.626ZM505.553 353.73C504.961 354.482 504.241 354.866 503.169 354.866C501.809 354.866 500.817 353.762 500.721 352.466H506.769V352.066C506.769 349.586 505.329 348.146 503.217 348.146C501.009 348.146 499.377 349.762 499.377 352.082C499.377 354.258 500.817 356.018 503.169 356.018C504.561 356.018 505.617 355.602 506.497 354.466L505.553 353.73ZM500.721 351.41C500.881 350.146 501.793 349.298 503.169 349.298C504.545 349.298 505.377 350.146 505.425 351.41H500.721ZM509.388 350.114C509.98 349.57 510.812 349.298 511.612 349.298C512.78 349.298 513.468 349.858 513.468 350.946V351.17H512.988C511.148 351.17 508.268 351.314 508.268 353.794C508.268 355.25 509.532 356.018 511.052 356.018C512.188 356.018 513.02 355.474 513.516 354.706H513.548C513.548 355.026 513.548 355.49 513.628 355.826H514.828C514.764 355.442 514.716 354.962 514.716 354.53V351.314C514.716 349.202 513.788 348.146 511.58 348.146C510.492 348.146 509.372 348.514 508.604 349.298L509.388 350.114ZM513.468 352.226V352.706C513.436 353.922 512.7 354.962 511.26 354.962C510.316 354.962 509.612 354.61 509.612 353.666C509.612 352.658 510.636 352.226 512.22 352.226H513.468ZM516.997 355.826H518.245V352.178C518.245 350.466 518.917 349.394 520.437 349.394C520.661 349.394 520.901 349.426 521.109 349.49L521.189 348.226C521.013 348.162 520.837 348.146 520.677 348.146C519.445 348.146 518.517 348.834 518.181 349.57H518.149C518.149 349.154 518.117 348.738 518.117 348.338H516.933C516.933 348.834 516.997 349.426 516.997 350.114V355.826ZM528.66 349.33C527.908 348.514 526.884 348.146 525.78 348.146C523.476 348.146 521.908 349.81 521.908 352.082C521.908 354.386 523.46 356.018 525.78 356.018C526.868 356.018 527.892 355.65 528.612 354.818L527.684 353.938C527.22 354.578 526.596 354.866 525.78 354.866C524.26 354.866 523.252 353.618 523.252 352.082C523.252 350.546 524.1 349.298 525.78 349.298C526.532 349.298 527.14 349.57 527.668 350.21L528.66 349.33ZM530.059 355.826H531.307V352.178C531.307 350.466 532.011 349.298 533.627 349.298C534.795 349.298 535.339 350.082 535.339 351.33V355.826H536.587V351.202C536.587 349.394 535.707 348.146 533.739 348.146C532.571 348.146 531.675 348.786 531.339 349.378H531.307V343.73H530.059V355.826ZM539.062 355.826H540.31V348.338H539.062V355.826ZM538.774 345.41C538.774 345.938 539.158 346.322 539.686 346.322C540.214 346.322 540.598 345.938 540.598 345.41C540.598 344.914 540.198 344.498 539.686 344.498C539.174 344.498 538.774 344.914 538.774 345.41ZM542.793 355.826H544.041V352.178C544.041 350.466 544.745 349.298 546.361 349.298C547.529 349.298 548.073 350.082 548.073 351.33V355.826H549.321V351.202C549.321 349.394 548.441 348.146 546.473 348.146C545.241 348.146 544.313 348.834 543.977 349.57H543.945C543.945 349.154 543.913 348.738 543.913 348.338H542.729C542.729 348.834 542.793 349.426 542.793 350.114V355.826ZM559.156 348.338H557.908V349.618H557.876C557.38 348.626 556.244 348.146 555.236 348.146C552.852 348.146 551.252 349.634 551.252 352.082C551.252 354.29 552.884 355.922 555.236 355.922C556.228 355.922 557.284 355.49 557.876 354.53H557.908V355.49C557.908 357.074 557.316 358.514 555.076 358.514C553.924 358.514 553.076 358.066 552.292 357.218L551.396 358.242C552.452 359.282 553.62 359.666 555.076 359.666C557.7 359.666 559.156 358.194 559.156 355.49V348.338ZM552.596 352.082C552.596 350.514 553.668 349.298 555.236 349.298C556.82 349.298 557.908 350.434 557.908 352.05C557.908 353.49 556.948 354.77 555.236 354.77C553.78 354.77 552.596 353.602 552.596 352.082ZM566.558 355.826H567.806V349.394H569.63V348.338H567.806V346.93C567.806 345.634 567.854 344.69 569.15 344.69C569.438 344.69 569.726 344.754 569.998 344.85L570.174 343.73C569.934 343.602 569.534 343.538 569.214 343.538C567.198 343.538 566.558 344.834 566.558 346.658V348.338H564.926V349.394H566.558V355.826ZM570.533 352.082C570.533 354.418 572.229 356.018 574.533 356.018C576.837 356.018 578.533 354.418 578.533 352.082C578.533 349.746 576.837 348.146 574.533 348.146C572.229 348.146 570.533 349.746 570.533 352.082ZM571.877 352.082C571.877 350.514 572.917 349.298 574.533 349.298C576.149 349.298 577.189 350.514 577.189 352.082C577.189 353.65 576.149 354.866 574.533 354.866C572.917 354.866 571.877 353.65 571.877 352.082ZM580.465 355.826H581.713V352.178C581.713 350.466 582.385 349.394 583.905 349.394C584.129 349.394 584.369 349.426 584.577 349.49L584.657 348.226C584.481 348.162 584.305 348.146 584.145 348.146C582.913 348.146 581.985 348.834 581.649 349.57H581.617C581.617 349.154 581.585 348.738 581.585 348.338H580.401C580.401 348.834 580.465 349.426 580.465 350.114V355.826ZM587.93 352.658H589.274V351.922C589.274 351.01 589.37 350.786 590.042 350.146C591.002 349.25 591.866 348.466 591.866 347.058C591.866 345.218 590.49 344.21 588.746 344.21C587.002 344.21 585.626 345.202 585.338 346.946L586.778 347.106C586.938 346.066 587.658 345.362 588.73 345.362C589.786 345.362 590.426 346.082 590.426 347.106C590.426 348.114 589.69 348.722 589.034 349.394C588.202 350.226 587.93 350.466 587.93 351.65V352.658ZM588.602 354.002C588.074 354.002 587.642 354.434 587.642 354.962C587.642 355.49 588.106 355.922 588.602 355.922C589.098 355.922 589.562 355.49 589.562 354.962C589.562 354.434 589.13 354.002 588.602 354.002Z" fill="#333333"/>
<rect x="396.5" y="388.326" width="107" height="35" rx="3.5" fill="#6C3078"/>
<path d="M423.18 410.526C422.187 410.526 421.217 410.232 420.391 409.68C419.566 409.129 418.922 408.345 418.542 407.427C418.162 406.51 418.063 405.501 418.257 404.527C418.45 403.553 418.928 402.659 419.63 401.957C420.333 401.255 421.227 400.776 422.201 400.583C423.175 400.389 424.184 400.489 425.101 400.868C426.019 401.248 426.803 401.892 427.354 402.717C427.906 403.543 428.2 404.513 428.2 405.506C428.2 406.166 428.07 406.818 427.818 407.427C427.566 408.036 427.196 408.59 426.73 409.056C426.264 409.522 425.71 409.892 425.101 410.144C424.492 410.396 423.839 410.526 423.18 410.526V410.526ZM423.18 401.493C422.389 401.493 421.616 401.728 420.958 402.167C420.3 402.607 419.787 403.231 419.485 403.962C419.182 404.693 419.103 405.497 419.257 406.273C419.411 407.049 419.792 407.762 420.352 408.321C420.911 408.881 421.624 409.262 422.4 409.416C423.176 409.57 423.98 409.491 424.711 409.189C425.442 408.886 426.067 408.373 426.506 407.715C426.946 407.057 427.18 406.284 427.18 405.493C427.18 404.432 426.759 403.415 426.009 402.665C425.258 401.914 424.241 401.493 423.18 401.493Z" fill="white"/>
<path d="M429.333 412.16C429.267 412.16 429.202 412.147 429.142 412.122C429.081 412.097 429.026 412.06 428.98 412.013L426.226 409.26C426.138 409.165 426.09 409.04 426.092 408.91C426.095 408.781 426.147 408.657 426.239 408.565C426.33 408.474 426.454 408.421 426.583 408.419C426.713 408.417 426.838 408.465 426.933 408.553L429.686 411.306C429.78 411.4 429.833 411.527 429.833 411.66C429.833 411.792 429.78 411.919 429.686 412.013C429.64 412.06 429.585 412.097 429.525 412.122C429.464 412.147 429.399 412.16 429.333 412.16V412.16Z" fill="white"/>
<path d="M447.252 400.684C446.482 399.956 445.446 399.662 444.41 399.662C442.576 399.662 440.756 400.614 440.756 402.658C440.756 406.2 445.46 404.954 445.46 407.124C445.46 408.034 444.536 408.482 443.724 408.482C442.94 408.482 442.198 408.104 441.764 407.446L440.434 408.734C441.246 409.7 442.45 410.078 443.682 410.078C445.628 410.078 447.308 409.042 447.308 406.914C447.308 403.386 442.604 404.52 442.604 402.532C442.604 401.622 443.416 401.258 444.228 401.258C444.914 401.258 445.586 401.51 445.964 402.042L447.252 400.684ZM455.459 407.054V406.592C455.459 404.254 454.185 402.938 452.309 402.938C450.279 402.938 448.655 404.352 448.655 406.466C448.655 408.58 450.279 409.994 452.309 409.994C453.373 409.994 454.367 409.616 455.151 408.65L453.947 407.74C453.527 408.258 452.981 408.65 452.141 408.65C451.203 408.65 450.447 408.048 450.335 407.054H455.459ZM450.335 405.794C450.461 404.828 451.077 404.198 452.071 404.198C453.121 404.198 453.765 404.814 453.779 405.794H450.335ZM461.23 409.826H462.742V405.962C462.742 405.01 462.742 402.938 459.872 402.938C458.808 402.938 457.758 403.26 457.016 404.016L457.898 404.898C458.346 404.478 458.99 404.198 459.69 404.198C460.586 404.198 461.23 404.632 461.23 405.458V405.64H460.81C459.13 405.64 456.582 405.794 456.582 407.978C456.582 409.308 457.786 409.994 459.032 409.994C459.928 409.994 460.712 409.658 461.188 408.902H461.23V409.826ZM461.132 407.194C461.132 408.132 460.586 408.734 459.438 408.734C458.892 408.734 458.262 408.468 458.262 407.852C458.262 406.886 459.858 406.816 460.782 406.816H461.132V407.194ZM464.55 409.826H466.23V406.228C466.23 405.864 466.454 404.534 468.036 404.534C468.302 404.534 468.568 404.59 468.848 404.66V403.036C468.652 402.98 468.456 402.938 468.246 402.938C467.364 402.938 466.622 403.4 466.258 404.17H466.23V403.106H464.55V409.826ZM475.499 403.96C474.855 403.246 473.917 402.938 473.063 402.938C471.033 402.938 469.409 404.352 469.409 406.466C469.409 408.58 471.033 409.994 473.063 409.994C473.651 409.994 474.799 409.742 475.485 409.056L474.365 407.852C474.057 408.258 473.581 408.482 473.063 408.482C471.831 408.482 471.089 407.516 471.089 406.466C471.089 405.416 471.831 404.45 473.063 404.45C473.511 404.45 473.945 404.716 474.337 405.122L475.499 403.96ZM478.179 399.242H476.499V409.826H478.179V406.158C478.179 405.262 478.613 404.45 479.719 404.45C480.895 404.45 480.951 405.682 480.951 406.424V409.826H482.631V405.584C482.631 404.212 481.987 402.938 480.181 402.938C479.145 402.938 478.473 403.484 478.207 404.044H478.179V399.242Z" fill="white"/>
<rect x="396.5" y="388.326" width="107" height="35" rx="3.5" stroke="#6C3078"/>
<rect x="1" y="1" width="898" height="429.826" rx="3" stroke="#E7EDF9" stroke-width="2"/>
</svg>
