<svg width="900" height="441" viewBox="0 0 900 441" fill="none" xmlns="http://www.w3.org/2000/svg">
<rect x="257.605" y="15.9512" width="387" height="256" rx="50" fill="#FBFCFD"/>
<path fill-rule="evenodd" clip-rule="evenodd" d="M346.612 8C355.329 8 362.963 13.6768 366.055 21.8268C371.606 36.4541 379.056 51.8471 387.763 61C402.252 76.2323 416.741 76.2817 430 76.3269C434.585 76.3425 439.023 76.3576 443.263 77C459.763 79.5 481.763 84.5 493.263 108C504.51 130.983 524.844 151.097 550.522 158.986C551.676 159.341 552.863 159.563 554.068 159.632C564.738 160.244 595.734 159.813 610.763 159.5C634.521 159.5 662.757 176.667 676.772 217.126C677.45 219.082 677.763 221.153 677.763 223.223V262C677.763 273.046 668.808 282 657.763 282H253.763C242.717 282 233.763 273.046 233.763 262V28C233.763 16.9543 242.717 8 253.763 8H346.612Z" fill="#F0F3F6"/>
<path d="M440.012 244.041H295.394C293.075 244.041 291.194 242.16 291.194 239.841V159.749C291.194 157.43 293.075 155.549 295.394 155.549H440.023C442.343 155.549 444.223 157.43 444.223 159.749V239.852C444.212 242.172 442.331 244.041 440.012 244.041Z" fill="white"/>
<path d="M318.265 193.052L342.981 172.801L367.697 193.052L392.425 179.551L417.142 172.801" stroke="#40C1AC" stroke-miterlimit="10" stroke-linecap="round"/>
<path d="M318.265 213.304L342.981 199.803L367.697 206.553H392.425L417.142 193.053" stroke="#C4D0D9" stroke-miterlimit="10" stroke-linecap="round"/>
<path d="M318.265 226.802L342.981 220.051L367.697 213.301L392.425 226.802L417.142 206.551" stroke="#C4D0D9" stroke-miterlimit="10" stroke-linecap="round"/>
<path d="M291.194 130.284V45.9718C291.194 44.7886 292.131 43.8242 293.28 43.8242H442.137C443.287 43.8242 444.223 44.7886 444.223 45.9718V130.284C444.223 131.467 443.287 132.432 442.137 132.432H293.29C292.131 132.432 291.194 131.467 291.194 130.284Z" fill="white"/>
<path d="M433.579 92.4253L400.647 74.4361L367.715 83.4249H334.783L301.839 65.4473" stroke="#CDD7DF" stroke-miterlimit="10" stroke-linecap="round"/>
<path d="M433.579 110.404L400.647 101.415L367.715 92.4261L334.783 110.404L301.839 83.4258" stroke="#40C1AC" stroke-miterlimit="10" stroke-linecap="round"/>
<path d="M301.839 67.7315C303.101 67.7315 304.124 66.7086 304.124 65.4468C304.124 64.185 303.101 63.1621 301.839 63.1621C300.577 63.1621 299.554 64.185 299.554 65.4468C299.554 66.7086 300.577 67.7315 301.839 67.7315Z" fill="#CDD7DF" stroke="#CDD7DF" stroke-width="0.5" stroke-miterlimit="10" stroke-linecap="round"/>
<path d="M334.783 85.71C336.045 85.71 337.067 84.6871 337.067 83.4253C337.067 82.1635 336.045 81.1406 334.783 81.1406C333.521 81.1406 332.498 82.1635 332.498 83.4253C332.498 84.6871 333.521 85.71 334.783 85.71Z" fill="#CDD7DF" stroke="#CDD7DF" stroke-width="0.5" stroke-miterlimit="10" stroke-linecap="round"/>
<path d="M367.714 85.71C368.976 85.71 369.999 84.6871 369.999 83.4253C369.999 82.1635 368.976 81.1406 367.714 81.1406C366.453 81.1406 365.43 82.1635 365.43 83.4253C365.43 84.6871 366.453 85.71 367.714 85.71Z" fill="#CDD7DF" stroke="#CDD7DF" stroke-width="0.5" stroke-miterlimit="10" stroke-linecap="round"/>
<path d="M400.647 76.7198C401.908 76.7198 402.931 75.697 402.931 74.4351C402.931 73.1733 401.908 72.1504 400.647 72.1504C399.385 72.1504 398.362 73.1733 398.362 74.4351C398.362 75.697 399.385 76.7198 400.647 76.7198Z" fill="#CDD7DF" stroke="#CDD7DF" stroke-width="0.5" stroke-miterlimit="10" stroke-linecap="round"/>
<path d="M433.579 94.7101C434.84 94.7101 435.863 93.6871 435.863 92.4253C435.863 91.1635 434.84 90.1406 433.579 90.1406C432.317 90.1406 431.294 91.1635 431.294 92.4253C431.294 93.6871 432.317 94.7101 433.579 94.7101Z" fill="#CDD7DF" stroke="#CDD7DF" stroke-width="0.5" stroke-miterlimit="10" stroke-linecap="round"/>
<path d="M433.579 113.091C434.84 113.091 435.863 112.068 435.863 110.806C435.863 109.544 434.84 108.521 433.579 108.521C432.317 108.521 431.294 109.544 431.294 110.806C431.294 112.068 432.317 113.091 433.579 113.091Z" fill="#40C1AC" stroke="#40C1AC" stroke-width="0.5" stroke-miterlimit="10" stroke-linecap="round"/>
<path d="M368.038 94.7101C369.299 94.7101 370.322 93.6871 370.322 92.4253C370.322 91.1635 369.299 90.1406 368.038 90.1406C366.776 90.1406 365.753 91.1635 365.753 92.4253C365.753 93.6871 366.776 94.7101 368.038 94.7101Z" fill="#40C1AC" stroke="#40C1AC" stroke-width="0.5" stroke-miterlimit="10" stroke-linecap="round"/>
<path d="M334.783 112.064C336.045 112.064 337.067 111.041 337.067 109.779C337.067 108.517 336.045 107.494 334.783 107.494C333.521 107.494 332.498 108.517 332.498 109.779C332.498 111.041 333.521 112.064 334.783 112.064Z" fill="#40C1AC" stroke="#40C1AC" stroke-width="0.5" stroke-miterlimit="10" stroke-linecap="round"/>
<path d="M301.839 85.71C303.101 85.71 304.124 84.6871 304.124 83.4253C304.124 82.1635 303.101 81.1406 301.839 81.1406C300.577 81.1406 299.554 82.1635 299.554 83.4253C299.554 84.6871 300.577 85.71 301.839 85.71Z" fill="#40C1AC" stroke="#40C1AC" stroke-width="0.5" stroke-miterlimit="10" stroke-linecap="round"/>
<path d="M400.647 103.444C401.908 103.444 402.931 102.421 402.931 101.16C402.931 99.8979 401.908 98.875 400.647 98.875C399.385 98.875 398.362 99.8979 398.362 101.16C398.362 102.421 399.385 103.444 400.647 103.444Z" fill="#40C1AC" stroke="#40C1AC" stroke-width="0.5" stroke-miterlimit="10" stroke-linecap="round"/>
<path d="M467.224 130.284V45.9718C467.224 44.7886 468.16 43.8242 469.31 43.8242H618.167C619.316 43.8242 620.253 44.7886 620.253 45.9718V130.284C620.253 131.467 619.316 132.432 618.167 132.432H469.319C468.16 132.432 467.224 131.467 467.224 130.284Z" fill="white"/>
<rect x="487.241" y="85.2227" width="10" height="20.2098" fill="#E4EAEE"/>
<rect x="507.241" y="71.2109" width="10" height="34.2207" fill="#D4DDE3"/>
<rect x="527.241" y="97.8047" width="10" height="7.62975" fill="#E4EAEE"/>
<rect x="547.241" y="79.0977" width="10" height="26.3347" fill="#CBD6DE"/>
<rect x="567.241" y="75.2891" width="10" height="30.142" fill="#E4EAEE"/>
<rect x="587.241" y="66.793" width="10" height="38.6387" fill="#C9D4DC"/>
<path d="M483.863 113.092L603.613 113.092" stroke="#CDD7DF"/>
<path d="M467.224 241.891V157.579C467.224 156.396 468.16 155.432 469.31 155.432H618.167C619.316 155.432 620.253 156.396 620.253 157.579V241.891C620.253 243.075 619.316 244.039 618.167 244.039H469.319C468.16 244.039 467.224 243.075 467.224 241.891Z" fill="white"/>
<path d="M565.767 229.844L568.342 229.613L568.199 231.913L567.308 233.432L565.921 234.466L564.743 234.213L563.852 232.221L563.83 231.143L563.17 229.404L563.5 228.7L565.767 229.844ZM580.107 207.217L580.096 207.052L579.722 201.241L577.191 197.587L576.904 195.716L575.309 195.243L574.186 190.742L569.96 187.176L569.872 184.458L569.124 183.148L568.749 179.494L567.253 178.185H566.218L565.371 174.245L563.962 171.24L562.366 174.806L562.091 179.968L558.999 184.568L554.96 182.224L554.872 182.169L549.985 178.57L552.142 174.916L552.803 173.507H551.493L551.207 172.759L549.05 173.419L544.174 171.824L544.361 173.32L541.544 173.507L538.451 177.821L539.112 179.043L537.824 179.087L535.469 178.207L533.312 177.271L529.372 180.925L529.746 182.521H527.776L527.963 184.205L526.467 182.983L525.058 184.865L525.619 186.736L523.836 189.553L516.055 192.833L513.337 195.738L512.589 196.773L511.84 195.837L511.928 200.063L513.711 203.629L512.776 204.851L515.868 209.352L518.212 214.139L518.774 216.671L517.926 217.419V218.729L522.24 219.664L525.245 217.32L530.968 216.197L532.277 214.139L534.534 212.918L539.508 211.322V211.311L543.063 210.86L546.342 211.795L548.125 214.051L550.095 216.957L553.518 214.194L552.604 217.496L554.409 216.704L554.31 218.553L555.719 218.652L556.192 221.37L558.261 223.527L558.283 223.538L561.266 225.222L563.797 224.187L565.767 225.783L568.111 224.286L571.864 223.252L571.875 223.23L573.086 220.446L575.716 216.131L578.808 211.817L580.217 208.626L580.107 207.217Z" fill="#D4DDE3"/>
<path d="M562.906 223.903C563.66 223.903 564.271 223.292 564.271 222.538C564.271 221.785 563.66 221.174 562.906 221.174C562.152 221.174 561.542 221.785 561.542 222.538C561.542 223.292 562.152 223.903 562.906 223.903Z" fill="#34B9B3"/>
<path d="M570.61 213.999C571.363 213.999 571.974 213.388 571.974 212.634C571.974 211.881 571.363 211.27 570.61 211.27C569.856 211.27 569.245 211.881 569.245 212.634C569.245 213.388 569.856 213.999 570.61 213.999Z" fill="#34B9B3"/>
<path d="M577.213 202.993C577.967 202.993 578.578 202.382 578.578 201.628C578.578 200.875 577.967 200.264 577.213 200.264C576.46 200.264 575.849 200.875 575.849 201.628C575.849 202.382 576.46 202.993 577.213 202.993Z" fill="#34B9B3"/>
<path d="M577.213 210.696C577.967 210.696 578.578 210.085 578.578 209.331C578.578 208.578 577.967 207.967 577.213 207.967C576.46 207.967 575.849 208.578 575.849 209.331C575.849 210.085 576.46 210.696 577.213 210.696Z" fill="#34B9B3"/>
<path d="M550.8 213.999C551.554 213.999 552.165 213.388 552.165 212.634C552.165 211.881 551.554 211.27 550.8 211.27C550.047 211.27 549.436 211.881 549.436 212.634C549.436 213.388 550.047 213.999 550.8 213.999Z" fill="#34B9B3"/>
<path d="M515.582 200.792C516.336 200.792 516.947 200.181 516.947 199.427C516.947 198.673 516.336 198.062 515.582 198.062C514.829 198.062 514.218 198.673 514.218 199.427C514.218 200.181 514.829 200.792 515.582 200.792Z" fill="#34B9B3"/>
<path d="M511.841 20.9578C511.841 28.103 517.653 33.9156 524.799 33.9156C531.944 33.9156 537.756 28.103 537.756 20.9578C537.756 13.8126 531.944 8 524.799 8C517.653 8 511.841 13.8126 511.841 20.9578Z" fill="#F0F3F6"/>
<path d="M514.645 20.958H525.068L531.412 25.3563" stroke="#C4D0D9" stroke-miterlimit="10" stroke-linecap="round" stroke-linejoin="round"/>
<path d="M525.068 22.4938C525.917 22.4938 526.605 21.8057 526.605 20.9569C526.605 20.108 525.917 19.4199 525.068 19.4199C524.219 19.4199 523.531 20.108 523.531 20.9569C523.531 21.8057 524.219 22.4938 525.068 22.4938Z" fill="#C4D0D9" stroke="#C4D0D9" stroke-width="0.5" stroke-miterlimit="10" stroke-linecap="round" stroke-linejoin="round"/>
<path d="M553.085 20.9578C553.085 28.103 558.898 33.9156 566.043 33.9156C573.188 33.9156 579.001 28.103 579.001 20.9578C579.001 13.8126 573.188 8 566.043 8C558.898 8 553.085 13.8126 553.085 20.9578Z" fill="#F0F3F6"/>
<path d="M576.335 20.958H566.312L570.457 28.4302" stroke="#C4D0D9" stroke-miterlimit="10" stroke-linecap="round" stroke-linejoin="round"/>
<path d="M566.312 22.4938C567.161 22.4938 567.849 21.8057 567.849 20.9569C567.849 20.108 567.161 19.4199 566.312 19.4199C565.464 19.4199 564.775 20.108 564.775 20.9569C564.775 21.8057 565.464 22.4938 566.312 22.4938Z" fill="#C4D0D9" stroke="#C4D0D9" stroke-width="0.5" stroke-miterlimit="10" stroke-linecap="round" stroke-linejoin="round"/>
<path d="M594.338 20.9578C594.338 28.103 600.15 33.9156 607.296 33.9156C614.441 33.9156 620.254 28.103 620.254 20.9578C620.254 13.8126 614.441 8 607.296 8C600.15 8 594.338 13.8126 594.338 20.9578Z" fill="#F0F3F6"/>
<path d="M597.142 20.958H607.565V28.4302" stroke="#C4D0D9" stroke-miterlimit="10" stroke-linecap="round" stroke-linejoin="round"/>
<path d="M607.565 22.4938C608.414 22.4938 609.102 21.8057 609.102 20.9569C609.102 20.108 608.414 19.4199 607.565 19.4199C606.716 19.4199 606.028 20.108 606.028 20.9569C606.028 21.8057 606.716 22.4938 607.565 22.4938Z" fill="#C4D0D9" stroke="#C4D0D9" stroke-width="0.5" stroke-miterlimit="10" stroke-linecap="round" stroke-linejoin="round"/>
<path d="M253.015 143.615L257.087 177.011V192.425H280.94V181.288C280.94 181.288 293.348 179.888 293.784 171.95C294.093 166.812 285.911 129.909 285.911 129.909L253.015 143.615Z" fill="#D9E0E6"/>
<path d="M261.069 183.289C258.115 181.285 256.625 179.949 255.327 176.623C254.03 173.296 253.195 169.802 251.718 166.552C250.241 163.303 247.865 160.066 246.4 156.649C244.936 153.232 244.088 149.186 245.578 145.757C245.578 145.757 246.118 141.351 252.001 139.745C252.001 139.745 255.353 130.407 263.034 129.534C273.49 128.339 273.13 125.269 279.951 122.662C280.74 122.285 281.596 122.068 282.47 122.025C283.344 121.981 284.218 122.111 285.041 122.408C285.864 122.704 286.62 123.16 287.265 123.751C287.911 124.341 288.433 125.054 288.801 125.847C288.801 125.847 293.001 127.774 293.939 131.615V131.717C294.397 133.626 294.229 135.631 293.461 137.437C292.694 139.243 291.366 140.755 289.674 141.749L288.39 142.494C287.13 143.083 286.03 143.964 285.179 145.063C284.048 146.784 284.292 149.045 284.793 151.036C285.488 152.979 285.807 155.036 285.731 157.099C285.641 157.792 285.243 158.627 284.536 158.589C283.83 158.55 283.509 157.433 283.252 156.636C282.52 154.311 279.09 153.155 277.318 155.352C276.762 155.989 276.444 156.798 276.416 157.643C276.388 158.487 276.652 159.316 277.163 159.989C278.307 161.492 280.323 162.429 281.017 164.215C282.301 167.207 279.167 170.637 278.127 172.692C277.767 173.406 277.337 174.081 276.842 174.709C274.459 177.793 271.491 180.376 268.108 182.313C266.906 183.113 265.51 183.574 264.067 183.647C262.624 183.719 261.189 183.4 259.913 182.724" fill="#C4D0D9"/>
<path d="M371.764 223.581C376.157 221.706 378.983 220.011 381.937 218.945C385.559 217.66 386.972 216.825 386.677 216.157C386.292 215.271 386.471 215.592 379.535 217.056C379.535 217.056 389.426 214.886 386.908 213.665C385.803 213.139 377.57 214.86 377.57 214.86C384.313 214.076 386.728 212.728 386.561 211.713C386.317 210.236 376.285 212.407 376.285 212.407C379.289 211.857 382.257 211.128 385.174 210.223C386.458 209.542 384.827 208.938 383.35 208.746C381.873 208.553 371.931 208.913 369.105 208.861C368.866 208.886 368.625 208.858 368.397 208.78C368.17 208.702 367.963 208.576 367.789 208.41C367.616 208.244 367.48 208.042 367.393 207.818C367.305 207.594 367.267 207.354 367.281 207.114C368.103 203.094 366.613 199.523 365.753 198.753C365.536 198.613 365.281 198.541 365.023 198.548C364.765 198.555 364.515 198.64 364.305 198.791C364.096 198.942 363.937 199.153 363.849 199.396C363.761 199.639 363.749 199.902 363.813 200.153C364.004 201.529 364.004 202.925 363.813 204.301C363.693 205.403 363.385 206.477 362.901 207.474C362.336 208.643 361.809 209.594 361.347 210.403L347.346 225.714L353.396 240.241L371.764 223.581Z" fill="#D9E0E6"/>
<path d="M375.348 218.034C376.973 217.967 378.583 217.695 380.139 217.225C381.745 216.955 383.308 216.476 384.789 215.799C383.164 215.853 381.553 216.121 379.998 216.595C378.39 216.863 376.826 217.347 375.348 218.034Z" fill="#C4D0D9"/>
<path d="M374.538 215.426C376.267 215.444 377.992 215.254 379.676 214.861C381.403 214.67 383.098 214.265 384.724 213.653C381.259 213.813 377.829 214.409 374.513 215.426H374.538Z" fill="#C4D0D9"/>
<path d="M373.678 212.714C375.322 212.779 376.968 212.623 378.572 212.251C380.21 212.1 381.821 211.733 383.363 211.159C381.719 211.11 380.075 211.265 378.469 211.622C376.831 211.772 375.22 212.14 373.678 212.714Z" fill="#C4D0D9"/>
<path d="M356.877 214.169C355.593 214.002 314.965 245.702 314.965 245.702L340.924 256.107L367.243 230.006C367.243 230.006 368.926 215.826 356.877 214.169Z" fill="#CBD6DE"/>
<path d="M247.658 187.593C278.091 187.311 273.141 187.311 284.856 187.311C291.113 187.285 297.137 189.678 301.67 193.99C306.836 199.104 311.31 204.874 314.977 211.151L332.408 235.389L343.12 253.371L340.937 256.12C338.482 259.311 335.027 261.585 331.127 262.579C327.226 263.574 323.104 263.231 319.422 261.605C315.889 259.948 313.307 256.878 310.906 253.346C306.525 246.923 301.914 239.961 298.934 234.657C298.934 234.657 300.718 280.04 295.517 288.938C290.316 297.836 281.609 303.035 257.717 299.938C233.826 296.841 223.255 288.935 222.986 276.268C222.264 242.313 217.225 187.876 247.658 187.593Z" fill="#CBD6DE"/>
<path d="M634.027 138.631L633.811 201.526L612.934 201.493L614.241 175.8L605.639 176.719C602.014 177.312 598.665 174.646 598.419 170.98C598.307 169.367 598.225 167.764 598.144 166.161H595.836C595.07 166.161 594.508 165.436 594.713 164.69L597.96 152.682C598.021 150.027 598.144 147.402 598.338 144.839V144.809C598.644 141.061 601.575 138.079 605.312 137.65C607.405 137.416 609.499 137.242 611.623 137.16C618.955 136.854 626.429 137.405 634.027 138.631Z" fill="#D9E0E6"/>
<path d="M662.026 166.651C662.026 172.971 656.91 178.087 650.579 178.087C649.946 178.087 649.333 178.026 648.721 177.924C649.262 179.527 649.405 181.314 648.915 183.193C647.955 186.808 644.799 189.545 641.072 189.933C640.705 189.973 640.337 189.984 639.98 189.984C635.262 189.922 631.412 186.267 631.014 181.641L630.973 181.651V168.703C630.973 166.038 629.993 163.424 628.124 161.514C626.725 160.085 625.377 158.165 625.592 156.245C621.374 153.468 617.351 148.862 615.299 143.951L599.808 141.418C599.246 141.326 599.011 140.632 599.399 140.213C604.577 134.74 612.194 132.289 620.854 131.105C621.803 125.703 625.735 121.312 630.902 119.739C632.362 119.29 633.934 119.065 635.558 119.117C641.685 119.29 647.046 123.467 648.955 129.297C649.915 132.197 649.813 134.965 649.129 137.456C649.292 137.446 649.446 137.436 649.599 137.436C654.858 137.436 659.116 141.704 659.116 146.953C659.116 150.803 656.818 154.121 653.53 155.612C658.421 156.909 662.026 161.351 662.026 166.651Z" fill="#C4D0D9"/>
<path d="M631.341 157.664C631.341 158.481 630.973 159.277 630.289 159.808L624.673 164.077L623.968 164.618V157.072L627.389 155.325L627.461 155.285C628.778 154.611 630.391 155.142 631.065 156.469C631.259 156.857 631.341 157.266 631.341 157.664Z" fill="#F0F3F6"/>
<path d="M627.359 173.932H620.589C620.282 173.932 620.068 173.625 620.16 173.339L623.009 164.629L623.019 164.578C623.325 163.659 624.622 163.659 624.928 164.578L627.788 173.339C627.879 173.625 627.665 173.932 627.359 173.932Z" fill="white"/>
<path d="M520.917 252.539C521.291 253.363 522.081 254.001 523.228 254.043L532.106 254.374L530.305 256.702C529.71 257.458 530.636 258.461 531.443 257.934L536.659 254.544L537.22 254.57C553.666 253.567 576.383 262.564 587.656 246.559C593.118 237.783 600.993 224.93 607.645 213.937C608.741 212.119 609.811 210.352 610.822 208.67C611.927 206.835 612.972 205.093 613.94 203.471C621.645 190.414 601.52 178.911 594.206 192.232C592.209 195.876 589.882 200.209 587.426 204.796C586.934 205.722 586.441 206.657 585.931 207.6C581.089 216.689 575.966 226.425 572.152 233.654C571.396 234.844 571.039 236.721 569.425 237.061C557.939 239.474 548.153 242.957 537.22 244.996L522.659 248.776C521.682 249.031 521.07 249.676 520.807 250.433C520.569 251.112 520.611 251.885 520.917 252.539Z" fill="#D9E0E6"/>
<path d="M584.258 203.529C586.781 198.797 589.176 194.345 591.215 190.616C593.781 185.833 598.767 182.868 604.23 182.868C606.897 182.868 609.514 183.599 611.791 184.975C615.172 187.005 611.723 190.556 612.683 194.379C613.643 198.202 618.884 201.838 616.862 205.211C614.874 208.549 611.468 214.19 608.512 219.083L584.258 203.529Z" fill="#C4D0D9"/>
<path d="M591.627 278.414C591.627 278.414 583.813 288.206 608.835 293.187C633.856 298.168 669.119 278.414 669.119 278.414L645.441 185.137H636.283L633.856 186.927C630.536 193.598 624.593 193.598 623.583 193.598C622.573 193.598 616.487 193.772 613.073 186.927C612.018 186.462 611.618 186.25 608.835 186.25L603.67 193.598L591.627 278.414Z" fill="#C4D0D9"/>
<path d="M610.1 225.684L617.219 240.508C617.814 241.74 618.536 242.904 619.377 243.983C620.711 245.682 622.333 247.134 624.168 248.29L625.901 249.377C629.97 252.138 634.286 254.822 638.687 257.397L638.729 257.422C647.641 262.647 656.883 267.438 665.09 271.592C669.21 272.917 672.166 272.688 674.18 271.278C687.543 261.924 659.576 200.393 654.675 191.023C650.877 184.083 643.614 183.972 638.678 187.277C634.176 190.284 631.61 196.146 635.416 202.262C644.65 216.883 649.331 229.294 654.751 245.877C654.76 245.911 654.776 245.953 654.785 245.987C646.341 242.836 638.151 239.93 629.801 238.087C629.189 237.857 628.603 237.603 628.025 237.314L624.33 228.759C624.143 228.317 623.777 228.096 623.404 228.045C622.673 227.952 621.866 228.513 622.01 229.422C622.01 229.422 622.282 231.248 622.597 233.347L612.343 224.019C611.927 223.636 611.434 223.568 611.001 223.704C610.228 223.925 609.667 224.792 610.1 225.684Z" fill="#D9E0E6"/>
<path d="M632.553 204.098C635.484 208.736 638.245 213.655 640.853 218.862L648.66 215.787L666.653 208.694C663.926 201.991 660.944 195.577 657.682 189.426C655.133 184.678 650.215 181.738 644.837 181.738C643.359 181.738 641.889 181.968 640.479 182.409C639.613 182.681 638.772 183.03 637.964 183.463C634.43 185.34 631.805 188.67 630.778 192.587C629.741 196.511 630.387 200.708 632.553 204.098Z" fill="#C4D0D9"/>
<path d="M314.656 335.223C314.656 338.759 317.152 341.127 320.64 341.127C324.176 341.063 326.672 338.695 326.672 335.159C326.672 331.527 324.176 329.159 320.64 329.223C317.152 329.223 314.656 331.591 314.656 335.223ZM316.768 335.095C316.768 332.839 318.32 331.047 320.656 331.047C323.008 331.047 324.56 332.839 324.56 335.095C324.56 337.511 323.008 339.303 320.656 339.303C318.32 339.303 316.768 337.511 316.768 335.095ZM328.032 336.999C328.032 339.415 329.888 341.031 332.208 341.031C334.528 341.031 336.384 339.415 336.384 336.999C336.384 334.583 334.528 332.967 332.208 332.967C329.888 332.967 328.032 334.583 328.032 336.999ZM329.952 336.999C329.952 335.799 330.8 334.695 332.208 334.695C333.616 334.695 334.464 335.799 334.464 336.999C334.464 338.199 333.616 339.303 332.208 339.303C330.8 339.303 329.952 338.199 329.952 336.999ZM338.182 344.487H340.102V339.863H340.15C340.55 340.359 341.318 341.031 342.758 341.031C344.95 341.031 346.47 339.271 346.47 336.999C346.47 334.727 345.046 332.967 342.678 332.967C341.606 332.967 340.598 333.383 340.038 334.311H340.006V333.159H338.182V344.487ZM344.55 336.999C344.55 338.199 343.702 339.303 342.294 339.303C340.886 339.303 340.038 338.199 340.038 336.999C340.038 335.799 340.886 334.695 342.294 334.695C343.702 334.695 344.55 335.799 344.55 336.999ZM353.636 334.135C353.012 333.287 351.924 332.967 350.9 332.967C349.348 332.967 347.812 333.735 347.812 335.447C347.812 338.375 351.956 337.127 351.956 338.711C351.956 339.319 351.236 339.591 350.676 339.591C349.86 339.591 349.348 339.191 348.852 338.647L347.572 339.847C348.356 340.727 349.38 341.031 350.564 341.031C352.132 341.031 353.876 340.391 353.876 338.567C353.876 335.575 349.732 336.695 349.732 335.319C349.732 334.743 350.34 334.503 350.852 334.503C351.508 334.503 351.988 334.775 352.356 335.287L353.636 334.135ZM357.609 329.511H355.689V337.287H357.609V329.511ZM355.369 339.719C355.369 340.407 355.977 340.935 356.649 340.935C357.353 340.935 357.929 340.375 357.929 339.687C357.929 338.999 357.337 338.471 356.649 338.471C355.945 338.471 355.369 339.031 355.369 339.719ZM364.87 340.839H366.79V328.743H364.87V340.839ZM368.61 336.999C368.61 339.415 370.466 341.031 372.786 341.031C375.106 341.031 376.962 339.415 376.962 336.999C376.962 334.583 375.106 332.967 372.786 332.967C370.466 332.967 368.61 334.583 368.61 336.999ZM370.53 336.999C370.53 335.799 371.378 334.695 372.786 334.695C374.194 334.695 375.042 335.799 375.042 336.999C375.042 338.199 374.194 339.303 372.786 339.303C371.378 339.303 370.53 338.199 370.53 336.999ZM378.376 336.999C378.376 339.415 380.232 341.031 382.552 341.031C384.872 341.031 386.728 339.415 386.728 336.999C386.728 334.583 384.872 332.967 382.552 332.967C380.232 332.967 378.376 334.583 378.376 336.999ZM380.296 336.999C380.296 335.799 381.144 334.695 382.552 334.695C383.96 334.695 384.808 335.799 384.808 336.999C384.808 338.199 383.96 339.303 382.552 339.303C381.144 339.303 380.296 338.199 380.296 336.999ZM388.526 340.839H390.446V336.919H390.478L393.534 340.839H396.078L392.574 336.647L395.87 333.159H393.406L390.446 336.343V328.743H388.526V340.839ZM402.495 334.135C401.871 333.287 400.783 332.967 399.759 332.967C398.207 332.967 396.671 333.735 396.671 335.447C396.671 338.375 400.815 337.127 400.815 338.711C400.815 339.319 400.095 339.591 399.535 339.591C398.719 339.591 398.207 339.191 397.711 338.647L396.431 339.847C397.215 340.727 398.239 341.031 399.423 341.031C400.991 341.031 402.735 340.391 402.735 338.567C402.735 335.575 398.591 336.695 398.591 335.319C398.591 334.743 399.199 334.503 399.711 334.503C400.367 334.503 400.847 334.775 401.215 335.287L402.495 334.135ZM408.995 340.839H410.915V328.743H408.995V340.839ZM413.151 340.839H415.071V333.159H413.151V340.839ZM412.879 330.551C412.879 331.159 413.391 331.703 414.095 331.703C414.799 331.703 415.343 331.207 415.343 330.551C415.343 329.895 414.799 329.399 414.095 329.399C413.391 329.399 412.879 329.943 412.879 330.551ZM417.276 340.839H419.196V336.919H419.228L422.284 340.839H424.828L421.324 336.647L424.62 333.159H422.156L419.196 336.343V328.743H417.276V340.839ZM433.261 337.671V337.143C433.261 334.471 431.805 332.967 429.661 332.967C427.341 332.967 425.485 334.583 425.485 336.999C425.485 339.415 427.341 341.031 429.661 341.031C430.877 341.031 432.013 340.599 432.909 339.495L431.533 338.455C431.053 339.047 430.429 339.495 429.469 339.495C428.397 339.495 427.533 338.807 427.405 337.671H433.261ZM427.405 336.231C427.549 335.127 428.253 334.407 429.389 334.407C430.589 334.407 431.325 335.111 431.341 336.231H427.405ZM440.479 334.791V338.311C440.479 340.119 440.959 341.031 442.991 341.031C443.439 341.031 444.111 340.967 444.511 340.775V339.159C444.271 339.335 443.807 339.399 443.471 339.399C442.623 339.399 442.399 338.919 442.399 338.151V334.791H444.511V333.159H442.399V330.935H440.479V333.159H438.895V334.791H440.479ZM447.93 328.743H446.01V340.839H447.93V336.647C447.93 335.623 448.426 334.695 449.69 334.695C451.034 334.695 451.098 336.103 451.098 336.951V340.839H453.018V335.991C453.018 334.423 452.282 332.967 450.218 332.967C449.034 332.967 448.266 333.591 447.962 334.231H447.93V328.743ZM462.589 337.671V337.143C462.589 334.471 461.133 332.967 458.989 332.967C456.669 332.967 454.813 334.583 454.813 336.999C454.813 339.415 456.669 341.031 458.989 341.031C460.205 341.031 461.341 340.599 462.237 339.495L460.861 338.455C460.381 339.047 459.757 339.495 458.797 339.495C457.725 339.495 456.861 338.807 456.733 337.671H462.589ZM456.733 336.231C456.877 335.127 457.581 334.407 458.717 334.407C459.917 334.407 460.653 335.111 460.669 336.231H456.733ZM464.385 340.839H466.305V336.727C466.305 336.311 466.561 334.791 468.369 334.791C468.673 334.791 468.977 334.855 469.297 334.935V333.079C469.073 333.015 468.849 332.967 468.609 332.967C467.601 332.967 466.753 333.495 466.337 334.375H466.305V333.159H464.385V340.839ZM477.714 337.671V337.143C477.714 334.471 476.258 332.967 474.114 332.967C471.794 332.967 469.938 334.583 469.938 336.999C469.938 339.415 471.794 341.031 474.114 341.031C475.33 341.031 476.466 340.599 477.362 339.495L475.986 338.455C475.506 339.047 474.882 339.495 473.922 339.495C472.85 339.495 471.986 338.807 471.858 337.671H477.714ZM471.858 336.231C472.002 335.127 472.706 334.407 473.842 334.407C475.042 334.407 475.778 335.111 475.794 336.231H471.858ZM489.044 340.839H490.772V336.423C490.772 335.335 490.772 332.967 487.492 332.967C486.276 332.967 485.076 333.335 484.228 334.199L485.236 335.207C485.748 334.727 486.484 334.407 487.284 334.407C488.308 334.407 489.044 334.903 489.044 335.847V336.055H488.564C486.644 336.055 483.732 336.231 483.732 338.727C483.732 340.247 485.108 341.031 486.532 341.031C487.556 341.031 488.452 340.647 488.996 339.783H489.044V340.839ZM488.932 337.831C488.932 338.903 488.308 339.591 486.996 339.591C486.372 339.591 485.652 339.287 485.652 338.583C485.652 337.479 487.476 337.399 488.532 337.399H488.932V337.831ZM492.838 340.839H494.758V336.727C494.758 336.311 495.014 334.791 496.822 334.791C497.126 334.791 497.43 334.855 497.75 334.935V333.079C497.526 333.015 497.302 332.967 497.062 332.967C496.054 332.967 495.206 333.495 494.79 334.375H494.758V333.159H492.838V340.839ZM506.168 337.671V337.143C506.168 334.471 504.712 332.967 502.568 332.967C500.248 332.967 498.392 334.583 498.392 336.999C498.392 339.415 500.248 341.031 502.568 341.031C503.784 341.031 504.92 340.599 505.816 339.495L504.44 338.455C503.96 339.047 503.336 339.495 502.376 339.495C501.304 339.495 500.44 338.807 500.312 337.671H506.168ZM500.312 336.231C500.456 335.127 501.16 334.407 502.296 334.407C503.496 334.407 504.232 335.111 504.248 336.231H500.312ZM512.697 340.839H514.617V336.647C514.617 335.623 515.113 334.695 516.377 334.695C517.721 334.695 517.785 336.103 517.785 336.951V340.839H519.705V335.991C519.705 334.423 518.969 332.967 516.905 332.967C515.625 332.967 514.905 333.623 514.553 334.391H514.521V333.159H512.697V340.839ZM521.501 336.999C521.501 339.415 523.357 341.031 525.677 341.031C527.997 341.031 529.853 339.415 529.853 336.999C529.853 334.583 527.997 332.967 525.677 332.967C523.357 332.967 521.501 334.583 521.501 336.999ZM523.421 336.999C523.421 335.799 524.269 334.695 525.677 334.695C527.085 334.695 527.933 335.799 527.933 336.999C527.933 338.199 527.085 339.303 525.677 339.303C524.269 339.303 523.421 338.199 523.421 336.999ZM542.961 334.135C542.225 333.319 541.153 332.967 540.177 332.967C537.857 332.967 536.001 334.583 536.001 336.999C536.001 339.415 537.857 341.031 540.177 341.031C540.849 341.031 542.161 340.743 542.945 339.959L541.665 338.583C541.313 339.047 540.769 339.303 540.177 339.303C538.769 339.303 537.921 338.199 537.921 336.999C537.921 335.799 538.769 334.695 540.177 334.695C540.689 334.695 541.185 334.999 541.633 335.463L542.961 334.135ZM546.024 328.743H544.104V340.839H546.024V336.647C546.024 335.623 546.52 334.695 547.784 334.695C549.128 334.695 549.192 336.103 549.192 336.951V340.839H551.112V335.991C551.112 334.423 550.376 332.967 548.312 332.967C547.128 332.967 546.36 333.591 546.056 334.231H546.024V328.743ZM558.091 340.839H559.819V336.423C559.819 335.335 559.819 332.967 556.539 332.967C555.323 332.967 554.123 333.335 553.275 334.199L554.283 335.207C554.795 334.727 555.531 334.407 556.331 334.407C557.355 334.407 558.091 334.903 558.091 335.847V336.055H557.611C555.691 336.055 552.779 336.231 552.779 338.727C552.779 340.247 554.155 341.031 555.579 341.031C556.603 341.031 557.499 340.647 558.043 339.783H558.091V340.839ZM557.979 337.831C557.979 338.903 557.355 339.591 556.043 339.591C555.419 339.591 554.699 339.287 554.699 338.583C554.699 337.479 556.523 337.399 557.579 337.399H557.979V337.831ZM561.885 340.839H563.805V336.727C563.805 336.311 564.061 334.791 565.869 334.791C566.173 334.791 566.477 334.855 566.797 334.935V333.079C566.573 333.015 566.349 332.967 566.109 332.967C565.101 332.967 564.253 333.495 563.837 334.375H563.805V333.159H561.885V340.839ZM568.792 334.791V338.311C568.792 340.119 569.272 341.031 571.304 341.031C571.752 341.031 572.424 340.967 572.824 340.775V339.159C572.584 339.335 572.12 339.399 571.784 339.399C570.936 339.399 570.712 338.919 570.712 338.151V334.791H572.824V333.159H570.712V330.935H568.792V333.159H567.208V334.791H568.792ZM579.698 334.135C579.074 333.287 577.986 332.967 576.962 332.967C575.41 332.967 573.874 333.735 573.874 335.447C573.874 338.375 578.018 337.127 578.018 338.711C578.018 339.319 577.298 339.591 576.738 339.591C575.922 339.591 575.41 339.191 574.914 338.647L573.634 339.847C574.418 340.727 575.442 341.031 576.626 341.031C578.194 341.031 579.938 340.391 579.938 338.567C579.938 335.575 575.794 336.695 575.794 335.319C575.794 334.743 576.402 334.503 576.914 334.503C577.57 334.503 578.05 334.775 578.418 335.287L579.698 334.135ZM581.432 339.719C581.432 340.407 582.04 340.935 582.712 340.935C583.416 340.935 583.992 340.375 583.992 339.687C583.992 338.999 583.4 338.471 582.712 338.471C582.008 338.471 581.432 339.031 581.432 339.719Z" fill="#333333"/>
<path d="M352.408 364.839H353.88L356.696 355.239H356.728L359.528 364.839H360.984L364.312 353.511H362.904L360.28 362.919H360.248L357.48 353.511H355.976L353.192 362.919H353.16L350.584 353.511H349.096L352.408 364.839ZM365.685 359.127C366.277 358.583 367.109 358.311 367.909 358.311C369.077 358.311 369.765 358.871 369.765 359.959V360.183H369.285C367.445 360.183 364.565 360.327 364.565 362.807C364.565 364.263 365.829 365.031 367.349 365.031C368.485 365.031 369.317 364.487 369.813 363.719H369.845C369.845 364.039 369.845 364.503 369.925 364.839H371.125C371.061 364.455 371.013 363.975 371.013 363.543V360.327C371.013 358.215 370.085 357.159 367.877 357.159C366.789 357.159 365.669 357.527 364.901 358.311L365.685 359.127ZM369.765 361.239V361.719C369.733 362.935 368.997 363.975 367.557 363.975C366.613 363.975 365.909 363.623 365.909 362.679C365.909 361.671 366.933 361.239 368.516 361.239H369.765ZM373.293 364.839H374.541V361.191C374.541 359.479 375.245 358.311 376.861 358.311C378.029 358.311 378.573 359.095 378.573 360.343V364.839H379.821V360.215C379.821 358.407 378.941 357.159 376.973 357.159C375.741 357.159 374.813 357.847 374.477 358.583H374.445C374.445 358.167 374.413 357.751 374.413 357.351H373.229C373.229 357.847 373.293 358.439 373.293 359.127V364.839ZM386.28 357.351H384.072V355.223H382.824V357.351H381.192V358.407H382.824V362.519C382.824 364.071 383.112 365.031 384.888 365.031C385.352 365.031 385.912 364.951 386.344 364.759L386.296 363.623C385.96 363.799 385.56 363.879 385.192 363.879C384.088 363.879 384.072 363.111 384.072 362.151V358.407H386.28V357.351ZM396.358 357.351H394.15V355.223H392.902V357.351H391.27V358.407H392.902V362.519C392.902 364.071 393.19 365.031 394.966 365.031C395.43 365.031 395.99 364.951 396.422 364.759L396.374 363.623C396.038 363.799 395.638 363.879 395.27 363.879C394.166 363.879 394.15 363.111 394.15 362.151V358.407H396.358V357.351ZM397.455 361.095C397.455 363.431 399.151 365.031 401.455 365.031C403.759 365.031 405.455 363.431 405.455 361.095C405.455 358.759 403.759 357.159 401.455 357.159C399.151 357.159 397.455 358.759 397.455 361.095ZM398.799 361.095C398.799 359.527 399.839 358.311 401.455 358.311C403.071 358.311 404.111 359.527 404.111 361.095C404.111 362.663 403.071 363.879 401.455 363.879C399.839 363.879 398.799 362.663 398.799 361.095ZM418.16 358.343C417.408 357.527 416.384 357.159 415.28 357.159C412.976 357.159 411.408 358.823 411.408 361.095C411.408 363.399 412.96 365.031 415.28 365.031C416.368 365.031 417.392 364.663 418.112 363.831L417.184 362.951C416.72 363.591 416.096 363.879 415.28 363.879C413.76 363.879 412.752 362.631 412.752 361.095C412.752 359.559 413.6 358.311 415.28 358.311C416.032 358.311 416.64 358.583 417.168 359.223L418.16 358.343ZM419.559 364.839H420.807V361.191C420.807 359.479 421.479 358.407 422.999 358.407C423.223 358.407 423.463 358.439 423.671 358.503L423.751 357.239C423.575 357.175 423.399 357.159 423.239 357.159C422.007 357.159 421.079 357.847 420.743 358.583H420.711C420.711 358.167 420.679 357.751 420.679 357.351H419.495C419.495 357.847 419.559 358.439 419.559 359.127V364.839ZM430.647 362.743C430.055 363.495 429.335 363.879 428.263 363.879C426.903 363.879 425.911 362.775 425.815 361.479H431.863V361.079C431.863 358.599 430.423 357.159 428.311 357.159C426.103 357.159 424.471 358.775 424.471 361.095C424.471 363.271 425.911 365.031 428.263 365.031C429.655 365.031 430.711 364.615 431.591 363.479L430.647 362.743ZM425.815 360.423C425.975 359.159 426.887 358.311 428.263 358.311C429.639 358.311 430.471 359.159 430.519 360.423H425.815ZM434.481 359.127C435.073 358.583 435.905 358.311 436.705 358.311C437.873 358.311 438.561 358.871 438.561 359.959V360.183H438.081C436.241 360.183 433.361 360.327 433.361 362.807C433.361 364.263 434.625 365.031 436.145 365.031C437.281 365.031 438.113 364.487 438.609 363.719H438.641C438.641 364.039 438.641 364.503 438.721 364.839H439.921C439.857 364.455 439.809 363.975 439.809 363.543V360.327C439.809 358.215 438.881 357.159 436.673 357.159C435.585 357.159 434.465 357.527 433.697 358.311L434.481 359.127ZM438.561 361.239V361.719C438.529 362.935 437.793 363.975 436.353 363.975C435.409 363.975 434.705 363.623 434.705 362.679C434.705 361.671 435.729 361.239 437.313 361.239H438.561ZM446.186 357.351H443.978V355.223H442.73V357.351H441.098V358.407H442.73V362.519C442.73 364.071 443.018 365.031 444.794 365.031C445.258 365.031 445.818 364.951 446.25 364.759L446.202 363.623C445.866 363.799 445.466 363.879 445.098 363.879C443.994 363.879 443.978 363.111 443.978 362.151V358.407H446.186V357.351ZM453.459 362.743C452.867 363.495 452.147 363.879 451.075 363.879C449.715 363.879 448.723 362.775 448.627 361.479H454.675V361.079C454.675 358.599 453.235 357.159 451.123 357.159C448.915 357.159 447.283 358.775 447.283 361.095C447.283 363.271 448.723 365.031 451.075 365.031C452.467 365.031 453.523 364.615 454.403 363.479L453.459 362.743ZM448.627 360.423C448.787 359.159 449.699 358.311 451.075 358.311C452.451 358.311 453.283 359.159 453.331 360.423H448.627ZM461.747 359.127C462.339 358.583 463.171 358.311 463.971 358.311C465.139 358.311 465.827 358.871 465.827 359.959V360.183H465.347C463.507 360.183 460.627 360.327 460.627 362.807C460.627 364.263 461.891 365.031 463.411 365.031C464.547 365.031 465.379 364.487 465.875 363.719H465.907C465.907 364.039 465.907 364.503 465.987 364.839H467.187C467.123 364.455 467.075 363.975 467.075 363.543V360.327C467.075 358.215 466.147 357.159 463.939 357.159C462.851 357.159 461.731 357.527 460.963 358.311L461.747 359.127ZM465.827 361.239V361.719C465.795 362.935 465.059 363.975 463.619 363.975C462.675 363.975 461.971 363.623 461.971 362.679C461.971 361.671 462.995 361.239 464.579 361.239H465.827ZM473.809 364.839H475.057V361.191C475.057 359.479 475.761 358.311 477.377 358.311C478.545 358.311 479.089 359.095 479.089 360.343V364.839H480.337V360.215C480.337 358.407 479.457 357.159 477.489 357.159C476.257 357.159 475.329 357.847 474.993 358.583H474.961C474.961 358.167 474.929 357.751 474.929 357.351H473.745C473.745 357.847 473.809 358.439 473.809 359.127V364.839ZM488.444 362.743C487.852 363.495 487.132 363.879 486.06 363.879C484.7 363.879 483.708 362.775 483.612 361.479H489.66V361.079C489.66 358.599 488.22 357.159 486.108 357.159C483.9 357.159 482.268 358.775 482.268 361.095C482.268 363.271 483.708 365.031 486.06 365.031C487.452 365.031 488.508 364.615 489.388 363.479L488.444 362.743ZM483.612 360.423C483.772 359.159 484.684 358.311 486.06 358.311C487.436 358.311 488.268 359.159 488.316 360.423H483.612ZM502.038 357.351H500.694L498.998 363.111H498.966L496.998 357.351H495.686L493.75 363.111H493.718L492.006 357.351H490.63L493.062 364.839H494.342L496.23 359.079H496.262L498.39 364.839H499.622L502.038 357.351ZM514.223 358.343C513.471 357.527 512.447 357.159 511.343 357.159C509.039 357.159 507.471 358.823 507.471 361.095C507.471 363.399 509.023 365.031 511.343 365.031C512.431 365.031 513.455 364.663 514.175 363.831L513.247 362.951C512.783 363.591 512.159 363.879 511.343 363.879C509.823 363.879 508.815 362.631 508.815 361.095C508.815 359.559 509.663 358.311 511.343 358.311C512.095 358.311 512.703 358.583 513.231 359.223L514.223 358.343ZM515.622 364.839H516.87V361.191C516.87 359.479 517.574 358.311 519.19 358.311C520.358 358.311 520.902 359.095 520.902 360.343V364.839H522.15V360.215C522.15 358.407 521.27 357.159 519.302 357.159C518.134 357.159 517.238 357.799 516.902 358.391H516.87V352.743H515.622V364.839ZM525.2 359.127C525.792 358.583 526.624 358.311 527.424 358.311C528.592 358.311 529.28 358.871 529.28 359.959V360.183H528.8C526.96 360.183 524.08 360.327 524.08 362.807C524.08 364.263 525.344 365.031 526.864 365.031C528 365.031 528.832 364.487 529.328 363.719H529.36C529.36 364.039 529.36 364.503 529.44 364.839H530.64C530.576 364.455 530.528 363.975 530.528 363.543V360.327C530.528 358.215 529.6 357.159 527.392 357.159C526.304 357.159 525.184 357.527 524.416 358.311L525.2 359.127ZM529.28 361.239V361.719C529.248 362.935 528.512 363.975 527.072 363.975C526.128 363.975 525.424 363.623 525.424 362.679C525.424 361.671 526.448 361.239 528.032 361.239H529.28ZM532.809 364.839H534.057V361.191C534.057 359.479 534.729 358.407 536.249 358.407C536.473 358.407 536.713 358.439 536.921 358.503L537.001 357.239C536.825 357.175 536.649 357.159 536.489 357.159C535.257 357.159 534.329 357.847 533.993 358.583H533.961C533.961 358.167 533.929 357.751 533.929 357.351H532.745C532.745 357.847 532.809 358.439 532.809 359.127V364.839ZM542.53 357.351H540.322V355.223H539.074V357.351H537.442V358.407H539.074V362.519C539.074 364.071 539.362 365.031 541.138 365.031C541.602 365.031 542.162 364.951 542.594 364.759L542.546 363.623C542.21 363.799 541.81 363.879 541.442 363.879C540.338 363.879 540.322 363.111 540.322 362.151V358.407H542.53V357.351ZM545.899 361.671H547.243V360.935C547.243 360.023 547.339 359.799 548.011 359.159C548.971 358.263 549.835 357.479 549.835 356.071C549.835 354.231 548.459 353.223 546.715 353.223C544.971 353.223 543.595 354.215 543.307 355.959L544.747 356.119C544.907 355.079 545.627 354.375 546.699 354.375C547.755 354.375 548.395 355.095 548.395 356.119C548.395 357.127 547.659 357.735 547.003 358.407C546.171 359.239 545.899 359.479 545.899 360.663V361.671ZM546.571 363.015C546.043 363.015 545.611 363.447 545.611 363.975C545.611 364.503 546.075 364.935 546.571 364.935C547.067 364.935 547.531 364.503 547.531 363.975C547.531 363.447 547.099 363.015 546.571 363.015Z" fill="#333333"/>
<rect x="389.5" y="397.339" width="121" height="35" rx="3.5" fill="#6C3078"/>
<path d="M418.282 410.243C417.302 409.109 416.154 408.675 414.81 408.675C411.758 408.675 409.574 410.747 409.574 413.925C409.574 417.019 411.758 419.091 414.81 419.091C416.266 419.091 417.61 418.559 418.506 417.327L417.05 416.291C416.392 417.131 415.622 417.495 414.824 417.495C412.78 417.495 411.422 415.927 411.422 413.813C411.422 411.839 412.78 410.271 414.824 410.271C415.51 410.271 416.182 410.481 416.91 411.251L418.282 410.243ZM419.536 418.839H421.216V415.241C421.216 414.877 421.44 413.547 423.022 413.547C423.288 413.547 423.554 413.603 423.834 413.673V412.049C423.638 411.993 423.442 411.951 423.232 411.951C422.35 411.951 421.608 412.413 421.244 413.183H421.216V412.119H419.536V418.839ZM431.199 416.067V415.605C431.199 413.267 429.925 411.951 428.049 411.951C426.019 411.951 424.395 413.365 424.395 415.479C424.395 417.593 426.019 419.007 428.049 419.007C429.113 419.007 430.107 418.629 430.891 417.663L429.687 416.753C429.267 417.271 428.721 417.663 427.881 417.663C426.943 417.663 426.187 417.061 426.075 416.067H431.199ZM426.075 414.807C426.201 413.841 426.817 413.211 427.811 413.211C428.861 413.211 429.505 413.827 429.519 414.807H426.075ZM436.97 418.839H438.482V414.975C438.482 414.023 438.482 411.951 435.612 411.951C434.548 411.951 433.498 412.273 432.756 413.029L433.638 413.911C434.086 413.491 434.73 413.211 435.43 413.211C436.326 413.211 436.97 413.645 436.97 414.471V414.653H436.55C434.87 414.653 432.322 414.807 432.322 416.991C432.322 418.321 433.526 419.007 434.772 419.007C435.668 419.007 436.452 418.671 436.928 417.915H436.97V418.839ZM436.872 416.207C436.872 417.145 436.326 417.747 435.178 417.747C434.632 417.747 434.002 417.481 434.002 416.865C434.002 415.899 435.598 415.829 436.522 415.829H436.872V416.207ZM440.892 413.547V416.627C440.892 418.209 441.312 419.007 443.09 419.007C443.482 419.007 444.07 418.951 444.42 418.783V417.369C444.21 417.523 443.804 417.579 443.51 417.579C442.768 417.579 442.572 417.159 442.572 416.487V413.547H444.42V412.119H442.572V410.173H440.892V412.119H439.506V413.547H440.892ZM452.199 416.067V415.605C452.199 413.267 450.925 411.951 449.049 411.951C447.019 411.951 445.395 413.365 445.395 415.479C445.395 417.593 447.019 419.007 449.049 419.007C450.113 419.007 451.107 418.629 451.891 417.663L450.687 416.753C450.267 417.271 449.721 417.663 448.881 417.663C447.943 417.663 447.187 417.061 447.075 416.067H452.199ZM447.075 414.807C447.201 413.841 447.817 413.211 448.811 413.211C449.861 413.211 450.505 413.827 450.519 414.807H447.075ZM463.667 412.973C463.023 412.259 462.085 411.951 461.231 411.951C459.201 411.951 457.577 413.365 457.577 415.479C457.577 417.593 459.201 419.007 461.231 419.007C461.819 419.007 462.967 418.755 463.653 418.069L462.533 416.865C462.225 417.271 461.749 417.495 461.231 417.495C459.999 417.495 459.257 416.529 459.257 415.479C459.257 414.429 459.999 413.463 461.231 413.463C461.679 413.463 462.113 413.729 462.505 414.135L463.667 412.973ZM466.347 408.255H464.667V418.839H466.347V415.171C466.347 414.275 466.781 413.463 467.887 413.463C469.063 413.463 469.119 414.695 469.119 415.437V418.839H470.799V414.597C470.799 413.225 470.155 411.951 468.349 411.951C467.313 411.951 466.641 412.497 466.375 413.057H466.347V408.255ZM476.906 418.839H478.418V414.975C478.418 414.023 478.418 411.951 475.548 411.951C474.484 411.951 473.434 412.273 472.692 413.029L473.574 413.911C474.022 413.491 474.666 413.211 475.366 413.211C476.262 413.211 476.906 413.645 476.906 414.471V414.653H476.486C474.806 414.653 472.258 414.807 472.258 416.991C472.258 418.321 473.462 419.007 474.708 419.007C475.604 419.007 476.388 418.671 476.864 417.915H476.906V418.839ZM476.808 416.207C476.808 417.145 476.262 417.747 475.114 417.747C474.568 417.747 473.938 417.481 473.938 416.865C473.938 415.899 475.534 415.829 476.458 415.829H476.808V416.207ZM480.225 418.839H481.905V415.241C481.905 414.877 482.129 413.547 483.711 413.547C483.977 413.547 484.243 413.603 484.523 413.673V412.049C484.327 411.993 484.131 411.951 483.921 411.951C483.039 411.951 482.297 412.413 481.933 413.183H481.905V412.119H480.225V418.839ZM486.269 413.547V416.627C486.269 418.209 486.689 419.007 488.467 419.007C488.859 419.007 489.447 418.951 489.797 418.783V417.369C489.587 417.523 489.181 417.579 488.887 417.579C488.145 417.579 487.949 417.159 487.949 416.487V413.547H489.797V412.119H487.949V410.173H486.269V412.119H484.883V413.547H486.269Z" fill="white"/>
<rect x="389.5" y="397.339" width="121" height="35" rx="3.5" stroke="#6C3078"/>
</svg>
