<svg width="900" height="454" viewBox="0 0 900 454" fill="none" xmlns="http://www.w3.org/2000/svg">
<rect x="251.842" y="15.9512" width="387" height="256" rx="50" fill="#FBFCFD"/>
<path fill-rule="evenodd" clip-rule="evenodd" d="M340.849 8C349.567 8 357.2 13.6768 360.293 21.8268C365.843 36.4541 373.294 51.8471 382 61C396.489 76.2323 410.978 76.2817 424.237 76.3269C428.822 76.3425 433.26 76.3576 437.5 77C454 79.5 476 84.5 487.5 108C498.747 130.983 519.081 151.097 544.76 158.986C545.913 159.341 547.1 159.563 548.305 159.632C558.975 160.244 589.972 159.813 605 159.5C628.758 159.5 656.994 176.667 671.009 217.126C671.687 219.082 672 221.153 672 223.223V262C672 273.046 663.046 282 652 282H248C236.954 282 228 273.046 228 262V28C228 16.9543 236.954 8 248 8H340.849Z" fill="#F0F3F6"/>
<path d="M550.465 87.5913L537.776 95.6487L522.953 105.061C522.375 105.428 521.605 105.26 521.234 104.675L497.288 66.9436C496.921 66.3664 497.089 65.5958 497.674 65.2255L508.021 58.6492L518.601 51.9149L521.587 56.6295L523.092 59.0017C523.459 59.5789 524.233 59.7548 524.81 59.3884L526.754 58.151L531.38 55.2158L550.839 85.8686C551.227 86.4465 551.059 87.2172 550.465 87.5913Z" fill="#D4DDE3"/>
<path d="M518.613 51.9189L523.113 59.0019C523.479 59.5791 524.254 59.755 524.831 59.3886L531.4 55.216L518.613 51.9189Z" fill="#FBFCFD"/>
<path d="M536.638 80.8228L522.714 89.6601C521.679 90.3181 520.303 90.0096 519.645 88.9741L510.807 75.0503C510.149 74.0148 510.458 72.6387 511.493 71.9806L525.417 63.1433C526.453 62.4853 527.829 62.7939 528.487 63.8294L537.324 77.7531C537.982 78.7886 537.682 80.1609 536.638 80.8228Z" stroke="white" stroke-width="1.3348" stroke-miterlimit="10" stroke-linecap="round" stroke-linejoin="round"/>
<path d="M512.423 77.5965L530.099 66.3672" stroke="white" stroke-width="1.3348" stroke-miterlimit="10" stroke-linecap="round" stroke-linejoin="round"/>
<path d="M515.224 82.0184L532.908 70.7852" stroke="white" stroke-width="1.3348" stroke-miterlimit="10" stroke-linecap="round" stroke-linejoin="round"/>
<path d="M518.033 86.4364L535.708 75.207" stroke="white" stroke-width="1.3348" stroke-miterlimit="10" stroke-linecap="round" stroke-linejoin="round"/>
<path d="M526.733 87.1147L515.508 69.4268" stroke="white" stroke-width="1.3348" stroke-miterlimit="10" stroke-linecap="round" stroke-linejoin="round"/>
<path d="M532.632 83.3725L521.398 65.6885" stroke="white" stroke-width="1.3348" stroke-miterlimit="10" stroke-linecap="round" stroke-linejoin="round"/>
<path d="M663.491 123.274L621.081 140.374C619.329 141.075 617.347 140.234 616.636 138.482L594.019 82.4064C593.319 80.6544 594.16 78.672 595.912 77.9612L638.321 60.8612C640.073 60.1603 642.056 61.0013 642.767 62.7534L665.383 118.829C666.084 120.581 665.233 122.574 663.491 123.274Z" fill="#DBE2E9"/>
<path d="M667.135 116.556L628.67 141.295C627.088 142.316 624.985 141.856 623.964 140.284C623.954 140.284 623.954 140.274 623.954 140.274L591.246 89.4142C590.225 87.8324 590.675 85.7199 592.267 84.6987L619.829 66.9678L630.722 59.9596C632.314 58.9384 634.427 59.399 635.448 60.9808L668.156 111.841C669.177 113.422 668.717 115.535 667.135 116.556Z" fill="white"/>
<path opacity="0.5" d="M667.135 116.556L628.669 141.295C627.088 142.316 624.985 141.856 623.964 140.284C624.164 139.693 624.485 139.123 624.825 138.602C631.773 127.879 645.589 122.493 650.846 110.849C651.977 108.346 652.648 105.513 651.937 102.86C651.526 101.308 650.665 99.9165 649.774 98.5649C647.692 95.3812 645.439 92.3076 643.026 89.3641C640.714 86.5308 638.201 83.7175 637.049 80.2535C636.148 77.5803 636.088 74.5668 634.546 72.204C632.574 69.1704 628.72 68.0091 625.145 67.4684C623.383 67.2081 621.611 67.0379 619.829 66.9678L630.722 59.9596C632.314 58.9384 634.426 59.399 635.447 60.9808L668.156 111.841C669.177 113.422 668.716 115.535 667.135 116.556Z" fill="#DBE2E9"/>
<rect x="289.45" y="69.7441" width="225" height="94" rx="2" fill="#D4DDE3"/>
<rect width="36.3333" height="12.2857" transform="translate(290.45 70.7441)" fill="#D9E0E6"/>
<rect width="36.3333" height="12.2857" transform="translate(327.783 70.7441)" fill="#D9E0E6"/>
<rect width="36.3333" height="12.2857" transform="translate(365.116 70.7441)" fill="#D9E0E6"/>
<rect width="36.3333" height="12.2857" transform="translate(402.45 70.7441)" fill="#D9E0E6"/>
<rect width="36.3333" height="12.2857" transform="translate(439.783 70.7441)" fill="#D9E0E6"/>
<rect width="36.3333" height="12.2857" transform="translate(477.116 70.7441)" fill="#D9E0E6"/>
<rect width="36.3333" height="12.2857" transform="translate(290.45 84.0303)" fill="white"/>
<rect width="36.3333" height="12.2857" transform="translate(327.783 84.0303)" fill="white"/>
<rect width="36.3333" height="12.2857" transform="translate(365.116 84.0303)" fill="white"/>
<rect width="36.3333" height="12.2857" transform="translate(402.45 84.0303)" fill="white"/>
<rect width="36.3333" height="12.2857" transform="translate(439.783 84.0303)" fill="white"/>
<rect width="36.3333" height="12.2857" transform="translate(477.116 84.0303)" fill="white"/>
<rect width="36.3333" height="12.2857" transform="translate(290.45 97.3154)" fill="white"/>
<rect width="36.3333" height="12.2857" transform="translate(327.783 97.3154)" fill="white"/>
<rect width="36.3333" height="12.2857" transform="translate(365.116 97.3154)" fill="white"/>
<rect width="36.3333" height="12.2857" transform="translate(402.45 97.3154)" fill="white"/>
<rect width="36.3333" height="12.2857" transform="translate(439.783 97.3154)" fill="white"/>
<rect width="36.3333" height="12.2857" transform="translate(477.116 97.3154)" fill="white"/>
<rect width="36.3333" height="12.2857" transform="translate(290.45 110.602)" fill="white"/>
<rect width="36.3333" height="12.2857" transform="translate(327.783 110.602)" fill="white"/>
<rect width="36.3333" height="12.2857" transform="translate(365.116 110.602)" fill="white"/>
<rect width="36.3333" height="12.2857" transform="translate(402.45 110.602)" fill="white"/>
<rect width="36.3333" height="12.2857" transform="translate(439.783 110.602)" fill="white"/>
<rect width="36.3333" height="12.2857" transform="translate(477.116 110.602)" fill="white"/>
<rect width="36.3333" height="12.2857" transform="translate(290.45 123.887)" fill="white"/>
<rect width="36.3333" height="12.2857" transform="translate(327.783 123.887)" fill="white"/>
<rect width="36.3333" height="12.2857" transform="translate(365.116 123.887)" fill="white"/>
<rect width="36.3333" height="12.2857" transform="translate(402.45 123.887)" fill="white"/>
<rect width="36.3333" height="12.2857" transform="translate(439.783 123.887)" fill="white"/>
<rect width="36.3333" height="12.2857" transform="translate(477.116 123.887)" fill="white"/>
<rect width="36.3333" height="12.2857" transform="translate(290.45 137.173)" fill="white"/>
<rect width="36.3333" height="12.2857" transform="translate(327.783 137.173)" fill="white"/>
<rect width="36.3333" height="12.2857" transform="translate(365.116 137.173)" fill="white"/>
<rect width="36.3333" height="12.2857" transform="translate(402.45 137.173)" fill="white"/>
<rect width="36.3333" height="12.2857" transform="translate(439.783 137.173)" fill="white"/>
<rect width="36.3333" height="12.2857" transform="translate(477.116 137.173)" fill="white"/>
<rect width="36.3333" height="12.2857" transform="translate(290.45 150.458)" fill="white"/>
<rect width="36.3333" height="12.2857" transform="translate(327.783 150.458)" fill="white"/>
<rect width="36.3333" height="12.2857" transform="translate(365.116 150.458)" fill="white"/>
<rect width="36.3333" height="12.2857" transform="translate(402.45 150.458)" fill="white"/>
<rect width="36.3333" height="12.2857" transform="translate(439.783 150.458)" fill="white"/>
<rect width="36.3333" height="12.2857" transform="translate(477.116 150.458)" fill="white"/>
<rect x="390" y="92.3203" width="225" height="120.571" rx="2" fill="#D4DDE3"/>
<rect width="36.3333" height="12.2857" transform="translate(391 93.3203)" fill="#D9E0E6"/>
<rect width="36.3333" height="12.2857" transform="translate(428.333 93.3203)" fill="#D9E0E6"/>
<rect width="36.3333" height="12.2857" transform="translate(465.667 93.3203)" fill="#D9E0E6"/>
<rect width="36.3333" height="12.2857" transform="translate(503 93.3203)" fill="#D9E0E6"/>
<rect width="36.3333" height="12.2857" transform="translate(540.333 93.3203)" fill="#D9E0E6"/>
<rect width="36.3333" height="12.2857" transform="translate(577.667 93.3203)" fill="#D9E0E6"/>
<rect width="36.3333" height="12.2857" transform="translate(391 106.606)" fill="white"/>
<rect width="36.3333" height="12.2857" transform="translate(428.333 106.606)" fill="white"/>
<rect width="36.3333" height="12.2857" transform="translate(465.667 106.606)" fill="white"/>
<rect width="36.3333" height="12.2857" transform="translate(503 106.606)" fill="white"/>
<rect width="36.3333" height="12.2857" transform="translate(540.333 106.606)" fill="white"/>
<rect width="36.3333" height="12.2857" transform="translate(577.667 106.606)" fill="white"/>
<rect width="36.3333" height="12.2857" transform="translate(391 119.892)" fill="white"/>
<rect width="36.3333" height="12.2857" transform="translate(428.333 119.892)" fill="white"/>
<rect width="36.3333" height="12.2857" transform="translate(465.667 119.892)" fill="white"/>
<rect width="36.3333" height="12.2857" transform="translate(503 119.892)" fill="white"/>
<rect width="36.3333" height="12.2857" transform="translate(540.333 119.892)" fill="white"/>
<rect width="36.3333" height="12.2857" transform="translate(577.667 119.892)" fill="white"/>
<rect width="36.3333" height="12.2857" transform="translate(391 133.178)" fill="white"/>
<rect width="36.3333" height="12.2857" transform="translate(428.333 133.178)" fill="white"/>
<rect width="36.3333" height="12.2857" transform="translate(465.667 133.178)" fill="white"/>
<rect width="36.3333" height="12.2857" transform="translate(503 133.178)" fill="white"/>
<rect width="36.3333" height="12.2857" transform="translate(540.333 133.178)" fill="white"/>
<rect width="36.3333" height="12.2857" transform="translate(577.667 133.178)" fill="white"/>
<rect width="36.3333" height="12.2857" transform="translate(391 146.463)" fill="white"/>
<rect width="36.3333" height="12.2857" transform="translate(428.333 146.463)" fill="white"/>
<rect width="36.3333" height="12.2857" transform="translate(465.667 146.463)" fill="white"/>
<rect width="36.3333" height="12.2857" transform="translate(503 146.463)" fill="white"/>
<rect width="36.3333" height="12.2857" transform="translate(540.333 146.463)" fill="white"/>
<rect width="36.3333" height="12.2857" transform="translate(577.667 146.463)" fill="white"/>
<rect width="36.3333" height="12.2857" transform="translate(391 159.749)" fill="white"/>
<rect width="36.3333" height="12.2857" transform="translate(428.333 159.749)" fill="white"/>
<rect width="36.3333" height="12.2857" transform="translate(465.667 159.749)" fill="white"/>
<rect width="36.3333" height="12.2857" transform="translate(503 159.749)" fill="white"/>
<rect width="36.3333" height="12.2857" transform="translate(540.333 159.749)" fill="white"/>
<rect width="36.3333" height="12.2857" transform="translate(577.667 159.749)" fill="white"/>
<rect width="36.3333" height="12.2857" transform="translate(391 173.034)" fill="white"/>
<rect width="36.3333" height="12.2857" transform="translate(428.333 173.034)" fill="white"/>
<rect width="36.3333" height="12.2857" transform="translate(465.667 173.034)" fill="white"/>
<rect width="36.3333" height="12.2857" transform="translate(503 173.034)" fill="white"/>
<rect width="36.3333" height="12.2857" transform="translate(540.333 173.034)" fill="white"/>
<rect width="36.3333" height="12.2857" transform="translate(577.667 173.034)" fill="white"/>
<rect width="36.3333" height="12.2857" transform="translate(391 186.32)" fill="white"/>
<rect width="36.3333" height="12.2857" transform="translate(428.333 186.32)" fill="white"/>
<rect width="36.3333" height="12.2857" transform="translate(465.667 186.32)" fill="white"/>
<rect width="36.3333" height="12.2857" transform="translate(503 186.32)" fill="white"/>
<rect width="36.3333" height="12.2857" transform="translate(540.333 186.32)" fill="white"/>
<rect width="36.3333" height="12.2857" transform="translate(577.667 186.32)" fill="white"/>
<rect width="36.3333" height="12.2857" transform="translate(391 199.606)" fill="white"/>
<rect width="36.3333" height="12.2857" transform="translate(428.333 199.606)" fill="white"/>
<rect width="36.3333" height="12.2857" transform="translate(465.667 199.606)" fill="white"/>
<rect width="36.3333" height="12.2857" transform="translate(503 199.606)" fill="white"/>
<rect width="36.3333" height="12.2857" transform="translate(540.333 199.606)" fill="white"/>
<rect width="36.3333" height="12.2857" transform="translate(577.667 199.606)" fill="white"/>
<path d="M325.834 173.004L332.689 199.863H309.532L307.13 176.825C307.13 172.886 306.172 169.017 304.338 165.527L303.9 164.699C301.735 160.606 300.588 156.015 300.895 151.402C301.558 141.452 308.053 133.289 316.938 130.118C318.416 129.598 319.954 129.208 321.552 128.971L324.438 128.545C328.815 127.906 333.346 129.728 336.056 133.691C336.576 134.46 336.978 135.312 337.298 136.176L337.676 137.205C338.161 138.518 338.41 139.914 338.41 141.31V146.078C338.41 147.864 339.155 149.556 340.468 150.774L345.106 155.069C346.313 156.169 345.804 158.157 344.231 158.571L338.41 160.073V167.893C338.41 170.295 336.316 172.152 333.938 171.845L327.952 171.099C326.816 170.957 325.81 171.856 325.834 173.004Z" fill="#F0F3F6"/>
<path d="M388.5 177.926C386.88 191.448 376.469 205.669 361.882 208.295C345.224 211.276 331.998 198.535 326.189 190.809V190.573L325.834 173.005C325.811 171.857 326.816 170.958 327.952 171.1L333.938 171.845C336.316 172.141 338.41 170.284 338.41 167.894V160.074L344.231 158.56C345.804 158.157 346.313 156.17 345.106 155.058L340.469 150.763C339.155 149.557 338.41 147.853 338.41 146.078V141.311C338.41 139.903 338.162 138.519 337.677 137.194L337.298 136.176C336.292 133.432 334.305 131.16 331.726 129.8C329.999 128.889 328.082 128.404 326.142 128.404C325.574 128.404 325.006 128.451 324.438 128.534L321.552 128.96C319.73 129.232 317.979 129.693 316.311 130.344C315.968 130.344 319.162 138.909 315.932 144.6C312.833 150.089 307.13 150.397 307.059 153.674C306.976 157.814 316.062 158.832 316.725 163.931C317.364 168.817 309.343 170.615 308.917 176.826C308.526 182.54 315.045 184.468 316.488 190.809C316.595 191.283 316.677 191.791 316.725 192.324C317.21 197.884 313.826 204.687 309.828 205.337C302.481 206.52 299.09 190.407 290.915 190.809C281.486 191.283 278.926 214.506 269.403 215.393C261.465 216.127 250.368 198.133 254.816 189.958C258.649 182.883 272.254 186.562 275.519 179.109C278.323 172.697 269.746 166.521 272.751 160.772C276.063 154.443 288.06 158.808 293.265 151.509C296.79 146.552 292.602 142.695 294.838 135.135C295.217 133.858 295.738 132.615 296.388 131.409C291.822 129.587 287.764 125.422 287.87 120.785C287.977 116.632 291.408 112.456 295.56 111.522C298.411 110.883 301.345 111.829 303.759 113.651C305.793 115.177 307.45 117.319 308.384 119.649C315.057 115.84 322.628 114.361 327.715 116.786C332.98 119.271 331.773 124.145 338.221 127.445C346.313 131.598 352.169 125.943 356.948 129.812C363.183 134.851 356.499 147.108 362.663 151.899C367.407 155.578 373.251 149.805 379.817 153.082C387.495 156.903 389.47 169.739 388.5 177.926Z" fill="#CBD6DE"/>
<path d="M312.3 152.691L307.757 149.745C306.184 148.728 304.066 149.284 303.214 150.964C302.35 152.655 303.167 154.714 304.941 155.376L309.449 157.033" fill="#F0F3F6"/>
<path d="M311.425 160.617L308.124 163.918C307.556 164.486 306.645 164.486 306.077 163.918L302.776 160.617C302.209 160.049 302.209 159.138 302.776 158.571L306.077 155.27C306.172 155.175 306.278 155.092 306.385 155.045C306.941 154.714 307.651 154.797 308.124 155.27L311.425 158.571C311.992 159.138 311.992 160.049 311.425 160.617Z" fill="white"/>
<path opacity="0.5" d="M311.424 160.617L308.124 163.918C307.556 164.486 306.645 164.486 306.077 163.918L304.634 162.475C304.646 162.451 304.669 162.439 304.681 162.427C305.367 162.049 306.219 162.971 306.953 162.688C307.272 162.557 307.461 162.226 307.544 161.895C307.627 161.564 307.615 161.221 307.674 160.889C307.733 160.428 307.911 159.978 308.171 159.588C308.455 159.186 308.834 158.819 308.928 158.334C309.023 157.754 308.668 157.198 308.23 156.808C307.793 156.429 307.272 156.145 306.846 155.743C306.669 155.566 306.491 155.305 306.385 155.045C306.941 154.714 307.651 154.797 308.124 155.27L311.424 158.571C311.992 159.138 311.992 160.049 311.424 160.617Z" fill="white"/>
<path d="M425.246 195.395L435.446 205.256L438.104 207.822L446.81 196.21C447.672 195.065 448.653 194.02 449.725 193.085L459.77 192.957C460.292 192.948 460.659 192.682 460.869 192.334C461.263 191.646 461.043 190.611 460.072 190.372C460.072 190.372 458.147 189.887 455.92 189.328L469.475 182.995C470.996 182.271 470.428 179.979 468.742 180.071L451.026 181.006C449.551 181.088 448.094 181.327 446.673 181.712C444.418 182.335 442.301 183.352 440.386 184.699L425.246 195.395Z" fill="#E4EAEE"/>
<path d="M335.632 216.06C342.213 221.641 357.93 234.967 365.84 241.685C366.564 242.299 367.223 242.858 367.801 243.343C368.451 243.875 369.707 244.984 370.358 245.506C376.333 250.538 384.646 252.646 392.28 251.06C397.348 250.052 402.013 247.477 405.551 243.857C406.696 242.592 408.667 240.402 409.831 239.118C415.861 232.456 431.899 214.694 438.104 207.811L435.446 205.245L425.246 195.384C417.978 201.359 400.235 215.959 393.224 221.724C392.152 222.622 390.475 223.978 389.182 225.05C388.962 224.803 388.733 224.565 388.733 224.565C388.605 224.436 378.854 213.283 378.304 212.669L358.407 191.021L335.632 216.06Z" fill="#D9E0E6"/>
<path d="M267.775 191.774L269.15 199.463L279.033 282.02H355.785L366.233 229.781C367.782 222.824 367.69 215.593 365.967 208.683L361.266 195.147C360.367 192.544 358.351 190.482 355.785 189.51L347.418 186.348C339.352 183.306 330.939 181.454 322.462 180.831C311.07 179.97 299.531 181.308 288.497 184.836L267.775 191.774Z" fill="#D9E0E6"/>
<path opacity="0.3" d="M363.942 240.072L365.84 241.685C366.49 242.235 367.077 242.739 367.599 243.179C367.663 243.234 367.727 243.289 367.801 243.344C368.451 243.876 369.707 244.985 370.358 245.507C376.333 250.539 384.646 252.647 392.28 251.061C397.348 250.053 402.013 247.478 405.551 243.858C406.696 242.593 408.667 240.402 409.831 239.119C415.861 232.456 431.899 214.695 438.104 207.812L435.446 205.246C416.961 227.269 393.151 253.985 373.685 239.303C371.723 237.827 370.734 235.398 371.1 232.979C373.235 218.938 364.446 203.991 364.208 203.578L365.968 208.665C367.691 215.584 367.773 222.806 366.234 229.762L363.942 240.072Z" fill="#C9D4DC"/>
<path d="M250.748 213.778C250.748 214.832 250.903 215.932 251.059 216.967L251.096 217.142L252.287 222.906C254.12 231.897 256.247 242.821 257.915 251.776C259.647 261.353 261.397 271.141 262.808 280.755L266.007 280.278L284.272 277.547C282.815 267.933 281.615 258.072 280.478 248.403C279.855 242.712 279.149 236.516 278.59 230.861C278.334 228.304 277.82 223.135 277.399 218.828C281.349 218.7 285.29 218.745 289.322 219.195L285.189 193.423L284.043 186.32C279.424 188.437 274.759 189.895 269.948 191.214C268.06 191.718 266.108 192.103 264.312 192.919C256.027 196.402 250.445 204.87 250.748 213.778Z" fill="#D9E0E6"/>
<path d="M302.804 176.322H330.308V184.754H302.804V176.322Z" fill="#D9E0E6"/>
<path opacity="0.3" d="M282.476 264.79L277.39 218.838C284.016 232.292 285.253 251.703 288.195 275.128L282.476 264.79Z" fill="#C9D4DC"/>
<path d="M238.219 273.432L240.868 307.644C241.088 310.513 243.59 312.648 246.458 312.428L261.507 311.264L304.197 307.956C307.065 307.736 309.21 305.234 308.981 302.365L306.332 268.153C306.112 265.285 303.61 263.149 300.742 263.369L271.772 265.614L243.003 267.842C240.135 268.061 237.999 270.573 238.219 273.432Z" fill="#F6F8F9"/>
<path d="M270.305 313.162L275.511 312.759L284.868 312.044C286.234 311.934 286.967 310.394 286.197 309.267L281.752 302.797C281.129 301.889 280.322 301.238 279.424 300.826C276.766 299.625 273.375 300.597 271.955 303.548L268.564 310.632C267.987 311.861 268.949 313.272 270.305 313.162Z" fill="#E4EAEE"/>
<path d="M269.49 287.905C269.49 290.178 271.332 292.02 273.605 292.02C274.539 292.02 275.392 291.708 276.079 291.186C277.069 290.443 277.71 289.243 277.71 287.905C277.71 286.328 276.821 284.954 275.502 284.266C274.934 283.973 274.283 283.799 273.605 283.799C271.332 283.799 269.49 285.641 269.49 287.905Z" fill="white"/>
<mask id="mask0_500_43768" style="mask-type:alpha" maskUnits="userSpaceOnUse" x="484" y="223" width="172" height="58">
<rect width="171.293" height="57.5237" transform="translate(484.462 223.23)" fill="white"/>
</mask>
<g mask="url(#mask0_500_43768)">
<path d="M563.723 277.975C563.723 299.348 546.39 316.669 525.029 316.669C503.656 316.669 486.335 299.348 486.335 277.975C486.335 259.644 499.08 244.278 516.209 240.303C519.047 239.625 522 239.28 525.029 239.28C539.755 239.28 552.577 247.525 559.109 259.656C562.049 265.115 563.723 271.353 563.723 277.975Z" fill="white"/>
<path d="M525.029 239.28C528.34 239.28 531.561 239.702 534.629 240.482V236.608C534.629 235.432 533.683 234.486 532.507 234.486H517.551C516.375 234.486 515.429 235.432 515.429 236.608V240.482C518.497 239.702 521.706 239.28 525.029 239.28Z" stroke="#C4D0D9" stroke-width="0.5" stroke-miterlimit="10"/>
<path d="M528.11 234.487H521.936V316.669H528.11V234.487Z" stroke="#C4D0D9" stroke-width="0.5" stroke-miterlimit="10"/>
<path d="M521.936 279.317H528.11" stroke="#C4D0D9" stroke-width="0.5" stroke-miterlimit="10"/>
<path d="M521.936 271.84H528.11" stroke="#C4D0D9" stroke-width="0.5" stroke-miterlimit="10"/>
<path d="M521.936 264.375H528.11" stroke="#C4D0D9" stroke-width="0.5" stroke-miterlimit="10"/>
<path d="M521.936 256.896H528.11" stroke="#C4D0D9" stroke-width="0.5" stroke-miterlimit="10"/>
<path d="M521.936 249.43H528.11" stroke="#C4D0D9" stroke-width="0.5" stroke-miterlimit="10"/>
<path d="M521.936 241.952H528.11" stroke="#C4D0D9" stroke-width="0.5" stroke-miterlimit="10"/>
<path opacity="0.5" d="M559.109 259.655C557.613 265.97 554.737 271.966 549.918 276.209C548.32 277.616 546.466 278.843 544.37 279.213C542.286 279.584 539.909 278.971 538.63 277.27C537.327 275.532 537.403 273.116 537.876 270.994C539.091 265.587 542.465 260.653 542.478 255.117C542.478 253.724 542.235 252.254 541.34 251.18C540.816 250.541 540.088 250.094 539.359 249.697C535.217 247.473 530.449 246.796 525.975 245.338C524.019 244.699 522.102 243.907 520.261 242.961C518.829 242.232 517.411 241.388 516.209 240.302C519.047 239.624 522 239.279 525.029 239.279C539.755 239.279 552.577 247.524 559.109 259.655Z" fill="#D9E0E6"/>
<path d="M603.179 326.653C629.738 326.653 651.269 305.123 651.269 278.563C651.269 252.004 629.738 230.474 603.179 230.474C576.62 230.474 555.089 252.004 555.089 278.563C555.089 305.123 576.62 326.653 603.179 326.653Z" fill="#D9E0E6"/>
<path d="M651.269 278.563C651.269 280.992 651.09 283.37 650.745 285.709C647.293 308.872 627.301 326.653 603.179 326.653C576.616 326.653 555.077 305.114 555.077 278.563C555.077 252.87 575.223 231.88 600.571 230.538C601.441 230.487 602.31 230.461 603.179 230.461C629.73 230.461 651.269 252 651.269 278.563Z" fill="white"/>
<path d="M603.179 230.462C607.295 230.462 611.296 230.986 615.118 231.957V227.138C615.118 225.681 613.93 224.492 612.472 224.492H593.886C592.429 224.492 591.24 225.681 591.24 227.138V231.957C595.049 230.986 599.05 230.462 603.179 230.462Z" stroke="#C4D0D9" stroke-width="0.5" stroke-miterlimit="10"/>
<path d="M607.001 224.491H599.332V326.653H607.001V224.491Z" stroke="#C4D0D9" stroke-width="0.5" stroke-miterlimit="10"/>
<path d="M599.332 280.212H607.014" stroke="#C4D0D9" stroke-width="0.5" stroke-miterlimit="10"/>
<path d="M599.332 270.932H607.014" stroke="#C4D0D9" stroke-width="0.5" stroke-miterlimit="10"/>
<path d="M599.332 261.64H607.014" stroke="#C4D0D9" stroke-width="0.5" stroke-miterlimit="10"/>
<path d="M599.332 252.359H607.014" stroke="#C4D0D9" stroke-width="0.5" stroke-miterlimit="10"/>
<path d="M599.332 243.064H607.014" stroke="#C4D0D9" stroke-width="0.5" stroke-miterlimit="10"/>
<path d="M599.332 233.784H607.014" stroke="#C4D0D9" stroke-width="0.5" stroke-miterlimit="10"/>
<path opacity="0.5" d="M651.269 278.564C651.269 280.993 651.09 283.371 650.745 285.71C649.147 287.346 647.344 288.804 645.478 290.108C644.865 290.542 644.213 290.977 643.458 291.028C642.794 291.066 642.155 290.811 641.566 290.504C638.243 288.829 635.571 285.876 634.216 282.399C632.081 276.941 633.232 270.767 632.248 264.989C631.481 260.489 629.41 256.296 626.904 252.487C624.182 248.333 620.884 244.523 616.857 241.622C611.514 237.774 604.802 235.447 600.571 230.539C601.441 230.487 602.31 230.462 603.179 230.462C629.729 230.462 651.269 252.001 651.269 278.564Z" fill="#D9E0E6"/>
</g>
<path d="M314.656 347.552C314.656 351.088 317.152 353.456 320.64 353.456C324.176 353.392 326.672 351.024 326.672 347.488C326.672 343.856 324.176 341.488 320.64 341.552C317.152 341.552 314.656 343.92 314.656 347.552ZM316.768 347.424C316.768 345.168 318.32 343.376 320.656 343.376C323.008 343.376 324.56 345.168 324.56 347.424C324.56 349.84 323.008 351.632 320.656 351.632C318.32 351.632 316.768 349.84 316.768 347.424ZM328.032 349.328C328.032 351.744 329.888 353.36 332.208 353.36C334.528 353.36 336.384 351.744 336.384 349.328C336.384 346.912 334.528 345.296 332.208 345.296C329.888 345.296 328.032 346.912 328.032 349.328ZM329.952 349.328C329.952 348.128 330.8 347.024 332.208 347.024C333.616 347.024 334.464 348.128 334.464 349.328C334.464 350.528 333.616 351.632 332.208 351.632C330.8 351.632 329.952 350.528 329.952 349.328ZM338.182 356.816H340.102V352.192H340.15C340.55 352.688 341.318 353.36 342.758 353.36C344.95 353.36 346.47 351.6 346.47 349.328C346.47 347.056 345.046 345.296 342.678 345.296C341.606 345.296 340.598 345.712 340.038 346.64H340.006V345.488H338.182V356.816ZM344.55 349.328C344.55 350.528 343.702 351.632 342.294 351.632C340.886 351.632 340.038 350.528 340.038 349.328C340.038 348.128 340.886 347.024 342.294 347.024C343.702 347.024 344.55 348.128 344.55 349.328ZM353.636 346.464C353.012 345.616 351.924 345.296 350.9 345.296C349.348 345.296 347.812 346.064 347.812 347.776C347.812 350.704 351.956 349.456 351.956 351.04C351.956 351.648 351.236 351.92 350.676 351.92C349.86 351.92 349.348 351.52 348.852 350.976L347.572 352.176C348.356 353.056 349.38 353.36 350.564 353.36C352.132 353.36 353.876 352.72 353.876 350.896C353.876 347.904 349.732 349.024 349.732 347.648C349.732 347.072 350.34 346.832 350.852 346.832C351.508 346.832 351.988 347.104 352.356 347.616L353.636 346.464ZM357.609 341.84H355.689V349.616H357.609V341.84ZM355.369 352.048C355.369 352.736 355.977 353.264 356.649 353.264C357.353 353.264 357.929 352.704 357.929 352.016C357.929 351.328 357.337 350.8 356.649 350.8C355.945 350.8 355.369 351.36 355.369 352.048ZM364.87 353.168H366.79V341.072H364.87V353.168ZM368.61 349.328C368.61 351.744 370.466 353.36 372.786 353.36C375.106 353.36 376.962 351.744 376.962 349.328C376.962 346.912 375.106 345.296 372.786 345.296C370.466 345.296 368.61 346.912 368.61 349.328ZM370.53 349.328C370.53 348.128 371.378 347.024 372.786 347.024C374.194 347.024 375.042 348.128 375.042 349.328C375.042 350.528 374.194 351.632 372.786 351.632C371.378 351.632 370.53 350.528 370.53 349.328ZM378.376 349.328C378.376 351.744 380.232 353.36 382.552 353.36C384.872 353.36 386.728 351.744 386.728 349.328C386.728 346.912 384.872 345.296 382.552 345.296C380.232 345.296 378.376 346.912 378.376 349.328ZM380.296 349.328C380.296 348.128 381.144 347.024 382.552 347.024C383.96 347.024 384.808 348.128 384.808 349.328C384.808 350.528 383.96 351.632 382.552 351.632C381.144 351.632 380.296 350.528 380.296 349.328ZM388.526 353.168H390.446V349.248H390.478L393.534 353.168H396.078L392.574 348.976L395.87 345.488H393.406L390.446 348.672V341.072H388.526V353.168ZM402.495 346.464C401.871 345.616 400.783 345.296 399.759 345.296C398.207 345.296 396.671 346.064 396.671 347.776C396.671 350.704 400.815 349.456 400.815 351.04C400.815 351.648 400.095 351.92 399.535 351.92C398.719 351.92 398.207 351.52 397.711 350.976L396.431 352.176C397.215 353.056 398.239 353.36 399.423 353.36C400.991 353.36 402.735 352.72 402.735 350.896C402.735 347.904 398.591 349.024 398.591 347.648C398.591 347.072 399.199 346.832 399.711 346.832C400.367 346.832 400.847 347.104 401.215 347.616L402.495 346.464ZM408.995 353.168H410.915V341.072H408.995V353.168ZM413.151 353.168H415.071V345.488H413.151V353.168ZM412.879 342.88C412.879 343.488 413.391 344.032 414.095 344.032C414.799 344.032 415.343 343.536 415.343 342.88C415.343 342.224 414.799 341.728 414.095 341.728C413.391 341.728 412.879 342.272 412.879 342.88ZM417.276 353.168H419.196V349.248H419.228L422.284 353.168H424.828L421.324 348.976L424.62 345.488H422.156L419.196 348.672V341.072H417.276V353.168ZM433.261 350V349.472C433.261 346.8 431.805 345.296 429.661 345.296C427.341 345.296 425.485 346.912 425.485 349.328C425.485 351.744 427.341 353.36 429.661 353.36C430.877 353.36 432.013 352.928 432.909 351.824L431.533 350.784C431.053 351.376 430.429 351.824 429.469 351.824C428.397 351.824 427.533 351.136 427.405 350H433.261ZM427.405 348.56C427.549 347.456 428.253 346.736 429.389 346.736C430.589 346.736 431.325 347.44 431.341 348.56H427.405ZM440.479 347.12V350.64C440.479 352.448 440.959 353.36 442.991 353.36C443.439 353.36 444.111 353.296 444.511 353.104V351.488C444.271 351.664 443.807 351.728 443.471 351.728C442.623 351.728 442.399 351.248 442.399 350.48V347.12H444.511V345.488H442.399V343.264H440.479V345.488H438.895V347.12H440.479ZM447.93 341.072H446.01V353.168H447.93V348.976C447.93 347.952 448.426 347.024 449.69 347.024C451.034 347.024 451.098 348.432 451.098 349.28V353.168H453.018V348.32C453.018 346.752 452.282 345.296 450.218 345.296C449.034 345.296 448.266 345.92 447.962 346.56H447.93V341.072ZM462.589 350V349.472C462.589 346.8 461.133 345.296 458.989 345.296C456.669 345.296 454.813 346.912 454.813 349.328C454.813 351.744 456.669 353.36 458.989 353.36C460.205 353.36 461.341 352.928 462.237 351.824L460.861 350.784C460.381 351.376 459.757 351.824 458.797 351.824C457.725 351.824 456.861 351.136 456.733 350H462.589ZM456.733 348.56C456.877 347.456 457.581 346.736 458.717 346.736C459.917 346.736 460.653 347.44 460.669 348.56H456.733ZM464.385 353.168H466.305V349.056C466.305 348.64 466.561 347.12 468.369 347.12C468.673 347.12 468.977 347.184 469.297 347.264V345.408C469.073 345.344 468.849 345.296 468.609 345.296C467.601 345.296 466.753 345.824 466.337 346.704H466.305V345.488H464.385V353.168ZM477.714 350V349.472C477.714 346.8 476.258 345.296 474.114 345.296C471.794 345.296 469.938 346.912 469.938 349.328C469.938 351.744 471.794 353.36 474.114 353.36C475.33 353.36 476.466 352.928 477.362 351.824L475.986 350.784C475.506 351.376 474.882 351.824 473.922 351.824C472.85 351.824 471.986 351.136 471.858 350H477.714ZM471.858 348.56C472.002 347.456 472.706 346.736 473.842 346.736C475.042 346.736 475.778 347.44 475.794 348.56H471.858ZM489.044 353.168H490.772V348.752C490.772 347.664 490.772 345.296 487.492 345.296C486.276 345.296 485.076 345.664 484.228 346.528L485.236 347.536C485.748 347.056 486.484 346.736 487.284 346.736C488.308 346.736 489.044 347.232 489.044 348.176V348.384H488.564C486.644 348.384 483.732 348.56 483.732 351.056C483.732 352.576 485.108 353.36 486.532 353.36C487.556 353.36 488.452 352.976 488.996 352.112H489.044V353.168ZM488.932 350.16C488.932 351.232 488.308 351.92 486.996 351.92C486.372 351.92 485.652 351.616 485.652 350.912C485.652 349.808 487.476 349.728 488.532 349.728H488.932V350.16ZM492.838 353.168H494.758V349.056C494.758 348.64 495.014 347.12 496.822 347.12C497.126 347.12 497.43 347.184 497.75 347.264V345.408C497.526 345.344 497.302 345.296 497.062 345.296C496.054 345.296 495.206 345.824 494.79 346.704H494.758V345.488H492.838V353.168ZM506.168 350V349.472C506.168 346.8 504.712 345.296 502.568 345.296C500.248 345.296 498.392 346.912 498.392 349.328C498.392 351.744 500.248 353.36 502.568 353.36C503.784 353.36 504.92 352.928 505.816 351.824L504.44 350.784C503.96 351.376 503.336 351.824 502.376 351.824C501.304 351.824 500.44 351.136 500.312 350H506.168ZM500.312 348.56C500.456 347.456 501.16 346.736 502.296 346.736C503.496 346.736 504.232 347.44 504.248 348.56H500.312ZM512.697 353.168H514.617V348.976C514.617 347.952 515.113 347.024 516.377 347.024C517.721 347.024 517.785 348.432 517.785 349.28V353.168H519.705V348.32C519.705 346.752 518.969 345.296 516.905 345.296C515.625 345.296 514.905 345.952 514.553 346.72H514.521V345.488H512.697V353.168ZM521.501 349.328C521.501 351.744 523.357 353.36 525.677 353.36C527.997 353.36 529.853 351.744 529.853 349.328C529.853 346.912 527.997 345.296 525.677 345.296C523.357 345.296 521.501 346.912 521.501 349.328ZM523.421 349.328C523.421 348.128 524.269 347.024 525.677 347.024C527.085 347.024 527.933 348.128 527.933 349.328C527.933 350.528 527.085 351.632 525.677 351.632C524.269 351.632 523.421 350.528 523.421 349.328ZM537.073 347.12V350.64C537.073 352.448 537.553 353.36 539.585 353.36C540.033 353.36 540.705 353.296 541.105 353.104V351.488C540.865 351.664 540.401 351.728 540.065 351.728C539.217 351.728 538.993 351.248 538.993 350.48V347.12H541.105V345.488H538.993V343.264H537.073V345.488H535.489V347.12H537.073ZM547.404 353.168H549.132V348.752C549.132 347.664 549.132 345.296 545.852 345.296C544.636 345.296 543.436 345.664 542.588 346.528L543.596 347.536C544.108 347.056 544.844 346.736 545.644 346.736C546.668 346.736 547.404 347.232 547.404 348.176V348.384H546.924C545.004 348.384 542.092 348.56 542.092 351.056C542.092 352.576 543.468 353.36 544.892 353.36C545.916 353.36 546.812 352.976 547.356 352.112H547.404V353.168ZM547.292 350.16C547.292 351.232 546.668 351.92 545.356 351.92C544.732 351.92 544.012 351.616 544.012 350.912C544.012 349.808 545.836 349.728 546.892 349.728H547.292V350.16ZM551.197 353.168H553.021V352.016H553.053C553.613 352.944 554.621 353.36 555.693 353.36C558.061 353.36 559.485 351.6 559.485 349.328C559.485 347.056 557.965 345.296 555.773 345.296C554.333 345.296 553.565 345.968 553.165 346.464H553.117V341.072H551.197V353.168ZM557.565 349.328C557.565 350.528 556.717 351.632 555.309 351.632C553.901 351.632 553.053 350.528 553.053 349.328C553.053 348.128 553.901 347.024 555.309 347.024C556.717 347.024 557.565 348.128 557.565 349.328ZM561.308 353.168H563.228V341.072H561.308V353.168ZM572.824 350V349.472C572.824 346.8 571.368 345.296 569.224 345.296C566.904 345.296 565.048 346.912 565.048 349.328C565.048 351.744 566.904 353.36 569.224 353.36C570.44 353.36 571.576 352.928 572.472 351.824L571.096 350.784C570.616 351.376 569.992 351.824 569.032 351.824C567.96 351.824 567.096 351.136 566.968 350H572.824ZM566.968 348.56C567.112 347.456 567.816 346.736 568.952 346.736C570.152 346.736 570.888 347.44 570.904 348.56H566.968ZM579.995 346.464C579.371 345.616 578.283 345.296 577.259 345.296C575.707 345.296 574.171 346.064 574.171 347.776C574.171 350.704 578.315 349.456 578.315 351.04C578.315 351.648 577.595 351.92 577.035 351.92C576.219 351.92 575.707 351.52 575.211 350.976L573.931 352.176C574.715 353.056 575.739 353.36 576.923 353.36C578.491 353.36 580.235 352.72 580.235 350.896C580.235 347.904 576.091 349.024 576.091 347.648C576.091 347.072 576.699 346.832 577.211 346.832C577.867 346.832 578.347 347.104 578.715 347.616L579.995 346.464ZM581.729 352.048C581.729 352.736 582.337 353.264 583.009 353.264C583.713 353.264 584.289 352.704 584.289 352.016C584.289 351.328 583.697 350.8 583.009 350.8C582.305 350.8 581.729 351.36 581.729 352.048Z" fill="#333333"/>
<path d="M352.408 377.168H353.88L356.696 367.568H356.728L359.528 377.168H360.984L364.312 365.84H362.904L360.28 375.248H360.248L357.48 365.84H355.976L353.192 375.248H353.16L350.584 365.84H349.096L352.408 377.168ZM365.685 371.456C366.277 370.912 367.109 370.64 367.909 370.64C369.077 370.64 369.765 371.2 369.765 372.288V372.512H369.285C367.445 372.512 364.565 372.656 364.565 375.136C364.565 376.592 365.829 377.36 367.349 377.36C368.485 377.36 369.317 376.816 369.813 376.048H369.845C369.845 376.368 369.845 376.832 369.925 377.168H371.125C371.061 376.784 371.013 376.304 371.013 375.872V372.656C371.013 370.544 370.085 369.488 367.877 369.488C366.789 369.488 365.669 369.856 364.901 370.64L365.685 371.456ZM369.765 373.568V374.048C369.733 375.264 368.997 376.304 367.557 376.304C366.613 376.304 365.909 375.952 365.909 375.008C365.909 374 366.933 373.568 368.516 373.568H369.765ZM373.293 377.168H374.541V373.52C374.541 371.808 375.245 370.64 376.861 370.64C378.029 370.64 378.573 371.424 378.573 372.672V377.168H379.821V372.544C379.821 370.736 378.941 369.488 376.973 369.488C375.741 369.488 374.813 370.176 374.477 370.912H374.445C374.445 370.496 374.413 370.08 374.413 369.68H373.229C373.229 370.176 373.293 370.768 373.293 371.456V377.168ZM386.28 369.68H384.072V367.552H382.824V369.68H381.192V370.736H382.824V374.848C382.824 376.4 383.112 377.36 384.888 377.36C385.352 377.36 385.912 377.28 386.344 377.088L386.296 375.952C385.96 376.128 385.56 376.208 385.192 376.208C384.088 376.208 384.072 375.44 384.072 374.48V370.736H386.28V369.68ZM396.358 369.68H394.15V367.552H392.902V369.68H391.27V370.736H392.902V374.848C392.902 376.4 393.19 377.36 394.966 377.36C395.43 377.36 395.99 377.28 396.422 377.088L396.374 375.952C396.038 376.128 395.638 376.208 395.27 376.208C394.166 376.208 394.15 375.44 394.15 374.48V370.736H396.358V369.68ZM397.455 373.424C397.455 375.76 399.151 377.36 401.455 377.36C403.759 377.36 405.455 375.76 405.455 373.424C405.455 371.088 403.759 369.488 401.455 369.488C399.151 369.488 397.455 371.088 397.455 373.424ZM398.799 373.424C398.799 371.856 399.839 370.64 401.455 370.64C403.071 370.64 404.111 371.856 404.111 373.424C404.111 374.992 403.071 376.208 401.455 376.208C399.839 376.208 398.799 374.992 398.799 373.424ZM418.16 370.672C417.408 369.856 416.384 369.488 415.28 369.488C412.976 369.488 411.408 371.152 411.408 373.424C411.408 375.728 412.96 377.36 415.28 377.36C416.368 377.36 417.392 376.992 418.112 376.16L417.184 375.28C416.72 375.92 416.096 376.208 415.28 376.208C413.76 376.208 412.752 374.96 412.752 373.424C412.752 371.888 413.6 370.64 415.28 370.64C416.032 370.64 416.64 370.912 417.168 371.552L418.16 370.672ZM419.559 377.168H420.807V373.52C420.807 371.808 421.479 370.736 422.999 370.736C423.223 370.736 423.463 370.768 423.671 370.832L423.751 369.568C423.575 369.504 423.399 369.488 423.239 369.488C422.007 369.488 421.079 370.176 420.743 370.912H420.711C420.711 370.496 420.679 370.08 420.679 369.68H419.495C419.495 370.176 419.559 370.768 419.559 371.456V377.168ZM430.647 375.072C430.055 375.824 429.335 376.208 428.263 376.208C426.903 376.208 425.911 375.104 425.815 373.808H431.863V373.408C431.863 370.928 430.423 369.488 428.311 369.488C426.103 369.488 424.471 371.104 424.471 373.424C424.471 375.6 425.911 377.36 428.263 377.36C429.655 377.36 430.711 376.944 431.591 375.808L430.647 375.072ZM425.815 372.752C425.975 371.488 426.887 370.64 428.263 370.64C429.639 370.64 430.471 371.488 430.519 372.752H425.815ZM434.481 371.456C435.073 370.912 435.905 370.64 436.705 370.64C437.873 370.64 438.561 371.2 438.561 372.288V372.512H438.081C436.241 372.512 433.361 372.656 433.361 375.136C433.361 376.592 434.625 377.36 436.145 377.36C437.281 377.36 438.113 376.816 438.609 376.048H438.641C438.641 376.368 438.641 376.832 438.721 377.168H439.921C439.857 376.784 439.809 376.304 439.809 375.872V372.656C439.809 370.544 438.881 369.488 436.673 369.488C435.585 369.488 434.465 369.856 433.697 370.64L434.481 371.456ZM438.561 373.568V374.048C438.529 375.264 437.793 376.304 436.353 376.304C435.409 376.304 434.705 375.952 434.705 375.008C434.705 374 435.729 373.568 437.313 373.568H438.561ZM446.186 369.68H443.978V367.552H442.73V369.68H441.098V370.736H442.73V374.848C442.73 376.4 443.018 377.36 444.794 377.36C445.258 377.36 445.818 377.28 446.25 377.088L446.202 375.952C445.866 376.128 445.466 376.208 445.098 376.208C443.994 376.208 443.978 375.44 443.978 374.48V370.736H446.186V369.68ZM453.459 375.072C452.867 375.824 452.147 376.208 451.075 376.208C449.715 376.208 448.723 375.104 448.627 373.808H454.675V373.408C454.675 370.928 453.235 369.488 451.123 369.488C448.915 369.488 447.283 371.104 447.283 373.424C447.283 375.6 448.723 377.36 451.075 377.36C452.467 377.36 453.523 376.944 454.403 375.808L453.459 375.072ZM448.627 372.752C448.787 371.488 449.699 370.64 451.075 370.64C452.451 370.64 453.283 371.488 453.331 372.752H448.627ZM461.747 371.456C462.339 370.912 463.171 370.64 463.971 370.64C465.139 370.64 465.827 371.2 465.827 372.288V372.512H465.347C463.507 372.512 460.627 372.656 460.627 375.136C460.627 376.592 461.891 377.36 463.411 377.36C464.547 377.36 465.379 376.816 465.875 376.048H465.907C465.907 376.368 465.907 376.832 465.987 377.168H467.187C467.123 376.784 467.075 376.304 467.075 375.872V372.656C467.075 370.544 466.147 369.488 463.939 369.488C462.851 369.488 461.731 369.856 460.963 370.64L461.747 371.456ZM465.827 373.568V374.048C465.795 375.264 465.059 376.304 463.619 376.304C462.675 376.304 461.971 375.952 461.971 375.008C461.971 374 462.995 373.568 464.579 373.568H465.827ZM473.809 377.168H475.057V373.52C475.057 371.808 475.761 370.64 477.377 370.64C478.545 370.64 479.089 371.424 479.089 372.672V377.168H480.337V372.544C480.337 370.736 479.457 369.488 477.489 369.488C476.257 369.488 475.329 370.176 474.993 370.912H474.961C474.961 370.496 474.929 370.08 474.929 369.68H473.745C473.745 370.176 473.809 370.768 473.809 371.456V377.168ZM488.444 375.072C487.852 375.824 487.132 376.208 486.06 376.208C484.7 376.208 483.708 375.104 483.612 373.808H489.66V373.408C489.66 370.928 488.22 369.488 486.108 369.488C483.9 369.488 482.268 371.104 482.268 373.424C482.268 375.6 483.708 377.36 486.06 377.36C487.452 377.36 488.508 376.944 489.388 375.808L488.444 375.072ZM483.612 372.752C483.772 371.488 484.684 370.64 486.06 370.64C487.436 370.64 488.268 371.488 488.316 372.752H483.612ZM502.038 369.68H500.694L498.998 375.44H498.966L496.998 369.68H495.686L493.75 375.44H493.718L492.006 369.68H490.63L493.062 377.168H494.342L496.23 371.408H496.262L498.39 377.168H499.622L502.038 369.68ZM511.999 369.68H509.791V367.552H508.543V369.68H506.911V370.736H508.543V374.848C508.543 376.4 508.831 377.36 510.607 377.36C511.071 377.36 511.631 377.28 512.063 377.088L512.015 375.952C511.679 376.128 511.279 376.208 510.911 376.208C509.807 376.208 509.791 375.44 509.791 374.48V370.736H511.999V369.68ZM514.216 371.456C514.808 370.912 515.64 370.64 516.44 370.64C517.608 370.64 518.296 371.2 518.296 372.288V372.512H517.816C515.976 372.512 513.096 372.656 513.096 375.136C513.096 376.592 514.36 377.36 515.88 377.36C517.016 377.36 517.848 376.816 518.344 376.048H518.376C518.376 376.368 518.376 376.832 518.456 377.168H519.656C519.592 376.784 519.544 376.304 519.544 375.872V372.656C519.544 370.544 518.616 369.488 516.408 369.488C515.32 369.488 514.2 369.856 513.432 370.64L514.216 371.456ZM518.296 373.568V374.048C518.264 375.264 517.528 376.304 516.088 376.304C515.144 376.304 514.44 375.952 514.44 375.008C514.44 374 515.464 373.568 517.048 373.568H518.296ZM521.761 377.168H523.009V375.84H523.041C523.505 376.688 524.577 377.36 525.921 377.36C528.017 377.36 529.665 375.664 529.665 373.424C529.665 371.152 528.081 369.488 525.729 369.488C524.641 369.488 523.729 369.968 523.041 370.768H523.009V365.072H521.761V377.168ZM523.009 373.424C523.009 371.856 524.049 370.64 525.665 370.64C527.281 370.64 528.321 371.856 528.321 373.424C528.321 374.992 527.281 376.208 525.665 376.208C524.049 376.208 523.009 374.992 523.009 373.424ZM531.718 377.168H532.966V365.072H531.718V377.168ZM541.194 375.072C540.602 375.824 539.882 376.208 538.81 376.208C537.45 376.208 536.458 375.104 536.362 373.808H542.41V373.408C542.41 370.928 540.97 369.488 538.858 369.488C536.65 369.488 535.018 371.104 535.018 373.424C535.018 375.6 536.458 377.36 538.81 377.36C540.202 377.36 541.258 376.944 542.138 375.808L541.194 375.072ZM536.362 372.752C536.522 371.488 537.434 370.64 538.81 370.64C540.186 370.64 541.018 371.488 541.066 372.752H536.362ZM546.18 374H547.524V373.264C547.524 372.352 547.62 372.128 548.292 371.488C549.252 370.592 550.116 369.808 550.116 368.4C550.116 366.56 548.74 365.552 546.996 365.552C545.252 365.552 543.876 366.544 543.588 368.288L545.028 368.448C545.188 367.408 545.908 366.704 546.98 366.704C548.036 366.704 548.676 367.424 548.676 368.448C548.676 369.456 547.94 370.064 547.284 370.736C546.452 371.568 546.18 371.808 546.18 372.992V374ZM546.852 375.344C546.324 375.344 545.892 375.776 545.892 376.304C545.892 376.832 546.356 377.264 546.852 377.264C547.348 377.264 547.812 376.832 547.812 376.304C547.812 375.776 547.38 375.344 546.852 375.344Z" fill="#333333"/>
<rect x="389.5" y="409.668" width="121" height="35" rx="3.5" fill="#6C3078"/>
<path d="M418.282 422.572C417.302 421.438 416.154 421.004 414.81 421.004C411.758 421.004 409.574 423.076 409.574 426.254C409.574 429.348 411.758 431.42 414.81 431.42C416.266 431.42 417.61 430.888 418.506 429.656L417.05 428.62C416.392 429.46 415.622 429.824 414.824 429.824C412.78 429.824 411.422 428.256 411.422 426.142C411.422 424.168 412.78 422.6 414.824 422.6C415.51 422.6 416.182 422.81 416.91 423.58L418.282 422.572ZM419.536 431.168H421.216V427.57C421.216 427.206 421.44 425.876 423.022 425.876C423.288 425.876 423.554 425.932 423.834 426.002V424.378C423.638 424.322 423.442 424.28 423.232 424.28C422.35 424.28 421.608 424.742 421.244 425.512H421.216V424.448H419.536V431.168ZM431.199 428.396V427.934C431.199 425.596 429.925 424.28 428.049 424.28C426.019 424.28 424.395 425.694 424.395 427.808C424.395 429.922 426.019 431.336 428.049 431.336C429.113 431.336 430.107 430.958 430.891 429.992L429.687 429.082C429.267 429.6 428.721 429.992 427.881 429.992C426.943 429.992 426.187 429.39 426.075 428.396H431.199ZM426.075 427.136C426.201 426.17 426.817 425.54 427.811 425.54C428.861 425.54 429.505 426.156 429.519 427.136H426.075ZM436.97 431.168H438.482V427.304C438.482 426.352 438.482 424.28 435.612 424.28C434.548 424.28 433.498 424.602 432.756 425.358L433.638 426.24C434.086 425.82 434.73 425.54 435.43 425.54C436.326 425.54 436.97 425.974 436.97 426.8V426.982H436.55C434.87 426.982 432.322 427.136 432.322 429.32C432.322 430.65 433.526 431.336 434.772 431.336C435.668 431.336 436.452 431 436.928 430.244H436.97V431.168ZM436.872 428.536C436.872 429.474 436.326 430.076 435.178 430.076C434.632 430.076 434.002 429.81 434.002 429.194C434.002 428.228 435.598 428.158 436.522 428.158H436.872V428.536ZM440.892 425.876V428.956C440.892 430.538 441.312 431.336 443.09 431.336C443.482 431.336 444.07 431.28 444.42 431.112V429.698C444.21 429.852 443.804 429.908 443.51 429.908C442.768 429.908 442.572 429.488 442.572 428.816V425.876H444.42V424.448H442.572V422.502H440.892V424.448H439.506V425.876H440.892ZM452.199 428.396V427.934C452.199 425.596 450.925 424.28 449.049 424.28C447.019 424.28 445.395 425.694 445.395 427.808C445.395 429.922 447.019 431.336 449.049 431.336C450.113 431.336 451.107 430.958 451.891 429.992L450.687 429.082C450.267 429.6 449.721 429.992 448.881 429.992C447.943 429.992 447.187 429.39 447.075 428.396H452.199ZM447.075 427.136C447.201 426.17 447.817 425.54 448.811 425.54C449.861 425.54 450.505 426.156 450.519 427.136H447.075ZM458.515 425.876V428.956C458.515 430.538 458.935 431.336 460.713 431.336C461.105 431.336 461.693 431.28 462.043 431.112V429.698C461.833 429.852 461.427 429.908 461.133 429.908C460.391 429.908 460.195 429.488 460.195 428.816V425.876H462.043V424.448H460.195V422.502H458.515V424.448H457.129V425.876H458.515ZM467.554 431.168H469.066V427.304C469.066 426.352 469.066 424.28 466.196 424.28C465.132 424.28 464.082 424.602 463.34 425.358L464.222 426.24C464.67 425.82 465.314 425.54 466.014 425.54C466.91 425.54 467.554 425.974 467.554 426.8V426.982H467.134C465.454 426.982 462.906 427.136 462.906 429.32C462.906 430.65 464.11 431.336 465.356 431.336C466.252 431.336 467.036 431 467.512 430.244H467.554V431.168ZM467.456 428.536C467.456 429.474 466.91 430.076 465.762 430.076C465.216 430.076 464.586 429.81 464.586 429.194C464.586 428.228 466.182 428.158 467.106 428.158H467.456V428.536ZM470.874 431.168H472.47V430.16H472.498C472.988 430.972 473.87 431.336 474.808 431.336C476.88 431.336 478.126 429.796 478.126 427.808C478.126 425.82 476.796 424.28 474.878 424.28C473.618 424.28 472.946 424.868 472.596 425.302H472.554V420.584H470.874V431.168ZM476.446 427.808C476.446 428.858 475.704 429.824 474.472 429.824C473.24 429.824 472.498 428.858 472.498 427.808C472.498 426.758 473.24 425.792 474.472 425.792C475.704 425.792 476.446 426.758 476.446 427.808ZM479.72 431.168H481.4V420.584H479.72V431.168ZM489.797 428.396V427.934C489.797 425.596 488.523 424.28 486.647 424.28C484.617 424.28 482.993 425.694 482.993 427.808C482.993 429.922 484.617 431.336 486.647 431.336C487.711 431.336 488.705 430.958 489.489 429.992L488.285 429.082C487.865 429.6 487.319 429.992 486.479 429.992C485.541 429.992 484.785 429.39 484.673 428.396H489.797ZM484.673 427.136C484.799 426.17 485.415 425.54 486.409 425.54C487.459 425.54 488.103 426.156 488.117 427.136H484.673Z" fill="white"/>
<rect x="389.5" y="409.668" width="121" height="35" rx="3.5" stroke="#6C3078"/>
<rect x="1" y="1" width="898" height="451.168" rx="3" stroke="#E7EDF9" stroke-width="2"/>
</svg>
