<svg width="900" height="331" viewBox="0 0 900 331" fill="none" xmlns="http://www.w3.org/2000/svg">
<path opacity="0.42" d="M524.137 68.4848C523.087 68.4848 522.135 68.0705 521.426 67.4018C520.539 69.437 516.92 70.9598 512.588 70.9598C512.297 70.9598 512.01 70.9525 511.726 70.938C511.723 70.9416 511.723 70.938 511.723 70.938C510.818 70.898 509.949 70.7853 509.139 70.6181C507.365 70.2511 505.872 69.6078 504.876 68.7974C503.975 69.4879 502.844 69.8986 501.623 69.8986C500.18 69.8986 498.872 69.3316 497.909 68.4049C496.662 67.2056 496.128 65.4466 496.375 63.7312C496.452 63.1897 496.582 62.5646 496.797 62.2085C497.662 60.4168 499.497 59.1812 501.623 59.1812C503.022 59.1812 504.302 59.7227 505.254 60.6022C506.359 58.5415 507.972 57.1896 509.775 56.4882C509.931 56.4264 510.087 56.3719 510.247 56.321C514.405 54.9836 519.38 56.9897 521.343 61.7615C522.124 60.9765 523.236 60.5149 524.454 60.6094C526.391 60.7584 527.953 62.3466 528.073 64.2836C528.219 66.5769 526.401 68.4848 524.137 68.4848Z" fill="#D0D3D4"/>
<path opacity="0.2" d="M524.137 68.4848C523.087 68.4848 522.135 68.0705 521.426 67.4018C520.54 69.437 516.92 70.9598 512.588 70.9598C512.297 70.9598 512.01 70.9525 511.726 70.938C513.042 70.1202 514.456 69.4479 515.699 68.5248C517.356 67.2892 518.755 65.3558 518.461 63.3097C518.29 62.1285 517.578 61.0964 516.774 60.2133C515.379 58.6796 513.613 57.4476 511.628 56.848C511.025 56.6663 510.404 56.5427 509.775 56.4882C509.931 56.4264 510.087 56.3719 510.247 56.321C514.405 54.9836 519.38 56.9897 521.343 61.7615C522.124 60.9765 523.236 60.5149 524.454 60.6094C526.391 60.7584 527.953 62.3466 528.073 64.2836C528.219 66.5769 526.402 68.4848 524.137 68.4848Z" fill="#D0D3D4"/>
<path opacity="0.42" d="M568.148 51.541C566.29 51.541 564.606 50.808 563.352 49.6249C561.783 53.2255 555.379 55.9195 547.715 55.9195C547.201 55.9195 546.693 55.9067 546.191 55.881C546.185 55.8874 546.185 55.881 546.185 55.881C544.584 55.8102 543.047 55.6109 541.613 55.3151C538.476 54.6658 535.833 53.5277 534.071 52.0939C532.477 53.3155 530.477 54.0421 528.317 54.0421C525.764 54.0421 523.45 53.0391 521.746 51.3995C519.54 49.2777 518.595 46.1658 519.032 43.131C519.167 42.173 519.399 41.0671 519.778 40.437C521.309 37.2672 524.555 35.0811 528.317 35.0811C530.792 35.0811 533.055 36.0391 534.74 37.5951C536.695 33.9495 539.549 31.5577 542.739 30.3167C543.015 30.2074 543.291 30.111 543.574 30.021C550.93 27.6549 559.732 31.204 563.204 39.6461C564.586 38.2573 566.554 37.4408 568.708 37.6079C572.135 37.8716 574.9 40.6813 575.112 44.1083C575.369 48.1654 572.154 51.541 568.148 51.541Z" fill="#D0D3D4"/>
<path opacity="0.2" d="M568.148 51.541C566.29 51.541 564.605 50.808 563.352 49.6249C561.783 53.2255 555.379 55.9195 547.715 55.9195C547.2 55.9195 546.693 55.9067 546.191 55.881C548.519 54.4343 551.02 53.2448 553.219 51.6117C556.15 49.4256 558.626 46.005 558.105 42.3852C557.803 40.2955 556.543 38.4695 555.122 36.9071C552.653 34.1938 549.528 32.0141 546.017 30.9533C544.95 30.6318 543.851 30.4132 542.738 30.3167C543.015 30.2074 543.291 30.111 543.574 30.021C550.93 27.6549 559.732 31.204 563.204 39.6461C564.586 38.2573 566.554 37.4408 568.708 37.6079C572.135 37.8716 574.899 40.6813 575.111 44.1083C575.369 48.1654 572.154 51.541 568.148 51.541Z" fill="#D0D3D4"/>
<path opacity="0.42" d="M511.39 39.0299C509.366 39.0299 507.531 38.2315 506.165 36.943C504.457 40.8646 497.482 43.7989 489.134 43.7989C488.574 43.7989 488.021 43.7849 487.474 43.7569C487.467 43.7639 487.467 43.7569 487.467 43.7569C485.724 43.6798 484.05 43.4627 482.488 43.1406C479.071 42.4333 476.193 41.1938 474.274 39.6321C472.537 40.9627 470.359 41.754 468.006 41.754C465.226 41.754 462.705 40.6616 460.849 38.8758C458.447 36.5648 457.418 33.1754 457.894 29.87C458.041 28.8265 458.293 27.622 458.706 26.9357C460.373 23.4832 463.909 21.1022 468.006 21.1022C470.702 21.1022 473.167 22.1457 475.002 23.8404C477.131 19.8697 480.24 17.2646 483.714 15.913C484.015 15.794 484.316 15.6889 484.624 15.5909C492.636 13.0138 502.223 16.8794 506.004 26.0743C507.51 24.5617 509.653 23.6723 511.999 23.8544C515.731 24.1415 518.743 27.2018 518.974 30.9344C519.254 35.3533 515.752 39.0299 511.39 39.0299Z" fill="#D0D3D4"/>
<path opacity="0.2" d="M511.39 39.0299C509.366 39.0299 507.531 38.2315 506.165 36.943C504.457 40.8646 497.482 43.7989 489.134 43.7989C488.574 43.7989 488.021 43.7849 487.474 43.7569C490.01 42.1812 492.734 40.8857 495.129 39.1069C498.322 36.7259 501.018 33.0003 500.451 29.0576C500.122 26.7816 498.749 24.7928 497.202 23.0911C494.512 20.1358 491.109 17.7618 487.285 16.6063C486.123 16.2562 484.925 16.0181 483.714 15.913C484.015 15.794 484.316 15.6889 484.624 15.5909C492.636 13.0138 502.223 16.8794 506.004 26.0743C507.51 24.5617 509.653 23.6723 511.999 23.8544C515.732 24.1415 518.743 27.2018 518.974 30.9344C519.254 35.3533 515.752 39.0299 511.39 39.0299Z" fill="#D0D3D4"/>
<path d="M326.045 18.1719L327.682 19.1542C327.682 19.1542 317.368 27.0127 316.876 27.8313C316.385 28.6499 317.532 252.382 317.532 252.382H314.257C314.257 252.382 314.58 27.5039 314.91 27.0127C315.239 26.5216 326.045 18.1719 326.045 18.1719Z" fill="#CDD7DF"/>
<path d="M342.674 9.30976C341.856 9.14604 338.09 8 336.944 8C336.453 8.32744 326.139 16.8409 325.484 17.6595C324.829 18.4781 327.776 20.9339 328.594 21.5887C329.249 22.1126 338.909 15.3674 343.657 11.9293C343.602 11.1107 343.329 9.44073 342.674 9.30976Z" fill="#CDD7DF"/>
<path d="M343.89 12.093C344.381 11.6018 339.797 10.7832 338.487 10.7832C337.44 11.0452 330.301 17.332 326.863 20.4427C327.245 20.7155 328.173 21.3268 328.828 21.5887C332.757 21.425 343.235 13.0753 343.89 12.093Z" fill="#F6F8F9"/>
<path d="M374.983 65.8232L376.287 66.6057C376.287 66.6057 368.071 72.8655 367.68 73.5176C367.289 74.1697 368.202 252.386 368.202 252.386H365.594C365.594 252.386 365.851 73.2568 366.113 72.8655C366.376 72.4743 374.983 65.8232 374.983 65.8232Z" fill="#CDD7DF"/>
<path d="M388.23 58.7621C387.578 58.6316 384.578 57.7188 383.665 57.7188C383.274 57.9796 375.058 64.761 374.536 65.4131C374.015 66.0652 376.362 68.0214 377.014 68.543C377.536 68.9603 385.23 63.5873 389.012 60.8487C388.969 60.1966 388.751 58.8664 388.23 58.7621Z" fill="#CDD7DF"/>
<path d="M389.198 60.9779C389.589 60.5866 385.938 59.9346 384.895 59.9346C384.06 60.1432 378.374 65.1511 375.635 67.6289C375.94 67.8463 376.679 68.3332 377.2 68.5418C380.33 68.4114 388.677 61.7604 389.198 60.9779Z" fill="#F6F8F9"/>
<path d="M452.513 127.68L449.588 126.978C448.778 126.781 447.933 127.02 447.34 127.609L442.758 132.033C440.193 134.601 436.28 132.878 434.246 130.097L434.242 130.092C432.74 128.028 432.272 125.368 434.178 123.461L434.614 123.032L436.39 121.303L441.347 116.459C441.344 116.455 441.344 116.455 441.344 116.455L442.38 115.417L442.444 115.362L441.558 113.094L440.998 111.666C440.719 110.948 440.844 110.101 441.403 109.567C442.144 108.846 443.268 108.862 443.989 109.521L445.378 111.192C445.468 111.303 445.57 111.4 445.682 111.481C446.625 112.198 448.056 111.823 448.488 110.666C448.503 110.626 448.519 110.577 448.533 110.536L448.837 109.527C449.087 108.677 449.996 108.204 450.831 108.494L451.598 108.753L461.528 112.137L463.213 112.707C463.185 113.676 462.948 114.643 462.482 115.534C462.154 116.158 461.813 116.784 461.458 117.421L460.342 122.645C460.318 122.752 460.206 122.813 460.097 122.767L458.573 122.07C457.545 123.602 456.456 125.141 455.28 126.693C454.643 127.554 453.55 127.932 452.513 127.68Z" fill="#D9E0E6"/>
<path opacity="0.4" d="M452.513 127.681L449.588 126.979C448.778 126.782 447.933 127.021 447.34 127.61L442.758 132.034C440.193 134.602 436.28 132.879 434.246 130.098L434.242 130.093C434.02 128.587 434.185 127.061 434.34 125.55C434.417 124.829 434.494 124.108 434.57 123.387C434.579 123.268 434.597 123.151 434.614 123.033C434.739 122.246 435.02 121.419 435.761 121.22C435.971 121.161 436.216 121.18 436.391 121.304C436.43 121.327 436.468 121.359 436.497 121.397C436.614 121.534 436.646 121.719 436.68 121.895C437.049 123.95 437.421 126.01 437.789 128.065C437.811 128.205 437.845 128.352 437.947 128.448C438.055 128.554 438.219 128.574 438.372 128.588C441.973 128.795 444.557 125.087 448.126 124.557C449.256 124.39 450.855 125.166 451.984 124.999C454.841 124.565 457.352 122.336 458.111 119.548C458.356 118.642 458.439 117.678 458.898 116.859C459.412 115.963 460.324 115.361 460.908 114.509C461.296 113.945 461.523 113.276 461.577 112.595C461.584 112.484 461.561 112.323 461.529 112.138L463.213 112.708C463.186 113.677 462.948 114.644 462.483 115.534C462.155 116.158 461.814 116.785 461.458 117.422L460.343 122.646C460.318 122.753 460.206 122.814 460.098 122.768L458.573 122.071C457.545 123.602 456.457 125.142 455.28 126.694C454.643 127.555 453.551 127.933 452.513 127.681Z" fill="#D9E0E6"/>
<path opacity="0.4" d="M449.701 109.881C449.423 110.2 449.153 110.609 448.723 110.674C448.649 110.685 448.572 110.682 448.497 110.671C448.511 110.63 448.527 110.581 448.542 110.541L448.845 109.532C449.095 108.682 450.005 108.208 450.84 108.499L451.607 108.758C450.888 108.926 450.228 109.274 449.701 109.881Z" fill="#D9E0E6"/>
<path opacity="0.4" d="M445.05 111.405C444.674 111.11 444.359 110.755 443.968 110.47C443.565 110.209 443.027 110.086 442.617 110.338C442.099 110.656 442.049 111.364 441.936 111.956C441.861 112.347 441.735 112.74 441.561 113.099L441.002 111.672C440.722 110.954 440.848 110.107 441.406 109.573C442.147 108.851 443.271 108.868 443.992 109.527L445.381 111.197C445.472 111.309 445.573 111.405 445.685 111.486C445.762 111.952 445.288 111.595 445.05 111.405Z" fill="#D9E0E6"/>
<path d="M448.845 109.529L448.541 110.538C448.128 111.942 446.321 112.313 445.386 111.193L443.997 109.523C443.276 108.864 442.152 108.847 441.411 109.569C440.857 110.099 440.727 110.95 441.007 111.668L441.852 113.832L442.451 115.372L442.387 115.427L439.737 118.081L429.694 111.318C429.437 111.143 429.396 110.786 429.601 110.559C429.697 110.458 429.789 110.36 429.884 110.267C433.297 106.771 437.632 104.478 441.858 105.103C445.452 100.756 451.682 99.6467 456.544 102.508C459.213 104.072 461.275 105.975 462.361 108.444C462.923 109.714 463.228 111.13 463.219 112.726L456.714 110.509L450.838 108.504C450.004 108.206 449.091 108.674 448.845 109.529Z" fill="#CBD6DE"/>
<path opacity="0.4" d="M460.786 110.272C461.567 109.968 462.125 109.241 462.364 108.437C462.925 109.706 463.23 111.122 463.221 112.719L456.717 110.501C457.996 110.022 459.509 110.765 460.786 110.272Z" fill="#CBD6DE"/>
<path opacity="0.4" d="M439.733 118.074L429.69 111.312C429.433 111.137 429.392 110.779 429.597 110.553C429.693 110.451 429.785 110.353 429.88 110.26C430.403 110.492 430.897 110.796 431.381 111.086C433.156 112.15 435.034 113.092 437.045 113.599C438.652 114.004 440.089 113.899 441.717 113.84C441.769 113.839 441.812 113.837 441.85 113.839L442.449 115.379L442.385 115.434L439.733 118.074Z" fill="#CBD6DE"/>
<path d="M390.884 224.961L402.054 228.27L399.778 240.061H386.54L390.884 224.961Z" fill="#D9E0E6"/>
<path d="M416.533 240.891L413.637 227.859L425.841 225.584L427.496 238.202L416.533 240.891Z" fill="#D9E0E6"/>
<path d="M427.909 229.034C431.715 191.967 421.911 161.392 416.533 149.464H390.056C389.85 161.254 412.189 227.999 414.051 232.136C417.084 231.723 424.103 230.523 427.909 229.034Z" fill="#C4D0D9"/>
<path d="M387.588 149.464H416.547C420.477 188.558 406.204 226.023 402.068 232.642C399.379 232.021 390.484 230.16 387.588 229.539C390.898 218.163 383.244 169.114 387.588 149.464Z" fill="#D4DDE3"/>
<path d="M415.69 236.359L430.179 236.35C436.385 248.347 445.062 245.864 445.062 250.829H412.587C414.573 241.893 415.552 237.462 415.69 236.359Z" fill="#CBD6DE"/>
<rect width="33.8702" height="1.55269" rx="0.776347" transform="matrix(-1 0 0 1 445.7 250.83)" fill="#C4D0D9"/>
<path d="M386.617 236.351L401.107 236.342C401.717 239.91 401.933 245.857 401.933 250.821C392.969 250.821 385.204 250.821 382.929 250.821C382.205 250.149 386.479 237.454 386.617 236.351Z" fill="#CBD6DE"/>
<rect width="20.3226" height="1.55269" rx="0.776347" transform="matrix(-1 0 0 1 402.45 250.823)" fill="#C4D0D9"/>
<path d="M414.833 165.293C414.833 165.293 410.667 168.566 401.112 160.179C395.349 155.121 387.53 156.674 385.792 150.121C384.648 145.81 386.498 138.615 391.343 134.643C396.187 130.671 435.414 115.733 435.414 115.733L438.19 119.355L438.218 120.857C436.586 124.193 438.387 126.543 438.693 126.943C438.999 127.342 440.776 129.802 444.518 129.078C445.022 129.354 445.227 129.448 446.071 130.549L444.73 134.819L414.833 165.293Z" fill="#F0F3F6"/>
<path d="M437.031 139.509C436.346 137.518 437.884 134.992 440.267 133.624C444.362 131.83 446.857 134.176 447.667 135.808C448.315 137.114 449.845 141.628 450.717 144.404C452.672 141.213 461.576 130.45 464.368 130.08C467.161 129.711 471.188 129.922 471.877 129.711C472.567 129.499 473.457 131.515 472.374 132.076C471.29 132.637 467.685 132.967 465.821 133.625C465.555 133.948 462.729 139.509 461.472 142.432C460.216 145.355 455.607 154.644 451.751 155.987C447.895 157.331 443.392 154.714 442.65 153.402C441.907 152.089 437.716 141.501 437.031 139.509Z" fill="#CBD6DE"/>
<path d="M451.649 141.915C450.957 139.334 450.295 136.904 449.724 134.864C449.017 132.253 446.93 130.253 444.278 129.638C442.983 129.338 441.631 129.398 440.371 129.81C438.501 130.415 436.857 131.695 435.961 133.443C435.065 135.191 435.03 137.198 435.632 139.063C436.221 140.908 437.24 144.029 438.125 146.737L451.649 141.915Z" fill="#F0F3F6"/>
<path d="M425.609 167.959C425.91 168.445 426.381 168.629 426.83 168.587C427.189 168.558 427.534 168.385 427.769 168.115C428.032 167.814 428.16 167.39 428.029 166.904L427.068 163.359L428.349 163.845C428.796 164.019 429.14 163.432 428.771 163.124L426.483 161.201L426.068 159.668C425.097 156.873 424.385 154.117 423.659 151.308C423.026 148.856 422.382 146.364 421.547 143.77C421.362 143.197 421.702 142.712 422.025 142.249C422.143 142.08 422.26 141.914 422.347 141.748C422.74 141.13 423.158 140.475 423.594 139.789C425.587 136.659 427.974 132.909 430.22 129.348C430.427 129.015 430.635 128.687 430.841 128.361C430.916 128.243 430.99 128.126 431.064 128.009C432.443 125.813 433.743 123.735 434.827 121.971C438.785 115.515 428.835 109.646 425.088 116.206C424.625 117.026 424.129 117.909 423.608 118.84C423.318 119.357 423.02 119.891 422.715 120.438C422.517 120.793 422.316 121.153 422.113 121.516C418.999 127.111 415.381 133.694 412.932 138.226C409.959 144.567 414.019 150.278 417.89 155.721C419.41 157.859 420.901 159.956 421.924 162.033C422.071 162.265 422.224 162.501 422.373 162.732C422.742 163.303 423.09 163.84 423.272 164.198C423.529 164.701 425.609 167.959 425.609 167.959Z" fill="#CBD6DE"/>
<path d="M431.909 129.505C433.433 127.311 434.863 125.236 436.053 123.484C437.59 121.259 437.771 118.374 436.529 115.951C435.923 114.769 435.004 113.774 433.876 113.078C432.207 112.04 430.169 111.61 428.255 112.054C426.342 112.497 424.785 113.766 423.75 115.43C422.721 117.07 420.994 119.863 419.497 122.287L431.909 129.505Z" fill="#F0F3F6"/>
<path d="M524.978 251.612C524.978 252.035 524.455 252.379 523.817 252.379C523.717 252.379 523.623 252.369 523.533 252.354C523.209 252.299 522.88 252.314 522.552 252.364C522.492 252.374 522.427 252.379 522.367 252.379C522.298 252.379 522.233 252.374 522.168 252.364C521.296 252.229 520.419 252.199 519.547 252.329C519.333 252.359 519.109 252.379 518.875 252.379C518.376 252.379 517.898 252.294 517.465 252.15C517.25 252.294 516.996 252.379 516.717 252.379C516.543 252.379 516.379 252.344 516.224 252.284C515.287 251.906 514.251 251.906 513.265 252.145C512.642 252.294 511.989 252.379 511.312 252.379C510.574 252.379 509.867 252.279 509.199 252.105C508.781 252.279 508.322 252.379 507.839 252.379C507.395 252.379 506.972 252.294 506.578 252.145C506.085 251.95 505.547 251.911 505.029 252.015C504.406 252.145 503.758 252.209 503.091 252.209C502.428 252.209 501.785 252.145 501.163 252.015C500.694 251.92 500.206 251.94 499.758 252.1C499.618 252.145 499.469 252.175 499.314 252.175C499.249 252.175 499.19 252.17 499.13 252.16C498.736 252.105 498.343 252.085 497.954 252.175C497.416 252.304 496.848 252.379 496.27 252.379C496.195 252.379 496.125 252.379 496.051 252.374C494.984 252.344 493.983 252.085 493.081 251.641C491.88 251.054 490.5 250.974 489.29 251.532C488.104 252.07 486.774 252.379 485.359 252.379C484.238 252.379 483.161 252.185 482.175 251.836C481.079 251.442 479.878 251.417 478.807 251.876C478.065 252.199 477.237 252.379 476.366 252.379C473.157 252.379 470.556 249.977 470.556 247.013C470.556 244.053 473.157 241.652 476.366 241.652C476.525 241.652 476.679 241.662 476.839 241.672C477.641 239.29 479.579 237.372 482.065 236.455C482.588 236.266 482.942 235.768 482.927 235.215C482.927 235.13 482.932 235.04 482.947 234.951C483.042 234.428 483.46 233.994 483.983 233.884C483.983 233.884 483.988 233.884 483.993 233.879C484.372 233.805 484.681 233.536 484.86 233.192C486.24 230.581 488.737 228.648 491.721 228.04C492.374 227.906 493.046 227.836 493.739 227.836C497.775 227.836 501.252 230.227 502.842 233.665C503.081 234.183 503.564 234.537 504.132 234.597C507.241 234.926 509.892 236.704 511.302 239.206C511.551 239.644 511.984 239.933 512.477 240.003C515.9 240.481 518.516 243.047 518.516 246.146C518.516 246.465 518.476 246.774 518.426 247.078C518.571 247.063 518.725 247.053 518.875 247.053C520.803 247.053 522.367 248.249 522.367 249.718C523.035 249.718 523.583 250.212 523.678 250.849C523.722 250.849 523.767 250.844 523.817 250.844C524.455 250.844 524.978 251.188 524.978 251.612Z" fill="#D4DDE3"/>
<path d="M489.823 236.974C488.513 236.272 486.988 235.868 485.359 235.868C483.725 235.868 482.19 236.277 480.87 236.989" stroke="#C4D0D9" stroke-width="0.5" stroke-miterlimit="10" stroke-linecap="round"/>
<path d="M481.054 243.858C479.997 242.522 478.289 241.65 476.36 241.65" stroke="#C4D0D9" stroke-width="0.5" stroke-miterlimit="10" stroke-linecap="round"/>
<path d="M517.52 247.263C516.269 247.666 515.387 248.613 515.387 249.714C515.387 250.008 515.452 250.292 515.567 250.561" stroke="#C4D0D9" stroke-width="0.5" stroke-miterlimit="10" stroke-linecap="round"/>
<path d="M500.644 250.845C500.644 250.108 500.047 249.515 499.314 249.515C498.582 249.515 497.984 250.113 497.984 250.845" stroke="#C4D0D9" stroke-width="0.5" stroke-miterlimit="10" stroke-linecap="round"/>
<path d="M511.311 239.913C507.335 239.913 504.107 242.703 504.107 246.146" stroke="#C4D0D9" stroke-width="0.5" stroke-miterlimit="10" stroke-linecap="round"/>
<path opacity="0.5" d="M524.978 251.612C524.978 252.035 524.455 252.379 523.817 252.379C523.718 252.379 523.623 252.369 523.533 252.354C523.209 252.299 522.881 252.314 522.552 252.364C522.492 252.374 522.427 252.379 522.367 252.379C522.298 252.379 522.233 252.374 522.168 252.364C521.296 252.229 520.419 252.199 519.547 252.329C519.333 252.359 519.109 252.379 518.875 252.379C518.377 252.379 517.898 252.294 517.465 252.15C517.251 252.294 516.996 252.379 516.717 252.379C516.543 252.379 516.379 252.344 516.224 252.284C515.288 251.906 514.251 251.906 513.265 252.145C512.642 252.294 511.989 252.379 511.312 252.379C510.574 252.379 509.867 252.279 509.199 252.105C508.781 252.279 508.322 252.379 507.839 252.379C507.396 252.379 506.972 252.294 506.578 252.145C506.085 251.95 505.547 251.911 505.029 252.015C504.406 252.145 503.758 252.209 503.091 252.209C502.428 252.209 501.785 252.145 501.163 252.015C500.694 251.92 500.206 251.94 499.758 252.1C499.618 252.145 499.469 252.175 499.314 252.175C499.249 252.175 499.19 252.17 499.13 252.16C498.736 252.105 498.343 252.085 497.954 252.175C497.416 252.304 496.848 252.379 496.27 252.379C496.195 252.379 496.126 252.379 496.051 252.374C497.75 252.01 499.454 251.661 501.158 251.333C502.882 250.999 504.645 250.68 506.379 250.944C507.784 251.153 509.279 251.731 510.564 251.123C510.873 250.979 511.157 250.77 511.481 250.665C511.845 250.545 512.243 250.57 512.627 250.595C514.261 250.695 515.895 250.799 517.535 250.899C517.923 250.924 518.327 250.949 518.686 250.789C519.039 250.635 519.328 250.241 519.224 249.868C519.144 249.559 518.84 249.365 518.556 249.215C517.684 248.772 516.737 248.463 515.771 248.318C515.591 248.288 515.402 248.263 515.253 248.159C514.799 247.83 515.078 247.132 515.103 246.569C515.163 245.229 513.594 244.492 512.288 244.188C510.983 243.889 509.388 243.401 509.149 242.085C509.08 241.717 509.139 241.323 509.005 240.974C508.85 240.556 508.452 240.277 508.068 240.043C506.683 239.196 505.188 238.523 503.634 238.045C502.02 237.551 500.072 237.043 499.533 235.449C499.225 234.537 499.494 233.501 499.155 232.604C498.756 231.543 497.64 230.955 496.619 230.467C495.453 229.909 494.282 229.346 493.111 228.788C492.643 228.558 492.16 228.329 491.721 228.04C492.374 227.906 493.046 227.836 493.739 227.836C497.775 227.836 501.252 230.227 502.842 233.665C503.081 234.183 503.564 234.537 504.132 234.597C507.241 234.926 509.892 236.704 511.302 239.206C511.551 239.644 511.984 239.933 512.478 240.003C515.9 240.481 518.516 243.047 518.516 246.146C518.516 246.465 518.476 246.774 518.426 247.078C518.571 247.063 518.725 247.053 518.875 247.053C520.803 247.053 522.367 248.249 522.367 249.718C523.035 249.718 523.583 250.212 523.678 250.849C523.723 250.849 523.767 250.844 523.817 250.844C524.455 250.844 524.978 251.188 524.978 251.612Z" fill="#C4D0D9"/>
<rect x="465.193" y="157.251" width="21.5629" height="1.26841" fill="#C4D0D9"/>
<path d="M484.22 137.59H512.81C516.985 137.59 520.369 140.974 520.369 145.149V158.519H484.22V137.59Z" fill="#D4DDE3"/>
<rect x="500.709" y="157.251" width="3.17102" height="95.1306" fill="#C4D0D9"/>
<circle cx="489.293" cy="155.348" r="1.26841" fill="white"/>
<path d="M491.83 154.715H507.685L509.588 150.91L511.49 154.715L512.125 155.984H491.83V154.715Z" fill="#C4D0D9"/>
<rect x="279.5" y="252.383" width="341" height="1.68812" fill="#D9E0E6"/>
<path d="M544.535 253.937C544.535 254.266 544.129 254.532 543.634 254.532C543.557 254.532 543.484 254.525 543.414 254.513C543.163 254.471 542.908 254.482 542.653 254.521C542.607 254.529 542.556 254.532 542.51 254.532C542.456 254.532 542.406 254.529 542.355 254.521C541.679 254.417 540.999 254.393 540.323 254.494C540.157 254.517 539.983 254.532 539.802 254.532C539.415 254.532 539.044 254.467 538.708 254.355C538.542 254.467 538.345 254.532 538.129 254.532C537.993 254.532 537.866 254.505 537.746 254.459C537.02 254.165 536.216 254.165 535.451 254.351C534.968 254.467 534.462 254.532 533.936 254.532C533.365 254.532 532.816 254.455 532.298 254.32C531.974 254.455 531.618 254.532 531.243 254.532C530.9 254.532 530.571 254.467 530.266 254.351C529.883 254.2 529.466 254.169 529.064 254.25C528.581 254.351 528.079 254.401 527.561 254.401C527.047 254.401 526.549 254.351 526.066 254.25C525.703 254.177 525.324 254.192 524.977 254.316C524.868 254.351 524.752 254.374 524.633 254.374C524.582 254.374 524.536 254.37 524.49 254.362C524.185 254.32 523.879 254.305 523.578 254.374C523.161 254.475 522.72 254.532 522.272 254.532C522.214 254.532 522.16 254.532 522.102 254.529C521.275 254.505 520.499 254.305 519.799 253.961C518.868 253.505 517.798 253.443 516.859 253.876C515.939 254.293 514.908 254.532 513.811 254.532C512.941 254.532 512.107 254.382 511.342 254.111C510.492 253.806 509.56 253.787 508.73 254.142C508.154 254.393 507.513 254.532 506.837 254.532C504.348 254.532 502.332 252.67 502.332 250.371C502.332 248.076 504.348 246.214 506.837 246.214C506.96 246.214 507.08 246.222 507.204 246.229C507.826 244.383 509.329 242.895 511.257 242.184C511.662 242.037 511.937 241.651 511.925 241.222C511.925 241.156 511.929 241.087 511.941 241.017C512.014 240.612 512.338 240.276 512.744 240.191C512.744 240.191 512.748 240.191 512.752 240.187C513.046 240.129 513.285 239.92 513.424 239.653C514.494 237.629 516.43 236.13 518.744 235.658C519.251 235.554 519.772 235.5 520.309 235.5C523.439 235.5 526.136 237.355 527.368 240.021C527.554 240.422 527.928 240.697 528.369 240.743C530.78 240.998 532.835 242.377 533.929 244.317C534.122 244.657 534.458 244.881 534.841 244.935C537.495 245.306 539.523 247.296 539.523 249.699C539.523 249.946 539.492 250.186 539.454 250.422C539.566 250.41 539.686 250.402 539.802 250.402C541.297 250.402 542.51 251.33 542.51 252.469C543.028 252.469 543.453 252.852 543.526 253.346C543.561 253.346 543.596 253.342 543.634 253.342C544.129 253.342 544.535 253.609 544.535 253.937Z" fill="#D4DDE3"/>
<path d="M517.273 242.586C516.256 242.041 515.074 241.729 513.811 241.729C512.543 241.729 511.353 242.045 510.33 242.598" stroke="#C4D0D9" stroke-width="0.5" stroke-miterlimit="10" stroke-linecap="round"/>
<path d="M510.472 247.927C509.653 246.892 508.328 246.216 506.833 246.216" stroke="#C4D0D9" stroke-width="0.5" stroke-miterlimit="10" stroke-linecap="round"/>
<path d="M538.75 250.564C537.781 250.877 537.097 251.612 537.097 252.465C537.097 252.693 537.147 252.914 537.236 253.122" stroke="#C4D0D9" stroke-width="0.5" stroke-miterlimit="10" stroke-linecap="round"/>
<path d="M525.664 253.343C525.664 252.771 525.201 252.312 524.633 252.312C524.065 252.312 523.601 252.775 523.601 253.343" stroke="#C4D0D9" stroke-width="0.5" stroke-miterlimit="10" stroke-linecap="round"/>
<path d="M533.936 244.867C530.853 244.867 528.35 247.031 528.35 249.701" stroke="#C4D0D9" stroke-width="0.5" stroke-miterlimit="10" stroke-linecap="round"/>
<path opacity="0.5" d="M544.534 253.937C544.534 254.266 544.129 254.532 543.634 254.532C543.557 254.532 543.483 254.525 543.414 254.513C543.163 254.471 542.908 254.482 542.653 254.521C542.606 254.529 542.556 254.532 542.51 254.532C542.456 254.532 542.405 254.529 542.355 254.521C541.679 254.417 540.999 254.393 540.323 254.494C540.157 254.517 539.983 254.532 539.801 254.532C539.415 254.532 539.044 254.467 538.708 254.355C538.542 254.467 538.345 254.532 538.128 254.532C537.993 254.532 537.865 254.505 537.746 254.459C537.019 254.165 536.216 254.165 535.451 254.351C534.968 254.467 534.462 254.532 533.936 254.532C533.364 254.532 532.816 254.455 532.298 254.32C531.973 254.455 531.618 254.532 531.243 254.532C530.899 254.532 530.571 254.467 530.266 254.351C529.883 254.2 529.466 254.169 529.064 254.25C528.581 254.351 528.079 254.401 527.561 254.401C527.047 254.401 526.549 254.351 526.066 254.25C525.703 254.177 525.324 254.192 524.976 254.316C524.868 254.351 524.752 254.374 524.632 254.374C524.582 254.374 524.536 254.37 524.489 254.362C524.184 254.32 523.879 254.305 523.578 254.374C523.16 254.475 522.72 254.532 522.272 254.532C522.214 254.532 522.16 254.532 522.102 254.529C523.419 254.247 524.741 253.976 526.062 253.721C527.399 253.462 528.767 253.215 530.111 253.42C531.201 253.582 532.36 254.03 533.357 253.559C533.596 253.447 533.816 253.285 534.067 253.203C534.35 253.111 534.659 253.13 534.956 253.149C536.223 253.227 537.491 253.308 538.762 253.385C539.063 253.404 539.376 253.424 539.654 253.3C539.929 253.18 540.153 252.875 540.072 252.585C540.01 252.346 539.774 252.195 539.554 252.079C538.878 251.735 538.144 251.496 537.394 251.384C537.255 251.36 537.108 251.341 536.992 251.26C536.641 251.005 536.857 250.464 536.876 250.027C536.923 248.988 535.706 248.416 534.693 248.181C533.681 247.949 532.445 247.57 532.259 246.55C532.205 246.264 532.252 245.959 532.147 245.689C532.027 245.364 531.718 245.148 531.421 244.966C530.347 244.309 529.188 243.788 527.982 243.417C526.73 243.034 525.22 242.64 524.802 241.404C524.563 240.697 524.771 239.893 524.509 239.198C524.2 238.375 523.334 237.919 522.542 237.54C521.638 237.107 520.73 236.671 519.822 236.238C519.459 236.06 519.084 235.883 518.744 235.658C519.25 235.554 519.772 235.5 520.309 235.5C523.439 235.5 526.135 237.355 527.368 240.021C527.553 240.422 527.928 240.697 528.369 240.743C530.779 240.998 532.835 242.377 533.928 244.317C534.122 244.657 534.458 244.881 534.84 244.935C537.495 245.306 539.523 247.296 539.523 249.699C539.523 249.946 539.492 250.186 539.453 250.422C539.566 250.41 539.685 250.402 539.801 250.402C541.296 250.402 542.51 251.33 542.51 252.469C543.027 252.469 543.452 252.852 543.526 253.346C543.561 253.346 543.595 253.342 543.634 253.342C544.129 253.342 544.534 253.609 544.534 253.937Z" fill="#C4D0D9"/>
<circle cx="513.801" cy="213.006" r="4.34723" fill="#C4D0D9"/>
<circle cx="513.801" cy="218.8" r="2.89815" fill="#C4D0D9"/>
<circle cx="512.277" cy="219.15" r="1.79492" fill="white"/>
<circle cx="515.612" cy="219.163" r="1.08681" fill="white"/>
<path fill-rule="evenodd" clip-rule="evenodd" d="M513.53 205.275L513.928 204.695L520.369 207.11L517.756 208.939L520.095 211.57L518.042 213.623L517.53 213.111L519.1 211.541L517.159 209.357L516.182 210.041L515.767 209.447L516.674 208.812L513.53 205.275ZM517.272 208.394L518.826 207.306L515.044 205.888L517.272 208.394ZM519.196 216.831L516.537 215.502L516.861 214.854L519.999 216.423L519.23 221.034L518.515 220.915L519.196 216.831Z" fill="#C4D0D9"/>
<path fill-rule="evenodd" clip-rule="evenodd" d="M514.072 205.275L513.674 204.695L507.233 207.11L509.846 208.939L507.507 211.57L509.56 213.623L510.072 213.111L508.502 211.541L510.443 209.357L511.42 210.041L511.835 209.447L510.928 208.812L514.072 205.275ZM510.33 208.394L508.776 207.306L512.558 205.888L510.33 208.394ZM508.406 216.831L511.065 215.502L510.741 214.854L507.603 216.423L508.372 221.034L509.087 220.915L508.406 216.831Z" fill="#C4D0D9"/>
<path d="M514.005 208.331V158.617" stroke="#C4D0D9" stroke-width="0.25"/>
<path d="M282.264 290.532H284.28V285.54H289.576V290.532H291.592V279.204H289.576V283.716H284.28V279.204H282.264V290.532ZM293.563 286.692C293.563 289.108 295.419 290.724 297.739 290.724C300.059 290.724 301.915 289.108 301.915 286.692C301.915 284.276 300.059 282.66 297.739 282.66C295.419 282.66 293.563 284.276 293.563 286.692ZM295.483 286.692C295.483 285.492 296.331 284.388 297.739 284.388C299.147 284.388 299.995 285.492 299.995 286.692C299.995 287.892 299.147 288.996 297.739 288.996C296.331 288.996 295.483 287.892 295.483 286.692ZM303.329 286.692C303.329 289.108 305.185 290.724 307.505 290.724C309.825 290.724 311.681 289.108 311.681 286.692C311.681 284.276 309.825 282.66 307.505 282.66C305.185 282.66 303.329 284.276 303.329 286.692ZM305.249 286.692C305.249 285.492 306.097 284.388 307.505 284.388C308.913 284.388 309.761 285.492 309.761 286.692C309.761 287.892 308.913 288.996 307.505 288.996C306.097 288.996 305.249 287.892 305.249 286.692ZM313.479 290.532H315.399V286.42C315.399 286.004 315.655 284.484 317.463 284.484C317.767 284.484 318.071 284.548 318.391 284.628V282.772C318.167 282.708 317.943 282.66 317.703 282.66C316.695 282.66 315.847 283.188 315.431 284.068H315.399V282.852H313.479V290.532ZM324.497 290.532H326.225V286.116C326.225 285.028 326.225 282.66 322.945 282.66C321.729 282.66 320.529 283.028 319.681 283.892L320.689 284.9C321.201 284.42 321.937 284.1 322.737 284.1C323.761 284.1 324.497 284.596 324.497 285.54V285.748H324.017C322.097 285.748 319.185 285.924 319.185 288.42C319.185 289.94 320.561 290.724 321.985 290.724C323.009 290.724 323.905 290.34 324.449 289.476H324.497V290.532ZM324.385 287.524C324.385 288.596 323.761 289.284 322.449 289.284C321.825 289.284 321.105 288.98 321.105 288.276C321.105 287.172 322.929 287.092 323.985 287.092H324.385V287.524ZM330.531 290.596L330.163 291.508C329.843 292.308 329.587 292.644 328.643 292.644C328.307 292.644 327.971 292.564 327.667 292.452L327.427 294.18C327.907 294.308 328.403 294.372 328.899 294.372C330.595 294.372 331.267 293.62 331.827 292.18L335.459 282.852H333.459L331.539 288.18H331.507L329.363 282.852H327.251L330.531 290.596ZM338.828 279.204H336.908V286.98H338.828V279.204ZM336.588 289.412C336.588 290.1 337.196 290.628 337.868 290.628C338.572 290.628 339.148 290.068 339.148 289.38C339.148 288.692 338.556 288.164 337.868 288.164C337.164 288.164 336.588 288.724 336.588 289.412ZM348.297 290.596L347.929 291.508C347.609 292.308 347.353 292.644 346.409 292.644C346.073 292.644 345.737 292.564 345.433 292.452L345.193 294.18C345.673 294.308 346.169 294.372 346.665 294.372C348.361 294.372 349.033 293.62 349.593 292.18L353.225 282.852H351.225L349.305 288.18H349.273L347.129 282.852H345.017L348.297 290.596ZM353.97 286.692C353.97 289.108 355.826 290.724 358.146 290.724C360.466 290.724 362.322 289.108 362.322 286.692C362.322 284.276 360.466 282.66 358.146 282.66C355.826 282.66 353.97 284.276 353.97 286.692ZM355.89 286.692C355.89 285.492 356.738 284.388 358.146 284.388C359.554 284.388 360.402 285.492 360.402 286.692C360.402 287.892 359.554 288.996 358.146 288.996C356.738 288.996 355.89 287.892 355.89 286.692ZM371.127 282.852H369.207V287.044C369.207 288.068 368.711 288.996 367.447 288.996C366.103 288.996 366.039 287.588 366.039 286.74V282.852H364.119V287.7C364.119 289.268 364.855 290.724 366.919 290.724C368.199 290.724 368.919 290.068 369.271 289.3H369.303V290.532H371.127V282.852ZM379.961 278.436H378.041V290.532H379.961V286.34C379.961 285.316 380.457 284.388 381.721 284.388C383.065 284.388 383.129 285.796 383.129 286.644V290.532H385.049V285.684C385.049 284.116 384.313 282.66 382.249 282.66C381.065 282.66 380.297 283.284 379.993 283.924H379.961V278.436ZM392.029 290.532H393.757V286.116C393.757 285.028 393.757 282.66 390.477 282.66C389.261 282.66 388.061 283.028 387.213 283.892L388.221 284.9C388.733 284.42 389.469 284.1 390.269 284.1C391.293 284.1 392.029 284.596 392.029 285.54V285.748H391.549C389.629 285.748 386.717 285.924 386.717 288.42C386.717 289.94 388.093 290.724 389.517 290.724C390.541 290.724 391.437 290.34 391.981 289.476H392.029V290.532ZM391.917 287.524C391.917 288.596 391.293 289.284 389.981 289.284C389.357 289.284 388.637 288.98 388.637 288.276C388.637 287.172 390.461 287.092 391.517 287.092H391.917V287.524ZM397.918 290.532H399.966L402.99 282.852H401.022L398.958 288.228H398.926L396.878 282.852H394.782L397.918 290.532ZM411.511 287.364V286.836C411.511 284.164 410.055 282.66 407.911 282.66C405.591 282.66 403.735 284.276 403.735 286.692C403.735 289.108 405.591 290.724 407.911 290.724C409.127 290.724 410.263 290.292 411.159 289.188L409.783 288.148C409.303 288.74 408.679 289.188 407.719 289.188C406.647 289.188 405.783 288.5 405.655 287.364H411.511ZM405.655 285.924C405.799 284.82 406.503 284.1 407.639 284.1C408.839 284.1 409.575 284.804 409.591 285.924H405.655ZM424.617 283.828C423.881 283.012 422.809 282.66 421.833 282.66C419.513 282.66 417.657 284.276 417.657 286.692C417.657 289.108 419.513 290.724 421.833 290.724C422.505 290.724 423.817 290.436 424.601 289.652L423.321 288.276C422.969 288.74 422.425 288.996 421.833 288.996C420.425 288.996 419.577 287.892 419.577 286.692C419.577 285.492 420.425 284.388 421.833 284.388C422.345 284.388 422.841 284.692 423.289 285.156L424.617 283.828ZM430.56 290.532H432.288V286.116C432.288 285.028 432.288 282.66 429.008 282.66C427.792 282.66 426.592 283.028 425.744 283.892L426.752 284.9C427.264 284.42 428 284.1 428.8 284.1C429.824 284.1 430.56 284.596 430.56 285.54V285.748H430.08C428.16 285.748 425.248 285.924 425.248 288.42C425.248 289.94 426.624 290.724 428.048 290.724C429.072 290.724 429.968 290.34 430.512 289.476H430.56V290.532ZM430.448 287.524C430.448 288.596 429.824 289.284 428.512 289.284C427.888 289.284 427.168 288.98 427.168 288.276C427.168 287.172 428.992 287.092 430.048 287.092H430.448V287.524ZM441.362 282.852H439.442V287.044C439.442 288.068 438.946 288.996 437.682 288.996C436.338 288.996 436.274 287.588 436.274 286.74V282.852H434.354V287.7C434.354 289.268 435.09 290.724 437.154 290.724C438.434 290.724 439.154 290.068 439.506 289.3H439.538V290.532H441.362V282.852ZM449.621 282.852V284.004H449.589C449.029 283.076 448.021 282.66 446.949 282.66C444.581 282.66 443.157 284.42 443.157 286.692C443.157 288.868 444.677 290.628 446.981 290.628C447.941 290.628 448.933 290.26 449.493 289.508H449.525V290.068C449.525 291.588 448.949 292.644 447.093 292.644C446.021 292.644 445.221 292.244 444.453 291.54L443.301 293.108C444.389 294.068 445.685 294.372 447.109 294.372C450.101 294.372 451.445 292.612 451.445 289.844V282.852H449.621ZM447.349 284.388C448.741 284.388 449.621 285.316 449.621 286.644C449.621 287.924 448.757 288.9 447.333 288.9C446.037 288.9 445.077 287.892 445.077 286.676C445.077 285.316 446.005 284.388 447.349 284.388ZM455.539 278.436H453.619V290.532H455.539V286.34C455.539 285.316 456.035 284.388 457.299 284.388C458.643 284.388 458.707 285.796 458.707 286.644V290.532H460.627V285.684C460.627 284.116 459.891 282.66 457.827 282.66C456.643 282.66 455.875 283.284 455.571 283.924H455.539V278.436ZM463.495 284.484V288.004C463.495 289.812 463.975 290.724 466.007 290.724C466.455 290.724 467.127 290.66 467.527 290.468V288.852C467.287 289.028 466.823 289.092 466.487 289.092C465.639 289.092 465.415 288.612 465.415 287.844V284.484H467.527V282.852H465.415V280.628H463.495V282.852H461.911V284.484H463.495ZM480.768 282.852H478.848V287.044C478.848 288.068 478.352 288.996 477.088 288.996C475.744 288.996 475.68 287.588 475.68 286.74V282.852H473.76V287.7C473.76 289.268 474.496 290.724 476.56 290.724C477.84 290.724 478.56 290.068 478.912 289.3H478.944V290.532H480.768V282.852ZM482.947 294.18H484.867V289.556H484.915C485.315 290.052 486.083 290.724 487.523 290.724C489.715 290.724 491.235 288.964 491.235 286.692C491.235 284.42 489.811 282.66 487.443 282.66C486.371 282.66 485.363 283.076 484.803 284.004H484.771V282.852H482.947V294.18ZM489.315 286.692C489.315 287.892 488.467 288.996 487.059 288.996C485.651 288.996 484.803 287.892 484.803 286.692C484.803 285.492 485.651 284.388 487.059 284.388C488.467 284.388 489.315 285.492 489.315 286.692ZM499.392 290.532H501.376L502.992 285.284H503.024L504.848 290.532H506.752L509.36 282.852H507.424L505.824 288.228H505.792L504.128 282.852H502.048L500.496 288.228H500.464L498.8 282.852H496.72L499.392 290.532ZM510.526 290.532H512.446V282.852H510.526V290.532ZM510.254 280.244C510.254 280.852 510.766 281.396 511.47 281.396C512.174 281.396 512.718 280.9 512.718 280.244C512.718 279.588 512.174 279.092 511.47 279.092C510.766 279.092 510.254 279.636 510.254 280.244ZM515.339 284.484V288.004C515.339 289.812 515.819 290.724 517.851 290.724C518.299 290.724 518.971 290.66 519.371 290.468V288.852C519.131 289.028 518.667 289.092 518.331 289.092C517.483 289.092 517.259 288.612 517.259 287.844V284.484H519.371V282.852H517.259V280.628H515.339V282.852H513.755V284.484H515.339ZM522.789 278.436H520.869V290.532H522.789V286.34C522.789 285.316 523.285 284.388 524.549 284.388C525.893 284.388 525.957 285.796 525.957 286.644V290.532H527.877V285.684C527.877 284.116 527.141 282.66 525.077 282.66C523.893 282.66 523.125 283.284 522.821 283.924H522.789V278.436ZM542.183 287.364V286.836C542.183 284.164 540.727 282.66 538.583 282.66C536.263 282.66 534.407 284.276 534.407 286.692C534.407 289.108 536.263 290.724 538.583 290.724C539.799 290.724 540.935 290.292 541.831 289.188L540.455 288.148C539.975 288.74 539.351 289.188 538.391 289.188C537.319 289.188 536.455 288.5 536.327 287.364H542.183ZM536.327 285.924C536.471 284.82 537.175 284.1 538.311 284.1C539.511 284.1 540.247 284.804 540.263 285.924H536.327ZM546.075 290.532H548.123L551.147 282.852H549.179L547.115 288.228H547.083L545.035 282.852H542.939L546.075 290.532ZM559.668 287.364V286.836C559.668 284.164 558.212 282.66 556.068 282.66C553.748 282.66 551.892 284.276 551.892 286.692C551.892 289.108 553.748 290.724 556.068 290.724C557.284 290.724 558.42 290.292 559.316 289.188L557.94 288.148C557.46 288.74 556.836 289.188 555.876 289.188C554.804 289.188 553.94 288.5 553.812 287.364H559.668ZM553.812 285.924C553.956 284.82 554.66 284.1 555.796 284.1C556.996 284.1 557.732 284.804 557.748 285.924H553.812ZM561.463 290.532H563.383V286.42C563.383 286.004 563.639 284.484 565.447 284.484C565.751 284.484 566.055 284.548 566.375 284.628V282.772C566.151 282.708 565.927 282.66 565.687 282.66C564.679 282.66 563.831 283.188 563.415 284.068H563.383V282.852H561.463V290.532ZM569.922 290.596L569.554 291.508C569.234 292.308 568.978 292.644 568.034 292.644C567.698 292.644 567.362 292.564 567.058 292.452L566.818 294.18C567.298 294.308 567.794 294.372 568.29 294.372C569.986 294.372 570.658 293.62 571.218 292.18L574.85 282.852H572.85L570.93 288.18H570.898L568.754 282.852H566.642L569.922 290.596ZM576.667 284.484V288.004C576.667 289.812 577.147 290.724 579.179 290.724C579.627 290.724 580.299 290.66 580.699 290.468V288.852C580.459 289.028 579.995 289.092 579.659 289.092C578.811 289.092 578.587 288.612 578.587 287.844V284.484H580.699V282.852H578.587V280.628H576.667V282.852H575.083V284.484H576.667ZM584.117 278.436H582.197V290.532H584.117V286.34C584.117 285.316 584.613 284.388 585.877 284.388C587.221 284.388 587.285 285.796 587.285 286.644V290.532H589.205V285.684C589.205 284.116 588.469 282.66 586.405 282.66C585.221 282.66 584.453 283.284 584.149 283.924H584.117V278.436ZM591.417 290.532H593.337V282.852H591.417V290.532ZM591.145 280.244C591.145 280.852 591.657 281.396 592.361 281.396C593.065 281.396 593.609 280.9 593.609 280.244C593.609 279.588 593.065 279.092 592.361 279.092C591.657 279.092 591.145 279.636 591.145 280.244ZM595.541 290.532H597.461V286.34C597.461 285.316 597.957 284.388 599.221 284.388C600.565 284.388 600.629 285.796 600.629 286.644V290.532H602.549V285.684C602.549 284.116 601.813 282.66 599.749 282.66C598.469 282.66 597.749 283.316 597.397 284.084H597.365V282.852H595.541V290.532ZM610.809 282.852V284.004H610.777C610.217 283.076 609.209 282.66 608.137 282.66C605.769 282.66 604.345 284.42 604.345 286.692C604.345 288.868 605.865 290.628 608.169 290.628C609.129 290.628 610.121 290.26 610.681 289.508H610.713V290.068C610.713 291.588 610.137 292.644 608.281 292.644C607.209 292.644 606.409 292.244 605.641 291.54L604.489 293.108C605.577 294.068 606.873 294.372 608.297 294.372C611.289 294.372 612.633 292.612 612.633 289.844V282.852H610.809ZM608.537 284.388C609.929 284.388 610.809 285.316 610.809 286.644C610.809 287.924 609.945 288.9 608.521 288.9C607.225 288.9 606.265 287.892 606.265 286.676C606.265 285.316 607.193 284.388 608.537 284.388ZM614.807 289.412C614.807 290.1 615.415 290.628 616.087 290.628C616.791 290.628 617.367 290.068 617.367 289.38C617.367 288.692 616.775 288.164 616.087 288.164C615.383 288.164 614.807 288.724 614.807 289.412Z" fill="#333333"/>
<path d="M370.508 303.204H361.676V304.452H365.42V314.532H366.764V304.452H370.508V303.204ZM371.984 314.532H373.232V307.044H371.984V314.532ZM371.696 304.116C371.696 304.644 372.08 305.028 372.608 305.028C373.136 305.028 373.52 304.644 373.52 304.116C373.52 303.62 373.12 303.204 372.608 303.204C372.096 303.204 371.696 303.62 371.696 304.116ZM375.715 314.532H376.963V310.884C376.963 309.172 377.667 308.004 379.283 308.004C380.307 308.004 380.723 308.644 380.723 310.292V314.532H381.971V310.212C381.971 308.868 382.851 308.004 383.907 308.004C385.363 308.004 385.731 309.012 385.731 310.052V314.532H386.979V309.988C386.979 308.052 386.275 306.852 384.131 306.852C382.995 306.852 382.307 307.396 381.763 308.276C381.523 307.764 381.011 306.852 379.395 306.852C378.163 306.852 377.235 307.54 376.899 308.276H376.867C376.867 307.86 376.835 307.444 376.835 307.044H375.651C375.651 307.54 375.715 308.132 375.715 308.82V314.532ZM395.084 312.436C394.492 313.188 393.772 313.572 392.7 313.572C391.34 313.572 390.348 312.468 390.252 311.172H396.3V310.772C396.3 308.292 394.86 306.852 392.748 306.852C390.54 306.852 388.908 308.468 388.908 310.788C388.908 312.964 390.348 314.724 392.7 314.724C394.092 314.724 395.148 314.308 396.028 313.172L395.084 312.436ZM390.252 310.116C390.412 308.852 391.324 308.004 392.7 308.004C394.076 308.004 394.908 308.852 394.956 310.116H390.252ZM406.78 307.044H404.572V304.916H403.324V307.044H401.692V308.1H403.324V312.212C403.324 313.764 403.612 314.724 405.388 314.724C405.852 314.724 406.412 314.644 406.844 314.452L406.796 313.316C406.46 313.492 406.06 313.572 405.692 313.572C404.588 313.572 404.572 312.804 404.572 311.844V308.1H406.78V307.044ZM407.877 310.788C407.877 313.124 409.573 314.724 411.877 314.724C414.181 314.724 415.877 313.124 415.877 310.788C415.877 308.452 414.181 306.852 411.877 306.852C409.573 306.852 407.877 308.452 407.877 310.788ZM409.221 310.788C409.221 309.22 410.261 308.004 411.877 308.004C413.493 308.004 414.533 309.22 414.533 310.788C414.533 312.356 413.493 313.572 411.877 313.572C410.261 313.572 409.221 312.356 409.221 310.788ZM426.358 307.044H424.15V304.916H422.902V307.044H421.27V308.1H422.902V312.212C422.902 313.764 423.19 314.724 424.966 314.724C425.43 314.724 425.99 314.644 426.422 314.452L426.374 313.316C426.038 313.492 425.638 313.572 425.27 313.572C424.166 313.572 424.15 312.804 424.15 311.844V308.1H426.358V307.044ZM427.887 314.532H429.135V310.884C429.135 309.172 429.807 308.1 431.327 308.1C431.551 308.1 431.791 308.132 431.999 308.196L432.079 306.932C431.903 306.868 431.727 306.852 431.567 306.852C430.335 306.852 429.407 307.54 429.071 308.276H429.039C429.039 307.86 429.007 307.444 429.007 307.044H427.823C427.823 307.54 427.887 308.132 427.887 308.82V314.532ZM434.2 308.82C434.792 308.276 435.624 308.004 436.424 308.004C437.592 308.004 438.28 308.564 438.28 309.652V309.876H437.8C435.96 309.876 433.08 310.02 433.08 312.5C433.08 313.956 434.344 314.724 435.864 314.724C437 314.724 437.832 314.18 438.328 313.412H438.36C438.36 313.732 438.36 314.196 438.44 314.532H439.64C439.576 314.148 439.528 313.668 439.528 313.236V310.02C439.528 307.908 438.6 306.852 436.392 306.852C435.304 306.852 434.184 307.22 433.416 308.004L434.2 308.82ZM438.28 310.932V311.412C438.248 312.628 437.512 313.668 436.072 313.668C435.128 313.668 434.424 313.316 434.424 312.372C434.424 311.364 435.448 310.932 437.032 310.932H438.28ZM448.177 307.044H446.833L444.609 312.916H444.577L442.241 307.044H440.785L443.841 314.532H445.217L448.177 307.044ZM455.272 312.436C454.68 313.188 453.96 313.572 452.888 313.572C451.528 313.572 450.536 312.468 450.44 311.172H456.488V310.772C456.488 308.292 455.048 306.852 452.936 306.852C450.728 306.852 449.096 308.468 449.096 310.788C449.096 312.964 450.536 314.724 452.888 314.724C454.28 314.724 455.336 314.308 456.216 313.172L455.272 312.436ZM450.44 310.116C450.6 308.852 451.512 308.004 452.888 308.004C454.264 308.004 455.096 308.852 455.144 310.116H450.44ZM458.53 314.532H459.778V302.436H458.53V314.532ZM470.811 307.044H468.603V304.916H467.355V307.044H465.723V308.1H467.355V312.212C467.355 313.764 467.643 314.724 469.419 314.724C469.883 314.724 470.443 314.644 470.875 314.452L470.827 313.316C470.491 313.492 470.091 313.572 469.723 313.572C468.619 313.572 468.603 312.804 468.603 311.844V308.1H470.811V307.044ZM472.34 314.532H473.588V310.884C473.588 309.172 474.292 308.004 475.908 308.004C477.076 308.004 477.62 308.788 477.62 310.036V314.532H478.868V309.908C478.868 308.1 477.988 306.852 476.02 306.852C474.852 306.852 473.956 307.492 473.62 308.084H473.588V302.436H472.34V314.532ZM486.975 312.436C486.383 313.188 485.663 313.572 484.591 313.572C483.231 313.572 482.239 312.468 482.143 311.172H488.191V310.772C488.191 308.292 486.751 306.852 484.639 306.852C482.431 306.852 480.799 308.468 480.799 310.788C480.799 312.964 482.239 314.724 484.591 314.724C485.983 314.724 487.039 314.308 487.919 313.172L486.975 312.436ZM482.143 310.116C482.303 308.852 483.215 308.004 484.591 308.004C485.967 308.004 486.799 308.852 486.847 310.116H482.143ZM505.023 307.044H503.679L501.983 312.804H501.951L499.983 307.044H498.671L496.735 312.804H496.703L494.991 307.044H493.615L496.047 314.532H497.327L499.215 308.772H499.247L501.375 314.532H502.607L505.023 307.044ZM506.002 310.788C506.002 313.124 507.698 314.724 510.002 314.724C512.306 314.724 514.002 313.124 514.002 310.788C514.002 308.452 512.306 306.852 510.002 306.852C507.698 306.852 506.002 308.452 506.002 310.788ZM507.346 310.788C507.346 309.22 508.386 308.004 510.002 308.004C511.618 308.004 512.658 309.22 512.658 310.788C512.658 312.356 511.618 313.572 510.002 313.572C508.386 313.572 507.346 312.356 507.346 310.788ZM515.934 314.532H517.182V310.884C517.182 309.172 517.854 308.1 519.374 308.1C519.598 308.1 519.838 308.132 520.046 308.196L520.126 306.932C519.95 306.868 519.774 306.852 519.614 306.852C518.382 306.852 517.454 307.54 517.118 308.276H517.086C517.086 307.86 517.054 307.444 517.054 307.044H515.87C515.87 307.54 515.934 308.132 515.934 308.82V314.532ZM521.671 314.532H522.919V302.436H521.671V314.532ZM531.627 314.532H532.875V302.436H531.627V308.132H531.595C530.907 307.332 529.995 306.852 528.907 306.852C526.555 306.852 524.971 308.516 524.971 310.788C524.971 313.028 526.619 314.724 528.715 314.724C530.059 314.724 531.131 314.052 531.595 313.204H531.627V314.532ZM531.627 310.788C531.627 312.356 530.587 313.572 528.971 313.572C527.355 313.572 526.315 312.356 526.315 310.788C526.315 309.22 527.355 308.004 528.971 308.004C530.587 308.004 531.627 309.22 531.627 310.788ZM536.224 312.708C535.696 312.708 535.264 313.14 535.264 313.668C535.264 314.196 535.728 314.628 536.224 314.628C536.72 314.628 537.184 314.196 537.184 313.668C537.184 313.14 536.752 312.708 536.224 312.708Z" fill="#333333"/>
</svg>
