<svg width="900" height="509" viewBox="0 0 900 509" fill="none" xmlns="http://www.w3.org/2000/svg">
<rect opacity="0.6" x="277.092" y="18.5957" width="387" height="256" rx="50" fill="#3379BF"/>
<path fill-rule="evenodd" clip-rule="evenodd" d="M350.009 11.9941C358.726 11.9941 366.359 17.671 369.452 25.821C375.003 40.4482 382.453 55.8412 391.159 64.9941C405.648 80.2264 420.138 80.2758 433.396 80.321C437.981 80.3366 442.419 80.3517 446.659 80.9941C463.159 83.4941 485.159 88.4941 496.659 111.994C507.906 134.977 528.24 155.091 553.919 162.981C555.072 163.335 556.26 163.557 557.464 163.626C568.134 164.238 599.131 163.807 614.159 163.494C637.917 163.494 666.154 180.661 680.169 221.12C680.846 223.076 681.159 225.147 681.159 227.217V265.994C681.159 277.04 672.205 285.994 661.159 285.994H257.159C246.113 285.994 237.159 277.04 237.159 265.994V31.9941C237.159 20.9484 246.113 11.9941 257.159 11.9941H350.009Z" fill="#8CDACD"/>
<path d="M357.948 79.5091L355.198 76.8691L352.438 79.5091L349.688 76.8691L346.928 79.5091L344.168 76.8691L341.408 79.5091" stroke="#309181" stroke-width="0.5" stroke-miterlimit="10" stroke-linecap="round"/>
<path d="M454.104 123.158L451.354 120.518L448.594 123.158L445.844 120.518L443.084 123.158L440.324 120.518L437.564 123.158" stroke="#309181" stroke-width="0.5" stroke-miterlimit="10" stroke-linecap="round"/>
<path d="M290.958 129.154L288.208 126.514L285.448 129.154L282.698 126.514L279.938 129.154L277.178 126.514L274.418 129.154" stroke="#309181" stroke-width="0.5" stroke-miterlimit="10" stroke-linecap="round"/>
<path d="M394.836 209.603L392.086 206.963L389.326 209.603L386.576 206.963L383.816 209.603L381.056 206.963L378.296 209.603" stroke="#309181" stroke-width="0.5" stroke-miterlimit="10" stroke-linecap="round"/>
<path d="M253.699 35.7923L250.949 33.1523L248.189 35.7923L245.439 33.1523L242.679 35.7923L239.919 33.1523L237.159 35.7923" stroke="#309181" stroke-width="0.5" stroke-miterlimit="10" stroke-linecap="round"/>
<path d="M342.228 247.849L339.478 245.209L336.717 247.849L333.967 245.209L331.207 247.849L328.448 245.209L325.688 247.849" stroke="#309181" stroke-width="0.5" stroke-miterlimit="10" stroke-linecap="round"/>
<path d="M353.297 262.789L377.905 262.773C388.443 283.147 403.18 278.932 403.18 287.363H348.028C351.4 272.187 353.063 264.662 353.297 262.789Z" fill="#E4EAEE"/>
<rect width="57.5214" height="2.63692" rx="1.31846" transform="matrix(-1 0 0 1 404.264 287.364)" fill="#C4D0D9"/>
<path d="M279.688 262.787L304.296 262.771C305.332 268.831 305.698 278.931 305.698 287.361C290.476 287.361 277.288 287.362 273.424 287.361C272.194 286.22 279.454 264.661 279.688 262.787Z" fill="#E4EAEE"/>
<rect width="34.5137" height="2.63692" rx="1.31846" transform="matrix(-1 0 0 1 306.577 287.36)" fill="#C4D0D9"/>
<path fill-rule="evenodd" clip-rule="evenodd" d="M328.883 115.232H353.297C359.972 143.511 373.496 214.47 378.063 262.772H353.297C342.164 237.582 331.892 188.145 328.795 165.074C325.699 188.145 315.427 237.582 304.293 262.772H279.528C284.094 214.47 297.619 143.511 304.293 115.232H328.708H328.883Z" fill="#7BA4AE"/>
<path d="M321.503 78.7202H339.543L339.046 54.1147L349.071 42.3356L348.82 28.3009L316.741 26.2959V35.5688V41.5837L319.748 44.0899L321.252 55.6185L321.503 78.7202Z" fill="#7C7EA8"/>
<path d="M349.022 41.8345V32.0604L316.692 30.5566V49.6038L321.252 55.6187C318.209 27.6211 321.754 48.6013 326.265 53.1124C328.805 55.6526 333.533 60.6183 343.808 59.8792C348.764 59.5227 352.079 54.5822 352.079 52.6112C352.079 48.1 349.524 43.8395 349.022 41.8345Z" fill="#371552"/>
<path d="M325.012 41.3112L323.007 47.326C318.245 45.3213 314.736 43.3161 316.491 39.8074C317.894 37.0005 322.756 39.6404 325.012 41.3112Z" fill="#7C7EA8"/>
<path d="M326.766 43.5886C327.969 41.5836 328.269 35.0675 328.269 32.0601H349.071V42.5861C346.815 43.0873 337.793 46.3454 335.788 48.3504C334.535 47.3479 330.274 44.3404 326.766 43.5886Z" fill="#7C7EA8"/>
<path d="M333.47 8C334.024 8 334.473 8.44886 334.473 9.00248V9.6726C343.281 10.8268 350.088 18.5065 350.088 27.8083C350.088 28.4427 350.056 29.0692 349.994 29.687H350.012C351.707 29.687 353.081 31.0889 353.081 32.8182C353.081 33.181 353.021 33.5295 352.909 33.853H314.419C314.308 33.5295 314.248 33.181 314.248 32.8182C314.248 32.2999 314.371 31.8109 314.589 31.3806C314.365 30.2254 314.248 29.031 314.248 27.8083C314.248 18.4717 321.105 10.7695 329.961 9.65987V9.00248C329.961 8.44886 330.41 8 330.964 8H333.47Z" fill="#FFB81C"/>
<path d="M340.446 63.7521L341.405 64.1358L388.598 114.974C386.04 119.13 379.083 127.443 371.716 127.443C364.349 127.443 361.612 119.898 361.165 116.125L363.467 149.889H294.98C296.067 124.758 298.279 72.9221 298.433 66.6297C300.735 65.2868 310.327 62.4092 316.658 62.4092L328.552 73.3441L331.238 67.9726L333.923 73.3441L340.446 63.7521Z" fill="#B4DAE7"/>
<circle cx="0.767366" cy="0.767366" r="0.767366" transform="matrix(-1 0 0 1 333.732 73.3438)" fill="#87A2AC"/>
<circle cx="0.767366" cy="0.767366" r="0.767366" transform="matrix(-1 0 0 1 333.732 84.8511)" fill="#87A2AC"/>
<circle cx="0.767366" cy="0.767366" r="0.767366" transform="matrix(-1 0 0 1 333.732 125.138)" fill="#87A2AC"/>
<circle cx="0.767366" cy="0.767366" r="0.767366" transform="matrix(-1 0 0 1 333.732 137.801)" fill="#87A2AC"/>
<path d="M331.238 67.7788V148.736" stroke="#87A2AC"/>
<path d="M293.445 156.034H324.331L326.249 100.784C321.773 89.4649 312.514 66.022 311.286 62.799C308.37 62.6456 301.31 65.2228 298.241 66.6297L293.445 156.034Z" fill="#FFB81C"/>
<path d="M337.952 114.98V156.034H364.81C364.349 155.42 363.211 128.409 362.699 114.98H337.952Z" fill="#FFB81C"/>
<path d="M322.988 122.264L341.213 63.9443H410.084L393.011 122.264H322.988Z" fill="white"/>
<path d="M333.709 88.1167L319.512 94.4475L325.076 106.342C329.68 104.167 339.157 99.6272 340.231 98.8598C341.574 97.9006 344.068 97.3251 343.109 93.1046C342.342 89.7282 335.755 91.0583 332.558 92.1454L333.709 88.1167Z" fill="#7C7EA8"/>
<path d="M397.039 91.2215C395.658 93.3701 398.894 97.2326 400.684 98.8952C402.372 97.0536 403.818 93.0121 404.329 91.2215C402.475 90.3263 398.42 89.0729 397.039 91.2215Z" fill="#7C7EA8"/>
<path d="M292.485 104.613C291.526 102.31 295.171 94.0613 296.898 91.1836C297.281 86.1318 298.087 74.1481 298.241 66.6279C278.865 74.8771 272.534 97.7062 274.26 113.054C277.176 125.024 286.346 125.715 290.567 124.564L325.674 106.147L320.686 94.2531C312.309 97.2586 294.941 103.538 292.485 104.613Z" fill="#B4DAE7"/>
<path d="M340.446 63.7521H336.417L331.621 67.3971L321.07 59.1479L316.657 62.4073L328.552 73.3423L331.237 67.9707L333.923 73.3423L340.446 63.7521Z" fill="#87A2AC"/>
<rect x="365.518" y="197.246" width="8.19798" height="29.28" fill="#FBFCFD"/>
<rect x="331.858" y="197.246" width="5.04835" height="29.28" fill="#FBFCFD"/>
<rect x="403.62" y="197.246" width="3.06917" height="29.28" fill="#FBFCFD"/>
<path d="M323.375 191.77C323.375 197.84 328.313 202.778 334.382 202.778C340.452 202.778 345.389 197.84 345.389 191.77C345.389 185.701 340.452 180.763 334.382 180.763C328.313 180.763 323.375 185.701 323.375 191.77Z" fill="white"/>
<path fill-rule="evenodd" clip-rule="evenodd" d="M329.37 201.569C330.497 201.959 331.706 202.171 332.964 202.171C339.034 202.171 343.972 197.234 343.972 191.164C343.972 186.899 341.533 183.192 337.977 181.366C342.287 182.859 345.389 186.959 345.389 191.77C345.389 197.84 340.452 202.778 334.382 202.778C332.578 202.778 330.874 202.341 329.37 201.569Z" fill="#F6F8F9"/>
<path d="M325.757 191.77H334.611L340 195.506" stroke="#6B3077" stroke-miterlimit="10" stroke-linecap="round" stroke-linejoin="round"/>
<path d="M334.611 193.075C335.332 193.075 335.917 192.49 335.917 191.769C335.917 191.048 335.332 190.464 334.611 190.464C333.89 190.464 333.306 191.048 333.306 191.769C333.306 192.49 333.89 193.075 334.611 193.075Z" fill="#6B3077" stroke="#6B3077" stroke-width="0.5" stroke-miterlimit="10" stroke-linecap="round" stroke-linejoin="round"/>
<path d="M350.562 181.901C350.562 192.409 359.109 200.957 369.617 200.957C380.125 200.957 388.672 192.409 388.672 181.901C388.672 171.394 380.125 162.846 369.617 162.846C359.109 162.846 350.562 171.394 350.562 181.901Z" fill="white"/>
<path fill-rule="evenodd" clip-rule="evenodd" d="M357.613 196.69C360.405 198.296 363.639 199.214 367.083 199.214C377.591 199.214 386.139 190.666 386.139 180.159C386.139 174.197 383.387 168.866 379.087 165.37C384.811 168.661 388.673 174.838 388.673 181.901C388.673 192.409 380.125 200.957 369.617 200.957C365.071 200.957 360.892 199.357 357.613 196.69Z" fill="#F6F8F9"/>
<path d="M384.753 181.9H370.014L376.109 192.888" stroke="#6B3077" stroke-miterlimit="10" stroke-linecap="round" stroke-linejoin="round"/>
<path d="M370.014 184.16C371.262 184.16 372.274 183.148 372.274 181.9C372.274 180.652 371.262 179.64 370.014 179.64C368.765 179.64 367.753 180.652 367.753 181.9C367.753 183.148 368.765 184.16 370.014 184.16Z" fill="#6B3077" stroke="#6B3077" stroke-width="0.5" stroke-miterlimit="10" stroke-linecap="round" stroke-linejoin="round"/>
<path d="M393.845 191.468C393.845 197.704 398.918 202.777 405.154 202.777C411.39 202.777 416.463 197.704 416.463 191.468C416.463 185.232 411.39 180.159 405.154 180.159C398.918 180.159 393.845 185.232 393.845 191.468Z" fill="white"/>
<path fill-rule="evenodd" clip-rule="evenodd" d="M397.024 199.322C398.955 200.856 401.396 201.773 404.048 201.773C410.284 201.773 415.357 196.7 415.357 190.464C415.357 187.416 414.145 184.646 412.178 182.61C414.787 184.683 416.463 187.884 416.463 191.468C416.463 197.704 411.39 202.777 405.154 202.777C401.966 202.777 399.082 201.452 397.024 199.322Z" fill="#F6F8F9"/>
<path d="M396.292 191.467H405.389V197.989" stroke="#6B3077" stroke-miterlimit="10" stroke-linecap="round" stroke-linejoin="round"/>
<path d="M405.389 192.809C406.13 192.809 406.731 192.208 406.731 191.467C406.731 190.727 406.13 190.126 405.389 190.126C404.648 190.126 404.048 190.727 404.048 191.467C404.048 192.208 404.648 192.809 405.389 192.809Z" fill="#6B3077" stroke="#6B3077" stroke-width="0.5" stroke-miterlimit="10" stroke-linecap="round" stroke-linejoin="round"/>
<path d="M688.905 33.9668V100.147H515.693C508.173 100.147 502.083 106.237 502.083 113.757V230.467C502.083 264.297 474.653 291.727 440.813 291.727H272.473C277.843 288.177 282.303 283.367 285.413 277.707C288.533 272.057 290.303 265.557 290.303 258.637C290.303 246.957 285.243 236.467 277.203 229.217C275.723 227.887 274.143 226.657 272.473 225.557H422.293C429.813 225.557 435.913 219.457 435.913 211.937V95.2368C435.913 61.3968 463.333 33.9668 497.173 33.9668H688.905Z" fill="#309181"/>
<path d="M515.603 33.9668V100.147" stroke="#40C1AC" stroke-width="3" stroke-miterlimit="10" stroke-linejoin="round"/>
<path d="M435.863 113.747H502.033" stroke="#40C1AC" stroke-width="3" stroke-miterlimit="10" stroke-linejoin="round"/>
<path d="M422.393 291.657V225.487" stroke="#40C1AC" stroke-width="3" stroke-miterlimit="10" stroke-linejoin="round"/>
<path d="M502.123 211.887H435.953" stroke="#40C1AC" stroke-width="3" stroke-miterlimit="10" stroke-linejoin="round"/>
<path d="M613.733 33.9668V100.147" stroke="#40C1AC" stroke-width="3" stroke-miterlimit="10" stroke-linejoin="round"/>
<path d="M323.933 225.557V291.727" stroke="#40C1AC" stroke-width="3" stroke-miterlimit="10" stroke-linejoin="round"/>
<path opacity="0.5" d="M688.937 85.0215H515.704C500.514 85.0215 488.204 97.3315 488.204 112.521V210.431V215.341C488.204 249.181 460.774 276.611 426.934 276.611H422.024H286.104C282.974 282.681 278.344 287.841 272.674 291.581H436.104H441.014C474.854 291.581 502.284 264.151 502.284 230.311V225.401V113.601C502.284 106.081 508.384 99.9915 515.894 99.9915H688.937V85.0215Z" fill="#55897A"/>
<path d="M250.683 285.057C265.275 285.057 277.103 273.228 277.103 258.637C277.103 244.045 265.275 232.217 250.683 232.217C236.092 232.217 224.263 244.045 224.263 258.637C224.263 273.228 236.092 285.057 250.683 285.057Z" fill="white"/>
<path d="M250.683 298.267C228.803 298.267 211.063 280.527 211.063 258.647C211.063 236.767 228.803 219.027 250.683 219.027C272.563 219.027 290.303 236.767 290.303 258.647C290.303 280.527 272.563 298.267 250.683 298.267Z" fill="#6B3077"/>
<path d="M250.683 232.227C244.233 232.227 238.313 234.547 233.723 238.407C233.123 238.887 232.553 239.417 232.003 239.967C227.223 244.747 224.263 251.347 224.263 258.637C224.263 265.937 227.223 272.537 232.003 277.317C234.923 280.237 238.523 282.477 242.543 283.767C245.103 284.607 247.843 285.057 250.683 285.057C257.973 285.057 264.583 282.097 269.363 277.317C274.133 272.537 277.093 265.937 277.093 258.637C277.093 244.057 265.273 232.227 250.683 232.227Z" fill="white"/>
<path d="M250.683 228.267C252.141 228.267 253.323 227.085 253.323 225.627C253.323 224.169 252.141 222.987 250.683 222.987C249.225 222.987 248.043 224.169 248.043 225.627C248.043 227.085 249.225 228.267 250.683 228.267Z" fill="white"/>
<path d="M253.323 225.627C253.323 227.087 252.143 228.267 250.683 228.267C250.503 228.267 250.333 228.247 250.173 228.217C248.953 227.977 248.043 226.907 248.043 225.627C248.043 224.677 248.543 223.837 249.303 223.377C249.703 223.127 250.173 222.987 250.683 222.987C252.143 222.987 253.323 224.167 253.323 225.627Z" fill="white"/>
<path d="M276.663 235.297C276.663 236.757 275.483 237.937 274.023 237.937C273.843 237.937 273.673 237.917 273.513 237.887C272.293 237.647 271.383 236.577 271.383 235.297C271.383 234.347 271.883 233.507 272.643 233.047C273.043 232.797 273.513 232.657 274.023 232.657C275.483 232.657 276.663 233.837 276.663 235.297Z" fill="white"/>
<path d="M286.343 258.637C286.343 260.097 285.163 261.277 283.703 261.277C283.523 261.277 283.353 261.257 283.193 261.227C281.973 260.987 281.063 259.917 281.063 258.637C281.063 257.687 281.563 256.847 282.323 256.387C282.723 256.137 283.193 255.997 283.703 255.997C285.163 255.997 286.343 257.177 286.343 258.637Z" fill="white"/>
<path d="M276.663 281.987C276.663 283.447 275.483 284.627 274.023 284.627C273.843 284.627 273.673 284.607 273.513 284.577C272.293 284.337 271.383 283.267 271.383 281.987C271.383 281.037 271.883 280.197 272.643 279.737C273.043 279.487 273.513 279.347 274.023 279.347C275.483 279.347 276.663 280.527 276.663 281.987Z" fill="white"/>
<path d="M253.323 291.657C253.323 293.117 252.143 294.297 250.683 294.297C250.503 294.297 250.333 294.277 250.173 294.247C248.953 294.007 248.043 292.937 248.043 291.657C248.043 290.707 248.543 289.867 249.303 289.407C249.703 289.157 250.173 289.017 250.683 289.017C252.143 289.017 253.323 290.197 253.323 291.657Z" fill="white"/>
<path d="M229.973 281.987C229.973 283.447 228.793 284.627 227.333 284.627C227.153 284.627 226.983 284.607 226.823 284.577C225.603 284.337 224.693 283.267 224.693 281.987C224.693 281.037 225.193 280.197 225.953 279.737C226.353 279.487 226.823 279.347 227.333 279.347C228.793 279.347 229.973 280.527 229.973 281.987Z" fill="white"/>
<path d="M220.303 258.637C220.303 260.097 219.123 261.277 217.663 261.277C217.483 261.277 217.313 261.257 217.153 261.227C215.933 260.987 215.023 259.917 215.023 258.637C215.023 257.687 215.523 256.847 216.283 256.387C216.683 256.137 217.153 255.997 217.663 255.997C219.123 255.997 220.303 257.177 220.303 258.637Z" fill="white"/>
<path d="M229.973 235.297C229.973 236.757 228.793 237.937 227.333 237.937C227.153 237.937 226.983 237.917 226.823 237.887C225.603 237.647 224.693 236.577 224.693 235.297C224.693 234.347 225.193 233.507 225.953 233.047C226.353 232.797 226.823 232.657 227.333 232.657C228.793 232.657 229.973 233.837 229.973 235.297Z" fill="white"/>
<path d="M250.683 277.337C261.011 277.337 269.383 268.965 269.383 258.637C269.383 248.309 261.011 239.937 250.683 239.937C240.355 239.937 231.983 248.309 231.983 258.637C231.983 268.965 240.355 277.337 250.683 277.337Z" stroke="#D4DDE3" stroke-width="0.5" stroke-miterlimit="10" stroke-linecap="round" stroke-linejoin="round" stroke-dasharray="6 6"/>
<path d="M250.683 271.897C258.006 271.897 263.943 265.96 263.943 258.637C263.943 251.314 258.006 245.377 250.683 245.377C243.36 245.377 237.423 251.314 237.423 258.637C237.423 265.96 243.36 271.897 250.683 271.897Z" stroke="#D4DDE3" stroke-width="0.5" stroke-miterlimit="10" stroke-linecap="round" stroke-linejoin="round" stroke-dasharray="6 6"/>
<path d="M262.903 249.067C262.463 250.467 261.633 251.737 260.553 252.727C259.483 253.717 258.253 254.477 256.983 255.167L253.243 257.227L252.993 257.367C252.673 256.777 252.113 256.307 251.413 256.107L251.713 255.077L253.983 247.247L255.493 242.067C255.773 241.097 256.413 240.387 257.193 239.977C258.593 239.247 260.453 239.507 261.533 240.967C263.193 243.207 263.803 246.187 262.903 249.067Z" fill="#6B3077"/>
<path d="M268.363 269.497C266.113 271.157 263.143 271.757 260.263 270.867C258.853 270.427 257.593 269.597 256.593 268.517C255.993 267.857 255.463 267.137 254.993 266.377C254.693 265.907 254.413 265.427 254.153 264.947L251.953 260.957C252.543 260.627 253.013 260.077 253.213 259.377L254.253 259.677L262.073 261.947L265.143 262.837L267.263 263.447C269.983 264.237 270.633 267.817 268.363 269.497Z" fill="#6B3077"/>
<path d="M249.943 261.177L249.643 262.207L247.373 270.037L245.873 275.217C245.083 277.937 241.513 278.597 239.823 276.317C239.563 275.967 239.333 275.607 239.143 275.217C238.023 273.157 237.703 270.647 238.463 268.217C238.893 266.817 239.723 265.547 240.803 264.557C241.873 263.567 243.113 262.807 244.373 262.117L248.373 259.917C248.653 260.437 249.113 260.857 249.683 261.087C249.773 261.127 249.853 261.157 249.943 261.177Z" fill="#6B3077"/>
<path d="M249.403 256.327C248.813 256.657 248.353 257.207 248.143 257.907L247.113 257.607L239.943 255.527L239.283 255.337L234.103 253.837C231.383 253.047 230.723 249.467 233.003 247.787C235.243 246.127 238.223 245.517 241.103 246.417C241.493 246.537 241.863 246.687 242.223 246.867C243.183 247.337 244.053 247.987 244.773 248.767C245.753 249.837 246.513 251.067 247.213 252.337L249.403 256.327Z" fill="#6B3077"/>
<path d="M253.213 259.377C253.623 257.977 252.813 256.507 251.413 256.107C250.013 255.697 248.543 256.507 248.143 257.907C247.733 259.307 248.543 260.777 249.943 261.177C251.343 261.587 252.813 260.777 253.213 259.377Z" fill="#3C1053"/>
<path d="M567.63 144.138C563.486 151.975 531.874 235.802 524.277 275.868H542.976C546.429 265.027 587.906 166.283 587.906 144.138H567.63Z" fill="#3B667B"/>
<path d="M573.767 144.138C577.911 151.975 607.726 235.223 613.049 275.868H595.352C591.899 265.027 553.491 166.283 553.491 144.138H573.767Z" fill="#3B667B"/>
<path d="M583.3 141.156H549.142C547.083 144.019 542.965 155.404 542.965 166.097C542.965 179.464 581.635 257.823 585.15 263.004C588.11 262.449 605.873 256.713 611.608 253.917C612.534 250.01 585.705 153.444 583.3 141.156Z" fill="#7BA4AE"/>
<path d="M598.102 166.097C598.102 155.772 594.688 144.175 592.881 141.159H562.406C551.058 173.687 528.422 245.296 524.277 255.048C526.054 255.048 543.396 261.503 553.326 261.503C567.696 236.532 598.102 176.422 598.102 166.097Z" fill="#C8E9F1"/>
<path d="M612.109 259.695L591.238 266.558C587.995 286.781 574.32 287.324 576.676 294.473L623.444 279.061C616.344 267.135 612.831 261.219 612.109 259.695Z" fill="#A4DBE8"/>
<rect x="575.757" y="294.774" width="51.3577" height="2.35437" rx="1.17718" transform="rotate(-18.2396 575.757 294.774)" fill="#2F1148"/>
<path d="M545.424 273.052L524.927 265.142C509.608 278.735 498.683 270.493 495.977 277.518L541.928 295.217C543.989 281.491 545.018 274.688 545.424 273.052Z" fill="#A4DBE8"/>
<rect x="495.074" y="277.171" width="51.3577" height="2.35437" rx="1.17718" transform="rotate(21.0656 495.074 277.171)" fill="#2F1148"/>
<path d="M615.791 68.1547C615.791 76.7017 608.879 83.6132 600.332 83.6132C600.262 83.6132 600.192 83.6132 600.104 83.5956C599.945 83.9825 599.752 84.3343 599.523 84.6684C599.453 84.7915 599.383 84.8794 599.295 84.9849C599.136 85.2311 598.943 85.4597 598.732 85.6708C598.662 85.7587 598.574 85.8466 598.486 85.9346C598.187 86.2159 597.888 86.4798 597.571 86.6908C597.554 86.7084 597.554 86.7084 597.536 86.726C597.202 86.937 596.833 87.1305 596.463 87.3064C596.34 87.3591 596.235 87.3942 596.111 87.4294C595.83 87.5525 595.531 87.6405 595.232 87.7108C595.109 87.746 594.986 87.7812 594.863 87.7988C594.476 87.8691 594.071 87.9043 593.667 87.9218C593.403 87.6053 593.122 87.3063 592.84 87.0074C591.856 86.0049 590.8 85.0904 589.64 84.299C588.584 83.5956 587.793 82.5932 587.283 81.4677C586.386 81.3973 585.524 81.1511 584.751 80.7642C582.869 79.8673 581.444 78.1438 580.952 76.051C580.829 75.5234 580.741 74.9958 580.741 74.4155C580.741 74.0813 580.794 73.7472 580.846 73.413C580.671 73.2548 580.495 73.0965 580.336 72.9206C577.716 70.4058 576.063 66.8709 576.063 62.9315C576.063 60.3815 576.749 58.0073 577.945 55.9497L577.646 55.2814L577.294 54.4901L576.925 53.6635C577.382 53.1887 577.646 52.5556 577.646 51.8521C577.646 50.3924 576.467 49.2142 575.008 49.2142H573.108C572.352 49.179 571.631 49.1438 570.945 49.0734C570.822 49.0559 570.717 49.0559 570.611 49.0383C569.837 48.9504 569.099 48.8624 568.413 48.7393C567.27 48.5458 566.144 48.2645 565.036 47.8952C564.579 47.7545 564.175 47.5962 563.77 47.4379C563.7 47.4027 563.647 47.3852 563.577 47.35C563.278 47.2093 562.979 47.0686 562.68 46.9279C562.592 46.8927 562.504 46.84 562.416 46.7872C562.152 46.6465 561.923 46.5234 561.677 46.3827C561.607 46.33 561.519 46.2772 561.449 46.2244C561.15 46.0486 560.868 45.8551 560.622 45.6617L561.519 46.0662C562.979 46.7169 564.561 47.0686 566.162 47.0686H572.827C576.098 47.1917 578.806 49.5131 579.51 52.6083C579.563 52.8194 579.563 53.0304 579.545 53.2414C579.475 54.6835 580.811 55.7915 582.201 55.4222L591.328 53.1007L591.627 53.0304C591.627 53.0304 591.627 52.2566 591.75 51.1662C591.856 50.1814 592.067 48.9152 592.454 47.7721H592.612C593.614 47.7721 594.546 47.9655 595.426 48.3172C596.428 47.1389 597.765 46.242 599.295 45.8375C599.928 45.6441 600.614 45.5562 601.299 45.5562C605.573 45.5562 609.037 49.0031 609.037 53.2766C609.037 53.9449 608.914 54.578 608.756 55.2111C612.994 57.9546 615.791 62.7205 615.791 68.1547Z" fill="#391051"/>
<path d="M568.683 84.7265L568.694 70.2471C568.694 68.1544 567.147 66.4309 565.107 66.1671C564.984 66.1495 564.86 66.1319 564.755 66.1319H557.685C555.61 66.1319 553.922 64.4436 553.922 62.3684V53.839H550.229L553.922 50.3393V42.2144C553.922 39.9985 555.065 38.064 556.806 36.9561C556.771 37.1671 554.871 48.3872 572.862 49.2138H573.003C573.108 49.2138 573.232 49.2313 573.355 49.2313C574.375 49.2665 575.272 49.8469 575.676 50.779L576.925 53.6456L577.945 55.9494C576.749 58.007 576.063 60.3812 576.063 62.9312C576.063 67.1168 577.927 70.8451 580.846 73.4127C580.794 73.7468 580.741 74.081 580.741 74.4151C580.741 74.8372 580.794 75.2241 580.864 75.611C580.882 75.7517 584.273 84.5858 584.308 84.7265H568.683Z" fill="#7BA4AE"/>
<path d="M595.795 55.1943C595.795 58.694 601.405 58.694 601.405 55.1943" stroke="#5D5F80" stroke-width="0.5" stroke-miterlimit="10" stroke-linecap="round" stroke-linejoin="round"/>
<path d="M591.873 79.3034C595.373 79.3034 595.373 73.6934 591.873 73.6934" stroke="#5D5F80" stroke-width="0.5" stroke-miterlimit="10" stroke-linecap="round" stroke-linejoin="round"/>
<path d="M584.856 60.8223C581.357 60.8223 581.357 66.4323 584.856 66.4323" stroke="#5D5F80" stroke-width="0.5" stroke-miterlimit="10" stroke-linecap="round" stroke-linejoin="round"/>
<path d="M603.727 75.0495C611.641 75.0495 611.641 62.3696 603.727 62.3696" stroke="#5D5F80" stroke-width="0.5" stroke-miterlimit="10" stroke-linecap="round" stroke-linejoin="round"/>
<path d="M594.019 41.6516C594.054 43.6917 593.702 45.6965 592.964 47.6135C592.084 49.9525 592.067 52.9949 592.067 53.0301C592.067 53.2235 591.926 53.3994 591.733 53.4522L591.434 53.5225L584.434 55.3163L582.324 55.8615C582.095 55.9143 581.884 55.9318 581.673 55.9318C581.093 55.9318 580.513 55.7384 580.038 55.3515C579.405 54.8239 579.071 54.0325 579.106 53.2059C579.123 53.0125 579.106 52.8542 579.07 52.6959C578.402 49.759 575.835 47.6311 572.81 47.5079H566.162C564.491 47.5079 562.856 47.1562 561.326 46.4527L549.754 41.212C549.578 41.124 549.473 40.9306 549.508 40.7372C549.648 39.893 549.842 39.1544 550.07 38.4509C553.166 29.0597 560.183 24.9445 572.124 25.6128C572.616 25.6304 573.109 25.6656 573.601 25.7183C577.189 26.0173 580.477 26.7736 583.379 27.9518C590.519 30.8536 593.896 35.215 594.019 41.6516Z" fill="#FFB81C"/>
<path d="M560.658 51.7443C562.746 51.7443 564.439 50.0514 564.439 47.9632C564.439 45.875 562.746 44.1821 560.658 44.1821C558.569 44.1821 556.876 45.875 556.876 47.9632C556.876 50.0514 558.569 51.7443 560.658 51.7443Z" fill="#373A36"/>
<path d="M552.304 44.1821C550.211 44.1821 548.522 45.8704 548.522 47.9632C548.522 50.056 550.211 51.7443 552.304 51.7443C554.396 51.7443 556.085 50.056 556.085 47.9632C556.085 45.8704 554.379 44.1821 552.304 44.1821Z" fill="#373A36"/>
<path d="M555.083 47.9668H557.861" stroke="#373A36" stroke-width="0.5" stroke-miterlimit="10" stroke-linecap="round" stroke-linejoin="round"/>
<path d="M572.898 47.5254H561.555C561.309 47.5254 561.115 47.7188 561.115 47.9651C561.115 48.2113 561.309 48.4047 561.555 48.4047H575.888C574.991 47.8771 573.971 47.5781 572.898 47.5254Z" fill="#373A36"/>
<path d="M560.358 31.2407C560.358 31.2407 556.771 32.8059 555.083 36.4111" stroke="white" stroke-width="0.5" stroke-miterlimit="10" stroke-linecap="round" stroke-linejoin="round"/>
<path opacity="0.2" d="M564.755 66.1315H562.997C562.944 66.1139 562.891 66.0787 562.838 66.0612C563.454 66.026 564.105 66.0612 564.755 66.1315Z" fill="#7BA4AE"/>
<path d="M577.646 51.8509C577.646 52.5543 577.382 53.1874 576.925 53.6447L575.676 50.7781C575.272 49.846 574.375 49.2656 573.355 49.2304C573.232 49.2304 573.108 49.2129 573.003 49.2129H575.025C576.467 49.2129 577.646 50.3912 577.646 51.8509Z" fill="#7BA4AE"/>
<path d="M575.008 54.4888C576.468 54.4888 577.646 53.3105 577.646 51.8509C577.646 50.3912 576.468 49.2129 575.008 49.2129H572.845" stroke="#391051" stroke-width="0.5" stroke-miterlimit="10" stroke-linecap="round" stroke-linejoin="round"/>
<path d="M570.418 46.5391L568.061 60.1158L579.738 54.2419" stroke="#391051" stroke-width="0.5" stroke-miterlimit="10" stroke-linecap="round" stroke-linejoin="round"/>
<path d="M568.061 60.1138L564.825 66.2339C564.35 67.1308 563.19 67.4121 562.363 66.8142L561.537 66.2339" stroke="#391051" stroke-width="0.5" stroke-miterlimit="10" stroke-linecap="round" stroke-linejoin="round"/>
<path d="M568.915 60.9342L566.684 59.813L566.068 61.0386L568.299 62.1599L568.915 60.9342Z" fill="#391051" stroke="#391051" stroke-width="0.5" stroke-miterlimit="10" stroke-linecap="round" stroke-linejoin="round"/>
<path opacity="0.4" d="M594.019 41.8011C594.054 43.8198 593.706 45.8037 592.975 47.7005C592.105 50.015 592.088 53.0256 592.088 53.0604C592.088 53.2519 591.948 53.4259 591.757 53.4781L591.461 53.5477L584.535 55.3228L582.447 55.8622C582.22 55.9144 582.012 55.9318 581.803 55.9318C581.228 55.9318 580.654 55.7404 580.184 55.3576C579.558 54.8355 579.227 54.0524 579.262 53.2345C579.279 53.043 579.262 52.8864 579.227 52.7298C578.566 49.8236 576.025 47.7179 573.032 47.5961H570.352C570.787 47.3351 572.214 47.0218 572.475 46.9348C572.893 46.813 573.293 46.6912 573.711 46.639C574.616 46.552 575.521 46.8652 576.373 47.1436C577.992 47.6483 579.627 48.0834 581.316 48.153C581.333 48.153 581.35 48.153 581.368 48.153C584.117 48.2226 586.345 45.8211 586.188 43.0889C586.188 42.9497 586.171 42.8104 586.171 42.6712C586.066 41.1746 585.892 39.6606 585.353 38.2684C584.692 36.563 583.526 35.1012 582.342 33.7264C580.672 31.7774 578.879 29.8979 576.756 28.4883C575.329 27.5486 573.78 26.8351 572.353 25.9302C572.841 25.9476 573.328 25.9824 573.815 26.0346C577.365 26.3304 580.619 27.0788 583.491 28.2447C590.556 31.1161 593.897 35.4319 594.019 41.8011Z" fill="#E9A12C"/>
<path d="M501.404 83.1687L494.513 89.831L492.717 91.5646L486.835 83.7198C486.253 82.9458 485.591 82.24 484.866 81.6084L478.08 81.5217C477.727 81.5156 477.479 81.336 477.337 81.1007C477.071 80.6363 477.219 79.9367 477.876 79.7757C477.876 79.7757 479.176 79.4475 480.681 79.0698L471.523 74.7914C470.495 74.3023 470.879 72.7543 472.018 72.8163L483.987 73.4478C484.984 73.5035 485.968 73.6645 486.928 73.9246C488.451 74.3456 489.881 75.0329 491.175 75.9431L501.404 83.1687Z" fill="#3B667B"/>
<path d="M561.946 97.133C557.5 100.904 546.881 109.906 541.538 114.445C541.049 114.86 540.603 115.237 540.213 115.566C539.773 115.925 538.925 116.674 538.486 117.027C534.449 120.426 528.833 121.85 523.675 120.779C520.251 120.098 517.1 118.358 514.71 115.912C513.936 115.058 512.604 113.578 511.818 112.711C507.744 108.21 496.909 96.2104 492.717 91.5604L494.512 89.8268L501.404 83.1645C506.314 87.2015 518.301 97.0648 523.037 100.959C523.762 101.566 524.895 102.483 525.768 103.207C525.917 103.04 526.071 102.879 526.071 102.879C526.158 102.792 532.746 95.2569 533.117 94.842L546.56 80.2173L561.946 97.133Z" fill="#40C1AC"/>
<path d="M607.789 80.7236L606.861 85.9184L600.184 141.693H548.331L541.272 106.4C540.226 101.701 540.288 96.8157 541.452 92.1472L544.628 83.0021C545.235 81.2437 546.597 79.8505 548.331 79.1942L553.984 77.0581C559.433 75.0024 565.116 73.7517 570.844 73.3307C578.54 72.7487 586.335 73.6527 593.79 76.0364L607.789 80.7236Z" fill="#40C1AC"/>
<path d="M542.82 113.353L541.538 114.443C541.098 114.815 540.702 115.155 540.349 115.452C540.306 115.49 540.263 115.527 540.213 115.564C539.773 115.923 538.925 116.672 538.486 117.025C534.449 120.424 528.833 121.848 523.675 120.777C520.251 120.096 517.1 118.356 514.71 115.911C513.936 115.056 512.604 113.576 511.818 112.71C507.744 108.208 496.909 96.2087 492.717 91.5588L494.512 89.8251C507.001 104.704 523.087 122.752 536.238 112.833C537.563 111.836 538.232 110.196 537.984 108.561C536.541 99.0755 542.479 88.9769 542.64 88.6982L541.451 92.1346C540.287 96.8093 540.232 101.688 541.272 106.388L542.82 113.353Z" fill="#4DBCA7"/>
<path d="M619.294 95.5903C619.294 96.3024 619.188 97.0454 619.083 97.745L619.058 97.8627L618.253 101.757C617.015 107.831 615.579 115.212 614.452 121.261C613.282 127.731 612.099 134.344 611.145 140.839L608.985 140.517L596.645 138.672C597.629 132.177 598.44 125.515 599.208 118.982C599.629 115.137 600.106 110.952 600.483 107.132C600.657 105.404 601.003 101.912 601.288 99.0019C598.62 98.9152 595.957 98.9462 593.233 99.2496L596.025 81.8386L596.799 77.04C599.92 78.4703 603.071 79.4548 606.322 80.3464C607.598 80.6869 608.916 80.947 610.13 81.4981C615.727 83.8509 619.498 89.572 619.294 95.5903Z" fill="#40C1AC"/>
<path d="M584.125 70.2852H565.543V75.9815H584.125V70.2852Z" fill="#40C1AC"/>
<path d="M597.858 130.054L601.294 99.0088C597.231 107.258 596.167 118.823 594.519 132.722C594.142 132.946 596.002 137.293 594.519 137.722C586.266 140.11 561.245 141.051 561.48 141.722C561.767 142.54 584.98 141.222 598.98 150.222L597.858 130.054Z" fill="#4DBCA7"/>
<path d="M627.758 135.892L625.968 159.006C625.82 160.944 624.129 162.387 622.191 162.238L612.025 161.452L583.184 159.217C581.246 159.068 579.797 157.378 579.952 155.44L581.741 132.326C581.89 130.388 583.58 128.945 585.518 129.094L605.09 130.611L624.526 132.116C626.464 132.264 627.906 133.961 627.758 135.892Z" fill="#DBE2E9"/>
<path d="M627.758 135.92L625.97 159.011C625.822 160.947 624.133 162.388 622.197 162.24L612.04 161.454C612.863 160.687 613.729 159.963 614.545 159.202C616.29 157.569 617.91 155.615 618.294 153.258C618.448 152.293 618.393 151.31 618.43 150.326C618.485 148.854 618.77 147.382 619.265 145.99C619.89 144.233 620.861 142.341 620.174 140.602C619.741 139.514 618.733 138.765 617.737 138.14C615.943 137.033 614.019 136.143 612.021 135.487C610.704 135.06 609.337 134.726 608.131 134.039C606.788 133.272 605.737 132.054 605.106 130.644L624.523 132.147C626.465 132.295 627.906 133.99 627.758 135.92Z" fill="#D8DEE6"/>
<path d="M606.081 162.733L602.564 162.46L596.242 161.977C595.32 161.903 594.824 160.863 595.344 160.101L598.347 155.73C598.768 155.117 599.313 154.677 599.92 154.399C601.716 153.588 604.006 154.244 604.966 156.238L607.257 161.024C607.647 161.853 606.997 162.807 606.081 162.733Z" fill="#3B667B"/>
<path d="M606.632 145.669C606.632 147.204 605.387 148.449 603.851 148.449C603.22 148.449 602.644 148.238 602.18 147.886C601.511 147.384 601.078 146.573 601.078 145.669C601.078 144.604 601.678 143.675 602.57 143.211C602.954 143.013 603.393 142.895 603.851 142.895C605.387 142.895 606.632 144.14 606.632 145.669Z" fill="white"/>
<path d="M120.532 395.267H129.268V364.859H129.38L139.404 395.267H146.068L156.484 364.859H156.596V395.267H165.332V355.619H152.172L142.988 381.491H142.876L133.748 355.619H120.532V395.267ZM189.431 395.267H197.159V381.435C197.159 372.363 194.527 367.379 184.727 367.379C180.303 367.379 175.823 368.835 172.743 371.747L177.223 376.339C179.015 374.323 181.311 373.091 184.055 373.091C186.967 373.091 189.431 374.995 189.431 377.963C182.431 377.963 171.007 378.131 171.007 387.539C171.007 393.027 175.599 395.939 180.695 395.939C184.111 395.939 187.471 394.763 189.319 391.851H189.431V395.267ZM189.431 383.339V385.131C189.431 388.491 186.351 390.227 183.047 390.227C181.199 390.227 179.071 389.275 179.071 387.259C179.071 383.563 184.783 383.339 187.359 383.339H189.431ZM202.541 395.267H210.941V368.051H202.541V395.267ZM201.869 359.483C201.869 362.171 204.053 364.355 206.741 364.355C209.429 364.355 211.613 362.171 211.613 359.483C211.613 356.795 209.429 354.611 206.741 354.611C204.053 354.611 201.869 356.795 201.869 359.483ZM216.976 395.267H225.376V381.715C225.376 378.187 226.048 374.771 230.416 374.771C234.728 374.771 234.784 378.803 234.784 381.939V395.267H243.184V380.259C243.184 372.979 241.616 367.379 233.104 367.379C229.016 367.379 226.272 369.619 225.152 371.747H225.04V368.051H216.976V395.267ZM267.668 368.051H260.276V359.987H251.876V368.051H246.5V374.771H251.876V387.707C251.876 393.643 256.188 395.939 261.788 395.939C263.748 395.939 265.82 395.771 267.668 395.099V388.099C266.94 388.771 265.148 388.883 264.252 388.883C260.612 388.883 260.276 386.755 260.276 383.843V374.771H267.668V368.051ZM291.817 386.251C290.417 388.155 288.569 389.555 285.825 389.555C282.577 389.555 280.169 387.483 279.497 384.291H298.985V381.659C298.985 372.979 294.057 367.379 286.217 367.379C277.817 367.379 271.097 372.979 271.097 381.659C271.097 390.339 277.817 395.939 286.217 395.939C290.585 395.939 295.009 393.979 297.697 390.563L291.817 386.251ZM279.497 378.579C279.721 375.947 281.737 373.427 285.433 373.427C288.457 373.427 290.641 375.779 290.585 378.579H279.497ZM304.093 395.267H312.493V381.715C312.493 378.187 313.165 374.771 317.533 374.771C321.845 374.771 321.901 378.803 321.901 381.939V395.267H330.301V380.259C330.301 372.979 328.733 367.379 320.221 367.379C316.133 367.379 313.389 369.619 312.269 371.747H312.157V368.051H304.093V395.267ZM353.329 395.267H361.057V381.435C361.057 372.363 358.425 367.379 348.625 367.379C344.201 367.379 339.721 368.835 336.641 371.747L341.121 376.339C342.913 374.323 345.209 373.091 347.953 373.091C350.865 373.091 353.329 374.995 353.329 377.963C346.329 377.963 334.905 378.131 334.905 387.539C334.905 393.027 339.497 395.939 344.593 395.939C348.009 395.939 351.369 394.763 353.217 391.851H353.329V395.267ZM353.329 383.339V385.131C353.329 388.491 350.249 390.227 346.945 390.227C345.097 390.227 342.969 389.275 342.969 387.259C342.969 383.563 348.681 383.339 351.257 383.339H353.329ZM366.327 395.267H374.727V381.715C374.727 378.187 375.399 374.771 379.767 374.771C384.079 374.771 384.135 378.803 384.135 381.939V395.267H392.535V380.259C392.535 372.979 390.967 367.379 382.455 367.379C378.367 367.379 375.623 369.619 374.503 371.747H374.391V368.051H366.327V395.267ZM422.452 371.019C419.82 368.331 415.956 367.379 412.764 367.379C404.364 367.379 397.644 372.979 397.644 381.659C397.644 390.339 404.364 395.939 412.764 395.939C415.956 395.939 419.82 394.987 422.452 392.299L416.908 386.475C415.956 387.595 414.612 388.547 412.764 388.547C408.564 388.547 406.044 385.747 406.044 381.659C406.044 377.571 408.564 374.771 412.764 374.771C414.5 374.771 416.068 375.667 416.908 376.843L422.452 371.019ZM445.379 386.251C443.979 388.155 442.131 389.555 439.387 389.555C436.139 389.555 433.731 387.483 433.059 384.291H452.547V381.659C452.547 372.979 447.619 367.379 439.779 367.379C431.379 367.379 424.659 372.979 424.659 381.659C424.659 390.339 431.379 395.939 439.779 395.939C444.147 395.939 448.571 393.979 451.259 390.563L445.379 386.251ZM433.059 378.579C433.283 375.947 435.299 373.427 438.995 373.427C442.019 373.427 444.203 375.779 444.147 378.579H433.059ZM474.338 395.267H482.738V368.051H474.338V395.267ZM473.666 359.483C473.666 362.171 475.85 364.355 478.538 364.355C481.226 364.355 483.41 362.171 483.41 359.483C483.41 356.795 481.226 354.611 478.538 354.611C475.85 354.611 473.666 356.795 473.666 359.483ZM488.773 395.267H497.173V381.715C497.173 378.187 497.845 374.771 502.213 374.771C506.525 374.771 506.581 378.803 506.581 381.939V395.267H514.981V380.259C514.981 372.979 513.413 367.379 504.901 367.379C500.813 367.379 498.069 369.619 496.949 371.747H496.837V368.051H488.773V395.267ZM538.283 408.035H546.683V392.355H546.795C548.699 394.987 551.947 395.939 555.419 395.939C563.147 395.939 567.851 388.995 567.851 381.435C567.851 373.203 562.531 367.379 554.467 367.379C550.659 367.379 547.411 369.675 546.123 371.635H546.011V368.051H538.283V408.035ZM546.011 381.659C546.011 377.571 548.531 374.771 552.731 374.771C556.931 374.771 559.451 377.571 559.451 381.659C559.451 385.747 556.931 388.547 552.731 388.547C548.531 388.547 546.011 385.747 546.011 381.659ZM572.773 395.267H581.173V383.899C581.173 378.467 581.957 374.771 588.341 374.771C589.573 374.771 590.749 374.995 591.925 375.331V367.659C591.141 367.435 590.077 367.379 589.125 367.379C585.429 367.379 583.077 369.115 581.285 372.419H581.173V368.051H572.773V395.267ZM593.585 381.659C593.585 390.339 600.305 395.939 608.705 395.939C617.105 395.939 623.825 390.339 623.825 381.659C623.825 372.979 617.105 367.379 608.705 367.379C600.305 367.379 593.585 372.979 593.585 381.659ZM601.985 381.659C601.985 377.571 604.505 374.771 608.705 374.771C612.905 374.771 615.425 377.571 615.425 381.659C615.425 385.747 612.905 388.547 608.705 388.547C604.505 388.547 601.985 385.747 601.985 381.659ZM657.333 368.051H649.605V371.635H649.493C648.205 369.675 644.957 367.379 640.197 367.379C632.469 367.379 627.765 374.323 627.765 381.547C627.765 389.779 633.085 395.603 641.149 395.603C643.669 395.603 646.917 394.651 648.821 392.019H648.933V394.651C648.933 398.515 646.525 401.315 641.429 401.315C638.013 401.315 635.157 399.971 632.581 397.787L627.933 404.731C631.853 407.867 636.781 408.707 641.597 408.707C652.125 408.707 657.333 403.219 657.333 392.971V368.051ZM636.165 381.491C636.165 377.963 639.077 374.771 642.885 374.771C646.693 374.771 649.605 377.963 649.605 381.491C649.605 385.019 646.693 388.211 642.885 388.211C639.077 388.211 636.165 385.019 636.165 381.491ZM664.046 395.267H672.446V383.899C672.446 378.467 673.23 374.771 679.614 374.771C680.846 374.771 682.022 374.995 683.198 375.331V367.659C682.414 367.435 681.35 367.379 680.398 367.379C676.702 367.379 674.35 369.115 672.558 372.419H672.446V368.051H664.046V395.267ZM705.746 386.251C704.346 388.155 702.498 389.555 699.754 389.555C696.506 389.555 694.098 387.483 693.426 384.291H712.914V381.659C712.914 372.979 707.986 367.379 700.146 367.379C691.746 367.379 685.026 372.979 685.026 381.659C685.026 390.339 691.746 395.939 700.146 395.939C704.514 395.939 708.938 393.979 711.626 390.563L705.746 386.251ZM693.426 378.579C693.65 375.947 695.666 373.427 699.362 373.427C702.386 373.427 704.57 375.779 704.514 378.579H693.426ZM738.575 370.963C736.055 368.275 732.079 367.379 728.495 367.379C722.783 367.379 717.071 370.179 717.071 376.563C717.071 386.923 731.239 383.227 731.239 387.595C731.239 389.051 729.335 389.555 727.431 389.555C724.911 389.555 723.063 388.491 721.495 386.587L716.399 392.243C719.087 394.987 723.287 395.939 727.095 395.939C732.919 395.939 739.639 393.923 739.639 386.979C739.639 376.619 725.471 380.035 725.471 376.003C725.471 374.379 727.151 373.763 728.551 373.763C730.567 373.763 732.191 374.547 733.423 376.059L738.575 370.963ZM764.497 370.963C761.977 368.275 758.001 367.379 754.417 367.379C748.705 367.379 742.993 370.179 742.993 376.563C742.993 386.923 757.161 383.227 757.161 387.595C757.161 389.051 755.257 389.555 753.353 389.555C750.833 389.555 748.985 388.491 747.417 386.587L742.321 392.243C745.009 394.987 749.209 395.939 753.017 395.939C758.841 395.939 765.561 393.923 765.561 386.979C765.561 376.619 751.393 380.035 751.393 376.003C751.393 374.379 753.073 373.763 754.473 373.763C756.489 373.763 758.113 374.547 759.345 376.059L764.497 370.963ZM770.034 390.451C770.034 393.307 772.33 395.603 775.186 395.603C778.042 395.603 780.338 393.307 780.338 390.451C780.338 387.595 778.042 385.299 775.186 385.299C772.33 385.299 770.034 387.595 770.034 390.451Z" fill="#616C7F"/>
<path d="M292.908 432.267H294.252V427.179H296.524C298.124 427.179 300.236 426.523 300.236 424.043C300.236 421.675 298.348 420.939 296.268 420.939H292.908V432.267ZM294.252 422.187H296.524C297.868 422.187 298.796 422.795 298.796 424.059C298.796 425.323 297.868 425.931 296.524 425.931H294.252V422.187ZM302.28 432.267H303.528V420.171H302.28V432.267ZM311.756 430.171C311.164 430.923 310.444 431.307 309.372 431.307C308.012 431.307 307.02 430.203 306.924 428.907H312.972V428.507C312.972 426.027 311.532 424.587 309.42 424.587C307.212 424.587 305.58 426.203 305.58 428.523C305.58 430.699 307.02 432.459 309.372 432.459C310.764 432.459 311.82 432.043 312.7 430.907L311.756 430.171ZM306.924 427.851C307.084 426.587 307.996 425.739 309.372 425.739C310.748 425.739 311.58 426.587 311.628 427.851H306.924ZM315.591 426.555C316.183 426.011 317.015 425.739 317.815 425.739C318.983 425.739 319.671 426.299 319.671 427.387V427.611H319.191C317.351 427.611 314.471 427.755 314.471 430.235C314.471 431.691 315.735 432.459 317.255 432.459C318.391 432.459 319.223 431.915 319.719 431.147H319.751C319.751 431.467 319.751 431.931 319.831 432.267H321.031C320.967 431.883 320.919 431.403 320.919 430.971V427.755C320.919 425.643 319.991 424.587 317.783 424.587C316.695 424.587 315.575 424.955 314.807 425.739L315.591 426.555ZM319.671 428.667V429.147C319.639 430.363 318.903 431.403 317.463 431.403C316.519 431.403 315.815 431.051 315.815 430.107C315.815 429.099 316.839 428.667 318.423 428.667H319.671ZM322.368 431.067C323.104 432.123 324.016 432.459 325.28 432.459C326.768 432.459 328.272 431.803 328.272 430.107C328.272 428.603 327.152 428.123 325.824 427.867C324.832 427.675 323.936 427.403 323.936 426.779C323.936 426.075 324.72 425.739 325.408 425.739C326.144 425.739 326.672 426.107 326.992 426.635L328.032 425.947C327.52 424.987 326.544 424.587 325.488 424.587C324.096 424.587 322.688 425.339 322.688 426.795C322.688 428.347 323.904 428.651 325.328 428.971C326.128 429.147 326.928 429.355 326.928 430.155C326.928 430.971 326.064 431.307 325.28 431.307C324.4 431.307 323.856 430.907 323.36 430.299L322.368 431.067ZM335.756 430.171C335.164 430.923 334.444 431.307 333.372 431.307C332.012 431.307 331.02 430.203 330.924 428.907H336.972V428.507C336.972 426.027 335.532 424.587 333.42 424.587C331.212 424.587 329.58 426.203 329.58 428.523C329.58 430.699 331.02 432.459 333.372 432.459C334.764 432.459 335.82 432.043 336.7 430.907L335.756 430.171ZM330.924 427.851C331.084 426.587 331.996 425.739 333.372 425.739C334.748 425.739 335.58 426.587 335.628 427.851H330.924ZM349.676 425.771C348.924 424.955 347.9 424.587 346.796 424.587C344.492 424.587 342.924 426.251 342.924 428.523C342.924 430.827 344.476 432.459 346.796 432.459C347.884 432.459 348.908 432.091 349.628 431.259L348.7 430.379C348.236 431.019 347.612 431.307 346.796 431.307C345.276 431.307 344.268 430.059 344.268 428.523C344.268 426.987 345.116 425.739 346.796 425.739C347.548 425.739 348.156 426.011 348.684 426.651L349.676 425.771ZM350.643 428.523C350.643 430.859 352.339 432.459 354.643 432.459C356.947 432.459 358.643 430.859 358.643 428.523C358.643 426.187 356.947 424.587 354.643 424.587C352.339 424.587 350.643 426.187 350.643 428.523ZM351.987 428.523C351.987 426.955 353.027 425.739 354.643 425.739C356.259 425.739 357.299 426.955 357.299 428.523C357.299 430.091 356.259 431.307 354.643 431.307C353.027 431.307 351.987 430.091 351.987 428.523ZM360.575 432.267H361.823V428.619C361.823 426.907 362.527 425.739 364.143 425.739C365.167 425.739 365.583 426.379 365.583 428.027V432.267H366.831V427.947C366.831 426.603 367.711 425.739 368.767 425.739C370.223 425.739 370.591 426.747 370.591 427.787V432.267H371.839V427.723C371.839 425.787 371.135 424.587 368.991 424.587C367.855 424.587 367.167 425.131 366.623 426.011C366.383 425.499 365.871 424.587 364.255 424.587C363.023 424.587 362.095 425.275 361.759 426.011H361.727C361.727 425.595 361.695 425.179 361.695 424.779H360.511C360.511 425.275 360.575 425.867 360.575 426.555V432.267ZM379.944 430.171C379.352 430.923 378.632 431.307 377.56 431.307C376.2 431.307 375.208 430.203 375.112 428.907H381.16V428.507C381.16 426.027 379.72 424.587 377.608 424.587C375.4 424.587 373.768 426.203 373.768 428.523C373.768 430.699 375.208 432.459 377.56 432.459C378.952 432.459 380.008 432.043 380.888 430.907L379.944 430.171ZM375.112 427.851C375.272 426.587 376.184 425.739 377.56 425.739C378.936 425.739 379.768 426.587 379.816 427.851H375.112ZM387.479 432.267H388.727V430.939H388.759C389.223 431.787 390.295 432.459 391.639 432.459C393.735 432.459 395.383 430.763 395.383 428.523C395.383 426.251 393.799 424.587 391.447 424.587C390.359 424.587 389.447 425.067 388.759 425.867H388.727V420.171H387.479V432.267ZM388.727 428.523C388.727 426.955 389.767 425.739 391.383 425.739C392.999 425.739 394.039 426.955 394.039 428.523C394.039 430.091 392.999 431.307 391.383 431.307C389.767 431.307 388.727 430.091 388.727 428.523ZM398.013 426.555C398.605 426.011 399.437 425.739 400.237 425.739C401.405 425.739 402.093 426.299 402.093 427.387V427.611H401.613C399.773 427.611 396.893 427.755 396.893 430.235C396.893 431.691 398.157 432.459 399.677 432.459C400.813 432.459 401.645 431.915 402.141 431.147H402.173C402.173 431.467 402.173 431.931 402.253 432.267H403.453C403.389 431.883 403.341 431.403 403.341 430.971V427.755C403.341 425.643 402.413 424.587 400.205 424.587C399.117 424.587 397.997 424.955 397.229 425.739L398.013 426.555ZM402.093 428.667V429.147C402.061 430.363 401.325 431.403 399.885 431.403C398.941 431.403 398.237 431.051 398.237 430.107C398.237 429.099 399.261 428.667 400.845 428.667H402.093ZM411.942 425.771C411.19 424.955 410.166 424.587 409.062 424.587C406.758 424.587 405.19 426.251 405.19 428.523C405.19 430.827 406.742 432.459 409.062 432.459C410.15 432.459 411.174 432.091 411.894 431.259L410.966 430.379C410.502 431.019 409.878 431.307 409.062 431.307C407.542 431.307 406.534 430.059 406.534 428.523C406.534 426.987 407.382 425.739 409.062 425.739C409.814 425.739 410.422 426.011 410.95 426.651L411.942 425.771ZM413.34 432.267H414.588V428.331L418.3 432.267H420.14L416.156 428.187L419.772 424.779H417.996L414.588 428.075V420.171H413.34V432.267ZM426.481 426.555C427.073 426.011 427.905 425.739 428.705 425.739C429.873 425.739 430.561 426.299 430.561 427.387V427.611H430.081C428.241 427.611 425.361 427.755 425.361 430.235C425.361 431.691 426.625 432.459 428.145 432.459C429.281 432.459 430.113 431.915 430.609 431.147H430.641C430.641 431.467 430.641 431.931 430.721 432.267H431.921C431.857 431.883 431.809 431.403 431.809 430.971V427.755C431.809 425.643 430.881 424.587 428.673 424.587C427.585 424.587 426.465 424.955 425.697 425.739L426.481 426.555ZM430.561 428.667V429.147C430.529 430.363 429.793 431.403 428.353 431.403C427.409 431.403 426.705 431.051 426.705 430.107C426.705 429.099 427.729 428.667 429.313 428.667H430.561ZM434.09 432.267H435.338V428.619C435.338 426.907 436.042 425.739 437.658 425.739C438.826 425.739 439.37 426.523 439.37 427.771V432.267H440.618V427.643C440.618 425.835 439.738 424.587 437.77 424.587C436.538 424.587 435.61 425.275 435.274 426.011H435.242C435.242 425.595 435.21 425.179 435.21 424.779H434.026C434.026 425.275 434.09 425.867 434.09 426.555V432.267ZM442.549 428.523C442.549 430.859 444.245 432.459 446.549 432.459C448.853 432.459 450.549 430.859 450.549 428.523C450.549 426.187 448.853 424.587 446.549 424.587C444.245 424.587 442.549 426.187 442.549 428.523ZM443.893 428.523C443.893 426.955 444.933 425.739 446.549 425.739C448.165 425.739 449.205 426.955 449.205 428.523C449.205 430.091 448.165 431.307 446.549 431.307C444.933 431.307 443.893 430.091 443.893 428.523ZM456.577 424.779H454.369V422.651H453.121V424.779H451.489V425.835H453.121V429.947C453.121 431.499 453.409 432.459 455.185 432.459C455.649 432.459 456.209 432.379 456.641 432.187L456.593 431.051C456.257 431.227 455.857 431.307 455.489 431.307C454.385 431.307 454.369 430.539 454.369 429.579V425.835H456.577V424.779ZM458.106 432.267H459.354V428.619C459.354 426.907 460.058 425.739 461.674 425.739C462.842 425.739 463.386 426.523 463.386 427.771V432.267H464.634V427.643C464.634 425.835 463.754 424.587 461.786 424.587C460.618 424.587 459.722 425.227 459.386 425.819H459.354V420.171H458.106V432.267ZM472.741 430.171C472.149 430.923 471.429 431.307 470.357 431.307C468.997 431.307 468.005 430.203 467.909 428.907H473.957V428.507C473.957 426.027 472.517 424.587 470.405 424.587C468.197 424.587 466.565 426.203 466.565 428.523C466.565 430.699 468.005 432.459 470.357 432.459C471.749 432.459 472.805 432.043 473.685 430.907L472.741 430.171ZM467.909 427.851C468.069 426.587 468.981 425.739 470.357 425.739C471.733 425.739 472.565 426.587 472.613 427.851H467.909ZM475.887 432.267H477.135V428.619C477.135 426.907 477.807 425.835 479.327 425.835C479.551 425.835 479.791 425.867 479.999 425.931L480.079 424.667C479.903 424.603 479.727 424.587 479.567 424.587C478.335 424.587 477.407 425.275 477.071 426.011H477.039C477.039 425.595 477.007 425.179 477.007 424.779H475.823C475.823 425.275 475.887 425.867 475.887 426.555V432.267ZM490.061 424.779H487.853V422.651H486.605V424.779H484.973V425.835H486.605V429.947C486.605 431.499 486.893 432.459 488.669 432.459C489.133 432.459 489.693 432.379 490.125 432.187L490.077 431.051C489.741 431.227 489.341 431.307 488.973 431.307C487.869 431.307 487.853 430.539 487.853 429.579V425.835H490.061V424.779ZM491.702 432.267H492.95V424.779H491.702V432.267ZM491.414 421.851C491.414 422.379 491.798 422.763 492.326 422.763C492.854 422.763 493.238 422.379 493.238 421.851C493.238 421.355 492.838 420.939 492.326 420.939C491.814 420.939 491.414 421.355 491.414 421.851ZM495.434 432.267H496.682V428.619C496.682 426.907 497.386 425.739 499.002 425.739C500.026 425.739 500.442 426.379 500.442 428.027V432.267H501.69V427.947C501.69 426.603 502.57 425.739 503.626 425.739C505.082 425.739 505.45 426.747 505.45 427.787V432.267H506.698V427.723C506.698 425.787 505.994 424.587 503.85 424.587C502.714 424.587 502.026 425.131 501.482 426.011C501.242 425.499 500.73 424.587 499.114 424.587C497.882 424.587 496.954 425.275 496.618 426.011H496.586C496.586 425.595 496.554 425.179 496.554 424.779H495.37C495.37 425.275 495.434 425.867 495.434 426.555V432.267ZM514.803 430.171C514.211 430.923 513.491 431.307 512.419 431.307C511.059 431.307 510.067 430.203 509.971 428.907H516.019V428.507C516.019 426.027 514.579 424.587 512.467 424.587C510.259 424.587 508.627 426.203 508.627 428.523C508.627 430.699 510.067 432.459 512.419 432.459C513.811 432.459 514.867 432.043 515.747 430.907L514.803 430.171ZM509.971 427.851C510.131 426.587 511.043 425.739 512.419 425.739C513.795 425.739 514.627 426.587 514.675 427.851H509.971ZM521.971 428.523C521.971 430.859 523.667 432.459 525.971 432.459C528.275 432.459 529.971 430.859 529.971 428.523C529.971 426.187 528.275 424.587 525.971 424.587C523.667 424.587 521.971 426.187 521.971 428.523ZM523.315 428.523C523.315 426.955 524.355 425.739 525.971 425.739C527.587 425.739 528.627 426.955 528.627 428.523C528.627 430.091 527.587 431.307 525.971 431.307C524.355 431.307 523.315 430.091 523.315 428.523ZM531.903 432.267H533.151V428.619C533.151 426.907 533.823 425.835 535.343 425.835C535.567 425.835 535.807 425.867 536.015 425.931L536.095 424.667C535.919 424.603 535.743 424.587 535.583 424.587C534.351 424.587 533.423 425.275 533.087 426.011H533.055C533.055 425.595 533.023 425.179 533.023 424.779H531.839C531.839 425.275 531.903 425.867 531.903 426.555V432.267ZM546.077 424.779H543.869V422.651H542.621V424.779H540.989V425.835H542.621V429.947C542.621 431.499 542.909 432.459 544.685 432.459C545.149 432.459 545.709 432.379 546.141 432.187L546.093 431.051C545.757 431.227 545.357 431.307 544.989 431.307C543.885 431.307 543.869 430.539 543.869 429.579V425.835H546.077V424.779ZM547.606 432.267H548.854V428.619C548.854 426.907 549.526 425.835 551.046 425.835C551.27 425.835 551.51 425.867 551.718 425.931L551.798 424.667C551.622 424.603 551.446 424.587 551.286 424.587C550.054 424.587 549.126 425.275 548.79 426.011H548.758C548.758 425.595 548.726 425.179 548.726 424.779H547.542C547.542 425.275 547.606 425.867 547.606 426.555V432.267ZM559.599 424.779H558.239L556.015 430.651H555.983L553.663 424.779H552.207L555.311 432.315L554.799 433.723C554.527 434.459 554.223 434.955 553.407 434.955C553.055 434.955 552.783 434.923 552.527 434.827L552.367 435.915C552.703 436.075 553.135 436.107 553.487 436.107C554.991 436.107 555.487 435.243 555.983 433.979L559.599 424.779ZM566.091 426.555C566.683 426.011 567.515 425.739 568.315 425.739C569.483 425.739 570.171 426.299 570.171 427.387V427.611H569.691C567.851 427.611 564.971 427.755 564.971 430.235C564.971 431.691 566.235 432.459 567.755 432.459C568.891 432.459 569.723 431.915 570.219 431.147H570.251C570.251 431.467 570.251 431.931 570.331 432.267H571.531C571.467 431.883 571.419 431.403 571.419 430.971V427.755C571.419 425.643 570.491 424.587 568.283 424.587C567.195 424.587 566.075 424.955 565.307 425.739L566.091 426.555ZM570.171 428.667V429.147C570.139 430.363 569.403 431.403 567.963 431.403C567.019 431.403 566.315 431.051 566.315 430.107C566.315 429.099 567.339 428.667 568.923 428.667H570.171ZM581.172 424.779H579.924V426.059H579.892C579.396 425.067 578.26 424.587 577.252 424.587C574.868 424.587 573.268 426.075 573.268 428.523C573.268 430.731 574.9 432.363 577.252 432.363C578.244 432.363 579.3 431.931 579.892 430.971H579.924V431.931C579.924 433.515 579.332 434.955 577.092 434.955C575.94 434.955 575.092 434.507 574.308 433.659L573.412 434.683C574.468 435.723 575.636 436.107 577.092 436.107C579.716 436.107 581.172 434.635 581.172 431.931V424.779ZM574.612 428.523C574.612 426.955 575.684 425.739 577.252 425.739C578.836 425.739 579.924 426.875 579.924 428.491C579.924 429.931 578.964 431.211 577.252 431.211C575.796 431.211 574.612 430.043 574.612 428.523ZM584.169 426.555C584.761 426.011 585.593 425.739 586.393 425.739C587.561 425.739 588.249 426.299 588.249 427.387V427.611H587.769C585.929 427.611 583.049 427.755 583.049 430.235C583.049 431.691 584.313 432.459 585.833 432.459C586.969 432.459 587.801 431.915 588.297 431.147H588.329C588.329 431.467 588.329 431.931 588.409 432.267H589.609C589.545 431.883 589.497 431.403 589.497 430.971V427.755C589.497 425.643 588.569 424.587 586.361 424.587C585.273 424.587 584.153 424.955 583.385 425.739L584.169 426.555ZM588.249 428.667V429.147C588.217 430.363 587.481 431.403 586.041 431.403C585.097 431.403 584.393 431.051 584.393 430.107C584.393 429.099 585.417 428.667 587.001 428.667H588.249ZM591.89 432.267H593.138V424.779H591.89V432.267ZM591.602 421.851C591.602 422.379 591.986 422.763 592.514 422.763C593.042 422.763 593.426 422.379 593.426 421.851C593.426 421.355 593.026 420.939 592.514 420.939C592.002 420.939 591.602 421.355 591.602 421.851ZM595.622 432.267H596.87V428.619C596.87 426.907 597.574 425.739 599.19 425.739C600.358 425.739 600.902 426.523 600.902 427.771V432.267H602.15V427.643C602.15 425.835 601.27 424.587 599.302 424.587C598.07 424.587 597.142 425.275 596.806 426.011H596.774C596.774 425.595 596.742 425.179 596.742 424.779H595.558C595.558 425.275 595.622 425.867 595.622 426.555V432.267ZM605.552 430.443C605.024 430.443 604.592 430.875 604.592 431.403C604.592 431.931 605.056 432.363 605.552 432.363C606.048 432.363 606.512 431.931 606.512 431.403C606.512 430.875 606.08 430.443 605.552 430.443Z" fill="#333333"/>
<rect x="400.5" y="464.767" width="99" height="35" rx="3.5" fill="#6C3078"/>
<path d="M423.136 486.267H424.9V477.951H427.938V476.355H420.098V477.951H423.136V486.267ZM427.706 486.267H429.386V482.669C429.386 482.305 429.61 480.975 431.192 480.975C431.458 480.975 431.724 481.031 432.004 481.101V479.477C431.808 479.421 431.612 479.379 431.402 479.379C430.52 479.379 429.778 479.841 429.414 480.611H429.386V479.547H427.706V486.267ZM435.107 486.323L434.785 487.121C434.505 487.821 434.281 488.115 433.455 488.115C433.161 488.115 432.867 488.045 432.601 487.947L432.391 489.459C432.811 489.571 433.245 489.627 433.679 489.627C435.163 489.627 435.751 488.969 436.241 487.709L439.419 479.547H437.669L435.989 484.209H435.961L434.085 479.547H432.237L435.107 486.323ZM448.75 486.267H450.262V482.403C450.262 481.451 450.262 479.379 447.392 479.379C446.328 479.379 445.278 479.701 444.536 480.457L445.418 481.339C445.866 480.919 446.51 480.639 447.21 480.639C448.106 480.639 448.75 481.073 448.75 481.899V482.081H448.33C446.65 482.081 444.102 482.235 444.102 484.419C444.102 485.749 445.306 486.435 446.552 486.435C447.448 486.435 448.232 486.099 448.708 485.343H448.75V486.267ZM448.652 483.635C448.652 484.573 448.106 485.175 446.958 485.175C446.412 485.175 445.782 484.909 445.782 484.293C445.782 483.327 447.378 483.257 448.302 483.257H448.652V483.635ZM457.389 479.547V480.555H457.361C456.871 479.743 455.989 479.379 455.051 479.379C452.979 479.379 451.733 480.919 451.733 482.907C451.733 484.811 453.063 486.351 455.079 486.351C455.919 486.351 456.787 486.029 457.277 485.371H457.305V485.861C457.305 487.191 456.801 488.115 455.177 488.115C454.239 488.115 453.539 487.765 452.867 487.149L451.859 488.521C452.811 489.361 453.945 489.627 455.191 489.627C457.809 489.627 458.985 488.087 458.985 485.665V479.547H457.389ZM455.401 480.891C456.619 480.891 457.389 481.703 457.389 482.865C457.389 483.985 456.633 484.839 455.387 484.839C454.253 484.839 453.413 483.957 453.413 482.893C453.413 481.703 454.225 480.891 455.401 480.891ZM465.088 486.267H466.6V482.403C466.6 481.451 466.6 479.379 463.73 479.379C462.666 479.379 461.616 479.701 460.874 480.457L461.756 481.339C462.204 480.919 462.848 480.639 463.548 480.639C464.444 480.639 465.088 481.073 465.088 481.899V482.081H464.668C462.988 482.081 460.44 482.235 460.44 484.419C460.44 485.749 461.644 486.435 462.89 486.435C463.786 486.435 464.57 486.099 465.046 485.343H465.088V486.267ZM464.99 483.635C464.99 484.573 464.444 485.175 463.296 485.175C462.75 485.175 462.12 484.909 462.12 484.293C462.12 483.327 463.716 483.257 464.64 483.257H464.99V483.635ZM468.435 486.267H470.115V479.547H468.435V486.267ZM468.197 477.265C468.197 477.797 468.645 478.273 469.261 478.273C469.877 478.273 470.353 477.839 470.353 477.265C470.353 476.691 469.877 476.257 469.261 476.257C468.645 476.257 468.197 476.733 468.197 477.265ZM472.044 486.267H473.724V482.599C473.724 481.703 474.158 480.891 475.264 480.891C476.44 480.891 476.496 482.123 476.496 482.865V486.267H478.176V482.025C478.176 480.653 477.532 479.379 475.726 479.379C474.606 479.379 473.976 479.953 473.668 480.625H473.64V479.547H472.044V486.267Z" fill="white"/>
<rect x="400.5" y="464.767" width="99" height="35" rx="3.5" stroke="#6C3078"/>
<rect x="1" y="1" width="898" height="506.267" rx="3" stroke="#E7EDF9" stroke-width="2"/>
</svg>
