<svg width="903" height="549" viewBox="0 0 903 549" fill="none" xmlns="http://www.w3.org/2000/svg">
<rect width="883" height="529" transform="translate(10 10)" fill="white"/>
<g filter="url(#filter0_d_539_46671)">
<g clip-path="url(#clip0_539_46671)">
<rect x="10" y="10" width="883" height="529" rx="2" fill="white"/>
<mask id="mask0_539_46671" style="mask-type:luminance" maskUnits="userSpaceOnUse" x="10" y="10" width="883" height="529">
<rect x="10" y="10" width="883" height="529" rx="2" fill="white"/>
</mask>
<g mask="url(#mask0_539_46671)">
</g>
<g clip-path="url(#clip1_539_46671)">
<g clip-path="url(#clip2_539_46671)">
<rect x="10" y="10" width="883" height="47" fill="#C7C7C7"/>
<path fill-rule="evenodd" clip-rule="evenodd" d="M95 21C95 19.8954 95.8954 19 97 19H852C853.105 19 854 19.8954 854 21V47C854 48.1046 853.105 49 852 49H97C95.8954 49 95 48.1046 95 47V21Z" fill="#F8F9FB"/>
</g>
<g clip-path="url(#clip3_539_46671)">
<circle cx="27.5" cy="32.5" r="7.5" fill="#FF6057"/>
<circle cx="49.5" cy="32.5" r="7.5" fill="#FFC12E"/>
<circle cx="73.5" cy="32.5" r="7.5" fill="#28CA40"/>
</g>
</g>
</g>
</g>
<rect x="50.5" y="69.2559" width="180" height="16.3838" fill="#D2D6DD"/>
<g clip-path="url(#clip4_539_46671)">
<rect width="113" height="52" transform="translate(50.5 88.6396)" fill="white" fill-opacity="0.01"/>
<path d="M72.75 120.64H84.3516V112.905H72.75V120.64ZM84 120.64H95.6016V112.905H84V120.64ZM95.25 120.64H106.852V112.905H95.25V120.64ZM106.5 120.64H118.102V112.905H106.5V120.64ZM117.75 120.64H129.352V112.905H117.75V120.64ZM129 120.64H140.602V112.905H129V120.64Z" fill="#6C3078"/>
<rect x="50.5" y="138.64" width="113" height="2" rx="1" fill="#6C3078"/>
</g>
<g clip-path="url(#clip5_539_46671)">
<rect width="30" height="39" transform="translate(179.5 101.64)" fill="white" fill-opacity="0.01"/>
<path d="M185.125 120.14H196.727V112.405H185.125V120.14ZM196.375 120.14H207.977V112.405H196.375V120.14ZM207.625 120.14H219.227V112.405H207.625V120.14ZM218.875 120.14H230.477V112.405H218.875V120.14ZM230.125 120.14H241.727V112.405H230.125V120.14ZM241.375 120.14H252.977V112.405H241.375V120.14ZM252.625 120.14H264.227V112.405H252.625V120.14Z" fill="#D2D6DD"/>
</g>
<rect x="51" y="141.14" width="241" height="1" rx="0.5" fill="#D2D6DD" stroke="#D2D6DD"/>
<path d="M448.5 153.64H10.5V155.64H448.5V153.64Z" fill="#E7EDF9" mask="url(#path-8-inside-1_539_46671)"/>
<rect x="343.938" y="217.908" width="210.025" height="138.931" rx="50" fill="#FBFCFD"/>
<path fill-rule="evenodd" clip-rule="evenodd" d="M385.548 213.594C394.265 213.594 401.788 219.329 405.34 227.29C407.95 233.14 411.076 238.678 414.576 242.357C422.439 250.624 430.302 250.651 437.498 250.675C439.986 250.684 442.394 250.692 444.695 251.041C453.65 252.397 465.589 255.111 471.83 267.864C477.818 280.1 488.552 290.838 502.115 295.284C503.261 295.659 504.448 295.875 505.653 295.925C512.079 296.197 527.799 295.976 535.598 295.813C548.224 295.813 563.182 304.748 570.939 325.741C571.657 327.682 571.958 329.754 571.958 331.824V342.293C571.958 353.339 563.004 362.293 551.958 362.293H351C339.954 362.293 331 353.339 331 342.293V233.594C331 222.548 339.954 213.594 351 213.594H385.548Z" fill="#F0F3F6"/>
<path d="M447.041 239.475V280.931C447.041 282.131 446.068 283.105 444.867 283.105H370.006C368.806 283.105 367.832 282.131 367.832 280.931V239.475C367.832 238.274 368.806 237.301 370.006 237.301H444.867C446.068 237.301 447.041 238.274 447.041 239.475Z" fill="#FEFFFF"/>
<path d="M417.907 274.857L419.304 274.732L419.227 275.98L418.743 276.804L417.99 277.366L417.351 277.228L416.867 276.147L416.855 275.562L416.497 274.618L416.676 274.236L417.907 274.857ZM425.689 262.577L425.683 262.488L425.48 259.334L424.106 257.351L423.951 256.336L423.085 256.079L422.476 253.636L420.182 251.701L420.134 250.226L419.728 249.515L419.525 247.532L418.713 246.821H418.151L417.692 244.683L416.927 243.053L416.061 244.988L415.912 247.789L414.233 250.286L412.041 249.013L411.994 248.984L409.342 247.03L410.512 245.048L410.871 244.283H410.16L410.005 243.877L408.834 244.235L406.188 243.369L406.29 244.182L404.761 244.283L403.082 246.624L403.441 247.287L402.742 247.311L401.464 246.833L400.293 246.326L398.155 248.309L398.358 249.175H397.289L397.391 250.089L396.578 249.426L395.814 250.447L396.118 251.462L395.151 252.991L390.928 254.771L389.453 256.348L389.047 256.909L388.641 256.402L388.688 258.695L389.656 260.63L389.148 261.293L390.827 263.736L392.099 266.334L392.403 267.708L391.943 268.114V268.825L394.285 269.332L395.915 268.06L399.021 267.451L399.732 266.334L400.956 265.671L403.656 264.805V264.799L405.585 264.554L407.365 265.062L408.332 266.286L409.402 267.863L411.259 266.364L410.763 268.156L411.743 267.726L411.689 268.729L412.454 268.783L412.71 270.258L413.833 271.429L413.845 271.435L415.464 272.349L416.837 271.787L417.907 272.653L419.179 271.841L421.215 271.279L421.221 271.267L421.878 269.756L423.306 267.415L424.984 265.074L425.749 263.342L425.689 262.577Z" fill="#D4DDE3"/>
<path d="M416.354 271.632C416.763 271.632 417.095 271.3 417.095 270.891C417.095 270.482 416.763 270.15 416.354 270.15C415.945 270.15 415.613 270.482 415.613 270.891C415.613 271.3 415.945 271.632 416.354 271.632Z" fill="#34B9B3"/>
<path d="M420.535 266.257C420.944 266.257 421.275 265.925 421.275 265.516C421.275 265.107 420.944 264.775 420.535 264.775C420.126 264.775 419.794 265.107 419.794 265.516C419.794 265.925 420.126 266.257 420.535 266.257Z" fill="#34B9B3"/>
<path d="M424.119 260.284C424.528 260.284 424.859 259.952 424.859 259.543C424.859 259.134 424.528 258.803 424.119 258.803C423.71 258.803 423.378 259.134 423.378 259.543C423.378 259.952 423.71 260.284 424.119 260.284Z" fill="#34B9B3"/>
<path d="M424.119 264.465C424.528 264.465 424.859 264.133 424.859 263.724C424.859 263.315 424.528 262.983 424.119 262.983C423.71 262.983 423.378 263.315 423.378 263.724C423.378 264.133 423.71 264.465 424.119 264.465Z" fill="#34B9B3"/>
<path d="M409.784 266.257C410.193 266.257 410.524 265.925 410.524 265.516C410.524 265.107 410.193 264.775 409.784 264.775C409.375 264.775 409.043 265.107 409.043 265.516C409.043 265.925 409.375 266.257 409.784 266.257Z" fill="#34B9B3"/>
<path d="M390.671 259.09C391.08 259.09 391.412 258.758 391.412 258.349C391.412 257.94 391.08 257.608 390.671 257.608C390.262 257.608 389.931 257.94 389.931 258.349C389.931 258.758 390.262 259.09 390.671 259.09Z" fill="#34B9B3"/>
<path d="M527.883 283.105H453.028C451.827 283.105 450.854 282.131 450.854 280.931V239.475C450.854 238.274 451.827 237.301 453.028 237.301H527.889C529.089 237.301 530.063 238.274 530.063 239.475V280.937C530.057 282.137 529.083 283.105 527.883 283.105Z" fill="#FEFFFF"/>
<path d="M464.865 256.712L477.659 246.23L490.452 256.712L503.251 249.724L516.045 246.23" stroke="#34B9B3" stroke-miterlimit="10" stroke-linecap="round"/>
<path d="M464.865 267.195L477.659 260.207L490.452 263.701H503.251L516.045 256.713" stroke="#CDD7DF" stroke-miterlimit="10" stroke-linecap="round"/>
<path d="M464.865 274.182L477.659 270.688L490.452 267.194L503.251 274.182L516.045 263.7" stroke="#E4EAEE" stroke-miterlimit="10" stroke-linecap="round"/>
<g clip-path="url(#clip6_539_46671)">
<rect x="370.902" y="293.548" width="156.297" height="44.5013" rx="10" fill="#FEFFFF"/>
<circle cx="411.402" cy="318.048" r="4" fill="white" stroke="#CDD7DF"/>
<path d="M411.449 313.595V322.502" stroke="#CDD7DF"/>
<circle cx="425.402" cy="318.048" r="4" fill="white" stroke="#CDD7DF"/>
<path d="M422.3 314.899L428.598 321.198" stroke="#CDD7DF"/>
<circle cx="439.402" cy="318.048" r="4" fill="white" stroke="#CDD7DF"/>
<path d="M443.306 315.821L435.592 320.275" stroke="#CDD7DF"/>
<rect x="487.902" y="312.548" width="61" height="11" rx="2" fill="#CDD7DF"/>
<circle cx="493.402" cy="318.048" r="1.5" fill="white"/>
<circle cx="503.402" cy="318.048" r="1.5" fill="#E6E6E6"/>
<circle cx="513.402" cy="318.048" r="1.5" fill="white"/>
<circle cx="523.402" cy="318.048" r="1.5" fill="#E6E6E6"/>
<rect x="413.402" y="331.048" width="24" height="11" rx="1.5" fill="white" stroke="#CDD7DF"/>
<path d="M423.902 339.548L420.902 336.048" stroke="#CDD7DF"/>
</g>
<path d="M394.112 216.306C394.112 223.502 399.966 229.356 407.163 229.356C414.359 229.356 420.213 223.502 420.213 216.306C420.213 209.11 414.359 203.256 407.163 203.256C399.966 203.256 394.112 209.11 394.112 216.306Z" fill="#E4EAEE"/>
<path d="M396.936 216.306H407.433L413.823 220.735" stroke="#C4D0D9" stroke-miterlimit="10" stroke-linecap="round" stroke-linejoin="round"/>
<path d="M407.434 217.854C408.289 217.854 408.982 217.161 408.982 216.306C408.982 215.451 408.289 214.758 407.434 214.758C406.579 214.758 405.886 215.451 405.886 216.306C405.886 217.161 406.579 217.854 407.434 217.854Z" fill="#C4D0D9" stroke="#C4D0D9" stroke-width="0.5" stroke-miterlimit="10" stroke-linecap="round" stroke-linejoin="round"/>
<path d="M435.649 216.306C435.649 223.502 441.503 229.356 448.7 229.356C455.896 229.356 461.75 223.502 461.75 216.306C461.75 209.11 455.896 203.256 448.7 203.256C441.503 203.256 435.649 209.11 435.649 216.306Z" fill="#E4EAEE"/>
<path d="M459.066 216.306H448.972L453.146 223.831" stroke="#C4D0D9" stroke-miterlimit="10" stroke-linecap="round" stroke-linejoin="round"/>
<path d="M448.972 217.854C449.827 217.854 450.52 217.161 450.52 216.306C450.52 215.451 449.827 214.758 448.972 214.758C448.117 214.758 447.424 215.451 447.424 216.306C447.424 217.161 448.117 217.854 448.972 217.854Z" fill="#C4D0D9" stroke="#C4D0D9" stroke-width="0.5" stroke-miterlimit="10" stroke-linecap="round" stroke-linejoin="round"/>
<path d="M477.197 216.306C477.197 223.502 483.051 229.356 490.247 229.356C497.444 229.356 503.298 223.502 503.298 216.306C503.298 209.11 497.444 203.256 490.247 203.256C483.051 203.256 477.197 209.11 477.197 216.306Z" fill="#E4EAEE"/>
<path d="M480.021 216.306H490.518V223.831" stroke="#C4D0D9" stroke-miterlimit="10" stroke-linecap="round" stroke-linejoin="round"/>
<path d="M490.519 217.854C491.374 217.854 492.067 217.161 492.067 216.306C492.067 215.451 491.374 214.758 490.519 214.758C489.664 214.758 488.971 215.451 488.971 216.306C488.971 217.161 489.664 217.854 490.519 217.854Z" fill="#C4D0D9" stroke="#C4D0D9" stroke-width="0.5" stroke-miterlimit="10" stroke-linecap="round" stroke-linejoin="round"/>
<path d="M514.222 288.341C514.156 288.663 514.09 288.986 514.019 289.308L514.15 296.386L514.168 297.437H503.101L503.047 295.825L502.969 293.328L502.856 290.043L500.15 290.515C498.597 290.784 497.17 289.601 497.164 288.024C497.134 282.159 497.492 276.867 498.693 272.806C498.985 271.803 499.852 271.074 500.885 270.937C503.686 270.572 506.415 270.447 509.037 270.656C512.519 270.937 515.249 273.791 515.392 277.291C515.53 280.66 515.034 284.411 514.222 288.341Z" fill="#E7EDF9"/>
<path d="M498.133 278.291C498.339 277.323 498.085 276.448 497.566 276.338C497.046 276.227 496.458 276.922 496.252 277.89C496.046 278.858 496.3 279.732 496.819 279.843C497.339 279.954 497.927 279.259 498.133 278.291Z" stroke="#333333" stroke-width="0.6674" stroke-miterlimit="10"/>
<path d="M514.018 289.308C513.427 289.672 512.782 289.959 512.077 290.18C509.652 290.938 506.971 290.55 505.035 288.908C504.199 288.197 503.483 287.104 503.035 285.886C502.664 284.912 502.467 283.855 502.509 282.863L499.045 280.492C498.74 280.283 498.657 279.859 498.872 279.549L499.29 278.939C499.535 278.587 499.618 278.151 499.535 277.733C499.373 276.962 499.111 275.678 498.931 274.812C498.818 274.257 498.472 273.785 497.994 273.48C495.67 272.005 494.374 269.652 494.022 266.486C493.879 265.214 495.276 264.312 496.333 265.029C498.137 266.259 500.532 266.594 503.638 265.853C503.638 265.853 504.611 265.614 506.111 265.393C510.799 264.695 520.648 264.145 522.195 271.521C524.232 281.269 514.018 289.308 514.018 289.308Z" fill="#C4D0D9"/>
<path d="M496.315 277.727L501.643 280.486" stroke="#333333" stroke-width="0.6674" stroke-miterlimit="10"/>
<path d="M499.672 281.537L501.135 279.979C501.72 279.357 502.718 279.369 503.279 280.014C503.745 280.546 503.757 281.34 503.309 281.884L501.362 284.255" fill="#E7EDF9"/>
<path opacity="0.2" fill-rule="evenodd" clip-rule="evenodd" d="M514.019 289.307C513.428 289.672 512.783 289.958 512.078 290.179C509.653 290.938 506.971 290.55 505.036 288.907C504.2 288.197 503.483 287.104 503.035 285.885C503.178 285.909 503.322 285.939 503.459 285.969C506.35 286.56 509.563 286.345 511.94 284.589C513.362 283.538 514.371 282.033 515.201 280.474C515.978 279.005 516.623 277.434 516.82 275.779C517.011 274.125 516.718 272.369 515.745 271.013C514.748 269.616 513.147 268.774 511.558 268.123C509.963 267.471 508.291 266.952 506.87 265.978C506.649 265.829 506.38 265.626 506.105 265.387C510.794 264.688 520.643 264.139 522.189 271.515C524.232 281.268 514.019 289.307 514.019 289.307Z" fill="#CBD6DE"/>
<path opacity="0.3" d="M512.077 290.18C511.36 290.407 510.626 290.527 509.891 290.551C509.814 290.611 509.742 290.67 509.664 290.73C509.031 291.22 508.374 291.68 507.693 292.116C506.875 292.635 506.009 293.125 505.065 293.364C504.295 293.561 503.656 293.465 502.963 293.334L502.993 294.343H514.108L514.012 289.314C513.433 289.673 512.788 289.96 512.077 290.18Z" fill="#E7EDF9"/>
<path d="M542.326 317.546L535.577 371.103H481.501L478.521 330.567C477.523 321.835 472.644 299.049 494.318 298.117L511.991 298.207L525.406 298.272C535.685 298.32 543.611 307.345 542.326 317.546Z" fill="#CBD6DE"/>
<path d="M477.719 345.557C479.212 347.457 480.926 349.314 482.76 351.106L481.285 352.922L475.724 359.748C469.244 355.203 462.966 349.679 459.556 342.135C450.908 321.96 470.277 306.92 486.594 299.753C487.09 299.544 488.816 299.048 489.33 298.857L489.503 298.792L489.736 298.708L495.977 319.409C491.163 320.401 481.971 323.465 476.775 328.034C474.541 329.993 473.042 332.232 472.947 334.699C472.935 338.755 475.21 342.213 477.719 345.557Z" fill="#CBD6DE"/>
<path d="M482.755 351.106C484.863 354.099 487.121 357.067 483.585 362.12L475.713 359.749L482.755 351.106Z" fill="#E6E6E6"/>
<path d="M482.235 355.334C481.757 354.982 481.291 354.779 480.831 354.683V354.677C479.541 354.432 477.994 354.402 476.292 354.504C473.527 354.677 471.771 357.574 472.888 360.112C473.509 361.522 474.148 362.704 474.829 363.535C474.883 363.606 474.942 363.672 475.008 363.738C475.032 363.768 475.062 363.803 475.086 363.827L475.092 363.821C475.247 363.977 475.408 364.132 475.611 364.275C477.917 365.983 481.273 365.368 483.107 362.896C484.929 360.435 484.54 357.042 482.235 355.334Z" fill="#E6E6E6"/>
<path d="M515.335 295.018H500.852V298.559H515.335V295.018Z" fill="#D2D6DD"/>
<path opacity="0.3" d="M515.335 295.017V298.558H511.244C510.402 298.021 509.566 297.447 508.676 296.994C507.338 296.307 505.881 295.883 504.405 295.584C503.659 295.429 502.9 295.309 502.148 295.208C501.807 295.16 501.353 295.178 501.031 295.058C501.001 295.046 500.971 295.035 500.947 295.023H515.335V295.017Z" fill="#D2D6DD"/>
<path opacity="0.3" d="M542.326 317.547L535.577 371.103H529.186C528.642 369.598 528.666 367.86 528.798 366.23C529.054 362.986 530.04 359.928 530.38 356.697C531.664 344.585 532.943 332.436 532.65 320.264C532.548 316.065 532.154 311.58 529.574 308.259C527.436 305.512 524.103 303.977 520.824 302.8C517.545 301.618 514.111 300.662 511.25 298.673C511.495 298.512 511.746 298.356 511.997 298.201L525.411 298.267C535.684 298.321 543.61 307.345 542.326 317.547Z" fill="#CBD6DE"/>
<path opacity="0.3" d="M482.755 351.106L481.28 352.922C479.673 350.802 477.732 348.962 475.898 347.033C474.053 345.092 472.285 343.019 471.138 340.594C469.991 338.169 469.525 335.332 470.362 332.788C470.828 331.355 471.729 330.076 472.876 329.103C473.575 328.512 475.217 327.18 476.215 327.562C476.46 327.652 476.639 327.819 476.77 328.034C474.537 329.993 473.037 332.233 472.942 334.699C472.936 338.755 475.211 342.213 477.72 345.558C479.207 347.457 480.921 349.314 482.755 351.106Z" fill="#CBD6DE"/>
<path d="M383.384 307.626L381.084 309.549C380.445 310.081 380.134 310.899 380.254 311.723L381.072 318.018C381.604 321.596 377.901 323.704 374.466 323.68H374.46C371.916 323.657 369.509 322.45 369.115 319.792L369.031 319.189L368.703 316.74L367.771 309.896C367.765 309.896 367.765 309.896 367.765 309.896L367.55 308.45L367.544 308.367L365.203 307.728L363.728 307.327C362.987 307.124 362.384 306.521 362.288 305.757C362.151 304.735 362.832 303.845 363.787 303.66L365.949 303.541C366.093 303.535 366.23 303.511 366.361 303.469C367.496 303.141 368.046 301.773 367.377 300.74C367.353 300.704 367.323 300.662 367.299 300.626L366.672 299.784C366.14 299.079 366.302 298.07 367.03 297.574L367.693 297.114L376.3 291.177L377.757 290.168C378.516 290.765 379.149 291.53 379.585 292.432C379.89 293.065 380.188 293.71 380.487 294.373L384.005 298.368C384.076 298.452 384.058 298.577 383.957 298.637L382.494 299.443C383.109 301.176 383.694 302.961 384.238 304.825C384.548 305.846 384.202 306.945 383.384 307.626Z" fill="#E4EAEE"/>
<path opacity="0.4" d="M367.467 299.301C367.557 299.713 367.724 300.173 367.521 300.556C367.485 300.621 367.437 300.681 367.383 300.735C367.359 300.699 367.33 300.657 367.306 300.621L366.679 299.779C366.147 299.074 366.308 298.065 367.037 297.569L367.7 297.109C367.407 297.784 367.294 298.519 367.467 299.301Z" fill="#FAFAFA"/>
<path opacity="0.4" d="M365.926 303.929C365.466 304.054 364.995 304.096 364.535 304.239C364.087 304.406 363.669 304.765 363.627 305.243C363.573 305.846 364.111 306.306 364.517 306.748C364.786 307.04 365.024 307.375 365.21 307.727L363.734 307.327C362.994 307.124 362.391 306.521 362.295 305.756C362.158 304.735 362.838 303.845 363.794 303.66L365.956 303.54C366.1 303.534 366.237 303.511 366.368 303.469C366.786 303.684 366.219 303.851 365.926 303.929Z" fill="#FAFAFA"/>
<path d="M366.679 299.778L367.306 300.62C368.184 301.785 367.408 303.452 365.956 303.535L363.794 303.655C362.839 303.84 362.158 304.73 362.295 305.751C362.391 306.51 362.994 307.119 363.734 307.322L365.968 307.931L367.557 308.367L367.563 308.451L368.112 312.148L356.734 316.167C356.442 316.269 356.131 316.09 356.071 315.791C356.048 315.654 356.024 315.522 356.006 315.391C355.235 310.583 355.976 305.751 358.986 302.741C357.642 297.282 360.455 291.638 365.634 289.446C368.471 288.239 371.218 287.72 373.84 288.317C375.19 288.621 376.504 289.219 377.776 290.174L372.138 294.063L367.043 297.574C366.309 298.064 366.141 299.074 366.679 299.778Z" fill="#C4D0D9"/>
<path opacity="0.4" d="M374.366 290.665C374.587 289.858 374.336 288.98 373.834 288.312C375.184 288.616 376.498 289.213 377.77 290.169L372.132 294.057C372.508 292.749 374.001 291.979 374.366 290.665Z" fill="#D2D6DD"/>
<path opacity="0.4" d="M368.107 312.148L356.729 316.168C356.436 316.269 356.125 316.09 356.066 315.792C356.042 315.654 356.018 315.523 356 315.391C356.496 315.111 357.033 314.896 357.553 314.681C359.458 313.892 361.328 312.949 362.928 311.641C364.206 310.595 364.977 309.383 365.897 308.045C365.927 308.003 365.95 307.967 365.974 307.938L367.563 308.374L367.569 308.457L368.107 312.148Z" fill="#D2D6DD"/>
<path d="M363.318 362.91L362.093 364.104L358.151 367.945L357.429 367.372C352.143 363.191 346.821 358.878 341.685 354.53L340.986 353.933L340.938 353.891C340.377 353.336 339.857 352.733 339.445 352.052C337.068 348.42 337.617 343.182 340.705 340.023C342.115 338.649 344.378 336.505 345.83 335.125C349.312 331.876 353.134 328.352 356.73 325.258C357.339 324.727 357.978 324.201 358.617 323.682L359.167 342.495L359.185 342.991C356.772 344.735 354.347 346.455 351.934 348.14C354.496 351.359 357.04 354.632 359.549 357.911L363.318 362.91Z" fill="#CBD6DE"/>
<path d="M392.392 330.544C389.973 328.824 390.911 324.792 389.203 321.627V321.232C388.94 320.981 388.677 320.725 388.415 320.474C388.146 320.157 387.829 319.853 387.471 319.572C387.465 319.572 387.465 319.566 387.465 319.566C386.115 318.515 384.096 317.726 380.985 317.428C382.275 324.511 369.953 325.443 369.033 319.196L368.878 318.162L366.053 318.861C364.739 319.19 363.551 319.781 362.529 320.563L362.523 320.557C361.239 321.579 359.901 322.624 358.605 323.687L359.173 343.003L359.537 357.916L363.318 362.909L358.157 367.95C358.51 368.171 359.107 367.956 359.776 367.502L359.871 371.343H392.96L394.154 344.86L394.429 344.09L395.612 340.775C396.938 337.024 395.636 332.843 392.392 330.544Z" fill="#CBD6DE"/>
<path d="M430.618 316.293C430.69 316.699 430.6 317.135 430.343 317.5L427.345 321.71L426.539 320.94L422.447 317.016L429.758 310.189C430.271 309.717 431.036 310.386 430.624 310.954L428.551 313.814L430.164 315.415C430.415 315.654 430.57 315.965 430.618 316.293Z" fill="#D9E0E6"/>
<path d="M377.67 322.911L380.053 325.509C380.459 325.951 381.176 325.844 381.433 325.3L384.903 318.002L380.895 317.285L377.67 322.911Z" fill="#E7EDF9"/>
<path d="M368.705 317.004L364.554 319.076L375.555 327.181C376.051 327.546 376.75 327.277 376.881 326.68L377.676 322.911L368.705 317.004Z" fill="#E7EDF9"/>
<path d="M427.345 321.704C421.109 329.684 414.665 337.484 408.148 345.225C406.13 347.894 402.337 348.91 399.237 347.608C398.312 347.261 397.457 346.622 396.717 345.983C396.269 345.613 395.056 344.609 394.591 344.227C394.531 344.179 394.471 344.126 394.411 344.078L395.594 340.763C396.932 337.018 395.63 332.837 392.393 330.538C389.974 328.818 390.911 324.786 389.197 321.615V321.221C389.956 321.943 390.714 322.672 391.461 323.407C395.23 327.068 398.915 330.819 402.558 334.599C405.473 331.947 408.393 329.308 411.338 326.686C415.005 323.424 418.69 320.181 422.441 317.004L426.532 320.928L427.345 321.704Z" fill="#CBD6DE"/>
<path d="M364.679 369.622C363.79 370.698 362.834 371.713 361.819 372.698C361.687 372.836 361.556 372.961 361.418 373.087C360.648 373.821 359.567 374.162 358.516 373.982C357.399 373.797 356.294 373.475 355.201 373.051C354.657 372.842 354.628 372.071 355.159 371.844C355.995 371.48 356.819 371.229 357.614 371.193C358.337 371.157 358.928 370.59 358.988 369.867C359.041 369.204 358.133 367.944 358.133 367.944L362.075 364.104L363.3 362.909C363.784 363.381 364.632 364.307 365.056 364.797C366.077 365.973 365.671 368.434 364.679 369.622Z" fill="#D9E0E6"/>
<path opacity="0.4" d="M364.68 369.623C363.79 370.698 362.834 371.713 361.819 372.698C361.604 372.28 361.658 371.737 361.837 371.289C362.046 370.763 362.404 370.309 362.655 369.808C363.264 368.595 363.228 367.144 362.834 365.842C362.649 365.239 362.392 364.659 362.088 364.098L363.312 362.903C363.796 363.375 364.644 364.301 365.068 364.791C366.077 365.973 365.671 368.434 364.68 369.623Z" fill="#D9E0E6"/>
<path opacity="0.4" d="M430.343 317.493L427.344 321.704L426.538 320.934C427.888 319.375 429.244 317.822 430.617 316.293C430.689 316.699 430.599 317.135 430.343 317.493Z" fill="#D9E0E6"/>
<path d="M421.335 367.719C421.335 368.847 416.682 369.767 410.942 369.767C405.203 369.767 400.55 368.847 400.55 367.719C400.55 367.271 401.284 366.853 402.527 366.512C404.414 366.004 407.478 365.67 410.942 365.67C414.884 365.67 418.312 366.1 420.074 366.739C420.875 367.026 421.335 367.36 421.335 367.719Z" fill="#E7EDF9"/>
<path opacity="0.5" d="M420.076 366.739C420.076 366.745 420.07 366.757 420.07 366.763C419.945 367.079 419.652 367.294 419.359 367.468C417.645 368.489 415.591 368.74 413.596 368.818C410.848 368.919 408.095 368.728 405.383 368.256C404.673 368.131 403.962 367.981 403.299 367.707C402.851 367.515 402.361 367.133 402.475 366.661C402.487 366.608 402.504 366.56 402.528 366.512C404.416 366.004 407.48 365.67 410.944 365.67C414.886 365.67 418.314 366.1 420.076 366.739Z" fill="#D9E0E6"/>
<path d="M418.015 365.998C418.015 366.626 417.579 367.181 416.963 367.306C414.562 367.79 412.161 367.963 409.766 367.832C408.399 367.754 407.037 367.581 405.675 367.306C405.066 367.181 404.63 366.626 404.63 365.998L405.024 352.405C405.03 352.166 405.227 351.975 405.472 351.975H417.172C417.411 351.975 417.608 352.166 417.62 352.405L418.015 365.998Z" fill="#D9E0E6"/>
<path d="M406.905 364.899H401.225C399.278 364.899 397.695 363.316 397.695 361.369V357.834C397.695 355.886 399.278 354.304 401.225 354.304H407.222V356.06H401.225C400.246 356.06 399.451 356.854 399.451 357.834V361.369C399.451 362.349 400.246 363.143 401.225 363.143H406.905V364.899Z" fill="#D9E0E6"/>
<path opacity="0.3" d="M418.013 365.998C418.013 366.626 417.577 367.181 416.962 367.306C414.561 367.79 412.16 367.963 409.765 367.832C410.733 367.271 411.73 366.757 412.572 366.034C413.57 365.18 414.358 363.938 414.256 362.624C414.215 362.11 414.041 361.608 413.958 361.095C413.809 360.235 413.922 359.351 414.119 358.503C414.298 357.714 414.549 356.896 414.382 356.102C414.239 355.409 413.779 354.812 413.241 354.346C412.088 353.366 410.583 352.924 409.245 352.219C409.102 352.142 408.959 352.064 408.815 351.975H417.171C417.41 351.975 417.607 352.166 417.619 352.405L418.013 365.998Z" fill="#D9E0E6"/>
<path d="M372 390.57C372 392.489 373.355 393.774 375.248 393.774C377.166 393.74 378.521 392.455 378.521 390.536C378.521 388.565 377.166 387.279 375.248 387.314C373.355 387.314 372 388.599 372 390.57ZM373.146 390.501C373.146 389.277 373.988 388.304 375.256 388.304C376.533 388.304 377.375 389.277 377.375 390.501C377.375 391.812 376.533 392.785 375.256 392.785C373.988 392.785 373.146 391.812 373.146 390.501Z" fill="#333333"/>
<path d="M379.259 391.534C379.259 392.845 380.266 393.722 381.526 393.722C382.785 393.722 383.792 392.845 383.792 391.534C383.792 390.223 382.785 389.346 381.526 389.346C380.266 389.346 379.259 390.223 379.259 391.534ZM380.301 391.534C380.301 390.883 380.761 390.284 381.526 390.284C382.29 390.284 382.75 390.883 382.75 391.534C382.75 392.185 382.29 392.785 381.526 392.785C380.761 392.785 380.301 392.185 380.301 391.534Z" fill="#333333"/>
<path d="M384.767 395.598H385.809V393.089H385.835C386.053 393.358 386.469 393.722 387.251 393.722C388.44 393.722 389.265 392.767 389.265 391.534C389.265 390.301 388.492 389.346 387.207 389.346C386.626 389.346 386.079 389.572 385.775 390.075H385.757V389.45H384.767V395.598ZM388.223 391.534C388.223 392.185 387.763 392.785 386.999 392.785C386.235 392.785 385.775 392.185 385.775 391.534C385.775 390.883 386.235 390.284 386.999 390.284C387.763 390.284 388.223 390.883 388.223 391.534Z" fill="#333333"/>
<path d="M393.154 389.98C392.816 389.52 392.225 389.346 391.67 389.346C390.827 389.346 389.994 389.763 389.994 390.692C389.994 392.281 392.243 391.604 392.243 392.463C392.243 392.793 391.852 392.941 391.548 392.941C391.105 392.941 390.827 392.724 390.558 392.429L389.863 393.08C390.289 393.557 390.845 393.722 391.487 393.722C392.338 393.722 393.285 393.375 393.285 392.385C393.285 390.761 391.036 391.369 391.036 390.623C391.036 390.31 391.366 390.18 391.643 390.18C391.999 390.18 392.26 390.327 392.46 390.605L393.154 389.98Z" fill="#333333"/>
<path d="M395.311 387.471H394.269V391.691H395.311V387.471ZM394.095 393.01C394.095 393.384 394.425 393.67 394.79 393.67C395.172 393.67 395.484 393.366 395.484 392.993C395.484 392.62 395.163 392.333 394.79 392.333C394.408 392.333 394.095 392.637 394.095 393.01Z" fill="#333333"/>
<path d="M399.251 393.618H400.293V387.054H399.251V393.618Z" fill="#333333"/>
<path d="M401.281 391.534C401.281 392.845 402.288 393.722 403.547 393.722C404.806 393.722 405.814 392.845 405.814 391.534C405.814 390.223 404.806 389.346 403.547 389.346C402.288 389.346 401.281 390.223 401.281 391.534ZM402.323 391.534C402.323 390.883 402.783 390.284 403.547 390.284C404.311 390.284 404.772 390.883 404.772 391.534C404.772 392.185 404.311 392.785 403.547 392.785C402.783 392.785 402.323 392.185 402.323 391.534Z" fill="#333333"/>
<path d="M406.581 391.534C406.581 392.845 407.588 393.722 408.847 393.722C410.106 393.722 411.113 392.845 411.113 391.534C411.113 390.223 410.106 389.346 408.847 389.346C407.588 389.346 406.581 390.223 406.581 391.534ZM407.623 391.534C407.623 390.883 408.083 390.284 408.847 390.284C409.611 390.284 410.071 390.883 410.071 391.534C410.071 392.185 409.611 392.785 408.847 392.785C408.083 392.785 407.623 392.185 407.623 391.534Z" fill="#333333"/>
<path d="M412.089 393.618H413.131V391.491H413.148L414.807 393.618H416.187L414.286 391.343L416.075 389.45H414.737L413.131 391.178V387.054H412.089V393.618Z" fill="#333333"/>
<path d="M419.67 389.98C419.332 389.52 418.741 389.346 418.185 389.346C417.343 389.346 416.51 389.763 416.51 390.692C416.51 392.281 418.759 391.604 418.759 392.463C418.759 392.793 418.368 392.941 418.064 392.941C417.621 392.941 417.343 392.724 417.074 392.429L416.379 393.08C416.805 393.557 417.361 393.722 418.003 393.722C418.854 393.722 419.801 393.375 419.801 392.385C419.801 390.761 417.552 391.369 417.552 390.623C417.552 390.31 417.882 390.18 418.159 390.18C418.515 390.18 418.776 390.327 418.976 390.605L419.67 389.98Z" fill="#333333"/>
<path d="M423.198 393.618H424.24V387.054H423.198V393.618Z" fill="#333333"/>
<path d="M425.453 393.618H426.495V389.45H425.453V393.618ZM425.306 388.035C425.306 388.365 425.584 388.66 425.966 388.66C426.348 388.66 426.643 388.391 426.643 388.035C426.643 387.679 426.348 387.41 425.966 387.41C425.584 387.41 425.306 387.705 425.306 388.035Z" fill="#333333"/>
<path d="M427.692 393.618H428.734V391.491H428.751L430.409 393.618H431.79L429.888 391.343L431.677 389.45H430.34L428.734 391.178V387.054H427.692V393.618Z" fill="#333333"/>
<path d="M436.367 391.899V391.612C436.367 390.162 435.577 389.346 434.413 389.346C433.154 389.346 432.147 390.223 432.147 391.534C432.147 392.845 433.154 393.722 434.413 393.722C435.073 393.722 435.69 393.488 436.176 392.889L435.429 392.324C435.169 392.646 434.83 392.889 434.309 392.889C433.727 392.889 433.258 392.515 433.189 391.899H436.367ZM433.189 391.117C433.267 390.518 433.649 390.128 434.266 390.128C434.917 390.128 435.316 390.51 435.325 391.117H433.189Z" fill="#333333"/>
<path d="M440.284 390.336V392.246C440.284 393.227 440.545 393.722 441.647 393.722C441.891 393.722 442.255 393.688 442.472 393.583V392.706C442.342 392.802 442.09 392.837 441.908 392.837C441.448 392.837 441.326 392.576 441.326 392.159V390.336H442.472V389.45H441.326V388.243H440.284V389.45H439.424V390.336H440.284Z" fill="#333333"/>
<path d="M444.328 387.054H443.286V393.618H444.328V391.343C444.328 390.787 444.597 390.284 445.283 390.284C446.012 390.284 446.047 391.048 446.047 391.508V393.618H447.089V390.987C447.089 390.136 446.689 389.346 445.569 389.346C444.927 389.346 444.51 389.685 444.345 390.032H444.328V387.054Z" fill="#333333"/>
<path d="M452.283 391.899V391.612C452.283 390.162 451.493 389.346 450.33 389.346C449.071 389.346 448.063 390.223 448.063 391.534C448.063 392.845 449.071 393.722 450.33 393.722C450.99 393.722 451.606 393.488 452.092 392.889L451.346 392.324C451.085 392.646 450.746 392.889 450.225 392.889C449.644 392.889 449.175 392.515 449.105 391.899H452.283ZM449.105 391.117C449.183 390.518 449.565 390.128 450.182 390.128C450.833 390.128 451.233 390.51 451.241 391.117H449.105Z" fill="#333333"/>
<path d="M453.258 393.618H454.3V391.387C454.3 391.161 454.439 390.336 455.42 390.336C455.585 390.336 455.75 390.371 455.923 390.414V389.407C455.802 389.372 455.68 389.346 455.55 389.346C455.003 389.346 454.543 389.633 454.317 390.11H454.3V389.45H453.258V393.618Z" fill="#333333"/>
<path d="M460.492 391.899V391.612C460.492 390.162 459.701 389.346 458.538 389.346C457.279 389.346 456.272 390.223 456.272 391.534C456.272 392.845 457.279 393.722 458.538 393.722C459.198 393.722 459.814 393.488 460.301 392.889L459.554 392.324C459.293 392.646 458.955 392.889 458.434 392.889C457.852 392.889 457.383 392.515 457.314 391.899H460.492ZM457.314 391.117C457.392 390.518 457.774 390.128 458.39 390.128C459.042 390.128 459.441 390.51 459.45 391.117H457.314Z" fill="#333333"/>
<path d="M464.053 393.618H465.095V389.45H464.053V393.618ZM463.905 388.035C463.905 388.365 464.183 388.66 464.565 388.66C464.947 388.66 465.242 388.391 465.242 388.035C465.242 387.679 464.947 387.41 464.565 387.41C464.183 387.41 463.905 387.705 463.905 388.035Z" fill="#333333"/>
<path d="M469.209 389.98C468.87 389.52 468.279 389.346 467.724 389.346C466.881 389.346 466.048 389.763 466.048 390.692C466.048 392.281 468.297 391.604 468.297 392.463C468.297 392.793 467.906 392.941 467.602 392.941C467.159 392.941 466.881 392.724 466.612 392.429L465.918 393.08C466.343 393.557 466.899 393.722 467.541 393.722C468.392 393.722 469.339 393.375 469.339 392.385C469.339 390.761 467.09 391.369 467.09 390.623C467.09 390.31 467.42 390.18 467.698 390.18C468.054 390.18 468.314 390.327 468.514 390.605L469.209 389.98Z" fill="#333333"/>
<path d="M472.719 393.618H473.761V391.343C473.761 390.787 474.03 390.284 474.716 390.284C475.445 390.284 475.48 391.048 475.48 391.508V393.618H476.522V390.987C476.522 390.136 476.122 389.346 475.002 389.346C474.308 389.346 473.917 389.702 473.726 390.119H473.708V389.45H472.719V393.618Z" fill="#333333"/>
<path d="M477.496 391.534C477.496 392.845 478.504 393.722 479.763 393.722C481.022 393.722 482.029 392.845 482.029 391.534C482.029 390.223 481.022 389.346 479.763 389.346C478.504 389.346 477.496 390.223 477.496 391.534ZM478.538 391.534C478.538 390.883 478.998 390.284 479.763 390.284C480.527 390.284 480.987 390.883 480.987 391.534C480.987 392.185 480.527 392.785 479.763 392.785C478.998 392.785 478.538 392.185 478.538 391.534Z" fill="#333333"/>
<path d="M488.873 393.618H489.863V387.054H488.821V389.98H488.795C488.578 389.711 488.161 389.346 487.38 389.346C486.19 389.346 485.365 390.301 485.365 391.534C485.365 392.767 486.138 393.722 487.423 393.722C488.005 393.722 488.552 393.497 488.856 392.993H488.873V393.618ZM486.407 391.534C486.407 390.883 486.868 390.284 487.632 390.284C488.396 390.284 488.856 390.883 488.856 391.534C488.856 392.185 488.396 392.785 487.632 392.785C486.868 392.785 486.407 392.185 486.407 391.534Z" fill="#333333"/>
<path d="M493.648 393.618H494.586V391.222C494.586 390.631 494.586 389.346 492.806 389.346C492.146 389.346 491.495 389.546 491.035 390.015L491.582 390.562C491.859 390.301 492.259 390.128 492.693 390.128C493.249 390.128 493.648 390.397 493.648 390.909V391.022H493.388C492.346 391.022 490.765 391.117 490.765 392.472C490.765 393.297 491.512 393.722 492.285 393.722C492.841 393.722 493.327 393.514 493.622 393.045H493.648V393.618ZM493.587 391.986C493.587 392.568 493.249 392.941 492.537 392.941C492.198 392.941 491.807 392.776 491.807 392.394C491.807 391.795 492.797 391.751 493.37 391.751H493.587V391.986Z" fill="#333333"/>
<path d="M498.625 389.98C498.286 389.52 497.695 389.346 497.14 389.346C496.297 389.346 495.464 389.763 495.464 390.692C495.464 392.281 497.713 391.604 497.713 392.463C497.713 392.793 497.322 392.941 497.018 392.941C496.575 392.941 496.297 392.724 496.028 392.429L495.334 393.08C495.759 393.557 496.315 393.722 496.957 393.722C497.808 393.722 498.755 393.375 498.755 392.385C498.755 390.761 496.506 391.369 496.506 390.623C496.506 390.31 496.836 390.18 497.114 390.18C497.47 390.18 497.73 390.327 497.93 390.605L498.625 389.98Z" fill="#333333"/>
<path d="M500.607 387.054H499.565V393.618H500.607V391.343C500.607 390.787 500.876 390.284 501.562 390.284C502.292 390.284 502.327 391.048 502.327 391.508V393.618H503.368V390.987C503.368 390.136 502.969 389.346 501.849 389.346C501.206 389.346 500.79 389.685 500.625 390.032H500.607V387.054Z" fill="#333333"/>
<path d="M504.551 393.618H505.541V392.993H505.559C505.862 393.497 506.41 393.722 506.991 393.722C508.276 393.722 509.049 392.767 509.049 391.534C509.049 390.301 508.224 389.346 507.035 389.346C506.253 389.346 505.836 389.711 505.619 389.98H505.593V387.054H504.551V393.618ZM508.007 391.534C508.007 392.185 507.547 392.785 506.783 392.785C506.019 392.785 505.559 392.185 505.559 391.534C505.559 390.883 506.019 390.284 506.783 390.284C507.547 390.284 508.007 390.883 508.007 391.534Z" fill="#333333"/>
<path d="M509.812 391.534C509.812 392.845 510.82 393.722 512.079 393.722C513.338 393.722 514.345 392.845 514.345 391.534C514.345 390.223 513.338 389.346 512.079 389.346C510.82 389.346 509.812 390.223 509.812 391.534ZM510.854 391.534C510.854 390.883 511.314 390.284 512.079 390.284C512.843 390.284 513.303 390.883 513.303 391.534C513.303 392.185 512.843 392.785 512.079 392.785C511.314 392.785 510.854 392.185 510.854 391.534Z" fill="#333333"/>
<path d="M517.925 393.618H518.863V391.222C518.863 390.631 518.863 389.346 517.083 389.346C516.423 389.346 515.772 389.546 515.312 390.015L515.859 390.562C516.137 390.301 516.536 390.128 516.97 390.128C517.526 390.128 517.925 390.397 517.925 390.909V391.022H517.665C516.623 391.022 515.043 391.117 515.043 392.472C515.043 393.297 515.789 393.722 516.562 393.722C517.118 393.722 517.604 393.514 517.899 393.045H517.925V393.618ZM517.865 391.986C517.865 392.568 517.526 392.941 516.814 392.941C516.475 392.941 516.085 392.776 516.085 392.394C516.085 391.795 517.075 391.751 517.648 391.751H517.865V391.986Z" fill="#333333"/>
<path d="M519.984 393.618H521.026V391.387C521.026 391.161 521.165 390.336 522.146 390.336C522.311 390.336 522.476 390.371 522.65 390.414V389.407C522.528 389.372 522.407 389.346 522.277 389.346C521.73 389.346 521.269 389.633 521.044 390.11H521.026V389.45H519.984V393.618Z" fill="#333333"/>
<path d="M526.506 393.618H527.496V387.054H526.454V389.98H526.428C526.211 389.711 525.794 389.346 525.013 389.346C523.823 389.346 522.998 390.301 522.998 391.534C522.998 392.767 523.771 393.722 525.056 393.722C525.638 393.722 526.185 393.497 526.489 392.993H526.506V393.618ZM524.04 391.534C524.04 390.883 524.5 390.284 525.265 390.284C526.029 390.284 526.489 390.883 526.489 391.534C526.489 392.185 526.029 392.785 525.265 392.785C524.5 392.785 524.04 392.185 524.04 391.534Z" fill="#333333"/>
<path d="M528.676 393.01C528.676 393.384 529.006 393.67 529.371 393.67C529.753 393.67 530.065 393.366 530.065 392.993C530.065 392.62 529.744 392.333 529.371 392.333C528.989 392.333 528.676 392.637 528.676 393.01Z" fill="#333333"/>
<path d="M387.332 406.643H388.131L389.659 401.433H389.677L391.196 406.643H391.987L393.793 400.495H393.029L391.604 405.601H391.587L390.085 400.495H389.269L387.758 405.601H387.74L386.342 400.495H385.535L387.332 406.643Z" fill="#333333"/>
<path d="M394.537 403.543C394.859 403.248 395.31 403.1 395.744 403.1C396.378 403.1 396.752 403.404 396.752 403.995V404.116H396.491C395.493 404.116 393.93 404.194 393.93 405.54C393.93 406.33 394.616 406.747 395.441 406.747C396.057 406.747 396.509 406.452 396.778 406.035H396.795C396.795 406.209 396.795 406.461 396.839 406.643H397.49C397.455 406.435 397.429 406.174 397.429 405.94V404.194C397.429 403.048 396.925 402.475 395.727 402.475C395.137 402.475 394.529 402.675 394.112 403.1L394.537 403.543ZM396.752 404.689V404.95C396.734 405.61 396.335 406.174 395.553 406.174C395.041 406.174 394.659 405.983 394.659 405.471C394.659 404.924 395.215 404.689 396.074 404.689H396.752Z" fill="#333333"/>
<path d="M398.667 406.643H399.344V404.663C399.344 403.734 399.726 403.1 400.603 403.1C401.237 403.1 401.532 403.526 401.532 404.203V406.643H402.21V404.134C402.21 403.152 401.732 402.475 400.664 402.475C399.995 402.475 399.492 402.848 399.309 403.248H399.292C399.292 403.022 399.275 402.796 399.275 402.579H398.632C398.632 402.848 398.667 403.17 398.667 403.543V406.643Z" fill="#333333"/>
<path d="M405.715 402.579H404.516V401.424H403.839V402.579H402.953V403.152H403.839V405.384C403.839 406.226 403.995 406.747 404.959 406.747C405.211 406.747 405.515 406.704 405.749 406.6L405.723 405.983C405.541 406.079 405.324 406.122 405.124 406.122C404.525 406.122 404.516 405.705 404.516 405.184V403.152H405.715V402.579Z" fill="#333333"/>
<path d="M411.184 402.579H409.986V401.424H409.308V402.579H408.423V403.152H409.308V405.384C409.308 406.226 409.465 406.747 410.429 406.747C410.68 406.747 410.984 406.704 411.219 406.6L411.193 405.983C411.01 406.079 410.793 406.122 410.594 406.122C409.994 406.122 409.986 405.705 409.986 405.184V403.152H411.184V402.579Z" fill="#333333"/>
<path d="M411.779 404.611C411.779 405.879 412.7 406.747 413.95 406.747C415.201 406.747 416.121 405.879 416.121 404.611C416.121 403.343 415.201 402.475 413.95 402.475C412.7 402.475 411.779 403.343 411.779 404.611ZM412.509 404.611C412.509 403.76 413.073 403.1 413.95 403.1C414.827 403.1 415.392 403.76 415.392 404.611C415.392 405.462 414.827 406.122 413.95 406.122C413.073 406.122 412.509 405.462 412.509 404.611Z" fill="#333333"/>
<path d="M423.016 403.118C422.608 402.675 422.052 402.475 421.453 402.475C420.203 402.475 419.352 403.378 419.352 404.611C419.352 405.861 420.194 406.747 421.453 406.747C422.044 406.747 422.599 406.547 422.99 406.096L422.486 405.618C422.235 405.966 421.896 406.122 421.453 406.122C420.628 406.122 420.081 405.445 420.081 404.611C420.081 403.778 420.541 403.1 421.453 403.1C421.861 403.1 422.191 403.248 422.478 403.595L423.016 403.118Z" fill="#333333"/>
<path d="M423.775 406.643H424.452V404.663C424.452 403.734 424.817 403.152 425.642 403.152C425.764 403.152 425.894 403.17 426.007 403.204L426.05 402.518C425.955 402.484 425.859 402.475 425.772 402.475C425.104 402.475 424.6 402.848 424.418 403.248H424.4C424.4 403.022 424.383 402.796 424.383 402.579H423.74C423.74 402.848 423.775 403.17 423.775 403.543V406.643Z" fill="#333333"/>
<path d="M429.792 405.505C429.471 405.914 429.08 406.122 428.499 406.122C427.761 406.122 427.222 405.523 427.17 404.82H430.452V404.602C430.452 403.257 429.671 402.475 428.525 402.475C427.326 402.475 426.441 403.352 426.441 404.611C426.441 405.792 427.222 406.747 428.499 406.747C429.254 406.747 429.827 406.521 430.305 405.905L429.792 405.505ZM427.17 404.246C427.257 403.56 427.752 403.1 428.499 403.1C429.245 403.1 429.697 403.56 429.723 404.246H427.17Z" fill="#333333"/>
<path d="M431.874 403.543C432.195 403.248 432.646 403.1 433.08 403.1C433.714 403.1 434.088 403.404 434.088 403.995V404.116H433.827C432.829 404.116 431.266 404.194 431.266 405.54C431.266 406.33 431.952 406.747 432.777 406.747C433.393 406.747 433.845 406.452 434.114 406.035H434.131C434.131 406.209 434.131 406.461 434.175 406.643H434.826C434.791 406.435 434.765 406.174 434.765 405.94V404.194C434.765 403.048 434.261 402.475 433.063 402.475C432.473 402.475 431.865 402.675 431.448 403.1L431.874 403.543ZM434.088 404.689V404.95C434.07 405.61 433.671 406.174 432.889 406.174C432.377 406.174 431.995 405.983 431.995 405.471C431.995 404.924 432.551 404.689 433.41 404.689H434.088Z" fill="#333333"/>
<path d="M438.226 402.579H437.027V401.424H436.35V402.579H435.464V403.152H436.35V405.384C436.35 406.226 436.506 406.747 437.47 406.747C437.722 406.747 438.026 406.704 438.26 406.6L438.234 405.983C438.052 406.079 437.835 406.122 437.635 406.122C437.036 406.122 437.027 405.705 437.027 405.184V403.152H438.226V402.579Z" fill="#333333"/>
<path d="M442.173 405.505C441.852 405.914 441.461 406.122 440.879 406.122C440.141 406.122 439.603 405.523 439.55 404.82H442.833V404.602C442.833 403.257 442.051 402.475 440.905 402.475C439.707 402.475 438.821 403.352 438.821 404.611C438.821 405.792 439.603 406.747 440.879 406.747C441.634 406.747 442.208 406.521 442.685 405.905L442.173 405.505ZM439.55 404.246C439.637 403.56 440.132 403.1 440.879 403.1C441.626 403.1 442.077 403.56 442.103 404.246H439.55Z" fill="#333333"/>
<path d="M446.671 403.543C446.992 403.248 447.443 403.1 447.878 403.1C448.511 403.1 448.885 403.404 448.885 403.995V404.116H448.624C447.626 404.116 446.063 404.194 446.063 405.54C446.063 406.33 446.749 406.747 447.574 406.747C448.19 406.747 448.642 406.452 448.911 406.035H448.928C448.928 406.209 448.928 406.461 448.972 406.643H449.623C449.588 406.435 449.562 406.174 449.562 405.94V404.194C449.562 403.048 449.058 402.475 447.86 402.475C447.27 402.475 446.662 402.675 446.245 403.1L446.671 403.543ZM448.885 404.689V404.95C448.867 405.61 448.468 406.174 447.686 406.174C447.174 406.174 446.792 405.983 446.792 405.471C446.792 404.924 447.348 404.689 448.207 404.689H448.885Z" fill="#333333"/>
<path d="M453.217 406.643H453.894V404.663C453.894 403.734 454.276 403.1 455.153 403.1C455.787 403.1 456.082 403.526 456.082 404.203V406.643H456.759V404.134C456.759 403.152 456.282 402.475 455.214 402.475C454.545 402.475 454.041 402.848 453.859 403.248H453.842C453.842 403.022 453.824 402.796 453.824 402.579H453.182C453.182 402.848 453.217 403.17 453.217 403.543V406.643Z" fill="#333333"/>
<path d="M461.159 405.505C460.838 405.914 460.447 406.122 459.865 406.122C459.127 406.122 458.589 405.523 458.536 404.82H461.819V404.602C461.819 403.257 461.037 402.475 459.891 402.475C458.693 402.475 457.807 403.352 457.807 404.611C457.807 405.792 458.589 406.747 459.865 406.747C460.62 406.747 461.194 406.521 461.671 405.905L461.159 405.505ZM458.536 404.246C458.623 403.56 459.118 403.1 459.865 403.1C460.612 403.1 461.063 403.56 461.089 404.246H458.536Z" fill="#333333"/>
<path d="M468.537 402.579H467.807L466.887 405.705H466.869L465.801 402.579H465.089L464.039 405.705H464.021L463.092 402.579H462.345L463.665 406.643H464.36L465.385 403.517H465.402L466.557 406.643H467.225L468.537 402.579Z" fill="#333333"/>
<path d="M475.097 406.643H475.774V400.078H475.097V403.17H475.08C474.706 402.736 474.211 402.475 473.621 402.475C472.344 402.475 471.485 403.378 471.485 404.611C471.485 405.827 472.379 406.747 473.517 406.747C474.246 406.747 474.828 406.382 475.08 405.922H475.097V406.643ZM475.097 404.611C475.097 405.462 474.533 406.122 473.656 406.122C472.779 406.122 472.214 405.462 472.214 404.611C472.214 403.76 472.779 403.1 473.656 403.1C474.533 403.1 475.097 403.76 475.097 404.611Z" fill="#333333"/>
<path d="M477.401 403.543C477.722 403.248 478.174 403.1 478.608 403.1C479.242 403.1 479.615 403.404 479.615 403.995V404.116H479.355C478.356 404.116 476.793 404.194 476.793 405.54C476.793 406.33 477.479 406.747 478.304 406.747C478.92 406.747 479.372 406.452 479.641 406.035H479.659C479.659 406.209 479.659 406.461 479.702 406.643H480.353C480.318 406.435 480.292 406.174 480.292 405.94V404.194C480.292 403.048 479.789 402.475 478.59 402.475C478 402.475 477.392 402.675 476.975 403.1L477.401 403.543ZM479.615 404.689V404.95C479.598 405.61 479.198 406.174 478.417 406.174C477.905 406.174 477.522 405.983 477.522 405.471C477.522 404.924 478.078 404.689 478.938 404.689H479.615Z" fill="#333333"/>
<path d="M481.079 405.992C481.478 406.565 481.973 406.747 482.659 406.747C483.467 406.747 484.283 406.391 484.283 405.471C484.283 404.655 483.675 404.394 482.954 404.255C482.416 404.151 481.93 404.003 481.93 403.665C481.93 403.283 482.355 403.1 482.729 403.1C483.128 403.1 483.414 403.3 483.588 403.587L484.153 403.213C483.875 402.692 483.345 402.475 482.772 402.475C482.016 402.475 481.252 402.883 481.252 403.673C481.252 404.516 481.912 404.681 482.685 404.854C483.119 404.95 483.553 405.063 483.553 405.497C483.553 405.94 483.085 406.122 482.659 406.122C482.181 406.122 481.886 405.905 481.617 405.575L481.079 405.992Z" fill="#333333"/>
<path d="M485.227 406.643H485.905V404.663C485.905 403.734 486.287 403.1 487.164 403.1C487.798 403.1 488.093 403.526 488.093 404.203V406.643H488.77V404.134C488.77 403.152 488.293 402.475 487.224 402.475C486.591 402.475 486.104 402.822 485.922 403.144H485.905V400.078H485.227V406.643Z" fill="#333333"/>
<path d="M490.018 406.643H490.695V405.922H490.712C490.964 406.382 491.546 406.747 492.275 406.747C493.413 406.747 494.307 405.827 494.307 404.611C494.307 403.378 493.447 402.475 492.171 402.475C491.581 402.475 491.086 402.736 490.712 403.17H490.695V400.078H490.018V406.643ZM490.695 404.611C490.695 403.76 491.259 403.1 492.136 403.1C493.013 403.1 493.578 403.76 493.578 404.611C493.578 405.462 493.013 406.122 492.136 406.122C491.259 406.122 490.695 405.462 490.695 404.611Z" fill="#333333"/>
<path d="M495.126 404.611C495.126 405.879 496.047 406.747 497.297 406.747C498.547 406.747 499.468 405.879 499.468 404.611C499.468 403.343 498.547 402.475 497.297 402.475C496.047 402.475 495.126 403.343 495.126 404.611ZM495.856 404.611C495.856 403.76 496.42 403.1 497.297 403.1C498.174 403.1 498.738 403.76 498.738 404.611C498.738 405.462 498.174 406.122 497.297 406.122C496.42 406.122 495.856 405.462 495.856 404.611Z" fill="#333333"/>
<path d="M500.89 403.543C501.211 403.248 501.662 403.1 502.097 403.1C502.73 403.1 503.104 403.404 503.104 403.995V404.116H502.843C501.845 404.116 500.282 404.194 500.282 405.54C500.282 406.33 500.968 406.747 501.793 406.747C502.409 406.747 502.861 406.452 503.13 406.035H503.147C503.147 406.209 503.147 406.461 503.191 406.643H503.842C503.807 406.435 503.781 406.174 503.781 405.94V404.194C503.781 403.048 503.277 402.475 502.079 402.475C501.489 402.475 500.881 402.675 500.464 403.1L500.89 403.543ZM503.104 404.689V404.95C503.086 405.61 502.687 406.174 501.906 406.174C501.393 406.174 501.011 405.983 501.011 405.471C501.011 404.924 501.567 404.689 502.427 404.689H503.104Z" fill="#333333"/>
<path d="M505.019 406.643H505.696V404.663C505.696 403.734 506.061 403.152 506.886 403.152C507.007 403.152 507.138 403.17 507.251 403.204L507.294 402.518C507.198 402.484 507.103 402.475 507.016 402.475C506.347 402.475 505.844 402.848 505.661 403.248H505.644C505.644 403.022 505.627 402.796 505.627 402.579H504.984C504.984 402.848 505.019 403.17 505.019 403.543V406.643Z" fill="#333333"/>
<path d="M511.297 406.643H511.974V400.078H511.297V403.17H511.279C510.906 402.736 510.411 402.475 509.821 402.475C508.544 402.475 507.685 403.378 507.685 404.611C507.685 405.827 508.579 406.747 509.716 406.747C510.446 406.747 511.028 406.382 511.279 405.922H511.297V406.643ZM511.297 404.611C511.297 405.462 510.732 406.122 509.855 406.122C508.978 406.122 508.414 405.462 508.414 404.611C508.414 403.76 508.978 403.1 509.855 403.1C510.732 403.1 511.297 403.76 511.297 404.611Z" fill="#333333"/>
<path d="M514.226 404.924H514.955V404.524C514.955 404.029 515.007 403.908 515.372 403.56C515.893 403.074 516.362 402.649 516.362 401.885C516.362 400.886 515.615 400.339 514.669 400.339C513.722 400.339 512.975 400.877 512.819 401.824L513.601 401.911C513.687 401.346 514.078 400.964 514.66 400.964C515.233 400.964 515.58 401.355 515.58 401.911C515.58 402.458 515.181 402.788 514.825 403.152C514.373 403.604 514.226 403.734 514.226 404.377V404.924ZM514.591 405.653C514.304 405.653 514.07 405.888 514.07 406.174C514.07 406.461 514.321 406.695 514.591 406.695C514.86 406.695 515.111 406.461 515.111 406.174C515.111 405.888 514.877 405.653 514.591 405.653Z" fill="#333333"/>
<rect x="391.5" y="420.809" width="123" height="23" rx="3.5" fill="#6C3078"/>
<path d="M417.63 429.169C416.93 428.359 416.11 428.049 415.15 428.049C412.97 428.049 411.41 429.529 411.41 431.799C411.41 434.009 412.97 435.489 415.15 435.489C416.19 435.489 417.15 435.109 417.79 434.229L416.75 433.489C416.28 434.089 415.73 434.349 415.16 434.349C413.7 434.349 412.73 433.229 412.73 431.719C412.73 430.309 413.7 429.189 415.16 429.189C415.65 429.189 416.13 429.339 416.65 429.889L417.63 429.169ZM418.526 435.309H419.726V432.739C419.726 432.479 419.886 431.529 421.016 431.529C421.206 431.529 421.396 431.569 421.596 431.619V430.459C421.456 430.419 421.316 430.389 421.166 430.389C420.536 430.389 420.006 430.719 419.746 431.269H419.726V430.509H418.526V435.309ZM426.857 433.329V432.999C426.857 431.329 425.947 430.389 424.607 430.389C423.157 430.389 421.997 431.399 421.997 432.909C421.997 434.419 423.157 435.429 424.607 435.429C425.367 435.429 426.077 435.159 426.637 434.469L425.777 433.819C425.477 434.189 425.087 434.469 424.487 434.469C423.817 434.469 423.277 434.039 423.197 433.329H426.857ZM423.197 432.429C423.287 431.739 423.727 431.289 424.437 431.289C425.187 431.289 425.647 431.729 425.657 432.429H423.197ZM430.979 435.309H432.059V432.549C432.059 431.869 432.059 430.389 430.009 430.389C429.249 430.389 428.499 430.619 427.969 431.159L428.599 431.789C428.919 431.489 429.379 431.289 429.879 431.289C430.519 431.289 430.979 431.599 430.979 432.189V432.319H430.679C429.479 432.319 427.659 432.429 427.659 433.989C427.659 434.939 428.519 435.429 429.409 435.429C430.049 435.429 430.609 435.189 430.949 434.649H430.979V435.309ZM430.909 433.429C430.909 434.099 430.519 434.529 429.699 434.529C429.309 434.529 428.859 434.339 428.859 433.899C428.859 433.209 429.999 433.159 430.659 433.159H430.909V433.429ZM433.78 431.529V433.729C433.78 434.859 434.08 435.429 435.35 435.429C435.63 435.429 436.05 435.389 436.3 435.269V434.259C436.15 434.369 435.86 434.409 435.65 434.409C435.12 434.409 434.98 434.109 434.98 433.629V431.529H436.3V430.509H434.98V429.119H433.78V430.509H432.79V431.529H433.78ZM441.857 433.329V432.999C441.857 431.329 440.947 430.389 439.607 430.389C438.157 430.389 436.997 431.399 436.997 432.909C436.997 434.419 438.157 435.429 439.607 435.429C440.367 435.429 441.077 435.159 441.637 434.469L440.777 433.819C440.477 434.189 440.087 434.469 439.487 434.469C438.817 434.469 438.277 434.039 438.197 433.329H441.857ZM438.197 432.429C438.287 431.739 438.727 431.289 439.437 431.289C440.187 431.289 440.647 431.729 440.657 432.429H438.197ZM449.738 435.309H450.878V427.749H449.678V431.119H449.648C449.398 430.809 448.918 430.389 448.018 430.389C446.648 430.389 445.698 431.489 445.698 432.909C445.698 434.329 446.588 435.429 448.068 435.429C448.738 435.429 449.368 435.169 449.718 434.589H449.738V435.309ZM446.898 432.909C446.898 432.159 447.428 431.469 448.308 431.469C449.188 431.469 449.718 432.159 449.718 432.909C449.718 433.659 449.188 434.349 448.308 434.349C447.428 434.349 446.898 433.659 446.898 432.909ZM455.237 435.309H456.317V432.549C456.317 431.869 456.317 430.389 454.267 430.389C453.507 430.389 452.757 430.619 452.227 431.159L452.857 431.789C453.177 431.489 453.637 431.289 454.137 431.289C454.777 431.289 455.237 431.599 455.237 432.189V432.319H454.937C453.737 432.319 451.917 432.429 451.917 433.989C451.917 434.939 452.777 435.429 453.667 435.429C454.307 435.429 454.867 435.189 455.207 434.649H455.237V435.309ZM455.167 433.429C455.167 434.099 454.777 434.529 453.957 434.529C453.567 434.529 453.117 434.339 453.117 433.899C453.117 433.209 454.257 433.159 454.917 433.159H455.167V433.429ZM460.968 431.119C460.578 430.589 459.898 430.389 459.258 430.389C458.288 430.389 457.328 430.869 457.328 431.939C457.328 433.769 459.918 432.989 459.918 433.979C459.918 434.359 459.468 434.529 459.118 434.529C458.608 434.529 458.288 434.279 457.978 433.939L457.178 434.689C457.668 435.239 458.308 435.429 459.048 435.429C460.028 435.429 461.118 435.029 461.118 433.889C461.118 432.019 458.528 432.719 458.528 431.859C458.528 431.499 458.908 431.349 459.228 431.349C459.638 431.349 459.938 431.519 460.168 431.839L460.968 431.119ZM463.251 427.749H462.051V435.309H463.251V432.689C463.251 432.049 463.561 431.469 464.351 431.469C465.191 431.469 465.231 432.349 465.231 432.879V435.309H466.431V432.279C466.431 431.299 465.971 430.389 464.681 430.389C463.941 430.389 463.461 430.779 463.271 431.179H463.251V427.749ZM467.793 435.309H468.933V434.589H468.953C469.303 435.169 469.933 435.429 470.603 435.429C472.083 435.429 472.973 434.329 472.973 432.909C472.973 431.489 472.023 430.389 470.653 430.389C469.753 430.389 469.273 430.809 469.023 431.119H468.993V427.749H467.793V435.309ZM471.773 432.909C471.773 433.659 471.243 434.349 470.363 434.349C469.483 434.349 468.953 433.659 468.953 432.909C468.953 432.159 469.483 431.469 470.363 431.469C471.243 431.469 471.773 432.159 471.773 432.909ZM473.852 432.909C473.852 434.419 475.012 435.429 476.462 435.429C477.912 435.429 479.072 434.419 479.072 432.909C479.072 431.399 477.912 430.389 476.462 430.389C475.012 430.389 473.852 431.399 473.852 432.909ZM475.052 432.909C475.052 432.159 475.582 431.469 476.462 431.469C477.342 431.469 477.872 432.159 477.872 432.909C477.872 433.659 477.342 434.349 476.462 434.349C475.582 434.349 475.052 433.659 475.052 432.909ZM483.196 435.309H484.276V432.549C484.276 431.869 484.276 430.389 482.226 430.389C481.466 430.389 480.716 430.619 480.186 431.159L480.816 431.789C481.136 431.489 481.596 431.289 482.096 431.289C482.736 431.289 483.196 431.599 483.196 432.189V432.319H482.896C481.696 432.319 479.876 432.429 479.876 433.989C479.876 434.939 480.736 435.429 481.626 435.429C482.266 435.429 482.826 435.189 483.166 434.649H483.196V435.309ZM483.126 433.429C483.126 434.099 482.736 434.529 481.916 434.529C481.526 434.529 481.076 434.339 481.076 433.899C481.076 433.209 482.216 433.159 482.876 433.159H483.126V433.429ZM485.567 435.309H486.767V432.739C486.767 432.479 486.927 431.529 488.057 431.529C488.247 431.529 488.437 431.569 488.637 431.619V430.459C488.497 430.419 488.357 430.389 488.207 430.389C487.577 430.389 487.047 430.719 486.787 431.269H486.767V430.509H485.567V435.309ZM493.078 435.309H494.218V427.749H493.018V431.119H492.988C492.738 430.809 492.258 430.389 491.358 430.389C489.988 430.389 489.038 431.489 489.038 432.909C489.038 434.329 489.928 435.429 491.408 435.429C492.078 435.429 492.708 435.169 493.058 434.589H493.078V435.309ZM490.238 432.909C490.238 432.159 490.768 431.469 491.648 431.469C492.528 431.469 493.058 432.159 493.058 432.909C493.058 433.659 492.528 434.349 491.648 434.349C490.768 434.349 490.238 433.659 490.238 432.909Z" fill="white"/>
<rect x="391.5" y="420.809" width="123" height="23" rx="3.5" stroke="#6C3078"/>
<defs>
<filter id="filter0_d_539_46671" x="0" y="0" width="903" height="549" filterUnits="userSpaceOnUse" color-interpolation-filters="sRGB">
<feFlood flood-opacity="0" result="BackgroundImageFix"/>
<feColorMatrix in="SourceAlpha" type="matrix" values="0 0 0 0 0 0 0 0 0 0 0 0 0 0 0 0 0 0 127 0" result="hardAlpha"/>
<feOffset/>
<feGaussianBlur stdDeviation="5"/>
<feColorMatrix type="matrix" values="0 0 0 0 0 0 0 0 0 0 0 0 0 0 0 0 0 0 0.5 0"/>
<feBlend mode="normal" in2="BackgroundImageFix" result="effect1_dropShadow_539_46671"/>
<feBlend mode="normal" in="SourceGraphic" in2="effect1_dropShadow_539_46671" result="shape"/>
</filter>
<clipPath id="clip0_539_46671">
<rect width="883" height="529" fill="white" transform="translate(10 10)"/>
</clipPath>
<clipPath id="clip1_539_46671">
<rect width="883" height="47" fill="white" transform="translate(10 10)"/>
</clipPath>
<clipPath id="clip2_539_46671">
<rect width="883" height="47" fill="white" transform="translate(10 10)"/>
</clipPath>
<clipPath id="clip3_539_46671">
<rect width="61" height="15" fill="white" transform="translate(20 25)"/>
</clipPath>
<clipPath id="clip4_539_46671">
<rect width="113" height="52" fill="white" transform="translate(50.5 88.6396)"/>
</clipPath>
<clipPath id="clip5_539_46671">
<rect width="30" height="39" fill="white" transform="translate(179.5 101.64)"/>
</clipPath>
<clipPath id="clip6_539_46671">
<rect x="370.902" y="293.548" width="156.297" height="44.5013" rx="10" fill="white"/>
</clipPath>
</defs>
</svg>
