<svg width="900" height="475" viewBox="0 0 900 475" fill="none" xmlns="http://www.w3.org/2000/svg">
<rect opacity="0.6" x="279.092" y="14.6016" width="387" height="256" rx="50" fill="#3379BF"/>
<path fill-rule="evenodd" clip-rule="evenodd" d="M352.008 8C360.725 8 368.359 13.6768 371.451 21.8268C377.002 36.4541 384.452 51.8471 393.159 61C407.648 76.2323 422.137 76.2817 435.396 76.3269C439.981 76.3425 444.419 76.3576 448.659 77C465.159 79.5 487.159 84.5 498.659 108C509.906 130.983 530.24 151.097 555.918 158.986C557.072 159.341 558.259 159.563 559.464 159.632C570.134 160.244 601.13 159.813 616.159 159.5C639.917 159.5 668.153 176.667 682.168 217.126C682.846 219.082 683.159 221.153 683.159 223.223V262C683.159 273.046 674.204 282 663.159 282H259.159C248.113 282 239.159 273.046 239.159 262V28C239.159 16.9543 248.113 8 259.159 8H352.008Z" fill="#8CDACD"/>
<path d="M359.947 75.514L357.197 72.874L354.437 75.514L351.687 72.874L348.927 75.514L346.167 72.874L343.407 75.514" stroke="#309181" stroke-width="0.5" stroke-miterlimit="10" stroke-linecap="round"/>
<path d="M456.104 119.164L453.354 116.524L450.594 119.164L447.844 116.524L445.084 119.164L442.324 116.524L439.564 119.164" stroke="#309181" stroke-width="0.5" stroke-miterlimit="10" stroke-linecap="round"/>
<path d="M292.958 125.161L290.208 122.521L287.448 125.161L284.698 122.521L281.938 125.161L279.178 122.521L276.418 125.161" stroke="#309181" stroke-width="0.5" stroke-miterlimit="10" stroke-linecap="round"/>
<path d="M396.836 205.609L394.086 202.969L391.326 205.609L388.576 202.969L385.816 205.609L383.056 202.969L380.296 205.609" stroke="#309181" stroke-width="0.5" stroke-miterlimit="10" stroke-linecap="round"/>
<path d="M255.699 31.7982L252.949 29.1582L250.189 31.7982L247.439 29.1582L244.679 31.7982L241.919 29.1582L239.159 31.7982" stroke="#309181" stroke-width="0.5" stroke-miterlimit="10" stroke-linecap="round"/>
<path d="M344.228 243.854L341.478 241.214L338.717 243.854L335.967 241.214L333.207 243.854L330.448 241.214L327.688 243.854" stroke="#309181" stroke-width="0.5" stroke-miterlimit="10" stroke-linecap="round"/>
<path opacity="0.9" d="M619.893 71.4906C618.552 71.4906 617.335 70.9613 616.43 70.107C615.297 72.707 610.673 74.6524 605.138 74.6524C604.767 74.6524 604.4 74.6431 604.038 74.6245C604.033 74.6292 604.033 74.6245 604.033 74.6245C602.877 74.5735 601.768 74.4295 600.732 74.2159C598.466 73.747 596.558 72.9252 595.286 71.8899C594.135 72.772 592.691 73.2967 591.131 73.2967C589.287 73.2967 587.616 72.5724 586.386 71.3884C584.793 69.8563 584.111 67.6091 584.426 65.4176C584.524 64.7259 584.691 63.9273 584.965 63.4723C586.07 61.1833 588.415 59.6047 591.131 59.6047C592.918 59.6047 594.552 60.2965 595.769 61.4201C597.18 58.7876 599.242 57.0604 601.545 56.1643C601.744 56.0854 601.944 56.0158 602.148 55.9508C607.46 54.2422 613.816 56.8051 616.323 62.9012C617.321 61.8983 618.742 61.3087 620.297 61.4294C622.772 61.6198 624.768 63.6487 624.922 66.1234C625.107 69.053 622.786 71.4906 619.893 71.4906Z" fill="white"/>
<path opacity="0.8" d="M619.894 71.4906C618.552 71.4906 617.335 70.9613 616.43 70.107C615.297 72.707 610.673 74.6524 605.139 74.6524C604.767 74.6524 604.4 74.6431 604.038 74.6245C605.719 73.5799 607.525 72.7209 609.113 71.5416C611.23 69.963 613.018 67.493 612.641 64.8791C612.423 63.3701 611.513 62.0515 610.487 60.9233C608.704 58.964 606.448 57.3901 603.913 56.624C603.142 56.3918 602.348 56.234 601.545 56.1643C601.745 56.0854 601.944 56.0158 602.148 55.9508C607.46 54.2422 613.816 56.8051 616.323 62.9012C617.322 61.8983 618.742 61.3087 620.298 61.4294C622.772 61.6198 624.769 63.6487 624.922 66.1234C625.108 69.053 622.786 71.4906 619.894 71.4906Z" fill="#E6E6E6"/>
<path opacity="0.9" d="M679.235 80.7382C678.283 80.7382 677.421 80.3629 676.779 79.7572C675.976 81.6006 672.697 82.9799 668.773 82.9799C668.51 82.9799 668.25 82.9733 667.993 82.9602C667.99 82.9635 667.99 82.9602 667.99 82.9602C667.17 82.924 666.383 82.8219 665.649 82.6705C664.043 82.338 662.69 81.7554 661.788 81.0213C660.971 81.6467 659.948 82.0187 658.841 82.0187C657.535 82.0187 656.35 81.5052 655.477 80.6657C654.348 79.5794 653.864 77.9862 654.088 76.4324C654.157 75.9419 654.276 75.3757 654.47 75.0531C655.253 73.4302 656.916 72.311 658.841 72.311C660.109 72.311 661.268 72.8015 662.13 73.5981C663.131 71.7316 664.592 70.507 666.225 69.8717C666.367 69.8157 666.508 69.7663 666.653 69.7203C670.419 68.5089 674.926 70.326 676.703 74.6482C677.411 73.9372 678.418 73.5191 679.521 73.6047C681.276 73.7396 682.691 75.1782 682.8 76.9328C682.931 79.0099 681.285 80.7382 679.235 80.7382Z" fill="white"/>
<path opacity="0.8" d="M679.235 80.7382C678.283 80.7382 677.421 80.3629 676.779 79.7572C675.976 81.6006 672.697 82.9799 668.773 82.9799C668.51 82.9799 668.25 82.9733 667.993 82.9602C669.184 82.2195 670.465 81.6105 671.591 80.7744C673.092 79.6551 674.359 77.9039 674.093 76.0505C673.938 74.9807 673.293 74.0458 672.565 73.2459C671.301 71.8567 669.701 70.7407 667.904 70.1976C667.357 70.033 666.795 69.9211 666.225 69.8717C666.367 69.8157 666.508 69.7663 666.653 69.7203C670.419 68.5089 674.926 70.326 676.703 74.6482C677.411 73.9372 678.418 73.5191 679.521 73.6047C681.276 73.7396 682.691 75.1782 682.8 76.9328C682.931 79.0099 681.285 80.7382 679.235 80.7382Z" fill="#E6E6E6"/>
<path opacity="0.9" d="M669.824 57.678C667.845 57.678 666.051 56.8975 664.716 55.6378C663.046 59.4717 656.227 62.3403 648.066 62.3403C647.518 62.3403 646.977 62.3266 646.443 62.2993C646.437 62.3061 646.437 62.2993 646.437 62.2993C644.732 62.2239 643.096 62.0117 641.569 61.6968C638.228 61.0053 635.414 59.7935 633.538 58.2668C631.84 59.5676 629.711 60.3412 627.411 60.3412C624.693 60.3412 622.228 59.2732 620.414 57.5274C618.065 55.2681 617.059 51.9544 617.525 48.723C617.668 47.7029 617.915 46.5253 618.319 45.8544C619.948 42.4791 623.406 40.1514 627.411 40.1514C630.046 40.1514 632.456 41.1715 634.25 42.8283C636.331 38.9464 639.371 36.3996 642.767 35.0782C643.061 34.9619 643.356 34.8592 643.657 34.7633C651.489 32.2439 660.862 36.023 664.559 45.0123C666.031 43.5335 668.126 42.664 670.419 42.842C674.068 43.1227 677.012 46.1145 677.238 49.7636C677.512 54.0837 674.089 57.678 669.824 57.678Z" fill="white"/>
<path opacity="0.8" d="M669.823 57.678C667.845 57.678 666.051 56.8975 664.716 55.6378C663.045 59.4717 656.226 62.3403 648.066 62.3403C647.518 62.3403 646.977 62.3266 646.443 62.2993C648.921 60.7588 651.585 59.4923 653.926 57.7533C657.048 55.4255 659.684 51.7833 659.129 47.9288C658.808 45.7038 657.466 43.7594 655.953 42.0957C653.324 39.2066 649.996 36.8857 646.258 35.756C645.122 35.4137 643.951 35.1809 642.767 35.0782C643.061 34.9619 643.355 34.8592 643.657 34.7633C651.489 32.2439 660.861 36.023 664.558 45.0123C666.03 43.5335 668.125 42.664 670.419 42.842C674.068 43.1227 677.012 46.1145 677.238 49.7636C677.512 54.0837 674.089 57.678 669.823 57.678Z" fill="#E6E6E6"/>
<path opacity="0.9" d="M565.658 40.9515C564.056 40.9515 562.605 40.3197 561.524 39.3001C560.172 42.4033 554.653 44.7251 548.047 44.7251C547.604 44.7251 547.166 44.714 546.734 44.6919C546.729 44.6974 546.729 44.6919 546.729 44.6919C545.349 44.6309 544.024 44.4591 542.789 44.2042C540.085 43.6445 537.807 42.6637 536.289 41.428C534.915 42.4809 533.191 43.107 531.329 43.107C529.129 43.107 527.134 42.2426 525.666 40.8295C523.765 39.0009 522.951 36.3189 523.328 33.7034C523.444 32.8777 523.643 31.9246 523.97 31.3816C525.289 28.6497 528.088 26.7657 531.329 26.7657C533.463 26.7657 535.413 27.5913 536.865 28.9323C538.55 25.7904 541.01 23.729 543.758 22.6595C543.997 22.5653 544.235 22.4822 544.479 22.4046C550.818 20.3654 558.404 23.4242 561.397 30.7C562.588 29.5031 564.284 28.7993 566.14 28.9434C569.093 29.1706 571.476 31.5922 571.659 34.5457C571.881 38.0423 569.11 40.9515 565.658 40.9515Z" fill="white"/>
<path opacity="0.8" d="M565.657 40.9515C564.056 40.9515 562.604 40.3197 561.523 39.3001C560.171 42.4033 554.652 44.7251 548.047 44.7251C547.603 44.7251 547.166 44.714 546.734 44.6919C548.739 43.4451 550.895 42.4199 552.79 41.0124C555.317 39.1284 557.45 36.1804 557.002 33.0606C556.741 31.2597 555.655 29.6859 554.43 28.3394C552.303 26.001 549.609 24.1225 546.584 23.2081C545.664 22.9311 544.716 22.7427 543.758 22.6595C543.996 22.5653 544.234 22.4822 544.478 22.4046C550.817 20.3654 558.404 23.4242 561.396 30.7C562.587 29.5031 564.283 28.7993 566.139 28.9434C569.093 29.1706 571.476 31.5922 571.658 34.5457C571.88 38.0423 569.109 40.9515 565.657 40.9515Z" fill="#E6E6E6"/>
<path d="M325.282 284.666C325.282 285.253 324.557 285.729 323.674 285.729C323.536 285.729 323.405 285.715 323.28 285.694C322.832 285.618 322.376 285.639 321.921 285.708C321.838 285.722 321.748 285.729 321.666 285.729C321.569 285.729 321.479 285.722 321.39 285.708C320.182 285.522 318.967 285.48 317.759 285.66C317.463 285.701 317.152 285.729 316.828 285.729C316.138 285.729 315.475 285.611 314.875 285.411C314.578 285.611 314.226 285.729 313.84 285.729C313.598 285.729 313.37 285.68 313.156 285.598C311.859 285.073 310.423 285.073 309.057 285.404C308.194 285.611 307.29 285.729 306.352 285.729C305.33 285.729 304.35 285.591 303.426 285.349C302.846 285.591 302.211 285.729 301.542 285.729C300.927 285.729 300.341 285.611 299.796 285.404C299.112 285.135 298.367 285.08 297.649 285.225C296.787 285.404 295.89 285.494 294.965 285.494C294.047 285.494 293.157 285.404 292.294 285.225C291.645 285.094 290.969 285.121 290.348 285.342C290.155 285.404 289.948 285.446 289.734 285.446C289.644 285.446 289.561 285.439 289.478 285.425C288.933 285.349 288.388 285.322 287.85 285.446C287.104 285.625 286.318 285.729 285.517 285.729C285.414 285.729 285.317 285.729 285.213 285.722C283.737 285.68 282.349 285.322 281.1 284.707C279.437 283.893 277.525 283.783 275.848 284.556C274.206 285.301 272.363 285.729 270.403 285.729C268.851 285.729 267.36 285.46 265.994 284.977C264.475 284.431 262.812 284.397 261.328 285.032C260.3 285.48 259.154 285.729 257.947 285.729C253.502 285.729 249.9 282.402 249.9 278.296C249.9 274.197 253.502 270.87 257.947 270.87C258.168 270.87 258.381 270.884 258.602 270.898C259.713 267.599 262.398 264.942 265.842 263.673C266.566 263.41 267.056 262.72 267.036 261.954C267.036 261.837 267.043 261.713 267.063 261.588C267.194 260.864 267.774 260.263 268.499 260.111C268.499 260.111 268.506 260.111 268.512 260.105C269.037 260.001 269.465 259.628 269.713 259.152C271.625 255.536 275.082 252.858 279.216 252.016C280.12 251.83 281.052 251.733 282.011 251.733C287.601 251.733 292.418 255.046 294.62 259.808C294.951 260.526 295.62 261.016 296.407 261.098C300.713 261.554 304.385 264.018 306.338 267.482C306.683 268.089 307.283 268.49 307.967 268.586C312.708 269.249 316.331 272.803 316.331 277.095C316.331 277.537 316.276 277.965 316.207 278.386C316.407 278.365 316.621 278.351 316.828 278.351C319.499 278.351 321.666 280.008 321.666 282.044C322.59 282.044 323.349 282.727 323.481 283.61C323.543 283.61 323.605 283.603 323.674 283.603C324.557 283.603 325.282 284.079 325.282 284.666Z" fill="#40C1AC"/>
<path d="M276.587 264.389C274.772 263.416 272.66 262.857 270.404 262.857C268.14 262.857 266.014 263.423 264.186 264.41" stroke="#309181" stroke-width="0.5" stroke-miterlimit="10" stroke-linecap="round"/>
<path d="M264.441 273.928C262.978 272.078 260.611 270.871 257.94 270.871" stroke="#309181" stroke-width="0.5" stroke-miterlimit="10" stroke-linecap="round"/>
<path d="M314.951 278.642C313.219 279.201 311.997 280.512 311.997 282.037C311.997 282.444 312.087 282.838 312.246 283.21" stroke="#309181" stroke-width="0.5" stroke-miterlimit="10" stroke-linecap="round"/>
<path d="M291.576 283.603C291.576 282.582 290.748 281.76 289.734 281.76C288.719 281.76 287.891 282.588 287.891 283.603" stroke="#309181" stroke-width="0.5" stroke-miterlimit="10" stroke-linecap="round"/>
<path d="M306.352 268.462C300.845 268.462 296.373 272.327 296.373 277.095" stroke="#309181" stroke-width="0.5" stroke-miterlimit="10" stroke-linecap="round"/>
<path opacity="0.5" d="M325.282 284.666C325.282 285.253 324.557 285.729 323.674 285.729C323.536 285.729 323.405 285.715 323.281 285.694C322.832 285.618 322.376 285.639 321.921 285.708C321.838 285.722 321.748 285.729 321.666 285.729C321.569 285.729 321.479 285.722 321.39 285.708C320.182 285.522 318.967 285.48 317.76 285.66C317.463 285.701 317.152 285.729 316.828 285.729C316.138 285.729 315.475 285.611 314.875 285.411C314.578 285.611 314.226 285.729 313.84 285.729C313.598 285.729 313.37 285.68 313.156 285.598C311.859 285.073 310.424 285.073 309.057 285.404C308.194 285.611 307.29 285.729 306.352 285.729C305.33 285.729 304.351 285.591 303.426 285.349C302.846 285.591 302.211 285.729 301.542 285.729C300.927 285.729 300.341 285.611 299.796 285.404C299.112 285.135 298.367 285.08 297.649 285.225C296.787 285.404 295.89 285.494 294.965 285.494C294.047 285.494 293.157 285.404 292.294 285.225C291.645 285.094 290.969 285.121 290.348 285.342C290.155 285.404 289.948 285.446 289.734 285.446C289.644 285.446 289.561 285.439 289.478 285.425C288.933 285.349 288.388 285.322 287.85 285.446C287.104 285.625 286.318 285.729 285.517 285.729C285.414 285.729 285.317 285.729 285.213 285.722C287.567 285.218 289.927 284.735 292.287 284.28C294.675 283.817 297.118 283.375 299.52 283.741C301.466 284.031 303.536 284.832 305.317 283.99C305.745 283.79 306.138 283.5 306.586 283.355C307.09 283.189 307.642 283.224 308.174 283.258C310.437 283.396 312.701 283.541 314.971 283.679C315.51 283.714 316.069 283.748 316.566 283.527C317.056 283.313 317.456 282.768 317.311 282.251C317.201 281.823 316.78 281.554 316.386 281.346C315.178 280.732 313.867 280.304 312.528 280.104C312.28 280.063 312.018 280.028 311.811 279.883C311.183 279.428 311.569 278.462 311.604 277.682C311.686 275.826 309.513 274.804 307.705 274.383C305.896 273.969 303.688 273.293 303.357 271.471C303.26 270.96 303.343 270.415 303.157 269.932C302.943 269.352 302.391 268.966 301.859 268.641C299.941 267.468 297.87 266.537 295.717 265.874C293.481 265.191 290.783 264.487 290.037 262.278C289.61 261.016 289.982 259.58 289.513 258.338C288.961 256.868 287.415 256.054 286 255.377C284.385 254.604 282.764 253.824 281.142 253.052C280.493 252.734 279.824 252.417 279.216 252.016C280.12 251.83 281.052 251.733 282.011 251.733C287.601 251.733 292.418 255.046 294.62 259.808C294.951 260.526 295.62 261.016 296.407 261.098C300.714 261.554 304.385 264.018 306.338 267.482C306.683 268.089 307.284 268.49 307.967 268.586C312.708 269.249 316.331 272.803 316.331 277.095C316.331 277.537 316.276 277.965 316.207 278.386C316.407 278.365 316.621 278.351 316.828 278.351C319.499 278.351 321.666 280.008 321.666 282.044C322.59 282.044 323.35 282.727 323.481 283.61C323.543 283.61 323.605 283.603 323.674 283.603C324.557 283.603 325.282 284.079 325.282 284.666Z" fill="#6EB39E"/>
<path d="M304.119 282.343C320.376 282.343 333.556 236.118 333.556 179.097C333.556 122.077 320.376 75.8521 304.119 75.8521C287.861 75.8521 274.681 122.077 274.681 179.097C274.681 236.118 287.861 282.343 304.119 282.343Z" fill="#40C1AC"/>
<path d="M304.119 282.355V242.962V97.3462" stroke="#309181" stroke-width="0.5" stroke-miterlimit="10" stroke-linecap="round"/>
<path d="M321.615 227.334L304.119 242.964" stroke="#309181" stroke-width="0.5" stroke-miterlimit="10" stroke-linecap="round"/>
<path d="M321.615 176.43L304.119 192.059" stroke="#309181" stroke-width="0.5" stroke-miterlimit="10" stroke-linecap="round"/>
<path d="M319.304 124.874L304.119 138.445" stroke="#309181" stroke-width="0.5" stroke-miterlimit="10" stroke-linecap="round"/>
<path d="M286.622 209.705L304.119 225.335" stroke="#309181" stroke-width="0.5" stroke-miterlimit="10" stroke-linecap="round"/>
<path d="M286.622 158.799L304.119 174.429" stroke="#309181" stroke-width="0.5" stroke-miterlimit="10" stroke-linecap="round"/>
<path d="M288.934 107.245L304.119 120.816" stroke="#309181" stroke-width="0.5" stroke-miterlimit="10" stroke-linecap="round"/>
<path opacity="0.5" d="M333.542 179.068C333.542 196.86 332.253 213.616 330.001 228.238C329.675 228.831 329.349 229.409 328.994 229.972C327.942 231.69 326.06 233.542 324.223 232.712C323.542 232.401 323.068 231.779 322.668 231.157C319.068 225.364 320.579 217.868 319.29 211.186C318.638 207.823 317.275 204.623 316.772 201.245C315.246 190.816 322.164 180.519 320.638 170.075C320.105 166.475 318.564 163.053 318.209 159.408C317.66 153.704 320.061 148.089 319.927 142.371C319.735 133.882 314.046 126.4 312.934 117.986C311.794 109.378 315.32 99.615 310.342 92.4891C308.327 89.6298 305.246 87.7483 302.238 85.9557C299.705 84.4445 297.112 82.8742 295.171 80.6964C296.208 79.526 297.275 78.5482 298.371 77.7926C300.223 76.4889 302.149 75.8223 304.105 75.8223C320.357 75.8223 333.542 122.045 333.542 179.068Z" fill="#6FB5A0"/>
<path d="M283.951 167.913C283.951 188.194 282.481 207.293 279.915 223.961C279.729 225.092 279.543 226.224 279.357 227.338C273.531 262.21 262.74 285.615 250.396 285.615C231.854 285.615 216.841 232.911 216.841 167.913C216.841 115.394 226.653 70.8963 240.213 55.7824C241.395 54.4483 242.611 53.3338 243.861 52.4725C245.972 50.9865 248.167 50.2266 250.396 50.2266C268.921 50.2266 283.951 102.914 283.951 167.913Z" fill="#40C1AC"/>
<path opacity="0.5" d="M283.95 167.913C283.95 188.194 282.481 207.293 279.914 223.961C279.543 224.636 279.171 225.295 278.766 225.937C277.567 227.895 275.422 230.006 273.328 229.061C272.552 228.706 272.011 227.997 271.555 227.288C267.452 220.685 269.174 212.14 267.705 204.524C266.962 200.69 265.408 197.043 264.834 193.193C263.095 181.304 270.981 169.567 269.242 157.662C268.634 153.559 266.878 149.658 266.472 145.503C265.847 139.002 268.583 132.602 268.431 126.083C268.212 116.407 261.727 107.879 260.46 98.2872C259.16 88.4758 263.179 77.3472 257.505 69.2245C255.209 65.9653 251.696 63.8206 248.268 61.7773C245.38 60.0548 242.425 58.2648 240.213 55.7824C241.395 54.4483 242.611 53.3338 243.861 52.4725C245.971 50.9865 248.167 50.2266 250.396 50.2266C268.921 50.2266 283.95 102.914 283.95 167.913Z" fill="#6FB5A0"/>
<path d="M250.396 285.614V240.712V74.7285" stroke="#309181" stroke-width="0.5" stroke-miterlimit="10" stroke-linecap="round"/>
<path d="M270.34 222.896L250.396 240.712" stroke="#309181" stroke-width="0.5" stroke-miterlimit="10" stroke-linecap="round"/>
<path d="M270.34 164.874L250.396 182.689" stroke="#309181" stroke-width="0.5" stroke-miterlimit="10" stroke-linecap="round"/>
<path d="M267.705 106.106L250.396 121.575" stroke="#309181" stroke-width="0.5" stroke-miterlimit="10" stroke-linecap="round"/>
<path d="M230.452 202.801L250.396 220.617" stroke="#309181" stroke-width="0.5" stroke-miterlimit="10" stroke-linecap="round"/>
<path d="M230.452 144.778L250.396 162.594" stroke="#309181" stroke-width="0.5" stroke-miterlimit="10" stroke-linecap="round"/>
<path d="M233.087 86.0088L250.396 101.477" stroke="#309181" stroke-width="0.5" stroke-miterlimit="10" stroke-linecap="round"/>
<path d="M271.437 184.839V258.303M271.437 283.528V258.303M271.437 258.303H366.143V184.839V283.528" stroke="#E4EAEE" stroke-width="8"/>
<path d="M265.241 283.758C265.241 282.653 266.137 281.758 267.241 281.758H275.633C276.737 281.758 277.633 282.653 277.633 283.758V287.068H265.241V283.758Z" fill="#E4EAEE"/>
<path d="M359.947 283.758C359.947 282.653 360.842 281.758 361.947 281.758H370.338C371.443 281.758 372.338 282.653 372.338 283.758V287.068H359.947V283.758Z" fill="#E4EAEE"/>
<circle cx="271.437" cy="185.282" r="6.08079" fill="#F6AF22" stroke="#E4EAEE" stroke-width="2"/>
<circle cx="366.143" cy="185.282" r="6.08079" fill="#F6AF22" stroke="#E4EAEE" stroke-width="2"/>
<rect x="249.31" y="228.65" width="138.076" height="19.4722" rx="1" fill="#F6AF22"/>
<rect x="252.85" y="232.191" width="130.995" height="12.3914" fill="#F6F8F9"/>
<path fill-rule="evenodd" clip-rule="evenodd" d="M249.31 245.14L263.339 228.65L266.569 231.633L252.54 248.123L249.31 245.14Z" fill="#F6AF22"/>
<path fill-rule="evenodd" clip-rule="evenodd" d="M266.569 245.14L280.598 228.65L283.828 231.633L269.799 248.123L266.569 245.14Z" fill="#F6AF22"/>
<path fill-rule="evenodd" clip-rule="evenodd" d="M283.829 245.14L297.858 228.65L301.088 231.633L287.059 248.123L283.829 245.14Z" fill="#F6AF22"/>
<path fill-rule="evenodd" clip-rule="evenodd" d="M301.088 245.14L315.117 228.65L318.347 231.633L304.318 248.123L301.088 245.14Z" fill="#F6AF22"/>
<path fill-rule="evenodd" clip-rule="evenodd" d="M318.347 245.14L332.376 228.65L335.607 231.633L321.578 248.123L318.347 245.14Z" fill="#F6AF22"/>
<path fill-rule="evenodd" clip-rule="evenodd" d="M335.607 245.14L349.636 228.65L352.866 231.633L338.837 248.123L335.607 245.14Z" fill="#F6AF22"/>
<path fill-rule="evenodd" clip-rule="evenodd" d="M352.866 245.14L366.895 228.65L370.126 231.633L356.097 248.123L352.866 245.14Z" fill="#F6AF22"/>
<path fill-rule="evenodd" clip-rule="evenodd" d="M370.125 245.14L384.155 228.65L387.385 231.633L373.356 248.123L370.125 245.14Z" fill="#F6AF22"/>
<rect x="249.31" y="196.789" width="138.076" height="19.4722" rx="1" fill="#F6AF22"/>
<rect x="252.85" y="200.329" width="130.995" height="12.3914" fill="#F6F8F9"/>
<path fill-rule="evenodd" clip-rule="evenodd" d="M249.31 213.278L263.339 196.789L266.569 199.772L252.54 216.261L249.31 213.278Z" fill="#F6AF22"/>
<path fill-rule="evenodd" clip-rule="evenodd" d="M266.569 213.278L280.598 196.789L283.828 199.772L269.799 216.261L266.569 213.278Z" fill="#F6AF22"/>
<path fill-rule="evenodd" clip-rule="evenodd" d="M283.829 213.278L297.858 196.789L301.088 199.772L287.059 216.261L283.829 213.278Z" fill="#F6AF22"/>
<path fill-rule="evenodd" clip-rule="evenodd" d="M301.088 213.278L315.117 196.789L318.347 199.772L304.318 216.261L301.088 213.278Z" fill="#F6AF22"/>
<path fill-rule="evenodd" clip-rule="evenodd" d="M318.347 213.278L332.376 196.789L335.607 199.772L321.578 216.261L318.347 213.278Z" fill="#F6AF22"/>
<path fill-rule="evenodd" clip-rule="evenodd" d="M335.607 213.278L349.636 196.789L352.866 199.772L338.837 216.261L335.607 213.278Z" fill="#F6AF22"/>
<path fill-rule="evenodd" clip-rule="evenodd" d="M352.866 213.278L366.895 196.789L370.126 199.772L356.097 216.261L352.866 213.278Z" fill="#F6AF22"/>
<path fill-rule="evenodd" clip-rule="evenodd" d="M370.125 213.278L384.155 196.789L387.385 199.772L373.356 216.261L370.125 213.278Z" fill="#F6AF22"/>
<path fill-rule="evenodd" clip-rule="evenodd" d="M362.533 178.778C355.879 182.91 353.885 192.155 358.458 199.518L365.067 210.161C365.671 211.133 365.372 212.411 364.4 213.015C363.427 213.618 362.15 213.32 361.546 212.347L354.937 201.705C349.288 192.608 351.543 180.724 360.346 175.257C369.15 169.79 380.801 173.038 386.451 182.135L393.059 192.778C393.663 193.75 393.364 195.028 392.392 195.632C391.42 196.235 390.142 195.937 389.538 194.964L382.93 184.322C378.357 176.958 369.187 174.646 362.533 178.778Z" fill="white"/>
<path fill-rule="evenodd" clip-rule="evenodd" d="M385.442 188.363C386.192 187.174 386.727 185.481 386.757 184.809C386.798 183.869 380.912 176.548 377.902 175.293C377.689 175.205 377.467 175.109 377.233 175.008L377.233 175.008C374.539 173.847 370.412 172.069 363.489 173.726C371.757 170.625 381.461 174.095 386.461 182.147L390.197 188.164C389.48 189.573 388.597 190.886 387.66 191.935L385.442 188.363ZM361.184 203.902L357.663 206.089L360.303 210.34L363.824 208.154L361.184 203.902Z" fill="#D4DDE3"/>
<rect x="350.886" y="212.447" width="55.3176" height="42.5787" rx="4" transform="rotate(-31.8398 350.886 212.447)" fill="white"/>
<path fill-rule="evenodd" clip-rule="evenodd" d="M356.789 209.951C355.01 211.146 354.484 213.545 355.624 215.38L359.669 221.894L358.462 222.644L354.418 216.132C353.252 214.255 353.829 211.789 355.706 210.624L356.789 209.951Z" fill="#D4DDE3"/>
<path fill-rule="evenodd" clip-rule="evenodd" d="M368.938 241.521L371.238 245.224C372.403 247.101 374.869 247.678 376.746 246.512L416.944 221.55C418.82 220.385 419.397 217.919 418.232 216.042L399.99 186.666C398.824 184.79 396.358 184.213 394.481 185.378L391.064 187.501C392.94 186.335 395.407 186.912 396.572 188.789L412.514 214.461C413.68 216.338 413.103 218.804 411.226 219.969L374.446 242.809C372.57 243.974 370.103 243.398 368.938 241.521Z" fill="#D4DDE3"/>
<path d="M386.501 209.284C387.271 210.524 387.343 212 386.824 213.254L395.167 221.26L386.142 226.865L382.697 215.941C381.277 215.906 379.901 215.179 379.096 213.882C377.826 211.837 378.454 209.15 380.499 207.88C382.544 206.611 385.231 207.239 386.501 209.284Z" fill="#C4D0D9"/>
<path fill-rule="evenodd" clip-rule="evenodd" d="M385.455 214.107C385.973 212.854 385.902 211.378 385.131 210.137C384.007 208.327 381.772 207.627 379.855 208.371C380.051 208.193 380.266 208.029 380.499 207.884C382.544 206.614 385.231 207.243 386.501 209.288C387.271 210.528 387.343 212.004 386.824 213.258L395.167 221.264L386.142 226.868L386.142 226.868L393.797 222.114L385.455 214.107Z" fill="#D4DDE3"/>
<path d="M442.731 238.983C445.597 235.589 448.282 232.229 450.788 228.915H450.799C457.755 228.892 467.733 221.431 472.52 217.487C474.194 216.105 474.812 213.823 474.048 211.79C488.656 205.935 506.343 197.171 524.726 187.754C535.278 182.349 546.773 179.001 558.594 178.068C581.742 176.236 607.575 177.933 635.353 181.27L649.994 180.563C650.185 180.574 650.275 180.81 650.14 180.945C647.747 183.237 645.511 185.496 644.151 187.619C643.578 188.518 643.578 189.642 644.072 190.552C644.061 190.552 644.039 190.541 644.039 190.541L643.904 190.237C643.893 190.215 643.881 190.181 643.87 190.159C641.893 185.967 637.566 183.361 632.937 183.203C628.667 183.057 624.824 183.462 620.644 184.102C616.374 184.754 614.812 190.136 618.059 192.979C623.093 197.384 628.318 200.8 635.375 204.126C645.23 207.07 647.972 214.127 648.522 222.757C649.949 222.88 651.039 223.105 652.017 223.476C652.95 223.858 653.848 224.375 654.702 225.015C664.973 236.376 669.737 249.691 664.377 266.58L661.467 267.76L661.164 267.783L661.175 267.693C662.119 259.108 659.501 250.871 653.792 244.5C647.781 237.792 639.016 234.151 629.937 234.657C614.834 235.522 602.923 248.41 602.833 263.996L602.788 271.098H511.478H506.489H501.41L499.736 271.008V261.749C499.736 245.972 486.903 233.151 471.138 233.151C455.373 233.151 442.54 245.983 442.54 261.749L442.45 267.783V268.277L438.034 268.288V264.85V251.793C438.012 247.096 439.697 242.567 442.731 238.983ZM501.399 208.868C502.264 208.879 503.219 208.879 504.208 208.879C521.074 208.857 554.695 207.508 587.338 206.227H587.327C595.698 202.283 595.698 188.181 587.327 181.158C580.292 180.675 571.764 180.652 562.583 180.821C552.324 181.012 542.211 183.304 532.873 187.552C524.468 191.384 513.422 197.305 500.612 206.295C499.488 207.081 500.017 208.857 501.399 208.868Z" fill="white"/>
<g opacity="0.5">
<path d="M636.162 183.201C639.387 183.314 642.454 184.628 644.69 186.831C644.499 187.1 644.32 187.359 644.151 187.629C643.578 188.528 643.578 189.651 644.072 190.561C644.061 190.561 644.039 190.55 644.039 190.55L643.904 190.247C643.893 190.224 643.881 190.191 643.87 190.168C641.892 185.977 637.566 183.37 632.937 183.212C632.914 183.212 632.892 183.212 632.869 183.212C633.926 183.168 635.027 183.168 636.162 183.201Z" fill="#DBE2E9"/>
<path d="M657.006 244.499C662.332 250.444 664.973 258.006 664.535 265.962C664.467 266.175 664.422 266.377 664.355 266.58L661.444 267.76L661.141 267.782L661.152 267.692C662.096 259.107 659.478 250.871 653.77 244.499C648.488 238.6 641.061 235.072 633.184 234.656C642.23 234.15 650.994 237.791 657.006 244.499Z" fill="#DBE2E9"/>
<path d="M442.731 238.982C445.597 235.588 448.282 232.228 450.788 228.913H450.799C457.755 228.891 467.733 221.43 472.52 217.486C474.194 216.103 474.812 213.822 474.048 211.789C488.656 205.934 506.343 197.169 524.726 187.753C535.278 182.348 546.773 179 558.594 178.067C565.392 177.528 572.427 177.303 579.674 177.325C573.573 177.37 567.628 177.606 561.842 178.067C550.02 179 538.525 182.348 527.974 187.753C509.59 197.169 491.904 205.934 477.296 211.789C478.049 213.822 477.442 216.103 475.767 217.486C470.981 221.43 461.002 228.902 454.047 228.913H454.036C451.541 232.228 448.844 235.588 445.979 238.982C442.956 242.566 441.259 247.095 441.259 251.78V264.838V268.265L438.012 268.276V264.838V251.78C438.012 247.095 439.697 242.566 442.731 238.982Z" fill="#DBE2E9"/>
<path d="M474.363 233.129C490.139 233.129 502.96 245.962 502.96 261.727V270.986L504.635 271.076H501.387L499.713 270.986V261.727C499.713 246.501 487.757 234.017 472.733 233.174C473.273 233.152 473.812 233.129 474.363 233.129Z" fill="#DBE2E9"/>
</g>
<path d="M442.428 277.389V267.771L442.518 261.736C442.518 245.96 455.35 233.139 471.115 233.139C486.881 233.139 499.713 245.971 499.713 261.736V270.995L501.387 271.085H511.456L511.006 271.557C506.455 276.333 500.331 278.962 493.769 278.962C491.926 278.962 490.094 278.749 488.319 278.333C483.779 283.03 477.7 285.615 471.194 285.615C460.845 285.615 451.811 278.996 448.597 269.31V276.007L442.428 277.389Z" fill="#373A36"/>
<path d="M450.8 228.925C452.699 228.913 454.834 228.363 457.014 227.464C462.823 225.093 469.048 220.362 472.532 217.497C474.183 216.137 474.79 213.901 474.094 211.89C474.082 211.856 474.071 211.834 474.06 211.8C471.655 212.766 469.34 213.654 467.104 214.452C461.857 216.328 457.351 219.778 454.148 224.34C453.081 225.857 451.946 227.385 450.8 228.925Z" fill="#FFB81C"/>
<path d="M471.183 285.626C458.014 285.626 447.338 274.95 447.338 261.781C447.338 248.612 458.014 237.937 471.183 237.937C484.352 237.937 495.027 248.612 495.027 261.781C495.027 274.95 484.352 285.626 471.183 285.626Z" fill="#5F615E"/>
<path opacity="0.1" d="M471.183 237.937C475.206 237.937 478.993 238.948 482.319 240.712C482.128 240.712 481.948 240.69 481.768 240.69C470.116 240.69 460.665 250.14 460.665 261.792C460.665 273.445 470.116 282.895 481.768 282.895C481.959 282.895 482.139 282.873 482.319 282.873C478.993 284.637 475.206 285.648 471.183 285.648C458.014 285.648 447.339 274.973 447.339 261.803C447.35 248.611 458.025 237.937 471.183 237.937Z" fill="#5A5B59"/>
<path d="M471.183 266.49C468.583 266.49 466.475 264.382 466.475 261.781C466.475 259.181 468.583 257.073 471.183 257.073C473.783 257.073 475.891 259.181 475.891 261.781C475.891 264.382 473.783 266.49 471.183 266.49Z" fill="#373A36"/>
<path d="M602.755 271.086L602.8 263.984C602.89 248.398 614.801 235.51 629.903 234.645C638.971 234.139 647.747 237.78 653.759 244.488C659.467 250.859 662.097 259.096 661.141 267.681L661.119 267.928H655.298C653.534 279.536 643.398 288.267 631.634 288.267C624.487 288.267 617.779 285.12 613.205 279.626C608.317 278.333 603.879 275.457 600.699 271.535L600.328 271.074L602.755 271.086Z" fill="#373A36"/>
<path d="M607.654 264.311C607.654 276.807 617.205 287.066 629.409 288.178C630.139 288.246 630.881 288.28 631.622 288.28C644.859 288.28 655.59 277.548 655.59 264.311C655.59 257.715 652.927 251.76 648.623 247.422C644.286 243.051 638.263 240.343 631.622 240.343C618.385 240.343 607.654 251.074 607.654 264.311Z" fill="#5F615E"/>
<path d="M607.654 264.311C607.654 274.312 613.756 282.875 622.453 286.459C623.15 286.751 623.858 286.998 624.577 287.212C625.858 287.617 627.184 287.909 628.555 288.077C628.835 288.122 629.116 288.156 629.409 288.178C630.139 288.246 630.881 288.28 631.622 288.28C634.274 288.28 636.836 287.853 639.218 287.043C647.59 284.257 653.894 276.987 655.298 268.076C655.489 266.851 655.59 265.592 655.59 264.311C655.59 261.997 655.264 259.76 654.658 257.659C653.523 253.738 651.421 250.243 648.623 247.422C648.05 246.849 647.455 246.299 646.826 245.782C645.488 244.692 644.028 243.737 642.477 242.95C639.218 241.276 635.533 240.343 631.622 240.343C618.385 240.343 607.654 251.074 607.654 264.311Z" fill="#5F615E"/>
<path opacity="0.1" d="M631.622 240.343C635.532 240.343 639.218 241.276 642.477 242.95C644.027 243.737 645.488 244.692 646.825 245.782C647.455 246.299 648.05 246.849 648.623 247.422C649.466 248.265 650.23 249.187 650.938 250.142C650.421 249.816 649.904 249.501 649.365 249.232C646.735 247.883 643.758 247.13 640.6 247.13C629.903 247.13 621.239 255.805 621.239 266.491C621.239 274.571 626.172 281.492 633.195 284.38C633.757 284.616 634.33 284.819 634.914 284.987C635.948 285.313 637.016 285.549 638.128 285.684C638.353 285.718 638.577 285.751 638.813 285.762C639.409 285.819 640.005 285.841 640.6 285.841C641.173 285.841 641.735 285.819 642.286 285.762C641.297 286.257 640.274 286.673 639.218 287.032C636.836 287.841 634.274 288.268 631.622 288.268C630.88 288.268 630.139 288.235 629.408 288.167C629.116 288.145 628.835 288.111 628.554 288.066C627.183 287.897 625.857 287.605 624.576 287.201C623.857 286.987 623.149 286.74 622.453 286.448C613.755 282.863 607.654 274.301 607.654 264.3C607.654 251.074 618.385 240.343 631.622 240.343Z" fill="#5A5B59"/>
<path d="M631.622 269.052C629.003 269.052 626.88 266.929 626.88 264.31C626.88 261.691 629.003 259.568 631.622 259.568C634.241 259.568 636.364 261.691 636.364 264.31C636.364 266.929 634.241 269.052 631.622 269.052Z" fill="#373A36"/>
<path opacity="0.5" d="M501.399 208.866C502.264 208.877 503.219 208.877 504.208 208.877C512.636 208.866 525.255 208.529 539.851 208.023C549.492 207.686 560.01 207.293 570.741 206.877C573.034 206.787 575.348 206.697 577.652 206.607C579.63 206.529 581.596 206.45 583.574 206.372C584.731 206.327 585.9 206.282 587.057 206.237C587.147 206.237 587.237 206.225 587.327 206.225C595.709 202.281 595.709 188.179 587.327 181.156C580.304 180.673 571.764 180.65 562.595 180.808C560.224 180.853 557.853 181.01 555.504 181.291L552.616 181.673L552.425 181.695H552.414C550.751 181.954 549.099 182.269 547.459 182.639C545.638 183.044 543.84 183.527 542.054 184.078C538.93 185.033 535.862 186.19 532.873 187.55C524.468 191.37 513.422 197.292 500.624 206.282C499.489 207.079 500.017 208.855 501.399 208.866Z" fill="white"/>
<path d="M628.802 218.926C628.802 222.106 631.049 224.757 634.038 225.353C634.319 225.409 634.6 225.443 634.892 225.465C635.049 225.488 635.195 225.488 635.353 225.488C636.094 225.488 636.814 225.364 637.477 225.128C640.05 224.252 641.904 221.813 641.904 218.926C641.904 215.982 639.96 213.487 637.285 212.655C636.892 212.532 636.476 212.453 636.049 212.408C635.813 212.386 635.589 212.375 635.353 212.375C635.162 212.375 634.982 212.386 634.791 212.397C631.442 212.678 628.802 215.498 628.802 218.926Z" fill="#008578"/>
<path opacity="0.2" d="M628.802 218.926C628.802 222.106 631.049 224.757 634.038 225.353C634.375 225.072 634.645 224.735 634.802 224.319C635.083 223.611 634.971 222.802 634.78 222.061C634.398 220.589 633.69 219.184 633.465 217.667C633.342 216.824 633.386 215.914 633.836 215.184C634.173 214.633 634.701 214.24 635.252 213.903C635.915 213.487 636.634 213.116 637.286 212.655C636.892 212.532 636.477 212.453 636.05 212.408C635.814 212.386 635.589 212.375 635.353 212.375C635.162 212.375 634.982 212.386 634.791 212.397C631.443 212.678 628.802 215.498 628.802 218.926Z" fill="#44786C"/>
<path d="M634.207 214.363L636.499 218.577H634.207" stroke="white" stroke-width="0.6384" stroke-miterlimit="10" stroke-linecap="round" stroke-linejoin="round"/>
<path d="M636.499 222.79L634.207 218.576H636.499" stroke="white" stroke-width="0.6384" stroke-miterlimit="10" stroke-linecap="round" stroke-linejoin="round"/>
<path d="M635.364 204.139C645.219 207.083 647.96 214.139 648.5 222.769C649.646 222.758 650.702 222.994 651.713 223.376C651.803 223.41 651.904 223.455 651.994 223.488C652.612 223.724 653.174 224.017 653.747 224.387C654.051 224.567 654.365 224.792 654.68 225.028C655.658 218.364 654.826 211.87 651.747 205.611C649.848 204.779 647.949 204.251 646.061 203.948C645.32 203.824 644.578 203.745 643.836 203.689C640.926 203.476 638.072 203.723 635.364 204.139Z" fill="#FFB81C"/>
<path d="M618.048 192.98C623.082 197.396 628.307 200.812 635.364 204.138C637.757 203.768 640.263 203.532 642.814 203.633C645.747 203.745 648.758 204.296 651.747 205.61L644.039 190.542L643.904 190.25C643.881 190.216 643.87 190.194 643.859 190.16C642.027 186.272 638.173 183.744 633.926 183.294C633.588 183.249 633.263 183.227 632.925 183.215C628.655 183.069 624.812 183.463 620.621 184.103C616.351 184.755 614.789 190.137 618.048 192.98Z" fill="#008578"/>
<path opacity="0.4" d="M635.364 204.138C645.219 207.082 647.96 214.139 648.5 222.769C649.646 222.758 650.702 222.994 651.713 223.376C651.691 223.308 651.668 223.241 651.646 223.173C651.14 221.477 650.972 219.712 650.635 217.993C650.084 215.206 649.084 212.51 647.679 210.026C646.691 208.285 645.466 206.408 645.904 204.453C645.949 204.273 645.994 204.104 646.061 203.947C645.32 203.824 644.578 203.745 643.836 203.689C640.926 203.475 638.072 203.722 635.364 204.138Z" fill="#E9A12C"/>
<path opacity="0.2" d="M618.048 192.98C623.082 197.396 628.307 200.812 635.364 204.138C637.757 203.768 640.263 203.532 642.814 203.633C642.263 203.408 641.724 203.172 641.185 202.914C636.263 200.498 632.588 196.149 629.375 191.699C628.745 190.834 628.105 189.879 628.139 188.811C628.184 186.991 630.038 185.856 631.588 184.912C632.397 184.429 633.207 183.901 633.926 183.294C633.589 183.249 633.263 183.227 632.926 183.215C628.656 183.069 624.813 183.463 620.621 184.103C616.351 184.755 614.789 190.137 618.048 192.98Z" fill="#44786C"/>
<path d="M510.68 200.128V201.14C510.68 201.859 510.995 202.533 511.557 202.982C512.119 203.432 512.433 204.106 512.433 204.814V208.893H517.186C517.186 207.163 518.018 205.544 519.423 204.533L522.041 202.668C522.602 202.263 523.074 201.713 523.277 201.05C523.31 200.926 523.344 200.791 523.378 200.656C523.479 200.229 523.524 199.825 523.524 199.409C523.524 196.69 521.333 194.319 518.501 194.173C518.411 194.162 518.31 194.162 518.22 194.162C516.928 194.162 515.681 194.645 514.714 195.488L511.467 198.364C510.972 198.814 510.68 199.454 510.68 200.128Z" fill="#008578"/>
<path opacity="0.2" d="M510.68 200.127V201.139C510.68 201.858 510.995 202.532 511.557 202.982C512.118 203.431 512.433 204.105 512.433 204.813V208.892H516.422C515.029 207.038 514.647 204.6 514.546 202.285C514.501 201.532 514.489 200.768 514.703 200.037C515.321 198.037 517.568 196.902 518.299 194.925C518.389 194.689 518.456 194.43 518.501 194.183C518.411 194.172 518.31 194.172 518.22 194.172C516.928 194.172 515.681 194.655 514.714 195.498L511.467 198.374C510.972 198.813 510.68 199.453 510.68 200.127Z" fill="#44786C"/>
<path d="M603.553 205.464C598.316 205.667 592.968 205.869 587.597 206.082C595.676 201.947 595.597 188.104 587.316 181.17C591.17 181.429 594.575 181.833 597.384 182.406C597.597 182.451 597.8 182.496 598.002 182.541C599.822 182.946 601.317 184.272 601.811 186.07C603.272 191.34 603.631 198.217 603.553 205.464Z" fill="#008578"/>
<path opacity="0.2" d="M603.553 205.464C602.452 205.509 601.339 205.554 600.227 205.587C600.215 205.273 600.204 204.969 600.204 204.655C600.238 202.711 600.474 200.767 600.609 198.823C600.845 195.429 600.777 191.946 599.665 188.732C598.946 186.631 597.788 184.664 597.384 182.484C597.384 182.451 597.373 182.428 597.373 182.395C597.586 182.439 597.788 182.484 597.991 182.529C599.811 182.934 601.305 184.26 601.8 186.058C603.272 191.339 603.632 198.216 603.553 205.464Z" fill="#44786C"/>
<path d="M504.208 208.878C521.074 208.856 554.695 207.507 587.338 206.226C587.428 206.182 587.506 206.125 587.596 206.08C592.968 205.867 598.327 205.665 603.564 205.462L604.643 206.743C605.35 207.564 605.631 208.665 605.429 209.721L597.766 250.275L596.563 256.612C595.619 261.579 591.282 265.175 586.225 265.175H510.782C509.456 265.175 508.22 264.77 507.197 264.051C505.702 263.029 504.669 261.366 504.478 259.433C502.635 241.072 502.185 223.902 504.197 208.878C504.185 208.878 504.197 208.878 504.208 208.878Z" fill="#40C1AC"/>
<path d="M594.271 215.858H598.181C599.013 215.858 599.676 215.183 599.676 214.363C599.676 213.532 599.002 212.869 598.181 212.869H594.271V215.858Z" fill="#008578"/>
<path d="M582.113 215.857H594.271V212.856H582.113C581.281 212.856 580.618 213.531 580.618 214.351C580.607 215.194 581.281 215.857 582.113 215.857Z" fill="#008578"/>
<path opacity="0.25" d="M517.467 258.747C517.647 258.691 517.838 258.624 518.018 258.567V258.556C517.838 258.612 517.658 258.68 517.467 258.747Z" fill="#40C1AC"/>
<path opacity="0.25" d="M504.466 259.434C504.657 261.367 505.691 263.03 507.186 264.052C508.208 264.772 509.444 265.176 510.77 265.176H586.214C591.271 265.176 595.608 261.58 596.552 256.614L597.754 250.276C596.024 249.029 593.17 249.141 590.057 249.321C576.865 250.085 563.887 250.849 550.773 252.456C550.402 252.501 550.02 252.546 549.65 252.591C542.076 253.535 534.536 254.636 527.052 256.164C526.985 256.187 526.918 256.198 526.85 256.209C524.232 256.737 521.119 257.501 518.018 258.558V258.569C517.838 258.625 517.647 258.692 517.467 258.749C517.658 258.681 517.838 258.614 518.018 258.558C516.906 251.827 517.007 244.905 518.4 238.23C519.4 233.376 521.153 228.522 524.513 224.87C529.232 219.768 536.334 217.768 543.065 215.993C551.526 213.768 559.999 211.532 568.471 209.307C569.932 208.913 573.224 208.116 575.292 206.7C546.683 207.823 518.996 208.868 504.208 208.88C504.197 208.88 504.185 208.88 504.185 208.88C502.174 223.903 502.624 241.073 504.466 259.434Z" fill="#6EB39E"/>
<path opacity="0.25" d="M517.467 258.747C517.647 258.691 517.838 258.624 518.018 258.567V258.556C517.838 258.612 517.658 258.68 517.467 258.747Z" fill="#40C1AC"/>
<path opacity="0.4" d="M450.799 228.925C452.698 228.913 454.833 228.363 457.013 227.464C457.249 226.441 457.463 225.396 457.811 224.419C458.924 221.351 461.531 219.025 464.43 217.542C467.261 216.081 470.498 215.272 472.936 213.204C473.295 212.89 473.767 212.418 474.093 211.89C474.082 211.856 474.071 211.834 474.06 211.8C471.655 212.766 469.34 213.654 467.104 214.452C461.856 216.328 457.35 219.778 454.148 224.34C453.08 225.857 451.946 227.385 450.799 228.925Z" fill="#E9A12C"/>
<path d="M583.36 206.384L586.292 206.238V181.09L583.36 180.933V206.384Z" fill="#008578"/>
<path d="M569.659 142.522C569.614 143.312 569.47 144.103 569.22 144.882L567.128 151.372L569.065 169.839H556.764V153.233L552.02 156.125L551.293 156.557L550.893 156.8C550.849 156.827 550.81 156.855 550.766 156.872C550.688 156.921 550.605 156.96 550.533 156.999C550.516 157.01 550.505 157.021 550.483 157.021C549.084 157.618 547.448 156.59 547.459 155.003L547.464 154.456V154.451L547.525 146.856L544.69 148.497C544.146 148.818 543.519 148.237 543.791 147.674L547.431 140.117C547.431 138.559 547.814 137.055 548.519 135.723C548.541 135.679 548.563 135.635 548.585 135.59C548.935 134.949 549.356 134.347 549.845 133.799C550.694 132.849 551.742 132.064 552.946 131.505L553.002 131.483L553.723 131.146C557.219 129.532 561.347 130.173 564.188 132.771L566.601 134.988C566.945 135.303 567.262 135.64 567.545 135.994C569.054 137.84 569.797 140.173 569.659 142.522Z" fill="#F0F3F6"/>
<path d="M567.129 151.372C566.635 151.328 566.036 151.057 565.386 150.222C564.887 149.587 564.56 148.83 564.371 148.045L563.744 145.347C563.766 145.336 563.789 145.32 563.811 145.297C564.499 144.866 564.887 144.12 564.887 143.341C564.887 142.998 564.815 142.65 564.66 142.329C564.044 141.063 562.457 140.621 561.275 141.384L558.479 143.186L557.863 143.584L557.951 144.374L558.262 147.193C558.362 148.05 558.784 148.841 559.455 149.382C559.455 149.382 559.461 149.388 559.466 149.388C559.816 149.67 559.949 150.134 559.827 150.56C559.727 150.891 559.616 151.206 559.494 151.505C558.834 153.169 557.291 154.329 555.527 154.633L554.084 154.882L553.995 154.938L550.894 156.8C550.849 156.828 550.81 156.856 550.766 156.872C550.688 156.922 550.605 156.961 550.533 156.999C550.516 157.01 550.505 157.021 550.483 157.021C549.085 157.618 547.448 156.59 547.459 155.004L547.465 154.551V154.451C548.891 154.777 550.189 153.534 551.399 151.367C551.787 150.676 552.442 150.167 553.213 149.979C553.796 149.83 554.373 149.753 554.961 149.742C555.41 149.731 555.754 149.349 555.715 148.896C555.554 147.066 555.932 145.203 556.797 143.319C556.98 142.921 557.08 142.484 557.108 142.047C557.18 140.975 557.43 140.057 557.852 139.289C557.996 139.024 557.874 138.697 557.596 138.581C556.048 137.924 555.671 137.465 555.699 137.133C555.743 136.768 556.287 136.575 556.215 136.238C556.143 135.829 555.299 135.917 555.055 135.464C554.667 134.751 556.231 133.452 556.026 133.159C555.699 132.706 552.12 136.044 548.585 135.591C548.447 135.58 548.308 135.558 548.169 135.53C545.955 135.06 544.302 133.098 544.563 132.518C544.824 131.943 546.932 133.015 547.786 132.004C548.946 130.627 547.076 127.543 547.709 126.824C547.731 126.791 547.759 126.769 547.786 126.747C548.53 126.244 550.328 128.665 551.582 128.156C551.609 128.145 551.637 128.134 551.659 128.118C553.091 127.377 552.286 123.132 553.224 122.778C553.235 122.772 553.246 122.772 553.257 122.767C554.395 122.474 556.004 128.101 558.406 128.024C559.721 127.99 559.855 126.294 561.43 126.106C563.195 125.89 563.633 127.941 567.095 129.566C569.065 130.489 569.953 130.312 570.508 131.296C571.174 132.479 570.297 133.396 570.702 135.149C571.118 136.934 572.355 137.365 573.082 138.548C575.502 142.473 570.463 151.687 567.129 151.372Z" fill="#7BA4AE"/>
<path opacity="0.3" d="M551.582 128.155C551.61 128.144 551.637 128.133 551.66 128.116C551.66 128.188 551.66 128.26 551.654 128.332C551.621 128.807 551.465 129.393 550.994 129.493C550.772 129.537 550.544 129.448 550.339 129.349C549.263 128.84 548.28 127.917 547.709 126.823C547.731 126.79 547.759 126.768 547.787 126.745C548.53 126.242 550.328 128.664 551.582 128.155Z" fill="#75919B"/>
<path opacity="0.3" d="M567.128 151.372C566.635 151.328 566.035 151.057 565.386 150.222C564.887 149.587 564.559 148.83 564.371 148.045L563.744 145.347C563.766 145.336 563.788 145.319 563.81 145.297C564.132 145.214 564.493 145.214 564.82 145.275C565.491 145.402 566.146 145.701 566.829 145.64C567.744 145.552 568.499 144.8 568.826 143.938C569.154 143.075 569.126 142.125 569.026 141.207C568.887 139.891 568.615 138.592 568.338 137.299C568.06 135.961 567.7 134.496 566.59 133.689C565.697 133.037 564.448 132.938 563.649 132.169C562.806 131.362 562.628 129.958 561.619 129.361C560.531 128.715 559.138 129.372 557.879 129.229C556.636 129.085 555.61 128.156 554.983 127.078C554.361 126.001 554.067 124.773 553.706 123.579C553.618 123.298 553.44 122.977 553.224 122.778C553.235 122.772 553.246 122.772 553.257 122.767C554.394 122.474 556.003 128.101 558.406 128.024C559.721 127.99 559.854 126.294 561.43 126.106C563.194 125.89 563.633 127.941 567.095 129.566C569.065 130.489 569.953 130.312 570.507 131.296C571.173 132.479 570.297 133.396 570.702 135.149C571.118 136.934 572.355 137.365 573.082 138.548C575.501 142.473 570.463 151.687 567.128 151.372Z" fill="#75919B"/>
<path opacity="0.3" d="M559.827 150.559C559.727 150.891 559.616 151.206 559.494 151.505C558.834 153.168 557.291 154.329 555.527 154.633L554.084 154.882L553.995 154.937L550.894 156.8C550.849 156.828 550.81 156.855 550.766 156.872C550.688 156.922 550.605 156.96 550.533 156.999C550.516 157.01 550.505 157.021 550.483 157.021C549.085 157.618 547.448 156.59 547.459 155.004L547.465 154.55C547.603 154.6 547.736 154.677 547.864 154.749C548.341 155.02 548.818 155.297 549.296 155.567C549.479 155.672 549.662 155.783 549.873 155.816C550.106 155.855 550.35 155.794 550.572 155.706C551.726 155.241 552.392 154.031 553.418 153.323C553.979 152.936 554.633 152.715 555.249 152.422C555.865 152.129 556.47 151.742 556.797 151.145C557.213 150.377 557.086 149.448 557.075 148.575C557.058 147.702 557.169 146.834 557.33 145.983C557.424 145.507 557.452 144.639 557.951 144.374L558.262 147.193C558.362 148.05 558.784 148.84 559.455 149.382C559.455 149.382 559.461 149.388 559.466 149.388C559.816 149.669 559.949 150.134 559.827 150.559Z" fill="#75919B"/>
<path opacity="0.3" d="M557.108 142.046C557.18 140.973 557.43 140.056 557.852 139.287C557.996 139.022 557.874 138.696 557.596 138.58C556.048 137.922 555.671 137.463 555.699 137.132C555.743 136.767 556.287 136.573 556.215 136.236C556.143 135.827 555.299 135.915 555.055 135.462C554.667 134.749 556.232 133.45 556.026 133.157C555.699 132.704 552.12 136.043 548.586 135.589C548.563 135.634 548.541 135.678 548.519 135.722C548.885 136.667 550.761 137.601 551.41 137.95C552.741 138.668 554.19 139.696 554.273 141.205C554.367 142.891 552.675 144.251 552.636 145.937C552.608 147.026 553.28 148.154 552.858 149.154C552.597 149.773 551.981 150.166 551.615 150.729C551.443 150.995 551.338 151.282 551.277 151.581C551.316 151.509 551.36 151.437 551.399 151.365C551.787 150.674 552.442 150.166 553.213 149.978C553.796 149.828 554.373 149.751 554.961 149.74C555.41 149.729 555.754 149.347 555.716 148.894C555.555 147.065 555.932 145.202 556.797 143.317C556.981 142.919 557.08 142.482 557.108 142.046Z" fill="#D4DDE3"/>
<mask id="mask0_500_42866" style="mask-type:alpha" maskUnits="userSpaceOnUse" x="484" y="149" width="111" height="60">
<path d="M501.425 208.779C502.291 208.79 503.246 208.79 504.235 208.79C512.662 208.779 525.281 208.442 539.878 207.936C549.519 207.599 560.037 207.206 570.768 206.79C573.06 206.7 575.375 206.61 577.679 206.52C579.656 206.442 581.623 206.363 583.6 206.284C584.758 206.239 585.926 206.194 587.084 206.149C587.174 206.149 587.264 206.138 587.353 206.138C595.736 202.194 596.933 163.478 588.551 156.455C581.528 155.972 572.988 155.949 563.818 156.107C561.447 156.152 559.076 156.309 556.728 156.59L553.84 156.972L553.649 156.994H553.638C551.975 157.253 550.323 157.568 548.682 157.938C546.862 158.343 545.064 158.826 543.278 159.377C540.154 160.332 501.636 148.485 498.647 149.845C490.242 153.665 497.248 172.718 484.449 181.708C492.768 186.125 500.043 208.768 501.425 208.779Z" fill="white"/>
</mask>
<g mask="url(#mask0_500_42866)">
<path d="M584.847 209.907C584.847 209.907 568.672 212.375 552.475 211.486C536.278 210.597 538.89 209.907 538.89 209.907L540.338 181.191L555.592 158.914V157.112C555.592 156.516 556.079 156.032 556.679 156.032L568.925 156.032C569.476 156.032 569.933 156.447 570.002 156.995C570.072 157.566 570.219 158.227 570.523 158.914C571.388 160.88 569.622 161.386 570.652 162.466C573.446 165.388 570.435 169.13 572.585 174.087C574.149 177.691 576.109 176.572 577.799 180.137C580.137 185.072 576.696 187.902 579.055 193.196C580.371 196.156 581.762 195.983 583.4 199.151C583.478 199.302 583.552 199.458 583.626 199.609C585.39 203.338 585.259 207.18 584.847 209.907Z" fill="#FFB81C"/>
<path opacity="0.4" d="M583.782 199.466C583.261 199.616 582.726 199.724 582.182 199.75C581.29 199.789 580.406 199.595 579.539 199.379C577.956 198.988 576.391 198.514 574.86 197.958C573.855 197.596 572.842 197.187 572.044 196.481C570.159 194.818 569.918 191.975 570.237 189.486C570.711 185.773 572.091 181.866 570.595 178.438C569.845 176.715 568.43 175.324 567.822 173.549C567.046 171.271 567.719 168.695 566.972 166.404C566.597 165.262 565.89 164.25 565.092 163.35C564.148 162.282 563.044 161.325 561.75 160.731C560.37 160.102 558.813 159.9 557.485 159.163C556.903 158.844 556.342 158.34 555.958 157.742V157.109C555.958 156.514 556.441 156.032 557.037 156.032L569.148 156.032C569.696 156.032 570.149 156.445 570.218 156.992C570.287 157.561 570.434 158.22 570.735 158.905C571.594 160.864 569.883 161.368 570.905 162.445C573.678 165.357 570.69 169.087 572.824 174.027C574.377 177.619 576.322 176.504 577.999 180.057C580.319 184.976 576.904 187.797 579.246 193.074C580.552 196.024 581.932 195.852 583.558 199.009C583.636 199.16 583.709 199.315 583.782 199.466Z" fill="#E9A12C"/>
<path d="M521.51 194.357L518.165 198.073L516.652 199.755L509.585 191.903L514.444 186.505L521.51 194.357Z" fill="white"/>
<path opacity="0.5" d="M517.535 198.049L516.133 199.755L509.585 191.789L510.661 190.48C513.019 192.907 515.314 195.432 517.535 198.049Z" fill="#DBE2E9"/>
<path d="M513.561 186.804L509.556 190.612L508.299 191.805L505.349 188.912C504.935 188.504 504.41 188.218 503.837 188.076L494.691 185.873C493.244 185.524 492.125 184.426 491.789 183.025L491.057 179.978C490.91 179.379 491.599 178.976 492.073 179.263C492.133 179.3 492.189 179.35 492.241 179.408L493.813 181.233C494.506 182.036 495.552 182.472 496.633 182.41L504.126 181.977L502.248 177.924C502.024 177.437 502.649 177.001 503.054 177.367L513.561 186.804Z" fill="#A4AAAF"/>
<path d="M515.548 191.805C515.914 191.805 516.21 191.509 516.21 191.143C516.21 190.777 515.914 190.48 515.548 190.48C515.182 190.48 514.885 190.777 514.885 191.143C514.885 191.509 515.182 191.805 515.548 191.805Z" fill="black"/>
<path d="M516.873 193.13C517.239 193.13 517.535 192.834 517.535 192.468C517.535 192.102 517.239 191.805 516.873 191.805C516.507 191.805 516.21 192.102 516.21 192.468C516.21 192.834 516.507 193.13 516.873 193.13Z" fill="black"/>
<path opacity="0.3" d="M510.911 190.555L509.561 191.806L506.396 188.772C505.952 188.345 505.388 188.044 504.774 187.896L494.958 185.586C493.406 185.219 492.204 184.069 491.844 182.6L491.058 179.405C490.901 178.777 491.64 178.354 492.149 178.655C492.135 178.79 492.13 178.917 492.144 179.026C492.237 179.771 492.514 180.486 492.911 181.131C493.364 181.872 493.974 182.526 494.686 183.053C496.359 184.295 498.471 184.884 500.569 185.233C501.77 185.433 502.995 185.568 504.141 185.965C505.629 186.488 506.9 187.429 508.129 188.375C509.062 189.09 509.991 189.818 510.911 190.555Z" fill="#7BA4AE"/>
</g>
<path d="M557.912 179.832C557.758 180.331 547.86 212.155 530.395 211.404C521.143 211.003 517.445 206.784 516.019 202.867C515.831 202.359 515.698 201.839 515.618 201.318C515.548 200.883 515.514 200.444 515.514 200.004C515.514 199.142 515.648 198.285 515.906 197.47C516.173 196.612 516.573 195.797 517.099 195.059C517.557 194.415 518.112 193.831 518.75 193.327C522.023 190.759 526.646 191.062 529.569 194.04L530.791 195.285L550.829 165.044L557.912 179.832Z" fill="#FFB81C"/>
<path opacity="0.4" d="M557.912 179.619C557.762 180.117 547.863 212.161 530.396 211.405C521.143 211.001 517.445 206.752 516.019 202.808C515.831 202.297 515.698 201.773 515.618 201.249C515.593 201.103 515.577 200.957 515.56 200.811C515.552 200.742 515.548 200.673 515.539 200.6C515.522 200.377 515.514 200.154 515.514 199.926C515.514 199.058 515.648 198.195 515.906 197.374C516.173 196.511 516.573 195.69 517.099 194.947C517.161 195.011 517.086 195.119 517.053 195.278C516.999 195.548 516.978 195.836 516.961 196.115C516.961 196.124 516.961 196.137 516.961 196.146C516.878 197.872 517.557 199.552 518.75 200.772C520.56 202.619 522.77 204.063 525.067 205.218C527.273 206.331 529.787 206.928 532.21 206.533C534.462 206.168 536.33 205.042 538.152 203.638C542.63 200.171 547.021 196.446 550.261 191.738C552.521 188.447 555.515 182.802 557.912 179.619Z" fill="#E9A12C"/>
<path d="M62.0368 341.456C62.0368 354.168 71.0528 362.288 83.4288 362.288C95.8048 362.288 104.821 354.168 104.821 341.456C104.821 328.744 95.8048 320.624 83.4288 320.624C71.0528 320.624 62.0368 328.744 62.0368 341.456ZM71.1088 341.456C71.1088 334.064 75.9808 328.688 83.4288 328.688C90.8768 328.688 95.7488 334.064 95.7488 341.456C95.7488 348.848 90.8768 354.224 83.4288 354.224C75.9808 354.224 71.1088 348.848 71.1088 341.456ZM108.687 347.672C108.687 356.352 115.407 361.952 123.807 361.952C132.207 361.952 138.927 356.352 138.927 347.672C138.927 338.992 132.207 333.392 123.807 333.392C115.407 333.392 108.687 338.992 108.687 347.672ZM117.087 347.672C117.087 343.584 119.607 340.784 123.807 340.784C128.007 340.784 130.527 343.584 130.527 347.672C130.527 351.76 128.007 354.56 123.807 354.56C119.607 354.56 117.087 351.76 117.087 347.672ZM144.658 374.048H153.058V358.368H153.17C155.074 361 158.322 361.952 161.794 361.952C169.522 361.952 174.226 355.008 174.226 347.448C174.226 339.216 168.906 333.392 160.842 333.392C157.034 333.392 153.786 335.688 152.498 337.648H152.386V334.064H144.658V374.048ZM152.386 347.672C152.386 343.584 154.906 340.784 159.106 340.784C163.306 340.784 165.826 343.584 165.826 347.672C165.826 351.76 163.306 354.56 159.106 354.56C154.906 354.56 152.386 351.76 152.386 347.672ZM199.7 336.976C197.18 334.288 193.204 333.392 189.62 333.392C183.908 333.392 178.196 336.192 178.196 342.576C178.196 352.936 192.364 349.24 192.364 353.608C192.364 355.064 190.46 355.568 188.556 355.568C186.036 355.568 184.188 354.504 182.62 352.6L177.524 358.256C180.212 361 184.412 361.952 188.22 361.952C194.044 361.952 200.764 359.936 200.764 352.992C200.764 342.632 186.596 346.048 186.596 342.016C186.596 340.392 188.276 339.776 189.676 339.776C191.692 339.776 193.316 340.56 194.548 342.072L199.7 336.976ZM218.734 321.632H210.334V348.176H218.734V321.632ZM209.382 356.464C209.382 359.32 211.678 361.616 214.534 361.616C217.39 361.616 219.686 359.32 219.686 356.464C219.686 353.608 217.39 351.312 214.534 351.312C211.678 351.312 209.382 353.608 209.382 356.464ZM257.331 361.28H266.067V344.368L280.963 321.632H270.603L261.699 336.472L253.299 321.632H242.435L257.331 344.368V361.28ZM275.593 347.672C275.593 356.352 282.313 361.952 290.713 361.952C299.113 361.952 305.833 356.352 305.833 347.672C305.833 338.992 299.113 333.392 290.713 333.392C282.313 333.392 275.593 338.992 275.593 347.672ZM283.993 347.672C283.993 343.584 286.513 340.784 290.713 340.784C294.913 340.784 297.433 343.584 297.433 347.672C297.433 351.76 294.913 354.56 290.713 354.56C286.513 354.56 283.993 351.76 283.993 347.672ZM336.988 334.064H328.588V347.616C328.588 351.144 327.916 354.56 323.548 354.56C319.236 354.56 319.18 350.528 319.18 347.392V334.064H310.78V349.072C310.78 356.352 312.348 361.952 320.86 361.952C324.948 361.952 327.692 359.712 328.812 357.584H328.924V361.28H336.988V334.064ZM388.067 318.944H379.667V336.976H379.555C377.651 334.344 374.403 333.392 370.931 333.392C363.203 333.392 358.499 340.336 358.499 347.896C358.499 356.128 363.819 361.952 371.883 361.952C375.691 361.952 378.939 359.656 380.227 357.696H380.339V361.28H388.067V318.944ZM380.339 347.672C380.339 351.76 377.819 354.56 373.619 354.56C369.419 354.56 366.899 351.76 366.899 347.672C366.899 343.584 369.419 340.784 373.619 340.784C377.819 340.784 380.339 343.584 380.339 347.672ZM393.772 347.672C393.772 356.352 400.492 361.952 408.892 361.952C417.292 361.952 424.012 356.352 424.012 347.672C424.012 338.992 417.292 333.392 408.892 333.392C400.492 333.392 393.772 338.992 393.772 347.672ZM402.172 347.672C402.172 343.584 404.692 340.784 408.892 340.784C413.092 340.784 415.612 343.584 415.612 347.672C415.612 351.76 413.092 354.56 408.892 354.56C404.692 354.56 402.172 351.76 402.172 347.672ZM428.96 361.28H437.36V347.728C437.36 344.2 438.032 340.784 442.4 340.784C446.712 340.784 446.768 344.816 446.768 347.952V361.28H455.168V346.272C455.168 338.992 453.6 333.392 445.088 333.392C441 333.392 438.256 335.632 437.136 337.76H437.024V334.064H428.96V361.28ZM472.54 321.632H464.476L460.332 337.424H467.5L472.54 321.632ZM495.238 334.064H487.846V326H479.446V334.064H474.07V340.784H479.446V353.72C479.446 359.656 483.758 361.952 489.358 361.952C491.318 361.952 493.39 361.784 495.238 361.112V354.112C494.51 354.784 492.718 354.896 491.822 354.896C488.182 354.896 487.846 352.768 487.846 349.856V340.784H495.238V334.064ZM516.077 318.944V361.28H524.477V347.728C524.477 344.2 525.149 340.784 529.517 340.784C533.829 340.784 533.885 344.816 533.885 347.952V361.28H542.285V346.272C542.285 338.992 540.717 333.392 532.205 333.392C528.117 333.392 525.373 335.632 524.589 337.76H524.477V318.944H516.077ZM565.314 361.28H573.042V347.448C573.042 338.376 570.41 333.392 560.61 333.392C556.186 333.392 551.706 334.848 548.626 337.76L553.106 342.352C554.898 340.336 557.194 339.104 559.938 339.104C562.85 339.104 565.314 341.008 565.314 343.976C558.314 343.976 546.89 344.144 546.89 353.552C546.89 359.04 551.482 361.952 556.578 361.952C559.994 361.952 563.354 360.776 565.202 357.864H565.314V361.28ZM565.314 349.352V351.144C565.314 354.504 562.234 356.24 558.93 356.24C557.082 356.24 554.954 355.288 554.954 353.272C554.954 349.576 560.666 349.352 563.242 349.352H565.314ZM586.712 361.28H595.616L606.368 334.064H597.912L591.528 352.544H591.416L584.528 334.064H575.456L586.712 361.28ZM629.309 352.264C627.909 354.168 626.061 355.568 623.317 355.568C620.069 355.568 617.661 353.496 616.989 350.304H636.477V347.672C636.477 338.992 631.549 333.392 623.709 333.392C615.309 333.392 608.589 338.992 608.589 347.672C608.589 356.352 615.309 361.952 623.709 361.952C628.077 361.952 632.501 359.992 635.189 356.576L629.309 352.264ZM616.989 344.592C617.213 341.96 619.229 339.44 622.925 339.44C625.949 339.44 628.133 341.792 628.077 344.592H616.989ZM675.235 361.28H682.963V347.448C682.963 338.376 680.331 333.392 670.531 333.392C666.107 333.392 661.627 334.848 658.547 337.76L663.027 342.352C664.819 340.336 667.115 339.104 669.859 339.104C672.771 339.104 675.235 341.008 675.235 343.976C668.235 343.976 656.811 344.144 656.811 353.552C656.811 359.04 661.403 361.952 666.499 361.952C669.915 361.952 673.275 360.776 675.123 357.864H675.235V361.28ZM675.235 349.352V351.144C675.235 354.504 672.155 356.24 668.851 356.24C667.003 356.24 664.875 355.288 664.875 353.272C664.875 349.576 670.587 349.352 673.163 349.352H675.235ZM712.202 337.032C709.57 334.344 705.706 333.392 702.514 333.392C694.114 333.392 687.394 338.992 687.394 347.672C687.394 356.352 694.114 361.952 702.514 361.952C705.706 361.952 709.57 361 712.202 358.312L706.658 352.488C705.706 353.608 704.362 354.56 702.514 354.56C698.314 354.56 695.794 351.76 695.794 347.672C695.794 343.584 698.314 340.784 702.514 340.784C704.25 340.784 705.818 341.68 706.658 342.856L712.202 337.032ZM739.217 337.032C736.585 334.344 732.721 333.392 729.529 333.392C721.129 333.392 714.409 338.992 714.409 347.672C714.409 356.352 721.129 361.952 729.529 361.952C732.721 361.952 736.585 361 739.217 358.312L733.673 352.488C732.721 353.608 731.377 354.56 729.529 354.56C725.329 354.56 722.809 351.76 722.809 347.672C722.809 343.584 725.329 340.784 729.529 340.784C731.265 340.784 732.833 341.68 733.673 342.856L739.217 337.032ZM762.145 352.264C760.745 354.168 758.897 355.568 756.153 355.568C752.905 355.568 750.497 353.496 749.825 350.304H769.313V347.672C769.313 338.992 764.385 333.392 756.545 333.392C748.145 333.392 741.425 338.992 741.425 347.672C741.425 356.352 748.145 361.952 756.545 361.952C760.913 361.952 765.337 359.992 768.025 356.576L762.145 352.264ZM749.825 344.592C750.049 341.96 752.065 339.44 755.761 339.44C758.785 339.44 760.969 341.792 760.913 344.592H749.825ZM794.973 336.976C792.453 334.288 788.477 333.392 784.893 333.392C779.181 333.392 773.469 336.192 773.469 342.576C773.469 352.936 787.637 349.24 787.637 353.608C787.637 355.064 785.733 355.568 783.829 355.568C781.309 355.568 779.461 354.504 777.893 352.6L772.797 358.256C775.485 361 779.685 361.952 783.493 361.952C789.317 361.952 796.037 359.936 796.037 352.992C796.037 342.632 781.869 346.048 781.869 342.016C781.869 340.392 783.549 339.776 784.949 339.776C786.965 339.776 788.589 340.56 789.821 342.072L794.973 336.976ZM820.895 336.976C818.375 334.288 814.399 333.392 810.815 333.392C805.103 333.392 799.391 336.192 799.391 342.576C799.391 352.936 813.559 349.24 813.559 353.608C813.559 355.064 811.655 355.568 809.751 355.568C807.231 355.568 805.383 354.504 803.815 352.6L798.719 358.256C801.407 361 805.607 361.952 809.415 361.952C815.239 361.952 821.959 359.936 821.959 352.992C821.959 342.632 807.791 346.048 807.791 342.016C807.791 340.392 809.471 339.776 810.871 339.776C812.887 339.776 814.511 340.56 815.743 342.072L820.895 336.976ZM826.433 356.464C826.433 359.32 828.729 361.616 831.585 361.616C834.441 361.616 836.737 359.32 836.737 356.464C836.737 353.608 834.441 351.312 831.585 351.312C828.729 351.312 826.433 353.608 826.433 356.464Z" fill="#616C7F"/>
<path d="M119.408 398.28H120.752V393.192H123.024C124.624 393.192 126.736 392.536 126.736 390.056C126.736 387.688 124.848 386.952 122.768 386.952H119.408V398.28ZM120.752 388.2H123.024C124.368 388.2 125.296 388.808 125.296 390.072C125.296 391.336 124.368 391.944 123.024 391.944H120.752V388.2ZM134.412 396.184C133.82 396.936 133.1 397.32 132.028 397.32C130.668 397.32 129.676 396.216 129.58 394.92H135.628V394.52C135.628 392.04 134.188 390.6 132.076 390.6C129.868 390.6 128.236 392.216 128.236 394.536C128.236 396.712 129.676 398.472 132.028 398.472C133.42 398.472 134.476 398.056 135.356 396.92L134.412 396.184ZM129.58 393.864C129.74 392.6 130.652 391.752 132.028 391.752C133.404 391.752 134.236 392.6 134.284 393.864H129.58ZM137.559 398.28H138.807V394.632C138.807 392.92 139.479 391.848 140.999 391.848C141.223 391.848 141.463 391.88 141.671 391.944L141.751 390.68C141.575 390.616 141.399 390.6 141.239 390.6C140.007 390.6 139.079 391.288 138.743 392.024H138.711C138.711 391.608 138.679 391.192 138.679 390.792H137.495C137.495 391.288 137.559 391.88 137.559 392.568V398.28ZM143.184 398.28H144.432V394.632C144.432 392.92 145.136 391.752 146.752 391.752C147.92 391.752 148.464 392.536 148.464 393.784V398.28H149.712V393.656C149.712 391.848 148.832 390.6 146.864 390.6C145.696 390.6 144.8 391.24 144.464 391.832H144.432V386.184H143.184V398.28ZM152.763 392.568C153.355 392.024 154.187 391.752 154.987 391.752C156.155 391.752 156.843 392.312 156.843 393.4V393.624H156.363C154.523 393.624 151.643 393.768 151.643 396.248C151.643 397.704 152.907 398.472 154.427 398.472C155.563 398.472 156.395 397.928 156.891 397.16H156.923C156.923 397.48 156.923 397.944 157.003 398.28H158.203C158.139 397.896 158.091 397.416 158.091 396.984V393.768C158.091 391.656 157.163 390.6 154.955 390.6C153.867 390.6 152.747 390.968 151.979 391.752L152.763 392.568ZM156.843 394.68V395.16C156.811 396.376 156.075 397.416 154.635 397.416C153.691 397.416 152.987 397.064 152.987 396.12C152.987 395.112 154.011 394.68 155.595 394.68H156.843ZM160.308 401.928H161.556V396.952H161.588C162.052 397.8 163.124 398.472 164.468 398.472C166.564 398.472 168.212 396.776 168.212 394.536C168.212 392.264 166.628 390.6 164.276 390.6C163.188 390.6 162.276 391.08 161.588 391.88H161.556V390.792H160.308V401.928ZM161.556 394.536C161.556 392.968 162.596 391.752 164.212 391.752C165.828 391.752 166.868 392.968 166.868 394.536C166.868 396.104 165.828 397.32 164.212 397.32C162.596 397.32 161.556 396.104 161.556 394.536ZM169.321 397.08C170.057 398.136 170.969 398.472 172.233 398.472C173.721 398.472 175.225 397.816 175.225 396.12C175.225 394.616 174.105 394.136 172.777 393.88C171.785 393.688 170.889 393.416 170.889 392.792C170.889 392.088 171.673 391.752 172.361 391.752C173.097 391.752 173.625 392.12 173.945 392.648L174.985 391.96C174.473 391 173.497 390.6 172.441 390.6C171.049 390.6 169.641 391.352 169.641 392.808C169.641 394.36 170.857 394.664 172.281 394.984C173.081 395.16 173.881 395.368 173.881 396.168C173.881 396.984 173.017 397.32 172.233 397.32C171.353 397.32 170.809 396.92 170.313 396.312L169.321 397.08ZM185.514 390.792H183.306V388.664H182.058V390.792H180.426V391.848H182.058V395.96C182.058 397.512 182.346 398.472 184.122 398.472C184.586 398.472 185.146 398.392 185.578 398.2L185.53 397.064C185.194 397.24 184.794 397.32 184.426 397.32C183.322 397.32 183.306 396.552 183.306 395.592V391.848H185.514V390.792ZM187.043 398.28H188.291V394.632C188.291 392.92 188.995 391.752 190.611 391.752C191.779 391.752 192.323 392.536 192.323 393.784V398.28H193.571V393.656C193.571 391.848 192.691 390.6 190.723 390.6C189.555 390.6 188.659 391.24 188.323 391.832H188.291V386.184H187.043V398.28ZM201.678 396.184C201.086 396.936 200.366 397.32 199.294 397.32C197.934 397.32 196.942 396.216 196.846 394.92H202.894V394.52C202.894 392.04 201.454 390.6 199.342 390.6C197.134 390.6 195.502 392.216 195.502 394.536C195.502 396.712 196.942 398.472 199.294 398.472C200.686 398.472 201.742 398.056 202.622 396.92L201.678 396.184ZM196.846 393.864C197.006 392.6 197.918 391.752 199.294 391.752C200.67 391.752 201.502 392.6 201.55 393.864H196.846ZM209.214 401.928H210.462V396.952H210.494C210.958 397.8 212.03 398.472 213.374 398.472C215.47 398.472 217.118 396.776 217.118 394.536C217.118 392.264 215.534 390.6 213.182 390.6C212.094 390.6 211.182 391.08 210.494 391.88H210.462V390.792H209.214V401.928ZM210.462 394.536C210.462 392.968 211.502 391.752 213.118 391.752C214.734 391.752 215.774 392.968 215.774 394.536C215.774 396.104 214.734 397.32 213.118 397.32C211.502 397.32 210.462 396.104 210.462 394.536ZM224.803 396.184C224.211 396.936 223.491 397.32 222.419 397.32C221.059 397.32 220.067 396.216 219.971 394.92H226.019V394.52C226.019 392.04 224.579 390.6 222.467 390.6C220.259 390.6 218.627 392.216 218.627 394.536C218.627 396.712 220.067 398.472 222.419 398.472C223.811 398.472 224.867 398.056 225.747 396.92L224.803 396.184ZM219.971 393.864C220.131 392.6 221.043 391.752 222.419 391.752C223.795 391.752 224.627 392.6 224.675 393.864H219.971ZM227.95 398.28H229.198V394.632C229.198 392.92 229.87 391.848 231.39 391.848C231.614 391.848 231.854 391.88 232.062 391.944L232.142 390.68C231.966 390.616 231.79 390.6 231.63 390.6C230.398 390.6 229.47 391.288 229.134 392.024H229.102C229.102 391.608 229.07 391.192 229.07 390.792H227.886C227.886 391.288 227.95 391.88 227.95 392.568V398.28ZM232.743 397.08C233.479 398.136 234.391 398.472 235.655 398.472C237.143 398.472 238.647 397.816 238.647 396.12C238.647 394.616 237.527 394.136 236.199 393.88C235.207 393.688 234.311 393.416 234.311 392.792C234.311 392.088 235.095 391.752 235.783 391.752C236.519 391.752 237.047 392.12 237.367 392.648L238.407 391.96C237.895 391 236.919 390.6 235.863 390.6C234.471 390.6 233.063 391.352 233.063 392.808C233.063 394.36 234.279 394.664 235.703 394.984C236.503 395.16 237.303 395.368 237.303 396.168C237.303 396.984 236.439 397.32 235.655 397.32C234.775 397.32 234.231 396.92 233.735 396.312L232.743 397.08ZM239.955 394.536C239.955 396.872 241.651 398.472 243.955 398.472C246.259 398.472 247.955 396.872 247.955 394.536C247.955 392.2 246.259 390.6 243.955 390.6C241.651 390.6 239.955 392.2 239.955 394.536ZM241.299 394.536C241.299 392.968 242.339 391.752 243.955 391.752C245.571 391.752 246.611 392.968 246.611 394.536C246.611 396.104 245.571 397.32 243.955 397.32C242.339 397.32 241.299 396.104 241.299 394.536ZM249.887 398.28H251.135V394.632C251.135 392.92 251.839 391.752 253.455 391.752C254.623 391.752 255.167 392.536 255.167 393.784V398.28H256.415V393.656C256.415 391.848 255.535 390.6 253.567 390.6C252.335 390.6 251.407 391.288 251.071 392.024H251.039C251.039 391.608 251.007 391.192 251.007 390.792H249.823C249.823 391.288 249.887 391.88 249.887 392.568V398.28ZM273.679 390.792H272.335L270.639 396.552H270.607L268.639 390.792H267.327L265.391 396.552H265.359L263.647 390.792H262.271L264.703 398.28H265.983L267.871 392.52H267.903L270.031 398.28H271.263L273.679 390.792ZM275.09 398.28H276.338V394.632C276.338 392.92 277.042 391.752 278.658 391.752C279.826 391.752 280.37 392.536 280.37 393.784V398.28H281.618V393.656C281.618 391.848 280.738 390.6 278.77 390.6C277.602 390.6 276.706 391.24 276.37 391.832H276.338V386.184H275.09V398.28ZM283.549 394.536C283.549 396.872 285.245 398.472 287.549 398.472C289.853 398.472 291.549 396.872 291.549 394.536C291.549 392.2 289.853 390.6 287.549 390.6C285.245 390.6 283.549 392.2 283.549 394.536ZM284.893 394.536C284.893 392.968 285.933 391.752 287.549 391.752C289.165 391.752 290.205 392.968 290.205 394.536C290.205 396.104 289.165 397.32 287.549 397.32C285.933 397.32 284.893 396.104 284.893 394.536ZM297.102 397.08C297.838 398.136 298.75 398.472 300.014 398.472C301.502 398.472 303.006 397.816 303.006 396.12C303.006 394.616 301.886 394.136 300.558 393.88C299.566 393.688 298.67 393.416 298.67 392.792C298.67 392.088 299.454 391.752 300.142 391.752C300.878 391.752 301.406 392.12 301.726 392.648L302.766 391.96C302.254 391 301.278 390.6 300.222 390.6C298.83 390.6 297.422 391.352 297.422 392.808C297.422 394.36 298.638 394.664 300.062 394.984C300.862 395.16 301.662 395.368 301.662 396.168C301.662 396.984 300.798 397.32 300.014 397.32C299.134 397.32 298.59 396.92 298.094 396.312L297.102 397.08ZM304.747 398.28H305.995V394.632C305.995 392.92 306.699 391.752 308.315 391.752C309.483 391.752 310.027 392.536 310.027 393.784V398.28H311.275V393.656C311.275 391.848 310.395 390.6 308.427 390.6C307.259 390.6 306.363 391.24 306.027 391.832H305.995V386.184H304.747V398.28ZM314.325 392.568C314.917 392.024 315.749 391.752 316.549 391.752C317.717 391.752 318.405 392.312 318.405 393.4V393.624H317.925C316.085 393.624 313.205 393.768 313.205 396.248C313.205 397.704 314.469 398.472 315.989 398.472C317.125 398.472 317.957 397.928 318.453 397.16H318.485C318.485 397.48 318.485 397.944 318.565 398.28H319.765C319.701 397.896 319.653 397.416 319.653 396.984V393.768C319.653 391.656 318.725 390.6 316.517 390.6C315.429 390.6 314.309 390.968 313.541 391.752L314.325 392.568ZM318.405 394.68V395.16C318.373 396.376 317.637 397.416 316.197 397.416C315.253 397.416 314.549 397.064 314.549 396.12C314.549 395.112 315.573 394.68 317.157 394.68H318.405ZM321.934 398.28H323.182V394.632C323.182 392.92 323.854 391.848 325.374 391.848C325.598 391.848 325.838 391.88 326.046 391.944L326.126 390.68C325.95 390.616 325.774 390.6 325.614 390.6C324.382 390.6 323.454 391.288 323.118 392.024H323.086C323.086 391.608 323.054 391.192 323.054 390.792H321.87C321.87 391.288 321.934 391.88 321.934 392.568V398.28ZM333.022 396.184C332.43 396.936 331.71 397.32 330.638 397.32C329.278 397.32 328.286 396.216 328.19 394.92H334.238V394.52C334.238 392.04 332.798 390.6 330.686 390.6C328.478 390.6 326.846 392.216 326.846 394.536C326.846 396.712 328.286 398.472 330.638 398.472C332.03 398.472 333.086 398.056 333.966 396.92L333.022 396.184ZM328.19 393.864C328.35 392.6 329.262 391.752 330.638 391.752C332.014 391.752 332.846 392.6 332.894 393.864H328.19ZM342.392 398.28H343.64V386.184H342.392V391.88H342.36C341.672 391.08 340.76 390.6 339.672 390.6C337.32 390.6 335.736 392.264 335.736 394.536C335.736 396.776 337.384 398.472 339.48 398.472C340.824 398.472 341.896 397.8 342.36 396.952H342.392V398.28ZM342.392 394.536C342.392 396.104 341.352 397.32 339.736 397.32C338.12 397.32 337.08 396.104 337.08 394.536C337.08 392.968 338.12 391.752 339.736 391.752C341.352 391.752 342.392 392.968 342.392 394.536ZM356.771 390.792H355.411L353.187 396.664H353.155L350.835 390.792H349.379L352.483 398.328L351.971 399.736C351.699 400.472 351.395 400.968 350.579 400.968C350.227 400.968 349.955 400.936 349.699 400.84L349.539 401.928C349.875 402.088 350.307 402.12 350.659 402.12C352.163 402.12 352.659 401.256 353.155 399.992L356.771 390.792ZM357.69 394.536C357.69 396.872 359.386 398.472 361.69 398.472C363.994 398.472 365.69 396.872 365.69 394.536C365.69 392.2 363.994 390.6 361.69 390.6C359.386 390.6 357.69 392.2 357.69 394.536ZM359.034 394.536C359.034 392.968 360.074 391.752 361.69 391.752C363.306 391.752 364.346 392.968 364.346 394.536C364.346 396.104 363.306 397.32 361.69 397.32C360.074 397.32 359.034 396.104 359.034 394.536ZM374.15 390.792H372.902V394.44C372.902 396.152 372.198 397.32 370.582 397.32C369.414 397.32 368.87 396.536 368.87 395.288V390.792H367.622V395.416C367.622 397.224 368.502 398.472 370.47 398.472C371.702 398.472 372.63 397.784 372.966 397.048H372.998C372.998 397.464 373.03 397.88 373.03 398.28H374.214C374.214 397.784 374.15 397.192 374.15 396.504V390.792ZM385.061 390.792H382.853V388.664H381.605V390.792H379.973V391.848H381.605V395.96C381.605 397.512 381.893 398.472 383.669 398.472C384.133 398.472 384.693 398.392 385.125 398.2L385.077 397.064C384.741 397.24 384.341 397.32 383.973 397.32C382.869 397.32 382.853 396.552 382.853 395.592V391.848H385.061V390.792ZM386.59 398.28H387.838V394.632C387.838 392.92 388.542 391.752 390.158 391.752C391.326 391.752 391.87 392.536 391.87 393.784V398.28H393.118V393.656C393.118 391.848 392.238 390.6 390.27 390.6C389.102 390.6 388.206 391.24 387.87 391.832H387.838V386.184H386.59V398.28ZM395.593 398.28H396.841V390.792H395.593V398.28ZM395.305 387.864C395.305 388.392 395.689 388.776 396.217 388.776C396.745 388.776 397.129 388.392 397.129 387.864C397.129 387.368 396.729 386.952 396.217 386.952C395.705 386.952 395.305 387.368 395.305 387.864ZM398.493 397.08C399.229 398.136 400.141 398.472 401.405 398.472C402.893 398.472 404.397 397.816 404.397 396.12C404.397 394.616 403.277 394.136 401.949 393.88C400.957 393.688 400.061 393.416 400.061 392.792C400.061 392.088 400.845 391.752 401.533 391.752C402.269 391.752 402.797 392.12 403.117 392.648L404.157 391.96C403.645 391 402.669 390.6 401.613 390.6C400.221 390.6 398.813 391.352 398.813 392.808C398.813 394.36 400.029 394.664 401.453 394.984C402.253 395.16 403.053 395.368 403.053 396.168C403.053 396.984 402.189 397.32 401.405 397.32C400.525 397.32 399.981 396.92 399.485 396.312L398.493 397.08ZM410.59 398.28H411.838V394.632C411.838 392.92 412.542 391.752 414.158 391.752C415.182 391.752 415.598 392.392 415.598 394.04V398.28H416.846V393.96C416.846 392.616 417.726 391.752 418.782 391.752C420.238 391.752 420.606 392.76 420.606 393.8V398.28H421.854V393.736C421.854 391.8 421.15 390.6 419.006 390.6C417.87 390.6 417.182 391.144 416.638 392.024C416.398 391.512 415.886 390.6 414.27 390.6C413.038 390.6 412.11 391.288 411.774 392.024H411.742C411.742 391.608 411.71 391.192 411.71 390.792H410.526C410.526 391.288 410.59 391.88 410.59 392.568V398.28ZM424.327 398.28H425.575V390.792H424.327V398.28ZM424.039 387.864C424.039 388.392 424.423 388.776 424.951 388.776C425.479 388.776 425.863 388.392 425.863 387.864C425.863 387.368 425.463 386.952 424.951 386.952C424.439 386.952 424.039 387.368 424.039 387.864ZM435.531 390.792H434.283V392.072H434.251C433.755 391.08 432.619 390.6 431.611 390.6C429.227 390.6 427.627 392.088 427.627 394.536C427.627 396.744 429.259 398.376 431.611 398.376C432.603 398.376 433.659 397.944 434.251 396.984H434.283V397.944C434.283 399.528 433.691 400.968 431.451 400.968C430.299 400.968 429.451 400.52 428.667 399.672L427.771 400.696C428.827 401.736 429.995 402.12 431.451 402.12C434.075 402.12 435.531 400.648 435.531 397.944V390.792ZM428.971 394.536C428.971 392.968 430.043 391.752 431.611 391.752C433.195 391.752 434.283 392.888 434.283 394.504C434.283 395.944 433.323 397.224 431.611 397.224C430.155 397.224 428.971 396.056 428.971 394.536ZM437.84 398.28H439.088V394.632C439.088 392.92 439.792 391.752 441.408 391.752C442.576 391.752 443.12 392.536 443.12 393.784V398.28H444.368V393.656C444.368 391.848 443.488 390.6 441.52 390.6C440.352 390.6 439.456 391.24 439.12 391.832H439.088V386.184H437.84V398.28ZM450.827 390.792H448.619V388.664H447.371V390.792H445.739V391.848H447.371V395.96C447.371 397.512 447.659 398.472 449.435 398.472C449.899 398.472 450.459 398.392 450.891 398.2L450.843 397.064C450.507 397.24 450.107 397.32 449.739 397.32C448.635 397.32 448.619 396.552 448.619 395.592V391.848H450.827V390.792ZM456.745 398.28H457.993V396.952H458.025C458.489 397.8 459.561 398.472 460.905 398.472C463.001 398.472 464.649 396.776 464.649 394.536C464.649 392.264 463.065 390.6 460.713 390.6C459.625 390.6 458.713 391.08 458.025 391.88H457.993V386.184H456.745V398.28ZM457.993 394.536C457.993 392.968 459.033 391.752 460.649 391.752C462.265 391.752 463.305 392.968 463.305 394.536C463.305 396.104 462.265 397.32 460.649 397.32C459.033 397.32 457.993 396.104 457.993 394.536ZM472.334 396.184C471.742 396.936 471.022 397.32 469.95 397.32C468.59 397.32 467.598 396.216 467.502 394.92H473.55V394.52C473.55 392.04 472.11 390.6 469.998 390.6C467.79 390.6 466.158 392.216 466.158 394.536C466.158 396.712 467.598 398.472 469.95 398.472C471.342 398.472 472.398 398.056 473.278 396.92L472.334 396.184ZM467.502 393.864C467.662 392.6 468.574 391.752 469.95 391.752C471.326 391.752 472.158 392.6 472.206 393.864H467.502ZM480.622 392.568C481.214 392.024 482.046 391.752 482.846 391.752C484.014 391.752 484.702 392.312 484.702 393.4V393.624H484.222C482.382 393.624 479.502 393.768 479.502 396.248C479.502 397.704 480.766 398.472 482.286 398.472C483.422 398.472 484.254 397.928 484.75 397.16H484.782C484.782 397.48 484.782 397.944 484.862 398.28H486.062C485.998 397.896 485.95 397.416 485.95 396.984V393.768C485.95 391.656 485.022 390.6 482.814 390.6C481.726 390.6 480.606 390.968 479.838 391.752L480.622 392.568ZM484.702 394.68V395.16C484.67 396.376 483.934 397.416 482.494 397.416C481.55 397.416 480.846 397.064 480.846 396.12C480.846 395.112 481.87 394.68 483.454 394.68H484.702ZM488.167 398.28H489.415V396.952H489.447C489.911 397.8 490.983 398.472 492.327 398.472C494.423 398.472 496.071 396.776 496.071 394.536C496.071 392.264 494.487 390.6 492.135 390.6C491.047 390.6 490.135 391.08 489.447 391.88H489.415V386.184H488.167V398.28ZM489.415 394.536C489.415 392.968 490.455 391.752 492.071 391.752C493.687 391.752 494.727 392.968 494.727 394.536C494.727 396.104 493.687 397.32 492.071 397.32C490.455 397.32 489.415 396.104 489.415 394.536ZM498.124 398.28H499.372V386.184H498.124V398.28ZM507.6 396.184C507.008 396.936 506.288 397.32 505.216 397.32C503.856 397.32 502.864 396.216 502.768 394.92H508.816V394.52C508.816 392.04 507.376 390.6 505.264 390.6C503.056 390.6 501.424 392.216 501.424 394.536C501.424 396.712 502.864 398.472 505.216 398.472C506.608 398.472 507.664 398.056 508.544 396.92L507.6 396.184ZM502.768 393.864C502.928 392.6 503.84 391.752 505.216 391.752C506.592 391.752 507.424 392.6 507.472 393.864H502.768ZM519.296 390.792H517.088V388.664H515.84V390.792H514.208V391.848H515.84V395.96C515.84 397.512 516.128 398.472 517.904 398.472C518.368 398.472 518.928 398.392 519.36 398.2L519.312 397.064C518.976 397.24 518.576 397.32 518.208 397.32C517.104 397.32 517.088 396.552 517.088 395.592V391.848H519.296V390.792ZM520.393 394.536C520.393 396.872 522.089 398.472 524.393 398.472C526.697 398.472 528.393 396.872 528.393 394.536C528.393 392.2 526.697 390.6 524.393 390.6C522.089 390.6 520.393 392.2 520.393 394.536ZM521.737 394.536C521.737 392.968 522.777 391.752 524.393 391.752C526.009 391.752 527.049 392.968 527.049 394.536C527.049 396.104 526.009 397.32 524.393 397.32C522.777 397.32 521.737 396.104 521.737 394.536ZM542.25 390.792H541.002V392.072H540.97C540.474 391.08 539.338 390.6 538.33 390.6C535.946 390.6 534.346 392.088 534.346 394.536C534.346 396.744 535.978 398.376 538.33 398.376C539.322 398.376 540.378 397.944 540.97 396.984H541.002V397.944C541.002 399.528 540.41 400.968 538.17 400.968C537.018 400.968 536.17 400.52 535.386 399.672L534.49 400.696C535.546 401.736 536.714 402.12 538.17 402.12C540.794 402.12 542.25 400.648 542.25 397.944V390.792ZM535.69 394.536C535.69 392.968 536.762 391.752 538.33 391.752C539.914 391.752 541.002 392.888 541.002 394.504C541.002 395.944 540.042 397.224 538.33 397.224C536.874 397.224 535.69 396.056 535.69 394.536ZM544.671 398.28H545.919V390.792H544.671V398.28ZM544.383 387.864C544.383 388.392 544.767 388.776 545.295 388.776C545.823 388.776 546.207 388.392 546.207 387.864C546.207 387.368 545.807 386.952 545.295 386.952C544.783 386.952 544.383 387.368 544.383 387.864ZM554.771 390.792H553.427L551.203 396.664H551.171L548.835 390.792H547.379L550.435 398.28H551.811L554.771 390.792ZM561.866 396.184C561.274 396.936 560.554 397.32 559.482 397.32C558.122 397.32 557.13 396.216 557.034 394.92H563.082V394.52C563.082 392.04 561.642 390.6 559.53 390.6C557.322 390.6 555.69 392.216 555.69 394.536C555.69 396.712 557.13 398.472 559.482 398.472C560.874 398.472 561.93 398.056 562.81 396.92L561.866 396.184ZM557.034 393.864C557.194 392.6 558.106 391.752 559.482 391.752C560.858 391.752 561.69 392.6 561.738 393.864H557.034ZM570.153 392.568C570.745 392.024 571.577 391.752 572.377 391.752C573.545 391.752 574.233 392.312 574.233 393.4V393.624H573.753C571.913 393.624 569.033 393.768 569.033 396.248C569.033 397.704 570.297 398.472 571.817 398.472C572.953 398.472 573.785 397.928 574.281 397.16H574.313C574.313 397.48 574.313 397.944 574.393 398.28H575.593C575.529 397.896 575.481 397.416 575.481 396.984V393.768C575.481 391.656 574.553 390.6 572.345 390.6C571.257 390.6 570.137 390.968 569.369 391.752L570.153 392.568ZM574.233 394.68V395.16C574.201 396.376 573.465 397.416 572.025 397.416C571.081 397.416 570.377 397.064 570.377 396.12C570.377 395.112 571.401 394.68 572.985 394.68H574.233ZM584.082 391.784C583.33 390.968 582.306 390.6 581.202 390.6C578.898 390.6 577.33 392.264 577.33 394.536C577.33 396.84 578.882 398.472 581.202 398.472C582.29 398.472 583.314 398.104 584.034 397.272L583.106 396.392C582.642 397.032 582.018 397.32 581.202 397.32C579.682 397.32 578.674 396.072 578.674 394.536C578.674 393 579.522 391.752 581.202 391.752C581.954 391.752 582.562 392.024 583.09 392.664L584.082 391.784ZM591.801 391.784C591.049 390.968 590.025 390.6 588.921 390.6C586.617 390.6 585.049 392.264 585.049 394.536C585.049 396.84 586.601 398.472 588.921 398.472C590.009 398.472 591.033 398.104 591.753 397.272L590.825 396.392C590.361 397.032 589.737 397.32 588.921 397.32C587.401 397.32 586.393 396.072 586.393 394.536C586.393 393 587.241 391.752 588.921 391.752C589.673 391.752 590.281 392.024 590.809 392.664L591.801 391.784ZM598.944 396.184C598.352 396.936 597.632 397.32 596.56 397.32C595.2 397.32 594.208 396.216 594.112 394.92H600.16V394.52C600.16 392.04 598.72 390.6 596.608 390.6C594.4 390.6 592.768 392.216 592.768 394.536C592.768 396.712 594.208 398.472 596.56 398.472C597.952 398.472 599.008 398.056 599.888 396.92L598.944 396.184ZM594.112 393.864C594.272 392.6 595.184 391.752 596.56 391.752C597.936 391.752 598.768 392.6 598.816 393.864H594.112ZM601.258 397.08C601.994 398.136 602.906 398.472 604.17 398.472C605.658 398.472 607.162 397.816 607.162 396.12C607.162 394.616 606.042 394.136 604.714 393.88C603.722 393.688 602.826 393.416 602.826 392.792C602.826 392.088 603.61 391.752 604.298 391.752C605.034 391.752 605.562 392.12 605.882 392.648L606.922 391.96C606.41 391 605.434 390.6 604.378 390.6C602.986 390.6 601.578 391.352 601.578 392.808C601.578 394.36 602.794 394.664 604.218 394.984C605.018 395.16 605.818 395.368 605.818 396.168C605.818 396.984 604.954 397.32 604.17 397.32C603.29 397.32 602.746 396.92 602.25 396.312L601.258 397.08ZM608.071 397.08C608.807 398.136 609.719 398.472 610.983 398.472C612.471 398.472 613.975 397.816 613.975 396.12C613.975 394.616 612.855 394.136 611.527 393.88C610.535 393.688 609.639 393.416 609.639 392.792C609.639 392.088 610.423 391.752 611.111 391.752C611.847 391.752 612.375 392.12 612.695 392.648L613.735 391.96C613.223 391 612.247 390.6 611.191 390.6C609.799 390.6 608.391 391.352 608.391 392.808C608.391 394.36 609.607 394.664 611.031 394.984C611.831 395.16 612.631 395.368 612.631 396.168C612.631 396.984 611.767 397.32 610.983 397.32C610.103 397.32 609.559 396.92 609.063 396.312L608.071 397.08ZM619.736 394.536C619.736 396.872 621.432 398.472 623.736 398.472C626.04 398.472 627.736 396.872 627.736 394.536C627.736 392.2 626.04 390.6 623.736 390.6C621.432 390.6 619.736 392.2 619.736 394.536ZM621.08 394.536C621.08 392.968 622.12 391.752 623.736 391.752C625.352 391.752 626.392 392.968 626.392 394.536C626.392 396.104 625.352 397.32 623.736 397.32C622.12 397.32 621.08 396.104 621.08 394.536ZM629.668 398.28H630.916V394.632C630.916 392.92 631.588 391.848 633.108 391.848C633.332 391.848 633.572 391.88 633.78 391.944L633.86 390.68C633.684 390.616 633.508 390.6 633.348 390.6C632.116 390.6 631.188 391.288 630.852 392.024H630.82C630.82 391.608 630.788 391.192 630.788 390.792H629.604C629.604 391.288 629.668 391.88 629.668 392.568V398.28ZM646.067 391.784C645.315 390.968 644.291 390.6 643.187 390.6C640.883 390.6 639.315 392.264 639.315 394.536C639.315 396.84 640.867 398.472 643.187 398.472C644.275 398.472 645.299 398.104 646.019 397.272L645.091 396.392C644.627 397.032 644.003 397.32 643.187 397.32C641.667 397.32 640.659 396.072 640.659 394.536C640.659 393 641.507 391.752 643.187 391.752C643.939 391.752 644.547 392.024 645.075 392.664L646.067 391.784ZM647.033 394.536C647.033 396.872 648.729 398.472 651.033 398.472C653.337 398.472 655.033 396.872 655.033 394.536C655.033 392.2 653.337 390.6 651.033 390.6C648.729 390.6 647.033 392.2 647.033 394.536ZM648.377 394.536C648.377 392.968 649.417 391.752 651.033 391.752C652.649 391.752 653.689 392.968 653.689 394.536C653.689 396.104 652.649 397.32 651.033 397.32C649.417 397.32 648.377 396.104 648.377 394.536ZM656.965 398.28H658.213V394.632C658.213 392.92 658.917 391.752 660.533 391.752C661.701 391.752 662.245 392.536 662.245 393.784V398.28H663.493V393.656C663.493 391.848 662.613 390.6 660.645 390.6C659.413 390.6 658.485 391.288 658.149 392.024H658.117C658.117 391.608 658.085 391.192 658.085 390.792H656.901C656.901 391.288 656.965 391.88 656.965 392.568V398.28ZM669.952 390.792H667.744V388.664H666.496V390.792H664.864V391.848H666.496V395.96C666.496 397.512 666.784 398.472 668.56 398.472C669.024 398.472 669.584 398.392 670.016 398.2L669.968 397.064C669.632 397.24 669.232 397.32 668.864 397.32C667.76 397.32 667.744 396.552 667.744 395.592V391.848H669.952V390.792ZM672.169 392.568C672.761 392.024 673.593 391.752 674.393 391.752C675.561 391.752 676.249 392.312 676.249 393.4V393.624H675.769C673.929 393.624 671.049 393.768 671.049 396.248C671.049 397.704 672.313 398.472 673.833 398.472C674.969 398.472 675.801 397.928 676.297 397.16H676.329C676.329 397.48 676.329 397.944 676.409 398.28H677.609C677.545 397.896 677.497 397.416 677.497 396.984V393.768C677.497 391.656 676.569 390.6 674.361 390.6C673.273 390.6 672.153 390.968 671.385 391.752L672.169 392.568ZM676.249 394.68V395.16C676.217 396.376 675.481 397.416 674.041 397.416C673.097 397.416 672.393 397.064 672.393 396.12C672.393 395.112 673.417 394.68 675.001 394.68H676.249ZM686.098 391.784C685.346 390.968 684.322 390.6 683.218 390.6C680.914 390.6 679.346 392.264 679.346 394.536C679.346 396.84 680.898 398.472 683.218 398.472C684.306 398.472 685.33 398.104 686.05 397.272L685.122 396.392C684.658 397.032 684.034 397.32 683.218 397.32C681.698 397.32 680.69 396.072 680.69 394.536C680.69 393 681.538 391.752 683.218 391.752C683.97 391.752 684.578 392.024 685.106 392.664L686.098 391.784ZM691.593 390.792H689.385V388.664H688.137V390.792H686.505V391.848H688.137V395.96C688.137 397.512 688.424 398.472 690.201 398.472C690.665 398.472 691.225 398.392 691.657 398.2L691.609 397.064C691.273 397.24 690.873 397.32 690.505 397.32C689.401 397.32 689.385 396.552 689.385 395.592V391.848H691.593V390.792ZM703.943 390.792H702.583L700.359 396.664H700.327L698.007 390.792H696.551L699.655 398.328L699.143 399.736C698.871 400.472 698.567 400.968 697.751 400.968C697.399 400.968 697.127 400.936 696.871 400.84L696.711 401.928C697.047 402.088 697.479 402.12 697.831 402.12C699.335 402.12 699.831 401.256 700.327 399.992L703.943 390.792ZM704.861 394.536C704.861 396.872 706.557 398.472 708.861 398.472C711.165 398.472 712.861 396.872 712.861 394.536C712.861 392.2 711.165 390.6 708.861 390.6C706.557 390.6 704.861 392.2 704.861 394.536ZM706.205 394.536C706.205 392.968 707.245 391.752 708.861 391.752C710.477 391.752 711.517 392.968 711.517 394.536C711.517 396.104 710.477 397.32 708.861 397.32C707.245 397.32 706.205 396.104 706.205 394.536ZM721.321 390.792H720.073V394.44C720.073 396.152 719.369 397.32 717.753 397.32C716.585 397.32 716.041 396.536 716.041 395.288V390.792H714.793V395.416C714.793 397.224 715.673 398.472 717.641 398.472C718.873 398.472 719.801 397.784 720.137 397.048H720.169C720.169 397.464 720.201 397.88 720.201 398.28H721.385C721.385 397.784 721.321 397.192 721.321 396.504V390.792ZM723.684 398.28H724.932V394.632C724.932 392.92 725.604 391.848 727.124 391.848C727.348 391.848 727.588 391.88 727.796 391.944L727.876 390.68C727.7 390.616 727.524 390.6 727.364 390.6C726.132 390.6 725.204 391.288 724.868 392.024H724.836C724.836 391.608 724.804 391.192 724.804 390.792H723.62C723.62 391.288 723.684 391.88 723.684 392.568V398.28ZM734.45 392.568C735.042 392.024 735.874 391.752 736.674 391.752C737.842 391.752 738.53 392.312 738.53 393.4V393.624H738.05C736.21 393.624 733.33 393.768 733.33 396.248C733.33 397.704 734.594 398.472 736.114 398.472C737.25 398.472 738.082 397.928 738.578 397.16H738.61C738.61 397.48 738.61 397.944 738.69 398.28H739.89C739.826 397.896 739.778 397.416 739.778 396.984V393.768C739.778 391.656 738.85 390.6 736.642 390.6C735.554 390.6 734.434 390.968 733.666 391.752L734.45 392.568ZM738.53 394.68V395.16C738.498 396.376 737.762 397.416 736.322 397.416C735.378 397.416 734.674 397.064 734.674 396.12C734.674 395.112 735.698 394.68 737.282 394.68H738.53ZM748.283 398.28H749.531V386.184H748.283V391.88H748.251C747.563 391.08 746.651 390.6 745.563 390.6C743.211 390.6 741.627 392.264 741.627 394.536C741.627 396.776 743.275 398.472 745.371 398.472C746.715 398.472 747.787 397.8 748.251 396.952H748.283V398.28ZM748.283 394.536C748.283 396.104 747.243 397.32 745.627 397.32C744.011 397.32 742.971 396.104 742.971 394.536C742.971 392.968 744.011 391.752 745.627 391.752C747.243 391.752 748.283 392.968 748.283 394.536ZM751.84 398.28H753.088V394.632C753.088 392.92 753.792 391.752 755.408 391.752C756.432 391.752 756.848 392.392 756.848 394.04V398.28H758.096V393.96C758.096 392.616 758.976 391.752 760.032 391.752C761.488 391.752 761.856 392.76 761.856 393.8V398.28H763.104V393.736C763.104 391.8 762.4 390.6 760.256 390.6C759.12 390.6 758.432 391.144 757.888 392.024C757.648 391.512 757.136 390.6 755.52 390.6C754.288 390.6 753.36 391.288 753.024 392.024H752.992C752.992 391.608 752.96 391.192 752.96 390.792H751.776C751.776 391.288 751.84 391.88 751.84 392.568V398.28ZM765.577 398.28H766.825V390.792H765.577V398.28ZM765.289 387.864C765.289 388.392 765.673 388.776 766.201 388.776C766.729 388.776 767.113 388.392 767.113 387.864C767.113 387.368 766.713 386.952 766.201 386.952C765.689 386.952 765.289 387.368 765.289 387.864ZM769.309 398.28H770.557V394.632C770.557 392.92 771.261 391.752 772.877 391.752C774.045 391.752 774.589 392.536 774.589 393.784V398.28H775.837V393.656C775.837 391.848 774.957 390.6 772.989 390.6C771.757 390.6 770.829 391.288 770.493 392.024H770.461C770.461 391.608 770.429 391.192 770.429 390.792H769.245C769.245 391.288 769.309 391.88 769.309 392.568V398.28ZM779.24 396.456C778.712 396.456 778.28 396.888 778.28 397.416C778.28 397.944 778.744 398.376 779.24 398.376C779.736 398.376 780.2 397.944 780.2 397.416C780.2 396.888 779.768 396.456 779.24 396.456Z" fill="#333333"/>
<rect x="380.5" y="430.78" width="139" height="35" rx="3.5" fill="#6C3078"/>
<path d="M401.106 452.28H402.87V448.08H404.158L406.454 452.28H408.582L405.95 447.898C407.42 447.688 408.246 446.638 408.246 445.21C408.246 442.984 406.454 442.368 404.55 442.368H401.106V452.28ZM402.87 446.568V443.88H404.396C405.306 443.88 406.398 444.02 406.398 445.196C406.398 446.484 405.236 446.568 404.242 446.568H402.87ZM416.238 449.508V449.046C416.238 446.708 414.964 445.392 413.088 445.392C411.058 445.392 409.434 446.806 409.434 448.92C409.434 451.034 411.058 452.448 413.088 452.448C414.152 452.448 415.146 452.07 415.93 451.104L414.726 450.194C414.306 450.712 413.76 451.104 412.92 451.104C411.982 451.104 411.226 450.502 411.114 449.508H416.238ZM411.114 448.248C411.24 447.282 411.856 446.652 412.85 446.652C413.9 446.652 414.544 447.268 414.558 448.248H411.114ZM424.725 445.56H423.129V446.568H423.101C422.611 445.756 421.729 445.392 420.791 445.392C418.719 445.392 417.473 446.932 417.473 448.92C417.473 450.908 418.803 452.448 420.721 452.448C421.981 452.448 422.653 451.86 423.003 451.426H423.045V455.472H424.725V445.56ZM419.153 448.92C419.153 447.87 419.895 446.904 421.127 446.904C422.359 446.904 423.101 447.87 423.101 448.92C423.101 449.97 422.359 450.936 421.127 450.936C419.895 450.936 419.153 449.97 419.153 448.92ZM432.76 445.56H431.08V449.228C431.08 450.124 430.646 450.936 429.54 450.936C428.364 450.936 428.308 449.704 428.308 448.962V445.56H426.628V449.802C426.628 451.174 427.272 452.448 429.078 452.448C430.198 452.448 430.828 451.874 431.136 451.202H431.164V452.28H432.76V445.56ZM441.135 449.508V449.046C441.135 446.708 439.861 445.392 437.985 445.392C435.955 445.392 434.331 446.806 434.331 448.92C434.331 451.034 435.955 452.448 437.985 452.448C439.049 452.448 440.043 452.07 440.827 451.104L439.623 450.194C439.203 450.712 438.657 451.104 437.817 451.104C436.879 451.104 436.123 450.502 436.011 449.508H441.135ZM436.011 448.248C436.137 447.282 436.753 446.652 437.747 446.652C438.797 446.652 439.441 447.268 439.455 448.248H436.011ZM447.41 446.414C446.864 445.672 445.912 445.392 445.016 445.392C443.658 445.392 442.314 446.064 442.314 447.562C442.314 450.124 445.94 449.032 445.94 450.418C445.94 450.95 445.31 451.188 444.82 451.188C444.106 451.188 443.658 450.838 443.224 450.362L442.104 451.412C442.79 452.182 443.686 452.448 444.722 452.448C446.094 452.448 447.62 451.888 447.62 450.292C447.62 447.674 443.994 448.654 443.994 447.45C443.994 446.946 444.526 446.736 444.974 446.736C445.548 446.736 445.968 446.974 446.29 447.422L447.41 446.414ZM449.529 446.988V450.068C449.529 451.65 449.949 452.448 451.727 452.448C452.119 452.448 452.707 452.392 453.057 452.224V450.81C452.847 450.964 452.441 451.02 452.147 451.02C451.405 451.02 451.209 450.6 451.209 449.928V446.988H453.057V445.56H451.209V443.614H449.529V445.56H448.143V446.988H449.529ZM462.711 452.28H464.223V448.416C464.223 447.464 464.223 445.392 461.353 445.392C460.289 445.392 459.239 445.714 458.497 446.47L459.379 447.352C459.827 446.932 460.471 446.652 461.171 446.652C462.067 446.652 462.711 447.086 462.711 447.912V448.094H462.291C460.611 448.094 458.063 448.248 458.063 450.432C458.063 451.762 459.267 452.448 460.513 452.448C461.409 452.448 462.193 452.112 462.669 451.356H462.711V452.28ZM462.613 449.648C462.613 450.586 462.067 451.188 460.919 451.188C460.373 451.188 459.743 450.922 459.743 450.306C459.743 449.34 461.339 449.27 462.263 449.27H462.613V449.648ZM471.784 446.414C471.14 445.7 470.202 445.392 469.348 445.392C467.318 445.392 465.694 446.806 465.694 448.92C465.694 451.034 467.318 452.448 469.348 452.448C469.936 452.448 471.084 452.196 471.77 451.51L470.65 450.306C470.342 450.712 469.866 450.936 469.348 450.936C468.116 450.936 467.374 449.97 467.374 448.92C467.374 447.87 468.116 446.904 469.348 446.904C469.796 446.904 470.23 447.17 470.622 447.576L471.784 446.414ZM478.538 446.414C477.894 445.7 476.956 445.392 476.102 445.392C474.072 445.392 472.448 446.806 472.448 448.92C472.448 451.034 474.072 452.448 476.102 452.448C476.69 452.448 477.838 452.196 478.524 451.51L477.404 450.306C477.096 450.712 476.62 450.936 476.102 450.936C474.87 450.936 474.128 449.97 474.128 448.92C474.128 447.87 474.87 446.904 476.102 446.904C476.55 446.904 476.984 447.17 477.376 447.576L478.538 446.414ZM486.006 449.508V449.046C486.006 446.708 484.732 445.392 482.856 445.392C480.826 445.392 479.202 446.806 479.202 448.92C479.202 451.034 480.826 452.448 482.856 452.448C483.92 452.448 484.914 452.07 485.698 451.104L484.494 450.194C484.074 450.712 483.528 451.104 482.688 451.104C481.75 451.104 480.994 450.502 480.882 449.508H486.006ZM480.882 448.248C481.008 447.282 481.624 446.652 482.618 446.652C483.668 446.652 484.312 447.268 484.326 448.248H480.882ZM492.281 446.414C491.735 445.672 490.783 445.392 489.887 445.392C488.529 445.392 487.185 446.064 487.185 447.562C487.185 450.124 490.811 449.032 490.811 450.418C490.811 450.95 490.181 451.188 489.691 451.188C488.977 451.188 488.529 450.838 488.095 450.362L486.975 451.412C487.661 452.182 488.557 452.448 489.593 452.448C490.965 452.448 492.491 451.888 492.491 450.292C492.491 447.674 488.865 448.654 488.865 447.45C488.865 446.946 489.397 446.736 489.845 446.736C490.419 446.736 490.839 446.974 491.161 447.422L492.281 446.414ZM498.502 446.414C497.956 445.672 497.004 445.392 496.108 445.392C494.75 445.392 493.406 446.064 493.406 447.562C493.406 450.124 497.032 449.032 497.032 450.418C497.032 450.95 496.402 451.188 495.912 451.188C495.198 451.188 494.75 450.838 494.316 450.362L493.196 451.412C493.882 452.182 494.778 452.448 495.814 452.448C497.186 452.448 498.712 451.888 498.712 450.292C498.712 447.674 495.086 448.654 495.086 447.45C495.086 446.946 495.618 446.736 496.066 446.736C496.64 446.736 497.06 446.974 497.382 447.422L498.502 446.414Z" fill="white"/>
<rect x="380.5" y="430.78" width="139" height="35" rx="3.5" stroke="#6C3078"/>
<rect x="1" y="1" width="898" height="472.28" rx="3" stroke="#E7EDF9" stroke-width="2"/>
</svg>
