<svg width="400" height="48" viewBox="0 0 400 48" fill="none" xmlns="http://www.w3.org/2000/svg">
<rect width="400" height="8" rx="4" fill="#D2D6DD"/>
<rect width="200" height="8" rx="4" fill="#9EA6B5"/>
<path d="M152.908 40H154.252V34.912H156.524C158.124 34.912 160.236 34.256 160.236 31.776C160.236 29.408 158.348 28.672 156.268 28.672H152.908V40ZM154.252 29.92H156.524C157.868 29.92 158.796 30.528 158.796 31.792C158.796 33.056 157.868 33.664 156.524 33.664H154.252V29.92ZM162.168 40H163.416V36.352C163.416 34.64 164.088 33.568 165.608 33.568C165.832 33.568 166.072 33.6 166.28 33.664L166.36 32.4C166.184 32.336 166.008 32.32 165.848 32.32C164.616 32.32 163.688 33.008 163.352 33.744H163.32C163.32 33.328 163.288 32.912 163.288 32.512H162.104C162.104 33.008 162.168 33.6 162.168 34.288V40ZM167.08 36.256C167.08 38.592 168.776 40.192 171.08 40.192C173.384 40.192 175.08 38.592 175.08 36.256C175.08 33.92 173.384 32.32 171.08 32.32C168.776 32.32 167.08 33.92 167.08 36.256ZM168.424 36.256C168.424 34.688 169.464 33.472 171.08 33.472C172.696 33.472 173.736 34.688 173.736 36.256C173.736 37.824 172.696 39.04 171.08 39.04C169.464 39.04 168.424 37.824 168.424 36.256ZM184.484 32.512H183.236V33.792H183.204C182.708 32.8 181.572 32.32 180.564 32.32C178.18 32.32 176.58 33.808 176.58 36.256C176.58 38.464 178.212 40.096 180.564 40.096C181.556 40.096 182.612 39.664 183.204 38.704H183.236V39.664C183.236 41.248 182.644 42.688 180.404 42.688C179.252 42.688 178.404 42.24 177.62 41.392L176.724 42.416C177.78 43.456 178.948 43.84 180.404 43.84C183.028 43.84 184.484 42.368 184.484 39.664V32.512ZM177.924 36.256C177.924 34.688 178.996 33.472 180.564 33.472C182.148 33.472 183.236 34.608 183.236 36.224C183.236 37.664 182.276 38.944 180.564 38.944C179.108 38.944 177.924 37.776 177.924 36.256ZM186.793 40H188.041V36.352C188.041 34.64 188.713 33.568 190.233 33.568C190.457 33.568 190.697 33.6 190.905 33.664L190.985 32.4C190.809 32.336 190.633 32.32 190.473 32.32C189.241 32.32 188.313 33.008 187.977 33.744H187.945C187.945 33.328 187.913 32.912 187.913 32.512H186.729C186.729 33.008 186.793 33.6 186.793 34.288V40ZM197.881 37.904C197.289 38.656 196.569 39.04 195.497 39.04C194.137 39.04 193.145 37.936 193.049 36.64H199.097V36.24C199.097 33.76 197.657 32.32 195.545 32.32C193.337 32.32 191.705 33.936 191.705 36.256C191.705 38.432 193.145 40.192 195.497 40.192C196.889 40.192 197.945 39.776 198.825 38.64L197.881 37.904ZM193.049 35.584C193.209 34.32 194.121 33.472 195.497 33.472C196.873 33.472 197.705 34.32 197.753 35.584H193.049ZM200.196 38.8C200.932 39.856 201.844 40.192 203.108 40.192C204.596 40.192 206.1 39.536 206.1 37.84C206.1 36.336 204.98 35.856 203.652 35.6C202.66 35.408 201.764 35.136 201.764 34.512C201.764 33.808 202.548 33.472 203.236 33.472C203.972 33.472 204.5 33.84 204.82 34.368L205.86 33.68C205.348 32.72 204.372 32.32 203.316 32.32C201.924 32.32 200.516 33.072 200.516 34.528C200.516 36.08 201.732 36.384 203.156 36.704C203.956 36.88 204.756 37.088 204.756 37.888C204.756 38.704 203.892 39.04 203.108 39.04C202.228 39.04 201.684 38.64 201.188 38.032L200.196 38.8ZM207.008 38.8C207.744 39.856 208.656 40.192 209.92 40.192C211.408 40.192 212.912 39.536 212.912 37.84C212.912 36.336 211.792 35.856 210.464 35.6C209.472 35.408 208.576 35.136 208.576 34.512C208.576 33.808 209.36 33.472 210.048 33.472C210.784 33.472 211.312 33.84 211.632 34.368L212.672 33.68C212.16 32.72 211.184 32.32 210.128 32.32C208.736 32.32 207.328 33.072 207.328 34.528C207.328 36.08 208.544 36.384 209.968 36.704C210.768 36.88 211.568 37.088 211.568 37.888C211.568 38.704 210.704 39.04 209.92 39.04C209.04 39.04 208.496 38.64 208 38.032L207.008 38.8ZM226.93 28.672H218.098V29.92H221.842V40H223.186V29.92H226.93V28.672ZM232.256 37.904C231.664 38.656 230.944 39.04 229.872 39.04C228.512 39.04 227.52 37.936 227.424 36.64H233.472V36.24C233.472 33.76 232.032 32.32 229.92 32.32C227.712 32.32 226.08 33.936 226.08 36.256C226.08 38.432 227.52 40.192 229.872 40.192C231.264 40.192 232.32 39.776 233.2 38.64L232.256 37.904ZM227.424 35.584C227.584 34.32 228.496 33.472 229.872 33.472C231.248 33.472 232.08 34.32 232.128 35.584H227.424ZM234.267 40H235.819L238.155 36.768L240.523 40H242.171L239.083 35.968L241.659 32.512H240.139L238.267 35.2L236.283 32.512H234.651L237.339 35.968L234.267 40ZM247.499 32.512H245.291V30.384H244.043V32.512H242.411V33.568H244.043V37.68C244.043 39.232 244.331 40.192 246.107 40.192C246.571 40.192 247.131 40.112 247.563 39.92L247.515 38.784C247.179 38.96 246.779 39.04 246.411 39.04C245.307 39.04 245.291 38.272 245.291 37.312V33.568H247.499V32.512Z" fill="#434B58"/>
</svg>
