<svg width="510" height="83" viewBox="0 0 510 83" fill="none" xmlns="http://www.w3.org/2000/svg">
<path d="M1.106 12H4.802C7.182 12 10.052 10.432 10.052 7.044C10.052 3.684 7.616 2.088 5.012 2.088H1.106V12ZM2.87 10.404V3.684H4.48C6.636 3.684 8.204 4.636 8.204 7.044C8.204 9.452 6.398 10.404 4.186 10.404H2.87ZM18.043 9.228V8.766C18.043 6.428 16.769 5.112 14.893 5.112C12.863 5.112 11.239 6.526 11.239 8.64C11.239 10.754 12.863 12.168 14.893 12.168C15.957 12.168 16.951 11.79 17.735 10.824L16.531 9.914C16.111 10.432 15.565 10.824 14.725 10.824C13.787 10.824 13.031 10.222 12.919 9.228H18.043ZM12.919 7.968C13.045 7.002 13.661 6.372 14.655 6.372C15.705 6.372 16.349 6.988 16.363 7.968H12.919ZM20.2161 12H21.8961V6.708H23.4501V5.28H21.8961V4.062C21.8961 3.32 22.0361 2.676 22.9741 2.676C23.2121 2.676 23.4361 2.718 23.6741 2.774L23.7861 1.346C23.4361 1.276 23.0861 1.248 22.7221 1.248C20.6361 1.248 20.2161 2.466 20.2161 4.328V5.28H18.8301V6.708H20.2161V12ZM28.736 12H30.248V8.136C30.248 7.184 30.248 5.112 27.378 5.112C26.314 5.112 25.264 5.434 24.522 6.19L25.404 7.072C25.852 6.652 26.496 6.372 27.196 6.372C28.092 6.372 28.736 6.806 28.736 7.632V7.814H28.316C26.636 7.814 24.088 7.968 24.088 10.152C24.088 11.482 25.292 12.168 26.538 12.168C27.434 12.168 28.218 11.832 28.694 11.076H28.736V12ZM28.638 9.368C28.638 10.306 28.092 10.908 26.944 10.908C26.398 10.908 25.768 10.642 25.768 10.026C25.768 9.06 27.364 8.99 28.288 8.99H28.638V9.368ZM38.1875 5.28H36.5075V8.948C36.5075 9.844 36.0735 10.656 34.9675 10.656C33.7915 10.656 33.7355 9.424 33.7355 8.682V5.28H32.0555V9.522C32.0555 10.894 32.6995 12.168 34.5055 12.168C35.6255 12.168 36.2555 11.594 36.5635 10.922H36.5915V12H38.1875V5.28ZM40.1226 12H41.8026V1.416H40.1226V12ZM44.3333 6.708V9.788C44.3333 11.37 44.7533 12.168 46.5313 12.168C46.9233 12.168 47.5113 12.112 47.8613 11.944V10.53C47.6513 10.684 47.2453 10.74 46.9513 10.74C46.2093 10.74 46.0133 10.32 46.0133 9.648V6.708H47.8613V5.28H46.0133V3.334H44.3333V5.28H42.9473V6.708H44.3333Z" fill="black"/>
<g clip-path="url(#clip0_59_14581)">
<rect x="110" y="6.5" width="400" height="4" rx="2" fill="#D2D6DD"/>
<rect x="110" y="6.5" width="100" height="4" rx="2" fill="#9EA6B5"/>
</g>
<path d="M1.148 45H2.828V36.768H2.856L5.866 45H7.098L10.108 36.768H10.136V45H11.816V35.088H9.156L6.482 42.032L3.836 35.088H1.148V45ZM14.0669 45H17.7629C20.1429 45 23.0129 43.432 23.0129 40.044C23.0129 36.684 20.5769 35.088 17.9729 35.088H14.0669V45ZM15.8309 43.404V36.684H17.4409C19.5969 36.684 21.1649 37.636 21.1649 40.044C21.1649 42.452 19.3589 43.404 17.1469 43.404H15.8309Z" fill="black"/>
<g clip-path="url(#clip1_59_14581)">
<rect x="110" y="37.5" width="400" height="8" rx="4" fill="#D2D6DD"/>
<rect x="110" y="37.5" width="200" height="8" rx="4" fill="#9EA6B5"/>
</g>
<path d="M1.106 78H7.084V76.404H2.87V68.088H1.106V78ZM17.1718 72.204H13.3778V73.8H15.4078V76.138C14.7918 76.488 13.9798 76.656 13.0838 76.656C11.0398 76.656 9.68177 75.088 9.68177 72.974C9.68177 71 11.0398 69.432 13.0838 69.432C14.0778 69.432 15.0438 69.782 15.6738 70.398L16.9758 69.082C15.9398 68.158 14.5818 67.836 13.0698 67.836C10.0178 67.836 7.83377 69.908 7.83377 73.086C7.83377 76.18 10.0178 78.252 13.0698 78.252C14.5958 78.252 15.9678 77.916 17.1718 77.272V72.204Z" fill="black"/>
<g clip-path="url(#clip2_59_14581)">
<rect x="110" y="66.5" width="400" height="16" rx="8" fill="#D2D6DD"/>
<rect x="110" y="66.5" width="300" height="16" rx="8" fill="#9EA6B5"/>
</g>
<defs>
<clipPath id="clip0_59_14581">
<rect x="110" y="6.5" width="400" height="4" rx="2" fill="white"/>
</clipPath>
<clipPath id="clip1_59_14581">
<rect x="110" y="37.5" width="400" height="8" rx="4" fill="white"/>
</clipPath>
<clipPath id="clip2_59_14581">
<rect x="110" y="66.5" width="400" height="16" rx="8" fill="white"/>
</clipPath>
</defs>
</svg>
