<svg width="876" height="996" viewBox="0 0 876 996" fill="none" xmlns="http://www.w3.org/2000/svg">
<path d="M3.136 12H4.9V3.684H7.938V2.088H0.098V3.684H3.136V12ZM9.39247 12.056L9.07047 12.854C8.79047 13.554 8.56647 13.848 7.74047 13.848C7.44647 13.848 7.15247 13.778 6.88647 13.68L6.67647 15.192C7.09647 15.304 7.53047 15.36 7.96447 15.36C9.44847 15.36 10.0365 14.702 10.5265 13.442L13.7045 5.28H11.9545L10.2745 9.942H10.2465L8.37047 5.28H6.52247L9.39247 12.056ZM14.6922 15.192H16.3722V11.146H16.4142C16.7642 11.58 17.4362 12.168 18.6962 12.168C20.6142 12.168 21.9442 10.628 21.9442 8.64C21.9442 6.652 20.6982 5.112 18.6262 5.112C17.6882 5.112 16.8062 5.476 16.3162 6.288H16.2882V5.28H14.6922V15.192ZM20.2642 8.64C20.2642 9.69 19.5222 10.656 18.2902 10.656C17.0582 10.656 16.3162 9.69 16.3162 8.64C16.3162 7.59 17.0582 6.624 18.2902 6.624C19.5222 6.624 20.2642 7.59 20.2642 8.64ZM29.9786 9.228V8.766C29.9786 6.428 28.7046 5.112 26.8286 5.112C24.7986 5.112 23.1746 6.526 23.1746 8.64C23.1746 10.754 24.7986 12.168 26.8286 12.168C27.8926 12.168 28.8866 11.79 29.6706 10.824L28.4666 9.914C28.0466 10.432 27.5006 10.824 26.6606 10.824C25.7226 10.824 24.9666 10.222 24.8546 9.228H29.9786ZM24.8546 7.968C24.9806 7.002 25.5966 6.372 26.5906 6.372C27.6406 6.372 28.2846 6.988 28.2986 7.968H24.8546ZM31.5497 11.02C31.5497 11.622 32.0817 12.084 32.6697 12.084C33.2857 12.084 33.7897 11.594 33.7897 10.992C33.7897 10.39 33.2717 9.928 32.6697 9.928C32.0537 9.928 31.5497 10.418 31.5497 11.02ZM31.5497 6.274C31.5497 6.876 32.0817 7.338 32.6697 7.338C33.2857 7.338 33.7897 6.848 33.7897 6.246C33.7897 5.644 33.2717 5.182 32.6697 5.182C32.0537 5.182 31.5497 5.672 31.5497 6.274ZM39.9888 12H43.6848C46.0648 12 48.9348 10.432 48.9348 7.044C48.9348 3.684 46.4988 2.088 43.8948 2.088H39.9888V12ZM41.7528 10.404V3.684H43.3628C45.5188 3.684 47.0868 4.636 47.0868 7.044C47.0868 9.452 45.2808 10.404 43.0688 10.404H41.7528ZM56.9259 9.228V8.766C56.9259 6.428 55.6519 5.112 53.7759 5.112C51.7459 5.112 50.1219 6.526 50.1219 8.64C50.1219 10.754 51.7459 12.168 53.7759 12.168C54.8399 12.168 55.8339 11.79 56.6179 10.824L55.4139 9.914C54.9939 10.432 54.4479 10.824 53.6079 10.824C52.6699 10.824 51.9139 10.222 51.8019 9.228H56.9259ZM51.8019 7.968C51.9279 7.002 52.5439 6.372 53.5379 6.372C54.5879 6.372 55.2319 6.988 55.2459 7.968H51.8019ZM59.0989 12H60.7789V6.708H62.3329V5.28H60.7789V4.062C60.7789 3.32 60.9189 2.676 61.8569 2.676C62.0949 2.676 62.3189 2.718 62.5569 2.774L62.6689 1.346C62.3189 1.276 61.9689 1.248 61.6049 1.248C59.5189 1.248 59.0989 2.466 59.0989 4.328V5.28H57.7129V6.708H59.0989V12ZM67.6188 12H69.1308V8.136C69.1308 7.184 69.1308 5.112 66.2608 5.112C65.1968 5.112 64.1468 5.434 63.4048 6.19L64.2868 7.072C64.7348 6.652 65.3788 6.372 66.0788 6.372C66.9748 6.372 67.6188 6.806 67.6188 7.632V7.814H67.1988C65.5188 7.814 62.9708 7.968 62.9708 10.152C62.9708 11.482 64.1748 12.168 65.4208 12.168C66.3168 12.168 67.1008 11.832 67.5768 11.076H67.6188V12ZM67.5208 9.368C67.5208 10.306 66.9748 10.908 65.8268 10.908C65.2808 10.908 64.6508 10.642 64.6508 10.026C64.6508 9.06 66.2468 8.99 67.1708 8.99H67.5208V9.368ZM77.0703 5.28H75.3903V8.948C75.3903 9.844 74.9563 10.656 73.8503 10.656C72.6743 10.656 72.6183 9.424 72.6183 8.682V5.28H70.9383V9.522C70.9383 10.894 71.5823 12.168 73.3883 12.168C74.5083 12.168 75.1383 11.594 75.4463 10.922H75.4743V12H77.0703V5.28ZM79.0054 12H80.6854V1.416H79.0054V12ZM83.2161 6.708V9.788C83.2161 11.37 83.6361 12.168 85.4141 12.168C85.8061 12.168 86.3941 12.112 86.7441 11.944V10.53C86.5341 10.684 86.1281 10.74 85.8341 10.74C85.0921 10.74 84.8961 10.32 84.8961 9.648V6.708H86.7441V5.28H84.8961V3.334H83.2161V5.28H81.8301V6.708H83.2161Z" fill="black"/>
<rect x="108" width="399" height="16" rx="2" fill="#E7EDF9"/>
<rect x="108" y="24" width="116" height="16" rx="2" fill="#E7EDF9"/>
<rect x="108" y="48" width="63" height="16" rx="2" fill="#E7EDF9"/>
<rect x="108" y="72" width="399" height="16" rx="2" fill="#E7EDF9"/>
<rect x="108" y="100" width="89" height="36" rx="4" fill="#E7EDF9"/>
<path d="M3.136 164H4.9V155.684H7.938V154.088H0.098V155.684H3.136V164ZM9.39247 164.056L9.07047 164.854C8.79047 165.554 8.56647 165.848 7.74047 165.848C7.44647 165.848 7.15247 165.778 6.88647 165.68L6.67647 167.192C7.09647 167.304 7.53047 167.36 7.96447 167.36C9.44847 167.36 10.0365 166.702 10.5265 165.442L13.7045 157.28H11.9545L10.2745 161.942H10.2465L8.37047 157.28H6.52247L9.39247 164.056ZM14.6922 167.192H16.3722V163.146H16.4142C16.7642 163.58 17.4362 164.168 18.6962 164.168C20.6142 164.168 21.9442 162.628 21.9442 160.64C21.9442 158.652 20.6982 157.112 18.6262 157.112C17.6882 157.112 16.8062 157.476 16.3162 158.288H16.2882V157.28H14.6922V167.192ZM20.2642 160.64C20.2642 161.69 19.5222 162.656 18.2902 162.656C17.0582 162.656 16.3162 161.69 16.3162 160.64C16.3162 159.59 17.0582 158.624 18.2902 158.624C19.5222 158.624 20.2642 159.59 20.2642 160.64ZM29.9786 161.228V160.766C29.9786 158.428 28.7046 157.112 26.8286 157.112C24.7986 157.112 23.1746 158.526 23.1746 160.64C23.1746 162.754 24.7986 164.168 26.8286 164.168C27.8926 164.168 28.8866 163.79 29.6706 162.824L28.4666 161.914C28.0466 162.432 27.5006 162.824 26.6606 162.824C25.7226 162.824 24.9666 162.222 24.8546 161.228H29.9786ZM24.8546 159.968C24.9806 159.002 25.5966 158.372 26.5906 158.372C27.6406 158.372 28.2846 158.988 28.2986 159.968H24.8546ZM31.5497 163.02C31.5497 163.622 32.0817 164.084 32.6697 164.084C33.2857 164.084 33.7897 163.594 33.7897 162.992C33.7897 162.39 33.2717 161.928 32.6697 161.928C32.0537 161.928 31.5497 162.418 31.5497 163.02ZM31.5497 158.274C31.5497 158.876 32.0817 159.338 32.6697 159.338C33.2857 159.338 33.7897 158.848 33.7897 158.246C33.7897 157.644 33.2717 157.182 32.6697 157.182C32.0537 157.182 31.5497 157.672 31.5497 158.274ZM48.1648 155.404C47.1848 154.27 46.0368 153.836 44.6928 153.836C41.6408 153.836 39.4568 155.908 39.4568 159.086C39.4568 162.18 41.6408 164.252 44.6928 164.252C46.1488 164.252 47.4928 163.72 48.3888 162.488L46.9328 161.452C46.2748 162.292 45.5048 162.656 44.7068 162.656C42.6628 162.656 41.3048 161.088 41.3048 158.974C41.3048 157 42.6628 155.432 44.7068 155.432C45.3928 155.432 46.0648 155.642 46.7928 156.412L48.1648 155.404ZM53.6188 164H55.1308V160.136C55.1308 159.184 55.1308 157.112 52.2608 157.112C51.1968 157.112 50.1468 157.434 49.4048 158.19L50.2868 159.072C50.7348 158.652 51.3788 158.372 52.0788 158.372C52.9748 158.372 53.6188 158.806 53.6188 159.632V159.814H53.1988C51.5188 159.814 48.9708 159.968 48.9708 162.152C48.9708 163.482 50.1748 164.168 51.4208 164.168C52.3168 164.168 53.1008 163.832 53.5768 163.076H53.6188V164ZM53.5208 161.368C53.5208 162.306 52.9748 162.908 51.8268 162.908C51.2808 162.908 50.6508 162.642 50.6508 162.026C50.6508 161.06 52.2468 160.99 53.1708 160.99H53.5208V161.368ZM56.9383 164H58.6183V160.402C58.6183 160.038 58.8423 158.708 60.4243 158.708C60.6903 158.708 60.9563 158.764 61.2363 158.834V157.21C61.0403 157.154 60.8443 157.112 60.6343 157.112C59.7523 157.112 59.0103 157.574 58.6463 158.344H58.6183V157.28H56.9383V164ZM67.4536 164H69.0496V153.416H67.3696V158.134H67.3276C66.9776 157.7 66.3056 157.112 65.0456 157.112C63.1276 157.112 61.7976 158.652 61.7976 160.64C61.7976 162.628 63.0436 164.168 65.1156 164.168C66.0536 164.168 66.9356 163.804 67.4256 162.992H67.4536V164ZM63.4776 160.64C63.4776 159.59 64.2196 158.624 65.4516 158.624C66.6836 158.624 67.4256 159.59 67.4256 160.64C67.4256 161.69 66.6836 162.656 65.4516 162.656C64.2196 162.656 63.4776 161.69 63.4776 160.64Z" fill="black"/>
<circle cx="136" cy="181" r="28" fill="#E7EDF9"/>
<rect x="185" y="152" width="145" height="16" rx="2" fill="#E7EDF9"/>
<rect x="185" y="177" width="58" height="16" rx="2" fill="#E7EDF9"/>
<rect x="185" y="202" width="145" height="8" rx="2" fill="#E7EDF9"/>
<rect width="500" height="136" transform="translate(108 233)" fill="#E7EDF9"/>
<rect x="313.5" y="392" width="89" height="36" rx="4" fill="#E7EDF9"/>
<path d="M3.136 456H4.9V447.684H7.938V446.088H0.098V447.684H3.136V456ZM9.39247 456.056L9.07047 456.854C8.79047 457.554 8.56647 457.848 7.74047 457.848C7.44647 457.848 7.15247 457.778 6.88647 457.68L6.67647 459.192C7.09647 459.304 7.53047 459.36 7.96447 459.36C9.44847 459.36 10.0365 458.702 10.5265 457.442L13.7045 449.28H11.9545L10.2745 453.942H10.2465L8.37047 449.28H6.52247L9.39247 456.056ZM14.6922 459.192H16.3722V455.146H16.4142C16.7642 455.58 17.4362 456.168 18.6962 456.168C20.6142 456.168 21.9442 454.628 21.9442 452.64C21.9442 450.652 20.6982 449.112 18.6262 449.112C17.6882 449.112 16.8062 449.476 16.3162 450.288H16.2882V449.28H14.6922V459.192ZM20.2642 452.64C20.2642 453.69 19.5222 454.656 18.2902 454.656C17.0582 454.656 16.3162 453.69 16.3162 452.64C16.3162 451.59 17.0582 450.624 18.2902 450.624C19.5222 450.624 20.2642 451.59 20.2642 452.64ZM29.9786 453.228V452.766C29.9786 450.428 28.7046 449.112 26.8286 449.112C24.7986 449.112 23.1746 450.526 23.1746 452.64C23.1746 454.754 24.7986 456.168 26.8286 456.168C27.8926 456.168 28.8866 455.79 29.6706 454.824L28.4666 453.914C28.0466 454.432 27.5006 454.824 26.6606 454.824C25.7226 454.824 24.9666 454.222 24.8546 453.228H29.9786ZM24.8546 451.968C24.9806 451.002 25.5966 450.372 26.5906 450.372C27.6406 450.372 28.2846 450.988 28.2986 451.968H24.8546ZM31.5497 455.02C31.5497 455.622 32.0817 456.084 32.6697 456.084C33.2857 456.084 33.7897 455.594 33.7897 454.992C33.7897 454.39 33.2717 453.928 32.6697 453.928C32.0537 453.928 31.5497 454.418 31.5497 455.02ZM31.5497 450.274C31.5497 450.876 32.0817 451.338 32.6697 451.338C33.2857 451.338 33.7897 450.848 33.7897 450.246C33.7897 449.644 33.2717 449.182 32.6697 449.182C32.0537 449.182 31.5497 449.672 31.5497 450.274ZM42.0188 456H43.7828V447.684H46.8208V446.088H38.9808V447.684H42.0188V456ZM46.5887 456H48.2687V452.402C48.2687 452.038 48.4927 450.708 50.0747 450.708C50.3407 450.708 50.6067 450.764 50.8867 450.834V449.21C50.6907 449.154 50.4947 449.112 50.2847 449.112C49.4027 449.112 48.6607 449.574 48.2967 450.344H48.2687V449.28H46.5887V456ZM58.252 453.228V452.766C58.252 450.428 56.978 449.112 55.102 449.112C53.072 449.112 51.448 450.526 51.448 452.64C51.448 454.754 53.072 456.168 55.102 456.168C56.166 456.168 57.16 455.79 57.944 454.824L56.74 453.914C56.32 454.432 55.774 454.824 54.934 454.824C53.996 454.824 53.24 454.222 53.128 453.228H58.252ZM53.128 451.968C53.254 451.002 53.87 450.372 54.864 450.372C55.914 450.372 56.558 450.988 56.572 451.968H53.128ZM66.2911 453.228V452.766C66.2911 450.428 65.0171 449.112 63.1411 449.112C61.1111 449.112 59.4871 450.526 59.4871 452.64C59.4871 454.754 61.1111 456.168 63.1411 456.168C64.2051 456.168 65.1991 455.79 65.9831 454.824L64.7791 453.914C64.3591 454.432 63.8131 454.824 62.9731 454.824C62.0351 454.824 61.2791 454.222 61.1671 453.228H66.2911ZM61.1671 451.968C61.2931 451.002 61.9091 450.372 62.9031 450.372C63.9531 450.372 64.5971 450.988 64.6111 451.968H61.1671Z" fill="black"/>
<rect x="108" y="444" width="180" height="32" rx="2" fill="#E7EDF9"/>
<rect x="304" y="444" width="180" height="32" rx="2" fill="#E7EDF9"/>
<rect x="500" y="444" width="180" height="32" rx="2" fill="#E7EDF9"/>
<rect x="696" y="444" width="180" height="32" rx="2" fill="#E7EDF9"/>
<line x1="108" y1="491.5" x2="874" y2="491.5" stroke="#D2D6DD"/>
<rect x="108" y="508" width="180" height="16" rx="2" fill="#E7EDF9"/>
<rect x="304" y="508" width="180" height="16" rx="2" fill="#E7EDF9"/>
<rect x="500" y="508" width="180" height="16" rx="2" fill="#E7EDF9"/>
<rect x="696" y="508" width="180" height="16" rx="2" fill="#E7EDF9"/>
<line x1="108" y1="539.5" x2="874" y2="539.5" stroke="#D2D6DD"/>
<rect x="108" y="556" width="180" height="16" rx="2" fill="#E7EDF9"/>
<rect x="304" y="556" width="180" height="16" rx="2" fill="#E7EDF9"/>
<rect x="500" y="556" width="180" height="16" rx="2" fill="#E7EDF9"/>
<rect x="696" y="556" width="180" height="16" rx="2" fill="#E7EDF9"/>
<line x1="108" y1="587.5" x2="874" y2="587.5" stroke="#D2D6DD"/>
<rect x="108" y="604" width="180" height="16" rx="2" fill="#E7EDF9"/>
<rect x="304" y="604" width="180" height="16" rx="2" fill="#E7EDF9"/>
<rect x="500" y="604" width="180" height="16" rx="2" fill="#E7EDF9"/>
<rect x="696" y="604" width="180" height="16" rx="2" fill="#E7EDF9"/>
<line x1="108" y1="635.5" x2="874" y2="635.5" stroke="#D2D6DD"/>
<rect x="108" y="652" width="180" height="16" rx="2" fill="#E7EDF9"/>
<rect x="304" y="652" width="180" height="16" rx="2" fill="#E7EDF9"/>
<rect x="500" y="652" width="180" height="16" rx="2" fill="#E7EDF9"/>
<rect x="696" y="652" width="180" height="16" rx="2" fill="#E7EDF9"/>
<path d="M3.136 696H4.9V687.684H7.938V686.088H0.098V687.684H3.136V696ZM9.39247 696.056L9.07047 696.854C8.79047 697.554 8.56647 697.848 7.74047 697.848C7.44647 697.848 7.15247 697.778 6.88647 697.68L6.67647 699.192C7.09647 699.304 7.53047 699.36 7.96447 699.36C9.44847 699.36 10.0365 698.702 10.5265 697.442L13.7045 689.28H11.9545L10.2745 693.942H10.2465L8.37047 689.28H6.52247L9.39247 696.056ZM14.6922 699.192H16.3722V695.146H16.4142C16.7642 695.58 17.4362 696.168 18.6962 696.168C20.6142 696.168 21.9442 694.628 21.9442 692.64C21.9442 690.652 20.6982 689.112 18.6262 689.112C17.6882 689.112 16.8062 689.476 16.3162 690.288H16.2882V689.28H14.6922V699.192ZM20.2642 692.64C20.2642 693.69 19.5222 694.656 18.2902 694.656C17.0582 694.656 16.3162 693.69 16.3162 692.64C16.3162 691.59 17.0582 690.624 18.2902 690.624C19.5222 690.624 20.2642 691.59 20.2642 692.64ZM29.9786 693.228V692.766C29.9786 690.428 28.7046 689.112 26.8286 689.112C24.7986 689.112 23.1746 690.526 23.1746 692.64C23.1746 694.754 24.7986 696.168 26.8286 696.168C27.8926 696.168 28.8866 695.79 29.6706 694.824L28.4666 693.914C28.0466 694.432 27.5006 694.824 26.6606 694.824C25.7226 694.824 24.9666 694.222 24.8546 693.228H29.9786ZM24.8546 691.968C24.9806 691.002 25.5966 690.372 26.5906 690.372C27.6406 690.372 28.2846 690.988 28.2986 691.968H24.8546ZM31.5497 695.02C31.5497 695.622 32.0817 696.084 32.6697 696.084C33.2857 696.084 33.7897 695.594 33.7897 694.992C33.7897 694.39 33.2717 693.928 32.6697 693.928C32.0537 693.928 31.5497 694.418 31.5497 695.02ZM31.5497 690.274C31.5497 690.876 32.0817 691.338 32.6697 691.338C33.2857 691.338 33.7897 690.848 33.7897 690.246C33.7897 689.644 33.2717 689.182 32.6697 689.182C32.0537 689.182 31.5497 689.672 31.5497 690.274ZM39.9888 696H45.9668V694.404H41.7528V686.088H39.9888V696ZM47.1226 696H48.8026V689.28H47.1226V696ZM46.8846 686.998C46.8846 687.53 47.3326 688.006 47.9486 688.006C48.5646 688.006 49.0406 687.572 49.0406 686.998C49.0406 686.424 48.5646 685.99 47.9486 685.99C47.3326 685.99 46.8846 686.466 46.8846 686.998ZM55.4353 690.134C54.8893 689.392 53.9373 689.112 53.0413 689.112C51.6833 689.112 50.3393 689.784 50.3393 691.282C50.3393 693.844 53.9653 692.752 53.9653 694.138C53.9653 694.67 53.3353 694.908 52.8453 694.908C52.1313 694.908 51.6833 694.558 51.2493 694.082L50.1293 695.132C50.8153 695.902 51.7113 696.168 52.7473 696.168C54.1193 696.168 55.6453 695.608 55.6453 694.012C55.6453 691.394 52.0193 692.374 52.0193 691.17C52.0193 690.666 52.5513 690.456 52.9993 690.456C53.5733 690.456 53.9933 690.694 54.3153 691.142L55.4353 690.134ZM57.554 690.708V693.788C57.554 695.37 57.974 696.168 59.752 696.168C60.144 696.168 60.732 696.112 61.082 695.944V694.53C60.872 694.684 60.466 694.74 60.172 694.74C59.43 694.74 59.234 694.32 59.234 693.648V690.708H61.082V689.28H59.234V687.334H57.554V689.28H56.168V690.708H57.554Z" fill="black"/>
<circle cx="136" cy="712" r="28" fill="#E7EDF9"/>
<rect x="180" y="691" width="203" height="16" rx="2" fill="#E7EDF9"/>
<rect x="180" y="717" width="58" height="16" rx="2" fill="#E7EDF9"/>
<circle cx="136" cy="776" r="28" fill="#E7EDF9"/>
<rect x="180" y="755" width="203" height="16" rx="2" fill="#E7EDF9"/>
<rect x="180" y="781" width="58" height="16" rx="2" fill="#E7EDF9"/>
<circle cx="136" cy="840" r="28" fill="#E7EDF9"/>
<rect x="180" y="819" width="203" height="16" rx="2" fill="#E7EDF9"/>
<rect x="180" y="845" width="58" height="16" rx="2" fill="#E7EDF9"/>
<circle cx="136" cy="904" r="28" fill="#E7EDF9"/>
<rect x="180" y="883" width="203" height="16" rx="2" fill="#E7EDF9"/>
<rect x="180" y="909" width="58" height="16" rx="2" fill="#E7EDF9"/>
<circle cx="136" cy="968" r="28" fill="#E7EDF9"/>
<rect x="180" y="947" width="203" height="16" rx="2" fill="#E7EDF9"/>
<rect x="180" y="973" width="58" height="16" rx="2" fill="#E7EDF9"/>
</svg>
