<svg width="768" height="280" viewBox="0 0 768 280" fill="none" xmlns="http://www.w3.org/2000/svg">
<path d="M6.688 28H11.68V9.76H18.144V5.344H0.224V9.76H6.688V28ZM26.6435 28H31.0595V20.096C31.0595 14.912 29.5555 12.064 23.9555 12.064C21.4275 12.064 18.8675 12.896 17.1075 14.56L19.6675 17.184C20.6915 16.032 22.0035 15.328 23.5715 15.328C25.2355 15.328 26.6435 16.416 26.6435 18.112C22.6435 18.112 16.1155 18.208 16.1155 23.584C16.1155 26.72 18.7395 28.384 21.6515 28.384C23.6035 28.384 25.5235 27.712 26.5795 26.048H26.6435V28ZM26.6435 21.184V22.208C26.6435 24.128 24.8835 25.12 22.9955 25.12C21.9395 25.12 20.7235 24.576 20.7235 23.424C20.7235 21.312 23.9875 21.184 25.4595 21.184H26.6435ZM34.519 28H38.935V25.952H38.999C39.735 27.072 41.591 28.384 43.767 28.384C48.375 28.384 51.415 25.056 51.415 20.352C51.415 16.032 48.727 12.064 44.311 12.064C42.327 12.064 40.471 12.608 39.383 14.112H39.319V3.808H34.519V28ZM38.935 20.224C38.935 17.888 40.375 16.288 42.775 16.288C45.175 16.288 46.615 17.888 46.615 20.224C46.615 22.56 45.175 24.16 42.775 24.16C40.375 24.16 38.935 22.56 38.935 20.224ZM54.2913 28H59.0913V3.808H54.2913V28ZM73.8998 22.848C73.0998 23.936 72.0438 24.736 70.4758 24.736C68.6198 24.736 67.2438 23.552 66.8598 21.728H77.9958V20.224C77.9958 15.264 75.1798 12.064 70.6998 12.064C65.8998 12.064 62.0598 15.264 62.0598 20.224C62.0598 25.184 65.8998 28.384 70.6998 28.384C73.1958 28.384 75.7238 27.264 77.2598 25.312L73.8998 22.848ZM66.8598 18.464C66.9878 16.96 68.1398 15.52 70.2517 15.52C71.9798 15.52 73.2278 16.864 73.1958 18.464H66.8598ZM90.9915 28H95.9835V11.872H96.0475L105.936 28H112.464V5.344H107.472V21.088H107.408L97.7755 5.344H90.9915V28ZM115.901 20.224C115.901 25.184 119.741 28.384 124.541 28.384C129.341 28.384 133.181 25.184 133.181 20.224C133.181 15.264 129.341 12.064 124.541 12.064C119.741 12.064 115.901 15.264 115.901 20.224ZM120.701 20.224C120.701 17.888 122.141 16.288 124.541 16.288C126.941 16.288 128.381 17.888 128.381 20.224C128.381 22.56 126.941 24.16 124.541 24.16C122.141 24.16 120.701 22.56 120.701 20.224ZM146.601 12.448H142.377V7.84H137.577V12.448H134.505V16.288H137.577V23.68C137.577 27.072 140.041 28.384 143.241 28.384C144.361 28.384 145.545 28.288 146.601 27.904V23.904C146.185 24.288 145.161 24.352 144.649 24.352C142.569 24.352 142.377 23.136 142.377 21.472V16.288H146.601V12.448ZM149.104 28H153.904V12.448H149.104V28ZM148.72 7.552C148.72 9.088 149.968 10.336 151.504 10.336C153.04 10.336 154.288 9.088 154.288 7.552C154.288 6.016 153.04 4.768 151.504 4.768C149.968 4.768 148.72 6.016 148.72 7.552ZM171.048 14.144C169.544 12.608 167.336 12.064 165.512 12.064C160.712 12.064 156.872 15.264 156.872 20.224C156.872 25.184 160.712 28.384 165.512 28.384C167.336 28.384 169.544 27.84 171.048 26.304L167.88 22.976C167.336 23.616 166.568 24.16 165.512 24.16C163.112 24.16 161.672 22.56 161.672 20.224C161.672 17.888 163.112 16.288 165.512 16.288C166.504 16.288 167.4 16.8 167.88 17.472L171.048 14.144ZM184.15 22.848C183.35 23.936 182.294 24.736 180.726 24.736C178.87 24.736 177.494 23.552 177.11 21.728H188.246V20.224C188.246 15.264 185.43 12.064 180.95 12.064C176.15 12.064 172.31 15.264 172.31 20.224C172.31 25.184 176.15 28.384 180.95 28.384C183.446 28.384 185.974 27.264 187.51 25.312L184.15 22.848ZM177.11 18.464C177.238 16.96 178.39 15.52 180.502 15.52C182.23 15.52 183.478 16.864 183.446 18.464H177.11Z" fill="#333333"/>
<path d="M599 0.5H638.5V35.5H599C597.067 35.5 595.5 33.933 595.5 32V4C595.5 2.067 597.067 0.5 599 0.5Z" fill="white"/>
<path d="M619 22.75H611C610.271 22.75 609.571 22.4603 609.055 21.9445C608.54 21.4288 608.25 20.7293 608.25 20V12C608.25 11.2707 608.54 10.5712 609.055 10.0555C609.571 9.53973 610.271 9.25 611 9.25H619C619.729 9.25 620.429 9.53973 620.945 10.0555C621.46 10.5712 621.75 11.2707 621.75 12V20C621.75 20.7293 621.46 21.4288 620.945 21.9445C620.429 22.4603 619.729 22.75 619 22.75ZM611 10.75C610.668 10.75 610.351 10.8817 610.116 11.1161C609.882 11.3505 609.75 11.6685 609.75 12V20C609.75 20.3315 609.882 20.6495 610.116 20.8839C610.351 21.1183 610.668 21.25 611 21.25H619C619.332 21.25 619.649 21.1183 619.884 20.8839C620.118 20.6495 620.25 20.3315 620.25 20V12C620.25 11.6685 620.118 11.3505 619.884 11.1161C619.649 10.8817 619.332 10.75 619 10.75H611Z" fill="#6B778C"/>
<path d="M623 26.75H615C614.271 26.75 613.571 26.4603 613.055 25.9445C612.54 25.4288 612.25 24.7293 612.25 24V22H613.75V24C613.75 24.3315 613.882 24.6495 614.116 24.8839C614.351 25.1183 614.668 25.25 615 25.25H623C623.332 25.25 623.649 25.1183 623.884 24.8839C624.118 24.6495 624.25 24.3315 624.25 24V16C624.25 15.6685 624.118 15.3505 623.884 15.1161C623.649 14.8817 623.332 14.75 623 14.75H621V13.25H623C623.729 13.25 624.429 13.5397 624.945 14.0555C625.46 14.5712 625.75 15.2707 625.75 16V24C625.75 24.7293 625.46 25.4288 624.945 25.9445C624.429 26.4603 623.729 26.75 623 26.75Z" fill="#6B778C"/>
<path d="M599 0.5H638.5V35.5H599C597.067 35.5 595.5 33.933 595.5 32V4C595.5 2.067 597.067 0.5 599 0.5Z" stroke="#9EA6B5"/>
<path d="M638.5 0.5H681.5V35.5H638.5V0.5Z" fill="white"/>
<path d="M665 16.25H664.75V14C664.75 12.7402 664.25 11.532 663.359 10.6412C662.468 9.75045 661.26 9.25 660 9.25C658.74 9.25 657.532 9.75045 656.641 10.6412C655.75 11.532 655.25 12.7402 655.25 14V16.25H655C654.271 16.25 653.571 16.5397 653.055 17.0555C652.54 17.5712 652.25 18.2707 652.25 19V24C652.25 24.7293 652.54 25.4288 653.055 25.9445C653.571 26.4603 654.271 26.75 655 26.75H665C665.729 26.75 666.429 26.4603 666.945 25.9445C667.46 25.4288 667.75 24.7293 667.75 24V19C667.75 18.2707 667.46 17.5712 666.945 17.0555C666.429 16.5397 665.729 16.25 665 16.25ZM656.75 14C656.75 13.138 657.092 12.3114 657.702 11.7019C658.311 11.0924 659.138 10.75 660 10.75C660.862 10.75 661.689 11.0924 662.298 11.7019C662.908 12.3114 663.25 13.138 663.25 14V16.25H656.75V14ZM666.25 24C666.25 24.3315 666.118 24.6495 665.884 24.8839C665.649 25.1183 665.332 25.25 665 25.25H655C654.668 25.25 654.351 25.1183 654.116 24.8839C653.882 24.6495 653.75 24.3315 653.75 24V19C653.75 18.6685 653.882 18.3505 654.116 18.1161C654.351 17.8817 654.668 17.75 655 17.75H665C665.332 17.75 665.649 17.8817 665.884 18.1161C666.118 18.3505 666.25 18.6685 666.25 19V24Z" fill="#6B778C"/>
<path d="M638.5 0.5H681.5V35.5H638.5V0.5Z" stroke="#9EA6B5"/>
<path d="M681.5 0.5H724.5V35.5H681.5V0.5Z" fill="white"/>
<path d="M711 14.7002H695C694.902 14.7002 694.804 14.6808 694.713 14.6431C694.622 14.6054 694.539 14.5502 694.47 14.4805C694.4 14.4109 694.345 14.3282 694.307 14.2372C694.269 14.1462 694.25 14.0487 694.25 13.9502C694.25 13.8517 694.269 13.7542 694.307 13.6632C694.345 13.5722 694.4 13.4895 694.47 13.4199C694.539 13.3502 694.622 13.295 694.713 13.2573C694.804 13.2196 694.902 13.2002 695 13.2002H711C711.199 13.2002 711.39 13.2792 711.53 13.4199C711.671 13.5605 711.75 13.7513 711.75 13.9502C711.75 14.1491 711.671 14.3399 711.53 14.4805C711.39 14.6212 711.199 14.7002 711 14.7002V14.7002Z" fill="#6B778C"/>
<path d="M707.44 26.7498H698.56C698.243 26.7715 697.925 26.73 697.624 26.6279C697.323 26.5257 697.046 26.3648 696.808 26.1546C696.57 25.9444 696.376 25.689 696.237 25.4032C696.098 25.1174 696.018 24.807 696 24.4898V13.9998C696 13.8009 696.079 13.6101 696.22 13.4695C696.36 13.3288 696.551 13.2498 696.75 13.2498C696.949 13.2498 697.14 13.3288 697.28 13.4695C697.421 13.6101 697.5 13.8009 697.5 13.9998V24.4898C697.5 24.8998 697.97 25.2498 698.5 25.2498H707.38C707.94 25.2498 708.38 24.8998 708.38 24.4898V13.9998C708.38 13.785 708.465 13.5789 708.617 13.427C708.769 13.2751 708.975 13.1898 709.19 13.1898C709.405 13.1898 709.611 13.2751 709.763 13.427C709.915 13.5789 710 13.785 710 13.9998V24.4898C709.982 24.807 709.902 25.1174 709.763 25.4032C709.624 25.689 709.43 25.9444 709.192 26.1546C708.954 26.3648 708.676 26.5257 708.376 26.6279C708.075 26.73 707.757 26.7715 707.44 26.7498ZM707.56 13.7498C707.461 13.7511 707.363 13.7327 707.271 13.6955C707.18 13.6582 707.097 13.603 707.027 13.5331C706.957 13.4632 706.902 13.38 706.864 13.2884C706.827 13.1968 706.809 13.0987 706.81 12.9998V11.5098C706.81 11.0998 706.33 10.7498 705.81 10.7498H700.22C699.67 10.7498 699.22 11.0998 699.22 11.5098V12.9998C699.22 13.1987 699.141 13.3895 699 13.5301C698.86 13.6708 698.669 13.7498 698.47 13.7498C698.271 13.7498 698.08 13.6708 697.94 13.5301C697.799 13.3895 697.72 13.1987 697.72 12.9998V11.5098C697.759 10.8811 698.042 10.2926 698.509 9.87017C698.977 9.44777 699.591 9.22509 700.22 9.2498H705.78C706.414 9.21699 707.036 9.43602 707.51 9.85925C707.984 10.2825 708.271 10.8757 708.31 11.5098V12.9998C708.311 13.0991 708.293 13.1977 708.256 13.2899C708.219 13.382 708.164 13.4659 708.094 13.5366C708.024 13.6073 707.941 13.6635 707.849 13.7018C707.758 13.7401 707.659 13.7598 707.56 13.7598V13.7498Z" fill="#6B778C"/>
<path d="M701.22 23.0002C701.022 22.9976 700.833 22.9178 700.693 22.7777C700.552 22.6376 700.473 22.4483 700.47 22.2502V17.7202C700.47 17.5213 700.549 17.3305 700.69 17.1899C700.83 17.0492 701.021 16.9702 701.22 16.9702C701.419 16.9702 701.61 17.0492 701.75 17.1899C701.891 17.3305 701.97 17.5213 701.97 17.7202V22.2402C701.971 22.3395 701.953 22.4381 701.916 22.5303C701.879 22.6225 701.824 22.7063 701.754 22.777C701.684 22.8477 701.601 22.9039 701.509 22.9422C701.418 22.9805 701.319 23.0002 701.22 23.0002V23.0002Z" fill="#6B778C"/>
<path d="M704.78 23.0002C704.581 23.0002 704.39 22.9212 704.25 22.7805C704.109 22.6399 704.03 22.4491 704.03 22.2502V17.7202C704.03 17.5213 704.109 17.3305 704.25 17.1899C704.39 17.0492 704.581 16.9702 704.78 16.9702C704.979 16.9702 705.17 17.0492 705.31 17.1899C705.451 17.3305 705.53 17.5213 705.53 17.7202V22.2402C705.53 22.4401 705.451 22.6319 705.311 22.7741C705.171 22.9164 704.98 22.9976 704.78 23.0002Z" fill="#6B778C"/>
<path d="M681.5 0.5H724.5V35.5H681.5V0.5Z" stroke="#9EA6B5"/>
<path d="M724.5 0.5H764C765.933 0.5 767.5 2.067 767.5 4V32C767.5 33.933 765.933 35.5 764 35.5H724.5V0.5Z" fill="white"/>
<path d="M746 19.75C746.966 19.75 747.75 18.9665 747.75 18C747.75 17.0335 746.966 16.25 746 16.25C745.034 16.25 744.25 17.0335 744.25 18C744.25 18.9665 745.034 19.75 746 19.75Z" fill="#6B778C"/>
<path d="M753 19.75C753.966 19.75 754.75 18.9665 754.75 18C754.75 17.0335 753.966 16.25 753 16.25C752.034 16.25 751.25 17.0335 751.25 18C751.25 18.9665 752.034 19.75 753 19.75Z" fill="#6B778C"/>
<path d="M739 19.75C739.966 19.75 740.75 18.9665 740.75 18C740.75 17.0335 739.966 16.25 739 16.25C738.034 16.25 737.25 17.0335 737.25 18C737.25 18.9665 738.034 19.75 739 19.75Z" fill="#6B778C"/>
<path d="M724.5 0.5H764C765.933 0.5 767.5 2.067 767.5 4V32C767.5 33.933 765.933 35.5 764 35.5H724.5V0.5Z" stroke="#9EA6B5"/>
<rect y="56" width="180" height="32" rx="2" fill="#E7EDF9"/>
<rect x="196" y="56" width="180" height="32" rx="2" fill="#E7EDF9"/>
<rect x="392" y="56" width="180" height="32" rx="2" fill="#E7EDF9"/>
<rect x="588" y="56" width="180" height="32" rx="2" fill="#E7EDF9"/>
<line y1="103.5" x2="766" y2="103.5" stroke="#D2D6DD"/>
<rect y="120" width="180" height="16" rx="2" fill="#E7EDF9"/>
<rect x="196" y="120" width="180" height="16" rx="2" fill="#E7EDF9"/>
<rect x="392" y="120" width="180" height="16" rx="2" fill="#E7EDF9"/>
<rect x="588" y="120" width="180" height="16" rx="2" fill="#E7EDF9"/>
<line y1="151.5" x2="766" y2="151.5" stroke="#D2D6DD"/>
<rect y="168" width="180" height="16" rx="2" fill="#E7EDF9"/>
<rect x="196" y="168" width="180" height="16" rx="2" fill="#E7EDF9"/>
<rect x="392" y="168" width="180" height="16" rx="2" fill="#E7EDF9"/>
<rect x="588" y="168" width="180" height="16" rx="2" fill="#E7EDF9"/>
<line y1="199.5" x2="766" y2="199.5" stroke="#D2D6DD"/>
<rect y="216" width="180" height="16" rx="2" fill="#E7EDF9"/>
<rect x="196" y="216" width="180" height="16" rx="2" fill="#E7EDF9"/>
<rect x="392" y="216" width="180" height="16" rx="2" fill="#E7EDF9"/>
<rect x="588" y="216" width="180" height="16" rx="2" fill="#E7EDF9"/>
<line y1="247.5" x2="766" y2="247.5" stroke="#D2D6DD"/>
<rect y="264" width="180" height="16" rx="2" fill="#E7EDF9"/>
<rect x="196" y="264" width="180" height="16" rx="2" fill="#E7EDF9"/>
<rect x="392" y="264" width="180" height="16" rx="2" fill="#E7EDF9"/>
<rect x="588" y="264" width="180" height="16" rx="2" fill="#E7EDF9"/>
</svg>
