<svg width="245" height="104" viewBox="0 0 245 104" fill="none" xmlns="http://www.w3.org/2000/svg">
<path d="M90.5 31.9863C90.5045 26.763 91.7864 21.6201 94.2339 17.0062C96.6815 12.3924 100.22 8.44777 104.542 5.51647C108.863 2.58516 113.836 0.756223 119.026 0.189198C124.216 -0.377827 129.467 0.334286 134.319 2.26342C139.17 4.19255 143.477 7.28009 146.862 11.2567C150.247 15.2333 152.609 19.9782 153.74 25.0775C154.871 30.1768 154.738 35.4755 153.352 40.5115C151.966 45.5474 149.37 50.1676 145.789 53.9691C145.289 54.4686 144.611 54.7493 143.904 54.7493C143.198 54.7493 142.52 54.4686 142.02 53.9691C141.768 53.7238 141.568 53.4307 141.432 53.1069C141.295 52.7831 141.225 52.4352 141.225 52.0838C141.225 51.7324 141.295 51.3845 141.432 51.0607C141.568 50.737 141.768 50.4438 142.02 50.1986C146.213 45.7134 148.734 39.9198 149.157 33.7932C149.58 27.6666 147.881 21.5811 144.344 16.5613C140.808 11.5416 135.651 7.89406 129.741 6.23293C123.831 4.5718 117.53 4.99849 111.898 7.44116C106.266 9.88383 101.647 14.1933 98.8186 19.644C95.9906 25.0947 95.1262 31.3538 96.3709 37.3675C97.6156 43.3812 100.893 48.7821 105.653 52.6611C110.412 56.5401 116.361 58.6602 122.5 58.6644C123.207 58.6644 123.886 58.9455 124.386 59.4458C124.886 59.9461 125.167 60.6246 125.167 61.3322C125.167 62.0397 124.886 62.7183 124.386 63.2186C123.886 63.7189 123.207 64 122.5 64C114.013 64 105.874 60.6271 99.8726 54.6234C93.8714 48.6197 90.5 40.4769 90.5 31.9863V31.9863Z" fill="#9EA6B5"/>
<path d="M1.408 96H2.752V90.912H5.024C6.624 90.912 8.736 90.256 8.736 87.776C8.736 85.408 6.848 84.672 4.768 84.672H1.408V96ZM2.752 85.92H5.024C6.368 85.92 7.296 86.528 7.296 87.792C7.296 89.056 6.368 89.664 5.024 89.664H2.752V85.92ZM10.6684 96H11.9164V92.352C11.9164 90.64 12.5884 89.568 14.1084 89.568C14.3324 89.568 14.5724 89.6 14.7804 89.664L14.8604 88.4C14.6844 88.336 14.5084 88.32 14.3484 88.32C13.1164 88.32 12.1884 89.008 11.8524 89.744H11.8204C11.8204 89.328 11.7884 88.912 11.7884 88.512H10.6044C10.6044 89.008 10.6684 89.6 10.6684 90.288V96ZM21.7561 93.904C21.1641 94.656 20.4441 95.04 19.3721 95.04C18.0121 95.04 17.0201 93.936 16.9241 92.64H22.9721V92.24C22.9721 89.76 21.5321 88.32 19.4201 88.32C17.2121 88.32 15.5801 89.936 15.5801 92.256C15.5801 94.432 17.0201 96.192 19.3721 96.192C20.7641 96.192 21.8201 95.776 22.7001 94.64L21.7561 93.904ZM16.9241 91.584C17.0841 90.32 17.9961 89.472 19.3721 89.472C20.7481 89.472 21.5801 90.32 21.6281 91.584H16.9241ZM24.8388 99.648H26.0868V94.672H26.1188C26.5828 95.52 27.6548 96.192 28.9988 96.192C31.0948 96.192 32.7428 94.496 32.7428 92.256C32.7428 89.984 31.1588 88.32 28.8068 88.32C27.7188 88.32 26.8068 88.8 26.1188 89.6H26.0868V88.512H24.8388V99.648ZM26.0868 92.256C26.0868 90.688 27.1268 89.472 28.7428 89.472C30.3588 89.472 31.3988 90.688 31.3988 92.256C31.3988 93.824 30.3588 95.04 28.7428 95.04C27.1268 95.04 26.0868 93.824 26.0868 92.256ZM35.372 90.288C35.964 89.744 36.796 89.472 37.596 89.472C38.764 89.472 39.452 90.032 39.452 91.12V91.344H38.972C37.132 91.344 34.252 91.488 34.252 93.968C34.252 95.424 35.516 96.192 37.036 96.192C38.172 96.192 39.004 95.648 39.5 94.88H39.532C39.532 95.2 39.532 95.664 39.612 96H40.812C40.748 95.616 40.7 95.136 40.7 94.704V91.488C40.7 89.376 39.772 88.32 37.564 88.32C36.476 88.32 35.356 88.688 34.588 89.472L35.372 90.288ZM39.452 92.4V92.88C39.42 94.096 38.684 95.136 37.244 95.136C36.3 95.136 35.596 94.784 35.596 93.84C35.596 92.832 36.62 92.4 38.204 92.4H39.452ZM42.9809 96H44.2289V92.352C44.2289 90.64 44.9009 89.568 46.4209 89.568C46.6449 89.568 46.8849 89.6 47.0929 89.664L47.1729 88.4C46.9969 88.336 46.8209 88.32 46.6609 88.32C45.4289 88.32 44.5009 89.008 44.1649 89.744H44.1329C44.1329 89.328 44.1009 88.912 44.1009 88.512H42.9169C42.9169 89.008 42.9809 89.6 42.9809 90.288V96ZM48.7179 96H49.9659V88.512H48.7179V96ZM48.4299 85.584C48.4299 86.112 48.8139 86.496 49.3419 86.496C49.8699 86.496 50.2539 86.112 50.2539 85.584C50.2539 85.088 49.8539 84.672 49.3419 84.672C48.8299 84.672 48.4299 85.088 48.4299 85.584ZM52.4496 96H53.6976V92.352C53.6976 90.64 54.4016 89.472 56.0176 89.472C57.1856 89.472 57.7296 90.256 57.7296 91.504V96H58.9776V91.376C58.9776 89.568 58.0976 88.32 56.1296 88.32C54.8976 88.32 53.9696 89.008 53.6336 89.744H53.6016C53.6016 89.328 53.5696 88.912 53.5696 88.512H52.3856C52.3856 89.008 52.4496 89.6 52.4496 90.288V96ZM68.8123 88.512H67.5643V89.792H67.5323C67.0363 88.8 65.9003 88.32 64.8923 88.32C62.5082 88.32 60.9083 89.808 60.9083 92.256C60.9083 94.464 62.5403 96.096 64.8923 96.096C65.8843 96.096 66.9403 95.664 67.5323 94.704H67.5643V95.664C67.5643 97.248 66.9723 98.688 64.7323 98.688C63.5803 98.688 62.7323 98.24 61.9483 97.392L61.0523 98.416C62.1083 99.456 63.2763 99.84 64.7323 99.84C67.3563 99.84 68.8123 98.368 68.8123 95.664V88.512ZM62.2523 92.256C62.2523 90.688 63.3243 89.472 64.8923 89.472C66.4763 89.472 67.5643 90.608 67.5643 92.224C67.5643 93.664 66.6043 94.944 64.8923 94.944C63.4363 94.944 62.2523 93.776 62.2523 92.256ZM79.6706 88.512H77.4626V86.384H76.2146V88.512H74.5826V89.568H76.2146V93.68C76.2146 95.232 76.5026 96.192 78.2786 96.192C78.7426 96.192 79.3026 96.112 79.7346 95.92L79.6866 94.784C79.3506 94.96 78.9506 95.04 78.5826 95.04C77.4786 95.04 77.4626 94.272 77.4626 93.312V89.568H79.6706V88.512ZM81.1996 96H82.4476V92.352C82.4476 90.64 83.1516 89.472 84.7676 89.472C85.9356 89.472 86.4796 90.256 86.4796 91.504V96H87.7276V91.376C87.7276 89.568 86.8476 88.32 84.8796 88.32C83.7116 88.32 82.8156 88.96 82.4796 89.552H82.4476V83.904H81.1996V96ZM95.8343 93.904C95.2423 94.656 94.5223 95.04 93.4503 95.04C92.0903 95.04 91.0983 93.936 91.0023 92.64H97.0503V92.24C97.0503 89.76 95.6103 88.32 93.4983 88.32C91.2903 88.32 89.6583 89.936 89.6583 92.256C89.6583 94.432 91.0983 96.192 93.4503 96.192C94.8423 96.192 95.8983 95.776 96.7783 94.64L95.8343 93.904ZM91.0023 91.584C91.1623 90.32 92.0743 89.472 93.4503 89.472C94.8263 89.472 95.6583 90.32 95.7063 91.584H91.0023ZM107.146 88.512H105.322V87.104C105.322 85.808 105.37 84.864 106.666 84.864C106.954 84.864 107.242 84.928 107.514 85.024L107.69 83.904C107.45 83.776 107.05 83.712 106.73 83.712C104.714 83.712 104.074 85.008 104.074 86.832V88.512H102.442V89.568H104.074V96H105.322V89.568H107.146V88.512ZM108.298 96H109.546V88.512H108.298V96ZM108.01 85.584C108.01 86.112 108.394 86.496 108.922 86.496C109.45 86.496 109.834 86.112 109.834 85.584C109.834 85.088 109.434 84.672 108.922 84.672C108.41 84.672 108.01 85.088 108.01 85.584ZM112.14 96H113.388V83.904H112.14V96ZM121.616 93.904C121.024 94.656 120.304 95.04 119.232 95.04C117.872 95.04 116.88 93.936 116.784 92.64H122.832V92.24C122.832 89.76 121.392 88.32 119.28 88.32C117.072 88.32 115.44 89.936 115.44 92.256C115.44 94.432 116.88 96.192 119.232 96.192C120.624 96.192 121.68 95.776 122.56 94.64L121.616 93.904ZM116.784 91.584C116.944 90.32 117.856 89.472 119.232 89.472C120.608 89.472 121.44 90.32 121.488 91.584H116.784ZM123.93 94.8C124.666 95.856 125.578 96.192 126.842 96.192C128.33 96.192 129.834 95.536 129.834 93.84C129.834 92.336 128.714 91.856 127.386 91.6C126.394 91.408 125.498 91.136 125.498 90.512C125.498 89.808 126.282 89.472 126.97 89.472C127.706 89.472 128.234 89.84 128.554 90.368L129.594 89.68C129.082 88.72 128.106 88.32 127.05 88.32C125.658 88.32 124.25 89.072 124.25 90.528C124.25 92.08 125.466 92.384 126.89 92.704C127.69 92.88 128.49 93.088 128.49 93.888C128.49 94.704 127.626 95.04 126.842 95.04C125.962 95.04 125.418 94.64 124.922 94.032L123.93 94.8ZM136.668 96H137.916V89.568H139.74V88.512H137.916V87.104C137.916 85.808 137.964 84.864 139.26 84.864C139.548 84.864 139.836 84.928 140.108 85.024L140.284 83.904C140.044 83.776 139.644 83.712 139.324 83.712C137.308 83.712 136.668 85.008 136.668 86.832V88.512H135.036V89.568H136.668V96ZM140.643 92.256C140.643 94.592 142.339 96.192 144.643 96.192C146.947 96.192 148.643 94.592 148.643 92.256C148.643 89.92 146.947 88.32 144.643 88.32C142.339 88.32 140.643 89.92 140.643 92.256ZM141.987 92.256C141.987 90.688 143.027 89.472 144.643 89.472C146.259 89.472 147.299 90.688 147.299 92.256C147.299 93.824 146.259 95.04 144.643 95.04C143.027 95.04 141.987 93.824 141.987 92.256ZM150.575 96H151.823V92.352C151.823 90.64 152.495 89.568 154.015 89.568C154.239 89.568 154.479 89.6 154.687 89.664L154.767 88.4C154.591 88.336 154.415 88.32 154.255 88.32C153.023 88.32 152.095 89.008 151.759 89.744H151.727C151.727 89.328 151.695 88.912 151.695 88.512H150.511C150.511 89.008 150.575 89.6 150.575 90.288V96ZM166.877 96H168.125V83.904H166.877V89.6H166.845C166.157 88.8 165.245 88.32 164.157 88.32C161.805 88.32 160.221 89.984 160.221 92.256C160.221 94.496 161.869 96.192 163.965 96.192C165.309 96.192 166.381 95.52 166.845 94.672H166.877V96ZM166.877 92.256C166.877 93.824 165.837 95.04 164.221 95.04C162.605 95.04 161.565 93.824 161.565 92.256C161.565 90.688 162.605 89.472 164.221 89.472C165.837 89.472 166.877 90.688 166.877 92.256ZM170.002 92.256C170.002 94.592 171.698 96.192 174.002 96.192C176.306 96.192 178.002 94.592 178.002 92.256C178.002 89.92 176.306 88.32 174.002 88.32C171.698 88.32 170.002 89.92 170.002 92.256ZM171.346 92.256C171.346 90.688 172.386 89.472 174.002 89.472C175.618 89.472 176.658 90.688 176.658 92.256C176.658 93.824 175.618 95.04 174.002 95.04C172.386 95.04 171.346 93.824 171.346 92.256ZM190.382 88.512H189.038L187.342 94.272H187.31L185.342 88.512H184.03L182.094 94.272H182.062L180.35 88.512H178.974L181.406 96H182.686L184.574 90.24H184.606L186.734 96H187.966L190.382 88.512ZM191.793 96H193.041V92.352C193.041 90.64 193.745 89.472 195.361 89.472C196.529 89.472 197.073 90.256 197.073 91.504V96H198.321V91.376C198.321 89.568 197.441 88.32 195.473 88.32C194.241 88.32 193.313 89.008 192.977 89.744H192.945C192.945 89.328 192.913 88.912 192.913 88.512H191.729C191.729 89.008 191.793 89.6 191.793 90.288V96ZM200.796 96H202.044V83.904H200.796V96ZM204.096 92.256C204.096 94.592 205.792 96.192 208.096 96.192C210.4 96.192 212.096 94.592 212.096 92.256C212.096 89.92 210.4 88.32 208.096 88.32C205.792 88.32 204.096 89.92 204.096 92.256ZM205.44 92.256C205.44 90.688 206.48 89.472 208.096 89.472C209.712 89.472 210.752 90.688 210.752 92.256C210.752 93.824 209.712 95.04 208.096 95.04C206.48 95.04 205.44 93.824 205.44 92.256ZM214.716 90.288C215.308 89.744 216.14 89.472 216.94 89.472C218.108 89.472 218.796 90.032 218.796 91.12V91.344H218.316C216.476 91.344 213.596 91.488 213.596 93.968C213.596 95.424 214.86 96.192 216.38 96.192C217.516 96.192 218.348 95.648 218.844 94.88H218.876C218.876 95.2 218.876 95.664 218.956 96H220.156C220.092 95.616 220.044 95.136 220.044 94.704V91.488C220.044 89.376 219.116 88.32 216.908 88.32C215.82 88.32 214.7 88.688 213.932 89.472L214.716 90.288ZM218.796 92.4V92.88C218.764 94.096 218.028 95.136 216.588 95.136C215.644 95.136 214.94 94.784 214.94 93.84C214.94 92.832 215.964 92.4 217.548 92.4H218.796ZM228.549 96H229.797V83.904H228.549V89.6H228.517C227.829 88.8 226.917 88.32 225.829 88.32C223.477 88.32 221.893 89.984 221.893 92.256C221.893 94.496 223.541 96.192 225.637 96.192C226.981 96.192 228.053 95.52 228.517 94.672H228.549V96ZM228.549 92.256C228.549 93.824 227.509 95.04 225.893 95.04C224.277 95.04 223.237 93.824 223.237 92.256C223.237 90.688 224.277 89.472 225.893 89.472C227.509 89.472 228.549 90.688 228.549 92.256ZM233.146 94.176C232.618 94.176 232.186 94.608 232.186 95.136C232.186 95.664 232.65 96.096 233.146 96.096C233.642 96.096 234.106 95.664 234.106 95.136C234.106 94.608 233.674 94.176 233.146 94.176ZM237.599 94.176C237.071 94.176 236.639 94.608 236.639 95.136C236.639 95.664 237.103 96.096 237.599 96.096C238.095 96.096 238.559 95.664 238.559 95.136C238.559 94.608 238.127 94.176 237.599 94.176ZM242.052 94.176C241.524 94.176 241.092 94.608 241.092 95.136C241.092 95.664 241.556 96.096 242.052 96.096C242.548 96.096 243.012 95.664 243.012 95.136C243.012 94.608 242.58 94.176 242.052 94.176Z" fill="#434B58"/>
</svg>
