<svg width="534" height="250" viewBox="0 0 534 250" fill="none" xmlns="http://www.w3.org/2000/svg">
<rect x="0.5" y="0.5" width="319" height="249" rx="7.5" stroke="#D2D6DD"/>
<circle cx="288" cy="199" r="8" fill="#DB3259"/>
<circle cx="288" cy="156" r="8" fill="#467822"/>
<circle cx="288" cy="111" r="8" fill="#467822"/>
<path d="M42.52 112.96C41.52 114.48 39.76 115.16 38.34 115.16C34.64 115.16 32.34 112.44 32.34 108.92C32.34 105.4 34.64 102.68 38.34 102.68C39.76 102.68 41.26 103.28 42.14 104.6L43.22 103.7C41.98 102.12 40.26 101.48 38.34 101.48C34.02 101.48 31.02 104.6 31.02 108.92C31.02 113.24 34.02 116.36 38.34 116.36C40.42 116.36 42.26 115.62 43.6 113.78L42.52 112.96ZM52.862 109.86C52.862 107.52 51.422 106.52 49.182 106.52C47.982 106.52 46.542 106.98 45.662 107.82L46.362 108.64C47.182 107.94 48.102 107.6 49.182 107.6C50.662 107.6 51.782 108.24 51.782 109.84V110.4H50.382C48.562 110.4 45.262 110.68 45.262 113.5C45.262 115.46 46.942 116.24 48.522 116.24C50.082 116.24 51.082 115.68 51.762 114.5H51.802C51.802 115.02 51.842 115.54 51.922 116H53.042C52.902 114.94 52.862 113.92 52.862 112.12V109.86ZM51.782 111.36V111.98C51.782 113.52 51.122 115.16 48.562 115.16C47.562 115.16 46.462 114.58 46.462 113.44C46.462 111.86 48.462 111.36 50.462 111.36H51.782ZM55.7931 120.56H56.9931V114.38H57.0331C57.7731 115.66 59.3531 116.24 60.7331 116.24C63.5731 116.24 65.5931 114.2 65.5931 111.38C65.5931 108.56 63.5731 106.52 60.7331 106.52C59.3531 106.52 57.7731 107.1 57.0331 108.38H56.9931V106.76H55.7931V120.56ZM56.8731 111.38C56.8731 109.3 58.5531 107.6 60.7331 107.6C62.9931 107.6 64.3931 109.3 64.3931 111.38C64.3931 113.46 62.9931 115.16 60.7331 115.16C58.5531 115.16 56.8731 113.46 56.8731 111.38ZM68.4797 116H69.6797V106.76H68.4797V116ZM68.1797 103.1C68.1797 103.6 68.5797 104 69.0797 104C69.5797 104 69.9797 103.6 69.9797 103.1C69.9797 102.6 69.5797 102.2 69.0797 102.2C68.5797 102.2 68.1797 102.6 68.1797 103.1ZM77.6044 106.76H74.9644V104.1H73.7644V106.76H71.7644V107.84H73.7644V113.86C73.7644 115.18 74.4244 116.24 76.1444 116.24C76.6044 116.24 77.2644 116.08 77.7044 115.92L77.6044 114.84C77.1844 115.02 76.7044 115.16 76.2444 115.16C75.4444 115.16 74.9644 114.68 74.9644 113.86V107.84H77.6044V106.76ZM86.9245 109.86C86.9245 107.52 85.4845 106.52 83.2445 106.52C82.0445 106.52 80.6045 106.98 79.7245 107.82L80.4245 108.64C81.2445 107.94 82.1645 107.6 83.2445 107.6C84.7245 107.6 85.8445 108.24 85.8445 109.84V110.4H84.4445C82.6245 110.4 79.3245 110.68 79.3245 113.5C79.3245 115.46 81.0045 116.24 82.5845 116.24C84.1445 116.24 85.1445 115.68 85.8245 114.5H85.8645C85.8645 115.02 85.9045 115.54 85.9845 116H87.1045C86.9645 114.94 86.9245 113.92 86.9245 112.12V109.86ZM85.8445 111.36V111.98C85.8445 113.52 85.1845 115.16 82.6245 115.16C81.6245 115.16 80.5245 114.58 80.5245 113.44C80.5245 111.86 82.5245 111.36 84.5245 111.36H85.8445ZM90.3156 116H91.5156V100.88H90.3156V116ZM100.316 116H101.516V106.76H100.316V116ZM100.016 103.1C100.016 103.6 100.416 104 100.916 104C101.416 104 101.816 103.6 101.816 103.1C101.816 102.6 101.416 102.2 100.916 102.2C100.416 102.2 100.016 102.6 100.016 103.1ZM104.92 116H106.12V111.38C106.12 108.84 107.54 107.6 109.32 107.6C111.22 107.6 111.64 109.06 111.64 110.56V116H112.84V110.5C112.84 108.48 112.2 106.52 109.32 106.52C107.82 106.52 106.64 107.36 106.16 108.38H106.1C106.06 108.2 106.04 107.44 106.02 106.76H104.82C104.82 107.24 104.92 108.68 104.92 109.36V116ZM118.514 116H119.754L123.394 106.76H122.174L119.174 114.7L116.094 106.76H114.734L118.514 116ZM132.571 113.52C131.971 114.52 130.691 115.16 129.471 115.16C126.671 115.16 125.971 112.68 125.971 111.68H133.731V110.84C133.731 108.7 132.231 106.52 129.391 106.52C126.691 106.52 124.771 108.6 124.771 111.36C124.771 114.22 126.631 116.24 129.451 116.24C131.091 116.24 132.511 115.66 133.451 114.26L132.571 113.52ZM125.971 110.6C125.971 110.12 126.711 107.6 129.331 107.6C131.111 107.6 132.531 108.96 132.531 110.6H125.971ZM135.365 114.36C136.085 115.64 137.505 116.24 139.085 116.24C140.845 116.24 142.425 115.28 142.425 113.38C142.425 109.64 136.945 111.58 136.945 109.08C136.945 108.12 138.045 107.6 138.905 107.6C139.985 107.6 140.625 108.06 141.085 108.9L142.165 108.26C141.565 107.08 140.405 106.52 138.905 106.52C137.385 106.52 135.745 107.38 135.745 109.18C135.745 112.7 141.225 110.92 141.225 113.46C141.225 114.52 140.145 115.16 139.105 115.16C138.025 115.16 136.925 114.62 136.425 113.64L135.365 114.36ZM149.44 106.76H146.8V104.1H145.6V106.76H143.6V107.84H145.6V113.86C145.6 115.18 146.26 116.24 147.98 116.24C148.44 116.24 149.1 116.08 149.54 115.92L149.44 114.84C149.02 115.02 148.54 115.16 148.08 115.16C147.28 115.16 146.8 114.68 146.8 113.86V107.84H149.44V106.76ZM151.58 116H152.78V111.38C152.78 108.84 154.2 107.6 155.98 107.6C157.28 107.6 157.9 108.74 157.9 110.44V116H159.1V110.8C159.1 109.48 159.68 107.6 161.9 107.6C163.8 107.6 164.22 109.06 164.22 110.56V116H165.42V110.5C165.42 108.48 164.78 106.52 161.9 106.52C160.62 106.52 159.34 107.14 158.76 108.52C158.32 107.12 157.2 106.52 155.98 106.52C154.48 106.52 153.3 107.36 152.82 108.38H152.76C152.72 108.2 152.7 107.44 152.68 106.76H151.48C151.48 107.24 151.58 108.68 151.58 109.36V116ZM175.892 113.52C175.292 114.52 174.012 115.16 172.792 115.16C169.992 115.16 169.292 112.68 169.292 111.68H177.052V110.84C177.052 108.7 175.552 106.52 172.712 106.52C170.012 106.52 168.092 108.6 168.092 111.36C168.092 114.22 169.952 116.24 172.772 116.24C174.412 116.24 175.832 115.66 176.772 114.26L175.892 113.52ZM169.292 110.6C169.292 110.12 170.032 107.6 172.652 107.6C174.432 107.6 175.852 108.96 175.852 110.6H169.292ZM179.725 116H180.925V111.38C180.925 108.84 182.345 107.6 184.125 107.6C186.025 107.6 186.445 109.06 186.445 110.56V116H187.645V110.5C187.645 108.48 187.005 106.52 184.125 106.52C182.625 106.52 181.445 107.36 180.965 108.38H180.905C180.865 108.2 180.845 107.44 180.825 106.76H179.625C179.625 107.24 179.725 108.68 179.725 109.36V116ZM195.358 106.76H192.718V104.1H191.518V106.76H189.518V107.84H191.518V113.86C191.518 115.18 192.178 116.24 193.898 116.24C194.358 116.24 195.018 116.08 195.458 115.92L195.358 114.84C194.938 115.02 194.458 115.16 193.998 115.16C193.198 115.16 192.718 114.68 192.718 113.86V107.84H195.358V106.76ZM196.458 114.36C197.178 115.64 198.598 116.24 200.178 116.24C201.938 116.24 203.518 115.28 203.518 113.38C203.518 109.64 198.038 111.58 198.038 109.08C198.038 108.12 199.138 107.6 199.998 107.6C201.078 107.6 201.718 108.06 202.178 108.9L203.258 108.26C202.658 107.08 201.498 106.52 199.998 106.52C198.478 106.52 196.838 107.38 196.838 109.18C196.838 112.7 202.318 110.92 202.318 113.46C202.318 114.52 201.238 115.16 200.198 115.16C199.118 115.16 198.018 114.62 197.518 113.64L196.458 114.36Z" fill="black"/>
<path d="M34.22 160H35.84L39.42 147.4H39.46L43.04 160H44.66L48.78 145.84H47.42L43.9 158.38H43.86L40.28 145.84H38.6L35.02 158.38H34.98L31.46 145.84H30.1L34.22 160ZM57.4152 157.52C56.8152 158.52 55.5352 159.16 54.3152 159.16C51.5152 159.16 50.8152 156.68 50.8152 155.68H58.5752V154.84C58.5752 152.7 57.0752 150.52 54.2352 150.52C51.5352 150.52 49.6152 152.6 49.6152 155.36C49.6152 158.22 51.4752 160.24 54.2952 160.24C55.9352 160.24 57.3552 159.66 58.2952 158.26L57.4152 157.52ZM50.8152 154.6C50.8152 154.12 51.5552 151.6 54.1752 151.6C55.9552 151.6 57.3752 152.96 57.3752 154.6H50.8152ZM61.4484 160H62.6484V144.88H61.4484V160ZM66.2531 160H67.4531V144.88H66.2531V160ZM70.5978 160H71.7978V158.38H71.8378C72.5778 159.66 74.1578 160.24 75.5378 160.24C78.3778 160.24 80.3978 158.2 80.3978 155.38C80.3978 152.56 78.3778 150.52 75.5378 150.52C74.1578 150.52 72.5778 151.1 71.8378 152.38H71.7978V144.88H70.5978V160ZM71.6778 155.38C71.6778 153.3 73.3578 151.6 75.5378 151.6C77.7978 151.6 79.1978 153.3 79.1978 155.38C79.1978 157.46 77.7978 159.16 75.5378 159.16C73.3578 159.16 71.6778 157.46 71.6778 155.38ZM90.3644 157.52C89.7644 158.52 88.4844 159.16 87.2644 159.16C84.4644 159.16 83.7644 156.68 83.7644 155.68H91.5244V154.84C91.5244 152.7 90.0244 150.52 87.1844 150.52C84.4844 150.52 82.5644 152.6 82.5644 155.36C82.5644 158.22 84.4244 160.24 87.2444 160.24C88.8844 160.24 90.3044 159.66 91.2444 158.26L90.3644 157.52ZM83.7644 154.6C83.7644 154.12 84.5044 151.6 87.1244 151.6C88.9044 151.6 90.3244 152.96 90.3244 154.6H83.7644ZM94.3977 160H95.5977V150.76H94.3977V160ZM94.0977 147.1C94.0977 147.6 94.4977 148 94.9977 148C95.4977 148 95.8977 147.6 95.8977 147.1C95.8977 146.6 95.4977 146.2 94.9977 146.2C94.4977 146.2 94.0977 146.6 94.0977 147.1ZM99.0023 160H100.202V155.38C100.202 152.84 101.622 151.6 103.402 151.6C105.302 151.6 105.722 153.06 105.722 154.56V160H106.922V154.5C106.922 152.48 106.282 150.52 103.402 150.52C101.902 150.52 100.722 151.36 100.242 152.38H100.182C100.142 152.2 100.122 151.44 100.102 150.76H98.9023C98.9023 151.24 99.0023 152.68 99.0023 153.36V160ZM119.396 150.76H118.196V152.32H118.156C117.456 151.22 116.236 150.52 114.656 150.52C111.936 150.52 109.716 152.66 109.716 155.26C109.716 157.86 111.936 160 114.656 160C116.236 160 117.456 159.3 118.156 158.2H118.196V159.48C118.196 160.52 118.136 163.72 114.476 163.72C113.036 163.72 111.676 163.16 110.836 161.98L109.896 162.86C110.836 164.08 112.616 164.8 114.476 164.8C116.356 164.8 119.396 164 119.396 159.4V150.76ZM118.236 155.26C118.236 157.28 116.596 158.92 114.576 158.92C112.556 158.92 110.916 157.28 110.916 155.26C110.916 153.24 112.556 151.6 114.576 151.6C116.596 151.6 118.236 153.24 118.236 155.26Z" fill="black"/>
<path d="M31.94 204H40.92V202.8H33.26V197.28H40.14V196.08H33.26V191.04H40.6V189.84H31.94V204ZM43.4555 204H44.6555V199.38C44.6555 196.84 46.0755 195.6 47.8555 195.6C49.1555 195.6 49.7755 196.74 49.7755 198.44V204H50.9755V198.8C50.9755 197.48 51.5555 195.6 53.7755 195.6C55.6755 195.6 56.0955 197.06 56.0955 198.56V204H57.2955V198.5C57.2955 196.48 56.6555 194.52 53.7755 194.52C52.4955 194.52 51.2155 195.14 50.6355 196.52C50.1955 195.12 49.0755 194.52 47.8555 194.52C46.3555 194.52 45.1755 195.36 44.6955 196.38H44.6355C44.5955 196.2 44.5755 195.44 44.5555 194.76H43.3555C43.3555 195.24 43.4555 196.68 43.4555 197.36V204ZM60.2267 208.56H61.4267V202.38H61.4667C62.2067 203.66 63.7867 204.24 65.1667 204.24C68.0067 204.24 70.0267 202.2 70.0267 199.38C70.0267 196.56 68.0067 194.52 65.1667 194.52C63.7867 194.52 62.2067 195.1 61.4667 196.38H61.4267V194.76H60.2267V208.56ZM61.3067 199.38C61.3067 197.3 62.9867 195.6 65.1667 195.6C67.4267 195.6 68.8267 197.3 68.8267 199.38C68.8267 201.46 67.4267 203.16 65.1667 203.16C62.9867 203.16 61.3067 201.46 61.3067 199.38ZM72.9133 204H74.1133V188.88H72.9133V204ZM76.998 199.38C76.998 202.2 79.018 204.24 81.858 204.24C84.698 204.24 86.718 202.2 86.718 199.38C86.718 196.56 84.698 194.52 81.858 194.52C79.018 194.52 76.998 196.56 76.998 199.38ZM78.198 199.38C78.198 197.3 79.598 195.6 81.858 195.6C84.118 195.6 85.518 197.3 85.518 199.38C85.518 201.46 84.118 203.16 81.858 203.16C79.598 203.16 78.198 201.46 78.198 199.38ZM96.753 194.76H95.473L92.493 202.54L89.433 194.76H88.093L91.853 204.04L91.013 206.18C90.733 206.9 90.353 207.72 89.473 207.72C89.113 207.72 88.733 207.6 88.393 207.5L88.273 208.62C88.653 208.72 89.053 208.8 89.453 208.8C90.773 208.8 91.533 208.04 91.993 206.86L96.753 194.76ZM105.931 201.52C105.331 202.52 104.051 203.16 102.831 203.16C100.031 203.16 99.3308 200.68 99.3308 199.68H107.091V198.84C107.091 196.7 105.591 194.52 102.751 194.52C100.051 194.52 98.1308 196.6 98.1308 199.36C98.1308 202.22 99.9908 204.24 102.811 204.24C104.451 204.24 105.871 203.66 106.811 202.26L105.931 201.52ZM99.3308 198.6C99.3308 198.12 100.071 195.6 102.691 195.6C104.471 195.6 105.891 196.96 105.891 198.6H99.3308ZM117.044 201.52C116.444 202.52 115.164 203.16 113.944 203.16C111.144 203.16 110.444 200.68 110.444 199.68H118.204V198.84C118.204 196.7 116.704 194.52 113.864 194.52C111.164 194.52 109.244 196.6 109.244 199.36C109.244 202.22 111.104 204.24 113.924 204.24C115.564 204.24 116.984 203.66 117.924 202.26L117.044 201.52ZM110.444 198.6C110.444 198.12 111.184 195.6 113.804 195.6C115.584 195.6 117.004 196.96 117.004 198.6H110.444ZM133.353 201.52C132.753 202.52 131.473 203.16 130.253 203.16C127.453 203.16 126.753 200.68 126.753 199.68H134.513V198.84C134.513 196.7 133.013 194.52 130.173 194.52C127.473 194.52 125.553 196.6 125.553 199.36C125.553 202.22 127.413 204.24 130.233 204.24C131.873 204.24 133.293 203.66 134.233 202.26L133.353 201.52ZM126.753 198.6C126.753 198.12 127.493 195.6 130.113 195.6C131.893 195.6 133.313 196.96 133.313 198.6H126.753ZM137.186 204H138.386V199.38C138.386 196.84 139.806 195.6 141.586 195.6C143.486 195.6 143.906 197.06 143.906 198.56V204H145.106V198.5C145.106 196.48 144.466 194.52 141.586 194.52C140.086 194.52 138.906 195.36 138.426 196.38H138.366C138.326 196.2 138.306 195.44 138.286 194.76H137.086C137.086 195.24 137.186 196.68 137.186 197.36V204ZM157.579 194.76H156.379V196.32H156.339C155.639 195.22 154.419 194.52 152.839 194.52C150.119 194.52 147.899 196.66 147.899 199.26C147.899 201.86 150.119 204 152.839 204C154.419 204 155.639 203.3 156.339 202.2H156.379V203.48C156.379 204.52 156.319 207.72 152.659 207.72C151.219 207.72 149.859 207.16 149.019 205.98L148.079 206.86C149.019 208.08 150.799 208.8 152.659 208.8C154.539 208.8 157.579 208 157.579 203.4V194.76ZM156.419 199.26C156.419 201.28 154.779 202.92 152.759 202.92C150.739 202.92 149.099 201.28 149.099 199.26C149.099 197.24 150.739 195.6 152.759 195.6C154.779 195.6 156.419 197.24 156.419 199.26ZM167.706 197.86C167.706 195.52 166.266 194.52 164.026 194.52C162.826 194.52 161.386 194.98 160.506 195.82L161.206 196.64C162.026 195.94 162.946 195.6 164.026 195.6C165.506 195.6 166.626 196.24 166.626 197.84V198.4H165.226C163.406 198.4 160.106 198.68 160.106 201.5C160.106 203.46 161.786 204.24 163.366 204.24C164.926 204.24 165.926 203.68 166.606 202.5H166.646C166.646 203.02 166.686 203.54 166.766 204H167.886C167.746 202.94 167.706 201.92 167.706 200.12V197.86ZM166.626 199.36V199.98C166.626 201.52 165.966 203.16 163.406 203.16C162.406 203.16 161.306 202.58 161.306 201.44C161.306 199.86 163.306 199.36 165.306 199.36H166.626ZM180.177 194.76H178.977V196.32H178.937C178.237 195.22 177.017 194.52 175.437 194.52C172.717 194.52 170.497 196.66 170.497 199.26C170.497 201.86 172.717 204 175.437 204C177.017 204 178.237 203.3 178.937 202.2H178.977V203.48C178.977 204.52 178.917 207.72 175.257 207.72C173.817 207.72 172.457 207.16 171.617 205.98L170.677 206.86C171.617 208.08 173.397 208.8 175.257 208.8C177.137 208.8 180.177 208 180.177 203.4V194.76ZM179.017 199.26C179.017 201.28 177.377 202.92 175.357 202.92C173.337 202.92 171.697 201.28 171.697 199.26C171.697 197.24 173.337 195.6 175.357 195.6C177.377 195.6 179.017 197.24 179.017 199.26ZM190.403 201.52C189.803 202.52 188.523 203.16 187.303 203.16C184.503 203.16 183.803 200.68 183.803 199.68H191.563V198.84C191.563 196.7 190.063 194.52 187.223 194.52C184.523 194.52 182.603 196.6 182.603 199.36C182.603 202.22 184.463 204.24 187.283 204.24C188.923 204.24 190.343 203.66 191.283 202.26L190.403 201.52ZM183.803 198.6C183.803 198.12 184.543 195.6 187.163 195.6C188.943 195.6 190.363 196.96 190.363 198.6H183.803ZM194.237 204H195.437V199.38C195.437 196.84 196.857 195.6 198.637 195.6C199.937 195.6 200.557 196.74 200.557 198.44V204H201.757V198.8C201.757 197.48 202.337 195.6 204.557 195.6C206.457 195.6 206.877 197.06 206.877 198.56V204H208.077V198.5C208.077 196.48 207.437 194.52 204.557 194.52C203.277 194.52 201.997 195.14 201.417 196.52C200.977 195.12 199.857 194.52 198.637 194.52C197.137 194.52 195.957 195.36 195.477 196.38H195.417C195.377 196.2 195.357 195.44 195.337 194.76H194.137C194.137 195.24 194.237 196.68 194.237 197.36V204ZM218.548 201.52C217.948 202.52 216.668 203.16 215.448 203.16C212.648 203.16 211.948 200.68 211.948 199.68H219.708V198.84C219.708 196.7 218.208 194.52 215.368 194.52C212.668 194.52 210.748 196.6 210.748 199.36C210.748 202.22 212.608 204.24 215.428 204.24C217.068 204.24 218.488 203.66 219.428 202.26L218.548 201.52ZM211.948 198.6C211.948 198.12 212.688 195.6 215.308 195.6C217.088 195.6 218.508 196.96 218.508 198.6H211.948ZM222.381 204H223.581V199.38C223.581 196.84 225.001 195.6 226.781 195.6C228.681 195.6 229.101 197.06 229.101 198.56V204H230.301V198.5C230.301 196.48 229.661 194.52 226.781 194.52C225.281 194.52 224.101 195.36 223.621 196.38H223.561C223.521 196.2 223.501 195.44 223.481 194.76H222.281C222.281 195.24 222.381 196.68 222.381 197.36V204ZM238.015 194.76H235.375V192.1H234.175V194.76H232.175V195.84H234.175V201.86C234.175 203.18 234.835 204.24 236.555 204.24C237.015 204.24 237.675 204.08 238.115 203.92L238.015 202.84C237.595 203.02 237.115 203.16 236.655 203.16C235.855 203.16 235.375 202.68 235.375 201.86V195.84H238.015V194.76Z" fill="black"/>
<path d="M24.112 36.008H29.152C29.936 36.008 30.68 36.088 31.384 36.248C32.104 36.392 32.736 36.648 33.28 37.016C33.84 37.368 34.28 37.848 34.6 38.456C34.936 39.048 35.104 39.784 35.104 40.664C35.104 41.592 34.928 42.36 34.576 42.968C34.224 43.576 33.768 44.056 33.208 44.408C32.664 44.76 32.064 45.008 31.408 45.152C30.752 45.296 30.128 45.368 29.536 45.368H26.128V53H24.112V36.008ZM26.128 43.496H29.536C30.544 43.496 31.36 43.272 31.984 42.824C32.624 42.36 32.944 41.648 32.944 40.688C32.944 39.728 32.624 39.024 31.984 38.576C31.36 38.112 30.544 37.88 29.536 37.88H26.128V43.496ZM38.0026 44.432C38.0026 43.92 37.9866 43.44 37.9546 42.992C37.9226 42.544 37.9066 42.136 37.9066 41.768H39.6826C39.6826 42.072 39.6906 42.376 39.7066 42.68C39.7226 42.984 39.7306 43.296 39.7306 43.616H39.7786C39.9066 43.344 40.0826 43.08 40.3066 42.824C40.5466 42.568 40.8266 42.344 41.1466 42.152C41.4666 41.944 41.8266 41.784 42.2266 41.672C42.6266 41.544 43.0586 41.48 43.5226 41.48C43.6506 41.48 43.7786 41.488 43.9066 41.504C44.0346 41.52 44.1626 41.552 44.2906 41.6L44.1706 43.496C43.8506 43.4 43.5146 43.352 43.1626 43.352C42.0106 43.352 41.1706 43.728 40.6426 44.48C40.1306 45.216 39.8746 46.232 39.8746 47.528V53H38.0026V44.432ZM46.6081 41.768H48.4801V53H46.6081V41.768ZM46.1761 37.376C46.1761 37.008 46.3041 36.688 46.5601 36.416C46.8321 36.144 47.1601 36.008 47.5441 36.008C47.9281 36.008 48.2481 36.144 48.5041 36.416C48.7761 36.688 48.9121 37.008 48.9121 37.376C48.9121 37.776 48.7841 38.104 48.5281 38.36C48.2721 38.616 47.9441 38.744 47.5441 38.744C47.1441 38.744 46.8161 38.616 46.5601 38.36C46.3041 38.104 46.1761 37.776 46.1761 37.376ZM51.5577 47.384C51.5577 46.504 51.7097 45.704 52.0137 44.984C52.3177 44.264 52.7337 43.648 53.2617 43.136C53.7897 42.608 54.4217 42.2 55.1577 41.912C55.8937 41.624 56.6937 41.48 57.5577 41.48C58.4217 41.48 59.2217 41.624 59.9577 41.912C60.6937 42.2 61.3257 42.608 61.8537 43.136C62.3817 43.648 62.7977 44.264 63.1017 44.984C63.4057 45.704 63.5577 46.504 63.5577 47.384C63.5577 48.264 63.4057 49.064 63.1017 49.784C62.7977 50.504 62.3817 51.128 61.8537 51.656C61.3257 52.168 60.6937 52.568 59.9577 52.856C59.2217 53.144 58.4217 53.288 57.5577 53.288C56.6937 53.288 55.8937 53.144 55.1577 52.856C54.4217 52.568 53.7897 52.168 53.2617 51.656C52.7337 51.128 52.3177 50.504 52.0137 49.784C51.7097 49.064 51.5577 48.264 51.5577 47.384ZM53.5737 47.384C53.5737 47.976 53.6617 48.528 53.8377 49.04C54.0297 49.536 54.3017 49.976 54.6537 50.36C55.0057 50.728 55.4217 51.024 55.9017 51.248C56.3977 51.456 56.9497 51.56 57.5577 51.56C58.1657 51.56 58.7097 51.456 59.1897 51.248C59.6857 51.024 60.1097 50.728 60.4617 50.36C60.8137 49.976 61.0777 49.536 61.2537 49.04C61.4457 48.528 61.5417 47.976 61.5417 47.384C61.5417 46.792 61.4457 46.248 61.2537 45.752C61.0777 45.24 60.8137 44.8 60.4617 44.432C60.1097 44.048 59.6857 43.752 59.1897 43.544C58.7097 43.32 58.1657 43.208 57.5577 43.208C56.9497 43.208 56.3977 43.32 55.9017 43.544C55.4217 43.752 55.0057 44.048 54.6537 44.432C54.3017 44.8 54.0297 45.24 53.8377 45.752C53.6617 46.248 53.5737 46.792 53.5737 47.384ZM66.4557 44.432C66.4557 43.92 66.4397 43.44 66.4077 42.992C66.3757 42.544 66.3597 42.136 66.3597 41.768H68.1357C68.1357 42.072 68.1437 42.376 68.1597 42.68C68.1757 42.984 68.1837 43.296 68.1837 43.616H68.2317C68.3597 43.344 68.5357 43.08 68.7597 42.824C68.9997 42.568 69.2797 42.344 69.5997 42.152C69.9197 41.944 70.2797 41.784 70.6797 41.672C71.0797 41.544 71.5117 41.48 71.9757 41.48C72.1037 41.48 72.2317 41.488 72.3597 41.504C72.4877 41.52 72.6157 41.552 72.7437 41.6L72.6237 43.496C72.3037 43.4 71.9677 43.352 71.6157 43.352C70.4637 43.352 69.6237 43.728 69.0957 44.48C68.5837 45.216 68.3277 46.232 68.3277 47.528V53H66.4557V44.432ZM75.0612 41.768H76.9332V53H75.0612V41.768ZM74.6292 37.376C74.6292 37.008 74.7572 36.688 75.0132 36.416C75.2852 36.144 75.6132 36.008 75.9972 36.008C76.3812 36.008 76.7012 36.144 76.9572 36.416C77.2292 36.688 77.3652 37.008 77.3652 37.376C77.3652 37.776 77.2372 38.104 76.9812 38.36C76.7252 38.616 76.3972 38.744 75.9972 38.744C75.5972 38.744 75.2692 38.616 75.0132 38.36C74.7572 38.104 74.6292 37.776 74.6292 37.376ZM86.8028 43.352H83.4908V48.968C83.4908 49.336 83.4988 49.68 83.5148 50C83.5308 50.304 83.5948 50.576 83.7068 50.816C83.8188 51.04 83.9868 51.224 84.2108 51.368C84.4348 51.496 84.7548 51.56 85.1708 51.56C85.4428 51.56 85.7228 51.528 86.0108 51.464C86.2988 51.4 86.5708 51.304 86.8268 51.176L86.8988 52.88C86.5788 53.024 86.2188 53.128 85.8188 53.192C85.4348 53.256 85.0668 53.288 84.7148 53.288C84.0428 53.288 83.5068 53.2 83.1068 53.024C82.7068 52.848 82.3948 52.6 82.1708 52.28C81.9468 51.96 81.7948 51.568 81.7148 51.104C81.6508 50.624 81.6188 50.096 81.6188 49.52V43.352H79.1708V41.768H81.6188V38.576H83.4908V41.768H86.8028V43.352ZM93.2243 55.568C93.0323 56.048 92.8323 56.48 92.6243 56.864C92.4323 57.264 92.1923 57.6 91.9043 57.872C91.6323 58.16 91.2963 58.376 90.8963 58.52C90.5123 58.68 90.0403 58.76 89.4803 58.76C89.2083 58.76 88.9203 58.744 88.6163 58.712C88.3283 58.68 88.0563 58.6 87.8003 58.472L88.0403 56.84C88.2323 56.92 88.4323 56.968 88.6403 56.984C88.8483 57.016 89.0883 57.032 89.3603 57.032C89.9683 57.032 90.4163 56.864 90.7043 56.528C90.9923 56.192 91.2403 55.744 91.4483 55.184L92.2163 53.072L87.5603 41.768H89.7443L93.2243 50.576H93.2723L96.6083 41.768H98.6483L93.2243 55.568ZM115.634 47.24H118.082V49.112H115.634V53H113.618V49.112H106.418V46.88L113.162 36.008H115.634V47.24ZM113.618 38.36H113.57L108.146 47.24H113.618V38.36ZM122.25 41.48C122.65 41.48 122.986 41.624 123.258 41.912C123.546 42.184 123.69 42.52 123.69 42.92C123.69 43.32 123.538 43.664 123.234 43.952C122.946 44.224 122.618 44.36 122.25 44.36C121.882 44.36 121.546 44.224 121.242 43.952C120.954 43.664 120.81 43.32 120.81 42.92C120.81 42.52 120.946 42.184 121.218 41.912C121.506 41.624 121.85 41.48 122.25 41.48ZM122.25 50.264C122.65 50.264 122.986 50.408 123.258 50.696C123.546 50.968 123.69 51.304 123.69 51.704C123.69 52.104 123.538 52.448 123.234 52.736C122.946 53.008 122.618 53.144 122.25 53.144C121.882 53.144 121.546 53.008 121.242 52.736C120.954 52.448 120.81 52.104 120.81 51.704C120.81 51.304 120.946 50.968 121.218 50.696C121.506 50.408 121.85 50.264 122.25 50.264ZM132.417 36.008H134.649L138.513 50.12H138.561L142.737 36.008H144.993L149.145 50.12H149.193L153.129 36.008H155.241L150.249 53H148.065L143.865 38.6H143.817L139.593 53H137.385L132.417 36.008ZM155.151 47.384C155.151 46.504 155.303 45.704 155.607 44.984C155.911 44.264 156.327 43.648 156.855 43.136C157.383 42.608 158.015 42.2 158.751 41.912C159.487 41.624 160.287 41.48 161.151 41.48C162.015 41.48 162.815 41.624 163.551 41.912C164.287 42.2 164.919 42.608 165.447 43.136C165.975 43.648 166.391 44.264 166.695 44.984C166.999 45.704 167.151 46.504 167.151 47.384C167.151 48.264 166.999 49.064 166.695 49.784C166.391 50.504 165.975 51.128 165.447 51.656C164.919 52.168 164.287 52.568 163.551 52.856C162.815 53.144 162.015 53.288 161.151 53.288C160.287 53.288 159.487 53.144 158.751 52.856C158.015 52.568 157.383 52.168 156.855 51.656C156.327 51.128 155.911 50.504 155.607 49.784C155.303 49.064 155.151 48.264 155.151 47.384ZM157.167 47.384C157.167 47.976 157.255 48.528 157.431 49.04C157.623 49.536 157.895 49.976 158.247 50.36C158.599 50.728 159.015 51.024 159.495 51.248C159.991 51.456 160.543 51.56 161.151 51.56C161.759 51.56 162.303 51.456 162.783 51.248C163.279 51.024 163.703 50.728 164.055 50.36C164.407 49.976 164.671 49.536 164.847 49.04C165.039 48.528 165.135 47.976 165.135 47.384C165.135 46.792 165.039 46.248 164.847 45.752C164.671 45.24 164.407 44.8 164.055 44.432C163.703 44.048 163.279 43.752 162.783 43.544C162.303 43.32 161.759 43.208 161.151 43.208C160.543 43.208 159.991 43.32 159.495 43.544C159.015 43.752 158.599 44.048 158.247 44.432C157.895 44.8 157.623 45.24 157.431 45.752C157.255 46.248 157.167 46.792 157.167 47.384ZM170.049 44.432C170.049 43.92 170.033 43.44 170.001 42.992C169.969 42.544 169.953 42.136 169.953 41.768H171.729C171.729 42.072 171.737 42.376 171.753 42.68C171.769 42.984 171.777 43.296 171.777 43.616H171.825C171.953 43.344 172.129 43.08 172.353 42.824C172.593 42.568 172.873 42.344 173.193 42.152C173.513 41.944 173.873 41.784 174.273 41.672C174.673 41.544 175.105 41.48 175.569 41.48C175.697 41.48 175.825 41.488 175.953 41.504C176.081 41.52 176.209 41.552 176.337 41.6L176.217 43.496C175.897 43.4 175.561 43.352 175.209 43.352C174.057 43.352 173.217 43.728 172.689 44.48C172.177 45.216 171.921 46.232 171.921 47.528V53H170.049V44.432ZM178.487 34.856H180.359V46.712L185.471 41.768H188.135L182.711 46.88L188.687 53H185.927L180.359 47.096V53H178.487V34.856Z" fill="black"/>
<rect x="332" y="85" width="202" height="165" rx="12" fill="#F9F9F9"/>
<path d="M405.02 155.92C405.02 160.24 408.02 163.36 412.34 163.36C416.66 163.36 419.66 160.24 419.66 155.92C419.66 151.6 416.66 148.48 412.34 148.48C408.02 148.48 405.02 151.6 405.02 155.92ZM406.34 155.92C406.34 152.4 408.64 149.68 412.34 149.68C416.04 149.68 418.34 152.4 418.34 155.92C418.34 159.44 416.04 162.16 412.34 162.16C408.64 162.16 406.34 159.44 406.34 155.92ZM422.28 163H423.48V158.38C423.48 155.84 424.9 154.6 426.68 154.6C428.58 154.6 429 156.06 429 157.56V163H430.2V157.5C430.2 155.48 429.56 153.52 426.68 153.52C425.18 153.52 424 154.36 423.52 155.38H423.46C423.42 155.2 423.4 154.44 423.38 153.76H422.18C422.18 154.24 422.28 155.68 422.28 156.36V163ZM443.108 153.76H440.468V151.1H439.268V153.76H437.268V154.84H439.268V160.86C439.268 162.18 439.928 163.24 441.648 163.24C442.108 163.24 442.768 163.08 443.208 162.92L443.108 161.84C442.688 162.02 442.208 162.16 441.748 162.16C440.948 162.16 440.468 161.68 440.468 160.86V154.84H443.108V153.76ZM445.248 163H446.448V157.96C446.448 156.16 447.388 154.72 449.468 154.72C449.588 154.72 449.748 154.74 449.928 154.8L450.068 153.62C449.828 153.56 449.608 153.52 449.368 153.52C447.988 153.52 447.028 154.3 446.428 155.38C446.388 155.2 446.368 154.44 446.348 153.76H445.148C445.148 154.24 445.248 155.68 445.248 156.36V163ZM459.089 156.86C459.089 154.52 457.649 153.52 455.409 153.52C454.209 153.52 452.769 153.98 451.889 154.82L452.589 155.64C453.409 154.94 454.329 154.6 455.409 154.6C456.889 154.6 458.009 155.24 458.009 156.84V157.4H456.609C454.789 157.4 451.489 157.68 451.489 160.5C451.489 162.46 453.169 163.24 454.749 163.24C456.309 163.24 457.309 162.68 457.989 161.5H458.029C458.029 162.02 458.069 162.54 458.149 163H459.269C459.129 161.94 459.089 160.92 459.089 159.12V156.86ZM458.009 158.36V158.98C458.009 160.52 457.349 162.16 454.789 162.16C453.789 162.16 452.689 161.58 452.689 160.44C452.689 158.86 454.689 158.36 456.689 158.36H458.009ZM469.1 160.88C468.48 161.64 467.62 162.16 466.62 162.16C464.36 162.16 462.96 160.46 462.96 158.38C462.96 156.3 464.36 154.6 466.62 154.6C467.58 154.6 468.4 155.08 469.1 155.84L470.06 155.12C469.16 154.1 467.96 153.52 466.62 153.52C463.78 153.52 461.76 155.56 461.76 158.38C461.76 161.2 463.78 163.24 466.62 163.24C467.94 163.24 469.12 162.72 470.02 161.64L469.1 160.88ZM471.909 163H473.109V158.12L478.169 163H479.989L474.669 158L479.429 153.78H477.669L473.109 157.96V147.88H471.909V163Z" fill="black"/>
<path d="M359.112 116H361.128V99.008H359.112V116ZM365.01 116H366.882V110.528C366.882 107.96 367.938 106.208 370.362 106.208C372.114 106.208 372.93 107.384 372.93 109.256V116H374.802V109.064C374.802 106.352 373.482 104.48 370.53 104.48C368.682 104.48 367.29 105.512 366.786 106.616H366.738C366.738 105.992 366.69 105.368 366.69 104.768H364.914C364.914 105.512 365.01 106.4 365.01 107.432V116ZM387.682 116H389.554V97.856H387.682V106.4H387.634C386.602 105.2 385.234 104.48 383.602 104.48C380.074 104.48 377.698 106.976 377.698 110.384C377.698 113.744 380.17 116.288 383.314 116.288C385.33 116.288 386.938 115.28 387.634 114.008H387.682V116ZM387.682 110.384C387.682 112.736 386.122 114.56 383.698 114.56C381.274 114.56 379.714 112.736 379.714 110.384C379.714 108.032 381.274 106.208 383.698 106.208C386.122 106.208 387.682 108.032 387.682 110.384ZM401.634 112.856C400.746 113.984 399.666 114.56 398.058 114.56C396.018 114.56 394.53 112.904 394.386 110.96H403.458V110.36C403.458 106.64 401.298 104.48 398.13 104.48C394.818 104.48 392.37 106.904 392.37 110.384C392.37 113.648 394.53 116.288 398.058 116.288C400.146 116.288 401.73 115.664 403.05 113.96L401.634 112.856ZM394.386 109.376C394.626 107.48 395.994 106.208 398.058 106.208C400.122 106.208 401.37 107.48 401.442 109.376H394.386ZM404.65 116H406.978L410.482 111.152L414.034 116H416.506L411.874 109.952L415.738 104.768H413.458L410.65 108.8L407.674 104.768H405.226L409.258 109.952L404.65 116Z" fill="black"/>
<path d="M405.94 193H407.26V178.84H405.94V193ZM410.795 193H411.995V188.38C411.995 185.84 413.415 184.6 415.195 184.6C417.095 184.6 417.515 186.06 417.515 187.56V193H418.715V187.5C418.715 185.48 418.075 183.52 415.195 183.52C413.695 183.52 412.515 184.36 412.035 185.38H411.975C411.935 185.2 411.915 184.44 411.895 183.76H410.695C410.695 184.24 410.795 185.68 410.795 186.36V193ZM426.844 197.56H428.044V191.38H428.084C428.824 192.66 430.404 193.24 431.784 193.24C434.624 193.24 436.644 191.2 436.644 188.38C436.644 185.56 434.624 183.52 431.784 183.52C430.404 183.52 428.824 184.1 428.084 185.38H428.044V183.76H426.844V197.56ZM427.924 188.38C427.924 186.3 429.604 184.6 431.784 184.6C434.044 184.6 435.444 186.3 435.444 188.38C435.444 190.46 434.044 192.16 431.784 192.16C429.604 192.16 427.924 190.46 427.924 188.38ZM439.33 193H440.53V187.96C440.53 186.16 441.47 184.72 443.55 184.72C443.67 184.72 443.83 184.74 444.01 184.8L444.15 183.62C443.91 183.56 443.69 183.52 443.45 183.52C442.07 183.52 441.11 184.3 440.51 185.38C440.47 185.2 440.45 184.44 440.43 183.76H439.23C439.23 184.24 439.33 185.68 439.33 186.36V193ZM445.119 188.38C445.119 191.2 447.139 193.24 449.979 193.24C452.819 193.24 454.839 191.2 454.839 188.38C454.839 185.56 452.819 183.52 449.979 183.52C447.139 183.52 445.119 185.56 445.119 188.38ZM446.319 188.38C446.319 186.3 447.719 184.6 449.979 184.6C452.239 184.6 453.639 186.3 453.639 188.38C453.639 190.46 452.239 192.16 449.979 192.16C447.719 192.16 446.319 190.46 446.319 188.38ZM466.794 183.76H465.594V185.32H465.554C464.854 184.22 463.634 183.52 462.054 183.52C459.334 183.52 457.114 185.66 457.114 188.26C457.114 190.86 459.334 193 462.054 193C463.634 193 464.854 192.3 465.554 191.2H465.594V192.48C465.594 193.52 465.534 196.72 461.874 196.72C460.434 196.72 459.074 196.16 458.234 194.98L457.294 195.86C458.234 197.08 460.014 197.8 461.874 197.8C463.754 197.8 466.794 197 466.794 192.4V183.76ZM465.634 188.26C465.634 190.28 463.994 191.92 461.974 191.92C459.954 191.92 458.314 190.28 458.314 188.26C458.314 186.24 459.954 184.6 461.974 184.6C463.994 184.6 465.634 186.24 465.634 188.26ZM469.741 193H470.941V187.96C470.941 186.16 471.881 184.72 473.961 184.72C474.081 184.72 474.241 184.74 474.421 184.8L474.561 183.62C474.321 183.56 474.101 183.52 473.861 183.52C472.481 183.52 471.521 184.3 470.921 185.38C470.881 185.2 470.861 184.44 470.841 183.76H469.641C469.641 184.24 469.741 185.68 469.741 186.36V193ZM483.329 190.52C482.729 191.52 481.449 192.16 480.229 192.16C477.429 192.16 476.729 189.68 476.729 188.68H484.489V187.84C484.489 185.7 482.989 183.52 480.149 183.52C477.449 183.52 475.529 185.6 475.529 188.36C475.529 191.22 477.389 193.24 480.209 193.24C481.849 193.24 483.269 192.66 484.209 191.26L483.329 190.52ZM476.729 187.6C476.729 187.12 477.469 184.6 480.089 184.6C481.869 184.6 483.289 185.96 483.289 187.6H476.729ZM486.123 191.36C486.843 192.64 488.263 193.24 489.843 193.24C491.603 193.24 493.183 192.28 493.183 190.38C493.183 186.64 487.703 188.58 487.703 186.08C487.703 185.12 488.803 184.6 489.663 184.6C490.743 184.6 491.383 185.06 491.843 185.9L492.923 185.26C492.323 184.08 491.163 183.52 489.663 183.52C488.143 183.52 486.503 184.38 486.503 186.18C486.503 189.7 491.983 187.92 491.983 190.46C491.983 191.52 490.903 192.16 489.863 192.16C488.783 192.16 487.683 191.62 487.183 190.64L486.123 191.36ZM494.638 191.36C495.358 192.64 496.778 193.24 498.358 193.24C500.118 193.24 501.698 192.28 501.698 190.38C501.698 186.64 496.218 188.58 496.218 186.08C496.218 185.12 497.318 184.6 498.178 184.6C499.258 184.6 499.898 185.06 500.358 185.9L501.438 185.26C500.838 184.08 499.678 183.52 498.178 183.52C496.658 183.52 495.018 184.38 495.018 186.18C495.018 189.7 500.498 187.92 500.498 190.46C500.498 191.52 499.418 192.16 498.378 192.16C497.298 192.16 496.198 191.62 495.698 190.64L494.638 191.36Z" fill="black"/>
<path d="M405.02 215.92C405.02 220.24 408.02 223.36 412.34 223.36C416.66 223.36 419.66 220.24 419.66 215.92C419.66 211.6 416.66 208.48 412.34 208.48C408.02 208.48 405.02 211.6 405.02 215.92ZM406.34 215.92C406.34 212.4 408.64 209.68 412.34 209.68C416.04 209.68 418.34 212.4 418.34 215.92C418.34 219.44 416.04 222.16 412.34 222.16C408.64 222.16 406.34 219.44 406.34 215.92ZM430.1 213.76H428.9V218.38C428.9 220.92 427.48 222.16 425.7 222.16C423.8 222.16 423.38 220.7 423.38 219.2V213.76H422.18V219.26C422.18 221.28 422.82 223.24 425.7 223.24C427.2 223.24 428.38 222.4 428.86 221.38H428.92C428.96 221.56 428.98 222.32 429 223H430.2C430.2 222.52 430.1 221.08 430.1 220.4V213.76ZM437.913 213.76H435.273V211.1H434.073V213.76H432.073V214.84H434.073V220.86C434.073 222.18 434.733 223.24 436.453 223.24C436.913 223.24 437.573 223.08 438.013 222.92L437.913 221.84C437.493 222.02 437.013 222.16 436.553 222.16C435.753 222.16 435.273 221.68 435.273 220.86V214.84H437.913V213.76ZM444.728 218.38C444.728 221.2 446.748 223.24 449.588 223.24C452.428 223.24 454.448 221.2 454.448 218.38C454.448 215.56 452.428 213.52 449.588 213.52C446.748 213.52 444.728 215.56 444.728 218.38ZM445.928 218.38C445.928 216.3 447.328 214.6 449.588 214.6C451.848 214.6 453.248 216.3 453.248 218.38C453.248 220.46 451.848 222.16 449.588 222.16C447.328 222.16 445.928 220.46 445.928 218.38ZM457.803 223H459.003V214.84H461.163V213.76H459.003V211.18C459.003 209.52 459.523 208.72 460.623 208.72C461.083 208.72 461.423 208.78 461.703 208.92L461.943 207.88C461.583 207.72 461.143 207.64 460.563 207.64C459.383 207.64 457.803 208.36 457.803 210.74V213.76H455.883V214.84H457.803V223ZM472.757 213.76H470.117V211.1H468.917V213.76H466.917V214.84H468.917V220.86C468.917 222.18 469.577 223.24 471.297 223.24C471.757 223.24 472.417 223.08 472.857 222.92L472.757 221.84C472.337 222.02 471.857 222.16 471.397 222.16C470.597 222.16 470.117 221.68 470.117 220.86V214.84H472.757V213.76ZM474.897 223H476.097V217.96C476.097 216.16 477.037 214.72 479.117 214.72C479.237 214.72 479.397 214.74 479.577 214.8L479.717 213.62C479.477 213.56 479.257 213.52 479.017 213.52C477.637 213.52 476.677 214.3 476.077 215.38C476.037 215.2 476.017 214.44 475.997 213.76H474.797C474.797 214.24 474.897 215.68 474.897 216.36V223ZM488.737 216.86C488.737 214.52 487.297 213.52 485.057 213.52C483.857 213.52 482.417 213.98 481.537 214.82L482.237 215.64C483.057 214.94 483.977 214.6 485.057 214.6C486.537 214.6 487.657 215.24 487.657 216.84V217.4H486.257C484.437 217.4 481.137 217.68 481.137 220.5C481.137 222.46 482.817 223.24 484.397 223.24C485.957 223.24 486.957 222.68 487.637 221.5H487.677C487.677 222.02 487.717 222.54 487.797 223H488.917C488.777 221.94 488.737 220.92 488.737 219.12V216.86ZM487.657 218.36V218.98C487.657 220.52 486.997 222.16 484.437 222.16C483.437 222.16 482.337 221.58 482.337 220.44C482.337 218.86 484.337 218.36 486.337 218.36H487.657ZM498.748 220.88C498.128 221.64 497.268 222.16 496.268 222.16C494.008 222.16 492.608 220.46 492.608 218.38C492.608 216.3 494.008 214.6 496.268 214.6C497.228 214.6 498.048 215.08 498.748 215.84L499.708 215.12C498.808 214.1 497.608 213.52 496.268 213.52C493.428 213.52 491.408 215.56 491.408 218.38C491.408 221.2 493.428 223.24 496.268 223.24C497.588 223.24 498.768 222.72 499.668 221.64L498.748 220.88ZM501.557 223H502.757V218.12L507.817 223H509.637L504.317 218L509.077 213.78H507.317L502.757 217.96V207.88H501.557V223Z" fill="black"/>
<circle cx="365" cy="158" r="8" fill="#467822"/>
<circle cx="365" cy="188" r="8" fill="#FFD565"/>
<circle cx="365" cy="218" r="8" fill="#DB3259"/>
</svg>
