<svg width="926" height="193" viewBox="0 0 926 193" fill="none" xmlns="http://www.w3.org/2000/svg">
<rect y="1" width="176.6" height="48" fill="#777DA7"/>
<path d="M16.4 30H18.144L22.72 18.672H20.544L17.36 27.232L14.272 18.672H11.952L16.4 30ZM30.2769 26.832V26.304C30.2769 23.632 28.8209 22.128 26.6769 22.128C24.3569 22.128 22.5009 23.744 22.5009 26.16C22.5009 28.576 24.3569 30.192 26.6769 30.192C27.8929 30.192 29.0289 29.76 29.9249 28.656L28.5489 27.616C28.0689 28.208 27.4449 28.656 26.4849 28.656C25.4129 28.656 24.5489 27.968 24.4209 26.832H30.2769ZM24.4209 25.392C24.5649 24.288 25.2689 23.568 26.4049 23.568C27.6049 23.568 28.3409 24.272 28.3569 25.392H24.4209ZM32.0724 30H33.9924V25.888C33.9924 25.472 34.2484 23.952 36.0564 23.952C36.3604 23.952 36.6644 24.016 36.9844 24.096V22.24C36.7604 22.176 36.5364 22.128 36.2964 22.128C35.2884 22.128 34.4404 22.656 34.0244 23.536H33.9924V22.32H32.0724V30ZM43.6671 23.296C43.0431 22.448 41.9551 22.128 40.9311 22.128C39.3791 22.128 37.8431 22.896 37.8431 24.608C37.8431 27.536 41.9871 26.288 41.9871 27.872C41.9871 28.48 41.2671 28.752 40.7071 28.752C39.8911 28.752 39.3791 28.352 38.8831 27.808L37.6031 29.008C38.3871 29.888 39.4111 30.192 40.5951 30.192C42.1631 30.192 43.9071 29.552 43.9071 27.728C43.9071 24.736 39.7631 25.856 39.7631 24.48C39.7631 23.904 40.3711 23.664 40.8831 23.664C41.5391 23.664 42.0191 23.936 42.3871 24.448L43.6671 23.296ZM45.4325 30H47.3525V22.32H45.4325V30ZM45.1605 19.712C45.1605 20.32 45.6725 20.864 46.3765 20.864C47.0805 20.864 47.6245 20.368 47.6245 19.712C47.6245 19.056 47.0805 18.56 46.3765 18.56C45.6725 18.56 45.1605 19.104 45.1605 19.712ZM49.1728 26.16C49.1728 28.576 51.0288 30.192 53.3488 30.192C55.6688 30.192 57.5248 28.576 57.5248 26.16C57.5248 23.744 55.6688 22.128 53.3488 22.128C51.0288 22.128 49.1728 23.744 49.1728 26.16ZM51.0928 26.16C51.0928 24.96 51.9408 23.856 53.3488 23.856C54.7568 23.856 55.6048 24.96 55.6048 26.16C55.6048 27.36 54.7568 28.464 53.3488 28.464C51.9408 28.464 51.0928 27.36 51.0928 26.16ZM59.3224 30H61.2424V25.808C61.2424 24.784 61.7384 23.856 63.0024 23.856C64.3464 23.856 64.4104 25.264 64.4104 26.112V30H66.3304V25.152C66.3304 23.584 65.5944 22.128 63.5304 22.128C62.2504 22.128 61.5304 22.784 61.1784 23.552H61.1464V22.32H59.3224V30Z" fill="white"/>
<path d="M174.5 21.2501C174.307 21.2353 174.128 21.1456 174 21.0001L172 19.0001L170 21.0001C169.948 21.1084 169.871 21.2027 169.776 21.275C169.68 21.3474 169.568 21.3958 169.45 21.4161C169.332 21.4364 169.21 21.428 169.096 21.3916C168.982 21.3553 168.878 21.2921 168.793 21.2072C168.708 21.1224 168.645 21.0184 168.608 20.9041C168.572 20.7897 168.564 20.6683 168.584 20.5501C168.604 20.4318 168.653 20.3201 168.725 20.2244C168.797 20.1287 168.892 20.0518 169 20.0001L171.5 17.5001C171.641 17.3597 171.831 17.2808 172.03 17.2808C172.229 17.2808 172.419 17.3597 172.56 17.5001L175 20.0001C175.123 20.1376 175.191 20.3156 175.191 20.5001C175.191 20.6846 175.123 20.8626 175 21.0001C174.872 21.1456 174.693 21.2353 174.5 21.2501V21.2501Z" fill="white"/>
<path d="M172 32.75C171.802 32.7474 171.613 32.6676 171.473 32.5275C171.332 32.3874 171.253 32.1981 171.25 32V18C171.25 17.8011 171.329 17.6103 171.47 17.4697C171.61 17.329 171.801 17.25 172 17.25C172.199 17.25 172.39 17.329 172.53 17.4697C172.671 17.6103 172.75 17.8011 172.75 18V32C172.747 32.1981 172.668 32.3874 172.527 32.5275C172.387 32.6676 172.198 32.7474 172 32.75V32.75Z" fill="white"/>
<path d="M180 32.75C179.901 32.7505 179.804 32.7313 179.713 32.6935C179.622 32.6557 179.539 32.6001 179.47 32.53L177 30C176.892 29.9483 176.797 29.8714 176.725 29.7757C176.653 29.68 176.604 29.5683 176.584 29.4501C176.564 29.3318 176.572 29.2104 176.608 29.0961C176.645 28.9817 176.708 28.8778 176.793 28.7929C176.878 28.7081 176.982 28.6448 177.096 28.6085C177.21 28.5721 177.332 28.5638 177.45 28.584C177.568 28.6043 177.68 28.6527 177.776 28.7251C177.871 28.7975 177.948 28.8917 178 29L180 31L182 29C182.052 28.8917 182.129 28.7975 182.224 28.7251C182.32 28.6527 182.432 28.6043 182.55 28.584C182.668 28.5638 182.79 28.5721 182.904 28.6085C183.018 28.6448 183.122 28.7081 183.207 28.7929C183.292 28.8778 183.355 28.9817 183.392 29.0961C183.428 29.2104 183.436 29.3318 183.416 29.4501C183.396 29.5683 183.347 29.68 183.275 29.7757C183.203 29.8714 183.108 29.9483 183 30L180.5 32.5C180.372 32.6455 180.193 32.7353 180 32.75Z" fill="white"/>
<path d="M180 32.75C179.802 32.7474 179.613 32.6676 179.473 32.5275C179.332 32.3874 179.253 32.1981 179.25 32V18C179.25 17.8011 179.329 17.6103 179.47 17.4697C179.61 17.329 179.801 17.25 180 17.25C180.199 17.25 180.39 17.329 180.53 17.4697C180.671 17.6103 180.75 17.8011 180.75 18V32C180.747 32.1981 180.668 32.3874 180.527 32.5275C180.387 32.6676 180.198 32.7474 180 32.75V32.75Z" fill="white"/>
<rect x="176.6" y="1" width="176.6" height="48" fill="#777DA7"/>
<path d="M189.816 30H191.832V18.672H189.816V30ZM194.317 30H198.541C201.261 30 204.541 28.208 204.541 24.336C204.541 20.496 201.757 18.672 198.781 18.672H194.317V30ZM196.333 28.176V20.496H198.173C200.637 20.496 202.429 21.584 202.429 24.336C202.429 27.088 200.365 28.176 197.837 28.176H196.333Z" fill="white"/>
<path d="M351.1 21.2501C350.907 21.2353 350.728 21.1456 350.6 21.0001L348.6 19.0001L346.6 21.0001C346.548 21.1084 346.471 21.2027 346.376 21.275C346.28 21.3474 346.168 21.3958 346.05 21.4161C345.932 21.4364 345.811 21.428 345.696 21.3916C345.582 21.3553 345.478 21.2921 345.393 21.2072C345.308 21.1224 345.245 21.0184 345.209 20.9041C345.172 20.7897 345.164 20.6683 345.184 20.5501C345.204 20.4318 345.253 20.3201 345.325 20.2244C345.398 20.1287 345.492 20.0518 345.6 20.0001L348.1 17.5001C348.241 17.3597 348.431 17.2808 348.63 17.2808C348.829 17.2808 349.019 17.3597 349.16 17.5001L351.6 20.0001C351.723 20.1376 351.791 20.3156 351.791 20.5001C351.791 20.6846 351.723 20.8626 351.6 21.0001C351.473 21.1456 351.293 21.2353 351.1 21.2501V21.2501Z" fill="white"/>
<path d="M348.6 32.75C348.402 32.7474 348.213 32.6676 348.073 32.5275C347.933 32.3874 347.853 32.1981 347.85 32V18C347.85 17.8011 347.929 17.6103 348.07 17.4697C348.21 17.329 348.401 17.25 348.6 17.25C348.799 17.25 348.99 17.329 349.13 17.4697C349.271 17.6103 349.35 17.8011 349.35 18V32C349.348 32.1981 349.268 32.3874 349.128 32.5275C348.987 32.6676 348.798 32.7474 348.6 32.75V32.75Z" fill="white"/>
<path d="M356.6 32.75C356.502 32.7505 356.404 32.7313 356.313 32.6935C356.222 32.6557 356.139 32.6001 356.07 32.53L353.6 30C353.492 29.9483 353.398 29.8714 353.325 29.7757C353.253 29.68 353.204 29.5683 353.184 29.4501C353.164 29.3318 353.172 29.2104 353.209 29.0961C353.245 28.9817 353.308 28.8778 353.393 28.7929C353.478 28.7081 353.582 28.6448 353.696 28.6085C353.811 28.5721 353.932 28.5638 354.05 28.584C354.168 28.6043 354.28 28.6527 354.376 28.7251C354.471 28.7975 354.548 28.8917 354.6 29L356.6 31L358.6 29C358.652 28.8917 358.729 28.7975 358.824 28.7251C358.92 28.6527 359.032 28.6043 359.15 28.584C359.268 28.5638 359.39 28.5721 359.504 28.6085C359.618 28.6448 359.722 28.7081 359.807 28.7929C359.892 28.8778 359.955 28.9817 359.992 29.0961C360.028 29.2104 360.036 29.3318 360.016 29.4501C359.996 29.5683 359.947 29.68 359.875 29.7757C359.803 29.8714 359.708 29.9483 359.6 30L357.1 32.5C356.973 32.6455 356.793 32.7353 356.6 32.75Z" fill="white"/>
<path d="M356.6 32.75C356.402 32.7474 356.213 32.6676 356.073 32.5275C355.933 32.3874 355.853 32.1981 355.85 32V18C355.85 17.8011 355.929 17.6103 356.07 17.4697C356.21 17.329 356.401 17.25 356.6 17.25C356.799 17.25 356.99 17.329 357.13 17.4697C357.271 17.6103 357.35 17.8011 357.35 18V32C357.348 32.1981 357.268 32.3874 357.128 32.5275C356.987 32.6676 356.798 32.7474 356.6 32.75V32.75Z" fill="white"/>
<rect x="353.2" y="1" width="176.6" height="48" fill="#777DA7"/>
<path d="M366.464 30H374.256V28.176H368.48V25.104H373.68V23.28H368.48V20.496H373.968V18.672H366.464V30ZM376.757 30H378.677V23.952H380.453V22.32H378.677V20.928C378.677 20.08 378.837 19.344 379.909 19.344C380.181 19.344 380.437 19.392 380.709 19.456L380.837 17.824C380.437 17.744 380.037 17.712 379.621 17.712C377.237 17.712 376.757 19.104 376.757 21.232V22.32H375.173V23.952H376.757V30ZM382.101 30H384.021V23.952H385.797V22.32H384.021V20.928C384.021 20.08 384.181 19.344 385.253 19.344C385.525 19.344 385.781 19.392 386.053 19.456L386.181 17.824C385.781 17.744 385.381 17.712 384.965 17.712C382.581 17.712 382.101 19.104 382.101 21.232V22.32H380.517V23.952H382.101V30ZM394.43 26.832V26.304C394.43 23.632 392.974 22.128 390.83 22.128C388.51 22.128 386.654 23.744 386.654 26.16C386.654 28.576 388.51 30.192 390.83 30.192C392.046 30.192 393.182 29.76 394.078 28.656L392.702 27.616C392.222 28.208 391.598 28.656 390.638 28.656C389.566 28.656 388.702 27.968 388.574 26.832H394.43ZM388.574 25.392C388.718 24.288 389.422 23.568 390.558 23.568C391.758 23.568 392.494 24.272 392.51 25.392H388.574ZM402.801 23.296C402.065 22.48 400.993 22.128 400.017 22.128C397.697 22.128 395.841 23.744 395.841 26.16C395.841 28.576 397.697 30.192 400.017 30.192C400.689 30.192 402.001 29.904 402.785 29.12L401.505 27.744C401.153 28.208 400.609 28.464 400.017 28.464C398.609 28.464 397.761 27.36 397.761 26.16C397.761 24.96 398.609 23.856 400.017 23.856C400.529 23.856 401.025 24.16 401.473 24.624L402.801 23.296ZM404.632 23.952V27.472C404.632 29.28 405.112 30.192 407.144 30.192C407.592 30.192 408.264 30.128 408.664 29.936V28.32C408.424 28.496 407.96 28.56 407.624 28.56C406.776 28.56 406.552 28.08 406.552 27.312V23.952H408.664V22.32H406.552V20.096H404.632V22.32H403.048V23.952H404.632ZM410.195 30H412.115V22.32H410.195V30ZM409.923 19.712C409.923 20.32 410.435 20.864 411.139 20.864C411.843 20.864 412.387 20.368 412.387 19.712C412.387 19.056 411.843 18.56 411.139 18.56C410.435 18.56 409.923 19.104 409.923 19.712ZM416.415 30H418.463L421.487 22.32H419.519L417.455 27.696H417.423L415.375 22.32H413.279L416.415 30ZM430.008 26.832V26.304C430.008 23.632 428.552 22.128 426.408 22.128C424.088 22.128 422.232 23.744 422.232 26.16C422.232 28.576 424.088 30.192 426.408 30.192C427.624 30.192 428.76 29.76 429.656 28.656L428.28 27.616C427.8 28.208 427.176 28.656 426.216 28.656C425.144 28.656 424.28 27.968 424.152 26.832H430.008ZM424.152 25.392C424.296 24.288 425 23.568 426.136 23.568C427.336 23.568 428.072 24.272 428.088 25.392H424.152ZM436.714 30H440.938C443.658 30 446.938 28.208 446.938 24.336C446.938 20.496 444.154 18.672 441.178 18.672H436.714V30ZM438.73 28.176V20.496H440.57C443.034 20.496 444.826 21.584 444.826 24.336C444.826 27.088 442.762 28.176 440.234 28.176H438.73ZM453.479 30H455.207V25.584C455.207 24.496 455.207 22.128 451.927 22.128C450.711 22.128 449.511 22.496 448.663 23.36L449.671 24.368C450.183 23.888 450.919 23.568 451.719 23.568C452.743 23.568 453.479 24.064 453.479 25.008V25.216H452.999C451.079 25.216 448.167 25.392 448.167 27.888C448.167 29.408 449.543 30.192 450.967 30.192C451.991 30.192 452.887 29.808 453.431 28.944H453.479V30ZM453.367 26.992C453.367 28.064 452.743 28.752 451.431 28.752C450.807 28.752 450.087 28.448 450.087 27.744C450.087 26.64 451.911 26.56 452.967 26.56H453.367V26.992ZM457.96 23.952V27.472C457.96 29.28 458.44 30.192 460.472 30.192C460.92 30.192 461.592 30.128 461.992 29.936V28.32C461.752 28.496 461.288 28.56 460.952 28.56C460.104 28.56 459.88 28.08 459.88 27.312V23.952H461.992V22.32H459.88V20.096H457.96V22.32H456.376V23.952H457.96ZM470.883 26.832V26.304C470.883 23.632 469.427 22.128 467.283 22.128C464.963 22.128 463.107 23.744 463.107 26.16C463.107 28.576 464.963 30.192 467.283 30.192C468.499 30.192 469.635 29.76 470.531 28.656L469.155 27.616C468.675 28.208 468.051 28.656 467.091 28.656C466.019 28.656 465.155 27.968 465.027 26.832H470.883ZM465.027 25.392C465.171 24.288 465.875 23.568 467.011 23.568C468.211 23.568 468.947 24.272 468.963 25.392H465.027Z" fill="white"/>
<path d="M527.7 21.2501C527.507 21.2353 527.328 21.1456 527.2 21.0001L525.2 19.0001L523.2 21.0001C523.148 21.1084 523.071 21.2027 522.976 21.275C522.88 21.3474 522.768 21.3958 522.65 21.4161C522.532 21.4364 522.41 21.428 522.296 21.3916C522.182 21.3553 522.078 21.2921 521.993 21.2072C521.908 21.1224 521.845 21.0184 521.808 20.9041C521.772 20.7897 521.764 20.6683 521.784 20.5501C521.804 20.4318 521.853 20.3201 521.925 20.2244C521.997 20.1287 522.092 20.0518 522.2 20.0001L524.7 17.5001C524.841 17.3597 525.031 17.2808 525.23 17.2808C525.429 17.2808 525.619 17.3597 525.76 17.5001L528.2 20.0001C528.323 20.1376 528.391 20.3156 528.391 20.5001C528.391 20.6846 528.323 20.8626 528.2 21.0001C528.072 21.1456 527.893 21.2353 527.7 21.2501V21.2501Z" fill="white"/>
<path d="M525.2 32.75C525.002 32.7474 524.813 32.6676 524.672 32.5275C524.532 32.3874 524.453 32.1981 524.45 32V18C524.45 17.8011 524.529 17.6103 524.67 17.4697C524.81 17.329 525.001 17.25 525.2 17.25C525.399 17.25 525.59 17.329 525.73 17.4697C525.871 17.6103 525.95 17.8011 525.95 18V32C525.947 32.1981 525.868 32.3874 525.727 32.5275C525.587 32.6676 525.398 32.7474 525.2 32.75V32.75Z" fill="white"/>
<path d="M533.2 32.75C533.101 32.7505 533.004 32.7313 532.913 32.6935C532.822 32.6557 532.739 32.6001 532.67 32.53L530.2 30C530.092 29.9483 529.997 29.8714 529.925 29.7757C529.853 29.68 529.804 29.5683 529.784 29.4501C529.764 29.3318 529.772 29.2104 529.808 29.0961C529.845 28.9817 529.908 28.8778 529.993 28.7929C530.078 28.7081 530.182 28.6448 530.296 28.6085C530.41 28.5721 530.532 28.5638 530.65 28.584C530.768 28.6043 530.88 28.6527 530.976 28.7251C531.071 28.7975 531.148 28.8917 531.2 29L533.2 31L535.2 29C535.252 28.8917 535.329 28.7975 535.424 28.7251C535.52 28.6527 535.632 28.6043 535.75 28.584C535.868 28.5638 535.99 28.5721 536.104 28.6085C536.218 28.6448 536.322 28.7081 536.407 28.7929C536.492 28.8778 536.555 28.9817 536.592 29.0961C536.628 29.2104 536.636 29.3318 536.616 29.4501C536.596 29.5683 536.547 29.68 536.475 29.7757C536.403 29.8714 536.308 29.9483 536.2 30L533.7 32.5C533.572 32.6455 533.393 32.7353 533.2 32.75Z" fill="white"/>
<path d="M533.2 32.75C533.002 32.7474 532.813 32.6676 532.672 32.5275C532.532 32.3874 532.453 32.1981 532.45 32V18C532.45 17.8011 532.529 17.6103 532.67 17.4697C532.81 17.329 533.001 17.25 533.2 17.25C533.399 17.25 533.59 17.329 533.73 17.4697C533.871 17.6103 533.95 17.8011 533.95 18V32C533.947 32.1981 533.868 32.3874 533.727 32.5275C533.587 32.6676 533.398 32.7474 533.2 32.75V32.75Z" fill="white"/>
<rect x="529.8" y="1" width="176.6" height="48" fill="#777DA7"/>
<path d="M550.088 19.552C549.208 18.72 548.024 18.384 546.84 18.384C544.744 18.384 542.664 19.472 542.664 21.808C542.664 25.856 548.04 24.432 548.04 26.912C548.04 27.952 546.984 28.464 546.056 28.464C545.16 28.464 544.312 28.032 543.816 27.28L542.296 28.752C543.224 29.856 544.6 30.288 546.008 30.288C548.232 30.288 550.152 29.104 550.152 26.672C550.152 22.64 544.776 23.936 544.776 21.664C544.776 20.624 545.704 20.208 546.632 20.208C547.416 20.208 548.184 20.496 548.616 21.104L550.088 19.552ZM552.764 23.952V27.472C552.764 29.28 553.244 30.192 555.276 30.192C555.724 30.192 556.396 30.128 556.796 29.936V28.32C556.556 28.496 556.092 28.56 555.756 28.56C554.908 28.56 554.684 28.08 554.684 27.312V23.952H556.796V22.32H554.684V20.096H552.764V22.32H551.18V23.952H552.764ZM563.094 30H564.822V25.584C564.822 24.496 564.822 22.128 561.542 22.128C560.326 22.128 559.126 22.496 558.278 23.36L559.286 24.368C559.798 23.888 560.534 23.568 561.334 23.568C562.358 23.568 563.094 24.064 563.094 25.008V25.216H562.614C560.694 25.216 557.782 25.392 557.782 27.888C557.782 29.408 559.158 30.192 560.582 30.192C561.606 30.192 562.502 29.808 563.046 28.944H563.094V30ZM562.982 26.992C562.982 28.064 562.358 28.752 561.046 28.752C560.422 28.752 559.702 28.448 559.702 27.744C559.702 26.64 561.526 26.56 562.582 26.56H562.982V26.992ZM567.576 23.952V27.472C567.576 29.28 568.056 30.192 570.088 30.192C570.536 30.192 571.208 30.128 571.608 29.936V28.32C571.368 28.496 570.904 28.56 570.568 28.56C569.72 28.56 569.496 28.08 569.496 27.312V23.952H571.608V22.32H569.496V20.096H567.576V22.32H565.992V23.952H567.576ZM580.115 22.32H578.195V26.512C578.195 27.536 577.699 28.464 576.435 28.464C575.091 28.464 575.027 27.056 575.027 26.208V22.32H573.107V27.168C573.107 28.736 573.843 30.192 575.907 30.192C577.187 30.192 577.907 29.536 578.259 28.768H578.291V30H580.115V22.32ZM587.67 23.296C587.046 22.448 585.958 22.128 584.934 22.128C583.382 22.128 581.846 22.896 581.846 24.608C581.846 27.536 585.99 26.288 585.99 27.872C585.99 28.48 585.27 28.752 584.71 28.752C583.894 28.752 583.382 28.352 582.886 27.808L581.606 29.008C582.39 29.888 583.414 30.192 584.598 30.192C586.166 30.192 587.91 29.552 587.91 27.728C587.91 24.736 583.766 25.856 583.766 24.48C583.766 23.904 584.374 23.664 584.886 23.664C585.542 23.664 586.022 23.936 586.39 24.448L587.67 23.296Z" fill="white"/>
<path d="M704.3 21.2501C704.107 21.2353 703.928 21.1456 703.8 21.0001L701.8 19.0001L699.8 21.0001C699.748 21.1084 699.671 21.2027 699.576 21.275C699.48 21.3474 699.368 21.3958 699.25 21.4161C699.132 21.4364 699.01 21.428 698.896 21.3916C698.782 21.3553 698.678 21.2921 698.593 21.2072C698.508 21.1224 698.445 21.0184 698.409 20.9041C698.372 20.7897 698.364 20.6683 698.384 20.5501C698.404 20.4318 698.453 20.3201 698.525 20.2244C698.598 20.1287 698.692 20.0518 698.8 20.0001L701.3 17.5001C701.441 17.3597 701.631 17.2808 701.83 17.2808C702.029 17.2808 702.219 17.3597 702.36 17.5001L704.8 20.0001C704.923 20.1376 704.991 20.3156 704.991 20.5001C704.991 20.6846 704.923 20.8626 704.8 21.0001C704.672 21.1456 704.493 21.2353 704.3 21.2501V21.2501Z" fill="white"/>
<path d="M701.8 32.75C701.602 32.7474 701.413 32.6676 701.273 32.5275C701.132 32.3874 701.053 32.1981 701.05 32V18C701.05 17.8011 701.129 17.6103 701.27 17.4697C701.41 17.329 701.601 17.25 701.8 17.25C701.999 17.25 702.19 17.329 702.33 17.4697C702.471 17.6103 702.55 17.8011 702.55 18V32C702.547 32.1981 702.468 32.3874 702.328 32.5275C702.187 32.6676 701.998 32.7474 701.8 32.75V32.75Z" fill="white"/>
<path d="M709.8 32.75C709.702 32.7505 709.604 32.7313 709.513 32.6935C709.422 32.6557 709.339 32.6001 709.27 32.53L706.8 30C706.692 29.9483 706.598 29.8714 706.525 29.7757C706.453 29.68 706.404 29.5683 706.384 29.4501C706.364 29.3318 706.372 29.2104 706.409 29.0961C706.445 28.9817 706.508 28.8778 706.593 28.7929C706.678 28.7081 706.782 28.6448 706.896 28.6085C707.01 28.5721 707.132 28.5638 707.25 28.584C707.368 28.6043 707.48 28.6527 707.576 28.7251C707.671 28.7975 707.748 28.8917 707.8 29L709.8 31L711.8 29C711.852 28.8917 711.929 28.7975 712.024 28.7251C712.12 28.6527 712.232 28.6043 712.35 28.584C712.468 28.5638 712.59 28.5721 712.704 28.6085C712.818 28.6448 712.922 28.7081 713.007 28.7929C713.092 28.8778 713.155 28.9817 713.192 29.0961C713.228 29.2104 713.236 29.3318 713.216 29.4501C713.196 29.5683 713.147 29.68 713.075 29.7757C713.003 29.8714 712.908 29.9483 712.8 30L710.3 32.5C710.172 32.6455 709.993 32.7353 709.8 32.75Z" fill="white"/>
<path d="M709.8 32.75C709.602 32.7474 709.413 32.6676 709.273 32.5275C709.132 32.3874 709.053 32.1981 709.05 32V18C709.05 17.8011 709.129 17.6103 709.27 17.4697C709.41 17.329 709.601 17.25 709.8 17.25C709.999 17.25 710.19 17.329 710.33 17.4697C710.471 17.6103 710.55 17.8011 710.55 18V32C710.547 32.1981 710.468 32.3874 710.328 32.5275C710.187 32.6676 709.998 32.7474 709.8 32.75V32.75Z" fill="white"/>
<rect x="706.4" y="1" width="218" height="48" fill="#777DA7"/>
<path d="M719.664 30H723.888C726.608 30 729.888 28.208 729.888 24.336C729.888 20.496 727.104 18.672 724.128 18.672H719.664V30ZM721.68 28.176V20.496H723.52C725.984 20.496 727.776 21.584 727.776 24.336C727.776 27.088 725.712 28.176 723.184 28.176H721.68ZM731.805 30H733.821V25.296H738.813V23.472H733.821V20.496H739.117V18.672H731.805V30ZM750.336 20.176C749.216 18.88 747.904 18.384 746.368 18.384C742.88 18.384 740.384 20.752 740.384 24.384C740.384 27.92 742.88 30.288 746.368 30.288C748.032 30.288 749.568 29.68 750.592 28.272L748.928 27.088C748.176 28.048 747.296 28.464 746.384 28.464C744.048 28.464 742.496 26.672 742.496 24.256C742.496 22 744.048 20.208 746.384 20.208C747.168 20.208 747.936 20.448 748.768 21.328L750.336 20.176ZM751.993 30H753.913V20.592H753.945L757.385 30H758.793L762.233 20.592H762.265V30H764.185V18.672H761.145L758.089 26.608L755.065 18.672H751.993V30ZM771.492 30H778.324V28.176H773.508V18.672H771.492V30ZM779.229 26.16C779.229 28.576 781.085 30.192 783.405 30.192C785.725 30.192 787.581 28.576 787.581 26.16C787.581 23.744 785.725 22.128 783.405 22.128C781.085 22.128 779.229 23.744 779.229 26.16ZM781.149 26.16C781.149 24.96 781.997 23.856 783.405 23.856C784.813 23.856 785.661 24.96 785.661 26.16C785.661 27.36 784.813 28.464 783.405 28.464C781.997 28.464 781.149 27.36 781.149 26.16ZM794.179 30H795.907V25.584C795.907 24.496 795.907 22.128 792.627 22.128C791.411 22.128 790.211 22.496 789.363 23.36L790.371 24.368C790.883 23.888 791.619 23.568 792.419 23.568C793.443 23.568 794.179 24.064 794.179 25.008V25.216H793.699C791.779 25.216 788.867 25.392 788.867 27.888C788.867 29.408 790.243 30.192 791.667 30.192C792.691 30.192 793.587 29.808 794.131 28.944H794.179V30ZM794.067 26.992C794.067 28.064 793.443 28.752 792.131 28.752C791.507 28.752 790.787 28.448 790.787 27.744C790.787 26.64 792.611 26.56 793.667 26.56H794.067V26.992ZM804.053 30H805.877V17.904H803.957V23.296H803.909C803.509 22.8 802.741 22.128 801.301 22.128C799.109 22.128 797.589 23.888 797.589 26.16C797.589 28.432 799.013 30.192 801.381 30.192C802.453 30.192 803.461 29.776 804.021 28.848H804.053V30ZM799.509 26.16C799.509 24.96 800.357 23.856 801.765 23.856C803.173 23.856 804.021 24.96 804.021 26.16C804.021 27.36 803.173 28.464 801.765 28.464C800.357 28.464 799.509 27.36 799.509 26.16ZM816.097 30H817.841L822.417 18.672H820.241L817.057 27.232L813.969 18.672H811.649L816.097 30ZM827.382 30H829.11V25.584C829.11 24.496 829.11 22.128 825.83 22.128C824.614 22.128 823.414 22.496 822.566 23.36L823.574 24.368C824.086 23.888 824.822 23.568 825.622 23.568C826.646 23.568 827.382 24.064 827.382 25.008V25.216H826.902C824.982 25.216 822.07 25.392 822.07 27.888C822.07 29.408 823.446 30.192 824.87 30.192C825.894 30.192 826.79 29.808 827.334 28.944H827.382V30ZM827.27 26.992C827.27 28.064 826.646 28.752 825.334 28.752C824.71 28.752 823.99 28.448 823.99 27.744C823.99 26.64 825.814 26.56 826.87 26.56H827.27V26.992ZM831.208 30H833.128V17.904H831.208V30ZM842.34 22.32H840.42V26.512C840.42 27.536 839.924 28.464 838.66 28.464C837.316 28.464 837.252 27.056 837.252 26.208V22.32H835.332V27.168C835.332 28.736 836.068 30.192 838.132 30.192C839.412 30.192 840.132 29.536 840.484 28.768H840.516V30H842.34V22.32ZM851.911 26.832V26.304C851.911 23.632 850.455 22.128 848.311 22.128C845.991 22.128 844.135 23.744 844.135 26.16C844.135 28.576 845.991 30.192 848.311 30.192C849.527 30.192 850.663 29.76 851.559 28.656L850.183 27.616C849.703 28.208 849.079 28.656 848.119 28.656C847.047 28.656 846.183 27.968 846.055 26.832H851.911ZM846.055 25.392C846.199 24.288 846.903 23.568 848.039 23.568C849.239 23.568 849.975 24.272 849.991 25.392H846.055ZM859.083 23.296C858.459 22.448 857.371 22.128 856.347 22.128C854.795 22.128 853.259 22.896 853.259 24.608C853.259 27.536 857.403 26.288 857.403 27.872C857.403 28.48 856.683 28.752 856.123 28.752C855.307 28.752 854.795 28.352 854.299 27.808L853.019 29.008C853.803 29.888 854.827 30.192 856.011 30.192C857.579 30.192 859.323 29.552 859.323 27.728C859.323 24.736 855.179 25.856 855.179 24.48C855.179 23.904 855.787 23.664 856.299 23.664C856.955 23.664 857.435 23.936 857.803 24.448L859.083 23.296Z" fill="white"/>
<path d="M880.9 21.2501C880.707 21.2353 880.528 21.1456 880.4 21.0001L878.4 19.0001L876.4 21.0001C876.348 21.1084 876.272 21.2027 876.176 21.275C876.08 21.3474 875.968 21.3958 875.85 21.4161C875.732 21.4364 875.611 21.428 875.496 21.3916C875.382 21.3553 875.278 21.2921 875.193 21.2072C875.108 21.1224 875.045 21.0184 875.009 20.9041C874.972 20.7897 874.964 20.6683 874.984 20.5501C875.004 20.4318 875.053 20.3201 875.125 20.2244C875.198 20.1287 875.292 20.0518 875.4 20.0001L877.9 17.5001C878.041 17.3597 878.231 17.2808 878.43 17.2808C878.629 17.2808 878.82 17.3597 878.96 17.5001L881.4 20.0001C881.523 20.1376 881.591 20.3156 881.591 20.5001C881.591 20.6846 881.523 20.8626 881.4 21.0001C881.273 21.1456 881.093 21.2353 880.9 21.2501V21.2501Z" fill="white"/>
<path d="M878.4 32.75C878.202 32.7474 878.013 32.6676 877.873 32.5275C877.733 32.3874 877.653 32.1981 877.65 32V18C877.65 17.8011 877.729 17.6103 877.87 17.4697C878.01 17.329 878.201 17.25 878.4 17.25C878.599 17.25 878.79 17.329 878.93 17.4697C879.071 17.6103 879.15 17.8011 879.15 18V32C879.148 32.1981 879.068 32.3874 878.928 32.5275C878.788 32.6676 878.598 32.7474 878.4 32.75V32.75Z" fill="white"/>
<path d="M886.4 32.75C886.302 32.7505 886.204 32.7313 886.113 32.6935C886.022 32.6557 885.939 32.6001 885.87 32.53L883.4 30C883.292 29.9483 883.198 29.8714 883.125 29.7757C883.053 29.68 883.004 29.5683 882.984 29.4501C882.964 29.3318 882.972 29.2104 883.009 29.0961C883.045 28.9817 883.108 28.8778 883.193 28.7929C883.278 28.7081 883.382 28.6448 883.496 28.6085C883.611 28.5721 883.732 28.5638 883.85 28.584C883.968 28.6043 884.08 28.6527 884.176 28.7251C884.272 28.7975 884.348 28.8917 884.4 29L886.4 31L888.4 29C888.452 28.8917 888.529 28.7975 888.625 28.7251C888.72 28.6527 888.832 28.6043 888.95 28.584C889.068 28.5638 889.19 28.5721 889.304 28.6085C889.418 28.6448 889.522 28.7081 889.607 28.7929C889.692 28.8778 889.755 28.9817 889.792 29.0961C889.828 29.2104 889.836 29.3318 889.816 29.4501C889.796 29.5683 889.747 29.68 889.675 29.7757C889.603 29.8714 889.508 29.9483 889.4 30L886.9 32.5C886.773 32.6455 886.593 32.7353 886.4 32.75Z" fill="white"/>
<path d="M886.4 32.75C886.202 32.7474 886.013 32.6676 885.873 32.5275C885.733 32.3874 885.653 32.1981 885.65 32V18C885.65 17.8011 885.729 17.6103 885.87 17.4697C886.01 17.329 886.201 17.25 886.4 17.25C886.599 17.25 886.79 17.329 886.93 17.4697C887.071 17.6103 887.15 17.8011 887.15 18V32C887.148 32.1981 887.068 32.3874 886.928 32.5275C886.788 32.6676 886.598 32.7474 886.4 32.75V32.75Z" fill="white"/>
<rect y="49" width="176.6" height="48" fill="white"/>
<rect y="96" width="176.6" height="1" fill="#E7EDF9"/>
<rect y="49" width="1" height="47" fill="#E7EDF9"/>
<path d="M13.216 69.44C13.216 70.512 13.92 71.632 15.072 71.936V71.968C13.712 72.256 12.832 73.456 12.832 74.88C12.832 76.944 14.432 78.192 16.448 78.192C18.464 78.192 20.064 76.944 20.064 74.88C20.064 73.456 19.184 72.256 17.824 71.968V71.936C18.976 71.632 19.68 70.512 19.68 69.44C19.68 67.664 18.272 66.48 16.448 66.48C14.624 66.48 13.216 67.664 13.216 69.44ZM14.56 69.504C14.56 68.432 15.328 67.632 16.448 67.632C17.568 67.632 18.336 68.432 18.336 69.504C18.336 70.576 17.568 71.376 16.448 71.376C15.328 71.376 14.56 70.576 14.56 69.504ZM14.176 74.784C14.176 73.456 15.184 72.528 16.448 72.528C17.712 72.528 18.72 73.456 18.72 74.784C18.72 76.112 17.712 77.04 16.448 77.04C15.184 77.04 14.176 76.112 14.176 74.784Z" fill="#333333"/>
<rect x="176.6" y="49" width="176.6" height="48" fill="white"/>
<rect x="176.6" y="96" width="176.6" height="1" fill="#E7EDF9"/>
<rect x="176.6" y="49" width="1" height="47" fill="#E7EDF9"/>
<path d="M188.696 78H190.216L191.384 75.216H197.048L198.2 78H199.768L194.952 66.672H193.688L188.696 78ZM196.536 73.968H191.912L194.264 68.4H194.296L196.536 73.968ZM199.962 78H201.482L202.65 75.216H208.314L209.466 78H211.034L206.218 66.672H204.954L199.962 78ZM207.802 73.968H203.178L205.53 68.4H205.562L207.802 73.968ZM211.739 72.336C211.739 74.912 212.459 78.192 215.579 78.192C218.699 78.192 219.419 74.912 219.419 72.336C219.419 69.76 218.699 66.48 215.579 66.48C212.459 66.48 211.739 69.76 211.739 72.336ZM213.083 72.336C213.083 70.672 213.339 67.632 215.579 67.632C217.819 67.632 218.075 70.672 218.075 72.336C218.075 74 217.819 77.04 215.579 77.04C213.339 77.04 213.083 74 213.083 72.336ZM227.606 66.672H221.67L221.558 72.56C222.23 72.16 223.094 71.856 223.862 71.856C225.446 71.856 226.662 72.768 226.662 74.432C226.662 76 225.59 77.04 224.23 77.04C223.27 77.04 222.502 76.464 222.118 75.616L220.774 76.128C221.382 77.376 222.406 78.192 224.118 78.192C226.326 78.192 228.006 76.688 228.006 74.432C228.006 72.304 226.566 70.704 224.39 70.704C223.926 70.704 223.366 70.768 222.934 70.976L222.982 67.92H227.606V66.672ZM235.217 66.672H233.649L230.641 71.456C230.033 72.432 229.569 73.328 229.569 74.64C229.569 76.848 231.217 78.192 233.361 78.192C235.505 78.192 237.153 76.848 237.153 74.64C237.153 72.528 235.697 71.088 233.729 71.088C233.265 71.088 232.625 71.184 232.209 71.424L232.177 71.392L235.217 66.672ZM233.361 72.24C234.721 72.24 235.809 73.168 235.809 74.64C235.809 76.112 234.721 77.04 233.361 77.04C232.001 77.04 230.913 76.112 230.913 74.64C230.913 73.168 232.001 72.24 233.361 72.24Z" fill="black"/>
<rect x="353.2" y="49" width="176.6" height="48" fill="white"/>
<rect x="353.2" y="96" width="176.6" height="1" fill="#E7EDF9"/>
<rect x="353.2" y="49" width="1" height="47" fill="#E7EDF9"/>
<path d="M365.808 72.336C365.808 74.912 366.528 78.192 369.648 78.192C372.768 78.192 373.488 74.912 373.488 72.336C373.488 69.76 372.768 66.48 369.648 66.48C366.528 66.48 365.808 69.76 365.808 72.336ZM367.152 72.336C367.152 70.672 367.408 67.632 369.648 67.632C371.888 67.632 372.144 70.672 372.144 72.336C372.144 74 371.888 77.04 369.648 77.04C367.408 77.04 367.152 74 367.152 72.336ZM379.851 66.672H378.683L375.643 69.136L376.443 70.112L378.475 68.4H378.507V78H379.851V66.672ZM394.106 78.288C397.546 78.288 400.026 75.76 400.026 72.336C400.026 68.912 397.546 66.384 394.106 66.384C390.666 66.384 388.186 68.912 388.186 72.336C388.186 75.76 390.666 78.288 394.106 78.288ZM394.106 77.04C391.45 77.04 389.626 74.944 389.626 72.336C389.626 69.728 391.45 67.632 394.106 67.632C396.762 67.632 398.586 69.728 398.586 72.336C398.586 74.944 396.762 77.04 394.106 77.04ZM408.282 71.504C407.53 70.688 406.506 70.32 405.402 70.32C403.098 70.32 401.53 71.984 401.53 74.256C401.53 76.56 403.082 78.192 405.402 78.192C406.49 78.192 407.514 77.824 408.234 76.992L407.306 76.112C406.842 76.752 406.218 77.04 405.402 77.04C403.882 77.04 402.874 75.792 402.874 74.256C402.874 72.72 403.722 71.472 405.402 71.472C406.154 71.472 406.762 71.744 407.29 72.384L408.282 71.504ZM413.777 70.512H411.569V68.384H410.321V70.512H408.689V71.568H410.321V75.68C410.321 77.232 410.609 78.192 412.385 78.192C412.849 78.192 413.409 78.112 413.841 77.92L413.793 76.784C413.457 76.96 413.057 77.04 412.689 77.04C411.585 77.04 411.569 76.272 411.569 75.312V71.568H413.777V70.512ZM419.375 78H426.671V76.752H420.895V76.72L424.383 73.44C425.519 72.368 426.591 71.36 426.591 69.552C426.591 67.536 425.007 66.48 423.135 66.48C421.311 66.48 419.887 67.456 419.583 69.312L421.039 69.44C421.247 68.352 422.047 67.632 423.183 67.632C424.319 67.632 425.247 68.368 425.247 69.552C425.247 70.656 424.719 71.264 423.647 72.304L419.375 76.464V78ZM428.074 72.336C428.074 74.912 428.794 78.192 431.914 78.192C435.034 78.192 435.754 74.912 435.754 72.336C435.754 69.76 435.034 66.48 431.914 66.48C428.794 66.48 428.074 69.76 428.074 72.336ZM429.418 72.336C429.418 70.672 429.674 67.632 431.914 67.632C434.154 67.632 434.41 70.672 434.41 72.336C434.41 74 434.154 77.04 431.914 77.04C429.674 77.04 429.418 74 429.418 72.336ZM437.156 78H444.452V76.752H438.676V76.72L442.164 73.44C443.3 72.368 444.372 71.36 444.372 69.552C444.372 67.536 442.788 66.48 440.916 66.48C439.092 66.48 437.668 67.456 437.364 69.312L438.82 69.44C439.028 68.352 439.828 67.632 440.964 67.632C442.1 67.632 443.028 68.368 443.028 69.552C443.028 70.656 442.5 71.264 441.428 72.304L437.156 76.464V78ZM451.007 66.672H449.839L446.799 69.136L447.599 70.112L449.631 68.4H449.663V78H451.007V66.672ZM459.199 72.336C459.199 74.912 459.919 78.192 463.039 78.192C466.159 78.192 466.879 74.912 466.879 72.336C466.879 69.76 466.159 66.48 463.039 66.48C459.919 66.48 459.199 69.76 459.199 72.336ZM460.543 72.336C460.543 70.672 460.799 67.632 463.039 67.632C465.279 67.632 465.535 70.672 465.535 72.336C465.535 74 465.279 77.04 463.039 77.04C460.799 77.04 460.543 74 460.543 72.336ZM468.697 69.44C468.697 70.512 469.401 71.632 470.553 71.936V71.968C469.193 72.256 468.313 73.456 468.313 74.88C468.313 76.944 469.913 78.192 471.929 78.192C473.945 78.192 475.545 76.944 475.545 74.88C475.545 73.456 474.665 72.256 473.305 71.968V71.936C474.457 71.632 475.161 70.512 475.161 69.44C475.161 67.664 473.753 66.48 471.929 66.48C470.105 66.48 468.697 67.664 468.697 69.44ZM470.041 69.504C470.041 68.432 470.809 67.632 471.929 67.632C473.049 67.632 473.817 68.432 473.817 69.504C473.817 70.576 473.049 71.376 471.929 71.376C470.809 71.376 470.041 70.576 470.041 69.504ZM469.657 74.784C469.657 73.456 470.665 72.528 471.929 72.528C473.193 72.528 474.201 73.456 474.201 74.784C474.201 76.112 473.193 77.04 471.929 77.04C470.665 77.04 469.657 76.112 469.657 74.784ZM478.596 70.32C478.068 70.32 477.636 70.752 477.636 71.28C477.636 71.808 478.1 72.24 478.596 72.24C479.092 72.24 479.556 71.808 479.556 71.28C479.556 70.752 479.124 70.32 478.596 70.32ZM478.596 76.176C478.068 76.176 477.636 76.608 477.636 77.136C477.636 77.664 478.1 78.096 478.596 78.096C479.092 78.096 479.556 77.664 479.556 77.136C479.556 76.608 479.124 76.176 478.596 76.176ZM481.433 72.336C481.433 74.912 482.153 78.192 485.273 78.192C488.393 78.192 489.113 74.912 489.113 72.336C489.113 69.76 488.393 66.48 485.273 66.48C482.153 66.48 481.433 69.76 481.433 72.336ZM482.777 72.336C482.777 70.672 483.033 67.632 485.273 67.632C487.513 67.632 487.769 70.672 487.769 72.336C487.769 74 487.513 77.04 485.273 77.04C483.033 77.04 482.777 74 482.777 72.336ZM490.324 72.336C490.324 74.912 491.044 78.192 494.164 78.192C497.284 78.192 498.004 74.912 498.004 72.336C498.004 69.76 497.284 66.48 494.164 66.48C491.044 66.48 490.324 69.76 490.324 72.336ZM491.668 72.336C491.668 70.672 491.924 67.632 494.164 67.632C496.404 67.632 496.66 70.672 496.66 72.336C496.66 74 496.404 77.04 494.164 77.04C491.924 77.04 491.668 74 491.668 72.336ZM500.83 70.32C500.302 70.32 499.87 70.752 499.87 71.28C499.87 71.808 500.334 72.24 500.83 72.24C501.326 72.24 501.79 71.808 501.79 71.28C501.79 70.752 501.358 70.32 500.83 70.32ZM500.83 76.176C500.302 76.176 499.87 76.608 499.87 77.136C499.87 77.664 500.334 78.096 500.83 78.096C501.326 78.096 501.79 77.664 501.79 77.136C501.79 76.608 501.358 76.176 500.83 76.176ZM503.667 72.336C503.667 74.912 504.387 78.192 507.507 78.192C510.627 78.192 511.347 74.912 511.347 72.336C511.347 69.76 510.627 66.48 507.507 66.48C504.387 66.48 503.667 69.76 503.667 72.336ZM505.011 72.336C505.011 70.672 505.267 67.632 507.507 67.632C509.747 67.632 510.003 70.672 510.003 72.336C510.003 74 509.747 77.04 507.507 77.04C505.267 77.04 505.011 74 505.011 72.336ZM512.558 72.336C512.558 74.912 513.278 78.192 516.398 78.192C519.518 78.192 520.238 74.912 520.238 72.336C520.238 69.76 519.518 66.48 516.398 66.48C513.278 66.48 512.558 69.76 512.558 72.336ZM513.902 72.336C513.902 70.672 514.158 67.632 516.398 67.632C518.638 67.632 518.894 70.672 518.894 72.336C518.894 74 518.638 77.04 516.398 77.04C514.158 77.04 513.902 74 513.902 72.336Z" fill="black"/>
<rect x="529.8" y="49" width="176.6" height="48" fill="white"/>
<rect x="529.8" y="96" width="176.6" height="1" fill="#E7EDF9"/>
<rect x="529.8" y="49" width="1" height="47" fill="#E7EDF9"/>
<rect x="537.999" y="59" width="78" height="25" rx="8" fill="#ECF7E3"/>
<path d="M547.511 75H548.687V70.548H550.675C552.075 70.548 553.923 69.974 553.923 67.804C553.923 65.732 552.271 65.088 550.451 65.088H547.511V75ZM548.687 66.18H550.675C551.851 66.18 552.663 66.712 552.663 67.818C552.663 68.924 551.851 69.456 550.675 69.456H548.687V66.18ZM561.325 68.448H560.233V71.64C560.233 73.138 559.617 74.16 558.203 74.16C557.181 74.16 556.705 73.474 556.705 72.382V68.448H555.613V72.494C555.613 74.076 556.383 75.168 558.105 75.168C559.183 75.168 559.995 74.566 560.289 73.922H560.317C560.317 74.286 560.345 74.65 560.345 75H561.381C561.381 74.566 561.325 74.048 561.325 73.446V68.448ZM563.337 75H564.429V73.838H564.457C564.863 74.58 565.801 75.168 566.977 75.168C568.811 75.168 570.253 73.684 570.253 71.724C570.253 69.736 568.867 68.28 566.809 68.28C565.857 68.28 565.059 68.7 564.457 69.4H564.429V64.416H563.337V75ZM564.429 71.724C564.429 70.352 565.339 69.288 566.753 69.288C568.167 69.288 569.077 70.352 569.077 71.724C569.077 73.096 568.167 74.16 566.753 74.16C565.339 74.16 564.429 73.096 564.429 71.724ZM572.049 75H573.141V64.416H572.049V75ZM575.413 75H576.505V68.448H575.413V75ZM575.161 65.886C575.161 66.348 575.497 66.684 575.959 66.684C576.421 66.684 576.757 66.348 576.757 65.886C576.757 65.452 576.407 65.088 575.959 65.088C575.511 65.088 575.161 65.452 575.161 65.886ZM577.95 73.95C578.594 74.874 579.392 75.168 580.498 75.168C581.8 75.168 583.116 74.594 583.116 73.11C583.116 71.794 582.136 71.374 580.974 71.15C580.106 70.982 579.322 70.744 579.322 70.198C579.322 69.582 580.008 69.288 580.61 69.288C581.254 69.288 581.716 69.61 581.996 70.072L582.906 69.47C582.458 68.63 581.604 68.28 580.68 68.28C579.462 68.28 578.23 68.938 578.23 70.212C578.23 71.57 579.294 71.836 580.54 72.116C581.24 72.27 581.94 72.452 581.94 73.152C581.94 73.866 581.184 74.16 580.498 74.16C579.728 74.16 579.252 73.81 578.818 73.278L577.95 73.95ZM584.639 75H585.731V71.808C585.731 70.31 586.347 69.288 587.761 69.288C588.783 69.288 589.259 69.974 589.259 71.066V75H590.351V70.954C590.351 69.372 589.581 68.28 587.859 68.28C586.837 68.28 586.053 68.84 585.759 69.358H585.731V64.416H584.639V75ZM597.444 73.166C596.926 73.824 596.296 74.16 595.358 74.16C594.168 74.16 593.3 73.194 593.216 72.06H598.508V71.71C598.508 69.54 597.248 68.28 595.4 68.28C593.468 68.28 592.04 69.694 592.04 71.724C592.04 73.628 593.3 75.168 595.358 75.168C596.576 75.168 597.5 74.804 598.27 73.81L597.444 73.166ZM593.216 71.136C593.356 70.03 594.154 69.288 595.358 69.288C596.562 69.288 597.29 70.03 597.332 71.136H593.216ZM605.643 75H606.735V64.416H605.643V69.4H605.615C605.013 68.7 604.215 68.28 603.263 68.28C601.205 68.28 599.819 69.736 599.819 71.724C599.819 73.684 601.261 75.168 603.095 75.168C604.271 75.168 605.209 74.58 605.615 73.838H605.643V75ZM605.643 71.724C605.643 73.096 604.733 74.16 603.319 74.16C601.905 74.16 600.995 73.096 600.995 71.724C600.995 70.352 601.905 69.288 603.319 69.288C604.733 69.288 605.643 70.352 605.643 71.724Z" fill="#467822"/>
<rect x="706.4" y="49" width="219" height="48" fill="white"/>
<rect x="706.4" y="96" width="219" height="1" fill="#E7EDF9"/>
<rect x="706.4" y="49" width="1" height="47" fill="#E7EDF9"/>
<path d="M725.808 78H727.056V65.904H725.808V71.6H725.776C725.088 70.8 724.176 70.32 723.088 70.32C720.736 70.32 719.152 71.984 719.152 74.256C719.152 76.496 720.8 78.192 722.896 78.192C724.24 78.192 725.312 77.52 725.776 76.672H725.808V78ZM725.808 74.256C725.808 75.824 724.768 77.04 723.152 77.04C721.536 77.04 720.496 75.824 720.496 74.256C720.496 72.688 721.536 71.472 723.152 71.472C724.768 71.472 725.808 72.688 725.808 74.256ZM730.053 72.288C730.645 71.744 731.477 71.472 732.277 71.472C733.445 71.472 734.133 72.032 734.133 73.12V73.344H733.653C731.813 73.344 728.933 73.488 728.933 75.968C728.933 77.424 730.197 78.192 731.717 78.192C732.853 78.192 733.685 77.648 734.181 76.88H734.213C734.213 77.2 734.213 77.664 734.293 78H735.493C735.429 77.616 735.381 77.136 735.381 76.704V73.488C735.381 71.376 734.453 70.32 732.245 70.32C731.157 70.32 730.037 70.688 729.269 71.472L730.053 72.288ZM734.133 74.4V74.88C734.101 76.096 733.365 77.136 731.925 77.136C730.981 77.136 730.277 76.784 730.277 75.84C730.277 74.832 731.301 74.4 732.885 74.4H734.133ZM741.758 70.512H739.55V68.384H738.302V70.512H736.67V71.568H738.302V75.68C738.302 77.232 738.59 78.192 740.366 78.192C740.83 78.192 741.39 78.112 741.822 77.92L741.774 76.784C741.438 76.96 741.038 77.04 740.67 77.04C739.566 77.04 739.55 76.272 739.55 75.312V71.568H741.758V70.512ZM743.975 72.288C744.567 71.744 745.399 71.472 746.199 71.472C747.367 71.472 748.055 72.032 748.055 73.12V73.344H747.575C745.735 73.344 742.855 73.488 742.855 75.968C742.855 77.424 744.119 78.192 745.639 78.192C746.775 78.192 747.607 77.648 748.103 76.88H748.135C748.135 77.2 748.135 77.664 748.215 78H749.415C749.351 77.616 749.303 77.136 749.303 76.704V73.488C749.303 71.376 748.375 70.32 746.167 70.32C745.079 70.32 743.959 70.688 743.191 71.472L743.975 72.288ZM748.055 74.4V74.88C748.023 76.096 747.287 77.136 745.847 77.136C744.903 77.136 744.199 76.784 744.199 75.84C744.199 74.832 745.223 74.4 746.807 74.4H748.055Z" fill="#333333"/>
<rect y="97" width="176.6" height="48" fill="#F1F2F3"/>
<rect y="144" width="176.6" height="1" fill="#F1F2F3"/>
<rect y="97" width="1" height="47" fill="#F1F2F3"/>
<path d="M12.8 126H20.096V124.752H14.32V124.72L17.808 121.44C18.944 120.368 20.016 119.36 20.016 117.552C20.016 115.536 18.432 114.48 16.56 114.48C14.736 114.48 13.312 115.456 13.008 117.312L14.464 117.44C14.672 116.352 15.472 115.632 16.608 115.632C17.744 115.632 18.672 116.368 18.672 117.552C18.672 118.656 18.144 119.264 17.072 120.304L12.8 124.464V126Z" fill="#333333"/>
<rect x="176.6" y="97" width="176.6" height="48" fill="#F1F2F3"/>
<rect x="176.6" y="144" width="176.6" height="1" fill="#F1F2F3"/>
<rect x="176.6" y="97" width="1" height="47" fill="#F1F2F3"/>
<path d="M188.696 126H190.216L191.384 123.216H197.048L198.2 126H199.768L194.952 114.672H193.688L188.696 126ZM196.536 121.968H191.912L194.264 116.4H194.296L196.536 121.968ZM199.962 126H201.482L202.65 123.216H208.314L209.466 126H211.034L206.218 114.672H204.954L199.962 126ZM207.802 121.968H203.178L205.53 116.4H205.562L207.802 121.968ZM211.739 120.336C211.739 122.912 212.459 126.192 215.579 126.192C218.699 126.192 219.419 122.912 219.419 120.336C219.419 117.76 218.699 114.48 215.579 114.48C212.459 114.48 211.739 117.76 211.739 120.336ZM213.083 120.336C213.083 118.672 213.339 115.632 215.579 115.632C217.819 115.632 218.075 118.672 218.075 120.336C218.075 122 217.819 125.04 215.579 125.04C213.339 125.04 213.083 122 213.083 120.336ZM227.606 114.672H221.67L221.558 120.56C222.23 120.16 223.094 119.856 223.862 119.856C225.446 119.856 226.662 120.768 226.662 122.432C226.662 124 225.59 125.04 224.23 125.04C223.27 125.04 222.502 124.464 222.118 123.616L220.774 124.128C221.382 125.376 222.406 126.192 224.118 126.192C226.326 126.192 228.006 124.688 228.006 122.432C228.006 120.304 226.566 118.704 224.39 118.704C223.926 118.704 223.366 118.768 222.934 118.976L222.982 115.92H227.606V114.672ZM229.521 120.336C229.521 122.912 230.241 126.192 233.361 126.192C236.481 126.192 237.201 122.912 237.201 120.336C237.201 117.76 236.481 114.48 233.361 114.48C230.241 114.48 229.521 117.76 229.521 120.336ZM230.865 120.336C230.865 118.672 231.121 115.632 233.361 115.632C235.601 115.632 235.857 118.672 235.857 120.336C235.857 122 235.601 125.04 233.361 125.04C231.121 125.04 230.865 122 230.865 120.336Z" fill="#333333"/>
<rect x="353.2" y="97" width="176.6" height="48" fill="#F1F2F3"/>
<rect x="353.2" y="144" width="176.6" height="1" fill="#F1F2F3"/>
<rect x="353.2" y="97" width="1" height="47" fill="#F1F2F3"/>
<path d="M370.96 114.672H369.792L366.752 117.136L367.552 118.112L369.584 116.4H369.616V126H370.96V114.672ZM374.891 126H382.187V124.752H376.411V124.72L379.899 121.44C381.035 120.368 382.107 119.36 382.107 117.552C382.107 115.536 380.523 114.48 378.651 114.48C376.827 114.48 375.403 115.456 375.099 117.312L376.555 117.44C376.763 116.352 377.563 115.632 378.699 115.632C379.835 115.632 380.763 116.368 380.763 117.552C380.763 118.656 380.235 119.264 379.163 120.304L374.891 124.464V126ZM394.106 126.288C397.546 126.288 400.026 123.76 400.026 120.336C400.026 116.912 397.546 114.384 394.106 114.384C390.666 114.384 388.186 116.912 388.186 120.336C388.186 123.76 390.666 126.288 394.106 126.288ZM394.106 125.04C391.45 125.04 389.626 122.944 389.626 120.336C389.626 117.728 391.45 115.632 394.106 115.632C396.762 115.632 398.586 117.728 398.586 120.336C398.586 122.944 396.762 125.04 394.106 125.04ZM408.282 119.504C407.53 118.688 406.506 118.32 405.402 118.32C403.098 118.32 401.53 119.984 401.53 122.256C401.53 124.56 403.082 126.192 405.402 126.192C406.49 126.192 407.514 125.824 408.234 124.992L407.306 124.112C406.842 124.752 406.218 125.04 405.402 125.04C403.882 125.04 402.874 123.792 402.874 122.256C402.874 120.72 403.722 119.472 405.402 119.472C406.154 119.472 406.762 119.744 407.29 120.384L408.282 119.504ZM413.777 118.512H411.569V116.384H410.321V118.512H408.689V119.568H410.321V123.68C410.321 125.232 410.609 126.192 412.385 126.192C412.849 126.192 413.409 126.112 413.841 125.92L413.793 124.784C413.457 124.96 413.057 125.04 412.689 125.04C411.585 125.04 411.569 124.272 411.569 123.312V119.568H413.777V118.512ZM419.375 126H426.671V124.752H420.895V124.72L424.383 121.44C425.519 120.368 426.591 119.36 426.591 117.552C426.591 115.536 425.007 114.48 423.135 114.48C421.311 114.48 419.887 115.456 419.583 117.312L421.039 117.44C421.247 116.352 422.047 115.632 423.183 115.632C424.319 115.632 425.247 116.368 425.247 117.552C425.247 118.656 424.719 119.264 423.647 120.304L419.375 124.464V126ZM428.074 120.336C428.074 122.912 428.794 126.192 431.914 126.192C435.034 126.192 435.754 122.912 435.754 120.336C435.754 117.76 435.034 114.48 431.914 114.48C428.794 114.48 428.074 117.76 428.074 120.336ZM429.418 120.336C429.418 118.672 429.674 115.632 431.914 115.632C434.154 115.632 434.41 118.672 434.41 120.336C434.41 122 434.154 125.04 431.914 125.04C429.674 125.04 429.418 122 429.418 120.336ZM437.156 126H444.452V124.752H438.676V124.72L442.164 121.44C443.3 120.368 444.372 119.36 444.372 117.552C444.372 115.536 442.788 114.48 440.916 114.48C439.092 114.48 437.668 115.456 437.364 117.312L438.82 117.44C439.028 116.352 439.828 115.632 440.964 115.632C442.1 115.632 443.028 116.368 443.028 117.552C443.028 118.656 442.5 119.264 441.428 120.304L437.156 124.464V126ZM451.007 114.672H449.839L446.799 117.136L447.599 118.112L449.631 116.4H449.663V126H451.007V114.672ZM459.199 120.336C459.199 122.912 459.919 126.192 463.039 126.192C466.159 126.192 466.879 122.912 466.879 120.336C466.879 117.76 466.159 114.48 463.039 114.48C459.919 114.48 459.199 117.76 459.199 120.336ZM460.543 120.336C460.543 118.672 460.799 115.632 463.039 115.632C465.279 115.632 465.535 118.672 465.535 120.336C465.535 122 465.279 125.04 463.039 125.04C460.799 125.04 460.543 122 460.543 120.336ZM468.697 117.44C468.697 118.512 469.401 119.632 470.553 119.936V119.968C469.193 120.256 468.313 121.456 468.313 122.88C468.313 124.944 469.913 126.192 471.929 126.192C473.945 126.192 475.545 124.944 475.545 122.88C475.545 121.456 474.665 120.256 473.305 119.968V119.936C474.457 119.632 475.161 118.512 475.161 117.44C475.161 115.664 473.753 114.48 471.929 114.48C470.105 114.48 468.697 115.664 468.697 117.44ZM470.041 117.504C470.041 116.432 470.809 115.632 471.929 115.632C473.049 115.632 473.817 116.432 473.817 117.504C473.817 118.576 473.049 119.376 471.929 119.376C470.809 119.376 470.041 118.576 470.041 117.504ZM469.657 122.784C469.657 121.456 470.665 120.528 471.929 120.528C473.193 120.528 474.201 121.456 474.201 122.784C474.201 124.112 473.193 125.04 471.929 125.04C470.665 125.04 469.657 124.112 469.657 122.784ZM478.596 118.32C478.068 118.32 477.636 118.752 477.636 119.28C477.636 119.808 478.1 120.24 478.596 120.24C479.092 120.24 479.556 119.808 479.556 119.28C479.556 118.752 479.124 118.32 478.596 118.32ZM478.596 124.176C478.068 124.176 477.636 124.608 477.636 125.136C477.636 125.664 478.1 126.096 478.596 126.096C479.092 126.096 479.556 125.664 479.556 125.136C479.556 124.608 479.124 124.176 478.596 124.176ZM481.433 120.336C481.433 122.912 482.153 126.192 485.273 126.192C488.393 126.192 489.113 122.912 489.113 120.336C489.113 117.76 488.393 114.48 485.273 114.48C482.153 114.48 481.433 117.76 481.433 120.336ZM482.777 120.336C482.777 118.672 483.033 115.632 485.273 115.632C487.513 115.632 487.769 118.672 487.769 120.336C487.769 122 487.513 125.04 485.273 125.04C483.033 125.04 482.777 122 482.777 120.336ZM490.324 120.336C490.324 122.912 491.044 126.192 494.164 126.192C497.284 126.192 498.004 122.912 498.004 120.336C498.004 117.76 497.284 114.48 494.164 114.48C491.044 114.48 490.324 117.76 490.324 120.336ZM491.668 120.336C491.668 118.672 491.924 115.632 494.164 115.632C496.404 115.632 496.66 118.672 496.66 120.336C496.66 122 496.404 125.04 494.164 125.04C491.924 125.04 491.668 122 491.668 120.336ZM500.83 118.32C500.302 118.32 499.87 118.752 499.87 119.28C499.87 119.808 500.334 120.24 500.83 120.24C501.326 120.24 501.79 119.808 501.79 119.28C501.79 118.752 501.358 118.32 500.83 118.32ZM500.83 124.176C500.302 124.176 499.87 124.608 499.87 125.136C499.87 125.664 500.334 126.096 500.83 126.096C501.326 126.096 501.79 125.664 501.79 125.136C501.79 124.608 501.358 124.176 500.83 124.176ZM503.667 120.336C503.667 122.912 504.387 126.192 507.507 126.192C510.627 126.192 511.347 122.912 511.347 120.336C511.347 117.76 510.627 114.48 507.507 114.48C504.387 114.48 503.667 117.76 503.667 120.336ZM505.011 120.336C505.011 118.672 505.267 115.632 507.507 115.632C509.747 115.632 510.003 118.672 510.003 120.336C510.003 122 509.747 125.04 507.507 125.04C505.267 125.04 505.011 122 505.011 120.336ZM512.558 120.336C512.558 122.912 513.278 126.192 516.398 126.192C519.518 126.192 520.238 122.912 520.238 120.336C520.238 117.76 519.518 114.48 516.398 114.48C513.278 114.48 512.558 117.76 512.558 120.336ZM513.902 120.336C513.902 118.672 514.158 115.632 516.398 115.632C518.638 115.632 518.894 118.672 518.894 120.336C518.894 122 518.638 125.04 516.398 125.04C514.158 125.04 513.902 122 513.902 120.336Z" fill="black"/>
<rect x="529.8" y="97" width="176.6" height="48" fill="#F1F2F3"/>
<rect x="529.8" y="144" width="176.6" height="1" fill="#F1F2F3"/>
<rect x="529.8" y="97" width="1" height="47" fill="#F1F2F3"/>
<rect x="536.999" y="109" width="86" height="25" rx="8" fill="#FFF4EC"/>
<path d="M546.464 125H547.64V115.088H546.464V125ZM549.904 125H550.996V121.808C550.996 120.31 551.612 119.288 553.026 119.288C554.048 119.288 554.524 119.974 554.524 121.066V125H555.616V120.954C555.616 119.372 554.846 118.28 553.124 118.28C552.046 118.28 551.234 118.882 550.94 119.526H550.912C550.912 119.162 550.884 118.798 550.884 118.448H549.848C549.848 118.882 549.904 119.4 549.904 120.002V125ZM561.776 125H562.952V120.548H564.94C566.34 120.548 568.188 119.974 568.188 117.804C568.188 115.732 566.536 115.088 564.716 115.088H561.776V125ZM562.952 116.18H564.94C566.116 116.18 566.928 116.712 566.928 117.818C566.928 118.924 566.116 119.456 564.94 119.456H562.952V116.18ZM569.879 125H570.971V121.808C570.971 120.31 571.559 119.372 572.889 119.372C573.085 119.372 573.295 119.4 573.477 119.456L573.547 118.35C573.393 118.294 573.239 118.28 573.099 118.28C572.021 118.28 571.209 118.882 570.915 119.526H570.887C570.887 119.162 570.859 118.798 570.859 118.448H569.823C569.823 118.882 569.879 119.4 569.879 120.002V125ZM574.177 121.724C574.177 123.768 575.661 125.168 577.677 125.168C579.693 125.168 581.177 123.768 581.177 121.724C581.177 119.68 579.693 118.28 577.677 118.28C575.661 118.28 574.177 119.68 574.177 121.724ZM575.353 121.724C575.353 120.352 576.263 119.288 577.677 119.288C579.091 119.288 580.001 120.352 580.001 121.724C580.001 123.096 579.091 124.16 577.677 124.16C576.263 124.16 575.353 123.096 575.353 121.724ZM589.405 118.448H588.313V119.568H588.285C587.851 118.7 586.857 118.28 585.975 118.28C583.889 118.28 582.489 119.582 582.489 121.724C582.489 123.656 583.917 125.084 585.975 125.084C586.843 125.084 587.767 124.706 588.285 123.866H588.313V124.706C588.313 126.092 587.795 127.352 585.835 127.352C584.827 127.352 584.085 126.96 583.399 126.218L582.615 127.114C583.539 128.024 584.561 128.36 585.835 128.36C588.131 128.36 589.405 127.072 589.405 124.706V118.448ZM583.665 121.724C583.665 120.352 584.603 119.288 585.975 119.288C587.361 119.288 588.313 120.282 588.313 121.696C588.313 122.956 587.473 124.076 585.975 124.076C584.701 124.076 583.665 123.054 583.665 121.724ZM591.426 125H592.518V121.808C592.518 120.31 593.106 119.372 594.436 119.372C594.632 119.372 594.842 119.4 595.024 119.456L595.094 118.35C594.94 118.294 594.786 118.28 594.646 118.28C593.568 118.28 592.756 118.882 592.462 119.526H592.434C592.434 119.162 592.406 118.798 592.406 118.448H591.37C591.37 118.882 591.426 119.4 591.426 120.002V125ZM601.128 123.166C600.61 123.824 599.98 124.16 599.042 124.16C597.852 124.16 596.984 123.194 596.9 122.06H602.192V121.71C602.192 119.54 600.932 118.28 599.084 118.28C597.152 118.28 595.724 119.694 595.724 121.724C595.724 123.628 596.984 125.168 599.042 125.168C600.26 125.168 601.184 124.804 601.954 123.81L601.128 123.166ZM596.9 121.136C597.04 120.03 597.838 119.288 599.042 119.288C600.246 119.288 600.974 120.03 601.016 121.136H596.9ZM603.153 123.95C603.797 124.874 604.595 125.168 605.701 125.168C607.003 125.168 608.319 124.594 608.319 123.11C608.319 121.794 607.339 121.374 606.177 121.15C605.309 120.982 604.525 120.744 604.525 120.198C604.525 119.582 605.211 119.288 605.813 119.288C606.457 119.288 606.919 119.61 607.199 120.072L608.109 119.47C607.661 118.63 606.807 118.28 605.883 118.28C604.665 118.28 603.433 118.938 603.433 120.212C603.433 121.57 604.497 121.836 605.743 122.116C606.443 122.27 607.143 122.452 607.143 123.152C607.143 123.866 606.387 124.16 605.701 124.16C604.931 124.16 604.455 123.81 604.021 123.278L603.153 123.95ZM609.114 123.95C609.758 124.874 610.556 125.168 611.662 125.168C612.964 125.168 614.28 124.594 614.28 123.11C614.28 121.794 613.3 121.374 612.138 121.15C611.27 120.982 610.486 120.744 610.486 120.198C610.486 119.582 611.172 119.288 611.774 119.288C612.418 119.288 612.88 119.61 613.16 120.072L614.07 119.47C613.622 118.63 612.768 118.28 611.844 118.28C610.626 118.28 609.394 118.938 609.394 120.212C609.394 121.57 610.458 121.836 611.704 122.116C612.404 122.27 613.104 122.452 613.104 123.152C613.104 123.866 612.348 124.16 611.662 124.16C610.892 124.16 610.416 123.81 609.982 123.278L609.114 123.95Z" fill="#FE7355"/>
<rect x="706.4" y="97" width="219" height="48" fill="#F1F2F3"/>
<rect x="706.4" y="144" width="219" height="1" fill="#F1F2F3"/>
<rect x="706.4" y="97" width="1" height="47" fill="#F1F2F3"/>
<path d="M725.808 126H727.056V113.904H725.808V119.6H725.776C725.088 118.8 724.176 118.32 723.088 118.32C720.736 118.32 719.152 119.984 719.152 122.256C719.152 124.496 720.8 126.192 722.896 126.192C724.24 126.192 725.312 125.52 725.776 124.672H725.808V126ZM725.808 122.256C725.808 123.824 724.768 125.04 723.152 125.04C721.536 125.04 720.496 123.824 720.496 122.256C720.496 120.688 721.536 119.472 723.152 119.472C724.768 119.472 725.808 120.688 725.808 122.256ZM730.053 120.288C730.645 119.744 731.477 119.472 732.277 119.472C733.445 119.472 734.133 120.032 734.133 121.12V121.344H733.653C731.813 121.344 728.933 121.488 728.933 123.968C728.933 125.424 730.197 126.192 731.717 126.192C732.853 126.192 733.685 125.648 734.181 124.88H734.213C734.213 125.2 734.213 125.664 734.293 126H735.493C735.429 125.616 735.381 125.136 735.381 124.704V121.488C735.381 119.376 734.453 118.32 732.245 118.32C731.157 118.32 730.037 118.688 729.269 119.472L730.053 120.288ZM734.133 122.4V122.88C734.101 124.096 733.365 125.136 731.925 125.136C730.981 125.136 730.277 124.784 730.277 123.84C730.277 122.832 731.301 122.4 732.885 122.4H734.133ZM741.758 118.512H739.55V116.384H738.302V118.512H736.67V119.568H738.302V123.68C738.302 125.232 738.59 126.192 740.366 126.192C740.83 126.192 741.39 126.112 741.822 125.92L741.774 124.784C741.438 124.96 741.038 125.04 740.67 125.04C739.566 125.04 739.55 124.272 739.55 123.312V119.568H741.758V118.512ZM743.975 120.288C744.567 119.744 745.399 119.472 746.199 119.472C747.367 119.472 748.055 120.032 748.055 121.12V121.344H747.575C745.735 121.344 742.855 121.488 742.855 123.968C742.855 125.424 744.119 126.192 745.639 126.192C746.775 126.192 747.607 125.648 748.103 124.88H748.135C748.135 125.2 748.135 125.664 748.215 126H749.415C749.351 125.616 749.303 125.136 749.303 124.704V121.488C749.303 119.376 748.375 118.32 746.167 118.32C745.079 118.32 743.959 118.688 743.191 119.472L743.975 120.288ZM748.055 122.4V122.88C748.023 124.096 747.287 125.136 745.847 125.136C744.903 125.136 744.199 124.784 744.199 123.84C744.199 122.832 745.223 122.4 746.807 122.4H748.055Z" fill="#333333"/>
<rect y="145" width="176.6" height="48" fill="white"/>
<rect y="192" width="176.6" height="1" fill="#E7EDF9"/>
<rect y="145" width="1" height="47" fill="#E7EDF9"/>
<path d="M15.264 168.624H15.68C17.072 168.624 18.544 169.152 18.544 170.816C18.544 172.128 17.52 173.04 16.24 173.04C14.992 173.04 14.336 172.576 13.952 171.36L12.592 171.808C13.168 173.488 14.528 174.192 16.24 174.192C18.256 174.192 19.984 173.072 19.984 170.912C19.984 169.488 19.104 168.304 17.664 168.064V168.032C18.8 167.68 19.6 166.624 19.6 165.44C19.6 163.488 18.032 162.48 16.224 162.48C14.784 162.48 13.488 163.12 12.944 164.4L14.24 164.896C14.64 164.064 15.376 163.632 16.32 163.632C17.456 163.632 18.256 164.352 18.256 165.504C18.256 167.216 16.8 167.472 15.68 167.472H15.264V168.624Z" fill="#333333"/>
<rect x="176.6" y="145" width="176.6" height="48" fill="white"/>
<rect x="176.6" y="192" width="176.6" height="1" fill="#E7EDF9"/>
<rect x="176.6" y="145" width="1" height="47" fill="#E7EDF9"/>
<path d="M188.696 174H190.216L191.384 171.216H197.048L198.2 174H199.768L194.952 162.672H193.688L188.696 174ZM196.536 169.968H191.912L194.264 164.4H194.296L196.536 169.968ZM201.274 174H204.65C206.746 174 209.066 173.328 209.066 170.832C209.066 169.344 207.962 168.176 206.506 168.048V168.016C207.722 167.648 208.49 166.768 208.49 165.456C208.49 163.376 206.602 162.672 204.73 162.672H201.274V174ZM202.618 163.92H204.618C205.834 163.92 207.05 164.24 207.05 165.632C207.05 167.2 205.738 167.472 204.474 167.472H202.618V163.92ZM202.618 168.72H204.922C206.282 168.72 207.626 169.2 207.626 170.784C207.626 172.224 206.202 172.752 204.89 172.752H202.618V168.72ZM210.552 168.336C210.552 170.912 211.272 174.192 214.392 174.192C217.512 174.192 218.232 170.912 218.232 168.336C218.232 165.76 217.512 162.48 214.392 162.48C211.272 162.48 210.552 165.76 210.552 168.336ZM211.896 168.336C211.896 166.672 212.152 163.632 214.392 163.632C216.632 163.632 216.888 166.672 216.888 168.336C216.888 170 216.632 173.04 214.392 173.04C212.152 173.04 211.896 170 211.896 168.336ZM226.418 162.672H220.482L220.37 168.56C221.042 168.16 221.906 167.856 222.674 167.856C224.258 167.856 225.474 168.768 225.474 170.432C225.474 172 224.402 173.04 223.042 173.04C222.082 173.04 221.314 172.464 220.93 171.616L219.586 172.128C220.194 173.376 221.218 174.192 222.93 174.192C225.138 174.192 226.818 172.688 226.818 170.432C226.818 168.304 225.378 166.704 223.202 166.704C222.738 166.704 222.178 166.768 221.746 166.976L221.794 163.92H226.418V162.672ZM234.029 162.672H232.461L229.453 167.456C228.845 168.432 228.381 169.328 228.381 170.64C228.381 172.848 230.029 174.192 232.173 174.192C234.317 174.192 235.965 172.848 235.965 170.64C235.965 168.528 234.509 167.088 232.541 167.088C232.077 167.088 231.437 167.184 231.021 167.424L230.989 167.392L234.029 162.672ZM232.173 168.24C233.533 168.24 234.621 169.168 234.621 170.64C234.621 172.112 233.533 173.04 232.173 173.04C230.813 173.04 229.725 172.112 229.725 170.64C229.725 169.168 230.813 168.24 232.173 168.24Z" fill="black"/>
<rect x="353.2" y="145" width="176.6" height="48" fill="white"/>
<rect x="353.2" y="192" width="176.6" height="1" fill="#E7EDF9"/>
<rect x="353.2" y="145" width="1" height="47" fill="#E7EDF9"/>
<path d="M370.96 162.672H369.792L366.752 165.136L367.552 166.112L369.584 164.4H369.616V174H370.96V162.672ZM374.891 174H382.187V172.752H376.411V172.72L379.899 169.44C381.035 168.368 382.107 167.36 382.107 165.552C382.107 163.536 380.523 162.48 378.651 162.48C376.827 162.48 375.403 163.456 375.099 165.312L376.555 165.44C376.763 164.352 377.563 163.632 378.699 163.632C379.835 163.632 380.763 164.368 380.763 165.552C380.763 166.656 380.235 167.264 379.163 168.304L374.891 172.464V174ZM394.106 174.288C397.546 174.288 400.026 171.76 400.026 168.336C400.026 164.912 397.546 162.384 394.106 162.384C390.666 162.384 388.186 164.912 388.186 168.336C388.186 171.76 390.666 174.288 394.106 174.288ZM394.106 173.04C391.45 173.04 389.626 170.944 389.626 168.336C389.626 165.728 391.45 163.632 394.106 163.632C396.762 163.632 398.586 165.728 398.586 168.336C398.586 170.944 396.762 173.04 394.106 173.04ZM408.282 167.504C407.53 166.688 406.506 166.32 405.402 166.32C403.098 166.32 401.53 167.984 401.53 170.256C401.53 172.56 403.082 174.192 405.402 174.192C406.49 174.192 407.514 173.824 408.234 172.992L407.306 172.112C406.842 172.752 406.218 173.04 405.402 173.04C403.882 173.04 402.874 171.792 402.874 170.256C402.874 168.72 403.722 167.472 405.402 167.472C406.154 167.472 406.762 167.744 407.29 168.384L408.282 167.504ZM413.777 166.512H411.569V164.384H410.321V166.512H408.689V167.568H410.321V171.68C410.321 173.232 410.609 174.192 412.385 174.192C412.849 174.192 413.409 174.112 413.841 173.92L413.793 172.784C413.457 172.96 413.057 173.04 412.689 173.04C411.585 173.04 411.569 172.272 411.569 171.312V167.568H413.777V166.512ZM419.375 174H426.671V172.752H420.895V172.72L424.383 169.44C425.519 168.368 426.591 167.36 426.591 165.552C426.591 163.536 425.007 162.48 423.135 162.48C421.311 162.48 419.887 163.456 419.583 165.312L421.039 165.44C421.247 164.352 422.047 163.632 423.183 163.632C424.319 163.632 425.247 164.368 425.247 165.552C425.247 166.656 424.719 167.264 423.647 168.304L419.375 172.464V174ZM428.074 168.336C428.074 170.912 428.794 174.192 431.914 174.192C435.034 174.192 435.754 170.912 435.754 168.336C435.754 165.76 435.034 162.48 431.914 162.48C428.794 162.48 428.074 165.76 428.074 168.336ZM429.418 168.336C429.418 166.672 429.674 163.632 431.914 163.632C434.154 163.632 434.41 166.672 434.41 168.336C434.41 170 434.154 173.04 431.914 173.04C429.674 173.04 429.418 170 429.418 168.336ZM437.156 174H444.452V172.752H438.676V172.72L442.164 169.44C443.3 168.368 444.372 167.36 444.372 165.552C444.372 163.536 442.788 162.48 440.916 162.48C439.092 162.48 437.668 163.456 437.364 165.312L438.82 165.44C439.028 164.352 439.828 163.632 440.964 163.632C442.1 163.632 443.028 164.368 443.028 165.552C443.028 166.656 442.5 167.264 441.428 168.304L437.156 172.464V174ZM451.007 162.672H449.839L446.799 165.136L447.599 166.112L449.631 164.4H449.663V174H451.007V162.672ZM459.199 168.336C459.199 170.912 459.919 174.192 463.039 174.192C466.159 174.192 466.879 170.912 466.879 168.336C466.879 165.76 466.159 162.48 463.039 162.48C459.919 162.48 459.199 165.76 459.199 168.336ZM460.543 168.336C460.543 166.672 460.799 163.632 463.039 163.632C465.279 163.632 465.535 166.672 465.535 168.336C465.535 170 465.279 173.04 463.039 173.04C460.799 173.04 460.543 170 460.543 168.336ZM468.697 165.44C468.697 166.512 469.401 167.632 470.553 167.936V167.968C469.193 168.256 468.313 169.456 468.313 170.88C468.313 172.944 469.913 174.192 471.929 174.192C473.945 174.192 475.545 172.944 475.545 170.88C475.545 169.456 474.665 168.256 473.305 167.968V167.936C474.457 167.632 475.161 166.512 475.161 165.44C475.161 163.664 473.753 162.48 471.929 162.48C470.105 162.48 468.697 163.664 468.697 165.44ZM470.041 165.504C470.041 164.432 470.809 163.632 471.929 163.632C473.049 163.632 473.817 164.432 473.817 165.504C473.817 166.576 473.049 167.376 471.929 167.376C470.809 167.376 470.041 166.576 470.041 165.504ZM469.657 170.784C469.657 169.456 470.665 168.528 471.929 168.528C473.193 168.528 474.201 169.456 474.201 170.784C474.201 172.112 473.193 173.04 471.929 173.04C470.665 173.04 469.657 172.112 469.657 170.784ZM478.596 166.32C478.068 166.32 477.636 166.752 477.636 167.28C477.636 167.808 478.1 168.24 478.596 168.24C479.092 168.24 479.556 167.808 479.556 167.28C479.556 166.752 479.124 166.32 478.596 166.32ZM478.596 172.176C478.068 172.176 477.636 172.608 477.636 173.136C477.636 173.664 478.1 174.096 478.596 174.096C479.092 174.096 479.556 173.664 479.556 173.136C479.556 172.608 479.124 172.176 478.596 172.176ZM481.433 168.336C481.433 170.912 482.153 174.192 485.273 174.192C488.393 174.192 489.113 170.912 489.113 168.336C489.113 165.76 488.393 162.48 485.273 162.48C482.153 162.48 481.433 165.76 481.433 168.336ZM482.777 168.336C482.777 166.672 483.033 163.632 485.273 163.632C487.513 163.632 487.769 166.672 487.769 168.336C487.769 170 487.513 173.04 485.273 173.04C483.033 173.04 482.777 170 482.777 168.336ZM490.324 168.336C490.324 170.912 491.044 174.192 494.164 174.192C497.284 174.192 498.004 170.912 498.004 168.336C498.004 165.76 497.284 162.48 494.164 162.48C491.044 162.48 490.324 165.76 490.324 168.336ZM491.668 168.336C491.668 166.672 491.924 163.632 494.164 163.632C496.404 163.632 496.66 166.672 496.66 168.336C496.66 170 496.404 173.04 494.164 173.04C491.924 173.04 491.668 170 491.668 168.336ZM500.83 166.32C500.302 166.32 499.87 166.752 499.87 167.28C499.87 167.808 500.334 168.24 500.83 168.24C501.326 168.24 501.79 167.808 501.79 167.28C501.79 166.752 501.358 166.32 500.83 166.32ZM500.83 172.176C500.302 172.176 499.87 172.608 499.87 173.136C499.87 173.664 500.334 174.096 500.83 174.096C501.326 174.096 501.79 173.664 501.79 173.136C501.79 172.608 501.358 172.176 500.83 172.176ZM503.667 168.336C503.667 170.912 504.387 174.192 507.507 174.192C510.627 174.192 511.347 170.912 511.347 168.336C511.347 165.76 510.627 162.48 507.507 162.48C504.387 162.48 503.667 165.76 503.667 168.336ZM505.011 168.336C505.011 166.672 505.267 163.632 507.507 163.632C509.747 163.632 510.003 166.672 510.003 168.336C510.003 170 509.747 173.04 507.507 173.04C505.267 173.04 505.011 170 505.011 168.336ZM512.558 168.336C512.558 170.912 513.278 174.192 516.398 174.192C519.518 174.192 520.238 170.912 520.238 168.336C520.238 165.76 519.518 162.48 516.398 162.48C513.278 162.48 512.558 165.76 512.558 168.336ZM513.902 168.336C513.902 166.672 514.158 163.632 516.398 163.632C518.638 163.632 518.894 166.672 518.894 168.336C518.894 170 518.638 173.04 516.398 173.04C514.158 173.04 513.902 170 513.902 168.336Z" fill="black"/>
<rect x="529.8" y="145" width="176.6" height="48" fill="white"/>
<rect x="529.8" y="192" width="176.6" height="1" fill="#E7EDF9"/>
<rect x="529.8" y="145" width="1" height="47" fill="#E7EDF9"/>
<rect x="537.999" y="155" width="78" height="25" rx="8" fill="#ECF7E3"/>
<path d="M547.511 171H548.687V166.548H550.675C552.075 166.548 553.923 165.974 553.923 163.804C553.923 161.732 552.271 161.088 550.451 161.088H547.511V171ZM548.687 162.18H550.675C551.851 162.18 552.663 162.712 552.663 163.818C552.663 164.924 551.851 165.456 550.675 165.456H548.687V162.18ZM561.325 164.448H560.233V167.64C560.233 169.138 559.617 170.16 558.203 170.16C557.181 170.16 556.705 169.474 556.705 168.382V164.448H555.613V168.494C555.613 170.076 556.383 171.168 558.105 171.168C559.183 171.168 559.995 170.566 560.289 169.922H560.317C560.317 170.286 560.345 170.65 560.345 171H561.381C561.381 170.566 561.325 170.048 561.325 169.446V164.448ZM563.337 171H564.429V169.838H564.457C564.863 170.58 565.801 171.168 566.977 171.168C568.811 171.168 570.253 169.684 570.253 167.724C570.253 165.736 568.867 164.28 566.809 164.28C565.857 164.28 565.059 164.7 564.457 165.4H564.429V160.416H563.337V171ZM564.429 167.724C564.429 166.352 565.339 165.288 566.753 165.288C568.167 165.288 569.077 166.352 569.077 167.724C569.077 169.096 568.167 170.16 566.753 170.16C565.339 170.16 564.429 169.096 564.429 167.724ZM572.049 171H573.141V160.416H572.049V171ZM575.413 171H576.505V164.448H575.413V171ZM575.161 161.886C575.161 162.348 575.497 162.684 575.959 162.684C576.421 162.684 576.757 162.348 576.757 161.886C576.757 161.452 576.407 161.088 575.959 161.088C575.511 161.088 575.161 161.452 575.161 161.886ZM577.95 169.95C578.594 170.874 579.392 171.168 580.498 171.168C581.8 171.168 583.116 170.594 583.116 169.11C583.116 167.794 582.136 167.374 580.974 167.15C580.106 166.982 579.322 166.744 579.322 166.198C579.322 165.582 580.008 165.288 580.61 165.288C581.254 165.288 581.716 165.61 581.996 166.072L582.906 165.47C582.458 164.63 581.604 164.28 580.68 164.28C579.462 164.28 578.23 164.938 578.23 166.212C578.23 167.57 579.294 167.836 580.54 168.116C581.24 168.27 581.94 168.452 581.94 169.152C581.94 169.866 581.184 170.16 580.498 170.16C579.728 170.16 579.252 169.81 578.818 169.278L577.95 169.95ZM584.639 171H585.731V167.808C585.731 166.31 586.347 165.288 587.761 165.288C588.783 165.288 589.259 165.974 589.259 167.066V171H590.351V166.954C590.351 165.372 589.581 164.28 587.859 164.28C586.837 164.28 586.053 164.84 585.759 165.358H585.731V160.416H584.639V171ZM597.444 169.166C596.926 169.824 596.296 170.16 595.358 170.16C594.168 170.16 593.3 169.194 593.216 168.06H598.508V167.71C598.508 165.54 597.248 164.28 595.4 164.28C593.468 164.28 592.04 165.694 592.04 167.724C592.04 169.628 593.3 171.168 595.358 171.168C596.576 171.168 597.5 170.804 598.27 169.81L597.444 169.166ZM593.216 167.136C593.356 166.03 594.154 165.288 595.358 165.288C596.562 165.288 597.29 166.03 597.332 167.136H593.216ZM605.643 171H606.735V160.416H605.643V165.4H605.615C605.013 164.7 604.215 164.28 603.263 164.28C601.205 164.28 599.819 165.736 599.819 167.724C599.819 169.684 601.261 171.168 603.095 171.168C604.271 171.168 605.209 170.58 605.615 169.838H605.643V171ZM605.643 167.724C605.643 169.096 604.733 170.16 603.319 170.16C601.905 170.16 600.995 169.096 600.995 167.724C600.995 166.352 601.905 165.288 603.319 165.288C604.733 165.288 605.643 166.352 605.643 167.724Z" fill="#467822"/>
<rect x="706.4" y="145" width="219" height="48" fill="white"/>
<rect x="706.4" y="192" width="219" height="1" fill="#E7EDF9"/>
<rect x="706.4" y="145" width="1" height="47" fill="#E7EDF9"/>
<path d="M725.808 174H727.056V161.904H725.808V167.6H725.776C725.088 166.8 724.176 166.32 723.088 166.32C720.736 166.32 719.152 167.984 719.152 170.256C719.152 172.496 720.8 174.192 722.896 174.192C724.24 174.192 725.312 173.52 725.776 172.672H725.808V174ZM725.808 170.256C725.808 171.824 724.768 173.04 723.152 173.04C721.536 173.04 720.496 171.824 720.496 170.256C720.496 168.688 721.536 167.472 723.152 167.472C724.768 167.472 725.808 168.688 725.808 170.256ZM730.053 168.288C730.645 167.744 731.477 167.472 732.277 167.472C733.445 167.472 734.133 168.032 734.133 169.12V169.344H733.653C731.813 169.344 728.933 169.488 728.933 171.968C728.933 173.424 730.197 174.192 731.717 174.192C732.853 174.192 733.685 173.648 734.181 172.88H734.213C734.213 173.2 734.213 173.664 734.293 174H735.493C735.429 173.616 735.381 173.136 735.381 172.704V169.488C735.381 167.376 734.453 166.32 732.245 166.32C731.157 166.32 730.037 166.688 729.269 167.472L730.053 168.288ZM734.133 170.4V170.88C734.101 172.096 733.365 173.136 731.925 173.136C730.981 173.136 730.277 172.784 730.277 171.84C730.277 170.832 731.301 170.4 732.885 170.4H734.133ZM741.758 166.512H739.55V164.384H738.302V166.512H736.67V167.568H738.302V171.68C738.302 173.232 738.59 174.192 740.366 174.192C740.83 174.192 741.39 174.112 741.822 173.92L741.774 172.784C741.438 172.96 741.038 173.04 740.67 173.04C739.566 173.04 739.55 172.272 739.55 171.312V167.568H741.758V166.512ZM743.975 168.288C744.567 167.744 745.399 167.472 746.199 167.472C747.367 167.472 748.055 168.032 748.055 169.12V169.344H747.575C745.735 169.344 742.855 169.488 742.855 171.968C742.855 173.424 744.119 174.192 745.639 174.192C746.775 174.192 747.607 173.648 748.103 172.88H748.135C748.135 173.2 748.135 173.664 748.215 174H749.415C749.351 173.616 749.303 173.136 749.303 172.704V169.488C749.303 167.376 748.375 166.32 746.167 166.32C745.079 166.32 743.959 166.688 743.191 167.472L743.975 168.288ZM748.055 170.4V170.88C748.023 172.096 747.287 173.136 745.847 173.136C744.903 173.136 744.199 172.784 744.199 171.84C744.199 170.832 745.223 170.4 746.807 170.4H748.055Z" fill="#333333"/>
</svg>
