<svg width="862" height="154" viewBox="0 0 862 154" fill="none" xmlns="http://www.w3.org/2000/svg">
<path d="M3.136 12H4.9V3.684H7.938V2.088H0.098V3.684H3.136V12ZM9.39247 12.056L9.07047 12.854C8.79047 13.554 8.56647 13.848 7.74047 13.848C7.44647 13.848 7.15247 13.778 6.88647 13.68L6.67647 15.192C7.09647 15.304 7.53047 15.36 7.96447 15.36C9.44847 15.36 10.0365 14.702 10.5265 13.442L13.7045 5.28H11.9545L10.2745 9.942H10.2465L8.37047 5.28H6.52247L9.39247 12.056ZM14.6922 15.192H16.3722V11.146H16.4142C16.7642 11.58 17.4362 12.168 18.6962 12.168C20.6142 12.168 21.9442 10.628 21.9442 8.64C21.9442 6.652 20.6982 5.112 18.6262 5.112C17.6882 5.112 16.8062 5.476 16.3162 6.288H16.2882V5.28H14.6922V15.192ZM20.2642 8.64C20.2642 9.69 19.5222 10.656 18.2902 10.656C17.0582 10.656 16.3162 9.69 16.3162 8.64C16.3162 7.59 17.0582 6.624 18.2902 6.624C19.5222 6.624 20.2642 7.59 20.2642 8.64ZM29.9786 9.228V8.766C29.9786 6.428 28.7046 5.112 26.8286 5.112C24.7986 5.112 23.1746 6.526 23.1746 8.64C23.1746 10.754 24.7986 12.168 26.8286 12.168C27.8926 12.168 28.8866 11.79 29.6706 10.824L28.4666 9.914C28.0466 10.432 27.5006 10.824 26.6606 10.824C25.7226 10.824 24.9666 10.222 24.8546 9.228H29.9786ZM24.8546 7.968C24.9806 7.002 25.5966 6.372 26.5906 6.372C27.6406 6.372 28.2846 6.988 28.2986 7.968H24.8546ZM31.5497 11.02C31.5497 11.622 32.0817 12.084 32.6697 12.084C33.2857 12.084 33.7897 11.594 33.7897 10.992C33.7897 10.39 33.2717 9.928 32.6697 9.928C32.0537 9.928 31.5497 10.418 31.5497 11.02ZM31.5497 6.274C31.5497 6.876 32.0817 7.338 32.6697 7.338C33.2857 7.338 33.7897 6.848 33.7897 6.246C33.7897 5.644 33.2717 5.182 32.6697 5.182C32.0537 5.182 31.5497 5.672 31.5497 6.274ZM39.9888 12H43.6848C46.0648 12 48.9348 10.432 48.9348 7.044C48.9348 3.684 46.4988 2.088 43.8948 2.088H39.9888V12ZM41.7528 10.404V3.684H43.3628C45.5188 3.684 47.0868 4.636 47.0868 7.044C47.0868 9.452 45.2808 10.404 43.0688 10.404H41.7528ZM56.9259 9.228V8.766C56.9259 6.428 55.6519 5.112 53.7759 5.112C51.7459 5.112 50.1219 6.526 50.1219 8.64C50.1219 10.754 51.7459 12.168 53.7759 12.168C54.8399 12.168 55.8339 11.79 56.6179 10.824L55.4139 9.914C54.9939 10.432 54.4479 10.824 53.6079 10.824C52.6699 10.824 51.9139 10.222 51.8019 9.228H56.9259ZM51.8019 7.968C51.9279 7.002 52.5439 6.372 53.5379 6.372C54.5879 6.372 55.2319 6.988 55.2459 7.968H51.8019ZM59.0989 12H60.7789V6.708H62.3329V5.28H60.7789V4.062C60.7789 3.32 60.9189 2.676 61.8569 2.676C62.0949 2.676 62.3189 2.718 62.5569 2.774L62.6689 1.346C62.3189 1.276 61.9689 1.248 61.6049 1.248C59.5189 1.248 59.0989 2.466 59.0989 4.328V5.28H57.7129V6.708H59.0989V12ZM67.6188 12H69.1308V8.136C69.1308 7.184 69.1308 5.112 66.2608 5.112C65.1968 5.112 64.1468 5.434 63.4048 6.19L64.2868 7.072C64.7348 6.652 65.3788 6.372 66.0788 6.372C66.9748 6.372 67.6188 6.806 67.6188 7.632V7.814H67.1988C65.5188 7.814 62.9708 7.968 62.9708 10.152C62.9708 11.482 64.1748 12.168 65.4208 12.168C66.3168 12.168 67.1008 11.832 67.5768 11.076H67.6188V12ZM67.5208 9.368C67.5208 10.306 66.9748 10.908 65.8268 10.908C65.2808 10.908 64.6508 10.642 64.6508 10.026C64.6508 9.06 66.2468 8.99 67.1708 8.99H67.5208V9.368ZM77.0703 5.28H75.3903V8.948C75.3903 9.844 74.9563 10.656 73.8503 10.656C72.6743 10.656 72.6183 9.424 72.6183 8.682V5.28H70.9383V9.522C70.9383 10.894 71.5823 12.168 73.3883 12.168C74.5083 12.168 75.1383 11.594 75.4463 10.922H75.4743V12H77.0703V5.28ZM79.0054 12H80.6854V1.416H79.0054V12ZM83.2161 6.708V9.788C83.2161 11.37 83.6361 12.168 85.4141 12.168C85.8061 12.168 86.3941 12.112 86.7441 11.944V10.53C86.5341 10.684 86.1281 10.74 85.8341 10.74C85.0921 10.74 84.8961 10.32 84.8961 9.648V6.708H86.7441V5.28H84.8961V3.334H83.2161V5.28H81.8301V6.708H83.2161ZM7.252 19.858C6.482 19.13 5.446 18.836 4.41 18.836C2.576 18.836 0.756 19.788 0.756 21.832C0.756 25.374 5.46 24.128 5.46 26.298C5.46 27.208 4.536 27.656 3.724 27.656C2.94 27.656 2.198 27.278 1.764 26.62L0.434 27.908C1.246 28.874 2.45 29.252 3.682 29.252C5.628 29.252 7.308 28.216 7.308 26.088C7.308 22.56 2.604 23.694 2.604 21.706C2.604 20.796 3.416 20.432 4.228 20.432C4.914 20.432 5.586 20.684 5.964 21.216L7.252 19.858ZM9.59306 23.708V26.788C9.59306 28.37 10.0131 29.168 11.7911 29.168C12.1831 29.168 12.7711 29.112 13.1211 28.944V27.53C12.9111 27.684 12.5051 27.74 12.2111 27.74C11.4691 27.74 11.2731 27.32 11.2731 26.648V23.708H13.1211V22.28H11.2731V20.334H9.59306V22.28H8.20706V23.708H9.59306ZM18.6325 29H20.1445V25.136C20.1445 24.184 20.1445 22.112 17.2745 22.112C16.2105 22.112 15.1605 22.434 14.4185 23.19L15.3005 24.072C15.7485 23.652 16.3925 23.372 17.0925 23.372C17.9885 23.372 18.6325 23.806 18.6325 24.632V24.814H18.2125C16.5325 24.814 13.9845 24.968 13.9845 27.152C13.9845 28.482 15.1885 29.168 16.4345 29.168C17.3305 29.168 18.1145 28.832 18.5905 28.076H18.6325V29ZM18.5345 26.368C18.5345 27.306 17.9885 27.908 16.8405 27.908C16.2945 27.908 15.6645 27.642 15.6645 27.026C15.6645 26.06 17.2605 25.99 18.1845 25.99H18.5345V26.368ZM22.554 23.708V26.788C22.554 28.37 22.974 29.168 24.752 29.168C25.144 29.168 25.732 29.112 26.082 28.944V27.53C25.872 27.684 25.466 27.74 25.172 27.74C24.43 27.74 24.234 27.32 24.234 26.648V23.708H26.082V22.28H24.234V20.334H22.554V22.28H21.168V23.708H22.554ZM33.8614 26.228V25.766C33.8614 23.428 32.5874 22.112 30.7114 22.112C28.6814 22.112 27.0574 23.526 27.0574 25.64C27.0574 27.754 28.6814 29.168 30.7114 29.168C31.7754 29.168 32.7694 28.79 33.5534 27.824L32.3494 26.914C31.9294 27.432 31.3834 27.824 30.5434 27.824C29.6054 27.824 28.8494 27.222 28.7374 26.228H33.8614ZM28.7374 24.968C28.8634 24.002 29.4794 23.372 30.4734 23.372C31.5234 23.372 32.1674 23.988 32.1814 24.968H28.7374ZM40.1365 23.134C39.5905 22.392 38.6385 22.112 37.7425 22.112C36.3845 22.112 35.0405 22.784 35.0405 24.282C35.0405 26.844 38.6665 25.752 38.6665 27.138C38.6665 27.67 38.0365 27.908 37.5465 27.908C36.8325 27.908 36.3845 27.558 35.9505 27.082L34.8305 28.132C35.5165 28.902 36.4125 29.168 37.4485 29.168C38.8205 29.168 40.3465 28.608 40.3465 27.012C40.3465 24.394 36.7205 25.374 36.7205 24.17C36.7205 23.666 37.2525 23.456 37.7005 23.456C38.2745 23.456 38.6945 23.694 39.0165 24.142L40.1365 23.134ZM41.6532 28.02C41.6532 28.622 42.1852 29.084 42.7732 29.084C43.3892 29.084 43.8932 28.594 43.8932 27.992C43.8932 27.39 43.3752 26.928 42.7732 26.928C42.1572 26.928 41.6532 27.418 41.6532 28.02ZM41.6532 23.274C41.6532 23.876 42.1852 24.338 42.7732 24.338C43.3892 24.338 43.8932 23.848 43.8932 23.246C43.8932 22.644 43.3752 22.182 42.7732 22.182C42.1572 22.182 41.6532 22.672 41.6532 23.274ZM58.8983 23.204H55.1043V24.8H57.1343V27.138C56.5183 27.488 55.7063 27.656 54.8103 27.656C52.7663 27.656 51.4083 26.088 51.4083 23.974C51.4083 22 52.7663 20.432 54.8103 20.432C55.8043 20.432 56.7703 20.782 57.4003 21.398L58.7023 20.082C57.6663 19.158 56.3083 18.836 54.7963 18.836C51.7443 18.836 49.5603 20.908 49.5603 24.086C49.5603 27.18 51.7443 29.252 54.7963 29.252C56.3223 29.252 57.6943 28.916 58.8983 28.272V23.204ZM60.8348 29H62.5148V25.402C62.5148 25.038 62.7388 23.708 64.3208 23.708C64.5868 23.708 64.8528 23.764 65.1328 23.834V22.21C64.9368 22.154 64.7408 22.112 64.5308 22.112C63.6488 22.112 62.9068 22.574 62.5428 23.344H62.5148V22.28H60.8348V29ZM72.4981 26.228V25.766C72.4981 23.428 71.2241 22.112 69.3481 22.112C67.3181 22.112 65.6941 23.526 65.6941 25.64C65.6941 27.754 67.3181 29.168 69.3481 29.168C70.4121 29.168 71.4061 28.79 72.1901 27.824L70.9861 26.914C70.5661 27.432 70.0201 27.824 69.1801 27.824C68.2421 27.824 67.4861 27.222 67.3741 26.228H72.4981ZM67.3741 24.968C67.5001 24.002 68.1161 23.372 69.1101 23.372C70.1601 23.372 70.8041 23.988 70.8181 24.968H67.3741ZM80.5372 26.228V25.766C80.5372 23.428 79.2632 22.112 77.3872 22.112C75.3572 22.112 73.7332 23.526 73.7332 25.64C73.7332 27.754 75.3572 29.168 77.3872 29.168C78.4512 29.168 79.4452 28.79 80.2292 27.824L79.0252 26.914C78.6052 27.432 78.0592 27.824 77.2192 27.824C76.2812 27.824 75.5252 27.222 75.4132 26.228H80.5372ZM75.4132 24.968C75.5392 24.002 76.1552 23.372 77.1492 23.372C78.1992 23.372 78.8432 23.988 78.8572 24.968H75.4132ZM82.1083 29H83.7883V25.332C83.7883 24.436 84.2223 23.624 85.3283 23.624C86.5043 23.624 86.5603 24.856 86.5603 25.598V29H88.2403V24.758C88.2403 23.386 87.5963 22.112 85.7903 22.112C84.6703 22.112 84.0403 22.686 83.7323 23.358H83.7043V22.28H82.1083V29Z" fill="black"/>
<rect y="44" width="39" height="25" rx="8" fill="#ECF7E3"/>
<path d="M16.2326 50.088H8.50459V51.18H11.7806V60H12.9566V51.18H16.2326V50.088ZM16.4691 55.002C16.9871 54.526 17.7151 54.288 18.4151 54.288C19.4371 54.288 20.0391 54.778 20.0391 55.73V55.926H19.6191C18.0091 55.926 15.4891 56.052 15.4891 58.222C15.4891 59.496 16.5951 60.168 17.9251 60.168C18.9191 60.168 19.6471 59.692 20.0811 59.02H20.1091C20.1091 59.3 20.1091 59.706 20.1791 60H21.2291C21.1731 59.664 21.1311 59.244 21.1311 58.866V56.052C21.1311 54.204 20.3191 53.28 18.3871 53.28C17.4351 53.28 16.4551 53.602 15.7831 54.288L16.4691 55.002ZM20.0391 56.85V57.27C20.0111 58.334 19.3671 59.244 18.1071 59.244C17.2811 59.244 16.6651 58.936 16.6651 58.11C16.6651 57.228 17.5611 56.85 18.9471 56.85H20.0391ZM29.6648 53.448H28.5728V54.568H28.5448C28.1108 53.7 27.1168 53.28 26.2348 53.28C24.1488 53.28 22.7488 54.582 22.7488 56.724C22.7488 58.656 24.1768 60.084 26.2348 60.084C27.1028 60.084 28.0268 59.706 28.5448 58.866H28.5728V59.706C28.5728 61.092 28.0548 62.352 26.0948 62.352C25.0868 62.352 24.3448 61.96 23.6588 61.218L22.8748 62.114C23.7988 63.024 24.8208 63.36 26.0948 63.36C28.3908 63.36 29.6648 62.072 29.6648 59.706V53.448ZM23.9248 56.724C23.9248 55.352 24.8628 54.288 26.2348 54.288C27.6208 54.288 28.5728 55.282 28.5728 56.696C28.5728 57.956 27.7328 59.076 26.2348 59.076C24.9608 59.076 23.9248 58.054 23.9248 56.724Z" fill="#467822"/>
<path d="M178.736 12H180.5V3.684H183.538V2.088H175.698V3.684H178.736V12ZM184.993 12.056L184.671 12.854C184.391 13.554 184.167 13.848 183.341 13.848C183.047 13.848 182.753 13.778 182.487 13.68L182.277 15.192C182.697 15.304 183.131 15.36 183.565 15.36C185.049 15.36 185.637 14.702 186.127 13.442L189.305 5.28H187.555L185.875 9.942H185.847L183.971 5.28H182.123L184.993 12.056ZM190.292 15.192H191.972V11.146H192.014C192.364 11.58 193.036 12.168 194.296 12.168C196.214 12.168 197.544 10.628 197.544 8.64C197.544 6.652 196.298 5.112 194.226 5.112C193.288 5.112 192.406 5.476 191.916 6.288H191.888V5.28H190.292V15.192ZM195.864 8.64C195.864 9.69 195.122 10.656 193.89 10.656C192.658 10.656 191.916 9.69 191.916 8.64C191.916 7.59 192.658 6.624 193.89 6.624C195.122 6.624 195.864 7.59 195.864 8.64ZM205.579 9.228V8.766C205.579 6.428 204.305 5.112 202.429 5.112C200.399 5.112 198.775 6.526 198.775 8.64C198.775 10.754 200.399 12.168 202.429 12.168C203.493 12.168 204.487 11.79 205.271 10.824L204.067 9.914C203.647 10.432 203.101 10.824 202.261 10.824C201.323 10.824 200.567 10.222 200.455 9.228H205.579ZM200.455 7.968C200.581 7.002 201.197 6.372 202.191 6.372C203.241 6.372 203.885 6.988 203.899 7.968H200.455ZM207.15 11.02C207.15 11.622 207.682 12.084 208.27 12.084C208.886 12.084 209.39 11.594 209.39 10.992C209.39 10.39 208.872 9.928 208.27 9.928C207.654 9.928 207.15 10.418 207.15 11.02ZM207.15 6.274C207.15 6.876 207.682 7.338 208.27 7.338C208.886 7.338 209.39 6.848 209.39 6.246C209.39 5.644 208.872 5.182 208.27 5.182C207.654 5.182 207.15 5.672 207.15 6.274ZM215.589 12H219.285C221.665 12 224.535 10.432 224.535 7.044C224.535 3.684 222.099 2.088 219.495 2.088H215.589V12ZM217.353 10.404V3.684H218.963C221.119 3.684 222.687 4.636 222.687 7.044C222.687 9.452 220.881 10.404 218.669 10.404H217.353ZM232.526 9.228V8.766C232.526 6.428 231.252 5.112 229.376 5.112C227.346 5.112 225.722 6.526 225.722 8.64C225.722 10.754 227.346 12.168 229.376 12.168C230.44 12.168 231.434 11.79 232.218 10.824L231.014 9.914C230.594 10.432 230.048 10.824 229.208 10.824C228.27 10.824 227.514 10.222 227.402 9.228H232.526ZM227.402 7.968C227.528 7.002 228.144 6.372 229.138 6.372C230.188 6.372 230.832 6.988 230.846 7.968H227.402ZM234.699 12H236.379V6.708H237.933V5.28H236.379V4.062C236.379 3.32 236.519 2.676 237.457 2.676C237.695 2.676 237.919 2.718 238.157 2.774L238.269 1.346C237.919 1.276 237.569 1.248 237.205 1.248C235.119 1.248 234.699 2.466 234.699 4.328V5.28H233.313V6.708H234.699V12ZM243.219 12H244.731V8.136C244.731 7.184 244.731 5.112 241.861 5.112C240.797 5.112 239.747 5.434 239.005 6.19L239.887 7.072C240.335 6.652 240.979 6.372 241.679 6.372C242.575 6.372 243.219 6.806 243.219 7.632V7.814H242.799C241.119 7.814 238.571 7.968 238.571 10.152C238.571 11.482 239.775 12.168 241.021 12.168C241.917 12.168 242.701 11.832 243.177 11.076H243.219V12ZM243.121 9.368C243.121 10.306 242.575 10.908 241.427 10.908C240.881 10.908 240.251 10.642 240.251 10.026C240.251 9.06 241.847 8.99 242.771 8.99H243.121V9.368ZM252.67 5.28H250.99V8.948C250.99 9.844 250.556 10.656 249.45 10.656C248.274 10.656 248.218 9.424 248.218 8.682V5.28H246.538V9.522C246.538 10.894 247.182 12.168 248.988 12.168C250.108 12.168 250.738 11.594 251.046 10.922H251.074V12H252.67V5.28ZM254.605 12H256.285V1.416H254.605V12ZM258.816 6.708V9.788C258.816 11.37 259.236 12.168 261.014 12.168C261.406 12.168 261.994 12.112 262.344 11.944V10.53C262.134 10.684 261.728 10.74 261.434 10.74C260.692 10.74 260.496 10.32 260.496 9.648V6.708H262.344V5.28H260.496V3.334H258.816V5.28H257.43V6.708H258.816ZM182.852 19.858C182.082 19.13 181.046 18.836 180.01 18.836C178.176 18.836 176.356 19.788 176.356 21.832C176.356 25.374 181.06 24.128 181.06 26.298C181.06 27.208 180.136 27.656 179.324 27.656C178.54 27.656 177.798 27.278 177.364 26.62L176.034 27.908C176.846 28.874 178.05 29.252 179.282 29.252C181.228 29.252 182.908 28.216 182.908 26.088C182.908 22.56 178.204 23.694 178.204 21.706C178.204 20.796 179.016 20.432 179.828 20.432C180.514 20.432 181.186 20.684 181.564 21.216L182.852 19.858ZM185.193 23.708V26.788C185.193 28.37 185.613 29.168 187.391 29.168C187.783 29.168 188.371 29.112 188.721 28.944V27.53C188.511 27.684 188.105 27.74 187.811 27.74C187.069 27.74 186.873 27.32 186.873 26.648V23.708H188.721V22.28H186.873V20.334H185.193V22.28H183.807V23.708H185.193ZM194.233 29H195.745V25.136C195.745 24.184 195.745 22.112 192.875 22.112C191.811 22.112 190.761 22.434 190.019 23.19L190.901 24.072C191.349 23.652 191.993 23.372 192.693 23.372C193.589 23.372 194.233 23.806 194.233 24.632V24.814H193.813C192.133 24.814 189.585 24.968 189.585 27.152C189.585 28.482 190.789 29.168 192.035 29.168C192.931 29.168 193.715 28.832 194.191 28.076H194.233V29ZM194.135 26.368C194.135 27.306 193.589 27.908 192.441 27.908C191.895 27.908 191.265 27.642 191.265 27.026C191.265 26.06 192.861 25.99 193.785 25.99H194.135V26.368ZM198.154 23.708V26.788C198.154 28.37 198.574 29.168 200.352 29.168C200.744 29.168 201.332 29.112 201.682 28.944V27.53C201.472 27.684 201.066 27.74 200.772 27.74C200.03 27.74 199.834 27.32 199.834 26.648V23.708H201.682V22.28H199.834V20.334H198.154V22.28H196.768V23.708H198.154ZM209.462 26.228V25.766C209.462 23.428 208.188 22.112 206.312 22.112C204.282 22.112 202.658 23.526 202.658 25.64C202.658 27.754 204.282 29.168 206.312 29.168C207.376 29.168 208.37 28.79 209.154 27.824L207.95 26.914C207.53 27.432 206.984 27.824 206.144 27.824C205.206 27.824 204.45 27.222 204.338 26.228H209.462ZM204.338 24.968C204.464 24.002 205.08 23.372 206.074 23.372C207.124 23.372 207.768 23.988 207.782 24.968H204.338ZM215.737 23.134C215.191 22.392 214.239 22.112 213.343 22.112C211.985 22.112 210.641 22.784 210.641 24.282C210.641 26.844 214.267 25.752 214.267 27.138C214.267 27.67 213.637 27.908 213.147 27.908C212.433 27.908 211.985 27.558 211.551 27.082L210.431 28.132C211.117 28.902 212.013 29.168 213.049 29.168C214.421 29.168 215.947 28.608 215.947 27.012C215.947 24.394 212.321 25.374 212.321 24.17C212.321 23.666 212.853 23.456 213.301 23.456C213.875 23.456 214.295 23.694 214.617 24.142L215.737 23.134ZM217.253 28.02C217.253 28.622 217.785 29.084 218.373 29.084C218.989 29.084 219.493 28.594 219.493 27.992C219.493 27.39 218.975 26.928 218.373 26.928C217.757 26.928 217.253 27.418 217.253 28.02ZM217.253 23.274C217.253 23.876 217.785 24.338 218.373 24.338C218.989 24.338 219.493 23.848 219.493 23.246C219.493 22.644 218.975 22.182 218.373 22.182C217.757 22.182 217.253 22.672 217.253 23.274ZM225.692 29H229.262C231.138 29 233.014 28.328 233.014 26.172C233.014 24.898 232.118 23.918 230.872 23.778V23.75C231.894 23.442 232.594 22.7 232.594 21.58C232.594 19.774 231.054 19.088 229.556 19.088H225.692V29ZM227.456 20.6H228.912C230.242 20.6 230.83 21.02 230.83 21.874C230.83 22.616 230.242 23.12 229.066 23.12H227.456V20.6ZM227.456 24.632H229.15C230.578 24.632 231.25 24.996 231.25 26.032C231.25 27.334 229.99 27.488 229.08 27.488H227.456V24.632ZM234.645 29H236.325V18.416H234.645V29ZM244.385 22.28H242.705V25.948C242.705 26.844 242.271 27.656 241.165 27.656C239.989 27.656 239.933 26.424 239.933 25.682V22.28H238.253V26.522C238.253 27.894 238.897 29.168 240.703 29.168C241.823 29.168 242.453 28.594 242.761 27.922H242.789V29H244.385V22.28ZM252.76 26.228V25.766C252.76 23.428 251.486 22.112 249.61 22.112C247.58 22.112 245.956 23.526 245.956 25.64C245.956 27.754 247.58 29.168 249.61 29.168C250.674 29.168 251.668 28.79 252.452 27.824L251.248 26.914C250.828 27.432 250.282 27.824 249.442 27.824C248.504 27.824 247.748 27.222 247.636 26.228H252.76ZM247.636 24.968C247.762 24.002 248.378 23.372 249.372 23.372C250.422 23.372 251.066 23.988 251.08 24.968H247.636Z" fill="black"/>
<rect x="175.6" y="44" width="39" height="25" rx="8" fill="#F4FBFC"/>
<path d="M191.833 50.088H184.105V51.18H187.381V60H188.557V51.18H191.833V50.088ZM192.069 55.002C192.587 54.526 193.315 54.288 194.015 54.288C195.037 54.288 195.639 54.778 195.639 55.73V55.926H195.219C193.609 55.926 191.089 56.052 191.089 58.222C191.089 59.496 192.195 60.168 193.525 60.168C194.519 60.168 195.247 59.692 195.681 59.02H195.709C195.709 59.3 195.709 59.706 195.779 60H196.829C196.773 59.664 196.731 59.244 196.731 58.866V56.052C196.731 54.204 195.919 53.28 193.987 53.28C193.035 53.28 192.055 53.602 191.383 54.288L192.069 55.002ZM195.639 56.85V57.27C195.611 58.334 194.967 59.244 193.707 59.244C192.881 59.244 192.265 58.936 192.265 58.11C192.265 57.228 193.161 56.85 194.547 56.85H195.639ZM205.265 53.448H204.173V54.568H204.145C203.711 53.7 202.717 53.28 201.835 53.28C199.749 53.28 198.349 54.582 198.349 56.724C198.349 58.656 199.777 60.084 201.835 60.084C202.703 60.084 203.627 59.706 204.145 58.866H204.173V59.706C204.173 61.092 203.655 62.352 201.695 62.352C200.687 62.352 199.945 61.96 199.259 61.218L198.475 62.114C199.399 63.024 200.421 63.36 201.695 63.36C203.991 63.36 205.265 62.072 205.265 59.706V53.448ZM199.525 56.724C199.525 55.352 200.463 54.288 201.835 54.288C203.221 54.288 204.173 55.282 204.173 56.696C204.173 57.956 203.333 59.076 201.835 59.076C200.561 59.076 199.525 58.054 199.525 56.724Z" fill="#5666BC"/>
<path d="M354.336 12H356.1V3.684H359.138V2.088H351.298V3.684H354.336V12ZM360.592 12.056L360.27 12.854C359.99 13.554 359.766 13.848 358.94 13.848C358.646 13.848 358.352 13.778 358.086 13.68L357.876 15.192C358.296 15.304 358.73 15.36 359.164 15.36C360.648 15.36 361.236 14.702 361.726 13.442L364.904 5.28H363.154L361.474 9.942H361.446L359.57 5.28H357.722L360.592 12.056ZM365.892 15.192H367.572V11.146H367.614C367.964 11.58 368.636 12.168 369.896 12.168C371.814 12.168 373.144 10.628 373.144 8.64C373.144 6.652 371.898 5.112 369.826 5.112C368.888 5.112 368.006 5.476 367.516 6.288H367.488V5.28H365.892V15.192ZM371.464 8.64C371.464 9.69 370.722 10.656 369.49 10.656C368.258 10.656 367.516 9.69 367.516 8.64C367.516 7.59 368.258 6.624 369.49 6.624C370.722 6.624 371.464 7.59 371.464 8.64ZM381.179 9.228V8.766C381.179 6.428 379.905 5.112 378.029 5.112C375.999 5.112 374.375 6.526 374.375 8.64C374.375 10.754 375.999 12.168 378.029 12.168C379.093 12.168 380.087 11.79 380.871 10.824L379.667 9.914C379.247 10.432 378.701 10.824 377.861 10.824C376.923 10.824 376.167 10.222 376.055 9.228H381.179ZM376.055 7.968C376.181 7.002 376.797 6.372 377.791 6.372C378.841 6.372 379.485 6.988 379.499 7.968H376.055ZM382.75 11.02C382.75 11.622 383.282 12.084 383.87 12.084C384.486 12.084 384.99 11.594 384.99 10.992C384.99 10.39 384.472 9.928 383.87 9.928C383.254 9.928 382.75 10.418 382.75 11.02ZM382.75 6.274C382.75 6.876 383.282 7.338 383.87 7.338C384.486 7.338 384.99 6.848 384.99 6.246C384.99 5.644 384.472 5.182 383.87 5.182C383.254 5.182 382.75 5.672 382.75 6.274ZM391.189 12H394.885C397.265 12 400.135 10.432 400.135 7.044C400.135 3.684 397.699 2.088 395.095 2.088H391.189V12ZM392.953 10.404V3.684H394.563C396.719 3.684 398.287 4.636 398.287 7.044C398.287 9.452 396.481 10.404 394.269 10.404H392.953ZM408.126 9.228V8.766C408.126 6.428 406.852 5.112 404.976 5.112C402.946 5.112 401.322 6.526 401.322 8.64C401.322 10.754 402.946 12.168 404.976 12.168C406.04 12.168 407.034 11.79 407.818 10.824L406.614 9.914C406.194 10.432 405.648 10.824 404.808 10.824C403.87 10.824 403.114 10.222 403.002 9.228H408.126ZM403.002 7.968C403.128 7.002 403.744 6.372 404.738 6.372C405.788 6.372 406.432 6.988 406.446 7.968H403.002ZM410.299 12H411.979V6.708H413.533V5.28H411.979V4.062C411.979 3.32 412.119 2.676 413.057 2.676C413.295 2.676 413.519 2.718 413.757 2.774L413.869 1.346C413.519 1.276 413.169 1.248 412.805 1.248C410.719 1.248 410.299 2.466 410.299 4.328V5.28H408.913V6.708H410.299V12ZM418.819 12H420.331V8.136C420.331 7.184 420.331 5.112 417.461 5.112C416.397 5.112 415.347 5.434 414.605 6.19L415.487 7.072C415.935 6.652 416.579 6.372 417.279 6.372C418.175 6.372 418.819 6.806 418.819 7.632V7.814H418.399C416.719 7.814 414.171 7.968 414.171 10.152C414.171 11.482 415.375 12.168 416.621 12.168C417.517 12.168 418.301 11.832 418.777 11.076H418.819V12ZM418.721 9.368C418.721 10.306 418.175 10.908 417.027 10.908C416.481 10.908 415.851 10.642 415.851 10.026C415.851 9.06 417.447 8.99 418.371 8.99H418.721V9.368ZM428.27 5.28H426.59V8.948C426.59 9.844 426.156 10.656 425.05 10.656C423.874 10.656 423.818 9.424 423.818 8.682V5.28H422.138V9.522C422.138 10.894 422.782 12.168 424.588 12.168C425.708 12.168 426.338 11.594 426.646 10.922H426.674V12H428.27V5.28ZM430.205 12H431.885V1.416H430.205V12ZM434.416 6.708V9.788C434.416 11.37 434.836 12.168 436.614 12.168C437.006 12.168 437.594 12.112 437.944 11.944V10.53C437.734 10.684 437.328 10.74 437.034 10.74C436.292 10.74 436.096 10.32 436.096 9.648V6.708H437.944V5.28H436.096V3.334H434.416V5.28H433.03V6.708H434.416ZM358.452 19.858C357.682 19.13 356.646 18.836 355.61 18.836C353.776 18.836 351.956 19.788 351.956 21.832C351.956 25.374 356.66 24.128 356.66 26.298C356.66 27.208 355.736 27.656 354.924 27.656C354.14 27.656 353.398 27.278 352.964 26.62L351.634 27.908C352.446 28.874 353.65 29.252 354.882 29.252C356.828 29.252 358.508 28.216 358.508 26.088C358.508 22.56 353.804 23.694 353.804 21.706C353.804 20.796 354.616 20.432 355.428 20.432C356.114 20.432 356.786 20.684 357.164 21.216L358.452 19.858ZM360.793 23.708V26.788C360.793 28.37 361.213 29.168 362.991 29.168C363.383 29.168 363.971 29.112 364.321 28.944V27.53C364.111 27.684 363.705 27.74 363.411 27.74C362.669 27.74 362.473 27.32 362.473 26.648V23.708H364.321V22.28H362.473V20.334H360.793V22.28H359.407V23.708H360.793ZM369.832 29H371.344V25.136C371.344 24.184 371.344 22.112 368.474 22.112C367.41 22.112 366.36 22.434 365.618 23.19L366.5 24.072C366.948 23.652 367.592 23.372 368.292 23.372C369.188 23.372 369.832 23.806 369.832 24.632V24.814H369.412C367.732 24.814 365.184 24.968 365.184 27.152C365.184 28.482 366.388 29.168 367.634 29.168C368.53 29.168 369.314 28.832 369.79 28.076H369.832V29ZM369.734 26.368C369.734 27.306 369.188 27.908 368.04 27.908C367.494 27.908 366.864 27.642 366.864 27.026C366.864 26.06 368.46 25.99 369.384 25.99H369.734V26.368ZM373.754 23.708V26.788C373.754 28.37 374.174 29.168 375.952 29.168C376.344 29.168 376.932 29.112 377.282 28.944V27.53C377.072 27.684 376.666 27.74 376.372 27.74C375.63 27.74 375.434 27.32 375.434 26.648V23.708H377.282V22.28H375.434V20.334H373.754V22.28H372.368V23.708H373.754ZM385.061 26.228V25.766C385.061 23.428 383.787 22.112 381.911 22.112C379.881 22.112 378.257 23.526 378.257 25.64C378.257 27.754 379.881 29.168 381.911 29.168C382.975 29.168 383.969 28.79 384.753 27.824L383.549 26.914C383.129 27.432 382.583 27.824 381.743 27.824C380.805 27.824 380.049 27.222 379.937 26.228H385.061ZM379.937 24.968C380.063 24.002 380.679 23.372 381.673 23.372C382.723 23.372 383.367 23.988 383.381 24.968H379.937ZM391.336 23.134C390.79 22.392 389.838 22.112 388.942 22.112C387.584 22.112 386.24 22.784 386.24 24.282C386.24 26.844 389.866 25.752 389.866 27.138C389.866 27.67 389.236 27.908 388.746 27.908C388.032 27.908 387.584 27.558 387.15 27.082L386.03 28.132C386.716 28.902 387.612 29.168 388.648 29.168C390.02 29.168 391.546 28.608 391.546 27.012C391.546 24.394 387.92 25.374 387.92 24.17C387.92 23.666 388.452 23.456 388.9 23.456C389.474 23.456 389.894 23.694 390.216 24.142L391.336 23.134ZM392.853 28.02C392.853 28.622 393.385 29.084 393.973 29.084C394.589 29.084 395.093 28.594 395.093 27.992C395.093 27.39 394.575 26.928 393.973 26.928C393.357 26.928 392.853 27.418 392.853 28.02ZM392.853 23.274C392.853 23.876 393.385 24.338 393.973 24.338C394.589 24.338 395.093 23.848 395.093 23.246C395.093 22.644 394.575 22.182 393.973 22.182C393.357 22.182 392.853 22.672 392.853 23.274ZM410.098 23.204H406.304V24.8H408.334V27.138C407.718 27.488 406.906 27.656 406.01 27.656C403.966 27.656 402.608 26.088 402.608 23.974C402.608 22 403.966 20.432 406.01 20.432C407.004 20.432 407.97 20.782 408.6 21.398L409.902 20.082C408.866 19.158 407.508 18.836 405.996 18.836C402.944 18.836 400.76 20.908 400.76 24.086C400.76 27.18 402.944 29.252 405.996 29.252C407.522 29.252 408.894 28.916 410.098 28.272V23.204ZM412.035 29H413.715V25.402C413.715 25.038 413.939 23.708 415.521 23.708C415.787 23.708 416.053 23.764 416.333 23.834V22.21C416.137 22.154 415.941 22.112 415.731 22.112C414.849 22.112 414.107 22.574 413.743 23.344H413.715V22.28H412.035V29ZM421.676 29H423.188V25.136C423.188 24.184 423.188 22.112 420.318 22.112C419.254 22.112 418.204 22.434 417.462 23.19L418.344 24.072C418.792 23.652 419.436 23.372 420.136 23.372C421.032 23.372 421.676 23.806 421.676 24.632V24.814H421.256C419.576 24.814 417.028 24.968 417.028 27.152C417.028 28.482 418.232 29.168 419.478 29.168C420.374 29.168 421.158 28.832 421.634 28.076H421.676V29ZM421.578 26.368C421.578 27.306 421.032 27.908 419.884 27.908C419.338 27.908 418.708 27.642 418.708 27.026C418.708 26.06 420.304 25.99 421.228 25.99H421.578V26.368ZM426.956 29.056L426.634 29.854C426.354 30.554 426.13 30.848 425.304 30.848C425.01 30.848 424.716 30.778 424.45 30.68L424.24 32.192C424.66 32.304 425.094 32.36 425.528 32.36C427.012 32.36 427.6 31.702 428.09 30.442L431.268 22.28H429.518L427.838 26.942H427.81L425.934 22.28H424.086L426.956 29.056Z" fill="black"/>
<rect x="351.2" y="44" width="39" height="25" rx="8" fill="#FAFAFA"/>
<path d="M367.433 50.088H359.705V51.18H362.981V60H364.157V51.18H367.433V50.088ZM367.669 55.002C368.187 54.526 368.915 54.288 369.615 54.288C370.637 54.288 371.239 54.778 371.239 55.73V55.926H370.819C369.209 55.926 366.689 56.052 366.689 58.222C366.689 59.496 367.795 60.168 369.125 60.168C370.119 60.168 370.847 59.692 371.281 59.02H371.309C371.309 59.3 371.309 59.706 371.379 60H372.429C372.373 59.664 372.331 59.244 372.331 58.866V56.052C372.331 54.204 371.519 53.28 369.587 53.28C368.635 53.28 367.655 53.602 366.983 54.288L367.669 55.002ZM371.239 56.85V57.27C371.211 58.334 370.567 59.244 369.307 59.244C368.481 59.244 367.865 58.936 367.865 58.11C367.865 57.228 368.761 56.85 370.147 56.85H371.239ZM380.865 53.448H379.773V54.568H379.745C379.311 53.7 378.317 53.28 377.435 53.28C375.349 53.28 373.949 54.582 373.949 56.724C373.949 58.656 375.377 60.084 377.435 60.084C378.303 60.084 379.227 59.706 379.745 58.866H379.773V59.706C379.773 61.092 379.255 62.352 377.295 62.352C376.287 62.352 375.545 61.96 374.859 61.218L374.075 62.114C374.999 63.024 376.021 63.36 377.295 63.36C379.591 63.36 380.865 62.072 380.865 59.706V53.448ZM375.125 56.724C375.125 55.352 376.063 54.288 377.435 54.288C378.821 54.288 379.773 55.282 379.773 56.696C379.773 57.956 378.933 59.076 377.435 59.076C376.161 59.076 375.125 58.054 375.125 56.724Z" fill="#6B778C"/>
<path d="M529.936 12H531.7V3.684H534.738V2.088H526.898V3.684H529.936V12ZM536.193 12.056L535.871 12.854C535.591 13.554 535.367 13.848 534.541 13.848C534.247 13.848 533.953 13.778 533.687 13.68L533.477 15.192C533.897 15.304 534.331 15.36 534.765 15.36C536.249 15.36 536.837 14.702 537.327 13.442L540.505 5.28H538.755L537.075 9.942H537.047L535.171 5.28H533.323L536.193 12.056ZM541.492 15.192H543.172V11.146H543.214C543.564 11.58 544.236 12.168 545.496 12.168C547.414 12.168 548.744 10.628 548.744 8.64C548.744 6.652 547.498 5.112 545.426 5.112C544.488 5.112 543.606 5.476 543.116 6.288H543.088V5.28H541.492V15.192ZM547.064 8.64C547.064 9.69 546.322 10.656 545.09 10.656C543.858 10.656 543.116 9.69 543.116 8.64C543.116 7.59 543.858 6.624 545.09 6.624C546.322 6.624 547.064 7.59 547.064 8.64ZM556.779 9.228V8.766C556.779 6.428 555.505 5.112 553.629 5.112C551.599 5.112 549.975 6.526 549.975 8.64C549.975 10.754 551.599 12.168 553.629 12.168C554.693 12.168 555.687 11.79 556.471 10.824L555.267 9.914C554.847 10.432 554.301 10.824 553.461 10.824C552.523 10.824 551.767 10.222 551.655 9.228H556.779ZM551.655 7.968C551.781 7.002 552.397 6.372 553.391 6.372C554.441 6.372 555.085 6.988 555.099 7.968H551.655ZM558.35 11.02C558.35 11.622 558.882 12.084 559.47 12.084C560.086 12.084 560.59 11.594 560.59 10.992C560.59 10.39 560.072 9.928 559.47 9.928C558.854 9.928 558.35 10.418 558.35 11.02ZM558.35 6.274C558.35 6.876 558.882 7.338 559.47 7.338C560.086 7.338 560.59 6.848 560.59 6.246C560.59 5.644 560.072 5.182 559.47 5.182C558.854 5.182 558.35 5.672 558.35 6.274ZM566.789 12H570.485C572.865 12 575.735 10.432 575.735 7.044C575.735 3.684 573.299 2.088 570.695 2.088H566.789V12ZM568.553 10.404V3.684H570.163C572.319 3.684 573.887 4.636 573.887 7.044C573.887 9.452 572.081 10.404 569.869 10.404H568.553ZM583.726 9.228V8.766C583.726 6.428 582.452 5.112 580.576 5.112C578.546 5.112 576.922 6.526 576.922 8.64C576.922 10.754 578.546 12.168 580.576 12.168C581.64 12.168 582.634 11.79 583.418 10.824L582.214 9.914C581.794 10.432 581.248 10.824 580.408 10.824C579.47 10.824 578.714 10.222 578.602 9.228H583.726ZM578.602 7.968C578.728 7.002 579.344 6.372 580.338 6.372C581.388 6.372 582.032 6.988 582.046 7.968H578.602ZM585.899 12H587.579V6.708H589.133V5.28H587.579V4.062C587.579 3.32 587.719 2.676 588.657 2.676C588.895 2.676 589.119 2.718 589.357 2.774L589.469 1.346C589.119 1.276 588.769 1.248 588.405 1.248C586.319 1.248 585.899 2.466 585.899 4.328V5.28H584.513V6.708H585.899V12ZM594.419 12H595.931V8.136C595.931 7.184 595.931 5.112 593.061 5.112C591.997 5.112 590.947 5.434 590.205 6.19L591.087 7.072C591.535 6.652 592.179 6.372 592.879 6.372C593.775 6.372 594.419 6.806 594.419 7.632V7.814H593.999C592.319 7.814 589.771 7.968 589.771 10.152C589.771 11.482 590.975 12.168 592.221 12.168C593.117 12.168 593.901 11.832 594.377 11.076H594.419V12ZM594.321 9.368C594.321 10.306 593.775 10.908 592.627 10.908C592.081 10.908 591.451 10.642 591.451 10.026C591.451 9.06 593.047 8.99 593.971 8.99H594.321V9.368ZM603.87 5.28H602.19V8.948C602.19 9.844 601.756 10.656 600.65 10.656C599.474 10.656 599.418 9.424 599.418 8.682V5.28H597.738V9.522C597.738 10.894 598.382 12.168 600.188 12.168C601.308 12.168 601.938 11.594 602.246 10.922H602.274V12H603.87V5.28ZM605.805 12H607.485V1.416H605.805V12ZM610.016 6.708V9.788C610.016 11.37 610.436 12.168 612.214 12.168C612.606 12.168 613.194 12.112 613.544 11.944V10.53C613.334 10.684 612.928 10.74 612.634 10.74C611.892 10.74 611.696 10.32 611.696 9.648V6.708H613.544V5.28H611.696V3.334H610.016V5.28H608.63V6.708H610.016ZM534.052 19.858C533.282 19.13 532.246 18.836 531.21 18.836C529.376 18.836 527.556 19.788 527.556 21.832C527.556 25.374 532.26 24.128 532.26 26.298C532.26 27.208 531.336 27.656 530.524 27.656C529.74 27.656 528.998 27.278 528.564 26.62L527.234 27.908C528.046 28.874 529.25 29.252 530.482 29.252C532.428 29.252 534.108 28.216 534.108 26.088C534.108 22.56 529.404 23.694 529.404 21.706C529.404 20.796 530.216 20.432 531.028 20.432C531.714 20.432 532.386 20.684 532.764 21.216L534.052 19.858ZM536.393 23.708V26.788C536.393 28.37 536.813 29.168 538.591 29.168C538.983 29.168 539.571 29.112 539.921 28.944V27.53C539.711 27.684 539.305 27.74 539.011 27.74C538.269 27.74 538.073 27.32 538.073 26.648V23.708H539.921V22.28H538.073V20.334H536.393V22.28H535.007V23.708H536.393ZM545.433 29H546.945V25.136C546.945 24.184 546.945 22.112 544.075 22.112C543.011 22.112 541.961 22.434 541.219 23.19L542.101 24.072C542.549 23.652 543.193 23.372 543.893 23.372C544.789 23.372 545.433 23.806 545.433 24.632V24.814H545.013C543.333 24.814 540.785 24.968 540.785 27.152C540.785 28.482 541.989 29.168 543.235 29.168C544.131 29.168 544.915 28.832 545.391 28.076H545.433V29ZM545.335 26.368C545.335 27.306 544.789 27.908 543.641 27.908C543.095 27.908 542.465 27.642 542.465 27.026C542.465 26.06 544.061 25.99 544.985 25.99H545.335V26.368ZM549.354 23.708V26.788C549.354 28.37 549.774 29.168 551.552 29.168C551.944 29.168 552.532 29.112 552.882 28.944V27.53C552.672 27.684 552.266 27.74 551.972 27.74C551.23 27.74 551.034 27.32 551.034 26.648V23.708H552.882V22.28H551.034V20.334H549.354V22.28H547.968V23.708H549.354ZM560.661 26.228V25.766C560.661 23.428 559.387 22.112 557.511 22.112C555.481 22.112 553.857 23.526 553.857 25.64C553.857 27.754 555.481 29.168 557.511 29.168C558.575 29.168 559.569 28.79 560.353 27.824L559.149 26.914C558.729 27.432 558.183 27.824 557.343 27.824C556.405 27.824 555.649 27.222 555.537 26.228H560.661ZM555.537 24.968C555.663 24.002 556.279 23.372 557.273 23.372C558.323 23.372 558.967 23.988 558.981 24.968H555.537ZM566.937 23.134C566.391 22.392 565.439 22.112 564.543 22.112C563.185 22.112 561.841 22.784 561.841 24.282C561.841 26.844 565.467 25.752 565.467 27.138C565.467 27.67 564.837 27.908 564.347 27.908C563.633 27.908 563.185 27.558 562.751 27.082L561.631 28.132C562.317 28.902 563.213 29.168 564.249 29.168C565.621 29.168 567.147 28.608 567.147 27.012C567.147 24.394 563.521 25.374 563.521 24.17C563.521 23.666 564.053 23.456 564.501 23.456C565.075 23.456 565.495 23.694 565.817 24.142L566.937 23.134ZM568.453 28.02C568.453 28.622 568.985 29.084 569.573 29.084C570.189 29.084 570.693 28.594 570.693 27.992C570.693 27.39 570.175 26.928 569.573 26.928C568.957 26.928 568.453 27.418 568.453 28.02ZM568.453 23.274C568.453 23.876 568.985 24.338 569.573 24.338C570.189 24.338 570.693 23.848 570.693 23.246C570.693 22.644 570.175 22.182 569.573 22.182C568.957 22.182 568.453 22.672 568.453 23.274ZM576.36 24.086C576.36 27.18 578.544 29.252 581.596 29.252C584.69 29.196 586.874 27.124 586.874 24.03C586.874 20.852 584.69 18.78 581.596 18.836C578.544 18.836 576.36 20.908 576.36 24.086ZM578.208 23.974C578.208 22 579.566 20.432 581.61 20.432C583.668 20.432 585.026 22 585.026 23.974C585.026 26.088 583.668 27.656 581.61 27.656C579.566 27.656 578.208 26.088 578.208 23.974ZM588.4 29H590.08V25.402C590.08 25.038 590.304 23.708 591.886 23.708C592.152 23.708 592.418 23.764 592.698 23.834V22.21C592.502 22.154 592.306 22.112 592.096 22.112C591.214 22.112 590.472 22.574 590.108 23.344H590.08V22.28H588.4V29ZM598.042 29H599.554V25.136C599.554 24.184 599.554 22.112 596.684 22.112C595.62 22.112 594.57 22.434 593.828 23.19L594.71 24.072C595.158 23.652 595.802 23.372 596.502 23.372C597.398 23.372 598.042 23.806 598.042 24.632V24.814H597.622C595.942 24.814 593.394 24.968 593.394 27.152C593.394 28.482 594.598 29.168 595.844 29.168C596.74 29.168 597.524 28.832 598 28.076H598.042V29ZM597.944 26.368C597.944 27.306 597.398 27.908 596.25 27.908C595.704 27.908 595.074 27.642 595.074 27.026C595.074 26.06 596.67 25.99 597.594 25.99H597.944V26.368ZM601.361 29H603.041V25.332C603.041 24.436 603.475 23.624 604.581 23.624C605.757 23.624 605.813 24.856 605.813 25.598V29H607.493V24.758C607.493 23.386 606.849 22.112 605.043 22.112C603.923 22.112 603.293 22.686 602.985 23.358H602.957V22.28H601.361V29ZM614.72 22.28V23.288H614.692C614.202 22.476 613.32 22.112 612.382 22.112C610.31 22.112 609.064 23.652 609.064 25.64C609.064 27.544 610.394 29.084 612.41 29.084C613.25 29.084 614.118 28.762 614.608 28.104H614.636V28.594C614.636 29.924 614.132 30.848 612.508 30.848C611.57 30.848 610.87 30.498 610.198 29.882L609.19 31.254C610.142 32.094 611.276 32.36 612.522 32.36C615.14 32.36 616.316 30.82 616.316 28.398V22.28H614.72ZM612.732 23.624C613.95 23.624 614.72 24.436 614.72 25.598C614.72 26.718 613.964 27.572 612.718 27.572C611.584 27.572 610.744 26.69 610.744 25.626C610.744 24.436 611.556 23.624 612.732 23.624ZM624.687 26.228V25.766C624.687 23.428 623.413 22.112 621.537 22.112C619.507 22.112 617.883 23.526 617.883 25.64C617.883 27.754 619.507 29.168 621.537 29.168C622.601 29.168 623.595 28.79 624.379 27.824L623.175 26.914C622.755 27.432 622.209 27.824 621.369 27.824C620.431 27.824 619.675 27.222 619.563 26.228H624.687ZM619.563 24.968C619.689 24.002 620.305 23.372 621.299 23.372C622.349 23.372 622.993 23.988 623.007 24.968H619.563Z" fill="black"/>
<rect x="526.8" y="44" width="39" height="25" rx="8" fill="#FFF4EC"/>
<path d="M543.033 50.088H535.305V51.18H538.581V60H539.757V51.18H543.033V50.088ZM543.269 55.002C543.787 54.526 544.515 54.288 545.215 54.288C546.237 54.288 546.839 54.778 546.839 55.73V55.926H546.419C544.809 55.926 542.289 56.052 542.289 58.222C542.289 59.496 543.395 60.168 544.725 60.168C545.719 60.168 546.447 59.692 546.881 59.02H546.909C546.909 59.3 546.909 59.706 546.979 60H548.029C547.973 59.664 547.931 59.244 547.931 58.866V56.052C547.931 54.204 547.119 53.28 545.187 53.28C544.235 53.28 543.255 53.602 542.583 54.288L543.269 55.002ZM546.839 56.85V57.27C546.811 58.334 546.167 59.244 544.907 59.244C544.081 59.244 543.465 58.936 543.465 58.11C543.465 57.228 544.361 56.85 545.747 56.85H546.839ZM556.465 53.448H555.373V54.568H555.345C554.911 53.7 553.917 53.28 553.035 53.28C550.949 53.28 549.549 54.582 549.549 56.724C549.549 58.656 550.977 60.084 553.035 60.084C553.903 60.084 554.827 59.706 555.345 58.866H555.373V59.706C555.373 61.092 554.855 62.352 552.895 62.352C551.887 62.352 551.145 61.96 550.459 61.218L549.675 62.114C550.599 63.024 551.621 63.36 552.895 63.36C555.191 63.36 556.465 62.072 556.465 59.706V53.448ZM550.725 56.724C550.725 55.352 551.663 54.288 553.035 54.288C554.421 54.288 555.373 55.282 555.373 56.696C555.373 57.956 554.533 59.076 553.035 59.076C551.761 59.076 550.725 58.054 550.725 56.724Z" fill="#FE7355"/>
<path d="M705.536 12H707.3V3.684H710.338V2.088H702.498V3.684H705.536V12ZM711.792 12.056L711.47 12.854C711.19 13.554 710.966 13.848 710.14 13.848C709.846 13.848 709.552 13.778 709.286 13.68L709.076 15.192C709.496 15.304 709.93 15.36 710.364 15.36C711.848 15.36 712.436 14.702 712.926 13.442L716.104 5.28H714.354L712.674 9.942H712.646L710.77 5.28H708.922L711.792 12.056ZM717.092 15.192H718.772V11.146H718.814C719.164 11.58 719.836 12.168 721.096 12.168C723.014 12.168 724.344 10.628 724.344 8.64C724.344 6.652 723.098 5.112 721.026 5.112C720.088 5.112 719.206 5.476 718.716 6.288H718.688V5.28H717.092V15.192ZM722.664 8.64C722.664 9.69 721.922 10.656 720.69 10.656C719.458 10.656 718.716 9.69 718.716 8.64C718.716 7.59 719.458 6.624 720.69 6.624C721.922 6.624 722.664 7.59 722.664 8.64ZM732.378 9.228V8.766C732.378 6.428 731.104 5.112 729.228 5.112C727.198 5.112 725.574 6.526 725.574 8.64C725.574 10.754 727.198 12.168 729.228 12.168C730.292 12.168 731.286 11.79 732.07 10.824L730.866 9.914C730.446 10.432 729.9 10.824 729.06 10.824C728.122 10.824 727.366 10.222 727.254 9.228H732.378ZM727.254 7.968C727.38 7.002 727.996 6.372 728.99 6.372C730.04 6.372 730.684 6.988 730.698 7.968H727.254ZM733.95 11.02C733.95 11.622 734.482 12.084 735.07 12.084C735.686 12.084 736.19 11.594 736.19 10.992C736.19 10.39 735.672 9.928 735.07 9.928C734.454 9.928 733.95 10.418 733.95 11.02ZM733.95 6.274C733.95 6.876 734.482 7.338 735.07 7.338C735.686 7.338 736.19 6.848 736.19 6.246C736.19 5.644 735.672 5.182 735.07 5.182C734.454 5.182 733.95 5.672 733.95 6.274ZM742.389 12H746.085C748.465 12 751.335 10.432 751.335 7.044C751.335 3.684 748.899 2.088 746.295 2.088H742.389V12ZM744.153 10.404V3.684H745.763C747.919 3.684 749.487 4.636 749.487 7.044C749.487 9.452 747.681 10.404 745.469 10.404H744.153ZM759.326 9.228V8.766C759.326 6.428 758.052 5.112 756.176 5.112C754.146 5.112 752.522 6.526 752.522 8.64C752.522 10.754 754.146 12.168 756.176 12.168C757.24 12.168 758.234 11.79 759.018 10.824L757.814 9.914C757.394 10.432 756.848 10.824 756.008 10.824C755.07 10.824 754.314 10.222 754.202 9.228H759.326ZM754.202 7.968C754.328 7.002 754.944 6.372 755.938 6.372C756.988 6.372 757.632 6.988 757.646 7.968H754.202ZM761.499 12H763.179V6.708H764.733V5.28H763.179V4.062C763.179 3.32 763.319 2.676 764.257 2.676C764.495 2.676 764.719 2.718 764.957 2.774L765.069 1.346C764.719 1.276 764.369 1.248 764.005 1.248C761.919 1.248 761.499 2.466 761.499 4.328V5.28H760.113V6.708H761.499V12ZM770.019 12H771.531V8.136C771.531 7.184 771.531 5.112 768.661 5.112C767.597 5.112 766.547 5.434 765.805 6.19L766.687 7.072C767.135 6.652 767.779 6.372 768.479 6.372C769.375 6.372 770.019 6.806 770.019 7.632V7.814H769.599C767.919 7.814 765.371 7.968 765.371 10.152C765.371 11.482 766.575 12.168 767.821 12.168C768.717 12.168 769.501 11.832 769.977 11.076H770.019V12ZM769.921 9.368C769.921 10.306 769.375 10.908 768.227 10.908C767.681 10.908 767.051 10.642 767.051 10.026C767.051 9.06 768.647 8.99 769.571 8.99H769.921V9.368ZM779.47 5.28H777.79V8.948C777.79 9.844 777.356 10.656 776.25 10.656C775.074 10.656 775.018 9.424 775.018 8.682V5.28H773.338V9.522C773.338 10.894 773.982 12.168 775.788 12.168C776.908 12.168 777.538 11.594 777.846 10.922H777.874V12H779.47V5.28ZM781.405 12H783.085V1.416H781.405V12ZM785.616 6.708V9.788C785.616 11.37 786.036 12.168 787.814 12.168C788.206 12.168 788.794 12.112 789.144 11.944V10.53C788.934 10.684 788.528 10.74 788.234 10.74C787.492 10.74 787.296 10.32 787.296 9.648V6.708H789.144V5.28H787.296V3.334H785.616V5.28H784.23V6.708H785.616ZM709.652 19.858C708.882 19.13 707.846 18.836 706.81 18.836C704.976 18.836 703.156 19.788 703.156 21.832C703.156 25.374 707.86 24.128 707.86 26.298C707.86 27.208 706.936 27.656 706.124 27.656C705.34 27.656 704.598 27.278 704.164 26.62L702.834 27.908C703.646 28.874 704.85 29.252 706.082 29.252C708.028 29.252 709.708 28.216 709.708 26.088C709.708 22.56 705.004 23.694 705.004 21.706C705.004 20.796 705.816 20.432 706.628 20.432C707.314 20.432 707.986 20.684 708.364 21.216L709.652 19.858ZM711.993 23.708V26.788C711.993 28.37 712.413 29.168 714.191 29.168C714.583 29.168 715.171 29.112 715.521 28.944V27.53C715.311 27.684 714.905 27.74 714.611 27.74C713.869 27.74 713.673 27.32 713.673 26.648V23.708H715.521V22.28H713.673V20.334H711.993V22.28H710.607V23.708H711.993ZM721.032 29H722.544V25.136C722.544 24.184 722.544 22.112 719.674 22.112C718.61 22.112 717.56 22.434 716.818 23.19L717.7 24.072C718.148 23.652 718.792 23.372 719.492 23.372C720.388 23.372 721.032 23.806 721.032 24.632V24.814H720.612C718.932 24.814 716.384 24.968 716.384 27.152C716.384 28.482 717.588 29.168 718.834 29.168C719.73 29.168 720.514 28.832 720.99 28.076H721.032V29ZM720.934 26.368C720.934 27.306 720.388 27.908 719.24 27.908C718.694 27.908 718.064 27.642 718.064 27.026C718.064 26.06 719.66 25.99 720.584 25.99H720.934V26.368ZM724.954 23.708V26.788C724.954 28.37 725.374 29.168 727.152 29.168C727.544 29.168 728.132 29.112 728.482 28.944V27.53C728.272 27.684 727.866 27.74 727.572 27.74C726.83 27.74 726.634 27.32 726.634 26.648V23.708H728.482V22.28H726.634V20.334H724.954V22.28H723.568V23.708H724.954ZM736.261 26.228V25.766C736.261 23.428 734.987 22.112 733.111 22.112C731.081 22.112 729.457 23.526 729.457 25.64C729.457 27.754 731.081 29.168 733.111 29.168C734.175 29.168 735.169 28.79 735.953 27.824L734.749 26.914C734.329 27.432 733.783 27.824 732.943 27.824C732.005 27.824 731.249 27.222 731.137 26.228H736.261ZM731.137 24.968C731.263 24.002 731.879 23.372 732.873 23.372C733.923 23.372 734.567 23.988 734.581 24.968H731.137ZM742.536 23.134C741.99 22.392 741.038 22.112 740.142 22.112C738.784 22.112 737.44 22.784 737.44 24.282C737.44 26.844 741.066 25.752 741.066 27.138C741.066 27.67 740.436 27.908 739.946 27.908C739.232 27.908 738.784 27.558 738.35 27.082L737.23 28.132C737.916 28.902 738.812 29.168 739.848 29.168C741.22 29.168 742.746 28.608 742.746 27.012C742.746 24.394 739.12 25.374 739.12 24.17C739.12 23.666 739.652 23.456 740.1 23.456C740.674 23.456 741.094 23.694 741.416 24.142L742.536 23.134ZM744.053 28.02C744.053 28.622 744.585 29.084 745.173 29.084C745.789 29.084 746.293 28.594 746.293 27.992C746.293 27.39 745.775 26.928 745.173 26.928C744.557 26.928 744.053 27.418 744.053 28.02ZM744.053 23.274C744.053 23.876 744.585 24.338 745.173 24.338C745.789 24.338 746.293 23.848 746.293 23.246C746.293 22.644 745.775 22.182 745.173 22.182C744.557 22.182 744.053 22.672 744.053 23.274ZM752.492 29H754.256V24.8H755.544L757.84 29H759.968L757.336 24.618C758.806 24.408 759.632 23.358 759.632 21.93C759.632 19.704 757.84 19.088 755.936 19.088H752.492V29ZM754.256 23.288V20.6H755.782C756.692 20.6 757.784 20.74 757.784 21.916C757.784 23.204 756.622 23.288 755.628 23.288H754.256ZM767.625 26.228V25.766C767.625 23.428 766.351 22.112 764.475 22.112C762.445 22.112 760.821 23.526 760.821 25.64C760.821 27.754 762.445 29.168 764.475 29.168C765.539 29.168 766.533 28.79 767.317 27.824L766.113 26.914C765.693 27.432 765.147 27.824 764.307 27.824C763.369 27.824 762.613 27.222 762.501 26.228H767.625ZM762.501 24.968C762.627 24.002 763.243 23.372 764.237 23.372C765.287 23.372 765.931 23.988 765.945 24.968H762.501ZM774.516 29H776.112V18.416H774.432V23.134H774.39C774.04 22.7 773.368 22.112 772.108 22.112C770.19 22.112 768.86 23.652 768.86 25.64C768.86 27.628 770.106 29.168 772.178 29.168C773.116 29.168 773.998 28.804 774.488 27.992H774.516V29ZM770.54 25.64C770.54 24.59 771.282 23.624 772.514 23.624C773.746 23.624 774.488 24.59 774.488 25.64C774.488 26.69 773.746 27.656 772.514 27.656C771.282 27.656 770.54 26.69 770.54 25.64Z" fill="black"/>
<rect x="702.4" y="44" width="39" height="25" rx="8" fill="#FEEFEF"/>
<path d="M718.632 50.088H710.904V51.18H714.18V60H715.356V51.18H718.632V50.088ZM718.869 55.002C719.387 54.526 720.115 54.288 720.815 54.288C721.837 54.288 722.439 54.778 722.439 55.73V55.926H722.019C720.409 55.926 717.889 56.052 717.889 58.222C717.889 59.496 718.995 60.168 720.325 60.168C721.319 60.168 722.047 59.692 722.481 59.02H722.509C722.509 59.3 722.509 59.706 722.579 60H723.629C723.573 59.664 723.531 59.244 723.531 58.866V56.052C723.531 54.204 722.719 53.28 720.787 53.28C719.835 53.28 718.855 53.602 718.183 54.288L718.869 55.002ZM722.439 56.85V57.27C722.411 58.334 721.767 59.244 720.507 59.244C719.681 59.244 719.065 58.936 719.065 58.11C719.065 57.228 719.961 56.85 721.347 56.85H722.439ZM732.065 53.448H730.973V54.568H730.945C730.511 53.7 729.517 53.28 728.635 53.28C726.549 53.28 725.149 54.582 725.149 56.724C725.149 58.656 726.577 60.084 728.635 60.084C729.503 60.084 730.427 59.706 730.945 58.866H730.973V59.706C730.973 61.092 730.455 62.352 728.495 62.352C727.487 62.352 726.745 61.96 726.059 61.218L725.275 62.114C726.199 63.024 727.221 63.36 728.495 63.36C730.791 63.36 732.065 62.072 732.065 59.706V53.448ZM726.325 56.724C726.325 55.352 727.263 54.288 728.635 54.288C730.021 54.288 730.973 55.282 730.973 56.696C730.973 57.956 730.133 59.076 728.635 59.076C727.361 59.076 726.325 58.054 726.325 56.724Z" fill="#DB3259"/>
<path d="M3.136 97H4.9V88.684H7.938V87.088H0.098V88.684H3.136V97ZM9.39247 97.056L9.07047 97.854C8.79047 98.554 8.56647 98.848 7.74047 98.848C7.44647 98.848 7.15247 98.778 6.88647 98.68L6.67647 100.192C7.09647 100.304 7.53047 100.36 7.96447 100.36C9.44847 100.36 10.0365 99.702 10.5265 98.442L13.7045 90.28H11.9545L10.2745 94.942H10.2465L8.37047 90.28H6.52247L9.39247 97.056ZM14.6922 100.192H16.3722V96.146H16.4142C16.7642 96.58 17.4362 97.168 18.6962 97.168C20.6142 97.168 21.9442 95.628 21.9442 93.64C21.9442 91.652 20.6982 90.112 18.6262 90.112C17.6882 90.112 16.8062 90.476 16.3162 91.288H16.2882V90.28H14.6922V100.192ZM20.2642 93.64C20.2642 94.69 19.5222 95.656 18.2902 95.656C17.0582 95.656 16.3162 94.69 16.3162 93.64C16.3162 92.59 17.0582 91.624 18.2902 91.624C19.5222 91.624 20.2642 92.59 20.2642 93.64ZM29.9786 94.228V93.766C29.9786 91.428 28.7046 90.112 26.8286 90.112C24.7986 90.112 23.1746 91.526 23.1746 93.64C23.1746 95.754 24.7986 97.168 26.8286 97.168C27.8926 97.168 28.8866 96.79 29.6706 95.824L28.4666 94.914C28.0466 95.432 27.5006 95.824 26.6606 95.824C25.7226 95.824 24.9666 95.222 24.8546 94.228H29.9786ZM24.8546 92.968C24.9806 92.002 25.5966 91.372 26.5906 91.372C27.6406 91.372 28.2846 91.988 28.2986 92.968H24.8546ZM31.5497 96.02C31.5497 96.622 32.0817 97.084 32.6697 97.084C33.2857 97.084 33.7897 96.594 33.7897 95.992C33.7897 95.39 33.2717 94.928 32.6697 94.928C32.0537 94.928 31.5497 95.418 31.5497 96.02ZM31.5497 91.274C31.5497 91.876 32.0817 92.338 32.6697 92.338C33.2857 92.338 33.7897 91.848 33.7897 91.246C33.7897 90.644 33.2717 90.182 32.6697 90.182C32.0537 90.182 31.5497 90.672 31.5497 91.274ZM39.9888 97H43.6848C46.0648 97 48.9348 95.432 48.9348 92.044C48.9348 88.684 46.4988 87.088 43.8948 87.088H39.9888V97ZM41.7528 95.404V88.684H43.3628C45.5188 88.684 47.0868 89.636 47.0868 92.044C47.0868 94.452 45.2808 95.404 43.0688 95.404H41.7528ZM54.6579 97H56.1699V93.136C56.1699 92.184 56.1699 90.112 53.2999 90.112C52.2359 90.112 51.1859 90.434 50.4439 91.19L51.3259 92.072C51.7739 91.652 52.4179 91.372 53.1179 91.372C54.0139 91.372 54.6579 91.806 54.6579 92.632V92.814H54.2379C52.5579 92.814 50.0099 92.968 50.0099 95.152C50.0099 96.482 51.2139 97.168 52.4599 97.168C53.3559 97.168 54.1399 96.832 54.6159 96.076H54.6579V97ZM54.5599 94.368C54.5599 95.306 54.0139 95.908 52.8659 95.908C52.3199 95.908 51.6899 95.642 51.6899 95.026C51.6899 94.06 53.2859 93.99 54.2099 93.99H54.5599V94.368ZM57.9774 97H59.6574V93.402C59.6574 93.038 59.8814 91.708 61.4634 91.708C61.7294 91.708 61.9954 91.764 62.2754 91.834V90.21C62.0794 90.154 61.8834 90.112 61.6734 90.112C60.7914 90.112 60.0494 90.574 59.6854 91.344H59.6574V90.28H57.9774V97ZM63.4188 97H65.0988V93.57H65.1268L67.8008 97H70.0268L66.9608 93.332L69.8448 90.28H67.6888L65.0988 93.066V86.416H63.4188V97ZM7.252 104.858C6.482 104.13 5.446 103.836 4.41 103.836C2.576 103.836 0.756 104.788 0.756 106.832C0.756 110.374 5.46 109.128 5.46 111.298C5.46 112.208 4.536 112.656 3.724 112.656C2.94 112.656 2.198 112.278 1.764 111.62L0.434 112.908C1.246 113.874 2.45 114.252 3.682 114.252C5.628 114.252 7.308 113.216 7.308 111.088C7.308 107.56 2.604 108.694 2.604 106.706C2.604 105.796 3.416 105.432 4.228 105.432C4.914 105.432 5.586 105.684 5.964 106.216L7.252 104.858ZM9.59306 108.708V111.788C9.59306 113.37 10.0131 114.168 11.7911 114.168C12.1831 114.168 12.7711 114.112 13.1211 113.944V112.53C12.9111 112.684 12.5051 112.74 12.2111 112.74C11.4691 112.74 11.2731 112.32 11.2731 111.648V108.708H13.1211V107.28H11.2731V105.334H9.59306V107.28H8.20706V108.708H9.59306ZM18.6325 114H20.1445V110.136C20.1445 109.184 20.1445 107.112 17.2745 107.112C16.2105 107.112 15.1605 107.434 14.4185 108.19L15.3005 109.072C15.7485 108.652 16.3925 108.372 17.0925 108.372C17.9885 108.372 18.6325 108.806 18.6325 109.632V109.814H18.2125C16.5325 109.814 13.9845 109.968 13.9845 112.152C13.9845 113.482 15.1885 114.168 16.4345 114.168C17.3305 114.168 18.1145 113.832 18.5905 113.076H18.6325V114ZM18.5345 111.368C18.5345 112.306 17.9885 112.908 16.8405 112.908C16.2945 112.908 15.6645 112.642 15.6645 112.026C15.6645 111.06 17.2605 110.99 18.1845 110.99H18.5345V111.368ZM22.554 108.708V111.788C22.554 113.37 22.974 114.168 24.752 114.168C25.144 114.168 25.732 114.112 26.082 113.944V112.53C25.872 112.684 25.466 112.74 25.172 112.74C24.43 112.74 24.234 112.32 24.234 111.648V108.708H26.082V107.28H24.234V105.334H22.554V107.28H21.168V108.708H22.554ZM33.8614 111.228V110.766C33.8614 108.428 32.5874 107.112 30.7114 107.112C28.6814 107.112 27.0574 108.526 27.0574 110.64C27.0574 112.754 28.6814 114.168 30.7114 114.168C31.7754 114.168 32.7694 113.79 33.5534 112.824L32.3494 111.914C31.9294 112.432 31.3834 112.824 30.5434 112.824C29.6054 112.824 28.8494 112.222 28.7374 111.228H33.8614ZM28.7374 109.968C28.8634 109.002 29.4794 108.372 30.4734 108.372C31.5234 108.372 32.1674 108.988 32.1814 109.968H28.7374ZM40.1365 108.134C39.5905 107.392 38.6385 107.112 37.7425 107.112C36.3845 107.112 35.0405 107.784 35.0405 109.282C35.0405 111.844 38.6665 110.752 38.6665 112.138C38.6665 112.67 38.0365 112.908 37.5465 112.908C36.8325 112.908 36.3845 112.558 35.9505 112.082L34.8305 113.132C35.5165 113.902 36.4125 114.168 37.4485 114.168C38.8205 114.168 40.3465 113.608 40.3465 112.012C40.3465 109.394 36.7205 110.374 36.7205 109.17C36.7205 108.666 37.2525 108.456 37.7005 108.456C38.2745 108.456 38.6945 108.694 39.0165 109.142L40.1365 108.134ZM41.6532 113.02C41.6532 113.622 42.1852 114.084 42.7732 114.084C43.3892 114.084 43.8932 113.594 43.8932 112.992C43.8932 112.39 43.3752 111.928 42.7732 111.928C42.1572 111.928 41.6532 112.418 41.6532 113.02ZM41.6532 108.274C41.6532 108.876 42.1852 109.338 42.7732 109.338C43.3892 109.338 43.8932 108.848 43.8932 108.246C43.8932 107.644 43.3752 107.182 42.7732 107.182C42.1572 107.182 41.6532 107.672 41.6532 108.274ZM58.8983 108.204H55.1043V109.8H57.1343V112.138C56.5183 112.488 55.7063 112.656 54.8103 112.656C52.7663 112.656 51.4083 111.088 51.4083 108.974C51.4083 107 52.7663 105.432 54.8103 105.432C55.8043 105.432 56.7703 105.782 57.4003 106.398L58.7023 105.082C57.6663 104.158 56.3083 103.836 54.7963 103.836C51.7443 103.836 49.5603 105.908 49.5603 109.086C49.5603 112.18 51.7443 114.252 54.7963 114.252C56.3223 114.252 57.6943 113.916 58.8983 113.272V108.204ZM60.8348 114H62.5148V110.402C62.5148 110.038 62.7388 108.708 64.3208 108.708C64.5868 108.708 64.8528 108.764 65.1328 108.834V107.21C64.9368 107.154 64.7408 107.112 64.5308 107.112C63.6488 107.112 62.9068 107.574 62.5428 108.344H62.5148V107.28H60.8348V114ZM72.4981 111.228V110.766C72.4981 108.428 71.2241 107.112 69.3481 107.112C67.3181 107.112 65.6941 108.526 65.6941 110.64C65.6941 112.754 67.3181 114.168 69.3481 114.168C70.4121 114.168 71.4061 113.79 72.1901 112.824L70.9861 111.914C70.5661 112.432 70.0201 112.824 69.1801 112.824C68.2421 112.824 67.4861 112.222 67.3741 111.228H72.4981ZM67.3741 109.968C67.5001 109.002 68.1161 108.372 69.1101 108.372C70.1601 108.372 70.8041 108.988 70.8181 109.968H67.3741ZM80.5372 111.228V110.766C80.5372 108.428 79.2632 107.112 77.3872 107.112C75.3572 107.112 73.7332 108.526 73.7332 110.64C73.7332 112.754 75.3572 114.168 77.3872 114.168C78.4512 114.168 79.4452 113.79 80.2292 112.824L79.0252 111.914C78.6052 112.432 78.0592 112.824 77.2192 112.824C76.2812 112.824 75.5252 112.222 75.4132 111.228H80.5372ZM75.4132 109.968C75.5392 109.002 76.1552 108.372 77.1492 108.372C78.1992 108.372 78.8432 108.988 78.8572 109.968H75.4132ZM82.1083 114H83.7883V110.332C83.7883 109.436 84.2223 108.624 85.3283 108.624C86.5043 108.624 86.5603 109.856 86.5603 110.598V114H88.2403V109.758C88.2403 108.386 87.5963 107.112 85.7903 107.112C84.6703 107.112 84.0403 107.686 83.7323 108.358H83.7043V107.28H82.1083V114Z" fill="black"/>
<rect y="129" width="39" height="25" rx="8" fill="#467822"/>
<path d="M16.2326 135.088H8.50459V136.18H11.7806V145H12.9566V136.18H16.2326V135.088ZM16.4691 140.002C16.9871 139.526 17.7151 139.288 18.4151 139.288C19.4371 139.288 20.0391 139.778 20.0391 140.73V140.926H19.6191C18.0091 140.926 15.4891 141.052 15.4891 143.222C15.4891 144.496 16.5951 145.168 17.9251 145.168C18.9191 145.168 19.6471 144.692 20.0811 144.02H20.1091C20.1091 144.3 20.1091 144.706 20.1791 145H21.2291C21.1731 144.664 21.1311 144.244 21.1311 143.866V141.052C21.1311 139.204 20.3191 138.28 18.3871 138.28C17.4351 138.28 16.4551 138.602 15.7831 139.288L16.4691 140.002ZM20.0391 141.85V142.27C20.0111 143.334 19.3671 144.244 18.1071 144.244C17.2811 144.244 16.6651 143.936 16.6651 143.11C16.6651 142.228 17.5611 141.85 18.9471 141.85H20.0391ZM29.6648 138.448H28.5728V139.568H28.5448C28.1108 138.7 27.1168 138.28 26.2348 138.28C24.1488 138.28 22.7488 139.582 22.7488 141.724C22.7488 143.656 24.1768 145.084 26.2348 145.084C27.1028 145.084 28.0268 144.706 28.5448 143.866H28.5728V144.706C28.5728 146.092 28.0548 147.352 26.0948 147.352C25.0868 147.352 24.3448 146.96 23.6588 146.218L22.8748 147.114C23.7988 148.024 24.8208 148.36 26.0948 148.36C28.3908 148.36 29.6648 147.072 29.6648 144.706V138.448ZM23.9248 141.724C23.9248 140.352 24.8628 139.288 26.2348 139.288C27.6208 139.288 28.5728 140.282 28.5728 141.696C28.5728 142.956 27.7328 144.076 26.2348 144.076C24.9608 144.076 23.9248 143.054 23.9248 141.724Z" fill="white"/>
<path d="M178.736 97H180.5V88.684H183.538V87.088H175.698V88.684H178.736V97ZM184.993 97.056L184.671 97.854C184.391 98.554 184.167 98.848 183.341 98.848C183.047 98.848 182.753 98.778 182.487 98.68L182.277 100.192C182.697 100.304 183.131 100.36 183.565 100.36C185.049 100.36 185.637 99.702 186.127 98.442L189.305 90.28H187.555L185.875 94.942H185.847L183.971 90.28H182.123L184.993 97.056ZM190.292 100.192H191.972V96.146H192.014C192.364 96.58 193.036 97.168 194.296 97.168C196.214 97.168 197.544 95.628 197.544 93.64C197.544 91.652 196.298 90.112 194.226 90.112C193.288 90.112 192.406 90.476 191.916 91.288H191.888V90.28H190.292V100.192ZM195.864 93.64C195.864 94.69 195.122 95.656 193.89 95.656C192.658 95.656 191.916 94.69 191.916 93.64C191.916 92.59 192.658 91.624 193.89 91.624C195.122 91.624 195.864 92.59 195.864 93.64ZM205.579 94.228V93.766C205.579 91.428 204.305 90.112 202.429 90.112C200.399 90.112 198.775 91.526 198.775 93.64C198.775 95.754 200.399 97.168 202.429 97.168C203.493 97.168 204.487 96.79 205.271 95.824L204.067 94.914C203.647 95.432 203.101 95.824 202.261 95.824C201.323 95.824 200.567 95.222 200.455 94.228H205.579ZM200.455 92.968C200.581 92.002 201.197 91.372 202.191 91.372C203.241 91.372 203.885 91.988 203.899 92.968H200.455ZM207.15 96.02C207.15 96.622 207.682 97.084 208.27 97.084C208.886 97.084 209.39 96.594 209.39 95.992C209.39 95.39 208.872 94.928 208.27 94.928C207.654 94.928 207.15 95.418 207.15 96.02ZM207.15 91.274C207.15 91.876 207.682 92.338 208.27 92.338C208.886 92.338 209.39 91.848 209.39 91.246C209.39 90.644 208.872 90.182 208.27 90.182C207.654 90.182 207.15 90.672 207.15 91.274ZM215.589 97H219.285C221.665 97 224.535 95.432 224.535 92.044C224.535 88.684 222.099 87.088 219.495 87.088H215.589V97ZM217.353 95.404V88.684H218.963C221.119 88.684 222.687 89.636 222.687 92.044C222.687 94.452 220.881 95.404 218.669 95.404H217.353ZM230.258 97H231.77V93.136C231.77 92.184 231.77 90.112 228.9 90.112C227.836 90.112 226.786 90.434 226.044 91.19L226.926 92.072C227.374 91.652 228.018 91.372 228.718 91.372C229.614 91.372 230.258 91.806 230.258 92.632V92.814H229.838C228.158 92.814 225.61 92.968 225.61 95.152C225.61 96.482 226.814 97.168 228.06 97.168C228.956 97.168 229.74 96.832 230.216 96.076H230.258V97ZM230.16 94.368C230.16 95.306 229.614 95.908 228.466 95.908C227.92 95.908 227.29 95.642 227.29 95.026C227.29 94.06 228.886 93.99 229.81 93.99H230.16V94.368ZM233.577 97H235.257V93.402C235.257 93.038 235.481 91.708 237.063 91.708C237.329 91.708 237.595 91.764 237.875 91.834V90.21C237.679 90.154 237.483 90.112 237.273 90.112C236.391 90.112 235.649 90.574 235.285 91.344H235.257V90.28H233.577V97ZM239.019 97H240.699V93.57H240.727L243.401 97H245.627L242.561 93.332L245.445 90.28H243.289L240.699 93.066V86.416H239.019V97ZM182.852 104.858C182.082 104.13 181.046 103.836 180.01 103.836C178.176 103.836 176.356 104.788 176.356 106.832C176.356 110.374 181.06 109.128 181.06 111.298C181.06 112.208 180.136 112.656 179.324 112.656C178.54 112.656 177.798 112.278 177.364 111.62L176.034 112.908C176.846 113.874 178.05 114.252 179.282 114.252C181.228 114.252 182.908 113.216 182.908 111.088C182.908 107.56 178.204 108.694 178.204 106.706C178.204 105.796 179.016 105.432 179.828 105.432C180.514 105.432 181.186 105.684 181.564 106.216L182.852 104.858ZM185.193 108.708V111.788C185.193 113.37 185.613 114.168 187.391 114.168C187.783 114.168 188.371 114.112 188.721 113.944V112.53C188.511 112.684 188.105 112.74 187.811 112.74C187.069 112.74 186.873 112.32 186.873 111.648V108.708H188.721V107.28H186.873V105.334H185.193V107.28H183.807V108.708H185.193ZM194.233 114H195.745V110.136C195.745 109.184 195.745 107.112 192.875 107.112C191.811 107.112 190.761 107.434 190.019 108.19L190.901 109.072C191.349 108.652 191.993 108.372 192.693 108.372C193.589 108.372 194.233 108.806 194.233 109.632V109.814H193.813C192.133 109.814 189.585 109.968 189.585 112.152C189.585 113.482 190.789 114.168 192.035 114.168C192.931 114.168 193.715 113.832 194.191 113.076H194.233V114ZM194.135 111.368C194.135 112.306 193.589 112.908 192.441 112.908C191.895 112.908 191.265 112.642 191.265 112.026C191.265 111.06 192.861 110.99 193.785 110.99H194.135V111.368ZM198.154 108.708V111.788C198.154 113.37 198.574 114.168 200.352 114.168C200.744 114.168 201.332 114.112 201.682 113.944V112.53C201.472 112.684 201.066 112.74 200.772 112.74C200.03 112.74 199.834 112.32 199.834 111.648V108.708H201.682V107.28H199.834V105.334H198.154V107.28H196.768V108.708H198.154ZM209.462 111.228V110.766C209.462 108.428 208.188 107.112 206.312 107.112C204.282 107.112 202.658 108.526 202.658 110.64C202.658 112.754 204.282 114.168 206.312 114.168C207.376 114.168 208.37 113.79 209.154 112.824L207.95 111.914C207.53 112.432 206.984 112.824 206.144 112.824C205.206 112.824 204.45 112.222 204.338 111.228H209.462ZM204.338 109.968C204.464 109.002 205.08 108.372 206.074 108.372C207.124 108.372 207.768 108.988 207.782 109.968H204.338ZM215.737 108.134C215.191 107.392 214.239 107.112 213.343 107.112C211.985 107.112 210.641 107.784 210.641 109.282C210.641 111.844 214.267 110.752 214.267 112.138C214.267 112.67 213.637 112.908 213.147 112.908C212.433 112.908 211.985 112.558 211.551 112.082L210.431 113.132C211.117 113.902 212.013 114.168 213.049 114.168C214.421 114.168 215.947 113.608 215.947 112.012C215.947 109.394 212.321 110.374 212.321 109.17C212.321 108.666 212.853 108.456 213.301 108.456C213.875 108.456 214.295 108.694 214.617 109.142L215.737 108.134ZM217.253 113.02C217.253 113.622 217.785 114.084 218.373 114.084C218.989 114.084 219.493 113.594 219.493 112.992C219.493 112.39 218.975 111.928 218.373 111.928C217.757 111.928 217.253 112.418 217.253 113.02ZM217.253 108.274C217.253 108.876 217.785 109.338 218.373 109.338C218.989 109.338 219.493 108.848 219.493 108.246C219.493 107.644 218.975 107.182 218.373 107.182C217.757 107.182 217.253 107.672 217.253 108.274ZM225.692 114H229.262C231.138 114 233.014 113.328 233.014 111.172C233.014 109.898 232.118 108.918 230.872 108.778V108.75C231.894 108.442 232.594 107.7 232.594 106.58C232.594 104.774 231.054 104.088 229.556 104.088H225.692V114ZM227.456 105.6H228.912C230.242 105.6 230.83 106.02 230.83 106.874C230.83 107.616 230.242 108.12 229.066 108.12H227.456V105.6ZM227.456 109.632H229.15C230.578 109.632 231.25 109.996 231.25 111.032C231.25 112.334 229.99 112.488 229.08 112.488H227.456V109.632ZM234.645 114H236.325V103.416H234.645V114ZM244.385 107.28H242.705V110.948C242.705 111.844 242.271 112.656 241.165 112.656C239.989 112.656 239.933 111.424 239.933 110.682V107.28H238.253V111.522C238.253 112.894 238.897 114.168 240.703 114.168C241.823 114.168 242.453 113.594 242.761 112.922H242.789V114H244.385V107.28ZM252.76 111.228V110.766C252.76 108.428 251.486 107.112 249.61 107.112C247.58 107.112 245.956 108.526 245.956 110.64C245.956 112.754 247.58 114.168 249.61 114.168C250.674 114.168 251.668 113.79 252.452 112.824L251.248 111.914C250.828 112.432 250.282 112.824 249.442 112.824C248.504 112.824 247.748 112.222 247.636 111.228H252.76ZM247.636 109.968C247.762 109.002 248.378 108.372 249.372 108.372C250.422 108.372 251.066 108.988 251.08 109.968H247.636Z" fill="black"/>
<rect x="175.6" y="129" width="39" height="25" rx="8" fill="#5666BC"/>
<path d="M191.833 135.088H184.105V136.18H187.381V145H188.557V136.18H191.833V135.088ZM192.069 140.002C192.587 139.526 193.315 139.288 194.015 139.288C195.037 139.288 195.639 139.778 195.639 140.73V140.926H195.219C193.609 140.926 191.089 141.052 191.089 143.222C191.089 144.496 192.195 145.168 193.525 145.168C194.519 145.168 195.247 144.692 195.681 144.02H195.709C195.709 144.3 195.709 144.706 195.779 145H196.829C196.773 144.664 196.731 144.244 196.731 143.866V141.052C196.731 139.204 195.919 138.28 193.987 138.28C193.035 138.28 192.055 138.602 191.383 139.288L192.069 140.002ZM195.639 141.85V142.27C195.611 143.334 194.967 144.244 193.707 144.244C192.881 144.244 192.265 143.936 192.265 143.11C192.265 142.228 193.161 141.85 194.547 141.85H195.639ZM205.265 138.448H204.173V139.568H204.145C203.711 138.7 202.717 138.28 201.835 138.28C199.749 138.28 198.349 139.582 198.349 141.724C198.349 143.656 199.777 145.084 201.835 145.084C202.703 145.084 203.627 144.706 204.145 143.866H204.173V144.706C204.173 146.092 203.655 147.352 201.695 147.352C200.687 147.352 199.945 146.96 199.259 146.218L198.475 147.114C199.399 148.024 200.421 148.36 201.695 148.36C203.991 148.36 205.265 147.072 205.265 144.706V138.448ZM199.525 141.724C199.525 140.352 200.463 139.288 201.835 139.288C203.221 139.288 204.173 140.282 204.173 141.696C204.173 142.956 203.333 144.076 201.835 144.076C200.561 144.076 199.525 143.054 199.525 141.724Z" fill="white"/>
<path d="M354.336 97H356.1V88.684H359.138V87.088H351.298V88.684H354.336V97ZM360.592 97.056L360.27 97.854C359.99 98.554 359.766 98.848 358.94 98.848C358.646 98.848 358.352 98.778 358.086 98.68L357.876 100.192C358.296 100.304 358.73 100.36 359.164 100.36C360.648 100.36 361.236 99.702 361.726 98.442L364.904 90.28H363.154L361.474 94.942H361.446L359.57 90.28H357.722L360.592 97.056ZM365.892 100.192H367.572V96.146H367.614C367.964 96.58 368.636 97.168 369.896 97.168C371.814 97.168 373.144 95.628 373.144 93.64C373.144 91.652 371.898 90.112 369.826 90.112C368.888 90.112 368.006 90.476 367.516 91.288H367.488V90.28H365.892V100.192ZM371.464 93.64C371.464 94.69 370.722 95.656 369.49 95.656C368.258 95.656 367.516 94.69 367.516 93.64C367.516 92.59 368.258 91.624 369.49 91.624C370.722 91.624 371.464 92.59 371.464 93.64ZM381.179 94.228V93.766C381.179 91.428 379.905 90.112 378.029 90.112C375.999 90.112 374.375 91.526 374.375 93.64C374.375 95.754 375.999 97.168 378.029 97.168C379.093 97.168 380.087 96.79 380.871 95.824L379.667 94.914C379.247 95.432 378.701 95.824 377.861 95.824C376.923 95.824 376.167 95.222 376.055 94.228H381.179ZM376.055 92.968C376.181 92.002 376.797 91.372 377.791 91.372C378.841 91.372 379.485 91.988 379.499 92.968H376.055ZM382.75 96.02C382.75 96.622 383.282 97.084 383.87 97.084C384.486 97.084 384.99 96.594 384.99 95.992C384.99 95.39 384.472 94.928 383.87 94.928C383.254 94.928 382.75 95.418 382.75 96.02ZM382.75 91.274C382.75 91.876 383.282 92.338 383.87 92.338C384.486 92.338 384.99 91.848 384.99 91.246C384.99 90.644 384.472 90.182 383.87 90.182C383.254 90.182 382.75 90.672 382.75 91.274ZM391.189 97H394.885C397.265 97 400.135 95.432 400.135 92.044C400.135 88.684 397.699 87.088 395.095 87.088H391.189V97ZM392.953 95.404V88.684H394.563C396.719 88.684 398.287 89.636 398.287 92.044C398.287 94.452 396.481 95.404 394.269 95.404H392.953ZM405.858 97H407.37V93.136C407.37 92.184 407.37 90.112 404.5 90.112C403.436 90.112 402.386 90.434 401.644 91.19L402.526 92.072C402.974 91.652 403.618 91.372 404.318 91.372C405.214 91.372 405.858 91.806 405.858 92.632V92.814H405.438C403.758 92.814 401.21 92.968 401.21 95.152C401.21 96.482 402.414 97.168 403.66 97.168C404.556 97.168 405.34 96.832 405.816 96.076H405.858V97ZM405.76 94.368C405.76 95.306 405.214 95.908 404.066 95.908C403.52 95.908 402.89 95.642 402.89 95.026C402.89 94.06 404.486 93.99 405.41 93.99H405.76V94.368ZM409.177 97H410.857V93.402C410.857 93.038 411.081 91.708 412.663 91.708C412.929 91.708 413.195 91.764 413.475 91.834V90.21C413.279 90.154 413.083 90.112 412.873 90.112C411.991 90.112 411.249 90.574 410.885 91.344H410.857V90.28H409.177V97ZM414.619 97H416.299V93.57H416.327L419.001 97H421.227L418.161 93.332L421.045 90.28H418.889L416.299 93.066V86.416H414.619V97ZM358.452 104.858C357.682 104.13 356.646 103.836 355.61 103.836C353.776 103.836 351.956 104.788 351.956 106.832C351.956 110.374 356.66 109.128 356.66 111.298C356.66 112.208 355.736 112.656 354.924 112.656C354.14 112.656 353.398 112.278 352.964 111.62L351.634 112.908C352.446 113.874 353.65 114.252 354.882 114.252C356.828 114.252 358.508 113.216 358.508 111.088C358.508 107.56 353.804 108.694 353.804 106.706C353.804 105.796 354.616 105.432 355.428 105.432C356.114 105.432 356.786 105.684 357.164 106.216L358.452 104.858ZM360.793 108.708V111.788C360.793 113.37 361.213 114.168 362.991 114.168C363.383 114.168 363.971 114.112 364.321 113.944V112.53C364.111 112.684 363.705 112.74 363.411 112.74C362.669 112.74 362.473 112.32 362.473 111.648V108.708H364.321V107.28H362.473V105.334H360.793V107.28H359.407V108.708H360.793ZM369.832 114H371.344V110.136C371.344 109.184 371.344 107.112 368.474 107.112C367.41 107.112 366.36 107.434 365.618 108.19L366.5 109.072C366.948 108.652 367.592 108.372 368.292 108.372C369.188 108.372 369.832 108.806 369.832 109.632V109.814H369.412C367.732 109.814 365.184 109.968 365.184 112.152C365.184 113.482 366.388 114.168 367.634 114.168C368.53 114.168 369.314 113.832 369.79 113.076H369.832V114ZM369.734 111.368C369.734 112.306 369.188 112.908 368.04 112.908C367.494 112.908 366.864 112.642 366.864 112.026C366.864 111.06 368.46 110.99 369.384 110.99H369.734V111.368ZM373.754 108.708V111.788C373.754 113.37 374.174 114.168 375.952 114.168C376.344 114.168 376.932 114.112 377.282 113.944V112.53C377.072 112.684 376.666 112.74 376.372 112.74C375.63 112.74 375.434 112.32 375.434 111.648V108.708H377.282V107.28H375.434V105.334H373.754V107.28H372.368V108.708H373.754ZM385.061 111.228V110.766C385.061 108.428 383.787 107.112 381.911 107.112C379.881 107.112 378.257 108.526 378.257 110.64C378.257 112.754 379.881 114.168 381.911 114.168C382.975 114.168 383.969 113.79 384.753 112.824L383.549 111.914C383.129 112.432 382.583 112.824 381.743 112.824C380.805 112.824 380.049 112.222 379.937 111.228H385.061ZM379.937 109.968C380.063 109.002 380.679 108.372 381.673 108.372C382.723 108.372 383.367 108.988 383.381 109.968H379.937ZM391.336 108.134C390.79 107.392 389.838 107.112 388.942 107.112C387.584 107.112 386.24 107.784 386.24 109.282C386.24 111.844 389.866 110.752 389.866 112.138C389.866 112.67 389.236 112.908 388.746 112.908C388.032 112.908 387.584 112.558 387.15 112.082L386.03 113.132C386.716 113.902 387.612 114.168 388.648 114.168C390.02 114.168 391.546 113.608 391.546 112.012C391.546 109.394 387.92 110.374 387.92 109.17C387.92 108.666 388.452 108.456 388.9 108.456C389.474 108.456 389.894 108.694 390.216 109.142L391.336 108.134ZM392.853 113.02C392.853 113.622 393.385 114.084 393.973 114.084C394.589 114.084 395.093 113.594 395.093 112.992C395.093 112.39 394.575 111.928 393.973 111.928C393.357 111.928 392.853 112.418 392.853 113.02ZM392.853 108.274C392.853 108.876 393.385 109.338 393.973 109.338C394.589 109.338 395.093 108.848 395.093 108.246C395.093 107.644 394.575 107.182 393.973 107.182C393.357 107.182 392.853 107.672 392.853 108.274ZM410.098 108.204H406.304V109.8H408.334V112.138C407.718 112.488 406.906 112.656 406.01 112.656C403.966 112.656 402.608 111.088 402.608 108.974C402.608 107 403.966 105.432 406.01 105.432C407.004 105.432 407.97 105.782 408.6 106.398L409.902 105.082C408.866 104.158 407.508 103.836 405.996 103.836C402.944 103.836 400.76 105.908 400.76 109.086C400.76 112.18 402.944 114.252 405.996 114.252C407.522 114.252 408.894 113.916 410.098 113.272V108.204ZM412.035 114H413.715V110.402C413.715 110.038 413.939 108.708 415.521 108.708C415.787 108.708 416.053 108.764 416.333 108.834V107.21C416.137 107.154 415.941 107.112 415.731 107.112C414.849 107.112 414.107 107.574 413.743 108.344H413.715V107.28H412.035V114ZM421.676 114H423.188V110.136C423.188 109.184 423.188 107.112 420.318 107.112C419.254 107.112 418.204 107.434 417.462 108.19L418.344 109.072C418.792 108.652 419.436 108.372 420.136 108.372C421.032 108.372 421.676 108.806 421.676 109.632V109.814H421.256C419.576 109.814 417.028 109.968 417.028 112.152C417.028 113.482 418.232 114.168 419.478 114.168C420.374 114.168 421.158 113.832 421.634 113.076H421.676V114ZM421.578 111.368C421.578 112.306 421.032 112.908 419.884 112.908C419.338 112.908 418.708 112.642 418.708 112.026C418.708 111.06 420.304 110.99 421.228 110.99H421.578V111.368ZM426.956 114.056L426.634 114.854C426.354 115.554 426.13 115.848 425.304 115.848C425.01 115.848 424.716 115.778 424.45 115.68L424.24 117.192C424.66 117.304 425.094 117.36 425.528 117.36C427.012 117.36 427.6 116.702 428.09 115.442L431.268 107.28H429.518L427.838 111.942H427.81L425.934 107.28H424.086L426.956 114.056Z" fill="black"/>
<rect x="351.2" y="129" width="39" height="25" rx="8" fill="#6B778C"/>
<path d="M367.433 135.088H359.705V136.18H362.981V145H364.157V136.18H367.433V135.088ZM367.669 140.002C368.187 139.526 368.915 139.288 369.615 139.288C370.637 139.288 371.239 139.778 371.239 140.73V140.926H370.819C369.209 140.926 366.689 141.052 366.689 143.222C366.689 144.496 367.795 145.168 369.125 145.168C370.119 145.168 370.847 144.692 371.281 144.02H371.309C371.309 144.3 371.309 144.706 371.379 145H372.429C372.373 144.664 372.331 144.244 372.331 143.866V141.052C372.331 139.204 371.519 138.28 369.587 138.28C368.635 138.28 367.655 138.602 366.983 139.288L367.669 140.002ZM371.239 141.85V142.27C371.211 143.334 370.567 144.244 369.307 144.244C368.481 144.244 367.865 143.936 367.865 143.11C367.865 142.228 368.761 141.85 370.147 141.85H371.239ZM380.865 138.448H379.773V139.568H379.745C379.311 138.7 378.317 138.28 377.435 138.28C375.349 138.28 373.949 139.582 373.949 141.724C373.949 143.656 375.377 145.084 377.435 145.084C378.303 145.084 379.227 144.706 379.745 143.866H379.773V144.706C379.773 146.092 379.255 147.352 377.295 147.352C376.287 147.352 375.545 146.96 374.859 146.218L374.075 147.114C374.999 148.024 376.021 148.36 377.295 148.36C379.591 148.36 380.865 147.072 380.865 144.706V138.448ZM375.125 141.724C375.125 140.352 376.063 139.288 377.435 139.288C378.821 139.288 379.773 140.282 379.773 141.696C379.773 142.956 378.933 144.076 377.435 144.076C376.161 144.076 375.125 143.054 375.125 141.724Z" fill="white"/>
<path d="M529.936 97H531.7V88.684H534.738V87.088H526.898V88.684H529.936V97ZM536.193 97.056L535.871 97.854C535.591 98.554 535.367 98.848 534.541 98.848C534.247 98.848 533.953 98.778 533.687 98.68L533.477 100.192C533.897 100.304 534.331 100.36 534.765 100.36C536.249 100.36 536.837 99.702 537.327 98.442L540.505 90.28H538.755L537.075 94.942H537.047L535.171 90.28H533.323L536.193 97.056ZM541.492 100.192H543.172V96.146H543.214C543.564 96.58 544.236 97.168 545.496 97.168C547.414 97.168 548.744 95.628 548.744 93.64C548.744 91.652 547.498 90.112 545.426 90.112C544.488 90.112 543.606 90.476 543.116 91.288H543.088V90.28H541.492V100.192ZM547.064 93.64C547.064 94.69 546.322 95.656 545.09 95.656C543.858 95.656 543.116 94.69 543.116 93.64C543.116 92.59 543.858 91.624 545.09 91.624C546.322 91.624 547.064 92.59 547.064 93.64ZM556.779 94.228V93.766C556.779 91.428 555.505 90.112 553.629 90.112C551.599 90.112 549.975 91.526 549.975 93.64C549.975 95.754 551.599 97.168 553.629 97.168C554.693 97.168 555.687 96.79 556.471 95.824L555.267 94.914C554.847 95.432 554.301 95.824 553.461 95.824C552.523 95.824 551.767 95.222 551.655 94.228H556.779ZM551.655 92.968C551.781 92.002 552.397 91.372 553.391 91.372C554.441 91.372 555.085 91.988 555.099 92.968H551.655ZM558.35 96.02C558.35 96.622 558.882 97.084 559.47 97.084C560.086 97.084 560.59 96.594 560.59 95.992C560.59 95.39 560.072 94.928 559.47 94.928C558.854 94.928 558.35 95.418 558.35 96.02ZM558.35 91.274C558.35 91.876 558.882 92.338 559.47 92.338C560.086 92.338 560.59 91.848 560.59 91.246C560.59 90.644 560.072 90.182 559.47 90.182C558.854 90.182 558.35 90.672 558.35 91.274ZM566.789 97H570.485C572.865 97 575.735 95.432 575.735 92.044C575.735 88.684 573.299 87.088 570.695 87.088H566.789V97ZM568.553 95.404V88.684H570.163C572.319 88.684 573.887 89.636 573.887 92.044C573.887 94.452 572.081 95.404 569.869 95.404H568.553ZM581.458 97H582.97V93.136C582.97 92.184 582.97 90.112 580.1 90.112C579.036 90.112 577.986 90.434 577.244 91.19L578.126 92.072C578.574 91.652 579.218 91.372 579.918 91.372C580.814 91.372 581.458 91.806 581.458 92.632V92.814H581.038C579.358 92.814 576.81 92.968 576.81 95.152C576.81 96.482 578.014 97.168 579.26 97.168C580.156 97.168 580.94 96.832 581.416 96.076H581.458V97ZM581.36 94.368C581.36 95.306 580.814 95.908 579.666 95.908C579.12 95.908 578.49 95.642 578.49 95.026C578.49 94.06 580.086 93.99 581.01 93.99H581.36V94.368ZM584.777 97H586.457V93.402C586.457 93.038 586.681 91.708 588.263 91.708C588.529 91.708 588.795 91.764 589.075 91.834V90.21C588.879 90.154 588.683 90.112 588.473 90.112C587.591 90.112 586.849 90.574 586.485 91.344H586.457V90.28H584.777V97ZM590.219 97H591.899V93.57H591.927L594.601 97H596.827L593.761 93.332L596.645 90.28H594.489L591.899 93.066V86.416H590.219V97ZM534.052 104.858C533.282 104.13 532.246 103.836 531.21 103.836C529.376 103.836 527.556 104.788 527.556 106.832C527.556 110.374 532.26 109.128 532.26 111.298C532.26 112.208 531.336 112.656 530.524 112.656C529.74 112.656 528.998 112.278 528.564 111.62L527.234 112.908C528.046 113.874 529.25 114.252 530.482 114.252C532.428 114.252 534.108 113.216 534.108 111.088C534.108 107.56 529.404 108.694 529.404 106.706C529.404 105.796 530.216 105.432 531.028 105.432C531.714 105.432 532.386 105.684 532.764 106.216L534.052 104.858ZM536.393 108.708V111.788C536.393 113.37 536.813 114.168 538.591 114.168C538.983 114.168 539.571 114.112 539.921 113.944V112.53C539.711 112.684 539.305 112.74 539.011 112.74C538.269 112.74 538.073 112.32 538.073 111.648V108.708H539.921V107.28H538.073V105.334H536.393V107.28H535.007V108.708H536.393ZM545.433 114H546.945V110.136C546.945 109.184 546.945 107.112 544.075 107.112C543.011 107.112 541.961 107.434 541.219 108.19L542.101 109.072C542.549 108.652 543.193 108.372 543.893 108.372C544.789 108.372 545.433 108.806 545.433 109.632V109.814H545.013C543.333 109.814 540.785 109.968 540.785 112.152C540.785 113.482 541.989 114.168 543.235 114.168C544.131 114.168 544.915 113.832 545.391 113.076H545.433V114ZM545.335 111.368C545.335 112.306 544.789 112.908 543.641 112.908C543.095 112.908 542.465 112.642 542.465 112.026C542.465 111.06 544.061 110.99 544.985 110.99H545.335V111.368ZM549.354 108.708V111.788C549.354 113.37 549.774 114.168 551.552 114.168C551.944 114.168 552.532 114.112 552.882 113.944V112.53C552.672 112.684 552.266 112.74 551.972 112.74C551.23 112.74 551.034 112.32 551.034 111.648V108.708H552.882V107.28H551.034V105.334H549.354V107.28H547.968V108.708H549.354ZM560.661 111.228V110.766C560.661 108.428 559.387 107.112 557.511 107.112C555.481 107.112 553.857 108.526 553.857 110.64C553.857 112.754 555.481 114.168 557.511 114.168C558.575 114.168 559.569 113.79 560.353 112.824L559.149 111.914C558.729 112.432 558.183 112.824 557.343 112.824C556.405 112.824 555.649 112.222 555.537 111.228H560.661ZM555.537 109.968C555.663 109.002 556.279 108.372 557.273 108.372C558.323 108.372 558.967 108.988 558.981 109.968H555.537ZM566.937 108.134C566.391 107.392 565.439 107.112 564.543 107.112C563.185 107.112 561.841 107.784 561.841 109.282C561.841 111.844 565.467 110.752 565.467 112.138C565.467 112.67 564.837 112.908 564.347 112.908C563.633 112.908 563.185 112.558 562.751 112.082L561.631 113.132C562.317 113.902 563.213 114.168 564.249 114.168C565.621 114.168 567.147 113.608 567.147 112.012C567.147 109.394 563.521 110.374 563.521 109.17C563.521 108.666 564.053 108.456 564.501 108.456C565.075 108.456 565.495 108.694 565.817 109.142L566.937 108.134ZM568.453 113.02C568.453 113.622 568.985 114.084 569.573 114.084C570.189 114.084 570.693 113.594 570.693 112.992C570.693 112.39 570.175 111.928 569.573 111.928C568.957 111.928 568.453 112.418 568.453 113.02ZM568.453 108.274C568.453 108.876 568.985 109.338 569.573 109.338C570.189 109.338 570.693 108.848 570.693 108.246C570.693 107.644 570.175 107.182 569.573 107.182C568.957 107.182 568.453 107.672 568.453 108.274ZM576.36 109.086C576.36 112.18 578.544 114.252 581.596 114.252C584.69 114.196 586.874 112.124 586.874 109.03C586.874 105.852 584.69 103.78 581.596 103.836C578.544 103.836 576.36 105.908 576.36 109.086ZM578.208 108.974C578.208 107 579.566 105.432 581.61 105.432C583.668 105.432 585.026 107 585.026 108.974C585.026 111.088 583.668 112.656 581.61 112.656C579.566 112.656 578.208 111.088 578.208 108.974ZM588.4 114H590.08V110.402C590.08 110.038 590.304 108.708 591.886 108.708C592.152 108.708 592.418 108.764 592.698 108.834V107.21C592.502 107.154 592.306 107.112 592.096 107.112C591.214 107.112 590.472 107.574 590.108 108.344H590.08V107.28H588.4V114ZM598.042 114H599.554V110.136C599.554 109.184 599.554 107.112 596.684 107.112C595.62 107.112 594.57 107.434 593.828 108.19L594.71 109.072C595.158 108.652 595.802 108.372 596.502 108.372C597.398 108.372 598.042 108.806 598.042 109.632V109.814H597.622C595.942 109.814 593.394 109.968 593.394 112.152C593.394 113.482 594.598 114.168 595.844 114.168C596.74 114.168 597.524 113.832 598 113.076H598.042V114ZM597.944 111.368C597.944 112.306 597.398 112.908 596.25 112.908C595.704 112.908 595.074 112.642 595.074 112.026C595.074 111.06 596.67 110.99 597.594 110.99H597.944V111.368ZM601.361 114H603.041V110.332C603.041 109.436 603.475 108.624 604.581 108.624C605.757 108.624 605.813 109.856 605.813 110.598V114H607.493V109.758C607.493 108.386 606.849 107.112 605.043 107.112C603.923 107.112 603.293 107.686 602.985 108.358H602.957V107.28H601.361V114ZM614.72 107.28V108.288H614.692C614.202 107.476 613.32 107.112 612.382 107.112C610.31 107.112 609.064 108.652 609.064 110.64C609.064 112.544 610.394 114.084 612.41 114.084C613.25 114.084 614.118 113.762 614.608 113.104H614.636V113.594C614.636 114.924 614.132 115.848 612.508 115.848C611.57 115.848 610.87 115.498 610.198 114.882L609.19 116.254C610.142 117.094 611.276 117.36 612.522 117.36C615.14 117.36 616.316 115.82 616.316 113.398V107.28H614.72ZM612.732 108.624C613.95 108.624 614.72 109.436 614.72 110.598C614.72 111.718 613.964 112.572 612.718 112.572C611.584 112.572 610.744 111.69 610.744 110.626C610.744 109.436 611.556 108.624 612.732 108.624ZM624.687 111.228V110.766C624.687 108.428 623.413 107.112 621.537 107.112C619.507 107.112 617.883 108.526 617.883 110.64C617.883 112.754 619.507 114.168 621.537 114.168C622.601 114.168 623.595 113.79 624.379 112.824L623.175 111.914C622.755 112.432 622.209 112.824 621.369 112.824C620.431 112.824 619.675 112.222 619.563 111.228H624.687ZM619.563 109.968C619.689 109.002 620.305 108.372 621.299 108.372C622.349 108.372 622.993 108.988 623.007 109.968H619.563Z" fill="black"/>
<rect x="526.8" y="129" width="39" height="25" rx="8" fill="#FE7355"/>
<path d="M543.033 135.088H535.305V136.18H538.581V145H539.757V136.18H543.033V135.088ZM543.269 140.002C543.787 139.526 544.515 139.288 545.215 139.288C546.237 139.288 546.839 139.778 546.839 140.73V140.926H546.419C544.809 140.926 542.289 141.052 542.289 143.222C542.289 144.496 543.395 145.168 544.725 145.168C545.719 145.168 546.447 144.692 546.881 144.02H546.909C546.909 144.3 546.909 144.706 546.979 145H548.029C547.973 144.664 547.931 144.244 547.931 143.866V141.052C547.931 139.204 547.119 138.28 545.187 138.28C544.235 138.28 543.255 138.602 542.583 139.288L543.269 140.002ZM546.839 141.85V142.27C546.811 143.334 546.167 144.244 544.907 144.244C544.081 144.244 543.465 143.936 543.465 143.11C543.465 142.228 544.361 141.85 545.747 141.85H546.839ZM556.465 138.448H555.373V139.568H555.345C554.911 138.7 553.917 138.28 553.035 138.28C550.949 138.28 549.549 139.582 549.549 141.724C549.549 143.656 550.977 145.084 553.035 145.084C553.903 145.084 554.827 144.706 555.345 143.866H555.373V144.706C555.373 146.092 554.855 147.352 552.895 147.352C551.887 147.352 551.145 146.96 550.459 146.218L549.675 147.114C550.599 148.024 551.621 148.36 552.895 148.36C555.191 148.36 556.465 147.072 556.465 144.706V138.448ZM550.725 141.724C550.725 140.352 551.663 139.288 553.035 139.288C554.421 139.288 555.373 140.282 555.373 141.696C555.373 142.956 554.533 144.076 553.035 144.076C551.761 144.076 550.725 143.054 550.725 141.724Z" fill="white"/>
<path d="M705.536 97H707.3V88.684H710.338V87.088H702.498V88.684H705.536V97ZM711.792 97.056L711.47 97.854C711.19 98.554 710.966 98.848 710.14 98.848C709.846 98.848 709.552 98.778 709.286 98.68L709.076 100.192C709.496 100.304 709.93 100.36 710.364 100.36C711.848 100.36 712.436 99.702 712.926 98.442L716.104 90.28H714.354L712.674 94.942H712.646L710.77 90.28H708.922L711.792 97.056ZM717.092 100.192H718.772V96.146H718.814C719.164 96.58 719.836 97.168 721.096 97.168C723.014 97.168 724.344 95.628 724.344 93.64C724.344 91.652 723.098 90.112 721.026 90.112C720.088 90.112 719.206 90.476 718.716 91.288H718.688V90.28H717.092V100.192ZM722.664 93.64C722.664 94.69 721.922 95.656 720.69 95.656C719.458 95.656 718.716 94.69 718.716 93.64C718.716 92.59 719.458 91.624 720.69 91.624C721.922 91.624 722.664 92.59 722.664 93.64ZM732.378 94.228V93.766C732.378 91.428 731.104 90.112 729.228 90.112C727.198 90.112 725.574 91.526 725.574 93.64C725.574 95.754 727.198 97.168 729.228 97.168C730.292 97.168 731.286 96.79 732.07 95.824L730.866 94.914C730.446 95.432 729.9 95.824 729.06 95.824C728.122 95.824 727.366 95.222 727.254 94.228H732.378ZM727.254 92.968C727.38 92.002 727.996 91.372 728.99 91.372C730.04 91.372 730.684 91.988 730.698 92.968H727.254ZM733.95 96.02C733.95 96.622 734.482 97.084 735.07 97.084C735.686 97.084 736.19 96.594 736.19 95.992C736.19 95.39 735.672 94.928 735.07 94.928C734.454 94.928 733.95 95.418 733.95 96.02ZM733.95 91.274C733.95 91.876 734.482 92.338 735.07 92.338C735.686 92.338 736.19 91.848 736.19 91.246C736.19 90.644 735.672 90.182 735.07 90.182C734.454 90.182 733.95 90.672 733.95 91.274ZM742.389 97H746.085C748.465 97 751.335 95.432 751.335 92.044C751.335 88.684 748.899 87.088 746.295 87.088H742.389V97ZM744.153 95.404V88.684H745.763C747.919 88.684 749.487 89.636 749.487 92.044C749.487 94.452 747.681 95.404 745.469 95.404H744.153ZM757.058 97H758.57V93.136C758.57 92.184 758.57 90.112 755.7 90.112C754.636 90.112 753.586 90.434 752.844 91.19L753.726 92.072C754.174 91.652 754.818 91.372 755.518 91.372C756.414 91.372 757.058 91.806 757.058 92.632V92.814H756.638C754.958 92.814 752.41 92.968 752.41 95.152C752.41 96.482 753.614 97.168 754.86 97.168C755.756 97.168 756.54 96.832 757.016 96.076H757.058V97ZM756.96 94.368C756.96 95.306 756.414 95.908 755.266 95.908C754.72 95.908 754.09 95.642 754.09 95.026C754.09 94.06 755.686 93.99 756.61 93.99H756.96V94.368ZM760.377 97H762.057V93.402C762.057 93.038 762.281 91.708 763.863 91.708C764.129 91.708 764.395 91.764 764.675 91.834V90.21C764.479 90.154 764.283 90.112 764.073 90.112C763.191 90.112 762.449 90.574 762.085 91.344H762.057V90.28H760.377V97ZM765.819 97H767.499V93.57H767.527L770.201 97H772.427L769.361 93.332L772.245 90.28H770.089L767.499 93.066V86.416H765.819V97ZM709.652 104.858C708.882 104.13 707.846 103.836 706.81 103.836C704.976 103.836 703.156 104.788 703.156 106.832C703.156 110.374 707.86 109.128 707.86 111.298C707.86 112.208 706.936 112.656 706.124 112.656C705.34 112.656 704.598 112.278 704.164 111.62L702.834 112.908C703.646 113.874 704.85 114.252 706.082 114.252C708.028 114.252 709.708 113.216 709.708 111.088C709.708 107.56 705.004 108.694 705.004 106.706C705.004 105.796 705.816 105.432 706.628 105.432C707.314 105.432 707.986 105.684 708.364 106.216L709.652 104.858ZM711.993 108.708V111.788C711.993 113.37 712.413 114.168 714.191 114.168C714.583 114.168 715.171 114.112 715.521 113.944V112.53C715.311 112.684 714.905 112.74 714.611 112.74C713.869 112.74 713.673 112.32 713.673 111.648V108.708H715.521V107.28H713.673V105.334H711.993V107.28H710.607V108.708H711.993ZM721.032 114H722.544V110.136C722.544 109.184 722.544 107.112 719.674 107.112C718.61 107.112 717.56 107.434 716.818 108.19L717.7 109.072C718.148 108.652 718.792 108.372 719.492 108.372C720.388 108.372 721.032 108.806 721.032 109.632V109.814H720.612C718.932 109.814 716.384 109.968 716.384 112.152C716.384 113.482 717.588 114.168 718.834 114.168C719.73 114.168 720.514 113.832 720.99 113.076H721.032V114ZM720.934 111.368C720.934 112.306 720.388 112.908 719.24 112.908C718.694 112.908 718.064 112.642 718.064 112.026C718.064 111.06 719.66 110.99 720.584 110.99H720.934V111.368ZM724.954 108.708V111.788C724.954 113.37 725.374 114.168 727.152 114.168C727.544 114.168 728.132 114.112 728.482 113.944V112.53C728.272 112.684 727.866 112.74 727.572 112.74C726.83 112.74 726.634 112.32 726.634 111.648V108.708H728.482V107.28H726.634V105.334H724.954V107.28H723.568V108.708H724.954ZM736.261 111.228V110.766C736.261 108.428 734.987 107.112 733.111 107.112C731.081 107.112 729.457 108.526 729.457 110.64C729.457 112.754 731.081 114.168 733.111 114.168C734.175 114.168 735.169 113.79 735.953 112.824L734.749 111.914C734.329 112.432 733.783 112.824 732.943 112.824C732.005 112.824 731.249 112.222 731.137 111.228H736.261ZM731.137 109.968C731.263 109.002 731.879 108.372 732.873 108.372C733.923 108.372 734.567 108.988 734.581 109.968H731.137ZM742.536 108.134C741.99 107.392 741.038 107.112 740.142 107.112C738.784 107.112 737.44 107.784 737.44 109.282C737.44 111.844 741.066 110.752 741.066 112.138C741.066 112.67 740.436 112.908 739.946 112.908C739.232 112.908 738.784 112.558 738.35 112.082L737.23 113.132C737.916 113.902 738.812 114.168 739.848 114.168C741.22 114.168 742.746 113.608 742.746 112.012C742.746 109.394 739.12 110.374 739.12 109.17C739.12 108.666 739.652 108.456 740.1 108.456C740.674 108.456 741.094 108.694 741.416 109.142L742.536 108.134ZM744.053 113.02C744.053 113.622 744.585 114.084 745.173 114.084C745.789 114.084 746.293 113.594 746.293 112.992C746.293 112.39 745.775 111.928 745.173 111.928C744.557 111.928 744.053 112.418 744.053 113.02ZM744.053 108.274C744.053 108.876 744.585 109.338 745.173 109.338C745.789 109.338 746.293 108.848 746.293 108.246C746.293 107.644 745.775 107.182 745.173 107.182C744.557 107.182 744.053 107.672 744.053 108.274ZM752.492 114H754.256V109.8H755.544L757.84 114H759.968L757.336 109.618C758.806 109.408 759.632 108.358 759.632 106.93C759.632 104.704 757.84 104.088 755.936 104.088H752.492V114ZM754.256 108.288V105.6H755.782C756.692 105.6 757.784 105.74 757.784 106.916C757.784 108.204 756.622 108.288 755.628 108.288H754.256ZM767.625 111.228V110.766C767.625 108.428 766.351 107.112 764.475 107.112C762.445 107.112 760.821 108.526 760.821 110.64C760.821 112.754 762.445 114.168 764.475 114.168C765.539 114.168 766.533 113.79 767.317 112.824L766.113 111.914C765.693 112.432 765.147 112.824 764.307 112.824C763.369 112.824 762.613 112.222 762.501 111.228H767.625ZM762.501 109.968C762.627 109.002 763.243 108.372 764.237 108.372C765.287 108.372 765.931 108.988 765.945 109.968H762.501ZM774.516 114H776.112V103.416H774.432V108.134H774.39C774.04 107.7 773.368 107.112 772.108 107.112C770.19 107.112 768.86 108.652 768.86 110.64C768.86 112.628 770.106 114.168 772.178 114.168C773.116 114.168 773.998 113.804 774.488 112.992H774.516V114ZM770.54 110.64C770.54 109.59 771.282 108.624 772.514 108.624C773.746 108.624 774.488 109.59 774.488 110.64C774.488 111.69 773.746 112.656 772.514 112.656C771.282 112.656 770.54 111.69 770.54 110.64Z" fill="black"/>
<rect x="702.4" y="129" width="39" height="25" rx="8" fill="#DB3259"/>
<path d="M718.632 135.088H710.904V136.18H714.18V145H715.356V136.18H718.632V135.088ZM718.869 140.002C719.387 139.526 720.115 139.288 720.815 139.288C721.837 139.288 722.439 139.778 722.439 140.73V140.926H722.019C720.409 140.926 717.889 141.052 717.889 143.222C717.889 144.496 718.995 145.168 720.325 145.168C721.319 145.168 722.047 144.692 722.481 144.02H722.509C722.509 144.3 722.509 144.706 722.579 145H723.629C723.573 144.664 723.531 144.244 723.531 143.866V141.052C723.531 139.204 722.719 138.28 720.787 138.28C719.835 138.28 718.855 138.602 718.183 139.288L718.869 140.002ZM722.439 141.85V142.27C722.411 143.334 721.767 144.244 720.507 144.244C719.681 144.244 719.065 143.936 719.065 143.11C719.065 142.228 719.961 141.85 721.347 141.85H722.439ZM732.065 138.448H730.973V139.568H730.945C730.511 138.7 729.517 138.28 728.635 138.28C726.549 138.28 725.149 139.582 725.149 141.724C725.149 143.656 726.577 145.084 728.635 145.084C729.503 145.084 730.427 144.706 730.945 143.866H730.973V144.706C730.973 146.092 730.455 147.352 728.495 147.352C727.487 147.352 726.745 146.96 726.059 146.218L725.275 147.114C726.199 148.024 727.221 148.36 728.495 148.36C730.791 148.36 732.065 147.072 732.065 144.706V138.448ZM726.325 141.724C726.325 140.352 727.263 139.288 728.635 139.288C730.021 139.288 730.973 140.282 730.973 141.696C730.973 142.956 730.133 144.076 728.635 144.076C727.361 144.076 726.325 143.054 726.325 141.724Z" fill="white"/>
</svg>
