<svg width="659" height="519" viewBox="0 0 659 519" fill="none" xmlns="http://www.w3.org/2000/svg">
<path d="M38.106 12H41.802C44.182 12 47.052 10.432 47.052 7.044C47.052 3.684 44.616 2.088 42.012 2.088H38.106V12ZM39.87 10.404V3.684H41.48C43.636 3.684 45.204 4.636 45.204 7.044C45.204 9.452 43.398 10.404 41.186 10.404H39.87ZM48.603 12H50.283V5.28H48.603V12ZM48.365 2.998C48.365 3.53 48.813 4.006 49.429 4.006C50.045 4.006 50.521 3.572 50.521 2.998C50.521 2.424 50.045 1.99 49.429 1.99C48.813 1.99 48.365 2.466 48.365 2.998ZM52.2118 12H53.8918V8.402C53.8918 8.038 54.1158 6.708 55.6978 6.708C55.9638 6.708 56.2298 6.764 56.5098 6.834V5.21C56.3138 5.154 56.1178 5.112 55.9078 5.112C55.0258 5.112 54.2838 5.574 53.9198 6.344H53.8918V5.28H52.2118V12ZM63.8751 9.228V8.766C63.8751 6.428 62.6011 5.112 60.7251 5.112C58.6951 5.112 57.0711 6.526 57.0711 8.64C57.0711 10.754 58.6951 12.168 60.7251 12.168C61.7891 12.168 62.7831 11.79 63.5671 10.824L62.3631 9.914C61.9431 10.432 61.3971 10.824 60.5571 10.824C59.6191 10.824 58.8631 10.222 58.7511 9.228H63.8751ZM58.7511 7.968C58.8771 7.002 59.4931 6.372 60.4871 6.372C61.5371 6.372 62.1811 6.988 62.1951 7.968H58.7511ZM71.2001 6.134C70.5561 5.42 69.6181 5.112 68.7641 5.112C66.7341 5.112 65.1101 6.526 65.1101 8.64C65.1101 10.754 66.7341 12.168 68.7641 12.168C69.3521 12.168 70.5001 11.916 71.1861 11.23L70.0661 10.026C69.7581 10.432 69.2821 10.656 68.7641 10.656C67.5321 10.656 66.7901 9.69 66.7901 8.64C66.7901 7.59 67.5321 6.624 68.7641 6.624C69.2121 6.624 69.6461 6.89 70.0381 7.296L71.2001 6.134ZM72.802 6.708V9.788C72.802 11.37 73.222 12.168 75 12.168C75.392 12.168 75.98 12.112 76.33 11.944V10.53C76.12 10.684 75.714 10.74 75.42 10.74C74.678 10.74 74.482 10.32 74.482 9.648V6.708H76.33V5.28H74.482V3.334H72.802V5.28H71.416V6.708H72.802ZM77.6695 12H79.3495V5.28H77.6695V12ZM77.4315 2.998C77.4315 3.53 77.8795 4.006 78.4955 4.006C79.1115 4.006 79.5875 3.572 79.5875 2.998C79.5875 2.424 79.1115 1.99 78.4955 1.99C77.8795 1.99 77.4315 2.466 77.4315 2.998ZM80.9422 8.64C80.9422 10.754 82.5662 12.168 84.5962 12.168C86.6262 12.168 88.2502 10.754 88.2502 8.64C88.2502 6.526 86.6262 5.112 84.5962 5.112C82.5662 5.112 80.9422 6.526 80.9422 8.64ZM82.6222 8.64C82.6222 7.59 83.3642 6.624 84.5962 6.624C85.8282 6.624 86.5702 7.59 86.5702 8.64C86.5702 9.69 85.8282 10.656 84.5962 10.656C83.3642 10.656 82.6222 9.69 82.6222 8.64ZM89.8231 12H91.5031V8.332C91.5031 7.436 91.9371 6.624 93.0431 6.624C94.2191 6.624 94.2751 7.856 94.2751 8.598V12H95.9551V7.758C95.9551 6.386 95.3111 5.112 93.5051 5.112C92.3851 5.112 91.7551 5.686 91.4471 6.358H91.4191V5.28H89.8231V12ZM97.8622 11.02C97.8622 11.622 98.3942 12.084 98.9822 12.084C99.5982 12.084 100.102 11.594 100.102 10.992C100.102 10.39 99.5842 9.928 98.9822 9.928C98.3662 9.928 97.8622 10.418 97.8622 11.02ZM97.8622 6.274C97.8622 6.876 98.3942 7.338 98.9822 7.338C99.5982 7.338 100.102 6.848 100.102 6.246C100.102 5.644 99.5842 5.182 98.9822 5.182C98.3662 5.182 97.8622 5.672 97.8622 6.274ZM109.045 12H110.571L114.575 2.088H112.671L109.885 9.578L107.183 2.088H105.153L109.045 12ZM121.188 9.228V8.766C121.188 6.428 119.914 5.112 118.038 5.112C116.008 5.112 114.384 6.526 114.384 8.64C114.384 10.754 116.008 12.168 118.038 12.168C119.102 12.168 120.096 11.79 120.88 10.824L119.676 9.914C119.256 10.432 118.71 10.824 117.87 10.824C116.932 10.824 116.176 10.222 116.064 9.228H121.188ZM116.064 7.968C116.19 7.002 116.806 6.372 117.8 6.372C118.85 6.372 119.494 6.988 119.508 7.968H116.064ZM122.759 12H124.439V8.402C124.439 8.038 124.663 6.708 126.245 6.708C126.511 6.708 126.777 6.764 127.057 6.834V5.21C126.861 5.154 126.665 5.112 126.455 5.112C125.573 5.112 124.831 5.574 124.467 6.344H124.439V5.28H122.759V12ZM128.802 6.708V9.788C128.802 11.37 129.222 12.168 131 12.168C131.392 12.168 131.98 12.112 132.33 11.944V10.53C132.12 10.684 131.714 10.74 131.42 10.74C130.678 10.74 130.482 10.32 130.482 9.648V6.708H132.33V5.28H130.482V3.334H128.802V5.28H127.416V6.708H128.802ZM133.669 12H135.349V5.28H133.669V12ZM133.431 2.998C133.431 3.53 133.879 4.006 134.495 4.006C135.111 4.006 135.587 3.572 135.587 2.998C135.587 2.424 135.111 1.99 134.495 1.99C133.879 1.99 133.431 2.466 133.431 2.998ZM143.032 6.134C142.388 5.42 141.45 5.112 140.596 5.112C138.566 5.112 136.942 6.526 136.942 8.64C136.942 10.754 138.566 12.168 140.596 12.168C141.184 12.168 142.332 11.916 143.018 11.23L141.898 10.026C141.59 10.432 141.114 10.656 140.596 10.656C139.364 10.656 138.622 9.69 138.622 8.64C138.622 7.59 139.364 6.624 140.596 6.624C141.044 6.624 141.478 6.89 141.87 7.296L143.032 6.134ZM148.232 12H149.744V8.136C149.744 7.184 149.744 5.112 146.874 5.112C145.81 5.112 144.76 5.434 144.018 6.19L144.9 7.072C145.348 6.652 145.992 6.372 146.692 6.372C147.588 6.372 148.232 6.806 148.232 7.632V7.814H147.812C146.132 7.814 143.584 7.968 143.584 10.152C143.584 11.482 144.788 12.168 146.034 12.168C146.93 12.168 147.714 11.832 148.19 11.076H148.232V12ZM148.134 9.368C148.134 10.306 147.588 10.908 146.44 10.908C145.894 10.908 145.264 10.642 145.264 10.026C145.264 9.06 146.86 8.99 147.784 8.99H148.134V9.368ZM151.58 12H153.26V1.416H151.58V12ZM40.136 29H41.9V20.684H44.938V19.088H37.098V20.684H40.136V29ZM46.3925 29.056L46.0705 29.854C45.7905 30.554 45.5665 30.848 44.7405 30.848C44.4465 30.848 44.1525 30.778 43.8865 30.68L43.6765 32.192C44.0965 32.304 44.5305 32.36 44.9645 32.36C46.4485 32.36 47.0365 31.702 47.5265 30.442L50.7045 22.28H48.9545L47.2745 26.942H47.2465L45.3705 22.28H43.5225L46.3925 29.056ZM51.6922 32.192H53.3722V28.146H53.4142C53.7642 28.58 54.4362 29.168 55.6962 29.168C57.6142 29.168 58.9442 27.628 58.9442 25.64C58.9442 23.652 57.6982 22.112 55.6262 22.112C54.6882 22.112 53.8062 22.476 53.3162 23.288H53.2882V22.28H51.6922V32.192ZM57.2642 25.64C57.2642 26.69 56.5222 27.656 55.2902 27.656C54.0582 27.656 53.3162 26.69 53.3162 25.64C53.3162 24.59 54.0582 23.624 55.2902 23.624C56.5222 23.624 57.2642 24.59 57.2642 25.64ZM66.9786 26.228V25.766C66.9786 23.428 65.7046 22.112 63.8286 22.112C61.7986 22.112 60.1746 23.526 60.1746 25.64C60.1746 27.754 61.7986 29.168 63.8286 29.168C64.8926 29.168 65.8866 28.79 66.6706 27.824L65.4666 26.914C65.0466 27.432 64.5006 27.824 63.6606 27.824C62.7226 27.824 61.9666 27.222 61.8546 26.228H66.9786ZM61.8546 24.968C61.9806 24.002 62.5966 23.372 63.5906 23.372C64.6406 23.372 65.2846 23.988 65.2986 24.968H61.8546ZM68.5497 28.02C68.5497 28.622 69.0817 29.084 69.6697 29.084C70.2857 29.084 70.7897 28.594 70.7897 27.992C70.7897 27.39 70.2717 26.928 69.6697 26.928C69.0537 26.928 68.5497 27.418 68.5497 28.02ZM68.5497 23.274C68.5497 23.876 69.0817 24.338 69.6697 24.338C70.2857 24.338 70.7897 23.848 70.7897 23.246C70.7897 22.644 70.2717 22.182 69.6697 22.182C69.0537 22.182 68.5497 22.672 68.5497 23.274ZM76.9888 29H80.6848C83.0648 29 85.9348 27.432 85.9348 24.044C85.9348 20.684 83.4988 19.088 80.8948 19.088H76.9888V29ZM78.7528 27.404V20.684H80.3628C82.5188 20.684 84.0868 21.636 84.0868 24.044C84.0868 26.452 82.2808 27.404 80.0688 27.404H78.7528ZM91.6579 29H93.1699V25.136C93.1699 24.184 93.1699 22.112 90.2999 22.112C89.2359 22.112 88.1859 22.434 87.4439 23.19L88.3259 24.072C88.7739 23.652 89.4179 23.372 90.1179 23.372C91.0139 23.372 91.6579 23.806 91.6579 24.632V24.814H91.2379C89.5579 24.814 87.0099 24.968 87.0099 27.152C87.0099 28.482 88.2139 29.168 89.4599 29.168C90.3559 29.168 91.1399 28.832 91.6159 28.076H91.6579V29ZM91.5599 26.368C91.5599 27.306 91.0139 27.908 89.8659 27.908C89.3199 27.908 88.6899 27.642 88.6899 27.026C88.6899 26.06 90.2859 25.99 91.2099 25.99H91.5599V26.368ZM95.5794 23.708V26.788C95.5794 28.37 95.9994 29.168 97.7774 29.168C98.1694 29.168 98.7574 29.112 99.1074 28.944V27.53C98.8974 27.684 98.4914 27.74 98.1974 27.74C97.4554 27.74 97.2594 27.32 97.2594 26.648V23.708H99.1074V22.28H97.2594V20.334H95.5794V22.28H94.1934V23.708H95.5794ZM106.887 26.228V25.766C106.887 23.428 105.613 22.112 103.737 22.112C101.707 22.112 100.083 23.526 100.083 25.64C100.083 27.754 101.707 29.168 103.737 29.168C104.801 29.168 105.795 28.79 106.579 27.824L105.375 26.914C104.955 27.432 104.409 27.824 103.569 27.824C102.631 27.824 101.875 27.222 101.763 26.228H106.887ZM101.763 24.968C101.889 24.002 102.505 23.372 103.499 23.372C104.549 23.372 105.193 23.988 105.207 24.968H101.763Z" fill="black"/>
<circle cx="96" cy="58" r="7" stroke="#6B778C" stroke-width="2"/>
<path d="M6.44234 51.588H5.42034L2.76034 53.744L3.46034 54.598L5.23834 53.1H5.26634V61.5H6.44234V51.588ZM9.88164 61.5H16.2656V60.408H11.2116V60.38L14.2636 57.51C15.2576 56.572 16.1956 55.69 16.1956 54.108C16.1956 52.344 14.8096 51.42 13.1716 51.42C11.5756 51.42 10.3296 52.274 10.0636 53.898L11.3376 54.01C11.5196 53.058 12.2196 52.428 13.2136 52.428C14.2076 52.428 15.0196 53.072 15.0196 54.108C15.0196 55.074 14.5576 55.606 13.6196 56.516L9.88164 60.156V61.5ZM22.0989 51.336L21.2169 51L17.0029 61.752L17.8849 62.102L22.0989 51.336ZM27.1826 51.588H26.1606L23.5006 53.744L24.2006 54.598L25.9786 53.1H26.0066V61.5H27.1826V51.588ZM30.4539 56.544C30.4539 58.798 31.0839 61.668 33.8139 61.668C36.5439 61.668 37.1739 58.798 37.1739 56.544C37.1739 54.29 36.5439 51.42 33.8139 51.42C31.0839 51.42 30.4539 54.29 30.4539 56.544ZM31.6299 56.544C31.6299 55.088 31.8539 52.428 33.8139 52.428C35.7739 52.428 35.9979 55.088 35.9979 56.544C35.9979 58 35.7739 60.66 33.8139 60.66C31.8539 60.66 31.6299 58 31.6299 56.544ZM42.8392 51.336L41.9572 51L37.7432 61.752L38.6252 62.102L42.8392 51.336ZM43.5828 61.5H49.9668V60.408H44.9128V60.38L47.9648 57.51C48.9588 56.572 49.8968 55.69 49.8968 54.108C49.8968 52.344 48.5108 51.42 46.8728 51.42C45.2768 51.42 44.0308 52.274 43.7648 53.898L45.0388 54.01C45.2208 53.058 45.9208 52.428 46.9148 52.428C47.9088 52.428 48.7208 53.072 48.7208 54.108C48.7208 55.074 48.2588 55.606 47.3208 56.516L43.5828 60.156V61.5ZM51.1941 56.544C51.1941 58.798 51.8241 61.668 54.5541 61.668C57.2841 61.668 57.9141 58.798 57.9141 56.544C57.9141 54.29 57.2841 51.42 54.5541 51.42C51.8241 51.42 51.1941 54.29 51.1941 56.544ZM52.3701 56.544C52.3701 55.088 52.5941 52.428 54.5541 52.428C56.5141 52.428 56.7381 55.088 56.7381 56.544C56.7381 58 56.5141 60.66 54.5541 60.66C52.5941 60.66 52.3701 58 52.3701 56.544ZM61.2974 56.796H61.6614C62.8794 56.796 64.1674 57.258 64.1674 58.714C64.1674 59.862 63.2714 60.66 62.1514 60.66C61.0594 60.66 60.4854 60.254 60.1494 59.19L58.9594 59.582C59.4634 61.052 60.6534 61.668 62.1514 61.668C63.9154 61.668 65.4274 60.688 65.4274 58.798C65.4274 57.552 64.6574 56.516 63.3974 56.306V56.278C64.3914 55.97 65.0914 55.046 65.0914 54.01C65.0914 52.302 63.7194 51.42 62.1374 51.42C60.8774 51.42 59.7434 51.98 59.2674 53.1L60.4014 53.534C60.7514 52.806 61.3954 52.428 62.2214 52.428C63.2154 52.428 63.9154 53.058 63.9154 54.066C63.9154 55.564 62.6414 55.788 61.6614 55.788H61.2974V56.796ZM66.7527 56.544C66.7527 58.798 67.3827 61.668 70.1127 61.668C72.8427 61.668 73.4727 58.798 73.4727 56.544C73.4727 54.29 72.8427 51.42 70.1127 51.42C67.3827 51.42 66.7527 54.29 66.7527 56.544ZM67.9287 56.544C67.9287 55.088 68.1527 52.428 70.1127 52.428C72.0727 52.428 72.2967 55.088 72.2967 56.544C72.2967 58 72.0727 60.66 70.1127 60.66C68.1527 60.66 67.9287 58 67.9287 56.544Z" fill="#6B778C"/>
<path d="M119.408 62H126.816V60.752H120.752V56.72H126.144V55.472H120.752V51.92H126.528V50.672H119.408V62ZM135.036 54.512H133.692L131.468 60.384H131.436L129.1 54.512H127.644L130.7 62H132.076L135.036 54.512ZM142.131 59.904C141.539 60.656 140.819 61.04 139.747 61.04C138.387 61.04 137.395 59.936 137.299 58.64H143.347V58.24C143.347 55.76 141.907 54.32 139.795 54.32C137.587 54.32 135.955 55.936 135.955 58.256C135.955 60.432 137.395 62.192 139.747 62.192C141.139 62.192 142.195 61.776 143.075 60.64L142.131 59.904ZM137.299 57.584C137.459 56.32 138.371 55.472 139.747 55.472C141.123 55.472 141.955 56.32 142.003 57.584H137.299ZM145.278 62H146.526V58.352C146.526 56.64 147.23 55.472 148.846 55.472C150.014 55.472 150.558 56.256 150.558 57.504V62H151.806V57.376C151.806 55.568 150.926 54.32 148.958 54.32C147.726 54.32 146.798 55.008 146.462 55.744H146.43C146.43 55.328 146.398 54.912 146.398 54.512H145.214C145.214 55.008 145.278 55.6 145.278 56.288V62ZM158.264 54.512H156.056V52.384H154.808V54.512H153.176V55.568H154.808V59.68C154.808 61.232 155.096 62.192 156.872 62.192C157.336 62.192 157.896 62.112 158.328 61.92L158.28 60.784C157.944 60.96 157.544 61.04 157.176 61.04C156.072 61.04 156.056 60.272 156.056 59.312V55.568H158.264V54.512Z" fill="#333333"/>
<rect width="2" height="45.3333" transform="translate(95 66)" fill="#E6E6E6"/>
<circle cx="96" cy="119.334" r="7" stroke="#6B778C" stroke-width="2"/>
<path d="M6.44234 112.922H5.42034L2.76034 115.078L3.46034 115.932L5.23834 114.434H5.26634V122.834H6.44234V112.922ZM9.88164 122.834H16.2656V121.742H11.2116V121.714L14.2636 118.844C15.2576 117.906 16.1956 117.024 16.1956 115.442C16.1956 113.678 14.8096 112.754 13.1716 112.754C11.5756 112.754 10.3296 113.608 10.0636 115.232L11.3376 115.344C11.5196 114.392 12.2196 113.762 13.2136 113.762C14.2076 113.762 15.0196 114.406 15.0196 115.442C15.0196 116.408 14.5576 116.94 13.6196 117.85L9.88164 121.49V122.834ZM22.0989 112.67L21.2169 112.334L17.0029 123.086L17.8849 123.436L22.0989 112.67ZM27.1826 112.922H26.1606L23.5006 115.078L24.2006 115.932L25.9786 114.434H26.0066V122.834H27.1826V112.922ZM30.4539 117.878C30.4539 120.132 31.0839 123.002 33.8139 123.002C36.5439 123.002 37.1739 120.132 37.1739 117.878C37.1739 115.624 36.5439 112.754 33.8139 112.754C31.0839 112.754 30.4539 115.624 30.4539 117.878ZM31.6299 117.878C31.6299 116.422 31.8539 113.762 33.8139 113.762C35.7739 113.762 35.9979 116.422 35.9979 117.878C35.9979 119.334 35.7739 121.994 33.8139 121.994C31.8539 121.994 31.6299 119.334 31.6299 117.878ZM42.8392 112.67L41.9572 112.334L37.7432 123.086L38.6252 123.436L42.8392 112.67ZM43.5828 122.834H49.9668V121.742H44.9128V121.714L47.9648 118.844C48.9588 117.906 49.8968 117.024 49.8968 115.442C49.8968 113.678 48.5108 112.754 46.8728 112.754C45.2768 112.754 44.0308 113.608 43.7648 115.232L45.0388 115.344C45.2208 114.392 45.9208 113.762 46.9148 113.762C47.9088 113.762 48.7208 114.406 48.7208 115.442C48.7208 116.408 48.2588 116.94 47.3208 117.85L43.5828 121.49V122.834ZM51.1941 117.878C51.1941 120.132 51.8241 123.002 54.5541 123.002C57.2841 123.002 57.9141 120.132 57.9141 117.878C57.9141 115.624 57.2841 112.754 54.5541 112.754C51.8241 112.754 51.1941 115.624 51.1941 117.878ZM52.3701 117.878C52.3701 116.422 52.5941 113.762 54.5541 113.762C56.5141 113.762 56.7381 116.422 56.7381 117.878C56.7381 119.334 56.5141 121.994 54.5541 121.994C52.5941 121.994 52.3701 119.334 52.3701 117.878ZM61.2974 118.13H61.6614C62.8794 118.13 64.1674 118.592 64.1674 120.048C64.1674 121.196 63.2714 121.994 62.1514 121.994C61.0594 121.994 60.4854 121.588 60.1494 120.524L58.9594 120.916C59.4634 122.386 60.6534 123.002 62.1514 123.002C63.9154 123.002 65.4274 122.022 65.4274 120.132C65.4274 118.886 64.6574 117.85 63.3974 117.64V117.612C64.3914 117.304 65.0914 116.38 65.0914 115.344C65.0914 113.636 63.7194 112.754 62.1374 112.754C60.8774 112.754 59.7434 113.314 59.2674 114.434L60.4014 114.868C60.7514 114.14 61.3954 113.762 62.2214 113.762C63.2154 113.762 63.9154 114.392 63.9154 115.4C63.9154 116.898 62.6414 117.122 61.6614 117.122H61.2974V118.13ZM66.7527 117.878C66.7527 120.132 67.3827 123.002 70.1127 123.002C72.8427 123.002 73.4727 120.132 73.4727 117.878C73.4727 115.624 72.8427 112.754 70.1127 112.754C67.3827 112.754 66.7527 115.624 66.7527 117.878ZM67.9287 117.878C67.9287 116.422 68.1527 113.762 70.1127 113.762C72.0727 113.762 72.2967 116.422 72.2967 117.878C72.2967 119.334 72.0727 121.994 70.1127 121.994C68.1527 121.994 67.9287 119.334 67.9287 117.878Z" fill="#6B778C"/>
<path d="M119.408 123.334H126.816V122.086H120.752V118.054H126.144V116.806H120.752V113.254H126.528V112.006H119.408V123.334ZM135.036 115.846H133.692L131.468 121.718H131.436L129.1 115.846H127.644L130.7 123.334H132.076L135.036 115.846ZM142.131 121.238C141.539 121.99 140.819 122.374 139.747 122.374C138.387 122.374 137.395 121.27 137.299 119.974H143.347V119.574C143.347 117.094 141.907 115.654 139.795 115.654C137.587 115.654 135.955 117.27 135.955 119.59C135.955 121.766 137.395 123.526 139.747 123.526C141.139 123.526 142.195 123.11 143.075 121.974L142.131 121.238ZM137.299 118.918C137.459 117.654 138.371 116.806 139.747 116.806C141.123 116.806 141.955 117.654 142.003 118.918H137.299ZM145.278 123.334H146.526V119.686C146.526 117.974 147.23 116.806 148.846 116.806C150.014 116.806 150.558 117.59 150.558 118.838V123.334H151.806V118.71C151.806 116.902 150.926 115.654 148.958 115.654C147.726 115.654 146.798 116.342 146.462 117.078H146.43C146.43 116.662 146.398 116.246 146.398 115.846H145.214C145.214 116.342 145.278 116.934 145.278 117.622V123.334ZM158.264 115.846H156.056V113.718H154.808V115.846H153.176V116.902H154.808V121.014C154.808 122.566 155.096 123.526 156.872 123.526C157.336 123.526 157.896 123.446 158.328 123.254L158.28 122.118C157.944 122.294 157.544 122.374 157.176 122.374C156.072 122.374 156.056 121.606 156.056 120.646V116.902H158.264V115.846Z" fill="#333333"/>
<rect width="2" height="45.3333" transform="translate(95 127.334)" fill="#E6E6E6"/>
<circle cx="96" cy="180.666" r="7" stroke="#6B778C" stroke-width="2"/>
<path d="M6.44234 174.254H5.42034L2.76034 176.41L3.46034 177.264L5.23834 175.766H5.26634V184.166H6.44234V174.254ZM9.88164 184.166H16.2656V183.074H11.2116V183.046L14.2636 180.176C15.2576 179.238 16.1956 178.356 16.1956 176.774C16.1956 175.01 14.8096 174.086 13.1716 174.086C11.5756 174.086 10.3296 174.94 10.0636 176.564L11.3376 176.676C11.5196 175.724 12.2196 175.094 13.2136 175.094C14.2076 175.094 15.0196 175.738 15.0196 176.774C15.0196 177.74 14.5576 178.272 13.6196 179.182L9.88164 182.822V184.166ZM22.0989 174.002L21.2169 173.666L17.0029 184.418L17.8849 184.768L22.0989 174.002ZM27.1826 174.254H26.1606L23.5006 176.41L24.2006 177.264L25.9786 175.766H26.0066V184.166H27.1826V174.254ZM30.4539 179.21C30.4539 181.464 31.0839 184.334 33.8139 184.334C36.5439 184.334 37.1739 181.464 37.1739 179.21C37.1739 176.956 36.5439 174.086 33.8139 174.086C31.0839 174.086 30.4539 176.956 30.4539 179.21ZM31.6299 179.21C31.6299 177.754 31.8539 175.094 33.8139 175.094C35.7739 175.094 35.9979 177.754 35.9979 179.21C35.9979 180.666 35.7739 183.326 33.8139 183.326C31.8539 183.326 31.6299 180.666 31.6299 179.21ZM42.8392 174.002L41.9572 173.666L37.7432 184.418L38.6252 184.768L42.8392 174.002ZM43.5828 184.166H49.9668V183.074H44.9128V183.046L47.9648 180.176C48.9588 179.238 49.8968 178.356 49.8968 176.774C49.8968 175.01 48.5108 174.086 46.8728 174.086C45.2768 174.086 44.0308 174.94 43.7648 176.564L45.0388 176.676C45.2208 175.724 45.9208 175.094 46.9148 175.094C47.9088 175.094 48.7208 175.738 48.7208 176.774C48.7208 177.74 48.2588 178.272 47.3208 179.182L43.5828 182.822V184.166ZM51.1941 179.21C51.1941 181.464 51.8241 184.334 54.5541 184.334C57.2841 184.334 57.9141 181.464 57.9141 179.21C57.9141 176.956 57.2841 174.086 54.5541 174.086C51.8241 174.086 51.1941 176.956 51.1941 179.21ZM52.3701 179.21C52.3701 177.754 52.5941 175.094 54.5541 175.094C56.5141 175.094 56.7381 177.754 56.7381 179.21C56.7381 180.666 56.5141 183.326 54.5541 183.326C52.5941 183.326 52.3701 180.666 52.3701 179.21ZM61.2974 179.462H61.6614C62.8794 179.462 64.1674 179.924 64.1674 181.38C64.1674 182.528 63.2714 183.326 62.1514 183.326C61.0594 183.326 60.4854 182.92 60.1494 181.856L58.9594 182.248C59.4634 183.718 60.6534 184.334 62.1514 184.334C63.9154 184.334 65.4274 183.354 65.4274 181.464C65.4274 180.218 64.6574 179.182 63.3974 178.972V178.944C64.3914 178.636 65.0914 177.712 65.0914 176.676C65.0914 174.968 63.7194 174.086 62.1374 174.086C60.8774 174.086 59.7434 174.646 59.2674 175.766L60.4014 176.2C60.7514 175.472 61.3954 175.094 62.2214 175.094C63.2154 175.094 63.9154 175.724 63.9154 176.732C63.9154 178.23 62.6414 178.454 61.6614 178.454H61.2974V179.462ZM66.7527 179.21C66.7527 181.464 67.3827 184.334 70.1127 184.334C72.8427 184.334 73.4727 181.464 73.4727 179.21C73.4727 176.956 72.8427 174.086 70.1127 174.086C67.3827 174.086 66.7527 176.956 66.7527 179.21ZM67.9287 179.21C67.9287 177.754 68.1527 175.094 70.1127 175.094C72.0727 175.094 72.2967 177.754 72.2967 179.21C72.2967 180.666 72.0727 183.326 70.1127 183.326C68.1527 183.326 67.9287 180.666 67.9287 179.21Z" fill="#6B778C"/>
<path d="M119.408 184.666H126.816V183.418H120.752V179.386H126.144V178.138H120.752V174.586H126.528V173.338H119.408V184.666ZM135.036 177.178H133.692L131.468 183.05H131.436L129.1 177.178H127.644L130.7 184.666H132.076L135.036 177.178ZM142.131 182.57C141.539 183.322 140.819 183.706 139.747 183.706C138.387 183.706 137.395 182.602 137.299 181.306H143.347V180.906C143.347 178.426 141.907 176.986 139.795 176.986C137.587 176.986 135.955 178.602 135.955 180.922C135.955 183.098 137.395 184.858 139.747 184.858C141.139 184.858 142.195 184.442 143.075 183.306L142.131 182.57ZM137.299 180.25C137.459 178.986 138.371 178.138 139.747 178.138C141.123 178.138 141.955 178.986 142.003 180.25H137.299ZM145.278 184.666H146.526V181.018C146.526 179.306 147.23 178.138 148.846 178.138C150.014 178.138 150.558 178.922 150.558 180.17V184.666H151.806V180.042C151.806 178.234 150.926 176.986 148.958 176.986C147.726 176.986 146.798 177.674 146.462 178.41H146.43C146.43 177.994 146.398 177.578 146.398 177.178H145.214C145.214 177.674 145.278 178.266 145.278 178.954V184.666ZM158.264 177.178H156.056V175.05H154.808V177.178H153.176V178.234H154.808V182.346C154.808 183.898 155.096 184.858 156.872 184.858C157.336 184.858 157.896 184.778 158.328 184.586L158.28 183.45C157.944 183.626 157.544 183.706 157.176 183.706C156.072 183.706 156.056 182.938 156.056 181.978V178.234H158.264V177.178Z" fill="#333333"/>
<rect width="2" height="45.3333" transform="translate(95 188.666)" fill="#E6E6E6"/>
<circle cx="96" cy="242" r="7" stroke="#6B778C" stroke-width="2"/>
<path d="M6.44234 235.588H5.42034L2.76034 237.744L3.46034 238.598L5.23834 237.1H5.26634V245.5H6.44234V235.588ZM9.88164 245.5H16.2656V244.408H11.2116V244.38L14.2636 241.51C15.2576 240.572 16.1956 239.69 16.1956 238.108C16.1956 236.344 14.8096 235.42 13.1716 235.42C11.5756 235.42 10.3296 236.274 10.0636 237.898L11.3376 238.01C11.5196 237.058 12.2196 236.428 13.2136 236.428C14.2076 236.428 15.0196 237.072 15.0196 238.108C15.0196 239.074 14.5576 239.606 13.6196 240.516L9.88164 244.156V245.5ZM22.0989 235.336L21.2169 235L17.0029 245.752L17.8849 246.102L22.0989 235.336ZM27.1826 235.588H26.1606L23.5006 237.744L24.2006 238.598L25.9786 237.1H26.0066V245.5H27.1826V235.588ZM30.4539 240.544C30.4539 242.798 31.0839 245.668 33.8139 245.668C36.5439 245.668 37.1739 242.798 37.1739 240.544C37.1739 238.29 36.5439 235.42 33.8139 235.42C31.0839 235.42 30.4539 238.29 30.4539 240.544ZM31.6299 240.544C31.6299 239.088 31.8539 236.428 33.8139 236.428C35.7739 236.428 35.9979 239.088 35.9979 240.544C35.9979 242 35.7739 244.66 33.8139 244.66C31.8539 244.66 31.6299 242 31.6299 240.544ZM42.8392 235.336L41.9572 235L37.7432 245.752L38.6252 246.102L42.8392 235.336ZM43.5828 245.5H49.9668V244.408H44.9128V244.38L47.9648 241.51C48.9588 240.572 49.8968 239.69 49.8968 238.108C49.8968 236.344 48.5108 235.42 46.8728 235.42C45.2768 235.42 44.0308 236.274 43.7648 237.898L45.0388 238.01C45.2208 237.058 45.9208 236.428 46.9148 236.428C47.9088 236.428 48.7208 237.072 48.7208 238.108C48.7208 239.074 48.2588 239.606 47.3208 240.516L43.5828 244.156V245.5ZM51.1941 240.544C51.1941 242.798 51.8241 245.668 54.5541 245.668C57.2841 245.668 57.9141 242.798 57.9141 240.544C57.9141 238.29 57.2841 235.42 54.5541 235.42C51.8241 235.42 51.1941 238.29 51.1941 240.544ZM52.3701 240.544C52.3701 239.088 52.5941 236.428 54.5541 236.428C56.5141 236.428 56.7381 239.088 56.7381 240.544C56.7381 242 56.5141 244.66 54.5541 244.66C52.5941 244.66 52.3701 242 52.3701 240.544ZM61.2974 240.796H61.6614C62.8794 240.796 64.1674 241.258 64.1674 242.714C64.1674 243.862 63.2714 244.66 62.1514 244.66C61.0594 244.66 60.4854 244.254 60.1494 243.19L58.9594 243.582C59.4634 245.052 60.6534 245.668 62.1514 245.668C63.9154 245.668 65.4274 244.688 65.4274 242.798C65.4274 241.552 64.6574 240.516 63.3974 240.306V240.278C64.3914 239.97 65.0914 239.046 65.0914 238.01C65.0914 236.302 63.7194 235.42 62.1374 235.42C60.8774 235.42 59.7434 235.98 59.2674 237.1L60.4014 237.534C60.7514 236.806 61.3954 236.428 62.2214 236.428C63.2154 236.428 63.9154 237.058 63.9154 238.066C63.9154 239.564 62.6414 239.788 61.6614 239.788H61.2974V240.796ZM66.7527 240.544C66.7527 242.798 67.3827 245.668 70.1127 245.668C72.8427 245.668 73.4727 242.798 73.4727 240.544C73.4727 238.29 72.8427 235.42 70.1127 235.42C67.3827 235.42 66.7527 238.29 66.7527 240.544ZM67.9287 240.544C67.9287 239.088 68.1527 236.428 70.1127 236.428C72.0727 236.428 72.2967 239.088 72.2967 240.544C72.2967 242 72.0727 244.66 70.1127 244.66C68.1527 244.66 67.9287 242 67.9287 240.544Z" fill="#6B778C"/>
<path d="M119.408 246H126.816V244.752H120.752V240.72H126.144V239.472H120.752V235.92H126.528V234.672H119.408V246ZM135.036 238.512H133.692L131.468 244.384H131.436L129.1 238.512H127.644L130.7 246H132.076L135.036 238.512ZM142.131 243.904C141.539 244.656 140.819 245.04 139.747 245.04C138.387 245.04 137.395 243.936 137.299 242.64H143.347V242.24C143.347 239.76 141.907 238.32 139.795 238.32C137.587 238.32 135.955 239.936 135.955 242.256C135.955 244.432 137.395 246.192 139.747 246.192C141.139 246.192 142.195 245.776 143.075 244.64L142.131 243.904ZM137.299 241.584C137.459 240.32 138.371 239.472 139.747 239.472C141.123 239.472 141.955 240.32 142.003 241.584H137.299ZM145.278 246H146.526V242.352C146.526 240.64 147.23 239.472 148.846 239.472C150.014 239.472 150.558 240.256 150.558 241.504V246H151.806V241.376C151.806 239.568 150.926 238.32 148.958 238.32C147.726 238.32 146.798 239.008 146.462 239.744H146.43C146.43 239.328 146.398 238.912 146.398 238.512H145.214C145.214 239.008 145.278 239.6 145.278 240.288V246ZM158.264 238.512H156.056V236.384H154.808V238.512H153.176V239.568H154.808V243.68C154.808 245.232 155.096 246.192 156.872 246.192C157.336 246.192 157.896 246.112 158.328 245.92L158.28 244.784C157.944 244.96 157.544 245.04 157.176 245.04C156.072 245.04 156.056 244.272 156.056 243.312V239.568H158.264V238.512Z" fill="#333333"/>
<path d="M38.106 330H41.802C44.182 330 47.052 328.432 47.052 325.044C47.052 321.684 44.616 320.088 42.012 320.088H38.106V330ZM39.87 328.404V321.684H41.48C43.636 321.684 45.204 322.636 45.204 325.044C45.204 327.452 43.398 328.404 41.186 328.404H39.87ZM48.603 330H50.283V323.28H48.603V330ZM48.365 320.998C48.365 321.53 48.813 322.006 49.429 322.006C50.045 322.006 50.521 321.572 50.521 320.998C50.521 320.424 50.045 319.99 49.429 319.99C48.813 319.99 48.365 320.466 48.365 320.998ZM52.2118 330H53.8918V326.402C53.8918 326.038 54.1158 324.708 55.6978 324.708C55.9638 324.708 56.2298 324.764 56.5098 324.834V323.21C56.3138 323.154 56.1178 323.112 55.9078 323.112C55.0258 323.112 54.2838 323.574 53.9198 324.344H53.8918V323.28H52.2118V330ZM63.8751 327.228V326.766C63.8751 324.428 62.6011 323.112 60.7251 323.112C58.6951 323.112 57.0711 324.526 57.0711 326.64C57.0711 328.754 58.6951 330.168 60.7251 330.168C61.7891 330.168 62.7831 329.79 63.5671 328.824L62.3631 327.914C61.9431 328.432 61.3971 328.824 60.5571 328.824C59.6191 328.824 58.8631 328.222 58.7511 327.228H63.8751ZM58.7511 325.968C58.8771 325.002 59.4931 324.372 60.4871 324.372C61.5371 324.372 62.1811 324.988 62.1951 325.968H58.7511ZM71.2001 324.134C70.5561 323.42 69.6181 323.112 68.7641 323.112C66.7341 323.112 65.1101 324.526 65.1101 326.64C65.1101 328.754 66.7341 330.168 68.7641 330.168C69.3521 330.168 70.5001 329.916 71.1861 329.23L70.0661 328.026C69.7581 328.432 69.2821 328.656 68.7641 328.656C67.5321 328.656 66.7901 327.69 66.7901 326.64C66.7901 325.59 67.5321 324.624 68.7641 324.624C69.2121 324.624 69.6461 324.89 70.0381 325.296L71.2001 324.134ZM72.802 324.708V327.788C72.802 329.37 73.222 330.168 75 330.168C75.392 330.168 75.98 330.112 76.33 329.944V328.53C76.12 328.684 75.714 328.74 75.42 328.74C74.678 328.74 74.482 328.32 74.482 327.648V324.708H76.33V323.28H74.482V321.334H72.802V323.28H71.416V324.708H72.802ZM77.6695 330H79.3495V323.28H77.6695V330ZM77.4315 320.998C77.4315 321.53 77.8795 322.006 78.4955 322.006C79.1115 322.006 79.5875 321.572 79.5875 320.998C79.5875 320.424 79.1115 319.99 78.4955 319.99C77.8795 319.99 77.4315 320.466 77.4315 320.998ZM80.9422 326.64C80.9422 328.754 82.5662 330.168 84.5962 330.168C86.6262 330.168 88.2502 328.754 88.2502 326.64C88.2502 324.526 86.6262 323.112 84.5962 323.112C82.5662 323.112 80.9422 324.526 80.9422 326.64ZM82.6222 326.64C82.6222 325.59 83.3642 324.624 84.5962 324.624C85.8282 324.624 86.5702 325.59 86.5702 326.64C86.5702 327.69 85.8282 328.656 84.5962 328.656C83.3642 328.656 82.6222 327.69 82.6222 326.64ZM89.8231 330H91.5031V326.332C91.5031 325.436 91.9371 324.624 93.0431 324.624C94.2191 324.624 94.2751 325.856 94.2751 326.598V330H95.9551V325.758C95.9551 324.386 95.3111 323.112 93.5051 323.112C92.3851 323.112 91.7551 323.686 91.4471 324.358H91.4191V323.28H89.8231V330ZM97.8622 329.02C97.8622 329.622 98.3942 330.084 98.9822 330.084C99.5982 330.084 100.102 329.594 100.102 328.992C100.102 328.39 99.5842 327.928 98.9822 327.928C98.3662 327.928 97.8622 328.418 97.8622 329.02ZM97.8622 324.274C97.8622 324.876 98.3942 325.338 98.9822 325.338C99.5982 325.338 100.102 324.848 100.102 324.246C100.102 323.644 99.5842 323.182 98.9822 323.182C98.3662 323.182 97.8622 323.672 97.8622 324.274ZM106.301 330H108.065V325.632H112.699V330H114.463V320.088H112.699V324.036H108.065V320.088H106.301V330ZM116.188 326.64C116.188 328.754 117.812 330.168 119.842 330.168C121.872 330.168 123.496 328.754 123.496 326.64C123.496 324.526 121.872 323.112 119.842 323.112C117.812 323.112 116.188 324.526 116.188 326.64ZM117.868 326.64C117.868 325.59 118.61 324.624 119.842 324.624C121.074 324.624 121.816 325.59 121.816 326.64C121.816 327.69 121.074 328.656 119.842 328.656C118.61 328.656 117.868 327.69 117.868 326.64ZM125.069 330H126.749V326.402C126.749 326.038 126.973 324.708 128.555 324.708C128.821 324.708 129.087 324.764 129.367 324.834V323.21C129.171 323.154 128.975 323.112 128.765 323.112C127.883 323.112 127.141 323.574 126.777 324.344H126.749V323.28H125.069V330ZM130.539 330H132.219V323.28H130.539V330ZM130.301 320.998C130.301 321.53 130.749 322.006 131.365 322.006C131.981 322.006 132.457 321.572 132.457 320.998C132.457 320.424 131.981 319.99 131.365 319.99C130.749 319.99 130.301 320.466 130.301 320.998ZM133.671 330H139.467V328.656H135.659L139.299 324.806V323.28H133.839V324.624H137.269V324.652L133.671 328.446V330ZM140.565 326.64C140.565 328.754 142.189 330.168 144.219 330.168C146.249 330.168 147.873 328.754 147.873 326.64C147.873 324.526 146.249 323.112 144.219 323.112C142.189 323.112 140.565 324.526 140.565 326.64ZM142.245 326.64C142.245 325.59 142.987 324.624 144.219 324.624C145.451 324.624 146.193 325.59 146.193 326.64C146.193 327.69 145.451 328.656 144.219 328.656C142.987 328.656 142.245 327.69 142.245 326.64ZM149.446 330H151.126V326.332C151.126 325.436 151.56 324.624 152.666 324.624C153.842 324.624 153.898 325.856 153.898 326.598V330H155.578V325.758C155.578 324.386 154.934 323.112 153.128 323.112C152.008 323.112 151.378 323.686 151.07 324.358H151.042V323.28H149.446V330ZM158.087 324.708V327.788C158.087 329.37 158.507 330.168 160.285 330.168C160.677 330.168 161.265 330.112 161.615 329.944V328.53C161.405 328.684 160.999 328.74 160.705 328.74C159.963 328.74 159.767 328.32 159.767 327.648V324.708H161.615V323.28H159.767V321.334H158.087V323.28H156.701V324.708H158.087ZM167.127 330H168.639V326.136C168.639 325.184 168.639 323.112 165.769 323.112C164.705 323.112 163.655 323.434 162.913 324.19L163.795 325.072C164.243 324.652 164.887 324.372 165.587 324.372C166.483 324.372 167.127 324.806 167.127 325.632V325.814H166.707C165.027 325.814 162.479 325.968 162.479 328.152C162.479 329.482 163.683 330.168 164.929 330.168C165.825 330.168 166.609 329.832 167.085 329.076H167.127V330ZM167.029 327.368C167.029 328.306 166.483 328.908 165.335 328.908C164.789 328.908 164.159 328.642 164.159 328.026C164.159 327.06 165.755 326.99 166.679 326.99H167.029V327.368ZM170.474 330H172.154V319.416H170.474V330ZM40.136 347H41.9V338.684H44.938V337.088H37.098V338.684H40.136V347ZM46.3925 347.056L46.0705 347.854C45.7905 348.554 45.5665 348.848 44.7405 348.848C44.4465 348.848 44.1525 348.778 43.8865 348.68L43.6765 350.192C44.0965 350.304 44.5305 350.36 44.9645 350.36C46.4485 350.36 47.0365 349.702 47.5265 348.442L50.7045 340.28H48.9545L47.2745 344.942H47.2465L45.3705 340.28H43.5225L46.3925 347.056ZM51.6922 350.192H53.3722V346.146H53.4142C53.7642 346.58 54.4362 347.168 55.6962 347.168C57.6142 347.168 58.9442 345.628 58.9442 343.64C58.9442 341.652 57.6982 340.112 55.6262 340.112C54.6882 340.112 53.8062 340.476 53.3162 341.288H53.2882V340.28H51.6922V350.192ZM57.2642 343.64C57.2642 344.69 56.5222 345.656 55.2902 345.656C54.0582 345.656 53.3162 344.69 53.3162 343.64C53.3162 342.59 54.0582 341.624 55.2902 341.624C56.5222 341.624 57.2642 342.59 57.2642 343.64ZM66.9786 344.228V343.766C66.9786 341.428 65.7046 340.112 63.8286 340.112C61.7986 340.112 60.1746 341.526 60.1746 343.64C60.1746 345.754 61.7986 347.168 63.8286 347.168C64.8926 347.168 65.8866 346.79 66.6706 345.824L65.4666 344.914C65.0466 345.432 64.5006 345.824 63.6606 345.824C62.7226 345.824 61.9666 345.222 61.8546 344.228H66.9786ZM61.8546 342.968C61.9806 342.002 62.5966 341.372 63.5906 341.372C64.6406 341.372 65.2846 341.988 65.2986 342.968H61.8546ZM68.5497 346.02C68.5497 346.622 69.0817 347.084 69.6697 347.084C70.2857 347.084 70.7897 346.594 70.7897 345.992C70.7897 345.39 70.2717 344.928 69.6697 344.928C69.0537 344.928 68.5497 345.418 68.5497 346.02ZM68.5497 341.274C68.5497 341.876 69.0817 342.338 69.6697 342.338C70.2857 342.338 70.7897 341.848 70.7897 341.246C70.7897 340.644 70.2717 340.182 69.6697 340.182C69.0537 340.182 68.5497 340.672 68.5497 341.274ZM79.0188 347H80.7828V338.684H83.8208V337.088H75.9808V338.684H79.0188V347ZM82.9793 343.64C82.9793 345.754 84.6033 347.168 86.6333 347.168C88.6633 347.168 90.2873 345.754 90.2873 343.64C90.2873 341.526 88.6633 340.112 86.6333 340.112C84.6033 340.112 82.9793 341.526 82.9793 343.64ZM84.6593 343.64C84.6593 342.59 85.4013 341.624 86.6333 341.624C87.8653 341.624 88.6073 342.59 88.6073 343.64C88.6073 344.69 87.8653 345.656 86.6333 345.656C85.4013 345.656 84.6593 344.69 84.6593 343.64ZM91.8602 350.192H93.5402V346.146H93.5822C93.9322 346.58 94.6042 347.168 95.8642 347.168C97.7822 347.168 99.1122 345.628 99.1122 343.64C99.1122 341.652 97.8662 340.112 95.7942 340.112C94.8562 340.112 93.9742 340.476 93.4842 341.288H93.4562V340.28H91.8602V350.192ZM97.4322 343.64C97.4322 344.69 96.6902 345.656 95.4582 345.656C94.2262 345.656 93.4842 344.69 93.4842 343.64C93.4842 342.59 94.2262 341.624 95.4582 341.624C96.6902 341.624 97.4322 342.59 97.4322 343.64Z" fill="black"/>
<circle cx="45" cy="399" r="7" stroke="#6B778C" stroke-width="2"/>
<path d="M25.7986 375H33.2066V373.752H27.1426V369.72H32.5346V368.472H27.1426V364.92H32.9186V363.672H25.7986V375ZM41.427 367.512H40.083L37.859 373.384H37.827L35.491 367.512H34.035L37.091 375H38.467L41.427 367.512ZM48.5218 372.904C47.9298 373.656 47.2098 374.04 46.1378 374.04C44.7778 374.04 43.7858 372.936 43.6898 371.64H49.7378V371.24C49.7378 368.76 48.2978 367.32 46.1858 367.32C43.9778 367.32 42.3458 368.936 42.3458 371.256C42.3458 373.432 43.7858 375.192 46.1378 375.192C47.5298 375.192 48.5858 374.776 49.4658 373.64L48.5218 372.904ZM43.6898 370.584C43.8498 369.32 44.7618 368.472 46.1378 368.472C47.5138 368.472 48.3458 369.32 48.3938 370.584H43.6898ZM51.6684 375H52.9164V371.352C52.9164 369.64 53.6204 368.472 55.2364 368.472C56.4044 368.472 56.9484 369.256 56.9484 370.504V375H58.1964V370.376C58.1964 368.568 57.3164 367.32 55.3484 367.32C54.1164 367.32 53.1884 368.008 52.8524 368.744H52.8204C52.8204 368.328 52.7884 367.912 52.7884 367.512H51.6044C51.6044 368.008 51.6684 368.6 51.6684 369.288V375ZM64.655 367.512H62.447V365.384H61.199V367.512H59.567V368.568H61.199V372.68C61.199 374.232 61.487 375.192 63.263 375.192C63.727 375.192 64.287 375.112 64.719 374.92L64.671 373.784C64.335 373.96 63.935 374.04 63.567 374.04C62.463 374.04 62.447 373.272 62.447 372.312V368.568H64.655V367.512Z" fill="#333333"/>
<rect width="45.3333" height="2" transform="translate(53 398)" fill="#E6E6E6"/>
<circle cx="106.333" cy="399" r="7" stroke="#6B778C" stroke-width="2"/>
<path d="M87.1316 375H94.5396V373.752H88.4756V369.72H93.8676V368.472H88.4756V364.92H94.2516V363.672H87.1316V375ZM102.76 367.512H101.416L99.192 373.384H99.16L96.824 367.512H95.368L98.424 375H99.8L102.76 367.512ZM109.855 372.904C109.263 373.656 108.543 374.04 107.471 374.04C106.111 374.04 105.119 372.936 105.023 371.64H111.071V371.24C111.071 368.76 109.631 367.32 107.519 367.32C105.311 367.32 103.679 368.936 103.679 371.256C103.679 373.432 105.119 375.192 107.471 375.192C108.863 375.192 109.919 374.776 110.799 373.64L109.855 372.904ZM105.023 370.584C105.183 369.32 106.095 368.472 107.471 368.472C108.847 368.472 109.679 369.32 109.727 370.584H105.023ZM113.001 375H114.249V371.352C114.249 369.64 114.953 368.472 116.569 368.472C117.737 368.472 118.281 369.256 118.281 370.504V375H119.529V370.376C119.529 368.568 118.649 367.32 116.681 367.32C115.449 367.32 114.521 368.008 114.185 368.744H114.153C114.153 368.328 114.121 367.912 114.121 367.512H112.937C112.937 368.008 113.001 368.6 113.001 369.288V375ZM125.988 367.512H123.78V365.384H122.532V367.512H120.9V368.568H122.532V372.68C122.532 374.232 122.82 375.192 124.596 375.192C125.06 375.192 125.62 375.112 126.052 374.92L126.004 373.784C125.668 373.96 125.268 374.04 124.9 374.04C123.796 374.04 123.78 373.272 123.78 372.312V368.568H125.988V367.512Z" fill="#333333"/>
<rect width="45.3333" height="2" transform="translate(114.333 398)" fill="#E6E6E6"/>
<circle cx="167.667" cy="399" r="7" stroke="#6B778C" stroke-width="2"/>
<path d="M148.466 375H155.874V373.752H149.81V369.72H155.202V368.472H149.81V364.92H155.586V363.672H148.466V375ZM164.094 367.512H162.75L160.526 373.384H160.494L158.158 367.512H156.702L159.758 375H161.134L164.094 367.512ZM171.189 372.904C170.597 373.656 169.877 374.04 168.805 374.04C167.445 374.04 166.453 372.936 166.357 371.64H172.405V371.24C172.405 368.76 170.965 367.32 168.853 367.32C166.645 367.32 165.013 368.936 165.013 371.256C165.013 373.432 166.453 375.192 168.805 375.192C170.197 375.192 171.253 374.776 172.133 373.64L171.189 372.904ZM166.357 370.584C166.517 369.32 167.429 368.472 168.805 368.472C170.181 368.472 171.013 369.32 171.061 370.584H166.357ZM174.335 375H175.583V371.352C175.583 369.64 176.287 368.472 177.903 368.472C179.071 368.472 179.615 369.256 179.615 370.504V375H180.863V370.376C180.863 368.568 179.983 367.32 178.015 367.32C176.783 367.32 175.855 368.008 175.519 368.744H175.487C175.487 368.328 175.455 367.912 175.455 367.512H174.271C174.271 368.008 174.335 368.6 174.335 369.288V375ZM187.322 367.512H185.114V365.384H183.866V367.512H182.234V368.568H183.866V372.68C183.866 374.232 184.154 375.192 185.93 375.192C186.394 375.192 186.954 375.112 187.386 374.92L187.338 373.784C187.002 373.96 186.602 374.04 186.234 374.04C185.13 374.04 185.114 373.272 185.114 372.312V368.568H187.322V367.512Z" fill="#333333"/>
<rect width="45.3333" height="2" transform="translate(175.667 398)" fill="#E6E6E6"/>
<circle cx="229" cy="399" r="7" stroke="#6B778C" stroke-width="2"/>
<path d="M209.799 375H217.207V373.752H211.143V369.72H216.535V368.472H211.143V364.92H216.919V363.672H209.799V375ZM225.427 367.512H224.083L221.859 373.384H221.827L219.491 367.512H218.035L221.091 375H222.467L225.427 367.512ZM232.522 372.904C231.93 373.656 231.21 374.04 230.138 374.04C228.778 374.04 227.786 372.936 227.69 371.64H233.738V371.24C233.738 368.76 232.298 367.32 230.186 367.32C227.978 367.32 226.346 368.936 226.346 371.256C226.346 373.432 227.786 375.192 230.138 375.192C231.53 375.192 232.586 374.776 233.466 373.64L232.522 372.904ZM227.69 370.584C227.85 369.32 228.762 368.472 230.138 368.472C231.514 368.472 232.346 369.32 232.394 370.584H227.69ZM235.668 375H236.916V371.352C236.916 369.64 237.62 368.472 239.236 368.472C240.404 368.472 240.948 369.256 240.948 370.504V375H242.196V370.376C242.196 368.568 241.316 367.32 239.348 367.32C238.116 367.32 237.188 368.008 236.852 368.744H236.82C236.82 368.328 236.788 367.912 236.788 367.512H235.604C235.604 368.008 235.668 368.6 235.668 369.288V375ZM248.655 367.512H246.447V365.384H245.199V367.512H243.567V368.568H245.199V372.68C245.199 374.232 245.487 375.192 247.263 375.192C247.727 375.192 248.287 375.112 248.719 374.92L248.671 373.784C248.335 373.96 247.935 374.04 247.567 374.04C246.463 374.04 246.447 373.272 246.447 372.312V368.568H248.655V367.512Z" fill="#333333"/>
<path d="M38.106 441H41.802C44.182 441 47.052 439.432 47.052 436.044C47.052 432.684 44.616 431.088 42.012 431.088H38.106V441ZM39.87 439.404V432.684H41.48C43.636 432.684 45.204 433.636 45.204 436.044C45.204 438.452 43.398 439.404 41.186 439.404H39.87ZM48.603 441H50.283V434.28H48.603V441ZM48.365 431.998C48.365 432.53 48.813 433.006 49.429 433.006C50.045 433.006 50.521 432.572 50.521 431.998C50.521 431.424 50.045 430.99 49.429 430.99C48.813 430.99 48.365 431.466 48.365 431.998ZM52.2118 441H53.8918V437.402C53.8918 437.038 54.1158 435.708 55.6978 435.708C55.9638 435.708 56.2298 435.764 56.5098 435.834V434.21C56.3138 434.154 56.1178 434.112 55.9078 434.112C55.0258 434.112 54.2838 434.574 53.9198 435.344H53.8918V434.28H52.2118V441ZM63.8751 438.228V437.766C63.8751 435.428 62.6011 434.112 60.7251 434.112C58.6951 434.112 57.0711 435.526 57.0711 437.64C57.0711 439.754 58.6951 441.168 60.7251 441.168C61.7891 441.168 62.7831 440.79 63.5671 439.824L62.3631 438.914C61.9431 439.432 61.3971 439.824 60.5571 439.824C59.6191 439.824 58.8631 439.222 58.7511 438.228H63.8751ZM58.7511 436.968C58.8771 436.002 59.4931 435.372 60.4871 435.372C61.5371 435.372 62.1811 435.988 62.1951 436.968H58.7511ZM71.2001 435.134C70.5561 434.42 69.6181 434.112 68.7641 434.112C66.7341 434.112 65.1101 435.526 65.1101 437.64C65.1101 439.754 66.7341 441.168 68.7641 441.168C69.3521 441.168 70.5001 440.916 71.1861 440.23L70.0661 439.026C69.7581 439.432 69.2821 439.656 68.7641 439.656C67.5321 439.656 66.7901 438.69 66.7901 437.64C66.7901 436.59 67.5321 435.624 68.7641 435.624C69.2121 435.624 69.6461 435.89 70.0381 436.296L71.2001 435.134ZM72.802 435.708V438.788C72.802 440.37 73.222 441.168 75 441.168C75.392 441.168 75.98 441.112 76.33 440.944V439.53C76.12 439.684 75.714 439.74 75.42 439.74C74.678 439.74 74.482 439.32 74.482 438.648V435.708H76.33V434.28H74.482V432.334H72.802V434.28H71.416V435.708H72.802ZM77.6695 441H79.3495V434.28H77.6695V441ZM77.4315 431.998C77.4315 432.53 77.8795 433.006 78.4955 433.006C79.1115 433.006 79.5875 432.572 79.5875 431.998C79.5875 431.424 79.1115 430.99 78.4955 430.99C77.8795 430.99 77.4315 431.466 77.4315 431.998ZM80.9422 437.64C80.9422 439.754 82.5662 441.168 84.5962 441.168C86.6262 441.168 88.2502 439.754 88.2502 437.64C88.2502 435.526 86.6262 434.112 84.5962 434.112C82.5662 434.112 80.9422 435.526 80.9422 437.64ZM82.6222 437.64C82.6222 436.59 83.3642 435.624 84.5962 435.624C85.8282 435.624 86.5702 436.59 86.5702 437.64C86.5702 438.69 85.8282 439.656 84.5962 439.656C83.3642 439.656 82.6222 438.69 82.6222 437.64ZM89.8231 441H91.5031V437.332C91.5031 436.436 91.9371 435.624 93.0431 435.624C94.2191 435.624 94.2751 436.856 94.2751 437.598V441H95.9551V436.758C95.9551 435.386 95.3111 434.112 93.5051 434.112C92.3851 434.112 91.7551 434.686 91.4471 435.358H91.4191V434.28H89.8231V441ZM97.8622 440.02C97.8622 440.622 98.3942 441.084 98.9822 441.084C99.5982 441.084 100.102 440.594 100.102 439.992C100.102 439.39 99.5842 438.928 98.9822 438.928C98.3662 438.928 97.8622 439.418 97.8622 440.02ZM97.8622 435.274C97.8622 435.876 98.3942 436.338 98.9822 436.338C99.5982 436.338 100.102 435.848 100.102 435.246C100.102 434.644 99.5842 434.182 98.9822 434.182C98.3662 434.182 97.8622 434.672 97.8622 435.274ZM106.301 441H108.065V436.632H112.699V441H114.463V431.088H112.699V435.036H108.065V431.088H106.301V441ZM116.188 437.64C116.188 439.754 117.812 441.168 119.842 441.168C121.872 441.168 123.496 439.754 123.496 437.64C123.496 435.526 121.872 434.112 119.842 434.112C117.812 434.112 116.188 435.526 116.188 437.64ZM117.868 437.64C117.868 436.59 118.61 435.624 119.842 435.624C121.074 435.624 121.816 436.59 121.816 437.64C121.816 438.69 121.074 439.656 119.842 439.656C118.61 439.656 117.868 438.69 117.868 437.64ZM125.069 441H126.749V437.402C126.749 437.038 126.973 435.708 128.555 435.708C128.821 435.708 129.087 435.764 129.367 435.834V434.21C129.171 434.154 128.975 434.112 128.765 434.112C127.883 434.112 127.141 434.574 126.777 435.344H126.749V434.28H125.069V441ZM130.539 441H132.219V434.28H130.539V441ZM130.301 431.998C130.301 432.53 130.749 433.006 131.365 433.006C131.981 433.006 132.457 432.572 132.457 431.998C132.457 431.424 131.981 430.99 131.365 430.99C130.749 430.99 130.301 431.466 130.301 431.998ZM133.671 441H139.467V439.656H135.659L139.299 435.806V434.28H133.839V435.624H137.269V435.652L133.671 439.446V441ZM140.565 437.64C140.565 439.754 142.189 441.168 144.219 441.168C146.249 441.168 147.873 439.754 147.873 437.64C147.873 435.526 146.249 434.112 144.219 434.112C142.189 434.112 140.565 435.526 140.565 437.64ZM142.245 437.64C142.245 436.59 142.987 435.624 144.219 435.624C145.451 435.624 146.193 436.59 146.193 437.64C146.193 438.69 145.451 439.656 144.219 439.656C142.987 439.656 142.245 438.69 142.245 437.64ZM149.446 441H151.126V437.332C151.126 436.436 151.56 435.624 152.666 435.624C153.842 435.624 153.898 436.856 153.898 437.598V441H155.578V436.758C155.578 435.386 154.934 434.112 153.128 434.112C152.008 434.112 151.378 434.686 151.07 435.358H151.042V434.28H149.446V441ZM158.087 435.708V438.788C158.087 440.37 158.507 441.168 160.285 441.168C160.677 441.168 161.265 441.112 161.615 440.944V439.53C161.405 439.684 160.999 439.74 160.705 439.74C159.963 439.74 159.767 439.32 159.767 438.648V435.708H161.615V434.28H159.767V432.334H158.087V434.28H156.701V435.708H158.087ZM167.127 441H168.639V437.136C168.639 436.184 168.639 434.112 165.769 434.112C164.705 434.112 163.655 434.434 162.913 435.19L163.795 436.072C164.243 435.652 164.887 435.372 165.587 435.372C166.483 435.372 167.127 435.806 167.127 436.632V436.814H166.707C165.027 436.814 162.479 436.968 162.479 439.152C162.479 440.482 163.683 441.168 164.929 441.168C165.825 441.168 166.609 440.832 167.085 440.076H167.127V441ZM167.029 438.368C167.029 439.306 166.483 439.908 165.335 439.908C164.789 439.908 164.159 439.642 164.159 439.026C164.159 438.06 165.755 437.99 166.679 437.99H167.029V438.368ZM170.474 441H172.154V430.416H170.474V441ZM40.136 458H41.9V449.684H44.938V448.088H37.098V449.684H40.136V458ZM46.3925 458.056L46.0705 458.854C45.7905 459.554 45.5665 459.848 44.7405 459.848C44.4465 459.848 44.1525 459.778 43.8865 459.68L43.6765 461.192C44.0965 461.304 44.5305 461.36 44.9645 461.36C46.4485 461.36 47.0365 460.702 47.5265 459.442L50.7045 451.28H48.9545L47.2745 455.942H47.2465L45.3705 451.28H43.5225L46.3925 458.056ZM51.6922 461.192H53.3722V457.146H53.4142C53.7642 457.58 54.4362 458.168 55.6962 458.168C57.6142 458.168 58.9442 456.628 58.9442 454.64C58.9442 452.652 57.6982 451.112 55.6262 451.112C54.6882 451.112 53.8062 451.476 53.3162 452.288H53.2882V451.28H51.6922V461.192ZM57.2642 454.64C57.2642 455.69 56.5222 456.656 55.2902 456.656C54.0582 456.656 53.3162 455.69 53.3162 454.64C53.3162 453.59 54.0582 452.624 55.2902 452.624C56.5222 452.624 57.2642 453.59 57.2642 454.64ZM66.9786 455.228V454.766C66.9786 452.428 65.7046 451.112 63.8286 451.112C61.7986 451.112 60.1746 452.526 60.1746 454.64C60.1746 456.754 61.7986 458.168 63.8286 458.168C64.8926 458.168 65.8866 457.79 66.6706 456.824L65.4666 455.914C65.0466 456.432 64.5006 456.824 63.6606 456.824C62.7226 456.824 61.9666 456.222 61.8546 455.228H66.9786ZM61.8546 453.968C61.9806 453.002 62.5966 452.372 63.5906 452.372C64.6406 452.372 65.2846 452.988 65.2986 453.968H61.8546ZM68.5497 457.02C68.5497 457.622 69.0817 458.084 69.6697 458.084C70.2857 458.084 70.7897 457.594 70.7897 456.992C70.7897 456.39 70.2717 455.928 69.6697 455.928C69.0537 455.928 68.5497 456.418 68.5497 457.02ZM68.5497 452.274C68.5497 452.876 69.0817 453.338 69.6697 453.338C70.2857 453.338 70.7897 452.848 70.7897 452.246C70.7897 451.644 70.2717 451.182 69.6697 451.182C69.0537 451.182 68.5497 451.672 68.5497 452.274ZM76.9888 458H80.5588C82.4348 458 84.3108 457.328 84.3108 455.172C84.3108 453.898 83.4148 452.918 82.1688 452.778V452.75C83.1908 452.442 83.8908 451.7 83.8908 450.58C83.8908 448.774 82.3508 448.088 80.8528 448.088H76.9888V458ZM78.7528 449.6H80.2088C81.5388 449.6 82.1268 450.02 82.1268 450.874C82.1268 451.616 81.5388 452.12 80.3628 452.12H78.7528V449.6ZM78.7528 453.632H80.4468C81.8748 453.632 82.5468 453.996 82.5468 455.032C82.5468 456.334 81.2868 456.488 80.3768 456.488H78.7528V453.632ZM85.5769 454.64C85.5769 456.754 87.2009 458.168 89.2309 458.168C91.2609 458.168 92.8849 456.754 92.8849 454.64C92.8849 452.526 91.2609 451.112 89.2309 451.112C87.2009 451.112 85.5769 452.526 85.5769 454.64ZM87.2569 454.64C87.2569 453.59 87.9989 452.624 89.2309 452.624C90.4629 452.624 91.2049 453.59 91.2049 454.64C91.2049 455.69 90.4629 456.656 89.2309 456.656C87.9989 456.656 87.2569 455.69 87.2569 454.64ZM95.0599 452.708V455.788C95.0599 457.37 95.4799 458.168 97.2579 458.168C97.6499 458.168 98.2379 458.112 98.5879 457.944V456.53C98.3779 456.684 97.9719 456.74 97.6779 456.74C96.9359 456.74 96.7399 456.32 96.7399 455.648V452.708H98.5879V451.28H96.7399V449.334H95.0599V451.28H93.6739V452.708H95.0599ZM100.501 452.708V455.788C100.501 457.37 100.921 458.168 102.699 458.168C103.091 458.168 103.679 458.112 104.029 457.944V456.53C103.819 456.684 103.413 456.74 103.119 456.74C102.377 456.74 102.181 456.32 102.181 455.648V452.708H104.029V451.28H102.181V449.334H100.501V451.28H99.1153V452.708H100.501ZM105.005 454.64C105.005 456.754 106.629 458.168 108.659 458.168C110.689 458.168 112.313 456.754 112.313 454.64C112.313 452.526 110.689 451.112 108.659 451.112C106.629 451.112 105.005 452.526 105.005 454.64ZM106.685 454.64C106.685 453.59 107.427 452.624 108.659 452.624C109.891 452.624 110.633 453.59 110.633 454.64C110.633 455.69 109.891 456.656 108.659 456.656C107.427 456.656 106.685 455.69 106.685 454.64ZM113.816 458H115.496V454.332C115.496 453.436 115.93 452.624 117.036 452.624C117.848 452.624 118.184 453.17 118.184 453.996V458H119.864V454.36C119.864 453.492 120.256 452.624 121.306 452.624C122.3 452.624 122.552 453.352 122.552 454.192V458H124.232V453.996C124.232 452.386 123.602 451.112 121.81 451.112C120.802 451.112 120.088 451.504 119.598 452.358C119.248 451.518 118.534 451.112 117.498 451.112C116.378 451.112 115.734 451.7 115.44 452.33H115.412V451.28H113.816V458Z" fill="black"/>
<circle cx="45" cy="481" r="7" stroke="#6B778C" stroke-width="2"/>
<path d="M25.7986 511H33.2066V509.752H27.1426V505.72H32.5346V504.472H27.1426V500.92H32.9186V499.672H25.7986V511ZM41.427 503.512H40.083L37.859 509.384H37.827L35.491 503.512H34.035L37.091 511H38.467L41.427 503.512ZM48.5218 508.904C47.9298 509.656 47.2098 510.04 46.1378 510.04C44.7778 510.04 43.7858 508.936 43.6898 507.64H49.7378V507.24C49.7378 504.76 48.2978 503.32 46.1858 503.32C43.9778 503.32 42.3458 504.936 42.3458 507.256C42.3458 509.432 43.7858 511.192 46.1378 511.192C47.5298 511.192 48.5858 510.776 49.4658 509.64L48.5218 508.904ZM43.6898 506.584C43.8498 505.32 44.7618 504.472 46.1378 504.472C47.5138 504.472 48.3458 505.32 48.3938 506.584H43.6898ZM51.6684 511H52.9164V507.352C52.9164 505.64 53.6204 504.472 55.2364 504.472C56.4044 504.472 56.9484 505.256 56.9484 506.504V511H58.1964V506.376C58.1964 504.568 57.3164 503.32 55.3484 503.32C54.1164 503.32 53.1884 504.008 52.8524 504.744H52.8204C52.8204 504.328 52.7884 503.912 52.7884 503.512H51.6044C51.6044 504.008 51.6684 504.6 51.6684 505.288V511ZM64.655 503.512H62.447V501.384H61.199V503.512H59.567V504.568H61.199V508.68C61.199 510.232 61.487 511.192 63.263 511.192C63.727 511.192 64.287 511.112 64.719 510.92L64.671 509.784C64.335 509.96 63.935 510.04 63.567 510.04C62.463 510.04 62.447 509.272 62.447 508.312V504.568H64.655V503.512Z" fill="#333333"/>
<rect width="45.3333" height="2" transform="translate(53 480)" fill="#E6E6E6"/>
<circle cx="106.333" cy="481" r="7" stroke="#6B778C" stroke-width="2"/>
<path d="M87.1316 511H94.5396V509.752H88.4756V505.72H93.8676V504.472H88.4756V500.92H94.2516V499.672H87.1316V511ZM102.76 503.512H101.416L99.192 509.384H99.16L96.824 503.512H95.368L98.424 511H99.8L102.76 503.512ZM109.855 508.904C109.263 509.656 108.543 510.04 107.471 510.04C106.111 510.04 105.119 508.936 105.023 507.64H111.071V507.24C111.071 504.76 109.631 503.32 107.519 503.32C105.311 503.32 103.679 504.936 103.679 507.256C103.679 509.432 105.119 511.192 107.471 511.192C108.863 511.192 109.919 510.776 110.799 509.64L109.855 508.904ZM105.023 506.584C105.183 505.32 106.095 504.472 107.471 504.472C108.847 504.472 109.679 505.32 109.727 506.584H105.023ZM113.001 511H114.249V507.352C114.249 505.64 114.953 504.472 116.569 504.472C117.737 504.472 118.281 505.256 118.281 506.504V511H119.529V506.376C119.529 504.568 118.649 503.32 116.681 503.32C115.449 503.32 114.521 504.008 114.185 504.744H114.153C114.153 504.328 114.121 503.912 114.121 503.512H112.937C112.937 504.008 113.001 504.6 113.001 505.288V511ZM125.988 503.512H123.78V501.384H122.532V503.512H120.9V504.568H122.532V508.68C122.532 510.232 122.82 511.192 124.596 511.192C125.06 511.192 125.62 511.112 126.052 510.92L126.004 509.784C125.668 509.96 125.268 510.04 124.9 510.04C123.796 510.04 123.78 509.272 123.78 508.312V504.568H125.988V503.512Z" fill="#333333"/>
<rect width="45.3333" height="2" transform="translate(114.333 480)" fill="#E6E6E6"/>
<circle cx="167.667" cy="481" r="7" stroke="#6B778C" stroke-width="2"/>
<path d="M148.466 511H155.874V509.752H149.81V505.72H155.202V504.472H149.81V500.92H155.586V499.672H148.466V511ZM164.094 503.512H162.75L160.526 509.384H160.494L158.158 503.512H156.702L159.758 511H161.134L164.094 503.512ZM171.189 508.904C170.597 509.656 169.877 510.04 168.805 510.04C167.445 510.04 166.453 508.936 166.357 507.64H172.405V507.24C172.405 504.76 170.965 503.32 168.853 503.32C166.645 503.32 165.013 504.936 165.013 507.256C165.013 509.432 166.453 511.192 168.805 511.192C170.197 511.192 171.253 510.776 172.133 509.64L171.189 508.904ZM166.357 506.584C166.517 505.32 167.429 504.472 168.805 504.472C170.181 504.472 171.013 505.32 171.061 506.584H166.357ZM174.335 511H175.583V507.352C175.583 505.64 176.287 504.472 177.903 504.472C179.071 504.472 179.615 505.256 179.615 506.504V511H180.863V506.376C180.863 504.568 179.983 503.32 178.015 503.32C176.783 503.32 175.855 504.008 175.519 504.744H175.487C175.487 504.328 175.455 503.912 175.455 503.512H174.271C174.271 504.008 174.335 504.6 174.335 505.288V511ZM187.322 503.512H185.114V501.384H183.866V503.512H182.234V504.568H183.866V508.68C183.866 510.232 184.154 511.192 185.93 511.192C186.394 511.192 186.954 511.112 187.386 510.92L187.338 509.784C187.002 509.96 186.602 510.04 186.234 510.04C185.13 510.04 185.114 509.272 185.114 508.312V504.568H187.322V503.512Z" fill="#333333"/>
<rect width="45.3333" height="2" transform="translate(175.667 480)" fill="#E6E6E6"/>
<circle cx="229" cy="481" r="7" stroke="#6B778C" stroke-width="2"/>
<path d="M209.799 511H217.207V509.752H211.143V505.72H216.535V504.472H211.143V500.92H216.919V499.672H209.799V511ZM225.427 503.512H224.083L221.859 509.384H221.827L219.491 503.512H218.035L221.091 511H222.467L225.427 503.512ZM232.522 508.904C231.93 509.656 231.21 510.04 230.138 510.04C228.778 510.04 227.786 508.936 227.69 507.64H233.738V507.24C233.738 504.76 232.298 503.32 230.186 503.32C227.978 503.32 226.346 504.936 226.346 507.256C226.346 509.432 227.786 511.192 230.138 511.192C231.53 511.192 232.586 510.776 233.466 509.64L232.522 508.904ZM227.69 506.584C227.85 505.32 228.762 504.472 230.138 504.472C231.514 504.472 232.346 505.32 232.394 506.584H227.69ZM235.668 511H236.916V507.352C236.916 505.64 237.62 504.472 239.236 504.472C240.404 504.472 240.948 505.256 240.948 506.504V511H242.196V506.376C242.196 504.568 241.316 503.32 239.348 503.32C238.116 503.32 237.188 504.008 236.852 504.744H236.82C236.82 504.328 236.788 503.912 236.788 503.512H235.604C235.604 504.008 235.668 504.6 235.668 505.288V511ZM248.655 503.512H246.447V501.384H245.199V503.512H243.567V504.568H245.199V508.68C245.199 510.232 245.487 511.192 247.263 511.192C247.727 511.192 248.287 511.112 248.719 510.92L248.671 509.784C248.335 509.96 247.935 510.04 247.567 510.04C246.463 510.04 246.447 509.272 246.447 508.312V504.568H248.655V503.512Z" fill="#333333"/>
<path d="M206.106 12H209.802C212.182 12 215.052 10.432 215.052 7.044C215.052 3.684 212.616 2.088 210.012 2.088H206.106V12ZM207.87 10.404V3.684H209.48C211.636 3.684 213.204 4.636 213.204 7.044C213.204 9.452 211.398 10.404 209.186 10.404H207.87ZM216.603 12H218.283V5.28H216.603V12ZM216.365 2.998C216.365 3.53 216.813 4.006 217.429 4.006C218.045 4.006 218.521 3.572 218.521 2.998C218.521 2.424 218.045 1.99 217.429 1.99C216.813 1.99 216.365 2.466 216.365 2.998ZM220.212 12H221.892V8.402C221.892 8.038 222.116 6.708 223.698 6.708C223.964 6.708 224.23 6.764 224.51 6.834V5.21C224.314 5.154 224.118 5.112 223.908 5.112C223.026 5.112 222.284 5.574 221.92 6.344H221.892V5.28H220.212V12ZM231.875 9.228V8.766C231.875 6.428 230.601 5.112 228.725 5.112C226.695 5.112 225.071 6.526 225.071 8.64C225.071 10.754 226.695 12.168 228.725 12.168C229.789 12.168 230.783 11.79 231.567 10.824L230.363 9.914C229.943 10.432 229.397 10.824 228.557 10.824C227.619 10.824 226.863 10.222 226.751 9.228H231.875ZM226.751 7.968C226.877 7.002 227.493 6.372 228.487 6.372C229.537 6.372 230.181 6.988 230.195 7.968H226.751ZM239.2 6.134C238.556 5.42 237.618 5.112 236.764 5.112C234.734 5.112 233.11 6.526 233.11 8.64C233.11 10.754 234.734 12.168 236.764 12.168C237.352 12.168 238.5 11.916 239.186 11.23L238.066 10.026C237.758 10.432 237.282 10.656 236.764 10.656C235.532 10.656 234.79 9.69 234.79 8.64C234.79 7.59 235.532 6.624 236.764 6.624C237.212 6.624 237.646 6.89 238.038 7.296L239.2 6.134ZM240.802 6.708V9.788C240.802 11.37 241.222 12.168 243 12.168C243.392 12.168 243.98 12.112 244.33 11.944V10.53C244.12 10.684 243.714 10.74 243.42 10.74C242.678 10.74 242.482 10.32 242.482 9.648V6.708H244.33V5.28H242.482V3.334H240.802V5.28H239.416V6.708H240.802ZM245.669 12H247.349V5.28H245.669V12ZM245.431 2.998C245.431 3.53 245.879 4.006 246.495 4.006C247.111 4.006 247.587 3.572 247.587 2.998C247.587 2.424 247.111 1.99 246.495 1.99C245.879 1.99 245.431 2.466 245.431 2.998ZM248.942 8.64C248.942 10.754 250.566 12.168 252.596 12.168C254.626 12.168 256.25 10.754 256.25 8.64C256.25 6.526 254.626 5.112 252.596 5.112C250.566 5.112 248.942 6.526 248.942 8.64ZM250.622 8.64C250.622 7.59 251.364 6.624 252.596 6.624C253.828 6.624 254.57 7.59 254.57 8.64C254.57 9.69 253.828 10.656 252.596 10.656C251.364 10.656 250.622 9.69 250.622 8.64ZM257.823 12H259.503V8.332C259.503 7.436 259.937 6.624 261.043 6.624C262.219 6.624 262.275 7.856 262.275 8.598V12H263.955V7.758C263.955 6.386 263.311 5.112 261.505 5.112C260.385 5.112 259.755 5.686 259.447 6.358H259.419V5.28H257.823V12ZM265.862 11.02C265.862 11.622 266.394 12.084 266.982 12.084C267.598 12.084 268.102 11.594 268.102 10.992C268.102 10.39 267.584 9.928 266.982 9.928C266.366 9.928 265.862 10.418 265.862 11.02ZM265.862 6.274C265.862 6.876 266.394 7.338 266.982 7.338C267.598 7.338 268.102 6.848 268.102 6.246C268.102 5.644 267.584 5.182 266.982 5.182C266.366 5.182 265.862 5.672 265.862 6.274ZM277.045 12H278.571L282.575 2.088H280.671L277.885 9.578L275.183 2.088H273.153L277.045 12ZM289.188 9.228V8.766C289.188 6.428 287.914 5.112 286.038 5.112C284.008 5.112 282.384 6.526 282.384 8.64C282.384 10.754 284.008 12.168 286.038 12.168C287.102 12.168 288.096 11.79 288.88 10.824L287.676 9.914C287.256 10.432 286.71 10.824 285.87 10.824C284.932 10.824 284.176 10.222 284.064 9.228H289.188ZM284.064 7.968C284.19 7.002 284.806 6.372 285.8 6.372C286.85 6.372 287.494 6.988 287.508 7.968H284.064ZM290.759 12H292.439V8.402C292.439 8.038 292.663 6.708 294.245 6.708C294.511 6.708 294.777 6.764 295.057 6.834V5.21C294.861 5.154 294.665 5.112 294.455 5.112C293.573 5.112 292.831 5.574 292.467 6.344H292.439V5.28H290.759V12ZM296.802 6.708V9.788C296.802 11.37 297.222 12.168 299 12.168C299.392 12.168 299.98 12.112 300.33 11.944V10.53C300.12 10.684 299.714 10.74 299.42 10.74C298.678 10.74 298.482 10.32 298.482 9.648V6.708H300.33V5.28H298.482V3.334H296.802V5.28H295.416V6.708H296.802ZM301.669 12H303.349V5.28H301.669V12ZM301.431 2.998C301.431 3.53 301.879 4.006 302.495 4.006C303.111 4.006 303.587 3.572 303.587 2.998C303.587 2.424 303.111 1.99 302.495 1.99C301.879 1.99 301.431 2.466 301.431 2.998ZM311.032 6.134C310.388 5.42 309.45 5.112 308.596 5.112C306.566 5.112 304.942 6.526 304.942 8.64C304.942 10.754 306.566 12.168 308.596 12.168C309.184 12.168 310.332 11.916 311.018 11.23L309.898 10.026C309.59 10.432 309.114 10.656 308.596 10.656C307.364 10.656 306.622 9.69 306.622 8.64C306.622 7.59 307.364 6.624 308.596 6.624C309.044 6.624 309.478 6.89 309.87 7.296L311.032 6.134ZM316.232 12H317.744V8.136C317.744 7.184 317.744 5.112 314.874 5.112C313.81 5.112 312.76 5.434 312.018 6.19L312.9 7.072C313.348 6.652 313.992 6.372 314.692 6.372C315.588 6.372 316.232 6.806 316.232 7.632V7.814H315.812C314.132 7.814 311.584 7.968 311.584 10.152C311.584 11.482 312.788 12.168 314.034 12.168C314.93 12.168 315.714 11.832 316.19 11.076H316.232V12ZM316.134 9.368C316.134 10.306 315.588 10.908 314.44 10.908C313.894 10.908 313.264 10.642 313.264 10.026C313.264 9.06 314.86 8.99 315.784 8.99H316.134V9.368ZM319.58 12H321.26V1.416H319.58V12ZM208.136 29H209.9V20.684H212.938V19.088H205.098V20.684H208.136V29ZM214.392 29.056L214.07 29.854C213.79 30.554 213.566 30.848 212.74 30.848C212.446 30.848 212.152 30.778 211.886 30.68L211.676 32.192C212.096 32.304 212.53 32.36 212.964 32.36C214.448 32.36 215.036 31.702 215.526 30.442L218.704 22.28H216.954L215.274 26.942H215.246L213.37 22.28H211.522L214.392 29.056ZM219.692 32.192H221.372V28.146H221.414C221.764 28.58 222.436 29.168 223.696 29.168C225.614 29.168 226.944 27.628 226.944 25.64C226.944 23.652 225.698 22.112 223.626 22.112C222.688 22.112 221.806 22.476 221.316 23.288H221.288V22.28H219.692V32.192ZM225.264 25.64C225.264 26.69 224.522 27.656 223.29 27.656C222.058 27.656 221.316 26.69 221.316 25.64C221.316 24.59 222.058 23.624 223.29 23.624C224.522 23.624 225.264 24.59 225.264 25.64ZM234.979 26.228V25.766C234.979 23.428 233.705 22.112 231.829 22.112C229.799 22.112 228.175 23.526 228.175 25.64C228.175 27.754 229.799 29.168 231.829 29.168C232.893 29.168 233.887 28.79 234.671 27.824L233.467 26.914C233.047 27.432 232.501 27.824 231.661 27.824C230.723 27.824 229.967 27.222 229.855 26.228H234.979ZM229.855 24.968C229.981 24.002 230.597 23.372 231.591 23.372C232.641 23.372 233.285 23.988 233.299 24.968H229.855ZM236.55 28.02C236.55 28.622 237.082 29.084 237.67 29.084C238.286 29.084 238.79 28.594 238.79 27.992C238.79 27.39 238.272 26.928 237.67 26.928C237.054 26.928 236.55 27.418 236.55 28.02ZM236.55 23.274C236.55 23.876 237.082 24.338 237.67 24.338C238.286 24.338 238.79 23.848 238.79 23.246C238.79 22.644 238.272 22.182 237.67 22.182C237.054 22.182 236.55 22.672 236.55 23.274ZM243.883 29H245.857L246.753 26.732H251.051L251.975 29H253.991L249.721 19.088H248.195L243.883 29ZM247.355 25.22L248.909 21.188L250.435 25.22H247.355ZM254.966 29H256.646V18.416H254.966V29ZM259.177 23.708V26.788C259.177 28.37 259.597 29.168 261.375 29.168C261.767 29.168 262.355 29.112 262.705 28.944V27.53C262.495 27.684 262.089 27.74 261.795 27.74C261.053 27.74 260.857 27.32 260.857 26.648V23.708H262.705V22.28H260.857V20.334H259.177V22.28H257.791V23.708H259.177ZM270.484 26.228V25.766C270.484 23.428 269.21 22.112 267.334 22.112C265.304 22.112 263.68 23.526 263.68 25.64C263.68 27.754 265.304 29.168 267.334 29.168C268.398 29.168 269.392 28.79 270.176 27.824L268.972 26.914C268.552 27.432 268.006 27.824 267.166 27.824C266.228 27.824 265.472 27.222 265.36 26.228H270.484ZM265.36 24.968C265.486 24.002 266.102 23.372 267.096 23.372C268.146 23.372 268.79 23.988 268.804 24.968H265.36ZM272.056 29H273.736V25.402C273.736 25.038 273.96 23.708 275.542 23.708C275.808 23.708 276.074 23.764 276.354 23.834V22.21C276.158 22.154 275.962 22.112 275.752 22.112C274.87 22.112 274.128 22.574 273.764 23.344H273.736V22.28H272.056V29ZM277.743 29H279.423V25.332C279.423 24.436 279.857 23.624 280.963 23.624C282.139 23.624 282.195 24.856 282.195 25.598V29H283.875V24.758C283.875 23.386 283.231 22.112 281.425 22.112C280.305 22.112 279.675 22.686 279.367 23.358H279.339V22.28H277.743V29ZM289.982 29H291.494V25.136C291.494 24.184 291.494 22.112 288.624 22.112C287.56 22.112 286.51 22.434 285.768 23.19L286.65 24.072C287.098 23.652 287.742 23.372 288.442 23.372C289.338 23.372 289.982 23.806 289.982 24.632V24.814H289.562C287.882 24.814 285.334 24.968 285.334 27.152C285.334 28.482 286.538 29.168 287.784 29.168C288.68 29.168 289.464 28.832 289.94 28.076H289.982V29ZM289.884 26.368C289.884 27.306 289.338 27.908 288.19 27.908C287.644 27.908 287.014 27.642 287.014 27.026C287.014 26.06 288.61 25.99 289.534 25.99H289.884V26.368ZM293.904 23.708V26.788C293.904 28.37 294.324 29.168 296.102 29.168C296.494 29.168 297.082 29.112 297.432 28.944V27.53C297.222 27.684 296.816 27.74 296.522 27.74C295.78 27.74 295.584 27.32 295.584 26.648V23.708H297.432V22.28H295.584V20.334H293.904V22.28H292.518V23.708H293.904ZM305.211 26.228V25.766C305.211 23.428 303.937 22.112 302.061 22.112C300.031 22.112 298.407 23.526 298.407 25.64C298.407 27.754 300.031 29.168 302.061 29.168C303.125 29.168 304.119 28.79 304.903 27.824L303.699 26.914C303.279 27.432 302.733 27.824 301.893 27.824C300.955 27.824 300.199 27.222 300.087 26.228H305.211ZM300.087 24.968C300.213 24.002 300.829 23.372 301.823 23.372C302.873 23.372 303.517 23.988 303.531 24.968H300.087Z" fill="black"/>
<circle cx="264" cy="58" r="7" stroke="#6B778C" stroke-width="2"/>
<path d="M202.799 62H210.207V60.752H204.143V56.72H209.535V55.472H204.143V51.92H209.919V50.672H202.799V62ZM218.427 54.512H217.083L214.859 60.384H214.827L212.491 54.512H211.035L214.091 62H215.467L218.427 54.512ZM225.522 59.904C224.93 60.656 224.21 61.04 223.138 61.04C221.778 61.04 220.786 59.936 220.69 58.64H226.738V58.24C226.738 55.76 225.298 54.32 223.186 54.32C220.978 54.32 219.346 55.936 219.346 58.256C219.346 60.432 220.786 62.192 223.138 62.192C224.53 62.192 225.586 61.776 226.466 60.64L225.522 59.904ZM220.69 57.584C220.85 56.32 221.762 55.472 223.138 55.472C224.514 55.472 225.346 56.32 225.394 57.584H220.69ZM228.668 62H229.916V58.352C229.916 56.64 230.62 55.472 232.236 55.472C233.404 55.472 233.948 56.256 233.948 57.504V62H235.196V57.376C235.196 55.568 234.316 54.32 232.348 54.32C231.116 54.32 230.188 55.008 229.852 55.744H229.82C229.82 55.328 229.788 54.912 229.788 54.512H228.604C228.604 55.008 228.668 55.6 228.668 56.288V62ZM241.655 54.512H239.447V52.384H238.199V54.512H236.567V55.568H238.199V59.68C238.199 61.232 238.487 62.192 240.263 62.192C240.727 62.192 241.287 62.112 241.719 61.92L241.671 60.784C241.335 60.96 240.935 61.04 240.567 61.04C239.463 61.04 239.447 60.272 239.447 59.312V55.568H241.655V54.512Z" fill="#333333"/>
<rect width="2" height="46.3333" transform="translate(263 66)" fill="#E6E6E6"/>
<circle cx="264" cy="120.334" r="7" stroke="#6B778C" stroke-width="2"/>
<path d="M287.408 124.334H294.816V123.086H288.752V119.054H294.144V117.806H288.752V114.254H294.528V113.006H287.408V124.334ZM303.036 116.846H301.692L299.468 122.718H299.436L297.1 116.846H295.644L298.7 124.334H300.076L303.036 116.846ZM310.131 122.238C309.539 122.99 308.819 123.374 307.747 123.374C306.387 123.374 305.395 122.27 305.299 120.974H311.347V120.574C311.347 118.094 309.907 116.654 307.795 116.654C305.587 116.654 303.955 118.27 303.955 120.59C303.955 122.766 305.395 124.526 307.747 124.526C309.139 124.526 310.195 124.11 311.075 122.974L310.131 122.238ZM305.299 119.918C305.459 118.654 306.371 117.806 307.747 117.806C309.123 117.806 309.955 118.654 310.003 119.918H305.299ZM313.278 124.334H314.526V120.686C314.526 118.974 315.23 117.806 316.846 117.806C318.014 117.806 318.558 118.59 318.558 119.838V124.334H319.806V119.71C319.806 117.902 318.926 116.654 316.958 116.654C315.726 116.654 314.798 117.342 314.462 118.078H314.43C314.43 117.662 314.398 117.246 314.398 116.846H313.214C313.214 117.342 313.278 117.934 313.278 118.622V124.334ZM326.264 116.846H324.056V114.718H322.808V116.846H321.176V117.902H322.808V122.014C322.808 123.566 323.096 124.526 324.872 124.526C325.336 124.526 325.896 124.446 326.328 124.254L326.28 123.118C325.944 123.294 325.544 123.374 325.176 123.374C324.072 123.374 324.056 122.606 324.056 121.646V117.902H326.264V116.846Z" fill="#333333"/>
<rect width="2" height="46.3333" transform="translate(263 128.334)" fill="#E6E6E6"/>
<circle cx="264" cy="182.666" r="7" stroke="#6B778C" stroke-width="2"/>
<path d="M202.799 186.666H210.207V185.418H204.143V181.386H209.535V180.138H204.143V176.586H209.919V175.338H202.799V186.666ZM218.427 179.178H217.083L214.859 185.05H214.827L212.491 179.178H211.035L214.091 186.666H215.467L218.427 179.178ZM225.522 184.57C224.93 185.322 224.21 185.706 223.138 185.706C221.778 185.706 220.786 184.602 220.69 183.306H226.738V182.906C226.738 180.426 225.298 178.986 223.186 178.986C220.978 178.986 219.346 180.602 219.346 182.922C219.346 185.098 220.786 186.858 223.138 186.858C224.53 186.858 225.586 186.442 226.466 185.306L225.522 184.57ZM220.69 182.25C220.85 180.986 221.762 180.138 223.138 180.138C224.514 180.138 225.346 180.986 225.394 182.25H220.69ZM228.668 186.666H229.916V183.018C229.916 181.306 230.62 180.138 232.236 180.138C233.404 180.138 233.948 180.922 233.948 182.17V186.666H235.196V182.042C235.196 180.234 234.316 178.986 232.348 178.986C231.116 178.986 230.188 179.674 229.852 180.41H229.82C229.82 179.994 229.788 179.578 229.788 179.178H228.604C228.604 179.674 228.668 180.266 228.668 180.954V186.666ZM241.655 179.178H239.447V177.05H238.199V179.178H236.567V180.234H238.199V184.346C238.199 185.898 238.487 186.858 240.263 186.858C240.727 186.858 241.287 186.778 241.719 186.586L241.671 185.45C241.335 185.626 240.935 185.706 240.567 185.706C239.463 185.706 239.447 184.938 239.447 183.978V180.234H241.655V179.178Z" fill="#333333"/>
<rect width="2" height="46.3333" transform="translate(263 190.666)" fill="#E6E6E6"/>
<circle cx="264" cy="245" r="7" stroke="#6B778C" stroke-width="2"/>
<path d="M287.408 249H294.816V247.752H288.752V243.72H294.144V242.472H288.752V238.92H294.528V237.672H287.408V249ZM303.036 241.512H301.692L299.468 247.384H299.436L297.1 241.512H295.644L298.7 249H300.076L303.036 241.512ZM310.131 246.904C309.539 247.656 308.819 248.04 307.747 248.04C306.387 248.04 305.395 246.936 305.299 245.64H311.347V245.24C311.347 242.76 309.907 241.32 307.795 241.32C305.587 241.32 303.955 242.936 303.955 245.256C303.955 247.432 305.395 249.192 307.747 249.192C309.139 249.192 310.195 248.776 311.075 247.64L310.131 246.904ZM305.299 244.584C305.459 243.32 306.371 242.472 307.747 242.472C309.123 242.472 309.955 243.32 310.003 244.584H305.299ZM313.278 249H314.526V245.352C314.526 243.64 315.23 242.472 316.846 242.472C318.014 242.472 318.558 243.256 318.558 244.504V249H319.806V244.376C319.806 242.568 318.926 241.32 316.958 241.32C315.726 241.32 314.798 242.008 314.462 242.744H314.43C314.43 242.328 314.398 241.912 314.398 241.512H313.214C313.214 242.008 313.278 242.6 313.278 243.288V249ZM326.264 241.512H324.056V239.384H322.808V241.512H321.176V242.568H322.808V246.68C322.808 248.232 323.096 249.192 324.872 249.192C325.336 249.192 325.896 249.112 326.328 248.92L326.28 247.784C325.944 247.96 325.544 248.04 325.176 248.04C324.072 248.04 324.056 247.272 324.056 246.312V242.568H326.264V241.512Z" fill="#333333"/>
<path d="M374.106 12H377.802C380.182 12 383.052 10.432 383.052 7.044C383.052 3.684 380.616 2.088 378.012 2.088H374.106V12ZM375.87 10.404V3.684H377.48C379.636 3.684 381.204 4.636 381.204 7.044C381.204 9.452 379.398 10.404 377.186 10.404H375.87ZM384.603 12H386.283V5.28H384.603V12ZM384.365 2.998C384.365 3.53 384.813 4.006 385.429 4.006C386.045 4.006 386.521 3.572 386.521 2.998C386.521 2.424 386.045 1.99 385.429 1.99C384.813 1.99 384.365 2.466 384.365 2.998ZM388.212 12H389.892V8.402C389.892 8.038 390.116 6.708 391.698 6.708C391.964 6.708 392.23 6.764 392.51 6.834V5.21C392.314 5.154 392.118 5.112 391.908 5.112C391.026 5.112 390.284 5.574 389.92 6.344H389.892V5.28H388.212V12ZM399.875 9.228V8.766C399.875 6.428 398.601 5.112 396.725 5.112C394.695 5.112 393.071 6.526 393.071 8.64C393.071 10.754 394.695 12.168 396.725 12.168C397.789 12.168 398.783 11.79 399.567 10.824L398.363 9.914C397.943 10.432 397.397 10.824 396.557 10.824C395.619 10.824 394.863 10.222 394.751 9.228H399.875ZM394.751 7.968C394.877 7.002 395.493 6.372 396.487 6.372C397.537 6.372 398.181 6.988 398.195 7.968H394.751ZM407.2 6.134C406.556 5.42 405.618 5.112 404.764 5.112C402.734 5.112 401.11 6.526 401.11 8.64C401.11 10.754 402.734 12.168 404.764 12.168C405.352 12.168 406.5 11.916 407.186 11.23L406.066 10.026C405.758 10.432 405.282 10.656 404.764 10.656C403.532 10.656 402.79 9.69 402.79 8.64C402.79 7.59 403.532 6.624 404.764 6.624C405.212 6.624 405.646 6.89 406.038 7.296L407.2 6.134ZM408.802 6.708V9.788C408.802 11.37 409.222 12.168 411 12.168C411.392 12.168 411.98 12.112 412.33 11.944V10.53C412.12 10.684 411.714 10.74 411.42 10.74C410.678 10.74 410.482 10.32 410.482 9.648V6.708H412.33V5.28H410.482V3.334H408.802V5.28H407.416V6.708H408.802ZM413.669 12H415.349V5.28H413.669V12ZM413.431 2.998C413.431 3.53 413.879 4.006 414.495 4.006C415.111 4.006 415.587 3.572 415.587 2.998C415.587 2.424 415.111 1.99 414.495 1.99C413.879 1.99 413.431 2.466 413.431 2.998ZM416.942 8.64C416.942 10.754 418.566 12.168 420.596 12.168C422.626 12.168 424.25 10.754 424.25 8.64C424.25 6.526 422.626 5.112 420.596 5.112C418.566 5.112 416.942 6.526 416.942 8.64ZM418.622 8.64C418.622 7.59 419.364 6.624 420.596 6.624C421.828 6.624 422.57 7.59 422.57 8.64C422.57 9.69 421.828 10.656 420.596 10.656C419.364 10.656 418.622 9.69 418.622 8.64ZM425.823 12H427.503V8.332C427.503 7.436 427.937 6.624 429.043 6.624C430.219 6.624 430.275 7.856 430.275 8.598V12H431.955V7.758C431.955 6.386 431.311 5.112 429.505 5.112C428.385 5.112 427.755 5.686 427.447 6.358H427.419V5.28H425.823V12ZM433.862 11.02C433.862 11.622 434.394 12.084 434.982 12.084C435.598 12.084 436.102 11.594 436.102 10.992C436.102 10.39 435.584 9.928 434.982 9.928C434.366 9.928 433.862 10.418 433.862 11.02ZM433.862 6.274C433.862 6.876 434.394 7.338 434.982 7.338C435.598 7.338 436.102 6.848 436.102 6.246C436.102 5.644 435.584 5.182 434.982 5.182C434.366 5.182 433.862 5.672 433.862 6.274ZM445.045 12H446.571L450.575 2.088H448.671L445.885 9.578L443.183 2.088H441.153L445.045 12ZM457.188 9.228V8.766C457.188 6.428 455.914 5.112 454.038 5.112C452.008 5.112 450.384 6.526 450.384 8.64C450.384 10.754 452.008 12.168 454.038 12.168C455.102 12.168 456.096 11.79 456.88 10.824L455.676 9.914C455.256 10.432 454.71 10.824 453.87 10.824C452.932 10.824 452.176 10.222 452.064 9.228H457.188ZM452.064 7.968C452.19 7.002 452.806 6.372 453.8 6.372C454.85 6.372 455.494 6.988 455.508 7.968H452.064ZM458.759 12H460.439V8.402C460.439 8.038 460.663 6.708 462.245 6.708C462.511 6.708 462.777 6.764 463.057 6.834V5.21C462.861 5.154 462.665 5.112 462.455 5.112C461.573 5.112 460.831 5.574 460.467 6.344H460.439V5.28H458.759V12ZM464.802 6.708V9.788C464.802 11.37 465.222 12.168 467 12.168C467.392 12.168 467.98 12.112 468.33 11.944V10.53C468.12 10.684 467.714 10.74 467.42 10.74C466.678 10.74 466.482 10.32 466.482 9.648V6.708H468.33V5.28H466.482V3.334H464.802V5.28H463.416V6.708H464.802ZM469.669 12H471.349V5.28H469.669V12ZM469.431 2.998C469.431 3.53 469.879 4.006 470.495 4.006C471.111 4.006 471.587 3.572 471.587 2.998C471.587 2.424 471.111 1.99 470.495 1.99C469.879 1.99 469.431 2.466 469.431 2.998ZM479.032 6.134C478.388 5.42 477.45 5.112 476.596 5.112C474.566 5.112 472.942 6.526 472.942 8.64C472.942 10.754 474.566 12.168 476.596 12.168C477.184 12.168 478.332 11.916 479.018 11.23L477.898 10.026C477.59 10.432 477.114 10.656 476.596 10.656C475.364 10.656 474.622 9.69 474.622 8.64C474.622 7.59 475.364 6.624 476.596 6.624C477.044 6.624 477.478 6.89 477.87 7.296L479.032 6.134ZM484.232 12H485.744V8.136C485.744 7.184 485.744 5.112 482.874 5.112C481.81 5.112 480.76 5.434 480.018 6.19L480.9 7.072C481.348 6.652 481.992 6.372 482.692 6.372C483.588 6.372 484.232 6.806 484.232 7.632V7.814H483.812C482.132 7.814 479.584 7.968 479.584 10.152C479.584 11.482 480.788 12.168 482.034 12.168C482.93 12.168 483.714 11.832 484.19 11.076H484.232V12ZM484.134 9.368C484.134 10.306 483.588 10.908 482.44 10.908C481.894 10.908 481.264 10.642 481.264 10.026C481.264 9.06 482.86 8.99 483.784 8.99H484.134V9.368ZM487.58 12H489.26V1.416H487.58V12ZM376.136 29H377.9V20.684H380.938V19.088H373.098V20.684H376.136V29ZM382.392 29.056L382.07 29.854C381.79 30.554 381.566 30.848 380.74 30.848C380.446 30.848 380.152 30.778 379.886 30.68L379.676 32.192C380.096 32.304 380.53 32.36 380.964 32.36C382.448 32.36 383.036 31.702 383.526 30.442L386.704 22.28H384.954L383.274 26.942H383.246L381.37 22.28H379.522L382.392 29.056ZM387.692 32.192H389.372V28.146H389.414C389.764 28.58 390.436 29.168 391.696 29.168C393.614 29.168 394.944 27.628 394.944 25.64C394.944 23.652 393.698 22.112 391.626 22.112C390.688 22.112 389.806 22.476 389.316 23.288H389.288V22.28H387.692V32.192ZM393.264 25.64C393.264 26.69 392.522 27.656 391.29 27.656C390.058 27.656 389.316 26.69 389.316 25.64C389.316 24.59 390.058 23.624 391.29 23.624C392.522 23.624 393.264 24.59 393.264 25.64ZM402.979 26.228V25.766C402.979 23.428 401.705 22.112 399.829 22.112C397.799 22.112 396.175 23.526 396.175 25.64C396.175 27.754 397.799 29.168 399.829 29.168C400.893 29.168 401.887 28.79 402.671 27.824L401.467 26.914C401.047 27.432 400.501 27.824 399.661 27.824C398.723 27.824 397.967 27.222 397.855 26.228H402.979ZM397.855 24.968C397.981 24.002 398.597 23.372 399.591 23.372C400.641 23.372 401.285 23.988 401.299 24.968H397.855ZM404.55 28.02C404.55 28.622 405.082 29.084 405.67 29.084C406.286 29.084 406.79 28.594 406.79 27.992C406.79 27.39 406.272 26.928 405.67 26.928C405.054 26.928 404.55 27.418 404.55 28.02ZM404.55 23.274C404.55 23.876 405.082 24.338 405.67 24.338C406.286 24.338 406.79 23.848 406.79 23.246C406.79 22.644 406.272 22.182 405.67 22.182C405.054 22.182 404.55 22.672 404.55 23.274ZM412.989 29H418.967V27.404H414.753V19.088H412.989V29ZM426.563 26.228V25.766C426.563 23.428 425.289 22.112 423.413 22.112C421.383 22.112 419.759 23.526 419.759 25.64C419.759 27.754 421.383 29.168 423.413 29.168C424.477 29.168 425.471 28.79 426.255 27.824L425.051 26.914C424.631 27.432 424.085 27.824 423.245 27.824C422.307 27.824 421.551 27.222 421.439 26.228H426.563ZM421.439 24.968C421.565 24.002 422.181 23.372 423.175 23.372C424.225 23.372 424.869 23.988 424.883 24.968H421.439ZM428.736 29H430.416V23.708H431.97V22.28H430.416V21.062C430.416 20.32 430.556 19.676 431.494 19.676C431.732 19.676 431.956 19.718 432.194 19.774L432.306 18.346C431.956 18.276 431.606 18.248 431.242 18.248C429.156 18.248 428.736 19.466 428.736 21.328V22.28H427.35V23.708H428.736V29ZM433.658 23.708V26.788C433.658 28.37 434.078 29.168 435.856 29.168C436.248 29.168 436.836 29.112 437.186 28.944V27.53C436.976 27.684 436.57 27.74 436.276 27.74C435.534 27.74 435.338 27.32 435.338 26.648V23.708H437.186V22.28H435.338V20.334H433.658V22.28H432.272V23.708H433.658Z" fill="black"/>
<circle cx="483" cy="58" r="7" stroke="#6B778C" stroke-width="2"/>
<path d="M421.799 62H429.207V60.752H423.143V56.72H428.535V55.472H423.143V51.92H428.919V50.672H421.799V62ZM437.427 54.512H436.083L433.859 60.384H433.827L431.491 54.512H430.035L433.091 62H434.467L437.427 54.512ZM444.522 59.904C443.93 60.656 443.21 61.04 442.138 61.04C440.778 61.04 439.786 59.936 439.69 58.64H445.738V58.24C445.738 55.76 444.298 54.32 442.186 54.32C439.978 54.32 438.346 55.936 438.346 58.256C438.346 60.432 439.786 62.192 442.138 62.192C443.53 62.192 444.586 61.776 445.466 60.64L444.522 59.904ZM439.69 57.584C439.85 56.32 440.762 55.472 442.138 55.472C443.514 55.472 444.346 56.32 444.394 57.584H439.69ZM447.668 62H448.916V58.352C448.916 56.64 449.62 55.472 451.236 55.472C452.404 55.472 452.948 56.256 452.948 57.504V62H454.196V57.376C454.196 55.568 453.316 54.32 451.348 54.32C450.116 54.32 449.188 55.008 448.852 55.744H448.82C448.82 55.328 448.788 54.912 448.788 54.512H447.604C447.604 55.008 447.668 55.6 447.668 56.288V62ZM460.655 54.512H458.447V52.384H457.199V54.512H455.567V55.568H457.199V59.68C457.199 61.232 457.487 62.192 459.263 62.192C459.727 62.192 460.287 62.112 460.719 61.92L460.671 60.784C460.335 60.96 459.935 61.04 459.567 61.04C458.463 61.04 458.447 60.272 458.447 59.312V55.568H460.655V54.512Z" fill="#333333"/>
<rect width="2" height="46.3333" transform="translate(482 66)" fill="#E6E6E6"/>
<circle cx="483" cy="120.334" r="7" stroke="#6B778C" stroke-width="2"/>
<path d="M421.799 124.334H429.207V123.086H423.143V119.054H428.535V117.806H423.143V114.254H428.919V113.006H421.799V124.334ZM437.427 116.846H436.083L433.859 122.718H433.827L431.491 116.846H430.035L433.091 124.334H434.467L437.427 116.846ZM444.522 122.238C443.93 122.99 443.21 123.374 442.138 123.374C440.778 123.374 439.786 122.27 439.69 120.974H445.738V120.574C445.738 118.094 444.298 116.654 442.186 116.654C439.978 116.654 438.346 118.27 438.346 120.59C438.346 122.766 439.786 124.526 442.138 124.526C443.53 124.526 444.586 124.11 445.466 122.974L444.522 122.238ZM439.69 119.918C439.85 118.654 440.762 117.806 442.138 117.806C443.514 117.806 444.346 118.654 444.394 119.918H439.69ZM447.668 124.334H448.916V120.686C448.916 118.974 449.62 117.806 451.236 117.806C452.404 117.806 452.948 118.59 452.948 119.838V124.334H454.196V119.71C454.196 117.902 453.316 116.654 451.348 116.654C450.116 116.654 449.188 117.342 448.852 118.078H448.82C448.82 117.662 448.788 117.246 448.788 116.846H447.604C447.604 117.342 447.668 117.934 447.668 118.622V124.334ZM460.655 116.846H458.447V114.718H457.199V116.846H455.567V117.902H457.199V122.014C457.199 123.566 457.487 124.526 459.263 124.526C459.727 124.526 460.287 124.446 460.719 124.254L460.671 123.118C460.335 123.294 459.935 123.374 459.567 123.374C458.463 123.374 458.447 122.606 458.447 121.646V117.902H460.655V116.846Z" fill="#333333"/>
<rect width="2" height="46.3333" transform="translate(482 128.334)" fill="#E6E6E6"/>
<circle cx="483" cy="182.666" r="7" stroke="#6B778C" stroke-width="2"/>
<path d="M421.799 186.666H429.207V185.418H423.143V181.386H428.535V180.138H423.143V176.586H428.919V175.338H421.799V186.666ZM437.427 179.178H436.083L433.859 185.05H433.827L431.491 179.178H430.035L433.091 186.666H434.467L437.427 179.178ZM444.522 184.57C443.93 185.322 443.21 185.706 442.138 185.706C440.778 185.706 439.786 184.602 439.69 183.306H445.738V182.906C445.738 180.426 444.298 178.986 442.186 178.986C439.978 178.986 438.346 180.602 438.346 182.922C438.346 185.098 439.786 186.858 442.138 186.858C443.53 186.858 444.586 186.442 445.466 185.306L444.522 184.57ZM439.69 182.25C439.85 180.986 440.762 180.138 442.138 180.138C443.514 180.138 444.346 180.986 444.394 182.25H439.69ZM447.668 186.666H448.916V183.018C448.916 181.306 449.62 180.138 451.236 180.138C452.404 180.138 452.948 180.922 452.948 182.17V186.666H454.196V182.042C454.196 180.234 453.316 178.986 451.348 178.986C450.116 178.986 449.188 179.674 448.852 180.41H448.82C448.82 179.994 448.788 179.578 448.788 179.178H447.604C447.604 179.674 447.668 180.266 447.668 180.954V186.666ZM460.655 179.178H458.447V177.05H457.199V179.178H455.567V180.234H457.199V184.346C457.199 185.898 457.487 186.858 459.263 186.858C459.727 186.858 460.287 186.778 460.719 186.586L460.671 185.45C460.335 185.626 459.935 185.706 459.567 185.706C458.463 185.706 458.447 184.938 458.447 183.978V180.234H460.655V179.178Z" fill="#333333"/>
<rect width="2" height="46.3333" transform="translate(482 190.666)" fill="#E6E6E6"/>
<circle cx="483" cy="245" r="7" stroke="#6B778C" stroke-width="2"/>
<path d="M421.799 249H429.207V247.752H423.143V243.72H428.535V242.472H423.143V238.92H428.919V237.672H421.799V249ZM437.427 241.512H436.083L433.859 247.384H433.827L431.491 241.512H430.035L433.091 249H434.467L437.427 241.512ZM444.522 246.904C443.93 247.656 443.21 248.04 442.138 248.04C440.778 248.04 439.786 246.936 439.69 245.64H445.738V245.24C445.738 242.76 444.298 241.32 442.186 241.32C439.978 241.32 438.346 242.936 438.346 245.256C438.346 247.432 439.786 249.192 442.138 249.192C443.53 249.192 444.586 248.776 445.466 247.64L444.522 246.904ZM439.69 244.584C439.85 243.32 440.762 242.472 442.138 242.472C443.514 242.472 444.346 243.32 444.394 244.584H439.69ZM447.668 249H448.916V245.352C448.916 243.64 449.62 242.472 451.236 242.472C452.404 242.472 452.948 243.256 452.948 244.504V249H454.196V244.376C454.196 242.568 453.316 241.32 451.348 241.32C450.116 241.32 449.188 242.008 448.852 242.744H448.82C448.82 242.328 448.788 241.912 448.788 241.512H447.604C447.604 242.008 447.668 242.6 447.668 243.288V249ZM460.655 241.512H458.447V239.384H457.199V241.512H455.567V242.568H457.199V246.68C457.199 248.232 457.487 249.192 459.263 249.192C459.727 249.192 460.287 249.112 460.719 248.92L460.671 247.784C460.335 247.96 459.935 248.04 459.567 248.04C458.463 248.04 458.447 247.272 458.447 246.312V242.568H460.655V241.512Z" fill="#333333"/>
<path d="M542.106 12H545.802C548.182 12 551.052 10.432 551.052 7.044C551.052 3.684 548.616 2.088 546.012 2.088H542.106V12ZM543.87 10.404V3.684H545.48C547.636 3.684 549.204 4.636 549.204 7.044C549.204 9.452 547.398 10.404 545.186 10.404H543.87ZM552.603 12H554.283V5.28H552.603V12ZM552.365 2.998C552.365 3.53 552.813 4.006 553.429 4.006C554.045 4.006 554.521 3.572 554.521 2.998C554.521 2.424 554.045 1.99 553.429 1.99C552.813 1.99 552.365 2.466 552.365 2.998ZM556.212 12H557.892V8.402C557.892 8.038 558.116 6.708 559.698 6.708C559.964 6.708 560.23 6.764 560.51 6.834V5.21C560.314 5.154 560.118 5.112 559.908 5.112C559.026 5.112 558.284 5.574 557.92 6.344H557.892V5.28H556.212V12ZM567.875 9.228V8.766C567.875 6.428 566.601 5.112 564.725 5.112C562.695 5.112 561.071 6.526 561.071 8.64C561.071 10.754 562.695 12.168 564.725 12.168C565.789 12.168 566.783 11.79 567.567 10.824L566.363 9.914C565.943 10.432 565.397 10.824 564.557 10.824C563.619 10.824 562.863 10.222 562.751 9.228H567.875ZM562.751 7.968C562.877 7.002 563.493 6.372 564.487 6.372C565.537 6.372 566.181 6.988 566.195 7.968H562.751ZM575.2 6.134C574.556 5.42 573.618 5.112 572.764 5.112C570.734 5.112 569.11 6.526 569.11 8.64C569.11 10.754 570.734 12.168 572.764 12.168C573.352 12.168 574.5 11.916 575.186 11.23L574.066 10.026C573.758 10.432 573.282 10.656 572.764 10.656C571.532 10.656 570.79 9.69 570.79 8.64C570.79 7.59 571.532 6.624 572.764 6.624C573.212 6.624 573.646 6.89 574.038 7.296L575.2 6.134ZM576.802 6.708V9.788C576.802 11.37 577.222 12.168 579 12.168C579.392 12.168 579.98 12.112 580.33 11.944V10.53C580.12 10.684 579.714 10.74 579.42 10.74C578.678 10.74 578.482 10.32 578.482 9.648V6.708H580.33V5.28H578.482V3.334H576.802V5.28H575.416V6.708H576.802ZM581.669 12H583.349V5.28H581.669V12ZM581.431 2.998C581.431 3.53 581.879 4.006 582.495 4.006C583.111 4.006 583.587 3.572 583.587 2.998C583.587 2.424 583.111 1.99 582.495 1.99C581.879 1.99 581.431 2.466 581.431 2.998ZM584.942 8.64C584.942 10.754 586.566 12.168 588.596 12.168C590.626 12.168 592.25 10.754 592.25 8.64C592.25 6.526 590.626 5.112 588.596 5.112C586.566 5.112 584.942 6.526 584.942 8.64ZM586.622 8.64C586.622 7.59 587.364 6.624 588.596 6.624C589.828 6.624 590.57 7.59 590.57 8.64C590.57 9.69 589.828 10.656 588.596 10.656C587.364 10.656 586.622 9.69 586.622 8.64ZM593.823 12H595.503V8.332C595.503 7.436 595.937 6.624 597.043 6.624C598.219 6.624 598.275 7.856 598.275 8.598V12H599.955V7.758C599.955 6.386 599.311 5.112 597.505 5.112C596.385 5.112 595.755 5.686 595.447 6.358H595.419V5.28H593.823V12ZM601.862 11.02C601.862 11.622 602.394 12.084 602.982 12.084C603.598 12.084 604.102 11.594 604.102 10.992C604.102 10.39 603.584 9.928 602.982 9.928C602.366 9.928 601.862 10.418 601.862 11.02ZM601.862 6.274C601.862 6.876 602.394 7.338 602.982 7.338C603.598 7.338 604.102 6.848 604.102 6.246C604.102 5.644 603.584 5.182 602.982 5.182C602.366 5.182 601.862 5.672 601.862 6.274ZM613.045 12H614.571L618.575 2.088H616.671L613.885 9.578L611.183 2.088H609.153L613.045 12ZM625.188 9.228V8.766C625.188 6.428 623.914 5.112 622.038 5.112C620.008 5.112 618.384 6.526 618.384 8.64C618.384 10.754 620.008 12.168 622.038 12.168C623.102 12.168 624.096 11.79 624.88 10.824L623.676 9.914C623.256 10.432 622.71 10.824 621.87 10.824C620.932 10.824 620.176 10.222 620.064 9.228H625.188ZM620.064 7.968C620.19 7.002 620.806 6.372 621.8 6.372C622.85 6.372 623.494 6.988 623.508 7.968H620.064ZM626.759 12H628.439V8.402C628.439 8.038 628.663 6.708 630.245 6.708C630.511 6.708 630.777 6.764 631.057 6.834V5.21C630.861 5.154 630.665 5.112 630.455 5.112C629.573 5.112 628.831 5.574 628.467 6.344H628.439V5.28H626.759V12ZM632.802 6.708V9.788C632.802 11.37 633.222 12.168 635 12.168C635.392 12.168 635.98 12.112 636.33 11.944V10.53C636.12 10.684 635.714 10.74 635.42 10.74C634.678 10.74 634.482 10.32 634.482 9.648V6.708H636.33V5.28H634.482V3.334H632.802V5.28H631.416V6.708H632.802ZM637.669 12H639.349V5.28H637.669V12ZM637.431 2.998C637.431 3.53 637.879 4.006 638.495 4.006C639.111 4.006 639.587 3.572 639.587 2.998C639.587 2.424 639.111 1.99 638.495 1.99C637.879 1.99 637.431 2.466 637.431 2.998ZM647.032 6.134C646.388 5.42 645.45 5.112 644.596 5.112C642.566 5.112 640.942 6.526 640.942 8.64C640.942 10.754 642.566 12.168 644.596 12.168C645.184 12.168 646.332 11.916 647.018 11.23L645.898 10.026C645.59 10.432 645.114 10.656 644.596 10.656C643.364 10.656 642.622 9.69 642.622 8.64C642.622 7.59 643.364 6.624 644.596 6.624C645.044 6.624 645.478 6.89 645.87 7.296L647.032 6.134ZM652.232 12H653.744V8.136C653.744 7.184 653.744 5.112 650.874 5.112C649.81 5.112 648.76 5.434 648.018 6.19L648.9 7.072C649.348 6.652 649.992 6.372 650.692 6.372C651.588 6.372 652.232 6.806 652.232 7.632V7.814H651.812C650.132 7.814 647.584 7.968 647.584 10.152C647.584 11.482 648.788 12.168 650.034 12.168C650.93 12.168 651.714 11.832 652.19 11.076H652.232V12ZM652.134 9.368C652.134 10.306 651.588 10.908 650.44 10.908C649.894 10.908 649.264 10.642 649.264 10.026C649.264 9.06 650.86 8.99 651.784 8.99H652.134V9.368ZM655.58 12H657.26V1.416H655.58V12ZM544.136 29H545.9V20.684H548.938V19.088H541.098V20.684H544.136V29ZM550.392 29.056L550.07 29.854C549.79 30.554 549.566 30.848 548.74 30.848C548.446 30.848 548.152 30.778 547.886 30.68L547.676 32.192C548.096 32.304 548.53 32.36 548.964 32.36C550.448 32.36 551.036 31.702 551.526 30.442L554.704 22.28H552.954L551.274 26.942H551.246L549.37 22.28H547.522L550.392 29.056ZM555.692 32.192H557.372V28.146H557.414C557.764 28.58 558.436 29.168 559.696 29.168C561.614 29.168 562.944 27.628 562.944 25.64C562.944 23.652 561.698 22.112 559.626 22.112C558.688 22.112 557.806 22.476 557.316 23.288H557.288V22.28H555.692V32.192ZM561.264 25.64C561.264 26.69 560.522 27.656 559.29 27.656C558.058 27.656 557.316 26.69 557.316 25.64C557.316 24.59 558.058 23.624 559.29 23.624C560.522 23.624 561.264 24.59 561.264 25.64ZM570.979 26.228V25.766C570.979 23.428 569.705 22.112 567.829 22.112C565.799 22.112 564.175 23.526 564.175 25.64C564.175 27.754 565.799 29.168 567.829 29.168C568.893 29.168 569.887 28.79 570.671 27.824L569.467 26.914C569.047 27.432 568.501 27.824 567.661 27.824C566.723 27.824 565.967 27.222 565.855 26.228H570.979ZM565.855 24.968C565.981 24.002 566.597 23.372 567.591 23.372C568.641 23.372 569.285 23.988 569.299 24.968H565.855ZM572.55 28.02C572.55 28.622 573.082 29.084 573.67 29.084C574.286 29.084 574.79 28.594 574.79 27.992C574.79 27.39 574.272 26.928 573.67 26.928C573.054 26.928 572.55 27.418 572.55 28.02ZM572.55 23.274C572.55 23.876 573.082 24.338 573.67 24.338C574.286 24.338 574.79 23.848 574.79 23.246C574.79 22.644 574.272 22.182 573.67 22.182C573.054 22.182 572.55 22.672 572.55 23.274ZM580.989 29H582.753V24.8H584.041L586.337 29H588.465L585.833 24.618C587.303 24.408 588.129 23.358 588.129 21.93C588.129 19.704 586.337 19.088 584.433 19.088H580.989V29ZM582.753 23.288V20.6H584.279C585.189 20.6 586.281 20.74 586.281 21.916C586.281 23.204 585.119 23.288 584.125 23.288H582.753ZM589.681 29H591.361V22.28H589.681V29ZM589.443 19.998C589.443 20.53 589.891 21.006 590.507 21.006C591.123 21.006 591.599 20.572 591.599 19.998C591.599 19.424 591.123 18.99 590.507 18.99C589.891 18.99 589.443 19.466 589.443 19.998ZM598.61 22.28V23.288H598.582C598.092 22.476 597.21 22.112 596.272 22.112C594.2 22.112 592.954 23.652 592.954 25.64C592.954 27.544 594.284 29.084 596.3 29.084C597.14 29.084 598.008 28.762 598.498 28.104H598.526V28.594C598.526 29.924 598.022 30.848 596.398 30.848C595.46 30.848 594.76 30.498 594.088 29.882L593.08 31.254C594.032 32.094 595.166 32.36 596.412 32.36C599.03 32.36 600.206 30.82 600.206 28.398V22.28H598.61ZM596.622 23.624C597.84 23.624 598.61 24.436 598.61 25.598C598.61 26.718 597.854 27.572 596.608 27.572C595.474 27.572 594.634 26.69 594.634 25.626C594.634 24.436 595.446 23.624 596.622 23.624ZM603.788 18.416H602.108V29H603.788V25.332C603.788 24.436 604.222 23.624 605.328 23.624C606.504 23.624 606.56 24.856 606.56 25.598V29H608.24V24.758C608.24 23.386 607.596 22.112 605.79 22.112C604.754 22.112 604.082 22.658 603.816 23.218H603.788V18.416ZM610.749 23.708V26.788C610.749 28.37 611.169 29.168 612.947 29.168C613.339 29.168 613.927 29.112 614.277 28.944V27.53C614.067 27.684 613.661 27.74 613.367 27.74C612.625 27.74 612.429 27.32 612.429 26.648V23.708H614.277V22.28H612.429V20.334H610.749V22.28H609.363V23.708H610.749Z" fill="black"/>
<circle cx="549" cy="58" r="7" stroke="#6B778C" stroke-width="2"/>
<path d="M572.408 62H579.816V60.752H573.752V56.72H579.144V55.472H573.752V51.92H579.528V50.672H572.408V62ZM588.036 54.512H586.692L584.468 60.384H584.436L582.1 54.512H580.644L583.7 62H585.076L588.036 54.512ZM595.131 59.904C594.539 60.656 593.819 61.04 592.747 61.04C591.387 61.04 590.395 59.936 590.299 58.64H596.347V58.24C596.347 55.76 594.907 54.32 592.795 54.32C590.587 54.32 588.955 55.936 588.955 58.256C588.955 60.432 590.395 62.192 592.747 62.192C594.139 62.192 595.195 61.776 596.075 60.64L595.131 59.904ZM590.299 57.584C590.459 56.32 591.371 55.472 592.747 55.472C594.123 55.472 594.955 56.32 595.003 57.584H590.299ZM598.278 62H599.526V58.352C599.526 56.64 600.23 55.472 601.846 55.472C603.014 55.472 603.558 56.256 603.558 57.504V62H604.806V57.376C604.806 55.568 603.926 54.32 601.958 54.32C600.726 54.32 599.798 55.008 599.462 55.744H599.43C599.43 55.328 599.398 54.912 599.398 54.512H598.214C598.214 55.008 598.278 55.6 598.278 56.288V62ZM611.264 54.512H609.056V52.384H607.808V54.512H606.176V55.568H607.808V59.68C607.808 61.232 608.096 62.192 609.872 62.192C610.336 62.192 610.896 62.112 611.328 61.92L611.28 60.784C610.944 60.96 610.544 61.04 610.176 61.04C609.072 61.04 609.056 60.272 609.056 59.312V55.568H611.264V54.512Z" fill="#333333"/>
<rect width="2" height="45.3333" transform="translate(548 66)" fill="#E6E6E6"/>
<circle cx="549" cy="119.334" r="7" stroke="#6B778C" stroke-width="2"/>
<path d="M572.408 123.334H579.816V122.086H573.752V118.054H579.144V116.806H573.752V113.254H579.528V112.006H572.408V123.334ZM588.036 115.846H586.692L584.468 121.718H584.436L582.1 115.846H580.644L583.7 123.334H585.076L588.036 115.846ZM595.131 121.238C594.539 121.99 593.819 122.374 592.747 122.374C591.387 122.374 590.395 121.27 590.299 119.974H596.347V119.574C596.347 117.094 594.907 115.654 592.795 115.654C590.587 115.654 588.955 117.27 588.955 119.59C588.955 121.766 590.395 123.526 592.747 123.526C594.139 123.526 595.195 123.11 596.075 121.974L595.131 121.238ZM590.299 118.918C590.459 117.654 591.371 116.806 592.747 116.806C594.123 116.806 594.955 117.654 595.003 118.918H590.299ZM598.278 123.334H599.526V119.686C599.526 117.974 600.23 116.806 601.846 116.806C603.014 116.806 603.558 117.59 603.558 118.838V123.334H604.806V118.71C604.806 116.902 603.926 115.654 601.958 115.654C600.726 115.654 599.798 116.342 599.462 117.078H599.43C599.43 116.662 599.398 116.246 599.398 115.846H598.214C598.214 116.342 598.278 116.934 598.278 117.622V123.334ZM611.264 115.846H609.056V113.718H607.808V115.846H606.176V116.902H607.808V121.014C607.808 122.566 608.096 123.526 609.872 123.526C610.336 123.526 610.896 123.446 611.328 123.254L611.28 122.118C610.944 122.294 610.544 122.374 610.176 122.374C609.072 122.374 609.056 121.606 609.056 120.646V116.902H611.264V115.846Z" fill="#333333"/>
<rect width="2" height="45.3333" transform="translate(548 127.334)" fill="#E6E6E6"/>
<circle cx="549" cy="180.666" r="7" stroke="#6B778C" stroke-width="2"/>
<path d="M572.408 184.666H579.816V183.418H573.752V179.386H579.144V178.138H573.752V174.586H579.528V173.338H572.408V184.666ZM588.036 177.178H586.692L584.468 183.05H584.436L582.1 177.178H580.644L583.7 184.666H585.076L588.036 177.178ZM595.131 182.57C594.539 183.322 593.819 183.706 592.747 183.706C591.387 183.706 590.395 182.602 590.299 181.306H596.347V180.906C596.347 178.426 594.907 176.986 592.795 176.986C590.587 176.986 588.955 178.602 588.955 180.922C588.955 183.098 590.395 184.858 592.747 184.858C594.139 184.858 595.195 184.442 596.075 183.306L595.131 182.57ZM590.299 180.25C590.459 178.986 591.371 178.138 592.747 178.138C594.123 178.138 594.955 178.986 595.003 180.25H590.299ZM598.278 184.666H599.526V181.018C599.526 179.306 600.23 178.138 601.846 178.138C603.014 178.138 603.558 178.922 603.558 180.17V184.666H604.806V180.042C604.806 178.234 603.926 176.986 601.958 176.986C600.726 176.986 599.798 177.674 599.462 178.41H599.43C599.43 177.994 599.398 177.578 599.398 177.178H598.214C598.214 177.674 598.278 178.266 598.278 178.954V184.666ZM611.264 177.178H609.056V175.05H607.808V177.178H606.176V178.234H607.808V182.346C607.808 183.898 608.096 184.858 609.872 184.858C610.336 184.858 610.896 184.778 611.328 184.586L611.28 183.45C610.944 183.626 610.544 183.706 610.176 183.706C609.072 183.706 609.056 182.938 609.056 181.978V178.234H611.264V177.178Z" fill="#333333"/>
<rect width="2" height="45.3333" transform="translate(548 188.666)" fill="#E6E6E6"/>
<circle cx="549" cy="242" r="7" stroke="#6B778C" stroke-width="2"/>
<path d="M572.408 246H579.816V244.752H573.752V240.72H579.144V239.472H573.752V235.92H579.528V234.672H572.408V246ZM588.036 238.512H586.692L584.468 244.384H584.436L582.1 238.512H580.644L583.7 246H585.076L588.036 238.512ZM595.131 243.904C594.539 244.656 593.819 245.04 592.747 245.04C591.387 245.04 590.395 243.936 590.299 242.64H596.347V242.24C596.347 239.76 594.907 238.32 592.795 238.32C590.587 238.32 588.955 239.936 588.955 242.256C588.955 244.432 590.395 246.192 592.747 246.192C594.139 246.192 595.195 245.776 596.075 244.64L595.131 243.904ZM590.299 241.584C590.459 240.32 591.371 239.472 592.747 239.472C594.123 239.472 594.955 240.32 595.003 241.584H590.299ZM598.278 246H599.526V242.352C599.526 240.64 600.23 239.472 601.846 239.472C603.014 239.472 603.558 240.256 603.558 241.504V246H604.806V241.376C604.806 239.568 603.926 238.32 601.958 238.32C600.726 238.32 599.798 239.008 599.462 239.744H599.43C599.43 239.328 599.398 238.912 599.398 238.512H598.214C598.214 239.008 598.278 239.6 598.278 240.288V246ZM611.264 238.512H609.056V236.384H607.808V238.512H606.176V239.568H607.808V243.68C607.808 245.232 608.096 246.192 609.872 246.192C610.336 246.192 610.896 246.112 611.328 245.92L611.28 244.784C610.944 244.96 610.544 245.04 610.176 245.04C609.072 245.04 609.056 244.272 609.056 243.312V239.568H611.264V238.512Z" fill="#333333"/>
</svg>
