<svg width="659" height="519" viewBox="0 0 659 519" fill="none" xmlns="http://www.w3.org/2000/svg">
<g clip-path="url(#clip0_62_15530)">
<path d="M38.106 12H41.802C44.182 12 47.052 10.432 47.052 7.044C47.052 3.684 44.616 2.088 42.012 2.088H38.106V12ZM39.87 10.404V3.684H41.48C43.636 3.684 45.204 4.636 45.204 7.044C45.204 9.452 43.398 10.404 41.186 10.404H39.87ZM48.603 12H50.283V5.28H48.603V12ZM48.365 2.998C48.365 3.53 48.813 4.006 49.429 4.006C50.045 4.006 50.521 3.572 50.521 2.998C50.521 2.424 50.045 1.99 49.429 1.99C48.813 1.99 48.365 2.466 48.365 2.998ZM52.2118 12H53.8918V8.402C53.8918 8.038 54.1158 6.708 55.6978 6.708C55.9638 6.708 56.2298 6.764 56.5098 6.834V5.21C56.3138 5.154 56.1178 5.112 55.9078 5.112C55.0258 5.112 54.2838 5.574 53.9198 6.344H53.8918V5.28H52.2118V12ZM63.8751 9.228V8.766C63.8751 6.428 62.6011 5.112 60.7251 5.112C58.6951 5.112 57.0711 6.526 57.0711 8.64C57.0711 10.754 58.6951 12.168 60.7251 12.168C61.7891 12.168 62.7831 11.79 63.5671 10.824L62.3631 9.914C61.9431 10.432 61.3971 10.824 60.5571 10.824C59.6191 10.824 58.8631 10.222 58.7511 9.228H63.8751ZM58.7511 7.968C58.8771 7.002 59.4931 6.372 60.4871 6.372C61.5371 6.372 62.1811 6.988 62.1951 7.968H58.7511ZM71.2001 6.134C70.5561 5.42 69.6181 5.112 68.7641 5.112C66.7341 5.112 65.1101 6.526 65.1101 8.64C65.1101 10.754 66.7341 12.168 68.7641 12.168C69.3521 12.168 70.5001 11.916 71.1861 11.23L70.0661 10.026C69.7581 10.432 69.2821 10.656 68.7641 10.656C67.5321 10.656 66.7901 9.69 66.7901 8.64C66.7901 7.59 67.5321 6.624 68.7641 6.624C69.2121 6.624 69.6461 6.89 70.0381 7.296L71.2001 6.134ZM72.802 6.708V9.788C72.802 11.37 73.222 12.168 75 12.168C75.392 12.168 75.98 12.112 76.33 11.944V10.53C76.12 10.684 75.714 10.74 75.42 10.74C74.678 10.74 74.482 10.32 74.482 9.648V6.708H76.33V5.28H74.482V3.334H72.802V5.28H71.416V6.708H72.802ZM77.6695 12H79.3495V5.28H77.6695V12ZM77.4315 2.998C77.4315 3.53 77.8795 4.006 78.4955 4.006C79.1115 4.006 79.5875 3.572 79.5875 2.998C79.5875 2.424 79.1115 1.99 78.4955 1.99C77.8795 1.99 77.4315 2.466 77.4315 2.998ZM80.9422 8.64C80.9422 10.754 82.5662 12.168 84.5962 12.168C86.6262 12.168 88.2502 10.754 88.2502 8.64C88.2502 6.526 86.6262 5.112 84.5962 5.112C82.5662 5.112 80.9422 6.526 80.9422 8.64ZM82.6222 8.64C82.6222 7.59 83.3642 6.624 84.5962 6.624C85.8282 6.624 86.5702 7.59 86.5702 8.64C86.5702 9.69 85.8282 10.656 84.5962 10.656C83.3642 10.656 82.6222 9.69 82.6222 8.64ZM89.8231 12H91.5031V8.332C91.5031 7.436 91.9371 6.624 93.0431 6.624C94.2191 6.624 94.2751 7.856 94.2751 8.598V12H95.9551V7.758C95.9551 6.386 95.3111 5.112 93.5051 5.112C92.3851 5.112 91.7551 5.686 91.4471 6.358H91.4191V5.28H89.8231V12ZM97.8622 11.02C97.8622 11.622 98.3942 12.084 98.9822 12.084C99.5982 12.084 100.102 11.594 100.102 10.992C100.102 10.39 99.5842 9.928 98.9822 9.928C98.3662 9.928 97.8622 10.418 97.8622 11.02ZM97.8622 6.274C97.8622 6.876 98.3942 7.338 98.9822 7.338C99.5982 7.338 100.102 6.848 100.102 6.246C100.102 5.644 99.5842 5.182 98.9822 5.182C98.3662 5.182 97.8622 5.672 97.8622 6.274ZM109.045 12H110.571L114.575 2.088H112.671L109.885 9.578L107.183 2.088H105.153L109.045 12ZM121.188 9.228V8.766C121.188 6.428 119.914 5.112 118.038 5.112C116.008 5.112 114.384 6.526 114.384 8.64C114.384 10.754 116.008 12.168 118.038 12.168C119.102 12.168 120.096 11.79 120.88 10.824L119.676 9.914C119.256 10.432 118.71 10.824 117.87 10.824C116.932 10.824 116.176 10.222 116.064 9.228H121.188ZM116.064 7.968C116.19 7.002 116.806 6.372 117.8 6.372C118.85 6.372 119.494 6.988 119.508 7.968H116.064ZM122.759 12H124.439V8.402C124.439 8.038 124.663 6.708 126.245 6.708C126.511 6.708 126.777 6.764 127.057 6.834V5.21C126.861 5.154 126.665 5.112 126.455 5.112C125.573 5.112 124.831 5.574 124.467 6.344H124.439V5.28H122.759V12ZM128.802 6.708V9.788C128.802 11.37 129.222 12.168 131 12.168C131.392 12.168 131.98 12.112 132.33 11.944V10.53C132.12 10.684 131.714 10.74 131.42 10.74C130.678 10.74 130.482 10.32 130.482 9.648V6.708H132.33V5.28H130.482V3.334H128.802V5.28H127.416V6.708H128.802ZM133.669 12H135.349V5.28H133.669V12ZM133.431 2.998C133.431 3.53 133.879 4.006 134.495 4.006C135.111 4.006 135.587 3.572 135.587 2.998C135.587 2.424 135.111 1.99 134.495 1.99C133.879 1.99 133.431 2.466 133.431 2.998ZM143.032 6.134C142.388 5.42 141.45 5.112 140.596 5.112C138.566 5.112 136.942 6.526 136.942 8.64C136.942 10.754 138.566 12.168 140.596 12.168C141.184 12.168 142.332 11.916 143.018 11.23L141.898 10.026C141.59 10.432 141.114 10.656 140.596 10.656C139.364 10.656 138.622 9.69 138.622 8.64C138.622 7.59 139.364 6.624 140.596 6.624C141.044 6.624 141.478 6.89 141.87 7.296L143.032 6.134ZM148.232 12H149.744V8.136C149.744 7.184 149.744 5.112 146.874 5.112C145.81 5.112 144.76 5.434 144.018 6.19L144.9 7.072C145.348 6.652 145.992 6.372 146.692 6.372C147.588 6.372 148.232 6.806 148.232 7.632V7.814H147.812C146.132 7.814 143.584 7.968 143.584 10.152C143.584 11.482 144.788 12.168 146.034 12.168C146.93 12.168 147.714 11.832 148.19 11.076H148.232V12ZM148.134 9.368C148.134 10.306 147.588 10.908 146.44 10.908C145.894 10.908 145.264 10.642 145.264 10.026C145.264 9.06 146.86 8.99 147.784 8.99H148.134V9.368ZM151.58 12H153.26V1.416H151.58V12ZM40.136 29H41.9V20.684H44.938V19.088H37.098V20.684H40.136V29ZM46.3925 29.056L46.0705 29.854C45.7905 30.554 45.5665 30.848 44.7405 30.848C44.4465 30.848 44.1525 30.778 43.8865 30.68L43.6765 32.192C44.0965 32.304 44.5305 32.36 44.9645 32.36C46.4485 32.36 47.0365 31.702 47.5265 30.442L50.7045 22.28H48.9545L47.2745 26.942H47.2465L45.3705 22.28H43.5225L46.3925 29.056ZM51.6922 32.192H53.3722V28.146H53.4142C53.7642 28.58 54.4362 29.168 55.6962 29.168C57.6142 29.168 58.9442 27.628 58.9442 25.64C58.9442 23.652 57.6982 22.112 55.6262 22.112C54.6882 22.112 53.8062 22.476 53.3162 23.288H53.2882V22.28H51.6922V32.192ZM57.2642 25.64C57.2642 26.69 56.5222 27.656 55.2902 27.656C54.0582 27.656 53.3162 26.69 53.3162 25.64C53.3162 24.59 54.0582 23.624 55.2902 23.624C56.5222 23.624 57.2642 24.59 57.2642 25.64ZM66.9786 26.228V25.766C66.9786 23.428 65.7046 22.112 63.8286 22.112C61.7986 22.112 60.1746 23.526 60.1746 25.64C60.1746 27.754 61.7986 29.168 63.8286 29.168C64.8926 29.168 65.8866 28.79 66.6706 27.824L65.4666 26.914C65.0466 27.432 64.5006 27.824 63.6606 27.824C62.7226 27.824 61.9666 27.222 61.8546 26.228H66.9786ZM61.8546 24.968C61.9806 24.002 62.5966 23.372 63.5906 23.372C64.6406 23.372 65.2846 23.988 65.2986 24.968H61.8546ZM68.5497 28.02C68.5497 28.622 69.0817 29.084 69.6697 29.084C70.2857 29.084 70.7897 28.594 70.7897 27.992C70.7897 27.39 70.2717 26.928 69.6697 26.928C69.0537 26.928 68.5497 27.418 68.5497 28.02ZM68.5497 23.274C68.5497 23.876 69.0817 24.338 69.6697 24.338C70.2857 24.338 70.7897 23.848 70.7897 23.246C70.7897 22.644 70.2717 22.182 69.6697 22.182C69.0537 22.182 68.5497 22.672 68.5497 23.274ZM76.9888 29H80.6848C83.0648 29 85.9348 27.432 85.9348 24.044C85.9348 20.684 83.4988 19.088 80.8948 19.088H76.9888V29ZM78.7528 27.404V20.684H80.3628C82.5188 20.684 84.0868 21.636 84.0868 24.044C84.0868 26.452 82.2808 27.404 80.0688 27.404H78.7528ZM91.6579 29H93.1699V25.136C93.1699 24.184 93.1699 22.112 90.2999 22.112C89.2359 22.112 88.1859 22.434 87.4439 23.19L88.3259 24.072C88.7739 23.652 89.4179 23.372 90.1179 23.372C91.0139 23.372 91.6579 23.806 91.6579 24.632V24.814H91.2379C89.5579 24.814 87.0099 24.968 87.0099 27.152C87.0099 28.482 88.2139 29.168 89.4599 29.168C90.3559 29.168 91.1399 28.832 91.6159 28.076H91.6579V29ZM91.5599 26.368C91.5599 27.306 91.0139 27.908 89.8659 27.908C89.3199 27.908 88.6899 27.642 88.6899 27.026C88.6899 26.06 90.2859 25.99 91.2099 25.99H91.5599V26.368ZM95.5794 23.708V26.788C95.5794 28.37 95.9994 29.168 97.7774 29.168C98.1694 29.168 98.7574 29.112 99.1074 28.944V27.53C98.8974 27.684 98.4914 27.74 98.1974 27.74C97.4554 27.74 97.2594 27.32 97.2594 26.648V23.708H99.1074V22.28H97.2594V20.334H95.5794V22.28H94.1934V23.708H95.5794ZM106.887 26.228V25.766C106.887 23.428 105.613 22.112 103.737 22.112C101.707 22.112 100.083 23.526 100.083 25.64C100.083 27.754 101.707 29.168 103.737 29.168C104.801 29.168 105.795 28.79 106.579 27.824L105.375 26.914C104.955 27.432 104.409 27.824 103.569 27.824C102.631 27.824 101.875 27.222 101.763 26.228H106.887ZM101.763 24.968C101.889 24.002 102.505 23.372 103.499 23.372C104.549 23.372 105.193 23.988 105.207 24.968H101.763Z" fill="black"/>
<circle cx="96" cy="57" r="7" fill="#6B778C"/>
<path d="M5.44234 50.588H4.42034L1.76034 52.744L2.46034 53.598L4.23834 52.1H4.26634V60.5H5.44234V50.588ZM8.88164 60.5H15.2656V59.408H10.2116V59.38L13.2636 56.51C14.2576 55.572 15.1956 54.69 15.1956 53.108C15.1956 51.344 13.8096 50.42 12.1716 50.42C10.5756 50.42 9.32964 51.274 9.06364 52.898L10.3376 53.01C10.5196 52.058 11.2196 51.428 12.2136 51.428C13.2076 51.428 14.0196 52.072 14.0196 53.108C14.0196 54.074 13.5576 54.606 12.6196 55.516L8.88164 59.156V60.5ZM21.0989 50.336L20.2169 50L16.0029 60.752L16.8849 61.102L21.0989 50.336ZM26.1826 50.588H25.1606L22.5006 52.744L23.2006 53.598L24.9786 52.1H25.0066V60.5H26.1826V50.588ZM29.4539 55.544C29.4539 57.798 30.0839 60.668 32.8139 60.668C35.5439 60.668 36.1739 57.798 36.1739 55.544C36.1739 53.29 35.5439 50.42 32.8139 50.42C30.0839 50.42 29.4539 53.29 29.4539 55.544ZM30.6299 55.544C30.6299 54.088 30.8539 51.428 32.8139 51.428C34.7739 51.428 34.9979 54.088 34.9979 55.544C34.9979 57 34.7739 59.66 32.8139 59.66C30.8539 59.66 30.6299 57 30.6299 55.544ZM41.8392 50.336L40.9572 50L36.7432 60.752L37.6252 61.102L41.8392 50.336ZM42.5828 60.5H48.9668V59.408H43.9128V59.38L46.9648 56.51C47.9588 55.572 48.8968 54.69 48.8968 53.108C48.8968 51.344 47.5108 50.42 45.8728 50.42C44.2768 50.42 43.0308 51.274 42.7648 52.898L44.0388 53.01C44.2208 52.058 44.9208 51.428 45.9148 51.428C46.9088 51.428 47.7208 52.072 47.7208 53.108C47.7208 54.074 47.2588 54.606 46.3208 55.516L42.5828 59.156V60.5ZM50.1941 55.544C50.1941 57.798 50.8241 60.668 53.5541 60.668C56.2841 60.668 56.9141 57.798 56.9141 55.544C56.9141 53.29 56.2841 50.42 53.5541 50.42C50.8241 50.42 50.1941 53.29 50.1941 55.544ZM51.3701 55.544C51.3701 54.088 51.5941 51.428 53.5541 51.428C55.5141 51.428 55.7381 54.088 55.7381 55.544C55.7381 57 55.5141 59.66 53.5541 59.66C51.5941 59.66 51.3701 57 51.3701 55.544ZM60.2974 55.796H60.6614C61.8794 55.796 63.1674 56.258 63.1674 57.714C63.1674 58.862 62.2714 59.66 61.1514 59.66C60.0594 59.66 59.4854 59.254 59.1494 58.19L57.9594 58.582C58.4634 60.052 59.6534 60.668 61.1514 60.668C62.9154 60.668 64.4274 59.688 64.4274 57.798C64.4274 56.552 63.6574 55.516 62.3974 55.306V55.278C63.3914 54.97 64.0914 54.046 64.0914 53.01C64.0914 51.302 62.7194 50.42 61.1374 50.42C59.8774 50.42 58.7434 50.98 58.2674 52.1L59.4014 52.534C59.7514 51.806 60.3954 51.428 61.2214 51.428C62.2154 51.428 62.9154 52.058 62.9154 53.066C62.9154 54.564 61.6414 54.788 60.6614 54.788H60.2974V55.796ZM65.7527 55.544C65.7527 57.798 66.3827 60.668 69.1127 60.668C71.8427 60.668 72.4727 57.798 72.4727 55.544C72.4727 53.29 71.8427 50.42 69.1127 50.42C66.3827 50.42 65.7527 53.29 65.7527 55.544ZM66.9287 55.544C66.9287 54.088 67.1527 51.428 69.1127 51.428C71.0727 51.428 71.2967 54.088 71.2967 55.544C71.2967 57 71.0727 59.66 69.1127 59.66C67.1527 59.66 66.9287 57 66.9287 55.544Z" fill="#6B778C"/>
<path d="M120.408 61H127.816V59.752H121.752V55.72H127.144V54.472H121.752V50.92H127.528V49.672H120.408V61ZM136.036 53.512H134.692L132.468 59.384H132.436L130.1 53.512H128.644L131.7 61H133.076L136.036 53.512ZM143.131 58.904C142.539 59.656 141.819 60.04 140.747 60.04C139.387 60.04 138.395 58.936 138.299 57.64H144.347V57.24C144.347 54.76 142.907 53.32 140.795 53.32C138.587 53.32 136.955 54.936 136.955 57.256C136.955 59.432 138.395 61.192 140.747 61.192C142.139 61.192 143.195 60.776 144.075 59.64L143.131 58.904ZM138.299 56.584C138.459 55.32 139.371 54.472 140.747 54.472C142.123 54.472 142.955 55.32 143.003 56.584H138.299ZM146.278 61H147.526V57.352C147.526 55.64 148.23 54.472 149.846 54.472C151.014 54.472 151.558 55.256 151.558 56.504V61H152.806V56.376C152.806 54.568 151.926 53.32 149.958 53.32C148.726 53.32 147.798 54.008 147.462 54.744H147.43C147.43 54.328 147.398 53.912 147.398 53.512H146.214C146.214 54.008 146.278 54.6 146.278 55.288V61ZM159.264 53.512H157.056V51.384H155.808V53.512H154.176V54.568H155.808V58.68C155.808 60.232 156.096 61.192 157.872 61.192C158.336 61.192 158.896 61.112 159.328 60.92L159.28 59.784C158.944 59.96 158.544 60.04 158.176 60.04C157.072 60.04 157.056 59.272 157.056 58.312V54.568H159.264V53.512Z" fill="#333333"/>
<rect width="2" height="48" transform="translate(95 64)" fill="#9EA6B5"/>
<circle cx="96" cy="119" r="7" fill="#6B778C"/>
<path d="M5.44234 112.588H4.42034L1.76034 114.744L2.46034 115.598L4.23834 114.1H4.26634V122.5H5.44234V112.588ZM8.88164 122.5H15.2656V121.408H10.2116V121.38L13.2636 118.51C14.2576 117.572 15.1956 116.69 15.1956 115.108C15.1956 113.344 13.8096 112.42 12.1716 112.42C10.5756 112.42 9.32964 113.274 9.06364 114.898L10.3376 115.01C10.5196 114.058 11.2196 113.428 12.2136 113.428C13.2076 113.428 14.0196 114.072 14.0196 115.108C14.0196 116.074 13.5576 116.606 12.6196 117.516L8.88164 121.156V122.5ZM21.0989 112.336L20.2169 112L16.0029 122.752L16.8849 123.102L21.0989 112.336ZM26.1826 112.588H25.1606L22.5006 114.744L23.2006 115.598L24.9786 114.1H25.0066V122.5H26.1826V112.588ZM29.4539 117.544C29.4539 119.798 30.0839 122.668 32.8139 122.668C35.5439 122.668 36.1739 119.798 36.1739 117.544C36.1739 115.29 35.5439 112.42 32.8139 112.42C30.0839 112.42 29.4539 115.29 29.4539 117.544ZM30.6299 117.544C30.6299 116.088 30.8539 113.428 32.8139 113.428C34.7739 113.428 34.9979 116.088 34.9979 117.544C34.9979 119 34.7739 121.66 32.8139 121.66C30.8539 121.66 30.6299 119 30.6299 117.544ZM41.8392 112.336L40.9572 112L36.7432 122.752L37.6252 123.102L41.8392 112.336ZM42.5828 122.5H48.9668V121.408H43.9128V121.38L46.9648 118.51C47.9588 117.572 48.8968 116.69 48.8968 115.108C48.8968 113.344 47.5108 112.42 45.8728 112.42C44.2768 112.42 43.0308 113.274 42.7648 114.898L44.0388 115.01C44.2208 114.058 44.9208 113.428 45.9148 113.428C46.9088 113.428 47.7208 114.072 47.7208 115.108C47.7208 116.074 47.2588 116.606 46.3208 117.516L42.5828 121.156V122.5ZM50.1941 117.544C50.1941 119.798 50.8241 122.668 53.5541 122.668C56.2841 122.668 56.9141 119.798 56.9141 117.544C56.9141 115.29 56.2841 112.42 53.5541 112.42C50.8241 112.42 50.1941 115.29 50.1941 117.544ZM51.3701 117.544C51.3701 116.088 51.5941 113.428 53.5541 113.428C55.5141 113.428 55.7381 116.088 55.7381 117.544C55.7381 119 55.5141 121.66 53.5541 121.66C51.5941 121.66 51.3701 119 51.3701 117.544ZM60.2974 117.796H60.6614C61.8794 117.796 63.1674 118.258 63.1674 119.714C63.1674 120.862 62.2714 121.66 61.1514 121.66C60.0594 121.66 59.4854 121.254 59.1494 120.19L57.9594 120.582C58.4634 122.052 59.6534 122.668 61.1514 122.668C62.9154 122.668 64.4274 121.688 64.4274 119.798C64.4274 118.552 63.6574 117.516 62.3974 117.306V117.278C63.3914 116.97 64.0914 116.046 64.0914 115.01C64.0914 113.302 62.7194 112.42 61.1374 112.42C59.8774 112.42 58.7434 112.98 58.2674 114.1L59.4014 114.534C59.7514 113.806 60.3954 113.428 61.2214 113.428C62.2154 113.428 62.9154 114.058 62.9154 115.066C62.9154 116.564 61.6414 116.788 60.6614 116.788H60.2974V117.796ZM65.7527 117.544C65.7527 119.798 66.3827 122.668 69.1127 122.668C71.8427 122.668 72.4727 119.798 72.4727 117.544C72.4727 115.29 71.8427 112.42 69.1127 112.42C66.3827 112.42 65.7527 115.29 65.7527 117.544ZM66.9287 117.544C66.9287 116.088 67.1527 113.428 69.1127 113.428C71.0727 113.428 71.2967 116.088 71.2967 117.544C71.2967 119 71.0727 121.66 69.1127 121.66C67.1527 121.66 66.9287 119 66.9287 117.544Z" fill="#6B778C"/>
<path d="M120.408 123H127.816V121.752H121.752V117.72H127.144V116.472H121.752V112.92H127.528V111.672H120.408V123ZM136.036 115.512H134.692L132.468 121.384H132.436L130.1 115.512H128.644L131.7 123H133.076L136.036 115.512ZM143.131 120.904C142.539 121.656 141.819 122.04 140.747 122.04C139.387 122.04 138.395 120.936 138.299 119.64H144.347V119.24C144.347 116.76 142.907 115.32 140.795 115.32C138.587 115.32 136.955 116.936 136.955 119.256C136.955 121.432 138.395 123.192 140.747 123.192C142.139 123.192 143.195 122.776 144.075 121.64L143.131 120.904ZM138.299 118.584C138.459 117.32 139.371 116.472 140.747 116.472C142.123 116.472 142.955 117.32 143.003 118.584H138.299ZM146.278 123H147.526V119.352C147.526 117.64 148.23 116.472 149.846 116.472C151.014 116.472 151.558 117.256 151.558 118.504V123H152.806V118.376C152.806 116.568 151.926 115.32 149.958 115.32C148.726 115.32 147.798 116.008 147.462 116.744H147.43C147.43 116.328 147.398 115.912 147.398 115.512H146.214C146.214 116.008 146.278 116.6 146.278 117.288V123ZM159.264 115.512H157.056V113.384H155.808V115.512H154.176V116.568H155.808V120.68C155.808 122.232 156.096 123.192 157.872 123.192C158.336 123.192 158.896 123.112 159.328 122.92L159.28 121.784C158.944 121.96 158.544 122.04 158.176 122.04C157.072 122.04 157.056 121.272 157.056 120.312V116.568H159.264V115.512Z" fill="#333333"/>
<rect width="2" height="48" transform="translate(95 126)" fill="#9EA6B5"/>
<circle cx="96" cy="181" r="7" fill="#6B778C"/>
<path d="M5.44234 174.588H4.42034L1.76034 176.744L2.46034 177.598L4.23834 176.1H4.26634V184.5H5.44234V174.588ZM8.88164 184.5H15.2656V183.408H10.2116V183.38L13.2636 180.51C14.2576 179.572 15.1956 178.69 15.1956 177.108C15.1956 175.344 13.8096 174.42 12.1716 174.42C10.5756 174.42 9.32964 175.274 9.06364 176.898L10.3376 177.01C10.5196 176.058 11.2196 175.428 12.2136 175.428C13.2076 175.428 14.0196 176.072 14.0196 177.108C14.0196 178.074 13.5576 178.606 12.6196 179.516L8.88164 183.156V184.5ZM21.0989 174.336L20.2169 174L16.0029 184.752L16.8849 185.102L21.0989 174.336ZM26.1826 174.588H25.1606L22.5006 176.744L23.2006 177.598L24.9786 176.1H25.0066V184.5H26.1826V174.588ZM29.4539 179.544C29.4539 181.798 30.0839 184.668 32.8139 184.668C35.5439 184.668 36.1739 181.798 36.1739 179.544C36.1739 177.29 35.5439 174.42 32.8139 174.42C30.0839 174.42 29.4539 177.29 29.4539 179.544ZM30.6299 179.544C30.6299 178.088 30.8539 175.428 32.8139 175.428C34.7739 175.428 34.9979 178.088 34.9979 179.544C34.9979 181 34.7739 183.66 32.8139 183.66C30.8539 183.66 30.6299 181 30.6299 179.544ZM41.8392 174.336L40.9572 174L36.7432 184.752L37.6252 185.102L41.8392 174.336ZM42.5828 184.5H48.9668V183.408H43.9128V183.38L46.9648 180.51C47.9588 179.572 48.8968 178.69 48.8968 177.108C48.8968 175.344 47.5108 174.42 45.8728 174.42C44.2768 174.42 43.0308 175.274 42.7648 176.898L44.0388 177.01C44.2208 176.058 44.9208 175.428 45.9148 175.428C46.9088 175.428 47.7208 176.072 47.7208 177.108C47.7208 178.074 47.2588 178.606 46.3208 179.516L42.5828 183.156V184.5ZM50.1941 179.544C50.1941 181.798 50.8241 184.668 53.5541 184.668C56.2841 184.668 56.9141 181.798 56.9141 179.544C56.9141 177.29 56.2841 174.42 53.5541 174.42C50.8241 174.42 50.1941 177.29 50.1941 179.544ZM51.3701 179.544C51.3701 178.088 51.5941 175.428 53.5541 175.428C55.5141 175.428 55.7381 178.088 55.7381 179.544C55.7381 181 55.5141 183.66 53.5541 183.66C51.5941 183.66 51.3701 181 51.3701 179.544ZM60.2974 179.796H60.6614C61.8794 179.796 63.1674 180.258 63.1674 181.714C63.1674 182.862 62.2714 183.66 61.1514 183.66C60.0594 183.66 59.4854 183.254 59.1494 182.19L57.9594 182.582C58.4634 184.052 59.6534 184.668 61.1514 184.668C62.9154 184.668 64.4274 183.688 64.4274 181.798C64.4274 180.552 63.6574 179.516 62.3974 179.306V179.278C63.3914 178.97 64.0914 178.046 64.0914 177.01C64.0914 175.302 62.7194 174.42 61.1374 174.42C59.8774 174.42 58.7434 174.98 58.2674 176.1L59.4014 176.534C59.7514 175.806 60.3954 175.428 61.2214 175.428C62.2154 175.428 62.9154 176.058 62.9154 177.066C62.9154 178.564 61.6414 178.788 60.6614 178.788H60.2974V179.796ZM65.7527 179.544C65.7527 181.798 66.3827 184.668 69.1127 184.668C71.8427 184.668 72.4727 181.798 72.4727 179.544C72.4727 177.29 71.8427 174.42 69.1127 174.42C66.3827 174.42 65.7527 177.29 65.7527 179.544ZM66.9287 179.544C66.9287 178.088 67.1527 175.428 69.1127 175.428C71.0727 175.428 71.2967 178.088 71.2967 179.544C71.2967 181 71.0727 183.66 69.1127 183.66C67.1527 183.66 66.9287 181 66.9287 179.544Z" fill="#6B778C"/>
<path d="M120.408 185H127.816V183.752H121.752V179.72H127.144V178.472H121.752V174.92H127.528V173.672H120.408V185ZM136.036 177.512H134.692L132.468 183.384H132.436L130.1 177.512H128.644L131.7 185H133.076L136.036 177.512ZM143.131 182.904C142.539 183.656 141.819 184.04 140.747 184.04C139.387 184.04 138.395 182.936 138.299 181.64H144.347V181.24C144.347 178.76 142.907 177.32 140.795 177.32C138.587 177.32 136.955 178.936 136.955 181.256C136.955 183.432 138.395 185.192 140.747 185.192C142.139 185.192 143.195 184.776 144.075 183.64L143.131 182.904ZM138.299 180.584C138.459 179.32 139.371 178.472 140.747 178.472C142.123 178.472 142.955 179.32 143.003 180.584H138.299ZM146.278 185H147.526V181.352C147.526 179.64 148.23 178.472 149.846 178.472C151.014 178.472 151.558 179.256 151.558 180.504V185H152.806V180.376C152.806 178.568 151.926 177.32 149.958 177.32C148.726 177.32 147.798 178.008 147.462 178.744H147.43C147.43 178.328 147.398 177.912 147.398 177.512H146.214C146.214 178.008 146.278 178.6 146.278 179.288V185ZM159.264 177.512H157.056V175.384H155.808V177.512H154.176V178.568H155.808V182.68C155.808 184.232 156.096 185.192 157.872 185.192C158.336 185.192 158.896 185.112 159.328 184.92L159.28 183.784C158.944 183.96 158.544 184.04 158.176 184.04C157.072 184.04 157.056 183.272 157.056 182.312V178.568H159.264V177.512Z" fill="#333333"/>
<rect width="2" height="48" transform="translate(95 188)" fill="#9EA6B5"/>
<circle cx="96" cy="243" r="7" fill="#6B778C"/>
<path d="M5.44234 236.588H4.42034L1.76034 238.744L2.46034 239.598L4.23834 238.1H4.26634V246.5H5.44234V236.588ZM8.88164 246.5H15.2656V245.408H10.2116V245.38L13.2636 242.51C14.2576 241.572 15.1956 240.69 15.1956 239.108C15.1956 237.344 13.8096 236.42 12.1716 236.42C10.5756 236.42 9.32964 237.274 9.06364 238.898L10.3376 239.01C10.5196 238.058 11.2196 237.428 12.2136 237.428C13.2076 237.428 14.0196 238.072 14.0196 239.108C14.0196 240.074 13.5576 240.606 12.6196 241.516L8.88164 245.156V246.5ZM21.0989 236.336L20.2169 236L16.0029 246.752L16.8849 247.102L21.0989 236.336ZM26.1826 236.588H25.1606L22.5006 238.744L23.2006 239.598L24.9786 238.1H25.0066V246.5H26.1826V236.588ZM29.4539 241.544C29.4539 243.798 30.0839 246.668 32.8139 246.668C35.5439 246.668 36.1739 243.798 36.1739 241.544C36.1739 239.29 35.5439 236.42 32.8139 236.42C30.0839 236.42 29.4539 239.29 29.4539 241.544ZM30.6299 241.544C30.6299 240.088 30.8539 237.428 32.8139 237.428C34.7739 237.428 34.9979 240.088 34.9979 241.544C34.9979 243 34.7739 245.66 32.8139 245.66C30.8539 245.66 30.6299 243 30.6299 241.544ZM41.8392 236.336L40.9572 236L36.7432 246.752L37.6252 247.102L41.8392 236.336ZM42.5828 246.5H48.9668V245.408H43.9128V245.38L46.9648 242.51C47.9588 241.572 48.8968 240.69 48.8968 239.108C48.8968 237.344 47.5108 236.42 45.8728 236.42C44.2768 236.42 43.0308 237.274 42.7648 238.898L44.0388 239.01C44.2208 238.058 44.9208 237.428 45.9148 237.428C46.9088 237.428 47.7208 238.072 47.7208 239.108C47.7208 240.074 47.2588 240.606 46.3208 241.516L42.5828 245.156V246.5ZM50.1941 241.544C50.1941 243.798 50.8241 246.668 53.5541 246.668C56.2841 246.668 56.9141 243.798 56.9141 241.544C56.9141 239.29 56.2841 236.42 53.5541 236.42C50.8241 236.42 50.1941 239.29 50.1941 241.544ZM51.3701 241.544C51.3701 240.088 51.5941 237.428 53.5541 237.428C55.5141 237.428 55.7381 240.088 55.7381 241.544C55.7381 243 55.5141 245.66 53.5541 245.66C51.5941 245.66 51.3701 243 51.3701 241.544ZM60.2974 241.796H60.6614C61.8794 241.796 63.1674 242.258 63.1674 243.714C63.1674 244.862 62.2714 245.66 61.1514 245.66C60.0594 245.66 59.4854 245.254 59.1494 244.19L57.9594 244.582C58.4634 246.052 59.6534 246.668 61.1514 246.668C62.9154 246.668 64.4274 245.688 64.4274 243.798C64.4274 242.552 63.6574 241.516 62.3974 241.306V241.278C63.3914 240.97 64.0914 240.046 64.0914 239.01C64.0914 237.302 62.7194 236.42 61.1374 236.42C59.8774 236.42 58.7434 236.98 58.2674 238.1L59.4014 238.534C59.7514 237.806 60.3954 237.428 61.2214 237.428C62.2154 237.428 62.9154 238.058 62.9154 239.066C62.9154 240.564 61.6414 240.788 60.6614 240.788H60.2974V241.796ZM65.7527 241.544C65.7527 243.798 66.3827 246.668 69.1127 246.668C71.8427 246.668 72.4727 243.798 72.4727 241.544C72.4727 239.29 71.8427 236.42 69.1127 236.42C66.3827 236.42 65.7527 239.29 65.7527 241.544ZM66.9287 241.544C66.9287 240.088 67.1527 237.428 69.1127 237.428C71.0727 237.428 71.2967 240.088 71.2967 241.544C71.2967 243 71.0727 245.66 69.1127 245.66C67.1527 245.66 66.9287 243 66.9287 241.544Z" fill="#6B778C"/>
<path d="M120.408 247H127.816V245.752H121.752V241.72H127.144V240.472H121.752V236.92H127.528V235.672H120.408V247ZM136.036 239.512H134.692L132.468 245.384H132.436L130.1 239.512H128.644L131.7 247H133.076L136.036 239.512ZM143.131 244.904C142.539 245.656 141.819 246.04 140.747 246.04C139.387 246.04 138.395 244.936 138.299 243.64H144.347V243.24C144.347 240.76 142.907 239.32 140.795 239.32C138.587 239.32 136.955 240.936 136.955 243.256C136.955 245.432 138.395 247.192 140.747 247.192C142.139 247.192 143.195 246.776 144.075 245.64L143.131 244.904ZM138.299 242.584C138.459 241.32 139.371 240.472 140.747 240.472C142.123 240.472 142.955 241.32 143.003 242.584H138.299ZM146.278 247H147.526V243.352C147.526 241.64 148.23 240.472 149.846 240.472C151.014 240.472 151.558 241.256 151.558 242.504V247H152.806V242.376C152.806 240.568 151.926 239.32 149.958 239.32C148.726 239.32 147.798 240.008 147.462 240.744H147.43C147.43 240.328 147.398 239.912 147.398 239.512H146.214C146.214 240.008 146.278 240.6 146.278 241.288V247ZM159.264 239.512H157.056V237.384H155.808V239.512H154.176V240.568H155.808V244.68C155.808 246.232 156.096 247.192 157.872 247.192C158.336 247.192 158.896 247.112 159.328 246.92L159.28 245.784C158.944 245.96 158.544 246.04 158.176 246.04C157.072 246.04 157.056 245.272 157.056 244.312V240.568H159.264V239.512Z" fill="#333333"/>
<path d="M38.106 330H41.802C44.182 330 47.052 328.432 47.052 325.044C47.052 321.684 44.616 320.088 42.012 320.088H38.106V330ZM39.87 328.404V321.684H41.48C43.636 321.684 45.204 322.636 45.204 325.044C45.204 327.452 43.398 328.404 41.186 328.404H39.87ZM48.603 330H50.283V323.28H48.603V330ZM48.365 320.998C48.365 321.53 48.813 322.006 49.429 322.006C50.045 322.006 50.521 321.572 50.521 320.998C50.521 320.424 50.045 319.99 49.429 319.99C48.813 319.99 48.365 320.466 48.365 320.998ZM52.2118 330H53.8918V326.402C53.8918 326.038 54.1158 324.708 55.6978 324.708C55.9638 324.708 56.2298 324.764 56.5098 324.834V323.21C56.3138 323.154 56.1178 323.112 55.9078 323.112C55.0258 323.112 54.2838 323.574 53.9198 324.344H53.8918V323.28H52.2118V330ZM63.8751 327.228V326.766C63.8751 324.428 62.6011 323.112 60.7251 323.112C58.6951 323.112 57.0711 324.526 57.0711 326.64C57.0711 328.754 58.6951 330.168 60.7251 330.168C61.7891 330.168 62.7831 329.79 63.5671 328.824L62.3631 327.914C61.9431 328.432 61.3971 328.824 60.5571 328.824C59.6191 328.824 58.8631 328.222 58.7511 327.228H63.8751ZM58.7511 325.968C58.8771 325.002 59.4931 324.372 60.4871 324.372C61.5371 324.372 62.1811 324.988 62.1951 325.968H58.7511ZM71.2001 324.134C70.5561 323.42 69.6181 323.112 68.7641 323.112C66.7341 323.112 65.1101 324.526 65.1101 326.64C65.1101 328.754 66.7341 330.168 68.7641 330.168C69.3521 330.168 70.5001 329.916 71.1861 329.23L70.0661 328.026C69.7581 328.432 69.2821 328.656 68.7641 328.656C67.5321 328.656 66.7901 327.69 66.7901 326.64C66.7901 325.59 67.5321 324.624 68.7641 324.624C69.2121 324.624 69.6461 324.89 70.0381 325.296L71.2001 324.134ZM72.802 324.708V327.788C72.802 329.37 73.222 330.168 75 330.168C75.392 330.168 75.98 330.112 76.33 329.944V328.53C76.12 328.684 75.714 328.74 75.42 328.74C74.678 328.74 74.482 328.32 74.482 327.648V324.708H76.33V323.28H74.482V321.334H72.802V323.28H71.416V324.708H72.802ZM77.6695 330H79.3495V323.28H77.6695V330ZM77.4315 320.998C77.4315 321.53 77.8795 322.006 78.4955 322.006C79.1115 322.006 79.5875 321.572 79.5875 320.998C79.5875 320.424 79.1115 319.99 78.4955 319.99C77.8795 319.99 77.4315 320.466 77.4315 320.998ZM80.9422 326.64C80.9422 328.754 82.5662 330.168 84.5962 330.168C86.6262 330.168 88.2502 328.754 88.2502 326.64C88.2502 324.526 86.6262 323.112 84.5962 323.112C82.5662 323.112 80.9422 324.526 80.9422 326.64ZM82.6222 326.64C82.6222 325.59 83.3642 324.624 84.5962 324.624C85.8282 324.624 86.5702 325.59 86.5702 326.64C86.5702 327.69 85.8282 328.656 84.5962 328.656C83.3642 328.656 82.6222 327.69 82.6222 326.64ZM89.8231 330H91.5031V326.332C91.5031 325.436 91.9371 324.624 93.0431 324.624C94.2191 324.624 94.2751 325.856 94.2751 326.598V330H95.9551V325.758C95.9551 324.386 95.3111 323.112 93.5051 323.112C92.3851 323.112 91.7551 323.686 91.4471 324.358H91.4191V323.28H89.8231V330ZM97.8622 329.02C97.8622 329.622 98.3942 330.084 98.9822 330.084C99.5982 330.084 100.102 329.594 100.102 328.992C100.102 328.39 99.5842 327.928 98.9822 327.928C98.3662 327.928 97.8622 328.418 97.8622 329.02ZM97.8622 324.274C97.8622 324.876 98.3942 325.338 98.9822 325.338C99.5982 325.338 100.102 324.848 100.102 324.246C100.102 323.644 99.5842 323.182 98.9822 323.182C98.3662 323.182 97.8622 323.672 97.8622 324.274ZM106.301 330H108.065V325.632H112.699V330H114.463V320.088H112.699V324.036H108.065V320.088H106.301V330ZM116.188 326.64C116.188 328.754 117.812 330.168 119.842 330.168C121.872 330.168 123.496 328.754 123.496 326.64C123.496 324.526 121.872 323.112 119.842 323.112C117.812 323.112 116.188 324.526 116.188 326.64ZM117.868 326.64C117.868 325.59 118.61 324.624 119.842 324.624C121.074 324.624 121.816 325.59 121.816 326.64C121.816 327.69 121.074 328.656 119.842 328.656C118.61 328.656 117.868 327.69 117.868 326.64ZM125.069 330H126.749V326.402C126.749 326.038 126.973 324.708 128.555 324.708C128.821 324.708 129.087 324.764 129.367 324.834V323.21C129.171 323.154 128.975 323.112 128.765 323.112C127.883 323.112 127.141 323.574 126.777 324.344H126.749V323.28H125.069V330ZM130.539 330H132.219V323.28H130.539V330ZM130.301 320.998C130.301 321.53 130.749 322.006 131.365 322.006C131.981 322.006 132.457 321.572 132.457 320.998C132.457 320.424 131.981 319.99 131.365 319.99C130.749 319.99 130.301 320.466 130.301 320.998ZM133.671 330H139.467V328.656H135.659L139.299 324.806V323.28H133.839V324.624H137.269V324.652L133.671 328.446V330ZM140.565 326.64C140.565 328.754 142.189 330.168 144.219 330.168C146.249 330.168 147.873 328.754 147.873 326.64C147.873 324.526 146.249 323.112 144.219 323.112C142.189 323.112 140.565 324.526 140.565 326.64ZM142.245 326.64C142.245 325.59 142.987 324.624 144.219 324.624C145.451 324.624 146.193 325.59 146.193 326.64C146.193 327.69 145.451 328.656 144.219 328.656C142.987 328.656 142.245 327.69 142.245 326.64ZM149.446 330H151.126V326.332C151.126 325.436 151.56 324.624 152.666 324.624C153.842 324.624 153.898 325.856 153.898 326.598V330H155.578V325.758C155.578 324.386 154.934 323.112 153.128 323.112C152.008 323.112 151.378 323.686 151.07 324.358H151.042V323.28H149.446V330ZM158.087 324.708V327.788C158.087 329.37 158.507 330.168 160.285 330.168C160.677 330.168 161.265 330.112 161.615 329.944V328.53C161.405 328.684 160.999 328.74 160.705 328.74C159.963 328.74 159.767 328.32 159.767 327.648V324.708H161.615V323.28H159.767V321.334H158.087V323.28H156.701V324.708H158.087ZM167.127 330H168.639V326.136C168.639 325.184 168.639 323.112 165.769 323.112C164.705 323.112 163.655 323.434 162.913 324.19L163.795 325.072C164.243 324.652 164.887 324.372 165.587 324.372C166.483 324.372 167.127 324.806 167.127 325.632V325.814H166.707C165.027 325.814 162.479 325.968 162.479 328.152C162.479 329.482 163.683 330.168 164.929 330.168C165.825 330.168 166.609 329.832 167.085 329.076H167.127V330ZM167.029 327.368C167.029 328.306 166.483 328.908 165.335 328.908C164.789 328.908 164.159 328.642 164.159 328.026C164.159 327.06 165.755 326.99 166.679 326.99H167.029V327.368ZM170.474 330H172.154V319.416H170.474V330ZM40.136 347H41.9V338.684H44.938V337.088H37.098V338.684H40.136V347ZM46.3925 347.056L46.0705 347.854C45.7905 348.554 45.5665 348.848 44.7405 348.848C44.4465 348.848 44.1525 348.778 43.8865 348.68L43.6765 350.192C44.0965 350.304 44.5305 350.36 44.9645 350.36C46.4485 350.36 47.0365 349.702 47.5265 348.442L50.7045 340.28H48.9545L47.2745 344.942H47.2465L45.3705 340.28H43.5225L46.3925 347.056ZM51.6922 350.192H53.3722V346.146H53.4142C53.7642 346.58 54.4362 347.168 55.6962 347.168C57.6142 347.168 58.9442 345.628 58.9442 343.64C58.9442 341.652 57.6982 340.112 55.6262 340.112C54.6882 340.112 53.8062 340.476 53.3162 341.288H53.2882V340.28H51.6922V350.192ZM57.2642 343.64C57.2642 344.69 56.5222 345.656 55.2902 345.656C54.0582 345.656 53.3162 344.69 53.3162 343.64C53.3162 342.59 54.0582 341.624 55.2902 341.624C56.5222 341.624 57.2642 342.59 57.2642 343.64ZM66.9786 344.228V343.766C66.9786 341.428 65.7046 340.112 63.8286 340.112C61.7986 340.112 60.1746 341.526 60.1746 343.64C60.1746 345.754 61.7986 347.168 63.8286 347.168C64.8926 347.168 65.8866 346.79 66.6706 345.824L65.4666 344.914C65.0466 345.432 64.5006 345.824 63.6606 345.824C62.7226 345.824 61.9666 345.222 61.8546 344.228H66.9786ZM61.8546 342.968C61.9806 342.002 62.5966 341.372 63.5906 341.372C64.6406 341.372 65.2846 341.988 65.2986 342.968H61.8546ZM68.5497 346.02C68.5497 346.622 69.0817 347.084 69.6697 347.084C70.2857 347.084 70.7897 346.594 70.7897 345.992C70.7897 345.39 70.2717 344.928 69.6697 344.928C69.0537 344.928 68.5497 345.418 68.5497 346.02ZM68.5497 341.274C68.5497 341.876 69.0817 342.338 69.6697 342.338C70.2857 342.338 70.7897 341.848 70.7897 341.246C70.7897 340.644 70.2717 340.182 69.6697 340.182C69.0537 340.182 68.5497 340.672 68.5497 341.274ZM79.0188 347H80.7828V338.684H83.8208V337.088H75.9808V338.684H79.0188V347ZM82.9793 343.64C82.9793 345.754 84.6033 347.168 86.6333 347.168C88.6633 347.168 90.2873 345.754 90.2873 343.64C90.2873 341.526 88.6633 340.112 86.6333 340.112C84.6033 340.112 82.9793 341.526 82.9793 343.64ZM84.6593 343.64C84.6593 342.59 85.4013 341.624 86.6333 341.624C87.8653 341.624 88.6073 342.59 88.6073 343.64C88.6073 344.69 87.8653 345.656 86.6333 345.656C85.4013 345.656 84.6593 344.69 84.6593 343.64ZM91.8602 350.192H93.5402V346.146H93.5822C93.9322 346.58 94.6042 347.168 95.8642 347.168C97.7822 347.168 99.1122 345.628 99.1122 343.64C99.1122 341.652 97.8662 340.112 95.7942 340.112C94.8562 340.112 93.9742 340.476 93.4842 341.288H93.4562V340.28H91.8602V350.192ZM97.4322 343.64C97.4322 344.69 96.6902 345.656 95.4582 345.656C94.2262 345.656 93.4842 344.69 93.4842 343.64C93.4842 342.59 94.2262 341.624 95.4582 341.624C96.6902 341.624 97.4322 342.59 97.4322 343.64Z" fill="black"/>
<circle cx="44" cy="398" r="7" fill="#6B778C"/>
<path d="M24.7986 375H32.2066V373.752H26.1426V369.72H31.5346V368.472H26.1426V364.92H31.9186V363.672H24.7986V375ZM40.427 367.512H39.083L36.859 373.384H36.827L34.491 367.512H33.035L36.091 375H37.467L40.427 367.512ZM47.5218 372.904C46.9298 373.656 46.2098 374.04 45.1378 374.04C43.7778 374.04 42.7858 372.936 42.6898 371.64H48.7378V371.24C48.7378 368.76 47.2978 367.32 45.1858 367.32C42.9778 367.32 41.3458 368.936 41.3458 371.256C41.3458 373.432 42.7858 375.192 45.1378 375.192C46.5298 375.192 47.5858 374.776 48.4658 373.64L47.5218 372.904ZM42.6898 370.584C42.8498 369.32 43.7618 368.472 45.1378 368.472C46.5138 368.472 47.3458 369.32 47.3938 370.584H42.6898ZM50.6684 375H51.9164V371.352C51.9164 369.64 52.6204 368.472 54.2364 368.472C55.4044 368.472 55.9484 369.256 55.9484 370.504V375H57.1964V370.376C57.1964 368.568 56.3164 367.32 54.3484 367.32C53.1164 367.32 52.1884 368.008 51.8524 368.744H51.8204C51.8204 368.328 51.7884 367.912 51.7884 367.512H50.6044C50.6044 368.008 50.6684 368.6 50.6684 369.288V375ZM63.655 367.512H61.447V365.384H60.199V367.512H58.567V368.568H60.199V372.68C60.199 374.232 60.487 375.192 62.263 375.192C62.727 375.192 63.287 375.112 63.719 374.92L63.671 373.784C63.335 373.96 62.935 374.04 62.567 374.04C61.463 374.04 61.447 373.272 61.447 372.312V368.568H63.655V367.512Z" fill="#333333"/>
<rect width="79" height="2" transform="translate(51 397)" fill="#9EA6B5"/>
<circle cx="137" cy="398" r="7" fill="#6B778C"/>
<path d="M117.799 375H125.207V373.752H119.143V369.72H124.535V368.472H119.143V364.92H124.919V363.672H117.799V375ZM133.427 367.512H132.083L129.859 373.384H129.827L127.491 367.512H126.035L129.091 375H130.467L133.427 367.512ZM140.522 372.904C139.93 373.656 139.21 374.04 138.138 374.04C136.778 374.04 135.786 372.936 135.69 371.64H141.738V371.24C141.738 368.76 140.298 367.32 138.186 367.32C135.978 367.32 134.346 368.936 134.346 371.256C134.346 373.432 135.786 375.192 138.138 375.192C139.53 375.192 140.586 374.776 141.466 373.64L140.522 372.904ZM135.69 370.584C135.85 369.32 136.762 368.472 138.138 368.472C139.514 368.472 140.346 369.32 140.394 370.584H135.69ZM143.668 375H144.916V371.352C144.916 369.64 145.62 368.472 147.236 368.472C148.404 368.472 148.948 369.256 148.948 370.504V375H150.196V370.376C150.196 368.568 149.316 367.32 147.348 367.32C146.116 367.32 145.188 368.008 144.852 368.744H144.82C144.82 368.328 144.788 367.912 144.788 367.512H143.604C143.604 368.008 143.668 368.6 143.668 369.288V375ZM156.655 367.512H154.447V365.384H153.199V367.512H151.567V368.568H153.199V372.68C153.199 374.232 153.487 375.192 155.263 375.192C155.727 375.192 156.287 375.112 156.719 374.92L156.671 373.784C156.335 373.96 155.935 374.04 155.567 374.04C154.463 374.04 154.447 373.272 154.447 372.312V368.568H156.655V367.512Z" fill="#333333"/>
<rect width="79" height="2" transform="translate(144 397)" fill="#9EA6B5"/>
<circle cx="230" cy="398" r="7" fill="#6B778C"/>
<path d="M210.799 375H218.207V373.752H212.143V369.72H217.535V368.472H212.143V364.92H217.919V363.672H210.799V375ZM226.427 367.512H225.083L222.859 373.384H222.827L220.491 367.512H219.035L222.091 375H223.467L226.427 367.512ZM233.522 372.904C232.93 373.656 232.21 374.04 231.138 374.04C229.778 374.04 228.786 372.936 228.69 371.64H234.738V371.24C234.738 368.76 233.298 367.32 231.186 367.32C228.978 367.32 227.346 368.936 227.346 371.256C227.346 373.432 228.786 375.192 231.138 375.192C232.53 375.192 233.586 374.776 234.466 373.64L233.522 372.904ZM228.69 370.584C228.85 369.32 229.762 368.472 231.138 368.472C232.514 368.472 233.346 369.32 233.394 370.584H228.69ZM236.668 375H237.916V371.352C237.916 369.64 238.62 368.472 240.236 368.472C241.404 368.472 241.948 369.256 241.948 370.504V375H243.196V370.376C243.196 368.568 242.316 367.32 240.348 367.32C239.116 367.32 238.188 368.008 237.852 368.744H237.82C237.82 368.328 237.788 367.912 237.788 367.512H236.604C236.604 368.008 236.668 368.6 236.668 369.288V375ZM249.655 367.512H247.447V365.384H246.199V367.512H244.567V368.568H246.199V372.68C246.199 374.232 246.487 375.192 248.263 375.192C248.727 375.192 249.287 375.112 249.719 374.92L249.671 373.784C249.335 373.96 248.935 374.04 248.567 374.04C247.463 374.04 247.447 373.272 247.447 372.312V368.568H249.655V367.512Z" fill="#333333"/>
<path d="M38.106 441H41.802C44.182 441 47.052 439.432 47.052 436.044C47.052 432.684 44.616 431.088 42.012 431.088H38.106V441ZM39.87 439.404V432.684H41.48C43.636 432.684 45.204 433.636 45.204 436.044C45.204 438.452 43.398 439.404 41.186 439.404H39.87ZM48.603 441H50.283V434.28H48.603V441ZM48.365 431.998C48.365 432.53 48.813 433.006 49.429 433.006C50.045 433.006 50.521 432.572 50.521 431.998C50.521 431.424 50.045 430.99 49.429 430.99C48.813 430.99 48.365 431.466 48.365 431.998ZM52.2118 441H53.8918V437.402C53.8918 437.038 54.1158 435.708 55.6978 435.708C55.9638 435.708 56.2298 435.764 56.5098 435.834V434.21C56.3138 434.154 56.1178 434.112 55.9078 434.112C55.0258 434.112 54.2838 434.574 53.9198 435.344H53.8918V434.28H52.2118V441ZM63.8751 438.228V437.766C63.8751 435.428 62.6011 434.112 60.7251 434.112C58.6951 434.112 57.0711 435.526 57.0711 437.64C57.0711 439.754 58.6951 441.168 60.7251 441.168C61.7891 441.168 62.7831 440.79 63.5671 439.824L62.3631 438.914C61.9431 439.432 61.3971 439.824 60.5571 439.824C59.6191 439.824 58.8631 439.222 58.7511 438.228H63.8751ZM58.7511 436.968C58.8771 436.002 59.4931 435.372 60.4871 435.372C61.5371 435.372 62.1811 435.988 62.1951 436.968H58.7511ZM71.2001 435.134C70.5561 434.42 69.6181 434.112 68.7641 434.112C66.7341 434.112 65.1101 435.526 65.1101 437.64C65.1101 439.754 66.7341 441.168 68.7641 441.168C69.3521 441.168 70.5001 440.916 71.1861 440.23L70.0661 439.026C69.7581 439.432 69.2821 439.656 68.7641 439.656C67.5321 439.656 66.7901 438.69 66.7901 437.64C66.7901 436.59 67.5321 435.624 68.7641 435.624C69.2121 435.624 69.6461 435.89 70.0381 436.296L71.2001 435.134ZM72.802 435.708V438.788C72.802 440.37 73.222 441.168 75 441.168C75.392 441.168 75.98 441.112 76.33 440.944V439.53C76.12 439.684 75.714 439.74 75.42 439.74C74.678 439.74 74.482 439.32 74.482 438.648V435.708H76.33V434.28H74.482V432.334H72.802V434.28H71.416V435.708H72.802ZM77.6695 441H79.3495V434.28H77.6695V441ZM77.4315 431.998C77.4315 432.53 77.8795 433.006 78.4955 433.006C79.1115 433.006 79.5875 432.572 79.5875 431.998C79.5875 431.424 79.1115 430.99 78.4955 430.99C77.8795 430.99 77.4315 431.466 77.4315 431.998ZM80.9422 437.64C80.9422 439.754 82.5662 441.168 84.5962 441.168C86.6262 441.168 88.2502 439.754 88.2502 437.64C88.2502 435.526 86.6262 434.112 84.5962 434.112C82.5662 434.112 80.9422 435.526 80.9422 437.64ZM82.6222 437.64C82.6222 436.59 83.3642 435.624 84.5962 435.624C85.8282 435.624 86.5702 436.59 86.5702 437.64C86.5702 438.69 85.8282 439.656 84.5962 439.656C83.3642 439.656 82.6222 438.69 82.6222 437.64ZM89.8231 441H91.5031V437.332C91.5031 436.436 91.9371 435.624 93.0431 435.624C94.2191 435.624 94.2751 436.856 94.2751 437.598V441H95.9551V436.758C95.9551 435.386 95.3111 434.112 93.5051 434.112C92.3851 434.112 91.7551 434.686 91.4471 435.358H91.4191V434.28H89.8231V441ZM97.8622 440.02C97.8622 440.622 98.3942 441.084 98.9822 441.084C99.5982 441.084 100.102 440.594 100.102 439.992C100.102 439.39 99.5842 438.928 98.9822 438.928C98.3662 438.928 97.8622 439.418 97.8622 440.02ZM97.8622 435.274C97.8622 435.876 98.3942 436.338 98.9822 436.338C99.5982 436.338 100.102 435.848 100.102 435.246C100.102 434.644 99.5842 434.182 98.9822 434.182C98.3662 434.182 97.8622 434.672 97.8622 435.274ZM106.301 441H108.065V436.632H112.699V441H114.463V431.088H112.699V435.036H108.065V431.088H106.301V441ZM116.188 437.64C116.188 439.754 117.812 441.168 119.842 441.168C121.872 441.168 123.496 439.754 123.496 437.64C123.496 435.526 121.872 434.112 119.842 434.112C117.812 434.112 116.188 435.526 116.188 437.64ZM117.868 437.64C117.868 436.59 118.61 435.624 119.842 435.624C121.074 435.624 121.816 436.59 121.816 437.64C121.816 438.69 121.074 439.656 119.842 439.656C118.61 439.656 117.868 438.69 117.868 437.64ZM125.069 441H126.749V437.402C126.749 437.038 126.973 435.708 128.555 435.708C128.821 435.708 129.087 435.764 129.367 435.834V434.21C129.171 434.154 128.975 434.112 128.765 434.112C127.883 434.112 127.141 434.574 126.777 435.344H126.749V434.28H125.069V441ZM130.539 441H132.219V434.28H130.539V441ZM130.301 431.998C130.301 432.53 130.749 433.006 131.365 433.006C131.981 433.006 132.457 432.572 132.457 431.998C132.457 431.424 131.981 430.99 131.365 430.99C130.749 430.99 130.301 431.466 130.301 431.998ZM133.671 441H139.467V439.656H135.659L139.299 435.806V434.28H133.839V435.624H137.269V435.652L133.671 439.446V441ZM140.565 437.64C140.565 439.754 142.189 441.168 144.219 441.168C146.249 441.168 147.873 439.754 147.873 437.64C147.873 435.526 146.249 434.112 144.219 434.112C142.189 434.112 140.565 435.526 140.565 437.64ZM142.245 437.64C142.245 436.59 142.987 435.624 144.219 435.624C145.451 435.624 146.193 436.59 146.193 437.64C146.193 438.69 145.451 439.656 144.219 439.656C142.987 439.656 142.245 438.69 142.245 437.64ZM149.446 441H151.126V437.332C151.126 436.436 151.56 435.624 152.666 435.624C153.842 435.624 153.898 436.856 153.898 437.598V441H155.578V436.758C155.578 435.386 154.934 434.112 153.128 434.112C152.008 434.112 151.378 434.686 151.07 435.358H151.042V434.28H149.446V441ZM158.087 435.708V438.788C158.087 440.37 158.507 441.168 160.285 441.168C160.677 441.168 161.265 441.112 161.615 440.944V439.53C161.405 439.684 160.999 439.74 160.705 439.74C159.963 439.74 159.767 439.32 159.767 438.648V435.708H161.615V434.28H159.767V432.334H158.087V434.28H156.701V435.708H158.087ZM167.127 441H168.639V437.136C168.639 436.184 168.639 434.112 165.769 434.112C164.705 434.112 163.655 434.434 162.913 435.19L163.795 436.072C164.243 435.652 164.887 435.372 165.587 435.372C166.483 435.372 167.127 435.806 167.127 436.632V436.814H166.707C165.027 436.814 162.479 436.968 162.479 439.152C162.479 440.482 163.683 441.168 164.929 441.168C165.825 441.168 166.609 440.832 167.085 440.076H167.127V441ZM167.029 438.368C167.029 439.306 166.483 439.908 165.335 439.908C164.789 439.908 164.159 439.642 164.159 439.026C164.159 438.06 165.755 437.99 166.679 437.99H167.029V438.368ZM170.474 441H172.154V430.416H170.474V441ZM40.136 458H41.9V449.684H44.938V448.088H37.098V449.684H40.136V458ZM46.3925 458.056L46.0705 458.854C45.7905 459.554 45.5665 459.848 44.7405 459.848C44.4465 459.848 44.1525 459.778 43.8865 459.68L43.6765 461.192C44.0965 461.304 44.5305 461.36 44.9645 461.36C46.4485 461.36 47.0365 460.702 47.5265 459.442L50.7045 451.28H48.9545L47.2745 455.942H47.2465L45.3705 451.28H43.5225L46.3925 458.056ZM51.6922 461.192H53.3722V457.146H53.4142C53.7642 457.58 54.4362 458.168 55.6962 458.168C57.6142 458.168 58.9442 456.628 58.9442 454.64C58.9442 452.652 57.6982 451.112 55.6262 451.112C54.6882 451.112 53.8062 451.476 53.3162 452.288H53.2882V451.28H51.6922V461.192ZM57.2642 454.64C57.2642 455.69 56.5222 456.656 55.2902 456.656C54.0582 456.656 53.3162 455.69 53.3162 454.64C53.3162 453.59 54.0582 452.624 55.2902 452.624C56.5222 452.624 57.2642 453.59 57.2642 454.64ZM66.9786 455.228V454.766C66.9786 452.428 65.7046 451.112 63.8286 451.112C61.7986 451.112 60.1746 452.526 60.1746 454.64C60.1746 456.754 61.7986 458.168 63.8286 458.168C64.8926 458.168 65.8866 457.79 66.6706 456.824L65.4666 455.914C65.0466 456.432 64.5006 456.824 63.6606 456.824C62.7226 456.824 61.9666 456.222 61.8546 455.228H66.9786ZM61.8546 453.968C61.9806 453.002 62.5966 452.372 63.5906 452.372C64.6406 452.372 65.2846 452.988 65.2986 453.968H61.8546ZM68.5497 457.02C68.5497 457.622 69.0817 458.084 69.6697 458.084C70.2857 458.084 70.7897 457.594 70.7897 456.992C70.7897 456.39 70.2717 455.928 69.6697 455.928C69.0537 455.928 68.5497 456.418 68.5497 457.02ZM68.5497 452.274C68.5497 452.876 69.0817 453.338 69.6697 453.338C70.2857 453.338 70.7897 452.848 70.7897 452.246C70.7897 451.644 70.2717 451.182 69.6697 451.182C69.0537 451.182 68.5497 451.672 68.5497 452.274ZM76.9888 458H80.5588C82.4348 458 84.3108 457.328 84.3108 455.172C84.3108 453.898 83.4148 452.918 82.1688 452.778V452.75C83.1908 452.442 83.8908 451.7 83.8908 450.58C83.8908 448.774 82.3508 448.088 80.8528 448.088H76.9888V458ZM78.7528 449.6H80.2088C81.5388 449.6 82.1268 450.02 82.1268 450.874C82.1268 451.616 81.5388 452.12 80.3628 452.12H78.7528V449.6ZM78.7528 453.632H80.4468C81.8748 453.632 82.5468 453.996 82.5468 455.032C82.5468 456.334 81.2868 456.488 80.3768 456.488H78.7528V453.632ZM85.5769 454.64C85.5769 456.754 87.2009 458.168 89.2309 458.168C91.2609 458.168 92.8849 456.754 92.8849 454.64C92.8849 452.526 91.2609 451.112 89.2309 451.112C87.2009 451.112 85.5769 452.526 85.5769 454.64ZM87.2569 454.64C87.2569 453.59 87.9989 452.624 89.2309 452.624C90.4629 452.624 91.2049 453.59 91.2049 454.64C91.2049 455.69 90.4629 456.656 89.2309 456.656C87.9989 456.656 87.2569 455.69 87.2569 454.64ZM95.0599 452.708V455.788C95.0599 457.37 95.4799 458.168 97.2579 458.168C97.6499 458.168 98.2379 458.112 98.5879 457.944V456.53C98.3779 456.684 97.9719 456.74 97.6779 456.74C96.9359 456.74 96.7399 456.32 96.7399 455.648V452.708H98.5879V451.28H96.7399V449.334H95.0599V451.28H93.6739V452.708H95.0599ZM100.501 452.708V455.788C100.501 457.37 100.921 458.168 102.699 458.168C103.091 458.168 103.679 458.112 104.029 457.944V456.53C103.819 456.684 103.413 456.74 103.119 456.74C102.377 456.74 102.181 456.32 102.181 455.648V452.708H104.029V451.28H102.181V449.334H100.501V451.28H99.1153V452.708H100.501ZM105.005 454.64C105.005 456.754 106.629 458.168 108.659 458.168C110.689 458.168 112.313 456.754 112.313 454.64C112.313 452.526 110.689 451.112 108.659 451.112C106.629 451.112 105.005 452.526 105.005 454.64ZM106.685 454.64C106.685 453.59 107.427 452.624 108.659 452.624C109.891 452.624 110.633 453.59 110.633 454.64C110.633 455.69 109.891 456.656 108.659 456.656C107.427 456.656 106.685 455.69 106.685 454.64ZM113.816 458H115.496V454.332C115.496 453.436 115.93 452.624 117.036 452.624C117.848 452.624 118.184 453.17 118.184 453.996V458H119.864V454.36C119.864 453.492 120.256 452.624 121.306 452.624C122.3 452.624 122.552 453.352 122.552 454.192V458H124.232V453.996C124.232 452.386 123.602 451.112 121.81 451.112C120.802 451.112 120.088 451.504 119.598 452.358C119.248 451.518 118.534 451.112 117.498 451.112C116.378 451.112 115.734 451.7 115.44 452.33H115.412V451.28H113.816V458Z" fill="black"/>
<circle cx="44" cy="480" r="7" fill="#6B778C"/>
<path d="M24.7986 511H32.2066V509.752H26.1426V505.72H31.5346V504.472H26.1426V500.92H31.9186V499.672H24.7986V511ZM40.427 503.512H39.083L36.859 509.384H36.827L34.491 503.512H33.035L36.091 511H37.467L40.427 503.512ZM47.5218 508.904C46.9298 509.656 46.2098 510.04 45.1378 510.04C43.7778 510.04 42.7858 508.936 42.6898 507.64H48.7378V507.24C48.7378 504.76 47.2978 503.32 45.1858 503.32C42.9778 503.32 41.3458 504.936 41.3458 507.256C41.3458 509.432 42.7858 511.192 45.1378 511.192C46.5298 511.192 47.5858 510.776 48.4658 509.64L47.5218 508.904ZM42.6898 506.584C42.8498 505.32 43.7618 504.472 45.1378 504.472C46.5138 504.472 47.3458 505.32 47.3938 506.584H42.6898ZM50.6684 511H51.9164V507.352C51.9164 505.64 52.6204 504.472 54.2364 504.472C55.4044 504.472 55.9484 505.256 55.9484 506.504V511H57.1964V506.376C57.1964 504.568 56.3164 503.32 54.3484 503.32C53.1164 503.32 52.1884 504.008 51.8524 504.744H51.8204C51.8204 504.328 51.7884 503.912 51.7884 503.512H50.6044C50.6044 504.008 50.6684 504.6 50.6684 505.288V511ZM63.655 503.512H61.447V501.384H60.199V503.512H58.567V504.568H60.199V508.68C60.199 510.232 60.487 511.192 62.263 511.192C62.727 511.192 63.287 511.112 63.719 510.92L63.671 509.784C63.335 509.96 62.935 510.04 62.567 510.04C61.463 510.04 61.447 509.272 61.447 508.312V504.568H63.655V503.512Z" fill="#333333"/>
<rect width="79" height="2" transform="translate(51 479)" fill="#9EA6B5"/>
<circle cx="137" cy="480" r="7" fill="#6B778C"/>
<path d="M117.799 511H125.207V509.752H119.143V505.72H124.535V504.472H119.143V500.92H124.919V499.672H117.799V511ZM133.427 503.512H132.083L129.859 509.384H129.827L127.491 503.512H126.035L129.091 511H130.467L133.427 503.512ZM140.522 508.904C139.93 509.656 139.21 510.04 138.138 510.04C136.778 510.04 135.786 508.936 135.69 507.64H141.738V507.24C141.738 504.76 140.298 503.32 138.186 503.32C135.978 503.32 134.346 504.936 134.346 507.256C134.346 509.432 135.786 511.192 138.138 511.192C139.53 511.192 140.586 510.776 141.466 509.64L140.522 508.904ZM135.69 506.584C135.85 505.32 136.762 504.472 138.138 504.472C139.514 504.472 140.346 505.32 140.394 506.584H135.69ZM143.668 511H144.916V507.352C144.916 505.64 145.62 504.472 147.236 504.472C148.404 504.472 148.948 505.256 148.948 506.504V511H150.196V506.376C150.196 504.568 149.316 503.32 147.348 503.32C146.116 503.32 145.188 504.008 144.852 504.744H144.82C144.82 504.328 144.788 503.912 144.788 503.512H143.604C143.604 504.008 143.668 504.6 143.668 505.288V511ZM156.655 503.512H154.447V501.384H153.199V503.512H151.567V504.568H153.199V508.68C153.199 510.232 153.487 511.192 155.263 511.192C155.727 511.192 156.287 511.112 156.719 510.92L156.671 509.784C156.335 509.96 155.935 510.04 155.567 510.04C154.463 510.04 154.447 509.272 154.447 508.312V504.568H156.655V503.512Z" fill="#333333"/>
<rect width="79" height="2" transform="translate(144 479)" fill="#9EA6B5"/>
<circle cx="230" cy="480" r="7" fill="#6B778C"/>
<path d="M210.799 511H218.207V509.752H212.143V505.72H217.535V504.472H212.143V500.92H217.919V499.672H210.799V511ZM226.427 503.512H225.083L222.859 509.384H222.827L220.491 503.512H219.035L222.091 511H223.467L226.427 503.512ZM233.522 508.904C232.93 509.656 232.21 510.04 231.138 510.04C229.778 510.04 228.786 508.936 228.69 507.64H234.738V507.24C234.738 504.76 233.298 503.32 231.186 503.32C228.978 503.32 227.346 504.936 227.346 507.256C227.346 509.432 228.786 511.192 231.138 511.192C232.53 511.192 233.586 510.776 234.466 509.64L233.522 508.904ZM228.69 506.584C228.85 505.32 229.762 504.472 231.138 504.472C232.514 504.472 233.346 505.32 233.394 506.584H228.69ZM236.668 511H237.916V507.352C237.916 505.64 238.62 504.472 240.236 504.472C241.404 504.472 241.948 505.256 241.948 506.504V511H243.196V506.376C243.196 504.568 242.316 503.32 240.348 503.32C239.116 503.32 238.188 504.008 237.852 504.744H237.82C237.82 504.328 237.788 503.912 237.788 503.512H236.604C236.604 504.008 236.668 504.6 236.668 505.288V511ZM249.655 503.512H247.447V501.384H246.199V503.512H244.567V504.568H246.199V508.68C246.199 510.232 246.487 511.192 248.263 511.192C248.727 511.192 249.287 511.112 249.719 510.92L249.671 509.784C249.335 509.96 248.935 510.04 248.567 510.04C247.463 510.04 247.447 509.272 247.447 508.312V504.568H249.655V503.512Z" fill="#333333"/>
<path d="M206.106 12H209.802C212.182 12 215.052 10.432 215.052 7.044C215.052 3.684 212.616 2.088 210.012 2.088H206.106V12ZM207.87 10.404V3.684H209.48C211.636 3.684 213.204 4.636 213.204 7.044C213.204 9.452 211.398 10.404 209.186 10.404H207.87ZM216.603 12H218.283V5.28H216.603V12ZM216.365 2.998C216.365 3.53 216.813 4.006 217.429 4.006C218.045 4.006 218.521 3.572 218.521 2.998C218.521 2.424 218.045 1.99 217.429 1.99C216.813 1.99 216.365 2.466 216.365 2.998ZM220.212 12H221.892V8.402C221.892 8.038 222.116 6.708 223.698 6.708C223.964 6.708 224.23 6.764 224.51 6.834V5.21C224.314 5.154 224.118 5.112 223.908 5.112C223.026 5.112 222.284 5.574 221.92 6.344H221.892V5.28H220.212V12ZM231.875 9.228V8.766C231.875 6.428 230.601 5.112 228.725 5.112C226.695 5.112 225.071 6.526 225.071 8.64C225.071 10.754 226.695 12.168 228.725 12.168C229.789 12.168 230.783 11.79 231.567 10.824L230.363 9.914C229.943 10.432 229.397 10.824 228.557 10.824C227.619 10.824 226.863 10.222 226.751 9.228H231.875ZM226.751 7.968C226.877 7.002 227.493 6.372 228.487 6.372C229.537 6.372 230.181 6.988 230.195 7.968H226.751ZM239.2 6.134C238.556 5.42 237.618 5.112 236.764 5.112C234.734 5.112 233.11 6.526 233.11 8.64C233.11 10.754 234.734 12.168 236.764 12.168C237.352 12.168 238.5 11.916 239.186 11.23L238.066 10.026C237.758 10.432 237.282 10.656 236.764 10.656C235.532 10.656 234.79 9.69 234.79 8.64C234.79 7.59 235.532 6.624 236.764 6.624C237.212 6.624 237.646 6.89 238.038 7.296L239.2 6.134ZM240.802 6.708V9.788C240.802 11.37 241.222 12.168 243 12.168C243.392 12.168 243.98 12.112 244.33 11.944V10.53C244.12 10.684 243.714 10.74 243.42 10.74C242.678 10.74 242.482 10.32 242.482 9.648V6.708H244.33V5.28H242.482V3.334H240.802V5.28H239.416V6.708H240.802ZM245.669 12H247.349V5.28H245.669V12ZM245.431 2.998C245.431 3.53 245.879 4.006 246.495 4.006C247.111 4.006 247.587 3.572 247.587 2.998C247.587 2.424 247.111 1.99 246.495 1.99C245.879 1.99 245.431 2.466 245.431 2.998ZM248.942 8.64C248.942 10.754 250.566 12.168 252.596 12.168C254.626 12.168 256.25 10.754 256.25 8.64C256.25 6.526 254.626 5.112 252.596 5.112C250.566 5.112 248.942 6.526 248.942 8.64ZM250.622 8.64C250.622 7.59 251.364 6.624 252.596 6.624C253.828 6.624 254.57 7.59 254.57 8.64C254.57 9.69 253.828 10.656 252.596 10.656C251.364 10.656 250.622 9.69 250.622 8.64ZM257.823 12H259.503V8.332C259.503 7.436 259.937 6.624 261.043 6.624C262.219 6.624 262.275 7.856 262.275 8.598V12H263.955V7.758C263.955 6.386 263.311 5.112 261.505 5.112C260.385 5.112 259.755 5.686 259.447 6.358H259.419V5.28H257.823V12ZM265.862 11.02C265.862 11.622 266.394 12.084 266.982 12.084C267.598 12.084 268.102 11.594 268.102 10.992C268.102 10.39 267.584 9.928 266.982 9.928C266.366 9.928 265.862 10.418 265.862 11.02ZM265.862 6.274C265.862 6.876 266.394 7.338 266.982 7.338C267.598 7.338 268.102 6.848 268.102 6.246C268.102 5.644 267.584 5.182 266.982 5.182C266.366 5.182 265.862 5.672 265.862 6.274ZM277.045 12H278.571L282.575 2.088H280.671L277.885 9.578L275.183 2.088H273.153L277.045 12ZM289.188 9.228V8.766C289.188 6.428 287.914 5.112 286.038 5.112C284.008 5.112 282.384 6.526 282.384 8.64C282.384 10.754 284.008 12.168 286.038 12.168C287.102 12.168 288.096 11.79 288.88 10.824L287.676 9.914C287.256 10.432 286.71 10.824 285.87 10.824C284.932 10.824 284.176 10.222 284.064 9.228H289.188ZM284.064 7.968C284.19 7.002 284.806 6.372 285.8 6.372C286.85 6.372 287.494 6.988 287.508 7.968H284.064ZM290.759 12H292.439V8.402C292.439 8.038 292.663 6.708 294.245 6.708C294.511 6.708 294.777 6.764 295.057 6.834V5.21C294.861 5.154 294.665 5.112 294.455 5.112C293.573 5.112 292.831 5.574 292.467 6.344H292.439V5.28H290.759V12ZM296.802 6.708V9.788C296.802 11.37 297.222 12.168 299 12.168C299.392 12.168 299.98 12.112 300.33 11.944V10.53C300.12 10.684 299.714 10.74 299.42 10.74C298.678 10.74 298.482 10.32 298.482 9.648V6.708H300.33V5.28H298.482V3.334H296.802V5.28H295.416V6.708H296.802ZM301.669 12H303.349V5.28H301.669V12ZM301.431 2.998C301.431 3.53 301.879 4.006 302.495 4.006C303.111 4.006 303.587 3.572 303.587 2.998C303.587 2.424 303.111 1.99 302.495 1.99C301.879 1.99 301.431 2.466 301.431 2.998ZM311.032 6.134C310.388 5.42 309.45 5.112 308.596 5.112C306.566 5.112 304.942 6.526 304.942 8.64C304.942 10.754 306.566 12.168 308.596 12.168C309.184 12.168 310.332 11.916 311.018 11.23L309.898 10.026C309.59 10.432 309.114 10.656 308.596 10.656C307.364 10.656 306.622 9.69 306.622 8.64C306.622 7.59 307.364 6.624 308.596 6.624C309.044 6.624 309.478 6.89 309.87 7.296L311.032 6.134ZM316.232 12H317.744V8.136C317.744 7.184 317.744 5.112 314.874 5.112C313.81 5.112 312.76 5.434 312.018 6.19L312.9 7.072C313.348 6.652 313.992 6.372 314.692 6.372C315.588 6.372 316.232 6.806 316.232 7.632V7.814H315.812C314.132 7.814 311.584 7.968 311.584 10.152C311.584 11.482 312.788 12.168 314.034 12.168C314.93 12.168 315.714 11.832 316.19 11.076H316.232V12ZM316.134 9.368C316.134 10.306 315.588 10.908 314.44 10.908C313.894 10.908 313.264 10.642 313.264 10.026C313.264 9.06 314.86 8.99 315.784 8.99H316.134V9.368ZM319.58 12H321.26V1.416H319.58V12ZM208.136 29H209.9V20.684H212.938V19.088H205.098V20.684H208.136V29ZM214.392 29.056L214.07 29.854C213.79 30.554 213.566 30.848 212.74 30.848C212.446 30.848 212.152 30.778 211.886 30.68L211.676 32.192C212.096 32.304 212.53 32.36 212.964 32.36C214.448 32.36 215.036 31.702 215.526 30.442L218.704 22.28H216.954L215.274 26.942H215.246L213.37 22.28H211.522L214.392 29.056ZM219.692 32.192H221.372V28.146H221.414C221.764 28.58 222.436 29.168 223.696 29.168C225.614 29.168 226.944 27.628 226.944 25.64C226.944 23.652 225.698 22.112 223.626 22.112C222.688 22.112 221.806 22.476 221.316 23.288H221.288V22.28H219.692V32.192ZM225.264 25.64C225.264 26.69 224.522 27.656 223.29 27.656C222.058 27.656 221.316 26.69 221.316 25.64C221.316 24.59 222.058 23.624 223.29 23.624C224.522 23.624 225.264 24.59 225.264 25.64ZM234.979 26.228V25.766C234.979 23.428 233.705 22.112 231.829 22.112C229.799 22.112 228.175 23.526 228.175 25.64C228.175 27.754 229.799 29.168 231.829 29.168C232.893 29.168 233.887 28.79 234.671 27.824L233.467 26.914C233.047 27.432 232.501 27.824 231.661 27.824C230.723 27.824 229.967 27.222 229.855 26.228H234.979ZM229.855 24.968C229.981 24.002 230.597 23.372 231.591 23.372C232.641 23.372 233.285 23.988 233.299 24.968H229.855ZM236.55 28.02C236.55 28.622 237.082 29.084 237.67 29.084C238.286 29.084 238.79 28.594 238.79 27.992C238.79 27.39 238.272 26.928 237.67 26.928C237.054 26.928 236.55 27.418 236.55 28.02ZM236.55 23.274C236.55 23.876 237.082 24.338 237.67 24.338C238.286 24.338 238.79 23.848 238.79 23.246C238.79 22.644 238.272 22.182 237.67 22.182C237.054 22.182 236.55 22.672 236.55 23.274ZM243.883 29H245.857L246.753 26.732H251.051L251.975 29H253.991L249.721 19.088H248.195L243.883 29ZM247.355 25.22L248.909 21.188L250.435 25.22H247.355ZM254.966 29H256.646V18.416H254.966V29ZM259.177 23.708V26.788C259.177 28.37 259.597 29.168 261.375 29.168C261.767 29.168 262.355 29.112 262.705 28.944V27.53C262.495 27.684 262.089 27.74 261.795 27.74C261.053 27.74 260.857 27.32 260.857 26.648V23.708H262.705V22.28H260.857V20.334H259.177V22.28H257.791V23.708H259.177ZM270.484 26.228V25.766C270.484 23.428 269.21 22.112 267.334 22.112C265.304 22.112 263.68 23.526 263.68 25.64C263.68 27.754 265.304 29.168 267.334 29.168C268.398 29.168 269.392 28.79 270.176 27.824L268.972 26.914C268.552 27.432 268.006 27.824 267.166 27.824C266.228 27.824 265.472 27.222 265.36 26.228H270.484ZM265.36 24.968C265.486 24.002 266.102 23.372 267.096 23.372C268.146 23.372 268.79 23.988 268.804 24.968H265.36ZM272.056 29H273.736V25.402C273.736 25.038 273.96 23.708 275.542 23.708C275.808 23.708 276.074 23.764 276.354 23.834V22.21C276.158 22.154 275.962 22.112 275.752 22.112C274.87 22.112 274.128 22.574 273.764 23.344H273.736V22.28H272.056V29ZM277.743 29H279.423V25.332C279.423 24.436 279.857 23.624 280.963 23.624C282.139 23.624 282.195 24.856 282.195 25.598V29H283.875V24.758C283.875 23.386 283.231 22.112 281.425 22.112C280.305 22.112 279.675 22.686 279.367 23.358H279.339V22.28H277.743V29ZM289.982 29H291.494V25.136C291.494 24.184 291.494 22.112 288.624 22.112C287.56 22.112 286.51 22.434 285.768 23.19L286.65 24.072C287.098 23.652 287.742 23.372 288.442 23.372C289.338 23.372 289.982 23.806 289.982 24.632V24.814H289.562C287.882 24.814 285.334 24.968 285.334 27.152C285.334 28.482 286.538 29.168 287.784 29.168C288.68 29.168 289.464 28.832 289.94 28.076H289.982V29ZM289.884 26.368C289.884 27.306 289.338 27.908 288.19 27.908C287.644 27.908 287.014 27.642 287.014 27.026C287.014 26.06 288.61 25.99 289.534 25.99H289.884V26.368ZM293.904 23.708V26.788C293.904 28.37 294.324 29.168 296.102 29.168C296.494 29.168 297.082 29.112 297.432 28.944V27.53C297.222 27.684 296.816 27.74 296.522 27.74C295.78 27.74 295.584 27.32 295.584 26.648V23.708H297.432V22.28H295.584V20.334H293.904V22.28H292.518V23.708H293.904ZM305.211 26.228V25.766C305.211 23.428 303.937 22.112 302.061 22.112C300.031 22.112 298.407 23.526 298.407 25.64C298.407 27.754 300.031 29.168 302.061 29.168C303.125 29.168 304.119 28.79 304.903 27.824L303.699 26.914C303.279 27.432 302.733 27.824 301.893 27.824C300.955 27.824 300.199 27.222 300.087 26.228H305.211ZM300.087 24.968C300.213 24.002 300.829 23.372 301.823 23.372C302.873 23.372 303.517 23.988 303.531 24.968H300.087Z" fill="black"/>
<circle cx="264" cy="57" r="7" fill="#6B778C"/>
<path d="M201.799 61H209.207V59.752H203.143V55.72H208.535V54.472H203.143V50.92H208.919V49.672H201.799V61ZM217.427 53.512H216.083L213.859 59.384H213.827L211.491 53.512H210.035L213.091 61H214.467L217.427 53.512ZM224.522 58.904C223.93 59.656 223.21 60.04 222.138 60.04C220.778 60.04 219.786 58.936 219.69 57.64H225.738V57.24C225.738 54.76 224.298 53.32 222.186 53.32C219.978 53.32 218.346 54.936 218.346 57.256C218.346 59.432 219.786 61.192 222.138 61.192C223.53 61.192 224.586 60.776 225.466 59.64L224.522 58.904ZM219.69 56.584C219.85 55.32 220.762 54.472 222.138 54.472C223.514 54.472 224.346 55.32 224.394 56.584H219.69ZM227.668 61H228.916V57.352C228.916 55.64 229.62 54.472 231.236 54.472C232.404 54.472 232.948 55.256 232.948 56.504V61H234.196V56.376C234.196 54.568 233.316 53.32 231.348 53.32C230.116 53.32 229.188 54.008 228.852 54.744H228.82C228.82 54.328 228.788 53.912 228.788 53.512H227.604C227.604 54.008 227.668 54.6 227.668 55.288V61ZM240.655 53.512H238.447V51.384H237.199V53.512H235.567V54.568H237.199V58.68C237.199 60.232 237.487 61.192 239.263 61.192C239.727 61.192 240.287 61.112 240.719 60.92L240.671 59.784C240.335 59.96 239.935 60.04 239.567 60.04C238.463 60.04 238.447 59.272 238.447 58.312V54.568H240.655V53.512Z" fill="#333333"/>
<rect width="2" height="49" transform="translate(263 64)" fill="#9EA6B5"/>
<circle cx="264" cy="120" r="7" fill="#6B778C"/>
<path d="M288.408 124H295.816V122.752H289.752V118.72H295.144V117.472H289.752V113.92H295.528V112.672H288.408V124ZM304.036 116.512H302.692L300.468 122.384H300.436L298.1 116.512H296.644L299.7 124H301.076L304.036 116.512ZM311.131 121.904C310.539 122.656 309.819 123.04 308.747 123.04C307.387 123.04 306.395 121.936 306.299 120.64H312.347V120.24C312.347 117.76 310.907 116.32 308.795 116.32C306.587 116.32 304.955 117.936 304.955 120.256C304.955 122.432 306.395 124.192 308.747 124.192C310.139 124.192 311.195 123.776 312.075 122.64L311.131 121.904ZM306.299 119.584C306.459 118.32 307.371 117.472 308.747 117.472C310.123 117.472 310.955 118.32 311.003 119.584H306.299ZM314.278 124H315.526V120.352C315.526 118.64 316.23 117.472 317.846 117.472C319.014 117.472 319.558 118.256 319.558 119.504V124H320.806V119.376C320.806 117.568 319.926 116.32 317.958 116.32C316.726 116.32 315.798 117.008 315.462 117.744H315.43C315.43 117.328 315.398 116.912 315.398 116.512H314.214C314.214 117.008 314.278 117.6 314.278 118.288V124ZM327.264 116.512H325.056V114.384H323.808V116.512H322.176V117.568H323.808V121.68C323.808 123.232 324.096 124.192 325.872 124.192C326.336 124.192 326.896 124.112 327.328 123.92L327.28 122.784C326.944 122.96 326.544 123.04 326.176 123.04C325.072 123.04 325.056 122.272 325.056 121.312V117.568H327.264V116.512Z" fill="#333333"/>
<rect width="2" height="49" transform="translate(263 127)" fill="#9EA6B5"/>
<circle cx="264" cy="183" r="7" fill="#6B778C"/>
<path d="M201.799 187H209.207V185.752H203.143V181.72H208.535V180.472H203.143V176.92H208.919V175.672H201.799V187ZM217.427 179.512H216.083L213.859 185.384H213.827L211.491 179.512H210.035L213.091 187H214.467L217.427 179.512ZM224.522 184.904C223.93 185.656 223.21 186.04 222.138 186.04C220.778 186.04 219.786 184.936 219.69 183.64H225.738V183.24C225.738 180.76 224.298 179.32 222.186 179.32C219.978 179.32 218.346 180.936 218.346 183.256C218.346 185.432 219.786 187.192 222.138 187.192C223.53 187.192 224.586 186.776 225.466 185.64L224.522 184.904ZM219.69 182.584C219.85 181.32 220.762 180.472 222.138 180.472C223.514 180.472 224.346 181.32 224.394 182.584H219.69ZM227.668 187H228.916V183.352C228.916 181.64 229.62 180.472 231.236 180.472C232.404 180.472 232.948 181.256 232.948 182.504V187H234.196V182.376C234.196 180.568 233.316 179.32 231.348 179.32C230.116 179.32 229.188 180.008 228.852 180.744H228.82C228.82 180.328 228.788 179.912 228.788 179.512H227.604C227.604 180.008 227.668 180.6 227.668 181.288V187ZM240.655 179.512H238.447V177.384H237.199V179.512H235.567V180.568H237.199V184.68C237.199 186.232 237.487 187.192 239.263 187.192C239.727 187.192 240.287 187.112 240.719 186.92L240.671 185.784C240.335 185.96 239.935 186.04 239.567 186.04C238.463 186.04 238.447 185.272 238.447 184.312V180.568H240.655V179.512Z" fill="#333333"/>
<rect width="2" height="49" transform="translate(263 190)" fill="#9EA6B5"/>
<circle cx="264" cy="246" r="7" fill="#6B778C"/>
<path d="M288.408 250H295.816V248.752H289.752V244.72H295.144V243.472H289.752V239.92H295.528V238.672H288.408V250ZM304.036 242.512H302.692L300.468 248.384H300.436L298.1 242.512H296.644L299.7 250H301.076L304.036 242.512ZM311.131 247.904C310.539 248.656 309.819 249.04 308.747 249.04C307.387 249.04 306.395 247.936 306.299 246.64H312.347V246.24C312.347 243.76 310.907 242.32 308.795 242.32C306.587 242.32 304.955 243.936 304.955 246.256C304.955 248.432 306.395 250.192 308.747 250.192C310.139 250.192 311.195 249.776 312.075 248.64L311.131 247.904ZM306.299 245.584C306.459 244.32 307.371 243.472 308.747 243.472C310.123 243.472 310.955 244.32 311.003 245.584H306.299ZM314.278 250H315.526V246.352C315.526 244.64 316.23 243.472 317.846 243.472C319.014 243.472 319.558 244.256 319.558 245.504V250H320.806V245.376C320.806 243.568 319.926 242.32 317.958 242.32C316.726 242.32 315.798 243.008 315.462 243.744H315.43C315.43 243.328 315.398 242.912 315.398 242.512H314.214C314.214 243.008 314.278 243.6 314.278 244.288V250ZM327.264 242.512H325.056V240.384H323.808V242.512H322.176V243.568H323.808V247.68C323.808 249.232 324.096 250.192 325.872 250.192C326.336 250.192 326.896 250.112 327.328 249.92L327.28 248.784C326.944 248.96 326.544 249.04 326.176 249.04C325.072 249.04 325.056 248.272 325.056 247.312V243.568H327.264V242.512Z" fill="#333333"/>
<path d="M374.106 12H377.802C380.182 12 383.052 10.432 383.052 7.044C383.052 3.684 380.616 2.088 378.012 2.088H374.106V12ZM375.87 10.404V3.684H377.48C379.636 3.684 381.204 4.636 381.204 7.044C381.204 9.452 379.398 10.404 377.186 10.404H375.87ZM384.603 12H386.283V5.28H384.603V12ZM384.365 2.998C384.365 3.53 384.813 4.006 385.429 4.006C386.045 4.006 386.521 3.572 386.521 2.998C386.521 2.424 386.045 1.99 385.429 1.99C384.813 1.99 384.365 2.466 384.365 2.998ZM388.212 12H389.892V8.402C389.892 8.038 390.116 6.708 391.698 6.708C391.964 6.708 392.23 6.764 392.51 6.834V5.21C392.314 5.154 392.118 5.112 391.908 5.112C391.026 5.112 390.284 5.574 389.92 6.344H389.892V5.28H388.212V12ZM399.875 9.228V8.766C399.875 6.428 398.601 5.112 396.725 5.112C394.695 5.112 393.071 6.526 393.071 8.64C393.071 10.754 394.695 12.168 396.725 12.168C397.789 12.168 398.783 11.79 399.567 10.824L398.363 9.914C397.943 10.432 397.397 10.824 396.557 10.824C395.619 10.824 394.863 10.222 394.751 9.228H399.875ZM394.751 7.968C394.877 7.002 395.493 6.372 396.487 6.372C397.537 6.372 398.181 6.988 398.195 7.968H394.751ZM407.2 6.134C406.556 5.42 405.618 5.112 404.764 5.112C402.734 5.112 401.11 6.526 401.11 8.64C401.11 10.754 402.734 12.168 404.764 12.168C405.352 12.168 406.5 11.916 407.186 11.23L406.066 10.026C405.758 10.432 405.282 10.656 404.764 10.656C403.532 10.656 402.79 9.69 402.79 8.64C402.79 7.59 403.532 6.624 404.764 6.624C405.212 6.624 405.646 6.89 406.038 7.296L407.2 6.134ZM408.802 6.708V9.788C408.802 11.37 409.222 12.168 411 12.168C411.392 12.168 411.98 12.112 412.33 11.944V10.53C412.12 10.684 411.714 10.74 411.42 10.74C410.678 10.74 410.482 10.32 410.482 9.648V6.708H412.33V5.28H410.482V3.334H408.802V5.28H407.416V6.708H408.802ZM413.669 12H415.349V5.28H413.669V12ZM413.431 2.998C413.431 3.53 413.879 4.006 414.495 4.006C415.111 4.006 415.587 3.572 415.587 2.998C415.587 2.424 415.111 1.99 414.495 1.99C413.879 1.99 413.431 2.466 413.431 2.998ZM416.942 8.64C416.942 10.754 418.566 12.168 420.596 12.168C422.626 12.168 424.25 10.754 424.25 8.64C424.25 6.526 422.626 5.112 420.596 5.112C418.566 5.112 416.942 6.526 416.942 8.64ZM418.622 8.64C418.622 7.59 419.364 6.624 420.596 6.624C421.828 6.624 422.57 7.59 422.57 8.64C422.57 9.69 421.828 10.656 420.596 10.656C419.364 10.656 418.622 9.69 418.622 8.64ZM425.823 12H427.503V8.332C427.503 7.436 427.937 6.624 429.043 6.624C430.219 6.624 430.275 7.856 430.275 8.598V12H431.955V7.758C431.955 6.386 431.311 5.112 429.505 5.112C428.385 5.112 427.755 5.686 427.447 6.358H427.419V5.28H425.823V12ZM433.862 11.02C433.862 11.622 434.394 12.084 434.982 12.084C435.598 12.084 436.102 11.594 436.102 10.992C436.102 10.39 435.584 9.928 434.982 9.928C434.366 9.928 433.862 10.418 433.862 11.02ZM433.862 6.274C433.862 6.876 434.394 7.338 434.982 7.338C435.598 7.338 436.102 6.848 436.102 6.246C436.102 5.644 435.584 5.182 434.982 5.182C434.366 5.182 433.862 5.672 433.862 6.274ZM445.045 12H446.571L450.575 2.088H448.671L445.885 9.578L443.183 2.088H441.153L445.045 12ZM457.188 9.228V8.766C457.188 6.428 455.914 5.112 454.038 5.112C452.008 5.112 450.384 6.526 450.384 8.64C450.384 10.754 452.008 12.168 454.038 12.168C455.102 12.168 456.096 11.79 456.88 10.824L455.676 9.914C455.256 10.432 454.71 10.824 453.87 10.824C452.932 10.824 452.176 10.222 452.064 9.228H457.188ZM452.064 7.968C452.19 7.002 452.806 6.372 453.8 6.372C454.85 6.372 455.494 6.988 455.508 7.968H452.064ZM458.759 12H460.439V8.402C460.439 8.038 460.663 6.708 462.245 6.708C462.511 6.708 462.777 6.764 463.057 6.834V5.21C462.861 5.154 462.665 5.112 462.455 5.112C461.573 5.112 460.831 5.574 460.467 6.344H460.439V5.28H458.759V12ZM464.802 6.708V9.788C464.802 11.37 465.222 12.168 467 12.168C467.392 12.168 467.98 12.112 468.33 11.944V10.53C468.12 10.684 467.714 10.74 467.42 10.74C466.678 10.74 466.482 10.32 466.482 9.648V6.708H468.33V5.28H466.482V3.334H464.802V5.28H463.416V6.708H464.802ZM469.669 12H471.349V5.28H469.669V12ZM469.431 2.998C469.431 3.53 469.879 4.006 470.495 4.006C471.111 4.006 471.587 3.572 471.587 2.998C471.587 2.424 471.111 1.99 470.495 1.99C469.879 1.99 469.431 2.466 469.431 2.998ZM479.032 6.134C478.388 5.42 477.45 5.112 476.596 5.112C474.566 5.112 472.942 6.526 472.942 8.64C472.942 10.754 474.566 12.168 476.596 12.168C477.184 12.168 478.332 11.916 479.018 11.23L477.898 10.026C477.59 10.432 477.114 10.656 476.596 10.656C475.364 10.656 474.622 9.69 474.622 8.64C474.622 7.59 475.364 6.624 476.596 6.624C477.044 6.624 477.478 6.89 477.87 7.296L479.032 6.134ZM484.232 12H485.744V8.136C485.744 7.184 485.744 5.112 482.874 5.112C481.81 5.112 480.76 5.434 480.018 6.19L480.9 7.072C481.348 6.652 481.992 6.372 482.692 6.372C483.588 6.372 484.232 6.806 484.232 7.632V7.814H483.812C482.132 7.814 479.584 7.968 479.584 10.152C479.584 11.482 480.788 12.168 482.034 12.168C482.93 12.168 483.714 11.832 484.19 11.076H484.232V12ZM484.134 9.368C484.134 10.306 483.588 10.908 482.44 10.908C481.894 10.908 481.264 10.642 481.264 10.026C481.264 9.06 482.86 8.99 483.784 8.99H484.134V9.368ZM487.58 12H489.26V1.416H487.58V12ZM376.136 29H377.9V20.684H380.938V19.088H373.098V20.684H376.136V29ZM382.392 29.056L382.07 29.854C381.79 30.554 381.566 30.848 380.74 30.848C380.446 30.848 380.152 30.778 379.886 30.68L379.676 32.192C380.096 32.304 380.53 32.36 380.964 32.36C382.448 32.36 383.036 31.702 383.526 30.442L386.704 22.28H384.954L383.274 26.942H383.246L381.37 22.28H379.522L382.392 29.056ZM387.692 32.192H389.372V28.146H389.414C389.764 28.58 390.436 29.168 391.696 29.168C393.614 29.168 394.944 27.628 394.944 25.64C394.944 23.652 393.698 22.112 391.626 22.112C390.688 22.112 389.806 22.476 389.316 23.288H389.288V22.28H387.692V32.192ZM393.264 25.64C393.264 26.69 392.522 27.656 391.29 27.656C390.058 27.656 389.316 26.69 389.316 25.64C389.316 24.59 390.058 23.624 391.29 23.624C392.522 23.624 393.264 24.59 393.264 25.64ZM402.979 26.228V25.766C402.979 23.428 401.705 22.112 399.829 22.112C397.799 22.112 396.175 23.526 396.175 25.64C396.175 27.754 397.799 29.168 399.829 29.168C400.893 29.168 401.887 28.79 402.671 27.824L401.467 26.914C401.047 27.432 400.501 27.824 399.661 27.824C398.723 27.824 397.967 27.222 397.855 26.228H402.979ZM397.855 24.968C397.981 24.002 398.597 23.372 399.591 23.372C400.641 23.372 401.285 23.988 401.299 24.968H397.855ZM404.55 28.02C404.55 28.622 405.082 29.084 405.67 29.084C406.286 29.084 406.79 28.594 406.79 27.992C406.79 27.39 406.272 26.928 405.67 26.928C405.054 26.928 404.55 27.418 404.55 28.02ZM404.55 23.274C404.55 23.876 405.082 24.338 405.67 24.338C406.286 24.338 406.79 23.848 406.79 23.246C406.79 22.644 406.272 22.182 405.67 22.182C405.054 22.182 404.55 22.672 404.55 23.274ZM412.989 29H418.967V27.404H414.753V19.088H412.989V29ZM426.563 26.228V25.766C426.563 23.428 425.289 22.112 423.413 22.112C421.383 22.112 419.759 23.526 419.759 25.64C419.759 27.754 421.383 29.168 423.413 29.168C424.477 29.168 425.471 28.79 426.255 27.824L425.051 26.914C424.631 27.432 424.085 27.824 423.245 27.824C422.307 27.824 421.551 27.222 421.439 26.228H426.563ZM421.439 24.968C421.565 24.002 422.181 23.372 423.175 23.372C424.225 23.372 424.869 23.988 424.883 24.968H421.439ZM428.736 29H430.416V23.708H431.97V22.28H430.416V21.062C430.416 20.32 430.556 19.676 431.494 19.676C431.732 19.676 431.956 19.718 432.194 19.774L432.306 18.346C431.956 18.276 431.606 18.248 431.242 18.248C429.156 18.248 428.736 19.466 428.736 21.328V22.28H427.35V23.708H428.736V29ZM433.658 23.708V26.788C433.658 28.37 434.078 29.168 435.856 29.168C436.248 29.168 436.836 29.112 437.186 28.944V27.53C436.976 27.684 436.57 27.74 436.276 27.74C435.534 27.74 435.338 27.32 435.338 26.648V23.708H437.186V22.28H435.338V20.334H433.658V22.28H432.272V23.708H433.658Z" fill="black"/>
<circle cx="484" cy="57" r="7" fill="#6B778C"/>
<path d="M421.799 61H429.207V59.752H423.143V55.72H428.535V54.472H423.143V50.92H428.919V49.672H421.799V61ZM437.427 53.512H436.083L433.859 59.384H433.827L431.491 53.512H430.035L433.091 61H434.467L437.427 53.512ZM444.522 58.904C443.93 59.656 443.21 60.04 442.138 60.04C440.778 60.04 439.786 58.936 439.69 57.64H445.738V57.24C445.738 54.76 444.298 53.32 442.186 53.32C439.978 53.32 438.346 54.936 438.346 57.256C438.346 59.432 439.786 61.192 442.138 61.192C443.53 61.192 444.586 60.776 445.466 59.64L444.522 58.904ZM439.69 56.584C439.85 55.32 440.762 54.472 442.138 54.472C443.514 54.472 444.346 55.32 444.394 56.584H439.69ZM447.668 61H448.916V57.352C448.916 55.64 449.62 54.472 451.236 54.472C452.404 54.472 452.948 55.256 452.948 56.504V61H454.196V56.376C454.196 54.568 453.316 53.32 451.348 53.32C450.116 53.32 449.188 54.008 448.852 54.744H448.82C448.82 54.328 448.788 53.912 448.788 53.512H447.604C447.604 54.008 447.668 54.6 447.668 55.288V61ZM460.655 53.512H458.447V51.384H457.199V53.512H455.567V54.568H457.199V58.68C457.199 60.232 457.487 61.192 459.263 61.192C459.727 61.192 460.287 61.112 460.719 60.92L460.671 59.784C460.335 59.96 459.935 60.04 459.567 60.04C458.463 60.04 458.447 59.272 458.447 58.312V54.568H460.655V53.512Z" fill="#333333"/>
<rect width="2" height="49" transform="translate(483 64)" fill="#9EA6B5"/>
<circle cx="484" cy="120" r="7" fill="#6B778C"/>
<path d="M421.799 124H429.207V122.752H423.143V118.72H428.535V117.472H423.143V113.92H428.919V112.672H421.799V124ZM437.427 116.512H436.083L433.859 122.384H433.827L431.491 116.512H430.035L433.091 124H434.467L437.427 116.512ZM444.522 121.904C443.93 122.656 443.21 123.04 442.138 123.04C440.778 123.04 439.786 121.936 439.69 120.64H445.738V120.24C445.738 117.76 444.298 116.32 442.186 116.32C439.978 116.32 438.346 117.936 438.346 120.256C438.346 122.432 439.786 124.192 442.138 124.192C443.53 124.192 444.586 123.776 445.466 122.64L444.522 121.904ZM439.69 119.584C439.85 118.32 440.762 117.472 442.138 117.472C443.514 117.472 444.346 118.32 444.394 119.584H439.69ZM447.668 124H448.916V120.352C448.916 118.64 449.62 117.472 451.236 117.472C452.404 117.472 452.948 118.256 452.948 119.504V124H454.196V119.376C454.196 117.568 453.316 116.32 451.348 116.32C450.116 116.32 449.188 117.008 448.852 117.744H448.82C448.82 117.328 448.788 116.912 448.788 116.512H447.604C447.604 117.008 447.668 117.6 447.668 118.288V124ZM460.655 116.512H458.447V114.384H457.199V116.512H455.567V117.568H457.199V121.68C457.199 123.232 457.487 124.192 459.263 124.192C459.727 124.192 460.287 124.112 460.719 123.92L460.671 122.784C460.335 122.96 459.935 123.04 459.567 123.04C458.463 123.04 458.447 122.272 458.447 121.312V117.568H460.655V116.512Z" fill="#333333"/>
<rect width="2" height="49" transform="translate(483 127)" fill="#9EA6B5"/>
<circle cx="484" cy="183" r="7" fill="#6B778C"/>
<path d="M421.799 187H429.207V185.752H423.143V181.72H428.535V180.472H423.143V176.92H428.919V175.672H421.799V187ZM437.427 179.512H436.083L433.859 185.384H433.827L431.491 179.512H430.035L433.091 187H434.467L437.427 179.512ZM444.522 184.904C443.93 185.656 443.21 186.04 442.138 186.04C440.778 186.04 439.786 184.936 439.69 183.64H445.738V183.24C445.738 180.76 444.298 179.32 442.186 179.32C439.978 179.32 438.346 180.936 438.346 183.256C438.346 185.432 439.786 187.192 442.138 187.192C443.53 187.192 444.586 186.776 445.466 185.64L444.522 184.904ZM439.69 182.584C439.85 181.32 440.762 180.472 442.138 180.472C443.514 180.472 444.346 181.32 444.394 182.584H439.69ZM447.668 187H448.916V183.352C448.916 181.64 449.62 180.472 451.236 180.472C452.404 180.472 452.948 181.256 452.948 182.504V187H454.196V182.376C454.196 180.568 453.316 179.32 451.348 179.32C450.116 179.32 449.188 180.008 448.852 180.744H448.82C448.82 180.328 448.788 179.912 448.788 179.512H447.604C447.604 180.008 447.668 180.6 447.668 181.288V187ZM460.655 179.512H458.447V177.384H457.199V179.512H455.567V180.568H457.199V184.68C457.199 186.232 457.487 187.192 459.263 187.192C459.727 187.192 460.287 187.112 460.719 186.92L460.671 185.784C460.335 185.96 459.935 186.04 459.567 186.04C458.463 186.04 458.447 185.272 458.447 184.312V180.568H460.655V179.512Z" fill="#333333"/>
<rect width="2" height="49" transform="translate(483 190)" fill="#9EA6B5"/>
<circle cx="484" cy="246" r="7" fill="#6B778C"/>
<path d="M421.799 250H429.207V248.752H423.143V244.72H428.535V243.472H423.143V239.92H428.919V238.672H421.799V250ZM437.427 242.512H436.083L433.859 248.384H433.827L431.491 242.512H430.035L433.091 250H434.467L437.427 242.512ZM444.522 247.904C443.93 248.656 443.21 249.04 442.138 249.04C440.778 249.04 439.786 247.936 439.69 246.64H445.738V246.24C445.738 243.76 444.298 242.32 442.186 242.32C439.978 242.32 438.346 243.936 438.346 246.256C438.346 248.432 439.786 250.192 442.138 250.192C443.53 250.192 444.586 249.776 445.466 248.64L444.522 247.904ZM439.69 245.584C439.85 244.32 440.762 243.472 442.138 243.472C443.514 243.472 444.346 244.32 444.394 245.584H439.69ZM447.668 250H448.916V246.352C448.916 244.64 449.62 243.472 451.236 243.472C452.404 243.472 452.948 244.256 452.948 245.504V250H454.196V245.376C454.196 243.568 453.316 242.32 451.348 242.32C450.116 242.32 449.188 243.008 448.852 243.744H448.82C448.82 243.328 448.788 242.912 448.788 242.512H447.604C447.604 243.008 447.668 243.6 447.668 244.288V250ZM460.655 242.512H458.447V240.384H457.199V242.512H455.567V243.568H457.199V247.68C457.199 249.232 457.487 250.192 459.263 250.192C459.727 250.192 460.287 250.112 460.719 249.92L460.671 248.784C460.335 248.96 459.935 249.04 459.567 249.04C458.463 249.04 458.447 248.272 458.447 247.312V243.568H460.655V242.512Z" fill="#333333"/>
<path d="M542.106 12H545.802C548.182 12 551.052 10.432 551.052 7.044C551.052 3.684 548.616 2.088 546.012 2.088H542.106V12ZM543.87 10.404V3.684H545.48C547.636 3.684 549.204 4.636 549.204 7.044C549.204 9.452 547.398 10.404 545.186 10.404H543.87ZM552.603 12H554.283V5.28H552.603V12ZM552.365 2.998C552.365 3.53 552.813 4.006 553.429 4.006C554.045 4.006 554.521 3.572 554.521 2.998C554.521 2.424 554.045 1.99 553.429 1.99C552.813 1.99 552.365 2.466 552.365 2.998ZM556.212 12H557.892V8.402C557.892 8.038 558.116 6.708 559.698 6.708C559.964 6.708 560.23 6.764 560.51 6.834V5.21C560.314 5.154 560.118 5.112 559.908 5.112C559.026 5.112 558.284 5.574 557.92 6.344H557.892V5.28H556.212V12ZM567.875 9.228V8.766C567.875 6.428 566.601 5.112 564.725 5.112C562.695 5.112 561.071 6.526 561.071 8.64C561.071 10.754 562.695 12.168 564.725 12.168C565.789 12.168 566.783 11.79 567.567 10.824L566.363 9.914C565.943 10.432 565.397 10.824 564.557 10.824C563.619 10.824 562.863 10.222 562.751 9.228H567.875ZM562.751 7.968C562.877 7.002 563.493 6.372 564.487 6.372C565.537 6.372 566.181 6.988 566.195 7.968H562.751ZM575.2 6.134C574.556 5.42 573.618 5.112 572.764 5.112C570.734 5.112 569.11 6.526 569.11 8.64C569.11 10.754 570.734 12.168 572.764 12.168C573.352 12.168 574.5 11.916 575.186 11.23L574.066 10.026C573.758 10.432 573.282 10.656 572.764 10.656C571.532 10.656 570.79 9.69 570.79 8.64C570.79 7.59 571.532 6.624 572.764 6.624C573.212 6.624 573.646 6.89 574.038 7.296L575.2 6.134ZM576.802 6.708V9.788C576.802 11.37 577.222 12.168 579 12.168C579.392 12.168 579.98 12.112 580.33 11.944V10.53C580.12 10.684 579.714 10.74 579.42 10.74C578.678 10.74 578.482 10.32 578.482 9.648V6.708H580.33V5.28H578.482V3.334H576.802V5.28H575.416V6.708H576.802ZM581.669 12H583.349V5.28H581.669V12ZM581.431 2.998C581.431 3.53 581.879 4.006 582.495 4.006C583.111 4.006 583.587 3.572 583.587 2.998C583.587 2.424 583.111 1.99 582.495 1.99C581.879 1.99 581.431 2.466 581.431 2.998ZM584.942 8.64C584.942 10.754 586.566 12.168 588.596 12.168C590.626 12.168 592.25 10.754 592.25 8.64C592.25 6.526 590.626 5.112 588.596 5.112C586.566 5.112 584.942 6.526 584.942 8.64ZM586.622 8.64C586.622 7.59 587.364 6.624 588.596 6.624C589.828 6.624 590.57 7.59 590.57 8.64C590.57 9.69 589.828 10.656 588.596 10.656C587.364 10.656 586.622 9.69 586.622 8.64ZM593.823 12H595.503V8.332C595.503 7.436 595.937 6.624 597.043 6.624C598.219 6.624 598.275 7.856 598.275 8.598V12H599.955V7.758C599.955 6.386 599.311 5.112 597.505 5.112C596.385 5.112 595.755 5.686 595.447 6.358H595.419V5.28H593.823V12ZM601.862 11.02C601.862 11.622 602.394 12.084 602.982 12.084C603.598 12.084 604.102 11.594 604.102 10.992C604.102 10.39 603.584 9.928 602.982 9.928C602.366 9.928 601.862 10.418 601.862 11.02ZM601.862 6.274C601.862 6.876 602.394 7.338 602.982 7.338C603.598 7.338 604.102 6.848 604.102 6.246C604.102 5.644 603.584 5.182 602.982 5.182C602.366 5.182 601.862 5.672 601.862 6.274ZM613.045 12H614.571L618.575 2.088H616.671L613.885 9.578L611.183 2.088H609.153L613.045 12ZM625.188 9.228V8.766C625.188 6.428 623.914 5.112 622.038 5.112C620.008 5.112 618.384 6.526 618.384 8.64C618.384 10.754 620.008 12.168 622.038 12.168C623.102 12.168 624.096 11.79 624.88 10.824L623.676 9.914C623.256 10.432 622.71 10.824 621.87 10.824C620.932 10.824 620.176 10.222 620.064 9.228H625.188ZM620.064 7.968C620.19 7.002 620.806 6.372 621.8 6.372C622.85 6.372 623.494 6.988 623.508 7.968H620.064ZM626.759 12H628.439V8.402C628.439 8.038 628.663 6.708 630.245 6.708C630.511 6.708 630.777 6.764 631.057 6.834V5.21C630.861 5.154 630.665 5.112 630.455 5.112C629.573 5.112 628.831 5.574 628.467 6.344H628.439V5.28H626.759V12ZM632.802 6.708V9.788C632.802 11.37 633.222 12.168 635 12.168C635.392 12.168 635.98 12.112 636.33 11.944V10.53C636.12 10.684 635.714 10.74 635.42 10.74C634.678 10.74 634.482 10.32 634.482 9.648V6.708H636.33V5.28H634.482V3.334H632.802V5.28H631.416V6.708H632.802ZM637.669 12H639.349V5.28H637.669V12ZM637.431 2.998C637.431 3.53 637.879 4.006 638.495 4.006C639.111 4.006 639.587 3.572 639.587 2.998C639.587 2.424 639.111 1.99 638.495 1.99C637.879 1.99 637.431 2.466 637.431 2.998ZM647.032 6.134C646.388 5.42 645.45 5.112 644.596 5.112C642.566 5.112 640.942 6.526 640.942 8.64C640.942 10.754 642.566 12.168 644.596 12.168C645.184 12.168 646.332 11.916 647.018 11.23L645.898 10.026C645.59 10.432 645.114 10.656 644.596 10.656C643.364 10.656 642.622 9.69 642.622 8.64C642.622 7.59 643.364 6.624 644.596 6.624C645.044 6.624 645.478 6.89 645.87 7.296L647.032 6.134ZM652.232 12H653.744V8.136C653.744 7.184 653.744 5.112 650.874 5.112C649.81 5.112 648.76 5.434 648.018 6.19L648.9 7.072C649.348 6.652 649.992 6.372 650.692 6.372C651.588 6.372 652.232 6.806 652.232 7.632V7.814H651.812C650.132 7.814 647.584 7.968 647.584 10.152C647.584 11.482 648.788 12.168 650.034 12.168C650.93 12.168 651.714 11.832 652.19 11.076H652.232V12ZM652.134 9.368C652.134 10.306 651.588 10.908 650.44 10.908C649.894 10.908 649.264 10.642 649.264 10.026C649.264 9.06 650.86 8.99 651.784 8.99H652.134V9.368ZM655.58 12H657.26V1.416H655.58V12ZM544.136 29H545.9V20.684H548.938V19.088H541.098V20.684H544.136V29ZM550.392 29.056L550.07 29.854C549.79 30.554 549.566 30.848 548.74 30.848C548.446 30.848 548.152 30.778 547.886 30.68L547.676 32.192C548.096 32.304 548.53 32.36 548.964 32.36C550.448 32.36 551.036 31.702 551.526 30.442L554.704 22.28H552.954L551.274 26.942H551.246L549.37 22.28H547.522L550.392 29.056ZM555.692 32.192H557.372V28.146H557.414C557.764 28.58 558.436 29.168 559.696 29.168C561.614 29.168 562.944 27.628 562.944 25.64C562.944 23.652 561.698 22.112 559.626 22.112C558.688 22.112 557.806 22.476 557.316 23.288H557.288V22.28H555.692V32.192ZM561.264 25.64C561.264 26.69 560.522 27.656 559.29 27.656C558.058 27.656 557.316 26.69 557.316 25.64C557.316 24.59 558.058 23.624 559.29 23.624C560.522 23.624 561.264 24.59 561.264 25.64ZM570.979 26.228V25.766C570.979 23.428 569.705 22.112 567.829 22.112C565.799 22.112 564.175 23.526 564.175 25.64C564.175 27.754 565.799 29.168 567.829 29.168C568.893 29.168 569.887 28.79 570.671 27.824L569.467 26.914C569.047 27.432 568.501 27.824 567.661 27.824C566.723 27.824 565.967 27.222 565.855 26.228H570.979ZM565.855 24.968C565.981 24.002 566.597 23.372 567.591 23.372C568.641 23.372 569.285 23.988 569.299 24.968H565.855ZM572.55 28.02C572.55 28.622 573.082 29.084 573.67 29.084C574.286 29.084 574.79 28.594 574.79 27.992C574.79 27.39 574.272 26.928 573.67 26.928C573.054 26.928 572.55 27.418 572.55 28.02ZM572.55 23.274C572.55 23.876 573.082 24.338 573.67 24.338C574.286 24.338 574.79 23.848 574.79 23.246C574.79 22.644 574.272 22.182 573.67 22.182C573.054 22.182 572.55 22.672 572.55 23.274ZM580.989 29H582.753V24.8H584.041L586.337 29H588.465L585.833 24.618C587.303 24.408 588.129 23.358 588.129 21.93C588.129 19.704 586.337 19.088 584.433 19.088H580.989V29ZM582.753 23.288V20.6H584.279C585.189 20.6 586.281 20.74 586.281 21.916C586.281 23.204 585.119 23.288 584.125 23.288H582.753ZM589.681 29H591.361V22.28H589.681V29ZM589.443 19.998C589.443 20.53 589.891 21.006 590.507 21.006C591.123 21.006 591.599 20.572 591.599 19.998C591.599 19.424 591.123 18.99 590.507 18.99C589.891 18.99 589.443 19.466 589.443 19.998ZM598.61 22.28V23.288H598.582C598.092 22.476 597.21 22.112 596.272 22.112C594.2 22.112 592.954 23.652 592.954 25.64C592.954 27.544 594.284 29.084 596.3 29.084C597.14 29.084 598.008 28.762 598.498 28.104H598.526V28.594C598.526 29.924 598.022 30.848 596.398 30.848C595.46 30.848 594.76 30.498 594.088 29.882L593.08 31.254C594.032 32.094 595.166 32.36 596.412 32.36C599.03 32.36 600.206 30.82 600.206 28.398V22.28H598.61ZM596.622 23.624C597.84 23.624 598.61 24.436 598.61 25.598C598.61 26.718 597.854 27.572 596.608 27.572C595.474 27.572 594.634 26.69 594.634 25.626C594.634 24.436 595.446 23.624 596.622 23.624ZM603.788 18.416H602.108V29H603.788V25.332C603.788 24.436 604.222 23.624 605.328 23.624C606.504 23.624 606.56 24.856 606.56 25.598V29H608.24V24.758C608.24 23.386 607.596 22.112 605.79 22.112C604.754 22.112 604.082 22.658 603.816 23.218H603.788V18.416ZM610.749 23.708V26.788C610.749 28.37 611.169 29.168 612.947 29.168C613.339 29.168 613.927 29.112 614.277 28.944V27.53C614.067 27.684 613.661 27.74 613.367 27.74C612.625 27.74 612.429 27.32 612.429 26.648V23.708H614.277V22.28H612.429V20.334H610.749V22.28H609.363V23.708H610.749Z" fill="black"/>
<circle cx="548" cy="57" r="7" fill="#6B778C"/>
<path d="M572.408 61H579.816V59.752H573.752V55.72H579.144V54.472H573.752V50.92H579.528V49.672H572.408V61ZM588.036 53.512H586.692L584.468 59.384H584.436L582.1 53.512H580.644L583.7 61H585.076L588.036 53.512ZM595.131 58.904C594.539 59.656 593.819 60.04 592.747 60.04C591.387 60.04 590.395 58.936 590.299 57.64H596.347V57.24C596.347 54.76 594.907 53.32 592.795 53.32C590.587 53.32 588.955 54.936 588.955 57.256C588.955 59.432 590.395 61.192 592.747 61.192C594.139 61.192 595.195 60.776 596.075 59.64L595.131 58.904ZM590.299 56.584C590.459 55.32 591.371 54.472 592.747 54.472C594.123 54.472 594.955 55.32 595.003 56.584H590.299ZM598.278 61H599.526V57.352C599.526 55.64 600.23 54.472 601.846 54.472C603.014 54.472 603.558 55.256 603.558 56.504V61H604.806V56.376C604.806 54.568 603.926 53.32 601.958 53.32C600.726 53.32 599.798 54.008 599.462 54.744H599.43C599.43 54.328 599.398 53.912 599.398 53.512H598.214C598.214 54.008 598.278 54.6 598.278 55.288V61ZM611.264 53.512H609.056V51.384H607.808V53.512H606.176V54.568H607.808V58.68C607.808 60.232 608.096 61.192 609.872 61.192C610.336 61.192 610.896 61.112 611.328 60.92L611.28 59.784C610.944 59.96 610.544 60.04 610.176 60.04C609.072 60.04 609.056 59.272 609.056 58.312V54.568H611.264V53.512Z" fill="#333333"/>
<rect width="2" height="48" transform="translate(547 64)" fill="#9EA6B5"/>
<circle cx="548" cy="119" r="7" fill="#6B778C"/>
<path d="M572.408 123H579.816V121.752H573.752V117.72H579.144V116.472H573.752V112.92H579.528V111.672H572.408V123ZM588.036 115.512H586.692L584.468 121.384H584.436L582.1 115.512H580.644L583.7 123H585.076L588.036 115.512ZM595.131 120.904C594.539 121.656 593.819 122.04 592.747 122.04C591.387 122.04 590.395 120.936 590.299 119.64H596.347V119.24C596.347 116.76 594.907 115.32 592.795 115.32C590.587 115.32 588.955 116.936 588.955 119.256C588.955 121.432 590.395 123.192 592.747 123.192C594.139 123.192 595.195 122.776 596.075 121.64L595.131 120.904ZM590.299 118.584C590.459 117.32 591.371 116.472 592.747 116.472C594.123 116.472 594.955 117.32 595.003 118.584H590.299ZM598.278 123H599.526V119.352C599.526 117.64 600.23 116.472 601.846 116.472C603.014 116.472 603.558 117.256 603.558 118.504V123H604.806V118.376C604.806 116.568 603.926 115.32 601.958 115.32C600.726 115.32 599.798 116.008 599.462 116.744H599.43C599.43 116.328 599.398 115.912 599.398 115.512H598.214C598.214 116.008 598.278 116.6 598.278 117.288V123ZM611.264 115.512H609.056V113.384H607.808V115.512H606.176V116.568H607.808V120.68C607.808 122.232 608.096 123.192 609.872 123.192C610.336 123.192 610.896 123.112 611.328 122.92L611.28 121.784C610.944 121.96 610.544 122.04 610.176 122.04C609.072 122.04 609.056 121.272 609.056 120.312V116.568H611.264V115.512Z" fill="#333333"/>
<rect width="2" height="48" transform="translate(547 126)" fill="#9EA6B5"/>
<circle cx="548" cy="181" r="7" fill="#6B778C"/>
<path d="M572.408 185H579.816V183.752H573.752V179.72H579.144V178.472H573.752V174.92H579.528V173.672H572.408V185ZM588.036 177.512H586.692L584.468 183.384H584.436L582.1 177.512H580.644L583.7 185H585.076L588.036 177.512ZM595.131 182.904C594.539 183.656 593.819 184.04 592.747 184.04C591.387 184.04 590.395 182.936 590.299 181.64H596.347V181.24C596.347 178.76 594.907 177.32 592.795 177.32C590.587 177.32 588.955 178.936 588.955 181.256C588.955 183.432 590.395 185.192 592.747 185.192C594.139 185.192 595.195 184.776 596.075 183.64L595.131 182.904ZM590.299 180.584C590.459 179.32 591.371 178.472 592.747 178.472C594.123 178.472 594.955 179.32 595.003 180.584H590.299ZM598.278 185H599.526V181.352C599.526 179.64 600.23 178.472 601.846 178.472C603.014 178.472 603.558 179.256 603.558 180.504V185H604.806V180.376C604.806 178.568 603.926 177.32 601.958 177.32C600.726 177.32 599.798 178.008 599.462 178.744H599.43C599.43 178.328 599.398 177.912 599.398 177.512H598.214C598.214 178.008 598.278 178.6 598.278 179.288V185ZM611.264 177.512H609.056V175.384H607.808V177.512H606.176V178.568H607.808V182.68C607.808 184.232 608.096 185.192 609.872 185.192C610.336 185.192 610.896 185.112 611.328 184.92L611.28 183.784C610.944 183.96 610.544 184.04 610.176 184.04C609.072 184.04 609.056 183.272 609.056 182.312V178.568H611.264V177.512Z" fill="#333333"/>
<rect width="2" height="48" transform="translate(547 188)" fill="#9EA6B5"/>
<circle cx="548" cy="243" r="7" fill="#6B778C"/>
<path d="M572.408 247H579.816V245.752H573.752V241.72H579.144V240.472H573.752V236.92H579.528V235.672H572.408V247ZM588.036 239.512H586.692L584.468 245.384H584.436L582.1 239.512H580.644L583.7 247H585.076L588.036 239.512ZM595.131 244.904C594.539 245.656 593.819 246.04 592.747 246.04C591.387 246.04 590.395 244.936 590.299 243.64H596.347V243.24C596.347 240.76 594.907 239.32 592.795 239.32C590.587 239.32 588.955 240.936 588.955 243.256C588.955 245.432 590.395 247.192 592.747 247.192C594.139 247.192 595.195 246.776 596.075 245.64L595.131 244.904ZM590.299 242.584C590.459 241.32 591.371 240.472 592.747 240.472C594.123 240.472 594.955 241.32 595.003 242.584H590.299ZM598.278 247H599.526V243.352C599.526 241.64 600.23 240.472 601.846 240.472C603.014 240.472 603.558 241.256 603.558 242.504V247H604.806V242.376C604.806 240.568 603.926 239.32 601.958 239.32C600.726 239.32 599.798 240.008 599.462 240.744H599.43C599.43 240.328 599.398 239.912 599.398 239.512H598.214C598.214 240.008 598.278 240.6 598.278 241.288V247ZM611.264 239.512H609.056V237.384H607.808V239.512H606.176V240.568H607.808V244.68C607.808 246.232 608.096 247.192 609.872 247.192C610.336 247.192 610.896 247.112 611.328 246.92L611.28 245.784C610.944 245.96 610.544 246.04 610.176 246.04C609.072 246.04 609.056 245.272 609.056 244.312V240.568H611.264V239.512Z" fill="#333333"/>
</g>
<defs>
<clipPath id="clip0_62_15530">
<rect width="659" height="519" fill="white"/>
</clipPath>
</defs>
</svg>
