<svg width="659" height="279" viewBox="0 0 659 279" fill="none" xmlns="http://www.w3.org/2000/svg">
<circle cx="129" cy="47" r="7" fill="#6B778C"/>
<path d="M63.8455 51H65.1895V45.72H71.2375V51H72.5815V39.672H71.2375V44.472H65.1895V39.672H63.8455V51ZM74.7364 47.256C74.7364 49.592 76.4324 51.192 78.7364 51.192C81.0404 51.192 82.7364 49.592 82.7364 47.256C82.7364 44.92 81.0404 43.32 78.7364 43.32C76.4324 43.32 74.7364 44.92 74.7364 47.256ZM76.0804 47.256C76.0804 45.688 77.1204 44.472 78.7364 44.472C80.3524 44.472 81.3924 45.688 81.3924 47.256C81.3924 48.824 80.3524 50.04 78.7364 50.04C77.1204 50.04 76.0804 48.824 76.0804 47.256ZM84.6684 51H85.9164V47.352C85.9164 45.64 86.6204 44.472 88.2364 44.472C89.2604 44.472 89.6764 45.112 89.6764 46.76V51H90.9244V46.68C90.9244 45.336 91.8044 44.472 92.8604 44.472C94.3164 44.472 94.6844 45.48 94.6844 46.52V51H95.9324V46.456C95.9324 44.52 95.2284 43.32 93.0844 43.32C91.9484 43.32 91.2604 43.864 90.7164 44.744C90.4764 44.232 89.9644 43.32 88.3484 43.32C87.1164 43.32 86.1884 44.008 85.8524 44.744H85.8204C85.8204 44.328 85.7884 43.912 85.7884 43.512H84.6044C84.6044 44.008 84.6684 44.6 84.6684 45.288V51ZM104.037 48.904C103.445 49.656 102.725 50.04 101.653 50.04C100.293 50.04 99.3014 48.936 99.2054 47.64H105.253V47.24C105.253 44.76 103.813 43.32 101.701 43.32C99.4934 43.32 97.8614 44.936 97.8614 47.256C97.8614 49.432 99.3014 51.192 101.653 51.192C103.045 51.192 104.101 50.776 104.981 49.64L104.037 48.904ZM99.2054 46.584C99.3654 45.32 100.277 44.472 101.653 44.472C103.029 44.472 103.861 45.32 103.909 46.584H99.2054Z" fill="#333333"/>
<rect width="2" height="49" transform="translate(128 54)" fill="#9EA6B5"/>
<circle cx="129" cy="110" r="7" fill="#6B778C"/>
<path d="M69.6876 114.288C73.1276 114.288 75.6076 111.76 75.6076 108.336C75.6076 104.912 73.1276 102.384 69.6876 102.384C66.2476 102.384 63.7676 104.912 63.7676 108.336C63.7676 111.76 66.2476 114.288 69.6876 114.288ZM69.6876 113.04C67.0316 113.04 65.2076 110.944 65.2076 108.336C65.2076 105.728 67.0316 103.632 69.6876 103.632C72.3436 103.632 74.1676 105.728 74.1676 108.336C74.1676 110.944 72.3436 113.04 69.6876 113.04ZM77.5434 114H78.7914V110.352C78.7914 108.64 79.4634 107.568 80.9834 107.568C81.2074 107.568 81.4474 107.6 81.6554 107.664L81.7354 106.4C81.5594 106.336 81.3834 106.32 81.2234 106.32C79.9914 106.32 79.0634 107.008 78.7274 107.744H78.6954C78.6954 107.328 78.6634 106.912 78.6634 106.512H77.4794C77.4794 107.008 77.5434 107.6 77.5434 108.288V114ZM89.1111 114H90.3591V101.904H89.1111V107.6H89.0791C88.3911 106.8 87.4791 106.32 86.3911 106.32C84.0391 106.32 82.4551 107.984 82.4551 110.256C82.4551 112.496 84.1031 114.192 86.1991 114.192C87.5431 114.192 88.6151 113.52 89.0791 112.672H89.1111V114ZM89.1111 110.256C89.1111 111.824 88.0711 113.04 86.4551 113.04C84.8391 113.04 83.7991 111.824 83.7991 110.256C83.7991 108.688 84.8391 107.472 86.4551 107.472C88.0711 107.472 89.1111 108.688 89.1111 110.256ZM98.4124 111.904C97.8204 112.656 97.1004 113.04 96.0284 113.04C94.6684 113.04 93.6764 111.936 93.5804 110.64H99.6284V110.24C99.6284 107.76 98.1884 106.32 96.0764 106.32C93.8684 106.32 92.2364 107.936 92.2364 110.256C92.2364 112.432 93.6764 114.192 96.0284 114.192C97.4204 114.192 98.4764 113.776 99.3564 112.64L98.4124 111.904ZM93.5804 109.584C93.7404 108.32 94.6524 107.472 96.0284 107.472C97.4044 107.472 98.2364 108.32 98.2844 109.584H93.5804ZM101.559 114H102.807V110.352C102.807 108.64 103.479 107.568 104.999 107.568C105.223 107.568 105.463 107.6 105.671 107.664L105.751 106.4C105.575 106.336 105.399 106.32 105.239 106.32C104.007 106.32 103.079 107.008 102.743 107.744H102.711C102.711 107.328 102.679 106.912 102.679 106.512H101.495C101.495 107.008 101.559 107.6 101.559 108.288V114Z" fill="#333333"/>
<rect width="2" height="49" transform="translate(128 117)" fill="#9EA6B5"/>
<circle cx="129" cy="173" r="7" fill="#6B778C"/>
<path d="M50.1849 166.712C49.3529 165.736 48.2809 165.384 47.0169 165.384C45.0329 165.384 43.1609 166.472 43.1609 168.648C43.1609 170.536 44.3769 171.24 45.9769 171.768C47.9929 172.44 48.9369 172.68 48.9369 174.072C48.9369 175.368 47.6249 176.04 46.4729 176.04C45.4969 176.04 44.5369 175.608 44.0569 174.776L42.9049 175.72C43.6729 176.856 45.0809 177.288 46.3929 177.288C48.4409 177.288 50.3769 176.232 50.3769 173.976C50.3769 171.752 48.7449 171.176 46.9849 170.616C45.1769 170.04 44.6009 169.576 44.6009 168.536C44.6009 167.192 45.8329 166.632 47.0169 166.632C47.8329 166.632 48.6329 166.952 49.0809 167.672L50.1849 166.712ZM52.3715 177H53.6195V173.352C53.6195 171.64 54.3235 170.472 55.9395 170.472C57.1075 170.472 57.6515 171.256 57.6515 172.504V177H58.8995V172.376C58.8995 170.568 58.0195 169.32 56.0515 169.32C54.8835 169.32 53.9875 169.96 53.6515 170.552H53.6195V164.904H52.3715V177ZM61.3741 177H62.6221V169.512H61.3741V177ZM61.0861 166.584C61.0861 167.112 61.4701 167.496 61.9981 167.496C62.5261 167.496 62.9101 167.112 62.9101 166.584C62.9101 166.088 62.5101 165.672 61.9981 165.672C61.4861 165.672 61.0861 166.088 61.0861 166.584ZM65.0419 180.648H66.2899V175.672H66.3219C66.7859 176.52 67.8579 177.192 69.2019 177.192C71.2979 177.192 72.9459 175.496 72.9459 173.256C72.9459 170.984 71.3619 169.32 69.0099 169.32C67.9219 169.32 67.0099 169.8 66.3219 170.6H66.2899V169.512H65.0419V180.648ZM66.2899 173.256C66.2899 171.688 67.3299 170.472 68.9459 170.472C70.5619 170.472 71.6019 171.688 71.6019 173.256C71.6019 174.824 70.5619 176.04 68.9459 176.04C67.3299 176.04 66.2899 174.824 66.2899 173.256ZM74.8231 180.648H76.0711V175.672H76.1031C76.5671 176.52 77.6391 177.192 78.9831 177.192C81.0791 177.192 82.7271 175.496 82.7271 173.256C82.7271 170.984 81.1431 169.32 78.7911 169.32C77.7031 169.32 76.7911 169.8 76.1031 170.6H76.0711V169.512H74.8231V180.648ZM76.0711 173.256C76.0711 171.688 77.1111 170.472 78.7271 170.472C80.3431 170.472 81.3831 171.688 81.3831 173.256C81.3831 174.824 80.3431 176.04 78.7271 176.04C77.1111 176.04 76.0711 174.824 76.0711 173.256ZM84.7804 177H86.0284V169.512H84.7804V177ZM84.4924 166.584C84.4924 167.112 84.8764 167.496 85.4044 167.496C85.9324 167.496 86.3164 167.112 86.3164 166.584C86.3164 166.088 85.9164 165.672 85.4044 165.672C84.8924 165.672 84.4924 166.088 84.4924 166.584ZM88.5121 177H89.7601V173.352C89.7601 171.64 90.4641 170.472 92.0801 170.472C93.2481 170.472 93.7921 171.256 93.7921 172.504V177H95.0401V172.376C95.0401 170.568 94.1601 169.32 92.1921 169.32C90.9601 169.32 90.0321 170.008 89.6961 170.744H89.6641C89.6641 170.328 89.6321 169.912 89.6321 169.512H88.4481C88.4481 170.008 88.5121 170.6 88.5121 171.288V177ZM104.875 169.512H103.627V170.792H103.595C103.099 169.8 101.963 169.32 100.955 169.32C98.5707 169.32 96.9708 170.808 96.9708 173.256C96.9708 175.464 98.6028 177.096 100.955 177.096C101.947 177.096 103.003 176.664 103.595 175.704H103.627V176.664C103.627 178.248 103.035 179.688 100.795 179.688C99.6428 179.688 98.7948 179.24 98.0108 178.392L97.1148 179.416C98.1708 180.456 99.3388 180.84 100.795 180.84C103.419 180.84 104.875 179.368 104.875 176.664V169.512ZM98.3148 173.256C98.3148 171.688 99.3868 170.472 100.955 170.472C102.539 170.472 103.627 171.608 103.627 173.224C103.627 174.664 102.667 175.944 100.955 175.944C99.4988 175.944 98.3148 174.776 98.3148 173.256Z" fill="#333333"/>
<rect width="2" height="49" transform="translate(128 180)" fill="#9EA6B5"/>
<circle cx="129" cy="236" r="7" fill="#6B778C"/>
<path d="M38.1375 240H42.4895C44.7135 240 48.0415 238.512 48.0415 234.336C48.0415 230.16 44.7135 228.672 42.4895 228.672H38.1375V240ZM39.4815 229.92H42.0415C44.6335 229.92 46.6015 231.232 46.6015 234.336C46.6015 237.44 44.6335 238.752 42.0415 238.752H39.4815V229.92ZM55.7249 237.904C55.1329 238.656 54.4129 239.04 53.3409 239.04C51.9809 239.04 50.9889 237.936 50.8929 236.64H56.9409V236.24C56.9409 233.76 55.5009 232.32 53.3889 232.32C51.1809 232.32 49.5489 233.936 49.5489 236.256C49.5489 238.432 50.9889 240.192 53.3409 240.192C54.7329 240.192 55.7889 239.776 56.6689 238.64L55.7249 237.904ZM50.8929 235.584C51.0529 234.32 51.9649 233.472 53.3409 233.472C54.7169 233.472 55.5489 234.32 55.5969 235.584H50.8929ZM58.9835 240H60.2315V227.904H58.9835V240ZM62.8273 240H64.0753V232.512H62.8273V240ZM62.5393 229.584C62.5393 230.112 62.9233 230.496 63.4513 230.496C63.9793 230.496 64.3633 230.112 64.3633 229.584C64.3633 229.088 63.9633 228.672 63.4513 228.672C62.9393 228.672 62.5393 229.088 62.5393 229.584ZM72.927 232.512H71.583L69.359 238.384H69.327L66.991 232.512H65.535L68.591 240H69.967L72.927 232.512ZM80.0218 237.904C79.4298 238.656 78.7098 239.04 77.6378 239.04C76.2778 239.04 75.2858 237.936 75.1898 236.64H81.2378V236.24C81.2378 233.76 79.7978 232.32 77.6858 232.32C75.4778 232.32 73.8458 233.936 73.8458 236.256C73.8458 238.432 75.2858 240.192 77.6378 240.192C79.0298 240.192 80.0858 239.776 80.9658 238.64L80.0218 237.904ZM75.1898 235.584C75.3498 234.32 76.2618 233.472 77.6378 233.472C79.0138 233.472 79.8458 234.32 79.8938 235.584H75.1898ZM83.1684 240H84.4164V236.352C84.4164 234.64 85.0884 233.568 86.6084 233.568C86.8324 233.568 87.0724 233.6 87.2804 233.664L87.3604 232.4C87.1844 232.336 87.0084 232.32 86.8484 232.32C85.6164 232.32 84.6884 233.008 84.3524 233.744H84.3204C84.3204 233.328 84.2884 232.912 84.2884 232.512H83.1044C83.1044 233.008 83.1684 233.6 83.1684 234.288V240ZM94.2561 237.904C93.6641 238.656 92.9441 239.04 91.8721 239.04C90.5121 239.04 89.5201 237.936 89.4241 236.64H95.4721V236.24C95.4721 233.76 94.0321 232.32 91.9201 232.32C89.7121 232.32 88.0801 233.936 88.0801 236.256C88.0801 238.432 89.5201 240.192 91.8721 240.192C93.2641 240.192 94.3201 239.776 95.2001 238.64L94.2561 237.904ZM89.4241 235.584C89.5841 234.32 90.4961 233.472 91.8721 233.472C93.2481 233.472 94.0801 234.32 94.1281 235.584H89.4241ZM103.627 240H104.875V227.904H103.627V233.6H103.595C102.907 232.8 101.995 232.32 100.907 232.32C98.5548 232.32 96.9708 233.984 96.9708 236.256C96.9708 238.496 98.6188 240.192 100.715 240.192C102.059 240.192 103.131 239.52 103.595 238.672H103.627V240ZM103.627 236.256C103.627 237.824 102.587 239.04 100.971 239.04C99.3548 239.04 98.3148 237.824 98.3148 236.256C98.3148 234.688 99.3548 233.472 100.971 233.472C102.587 233.472 103.627 234.688 103.627 236.256Z" fill="#333333"/>
<path d="M201.17 53H204.29V46.88H210.35V53H213.47V38.84H210.35V44.12H204.29V38.84H201.17V53ZM215.606 48.14C215.606 51.24 218.006 53.24 221.006 53.24C224.006 53.24 226.406 51.24 226.406 48.14C226.406 45.04 224.006 43.04 221.006 43.04C218.006 43.04 215.606 45.04 215.606 48.14ZM218.606 48.14C218.606 46.68 219.506 45.68 221.006 45.68C222.506 45.68 223.406 46.68 223.406 48.14C223.406 49.6 222.506 50.6 221.006 50.6C219.506 50.6 218.606 49.6 218.606 48.14ZM228.173 53H231.173V48.16C231.173 46.9 231.413 45.68 232.973 45.68C234.353 45.68 234.313 47.14 234.313 47.86V53H237.313V47.86C237.313 46.66 237.753 45.68 239.133 45.68C240.113 45.68 240.453 46.44 240.453 47.34V53H243.453V47.26C243.453 44.9 242.653 43.04 240.013 43.04C238.573 43.04 237.633 43.54 236.933 44.78C236.413 43.6 235.293 43.04 233.933 43.04C232.473 43.04 231.493 43.84 231.093 44.6H231.053V43.28H228.173V53ZM252.676 49.78C252.176 50.46 251.516 50.96 250.536 50.96C249.376 50.96 248.516 50.22 248.276 49.08H255.236V48.14C255.236 45.04 253.476 43.04 250.676 43.04C247.676 43.04 245.276 45.04 245.276 48.14C245.276 51.24 247.676 53.24 250.676 53.24C252.236 53.24 253.816 52.54 254.776 51.32L252.676 49.78ZM248.276 47.04C248.356 46.1 249.076 45.2 250.396 45.2C251.476 45.2 252.256 46.04 252.236 47.04H248.276Z" fill="#333333"/>
<path d="M200.408 85H201.752V75.592H201.784L208.344 85H210.04V73.672H208.696V83.08H208.664L202.104 73.672H200.408V85ZM218.381 82.904C217.789 83.656 217.069 84.04 215.997 84.04C214.637 84.04 213.645 82.936 213.549 81.64H219.597V81.24C219.597 78.76 218.157 77.32 216.045 77.32C213.837 77.32 212.205 78.936 212.205 81.256C212.205 83.432 213.645 85.192 215.997 85.192C217.389 85.192 218.445 84.776 219.325 83.64L218.381 82.904ZM213.549 80.584C213.709 79.32 214.621 78.472 215.997 78.472C217.373 78.472 218.205 79.32 218.253 80.584H213.549ZM221.528 85H222.776V81.352C222.776 79.64 223.48 78.472 225.096 78.472C226.12 78.472 226.536 79.112 226.536 80.76V85H227.784V80.68C227.784 79.336 228.664 78.472 229.72 78.472C231.176 78.472 231.544 79.48 231.544 80.52V85H232.792V80.456C232.792 78.52 232.088 77.32 229.944 77.32C228.808 77.32 228.12 77.864 227.576 78.744C227.336 78.232 226.824 77.32 225.208 77.32C223.976 77.32 223.048 78.008 222.712 78.744H222.68C222.68 78.328 222.648 77.912 222.648 77.512H221.464C221.464 78.008 221.528 78.6 221.528 79.288V85ZM234.721 81.256C234.721 83.592 236.417 85.192 238.721 85.192C241.025 85.192 242.721 83.592 242.721 81.256C242.721 78.92 241.025 77.32 238.721 77.32C236.417 77.32 234.721 78.92 234.721 81.256ZM236.065 81.256C236.065 79.688 237.105 78.472 238.721 78.472C240.337 78.472 241.377 79.688 241.377 81.256C241.377 82.824 240.337 84.04 238.721 84.04C237.105 84.04 236.065 82.824 236.065 81.256ZM254.85 82.904C254.258 83.656 253.538 84.04 252.466 84.04C251.106 84.04 250.114 82.936 250.018 81.64H256.066V81.24C256.066 78.76 254.626 77.32 252.514 77.32C250.306 77.32 248.674 78.936 248.674 81.256C248.674 83.432 250.114 85.192 252.466 85.192C253.858 85.192 254.914 84.776 255.794 83.64L254.85 82.904ZM250.018 80.584C250.178 79.32 251.09 78.472 252.466 78.472C253.842 78.472 254.674 79.32 254.722 80.584H250.018ZM257.997 85H259.245V81.352C259.245 79.64 259.949 78.472 261.565 78.472C262.733 78.472 263.277 79.256 263.277 80.504V85H264.525V80.376C264.525 78.568 263.645 77.32 261.677 77.32C260.445 77.32 259.517 78.008 259.181 78.744H259.149C259.149 78.328 259.117 77.912 259.117 77.512H257.933C257.933 78.008 257.997 78.6 257.997 79.288V85ZM266.999 85H268.247V77.512H266.999V85ZM266.711 74.584C266.711 75.112 267.095 75.496 267.623 75.496C268.151 75.496 268.535 75.112 268.535 74.584C268.535 74.088 268.135 73.672 267.623 73.672C267.111 73.672 266.711 74.088 266.711 74.584ZM270.731 85H271.979V81.352C271.979 79.64 272.683 78.472 274.299 78.472C275.323 78.472 275.739 79.112 275.739 80.76V85H276.987V80.68C276.987 79.336 277.867 78.472 278.923 78.472C280.379 78.472 280.747 79.48 280.747 80.52V85H281.995V80.456C281.995 78.52 281.291 77.32 279.147 77.32C278.011 77.32 277.323 77.864 276.779 78.744C276.539 78.232 276.027 77.32 274.411 77.32C273.179 77.32 272.251 78.008 271.915 78.744H271.883C271.883 78.328 271.851 77.912 271.851 77.512H270.667C270.667 78.008 270.731 78.6 270.731 79.288V85ZM288.921 85H290.169V77.512H288.921V85ZM288.633 74.584C288.633 75.112 289.017 75.496 289.545 75.496C290.073 75.496 290.457 75.112 290.457 74.584C290.457 74.088 290.057 73.672 289.545 73.672C289.033 73.672 288.633 74.088 288.633 74.584ZM292.589 88.648H293.837V83.672H293.869C294.333 84.52 295.405 85.192 296.749 85.192C298.845 85.192 300.493 83.496 300.493 81.256C300.493 78.984 298.909 77.32 296.557 77.32C295.469 77.32 294.557 77.8 293.869 78.6H293.837V77.512H292.589V88.648ZM293.837 81.256C293.837 79.688 294.877 78.472 296.493 78.472C298.109 78.472 299.149 79.688 299.149 81.256C299.149 82.824 298.109 84.04 296.493 84.04C294.877 84.04 293.837 82.824 293.837 81.256ZM301.602 83.8C302.338 84.856 303.25 85.192 304.514 85.192C306.002 85.192 307.506 84.536 307.506 82.84C307.506 81.336 306.386 80.856 305.058 80.6C304.066 80.408 303.17 80.136 303.17 79.512C303.17 78.808 303.954 78.472 304.642 78.472C305.378 78.472 305.906 78.84 306.226 79.368L307.266 78.68C306.754 77.72 305.778 77.32 304.722 77.32C303.33 77.32 301.922 78.072 301.922 79.528C301.922 81.08 303.138 81.384 304.562 81.704C305.362 81.88 306.162 82.088 306.162 82.888C306.162 83.704 305.298 84.04 304.514 84.04C303.634 84.04 303.09 83.64 302.594 83.032L301.602 83.8ZM309.935 79.288C310.527 78.744 311.359 78.472 312.159 78.472C313.327 78.472 314.015 79.032 314.015 80.12V80.344H313.535C311.695 80.344 308.815 80.488 308.815 82.968C308.815 84.424 310.079 85.192 311.599 85.192C312.735 85.192 313.567 84.648 314.063 83.88H314.095C314.095 84.2 314.095 84.664 314.175 85H315.375C315.311 84.616 315.263 84.136 315.263 83.704V80.488C315.263 78.376 314.335 77.32 312.127 77.32C311.039 77.32 309.919 77.688 309.151 78.472L309.935 79.288ZM314.015 81.4V81.88C313.983 83.096 313.247 84.136 311.807 84.136C310.863 84.136 310.159 83.784 310.159 82.84C310.159 81.832 311.183 81.4 312.766 81.4H314.015ZM317.543 85H318.791V81.352C318.791 79.64 319.495 78.472 321.111 78.472C322.135 78.472 322.551 79.112 322.551 80.76V85H323.799V80.68C323.799 79.336 324.679 78.472 325.735 78.472C327.191 78.472 327.559 79.48 327.559 80.52V85H328.807V80.456C328.807 78.52 328.103 77.32 325.959 77.32C324.823 77.32 324.135 77.864 323.591 78.744C323.351 78.232 322.839 77.32 321.223 77.32C319.991 77.32 319.063 78.008 318.727 78.744H318.695C318.695 78.328 318.663 77.912 318.663 77.512H317.479C317.479 78.008 317.543 78.6 317.543 79.288V85ZM341.99 77.512H340.646L338.422 83.384H338.39L336.054 77.512H334.598L337.654 85H339.03L341.99 77.512ZM342.908 81.256C342.908 83.592 344.604 85.192 346.908 85.192C349.212 85.192 350.908 83.592 350.908 81.256C350.908 78.92 349.212 77.32 346.908 77.32C344.604 77.32 342.908 78.92 342.908 81.256ZM344.252 81.256C344.252 79.688 345.292 78.472 346.908 78.472C348.524 78.472 349.564 79.688 349.564 81.256C349.564 82.824 348.524 84.04 346.908 84.04C345.292 84.04 344.252 82.824 344.252 81.256ZM352.952 85H354.2V72.904H352.952V85ZM363.212 77.512H361.964V81.16C361.964 82.872 361.26 84.04 359.644 84.04C358.476 84.04 357.932 83.256 357.932 82.008V77.512H356.684V82.136C356.684 83.944 357.564 85.192 359.532 85.192C360.764 85.192 361.692 84.504 362.028 83.768H362.06C362.06 84.184 362.092 84.6 362.092 85H363.276C363.276 84.504 363.212 83.912 363.212 83.224V77.512ZM365.511 88.648H366.759V83.672H366.791C367.255 84.52 368.327 85.192 369.671 85.192C371.767 85.192 373.415 83.496 373.415 81.256C373.415 78.984 371.831 77.32 369.479 77.32C368.391 77.32 367.479 77.8 366.791 78.6H366.759V77.512H365.511V88.648ZM366.759 81.256C366.759 79.688 367.799 78.472 369.415 78.472C371.031 78.472 372.071 79.688 372.071 81.256C372.071 82.824 371.031 84.04 369.415 84.04C367.799 84.04 366.759 82.824 366.759 81.256ZM379.452 77.512H377.244V75.384H375.996V77.512H374.364V78.568H375.996V82.68C375.996 84.232 376.284 85.192 378.06 85.192C378.524 85.192 379.084 85.112 379.516 84.92L379.468 83.784C379.132 83.96 378.732 84.04 378.364 84.04C377.26 84.04 377.244 83.272 377.244 82.312V78.568H379.452V77.512ZM381.669 79.288C382.261 78.744 383.093 78.472 383.893 78.472C385.061 78.472 385.749 79.032 385.749 80.12V80.344H385.269C383.429 80.344 380.549 80.488 380.549 82.968C380.549 84.424 381.813 85.192 383.333 85.192C384.469 85.192 385.301 84.648 385.797 83.88H385.829C385.829 84.2 385.829 84.664 385.909 85H387.109C387.045 84.616 386.997 84.136 386.997 83.704V80.488C386.997 78.376 386.069 77.32 383.861 77.32C382.773 77.32 381.653 77.688 380.885 78.472L381.669 79.288ZM385.749 81.4V81.88C385.717 83.096 384.981 84.136 383.541 84.136C382.597 84.136 381.893 83.784 381.893 82.84C381.893 81.832 382.917 81.4 384.501 81.4H385.749ZM393.374 77.512H391.166V75.384H389.918V77.512H388.286V78.568H389.918V82.68C389.918 84.232 390.206 85.192 391.982 85.192C392.446 85.192 393.006 85.112 393.438 84.92L393.39 83.784C393.054 83.96 392.654 84.04 392.286 84.04C391.182 84.04 391.166 83.272 391.166 82.312V78.568H393.374V77.512ZM400.647 82.904C400.055 83.656 399.335 84.04 398.263 84.04C396.903 84.04 395.911 82.936 395.815 81.64H401.863V81.24C401.863 78.76 400.423 77.32 398.311 77.32C396.103 77.32 394.471 78.936 394.471 81.256C394.471 83.432 395.911 85.192 398.263 85.192C399.655 85.192 400.711 84.776 401.591 83.64L400.647 82.904ZM395.815 80.584C395.975 79.32 396.887 78.472 398.263 78.472C399.639 78.472 400.471 79.32 400.519 80.584H395.815ZM403.793 85H405.041V81.352C405.041 79.64 405.745 78.472 407.361 78.472C408.385 78.472 408.801 79.112 408.801 80.76V85H410.049V80.68C410.049 79.336 410.929 78.472 411.985 78.472C413.441 78.472 413.809 79.48 413.809 80.52V85H415.057V80.456C415.057 78.52 414.353 77.32 412.209 77.32C411.073 77.32 410.385 77.864 409.841 78.744C409.601 78.232 409.089 77.32 407.473 77.32C406.241 77.32 405.313 78.008 404.977 78.744H404.945C404.945 78.328 404.913 77.912 404.913 77.512H403.729C403.729 78.008 403.793 78.6 403.793 79.288V85ZM429.344 77.512H428.096V78.84H428.064C427.6 77.992 426.528 77.32 425.184 77.32C423.088 77.32 421.44 79.016 421.44 81.256C421.44 83.528 423.024 85.192 425.376 85.192C426.464 85.192 427.376 84.712 428.064 83.912H428.096V88.648H429.344V77.512ZM428.096 81.256C428.096 82.824 427.056 84.04 425.44 84.04C423.824 84.04 422.784 82.824 422.784 81.256C422.784 79.688 423.824 78.472 425.44 78.472C427.056 78.472 428.096 79.688 428.096 81.256ZM438.181 77.512H436.933V81.16C436.933 82.872 436.229 84.04 434.613 84.04C433.445 84.04 432.901 83.256 432.901 82.008V77.512H431.653V82.136C431.653 83.944 432.533 85.192 434.501 85.192C435.733 85.192 436.661 84.504 436.997 83.768H437.029C437.029 84.184 437.061 84.6 437.061 85H438.245C438.245 84.504 438.181 83.912 438.181 83.224V77.512ZM440.655 85H441.903V77.512H440.655V85ZM440.367 74.584C440.367 75.112 440.751 75.496 441.279 75.496C441.807 75.496 442.191 75.112 442.191 74.584C442.191 74.088 441.791 73.672 441.279 73.672C440.767 73.672 440.367 74.088 440.367 74.584ZM445.075 79.288C445.667 78.744 446.499 78.472 447.299 78.472C448.467 78.472 449.155 79.032 449.155 80.12V80.344H448.675C446.835 80.344 443.955 80.488 443.955 82.968C443.955 84.424 445.219 85.192 446.739 85.192C447.875 85.192 448.707 84.648 449.203 83.88H449.235C449.235 84.2 449.235 84.664 449.315 85H450.515C450.451 84.616 450.403 84.136 450.403 83.704V80.488C450.403 78.376 449.475 77.32 447.267 77.32C446.179 77.32 445.059 77.688 444.291 78.472L445.075 79.288ZM449.155 81.4V81.88C449.123 83.096 448.387 84.136 446.947 84.136C446.003 84.136 445.299 83.784 445.299 82.84C445.299 81.832 446.323 81.4 447.907 81.4H449.155ZM463.505 77.512H462.161L459.937 83.384H459.905L457.569 77.512H456.113L459.169 85H460.545L463.505 77.512ZM464.424 81.256C464.424 83.592 466.12 85.192 468.424 85.192C470.728 85.192 472.424 83.592 472.424 81.256C472.424 78.92 470.728 77.32 468.424 77.32C466.12 77.32 464.424 78.92 464.424 81.256ZM465.768 81.256C465.768 79.688 466.808 78.472 468.424 78.472C470.04 78.472 471.08 79.688 471.08 81.256C471.08 82.824 470.04 84.04 468.424 84.04C466.808 84.04 465.768 82.824 465.768 81.256ZM474.468 85H475.716V72.904H474.468V85ZM484.728 77.512H483.48V81.16C483.48 82.872 482.776 84.04 481.16 84.04C479.992 84.04 479.448 83.256 479.448 82.008V77.512H478.2V82.136C478.2 83.944 479.08 85.192 481.048 85.192C482.28 85.192 483.208 84.504 483.544 83.768H483.576C483.576 84.184 483.608 84.6 483.608 85H484.792C484.792 84.504 484.728 83.912 484.728 83.224V77.512ZM487.026 88.648H488.274V83.672H488.306C488.77 84.52 489.842 85.192 491.186 85.192C493.282 85.192 494.93 83.496 494.93 81.256C494.93 78.984 493.346 77.32 490.994 77.32C489.906 77.32 488.994 77.8 488.306 78.6H488.274V77.512H487.026V88.648ZM488.274 81.256C488.274 79.688 489.314 78.472 490.93 78.472C492.546 78.472 493.586 79.688 493.586 81.256C493.586 82.824 492.546 84.04 490.93 84.04C489.314 84.04 488.274 82.824 488.274 81.256ZM500.968 77.512H498.76V75.384H497.512V77.512H495.88V78.568H497.512V82.68C497.512 84.232 497.799 85.192 499.576 85.192C500.04 85.192 500.6 85.112 501.032 84.92L500.984 83.784C500.648 83.96 500.248 84.04 499.88 84.04C498.776 84.04 498.76 83.272 498.76 82.312V78.568H500.968V77.512ZM503.185 79.288C503.777 78.744 504.609 78.472 505.409 78.472C506.577 78.472 507.265 79.032 507.265 80.12V80.344H506.785C504.945 80.344 502.065 80.488 502.065 82.968C502.065 84.424 503.329 85.192 504.849 85.192C505.985 85.192 506.817 84.648 507.313 83.88H507.345C507.345 84.2 507.345 84.664 507.425 85H508.625C508.561 84.616 508.513 84.136 508.513 83.704V80.488C508.513 78.376 507.585 77.32 505.377 77.32C504.289 77.32 503.169 77.688 502.401 78.472L503.185 79.288ZM507.265 81.4V81.88C507.233 83.096 506.497 84.136 505.057 84.136C504.113 84.136 503.409 83.784 503.409 82.84C503.409 81.832 504.433 81.4 506.016 81.4H507.265ZM509.961 83.8C510.697 84.856 511.609 85.192 512.873 85.192C514.361 85.192 515.865 84.536 515.865 82.84C515.865 81.336 514.745 80.856 513.417 80.6C512.425 80.408 511.529 80.136 511.529 79.512C511.529 78.808 512.313 78.472 513.001 78.472C513.737 78.472 514.265 78.84 514.585 79.368L515.625 78.68C515.113 77.72 514.137 77.32 513.081 77.32C511.689 77.32 510.281 78.072 510.281 79.528C510.281 81.08 511.497 81.384 512.921 81.704C513.721 81.88 514.521 82.088 514.521 82.888C514.521 83.704 513.657 84.04 512.873 84.04C511.993 84.04 511.449 83.64 510.953 83.032L509.961 83.8ZM521.227 83.8C521.963 84.856 522.875 85.192 524.139 85.192C525.627 85.192 527.131 84.536 527.131 82.84C527.131 81.336 526.011 80.856 524.683 80.6C523.691 80.408 522.795 80.136 522.795 79.512C522.795 78.808 523.579 78.472 524.267 78.472C525.003 78.472 525.531 78.84 525.851 79.368L526.891 78.68C526.379 77.72 525.403 77.32 524.347 77.32C522.955 77.32 521.547 78.072 521.547 79.528C521.547 81.08 522.763 81.384 524.187 81.704C524.987 81.88 525.787 82.088 525.787 82.888C525.787 83.704 524.923 84.04 524.139 84.04C523.259 84.04 522.715 83.64 522.219 83.032L521.227 83.8ZM528.984 85H530.232V77.512H528.984V85ZM528.696 74.584C528.696 75.112 529.08 75.496 529.608 75.496C530.136 75.496 530.52 75.112 530.52 74.584C530.52 74.088 530.12 73.672 529.608 73.672C529.096 73.672 528.696 74.088 528.696 74.584ZM536.811 77.512H534.603V75.384H533.355V77.512H531.723V78.568H533.355V82.68C533.355 84.232 533.643 85.192 535.419 85.192C535.883 85.192 536.443 85.112 536.875 84.92L536.827 83.784C536.491 83.96 536.091 84.04 535.723 84.04C534.619 84.04 534.603 83.272 534.603 82.312V78.568H536.811V77.512ZM200.872 103.288C201.464 102.744 202.296 102.472 203.096 102.472C204.264 102.472 204.952 103.032 204.952 104.12V104.344H204.472C202.632 104.344 199.752 104.488 199.752 106.968C199.752 108.424 201.016 109.192 202.536 109.192C203.672 109.192 204.504 108.648 205 107.88H205.032C205.032 108.2 205.032 108.664 205.112 109H206.312C206.248 108.616 206.2 108.136 206.2 107.704V104.488C206.2 102.376 205.272 101.32 203.064 101.32C201.976 101.32 200.856 101.688 200.088 102.472L200.872 103.288ZM204.952 105.4V105.88C204.92 107.096 204.184 108.136 202.744 108.136C201.8 108.136 201.096 107.784 201.096 106.84C201.096 105.832 202.12 105.4 203.704 105.4H204.952ZM207.649 107.8C208.385 108.856 209.297 109.192 210.561 109.192C212.049 109.192 213.553 108.536 213.553 106.84C213.553 105.336 212.433 104.856 211.105 104.6C210.113 104.408 209.217 104.136 209.217 103.512C209.217 102.808 210.001 102.472 210.689 102.472C211.425 102.472 211.953 102.84 212.273 103.368L213.313 102.68C212.801 101.72 211.825 101.32 210.769 101.32C209.377 101.32 207.969 102.072 207.969 103.528C207.969 105.08 209.185 105.384 210.609 105.704C211.409 105.88 212.209 106.088 212.209 106.888C212.209 107.704 211.345 108.04 210.561 108.04C209.681 108.04 209.137 107.64 208.641 107.032L207.649 107.8ZM215.229 112.648H216.477V107.672H216.509C216.973 108.52 218.045 109.192 219.389 109.192C221.485 109.192 223.133 107.496 223.133 105.256C223.133 102.984 221.549 101.32 219.197 101.32C218.109 101.32 217.197 101.8 216.509 102.6H216.477V101.512H215.229V112.648ZM216.477 105.256C216.477 103.688 217.517 102.472 219.133 102.472C220.749 102.472 221.789 103.688 221.789 105.256C221.789 106.824 220.749 108.04 219.133 108.04C217.517 108.04 216.477 106.824 216.477 105.256ZM230.819 106.904C230.227 107.656 229.507 108.04 228.435 108.04C227.075 108.04 226.083 106.936 225.987 105.64H232.035V105.24C232.035 102.76 230.595 101.32 228.483 101.32C226.275 101.32 224.643 102.936 224.643 105.256C224.643 107.432 226.083 109.192 228.435 109.192C229.827 109.192 230.883 108.776 231.763 107.64L230.819 106.904ZM225.987 104.584C226.147 103.32 227.059 102.472 228.435 102.472C229.811 102.472 230.643 103.32 230.691 104.584H225.987ZM233.965 109H235.213V105.352C235.213 103.64 235.885 102.568 237.405 102.568C237.629 102.568 237.869 102.6 238.077 102.664L238.157 101.4C237.981 101.336 237.805 101.32 237.645 101.32C236.413 101.32 235.485 102.008 235.149 102.744H235.117C235.117 102.328 235.085 101.912 235.085 101.512H233.901C233.901 102.008 233.965 102.6 233.965 103.288V109ZM239.59 109H240.838V105.352C240.838 103.64 241.542 102.472 243.158 102.472C244.326 102.472 244.87 103.256 244.87 104.504V109H246.118V104.376C246.118 102.568 245.238 101.32 243.27 101.32C242.038 101.32 241.11 102.008 240.774 102.744H240.742C240.742 102.328 240.71 101.912 240.71 101.512H239.526C239.526 102.008 239.59 102.6 239.59 103.288V109ZM249.169 103.288C249.761 102.744 250.593 102.472 251.393 102.472C252.561 102.472 253.249 103.032 253.249 104.12V104.344H252.769C250.929 104.344 248.049 104.488 248.049 106.968C248.049 108.424 249.313 109.192 250.833 109.192C251.969 109.192 252.801 108.648 253.297 107.88H253.329C253.329 108.2 253.329 108.664 253.409 109H254.609C254.545 108.616 254.497 108.136 254.497 107.704V104.488C254.497 102.376 253.569 101.32 251.361 101.32C250.273 101.32 249.153 101.688 248.385 102.472L249.169 103.288ZM253.249 105.4V105.88C253.217 107.096 252.481 108.136 251.041 108.136C250.097 108.136 249.393 107.784 249.393 106.84C249.393 105.832 250.417 105.4 252.001 105.4H253.249ZM260.874 101.512H258.666V99.384H257.418V101.512H255.786V102.568H257.418V106.68C257.418 108.232 257.706 109.192 259.482 109.192C259.946 109.192 260.506 109.112 260.938 108.92L260.89 107.784C260.554 107.96 260.154 108.04 259.786 108.04C258.682 108.04 258.666 107.272 258.666 106.312V102.568H260.874V101.512ZM268.931 101.512H267.683V105.16C267.683 106.872 266.979 108.04 265.363 108.04C264.195 108.04 263.651 107.256 263.651 106.008V101.512H262.403V106.136C262.403 107.944 263.283 109.192 265.251 109.192C266.483 109.192 267.411 108.504 267.747 107.768H267.779C267.779 108.184 267.811 108.6 267.811 109H268.995C268.995 108.504 268.931 107.912 268.931 107.224V101.512ZM271.293 109H272.541V105.352C272.541 103.64 273.213 102.568 274.733 102.568C274.957 102.568 275.197 102.6 275.405 102.664L275.485 101.4C275.309 101.336 275.133 101.32 274.973 101.32C273.741 101.32 272.813 102.008 272.477 102.744H272.445C272.445 102.328 272.413 101.912 272.413 101.512H271.229C271.229 102.008 271.293 102.6 271.293 103.288V109ZM282.06 103.288C282.652 102.744 283.484 102.472 284.284 102.472C285.452 102.472 286.14 103.032 286.14 104.12V104.344H285.66C283.82 104.344 280.94 104.488 280.94 106.968C280.94 108.424 282.204 109.192 283.724 109.192C284.86 109.192 285.692 108.648 286.188 107.88H286.22C286.22 108.2 286.22 108.664 286.3 109H287.5C287.436 108.616 287.388 108.136 287.388 107.704V104.488C287.388 102.376 286.46 101.32 284.252 101.32C283.164 101.32 282.044 101.688 281.276 102.472L282.06 103.288ZM286.14 105.4V105.88C286.108 107.096 285.372 108.136 283.932 108.136C282.988 108.136 282.284 107.784 282.284 106.84C282.284 105.832 283.308 105.4 284.891 105.4H286.14ZM296.196 101.512H294.948V105.16C294.948 106.872 294.244 108.04 292.628 108.04C291.46 108.04 290.916 107.256 290.916 106.008V101.512H289.668V106.136C289.668 107.944 290.548 109.192 292.516 109.192C293.748 109.192 294.676 108.504 295.012 107.768H295.044C295.044 108.184 295.076 108.6 295.076 109H296.26C296.26 108.504 296.196 107.912 296.196 107.224V101.512ZM302.655 101.512H300.447V99.384H299.199V101.512H297.567V102.568H299.199V106.68C299.199 108.232 299.487 109.192 301.263 109.192C301.727 109.192 302.287 109.112 302.719 108.92L302.671 107.784C302.335 107.96 301.935 108.04 301.567 108.04C300.463 108.04 300.447 107.272 300.447 106.312V102.568H302.655V101.512ZM308.205 105.256C308.205 107.592 309.901 109.192 312.205 109.192C314.509 109.192 316.205 107.592 316.205 105.256C316.205 102.92 314.509 101.32 312.205 101.32C309.901 101.32 308.205 102.92 308.205 105.256ZM309.549 105.256C309.549 103.688 310.589 102.472 312.205 102.472C313.821 102.472 314.861 103.688 314.861 105.256C314.861 106.824 313.821 108.04 312.205 108.04C310.589 108.04 309.549 106.824 309.549 105.256ZM324.361 109H325.609V96.904H324.361V102.6H324.329C323.641 101.8 322.729 101.32 321.641 101.32C319.289 101.32 317.705 102.984 317.705 105.256C317.705 107.496 319.353 109.192 321.449 109.192C322.793 109.192 323.865 108.52 324.329 107.672H324.361V109ZM324.361 105.256C324.361 106.824 323.321 108.04 321.705 108.04C320.089 108.04 319.049 106.824 319.049 105.256C319.049 103.688 320.089 102.472 321.705 102.472C323.321 102.472 324.361 103.688 324.361 105.256ZM328.03 109H329.278V101.512H328.03V109ZM327.742 98.584C327.742 99.112 328.126 99.496 328.654 99.496C329.182 99.496 329.566 99.112 329.566 98.584C329.566 98.088 329.166 97.672 328.654 97.672C328.142 97.672 327.742 98.088 327.742 98.584ZM335.858 101.512H333.65V99.384H332.402V101.512H330.77V102.568H332.402V106.68C332.402 108.232 332.69 109.192 334.466 109.192C334.93 109.192 335.49 109.112 335.922 108.92L335.874 107.784C335.538 107.96 335.138 108.04 334.77 108.04C333.666 108.04 333.65 107.272 333.65 106.312V102.568H335.858V101.512ZM342.528 103.288C343.12 102.744 343.952 102.472 344.752 102.472C345.92 102.472 346.608 103.032 346.608 104.12V104.344H346.128C344.288 104.344 341.408 104.488 341.408 106.968C341.408 108.424 342.672 109.192 344.192 109.192C345.328 109.192 346.16 108.648 346.656 107.88H346.688C346.688 108.2 346.688 108.664 346.768 109H347.968C347.904 108.616 347.856 108.136 347.856 107.704V104.488C347.856 102.376 346.928 101.32 344.72 101.32C343.632 101.32 342.512 101.688 341.744 102.472L342.528 103.288ZM346.608 105.4V105.88C346.576 107.096 345.84 108.136 344.4 108.136C343.456 108.136 342.752 107.784 342.752 106.84C342.752 105.832 343.776 105.4 345.36 105.4H346.608ZM356.665 101.512H355.417V105.16C355.417 106.872 354.713 108.04 353.097 108.04C351.929 108.04 351.385 107.256 351.385 106.008V101.512H350.137V106.136C350.137 107.944 351.017 109.192 352.985 109.192C354.217 109.192 355.145 108.504 355.481 107.768H355.513C355.513 108.184 355.545 108.6 355.545 109H356.729C356.729 108.504 356.665 107.912 356.665 107.224V101.512ZM363.124 101.512H360.916V99.384H359.668V101.512H358.036V102.568H359.668V106.68C359.668 108.232 359.956 109.192 361.732 109.192C362.196 109.192 362.756 109.112 363.188 108.92L363.14 107.784C362.804 107.96 362.404 108.04 362.036 108.04C360.932 108.04 360.916 107.272 360.916 106.312V102.568H363.124V101.512ZM369.746 109H370.994V102.568H372.818V101.512H370.994V100.104C370.994 98.808 371.042 97.864 372.338 97.864C372.626 97.864 372.914 97.928 373.186 98.024L373.362 96.904C373.122 96.776 372.722 96.712 372.402 96.712C370.386 96.712 369.746 98.008 369.746 99.832V101.512H368.114V102.568H369.746V109ZM380.681 101.512H379.433V105.16C379.433 106.872 378.729 108.04 377.113 108.04C375.945 108.04 375.401 107.256 375.401 106.008V101.512H374.153V106.136C374.153 107.944 375.033 109.192 377.001 109.192C378.233 109.192 379.161 108.504 379.497 107.768H379.529C379.529 108.184 379.561 108.6 379.561 109H380.745C380.745 108.504 380.681 107.912 380.681 107.224V101.512ZM390.515 101.512H389.267V102.792H389.235C388.739 101.8 387.603 101.32 386.595 101.32C384.211 101.32 382.611 102.808 382.611 105.256C382.611 107.464 384.243 109.096 386.595 109.096C387.587 109.096 388.643 108.664 389.235 107.704H389.267V108.664C389.267 110.248 388.675 111.688 386.435 111.688C385.283 111.688 384.435 111.24 383.651 110.392L382.755 111.416C383.811 112.456 384.979 112.84 386.435 112.84C389.059 112.84 390.515 111.368 390.515 108.664V101.512ZM383.955 105.256C383.955 103.688 385.027 102.472 386.595 102.472C388.179 102.472 389.267 103.608 389.267 105.224C389.267 106.664 388.307 107.944 386.595 107.944C385.139 107.944 383.955 106.776 383.955 105.256ZM392.937 109H394.185V101.512H392.937V109ZM392.649 98.584C392.649 99.112 393.033 99.496 393.561 99.496C394.089 99.496 394.473 99.112 394.473 98.584C394.473 98.088 394.073 97.672 393.561 97.672C393.049 97.672 392.649 98.088 392.649 98.584ZM400.764 101.512H398.556V99.384H397.308V101.512H395.676V102.568H397.308V106.68C397.308 108.232 397.596 109.192 399.372 109.192C399.836 109.192 400.396 109.112 400.828 108.92L400.78 107.784C400.444 107.96 400.044 108.04 399.676 108.04C398.572 108.04 398.556 107.272 398.556 106.312V102.568H400.764V101.512ZM404.485 107.368H403.029L401.941 111.208H403.173L404.485 107.368ZM410.368 107.8C411.104 108.856 412.016 109.192 413.28 109.192C414.768 109.192 416.272 108.536 416.272 106.84C416.272 105.336 415.152 104.856 413.824 104.6C412.832 104.408 411.936 104.136 411.936 103.512C411.936 102.808 412.72 102.472 413.408 102.472C414.144 102.472 414.672 102.84 414.992 103.368L416.032 102.68C415.52 101.72 414.544 101.32 413.488 101.32C412.096 101.32 410.688 102.072 410.688 103.528C410.688 105.08 411.904 105.384 413.328 105.704C414.128 105.88 414.928 106.088 414.928 106.888C414.928 107.704 414.064 108.04 413.28 108.04C412.4 108.04 411.856 107.64 411.36 107.032L410.368 107.8ZM423.756 106.904C423.164 107.656 422.444 108.04 421.372 108.04C420.012 108.04 419.02 106.936 418.924 105.64H424.972V105.24C424.972 102.76 423.532 101.32 421.42 101.32C419.212 101.32 417.58 102.936 417.58 105.256C417.58 107.432 419.02 109.192 421.372 109.192C422.764 109.192 423.82 108.776 424.7 107.64L423.756 106.904ZM418.924 104.584C419.084 103.32 419.996 102.472 421.372 102.472C422.748 102.472 423.58 103.32 423.628 104.584H418.924ZM433.127 109H434.375V96.904H433.127V102.6H433.095C432.407 101.8 431.495 101.32 430.407 101.32C428.055 101.32 426.471 102.984 426.471 105.256C426.471 107.496 428.119 109.192 430.215 109.192C431.559 109.192 432.631 108.52 433.095 107.672H433.127V109ZM433.127 105.256C433.127 106.824 432.087 108.04 430.471 108.04C428.855 108.04 427.815 106.824 427.815 105.256C427.815 103.688 428.855 102.472 430.471 102.472C432.087 102.472 433.127 103.688 433.127 105.256ZM448.609 101.512H447.361V102.84H447.329C446.865 101.992 445.793 101.32 444.449 101.32C442.353 101.32 440.705 103.016 440.705 105.256C440.705 107.528 442.289 109.192 444.641 109.192C445.729 109.192 446.641 108.712 447.329 107.912H447.361V112.648H448.609V101.512ZM447.361 105.256C447.361 106.824 446.321 108.04 444.705 108.04C443.089 108.04 442.049 106.824 442.049 105.256C442.049 103.688 443.089 102.472 444.705 102.472C446.321 102.472 447.361 103.688 447.361 105.256ZM457.446 101.512H456.198V105.16C456.198 106.872 455.494 108.04 453.878 108.04C452.71 108.04 452.166 107.256 452.166 106.008V101.512H450.918V106.136C450.918 107.944 451.798 109.192 453.766 109.192C454.998 109.192 455.926 108.504 456.262 107.768H456.294C456.294 108.184 456.326 108.6 456.326 109H457.51C457.51 108.504 457.446 107.912 457.446 107.224V101.512ZM459.921 109H461.169V101.512H459.921V109ZM459.633 98.584C459.633 99.112 460.017 99.496 460.545 99.496C461.073 99.496 461.457 99.112 461.457 98.584C461.457 98.088 461.057 97.672 460.545 97.672C460.033 97.672 459.633 98.088 459.633 98.584ZM464.341 103.288C464.933 102.744 465.765 102.472 466.565 102.472C467.733 102.472 468.421 103.032 468.421 104.12V104.344H467.941C466.101 104.344 463.221 104.488 463.221 106.968C463.221 108.424 464.485 109.192 466.005 109.192C467.141 109.192 467.973 108.648 468.469 107.88H468.501C468.501 108.2 468.501 108.664 468.581 109H469.781C469.717 108.616 469.669 108.136 469.669 107.704V104.488C469.669 102.376 468.741 101.32 466.533 101.32C465.445 101.32 464.325 101.688 463.557 102.472L464.341 103.288ZM468.421 105.4V105.88C468.389 107.096 467.653 108.136 466.213 108.136C465.269 108.136 464.565 107.784 464.565 106.84C464.565 105.832 465.589 105.4 467.173 105.4H468.421ZM482.723 102.504C481.971 101.688 480.947 101.32 479.843 101.32C477.539 101.32 475.971 102.984 475.971 105.256C475.971 107.56 477.523 109.192 479.843 109.192C480.931 109.192 481.955 108.824 482.675 107.992L481.747 107.112C481.283 107.752 480.659 108.04 479.843 108.04C478.323 108.04 477.315 106.792 477.315 105.256C477.315 103.72 478.163 102.472 479.843 102.472C480.595 102.472 481.203 102.744 481.731 103.384L482.723 102.504ZM483.69 105.256C483.69 107.592 485.386 109.192 487.69 109.192C489.994 109.192 491.69 107.592 491.69 105.256C491.69 102.92 489.994 101.32 487.69 101.32C485.386 101.32 483.69 102.92 483.69 105.256ZM485.034 105.256C485.034 103.688 486.074 102.472 487.69 102.472C489.306 102.472 490.346 103.688 490.346 105.256C490.346 106.824 489.306 108.04 487.69 108.04C486.074 108.04 485.034 106.824 485.034 105.256ZM493.622 109H494.87V105.352C494.87 103.64 495.574 102.472 497.19 102.472C498.358 102.472 498.902 103.256 498.902 104.504V109H500.15V104.376C500.15 102.568 499.27 101.32 497.302 101.32C496.07 101.32 495.142 102.008 494.806 102.744H494.774C494.774 102.328 494.742 101.912 494.742 101.512H493.558C493.558 102.008 493.622 102.6 493.622 103.288V109ZM501.68 107.8C502.416 108.856 503.328 109.192 504.592 109.192C506.08 109.192 507.584 108.536 507.584 106.84C507.584 105.336 506.464 104.856 505.136 104.6C504.144 104.408 503.248 104.136 503.248 103.512C503.248 102.808 504.032 102.472 504.72 102.472C505.456 102.472 505.984 102.84 506.304 103.368L507.344 102.68C506.832 101.72 505.856 101.32 504.8 101.32C503.408 101.32 502 102.072 502 103.528C502 105.08 503.216 105.384 504.64 105.704C505.44 105.88 506.24 106.088 506.24 106.888C506.24 107.704 505.376 108.04 504.592 108.04C503.712 108.04 503.168 107.64 502.672 107.032L501.68 107.8ZM515.069 106.904C514.477 107.656 513.757 108.04 512.685 108.04C511.325 108.04 510.333 106.936 510.237 105.64H516.285V105.24C516.285 102.76 514.845 101.32 512.733 101.32C510.525 101.32 508.893 102.936 508.893 105.256C508.893 107.432 510.333 109.192 512.685 109.192C514.077 109.192 515.133 108.776 516.013 107.64L515.069 106.904ZM510.237 104.584C510.397 103.32 511.309 102.472 512.685 102.472C514.061 102.472 514.893 103.32 514.941 104.584H510.237ZM525.687 101.512H524.439V102.84H524.407C523.943 101.992 522.871 101.32 521.527 101.32C519.431 101.32 517.783 103.016 517.783 105.256C517.783 107.528 519.367 109.192 521.719 109.192C522.807 109.192 523.719 108.712 524.407 107.912H524.439V112.648H525.687V101.512ZM524.439 105.256C524.439 106.824 523.399 108.04 521.783 108.04C520.167 108.04 519.127 106.824 519.127 105.256C519.127 103.688 520.167 102.472 521.783 102.472C523.399 102.472 524.439 103.688 524.439 105.256ZM534.525 101.512H533.277V105.16C533.277 106.872 532.573 108.04 530.957 108.04C529.789 108.04 529.245 107.256 529.245 106.008V101.512H527.997V106.136C527.997 107.944 528.877 109.192 530.845 109.192C532.077 109.192 533.005 108.504 533.341 107.768H533.373C533.373 108.184 533.405 108.6 533.405 109H534.589C534.589 108.504 534.525 107.912 534.525 107.224V101.512ZM543.415 101.512H542.167V105.16C542.167 106.872 541.463 108.04 539.847 108.04C538.679 108.04 538.135 107.256 538.135 106.008V101.512H536.887V106.136C536.887 107.944 537.767 109.192 539.735 109.192C540.967 109.192 541.895 108.504 542.231 107.768H542.263C542.263 108.184 542.295 108.6 542.295 109H543.479C543.479 108.504 543.415 107.912 543.415 107.224V101.512ZM545.778 109H547.026V105.352C547.026 103.64 547.73 102.472 549.346 102.472C550.514 102.472 551.058 103.256 551.058 104.504V109H552.306V104.376C552.306 102.568 551.426 101.32 549.458 101.32C548.226 101.32 547.298 102.008 546.962 102.744H546.93C546.93 102.328 546.898 101.912 546.898 101.512H545.714C545.714 102.008 545.778 102.6 545.778 103.288V109ZM558.764 101.512H556.556V99.384H555.308V101.512H553.676V102.568H555.308V106.68C555.308 108.232 555.596 109.192 557.372 109.192C557.836 109.192 558.396 109.112 558.828 108.92L558.78 107.784C558.444 107.96 558.044 108.04 557.676 108.04C556.572 108.04 556.556 107.272 556.556 106.312V102.568H558.764V101.512ZM566.821 101.512H565.573V105.16C565.573 106.872 564.869 108.04 563.253 108.04C562.085 108.04 561.541 107.256 561.541 106.008V101.512H560.293V106.136C560.293 107.944 561.173 109.192 563.141 109.192C564.373 109.192 565.301 108.504 565.637 107.768H565.669C565.669 108.184 565.701 108.6 565.701 109H566.885C566.885 108.504 566.821 107.912 566.821 107.224V101.512ZM569.184 109H570.432V105.352C570.432 103.64 571.104 102.568 572.624 102.568C572.848 102.568 573.088 102.6 573.296 102.664L573.376 101.4C573.2 101.336 573.024 101.32 572.864 101.32C571.632 101.32 570.704 102.008 570.368 102.744H570.336C570.336 102.328 570.304 101.912 570.304 101.512H569.12C569.12 102.008 569.184 102.6 569.184 103.288V109ZM200.184 133H201.432V129.352C201.432 127.64 202.136 126.472 203.752 126.472C204.776 126.472 205.192 127.112 205.192 128.76V133H206.44V128.68C206.44 127.336 207.32 126.472 208.376 126.472C209.832 126.472 210.2 127.48 210.2 128.52V133H211.448V128.456C211.448 126.52 210.744 125.32 208.6 125.32C207.464 125.32 206.776 125.864 206.232 126.744C205.992 126.232 205.48 125.32 203.864 125.32C202.632 125.32 201.704 126.008 201.368 126.744H201.336C201.336 126.328 201.304 125.912 201.304 125.512H200.12C200.12 126.008 200.184 126.6 200.184 127.288V133ZM214.497 127.288C215.089 126.744 215.921 126.472 216.721 126.472C217.889 126.472 218.577 127.032 218.577 128.12V128.344H218.097C216.257 128.344 213.377 128.488 213.377 130.968C213.377 132.424 214.641 133.192 216.161 133.192C217.297 133.192 218.129 132.648 218.625 131.88H218.657C218.657 132.2 218.657 132.664 218.737 133H219.937C219.873 132.616 219.825 132.136 219.825 131.704V128.488C219.825 126.376 218.897 125.32 216.689 125.32C215.601 125.32 214.481 125.688 213.713 126.472L214.497 127.288ZM218.577 129.4V129.88C218.545 131.096 217.809 132.136 216.369 132.136C215.425 132.136 214.721 131.784 214.721 130.84C214.721 129.832 215.745 129.4 217.329 129.4H218.577ZM229.578 125.512H228.33V126.792H228.298C227.802 125.8 226.666 125.32 225.658 125.32C223.274 125.32 221.674 126.808 221.674 129.256C221.674 131.464 223.306 133.096 225.658 133.096C226.65 133.096 227.706 132.664 228.298 131.704H228.33V132.664C228.33 134.248 227.738 135.688 225.498 135.688C224.346 135.688 223.498 135.24 222.714 134.392L221.818 135.416C222.874 136.456 224.042 136.84 225.498 136.84C228.122 136.84 229.578 135.368 229.578 132.664V125.512ZM223.018 129.256C223.018 127.688 224.09 126.472 225.658 126.472C227.242 126.472 228.33 127.608 228.33 129.224C228.33 130.664 227.37 131.944 225.658 131.944C224.202 131.944 223.018 130.776 223.018 129.256ZM231.887 133H233.135V129.352C233.135 127.64 233.839 126.472 235.455 126.472C236.623 126.472 237.167 127.256 237.167 128.504V133H238.415V128.376C238.415 126.568 237.535 125.32 235.567 125.32C234.335 125.32 233.407 126.008 233.071 126.744H233.039C233.039 126.328 233.007 125.912 233.007 125.512H231.823C231.823 126.008 231.887 126.6 231.887 127.288V133ZM240.89 133H242.138V125.512H240.89V133ZM240.602 122.584C240.602 123.112 240.986 123.496 241.514 123.496C242.042 123.496 242.426 123.112 242.426 122.584C242.426 122.088 242.026 121.672 241.514 121.672C241.002 121.672 240.602 122.088 240.602 122.584ZM255.299 133H256.547V120.904H255.299V126.6H255.267C254.579 125.8 253.667 125.32 252.579 125.32C250.227 125.32 248.643 126.984 248.643 129.256C248.643 131.496 250.291 133.192 252.387 133.192C253.731 133.192 254.803 132.52 255.267 131.672H255.299V133ZM255.299 129.256C255.299 130.824 254.259 132.04 252.643 132.04C251.027 132.04 249.987 130.824 249.987 129.256C249.987 127.688 251.027 126.472 252.643 126.472C254.259 126.472 255.299 127.688 255.299 129.256ZM258.424 129.256C258.424 131.592 260.12 133.192 262.424 133.192C264.728 133.192 266.424 131.592 266.424 129.256C266.424 126.92 264.728 125.32 262.424 125.32C260.12 125.32 258.424 126.92 258.424 129.256ZM259.768 129.256C259.768 127.688 260.808 126.472 262.424 126.472C264.04 126.472 265.08 127.688 265.08 129.256C265.08 130.824 264.04 132.04 262.424 132.04C260.808 132.04 259.768 130.824 259.768 129.256ZM268.468 133H269.716V120.904H268.468V133ZM271.768 129.256C271.768 131.592 273.464 133.192 275.768 133.192C278.072 133.192 279.768 131.592 279.768 129.256C279.768 126.92 278.072 125.32 275.768 125.32C273.464 125.32 271.768 126.92 271.768 129.256ZM273.112 129.256C273.112 127.688 274.152 126.472 275.768 126.472C277.384 126.472 278.424 127.688 278.424 129.256C278.424 130.824 277.384 132.04 275.768 132.04C274.152 132.04 273.112 130.824 273.112 129.256ZM281.7 133H282.948V129.352C282.948 127.64 283.62 126.568 285.14 126.568C285.364 126.568 285.604 126.6 285.812 126.664L285.892 125.4C285.716 125.336 285.54 125.32 285.38 125.32C284.148 125.32 283.22 126.008 282.884 126.744H282.852C282.852 126.328 282.82 125.912 282.82 125.512H281.636C281.636 126.008 281.7 126.6 281.7 127.288V133ZM292.787 130.904C292.195 131.656 291.475 132.04 290.403 132.04C289.043 132.04 288.051 130.936 287.955 129.64H294.003V129.24C294.003 126.76 292.563 125.32 290.451 125.32C288.243 125.32 286.611 126.936 286.611 129.256C286.611 131.432 288.051 133.192 290.403 133.192C291.795 133.192 292.851 132.776 293.731 131.64L292.787 130.904ZM287.955 128.584C288.115 127.32 289.027 126.472 290.403 126.472C291.779 126.472 292.611 127.32 292.659 128.584H287.955ZM295.102 131.8C295.838 132.856 296.75 133.192 298.014 133.192C299.502 133.192 301.006 132.536 301.006 130.84C301.006 129.336 299.886 128.856 298.558 128.6C297.566 128.408 296.67 128.136 296.67 127.512C296.67 126.808 297.454 126.472 298.142 126.472C298.878 126.472 299.406 126.84 299.726 127.368L300.766 126.68C300.254 125.72 299.278 125.32 298.222 125.32C296.83 125.32 295.422 126.072 295.422 127.528C295.422 129.08 296.638 129.384 298.062 129.704C298.862 129.88 299.662 130.088 299.662 130.888C299.662 131.704 298.798 132.04 298.014 132.04C297.134 132.04 296.59 131.64 296.094 131.032L295.102 131.8ZM312.944 130.904C312.352 131.656 311.632 132.04 310.56 132.04C309.2 132.04 308.208 130.936 308.112 129.64H314.16V129.24C314.16 126.76 312.72 125.32 310.608 125.32C308.4 125.32 306.768 126.936 306.768 129.256C306.768 131.432 308.208 133.192 310.56 133.192C311.952 133.192 313.008 132.776 313.888 131.64L312.944 130.904ZM308.112 128.584C308.272 127.32 309.184 126.472 310.56 126.472C311.936 126.472 312.768 127.32 312.816 128.584H308.112ZM315.658 129.256C315.658 131.592 317.354 133.192 319.658 133.192C321.962 133.192 323.658 131.592 323.658 129.256C323.658 126.92 321.962 125.32 319.658 125.32C317.354 125.32 315.658 126.92 315.658 129.256ZM317.002 129.256C317.002 127.688 318.042 126.472 319.658 126.472C321.274 126.472 322.314 127.688 322.314 129.256C322.314 130.824 321.274 132.04 319.658 132.04C318.042 132.04 317.002 130.824 317.002 129.256ZM324.758 131.8C325.494 132.856 326.406 133.192 327.67 133.192C329.158 133.192 330.662 132.536 330.662 130.84C330.662 129.336 329.542 128.856 328.214 128.6C327.222 128.408 326.326 128.136 326.326 127.512C326.326 126.808 327.11 126.472 327.798 126.472C328.534 126.472 329.062 126.84 329.382 127.368L330.422 126.68C329.91 125.72 328.934 125.32 327.878 125.32C326.486 125.32 325.078 126.072 325.078 127.528C325.078 129.08 326.294 129.384 327.718 129.704C328.518 129.88 329.318 130.088 329.318 130.888C329.318 131.704 328.454 132.04 327.67 132.04C326.79 132.04 326.246 131.64 325.75 131.032L324.758 131.8ZM344.328 125.512H343.08V126.84H343.048C342.584 125.992 341.512 125.32 340.168 125.32C338.072 125.32 336.424 127.016 336.424 129.256C336.424 131.528 338.008 133.192 340.36 133.192C341.448 133.192 342.36 132.712 343.048 131.912H343.08V136.648H344.328V125.512ZM343.08 129.256C343.08 130.824 342.04 132.04 340.424 132.04C338.808 132.04 337.768 130.824 337.768 129.256C337.768 127.688 338.808 126.472 340.424 126.472C342.04 126.472 343.08 127.688 343.08 129.256ZM353.165 125.512H351.917V129.16C351.917 130.872 351.213 132.04 349.597 132.04C348.429 132.04 347.885 131.256 347.885 130.008V125.512H346.637V130.136C346.637 131.944 347.517 133.192 349.485 133.192C350.717 133.192 351.645 132.504 351.981 131.768H352.013C352.013 132.184 352.045 132.6 352.045 133H353.229C353.229 132.504 353.165 131.912 353.165 131.224V125.512ZM355.64 133H356.888V125.512H355.64V133ZM355.352 122.584C355.352 123.112 355.736 123.496 356.264 123.496C356.792 123.496 357.176 123.112 357.176 122.584C357.176 122.088 356.776 121.672 356.264 121.672C355.752 121.672 355.352 122.088 355.352 122.584ZM363.825 133H365.073V129.352C365.073 127.64 365.745 126.568 367.265 126.568C367.489 126.568 367.729 126.6 367.937 126.664L368.017 125.4C367.841 125.336 367.665 125.32 367.505 125.32C366.273 125.32 365.345 126.008 365.009 126.744H364.977C364.977 126.328 364.945 125.912 364.945 125.512H363.761C363.761 126.008 363.825 126.6 363.825 127.288V133ZM370.138 127.288C370.73 126.744 371.562 126.472 372.362 126.472C373.53 126.472 374.218 127.032 374.218 128.12V128.344H373.738C371.898 128.344 369.018 128.488 369.018 130.968C369.018 132.424 370.282 133.192 371.802 133.192C372.938 133.192 373.77 132.648 374.266 131.88H374.298C374.298 132.2 374.298 132.664 374.378 133H375.578C375.514 132.616 375.466 132.136 375.466 131.704V128.488C375.466 126.376 374.538 125.32 372.33 125.32C371.242 125.32 370.122 125.688 369.354 126.472L370.138 127.288ZM374.218 129.4V129.88C374.186 131.096 373.45 132.136 372.01 132.136C371.066 132.136 370.362 131.784 370.362 130.84C370.362 129.832 371.386 129.4 372.97 129.4H374.218ZM381.843 125.512H379.635V123.384H378.387V125.512H376.755V126.568H378.387V130.68C378.387 132.232 378.674 133.192 380.451 133.192C380.915 133.192 381.475 133.112 381.907 132.92L381.859 131.784C381.523 131.96 381.123 132.04 380.755 132.04C379.651 132.04 379.635 131.272 379.635 130.312V126.568H381.843V125.512ZM383.484 133H384.732V125.512H383.484V133ZM383.196 122.584C383.196 123.112 383.58 123.496 384.108 123.496C384.636 123.496 385.02 123.112 385.02 122.584C385.02 122.088 384.62 121.672 384.108 121.672C383.596 121.672 383.196 122.088 383.196 122.584ZM386.783 129.256C386.783 131.592 388.479 133.192 390.783 133.192C393.087 133.192 394.783 131.592 394.783 129.256C394.783 126.92 393.087 125.32 390.783 125.32C388.479 125.32 386.783 126.92 386.783 129.256ZM388.127 129.256C388.127 127.688 389.167 126.472 390.783 126.472C392.399 126.472 393.439 127.688 393.439 129.256C393.439 130.824 392.399 132.04 390.783 132.04C389.167 132.04 388.127 130.824 388.127 129.256ZM396.715 133H397.963V129.352C397.963 127.64 398.667 126.472 400.283 126.472C401.451 126.472 401.995 127.256 401.995 128.504V133H403.243V128.376C403.243 126.568 402.363 125.32 400.395 125.32C399.163 125.32 398.235 126.008 397.899 126.744H397.867C397.867 126.328 397.835 125.912 397.835 125.512H396.651C396.651 126.008 396.715 126.6 396.715 127.288V133ZM411.35 130.904C410.758 131.656 410.038 132.04 408.966 132.04C407.606 132.04 406.614 130.936 406.518 129.64H412.566V129.24C412.566 126.76 411.126 125.32 409.014 125.32C406.806 125.32 405.174 126.936 405.174 129.256C405.174 131.432 406.614 133.192 408.966 133.192C410.358 133.192 411.414 132.776 412.294 131.64L411.35 130.904ZM406.518 128.584C406.678 127.32 407.59 126.472 408.966 126.472C410.342 126.472 411.174 127.32 411.222 128.584H406.518Z" fill="black"/>
<rect x="199.5" y="150.5" width="111" height="35" rx="3.5" fill="#EDE9ED"/>
<path d="M220.106 172H221.87V167.8H223.158L225.454 172H227.582L224.95 167.618C226.42 167.408 227.246 166.358 227.246 164.93C227.246 162.704 225.454 162.088 223.55 162.088H220.106V172ZM221.87 166.288V163.6H223.396C224.306 163.6 225.398 163.74 225.398 164.916C225.398 166.204 224.236 166.288 223.242 166.288H221.87ZM235.238 169.228V168.766C235.238 166.428 233.964 165.112 232.088 165.112C230.058 165.112 228.434 166.526 228.434 168.64C228.434 170.754 230.058 172.168 232.088 172.168C233.152 172.168 234.146 171.79 234.93 170.824L233.726 169.914C233.306 170.432 232.76 170.824 231.92 170.824C230.982 170.824 230.226 170.222 230.114 169.228H235.238ZM230.114 167.968C230.24 167.002 230.856 166.372 231.85 166.372C232.9 166.372 233.544 166.988 233.558 167.968H230.114ZM241.009 172H242.521V168.136C242.521 167.184 242.521 165.112 239.651 165.112C238.587 165.112 237.537 165.434 236.795 166.19L237.677 167.072C238.125 166.652 238.769 166.372 239.469 166.372C240.365 166.372 241.009 166.806 241.009 167.632V167.814H240.589C238.909 167.814 236.361 167.968 236.361 170.152C236.361 171.482 237.565 172.168 238.811 172.168C239.707 172.168 240.491 171.832 240.967 171.076H241.009V172ZM240.911 169.368C240.911 170.306 240.365 170.908 239.217 170.908C238.671 170.908 238.041 170.642 238.041 170.026C238.041 169.06 239.637 168.99 240.561 168.99H240.911V169.368ZM249.649 172H251.245V161.416H249.565V166.134H249.523C249.173 165.7 248.501 165.112 247.241 165.112C245.323 165.112 243.993 166.652 243.993 168.64C243.993 170.628 245.239 172.168 247.311 172.168C248.249 172.168 249.131 171.804 249.621 170.992H249.649V172ZM245.673 168.64C245.673 167.59 246.415 166.624 247.647 166.624C248.879 166.624 249.621 167.59 249.621 168.64C249.621 169.69 248.879 170.656 247.647 170.656C246.415 170.656 245.673 169.69 245.673 168.64ZM257.22 172H258.9V168.332C258.9 167.436 259.334 166.624 260.44 166.624C261.252 166.624 261.588 167.17 261.588 167.996V172H263.268V168.36C263.268 167.492 263.66 166.624 264.71 166.624C265.704 166.624 265.956 167.352 265.956 168.192V172H267.636V167.996C267.636 166.386 267.006 165.112 265.214 165.112C264.206 165.112 263.492 165.504 263.002 166.358C262.652 165.518 261.938 165.112 260.902 165.112C259.782 165.112 259.138 165.7 258.844 166.33H258.816V165.28H257.22V172ZM269.136 168.64C269.136 170.754 270.76 172.168 272.79 172.168C274.82 172.168 276.444 170.754 276.444 168.64C276.444 166.526 274.82 165.112 272.79 165.112C270.76 165.112 269.136 166.526 269.136 168.64ZM270.816 168.64C270.816 167.59 271.558 166.624 272.79 166.624C274.022 166.624 274.764 167.59 274.764 168.64C274.764 169.69 274.022 170.656 272.79 170.656C271.558 170.656 270.816 169.69 270.816 168.64ZM278.016 172H279.696V168.402C279.696 168.038 279.92 166.708 281.502 166.708C281.768 166.708 282.034 166.764 282.314 166.834V165.21C282.118 165.154 281.922 165.112 281.712 165.112C280.83 165.112 280.088 165.574 279.724 166.344H279.696V165.28H278.016V172ZM289.68 169.228V168.766C289.68 166.428 288.406 165.112 286.53 165.112C284.5 165.112 282.876 166.526 282.876 168.64C282.876 170.754 284.5 172.168 286.53 172.168C287.594 172.168 288.588 171.79 289.372 170.824L288.168 169.914C287.748 170.432 287.202 170.824 286.362 170.824C285.424 170.824 284.668 170.222 284.556 169.228H289.68ZM284.556 167.968C284.682 167.002 285.298 166.372 286.292 166.372C287.342 166.372 287.986 166.988 288 167.968H284.556Z" fill="#6C3078"/>
<rect x="199.5" y="150.5" width="111" height="35" rx="3.5" stroke="#6C3078"/>
</svg>
