<svg width="725" height="409" viewBox="0 0 725 409" fill="none" xmlns="http://www.w3.org/2000/svg">
<rect width="725" height="409" fill="white"/>
<rect x="26" y="21" width="286" height="101" fill="white"/>
<rect width="185" height="36" transform="translate(38 74)" fill="#ECF7E3"/>
<rect x="46" y="82" width="61" height="20" rx="2" fill="#6C3078"/>
<rect x="117.5" y="82.5" width="43" height="19" rx="1.5" fill="white" stroke="#616C7F"/>
<rect x="171.5" y="82.5" width="43" height="19" rx="1.5" fill="white" stroke="#616C7F"/>
<rect x="284" y="33" width="16" height="16" rx="8" fill="#467822"/>
<path d="M291 43.1668C290.871 43.157 290.752 43.0972 290.667 43.0002L288.667 41.0002C288.622 40.9068 288.608 40.802 288.625 40.7001C288.643 40.5982 288.691 40.5042 288.764 40.4311C288.837 40.358 288.931 40.3094 289.033 40.2919C289.135 40.2744 289.24 40.2889 289.333 40.3335L290.98 41.9802L296.667 36.3335C296.76 36.2889 296.865 36.2744 296.967 36.2919C297.069 36.3094 297.163 36.358 297.236 36.4311C297.309 36.5042 297.358 36.5982 297.375 36.7001C297.393 36.802 297.378 36.9068 297.333 37.0002L291.333 43.0002C291.248 43.0972 291.129 43.157 291 43.1668V43.1668Z" fill="white"/>
<path d="M292 47.0001C290.928 46.9983 289.875 46.7092 288.953 46.1629C288.03 45.6165 287.271 44.8328 286.753 43.8934C286.36 43.1934 286.117 42.4192 286.04 41.6201C285.918 40.4481 286.144 39.2662 286.689 38.2217C287.235 37.1772 288.075 36.3164 289.107 35.7467C289.807 35.3536 290.581 35.1107 291.38 35.0334C292.176 34.9478 292.981 35.0249 293.747 35.2601C293.815 35.2737 293.88 35.3015 293.937 35.3416C293.994 35.3817 294.042 35.4333 294.077 35.493C294.113 35.5527 294.136 35.6192 294.145 35.6884C294.154 35.7575 294.148 35.8276 294.128 35.8943C294.108 35.9611 294.074 36.0228 294.028 36.0757C293.983 36.1286 293.927 36.1715 293.864 36.2015C293.802 36.2315 293.733 36.2481 293.663 36.2502C293.594 36.2522 293.525 36.2397 293.46 36.2134C292.812 36.0187 292.133 35.9552 291.46 36.0267C290.795 36.0948 290.151 36.2966 289.567 36.6201C289.003 36.9308 288.506 37.3473 288.1 37.8467C287.683 38.3555 287.371 38.9424 287.183 39.5732C286.995 40.204 286.935 40.8658 287.007 41.5201C287.075 42.1847 287.277 42.8288 287.6 43.4134C287.911 43.9766 288.327 44.4746 288.827 44.8801C289.336 45.2975 289.922 45.6092 290.553 45.7969C291.184 45.9847 291.846 46.0447 292.5 45.9734C293.165 45.9053 293.809 45.7035 294.393 45.3801C294.957 45.0693 295.455 44.6528 295.86 44.1534C296.277 43.6446 296.589 43.0577 296.777 42.4269C296.965 41.7962 297.025 41.1343 296.953 40.4801C296.947 40.4113 296.954 40.342 296.974 40.276C296.994 40.21 297.027 40.1486 297.071 40.0954C297.115 40.0421 297.169 39.9981 297.23 39.9657C297.291 39.9333 297.358 39.9133 297.427 39.9067C297.495 39.9002 297.565 39.9072 297.631 39.9274C297.697 39.9477 297.758 39.9807 297.811 40.0247C297.865 40.0686 297.909 40.1226 297.941 40.1836C297.973 40.2446 297.994 40.3113 298 40.3801C298.121 41.5527 297.895 42.7351 297.348 43.7797C296.802 44.8242 295.959 45.6846 294.927 46.2534C294.219 46.6626 293.433 46.917 292.62 47.0001C292.413 47.0001 292.2 47.0001 292 47.0001Z" fill="white"/>
<rect x="26" y="21" width="286" height="101" stroke="#E6E6E6" stroke-width="8"/>
<rect x="397" y="21" width="286" height="101" fill="white"/>
<rect width="185" height="36" transform="translate(409 74)" fill="#FEEFEF"/>
<rect x="417" y="82" width="61" height="20" rx="2" fill="#6C3078"/>
<rect x="488.5" y="82.5" width="43" height="19" rx="1.5" fill="white" stroke="#DB3259"/>
<rect x="542.5" y="82.5" width="43" height="19" rx="1.5" fill="white" stroke="#616C7F"/>
<rect x="655" y="33" width="16" height="16" rx="8" fill="#DB3259"/>
<path d="M663.707 41L666.653 38.0533C666.702 38.0075 666.742 37.9523 666.769 37.891C666.797 37.8297 666.811 37.7635 666.812 37.6963C666.814 37.6292 666.801 37.5625 666.776 37.5002C666.751 37.438 666.714 37.3814 666.666 37.3339C666.619 37.2865 666.562 37.249 666.5 37.2239C666.437 37.1987 666.371 37.1864 666.304 37.1876C666.237 37.1888 666.17 37.2035 666.109 37.2308C666.048 37.2581 665.992 37.2975 665.947 37.3466L663 40.2933L660.053 37.3466C659.959 37.2583 659.833 37.2102 659.704 37.2125C659.574 37.2148 659.451 37.2673 659.359 37.3589C659.267 37.4505 659.215 37.5741 659.213 37.7036C659.21 37.8332 659.258 37.9585 659.347 38.0533L662.293 41L659.347 43.9466C659.253 44.0404 659.2 44.1675 659.2 44.3C659.2 44.4325 659.253 44.5596 659.347 44.6533C659.44 44.7469 659.567 44.7995 659.7 44.7995C659.832 44.7995 659.96 44.7469 660.053 44.6533L663 41.7066L665.947 44.6533C666.04 44.7469 666.167 44.7995 666.3 44.7995C666.433 44.7995 666.56 44.7469 666.653 44.6533C666.747 44.5596 666.8 44.4325 666.8 44.3C666.8 44.1675 666.747 44.0404 666.653 43.9466L663.707 41Z" fill="white"/>
<rect x="397" y="21" width="286" height="101" stroke="#E6E6E6" stroke-width="8"/>
<rect x="396" y="208" width="286" height="101" fill="white"/>
<rect x="408" y="233" width="61" height="20" rx="2" fill="#6C3078"/>
<rect width="60" height="36" transform="translate(408 261)" fill="#FEEFEF"/>
<rect x="416.5" y="269.5" width="43" height="19" rx="1.5" fill="white" stroke="#616C7F"/>
<rect x="654" y="220" width="16" height="16" rx="8" fill="#DB3259"/>
<path d="M662.707 228L665.653 225.053C665.702 225.008 665.742 224.952 665.769 224.891C665.797 224.83 665.811 224.763 665.812 224.696C665.814 224.629 665.801 224.562 665.776 224.5C665.751 224.438 665.714 224.381 665.666 224.334C665.619 224.286 665.562 224.249 665.5 224.224C665.437 224.199 665.371 224.186 665.304 224.188C665.237 224.189 665.17 224.203 665.109 224.231C665.048 224.258 664.992 224.298 664.947 224.347L662 227.293L659.053 224.347C658.959 224.258 658.833 224.21 658.704 224.213C658.574 224.215 658.451 224.267 658.359 224.359C658.267 224.45 658.215 224.574 658.213 224.704C658.21 224.833 658.258 224.959 658.347 225.053L661.293 228L658.347 230.947C658.253 231.04 658.2 231.167 658.2 231.3C658.2 231.432 658.253 231.56 658.347 231.653C658.44 231.747 658.567 231.8 658.7 231.8C658.832 231.8 658.96 231.747 659.053 231.653L662 228.707L664.947 231.653C665.04 231.747 665.167 231.8 665.3 231.8C665.433 231.8 665.56 231.747 665.653 231.653C665.747 231.56 665.8 231.432 665.8 231.3C665.8 231.167 665.747 231.04 665.653 230.947L662.707 228Z" fill="white"/>
<rect x="396" y="208" width="286" height="101" stroke="#E6E6E6" stroke-width="8"/>
<rect x="26" y="208" width="286" height="101" fill="white"/>
<rect x="38" y="269" width="61" height="20" rx="2" fill="#6C3078"/>
<rect x="107.5" y="269.5" width="43" height="19" rx="1.5" fill="white" stroke="#616C7F"/>
<rect width="60" height="36" transform="translate(240 261)" fill="#ECF7E3"/>
<rect x="248.5" y="269.5" width="43" height="19" rx="1.5" fill="white" stroke="#DB3259"/>
<rect x="284" y="220" width="16" height="16" rx="8" fill="#467822"/>
<path d="M291 230.167C290.871 230.157 290.752 230.097 290.667 230L288.667 228C288.622 227.907 288.608 227.802 288.625 227.7C288.643 227.598 288.691 227.504 288.764 227.431C288.837 227.358 288.931 227.309 289.033 227.292C289.135 227.274 289.24 227.289 289.333 227.333L290.98 228.98L296.667 223.333C296.76 223.289 296.865 223.274 296.967 223.292C297.069 223.309 297.163 223.358 297.236 223.431C297.309 223.504 297.358 223.598 297.375 223.7C297.393 223.802 297.378 223.907 297.333 224L291.333 230C291.248 230.097 291.129 230.157 291 230.167V230.167Z" fill="white"/>
<path d="M292 234C290.928 233.998 289.875 233.709 288.953 233.163C288.03 232.617 287.271 231.833 286.753 230.893C286.36 230.193 286.117 229.419 286.04 228.62C285.918 227.448 286.144 226.266 286.689 225.222C287.235 224.177 288.075 223.316 289.107 222.747C289.807 222.354 290.581 222.111 291.38 222.033C292.176 221.948 292.981 222.025 293.747 222.26C293.815 222.274 293.88 222.301 293.937 222.342C293.994 222.382 294.042 222.433 294.077 222.493C294.113 222.553 294.136 222.619 294.145 222.688C294.154 222.757 294.148 222.828 294.128 222.894C294.108 222.961 294.074 223.023 294.028 223.076C293.983 223.129 293.927 223.171 293.864 223.201C293.802 223.232 293.733 223.248 293.663 223.25C293.594 223.252 293.525 223.24 293.46 223.213C292.812 223.019 292.133 222.955 291.46 223.027C290.795 223.095 290.151 223.297 289.567 223.62C289.003 223.931 288.506 224.347 288.1 224.847C287.683 225.355 287.371 225.942 287.183 226.573C286.995 227.204 286.935 227.866 287.007 228.52C287.075 229.185 287.277 229.829 287.6 230.413C287.911 230.977 288.327 231.475 288.827 231.88C289.336 232.297 289.922 232.609 290.553 232.797C291.184 232.985 291.846 233.045 292.5 232.973C293.165 232.905 293.809 232.704 294.393 232.38C294.957 232.069 295.455 231.653 295.86 231.153C296.277 230.645 296.589 230.058 296.777 229.427C296.965 228.796 297.025 228.134 296.953 227.48C296.947 227.411 296.954 227.342 296.974 227.276C296.994 227.21 297.027 227.149 297.071 227.095C297.115 227.042 297.169 226.998 297.23 226.966C297.291 226.933 297.358 226.913 297.427 226.907C297.495 226.9 297.565 226.907 297.631 226.927C297.697 226.948 297.758 226.981 297.811 227.025C297.865 227.069 297.909 227.123 297.941 227.184C297.973 227.245 297.994 227.311 298 227.38C298.121 228.553 297.895 229.735 297.348 230.78C296.802 231.824 295.959 232.685 294.927 233.253C294.219 233.663 293.433 233.917 292.62 234C292.413 234 292.2 234 292 234Z" fill="white"/>
<rect x="26" y="208" width="286" height="101" stroke="#E6E6E6" stroke-width="8"/>
<path d="M42.264 154H46.488C49.208 154 52.488 152.208 52.488 148.336C52.488 144.496 49.704 142.672 46.728 142.672H42.264V154ZM44.28 152.176V144.496H46.12C48.584 144.496 50.376 145.584 50.376 148.336C50.376 151.088 48.312 152.176 45.784 152.176H44.28ZM53.8446 150.16C53.8446 152.576 55.7006 154.192 58.0206 154.192C60.3406 154.192 62.1966 152.576 62.1966 150.16C62.1966 147.744 60.3406 146.128 58.0206 146.128C55.7006 146.128 53.8446 147.744 53.8446 150.16ZM55.7646 150.16C55.7646 148.96 56.6126 147.856 58.0206 147.856C59.4286 147.856 60.2766 148.96 60.2766 150.16C60.2766 151.36 59.4286 152.464 58.0206 152.464C56.6126 152.464 55.7646 151.36 55.7646 150.16ZM63.8583 153.02C63.8583 153.622 64.3903 154.084 64.9783 154.084C65.5943 154.084 66.0983 153.594 66.0983 152.992C66.0983 152.39 65.5803 151.928 64.9783 151.928C64.3623 151.928 63.8583 152.418 63.8583 153.02ZM63.8583 148.274C63.8583 148.876 64.3903 149.338 64.9783 149.338C65.5943 149.338 66.0983 148.848 66.0983 148.246C66.0983 147.644 65.5803 147.182 64.9783 147.182C64.3623 147.182 63.8583 147.672 63.8583 148.274Z" fill="black"/>
<path d="M28.264 341H32.488C35.208 341 38.488 339.208 38.488 335.336C38.488 331.496 35.704 329.672 32.728 329.672H28.264V341ZM30.28 339.176V331.496H32.12C34.584 331.496 36.376 332.584 36.376 335.336C36.376 338.088 34.312 339.176 31.784 339.176H30.28ZM39.8446 337.16C39.8446 339.576 41.7006 341.192 44.0206 341.192C46.3406 341.192 48.1966 339.576 48.1966 337.16C48.1966 334.744 46.3406 333.128 44.0206 333.128C41.7006 333.128 39.8446 334.744 39.8446 337.16ZM41.7646 337.16C41.7646 335.96 42.6126 334.856 44.0206 334.856C45.4286 334.856 46.2766 335.96 46.2766 337.16C46.2766 338.36 45.4286 339.464 44.0206 339.464C42.6126 339.464 41.7646 338.36 41.7646 337.16ZM49.9943 339.88C49.9943 340.568 50.6023 341.096 51.2743 341.096C51.9783 341.096 52.5543 340.536 52.5543 339.848C52.5543 339.16 51.9623 338.632 51.2743 338.632C50.5703 338.632 49.9943 339.192 49.9943 339.88ZM49.9943 334.456C49.9943 335.144 50.6023 335.672 51.2743 335.672C51.9783 335.672 52.5543 335.112 52.5543 334.424C52.5543 333.736 51.9623 333.208 51.2743 333.208C50.5703 333.208 49.9943 333.768 49.9943 334.456Z" fill="black"/>
<path d="M401.264 154H405.488C408.208 154 411.488 152.208 411.488 148.336C411.488 144.496 408.704 142.672 405.728 142.672H401.264V154ZM403.28 152.176V144.496H405.12C407.584 144.496 409.376 145.584 409.376 148.336C409.376 151.088 407.312 152.176 404.784 152.176H403.28ZM412.845 150.16C412.845 152.576 414.701 154.192 417.021 154.192C419.341 154.192 421.197 152.576 421.197 150.16C421.197 147.744 419.341 146.128 417.021 146.128C414.701 146.128 412.845 147.744 412.845 150.16ZM414.765 150.16C414.765 148.96 415.613 147.856 417.021 147.856C418.429 147.856 419.277 148.96 419.277 150.16C419.277 151.36 418.429 152.464 417.021 152.464C415.613 152.464 414.765 151.36 414.765 150.16ZM422.994 154H424.914V149.808C424.914 148.784 425.41 147.856 426.674 147.856C428.018 147.856 428.082 149.264 428.082 150.112V154H430.002V149.152C430.002 147.584 429.266 146.128 427.202 146.128C425.922 146.128 425.202 146.784 424.85 147.552H424.818V146.32H422.994V154ZM431.926 146.896H433.638L434.998 142.672H433.046L431.926 146.896ZM437.323 147.952V151.472C437.323 153.28 437.803 154.192 439.835 154.192C440.283 154.192 440.955 154.128 441.355 153.936V152.32C441.115 152.496 440.651 152.56 440.315 152.56C439.467 152.56 439.243 152.08 439.243 151.312V147.952H441.355V146.32H439.243V144.096H437.323V146.32H435.739V147.952H437.323ZM442.854 152.88C442.854 153.568 443.462 154.096 444.134 154.096C444.838 154.096 445.414 153.536 445.414 152.848C445.414 152.16 444.822 151.632 444.134 151.632C443.43 151.632 442.854 152.192 442.854 152.88ZM442.854 147.456C442.854 148.144 443.462 148.672 444.134 148.672C444.838 148.672 445.414 148.112 445.414 147.424C445.414 146.736 444.822 146.208 444.134 146.208C443.43 146.208 442.854 146.768 442.854 147.456Z" fill="black"/>
<path d="M387.264 350H391.488C394.208 350 397.488 348.208 397.488 344.336C397.488 340.496 394.704 338.672 391.728 338.672H387.264V350ZM389.28 348.176V340.496H391.12C393.584 340.496 395.376 341.584 395.376 344.336C395.376 347.088 393.312 348.176 390.784 348.176H389.28ZM398.845 346.16C398.845 348.576 400.701 350.192 403.021 350.192C405.341 350.192 407.197 348.576 407.197 346.16C407.197 343.744 405.341 342.128 403.021 342.128C400.701 342.128 398.845 343.744 398.845 346.16ZM400.765 346.16C400.765 344.96 401.613 343.856 403.021 343.856C404.429 343.856 405.277 344.96 405.277 346.16C405.277 347.36 404.429 348.464 403.021 348.464C401.613 348.464 400.765 347.36 400.765 346.16ZM408.994 350H410.914V345.808C410.914 344.784 411.41 343.856 412.674 343.856C414.018 343.856 414.082 345.264 414.082 346.112V350H416.002V345.152C416.002 343.584 415.266 342.128 413.202 342.128C411.922 342.128 411.202 342.784 410.85 343.552H410.818V342.32H408.994V350ZM417.926 342.896H419.638L420.998 338.672H419.046L417.926 342.896ZM423.323 343.952V347.472C423.323 349.28 423.803 350.192 425.835 350.192C426.283 350.192 426.955 350.128 427.355 349.936V348.32C427.115 348.496 426.651 348.56 426.315 348.56C425.467 348.56 425.243 348.08 425.243 347.312V343.952H427.355V342.32H425.243V340.096H423.323V342.32H421.739V343.952H423.323ZM428.854 348.88C428.854 349.568 429.462 350.096 430.134 350.096C430.838 350.096 431.414 349.536 431.414 348.848C431.414 348.16 430.822 347.632 430.134 347.632C429.43 347.632 428.854 348.192 428.854 348.88ZM428.854 343.456C428.854 344.144 429.462 344.672 430.134 344.672C430.838 344.672 431.414 344.112 431.414 343.424C431.414 342.736 430.822 342.208 430.134 342.208C429.43 342.208 428.854 342.768 428.854 343.456Z" fill="black"/>
<path d="M77.408 154H78.752V148.24H78.944L84.336 154H86.304L80.432 147.84L86.032 142.672H84.096L78.944 147.568H78.752V142.672H77.408V154ZM93.0061 151.904C92.4141 152.656 91.6941 153.04 90.6221 153.04C89.2621 153.04 88.2701 151.936 88.1741 150.64H94.2221V150.24C94.2221 147.76 92.7821 146.32 90.6701 146.32C88.4621 146.32 86.8301 147.936 86.8301 150.256C86.8301 152.432 88.2701 154.192 90.6221 154.192C92.0141 154.192 93.0701 153.776 93.9501 152.64L93.0061 151.904ZM88.1741 149.584C88.3341 148.32 89.2461 147.472 90.6221 147.472C91.9981 147.472 92.8301 148.32 92.8781 149.584H88.1741ZM101.897 151.904C101.305 152.656 100.585 153.04 99.5128 153.04C98.1528 153.04 97.1608 151.936 97.0648 150.64H103.113V150.24C103.113 147.76 101.673 146.32 99.5608 146.32C97.3528 146.32 95.7208 147.936 95.7208 150.256C95.7208 152.432 97.1608 154.192 99.5128 154.192C100.905 154.192 101.961 153.776 102.841 152.64L101.897 151.904ZM97.0648 149.584C97.2248 148.32 98.1368 147.472 99.5128 147.472C100.889 147.472 101.721 148.32 101.769 149.584H97.0648ZM104.979 157.648H106.227V152.672H106.259C106.723 153.52 107.795 154.192 109.139 154.192C111.235 154.192 112.883 152.496 112.883 150.256C112.883 147.984 111.299 146.32 108.947 146.32C107.859 146.32 106.947 146.8 106.259 147.6H106.227V146.512H104.979V157.648ZM106.227 150.256C106.227 148.688 107.267 147.472 108.883 147.472C110.499 147.472 111.539 148.688 111.539 150.256C111.539 151.824 110.499 153.04 108.883 153.04C107.267 153.04 106.227 151.824 106.227 150.256ZM119.214 154H120.462V152.672H120.494C120.958 153.52 122.03 154.192 123.374 154.192C125.47 154.192 127.118 152.496 127.118 150.256C127.118 147.984 125.534 146.32 123.182 146.32C122.094 146.32 121.182 146.8 120.494 147.6H120.462V141.904H119.214V154ZM120.462 150.256C120.462 148.688 121.502 147.472 123.118 147.472C124.734 147.472 125.774 148.688 125.774 150.256C125.774 151.824 124.734 153.04 123.118 153.04C121.502 153.04 120.462 151.824 120.462 150.256ZM135.587 146.512H134.339V150.16C134.339 151.872 133.635 153.04 132.019 153.04C130.851 153.04 130.307 152.256 130.307 151.008V146.512H129.059V151.136C129.059 152.944 129.939 154.192 131.907 154.192C133.139 154.192 134.067 153.504 134.403 152.768H134.435C134.435 153.184 134.467 153.6 134.467 154H135.651C135.651 153.504 135.587 152.912 135.587 152.224V146.512ZM142.046 146.512H139.838V144.384H138.59V146.512H136.958V147.568H138.59V151.68C138.59 153.232 138.878 154.192 140.654 154.192C141.118 154.192 141.678 154.112 142.11 153.92L142.062 152.784C141.726 152.96 141.326 153.04 140.958 153.04C139.854 153.04 139.838 152.272 139.838 151.312V147.568H142.046V146.512ZM147.671 146.512H145.463V144.384H144.215V146.512H142.583V147.568H144.215V151.68C144.215 153.232 144.503 154.192 146.279 154.192C146.743 154.192 147.303 154.112 147.735 153.92L147.687 152.784C147.351 152.96 146.951 153.04 146.583 153.04C145.479 153.04 145.463 152.272 145.463 151.312V147.568H147.671V146.512ZM148.768 150.256C148.768 152.592 150.464 154.192 152.768 154.192C155.072 154.192 156.768 152.592 156.768 150.256C156.768 147.92 155.072 146.32 152.768 146.32C150.464 146.32 148.768 147.92 148.768 150.256ZM150.112 150.256C150.112 148.688 151.152 147.472 152.768 147.472C154.384 147.472 155.424 148.688 155.424 150.256C155.424 151.824 154.384 153.04 152.768 153.04C151.152 153.04 150.112 151.824 150.112 150.256ZM158.7 154H159.948V150.352C159.948 148.64 160.652 147.472 162.268 147.472C163.436 147.472 163.98 148.256 163.98 149.504V154H165.228V149.376C165.228 147.568 164.348 146.32 162.38 146.32C161.148 146.32 160.22 147.008 159.884 147.744H159.852C159.852 147.328 159.82 146.912 159.82 146.512H158.636C158.636 147.008 158.7 147.6 158.7 148.288V154ZM166.758 152.8C167.494 153.856 168.406 154.192 169.67 154.192C171.158 154.192 172.662 153.536 172.662 151.84C172.662 150.336 171.542 149.856 170.214 149.6C169.222 149.408 168.326 149.136 168.326 148.512C168.326 147.808 169.11 147.472 169.798 147.472C170.534 147.472 171.062 147.84 171.382 148.368L172.422 147.68C171.91 146.72 170.934 146.32 169.878 146.32C168.486 146.32 167.078 147.072 167.078 148.528C167.078 150.08 168.294 150.384 169.718 150.704C170.518 150.88 171.318 151.088 171.318 151.888C171.318 152.704 170.454 153.04 169.67 153.04C168.79 153.04 168.246 152.64 167.75 152.032L166.758 152.8ZM185.224 146.512H183.88L181.656 152.384H181.624L179.288 146.512H177.832L180.888 154H182.264L185.224 146.512ZM186.687 154H187.935V146.512H186.687V154ZM186.399 143.584C186.399 144.112 186.783 144.496 187.311 144.496C187.839 144.496 188.223 144.112 188.223 143.584C188.223 143.088 187.823 142.672 187.311 142.672C186.799 142.672 186.399 143.088 186.399 143.584ZM189.586 152.8C190.322 153.856 191.234 154.192 192.498 154.192C193.986 154.192 195.49 153.536 195.49 151.84C195.49 150.336 194.37 149.856 193.042 149.6C192.05 149.408 191.154 149.136 191.154 148.512C191.154 147.808 191.938 147.472 192.626 147.472C193.362 147.472 193.89 147.84 194.21 148.368L195.25 147.68C194.738 146.72 193.762 146.32 192.706 146.32C191.314 146.32 189.906 147.072 189.906 148.528C189.906 150.08 191.122 150.384 192.546 150.704C193.346 150.88 194.146 151.088 194.146 151.888C194.146 152.704 193.282 153.04 192.498 153.04C191.618 153.04 191.074 152.64 190.578 152.032L189.586 152.8ZM203.759 146.512H202.511V150.16C202.511 151.872 201.807 153.04 200.191 153.04C199.023 153.04 198.479 152.256 198.479 151.008V146.512H197.231V151.136C197.231 152.944 198.111 154.192 200.079 154.192C201.311 154.192 202.239 153.504 202.575 152.768H202.607C202.607 153.184 202.639 153.6 202.639 154H203.823C203.823 153.504 203.759 152.912 203.759 152.224V146.512ZM206.81 148.288C207.402 147.744 208.234 147.472 209.034 147.472C210.202 147.472 210.89 148.032 210.89 149.12V149.344H210.41C208.57 149.344 205.69 149.488 205.69 151.968C205.69 153.424 206.954 154.192 208.474 154.192C209.61 154.192 210.442 153.648 210.938 152.88H210.97C210.97 153.2 210.97 153.664 211.05 154H212.25C212.186 153.616 212.138 153.136 212.138 152.704V149.488C212.138 147.376 211.21 146.32 209.002 146.32C207.914 146.32 206.794 146.688 206.026 147.472L206.81 148.288ZM210.89 150.4V150.88C210.858 152.096 210.122 153.136 208.682 153.136C207.738 153.136 207.034 152.784 207.034 151.84C207.034 150.832 208.058 150.4 209.641 150.4H210.89ZM214.53 154H215.778V141.904H214.53V154ZM218.374 154H219.622V141.904H218.374V154ZM228.474 146.512H227.114L224.89 152.384H224.858L222.538 146.512H221.082L224.186 154.048L223.674 155.456C223.402 156.192 223.098 156.688 222.282 156.688C221.93 156.688 221.658 156.656 221.402 156.56L221.242 157.648C221.578 157.808 222.01 157.84 222.362 157.84C223.866 157.84 224.362 156.976 224.858 155.712L228.474 146.512ZM241.75 146.512H240.502V147.792H240.47C239.974 146.8 238.838 146.32 237.83 146.32C235.446 146.32 233.846 147.808 233.846 150.256C233.846 152.464 235.478 154.096 237.83 154.096C238.822 154.096 239.878 153.664 240.47 152.704H240.502V153.664C240.502 155.248 239.91 156.688 237.67 156.688C236.518 156.688 235.67 156.24 234.886 155.392L233.99 156.416C235.046 157.456 236.214 157.84 237.67 157.84C240.294 157.84 241.75 156.368 241.75 153.664V146.512ZM235.19 150.256C235.19 148.688 236.262 147.472 237.83 147.472C239.414 147.472 240.502 148.608 240.502 150.224C240.502 151.664 239.542 152.944 237.83 152.944C236.374 152.944 235.19 151.776 235.19 150.256ZM244.059 154H245.307V150.352C245.307 148.64 245.979 147.568 247.499 147.568C247.723 147.568 247.963 147.6 248.171 147.664L248.251 146.4C248.075 146.336 247.899 146.32 247.739 146.32C246.507 146.32 245.579 147.008 245.243 147.744H245.211C245.211 147.328 245.179 146.912 245.179 146.512H243.995C243.995 147.008 244.059 147.6 244.059 148.288V154ZM248.971 150.256C248.971 152.592 250.667 154.192 252.971 154.192C255.275 154.192 256.971 152.592 256.971 150.256C256.971 147.92 255.275 146.32 252.971 146.32C250.667 146.32 248.971 147.92 248.971 150.256ZM250.315 150.256C250.315 148.688 251.355 147.472 252.971 147.472C254.587 147.472 255.627 148.688 255.627 150.256C255.627 151.824 254.587 153.04 252.971 153.04C251.355 153.04 250.315 151.824 250.315 150.256ZM265.431 146.512H264.183V150.16C264.183 151.872 263.479 153.04 261.863 153.04C260.695 153.04 260.151 152.256 260.151 151.008V146.512H258.903V151.136C258.903 152.944 259.783 154.192 261.751 154.192C262.983 154.192 263.911 153.504 264.247 152.768H264.279C264.279 153.184 264.311 153.6 264.311 154H265.495C265.495 153.504 265.431 152.912 265.431 152.224V146.512ZM267.729 157.648H268.977V152.672H269.009C269.473 153.52 270.545 154.192 271.889 154.192C273.985 154.192 275.633 152.496 275.633 150.256C275.633 147.984 274.049 146.32 271.697 146.32C270.609 146.32 269.697 146.8 269.009 147.6H268.977V146.512H267.729V157.648ZM268.977 150.256C268.977 148.688 270.017 147.472 271.633 147.472C273.249 147.472 274.289 148.688 274.289 150.256C274.289 151.824 273.249 153.04 271.633 153.04C270.017 153.04 268.977 151.824 268.977 150.256ZM283.319 151.904C282.727 152.656 282.007 153.04 280.935 153.04C279.575 153.04 278.583 151.936 278.487 150.64H284.535V150.24C284.535 147.76 283.095 146.32 280.983 146.32C278.775 146.32 277.143 147.936 277.143 150.256C277.143 152.432 278.583 154.192 280.935 154.192C282.327 154.192 283.383 153.776 284.263 152.64L283.319 151.904ZM278.487 149.584C278.647 148.32 279.559 147.472 280.935 147.472C282.311 147.472 283.143 148.32 283.191 149.584H278.487ZM292.689 154H293.937V141.904H292.689V147.6H292.657C291.969 146.8 291.057 146.32 289.969 146.32C287.617 146.32 286.033 147.984 286.033 150.256C286.033 152.496 287.681 154.192 289.777 154.192C291.121 154.192 292.193 153.52 292.657 152.672H292.689V154ZM292.689 150.256C292.689 151.824 291.649 153.04 290.033 153.04C288.417 153.04 287.377 151.824 287.377 150.256C287.377 148.688 288.417 147.472 290.033 147.472C291.649 147.472 292.689 148.688 292.689 150.256Z" fill="black"/>
<path d="M63.408 341H64.752V335.24H64.944L70.336 341H72.304L66.432 334.84L72.032 329.672H70.096L64.944 334.568H64.752V329.672H63.408V341ZM79.0061 338.904C78.4141 339.656 77.6941 340.04 76.6221 340.04C75.2621 340.04 74.2701 338.936 74.1741 337.64H80.2221V337.24C80.2221 334.76 78.7821 333.32 76.6701 333.32C74.4621 333.32 72.8301 334.936 72.8301 337.256C72.8301 339.432 74.2701 341.192 76.6221 341.192C78.0141 341.192 79.0701 340.776 79.9501 339.64L79.0061 338.904ZM74.1741 336.584C74.3341 335.32 75.2461 334.472 76.6221 334.472C77.9981 334.472 78.8301 335.32 78.8781 336.584H74.1741ZM87.8968 338.904C87.3048 339.656 86.5848 340.04 85.5128 340.04C84.1528 340.04 83.1608 338.936 83.0648 337.64H89.1128V337.24C89.1128 334.76 87.6728 333.32 85.5608 333.32C83.3528 333.32 81.7208 334.936 81.7208 337.256C81.7208 339.432 83.1608 341.192 85.5128 341.192C86.9048 341.192 87.9608 340.776 88.8408 339.64L87.8968 338.904ZM83.0648 336.584C83.2248 335.32 84.1368 334.472 85.5128 334.472C86.8888 334.472 87.7208 335.32 87.7688 336.584H83.0648ZM90.9794 344.648H92.2274V339.672H92.2594C92.7234 340.52 93.7954 341.192 95.1394 341.192C97.2354 341.192 98.8834 339.496 98.8834 337.256C98.8834 334.984 97.2994 333.32 94.9474 333.32C93.8594 333.32 92.9474 333.8 92.2594 334.6H92.2274V333.512H90.9794V344.648ZM92.2274 337.256C92.2274 335.688 93.2674 334.472 94.8834 334.472C96.4994 334.472 97.5394 335.688 97.5394 337.256C97.5394 338.824 96.4994 340.04 94.8834 340.04C93.2674 340.04 92.2274 338.824 92.2274 337.256ZM111.502 341H112.75V328.904H111.502V334.6H111.47C110.782 333.8 109.87 333.32 108.782 333.32C106.43 333.32 104.846 334.984 104.846 337.256C104.846 339.496 106.494 341.192 108.59 341.192C109.934 341.192 111.006 340.52 111.47 339.672H111.502V341ZM111.502 337.256C111.502 338.824 110.462 340.04 108.846 340.04C107.23 340.04 106.19 338.824 106.19 337.256C106.19 335.688 107.23 334.472 108.846 334.472C110.462 334.472 111.502 335.688 111.502 337.256ZM120.803 338.904C120.211 339.656 119.491 340.04 118.419 340.04C117.059 340.04 116.067 338.936 115.971 337.64H122.019V337.24C122.019 334.76 120.579 333.32 118.467 333.32C116.259 333.32 114.627 334.936 114.627 337.256C114.627 339.432 116.067 341.192 118.419 341.192C119.811 341.192 120.867 340.776 121.747 339.64L120.803 338.904ZM115.971 336.584C116.131 335.32 117.043 334.472 118.419 334.472C119.795 334.472 120.627 335.32 120.675 336.584H115.971ZM123.118 339.8C123.854 340.856 124.766 341.192 126.03 341.192C127.518 341.192 129.022 340.536 129.022 338.84C129.022 337.336 127.902 336.856 126.574 336.6C125.582 336.408 124.686 336.136 124.686 335.512C124.686 334.808 125.47 334.472 126.158 334.472C126.894 334.472 127.422 334.84 127.742 335.368L128.782 334.68C128.27 333.72 127.294 333.32 126.238 333.32C124.846 333.32 123.438 334.072 123.438 335.528C123.438 337.08 124.654 337.384 126.078 337.704C126.878 337.88 127.678 338.088 127.678 338.888C127.678 339.704 126.814 340.04 126.03 340.04C125.15 340.04 124.606 339.64 124.11 339.032L123.118 339.8ZM134.858 333.512H132.65V331.384H131.402V333.512H129.77V334.568H131.402V338.68C131.402 340.232 131.69 341.192 133.466 341.192C133.93 341.192 134.49 341.112 134.922 340.92L134.874 339.784C134.538 339.96 134.138 340.04 133.77 340.04C132.666 340.04 132.65 339.272 132.65 338.312V334.568H134.858V333.512ZM136.387 341H137.635V337.352C137.635 335.64 138.307 334.568 139.827 334.568C140.051 334.568 140.291 334.6 140.499 334.664L140.579 333.4C140.403 333.336 140.227 333.32 140.067 333.32C138.835 333.32 137.907 334.008 137.571 334.744H137.539C137.539 334.328 137.507 333.912 137.507 333.512H136.323C136.323 334.008 136.387 334.6 136.387 335.288V341ZM148.54 333.512H147.292V337.16C147.292 338.872 146.588 340.04 144.972 340.04C143.804 340.04 143.26 339.256 143.26 338.008V333.512H142.012V338.136C142.012 339.944 142.892 341.192 144.86 341.192C146.092 341.192 147.02 340.504 147.356 339.768H147.388C147.388 340.184 147.42 340.6 147.42 341H148.604C148.604 340.504 148.54 339.912 148.54 339.224V333.512ZM157.223 334.504C156.471 333.688 155.447 333.32 154.343 333.32C152.039 333.32 150.471 334.984 150.471 337.256C150.471 339.56 152.023 341.192 154.343 341.192C155.431 341.192 156.455 340.824 157.175 339.992L156.247 339.112C155.783 339.752 155.159 340.04 154.343 340.04C152.823 340.04 151.815 338.792 151.815 337.256C151.815 335.72 152.663 334.472 154.343 334.472C155.095 334.472 155.703 334.744 156.231 335.384L157.223 334.504ZM162.718 333.512H160.51V331.384H159.262V333.512H157.63V334.568H159.262V338.68C159.262 340.232 159.549 341.192 161.326 341.192C161.79 341.192 162.35 341.112 162.782 340.92L162.734 339.784C162.398 339.96 161.998 340.04 161.63 340.04C160.526 340.04 160.51 339.272 160.51 338.312V334.568H162.718V333.512ZM164.359 341H165.607V333.512H164.359V341ZM164.071 330.584C164.071 331.112 164.455 331.496 164.983 331.496C165.511 331.496 165.895 331.112 165.895 330.584C165.895 330.088 165.495 329.672 164.983 329.672C164.471 329.672 164.071 330.088 164.071 330.584ZM174.458 333.512H173.114L170.89 339.384H170.858L168.522 333.512H167.066L170.122 341H171.498L174.458 333.512ZM181.553 338.904C180.961 339.656 180.241 340.04 179.169 340.04C177.809 340.04 176.817 338.936 176.721 337.64H182.769V337.24C182.769 334.76 181.329 333.32 179.217 333.32C177.009 333.32 175.377 334.936 175.377 337.256C175.377 339.432 176.817 341.192 179.169 341.192C180.561 341.192 181.617 340.776 182.497 339.64L181.553 338.904ZM176.721 336.584C176.881 335.32 177.793 334.472 179.169 334.472C180.545 334.472 181.377 335.32 181.425 336.584H176.721ZM189.089 341H190.337V339.672H190.369C190.833 340.52 191.905 341.192 193.249 341.192C195.345 341.192 196.993 339.496 196.993 337.256C196.993 334.984 195.409 333.32 193.057 333.32C191.969 333.32 191.057 333.8 190.369 334.6H190.337V328.904H189.089V341ZM190.337 337.256C190.337 335.688 191.377 334.472 192.993 334.472C194.609 334.472 195.649 335.688 195.649 337.256C195.649 338.824 194.609 340.04 192.993 340.04C191.377 340.04 190.337 338.824 190.337 337.256ZM205.462 333.512H204.214V337.16C204.214 338.872 203.51 340.04 201.894 340.04C200.726 340.04 200.182 339.256 200.182 338.008V333.512H198.934V338.136C198.934 339.944 199.814 341.192 201.782 341.192C203.014 341.192 203.942 340.504 204.278 339.768H204.31C204.31 340.184 204.342 340.6 204.342 341H205.526C205.526 340.504 205.462 339.912 205.462 339.224V333.512ZM211.921 333.512H209.713V331.384H208.465V333.512H206.833V334.568H208.465V338.68C208.465 340.232 208.753 341.192 210.529 341.192C210.993 341.192 211.553 341.112 211.985 340.92L211.937 339.784C211.601 339.96 211.201 340.04 210.833 340.04C209.729 340.04 209.713 339.272 209.713 338.312V334.568H211.921V333.512ZM217.546 333.512H215.338V331.384H214.09V333.512H212.458V334.568H214.09V338.68C214.09 340.232 214.378 341.192 216.154 341.192C216.618 341.192 217.178 341.112 217.61 340.92L217.562 339.784C217.226 339.96 216.826 340.04 216.458 340.04C215.354 340.04 215.338 339.272 215.338 338.312V334.568H217.546V333.512ZM218.643 337.256C218.643 339.592 220.339 341.192 222.643 341.192C224.947 341.192 226.643 339.592 226.643 337.256C226.643 334.92 224.947 333.32 222.643 333.32C220.339 333.32 218.643 334.92 218.643 337.256ZM219.987 337.256C219.987 335.688 221.027 334.472 222.643 334.472C224.259 334.472 225.299 335.688 225.299 337.256C225.299 338.824 224.259 340.04 222.643 340.04C221.027 340.04 219.987 338.824 219.987 337.256ZM228.575 341H229.823V337.352C229.823 335.64 230.527 334.472 232.143 334.472C233.311 334.472 233.855 335.256 233.855 336.504V341H235.103V336.376C235.103 334.568 234.223 333.32 232.255 333.32C231.023 333.32 230.095 334.008 229.759 334.744H229.727C229.727 334.328 229.695 333.912 229.695 333.512H228.511C228.511 334.008 228.575 334.6 228.575 335.288V341ZM236.633 339.8C237.369 340.856 238.281 341.192 239.545 341.192C241.033 341.192 242.537 340.536 242.537 338.84C242.537 337.336 241.417 336.856 240.089 336.6C239.097 336.408 238.201 336.136 238.201 335.512C238.201 334.808 238.985 334.472 239.673 334.472C240.409 334.472 240.937 334.84 241.257 335.368L242.297 334.68C241.785 333.72 240.809 333.32 239.753 333.32C238.361 333.32 236.953 334.072 236.953 335.528C236.953 337.08 238.169 337.384 239.593 337.704C240.393 337.88 241.193 338.088 241.193 338.888C241.193 339.704 240.329 340.04 239.545 340.04C238.665 340.04 238.121 339.64 237.625 339.032L236.633 339.8ZM247.899 339.8C248.635 340.856 249.547 341.192 250.811 341.192C252.299 341.192 253.803 340.536 253.803 338.84C253.803 337.336 252.683 336.856 251.355 336.6C250.363 336.408 249.467 336.136 249.467 335.512C249.467 334.808 250.251 334.472 250.939 334.472C251.675 334.472 252.203 334.84 252.523 335.368L253.563 334.68C253.051 333.72 252.075 333.32 251.019 333.32C249.627 333.32 248.219 334.072 248.219 335.528C248.219 337.08 249.435 337.384 250.859 337.704C251.659 337.88 252.459 338.088 252.459 338.888C252.459 339.704 251.595 340.04 250.811 340.04C249.931 340.04 249.387 339.64 248.891 339.032L247.899 339.8ZM261.287 338.904C260.695 339.656 259.975 340.04 258.903 340.04C257.543 340.04 256.551 338.936 256.455 337.64H262.503V337.24C262.503 334.76 261.063 333.32 258.951 333.32C256.743 333.32 255.111 334.936 255.111 337.256C255.111 339.432 256.551 341.192 258.903 341.192C260.295 341.192 261.351 340.776 262.231 339.64L261.287 338.904ZM256.455 336.584C256.615 335.32 257.527 334.472 258.903 334.472C260.279 334.472 261.111 335.32 261.159 336.584H256.455ZM264.37 344.648H265.618V339.672H265.65C266.114 340.52 267.186 341.192 268.53 341.192C270.626 341.192 272.274 339.496 272.274 337.256C272.274 334.984 270.69 333.32 268.338 333.32C267.25 333.32 266.338 333.8 265.65 334.6H265.618V333.512H264.37V344.648ZM265.618 337.256C265.618 335.688 266.658 334.472 268.274 334.472C269.89 334.472 270.93 335.688 270.93 337.256C270.93 338.824 269.89 340.04 268.274 340.04C266.658 340.04 265.618 338.824 265.618 337.256ZM274.903 335.288C275.495 334.744 276.327 334.472 277.127 334.472C278.295 334.472 278.983 335.032 278.983 336.12V336.344H278.503C276.663 336.344 273.783 336.488 273.783 338.968C273.783 340.424 275.047 341.192 276.567 341.192C277.703 341.192 278.535 340.648 279.031 339.88H279.063C279.063 340.2 279.063 340.664 279.143 341H280.343C280.279 340.616 280.231 340.136 280.231 339.704V336.488C280.231 334.376 279.303 333.32 277.095 333.32C276.007 333.32 274.887 333.688 274.119 334.472L274.903 335.288ZM278.983 337.4V337.88C278.951 339.096 278.215 340.136 276.775 340.136C275.831 340.136 275.127 339.784 275.127 338.84C275.127 337.832 276.151 337.4 277.735 337.4H278.983ZM282.512 341H283.76V337.352C283.76 335.64 284.432 334.568 285.952 334.568C286.176 334.568 286.416 334.6 286.624 334.664L286.704 333.4C286.528 333.336 286.352 333.32 286.192 333.32C284.96 333.32 284.032 334.008 283.696 334.744H283.664C283.664 334.328 283.632 333.912 283.632 333.512H282.448C282.448 334.008 282.512 334.6 282.512 335.288V341ZM288.825 335.288C289.417 334.744 290.249 334.472 291.049 334.472C292.217 334.472 292.905 335.032 292.905 336.12V336.344H292.425C290.585 336.344 287.705 336.488 287.705 338.968C287.705 340.424 288.969 341.192 290.489 341.192C291.625 341.192 292.457 340.648 292.953 339.88H292.985C292.985 340.2 292.985 340.664 293.065 341H294.265C294.201 340.616 294.153 340.136 294.153 339.704V336.488C294.153 334.376 293.225 333.32 291.017 333.32C289.929 333.32 288.809 333.688 288.041 334.472L288.825 335.288ZM292.905 337.4V337.88C292.873 339.096 292.137 340.136 290.697 340.136C289.753 340.136 289.049 339.784 289.049 338.84C289.049 337.832 290.073 337.4 291.657 337.4H292.905ZM300.53 333.512H298.322V331.384H297.074V333.512H295.442V334.568H297.074V338.68C297.074 340.232 297.362 341.192 299.138 341.192C299.602 341.192 300.162 341.112 300.594 340.92L300.546 339.784C300.21 339.96 299.81 340.04 299.442 340.04C298.338 340.04 298.322 339.272 298.322 338.312V334.568H300.53V333.512ZM307.803 338.904C307.211 339.656 306.491 340.04 305.419 340.04C304.059 340.04 303.067 338.936 302.971 337.64H309.019V337.24C309.019 334.76 307.579 333.32 305.467 333.32C303.259 333.32 301.627 334.936 301.627 337.256C301.627 339.432 303.067 341.192 305.419 341.192C306.811 341.192 307.867 340.776 308.747 339.64L307.803 338.904ZM302.971 336.584C303.131 335.32 304.043 334.472 305.419 334.472C306.795 334.472 307.627 335.32 307.675 336.584H302.971Z" fill="black"/>
<path d="M466.04 147.664H462.088V148.912H464.696V152.384C463.864 152.8 462.792 153.04 461.88 153.04C459.096 153.04 457.192 151.04 457.192 148.336C457.192 145.584 459.16 143.632 461.752 143.632C462.904 143.632 464.072 144.096 464.84 144.928L465.848 143.872C464.776 142.784 463.336 142.384 461.848 142.384C458.456 142.384 455.752 144.768 455.752 148.336C455.752 151.888 458.28 154.288 461.8 154.288C463.272 154.288 464.744 153.952 466.04 153.232V147.664ZM468.637 154H469.885V150.352C469.885 148.64 470.557 147.568 472.077 147.568C472.301 147.568 472.541 147.6 472.749 147.664L472.829 146.4C472.653 146.336 472.477 146.32 472.317 146.32C471.085 146.32 470.157 147.008 469.821 147.744H469.789C469.789 147.328 469.757 146.912 469.757 146.512H468.573C468.573 147.008 468.637 147.6 468.637 148.288V154ZM473.549 150.256C473.549 152.592 475.245 154.192 477.549 154.192C479.853 154.192 481.549 152.592 481.549 150.256C481.549 147.92 479.853 146.32 477.549 146.32C475.245 146.32 473.549 147.92 473.549 150.256ZM474.893 150.256C474.893 148.688 475.933 147.472 477.549 147.472C479.165 147.472 480.205 148.688 480.205 150.256C480.205 151.824 479.165 153.04 477.549 153.04C475.933 153.04 474.893 151.824 474.893 150.256ZM490.009 146.512H488.761V150.16C488.761 151.872 488.057 153.04 486.441 153.04C485.273 153.04 484.729 152.256 484.729 151.008V146.512H483.481V151.136C483.481 152.944 484.361 154.192 486.329 154.192C487.561 154.192 488.489 153.504 488.825 152.768H488.857C488.857 153.184 488.889 153.6 488.889 154H490.073C490.073 153.504 490.009 152.912 490.009 152.224V146.512ZM492.308 157.648H493.556V152.672H493.588C494.052 153.52 495.124 154.192 496.468 154.192C498.564 154.192 500.212 152.496 500.212 150.256C500.212 147.984 498.628 146.32 496.276 146.32C495.188 146.32 494.276 146.8 493.588 147.6H493.556V146.512H492.308V157.648ZM493.556 150.256C493.556 148.688 494.596 147.472 496.212 147.472C497.828 147.472 498.868 148.688 498.868 150.256C498.868 151.824 497.828 153.04 496.212 153.04C494.596 153.04 493.556 151.824 493.556 150.256ZM512.83 154H514.078V141.904H512.83V147.6H512.798C512.11 146.8 511.198 146.32 510.11 146.32C507.758 146.32 506.174 147.984 506.174 150.256C506.174 152.496 507.822 154.192 509.918 154.192C511.262 154.192 512.334 153.52 512.798 152.672H512.83V154ZM512.83 150.256C512.83 151.824 511.79 153.04 510.174 153.04C508.558 153.04 507.518 151.824 507.518 150.256C507.518 148.688 508.558 147.472 510.174 147.472C511.79 147.472 512.83 148.688 512.83 150.256ZM522.131 151.904C521.539 152.656 520.819 153.04 519.747 153.04C518.387 153.04 517.395 151.936 517.299 150.64H523.347V150.24C523.347 147.76 521.907 146.32 519.795 146.32C517.587 146.32 515.955 147.936 515.955 150.256C515.955 152.432 517.395 154.192 519.747 154.192C521.139 154.192 522.195 153.776 523.075 152.64L522.131 151.904ZM517.299 149.584C517.459 148.32 518.371 147.472 519.747 147.472C521.123 147.472 521.955 148.32 522.003 149.584H517.299ZM524.446 152.8C525.182 153.856 526.094 154.192 527.358 154.192C528.846 154.192 530.35 153.536 530.35 151.84C530.35 150.336 529.23 149.856 527.902 149.6C526.91 149.408 526.014 149.136 526.014 148.512C526.014 147.808 526.798 147.472 527.486 147.472C528.222 147.472 528.75 147.84 529.07 148.368L530.11 147.68C529.598 146.72 528.622 146.32 527.566 146.32C526.174 146.32 524.766 147.072 524.766 148.528C524.766 150.08 525.982 150.384 527.406 150.704C528.206 150.88 529.006 151.088 529.006 151.888C529.006 152.704 528.142 153.04 527.358 153.04C526.478 153.04 525.934 152.64 525.438 152.032L524.446 152.8ZM536.186 146.512H533.978V144.384H532.73V146.512H531.098V147.568H532.73V151.68C532.73 153.232 533.018 154.192 534.794 154.192C535.258 154.192 535.818 154.112 536.25 153.92L536.202 152.784C535.866 152.96 535.466 153.04 535.098 153.04C533.994 153.04 533.978 152.272 533.978 151.312V147.568H536.186V146.512ZM537.715 154H538.963V150.352C538.963 148.64 539.635 147.568 541.155 147.568C541.379 147.568 541.619 147.6 541.827 147.664L541.907 146.4C541.731 146.336 541.555 146.32 541.395 146.32C540.163 146.32 539.235 147.008 538.899 147.744H538.867C538.867 147.328 538.835 146.912 538.835 146.512H537.651C537.651 147.008 537.715 147.6 537.715 148.288V154ZM549.868 146.512H548.62V150.16C548.62 151.872 547.916 153.04 546.3 153.04C545.132 153.04 544.588 152.256 544.588 151.008V146.512H543.34V151.136C543.34 152.944 544.22 154.192 546.188 154.192C547.42 154.192 548.348 153.504 548.684 152.768H548.716C548.716 153.184 548.748 153.6 548.748 154H549.932C549.932 153.504 549.868 152.912 549.868 152.224V146.512ZM558.551 147.504C557.799 146.688 556.775 146.32 555.671 146.32C553.367 146.32 551.799 147.984 551.799 150.256C551.799 152.56 553.351 154.192 555.671 154.192C556.759 154.192 557.783 153.824 558.503 152.992L557.575 152.112C557.111 152.752 556.487 153.04 555.671 153.04C554.151 153.04 553.143 151.792 553.143 150.256C553.143 148.72 553.991 147.472 555.671 147.472C556.423 147.472 557.031 147.744 557.559 148.384L558.551 147.504ZM564.046 146.512H561.838V144.384H560.59V146.512H558.958V147.568H560.59V151.68C560.59 153.232 560.878 154.192 562.654 154.192C563.118 154.192 563.678 154.112 564.11 153.92L564.062 152.784C563.726 152.96 563.326 153.04 562.958 153.04C561.854 153.04 561.838 152.272 561.838 151.312V147.568H564.046V146.512ZM565.687 154H566.935V146.512H565.687V154ZM565.399 143.584C565.399 144.112 565.783 144.496 566.311 144.496C566.839 144.496 567.223 144.112 567.223 143.584C567.223 143.088 566.823 142.672 566.311 142.672C565.799 142.672 565.399 143.088 565.399 143.584ZM575.786 146.512H574.442L572.218 152.384H572.186L569.85 146.512H568.394L571.45 154H572.826L575.786 146.512ZM582.881 151.904C582.289 152.656 581.569 153.04 580.497 153.04C579.137 153.04 578.145 151.936 578.049 150.64H584.097V150.24C584.097 147.76 582.657 146.32 580.545 146.32C578.337 146.32 576.705 147.936 576.705 150.256C576.705 152.432 578.145 154.192 580.497 154.192C581.889 154.192 582.945 153.776 583.825 152.64L582.881 151.904ZM578.049 149.584C578.209 148.32 579.121 147.472 580.497 147.472C581.873 147.472 582.705 148.32 582.753 149.584H578.049ZM590.417 154H591.665V152.672H591.697C592.161 153.52 593.233 154.192 594.577 154.192C596.673 154.192 598.321 152.496 598.321 150.256C598.321 147.984 596.737 146.32 594.385 146.32C593.297 146.32 592.385 146.8 591.697 147.6H591.665V141.904H590.417V154ZM591.665 150.256C591.665 148.688 592.705 147.472 594.321 147.472C595.937 147.472 596.977 148.688 596.977 150.256C596.977 151.824 595.937 153.04 594.321 153.04C592.705 153.04 591.665 151.824 591.665 150.256ZM606.79 146.512H605.542V150.16C605.542 151.872 604.838 153.04 603.222 153.04C602.054 153.04 601.51 152.256 601.51 151.008V146.512H600.262V151.136C600.262 152.944 601.142 154.192 603.11 154.192C604.342 154.192 605.27 153.504 605.606 152.768H605.638C605.638 153.184 605.67 153.6 605.67 154H606.854C606.854 153.504 606.79 152.912 606.79 152.224V146.512ZM613.249 146.512H611.041V144.384H609.793V146.512H608.161V147.568H609.793V151.68C609.793 153.232 610.081 154.192 611.857 154.192C612.321 154.192 612.881 154.112 613.313 153.92L613.265 152.784C612.929 152.96 612.529 153.04 612.161 153.04C611.057 153.04 611.041 152.272 611.041 151.312V147.568H613.249V146.512ZM618.874 146.512H616.666V144.384H615.418V146.512H613.786V147.568H615.418V151.68C615.418 153.232 615.706 154.192 617.482 154.192C617.946 154.192 618.506 154.112 618.938 153.92L618.89 152.784C618.554 152.96 618.154 153.04 617.786 153.04C616.682 153.04 616.666 152.272 616.666 151.312V147.568H618.874V146.512ZM619.971 150.256C619.971 152.592 621.667 154.192 623.971 154.192C626.275 154.192 627.971 152.592 627.971 150.256C627.971 147.92 626.275 146.32 623.971 146.32C621.667 146.32 619.971 147.92 619.971 150.256ZM621.315 150.256C621.315 148.688 622.355 147.472 623.971 147.472C625.587 147.472 626.627 148.688 626.627 150.256C626.627 151.824 625.587 153.04 623.971 153.04C622.355 153.04 621.315 151.824 621.315 150.256ZM629.903 154H631.151V150.352C631.151 148.64 631.855 147.472 633.471 147.472C634.639 147.472 635.183 148.256 635.183 149.504V154H636.431V149.376C636.431 147.568 635.551 146.32 633.583 146.32C632.351 146.32 631.423 147.008 631.087 147.744H631.055C631.055 147.328 631.023 146.912 631.023 146.512H629.839C629.839 147.008 629.903 147.6 629.903 148.288V154ZM637.961 152.8C638.697 153.856 639.609 154.192 640.873 154.192C642.361 154.192 643.865 153.536 643.865 151.84C643.865 150.336 642.745 149.856 641.417 149.6C640.425 149.408 639.529 149.136 639.529 148.512C639.529 147.808 640.313 147.472 641.001 147.472C641.737 147.472 642.265 147.84 642.585 148.368L643.625 147.68C643.113 146.72 642.137 146.32 641.081 146.32C639.689 146.32 638.281 147.072 638.281 148.528C638.281 150.08 639.497 150.384 640.921 150.704C641.721 150.88 642.521 151.088 642.521 151.888C642.521 152.704 641.657 153.04 640.873 153.04C639.993 153.04 639.449 152.64 638.953 152.032L637.961 152.8ZM660.507 146.512H659.163L657.467 152.272H657.435L655.467 146.512H654.155L652.219 152.272H652.187L650.475 146.512H649.099L651.531 154H652.811L654.699 148.24H654.731L656.859 154H658.091L660.507 146.512ZM662.03 154H663.278V146.512H662.03V154ZM661.742 143.584C661.742 144.112 662.126 144.496 662.654 144.496C663.182 144.496 663.566 144.112 663.566 143.584C663.566 143.088 663.166 142.672 662.654 142.672C662.142 142.672 661.742 143.088 661.742 143.584ZM669.858 146.512H667.65V144.384H666.402V146.512H664.77V147.568H666.402V151.68C666.402 153.232 666.69 154.192 668.466 154.192C668.93 154.192 669.49 154.112 669.922 153.92L669.874 152.784C669.538 152.96 669.138 153.04 668.77 153.04C667.666 153.04 667.65 152.272 667.65 151.312V147.568H669.858V146.512ZM671.387 154H672.635V150.352C672.635 148.64 673.339 147.472 674.955 147.472C676.123 147.472 676.667 148.256 676.667 149.504V154H677.915V149.376C677.915 147.568 677.035 146.32 675.067 146.32C673.899 146.32 673.003 146.96 672.667 147.552H672.635V141.904H671.387V154ZM462.504 171.504C461.752 170.688 460.728 170.32 459.624 170.32C457.32 170.32 455.752 171.984 455.752 174.256C455.752 176.56 457.304 178.192 459.624 178.192C460.712 178.192 461.736 177.824 462.456 176.992L461.528 176.112C461.064 176.752 460.44 177.04 459.624 177.04C458.104 177.04 457.096 175.792 457.096 174.256C457.096 172.72 457.944 171.472 459.624 171.472C460.376 171.472 460.984 171.744 461.512 172.384L462.504 171.504ZM463.471 174.256C463.471 176.592 465.167 178.192 467.471 178.192C469.775 178.192 471.471 176.592 471.471 174.256C471.471 171.92 469.775 170.32 467.471 170.32C465.167 170.32 463.471 171.92 463.471 174.256ZM464.815 174.256C464.815 172.688 465.855 171.472 467.471 171.472C469.087 171.472 470.127 172.688 470.127 174.256C470.127 175.824 469.087 177.04 467.471 177.04C465.855 177.04 464.815 175.824 464.815 174.256ZM473.403 178H474.651V174.352C474.651 172.64 475.355 171.472 476.971 171.472C478.139 171.472 478.683 172.256 478.683 173.504V178H479.931V173.376C479.931 171.568 479.051 170.32 477.083 170.32C475.851 170.32 474.923 171.008 474.587 171.744H474.555C474.555 171.328 474.523 170.912 474.523 170.512H473.339C473.339 171.008 473.403 171.6 473.403 172.288V178ZM486.005 170.512H484.181V169.104C484.181 167.808 484.229 166.864 485.525 166.864C485.813 166.864 486.101 166.928 486.373 167.024L486.549 165.904C486.309 165.776 485.909 165.712 485.589 165.712C483.573 165.712 482.933 167.008 482.933 168.832V170.512H481.301V171.568H482.933V178H484.181V171.568H486.005V170.512ZM487.157 178H488.405V170.512H487.157V178ZM486.869 167.584C486.869 168.112 487.253 168.496 487.781 168.496C488.309 168.496 488.693 168.112 488.693 167.584C488.693 167.088 488.293 166.672 487.781 166.672C487.269 166.672 486.869 167.088 486.869 167.584ZM490.887 178H492.135V174.352C492.135 172.64 492.807 171.568 494.327 171.568C494.551 171.568 494.791 171.6 494.999 171.664L495.079 170.4C494.903 170.336 494.727 170.32 494.567 170.32C493.335 170.32 492.407 171.008 492.071 171.744H492.039C492.039 171.328 492.007 170.912 492.007 170.512H490.823C490.823 171.008 490.887 171.6 490.887 172.288V178ZM496.512 178H497.76V174.352C497.76 172.64 498.464 171.472 500.08 171.472C501.104 171.472 501.52 172.112 501.52 173.76V178H502.768V173.68C502.768 172.336 503.648 171.472 504.704 171.472C506.16 171.472 506.528 172.48 506.528 173.52V178H507.776V173.456C507.776 171.52 507.072 170.32 504.928 170.32C503.792 170.32 503.104 170.864 502.56 171.744C502.32 171.232 501.808 170.32 500.192 170.32C498.96 170.32 498.032 171.008 497.696 171.744H497.664C497.664 171.328 497.632 170.912 497.632 170.512H496.448C496.448 171.008 496.512 171.6 496.512 172.288V178ZM510.825 172.288C511.417 171.744 512.249 171.472 513.049 171.472C514.217 171.472 514.905 172.032 514.905 173.12V173.344H514.425C512.585 173.344 509.705 173.488 509.705 175.968C509.705 177.424 510.969 178.192 512.489 178.192C513.625 178.192 514.457 177.648 514.953 176.88H514.985C514.985 177.2 514.985 177.664 515.065 178H516.265C516.201 177.616 516.153 177.136 516.153 176.704V173.488C516.153 171.376 515.225 170.32 513.017 170.32C511.929 170.32 510.809 170.688 510.041 171.472L510.825 172.288ZM514.905 174.4V174.88C514.873 176.096 514.137 177.136 512.697 177.136C511.753 177.136 511.049 176.784 511.049 175.84C511.049 174.832 512.073 174.4 513.657 174.4H514.905ZM522.53 170.512H520.322V168.384H519.074V170.512H517.442V171.568H519.074V175.68C519.074 177.232 519.362 178.192 521.138 178.192C521.602 178.192 522.162 178.112 522.594 177.92L522.546 176.784C522.21 176.96 521.81 177.04 521.442 177.04C520.338 177.04 520.322 176.272 520.322 175.312V171.568H522.53V170.512ZM524.171 178H525.419V170.512H524.171V178ZM523.883 167.584C523.883 168.112 524.267 168.496 524.795 168.496C525.323 168.496 525.707 168.112 525.707 167.584C525.707 167.088 525.307 166.672 524.795 166.672C524.283 166.672 523.883 167.088 523.883 167.584ZM527.471 174.256C527.471 176.592 529.167 178.192 531.471 178.192C533.775 178.192 535.471 176.592 535.471 174.256C535.471 171.92 533.775 170.32 531.471 170.32C529.167 170.32 527.471 171.92 527.471 174.256ZM528.815 174.256C528.815 172.688 529.855 171.472 531.471 171.472C533.087 171.472 534.127 172.688 534.127 174.256C534.127 175.824 533.087 177.04 531.471 177.04C529.855 177.04 528.815 175.824 528.815 174.256ZM537.403 178H538.651V174.352C538.651 172.64 539.355 171.472 540.971 171.472C542.139 171.472 542.683 172.256 542.683 173.504V178H543.931V173.376C543.931 171.568 543.051 170.32 541.083 170.32C539.851 170.32 538.923 171.008 538.587 171.744H538.555C538.555 171.328 538.523 170.912 538.523 170.512H537.339C537.339 171.008 537.403 171.6 537.403 172.288V178ZM550.683 178H551.931V176.672H551.963C552.427 177.52 553.499 178.192 554.843 178.192C556.939 178.192 558.587 176.496 558.587 174.256C558.587 171.984 557.003 170.32 554.651 170.32C553.562 170.32 552.651 170.8 551.963 171.6H551.931V165.904H550.683V178ZM551.931 174.256C551.931 172.688 552.971 171.472 554.587 171.472C556.203 171.472 557.243 172.688 557.243 174.256C557.243 175.824 556.203 177.04 554.587 177.04C552.971 177.04 551.931 175.824 551.931 174.256ZM567.056 170.512H565.808V174.16C565.808 175.872 565.104 177.04 563.488 177.04C562.32 177.04 561.776 176.256 561.776 175.008V170.512H560.528V175.136C560.528 176.944 561.408 178.192 563.376 178.192C564.608 178.192 565.536 177.504 565.872 176.768H565.904C565.904 177.184 565.936 177.6 565.936 178H567.12C567.12 177.504 567.056 176.912 567.056 176.224V170.512ZM573.514 170.512H571.306V168.384H570.058V170.512H568.426V171.568H570.058V175.68C570.058 177.232 570.346 178.192 572.122 178.192C572.586 178.192 573.146 178.112 573.578 177.92L573.53 176.784C573.194 176.96 572.794 177.04 572.426 177.04C571.322 177.04 571.306 176.272 571.306 175.312V171.568H573.514V170.512ZM579.139 170.512H576.931V168.384H575.683V170.512H574.051V171.568H575.683V175.68C575.683 177.232 575.971 178.192 577.747 178.192C578.211 178.192 578.771 178.112 579.203 177.92L579.155 176.784C578.819 176.96 578.419 177.04 578.051 177.04C576.947 177.04 576.931 176.272 576.931 175.312V171.568H579.139V170.512ZM580.236 174.256C580.236 176.592 581.932 178.192 584.236 178.192C586.54 178.192 588.236 176.592 588.236 174.256C588.236 171.92 586.54 170.32 584.236 170.32C581.932 170.32 580.236 171.92 580.236 174.256ZM581.58 174.256C581.58 172.688 582.62 171.472 584.236 171.472C585.852 171.472 586.892 172.688 586.892 174.256C586.892 175.824 585.852 177.04 584.236 177.04C582.62 177.04 581.58 175.824 581.58 174.256ZM590.168 178H591.416V174.352C591.416 172.64 592.12 171.472 593.736 171.472C594.904 171.472 595.448 172.256 595.448 173.504V178H596.696V173.376C596.696 171.568 595.816 170.32 593.848 170.32C592.616 170.32 591.688 171.008 591.352 171.744H591.32C591.32 171.328 591.288 170.912 591.288 170.512H590.104C590.104 171.008 590.168 171.6 590.168 172.288V178ZM598.227 176.8C598.963 177.856 599.875 178.192 601.139 178.192C602.627 178.192 604.131 177.536 604.131 175.84C604.131 174.336 603.011 173.856 601.683 173.6C600.691 173.408 599.795 173.136 599.795 172.512C599.795 171.808 600.579 171.472 601.267 171.472C602.003 171.472 602.531 171.84 602.851 172.368L603.891 171.68C603.379 170.72 602.403 170.32 601.347 170.32C599.955 170.32 598.547 171.072 598.547 172.528C598.547 174.08 599.763 174.384 601.187 174.704C601.987 174.88 602.787 175.088 602.787 175.888C602.787 176.704 601.923 177.04 601.139 177.04C600.259 177.04 599.715 176.64 599.219 176.032L598.227 176.8Z" fill="black"/>
<path d="M445.888 339.712C445.056 338.736 443.984 338.384 442.72 338.384C440.736 338.384 438.864 339.472 438.864 341.648C438.864 343.536 440.08 344.24 441.68 344.768C443.696 345.44 444.64 345.68 444.64 347.072C444.64 348.368 443.328 349.04 442.176 349.04C441.2 349.04 440.24 348.608 439.76 347.776L438.608 348.72C439.376 349.856 440.784 350.288 442.096 350.288C444.144 350.288 446.08 349.232 446.08 346.976C446.08 344.752 444.448 344.176 442.688 343.616C440.88 343.04 440.304 342.576 440.304 341.536C440.304 340.192 441.536 339.632 442.72 339.632C443.536 339.632 444.336 339.952 444.784 340.672L445.888 339.712ZM452.171 342.512H449.963V340.384H448.715V342.512H447.083V343.568H448.715V347.68C448.715 349.232 449.003 350.192 450.779 350.192C451.243 350.192 451.803 350.112 452.235 349.92L452.187 348.784C451.851 348.96 451.451 349.04 451.083 349.04C449.979 349.04 449.963 348.272 449.963 347.312V343.568H452.171V342.512ZM454.388 344.288C454.98 343.744 455.812 343.472 456.612 343.472C457.78 343.472 458.468 344.032 458.468 345.12V345.344H457.988C456.148 345.344 453.268 345.488 453.268 347.968C453.268 349.424 454.532 350.192 456.052 350.192C457.188 350.192 458.02 349.648 458.516 348.88H458.548C458.548 349.2 458.548 349.664 458.628 350H459.828C459.764 349.616 459.716 349.136 459.716 348.704V345.488C459.716 343.376 458.788 342.32 456.58 342.32C455.492 342.32 454.372 342.688 453.604 343.472L454.388 344.288ZM458.468 346.4V346.88C458.436 348.096 457.7 349.136 456.26 349.136C455.316 349.136 454.612 348.784 454.612 347.84C454.612 346.832 455.636 346.4 457.22 346.4H458.468ZM468.317 343.504C467.565 342.688 466.541 342.32 465.437 342.32C463.133 342.32 461.565 343.984 461.565 346.256C461.565 348.56 463.117 350.192 465.437 350.192C466.525 350.192 467.549 349.824 468.269 348.992L467.341 348.112C466.877 348.752 466.253 349.04 465.437 349.04C463.917 349.04 462.909 347.792 462.909 346.256C462.909 344.72 463.757 343.472 465.437 343.472C466.189 343.472 466.797 343.744 467.325 344.384L468.317 343.504ZM469.715 350H470.963V346.064L474.675 350H476.515L472.531 345.92L476.147 342.512H474.371L470.963 345.808V337.904H469.715V350ZM482.104 350H483.352V348.672H483.384C483.848 349.52 484.92 350.192 486.264 350.192C488.36 350.192 490.008 348.496 490.008 346.256C490.008 343.984 488.424 342.32 486.072 342.32C484.984 342.32 484.072 342.8 483.384 343.6H483.352V337.904H482.104V350ZM483.352 346.256C483.352 344.688 484.392 343.472 486.008 343.472C487.624 343.472 488.664 344.688 488.664 346.256C488.664 347.824 487.624 349.04 486.008 349.04C484.392 349.04 483.352 347.824 483.352 346.256ZM498.478 342.512H497.23V346.16C497.23 347.872 496.526 349.04 494.91 349.04C493.742 349.04 493.198 348.256 493.198 347.008V342.512H491.95V347.136C491.95 348.944 492.83 350.192 494.798 350.192C496.03 350.192 496.958 349.504 497.294 348.768H497.326C497.326 349.184 497.358 349.6 497.358 350H498.542C498.542 349.504 498.478 348.912 498.478 348.224V342.512ZM504.936 342.512H502.728V340.384H501.48V342.512H499.848V343.568H501.48V347.68C501.48 349.232 501.768 350.192 503.544 350.192C504.008 350.192 504.568 350.112 505 349.92L504.952 348.784C504.616 348.96 504.216 349.04 503.848 349.04C502.744 349.04 502.728 348.272 502.728 347.312V343.568H504.936V342.512ZM510.561 342.512H508.353V340.384H507.105V342.512H505.473V343.568H507.105V347.68C507.105 349.232 507.393 350.192 509.169 350.192C509.633 350.192 510.193 350.112 510.625 349.92L510.577 348.784C510.241 348.96 509.841 349.04 509.473 349.04C508.369 349.04 508.353 348.272 508.353 347.312V343.568H510.561V342.512ZM511.658 346.256C511.658 348.592 513.354 350.192 515.658 350.192C517.962 350.192 519.658 348.592 519.658 346.256C519.658 343.92 517.962 342.32 515.658 342.32C513.354 342.32 511.658 343.92 511.658 346.256ZM513.002 346.256C513.002 344.688 514.042 343.472 515.658 343.472C517.274 343.472 518.314 344.688 518.314 346.256C518.314 347.824 517.274 349.04 515.658 349.04C514.042 349.04 513.002 347.824 513.002 346.256ZM521.59 350H522.838V346.352C522.838 344.64 523.542 343.472 525.158 343.472C526.326 343.472 526.87 344.256 526.87 345.504V350H528.118V345.376C528.118 343.568 527.238 342.32 525.27 342.32C524.038 342.32 523.11 343.008 522.774 343.744H522.742C522.742 343.328 522.71 342.912 522.71 342.512H521.526C521.526 343.008 521.59 343.6 521.59 344.288V350ZM529.649 348.8C530.385 349.856 531.297 350.192 532.561 350.192C534.049 350.192 535.553 349.536 535.553 347.84C535.553 346.336 534.433 345.856 533.105 345.6C532.113 345.408 531.217 345.136 531.217 344.512C531.217 343.808 532.001 343.472 532.689 343.472C533.425 343.472 533.953 343.84 534.273 344.368L535.313 343.68C534.801 342.72 533.825 342.32 532.769 342.32C531.377 342.32 529.969 343.072 529.969 344.528C529.969 346.08 531.185 346.384 532.609 346.704C533.409 346.88 534.209 347.088 534.209 347.888C534.209 348.704 533.345 349.04 532.561 349.04C531.681 349.04 531.137 348.64 530.641 348.032L529.649 348.8ZM548.115 342.512H546.771L544.547 348.384H544.515L542.179 342.512H540.723L543.779 350H545.155L548.115 342.512ZM555.209 347.904C554.617 348.656 553.897 349.04 552.825 349.04C551.465 349.04 550.473 347.936 550.377 346.64H556.425V346.24C556.425 343.76 554.985 342.32 552.873 342.32C550.665 342.32 549.033 343.936 549.033 346.256C549.033 348.432 550.473 350.192 552.825 350.192C554.217 350.192 555.273 349.776 556.153 348.64L555.209 347.904ZM550.377 345.584C550.537 344.32 551.449 343.472 552.825 343.472C554.201 343.472 555.033 344.32 555.081 345.584H550.377ZM558.356 350H559.604V346.352C559.604 344.64 560.276 343.568 561.796 343.568C562.02 343.568 562.26 343.6 562.468 343.664L562.548 342.4C562.372 342.336 562.196 342.32 562.036 342.32C560.804 342.32 559.876 343.008 559.54 343.744H559.508C559.508 343.328 559.476 342.912 559.476 342.512H558.292C558.292 343.008 558.356 343.6 558.356 344.288V350ZM568.077 342.512H565.869V340.384H564.621V342.512H562.989V343.568H564.621V347.68C564.621 349.232 564.909 350.192 566.685 350.192C567.149 350.192 567.709 350.112 568.141 349.92L568.093 348.784C567.757 348.96 567.357 349.04 566.989 349.04C565.885 349.04 565.869 348.272 565.869 347.312V343.568H568.077V342.512ZM569.718 350H570.966V342.512H569.718V350ZM569.43 339.584C569.43 340.112 569.814 340.496 570.342 340.496C570.87 340.496 571.254 340.112 571.254 339.584C571.254 339.088 570.854 338.672 570.342 338.672C569.83 338.672 569.43 339.088 569.43 339.584ZM579.77 343.504C579.018 342.688 577.994 342.32 576.89 342.32C574.586 342.32 573.018 343.984 573.018 346.256C573.018 348.56 574.57 350.192 576.89 350.192C577.978 350.192 579.002 349.824 579.722 348.992L578.794 348.112C578.33 348.752 577.706 349.04 576.89 349.04C575.37 349.04 574.362 347.792 574.362 346.256C574.362 344.72 575.21 343.472 576.89 343.472C577.642 343.472 578.25 343.744 578.778 344.384L579.77 343.504ZM581.856 344.288C582.448 343.744 583.28 343.472 584.08 343.472C585.248 343.472 585.936 344.032 585.936 345.12V345.344H585.456C583.616 345.344 580.736 345.488 580.736 347.968C580.736 349.424 582 350.192 583.52 350.192C584.656 350.192 585.488 349.648 585.984 348.88H586.016C586.016 349.2 586.016 349.664 586.096 350H587.296C587.232 349.616 587.184 349.136 587.184 348.704V345.488C587.184 343.376 586.256 342.32 584.048 342.32C582.96 342.32 581.84 342.688 581.072 343.472L581.856 344.288ZM585.936 346.4V346.88C585.904 348.096 585.168 349.136 583.728 349.136C582.784 349.136 582.08 348.784 582.08 347.84C582.08 346.832 583.104 346.4 584.688 346.4H585.936ZM589.577 350H590.825V337.904H589.577V350ZM593.421 350H594.669V337.904H593.421V350ZM603.521 342.512H602.161L599.937 348.384H599.905L597.585 342.512H596.129L599.233 350.048L598.721 351.456C598.449 352.192 598.145 352.688 597.329 352.688C596.977 352.688 596.705 352.656 596.449 352.56L596.289 353.648C596.625 353.808 597.057 353.84 597.409 353.84C598.913 353.84 599.409 352.976 599.905 351.712L603.521 342.512ZM609.965 350H611.213V343.568H613.037V342.512H611.213V341.104C611.213 339.808 611.261 338.864 612.557 338.864C612.845 338.864 613.133 338.928 613.405 339.024L613.581 337.904C613.341 337.776 612.941 337.712 612.621 337.712C610.605 337.712 609.965 339.008 609.965 340.832V342.512H608.333V343.568H609.965V350ZM613.94 346.256C613.94 348.592 615.636 350.192 617.94 350.192C620.244 350.192 621.94 348.592 621.94 346.256C621.94 343.92 620.244 342.32 617.94 342.32C615.636 342.32 613.94 343.92 613.94 346.256ZM615.284 346.256C615.284 344.688 616.324 343.472 617.94 343.472C619.556 343.472 620.596 344.688 620.596 346.256C620.596 347.824 619.556 349.04 617.94 349.04C616.324 349.04 615.284 347.824 615.284 346.256ZM623.872 350H625.12V346.352C625.12 344.64 625.792 343.568 627.312 343.568C627.536 343.568 627.776 343.6 627.984 343.664L628.064 342.4C627.888 342.336 627.712 342.32 627.552 342.32C626.32 342.32 625.392 343.008 625.056 343.744H625.024C625.024 343.328 624.992 342.912 624.992 342.512H623.808C623.808 343.008 623.872 343.6 623.872 344.288V350ZM641.422 342.512H640.174V343.792H640.142C639.646 342.8 638.51 342.32 637.502 342.32C635.118 342.32 633.518 343.808 633.518 346.256C633.518 348.464 635.15 350.096 637.502 350.096C638.494 350.096 639.55 349.664 640.142 348.704H640.174V349.664C640.174 351.248 639.582 352.688 637.342 352.688C636.19 352.688 635.342 352.24 634.558 351.392L633.662 352.416C634.718 353.456 635.886 353.84 637.342 353.84C639.966 353.84 641.422 352.368 641.422 349.664V342.512ZM634.862 346.256C634.862 344.688 635.934 343.472 637.502 343.472C639.086 343.472 640.174 344.608 640.174 346.224C640.174 347.664 639.214 348.944 637.502 348.944C636.046 348.944 634.862 347.776 634.862 346.256ZM643.731 350H644.979V346.352C644.979 344.64 645.651 343.568 647.171 343.568C647.395 343.568 647.635 343.6 647.843 343.664L647.923 342.4C647.747 342.336 647.571 342.32 647.411 342.32C646.179 342.32 645.251 343.008 644.915 343.744H644.883C644.883 343.328 644.851 342.912 644.851 342.512H643.667C643.667 343.008 643.731 343.6 643.731 344.288V350ZM648.643 346.256C648.643 348.592 650.339 350.192 652.643 350.192C654.947 350.192 656.643 348.592 656.643 346.256C656.643 343.92 654.947 342.32 652.643 342.32C650.339 342.32 648.643 343.92 648.643 346.256ZM649.987 346.256C649.987 344.688 651.027 343.472 652.643 343.472C654.259 343.472 655.299 344.688 655.299 346.256C655.299 347.824 654.259 349.04 652.643 349.04C651.027 349.04 649.987 347.824 649.987 346.256ZM665.103 342.512H663.855V346.16C663.855 347.872 663.151 349.04 661.535 349.04C660.367 349.04 659.823 348.256 659.823 347.008V342.512H658.575V347.136C658.575 348.944 659.455 350.192 661.423 350.192C662.655 350.192 663.583 349.504 663.919 348.768H663.951C663.951 349.184 663.983 349.6 663.983 350H665.167C665.167 349.504 665.103 348.912 665.103 348.224V342.512ZM667.401 353.648H668.649V348.672H668.681C669.145 349.52 670.217 350.192 671.561 350.192C673.657 350.192 675.305 348.496 675.305 346.256C675.305 343.984 673.721 342.32 671.369 342.32C670.281 342.32 669.369 342.8 668.681 343.6H668.649V342.512H667.401V353.648ZM668.649 346.256C668.649 344.688 669.689 343.472 671.305 343.472C672.921 343.472 673.961 344.688 673.961 346.256C673.961 347.824 672.921 349.04 671.305 349.04C669.689 349.04 668.649 347.824 668.649 346.256ZM682.991 347.904C682.399 348.656 681.679 349.04 680.607 349.04C679.247 349.04 678.255 347.936 678.159 346.64H684.207V346.24C684.207 343.76 682.767 342.32 680.655 342.32C678.447 342.32 676.815 343.936 676.815 346.256C676.815 348.432 678.255 350.192 680.607 350.192C681.999 350.192 683.055 349.776 683.935 348.64L682.991 347.904ZM678.159 345.584C678.319 344.32 679.231 343.472 680.607 343.472C681.983 343.472 682.815 344.32 682.863 345.584H678.159ZM692.361 350H693.609V337.904H692.361V343.6H692.329C691.641 342.8 690.729 342.32 689.641 342.32C687.289 342.32 685.705 343.984 685.705 346.256C685.705 348.496 687.353 350.192 689.449 350.192C690.793 350.192 691.865 349.52 692.329 348.672H692.361V350ZM692.361 346.256C692.361 347.824 691.321 349.04 689.705 349.04C688.089 349.04 687.049 347.824 687.049 346.256C687.049 344.688 688.089 343.472 689.705 343.472C691.321 343.472 692.361 344.688 692.361 346.256ZM439.12 374H440.368V372.672H440.4C440.864 373.52 441.936 374.192 443.28 374.192C445.376 374.192 447.024 372.496 447.024 370.256C447.024 367.984 445.44 366.32 443.088 366.32C442 366.32 441.088 366.8 440.4 367.6H440.368V361.904H439.12V374ZM440.368 370.256C440.368 368.688 441.408 367.472 443.024 367.472C444.64 367.472 445.68 368.688 445.68 370.256C445.68 371.824 444.64 373.04 443.024 373.04C441.408 373.04 440.368 371.824 440.368 370.256ZM455.493 366.512H454.245V370.16C454.245 371.872 453.541 373.04 451.925 373.04C450.757 373.04 450.213 372.256 450.213 371.008V366.512H448.965V371.136C448.965 372.944 449.845 374.192 451.813 374.192C453.045 374.192 453.973 373.504 454.309 372.768H454.341C454.341 373.184 454.373 373.6 454.373 374H455.557C455.557 373.504 455.493 372.912 455.493 372.224V366.512ZM461.952 366.512H459.744V364.384H458.496V366.512H456.864V367.568H458.496V371.68C458.496 373.232 458.784 374.192 460.56 374.192C461.024 374.192 461.584 374.112 462.016 373.92L461.968 372.784C461.632 372.96 461.232 373.04 460.864 373.04C459.76 373.04 459.744 372.272 459.744 371.312V367.568H461.952V366.512ZM467.577 366.512H465.369V364.384H464.121V366.512H462.489V367.568H464.121V371.68C464.121 373.232 464.409 374.192 466.185 374.192C466.649 374.192 467.209 374.112 467.641 373.92L467.593 372.784C467.257 372.96 466.857 373.04 466.489 373.04C465.385 373.04 465.369 372.272 465.369 371.312V367.568H467.577V366.512ZM468.674 370.256C468.674 372.592 470.37 374.192 472.674 374.192C474.978 374.192 476.674 372.592 476.674 370.256C476.674 367.92 474.978 366.32 472.674 366.32C470.37 366.32 468.674 367.92 468.674 370.256ZM470.018 370.256C470.018 368.688 471.058 367.472 472.674 367.472C474.29 367.472 475.33 368.688 475.33 370.256C475.33 371.824 474.29 373.04 472.674 373.04C471.058 373.04 470.018 371.824 470.018 370.256ZM478.606 374H479.854V370.352C479.854 368.64 480.558 367.472 482.174 367.472C483.342 367.472 483.886 368.256 483.886 369.504V374H485.134V369.376C485.134 367.568 484.254 366.32 482.286 366.32C481.054 366.32 480.126 367.008 479.79 367.744H479.758C479.758 367.328 479.726 366.912 479.726 366.512H478.542C478.542 367.008 478.606 367.6 478.606 368.288V374ZM486.665 372.8C487.401 373.856 488.312 374.192 489.577 374.192C491.065 374.192 492.569 373.536 492.569 371.84C492.569 370.336 491.449 369.856 490.121 369.6C489.129 369.408 488.233 369.136 488.233 368.512C488.233 367.808 489.017 367.472 489.705 367.472C490.441 367.472 490.969 367.84 491.289 368.368L492.329 367.68C491.817 366.72 490.841 366.32 489.785 366.32C488.393 366.32 486.985 367.072 486.985 368.528C486.985 370.08 488.201 370.384 489.625 370.704C490.424 370.88 491.225 371.088 491.225 371.888C491.225 372.704 490.361 373.04 489.577 373.04C488.697 373.04 488.153 372.64 487.657 372.032L486.665 372.8Z" fill="black"/>
</svg>
