<svg width="571" height="285" viewBox="0 0 571 285" fill="none" xmlns="http://www.w3.org/2000/svg">
<rect x="105.5" y="48.5" width="88" height="35" rx="3.5" fill="#6C3078"/>
<path d="M126.106 70H129.802C132.182 70 135.052 68.432 135.052 65.044C135.052 61.684 132.616 60.088 130.012 60.088H126.106V70ZM127.87 68.404V61.684H129.48C131.636 61.684 133.204 62.636 133.204 65.044C133.204 67.452 131.398 68.404 129.186 68.404H127.87ZM143.043 67.228V66.766C143.043 64.428 141.769 63.112 139.893 63.112C137.863 63.112 136.239 64.526 136.239 66.64C136.239 68.754 137.863 70.168 139.893 70.168C140.957 70.168 141.951 69.79 142.735 68.824L141.531 67.914C141.111 68.432 140.565 68.824 139.725 68.824C138.787 68.824 138.031 68.222 137.919 67.228H143.043ZM137.919 65.968C138.045 65.002 138.661 64.372 139.655 64.372C140.705 64.372 141.349 64.988 141.363 65.968H137.919ZM145.216 70H146.896V64.708H148.45V63.28H146.896V62.062C146.896 61.32 147.036 60.676 147.974 60.676C148.212 60.676 148.436 60.718 148.674 60.774L148.786 59.346C148.436 59.276 148.086 59.248 147.722 59.248C145.636 59.248 145.216 60.466 145.216 62.328V63.28H143.83V64.708H145.216V70ZM153.736 70H155.248V66.136C155.248 65.184 155.248 63.112 152.378 63.112C151.314 63.112 150.264 63.434 149.522 64.19L150.404 65.072C150.852 64.652 151.496 64.372 152.196 64.372C153.092 64.372 153.736 64.806 153.736 65.632V65.814H153.316C151.636 65.814 149.088 65.968 149.088 68.152C149.088 69.482 150.292 70.168 151.538 70.168C152.434 70.168 153.218 69.832 153.694 69.076H153.736V70ZM153.638 67.368C153.638 68.306 153.092 68.908 151.944 68.908C151.398 68.908 150.768 68.642 150.768 68.026C150.768 67.06 152.364 66.99 153.288 66.99H153.638V67.368ZM163.188 63.28H161.508V66.948C161.508 67.844 161.074 68.656 159.968 68.656C158.792 68.656 158.736 67.424 158.736 66.682V63.28H157.056V67.522C157.056 68.894 157.7 70.168 159.506 70.168C160.626 70.168 161.256 69.594 161.564 68.922H161.592V70H163.188V63.28ZM165.123 70H166.803V59.416H165.123V70ZM169.333 64.708V67.788C169.333 69.37 169.753 70.168 171.531 70.168C171.923 70.168 172.511 70.112 172.861 69.944V68.53C172.651 68.684 172.245 68.74 171.951 68.74C171.209 68.74 171.013 68.32 171.013 67.648V64.708H172.861V63.28H171.013V61.334H169.333V63.28H167.947V64.708H169.333Z" fill="white"/>
<rect x="105.5" y="48.5" width="88" height="35" rx="3.5" stroke="#6C3078"/>
<rect x="482.5" y="48.5" width="88" height="35" rx="3.5" fill="#3C1053"/>
<path d="M503.106 70H506.802C509.182 70 512.052 68.432 512.052 65.044C512.052 61.684 509.616 60.088 507.012 60.088H503.106V70ZM504.87 68.404V61.684H506.48C508.636 61.684 510.204 62.636 510.204 65.044C510.204 67.452 508.398 68.404 506.186 68.404H504.87ZM520.043 67.228V66.766C520.043 64.428 518.769 63.112 516.893 63.112C514.863 63.112 513.239 64.526 513.239 66.64C513.239 68.754 514.863 70.168 516.893 70.168C517.957 70.168 518.951 69.79 519.735 68.824L518.531 67.914C518.111 68.432 517.565 68.824 516.725 68.824C515.787 68.824 515.031 68.222 514.919 67.228H520.043ZM514.919 65.968C515.045 65.002 515.661 64.372 516.655 64.372C517.705 64.372 518.349 64.988 518.363 65.968H514.919ZM522.216 70H523.896V64.708H525.45V63.28H523.896V62.062C523.896 61.32 524.036 60.676 524.974 60.676C525.212 60.676 525.436 60.718 525.674 60.774L525.786 59.346C525.436 59.276 525.086 59.248 524.722 59.248C522.636 59.248 522.216 60.466 522.216 62.328V63.28H520.83V64.708H522.216V70ZM530.736 70H532.248V66.136C532.248 65.184 532.248 63.112 529.378 63.112C528.314 63.112 527.264 63.434 526.522 64.19L527.404 65.072C527.852 64.652 528.496 64.372 529.196 64.372C530.092 64.372 530.736 64.806 530.736 65.632V65.814H530.316C528.636 65.814 526.088 65.968 526.088 68.152C526.088 69.482 527.292 70.168 528.538 70.168C529.434 70.168 530.218 69.832 530.694 69.076H530.736V70ZM530.638 67.368C530.638 68.306 530.092 68.908 528.944 68.908C528.398 68.908 527.768 68.642 527.768 68.026C527.768 67.06 529.364 66.99 530.288 66.99H530.638V67.368ZM540.188 63.28H538.508V66.948C538.508 67.844 538.074 68.656 536.968 68.656C535.792 68.656 535.736 67.424 535.736 66.682V63.28H534.056V67.522C534.056 68.894 534.7 70.168 536.506 70.168C537.626 70.168 538.256 69.594 538.564 68.922H538.592V70H540.188V63.28ZM542.123 70H543.803V59.416H542.123V70ZM546.333 64.708V67.788C546.333 69.37 546.753 70.168 548.531 70.168C548.923 70.168 549.511 70.112 549.861 69.944V68.53C549.651 68.684 549.245 68.74 548.951 68.74C548.209 68.74 548.013 68.32 548.013 67.648V64.708H549.861V63.28H548.013V61.334H546.333V63.28H544.947V64.708H546.333Z" fill="white"/>
<rect x="482.5" y="48.5" width="88" height="35" rx="3.5" stroke="#3C1053"/>
<rect x="482.5" y="115.5" width="88" height="35" rx="3.5" fill="#E8CBEA"/>
<path d="M503.106 137H506.802C509.182 137 512.052 135.432 512.052 132.044C512.052 128.684 509.616 127.088 507.012 127.088H503.106V137ZM504.87 135.404V128.684H506.48C508.636 128.684 510.204 129.636 510.204 132.044C510.204 134.452 508.398 135.404 506.186 135.404H504.87ZM520.043 134.228V133.766C520.043 131.428 518.769 130.112 516.893 130.112C514.863 130.112 513.239 131.526 513.239 133.64C513.239 135.754 514.863 137.168 516.893 137.168C517.957 137.168 518.951 136.79 519.735 135.824L518.531 134.914C518.111 135.432 517.565 135.824 516.725 135.824C515.787 135.824 515.031 135.222 514.919 134.228H520.043ZM514.919 132.968C515.045 132.002 515.661 131.372 516.655 131.372C517.705 131.372 518.349 131.988 518.363 132.968H514.919ZM522.216 137H523.896V131.708H525.45V130.28H523.896V129.062C523.896 128.32 524.036 127.676 524.974 127.676C525.212 127.676 525.436 127.718 525.674 127.774L525.786 126.346C525.436 126.276 525.086 126.248 524.722 126.248C522.636 126.248 522.216 127.466 522.216 129.328V130.28H520.83V131.708H522.216V137ZM530.736 137H532.248V133.136C532.248 132.184 532.248 130.112 529.378 130.112C528.314 130.112 527.264 130.434 526.522 131.19L527.404 132.072C527.852 131.652 528.496 131.372 529.196 131.372C530.092 131.372 530.736 131.806 530.736 132.632V132.814H530.316C528.636 132.814 526.088 132.968 526.088 135.152C526.088 136.482 527.292 137.168 528.538 137.168C529.434 137.168 530.218 136.832 530.694 136.076H530.736V137ZM530.638 134.368C530.638 135.306 530.092 135.908 528.944 135.908C528.398 135.908 527.768 135.642 527.768 135.026C527.768 134.06 529.364 133.99 530.288 133.99H530.638V134.368ZM540.188 130.28H538.508V133.948C538.508 134.844 538.074 135.656 536.968 135.656C535.792 135.656 535.736 134.424 535.736 133.682V130.28H534.056V134.522C534.056 135.894 534.7 137.168 536.506 137.168C537.626 137.168 538.256 136.594 538.564 135.922H538.592V137H540.188V130.28ZM542.123 137H543.803V126.416H542.123V137ZM546.333 131.708V134.788C546.333 136.37 546.753 137.168 548.531 137.168C548.923 137.168 549.511 137.112 549.861 136.944V135.53C549.651 135.684 549.245 135.74 548.951 135.74C548.209 135.74 548.013 135.32 548.013 134.648V131.708H549.861V130.28H548.013V128.334H546.333V130.28H544.947V131.708H546.333Z" fill="#3C1053"/>
<rect x="482.5" y="115.5" width="88" height="35" rx="3.5" stroke="#3C1053"/>
<rect x="235.5" y="48.5" width="79" height="35" rx="3.5" fill="#B056BC"/>
<path d="M256.106 70H257.87V65.632H262.504V70H264.268V60.088H262.504V64.036H257.87V60.088H256.106V70ZM265.993 66.64C265.993 68.754 267.617 70.168 269.647 70.168C271.677 70.168 273.301 68.754 273.301 66.64C273.301 64.526 271.677 63.112 269.647 63.112C267.617 63.112 265.993 64.526 265.993 66.64ZM267.673 66.64C267.673 65.59 268.415 64.624 269.647 64.624C270.879 64.624 271.621 65.59 271.621 66.64C271.621 67.69 270.879 68.656 269.647 68.656C268.415 68.656 267.673 67.69 267.673 66.64ZM276.708 70H278.5L281.146 63.28H279.424L277.618 67.984H277.59L275.798 63.28H273.964L276.708 70ZM288.602 67.228V66.766C288.602 64.428 287.328 63.112 285.452 63.112C283.422 63.112 281.798 64.526 281.798 66.64C281.798 68.754 283.422 70.168 285.452 70.168C286.516 70.168 287.51 69.79 288.294 68.824L287.09 67.914C286.67 68.432 286.124 68.824 285.284 68.824C284.346 68.824 283.59 68.222 283.478 67.228H288.602ZM283.478 65.968C283.604 65.002 284.22 64.372 285.214 64.372C286.264 64.372 286.908 64.988 286.922 65.968H283.478ZM290.173 70H291.853V66.402C291.853 66.038 292.077 64.708 293.659 64.708C293.925 64.708 294.191 64.764 294.471 64.834V63.21C294.275 63.154 294.079 63.112 293.869 63.112C292.987 63.112 292.245 63.574 291.881 64.344H291.853V63.28H290.173V70Z" fill="white"/>
<rect x="235.5" y="48.5" width="79" height="35" rx="3.5" stroke="#B056BC"/>
<g opacity="0.5">
<rect x="351.5" y="48.5" width="97" height="35" rx="3.5" fill="#6C3078"/>
<path d="M372.106 70H375.802C378.182 70 381.052 68.432 381.052 65.044C381.052 61.684 378.616 60.088 376.012 60.088H372.106V70ZM373.87 68.404V61.684H375.48C377.636 61.684 379.204 62.636 379.204 65.044C379.204 67.452 377.398 68.404 375.186 68.404H373.87ZM382.603 70H384.283V63.28H382.603V70ZM382.365 60.998C382.365 61.53 382.813 62.006 383.429 62.006C384.045 62.006 384.521 61.572 384.521 60.998C384.521 60.424 384.045 59.99 383.429 59.99C382.813 59.99 382.365 60.466 382.365 60.998ZM390.916 64.134C390.37 63.392 389.418 63.112 388.522 63.112C387.164 63.112 385.82 63.784 385.82 65.282C385.82 67.844 389.446 66.752 389.446 68.138C389.446 68.67 388.816 68.908 388.326 68.908C387.612 68.908 387.164 68.558 386.73 68.082L385.61 69.132C386.296 69.902 387.192 70.168 388.228 70.168C389.6 70.168 391.126 69.608 391.126 68.012C391.126 65.394 387.5 66.374 387.5 65.17C387.5 64.666 388.032 64.456 388.48 64.456C389.054 64.456 389.474 64.694 389.796 65.142L390.916 64.134ZM396.632 70H398.144V66.136C398.144 65.184 398.144 63.112 395.274 63.112C394.21 63.112 393.16 63.434 392.418 64.19L393.3 65.072C393.748 64.652 394.392 64.372 395.092 64.372C395.988 64.372 396.632 64.806 396.632 65.632V65.814H396.212C394.532 65.814 391.984 65.968 391.984 68.152C391.984 69.482 393.188 70.168 394.434 70.168C395.33 70.168 396.114 69.832 396.59 69.076H396.632V70ZM396.534 67.368C396.534 68.306 395.988 68.908 394.84 68.908C394.294 68.908 393.664 68.642 393.664 68.026C393.664 67.06 395.26 66.99 396.184 66.99H396.534V67.368ZM399.952 70H401.548V68.992H401.576C402.066 69.804 402.948 70.168 403.886 70.168C405.958 70.168 407.204 68.628 407.204 66.64C407.204 64.652 405.874 63.112 403.956 63.112C402.696 63.112 402.024 63.7 401.674 64.134H401.632V59.416H399.952V70ZM405.524 66.64C405.524 67.69 404.782 68.656 403.55 68.656C402.318 68.656 401.576 67.69 401.576 66.64C401.576 65.59 402.318 64.624 403.55 64.624C404.782 64.624 405.524 65.59 405.524 66.64ZM408.798 70H410.478V59.416H408.798V70ZM418.875 67.228V66.766C418.875 64.428 417.601 63.112 415.725 63.112C413.695 63.112 412.071 64.526 412.071 66.64C412.071 68.754 413.695 70.168 415.725 70.168C416.789 70.168 417.783 69.79 418.567 68.824L417.363 67.914C416.943 68.432 416.397 68.824 415.557 68.824C414.619 68.824 413.863 68.222 413.751 67.228H418.875ZM413.751 65.968C413.877 65.002 414.493 64.372 415.487 64.372C416.537 64.372 417.181 64.988 417.195 65.968H413.751ZM425.766 70H427.362V59.416H425.682V64.134H425.64C425.29 63.7 424.618 63.112 423.358 63.112C421.44 63.112 420.11 64.652 420.11 66.64C420.11 68.628 421.356 70.168 423.428 70.168C424.366 70.168 425.248 69.804 425.738 68.992H425.766V70ZM421.79 66.64C421.79 65.59 422.532 64.624 423.764 64.624C424.996 64.624 425.738 65.59 425.738 66.64C425.738 67.69 424.996 68.656 423.764 68.656C422.532 68.656 421.79 67.69 421.79 66.64Z" fill="white"/>
<rect x="351.5" y="48.5" width="97" height="35" rx="3.5" stroke="#6C3078"/>
</g>
<rect x="105.5" y="115.5" width="88" height="35" rx="3.5" fill="#EDE9ED"/>
<path d="M126.106 137H129.802C132.182 137 135.052 135.432 135.052 132.044C135.052 128.684 132.616 127.088 130.012 127.088H126.106V137ZM127.87 135.404V128.684H129.48C131.636 128.684 133.204 129.636 133.204 132.044C133.204 134.452 131.398 135.404 129.186 135.404H127.87ZM143.043 134.228V133.766C143.043 131.428 141.769 130.112 139.893 130.112C137.863 130.112 136.239 131.526 136.239 133.64C136.239 135.754 137.863 137.168 139.893 137.168C140.957 137.168 141.951 136.79 142.735 135.824L141.531 134.914C141.111 135.432 140.565 135.824 139.725 135.824C138.787 135.824 138.031 135.222 137.919 134.228H143.043ZM137.919 132.968C138.045 132.002 138.661 131.372 139.655 131.372C140.705 131.372 141.349 131.988 141.363 132.968H137.919ZM145.216 137H146.896V131.708H148.45V130.28H146.896V129.062C146.896 128.32 147.036 127.676 147.974 127.676C148.212 127.676 148.436 127.718 148.674 127.774L148.786 126.346C148.436 126.276 148.086 126.248 147.722 126.248C145.636 126.248 145.216 127.466 145.216 129.328V130.28H143.83V131.708H145.216V137ZM153.736 137H155.248V133.136C155.248 132.184 155.248 130.112 152.378 130.112C151.314 130.112 150.264 130.434 149.522 131.19L150.404 132.072C150.852 131.652 151.496 131.372 152.196 131.372C153.092 131.372 153.736 131.806 153.736 132.632V132.814H153.316C151.636 132.814 149.088 132.968 149.088 135.152C149.088 136.482 150.292 137.168 151.538 137.168C152.434 137.168 153.218 136.832 153.694 136.076H153.736V137ZM153.638 134.368C153.638 135.306 153.092 135.908 151.944 135.908C151.398 135.908 150.768 135.642 150.768 135.026C150.768 134.06 152.364 133.99 153.288 133.99H153.638V134.368ZM163.188 130.28H161.508V133.948C161.508 134.844 161.074 135.656 159.968 135.656C158.792 135.656 158.736 134.424 158.736 133.682V130.28H157.056V134.522C157.056 135.894 157.7 137.168 159.506 137.168C160.626 137.168 161.256 136.594 161.564 135.922H161.592V137H163.188V130.28ZM165.123 137H166.803V126.416H165.123V137ZM169.333 131.708V134.788C169.333 136.37 169.753 137.168 171.531 137.168C171.923 137.168 172.511 137.112 172.861 136.944V135.53C172.651 135.684 172.245 135.74 171.951 135.74C171.209 135.74 171.013 135.32 171.013 134.648V131.708H172.861V130.28H171.013V128.334H169.333V130.28H167.947V131.708H169.333Z" fill="#6C3078"/>
<rect x="105.5" y="115.5" width="88" height="35" rx="3.5" stroke="#6C3078"/>
<rect x="351.5" y="115.5" width="97" height="35" rx="3.5" fill="#EDE9ED"/>
<path d="M372.106 137H375.802C378.182 137 381.052 135.432 381.052 132.044C381.052 128.684 378.616 127.088 376.012 127.088H372.106V137ZM373.87 135.404V128.684H375.48C377.636 128.684 379.204 129.636 379.204 132.044C379.204 134.452 377.398 135.404 375.186 135.404H373.87ZM382.603 137H384.283V130.28H382.603V137ZM382.365 127.998C382.365 128.53 382.813 129.006 383.429 129.006C384.045 129.006 384.521 128.572 384.521 127.998C384.521 127.424 384.045 126.99 383.429 126.99C382.813 126.99 382.365 127.466 382.365 127.998ZM390.916 131.134C390.37 130.392 389.418 130.112 388.522 130.112C387.164 130.112 385.82 130.784 385.82 132.282C385.82 134.844 389.446 133.752 389.446 135.138C389.446 135.67 388.816 135.908 388.326 135.908C387.612 135.908 387.164 135.558 386.73 135.082L385.61 136.132C386.296 136.902 387.192 137.168 388.228 137.168C389.6 137.168 391.126 136.608 391.126 135.012C391.126 132.394 387.5 133.374 387.5 132.17C387.5 131.666 388.032 131.456 388.48 131.456C389.054 131.456 389.474 131.694 389.796 132.142L390.916 131.134ZM396.632 137H398.144V133.136C398.144 132.184 398.144 130.112 395.274 130.112C394.21 130.112 393.16 130.434 392.418 131.19L393.3 132.072C393.748 131.652 394.392 131.372 395.092 131.372C395.988 131.372 396.632 131.806 396.632 132.632V132.814H396.212C394.532 132.814 391.984 132.968 391.984 135.152C391.984 136.482 393.188 137.168 394.434 137.168C395.33 137.168 396.114 136.832 396.59 136.076H396.632V137ZM396.534 134.368C396.534 135.306 395.988 135.908 394.84 135.908C394.294 135.908 393.664 135.642 393.664 135.026C393.664 134.06 395.26 133.99 396.184 133.99H396.534V134.368ZM399.952 137H401.548V135.992H401.576C402.066 136.804 402.948 137.168 403.886 137.168C405.958 137.168 407.204 135.628 407.204 133.64C407.204 131.652 405.874 130.112 403.956 130.112C402.696 130.112 402.024 130.7 401.674 131.134H401.632V126.416H399.952V137ZM405.524 133.64C405.524 134.69 404.782 135.656 403.55 135.656C402.318 135.656 401.576 134.69 401.576 133.64C401.576 132.59 402.318 131.624 403.55 131.624C404.782 131.624 405.524 132.59 405.524 133.64ZM408.798 137H410.478V126.416H408.798V137ZM418.875 134.228V133.766C418.875 131.428 417.601 130.112 415.725 130.112C413.695 130.112 412.071 131.526 412.071 133.64C412.071 135.754 413.695 137.168 415.725 137.168C416.789 137.168 417.783 136.79 418.567 135.824L417.363 134.914C416.943 135.432 416.397 135.824 415.557 135.824C414.619 135.824 413.863 135.222 413.751 134.228H418.875ZM413.751 132.968C413.877 132.002 414.493 131.372 415.487 131.372C416.537 131.372 417.181 131.988 417.195 132.968H413.751ZM425.766 137H427.362V126.416H425.682V131.134H425.64C425.29 130.7 424.618 130.112 423.358 130.112C421.44 130.112 420.11 131.652 420.11 133.64C420.11 135.628 421.356 137.168 423.428 137.168C424.366 137.168 425.248 136.804 425.738 135.992H425.766V137ZM421.79 133.64C421.79 132.59 422.532 131.624 423.764 131.624C424.996 131.624 425.738 132.59 425.738 133.64C425.738 134.69 424.996 135.656 423.764 135.656C422.532 135.656 421.79 134.69 421.79 133.64Z" fill="#9EA6B5"/>
<rect x="351.5" y="115.5" width="97" height="35" rx="3.5" stroke="#9EA6B5"/>
<rect x="235.5" y="115.5" width="79" height="35" rx="3.5" fill="white"/>
<path d="M256.106 137H257.87V132.632H262.504V137H264.268V127.088H262.504V131.036H257.87V127.088H256.106V137ZM265.993 133.64C265.993 135.754 267.617 137.168 269.647 137.168C271.677 137.168 273.301 135.754 273.301 133.64C273.301 131.526 271.677 130.112 269.647 130.112C267.617 130.112 265.993 131.526 265.993 133.64ZM267.673 133.64C267.673 132.59 268.415 131.624 269.647 131.624C270.879 131.624 271.621 132.59 271.621 133.64C271.621 134.69 270.879 135.656 269.647 135.656C268.415 135.656 267.673 134.69 267.673 133.64ZM276.708 137H278.5L281.146 130.28H279.424L277.618 134.984H277.59L275.798 130.28H273.964L276.708 137ZM288.602 134.228V133.766C288.602 131.428 287.328 130.112 285.452 130.112C283.422 130.112 281.798 131.526 281.798 133.64C281.798 135.754 283.422 137.168 285.452 137.168C286.516 137.168 287.51 136.79 288.294 135.824L287.09 134.914C286.67 135.432 286.124 135.824 285.284 135.824C284.346 135.824 283.59 135.222 283.478 134.228H288.602ZM283.478 132.968C283.604 132.002 284.22 131.372 285.214 131.372C286.264 131.372 286.908 131.988 286.922 132.968H283.478ZM290.173 137H291.853V133.402C291.853 133.038 292.077 131.708 293.659 131.708C293.925 131.708 294.191 131.764 294.471 131.834V130.21C294.275 130.154 294.079 130.112 293.869 130.112C292.987 130.112 292.245 130.574 291.881 131.344H291.853V130.28H290.173V137Z" fill="#B056BC"/>
<rect x="235.5" y="115.5" width="79" height="35" rx="3.5" stroke="#B056BC"/>
<rect x="105.5" y="182.5" width="88" height="35" rx="3.5" fill="#DB3259"/>
<path d="M126.106 204H129.802C132.182 204 135.052 202.432 135.052 199.044C135.052 195.684 132.616 194.088 130.012 194.088H126.106V204ZM127.87 202.404V195.684H129.48C131.636 195.684 133.204 196.636 133.204 199.044C133.204 201.452 131.398 202.404 129.186 202.404H127.87ZM140.775 204H142.287V200.136C142.287 199.184 142.287 197.112 139.417 197.112C138.353 197.112 137.303 197.434 136.561 198.19L137.443 199.072C137.891 198.652 138.535 198.372 139.235 198.372C140.131 198.372 140.775 198.806 140.775 199.632V199.814H140.355C138.675 199.814 136.127 199.968 136.127 202.152C136.127 203.482 137.331 204.168 138.577 204.168C139.473 204.168 140.257 203.832 140.733 203.076H140.775V204ZM140.677 201.368C140.677 202.306 140.131 202.908 138.983 202.908C138.437 202.908 137.807 202.642 137.807 202.026C137.807 201.06 139.403 200.99 140.327 200.99H140.677V201.368ZM144.095 204H145.775V200.332C145.775 199.436 146.209 198.624 147.315 198.624C148.491 198.624 148.547 199.856 148.547 200.598V204H150.227V199.758C150.227 198.386 149.583 197.112 147.777 197.112C146.657 197.112 146.027 197.686 145.719 198.358H145.691V197.28H144.095V204ZM157.454 197.28V198.288H157.426C156.936 197.476 156.054 197.112 155.116 197.112C153.044 197.112 151.798 198.652 151.798 200.64C151.798 202.544 153.128 204.084 155.144 204.084C155.984 204.084 156.852 203.762 157.342 203.104H157.37V203.594C157.37 204.924 156.866 205.848 155.242 205.848C154.304 205.848 153.604 205.498 152.932 204.882L151.924 206.254C152.876 207.094 154.01 207.36 155.256 207.36C157.874 207.36 159.05 205.82 159.05 203.398V197.28H157.454ZM155.466 198.624C156.684 198.624 157.454 199.436 157.454 200.598C157.454 201.718 156.698 202.572 155.452 202.572C154.318 202.572 153.478 201.69 153.478 200.626C153.478 199.436 154.29 198.624 155.466 198.624ZM167.42 201.228V200.766C167.42 198.428 166.146 197.112 164.27 197.112C162.24 197.112 160.616 198.526 160.616 200.64C160.616 202.754 162.24 204.168 164.27 204.168C165.334 204.168 166.328 203.79 167.112 202.824L165.908 201.914C165.488 202.432 164.942 202.824 164.102 202.824C163.164 202.824 162.408 202.222 162.296 201.228H167.42ZM162.296 199.968C162.422 199.002 163.038 198.372 164.032 198.372C165.082 198.372 165.726 198.988 165.74 199.968H162.296ZM168.991 204H170.671V200.402C170.671 200.038 170.895 198.708 172.477 198.708C172.743 198.708 173.009 198.764 173.289 198.834V197.21C173.093 197.154 172.897 197.112 172.687 197.112C171.805 197.112 171.063 197.574 170.699 198.344H170.671V197.28H168.991V204Z" fill="white"/>
<rect x="105.5" y="182.5" width="88" height="35" rx="3.5" stroke="#DB3259"/>
<rect x="95.5" y="249.5" width="109" height="35" rx="3.5" fill="white"/>
<path d="M116.106 271H119.676C121.552 271 123.428 270.328 123.428 268.172C123.428 266.898 122.532 265.918 121.286 265.778V265.75C122.308 265.442 123.008 264.7 123.008 263.58C123.008 261.774 121.468 261.088 119.97 261.088H116.106V271ZM117.87 262.6H119.326C120.656 262.6 121.244 263.02 121.244 263.874C121.244 264.616 120.656 265.12 119.48 265.12H117.87V262.6ZM117.87 266.632H119.564C120.992 266.632 121.664 266.996 121.664 268.032C121.664 269.334 120.404 269.488 119.494 269.488H117.87V266.632ZM124.694 267.64C124.694 269.754 126.318 271.168 128.348 271.168C130.378 271.168 132.002 269.754 132.002 267.64C132.002 265.526 130.378 264.112 128.348 264.112C126.318 264.112 124.694 265.526 124.694 267.64ZM126.374 267.64C126.374 266.59 127.116 265.624 128.348 265.624C129.58 265.624 130.322 266.59 130.322 267.64C130.322 268.69 129.58 269.656 128.348 269.656C127.116 269.656 126.374 268.69 126.374 267.64ZM133.575 271H135.255V267.402C135.255 267.038 135.479 265.708 137.061 265.708C137.327 265.708 137.593 265.764 137.873 265.834V264.21C137.677 264.154 137.481 264.112 137.271 264.112C136.389 264.112 135.647 264.574 135.283 265.344H135.255V264.28H133.575V271ZM144.09 271H145.686V260.416H144.006V265.134H143.964C143.614 264.7 142.942 264.112 141.682 264.112C139.764 264.112 138.434 265.652 138.434 267.64C138.434 269.628 139.68 271.168 141.752 271.168C142.69 271.168 143.572 270.804 144.062 269.992H144.09V271ZM140.114 267.64C140.114 266.59 140.856 265.624 142.088 265.624C143.32 265.624 144.062 266.59 144.062 267.64C144.062 268.69 143.32 269.656 142.088 269.656C140.856 269.656 140.114 268.69 140.114 267.64ZM154.057 268.228V267.766C154.057 265.428 152.783 264.112 150.907 264.112C148.877 264.112 147.253 265.526 147.253 267.64C147.253 269.754 148.877 271.168 150.907 271.168C151.971 271.168 152.965 270.79 153.749 269.824L152.545 268.914C152.125 269.432 151.579 269.824 150.739 269.824C149.801 269.824 149.045 269.222 148.933 268.228H154.057ZM148.933 266.968C149.059 266.002 149.675 265.372 150.669 265.372C151.719 265.372 152.363 265.988 152.377 266.968H148.933ZM155.628 271H157.308V267.402C157.308 267.038 157.532 265.708 159.114 265.708C159.38 265.708 159.646 265.764 159.926 265.834V264.21C159.73 264.154 159.534 264.112 159.324 264.112C158.442 264.112 157.7 264.574 157.336 265.344H157.308V264.28H155.628V271ZM161.097 271H162.777V260.416H161.097V271ZM171.174 268.228V267.766C171.174 265.428 169.9 264.112 168.024 264.112C165.994 264.112 164.37 265.526 164.37 267.64C164.37 269.754 165.994 271.168 168.024 271.168C169.088 271.168 170.082 270.79 170.866 269.824L169.662 268.914C169.242 269.432 168.696 269.824 167.856 269.824C166.918 269.824 166.162 269.222 166.05 268.228H171.174ZM166.05 266.968C166.176 266.002 166.792 265.372 167.786 265.372C168.836 265.372 169.48 265.988 169.494 266.968H166.05ZM177.449 265.134C176.903 264.392 175.951 264.112 175.055 264.112C173.697 264.112 172.353 264.784 172.353 266.282C172.353 268.844 175.979 267.752 175.979 269.138C175.979 269.67 175.349 269.908 174.859 269.908C174.145 269.908 173.697 269.558 173.263 269.082L172.143 270.132C172.829 270.902 173.725 271.168 174.761 271.168C176.133 271.168 177.659 270.608 177.659 269.012C177.659 266.394 174.033 267.374 174.033 266.17C174.033 265.666 174.565 265.456 175.013 265.456C175.587 265.456 176.007 265.694 176.329 266.142L177.449 265.134ZM183.67 265.134C183.124 264.392 182.172 264.112 181.276 264.112C179.918 264.112 178.574 264.784 178.574 266.282C178.574 268.844 182.2 267.752 182.2 269.138C182.2 269.67 181.57 269.908 181.08 269.908C180.366 269.908 179.918 269.558 179.484 269.082L178.364 270.132C179.05 270.902 179.946 271.168 180.982 271.168C182.354 271.168 183.88 270.608 183.88 269.012C183.88 266.394 180.254 267.374 180.254 266.17C180.254 265.666 180.786 265.456 181.234 265.456C181.808 265.456 182.228 265.694 182.55 266.142L183.67 265.134Z" fill="#6C3078"/>
<rect x="95.5" y="249.5" width="109" height="35" rx="3.5" stroke="white"/>
<g opacity="0.5">
<rect x="345.5" y="249.5" width="109" height="35" rx="3.5" fill="white"/>
<path d="M366.106 271H369.676C371.552 271 373.428 270.328 373.428 268.172C373.428 266.898 372.532 265.918 371.286 265.778V265.75C372.308 265.442 373.008 264.7 373.008 263.58C373.008 261.774 371.468 261.088 369.97 261.088H366.106V271ZM367.87 262.6H369.326C370.656 262.6 371.244 263.02 371.244 263.874C371.244 264.616 370.656 265.12 369.48 265.12H367.87V262.6ZM367.87 266.632H369.564C370.992 266.632 371.664 266.996 371.664 268.032C371.664 269.334 370.404 269.488 369.494 269.488H367.87V266.632ZM374.694 267.64C374.694 269.754 376.318 271.168 378.348 271.168C380.378 271.168 382.002 269.754 382.002 267.64C382.002 265.526 380.378 264.112 378.348 264.112C376.318 264.112 374.694 265.526 374.694 267.64ZM376.374 267.64C376.374 266.59 377.116 265.624 378.348 265.624C379.58 265.624 380.322 266.59 380.322 267.64C380.322 268.69 379.58 269.656 378.348 269.656C377.116 269.656 376.374 268.69 376.374 267.64ZM383.575 271H385.255V267.402C385.255 267.038 385.479 265.708 387.061 265.708C387.327 265.708 387.593 265.764 387.873 265.834V264.21C387.677 264.154 387.481 264.112 387.271 264.112C386.389 264.112 385.647 264.574 385.283 265.344H385.255V264.28H383.575V271ZM394.09 271H395.686V260.416H394.006V265.134H393.964C393.614 264.7 392.942 264.112 391.682 264.112C389.764 264.112 388.434 265.652 388.434 267.64C388.434 269.628 389.68 271.168 391.752 271.168C392.69 271.168 393.572 270.804 394.062 269.992H394.09V271ZM390.114 267.64C390.114 266.59 390.856 265.624 392.088 265.624C393.32 265.624 394.062 266.59 394.062 267.64C394.062 268.69 393.32 269.656 392.088 269.656C390.856 269.656 390.114 268.69 390.114 267.64ZM404.057 268.228V267.766C404.057 265.428 402.783 264.112 400.907 264.112C398.877 264.112 397.253 265.526 397.253 267.64C397.253 269.754 398.877 271.168 400.907 271.168C401.971 271.168 402.965 270.79 403.749 269.824L402.545 268.914C402.125 269.432 401.579 269.824 400.739 269.824C399.801 269.824 399.045 269.222 398.933 268.228H404.057ZM398.933 266.968C399.059 266.002 399.675 265.372 400.669 265.372C401.719 265.372 402.363 265.988 402.377 266.968H398.933ZM405.628 271H407.308V267.402C407.308 267.038 407.532 265.708 409.114 265.708C409.38 265.708 409.646 265.764 409.926 265.834V264.21C409.73 264.154 409.534 264.112 409.324 264.112C408.442 264.112 407.7 264.574 407.336 265.344H407.308V264.28H405.628V271ZM411.097 271H412.777V260.416H411.097V271ZM421.174 268.228V267.766C421.174 265.428 419.9 264.112 418.024 264.112C415.994 264.112 414.37 265.526 414.37 267.64C414.37 269.754 415.994 271.168 418.024 271.168C419.088 271.168 420.082 270.79 420.866 269.824L419.662 268.914C419.242 269.432 418.696 269.824 417.856 269.824C416.918 269.824 416.162 269.222 416.05 268.228H421.174ZM416.05 266.968C416.176 266.002 416.792 265.372 417.786 265.372C418.836 265.372 419.48 265.988 419.494 266.968H416.05ZM427.449 265.134C426.903 264.392 425.951 264.112 425.055 264.112C423.697 264.112 422.353 264.784 422.353 266.282C422.353 268.844 425.979 267.752 425.979 269.138C425.979 269.67 425.349 269.908 424.859 269.908C424.145 269.908 423.697 269.558 423.263 269.082L422.143 270.132C422.829 270.902 423.725 271.168 424.761 271.168C426.133 271.168 427.659 270.608 427.659 269.012C427.659 266.394 424.033 267.374 424.033 266.17C424.033 265.666 424.565 265.456 425.013 265.456C425.587 265.456 426.007 265.694 426.329 266.142L427.449 265.134ZM433.67 265.134C433.124 264.392 432.172 264.112 431.276 264.112C429.918 264.112 428.574 264.784 428.574 266.282C428.574 268.844 432.2 267.752 432.2 269.138C432.2 269.67 431.57 269.908 431.08 269.908C430.366 269.908 429.918 269.558 429.484 269.082L428.364 270.132C429.05 270.902 429.946 271.168 430.982 271.168C432.354 271.168 433.88 270.608 433.88 269.012C433.88 266.394 430.254 267.374 430.254 266.17C430.254 265.666 430.786 265.456 431.234 265.456C431.808 265.456 432.228 265.694 432.55 266.142L433.67 265.134Z" fill="#6C3078"/>
<rect x="345.5" y="249.5" width="109" height="35" rx="3.5" stroke="white"/>
</g>
<rect x="220.5" y="249.5" width="109" height="35" rx="3.5" fill="#EDE9ED"/>
<path d="M241.106 271H244.676C246.552 271 248.428 270.328 248.428 268.172C248.428 266.898 247.532 265.918 246.286 265.778V265.75C247.308 265.442 248.008 264.7 248.008 263.58C248.008 261.774 246.468 261.088 244.97 261.088H241.106V271ZM242.87 262.6H244.326C245.656 262.6 246.244 263.02 246.244 263.874C246.244 264.616 245.656 265.12 244.48 265.12H242.87V262.6ZM242.87 266.632H244.564C245.992 266.632 246.664 266.996 246.664 268.032C246.664 269.334 245.404 269.488 244.494 269.488H242.87V266.632ZM249.694 267.64C249.694 269.754 251.318 271.168 253.348 271.168C255.378 271.168 257.002 269.754 257.002 267.64C257.002 265.526 255.378 264.112 253.348 264.112C251.318 264.112 249.694 265.526 249.694 267.64ZM251.374 267.64C251.374 266.59 252.116 265.624 253.348 265.624C254.58 265.624 255.322 266.59 255.322 267.64C255.322 268.69 254.58 269.656 253.348 269.656C252.116 269.656 251.374 268.69 251.374 267.64ZM258.575 271H260.255V267.402C260.255 267.038 260.479 265.708 262.061 265.708C262.327 265.708 262.593 265.764 262.873 265.834V264.21C262.677 264.154 262.481 264.112 262.271 264.112C261.389 264.112 260.647 264.574 260.283 265.344H260.255V264.28H258.575V271ZM269.09 271H270.686V260.416H269.006V265.134H268.964C268.614 264.7 267.942 264.112 266.682 264.112C264.764 264.112 263.434 265.652 263.434 267.64C263.434 269.628 264.68 271.168 266.752 271.168C267.69 271.168 268.572 270.804 269.062 269.992H269.09V271ZM265.114 267.64C265.114 266.59 265.856 265.624 267.088 265.624C268.32 265.624 269.062 266.59 269.062 267.64C269.062 268.69 268.32 269.656 267.088 269.656C265.856 269.656 265.114 268.69 265.114 267.64ZM279.057 268.228V267.766C279.057 265.428 277.783 264.112 275.907 264.112C273.877 264.112 272.253 265.526 272.253 267.64C272.253 269.754 273.877 271.168 275.907 271.168C276.971 271.168 277.965 270.79 278.749 269.824L277.545 268.914C277.125 269.432 276.579 269.824 275.739 269.824C274.801 269.824 274.045 269.222 273.933 268.228H279.057ZM273.933 266.968C274.059 266.002 274.675 265.372 275.669 265.372C276.719 265.372 277.363 265.988 277.377 266.968H273.933ZM280.628 271H282.308V267.402C282.308 267.038 282.532 265.708 284.114 265.708C284.38 265.708 284.646 265.764 284.926 265.834V264.21C284.73 264.154 284.534 264.112 284.324 264.112C283.442 264.112 282.7 264.574 282.336 265.344H282.308V264.28H280.628V271ZM286.097 271H287.777V260.416H286.097V271ZM296.174 268.228V267.766C296.174 265.428 294.9 264.112 293.024 264.112C290.994 264.112 289.37 265.526 289.37 267.64C289.37 269.754 290.994 271.168 293.024 271.168C294.088 271.168 295.082 270.79 295.866 269.824L294.662 268.914C294.242 269.432 293.696 269.824 292.856 269.824C291.918 269.824 291.162 269.222 291.05 268.228H296.174ZM291.05 266.968C291.176 266.002 291.792 265.372 292.786 265.372C293.836 265.372 294.48 265.988 294.494 266.968H291.05ZM302.449 265.134C301.903 264.392 300.951 264.112 300.055 264.112C298.697 264.112 297.353 264.784 297.353 266.282C297.353 268.844 300.979 267.752 300.979 269.138C300.979 269.67 300.349 269.908 299.859 269.908C299.145 269.908 298.697 269.558 298.263 269.082L297.143 270.132C297.829 270.902 298.725 271.168 299.761 271.168C301.133 271.168 302.659 270.608 302.659 269.012C302.659 266.394 299.033 267.374 299.033 266.17C299.033 265.666 299.565 265.456 300.013 265.456C300.587 265.456 301.007 265.694 301.329 266.142L302.449 265.134ZM308.67 265.134C308.124 264.392 307.172 264.112 306.276 264.112C304.918 264.112 303.574 264.784 303.574 266.282C303.574 268.844 307.2 267.752 307.2 269.138C307.2 269.67 306.57 269.908 306.08 269.908C305.366 269.908 304.918 269.558 304.484 269.082L303.364 270.132C304.05 270.902 304.946 271.168 305.982 271.168C307.354 271.168 308.88 270.608 308.88 269.012C308.88 266.394 305.254 267.374 305.254 266.17C305.254 265.666 305.786 265.456 306.234 265.456C306.808 265.456 307.228 265.694 307.55 266.142L308.67 265.134Z" fill="#B056BC"/>
<rect x="220.5" y="249.5" width="109" height="35" rx="3.5" stroke="#EDE9ED"/>
<rect x="235.5" y="182.5" width="79" height="35" rx="3.5" fill="#FC3A67"/>
<path d="M256.106 204H257.87V199.632H262.504V204H264.268V194.088H262.504V198.036H257.87V194.088H256.106V204ZM265.993 200.64C265.993 202.754 267.617 204.168 269.647 204.168C271.677 204.168 273.301 202.754 273.301 200.64C273.301 198.526 271.677 197.112 269.647 197.112C267.617 197.112 265.993 198.526 265.993 200.64ZM267.673 200.64C267.673 199.59 268.415 198.624 269.647 198.624C270.879 198.624 271.621 199.59 271.621 200.64C271.621 201.69 270.879 202.656 269.647 202.656C268.415 202.656 267.673 201.69 267.673 200.64ZM276.708 204H278.5L281.146 197.28H279.424L277.618 201.984H277.59L275.798 197.28H273.964L276.708 204ZM288.602 201.228V200.766C288.602 198.428 287.328 197.112 285.452 197.112C283.422 197.112 281.798 198.526 281.798 200.64C281.798 202.754 283.422 204.168 285.452 204.168C286.516 204.168 287.51 203.79 288.294 202.824L287.09 201.914C286.67 202.432 286.124 202.824 285.284 202.824C284.346 202.824 283.59 202.222 283.478 201.228H288.602ZM283.478 199.968C283.604 199.002 284.22 198.372 285.214 198.372C286.264 198.372 286.908 198.988 286.922 199.968H283.478ZM290.173 204H291.853V200.402C291.853 200.038 292.077 198.708 293.659 198.708C293.925 198.708 294.191 198.764 294.471 198.834V197.21C294.275 197.154 294.079 197.112 293.869 197.112C292.987 197.112 292.245 197.574 291.881 198.344H291.853V197.28H290.173V204Z" fill="white"/>
<rect x="235.5" y="182.5" width="79" height="35" rx="3.5" stroke="#FC3A67"/>
<g opacity="0.5">
<rect x="355.5" y="182.5" width="88" height="35" rx="3.5" fill="#DB3259"/>
<path d="M376.106 204H379.802C382.182 204 385.052 202.432 385.052 199.044C385.052 195.684 382.616 194.088 380.012 194.088H376.106V204ZM377.87 202.404V195.684H379.48C381.636 195.684 383.204 196.636 383.204 199.044C383.204 201.452 381.398 202.404 379.186 202.404H377.87ZM390.775 204H392.287V200.136C392.287 199.184 392.287 197.112 389.417 197.112C388.353 197.112 387.303 197.434 386.561 198.19L387.443 199.072C387.891 198.652 388.535 198.372 389.235 198.372C390.131 198.372 390.775 198.806 390.775 199.632V199.814H390.355C388.675 199.814 386.127 199.968 386.127 202.152C386.127 203.482 387.331 204.168 388.577 204.168C389.473 204.168 390.257 203.832 390.733 203.076H390.775V204ZM390.677 201.368C390.677 202.306 390.131 202.908 388.983 202.908C388.437 202.908 387.807 202.642 387.807 202.026C387.807 201.06 389.403 200.99 390.327 200.99H390.677V201.368ZM394.095 204H395.775V200.332C395.775 199.436 396.209 198.624 397.315 198.624C398.491 198.624 398.547 199.856 398.547 200.598V204H400.227V199.758C400.227 198.386 399.583 197.112 397.777 197.112C396.657 197.112 396.027 197.686 395.719 198.358H395.691V197.28H394.095V204ZM407.454 197.28V198.288H407.426C406.936 197.476 406.054 197.112 405.116 197.112C403.044 197.112 401.798 198.652 401.798 200.64C401.798 202.544 403.128 204.084 405.144 204.084C405.984 204.084 406.852 203.762 407.342 203.104H407.37V203.594C407.37 204.924 406.866 205.848 405.242 205.848C404.304 205.848 403.604 205.498 402.932 204.882L401.924 206.254C402.876 207.094 404.01 207.36 405.256 207.36C407.874 207.36 409.05 205.82 409.05 203.398V197.28H407.454ZM405.466 198.624C406.684 198.624 407.454 199.436 407.454 200.598C407.454 201.718 406.698 202.572 405.452 202.572C404.318 202.572 403.478 201.69 403.478 200.626C403.478 199.436 404.29 198.624 405.466 198.624ZM417.42 201.228V200.766C417.42 198.428 416.146 197.112 414.27 197.112C412.24 197.112 410.616 198.526 410.616 200.64C410.616 202.754 412.24 204.168 414.27 204.168C415.334 204.168 416.328 203.79 417.112 202.824L415.908 201.914C415.488 202.432 414.942 202.824 414.102 202.824C413.164 202.824 412.408 202.222 412.296 201.228H417.42ZM412.296 199.968C412.422 199.002 413.038 198.372 414.032 198.372C415.082 198.372 415.726 198.988 415.74 199.968H412.296ZM418.991 204H420.671V200.402C420.671 200.038 420.895 198.708 422.477 198.708C422.743 198.708 423.009 198.764 423.289 198.834V197.21C423.093 197.154 422.897 197.112 422.687 197.112C421.805 197.112 421.063 197.574 420.699 198.344H420.671V197.28H418.991V204Z" fill="white"/>
<rect x="355.5" y="182.5" width="88" height="35" rx="3.5" stroke="#DB3259"/>
</g>
<path d="M126.106 12H129.802C132.182 12 135.052 10.432 135.052 7.044C135.052 3.684 132.616 2.088 130.012 2.088H126.106V12ZM127.87 10.404V3.684H129.48C131.636 3.684 133.204 4.636 133.204 7.044C133.204 9.452 131.398 10.404 129.186 10.404H127.87ZM143.043 9.228V8.766C143.043 6.428 141.769 5.112 139.893 5.112C137.863 5.112 136.239 6.526 136.239 8.64C136.239 10.754 137.863 12.168 139.893 12.168C140.957 12.168 141.951 11.79 142.735 10.824L141.531 9.914C141.111 10.432 140.565 10.824 139.725 10.824C138.787 10.824 138.031 10.222 137.919 9.228H143.043ZM137.919 7.968C138.045 7.002 138.661 6.372 139.655 6.372C140.705 6.372 141.349 6.988 141.363 7.968H137.919ZM145.216 12H146.896V6.708H148.45V5.28H146.896V4.062C146.896 3.32 147.036 2.676 147.974 2.676C148.212 2.676 148.436 2.718 148.674 2.774L148.786 1.346C148.436 1.276 148.086 1.248 147.722 1.248C145.636 1.248 145.216 2.466 145.216 4.328V5.28H143.83V6.708H145.216V12ZM153.736 12H155.248V8.136C155.248 7.184 155.248 5.112 152.378 5.112C151.314 5.112 150.264 5.434 149.522 6.19L150.404 7.072C150.852 6.652 151.496 6.372 152.196 6.372C153.092 6.372 153.736 6.806 153.736 7.632V7.814H153.316C151.636 7.814 149.088 7.968 149.088 10.152C149.088 11.482 150.292 12.168 151.538 12.168C152.434 12.168 153.218 11.832 153.694 11.076H153.736V12ZM153.638 9.368C153.638 10.306 153.092 10.908 151.944 10.908C151.398 10.908 150.768 10.642 150.768 10.026C150.768 9.06 152.364 8.99 153.288 8.99H153.638V9.368ZM163.188 5.28H161.508V8.948C161.508 9.844 161.074 10.656 159.968 10.656C158.792 10.656 158.736 9.424 158.736 8.682V5.28H157.056V9.522C157.056 10.894 157.7 12.168 159.506 12.168C160.626 12.168 161.256 11.594 161.564 10.922H161.592V12H163.188V5.28ZM165.123 12H166.803V1.416H165.123V12ZM169.333 6.708V9.788C169.333 11.37 169.753 12.168 171.531 12.168C171.923 12.168 172.511 12.112 172.861 11.944V10.53C172.651 10.684 172.245 10.74 171.951 10.74C171.209 10.74 171.013 10.32 171.013 9.648V6.708H172.861V5.28H171.013V3.334H169.333V5.28H167.947V6.708H169.333Z" fill="black"/>
<path d="M235.106 12H236.87V7.632H241.504V12H243.268V2.088H241.504V6.036H236.87V2.088H235.106V12ZM244.993 8.64C244.993 10.754 246.617 12.168 248.647 12.168C250.677 12.168 252.301 10.754 252.301 8.64C252.301 6.526 250.677 5.112 248.647 5.112C246.617 5.112 244.993 6.526 244.993 8.64ZM246.673 8.64C246.673 7.59 247.415 6.624 248.647 6.624C249.879 6.624 250.621 7.59 250.621 8.64C250.621 9.69 249.879 10.656 248.647 10.656C247.415 10.656 246.673 9.69 246.673 8.64ZM255.708 12H257.5L260.146 5.28H258.424L256.618 9.984H256.59L254.798 5.28H252.964L255.708 12ZM267.602 9.228V8.766C267.602 6.428 266.328 5.112 264.452 5.112C262.422 5.112 260.798 6.526 260.798 8.64C260.798 10.754 262.422 12.168 264.452 12.168C265.516 12.168 266.51 11.79 267.294 10.824L266.09 9.914C265.67 10.432 265.124 10.824 264.284 10.824C263.346 10.824 262.59 10.222 262.478 9.228H267.602ZM262.478 7.968C262.604 7.002 263.22 6.372 264.214 6.372C265.264 6.372 265.908 6.988 265.922 7.968H262.478ZM269.173 12H270.853V8.402C270.853 8.038 271.077 6.708 272.659 6.708C272.925 6.708 273.191 6.764 273.471 6.834V5.21C273.275 5.154 273.079 5.112 272.869 5.112C271.987 5.112 271.245 5.574 270.881 6.344H270.853V5.28H269.173V12ZM279.066 1.836L277.904 1.388L273.536 12.252L274.698 12.672L279.066 1.836ZM280.21 12H281.974V7.884H286.342V6.288H281.974V3.684H286.608V2.088H280.21V12ZM287.759 8.64C287.759 10.754 289.383 12.168 291.413 12.168C293.443 12.168 295.067 10.754 295.067 8.64C295.067 6.526 293.443 5.112 291.413 5.112C289.383 5.112 287.759 6.526 287.759 8.64ZM289.439 8.64C289.439 7.59 290.181 6.624 291.413 6.624C292.645 6.624 293.387 7.59 293.387 8.64C293.387 9.69 292.645 10.656 291.413 10.656C290.181 10.656 289.439 9.69 289.439 8.64ZM302.394 6.134C301.75 5.42 300.812 5.112 299.958 5.112C297.928 5.112 296.304 6.526 296.304 8.64C296.304 10.754 297.928 12.168 299.958 12.168C300.546 12.168 301.694 11.916 302.38 11.23L301.26 10.026C300.952 10.432 300.476 10.656 299.958 10.656C298.726 10.656 297.984 9.69 297.984 8.64C297.984 7.59 298.726 6.624 299.958 6.624C300.406 6.624 300.84 6.89 301.232 7.296L302.394 6.134ZM309.525 5.28H307.845V8.948C307.845 9.844 307.411 10.656 306.305 10.656C305.129 10.656 305.073 9.424 305.073 8.682V5.28H303.393V9.522C303.393 10.894 304.037 12.168 305.843 12.168C306.963 12.168 307.593 11.594 307.901 10.922H307.929V12H309.525V5.28ZM316.136 6.134C315.59 5.392 314.638 5.112 313.742 5.112C312.384 5.112 311.04 5.784 311.04 7.282C311.04 9.844 314.666 8.752 314.666 10.138C314.666 10.67 314.036 10.908 313.546 10.908C312.832 10.908 312.384 10.558 311.95 10.082L310.83 11.132C311.516 11.902 312.412 12.168 313.448 12.168C314.82 12.168 316.346 11.608 316.346 10.012C316.346 7.394 312.72 8.374 312.72 7.17C312.72 6.666 313.252 6.456 313.7 6.456C314.274 6.456 314.694 6.694 315.016 7.142L316.136 6.134Z" fill="black"/>
<path d="M372.106 12H375.802C378.182 12 381.052 10.432 381.052 7.044C381.052 3.684 378.616 2.088 376.012 2.088H372.106V12ZM373.87 10.404V3.684H375.48C377.636 3.684 379.204 4.636 379.204 7.044C379.204 9.452 377.398 10.404 375.186 10.404H373.87ZM382.603 12H384.283V5.28H382.603V12ZM382.365 2.998C382.365 3.53 382.813 4.006 383.429 4.006C384.045 4.006 384.521 3.572 384.521 2.998C384.521 2.424 384.045 1.99 383.429 1.99C382.813 1.99 382.365 2.466 382.365 2.998ZM390.916 6.134C390.37 5.392 389.418 5.112 388.522 5.112C387.164 5.112 385.82 5.784 385.82 7.282C385.82 9.844 389.446 8.752 389.446 10.138C389.446 10.67 388.816 10.908 388.326 10.908C387.612 10.908 387.164 10.558 386.73 10.082L385.61 11.132C386.296 11.902 387.192 12.168 388.228 12.168C389.6 12.168 391.126 11.608 391.126 10.012C391.126 7.394 387.5 8.374 387.5 7.17C387.5 6.666 388.032 6.456 388.48 6.456C389.054 6.456 389.474 6.694 389.796 7.142L390.916 6.134ZM396.632 12H398.144V8.136C398.144 7.184 398.144 5.112 395.274 5.112C394.21 5.112 393.16 5.434 392.418 6.19L393.3 7.072C393.748 6.652 394.392 6.372 395.092 6.372C395.988 6.372 396.632 6.806 396.632 7.632V7.814H396.212C394.532 7.814 391.984 7.968 391.984 10.152C391.984 11.482 393.188 12.168 394.434 12.168C395.33 12.168 396.114 11.832 396.59 11.076H396.632V12ZM396.534 9.368C396.534 10.306 395.988 10.908 394.84 10.908C394.294 10.908 393.664 10.642 393.664 10.026C393.664 9.06 395.26 8.99 396.184 8.99H396.534V9.368ZM399.952 12H401.548V10.992H401.576C402.066 11.804 402.948 12.168 403.886 12.168C405.958 12.168 407.204 10.628 407.204 8.64C407.204 6.652 405.874 5.112 403.956 5.112C402.696 5.112 402.024 5.7 401.674 6.134H401.632V1.416H399.952V12ZM405.524 8.64C405.524 9.69 404.782 10.656 403.55 10.656C402.318 10.656 401.576 9.69 401.576 8.64C401.576 7.59 402.318 6.624 403.55 6.624C404.782 6.624 405.524 7.59 405.524 8.64ZM408.798 12H410.478V1.416H408.798V12ZM418.875 9.228V8.766C418.875 6.428 417.601 5.112 415.725 5.112C413.695 5.112 412.071 6.526 412.071 8.64C412.071 10.754 413.695 12.168 415.725 12.168C416.789 12.168 417.783 11.79 418.567 10.824L417.363 9.914C416.943 10.432 416.397 10.824 415.557 10.824C414.619 10.824 413.863 10.222 413.751 9.228H418.875ZM413.751 7.968C413.877 7.002 414.493 6.372 415.487 6.372C416.537 6.372 417.181 6.988 417.195 7.968H413.751ZM425.766 12H427.362V1.416H425.682V6.134H425.64C425.29 5.7 424.618 5.112 423.358 5.112C421.44 5.112 420.11 6.652 420.11 8.64C420.11 10.628 421.356 12.168 423.428 12.168C424.366 12.168 425.248 11.804 425.738 10.992H425.766V12ZM421.79 8.64C421.79 7.59 422.532 6.624 423.764 6.624C424.996 6.624 425.738 7.59 425.738 8.64C425.738 9.69 424.996 10.656 423.764 10.656C422.532 10.656 421.79 9.69 421.79 8.64Z" fill="black"/>
<path d="M505.252 2.858C504.482 2.13 503.446 1.836 502.41 1.836C500.576 1.836 498.756 2.788 498.756 4.832C498.756 8.374 503.46 7.128 503.46 9.298C503.46 10.208 502.536 10.656 501.724 10.656C500.94 10.656 500.198 10.278 499.764 9.62L498.434 10.908C499.246 11.874 500.45 12.252 501.682 12.252C503.628 12.252 505.308 11.216 505.308 9.088C505.308 5.56 500.604 6.694 500.604 4.706C500.604 3.796 501.416 3.432 502.228 3.432C502.914 3.432 503.586 3.684 503.964 4.216L505.252 2.858ZM513.459 9.228V8.766C513.459 6.428 512.185 5.112 510.309 5.112C508.279 5.112 506.655 6.526 506.655 8.64C506.655 10.754 508.279 12.168 510.309 12.168C511.373 12.168 512.367 11.79 513.151 10.824L511.947 9.914C511.527 10.432 510.981 10.824 510.141 10.824C509.203 10.824 508.447 10.222 508.335 9.228H513.459ZM508.335 7.968C508.461 7.002 509.077 6.372 510.071 6.372C511.121 6.372 511.765 6.988 511.779 7.968H508.335ZM515.058 12H516.738V1.416H515.058V12ZM525.135 9.228V8.766C525.135 6.428 523.861 5.112 521.985 5.112C519.955 5.112 518.331 6.526 518.331 8.64C518.331 10.754 519.955 12.168 521.985 12.168C523.049 12.168 524.043 11.79 524.827 10.824L523.623 9.914C523.203 10.432 522.657 10.824 521.817 10.824C520.879 10.824 520.123 10.222 520.011 9.228H525.135ZM520.011 7.968C520.137 7.002 520.753 6.372 521.747 6.372C522.797 6.372 523.441 6.988 523.455 7.968H520.011ZM532.46 6.134C531.816 5.42 530.878 5.112 530.024 5.112C527.994 5.112 526.37 6.526 526.37 8.64C526.37 10.754 527.994 12.168 530.024 12.168C530.612 12.168 531.76 11.916 532.446 11.23L531.326 10.026C531.018 10.432 530.542 10.656 530.024 10.656C528.792 10.656 528.05 9.69 528.05 8.64C528.05 7.59 528.792 6.624 530.024 6.624C530.472 6.624 530.906 6.89 531.298 7.296L532.46 6.134ZM534.062 6.708V9.788C534.062 11.37 534.482 12.168 536.26 12.168C536.652 12.168 537.24 12.112 537.59 11.944V10.53C537.38 10.684 536.974 10.74 536.68 10.74C535.938 10.74 535.742 10.32 535.742 9.648V6.708H537.59V5.28H535.742V3.334H534.062V5.28H532.676V6.708H534.062ZM545.369 9.228V8.766C545.369 6.428 544.095 5.112 542.219 5.112C540.189 5.112 538.565 6.526 538.565 8.64C538.565 10.754 540.189 12.168 542.219 12.168C543.283 12.168 544.277 11.79 545.061 10.824L543.857 9.914C543.437 10.432 542.891 10.824 542.051 10.824C541.113 10.824 540.357 10.222 540.245 9.228H545.369ZM540.245 7.968C540.371 7.002 540.987 6.372 541.981 6.372C543.031 6.372 543.675 6.988 543.689 7.968H540.245ZM552.26 12H553.856V1.416H552.176V6.134H552.134C551.784 5.7 551.112 5.112 549.852 5.112C547.934 5.112 546.604 6.652 546.604 8.64C546.604 10.628 547.85 12.168 549.922 12.168C550.86 12.168 551.742 11.804 552.232 10.992H552.26V12ZM548.284 8.64C548.284 7.59 549.026 6.624 550.258 6.624C551.49 6.624 552.232 7.59 552.232 8.64C552.232 9.69 551.49 10.656 550.258 10.656C549.026 10.656 548.284 9.69 548.284 8.64Z" fill="black"/>
<path d="M24.106 70H25.87V65.898H27.13C29.23 65.898 31.092 65.45 31.092 62.958C31.092 60.76 29.356 60.088 27.438 60.088H24.106V70ZM25.87 64.386V61.6H27.13C28.082 61.6 29.244 61.768 29.244 62.986C29.244 64.33 27.942 64.386 26.934 64.386H25.87ZM32.5106 70H34.1906V66.402C34.1906 66.038 34.4146 64.708 35.9966 64.708C36.2626 64.708 36.5286 64.764 36.8086 64.834V63.21C36.6126 63.154 36.4166 63.112 36.2066 63.112C35.3246 63.112 34.5826 63.574 34.2186 64.344H34.1906V63.28H32.5106V70ZM37.98 70H39.66V63.28H37.98V70ZM37.742 60.998C37.742 61.53 38.19 62.006 38.806 62.006C39.422 62.006 39.898 61.572 39.898 60.998C39.898 60.424 39.422 59.99 38.806 59.99C38.19 59.99 37.742 60.466 37.742 60.998ZM41.5187 70H43.1987V66.332C43.1987 65.436 43.6327 64.624 44.7387 64.624C45.5507 64.624 45.8867 65.17 45.8867 65.996V70H47.5667V66.36C47.5667 65.492 47.9587 64.624 49.0087 64.624C50.0027 64.624 50.2547 65.352 50.2547 66.192V70H51.9347V65.996C51.9347 64.386 51.3047 63.112 49.5127 63.112C48.5047 63.112 47.7907 63.504 47.3007 64.358C46.9507 63.518 46.2367 63.112 45.2007 63.112C44.0807 63.112 43.4367 63.7 43.1427 64.33H43.1147V63.28H41.5187V70ZM57.9704 70H59.4824V66.136C59.4824 65.184 59.4824 63.112 56.6124 63.112C55.5484 63.112 54.4984 63.434 53.7564 64.19L54.6384 65.072C55.0864 64.652 55.7304 64.372 56.4304 64.372C57.3264 64.372 57.9704 64.806 57.9704 65.632V65.814H57.5504C55.8704 65.814 53.3224 65.968 53.3224 68.152C53.3224 69.482 54.5264 70.168 55.7724 70.168C56.6684 70.168 57.4524 69.832 57.9284 69.076H57.9704V70ZM57.8724 67.368C57.8724 68.306 57.3264 68.908 56.1784 68.908C55.6324 68.908 55.0024 68.642 55.0024 68.026C55.0024 67.06 56.5984 66.99 57.5224 66.99H57.8724V67.368ZM61.2899 70H62.9699V66.402C62.9699 66.038 63.1939 64.708 64.7759 64.708C65.0419 64.708 65.3079 64.764 65.5879 64.834V63.21C65.3919 63.154 65.1959 63.112 64.9859 63.112C64.1039 63.112 63.3619 63.574 62.9979 64.344H62.9699V63.28H61.2899V70ZM68.6913 70.056L68.3693 70.854C68.0893 71.554 67.8653 71.848 67.0393 71.848C66.7453 71.848 66.4513 71.778 66.1853 71.68L65.9753 73.192C66.3953 73.304 66.8293 73.36 67.2633 73.36C68.7473 73.36 69.3353 72.702 69.8253 71.442L73.0033 63.28H71.2533L69.5733 67.942H69.5453L67.6693 63.28H65.8213L68.6913 70.056Z" fill="black"/>
<path d="M13.252 127.858C12.482 127.13 11.446 126.836 10.41 126.836C8.576 126.836 6.756 127.788 6.756 129.832C6.756 133.374 11.46 132.128 11.46 134.298C11.46 135.208 10.536 135.656 9.724 135.656C8.94 135.656 8.198 135.278 7.764 134.62L6.434 135.908C7.246 136.874 8.45 137.252 9.682 137.252C11.628 137.252 13.308 136.216 13.308 134.088C13.308 130.56 8.604 131.694 8.604 129.706C8.604 128.796 9.416 128.432 10.228 128.432C10.914 128.432 11.586 128.684 11.964 129.216L13.252 127.858ZM21.4591 134.228V133.766C21.4591 131.428 20.1851 130.112 18.3091 130.112C16.2791 130.112 14.6551 131.526 14.6551 133.64C14.6551 135.754 16.2791 137.168 18.3091 137.168C19.3731 137.168 20.3671 136.79 21.1511 135.824L19.9471 134.914C19.5271 135.432 18.9811 135.824 18.1411 135.824C17.2031 135.824 16.4471 135.222 16.3351 134.228H21.4591ZM16.3351 132.968C16.4611 132.002 17.0771 131.372 18.0711 131.372C19.1211 131.372 19.7651 131.988 19.7791 132.968H16.3351ZM28.7841 131.134C28.1401 130.42 27.2021 130.112 26.3481 130.112C24.3181 130.112 22.6941 131.526 22.6941 133.64C22.6941 135.754 24.3181 137.168 26.3481 137.168C26.9361 137.168 28.0841 136.916 28.7701 136.23L27.6501 135.026C27.3421 135.432 26.8661 135.656 26.3481 135.656C25.1161 135.656 24.3741 134.69 24.3741 133.64C24.3741 132.59 25.1161 131.624 26.3481 131.624C26.7961 131.624 27.2301 131.89 27.6221 132.296L28.7841 131.134ZM29.448 133.64C29.448 135.754 31.072 137.168 33.102 137.168C35.132 137.168 36.756 135.754 36.756 133.64C36.756 131.526 35.132 130.112 33.102 130.112C31.072 130.112 29.448 131.526 29.448 133.64ZM31.128 133.64C31.128 132.59 31.87 131.624 33.102 131.624C34.334 131.624 35.076 132.59 35.076 133.64C35.076 134.69 34.334 135.656 33.102 135.656C31.87 135.656 31.128 134.69 31.128 133.64ZM38.329 137H40.009V133.332C40.009 132.436 40.443 131.624 41.549 131.624C42.725 131.624 42.781 132.856 42.781 133.598V137H44.461V132.758C44.461 131.386 43.817 130.112 42.011 130.112C40.891 130.112 40.261 130.686 39.953 131.358H39.925V130.28H38.329V137ZM51.688 137H53.284V126.416H51.604V131.134H51.562C51.212 130.7 50.54 130.112 49.28 130.112C47.362 130.112 46.032 131.652 46.032 133.64C46.032 135.628 47.278 137.168 49.35 137.168C50.288 137.168 51.17 136.804 51.66 135.992H51.688V137ZM47.712 133.64C47.712 132.59 48.454 131.624 49.686 131.624C50.918 131.624 51.66 132.59 51.66 133.64C51.66 134.69 50.918 135.656 49.686 135.656C48.454 135.656 47.712 134.69 47.712 133.64ZM59.3864 137H60.8984V133.136C60.8984 132.184 60.8984 130.112 58.0284 130.112C56.9644 130.112 55.9144 130.434 55.1724 131.19L56.0544 132.072C56.5024 131.652 57.1464 131.372 57.8464 131.372C58.7424 131.372 59.3864 131.806 59.3864 132.632V132.814H58.9664C57.2864 132.814 54.7384 132.968 54.7384 135.152C54.7384 136.482 55.9424 137.168 57.1884 137.168C58.0844 137.168 58.8684 136.832 59.3444 136.076H59.3864V137ZM59.2884 134.368C59.2884 135.306 58.7424 135.908 57.5944 135.908C57.0484 135.908 56.4184 135.642 56.4184 135.026C56.4184 134.06 58.0144 133.99 58.9384 133.99H59.2884V134.368ZM62.7059 137H64.3859V133.402C64.3859 133.038 64.6099 131.708 66.1919 131.708C66.4579 131.708 66.7239 131.764 67.0039 131.834V130.21C66.8079 130.154 66.6119 130.112 66.4019 130.112C65.5199 130.112 64.7779 130.574 64.4139 131.344H64.3859V130.28H62.7059V137ZM70.1073 137.056L69.7853 137.854C69.5053 138.554 69.2813 138.848 68.4553 138.848C68.1613 138.848 67.8673 138.778 67.6013 138.68L67.3913 140.192C67.8113 140.304 68.2453 140.36 68.6793 140.36C70.1633 140.36 70.7513 139.702 71.2413 138.442L74.4193 130.28H72.6693L70.9893 134.942H70.9613L69.0853 130.28H67.2373L70.1073 137.056Z" fill="black"/>
<path d="M28.106 204H31.802C34.182 204 37.052 202.432 37.052 199.044C37.052 195.684 34.616 194.088 32.012 194.088H28.106V204ZM29.87 202.404V195.684H31.48C33.636 195.684 35.204 196.636 35.204 199.044C35.204 201.452 33.398 202.404 31.186 202.404H29.87ZM42.775 204H44.287V200.136C44.287 199.184 44.287 197.112 41.417 197.112C40.353 197.112 39.303 197.434 38.561 198.19L39.443 199.072C39.891 198.652 40.535 198.372 41.235 198.372C42.131 198.372 42.775 198.806 42.775 199.632V199.814H42.355C40.675 199.814 38.127 199.968 38.127 202.152C38.127 203.482 39.331 204.168 40.577 204.168C41.473 204.168 42.257 203.832 42.733 203.076H42.775V204ZM42.677 201.368C42.677 202.306 42.131 202.908 40.983 202.908C40.437 202.908 39.807 202.642 39.807 202.026C39.807 201.06 41.403 200.99 42.327 200.99H42.677V201.368ZM46.0946 204H47.7746V200.332C47.7746 199.436 48.2086 198.624 49.3146 198.624C50.4906 198.624 50.5466 199.856 50.5466 200.598V204H52.2266V199.758C52.2266 198.386 51.5826 197.112 49.7766 197.112C48.6566 197.112 48.0266 197.686 47.7186 198.358H47.6906V197.28H46.0946V204ZM59.4536 197.28V198.288H59.4256C58.9356 197.476 58.0536 197.112 57.1156 197.112C55.0436 197.112 53.7976 198.652 53.7976 200.64C53.7976 202.544 55.1276 204.084 57.1436 204.084C57.9836 204.084 58.8516 203.762 59.3416 203.104H59.3696V203.594C59.3696 204.924 58.8656 205.848 57.2416 205.848C56.3036 205.848 55.6036 205.498 54.9316 204.882L53.9236 206.254C54.8756 207.094 56.0096 207.36 57.2556 207.36C59.8736 207.36 61.0496 205.82 61.0496 203.398V197.28H59.4536ZM57.4656 198.624C58.6836 198.624 59.4536 199.436 59.4536 200.598C59.4536 201.718 58.6976 202.572 57.4516 202.572C56.3176 202.572 55.4776 201.69 55.4776 200.626C55.4776 199.436 56.2896 198.624 57.4656 198.624ZM69.42 201.228V200.766C69.42 198.428 68.146 197.112 66.27 197.112C64.24 197.112 62.616 198.526 62.616 200.64C62.616 202.754 64.24 204.168 66.27 204.168C67.334 204.168 68.328 203.79 69.112 202.824L67.908 201.914C67.488 202.432 66.942 202.824 66.102 202.824C65.164 202.824 64.408 202.222 64.296 201.228H69.42ZM64.296 199.968C64.422 199.002 65.038 198.372 66.032 198.372C67.082 198.372 67.726 198.988 67.74 199.968H64.296ZM70.9911 204H72.6711V200.402C72.6711 200.038 72.8951 198.708 74.4771 198.708C74.7431 198.708 75.0091 198.764 75.2891 198.834V197.21C75.0931 197.154 74.8971 197.112 74.6871 197.112C73.8051 197.112 73.0631 197.574 72.6991 198.344H72.6711V197.28H70.9911V204Z" fill="black"/>
<path d="M1.106 271H7.084V269.404H2.87V261.088H1.106V271ZM8.23977 271H9.91977V264.28H8.23977V271ZM8.00177 261.998C8.00177 262.53 8.44977 263.006 9.06577 263.006C9.68177 263.006 10.1578 262.572 10.1578 261.998C10.1578 261.424 9.68177 260.99 9.06577 260.99C8.44977 260.99 8.00177 261.466 8.00177 261.998ZM11.8485 271H13.5285V267.332C13.5285 266.436 13.9625 265.624 15.0685 265.624C16.2445 265.624 16.3005 266.856 16.3005 267.598V271H17.9805V266.758C17.9805 265.386 17.3365 264.112 15.5305 264.112C14.4105 264.112 13.7805 264.686 13.4725 265.358H13.4445V264.28H11.8485V271ZM19.8875 271H21.5675V267.57H21.5955L24.2695 271H26.4955L23.4295 267.332L26.3135 264.28H24.1575L21.5675 267.066V260.416H19.8875V271ZM31.5497 271H33.1457V269.992H33.1737C33.6637 270.804 34.5457 271.168 35.4837 271.168C37.5557 271.168 38.8017 269.628 38.8017 267.64C38.8017 265.652 37.4717 264.112 35.5537 264.112C34.2937 264.112 33.6217 264.7 33.2717 265.134H33.2297V260.416H31.5497V271ZM37.1217 267.64C37.1217 268.69 36.3797 269.656 35.1477 269.656C33.9157 269.656 33.1737 268.69 33.1737 267.64C33.1737 266.59 33.9157 265.624 35.1477 265.624C36.3797 265.624 37.1217 266.59 37.1217 267.64ZM46.5 264.28H44.82V267.948C44.82 268.844 44.386 269.656 43.28 269.656C42.104 269.656 42.048 268.424 42.048 267.682V264.28H40.368V268.522C40.368 269.894 41.012 271.168 42.818 271.168C43.938 271.168 44.568 270.594 44.876 269.922H44.904V271H46.5V264.28ZM49.0091 265.708V268.788C49.0091 270.37 49.4291 271.168 51.2071 271.168C51.5991 271.168 52.1871 271.112 52.5371 270.944V269.53C52.3271 269.684 51.9211 269.74 51.6271 269.74C50.8851 269.74 50.6891 269.32 50.6891 268.648V265.708H52.5371V264.28H50.6891V262.334H49.0091V264.28H47.6231V265.708H49.0091ZM54.4505 265.708V268.788C54.4505 270.37 54.8705 271.168 56.6485 271.168C57.0405 271.168 57.6285 271.112 57.9785 270.944V269.53C57.7685 269.684 57.3625 269.74 57.0685 269.74C56.3265 269.74 56.1305 269.32 56.1305 268.648V265.708H57.9785V264.28H56.1305V262.334H54.4505V264.28H53.0645V265.708H54.4505ZM58.9539 267.64C58.9539 269.754 60.5779 271.168 62.6079 271.168C64.6379 271.168 66.2619 269.754 66.2619 267.64C66.2619 265.526 64.6379 264.112 62.6079 264.112C60.5779 264.112 58.9539 265.526 58.9539 267.64ZM60.6339 267.64C60.6339 266.59 61.3759 265.624 62.6079 265.624C63.8399 265.624 64.5819 266.59 64.5819 267.64C64.5819 268.69 63.8399 269.656 62.6079 269.656C61.3759 269.656 60.6339 268.69 60.6339 267.64ZM67.8348 271H69.5148V267.332C69.5148 266.436 69.9488 265.624 71.0548 265.624C72.2308 265.624 72.2868 266.856 72.2868 267.598V271H73.9668V266.758C73.9668 265.386 73.3228 264.112 71.5168 264.112C70.3968 264.112 69.7668 264.686 69.4588 265.358H69.4308V264.28H67.8348V271Z" fill="black"/>
</svg>
