<svg width="531" height="452" viewBox="0 0 531 452" fill="none" xmlns="http://www.w3.org/2000/svg">
<rect width="531" height="452" fill="white"/>
<rect x="32" y="29" width="466" height="252" rx="20" fill="#E7EDF9"/>
<path d="M129.656 315.384C129.656 318.92 132.152 321.288 135.64 321.288C139.176 321.224 141.672 318.856 141.672 315.32C141.672 311.688 139.176 309.32 135.64 309.384C132.152 309.384 129.656 311.752 129.656 315.384ZM131.768 315.256C131.768 313 133.32 311.208 135.656 311.208C138.008 311.208 139.56 313 139.56 315.256C139.56 317.672 138.008 319.464 135.656 319.464C133.32 319.464 131.768 317.672 131.768 315.256ZM143.032 317.16C143.032 319.576 144.888 321.192 147.208 321.192C149.528 321.192 151.384 319.576 151.384 317.16C151.384 314.744 149.528 313.128 147.208 313.128C144.888 313.128 143.032 314.744 143.032 317.16ZM144.952 317.16C144.952 315.96 145.8 314.856 147.208 314.856C148.616 314.856 149.464 315.96 149.464 317.16C149.464 318.36 148.616 319.464 147.208 319.464C145.8 319.464 144.952 318.36 144.952 317.16ZM153.182 324.648H155.102V320.024H155.15C155.55 320.52 156.318 321.192 157.758 321.192C159.95 321.192 161.47 319.432 161.47 317.16C161.47 314.888 160.046 313.128 157.678 313.128C156.606 313.128 155.598 313.544 155.038 314.472H155.006V313.32H153.182V324.648ZM159.55 317.16C159.55 318.36 158.702 319.464 157.294 319.464C155.886 319.464 155.038 318.36 155.038 317.16C155.038 315.96 155.886 314.856 157.294 314.856C158.702 314.856 159.55 315.96 159.55 317.16ZM168.636 314.296C168.012 313.448 166.924 313.128 165.9 313.128C164.348 313.128 162.812 313.896 162.812 315.608C162.812 318.536 166.956 317.288 166.956 318.872C166.956 319.48 166.236 319.752 165.676 319.752C164.86 319.752 164.348 319.352 163.852 318.808L162.572 320.008C163.356 320.888 164.38 321.192 165.564 321.192C167.132 321.192 168.876 320.552 168.876 318.728C168.876 315.736 164.732 316.856 164.732 315.48C164.732 314.904 165.34 314.664 165.852 314.664C166.508 314.664 166.988 314.936 167.356 315.448L168.636 314.296ZM172.609 309.672H170.689V317.448H172.609V309.672ZM170.369 319.88C170.369 320.568 170.977 321.096 171.649 321.096C172.353 321.096 172.929 320.536 172.929 319.848C172.929 319.16 172.337 318.632 171.649 318.632C170.945 318.632 170.369 319.192 170.369 319.88ZM179.87 321H181.79V308.904H179.87V321ZM183.61 317.16C183.61 319.576 185.466 321.192 187.786 321.192C190.106 321.192 191.962 319.576 191.962 317.16C191.962 314.744 190.106 313.128 187.786 313.128C185.466 313.128 183.61 314.744 183.61 317.16ZM185.53 317.16C185.53 315.96 186.378 314.856 187.786 314.856C189.194 314.856 190.042 315.96 190.042 317.16C190.042 318.36 189.194 319.464 187.786 319.464C186.378 319.464 185.53 318.36 185.53 317.16ZM193.376 317.16C193.376 319.576 195.232 321.192 197.552 321.192C199.872 321.192 201.728 319.576 201.728 317.16C201.728 314.744 199.872 313.128 197.552 313.128C195.232 313.128 193.376 314.744 193.376 317.16ZM195.296 317.16C195.296 315.96 196.144 314.856 197.552 314.856C198.96 314.856 199.808 315.96 199.808 317.16C199.808 318.36 198.96 319.464 197.552 319.464C196.144 319.464 195.296 318.36 195.296 317.16ZM203.526 321H205.446V317.08H205.478L208.534 321H211.078L207.574 316.808L210.87 313.32H208.406L205.446 316.504V308.904H203.526V321ZM217.495 314.296C216.871 313.448 215.783 313.128 214.759 313.128C213.207 313.128 211.671 313.896 211.671 315.608C211.671 318.536 215.815 317.288 215.815 318.872C215.815 319.48 215.095 319.752 214.535 319.752C213.719 319.752 213.207 319.352 212.711 318.808L211.431 320.008C212.215 320.888 213.239 321.192 214.423 321.192C215.991 321.192 217.735 320.552 217.735 318.728C217.735 315.736 213.591 316.856 213.591 315.48C213.591 314.904 214.199 314.664 214.711 314.664C215.367 314.664 215.847 314.936 216.215 315.448L217.495 314.296ZM223.995 321H225.915V308.904H223.995V321ZM228.151 321H230.071V313.32H228.151V321ZM227.879 310.712C227.879 311.32 228.391 311.864 229.095 311.864C229.799 311.864 230.343 311.368 230.343 310.712C230.343 310.056 229.799 309.56 229.095 309.56C228.391 309.56 227.879 310.104 227.879 310.712ZM232.276 321H234.196V317.08H234.228L237.284 321H239.828L236.324 316.808L239.62 313.32H237.156L234.196 316.504V308.904H232.276V321ZM248.261 317.832V317.304C248.261 314.632 246.805 313.128 244.661 313.128C242.341 313.128 240.485 314.744 240.485 317.16C240.485 319.576 242.341 321.192 244.661 321.192C245.877 321.192 247.013 320.76 247.909 319.656L246.533 318.616C246.053 319.208 245.429 319.656 244.469 319.656C243.397 319.656 242.533 318.968 242.405 317.832H248.261ZM242.405 316.392C242.549 315.288 243.253 314.568 244.389 314.568C245.589 314.568 246.325 315.272 246.341 316.392H242.405ZM255.479 314.952V318.472C255.479 320.28 255.959 321.192 257.991 321.192C258.439 321.192 259.111 321.128 259.511 320.936V319.32C259.271 319.496 258.807 319.56 258.471 319.56C257.623 319.56 257.399 319.08 257.399 318.312V314.952H259.511V313.32H257.399V311.096H255.479V313.32H253.895V314.952H255.479ZM262.93 308.904H261.01V321H262.93V316.808C262.93 315.784 263.426 314.856 264.69 314.856C266.034 314.856 266.098 316.264 266.098 317.112V321H268.018V316.152C268.018 314.584 267.282 313.128 265.218 313.128C264.034 313.128 263.266 313.752 262.962 314.392H262.93V308.904ZM277.589 317.832V317.304C277.589 314.632 276.133 313.128 273.989 313.128C271.669 313.128 269.813 314.744 269.813 317.16C269.813 319.576 271.669 321.192 273.989 321.192C275.205 321.192 276.341 320.76 277.237 319.656L275.861 318.616C275.381 319.208 274.757 319.656 273.797 319.656C272.725 319.656 271.861 318.968 271.733 317.832H277.589ZM271.733 316.392C271.877 315.288 272.581 314.568 273.717 314.568C274.917 314.568 275.653 315.272 275.669 316.392H271.733ZM279.385 321H281.305V316.888C281.305 316.472 281.561 314.952 283.369 314.952C283.673 314.952 283.977 315.016 284.297 315.096V313.24C284.073 313.176 283.849 313.128 283.609 313.128C282.601 313.128 281.753 313.656 281.337 314.536H281.305V313.32H279.385V321ZM292.714 317.832V317.304C292.714 314.632 291.258 313.128 289.114 313.128C286.794 313.128 284.938 314.744 284.938 317.16C284.938 319.576 286.794 321.192 289.114 321.192C290.33 321.192 291.466 320.76 292.362 319.656L290.986 318.616C290.506 319.208 289.882 319.656 288.922 319.656C287.85 319.656 286.986 318.968 286.858 317.832H292.714ZM286.858 316.392C287.002 315.288 287.706 314.568 288.842 314.568C290.042 314.568 290.778 315.272 290.794 316.392H286.858ZM304.044 321H305.772V316.584C305.772 315.496 305.772 313.128 302.492 313.128C301.276 313.128 300.076 313.496 299.228 314.36L300.236 315.368C300.748 314.888 301.484 314.568 302.284 314.568C303.308 314.568 304.044 315.064 304.044 316.008V316.216H303.564C301.644 316.216 298.732 316.392 298.732 318.888C298.732 320.408 300.108 321.192 301.532 321.192C302.556 321.192 303.452 320.808 303.996 319.944H304.044V321ZM303.932 317.992C303.932 319.064 303.308 319.752 301.996 319.752C301.372 319.752 300.652 319.448 300.652 318.744C300.652 317.64 302.476 317.56 303.532 317.56H303.932V317.992ZM307.838 321H309.758V316.888C309.758 316.472 310.014 314.952 311.822 314.952C312.126 314.952 312.43 315.016 312.75 315.096V313.24C312.526 313.176 312.302 313.128 312.062 313.128C311.054 313.128 310.206 313.656 309.79 314.536H309.758V313.32H307.838V321ZM321.168 317.832V317.304C321.168 314.632 319.712 313.128 317.568 313.128C315.248 313.128 313.392 314.744 313.392 317.16C313.392 319.576 315.248 321.192 317.568 321.192C318.784 321.192 319.92 320.76 320.816 319.656L319.44 318.616C318.96 319.208 318.336 319.656 317.376 319.656C316.304 319.656 315.44 318.968 315.312 317.832H321.168ZM315.312 316.392C315.456 315.288 316.16 314.568 317.296 314.568C318.496 314.568 319.232 315.272 319.248 316.392H315.312ZM327.697 321H329.617V316.808C329.617 315.784 330.113 314.856 331.377 314.856C332.721 314.856 332.785 316.264 332.785 317.112V321H334.705V316.152C334.705 314.584 333.969 313.128 331.905 313.128C330.625 313.128 329.905 313.784 329.553 314.552H329.521V313.32H327.697V321ZM336.501 317.16C336.501 319.576 338.357 321.192 340.677 321.192C342.997 321.192 344.853 319.576 344.853 317.16C344.853 314.744 342.997 313.128 340.677 313.128C338.357 313.128 336.501 314.744 336.501 317.16ZM338.421 317.16C338.421 315.96 339.269 314.856 340.677 314.856C342.085 314.856 342.933 315.96 342.933 317.16C342.933 318.36 342.085 319.464 340.677 319.464C339.269 319.464 338.421 318.36 338.421 317.16ZM352.073 314.952V318.472C352.073 320.28 352.553 321.192 354.585 321.192C355.033 321.192 355.705 321.128 356.105 320.936V319.32C355.865 319.496 355.401 319.56 355.065 319.56C354.217 319.56 353.993 319.08 353.993 318.312V314.952H356.105V313.32H353.993V311.096H352.073V313.32H350.489V314.952H352.073ZM362.404 321H364.132V316.584C364.132 315.496 364.132 313.128 360.852 313.128C359.636 313.128 358.436 313.496 357.588 314.36L358.596 315.368C359.108 314.888 359.844 314.568 360.644 314.568C361.668 314.568 362.404 315.064 362.404 316.008V316.216H361.924C360.004 316.216 357.092 316.392 357.092 318.888C357.092 320.408 358.468 321.192 359.892 321.192C360.916 321.192 361.812 320.808 362.356 319.944H362.404V321ZM362.292 317.992C362.292 319.064 361.668 319.752 360.356 319.752C359.732 319.752 359.012 319.448 359.012 318.744C359.012 317.64 360.836 317.56 361.892 317.56H362.292V317.992ZM366.197 321H368.021V319.848H368.053C368.613 320.776 369.621 321.192 370.693 321.192C373.061 321.192 374.485 319.432 374.485 317.16C374.485 314.888 372.965 313.128 370.773 313.128C369.333 313.128 368.565 313.8 368.165 314.296H368.117V308.904H366.197V321ZM372.565 317.16C372.565 318.36 371.717 319.464 370.309 319.464C368.901 319.464 368.053 318.36 368.053 317.16C368.053 315.96 368.901 314.856 370.309 314.856C371.717 314.856 372.565 315.96 372.565 317.16ZM376.308 321H378.228V308.904H376.308V321ZM387.824 317.832V317.304C387.824 314.632 386.368 313.128 384.224 313.128C381.904 313.128 380.048 314.744 380.048 317.16C380.048 319.576 381.904 321.192 384.224 321.192C385.44 321.192 386.576 320.76 387.472 319.656L386.096 318.616C385.616 319.208 384.992 319.656 384.032 319.656C382.96 319.656 382.096 318.968 381.968 317.832H387.824ZM381.968 316.392C382.112 315.288 382.816 314.568 383.952 314.568C385.152 314.568 385.888 315.272 385.904 316.392H381.968ZM394.995 314.296C394.371 313.448 393.283 313.128 392.259 313.128C390.707 313.128 389.171 313.896 389.171 315.608C389.171 318.536 393.315 317.288 393.315 318.872C393.315 319.48 392.595 319.752 392.035 319.752C391.219 319.752 390.707 319.352 390.211 318.808L388.931 320.008C389.715 320.888 390.739 321.192 391.923 321.192C393.491 321.192 395.235 320.552 395.235 318.728C395.235 315.736 391.091 316.856 391.091 315.48C391.091 314.904 391.699 314.664 392.211 314.664C392.867 314.664 393.347 314.936 393.715 315.448L394.995 314.296ZM396.729 319.88C396.729 320.568 397.337 321.096 398.009 321.096C398.713 321.096 399.289 320.536 399.289 319.848C399.289 319.16 398.697 318.632 398.009 318.632C397.305 318.632 396.729 319.192 396.729 319.88Z" fill="#333333"/>
<path d="M167.408 345H168.88L171.696 335.4H171.728L174.528 345H175.984L179.312 333.672H177.904L175.28 343.08H175.248L172.48 333.672H170.976L168.192 343.08H168.16L165.584 333.672H164.096L167.408 345ZM180.685 339.288C181.277 338.744 182.109 338.472 182.909 338.472C184.077 338.472 184.765 339.032 184.765 340.12V340.344H184.285C182.445 340.344 179.565 340.488 179.565 342.968C179.565 344.424 180.829 345.192 182.349 345.192C183.485 345.192 184.317 344.648 184.813 343.88H184.845C184.845 344.2 184.845 344.664 184.925 345H186.125C186.061 344.616 186.013 344.136 186.013 343.704V340.488C186.013 338.376 185.085 337.32 182.877 337.32C181.789 337.32 180.669 337.688 179.901 338.472L180.685 339.288ZM184.765 341.4V341.88C184.733 343.096 183.997 344.136 182.557 344.136C181.613 344.136 180.909 343.784 180.909 342.84C180.909 341.832 181.933 341.4 183.516 341.4H184.765ZM188.293 345H189.541V341.352C189.541 339.64 190.245 338.472 191.861 338.472C193.029 338.472 193.573 339.256 193.573 340.504V345H194.821V340.376C194.821 338.568 193.941 337.32 191.973 337.32C190.741 337.32 189.813 338.008 189.477 338.744H189.445C189.445 338.328 189.413 337.912 189.413 337.512H188.229C188.229 338.008 188.293 338.6 188.293 339.288V345ZM201.28 337.512H199.072V335.384H197.824V337.512H196.192V338.568H197.824V342.68C197.824 344.232 198.112 345.192 199.888 345.192C200.352 345.192 200.912 345.112 201.344 344.92L201.296 343.784C200.96 343.96 200.56 344.04 200.192 344.04C199.088 344.04 199.072 343.272 199.072 342.312V338.568H201.28V337.512ZM211.358 337.512H209.15V335.384H207.902V337.512H206.27V338.568H207.902V342.68C207.902 344.232 208.19 345.192 209.966 345.192C210.43 345.192 210.99 345.112 211.422 344.92L211.374 343.784C211.038 343.96 210.638 344.04 210.27 344.04C209.166 344.04 209.15 343.272 209.15 342.312V338.568H211.358V337.512ZM212.455 341.256C212.455 343.592 214.151 345.192 216.455 345.192C218.759 345.192 220.455 343.592 220.455 341.256C220.455 338.92 218.759 337.32 216.455 337.32C214.151 337.32 212.455 338.92 212.455 341.256ZM213.799 341.256C213.799 339.688 214.839 338.472 216.455 338.472C218.071 338.472 219.111 339.688 219.111 341.256C219.111 342.824 218.071 344.04 216.455 344.04C214.839 344.04 213.799 342.824 213.799 341.256ZM233.16 338.504C232.408 337.688 231.384 337.32 230.28 337.32C227.976 337.32 226.408 338.984 226.408 341.256C226.408 343.56 227.96 345.192 230.28 345.192C231.368 345.192 232.392 344.824 233.112 343.992L232.184 343.112C231.72 343.752 231.096 344.04 230.28 344.04C228.76 344.04 227.752 342.792 227.752 341.256C227.752 339.72 228.6 338.472 230.28 338.472C231.032 338.472 231.64 338.744 232.168 339.384L233.16 338.504ZM234.559 345H235.807V341.352C235.807 339.64 236.479 338.568 237.999 338.568C238.223 338.568 238.463 338.6 238.671 338.664L238.751 337.4C238.575 337.336 238.399 337.32 238.239 337.32C237.007 337.32 236.079 338.008 235.743 338.744H235.711C235.711 338.328 235.679 337.912 235.679 337.512H234.495C234.495 338.008 234.559 338.6 234.559 339.288V345ZM245.647 342.904C245.055 343.656 244.335 344.04 243.263 344.04C241.903 344.04 240.911 342.936 240.815 341.64H246.863V341.24C246.863 338.76 245.423 337.32 243.311 337.32C241.103 337.32 239.471 338.936 239.471 341.256C239.471 343.432 240.911 345.192 243.263 345.192C244.655 345.192 245.711 344.776 246.591 343.64L245.647 342.904ZM240.815 340.584C240.975 339.32 241.887 338.472 243.263 338.472C244.639 338.472 245.471 339.32 245.519 340.584H240.815ZM249.481 339.288C250.073 338.744 250.905 338.472 251.705 338.472C252.873 338.472 253.561 339.032 253.561 340.12V340.344H253.081C251.241 340.344 248.361 340.488 248.361 342.968C248.361 344.424 249.625 345.192 251.145 345.192C252.281 345.192 253.113 344.648 253.609 343.88H253.641C253.641 344.2 253.641 344.664 253.721 345H254.921C254.857 344.616 254.809 344.136 254.809 343.704V340.488C254.809 338.376 253.881 337.32 251.673 337.32C250.585 337.32 249.465 337.688 248.697 338.472L249.481 339.288ZM253.561 341.4V341.88C253.529 343.096 252.793 344.136 251.353 344.136C250.409 344.136 249.705 343.784 249.705 342.84C249.705 341.832 250.729 341.4 252.313 341.4H253.561ZM261.186 337.512H258.978V335.384H257.73V337.512H256.098V338.568H257.73V342.68C257.73 344.232 258.018 345.192 259.794 345.192C260.258 345.192 260.818 345.112 261.25 344.92L261.202 343.784C260.866 343.96 260.466 344.04 260.098 344.04C258.994 344.04 258.978 343.272 258.978 342.312V338.568H261.186V337.512ZM268.459 342.904C267.867 343.656 267.147 344.04 266.075 344.04C264.715 344.04 263.723 342.936 263.627 341.64H269.675V341.24C269.675 338.76 268.235 337.32 266.123 337.32C263.915 337.32 262.283 338.936 262.283 341.256C262.283 343.432 263.723 345.192 266.075 345.192C267.467 345.192 268.523 344.776 269.403 343.64L268.459 342.904ZM263.627 340.584C263.787 339.32 264.699 338.472 266.075 338.472C267.451 338.472 268.283 339.32 268.331 340.584H263.627ZM276.747 339.288C277.339 338.744 278.171 338.472 278.971 338.472C280.139 338.472 280.827 339.032 280.827 340.12V340.344H280.347C278.507 340.344 275.627 340.488 275.627 342.968C275.627 344.424 276.891 345.192 278.411 345.192C279.547 345.192 280.379 344.648 280.875 343.88H280.907C280.907 344.2 280.907 344.664 280.987 345H282.187C282.123 344.616 282.075 344.136 282.075 343.704V340.488C282.075 338.376 281.147 337.32 278.939 337.32C277.851 337.32 276.731 337.688 275.963 338.472L276.747 339.288ZM280.827 341.4V341.88C280.795 343.096 280.059 344.136 278.619 344.136C277.675 344.136 276.971 343.784 276.971 342.84C276.971 341.832 277.995 341.4 279.579 341.4H280.827ZM288.809 345H290.057V341.352C290.057 339.64 290.761 338.472 292.377 338.472C293.545 338.472 294.089 339.256 294.089 340.504V345H295.337V340.376C295.337 338.568 294.457 337.32 292.489 337.32C291.257 337.32 290.329 338.008 289.993 338.744H289.961C289.961 338.328 289.929 337.912 289.929 337.512H288.745C288.745 338.008 288.809 338.6 288.809 339.288V345ZM303.444 342.904C302.852 343.656 302.132 344.04 301.06 344.04C299.7 344.04 298.708 342.936 298.612 341.64H304.66V341.24C304.66 338.76 303.22 337.32 301.108 337.32C298.9 337.32 297.268 338.936 297.268 341.256C297.268 343.432 298.708 345.192 301.06 345.192C302.452 345.192 303.508 344.776 304.388 343.64L303.444 342.904ZM298.612 340.584C298.772 339.32 299.684 338.472 301.06 338.472C302.436 338.472 303.268 339.32 303.316 340.584H298.612ZM317.038 337.512H315.694L313.998 343.272H313.966L311.998 337.512H310.686L308.75 343.272H308.718L307.006 337.512H305.63L308.062 345H309.342L311.23 339.24H311.262L313.39 345H314.622L317.038 337.512ZM326.999 337.512H324.791V335.384H323.543V337.512H321.911V338.568H323.543V342.68C323.543 344.232 323.831 345.192 325.607 345.192C326.071 345.192 326.631 345.112 327.063 344.92L327.015 343.784C326.679 343.96 326.279 344.04 325.911 344.04C324.807 344.04 324.791 343.272 324.791 342.312V338.568H326.999V337.512ZM329.216 339.288C329.808 338.744 330.64 338.472 331.44 338.472C332.608 338.472 333.296 339.032 333.296 340.12V340.344H332.816C330.976 340.344 328.096 340.488 328.096 342.968C328.096 344.424 329.36 345.192 330.88 345.192C332.016 345.192 332.848 344.648 333.344 343.88H333.376C333.376 344.2 333.376 344.664 333.456 345H334.656C334.592 344.616 334.544 344.136 334.544 343.704V340.488C334.544 338.376 333.616 337.32 331.408 337.32C330.32 337.32 329.2 337.688 328.432 338.472L329.216 339.288ZM333.296 341.4V341.88C333.264 343.096 332.528 344.136 331.088 344.136C330.144 344.136 329.44 343.784 329.44 342.84C329.44 341.832 330.464 341.4 332.048 341.4H333.296ZM336.761 345H338.009V343.672H338.041C338.505 344.52 339.577 345.192 340.921 345.192C343.017 345.192 344.665 343.496 344.665 341.256C344.665 338.984 343.081 337.32 340.729 337.32C339.641 337.32 338.729 337.8 338.041 338.6H338.009V332.904H336.761V345ZM338.009 341.256C338.009 339.688 339.049 338.472 340.665 338.472C342.281 338.472 343.321 339.688 343.321 341.256C343.321 342.824 342.281 344.04 340.665 344.04C339.049 344.04 338.009 342.824 338.009 341.256ZM346.718 345H347.966V332.904H346.718V345ZM356.194 342.904C355.602 343.656 354.882 344.04 353.81 344.04C352.45 344.04 351.458 342.936 351.362 341.64H357.41V341.24C357.41 338.76 355.97 337.32 353.858 337.32C351.65 337.32 350.018 338.936 350.018 341.256C350.018 343.432 351.458 345.192 353.81 345.192C355.202 345.192 356.258 344.776 357.138 343.64L356.194 342.904ZM351.362 340.584C351.522 339.32 352.434 338.472 353.81 338.472C355.186 338.472 356.018 339.32 356.066 340.584H351.362ZM361.18 341.832H362.524V341.096C362.524 340.184 362.62 339.96 363.292 339.32C364.252 338.424 365.116 337.64 365.116 336.232C365.116 334.392 363.74 333.384 361.996 333.384C360.252 333.384 358.876 334.376 358.588 336.12L360.028 336.28C360.188 335.24 360.908 334.536 361.98 334.536C363.036 334.536 363.676 335.256 363.676 336.28C363.676 337.288 362.94 337.896 362.284 338.568C361.452 339.4 361.18 339.64 361.18 340.824V341.832ZM361.852 343.176C361.324 343.176 360.892 343.608 360.892 344.136C360.892 344.664 361.356 345.096 361.852 345.096C362.348 345.096 362.812 344.664 362.812 344.136C362.812 343.608 362.38 343.176 361.852 343.176Z" fill="#333333"/>
<rect x="204.5" y="377.5" width="121" height="35" rx="3.5" fill="#6C3078"/>
<path d="M233.282 390.404C232.302 389.27 231.154 388.836 229.81 388.836C226.758 388.836 224.574 390.908 224.574 394.086C224.574 397.18 226.758 399.252 229.81 399.252C231.266 399.252 232.61 398.72 233.506 397.488L232.05 396.452C231.392 397.292 230.622 397.656 229.824 397.656C227.78 397.656 226.422 396.088 226.422 393.974C226.422 392 227.78 390.432 229.824 390.432C230.51 390.432 231.182 390.642 231.91 391.412L233.282 390.404ZM234.536 399H236.216V395.402C236.216 395.038 236.44 393.708 238.022 393.708C238.288 393.708 238.554 393.764 238.834 393.834V392.21C238.638 392.154 238.442 392.112 238.232 392.112C237.35 392.112 236.608 392.574 236.244 393.344H236.216V392.28H234.536V399ZM246.199 396.228V395.766C246.199 393.428 244.925 392.112 243.049 392.112C241.019 392.112 239.395 393.526 239.395 395.64C239.395 397.754 241.019 399.168 243.049 399.168C244.113 399.168 245.107 398.79 245.891 397.824L244.687 396.914C244.267 397.432 243.721 397.824 242.881 397.824C241.943 397.824 241.187 397.222 241.075 396.228H246.199ZM241.075 394.968C241.201 394.002 241.817 393.372 242.811 393.372C243.861 393.372 244.505 393.988 244.519 394.968H241.075ZM251.97 399H253.482V395.136C253.482 394.184 253.482 392.112 250.612 392.112C249.548 392.112 248.498 392.434 247.756 393.19L248.638 394.072C249.086 393.652 249.73 393.372 250.43 393.372C251.326 393.372 251.97 393.806 251.97 394.632V394.814H251.55C249.87 394.814 247.322 394.968 247.322 397.152C247.322 398.482 248.526 399.168 249.772 399.168C250.668 399.168 251.452 398.832 251.928 398.076H251.97V399ZM251.872 396.368C251.872 397.306 251.326 397.908 250.178 397.908C249.632 397.908 249.002 397.642 249.002 397.026C249.002 396.06 250.598 395.99 251.522 395.99H251.872V396.368ZM255.892 393.708V396.788C255.892 398.37 256.312 399.168 258.09 399.168C258.482 399.168 259.07 399.112 259.42 398.944V397.53C259.21 397.684 258.804 397.74 258.51 397.74C257.768 397.74 257.572 397.32 257.572 396.648V393.708H259.42V392.28H257.572V390.334H255.892V392.28H254.506V393.708H255.892ZM267.199 396.228V395.766C267.199 393.428 265.925 392.112 264.049 392.112C262.019 392.112 260.395 393.526 260.395 395.64C260.395 397.754 262.019 399.168 264.049 399.168C265.113 399.168 266.107 398.79 266.891 397.824L265.687 396.914C265.267 397.432 264.721 397.824 263.881 397.824C262.943 397.824 262.187 397.222 262.075 396.228H267.199ZM262.075 394.968C262.201 394.002 262.817 393.372 263.811 393.372C264.861 393.372 265.505 393.988 265.519 394.968H262.075ZM273.515 393.708V396.788C273.515 398.37 273.935 399.168 275.713 399.168C276.105 399.168 276.693 399.112 277.043 398.944V397.53C276.833 397.684 276.427 397.74 276.133 397.74C275.391 397.74 275.195 397.32 275.195 396.648V393.708H277.043V392.28H275.195V390.334H273.515V392.28H272.129V393.708H273.515ZM282.554 399H284.066V395.136C284.066 394.184 284.066 392.112 281.196 392.112C280.132 392.112 279.082 392.434 278.34 393.19L279.222 394.072C279.67 393.652 280.314 393.372 281.014 393.372C281.91 393.372 282.554 393.806 282.554 394.632V394.814H282.134C280.454 394.814 277.906 394.968 277.906 397.152C277.906 398.482 279.11 399.168 280.356 399.168C281.252 399.168 282.036 398.832 282.512 398.076H282.554V399ZM282.456 396.368C282.456 397.306 281.91 397.908 280.762 397.908C280.216 397.908 279.586 397.642 279.586 397.026C279.586 396.06 281.182 395.99 282.106 395.99H282.456V396.368ZM285.874 399H287.47V397.992H287.498C287.988 398.804 288.87 399.168 289.808 399.168C291.88 399.168 293.126 397.628 293.126 395.64C293.126 393.652 291.796 392.112 289.878 392.112C288.618 392.112 287.946 392.7 287.596 393.134H287.554V388.416H285.874V399ZM291.446 395.64C291.446 396.69 290.704 397.656 289.472 397.656C288.24 397.656 287.498 396.69 287.498 395.64C287.498 394.59 288.24 393.624 289.472 393.624C290.704 393.624 291.446 394.59 291.446 395.64ZM294.72 399H296.4V388.416H294.72V399ZM304.797 396.228V395.766C304.797 393.428 303.523 392.112 301.647 392.112C299.617 392.112 297.993 393.526 297.993 395.64C297.993 397.754 299.617 399.168 301.647 399.168C302.711 399.168 303.705 398.79 304.489 397.824L303.285 396.914C302.865 397.432 302.319 397.824 301.479 397.824C300.541 397.824 299.785 397.222 299.673 396.228H304.797ZM299.673 394.968C299.799 394.002 300.415 393.372 301.409 393.372C302.459 393.372 303.103 393.988 303.117 394.968H299.673Z" fill="white"/>
<rect x="204.5" y="377.5" width="121" height="35" rx="3.5" stroke="#6C3078"/>
</svg>
