<svg width="589" height="96" viewBox="0 0 589 96" fill="none" xmlns="http://www.w3.org/2000/svg">
<path d="M3.136 12H4.9V3.684H7.938V2.088H0.098V3.684H3.136V12ZM9.39247 12.056L9.07047 12.854C8.79047 13.554 8.56647 13.848 7.74047 13.848C7.44647 13.848 7.15247 13.778 6.88647 13.68L6.67647 15.192C7.09647 15.304 7.53047 15.36 7.96447 15.36C9.44847 15.36 10.0365 14.702 10.5265 13.442L13.7045 5.28H11.9545L10.2745 9.942H10.2465L8.37047 5.28H6.52247L9.39247 12.056ZM14.6922 15.192H16.3722V11.146H16.4142C16.7642 11.58 17.4362 12.168 18.6962 12.168C20.6142 12.168 21.9442 10.628 21.9442 8.64C21.9442 6.652 20.6982 5.112 18.6262 5.112C17.6882 5.112 16.8062 5.476 16.3162 6.288H16.2882V5.28H14.6922V15.192ZM20.2642 8.64C20.2642 9.69 19.5222 10.656 18.2902 10.656C17.0582 10.656 16.3162 9.69 16.3162 8.64C16.3162 7.59 17.0582 6.624 18.2902 6.624C19.5222 6.624 20.2642 7.59 20.2642 8.64ZM29.9786 9.228V8.766C29.9786 6.428 28.7046 5.112 26.8286 5.112C24.7986 5.112 23.1746 6.526 23.1746 8.64C23.1746 10.754 24.7986 12.168 26.8286 12.168C27.8926 12.168 28.8866 11.79 29.6706 10.824L28.4666 9.914C28.0466 10.432 27.5006 10.824 26.6606 10.824C25.7226 10.824 24.9666 10.222 24.8546 9.228H29.9786ZM24.8546 7.968C24.9806 7.002 25.5966 6.372 26.5906 6.372C27.6406 6.372 28.2846 6.988 28.2986 7.968H24.8546ZM31.5497 11.02C31.5497 11.622 32.0817 12.084 32.6697 12.084C33.2857 12.084 33.7897 11.594 33.7897 10.992C33.7897 10.39 33.2717 9.928 32.6697 9.928C32.0537 9.928 31.5497 10.418 31.5497 11.02ZM31.5497 6.274C31.5497 6.876 32.0817 7.338 32.6697 7.338C33.2857 7.338 33.7897 6.848 33.7897 6.246C33.7897 5.644 33.2717 5.182 32.6697 5.182C32.0537 5.182 31.5497 5.672 31.5497 6.274ZM39.9888 12H41.7528V7.898H43.0128C45.1128 7.898 46.9748 7.45 46.9748 4.958C46.9748 2.76 45.2388 2.088 43.3208 2.088H39.9888V12ZM41.7528 6.386V3.6H43.0128C43.9648 3.6 45.1268 3.768 45.1268 4.986C45.1268 6.33 43.8248 6.386 42.8168 6.386H41.7528ZM48.3934 12H50.0734V8.402C50.0734 8.038 50.2974 6.708 51.8794 6.708C52.1454 6.708 52.4114 6.764 52.6914 6.834V5.21C52.4954 5.154 52.2994 5.112 52.0894 5.112C51.2074 5.112 50.4654 5.574 50.1014 6.344H50.0734V5.28H48.3934V12ZM53.8628 12H55.5428V5.28H53.8628V12ZM53.6248 2.998C53.6248 3.53 54.0728 4.006 54.6888 4.006C55.3048 4.006 55.7808 3.572 55.7808 2.998C55.7808 2.424 55.3048 1.99 54.6888 1.99C54.0728 1.99 53.6248 2.466 53.6248 2.998ZM57.4015 12H59.0815V8.332C59.0815 7.436 59.5155 6.624 60.6215 6.624C61.4335 6.624 61.7695 7.17 61.7695 7.996V12H63.4495V8.36C63.4495 7.492 63.8415 6.624 64.8915 6.624C65.8855 6.624 66.1375 7.352 66.1375 8.192V12H67.8175V7.996C67.8175 6.386 67.1875 5.112 65.3955 5.112C64.3875 5.112 63.6735 5.504 63.1835 6.358C62.8335 5.518 62.1195 5.112 61.0835 5.112C59.9635 5.112 59.3195 5.7 59.0255 6.33H58.9975V5.28H57.4015V12ZM73.8532 12H75.3652V8.136C75.3652 7.184 75.3652 5.112 72.4952 5.112C71.4312 5.112 70.3812 5.434 69.6392 6.19L70.5212 7.072C70.9692 6.652 71.6132 6.372 72.3132 6.372C73.2092 6.372 73.8532 6.806 73.8532 7.632V7.814H73.4332C71.7532 7.814 69.2052 7.968 69.2052 10.152C69.2052 11.482 70.4092 12.168 71.6552 12.168C72.5512 12.168 73.3352 11.832 73.8112 11.076H73.8532V12ZM73.7552 9.368C73.7552 10.306 73.2092 10.908 72.0612 10.908C71.5152 10.908 70.8852 10.642 70.8852 10.026C70.8852 9.06 72.4812 8.99 73.4052 8.99H73.7552V9.368ZM77.1727 12H78.8527V8.402C78.8527 8.038 79.0767 6.708 80.6587 6.708C80.9247 6.708 81.1907 6.764 81.4707 6.834V5.21C81.2747 5.154 81.0787 5.112 80.8687 5.112C79.9867 5.112 79.2447 5.574 78.8807 6.344H78.8527V5.28H77.1727V12ZM84.5741 12.056L84.2521 12.854C83.9721 13.554 83.7481 13.848 82.9221 13.848C82.6281 13.848 82.3341 13.778 82.0681 13.68L81.8581 15.192C82.2781 15.304 82.7121 15.36 83.1461 15.36C84.6301 15.36 85.2181 14.702 85.7081 13.442L88.8861 5.28H87.1361L85.4561 9.942H85.4281L83.5521 5.28H81.7041L84.5741 12.056ZM7.252 19.858C6.482 19.13 5.446 18.836 4.41 18.836C2.576 18.836 0.756 19.788 0.756 21.832C0.756 25.374 5.46 24.128 5.46 26.298C5.46 27.208 4.536 27.656 3.724 27.656C2.94 27.656 2.198 27.278 1.764 26.62L0.434 27.908C1.246 28.874 2.45 29.252 3.682 29.252C5.628 29.252 7.308 28.216 7.308 26.088C7.308 22.56 2.604 23.694 2.604 21.706C2.604 20.796 3.416 20.432 4.228 20.432C4.914 20.432 5.586 20.684 5.964 21.216L7.252 19.858ZM9.01906 29H10.6991V22.28H9.01906V29ZM8.78106 19.998C8.78106 20.53 9.22906 21.006 9.84506 21.006C10.4611 21.006 10.9371 20.572 10.9371 19.998C10.9371 19.424 10.4611 18.99 9.84506 18.99C9.22906 18.99 8.78106 19.466 8.78106 19.998ZM12.1518 29H17.9478V27.656H14.1398L17.7798 23.806V22.28H12.3198V23.624H15.7498V23.652L12.1518 27.446V29ZM25.8497 26.228V25.766C25.8497 23.428 24.5757 22.112 22.6997 22.112C20.6697 22.112 19.0457 23.526 19.0457 25.64C19.0457 27.754 20.6697 29.168 22.6997 29.168C23.7637 29.168 24.7577 28.79 25.5417 27.824L24.3377 26.914C23.9177 27.432 23.3717 27.824 22.5317 27.824C21.5937 27.824 20.8377 27.222 20.7257 26.228H25.8497ZM20.7257 24.968C20.8517 24.002 21.4677 23.372 22.4617 23.372C23.5117 23.372 24.1557 23.988 24.1697 24.968H20.7257ZM27.4208 28.02C27.4208 28.622 27.9528 29.084 28.5408 29.084C29.1568 29.084 29.6608 28.594 29.6608 27.992C29.6608 27.39 29.1428 26.928 28.5408 26.928C27.9248 26.928 27.4208 27.418 27.4208 28.02ZM27.4208 23.274C27.4208 23.876 27.9528 24.338 28.5408 24.338C29.1568 24.338 29.6608 23.848 29.6608 23.246C29.6608 22.644 29.1428 22.182 28.5408 22.182C27.9248 22.182 27.4208 22.672 27.4208 23.274ZM35.8599 29H39.5559C41.9359 29 44.8059 27.432 44.8059 24.044C44.8059 20.684 42.3699 19.088 39.7659 19.088H35.8599V29ZM37.6239 27.404V20.684H39.2339C41.3899 20.684 42.9579 21.636 42.9579 24.044C42.9579 26.452 41.1519 27.404 38.9399 27.404H37.6239ZM52.797 26.228V25.766C52.797 23.428 51.523 22.112 49.647 22.112C47.617 22.112 45.993 23.526 45.993 25.64C45.993 27.754 47.617 29.168 49.647 29.168C50.711 29.168 51.705 28.79 52.489 27.824L51.285 26.914C50.865 27.432 50.319 27.824 49.479 27.824C48.541 27.824 47.785 27.222 47.673 26.228H52.797ZM47.673 24.968C47.799 24.002 48.415 23.372 49.409 23.372C50.459 23.372 51.103 23.988 51.117 24.968H47.673ZM54.97 29H56.65V23.708H58.204V22.28H56.65V21.062C56.65 20.32 56.79 19.676 57.728 19.676C57.966 19.676 58.19 19.718 58.428 19.774L58.54 18.346C58.19 18.276 57.84 18.248 57.476 18.248C55.39 18.248 54.97 19.466 54.97 21.328V22.28H53.584V23.708H54.97V29ZM63.4899 29H65.0019V25.136C65.0019 24.184 65.0019 22.112 62.1319 22.112C61.0679 22.112 60.0179 22.434 59.2759 23.19L60.1579 24.072C60.6059 23.652 61.2499 23.372 61.9499 23.372C62.8459 23.372 63.4899 23.806 63.4899 24.632V24.814H63.0699C61.3899 24.814 58.8419 24.968 58.8419 27.152C58.8419 28.482 60.0459 29.168 61.2919 29.168C62.1879 29.168 62.9719 28.832 63.4479 28.076H63.4899V29ZM63.3919 26.368C63.3919 27.306 62.8459 27.908 61.6979 27.908C61.1519 27.908 60.5219 27.642 60.5219 27.026C60.5219 26.06 62.1179 25.99 63.0419 25.99H63.3919V26.368ZM72.9414 22.28H71.2614V25.948C71.2614 26.844 70.8274 27.656 69.7214 27.656C68.5454 27.656 68.4894 26.424 68.4894 25.682V22.28H66.8094V26.522C66.8094 27.894 67.4534 29.168 69.2594 29.168C70.3794 29.168 71.0094 28.594 71.3174 27.922H71.3454V29H72.9414V22.28ZM74.8765 29H76.5565V18.416H74.8765V29ZM79.0872 23.708V26.788C79.0872 28.37 79.5072 29.168 81.2852 29.168C81.6772 29.168 82.2652 29.112 82.6152 28.944V27.53C82.4052 27.684 81.9992 27.74 81.7052 27.74C80.9632 27.74 80.7672 27.32 80.7672 26.648V23.708H82.6152V22.28H80.7672V20.334H79.0872V22.28H77.7012V23.708H79.0872Z" fill="#333333"/>
<rect x="0.5" y="50.5" width="112" height="35" rx="3.5" fill="#6C3078"/>
<path d="M20 72H21.974L22.87 69.732H27.168L28.092 72H30.108L25.838 62.088H24.312L20 72ZM23.472 68.22L25.026 64.188L26.552 68.22H23.472ZM36.8095 66.134C36.1655 65.42 35.2275 65.112 34.3735 65.112C32.3435 65.112 30.7195 66.526 30.7195 68.64C30.7195 70.754 32.3435 72.168 34.3735 72.168C34.9615 72.168 36.1095 71.916 36.7955 71.23L35.6755 70.026C35.3675 70.432 34.8915 70.656 34.3735 70.656C33.1415 70.656 32.3995 69.69 32.3995 68.64C32.3995 67.59 33.1415 66.624 34.3735 66.624C34.8215 66.624 35.2555 66.89 35.6475 67.296L36.8095 66.134ZM38.4114 66.708V69.788C38.4114 71.37 38.8314 72.168 40.6094 72.168C41.0014 72.168 41.5894 72.112 41.9394 71.944V70.53C41.7294 70.684 41.3234 70.74 41.0294 70.74C40.2874 70.74 40.0914 70.32 40.0914 69.648V66.708H41.9394V65.28H40.0914V63.334H38.4114V65.28H37.0254V66.708H38.4114ZM43.2788 72H44.9588V65.28H43.2788V72ZM43.0408 62.998C43.0408 63.53 43.4888 64.006 44.1048 64.006C44.7208 64.006 45.1968 63.572 45.1968 62.998C45.1968 62.424 44.7208 61.99 44.1048 61.99C43.4888 61.99 43.0408 62.466 43.0408 62.998ZM46.5515 68.64C46.5515 70.754 48.1755 72.168 50.2055 72.168C52.2355 72.168 53.8595 70.754 53.8595 68.64C53.8595 66.526 52.2355 65.112 50.2055 65.112C48.1755 65.112 46.5515 66.526 46.5515 68.64ZM48.2315 68.64C48.2315 67.59 48.9735 66.624 50.2055 66.624C51.4375 66.624 52.1795 67.59 52.1795 68.64C52.1795 69.69 51.4375 70.656 50.2055 70.656C48.9735 70.656 48.2315 69.69 48.2315 68.64ZM55.4325 72H57.1125V68.332C57.1125 67.436 57.5465 66.624 58.6525 66.624C59.8285 66.624 59.8845 67.856 59.8845 68.598V72H61.5645V67.758C61.5645 66.386 60.9205 65.112 59.1145 65.112C57.9945 65.112 57.3645 65.686 57.0565 66.358H57.0285V65.28H55.4325V72ZM68.1755 66.134C67.6295 65.392 66.6775 65.112 65.7815 65.112C64.4235 65.112 63.0795 65.784 63.0795 67.282C63.0795 69.844 66.7055 68.752 66.7055 70.138C66.7055 70.67 66.0755 70.908 65.5855 70.908C64.8715 70.908 64.4235 70.558 63.9895 70.082L62.8695 71.132C63.5555 71.902 64.4515 72.168 65.4875 72.168C66.8595 72.168 68.3855 71.608 68.3855 70.012C68.3855 67.394 64.7595 68.374 64.7595 67.17C64.7595 66.666 65.2915 66.456 65.7395 66.456C66.3135 66.456 66.7335 66.694 67.0555 67.142L68.1755 66.134Z" fill="white"/>
<path d="M85.0004 70.6664C84.9348 70.6668 84.8697 70.6539 84.809 70.6288C84.7483 70.6036 84.6933 70.5665 84.6471 70.5198L81.3138 67.1864C81.2473 67.0892 81.2173 66.9716 81.2291 66.8543C81.2408 66.7371 81.2936 66.6278 81.3781 66.5457C81.4626 66.4636 81.5734 66.414 81.6909 66.4056C81.8084 66.3972 81.9251 66.4305 82.0204 66.4998L85.0004 69.4598L87.9804 66.4998C88.0744 66.4389 88.1861 66.4112 88.2977 66.4214C88.4092 66.4315 88.5141 66.4788 88.5956 66.5556C88.677 66.6325 88.7303 66.7345 88.7469 66.8452C88.7635 66.956 88.7425 67.0691 88.6871 67.1664L85.3538 70.4998C85.3093 70.5502 85.2551 70.5909 85.1943 70.6196C85.1336 70.6482 85.0676 70.6642 85.0004 70.6664V70.6664Z" fill="white"/>
<rect x="0.5" y="50.5" width="112" height="35" rx="3.5" stroke="white"/>
<path d="M132.136 12H133.9V3.684H136.938V2.088H129.098V3.684H132.136V12ZM138.392 12.056L138.07 12.854C137.79 13.554 137.566 13.848 136.74 13.848C136.446 13.848 136.152 13.778 135.886 13.68L135.676 15.192C136.096 15.304 136.53 15.36 136.964 15.36C138.448 15.36 139.036 14.702 139.526 13.442L142.704 5.28H140.954L139.274 9.942H139.246L137.37 5.28H135.522L138.392 12.056ZM143.692 15.192H145.372V11.146H145.414C145.764 11.58 146.436 12.168 147.696 12.168C149.614 12.168 150.944 10.628 150.944 8.64C150.944 6.652 149.698 5.112 147.626 5.112C146.688 5.112 145.806 5.476 145.316 6.288H145.288V5.28H143.692V15.192ZM149.264 8.64C149.264 9.69 148.522 10.656 147.29 10.656C146.058 10.656 145.316 9.69 145.316 8.64C145.316 7.59 146.058 6.624 147.29 6.624C148.522 6.624 149.264 7.59 149.264 8.64ZM158.979 9.228V8.766C158.979 6.428 157.705 5.112 155.829 5.112C153.799 5.112 152.175 6.526 152.175 8.64C152.175 10.754 153.799 12.168 155.829 12.168C156.893 12.168 157.887 11.79 158.671 10.824L157.467 9.914C157.047 10.432 156.501 10.824 155.661 10.824C154.723 10.824 153.967 10.222 153.855 9.228H158.979ZM153.855 7.968C153.981 7.002 154.597 6.372 155.591 6.372C156.641 6.372 157.285 6.988 157.299 7.968H153.855ZM160.55 11.02C160.55 11.622 161.082 12.084 161.67 12.084C162.286 12.084 162.79 11.594 162.79 10.992C162.79 10.39 162.272 9.928 161.67 9.928C161.054 9.928 160.55 10.418 160.55 11.02ZM160.55 6.274C160.55 6.876 161.082 7.338 161.67 7.338C162.286 7.338 162.79 6.848 162.79 6.246C162.79 5.644 162.272 5.182 161.67 5.182C161.054 5.182 160.55 5.672 160.55 6.274ZM168.989 12H170.753V7.898H172.013C174.113 7.898 175.975 7.45 175.975 4.958C175.975 2.76 174.239 2.088 172.321 2.088H168.989V12ZM170.753 6.386V3.6H172.013C172.965 3.6 174.127 3.768 174.127 4.986C174.127 6.33 172.825 6.386 171.817 6.386H170.753ZM177.393 12H179.073V8.402C179.073 8.038 179.297 6.708 180.879 6.708C181.145 6.708 181.411 6.764 181.691 6.834V5.21C181.495 5.154 181.299 5.112 181.089 5.112C180.207 5.112 179.465 5.574 179.101 6.344H179.073V5.28H177.393V12ZM182.863 12H184.543V5.28H182.863V12ZM182.625 2.998C182.625 3.53 183.073 4.006 183.689 4.006C184.305 4.006 184.781 3.572 184.781 2.998C184.781 2.424 184.305 1.99 183.689 1.99C183.073 1.99 182.625 2.466 182.625 2.998ZM186.402 12H188.082V8.332C188.082 7.436 188.516 6.624 189.622 6.624C190.434 6.624 190.77 7.17 190.77 7.996V12H192.45V8.36C192.45 7.492 192.842 6.624 193.892 6.624C194.886 6.624 195.138 7.352 195.138 8.192V12H196.818V7.996C196.818 6.386 196.188 5.112 194.396 5.112C193.388 5.112 192.674 5.504 192.184 6.358C191.834 5.518 191.12 5.112 190.084 5.112C188.964 5.112 188.32 5.7 188.026 6.33H187.998V5.28H186.402V12ZM202.853 12H204.365V8.136C204.365 7.184 204.365 5.112 201.495 5.112C200.431 5.112 199.381 5.434 198.639 6.19L199.521 7.072C199.969 6.652 200.613 6.372 201.313 6.372C202.209 6.372 202.853 6.806 202.853 7.632V7.814H202.433C200.753 7.814 198.205 7.968 198.205 10.152C198.205 11.482 199.409 12.168 200.655 12.168C201.551 12.168 202.335 11.832 202.811 11.076H202.853V12ZM202.755 9.368C202.755 10.306 202.209 10.908 201.061 10.908C200.515 10.908 199.885 10.642 199.885 10.026C199.885 9.06 201.481 8.99 202.405 8.99H202.755V9.368ZM206.173 12H207.853V8.402C207.853 8.038 208.077 6.708 209.659 6.708C209.925 6.708 210.191 6.764 210.471 6.834V5.21C210.275 5.154 210.079 5.112 209.869 5.112C208.987 5.112 208.245 5.574 207.881 6.344H207.853V5.28H206.173V12ZM213.574 12.056L213.252 12.854C212.972 13.554 212.748 13.848 211.922 13.848C211.628 13.848 211.334 13.778 211.068 13.68L210.858 15.192C211.278 15.304 211.712 15.36 212.146 15.36C213.63 15.36 214.218 14.702 214.708 13.442L217.886 5.28H216.136L214.456 9.942H214.428L212.552 5.28H210.704L213.574 12.056ZM136.252 19.858C135.482 19.13 134.446 18.836 133.41 18.836C131.576 18.836 129.756 19.788 129.756 21.832C129.756 25.374 134.46 24.128 134.46 26.298C134.46 27.208 133.536 27.656 132.724 27.656C131.94 27.656 131.198 27.278 130.764 26.62L129.434 27.908C130.246 28.874 131.45 29.252 132.682 29.252C134.628 29.252 136.308 28.216 136.308 26.088C136.308 22.56 131.604 23.694 131.604 21.706C131.604 20.796 132.416 20.432 133.228 20.432C133.914 20.432 134.586 20.684 134.964 21.216L136.252 19.858ZM138.019 29H139.699V22.28H138.019V29ZM137.781 19.998C137.781 20.53 138.229 21.006 138.845 21.006C139.461 21.006 139.937 20.572 139.937 19.998C139.937 19.424 139.461 18.99 138.845 18.99C138.229 18.99 137.781 19.466 137.781 19.998ZM141.152 29H146.948V27.656H143.14L146.78 23.806V22.28H141.32V23.624H144.75V23.652L141.152 27.446V29ZM154.85 26.228V25.766C154.85 23.428 153.576 22.112 151.7 22.112C149.67 22.112 148.046 23.526 148.046 25.64C148.046 27.754 149.67 29.168 151.7 29.168C152.764 29.168 153.758 28.79 154.542 27.824L153.338 26.914C152.918 27.432 152.372 27.824 151.532 27.824C150.594 27.824 149.838 27.222 149.726 26.228H154.85ZM149.726 24.968C149.852 24.002 150.468 23.372 151.462 23.372C152.512 23.372 153.156 23.988 153.17 24.968H149.726ZM156.421 28.02C156.421 28.622 156.953 29.084 157.541 29.084C158.157 29.084 158.661 28.594 158.661 27.992C158.661 27.39 158.143 26.928 157.541 26.928C156.925 26.928 156.421 27.418 156.421 28.02ZM156.421 23.274C156.421 23.876 156.953 24.338 157.541 24.338C158.157 24.338 158.661 23.848 158.661 23.246C158.661 22.644 158.143 22.182 157.541 22.182C156.925 22.182 156.421 22.672 156.421 23.274ZM164.86 29H170.838V27.404H166.624V19.088H164.86V29ZM180.926 23.204H177.132V24.8H179.162V27.138C178.546 27.488 177.734 27.656 176.838 27.656C174.794 27.656 173.436 26.088 173.436 23.974C173.436 22 174.794 20.432 176.838 20.432C177.832 20.432 178.798 20.782 179.428 21.398L180.73 20.082C179.694 19.158 178.336 18.836 176.824 18.836C173.772 18.836 171.588 20.908 171.588 24.086C171.588 27.18 173.772 29.252 176.824 29.252C178.35 29.252 179.722 28.916 180.926 28.272V23.204Z" fill="#333333"/>
<rect x="129.5" y="50.5" width="159" height="45" rx="7.5" fill="#6C3078"/>
<path d="M154.264 77H158.488C161.208 77 164.488 75.208 164.488 71.336C164.488 67.496 161.704 65.672 158.728 65.672H154.264V77ZM156.28 75.176V67.496H158.12C160.584 67.496 162.376 68.584 162.376 71.336C162.376 74.088 160.312 75.176 157.784 75.176H156.28ZM166.229 77H168.149V72.888C168.149 72.472 168.405 70.952 170.213 70.952C170.517 70.952 170.821 71.016 171.141 71.096V69.24C170.917 69.176 170.693 69.128 170.453 69.128C169.445 69.128 168.597 69.656 168.181 70.536H168.149V69.32H166.229V77ZM171.782 73.16C171.782 75.576 173.638 77.192 175.958 77.192C178.278 77.192 180.134 75.576 180.134 73.16C180.134 70.744 178.278 69.128 175.958 69.128C173.638 69.128 171.782 70.744 171.782 73.16ZM173.702 73.16C173.702 71.96 174.55 70.856 175.958 70.856C177.366 70.856 178.214 71.96 178.214 73.16C178.214 74.36 177.366 75.464 175.958 75.464C174.55 75.464 173.702 74.36 173.702 73.16ZM181.932 80.648H183.852V76.024H183.9C184.3 76.52 185.068 77.192 186.508 77.192C188.7 77.192 190.22 75.432 190.22 73.16C190.22 70.888 188.796 69.128 186.428 69.128C185.356 69.128 184.348 69.544 183.788 70.472H183.756V69.32H181.932V80.648ZM188.3 73.16C188.3 74.36 187.452 75.464 186.044 75.464C184.636 75.464 183.788 74.36 183.788 73.16C183.788 71.96 184.636 70.856 186.044 70.856C187.452 70.856 188.3 71.96 188.3 73.16ZM198.09 77H199.914V64.904H197.994V70.296H197.946C197.546 69.8 196.778 69.128 195.338 69.128C193.146 69.128 191.626 70.888 191.626 73.16C191.626 75.432 193.05 77.192 195.418 77.192C196.49 77.192 197.498 76.776 198.058 75.848H198.09V77ZM193.546 73.16C193.546 71.96 194.394 70.856 195.802 70.856C197.21 70.856 198.058 71.96 198.058 73.16C198.058 74.36 197.21 75.464 195.802 75.464C194.394 75.464 193.546 74.36 193.546 73.16ZM201.704 73.16C201.704 75.576 203.56 77.192 205.88 77.192C208.2 77.192 210.056 75.576 210.056 73.16C210.056 70.744 208.2 69.128 205.88 69.128C203.56 69.128 201.704 70.744 201.704 73.16ZM203.624 73.16C203.624 71.96 204.472 70.856 205.88 70.856C207.288 70.856 208.136 71.96 208.136 73.16C208.136 74.36 207.288 75.464 205.88 75.464C204.472 75.464 203.624 74.36 203.624 73.16ZM213.486 77H215.47L217.086 71.752H217.118L218.942 77H220.846L223.454 69.32H221.518L219.918 74.696H219.886L218.222 69.32H216.142L214.59 74.696H214.558L212.894 69.32H210.814L213.486 77ZM224.588 77H226.508V72.808C226.508 71.784 227.004 70.856 228.268 70.856C229.612 70.856 229.676 72.264 229.676 73.112V77H231.596V72.152C231.596 70.584 230.86 69.128 228.796 69.128C227.516 69.128 226.796 69.784 226.444 70.552H226.412V69.32H224.588V77Z" fill="white"/>
<path d="M253 76.2506C252.901 76.2511 252.804 76.2319 252.712 76.1941C252.621 76.1563 252.539 76.1008 252.47 76.0306L247.47 71.0306C247.37 70.8848 247.325 70.7083 247.343 70.5325C247.36 70.3566 247.439 70.1927 247.566 70.0695C247.693 69.9464 247.859 69.8719 248.035 69.8593C248.212 69.8467 248.387 69.8968 248.53 70.0006L253 74.4406L257.47 70.0006C257.611 69.9093 257.778 69.8678 257.946 69.883C258.113 69.8982 258.27 69.9691 258.392 70.0844C258.515 70.1997 258.595 70.3527 258.619 70.5188C258.644 70.6849 258.613 70.8546 258.53 71.0006L253.53 76.0006C253.463 76.0762 253.382 76.1374 253.29 76.1803C253.199 76.2233 253.1 76.2473 253 76.2506V76.2506Z" fill="white"/>
<rect x="129.5" y="50.5" width="159" height="45" rx="7.5" stroke="#6C3078"/>
<path d="M308.136 12H309.9V3.684H312.938V2.088H305.098V3.684H308.136V12ZM314.392 12.056L314.07 12.854C313.79 13.554 313.566 13.848 312.74 13.848C312.446 13.848 312.152 13.778 311.886 13.68L311.676 15.192C312.096 15.304 312.53 15.36 312.964 15.36C314.448 15.36 315.036 14.702 315.526 13.442L318.704 5.28H316.954L315.274 9.942H315.246L313.37 5.28H311.522L314.392 12.056ZM319.692 15.192H321.372V11.146H321.414C321.764 11.58 322.436 12.168 323.696 12.168C325.614 12.168 326.944 10.628 326.944 8.64C326.944 6.652 325.698 5.112 323.626 5.112C322.688 5.112 321.806 5.476 321.316 6.288H321.288V5.28H319.692V15.192ZM325.264 8.64C325.264 9.69 324.522 10.656 323.29 10.656C322.058 10.656 321.316 9.69 321.316 8.64C321.316 7.59 322.058 6.624 323.29 6.624C324.522 6.624 325.264 7.59 325.264 8.64ZM334.979 9.228V8.766C334.979 6.428 333.705 5.112 331.829 5.112C329.799 5.112 328.175 6.526 328.175 8.64C328.175 10.754 329.799 12.168 331.829 12.168C332.893 12.168 333.887 11.79 334.671 10.824L333.467 9.914C333.047 10.432 332.501 10.824 331.661 10.824C330.723 10.824 329.967 10.222 329.855 9.228H334.979ZM329.855 7.968C329.981 7.002 330.597 6.372 331.591 6.372C332.641 6.372 333.285 6.988 333.299 7.968H329.855ZM336.55 11.02C336.55 11.622 337.082 12.084 337.67 12.084C338.286 12.084 338.79 11.594 338.79 10.992C338.79 10.39 338.272 9.928 337.67 9.928C337.054 9.928 336.55 10.418 336.55 11.02ZM336.55 6.274C336.55 6.876 337.082 7.338 337.67 7.338C338.286 7.338 338.79 6.848 338.79 6.246C338.79 5.644 338.272 5.182 337.67 5.182C337.054 5.182 336.55 5.672 336.55 6.274ZM351.135 2.858C350.365 2.13 349.329 1.836 348.293 1.836C346.459 1.836 344.639 2.788 344.639 4.832C344.639 8.374 349.343 7.128 349.343 9.298C349.343 10.208 348.419 10.656 347.607 10.656C346.823 10.656 346.081 10.278 345.647 9.62L344.317 10.908C345.129 11.874 346.333 12.252 347.565 12.252C349.511 12.252 351.191 11.216 351.191 9.088C351.191 5.56 346.487 6.694 346.487 4.706C346.487 3.796 347.299 3.432 348.111 3.432C348.797 3.432 349.469 3.684 349.847 4.216L351.135 2.858ZM359.342 9.228V8.766C359.342 6.428 358.068 5.112 356.192 5.112C354.162 5.112 352.538 6.526 352.538 8.64C352.538 10.754 354.162 12.168 356.192 12.168C357.256 12.168 358.25 11.79 359.034 10.824L357.83 9.914C357.41 10.432 356.864 10.824 356.024 10.824C355.086 10.824 354.33 10.222 354.218 9.228H359.342ZM354.218 7.968C354.344 7.002 354.96 6.372 355.954 6.372C357.004 6.372 357.648 6.988 357.662 7.968H354.218ZM366.667 6.134C366.023 5.42 365.085 5.112 364.231 5.112C362.201 5.112 360.577 6.526 360.577 8.64C360.577 10.754 362.201 12.168 364.231 12.168C364.819 12.168 365.967 11.916 366.653 11.23L365.533 10.026C365.225 10.432 364.749 10.656 364.231 10.656C362.999 10.656 362.257 9.69 362.257 8.64C362.257 7.59 362.999 6.624 364.231 6.624C364.679 6.624 365.113 6.89 365.505 7.296L366.667 6.134ZM367.331 8.64C367.331 10.754 368.955 12.168 370.985 12.168C373.015 12.168 374.639 10.754 374.639 8.64C374.639 6.526 373.015 5.112 370.985 5.112C368.955 5.112 367.331 6.526 367.331 8.64ZM369.011 8.64C369.011 7.59 369.753 6.624 370.985 6.624C372.217 6.624 372.959 7.59 372.959 8.64C372.959 9.69 372.217 10.656 370.985 10.656C369.753 10.656 369.011 9.69 369.011 8.64ZM376.212 12H377.892V8.332C377.892 7.436 378.326 6.624 379.432 6.624C380.608 6.624 380.664 7.856 380.664 8.598V12H382.344V7.758C382.344 6.386 381.7 5.112 379.894 5.112C378.774 5.112 378.144 5.686 377.836 6.358H377.808V5.28H376.212V12ZM389.571 12H391.167V1.416H389.487V6.134H389.445C389.095 5.7 388.423 5.112 387.163 5.112C385.245 5.112 383.915 6.652 383.915 8.64C383.915 10.628 385.161 12.168 387.233 12.168C388.171 12.168 389.053 11.804 389.543 10.992H389.571V12ZM385.595 8.64C385.595 7.59 386.337 6.624 387.569 6.624C388.801 6.624 389.543 7.59 389.543 8.64C389.543 9.69 388.801 10.656 387.569 10.656C386.337 10.656 385.595 9.69 385.595 8.64ZM397.269 12H398.781V8.136C398.781 7.184 398.781 5.112 395.911 5.112C394.847 5.112 393.797 5.434 393.055 6.19L393.937 7.072C394.385 6.652 395.029 6.372 395.729 6.372C396.625 6.372 397.269 6.806 397.269 7.632V7.814H396.849C395.169 7.814 392.621 7.968 392.621 10.152C392.621 11.482 393.825 12.168 395.071 12.168C395.967 12.168 396.751 11.832 397.227 11.076H397.269V12ZM397.171 9.368C397.171 10.306 396.625 10.908 395.477 10.908C394.931 10.908 394.301 10.642 394.301 10.026C394.301 9.06 395.897 8.99 396.821 8.99H397.171V9.368ZM400.589 12H402.269V8.402C402.269 8.038 402.493 6.708 404.075 6.708C404.341 6.708 404.607 6.764 404.887 6.834V5.21C404.691 5.154 404.495 5.112 404.285 5.112C403.403 5.112 402.661 5.574 402.297 6.344H402.269V5.28H400.589V12ZM407.99 12.056L407.668 12.854C407.388 13.554 407.164 13.848 406.338 13.848C406.044 13.848 405.75 13.778 405.484 13.68L405.274 15.192C405.694 15.304 406.128 15.36 406.562 15.36C408.046 15.36 408.634 14.702 409.124 13.442L412.302 5.28H410.552L408.872 9.942H408.844L406.968 5.28H405.12L407.99 12.056ZM312.252 19.858C311.482 19.13 310.446 18.836 309.41 18.836C307.576 18.836 305.756 19.788 305.756 21.832C305.756 25.374 310.46 24.128 310.46 26.298C310.46 27.208 309.536 27.656 308.724 27.656C307.94 27.656 307.198 27.278 306.764 26.62L305.434 27.908C306.246 28.874 307.45 29.252 308.682 29.252C310.628 29.252 312.308 28.216 312.308 26.088C312.308 22.56 307.604 23.694 307.604 21.706C307.604 20.796 308.416 20.432 309.228 20.432C309.914 20.432 310.586 20.684 310.964 21.216L312.252 19.858ZM314.019 29H315.699V22.28H314.019V29ZM313.781 19.998C313.781 20.53 314.229 21.006 314.845 21.006C315.461 21.006 315.937 20.572 315.937 19.998C315.937 19.424 315.461 18.99 314.845 18.99C314.229 18.99 313.781 19.466 313.781 19.998ZM317.152 29H322.948V27.656H319.14L322.78 23.806V22.28H317.32V23.624H320.75V23.652L317.152 27.446V29ZM330.85 26.228V25.766C330.85 23.428 329.576 22.112 327.7 22.112C325.67 22.112 324.046 23.526 324.046 25.64C324.046 27.754 325.67 29.168 327.7 29.168C328.764 29.168 329.758 28.79 330.542 27.824L329.338 26.914C328.918 27.432 328.372 27.824 327.532 27.824C326.594 27.824 325.838 27.222 325.726 26.228H330.85ZM325.726 24.968C325.852 24.002 326.468 23.372 327.462 23.372C328.512 23.372 329.156 23.988 329.17 24.968H325.726ZM332.421 28.02C332.421 28.622 332.953 29.084 333.541 29.084C334.157 29.084 334.661 28.594 334.661 27.992C334.661 27.39 334.143 26.928 333.541 26.928C332.925 26.928 332.421 27.418 332.421 28.02ZM332.421 23.274C332.421 23.876 332.953 24.338 333.541 24.338C334.157 24.338 334.661 23.848 334.661 23.246C334.661 22.644 334.143 22.182 333.541 22.182C332.925 22.182 332.421 22.672 332.421 23.274ZM340.86 29H344.556C346.936 29 349.806 27.432 349.806 24.044C349.806 20.684 347.37 19.088 344.766 19.088H340.86V29ZM342.624 27.404V20.684H344.234C346.39 20.684 347.958 21.636 347.958 24.044C347.958 26.452 346.152 27.404 343.94 27.404H342.624ZM357.797 26.228V25.766C357.797 23.428 356.523 22.112 354.647 22.112C352.617 22.112 350.993 23.526 350.993 25.64C350.993 27.754 352.617 29.168 354.647 29.168C355.711 29.168 356.705 28.79 357.489 27.824L356.285 26.914C355.865 27.432 355.319 27.824 354.479 27.824C353.541 27.824 352.785 27.222 352.673 26.228H357.797ZM352.673 24.968C352.799 24.002 353.415 23.372 354.409 23.372C355.459 23.372 356.103 23.988 356.117 24.968H352.673ZM359.97 29H361.65V23.708H363.204V22.28H361.65V21.062C361.65 20.32 361.79 19.676 362.728 19.676C362.966 19.676 363.19 19.718 363.428 19.774L363.54 18.346C363.19 18.276 362.84 18.248 362.476 18.248C360.39 18.248 359.97 19.466 359.97 21.328V22.28H358.584V23.708H359.97V29ZM368.49 29H370.002V25.136C370.002 24.184 370.002 22.112 367.132 22.112C366.068 22.112 365.018 22.434 364.276 23.19L365.158 24.072C365.606 23.652 366.25 23.372 366.95 23.372C367.846 23.372 368.49 23.806 368.49 24.632V24.814H368.07C366.39 24.814 363.842 24.968 363.842 27.152C363.842 28.482 365.046 29.168 366.292 29.168C367.188 29.168 367.972 28.832 368.448 28.076H368.49V29ZM368.392 26.368C368.392 27.306 367.846 27.908 366.698 27.908C366.152 27.908 365.522 27.642 365.522 27.026C365.522 26.06 367.118 25.99 368.042 25.99H368.392V26.368ZM377.941 22.28H376.261V25.948C376.261 26.844 375.827 27.656 374.721 27.656C373.545 27.656 373.489 26.424 373.489 25.682V22.28H371.809V26.522C371.809 27.894 372.453 29.168 374.259 29.168C375.379 29.168 376.009 28.594 376.317 27.922H376.345V29H377.941V22.28ZM379.876 29H381.556V18.416H379.876V29ZM384.087 23.708V26.788C384.087 28.37 384.507 29.168 386.285 29.168C386.677 29.168 387.265 29.112 387.615 28.944V27.53C387.405 27.684 386.999 27.74 386.705 27.74C385.963 27.74 385.767 27.32 385.767 26.648V23.708H387.615V22.28H385.767V20.334H384.087V22.28H382.701V23.708H384.087Z" fill="#333333"/>
<rect x="305.5" y="50.5" width="106" height="35" rx="3.5" fill="#EDE9ED"/>
<path d="M325 72H326.974L327.87 69.732H332.168L333.092 72H335.108L330.838 62.088H329.312L325 72ZM328.472 68.22L330.026 64.188L331.552 68.22H328.472ZM341.81 66.134C341.166 65.42 340.228 65.112 339.374 65.112C337.344 65.112 335.72 66.526 335.72 68.64C335.72 70.754 337.344 72.168 339.374 72.168C339.962 72.168 341.11 71.916 341.796 71.23L340.676 70.026C340.368 70.432 339.892 70.656 339.374 70.656C338.142 70.656 337.4 69.69 337.4 68.64C337.4 67.59 338.142 66.624 339.374 66.624C339.822 66.624 340.256 66.89 340.648 67.296L341.81 66.134ZM343.411 66.708V69.788C343.411 71.37 343.831 72.168 345.609 72.168C346.001 72.168 346.589 72.112 346.939 71.944V70.53C346.729 70.684 346.323 70.74 346.029 70.74C345.287 70.74 345.091 70.32 345.091 69.648V66.708H346.939V65.28H345.091V63.334H343.411V65.28H342.025V66.708H343.411ZM348.279 72H349.959V65.28H348.279V72ZM348.041 62.998C348.041 63.53 348.489 64.006 349.105 64.006C349.721 64.006 350.197 63.572 350.197 62.998C350.197 62.424 349.721 61.99 349.105 61.99C348.489 61.99 348.041 62.466 348.041 62.998ZM351.552 68.64C351.552 70.754 353.176 72.168 355.206 72.168C357.236 72.168 358.86 70.754 358.86 68.64C358.86 66.526 357.236 65.112 355.206 65.112C353.176 65.112 351.552 66.526 351.552 68.64ZM353.232 68.64C353.232 67.59 353.974 66.624 355.206 66.624C356.438 66.624 357.18 67.59 357.18 68.64C357.18 69.69 356.438 70.656 355.206 70.656C353.974 70.656 353.232 69.69 353.232 68.64ZM360.432 72H362.112V68.332C362.112 67.436 362.546 66.624 363.652 66.624C364.828 66.624 364.884 67.856 364.884 68.598V72H366.564V67.758C366.564 66.386 365.92 65.112 364.114 65.112C362.994 65.112 362.364 65.686 362.056 66.358H362.028V65.28H360.432V72Z" fill="#6C3078"/>
<path d="M384 70.6664C383.935 70.6668 383.87 70.6539 383.809 70.6288C383.748 70.6036 383.693 70.5665 383.647 70.5198L380.314 67.1864C380.247 67.0892 380.217 66.9716 380.229 66.8543C380.241 66.7371 380.294 66.6278 380.378 66.5457C380.463 66.4636 380.573 66.414 380.691 66.4056C380.808 66.3972 380.925 66.4305 381.02 66.4998L384 69.4598L386.98 66.4998C387.074 66.4389 387.186 66.4112 387.298 66.4214C387.409 66.4315 387.514 66.4788 387.596 66.5556C387.677 66.6325 387.73 66.7345 387.747 66.8452C387.764 66.956 387.742 67.0691 387.687 67.1664L384.354 70.4998C384.309 70.5502 384.255 70.5909 384.194 70.6196C384.134 70.6482 384.068 70.6642 384 70.6664V70.6664Z" fill="#6C3078"/>
<rect x="305.5" y="50.5" width="106" height="35" rx="3.5" stroke="#6C3078"/>
<path d="M432.136 12H433.9V3.684H436.938V2.088H429.098V3.684H432.136V12ZM438.392 12.056L438.07 12.854C437.79 13.554 437.566 13.848 436.74 13.848C436.446 13.848 436.152 13.778 435.886 13.68L435.676 15.192C436.096 15.304 436.53 15.36 436.964 15.36C438.448 15.36 439.036 14.702 439.526 13.442L442.704 5.28H440.954L439.274 9.942H439.246L437.37 5.28H435.522L438.392 12.056ZM443.692 15.192H445.372V11.146H445.414C445.764 11.58 446.436 12.168 447.696 12.168C449.614 12.168 450.944 10.628 450.944 8.64C450.944 6.652 449.698 5.112 447.626 5.112C446.688 5.112 445.806 5.476 445.316 6.288H445.288V5.28H443.692V15.192ZM449.264 8.64C449.264 9.69 448.522 10.656 447.29 10.656C446.058 10.656 445.316 9.69 445.316 8.64C445.316 7.59 446.058 6.624 447.29 6.624C448.522 6.624 449.264 7.59 449.264 8.64ZM458.979 9.228V8.766C458.979 6.428 457.705 5.112 455.829 5.112C453.799 5.112 452.175 6.526 452.175 8.64C452.175 10.754 453.799 12.168 455.829 12.168C456.893 12.168 457.887 11.79 458.671 10.824L457.467 9.914C457.047 10.432 456.501 10.824 455.661 10.824C454.723 10.824 453.967 10.222 453.855 9.228H458.979ZM453.855 7.968C453.981 7.002 454.597 6.372 455.591 6.372C456.641 6.372 457.285 6.988 457.299 7.968H453.855ZM460.55 11.02C460.55 11.622 461.082 12.084 461.67 12.084C462.286 12.084 462.79 11.594 462.79 10.992C462.79 10.39 462.272 9.928 461.67 9.928C461.054 9.928 460.55 10.418 460.55 11.02ZM460.55 6.274C460.55 6.876 461.082 7.338 461.67 7.338C462.286 7.338 462.79 6.848 462.79 6.246C462.79 5.644 462.272 5.182 461.67 5.182C461.054 5.182 460.55 5.672 460.55 6.274ZM475.135 2.858C474.365 2.13 473.329 1.836 472.293 1.836C470.459 1.836 468.639 2.788 468.639 4.832C468.639 8.374 473.343 7.128 473.343 9.298C473.343 10.208 472.419 10.656 471.607 10.656C470.823 10.656 470.081 10.278 469.647 9.62L468.317 10.908C469.129 11.874 470.333 12.252 471.565 12.252C473.511 12.252 475.191 11.216 475.191 9.088C475.191 5.56 470.487 6.694 470.487 4.706C470.487 3.796 471.299 3.432 472.111 3.432C472.797 3.432 473.469 3.684 473.847 4.216L475.135 2.858ZM483.342 9.228V8.766C483.342 6.428 482.068 5.112 480.192 5.112C478.162 5.112 476.538 6.526 476.538 8.64C476.538 10.754 478.162 12.168 480.192 12.168C481.256 12.168 482.25 11.79 483.034 10.824L481.83 9.914C481.41 10.432 480.864 10.824 480.024 10.824C479.086 10.824 478.33 10.222 478.218 9.228H483.342ZM478.218 7.968C478.344 7.002 478.96 6.372 479.954 6.372C481.004 6.372 481.648 6.988 481.662 7.968H478.218ZM490.667 6.134C490.023 5.42 489.085 5.112 488.231 5.112C486.201 5.112 484.577 6.526 484.577 8.64C484.577 10.754 486.201 12.168 488.231 12.168C488.819 12.168 489.967 11.916 490.653 11.23L489.533 10.026C489.225 10.432 488.749 10.656 488.231 10.656C486.999 10.656 486.257 9.69 486.257 8.64C486.257 7.59 486.999 6.624 488.231 6.624C488.679 6.624 489.113 6.89 489.505 7.296L490.667 6.134ZM491.331 8.64C491.331 10.754 492.955 12.168 494.985 12.168C497.015 12.168 498.639 10.754 498.639 8.64C498.639 6.526 497.015 5.112 494.985 5.112C492.955 5.112 491.331 6.526 491.331 8.64ZM493.011 8.64C493.011 7.59 493.753 6.624 494.985 6.624C496.217 6.624 496.959 7.59 496.959 8.64C496.959 9.69 496.217 10.656 494.985 10.656C493.753 10.656 493.011 9.69 493.011 8.64ZM500.212 12H501.892V8.332C501.892 7.436 502.326 6.624 503.432 6.624C504.608 6.624 504.664 7.856 504.664 8.598V12H506.344V7.758C506.344 6.386 505.7 5.112 503.894 5.112C502.774 5.112 502.144 5.686 501.836 6.358H501.808V5.28H500.212V12ZM513.571 12H515.167V1.416H513.487V6.134H513.445C513.095 5.7 512.423 5.112 511.163 5.112C509.245 5.112 507.915 6.652 507.915 8.64C507.915 10.628 509.161 12.168 511.233 12.168C512.171 12.168 513.053 11.804 513.543 10.992H513.571V12ZM509.595 8.64C509.595 7.59 510.337 6.624 511.569 6.624C512.801 6.624 513.543 7.59 513.543 8.64C513.543 9.69 512.801 10.656 511.569 10.656C510.337 10.656 509.595 9.69 509.595 8.64ZM521.269 12H522.781V8.136C522.781 7.184 522.781 5.112 519.911 5.112C518.847 5.112 517.797 5.434 517.055 6.19L517.937 7.072C518.385 6.652 519.029 6.372 519.729 6.372C520.625 6.372 521.269 6.806 521.269 7.632V7.814H520.849C519.169 7.814 516.621 7.968 516.621 10.152C516.621 11.482 517.825 12.168 519.071 12.168C519.967 12.168 520.751 11.832 521.227 11.076H521.269V12ZM521.171 9.368C521.171 10.306 520.625 10.908 519.477 10.908C518.931 10.908 518.301 10.642 518.301 10.026C518.301 9.06 519.897 8.99 520.821 8.99H521.171V9.368ZM524.589 12H526.269V8.402C526.269 8.038 526.493 6.708 528.075 6.708C528.341 6.708 528.607 6.764 528.887 6.834V5.21C528.691 5.154 528.495 5.112 528.285 5.112C527.403 5.112 526.661 5.574 526.297 6.344H526.269V5.28H524.589V12ZM531.99 12.056L531.668 12.854C531.388 13.554 531.164 13.848 530.338 13.848C530.044 13.848 529.75 13.778 529.484 13.68L529.274 15.192C529.694 15.304 530.128 15.36 530.562 15.36C532.046 15.36 532.634 14.702 533.124 13.442L536.302 5.28H534.552L532.872 9.942H532.844L530.968 5.28H529.12L531.99 12.056ZM436.252 19.858C435.482 19.13 434.446 18.836 433.41 18.836C431.576 18.836 429.756 19.788 429.756 21.832C429.756 25.374 434.46 24.128 434.46 26.298C434.46 27.208 433.536 27.656 432.724 27.656C431.94 27.656 431.198 27.278 430.764 26.62L429.434 27.908C430.246 28.874 431.45 29.252 432.682 29.252C434.628 29.252 436.308 28.216 436.308 26.088C436.308 22.56 431.604 23.694 431.604 21.706C431.604 20.796 432.416 20.432 433.228 20.432C433.914 20.432 434.586 20.684 434.964 21.216L436.252 19.858ZM438.019 29H439.699V22.28H438.019V29ZM437.781 19.998C437.781 20.53 438.229 21.006 438.845 21.006C439.461 21.006 439.937 20.572 439.937 19.998C439.937 19.424 439.461 18.99 438.845 18.99C438.229 18.99 437.781 19.466 437.781 19.998ZM441.152 29H446.948V27.656H443.14L446.78 23.806V22.28H441.32V23.624H444.75V23.652L441.152 27.446V29ZM454.85 26.228V25.766C454.85 23.428 453.576 22.112 451.7 22.112C449.67 22.112 448.046 23.526 448.046 25.64C448.046 27.754 449.67 29.168 451.7 29.168C452.764 29.168 453.758 28.79 454.542 27.824L453.338 26.914C452.918 27.432 452.372 27.824 451.532 27.824C450.594 27.824 449.838 27.222 449.726 26.228H454.85ZM449.726 24.968C449.852 24.002 450.468 23.372 451.462 23.372C452.512 23.372 453.156 23.988 453.17 24.968H449.726ZM456.421 28.02C456.421 28.622 456.953 29.084 457.541 29.084C458.157 29.084 458.661 28.594 458.661 27.992C458.661 27.39 458.143 26.928 457.541 26.928C456.925 26.928 456.421 27.418 456.421 28.02ZM456.421 23.274C456.421 23.876 456.953 24.338 457.541 24.338C458.157 24.338 458.661 23.848 458.661 23.246C458.661 22.644 458.143 22.182 457.541 22.182C456.925 22.182 456.421 22.672 456.421 23.274ZM464.86 29H470.838V27.404H466.624V19.088H464.86V29ZM480.926 23.204H477.132V24.8H479.162V27.138C478.546 27.488 477.734 27.656 476.838 27.656C474.794 27.656 473.436 26.088 473.436 23.974C473.436 22 474.794 20.432 476.838 20.432C477.832 20.432 478.798 20.782 479.428 21.398L480.73 20.082C479.694 19.158 478.336 18.836 476.824 18.836C473.772 18.836 471.588 20.908 471.588 24.086C471.588 27.18 473.772 29.252 476.824 29.252C478.35 29.252 479.722 28.916 480.926 28.272V23.204Z" fill="#333333"/>
<rect x="429.5" y="50.5" width="159" height="45" rx="7.5" fill="#EDE9ED"/>
<path d="M454.264 77H458.488C461.208 77 464.488 75.208 464.488 71.336C464.488 67.496 461.704 65.672 458.728 65.672H454.264V77ZM456.28 75.176V67.496H458.12C460.584 67.496 462.376 68.584 462.376 71.336C462.376 74.088 460.312 75.176 457.784 75.176H456.28ZM466.229 77H468.149V72.888C468.149 72.472 468.405 70.952 470.213 70.952C470.517 70.952 470.821 71.016 471.141 71.096V69.24C470.917 69.176 470.693 69.128 470.453 69.128C469.445 69.128 468.597 69.656 468.181 70.536H468.149V69.32H466.229V77ZM471.782 73.16C471.782 75.576 473.638 77.192 475.958 77.192C478.278 77.192 480.134 75.576 480.134 73.16C480.134 70.744 478.278 69.128 475.958 69.128C473.638 69.128 471.782 70.744 471.782 73.16ZM473.702 73.16C473.702 71.96 474.55 70.856 475.958 70.856C477.366 70.856 478.214 71.96 478.214 73.16C478.214 74.36 477.366 75.464 475.958 75.464C474.55 75.464 473.702 74.36 473.702 73.16ZM481.932 80.648H483.852V76.024H483.9C484.3 76.52 485.068 77.192 486.508 77.192C488.7 77.192 490.22 75.432 490.22 73.16C490.22 70.888 488.796 69.128 486.428 69.128C485.356 69.128 484.348 69.544 483.788 70.472H483.756V69.32H481.932V80.648ZM488.3 73.16C488.3 74.36 487.452 75.464 486.044 75.464C484.636 75.464 483.788 74.36 483.788 73.16C483.788 71.96 484.636 70.856 486.044 70.856C487.452 70.856 488.3 71.96 488.3 73.16ZM498.09 77H499.914V64.904H497.994V70.296H497.946C497.546 69.8 496.778 69.128 495.338 69.128C493.146 69.128 491.626 70.888 491.626 73.16C491.626 75.432 493.05 77.192 495.418 77.192C496.49 77.192 497.498 76.776 498.058 75.848H498.09V77ZM493.546 73.16C493.546 71.96 494.394 70.856 495.802 70.856C497.21 70.856 498.058 71.96 498.058 73.16C498.058 74.36 497.21 75.464 495.802 75.464C494.394 75.464 493.546 74.36 493.546 73.16ZM501.704 73.16C501.704 75.576 503.56 77.192 505.88 77.192C508.2 77.192 510.056 75.576 510.056 73.16C510.056 70.744 508.2 69.128 505.88 69.128C503.56 69.128 501.704 70.744 501.704 73.16ZM503.624 73.16C503.624 71.96 504.472 70.856 505.88 70.856C507.288 70.856 508.136 71.96 508.136 73.16C508.136 74.36 507.288 75.464 505.88 75.464C504.472 75.464 503.624 74.36 503.624 73.16ZM513.486 77H515.47L517.086 71.752H517.118L518.942 77H520.846L523.454 69.32H521.518L519.918 74.696H519.886L518.222 69.32H516.142L514.59 74.696H514.558L512.894 69.32H510.814L513.486 77ZM524.588 77H526.508V72.808C526.508 71.784 527.004 70.856 528.268 70.856C529.612 70.856 529.676 72.264 529.676 73.112V77H531.596V72.152C531.596 70.584 530.86 69.128 528.796 69.128C527.516 69.128 526.796 69.784 526.444 70.552H526.412V69.32H524.588V77Z" fill="#6C3078"/>
<path d="M553 76.2506C552.901 76.2511 552.804 76.2319 552.712 76.1941C552.621 76.1563 552.539 76.1008 552.47 76.0306L547.47 71.0306C547.37 70.8848 547.325 70.7083 547.343 70.5325C547.36 70.3566 547.439 70.1927 547.566 70.0695C547.693 69.9464 547.859 69.8719 548.035 69.8593C548.212 69.8467 548.387 69.8968 548.53 70.0006L553 74.4406L557.47 70.0006C557.611 69.9093 557.778 69.8678 557.946 69.883C558.113 69.8982 558.27 69.9691 558.392 70.0844C558.515 70.1997 558.595 70.3527 558.619 70.5188C558.644 70.6849 558.613 70.8546 558.53 71.0006L553.53 76.0006C553.463 76.0762 553.382 76.1374 553.29 76.1803C553.199 76.2233 553.1 76.2473 553 76.2506V76.2506Z" fill="#6C3078"/>
<rect x="429.5" y="50.5" width="159" height="45" rx="7.5" stroke="#6C3078"/>
</svg>
