<svg width="12" height="12" viewBox="0 0 12 12" fill="none" xmlns="http://www.w3.org/2000/svg">
<path d="M9.83333 11.6667H1.83333C1.3471 11.6667 0.880787 11.4735 0.536971 11.1297C0.193154 10.7859 0 10.3196 0 9.83333V1.83333C0 1.3471 0.193154 0.880787 0.536971 0.536971C0.880787 0.193154 1.3471 0 1.83333 0H5.83333C5.96594 0 6.09312 0.0526784 6.18689 0.146447C6.28065 0.240215 6.33333 0.367392 6.33333 0.5C6.33333 0.632608 6.28065 0.759785 6.18689 0.853553C6.09312 0.947322 5.96594 1 5.83333 1H1.83333C1.61232 1 1.40036 1.0878 1.24408 1.24408C1.0878 1.40036 1 1.61232 1 1.83333V9.83333C1 10.0543 1.0878 10.2663 1.24408 10.4226C1.40036 10.5789 1.61232 10.6667 1.83333 10.6667H9.83333C10.0543 10.6667 10.2663 10.5789 10.4226 10.4226C10.5789 10.2663 10.6667 10.0543 10.6667 9.83333V5.83333C10.6667 5.70072 10.7193 5.57355 10.8131 5.47978C10.9069 5.38601 11.0341 5.33333 11.1667 5.33333C11.2993 5.33333 11.4265 5.38601 11.5202 5.47978C11.614 5.57355 11.6667 5.70072 11.6667 5.83333V9.83333C11.6667 10.3196 11.4735 10.7859 11.1297 11.1297C10.7859 11.4735 10.3196 11.6667 9.83333 11.6667Z" fill="#6B778C"/>
<path d="M11.1667 3.66667C11.0346 3.66494 10.9084 3.61171 10.815 3.51831C10.7216 3.42491 10.6684 3.29874 10.6667 3.16667V1H8.5C8.36739 1 8.24022 0.947322 8.14645 0.853553C8.05268 0.759785 8 0.632608 8 0.5C8 0.367392 8.05268 0.240215 8.14645 0.146447C8.24022 0.0526784 8.36739 0 8.5 0H11.1667C11.2987 0.00172664 11.4249 0.0549594 11.5183 0.148356C11.6117 0.241752 11.6649 0.367929 11.6667 0.5V3.16667C11.6649 3.29874 11.6117 3.42491 11.5183 3.51831C11.4249 3.61171 11.2987 3.66494 11.1667 3.66667V3.66667Z" fill="#6B778C"/>
<path d="M6.83334 5.33264C6.70471 5.32281 6.58505 5.26298 6.5 5.16598C6.41801 5.0743 6.37268 4.95563 6.37268 4.83264C6.37268 4.70965 6.41801 4.59098 6.5 4.49931L10.8333 0.165975C10.8791 0.11685 10.9343 0.0774489 10.9956 0.0501209C11.057 0.0227929 11.1232 0.00809827 11.1903 0.00691375C11.2575 0.00572923 11.3241 0.018079 11.3864 0.0432263C11.4487 0.0683737 11.5052 0.105803 11.5527 0.153283C11.6002 0.200762 11.6376 0.257318 11.6628 0.319577C11.6879 0.381835 11.7002 0.448521 11.6991 0.515656C11.6979 0.582792 11.6832 0.649001 11.6559 0.710334C11.6285 0.771667 11.5891 0.826867 11.54 0.872642L7.16667 5.16598C7.08162 5.26298 6.96196 5.32281 6.83334 5.33264Z" fill="#6B778C"/>
</svg>
