<svg width="463" height="402" viewBox="0 0 463 402" fill="none" xmlns="http://www.w3.org/2000/svg">
<rect width="463" height="402" fill="white"/>
<rect x="32" y="8" width="399" height="16" rx="2" fill="#E7EDF9"/>
<rect x="32" y="32" width="116" height="16" rx="2" fill="#E7EDF9"/>
<rect x="32" y="56" width="63" height="16" rx="2" fill="#E7EDF9"/>
<rect x="32" y="80" width="399" height="16" rx="2" fill="#E7EDF9"/>
<rect x="32.5" y="358.5" width="128" height="35" rx="3.5" fill="#6C3078"/>
<path d="M59.252 370.858C58.482 370.13 57.446 369.836 56.41 369.836C54.576 369.836 52.756 370.788 52.756 372.832C52.756 376.374 57.46 375.128 57.46 377.298C57.46 378.208 56.536 378.656 55.724 378.656C54.94 378.656 54.198 378.278 53.764 377.62L52.434 378.908C53.246 379.874 54.45 380.252 55.682 380.252C57.628 380.252 59.308 379.216 59.308 377.088C59.308 373.56 54.604 374.694 54.604 372.706C54.604 371.796 55.416 371.432 56.228 371.432C56.914 371.432 57.586 371.684 57.964 372.216L59.252 370.858ZM65.1911 380H66.7031V376.136C66.7031 375.184 66.7031 373.112 63.8331 373.112C62.7691 373.112 61.7191 373.434 60.9771 374.19L61.8591 375.072C62.3071 374.652 62.9511 374.372 63.6511 374.372C64.5471 374.372 65.1911 374.806 65.1911 375.632V375.814H64.7711C63.0911 375.814 60.5431 375.968 60.5431 378.152C60.5431 379.482 61.7471 380.168 62.9931 380.168C63.8891 380.168 64.6731 379.832 65.1491 379.076H65.1911V380ZM65.0931 377.368C65.0931 378.306 64.5471 378.908 63.3991 378.908C62.8531 378.908 62.2231 378.642 62.2231 378.026C62.2231 377.06 63.8191 376.99 64.7431 376.99H65.0931V377.368ZM70.3446 380H72.1366L74.7826 373.28H73.0606L71.2546 377.984H71.2266L69.4346 373.28H67.6006L70.3446 380ZM82.2384 377.228V376.766C82.2384 374.428 80.9644 373.112 79.0884 373.112C77.0584 373.112 75.4344 374.526 75.4344 376.64C75.4344 378.754 77.0584 380.168 79.0884 380.168C80.1524 380.168 81.1464 379.79 81.9304 378.824L80.7264 377.914C80.3064 378.432 79.7604 378.824 78.9204 378.824C77.9824 378.824 77.2264 378.222 77.1144 377.228H82.2384ZM77.1144 375.968C77.2404 375.002 77.8564 374.372 78.8504 374.372C79.9004 374.372 80.5444 374.988 80.5584 375.968H77.1144ZM93.706 374.134C93.062 373.42 92.124 373.112 91.27 373.112C89.24 373.112 87.616 374.526 87.616 376.64C87.616 378.754 89.24 380.168 91.27 380.168C91.858 380.168 93.006 379.916 93.692 379.23L92.572 378.026C92.264 378.432 91.788 378.656 91.27 378.656C90.038 378.656 89.296 377.69 89.296 376.64C89.296 375.59 90.038 374.624 91.27 374.624C91.718 374.624 92.152 374.89 92.544 375.296L93.706 374.134ZM96.3859 369.416H94.7059V380H96.3859V376.332C96.3859 375.436 96.8199 374.624 97.9259 374.624C99.1019 374.624 99.1579 375.856 99.1579 376.598V380H100.838V375.758C100.838 374.386 100.194 373.112 98.3879 373.112C97.3519 373.112 96.6799 373.658 96.4139 374.218H96.3859V369.416ZM106.945 380H108.457V376.136C108.457 375.184 108.457 373.112 105.587 373.112C104.523 373.112 103.473 373.434 102.731 374.19L103.613 375.072C104.061 374.652 104.705 374.372 105.405 374.372C106.301 374.372 106.945 374.806 106.945 375.632V375.814H106.525C104.845 375.814 102.297 375.968 102.297 378.152C102.297 379.482 103.501 380.168 104.747 380.168C105.643 380.168 106.427 379.832 106.903 379.076H106.945V380ZM106.847 377.368C106.847 378.306 106.301 378.908 105.153 378.908C104.607 378.908 103.977 378.642 103.977 378.026C103.977 377.06 105.573 376.99 106.497 376.99H106.847V377.368ZM110.265 380H111.945V376.332C111.945 375.436 112.379 374.624 113.485 374.624C114.661 374.624 114.717 375.856 114.717 376.598V380H116.397V375.758C116.397 374.386 115.753 373.112 113.947 373.112C112.827 373.112 112.197 373.686 111.889 374.358H111.861V373.28H110.265V380ZM123.624 373.28V374.288H123.596C123.106 373.476 122.224 373.112 121.286 373.112C119.214 373.112 117.968 374.652 117.968 376.64C117.968 378.544 119.298 380.084 121.314 380.084C122.154 380.084 123.022 379.762 123.512 379.104H123.54V379.594C123.54 380.924 123.036 381.848 121.412 381.848C120.474 381.848 119.774 381.498 119.102 380.882L118.094 382.254C119.046 383.094 120.18 383.36 121.426 383.36C124.044 383.36 125.22 381.82 125.22 379.398V373.28H123.624ZM121.636 374.624C122.854 374.624 123.624 375.436 123.624 376.598C123.624 377.718 122.868 378.572 121.622 378.572C120.488 378.572 119.648 377.69 119.648 376.626C119.648 375.436 120.46 374.624 121.636 374.624ZM133.59 377.228V376.766C133.59 374.428 132.316 373.112 130.44 373.112C128.41 373.112 126.786 374.526 126.786 376.64C126.786 378.754 128.41 380.168 130.44 380.168C131.504 380.168 132.498 379.79 133.282 378.824L132.078 377.914C131.658 378.432 131.112 378.824 130.272 378.824C129.334 378.824 128.578 378.222 128.466 377.228H133.59ZM128.466 375.968C128.592 375.002 129.208 374.372 130.202 374.372C131.252 374.372 131.896 374.988 131.91 375.968H128.466ZM139.865 374.134C139.319 373.392 138.367 373.112 137.471 373.112C136.113 373.112 134.769 373.784 134.769 375.282C134.769 377.844 138.395 376.752 138.395 378.138C138.395 378.67 137.765 378.908 137.275 378.908C136.561 378.908 136.113 378.558 135.679 378.082L134.559 379.132C135.245 379.902 136.141 380.168 137.177 380.168C138.549 380.168 140.075 379.608 140.075 378.012C140.075 375.394 136.449 376.374 136.449 375.17C136.449 374.666 136.981 374.456 137.429 374.456C138.003 374.456 138.423 374.694 138.745 375.142L139.865 374.134Z" fill="white"/>
<rect x="32.5" y="358.5" width="128" height="35" rx="3.5" stroke="#6C3078"/>
<rect x="177.5" y="358.5" width="83" height="35" rx="3.5" fill="white"/>
<path d="M206.282 371.404C205.302 370.27 204.154 369.836 202.81 369.836C199.758 369.836 197.574 371.908 197.574 375.086C197.574 378.18 199.758 380.252 202.81 380.252C204.266 380.252 205.61 379.72 206.506 378.488L205.05 377.452C204.392 378.292 203.622 378.656 202.824 378.656C200.78 378.656 199.422 377.088 199.422 374.974C199.422 373 200.78 371.432 202.824 371.432C203.51 371.432 204.182 371.642 204.91 372.412L206.282 371.404ZM211.736 380H213.248V376.136C213.248 375.184 213.248 373.112 210.378 373.112C209.314 373.112 208.264 373.434 207.522 374.19L208.404 375.072C208.852 374.652 209.496 374.372 210.196 374.372C211.092 374.372 211.736 374.806 211.736 375.632V375.814H211.316C209.636 375.814 207.088 375.968 207.088 378.152C207.088 379.482 208.292 380.168 209.538 380.168C210.434 380.168 211.218 379.832 211.694 379.076H211.736V380ZM211.638 377.368C211.638 378.306 211.092 378.908 209.944 378.908C209.398 378.908 208.768 378.642 208.768 378.026C208.768 377.06 210.364 376.99 211.288 376.99H211.638V377.368ZM215.056 380H216.736V376.332C216.736 375.436 217.17 374.624 218.276 374.624C219.452 374.624 219.508 375.856 219.508 376.598V380H221.188V375.758C221.188 374.386 220.544 373.112 218.738 373.112C217.618 373.112 216.988 373.686 216.68 374.358H216.652V373.28H215.056V380ZM228.849 374.134C228.205 373.42 227.267 373.112 226.413 373.112C224.383 373.112 222.759 374.526 222.759 376.64C222.759 378.754 224.383 380.168 226.413 380.168C227.001 380.168 228.149 379.916 228.835 379.23L227.715 378.026C227.407 378.432 226.931 378.656 226.413 378.656C225.181 378.656 224.439 377.69 224.439 376.64C224.439 375.59 225.181 374.624 226.413 374.624C226.861 374.624 227.295 374.89 227.687 375.296L228.849 374.134ZM236.316 377.228V376.766C236.316 374.428 235.042 373.112 233.166 373.112C231.136 373.112 229.512 374.526 229.512 376.64C229.512 378.754 231.136 380.168 233.166 380.168C234.23 380.168 235.224 379.79 236.008 378.824L234.804 377.914C234.384 378.432 233.838 378.824 232.998 378.824C232.06 378.824 231.304 378.222 231.192 377.228H236.316ZM231.192 375.968C231.318 375.002 231.934 374.372 232.928 374.372C233.978 374.372 234.622 374.988 234.636 375.968H231.192ZM237.916 380H239.596V369.416H237.916V380Z" fill="#6C3078"/>
<rect x="177.5" y="358.5" width="83" height="35" rx="3.5" stroke="white"/>
<rect x="32" y="120" width="85" height="16" rx="2" fill="#E7EDF9"/>
<rect x="32" y="140" width="329" height="36" rx="2" fill="#E7EDF9"/>
<rect x="32" y="192" width="85" height="16" rx="2" fill="#E7EDF9"/>
<rect x="32" y="212" width="329" height="36" rx="2" fill="#E7EDF9"/>
<rect x="32.5" y="286.5" width="19" height="19" rx="3.5" fill="white" stroke="#9EA6B5"/>
<rect x="32.5" y="314.5" width="19" height="19" rx="3.5" fill="white" stroke="#9EA6B5"/>
<rect x="32" y="264" width="85" height="18" rx="2" fill="#E7EDF9"/>
<rect x="59" y="288" width="114" height="16" rx="2" fill="#E7EDF9"/>
<rect x="59" y="316" width="114" height="16" rx="2" fill="#E7EDF9"/>
</svg>
