<svg width="641" height="19" viewBox="0 0 641 19" fill="none" xmlns="http://www.w3.org/2000/svg">
<path d="M9.008 2.672H0.176V3.92H3.92V14H5.264V3.92H9.008V2.672ZM10.3715 14H11.6195V10.352C11.6195 8.64 12.3235 7.472 13.9395 7.472C15.1075 7.472 15.6515 8.256 15.6515 9.504V14H16.8995V9.376C16.8995 7.568 16.0195 6.32 14.0515 6.32C12.8835 6.32 11.9875 6.96 11.6515 7.552H11.6195V1.904H10.3715V14ZM19.3741 14H20.6221V6.512H19.3741V14ZM19.0861 3.584C19.0861 4.112 19.4701 4.496 19.9981 4.496C20.5261 4.496 20.9101 4.112 20.9101 3.584C20.9101 3.088 20.5101 2.672 19.9981 2.672C19.4861 2.672 19.0861 3.088 19.0861 3.584ZM22.2739 12.8C23.0099 13.856 23.9219 14.192 25.1859 14.192C26.6739 14.192 28.1779 13.536 28.1779 11.84C28.1779 10.336 27.0579 9.856 25.7299 9.6C24.7379 9.408 23.8419 9.136 23.8419 8.512C23.8419 7.808 24.6259 7.472 25.3139 7.472C26.0499 7.472 26.5779 7.84 26.8979 8.368L27.9379 7.68C27.4259 6.72 26.4499 6.32 25.3939 6.32C24.0019 6.32 22.5939 7.072 22.5939 8.528C22.5939 10.08 23.8099 10.384 25.2339 10.704C26.0339 10.88 26.8339 11.088 26.8339 11.888C26.8339 12.704 25.9699 13.04 25.1859 13.04C24.3059 13.04 23.7619 12.64 23.2659 12.032L22.2739 12.8ZM34.4835 14H35.7315V6.512H34.4835V14ZM34.1955 3.584C34.1955 4.112 34.5795 4.496 35.1075 4.496C35.6355 4.496 36.0195 4.112 36.0195 3.584C36.0195 3.088 35.6195 2.672 35.1075 2.672C34.5955 2.672 34.1955 3.088 34.1955 3.584ZM37.3833 12.8C38.1193 13.856 39.0312 14.192 40.2953 14.192C41.7833 14.192 43.2873 13.536 43.2873 11.84C43.2873 10.336 42.1673 9.856 40.8393 9.6C39.8473 9.408 38.9513 9.136 38.9513 8.512C38.9513 7.808 39.7353 7.472 40.4233 7.472C41.1593 7.472 41.6873 7.84 42.0073 8.368L43.0473 7.68C42.5353 6.72 41.5593 6.32 40.5033 6.32C39.1113 6.32 37.7033 7.072 37.7033 8.528C37.7033 10.08 38.9193 10.384 40.3433 10.704C41.1432 10.88 41.9433 11.088 41.9433 11.888C41.9433 12.704 41.0793 13.04 40.2953 13.04C39.4153 13.04 38.8713 12.64 38.3753 12.032L37.3833 12.8ZM50.1689 8.288C50.7609 7.744 51.5929 7.472 52.3929 7.472C53.5609 7.472 54.2489 8.032 54.2489 9.12V9.344H53.7689C51.9289 9.344 49.0489 9.488 49.0489 11.968C49.0489 13.424 50.3129 14.192 51.8329 14.192C52.9689 14.192 53.8009 13.648 54.2969 12.88H54.3289C54.3289 13.2 54.3289 13.664 54.4089 14H55.6089C55.5449 13.616 55.4969 13.136 55.4969 12.704V9.488C55.4969 7.376 54.5689 6.32 52.3609 6.32C51.2729 6.32 50.1529 6.688 49.3849 7.472L50.1689 8.288ZM54.2489 10.4V10.88C54.2169 12.096 53.4809 13.136 52.0409 13.136C51.0969 13.136 50.3929 12.784 50.3929 11.84C50.3929 10.832 51.4169 10.4 53.0009 10.4H54.2489ZM62.3429 14H63.5909V1.904H62.3429V14ZM66.1866 14H67.4346V6.512H66.1866V14ZM65.8986 3.584C65.8986 4.112 66.2826 4.496 66.8106 4.496C67.3386 4.496 67.7226 4.112 67.7226 3.584C67.7226 3.088 67.3226 2.672 66.8106 2.672C66.2986 2.672 65.8986 3.088 65.8986 3.584ZM69.9184 14H71.1664V10.352C71.1664 8.64 71.8704 7.472 73.4864 7.472C74.6544 7.472 75.1984 8.256 75.1984 9.504V14H76.4464V9.376C76.4464 7.568 75.5664 6.32 73.5984 6.32C72.3664 6.32 71.4384 7.008 71.1024 7.744H71.0704C71.0704 7.328 71.0384 6.912 71.0384 6.512H69.8544C69.8544 7.008 69.9184 7.6 69.9184 8.288V14ZM78.809 14H80.057V10.064L83.769 14H85.609L81.625 9.92L85.241 6.512H83.465L80.057 9.808V1.904H78.809V14Z" fill="#6C3078"/>
<path d="M221.008 2.672H212.176V3.92H215.92V14H217.264V3.92H221.008V2.672ZM222.372 14H223.62V10.352C223.62 8.64 224.324 7.472 225.94 7.472C227.108 7.472 227.652 8.256 227.652 9.504V14H228.9V9.376C228.9 7.568 228.02 6.32 226.052 6.32C224.884 6.32 223.988 6.96 223.652 7.552H223.62V1.904H222.372V14ZM231.374 14H232.622V6.512H231.374V14ZM231.086 3.584C231.086 4.112 231.47 4.496 231.998 4.496C232.526 4.496 232.91 4.112 232.91 3.584C232.91 3.088 232.51 2.672 231.998 2.672C231.486 2.672 231.086 3.088 231.086 3.584ZM234.274 12.8C235.01 13.856 235.922 14.192 237.186 14.192C238.674 14.192 240.178 13.536 240.178 11.84C240.178 10.336 239.058 9.856 237.73 9.6C236.738 9.408 235.842 9.136 235.842 8.512C235.842 7.808 236.626 7.472 237.314 7.472C238.05 7.472 238.578 7.84 238.898 8.368L239.938 7.68C239.426 6.72 238.45 6.32 237.394 6.32C236.002 6.32 234.594 7.072 234.594 8.528C234.594 10.08 235.81 10.384 237.234 10.704C238.034 10.88 238.834 11.088 238.834 11.888C238.834 12.704 237.97 13.04 237.186 13.04C236.306 13.04 235.762 12.64 235.266 12.032L234.274 12.8ZM246.484 14H247.732V6.512H246.484V14ZM246.196 3.584C246.196 4.112 246.58 4.496 247.108 4.496C247.636 4.496 248.02 4.112 248.02 3.584C248.02 3.088 247.62 2.672 247.108 2.672C246.596 2.672 246.196 3.088 246.196 3.584ZM249.383 12.8C250.119 13.856 251.031 14.192 252.295 14.192C253.783 14.192 255.287 13.536 255.287 11.84C255.287 10.336 254.167 9.856 252.839 9.6C251.847 9.408 250.951 9.136 250.951 8.512C250.951 7.808 251.735 7.472 252.423 7.472C253.159 7.472 253.687 7.84 254.007 8.368L255.047 7.68C254.535 6.72 253.559 6.32 252.503 6.32C251.111 6.32 249.703 7.072 249.703 8.528C249.703 10.08 250.919 10.384 252.343 10.704C253.143 10.88 253.943 11.088 253.943 11.888C253.943 12.704 253.079 13.04 252.295 13.04C251.415 13.04 250.871 12.64 250.375 12.032L249.383 12.8ZM262.169 8.288C262.761 7.744 263.593 7.472 264.393 7.472C265.561 7.472 266.249 8.032 266.249 9.12V9.344H265.769C263.929 9.344 261.049 9.488 261.049 11.968C261.049 13.424 262.313 14.192 263.833 14.192C264.969 14.192 265.801 13.648 266.297 12.88H266.329C266.329 13.2 266.329 13.664 266.409 14H267.609C267.545 13.616 267.497 13.136 267.497 12.704V9.488C267.497 7.376 266.569 6.32 264.361 6.32C263.273 6.32 262.153 6.688 261.385 7.472L262.169 8.288ZM266.249 10.4V10.88C266.217 12.096 265.481 13.136 264.041 13.136C263.097 13.136 262.393 12.784 262.393 11.84C262.393 10.832 263.417 10.4 265.001 10.4H266.249ZM274.343 14H275.591V1.904H274.343V14ZM278.187 14H279.435V6.512H278.187V14ZM277.899 3.584C277.899 4.112 278.283 4.496 278.811 4.496C279.339 4.496 279.723 4.112 279.723 3.584C279.723 3.088 279.323 2.672 278.811 2.672C278.299 2.672 277.899 3.088 277.899 3.584ZM281.918 14H283.166V10.352C283.166 8.64 283.87 7.472 285.486 7.472C286.654 7.472 287.198 8.256 287.198 9.504V14H288.446V9.376C288.446 7.568 287.566 6.32 285.598 6.32C284.366 6.32 283.438 7.008 283.102 7.744H283.07C283.07 7.328 283.038 6.912 283.038 6.512H281.854C281.854 7.008 281.918 7.6 281.918 8.288V14ZM290.809 14H292.057V10.064L295.769 14H297.609L293.625 9.92L297.241 6.512H295.465L292.057 9.808V1.904H290.809V14ZM302.83 10.256C302.83 12.592 304.526 14.192 306.83 14.192C309.134 14.192 310.83 12.592 310.83 10.256C310.83 7.92 309.134 6.32 306.83 6.32C304.526 6.32 302.83 7.92 302.83 10.256ZM304.174 10.256C304.174 8.688 305.214 7.472 306.83 7.472C308.446 7.472 309.486 8.688 309.486 10.256C309.486 11.824 308.446 13.04 306.83 13.04C305.214 13.04 304.174 11.824 304.174 10.256ZM312.762 14H314.01V10.352C314.01 8.64 314.714 7.472 316.33 7.472C317.498 7.472 318.042 8.256 318.042 9.504V14H319.29V9.376C319.29 7.568 318.41 6.32 316.442 6.32C315.21 6.32 314.282 7.008 313.946 7.744H313.914C313.914 7.328 313.882 6.912 313.882 6.512H312.698C312.698 7.008 312.762 7.6 312.762 8.288V14ZM326.106 14H327.354V10.352C327.354 8.64 328.058 7.472 329.674 7.472C330.842 7.472 331.386 8.256 331.386 9.504V14H332.634V9.376C332.634 7.568 331.754 6.32 329.786 6.32C328.618 6.32 327.722 6.96 327.386 7.552H327.354V1.904H326.106V14ZM334.565 10.256C334.565 12.592 336.261 14.192 338.565 14.192C340.869 14.192 342.565 12.592 342.565 10.256C342.565 7.92 340.869 6.32 338.565 6.32C336.261 6.32 334.565 7.92 334.565 10.256ZM335.909 10.256C335.909 8.688 336.949 7.472 338.565 7.472C340.181 7.472 341.221 8.688 341.221 10.256C341.221 11.824 340.181 13.04 338.565 13.04C336.949 13.04 335.909 11.824 335.909 10.256ZM350.865 6.512H349.521L347.297 12.384H347.265L344.929 6.512H343.473L346.529 14H347.905L350.865 6.512ZM357.959 11.904C357.367 12.656 356.647 13.04 355.575 13.04C354.215 13.04 353.223 11.936 353.127 10.64H359.175V10.24C359.175 7.76 357.735 6.32 355.623 6.32C353.415 6.32 351.783 7.936 351.783 10.256C351.783 12.432 353.223 14.192 355.575 14.192C356.967 14.192 358.023 13.776 358.903 12.64L357.959 11.904ZM353.127 9.584C353.287 8.32 354.199 7.472 355.575 7.472C356.951 7.472 357.783 8.32 357.831 9.584H353.127ZM361.106 14H362.354V10.352C362.354 8.64 363.026 7.568 364.546 7.568C364.77 7.568 365.01 7.6 365.218 7.664L365.298 6.4C365.122 6.336 364.946 6.32 364.786 6.32C363.554 6.32 362.626 7.008 362.29 7.744H362.258C362.258 7.328 362.226 6.912 362.226 6.512H361.042C361.042 7.008 361.106 7.6 361.106 8.288V14ZM370.352 12.8C371.088 13.856 372 14.192 373.264 14.192C374.752 14.192 376.256 13.536 376.256 11.84C376.256 10.336 375.136 9.856 373.808 9.6C372.816 9.408 371.92 9.136 371.92 8.512C371.92 7.808 372.704 7.472 373.392 7.472C374.128 7.472 374.656 7.84 374.976 8.368L376.016 7.68C375.504 6.72 374.528 6.32 373.472 6.32C372.08 6.32 370.672 7.072 370.672 8.528C370.672 10.08 371.888 10.384 373.312 10.704C374.112 10.88 374.912 11.088 374.912 11.888C374.912 12.704 374.048 13.04 373.264 13.04C372.384 13.04 371.84 12.64 371.344 12.032L370.352 12.8ZM382.093 6.512H379.885V4.384H378.637V6.512H377.005V7.568H378.637V11.68C378.637 13.232 378.924 14.192 380.701 14.192C381.165 14.192 381.725 14.112 382.157 13.92L382.109 12.784C381.773 12.96 381.373 13.04 381.005 13.04C379.901 13.04 379.885 12.272 379.885 11.312V7.568H382.093V6.512ZM384.31 8.288C384.902 7.744 385.734 7.472 386.534 7.472C387.702 7.472 388.39 8.032 388.39 9.12V9.344H387.91C386.07 9.344 383.19 9.488 383.19 11.968C383.19 13.424 384.454 14.192 385.974 14.192C387.11 14.192 387.942 13.648 388.438 12.88H388.47C388.47 13.2 388.47 13.664 388.55 14H389.75C389.686 13.616 389.638 13.136 389.638 12.704V9.488C389.638 7.376 388.71 6.32 386.502 6.32C385.414 6.32 384.294 6.688 383.526 7.472L384.31 8.288ZM388.39 10.4V10.88C388.358 12.096 387.622 13.136 386.182 13.136C385.238 13.136 384.534 12.784 384.534 11.84C384.534 10.832 385.558 10.4 387.141 10.4H388.39ZM396.014 6.512H393.806V4.384H392.558V6.512H390.926V7.568H392.558V11.68C392.558 13.232 392.846 14.192 394.622 14.192C395.086 14.192 395.646 14.112 396.078 13.92L396.03 12.784C395.694 12.96 395.294 13.04 394.926 13.04C393.822 13.04 393.806 12.272 393.806 11.312V7.568H396.014V6.512ZM403.287 11.904C402.695 12.656 401.975 13.04 400.903 13.04C399.543 13.04 398.551 11.936 398.455 10.64H404.503V10.24C404.503 7.76 403.063 6.32 400.951 6.32C398.743 6.32 397.111 7.936 397.111 10.256C397.111 12.432 398.551 14.192 400.903 14.192C402.295 14.192 403.351 13.776 404.231 12.64L403.287 11.904ZM398.455 9.584C398.615 8.32 399.527 7.472 400.903 7.472C402.279 7.472 403.111 8.32 403.159 9.584H398.455Z" fill="#6C3078"/>
<path d="M212 15.6H405.255V16.4H212V15.6Z" fill="#6C3078"/>
<path d="M520.008 2.672H511.176V3.92H514.92V14H516.264V3.92H520.008V2.672ZM521.372 14H522.62V10.352C522.62 8.64 523.324 7.472 524.94 7.472C526.108 7.472 526.652 8.256 526.652 9.504V14H527.9V9.376C527.9 7.568 527.02 6.32 525.052 6.32C523.884 6.32 522.988 6.96 522.652 7.552H522.62V1.904H521.372V14ZM530.374 14H531.622V6.512H530.374V14ZM530.086 3.584C530.086 4.112 530.47 4.496 530.998 4.496C531.526 4.496 531.91 4.112 531.91 3.584C531.91 3.088 531.51 2.672 530.998 2.672C530.486 2.672 530.086 3.088 530.086 3.584ZM533.274 12.8C534.01 13.856 534.922 14.192 536.186 14.192C537.674 14.192 539.178 13.536 539.178 11.84C539.178 10.336 538.058 9.856 536.73 9.6C535.738 9.408 534.842 9.136 534.842 8.512C534.842 7.808 535.626 7.472 536.314 7.472C537.05 7.472 537.578 7.84 537.898 8.368L538.938 7.68C538.426 6.72 537.45 6.32 536.394 6.32C535.002 6.32 533.594 7.072 533.594 8.528C533.594 10.08 534.81 10.384 536.234 10.704C537.034 10.88 537.834 11.088 537.834 11.888C537.834 12.704 536.97 13.04 536.186 13.04C535.306 13.04 534.762 12.64 534.266 12.032L533.274 12.8ZM545.484 14H546.732V6.512H545.484V14ZM545.196 3.584C545.196 4.112 545.58 4.496 546.108 4.496C546.636 4.496 547.02 4.112 547.02 3.584C547.02 3.088 546.62 2.672 546.108 2.672C545.596 2.672 545.196 3.088 545.196 3.584ZM548.383 12.8C549.119 13.856 550.031 14.192 551.295 14.192C552.783 14.192 554.287 13.536 554.287 11.84C554.287 10.336 553.167 9.856 551.839 9.6C550.847 9.408 549.951 9.136 549.951 8.512C549.951 7.808 550.735 7.472 551.423 7.472C552.159 7.472 552.687 7.84 553.007 8.368L554.047 7.68C553.535 6.72 552.559 6.32 551.503 6.32C550.111 6.32 548.703 7.072 548.703 8.528C548.703 10.08 549.919 10.384 551.343 10.704C552.143 10.88 552.943 11.088 552.943 11.888C552.943 12.704 552.079 13.04 551.295 13.04C550.415 13.04 549.871 12.64 549.375 12.032L548.383 12.8ZM561.169 8.288C561.761 7.744 562.593 7.472 563.393 7.472C564.561 7.472 565.249 8.032 565.249 9.12V9.344H564.769C562.929 9.344 560.049 9.488 560.049 11.968C560.049 13.424 561.313 14.192 562.833 14.192C563.969 14.192 564.801 13.648 565.297 12.88H565.329C565.329 13.2 565.329 13.664 565.409 14H566.609C566.545 13.616 566.497 13.136 566.497 12.704V9.488C566.497 7.376 565.569 6.32 563.361 6.32C562.273 6.32 561.153 6.688 560.385 7.472L561.169 8.288ZM565.249 10.4V10.88C565.217 12.096 564.481 13.136 563.041 13.136C562.097 13.136 561.393 12.784 561.393 11.84C561.393 10.832 562.417 10.4 564.001 10.4H565.249ZM573.167 14H574.415V12.672H574.447C574.911 13.52 575.983 14.192 577.327 14.192C579.423 14.192 581.071 12.496 581.071 10.256C581.071 7.984 579.487 6.32 577.135 6.32C576.047 6.32 575.135 6.8 574.447 7.6H574.415V1.904H573.167V14ZM574.415 10.256C574.415 8.688 575.455 7.472 577.071 7.472C578.687 7.472 579.727 8.688 579.727 10.256C579.727 11.824 578.687 13.04 577.071 13.04C575.455 13.04 574.415 11.824 574.415 10.256ZM583.124 14H584.372V1.904H583.124V14ZM593.384 6.512H592.136V10.16C592.136 11.872 591.432 13.04 589.816 13.04C588.648 13.04 588.104 12.256 588.104 11.008V6.512H586.856V11.136C586.856 12.944 587.736 14.192 589.704 14.192C590.936 14.192 591.864 13.504 592.2 12.768H592.232C592.232 13.184 592.264 13.6 592.264 14H593.448C593.448 13.504 593.384 12.912 593.384 12.224V6.512ZM601.491 11.904C600.899 12.656 600.179 13.04 599.107 13.04C597.747 13.04 596.755 11.936 596.659 10.64H602.707V10.24C602.707 7.76 601.267 6.32 599.155 6.32C596.947 6.32 595.315 7.936 595.315 10.256C595.315 12.432 596.755 14.192 599.107 14.192C600.499 14.192 601.555 13.776 602.435 12.64L601.491 11.904ZM596.659 9.584C596.819 8.32 597.731 7.472 599.107 7.472C600.483 7.472 601.315 8.32 601.363 9.584H596.659ZM609.202 14H610.45V1.904H609.202V14ZM613.046 14H614.294V6.512H613.046V14ZM612.758 3.584C612.758 4.112 613.142 4.496 613.67 4.496C614.198 4.496 614.582 4.112 614.582 3.584C614.582 3.088 614.182 2.672 613.67 2.672C613.158 2.672 612.758 3.088 612.758 3.584ZM616.778 14H618.026V10.352C618.026 8.64 618.73 7.472 620.346 7.472C621.514 7.472 622.058 8.256 622.058 9.504V14H623.306V9.376C623.306 7.568 622.426 6.32 620.458 6.32C619.226 6.32 618.298 7.008 617.962 7.744H617.93C617.93 7.328 617.898 6.912 617.898 6.512H616.714C616.714 7.008 616.778 7.6 616.778 8.288V14ZM625.668 14H626.916V10.064L630.628 14H632.468L628.484 9.92L632.1 6.512H630.324L626.916 9.808V1.904H625.668V14Z" fill="#3379BF"/>
</svg>
