<svg width="980" height="703" viewBox="0 0 980 703" fill="none" xmlns="http://www.w3.org/2000/svg">
<rect width="980" height="703" fill="white"/>
<g filter="url(#filter0_dd_126_26714)">
<rect x="32" y="29" width="448" height="270" rx="12" fill="white" shape-rendering="crispEdges"/>
<rect x="56.5" y="229.5" width="83" height="35" rx="3.5" fill="white"/>
<path d="M85.282 242.404C84.302 241.27 83.154 240.836 81.81 240.836C78.758 240.836 76.574 242.908 76.574 246.086C76.574 249.18 78.758 251.252 81.81 251.252C83.266 251.252 84.61 250.72 85.506 249.488L84.05 248.452C83.392 249.292 82.622 249.656 81.824 249.656C79.78 249.656 78.422 248.088 78.422 245.974C78.422 244 79.78 242.432 81.824 242.432C82.51 242.432 83.182 242.642 83.91 243.412L85.282 242.404ZM90.736 251H92.248V247.136C92.248 246.184 92.248 244.112 89.378 244.112C88.314 244.112 87.264 244.434 86.522 245.19L87.404 246.072C87.852 245.652 88.496 245.372 89.196 245.372C90.092 245.372 90.736 245.806 90.736 246.632V246.814H90.316C88.636 246.814 86.088 246.968 86.088 249.152C86.088 250.482 87.292 251.168 88.538 251.168C89.434 251.168 90.218 250.832 90.694 250.076H90.736V251ZM90.638 248.368C90.638 249.306 90.092 249.908 88.944 249.908C88.398 249.908 87.768 249.642 87.768 249.026C87.768 248.06 89.364 247.99 90.288 247.99H90.638V248.368ZM94.0555 251H95.7355V247.332C95.7355 246.436 96.1695 245.624 97.2755 245.624C98.4515 245.624 98.5075 246.856 98.5075 247.598V251H100.188V246.758C100.188 245.386 99.5435 244.112 97.7375 244.112C96.6175 244.112 95.9875 244.686 95.6795 245.358H95.6515V244.28H94.0555V251ZM107.849 245.134C107.205 244.42 106.267 244.112 105.413 244.112C103.383 244.112 101.759 245.526 101.759 247.64C101.759 249.754 103.383 251.168 105.413 251.168C106.001 251.168 107.149 250.916 107.835 250.23L106.715 249.026C106.407 249.432 105.931 249.656 105.413 249.656C104.181 249.656 103.439 248.69 103.439 247.64C103.439 246.59 104.181 245.624 105.413 245.624C105.861 245.624 106.295 245.89 106.687 246.296L107.849 245.134ZM115.316 248.228V247.766C115.316 245.428 114.042 244.112 112.166 244.112C110.136 244.112 108.512 245.526 108.512 247.64C108.512 249.754 110.136 251.168 112.166 251.168C113.23 251.168 114.224 250.79 115.008 249.824L113.804 248.914C113.384 249.432 112.838 249.824 111.998 249.824C111.06 249.824 110.304 249.222 110.192 248.228H115.316ZM110.192 246.968C110.318 246.002 110.934 245.372 111.928 245.372C112.978 245.372 113.622 245.988 113.636 246.968H110.192ZM116.916 251H118.596V240.416H116.916V251Z" fill="#6C3078"/>
<rect x="56.5" y="229.5" width="83" height="35" rx="3.5" stroke="white"/>
<rect x="326.5" y="229.5" width="128" height="35" rx="3.5" fill="#6C3078"/>
<path d="M353.252 241.858C352.482 241.13 351.446 240.836 350.41 240.836C348.576 240.836 346.756 241.788 346.756 243.832C346.756 247.374 351.46 246.128 351.46 248.298C351.46 249.208 350.536 249.656 349.724 249.656C348.94 249.656 348.198 249.278 347.764 248.62L346.434 249.908C347.246 250.874 348.45 251.252 349.682 251.252C351.628 251.252 353.308 250.216 353.308 248.088C353.308 244.56 348.604 245.694 348.604 243.706C348.604 242.796 349.416 242.432 350.228 242.432C350.914 242.432 351.586 242.684 351.964 243.216L353.252 241.858ZM359.191 251H360.703V247.136C360.703 246.184 360.703 244.112 357.833 244.112C356.769 244.112 355.719 244.434 354.977 245.19L355.859 246.072C356.307 245.652 356.951 245.372 357.651 245.372C358.547 245.372 359.191 245.806 359.191 246.632V246.814H358.771C357.091 246.814 354.543 246.968 354.543 249.152C354.543 250.482 355.747 251.168 356.993 251.168C357.889 251.168 358.673 250.832 359.149 250.076H359.191V251ZM359.093 248.368C359.093 249.306 358.547 249.908 357.399 249.908C356.853 249.908 356.223 249.642 356.223 249.026C356.223 248.06 357.819 247.99 358.743 247.99H359.093V248.368ZM364.345 251H366.137L368.783 244.28H367.061L365.255 248.984H365.227L363.435 244.28H361.601L364.345 251ZM376.238 248.228V247.766C376.238 245.428 374.964 244.112 373.088 244.112C371.058 244.112 369.434 245.526 369.434 247.64C369.434 249.754 371.058 251.168 373.088 251.168C374.152 251.168 375.146 250.79 375.93 249.824L374.726 248.914C374.306 249.432 373.76 249.824 372.92 249.824C371.982 249.824 371.226 249.222 371.114 248.228H376.238ZM371.114 246.968C371.24 246.002 371.856 245.372 372.85 245.372C373.9 245.372 374.544 245.988 374.558 246.968H371.114ZM387.706 245.134C387.062 244.42 386.124 244.112 385.27 244.112C383.24 244.112 381.616 245.526 381.616 247.64C381.616 249.754 383.24 251.168 385.27 251.168C385.858 251.168 387.006 250.916 387.692 250.23L386.572 249.026C386.264 249.432 385.788 249.656 385.27 249.656C384.038 249.656 383.296 248.69 383.296 247.64C383.296 246.59 384.038 245.624 385.27 245.624C385.718 245.624 386.152 245.89 386.544 246.296L387.706 245.134ZM390.386 240.416H388.706V251H390.386V247.332C390.386 246.436 390.82 245.624 391.926 245.624C393.102 245.624 393.158 246.856 393.158 247.598V251H394.838V246.758C394.838 245.386 394.194 244.112 392.388 244.112C391.352 244.112 390.68 244.658 390.414 245.218H390.386V240.416ZM400.945 251H402.457V247.136C402.457 246.184 402.457 244.112 399.587 244.112C398.523 244.112 397.473 244.434 396.731 245.19L397.613 246.072C398.061 245.652 398.705 245.372 399.405 245.372C400.301 245.372 400.945 245.806 400.945 246.632V246.814H400.525C398.845 246.814 396.297 246.968 396.297 249.152C396.297 250.482 397.501 251.168 398.747 251.168C399.643 251.168 400.427 250.832 400.903 250.076H400.945V251ZM400.847 248.368C400.847 249.306 400.301 249.908 399.153 249.908C398.607 249.908 397.977 249.642 397.977 249.026C397.977 248.06 399.573 247.99 400.497 247.99H400.847V248.368ZM404.265 251H405.945V247.332C405.945 246.436 406.379 245.624 407.485 245.624C408.661 245.624 408.717 246.856 408.717 247.598V251H410.397V246.758C410.397 245.386 409.753 244.112 407.947 244.112C406.827 244.112 406.197 244.686 405.889 245.358H405.861V244.28H404.265V251ZM417.624 244.28V245.288H417.596C417.106 244.476 416.224 244.112 415.286 244.112C413.214 244.112 411.968 245.652 411.968 247.64C411.968 249.544 413.298 251.084 415.314 251.084C416.154 251.084 417.022 250.762 417.512 250.104H417.54V250.594C417.54 251.924 417.036 252.848 415.412 252.848C414.474 252.848 413.774 252.498 413.102 251.882L412.094 253.254C413.046 254.094 414.18 254.36 415.426 254.36C418.044 254.36 419.22 252.82 419.22 250.398V244.28H417.624ZM415.636 245.624C416.854 245.624 417.624 246.436 417.624 247.598C417.624 248.718 416.868 249.572 415.622 249.572C414.488 249.572 413.648 248.69 413.648 247.626C413.648 246.436 414.46 245.624 415.636 245.624ZM427.59 248.228V247.766C427.59 245.428 426.316 244.112 424.44 244.112C422.41 244.112 420.786 245.526 420.786 247.64C420.786 249.754 422.41 251.168 424.44 251.168C425.504 251.168 426.498 250.79 427.282 249.824L426.078 248.914C425.658 249.432 425.112 249.824 424.272 249.824C423.334 249.824 422.578 249.222 422.466 248.228H427.59ZM422.466 246.968C422.592 246.002 423.208 245.372 424.202 245.372C425.252 245.372 425.896 245.988 425.91 246.968H422.466ZM433.865 245.134C433.319 244.392 432.367 244.112 431.471 244.112C430.113 244.112 428.769 244.784 428.769 246.282C428.769 248.844 432.395 247.752 432.395 249.138C432.395 249.67 431.765 249.908 431.275 249.908C430.561 249.908 430.113 249.558 429.679 249.082L428.559 250.132C429.245 250.902 430.141 251.168 431.177 251.168C432.549 251.168 434.075 250.608 434.075 249.012C434.075 246.394 430.449 247.374 430.449 246.17C430.449 245.666 430.981 245.456 431.429 245.456C432.003 245.456 432.423 245.694 432.745 246.142L433.865 245.134Z" fill="white"/>
<rect x="326.5" y="229.5" width="128" height="35" rx="3.5" stroke="#6C3078"/>
<rect x="56" y="114" width="399" height="16" rx="2" fill="#E7EDF9"/>
<rect x="56" y="138" width="116" height="16" rx="2" fill="#E7EDF9"/>
<rect x="56" y="162" width="63" height="16" rx="2" fill="#E7EDF9"/>
<rect x="56" y="186" width="399" height="16" rx="2" fill="#E7EDF9"/>
<rect x="56" y="63" width="161" height="24" rx="2" fill="#E7EDF9"/>
<path d="M444.06 75L448.48 70.58C448.554 70.5113 448.613 70.4285 448.654 70.3365C448.695 70.2445 448.717 70.1452 448.719 70.0445C448.72 69.9438 448.702 69.8437 448.664 69.7504C448.626 69.657 448.57 69.5721 448.499 69.5009C448.428 69.4297 448.343 69.3736 448.25 69.3358C448.156 69.2981 448.056 69.2796 447.955 69.2814C447.855 69.2831 447.755 69.3052 447.663 69.3462C447.571 69.3872 447.489 69.4463 447.42 69.52L443 73.94L438.58 69.52C438.438 69.3875 438.25 69.3154 438.055 69.3188C437.861 69.3222 437.676 69.4009 437.538 69.5383C437.401 69.6757 437.322 69.8611 437.319 70.0554C437.315 70.2497 437.388 70.4378 437.52 70.58L441.94 75L437.52 79.42C437.38 79.5606 437.301 79.7512 437.301 79.95C437.301 80.1487 437.38 80.3393 437.52 80.48C437.661 80.6204 437.851 80.6993 438.05 80.6993C438.249 80.6993 438.439 80.6204 438.58 80.48L443 76.06L447.42 80.48C447.561 80.6204 447.751 80.6993 447.95 80.6993C448.149 80.6993 448.339 80.6204 448.48 80.48C448.62 80.3393 448.699 80.1487 448.699 79.95C448.699 79.7512 448.62 79.5606 448.48 79.42L444.06 75Z" fill="#6B778C"/>
</g>
<g filter="url(#filter1_dd_126_26714)">
<g clip-path="url(#clip0_126_26714)">
<rect x="500" y="29" width="448" height="270" rx="12" fill="white"/>
<g clip-path="url(#clip1_126_26714)" filter="url(#filter2_dd_126_26714)">
<rect width="1920" height="1178" transform="translate(-1012 67)" fill="white"/>
<g clip-path="url(#clip2_126_26714)" filter="url(#filter3_dd_126_26714)">
<rect width="1920" height="1178" transform="translate(-1012 67)" fill="white"/>
<line x1="-1012" y1="218.5" x2="914" y2="218.5" stroke="#D2D6DD"/>
<mask id="path-14-inside-1_126_26714" fill="white">
<path d="M-1012 131H908V219H-1012V131Z"/>
</mask>
<path d="M-1012 131H908V219H-1012V131Z" fill="white"/>
<rect x="706.5" y="152.5" width="137" height="45" rx="7.5" fill="#6C3078"/>
<path d="M731.264 179H733.28V174.312H734.72C737.12 174.312 739.248 173.8 739.248 170.952C739.248 168.44 737.264 167.672 735.072 167.672H731.264V179ZM733.28 172.584V169.4H734.72C735.808 169.4 737.136 169.592 737.136 170.984C737.136 172.52 735.648 172.584 734.496 172.584H733.28ZM740.869 179H742.789V174.888C742.789 174.472 743.045 172.952 744.853 172.952C745.157 172.952 745.461 173.016 745.781 173.096V171.24C745.557 171.176 745.333 171.128 745.093 171.128C744.085 171.128 743.237 171.656 742.821 172.536H742.789V171.32H740.869V179ZM747.12 179H749.04V171.32H747.12V179ZM746.848 168.712C746.848 169.32 747.36 169.864 748.064 169.864C748.768 169.864 749.312 169.368 749.312 168.712C749.312 168.056 748.768 167.56 748.064 167.56C747.36 167.56 746.848 168.104 746.848 168.712ZM751.164 179H753.084V174.808C753.084 173.784 753.58 172.856 754.844 172.856C755.772 172.856 756.156 173.48 756.156 174.424V179H758.076V174.84C758.076 173.848 758.524 172.856 759.724 172.856C760.86 172.856 761.148 173.688 761.148 174.648V179H763.068V174.424C763.068 172.584 762.348 171.128 760.3 171.128C759.148 171.128 758.332 171.576 757.772 172.552C757.372 171.592 756.556 171.128 755.372 171.128C754.092 171.128 753.356 171.8 753.02 172.52H752.988V171.32H751.164V179ZM769.966 179H771.694V174.584C771.694 173.496 771.694 171.128 768.414 171.128C767.198 171.128 765.998 171.496 765.15 172.36L766.158 173.368C766.67 172.888 767.406 172.568 768.206 172.568C769.23 172.568 769.966 173.064 769.966 174.008V174.216H769.486C767.566 174.216 764.654 174.392 764.654 176.888C764.654 178.408 766.03 179.192 767.454 179.192C768.478 179.192 769.374 178.808 769.918 177.944H769.966V179ZM769.854 175.992C769.854 177.064 769.23 177.752 767.918 177.752C767.294 177.752 766.574 177.448 766.574 176.744C766.574 175.64 768.398 175.56 769.454 175.56H769.854V175.992ZM773.76 179H775.68V174.888C775.68 174.472 775.936 172.952 777.744 172.952C778.048 172.952 778.352 173.016 778.672 173.096V171.24C778.448 171.176 778.224 171.128 777.984 171.128C776.976 171.128 776.128 171.656 775.712 172.536H775.68V171.32H773.76V179ZM782.219 179.064L781.851 179.976C781.531 180.776 781.275 181.112 780.331 181.112C779.995 181.112 779.659 181.032 779.355 180.92L779.115 182.648C779.595 182.776 780.091 182.84 780.587 182.84C782.283 182.84 782.955 182.088 783.515 180.648L787.147 171.32H785.147L783.227 176.648H783.195L781.051 171.32H778.939L782.219 179.064Z" fill="white"/>
<path d="M808 178.25C807.901 178.25 807.804 178.231 807.713 178.193C807.622 178.155 807.539 178.1 807.47 178.03L802.47 173.03C802.37 172.884 802.325 172.707 802.343 172.532C802.361 172.356 802.44 172.192 802.566 172.069C802.693 171.945 802.859 171.871 803.036 171.858C803.212 171.846 803.387 171.896 803.53 172L808 176.44L812.47 172C812.611 171.908 812.778 171.867 812.946 171.882C813.113 171.897 813.27 171.968 813.393 172.083C813.515 172.199 813.595 172.352 813.62 172.518C813.645 172.684 813.613 172.854 813.53 173L808.53 178C808.463 178.075 808.382 178.136 808.291 178.179C808.2 178.222 808.101 178.246 808 178.25Z" fill="white"/>
<rect x="706.5" y="152.5" width="137" height="45" rx="7.5" stroke="#6C3078"/>
<path d="M908 218H-1012V220H908V218Z" fill="#D2D6DD" mask="url(#path-14-inside-1_126_26714)"/>
<g opacity="0.2">
<rect width="1921.24" height="64" transform="translate(-1012 67)" fill="#3C1053"/>
<rect x="533.237" y="86.5" width="158" height="25" rx="8" fill="#FE7355"/>
<path d="M542.806 102.5H543.982V98.048H545.97C547.37 98.048 549.218 97.474 549.218 95.304C549.218 93.232 547.566 92.588 545.746 92.588H542.806V102.5ZM543.982 93.68H545.97C547.146 93.68 547.958 94.212 547.958 95.318C547.958 96.424 547.146 96.956 545.97 96.956H543.982V93.68ZM551.511 97.502C552.029 97.026 552.757 96.788 553.457 96.788C554.479 96.788 555.081 97.278 555.081 98.23V98.426H554.661C553.051 98.426 550.531 98.552 550.531 100.722C550.531 101.996 551.637 102.668 552.967 102.668C553.961 102.668 554.689 102.192 555.123 101.52H555.151C555.151 101.8 555.151 102.206 555.221 102.5H556.271C556.215 102.164 556.173 101.744 556.173 101.366V98.552C556.173 96.704 555.361 95.78 553.429 95.78C552.477 95.78 551.497 96.102 550.825 96.788L551.511 97.502ZM555.081 99.35V99.77C555.053 100.834 554.409 101.744 553.149 101.744C552.323 101.744 551.707 101.436 551.707 100.61C551.707 99.728 552.603 99.35 553.989 99.35H555.081ZM558.169 102.5H559.261V99.308C559.261 97.81 559.849 96.872 561.179 96.872C561.375 96.872 561.585 96.9 561.767 96.956L561.837 95.85C561.683 95.794 561.529 95.78 561.389 95.78C560.311 95.78 559.499 96.382 559.205 97.026H559.177C559.177 96.662 559.149 96.298 559.149 95.948H558.113C558.113 96.382 558.169 96.9 558.169 97.502V102.5ZM566.674 95.948H564.742V94.086H563.65V95.948H562.222V96.872H563.65V100.47C563.65 101.828 563.902 102.668 565.456 102.668C565.862 102.668 566.352 102.598 566.73 102.43L566.688 101.436C566.394 101.59 566.044 101.66 565.722 101.66C564.756 101.66 564.742 100.988 564.742 100.148V96.872H566.674V95.948ZM568.11 102.5H569.202V95.948H568.11V102.5ZM567.858 93.386C567.858 93.848 568.194 94.184 568.656 94.184C569.118 94.184 569.454 93.848 569.454 93.386C569.454 92.952 569.104 92.588 568.656 92.588C568.208 92.588 567.858 92.952 567.858 93.386ZM576.906 96.816C576.248 96.102 575.352 95.78 574.386 95.78C572.37 95.78 570.998 97.236 570.998 99.224C570.998 101.24 572.356 102.668 574.386 102.668C575.338 102.668 576.234 102.346 576.864 101.618L576.052 100.848C575.646 101.408 575.1 101.66 574.386 101.66C573.056 101.66 572.174 100.568 572.174 99.224C572.174 97.88 572.916 96.788 574.386 96.788C575.044 96.788 575.576 97.026 576.038 97.586L576.906 96.816ZM578.228 102.5H579.32V95.948H578.228V102.5ZM577.976 93.386C577.976 93.848 578.312 94.184 578.774 94.184C579.236 94.184 579.572 93.848 579.572 93.386C579.572 92.952 579.222 92.588 578.774 92.588C578.326 92.588 577.976 92.952 577.976 93.386ZM581.437 105.692H582.529V101.338H582.557C582.963 102.08 583.901 102.668 585.077 102.668C586.911 102.668 588.353 101.184 588.353 99.224C588.353 97.236 586.967 95.78 584.909 95.78C583.957 95.78 583.159 96.2 582.557 96.9H582.529V95.948H581.437V105.692ZM582.529 99.224C582.529 97.852 583.439 96.788 584.853 96.788C586.267 96.788 587.177 97.852 587.177 99.224C587.177 100.596 586.267 101.66 584.853 101.66C583.439 101.66 582.529 100.596 582.529 99.224ZM590.653 97.502C591.171 97.026 591.899 96.788 592.599 96.788C593.621 96.788 594.223 97.278 594.223 98.23V98.426H593.803C592.193 98.426 589.673 98.552 589.673 100.722C589.673 101.996 590.779 102.668 592.109 102.668C593.103 102.668 593.831 102.192 594.265 101.52H594.293C594.293 101.8 594.293 102.206 594.363 102.5H595.413C595.357 102.164 595.315 101.744 595.315 101.366V98.552C595.315 96.704 594.503 95.78 592.571 95.78C591.619 95.78 590.639 96.102 589.967 96.788L590.653 97.502ZM594.223 99.35V99.77C594.195 100.834 593.551 101.744 592.291 101.744C591.465 101.744 590.849 101.436 590.849 100.61C590.849 99.728 591.745 99.35 593.131 99.35H594.223ZM597.311 102.5H598.403V99.308C598.403 97.81 599.019 96.788 600.433 96.788C601.455 96.788 601.931 97.474 601.931 98.566V102.5H603.023V98.454C603.023 96.872 602.253 95.78 600.531 95.78C599.453 95.78 598.641 96.382 598.347 97.026H598.319C598.319 96.662 598.291 96.298 598.291 95.948H597.255C597.255 96.382 597.311 96.9 597.311 97.502V102.5ZM608.674 95.948H606.742V94.086H605.65V95.948H604.222V96.872H605.65V100.47C605.65 101.828 605.902 102.668 607.456 102.668C607.862 102.668 608.352 102.598 608.73 102.43L608.688 101.436C608.394 101.59 608.044 101.66 607.722 101.66C606.756 101.66 606.742 100.988 606.742 100.148V96.872H608.674V95.948ZM610.922 95.78C610.46 95.78 610.082 96.158 610.082 96.62C610.082 97.082 610.488 97.46 610.922 97.46C611.356 97.46 611.762 97.082 611.762 96.62C611.762 96.158 611.384 95.78 610.922 95.78ZM610.922 100.904C610.46 100.904 610.082 101.282 610.082 101.744C610.082 102.206 610.488 102.584 610.922 102.584C611.356 102.584 611.762 102.206 611.762 101.744C611.762 101.282 611.384 100.904 610.922 100.904ZM618.001 102.5H619.177V94.268H619.205L624.945 102.5H626.429V92.588H625.253V100.82H625.225L619.485 92.588H618.001V102.5ZM628.898 102.5H635.38V101.408H630.074V97.88H634.792V96.788H630.074V93.68H635.128V92.588H628.898V102.5ZM637.197 102.5H638.373V94.184H638.401L641.957 102.5H642.671L646.227 94.184H646.255V102.5H647.431V92.588H645.723L642.335 100.358H642.307L638.947 92.588H637.197V102.5ZM649.898 102.5H651.074V94.184H651.102L654.658 102.5H655.372L658.928 94.184H658.956V102.5H660.132V92.588H658.424L655.036 100.358H655.008L651.648 92.588H649.898V102.5ZM670.565 93.89C669.725 92.798 668.409 92.336 667.065 92.336C664.125 92.336 662.025 94.632 662.025 97.544C662.025 100.554 664.223 102.752 667.065 102.752C668.647 102.752 669.935 102.206 670.817 101.016L669.935 100.274C669.235 101.17 668.269 101.66 667.065 101.66C664.839 101.66 663.285 99.84 663.285 97.544C663.285 95.374 664.853 93.428 667.065 93.428C668.017 93.428 668.955 93.834 669.543 94.632L670.565 93.89ZM677.062 102.752C680.072 102.752 682.242 100.54 682.242 97.544C682.242 94.548 680.072 92.336 677.062 92.336C674.052 92.336 671.882 94.548 671.882 97.544C671.882 100.54 674.052 102.752 677.062 102.752ZM677.062 101.66C674.738 101.66 673.142 99.826 673.142 97.544C673.142 95.262 674.738 93.428 677.062 93.428C679.386 93.428 680.982 95.262 680.982 97.544C680.982 99.826 679.386 101.66 677.062 101.66Z" fill="white"/>
<path d="M717.141 91.672H715.797V98.488C715.797 100.312 715.125 102.04 712.869 102.04C710.613 102.04 709.941 100.312 709.941 98.488V91.672H708.597V98.68C708.597 101.144 709.749 103.288 712.869 103.288C715.989 103.288 717.141 101.144 717.141 98.68V91.672ZM718.855 101.8C719.591 102.856 720.503 103.192 721.767 103.192C723.255 103.192 724.759 102.536 724.759 100.84C724.759 99.336 723.639 98.856 722.311 98.6C721.319 98.408 720.423 98.136 720.423 97.512C720.423 96.808 721.207 96.472 721.895 96.472C722.631 96.472 723.159 96.84 723.479 97.368L724.519 96.68C724.007 95.72 723.031 95.32 721.975 95.32C720.583 95.32 719.175 96.072 719.175 97.528C719.175 99.08 720.391 99.384 721.815 99.704C722.615 99.88 723.415 100.088 723.415 100.888C723.415 101.704 722.551 102.04 721.767 102.04C720.887 102.04 720.343 101.64 719.847 101.032L718.855 101.8ZM732.243 100.904C731.651 101.656 730.931 102.04 729.859 102.04C728.499 102.04 727.507 100.936 727.411 99.64H733.459V99.24C733.459 96.76 732.019 95.32 729.907 95.32C727.699 95.32 726.067 96.936 726.067 99.256C726.067 101.432 727.507 103.192 729.859 103.192C731.251 103.192 732.307 102.776 733.187 101.64L732.243 100.904ZM727.411 98.584C727.571 97.32 728.483 96.472 729.859 96.472C731.235 96.472 732.067 97.32 732.115 98.584H727.411ZM735.39 103H736.638V99.352C736.638 97.64 737.31 96.568 738.83 96.568C739.054 96.568 739.294 96.6 739.502 96.664L739.582 95.4C739.406 95.336 739.23 95.32 739.07 95.32C737.838 95.32 736.91 96.008 736.574 96.744H736.542C736.542 96.328 736.51 95.912 736.51 95.512H735.326C735.326 96.008 735.39 96.6 735.39 97.288V103ZM741.015 103H742.263V99.352C742.263 97.64 742.967 96.472 744.583 96.472C745.751 96.472 746.295 97.256 746.295 98.504V103H747.543V98.376C747.543 96.568 746.663 95.32 744.695 95.32C743.463 95.32 742.535 96.008 742.199 96.744H742.167C742.167 96.328 742.135 95.912 742.135 95.512H740.951C740.951 96.008 741.015 96.6 741.015 97.288V103ZM750.593 97.288C751.185 96.744 752.017 96.472 752.817 96.472C753.985 96.472 754.673 97.032 754.673 98.12V98.344H754.193C752.353 98.344 749.473 98.488 749.473 100.968C749.473 102.424 750.737 103.192 752.257 103.192C753.393 103.192 754.225 102.648 754.721 101.88H754.753C754.753 102.2 754.753 102.664 754.833 103H756.033C755.969 102.616 755.921 102.136 755.921 101.704V98.488C755.921 96.376 754.993 95.32 752.785 95.32C751.697 95.32 750.577 95.688 749.809 96.472L750.593 97.288ZM754.673 99.4V99.88C754.641 101.096 753.905 102.136 752.465 102.136C751.521 102.136 750.817 101.784 750.817 100.84C750.817 99.832 751.841 99.4 753.425 99.4H754.673ZM758.202 103H759.45V99.352C759.45 97.64 760.154 96.472 761.77 96.472C762.794 96.472 763.21 97.112 763.21 98.76V103H764.458V98.68C764.458 97.336 765.338 96.472 766.394 96.472C767.85 96.472 768.218 97.48 768.218 98.52V103H769.466V98.456C769.466 96.52 768.762 95.32 766.618 95.32C765.482 95.32 764.794 95.864 764.25 96.744C764.01 96.232 763.498 95.32 761.882 95.32C760.65 95.32 759.722 96.008 759.386 96.744H759.354C759.354 96.328 759.322 95.912 759.322 95.512H758.138C758.138 96.008 758.202 96.6 758.202 97.288V103ZM777.571 100.904C776.979 101.656 776.259 102.04 775.187 102.04C773.827 102.04 772.835 100.936 772.739 99.64H778.787V99.24C778.787 96.76 777.347 95.32 775.235 95.32C773.027 95.32 771.395 96.936 771.395 99.256C771.395 101.432 772.835 103.192 775.187 103.192C776.579 103.192 777.635 102.776 778.515 101.64L777.571 100.904ZM772.739 98.584C772.899 97.32 773.811 96.472 775.187 96.472C776.563 96.472 777.395 97.32 777.443 98.584H772.739Z" fill="white"/>
<path d="M797.237 101.166C797.171 101.167 797.106 101.154 797.046 101.129C796.985 101.104 796.93 101.067 796.884 101.02L793.55 97.6864C793.484 97.5892 793.454 97.4716 793.466 97.3543C793.477 97.2371 793.53 97.1278 793.615 97.0457C793.699 96.9636 793.81 96.914 793.927 96.9056C794.045 96.8972 794.162 96.9305 794.257 96.9998L797.237 99.9598L800.217 96.9998C800.311 96.9389 800.423 96.9112 800.534 96.9214C800.646 96.9315 800.751 96.9788 800.832 97.0556C800.914 97.1325 800.967 97.2345 800.984 97.3452C801 97.456 800.979 97.5691 800.924 97.6664L797.59 101C797.546 101.05 797.492 101.091 797.431 101.12C797.37 101.148 797.304 101.164 797.237 101.166Z" fill="white"/>
<path d="M841.767 103.25C841.677 103.25 839.657 102.89 839.657 97C839.657 92.84 837.237 90.25 833.237 90.25C829.237 90.25 826.817 92.84 826.817 97C826.817 103 824.727 103.25 824.737 103.25C824.538 103.25 824.347 103.329 824.207 103.47C824.066 103.61 823.987 103.801 823.987 104C823.987 104.199 824.066 104.39 824.207 104.53C824.347 104.671 824.538 104.75 824.737 104.75H829.567C829.734 105.601 830.191 106.367 830.861 106.918C831.53 107.469 832.37 107.77 833.237 107.77C834.104 107.77 834.944 107.469 835.613 106.918C836.283 106.367 836.74 105.601 836.907 104.75H841.747C841.946 104.75 842.137 104.671 842.277 104.53C842.418 104.39 842.497 104.199 842.497 104C842.497 103.801 842.418 103.61 842.277 103.47C842.137 103.329 841.946 103.25 841.747 103.25H841.767ZM833.237 106.25C832.773 106.249 832.321 106.104 831.943 105.836C831.565 105.567 831.28 105.188 831.127 104.75H835.347C835.194 105.188 834.909 105.567 834.531 105.836C834.153 106.104 833.701 106.249 833.237 106.25ZM826.997 103.25C827.717 102.16 828.317 100.25 828.317 97C828.317 93.75 830.117 91.75 833.237 91.75C836.357 91.75 838.157 93.66 838.157 97C838.157 100.34 838.757 102.16 839.477 103.25H826.997Z" fill="white"/>
<path d="M873.237 90C871.457 90 869.717 90.5278 868.237 91.5168C866.757 92.5057 865.603 93.9113 864.922 95.5558C864.241 97.2004 864.063 99.01 864.41 100.756C864.757 102.502 865.614 104.105 866.873 105.364C868.132 106.623 869.735 107.48 871.481 107.827C873.227 108.174 875.037 107.996 876.681 107.315C878.326 106.634 879.731 105.48 880.72 104C881.709 102.52 882.237 100.78 882.237 99C882.237 96.6131 881.289 94.3239 879.601 92.636C877.913 90.9482 875.624 90 873.237 90ZM873.237 106.5C871.754 106.5 870.304 106.06 869.07 105.236C867.837 104.412 866.876 103.241 866.308 101.87C865.74 100.5 865.592 98.9917 865.881 97.5368C866.171 96.082 866.885 94.7456 867.934 93.6967C868.983 92.6478 870.319 91.9335 871.774 91.6441C873.229 91.3547 874.737 91.5032 876.107 92.0709C877.478 92.6386 878.649 93.5999 879.473 94.8332C880.297 96.0666 880.737 97.5166 880.737 99C880.737 100.989 879.947 102.897 878.54 104.303C877.134 105.71 875.226 106.5 873.237 106.5Z" fill="white"/>
<path d="M870.937 94.7002C870.635 95.0024 870.396 95.361 870.233 95.7557C870.07 96.1503 869.987 96.5732 869.987 97.0002C869.987 97.1991 870.066 97.3899 870.207 97.5305C870.347 97.6712 870.538 97.7502 870.737 97.7502C870.936 97.7502 871.127 97.6712 871.267 97.5305C871.408 97.3899 871.487 97.1991 871.487 97.0002C871.486 96.7701 871.53 96.542 871.618 96.3291C871.705 96.1163 871.834 95.9229 871.997 95.7602C872.332 95.4423 872.776 95.265 873.237 95.265C873.699 95.265 874.143 95.4423 874.477 95.7602C874.726 96.0044 874.897 96.3176 874.967 96.6594C875.037 97.0013 875.003 97.3563 874.87 97.6788C874.736 98.0013 874.51 98.2765 874.219 98.4692C873.928 98.6619 873.586 98.7633 873.237 98.7602C873.039 98.7628 872.85 98.8427 872.71 98.9828C872.57 99.1228 872.49 99.3121 872.487 99.5102V100.51C872.487 100.709 872.566 100.9 872.707 101.041C872.847 101.181 873.038 101.26 873.237 101.26C873.436 101.26 873.627 101.181 873.767 101.041C873.908 100.9 873.987 100.709 873.987 100.51V100.17C874.575 100.036 875.112 99.7376 875.537 99.3102C876.145 98.6993 876.487 97.8723 876.487 97.0102C876.487 96.1481 876.145 95.3212 875.537 94.7102C874.918 94.1194 874.095 93.789 873.239 93.7871C872.383 93.7853 871.559 94.1121 870.937 94.7002Z" fill="white"/>
<path d="M873.237 104.5C873.927 104.5 874.487 103.94 874.487 103.25C874.487 102.56 873.927 102 873.237 102C872.547 102 871.987 102.56 871.987 103.25C871.987 103.94 872.547 104.5 873.237 104.5Z" fill="white"/>
</g>
</g>
</g>
</g>
</g>
<g filter="url(#filter4_dd_126_26714)">
<rect x="33" y="365" width="447" height="279" rx="12" fill="white"/>
<rect x="56.5" y="584.5" width="83" height="35" rx="3.5" fill="white"/>
<path d="M85.282 597.404C84.302 596.27 83.154 595.836 81.81 595.836C78.758 595.836 76.574 597.908 76.574 601.086C76.574 604.18 78.758 606.252 81.81 606.252C83.266 606.252 84.61 605.72 85.506 604.488L84.05 603.452C83.392 604.292 82.622 604.656 81.824 604.656C79.78 604.656 78.422 603.088 78.422 600.974C78.422 599 79.78 597.432 81.824 597.432C82.51 597.432 83.182 597.642 83.91 598.412L85.282 597.404ZM90.736 606H92.248V602.136C92.248 601.184 92.248 599.112 89.378 599.112C88.314 599.112 87.264 599.434 86.522 600.19L87.404 601.072C87.852 600.652 88.496 600.372 89.196 600.372C90.092 600.372 90.736 600.806 90.736 601.632V601.814H90.316C88.636 601.814 86.088 601.968 86.088 604.152C86.088 605.482 87.292 606.168 88.538 606.168C89.434 606.168 90.218 605.832 90.694 605.076H90.736V606ZM90.638 603.368C90.638 604.306 90.092 604.908 88.944 604.908C88.398 604.908 87.768 604.642 87.768 604.026C87.768 603.06 89.364 602.99 90.288 602.99H90.638V603.368ZM94.0555 606H95.7355V602.332C95.7355 601.436 96.1695 600.624 97.2755 600.624C98.4515 600.624 98.5075 601.856 98.5075 602.598V606H100.188V601.758C100.188 600.386 99.5435 599.112 97.7375 599.112C96.6175 599.112 95.9875 599.686 95.6795 600.358H95.6515V599.28H94.0555V606ZM107.849 600.134C107.205 599.42 106.267 599.112 105.413 599.112C103.383 599.112 101.759 600.526 101.759 602.64C101.759 604.754 103.383 606.168 105.413 606.168C106.001 606.168 107.149 605.916 107.835 605.23L106.715 604.026C106.407 604.432 105.931 604.656 105.413 604.656C104.181 604.656 103.439 603.69 103.439 602.64C103.439 601.59 104.181 600.624 105.413 600.624C105.861 600.624 106.295 600.89 106.687 601.296L107.849 600.134ZM115.316 603.228V602.766C115.316 600.428 114.042 599.112 112.166 599.112C110.136 599.112 108.512 600.526 108.512 602.64C108.512 604.754 110.136 606.168 112.166 606.168C113.23 606.168 114.224 605.79 115.008 604.824L113.804 603.914C113.384 604.432 112.838 604.824 111.998 604.824C111.06 604.824 110.304 604.222 110.192 603.228H115.316ZM110.192 601.968C110.318 601.002 110.934 600.372 111.928 600.372C112.978 600.372 113.622 600.988 113.636 601.968H110.192ZM116.916 606H118.596V595.416H116.916V606Z" fill="#6C3078"/>
<rect x="56.5" y="584.5" width="83" height="35" rx="3.5" stroke="white"/>
<g opacity="0.5">
<rect width="38" height="1" transform="translate(55 400.5)" fill="#9EA6B5"/>
</g>
<rect x="93" y="389" width="24" height="24" rx="12" fill="#D2D6DD"/>
<path d="M106.15 396.088H105.128L102.468 398.244L103.168 399.098L104.946 397.6H104.974V406H106.15V396.088Z" fill="#333333"/>
<g opacity="0.5">
<rect width="38" height="1" transform="translate(117 400.5)" fill="#9EA6B5"/>
</g>
<g opacity="0.5">
<rect width="38" height="1" transform="translate(155 400.5)" fill="#9EA6B5"/>
</g>
<path opacity="0.8" d="M201.81 406H208.194V404.908H203.14V404.88L206.192 402.01C207.186 401.072 208.124 400.19 208.124 398.608C208.124 396.844 206.738 395.92 205.1 395.92C203.504 395.92 202.258 396.774 201.992 398.398L203.266 398.51C203.448 397.558 204.148 396.928 205.142 396.928C206.136 396.928 206.948 397.572 206.948 398.608C206.948 399.574 206.486 400.106 205.548 401.016L201.81 404.656V406Z" fill="#9EA6B5"/>
<rect x="193.5" y="389.5" width="23" height="23" rx="11.5" stroke="#D2D6DD"/>
<g opacity="0.5">
<rect width="38" height="1" transform="translate(217 400.5)" fill="#9EA6B5"/>
</g>
<g opacity="0.5">
<rect width="38" height="1" transform="translate(255 400.5)" fill="#9EA6B5"/>
</g>
<path opacity="0.8" d="M303.966 401.296H304.33C305.548 401.296 306.836 401.758 306.836 403.214C306.836 404.362 305.94 405.16 304.82 405.16C303.728 405.16 303.154 404.754 302.818 403.69L301.628 404.082C302.132 405.552 303.322 406.168 304.82 406.168C306.584 406.168 308.096 405.188 308.096 403.298C308.096 402.052 307.326 401.016 306.066 400.806V400.778C307.06 400.47 307.76 399.546 307.76 398.51C307.76 396.802 306.388 395.92 304.806 395.92C303.546 395.92 302.412 396.48 301.936 397.6L303.07 398.034C303.42 397.306 304.064 396.928 304.89 396.928C305.884 396.928 306.584 397.558 306.584 398.566C306.584 400.064 305.31 400.288 304.33 400.288H303.966V401.296Z" fill="#9EA6B5"/>
<rect x="293.5" y="389.5" width="23" height="23" rx="11.5" stroke="#D2D6DD"/>
<g opacity="0.5">
<rect width="38" height="1" transform="translate(317 400.5)" fill="#9EA6B5"/>
</g>
<g opacity="0.5">
<rect width="38" height="1" transform="translate(355 400.5)" fill="#9EA6B5"/>
</g>
<path opacity="0.8" d="M406.976 396.088H405.534L401.6 402.43V403.732H405.8V406H406.976V403.732H408.404V402.64H406.976V396.088ZM405.8 402.64H402.608L405.772 397.46H405.8V402.64Z" fill="#9EA6B5"/>
<rect x="393.5" y="389.5" width="23" height="23" rx="11.5" stroke="#D2D6DD"/>
<g opacity="0.5">
<rect width="38" height="1" transform="translate(417 400.5)" fill="#9EA6B5"/>
</g>
<rect x="78" y="426" width="63" height="16" rx="2" fill="#E7EDF9"/>
<rect x="178" y="426" width="63" height="16" rx="2" fill="#E7EDF9"/>
<rect x="278" y="426" width="63" height="16" rx="2" fill="#E7EDF9"/>
<rect x="378" y="426" width="63" height="16" rx="2" fill="#E7EDF9"/>
<rect x="56" y="469" width="399" height="16" rx="2" fill="#E7EDF9"/>
<rect x="56" y="493" width="116" height="16" rx="2" fill="#E7EDF9"/>
<rect x="56" y="517" width="63" height="16" rx="2" fill="#E7EDF9"/>
<rect x="56" y="541" width="399" height="16" rx="2" fill="#E7EDF9"/>
<rect x="382.5" y="584.5" width="72" height="35" rx="3.5" fill="#6C3078"/>
<path d="M403.106 606H404.87V598.398H404.898L409.798 606H412.038V596.088H410.274V603.452H410.246L405.444 596.088H403.106V606ZM420.563 603.228V602.766C420.563 600.428 419.289 599.112 417.413 599.112C415.383 599.112 413.759 600.526 413.759 602.64C413.759 604.754 415.383 606.168 417.413 606.168C418.477 606.168 419.471 605.79 420.255 604.824L419.051 603.914C418.631 604.432 418.085 604.824 417.245 604.824C416.307 604.824 415.551 604.222 415.439 603.228H420.563ZM415.439 601.968C415.565 601.002 416.181 600.372 417.175 600.372C418.225 600.372 418.869 600.988 418.883 601.968H415.439ZM421.168 606H423.156L424.92 603.592L426.67 606H428.714L426.012 602.388L428.308 599.28H426.39L424.934 601.296L423.59 599.28H421.546L423.87 602.388L421.168 606ZM430.255 600.708V603.788C430.255 605.37 430.675 606.168 432.453 606.168C432.845 606.168 433.433 606.112 433.783 605.944V604.53C433.573 604.684 433.167 604.74 432.873 604.74C432.131 604.74 431.935 604.32 431.935 603.648V600.708H433.783V599.28H431.935V597.334H430.255V599.28H428.869V600.708H430.255Z" fill="white"/>
<rect x="382.5" y="584.5" width="72" height="35" rx="3.5" stroke="#6C3078"/>
<rect x="278.5" y="584.5" width="95" height="35" rx="3.5" fill="#EDE9ED"/>
<path d="M299.106 606H300.87V601.898H302.13C304.23 601.898 306.092 601.45 306.092 598.958C306.092 596.76 304.356 596.088 302.438 596.088H299.106V606ZM300.87 600.386V597.6H302.13C303.082 597.6 304.244 597.768 304.244 598.986C304.244 600.33 302.942 600.386 301.934 600.386H300.87ZM307.511 606H309.191V602.402C309.191 602.038 309.415 600.708 310.997 600.708C311.263 600.708 311.529 600.764 311.809 600.834V599.21C311.613 599.154 311.417 599.112 311.207 599.112C310.325 599.112 309.583 599.574 309.219 600.344H309.191V599.28H307.511V606ZM319.174 603.228V602.766C319.174 600.428 317.9 599.112 316.024 599.112C313.994 599.112 312.37 600.526 312.37 602.64C312.37 604.754 313.994 606.168 316.024 606.168C317.088 606.168 318.082 605.79 318.866 604.824L317.662 603.914C317.242 604.432 316.696 604.824 315.856 604.824C314.918 604.824 314.162 604.222 314.05 603.228H319.174ZM314.05 601.968C314.176 601.002 314.792 600.372 315.786 600.372C316.836 600.372 317.48 600.988 317.494 601.968H314.05ZM322.579 606H324.371L327.017 599.28H325.295L323.489 603.984H323.461L321.669 599.28H319.835L322.579 606ZM328.033 606H329.713V599.28H328.033V606ZM327.795 596.998C327.795 597.53 328.243 598.006 328.859 598.006C329.475 598.006 329.951 597.572 329.951 596.998C329.951 596.424 329.475 595.99 328.859 595.99C328.243 595.99 327.795 596.466 327.795 596.998ZM331.305 602.64C331.305 604.754 332.929 606.168 334.959 606.168C336.989 606.168 338.613 604.754 338.613 602.64C338.613 600.526 336.989 599.112 334.959 599.112C332.929 599.112 331.305 600.526 331.305 602.64ZM332.985 602.64C332.985 601.59 333.727 600.624 334.959 600.624C336.191 600.624 336.933 601.59 336.933 602.64C336.933 603.69 336.191 604.656 334.959 604.656C333.727 604.656 332.985 603.69 332.985 602.64ZM346.318 599.28H344.638V602.948C344.638 603.844 344.204 604.656 343.098 604.656C341.922 604.656 341.866 603.424 341.866 602.682V599.28H340.186V603.522C340.186 604.894 340.83 606.168 342.636 606.168C343.756 606.168 344.386 605.594 344.694 604.922H344.722V606H346.318V599.28ZM352.929 600.134C352.383 599.392 351.431 599.112 350.535 599.112C349.177 599.112 347.833 599.784 347.833 601.282C347.833 603.844 351.459 602.752 351.459 604.138C351.459 604.67 350.829 604.908 350.339 604.908C349.625 604.908 349.177 604.558 348.743 604.082L347.623 605.132C348.309 605.902 349.205 606.168 350.241 606.168C351.613 606.168 353.139 605.608 353.139 604.012C353.139 601.394 349.513 602.374 349.513 601.17C349.513 600.666 350.045 600.456 350.493 600.456C351.067 600.456 351.487 600.694 351.809 601.142L352.929 600.134Z" fill="#9EA6B5"/>
<rect x="278.5" y="584.5" width="95" height="35" rx="3.5" stroke="#9EA6B5"/>
</g>
<path d="M34.408 329H35.752V323.912H37.48L40.552 329H42.2L38.984 323.784C40.744 323.512 41.816 322.44 41.816 320.792C41.816 317.992 39.496 317.672 37.304 317.672H34.408V329ZM35.752 318.92H37.64C38.952 318.92 40.376 319.16 40.376 320.792C40.376 322.664 38.44 322.664 36.952 322.664H35.752V318.92ZM44.0773 329H45.3253V321.512H44.0773V329ZM43.7893 318.584C43.7893 319.112 44.1733 319.496 44.7013 319.496C45.2293 319.496 45.6133 319.112 45.6133 318.584C45.6133 318.088 45.2133 317.672 44.7013 317.672C44.1893 317.672 43.7893 318.088 43.7893 318.584ZM55.281 321.512H54.033V322.792H54.001C53.505 321.8 52.369 321.32 51.361 321.32C48.977 321.32 47.377 322.808 47.377 325.256C47.377 327.464 49.009 329.096 51.361 329.096C52.353 329.096 53.409 328.664 54.001 327.704H54.033V328.664C54.033 330.248 53.441 331.688 51.201 331.688C50.049 331.688 49.201 331.24 48.417 330.392L47.521 331.416C48.577 332.456 49.745 332.84 51.201 332.84C53.825 332.84 55.281 331.368 55.281 328.664V321.512ZM48.721 325.256C48.721 323.688 49.793 322.472 51.361 322.472C52.945 322.472 54.033 323.608 54.033 325.224C54.033 326.664 53.073 327.944 51.361 327.944C49.905 327.944 48.721 326.776 48.721 325.256ZM57.5903 329H58.8383V325.352C58.8383 323.64 59.5423 322.472 61.1583 322.472C62.3263 322.472 62.8703 323.256 62.8703 324.504V329H64.1183V324.376C64.1183 322.568 63.2383 321.32 61.2703 321.32C60.1023 321.32 59.2063 321.96 58.8703 322.552H58.8383V316.904H57.5903V329ZM70.5769 321.512H68.3689V319.384H67.1209V321.512H65.4889V322.568H67.1209V326.68C67.1209 328.232 67.4089 329.192 69.1849 329.192C69.6489 329.192 70.2089 329.112 70.6409 328.92L70.5929 327.784C70.2569 327.96 69.8569 328.04 69.4889 328.04C68.3849 328.04 68.3689 327.272 68.3689 326.312V322.568H70.5769V321.512ZM77.247 323.288C77.839 322.744 78.671 322.472 79.471 322.472C80.639 322.472 81.327 323.032 81.327 324.12V324.344H80.847C79.007 324.344 76.127 324.488 76.127 326.968C76.127 328.424 77.391 329.192 78.911 329.192C80.047 329.192 80.879 328.648 81.375 327.88H81.407C81.407 328.2 81.407 328.664 81.487 329H82.687C82.623 328.616 82.575 328.136 82.575 327.704V324.488C82.575 322.376 81.647 321.32 79.439 321.32C78.351 321.32 77.231 321.688 76.463 322.472L77.247 323.288ZM81.327 325.4V325.88C81.295 327.096 80.559 328.136 79.119 328.136C78.175 328.136 77.471 327.784 77.471 326.84C77.471 325.832 78.495 325.4 80.079 325.4H81.327ZM84.9679 329H86.2159V316.904H84.9679V329ZM88.8116 329H90.0596V321.512H88.8116V329ZM88.5236 318.584C88.5236 319.112 88.9076 319.496 89.4356 319.496C89.9636 319.496 90.3476 319.112 90.3476 318.584C90.3476 318.088 89.9476 317.672 89.4356 317.672C88.9236 317.672 88.5236 318.088 88.5236 318.584ZM100.015 321.512H98.7674V322.792H98.7354C98.2394 321.8 97.1034 321.32 96.0954 321.32C93.7114 321.32 92.1114 322.808 92.1114 325.256C92.1114 327.464 93.7434 329.096 96.0954 329.096C97.0874 329.096 98.1434 328.664 98.7354 327.704H98.7674V328.664C98.7674 330.248 98.1754 331.688 95.9354 331.688C94.7834 331.688 93.9354 331.24 93.1514 330.392L92.2554 331.416C93.3114 332.456 94.4794 332.84 95.9354 332.84C98.5594 332.84 100.015 331.368 100.015 328.664V321.512ZM93.4554 325.256C93.4554 323.688 94.5274 322.472 96.0954 322.472C97.6794 322.472 98.7674 323.608 98.7674 325.224C98.7674 326.664 97.8074 327.944 96.0954 327.944C94.6394 327.944 93.4554 326.776 93.4554 325.256ZM102.325 329H103.573V325.352C103.573 323.64 104.277 322.472 105.893 322.472C107.061 322.472 107.605 323.256 107.605 324.504V329H108.853V324.376C108.853 322.568 107.973 321.32 106.005 321.32C104.773 321.32 103.845 322.008 103.509 322.744H103.477C103.477 322.328 103.445 321.912 103.445 321.512H102.261C102.261 322.008 102.325 322.6 102.325 323.288V329ZM116.959 326.904C116.367 327.656 115.647 328.04 114.575 328.04C113.215 328.04 112.223 326.936 112.127 325.64H118.175V325.24C118.175 322.76 116.735 321.32 114.623 321.32C112.415 321.32 110.783 322.936 110.783 325.256C110.783 327.432 112.223 329.192 114.575 329.192C115.967 329.192 117.023 328.776 117.903 327.64L116.959 326.904ZM112.127 324.584C112.287 323.32 113.199 322.472 114.575 322.472C115.951 322.472 116.783 323.32 116.831 324.584H112.127ZM126.33 329H127.578V316.904H126.33V322.6H126.298C125.61 321.8 124.698 321.32 123.61 321.32C121.258 321.32 119.674 322.984 119.674 325.256C119.674 327.496 121.322 329.192 123.418 329.192C124.762 329.192 125.834 328.52 126.298 327.672H126.33V329ZM126.33 325.256C126.33 326.824 125.29 328.04 123.674 328.04C122.058 328.04 121.018 326.824 121.018 325.256C121.018 323.688 122.058 322.472 123.674 322.472C125.29 322.472 126.33 323.688 126.33 325.256ZM134.276 329H135.524V327.672H135.556C136.02 328.52 137.092 329.192 138.436 329.192C140.532 329.192 142.18 327.496 142.18 325.256C142.18 322.984 140.596 321.32 138.244 321.32C137.156 321.32 136.244 321.8 135.556 322.6H135.524V316.904H134.276V329ZM135.524 325.256C135.524 323.688 136.564 322.472 138.18 322.472C139.796 322.472 140.836 323.688 140.836 325.256C140.836 326.824 139.796 328.04 138.18 328.04C136.564 328.04 135.524 326.824 135.524 325.256ZM150.65 321.512H149.402V325.16C149.402 326.872 148.698 328.04 147.082 328.04C145.914 328.04 145.37 327.256 145.37 326.008V321.512H144.122V326.136C144.122 327.944 145.002 329.192 146.97 329.192C148.202 329.192 149.13 328.504 149.466 327.768H149.498C149.498 328.184 149.53 328.6 149.53 329H150.714C150.714 328.504 150.65 327.912 150.65 327.224V321.512ZM157.108 321.512H154.9V319.384H153.652V321.512H152.02V322.568H153.652V326.68C153.652 328.232 153.94 329.192 155.716 329.192C156.18 329.192 156.74 329.112 157.172 328.92L157.124 327.784C156.788 327.96 156.388 328.04 156.02 328.04C154.916 328.04 154.9 327.272 154.9 326.312V322.568H157.108V321.512ZM162.733 321.512H160.525V319.384H159.277V321.512H157.645V322.568H159.277V326.68C159.277 328.232 159.565 329.192 161.341 329.192C161.805 329.192 162.365 329.112 162.797 328.92L162.749 327.784C162.413 327.96 162.013 328.04 161.645 328.04C160.541 328.04 160.525 327.272 160.525 326.312V322.568H162.733V321.512ZM163.83 325.256C163.83 327.592 165.526 329.192 167.83 329.192C170.134 329.192 171.83 327.592 171.83 325.256C171.83 322.92 170.134 321.32 167.83 321.32C165.526 321.32 163.83 322.92 163.83 325.256ZM165.174 325.256C165.174 323.688 166.214 322.472 167.83 322.472C169.446 322.472 170.486 323.688 170.486 325.256C170.486 326.824 169.446 328.04 167.83 328.04C166.214 328.04 165.174 326.824 165.174 325.256ZM173.762 329H175.01V325.352C175.01 323.64 175.714 322.472 177.33 322.472C178.498 322.472 179.042 323.256 179.042 324.504V329H180.29V324.376C180.29 322.568 179.41 321.32 177.442 321.32C176.21 321.32 175.282 322.008 174.946 322.744H174.914C174.914 322.328 174.882 321.912 174.882 321.512H173.698C173.698 322.008 173.762 322.6 173.762 323.288V329ZM181.821 327.8C182.557 328.856 183.469 329.192 184.733 329.192C186.221 329.192 187.725 328.536 187.725 326.84C187.725 325.336 186.605 324.856 185.277 324.6C184.285 324.408 183.389 324.136 183.389 323.512C183.389 322.808 184.173 322.472 184.861 322.472C185.597 322.472 186.125 322.84 186.445 323.368L187.485 322.68C186.973 321.72 185.997 321.32 184.941 321.32C183.549 321.32 182.141 322.072 182.141 323.528C182.141 325.08 183.357 325.384 184.781 325.704C185.581 325.88 186.381 326.088 186.381 326.888C186.381 327.704 185.517 328.04 184.733 328.04C183.853 328.04 183.309 327.64 182.813 327.032L181.821 327.8ZM194.03 329H195.278V321.512H194.03V329ZM193.742 318.584C193.742 319.112 194.126 319.496 194.654 319.496C195.182 319.496 195.566 319.112 195.566 318.584C195.566 318.088 195.166 317.672 194.654 317.672C194.142 317.672 193.742 318.088 193.742 318.584ZM197.762 329H199.01V325.352C199.01 323.64 199.714 322.472 201.33 322.472C202.498 322.472 203.042 323.256 203.042 324.504V329H204.29V324.376C204.29 322.568 203.41 321.32 201.442 321.32C200.21 321.32 199.282 322.008 198.946 322.744H198.914C198.914 322.328 198.882 321.912 198.882 321.512H197.698C197.698 322.008 197.762 322.6 197.762 323.288V329ZM211.794 323.288C212.386 322.744 213.218 322.472 214.018 322.472C215.186 322.472 215.874 323.032 215.874 324.12V324.344H215.394C213.554 324.344 210.674 324.488 210.674 326.968C210.674 328.424 211.938 329.192 213.458 329.192C214.594 329.192 215.426 328.648 215.922 327.88H215.954C215.954 328.2 215.954 328.664 216.034 329H217.234C217.17 328.616 217.122 328.136 217.122 327.704V324.488C217.122 322.376 216.194 321.32 213.986 321.32C212.898 321.32 211.778 321.688 211.01 322.472L211.794 323.288ZM215.874 325.4V325.88C215.842 327.096 215.106 328.136 213.666 328.136C212.722 328.136 212.018 327.784 212.018 326.84C212.018 325.832 213.042 325.4 214.626 325.4H215.874ZM223.856 329H225.104V325.352C225.104 323.64 225.808 322.472 227.424 322.472C228.448 322.472 228.864 323.112 228.864 324.76V329H230.112V324.68C230.112 323.336 230.992 322.472 232.048 322.472C233.504 322.472 233.872 323.48 233.872 324.52V329H235.12V324.456C235.12 322.52 234.416 321.32 232.272 321.32C231.136 321.32 230.448 321.864 229.904 322.744C229.664 322.232 229.152 321.32 227.536 321.32C226.304 321.32 225.376 322.008 225.04 322.744H225.008C225.008 322.328 224.976 321.912 224.976 321.512H223.792C223.792 322.008 223.856 322.6 223.856 323.288V329ZM237.049 325.256C237.049 327.592 238.745 329.192 241.049 329.192C243.353 329.192 245.049 327.592 245.049 325.256C245.049 322.92 243.353 321.32 241.049 321.32C238.745 321.32 237.049 322.92 237.049 325.256ZM238.393 325.256C238.393 323.688 239.433 322.472 241.049 322.472C242.665 322.472 243.705 323.688 243.705 325.256C243.705 326.824 242.665 328.04 241.049 328.04C239.433 328.04 238.393 326.824 238.393 325.256ZM253.205 329H254.453V316.904H253.205V322.6H253.173C252.485 321.8 251.573 321.32 250.485 321.32C248.133 321.32 246.549 322.984 246.549 325.256C246.549 327.496 248.197 329.192 250.293 329.192C251.637 329.192 252.709 328.52 253.173 327.672H253.205V329ZM253.205 325.256C253.205 326.824 252.165 328.04 250.549 328.04C248.933 328.04 247.893 326.824 247.893 325.256C247.893 323.688 248.933 322.472 250.549 322.472C252.165 322.472 253.205 323.688 253.205 325.256ZM257.45 323.288C258.042 322.744 258.874 322.472 259.674 322.472C260.842 322.472 261.53 323.032 261.53 324.12V324.344H261.05C259.21 324.344 256.33 324.488 256.33 326.968C256.33 328.424 257.594 329.192 259.114 329.192C260.25 329.192 261.082 328.648 261.578 327.88H261.61C261.61 328.2 261.61 328.664 261.69 329H262.89C262.826 328.616 262.778 328.136 262.778 327.704V324.488C262.778 322.376 261.85 321.32 259.642 321.32C258.554 321.32 257.434 321.688 256.666 322.472L257.45 323.288ZM261.53 325.4V325.88C261.498 327.096 260.762 328.136 259.322 328.136C258.378 328.136 257.674 327.784 257.674 326.84C257.674 325.832 258.698 325.4 260.282 325.4H261.53ZM265.171 329H266.419V316.904H265.171V329Z" fill="black"/>
<path d="M34.408 674H35.752V668.912H37.48L40.552 674H42.2L38.984 668.784C40.744 668.512 41.816 667.44 41.816 665.792C41.816 662.992 39.496 662.672 37.304 662.672H34.408V674ZM35.752 663.92H37.64C38.952 663.92 40.376 664.16 40.376 665.792C40.376 667.664 38.44 667.664 36.952 667.664H35.752V663.92ZM44.0773 674H45.3253V666.512H44.0773V674ZM43.7893 663.584C43.7893 664.112 44.1733 664.496 44.7013 664.496C45.2293 664.496 45.6133 664.112 45.6133 663.584C45.6133 663.088 45.2133 662.672 44.7013 662.672C44.1893 662.672 43.7893 663.088 43.7893 663.584ZM55.281 666.512H54.033V667.792H54.001C53.505 666.8 52.369 666.32 51.361 666.32C48.977 666.32 47.377 667.808 47.377 670.256C47.377 672.464 49.009 674.096 51.361 674.096C52.353 674.096 53.409 673.664 54.001 672.704H54.033V673.664C54.033 675.248 53.441 676.688 51.201 676.688C50.049 676.688 49.201 676.24 48.417 675.392L47.521 676.416C48.577 677.456 49.745 677.84 51.201 677.84C53.825 677.84 55.281 676.368 55.281 673.664V666.512ZM48.721 670.256C48.721 668.688 49.793 667.472 51.361 667.472C52.945 667.472 54.033 668.608 54.033 670.224C54.033 671.664 53.073 672.944 51.361 672.944C49.905 672.944 48.721 671.776 48.721 670.256ZM57.5903 674H58.8383V670.352C58.8383 668.64 59.5423 667.472 61.1583 667.472C62.3263 667.472 62.8703 668.256 62.8703 669.504V674H64.1183V669.376C64.1183 667.568 63.2383 666.32 61.2703 666.32C60.1023 666.32 59.2063 666.96 58.8703 667.552H58.8383V661.904H57.5903V674ZM70.5769 666.512H68.3689V664.384H67.1209V666.512H65.4889V667.568H67.1209V671.68C67.1209 673.232 67.4089 674.192 69.1849 674.192C69.6489 674.192 70.2089 674.112 70.6409 673.92L70.5929 672.784C70.2569 672.96 69.8569 673.04 69.4889 673.04C68.3849 673.04 68.3689 672.272 68.3689 671.312V667.568H70.5769V666.512ZM77.247 668.288C77.839 667.744 78.671 667.472 79.471 667.472C80.639 667.472 81.327 668.032 81.327 669.12V669.344H80.847C79.007 669.344 76.127 669.488 76.127 671.968C76.127 673.424 77.391 674.192 78.911 674.192C80.047 674.192 80.879 673.648 81.375 672.88H81.407C81.407 673.2 81.407 673.664 81.487 674H82.687C82.623 673.616 82.575 673.136 82.575 672.704V669.488C82.575 667.376 81.647 666.32 79.439 666.32C78.351 666.32 77.231 666.688 76.463 667.472L77.247 668.288ZM81.327 670.4V670.88C81.295 672.096 80.559 673.136 79.119 673.136C78.175 673.136 77.471 672.784 77.471 671.84C77.471 670.832 78.495 670.4 80.079 670.4H81.327ZM84.9679 674H86.2159V661.904H84.9679V674ZM88.8116 674H90.0596V666.512H88.8116V674ZM88.5236 663.584C88.5236 664.112 88.9076 664.496 89.4356 664.496C89.9636 664.496 90.3476 664.112 90.3476 663.584C90.3476 663.088 89.9476 662.672 89.4356 662.672C88.9236 662.672 88.5236 663.088 88.5236 663.584ZM100.015 666.512H98.7674V667.792H98.7354C98.2394 666.8 97.1034 666.32 96.0954 666.32C93.7114 666.32 92.1114 667.808 92.1114 670.256C92.1114 672.464 93.7434 674.096 96.0954 674.096C97.0874 674.096 98.1434 673.664 98.7354 672.704H98.7674V673.664C98.7674 675.248 98.1754 676.688 95.9354 676.688C94.7834 676.688 93.9354 676.24 93.1514 675.392L92.2554 676.416C93.3114 677.456 94.4794 677.84 95.9354 677.84C98.5594 677.84 100.015 676.368 100.015 673.664V666.512ZM93.4554 670.256C93.4554 668.688 94.5274 667.472 96.0954 667.472C97.6794 667.472 98.7674 668.608 98.7674 670.224C98.7674 671.664 97.8074 672.944 96.0954 672.944C94.6394 672.944 93.4554 671.776 93.4554 670.256ZM102.325 674H103.573V670.352C103.573 668.64 104.277 667.472 105.893 667.472C107.061 667.472 107.605 668.256 107.605 669.504V674H108.853V669.376C108.853 667.568 107.973 666.32 106.005 666.32C104.773 666.32 103.845 667.008 103.509 667.744H103.477C103.477 667.328 103.445 666.912 103.445 666.512H102.261C102.261 667.008 102.325 667.6 102.325 668.288V674ZM116.959 671.904C116.367 672.656 115.647 673.04 114.575 673.04C113.215 673.04 112.223 671.936 112.127 670.64H118.175V670.24C118.175 667.76 116.735 666.32 114.623 666.32C112.415 666.32 110.783 667.936 110.783 670.256C110.783 672.432 112.223 674.192 114.575 674.192C115.967 674.192 117.023 673.776 117.903 672.64L116.959 671.904ZM112.127 669.584C112.287 668.32 113.199 667.472 114.575 667.472C115.951 667.472 116.783 668.32 116.831 669.584H112.127ZM126.33 674H127.578V661.904H126.33V667.6H126.298C125.61 666.8 124.698 666.32 123.61 666.32C121.258 666.32 119.674 667.984 119.674 670.256C119.674 672.496 121.322 674.192 123.418 674.192C124.762 674.192 125.834 673.52 126.298 672.672H126.33V674ZM126.33 670.256C126.33 671.824 125.29 673.04 123.674 673.04C122.058 673.04 121.018 671.824 121.018 670.256C121.018 668.688 122.058 667.472 123.674 667.472C125.29 667.472 126.33 668.688 126.33 670.256ZM134.276 674H135.524V672.672H135.556C136.02 673.52 137.092 674.192 138.436 674.192C140.532 674.192 142.18 672.496 142.18 670.256C142.18 667.984 140.596 666.32 138.244 666.32C137.156 666.32 136.244 666.8 135.556 667.6H135.524V661.904H134.276V674ZM135.524 670.256C135.524 668.688 136.564 667.472 138.18 667.472C139.796 667.472 140.836 668.688 140.836 670.256C140.836 671.824 139.796 673.04 138.18 673.04C136.564 673.04 135.524 671.824 135.524 670.256ZM150.65 666.512H149.402V670.16C149.402 671.872 148.698 673.04 147.082 673.04C145.914 673.04 145.37 672.256 145.37 671.008V666.512H144.122V671.136C144.122 672.944 145.002 674.192 146.97 674.192C148.202 674.192 149.13 673.504 149.466 672.768H149.498C149.498 673.184 149.53 673.6 149.53 674H150.714C150.714 673.504 150.65 672.912 150.65 672.224V666.512ZM157.108 666.512H154.9V664.384H153.652V666.512H152.02V667.568H153.652V671.68C153.652 673.232 153.94 674.192 155.716 674.192C156.18 674.192 156.74 674.112 157.172 673.92L157.124 672.784C156.788 672.96 156.388 673.04 156.02 673.04C154.916 673.04 154.9 672.272 154.9 671.312V667.568H157.108V666.512ZM162.733 666.512H160.525V664.384H159.277V666.512H157.645V667.568H159.277V671.68C159.277 673.232 159.565 674.192 161.341 674.192C161.805 674.192 162.365 674.112 162.797 673.92L162.749 672.784C162.413 672.96 162.013 673.04 161.645 673.04C160.541 673.04 160.525 672.272 160.525 671.312V667.568H162.733V666.512ZM163.83 670.256C163.83 672.592 165.526 674.192 167.83 674.192C170.134 674.192 171.83 672.592 171.83 670.256C171.83 667.92 170.134 666.32 167.83 666.32C165.526 666.32 163.83 667.92 163.83 670.256ZM165.174 670.256C165.174 668.688 166.214 667.472 167.83 667.472C169.446 667.472 170.486 668.688 170.486 670.256C170.486 671.824 169.446 673.04 167.83 673.04C166.214 673.04 165.174 671.824 165.174 670.256ZM173.762 674H175.01V670.352C175.01 668.64 175.714 667.472 177.33 667.472C178.498 667.472 179.042 668.256 179.042 669.504V674H180.29V669.376C180.29 667.568 179.41 666.32 177.442 666.32C176.21 666.32 175.282 667.008 174.946 667.744H174.914C174.914 667.328 174.882 666.912 174.882 666.512H173.698C173.698 667.008 173.762 667.6 173.762 668.288V674ZM181.821 672.8C182.557 673.856 183.469 674.192 184.733 674.192C186.221 674.192 187.725 673.536 187.725 671.84C187.725 670.336 186.605 669.856 185.277 669.6C184.285 669.408 183.389 669.136 183.389 668.512C183.389 667.808 184.173 667.472 184.861 667.472C185.597 667.472 186.125 667.84 186.445 668.368L187.485 667.68C186.973 666.72 185.997 666.32 184.941 666.32C183.549 666.32 182.141 667.072 182.141 668.528C182.141 670.08 183.357 670.384 184.781 670.704C185.581 670.88 186.381 671.088 186.381 671.888C186.381 672.704 185.517 673.04 184.733 673.04C183.853 673.04 183.309 672.64 182.813 672.032L181.821 672.8ZM194.03 674H195.278V666.512H194.03V674ZM193.742 663.584C193.742 664.112 194.126 664.496 194.654 664.496C195.182 664.496 195.566 664.112 195.566 663.584C195.566 663.088 195.166 662.672 194.654 662.672C194.142 662.672 193.742 663.088 193.742 663.584ZM197.762 674H199.01V670.352C199.01 668.64 199.714 667.472 201.33 667.472C202.498 667.472 203.042 668.256 203.042 669.504V674H204.29V669.376C204.29 667.568 203.41 666.32 201.442 666.32C200.21 666.32 199.282 667.008 198.946 667.744H198.914C198.914 667.328 198.882 666.912 198.882 666.512H197.698C197.698 667.008 197.762 667.6 197.762 668.288V674ZM210.274 672.8C211.01 673.856 211.922 674.192 213.186 674.192C214.674 674.192 216.178 673.536 216.178 671.84C216.178 670.336 215.058 669.856 213.73 669.6C212.738 669.408 211.842 669.136 211.842 668.512C211.842 667.808 212.626 667.472 213.314 667.472C214.05 667.472 214.578 667.84 214.898 668.368L215.938 667.68C215.426 666.72 214.45 666.32 213.394 666.32C212.002 666.32 210.594 667.072 210.594 668.528C210.594 670.08 211.81 670.384 213.234 670.704C214.034 670.88 214.834 671.088 214.834 671.888C214.834 672.704 213.97 673.04 213.186 673.04C212.306 673.04 211.762 672.64 211.266 672.032L210.274 672.8ZM222.014 666.512H219.806V664.384H218.558V666.512H216.926V667.568H218.558V671.68C218.558 673.232 218.846 674.192 220.622 674.192C221.086 674.192 221.646 674.112 222.078 673.92L222.03 672.784C221.694 672.96 221.294 673.04 220.926 673.04C219.822 673.04 219.806 672.272 219.806 671.312V667.568H222.014V666.512ZM229.287 671.904C228.695 672.656 227.975 673.04 226.903 673.04C225.543 673.04 224.551 671.936 224.455 670.64H230.503V670.24C230.503 667.76 229.063 666.32 226.951 666.32C224.743 666.32 223.111 667.936 223.111 670.256C223.111 672.432 224.551 674.192 226.903 674.192C228.295 674.192 229.351 673.776 230.231 672.64L229.287 671.904ZM224.455 669.584C224.615 668.32 225.527 667.472 226.903 667.472C228.279 667.472 229.111 668.32 229.159 669.584H224.455ZM232.37 677.648H233.618V672.672H233.65C234.114 673.52 235.186 674.192 236.53 674.192C238.626 674.192 240.274 672.496 240.274 670.256C240.274 667.984 238.69 666.32 236.338 666.32C235.25 666.32 234.338 666.8 233.65 667.6H233.618V666.512H232.37V677.648ZM233.618 670.256C233.618 668.688 234.658 667.472 236.274 667.472C237.89 667.472 238.93 668.688 238.93 670.256C238.93 671.824 237.89 673.04 236.274 673.04C234.658 673.04 233.618 671.824 233.618 670.256ZM241.383 672.8C242.119 673.856 243.031 674.192 244.295 674.192C245.783 674.192 247.287 673.536 247.287 671.84C247.287 670.336 246.167 669.856 244.839 669.6C243.847 669.408 242.951 669.136 242.951 668.512C242.951 667.808 243.735 667.472 244.423 667.472C245.159 667.472 245.687 667.84 246.007 668.368L247.047 667.68C246.535 666.72 245.559 666.32 244.503 666.32C243.111 666.32 241.703 667.072 241.703 668.528C241.703 670.08 242.919 670.384 244.343 670.704C245.143 670.88 245.943 671.088 245.943 671.888C245.943 672.704 245.079 673.04 244.295 673.04C243.415 673.04 242.871 672.64 242.375 672.032L241.383 672.8ZM253.716 662.384L252.708 662L247.892 674.288L248.9 674.688L253.716 662.384ZM255.59 674H256.838V667.568H258.662V666.512H256.838V665.104C256.838 663.808 256.886 662.864 258.182 662.864C258.47 662.864 258.758 662.928 259.03 663.024L259.206 661.904C258.966 661.776 258.566 661.712 258.246 661.712C256.23 661.712 255.59 663.008 255.59 664.832V666.512H253.958V667.568H255.59V674ZM259.814 674H261.062V661.904H259.814V674ZM263.111 670.256C263.111 672.592 264.807 674.192 267.111 674.192C269.415 674.192 271.111 672.592 271.111 670.256C271.111 667.92 269.415 666.32 267.111 666.32C264.807 666.32 263.111 667.92 263.111 670.256ZM264.455 670.256C264.455 668.688 265.495 667.472 267.111 667.472C268.727 667.472 269.767 668.688 269.767 670.256C269.767 671.824 268.727 673.04 267.111 673.04C265.495 673.04 264.455 671.824 264.455 670.256ZM283.491 666.512H282.147L280.451 672.272H280.419L278.451 666.512H277.139L275.203 672.272H275.171L273.459 666.512H272.083L274.515 674H275.795L277.683 668.24H277.715L279.843 674H281.075L283.491 666.512ZM284.071 672.8C284.807 673.856 285.719 674.192 286.983 674.192C288.471 674.192 289.975 673.536 289.975 671.84C289.975 670.336 288.855 669.856 287.527 669.6C286.535 669.408 285.639 669.136 285.639 668.512C285.639 667.808 286.423 667.472 287.111 667.472C287.847 667.472 288.375 667.84 288.695 668.368L289.735 667.68C289.223 666.72 288.247 666.32 287.191 666.32C285.799 666.32 284.391 667.072 284.391 668.528C284.391 670.08 285.607 670.384 287.031 670.704C287.831 670.88 288.631 671.088 288.631 671.888C288.631 672.704 287.767 673.04 286.983 673.04C286.103 673.04 285.559 672.64 285.063 672.032L284.071 672.8ZM292.755 672.176C292.227 672.176 291.795 672.608 291.795 673.136C291.795 673.664 292.259 674.096 292.755 674.096C293.251 674.096 293.715 673.664 293.715 673.136C293.715 672.608 293.283 672.176 292.755 672.176Z" fill="black"/>
<path d="M501.408 329H502.752V323.912H504.48L507.552 329H509.2L505.984 323.784C507.744 323.512 508.816 322.44 508.816 320.792C508.816 317.992 506.496 317.672 504.304 317.672H501.408V329ZM502.752 318.92H504.64C505.952 318.92 507.376 319.16 507.376 320.792C507.376 322.664 505.44 322.664 503.952 322.664H502.752V318.92ZM511.077 329H512.325V321.512H511.077V329ZM510.789 318.584C510.789 319.112 511.173 319.496 511.701 319.496C512.229 319.496 512.613 319.112 512.613 318.584C512.613 318.088 512.213 317.672 511.701 317.672C511.189 317.672 510.789 318.088 510.789 318.584ZM522.281 321.512H521.033V322.792H521.001C520.505 321.8 519.369 321.32 518.361 321.32C515.977 321.32 514.377 322.808 514.377 325.256C514.377 327.464 516.009 329.096 518.361 329.096C519.353 329.096 520.409 328.664 521.001 327.704H521.033V328.664C521.033 330.248 520.441 331.688 518.201 331.688C517.049 331.688 516.201 331.24 515.417 330.392L514.521 331.416C515.577 332.456 516.745 332.84 518.201 332.84C520.825 332.84 522.281 331.368 522.281 328.664V321.512ZM515.721 325.256C515.721 323.688 516.793 322.472 518.361 322.472C519.945 322.472 521.033 323.608 521.033 325.224C521.033 326.664 520.073 327.944 518.361 327.944C516.905 327.944 515.721 326.776 515.721 325.256ZM524.59 329H525.838V325.352C525.838 323.64 526.542 322.472 528.158 322.472C529.326 322.472 529.87 323.256 529.87 324.504V329H531.118V324.376C531.118 322.568 530.238 321.32 528.27 321.32C527.102 321.32 526.206 321.96 525.87 322.552H525.838V316.904H524.59V329ZM537.577 321.512H535.369V319.384H534.121V321.512H532.489V322.568H534.121V326.68C534.121 328.232 534.409 329.192 536.185 329.192C536.649 329.192 537.209 329.112 537.641 328.92L537.593 327.784C537.257 327.96 536.857 328.04 536.489 328.04C535.385 328.04 535.369 327.272 535.369 326.312V322.568H537.577V321.512ZM544.247 323.288C544.839 322.744 545.671 322.472 546.471 322.472C547.639 322.472 548.327 323.032 548.327 324.12V324.344H547.847C546.007 324.344 543.127 324.488 543.127 326.968C543.127 328.424 544.391 329.192 545.911 329.192C547.047 329.192 547.879 328.648 548.375 327.88H548.407C548.407 328.2 548.407 328.664 548.487 329H549.687C549.623 328.616 549.575 328.136 549.575 327.704V324.488C549.575 322.376 548.647 321.32 546.439 321.32C545.351 321.32 544.231 321.688 543.463 322.472L544.247 323.288ZM548.327 325.4V325.88C548.295 327.096 547.559 328.136 546.119 328.136C545.175 328.136 544.471 327.784 544.471 326.84C544.471 325.832 545.495 325.4 547.079 325.4H548.327ZM551.968 329H553.216V316.904H551.968V329ZM555.812 329H557.06V321.512H555.812V329ZM555.524 318.584C555.524 319.112 555.908 319.496 556.436 319.496C556.964 319.496 557.348 319.112 557.348 318.584C557.348 318.088 556.948 317.672 556.436 317.672C555.924 317.672 555.524 318.088 555.524 318.584ZM567.015 321.512H565.767V322.792H565.735C565.239 321.8 564.103 321.32 563.095 321.32C560.711 321.32 559.111 322.808 559.111 325.256C559.111 327.464 560.743 329.096 563.095 329.096C564.087 329.096 565.143 328.664 565.735 327.704H565.767V328.664C565.767 330.248 565.175 331.688 562.935 331.688C561.783 331.688 560.935 331.24 560.151 330.392L559.255 331.416C560.311 332.456 561.479 332.84 562.935 332.84C565.559 332.84 567.015 331.368 567.015 328.664V321.512ZM560.455 325.256C560.455 323.688 561.527 322.472 563.095 322.472C564.679 322.472 565.767 323.608 565.767 325.224C565.767 326.664 564.807 327.944 563.095 327.944C561.639 327.944 560.455 326.776 560.455 325.256ZM569.325 329H570.573V325.352C570.573 323.64 571.277 322.472 572.893 322.472C574.061 322.472 574.605 323.256 574.605 324.504V329H575.853V324.376C575.853 322.568 574.973 321.32 573.005 321.32C571.773 321.32 570.845 322.008 570.509 322.744H570.477C570.477 322.328 570.445 321.912 570.445 321.512H569.261C569.261 322.008 569.325 322.6 569.325 323.288V329ZM583.959 326.904C583.367 327.656 582.647 328.04 581.575 328.04C580.215 328.04 579.223 326.936 579.127 325.64H585.175V325.24C585.175 322.76 583.735 321.32 581.623 321.32C579.415 321.32 577.783 322.936 577.783 325.256C577.783 327.432 579.223 329.192 581.575 329.192C582.967 329.192 584.023 328.776 584.903 327.64L583.959 326.904ZM579.127 324.584C579.287 323.32 580.199 322.472 581.575 322.472C582.951 322.472 583.783 323.32 583.831 324.584H579.127ZM593.33 329H594.578V316.904H593.33V322.6H593.298C592.61 321.8 591.698 321.32 590.61 321.32C588.258 321.32 586.674 322.984 586.674 325.256C586.674 327.496 588.322 329.192 590.418 329.192C591.762 329.192 592.834 328.52 593.298 327.672H593.33V329ZM593.33 325.256C593.33 326.824 592.29 328.04 590.674 328.04C589.058 328.04 588.018 326.824 588.018 325.256C588.018 323.688 589.058 322.472 590.674 322.472C592.29 322.472 593.33 323.688 593.33 325.256ZM601.276 329H602.524V327.672H602.556C603.02 328.52 604.092 329.192 605.436 329.192C607.532 329.192 609.18 327.496 609.18 325.256C609.18 322.984 607.596 321.32 605.244 321.32C604.156 321.32 603.244 321.8 602.556 322.6H602.524V316.904H601.276V329ZM602.524 325.256C602.524 323.688 603.564 322.472 605.18 322.472C606.796 322.472 607.836 323.688 607.836 325.256C607.836 326.824 606.796 328.04 605.18 328.04C603.564 328.04 602.524 326.824 602.524 325.256ZM617.65 321.512H616.402V325.16C616.402 326.872 615.698 328.04 614.082 328.04C612.914 328.04 612.37 327.256 612.37 326.008V321.512H611.122V326.136C611.122 327.944 612.002 329.192 613.97 329.192C615.202 329.192 616.13 328.504 616.466 327.768H616.498C616.498 328.184 616.53 328.6 616.53 329H617.714C617.714 328.504 617.65 327.912 617.65 327.224V321.512ZM624.108 321.512H621.9V319.384H620.652V321.512H619.02V322.568H620.652V326.68C620.652 328.232 620.94 329.192 622.716 329.192C623.18 329.192 623.74 329.112 624.172 328.92L624.124 327.784C623.788 327.96 623.388 328.04 623.02 328.04C621.916 328.04 621.9 327.272 621.9 326.312V322.568H624.108V321.512ZM629.733 321.512H627.525V319.384H626.277V321.512H624.645V322.568H626.277V326.68C626.277 328.232 626.565 329.192 628.341 329.192C628.805 329.192 629.365 329.112 629.797 328.92L629.749 327.784C629.413 327.96 629.013 328.04 628.645 328.04C627.541 328.04 627.525 327.272 627.525 326.312V322.568H629.733V321.512ZM630.83 325.256C630.83 327.592 632.526 329.192 634.83 329.192C637.134 329.192 638.83 327.592 638.83 325.256C638.83 322.92 637.134 321.32 634.83 321.32C632.526 321.32 630.83 322.92 630.83 325.256ZM632.174 325.256C632.174 323.688 633.214 322.472 634.83 322.472C636.446 322.472 637.486 323.688 637.486 325.256C637.486 326.824 636.446 328.04 634.83 328.04C633.214 328.04 632.174 326.824 632.174 325.256ZM640.762 329H642.01V325.352C642.01 323.64 642.714 322.472 644.33 322.472C645.498 322.472 646.042 323.256 646.042 324.504V329H647.29V324.376C647.29 322.568 646.41 321.32 644.442 321.32C643.21 321.32 642.282 322.008 641.946 322.744H641.914C641.914 322.328 641.882 321.912 641.882 321.512H640.698C640.698 322.008 640.762 322.6 640.762 323.288V329ZM654.794 323.288C655.386 322.744 656.218 322.472 657.018 322.472C658.186 322.472 658.874 323.032 658.874 324.12V324.344H658.394C656.554 324.344 653.674 324.488 653.674 326.968C653.674 328.424 654.938 329.192 656.458 329.192C657.594 329.192 658.426 328.648 658.922 327.88H658.954C658.954 328.2 658.954 328.664 659.034 329H660.234C660.17 328.616 660.122 328.136 660.122 327.704V324.488C660.122 322.376 659.194 321.32 656.986 321.32C655.898 321.32 654.778 321.688 654.01 322.472L654.794 323.288ZM658.874 325.4V325.88C658.842 327.096 658.106 328.136 656.666 328.136C655.722 328.136 655.018 327.784 655.018 326.84C655.018 325.832 656.042 325.4 657.626 325.4H658.874ZM666.499 321.512H664.291V319.384H663.043V321.512H661.411V322.568H663.043V326.68C663.043 328.232 663.331 329.192 665.107 329.192C665.571 329.192 666.131 329.112 666.563 328.92L666.515 327.784C666.179 327.96 665.779 328.04 665.411 328.04C664.307 328.04 664.291 327.272 664.291 326.312V322.568H666.499V321.512ZM672.417 332.648H673.665V327.672H673.697C674.161 328.52 675.233 329.192 676.577 329.192C678.673 329.192 680.321 327.496 680.321 325.256C680.321 322.984 678.737 321.32 676.385 321.32C675.297 321.32 674.385 321.8 673.697 322.6H673.665V321.512H672.417V332.648ZM673.665 325.256C673.665 323.688 674.705 322.472 676.321 322.472C677.937 322.472 678.977 323.688 678.977 325.256C678.977 326.824 677.937 328.04 676.321 328.04C674.705 328.04 673.665 326.824 673.665 325.256ZM682.95 323.288C683.542 322.744 684.374 322.472 685.174 322.472C686.342 322.472 687.03 323.032 687.03 324.12V324.344H686.55C684.71 324.344 681.83 324.488 681.83 326.968C681.83 328.424 683.094 329.192 684.614 329.192C685.75 329.192 686.582 328.648 687.078 327.88H687.11C687.11 328.2 687.11 328.664 687.19 329H688.39C688.326 328.616 688.278 328.136 688.278 327.704V324.488C688.278 322.376 687.35 321.32 685.142 321.32C684.054 321.32 682.934 321.688 682.166 322.472L682.95 323.288ZM687.03 325.4V325.88C686.998 327.096 686.262 328.136 684.822 328.136C683.878 328.136 683.174 327.784 683.174 326.84C683.174 325.832 684.198 325.4 685.782 325.4H687.03ZM698.031 321.512H696.783V322.792H696.751C696.255 321.8 695.119 321.32 694.111 321.32C691.727 321.32 690.127 322.808 690.127 325.256C690.127 327.464 691.759 329.096 694.111 329.096C695.103 329.096 696.159 328.664 696.751 327.704H696.783V328.664C696.783 330.248 696.191 331.688 693.951 331.688C692.799 331.688 691.951 331.24 691.167 330.392L690.271 331.416C691.327 332.456 692.495 332.84 693.951 332.84C696.575 332.84 698.031 331.368 698.031 328.664V321.512ZM691.471 325.256C691.471 323.688 692.543 322.472 694.111 322.472C695.695 322.472 696.783 323.608 696.783 325.224C696.783 326.664 695.823 327.944 694.111 327.944C692.655 327.944 691.471 326.776 691.471 325.256ZM706.084 326.904C705.492 327.656 704.772 328.04 703.7 328.04C702.34 328.04 701.348 326.936 701.252 325.64H707.3V325.24C707.3 322.76 705.86 321.32 703.748 321.32C701.54 321.32 699.908 322.936 699.908 325.256C699.908 327.432 701.348 329.192 703.7 329.192C705.092 329.192 706.148 328.776 707.028 327.64L706.084 326.904ZM701.252 324.584C701.412 323.32 702.324 322.472 703.7 322.472C705.076 322.472 705.908 323.32 705.956 324.584H701.252ZM713.796 329H715.044V316.904H713.796V329ZM723.272 326.904C722.68 327.656 721.96 328.04 720.888 328.04C719.528 328.04 718.536 326.936 718.44 325.64H724.488V325.24C724.488 322.76 723.048 321.32 720.936 321.32C718.728 321.32 717.096 322.936 717.096 325.256C717.096 327.432 718.536 329.192 720.888 329.192C722.28 329.192 723.336 328.776 724.216 327.64L723.272 326.904ZM718.44 324.584C718.6 323.32 719.512 322.472 720.888 322.472C722.264 322.472 723.096 323.32 723.144 324.584H718.44ZM732.786 321.512H731.442L729.218 327.384H729.186L726.85 321.512H725.394L728.45 329H729.826L732.786 321.512ZM739.881 326.904C739.289 327.656 738.569 328.04 737.497 328.04C736.137 328.04 735.145 326.936 735.049 325.64H741.097V325.24C741.097 322.76 739.657 321.32 737.545 321.32C735.337 321.32 733.705 322.936 733.705 325.256C733.705 327.432 735.145 329.192 737.497 329.192C738.889 329.192 739.945 328.776 740.825 327.64L739.881 326.904ZM735.049 324.584C735.209 323.32 736.121 322.472 737.497 322.472C738.873 322.472 739.705 323.32 739.753 324.584H735.049ZM743.14 329H744.388V316.904H743.14V329ZM747.912 327.176C747.384 327.176 746.952 327.608 746.952 328.136C746.952 328.664 747.416 329.096 747.912 329.096C748.408 329.096 748.872 328.664 748.872 328.136C748.872 327.608 748.44 327.176 747.912 327.176Z" fill="black"/>
<defs>
<filter id="filter0_dd_126_26714" x="22" y="20" width="468" height="290" filterUnits="userSpaceOnUse" color-interpolation-filters="sRGB">
<feFlood flood-opacity="0" result="BackgroundImageFix"/>
<feColorMatrix in="SourceAlpha" type="matrix" values="0 0 0 0 0 0 0 0 0 0 0 0 0 0 0 0 0 0 127 0" result="hardAlpha"/>
<feOffset dy="2"/>
<feGaussianBlur stdDeviation="2"/>
<feColorMatrix type="matrix" values="0 0 0 0 0 0 0 0 0 0 0 0 0 0 0 0 0 0 0.1 0"/>
<feBlend mode="normal" in2="BackgroundImageFix" result="effect1_dropShadow_126_26714"/>
<feColorMatrix in="SourceAlpha" type="matrix" values="0 0 0 0 0 0 0 0 0 0 0 0 0 0 0 0 0 0 127 0" result="hardAlpha"/>
<feOffset dy="1"/>
<feGaussianBlur stdDeviation="5"/>
<feComposite in2="hardAlpha" operator="out"/>
<feColorMatrix type="matrix" values="0 0 0 0 0 0 0 0 0 0 0 0 0 0 0 0 0 0 0.12 0"/>
<feBlend mode="normal" in2="effect1_dropShadow_126_26714" result="effect2_dropShadow_126_26714"/>
<feBlend mode="normal" in="SourceGraphic" in2="effect2_dropShadow_126_26714" result="shape"/>
</filter>
<filter id="filter1_dd_126_26714" x="490" y="20" width="468" height="290" filterUnits="userSpaceOnUse" color-interpolation-filters="sRGB">
<feFlood flood-opacity="0" result="BackgroundImageFix"/>
<feColorMatrix in="SourceAlpha" type="matrix" values="0 0 0 0 0 0 0 0 0 0 0 0 0 0 0 0 0 0 127 0" result="hardAlpha"/>
<feOffset dy="2"/>
<feGaussianBlur stdDeviation="2"/>
<feColorMatrix type="matrix" values="0 0 0 0 0 0 0 0 0 0 0 0 0 0 0 0 0 0 0.1 0"/>
<feBlend mode="normal" in2="BackgroundImageFix" result="effect1_dropShadow_126_26714"/>
<feColorMatrix in="SourceAlpha" type="matrix" values="0 0 0 0 0 0 0 0 0 0 0 0 0 0 0 0 0 0 127 0" result="hardAlpha"/>
<feOffset dy="1"/>
<feGaussianBlur stdDeviation="5"/>
<feComposite in2="hardAlpha" operator="out"/>
<feColorMatrix type="matrix" values="0 0 0 0 0 0 0 0 0 0 0 0 0 0 0 0 0 0 0.12 0"/>
<feBlend mode="normal" in2="effect1_dropShadow_126_26714" result="effect2_dropShadow_126_26714"/>
<feBlend mode="normal" in="SourceGraphic" in2="effect2_dropShadow_126_26714" result="shape"/>
</filter>
<filter id="filter2_dd_126_26714" x="-1022" y="58" width="1940" height="1198" filterUnits="userSpaceOnUse" color-interpolation-filters="sRGB">
<feFlood flood-opacity="0" result="BackgroundImageFix"/>
<feColorMatrix in="SourceAlpha" type="matrix" values="0 0 0 0 0 0 0 0 0 0 0 0 0 0 0 0 0 0 127 0" result="hardAlpha"/>
<feOffset dy="2"/>
<feGaussianBlur stdDeviation="2"/>
<feColorMatrix type="matrix" values="0 0 0 0 0 0 0 0 0 0 0 0 0 0 0 0 0 0 0.1 0"/>
<feBlend mode="normal" in2="BackgroundImageFix" result="effect1_dropShadow_126_26714"/>
<feColorMatrix in="SourceAlpha" type="matrix" values="0 0 0 0 0 0 0 0 0 0 0 0 0 0 0 0 0 0 127 0" result="hardAlpha"/>
<feOffset dy="1"/>
<feGaussianBlur stdDeviation="5"/>
<feComposite in2="hardAlpha" operator="out"/>
<feColorMatrix type="matrix" values="0 0 0 0 0 0 0 0 0 0 0 0 0 0 0 0 0 0 0.12 0"/>
<feBlend mode="normal" in2="effect1_dropShadow_126_26714" result="effect2_dropShadow_126_26714"/>
<feBlend mode="normal" in="SourceGraphic" in2="effect2_dropShadow_126_26714" result="shape"/>
</filter>
<filter id="filter3_dd_126_26714" x="-1022" y="58" width="1940" height="1198" filterUnits="userSpaceOnUse" color-interpolation-filters="sRGB">
<feFlood flood-opacity="0" result="BackgroundImageFix"/>
<feColorMatrix in="SourceAlpha" type="matrix" values="0 0 0 0 0 0 0 0 0 0 0 0 0 0 0 0 0 0 127 0" result="hardAlpha"/>
<feOffset dy="2"/>
<feGaussianBlur stdDeviation="2"/>
<feColorMatrix type="matrix" values="0 0 0 0 0 0 0 0 0 0 0 0 0 0 0 0 0 0 0.1 0"/>
<feBlend mode="normal" in2="BackgroundImageFix" result="effect1_dropShadow_126_26714"/>
<feColorMatrix in="SourceAlpha" type="matrix" values="0 0 0 0 0 0 0 0 0 0 0 0 0 0 0 0 0 0 127 0" result="hardAlpha"/>
<feOffset dy="1"/>
<feGaussianBlur stdDeviation="5"/>
<feComposite in2="hardAlpha" operator="out"/>
<feColorMatrix type="matrix" values="0 0 0 0 0 0 0 0 0 0 0 0 0 0 0 0 0 0 0.12 0"/>
<feBlend mode="normal" in2="effect1_dropShadow_126_26714" result="effect2_dropShadow_126_26714"/>
<feBlend mode="normal" in="SourceGraphic" in2="effect2_dropShadow_126_26714" result="shape"/>
</filter>
<filter id="filter4_dd_126_26714" x="23" y="356" width="467" height="299" filterUnits="userSpaceOnUse" color-interpolation-filters="sRGB">
<feFlood flood-opacity="0" result="BackgroundImageFix"/>
<feColorMatrix in="SourceAlpha" type="matrix" values="0 0 0 0 0 0 0 0 0 0 0 0 0 0 0 0 0 0 127 0" result="hardAlpha"/>
<feOffset dy="2"/>
<feGaussianBlur stdDeviation="2"/>
<feColorMatrix type="matrix" values="0 0 0 0 0 0 0 0 0 0 0 0 0 0 0 0 0 0 0.1 0"/>
<feBlend mode="normal" in2="BackgroundImageFix" result="effect1_dropShadow_126_26714"/>
<feColorMatrix in="SourceAlpha" type="matrix" values="0 0 0 0 0 0 0 0 0 0 0 0 0 0 0 0 0 0 127 0" result="hardAlpha"/>
<feOffset dy="1"/>
<feGaussianBlur stdDeviation="5"/>
<feComposite in2="hardAlpha" operator="out"/>
<feColorMatrix type="matrix" values="0 0 0 0 0 0 0 0 0 0 0 0 0 0 0 0 0 0 0.12 0"/>
<feBlend mode="normal" in2="effect1_dropShadow_126_26714" result="effect2_dropShadow_126_26714"/>
<feBlend mode="normal" in="SourceGraphic" in2="effect2_dropShadow_126_26714" result="shape"/>
</filter>
<clipPath id="clip0_126_26714">
<rect x="500" y="29" width="448" height="270" rx="12" fill="white"/>
</clipPath>
<clipPath id="clip1_126_26714">
<rect width="1920" height="1178" fill="white" transform="translate(-1012 67)"/>
</clipPath>
<clipPath id="clip2_126_26714">
<rect width="1920" height="1178" fill="white" transform="translate(-1012 67)"/>
</clipPath>
</defs>
</svg>
