<svg width="952" height="237" viewBox="0 0 952 237" fill="none" xmlns="http://www.w3.org/2000/svg">
<rect width="952" height="225" fill="white"/>
<mask id="path-1-inside-1_258_34198" fill="white">
<path d="M0 0H952V88H0V0Z"/>
</mask>
<path d="M0 0H952V88H0V0Z" fill="white"/>
<path d="M66.304 52H71.296V43.168H74.944C79.712 43.168 83.328 41.536 83.328 36.224C83.328 30.848 79.424 29.344 74.72 29.344H66.304V52ZM71.296 33.568H73.856C75.776 33.568 78.144 33.888 78.144 36.224C78.144 38.336 76.384 38.944 74.624 38.944H71.296V33.568ZM95.6123 52H100.028V44.096C100.028 38.912 98.5243 36.064 92.9243 36.064C90.3963 36.064 87.8363 36.896 86.0763 38.56L88.6363 41.184C89.6603 40.032 90.9723 39.328 92.5403 39.328C94.2043 39.328 95.6123 40.416 95.6123 42.112C91.6123 42.112 85.0843 42.208 85.0843 47.584C85.0843 50.72 87.7083 52.384 90.6203 52.384C92.5723 52.384 94.4923 51.712 95.5483 50.048H95.6123V52ZM95.6123 45.184V46.208C95.6123 48.128 93.8523 49.12 91.9643 49.12C90.9083 49.12 89.6923 48.576 89.6923 47.424C89.6923 45.312 92.9563 45.184 94.4283 45.184H95.6123ZM119.36 36.448H114.944V38.496H114.88C114.144 37.376 112.288 36.064 109.568 36.064C105.152 36.064 102.464 40.032 102.464 44.16C102.464 48.864 105.504 52.192 110.112 52.192C111.552 52.192 113.408 51.648 114.496 50.144H114.56V51.648C114.56 53.856 113.184 55.456 110.272 55.456C108.32 55.456 106.688 54.688 105.216 53.44L102.56 57.408C104.8 59.2 107.616 59.68 110.368 59.68C116.384 59.68 119.36 56.544 119.36 50.688V36.448ZM107.264 44.128C107.264 42.112 108.928 40.288 111.104 40.288C113.28 40.288 114.944 42.112 114.944 44.128C114.944 46.144 113.28 47.968 111.104 47.968C108.928 47.968 107.264 46.144 107.264 44.128ZM134.556 46.848C133.756 47.936 132.7 48.736 131.132 48.736C129.276 48.736 127.9 47.552 127.516 45.728H138.652V44.224C138.652 39.264 135.836 36.064 131.356 36.064C126.556 36.064 122.716 39.264 122.716 44.224C122.716 49.184 126.556 52.384 131.356 52.384C133.852 52.384 136.38 51.264 137.916 49.312L134.556 46.848ZM127.516 42.464C127.644 40.96 128.796 39.52 130.908 39.52C132.636 39.52 133.884 40.864 133.852 42.464H127.516ZM151.04 27.808V52H155.84V44.256C155.84 42.24 156.224 40.288 158.72 40.288C161.184 40.288 161.216 42.592 161.216 44.384V52H166.016V43.424C166.016 39.264 165.12 36.064 160.256 36.064C157.92 36.064 156.352 37.344 155.904 38.56H155.84V27.808H151.04ZM180.775 46.848C179.975 47.936 178.919 48.736 177.351 48.736C175.495 48.736 174.119 47.552 173.735 45.728H184.871V44.224C184.871 39.264 182.055 36.064 177.575 36.064C172.775 36.064 168.935 39.264 168.935 44.224C168.935 49.184 172.775 52.384 177.575 52.384C180.071 52.384 182.599 51.264 184.135 49.312L180.775 46.848ZM173.735 42.464C173.863 40.96 175.015 39.52 177.127 39.52C178.855 39.52 180.103 40.864 180.071 42.464H173.735ZM197.55 52H201.966V44.096C201.966 38.912 200.462 36.064 194.862 36.064C192.334 36.064 189.774 36.896 188.014 38.56L190.574 41.184C191.598 40.032 192.91 39.328 194.478 39.328C196.142 39.328 197.55 40.416 197.55 42.112C193.55 42.112 187.022 42.208 187.022 47.584C187.022 50.72 189.646 52.384 192.558 52.384C194.51 52.384 196.43 51.712 197.486 50.048H197.55V52ZM197.55 45.184V46.208C197.55 48.128 195.79 49.12 193.902 49.12C192.846 49.12 191.63 48.576 191.63 47.424C191.63 45.312 194.894 45.184 196.366 45.184H197.55ZM221.297 27.808H216.497V38.112H216.433C215.345 36.608 213.489 36.064 211.505 36.064C207.089 36.064 204.401 40.032 204.401 44.352C204.401 49.056 207.441 52.384 212.049 52.384C214.225 52.384 216.081 51.072 216.817 49.952H216.881V52H221.297V27.808ZM216.881 44.224C216.881 46.56 215.441 48.16 213.041 48.16C210.641 48.16 209.201 46.56 209.201 44.224C209.201 41.888 210.641 40.288 213.041 40.288C215.441 40.288 216.881 41.888 216.881 44.224ZM225.198 52H229.998V36.448H225.198V52ZM224.814 31.552C224.814 33.088 226.062 34.336 227.598 34.336C229.134 34.336 230.382 33.088 230.382 31.552C230.382 30.016 229.134 28.768 227.598 28.768C226.062 28.768 224.814 30.016 224.814 31.552ZM233.446 52H238.246V44.256C238.246 42.24 238.63 40.288 241.126 40.288C243.59 40.288 243.622 42.592 243.622 44.384V52H248.422V43.424C248.422 39.264 247.526 36.064 242.662 36.064C240.326 36.064 238.758 37.344 238.118 38.56H238.054V36.448H233.446V52ZM268.141 36.448H263.725V38.496H263.661C262.925 37.376 261.069 36.064 258.349 36.064C253.933 36.064 251.245 40.032 251.245 44.16C251.245 48.864 254.285 52.192 258.893 52.192C260.333 52.192 262.189 51.648 263.277 50.144H263.341V51.648C263.341 53.856 261.965 55.456 259.053 55.456C257.101 55.456 255.469 54.688 253.997 53.44L251.341 57.408C253.581 59.2 256.397 59.68 259.149 59.68C265.165 59.68 268.141 56.544 268.141 50.688V36.448ZM256.045 44.128C256.045 42.112 257.709 40.288 259.885 40.288C262.061 40.288 263.725 42.112 263.725 44.128C263.725 46.144 262.061 47.968 259.885 47.968C257.709 47.968 256.045 46.144 256.045 44.128Z" fill="#502252"/>
<g clip-path="url(#clip0_258_34198)">
<rect width="133" height="36" transform="translate(719 26)" fill="#6C3078"/>
<path d="M740.106 47.5H743.802C746.182 47.5 749.052 45.932 749.052 42.544C749.052 39.184 746.616 37.588 744.012 37.588H740.106V47.5ZM741.87 45.904V39.184H743.48C745.636 39.184 747.204 40.136 747.204 42.544C747.204 44.952 745.398 45.904 743.186 45.904H741.87ZM757.043 44.728V44.266C757.043 41.928 755.769 40.612 753.893 40.612C751.863 40.612 750.239 42.026 750.239 44.14C750.239 46.254 751.863 47.668 753.893 47.668C754.957 47.668 755.951 47.29 756.735 46.324L755.531 45.414C755.111 45.932 754.565 46.324 753.725 46.324C752.787 46.324 752.031 45.722 751.919 44.728H757.043ZM751.919 43.468C752.045 42.502 752.661 41.872 753.655 41.872C754.705 41.872 755.349 42.488 755.363 43.468H751.919ZM759.216 47.5H760.896V42.208H762.45V40.78H760.896V39.562C760.896 38.82 761.036 38.176 761.974 38.176C762.212 38.176 762.436 38.218 762.674 38.274L762.786 36.846C762.436 36.776 762.086 36.748 761.722 36.748C759.636 36.748 759.216 37.966 759.216 39.828V40.78H757.83V42.208H759.216V47.5ZM767.736 47.5H769.248V43.636C769.248 42.684 769.248 40.612 766.378 40.612C765.314 40.612 764.264 40.934 763.522 41.69L764.404 42.572C764.852 42.152 765.496 41.872 766.196 41.872C767.092 41.872 767.736 42.306 767.736 43.132V43.314H767.316C765.636 43.314 763.088 43.468 763.088 45.652C763.088 46.982 764.292 47.668 765.538 47.668C766.434 47.668 767.218 47.332 767.694 46.576H767.736V47.5ZM767.638 44.868C767.638 45.806 767.092 46.408 765.944 46.408C765.398 46.408 764.768 46.142 764.768 45.526C764.768 44.56 766.364 44.49 767.288 44.49H767.638V44.868ZM777.188 40.78H775.508V44.448C775.508 45.344 775.074 46.156 773.968 46.156C772.792 46.156 772.736 44.924 772.736 44.182V40.78H771.056V45.022C771.056 46.394 771.7 47.668 773.506 47.668C774.626 47.668 775.256 47.094 775.564 46.422H775.592V47.5H777.188V40.78ZM779.123 47.5H780.803V36.916H779.123V47.5ZM783.333 42.208V45.288C783.333 46.87 783.753 47.668 785.531 47.668C785.923 47.668 786.511 47.612 786.861 47.444V46.03C786.651 46.184 786.245 46.24 785.951 46.24C785.209 46.24 785.013 45.82 785.013 45.148V42.208H786.861V40.78H785.013V38.834H783.333V40.78H781.947V42.208H783.333ZM796.515 47.5H798.027V43.636C798.027 42.684 798.027 40.612 795.157 40.612C794.093 40.612 793.043 40.934 792.301 41.69L793.183 42.572C793.631 42.152 794.275 41.872 794.975 41.872C795.871 41.872 796.515 42.306 796.515 43.132V43.314H796.095C794.415 43.314 791.867 43.468 791.867 45.652C791.867 46.982 793.071 47.668 794.317 47.668C795.213 47.668 795.997 47.332 796.473 46.576H796.515V47.5ZM796.417 44.868C796.417 45.806 795.871 46.408 794.723 46.408C794.177 46.408 793.547 46.142 793.547 45.526C793.547 44.56 795.143 44.49 796.067 44.49H796.417V44.868ZM805.589 41.634C804.945 40.92 804.007 40.612 803.153 40.612C801.123 40.612 799.499 42.026 799.499 44.14C799.499 46.254 801.123 47.668 803.153 47.668C803.741 47.668 804.889 47.416 805.575 46.73L804.455 45.526C804.147 45.932 803.671 46.156 803.153 46.156C801.921 46.156 801.179 45.19 801.179 44.14C801.179 43.09 801.921 42.124 803.153 42.124C803.601 42.124 804.035 42.39 804.427 42.796L805.589 41.634ZM807.191 42.208V45.288C807.191 46.87 807.611 47.668 809.389 47.668C809.781 47.668 810.369 47.612 810.719 47.444V46.03C810.509 46.184 810.103 46.24 809.809 46.24C809.067 46.24 808.871 45.82 808.871 45.148V42.208H810.719V40.78H808.871V38.834H807.191V40.78H805.805V42.208H807.191ZM812.058 47.5H813.738V40.78H812.058V47.5ZM811.82 38.498C811.82 39.03 812.268 39.506 812.884 39.506C813.5 39.506 813.976 39.072 813.976 38.498C813.976 37.924 813.5 37.49 812.884 37.49C812.268 37.49 811.82 37.966 811.82 38.498ZM815.331 44.14C815.331 46.254 816.955 47.668 818.985 47.668C821.015 47.668 822.639 46.254 822.639 44.14C822.639 42.026 821.015 40.612 818.985 40.612C816.955 40.612 815.331 42.026 815.331 44.14ZM817.011 44.14C817.011 43.09 817.753 42.124 818.985 42.124C820.217 42.124 820.959 43.09 820.959 44.14C820.959 45.19 820.217 46.156 818.985 46.156C817.753 46.156 817.011 45.19 817.011 44.14ZM824.212 47.5H825.892V43.832C825.892 42.936 826.326 42.124 827.432 42.124C828.608 42.124 828.664 43.356 828.664 44.098V47.5H830.344V43.258C830.344 41.886 829.7 40.612 827.894 40.612C826.774 40.612 826.144 41.186 825.836 41.858H825.808V40.78H824.212V47.5Z" fill="white"/>
<rect width="36" height="36" transform="translate(852 26)" fill="#502252"/>
<path d="M870 46.1684C869.935 46.1687 869.87 46.1559 869.809 46.1307C869.748 46.1055 869.693 46.0685 869.647 46.0217L866.314 42.6884C866.247 42.5911 866.217 42.4735 866.229 42.3563C866.241 42.2391 866.294 42.1298 866.378 42.0477C866.463 41.9656 866.573 41.9159 866.691 41.9075C866.808 41.8991 866.925 41.9325 867.02 42.0017L870 44.9617L872.98 42.0017C873.074 41.9408 873.186 41.9132 873.298 41.9233C873.409 41.9334 873.514 41.9807 873.596 42.0576C873.677 42.1344 873.73 42.2364 873.747 42.3472C873.764 42.4579 873.742 42.571 873.687 42.6684L870.354 46.0017C870.309 46.0521 870.255 46.0929 870.194 46.1215C870.134 46.1502 870.068 46.1661 870 46.1684V46.1684Z" fill="white"/>
</g>
<path d="M952 87H0V89H952V87Z" fill="#D2D6DD" mask="url(#path-1-inside-1_258_34198)"/>
<g filter="url(#filter0_dd_258_34198)">
<g clip-path="url(#clip1_258_34198)">
<rect width="200" height="40" transform="translate(719 65)" fill="white"/>
<path d="M747 94C745.22 94 743.48 93.4722 742 92.4832C740.52 91.4943 739.366 90.0887 738.685 88.4442C738.004 86.7996 737.826 84.99 738.173 83.2442C738.52 81.4984 739.377 79.8947 740.636 78.636C741.895 77.3774 743.498 76.5202 745.244 76.1729C746.99 75.8257 748.8 76.0039 750.444 76.6851C752.089 77.3663 753.494 78.5198 754.483 79.9999C755.472 81.4799 756 83.22 756 85C756 87.387 755.052 89.6761 753.364 91.364C751.676 93.0518 749.387 94 747 94V94ZM747 77.5C745.517 77.5 744.067 77.9399 742.833 78.764C741.6 79.5881 740.639 80.7594 740.071 82.1299C739.503 83.5003 739.355 85.0083 739.644 86.4632C739.934 87.918 740.648 89.2544 741.697 90.3033C742.746 91.3522 744.082 92.0665 745.537 92.3559C746.992 92.6453 748.5 92.4968 749.87 91.9291C751.241 91.3614 752.412 90.4001 753.236 89.1668C754.06 87.9334 754.5 86.4834 754.5 85C754.5 83.0109 753.71 81.1032 752.303 79.6967C750.897 78.2902 748.989 77.5 747 77.5Z" fill="#6B778C"/>
<path d="M767.096 89H768.616L769.784 86.216H775.448L776.6 89H778.168L773.352 77.672H772.088L767.096 89ZM774.936 84.968H770.312L772.664 79.4H772.696L774.936 84.968ZM785.77 82.504C785.018 81.688 783.994 81.32 782.89 81.32C780.586 81.32 779.018 82.984 779.018 85.256C779.018 87.56 780.57 89.192 782.89 89.192C783.978 89.192 785.002 88.824 785.722 87.992L784.794 87.112C784.33 87.752 783.706 88.04 782.89 88.04C781.37 88.04 780.362 86.792 780.362 85.256C780.362 83.72 781.21 82.472 782.89 82.472C783.642 82.472 784.25 82.744 784.778 83.384L785.77 82.504ZM791.264 81.512H789.056V79.384H787.808V81.512H786.176V82.568H787.808V86.68C787.808 88.232 788.096 89.192 789.872 89.192C790.336 89.192 790.896 89.112 791.328 88.92L791.28 87.784C790.944 87.96 790.544 88.04 790.176 88.04C789.072 88.04 789.056 87.272 789.056 86.312V82.568H791.264V81.512ZM792.905 89H794.153V81.512H792.905V89ZM792.617 78.584C792.617 79.112 793.001 79.496 793.529 79.496C794.057 79.496 794.441 79.112 794.441 78.584C794.441 78.088 794.041 77.672 793.529 77.672C793.017 77.672 792.617 78.088 792.617 78.584ZM796.205 85.256C796.205 87.592 797.901 89.192 800.205 89.192C802.509 89.192 804.205 87.592 804.205 85.256C804.205 82.92 802.509 81.32 800.205 81.32C797.901 81.32 796.205 82.92 796.205 85.256ZM797.549 85.256C797.549 83.688 798.589 82.472 800.205 82.472C801.821 82.472 802.861 83.688 802.861 85.256C802.861 86.824 801.821 88.04 800.205 88.04C798.589 88.04 797.549 86.824 797.549 85.256ZM806.137 89H807.385V85.352C807.385 83.64 808.089 82.472 809.705 82.472C810.873 82.472 811.417 83.256 811.417 84.504V89H812.665V84.376C812.665 82.568 811.785 81.32 809.817 81.32C808.585 81.32 807.657 82.008 807.321 82.744H807.289C807.289 82.328 807.257 81.912 807.257 81.512H806.073C806.073 82.008 806.137 82.6 806.137 83.288V89ZM824.057 77.672H822.889L819.849 80.136L820.649 81.112L822.681 79.4H822.713V89H824.057V77.672Z" fill="#333333"/>
<path d="M893.667 88.8339C893.601 88.8342 893.536 88.8214 893.475 88.7962C893.414 88.771 893.359 88.734 893.313 88.6872C893.22 88.5935 893.167 88.4664 893.167 88.3339C893.167 88.2014 893.22 88.0743 893.313 87.9805L896.293 85.0005L893.313 82.0205C893.225 81.9258 893.177 81.8004 893.179 81.6709C893.181 81.5413 893.234 81.4177 893.325 81.3261C893.417 81.2345 893.541 81.1821 893.67 81.1798C893.8 81.1775 893.925 81.2256 894.02 81.3139L897.353 84.6472C897.447 84.741 897.499 84.868 897.499 85.0005C897.499 85.133 897.447 85.2601 897.353 85.3539L894.02 88.6872C893.974 88.734 893.919 88.771 893.858 88.7962C893.797 88.8214 893.732 88.8342 893.667 88.8339V88.8339Z" fill="#6B778C"/>
<rect width="200" height="40" transform="translate(719 105)" fill="#E6E6E6"/>
<path d="M747 134C745.22 134 743.48 133.472 742 132.483C740.52 131.494 739.366 130.089 738.685 128.444C738.004 126.8 737.826 124.99 738.173 123.244C738.52 121.498 739.377 119.895 740.636 118.636C741.895 117.377 743.498 116.52 745.244 116.173C746.99 115.826 748.8 116.004 750.444 116.685C752.089 117.366 753.494 118.52 754.483 120C755.472 121.48 756 123.22 756 125C756 127.387 755.052 129.676 753.364 131.364C751.676 133.052 749.387 134 747 134V134ZM747 117.5C745.517 117.5 744.067 117.94 742.833 118.764C741.6 119.588 740.639 120.759 740.071 122.13C739.503 123.5 739.355 125.008 739.644 126.463C739.934 127.918 740.648 129.254 741.697 130.303C742.746 131.352 744.082 132.067 745.537 132.356C746.992 132.645 748.5 132.497 749.87 131.929C751.241 131.361 752.412 130.4 753.236 129.167C754.06 127.933 754.5 126.483 754.5 125C754.5 123.011 753.71 121.103 752.303 119.697C750.897 118.29 748.989 117.5 747 117.5Z" fill="#6B778C"/>
<path d="M767.096 129H768.616L769.784 126.216H775.448L776.6 129H778.168L773.352 117.672H772.088L767.096 129ZM774.936 124.968H770.312L772.664 119.4H772.696L774.936 124.968ZM785.77 122.504C785.018 121.688 783.994 121.32 782.89 121.32C780.586 121.32 779.018 122.984 779.018 125.256C779.018 127.56 780.57 129.192 782.89 129.192C783.978 129.192 785.002 128.824 785.722 127.992L784.794 127.112C784.33 127.752 783.706 128.04 782.89 128.04C781.37 128.04 780.362 126.792 780.362 125.256C780.362 123.72 781.21 122.472 782.89 122.472C783.642 122.472 784.25 122.744 784.778 123.384L785.77 122.504ZM791.264 121.512H789.056V119.384H787.808V121.512H786.176V122.568H787.808V126.68C787.808 128.232 788.096 129.192 789.872 129.192C790.336 129.192 790.896 129.112 791.328 128.92L791.28 127.784C790.944 127.96 790.544 128.04 790.176 128.04C789.072 128.04 789.056 127.272 789.056 126.312V122.568H791.264V121.512ZM792.905 129H794.153V121.512H792.905V129ZM792.617 118.584C792.617 119.112 793.001 119.496 793.529 119.496C794.057 119.496 794.441 119.112 794.441 118.584C794.441 118.088 794.041 117.672 793.529 117.672C793.017 117.672 792.617 118.088 792.617 118.584ZM796.205 125.256C796.205 127.592 797.901 129.192 800.205 129.192C802.509 129.192 804.205 127.592 804.205 125.256C804.205 122.92 802.509 121.32 800.205 121.32C797.901 121.32 796.205 122.92 796.205 125.256ZM797.549 125.256C797.549 123.688 798.589 122.472 800.205 122.472C801.821 122.472 802.861 123.688 802.861 125.256C802.861 126.824 801.821 128.04 800.205 128.04C798.589 128.04 797.549 126.824 797.549 125.256ZM806.137 129H807.385V125.352C807.385 123.64 808.089 122.472 809.705 122.472C810.873 122.472 811.417 123.256 811.417 124.504V129H812.665V124.376C812.665 122.568 811.785 121.32 809.817 121.32C808.585 121.32 807.657 122.008 807.321 122.744H807.289C807.289 122.328 807.257 121.912 807.257 121.512H806.073C806.073 122.008 806.137 122.6 806.137 123.288V129ZM819.097 129H826.393V127.752H820.617V127.72L824.105 124.44C825.241 123.368 826.313 122.36 826.313 120.552C826.313 118.536 824.729 117.48 822.857 117.48C821.033 117.48 819.609 118.456 819.305 120.312L820.761 120.44C820.969 119.352 821.769 118.632 822.905 118.632C824.041 118.632 824.969 119.368 824.969 120.552C824.969 121.656 824.441 122.264 823.369 123.304L819.097 127.464V129Z" fill="#333333"/>
<path d="M893.667 128.834C893.601 128.834 893.536 128.821 893.475 128.796C893.414 128.771 893.359 128.734 893.313 128.687C893.22 128.593 893.167 128.466 893.167 128.334C893.167 128.201 893.22 128.074 893.313 127.981L896.293 125.001L893.313 122.021C893.225 121.926 893.177 121.8 893.179 121.671C893.181 121.541 893.234 121.418 893.325 121.326C893.417 121.235 893.541 121.182 893.67 121.18C893.8 121.177 893.925 121.226 894.02 121.314L897.353 124.647C897.447 124.741 897.499 124.868 897.499 125.001C897.499 125.133 897.447 125.26 897.353 125.354L894.02 128.687C893.974 128.734 893.919 128.771 893.858 128.796C893.797 128.821 893.732 128.834 893.667 128.834V128.834Z" fill="#6B778C"/>
<rect width="200" height="40" transform="translate(719 145)" fill="white"/>
<path d="M747 174C745.22 174 743.48 173.472 742 172.483C740.52 171.494 739.366 170.089 738.685 168.444C738.004 166.8 737.826 164.99 738.173 163.244C738.52 161.498 739.377 159.895 740.636 158.636C741.895 157.377 743.498 156.52 745.244 156.173C746.99 155.826 748.8 156.004 750.444 156.685C752.089 157.366 753.494 158.52 754.483 160C755.472 161.48 756 163.22 756 165C756 167.387 755.052 169.676 753.364 171.364C751.676 173.052 749.387 174 747 174V174ZM747 157.5C745.517 157.5 744.067 157.94 742.833 158.764C741.6 159.588 740.639 160.759 740.071 162.13C739.503 163.5 739.355 165.008 739.644 166.463C739.934 167.918 740.648 169.254 741.697 170.303C742.746 171.352 744.082 172.067 745.537 172.356C746.992 172.645 748.5 172.497 749.87 171.929C751.241 171.361 752.412 170.4 753.236 169.167C754.06 167.933 754.5 166.483 754.5 165C754.5 163.011 753.71 161.103 752.303 159.697C750.897 158.29 748.989 157.5 747 157.5Z" fill="#6B778C"/>
<path d="M767.096 169H768.616L769.784 166.216H775.448L776.6 169H778.168L773.352 157.672H772.088L767.096 169ZM774.936 164.968H770.312L772.664 159.4H772.696L774.936 164.968ZM785.77 162.504C785.018 161.688 783.994 161.32 782.89 161.32C780.586 161.32 779.018 162.984 779.018 165.256C779.018 167.56 780.57 169.192 782.89 169.192C783.978 169.192 785.002 168.824 785.722 167.992L784.794 167.112C784.33 167.752 783.706 168.04 782.89 168.04C781.37 168.04 780.362 166.792 780.362 165.256C780.362 163.72 781.21 162.472 782.89 162.472C783.642 162.472 784.25 162.744 784.778 163.384L785.77 162.504ZM791.264 161.512H789.056V159.384H787.808V161.512H786.176V162.568H787.808V166.68C787.808 168.232 788.096 169.192 789.872 169.192C790.336 169.192 790.896 169.112 791.328 168.92L791.28 167.784C790.944 167.96 790.544 168.04 790.176 168.04C789.072 168.04 789.056 167.272 789.056 166.312V162.568H791.264V161.512ZM792.905 169H794.153V161.512H792.905V169ZM792.617 158.584C792.617 159.112 793.001 159.496 793.529 159.496C794.057 159.496 794.441 159.112 794.441 158.584C794.441 158.088 794.041 157.672 793.529 157.672C793.017 157.672 792.617 158.088 792.617 158.584ZM796.205 165.256C796.205 167.592 797.901 169.192 800.205 169.192C802.509 169.192 804.205 167.592 804.205 165.256C804.205 162.92 802.509 161.32 800.205 161.32C797.901 161.32 796.205 162.92 796.205 165.256ZM797.549 165.256C797.549 163.688 798.589 162.472 800.205 162.472C801.821 162.472 802.861 163.688 802.861 165.256C802.861 166.824 801.821 168.04 800.205 168.04C798.589 168.04 797.549 166.824 797.549 165.256ZM806.137 169H807.385V165.352C807.385 163.64 808.089 162.472 809.705 162.472C810.873 162.472 811.417 163.256 811.417 164.504V169H812.665V164.376C812.665 162.568 811.785 161.32 809.817 161.32C808.585 161.32 807.657 162.008 807.321 162.744H807.289C807.289 162.328 807.257 161.912 807.257 161.512H806.073C806.073 162.008 806.137 162.6 806.137 163.288V169ZM821.561 163.624H821.977C823.369 163.624 824.841 164.152 824.841 165.816C824.841 167.128 823.817 168.04 822.537 168.04C821.289 168.04 820.633 167.576 820.249 166.36L818.889 166.808C819.465 168.488 820.825 169.192 822.537 169.192C824.553 169.192 826.281 168.072 826.281 165.912C826.281 164.488 825.401 163.304 823.961 163.064V163.032C825.097 162.68 825.897 161.624 825.897 160.44C825.897 158.488 824.329 157.48 822.521 157.48C821.081 157.48 819.785 158.12 819.241 159.4L820.537 159.896C820.937 159.064 821.673 158.632 822.617 158.632C823.753 158.632 824.553 159.352 824.553 160.504C824.553 162.216 823.097 162.472 821.977 162.472H821.561V163.624Z" fill="#333333"/>
<path d="M893.667 168.834C893.601 168.834 893.536 168.821 893.475 168.796C893.414 168.771 893.359 168.734 893.313 168.687C893.22 168.593 893.167 168.466 893.167 168.334C893.167 168.201 893.22 168.074 893.313 167.981L896.293 165.001L893.313 162.021C893.225 161.926 893.177 161.8 893.179 161.671C893.181 161.541 893.234 161.418 893.325 161.326C893.417 161.235 893.541 161.182 893.67 161.18C893.8 161.177 893.925 161.226 894.02 161.314L897.353 164.647C897.447 164.741 897.499 164.868 897.499 165.001C897.499 165.133 897.447 165.26 897.353 165.354L894.02 168.687C893.974 168.734 893.919 168.771 893.858 168.796C893.797 168.821 893.732 168.834 893.667 168.834V168.834Z" fill="#6B778C"/>
<line x1="719" y1="184.5" x2="919" y2="184.5" stroke="#D2D6DD"/>
<rect width="200" height="40" transform="translate(719 185)" fill="white"/>
<path d="M747 214C745.22 214 743.48 213.472 742 212.483C740.52 211.494 739.366 210.089 738.685 208.444C738.004 206.8 737.826 204.99 738.173 203.244C738.52 201.498 739.377 199.895 740.636 198.636C741.895 197.377 743.498 196.52 745.244 196.173C746.99 195.826 748.8 196.004 750.444 196.685C752.089 197.366 753.494 198.52 754.483 200C755.472 201.48 756 203.22 756 205C756 207.387 755.052 209.676 753.364 211.364C751.676 213.052 749.387 214 747 214V214ZM747 197.5C745.517 197.5 744.067 197.94 742.833 198.764C741.6 199.588 740.639 200.759 740.071 202.13C739.503 203.5 739.355 205.008 739.644 206.463C739.934 207.918 740.648 209.254 741.697 210.303C742.746 211.352 744.082 212.067 745.537 212.356C746.992 212.645 748.5 212.497 749.87 211.929C751.241 211.361 752.412 210.4 753.236 209.167C754.06 207.933 754.5 206.483 754.5 205C754.5 203.011 753.71 201.103 752.303 199.697C750.897 198.29 748.989 197.5 747 197.5Z" fill="#6B778C"/>
<path d="M767.096 209H768.616L769.784 206.216H775.448L776.6 209H778.168L773.352 197.672H772.088L767.096 209ZM774.936 204.968H770.312L772.664 199.4H772.696L774.936 204.968ZM785.77 202.504C785.018 201.688 783.994 201.32 782.89 201.32C780.586 201.32 779.018 202.984 779.018 205.256C779.018 207.56 780.57 209.192 782.89 209.192C783.978 209.192 785.002 208.824 785.722 207.992L784.794 207.112C784.33 207.752 783.706 208.04 782.89 208.04C781.37 208.04 780.362 206.792 780.362 205.256C780.362 203.72 781.21 202.472 782.89 202.472C783.642 202.472 784.25 202.744 784.778 203.384L785.77 202.504ZM791.264 201.512H789.056V199.384H787.808V201.512H786.176V202.568H787.808V206.68C787.808 208.232 788.096 209.192 789.872 209.192C790.336 209.192 790.896 209.112 791.328 208.92L791.28 207.784C790.944 207.96 790.544 208.04 790.176 208.04C789.072 208.04 789.056 207.272 789.056 206.312V202.568H791.264V201.512ZM792.905 209H794.153V201.512H792.905V209ZM792.617 198.584C792.617 199.112 793.001 199.496 793.529 199.496C794.057 199.496 794.441 199.112 794.441 198.584C794.441 198.088 794.041 197.672 793.529 197.672C793.017 197.672 792.617 198.088 792.617 198.584ZM796.205 205.256C796.205 207.592 797.901 209.192 800.205 209.192C802.509 209.192 804.205 207.592 804.205 205.256C804.205 202.92 802.509 201.32 800.205 201.32C797.901 201.32 796.205 202.92 796.205 205.256ZM797.549 205.256C797.549 203.688 798.589 202.472 800.205 202.472C801.821 202.472 802.861 203.688 802.861 205.256C802.861 206.824 801.821 208.04 800.205 208.04C798.589 208.04 797.549 206.824 797.549 205.256ZM806.137 209H807.385V205.352C807.385 203.64 808.089 202.472 809.705 202.472C810.873 202.472 811.417 203.256 811.417 204.504V209H812.665V204.376C812.665 202.568 811.785 201.32 809.817 201.32C808.585 201.32 807.657 202.008 807.321 202.744H807.289C807.289 202.328 807.257 201.912 807.257 201.512H806.073C806.073 202.008 806.137 202.6 806.137 203.288V209ZM825.881 197.672H819.945L819.833 203.56C820.505 203.16 821.369 202.856 822.137 202.856C823.721 202.856 824.937 203.768 824.937 205.432C824.937 207 823.865 208.04 822.505 208.04C821.545 208.04 820.777 207.464 820.393 206.616L819.049 207.128C819.657 208.376 820.681 209.192 822.393 209.192C824.601 209.192 826.281 207.688 826.281 205.432C826.281 203.304 824.841 201.704 822.665 201.704C822.201 201.704 821.641 201.768 821.209 201.976L821.257 198.92H825.881V197.672Z" fill="#333333"/>
<path d="M893.667 208.834C893.601 208.834 893.536 208.821 893.475 208.796C893.414 208.771 893.359 208.734 893.313 208.687C893.22 208.593 893.167 208.466 893.167 208.334C893.167 208.201 893.22 208.074 893.313 207.981L896.293 205.001L893.313 202.021C893.225 201.926 893.177 201.8 893.179 201.671C893.181 201.541 893.234 201.418 893.325 201.326C893.417 201.235 893.541 201.182 893.67 201.18C893.8 201.177 893.925 201.226 894.02 201.314L897.353 204.647C897.447 204.741 897.499 204.868 897.499 205.001C897.499 205.133 897.447 205.26 897.353 205.354L894.02 208.687C893.974 208.734 893.919 208.771 893.858 208.796C893.797 208.821 893.732 208.834 893.667 208.834V208.834Z" fill="#6B778C"/>
</g>
</g>
<defs>
<filter id="filter0_dd_258_34198" x="709" y="57" width="220" height="180" filterUnits="userSpaceOnUse" color-interpolation-filters="sRGB">
<feFlood flood-opacity="0" result="BackgroundImageFix"/>
<feColorMatrix in="SourceAlpha" type="matrix" values="0 0 0 0 0 0 0 0 0 0 0 0 0 0 0 0 0 0 127 0" result="hardAlpha"/>
<feOffset dy="4"/>
<feGaussianBlur stdDeviation="2"/>
<feColorMatrix type="matrix" values="0 0 0 0 0 0 0 0 0 0 0 0 0 0 0 0 0 0 0.18 0"/>
<feBlend mode="normal" in2="BackgroundImageFix" result="effect1_dropShadow_258_34198"/>
<feColorMatrix in="SourceAlpha" type="matrix" values="0 0 0 0 0 0 0 0 0 0 0 0 0 0 0 0 0 0 127 0" result="hardAlpha"/>
<feOffset dy="2"/>
<feGaussianBlur stdDeviation="5"/>
<feComposite in2="hardAlpha" operator="out"/>
<feColorMatrix type="matrix" values="0 0 0 0 0 0 0 0 0 0 0 0 0 0 0 0 0 0 0.12 0"/>
<feBlend mode="normal" in2="effect1_dropShadow_258_34198" result="effect2_dropShadow_258_34198"/>
<feBlend mode="normal" in="SourceGraphic" in2="effect2_dropShadow_258_34198" result="shape"/>
</filter>
<clipPath id="clip0_258_34198">
<rect x="719" y="26" width="169" height="36" rx="4" fill="white"/>
</clipPath>
<clipPath id="clip1_258_34198">
<rect x="719" y="65" width="200" height="160" rx="4" fill="white"/>
</clipPath>
</defs>
</svg>
