<svg width="790" height="193" viewBox="0 0 790 193" fill="none" xmlns="http://www.w3.org/2000/svg">
<g clip-path="url(#clip0_259_30600)">
<rect x="321" y="16" width="16" height="16" rx="8" fill="#467822"/>
<path d="M328 26.1673C327.871 26.1575 327.752 26.0976 327.666 26.0006L325.666 24.0006C325.622 23.9073 325.607 23.8025 325.625 23.7006C325.642 23.5987 325.691 23.5047 325.764 23.4316C325.837 23.3585 325.931 23.3098 326.033 23.2924C326.135 23.2749 326.24 23.2894 326.333 23.334L327.98 24.9806L333.666 19.334C333.76 19.2894 333.865 19.2749 333.967 19.2924C334.068 19.3098 334.162 19.3585 334.236 19.4316C334.309 19.5047 334.357 19.5987 334.375 19.7006C334.392 19.8025 334.378 19.9073 334.333 20.0006L328.333 26.0006C328.248 26.0976 328.128 26.1575 328 26.1673V26.1673Z" fill="white"/>
<path d="M329 30.0005C327.928 29.9988 326.875 29.7097 325.953 29.1634C325.03 28.617 324.271 27.8333 323.753 26.8939C323.36 26.1939 323.117 25.4196 323.04 24.6205C322.918 23.4486 323.144 22.2667 323.689 21.2222C324.235 20.1777 325.075 19.3169 326.107 18.7472C326.807 18.3541 327.581 18.1112 328.38 18.0339C329.176 17.9482 329.981 18.0254 330.747 18.2605C330.815 18.2742 330.88 18.302 330.937 18.3421C330.994 18.3822 331.042 18.4337 331.077 18.4935C331.113 18.5532 331.136 18.6197 331.145 18.6889C331.154 18.758 331.148 18.8281 331.128 18.8948C331.108 18.9615 331.074 19.0233 331.028 19.0762C330.983 19.1291 330.927 19.1719 330.864 19.202C330.802 19.232 330.733 19.2486 330.663 19.2506C330.594 19.2527 330.525 19.2402 330.46 19.2139C329.812 19.0192 329.133 18.9557 328.46 19.0272C327.795 19.0953 327.151 19.2971 326.567 19.6205C326.003 19.9313 325.506 20.3478 325.1 20.8472C324.683 21.356 324.371 21.9429 324.183 22.5737C323.995 23.2044 323.935 23.8663 324.007 24.5205C324.075 25.1852 324.277 25.8292 324.6 26.4139C324.911 26.9771 325.327 27.4751 325.827 27.8805C326.336 28.298 326.922 28.6097 327.553 28.7974C328.184 28.9852 328.846 29.0451 329.5 28.9739C330.165 28.9058 330.809 28.704 331.393 28.3805C331.957 28.0698 332.455 27.6533 332.86 27.1539C333.277 26.6451 333.589 26.0582 333.777 25.4274C333.965 24.7966 334.025 24.1348 333.953 23.4805C333.947 23.4118 333.954 23.3425 333.974 23.2765C333.994 23.2105 334.027 23.1491 334.071 23.0958C334.115 23.0426 334.169 22.9985 334.23 22.9662C334.291 22.9338 334.358 22.9138 334.427 22.9072C334.495 22.9006 334.565 22.9077 334.631 22.9279C334.697 22.9481 334.758 22.9812 334.811 23.0251C334.865 23.0691 334.909 23.1231 334.941 23.1841C334.973 23.2451 334.994 23.3118 335 23.3805C335.121 24.5532 334.895 25.7356 334.348 26.7802C333.802 27.8247 332.959 28.6851 331.927 29.2539C331.219 29.663 330.433 29.9175 329.62 30.0005C329.413 30.0005 329.2 30.0005 329 30.0005Z" fill="white"/>
<g clip-path="url(#clip1_259_30600)">
<rect width="131" height="36" transform="translate(66.5 16)" fill="#6C3078"/>
<path d="M98.6466 39.8333H90.3533C90.1221 39.8239 89.895 39.769 89.6851 39.6717C89.4752 39.5744 89.2865 39.4367 89.1298 39.2664C88.9731 39.0961 88.8516 38.8966 88.7721 38.6793C88.6926 38.462 88.6568 38.2312 88.6666 38V36C88.6666 35.8674 88.7193 35.7402 88.8131 35.6464C88.9068 35.5527 89.034 35.5 89.1666 35.5C89.2992 35.5 89.4264 35.5527 89.5202 35.6464C89.614 35.7402 89.6666 35.8674 89.6666 36V38C89.6494 38.198 89.7091 38.3949 89.8332 38.5501C89.9573 38.7052 90.1364 38.8067 90.3333 38.8333H98.6466C98.8435 38.8067 99.0226 38.7052 99.1467 38.5501C99.2709 38.3949 99.3305 38.198 99.3133 38V36C99.3133 35.8674 99.366 35.7402 99.4597 35.6464C99.5535 35.5527 99.6807 35.5 99.8133 35.5C99.9459 35.5 100.073 35.5527 100.167 35.6464C100.261 35.7402 100.313 35.8674 100.313 36V38C100.333 38.4636 100.169 38.9163 99.8572 39.2596C99.5451 39.603 99.11 39.8092 98.6466 39.8333Z" fill="white"/>
<path d="M94.4999 36.5019C94.4342 36.5022 94.3691 36.4893 94.3084 36.4642C94.2478 36.439 94.1927 36.4019 94.1466 36.3552L91.4799 33.6885C91.3916 33.5937 91.3435 33.4684 91.3458 33.3388C91.3481 33.2093 91.4005 33.0857 91.4921 32.9941C91.5838 32.9025 91.7073 32.85 91.8369 32.8477C91.9664 32.8454 92.0918 32.8935 92.1866 32.9819L94.4999 35.2952L96.8132 32.9819C96.908 32.8935 97.0334 32.8454 97.1629 32.8477C97.2924 32.85 97.416 32.9025 97.5076 32.9941C97.5993 33.0857 97.6517 33.2093 97.654 33.3388C97.6563 33.4684 97.6082 33.5937 97.5199 33.6885L94.8532 36.3552C94.8071 36.4019 94.752 36.439 94.6914 36.4642C94.6307 36.4893 94.5656 36.5022 94.4999 36.5019V36.5019Z" fill="white"/>
<path d="M94.5 36.5013C94.3679 36.4996 94.2418 36.4463 94.1484 36.3529C94.055 36.2595 94.0017 36.1334 94 36.0013V28.668C94 28.5354 94.0527 28.4082 94.1464 28.3144C94.2402 28.2206 94.3674 28.168 94.5 28.168C94.6326 28.168 94.7598 28.2206 94.8536 28.3144C94.9473 28.4082 95 28.5354 95 28.668V36.0013C94.9983 36.1334 94.945 36.2595 94.8516 36.3529C94.7582 36.4463 94.6321 36.4996 94.5 36.5013V36.5013Z" fill="white"/>
<path d="M111.606 37.5H115.302C117.682 37.5 120.552 35.932 120.552 32.544C120.552 29.184 118.116 27.588 115.512 27.588H111.606V37.5ZM113.37 35.904V29.184H114.98C117.136 29.184 118.704 30.136 118.704 32.544C118.704 34.952 116.898 35.904 114.686 35.904H113.37ZM121.739 34.14C121.739 36.254 123.363 37.668 125.393 37.668C127.423 37.668 129.047 36.254 129.047 34.14C129.047 32.026 127.423 30.612 125.393 30.612C123.363 30.612 121.739 32.026 121.739 34.14ZM123.419 34.14C123.419 33.09 124.161 32.124 125.393 32.124C126.625 32.124 127.367 33.09 127.367 34.14C127.367 35.19 126.625 36.156 125.393 36.156C124.161 36.156 123.419 35.19 123.419 34.14ZM132.048 37.5H133.784L135.198 32.908H135.226L136.822 37.5H138.488L140.77 30.78H139.076L137.676 35.484H137.648L136.192 30.78H134.372L133.014 35.484H132.986L131.53 30.78H129.71L132.048 37.5ZM141.763 37.5H143.443V33.832C143.443 32.936 143.877 32.124 144.983 32.124C146.159 32.124 146.215 33.356 146.215 34.098V37.5H147.895V33.258C147.895 31.886 147.251 30.612 145.445 30.612C144.325 30.612 143.695 31.186 143.387 31.858H143.359V30.78H141.763V37.5ZM149.83 37.5H151.51V26.916H149.83V37.5ZM153.102 34.14C153.102 36.254 154.726 37.668 156.756 37.668C158.786 37.668 160.41 36.254 160.41 34.14C160.41 32.026 158.786 30.612 156.756 30.612C154.726 30.612 153.102 32.026 153.102 34.14ZM154.782 34.14C154.782 33.09 155.524 32.124 156.756 32.124C157.988 32.124 158.73 33.09 158.73 34.14C158.73 35.19 157.988 36.156 156.756 36.156C155.524 36.156 154.782 35.19 154.782 34.14ZM166.183 37.5H167.695V33.636C167.695 32.684 167.695 30.612 164.825 30.612C163.761 30.612 162.711 30.934 161.969 31.69L162.851 32.572C163.299 32.152 163.943 31.872 164.643 31.872C165.539 31.872 166.183 32.306 166.183 33.132V33.314H165.763C164.083 33.314 161.535 33.468 161.535 35.652C161.535 36.982 162.739 37.668 163.985 37.668C164.881 37.668 165.665 37.332 166.141 36.576H166.183V37.5ZM166.085 34.868C166.085 35.806 165.539 36.408 164.391 36.408C163.845 36.408 163.215 36.142 163.215 35.526C163.215 34.56 164.811 34.49 165.735 34.49H166.085V34.868ZM174.823 37.5H176.419V26.916H174.739V31.634H174.697C174.347 31.2 173.675 30.612 172.415 30.612C170.497 30.612 169.167 32.152 169.167 34.14C169.167 36.128 170.413 37.668 172.485 37.668C173.423 37.668 174.305 37.304 174.795 36.492H174.823V37.5ZM170.847 34.14C170.847 33.09 171.589 32.124 172.821 32.124C174.053 32.124 174.795 33.09 174.795 34.14C174.795 35.19 174.053 36.156 172.821 36.156C171.589 36.156 170.847 35.19 170.847 34.14Z" fill="white"/>
<rect width="36" height="36" transform="translate(197.5 16)" fill="#502252"/>
<path d="M215.5 36.1684C215.434 36.1687 215.369 36.1559 215.308 36.1307C215.248 36.1055 215.193 36.0685 215.147 36.0217L211.813 32.6884C211.747 32.5911 211.717 32.4735 211.729 32.3563C211.74 32.2391 211.793 32.1298 211.878 32.0477C211.962 31.9656 212.073 31.9159 212.19 31.9075C212.308 31.8991 212.425 31.9325 212.52 32.0017L215.5 34.9617L218.48 32.0017C218.574 31.9408 218.686 31.9132 218.797 31.9233C218.909 31.9334 219.014 31.9807 219.095 32.0576C219.177 32.1344 219.23 32.2364 219.246 32.3472C219.263 32.4579 219.242 32.571 219.187 32.6684L215.853 36.0017C215.809 36.0521 215.755 36.0929 215.694 36.1215C215.633 36.1502 215.567 36.1661 215.5 36.1684V36.1684Z" fill="white"/>
</g>
<g filter="url(#filter0_dd_259_30600)">
<g clip-path="url(#clip2_259_30600)">
<rect width="200" height="40" transform="translate(66.5 56)" fill="white"/>
<path fill-rule="evenodd" clip-rule="evenodd" d="M86.4355 69.623C86.8744 69.1841 87.4697 68.9375 88.0904 68.9375H93.6566C94.0708 68.9375 94.4066 69.2733 94.4066 69.6875C94.4066 70.1017 94.0708 70.4375 93.6566 70.4375H88.0904C87.8675 70.4375 87.6537 70.526 87.4961 70.6836C87.3385 70.8412 87.25 71.055 87.25 71.2779V82.4103C87.25 82.6332 87.3385 82.8469 87.4961 83.0045C87.6537 83.1621 87.8675 83.2507 88.0904 83.2507H99.2228C99.4457 83.2507 99.6594 83.1621 99.817 83.0045C99.9746 82.8469 100.063 82.6332 100.063 82.4103V76.8441C100.063 76.4299 100.399 76.0941 100.813 76.0941C101.227 76.0941 101.563 76.4299 101.563 76.8441V82.4103C101.563 83.031 101.317 83.6263 100.878 84.0652C100.439 84.5041 99.8435 84.7507 99.2228 84.7507H88.0904C87.4697 84.7507 86.8744 84.5041 86.4355 84.0652C85.9966 83.6263 85.75 83.031 85.75 82.4103V71.2779C85.75 70.6572 85.9966 70.0619 86.4355 69.623Z" fill="#6B778C"/>
<path fill-rule="evenodd" clip-rule="evenodd" d="M100.813 68.75C100.565 68.75 100.326 68.8487 100.151 69.0244L92.7434 76.4317L92.3018 78.1982L94.0683 77.7565L101.476 70.3493C101.651 70.1736 101.75 69.9353 101.75 69.6868C101.75 69.4384 101.651 69.2001 101.476 69.0244C101.3 68.8487 101.062 68.75 100.813 68.75ZM99.09 67.9637C99.547 67.5067 100.167 67.25 100.813 67.25C101.459 67.25 102.079 67.5067 102.536 67.9637C102.993 68.4207 103.25 69.0405 103.25 69.6868C103.25 70.3331 102.993 70.9529 102.536 71.4099L94.982 78.9641C94.8859 79.0602 94.7655 79.1284 94.6336 79.1614L91.4529 79.9565C91.1973 80.0204 90.927 79.9456 90.7407 79.7593C90.5544 79.573 90.4795 79.3026 90.5434 79.047L91.3386 75.8663C91.3716 75.7345 91.4397 75.614 91.5359 75.5179L99.09 67.9637Z" fill="#6B778C"/>
<path d="M115.908 80H123.316V78.752H117.252V74.72H122.644V73.472H117.252V69.92H123.028V68.672H115.908V80ZM131.392 80H132.64V67.904H131.392V73.6H131.36C130.672 72.8 129.76 72.32 128.672 72.32C126.32 72.32 124.736 73.984 124.736 76.256C124.736 78.496 126.384 80.192 128.48 80.192C129.824 80.192 130.896 79.52 131.36 78.672H131.392V80ZM131.392 76.256C131.392 77.824 130.352 79.04 128.736 79.04C127.12 79.04 126.08 77.824 126.08 76.256C126.08 74.688 127.12 73.472 128.736 73.472C130.352 73.472 131.392 74.688 131.392 76.256ZM135.062 80H136.31V72.512H135.062V80ZM134.774 69.584C134.774 70.112 135.158 70.496 135.686 70.496C136.214 70.496 136.598 70.112 136.598 69.584C136.598 69.088 136.198 68.672 135.686 68.672C135.174 68.672 134.774 69.088 134.774 69.584ZM142.889 72.512H140.681V70.384H139.433V72.512H137.801V73.568H139.433V77.68C139.433 79.232 139.721 80.192 141.497 80.192C141.961 80.192 142.521 80.112 142.953 79.92L142.905 78.784C142.569 78.96 142.169 79.04 141.801 79.04C140.697 79.04 140.681 78.272 140.681 77.312V73.568H142.889V72.512Z" fill="#333333"/>
<rect width="200" height="40" transform="translate(66.5 96)" fill="white"/>
<path d="M96.5 120.75H88.5C87.7707 120.75 87.0712 120.46 86.5555 119.945C86.0397 119.429 85.75 118.729 85.75 118V110C85.75 109.271 86.0397 108.571 86.5555 108.055C87.0712 107.54 87.7707 107.25 88.5 107.25H96.5C97.2293 107.25 97.9288 107.54 98.4445 108.055C98.9603 108.571 99.25 109.271 99.25 110V118C99.25 118.729 98.9603 119.429 98.4445 119.945C97.9288 120.46 97.2293 120.75 96.5 120.75ZM88.5 108.75C88.1685 108.75 87.8505 108.882 87.6161 109.116C87.3817 109.351 87.25 109.668 87.25 110V118C87.25 118.332 87.3817 118.649 87.6161 118.884C87.8505 119.118 88.1685 119.25 88.5 119.25H96.5C96.8315 119.25 97.1495 119.118 97.3839 118.884C97.6183 118.649 97.75 118.332 97.75 118V110C97.75 109.668 97.6183 109.351 97.3839 109.116C97.1495 108.882 96.8315 108.75 96.5 108.75H88.5Z" fill="#6B778C"/>
<path d="M100.5 124.75H92.5C91.7707 124.75 91.0712 124.46 90.5555 123.945C90.0397 123.429 89.75 122.729 89.75 122V120H91.25V122C91.25 122.332 91.3817 122.649 91.6161 122.884C91.8505 123.118 92.1685 123.25 92.5 123.25H100.5C100.832 123.25 101.149 123.118 101.384 122.884C101.618 122.649 101.75 122.332 101.75 122V114C101.75 113.668 101.618 113.351 101.384 113.116C101.149 112.882 100.832 112.75 100.5 112.75H98.5V111.25H100.5C101.229 111.25 101.929 111.54 102.445 112.055C102.96 112.571 103.25 113.271 103.25 114V122C103.25 122.729 102.96 123.429 102.445 123.945C101.929 124.46 101.229 124.75 100.5 124.75Z" fill="#6B778C"/>
<path d="M115.7 120H120.052C122.276 120 125.604 118.512 125.604 114.336C125.604 110.16 122.276 108.672 120.052 108.672H115.7V120ZM117.044 109.92H119.604C122.196 109.92 124.164 111.232 124.164 114.336C124.164 117.44 122.196 118.752 119.604 118.752H117.044V109.92ZM134.071 112.512H132.823V116.16C132.823 117.872 132.119 119.04 130.503 119.04C129.335 119.04 128.791 118.256 128.791 117.008V112.512H127.543V117.136C127.543 118.944 128.423 120.192 130.391 120.192C131.623 120.192 132.551 119.504 132.887 118.768H132.919C132.919 119.184 132.951 119.6 132.951 120H134.135C134.135 119.504 134.071 118.912 134.071 118.224V112.512ZM136.37 123.648H137.618V118.672H137.65C138.114 119.52 139.186 120.192 140.53 120.192C142.626 120.192 144.274 118.496 144.274 116.256C144.274 113.984 142.69 112.32 140.338 112.32C139.25 112.32 138.338 112.8 137.65 113.6H137.618V112.512H136.37V123.648ZM137.618 116.256C137.618 114.688 138.658 113.472 140.274 113.472C141.89 113.472 142.93 114.688 142.93 116.256C142.93 117.824 141.89 119.04 140.274 119.04C138.658 119.04 137.618 117.824 137.618 116.256ZM146.327 120H147.575V107.904H146.327V120ZM150.171 120H151.419V112.512H150.171V120ZM149.883 109.584C149.883 110.112 150.267 110.496 150.795 110.496C151.323 110.496 151.707 110.112 151.707 109.584C151.707 109.088 151.307 108.672 150.795 108.672C150.283 108.672 149.883 109.088 149.883 109.584ZM160.223 113.504C159.471 112.688 158.447 112.32 157.343 112.32C155.039 112.32 153.471 113.984 153.471 116.256C153.471 118.56 155.023 120.192 157.343 120.192C158.431 120.192 159.455 119.824 160.175 118.992L159.247 118.112C158.783 118.752 158.159 119.04 157.343 119.04C155.823 119.04 154.815 117.792 154.815 116.256C154.815 114.72 155.663 113.472 157.343 113.472C158.095 113.472 158.703 113.744 159.231 114.384L160.223 113.504ZM162.31 114.288C162.902 113.744 163.734 113.472 164.534 113.472C165.702 113.472 166.39 114.032 166.39 115.12V115.344H165.91C164.07 115.344 161.19 115.488 161.19 117.968C161.19 119.424 162.454 120.192 163.974 120.192C165.11 120.192 165.942 119.648 166.438 118.88H166.47C166.47 119.2 166.47 119.664 166.55 120H167.75C167.686 119.616 167.638 119.136 167.638 118.704V115.488C167.638 113.376 166.71 112.32 164.502 112.32C163.414 112.32 162.294 112.688 161.526 113.472L162.31 114.288ZM166.39 116.4V116.88C166.358 118.096 165.622 119.136 164.182 119.136C163.238 119.136 162.534 118.784 162.534 117.84C162.534 116.832 163.558 116.4 165.141 116.4H166.39ZM174.014 112.512H171.806V110.384H170.558V112.512H168.926V113.568H170.558V117.68C170.558 119.232 170.846 120.192 172.622 120.192C173.086 120.192 173.646 120.112 174.078 119.92L174.03 118.784C173.694 118.96 173.294 119.04 172.926 119.04C171.822 119.04 171.806 118.272 171.806 117.312V113.568H174.014V112.512ZM181.287 117.904C180.695 118.656 179.975 119.04 178.903 119.04C177.543 119.04 176.551 117.936 176.455 116.64H182.503V116.24C182.503 113.76 181.063 112.32 178.951 112.32C176.743 112.32 175.111 113.936 175.111 116.256C175.111 118.432 176.551 120.192 178.903 120.192C180.295 120.192 181.351 119.776 182.231 118.64L181.287 117.904ZM176.455 115.584C176.615 114.32 177.527 113.472 178.903 113.472C180.279 113.472 181.111 114.32 181.159 115.584H176.455Z" fill="#333333"/>
</g>
</g>
</g>
<rect x="4" y="4" width="345" height="129" stroke="#E6E6E6" stroke-width="8"/>
<path d="M9.264 161H13.488C16.208 161 19.488 159.208 19.488 155.336C19.488 151.496 16.704 149.672 13.728 149.672H9.264V161ZM11.28 159.176V151.496H13.12C15.584 151.496 17.376 152.584 17.376 155.336C17.376 158.088 15.312 159.176 12.784 159.176H11.28ZM20.8446 157.16C20.8446 159.576 22.7006 161.192 25.0206 161.192C27.3406 161.192 29.1966 159.576 29.1966 157.16C29.1966 154.744 27.3406 153.128 25.0206 153.128C22.7006 153.128 20.8446 154.744 20.8446 157.16ZM22.7646 157.16C22.7646 155.96 23.6126 154.856 25.0206 154.856C26.4286 154.856 27.2766 155.96 27.2766 157.16C27.2766 158.36 26.4286 159.464 25.0206 159.464C23.6126 159.464 22.7646 158.36 22.7646 157.16ZM30.9943 159.88C30.9943 160.568 31.6023 161.096 32.2743 161.096C32.9783 161.096 33.5543 160.536 33.5543 159.848C33.5543 159.16 32.9623 158.632 32.2743 158.632C31.5703 158.632 30.9943 159.192 30.9943 159.88ZM30.9943 154.456C30.9943 155.144 31.6023 155.672 32.2743 155.672C32.9783 155.672 33.5543 155.112 33.5543 154.424C33.5543 153.736 32.9623 153.208 32.2743 153.208C31.5703 153.208 30.9943 153.768 30.9943 154.456Z" fill="#333333"/>
<path d="M52.904 149.672H51.56V156.488C51.56 158.312 50.888 160.04 48.632 160.04C46.376 160.04 45.704 158.312 45.704 156.488V149.672H44.36V156.68C44.36 159.144 45.512 161.288 48.632 161.288C51.752 161.288 52.904 159.144 52.904 156.68V149.672ZM54.6176 159.8C55.3536 160.856 56.2656 161.192 57.5296 161.192C59.0176 161.192 60.5216 160.536 60.5216 158.84C60.5216 157.336 59.4016 156.856 58.0736 156.6C57.0816 156.408 56.1856 156.136 56.1856 155.512C56.1856 154.808 56.9696 154.472 57.6576 154.472C58.3936 154.472 58.9216 154.84 59.2416 155.368L60.2816 154.68C59.7696 153.72 58.7936 153.32 57.7376 153.32C56.3456 153.32 54.9376 154.072 54.9376 155.528C54.9376 157.08 56.1536 157.384 57.5776 157.704C58.3776 157.88 59.1776 158.088 59.1776 158.888C59.1776 159.704 58.3136 160.04 57.5296 160.04C56.6496 160.04 56.1056 159.64 55.6096 159.032L54.6176 159.8ZM68.0061 158.904C67.4141 159.656 66.6941 160.04 65.6221 160.04C64.2621 160.04 63.2701 158.936 63.1741 157.64H69.2221V157.24C69.2221 154.76 67.7821 153.32 65.6701 153.32C63.4621 153.32 61.8301 154.936 61.8301 157.256C61.8301 159.432 63.2701 161.192 65.6221 161.192C67.0141 161.192 68.0701 160.776 68.9501 159.64L68.0061 158.904ZM63.1741 156.584C63.3341 155.32 64.2461 154.472 65.6221 154.472C66.9981 154.472 67.8301 155.32 67.8781 156.584H63.1741ZM75.7179 161H76.9659V153.512H75.7179V161ZM75.4299 150.584C75.4299 151.112 75.8139 151.496 76.3419 151.496C76.8699 151.496 77.2539 151.112 77.2539 150.584C77.2539 150.088 76.8539 149.672 76.3419 149.672C75.8299 149.672 75.4299 150.088 75.4299 150.584ZM85.7696 154.504C85.0176 153.688 83.9936 153.32 82.8896 153.32C80.5856 153.32 79.0176 154.984 79.0176 157.256C79.0176 159.56 80.5696 161.192 82.8896 161.192C83.9776 161.192 85.0016 160.824 85.7216 159.992L84.7936 159.112C84.3296 159.752 83.7056 160.04 82.8896 160.04C81.3696 160.04 80.3616 158.792 80.3616 157.256C80.3616 155.72 81.2096 154.472 82.8896 154.472C83.6416 154.472 84.2496 154.744 84.7776 155.384L85.7696 154.504ZM86.7364 157.256C86.7364 159.592 88.4324 161.192 90.7364 161.192C93.0404 161.192 94.7364 159.592 94.7364 157.256C94.7364 154.92 93.0404 153.32 90.7364 153.32C88.4324 153.32 86.7364 154.92 86.7364 157.256ZM88.0804 157.256C88.0804 155.688 89.1204 154.472 90.7364 154.472C92.3524 154.472 93.3924 155.688 93.3924 157.256C93.3924 158.824 92.3524 160.04 90.7364 160.04C89.1204 160.04 88.0804 158.824 88.0804 157.256ZM96.6684 161H97.9164V157.352C97.9164 155.64 98.6204 154.472 100.236 154.472C101.404 154.472 101.948 155.256 101.948 156.504V161H103.196V156.376C103.196 154.568 102.316 153.32 100.348 153.32C99.1164 153.32 98.1884 154.008 97.8524 154.744H97.8204C97.8204 154.328 97.7884 153.912 97.7884 153.512H96.6044C96.6044 154.008 96.6684 154.6 96.6684 155.288V161ZM104.727 159.8C105.463 160.856 106.375 161.192 107.639 161.192C109.127 161.192 110.631 160.536 110.631 158.84C110.631 157.336 109.511 156.856 108.183 156.6C107.191 156.408 106.295 156.136 106.295 155.512C106.295 154.808 107.079 154.472 107.767 154.472C108.503 154.472 109.031 154.84 109.351 155.368L110.391 154.68C109.879 153.72 108.903 153.32 107.847 153.32C106.455 153.32 105.047 154.072 105.047 155.528C105.047 157.08 106.263 157.384 107.687 157.704C108.487 157.88 109.287 158.088 109.287 158.888C109.287 159.704 108.423 160.04 107.639 160.04C106.759 160.04 106.215 159.64 105.719 159.032L104.727 159.8ZM120.921 153.512H118.713V151.384H117.465V153.512H115.833V154.568H117.465V158.68C117.465 160.232 117.753 161.192 119.529 161.192C119.993 161.192 120.553 161.112 120.985 160.92L120.937 159.784C120.601 159.96 120.201 160.04 119.833 160.04C118.729 160.04 118.713 159.272 118.713 158.312V154.568H120.921V153.512ZM122.45 161H123.698V157.352C123.698 155.64 124.402 154.472 126.018 154.472C127.186 154.472 127.73 155.256 127.73 156.504V161H128.978V156.376C128.978 154.568 128.098 153.32 126.13 153.32C124.962 153.32 124.066 153.96 123.73 154.552H123.698V148.904H122.45V161ZM132.028 155.288C132.62 154.744 133.452 154.472 134.252 154.472C135.42 154.472 136.108 155.032 136.108 156.12V156.344H135.628C133.788 156.344 130.908 156.488 130.908 158.968C130.908 160.424 132.172 161.192 133.692 161.192C134.828 161.192 135.66 160.648 136.156 159.88H136.188C136.188 160.2 136.188 160.664 136.268 161H137.468C137.404 160.616 137.356 160.136 137.356 159.704V156.488C137.356 154.376 136.428 153.32 134.22 153.32C133.132 153.32 132.012 153.688 131.244 154.472L132.028 155.288ZM136.108 157.4V157.88C136.076 159.096 135.34 160.136 133.9 160.136C132.956 160.136 132.252 159.784 132.252 158.84C132.252 157.832 133.276 157.4 134.86 157.4H136.108ZM143.733 153.512H141.525V151.384H140.277V153.512H138.645V154.568H140.277V158.68C140.277 160.232 140.565 161.192 142.341 161.192C142.805 161.192 143.365 161.112 143.797 160.92L143.749 159.784C143.413 159.96 143.013 160.04 142.645 160.04C141.541 160.04 141.525 159.272 141.525 158.312V154.568H143.733V153.512ZM150.403 155.288C150.995 154.744 151.827 154.472 152.627 154.472C153.795 154.472 154.483 155.032 154.483 156.12V156.344H154.003C152.163 156.344 149.283 156.488 149.283 158.968C149.283 160.424 150.547 161.192 152.067 161.192C153.203 161.192 154.035 160.648 154.531 159.88H154.563C154.563 160.2 154.563 160.664 154.643 161H155.843C155.779 160.616 155.731 160.136 155.731 159.704V156.488C155.731 154.376 154.803 153.32 152.595 153.32C151.507 153.32 150.387 153.688 149.619 154.472L150.403 155.288ZM154.483 157.4V157.88C154.451 159.096 153.715 160.136 152.275 160.136C151.331 160.136 150.627 159.784 150.627 158.84C150.627 157.832 151.651 157.4 153.235 157.4H154.483ZM157.18 159.8C157.916 160.856 158.828 161.192 160.092 161.192C161.58 161.192 163.084 160.536 163.084 158.84C163.084 157.336 161.964 156.856 160.636 156.6C159.644 156.408 158.748 156.136 158.748 155.512C158.748 154.808 159.532 154.472 160.22 154.472C160.956 154.472 161.484 154.84 161.804 155.368L162.844 154.68C162.332 153.72 161.356 153.32 160.3 153.32C158.908 153.32 157.5 154.072 157.5 155.528C157.5 157.08 158.716 157.384 160.14 157.704C160.94 157.88 161.74 158.088 161.74 158.888C161.74 159.704 160.876 160.04 160.092 160.04C159.212 160.04 158.668 159.64 158.172 159.032L157.18 159.8ZM163.993 159.8C164.729 160.856 165.641 161.192 166.905 161.192C168.393 161.192 169.897 160.536 169.897 158.84C169.897 157.336 168.777 156.856 167.449 156.6C166.457 156.408 165.561 156.136 165.561 155.512C165.561 154.808 166.345 154.472 167.033 154.472C167.769 154.472 168.297 154.84 168.617 155.368L169.657 154.68C169.145 153.72 168.169 153.32 167.113 153.32C165.721 153.32 164.313 154.072 164.313 155.528C164.313 157.08 165.529 157.384 166.953 157.704C167.753 157.88 168.553 158.088 168.553 158.888C168.553 159.704 167.689 160.04 166.905 160.04C166.025 160.04 165.481 159.64 164.985 159.032L163.993 159.8ZM171.205 157.256C171.205 159.592 172.901 161.192 175.205 161.192C177.509 161.192 179.205 159.592 179.205 157.256C179.205 154.92 177.509 153.32 175.205 153.32C172.901 153.32 171.205 154.92 171.205 157.256ZM172.549 157.256C172.549 155.688 173.589 154.472 175.205 154.472C176.821 154.472 177.861 155.688 177.861 157.256C177.861 158.824 176.821 160.04 175.205 160.04C173.589 160.04 172.549 158.824 172.549 157.256ZM187.457 154.504C186.705 153.688 185.681 153.32 184.577 153.32C182.273 153.32 180.705 154.984 180.705 157.256C180.705 159.56 182.257 161.192 184.577 161.192C185.665 161.192 186.689 160.824 187.409 159.992L186.481 159.112C186.017 159.752 185.393 160.04 184.577 160.04C183.057 160.04 182.049 158.792 182.049 157.256C182.049 155.72 182.897 154.472 184.577 154.472C185.329 154.472 185.937 154.744 186.465 155.384L187.457 154.504ZM188.968 161H190.216V153.512H188.968V161ZM188.68 150.584C188.68 151.112 189.064 151.496 189.592 151.496C190.12 151.496 190.504 151.112 190.504 150.584C190.504 150.088 190.104 149.672 189.592 149.672C189.08 149.672 188.68 150.088 188.68 150.584ZM193.388 155.288C193.98 154.744 194.812 154.472 195.612 154.472C196.78 154.472 197.468 155.032 197.468 156.12V156.344H196.988C195.148 156.344 192.268 156.488 192.268 158.968C192.268 160.424 193.532 161.192 195.052 161.192C196.188 161.192 197.02 160.648 197.516 159.88H197.548C197.548 160.2 197.548 160.664 197.628 161H198.828C198.764 160.616 198.716 160.136 198.716 159.704V156.488C198.716 154.376 197.788 153.32 195.58 153.32C194.492 153.32 193.372 153.688 192.604 154.472L193.388 155.288ZM197.468 157.4V157.88C197.436 159.096 196.7 160.136 195.26 160.136C194.316 160.136 193.612 159.784 193.612 158.84C193.612 157.832 194.636 157.4 196.22 157.4H197.468ZM205.093 153.512H202.885V151.384H201.637V153.512H200.005V154.568H201.637V158.68C201.637 160.232 201.924 161.192 203.701 161.192C204.165 161.192 204.725 161.112 205.157 160.92L205.109 159.784C204.773 159.96 204.373 160.04 204.005 160.04C202.901 160.04 202.885 159.272 202.885 158.312V154.568H205.093V153.512ZM212.366 158.904C211.774 159.656 211.054 160.04 209.982 160.04C208.622 160.04 207.63 158.936 207.534 157.64H213.582V157.24C213.582 154.76 212.142 153.32 210.03 153.32C207.822 153.32 206.19 154.936 206.19 157.256C206.19 159.432 207.63 161.192 209.982 161.192C211.374 161.192 212.43 160.776 213.31 159.64L212.366 158.904ZM207.534 156.584C207.694 155.32 208.606 154.472 209.982 154.472C211.358 154.472 212.19 155.32 212.238 156.584H207.534ZM230.413 153.512H229.069L227.373 159.272H227.341L225.373 153.512H224.061L222.125 159.272H222.093L220.381 153.512H219.005L221.437 161H222.717L224.605 155.24H224.637L226.765 161H227.997L230.413 153.512ZM231.937 161H233.185V153.512H231.937V161ZM231.649 150.584C231.649 151.112 232.033 151.496 232.561 151.496C233.089 151.496 233.473 151.112 233.473 150.584C233.473 150.088 233.073 149.672 232.561 149.672C232.049 149.672 231.649 150.088 231.649 150.584ZM239.764 153.512H237.556V151.384H236.308V153.512H234.676V154.568H236.308V158.68C236.308 160.232 236.596 161.192 238.372 161.192C238.836 161.192 239.396 161.112 239.828 160.92L239.78 159.784C239.444 159.96 239.044 160.04 238.676 160.04C237.572 160.04 237.556 159.272 237.556 158.312V154.568H239.764V153.512ZM241.293 161H242.541V157.352C242.541 155.64 243.245 154.472 244.861 154.472C246.029 154.472 246.573 155.256 246.573 156.504V161H247.821V156.376C247.821 154.568 246.941 153.32 244.973 153.32C243.805 153.32 242.909 153.96 242.573 154.552H242.541V148.904H241.293V161ZM258.733 153.512H256.525V151.384H255.277V153.512H253.645V154.568H255.277V158.68C255.277 160.232 255.565 161.192 257.341 161.192C257.805 161.192 258.365 161.112 258.797 160.92L258.749 159.784C258.413 159.96 258.013 160.04 257.645 160.04C256.541 160.04 256.525 159.272 256.525 158.312V154.568H258.733V153.512ZM260.262 161H261.51V157.352C261.51 155.64 262.214 154.472 263.83 154.472C264.998 154.472 265.542 155.256 265.542 156.504V161H266.79V156.376C266.79 154.568 265.91 153.32 263.942 153.32C262.774 153.32 261.878 153.96 261.542 154.552H261.51V148.904H260.262V161ZM274.897 158.904C274.305 159.656 273.585 160.04 272.513 160.04C271.153 160.04 270.161 158.936 270.065 157.64H276.113V157.24C276.113 154.76 274.673 153.32 272.561 153.32C270.353 153.32 268.721 154.936 268.721 157.256C268.721 159.432 270.161 161.192 272.513 161.192C273.905 161.192 274.961 160.776 275.841 159.64L274.897 158.904ZM270.065 156.584C270.225 155.32 271.137 154.472 272.513 154.472C273.889 154.472 274.721 155.32 274.769 156.584H270.065ZM282.497 161H283.745V157.352C283.745 155.64 284.449 154.472 286.065 154.472C287.089 154.472 287.505 155.112 287.505 156.76V161H288.753V156.68C288.753 155.336 289.633 154.472 290.689 154.472C292.145 154.472 292.513 155.48 292.513 156.52V161H293.761V156.456C293.761 154.52 293.057 153.32 290.913 153.32C289.777 153.32 289.089 153.864 288.545 154.744C288.305 154.232 287.793 153.32 286.177 153.32C284.945 153.32 284.017 154.008 283.681 154.744H283.649C283.649 154.328 283.617 153.912 283.617 153.512H282.433C282.433 154.008 282.497 154.6 282.497 155.288V161ZM301.866 158.904C301.274 159.656 300.554 160.04 299.482 160.04C298.122 160.04 297.13 158.936 297.034 157.64H303.082V157.24C303.082 154.76 301.642 153.32 299.53 153.32C297.322 153.32 295.69 154.936 295.69 157.256C295.69 159.432 297.13 161.192 299.482 161.192C300.874 161.192 301.93 160.776 302.81 159.64L301.866 158.904ZM297.034 156.584C297.194 155.32 298.106 154.472 299.482 154.472C300.858 154.472 301.69 155.32 301.738 156.584H297.034ZM305.012 161H306.26V157.352C306.26 155.64 306.964 154.472 308.58 154.472C309.748 154.472 310.292 155.256 310.292 156.504V161H311.54V156.376C311.54 154.568 310.66 153.32 308.692 153.32C307.46 153.32 306.532 154.008 306.196 154.744H306.164C306.164 154.328 306.132 153.912 306.132 153.512H304.948C304.948 154.008 305.012 154.6 305.012 155.288V161ZM320.431 153.512H319.183V157.16C319.183 158.872 318.479 160.04 316.863 160.04C315.695 160.04 315.151 159.256 315.151 158.008V153.512H313.903V158.136C313.903 159.944 314.783 161.192 316.751 161.192C317.983 161.192 318.911 160.504 319.247 159.768H319.279C319.279 160.184 319.311 160.6 319.311 161H320.495C320.495 160.504 320.431 159.912 320.431 159.224V153.512ZM44.296 185H45.544V177.512H44.296V185ZM44.008 174.584C44.008 175.112 44.392 175.496 44.92 175.496C45.448 175.496 45.832 175.112 45.832 174.584C45.832 174.088 45.432 173.672 44.92 173.672C44.408 173.672 44.008 174.088 44.008 174.584ZM52.1238 177.512H49.9158V175.384H48.6678V177.512H47.0358V178.568H48.6678V182.68C48.6678 184.232 48.9557 185.192 50.7318 185.192C51.1958 185.192 51.7558 185.112 52.1878 184.92L52.1398 183.784C51.8038 183.96 51.4038 184.04 51.0358 184.04C49.9318 184.04 49.9158 183.272 49.9158 182.312V178.568H52.1238V177.512ZM59.3968 182.904C58.8048 183.656 58.0848 184.04 57.0128 184.04C55.6528 184.04 54.6608 182.936 54.5648 181.64H60.6128V181.24C60.6128 178.76 59.1728 177.32 57.0608 177.32C54.8528 177.32 53.2208 178.936 53.2208 181.256C53.2208 183.432 54.6608 185.192 57.0128 185.192C58.4048 185.192 59.4608 184.776 60.3408 183.64L59.3968 182.904ZM54.5648 180.584C54.7248 179.32 55.6368 178.472 57.0128 178.472C58.3888 178.472 59.2208 179.32 59.2688 180.584H54.5648ZM62.5434 185H63.7914V181.352C63.7914 179.64 64.4954 178.472 66.1114 178.472C67.1354 178.472 67.5514 179.112 67.5514 180.76V185H68.7994V180.68C68.7994 179.336 69.6794 178.472 70.7354 178.472C72.1914 178.472 72.5594 179.48 72.5594 180.52V185H73.8074V180.456C73.8074 178.52 73.1034 177.32 70.9594 177.32C69.8234 177.32 69.1354 177.864 68.5914 178.744C68.3514 178.232 67.8394 177.32 66.2234 177.32C64.9914 177.32 64.0634 178.008 63.7274 178.744H63.6954C63.6954 178.328 63.6634 177.912 63.6634 177.512H62.4794C62.4794 178.008 62.5434 178.6 62.5434 179.288V185ZM80.7335 185H81.9815V177.512H80.7335V185ZM80.4455 174.584C80.4455 175.112 80.8295 175.496 81.3575 175.496C81.8855 175.496 82.2695 175.112 82.2695 174.584C82.2695 174.088 81.8695 173.672 81.3575 173.672C80.8455 173.672 80.4455 174.088 80.4455 174.584ZM85.1053 185H86.3533V178.568H88.1773V177.512H86.3533V176.104C86.3533 174.808 86.4013 173.864 87.6973 173.864C87.9852 173.864 88.2733 173.928 88.5453 174.024L88.7213 172.904C88.4813 172.776 88.0813 172.712 87.7613 172.712C85.7453 172.712 85.1053 174.008 85.1053 175.832V177.512H83.4733V178.568H85.1053V185ZM93.9653 185H95.2133V181.352C95.2133 179.64 95.8853 178.568 97.4053 178.568C97.6293 178.568 97.8693 178.6 98.0773 178.664L98.1573 177.4C97.9813 177.336 97.8053 177.32 97.6453 177.32C96.4133 177.32 95.4853 178.008 95.1493 178.744H95.1173C95.1173 178.328 95.0853 177.912 95.0853 177.512H93.9013C93.9013 178.008 93.9653 178.6 93.9653 179.288V185ZM105.053 182.904C104.461 183.656 103.741 184.04 102.669 184.04C101.309 184.04 100.317 182.936 100.221 181.64H106.269V181.24C106.269 178.76 104.829 177.32 102.717 177.32C100.509 177.32 98.877 178.936 98.877 181.256C98.877 183.432 100.317 185.192 102.669 185.192C104.061 185.192 105.117 184.776 105.997 183.64L105.053 182.904ZM100.221 180.584C100.381 179.32 101.293 178.472 102.669 178.472C104.045 178.472 104.877 179.32 104.925 180.584H100.221ZM115.672 177.512H114.424V178.84H114.392C113.928 177.992 112.856 177.32 111.512 177.32C109.416 177.32 107.768 179.016 107.768 181.256C107.768 183.528 109.352 185.192 111.704 185.192C112.792 185.192 113.704 184.712 114.392 183.912H114.424V188.648H115.672V177.512ZM114.424 181.256C114.424 182.824 113.384 184.04 111.768 184.04C110.152 184.04 109.112 182.824 109.112 181.256C109.112 179.688 110.152 178.472 111.768 178.472C113.384 178.472 114.424 179.688 114.424 181.256ZM124.509 177.512H123.261V181.16C123.261 182.872 122.557 184.04 120.941 184.04C119.773 184.04 119.229 183.256 119.229 182.008V177.512H117.981V182.136C117.981 183.944 118.861 185.192 120.829 185.192C122.061 185.192 122.989 184.504 123.325 183.768H123.357C123.357 184.184 123.389 184.6 123.389 185H124.573C124.573 184.504 124.509 183.912 124.509 183.224V177.512ZM126.984 185H128.232V177.512H126.984V185ZM126.696 174.584C126.696 175.112 127.08 175.496 127.608 175.496C128.136 175.496 128.52 175.112 128.52 174.584C128.52 174.088 128.12 173.672 127.608 173.672C127.096 173.672 126.696 174.088 126.696 174.584ZM130.715 185H131.963V181.352C131.963 179.64 132.635 178.568 134.155 178.568C134.379 178.568 134.619 178.6 134.827 178.664L134.907 177.4C134.731 177.336 134.555 177.32 134.395 177.32C133.163 177.32 132.235 178.008 131.899 178.744H131.867C131.867 178.328 131.835 177.912 131.835 177.512H130.651C130.651 178.008 130.715 178.6 130.715 179.288V185ZM141.803 182.904C141.211 183.656 140.491 184.04 139.419 184.04C138.059 184.04 137.067 182.936 136.971 181.64H143.019V181.24C143.019 178.76 141.579 177.32 139.467 177.32C137.259 177.32 135.627 178.936 135.627 181.256C135.627 183.432 137.067 185.192 139.419 185.192C140.811 185.192 141.867 184.776 142.747 183.64L141.803 182.904ZM136.971 180.584C137.131 179.32 138.043 178.472 139.419 178.472C140.795 178.472 141.627 179.32 141.675 180.584H136.971ZM151.174 185H152.422V172.904H151.174V178.6H151.142C150.454 177.8 149.542 177.32 148.454 177.32C146.102 177.32 144.518 178.984 144.518 181.256C144.518 183.496 146.166 185.192 148.262 185.192C149.606 185.192 150.678 184.52 151.142 183.672H151.174V185ZM151.174 181.256C151.174 182.824 150.134 184.04 148.518 184.04C146.902 184.04 145.862 182.824 145.862 181.256C145.862 179.688 146.902 178.472 148.518 178.472C150.134 178.472 151.174 179.688 151.174 181.256ZM155.771 183.176C155.243 183.176 154.811 183.608 154.811 184.136C154.811 184.664 155.275 185.096 155.771 185.096C156.267 185.096 156.731 184.664 156.731 184.136C156.731 183.608 156.299 183.176 155.771 183.176Z" fill="#333333"/>
<g clip-path="url(#clip3_259_30600)">
<rect x="758" y="16" width="16" height="16" rx="8" fill="#DB3259"/>
<path d="M766.707 24L769.654 21.0533C769.703 21.0075 769.742 20.9523 769.769 20.891C769.797 20.8297 769.811 20.7635 769.813 20.6963C769.814 20.6292 769.801 20.5625 769.776 20.5002C769.751 20.438 769.714 20.3814 769.666 20.3339C769.619 20.2865 769.562 20.249 769.5 20.2239C769.438 20.1987 769.371 20.1864 769.304 20.1876C769.237 20.1888 769.171 20.2035 769.109 20.2308C769.048 20.2581 768.993 20.2975 768.947 20.3466L766 23.2933L763.054 20.3466C762.959 20.2583 762.833 20.2102 762.704 20.2125C762.574 20.2148 762.451 20.2673 762.359 20.3589C762.268 20.4505 762.215 20.5741 762.213 20.7036C762.211 20.8332 762.259 20.9585 762.347 21.0533L765.294 24L762.347 26.9466C762.253 27.0404 762.201 27.1675 762.201 27.3C762.201 27.4325 762.253 27.5596 762.347 27.6533C762.441 27.7469 762.568 27.7995 762.7 27.7995C762.833 27.7995 762.96 27.7469 763.054 27.6533L766 24.7066L768.947 27.6533C769.041 27.7469 769.168 27.7995 769.3 27.7995C769.433 27.7995 769.56 27.7469 769.654 27.6533C769.747 27.5596 769.8 27.4325 769.8 27.3C769.8 27.1675 769.747 27.0404 769.654 26.9466L766.707 24Z" fill="white"/>
<g clip-path="url(#clip4_259_30600)">
<rect width="107" height="36" transform="translate(503.5 16)" fill="#6C3078"/>
<path d="M524.606 37.5H528.302C530.682 37.5 533.552 35.932 533.552 32.544C533.552 29.184 531.116 27.588 528.512 27.588H524.606V37.5ZM526.37 35.904V29.184H527.98C530.136 29.184 531.704 30.136 531.704 32.544C531.704 34.952 529.898 35.904 527.686 35.904H526.37ZM534.739 34.14C534.739 36.254 536.363 37.668 538.393 37.668C540.423 37.668 542.047 36.254 542.047 34.14C542.047 32.026 540.423 30.612 538.393 30.612C536.363 30.612 534.739 32.026 534.739 34.14ZM536.419 34.14C536.419 33.09 537.161 32.124 538.393 32.124C539.625 32.124 540.367 33.09 540.367 34.14C540.367 35.19 539.625 36.156 538.393 36.156C537.161 36.156 536.419 35.19 536.419 34.14ZM545.048 37.5H546.784L548.198 32.908H548.226L549.822 37.5H551.488L553.77 30.78H552.076L550.676 35.484H550.648L549.192 30.78H547.372L546.014 35.484H545.986L544.53 30.78H542.71L545.048 37.5ZM554.763 37.5H556.443V33.832C556.443 32.936 556.877 32.124 557.983 32.124C559.159 32.124 559.215 33.356 559.215 34.098V37.5H560.895V33.258C560.895 31.886 560.251 30.612 558.445 30.612C557.325 30.612 556.695 31.186 556.387 31.858H556.359V30.78H554.763V37.5ZM562.83 37.5H564.51V26.916H562.83V37.5ZM566.102 34.14C566.102 36.254 567.726 37.668 569.756 37.668C571.786 37.668 573.41 36.254 573.41 34.14C573.41 32.026 571.786 30.612 569.756 30.612C567.726 30.612 566.102 32.026 566.102 34.14ZM567.782 34.14C567.782 33.09 568.524 32.124 569.756 32.124C570.988 32.124 571.73 33.09 571.73 34.14C571.73 35.19 570.988 36.156 569.756 36.156C568.524 36.156 567.782 35.19 567.782 34.14ZM579.183 37.5H580.695V33.636C580.695 32.684 580.695 30.612 577.825 30.612C576.761 30.612 575.711 30.934 574.969 31.69L575.851 32.572C576.299 32.152 576.943 31.872 577.643 31.872C578.539 31.872 579.183 32.306 579.183 33.132V33.314H578.763C577.083 33.314 574.535 33.468 574.535 35.652C574.535 36.982 575.739 37.668 576.985 37.668C577.881 37.668 578.665 37.332 579.141 36.576H579.183V37.5ZM579.085 34.868C579.085 35.806 578.539 36.408 577.391 36.408C576.845 36.408 576.215 36.142 576.215 35.526C576.215 34.56 577.811 34.49 578.735 34.49H579.085V34.868ZM587.823 37.5H589.419V26.916H587.739V31.634H587.697C587.347 31.2 586.675 30.612 585.415 30.612C583.497 30.612 582.167 32.152 582.167 34.14C582.167 36.128 583.413 37.668 585.485 37.668C586.423 37.668 587.305 37.304 587.795 36.492H587.823V37.5ZM583.847 34.14C583.847 33.09 584.589 32.124 585.821 32.124C587.053 32.124 587.795 33.09 587.795 34.14C587.795 35.19 587.053 36.156 585.821 36.156C584.589 36.156 583.847 35.19 583.847 34.14Z" fill="white"/>
<rect width="36" height="36" transform="translate(610.5 16)" fill="#502252"/>
<path d="M628.5 36.1684C628.434 36.1687 628.369 36.1559 628.308 36.1307C628.248 36.1055 628.193 36.0685 628.147 36.0217L624.813 32.6884C624.747 32.5911 624.717 32.4735 624.729 32.3563C624.74 32.2391 624.793 32.1298 624.878 32.0477C624.962 31.9656 625.073 31.9159 625.19 31.9075C625.308 31.8991 625.425 31.9325 625.52 32.0017L628.5 34.9617L631.48 32.0017C631.574 31.9408 631.686 31.9132 631.797 31.9233C631.909 31.9334 632.014 31.9807 632.095 32.0576C632.177 32.1344 632.23 32.2364 632.246 32.3472C632.263 32.4579 632.242 32.571 632.187 32.6684L628.853 36.0017C628.809 36.0521 628.755 36.0929 628.694 36.1215C628.633 36.1502 628.567 36.1661 628.5 36.1684Z" fill="white"/>
</g>
<g filter="url(#filter1_dd_259_30600)">
<g clip-path="url(#clip5_259_30600)">
<rect width="200" height="40" transform="translate(503.5 56)" fill="white"/>
<path d="M520.7 80H525.052C527.276 80 530.604 78.512 530.604 74.336C530.604 70.16 527.276 68.672 525.052 68.672H520.7V80ZM522.044 69.92H524.604C527.196 69.92 529.164 71.232 529.164 74.336C529.164 77.44 527.196 78.752 524.604 78.752H522.044V69.92ZM532.111 76.256C532.111 78.592 533.807 80.192 536.111 80.192C538.415 80.192 540.111 78.592 540.111 76.256C540.111 73.92 538.415 72.32 536.111 72.32C533.807 72.32 532.111 73.92 532.111 76.256ZM533.455 76.256C533.455 74.688 534.495 73.472 536.111 73.472C537.727 73.472 538.767 74.688 538.767 76.256C538.767 77.824 537.727 79.04 536.111 79.04C534.495 79.04 533.455 77.824 533.455 76.256ZM552.491 72.512H551.147L549.451 78.272H549.419L547.451 72.512H546.139L544.203 78.272H544.171L542.459 72.512H541.083L543.515 80H544.795L546.683 74.24H546.715L548.843 80H550.075L552.491 72.512ZM553.903 80H555.151V76.352C555.151 74.64 555.855 73.472 557.471 73.472C558.639 73.472 559.183 74.256 559.183 75.504V80H560.431V75.376C560.431 73.568 559.551 72.32 557.583 72.32C556.351 72.32 555.423 73.008 555.087 73.744H555.055C555.055 73.328 555.023 72.912 555.023 72.512H553.839C553.839 73.008 553.903 73.6 553.903 74.288V80ZM562.905 80H564.153V67.904H562.905V80ZM566.205 76.256C566.205 78.592 567.901 80.192 570.205 80.192C572.509 80.192 574.205 78.592 574.205 76.256C574.205 73.92 572.509 72.32 570.205 72.32C567.901 72.32 566.205 73.92 566.205 76.256ZM567.549 76.256C567.549 74.688 568.589 73.472 570.205 73.472C571.821 73.472 572.861 74.688 572.861 76.256C572.861 77.824 571.821 79.04 570.205 79.04C568.589 79.04 567.549 77.824 567.549 76.256ZM576.825 74.288C577.417 73.744 578.249 73.472 579.049 73.472C580.217 73.472 580.905 74.032 580.905 75.12V75.344H580.425C578.585 75.344 575.705 75.488 575.705 77.968C575.705 79.424 576.969 80.192 578.489 80.192C579.625 80.192 580.457 79.648 580.953 78.88H580.985C580.985 79.2 580.985 79.664 581.065 80H582.265C582.201 79.616 582.153 79.136 582.153 78.704V75.488C582.153 73.376 581.225 72.32 579.017 72.32C577.929 72.32 576.809 72.688 576.041 73.472L576.825 74.288ZM580.905 76.4V76.88C580.873 78.096 580.137 79.136 578.697 79.136C577.753 79.136 577.049 78.784 577.049 77.84C577.049 76.832 578.073 76.4 579.657 76.4H580.905ZM590.658 80H591.906V67.904H590.658V73.6H590.626C589.938 72.8 589.026 72.32 587.938 72.32C585.586 72.32 584.002 73.984 584.002 76.256C584.002 78.496 585.65 80.192 587.746 80.192C589.09 80.192 590.162 79.52 590.626 78.672H590.658V80ZM590.658 76.256C590.658 77.824 589.618 79.04 588.002 79.04C586.386 79.04 585.346 77.824 585.346 76.256C585.346 74.688 586.386 73.472 588.002 73.472C589.618 73.472 590.658 74.688 590.658 76.256Z" fill="#333333"/>
<rect width="200" height="40" transform="translate(503.5 96)" fill="white"/>
<path d="M520.7 120H525.052C527.276 120 530.604 118.512 530.604 114.336C530.604 110.16 527.276 108.672 525.052 108.672H520.7V120ZM522.044 109.92H524.604C527.196 109.92 529.164 111.232 529.164 114.336C529.164 117.44 527.196 118.752 524.604 118.752H522.044V109.92ZM538.287 117.904C537.695 118.656 536.975 119.04 535.903 119.04C534.543 119.04 533.551 117.936 533.455 116.64H539.503V116.24C539.503 113.76 538.063 112.32 535.951 112.32C533.743 112.32 532.111 113.936 532.111 116.256C532.111 118.432 533.551 120.192 535.903 120.192C537.295 120.192 538.351 119.776 539.231 118.64L538.287 117.904ZM533.455 115.584C533.615 114.32 534.527 113.472 535.903 113.472C537.279 113.472 538.111 114.32 538.159 115.584H533.455ZM541.546 120H542.794V107.904H541.546V120ZM551.022 117.904C550.43 118.656 549.71 119.04 548.638 119.04C547.278 119.04 546.286 117.936 546.19 116.64H552.238V116.24C552.238 113.76 550.798 112.32 548.686 112.32C546.478 112.32 544.846 113.936 544.846 116.256C544.846 118.432 546.286 120.192 548.638 120.192C550.03 120.192 551.086 119.776 551.966 118.64L551.022 117.904ZM546.19 115.584C546.35 114.32 547.262 113.472 548.638 113.472C550.014 113.472 550.846 114.32 550.894 115.584H546.19ZM558.264 112.512H556.056V110.384H554.808V112.512H553.176V113.568H554.808V117.68C554.808 119.232 555.096 120.192 556.872 120.192C557.336 120.192 557.896 120.112 558.328 119.92L558.28 118.784C557.944 118.96 557.544 119.04 557.176 119.04C556.072 119.04 556.056 118.272 556.056 117.312V113.568H558.264V112.512ZM565.537 117.904C564.945 118.656 564.225 119.04 563.153 119.04C561.793 119.04 560.801 117.936 560.705 116.64H566.753V116.24C566.753 113.76 565.313 112.32 563.201 112.32C560.993 112.32 559.361 113.936 559.361 116.256C559.361 118.432 560.801 120.192 563.153 120.192C564.545 120.192 565.601 119.776 566.481 118.64L565.537 117.904ZM560.705 115.584C560.865 114.32 561.777 113.472 563.153 113.472C564.529 113.472 565.361 114.32 565.409 115.584H560.705Z" fill="#333333"/>
</g>
</g>
</g>
<rect x="441" y="4" width="345" height="129" stroke="#E6E6E6" stroke-width="8"/>
<path d="M446.264 161H450.488C453.208 161 456.488 159.208 456.488 155.336C456.488 151.496 453.704 149.672 450.728 149.672H446.264V161ZM448.28 159.176V151.496H450.12C452.584 151.496 454.376 152.584 454.376 155.336C454.376 158.088 452.312 159.176 449.784 159.176H448.28ZM457.845 157.16C457.845 159.576 459.701 161.192 462.021 161.192C464.341 161.192 466.197 159.576 466.197 157.16C466.197 154.744 464.341 153.128 462.021 153.128C459.701 153.128 457.845 154.744 457.845 157.16ZM459.765 157.16C459.765 155.96 460.613 154.856 462.021 154.856C463.429 154.856 464.277 155.96 464.277 157.16C464.277 158.36 463.429 159.464 462.021 159.464C460.613 159.464 459.765 158.36 459.765 157.16ZM467.994 161H469.914V156.808C469.914 155.784 470.41 154.856 471.674 154.856C473.018 154.856 473.082 156.264 473.082 157.112V161H475.002V156.152C475.002 154.584 474.266 153.128 472.202 153.128C470.922 153.128 470.202 153.784 469.85 154.552H469.818V153.32H467.994V161ZM476.926 153.896H478.638L479.998 149.672H478.046L476.926 153.896ZM482.323 154.952V158.472C482.323 160.28 482.803 161.192 484.835 161.192C485.283 161.192 485.955 161.128 486.355 160.936V159.32C486.115 159.496 485.651 159.56 485.315 159.56C484.467 159.56 484.243 159.08 484.243 158.312V154.952H486.355V153.32H484.243V151.096H482.323V153.32H480.739V154.952H482.323ZM487.854 159.88C487.854 160.568 488.462 161.096 489.134 161.096C489.838 161.096 490.414 160.536 490.414 159.848C490.414 159.16 489.822 158.632 489.134 158.632C488.43 158.632 487.854 159.192 487.854 159.88ZM487.854 154.456C487.854 155.144 488.462 155.672 489.134 155.672C489.838 155.672 490.414 155.112 490.414 154.424C490.414 153.736 489.822 153.208 489.134 153.208C488.43 153.208 487.854 153.768 487.854 154.456Z" fill="#333333"/>
<path d="M509.904 149.672H508.56V156.488C508.56 158.312 507.888 160.04 505.632 160.04C503.376 160.04 502.704 158.312 502.704 156.488V149.672H501.36V156.68C501.36 159.144 502.512 161.288 505.632 161.288C508.752 161.288 509.904 159.144 509.904 156.68V149.672ZM511.618 159.8C512.354 160.856 513.266 161.192 514.53 161.192C516.018 161.192 517.522 160.536 517.522 158.84C517.522 157.336 516.402 156.856 515.074 156.6C514.082 156.408 513.186 156.136 513.186 155.512C513.186 154.808 513.97 154.472 514.658 154.472C515.394 154.472 515.922 154.84 516.242 155.368L517.282 154.68C516.77 153.72 515.794 153.32 514.738 153.32C513.346 153.32 511.938 154.072 511.938 155.528C511.938 157.08 513.154 157.384 514.578 157.704C515.378 157.88 516.178 158.088 516.178 158.888C516.178 159.704 515.314 160.04 514.53 160.04C513.65 160.04 513.106 159.64 512.61 159.032L511.618 159.8ZM525.006 158.904C524.414 159.656 523.694 160.04 522.622 160.04C521.262 160.04 520.27 158.936 520.174 157.64H526.222V157.24C526.222 154.76 524.782 153.32 522.67 153.32C520.462 153.32 518.83 154.936 518.83 157.256C518.83 159.432 520.27 161.192 522.622 161.192C524.014 161.192 525.07 160.776 525.95 159.64L525.006 158.904ZM520.174 156.584C520.334 155.32 521.246 154.472 522.622 154.472C523.998 154.472 524.83 155.32 524.878 156.584H520.174ZM538.83 161H540.078V148.904H538.83V154.6H538.798C538.11 153.8 537.198 153.32 536.11 153.32C533.758 153.32 532.174 154.984 532.174 157.256C532.174 159.496 533.822 161.192 535.918 161.192C537.262 161.192 538.334 160.52 538.798 159.672H538.83V161ZM538.83 157.256C538.83 158.824 537.79 160.04 536.174 160.04C534.558 160.04 533.518 158.824 533.518 157.256C533.518 155.688 534.558 154.472 536.174 154.472C537.79 154.472 538.83 155.688 538.83 157.256ZM548.131 158.904C547.539 159.656 546.819 160.04 545.747 160.04C544.387 160.04 543.395 158.936 543.299 157.64H549.347V157.24C549.347 154.76 547.907 153.32 545.795 153.32C543.587 153.32 541.955 154.936 541.955 157.256C541.955 159.432 543.395 161.192 545.747 161.192C547.139 161.192 548.195 160.776 549.075 159.64L548.131 158.904ZM543.299 156.584C543.459 155.32 544.371 154.472 545.747 154.472C547.123 154.472 547.955 155.32 548.003 156.584H543.299ZM551.918 161H553.166V154.568H554.99V153.512H553.166V152.104C553.166 150.808 553.214 149.864 554.51 149.864C554.798 149.864 555.086 149.928 555.358 150.024L555.534 148.904C555.294 148.776 554.894 148.712 554.574 148.712C552.558 148.712 551.918 150.008 551.918 151.832V153.512H550.286V154.568H551.918V161ZM557.013 155.288C557.605 154.744 558.437 154.472 559.237 154.472C560.405 154.472 561.093 155.032 561.093 156.12V156.344H560.613C558.773 156.344 555.893 156.488 555.893 158.968C555.893 160.424 557.157 161.192 558.677 161.192C559.813 161.192 560.645 160.648 561.141 159.88H561.173C561.173 160.2 561.173 160.664 561.253 161H562.453C562.389 160.616 562.341 160.136 562.341 159.704V156.488C562.341 154.376 561.413 153.32 559.205 153.32C558.117 153.32 556.997 153.688 556.229 154.472L557.013 155.288ZM561.093 157.4V157.88C561.061 159.096 560.325 160.136 558.885 160.136C557.941 160.136 557.237 159.784 557.237 158.84C557.237 157.832 558.261 157.4 559.845 157.4H561.093ZM571.15 153.512H569.902V157.16C569.902 158.872 569.198 160.04 567.582 160.04C566.414 160.04 565.87 159.256 565.87 158.008V153.512H564.622V158.136C564.622 159.944 565.502 161.192 567.47 161.192C568.702 161.192 569.63 160.504 569.966 159.768H569.998C569.998 160.184 570.03 160.6 570.03 161H571.214C571.214 160.504 571.15 159.912 571.15 159.224V153.512ZM573.624 161H574.872V148.904H573.624V161ZM581.452 153.512H579.244V151.384H577.996V153.512H576.364V154.568H577.996V158.68C577.996 160.232 578.284 161.192 580.06 161.192C580.524 161.192 581.084 161.112 581.516 160.92L581.468 159.784C581.132 159.96 580.732 160.04 580.364 160.04C579.26 160.04 579.244 159.272 579.244 158.312V154.568H581.452V153.512ZM588.122 155.288C588.714 154.744 589.546 154.472 590.346 154.472C591.514 154.472 592.202 155.032 592.202 156.12V156.344H591.722C589.882 156.344 587.002 156.488 587.002 158.968C587.002 160.424 588.266 161.192 589.786 161.192C590.922 161.192 591.754 160.648 592.25 159.88H592.282C592.282 160.2 592.282 160.664 592.362 161H593.562C593.498 160.616 593.45 160.136 593.45 159.704V156.488C593.45 154.376 592.522 153.32 590.314 153.32C589.226 153.32 588.106 153.688 587.338 154.472L588.122 155.288ZM592.202 157.4V157.88C592.17 159.096 591.434 160.136 589.994 160.136C589.05 160.136 588.346 159.784 588.346 158.84C588.346 157.832 589.37 157.4 590.954 157.4H592.202ZM602.051 154.504C601.299 153.688 600.275 153.32 599.171 153.32C596.867 153.32 595.299 154.984 595.299 157.256C595.299 159.56 596.851 161.192 599.171 161.192C600.259 161.192 601.283 160.824 602.003 159.992L601.075 159.112C600.611 159.752 599.987 160.04 599.171 160.04C597.651 160.04 596.643 158.792 596.643 157.256C596.643 155.72 597.491 154.472 599.171 154.472C599.923 154.472 600.531 154.744 601.059 155.384L602.051 154.504ZM607.546 153.512H605.338V151.384H604.09V153.512H602.458V154.568H604.09V158.68C604.09 160.232 604.378 161.192 606.154 161.192C606.618 161.192 607.178 161.112 607.61 160.92L607.562 159.784C607.226 159.96 606.826 160.04 606.458 160.04C605.354 160.04 605.338 159.272 605.338 158.312V154.568H607.546V153.512ZM609.187 161H610.435V153.512H609.187V161ZM608.899 150.584C608.899 151.112 609.283 151.496 609.811 151.496C610.339 151.496 610.723 151.112 610.723 150.584C610.723 150.088 610.323 149.672 609.811 149.672C609.299 149.672 608.899 150.088 608.899 150.584ZM612.486 157.256C612.486 159.592 614.182 161.192 616.486 161.192C618.79 161.192 620.486 159.592 620.486 157.256C620.486 154.92 618.79 153.32 616.486 153.32C614.182 153.32 612.486 154.92 612.486 157.256ZM613.83 157.256C613.83 155.688 614.87 154.472 616.486 154.472C618.102 154.472 619.142 155.688 619.142 157.256C619.142 158.824 618.102 160.04 616.486 160.04C614.87 160.04 613.83 158.824 613.83 157.256ZM622.418 161H623.666V157.352C623.666 155.64 624.37 154.472 625.986 154.472C627.154 154.472 627.698 155.256 627.698 156.504V161H628.946V156.376C628.946 154.568 628.066 153.32 626.098 153.32C624.866 153.32 623.938 154.008 623.602 154.744H623.57C623.57 154.328 623.538 153.912 623.538 153.512H622.354C622.354 154.008 622.418 154.6 622.418 155.288V161ZM636.45 155.288C637.042 154.744 637.874 154.472 638.674 154.472C639.842 154.472 640.53 155.032 640.53 156.12V156.344H640.05C638.21 156.344 635.33 156.488 635.33 158.968C635.33 160.424 636.594 161.192 638.114 161.192C639.25 161.192 640.082 160.648 640.578 159.88H640.61C640.61 160.2 640.61 160.664 640.69 161H641.89C641.826 160.616 641.778 160.136 641.778 159.704V156.488C641.778 154.376 640.85 153.32 638.642 153.32C637.554 153.32 636.434 153.688 635.666 154.472L636.45 155.288ZM640.53 157.4V157.88C640.498 159.096 639.762 160.136 638.322 160.136C637.378 160.136 636.674 159.784 636.674 158.84C636.674 157.832 637.698 157.4 639.282 157.4H640.53ZM643.227 159.8C643.963 160.856 644.875 161.192 646.139 161.192C647.627 161.192 649.131 160.536 649.131 158.84C649.131 157.336 648.011 156.856 646.683 156.6C645.691 156.408 644.795 156.136 644.795 155.512C644.795 154.808 645.579 154.472 646.267 154.472C647.003 154.472 647.531 154.84 647.851 155.368L648.891 154.68C648.379 153.72 647.403 153.32 646.347 153.32C644.955 153.32 643.547 154.072 643.547 155.528C643.547 157.08 644.763 157.384 646.187 157.704C646.987 157.88 647.787 158.088 647.787 158.888C647.787 159.704 646.923 160.04 646.139 160.04C645.259 160.04 644.715 159.64 644.219 159.032L643.227 159.8ZM654.893 157.256C654.893 159.592 656.589 161.192 658.893 161.192C661.197 161.192 662.893 159.592 662.893 157.256C662.893 154.92 661.197 153.32 658.893 153.32C656.589 153.32 654.893 154.92 654.893 157.256ZM656.237 157.256C656.237 155.688 657.277 154.472 658.893 154.472C660.509 154.472 661.549 155.688 661.549 157.256C661.549 158.824 660.509 160.04 658.893 160.04C657.277 160.04 656.237 158.824 656.237 157.256ZM664.825 161H666.073V157.352C666.073 155.64 666.777 154.472 668.393 154.472C669.561 154.472 670.105 155.256 670.105 156.504V161H671.353V156.376C671.353 154.568 670.473 153.32 668.505 153.32C667.273 153.32 666.345 154.008 666.009 154.744H665.977C665.977 154.328 665.945 153.912 665.945 153.512H664.761C664.761 154.008 664.825 154.6 664.825 155.288V161ZM679.459 158.904C678.867 159.656 678.147 160.04 677.075 160.04C675.715 160.04 674.723 158.936 674.627 157.64H680.675V157.24C680.675 154.76 679.235 153.32 677.123 153.32C674.915 153.32 673.283 154.936 673.283 157.256C673.283 159.432 674.723 161.192 677.075 161.192C678.467 161.192 679.523 160.776 680.403 159.64L679.459 158.904ZM674.627 156.584C674.787 155.32 675.699 154.472 677.075 154.472C678.451 154.472 679.283 155.32 679.331 156.584H674.627ZM686.627 157.256C686.627 159.592 688.323 161.192 690.627 161.192C692.931 161.192 694.627 159.592 694.627 157.256C694.627 154.92 692.931 153.32 690.627 153.32C688.323 153.32 686.627 154.92 686.627 157.256ZM687.971 157.256C687.971 155.688 689.011 154.472 690.627 154.472C692.243 154.472 693.283 155.688 693.283 157.256C693.283 158.824 692.243 160.04 690.627 160.04C689.011 160.04 687.971 158.824 687.971 157.256ZM697.199 161H698.447V154.568H700.271V153.512H698.447V152.104C698.447 150.808 698.495 149.864 699.791 149.864C700.079 149.864 700.367 149.928 700.639 150.024L700.815 148.904C700.575 148.776 700.175 148.712 699.855 148.712C697.839 148.712 697.199 150.008 697.199 151.832V153.512H695.567V154.568H697.199V161ZM710.155 153.512H707.947V151.384H706.699V153.512H705.067V154.568H706.699V158.68C706.699 160.232 706.987 161.192 708.763 161.192C709.227 161.192 709.787 161.112 710.219 160.92L710.171 159.784C709.835 159.96 709.435 160.04 709.067 160.04C707.963 160.04 707.947 159.272 707.947 158.312V154.568H710.155V153.512ZM711.684 161H712.932V157.352C712.932 155.64 713.636 154.472 715.252 154.472C716.42 154.472 716.964 155.256 716.964 156.504V161H718.212V156.376C718.212 154.568 717.332 153.32 715.364 153.32C714.196 153.32 713.3 153.96 712.964 154.552H712.932V148.904H711.684V161ZM726.319 158.904C725.727 159.656 725.007 160.04 723.935 160.04C722.575 160.04 721.583 158.936 721.487 157.64H727.535V157.24C727.535 154.76 726.095 153.32 723.983 153.32C721.775 153.32 720.143 154.936 720.143 157.256C720.143 159.432 721.583 161.192 723.935 161.192C725.327 161.192 726.383 160.776 727.263 159.64L726.319 158.904ZM721.487 156.584C721.647 155.32 722.559 154.472 723.935 154.472C725.311 154.472 726.143 155.32 726.191 156.584H721.487ZM500.752 181.256C500.752 183.592 502.448 185.192 504.752 185.192C507.056 185.192 508.752 183.592 508.752 181.256C508.752 178.92 507.056 177.32 504.752 177.32C502.448 177.32 500.752 178.92 500.752 181.256ZM502.096 181.256C502.096 179.688 503.136 178.472 504.752 178.472C506.368 178.472 507.408 179.688 507.408 181.256C507.408 182.824 506.368 184.04 504.752 184.04C503.136 184.04 502.096 182.824 502.096 181.256ZM510.62 188.648H511.868V183.672H511.9C512.364 184.52 513.436 185.192 514.78 185.192C516.876 185.192 518.524 183.496 518.524 181.256C518.524 178.984 516.94 177.32 514.588 177.32C513.5 177.32 512.588 177.8 511.9 178.6H511.868V177.512H510.62V188.648ZM511.868 181.256C511.868 179.688 512.908 178.472 514.524 178.472C516.14 178.472 517.18 179.688 517.18 181.256C517.18 182.824 516.14 184.04 514.524 184.04C512.908 184.04 511.868 182.824 511.868 181.256ZM524.561 177.512H522.353V175.384H521.105V177.512H519.473V178.568H521.105V182.68C521.105 184.232 521.393 185.192 523.169 185.192C523.633 185.192 524.193 185.112 524.625 184.92L524.577 183.784C524.241 183.96 523.841 184.04 523.473 184.04C522.369 184.04 522.353 183.272 522.353 182.312V178.568H524.561V177.512ZM526.202 185H527.45V177.512H526.202V185ZM525.914 174.584C525.914 175.112 526.298 175.496 526.826 175.496C527.354 175.496 527.738 175.112 527.738 174.584C527.738 174.088 527.338 173.672 526.826 173.672C526.314 173.672 525.914 174.088 525.914 174.584ZM529.502 181.256C529.502 183.592 531.198 185.192 533.502 185.192C535.806 185.192 537.502 183.592 537.502 181.256C537.502 178.92 535.806 177.32 533.502 177.32C531.198 177.32 529.502 178.92 529.502 181.256ZM530.846 181.256C530.846 179.688 531.886 178.472 533.502 178.472C535.118 178.472 536.158 179.688 536.158 181.256C536.158 182.824 535.118 184.04 533.502 184.04C531.886 184.04 530.846 182.824 530.846 181.256ZM539.434 185H540.682V181.352C540.682 179.64 541.386 178.472 543.002 178.472C544.17 178.472 544.714 179.256 544.714 180.504V185H545.962V180.376C545.962 178.568 545.082 177.32 543.114 177.32C541.882 177.32 540.954 178.008 540.618 178.744H540.586C540.586 178.328 540.554 177.912 540.554 177.512H539.37C539.37 178.008 539.434 178.6 539.434 179.288V185ZM547.493 183.8C548.229 184.856 549.141 185.192 550.405 185.192C551.893 185.192 553.397 184.536 553.397 182.84C553.397 181.336 552.277 180.856 550.949 180.6C549.957 180.408 549.061 180.136 549.061 179.512C549.061 178.808 549.845 178.472 550.533 178.472C551.269 178.472 551.797 178.84 552.117 179.368L553.157 178.68C552.645 177.72 551.669 177.32 550.613 177.32C549.221 177.32 547.813 178.072 547.813 179.528C547.813 181.08 549.029 181.384 550.453 181.704C551.253 181.88 552.053 182.088 552.053 182.888C552.053 183.704 551.189 184.04 550.405 184.04C549.525 184.04 548.981 183.64 548.485 183.032L547.493 183.8ZM559.702 185H560.95V177.512H559.702V185ZM559.414 174.584C559.414 175.112 559.798 175.496 560.326 175.496C560.854 175.496 561.238 175.112 561.238 174.584C561.238 174.088 560.838 173.672 560.326 173.672C559.814 173.672 559.414 174.088 559.414 174.584ZM563.434 185H564.682V181.352C564.682 179.64 565.386 178.472 567.002 178.472C568.17 178.472 568.714 179.256 568.714 180.504V185H569.962V180.376C569.962 178.568 569.082 177.32 567.114 177.32C565.882 177.32 564.954 178.008 564.618 178.744H564.586C564.586 178.328 564.554 177.912 564.554 177.512H563.37C563.37 178.008 563.434 178.6 563.434 179.288V185ZM571.493 183.8C572.229 184.856 573.141 185.192 574.405 185.192C575.893 185.192 577.397 184.536 577.397 182.84C577.397 181.336 576.277 180.856 574.949 180.6C573.957 180.408 573.061 180.136 573.061 179.512C573.061 178.808 573.845 178.472 574.533 178.472C575.269 178.472 575.797 178.84 576.117 179.368L577.157 178.68C576.645 177.72 575.669 177.32 574.613 177.32C573.221 177.32 571.813 178.072 571.813 179.528C571.813 181.08 573.029 181.384 574.453 181.704C575.253 181.88 576.053 182.088 576.053 182.888C576.053 183.704 575.189 184.04 574.405 184.04C573.525 184.04 572.981 183.64 572.485 183.032L571.493 183.8ZM579.249 185H580.497V177.512H579.249V185ZM578.961 174.584C578.961 175.112 579.345 175.496 579.873 175.496C580.401 175.496 580.785 175.112 580.785 174.584C580.785 174.088 580.385 173.672 579.873 173.672C579.361 173.672 578.961 174.088 578.961 174.584ZM589.205 185H590.453V172.904H589.205V178.6H589.173C588.485 177.8 587.573 177.32 586.485 177.32C584.133 177.32 582.549 178.984 582.549 181.256C582.549 183.496 584.197 185.192 586.293 185.192C587.637 185.192 588.709 184.52 589.173 183.672H589.205V185ZM589.205 181.256C589.205 182.824 588.165 184.04 586.549 184.04C584.933 184.04 583.893 182.824 583.893 181.256C583.893 179.688 584.933 178.472 586.549 178.472C588.165 178.472 589.205 179.688 589.205 181.256ZM598.506 182.904C597.914 183.656 597.194 184.04 596.122 184.04C594.762 184.04 593.77 182.936 593.674 181.64H599.722V181.24C599.722 178.76 598.282 177.32 596.17 177.32C593.962 177.32 592.33 178.936 592.33 181.256C592.33 183.432 593.77 185.192 596.122 185.192C597.514 185.192 598.57 184.776 599.45 183.64L598.506 182.904ZM593.674 180.584C593.834 179.32 594.746 178.472 596.122 178.472C597.498 178.472 598.33 179.32 598.378 180.584H593.674ZM610.202 177.512H607.994V175.384H606.746V177.512H605.114V178.568H606.746V182.68C606.746 184.232 607.034 185.192 608.81 185.192C609.274 185.192 609.834 185.112 610.266 184.92L610.218 183.784C609.882 183.96 609.482 184.04 609.114 184.04C608.01 184.04 607.994 183.272 607.994 182.312V178.568H610.202V177.512ZM611.731 185H612.979V181.352C612.979 179.64 613.683 178.472 615.299 178.472C616.467 178.472 617.011 179.256 617.011 180.504V185H618.259V180.376C618.259 178.568 617.379 177.32 615.411 177.32C614.243 177.32 613.347 177.96 613.011 178.552H612.979V172.904H611.731V185ZM626.366 182.904C625.774 183.656 625.054 184.04 623.982 184.04C622.622 184.04 621.63 182.936 621.534 181.64H627.582V181.24C627.582 178.76 626.142 177.32 624.03 177.32C621.822 177.32 620.19 178.936 620.19 181.256C620.19 183.432 621.63 185.192 623.982 185.192C625.374 185.192 626.43 184.776 627.31 183.64L626.366 182.904ZM621.534 180.584C621.694 179.32 622.606 178.472 623.982 178.472C625.358 178.472 626.19 179.32 626.238 180.584H621.534ZM633.965 185H635.213V181.352C635.213 179.64 635.917 178.472 637.533 178.472C638.557 178.472 638.973 179.112 638.973 180.76V185H640.221V180.68C640.221 179.336 641.101 178.472 642.157 178.472C643.613 178.472 643.981 179.48 643.981 180.52V185H645.229V180.456C645.229 178.52 644.525 177.32 642.381 177.32C641.245 177.32 640.557 177.864 640.013 178.744C639.773 178.232 639.261 177.32 637.645 177.32C636.413 177.32 635.485 178.008 635.149 178.744H635.117C635.117 178.328 635.085 177.912 635.085 177.512H633.901C633.901 178.008 633.965 178.6 633.965 179.288V185ZM653.334 182.904C652.742 183.656 652.022 184.04 650.95 184.04C649.59 184.04 648.598 182.936 648.502 181.64H654.55V181.24C654.55 178.76 653.11 177.32 650.998 177.32C648.79 177.32 647.158 178.936 647.158 181.256C647.158 183.432 648.598 185.192 650.95 185.192C652.342 185.192 653.398 184.776 654.278 183.64L653.334 182.904ZM648.502 180.584C648.662 179.32 649.574 178.472 650.95 178.472C652.326 178.472 653.158 179.32 653.206 180.584H648.502ZM656.481 185H657.729V181.352C657.729 179.64 658.433 178.472 660.049 178.472C661.217 178.472 661.761 179.256 661.761 180.504V185H663.009V180.376C663.009 178.568 662.129 177.32 660.161 177.32C658.929 177.32 658.001 178.008 657.665 178.744H657.633C657.633 178.328 657.601 177.912 657.601 177.512H656.417C656.417 178.008 656.481 178.6 656.481 179.288V185ZM671.9 177.512H670.652V181.16C670.652 182.872 669.948 184.04 668.332 184.04C667.164 184.04 666.62 183.256 666.62 182.008V177.512H665.372V182.136C665.372 183.944 666.252 185.192 668.22 185.192C669.452 185.192 670.38 184.504 670.716 183.768H670.748C670.748 184.184 670.78 184.6 670.78 185H671.964C671.964 184.504 671.9 183.912 671.9 183.224V177.512ZM675.302 183.176C674.774 183.176 674.342 183.608 674.342 184.136C674.342 184.664 674.806 185.096 675.302 185.096C675.798 185.096 676.262 184.664 676.262 184.136C676.262 183.608 675.83 183.176 675.302 183.176Z" fill="#333333"/>
<defs>
<filter id="filter0_dd_259_30600" x="56.5" y="48" width="220" height="180" filterUnits="userSpaceOnUse" color-interpolation-filters="sRGB">
<feFlood flood-opacity="0" result="BackgroundImageFix"/>
<feColorMatrix in="SourceAlpha" type="matrix" values="0 0 0 0 0 0 0 0 0 0 0 0 0 0 0 0 0 0 127 0" result="hardAlpha"/>
<feOffset dy="4"/>
<feGaussianBlur stdDeviation="2"/>
<feColorMatrix type="matrix" values="0 0 0 0 0 0 0 0 0 0 0 0 0 0 0 0 0 0 0.18 0"/>
<feBlend mode="normal" in2="BackgroundImageFix" result="effect1_dropShadow_259_30600"/>
<feColorMatrix in="SourceAlpha" type="matrix" values="0 0 0 0 0 0 0 0 0 0 0 0 0 0 0 0 0 0 127 0" result="hardAlpha"/>
<feOffset dy="2"/>
<feGaussianBlur stdDeviation="5"/>
<feComposite in2="hardAlpha" operator="out"/>
<feColorMatrix type="matrix" values="0 0 0 0 0 0 0 0 0 0 0 0 0 0 0 0 0 0 0.12 0"/>
<feBlend mode="normal" in2="effect1_dropShadow_259_30600" result="effect2_dropShadow_259_30600"/>
<feBlend mode="normal" in="SourceGraphic" in2="effect2_dropShadow_259_30600" result="shape"/>
</filter>
<filter id="filter1_dd_259_30600" x="493.5" y="48" width="220" height="180" filterUnits="userSpaceOnUse" color-interpolation-filters="sRGB">
<feFlood flood-opacity="0" result="BackgroundImageFix"/>
<feColorMatrix in="SourceAlpha" type="matrix" values="0 0 0 0 0 0 0 0 0 0 0 0 0 0 0 0 0 0 127 0" result="hardAlpha"/>
<feOffset dy="4"/>
<feGaussianBlur stdDeviation="2"/>
<feColorMatrix type="matrix" values="0 0 0 0 0 0 0 0 0 0 0 0 0 0 0 0 0 0 0.18 0"/>
<feBlend mode="normal" in2="BackgroundImageFix" result="effect1_dropShadow_259_30600"/>
<feColorMatrix in="SourceAlpha" type="matrix" values="0 0 0 0 0 0 0 0 0 0 0 0 0 0 0 0 0 0 127 0" result="hardAlpha"/>
<feOffset dy="2"/>
<feGaussianBlur stdDeviation="5"/>
<feComposite in2="hardAlpha" operator="out"/>
<feColorMatrix type="matrix" values="0 0 0 0 0 0 0 0 0 0 0 0 0 0 0 0 0 0 0.12 0"/>
<feBlend mode="normal" in2="effect1_dropShadow_259_30600" result="effect2_dropShadow_259_30600"/>
<feBlend mode="normal" in="SourceGraphic" in2="effect2_dropShadow_259_30600" result="shape"/>
</filter>
<clipPath id="clip0_259_30600">
<rect x="8" y="8" width="337" height="121" fill="white"/>
</clipPath>
<clipPath id="clip1_259_30600">
<rect x="66.5" y="16" width="167" height="36" rx="4" fill="white"/>
</clipPath>
<clipPath id="clip2_259_30600">
<rect x="66.5" y="56" width="200" height="160" rx="4" fill="white"/>
</clipPath>
<clipPath id="clip3_259_30600">
<rect x="445" y="8" width="337" height="121" fill="white"/>
</clipPath>
<clipPath id="clip4_259_30600">
<rect x="503.5" y="16" width="143" height="36" rx="4" fill="white"/>
</clipPath>
<clipPath id="clip5_259_30600">
<rect x="503.5" y="56" width="200" height="160" rx="4" fill="white"/>
</clipPath>
</defs>
</svg>
