<svg width="208" height="100" viewBox="0 0 208 100" fill="none" xmlns="http://www.w3.org/2000/svg">
<rect width="100" height="100" rx="8" fill="#5666BC"/>
<path d="M23.232 53.5H26.186C28.02 53.5 30.05 52.912 30.05 50.728C30.05 49.426 29.084 48.404 27.81 48.292V48.264C28.874 47.942 29.546 47.172 29.546 46.024C29.546 44.204 27.894 43.588 26.256 43.588H23.232V53.5ZM24.408 44.68H26.158C27.222 44.68 28.286 44.96 28.286 46.178C28.286 47.55 27.138 47.788 26.032 47.788H24.408V44.68ZM24.408 48.88H26.424C27.614 48.88 28.79 49.3 28.79 50.686C28.79 51.946 27.544 52.408 26.396 52.408H24.408V48.88ZM31.9524 53.5H33.0444V42.916H31.9524V53.5ZM40.9296 46.948H39.8376V50.14C39.8376 51.638 39.2216 52.66 37.8076 52.66C36.7856 52.66 36.3096 51.974 36.3096 50.882V46.948H35.2176V50.994C35.2176 52.576 35.9876 53.668 37.7096 53.668C38.7876 53.668 39.5996 53.066 39.8936 52.422H39.9216C39.9216 52.786 39.9496 53.15 39.9496 53.5H40.9856C40.9856 53.066 40.9296 52.548 40.9296 51.946V46.948ZM48.0229 51.666C47.5049 52.324 46.8749 52.66 45.9369 52.66C44.7469 52.66 43.8789 51.694 43.7949 50.56H49.0869V50.21C49.0869 48.04 47.8269 46.78 45.9789 46.78C44.0469 46.78 42.6189 48.194 42.6189 50.224C42.6189 52.128 43.8789 53.668 45.9369 53.668C47.1549 53.668 48.0789 53.304 48.8489 52.31L48.0229 51.666ZM43.7949 49.636C43.9349 48.53 44.7329 47.788 45.9369 47.788C47.1409 47.788 47.8689 48.53 47.9109 49.636H43.7949ZM50.3562 50.644H53.7862V49.636H50.3562V50.644ZM61.0383 43.588H55.8443L55.7463 48.74C56.3343 48.39 57.0903 48.124 57.7623 48.124C59.1483 48.124 60.2123 48.922 60.2123 50.378C60.2123 51.75 59.2743 52.66 58.0843 52.66C57.2443 52.66 56.5723 52.156 56.2363 51.414L55.0603 51.862C55.5923 52.954 56.4883 53.668 57.9863 53.668C59.9183 53.668 61.3883 52.352 61.3883 50.378C61.3883 48.516 60.1283 47.116 58.2243 47.116C57.8183 47.116 57.3283 47.172 56.9503 47.354L56.9923 44.68H61.0383V43.588ZM62.7136 48.544C62.7136 50.798 63.3436 53.668 66.0736 53.668C68.8036 53.668 69.4336 50.798 69.4336 48.544C69.4336 46.29 68.8036 43.42 66.0736 43.42C63.3436 43.42 62.7136 46.29 62.7136 48.544ZM63.8896 48.544C63.8896 47.088 64.1136 44.428 66.0736 44.428C68.0336 44.428 68.2576 47.088 68.2576 48.544C68.2576 50 68.0336 52.66 66.0736 52.66C64.1136 52.66 63.8896 50 63.8896 48.544ZM70.4929 48.544C70.4929 50.798 71.1229 53.668 73.8529 53.668C76.5829 53.668 77.2129 50.798 77.2129 48.544C77.2129 46.29 76.5829 43.42 73.8529 43.42C71.1229 43.42 70.4929 46.29 70.4929 48.544ZM71.6689 48.544C71.6689 47.088 71.8929 44.428 73.8529 44.428C75.8129 44.428 76.0369 47.088 76.0369 48.544C76.0369 50 75.8129 52.66 73.8529 52.66C71.8929 52.66 71.6689 50 71.6689 48.544Z" fill="#F4FBFC"/>
<rect x="108" width="100" height="100" rx="8" fill="#F4FBFC"/>
<path d="M131.232 53.5H134.186C136.02 53.5 138.05 52.912 138.05 50.728C138.05 49.426 137.084 48.404 135.81 48.292V48.264C136.874 47.942 137.546 47.172 137.546 46.024C137.546 44.204 135.894 43.588 134.256 43.588H131.232V53.5ZM132.408 44.68H134.158C135.222 44.68 136.286 44.96 136.286 46.178C136.286 47.55 135.138 47.788 134.032 47.788H132.408V44.68ZM132.408 48.88H134.424C135.614 48.88 136.79 49.3 136.79 50.686C136.79 51.946 135.544 52.408 134.396 52.408H132.408V48.88ZM139.952 53.5H141.044V42.916H139.952V53.5ZM148.93 46.948H147.838V50.14C147.838 51.638 147.222 52.66 145.808 52.66C144.786 52.66 144.31 51.974 144.31 50.882V46.948H143.218V50.994C143.218 52.576 143.988 53.668 145.71 53.668C146.788 53.668 147.6 53.066 147.894 52.422H147.922C147.922 52.786 147.95 53.15 147.95 53.5H148.986C148.986 53.066 148.93 52.548 148.93 51.946V46.948ZM156.023 51.666C155.505 52.324 154.875 52.66 153.937 52.66C152.747 52.66 151.879 51.694 151.795 50.56H157.087V50.21C157.087 48.04 155.827 46.78 153.979 46.78C152.047 46.78 150.619 48.194 150.619 50.224C150.619 52.128 151.879 53.668 153.937 53.668C155.155 53.668 156.079 53.304 156.849 52.31L156.023 51.666ZM151.795 49.636C151.935 48.53 152.733 47.788 153.937 47.788C155.141 47.788 155.869 48.53 155.911 49.636H151.795ZM158.356 50.644H161.786V49.636H158.356V50.644ZM167.442 43.588H166.42L163.76 45.744L164.46 46.598L166.238 45.1H166.266V53.5H167.442V43.588ZM170.714 48.544C170.714 50.798 171.344 53.668 174.074 53.668C176.804 53.668 177.434 50.798 177.434 48.544C177.434 46.29 176.804 43.42 174.074 43.42C171.344 43.42 170.714 46.29 170.714 48.544ZM171.89 48.544C171.89 47.088 172.114 44.428 174.074 44.428C176.034 44.428 176.258 47.088 176.258 48.544C176.258 50 176.034 52.66 174.074 52.66C172.114 52.66 171.89 50 171.89 48.544ZM178.493 48.544C178.493 50.798 179.123 53.668 181.853 53.668C184.583 53.668 185.213 50.798 185.213 48.544C185.213 46.29 184.583 43.42 181.853 43.42C179.123 43.42 178.493 46.29 178.493 48.544ZM179.669 48.544C179.669 47.088 179.893 44.428 181.853 44.428C183.813 44.428 184.037 47.088 184.037 48.544C184.037 50 183.813 52.66 181.853 52.66C179.893 52.66 179.669 50 179.669 48.544Z" fill="#5666BC"/>
</svg>
