<svg width="208" height="100" viewBox="0 0 208 100" fill="none" xmlns="http://www.w3.org/2000/svg">
<rect width="100" height="100" rx="8" fill="#DA2901"/>
<path d="M17.838 53.752C20.848 53.752 23.018 51.54 23.018 48.544C23.018 45.548 20.848 43.336 17.838 43.336C14.828 43.336 12.658 45.548 12.658 48.544C12.658 51.54 14.828 53.752 17.838 53.752ZM17.838 52.66C15.514 52.66 13.918 50.826 13.918 48.544C13.918 46.262 15.514 44.428 17.838 44.428C20.162 44.428 21.758 46.262 21.758 48.544C21.758 50.826 20.162 52.66 17.838 52.66ZM24.7118 53.5H25.8038V50.308C25.8038 48.81 26.3918 47.872 27.7218 47.872C27.9178 47.872 28.1278 47.9 28.3098 47.956L28.3798 46.85C28.2258 46.794 28.0718 46.78 27.9318 46.78C26.8538 46.78 26.0418 47.382 25.7478 48.026H25.7198C25.7198 47.662 25.6918 47.298 25.6918 46.948H24.6558C24.6558 47.382 24.7118 47.9 24.7118 48.502V53.5ZM30.2357 48.502C30.7537 48.026 31.4817 47.788 32.1817 47.788C33.2037 47.788 33.8057 48.278 33.8057 49.23V49.426H33.3857C31.7757 49.426 29.2557 49.552 29.2557 51.722C29.2557 52.996 30.3617 53.668 31.6917 53.668C32.6857 53.668 33.4137 53.192 33.8477 52.52H33.8757C33.8757 52.8 33.8757 53.206 33.9457 53.5H34.9957C34.9397 53.164 34.8977 52.744 34.8977 52.366V49.552C34.8977 47.704 34.0857 46.78 32.1537 46.78C31.2017 46.78 30.2217 47.102 29.5497 47.788L30.2357 48.502ZM33.8057 50.35V50.77C33.7777 51.834 33.1337 52.744 31.8737 52.744C31.0477 52.744 30.4317 52.436 30.4317 51.61C30.4317 50.728 31.3277 50.35 32.7137 50.35H33.8057ZM36.8934 53.5H37.9854V50.308C37.9854 48.81 38.6014 47.788 40.0154 47.788C41.0374 47.788 41.5134 48.474 41.5134 49.566V53.5H42.6054V49.454C42.6054 47.872 41.8354 46.78 40.1134 46.78C39.0354 46.78 38.2234 47.382 37.9294 48.026H37.9014C37.9014 47.662 37.8734 47.298 37.8734 46.948H36.8374C36.8374 47.382 36.8934 47.9 36.8934 48.502V53.5ZM51.2107 46.948H50.1187V48.068H50.0907C49.6567 47.2 48.6627 46.78 47.7807 46.78C45.6947 46.78 44.2947 48.082 44.2947 50.224C44.2947 52.156 45.7227 53.584 47.7807 53.584C48.6487 53.584 49.5727 53.206 50.0907 52.366H50.1187V53.206C50.1187 54.592 49.6007 55.852 47.6407 55.852C46.6327 55.852 45.8907 55.46 45.2047 54.718L44.4207 55.614C45.3447 56.524 46.3667 56.86 47.6407 56.86C49.9367 56.86 51.2107 55.572 51.2107 53.206V46.948ZM45.4707 50.224C45.4707 48.852 46.4087 47.788 47.7807 47.788C49.1667 47.788 50.1187 48.782 50.1187 50.196C50.1187 51.456 49.2787 52.576 47.7807 52.576C46.5067 52.576 45.4707 51.554 45.4707 50.224ZM58.2573 51.666C57.7393 52.324 57.1093 52.66 56.1713 52.66C54.9813 52.66 54.1133 51.694 54.0293 50.56H59.3213V50.21C59.3213 48.04 58.0613 46.78 56.2133 46.78C54.2813 46.78 52.8533 48.194 52.8533 50.224C52.8533 52.128 54.1133 53.668 56.1713 53.668C57.3893 53.668 58.3133 53.304 59.0833 52.31L58.2573 51.666ZM54.0293 49.636C54.1693 48.53 54.9673 47.788 56.1713 47.788C57.3753 47.788 58.1033 48.53 58.1453 49.636H54.0293ZM60.5906 50.644H64.0206V49.636H60.5906V50.644ZM71.2727 43.588H66.0787L65.9807 48.74C66.5687 48.39 67.3247 48.124 67.9967 48.124C69.3827 48.124 70.4467 48.922 70.4467 50.378C70.4467 51.75 69.5087 52.66 68.3187 52.66C67.4787 52.66 66.8067 52.156 66.4707 51.414L65.2947 51.862C65.8267 52.954 66.7227 53.668 68.2207 53.668C70.1527 53.668 71.6227 52.352 71.6227 50.378C71.6227 48.516 70.3627 47.116 68.4587 47.116C68.0527 47.116 67.5627 47.172 67.1847 47.354L67.2267 44.68H71.2727V43.588ZM72.948 48.544C72.948 50.798 73.578 53.668 76.308 53.668C79.038 53.668 79.668 50.798 79.668 48.544C79.668 46.29 79.038 43.42 76.308 43.42C73.578 43.42 72.948 46.29 72.948 48.544ZM74.124 48.544C74.124 47.088 74.348 44.428 76.308 44.428C78.268 44.428 78.492 47.088 78.492 48.544C78.492 50 78.268 52.66 76.308 52.66C74.348 52.66 74.124 50 74.124 48.544ZM80.7273 48.544C80.7273 50.798 81.3573 53.668 84.0873 53.668C86.8173 53.668 87.4473 50.798 87.4473 48.544C87.4473 46.29 86.8173 43.42 84.0873 43.42C81.3573 43.42 80.7273 46.29 80.7273 48.544ZM81.9033 48.544C81.9033 47.088 82.1273 44.428 84.0873 44.428C86.0473 44.428 86.2713 47.088 86.2713 48.544C86.2713 50 86.0473 52.66 84.0873 52.66C82.1273 52.66 81.9033 50 81.9033 48.544Z" fill="#FFF4EC"/>
<rect x="108" width="100" height="100" rx="8" fill="#FFF4EC"/>
<path d="M125.838 53.752C128.848 53.752 131.018 51.54 131.018 48.544C131.018 45.548 128.848 43.336 125.838 43.336C122.828 43.336 120.658 45.548 120.658 48.544C120.658 51.54 122.828 53.752 125.838 53.752ZM125.838 52.66C123.514 52.66 121.918 50.826 121.918 48.544C121.918 46.262 123.514 44.428 125.838 44.428C128.162 44.428 129.758 46.262 129.758 48.544C129.758 50.826 128.162 52.66 125.838 52.66ZM132.712 53.5H133.804V50.308C133.804 48.81 134.392 47.872 135.722 47.872C135.918 47.872 136.128 47.9 136.31 47.956L136.38 46.85C136.226 46.794 136.072 46.78 135.932 46.78C134.854 46.78 134.042 47.382 133.748 48.026H133.72C133.72 47.662 133.692 47.298 133.692 46.948H132.656C132.656 47.382 132.712 47.9 132.712 48.502V53.5ZM138.236 48.502C138.754 48.026 139.482 47.788 140.182 47.788C141.204 47.788 141.806 48.278 141.806 49.23V49.426H141.386C139.776 49.426 137.256 49.552 137.256 51.722C137.256 52.996 138.362 53.668 139.692 53.668C140.686 53.668 141.414 53.192 141.848 52.52H141.876C141.876 52.8 141.876 53.206 141.946 53.5H142.996C142.94 53.164 142.898 52.744 142.898 52.366V49.552C142.898 47.704 142.086 46.78 140.154 46.78C139.202 46.78 138.222 47.102 137.55 47.788L138.236 48.502ZM141.806 50.35V50.77C141.778 51.834 141.134 52.744 139.874 52.744C139.048 52.744 138.432 52.436 138.432 51.61C138.432 50.728 139.328 50.35 140.714 50.35H141.806ZM144.893 53.5H145.985V50.308C145.985 48.81 146.601 47.788 148.015 47.788C149.037 47.788 149.513 48.474 149.513 49.566V53.5H150.605V49.454C150.605 47.872 149.835 46.78 148.113 46.78C147.035 46.78 146.223 47.382 145.929 48.026H145.901C145.901 47.662 145.873 47.298 145.873 46.948H144.837C144.837 47.382 144.893 47.9 144.893 48.502V53.5ZM159.211 46.948H158.119V48.068H158.091C157.657 47.2 156.663 46.78 155.781 46.78C153.695 46.78 152.295 48.082 152.295 50.224C152.295 52.156 153.723 53.584 155.781 53.584C156.649 53.584 157.573 53.206 158.091 52.366H158.119V53.206C158.119 54.592 157.601 55.852 155.641 55.852C154.633 55.852 153.891 55.46 153.205 54.718L152.421 55.614C153.345 56.524 154.367 56.86 155.641 56.86C157.937 56.86 159.211 55.572 159.211 53.206V46.948ZM153.471 50.224C153.471 48.852 154.409 47.788 155.781 47.788C157.167 47.788 158.119 48.782 158.119 50.196C158.119 51.456 157.279 52.576 155.781 52.576C154.507 52.576 153.471 51.554 153.471 50.224ZM166.257 51.666C165.739 52.324 165.109 52.66 164.171 52.66C162.981 52.66 162.113 51.694 162.029 50.56H167.321V50.21C167.321 48.04 166.061 46.78 164.213 46.78C162.281 46.78 160.853 48.194 160.853 50.224C160.853 52.128 162.113 53.668 164.171 53.668C165.389 53.668 166.313 53.304 167.083 52.31L166.257 51.666ZM162.029 49.636C162.169 48.53 162.967 47.788 164.171 47.788C165.375 47.788 166.103 48.53 166.145 49.636H162.029ZM168.591 50.644H172.021V49.636H168.591V50.644ZM177.677 43.588H176.655L173.995 45.744L174.695 46.598L176.473 45.1H176.501V53.5H177.677V43.588ZM180.948 48.544C180.948 50.798 181.578 53.668 184.308 53.668C187.038 53.668 187.668 50.798 187.668 48.544C187.668 46.29 187.038 43.42 184.308 43.42C181.578 43.42 180.948 46.29 180.948 48.544ZM182.124 48.544C182.124 47.088 182.348 44.428 184.308 44.428C186.268 44.428 186.492 47.088 186.492 48.544C186.492 50 186.268 52.66 184.308 52.66C182.348 52.66 182.124 50 182.124 48.544ZM188.727 48.544C188.727 50.798 189.357 53.668 192.087 53.668C194.817 53.668 195.447 50.798 195.447 48.544C195.447 46.29 194.817 43.42 192.087 43.42C189.357 43.42 188.727 46.29 188.727 48.544ZM189.903 48.544C189.903 47.088 190.127 44.428 192.087 44.428C194.047 44.428 194.271 47.088 194.271 48.544C194.271 50 194.047 52.66 192.087 52.66C190.127 52.66 189.903 50 189.903 48.544Z" fill="#DA2901"/>
</svg>
