<svg width="208" height="100" viewBox="0 0 208 100" fill="none" xmlns="http://www.w3.org/2000/svg">
<rect width="100" height="100" rx="8" fill="#D4254E"/>
<path d="M24.732 53.5H25.908V49.048H27.42L30.108 53.5H31.55L28.736 48.936C30.276 48.698 31.214 47.76 31.214 46.318C31.214 43.868 29.184 43.588 27.266 43.588H24.732V53.5ZM25.908 44.68H27.56C28.708 44.68 29.954 44.89 29.954 46.318C29.954 47.956 28.26 47.956 26.958 47.956H25.908V44.68ZM38.1206 51.666C37.6026 52.324 36.9726 52.66 36.0346 52.66C34.8446 52.66 33.9766 51.694 33.8926 50.56H39.1846V50.21C39.1846 48.04 37.9246 46.78 36.0766 46.78C34.1446 46.78 32.7166 48.194 32.7166 50.224C32.7166 52.128 33.9766 53.668 36.0346 53.668C37.2526 53.668 38.1766 53.304 38.9466 52.31L38.1206 51.666ZM33.8926 49.636C34.0326 48.53 34.8306 47.788 36.0346 47.788C37.2386 47.788 37.9666 48.53 38.0086 49.636H33.8926ZM46.3199 53.5H47.4119V42.916H46.3199V47.9H46.2919C45.6899 47.2 44.8919 46.78 43.9399 46.78C41.8819 46.78 40.4959 48.236 40.4959 50.224C40.4959 52.184 41.9379 53.668 43.7719 53.668C44.9479 53.668 45.8859 53.08 46.2919 52.338H46.3199V53.5ZM46.3199 50.224C46.3199 51.596 45.4099 52.66 43.9959 52.66C42.5819 52.66 41.6719 51.596 41.6719 50.224C41.6719 48.852 42.5819 47.788 43.9959 47.788C45.4099 47.788 46.3199 48.852 46.3199 50.224ZM49.0125 50.644H52.4425V49.636H49.0125V50.644ZM59.6946 43.588H54.5006L54.4026 48.74C54.9906 48.39 55.7466 48.124 56.4186 48.124C57.8046 48.124 58.8686 48.922 58.8686 50.378C58.8686 51.75 57.9306 52.66 56.7406 52.66C55.9006 52.66 55.2286 52.156 54.8926 51.414L53.7166 51.862C54.2486 52.954 55.1446 53.668 56.6426 53.668C58.5746 53.668 60.0446 52.352 60.0446 50.378C60.0446 48.516 58.7846 47.116 56.8806 47.116C56.4746 47.116 55.9846 47.172 55.6066 47.354L55.6486 44.68H59.6946V43.588ZM61.3699 48.544C61.3699 50.798 61.9999 53.668 64.7299 53.668C67.4599 53.668 68.0899 50.798 68.0899 48.544C68.0899 46.29 67.4599 43.42 64.7299 43.42C61.9999 43.42 61.3699 46.29 61.3699 48.544ZM62.5459 48.544C62.5459 47.088 62.7699 44.428 64.7299 44.428C66.6899 44.428 66.9139 47.088 66.9139 48.544C66.9139 50 66.6899 52.66 64.7299 52.66C62.7699 52.66 62.5459 50 62.5459 48.544ZM69.1492 48.544C69.1492 50.798 69.7792 53.668 72.5092 53.668C75.2392 53.668 75.8692 50.798 75.8692 48.544C75.8692 46.29 75.2392 43.42 72.5092 43.42C69.7792 43.42 69.1492 46.29 69.1492 48.544ZM70.3252 48.544C70.3252 47.088 70.5492 44.428 72.5092 44.428C74.4692 44.428 74.6932 47.088 74.6932 48.544C74.6932 50 74.4692 52.66 72.5092 52.66C70.5492 52.66 70.3252 50 70.3252 48.544Z" fill="#FEEFEF"/>
<rect x="108" width="100" height="100" rx="8" fill="#FEEFEF"/>
<path d="M132.732 53.5H133.908V49.048H135.42L138.108 53.5H139.55L136.736 48.936C138.276 48.698 139.214 47.76 139.214 46.318C139.214 43.868 137.184 43.588 135.266 43.588H132.732V53.5ZM133.908 44.68H135.56C136.708 44.68 137.954 44.89 137.954 46.318C137.954 47.956 136.26 47.956 134.958 47.956H133.908V44.68ZM146.121 51.666C145.603 52.324 144.973 52.66 144.035 52.66C142.845 52.66 141.977 51.694 141.893 50.56H147.185V50.21C147.185 48.04 145.925 46.78 144.077 46.78C142.145 46.78 140.717 48.194 140.717 50.224C140.717 52.128 141.977 53.668 144.035 53.668C145.253 53.668 146.177 53.304 146.947 52.31L146.121 51.666ZM141.893 49.636C142.033 48.53 142.831 47.788 144.035 47.788C145.239 47.788 145.967 48.53 146.009 49.636H141.893ZM154.32 53.5H155.412V42.916H154.32V47.9H154.292C153.69 47.2 152.892 46.78 151.94 46.78C149.882 46.78 148.496 48.236 148.496 50.224C148.496 52.184 149.938 53.668 151.772 53.668C152.948 53.668 153.886 53.08 154.292 52.338H154.32V53.5ZM154.32 50.224C154.32 51.596 153.41 52.66 151.996 52.66C150.582 52.66 149.672 51.596 149.672 50.224C149.672 48.852 150.582 47.788 151.996 47.788C153.41 47.788 154.32 48.852 154.32 50.224ZM157.012 50.644H160.442V49.636H157.012V50.644ZM166.099 43.588H165.077L162.417 45.744L163.117 46.598L164.895 45.1H164.923V53.5H166.099V43.588ZM169.37 48.544C169.37 50.798 170 53.668 172.73 53.668C175.46 53.668 176.09 50.798 176.09 48.544C176.09 46.29 175.46 43.42 172.73 43.42C170 43.42 169.37 46.29 169.37 48.544ZM170.546 48.544C170.546 47.088 170.77 44.428 172.73 44.428C174.69 44.428 174.914 47.088 174.914 48.544C174.914 50 174.69 52.66 172.73 52.66C170.77 52.66 170.546 50 170.546 48.544ZM177.149 48.544C177.149 50.798 177.779 53.668 180.509 53.668C183.239 53.668 183.869 50.798 183.869 48.544C183.869 46.29 183.239 43.42 180.509 43.42C177.779 43.42 177.149 46.29 177.149 48.544ZM178.325 48.544C178.325 47.088 178.549 44.428 180.509 44.428C182.469 44.428 182.693 47.088 182.693 48.544C182.693 50 182.469 52.66 180.509 52.66C178.549 52.66 178.325 50 178.325 48.544Z" fill="#D4254E"/>
</svg>
