<svg width="900" height="262" viewBox="0 0 900 262" fill="none" xmlns="http://www.w3.org/2000/svg">
<g clip-path="url(#clip0_348_35632)">
<rect width="100" height="100" transform="translate(0 78)" fill="#333333"/>
<path d="M34.232 131.5H37.186C39.02 131.5 41.05 130.912 41.05 128.728C41.05 127.426 40.084 126.404 38.81 126.292V126.264C39.874 125.942 40.546 125.172 40.546 124.024C40.546 122.204 38.894 121.588 37.256 121.588H34.232V131.5ZM35.408 122.68H37.158C38.222 122.68 39.286 122.96 39.286 124.178C39.286 125.55 38.138 125.788 37.032 125.788H35.408V122.68ZM35.408 126.88H37.424C38.614 126.88 39.79 127.3 39.79 128.686C39.79 129.946 38.544 130.408 37.396 130.408H35.408V126.88ZM42.9524 131.5H44.0444V120.916H42.9524V131.5ZM46.8196 126.502C47.3376 126.026 48.0656 125.788 48.7656 125.788C49.7876 125.788 50.3896 126.278 50.3896 127.23V127.426H49.9696C48.3596 127.426 45.8396 127.552 45.8396 129.722C45.8396 130.996 46.9456 131.668 48.2756 131.668C49.2696 131.668 49.9976 131.192 50.4316 130.52H50.4596C50.4596 130.8 50.4596 131.206 50.5296 131.5H51.5796C51.5236 131.164 51.4816 130.744 51.4816 130.366V127.552C51.4816 125.704 50.6696 124.78 48.7376 124.78C47.7856 124.78 46.8056 125.102 46.1336 125.788L46.8196 126.502ZM50.3896 128.35V128.77C50.3616 129.834 49.7176 130.744 48.4576 130.744C47.6316 130.744 47.0156 130.436 47.0156 129.61C47.0156 128.728 47.9116 128.35 49.2976 128.35H50.3896ZM59.0074 125.816C58.3494 125.102 57.4534 124.78 56.4874 124.78C54.4714 124.78 53.0994 126.236 53.0994 128.224C53.0994 130.24 54.4574 131.668 56.4874 131.668C57.4394 131.668 58.3354 131.346 58.9654 130.618L58.1534 129.848C57.7474 130.408 57.2014 130.66 56.4874 130.66C55.1574 130.66 54.2754 129.568 54.2754 128.224C54.2754 126.88 55.0174 125.788 56.4874 125.788C57.1454 125.788 57.6774 126.026 58.1394 126.586L59.0074 125.816ZM60.2313 131.5H61.3233V128.056L64.5713 131.5H66.1813L62.6953 127.93L65.8593 124.948H64.3053L61.3233 127.832V120.916H60.2313V131.5Z" fill="white"/>
<rect width="100" height="100" transform="translate(100 78)" fill="#616C7F"/>
<path d="M126.902 122.498C126.174 121.644 125.236 121.336 124.13 121.336C122.394 121.336 120.756 122.288 120.756 124.192C120.756 125.844 121.82 126.46 123.22 126.922C124.984 127.51 125.81 127.72 125.81 128.938C125.81 130.072 124.662 130.66 123.654 130.66C122.8 130.66 121.96 130.282 121.54 129.554L120.532 130.38C121.204 131.374 122.436 131.752 123.584 131.752C125.376 131.752 127.07 130.828 127.07 128.854C127.07 126.908 125.642 126.404 124.102 125.914C122.52 125.41 122.016 125.004 122.016 124.094C122.016 122.918 123.094 122.428 124.13 122.428C124.844 122.428 125.544 122.708 125.936 123.338L126.902 122.498ZM128.913 131.5H130.005V120.916H128.913V131.5ZM132.781 126.502C133.299 126.026 134.027 125.788 134.727 125.788C135.749 125.788 136.351 126.278 136.351 127.23V127.426H135.931C134.321 127.426 131.801 127.552 131.801 129.722C131.801 130.996 132.907 131.668 134.237 131.668C135.231 131.668 135.959 131.192 136.393 130.52H136.421C136.421 130.8 136.421 131.206 136.491 131.5H137.541C137.485 131.164 137.443 130.744 137.443 130.366V127.552C137.443 125.704 136.631 124.78 134.699 124.78C133.747 124.78 132.767 125.102 132.095 125.788L132.781 126.502ZM136.351 128.35V128.77C136.323 129.834 135.679 130.744 134.419 130.744C133.593 130.744 132.977 130.436 132.977 129.61C132.977 128.728 133.873 128.35 135.259 128.35H136.351ZM143.022 124.948H141.09V123.086H139.998V124.948H138.57V125.872H139.998V129.47C139.998 130.828 140.25 131.668 141.804 131.668C142.21 131.668 142.7 131.598 143.078 131.43L143.036 130.436C142.742 130.59 142.392 130.66 142.07 130.66C141.104 130.66 141.09 129.988 141.09 129.148V125.872H143.022V124.948ZM149.386 129.666C148.868 130.324 148.238 130.66 147.3 130.66C146.11 130.66 145.242 129.694 145.158 128.56H150.45V128.21C150.45 126.04 149.19 124.78 147.342 124.78C145.41 124.78 143.982 126.194 143.982 128.224C143.982 130.128 145.242 131.668 147.3 131.668C148.518 131.668 149.442 131.304 150.212 130.31L149.386 129.666ZM145.158 127.636C145.298 126.53 146.096 125.788 147.3 125.788C148.504 125.788 149.232 126.53 149.274 127.636H145.158ZM151.72 128.644H155.15V127.636H151.72V128.644ZM162.486 121.588H156.438V122.68H161.226L157.194 131.5H158.524L162.486 122.68V121.588ZM164.077 126.544C164.077 128.798 164.707 131.668 167.437 131.668C170.167 131.668 170.797 128.798 170.797 126.544C170.797 124.29 170.167 121.42 167.437 121.42C164.707 121.42 164.077 124.29 164.077 126.544ZM165.253 126.544C165.253 125.088 165.477 122.428 167.437 122.428C169.397 122.428 169.621 125.088 169.621 126.544C169.621 128 169.397 130.66 167.437 130.66C165.477 130.66 165.253 128 165.253 126.544ZM171.856 126.544C171.856 128.798 172.486 131.668 175.216 131.668C177.946 131.668 178.576 128.798 178.576 126.544C178.576 124.29 177.946 121.42 175.216 121.42C172.486 121.42 171.856 124.29 171.856 126.544ZM173.032 126.544C173.032 125.088 173.256 122.428 175.216 122.428C177.176 122.428 177.4 125.088 177.4 126.544C177.4 128 177.176 130.66 175.216 130.66C173.256 130.66 173.032 128 173.032 126.544Z" fill="white"/>
<rect width="100" height="100" transform="translate(200 78)" fill="#6B778C"/>
<path d="M226.902 122.498C226.174 121.644 225.236 121.336 224.13 121.336C222.394 121.336 220.756 122.288 220.756 124.192C220.756 125.844 221.82 126.46 223.22 126.922C224.984 127.51 225.81 127.72 225.81 128.938C225.81 130.072 224.662 130.66 223.654 130.66C222.8 130.66 221.96 130.282 221.54 129.554L220.532 130.38C221.204 131.374 222.436 131.752 223.584 131.752C225.376 131.752 227.07 130.828 227.07 128.854C227.07 126.908 225.642 126.404 224.102 125.914C222.52 125.41 222.016 125.004 222.016 124.094C222.016 122.918 223.094 122.428 224.13 122.428C224.844 122.428 225.544 122.708 225.936 123.338L226.902 122.498ZM228.913 131.5H230.005V120.916H228.913V131.5ZM232.781 126.502C233.299 126.026 234.027 125.788 234.727 125.788C235.749 125.788 236.351 126.278 236.351 127.23V127.426H235.931C234.321 127.426 231.801 127.552 231.801 129.722C231.801 130.996 232.907 131.668 234.237 131.668C235.231 131.668 235.959 131.192 236.393 130.52H236.421C236.421 130.8 236.421 131.206 236.491 131.5H237.541C237.485 131.164 237.443 130.744 237.443 130.366V127.552C237.443 125.704 236.631 124.78 234.699 124.78C233.747 124.78 232.767 125.102 232.095 125.788L232.781 126.502ZM236.351 128.35V128.77C236.323 129.834 235.679 130.744 234.419 130.744C233.593 130.744 232.977 130.436 232.977 129.61C232.977 128.728 233.873 128.35 235.259 128.35H236.351ZM243.022 124.948H241.09V123.086H239.998V124.948H238.57V125.872H239.998V129.47C239.998 130.828 240.25 131.668 241.804 131.668C242.21 131.668 242.7 131.598 243.078 131.43L243.036 130.436C242.742 130.59 242.392 130.66 242.07 130.66C241.104 130.66 241.09 129.988 241.09 129.148V125.872H243.022V124.948ZM249.386 129.666C248.868 130.324 248.238 130.66 247.3 130.66C246.11 130.66 245.242 129.694 245.158 128.56H250.45V128.21C250.45 126.04 249.19 124.78 247.342 124.78C245.41 124.78 243.982 126.194 243.982 128.224C243.982 130.128 245.242 131.668 247.3 131.668C248.518 131.668 249.442 131.304 250.212 130.31L249.386 129.666ZM245.158 127.636C245.298 126.53 246.096 125.788 247.3 125.788C248.504 125.788 249.232 126.53 249.274 127.636H245.158ZM251.72 128.644H255.15V127.636H251.72V128.644ZM262.402 121.588H257.208L257.11 126.74C257.698 126.39 258.454 126.124 259.126 126.124C260.512 126.124 261.576 126.922 261.576 128.378C261.576 129.75 260.638 130.66 259.448 130.66C258.608 130.66 257.936 130.156 257.6 129.414L256.424 129.862C256.956 130.954 257.852 131.668 259.35 131.668C261.282 131.668 262.752 130.352 262.752 128.378C262.752 126.516 261.492 125.116 259.588 125.116C259.182 125.116 258.692 125.172 258.314 125.354L258.356 122.68H262.402V121.588ZM264.077 126.544C264.077 128.798 264.707 131.668 267.437 131.668C270.167 131.668 270.797 128.798 270.797 126.544C270.797 124.29 270.167 121.42 267.437 121.42C264.707 121.42 264.077 124.29 264.077 126.544ZM265.253 126.544C265.253 125.088 265.477 122.428 267.437 122.428C269.397 122.428 269.621 125.088 269.621 126.544C269.621 128 269.397 130.66 267.437 130.66C265.477 130.66 265.253 128 265.253 126.544ZM271.856 126.544C271.856 128.798 272.486 131.668 275.216 131.668C277.946 131.668 278.576 128.798 278.576 126.544C278.576 124.29 277.946 121.42 275.216 121.42C272.486 121.42 271.856 124.29 271.856 126.544ZM273.032 126.544C273.032 125.088 273.256 122.428 275.216 122.428C277.176 122.428 277.4 125.088 277.4 126.544C277.4 128 277.176 130.66 275.216 130.66C273.256 130.66 273.032 128 273.032 126.544Z" fill="white"/>
<rect width="100" height="100" transform="translate(300 78)" fill="#9EA6B5"/>
<path d="M326.902 122.498C326.174 121.644 325.236 121.336 324.13 121.336C322.394 121.336 320.756 122.288 320.756 124.192C320.756 125.844 321.82 126.46 323.22 126.922C324.984 127.51 325.81 127.72 325.81 128.938C325.81 130.072 324.662 130.66 323.654 130.66C322.8 130.66 321.96 130.282 321.54 129.554L320.532 130.38C321.204 131.374 322.436 131.752 323.584 131.752C325.376 131.752 327.07 130.828 327.07 128.854C327.07 126.908 325.642 126.404 324.102 125.914C322.52 125.41 322.016 125.004 322.016 124.094C322.016 122.918 323.094 122.428 324.13 122.428C324.844 122.428 325.544 122.708 325.936 123.338L326.902 122.498ZM328.913 131.5H330.005V120.916H328.913V131.5ZM332.781 126.502C333.299 126.026 334.027 125.788 334.727 125.788C335.749 125.788 336.351 126.278 336.351 127.23V127.426H335.931C334.321 127.426 331.801 127.552 331.801 129.722C331.801 130.996 332.907 131.668 334.237 131.668C335.231 131.668 335.959 131.192 336.393 130.52H336.421C336.421 130.8 336.421 131.206 336.491 131.5H337.541C337.485 131.164 337.443 130.744 337.443 130.366V127.552C337.443 125.704 336.631 124.78 334.699 124.78C333.747 124.78 332.767 125.102 332.095 125.788L332.781 126.502ZM336.351 128.35V128.77C336.323 129.834 335.679 130.744 334.419 130.744C333.593 130.744 332.977 130.436 332.977 129.61C332.977 128.728 333.873 128.35 335.259 128.35H336.351ZM343.022 124.948H341.09V123.086H339.998V124.948H338.57V125.872H339.998V129.47C339.998 130.828 340.25 131.668 341.804 131.668C342.21 131.668 342.7 131.598 343.078 131.43L343.036 130.436C342.742 130.59 342.392 130.66 342.07 130.66C341.104 130.66 341.09 129.988 341.09 129.148V125.872H343.022V124.948ZM349.386 129.666C348.868 130.324 348.238 130.66 347.3 130.66C346.11 130.66 345.242 129.694 345.158 128.56H350.45V128.21C350.45 126.04 349.19 124.78 347.342 124.78C345.41 124.78 343.982 126.194 343.982 128.224C343.982 130.128 345.242 131.668 347.3 131.668C348.518 131.668 349.442 131.304 350.212 130.31L349.386 129.666ZM345.158 127.636C345.298 126.53 346.096 125.788 347.3 125.788C348.504 125.788 349.232 126.53 349.274 127.636H345.158ZM351.72 128.644H355.15V127.636H351.72V128.644ZM361.632 121.588H360.19L356.256 127.93V129.232H360.456V131.5H361.632V129.232H363.06V128.14H361.632V121.588ZM360.456 128.14H357.264L360.428 122.96H360.456V128.14ZM364.077 126.544C364.077 128.798 364.707 131.668 367.437 131.668C370.167 131.668 370.797 128.798 370.797 126.544C370.797 124.29 370.167 121.42 367.437 121.42C364.707 121.42 364.077 124.29 364.077 126.544ZM365.253 126.544C365.253 125.088 365.477 122.428 367.437 122.428C369.397 122.428 369.621 125.088 369.621 126.544C369.621 128 369.397 130.66 367.437 130.66C365.477 130.66 365.253 128 365.253 126.544ZM371.856 126.544C371.856 128.798 372.486 131.668 375.216 131.668C377.946 131.668 378.576 128.798 378.576 126.544C378.576 124.29 377.946 121.42 375.216 121.42C372.486 121.42 371.856 124.29 371.856 126.544ZM373.032 126.544C373.032 125.088 373.256 122.428 375.216 122.428C377.176 122.428 377.4 125.088 377.4 126.544C377.4 128 377.176 130.66 375.216 130.66C373.256 130.66 373.032 128 373.032 126.544Z" fill="#333333"/>
<rect width="100" height="100" transform="translate(400 78)" fill="#D2D6DD"/>
<path d="M426.902 122.498C426.174 121.644 425.236 121.336 424.13 121.336C422.394 121.336 420.756 122.288 420.756 124.192C420.756 125.844 421.82 126.46 423.22 126.922C424.984 127.51 425.81 127.72 425.81 128.938C425.81 130.072 424.662 130.66 423.654 130.66C422.8 130.66 421.96 130.282 421.54 129.554L420.532 130.38C421.204 131.374 422.436 131.752 423.584 131.752C425.376 131.752 427.07 130.828 427.07 128.854C427.07 126.908 425.642 126.404 424.102 125.914C422.52 125.41 422.016 125.004 422.016 124.094C422.016 122.918 423.094 122.428 424.13 122.428C424.844 122.428 425.544 122.708 425.936 123.338L426.902 122.498ZM428.913 131.5H430.005V120.916H428.913V131.5ZM432.781 126.502C433.299 126.026 434.027 125.788 434.727 125.788C435.749 125.788 436.351 126.278 436.351 127.23V127.426H435.931C434.321 127.426 431.801 127.552 431.801 129.722C431.801 130.996 432.907 131.668 434.237 131.668C435.231 131.668 435.959 131.192 436.393 130.52H436.421C436.421 130.8 436.421 131.206 436.491 131.5H437.541C437.485 131.164 437.443 130.744 437.443 130.366V127.552C437.443 125.704 436.631 124.78 434.699 124.78C433.747 124.78 432.767 125.102 432.095 125.788L432.781 126.502ZM436.351 128.35V128.77C436.323 129.834 435.679 130.744 434.419 130.744C433.593 130.744 432.977 130.436 432.977 129.61C432.977 128.728 433.873 128.35 435.259 128.35H436.351ZM443.022 124.948H441.09V123.086H439.998V124.948H438.57V125.872H439.998V129.47C439.998 130.828 440.25 131.668 441.804 131.668C442.21 131.668 442.7 131.598 443.078 131.43L443.036 130.436C442.742 130.59 442.392 130.66 442.07 130.66C441.104 130.66 441.09 129.988 441.09 129.148V125.872H443.022V124.948ZM449.386 129.666C448.868 130.324 448.238 130.66 447.3 130.66C446.11 130.66 445.242 129.694 445.158 128.56H450.45V128.21C450.45 126.04 449.19 124.78 447.342 124.78C445.41 124.78 443.982 126.194 443.982 128.224C443.982 130.128 445.242 131.668 447.3 131.668C448.518 131.668 449.442 131.304 450.212 130.31L449.386 129.666ZM445.158 127.636C445.298 126.53 446.096 125.788 447.3 125.788C448.504 125.788 449.232 126.53 449.274 127.636H445.158ZM451.72 128.644H455.15V127.636H451.72V128.644ZM458.622 126.796H458.986C460.204 126.796 461.492 127.258 461.492 128.714C461.492 129.862 460.596 130.66 459.476 130.66C458.384 130.66 457.81 130.254 457.474 129.19L456.284 129.582C456.788 131.052 457.978 131.668 459.476 131.668C461.24 131.668 462.752 130.688 462.752 128.798C462.752 127.552 461.982 126.516 460.722 126.306V126.278C461.716 125.97 462.416 125.046 462.416 124.01C462.416 122.302 461.044 121.42 459.462 121.42C458.202 121.42 457.068 121.98 456.592 123.1L457.726 123.534C458.076 122.806 458.72 122.428 459.546 122.428C460.54 122.428 461.24 123.058 461.24 124.066C461.24 125.564 459.966 125.788 458.986 125.788H458.622V126.796ZM464.077 126.544C464.077 128.798 464.707 131.668 467.437 131.668C470.167 131.668 470.797 128.798 470.797 126.544C470.797 124.29 470.167 121.42 467.437 121.42C464.707 121.42 464.077 124.29 464.077 126.544ZM465.253 126.544C465.253 125.088 465.477 122.428 467.437 122.428C469.397 122.428 469.621 125.088 469.621 126.544C469.621 128 469.397 130.66 467.437 130.66C465.477 130.66 465.253 128 465.253 126.544ZM471.856 126.544C471.856 128.798 472.486 131.668 475.216 131.668C477.946 131.668 478.576 128.798 478.576 126.544C478.576 124.29 477.946 121.42 475.216 121.42C472.486 121.42 471.856 124.29 471.856 126.544ZM473.032 126.544C473.032 125.088 473.256 122.428 475.216 122.428C477.176 122.428 477.4 125.088 477.4 126.544C477.4 128 477.176 130.66 475.216 130.66C473.256 130.66 473.032 128 473.032 126.544Z" fill="#333333"/>
<rect width="100" height="100" transform="translate(500 78)" fill="#E6E6E6"/>
<path d="M526.902 122.498C526.174 121.644 525.236 121.336 524.13 121.336C522.394 121.336 520.756 122.288 520.756 124.192C520.756 125.844 521.82 126.46 523.22 126.922C524.984 127.51 525.81 127.72 525.81 128.938C525.81 130.072 524.662 130.66 523.654 130.66C522.8 130.66 521.96 130.282 521.54 129.554L520.532 130.38C521.204 131.374 522.436 131.752 523.584 131.752C525.376 131.752 527.07 130.828 527.07 128.854C527.07 126.908 525.642 126.404 524.102 125.914C522.52 125.41 522.016 125.004 522.016 124.094C522.016 122.918 523.094 122.428 524.13 122.428C524.844 122.428 525.544 122.708 525.936 123.338L526.902 122.498ZM528.913 131.5H530.005V120.916H528.913V131.5ZM532.781 126.502C533.299 126.026 534.027 125.788 534.727 125.788C535.749 125.788 536.351 126.278 536.351 127.23V127.426H535.931C534.321 127.426 531.801 127.552 531.801 129.722C531.801 130.996 532.907 131.668 534.237 131.668C535.231 131.668 535.959 131.192 536.393 130.52H536.421C536.421 130.8 536.421 131.206 536.491 131.5H537.541C537.485 131.164 537.443 130.744 537.443 130.366V127.552C537.443 125.704 536.631 124.78 534.699 124.78C533.747 124.78 532.767 125.102 532.095 125.788L532.781 126.502ZM536.351 128.35V128.77C536.323 129.834 535.679 130.744 534.419 130.744C533.593 130.744 532.977 130.436 532.977 129.61C532.977 128.728 533.873 128.35 535.259 128.35H536.351ZM543.022 124.948H541.09V123.086H539.998V124.948H538.57V125.872H539.998V129.47C539.998 130.828 540.25 131.668 541.804 131.668C542.21 131.668 542.7 131.598 543.078 131.43L543.036 130.436C542.742 130.59 542.392 130.66 542.07 130.66C541.104 130.66 541.09 129.988 541.09 129.148V125.872H543.022V124.948ZM549.386 129.666C548.868 130.324 548.238 130.66 547.3 130.66C546.11 130.66 545.242 129.694 545.158 128.56H550.45V128.21C550.45 126.04 549.19 124.78 547.342 124.78C545.41 124.78 543.982 126.194 543.982 128.224C543.982 130.128 545.242 131.668 547.3 131.668C548.518 131.668 549.442 131.304 550.212 130.31L549.386 129.666ZM545.158 127.636C545.298 126.53 546.096 125.788 547.3 125.788C548.504 125.788 549.232 126.53 549.274 127.636H545.158ZM551.72 128.644H555.15V127.636H551.72V128.644ZM556.466 131.5H562.85V130.408H557.796V130.38L560.848 127.51C561.842 126.572 562.78 125.69 562.78 124.108C562.78 122.344 561.394 121.42 559.756 121.42C558.16 121.42 556.914 122.274 556.648 123.898L557.922 124.01C558.104 123.058 558.804 122.428 559.798 122.428C560.792 122.428 561.604 123.072 561.604 124.108C561.604 125.074 561.142 125.606 560.204 126.516L556.466 130.156V131.5ZM564.077 126.544C564.077 128.798 564.707 131.668 567.437 131.668C570.167 131.668 570.797 128.798 570.797 126.544C570.797 124.29 570.167 121.42 567.437 121.42C564.707 121.42 564.077 124.29 564.077 126.544ZM565.253 126.544C565.253 125.088 565.477 122.428 567.437 122.428C569.397 122.428 569.621 125.088 569.621 126.544C569.621 128 569.397 130.66 567.437 130.66C565.477 130.66 565.253 128 565.253 126.544ZM571.856 126.544C571.856 128.798 572.486 131.668 575.216 131.668C577.946 131.668 578.576 128.798 578.576 126.544C578.576 124.29 577.946 121.42 575.216 121.42C572.486 121.42 571.856 124.29 571.856 126.544ZM573.032 126.544C573.032 125.088 573.256 122.428 575.216 122.428C577.176 122.428 577.4 125.088 577.4 126.544C577.4 128 577.176 130.66 575.216 130.66C573.256 130.66 573.032 128 573.032 126.544Z" fill="#333333"/>
<rect width="100" height="100" transform="translate(600 78)" fill="#FAFAFA"/>
<path d="M626.902 122.498C626.174 121.644 625.236 121.336 624.13 121.336C622.394 121.336 620.756 122.288 620.756 124.192C620.756 125.844 621.82 126.46 623.22 126.922C624.984 127.51 625.81 127.72 625.81 128.938C625.81 130.072 624.662 130.66 623.654 130.66C622.8 130.66 621.96 130.282 621.54 129.554L620.532 130.38C621.204 131.374 622.436 131.752 623.584 131.752C625.376 131.752 627.07 130.828 627.07 128.854C627.07 126.908 625.642 126.404 624.102 125.914C622.52 125.41 622.016 125.004 622.016 124.094C622.016 122.918 623.094 122.428 624.13 122.428C624.844 122.428 625.544 122.708 625.936 123.338L626.902 122.498ZM628.913 131.5H630.005V120.916H628.913V131.5ZM632.781 126.502C633.299 126.026 634.027 125.788 634.727 125.788C635.749 125.788 636.351 126.278 636.351 127.23V127.426H635.931C634.321 127.426 631.801 127.552 631.801 129.722C631.801 130.996 632.907 131.668 634.237 131.668C635.231 131.668 635.959 131.192 636.393 130.52H636.421C636.421 130.8 636.421 131.206 636.491 131.5H637.541C637.485 131.164 637.443 130.744 637.443 130.366V127.552C637.443 125.704 636.631 124.78 634.699 124.78C633.747 124.78 632.767 125.102 632.095 125.788L632.781 126.502ZM636.351 128.35V128.77C636.323 129.834 635.679 130.744 634.419 130.744C633.593 130.744 632.977 130.436 632.977 129.61C632.977 128.728 633.873 128.35 635.259 128.35H636.351ZM643.022 124.948H641.09V123.086H639.998V124.948H638.57V125.872H639.998V129.47C639.998 130.828 640.25 131.668 641.804 131.668C642.21 131.668 642.7 131.598 643.078 131.43L643.036 130.436C642.742 130.59 642.392 130.66 642.07 130.66C641.104 130.66 641.09 129.988 641.09 129.148V125.872H643.022V124.948ZM649.386 129.666C648.868 130.324 648.238 130.66 647.3 130.66C646.11 130.66 645.242 129.694 645.158 128.56H650.45V128.21C650.45 126.04 649.19 124.78 647.342 124.78C645.41 124.78 643.982 126.194 643.982 128.224C643.982 130.128 645.242 131.668 647.3 131.668C648.518 131.668 649.442 131.304 650.212 130.31L649.386 129.666ZM645.158 127.636C645.298 126.53 646.096 125.788 647.3 125.788C648.504 125.788 649.232 126.53 649.274 127.636H645.158ZM651.72 128.644H655.15V127.636H651.72V128.644ZM660.806 121.588H659.784L657.124 123.744L657.824 124.598L659.602 123.1H659.63V131.5H660.806V121.588ZM664.077 126.544C664.077 128.798 664.707 131.668 667.437 131.668C670.167 131.668 670.797 128.798 670.797 126.544C670.797 124.29 670.167 121.42 667.437 121.42C664.707 121.42 664.077 124.29 664.077 126.544ZM665.253 126.544C665.253 125.088 665.477 122.428 667.437 122.428C669.397 122.428 669.621 125.088 669.621 126.544C669.621 128 669.397 130.66 667.437 130.66C665.477 130.66 665.253 128 665.253 126.544ZM671.856 126.544C671.856 128.798 672.486 131.668 675.216 131.668C677.946 131.668 678.576 128.798 678.576 126.544C678.576 124.29 677.946 121.42 675.216 121.42C672.486 121.42 671.856 124.29 671.856 126.544ZM673.032 126.544C673.032 125.088 673.256 122.428 675.216 122.428C677.176 122.428 677.4 125.088 677.4 126.544C677.4 128 677.176 130.66 675.216 130.66C673.256 130.66 673.032 128 673.032 126.544Z" fill="#333333"/>
<rect width="100" height="100" transform="translate(700 78)" fill="#E7EDF9"/>
<path d="M730.902 122.498C730.174 121.644 729.236 121.336 728.13 121.336C726.394 121.336 724.756 122.288 724.756 124.192C724.756 125.844 725.82 126.46 727.22 126.922C728.984 127.51 729.81 127.72 729.81 128.938C729.81 130.072 728.662 130.66 727.654 130.66C726.8 130.66 725.96 130.282 725.54 129.554L724.532 130.38C725.204 131.374 726.436 131.752 727.584 131.752C729.376 131.752 731.07 130.828 731.07 128.854C731.07 126.908 729.642 126.404 728.102 125.914C726.52 125.41 726.016 125.004 726.016 124.094C726.016 122.918 727.094 122.428 728.13 122.428C728.844 122.428 729.544 122.708 729.936 123.338L730.902 122.498ZM732.913 131.5H734.005V120.916H732.913V131.5ZM736.781 126.502C737.299 126.026 738.027 125.788 738.727 125.788C739.749 125.788 740.351 126.278 740.351 127.23V127.426H739.931C738.321 127.426 735.801 127.552 735.801 129.722C735.801 130.996 736.907 131.668 738.237 131.668C739.231 131.668 739.959 131.192 740.393 130.52H740.421C740.421 130.8 740.421 131.206 740.491 131.5H741.541C741.485 131.164 741.443 130.744 741.443 130.366V127.552C741.443 125.704 740.631 124.78 738.699 124.78C737.747 124.78 736.767 125.102 736.095 125.788L736.781 126.502ZM740.351 128.35V128.77C740.323 129.834 739.679 130.744 738.419 130.744C737.593 130.744 736.977 130.436 736.977 129.61C736.977 128.728 737.873 128.35 739.259 128.35H740.351ZM747.022 124.948H745.09V123.086H743.998V124.948H742.57V125.872H743.998V129.47C743.998 130.828 744.25 131.668 745.804 131.668C746.21 131.668 746.7 131.598 747.078 131.43L747.036 130.436C746.742 130.59 746.392 130.66 746.07 130.66C745.104 130.66 745.09 129.988 745.09 129.148V125.872H747.022V124.948ZM753.386 129.666C752.868 130.324 752.238 130.66 751.3 130.66C750.11 130.66 749.242 129.694 749.158 128.56H754.45V128.21C754.45 126.04 753.19 124.78 751.342 124.78C749.41 124.78 747.982 126.194 747.982 128.224C747.982 130.128 749.242 131.668 751.3 131.668C752.518 131.668 753.442 131.304 754.212 130.31L753.386 129.666ZM749.158 127.636C749.298 126.53 750.096 125.788 751.3 125.788C752.504 125.788 753.232 126.53 753.274 127.636H749.158ZM755.72 128.644H759.15V127.636H755.72V128.644ZM766.402 121.588H761.208L761.11 126.74C761.698 126.39 762.454 126.124 763.126 126.124C764.512 126.124 765.576 126.922 765.576 128.378C765.576 129.75 764.638 130.66 763.448 130.66C762.608 130.66 761.936 130.156 761.6 129.414L760.424 129.862C760.956 130.954 761.852 131.668 763.35 131.668C765.282 131.668 766.752 130.352 766.752 128.378C766.752 126.516 765.492 125.116 763.588 125.116C763.182 125.116 762.692 125.172 762.314 125.354L762.356 122.68H766.402V121.588ZM768.077 126.544C768.077 128.798 768.707 131.668 771.437 131.668C774.167 131.668 774.797 128.798 774.797 126.544C774.797 124.29 774.167 121.42 771.437 121.42C768.707 121.42 768.077 124.29 768.077 126.544ZM769.253 126.544C769.253 125.088 769.477 122.428 771.437 122.428C773.397 122.428 773.621 125.088 773.621 126.544C773.621 128 773.397 130.66 771.437 130.66C769.477 130.66 769.253 128 769.253 126.544Z" fill="#333333"/>
<rect width="100" height="100" transform="translate(800 78)" fill="white"/>
<path d="M833.982 131.5H835.27L837.734 123.1H837.762L840.212 131.5H841.486L844.398 121.588H843.166L840.87 129.82H840.842L838.42 121.588H837.104L834.668 129.82H834.64L832.386 121.588H831.084L833.982 131.5ZM845.516 131.5H846.608V128.308C846.608 126.81 847.224 125.788 848.638 125.788C849.66 125.788 850.136 126.474 850.136 127.566V131.5H851.228V127.454C851.228 125.872 850.458 124.78 848.736 124.78C847.714 124.78 846.93 125.34 846.636 125.858H846.608V120.916H845.516V131.5ZM853.394 131.5H854.486V124.948H853.394V131.5ZM853.142 122.386C853.142 122.848 853.478 123.184 853.94 123.184C854.402 123.184 854.738 122.848 854.738 122.386C854.738 121.952 854.388 121.588 853.94 121.588C853.492 121.588 853.142 121.952 853.142 122.386ZM860.243 124.948H858.311V123.086H857.219V124.948H855.791V125.872H857.219V129.47C857.219 130.828 857.471 131.668 859.025 131.668C859.431 131.668 859.921 131.598 860.299 131.43L860.257 130.436C859.963 130.59 859.613 130.66 859.291 130.66C858.325 130.66 858.311 129.988 858.311 129.148V125.872H860.243V124.948ZM866.607 129.666C866.089 130.324 865.459 130.66 864.521 130.66C863.331 130.66 862.463 129.694 862.379 128.56H867.671V128.21C867.671 126.04 866.411 124.78 864.563 124.78C862.631 124.78 861.203 126.194 861.203 128.224C861.203 130.128 862.463 131.668 864.521 131.668C865.739 131.668 866.663 131.304 867.433 130.31L866.607 129.666ZM862.379 127.636C862.519 126.53 863.317 125.788 864.521 125.788C865.725 125.788 866.453 126.53 866.495 127.636H862.379Z" fill="#333333"/>
</g>
<g clip-path="url(#clip1_348_35632)">
<line x1="152" y1="174" x2="152" y2="214" stroke="#F74480"/>
<line x1="152" y1="174" x2="152" y2="166" stroke="#F74480"/>
<line x1="152" y1="174" x2="152" y2="166" stroke="#F74480"/>
<line x1="151.5" y1="173.5" x2="152.5" y2="173.5" stroke="#F74480"/>
</g>
<path d="M112.803 224.088H105.075V225.18H108.351V234H109.527V225.18H112.803V224.088ZM117.463 232.166C116.945 232.824 116.315 233.16 115.377 233.16C114.187 233.16 113.319 232.194 113.235 231.06H118.527V230.71C118.527 228.54 117.267 227.28 115.419 227.28C113.487 227.28 112.059 228.694 112.059 230.724C112.059 232.628 113.319 234.168 115.377 234.168C116.595 234.168 117.519 233.804 118.289 232.81L117.463 232.166ZM113.235 230.136C113.375 229.03 114.173 228.288 115.377 228.288C116.581 228.288 117.309 229.03 117.351 230.136H113.235ZM119.223 234H120.581L122.625 231.172L124.697 234H126.139L123.437 230.472L125.691 227.448H124.361L122.723 229.8L120.987 227.448H119.559L121.911 230.472L119.223 234ZM130.801 227.448H128.869V225.586H127.777V227.448H126.349V228.372H127.777V231.97C127.777 233.328 128.029 234.168 129.583 234.168C129.989 234.168 130.479 234.098 130.857 233.93L130.815 232.936C130.521 233.09 130.171 233.16 129.849 233.16C128.883 233.16 128.869 232.488 128.869 231.648V228.372H130.801V227.448ZM135.307 232.95C135.951 233.874 136.749 234.168 137.855 234.168C139.157 234.168 140.473 233.594 140.473 232.11C140.473 230.794 139.493 230.374 138.331 230.15C137.463 229.982 136.679 229.744 136.679 229.198C136.679 228.582 137.365 228.288 137.967 228.288C138.611 228.288 139.073 228.61 139.353 229.072L140.263 228.47C139.815 227.63 138.961 227.28 138.037 227.28C136.819 227.28 135.587 227.938 135.587 229.212C135.587 230.57 136.651 230.836 137.897 231.116C138.597 231.27 139.297 231.452 139.297 232.152C139.297 232.866 138.541 233.16 137.855 233.16C137.085 233.16 136.609 232.81 136.175 232.278L135.307 232.95ZM147.022 232.166C146.504 232.824 145.874 233.16 144.936 233.16C143.746 233.16 142.878 232.194 142.794 231.06H148.086V230.71C148.086 228.54 146.826 227.28 144.978 227.28C143.046 227.28 141.618 228.694 141.618 230.724C141.618 232.628 142.878 234.168 144.936 234.168C146.154 234.168 147.078 233.804 147.848 232.81L147.022 232.166ZM142.794 230.136C142.934 229.03 143.732 228.288 144.936 228.288C146.14 228.288 146.868 229.03 146.91 230.136H142.794ZM155.305 228.316C154.647 227.602 153.751 227.28 152.785 227.28C150.769 227.28 149.397 228.736 149.397 230.724C149.397 232.74 150.755 234.168 152.785 234.168C153.737 234.168 154.633 233.846 155.263 233.118L154.451 232.348C154.045 232.908 153.499 233.16 152.785 233.16C151.455 233.16 150.573 232.068 150.573 230.724C150.573 229.38 151.315 228.288 152.785 228.288C153.443 228.288 153.975 228.526 154.437 229.086L155.305 228.316ZM156.151 230.724C156.151 232.768 157.635 234.168 159.651 234.168C161.667 234.168 163.151 232.768 163.151 230.724C163.151 228.68 161.667 227.28 159.651 227.28C157.635 227.28 156.151 228.68 156.151 230.724ZM157.327 230.724C157.327 229.352 158.237 228.288 159.651 228.288C161.065 228.288 161.975 229.352 161.975 230.724C161.975 232.096 161.065 233.16 159.651 233.16C158.237 233.16 157.327 232.096 157.327 230.724ZM164.842 234H165.934V230.808C165.934 229.31 166.55 228.288 167.964 228.288C168.986 228.288 169.462 228.974 169.462 230.066V234H170.554V229.954C170.554 228.372 169.784 227.28 168.062 227.28C166.984 227.28 166.172 227.882 165.878 228.526H165.85C165.85 228.162 165.822 227.798 165.822 227.448H164.786C164.786 227.882 164.842 228.4 164.842 229.002V234ZM178.067 234H179.159V223.416H178.067V228.4H178.039C177.437 227.7 176.639 227.28 175.687 227.28C173.629 227.28 172.243 228.736 172.243 230.724C172.243 232.684 173.685 234.168 175.519 234.168C176.695 234.168 177.633 233.58 178.039 232.838H178.067V234ZM178.067 230.724C178.067 232.096 177.157 233.16 175.743 233.16C174.329 233.16 173.419 232.096 173.419 230.724C173.419 229.352 174.329 228.288 175.743 228.288C177.157 228.288 178.067 229.352 178.067 230.724ZM181.782 229.002C182.3 228.526 183.028 228.288 183.728 228.288C184.75 228.288 185.352 228.778 185.352 229.73V229.926H184.932C183.322 229.926 180.802 230.052 180.802 232.222C180.802 233.496 181.908 234.168 183.238 234.168C184.232 234.168 184.96 233.692 185.394 233.02H185.422C185.422 233.3 185.422 233.706 185.492 234H186.542C186.486 233.664 186.444 233.244 186.444 232.866V230.052C186.444 228.204 185.632 227.28 183.7 227.28C182.748 227.28 181.768 227.602 181.096 228.288L181.782 229.002ZM185.352 230.85V231.27C185.324 232.334 184.68 233.244 183.42 233.244C182.594 233.244 181.978 232.936 181.978 232.11C181.978 231.228 182.874 230.85 184.26 230.85H185.352ZM188.439 234H189.531V230.808C189.531 229.31 190.119 228.372 191.449 228.372C191.645 228.372 191.855 228.4 192.037 228.456L192.107 227.35C191.953 227.294 191.799 227.28 191.659 227.28C190.581 227.28 189.769 227.882 189.475 228.526H189.447C189.447 228.162 189.419 227.798 189.419 227.448H188.383C188.383 227.882 188.439 228.4 188.439 229.002V234ZM198.933 227.448H197.743L195.797 232.586H195.769L193.739 227.448H192.465L195.181 234.042L194.733 235.274C194.495 235.918 194.229 236.352 193.515 236.352C193.207 236.352 192.969 236.324 192.745 236.24L192.605 237.192C192.899 237.332 193.277 237.36 193.585 237.36C194.901 237.36 195.335 236.604 195.769 235.498L198.933 227.448Z" fill="#F74480"/>
<circle opacity="0.2" cx="152" cy="166" r="6" fill="#F74480"/>
<circle cx="152" cy="166" r="3" fill="#F74480"/>
<g clip-path="url(#clip2_348_35632)">
<line x1="355" y1="174" x2="355" y2="214" stroke="#F74480"/>
<line x1="355" y1="174" x2="355" y2="166" stroke="#F74480"/>
<line x1="355" y1="174" x2="355" y2="166" stroke="#F74480"/>
<line x1="354.5" y1="173.5" x2="355.5" y2="173.5" stroke="#F74480"/>
</g>
<path d="M334.699 234H337.653C339.487 234 341.517 233.412 341.517 231.228C341.517 229.926 340.551 228.904 339.277 228.792V228.764C340.341 228.442 341.013 227.672 341.013 226.524C341.013 224.704 339.361 224.088 337.723 224.088H334.699V234ZM335.875 225.18H337.625C338.689 225.18 339.753 225.46 339.753 226.678C339.753 228.05 338.605 228.288 337.499 228.288H335.875V225.18ZM335.875 229.38H337.891C339.081 229.38 340.257 229.8 340.257 231.186C340.257 232.446 339.011 232.908 337.863 232.908H335.875V229.38ZM342.943 230.724C342.943 232.768 344.427 234.168 346.443 234.168C348.459 234.168 349.943 232.768 349.943 230.724C349.943 228.68 348.459 227.28 346.443 227.28C344.427 227.28 342.943 228.68 342.943 230.724ZM344.119 230.724C344.119 229.352 345.029 228.288 346.443 228.288C347.857 228.288 348.767 229.352 348.767 230.724C348.767 232.096 347.857 233.16 346.443 233.16C345.029 233.16 344.119 232.096 344.119 230.724ZM351.634 234H352.726V230.808C352.726 229.31 353.314 228.372 354.644 228.372C354.84 228.372 355.05 228.4 355.232 228.456L355.302 227.35C355.148 227.294 354.994 227.28 354.854 227.28C353.776 227.28 352.964 227.882 352.67 228.526H352.642C352.642 228.162 352.614 227.798 352.614 227.448H351.578C351.578 227.882 351.634 228.4 351.634 229.002V234ZM361.755 234H362.847V223.416H361.755V228.4H361.727C361.125 227.7 360.327 227.28 359.375 227.28C357.317 227.28 355.931 228.736 355.931 230.724C355.931 232.684 357.373 234.168 359.207 234.168C360.383 234.168 361.321 233.58 361.727 232.838H361.755V234ZM361.755 230.724C361.755 232.096 360.845 233.16 359.431 233.16C358.017 233.16 357.107 232.096 357.107 230.724C357.107 229.352 358.017 228.288 359.431 228.288C360.845 228.288 361.755 229.352 361.755 230.724ZM369.894 232.166C369.376 232.824 368.746 233.16 367.808 233.16C366.618 233.16 365.75 232.194 365.666 231.06H370.958V230.71C370.958 228.54 369.698 227.28 367.85 227.28C365.918 227.28 364.49 228.694 364.49 230.724C364.49 232.628 365.75 234.168 367.808 234.168C369.026 234.168 369.95 233.804 370.72 232.81L369.894 232.166ZM365.666 230.136C365.806 229.03 366.604 228.288 367.808 228.288C369.012 228.288 369.74 229.03 369.782 230.136H365.666ZM372.647 234H373.739V230.808C373.739 229.31 374.327 228.372 375.657 228.372C375.853 228.372 376.063 228.4 376.245 228.456L376.315 227.35C376.161 227.294 376.007 227.28 375.867 227.28C374.789 227.28 373.977 227.882 373.683 228.526H373.655C373.655 228.162 373.627 227.798 373.627 227.448H372.591C372.591 227.882 372.647 228.4 372.647 229.002V234Z" fill="#F74480"/>
<circle opacity="0.2" cx="355" cy="166" r="6" fill="#F74480"/>
<circle cx="355" cy="166" r="3" fill="#F74480"/>
<g clip-path="url(#clip3_348_35632)">
<line x1="550" y1="174" x2="550" y2="214" stroke="#F74480"/>
<line x1="550" y1="174" x2="550" y2="166" stroke="#F74480"/>
<line x1="550" y1="174" x2="550" y2="166" stroke="#F74480"/>
<line x1="549.5" y1="173.5" x2="550.5" y2="173.5" stroke="#F74480"/>
</g>
<path d="M529.545 224.998C528.817 224.144 527.879 223.836 526.773 223.836C525.037 223.836 523.399 224.788 523.399 226.692C523.399 228.344 524.463 228.96 525.863 229.422C527.627 230.01 528.453 230.22 528.453 231.438C528.453 232.572 527.305 233.16 526.297 233.16C525.443 233.16 524.603 232.782 524.183 232.054L523.175 232.88C523.847 233.874 525.079 234.252 526.227 234.252C528.019 234.252 529.713 233.328 529.713 231.354C529.713 229.408 528.285 228.904 526.745 228.414C525.163 227.91 524.659 227.504 524.659 226.594C524.659 225.418 525.737 224.928 526.773 224.928C527.487 224.928 528.187 225.208 528.579 225.838L529.545 224.998ZM536.484 232.166C535.966 232.824 535.336 233.16 534.398 233.16C533.208 233.16 532.34 232.194 532.256 231.06H537.548V230.71C537.548 228.54 536.288 227.28 534.44 227.28C532.508 227.28 531.08 228.694 531.08 230.724C531.08 232.628 532.34 234.168 534.398 234.168C535.616 234.168 536.54 233.804 537.31 232.81L536.484 232.166ZM532.256 230.136C532.396 229.03 533.194 228.288 534.398 228.288C535.602 228.288 536.33 229.03 536.372 230.136H532.256ZM539.335 234H540.427V223.416H539.335V234ZM547.626 232.166C547.108 232.824 546.478 233.16 545.54 233.16C544.35 233.16 543.482 232.194 543.398 231.06H548.69V230.71C548.69 228.54 547.43 227.28 545.582 227.28C543.65 227.28 542.222 228.694 542.222 230.724C542.222 232.628 543.482 234.168 545.54 234.168C546.758 234.168 547.682 233.804 548.452 232.81L547.626 232.166ZM543.398 230.136C543.538 229.03 544.336 228.288 545.54 228.288C546.744 228.288 547.472 229.03 547.514 230.136H543.398ZM555.91 228.316C555.252 227.602 554.356 227.28 553.39 227.28C551.374 227.28 550.002 228.736 550.002 230.724C550.002 232.74 551.36 234.168 553.39 234.168C554.342 234.168 555.238 233.846 555.868 233.118L555.056 232.348C554.65 232.908 554.104 233.16 553.39 233.16C552.06 233.16 551.178 232.068 551.178 230.724C551.178 229.38 551.92 228.288 553.39 228.288C554.048 228.288 554.58 228.526 555.042 229.086L555.91 228.316ZM560.718 227.448H558.786V225.586H557.694V227.448H556.266V228.372H557.694V231.97C557.694 233.328 557.946 234.168 559.5 234.168C559.906 234.168 560.396 234.098 560.774 233.93L560.732 232.936C560.438 233.09 560.088 233.16 559.766 233.16C558.8 233.16 558.786 232.488 558.786 231.648V228.372H560.718V227.448ZM567.082 232.166C566.564 232.824 565.934 233.16 564.996 233.16C563.806 233.16 562.938 232.194 562.854 231.06H568.146V230.71C568.146 228.54 566.886 227.28 565.038 227.28C563.106 227.28 561.678 228.694 561.678 230.724C561.678 232.628 562.938 234.168 564.996 234.168C566.214 234.168 567.138 233.804 567.908 232.81L567.082 232.166ZM562.854 230.136C562.994 229.03 563.792 228.288 564.996 228.288C566.2 228.288 566.928 229.03 566.97 230.136H562.854ZM575.281 234H576.373V223.416H575.281V228.4H575.253C574.651 227.7 573.853 227.28 572.901 227.28C570.843 227.28 569.457 228.736 569.457 230.724C569.457 232.684 570.899 234.168 572.733 234.168C573.909 234.168 574.847 233.58 575.253 232.838H575.281V234ZM575.281 230.724C575.281 232.096 574.371 233.16 572.957 233.16C571.543 233.16 570.633 232.096 570.633 230.724C570.633 229.352 571.543 228.288 572.957 228.288C574.371 228.288 575.281 229.352 575.281 230.724Z" fill="#F74480"/>
<circle opacity="0.2" cx="550" cy="166" r="6" fill="#F74480"/>
<circle cx="550" cy="166" r="3" fill="#F74480"/>
<g clip-path="url(#clip4_348_35632)">
<line x1="745" y1="174" x2="745" y2="214" stroke="#F74480"/>
<line x1="745" y1="174" x2="745" y2="166" stroke="#F74480"/>
<line x1="745" y1="174" x2="745" y2="166" stroke="#F74480"/>
<line x1="744.5" y1="173.5" x2="745.5" y2="173.5" stroke="#F74480"/>
</g>
<path d="M709.829 224.088H702.101V225.18H705.377V234H706.553V225.18H709.829V224.088ZM710.066 229.002C710.584 228.526 711.312 228.288 712.012 228.288C713.034 228.288 713.636 228.778 713.636 229.73V229.926H713.216C711.606 229.926 709.086 230.052 709.086 232.222C709.086 233.496 710.192 234.168 711.522 234.168C712.516 234.168 713.244 233.692 713.678 233.02H713.706C713.706 233.3 713.706 233.706 713.776 234H714.826C714.77 233.664 714.728 233.244 714.728 232.866V230.052C714.728 228.204 713.916 227.28 711.984 227.28C711.032 227.28 710.052 227.602 709.38 228.288L710.066 229.002ZM713.636 230.85V231.27C713.608 232.334 712.964 233.244 711.704 233.244C710.878 233.244 710.262 232.936 710.262 232.11C710.262 231.228 711.158 230.85 712.544 230.85H713.636ZM716.668 234H717.76V232.838H717.788C718.194 233.58 719.132 234.168 720.308 234.168C722.142 234.168 723.584 232.684 723.584 230.724C723.584 228.736 722.198 227.28 720.14 227.28C719.188 227.28 718.39 227.7 717.788 228.4H717.76V223.416H716.668V234ZM717.76 230.724C717.76 229.352 718.67 228.288 720.084 228.288C721.498 228.288 722.408 229.352 722.408 230.724C722.408 232.096 721.498 233.16 720.084 233.16C718.67 233.16 717.76 232.096 717.76 230.724ZM725.38 234H726.472V223.416H725.38V234ZM733.671 232.166C733.153 232.824 732.523 233.16 731.585 233.16C730.395 233.16 729.527 232.194 729.443 231.06H734.735V230.71C734.735 228.54 733.475 227.28 731.627 227.28C729.695 227.28 728.267 228.694 728.267 230.724C728.267 232.628 729.527 234.168 731.585 234.168C732.803 234.168 733.727 233.804 734.497 232.81L733.671 232.166ZM729.443 230.136C729.583 229.03 730.381 228.288 731.585 228.288C732.789 228.288 733.517 229.03 733.559 230.136H729.443ZM740.265 234H741.357V232.838H741.385C741.791 233.58 742.729 234.168 743.905 234.168C745.739 234.168 747.181 232.684 747.181 230.724C747.181 228.736 745.795 227.28 743.737 227.28C742.785 227.28 741.987 227.7 741.385 228.4H741.357V223.416H740.265V234ZM741.357 230.724C741.357 229.352 742.267 228.288 743.681 228.288C745.095 228.288 746.005 229.352 746.005 230.724C746.005 232.096 745.095 233.16 743.681 233.16C742.267 233.16 741.357 232.096 741.357 230.724ZM748.502 230.724C748.502 232.768 749.986 234.168 752.002 234.168C754.018 234.168 755.502 232.768 755.502 230.724C755.502 228.68 754.018 227.28 752.002 227.28C749.986 227.28 748.502 228.68 748.502 230.724ZM749.678 230.724C749.678 229.352 750.588 228.288 752.002 228.288C753.416 228.288 754.326 229.352 754.326 230.724C754.326 232.096 753.416 233.16 752.002 233.16C750.588 233.16 749.678 232.096 749.678 230.724ZM757.192 234H758.284V230.808C758.284 229.31 758.872 228.372 760.202 228.372C760.398 228.372 760.608 228.4 760.79 228.456L760.86 227.35C760.706 227.294 760.552 227.28 760.412 227.28C759.334 227.28 758.522 227.882 758.228 228.526H758.2C758.2 228.162 758.172 227.798 758.172 227.448H757.136C757.136 227.882 757.192 228.4 757.192 229.002V234ZM767.314 234H768.406V223.416H767.314V228.4H767.286C766.684 227.7 765.886 227.28 764.934 227.28C762.876 227.28 761.49 228.736 761.49 230.724C761.49 232.684 762.932 234.168 764.766 234.168C765.942 234.168 766.88 233.58 767.286 232.838H767.314V234ZM767.314 230.724C767.314 232.096 766.404 233.16 764.99 233.16C763.576 233.16 762.666 232.096 762.666 230.724C762.666 229.352 763.576 228.288 764.99 228.288C766.404 228.288 767.314 229.352 767.314 230.724ZM775.453 232.166C774.935 232.824 774.305 233.16 773.367 233.16C772.177 233.16 771.309 232.194 771.225 231.06H776.517V230.71C776.517 228.54 775.257 227.28 773.409 227.28C771.477 227.28 770.049 228.694 770.049 230.724C770.049 232.628 771.309 234.168 773.367 234.168C774.585 234.168 775.509 233.804 776.279 232.81L775.453 232.166ZM771.225 230.136C771.365 229.03 772.163 228.288 773.367 228.288C774.571 228.288 775.299 229.03 775.341 230.136H771.225ZM778.206 234H779.298V230.808C779.298 229.31 779.886 228.372 781.216 228.372C781.412 228.372 781.622 228.4 781.804 228.456L781.874 227.35C781.72 227.294 781.566 227.28 781.426 227.28C780.348 227.28 779.536 227.882 779.242 228.526H779.214C779.214 228.162 779.186 227.798 779.186 227.448H778.15C778.15 227.882 778.206 228.4 778.206 229.002V234ZM782.4 232.95C783.044 233.874 783.842 234.168 784.948 234.168C786.25 234.168 787.566 233.594 787.566 232.11C787.566 230.794 786.586 230.374 785.424 230.15C784.556 229.982 783.772 229.744 783.772 229.198C783.772 228.582 784.458 228.288 785.06 228.288C785.704 228.288 786.166 228.61 786.446 229.072L787.356 228.47C786.908 227.63 786.054 227.28 785.13 227.28C783.912 227.28 782.68 227.938 782.68 229.212C782.68 230.57 783.744 230.836 784.99 231.116C785.69 231.27 786.39 231.452 786.39 232.152C786.39 232.866 785.634 233.16 784.948 233.16C784.178 233.16 783.702 232.81 783.268 232.278L782.4 232.95Z" fill="#F74480"/>
<circle opacity="0.2" cx="745" cy="166" r="6" fill="#F74480"/>
<circle cx="745" cy="166" r="3" fill="#F74480"/>
<path d="M8.99235 25.088H1.26435V26.18H4.54035V35H5.71635V26.18H8.99235V25.088ZM13.6528 33.166C13.1348 33.824 12.5048 34.16 11.5668 34.16C10.3768 34.16 9.50882 33.194 9.42482 32.06H14.7168V31.71C14.7168 29.54 13.4568 28.28 11.6088 28.28C9.67682 28.28 8.24882 29.694 8.24882 31.724C8.24882 33.628 9.50882 35.168 11.5668 35.168C12.7848 35.168 13.7088 34.804 14.4788 33.81L13.6528 33.166ZM9.42482 31.136C9.56482 30.03 10.3628 29.288 11.5668 29.288C12.7708 29.288 13.4988 30.03 13.5408 31.136H9.42482ZM15.4121 35H16.7701L18.8141 32.172L20.8861 35H22.3281L19.6261 31.472L21.8801 28.448H20.5501L18.9121 30.8L17.1761 28.448L15.7481 28.448L18.1001 31.472L15.4121 35ZM26.9901 28.448L25.0581 28.448V26.586H23.9661V28.448H22.5381V29.372H23.9661V32.97C23.9661 34.328 24.2181 35.168 25.7721 35.168C26.1781 35.168 26.6681 35.098 27.0461 34.93L27.0041 33.936C26.7101 34.09 26.3601 34.16 26.0381 34.16C25.0721 34.16 25.0581 33.488 25.0581 32.648V29.372L26.9901 29.372V28.448ZM32.1685 38.192H33.2605V33.838H33.2885C33.6945 34.58 34.6325 35.168 35.8085 35.168C37.6425 35.168 39.0845 33.684 39.0845 31.724C39.0845 29.736 37.6985 28.28 35.6405 28.28C34.6885 28.28 33.8905 28.7 33.2885 29.4H33.2605V28.448H32.1685V38.192ZM33.2605 31.724C33.2605 30.352 34.1705 29.288 35.5845 29.288C36.9985 29.288 37.9085 30.352 37.9085 31.724C37.9085 33.096 36.9985 34.16 35.5845 34.16C34.1705 34.16 33.2605 33.096 33.2605 31.724ZM40.7831 35H41.8751V31.808C41.8751 30.31 42.4631 29.372 43.7931 29.372C43.9891 29.372 44.1991 29.4 44.3811 29.456L44.4511 28.35C44.2971 28.294 44.1431 28.28 44.0031 28.28C42.9251 28.28 42.1131 28.882 41.8191 29.526H41.7911C41.7911 29.162 41.7631 28.798 41.7631 28.448H40.7271C40.7271 28.882 40.7831 29.4 40.7831 30.002V35ZM45.8029 35H46.8949V28.448H45.8029V35ZM45.5509 25.886C45.5509 26.348 45.8869 26.684 46.3489 26.684C46.8109 26.684 47.1469 26.348 47.1469 25.886C47.1469 25.452 46.7969 25.088 46.3489 25.088C45.9009 25.088 45.5509 25.452 45.5509 25.886ZM49.0682 35H50.1602V31.808C50.1602 30.31 50.7762 29.288 52.1902 29.288C53.0862 29.288 53.4502 29.848 53.4502 31.29V35L54.5422 35V31.22C54.5422 30.044 55.3122 29.288 56.2362 29.288C57.5102 29.288 57.8322 30.17 57.8322 31.08V35H58.9242V31.024C58.9242 29.33 58.3082 28.28 56.4322 28.28C55.4382 28.28 54.8362 28.756 54.3602 29.526C54.1502 29.078 53.7022 28.28 52.2882 28.28C51.2102 28.28 50.3982 28.882 50.1042 29.526H50.0762C50.0762 29.162 50.0482 28.798 50.0482 28.448H49.0122C49.0122 28.882 49.0682 29.4 49.0682 30.002V35ZM61.5921 30.002C62.1101 29.526 62.8381 29.288 63.5381 29.288C64.5601 29.288 65.1621 29.778 65.1621 30.73V30.926H64.7421C63.1321 30.926 60.6121 31.052 60.6121 33.222C60.6121 34.496 61.7181 35.168 63.0481 35.168C64.0421 35.168 64.7701 34.692 65.2041 34.02H65.2321C65.2321 34.3 65.2321 34.706 65.3021 35H66.3521C66.2961 34.664 66.2541 34.244 66.2541 33.866V31.052C66.2541 29.204 65.4421 28.28 63.5101 28.28C62.5581 28.28 61.5781 28.602 60.9061 29.288L61.5921 30.002ZM65.1621 31.85V32.27C65.1341 33.334 64.4901 34.244 63.2301 34.244C62.4041 34.244 61.7881 33.936 61.7881 33.11C61.7881 32.228 62.6841 31.85 64.0701 31.85H65.1621ZM68.2499 35H69.3419V31.808C69.3419 30.31 69.9299 29.372 71.2599 29.372C71.4559 29.372 71.6659 29.4 71.8479 29.456L71.9179 28.35C71.7639 28.294 71.6099 28.28 71.4699 28.28C70.3919 28.28 69.5799 28.882 69.2859 29.526H69.2579C69.2579 29.162 69.2299 28.798 69.2299 28.448H68.1939C68.1939 28.882 68.2499 29.4 68.2499 30.002V35ZM78.7437 28.448H77.5537L75.6077 33.586H75.5797L73.5497 28.448H72.2757L74.9917 35.042L74.5437 36.274C74.3057 36.918 74.0397 37.352 73.3257 37.352C73.0177 37.352 72.7797 37.324 72.5557 37.24L72.4157 38.192C72.7097 38.332 73.0877 38.36 73.3957 38.36C74.7117 38.36 75.1457 37.604 75.5797 36.498L78.7437 28.448Z" fill="#F74480"/>
<g clip-path="url(#clip5_348_35632)">
<line y1="-0.5" x2="40" y2="-0.5" transform="matrix(8.85156e-08 -1 1 1.83588e-06 40.5 88)" stroke="#F74480"/>
<line y1="-0.5" x2="8" y2="-0.5" transform="matrix(-1.09278e-09 1 -1 -1.74846e-06 39.5 88)" stroke="#F74480"/>
<line y1="-0.5" x2="8" y2="-0.5" transform="matrix(-1.09278e-09 1 -1 -1.74846e-06 39.5 88)" stroke="#F74480"/>
<line y1="-0.5" x2="1" y2="-0.5" transform="matrix(-1 -1.70474e-06 -4.26186e-08 -1 40.5 88)" stroke="#F74480"/>
</g>
<circle opacity="0.2" cx="40" cy="96" r="6" fill="#F74480"/>
<circle cx="40" cy="96" r="3" fill="#F74480"/>
<path d="M197.329 25.088L189.601 25.088V26.18H192.877V35H194.053V26.18L197.329 26.18V25.088ZM201.99 33.166C201.472 33.824 200.842 34.16 199.904 34.16C198.714 34.16 197.846 33.194 197.762 32.06H203.054V31.71C203.054 29.54 201.794 28.28 199.946 28.28C198.014 28.28 196.586 29.694 196.586 31.724C196.586 33.628 197.846 35.168 199.904 35.168C201.122 35.168 202.046 34.804 202.816 33.81L201.99 33.166ZM197.762 31.136C197.902 30.03 198.7 29.288 199.904 29.288C201.108 29.288 201.836 30.03 201.878 31.136L197.762 31.136ZM203.749 35H205.107L207.151 32.172L209.223 35H210.665L207.963 31.472L210.217 28.448H208.887L207.249 30.8L205.513 28.448H204.085L206.437 31.472L203.749 35ZM215.327 28.448H213.395V26.586H212.303V28.448H210.875V29.372H212.303V32.97C212.303 34.328 212.555 35.168 214.109 35.168C214.515 35.168 215.005 35.098 215.383 34.93L215.341 33.936C215.047 34.09 214.697 34.16 214.375 34.16C213.409 34.16 213.395 33.488 213.395 32.648V29.372H215.327V28.448ZM226.007 35H227.099V24.416H226.007V29.4H225.979C225.377 28.7 224.579 28.28 223.627 28.28C221.569 28.28 220.183 29.736 220.183 31.724C220.183 33.684 221.625 35.168 223.459 35.168C224.635 35.168 225.573 34.58 225.979 33.838H226.007V35ZM226.007 31.724C226.007 33.096 225.097 34.16 223.683 34.16C222.269 34.16 221.359 33.096 221.359 31.724C221.359 30.352 222.269 29.288 223.683 29.288C225.097 29.288 226.007 30.352 226.007 31.724ZM229.218 35H230.31V28.448H229.218V35ZM228.966 25.886C228.966 26.348 229.302 26.684 229.764 26.684C230.226 26.684 230.562 26.348 230.562 25.886C230.562 25.452 230.212 25.088 229.764 25.088C229.316 25.088 228.966 25.452 228.966 25.886ZM231.755 33.95C232.399 34.874 233.197 35.168 234.303 35.168C235.605 35.168 236.921 34.594 236.921 33.11C236.921 31.794 235.941 31.374 234.779 31.15C233.911 30.982 233.127 30.744 233.127 30.198C233.127 29.582 233.813 29.288 234.415 29.288C235.059 29.288 235.521 29.61 235.801 30.072L236.711 29.47C236.263 28.63 235.409 28.28 234.485 28.28C233.267 28.28 232.035 28.938 232.035 30.212C232.035 31.57 233.099 31.836 234.345 32.116C235.045 32.27 235.745 32.452 235.745 33.152C235.745 33.866 234.989 34.16 234.303 34.16C233.533 34.16 233.057 33.81 232.623 33.278L231.755 33.95ZM239.046 30.002C239.564 29.526 240.292 29.288 240.992 29.288C242.014 29.288 242.616 29.778 242.616 30.73V30.926H242.196C240.586 30.926 238.066 31.052 238.066 33.222C238.066 34.496 239.172 35.168 240.502 35.168C241.496 35.168 242.224 34.692 242.658 34.02H242.686C242.686 34.3 242.686 34.706 242.756 35H243.806C243.75 34.664 243.708 34.244 243.708 33.866V31.052C243.708 29.204 242.896 28.28 240.964 28.28C240.012 28.28 239.032 28.602 238.36 29.288L239.046 30.002ZM242.616 31.85V32.27C242.588 33.334 241.944 34.244 240.684 34.244C239.858 34.244 239.242 33.936 239.242 33.11C239.242 32.228 240.138 31.85 241.524 31.85H242.616ZM245.648 35H246.74V33.838H246.768C247.174 34.58 248.112 35.168 249.288 35.168C251.122 35.168 252.564 33.684 252.564 31.724C252.564 29.736 251.178 28.28 249.12 28.28C248.168 28.28 247.37 28.7 246.768 29.4H246.74V24.416H245.648V35ZM246.74 31.724C246.74 30.352 247.65 29.288 249.064 29.288C250.478 29.288 251.388 30.352 251.388 31.724C251.388 33.096 250.478 34.16 249.064 34.16C247.65 34.16 246.74 33.096 246.74 31.724ZM254.361 35H255.453V24.416H254.361V35ZM262.652 33.166C262.134 33.824 261.504 34.16 260.566 34.16C259.376 34.16 258.508 33.194 258.424 32.06H263.716V31.71C263.716 29.54 262.456 28.28 260.608 28.28C258.676 28.28 257.248 29.694 257.248 31.724C257.248 33.628 258.508 35.168 260.566 35.168C261.784 35.168 262.708 34.804 263.478 33.81L262.652 33.166ZM258.424 31.136C258.564 30.03 259.362 29.288 260.566 29.288C261.77 29.288 262.498 30.03 262.54 31.136H258.424ZM270.851 35H271.943V24.416H270.851V29.4H270.823C270.221 28.7 269.423 28.28 268.471 28.28C266.413 28.28 265.027 29.736 265.027 31.724C265.027 33.684 266.469 35.168 268.303 35.168C269.479 35.168 270.417 34.58 270.823 33.838H270.851V35ZM270.851 31.724C270.851 33.096 269.941 34.16 268.527 34.16C267.113 34.16 266.203 33.096 266.203 31.724C266.203 30.352 267.113 29.288 268.527 29.288C269.941 29.288 270.851 30.352 270.851 31.724ZM278.066 24.836L277.184 24.5L272.97 35.252L273.852 35.602L278.066 24.836ZM279.341 35H280.517V25.088H279.341V35ZM288.312 29.316C287.654 28.602 286.758 28.28 285.792 28.28C283.776 28.28 282.404 29.736 282.404 31.724C282.404 33.74 283.762 35.168 285.792 35.168C286.744 35.168 287.64 34.846 288.27 34.118L287.458 33.348C287.052 33.908 286.506 34.16 285.792 34.16C284.462 34.16 283.58 33.068 283.58 31.724C283.58 30.38 284.322 29.288 285.792 29.288C286.45 29.288 286.982 29.526 287.444 30.086L288.312 29.316ZM289.158 31.724C289.158 33.768 290.642 35.168 292.658 35.168C294.674 35.168 296.158 33.768 296.158 31.724C296.158 29.68 294.674 28.28 292.658 28.28C290.642 28.28 289.158 29.68 289.158 31.724ZM290.334 31.724C290.334 30.352 291.244 29.288 292.658 29.288C294.072 29.288 294.982 30.352 294.982 31.724C294.982 33.096 294.072 34.16 292.658 34.16C291.244 34.16 290.334 33.096 290.334 31.724ZM297.849 35H298.941V31.808C298.941 30.31 299.557 29.288 300.971 29.288C301.993 29.288 302.469 29.974 302.469 31.066V35H303.561V30.954C303.561 29.372 302.791 28.28 301.069 28.28C299.991 28.28 299.179 28.882 298.885 29.526H298.857C298.857 29.162 298.829 28.798 298.829 28.448H297.793C297.793 28.882 297.849 29.4 297.849 30.002V35ZM304.9 33.95C305.544 34.874 306.342 35.168 307.448 35.168C308.75 35.168 310.066 34.594 310.066 33.11C310.066 31.794 309.086 31.374 307.924 31.15C307.056 30.982 306.272 30.744 306.272 30.198C306.272 29.582 306.958 29.288 307.56 29.288C308.204 29.288 308.666 29.61 308.946 30.072L309.856 29.47C309.408 28.63 308.554 28.28 307.63 28.28C306.412 28.28 305.18 28.938 305.18 30.212C305.18 31.57 306.244 31.836 307.49 32.116C308.19 32.27 308.89 32.452 308.89 33.152C308.89 33.866 308.134 34.16 307.448 34.16C306.678 34.16 306.202 33.81 305.768 33.278L304.9 33.95Z" fill="#F74480"/>
<g clip-path="url(#clip6_348_35632)">
<line y1="-0.5" x2="40" y2="-0.5" transform="matrix(8.85156e-08 -1 1 1.83588e-06 250.5 88)" stroke="#F74480"/>
<line y1="-0.5" x2="8" y2="-0.5" transform="matrix(-1.09278e-09 1 -1 -1.74846e-06 249.5 88)" stroke="#F74480"/>
<line y1="-0.5" x2="8" y2="-0.5" transform="matrix(-1.09278e-09 1 -1 -1.74846e-06 249.5 88)" stroke="#F74480"/>
<line y1="-0.5" x2="1" y2="-0.5" transform="matrix(-1 -1.70474e-06 -4.26186e-08 -1 250.5 88)" stroke="#F74480"/>
</g>
<circle opacity="0.2" cx="250" cy="96" r="6" fill="#F74480"/>
<circle cx="250" cy="96" r="3" fill="#F74480"/>
<path d="M414.725 35H417.679C419.513 35 421.543 34.412 421.543 32.228C421.543 30.926 420.577 29.904 419.303 29.792V29.764C420.367 29.442 421.039 28.672 421.039 27.524C421.039 25.704 419.387 25.088 417.749 25.088H414.725V35ZM415.901 26.18H417.651C418.715 26.18 419.779 26.46 419.779 27.678C419.779 29.05 418.631 29.288 417.525 29.288H415.901V26.18ZM415.901 30.38H417.917C419.107 30.38 420.283 30.8 420.283 32.186C420.283 33.446 419.037 33.908 417.889 33.908H415.901V30.38ZM431.972 29.456H428.514V30.548H430.796V33.586C430.068 33.95 429.13 34.16 428.332 34.16C425.896 34.16 424.23 32.41 424.23 30.044C424.23 27.636 425.952 25.928 428.22 25.928C429.228 25.928 430.25 26.334 430.922 27.062L431.804 26.138C430.866 25.186 429.606 24.836 428.304 24.836C425.336 24.836 422.97 26.922 422.97 30.044C422.97 33.152 425.182 35.252 428.262 35.252C429.55 35.252 430.838 34.958 431.972 34.328V29.456ZM443.586 35H444.678V24.416H443.586V29.4H443.558C442.956 28.7 442.158 28.28 441.206 28.28C439.148 28.28 437.762 29.736 437.762 31.724C437.762 33.684 439.204 35.168 441.038 35.168C442.214 35.168 443.152 34.58 443.558 33.838H443.586V35ZM443.586 31.724C443.586 33.096 442.676 34.16 441.262 34.16C439.848 34.16 438.938 33.096 438.938 31.724C438.938 30.352 439.848 29.288 441.262 29.288C442.676 29.288 443.586 30.352 443.586 31.724ZM446.797 35H447.889V28.448H446.797V35ZM446.545 25.886C446.545 26.348 446.881 26.684 447.343 26.684C447.805 26.684 448.141 26.348 448.141 25.886C448.141 25.452 447.791 25.088 447.343 25.088C446.895 25.088 446.545 25.452 446.545 25.886ZM449.334 33.95C449.978 34.874 450.776 35.168 451.882 35.168C453.184 35.168 454.5 34.594 454.5 33.11C454.5 31.794 453.52 31.374 452.358 31.15C451.49 30.982 450.706 30.744 450.706 30.198C450.706 29.582 451.392 29.288 451.994 29.288C452.638 29.288 453.1 29.61 453.38 30.072L454.29 29.47C453.842 28.63 452.988 28.28 452.064 28.28C450.846 28.28 449.614 28.938 449.614 30.212C449.614 31.57 450.678 31.836 451.924 32.116C452.624 32.27 453.324 32.452 453.324 33.152C453.324 33.866 452.568 34.16 451.882 34.16C451.112 34.16 450.636 33.81 450.202 33.278L449.334 33.95ZM456.625 30.002C457.143 29.526 457.871 29.288 458.571 29.288C459.593 29.288 460.195 29.778 460.195 30.73V30.926H459.775C458.165 30.926 455.645 31.052 455.645 33.222C455.645 34.496 456.751 35.168 458.081 35.168C459.075 35.168 459.803 34.692 460.237 34.02H460.265C460.265 34.3 460.265 34.706 460.335 35H461.385C461.329 34.664 461.287 34.244 461.287 33.866V31.052C461.287 29.204 460.475 28.28 458.543 28.28C457.591 28.28 456.611 28.602 455.939 29.288L456.625 30.002ZM460.195 31.85V32.27C460.167 33.334 459.523 34.244 458.263 34.244C457.437 34.244 456.821 33.936 456.821 33.11C456.821 32.228 457.717 31.85 459.103 31.85H460.195ZM463.227 35H464.319V33.838H464.347C464.753 34.58 465.691 35.168 466.867 35.168C468.701 35.168 470.143 33.684 470.143 31.724C470.143 29.736 468.757 28.28 466.699 28.28C465.747 28.28 464.949 28.7 464.347 29.4H464.319V24.416H463.227V35ZM464.319 31.724C464.319 30.352 465.229 29.288 466.643 29.288C468.057 29.288 468.967 30.352 468.967 31.724C468.967 33.096 468.057 34.16 466.643 34.16C465.229 34.16 464.319 33.096 464.319 31.724ZM471.94 35H473.032V24.416H471.94V35ZM480.231 33.166C479.713 33.824 479.083 34.16 478.145 34.16C476.955 34.16 476.087 33.194 476.003 32.06H481.295V31.71C481.295 29.54 480.035 28.28 478.187 28.28C476.255 28.28 474.827 29.694 474.827 31.724C474.827 33.628 476.087 35.168 478.145 35.168C479.363 35.168 480.287 34.804 481.057 33.81L480.231 33.166ZM476.003 31.136C476.143 30.03 476.941 29.288 478.145 29.288C479.349 29.288 480.077 30.03 480.119 31.136H476.003ZM488.43 35H489.522V24.416H488.43V29.4H488.402C487.8 28.7 487.002 28.28 486.05 28.28C483.992 28.28 482.606 29.736 482.606 31.724C482.606 33.684 484.048 35.168 485.882 35.168C487.058 35.168 487.996 34.58 488.402 33.838H488.43V35ZM488.43 31.724C488.43 33.096 487.52 34.16 486.106 34.16C484.692 34.16 483.782 33.096 483.782 31.724C483.782 30.352 484.692 29.288 486.106 29.288C487.52 29.288 488.43 30.352 488.43 31.724Z" fill="#F74480"/>
<g clip-path="url(#clip7_348_35632)">
<line y1="-0.5" x2="40" y2="-0.5" transform="matrix(8.85156e-08 -1 1 1.83588e-06 452.5 88)" stroke="#F74480"/>
<line y1="-0.5" x2="8" y2="-0.5" transform="matrix(-1.09278e-09 1 -1 -1.74846e-06 451.5 88)" stroke="#F74480"/>
<line y1="-0.5" x2="8" y2="-0.5" transform="matrix(-1.09278e-09 1 -1 -1.74846e-06 451.5 88)" stroke="#F74480"/>
<line y1="-0.5" x2="1" y2="-0.5" transform="matrix(-1 -1.70474e-06 -4.26186e-08 -1 452.5 88)" stroke="#F74480"/>
</g>
<circle opacity="0.2" cx="452" cy="96" r="6" fill="#F74480"/>
<circle cx="452" cy="96" r="3" fill="#F74480"/>
<path d="M631.296 35H632.472V30.38L637.764 30.38V35H638.94V25.088H637.764V29.288L632.472 29.288V25.088H631.296V35ZM640.826 31.724C640.826 33.768 642.31 35.168 644.326 35.168C646.342 35.168 647.826 33.768 647.826 31.724C647.826 29.68 646.342 28.28 644.326 28.28C642.31 28.28 640.826 29.68 640.826 31.724ZM642.002 31.724C642.002 30.352 642.912 29.288 644.326 29.288C645.74 29.288 646.65 30.352 646.65 31.724C646.65 33.096 645.74 34.16 644.326 34.16C642.912 34.16 642.002 33.096 642.002 31.724ZM655.088 28.448L653.912 28.448L651.966 33.586H651.938L649.894 28.448H648.62L651.294 35H652.498L655.088 28.448ZM661.296 33.166C660.778 33.824 660.148 34.16 659.21 34.16C658.02 34.16 657.152 33.194 657.068 32.06H662.36V31.71C662.36 29.54 661.1 28.28 659.252 28.28C657.32 28.28 655.892 29.694 655.892 31.724C655.892 33.628 657.152 35.168 659.21 35.168C660.428 35.168 661.352 34.804 662.122 33.81L661.296 33.166ZM657.068 31.136C657.208 30.03 658.006 29.288 659.21 29.288C660.414 29.288 661.142 30.03 661.184 31.136H657.068ZM664.05 35H665.142V31.808C665.142 30.31 665.73 29.372 667.06 29.372C667.256 29.372 667.466 29.4 667.648 29.456L667.718 28.35C667.564 28.294 667.41 28.28 667.27 28.28C666.192 28.28 665.38 28.882 665.086 29.526H665.058C665.058 29.162 665.03 28.798 665.03 28.448L663.994 28.448C663.994 28.882 664.05 29.4 664.05 30.002V35Z" fill="#F74480"/>
<g clip-path="url(#clip8_348_35632)">
<line y1="-0.5" x2="40" y2="-0.5" transform="matrix(8.85156e-08 -1 1 1.83588e-06 649.5 88)" stroke="#F74480"/>
<line y1="-0.5" x2="8" y2="-0.5" transform="matrix(-1.09278e-09 1 -1 -1.74846e-06 648.5 88)" stroke="#F74480"/>
<line y1="-0.5" x2="8" y2="-0.5" transform="matrix(-1.09278e-09 1 -1 -1.74846e-06 648.5 88)" stroke="#F74480"/>
<line y1="-0.5" x2="1" y2="-0.5" transform="matrix(-1 -1.70474e-06 -4.26186e-08 -1 649.5 88)" stroke="#F74480"/>
</g>
<circle opacity="0.2" cx="649" cy="96" r="6" fill="#F74480"/>
<circle cx="649" cy="96" r="3" fill="#F74480"/>
<defs>
<clipPath id="clip0_348_35632">
<rect y="78" width="900" height="100" rx="4" fill="white"/>
</clipPath>
<clipPath id="clip1_348_35632">
<rect width="48" height="1" fill="white" transform="translate(151.5 214) rotate(-90)"/>
</clipPath>
<clipPath id="clip2_348_35632">
<rect width="48" height="1" fill="white" transform="translate(354.5 214) rotate(-90)"/>
</clipPath>
<clipPath id="clip3_348_35632">
<rect width="48" height="1" fill="white" transform="translate(549.5 214) rotate(-90)"/>
</clipPath>
<clipPath id="clip4_348_35632">
<rect width="48" height="1" fill="white" transform="translate(744.5 214) rotate(-90)"/>
</clipPath>
<clipPath id="clip5_348_35632">
<rect width="48" height="1" fill="white" transform="matrix(-1.09278e-09 1 -1 -1.74846e-06 40.5 48)"/>
</clipPath>
<clipPath id="clip6_348_35632">
<rect width="48" height="1" fill="white" transform="matrix(-1.09278e-09 1 -1 -1.74846e-06 250.5 48)"/>
</clipPath>
<clipPath id="clip7_348_35632">
<rect width="48" height="1" fill="white" transform="matrix(-1.09278e-09 1 -1 -1.74846e-06 452.5 48)"/>
</clipPath>
<clipPath id="clip8_348_35632">
<rect width="48" height="1" fill="white" transform="matrix(-1.09278e-09 1 -1 -1.74846e-06 649.5 48)"/>
</clipPath>
</defs>
</svg>
