<svg width="856" height="274" viewBox="0 0 856 274" fill="none" xmlns="http://www.w3.org/2000/svg">
<g clip-path="url(#clip0_357_35667)">
<rect width="100" height="133" rx="4" fill="#E6E6E6"/>
<rect width="100" height="100" fill="#333536"/>
<path d="M34.232 53.5H37.186C39.02 53.5 41.05 52.912 41.05 50.728C41.05 49.426 40.084 48.404 38.81 48.292V48.264C39.874 47.942 40.546 47.172 40.546 46.024C40.546 44.204 38.894 43.588 37.256 43.588H34.232V53.5ZM35.408 44.68H37.158C38.222 44.68 39.286 44.96 39.286 46.178C39.286 47.55 38.138 47.788 37.032 47.788H35.408V44.68ZM35.408 48.88H37.424C38.614 48.88 39.79 49.3 39.79 50.686C39.79 51.946 38.544 52.408 37.396 52.408H35.408V48.88ZM42.9524 53.5H44.0444V42.916H42.9524V53.5ZM46.8196 48.502C47.3376 48.026 48.0656 47.788 48.7656 47.788C49.7876 47.788 50.3896 48.278 50.3896 49.23V49.426H49.9696C48.3596 49.426 45.8396 49.552 45.8396 51.722C45.8396 52.996 46.9456 53.668 48.2756 53.668C49.2696 53.668 49.9976 53.192 50.4316 52.52H50.4596C50.4596 52.8 50.4596 53.206 50.5296 53.5H51.5796C51.5236 53.164 51.4816 52.744 51.4816 52.366V49.552C51.4816 47.704 50.6696 46.78 48.7376 46.78C47.7856 46.78 46.8056 47.102 46.1336 47.788L46.8196 48.502ZM50.3896 50.35V50.77C50.3616 51.834 49.7176 52.744 48.4576 52.744C47.6316 52.744 47.0156 52.436 47.0156 51.61C47.0156 50.728 47.9116 50.35 49.2976 50.35H50.3896ZM59.0074 47.816C58.3494 47.102 57.4534 46.78 56.4874 46.78C54.4714 46.78 53.0994 48.236 53.0994 50.224C53.0994 52.24 54.4574 53.668 56.4874 53.668C57.4394 53.668 58.3354 53.346 58.9654 52.618L58.1534 51.848C57.7474 52.408 57.2014 52.66 56.4874 52.66C55.1574 52.66 54.2754 51.568 54.2754 50.224C54.2754 48.88 55.0174 47.788 56.4874 47.788C57.1454 47.788 57.6774 48.026 58.1394 48.586L59.0074 47.816ZM60.2313 53.5H61.3233V50.056L64.5713 53.5H66.1813L62.6953 49.93L65.8593 46.948H64.3053L61.3233 49.832V42.916H60.2313V53.5Z" fill="white"/>
<path d="M44.698 111.39C43.858 110.298 42.542 109.836 41.198 109.836C38.258 109.836 36.158 112.132 36.158 115.044C36.158 118.054 38.356 120.252 41.198 120.252C42.78 120.252 44.068 119.706 44.95 118.516L44.068 117.774C43.368 118.67 42.402 119.16 41.198 119.16C38.972 119.16 37.418 117.34 37.418 115.044C37.418 112.874 38.986 110.928 41.198 110.928C42.15 110.928 43.088 111.334 43.676 112.132L44.698 111.39ZM46.0154 116.724C46.0154 118.768 47.4994 120.168 49.5154 120.168C51.5314 120.168 53.0154 118.768 53.0154 116.724C53.0154 114.68 51.5314 113.28 49.5154 113.28C47.4994 113.28 46.0154 114.68 46.0154 116.724ZM47.1914 116.724C47.1914 115.352 48.1014 114.288 49.5154 114.288C50.9294 114.288 51.8394 115.352 51.8394 116.724C51.8394 118.096 50.9294 119.16 49.5154 119.16C48.1014 119.16 47.1914 118.096 47.1914 116.724ZM55.3079 115.002C55.8259 114.526 56.5539 114.288 57.2539 114.288C58.2759 114.288 58.8779 114.778 58.8779 115.73V115.926H58.4579C56.8479 115.926 54.3279 116.052 54.3279 118.222C54.3279 119.496 55.4339 120.168 56.7639 120.168C57.7579 120.168 58.4859 119.692 58.9199 119.02H58.9479C58.9479 119.3 58.9479 119.706 59.0179 120H60.0679C60.0119 119.664 59.9699 119.244 59.9699 118.866V116.052C59.9699 114.204 59.1579 113.28 57.2259 113.28C56.2739 113.28 55.2939 113.602 54.6219 114.288L55.3079 115.002ZM58.8779 116.85V117.27C58.8499 118.334 58.2059 119.244 56.9459 119.244C56.1199 119.244 55.5039 118.936 55.5039 118.11C55.5039 117.228 56.3999 116.85 57.7859 116.85H58.8779ZM62.0637 120H63.1557V109.416H62.0637V120Z" fill="#333333"/>
</g>
<rect x="648" width="100" height="133" rx="4" fill="#E6E6E6"/>
<rect width="100" height="100" transform="translate(648)" fill="#5666BC"/>
<path d="M668.55 53.5H672.358C674.304 53.5 677.216 52.198 677.216 48.544C677.216 44.89 674.304 43.588 672.358 43.588H668.55V53.5ZM669.726 44.68H671.966C674.234 44.68 675.956 45.828 675.956 48.544C675.956 51.26 674.234 52.408 671.966 52.408H669.726V44.68ZM679.515 48.502C680.033 48.026 680.761 47.788 681.461 47.788C682.483 47.788 683.085 48.278 683.085 49.23V49.426H682.665C681.055 49.426 678.535 49.552 678.535 51.722C678.535 52.996 679.641 53.668 680.971 53.668C681.965 53.668 682.693 53.192 683.127 52.52H683.155C683.155 52.8 683.155 53.206 683.225 53.5H684.275C684.219 53.164 684.177 52.744 684.177 52.366V49.552C684.177 47.704 683.365 46.78 681.433 46.78C680.481 46.78 679.501 47.102 678.829 47.788L679.515 48.502ZM683.085 50.35V50.77C683.057 51.834 682.413 52.744 681.153 52.744C680.327 52.744 679.711 52.436 679.711 51.61C679.711 50.728 680.607 50.35 681.993 50.35H683.085ZM686.173 53.5H687.265V50.308C687.265 48.81 687.853 47.872 689.183 47.872C689.379 47.872 689.589 47.9 689.771 47.956L689.841 46.85C689.687 46.794 689.533 46.78 689.393 46.78C688.315 46.78 687.503 47.382 687.209 48.026H687.181C687.181 47.662 687.153 47.298 687.153 46.948H686.117C686.117 47.382 686.173 47.9 686.173 48.502V53.5ZM691.095 53.5H692.187V50.056L695.435 53.5H697.045L693.559 49.93L696.723 46.948H695.169L692.187 49.832V42.916H691.095V53.5ZM701.935 53.5H703.027V52.338H703.055C703.461 53.08 704.399 53.668 705.575 53.668C707.409 53.668 708.851 52.184 708.851 50.224C708.851 48.236 707.465 46.78 705.407 46.78C704.455 46.78 703.657 47.2 703.055 47.9H703.027V42.916H701.935V53.5ZM703.027 50.224C703.027 48.852 703.937 47.788 705.351 47.788C706.765 47.788 707.675 48.852 707.675 50.224C707.675 51.596 706.765 52.66 705.351 52.66C703.937 52.66 703.027 51.596 703.027 50.224ZM710.648 53.5H711.74V42.916H710.648V53.5ZM719.625 46.948H718.533V50.14C718.533 51.638 717.917 52.66 716.503 52.66C715.481 52.66 715.005 51.974 715.005 50.882V46.948H713.913V50.994C713.913 52.576 714.683 53.668 716.405 53.668C717.483 53.668 718.295 53.066 718.589 52.422H718.617C718.617 52.786 718.645 53.15 718.645 53.5H719.681C719.681 53.066 719.625 52.548 719.625 51.946V46.948ZM726.718 51.666C726.2 52.324 725.57 52.66 724.632 52.66C723.442 52.66 722.574 51.694 722.49 50.56H727.782V50.21C727.782 48.04 726.522 46.78 724.674 46.78C722.742 46.78 721.314 48.194 721.314 50.224C721.314 52.128 722.574 53.668 724.632 53.668C725.85 53.668 726.774 53.304 727.544 52.31L726.718 51.666ZM722.49 49.636C722.63 48.53 723.428 47.788 724.632 47.788C725.836 47.788 726.564 48.53 726.606 49.636H722.49Z" fill="white"/>
<path d="M657.05 120H660.858C662.804 120 665.716 118.698 665.716 115.044C665.716 111.39 662.804 110.088 660.858 110.088H657.05V120ZM658.226 111.18H660.466C662.734 111.18 664.456 112.328 664.456 115.044C664.456 117.76 662.734 118.908 660.466 118.908H658.226V111.18ZM672.439 118.166C671.921 118.824 671.291 119.16 670.353 119.16C669.163 119.16 668.295 118.194 668.211 117.06H673.503V116.71C673.503 114.54 672.243 113.28 670.395 113.28C668.463 113.28 667.035 114.694 667.035 116.724C667.035 118.628 668.295 120.168 670.353 120.168C671.571 120.168 672.495 119.804 673.265 118.81L672.439 118.166ZM668.211 116.136C668.351 115.03 669.149 114.288 670.353 114.288C671.557 114.288 672.285 115.03 672.327 116.136H668.211ZM675.192 120H676.284V116.808C676.284 115.31 676.9 114.288 678.314 114.288C679.21 114.288 679.574 114.848 679.574 116.29V120H680.666V116.22C680.666 115.044 681.436 114.288 682.36 114.288C683.634 114.288 683.956 115.17 683.956 116.08V120H685.048V116.024C685.048 114.33 684.432 113.28 682.556 113.28C681.562 113.28 680.96 113.756 680.484 114.526C680.274 114.078 679.826 113.28 678.412 113.28C677.334 113.28 676.522 113.882 676.228 114.526H676.2C676.2 114.162 676.172 113.798 676.172 113.448H675.136C675.136 113.882 675.192 114.4 675.192 115.002V120ZM687.716 115.002C688.234 114.526 688.962 114.288 689.662 114.288C690.684 114.288 691.286 114.778 691.286 115.73V115.926H690.866C689.256 115.926 686.736 116.052 686.736 118.222C686.736 119.496 687.842 120.168 689.172 120.168C690.166 120.168 690.894 119.692 691.328 119.02H691.356C691.356 119.3 691.356 119.706 691.426 120H692.476C692.42 119.664 692.378 119.244 692.378 118.866V116.052C692.378 114.204 691.566 113.28 689.634 113.28C688.682 113.28 687.702 113.602 687.03 114.288L687.716 115.002ZM691.286 116.85V117.27C691.258 118.334 690.614 119.244 689.354 119.244C688.528 119.244 687.912 118.936 687.912 118.11C687.912 117.228 688.808 116.85 690.194 116.85H691.286ZM694.374 120H695.466V116.808C695.466 115.31 696.082 114.288 697.496 114.288C698.518 114.288 698.994 114.974 698.994 116.066V120H700.086V115.954C700.086 114.372 699.316 113.28 697.594 113.28C696.516 113.28 695.704 113.882 695.41 114.526H695.382C695.382 114.162 695.354 113.798 695.354 113.448H694.318C694.318 113.882 694.374 114.4 694.374 115.002V120ZM707.599 120H708.691V109.416H707.599V114.4H707.571C706.969 113.7 706.171 113.28 705.219 113.28C703.161 113.28 701.775 114.736 701.775 116.724C701.775 118.684 703.217 120.168 705.051 120.168C706.227 120.168 707.165 119.58 707.571 118.838H707.599V120ZM707.599 116.724C707.599 118.096 706.689 119.16 705.275 119.16C703.861 119.16 702.951 118.096 702.951 116.724C702.951 115.352 703.861 114.288 705.275 114.288C706.689 114.288 707.599 115.352 707.599 116.724ZM713.88 118.95C714.524 119.874 715.322 120.168 716.428 120.168C717.73 120.168 719.046 119.594 719.046 118.11C719.046 116.794 718.066 116.374 716.904 116.15C716.036 115.982 715.252 115.744 715.252 115.198C715.252 114.582 715.938 114.288 716.54 114.288C717.184 114.288 717.646 114.61 717.926 115.072L718.836 114.47C718.388 113.63 717.534 113.28 716.61 113.28C715.392 113.28 714.16 113.938 714.16 115.212C714.16 116.57 715.224 116.836 716.47 117.116C717.17 117.27 717.87 117.452 717.87 118.152C717.87 118.866 717.114 119.16 716.428 119.16C715.658 119.16 715.182 118.81 714.748 118.278L713.88 118.95ZM720.667 120H721.759V113.448H720.667V120ZM720.415 110.886C720.415 111.348 720.751 111.684 721.213 111.684C721.675 111.684 722.011 111.348 722.011 110.886C722.011 110.452 721.661 110.088 721.213 110.088C720.765 110.088 720.415 110.452 720.415 110.886ZM729.378 120H730.47V109.416H729.378V114.4H729.35C728.748 113.7 727.95 113.28 726.998 113.28C724.94 113.28 723.554 114.736 723.554 116.724C723.554 118.684 724.996 120.168 726.83 120.168C728.006 120.168 728.944 119.58 729.35 118.838H729.378V120ZM729.378 116.724C729.378 118.096 728.468 119.16 727.054 119.16C725.64 119.16 724.73 118.096 724.73 116.724C724.73 115.352 725.64 114.288 727.054 114.288C728.468 114.288 729.378 115.352 729.378 116.724ZM737.517 118.166C736.999 118.824 736.369 119.16 735.431 119.16C734.241 119.16 733.373 118.194 733.289 117.06H738.581V116.71C738.581 114.54 737.321 113.28 735.473 113.28C733.541 113.28 732.113 114.694 732.113 116.724C732.113 118.628 733.373 120.168 735.431 120.168C736.649 120.168 737.573 119.804 738.343 118.81L737.517 118.166ZM733.289 116.136C733.429 115.03 734.227 114.288 735.431 114.288C736.635 114.288 737.363 115.03 737.405 116.136H733.289Z" fill="#333333"/>
<rect x="432" width="100" height="133" rx="4" fill="#E6E6E6"/>
<rect width="100" height="100" transform="translate(432)" fill="#B056BC"/>
<path d="M462.732 53.5H463.908V49.048H465.896C467.296 49.048 469.144 48.474 469.144 46.304C469.144 44.232 467.492 43.588 465.672 43.588H462.732V53.5ZM463.908 44.68H465.896C467.072 44.68 467.884 45.212 467.884 46.318C467.884 47.424 467.072 47.956 465.896 47.956H463.908V44.68ZM476.547 46.948H475.455V50.14C475.455 51.638 474.839 52.66 473.425 52.66C472.403 52.66 471.927 51.974 471.927 50.882V46.948H470.835V50.994C470.835 52.576 471.605 53.668 473.327 53.668C474.405 53.668 475.217 53.066 475.511 52.422H475.539C475.539 52.786 475.567 53.15 475.567 53.5H476.603C476.603 53.066 476.547 52.548 476.547 51.946V46.948ZM478.614 53.5H479.706V50.308C479.706 48.81 480.294 47.872 481.624 47.872C481.82 47.872 482.03 47.9 482.212 47.956L482.282 46.85C482.128 46.794 481.974 46.78 481.834 46.78C480.756 46.78 479.944 47.382 479.65 48.026H479.622C479.622 47.662 479.594 47.298 479.594 46.948H478.558C478.558 47.382 478.614 47.9 478.614 48.502V53.5ZM483.48 56.692H484.572V52.338H484.6C485.006 53.08 485.944 53.668 487.12 53.668C488.954 53.668 490.396 52.184 490.396 50.224C490.396 48.236 489.01 46.78 486.952 46.78C486 46.78 485.202 47.2 484.6 47.9H484.572V46.948H483.48V56.692ZM484.572 50.224C484.572 48.852 485.482 47.788 486.896 47.788C488.31 47.788 489.22 48.852 489.22 50.224C489.22 51.596 488.31 52.66 486.896 52.66C485.482 52.66 484.572 51.596 484.572 50.224ZM492.193 53.5H493.285V42.916H492.193V53.5ZM500.484 51.666C499.966 52.324 499.336 52.66 498.398 52.66C497.208 52.66 496.34 51.694 496.256 50.56H501.548V50.21C501.548 48.04 500.288 46.78 498.44 46.78C496.508 46.78 495.08 48.194 495.08 50.224C495.08 52.128 496.34 53.668 498.398 53.668C499.616 53.668 500.54 53.304 501.31 52.31L500.484 51.666ZM496.256 49.636C496.396 48.53 497.194 47.788 498.398 47.788C499.602 47.788 500.33 48.53 500.372 49.636H496.256Z" fill="white"/>
<path d="M460.232 120H463.186C465.02 120 467.05 119.412 467.05 117.228C467.05 115.926 466.084 114.904 464.81 114.792V114.764C465.874 114.442 466.546 113.672 466.546 112.524C466.546 110.704 464.894 110.088 463.256 110.088H460.232V120ZM461.408 111.18H463.158C464.222 111.18 465.286 111.46 465.286 112.678C465.286 114.05 464.138 114.288 463.032 114.288H461.408V111.18ZM461.408 115.38H463.424C464.614 115.38 465.79 115.8 465.79 117.186C465.79 118.446 464.544 118.908 463.396 118.908H461.408V115.38ZM469.456 115.002C469.974 114.526 470.702 114.288 471.402 114.288C472.424 114.288 473.026 114.778 473.026 115.73V115.926H472.606C470.996 115.926 468.476 116.052 468.476 118.222C468.476 119.496 469.582 120.168 470.912 120.168C471.906 120.168 472.634 119.692 473.068 119.02H473.096C473.096 119.3 473.096 119.706 473.166 120H474.216C474.16 119.664 474.118 119.244 474.118 118.866V116.052C474.118 114.204 473.306 113.28 471.374 113.28C470.422 113.28 469.442 113.602 468.77 114.288L469.456 115.002ZM473.026 116.85V117.27C472.998 118.334 472.354 119.244 471.094 119.244C470.268 119.244 469.652 118.936 469.652 118.11C469.652 117.228 470.548 116.85 471.934 116.85H473.026ZM479.698 113.448H477.766V111.586H476.674V113.448H475.246V114.372H476.674V117.97C476.674 119.328 476.926 120.168 478.48 120.168C478.886 120.168 479.376 120.098 479.754 119.93L479.712 118.936C479.418 119.09 479.068 119.16 478.746 119.16C477.78 119.16 477.766 118.488 477.766 117.648V114.372H479.698V113.448ZM484.62 113.448H482.688V111.586H481.596V113.448H480.168V114.372H481.596V117.97C481.596 119.328 481.848 120.168 483.402 120.168C483.808 120.168 484.298 120.098 484.676 119.93L484.634 118.936C484.34 119.09 483.99 119.16 483.668 119.16C482.702 119.16 482.688 118.488 482.688 117.648V114.372H484.62V113.448ZM490.984 118.166C490.466 118.824 489.836 119.16 488.898 119.16C487.708 119.16 486.84 118.194 486.756 117.06H492.048V116.71C492.048 114.54 490.788 113.28 488.94 113.28C487.008 113.28 485.58 114.694 485.58 116.724C485.58 118.628 486.84 120.168 488.898 120.168C490.116 120.168 491.04 119.804 491.81 118.81L490.984 118.166ZM486.756 116.136C486.896 115.03 487.694 114.288 488.898 114.288C490.102 114.288 490.83 115.03 490.872 116.136H486.756ZM493.737 120H494.829V116.808C494.829 115.31 495.417 114.372 496.747 114.372C496.943 114.372 497.153 114.4 497.335 114.456L497.405 113.35C497.251 113.294 497.097 113.28 496.957 113.28C495.879 113.28 495.067 113.882 494.773 114.526H494.745C494.745 114.162 494.717 113.798 494.717 113.448H493.681C493.681 113.882 493.737 114.4 493.737 115.002V120ZM504.231 113.448H503.041L501.095 118.586H501.067L499.037 113.448H497.763L500.479 120.042L500.031 121.274C499.793 121.918 499.527 122.352 498.813 122.352C498.505 122.352 498.267 122.324 498.043 122.24L497.903 123.192C498.197 123.332 498.575 123.36 498.883 123.36C500.199 123.36 500.633 122.604 501.067 121.498L504.231 113.448Z" fill="#333333"/>
<rect x="432" y="141" width="100" height="133" rx="4" fill="#E6E6E6"/>
<rect width="100" height="100" transform="translate(432 141)" fill="#5CDCD6"/>
<path d="M458.882 184.588H451.154V185.68H454.43V194.5H455.606V185.68H458.882V184.588ZM458.138 191.224C458.138 193.268 459.622 194.668 461.638 194.668C463.654 194.668 465.138 193.268 465.138 191.224C465.138 189.18 463.654 187.78 461.638 187.78C459.622 187.78 458.138 189.18 458.138 191.224ZM459.314 191.224C459.314 189.852 460.224 188.788 461.638 188.788C463.052 188.788 463.962 189.852 463.962 191.224C463.962 192.596 463.052 193.66 461.638 193.66C460.224 193.66 459.314 192.596 459.314 191.224ZM466.829 194.5H467.921V191.308C467.921 189.81 468.509 188.872 469.839 188.872C470.035 188.872 470.245 188.9 470.427 188.956L470.497 187.85C470.343 187.794 470.189 187.78 470.049 187.78C468.971 187.78 468.159 188.382 467.865 189.026H467.837C467.837 188.662 467.809 188.298 467.809 187.948H466.773C466.773 188.382 466.829 188.9 466.829 189.502V194.5ZM478.043 187.948H476.951V189.11H476.923C476.517 188.368 475.579 187.78 474.403 187.78C472.569 187.78 471.127 189.264 471.127 191.224C471.127 193.212 472.513 194.668 474.571 194.668C475.523 194.668 476.321 194.248 476.923 193.548H476.951V197.692H478.043V187.948ZM476.951 191.224C476.951 192.596 476.041 193.66 474.627 193.66C473.213 193.66 472.303 192.596 472.303 191.224C472.303 189.852 473.213 188.788 474.627 188.788C476.041 188.788 476.951 189.852 476.951 191.224ZM485.775 187.948H484.683V191.14C484.683 192.638 484.067 193.66 482.653 193.66C481.631 193.66 481.155 192.974 481.155 191.882V187.948H480.063V191.994C480.063 193.576 480.833 194.668 482.555 194.668C483.633 194.668 484.445 194.066 484.739 193.422H484.767C484.767 193.786 484.795 194.15 484.795 194.5H485.831C485.831 194.066 485.775 193.548 485.775 192.946V187.948ZM487.465 191.224C487.465 193.268 488.949 194.668 490.965 194.668C492.981 194.668 494.465 193.268 494.465 191.224C494.465 189.18 492.981 187.78 490.965 187.78C488.949 187.78 487.465 189.18 487.465 191.224ZM488.641 191.224C488.641 189.852 489.551 188.788 490.965 188.788C492.379 188.788 493.289 189.852 493.289 191.224C493.289 192.596 492.379 193.66 490.965 193.66C489.551 193.66 488.641 192.596 488.641 191.224ZM496.253 194.5H497.345V187.948H496.253V194.5ZM496.001 185.386C496.001 185.848 496.337 186.184 496.799 186.184C497.261 186.184 497.597 185.848 497.597 185.386C497.597 184.952 497.247 184.588 496.799 184.588C496.351 184.588 496.001 184.952 496.001 185.386ZM498.79 193.45C499.434 194.374 500.232 194.668 501.338 194.668C502.64 194.668 503.956 194.094 503.956 192.61C503.956 191.294 502.976 190.874 501.814 190.65C500.946 190.482 500.162 190.244 500.162 189.698C500.162 189.082 500.848 188.788 501.45 188.788C502.094 188.788 502.556 189.11 502.836 189.572L503.746 188.97C503.298 188.13 502.444 187.78 501.52 187.78C500.302 187.78 499.07 188.438 499.07 189.712C499.07 191.07 500.134 191.336 501.38 191.616C502.08 191.77 502.78 191.952 502.78 192.652C502.78 193.366 502.024 193.66 501.338 193.66C500.568 193.66 500.092 193.31 499.658 192.778L498.79 193.45ZM510.505 192.666C509.987 193.324 509.357 193.66 508.419 193.66C507.229 193.66 506.361 192.694 506.277 191.56H511.569V191.21C511.569 189.04 510.309 187.78 508.461 187.78C506.529 187.78 505.101 189.194 505.101 191.224C505.101 193.128 506.361 194.668 508.419 194.668C509.637 194.668 510.561 194.304 511.331 193.31L510.505 192.666ZM506.277 190.636C506.417 189.53 507.215 188.788 508.419 188.788C509.623 188.788 510.351 189.53 510.393 190.636H506.277Z" fill="#333333"/>
<path d="M447.732 261H453.444V259.908H448.908V251.088H447.732V261ZM455.138 256.002C455.656 255.526 456.384 255.288 457.084 255.288C458.106 255.288 458.708 255.778 458.708 256.73V256.926H458.288C456.678 256.926 454.158 257.052 454.158 259.222C454.158 260.496 455.264 261.168 456.594 261.168C457.588 261.168 458.316 260.692 458.75 260.02H458.778C458.778 260.3 458.778 260.706 458.848 261H459.898C459.842 260.664 459.8 260.244 459.8 259.866V257.052C459.8 255.204 458.988 254.28 457.056 254.28C456.104 254.28 455.124 254.602 454.452 255.288L455.138 256.002ZM458.708 257.85V258.27C458.68 259.334 458.036 260.244 456.776 260.244C455.95 260.244 455.334 259.936 455.334 259.11C455.334 258.228 456.23 257.85 457.616 257.85H458.708ZM461.796 261H462.888V257.808C462.888 256.31 463.504 255.288 464.918 255.288C465.94 255.288 466.416 255.974 466.416 257.066V261H467.508V256.954C467.508 255.372 466.738 254.28 465.016 254.28C463.938 254.28 463.126 254.882 462.832 255.526H462.804C462.804 255.162 462.776 254.798 462.776 254.448H461.74C461.74 254.882 461.796 255.4 461.796 256.002V261ZM475.021 261H476.113V250.416H475.021V255.4H474.993C474.391 254.7 473.593 254.28 472.641 254.28C470.583 254.28 469.197 255.736 469.197 257.724C469.197 259.684 470.639 261.168 472.473 261.168C473.649 261.168 474.587 260.58 474.993 259.838H475.021V261ZM475.021 257.724C475.021 259.096 474.111 260.16 472.697 260.16C471.283 260.16 470.373 259.096 470.373 257.724C470.373 256.352 471.283 255.288 472.697 255.288C474.111 255.288 475.021 256.352 475.021 257.724ZM481.382 254.448H479.786V253.216C479.786 252.082 479.828 251.256 480.962 251.256C481.214 251.256 481.466 251.312 481.704 251.396L481.858 250.416C481.648 250.304 481.298 250.248 481.018 250.248C479.254 250.248 478.694 251.382 478.694 252.978V254.448H477.266V255.372H478.694V261H479.786V255.372H481.382V254.448ZM482.39 261H483.482V254.448H482.39V261ZM482.138 251.886C482.138 252.348 482.474 252.684 482.936 252.684C483.398 252.684 483.734 252.348 483.734 251.886C483.734 251.452 483.384 251.088 482.936 251.088C482.488 251.088 482.138 251.452 482.138 251.886ZM485.751 261H486.843V250.416H485.751V261ZM489.114 261H490.206V250.416H489.114V261ZM502.814 254.448H501.722V255.568H501.694C501.26 254.7 500.266 254.28 499.384 254.28C497.298 254.28 495.898 255.582 495.898 257.724C495.898 259.656 497.326 261.084 499.384 261.084C500.252 261.084 501.176 260.706 501.694 259.866H501.722V260.706C501.722 262.092 501.204 263.352 499.244 263.352C498.236 263.352 497.494 262.96 496.808 262.218L496.024 263.114C496.948 264.024 497.97 264.36 499.244 264.36C501.54 264.36 502.814 263.072 502.814 260.706V254.448ZM497.074 257.724C497.074 256.352 498.012 255.288 499.384 255.288C500.77 255.288 501.722 256.282 501.722 257.696C501.722 258.956 500.882 260.076 499.384 260.076C498.11 260.076 497.074 259.054 497.074 257.724ZM505.437 256.002C505.955 255.526 506.683 255.288 507.383 255.288C508.405 255.288 509.007 255.778 509.007 256.73V256.926H508.587C506.977 256.926 504.457 257.052 504.457 259.222C504.457 260.496 505.563 261.168 506.893 261.168C507.887 261.168 508.615 260.692 509.049 260.02H509.077C509.077 260.3 509.077 260.706 509.147 261H510.197C510.141 260.664 510.099 260.244 510.099 259.866V257.052C510.099 255.204 509.287 254.28 507.355 254.28C506.403 254.28 505.423 254.602 504.751 255.288L505.437 256.002ZM509.007 257.85V258.27C508.979 259.334 508.335 260.244 507.075 260.244C506.249 260.244 505.633 259.936 505.633 259.11C505.633 258.228 506.529 257.85 507.915 257.85H509.007ZM511.367 259.95C512.011 260.874 512.809 261.168 513.915 261.168C515.217 261.168 516.533 260.594 516.533 259.11C516.533 257.794 515.553 257.374 514.391 257.15C513.523 256.982 512.739 256.744 512.739 256.198C512.739 255.582 513.425 255.288 514.027 255.288C514.671 255.288 515.133 255.61 515.413 256.072L516.323 255.47C515.875 254.63 515.021 254.28 514.097 254.28C512.879 254.28 511.647 254.938 511.647 256.212C511.647 257.57 512.711 257.836 513.957 258.116C514.657 258.27 515.357 258.452 515.357 259.152C515.357 259.866 514.601 260.16 513.915 260.16C513.145 260.16 512.669 259.81 512.235 259.278L511.367 259.95Z" fill="#333333"/>
<rect y="141" width="100" height="133" rx="4" fill="#E6E6E6"/>
<rect width="100" height="100" transform="translate(0 141)" fill="#FFB546"/>
<path d="M31.838 194.752C34.848 194.752 37.018 192.54 37.018 189.544C37.018 186.548 34.848 184.336 31.838 184.336C28.828 184.336 26.658 186.548 26.658 189.544C26.658 192.54 28.828 194.752 31.838 194.752ZM31.838 193.66C29.514 193.66 27.918 191.826 27.918 189.544C27.918 187.262 29.514 185.428 31.838 185.428C34.162 185.428 35.758 187.262 35.758 189.544C35.758 191.826 34.162 193.66 31.838 193.66ZM38.7118 194.5H39.8038V191.308C39.8038 189.81 40.3918 188.872 41.7218 188.872C41.9178 188.872 42.1278 188.9 42.3098 188.956L42.3798 187.85C42.2258 187.794 42.0718 187.78 41.9318 187.78C40.8538 187.78 40.0418 188.382 39.7478 189.026H39.7198C39.7198 188.662 39.6918 188.298 39.6918 187.948H38.6558C38.6558 188.382 38.7118 188.9 38.7118 189.502V194.5ZM44.2357 189.502C44.7537 189.026 45.4817 188.788 46.1817 188.788C47.2037 188.788 47.8057 189.278 47.8057 190.23V190.426H47.3857C45.7757 190.426 43.2557 190.552 43.2557 192.722C43.2557 193.996 44.3617 194.668 45.6917 194.668C46.6857 194.668 47.4137 194.192 47.8477 193.52H47.8757C47.8757 193.8 47.8757 194.206 47.9457 194.5H48.9957C48.9397 194.164 48.8977 193.744 48.8977 193.366V190.552C48.8977 188.704 48.0857 187.78 46.1537 187.78C45.2017 187.78 44.2217 188.102 43.5497 188.788L44.2357 189.502ZM47.8057 191.35V191.77C47.7777 192.834 47.1337 193.744 45.8737 193.744C45.0477 193.744 44.4317 193.436 44.4317 192.61C44.4317 191.728 45.3277 191.35 46.7137 191.35H47.8057ZM50.8934 194.5H51.9854V191.308C51.9854 189.81 52.6014 188.788 54.0154 188.788C55.0374 188.788 55.5134 189.474 55.5134 190.566V194.5H56.6054V190.454C56.6054 188.872 55.8354 187.78 54.1134 187.78C53.0354 187.78 52.2234 188.382 51.9294 189.026H51.9014C51.9014 188.662 51.8734 188.298 51.8734 187.948H50.8374C50.8374 188.382 50.8934 188.9 50.8934 189.502V194.5ZM65.2107 187.948H64.1187V189.068H64.0907C63.6567 188.2 62.6627 187.78 61.7807 187.78C59.6947 187.78 58.2947 189.082 58.2947 191.224C58.2947 193.156 59.7227 194.584 61.7807 194.584C62.6487 194.584 63.5727 194.206 64.0907 193.366H64.1187V194.206C64.1187 195.592 63.6007 196.852 61.6407 196.852C60.6327 196.852 59.8907 196.46 59.2047 195.718L58.4207 196.614C59.3447 197.524 60.3667 197.86 61.6407 197.86C63.9367 197.86 65.2107 196.572 65.2107 194.206V187.948ZM59.4707 191.224C59.4707 189.852 60.4087 188.788 61.7807 188.788C63.1667 188.788 64.1187 189.782 64.1187 191.196C64.1187 192.456 63.2787 193.576 61.7807 193.576C60.5067 193.576 59.4707 192.554 59.4707 191.224ZM72.2573 192.666C71.7393 193.324 71.1093 193.66 70.1713 193.66C68.9813 193.66 68.1133 192.694 68.0293 191.56H73.3213V191.21C73.3213 189.04 72.0613 187.78 70.2133 187.78C68.2813 187.78 66.8533 189.194 66.8533 191.224C66.8533 193.128 68.1133 194.668 70.1713 194.668C71.3893 194.668 72.3133 194.304 73.0833 193.31L72.2573 192.666ZM68.0293 190.636C68.1693 189.53 68.9673 188.788 70.1713 188.788C71.3753 188.788 72.1033 189.53 72.1453 190.636H68.0293Z" fill="#333333"/>
<path d="M14.902 251.998C14.174 251.144 13.236 250.836 12.13 250.836C10.394 250.836 8.756 251.788 8.756 253.692C8.756 255.344 9.82 255.96 11.22 256.422C12.984 257.01 13.81 257.22 13.81 258.438C13.81 259.572 12.662 260.16 11.654 260.16C10.8 260.16 9.96 259.782 9.54 259.054L8.532 259.88C9.204 260.874 10.436 261.252 11.584 261.252C13.376 261.252 15.07 260.328 15.07 258.354C15.07 256.408 13.642 255.904 12.102 255.414C10.52 254.91 10.016 254.504 10.016 253.594C10.016 252.418 11.094 251.928 12.13 251.928C12.844 251.928 13.544 252.208 13.936 252.838L14.902 251.998ZM16.4373 257.724C16.4373 259.768 17.9213 261.168 19.9373 261.168C21.9533 261.168 23.4373 259.768 23.4373 257.724C23.4373 255.68 21.9533 254.28 19.9373 254.28C17.9213 254.28 16.4373 255.68 16.4373 257.724ZM17.6133 257.724C17.6133 256.352 18.5233 255.288 19.9373 255.288C21.3513 255.288 22.2613 256.352 22.2613 257.724C22.2613 259.096 21.3513 260.16 19.9373 260.16C18.5233 260.16 17.6133 259.096 17.6133 257.724ZM25.2258 261H26.3178V250.416H25.2258V261ZM29.0931 256.002C29.6111 255.526 30.3391 255.288 31.0391 255.288C32.0611 255.288 32.6631 255.778 32.6631 256.73V256.926H32.2431C30.6331 256.926 28.1131 257.052 28.1131 259.222C28.1131 260.496 29.2191 261.168 30.5491 261.168C31.5431 261.168 32.2711 260.692 32.7051 260.02H32.7331C32.7331 260.3 32.7331 260.706 32.8031 261H33.8531C33.7971 260.664 33.7551 260.244 33.7551 259.866V257.052C33.7551 255.204 32.9431 254.28 31.0111 254.28C30.0591 254.28 29.0791 254.602 28.4071 255.288L29.0931 256.002ZM32.6631 257.85V258.27C32.6351 259.334 31.9911 260.244 30.7311 260.244C29.9051 260.244 29.2891 259.936 29.2891 259.11C29.2891 258.228 30.1851 257.85 31.5711 257.85H32.6631ZM35.7508 261H36.8428V257.808C36.8428 256.31 37.4308 255.372 38.7608 255.372C38.9568 255.372 39.1668 255.4 39.3488 255.456L39.4188 254.35C39.2648 254.294 39.1108 254.28 38.9708 254.28C37.8928 254.28 37.0808 254.882 36.7868 255.526H36.7588C36.7588 255.162 36.7308 254.798 36.7308 254.448H35.6948C35.6948 254.882 35.7508 255.4 35.7508 256.002V261ZM48.1532 254.448H46.2212V252.586H45.1292V254.448H43.7012V255.372H45.1292V258.97C45.1292 260.328 45.3812 261.168 46.9352 261.168C47.3412 261.168 47.8312 261.098 48.2092 260.93L48.1672 259.936C47.8732 260.09 47.5232 260.16 47.2012 260.16C46.2352 260.16 46.2212 259.488 46.2212 258.648V255.372H48.1532V254.448ZM49.4911 261H50.5831V257.808C50.5831 256.31 51.1991 255.288 52.6131 255.288C53.6351 255.288 54.1111 255.974 54.1111 257.066V261H55.2031V256.954C55.2031 255.372 54.4331 254.28 52.7111 254.28C51.6891 254.28 50.9051 254.84 50.6111 255.358H50.5831V250.416H49.4911V261ZM62.2964 259.166C61.7784 259.824 61.1484 260.16 60.2104 260.16C59.0204 260.16 58.1524 259.194 58.0684 258.06H63.3604V257.71C63.3604 255.54 62.1004 254.28 60.2524 254.28C58.3204 254.28 56.8924 255.694 56.8924 257.724C56.8924 259.628 58.1524 261.168 60.2104 261.168C61.4284 261.168 62.3524 260.804 63.1224 259.81L62.2964 259.166ZM58.0684 257.136C58.2084 256.03 59.0064 255.288 60.2104 255.288C61.4144 255.288 62.1424 256.03 62.1844 257.136H58.0684ZM65.0497 261H66.1417V257.808C66.1417 256.31 66.7297 255.372 68.0597 255.372C68.2557 255.372 68.4657 255.4 68.6477 255.456L68.7177 254.35C68.5637 254.294 68.4097 254.28 68.2697 254.28C67.1917 254.28 66.3797 254.882 66.0857 255.526H66.0577C66.0577 255.162 66.0297 254.798 66.0297 254.448H64.9937C64.9937 254.882 65.0497 255.4 65.0497 256.002V261ZM69.9715 261H71.0635V257.808C71.0635 256.31 71.6795 255.288 73.0935 255.288C73.9895 255.288 74.3535 255.848 74.3535 257.29V261H75.4455V257.22C75.4455 256.044 76.2155 255.288 77.1395 255.288C78.4135 255.288 78.7355 256.17 78.7355 257.08V261H79.8275V257.024C79.8275 255.33 79.2115 254.28 77.3355 254.28C76.3415 254.28 75.7395 254.756 75.2635 255.526C75.0535 255.078 74.6055 254.28 73.1915 254.28C72.1135 254.28 71.3015 254.882 71.0075 255.526H70.9795C70.9795 255.162 70.9515 254.798 70.9515 254.448H69.9155C69.9155 254.882 69.9715 255.4 69.9715 256.002V261ZM82.4954 256.002C83.0134 255.526 83.7414 255.288 84.4414 255.288C85.4634 255.288 86.0654 255.778 86.0654 256.73V256.926H85.6454C84.0354 256.926 81.5154 257.052 81.5154 259.222C81.5154 260.496 82.6214 261.168 83.9514 261.168C84.9454 261.168 85.6734 260.692 86.1074 260.02H86.1354C86.1354 260.3 86.1354 260.706 86.2054 261H87.2554C87.1994 260.664 87.1574 260.244 87.1574 259.866V257.052C87.1574 255.204 86.3454 254.28 84.4134 254.28C83.4614 254.28 82.4814 254.602 81.8094 255.288L82.4954 256.002ZM86.0654 257.85V258.27C86.0374 259.334 85.3934 260.244 84.1334 260.244C83.3074 260.244 82.6914 259.936 82.6914 259.11C82.6914 258.228 83.5874 257.85 84.9734 257.85H86.0654ZM89.2512 261H90.3432V250.416H89.2512V261Z" fill="#333333"/>
<rect x="540" width="100" height="133" rx="4" fill="#E6E6E6"/>
<rect width="100" height="100" transform="translate(540)" fill="#D77EE2"/>
<path d="M560.55 53.5H564.358C566.304 53.5 569.216 52.198 569.216 48.544C569.216 44.89 566.304 43.588 564.358 43.588H560.55V53.5ZM561.726 44.68H563.966C566.234 44.68 567.956 45.828 567.956 48.544C567.956 51.26 566.234 52.408 563.966 52.408H561.726V44.68ZM571.515 48.502C572.033 48.026 572.761 47.788 573.461 47.788C574.483 47.788 575.085 48.278 575.085 49.23V49.426H574.665C573.055 49.426 570.535 49.552 570.535 51.722C570.535 52.996 571.641 53.668 572.971 53.668C573.965 53.668 574.693 53.192 575.127 52.52H575.155C575.155 52.8 575.155 53.206 575.225 53.5H576.275C576.219 53.164 576.177 52.744 576.177 52.366V49.552C576.177 47.704 575.365 46.78 573.433 46.78C572.481 46.78 571.501 47.102 570.829 47.788L571.515 48.502ZM575.085 50.35V50.77C575.057 51.834 574.413 52.744 573.153 52.744C572.327 52.744 571.711 52.436 571.711 51.61C571.711 50.728 572.607 50.35 573.993 50.35H575.085ZM578.173 53.5H579.265V50.308C579.265 48.81 579.853 47.872 581.183 47.872C581.379 47.872 581.589 47.9 581.771 47.956L581.841 46.85C581.687 46.794 581.533 46.78 581.393 46.78C580.315 46.78 579.503 47.382 579.209 48.026H579.181C579.181 47.662 579.153 47.298 579.153 46.948H578.117C578.117 47.382 578.173 47.9 578.173 48.502V53.5ZM583.095 53.5H584.187V50.056L587.435 53.5H589.045L585.559 49.93L588.723 46.948H587.169L584.187 49.832V42.916H583.095V53.5ZM593.935 56.692H595.027V52.338H595.055C595.461 53.08 596.399 53.668 597.575 53.668C599.409 53.668 600.851 52.184 600.851 50.224C600.851 48.236 599.465 46.78 597.407 46.78C596.455 46.78 595.657 47.2 595.055 47.9H595.027V46.948H593.935V56.692ZM595.027 50.224C595.027 48.852 595.937 47.788 597.351 47.788C598.765 47.788 599.675 48.852 599.675 50.224C599.675 51.596 598.765 52.66 597.351 52.66C595.937 52.66 595.027 51.596 595.027 50.224ZM602.648 53.5H603.74V46.948H602.648V53.5ZM602.396 44.386C602.396 44.848 602.732 45.184 603.194 45.184C603.656 45.184 603.992 44.848 603.992 44.386C603.992 43.952 603.642 43.588 603.194 43.588C602.746 43.588 602.396 43.952 602.396 44.386ZM605.913 53.5H607.005V50.308C607.005 48.81 607.621 47.788 609.035 47.788C610.057 47.788 610.533 48.474 610.533 49.566V53.5H611.625V49.454C611.625 47.872 610.855 46.78 609.133 46.78C608.055 46.78 607.243 47.382 606.949 48.026H606.921C606.921 47.662 606.893 47.298 606.893 46.948H605.857C605.857 47.382 605.913 47.9 605.913 48.502V53.5ZM613.692 53.5H614.784V50.056L618.032 53.5H619.642L616.156 49.93L619.32 46.948H617.766L614.784 49.832V42.916H613.692V53.5Z" fill="white"/>
<path d="M552.732 120H555.686C557.52 120 559.55 119.412 559.55 117.228C559.55 115.926 558.584 114.904 557.31 114.792V114.764C558.374 114.442 559.046 113.672 559.046 112.524C559.046 110.704 557.394 110.088 555.756 110.088H552.732V120ZM553.908 111.18H555.658C556.722 111.18 557.786 111.46 557.786 112.678C557.786 114.05 556.638 114.288 555.532 114.288H553.908V111.18ZM553.908 115.38H555.924C557.114 115.38 558.29 115.8 558.29 117.186C558.29 118.446 557.044 118.908 555.896 118.908H553.908V115.38ZM561.956 115.002C562.474 114.526 563.202 114.288 563.902 114.288C564.924 114.288 565.526 114.778 565.526 115.73V115.926H565.106C563.496 115.926 560.976 116.052 560.976 118.222C560.976 119.496 562.082 120.168 563.412 120.168C564.406 120.168 565.134 119.692 565.568 119.02H565.596C565.596 119.3 565.596 119.706 565.666 120H566.716C566.66 119.664 566.618 119.244 566.618 118.866V116.052C566.618 114.204 565.806 113.28 563.874 113.28C562.922 113.28 561.942 113.602 561.27 114.288L561.956 115.002ZM565.526 116.85V117.27C565.498 118.334 564.854 119.244 563.594 119.244C562.768 119.244 562.152 118.936 562.152 118.11C562.152 117.228 563.048 116.85 564.434 116.85H565.526ZM572.198 113.448H570.266V111.586H569.174V113.448H567.746V114.372H569.174V117.97C569.174 119.328 569.426 120.168 570.98 120.168C571.386 120.168 571.876 120.098 572.254 119.93L572.212 118.936C571.918 119.09 571.568 119.16 571.246 119.16C570.28 119.16 570.266 118.488 570.266 117.648V114.372H572.198V113.448ZM577.12 113.448H575.188V111.586H574.096V113.448H572.668V114.372H574.096V117.97C574.096 119.328 574.348 120.168 575.902 120.168C576.308 120.168 576.798 120.098 577.176 119.93L577.134 118.936C576.84 119.09 576.49 119.16 576.168 119.16C575.202 119.16 575.188 118.488 575.188 117.648V114.372H577.12V113.448ZM583.484 118.166C582.966 118.824 582.336 119.16 581.398 119.16C580.208 119.16 579.34 118.194 579.256 117.06H584.548V116.71C584.548 114.54 583.288 113.28 581.44 113.28C579.508 113.28 578.08 114.694 578.08 116.724C578.08 118.628 579.34 120.168 581.398 120.168C582.616 120.168 583.54 119.804 584.31 118.81L583.484 118.166ZM579.256 116.136C579.396 115.03 580.194 114.288 581.398 114.288C582.602 114.288 583.33 115.03 583.372 116.136H579.256ZM586.237 120H587.329V116.808C587.329 115.31 587.917 114.372 589.247 114.372C589.443 114.372 589.653 114.4 589.835 114.456L589.905 113.35C589.751 113.294 589.597 113.28 589.457 113.28C588.379 113.28 587.567 113.882 587.273 114.526H587.245C587.245 114.162 587.217 113.798 587.217 113.448H586.181C586.181 113.882 586.237 114.4 586.237 115.002V120ZM596.731 113.448H595.541L593.595 118.586H593.567L591.537 113.448H590.263L592.979 120.042L592.531 121.274C592.293 121.918 592.027 122.352 591.313 122.352C591.005 122.352 590.767 122.324 590.543 122.24L590.403 123.192C590.697 123.332 591.075 123.36 591.383 123.36C592.699 123.36 593.133 122.604 593.567 121.498L596.731 113.448ZM601.907 120H602.999V109.416H601.907V120ZM604.795 116.724C604.795 118.768 606.279 120.168 608.295 120.168C610.311 120.168 611.795 118.768 611.795 116.724C611.795 114.68 610.311 113.28 608.295 113.28C606.279 113.28 604.795 114.68 604.795 116.724ZM605.971 116.724C605.971 115.352 606.881 114.288 608.295 114.288C609.709 114.288 610.619 115.352 610.619 116.724C610.619 118.096 609.709 119.16 608.295 119.16C606.881 119.16 605.971 118.096 605.971 116.724ZM614.087 115.002C614.605 114.526 615.333 114.288 616.033 114.288C617.055 114.288 617.657 114.778 617.657 115.73V115.926H617.237C615.627 115.926 613.107 116.052 613.107 118.222C613.107 119.496 614.213 120.168 615.543 120.168C616.537 120.168 617.265 119.692 617.699 119.02H617.727C617.727 119.3 617.727 119.706 617.797 120H618.847C618.791 119.664 618.749 119.244 618.749 118.866V116.052C618.749 114.204 617.937 113.28 616.005 113.28C615.053 113.28 614.073 113.602 613.401 114.288L614.087 115.002ZM617.657 116.85V117.27C617.629 118.334 616.985 119.244 615.725 119.244C614.899 119.244 614.283 118.936 614.283 118.11C614.283 117.228 615.179 116.85 616.565 116.85H617.657ZM626.191 120H627.283V109.416H626.191V114.4H626.163C625.561 113.7 624.763 113.28 623.811 113.28C621.753 113.28 620.367 114.736 620.367 116.724C620.367 118.684 621.809 120.168 623.643 120.168C624.819 120.168 625.757 119.58 626.163 118.838H626.191V120ZM626.191 116.724C626.191 118.096 625.281 119.16 623.867 119.16C622.453 119.16 621.543 118.096 621.543 116.724C621.543 115.352 622.453 114.288 623.867 114.288C625.281 114.288 626.191 115.352 626.191 116.724Z" fill="#333333"/>
<rect x="540" y="141" width="100" height="133" rx="4" fill="#E6E6E6"/>
<rect width="100" height="100" transform="translate(540 141)" fill="#E2A8EA"/>
<path d="M577.732 194.5H578.908V190.048H580.896C582.296 190.048 584.144 189.474 584.144 187.304C584.144 185.232 582.492 184.588 580.672 184.588H577.732V194.5ZM578.908 185.68H580.896C582.072 185.68 582.884 186.212 582.884 187.318C582.884 188.424 582.072 188.956 580.896 188.956H578.908V185.68ZM585.933 194.5H587.025V187.948H585.933V194.5ZM585.681 185.386C585.681 185.848 586.017 186.184 586.479 186.184C586.941 186.184 587.277 185.848 587.277 185.386C587.277 184.952 586.927 184.588 586.479 184.588C586.031 184.588 585.681 184.952 585.681 185.386ZM589.198 194.5H590.29V191.308C590.29 189.81 590.906 188.788 592.32 188.788C593.342 188.788 593.818 189.474 593.818 190.566V194.5H594.91V190.454C594.91 188.872 594.14 187.78 592.418 187.78C591.34 187.78 590.528 188.382 590.234 189.026H590.206C590.206 188.662 590.178 188.298 590.178 187.948H589.142C589.142 188.382 589.198 188.9 589.198 189.502V194.5ZM596.977 194.5H598.069V191.056L601.317 194.5H602.927L599.441 190.93L602.605 187.948H601.051L598.069 190.832V183.916H596.977V194.5Z" fill="#333333"/>
<path d="M549.668 261H550.802L554.68 251.088H553.434L550.284 259.236H550.256L547.204 251.088H545.874L549.668 261ZM555.791 261H556.967V256.548H558.955C560.355 256.548 562.203 255.974 562.203 253.804C562.203 251.732 560.551 251.088 558.731 251.088H555.791V261ZM556.967 252.18H558.955C560.131 252.18 560.943 252.712 560.943 253.818C560.943 254.924 560.131 255.456 558.955 255.456H556.967V252.18ZM564.089 261H565.265V256.548H567.253C568.653 256.548 570.501 255.974 570.501 253.804C570.501 251.732 568.849 251.088 567.029 251.088H564.089V261ZM565.265 252.18H567.253C568.429 252.18 569.241 252.712 569.241 253.818C569.241 254.924 568.429 255.456 567.253 255.456H565.265V252.18ZM576.285 261H579.239C581.073 261 583.103 260.412 583.103 258.228C583.103 256.926 582.137 255.904 580.863 255.792V255.764C581.927 255.442 582.599 254.672 582.599 253.524C582.599 251.704 580.947 251.088 579.309 251.088H576.285V261ZM577.461 252.18H579.211C580.275 252.18 581.339 252.46 581.339 253.678C581.339 255.05 580.191 255.288 579.085 255.288H577.461V252.18ZM577.461 256.38H579.477C580.667 256.38 581.843 256.8 581.843 258.186C581.843 259.446 580.597 259.908 579.449 259.908H577.461V256.38ZM585.509 256.002C586.027 255.526 586.755 255.288 587.455 255.288C588.477 255.288 589.079 255.778 589.079 256.73V256.926H588.659C587.049 256.926 584.529 257.052 584.529 259.222C584.529 260.496 585.635 261.168 586.965 261.168C587.959 261.168 588.687 260.692 589.121 260.02H589.149C589.149 260.3 589.149 260.706 589.219 261H590.269C590.213 260.664 590.171 260.244 590.171 259.866V257.052C590.171 255.204 589.359 254.28 587.427 254.28C586.475 254.28 585.495 254.602 584.823 255.288L585.509 256.002ZM589.079 257.85V258.27C589.051 259.334 588.407 260.244 587.147 260.244C586.321 260.244 585.705 259.936 585.705 259.11C585.705 258.228 586.601 257.85 587.987 257.85H589.079ZM595.751 254.448H593.819V252.586H592.727V254.448H591.299V255.372H592.727V258.97C592.727 260.328 592.979 261.168 594.533 261.168C594.939 261.168 595.429 261.098 595.807 260.93L595.765 259.936C595.471 260.09 595.121 260.16 594.799 260.16C593.833 260.16 593.819 259.488 593.819 258.648V255.372H595.751V254.448ZM600.673 254.448H598.741V252.586H597.649V254.448H596.221V255.372H597.649V258.97C597.649 260.328 597.901 261.168 599.455 261.168C599.861 261.168 600.351 261.098 600.729 260.93L600.687 259.936C600.393 260.09 600.043 260.16 599.721 260.16C598.755 260.16 598.741 259.488 598.741 258.648V255.372H600.673V254.448ZM607.037 259.166C606.519 259.824 605.889 260.16 604.951 260.16C603.761 260.16 602.893 259.194 602.809 258.06H608.101V257.71C608.101 255.54 606.841 254.28 604.993 254.28C603.061 254.28 601.633 255.694 601.633 257.724C601.633 259.628 602.893 261.168 604.951 261.168C606.169 261.168 607.093 260.804 607.863 259.81L607.037 259.166ZM602.809 257.136C602.949 256.03 603.747 255.288 604.951 255.288C606.155 255.288 606.883 256.03 606.925 257.136H602.809ZM609.79 261H610.882V257.808C610.882 256.31 611.47 255.372 612.8 255.372C612.996 255.372 613.206 255.4 613.388 255.456L613.458 254.35C613.304 254.294 613.15 254.28 613.01 254.28C611.932 254.28 611.12 254.882 610.826 255.526H610.798C610.798 255.162 610.77 254.798 610.77 254.448H609.734C609.734 254.882 609.79 255.4 609.79 256.002V261ZM618.804 261H624.516V259.908H619.98V251.088H618.804V261ZM631.054 261H632.146V250.416H631.054V255.4H631.026C630.424 254.7 629.626 254.28 628.674 254.28C626.616 254.28 625.23 255.736 625.23 257.724C625.23 259.684 626.672 261.168 628.506 261.168C629.682 261.168 630.62 260.58 631.026 259.838H631.054V261ZM631.054 257.724C631.054 259.096 630.144 260.16 628.73 260.16C627.316 260.16 626.406 259.096 626.406 257.724C626.406 256.352 627.316 255.288 628.73 255.288C630.144 255.288 631.054 256.352 631.054 257.724Z" fill="#333333"/>
<rect x="648" y="141" width="100" height="133" rx="4" fill="#E6E6E6"/>
<rect width="100" height="100" transform="translate(648 141)" fill="#A096A0"/>
<path d="M692.16 188.956H688.702V190.048H690.984V193.086C690.256 193.45 689.318 193.66 688.52 193.66C686.084 193.66 684.418 191.91 684.418 189.544C684.418 187.136 686.14 185.428 688.408 185.428C689.416 185.428 690.438 185.834 691.11 186.562L691.992 185.638C691.054 184.686 689.794 184.336 688.492 184.336C685.524 184.336 683.158 186.422 683.158 189.544C683.158 192.652 685.37 194.752 688.45 194.752C689.738 194.752 691.026 194.458 692.16 193.828V188.956ZM694.432 194.5H695.524V191.308C695.524 189.81 696.112 188.872 697.442 188.872C697.638 188.872 697.848 188.9 698.03 188.956L698.1 187.85C697.946 187.794 697.792 187.78 697.652 187.78C696.574 187.78 695.762 188.382 695.468 189.026H695.44C695.44 188.662 695.412 188.298 695.412 187.948H694.376C694.376 188.382 694.432 188.9 694.432 189.502V194.5ZM704.134 192.666C703.616 193.324 702.986 193.66 702.048 193.66C700.858 193.66 699.99 192.694 699.906 191.56H705.198V191.21C705.198 189.04 703.938 187.78 702.09 187.78C700.158 187.78 698.73 189.194 698.73 191.224C698.73 193.128 699.99 194.668 702.048 194.668C703.266 194.668 704.19 194.304 704.96 193.31L704.134 192.666ZM699.906 190.636C700.046 189.53 700.844 188.788 702.048 188.788C703.252 188.788 703.98 189.53 704.022 190.636H699.906ZM712.46 187.948H711.27L709.324 193.086H709.296L707.266 187.948H705.992L708.708 194.542L708.26 195.774C708.022 196.418 707.756 196.852 707.042 196.852C706.734 196.852 706.496 196.824 706.272 196.74L706.132 197.692C706.426 197.832 706.804 197.86 707.112 197.86C708.428 197.86 708.862 197.104 709.296 195.998L712.46 187.948Z" fill="white"/>
<path d="M683.232 261H684.408V252.684H684.436L687.992 261H688.706L692.262 252.684H692.29V261H693.466V251.088H691.758L688.37 258.858H688.342L684.982 251.088H683.232V261ZM696.339 256.002C696.857 255.526 697.585 255.288 698.285 255.288C699.307 255.288 699.909 255.778 699.909 256.73V256.926H699.489C697.879 256.926 695.359 257.052 695.359 259.222C695.359 260.496 696.465 261.168 697.795 261.168C698.789 261.168 699.517 260.692 699.951 260.02H699.979C699.979 260.3 699.979 260.706 700.049 261H701.099C701.043 260.664 701.001 260.244 701.001 259.866V257.052C701.001 255.204 700.189 254.28 698.257 254.28C697.305 254.28 696.325 254.602 695.653 255.288L696.339 256.002ZM699.909 257.85V258.27C699.881 259.334 699.237 260.244 697.977 260.244C697.151 260.244 696.535 259.936 696.535 259.11C696.535 258.228 697.431 257.85 698.817 257.85H699.909ZM703.095 261H704.187V254.448H703.095V261ZM702.843 251.886C702.843 252.348 703.179 252.684 703.641 252.684C704.103 252.684 704.439 252.348 704.439 251.886C704.439 251.452 704.089 251.088 703.641 251.088C703.193 251.088 702.843 251.452 702.843 251.886ZM706.36 261H707.452V257.808C707.452 256.31 708.068 255.288 709.482 255.288C710.504 255.288 710.98 255.974 710.98 257.066V261H712.072V256.954C712.072 255.372 711.302 254.28 709.58 254.28C708.502 254.28 707.69 254.882 707.396 255.526H707.368C707.368 255.162 707.34 254.798 707.34 254.448H706.304C706.304 254.882 706.36 255.4 706.36 256.002V261Z" fill="#333333"/>
<rect x="756" y="141" width="100" height="133" rx="4" fill="#E6E6E6"/>
<rect width="100" height="100" transform="translate(756 141)" fill="#D4DADD"/>
<path d="M784.338 194.752C787.348 194.752 789.518 192.54 789.518 189.544C789.518 186.548 787.348 184.336 784.338 184.336C781.328 184.336 779.158 186.548 779.158 189.544C779.158 192.54 781.328 194.752 784.338 194.752ZM784.338 193.66C782.014 193.66 780.418 191.826 780.418 189.544C780.418 187.262 782.014 185.428 784.338 185.428C786.662 185.428 788.258 187.262 788.258 189.544C788.258 191.826 786.662 193.66 784.338 193.66ZM791.772 194.5H792.864V188.872H794.46V187.948H792.864V186.716C792.864 185.582 792.906 184.756 794.04 184.756C794.292 184.756 794.544 184.812 794.782 184.896L794.936 183.916C794.726 183.804 794.376 183.748 794.096 183.748C792.332 183.748 791.772 184.882 791.772 186.478V187.948H790.344V188.872H791.772V194.5ZM795.942 194.5H797.034V188.872H798.63V187.948H797.034V186.716C797.034 185.582 797.076 184.756 798.21 184.756C798.462 184.756 798.714 184.812 798.952 184.896L799.106 183.916C798.896 183.804 798.546 183.748 798.266 183.748C796.502 183.748 795.942 184.882 795.942 186.478V187.948H794.514V188.872H795.942V194.5ZM808.94 187.948H807.764L806.28 192.988H806.252L804.53 187.948H803.382L801.688 192.988H801.66L800.162 187.948H798.958L801.086 194.5H802.206L803.858 189.46H803.886L805.748 194.5H806.826L808.94 187.948ZM810.175 194.5H811.267V191.308C811.267 189.81 811.883 188.788 813.297 188.788C814.319 188.788 814.795 189.474 814.795 190.566V194.5H815.887V190.454C815.887 188.872 815.117 187.78 813.395 187.78C812.373 187.78 811.589 188.34 811.295 188.858H811.267V183.916H810.175V194.5ZM818.052 194.5H819.144V187.948H818.052V194.5ZM817.8 185.386C817.8 185.848 818.136 186.184 818.598 186.184C819.06 186.184 819.396 185.848 819.396 185.386C819.396 184.952 819.046 184.588 818.598 184.588C818.15 184.588 817.8 184.952 817.8 185.386ZM824.901 187.948H822.969V186.086H821.877V187.948H820.449V188.872H821.877V192.47C821.877 193.828 822.129 194.668 823.683 194.668C824.089 194.668 824.579 194.598 824.957 194.43L824.915 193.436C824.621 193.59 824.271 193.66 823.949 193.66C822.983 193.66 822.969 192.988 822.969 192.148V188.872H824.901V187.948ZM831.265 192.666C830.747 193.324 830.117 193.66 829.179 193.66C827.989 193.66 827.121 192.694 827.037 191.56H832.329V191.21C832.329 189.04 831.069 187.78 829.221 187.78C827.289 187.78 825.861 189.194 825.861 191.224C825.861 193.128 827.121 194.668 829.179 194.668C830.397 194.668 831.321 194.304 832.091 193.31L831.265 192.666ZM827.037 190.636C827.177 189.53 827.975 188.788 829.179 188.788C830.383 188.788 831.111 189.53 831.153 190.636H827.037Z" fill="#333333"/>
<path d="M791.232 261H796.944V259.908H792.408V251.088H791.232V261ZM797.658 257.724C797.658 259.768 799.142 261.168 801.158 261.168C803.174 261.168 804.658 259.768 804.658 257.724C804.658 255.68 803.174 254.28 801.158 254.28C799.142 254.28 797.658 255.68 797.658 257.724ZM798.834 257.724C798.834 256.352 799.744 255.288 801.158 255.288C802.572 255.288 803.482 256.352 803.482 257.724C803.482 259.096 802.572 260.16 801.158 260.16C799.744 260.16 798.834 259.096 798.834 257.724ZM806.951 256.002C807.469 255.526 808.197 255.288 808.897 255.288C809.919 255.288 810.521 255.778 810.521 256.73V256.926H810.101C808.491 256.926 805.971 257.052 805.971 259.222C805.971 260.496 807.077 261.168 808.407 261.168C809.401 261.168 810.129 260.692 810.563 260.02H810.591C810.591 260.3 810.591 260.706 810.661 261H811.711C811.655 260.664 811.613 260.244 811.613 259.866V257.052C811.613 255.204 810.801 254.28 808.869 254.28C807.917 254.28 806.937 254.602 806.265 255.288L806.951 256.002ZM810.521 257.85V258.27C810.493 259.334 809.849 260.244 808.589 260.244C807.763 260.244 807.147 259.936 807.147 259.11C807.147 258.228 808.043 257.85 809.428 257.85H810.521ZM819.054 261H820.146V250.416H819.054V255.4H819.026C818.424 254.7 817.626 254.28 816.674 254.28C814.616 254.28 813.23 255.736 813.23 257.724C813.23 259.684 814.672 261.168 816.506 261.168C817.682 261.168 818.62 260.58 819.026 259.838H819.054V261ZM819.054 257.724C819.054 259.096 818.144 260.16 816.73 260.16C815.316 260.16 814.406 259.096 814.406 257.724C814.406 256.352 815.316 255.288 816.73 255.288C818.144 255.288 819.054 256.352 819.054 257.724Z" fill="#333333"/>
<g clip-path="url(#clip1_357_35667)">
<rect x="108" width="100" height="133" rx="4" fill="#E6E6E6"/>
<rect width="100" height="100" transform="translate(108)" fill="#97785C"/>
<path d="M139.232 53.5H142.186C144.02 53.5 146.05 52.912 146.05 50.728C146.05 49.426 145.084 48.404 143.81 48.292V48.264C144.874 47.942 145.546 47.172 145.546 46.024C145.546 44.204 143.894 43.588 142.256 43.588H139.232V53.5ZM140.408 44.68H142.158C143.222 44.68 144.286 44.96 144.286 46.178C144.286 47.55 143.138 47.788 142.032 47.788H140.408V44.68ZM140.408 48.88H142.424C143.614 48.88 144.79 49.3 144.79 50.686C144.79 51.946 143.544 52.408 142.396 52.408H140.408V48.88ZM147.854 53.5H148.946V50.308C148.946 48.81 149.534 47.872 150.864 47.872C151.06 47.872 151.27 47.9 151.452 47.956L151.522 46.85C151.368 46.794 151.214 46.78 151.074 46.78C149.996 46.78 149.184 47.382 148.89 48.026H148.862C148.862 47.662 148.834 47.298 148.834 46.948H147.798C147.798 47.382 147.854 47.9 147.854 48.502V53.5ZM152.152 50.224C152.152 52.268 153.636 53.668 155.652 53.668C157.668 53.668 159.152 52.268 159.152 50.224C159.152 48.18 157.668 46.78 155.652 46.78C153.636 46.78 152.152 48.18 152.152 50.224ZM153.328 50.224C153.328 48.852 154.238 47.788 155.652 47.788C157.066 47.788 157.976 48.852 157.976 50.224C157.976 51.596 157.066 52.66 155.652 52.66C154.238 52.66 153.328 51.596 153.328 50.224ZM169.985 46.948H168.809L167.325 51.988H167.297L165.575 46.948H164.427L162.733 51.988H162.705L161.207 46.948H160.003L162.131 53.5H163.251L164.903 48.46H164.931L166.793 53.5H167.871L169.985 46.948ZM171.22 53.5H172.312V50.308C172.312 48.81 172.928 47.788 174.342 47.788C175.364 47.788 175.84 48.474 175.84 49.566V53.5H176.932V49.454C176.932 47.872 176.162 46.78 174.44 46.78C173.362 46.78 172.55 47.382 172.256 48.026H172.228C172.228 47.662 172.2 47.298 172.2 46.948H171.164C171.164 47.382 171.22 47.9 171.22 48.502V53.5Z" fill="white"/>
<path d="M152.698 111.39C151.858 110.298 150.542 109.836 149.198 109.836C146.258 109.836 144.158 112.132 144.158 115.044C144.158 118.054 146.356 120.252 149.198 120.252C150.78 120.252 152.068 119.706 152.95 118.516L152.068 117.774C151.368 118.67 150.402 119.16 149.198 119.16C146.972 119.16 145.418 117.34 145.418 115.044C145.418 112.874 146.986 110.928 149.198 110.928C150.15 110.928 151.088 111.334 151.676 112.132L152.698 111.39ZM154.015 116.724C154.015 118.768 155.499 120.168 157.515 120.168C159.531 120.168 161.015 118.768 161.015 116.724C161.015 114.68 159.531 113.28 157.515 113.28C155.499 113.28 154.015 114.68 154.015 116.724ZM155.191 116.724C155.191 115.352 156.101 114.288 157.515 114.288C158.929 114.288 159.839 115.352 159.839 116.724C159.839 118.096 158.929 119.16 157.515 119.16C156.101 119.16 155.191 118.096 155.191 116.724ZM163.308 115.002C163.826 114.526 164.554 114.288 165.254 114.288C166.276 114.288 166.878 114.778 166.878 115.73V115.926H166.458C164.848 115.926 162.328 116.052 162.328 118.222C162.328 119.496 163.434 120.168 164.764 120.168C165.758 120.168 166.486 119.692 166.92 119.02H166.948C166.948 119.3 166.948 119.706 167.018 120H168.068C168.012 119.664 167.97 119.244 167.97 118.866V116.052C167.97 114.204 167.158 113.28 165.226 113.28C164.274 113.28 163.294 113.602 162.622 114.288L163.308 115.002ZM166.878 116.85V117.27C166.85 118.334 166.206 119.244 164.946 119.244C164.12 119.244 163.504 118.936 163.504 118.11C163.504 117.228 164.4 116.85 165.786 116.85H166.878ZM170.064 120H171.156V109.416H170.064V120Z" fill="#333333"/>
</g>
<g clip-path="url(#clip2_357_35667)">
<rect x="216" width="100" height="133" rx="4" fill="#E6E6E6"/>
<rect width="100" height="100" transform="translate(216)" fill="#FE5F55"/>
<path d="M247.838 53.752C250.848 53.752 253.018 51.54 253.018 48.544C253.018 45.548 250.848 43.336 247.838 43.336C244.828 43.336 242.658 45.548 242.658 48.544C242.658 51.54 244.828 53.752 247.838 53.752ZM247.838 52.66C245.514 52.66 243.918 50.826 243.918 48.544C243.918 46.262 245.514 44.428 247.838 44.428C250.162 44.428 251.758 46.262 251.758 48.544C251.758 50.826 250.162 52.66 247.838 52.66ZM254.712 53.5H255.804V50.308C255.804 48.81 256.392 47.872 257.722 47.872C257.918 47.872 258.128 47.9 258.31 47.956L258.38 46.85C258.226 46.794 258.072 46.78 257.932 46.78C256.854 46.78 256.042 47.382 255.748 48.026H255.72C255.72 47.662 255.692 47.298 255.692 46.948H254.656C254.656 47.382 254.712 47.9 254.712 48.502V53.5ZM260.236 48.502C260.754 48.026 261.482 47.788 262.182 47.788C263.204 47.788 263.806 48.278 263.806 49.23V49.426H263.386C261.776 49.426 259.256 49.552 259.256 51.722C259.256 52.996 260.362 53.668 261.692 53.668C262.686 53.668 263.414 53.192 263.848 52.52H263.876C263.876 52.8 263.876 53.206 263.946 53.5H264.996C264.94 53.164 264.898 52.744 264.898 52.366V49.552C264.898 47.704 264.086 46.78 262.154 46.78C261.202 46.78 260.222 47.102 259.55 47.788L260.236 48.502ZM263.806 50.35V50.77C263.778 51.834 263.134 52.744 261.874 52.744C261.048 52.744 260.432 52.436 260.432 51.61C260.432 50.728 261.328 50.35 262.714 50.35H263.806ZM266.893 53.5H267.985V50.308C267.985 48.81 268.601 47.788 270.015 47.788C271.037 47.788 271.513 48.474 271.513 49.566V53.5H272.605V49.454C272.605 47.872 271.835 46.78 270.113 46.78C269.035 46.78 268.223 47.382 267.929 48.026H267.901C267.901 47.662 267.873 47.298 267.873 46.948H266.837C266.837 47.382 266.893 47.9 266.893 48.502V53.5ZM281.211 46.948H280.119V48.068H280.091C279.657 47.2 278.663 46.78 277.781 46.78C275.695 46.78 274.295 48.082 274.295 50.224C274.295 52.156 275.723 53.584 277.781 53.584C278.649 53.584 279.573 53.206 280.091 52.366H280.119V53.206C280.119 54.592 279.601 55.852 277.641 55.852C276.633 55.852 275.891 55.46 275.205 54.718L274.421 55.614C275.345 56.524 276.367 56.86 277.641 56.86C279.937 56.86 281.211 55.572 281.211 53.206V46.948ZM275.471 50.224C275.471 48.852 276.409 47.788 277.781 47.788C279.167 47.788 280.119 48.782 280.119 50.196C280.119 51.456 279.279 52.576 277.781 52.576C276.507 52.576 275.471 51.554 275.471 50.224ZM288.257 51.666C287.739 52.324 287.109 52.66 286.171 52.66C284.981 52.66 284.113 51.694 284.029 50.56H289.321V50.21C289.321 48.04 288.061 46.78 286.213 46.78C284.281 46.78 282.853 48.194 282.853 50.224C282.853 52.128 284.113 53.668 286.171 53.668C287.389 53.668 288.313 53.304 289.083 52.31L288.257 51.666ZM284.029 49.636C284.169 48.53 284.967 47.788 286.171 47.788C287.375 47.788 288.103 48.53 288.145 49.636H284.029Z" fill="white"/>
<path d="M239.55 120H243.358C245.304 120 248.216 118.698 248.216 115.044C248.216 111.39 245.304 110.088 243.358 110.088H239.55V120ZM240.726 111.18H242.966C245.234 111.18 246.956 112.328 246.956 115.044C246.956 117.76 245.234 118.908 242.966 118.908H240.726V111.18ZM250.011 120H251.103V113.448H250.011V120ZM249.759 110.886C249.759 111.348 250.095 111.684 250.557 111.684C251.019 111.684 251.355 111.348 251.355 110.886C251.355 110.452 251.005 110.088 250.557 110.088C250.109 110.088 249.759 110.452 249.759 110.886ZM252.548 118.95C253.192 119.874 253.99 120.168 255.096 120.168C256.398 120.168 257.714 119.594 257.714 118.11C257.714 116.794 256.734 116.374 255.572 116.15C254.704 115.982 253.92 115.744 253.92 115.198C253.92 114.582 254.606 114.288 255.208 114.288C255.852 114.288 256.314 114.61 256.594 115.072L257.504 114.47C257.056 113.63 256.202 113.28 255.278 113.28C254.06 113.28 252.828 113.938 252.828 115.212C252.828 116.57 253.892 116.836 255.138 117.116C255.838 117.27 256.538 117.452 256.538 118.152C256.538 118.866 255.782 119.16 255.096 119.16C254.326 119.16 253.85 118.81 253.416 118.278L252.548 118.95ZM262.821 113.448H260.889V111.586H259.797V113.448H258.369V114.372H259.797V117.97C259.797 119.328 260.049 120.168 261.603 120.168C262.009 120.168 262.499 120.098 262.877 119.93L262.835 118.936C262.541 119.09 262.191 119.16 261.869 119.16C260.903 119.16 260.889 118.488 260.889 117.648V114.372H262.821V113.448ZM264.257 120H265.349V113.448H264.257V120ZM264.005 110.886C264.005 111.348 264.341 111.684 264.803 111.684C265.265 111.684 265.601 111.348 265.601 110.886C265.601 110.452 265.251 110.088 264.803 110.088C264.355 110.088 264.005 110.452 264.005 110.886ZM267.62 120H268.712V109.416H267.62V120ZM270.984 120H272.076V109.416H270.984V120ZM274.851 115.002C275.369 114.526 276.097 114.288 276.797 114.288C277.819 114.288 278.421 114.778 278.421 115.73V115.926H278.001C276.391 115.926 273.871 116.052 273.871 118.222C273.871 119.496 274.977 120.168 276.307 120.168C277.301 120.168 278.029 119.692 278.463 119.02H278.491C278.491 119.3 278.491 119.706 278.561 120H279.611C279.555 119.664 279.513 119.244 279.513 118.866V116.052C279.513 114.204 278.701 113.28 276.769 113.28C275.817 113.28 274.837 113.602 274.165 114.288L274.851 115.002ZM278.421 116.85V117.27C278.393 118.334 277.749 119.244 276.489 119.244C275.663 119.244 275.047 118.936 275.047 118.11C275.047 117.228 275.943 116.85 277.329 116.85H278.421ZM285.093 113.448H283.161V111.586H282.069V113.448H280.641V114.372H282.069V117.97C282.069 119.328 282.321 120.168 283.875 120.168C284.281 120.168 284.771 120.098 285.149 119.93L285.107 118.936C284.813 119.09 284.463 119.16 284.141 119.16C283.175 119.16 283.161 118.488 283.161 117.648V114.372H285.093V113.448ZM291.457 118.166C290.939 118.824 290.309 119.16 289.371 119.16C288.181 119.16 287.313 118.194 287.229 117.06H292.521V116.71C292.521 114.54 291.261 113.28 289.413 113.28C287.481 113.28 286.053 114.694 286.053 116.724C286.053 118.628 287.313 120.168 289.371 120.168C290.589 120.168 291.513 119.804 292.283 118.81L291.457 118.166ZM287.229 116.136C287.369 115.03 288.167 114.288 289.371 114.288C290.575 114.288 291.303 115.03 291.345 116.136H287.229Z" fill="#333333"/>
</g>
<g clip-path="url(#clip3_357_35667)">
<rect x="324" width="100" height="133" rx="4" fill="#E6E6E6"/>
<rect width="100" height="100" transform="translate(324)" fill="#A82140"/>
<path d="M362.732 53.5H363.908V49.048H365.42L368.108 53.5H369.55L366.736 48.936C368.276 48.698 369.214 47.76 369.214 46.318C369.214 43.868 367.184 43.588 365.266 43.588H362.732V53.5ZM363.908 44.68H365.56C366.708 44.68 367.954 44.89 367.954 46.318C367.954 47.956 366.26 47.956 364.958 47.956H363.908V44.68ZM376.121 51.666C375.603 52.324 374.973 52.66 374.035 52.66C372.845 52.66 371.977 51.694 371.893 50.56H377.185V50.21C377.185 48.04 375.925 46.78 374.077 46.78C372.145 46.78 370.717 48.194 370.717 50.224C370.717 52.128 371.977 53.668 374.035 53.668C375.253 53.668 376.177 53.304 376.947 52.31L376.121 51.666ZM371.893 49.636C372.033 48.53 372.831 47.788 374.035 47.788C375.239 47.788 375.967 48.53 376.009 49.636H371.893ZM384.32 53.5H385.412V42.916H384.32V47.9H384.292C383.69 47.2 382.892 46.78 381.94 46.78C379.882 46.78 378.496 48.236 378.496 50.224C378.496 52.184 379.938 53.668 381.772 53.668C382.948 53.668 383.886 53.08 384.292 52.338H384.32V53.5ZM384.32 50.224C384.32 51.596 383.41 52.66 381.996 52.66C380.582 52.66 379.672 51.596 379.672 50.224C379.672 48.852 380.582 47.788 381.996 47.788C383.41 47.788 384.32 48.852 384.32 50.224Z" fill="white"/>
<path d="M349.232 120H352.186C354.02 120 356.05 119.412 356.05 117.228C356.05 115.926 355.084 114.904 353.81 114.792V114.764C354.874 114.442 355.546 113.672 355.546 112.524C355.546 110.704 353.894 110.088 352.256 110.088H349.232V120ZM350.408 111.18H352.158C353.222 111.18 354.286 111.46 354.286 112.678C354.286 114.05 353.138 114.288 352.032 114.288H350.408V111.18ZM350.408 115.38H352.424C353.614 115.38 354.79 115.8 354.79 117.186C354.79 118.446 353.544 118.908 352.396 118.908H350.408V115.38ZM357.952 120H359.044V113.448H357.952V120ZM357.7 110.886C357.7 111.348 358.036 111.684 358.498 111.684C358.96 111.684 359.296 111.348 359.296 110.886C359.296 110.452 358.946 110.088 358.498 110.088C358.05 110.088 357.7 110.452 357.7 110.886ZM360.84 116.724C360.84 118.768 362.324 120.168 364.34 120.168C366.356 120.168 367.84 118.768 367.84 116.724C367.84 114.68 366.356 113.28 364.34 113.28C362.324 113.28 360.84 114.68 360.84 116.724ZM362.016 116.724C362.016 115.352 362.926 114.288 364.34 114.288C365.754 114.288 366.664 115.352 366.664 116.724C366.664 118.096 365.754 119.16 364.34 119.16C362.926 119.16 362.016 118.096 362.016 116.724ZM369.53 120H370.622V116.808C370.622 115.31 371.238 114.288 372.652 114.288C373.548 114.288 373.912 114.848 373.912 116.29V120H375.004V116.22C375.004 115.044 375.774 114.288 376.698 114.288C377.972 114.288 378.294 115.17 378.294 116.08V120H379.386V116.024C379.386 114.33 378.77 113.28 376.894 113.28C375.9 113.28 375.298 113.756 374.822 114.526C374.612 114.078 374.164 113.28 372.75 113.28C371.672 113.28 370.86 113.882 370.566 114.526H370.538C370.538 114.162 370.51 113.798 370.51 113.448H369.474C369.474 113.882 369.53 114.4 369.53 115.002V120ZM382.054 115.002C382.572 114.526 383.3 114.288 384 114.288C385.022 114.288 385.624 114.778 385.624 115.73V115.926H385.204C383.594 115.926 381.074 116.052 381.074 118.222C381.074 119.496 382.18 120.168 383.51 120.168C384.504 120.168 385.232 119.692 385.666 119.02H385.694C385.694 119.3 385.694 119.706 385.764 120H386.814C386.758 119.664 386.716 119.244 386.716 118.866V116.052C386.716 114.204 385.904 113.28 383.972 113.28C383.02 113.28 382.04 113.602 381.368 114.288L382.054 115.002ZM385.624 116.85V117.27C385.596 118.334 384.952 119.244 383.692 119.244C382.866 119.244 382.25 118.936 382.25 118.11C382.25 117.228 383.146 116.85 384.532 116.85H385.624ZM387.984 118.95C388.628 119.874 389.426 120.168 390.532 120.168C391.834 120.168 393.15 119.594 393.15 118.11C393.15 116.794 392.17 116.374 391.008 116.15C390.14 115.982 389.356 115.744 389.356 115.198C389.356 114.582 390.042 114.288 390.644 114.288C391.288 114.288 391.75 114.61 392.03 115.072L392.94 114.47C392.492 113.63 391.638 113.28 390.714 113.28C389.496 113.28 388.264 113.938 388.264 115.212C388.264 116.57 389.328 116.836 390.574 117.116C391.274 117.27 391.974 117.452 391.974 118.152C391.974 118.866 391.218 119.16 390.532 119.16C389.762 119.16 389.286 118.81 388.852 118.278L387.984 118.95ZM393.945 118.95C394.589 119.874 395.387 120.168 396.493 120.168C397.795 120.168 399.111 119.594 399.111 118.11C399.111 116.794 398.131 116.374 396.969 116.15C396.101 115.982 395.317 115.744 395.317 115.198C395.317 114.582 396.003 114.288 396.605 114.288C397.249 114.288 397.711 114.61 397.991 115.072L398.901 114.47C398.453 113.63 397.599 113.28 396.675 113.28C395.457 113.28 394.225 113.938 394.225 115.212C394.225 116.57 395.289 116.836 396.535 117.116C397.235 117.27 397.935 117.452 397.935 118.152C397.935 118.866 397.179 119.16 396.493 119.16C395.723 119.16 395.247 118.81 394.813 118.278L393.945 118.95Z" fill="#333333"/>
</g>
<g clip-path="url(#clip4_357_35667)">
<rect x="108" y="141" width="100" height="133" rx="4" fill="#E6E6E6"/>
<rect width="100" height="100" transform="translate(108 141)" fill="#FFD565"/>
<path d="M141.57 194.5H142.746V190.23L146.442 184.588H145.028L142.158 189.068L139.372 184.588H137.874L141.57 190.23V194.5ZM150.816 192.666C150.298 193.324 149.668 193.66 148.73 193.66C147.54 193.66 146.672 192.694 146.588 191.56H151.88V191.21C151.88 189.04 150.62 187.78 148.772 187.78C146.84 187.78 145.412 189.194 145.412 191.224C145.412 193.128 146.672 194.668 148.73 194.668C149.948 194.668 150.872 194.304 151.642 193.31L150.816 192.666ZM146.588 190.636C146.728 189.53 147.526 188.788 148.73 188.788C149.934 188.788 150.662 189.53 150.704 190.636H146.588ZM153.667 194.5H154.759V183.916H153.667V194.5ZM157.03 194.5H158.122V183.916H157.03V194.5ZM159.918 191.224C159.918 193.268 161.402 194.668 163.418 194.668C165.434 194.668 166.918 193.268 166.918 191.224C166.918 189.18 165.434 187.78 163.418 187.78C161.402 187.78 159.918 189.18 159.918 191.224ZM161.094 191.224C161.094 189.852 162.004 188.788 163.418 188.788C164.832 188.788 165.742 189.852 165.742 191.224C165.742 192.596 164.832 193.66 163.418 193.66C162.004 193.66 161.094 192.596 161.094 191.224ZM177.75 187.948H176.574L175.09 192.988H175.062L173.34 187.948H172.192L170.498 192.988H170.47L168.972 187.948H167.768L169.896 194.5H171.016L172.668 189.46H172.696L174.558 194.5H175.636L177.75 187.948Z" fill="#333333"/>
<path d="M148.902 251.998C148.174 251.144 147.236 250.836 146.13 250.836C144.394 250.836 142.756 251.788 142.756 253.692C142.756 255.344 143.82 255.96 145.22 256.422C146.984 257.01 147.81 257.22 147.81 258.438C147.81 259.572 146.662 260.16 145.654 260.16C144.8 260.16 143.96 259.782 143.54 259.054L142.532 259.88C143.204 260.874 144.436 261.252 145.584 261.252C147.376 261.252 149.07 260.328 149.07 258.354C149.07 256.408 147.642 255.904 146.102 255.414C144.52 254.91 144.016 254.504 144.016 253.594C144.016 252.418 145.094 251.928 146.13 251.928C146.844 251.928 147.544 252.208 147.936 252.838L148.902 251.998ZM150.437 257.724C150.437 259.768 151.921 261.168 153.937 261.168C155.953 261.168 157.437 259.768 157.437 257.724C157.437 255.68 155.953 254.28 153.937 254.28C151.921 254.28 150.437 255.68 150.437 257.724ZM151.613 257.724C151.613 256.352 152.523 255.288 153.937 255.288C155.351 255.288 156.261 256.352 156.261 257.724C156.261 259.096 155.351 260.16 153.937 260.16C152.523 260.16 151.613 259.096 151.613 257.724ZM159.226 261H160.318V250.416H159.226V261ZM163.093 256.002C163.611 255.526 164.339 255.288 165.039 255.288C166.061 255.288 166.663 255.778 166.663 256.73V256.926H166.243C164.633 256.926 162.113 257.052 162.113 259.222C162.113 260.496 163.219 261.168 164.549 261.168C165.543 261.168 166.271 260.692 166.705 260.02H166.733C166.733 260.3 166.733 260.706 166.803 261H167.853C167.797 260.664 167.755 260.244 167.755 259.866V257.052C167.755 255.204 166.943 254.28 165.011 254.28C164.059 254.28 163.079 254.602 162.407 255.288L163.093 256.002ZM166.663 257.85V258.27C166.635 259.334 165.991 260.244 164.731 260.244C163.905 260.244 163.289 259.936 163.289 259.11C163.289 258.228 164.185 257.85 165.571 257.85H166.663ZM169.751 261H170.843V257.808C170.843 256.31 171.431 255.372 172.761 255.372C172.957 255.372 173.167 255.4 173.349 255.456L173.419 254.35C173.265 254.294 173.111 254.28 172.971 254.28C171.893 254.28 171.081 254.882 170.787 255.526H170.759C170.759 255.162 170.731 254.798 170.731 254.448H169.695C169.695 254.882 169.751 255.4 169.751 256.002V261Z" fill="#333333"/>
</g>
<g clip-path="url(#clip5_357_35667)">
<rect x="756" width="100" height="133" rx="4" fill="#E6E6E6"/>
<rect width="100" height="100" transform="translate(756)" fill="#A1D978"/>
<path d="M796.16 47.956H792.702V49.048H794.984V52.086C794.256 52.45 793.318 52.66 792.52 52.66C790.084 52.66 788.418 50.91 788.418 48.544C788.418 46.136 790.14 44.428 792.408 44.428C793.416 44.428 794.438 44.834 795.11 45.562L795.992 44.638C795.054 43.686 793.794 43.336 792.492 43.336C789.524 43.336 787.158 45.422 787.158 48.544C787.158 51.652 789.37 53.752 792.45 53.752C793.738 53.752 795.026 53.458 796.16 52.828V47.956ZM798.432 53.5H799.524V50.308C799.524 48.81 800.112 47.872 801.442 47.872C801.638 47.872 801.848 47.9 802.03 47.956L802.1 46.85C801.946 46.794 801.792 46.78 801.652 46.78C800.574 46.78 799.762 47.382 799.468 48.026H799.44C799.44 47.662 799.412 47.298 799.412 46.948H798.376C798.376 47.382 798.432 47.9 798.432 48.502V53.5ZM808.134 51.666C807.616 52.324 806.986 52.66 806.048 52.66C804.858 52.66 803.99 51.694 803.906 50.56H809.198V50.21C809.198 48.04 807.938 46.78 806.09 46.78C804.158 46.78 802.73 48.194 802.73 50.224C802.73 52.128 803.99 53.668 806.048 53.668C807.266 53.668 808.19 53.304 808.96 52.31L808.134 51.666ZM803.906 49.636C804.046 48.53 804.844 47.788 806.048 47.788C807.252 47.788 807.98 48.53 808.022 49.636H803.906ZM815.914 51.666C815.396 52.324 814.766 52.66 813.828 52.66C812.638 52.66 811.77 51.694 811.686 50.56H816.978V50.21C816.978 48.04 815.718 46.78 813.87 46.78C811.938 46.78 810.51 48.194 810.51 50.224C810.51 52.128 811.77 53.668 813.828 53.668C815.046 53.668 815.97 53.304 816.74 52.31L815.914 51.666ZM811.686 49.636C811.826 48.53 812.624 47.788 813.828 47.788C815.032 47.788 815.76 48.53 815.802 49.636H811.686ZM818.667 53.5H819.759V50.308C819.759 48.81 820.375 47.788 821.789 47.788C822.811 47.788 823.287 48.474 823.287 49.566V53.5H824.379V49.454C824.379 47.872 823.609 46.78 821.887 46.78C820.809 46.78 819.997 47.382 819.703 48.026H819.675C819.675 47.662 819.647 47.298 819.647 46.948H818.611C818.611 47.382 818.667 47.9 818.667 48.502V53.5Z" fill="#333333"/>
<path d="M791.982 120H793.27L795.734 111.6H795.762L798.212 120H799.486L802.398 110.088H801.166L798.87 118.32H798.842L796.42 110.088H795.104L792.668 118.32H792.64L790.386 110.088H789.084L791.982 120ZM803.614 120H804.706V113.448H803.614V120ZM803.362 110.886C803.362 111.348 803.698 111.684 804.16 111.684C804.622 111.684 804.958 111.348 804.958 110.886C804.958 110.452 804.608 110.088 804.16 110.088C803.712 110.088 803.362 110.452 803.362 110.886ZM806.88 120H807.972V116.808C807.972 115.31 808.588 114.288 810.002 114.288C811.024 114.288 811.5 114.974 811.5 116.066V120H812.592V115.954C812.592 114.372 811.822 113.28 810.1 113.28C809.022 113.28 808.21 113.882 807.916 114.526H807.888C807.888 114.162 807.86 113.798 807.86 113.448H806.824C806.824 113.882 806.88 114.4 806.88 115.002V120ZM820.105 120H821.197V109.416H820.105V114.4H820.077C819.475 113.7 818.677 113.28 817.725 113.28C815.667 113.28 814.281 114.736 814.281 116.724C814.281 118.684 815.723 120.168 817.557 120.168C818.733 120.168 819.671 119.58 820.077 118.838H820.105V120ZM820.105 116.724C820.105 118.096 819.195 119.16 817.781 119.16C816.367 119.16 815.457 118.096 815.457 116.724C815.457 115.352 816.367 114.288 817.781 114.288C819.195 114.288 820.105 115.352 820.105 116.724Z" fill="#333333"/>
</g>
<g clip-path="url(#clip6_357_35667)">
<rect x="324" y="141" width="100" height="133" rx="4" fill="#E6E6E6"/>
<rect width="100" height="100" transform="translate(324 141)" fill="#ADE0EE"/>
<path d="M361.232 194.5H364.186C366.02 194.5 368.05 193.912 368.05 191.728C368.05 190.426 367.084 189.404 365.81 189.292V189.264C366.874 188.942 367.546 188.172 367.546 187.024C367.546 185.204 365.894 184.588 364.256 184.588H361.232V194.5ZM362.408 185.68H364.158C365.222 185.68 366.286 185.96 366.286 187.178C366.286 188.55 365.138 188.788 364.032 188.788H362.408V185.68ZM362.408 189.88H364.424C365.614 189.88 366.79 190.3 366.79 191.686C366.79 192.946 365.544 193.408 364.396 193.408H362.408V189.88ZM369.952 194.5H371.044V183.916H369.952V194.5ZM378.93 187.948H377.838V191.14C377.838 192.638 377.222 193.66 375.808 193.66C374.786 193.66 374.31 192.974 374.31 191.882V187.948H373.218V191.994C373.218 193.576 373.988 194.668 375.71 194.668C376.788 194.668 377.6 194.066 377.894 193.422H377.922C377.922 193.786 377.95 194.15 377.95 194.5H378.986C378.986 194.066 378.93 193.548 378.93 192.946V187.948ZM386.023 192.666C385.505 193.324 384.875 193.66 383.937 193.66C382.747 193.66 381.879 192.694 381.795 191.56H387.087V191.21C387.087 189.04 385.827 187.78 383.979 187.78C382.047 187.78 380.619 189.194 380.619 191.224C380.619 193.128 381.879 194.668 383.937 194.668C385.155 194.668 386.079 194.304 386.849 193.31L386.023 192.666ZM381.795 190.636C381.935 189.53 382.733 188.788 383.937 188.788C385.141 188.788 385.869 189.53 385.911 190.636H381.795Z" fill="#333333"/>
<path d="M355.732 261H356.908V256.38H362.2V261H363.376V251.088H362.2V255.288H356.908V251.088H355.732V261ZM371.212 254.448H370.022L368.076 259.586H368.048L366.018 254.448H364.744L367.46 261.042L367.012 262.274C366.774 262.918 366.508 263.352 365.794 263.352C365.486 263.352 365.248 263.324 365.024 263.24L364.884 264.192C365.178 264.332 365.556 264.36 365.864 264.36C367.18 264.36 367.614 263.604 368.048 262.498L371.212 254.448ZM377.839 261H378.931V250.416H377.839V255.4H377.811C377.209 254.7 376.411 254.28 375.459 254.28C373.401 254.28 372.015 255.736 372.015 257.724C372.015 259.684 373.457 261.168 375.291 261.168C376.467 261.168 377.405 260.58 377.811 259.838H377.839V261ZM377.839 257.724C377.839 259.096 376.929 260.16 375.515 260.16C374.101 260.16 373.191 259.096 373.191 257.724C373.191 256.352 374.101 255.288 375.515 255.288C376.929 255.288 377.839 256.352 377.839 257.724ZM380.952 261H382.044V257.808C382.044 256.31 382.632 255.372 383.962 255.372C384.158 255.372 384.368 255.4 384.55 255.456L384.62 254.35C384.466 254.294 384.312 254.28 384.172 254.28C383.094 254.28 382.282 254.882 381.988 255.526H381.96C381.96 255.162 381.932 254.798 381.932 254.448H380.896C380.896 254.882 380.952 255.4 380.952 256.002V261ZM385.25 257.724C385.25 259.768 386.734 261.168 388.75 261.168C390.766 261.168 392.25 259.768 392.25 257.724C392.25 255.68 390.766 254.28 388.75 254.28C386.734 254.28 385.25 255.68 385.25 257.724ZM386.426 257.724C386.426 256.352 387.336 255.288 388.75 255.288C390.164 255.288 391.074 256.352 391.074 257.724C391.074 259.096 390.164 260.16 388.75 260.16C387.336 260.16 386.426 259.096 386.426 257.724Z" fill="#333333"/>
</g>
<g clip-path="url(#clip7_357_35667)">
<rect x="216" y="141" width="100" height="133" rx="4" fill="#E6E6E6"/>
<rect width="100" height="100" transform="translate(216 141)" fill="#E1EE8E"/>
<path d="M251.732 194.5H257.444V193.408H252.908V184.588H251.732V194.5ZM258.634 194.5H259.726V187.948H258.634V194.5ZM258.382 185.386C258.382 185.848 258.718 186.184 259.18 186.184C259.642 186.184 259.978 185.848 259.978 185.386C259.978 184.952 259.628 184.588 259.18 184.588C258.732 184.588 258.382 184.952 258.382 185.386ZM261.899 194.5H262.991V191.308C262.991 189.81 263.607 188.788 265.021 188.788C265.917 188.788 266.281 189.348 266.281 190.79V194.5H267.373V190.72C267.373 189.544 268.143 188.788 269.067 188.788C270.341 188.788 270.663 189.67 270.663 190.58V194.5H271.755V190.524C271.755 188.83 271.139 187.78 269.263 187.78C268.269 187.78 267.667 188.256 267.191 189.026C266.981 188.578 266.533 187.78 265.119 187.78C264.041 187.78 263.229 188.382 262.935 189.026H262.907C262.907 188.662 262.879 188.298 262.879 187.948H261.843C261.843 188.382 261.899 188.9 261.899 189.502V194.5ZM278.847 192.666C278.329 193.324 277.699 193.66 276.761 193.66C275.571 193.66 274.703 192.694 274.619 191.56H279.911V191.21C279.911 189.04 278.651 187.78 276.803 187.78C274.871 187.78 273.443 189.194 273.443 191.224C273.443 193.128 274.703 194.668 276.761 194.668C277.979 194.668 278.903 194.304 279.673 193.31L278.847 192.666ZM274.619 190.636C274.759 189.53 275.557 188.788 276.761 188.788C277.965 188.788 278.693 189.53 278.735 190.636H274.619Z" fill="#333333"/>
<path d="M229.232 261H230.408V256.548H231.92L234.608 261H236.05L233.236 256.436C234.776 256.198 235.714 255.26 235.714 253.818C235.714 251.368 233.684 251.088 231.766 251.088H229.232V261ZM230.408 252.18H232.06C233.208 252.18 234.454 252.39 234.454 253.818C234.454 255.456 232.76 255.456 231.458 255.456H230.408V252.18ZM242.621 259.166C242.103 259.824 241.473 260.16 240.535 260.16C239.345 260.16 238.477 259.194 238.393 258.06H243.685V257.71C243.685 255.54 242.425 254.28 240.577 254.28C238.645 254.28 237.217 255.694 237.217 257.724C237.217 259.628 238.477 261.168 240.535 261.168C241.753 261.168 242.677 260.804 243.447 259.81L242.621 259.166ZM238.393 257.136C238.533 256.03 239.331 255.288 240.535 255.288C241.739 255.288 242.467 256.03 242.509 257.136H238.393ZM245.374 261H246.466V257.808C246.466 256.31 247.082 255.288 248.496 255.288C249.518 255.288 249.994 255.974 249.994 257.066V261H251.086V256.954C251.086 255.372 250.316 254.28 248.594 254.28C247.516 254.28 246.704 254.882 246.41 255.526H246.382C246.382 255.162 246.354 254.798 246.354 254.448H245.318C245.318 254.882 245.374 255.4 245.374 256.002V261ZM258.179 259.166C257.661 259.824 257.031 260.16 256.093 260.16C254.903 260.16 254.035 259.194 253.951 258.06H259.243V257.71C259.243 255.54 257.983 254.28 256.135 254.28C254.203 254.28 252.775 255.694 252.775 257.724C252.775 259.628 254.035 261.168 256.093 261.168C257.311 261.168 258.235 260.804 259.005 259.81L258.179 259.166ZM253.951 257.136C254.091 256.03 254.889 255.288 256.093 255.288C257.297 255.288 258.025 256.03 258.067 257.136H253.951ZM270.074 254.448H268.898L267.414 259.488H267.386L265.664 254.448H264.516L262.822 259.488H262.794L261.296 254.448H260.092L262.22 261H263.34L264.992 255.96H265.02L266.882 261H267.96L270.074 254.448ZM271.911 256.002C272.429 255.526 273.157 255.288 273.857 255.288C274.879 255.288 275.481 255.778 275.481 256.73V256.926H275.061C273.451 256.926 270.931 257.052 270.931 259.222C270.931 260.496 272.037 261.168 273.367 261.168C274.361 261.168 275.089 260.692 275.523 260.02H275.551C275.551 260.3 275.551 260.706 275.621 261H276.671C276.615 260.664 276.573 260.244 276.573 259.866V257.052C276.573 255.204 275.761 254.28 273.829 254.28C272.877 254.28 271.897 254.602 271.225 255.288L271.911 256.002ZM275.481 257.85V258.27C275.453 259.334 274.809 260.244 273.549 260.244C272.723 260.244 272.107 259.936 272.107 259.11C272.107 258.228 273.003 257.85 274.389 257.85H275.481ZM278.513 261H279.605V259.838H279.633C280.039 260.58 280.977 261.168 282.153 261.168C283.987 261.168 285.429 259.684 285.429 257.724C285.429 255.736 284.043 254.28 281.985 254.28C281.033 254.28 280.235 254.7 279.633 255.4H279.605V250.416H278.513V261ZM279.605 257.724C279.605 256.352 280.515 255.288 281.929 255.288C283.343 255.288 284.253 256.352 284.253 257.724C284.253 259.096 283.343 260.16 281.929 260.16C280.515 260.16 279.605 259.096 279.605 257.724ZM287.226 261H288.318V250.416H287.226V261ZM295.517 259.166C294.999 259.824 294.369 260.16 293.431 260.16C292.241 260.16 291.373 259.194 291.289 258.06H296.581V257.71C296.581 255.54 295.321 254.28 293.473 254.28C291.541 254.28 290.113 255.694 290.113 257.724C290.113 259.628 291.373 261.168 293.431 261.168C294.649 261.168 295.573 260.804 296.343 259.81L295.517 259.166ZM291.289 257.136C291.429 256.03 292.227 255.288 293.431 255.288C294.635 255.288 295.363 256.03 295.405 257.136H291.289ZM297.542 259.95C298.186 260.874 298.984 261.168 300.09 261.168C301.392 261.168 302.708 260.594 302.708 259.11C302.708 257.794 301.728 257.374 300.566 257.15C299.698 256.982 298.914 256.744 298.914 256.198C298.914 255.582 299.6 255.288 300.202 255.288C300.846 255.288 301.308 255.61 301.588 256.072L302.498 255.47C302.05 254.63 301.196 254.28 300.272 254.28C299.054 254.28 297.822 254.938 297.822 256.212C297.822 257.57 298.886 257.836 300.132 258.116C300.832 258.27 301.532 258.452 301.532 259.152C301.532 259.866 300.776 260.16 300.09 260.16C299.32 260.16 298.844 259.81 298.41 259.278L297.542 259.95Z" fill="#333333"/>
</g>
<defs>
<clipPath id="clip0_357_35667">
<rect width="100" height="133" rx="4" fill="white"/>
</clipPath>
<clipPath id="clip1_357_35667">
<rect x="108" width="100" height="133" rx="4" fill="white"/>
</clipPath>
<clipPath id="clip2_357_35667">
<rect x="216" width="100" height="133" rx="4" fill="white"/>
</clipPath>
<clipPath id="clip3_357_35667">
<rect x="324" width="100" height="133" rx="4" fill="white"/>
</clipPath>
<clipPath id="clip4_357_35667">
<rect x="108" y="141" width="100" height="133" rx="4" fill="white"/>
</clipPath>
<clipPath id="clip5_357_35667">
<rect x="756" width="100" height="133" rx="4" fill="white"/>
</clipPath>
<clipPath id="clip6_357_35667">
<rect x="324" y="141" width="100" height="133" rx="4" fill="white"/>
</clipPath>
<clipPath id="clip7_357_35667">
<rect x="216" y="141" width="100" height="133" rx="4" fill="white"/>
</clipPath>
</defs>
</svg>
