<svg width="900" height="33" viewBox="0 0 900 33" fill="none" xmlns="http://www.w3.org/2000/svg">
<g clip-path="url(#clip0_339_35636)">
<path d="M41.366 10.088H39.924L35.99 16.43V17.732H40.19V20H41.366V17.732H42.794V16.64H41.366V10.088ZM40.19 16.64H36.998L40.162 11.46H40.19V16.64ZM45.2253 18.404C44.7633 18.404 44.3853 18.782 44.3853 19.244C44.3853 19.706 44.7913 20.084 45.2253 20.084C45.6593 20.084 46.0653 19.706 46.0653 19.244C46.0653 18.782 45.6873 18.404 45.2253 18.404ZM53.8118 10.088H48.6178L48.5198 15.24C49.1078 14.89 49.8638 14.624 50.5358 14.624C51.9218 14.624 52.9858 15.422 52.9858 16.878C52.9858 18.25 52.0478 19.16 50.8578 19.16C50.0178 19.16 49.3458 18.656 49.0098 17.914L47.8338 18.362C48.3658 19.454 49.2618 20.168 50.7598 20.168C52.6918 20.168 54.1618 18.852 54.1618 16.878C54.1618 15.016 52.9018 13.616 50.9978 13.616C50.5918 13.616 50.1018 13.672 49.7238 13.854L49.7658 11.18H53.8118V10.088ZM56.9011 13.28C56.4391 13.28 56.0611 13.658 56.0611 14.12C56.0611 14.582 56.4671 14.96 56.9011 14.96C57.3351 14.96 57.7411 14.582 57.7411 14.12C57.7411 13.658 57.3631 13.28 56.9011 13.28ZM56.9011 18.404C56.4391 18.404 56.0611 18.782 56.0611 19.244C56.0611 19.706 56.4671 20.084 56.9011 20.084C57.3351 20.084 57.7411 19.706 57.7411 19.244C57.7411 18.782 57.3631 18.404 56.9011 18.404ZM63.8916 10.088H62.8696L60.2096 12.244L60.9096 13.098L62.6876 11.6H62.7156V20H63.8916V10.088ZM77.0933 14.316C76.4353 13.602 75.5393 13.28 74.5733 13.28C72.5573 13.28 71.1853 14.736 71.1853 16.724C71.1853 18.74 72.5433 20.168 74.5733 20.168C75.5253 20.168 76.4213 19.846 77.0513 19.118L76.2393 18.348C75.8333 18.908 75.2873 19.16 74.5733 19.16C73.2433 19.16 72.3613 18.068 72.3613 16.724C72.3613 15.38 73.1033 14.288 74.5733 14.288C75.2313 14.288 75.7633 14.526 76.2253 15.086L77.0933 14.316ZM77.9393 16.724C77.9393 18.768 79.4233 20.168 81.4393 20.168C83.4553 20.168 84.9393 18.768 84.9393 16.724C84.9393 14.68 83.4553 13.28 81.4393 13.28C79.4233 13.28 77.9393 14.68 77.9393 16.724ZM79.1153 16.724C79.1153 15.352 80.0253 14.288 81.4393 14.288C82.8533 14.288 83.7633 15.352 83.7633 16.724C83.7633 18.096 82.8533 19.16 81.4393 19.16C80.0253 19.16 79.1153 18.096 79.1153 16.724ZM86.6298 20H87.7218V16.808C87.7218 15.31 88.3378 14.288 89.7518 14.288C90.7738 14.288 91.2498 14.974 91.2498 16.066V20H92.3418V15.954C92.3418 14.372 91.5718 13.28 89.8498 13.28C88.7718 13.28 87.9598 13.882 87.6658 14.526H87.6378C87.6378 14.162 87.6098 13.798 87.6098 13.448H86.5738C86.5738 13.882 86.6298 14.4 86.6298 15.002V20ZM97.993 13.448H96.061V11.586H94.969V13.448H93.541V14.372H94.969V17.97C94.969 19.328 95.221 20.168 96.775 20.168C97.181 20.168 97.671 20.098 98.049 19.93L98.007 18.936C97.713 19.09 97.363 19.16 97.041 19.16C96.075 19.16 96.061 18.488 96.061 17.648V14.372H97.993V13.448ZM99.3309 20H100.423V16.808C100.423 15.31 101.011 14.372 102.341 14.372C102.537 14.372 102.747 14.4 102.929 14.456L102.999 13.35C102.845 13.294 102.691 13.28 102.551 13.28C101.473 13.28 100.661 13.882 100.367 14.526H100.339C100.339 14.162 100.311 13.798 100.311 13.448H99.2749C99.2749 13.882 99.3309 14.4 99.3309 15.002V20ZM104.855 15.002C105.373 14.526 106.101 14.288 106.801 14.288C107.823 14.288 108.425 14.778 108.425 15.73V15.926H108.005C106.395 15.926 103.875 16.052 103.875 18.222C103.875 19.496 104.981 20.168 106.311 20.168C107.305 20.168 108.033 19.692 108.467 19.02H108.495C108.495 19.3 108.495 19.706 108.565 20H109.615C109.559 19.664 109.517 19.244 109.517 18.866V16.052C109.517 14.204 108.705 13.28 106.773 13.28C105.821 13.28 104.841 13.602 104.169 14.288L104.855 15.002ZM108.425 16.85V17.27C108.397 18.334 107.753 19.244 106.493 19.244C105.667 19.244 105.051 18.936 105.051 18.11C105.051 17.228 105.947 16.85 107.333 16.85H108.425ZM110.785 18.95C111.429 19.874 112.227 20.168 113.333 20.168C114.635 20.168 115.951 19.594 115.951 18.11C115.951 16.794 114.971 16.374 113.809 16.15C112.941 15.982 112.157 15.744 112.157 15.198C112.157 14.582 112.843 14.288 113.445 14.288C114.089 14.288 114.551 14.61 114.831 15.072L115.741 14.47C115.293 13.63 114.439 13.28 113.515 13.28C112.297 13.28 111.065 13.938 111.065 15.212C111.065 16.57 112.129 16.836 113.375 17.116C114.075 17.27 114.775 17.452 114.775 18.152C114.775 18.866 114.019 19.16 113.333 19.16C112.563 19.16 112.087 18.81 111.653 18.278L110.785 18.95ZM121.058 13.448H119.126V11.586H118.034V13.448H116.606V14.372H118.034V17.97C118.034 19.328 118.285 20.168 119.84 20.168C120.246 20.168 120.736 20.098 121.114 19.93L121.072 18.936C120.778 19.09 120.428 19.16 120.106 19.16C119.14 19.16 119.126 18.488 119.126 17.648V14.372H121.058V13.448ZM126.894 15.002C127.412 14.526 128.14 14.288 128.84 14.288C129.862 14.288 130.464 14.778 130.464 15.73V15.926H130.044C128.434 15.926 125.914 16.052 125.914 18.222C125.914 19.496 127.02 20.168 128.35 20.168C129.344 20.168 130.072 19.692 130.506 19.02H130.534C130.534 19.3 130.534 19.706 130.604 20H131.654C131.598 19.664 131.556 19.244 131.556 18.866V16.052C131.556 14.204 130.744 13.28 128.812 13.28C127.86 13.28 126.88 13.602 126.208 14.288L126.894 15.002ZM130.464 16.85V17.27C130.436 18.334 129.792 19.244 128.532 19.244C127.706 19.244 127.09 18.936 127.09 18.11C127.09 17.228 127.986 16.85 129.372 16.85H130.464ZM133.552 20H134.644V16.808C134.644 15.31 135.26 14.288 136.674 14.288C137.696 14.288 138.172 14.974 138.172 16.066V20H139.264V15.954C139.264 14.372 138.494 13.28 136.772 13.28C135.694 13.28 134.882 13.882 134.588 14.526H134.56C134.56 14.162 134.532 13.798 134.532 13.448H133.496C133.496 13.882 133.552 14.4 133.552 15.002V20ZM146.777 20H147.869V9.416H146.777V14.4H146.749C146.147 13.7 145.349 13.28 144.397 13.28C142.339 13.28 140.953 14.736 140.953 16.724C140.953 18.684 142.395 20.168 144.229 20.168C145.405 20.168 146.343 19.58 146.749 18.838H146.777V20ZM146.777 16.724C146.777 18.096 145.867 19.16 144.453 19.16C143.039 19.16 142.129 18.096 142.129 16.724C142.129 15.352 143.039 14.288 144.453 14.288C145.867 14.288 146.777 15.352 146.777 16.724ZM154.388 15.002C154.906 14.526 155.634 14.288 156.334 14.288C157.356 14.288 157.958 14.778 157.958 15.73V15.926H157.538C155.928 15.926 153.408 16.052 153.408 18.222C153.408 19.496 154.514 20.168 155.844 20.168C156.838 20.168 157.566 19.692 158 19.02H158.028C158.028 19.3 158.028 19.706 158.098 20H159.148C159.092 19.664 159.05 19.244 159.05 18.866V16.052C159.05 14.204 158.238 13.28 156.306 13.28C155.354 13.28 154.374 13.602 153.702 14.288L154.388 15.002ZM157.958 16.85V17.27C157.93 18.334 157.286 19.244 156.026 19.244C155.2 19.244 154.584 18.936 154.584 18.11C154.584 17.228 155.48 16.85 156.866 16.85H157.958ZM160.99 20H162.082V18.838H162.11C162.516 19.58 163.454 20.168 164.63 20.168C166.464 20.168 167.906 18.684 167.906 16.724C167.906 14.736 166.52 13.28 164.462 13.28C163.51 13.28 162.712 13.7 162.11 14.4H162.082V9.416H160.99V20ZM162.082 16.724C162.082 15.352 162.992 14.288 164.406 14.288C165.82 14.288 166.73 15.352 166.73 16.724C166.73 18.096 165.82 19.16 164.406 19.16C162.992 19.16 162.082 18.096 162.082 16.724ZM169.226 16.724C169.226 18.768 170.71 20.168 172.726 20.168C174.742 20.168 176.226 18.768 176.226 16.724C176.226 14.68 174.742 13.28 172.726 13.28C170.71 13.28 169.226 14.68 169.226 16.724ZM170.402 16.724C170.402 15.352 171.312 14.288 172.726 14.288C174.14 14.288 175.05 15.352 175.05 16.724C175.05 18.096 174.14 19.16 172.726 19.16C171.312 19.16 170.402 18.096 170.402 16.724ZM183.489 13.448H182.313L180.367 18.586H180.339L178.295 13.448H177.021L179.695 20H180.899L183.489 13.448ZM189.697 18.166C189.179 18.824 188.549 19.16 187.611 19.16C186.421 19.16 185.553 18.194 185.469 17.06H190.761V16.71C190.761 14.54 189.501 13.28 187.653 13.28C185.721 13.28 184.293 14.694 184.293 16.724C184.293 18.628 185.553 20.168 187.611 20.168C188.829 20.168 189.753 19.804 190.523 18.81L189.697 18.166ZM185.469 16.136C185.609 15.03 186.407 14.288 187.611 14.288C188.815 14.288 189.543 15.03 189.585 16.136H185.469ZM194.984 21.652C193.78 19.762 193.192 18.222 193.192 15.968C193.192 13.924 193.794 11.95 194.984 10.312L194.228 9.752C192.94 11.502 192.184 13.672 192.184 15.968C192.184 18.11 192.898 20.35 194.228 22.184L194.984 21.652ZM205.489 13.448H204.313L202.829 18.488H202.801L201.079 13.448H199.931L198.237 18.488H198.209L196.711 13.448H195.507L197.635 20H198.755L200.407 14.96H200.435L202.297 20H203.375L205.489 13.448ZM206.822 20H207.914V13.448H206.822V20ZM206.57 10.886C206.57 11.348 206.906 11.684 207.368 11.684C207.83 11.684 208.166 11.348 208.166 10.886C208.166 10.452 207.816 10.088 207.368 10.088C206.92 10.088 206.57 10.452 206.57 10.886ZM213.671 13.448H211.739V11.586H210.647V13.448H209.219V14.372H210.647V17.97C210.647 19.328 210.899 20.168 212.453 20.168C212.859 20.168 213.349 20.098 213.727 19.93L213.685 18.936C213.391 19.09 213.041 19.16 212.719 19.16C211.753 19.16 211.739 18.488 211.739 17.648V14.372H213.671V13.448ZM215.009 20H216.101V16.808C216.101 15.31 216.717 14.288 218.131 14.288C219.153 14.288 219.629 14.974 219.629 16.066V20H220.721V15.954C220.721 14.372 219.951 13.28 218.229 13.28C217.207 13.28 216.423 13.84 216.129 14.358H216.101V9.416H215.009V20ZM235.826 13.448H234.65L233.166 18.488H233.138L231.416 13.448H230.268L228.574 18.488H228.546L227.048 13.448H225.844L227.972 20H229.092L230.744 14.96H230.772L232.634 20H233.712L235.826 13.448ZM237.061 20H238.153V16.808C238.153 15.31 238.769 14.288 240.183 14.288C241.205 14.288 241.681 14.974 241.681 16.066V20H242.773V15.954C242.773 14.372 242.003 13.28 240.281 13.28C239.259 13.28 238.475 13.84 238.181 14.358H238.153V9.416H237.061V20ZM244.939 20H246.031V13.448H244.939V20ZM244.687 10.886C244.687 11.348 245.023 11.684 245.485 11.684C245.947 11.684 246.283 11.348 246.283 10.886C246.283 10.452 245.933 10.088 245.485 10.088C245.037 10.088 244.687 10.452 244.687 10.886ZM251.788 13.448H249.856V11.586H248.764V13.448H247.336V14.372H248.764V17.97C248.764 19.328 249.016 20.168 250.57 20.168C250.976 20.168 251.466 20.098 251.844 19.93L251.802 18.936C251.508 19.09 251.158 19.16 250.836 19.16C249.87 19.16 249.856 18.488 249.856 17.648V14.372H251.788V13.448ZM258.152 18.166C257.634 18.824 257.004 19.16 256.066 19.16C254.876 19.16 254.008 18.194 253.924 17.06H259.216V16.71C259.216 14.54 257.956 13.28 256.108 13.28C254.176 13.28 252.748 14.694 252.748 16.724C252.748 18.628 254.008 20.168 256.066 20.168C257.284 20.168 258.208 19.804 258.978 18.81L258.152 18.166ZM253.924 16.136C254.064 15.03 254.862 14.288 256.066 14.288C257.27 14.288 257.998 15.03 258.04 16.136H253.924ZM260.191 10.284C261.395 12.174 261.983 13.714 261.983 15.968C261.983 18.012 261.381 19.986 260.191 21.624L260.947 22.184C262.235 20.434 262.991 18.264 262.991 15.968C262.991 13.826 262.277 11.586 260.947 9.752L260.191 10.284Z" fill="#333333"/>
<rect width="600" height="33" transform="translate(300)" fill="#333333"/>
<path d="M492.366 10.088H490.924L486.99 16.43V17.732H491.19V20H492.366V17.732H493.794V16.64H492.366V10.088ZM491.19 16.64H487.998L491.162 11.46H491.19V16.64ZM496.225 18.404C495.763 18.404 495.385 18.782 495.385 19.244C495.385 19.706 495.791 20.084 496.225 20.084C496.659 20.084 497.065 19.706 497.065 19.244C497.065 18.782 496.687 18.404 496.225 18.404ZM504.812 10.088H499.618L499.52 15.24C500.108 14.89 500.864 14.624 501.536 14.624C502.922 14.624 503.986 15.422 503.986 16.878C503.986 18.25 503.048 19.16 501.858 19.16C501.018 19.16 500.346 18.656 500.01 17.914L498.834 18.362C499.366 19.454 500.262 20.168 501.76 20.168C503.692 20.168 505.162 18.852 505.162 16.878C505.162 15.016 503.902 13.616 501.998 13.616C501.592 13.616 501.102 13.672 500.724 13.854L500.766 11.18H504.812V10.088ZM507.901 13.28C507.439 13.28 507.061 13.658 507.061 14.12C507.061 14.582 507.467 14.96 507.901 14.96C508.335 14.96 508.741 14.582 508.741 14.12C508.741 13.658 508.363 13.28 507.901 13.28ZM507.901 18.404C507.439 18.404 507.061 18.782 507.061 19.244C507.061 19.706 507.467 20.084 507.901 20.084C508.335 20.084 508.741 19.706 508.741 19.244C508.741 18.782 508.363 18.404 507.901 18.404ZM514.892 10.088H513.87L511.21 12.244L511.91 13.098L513.688 11.6H513.716V20H514.892V10.088ZM528.093 14.316C527.435 13.602 526.539 13.28 525.573 13.28C523.557 13.28 522.185 14.736 522.185 16.724C522.185 18.74 523.543 20.168 525.573 20.168C526.525 20.168 527.421 19.846 528.051 19.118L527.239 18.348C526.833 18.908 526.287 19.16 525.573 19.16C524.243 19.16 523.361 18.068 523.361 16.724C523.361 15.38 524.103 14.288 525.573 14.288C526.231 14.288 526.763 14.526 527.225 15.086L528.093 14.316ZM528.939 16.724C528.939 18.768 530.423 20.168 532.439 20.168C534.455 20.168 535.939 18.768 535.939 16.724C535.939 14.68 534.455 13.28 532.439 13.28C530.423 13.28 528.939 14.68 528.939 16.724ZM530.115 16.724C530.115 15.352 531.025 14.288 532.439 14.288C533.853 14.288 534.763 15.352 534.763 16.724C534.763 18.096 533.853 19.16 532.439 19.16C531.025 19.16 530.115 18.096 530.115 16.724ZM537.63 20H538.722V16.808C538.722 15.31 539.338 14.288 540.752 14.288C541.774 14.288 542.25 14.974 542.25 16.066V20H543.342V15.954C543.342 14.372 542.572 13.28 540.85 13.28C539.772 13.28 538.96 13.882 538.666 14.526H538.638C538.638 14.162 538.61 13.798 538.61 13.448H537.574C537.574 13.882 537.63 14.4 537.63 15.002V20ZM548.993 13.448H547.061V11.586H545.969V13.448H544.541V14.372H545.969V17.97C545.969 19.328 546.221 20.168 547.775 20.168C548.181 20.168 548.671 20.098 549.049 19.93L549.007 18.936C548.713 19.09 548.363 19.16 548.041 19.16C547.075 19.16 547.061 18.488 547.061 17.648V14.372H548.993V13.448ZM550.331 20H551.423V16.808C551.423 15.31 552.011 14.372 553.341 14.372C553.537 14.372 553.747 14.4 553.929 14.456L553.999 13.35C553.845 13.294 553.691 13.28 553.551 13.28C552.473 13.28 551.661 13.882 551.367 14.526H551.339C551.339 14.162 551.311 13.798 551.311 13.448H550.275C550.275 13.882 550.331 14.4 550.331 15.002V20ZM555.855 15.002C556.373 14.526 557.101 14.288 557.801 14.288C558.823 14.288 559.425 14.778 559.425 15.73V15.926H559.005C557.395 15.926 554.875 16.052 554.875 18.222C554.875 19.496 555.981 20.168 557.311 20.168C558.305 20.168 559.033 19.692 559.467 19.02H559.495C559.495 19.3 559.495 19.706 559.565 20H560.615C560.559 19.664 560.517 19.244 560.517 18.866V16.052C560.517 14.204 559.705 13.28 557.773 13.28C556.821 13.28 555.841 13.602 555.169 14.288L555.855 15.002ZM559.425 16.85V17.27C559.397 18.334 558.753 19.244 557.493 19.244C556.667 19.244 556.051 18.936 556.051 18.11C556.051 17.228 556.947 16.85 558.333 16.85H559.425ZM561.785 18.95C562.429 19.874 563.227 20.168 564.333 20.168C565.635 20.168 566.951 19.594 566.951 18.11C566.951 16.794 565.971 16.374 564.809 16.15C563.941 15.982 563.157 15.744 563.157 15.198C563.157 14.582 563.843 14.288 564.445 14.288C565.089 14.288 565.551 14.61 565.831 15.072L566.741 14.47C566.293 13.63 565.439 13.28 564.515 13.28C563.297 13.28 562.065 13.938 562.065 15.212C562.065 16.57 563.129 16.836 564.375 17.116C565.075 17.27 565.775 17.452 565.775 18.152C565.775 18.866 565.019 19.16 564.333 19.16C563.563 19.16 563.087 18.81 562.653 18.278L561.785 18.95ZM572.058 13.448H570.126V11.586H569.034V13.448H567.606V14.372H569.034V17.97C569.034 19.328 569.285 20.168 570.84 20.168C571.246 20.168 571.736 20.098 572.114 19.93L572.072 18.936C571.778 19.09 571.428 19.16 571.106 19.16C570.14 19.16 570.126 18.488 570.126 17.648V14.372H572.058V13.448ZM577.894 15.002C578.412 14.526 579.14 14.288 579.84 14.288C580.862 14.288 581.464 14.778 581.464 15.73V15.926H581.044C579.434 15.926 576.914 16.052 576.914 18.222C576.914 19.496 578.02 20.168 579.35 20.168C580.344 20.168 581.072 19.692 581.506 19.02H581.534C581.534 19.3 581.534 19.706 581.604 20H582.654C582.598 19.664 582.556 19.244 582.556 18.866V16.052C582.556 14.204 581.744 13.28 579.812 13.28C578.86 13.28 577.88 13.602 577.208 14.288L577.894 15.002ZM581.464 16.85V17.27C581.436 18.334 580.792 19.244 579.532 19.244C578.706 19.244 578.09 18.936 578.09 18.11C578.09 17.228 578.986 16.85 580.372 16.85H581.464ZM584.552 20H585.644V16.808C585.644 15.31 586.26 14.288 587.674 14.288C588.696 14.288 589.172 14.974 589.172 16.066V20H590.264V15.954C590.264 14.372 589.494 13.28 587.772 13.28C586.694 13.28 585.882 13.882 585.588 14.526H585.56C585.56 14.162 585.532 13.798 585.532 13.448H584.496C584.496 13.882 584.552 14.4 584.552 15.002V20ZM597.777 20H598.869V9.416H597.777V14.4H597.749C597.147 13.7 596.349 13.28 595.397 13.28C593.339 13.28 591.953 14.736 591.953 16.724C591.953 18.684 593.395 20.168 595.229 20.168C596.405 20.168 597.343 19.58 597.749 18.838H597.777V20ZM597.777 16.724C597.777 18.096 596.867 19.16 595.453 19.16C594.039 19.16 593.129 18.096 593.129 16.724C593.129 15.352 594.039 14.288 595.453 14.288C596.867 14.288 597.777 15.352 597.777 16.724ZM605.388 15.002C605.906 14.526 606.634 14.288 607.334 14.288C608.356 14.288 608.958 14.778 608.958 15.73V15.926H608.538C606.928 15.926 604.408 16.052 604.408 18.222C604.408 19.496 605.514 20.168 606.844 20.168C607.838 20.168 608.566 19.692 609 19.02H609.028C609.028 19.3 609.028 19.706 609.098 20H610.148C610.092 19.664 610.05 19.244 610.05 18.866V16.052C610.05 14.204 609.238 13.28 607.306 13.28C606.354 13.28 605.374 13.602 604.702 14.288L605.388 15.002ZM608.958 16.85V17.27C608.93 18.334 608.286 19.244 607.026 19.244C606.2 19.244 605.584 18.936 605.584 18.11C605.584 17.228 606.48 16.85 607.866 16.85H608.958ZM611.99 20H613.082V18.838H613.11C613.516 19.58 614.454 20.168 615.63 20.168C617.464 20.168 618.906 18.684 618.906 16.724C618.906 14.736 617.52 13.28 615.462 13.28C614.51 13.28 613.712 13.7 613.11 14.4H613.082V9.416H611.99V20ZM613.082 16.724C613.082 15.352 613.992 14.288 615.406 14.288C616.82 14.288 617.73 15.352 617.73 16.724C617.73 18.096 616.82 19.16 615.406 19.16C613.992 19.16 613.082 18.096 613.082 16.724ZM620.226 16.724C620.226 18.768 621.71 20.168 623.726 20.168C625.742 20.168 627.226 18.768 627.226 16.724C627.226 14.68 625.742 13.28 623.726 13.28C621.71 13.28 620.226 14.68 620.226 16.724ZM621.402 16.724C621.402 15.352 622.312 14.288 623.726 14.288C625.14 14.288 626.05 15.352 626.05 16.724C626.05 18.096 625.14 19.16 623.726 19.16C622.312 19.16 621.402 18.096 621.402 16.724ZM634.489 13.448H633.313L631.367 18.586H631.339L629.295 13.448H628.021L630.695 20H631.899L634.489 13.448ZM640.697 18.166C640.179 18.824 639.549 19.16 638.611 19.16C637.421 19.16 636.553 18.194 636.469 17.06H641.761V16.71C641.761 14.54 640.501 13.28 638.653 13.28C636.721 13.28 635.293 14.694 635.293 16.724C635.293 18.628 636.553 20.168 638.611 20.168C639.829 20.168 640.753 19.804 641.523 18.81L640.697 18.166ZM636.469 16.136C636.609 15.03 637.407 14.288 638.611 14.288C639.815 14.288 640.543 15.03 640.585 16.136H636.469ZM645.984 21.652C644.78 19.762 644.192 18.222 644.192 15.968C644.192 13.924 644.794 11.95 645.984 10.312L645.228 9.752C643.94 11.502 643.184 13.672 643.184 15.968C643.184 18.11 643.898 20.35 645.228 22.184L645.984 21.652ZM656.489 13.448H655.313L653.829 18.488H653.801L652.079 13.448H650.931L649.237 18.488H649.209L647.711 13.448H646.507L648.635 20H649.755L651.407 14.96H651.435L653.297 20H654.375L656.489 13.448ZM657.822 20H658.914V13.448H657.822V20ZM657.57 10.886C657.57 11.348 657.906 11.684 658.368 11.684C658.83 11.684 659.166 11.348 659.166 10.886C659.166 10.452 658.816 10.088 658.368 10.088C657.92 10.088 657.57 10.452 657.57 10.886ZM664.671 13.448H662.739V11.586H661.647V13.448H660.219V14.372H661.647V17.97C661.647 19.328 661.899 20.168 663.453 20.168C663.859 20.168 664.349 20.098 664.727 19.93L664.685 18.936C664.391 19.09 664.041 19.16 663.719 19.16C662.753 19.16 662.739 18.488 662.739 17.648V14.372H664.671V13.448ZM666.009 20H667.101V16.808C667.101 15.31 667.717 14.288 669.131 14.288C670.153 14.288 670.629 14.974 670.629 16.066V20H671.721V15.954C671.721 14.372 670.951 13.28 669.229 13.28C668.207 13.28 667.423 13.84 667.129 14.358H667.101V9.416H666.009V20ZM677.628 20H678.72V18.838H678.748C679.154 19.58 680.092 20.168 681.268 20.168C683.102 20.168 684.544 18.684 684.544 16.724C684.544 14.736 683.158 13.28 681.1 13.28C680.148 13.28 679.35 13.7 678.748 14.4H678.72V9.416H677.628V20ZM678.72 16.724C678.72 15.352 679.63 14.288 681.044 14.288C682.458 14.288 683.368 15.352 683.368 16.724C683.368 18.096 682.458 19.16 681.044 19.16C679.63 19.16 678.72 18.096 678.72 16.724ZM686.341 20H687.433V9.416H686.341V20ZM690.208 15.002C690.726 14.526 691.454 14.288 692.154 14.288C693.176 14.288 693.778 14.778 693.778 15.73V15.926H693.358C691.748 15.926 689.228 16.052 689.228 18.222C689.228 19.496 690.334 20.168 691.664 20.168C692.658 20.168 693.386 19.692 693.82 19.02H693.848C693.848 19.3 693.848 19.706 693.918 20H694.968C694.912 19.664 694.87 19.244 694.87 18.866V16.052C694.87 14.204 694.058 13.28 692.126 13.28C691.174 13.28 690.194 13.602 689.522 14.288L690.208 15.002ZM693.778 16.85V17.27C693.75 18.334 693.106 19.244 691.846 19.244C691.02 19.244 690.404 18.936 690.404 18.11C690.404 17.228 691.3 16.85 692.686 16.85H693.778ZM702.396 14.316C701.738 13.602 700.842 13.28 699.876 13.28C697.86 13.28 696.488 14.736 696.488 16.724C696.488 18.74 697.846 20.168 699.876 20.168C700.828 20.168 701.724 19.846 702.354 19.118L701.542 18.348C701.136 18.908 700.59 19.16 699.876 19.16C698.546 19.16 697.664 18.068 697.664 16.724C697.664 15.38 698.406 14.288 699.876 14.288C700.534 14.288 701.066 14.526 701.528 15.086L702.396 14.316ZM703.62 20H704.712V16.556L707.96 20H709.57L706.084 16.43L709.248 13.448H707.694L704.712 16.332V9.416H703.62V20ZM709.906 10.284C711.11 12.174 711.698 13.714 711.698 15.968C711.698 18.012 711.096 19.986 709.906 21.624L710.662 22.184C711.95 20.434 712.706 18.264 712.706 15.968C712.706 13.826 711.992 11.586 710.662 9.752L709.906 10.284Z" fill="white"/>
</g>
<rect x="0.5" y="0.5" width="899" height="32" rx="3.5" stroke="#333333"/>
<defs>
<clipPath id="clip0_339_35636">
<rect width="900" height="33" rx="4" fill="white"/>
</clipPath>
</defs>
</svg>
