<svg width="836" height="371" viewBox="0 0 836 371" fill="none" xmlns="http://www.w3.org/2000/svg">
<path d="M17.252 2.858C16.482 2.13 15.446 1.836 14.41 1.836C12.576 1.836 10.756 2.788 10.756 4.832C10.756 8.374 15.46 7.128 15.46 9.298C15.46 10.208 14.536 10.656 13.724 10.656C12.94 10.656 12.198 10.278 11.764 9.62L10.434 10.908C11.246 11.874 12.45 12.252 13.682 12.252C15.628 12.252 17.308 11.216 17.308 9.088C17.308 5.56 12.604 6.694 12.604 4.706C12.604 3.796 13.416 3.432 14.228 3.432C14.914 3.432 15.586 3.684 15.964 4.216L17.252 2.858ZM19.1871 12H20.8671V3.768H20.8951L23.9051 12H25.1371L28.1471 3.768H28.1751V12H29.8551V2.088H27.1951L24.5211 9.032L21.8751 2.088H19.1871V12ZM40.5466 1.836L39.3846 1.388L35.0166 12.252L36.1786 12.672L40.5466 1.836ZM45.8326 12H49.5286C51.9086 12 54.7786 10.432 54.7786 7.044C54.7786 3.684 52.3426 2.088 49.7386 2.088H45.8326V12ZM47.5966 10.404V3.684H49.2066C51.3626 3.684 52.9306 4.636 52.9306 7.044C52.9306 9.452 51.1246 10.404 48.9126 10.404H47.5966ZM62.7696 9.228V8.766C62.7696 6.428 61.4956 5.112 59.6196 5.112C57.5896 5.112 55.9656 6.526 55.9656 8.64C55.9656 10.754 57.5896 12.168 59.6196 12.168C60.6836 12.168 61.6776 11.79 62.4616 10.824L61.2576 9.914C60.8376 10.432 60.2916 10.824 59.4516 10.824C58.5136 10.824 57.7576 10.222 57.6456 9.228H62.7696ZM57.6456 7.968C57.7716 7.002 58.3876 6.372 59.3816 6.372C60.4316 6.372 61.0756 6.988 61.0896 7.968H57.6456ZM64.9427 12H66.6227V6.708H68.1767V5.28H66.6227V4.062C66.6227 3.32 66.7627 2.676 67.7007 2.676C67.9387 2.676 68.1627 2.718 68.4007 2.774L68.5127 1.346C68.1627 1.276 67.8127 1.248 67.4487 1.248C65.3627 1.248 64.9427 2.466 64.9427 4.328V5.28H63.5567V6.708H64.9427V12ZM73.4625 12H74.9745V8.136C74.9745 7.184 74.9745 5.112 72.1045 5.112C71.0405 5.112 69.9905 5.434 69.2485 6.19L70.1305 7.072C70.5785 6.652 71.2225 6.372 71.9225 6.372C72.8185 6.372 73.4625 6.806 73.4625 7.632V7.814H73.0425C71.3625 7.814 68.8145 7.968 68.8145 10.152C68.8145 11.482 70.0185 12.168 71.2645 12.168C72.1605 12.168 72.9445 11.832 73.4205 11.076H73.4625V12ZM73.3645 9.368C73.3645 10.306 72.8185 10.908 71.6705 10.908C71.1245 10.908 70.4945 10.642 70.4945 10.026C70.4945 9.06 72.0905 8.99 73.0145 8.99H73.3645V9.368ZM82.9141 5.28H81.2341V8.948C81.2341 9.844 80.8001 10.656 79.6941 10.656C78.5181 10.656 78.4621 9.424 78.4621 8.682V5.28H76.7821V9.522C76.7821 10.894 77.4261 12.168 79.2321 12.168C80.3521 12.168 80.9821 11.594 81.2901 10.922H81.3181V12H82.9141V5.28ZM84.8491 12H86.5291V1.416H84.8491V12ZM89.0599 6.708V9.788C89.0599 11.37 89.4799 12.168 91.2579 12.168C91.6499 12.168 92.2379 12.112 92.5879 11.944V10.53C92.3779 10.684 91.9719 10.74 91.6779 10.74C90.9359 10.74 90.7399 10.32 90.7399 9.648V6.708H92.5879V5.28H90.7399V3.334H89.0599V5.28H87.6739V6.708H89.0599Z" fill="black"/>
<g filter="url(#filter0_dd_69_16325)">
<rect x="10" y="33" width="300" height="138" rx="12" fill="white" shape-rendering="crispEdges"/>
<path d="M35.44 67H40.54C44.76 67 48.5 64.54 48.5 59.96C48.5 54.78 44.68 52.84 40.12 52.84H35.44V67ZM38.56 55.72H40.4C43.04 55.72 45.26 57.02 45.26 59.8C45.26 63.02 43.08 64.12 40.18 64.12H38.56V55.72ZM49.8758 62.14C49.8758 65.24 52.2758 67.24 55.2758 67.24C58.2758 67.24 60.6758 65.24 60.6758 62.14C60.6758 59.04 58.2758 57.04 55.2758 57.04C52.2758 57.04 49.8758 59.04 49.8758 62.14ZM52.8758 62.14C52.8758 60.68 53.7758 59.68 55.2758 59.68C56.7758 59.68 57.6758 60.68 57.6758 62.14C57.6758 63.6 56.7758 64.6 55.2758 64.6C53.7758 64.6 52.8758 63.6 52.8758 62.14ZM78.3608 57.28H75.2808L73.1408 63.7H73.1008L70.6008 57.28H67.3608L71.6208 67.08L71.4008 67.64C70.9808 68.7 70.7608 69.28 69.4008 69.28C68.9008 69.28 68.4608 69.18 68.0008 68.98L67.6008 71.44C68.3208 71.68 69.0808 71.8 69.8408 71.8C72.7008 71.8 73.1608 70.64 73.9608 68.58L78.3608 57.28ZM79.1141 62.14C79.1141 65.24 81.5141 67.24 84.5141 67.24C87.5141 67.24 89.9141 65.24 89.9141 62.14C89.9141 59.04 87.5141 57.04 84.5141 57.04C81.5141 57.04 79.1141 59.04 79.1141 62.14ZM82.1141 62.14C82.1141 60.68 83.0141 59.68 84.5141 59.68C86.0141 59.68 86.9141 60.68 86.9141 62.14C86.9141 63.6 86.0141 64.6 84.5141 64.6C83.0141 64.6 82.1141 63.6 82.1141 62.14ZM101.041 57.28H98.0411V62.12C98.0411 63.38 97.8011 64.6 96.2411 64.6C94.7011 64.6 94.6811 63.16 94.6811 62.04V57.28H91.6811V62.64C91.6811 65.24 92.2411 67.24 95.2811 67.24C96.7411 67.24 97.7211 66.44 98.1211 65.68H98.1611V67H101.041V57.28ZM111.483 67H114.503L116.303 60.54H116.343L118.363 67H121.323L124.783 57.28H121.743L119.923 63.38H119.883L118.083 57.28H114.803L113.143 63.38H113.103L111.123 57.28H107.923L111.483 67ZM125.784 67H128.784V57.28H125.784V67ZM125.544 54.22C125.544 55.18 126.324 55.96 127.284 55.96C128.244 55.96 129.024 55.18 129.024 54.22C129.024 53.26 128.244 52.48 127.284 52.48C126.324 52.48 125.544 53.26 125.544 54.22ZM138.279 58.32C137.379 57.36 135.959 57.04 134.679 57.04C132.639 57.04 130.599 58.04 130.599 60.32C130.599 64.02 135.659 62.7 135.659 64.26C135.659 64.78 134.979 64.96 134.299 64.96C133.399 64.96 132.739 64.58 132.179 63.9L130.359 65.92C131.319 66.9 132.819 67.24 134.179 67.24C136.259 67.24 138.659 66.52 138.659 64.04C138.659 60.34 133.599 61.56 133.599 60.12C133.599 59.54 134.199 59.32 134.699 59.32C135.419 59.32 135.999 59.6 136.439 60.14L138.279 58.32ZM140.197 51.88V67H143.197V62.16C143.197 60.9 143.437 59.68 144.997 59.68C146.537 59.68 146.557 61.12 146.557 62.24V67H149.557V61.64C149.557 59.04 148.997 57.04 145.957 57.04C144.497 57.04 143.517 57.84 143.237 58.6H143.197V51.88H140.197ZM164.219 57.28H161.579V54.4H158.579V57.28H156.659V59.68H158.579V64.3C158.579 66.42 160.119 67.24 162.119 67.24C162.819 67.24 163.559 67.18 164.219 66.94V64.44C163.959 64.68 163.319 64.72 162.999 64.72C161.699 64.72 161.579 63.96 161.579 62.92V59.68H164.219V57.28ZM165.384 62.14C165.384 65.24 167.784 67.24 170.784 67.24C173.784 67.24 176.184 65.24 176.184 62.14C176.184 59.04 173.784 57.04 170.784 57.04C167.784 57.04 165.384 59.04 165.384 62.14ZM168.384 62.14C168.384 60.68 169.284 59.68 170.784 59.68C172.284 59.68 173.184 60.68 173.184 62.14C173.184 63.6 172.284 64.6 170.784 64.6C169.284 64.6 168.384 63.6 168.384 62.14ZM192.429 58.34C191.489 57.38 190.109 57.04 188.969 57.04C185.969 57.04 183.569 59.04 183.569 62.14C183.569 65.24 185.969 67.24 188.969 67.24C190.109 67.24 191.489 66.9 192.429 65.94L190.449 63.86C190.109 64.26 189.629 64.6 188.969 64.6C187.469 64.6 186.569 63.6 186.569 62.14C186.569 60.68 187.469 59.68 188.969 59.68C189.589 59.68 190.149 60 190.449 60.42L192.429 58.34ZM193.157 62.14C193.157 65.24 195.557 67.24 198.557 67.24C201.557 67.24 203.957 65.24 203.957 62.14C203.957 59.04 201.557 57.04 198.557 57.04C195.557 57.04 193.157 59.04 193.157 62.14ZM196.157 62.14C196.157 60.68 197.057 59.68 198.557 59.68C200.057 59.68 200.957 60.68 200.957 62.14C200.957 63.6 200.057 64.6 198.557 64.6C197.057 64.6 196.157 63.6 196.157 62.14ZM205.724 67H208.724V62.16C208.724 60.9 208.964 59.68 210.524 59.68C212.064 59.68 212.084 61.12 212.084 62.24V67H215.084V61.64C215.084 59.04 214.524 57.04 211.484 57.04C210.024 57.04 209.044 57.84 208.644 58.6H208.604V57.28H205.724V67ZM223.828 57.28H221.188V54.4H218.188V57.28H216.268V59.68H218.188V64.3C218.188 66.42 219.728 67.24 221.728 67.24C222.428 67.24 223.168 67.18 223.828 66.94V64.44C223.568 64.68 222.928 64.72 222.608 64.72C221.308 64.72 221.188 63.96 221.188 62.92V59.68H223.828V57.28ZM225.393 67H228.393V57.28H225.393V67ZM225.153 54.22C225.153 55.18 225.933 55.96 226.893 55.96C227.853 55.96 228.633 55.18 228.633 54.22C228.633 53.26 227.853 52.48 226.893 52.48C225.933 52.48 225.153 53.26 225.153 54.22ZM230.548 67H233.548V62.16C233.548 60.9 233.788 59.68 235.348 59.68C236.888 59.68 236.908 61.12 236.908 62.24V67H239.908V61.64C239.908 59.04 239.348 57.04 236.308 57.04C234.848 57.04 233.868 57.84 233.468 58.6H233.428V57.28H230.548V67ZM251.393 57.28H248.393V62.12C248.393 63.38 248.153 64.6 246.593 64.6C245.053 64.6 245.033 63.16 245.033 62.04V57.28H242.033V62.64C242.033 65.24 242.593 67.24 245.633 67.24C247.093 67.24 248.073 66.44 248.473 65.68H248.513V67H251.393V57.28ZM260.617 63.78C260.117 64.46 259.457 64.96 258.477 64.96C257.317 64.96 256.457 64.22 256.217 63.08H263.177V62.14C263.177 59.04 261.417 57.04 258.617 57.04C255.617 57.04 253.217 59.04 253.217 62.14C253.217 65.24 255.617 67.24 258.617 67.24C260.177 67.24 261.757 66.54 262.717 65.32L260.617 63.78ZM256.217 61.04C256.297 60.1 257.017 59.2 258.337 59.2C259.417 59.2 260.197 60.04 260.177 61.04H256.217ZM268.261 62.32H271.261V61.74C271.261 61.3 271.421 60.84 272.041 60.36C273.941 58.86 274.521 57.94 274.521 56.42C274.521 53.84 272.461 52.48 270.021 52.48C267.241 52.48 265.301 54 265.021 56.82L268.101 57.02C268.181 56.04 268.841 55.24 270.081 55.24C270.901 55.24 271.521 55.76 271.521 56.64C271.521 57.56 270.441 58.22 268.961 59.64C268.461 60.12 268.261 60.64 268.261 61.44V62.32ZM267.921 65.28C267.921 66.3 268.741 67.12 269.761 67.12C270.781 67.12 271.601 66.3 271.601 65.28C271.601 64.26 270.781 63.44 269.761 63.44C268.741 63.44 267.921 64.26 267.921 65.28Z" fill="#333333"/>
<path d="M44.512 133.66C43.552 132.412 42.048 131.884 40.512 131.884C37.152 131.884 34.752 134.508 34.752 137.836C34.752 141.276 37.264 143.788 40.512 143.788C42.32 143.788 43.792 143.164 44.8 141.804L43.792 140.956C42.992 141.98 41.888 142.54 40.512 142.54C37.968 142.54 36.192 140.46 36.192 137.836C36.192 135.356 37.984 133.132 40.512 133.132C41.6 133.132 42.672 133.596 43.344 134.508L44.512 133.66ZM47.1376 137.788C47.7296 137.244 48.5616 136.972 49.3616 136.972C50.5296 136.972 51.2176 137.532 51.2176 138.62V138.844H50.7376C48.8976 138.844 46.0176 138.988 46.0176 141.468C46.0176 142.924 47.2816 143.692 48.8016 143.692C49.9376 143.692 50.7696 143.148 51.2656 142.38H51.2976C51.2976 142.7 51.2976 143.164 51.3776 143.5H52.5776C52.5136 143.116 52.4656 142.636 52.4656 142.204V138.988C52.4656 136.876 51.5376 135.82 49.3296 135.82C48.2416 135.82 47.1216 136.188 46.3536 136.972L47.1376 137.788ZM51.2176 139.9V140.38C51.1856 141.596 50.4496 142.636 49.0096 142.636C48.0656 142.636 47.3616 142.284 47.3616 141.34C47.3616 140.332 48.3856 139.9 49.9696 139.9H51.2176ZM54.7465 143.5H55.9945V139.852C55.9945 138.14 56.6985 136.972 58.3145 136.972C59.4825 136.972 60.0265 137.756 60.0265 139.004V143.5H61.2745V138.876C61.2745 137.068 60.3945 135.82 58.4265 135.82C57.1945 135.82 56.2665 136.508 55.9305 137.244H55.8985C55.8985 136.828 55.8665 136.412 55.8665 136.012H54.6825C54.6825 136.508 54.7465 137.1 54.7465 137.788V143.5ZM69.9571 137.004C69.2051 136.188 68.1811 135.82 67.0771 135.82C64.7731 135.82 63.2051 137.484 63.2051 139.756C63.2051 142.06 64.7571 143.692 67.0771 143.692C68.1651 143.692 69.1891 143.324 69.9091 142.492L68.9811 141.612C68.5171 142.252 67.8931 142.54 67.0771 142.54C65.5571 142.54 64.5491 141.292 64.5491 139.756C64.5491 138.22 65.3971 136.972 67.0771 136.972C67.8291 136.972 68.4371 137.244 68.9651 137.884L69.9571 137.004ZM77.0999 141.404C76.5079 142.156 75.7879 142.54 74.7159 142.54C73.3559 142.54 72.3639 141.436 72.2679 140.14H78.3159V139.74C78.3159 137.26 76.8759 135.82 74.7639 135.82C72.5559 135.82 70.9239 137.436 70.9239 139.756C70.9239 141.932 72.3639 143.692 74.7159 143.692C76.1079 143.692 77.1639 143.276 78.0439 142.14L77.0999 141.404ZM72.2679 139.084C72.4279 137.82 73.3399 136.972 74.7159 136.972C76.0919 136.972 76.9239 137.82 76.9719 139.084H72.2679ZM80.3585 143.5H81.6065V131.404H80.3585V143.5Z" fill="#6C3078"/>
<rect x="197.5" y="119.5" width="88" height="35" rx="3.5" fill="#6C3078"/>
<path d="M218.106 141H221.802C224.182 141 227.052 139.432 227.052 136.044C227.052 132.684 224.616 131.088 222.012 131.088H218.106V141ZM219.87 139.404V132.684H221.48C223.636 132.684 225.204 133.636 225.204 136.044C225.204 138.452 223.398 139.404 221.186 139.404H219.87ZM235.043 138.228V137.766C235.043 135.428 233.769 134.112 231.893 134.112C229.863 134.112 228.239 135.526 228.239 137.64C228.239 139.754 229.863 141.168 231.893 141.168C232.957 141.168 233.951 140.79 234.735 139.824L233.531 138.914C233.111 139.432 232.565 139.824 231.725 139.824C230.787 139.824 230.031 139.222 229.919 138.228H235.043ZM229.919 136.968C230.045 136.002 230.661 135.372 231.655 135.372C232.705 135.372 233.349 135.988 233.363 136.968H229.919ZM237.216 141H238.896V135.708H240.45V134.28H238.896V133.062C238.896 132.32 239.036 131.676 239.974 131.676C240.212 131.676 240.436 131.718 240.674 131.774L240.786 130.346C240.436 130.276 240.086 130.248 239.722 130.248C237.636 130.248 237.216 131.466 237.216 133.328V134.28H235.83V135.708H237.216V141ZM245.736 141H247.248V137.136C247.248 136.184 247.248 134.112 244.378 134.112C243.314 134.112 242.264 134.434 241.522 135.19L242.404 136.072C242.852 135.652 243.496 135.372 244.196 135.372C245.092 135.372 245.736 135.806 245.736 136.632V136.814H245.316C243.636 136.814 241.088 136.968 241.088 139.152C241.088 140.482 242.292 141.168 243.538 141.168C244.434 141.168 245.218 140.832 245.694 140.076H245.736V141ZM245.638 138.368C245.638 139.306 245.092 139.908 243.944 139.908C243.398 139.908 242.768 139.642 242.768 139.026C242.768 138.06 244.364 137.99 245.288 137.99H245.638V138.368ZM255.188 134.28H253.508V137.948C253.508 138.844 253.074 139.656 251.968 139.656C250.792 139.656 250.736 138.424 250.736 137.682V134.28H249.056V138.522C249.056 139.894 249.7 141.168 251.506 141.168C252.626 141.168 253.256 140.594 253.564 139.922H253.592V141H255.188V134.28ZM257.123 141H258.803V130.416H257.123V141ZM261.333 135.708V138.788C261.333 140.37 261.753 141.168 263.531 141.168C263.923 141.168 264.511 141.112 264.861 140.944V139.53C264.651 139.684 264.245 139.74 263.951 139.74C263.209 139.74 263.013 139.32 263.013 138.648V135.708H264.861V134.28H263.013V132.334H261.333V134.28H259.947V135.708H261.333Z" fill="white"/>
<rect x="197.5" y="119.5" width="88" height="35" rx="3.5" stroke="#6C3078"/>
</g>
<path d="M327.148 12H328.828V3.768H328.856L331.866 12H333.098L336.108 3.768H336.136V12H337.816V2.088H335.156L332.482 9.032L329.836 2.088H327.148V12ZM340.067 12H343.763C346.143 12 349.013 10.432 349.013 7.044C349.013 3.684 346.577 2.088 343.973 2.088H340.067V12ZM341.831 10.404V3.684H343.441C345.597 3.684 347.165 4.636 347.165 7.044C347.165 9.452 345.359 10.404 343.147 10.404H341.831ZM359.131 1.836L357.969 1.388L353.601 12.252L354.763 12.672L359.131 1.836ZM364.417 12H368.113C370.493 12 373.363 10.432 373.363 7.044C373.363 3.684 370.927 2.088 368.323 2.088H364.417V12ZM366.181 10.404V3.684H367.791C369.947 3.684 371.515 4.636 371.515 7.044C371.515 9.452 369.709 10.404 367.497 10.404H366.181ZM381.354 9.228V8.766C381.354 6.428 380.08 5.112 378.204 5.112C376.174 5.112 374.55 6.526 374.55 8.64C374.55 10.754 376.174 12.168 378.204 12.168C379.268 12.168 380.262 11.79 381.046 10.824L379.842 9.914C379.422 10.432 378.876 10.824 378.036 10.824C377.098 10.824 376.342 10.222 376.23 9.228H381.354ZM376.23 7.968C376.356 7.002 376.972 6.372 377.966 6.372C379.016 6.372 379.66 6.988 379.674 7.968H376.23ZM383.527 12H385.207V6.708H386.761V5.28H385.207V4.062C385.207 3.32 385.347 2.676 386.285 2.676C386.523 2.676 386.747 2.718 386.985 2.774L387.097 1.346C386.747 1.276 386.397 1.248 386.033 1.248C383.947 1.248 383.527 2.466 383.527 4.328V5.28H382.141V6.708H383.527V12ZM392.047 12H393.559V8.136C393.559 7.184 393.559 5.112 390.689 5.112C389.625 5.112 388.575 5.434 387.833 6.19L388.715 7.072C389.163 6.652 389.807 6.372 390.507 6.372C391.403 6.372 392.047 6.806 392.047 7.632V7.814H391.627C389.947 7.814 387.399 7.968 387.399 10.152C387.399 11.482 388.603 12.168 389.849 12.168C390.745 12.168 391.529 11.832 392.005 11.076H392.047V12ZM391.949 9.368C391.949 10.306 391.403 10.908 390.255 10.908C389.709 10.908 389.079 10.642 389.079 10.026C389.079 9.06 390.675 8.99 391.599 8.99H391.949V9.368ZM401.498 5.28H399.818V8.948C399.818 9.844 399.384 10.656 398.278 10.656C397.102 10.656 397.046 9.424 397.046 8.682V5.28H395.366V9.522C395.366 10.894 396.01 12.168 397.816 12.168C398.936 12.168 399.566 11.594 399.874 10.922H399.902V12H401.498V5.28ZM403.433 12H405.113V1.416H403.433V12ZM407.644 6.708V9.788C407.644 11.37 408.064 12.168 409.842 12.168C410.234 12.168 410.822 12.112 411.172 11.944V10.53C410.962 10.684 410.556 10.74 410.262 10.74C409.52 10.74 409.324 10.32 409.324 9.648V6.708H411.172V5.28H409.324V3.334H407.644V5.28H406.258V6.708H407.644Z" fill="black"/>
<g filter="url(#filter1_dd_69_16325)">
<rect x="326" y="33" width="500" height="138" rx="12" fill="white" shape-rendering="crispEdges"/>
<path d="M351.44 67H356.54C360.76 67 364.5 64.54 364.5 59.96C364.5 54.78 360.68 52.84 356.12 52.84H351.44V67ZM354.56 55.72H356.4C359.04 55.72 361.26 57.02 361.26 59.8C361.26 63.02 359.08 64.12 356.18 64.12H354.56V55.72ZM365.876 62.14C365.876 65.24 368.276 67.24 371.276 67.24C374.276 67.24 376.676 65.24 376.676 62.14C376.676 59.04 374.276 57.04 371.276 57.04C368.276 57.04 365.876 59.04 365.876 62.14ZM368.876 62.14C368.876 60.68 369.776 59.68 371.276 59.68C372.776 59.68 373.676 60.68 373.676 62.14C373.676 63.6 372.776 64.6 371.276 64.6C369.776 64.6 368.876 63.6 368.876 62.14ZM394.361 57.28H391.281L389.141 63.7H389.101L386.601 57.28H383.361L387.621 67.08L387.401 67.64C386.981 68.7 386.761 69.28 385.401 69.28C384.901 69.28 384.461 69.18 384.001 68.98L383.601 71.44C384.321 71.68 385.081 71.8 385.841 71.8C388.701 71.8 389.161 70.64 389.961 68.58L394.361 57.28ZM395.114 62.14C395.114 65.24 397.514 67.24 400.514 67.24C403.514 67.24 405.914 65.24 405.914 62.14C405.914 59.04 403.514 57.04 400.514 57.04C397.514 57.04 395.114 59.04 395.114 62.14ZM398.114 62.14C398.114 60.68 399.014 59.68 400.514 59.68C402.014 59.68 402.914 60.68 402.914 62.14C402.914 63.6 402.014 64.6 400.514 64.6C399.014 64.6 398.114 63.6 398.114 62.14ZM417.041 57.28H414.041V62.12C414.041 63.38 413.801 64.6 412.241 64.6C410.701 64.6 410.681 63.16 410.681 62.04V57.28H407.681V62.64C407.681 65.24 408.241 67.24 411.281 67.24C412.741 67.24 413.721 66.44 414.121 65.68H414.161V67H417.041V57.28ZM427.483 67H430.503L432.303 60.54H432.343L434.363 67H437.323L440.783 57.28H437.743L435.923 63.38H435.883L434.083 57.28H430.803L429.143 63.38H429.103L427.123 57.28H423.923L427.483 67ZM441.784 67H444.784V57.28H441.784V67ZM441.544 54.22C441.544 55.18 442.324 55.96 443.284 55.96C444.244 55.96 445.024 55.18 445.024 54.22C445.024 53.26 444.244 52.48 443.284 52.48C442.324 52.48 441.544 53.26 441.544 54.22ZM454.279 58.32C453.379 57.36 451.959 57.04 450.679 57.04C448.639 57.04 446.599 58.04 446.599 60.32C446.599 64.02 451.659 62.7 451.659 64.26C451.659 64.78 450.979 64.96 450.299 64.96C449.399 64.96 448.739 64.58 448.179 63.9L446.359 65.92C447.319 66.9 448.819 67.24 450.179 67.24C452.259 67.24 454.659 66.52 454.659 64.04C454.659 60.34 449.599 61.56 449.599 60.12C449.599 59.54 450.199 59.32 450.699 59.32C451.419 59.32 451.999 59.6 452.439 60.14L454.279 58.32ZM456.197 51.88V67H459.197V62.16C459.197 60.9 459.437 59.68 460.997 59.68C462.537 59.68 462.557 61.12 462.557 62.24V67H465.557V61.64C465.557 59.04 464.997 57.04 461.957 57.04C460.497 57.04 459.517 57.84 459.237 58.6H459.197V51.88H456.197ZM480.219 57.28H477.579V54.4H474.579V57.28H472.659V59.68H474.579V64.3C474.579 66.42 476.119 67.24 478.119 67.24C478.819 67.24 479.559 67.18 480.219 66.94V64.44C479.959 64.68 479.319 64.72 478.999 64.72C477.699 64.72 477.579 63.96 477.579 62.92V59.68H480.219V57.28ZM481.384 62.14C481.384 65.24 483.784 67.24 486.784 67.24C489.784 67.24 492.184 65.24 492.184 62.14C492.184 59.04 489.784 57.04 486.784 57.04C483.784 57.04 481.384 59.04 481.384 62.14ZM484.384 62.14C484.384 60.68 485.284 59.68 486.784 59.68C488.284 59.68 489.184 60.68 489.184 62.14C489.184 63.6 488.284 64.6 486.784 64.6C485.284 64.6 484.384 63.6 484.384 62.14ZM508.429 58.34C507.489 57.38 506.109 57.04 504.969 57.04C501.969 57.04 499.569 59.04 499.569 62.14C499.569 65.24 501.969 67.24 504.969 67.24C506.109 67.24 507.489 66.9 508.429 65.94L506.449 63.86C506.109 64.26 505.629 64.6 504.969 64.6C503.469 64.6 502.569 63.6 502.569 62.14C502.569 60.68 503.469 59.68 504.969 59.68C505.589 59.68 506.149 60 506.449 60.42L508.429 58.34ZM509.157 62.14C509.157 65.24 511.557 67.24 514.557 67.24C517.557 67.24 519.957 65.24 519.957 62.14C519.957 59.04 517.557 57.04 514.557 57.04C511.557 57.04 509.157 59.04 509.157 62.14ZM512.157 62.14C512.157 60.68 513.057 59.68 514.557 59.68C516.057 59.68 516.957 60.68 516.957 62.14C516.957 63.6 516.057 64.6 514.557 64.6C513.057 64.6 512.157 63.6 512.157 62.14ZM521.724 67H524.724V62.16C524.724 60.9 524.964 59.68 526.524 59.68C528.064 59.68 528.084 61.12 528.084 62.24V67H531.084V61.64C531.084 59.04 530.524 57.04 527.484 57.04C526.024 57.04 525.044 57.84 524.644 58.6H524.604V57.28H521.724V67ZM539.828 57.28H537.188V54.4H534.188V57.28H532.268V59.68H534.188V64.3C534.188 66.42 535.728 67.24 537.728 67.24C538.428 67.24 539.168 67.18 539.828 66.94V64.44C539.568 64.68 538.928 64.72 538.608 64.72C537.308 64.72 537.188 63.96 537.188 62.92V59.68H539.828V57.28ZM541.393 67H544.393V57.28H541.393V67ZM541.153 54.22C541.153 55.18 541.933 55.96 542.893 55.96C543.853 55.96 544.633 55.18 544.633 54.22C544.633 53.26 543.853 52.48 542.893 52.48C541.933 52.48 541.153 53.26 541.153 54.22ZM546.548 67H549.548V62.16C549.548 60.9 549.788 59.68 551.348 59.68C552.888 59.68 552.908 61.12 552.908 62.24V67H555.908V61.64C555.908 59.04 555.348 57.04 552.308 57.04C550.848 57.04 549.868 57.84 549.468 58.6H549.428V57.28H546.548V67ZM567.393 57.28H564.393V62.12C564.393 63.38 564.153 64.6 562.593 64.6C561.053 64.6 561.033 63.16 561.033 62.04V57.28H558.033V62.64C558.033 65.24 558.593 67.24 561.633 67.24C563.093 67.24 564.073 66.44 564.473 65.68H564.513V67H567.393V57.28ZM576.617 63.78C576.117 64.46 575.457 64.96 574.477 64.96C573.317 64.96 572.457 64.22 572.217 63.08H579.177V62.14C579.177 59.04 577.417 57.04 574.617 57.04C571.617 57.04 569.217 59.04 569.217 62.14C569.217 65.24 571.617 67.24 574.617 67.24C576.177 67.24 577.757 66.54 578.717 65.32L576.617 63.78ZM572.217 61.04C572.297 60.1 573.017 59.2 574.337 59.2C575.417 59.2 576.197 60.04 576.177 61.04H572.217ZM584.261 62.32H587.261V61.74C587.261 61.3 587.421 60.84 588.041 60.36C589.941 58.86 590.521 57.94 590.521 56.42C590.521 53.84 588.461 52.48 586.021 52.48C583.241 52.48 581.301 54 581.021 56.82L584.101 57.02C584.181 56.04 584.841 55.24 586.081 55.24C586.901 55.24 587.521 55.76 587.521 56.64C587.521 57.56 586.441 58.22 584.961 59.64C584.461 60.12 584.261 60.64 584.261 61.44V62.32ZM583.921 65.28C583.921 66.3 584.741 67.12 585.761 67.12C586.781 67.12 587.601 66.3 587.601 65.28C587.601 64.26 586.781 63.44 585.761 63.44C584.741 63.44 583.921 64.26 583.921 65.28Z" fill="#333333"/>
<path d="M360.512 133.66C359.552 132.412 358.048 131.884 356.512 131.884C353.152 131.884 350.752 134.508 350.752 137.836C350.752 141.276 353.264 143.788 356.512 143.788C358.32 143.788 359.792 143.164 360.8 141.804L359.792 140.956C358.992 141.98 357.888 142.54 356.512 142.54C353.968 142.54 352.192 140.46 352.192 137.836C352.192 135.356 353.984 133.132 356.512 133.132C357.6 133.132 358.672 133.596 359.344 134.508L360.512 133.66ZM363.138 137.788C363.73 137.244 364.562 136.972 365.362 136.972C366.53 136.972 367.218 137.532 367.218 138.62V138.844H366.738C364.898 138.844 362.018 138.988 362.018 141.468C362.018 142.924 363.282 143.692 364.802 143.692C365.938 143.692 366.77 143.148 367.266 142.38H367.298C367.298 142.7 367.298 143.164 367.378 143.5H368.578C368.514 143.116 368.466 142.636 368.466 142.204V138.988C368.466 136.876 367.538 135.82 365.33 135.82C364.242 135.82 363.122 136.188 362.354 136.972L363.138 137.788ZM367.218 139.9V140.38C367.186 141.596 366.45 142.636 365.01 142.636C364.066 142.636 363.362 142.284 363.362 141.34C363.362 140.332 364.386 139.9 365.97 139.9H367.218ZM370.747 143.5H371.995V139.852C371.995 138.14 372.699 136.972 374.315 136.972C375.483 136.972 376.027 137.756 376.027 139.004V143.5H377.275V138.876C377.275 137.068 376.395 135.82 374.427 135.82C373.195 135.82 372.267 136.508 371.931 137.244H371.899C371.899 136.828 371.867 136.412 371.867 136.012H370.683C370.683 136.508 370.747 137.1 370.747 137.788V143.5ZM385.957 137.004C385.205 136.188 384.181 135.82 383.077 135.82C380.773 135.82 379.205 137.484 379.205 139.756C379.205 142.06 380.757 143.692 383.077 143.692C384.165 143.692 385.189 143.324 385.909 142.492L384.981 141.612C384.517 142.252 383.893 142.54 383.077 142.54C381.557 142.54 380.549 141.292 380.549 139.756C380.549 138.22 381.397 136.972 383.077 136.972C383.829 136.972 384.437 137.244 384.965 137.884L385.957 137.004ZM393.1 141.404C392.508 142.156 391.788 142.54 390.716 142.54C389.356 142.54 388.364 141.436 388.268 140.14H394.316V139.74C394.316 137.26 392.876 135.82 390.764 135.82C388.556 135.82 386.924 137.436 386.924 139.756C386.924 141.932 388.364 143.692 390.716 143.692C392.108 143.692 393.164 143.276 394.044 142.14L393.1 141.404ZM388.268 139.084C388.428 137.82 389.34 136.972 390.716 136.972C392.092 136.972 392.924 137.82 392.972 139.084H388.268ZM396.359 143.5H397.607V131.404H396.359V143.5Z" fill="#6C3078"/>
<rect x="713.5" y="119.5" width="88" height="35" rx="3.5" fill="#6C3078"/>
<path d="M734.106 141H737.802C740.182 141 743.052 139.432 743.052 136.044C743.052 132.684 740.616 131.088 738.012 131.088H734.106V141ZM735.87 139.404V132.684H737.48C739.636 132.684 741.204 133.636 741.204 136.044C741.204 138.452 739.398 139.404 737.186 139.404H735.87ZM751.043 138.228V137.766C751.043 135.428 749.769 134.112 747.893 134.112C745.863 134.112 744.239 135.526 744.239 137.64C744.239 139.754 745.863 141.168 747.893 141.168C748.957 141.168 749.951 140.79 750.735 139.824L749.531 138.914C749.111 139.432 748.565 139.824 747.725 139.824C746.787 139.824 746.031 139.222 745.919 138.228H751.043ZM745.919 136.968C746.045 136.002 746.661 135.372 747.655 135.372C748.705 135.372 749.349 135.988 749.363 136.968H745.919ZM753.216 141H754.896V135.708H756.45V134.28H754.896V133.062C754.896 132.32 755.036 131.676 755.974 131.676C756.212 131.676 756.436 131.718 756.674 131.774L756.786 130.346C756.436 130.276 756.086 130.248 755.722 130.248C753.636 130.248 753.216 131.466 753.216 133.328V134.28H751.83V135.708H753.216V141ZM761.736 141H763.248V137.136C763.248 136.184 763.248 134.112 760.378 134.112C759.314 134.112 758.264 134.434 757.522 135.19L758.404 136.072C758.852 135.652 759.496 135.372 760.196 135.372C761.092 135.372 761.736 135.806 761.736 136.632V136.814H761.316C759.636 136.814 757.088 136.968 757.088 139.152C757.088 140.482 758.292 141.168 759.538 141.168C760.434 141.168 761.218 140.832 761.694 140.076H761.736V141ZM761.638 138.368C761.638 139.306 761.092 139.908 759.944 139.908C759.398 139.908 758.768 139.642 758.768 139.026C758.768 138.06 760.364 137.99 761.288 137.99H761.638V138.368ZM771.188 134.28H769.508V137.948C769.508 138.844 769.074 139.656 767.968 139.656C766.792 139.656 766.736 138.424 766.736 137.682V134.28H765.056V138.522C765.056 139.894 765.7 141.168 767.506 141.168C768.626 141.168 769.256 140.594 769.564 139.922H769.592V141H771.188V134.28ZM773.123 141H774.803V130.416H773.123V141ZM777.333 135.708V138.788C777.333 140.37 777.753 141.168 779.531 141.168C779.923 141.168 780.511 141.112 780.861 140.944V139.53C780.651 139.684 780.245 139.74 779.951 139.74C779.209 139.74 779.013 139.32 779.013 138.648V135.708H780.861V134.28H779.013V132.334H777.333V134.28H775.947V135.708H777.333Z" fill="white"/>
<rect x="713.5" y="119.5" width="88" height="35" rx="3.5" stroke="#6C3078"/>
</g>
<path d="M17.252 189.858C16.482 189.13 15.446 188.836 14.41 188.836C12.576 188.836 10.756 189.788 10.756 191.832C10.756 195.374 15.46 194.128 15.46 196.298C15.46 197.208 14.536 197.656 13.724 197.656C12.94 197.656 12.198 197.278 11.764 196.62L10.434 197.908C11.246 198.874 12.45 199.252 13.682 199.252C15.628 199.252 17.308 198.216 17.308 196.088C17.308 192.56 12.604 193.694 12.604 191.706C12.604 190.796 13.416 190.432 14.228 190.432C14.914 190.432 15.586 190.684 15.964 191.216L17.252 189.858ZM19.1871 199H20.8671V190.768H20.8951L23.9051 199H25.1371L28.1471 190.768H28.1751V199H29.8551V189.088H27.1951L24.5211 196.032L21.8751 189.088H19.1871V199ZM40.5466 188.836L39.3846 188.388L35.0166 199.252L36.1786 199.672L40.5466 188.836ZM45.8326 199H49.5286C51.9086 199 54.7786 197.432 54.7786 194.044C54.7786 190.684 52.3426 189.088 49.7386 189.088H45.8326V199ZM47.5966 197.404V190.684H49.2066C51.3626 190.684 52.9306 191.636 52.9306 194.044C52.9306 196.452 51.1246 197.404 48.9126 197.404H47.5966ZM60.5016 199H62.0136V195.136C62.0136 194.184 62.0136 192.112 59.1436 192.112C58.0796 192.112 57.0296 192.434 56.2876 193.19L57.1696 194.072C57.6176 193.652 58.2616 193.372 58.9616 193.372C59.8576 193.372 60.5016 193.806 60.5016 194.632V194.814H60.0816C58.4016 194.814 55.8536 194.968 55.8536 197.152C55.8536 198.482 57.0576 199.168 58.3036 199.168C59.1996 199.168 59.9836 198.832 60.4596 198.076H60.5016V199ZM60.4036 196.368C60.4036 197.306 59.8576 197.908 58.7096 197.908C58.1636 197.908 57.5336 197.642 57.5336 197.026C57.5336 196.06 59.1296 195.99 60.0536 195.99H60.4036V196.368ZM63.8211 199H65.5011V195.332C65.5011 194.436 65.9351 193.624 67.0411 193.624C68.2171 193.624 68.2731 194.856 68.2731 195.598V199H69.9531V194.758C69.9531 193.386 69.3091 192.112 67.5031 192.112C66.3831 192.112 65.7531 192.686 65.4451 193.358H65.4171V192.28H63.8211V199ZM77.1802 192.28V193.288H77.1522C76.6622 192.476 75.7802 192.112 74.8422 192.112C72.7702 192.112 71.5242 193.652 71.5242 195.64C71.5242 197.544 72.8542 199.084 74.8702 199.084C75.7102 199.084 76.5782 198.762 77.0682 198.104H77.0962V198.594C77.0962 199.924 76.5922 200.848 74.9682 200.848C74.0302 200.848 73.3302 200.498 72.6582 199.882L71.6502 201.254C72.6022 202.094 73.7362 202.36 74.9822 202.36C77.6002 202.36 78.7762 200.82 78.7762 198.398V192.28H77.1802ZM75.1922 193.624C76.4102 193.624 77.1802 194.436 77.1802 195.598C77.1802 196.718 76.4242 197.572 75.1782 197.572C74.0442 197.572 73.2042 196.69 73.2042 195.626C73.2042 194.436 74.0162 193.624 75.1922 193.624ZM87.1466 196.228V195.766C87.1466 193.428 85.8726 192.112 83.9966 192.112C81.9666 192.112 80.3426 193.526 80.3426 195.64C80.3426 197.754 81.9666 199.168 83.9966 199.168C85.0606 199.168 86.0546 198.79 86.8386 197.824L85.6346 196.914C85.2146 197.432 84.6686 197.824 83.8286 197.824C82.8906 197.824 82.1346 197.222 82.0226 196.228H87.1466ZM82.0226 194.968C82.1486 194.002 82.7646 193.372 83.7586 193.372C84.8086 193.372 85.4526 193.988 85.4666 194.968H82.0226ZM88.7176 199H90.3976V195.402C90.3976 195.038 90.6216 193.708 92.2036 193.708C92.4696 193.708 92.7356 193.764 93.0156 193.834V192.21C92.8196 192.154 92.6236 192.112 92.4136 192.112C91.5316 192.112 90.7896 192.574 90.4256 193.344H90.3976V192.28H88.7176V199Z" fill="black"/>
<g filter="url(#filter2_dd_69_16325)">
<rect x="10" y="220" width="300" height="138" rx="12" fill="white" shape-rendering="crispEdges"/>
<path d="M35.44 254H40.54C44.76 254 48.5 251.54 48.5 246.96C48.5 241.78 44.68 239.84 40.12 239.84H35.44V254ZM38.56 242.72H40.4C43.04 242.72 45.26 244.02 45.26 246.8C45.26 250.02 43.08 251.12 40.18 251.12H38.56V242.72ZM49.8758 249.14C49.8758 252.24 52.2758 254.24 55.2758 254.24C58.2758 254.24 60.6758 252.24 60.6758 249.14C60.6758 246.04 58.2758 244.04 55.2758 244.04C52.2758 244.04 49.8758 246.04 49.8758 249.14ZM52.8758 249.14C52.8758 247.68 53.7758 246.68 55.2758 246.68C56.7758 246.68 57.6758 247.68 57.6758 249.14C57.6758 250.6 56.7758 251.6 55.2758 251.6C53.7758 251.6 52.8758 250.6 52.8758 249.14ZM78.3608 244.28H75.2808L73.1408 250.7H73.1008L70.6008 244.28H67.3608L71.6208 254.08L71.4008 254.64C70.9808 255.7 70.7608 256.28 69.4008 256.28C68.9008 256.28 68.4608 256.18 68.0008 255.98L67.6008 258.44C68.3208 258.68 69.0808 258.8 69.8408 258.8C72.7008 258.8 73.1608 257.64 73.9608 255.58L78.3608 244.28ZM79.1141 249.14C79.1141 252.24 81.5141 254.24 84.5141 254.24C87.5141 254.24 89.9141 252.24 89.9141 249.14C89.9141 246.04 87.5141 244.04 84.5141 244.04C81.5141 244.04 79.1141 246.04 79.1141 249.14ZM82.1141 249.14C82.1141 247.68 83.0141 246.68 84.5141 246.68C86.0141 246.68 86.9141 247.68 86.9141 249.14C86.9141 250.6 86.0141 251.6 84.5141 251.6C83.0141 251.6 82.1141 250.6 82.1141 249.14ZM101.041 244.28H98.0411V249.12C98.0411 250.38 97.8011 251.6 96.2411 251.6C94.7011 251.6 94.6811 250.16 94.6811 249.04V244.28H91.6811V249.64C91.6811 252.24 92.2411 254.24 95.2811 254.24C96.7411 254.24 97.7211 253.44 98.1211 252.68H98.1611V254H101.041V244.28ZM111.483 254H114.503L116.303 247.54H116.343L118.363 254H121.323L124.783 244.28H121.743L119.923 250.38H119.883L118.083 244.28H114.803L113.143 250.38H113.103L111.123 244.28H107.923L111.483 254ZM125.784 254H128.784V244.28H125.784V254ZM125.544 241.22C125.544 242.18 126.324 242.96 127.284 242.96C128.244 242.96 129.024 242.18 129.024 241.22C129.024 240.26 128.244 239.48 127.284 239.48C126.324 239.48 125.544 240.26 125.544 241.22ZM138.279 245.32C137.379 244.36 135.959 244.04 134.679 244.04C132.639 244.04 130.599 245.04 130.599 247.32C130.599 251.02 135.659 249.7 135.659 251.26C135.659 251.78 134.979 251.96 134.299 251.96C133.399 251.96 132.739 251.58 132.179 250.9L130.359 252.92C131.319 253.9 132.819 254.24 134.179 254.24C136.259 254.24 138.659 253.52 138.659 251.04C138.659 247.34 133.599 248.56 133.599 247.12C133.599 246.54 134.199 246.32 134.699 246.32C135.419 246.32 135.999 246.6 136.439 247.14L138.279 245.32ZM140.197 238.88V254H143.197V249.16C143.197 247.9 143.437 246.68 144.997 246.68C146.537 246.68 146.557 248.12 146.557 249.24V254H149.557V248.64C149.557 246.04 148.997 244.04 145.957 244.04C144.497 244.04 143.517 244.84 143.237 245.6H143.197V238.88H140.197ZM164.219 244.28H161.579V241.4H158.579V244.28H156.659V246.68H158.579V251.3C158.579 253.42 160.119 254.24 162.119 254.24C162.819 254.24 163.559 254.18 164.219 253.94V251.44C163.959 251.68 163.319 251.72 162.999 251.72C161.699 251.72 161.579 250.96 161.579 249.92V246.68H164.219V244.28ZM165.384 249.14C165.384 252.24 167.784 254.24 170.784 254.24C173.784 254.24 176.184 252.24 176.184 249.14C176.184 246.04 173.784 244.04 170.784 244.04C167.784 244.04 165.384 246.04 165.384 249.14ZM168.384 249.14C168.384 247.68 169.284 246.68 170.784 246.68C172.284 246.68 173.184 247.68 173.184 249.14C173.184 250.6 172.284 251.6 170.784 251.6C169.284 251.6 168.384 250.6 168.384 249.14ZM192.429 245.34C191.489 244.38 190.109 244.04 188.969 244.04C185.969 244.04 183.569 246.04 183.569 249.14C183.569 252.24 185.969 254.24 188.969 254.24C190.109 254.24 191.489 253.9 192.429 252.94L190.449 250.86C190.109 251.26 189.629 251.6 188.969 251.6C187.469 251.6 186.569 250.6 186.569 249.14C186.569 247.68 187.469 246.68 188.969 246.68C189.589 246.68 190.149 247 190.449 247.42L192.429 245.34ZM193.157 249.14C193.157 252.24 195.557 254.24 198.557 254.24C201.557 254.24 203.957 252.24 203.957 249.14C203.957 246.04 201.557 244.04 198.557 244.04C195.557 244.04 193.157 246.04 193.157 249.14ZM196.157 249.14C196.157 247.68 197.057 246.68 198.557 246.68C200.057 246.68 200.957 247.68 200.957 249.14C200.957 250.6 200.057 251.6 198.557 251.6C197.057 251.6 196.157 250.6 196.157 249.14ZM205.724 254H208.724V249.16C208.724 247.9 208.964 246.68 210.524 246.68C212.064 246.68 212.084 248.12 212.084 249.24V254H215.084V248.64C215.084 246.04 214.524 244.04 211.484 244.04C210.024 244.04 209.044 244.84 208.644 245.6H208.604V244.28H205.724V254ZM223.828 244.28H221.188V241.4H218.188V244.28H216.268V246.68H218.188V251.3C218.188 253.42 219.728 254.24 221.728 254.24C222.428 254.24 223.168 254.18 223.828 253.94V251.44C223.568 251.68 222.928 251.72 222.608 251.72C221.308 251.72 221.188 250.96 221.188 249.92V246.68H223.828V244.28ZM225.393 254H228.393V244.28H225.393V254ZM225.153 241.22C225.153 242.18 225.933 242.96 226.893 242.96C227.853 242.96 228.633 242.18 228.633 241.22C228.633 240.26 227.853 239.48 226.893 239.48C225.933 239.48 225.153 240.26 225.153 241.22ZM230.548 254H233.548V249.16C233.548 247.9 233.788 246.68 235.348 246.68C236.888 246.68 236.908 248.12 236.908 249.24V254H239.908V248.64C239.908 246.04 239.348 244.04 236.308 244.04C234.848 244.04 233.868 244.84 233.468 245.6H233.428V244.28H230.548V254ZM251.393 244.28H248.393V249.12C248.393 250.38 248.153 251.6 246.593 251.6C245.053 251.6 245.033 250.16 245.033 249.04V244.28H242.033V249.64C242.033 252.24 242.593 254.24 245.633 254.24C247.093 254.24 248.073 253.44 248.473 252.68H248.513V254H251.393V244.28ZM260.617 250.78C260.117 251.46 259.457 251.96 258.477 251.96C257.317 251.96 256.457 251.22 256.217 250.08H263.177V249.14C263.177 246.04 261.417 244.04 258.617 244.04C255.617 244.04 253.217 246.04 253.217 249.14C253.217 252.24 255.617 254.24 258.617 254.24C260.177 254.24 261.757 253.54 262.717 252.32L260.617 250.78ZM256.217 248.04C256.297 247.1 257.017 246.2 258.337 246.2C259.417 246.2 260.197 247.04 260.177 248.04H256.217ZM268.261 249.32H271.261V248.74C271.261 248.3 271.421 247.84 272.041 247.36C273.941 245.86 274.521 244.94 274.521 243.42C274.521 240.84 272.461 239.48 270.021 239.48C267.241 239.48 265.301 241 265.021 243.82L268.101 244.02C268.181 243.04 268.841 242.24 270.081 242.24C270.901 242.24 271.521 242.76 271.521 243.64C271.521 244.56 270.441 245.22 268.961 246.64C268.461 247.12 268.261 247.64 268.261 248.44V249.32ZM267.921 252.28C267.921 253.3 268.741 254.12 269.761 254.12C270.781 254.12 271.601 253.3 271.601 252.28C271.601 251.26 270.781 250.44 269.761 250.44C268.741 250.44 267.921 251.26 267.921 252.28Z" fill="#DB3259"/>
<path d="M44.512 320.66C43.552 319.412 42.048 318.884 40.512 318.884C37.152 318.884 34.752 321.508 34.752 324.836C34.752 328.276 37.264 330.788 40.512 330.788C42.32 330.788 43.792 330.164 44.8 328.804L43.792 327.956C42.992 328.98 41.888 329.54 40.512 329.54C37.968 329.54 36.192 327.46 36.192 324.836C36.192 322.356 37.984 320.132 40.512 320.132C41.6 320.132 42.672 320.596 43.344 321.508L44.512 320.66ZM47.1376 324.788C47.7296 324.244 48.5616 323.972 49.3616 323.972C50.5296 323.972 51.2176 324.532 51.2176 325.62V325.844H50.7376C48.8976 325.844 46.0176 325.988 46.0176 328.468C46.0176 329.924 47.2816 330.692 48.8016 330.692C49.9376 330.692 50.7696 330.148 51.2656 329.38H51.2976C51.2976 329.7 51.2976 330.164 51.3776 330.5H52.5776C52.5136 330.116 52.4656 329.636 52.4656 329.204V325.988C52.4656 323.876 51.5376 322.82 49.3296 322.82C48.2416 322.82 47.1216 323.188 46.3536 323.972L47.1376 324.788ZM51.2176 326.9V327.38C51.1856 328.596 50.4496 329.636 49.0096 329.636C48.0656 329.636 47.3616 329.284 47.3616 328.34C47.3616 327.332 48.3856 326.9 49.9696 326.9H51.2176ZM54.7465 330.5H55.9945V326.852C55.9945 325.14 56.6985 323.972 58.3145 323.972C59.4825 323.972 60.0265 324.756 60.0265 326.004V330.5H61.2745V325.876C61.2745 324.068 60.3945 322.82 58.4265 322.82C57.1945 322.82 56.2665 323.508 55.9305 324.244H55.8985C55.8985 323.828 55.8665 323.412 55.8665 323.012H54.6825C54.6825 323.508 54.7465 324.1 54.7465 324.788V330.5ZM69.9571 324.004C69.2051 323.188 68.1811 322.82 67.0771 322.82C64.7731 322.82 63.2051 324.484 63.2051 326.756C63.2051 329.06 64.7571 330.692 67.0771 330.692C68.1651 330.692 69.1891 330.324 69.9091 329.492L68.9811 328.612C68.5171 329.252 67.8931 329.54 67.0771 329.54C65.5571 329.54 64.5491 328.292 64.5491 326.756C64.5491 325.22 65.3971 323.972 67.0771 323.972C67.8291 323.972 68.4371 324.244 68.9651 324.884L69.9571 324.004ZM77.0999 328.404C76.5079 329.156 75.7879 329.54 74.7159 329.54C73.3559 329.54 72.3639 328.436 72.2679 327.14H78.3159V326.74C78.3159 324.26 76.8759 322.82 74.7639 322.82C72.5559 322.82 70.9239 324.436 70.9239 326.756C70.9239 328.932 72.3639 330.692 74.7159 330.692C76.1079 330.692 77.1639 330.276 78.0439 329.14L77.0999 328.404ZM72.2679 326.084C72.4279 324.82 73.3399 323.972 74.7159 323.972C76.0919 323.972 76.9239 324.82 76.9719 326.084H72.2679ZM80.3585 330.5H81.6065V318.404H80.3585V330.5Z" fill="#6C3078"/>
<rect x="197.5" y="306.5" width="88" height="35" rx="3.5" fill="#DB3259"/>
<path d="M218.106 328H221.802C224.182 328 227.052 326.432 227.052 323.044C227.052 319.684 224.616 318.088 222.012 318.088H218.106V328ZM219.87 326.404V319.684H221.48C223.636 319.684 225.204 320.636 225.204 323.044C225.204 325.452 223.398 326.404 221.186 326.404H219.87ZM232.775 328H234.287V324.136C234.287 323.184 234.287 321.112 231.417 321.112C230.353 321.112 229.303 321.434 228.561 322.19L229.443 323.072C229.891 322.652 230.535 322.372 231.235 322.372C232.131 322.372 232.775 322.806 232.775 323.632V323.814H232.355C230.675 323.814 228.127 323.968 228.127 326.152C228.127 327.482 229.331 328.168 230.577 328.168C231.473 328.168 232.257 327.832 232.733 327.076H232.775V328ZM232.677 325.368C232.677 326.306 232.131 326.908 230.983 326.908C230.437 326.908 229.807 326.642 229.807 326.026C229.807 325.06 231.403 324.99 232.327 324.99H232.677V325.368ZM236.095 328H237.775V324.332C237.775 323.436 238.209 322.624 239.315 322.624C240.491 322.624 240.547 323.856 240.547 324.598V328H242.227V323.758C242.227 322.386 241.583 321.112 239.777 321.112C238.657 321.112 238.027 321.686 237.719 322.358H237.691V321.28H236.095V328ZM249.454 321.28V322.288H249.426C248.936 321.476 248.054 321.112 247.116 321.112C245.044 321.112 243.798 322.652 243.798 324.64C243.798 326.544 245.128 328.084 247.144 328.084C247.984 328.084 248.852 327.762 249.342 327.104H249.37V327.594C249.37 328.924 248.866 329.848 247.242 329.848C246.304 329.848 245.604 329.498 244.932 328.882L243.924 330.254C244.876 331.094 246.01 331.36 247.256 331.36C249.874 331.36 251.05 329.82 251.05 327.398V321.28H249.454ZM247.466 322.624C248.684 322.624 249.454 323.436 249.454 324.598C249.454 325.718 248.698 326.572 247.452 326.572C246.318 326.572 245.478 325.69 245.478 324.626C245.478 323.436 246.29 322.624 247.466 322.624ZM259.42 325.228V324.766C259.42 322.428 258.146 321.112 256.27 321.112C254.24 321.112 252.616 322.526 252.616 324.64C252.616 326.754 254.24 328.168 256.27 328.168C257.334 328.168 258.328 327.79 259.112 326.824L257.908 325.914C257.488 326.432 256.942 326.824 256.102 326.824C255.164 326.824 254.408 326.222 254.296 325.228H259.42ZM254.296 323.968C254.422 323.002 255.038 322.372 256.032 322.372C257.082 322.372 257.726 322.988 257.74 323.968H254.296ZM260.991 328H262.671V324.402C262.671 324.038 262.895 322.708 264.477 322.708C264.743 322.708 265.009 322.764 265.289 322.834V321.21C265.093 321.154 264.897 321.112 264.687 321.112C263.805 321.112 263.063 321.574 262.699 322.344H262.671V321.28H260.991V328Z" fill="white"/>
<rect x="197.5" y="306.5" width="88" height="35" rx="3.5" stroke="#DB3259"/>
</g>
<path d="M327.148 199H328.828V190.768H328.856L331.866 199H333.098L336.108 190.768H336.136V199H337.816V189.088H335.156L332.482 196.032L329.836 189.088H327.148V199ZM340.067 199H343.763C346.143 199 349.013 197.432 349.013 194.044C349.013 190.684 346.577 189.088 343.973 189.088H340.067V199ZM341.831 197.404V190.684H343.441C345.597 190.684 347.165 191.636 347.165 194.044C347.165 196.452 345.359 197.404 343.147 197.404H341.831ZM359.131 188.836L357.969 188.388L353.601 199.252L354.763 199.672L359.131 188.836ZM364.417 199H368.113C370.493 199 373.363 197.432 373.363 194.044C373.363 190.684 370.927 189.088 368.323 189.088H364.417V199ZM366.181 197.404V190.684H367.791C369.947 190.684 371.515 191.636 371.515 194.044C371.515 196.452 369.709 197.404 367.497 197.404H366.181ZM379.086 199H380.598V195.136C380.598 194.184 380.598 192.112 377.728 192.112C376.664 192.112 375.614 192.434 374.872 193.19L375.754 194.072C376.202 193.652 376.846 193.372 377.546 193.372C378.442 193.372 379.086 193.806 379.086 194.632V194.814H378.666C376.986 194.814 374.438 194.968 374.438 197.152C374.438 198.482 375.642 199.168 376.888 199.168C377.784 199.168 378.568 198.832 379.044 198.076H379.086V199ZM378.988 196.368C378.988 197.306 378.442 197.908 377.294 197.908C376.748 197.908 376.118 197.642 376.118 197.026C376.118 196.06 377.714 195.99 378.638 195.99H378.988V196.368ZM382.405 199H384.085V195.332C384.085 194.436 384.519 193.624 385.625 193.624C386.801 193.624 386.857 194.856 386.857 195.598V199H388.537V194.758C388.537 193.386 387.893 192.112 386.087 192.112C384.967 192.112 384.337 192.686 384.029 193.358H384.001V192.28H382.405V199ZM395.764 192.28V193.288H395.736C395.246 192.476 394.364 192.112 393.426 192.112C391.354 192.112 390.108 193.652 390.108 195.64C390.108 197.544 391.438 199.084 393.454 199.084C394.294 199.084 395.162 198.762 395.652 198.104H395.68V198.594C395.68 199.924 395.176 200.848 393.552 200.848C392.614 200.848 391.914 200.498 391.242 199.882L390.234 201.254C391.186 202.094 392.32 202.36 393.566 202.36C396.184 202.36 397.36 200.82 397.36 198.398V192.28H395.764ZM393.776 193.624C394.994 193.624 395.764 194.436 395.764 195.598C395.764 196.718 395.008 197.572 393.762 197.572C392.628 197.572 391.788 196.69 391.788 195.626C391.788 194.436 392.6 193.624 393.776 193.624ZM405.731 196.228V195.766C405.731 193.428 404.457 192.112 402.581 192.112C400.551 192.112 398.927 193.526 398.927 195.64C398.927 197.754 400.551 199.168 402.581 199.168C403.645 199.168 404.639 198.79 405.423 197.824L404.219 196.914C403.799 197.432 403.253 197.824 402.413 197.824C401.475 197.824 400.719 197.222 400.607 196.228H405.731ZM400.607 194.968C400.733 194.002 401.349 193.372 402.343 193.372C403.393 193.372 404.037 193.988 404.051 194.968H400.607ZM407.302 199H408.982V195.402C408.982 195.038 409.206 193.708 410.788 193.708C411.054 193.708 411.32 193.764 411.6 193.834V192.21C411.404 192.154 411.208 192.112 410.998 192.112C410.116 192.112 409.374 192.574 409.01 193.344H408.982V192.28H407.302V199Z" fill="black"/>
<g filter="url(#filter3_dd_69_16325)">
<rect x="326" y="220" width="500" height="138" rx="12" fill="white" shape-rendering="crispEdges"/>
<path d="M351.44 254H356.54C360.76 254 364.5 251.54 364.5 246.96C364.5 241.78 360.68 239.84 356.12 239.84H351.44V254ZM354.56 242.72H356.4C359.04 242.72 361.26 244.02 361.26 246.8C361.26 250.02 359.08 251.12 356.18 251.12H354.56V242.72ZM365.876 249.14C365.876 252.24 368.276 254.24 371.276 254.24C374.276 254.24 376.676 252.24 376.676 249.14C376.676 246.04 374.276 244.04 371.276 244.04C368.276 244.04 365.876 246.04 365.876 249.14ZM368.876 249.14C368.876 247.68 369.776 246.68 371.276 246.68C372.776 246.68 373.676 247.68 373.676 249.14C373.676 250.6 372.776 251.6 371.276 251.6C369.776 251.6 368.876 250.6 368.876 249.14ZM394.361 244.28H391.281L389.141 250.7H389.101L386.601 244.28H383.361L387.621 254.08L387.401 254.64C386.981 255.7 386.761 256.28 385.401 256.28C384.901 256.28 384.461 256.18 384.001 255.98L383.601 258.44C384.321 258.68 385.081 258.8 385.841 258.8C388.701 258.8 389.161 257.64 389.961 255.58L394.361 244.28ZM395.114 249.14C395.114 252.24 397.514 254.24 400.514 254.24C403.514 254.24 405.914 252.24 405.914 249.14C405.914 246.04 403.514 244.04 400.514 244.04C397.514 244.04 395.114 246.04 395.114 249.14ZM398.114 249.14C398.114 247.68 399.014 246.68 400.514 246.68C402.014 246.68 402.914 247.68 402.914 249.14C402.914 250.6 402.014 251.6 400.514 251.6C399.014 251.6 398.114 250.6 398.114 249.14ZM417.041 244.28H414.041V249.12C414.041 250.38 413.801 251.6 412.241 251.6C410.701 251.6 410.681 250.16 410.681 249.04V244.28H407.681V249.64C407.681 252.24 408.241 254.24 411.281 254.24C412.741 254.24 413.721 253.44 414.121 252.68H414.161V254H417.041V244.28ZM427.483 254H430.503L432.303 247.54H432.343L434.363 254H437.323L440.783 244.28H437.743L435.923 250.38H435.883L434.083 244.28H430.803L429.143 250.38H429.103L427.123 244.28H423.923L427.483 254ZM441.784 254H444.784V244.28H441.784V254ZM441.544 241.22C441.544 242.18 442.324 242.96 443.284 242.96C444.244 242.96 445.024 242.18 445.024 241.22C445.024 240.26 444.244 239.48 443.284 239.48C442.324 239.48 441.544 240.26 441.544 241.22ZM454.279 245.32C453.379 244.36 451.959 244.04 450.679 244.04C448.639 244.04 446.599 245.04 446.599 247.32C446.599 251.02 451.659 249.7 451.659 251.26C451.659 251.78 450.979 251.96 450.299 251.96C449.399 251.96 448.739 251.58 448.179 250.9L446.359 252.92C447.319 253.9 448.819 254.24 450.179 254.24C452.259 254.24 454.659 253.52 454.659 251.04C454.659 247.34 449.599 248.56 449.599 247.12C449.599 246.54 450.199 246.32 450.699 246.32C451.419 246.32 451.999 246.6 452.439 247.14L454.279 245.32ZM456.197 238.88V254H459.197V249.16C459.197 247.9 459.437 246.68 460.997 246.68C462.537 246.68 462.557 248.12 462.557 249.24V254H465.557V248.64C465.557 246.04 464.997 244.04 461.957 244.04C460.497 244.04 459.517 244.84 459.237 245.6H459.197V238.88H456.197ZM480.219 244.28H477.579V241.4H474.579V244.28H472.659V246.68H474.579V251.3C474.579 253.42 476.119 254.24 478.119 254.24C478.819 254.24 479.559 254.18 480.219 253.94V251.44C479.959 251.68 479.319 251.72 478.999 251.72C477.699 251.72 477.579 250.96 477.579 249.92V246.68H480.219V244.28ZM481.384 249.14C481.384 252.24 483.784 254.24 486.784 254.24C489.784 254.24 492.184 252.24 492.184 249.14C492.184 246.04 489.784 244.04 486.784 244.04C483.784 244.04 481.384 246.04 481.384 249.14ZM484.384 249.14C484.384 247.68 485.284 246.68 486.784 246.68C488.284 246.68 489.184 247.68 489.184 249.14C489.184 250.6 488.284 251.6 486.784 251.6C485.284 251.6 484.384 250.6 484.384 249.14ZM508.429 245.34C507.489 244.38 506.109 244.04 504.969 244.04C501.969 244.04 499.569 246.04 499.569 249.14C499.569 252.24 501.969 254.24 504.969 254.24C506.109 254.24 507.489 253.9 508.429 252.94L506.449 250.86C506.109 251.26 505.629 251.6 504.969 251.6C503.469 251.6 502.569 250.6 502.569 249.14C502.569 247.68 503.469 246.68 504.969 246.68C505.589 246.68 506.149 247 506.449 247.42L508.429 245.34ZM509.157 249.14C509.157 252.24 511.557 254.24 514.557 254.24C517.557 254.24 519.957 252.24 519.957 249.14C519.957 246.04 517.557 244.04 514.557 244.04C511.557 244.04 509.157 246.04 509.157 249.14ZM512.157 249.14C512.157 247.68 513.057 246.68 514.557 246.68C516.057 246.68 516.957 247.68 516.957 249.14C516.957 250.6 516.057 251.6 514.557 251.6C513.057 251.6 512.157 250.6 512.157 249.14ZM521.724 254H524.724V249.16C524.724 247.9 524.964 246.68 526.524 246.68C528.064 246.68 528.084 248.12 528.084 249.24V254H531.084V248.64C531.084 246.04 530.524 244.04 527.484 244.04C526.024 244.04 525.044 244.84 524.644 245.6H524.604V244.28H521.724V254ZM539.828 244.28H537.188V241.4H534.188V244.28H532.268V246.68H534.188V251.3C534.188 253.42 535.728 254.24 537.728 254.24C538.428 254.24 539.168 254.18 539.828 253.94V251.44C539.568 251.68 538.928 251.72 538.608 251.72C537.308 251.72 537.188 250.96 537.188 249.92V246.68H539.828V244.28ZM541.393 254H544.393V244.28H541.393V254ZM541.153 241.22C541.153 242.18 541.933 242.96 542.893 242.96C543.853 242.96 544.633 242.18 544.633 241.22C544.633 240.26 543.853 239.48 542.893 239.48C541.933 239.48 541.153 240.26 541.153 241.22ZM546.548 254H549.548V249.16C549.548 247.9 549.788 246.68 551.348 246.68C552.888 246.68 552.908 248.12 552.908 249.24V254H555.908V248.64C555.908 246.04 555.348 244.04 552.308 244.04C550.848 244.04 549.868 244.84 549.468 245.6H549.428V244.28H546.548V254ZM567.393 244.28H564.393V249.12C564.393 250.38 564.153 251.6 562.593 251.6C561.053 251.6 561.033 250.16 561.033 249.04V244.28H558.033V249.64C558.033 252.24 558.593 254.24 561.633 254.24C563.093 254.24 564.073 253.44 564.473 252.68H564.513V254H567.393V244.28ZM576.617 250.78C576.117 251.46 575.457 251.96 574.477 251.96C573.317 251.96 572.457 251.22 572.217 250.08H579.177V249.14C579.177 246.04 577.417 244.04 574.617 244.04C571.617 244.04 569.217 246.04 569.217 249.14C569.217 252.24 571.617 254.24 574.617 254.24C576.177 254.24 577.757 253.54 578.717 252.32L576.617 250.78ZM572.217 248.04C572.297 247.1 573.017 246.2 574.337 246.2C575.417 246.2 576.197 247.04 576.177 248.04H572.217ZM584.261 249.32H587.261V248.74C587.261 248.3 587.421 247.84 588.041 247.36C589.941 245.86 590.521 244.94 590.521 243.42C590.521 240.84 588.461 239.48 586.021 239.48C583.241 239.48 581.301 241 581.021 243.82L584.101 244.02C584.181 243.04 584.841 242.24 586.081 242.24C586.901 242.24 587.521 242.76 587.521 243.64C587.521 244.56 586.441 245.22 584.961 246.64C584.461 247.12 584.261 247.64 584.261 248.44V249.32ZM583.921 252.28C583.921 253.3 584.741 254.12 585.761 254.12C586.781 254.12 587.601 253.3 587.601 252.28C587.601 251.26 586.781 250.44 585.761 250.44C584.741 250.44 583.921 251.26 583.921 252.28Z" fill="#DB3259"/>
<path d="M360.512 320.66C359.552 319.412 358.048 318.884 356.512 318.884C353.152 318.884 350.752 321.508 350.752 324.836C350.752 328.276 353.264 330.788 356.512 330.788C358.32 330.788 359.792 330.164 360.8 328.804L359.792 327.956C358.992 328.98 357.888 329.54 356.512 329.54C353.968 329.54 352.192 327.46 352.192 324.836C352.192 322.356 353.984 320.132 356.512 320.132C357.6 320.132 358.672 320.596 359.344 321.508L360.512 320.66ZM363.138 324.788C363.73 324.244 364.562 323.972 365.362 323.972C366.53 323.972 367.218 324.532 367.218 325.62V325.844H366.738C364.898 325.844 362.018 325.988 362.018 328.468C362.018 329.924 363.282 330.692 364.802 330.692C365.938 330.692 366.77 330.148 367.266 329.38H367.298C367.298 329.7 367.298 330.164 367.378 330.5H368.578C368.514 330.116 368.466 329.636 368.466 329.204V325.988C368.466 323.876 367.538 322.82 365.33 322.82C364.242 322.82 363.122 323.188 362.354 323.972L363.138 324.788ZM367.218 326.9V327.38C367.186 328.596 366.45 329.636 365.01 329.636C364.066 329.636 363.362 329.284 363.362 328.34C363.362 327.332 364.386 326.9 365.97 326.9H367.218ZM370.747 330.5H371.995V326.852C371.995 325.14 372.699 323.972 374.315 323.972C375.483 323.972 376.027 324.756 376.027 326.004V330.5H377.275V325.876C377.275 324.068 376.395 322.82 374.427 322.82C373.195 322.82 372.267 323.508 371.931 324.244H371.899C371.899 323.828 371.867 323.412 371.867 323.012H370.683C370.683 323.508 370.747 324.1 370.747 324.788V330.5ZM385.957 324.004C385.205 323.188 384.181 322.82 383.077 322.82C380.773 322.82 379.205 324.484 379.205 326.756C379.205 329.06 380.757 330.692 383.077 330.692C384.165 330.692 385.189 330.324 385.909 329.492L384.981 328.612C384.517 329.252 383.893 329.54 383.077 329.54C381.557 329.54 380.549 328.292 380.549 326.756C380.549 325.22 381.397 323.972 383.077 323.972C383.829 323.972 384.437 324.244 384.965 324.884L385.957 324.004ZM393.1 328.404C392.508 329.156 391.788 329.54 390.716 329.54C389.356 329.54 388.364 328.436 388.268 327.14H394.316V326.74C394.316 324.26 392.876 322.82 390.764 322.82C388.556 322.82 386.924 324.436 386.924 326.756C386.924 328.932 388.364 330.692 390.716 330.692C392.108 330.692 393.164 330.276 394.044 329.14L393.1 328.404ZM388.268 326.084C388.428 324.82 389.34 323.972 390.716 323.972C392.092 323.972 392.924 324.82 392.972 326.084H388.268ZM396.359 330.5H397.607V318.404H396.359V330.5Z" fill="#6C3078"/>
<rect x="713.5" y="306.5" width="88" height="35" rx="3.5" fill="#DB3259"/>
<path d="M734.106 328H737.802C740.182 328 743.052 326.432 743.052 323.044C743.052 319.684 740.616 318.088 738.012 318.088H734.106V328ZM735.87 326.404V319.684H737.48C739.636 319.684 741.204 320.636 741.204 323.044C741.204 325.452 739.398 326.404 737.186 326.404H735.87ZM748.775 328H750.287V324.136C750.287 323.184 750.287 321.112 747.417 321.112C746.353 321.112 745.303 321.434 744.561 322.19L745.443 323.072C745.891 322.652 746.535 322.372 747.235 322.372C748.131 322.372 748.775 322.806 748.775 323.632V323.814H748.355C746.675 323.814 744.127 323.968 744.127 326.152C744.127 327.482 745.331 328.168 746.577 328.168C747.473 328.168 748.257 327.832 748.733 327.076H748.775V328ZM748.677 325.368C748.677 326.306 748.131 326.908 746.983 326.908C746.437 326.908 745.807 326.642 745.807 326.026C745.807 325.06 747.403 324.99 748.327 324.99H748.677V325.368ZM752.095 328H753.775V324.332C753.775 323.436 754.209 322.624 755.315 322.624C756.491 322.624 756.547 323.856 756.547 324.598V328H758.227V323.758C758.227 322.386 757.583 321.112 755.777 321.112C754.657 321.112 754.027 321.686 753.719 322.358H753.691V321.28H752.095V328ZM765.454 321.28V322.288H765.426C764.936 321.476 764.054 321.112 763.116 321.112C761.044 321.112 759.798 322.652 759.798 324.64C759.798 326.544 761.128 328.084 763.144 328.084C763.984 328.084 764.852 327.762 765.342 327.104H765.37V327.594C765.37 328.924 764.866 329.848 763.242 329.848C762.304 329.848 761.604 329.498 760.932 328.882L759.924 330.254C760.876 331.094 762.01 331.36 763.256 331.36C765.874 331.36 767.05 329.82 767.05 327.398V321.28H765.454ZM763.466 322.624C764.684 322.624 765.454 323.436 765.454 324.598C765.454 325.718 764.698 326.572 763.452 326.572C762.318 326.572 761.478 325.69 761.478 324.626C761.478 323.436 762.29 322.624 763.466 322.624ZM775.42 325.228V324.766C775.42 322.428 774.146 321.112 772.27 321.112C770.24 321.112 768.616 322.526 768.616 324.64C768.616 326.754 770.24 328.168 772.27 328.168C773.334 328.168 774.328 327.79 775.112 326.824L773.908 325.914C773.488 326.432 772.942 326.824 772.102 326.824C771.164 326.824 770.408 326.222 770.296 325.228H775.42ZM770.296 323.968C770.422 323.002 771.038 322.372 772.032 322.372C773.082 322.372 773.726 322.988 773.74 323.968H770.296ZM776.991 328H778.671V324.402C778.671 324.038 778.895 322.708 780.477 322.708C780.743 322.708 781.009 322.764 781.289 322.834V321.21C781.093 321.154 780.897 321.112 780.687 321.112C779.805 321.112 779.063 321.574 778.699 322.344H778.671V321.28H776.991V328Z" fill="white"/>
<rect x="713.5" y="306.5" width="88" height="35" rx="3.5" stroke="#DB3259"/>
</g>
<defs>
<filter id="filter0_dd_69_16325" x="0" y="26" width="320" height="158" filterUnits="userSpaceOnUse" color-interpolation-filters="sRGB">
<feFlood flood-opacity="0" result="BackgroundImageFix"/>
<feColorMatrix in="SourceAlpha" type="matrix" values="0 0 0 0 0 0 0 0 0 0 0 0 0 0 0 0 0 0 127 0" result="hardAlpha"/>
<feOffset dy="3"/>
<feGaussianBlur stdDeviation="5"/>
<feComposite in2="hardAlpha" operator="out"/>
<feColorMatrix type="matrix" values="0 0 0 0 0 0 0 0 0 0 0 0 0 0 0 0 0 0 0.12 0"/>
<feBlend mode="normal" in2="BackgroundImageFix" result="effect1_dropShadow_69_16325"/>
<feColorMatrix in="SourceAlpha" type="matrix" values="0 0 0 0 0 0 0 0 0 0 0 0 0 0 0 0 0 0 127 0" result="hardAlpha"/>
<feOffset dy="4"/>
<feGaussianBlur stdDeviation="2"/>
<feComposite in2="hardAlpha" operator="out"/>
<feColorMatrix type="matrix" values="0 0 0 0 0 0 0 0 0 0 0 0 0 0 0 0 0 0 0.25 0"/>
<feBlend mode="normal" in2="effect1_dropShadow_69_16325" result="effect2_dropShadow_69_16325"/>
<feBlend mode="normal" in="SourceGraphic" in2="effect2_dropShadow_69_16325" result="shape"/>
</filter>
<filter id="filter1_dd_69_16325" x="316" y="26" width="520" height="158" filterUnits="userSpaceOnUse" color-interpolation-filters="sRGB">
<feFlood flood-opacity="0" result="BackgroundImageFix"/>
<feColorMatrix in="SourceAlpha" type="matrix" values="0 0 0 0 0 0 0 0 0 0 0 0 0 0 0 0 0 0 127 0" result="hardAlpha"/>
<feOffset dy="3"/>
<feGaussianBlur stdDeviation="5"/>
<feComposite in2="hardAlpha" operator="out"/>
<feColorMatrix type="matrix" values="0 0 0 0 0 0 0 0 0 0 0 0 0 0 0 0 0 0 0.12 0"/>
<feBlend mode="normal" in2="BackgroundImageFix" result="effect1_dropShadow_69_16325"/>
<feColorMatrix in="SourceAlpha" type="matrix" values="0 0 0 0 0 0 0 0 0 0 0 0 0 0 0 0 0 0 127 0" result="hardAlpha"/>
<feOffset dy="4"/>
<feGaussianBlur stdDeviation="2"/>
<feComposite in2="hardAlpha" operator="out"/>
<feColorMatrix type="matrix" values="0 0 0 0 0 0 0 0 0 0 0 0 0 0 0 0 0 0 0.25 0"/>
<feBlend mode="normal" in2="effect1_dropShadow_69_16325" result="effect2_dropShadow_69_16325"/>
<feBlend mode="normal" in="SourceGraphic" in2="effect2_dropShadow_69_16325" result="shape"/>
</filter>
<filter id="filter2_dd_69_16325" x="0" y="213" width="320" height="158" filterUnits="userSpaceOnUse" color-interpolation-filters="sRGB">
<feFlood flood-opacity="0" result="BackgroundImageFix"/>
<feColorMatrix in="SourceAlpha" type="matrix" values="0 0 0 0 0 0 0 0 0 0 0 0 0 0 0 0 0 0 127 0" result="hardAlpha"/>
<feOffset dy="3"/>
<feGaussianBlur stdDeviation="5"/>
<feComposite in2="hardAlpha" operator="out"/>
<feColorMatrix type="matrix" values="0 0 0 0 0 0 0 0 0 0 0 0 0 0 0 0 0 0 0.12 0"/>
<feBlend mode="normal" in2="BackgroundImageFix" result="effect1_dropShadow_69_16325"/>
<feColorMatrix in="SourceAlpha" type="matrix" values="0 0 0 0 0 0 0 0 0 0 0 0 0 0 0 0 0 0 127 0" result="hardAlpha"/>
<feOffset dy="4"/>
<feGaussianBlur stdDeviation="2"/>
<feComposite in2="hardAlpha" operator="out"/>
<feColorMatrix type="matrix" values="0 0 0 0 0 0 0 0 0 0 0 0 0 0 0 0 0 0 0.25 0"/>
<feBlend mode="normal" in2="effect1_dropShadow_69_16325" result="effect2_dropShadow_69_16325"/>
<feBlend mode="normal" in="SourceGraphic" in2="effect2_dropShadow_69_16325" result="shape"/>
</filter>
<filter id="filter3_dd_69_16325" x="316" y="213" width="520" height="158" filterUnits="userSpaceOnUse" color-interpolation-filters="sRGB">
<feFlood flood-opacity="0" result="BackgroundImageFix"/>
<feColorMatrix in="SourceAlpha" type="matrix" values="0 0 0 0 0 0 0 0 0 0 0 0 0 0 0 0 0 0 127 0" result="hardAlpha"/>
<feOffset dy="3"/>
<feGaussianBlur stdDeviation="5"/>
<feComposite in2="hardAlpha" operator="out"/>
<feColorMatrix type="matrix" values="0 0 0 0 0 0 0 0 0 0 0 0 0 0 0 0 0 0 0.12 0"/>
<feBlend mode="normal" in2="BackgroundImageFix" result="effect1_dropShadow_69_16325"/>
<feColorMatrix in="SourceAlpha" type="matrix" values="0 0 0 0 0 0 0 0 0 0 0 0 0 0 0 0 0 0 127 0" result="hardAlpha"/>
<feOffset dy="4"/>
<feGaussianBlur stdDeviation="2"/>
<feComposite in2="hardAlpha" operator="out"/>
<feColorMatrix type="matrix" values="0 0 0 0 0 0 0 0 0 0 0 0 0 0 0 0 0 0 0.25 0"/>
<feBlend mode="normal" in2="effect1_dropShadow_69_16325" result="effect2_dropShadow_69_16325"/>
<feBlend mode="normal" in="SourceGraphic" in2="effect2_dropShadow_69_16325" result="shape"/>
</filter>
</defs>
</svg>
