<svg width="836" height="191" viewBox="0 0 836 191" fill="none" xmlns="http://www.w3.org/2000/svg">
<rect x="10.5" y="0.5" width="99" height="35" rx="3.5" fill="#6C3078"/>
<path d="M39.282 13.404C38.302 12.27 37.154 11.836 35.81 11.836C32.758 11.836 30.574 13.908 30.574 17.086C30.574 20.18 32.758 22.252 35.81 22.252C37.266 22.252 38.61 21.72 39.506 20.488L38.05 19.452C37.392 20.292 36.622 20.656 35.824 20.656C33.78 20.656 32.422 19.088 32.422 16.974C32.422 15 33.78 13.432 35.824 13.432C36.51 13.432 37.182 13.642 37.91 14.412L39.282 13.404ZM40.2 18.64C40.2 20.754 41.824 22.168 43.854 22.168C45.884 22.168 47.508 20.754 47.508 18.64C47.508 16.526 45.884 15.112 43.854 15.112C41.824 15.112 40.2 16.526 40.2 18.64ZM41.88 18.64C41.88 17.59 42.622 16.624 43.854 16.624C45.086 16.624 45.828 17.59 45.828 18.64C45.828 19.69 45.086 20.656 43.854 20.656C42.622 20.656 41.88 19.69 41.88 18.64ZM49.0809 22H50.7609V18.332C50.7609 17.436 51.1949 16.624 52.3009 16.624C53.4769 16.624 53.5329 17.856 53.5329 18.598V22H55.2129V17.758C55.2129 16.386 54.5689 15.112 52.7629 15.112C51.6429 15.112 51.0129 15.686 50.7049 16.358H50.6769V15.28H49.0809V22ZM57.722 16.708V19.788C57.722 21.37 58.142 22.168 59.92 22.168C60.312 22.168 60.9 22.112 61.25 21.944V20.53C61.04 20.684 60.634 20.74 60.34 20.74C59.598 20.74 59.402 20.32 59.402 19.648V16.708H61.25V15.28H59.402V13.334H57.722V15.28H56.336V16.708H57.722ZM62.5894 22H64.2694V15.28H62.5894V22ZM62.3514 12.998C62.3514 13.53 62.7994 14.006 63.4154 14.006C64.0314 14.006 64.5074 13.572 64.5074 12.998C64.5074 12.424 64.0314 11.99 63.4154 11.99C62.7994 11.99 62.3514 12.466 62.3514 12.998ZM66.1981 22H67.8781V18.332C67.8781 17.436 68.3121 16.624 69.4181 16.624C70.5941 16.624 70.6501 17.856 70.6501 18.598V22H72.3301V17.758C72.3301 16.386 71.6861 15.112 69.8801 15.112C68.7601 15.112 68.1301 15.686 67.8221 16.358H67.7941V15.28H66.1981V22ZM80.3692 15.28H78.6892V18.948C78.6892 19.844 78.2552 20.656 77.1492 20.656C75.9732 20.656 75.9172 19.424 75.9172 18.682V15.28H74.2372V19.522C74.2372 20.894 74.8812 22.168 76.6872 22.168C77.8072 22.168 78.4372 21.594 78.7452 20.922H78.7732V22H80.3692V15.28ZM88.7442 19.228V18.766C88.7442 16.428 87.4702 15.112 85.5942 15.112C83.5642 15.112 81.9402 16.526 81.9402 18.64C81.9402 20.754 83.5642 22.168 85.5942 22.168C86.6582 22.168 87.6522 21.79 88.4362 20.824L87.2322 19.914C86.8122 20.432 86.2662 20.824 85.4262 20.824C84.4882 20.824 83.7322 20.222 83.6202 19.228H88.7442ZM83.6202 17.968C83.7462 17.002 84.3622 16.372 85.3562 16.372C86.4062 16.372 87.0502 16.988 87.0642 17.968H83.6202Z" fill="white"/>
<rect x="10.5" y="0.5" width="99" height="35" rx="3.5" stroke="#6C3078"/>
<g filter="url(#filter0_dd_224_32273)">
<rect x="10" y="40" width="300" height="138" rx="12" fill="white" shape-rendering="crispEdges"/>
<path d="M35.44 74H40.54C44.76 74 48.5 71.54 48.5 66.96C48.5 61.78 44.68 59.84 40.12 59.84H35.44V74ZM38.56 62.72H40.4C43.04 62.72 45.26 64.02 45.26 66.8C45.26 70.02 43.08 71.12 40.18 71.12H38.56V62.72ZM49.8758 69.14C49.8758 72.24 52.2758 74.24 55.2758 74.24C58.2758 74.24 60.6758 72.24 60.6758 69.14C60.6758 66.04 58.2758 64.04 55.2758 64.04C52.2758 64.04 49.8758 66.04 49.8758 69.14ZM52.8758 69.14C52.8758 67.68 53.7758 66.68 55.2758 66.68C56.7758 66.68 57.6758 67.68 57.6758 69.14C57.6758 70.6 56.7758 71.6 55.2758 71.6C53.7758 71.6 52.8758 70.6 52.8758 69.14ZM78.3608 64.28H75.2808L73.1408 70.7H73.1008L70.6008 64.28H67.3608L71.6208 74.08L71.4008 74.64C70.9808 75.7 70.7608 76.28 69.4008 76.28C68.9008 76.28 68.4608 76.18 68.0008 75.98L67.6008 78.44C68.3208 78.68 69.0808 78.8 69.8408 78.8C72.7008 78.8 73.1608 77.64 73.9608 75.58L78.3608 64.28ZM79.1141 69.14C79.1141 72.24 81.5141 74.24 84.5141 74.24C87.5141 74.24 89.9141 72.24 89.9141 69.14C89.9141 66.04 87.5141 64.04 84.5141 64.04C81.5141 64.04 79.1141 66.04 79.1141 69.14ZM82.1141 69.14C82.1141 67.68 83.0141 66.68 84.5141 66.68C86.0141 66.68 86.9141 67.68 86.9141 69.14C86.9141 70.6 86.0141 71.6 84.5141 71.6C83.0141 71.6 82.1141 70.6 82.1141 69.14ZM101.041 64.28H98.0411V69.12C98.0411 70.38 97.8011 71.6 96.2411 71.6C94.7011 71.6 94.6811 70.16 94.6811 69.04V64.28H91.6811V69.64C91.6811 72.24 92.2411 74.24 95.2811 74.24C96.7411 74.24 97.7211 73.44 98.1211 72.68H98.1611V74H101.041V64.28ZM111.483 74H114.503L116.303 67.54H116.343L118.363 74H121.323L124.783 64.28H121.743L119.923 70.38H119.883L118.083 64.28H114.803L113.143 70.38H113.103L111.123 64.28H107.923L111.483 74ZM125.784 74H128.784V64.28H125.784V74ZM125.544 61.22C125.544 62.18 126.324 62.96 127.284 62.96C128.244 62.96 129.024 62.18 129.024 61.22C129.024 60.26 128.244 59.48 127.284 59.48C126.324 59.48 125.544 60.26 125.544 61.22ZM138.279 65.32C137.379 64.36 135.959 64.04 134.679 64.04C132.639 64.04 130.599 65.04 130.599 67.32C130.599 71.02 135.659 69.7 135.659 71.26C135.659 71.78 134.979 71.96 134.299 71.96C133.399 71.96 132.739 71.58 132.179 70.9L130.359 72.92C131.319 73.9 132.819 74.24 134.179 74.24C136.259 74.24 138.659 73.52 138.659 71.04C138.659 67.34 133.599 68.56 133.599 67.12C133.599 66.54 134.199 66.32 134.699 66.32C135.419 66.32 135.999 66.6 136.439 67.14L138.279 65.32ZM140.197 58.88V74H143.197V69.16C143.197 67.9 143.437 66.68 144.997 66.68C146.537 66.68 146.557 68.12 146.557 69.24V74H149.557V68.64C149.557 66.04 148.997 64.04 145.957 64.04C144.497 64.04 143.517 64.84 143.237 65.6H143.197V58.88H140.197ZM164.219 64.28H161.579V61.4H158.579V64.28H156.659V66.68H158.579V71.3C158.579 73.42 160.119 74.24 162.119 74.24C162.819 74.24 163.559 74.18 164.219 73.94V71.44C163.959 71.68 163.319 71.72 162.999 71.72C161.699 71.72 161.579 70.96 161.579 69.92V66.68H164.219V64.28ZM165.384 69.14C165.384 72.24 167.784 74.24 170.784 74.24C173.784 74.24 176.184 72.24 176.184 69.14C176.184 66.04 173.784 64.04 170.784 64.04C167.784 64.04 165.384 66.04 165.384 69.14ZM168.384 69.14C168.384 67.68 169.284 66.68 170.784 66.68C172.284 66.68 173.184 67.68 173.184 69.14C173.184 70.6 172.284 71.6 170.784 71.6C169.284 71.6 168.384 70.6 168.384 69.14ZM192.429 65.34C191.489 64.38 190.109 64.04 188.969 64.04C185.969 64.04 183.569 66.04 183.569 69.14C183.569 72.24 185.969 74.24 188.969 74.24C190.109 74.24 191.489 73.9 192.429 72.94L190.449 70.86C190.109 71.26 189.629 71.6 188.969 71.6C187.469 71.6 186.569 70.6 186.569 69.14C186.569 67.68 187.469 66.68 188.969 66.68C189.589 66.68 190.149 67 190.449 67.42L192.429 65.34ZM193.157 69.14C193.157 72.24 195.557 74.24 198.557 74.24C201.557 74.24 203.957 72.24 203.957 69.14C203.957 66.04 201.557 64.04 198.557 64.04C195.557 64.04 193.157 66.04 193.157 69.14ZM196.157 69.14C196.157 67.68 197.057 66.68 198.557 66.68C200.057 66.68 200.957 67.68 200.957 69.14C200.957 70.6 200.057 71.6 198.557 71.6C197.057 71.6 196.157 70.6 196.157 69.14ZM205.724 74H208.724V69.16C208.724 67.9 208.964 66.68 210.524 66.68C212.064 66.68 212.084 68.12 212.084 69.24V74H215.084V68.64C215.084 66.04 214.524 64.04 211.484 64.04C210.024 64.04 209.044 64.84 208.644 65.6H208.604V64.28H205.724V74ZM223.828 64.28H221.188V61.4H218.188V64.28H216.268V66.68H218.188V71.3C218.188 73.42 219.728 74.24 221.728 74.24C222.428 74.24 223.168 74.18 223.828 73.94V71.44C223.568 71.68 222.928 71.72 222.608 71.72C221.308 71.72 221.188 70.96 221.188 69.92V66.68H223.828V64.28ZM225.393 74H228.393V64.28H225.393V74ZM225.153 61.22C225.153 62.18 225.933 62.96 226.893 62.96C227.853 62.96 228.633 62.18 228.633 61.22C228.633 60.26 227.853 59.48 226.893 59.48C225.933 59.48 225.153 60.26 225.153 61.22ZM230.548 74H233.548V69.16C233.548 67.9 233.788 66.68 235.348 66.68C236.888 66.68 236.908 68.12 236.908 69.24V74H239.908V68.64C239.908 66.04 239.348 64.04 236.308 64.04C234.848 64.04 233.868 64.84 233.468 65.6H233.428V64.28H230.548V74ZM251.393 64.28H248.393V69.12C248.393 70.38 248.153 71.6 246.593 71.6C245.053 71.6 245.033 70.16 245.033 69.04V64.28H242.033V69.64C242.033 72.24 242.593 74.24 245.633 74.24C247.093 74.24 248.073 73.44 248.473 72.68H248.513V74H251.393V64.28ZM260.617 70.78C260.117 71.46 259.457 71.96 258.477 71.96C257.317 71.96 256.457 71.22 256.217 70.08H263.177V69.14C263.177 66.04 261.417 64.04 258.617 64.04C255.617 64.04 253.217 66.04 253.217 69.14C253.217 72.24 255.617 74.24 258.617 74.24C260.177 74.24 261.757 73.54 262.717 72.32L260.617 70.78ZM256.217 68.04C256.297 67.1 257.017 66.2 258.337 66.2C259.417 66.2 260.197 67.04 260.177 68.04H256.217ZM268.261 69.32H271.261V68.74C271.261 68.3 271.421 67.84 272.041 67.36C273.941 65.86 274.521 64.94 274.521 63.42C274.521 60.84 272.461 59.48 270.021 59.48C267.241 59.48 265.301 61 265.021 63.82L268.101 64.02C268.181 63.04 268.841 62.24 270.081 62.24C270.901 62.24 271.521 62.76 271.521 63.64C271.521 64.56 270.441 65.22 268.961 66.64C268.461 67.12 268.261 67.64 268.261 68.44V69.32ZM267.921 72.28C267.921 73.3 268.741 74.12 269.761 74.12C270.781 74.12 271.601 73.3 271.601 72.28C271.601 71.26 270.781 70.44 269.761 70.44C268.741 70.44 267.921 71.26 267.921 72.28Z" fill="#333333"/>
<path d="M44.512 140.66C43.552 139.412 42.048 138.884 40.512 138.884C37.152 138.884 34.752 141.508 34.752 144.836C34.752 148.276 37.264 150.788 40.512 150.788C42.32 150.788 43.792 150.164 44.8 148.804L43.792 147.956C42.992 148.98 41.888 149.54 40.512 149.54C37.968 149.54 36.192 147.46 36.192 144.836C36.192 142.356 37.984 140.132 40.512 140.132C41.6 140.132 42.672 140.596 43.344 141.508L44.512 140.66ZM47.1376 144.788C47.7296 144.244 48.5616 143.972 49.3616 143.972C50.5296 143.972 51.2176 144.532 51.2176 145.62V145.844H50.7376C48.8976 145.844 46.0176 145.988 46.0176 148.468C46.0176 149.924 47.2816 150.692 48.8016 150.692C49.9376 150.692 50.7696 150.148 51.2656 149.38H51.2976C51.2976 149.7 51.2976 150.164 51.3776 150.5H52.5776C52.5136 150.116 52.4656 149.636 52.4656 149.204V145.988C52.4656 143.876 51.5376 142.82 49.3296 142.82C48.2416 142.82 47.1216 143.188 46.3536 143.972L47.1376 144.788ZM51.2176 146.9V147.38C51.1856 148.596 50.4496 149.636 49.0096 149.636C48.0656 149.636 47.3616 149.284 47.3616 148.34C47.3616 147.332 48.3856 146.9 49.9696 146.9H51.2176ZM54.7465 150.5H55.9945V146.852C55.9945 145.14 56.6985 143.972 58.3145 143.972C59.4825 143.972 60.0265 144.756 60.0265 146.004V150.5H61.2745V145.876C61.2745 144.068 60.3945 142.82 58.4265 142.82C57.1945 142.82 56.2665 143.508 55.9305 144.244H55.8985C55.8985 143.828 55.8665 143.412 55.8665 143.012H54.6825C54.6825 143.508 54.7465 144.1 54.7465 144.788V150.5ZM69.9571 144.004C69.2051 143.188 68.1811 142.82 67.0771 142.82C64.7731 142.82 63.2051 144.484 63.2051 146.756C63.2051 149.06 64.7571 150.692 67.0771 150.692C68.1651 150.692 69.1891 150.324 69.9091 149.492L68.9811 148.612C68.5171 149.252 67.8931 149.54 67.0771 149.54C65.5571 149.54 64.5491 148.292 64.5491 146.756C64.5491 145.22 65.3971 143.972 67.0771 143.972C67.8291 143.972 68.4371 144.244 68.9651 144.884L69.9571 144.004ZM77.0999 148.404C76.5079 149.156 75.7879 149.54 74.7159 149.54C73.3559 149.54 72.3639 148.436 72.2679 147.14H78.3159V146.74C78.3159 144.26 76.8759 142.82 74.7639 142.82C72.5559 142.82 70.9239 144.436 70.9239 146.756C70.9239 148.932 72.3639 150.692 74.7159 150.692C76.1079 150.692 77.1639 150.276 78.0439 149.14L77.0999 148.404ZM72.2679 146.084C72.4279 144.82 73.3399 143.972 74.7159 143.972C76.0919 143.972 76.9239 144.82 76.9719 146.084H72.2679ZM80.3585 150.5H81.6065V138.404H80.3585V150.5Z" fill="#6C3078"/>
<rect x="224.5" y="126.5" width="61" height="35" rx="3.5" fill="#6C3078"/>
<path d="M247.528 148H249.292V143.758L253.016 138.088H250.916L248.452 142.036L246.016 138.088H243.804L247.528 143.758V148ZM258.953 145.228V144.766C258.953 142.428 257.679 141.112 255.803 141.112C253.773 141.112 252.149 142.526 252.149 144.64C252.149 146.754 253.773 148.168 255.803 148.168C256.867 148.168 257.861 147.79 258.645 146.824L257.441 145.914C257.021 146.432 256.475 146.824 255.635 146.824C254.697 146.824 253.941 146.222 253.829 145.228H258.953ZM253.829 143.968C253.955 143.002 254.571 142.372 255.565 142.372C256.615 142.372 257.259 142.988 257.273 143.968H253.829ZM265.228 142.134C264.682 141.392 263.73 141.112 262.834 141.112C261.476 141.112 260.132 141.784 260.132 143.282C260.132 145.844 263.758 144.752 263.758 146.138C263.758 146.67 263.128 146.908 262.638 146.908C261.924 146.908 261.476 146.558 261.042 146.082L259.922 147.132C260.608 147.902 261.504 148.168 262.54 148.168C263.912 148.168 265.438 147.608 265.438 146.012C265.438 143.394 261.812 144.374 261.812 143.17C261.812 142.666 262.344 142.456 262.792 142.456C263.366 142.456 263.786 142.694 264.108 143.142L265.228 142.134Z" fill="white"/>
<rect x="224.5" y="126.5" width="61" height="35" rx="3.5" stroke="#6C3078"/>
</g>
<rect x="326.5" y="0.5" width="83" height="35" rx="3.5" fill="#DB3259"/>
<path d="M347.106 22H350.802C353.182 22 356.052 20.432 356.052 17.044C356.052 13.684 353.616 12.088 351.012 12.088H347.106V22ZM348.87 20.404V13.684H350.48C352.636 13.684 354.204 14.636 354.204 17.044C354.204 19.452 352.398 20.404 350.186 20.404H348.87ZM364.043 19.228V18.766C364.043 16.428 362.769 15.112 360.893 15.112C358.863 15.112 357.239 16.526 357.239 18.64C357.239 20.754 358.863 22.168 360.893 22.168C361.957 22.168 362.951 21.79 363.735 20.824L362.531 19.914C362.111 20.432 361.565 20.824 360.725 20.824C359.787 20.824 359.031 20.222 358.919 19.228H364.043ZM358.919 17.968C359.045 17.002 359.661 16.372 360.655 16.372C361.705 16.372 362.349 16.988 362.363 17.968H358.919ZM365.642 22H367.322V11.416H365.642V22ZM375.719 19.228V18.766C375.719 16.428 374.445 15.112 372.569 15.112C370.539 15.112 368.915 16.526 368.915 18.64C368.915 20.754 370.539 22.168 372.569 22.168C373.633 22.168 374.627 21.79 375.411 20.824L374.207 19.914C373.787 20.432 373.241 20.824 372.401 20.824C371.463 20.824 370.707 20.222 370.595 19.228H375.719ZM370.595 17.968C370.721 17.002 371.337 16.372 372.331 16.372C373.381 16.372 374.025 16.988 374.039 17.968H370.595ZM377.892 16.708V19.788C377.892 21.37 378.312 22.168 380.09 22.168C380.482 22.168 381.07 22.112 381.42 21.944V20.53C381.21 20.684 380.804 20.74 380.51 20.74C379.768 20.74 379.572 20.32 379.572 19.648V16.708H381.42V15.28H379.572V13.334H377.892V15.28H376.506V16.708H377.892ZM389.199 19.228V18.766C389.199 16.428 387.925 15.112 386.049 15.112C384.019 15.112 382.395 16.526 382.395 18.64C382.395 20.754 384.019 22.168 386.049 22.168C387.113 22.168 388.107 21.79 388.891 20.824L387.687 19.914C387.267 20.432 386.721 20.824 385.881 20.824C384.943 20.824 384.187 20.222 384.075 19.228H389.199ZM384.075 17.968C384.201 17.002 384.817 16.372 385.811 16.372C386.861 16.372 387.505 16.988 387.519 17.968H384.075Z" fill="white"/>
<rect x="326.5" y="0.5" width="83" height="35" rx="3.5" stroke="#DB3259"/>
<g filter="url(#filter1_dd_224_32273)">
<rect x="326" y="40" width="500" height="138" rx="12" fill="white" shape-rendering="crispEdges"/>
<path d="M351.44 74H356.54C360.76 74 364.5 71.54 364.5 66.96C364.5 61.78 360.68 59.84 356.12 59.84H351.44V74ZM354.56 62.72H356.4C359.04 62.72 361.26 64.02 361.26 66.8C361.26 70.02 359.08 71.12 356.18 71.12H354.56V62.72ZM365.876 69.14C365.876 72.24 368.276 74.24 371.276 74.24C374.276 74.24 376.676 72.24 376.676 69.14C376.676 66.04 374.276 64.04 371.276 64.04C368.276 64.04 365.876 66.04 365.876 69.14ZM368.876 69.14C368.876 67.68 369.776 66.68 371.276 66.68C372.776 66.68 373.676 67.68 373.676 69.14C373.676 70.6 372.776 71.6 371.276 71.6C369.776 71.6 368.876 70.6 368.876 69.14ZM394.361 64.28H391.281L389.141 70.7H389.101L386.601 64.28H383.361L387.621 74.08L387.401 74.64C386.981 75.7 386.761 76.28 385.401 76.28C384.901 76.28 384.461 76.18 384.001 75.98L383.601 78.44C384.321 78.68 385.081 78.8 385.841 78.8C388.701 78.8 389.161 77.64 389.961 75.58L394.361 64.28ZM395.114 69.14C395.114 72.24 397.514 74.24 400.514 74.24C403.514 74.24 405.914 72.24 405.914 69.14C405.914 66.04 403.514 64.04 400.514 64.04C397.514 64.04 395.114 66.04 395.114 69.14ZM398.114 69.14C398.114 67.68 399.014 66.68 400.514 66.68C402.014 66.68 402.914 67.68 402.914 69.14C402.914 70.6 402.014 71.6 400.514 71.6C399.014 71.6 398.114 70.6 398.114 69.14ZM417.041 64.28H414.041V69.12C414.041 70.38 413.801 71.6 412.241 71.6C410.701 71.6 410.681 70.16 410.681 69.04V64.28H407.681V69.64C407.681 72.24 408.241 74.24 411.281 74.24C412.741 74.24 413.721 73.44 414.121 72.68H414.161V74H417.041V64.28ZM427.483 74H430.503L432.303 67.54H432.343L434.363 74H437.323L440.783 64.28H437.743L435.923 70.38H435.883L434.083 64.28H430.803L429.143 70.38H429.103L427.123 64.28H423.923L427.483 74ZM441.784 74H444.784V64.28H441.784V74ZM441.544 61.22C441.544 62.18 442.324 62.96 443.284 62.96C444.244 62.96 445.024 62.18 445.024 61.22C445.024 60.26 444.244 59.48 443.284 59.48C442.324 59.48 441.544 60.26 441.544 61.22ZM454.279 65.32C453.379 64.36 451.959 64.04 450.679 64.04C448.639 64.04 446.599 65.04 446.599 67.32C446.599 71.02 451.659 69.7 451.659 71.26C451.659 71.78 450.979 71.96 450.299 71.96C449.399 71.96 448.739 71.58 448.179 70.9L446.359 72.92C447.319 73.9 448.819 74.24 450.179 74.24C452.259 74.24 454.659 73.52 454.659 71.04C454.659 67.34 449.599 68.56 449.599 67.12C449.599 66.54 450.199 66.32 450.699 66.32C451.419 66.32 451.999 66.6 452.439 67.14L454.279 65.32ZM456.197 58.88V74H459.197V69.16C459.197 67.9 459.437 66.68 460.997 66.68C462.537 66.68 462.557 68.12 462.557 69.24V74H465.557V68.64C465.557 66.04 464.997 64.04 461.957 64.04C460.497 64.04 459.517 64.84 459.237 65.6H459.197V58.88H456.197ZM480.219 64.28H477.579V61.4H474.579V64.28H472.659V66.68H474.579V71.3C474.579 73.42 476.119 74.24 478.119 74.24C478.819 74.24 479.559 74.18 480.219 73.94V71.44C479.959 71.68 479.319 71.72 478.999 71.72C477.699 71.72 477.579 70.96 477.579 69.92V66.68H480.219V64.28ZM481.384 69.14C481.384 72.24 483.784 74.24 486.784 74.24C489.784 74.24 492.184 72.24 492.184 69.14C492.184 66.04 489.784 64.04 486.784 64.04C483.784 64.04 481.384 66.04 481.384 69.14ZM484.384 69.14C484.384 67.68 485.284 66.68 486.784 66.68C488.284 66.68 489.184 67.68 489.184 69.14C489.184 70.6 488.284 71.6 486.784 71.6C485.284 71.6 484.384 70.6 484.384 69.14ZM510.069 58.88H507.069V65.32H507.029C506.349 64.38 505.189 64.04 503.949 64.04C501.189 64.04 499.509 66.52 499.509 69.22C499.509 72.16 501.409 74.24 504.289 74.24C505.649 74.24 506.809 73.42 507.269 72.72H507.309V74H510.069V58.88ZM507.309 69.14C507.309 70.6 506.409 71.6 504.909 71.6C503.409 71.6 502.509 70.6 502.509 69.14C502.509 67.68 503.409 66.68 504.909 66.68C506.409 66.68 507.309 67.68 507.309 69.14ZM519.566 70.78C519.066 71.46 518.406 71.96 517.426 71.96C516.266 71.96 515.406 71.22 515.166 70.08H522.126V69.14C522.126 66.04 520.366 64.04 517.566 64.04C514.566 64.04 512.166 66.04 512.166 69.14C512.166 72.24 514.566 74.24 517.566 74.24C519.126 74.24 520.706 73.54 521.666 72.32L519.566 70.78ZM515.166 68.04C515.246 67.1 515.966 66.2 517.286 66.2C518.366 66.2 519.146 67.04 519.126 68.04H515.166ZM523.991 74H526.991V58.88H523.991V74ZM536.246 70.78C535.746 71.46 535.086 71.96 534.106 71.96C532.946 71.96 532.086 71.22 531.846 70.08H538.806V69.14C538.806 66.04 537.046 64.04 534.246 64.04C531.246 64.04 528.846 66.04 528.846 69.14C528.846 72.24 531.246 74.24 534.246 74.24C535.806 74.24 537.386 73.54 538.346 72.32L536.246 70.78ZM531.846 68.04C531.926 67.1 532.646 66.2 533.966 66.2C535.046 66.2 535.826 67.04 535.806 68.04H531.846ZM547.25 64.28H544.61V61.4H541.61V64.28H539.69V66.68H541.61V71.3C541.61 73.42 543.15 74.24 545.15 74.24C545.85 74.24 546.59 74.18 547.25 73.94V71.44C546.99 71.68 546.35 71.72 546.03 71.72C544.73 71.72 544.61 70.96 544.61 69.92V66.68H547.25V64.28ZM555.875 70.78C555.375 71.46 554.715 71.96 553.735 71.96C552.575 71.96 551.715 71.22 551.475 70.08H558.435V69.14C558.435 66.04 556.675 64.04 553.875 64.04C550.875 64.04 548.475 66.04 548.475 69.14C548.475 72.24 550.875 74.24 553.875 74.24C555.435 74.24 557.015 73.54 557.975 72.32L555.875 70.78ZM551.475 68.04C551.555 67.1 552.275 66.2 553.595 66.2C554.675 66.2 555.455 67.04 555.435 68.04H551.475ZM572.797 64.28H570.157V61.4H567.157V64.28H565.237V66.68H567.157V71.3C567.157 73.42 568.697 74.24 570.697 74.24C571.397 74.24 572.137 74.18 572.797 73.94V71.44C572.537 71.68 571.897 71.72 571.577 71.72C570.277 71.72 570.157 70.96 570.157 69.92V66.68H572.797V64.28ZM574.322 58.88V74H577.322V69.16C577.322 67.9 577.562 66.68 579.122 66.68C580.662 66.68 580.682 68.12 580.682 69.24V74H583.682V68.64C583.682 66.04 583.122 64.04 580.082 64.04C578.622 64.04 577.642 64.84 577.362 65.6H577.322V58.88H574.322ZM592.906 70.78C592.406 71.46 591.746 71.96 590.766 71.96C589.606 71.96 588.746 71.22 588.506 70.08H595.466V69.14C595.466 66.04 593.706 64.04 590.906 64.04C587.906 64.04 585.506 66.04 585.506 69.14C585.506 72.24 587.906 74.24 590.906 74.24C592.466 74.24 594.046 73.54 595.006 72.32L592.906 70.78ZM588.506 68.04C588.586 67.1 589.306 66.2 590.626 66.2C591.706 66.2 592.486 67.04 592.466 68.04H588.506ZM610.648 74H613.648V64.28H610.648V74ZM610.408 61.22C610.408 62.18 611.188 62.96 612.148 62.96C613.108 62.96 613.888 62.18 613.888 61.22C613.888 60.26 613.108 59.48 612.148 59.48C611.188 59.48 610.408 60.26 610.408 61.22ZM604.248 74H607.248V66.68H609.468V64.28H607.248V62.74C607.248 61.46 607.728 61.16 608.688 61.16C609.048 61.16 609.328 61.24 609.668 61.36L609.808 58.82C609.248 58.68 608.648 58.64 608.048 58.64C604.788 58.64 604.248 60.44 604.248 62.56V64.28H602.268V66.68H604.248V74ZM615.846 74H618.846V58.88H615.846V74ZM628.101 70.78C627.601 71.46 626.941 71.96 625.961 71.96C624.801 71.96 623.941 71.22 623.701 70.08H630.661V69.14C630.661 66.04 628.901 64.04 626.101 64.04C623.101 64.04 620.701 66.04 620.701 69.14C620.701 72.24 623.101 74.24 626.101 74.24C627.661 74.24 629.241 73.54 630.201 72.32L628.101 70.78ZM623.701 68.04C623.781 67.1 624.501 66.2 625.821 66.2C626.901 66.2 627.681 67.04 627.661 68.04H623.701ZM635.746 69.32H638.746V68.74C638.746 68.3 638.906 67.84 639.526 67.36C641.426 65.86 642.006 64.94 642.006 63.42C642.006 60.84 639.946 59.48 637.506 59.48C634.726 59.48 632.786 61 632.506 63.82L635.586 64.02C635.666 63.04 636.326 62.24 637.566 62.24C638.386 62.24 639.006 62.76 639.006 63.64C639.006 64.56 637.926 65.22 636.446 66.64C635.946 67.12 635.746 67.64 635.746 68.44V69.32ZM635.406 72.28C635.406 73.3 636.226 74.12 637.246 74.12C638.266 74.12 639.086 73.3 639.086 72.28C639.086 71.26 638.266 70.44 637.246 70.44C636.226 70.44 635.406 71.26 635.406 72.28Z" fill="#DB3259"/>
<path d="M360.512 140.66C359.552 139.412 358.048 138.884 356.512 138.884C353.152 138.884 350.752 141.508 350.752 144.836C350.752 148.276 353.264 150.788 356.512 150.788C358.32 150.788 359.792 150.164 360.8 148.804L359.792 147.956C358.992 148.98 357.888 149.54 356.512 149.54C353.968 149.54 352.192 147.46 352.192 144.836C352.192 142.356 353.984 140.132 356.512 140.132C357.6 140.132 358.672 140.596 359.344 141.508L360.512 140.66ZM363.138 144.788C363.73 144.244 364.562 143.972 365.362 143.972C366.53 143.972 367.218 144.532 367.218 145.62V145.844H366.738C364.898 145.844 362.018 145.988 362.018 148.468C362.018 149.924 363.282 150.692 364.802 150.692C365.938 150.692 366.77 150.148 367.266 149.38H367.298C367.298 149.7 367.298 150.164 367.378 150.5H368.578C368.514 150.116 368.466 149.636 368.466 149.204V145.988C368.466 143.876 367.538 142.82 365.33 142.82C364.242 142.82 363.122 143.188 362.354 143.972L363.138 144.788ZM367.218 146.9V147.38C367.186 148.596 366.45 149.636 365.01 149.636C364.066 149.636 363.362 149.284 363.362 148.34C363.362 147.332 364.386 146.9 365.97 146.9H367.218ZM370.747 150.5H371.995V146.852C371.995 145.14 372.699 143.972 374.315 143.972C375.483 143.972 376.027 144.756 376.027 146.004V150.5H377.275V145.876C377.275 144.068 376.395 142.82 374.427 142.82C373.195 142.82 372.267 143.508 371.931 144.244H371.899C371.899 143.828 371.867 143.412 371.867 143.012H370.683C370.683 143.508 370.747 144.1 370.747 144.788V150.5ZM385.957 144.004C385.205 143.188 384.181 142.82 383.077 142.82C380.773 142.82 379.205 144.484 379.205 146.756C379.205 149.06 380.757 150.692 383.077 150.692C384.165 150.692 385.189 150.324 385.909 149.492L384.981 148.612C384.517 149.252 383.893 149.54 383.077 149.54C381.557 149.54 380.549 148.292 380.549 146.756C380.549 145.22 381.397 143.972 383.077 143.972C383.829 143.972 384.437 144.244 384.965 144.884L385.957 144.004ZM393.1 148.404C392.508 149.156 391.788 149.54 390.716 149.54C389.356 149.54 388.364 148.436 388.268 147.14H394.316V146.74C394.316 144.26 392.876 142.82 390.764 142.82C388.556 142.82 386.924 144.436 386.924 146.756C386.924 148.932 388.364 150.692 390.716 150.692C392.108 150.692 393.164 150.276 394.044 149.14L393.1 148.404ZM388.268 146.084C388.428 144.82 389.34 143.972 390.716 143.972C392.092 143.972 392.924 144.82 392.972 146.084H388.268ZM396.359 150.5H397.607V138.404H396.359V150.5Z" fill="#6C3078"/>
<rect x="740.5" y="126.5" width="61" height="35" rx="3.5" fill="#DB3259"/>
<path d="M763.528 148H765.292V143.758L769.016 138.088H766.916L764.452 142.036L762.016 138.088H759.804L763.528 143.758V148ZM774.953 145.228V144.766C774.953 142.428 773.679 141.112 771.803 141.112C769.773 141.112 768.149 142.526 768.149 144.64C768.149 146.754 769.773 148.168 771.803 148.168C772.867 148.168 773.861 147.79 774.645 146.824L773.441 145.914C773.021 146.432 772.475 146.824 771.635 146.824C770.697 146.824 769.941 146.222 769.829 145.228H774.953ZM769.829 143.968C769.955 143.002 770.571 142.372 771.565 142.372C772.615 142.372 773.259 142.988 773.273 143.968H769.829ZM781.228 142.134C780.682 141.392 779.73 141.112 778.834 141.112C777.476 141.112 776.132 141.784 776.132 143.282C776.132 145.844 779.758 144.752 779.758 146.138C779.758 146.67 779.128 146.908 778.638 146.908C777.924 146.908 777.476 146.558 777.042 146.082L775.922 147.132C776.608 147.902 777.504 148.168 778.54 148.168C779.912 148.168 781.438 147.608 781.438 146.012C781.438 143.394 777.812 144.374 777.812 143.17C777.812 142.666 778.344 142.456 778.792 142.456C779.366 142.456 779.786 142.694 780.108 143.142L781.228 142.134Z" fill="white"/>
<rect x="740.5" y="126.5" width="61" height="35" rx="3.5" stroke="#DB3259"/>
</g>
<defs>
<filter id="filter0_dd_224_32273" x="0" y="33" width="320" height="158" filterUnits="userSpaceOnUse" color-interpolation-filters="sRGB">
<feFlood flood-opacity="0" result="BackgroundImageFix"/>
<feColorMatrix in="SourceAlpha" type="matrix" values="0 0 0 0 0 0 0 0 0 0 0 0 0 0 0 0 0 0 127 0" result="hardAlpha"/>
<feOffset dy="3"/>
<feGaussianBlur stdDeviation="5"/>
<feComposite in2="hardAlpha" operator="out"/>
<feColorMatrix type="matrix" values="0 0 0 0 0 0 0 0 0 0 0 0 0 0 0 0 0 0 0.12 0"/>
<feBlend mode="normal" in2="BackgroundImageFix" result="effect1_dropShadow_224_32273"/>
<feColorMatrix in="SourceAlpha" type="matrix" values="0 0 0 0 0 0 0 0 0 0 0 0 0 0 0 0 0 0 127 0" result="hardAlpha"/>
<feOffset dy="4"/>
<feGaussianBlur stdDeviation="2"/>
<feComposite in2="hardAlpha" operator="out"/>
<feColorMatrix type="matrix" values="0 0 0 0 0 0 0 0 0 0 0 0 0 0 0 0 0 0 0.25 0"/>
<feBlend mode="normal" in2="effect1_dropShadow_224_32273" result="effect2_dropShadow_224_32273"/>
<feBlend mode="normal" in="SourceGraphic" in2="effect2_dropShadow_224_32273" result="shape"/>
</filter>
<filter id="filter1_dd_224_32273" x="316" y="33" width="520" height="158" filterUnits="userSpaceOnUse" color-interpolation-filters="sRGB">
<feFlood flood-opacity="0" result="BackgroundImageFix"/>
<feColorMatrix in="SourceAlpha" type="matrix" values="0 0 0 0 0 0 0 0 0 0 0 0 0 0 0 0 0 0 127 0" result="hardAlpha"/>
<feOffset dy="3"/>
<feGaussianBlur stdDeviation="5"/>
<feComposite in2="hardAlpha" operator="out"/>
<feColorMatrix type="matrix" values="0 0 0 0 0 0 0 0 0 0 0 0 0 0 0 0 0 0 0.12 0"/>
<feBlend mode="normal" in2="BackgroundImageFix" result="effect1_dropShadow_224_32273"/>
<feColorMatrix in="SourceAlpha" type="matrix" values="0 0 0 0 0 0 0 0 0 0 0 0 0 0 0 0 0 0 127 0" result="hardAlpha"/>
<feOffset dy="4"/>
<feGaussianBlur stdDeviation="2"/>
<feComposite in2="hardAlpha" operator="out"/>
<feColorMatrix type="matrix" values="0 0 0 0 0 0 0 0 0 0 0 0 0 0 0 0 0 0 0.25 0"/>
<feBlend mode="normal" in2="effect1_dropShadow_224_32273" result="effect2_dropShadow_224_32273"/>
<feBlend mode="normal" in="SourceGraphic" in2="effect2_dropShadow_224_32273" result="shape"/>
</filter>
</defs>
</svg>
