<svg width="943" height="384" viewBox="0 0 943 384" fill="none" xmlns="http://www.w3.org/2000/svg">
<rect width="943" height="384" fill="black" fill-opacity="0.35"/>
<rect x="222" y="57" width="500.582" height="270" rx="12" fill="white"/>
<path d="M245.98 95H249.42L250.6 92H256.1L257.32 95H260.84L254.68 80.84H252.1L245.98 95ZM255.04 89.36H251.58L253.3 84.96L255.04 89.36ZM272.084 79.88H269.084V86.32H269.044C268.364 85.38 267.204 85.04 265.964 85.04C263.204 85.04 261.524 87.52 261.524 90.22C261.524 93.16 263.424 95.24 266.304 95.24C267.664 95.24 268.824 94.42 269.284 93.72H269.324V95H272.084V79.88ZM269.324 90.14C269.324 91.6 268.424 92.6 266.924 92.6C265.424 92.6 264.524 91.6 264.524 90.14C264.524 88.68 265.424 87.68 266.924 87.68C268.424 87.68 269.324 88.68 269.324 90.14ZM284.682 79.88H281.682V86.32H281.642C280.962 85.38 279.802 85.04 278.562 85.04C275.802 85.04 274.122 87.52 274.122 90.22C274.122 93.16 276.022 95.24 278.902 95.24C280.262 95.24 281.422 94.42 281.882 93.72H281.922V95H284.682V79.88ZM281.922 90.14C281.922 91.6 281.022 92.6 279.522 92.6C278.022 92.6 277.122 91.6 277.122 90.14C277.122 88.68 278.022 87.68 279.522 87.68C281.022 87.68 281.922 88.68 281.922 90.14ZM302.518 81.96C301.318 80.9 299.778 80.48 298.178 80.48C295.398 80.48 292.778 82.06 292.778 85.08C292.778 89.8 299.418 88.4 299.418 91C299.418 92 298.278 92.48 297.258 92.48C296.218 92.48 295.178 91.98 294.538 91.14L292.318 93.58C293.658 94.82 295.258 95.36 297.077 95.36C299.998 95.36 302.538 93.86 302.538 90.7C302.538 85.74 296.018 87.4 296.018 84.82C296.018 83.76 297.238 83.36 298.118 83.36C298.878 83.36 299.878 83.66 300.378 84.3L302.518 81.96ZM304.522 95H307.522V85.28H304.522V95ZM304.282 82.22C304.282 83.18 305.062 83.96 306.022 83.96C306.982 83.96 307.762 83.18 307.762 82.22C307.762 81.26 306.982 80.48 306.022 80.48C305.062 80.48 304.282 81.26 304.282 82.22ZM309.677 95H312.677V90.16C312.677 88.9 312.917 87.68 314.477 87.68C315.857 87.68 315.817 89.14 315.817 89.86V95H318.817V89.86C318.817 88.66 319.257 87.68 320.637 87.68C321.617 87.68 321.957 88.44 321.957 89.34V95H324.957V89.26C324.957 86.9 324.157 85.04 321.517 85.04C320.077 85.04 319.137 85.54 318.437 86.78C317.917 85.6 316.797 85.04 315.437 85.04C313.977 85.04 312.997 85.84 312.597 86.6H312.557V85.28H309.677V95ZM327.12 95H330.12V85.28H327.12V95ZM326.88 82.22C326.88 83.18 327.66 83.96 328.62 83.96C329.58 83.96 330.36 83.18 330.36 82.22C330.36 81.26 329.58 80.48 328.62 80.48C327.66 80.48 326.88 81.26 326.88 82.22ZM332.315 95H335.315V79.88H332.315V95ZM343.57 95H346.33V90.06C346.33 86.82 345.39 85.04 341.89 85.04C340.31 85.04 338.71 85.56 337.61 86.6L339.21 88.24C339.85 87.52 340.67 87.08 341.65 87.08C342.69 87.08 343.57 87.76 343.57 88.82C341.07 88.82 336.99 88.88 336.99 92.24C336.99 94.2 338.63 95.24 340.45 95.24C341.67 95.24 342.87 94.82 343.53 93.78H343.57V95ZM343.57 90.74V91.38C343.57 92.58 342.47 93.2 341.29 93.2C340.63 93.2 339.87 92.86 339.87 92.14C339.87 90.82 341.91 90.74 342.83 90.74H343.57ZM348.212 95H351.212V90.94C351.212 89 351.492 87.68 353.772 87.68C354.212 87.68 354.632 87.76 355.052 87.88V85.14C354.772 85.06 354.392 85.04 354.052 85.04C352.732 85.04 351.892 85.66 351.252 86.84H351.212V85.28H348.212V95ZM362.655 95H367.755C371.975 95 375.715 92.54 375.715 87.96C375.715 82.78 371.895 80.84 367.335 80.84H362.655V95ZM365.775 83.72H367.615C370.255 83.72 372.475 85.02 372.475 87.8C372.475 91.02 370.295 92.12 367.395 92.12H365.775V83.72ZM383.551 95H386.311V90.06C386.311 86.82 385.371 85.04 381.871 85.04C380.291 85.04 378.691 85.56 377.591 86.6L379.191 88.24C379.831 87.52 380.651 87.08 381.631 87.08C382.671 87.08 383.551 87.76 383.551 88.82C381.051 88.82 376.971 88.88 376.971 92.24C376.971 94.2 378.611 95.24 380.431 95.24C381.651 95.24 382.851 94.82 383.511 93.78H383.551V95ZM383.551 90.74V91.38C383.551 92.58 382.451 93.2 381.271 93.2C380.611 93.2 379.851 92.86 379.851 92.14C379.851 90.82 381.891 90.74 382.811 90.74H383.551ZM398.193 85.28H395.113L392.973 91.7H392.933L390.433 85.28H387.193L391.453 95.08L391.233 95.64C390.813 96.7 390.593 97.28 389.233 97.28C388.733 97.28 388.293 97.18 387.833 96.98L387.433 99.44C388.153 99.68 388.913 99.8 389.673 99.8C392.533 99.8 392.993 98.64 393.793 96.58L398.193 85.28ZM402.566 90.32H405.566V89.74C405.566 89.3 405.726 88.84 406.346 88.36C408.246 86.86 408.826 85.94 408.826 84.42C408.826 81.84 406.766 80.48 404.326 80.48C401.546 80.48 399.606 82 399.326 84.82L402.406 85.02C402.486 84.04 403.146 83.24 404.386 83.24C405.206 83.24 405.826 83.76 405.826 84.64C405.826 85.56 404.746 86.22 403.266 87.64C402.766 88.12 402.566 88.64 402.566 89.44V90.32ZM402.226 93.28C402.226 94.3 403.046 95.12 404.066 95.12C405.086 95.12 405.906 94.3 405.906 93.28C405.906 92.26 405.086 91.44 404.066 91.44C403.046 91.44 402.226 92.26 402.226 93.28Z" fill="#333333"/>
<path d="M688.06 88L692.48 83.58C692.554 83.5113 692.613 83.4285 692.654 83.3365C692.695 83.2445 692.717 83.1452 692.719 83.0445C692.72 82.9438 692.702 82.8437 692.664 82.7504C692.626 82.657 692.57 82.5721 692.499 82.5009C692.428 82.4297 692.343 82.3736 692.25 82.3358C692.156 82.2981 692.056 82.2796 691.955 82.2814C691.855 82.2831 691.755 82.3052 691.663 82.3462C691.571 82.3872 691.489 82.4463 691.42 82.52L687 86.94L682.58 82.52C682.438 82.3875 682.25 82.3154 682.055 82.3188C681.861 82.3222 681.676 82.4009 681.538 82.5383C681.401 82.6757 681.322 82.8611 681.319 83.0554C681.315 83.2497 681.388 83.4378 681.52 83.58L685.94 88L681.52 92.42C681.38 92.5606 681.301 92.7512 681.301 92.95C681.301 93.1487 681.38 93.3393 681.52 93.48C681.661 93.6204 681.851 93.6993 682.05 93.6993C682.249 93.6993 682.439 93.6204 682.58 93.48L687 89.06L691.42 93.48C691.561 93.6204 691.751 93.6993 691.95 93.6993C692.149 93.6993 692.339 93.6204 692.48 93.48C692.62 93.3393 692.699 93.1487 692.699 92.95C692.699 92.7512 692.62 92.5606 692.48 92.42L688.06 88Z" fill="#6B778C"/>
<rect x="637.5" y="271.5" width="61" height="35" rx="3.5" fill="#6C3078"/>
<path d="M657.574 288.086C657.574 291.18 659.758 293.252 662.81 293.252C665.904 293.196 668.088 291.124 668.088 288.03C668.088 284.852 665.904 282.78 662.81 282.836C659.758 282.836 657.574 284.908 657.574 288.086ZM659.422 287.974C659.422 286 660.78 284.432 662.824 284.432C664.882 284.432 666.24 286 666.24 287.974C666.24 290.088 664.882 291.656 662.824 291.656C660.78 291.656 659.422 290.088 659.422 287.974ZM669.768 293H671.532V288.128H671.63L675.928 293H678.406L673.464 287.666L678.098 283.088H675.718L671.616 287.288H671.532V283.088H669.768V293Z" fill="white"/>
<rect x="637.5" y="271.5" width="61" height="35" rx="3.5" stroke="#6C3078"/>
<path d="M327.82 148H334.348V146.752H329.164V136.672H327.82V148ZM335.164 144.256C335.164 146.592 336.86 148.192 339.164 148.192C341.468 148.192 343.164 146.592 343.164 144.256C343.164 141.92 341.468 140.32 339.164 140.32C336.86 140.32 335.164 141.92 335.164 144.256ZM336.508 144.256C336.508 142.688 337.548 141.472 339.164 141.472C340.78 141.472 341.82 142.688 341.82 144.256C341.82 145.824 340.78 147.04 339.164 147.04C337.548 147.04 336.508 145.824 336.508 144.256ZM345.096 148H346.344V144.352C346.344 142.64 347.016 141.568 348.536 141.568C348.76 141.568 349 141.6 349.208 141.664L349.288 140.4C349.112 140.336 348.936 140.32 348.776 140.32C347.544 140.32 346.616 141.008 346.28 141.744H346.248C346.248 141.328 346.216 140.912 346.216 140.512H345.032C345.032 141.008 345.096 141.6 345.096 142.288V148ZM356.183 145.904C355.591 146.656 354.871 147.04 353.799 147.04C352.439 147.04 351.447 145.936 351.351 144.64H357.399V144.24C357.399 141.76 355.959 140.32 353.847 140.32C351.639 140.32 350.007 141.936 350.007 144.256C350.007 146.432 351.447 148.192 353.799 148.192C355.191 148.192 356.247 147.776 357.127 146.64L356.183 145.904ZM351.351 143.584C351.511 142.32 352.423 141.472 353.799 141.472C355.175 141.472 356.007 142.32 356.055 143.584H351.351ZM359.33 148H360.578V144.352C360.578 142.64 361.282 141.472 362.898 141.472C363.922 141.472 364.338 142.112 364.338 143.76V148H365.586V143.68C365.586 142.336 366.466 141.472 367.522 141.472C368.978 141.472 369.346 142.48 369.346 143.52V148H370.594V143.456C370.594 141.52 369.89 140.32 367.746 140.32C366.61 140.32 365.922 140.864 365.378 141.744C365.138 141.232 364.626 140.32 363.01 140.32C361.778 140.32 360.85 141.008 360.514 141.744H360.482C360.482 141.328 360.45 140.912 360.45 140.512H359.266C359.266 141.008 359.33 141.6 359.33 142.288V148ZM377.52 148H378.768V140.512H377.52V148ZM377.232 137.584C377.232 138.112 377.616 138.496 378.144 138.496C378.672 138.496 379.056 138.112 379.056 137.584C379.056 137.088 378.656 136.672 378.144 136.672C377.632 136.672 377.232 137.088 377.232 137.584ZM381.188 151.648H382.436V146.672H382.468C382.932 147.52 384.004 148.192 385.348 148.192C387.444 148.192 389.092 146.496 389.092 144.256C389.092 141.984 387.508 140.32 385.156 140.32C384.068 140.32 383.156 140.8 382.468 141.6H382.436V140.512H381.188V151.648ZM382.436 144.256C382.436 142.688 383.476 141.472 385.092 141.472C386.708 141.472 387.748 142.688 387.748 144.256C387.748 145.824 386.708 147.04 385.092 147.04C383.476 147.04 382.436 145.824 382.436 144.256ZM390.201 146.8C390.937 147.856 391.849 148.192 393.113 148.192C394.601 148.192 396.105 147.536 396.105 145.84C396.105 144.336 394.985 143.856 393.657 143.6C392.665 143.408 391.769 143.136 391.769 142.512C391.769 141.808 392.553 141.472 393.241 141.472C393.977 141.472 394.505 141.84 394.825 142.368L395.865 141.68C395.353 140.72 394.377 140.32 393.321 140.32C391.929 140.32 390.521 141.072 390.521 142.528C390.521 144.08 391.737 144.384 393.161 144.704C393.961 144.88 394.761 145.088 394.761 145.888C394.761 146.704 393.897 147.04 393.113 147.04C392.233 147.04 391.689 146.64 391.193 146.032L390.201 146.8ZM404.374 140.512H403.126V144.16C403.126 145.872 402.422 147.04 400.806 147.04C399.638 147.04 399.094 146.256 399.094 145.008V140.512H397.846V145.136C397.846 146.944 398.726 148.192 400.694 148.192C401.926 148.192 402.854 147.504 403.19 146.768H403.222C403.222 147.184 403.254 147.6 403.254 148H404.438C404.438 147.504 404.374 146.912 404.374 146.224V140.512ZM406.736 148H407.984V144.352C407.984 142.64 408.688 141.472 410.304 141.472C411.328 141.472 411.744 142.112 411.744 143.76V148H412.992V143.68C412.992 142.336 413.872 141.472 414.928 141.472C416.384 141.472 416.752 142.48 416.752 143.52V148H418V143.456C418 141.52 417.296 140.32 415.152 140.32C414.016 140.32 413.328 140.864 412.784 141.744C412.544 141.232 412.032 140.32 410.416 140.32C409.184 140.32 408.256 141.008 407.92 141.744H407.888C407.888 141.328 407.856 140.912 407.856 140.512H406.672C406.672 141.008 406.736 141.6 406.736 142.288V148ZM431.038 148H432.286V135.904H431.038V141.6H431.006C430.318 140.8 429.406 140.32 428.318 140.32C425.966 140.32 424.382 141.984 424.382 144.256C424.382 146.496 426.03 148.192 428.126 148.192C429.47 148.192 430.542 147.52 431.006 146.672H431.038V148ZM431.038 144.256C431.038 145.824 429.998 147.04 428.382 147.04C426.766 147.04 425.726 145.824 425.726 144.256C425.726 142.688 426.766 141.472 428.382 141.472C429.998 141.472 431.038 142.688 431.038 144.256ZM434.164 144.256C434.164 146.592 435.86 148.192 438.164 148.192C440.468 148.192 442.164 146.592 442.164 144.256C442.164 141.92 440.468 140.32 438.164 140.32C435.86 140.32 434.164 141.92 434.164 144.256ZM435.508 144.256C435.508 142.688 436.548 141.472 438.164 141.472C439.78 141.472 440.82 142.688 440.82 144.256C440.82 145.824 439.78 147.04 438.164 147.04C436.548 147.04 435.508 145.824 435.508 144.256ZM444.208 148H445.456V135.904H444.208V148ZM447.507 144.256C447.507 146.592 449.203 148.192 451.507 148.192C453.811 148.192 455.507 146.592 455.507 144.256C455.507 141.92 453.811 140.32 451.507 140.32C449.203 140.32 447.507 141.92 447.507 144.256ZM448.851 144.256C448.851 142.688 449.891 141.472 451.507 141.472C453.123 141.472 454.163 142.688 454.163 144.256C454.163 145.824 453.123 147.04 451.507 147.04C449.891 147.04 448.851 145.824 448.851 144.256ZM457.439 148H458.687V144.352C458.687 142.64 459.359 141.568 460.879 141.568C461.103 141.568 461.343 141.6 461.551 141.664L461.631 140.4C461.455 140.336 461.279 140.32 461.119 140.32C459.887 140.32 458.959 141.008 458.623 141.744H458.591C458.591 141.328 458.559 140.912 458.559 140.512H457.375C457.375 141.008 457.439 141.6 457.439 142.288V148ZM466.685 146.8C467.421 147.856 468.333 148.192 469.597 148.192C471.085 148.192 472.589 147.536 472.589 145.84C472.589 144.336 471.469 143.856 470.141 143.6C469.149 143.408 468.253 143.136 468.253 142.512C468.253 141.808 469.037 141.472 469.725 141.472C470.461 141.472 470.989 141.84 471.309 142.368L472.349 141.68C471.837 140.72 470.861 140.32 469.805 140.32C468.413 140.32 467.005 141.072 467.005 142.528C467.005 144.08 468.221 144.384 469.645 144.704C470.445 144.88 471.245 145.088 471.245 145.888C471.245 146.704 470.381 147.04 469.597 147.04C468.717 147.04 468.173 146.64 467.677 146.032L466.685 146.8ZM474.442 148H475.69V140.512H474.442V148ZM474.154 137.584C474.154 138.112 474.538 138.496 475.066 138.496C475.594 138.496 475.978 138.112 475.978 137.584C475.978 137.088 475.578 136.672 475.066 136.672C474.554 136.672 474.154 137.088 474.154 137.584ZM482.27 140.512H480.062V138.384H478.814V140.512H477.182V141.568H478.814V145.68C478.814 147.232 479.102 148.192 480.878 148.192C481.342 148.192 481.902 148.112 482.334 147.92L482.286 146.784C481.95 146.96 481.55 147.04 481.182 147.04C480.078 147.04 480.062 146.272 480.062 145.312V141.568H482.27V140.512ZM488.94 142.288C489.532 141.744 490.364 141.472 491.164 141.472C492.332 141.472 493.02 142.032 493.02 143.12V143.344H492.54C490.7 143.344 487.82 143.488 487.82 145.968C487.82 147.424 489.084 148.192 490.604 148.192C491.74 148.192 492.572 147.648 493.068 146.88H493.1C493.1 147.2 493.1 147.664 493.18 148H494.38C494.316 147.616 494.268 147.136 494.268 146.704V143.488C494.268 141.376 493.34 140.32 491.132 140.32C490.044 140.32 488.924 140.688 488.156 141.472L488.94 142.288ZM493.02 144.4V144.88C492.988 146.096 492.252 147.136 490.812 147.136C489.868 147.136 489.164 146.784 489.164 145.84C489.164 144.832 490.188 144.4 491.772 144.4H493.02ZM496.549 148H497.797V144.352C497.797 142.64 498.501 141.472 500.117 141.472C501.141 141.472 501.557 142.112 501.557 143.76V148H502.805V143.68C502.805 142.336 503.685 141.472 504.741 141.472C506.197 141.472 506.565 142.48 506.565 143.52V148H507.813V143.456C507.813 141.52 507.109 140.32 504.965 140.32C503.829 140.32 503.141 140.864 502.597 141.744C502.357 141.232 501.845 140.32 500.229 140.32C498.997 140.32 498.069 141.008 497.733 141.744H497.701C497.701 141.328 497.669 140.912 497.669 140.512H496.485C496.485 141.008 496.549 141.6 496.549 142.288V148ZM515.918 145.904C515.326 146.656 514.606 147.04 513.534 147.04C512.174 147.04 511.182 145.936 511.086 144.64H517.134V144.24C517.134 141.76 515.694 140.32 513.582 140.32C511.374 140.32 509.742 141.936 509.742 144.256C509.742 146.432 511.182 148.192 513.534 148.192C514.926 148.192 515.982 147.776 516.862 146.64L515.918 145.904ZM511.086 143.584C511.246 142.32 512.158 141.472 513.534 141.472C514.91 141.472 515.742 142.32 515.79 143.584H511.086ZM523.16 140.512H520.952V138.384H519.704V140.512H518.072V141.568H519.704V145.68C519.704 147.232 519.992 148.192 521.768 148.192C522.232 148.192 522.792 148.112 523.224 147.92L523.176 146.784C522.84 146.96 522.44 147.04 522.072 147.04C520.968 147.04 520.952 146.272 520.952 145.312V141.568H523.16V140.512ZM526.881 146.368H525.425L524.337 150.208H525.569L526.881 146.368ZM539.916 141.504C539.164 140.688 538.14 140.32 537.036 140.32C534.732 140.32 533.164 141.984 533.164 144.256C533.164 146.56 534.716 148.192 537.036 148.192C538.124 148.192 539.148 147.824 539.868 146.992L538.94 146.112C538.476 146.752 537.852 147.04 537.036 147.04C535.516 147.04 534.508 145.792 534.508 144.256C534.508 142.72 535.356 141.472 537.036 141.472C537.788 141.472 538.396 141.744 538.924 142.384L539.916 141.504ZM540.882 144.256C540.882 146.592 542.578 148.192 544.882 148.192C547.186 148.192 548.882 146.592 548.882 144.256C548.882 141.92 547.186 140.32 544.882 140.32C542.578 140.32 540.882 141.92 540.882 144.256ZM542.226 144.256C542.226 142.688 543.266 141.472 544.882 141.472C546.498 141.472 547.538 142.688 547.538 144.256C547.538 145.824 546.498 147.04 544.882 147.04C543.266 147.04 542.226 145.824 542.226 144.256ZM550.814 148H552.062V144.352C552.062 142.64 552.766 141.472 554.382 141.472C555.55 141.472 556.094 142.256 556.094 143.504V148H557.342V143.376C557.342 141.568 556.462 140.32 554.494 140.32C553.262 140.32 552.334 141.008 551.998 141.744H551.966C551.966 141.328 551.934 140.912 551.934 140.512H550.75C550.75 141.008 550.814 141.6 550.814 142.288V148ZM558.873 146.8C559.609 147.856 560.521 148.192 561.785 148.192C563.273 148.192 564.777 147.536 564.777 145.84C564.777 144.336 563.657 143.856 562.329 143.6C561.337 143.408 560.441 143.136 560.441 142.512C560.441 141.808 561.225 141.472 561.913 141.472C562.649 141.472 563.177 141.84 563.497 142.368L564.537 141.68C564.025 140.72 563.049 140.32 561.993 140.32C560.601 140.32 559.193 141.072 559.193 142.528C559.193 144.08 560.409 144.384 561.833 144.704C562.633 144.88 563.433 145.088 563.433 145.888C563.433 146.704 562.569 147.04 561.785 147.04C560.905 147.04 560.361 146.64 559.865 146.032L558.873 146.8ZM572.261 145.904C571.669 146.656 570.949 147.04 569.877 147.04C568.517 147.04 567.525 145.936 567.429 144.64H573.477V144.24C573.477 141.76 572.037 140.32 569.925 140.32C567.717 140.32 566.085 141.936 566.085 144.256C566.085 146.432 567.525 148.192 569.877 148.192C571.269 148.192 572.325 147.776 573.205 146.64L572.261 145.904ZM567.429 143.584C567.589 142.32 568.501 141.472 569.877 141.472C571.253 141.472 572.085 142.32 572.133 143.584H567.429ZM581.728 141.504C580.976 140.688 579.952 140.32 578.848 140.32C576.544 140.32 574.976 141.984 574.976 144.256C574.976 146.56 576.528 148.192 578.848 148.192C579.936 148.192 580.96 147.824 581.68 146.992L580.752 146.112C580.288 146.752 579.664 147.04 578.848 147.04C577.328 147.04 576.32 145.792 576.32 144.256C576.32 142.72 577.168 141.472 578.848 141.472C579.6 141.472 580.208 141.744 580.736 142.384L581.728 141.504ZM587.223 140.512H585.015V138.384H583.767V140.512H582.135V141.568H583.767V145.68C583.767 147.232 584.055 148.192 585.831 148.192C586.295 148.192 586.855 148.112 587.287 147.92L587.239 146.784C586.903 146.96 586.503 147.04 586.135 147.04C585.031 147.04 585.015 146.272 585.015 145.312V141.568H587.223V140.512ZM594.496 145.904C593.904 146.656 593.184 147.04 592.112 147.04C590.752 147.04 589.76 145.936 589.664 144.64H595.712V144.24C595.712 141.76 594.272 140.32 592.16 140.32C589.952 140.32 588.32 141.936 588.32 144.256C588.32 146.432 589.76 148.192 592.112 148.192C593.504 148.192 594.56 147.776 595.44 146.64L594.496 145.904ZM589.664 143.584C589.824 142.32 590.736 141.472 592.112 141.472C593.488 141.472 594.32 142.32 594.368 143.584H589.664ZM601.738 140.512H599.53V138.384H598.282V140.512H596.65V141.568H598.282V145.68C598.282 147.232 598.57 148.192 600.346 148.192C600.81 148.192 601.37 148.112 601.802 147.92L601.754 146.784C601.418 146.96 601.018 147.04 600.65 147.04C599.546 147.04 599.53 146.272 599.53 145.312V141.568H601.738V140.512ZM609.795 140.512H608.547V144.16C608.547 145.872 607.843 147.04 606.227 147.04C605.059 147.04 604.515 146.256 604.515 145.008V140.512H603.267V145.136C603.267 146.944 604.147 148.192 606.115 148.192C607.347 148.192 608.275 147.504 608.611 146.768H608.643C608.643 147.184 608.675 147.6 608.675 148H609.859C609.859 147.504 609.795 146.912 609.795 146.224V140.512ZM612.158 148H613.406V144.352C613.406 142.64 614.078 141.568 615.598 141.568C615.822 141.568 616.062 141.6 616.27 141.664L616.35 140.4C616.174 140.336 615.998 140.32 615.838 140.32C614.606 140.32 613.678 141.008 613.342 141.744H613.31C613.31 141.328 613.278 140.912 613.278 140.512H612.094C612.094 141.008 612.158 141.6 612.158 142.288V148ZM295.26 166.288C295.852 165.744 296.684 165.472 297.484 165.472C298.652 165.472 299.34 166.032 299.34 167.12V167.344H298.86C297.02 167.344 294.14 167.488 294.14 169.968C294.14 171.424 295.404 172.192 296.924 172.192C298.06 172.192 298.892 171.648 299.388 170.88H299.42C299.42 171.2 299.42 171.664 299.5 172H300.7C300.636 171.616 300.588 171.136 300.588 170.704V167.488C300.588 165.376 299.66 164.32 297.452 164.32C296.364 164.32 295.244 164.688 294.476 165.472L295.26 166.288ZM299.34 168.4V168.88C299.308 170.096 298.572 171.136 297.132 171.136C296.188 171.136 295.484 170.784 295.484 169.84C295.484 168.832 296.508 168.4 298.092 168.4H299.34ZM309.093 172H310.341V159.904H309.093V165.6H309.061C308.373 164.8 307.461 164.32 306.373 164.32C304.021 164.32 302.437 165.984 302.437 168.256C302.437 170.496 304.085 172.192 306.181 172.192C307.525 172.192 308.597 171.52 309.061 170.672H309.093V172ZM309.093 168.256C309.093 169.824 308.053 171.04 306.437 171.04C304.821 171.04 303.781 169.824 303.781 168.256C303.781 166.688 304.821 165.472 306.437 165.472C308.053 165.472 309.093 166.688 309.093 168.256ZM312.762 172H314.01V164.512H312.762V172ZM312.474 161.584C312.474 162.112 312.858 162.496 313.386 162.496C313.914 162.496 314.298 162.112 314.298 161.584C314.298 161.088 313.898 160.672 313.386 160.672C312.874 160.672 312.474 161.088 312.474 161.584ZM316.43 175.648H317.678V170.672H317.71C318.174 171.52 319.246 172.192 320.59 172.192C322.686 172.192 324.334 170.496 324.334 168.256C324.334 165.984 322.75 164.32 320.398 164.32C319.31 164.32 318.398 164.8 317.71 165.6H317.678V164.512H316.43V175.648ZM317.678 168.256C317.678 166.688 318.718 165.472 320.334 165.472C321.95 165.472 322.99 166.688 322.99 168.256C322.99 169.824 321.95 171.04 320.334 171.04C318.718 171.04 317.678 169.824 317.678 168.256ZM326.387 172H327.635V164.512H326.387V172ZM326.099 161.584C326.099 162.112 326.483 162.496 327.011 162.496C327.539 162.496 327.923 162.112 327.923 161.584C327.923 161.088 327.523 160.672 327.011 160.672C326.499 160.672 326.099 161.088 326.099 161.584ZM329.287 170.8C330.023 171.856 330.935 172.192 332.199 172.192C333.687 172.192 335.191 171.536 335.191 169.84C335.191 168.336 334.071 167.856 332.743 167.6C331.751 167.408 330.855 167.136 330.855 166.512C330.855 165.808 331.639 165.472 332.327 165.472C333.063 165.472 333.591 165.84 333.911 166.368L334.951 165.68C334.439 164.72 333.463 164.32 332.407 164.32C331.015 164.32 329.607 165.072 329.607 166.528C329.607 168.08 330.823 168.384 332.247 168.704C333.047 168.88 333.847 169.088 333.847 169.888C333.847 170.704 332.983 171.04 332.199 171.04C331.319 171.04 330.775 170.64 330.279 170.032L329.287 170.8ZM343.252 165.504C342.5 164.688 341.476 164.32 340.372 164.32C338.068 164.32 336.5 165.984 336.5 168.256C336.5 170.56 338.052 172.192 340.372 172.192C341.46 172.192 342.484 171.824 343.204 170.992L342.276 170.112C341.812 170.752 341.188 171.04 340.372 171.04C338.852 171.04 337.844 169.792 337.844 168.256C337.844 166.72 338.692 165.472 340.372 165.472C341.124 165.472 341.732 165.744 342.26 166.384L343.252 165.504ZM344.762 172H346.01V164.512H344.762V172ZM344.474 161.584C344.474 162.112 344.858 162.496 345.386 162.496C345.914 162.496 346.298 162.112 346.298 161.584C346.298 161.088 345.898 160.672 345.386 160.672C344.874 160.672 344.474 161.088 344.474 161.584ZM348.494 172H349.742V168.352C349.742 166.64 350.446 165.472 352.062 165.472C353.23 165.472 353.774 166.256 353.774 167.504V172H355.022V167.376C355.022 165.568 354.142 164.32 352.174 164.32C350.942 164.32 350.014 165.008 349.678 165.744H349.646C349.646 165.328 349.614 164.912 349.614 164.512H348.43C348.43 165.008 348.494 165.6 348.494 166.288V172ZM364.857 164.512H363.609V165.792H363.577C363.081 164.8 361.945 164.32 360.937 164.32C358.553 164.32 356.953 165.808 356.953 168.256C356.953 170.464 358.585 172.096 360.937 172.096C361.929 172.096 362.985 171.664 363.577 170.704H363.609V171.664C363.609 173.248 363.017 174.688 360.777 174.688C359.625 174.688 358.777 174.24 357.993 173.392L357.097 174.416C358.153 175.456 359.321 175.84 360.777 175.84C363.401 175.84 364.857 174.368 364.857 171.664V164.512ZM358.297 168.256C358.297 166.688 359.369 165.472 360.937 165.472C362.521 165.472 363.609 166.608 363.609 168.224C363.609 169.664 362.649 170.944 360.937 170.944C359.481 170.944 358.297 169.776 358.297 168.256ZM377.363 169.904C376.771 170.656 376.051 171.04 374.979 171.04C373.619 171.04 372.627 169.936 372.531 168.64H378.579V168.24C378.579 165.76 377.139 164.32 375.027 164.32C372.819 164.32 371.187 165.936 371.187 168.256C371.187 170.432 372.627 172.192 374.979 172.192C376.371 172.192 377.427 171.776 378.307 170.64L377.363 169.904ZM372.531 167.584C372.691 166.32 373.603 165.472 374.979 165.472C376.355 165.472 377.187 166.32 377.235 167.584H372.531ZM380.622 172H381.87V159.904H380.622V172ZM384.465 172H385.713V164.512H384.465V172ZM384.177 161.584C384.177 162.112 384.561 162.496 385.089 162.496C385.617 162.496 386.001 162.112 386.001 161.584C386.001 161.088 385.601 160.672 385.089 160.672C384.577 160.672 384.177 161.088 384.177 161.584ZM392.293 164.512H390.085V162.384H388.837V164.512H387.205V165.568H388.837V169.68C388.837 171.232 389.125 172.192 390.901 172.192C391.365 172.192 391.925 172.112 392.357 171.92L392.309 170.784C391.973 170.96 391.573 171.04 391.205 171.04C390.101 171.04 390.085 170.272 390.085 169.312V165.568H392.293V164.512ZM396.014 170.368H394.558L393.47 174.208H394.702L396.014 170.368ZM401.896 170.8C402.632 171.856 403.544 172.192 404.808 172.192C406.296 172.192 407.8 171.536 407.8 169.84C407.8 168.336 406.68 167.856 405.352 167.6C404.36 167.408 403.464 167.136 403.464 166.512C403.464 165.808 404.248 165.472 404.936 165.472C405.672 165.472 406.2 165.84 406.52 166.368L407.56 165.68C407.048 164.72 406.072 164.32 405.016 164.32C403.624 164.32 402.216 165.072 402.216 166.528C402.216 168.08 403.432 168.384 404.856 168.704C405.656 168.88 406.456 169.088 406.456 169.888C406.456 170.704 405.592 171.04 404.808 171.04C403.928 171.04 403.384 170.64 402.888 170.032L401.896 170.8ZM415.285 169.904C414.693 170.656 413.973 171.04 412.901 171.04C411.541 171.04 410.549 169.936 410.453 168.64H416.501V168.24C416.501 165.76 415.061 164.32 412.949 164.32C410.741 164.32 409.109 165.936 409.109 168.256C409.109 170.432 410.549 172.192 412.901 172.192C414.293 172.192 415.349 171.776 416.229 170.64L415.285 169.904ZM410.453 167.584C410.613 166.32 411.525 165.472 412.901 165.472C414.277 165.472 415.109 166.32 415.157 167.584H410.453ZM424.656 172H425.904V159.904H424.656V165.6H424.624C423.936 164.8 423.024 164.32 421.936 164.32C419.584 164.32 418 165.984 418 168.256C418 170.496 419.648 172.192 421.744 172.192C423.088 172.192 424.16 171.52 424.624 170.672H424.656V172ZM424.656 168.256C424.656 169.824 423.616 171.04 422 171.04C420.384 171.04 419.344 169.824 419.344 168.256C419.344 166.688 420.384 165.472 422 165.472C423.616 165.472 424.656 166.688 424.656 168.256ZM438.89 172H440.138V159.904H438.89V165.6H438.858C438.17 164.8 437.258 164.32 436.17 164.32C433.818 164.32 432.234 165.984 432.234 168.256C432.234 170.496 433.882 172.192 435.978 172.192C437.322 172.192 438.394 171.52 438.858 170.672H438.89V172ZM438.89 168.256C438.89 169.824 437.85 171.04 436.234 171.04C434.618 171.04 433.578 169.824 433.578 168.256C433.578 166.688 434.618 165.472 436.234 165.472C437.85 165.472 438.89 166.688 438.89 168.256ZM442.015 168.256C442.015 170.592 443.711 172.192 446.015 172.192C448.319 172.192 450.015 170.592 450.015 168.256C450.015 165.92 448.319 164.32 446.015 164.32C443.711 164.32 442.015 165.92 442.015 168.256ZM443.359 168.256C443.359 166.688 444.399 165.472 446.015 165.472C447.631 165.472 448.671 166.688 448.671 168.256C448.671 169.824 447.631 171.04 446.015 171.04C444.399 171.04 443.359 169.824 443.359 168.256ZM462.144 169.904C461.552 170.656 460.832 171.04 459.76 171.04C458.4 171.04 457.408 169.936 457.312 168.64H463.36V168.24C463.36 165.76 461.92 164.32 459.808 164.32C457.6 164.32 455.968 165.936 455.968 168.256C455.968 170.432 457.408 172.192 459.76 172.192C461.152 172.192 462.208 171.776 463.088 170.64L462.144 169.904ZM457.312 167.584C457.472 166.32 458.384 165.472 459.76 165.472C461.136 165.472 461.968 166.32 462.016 167.584H457.312ZM465.403 172H466.651V164.512H465.403V172ZM465.115 161.584C465.115 162.112 465.499 162.496 466.027 162.496C466.555 162.496 466.939 162.112 466.939 161.584C466.939 161.088 466.539 160.672 466.027 160.672C465.515 160.672 465.115 161.088 465.115 161.584ZM475.663 164.512H474.415V168.16C474.415 169.872 473.711 171.04 472.095 171.04C470.927 171.04 470.383 170.256 470.383 169.008V164.512H469.135V169.136C469.135 170.944 470.015 172.192 471.983 172.192C473.215 172.192 474.143 171.504 474.479 170.768H474.511C474.511 171.184 474.543 171.6 474.543 172H475.727C475.727 171.504 475.663 170.912 475.663 170.224V164.512ZM477.193 170.8C477.929 171.856 478.841 172.192 480.105 172.192C481.593 172.192 483.097 171.536 483.097 169.84C483.097 168.336 481.977 167.856 480.649 167.6C479.657 167.408 478.761 167.136 478.761 166.512C478.761 165.808 479.545 165.472 480.233 165.472C480.969 165.472 481.497 165.84 481.817 166.368L482.857 165.68C482.345 164.72 481.369 164.32 480.313 164.32C478.921 164.32 477.513 165.072 477.513 166.528C477.513 168.08 478.729 168.384 480.153 168.704C480.953 168.88 481.753 169.088 481.753 169.888C481.753 170.704 480.889 171.04 480.105 171.04C479.225 171.04 478.681 170.64 478.185 170.032L477.193 170.8ZM484.838 172H486.086V168.352C486.086 166.64 486.79 165.472 488.406 165.472C489.43 165.472 489.846 166.112 489.846 167.76V172H491.094V167.68C491.094 166.336 491.974 165.472 493.03 165.472C494.486 165.472 494.854 166.48 494.854 167.52V172H496.102V167.456C496.102 165.52 495.398 164.32 493.254 164.32C492.118 164.32 491.43 164.864 490.886 165.744C490.646 165.232 490.134 164.32 488.518 164.32C487.286 164.32 486.358 165.008 486.022 165.744H485.99C485.99 165.328 485.958 164.912 485.958 164.512H484.774C484.774 165.008 484.838 165.6 484.838 166.288V172ZM498.031 168.256C498.031 170.592 499.727 172.192 502.031 172.192C504.335 172.192 506.031 170.592 506.031 168.256C506.031 165.92 504.335 164.32 502.031 164.32C499.727 164.32 498.031 165.92 498.031 168.256ZM499.375 168.256C499.375 166.688 500.415 165.472 502.031 165.472C503.647 165.472 504.687 166.688 504.687 168.256C504.687 169.824 503.647 171.04 502.031 171.04C500.415 171.04 499.375 169.824 499.375 168.256ZM514.187 172H515.435V159.904H514.187V165.6H514.155C513.467 164.8 512.555 164.32 511.467 164.32C509.115 164.32 507.531 165.984 507.531 168.256C507.531 170.496 509.179 172.192 511.275 172.192C512.619 172.192 513.691 171.52 514.155 170.672H514.187V172ZM514.187 168.256C514.187 169.824 513.147 171.04 511.531 171.04C509.915 171.04 508.875 169.824 508.875 168.256C508.875 166.688 509.915 165.472 511.531 165.472C513.147 165.472 514.187 166.688 514.187 168.256ZM526.293 164.512H524.085V162.384H522.837V164.512H521.205V165.568H522.837V169.68C522.837 171.232 523.125 172.192 524.901 172.192C525.365 172.192 525.925 172.112 526.357 171.92L526.309 170.784C525.973 170.96 525.573 171.04 525.205 171.04C524.101 171.04 524.085 170.272 524.085 169.312V165.568H526.293V164.512ZM533.566 169.904C532.974 170.656 532.254 171.04 531.182 171.04C529.822 171.04 528.83 169.936 528.734 168.64H534.782V168.24C534.782 165.76 533.342 164.32 531.23 164.32C529.022 164.32 527.39 165.936 527.39 168.256C527.39 170.432 528.83 172.192 531.182 172.192C532.574 172.192 533.63 171.776 534.51 170.64L533.566 169.904ZM528.734 167.584C528.894 166.32 529.806 165.472 531.182 165.472C532.558 165.472 533.39 166.32 533.438 167.584H528.734ZM536.713 172H537.961V168.352C537.961 166.64 538.665 165.472 540.281 165.472C541.305 165.472 541.721 166.112 541.721 167.76V172H542.969V167.68C542.969 166.336 543.849 165.472 544.905 165.472C546.361 165.472 546.729 166.48 546.729 167.52V172H547.977V167.456C547.977 165.52 547.273 164.32 545.129 164.32C543.993 164.32 543.305 164.864 542.761 165.744C542.521 165.232 542.009 164.32 540.393 164.32C539.161 164.32 538.233 165.008 537.897 165.744H537.865C537.865 165.328 537.833 164.912 537.833 164.512H536.649C536.649 165.008 536.713 165.6 536.713 166.288V172ZM550.274 175.648H551.522V170.672H551.554C552.018 171.52 553.09 172.192 554.434 172.192C556.53 172.192 558.178 170.496 558.178 168.256C558.178 165.984 556.594 164.32 554.242 164.32C553.154 164.32 552.242 164.8 551.554 165.6H551.522V164.512H550.274V175.648ZM551.522 168.256C551.522 166.688 552.562 165.472 554.178 165.472C555.794 165.472 556.834 166.688 556.834 168.256C556.834 169.824 555.794 171.04 554.178 171.04C552.562 171.04 551.522 169.824 551.522 168.256ZM559.687 168.256C559.687 170.592 561.383 172.192 563.687 172.192C565.991 172.192 567.687 170.592 567.687 168.256C567.687 165.92 565.991 164.32 563.687 164.32C561.383 164.32 559.687 165.92 559.687 168.256ZM561.031 168.256C561.031 166.688 562.071 165.472 563.687 165.472C565.303 165.472 566.343 166.688 566.343 168.256C566.343 169.824 565.303 171.04 563.687 171.04C562.071 171.04 561.031 169.824 561.031 168.256ZM569.619 172H570.867V168.352C570.867 166.64 571.539 165.568 573.059 165.568C573.283 165.568 573.523 165.6 573.731 165.664L573.811 164.4C573.635 164.336 573.459 164.32 573.299 164.32C572.067 164.32 571.139 165.008 570.803 165.744H570.771C570.771 165.328 570.739 164.912 570.739 164.512H569.555C569.555 165.008 569.619 165.6 569.619 166.288V172ZM579.809 172H581.057V164.512H579.809V172ZM579.521 161.584C579.521 162.112 579.905 162.496 580.433 162.496C580.961 162.496 581.345 162.112 581.345 161.584C581.345 161.088 580.945 160.672 580.433 160.672C579.921 160.672 579.521 161.088 579.521 161.584ZM583.541 172H584.789V168.352C584.789 166.64 585.493 165.472 587.109 165.472C588.277 165.472 588.821 166.256 588.821 167.504V172H590.069V167.376C590.069 165.568 589.189 164.32 587.221 164.32C585.989 164.32 585.061 165.008 584.725 165.744H584.693C584.693 165.328 584.661 164.912 584.661 164.512H583.477C583.477 165.008 583.541 165.6 583.541 166.288V172ZM598.752 165.504C598 164.688 596.976 164.32 595.872 164.32C593.568 164.32 592 165.984 592 168.256C592 170.56 593.552 172.192 595.872 172.192C596.96 172.192 597.984 171.824 598.704 170.992L597.776 170.112C597.312 170.752 596.688 171.04 595.872 171.04C594.352 171.04 593.344 169.792 593.344 168.256C593.344 166.72 594.192 165.472 595.872 165.472C596.624 165.472 597.232 165.744 597.76 166.384L598.752 165.504ZM600.262 172H601.51V164.512H600.262V172ZM599.974 161.584C599.974 162.112 600.358 162.496 600.886 162.496C601.414 162.496 601.798 162.112 601.798 161.584C601.798 161.088 601.398 160.672 600.886 160.672C600.374 160.672 599.974 161.088 599.974 161.584ZM610.218 172H611.466V159.904H610.218V165.6H610.186C609.498 164.8 608.586 164.32 607.498 164.32C605.146 164.32 603.562 165.984 603.562 168.256C603.562 170.496 605.21 172.192 607.306 172.192C608.65 172.192 609.722 171.52 610.186 170.672H610.218V172ZM610.218 168.256C610.218 169.824 609.178 171.04 607.562 171.04C605.946 171.04 604.906 169.824 604.906 168.256C604.906 166.688 605.946 165.472 607.562 165.472C609.178 165.472 610.218 166.688 610.218 168.256ZM613.887 172H615.135V164.512H613.887V172ZM613.599 161.584C613.599 162.112 613.983 162.496 614.511 162.496C615.039 162.496 615.423 162.112 615.423 161.584C615.423 161.088 615.023 160.672 614.511 160.672C613.999 160.672 613.599 161.088 613.599 161.584ZM623.843 172H625.091V159.904H623.843V165.6H623.811C623.123 164.8 622.211 164.32 621.123 164.32C618.771 164.32 617.187 165.984 617.187 168.256C617.187 170.496 618.835 172.192 620.931 172.192C622.275 172.192 623.347 171.52 623.811 170.672H623.843V172ZM623.843 168.256C623.843 169.824 622.803 171.04 621.187 171.04C619.571 171.04 618.531 169.824 618.531 168.256C618.531 166.688 619.571 165.472 621.187 165.472C622.803 165.472 623.843 166.688 623.843 168.256ZM633.928 164.512H632.68V168.16C632.68 169.872 631.976 171.04 630.36 171.04C629.192 171.04 628.648 170.256 628.648 169.008V164.512H627.4V169.136C627.4 170.944 628.28 172.192 630.248 172.192C631.48 172.192 632.408 171.504 632.744 170.768H632.776C632.776 171.184 632.808 171.6 632.808 172H633.992C633.992 171.504 633.928 170.912 633.928 170.224V164.512ZM636.291 172H637.539V168.352C637.539 166.64 638.243 165.472 639.859 165.472C641.027 165.472 641.571 166.256 641.571 167.504V172H642.819V167.376C642.819 165.568 641.939 164.32 639.971 164.32C638.739 164.32 637.811 165.008 637.475 165.744H637.443C637.443 165.328 637.411 164.912 637.411 164.512H636.227C636.227 165.008 636.291 165.6 636.291 166.288V172ZM649.278 164.512H647.07V162.384H645.822V164.512H644.19V165.568H645.822V169.68C645.822 171.232 646.11 172.192 647.886 172.192C648.35 172.192 648.91 172.112 649.342 171.92L649.294 170.784C648.958 170.96 648.558 171.04 648.19 171.04C647.086 171.04 647.07 170.272 647.07 169.312V165.568H649.278V164.512ZM317.374 188.512H316.126V192.16C316.126 193.872 315.422 195.04 313.806 195.04C312.638 195.04 312.094 194.256 312.094 193.008V188.512H310.846V193.136C310.846 194.944 311.726 196.192 313.694 196.192C314.926 196.192 315.854 195.504 316.19 194.768H316.222C316.222 195.184 316.254 195.6 316.254 196H317.438C317.438 195.504 317.374 194.912 317.374 194.224V188.512ZM323.832 188.512H321.624V186.384H320.376V188.512H318.744V189.568H320.376V193.68C320.376 195.232 320.664 196.192 322.44 196.192C322.904 196.192 323.464 196.112 323.896 195.92L323.848 194.784C323.512 194.96 323.112 195.04 322.744 195.04C321.64 195.04 321.624 194.272 321.624 193.312V189.568H323.832V188.512ZM329.926 196H331.174V183.904H329.926V196ZM334.346 190.288C334.938 189.744 335.77 189.472 336.57 189.472C337.738 189.472 338.426 190.032 338.426 191.12V191.344H337.946C336.106 191.344 333.226 191.488 333.226 193.968C333.226 195.424 334.49 196.192 336.01 196.192C337.146 196.192 337.978 195.648 338.474 194.88H338.506C338.506 195.2 338.506 195.664 338.586 196H339.786C339.722 195.616 339.674 195.136 339.674 194.704V191.488C339.674 189.376 338.746 188.32 336.538 188.32C335.45 188.32 334.33 188.688 333.562 189.472L334.346 190.288ZM338.426 192.4V192.88C338.394 194.096 337.658 195.136 336.218 195.136C335.274 195.136 334.57 194.784 334.57 193.84C334.57 192.832 335.594 192.4 337.178 192.4H338.426ZM341.891 196H343.139V194.672H343.171C343.635 195.52 344.707 196.192 346.051 196.192C348.147 196.192 349.795 194.496 349.795 192.256C349.795 189.984 348.211 188.32 345.859 188.32C344.771 188.32 343.859 188.8 343.171 189.6H343.139V183.904H341.891V196ZM343.139 192.256C343.139 190.688 344.179 189.472 345.795 189.472C347.411 189.472 348.451 190.688 348.451 192.256C348.451 193.824 347.411 195.04 345.795 195.04C344.179 195.04 343.139 193.824 343.139 192.256ZM351.304 192.256C351.304 194.592 353 196.192 355.304 196.192C357.608 196.192 359.304 194.592 359.304 192.256C359.304 189.92 357.608 188.32 355.304 188.32C353 188.32 351.304 189.92 351.304 192.256ZM352.648 192.256C352.648 190.688 353.688 189.472 355.304 189.472C356.92 189.472 357.96 190.688 357.96 192.256C357.96 193.824 356.92 195.04 355.304 195.04C353.688 195.04 352.648 193.824 352.648 192.256ZM361.236 196H362.484V192.352C362.484 190.64 363.156 189.568 364.676 189.568C364.9 189.568 365.14 189.6 365.348 189.664L365.428 188.4C365.252 188.336 365.076 188.32 364.916 188.32C363.684 188.32 362.756 189.008 362.42 189.744H362.388C362.388 189.328 362.356 188.912 362.356 188.512H361.172C361.172 189.008 361.236 189.6 361.236 190.288V196ZM372.324 193.904C371.732 194.656 371.012 195.04 369.94 195.04C368.58 195.04 367.588 193.936 367.492 192.64H373.54V192.24C373.54 189.76 372.1 188.32 369.988 188.32C367.78 188.32 366.148 189.936 366.148 192.256C366.148 194.432 367.588 196.192 369.94 196.192C371.332 196.192 372.388 195.776 373.268 194.64L372.324 193.904ZM367.492 191.584C367.652 190.32 368.564 189.472 369.94 189.472C371.316 189.472 372.148 190.32 372.196 191.584H367.492ZM385.668 193.904C385.076 194.656 384.356 195.04 383.284 195.04C381.924 195.04 380.932 193.936 380.836 192.64H386.884V192.24C386.884 189.76 385.444 188.32 383.332 188.32C381.124 188.32 379.492 189.936 379.492 192.256C379.492 194.432 380.932 196.192 383.284 196.192C384.676 196.192 385.732 195.776 386.612 194.64L385.668 193.904ZM380.836 191.584C380.996 190.32 381.908 189.472 383.284 189.472C384.66 189.472 385.492 190.32 385.54 191.584H380.836ZM392.91 188.512H390.702V186.384H389.454V188.512H387.822V189.568H389.454V193.68C389.454 195.232 389.742 196.192 391.518 196.192C391.982 196.192 392.542 196.112 392.974 195.92L392.926 194.784C392.59 194.96 392.19 195.04 391.822 195.04C390.718 195.04 390.702 194.272 390.702 193.312V189.568H392.91V188.512ZM405.116 196H406.364V183.904H405.116V189.6H405.084C404.396 188.8 403.484 188.32 402.396 188.32C400.044 188.32 398.46 189.984 398.46 192.256C398.46 194.496 400.108 196.192 402.204 196.192C403.548 196.192 404.62 195.52 405.084 194.672H405.116V196ZM405.116 192.256C405.116 193.824 404.076 195.04 402.46 195.04C400.844 195.04 399.804 193.824 399.804 192.256C399.804 190.688 400.844 189.472 402.46 189.472C404.076 189.472 405.116 190.688 405.116 192.256ZM408.242 192.256C408.242 194.592 409.938 196.192 412.242 196.192C414.546 196.192 416.242 194.592 416.242 192.256C416.242 189.92 414.546 188.32 412.242 188.32C409.938 188.32 408.242 189.92 408.242 192.256ZM409.586 192.256C409.586 190.688 410.626 189.472 412.242 189.472C413.858 189.472 414.898 190.688 414.898 192.256C414.898 193.824 413.858 195.04 412.242 195.04C410.626 195.04 409.586 193.824 409.586 192.256ZM418.286 196H419.534V183.904H418.286V196ZM421.585 192.256C421.585 194.592 423.281 196.192 425.585 196.192C427.889 196.192 429.585 194.592 429.585 192.256C429.585 189.92 427.889 188.32 425.585 188.32C423.281 188.32 421.585 189.92 421.585 192.256ZM422.929 192.256C422.929 190.688 423.969 189.472 425.585 189.472C427.201 189.472 428.241 190.688 428.241 192.256C428.241 193.824 427.201 195.04 425.585 195.04C423.969 195.04 422.929 193.824 422.929 192.256ZM431.517 196H432.765V192.352C432.765 190.64 433.437 189.568 434.957 189.568C435.181 189.568 435.421 189.6 435.629 189.664L435.709 188.4C435.533 188.336 435.357 188.32 435.197 188.32C433.965 188.32 433.037 189.008 432.701 189.744H432.669C432.669 189.328 432.637 188.912 432.637 188.512H431.453C431.453 189.008 431.517 189.6 431.517 190.288V196ZM442.605 193.904C442.013 194.656 441.293 195.04 440.221 195.04C438.861 195.04 437.869 193.936 437.773 192.64H443.821V192.24C443.821 189.76 442.381 188.32 440.269 188.32C438.061 188.32 436.429 189.936 436.429 192.256C436.429 194.432 437.869 196.192 440.221 196.192C441.613 196.192 442.669 195.776 443.549 194.64L442.605 193.904ZM437.773 191.584C437.933 190.32 438.845 189.472 440.221 189.472C441.597 189.472 442.429 190.32 442.477 191.584H437.773ZM450.205 196H451.453V192.352C451.453 190.64 452.157 189.472 453.773 189.472C454.797 189.472 455.213 190.112 455.213 191.76V196H456.461V191.68C456.461 190.336 457.341 189.472 458.397 189.472C459.853 189.472 460.221 190.48 460.221 191.52V196H461.469V191.456C461.469 189.52 460.765 188.32 458.621 188.32C457.485 188.32 456.797 188.864 456.253 189.744C456.013 189.232 455.501 188.32 453.885 188.32C452.653 188.32 451.725 189.008 451.389 189.744H451.357C451.357 189.328 451.325 188.912 451.325 188.512H450.141C450.141 189.008 450.205 189.6 450.205 190.288V196ZM464.518 190.288C465.11 189.744 465.942 189.472 466.742 189.472C467.91 189.472 468.598 190.032 468.598 191.12V191.344H468.118C466.278 191.344 463.398 191.488 463.398 193.968C463.398 195.424 464.662 196.192 466.182 196.192C467.318 196.192 468.15 195.648 468.646 194.88H468.678C468.678 195.2 468.678 195.664 468.758 196H469.958C469.894 195.616 469.846 195.136 469.846 194.704V191.488C469.846 189.376 468.918 188.32 466.71 188.32C465.622 188.32 464.502 188.688 463.734 189.472L464.518 190.288ZM468.598 192.4V192.88C468.566 194.096 467.83 195.136 466.39 195.136C465.446 195.136 464.742 194.784 464.742 193.84C464.742 192.832 465.766 192.4 467.35 192.4H468.598ZM479.599 188.512H478.351V189.792H478.319C477.823 188.8 476.687 188.32 475.679 188.32C473.295 188.32 471.695 189.808 471.695 192.256C471.695 194.464 473.327 196.096 475.679 196.096C476.671 196.096 477.727 195.664 478.319 194.704H478.351V195.664C478.351 197.248 477.759 198.688 475.519 198.688C474.367 198.688 473.519 198.24 472.735 197.392L471.839 198.416C472.895 199.456 474.063 199.84 475.519 199.84C478.143 199.84 479.599 198.368 479.599 195.664V188.512ZM473.039 192.256C473.039 190.688 474.111 189.472 475.679 189.472C477.263 189.472 478.351 190.608 478.351 192.224C478.351 193.664 477.391 194.944 475.679 194.944C474.223 194.944 473.039 193.776 473.039 192.256ZM481.908 196H483.156V192.352C483.156 190.64 483.86 189.472 485.476 189.472C486.644 189.472 487.188 190.256 487.188 191.504V196H488.436V191.376C488.436 189.568 487.556 188.32 485.588 188.32C484.356 188.32 483.428 189.008 483.092 189.744H483.06C483.06 189.328 483.028 188.912 483.028 188.512H481.844C481.844 189.008 481.908 189.6 481.908 190.288V196ZM491.487 190.288C492.079 189.744 492.911 189.472 493.711 189.472C494.879 189.472 495.567 190.032 495.567 191.12V191.344H495.087C493.247 191.344 490.367 191.488 490.367 193.968C490.367 195.424 491.631 196.192 493.151 196.192C494.287 196.192 495.119 195.648 495.615 194.88H495.647C495.647 195.2 495.647 195.664 495.727 196H496.927C496.863 195.616 496.815 195.136 496.815 194.704V191.488C496.815 189.376 495.887 188.32 493.679 188.32C492.591 188.32 491.471 188.688 490.703 189.472L491.487 190.288ZM495.567 192.4V192.88C495.535 194.096 494.799 195.136 493.359 195.136C492.415 195.136 491.711 194.784 491.711 193.84C491.711 192.832 492.735 192.4 494.319 192.4H495.567ZM504.237 190.288C504.829 189.744 505.661 189.472 506.461 189.472C507.629 189.472 508.317 190.032 508.317 191.12V191.344H507.837C505.997 191.344 503.117 191.488 503.117 193.968C503.117 195.424 504.381 196.192 505.901 196.192C507.037 196.192 507.869 195.648 508.365 194.88H508.397C508.397 195.2 508.397 195.664 508.477 196H509.677C509.613 195.616 509.565 195.136 509.565 194.704V191.488C509.565 189.376 508.637 188.32 506.429 188.32C505.341 188.32 504.221 188.688 503.453 189.472L504.237 190.288ZM508.317 192.4V192.88C508.285 194.096 507.549 195.136 506.109 195.136C505.165 195.136 504.461 194.784 504.461 193.84C504.461 192.832 505.485 192.4 507.069 192.4H508.317ZM511.958 196H513.206V183.904H511.958V196ZM515.801 196H517.049V188.512H515.801V196ZM515.513 185.584C515.513 186.112 515.897 186.496 516.425 186.496C516.953 186.496 517.337 186.112 517.337 185.584C517.337 185.088 516.937 184.672 516.425 184.672C515.913 184.672 515.513 185.088 515.513 185.584ZM527.005 188.512H525.757V189.84H525.725C525.261 188.992 524.189 188.32 522.845 188.32C520.749 188.32 519.101 190.016 519.101 192.256C519.101 194.528 520.685 196.192 523.037 196.192C524.125 196.192 525.037 195.712 525.725 194.912H525.757V199.648H527.005V188.512ZM525.757 192.256C525.757 193.824 524.717 195.04 523.101 195.04C521.485 195.04 520.445 193.824 520.445 192.256C520.445 190.688 521.485 189.472 523.101 189.472C524.717 189.472 525.757 190.688 525.757 192.256ZM535.842 188.512H534.594V192.16C534.594 193.872 533.89 195.04 532.274 195.04C531.106 195.04 530.562 194.256 530.562 193.008V188.512H529.314V193.136C529.314 194.944 530.194 196.192 532.162 196.192C533.394 196.192 534.322 195.504 534.658 194.768H534.69C534.69 195.184 534.722 195.6 534.722 196H535.906C535.906 195.504 535.842 194.912 535.842 194.224V188.512ZM538.893 190.288C539.485 189.744 540.317 189.472 541.117 189.472C542.285 189.472 542.973 190.032 542.973 191.12V191.344H542.493C540.653 191.344 537.773 191.488 537.773 193.968C537.773 195.424 539.037 196.192 540.557 196.192C541.693 196.192 542.525 195.648 543.021 194.88H543.053C543.053 195.2 543.053 195.664 543.133 196H544.333C544.269 195.616 544.221 195.136 544.221 194.704V191.488C544.221 189.376 543.293 188.32 541.085 188.32C539.997 188.32 538.877 188.688 538.109 189.472L538.893 190.288ZM542.973 192.4V192.88C542.941 194.096 542.205 195.136 540.765 195.136C539.821 195.136 539.117 194.784 539.117 193.84C539.117 192.832 540.141 192.4 541.725 192.4H542.973ZM547.542 194.176C547.014 194.176 546.582 194.608 546.582 195.136C546.582 195.664 547.046 196.096 547.542 196.096C548.038 196.096 548.502 195.664 548.502 195.136C548.502 194.608 548.07 194.176 547.542 194.176ZM564.128 184.672H562.784V191.488C562.784 193.312 562.112 195.04 559.856 195.04C557.6 195.04 556.928 193.312 556.928 191.488V184.672H555.584V191.68C555.584 194.144 556.736 196.288 559.856 196.288C562.976 196.288 564.128 194.144 564.128 191.68V184.672ZM570.77 188.512H568.562V186.384H567.314V188.512H565.682V189.568H567.314V193.68C567.314 195.232 567.602 196.192 569.378 196.192C569.842 196.192 570.402 196.112 570.834 195.92L570.786 194.784C570.45 194.96 570.05 195.04 569.682 195.04C568.578 195.04 568.562 194.272 568.562 193.312V189.568H570.77V188.512ZM582.496 193.904C581.904 194.656 581.184 195.04 580.112 195.04C578.752 195.04 577.76 193.936 577.664 192.64H583.712V192.24C583.712 189.76 582.272 188.32 580.16 188.32C577.952 188.32 576.32 189.936 576.32 192.256C576.32 194.432 577.76 196.192 580.112 196.192C581.504 196.192 582.56 195.776 583.44 194.64L582.496 193.904ZM577.664 191.584C577.824 190.32 578.736 189.472 580.112 189.472C581.488 189.472 582.32 190.32 582.368 191.584H577.664ZM585.642 196H586.89V192.352C586.89 190.64 587.594 189.472 589.21 189.472C590.378 189.472 590.922 190.256 590.922 191.504V196H592.17V191.376C592.17 189.568 591.29 188.32 589.322 188.32C588.09 188.32 587.162 189.008 586.826 189.744H586.794C586.794 189.328 586.762 188.912 586.762 188.512H585.578C585.578 189.008 585.642 189.6 585.642 190.288V196ZM594.645 196H595.893V188.512H594.645V196ZM594.357 185.584C594.357 186.112 594.741 186.496 595.269 186.496C595.797 186.496 596.181 186.112 596.181 185.584C596.181 185.088 595.781 184.672 595.269 184.672C594.757 184.672 594.357 185.088 594.357 185.584ZM598.377 196H599.625V192.352C599.625 190.64 600.329 189.472 601.945 189.472C602.969 189.472 603.385 190.112 603.385 191.76V196H604.633V191.68C604.633 190.336 605.513 189.472 606.569 189.472C608.025 189.472 608.393 190.48 608.393 191.52V196H609.641V191.456C609.641 189.52 608.937 188.32 606.793 188.32C605.657 188.32 604.969 188.864 604.425 189.744C604.185 189.232 603.673 188.32 602.057 188.32C600.825 188.32 599.897 189.008 599.561 189.744H599.529C599.529 189.328 599.497 188.912 599.497 188.512H598.313C598.313 189.008 598.377 189.6 598.377 190.288V196ZM617.143 190.288C617.735 189.744 618.567 189.472 619.367 189.472C620.535 189.472 621.223 190.032 621.223 191.12V191.344H620.743C618.903 191.344 616.023 191.488 616.023 193.968C616.023 195.424 617.287 196.192 618.807 196.192C619.943 196.192 620.775 195.648 621.271 194.88H621.303C621.303 195.2 621.303 195.664 621.383 196H622.583C622.519 195.616 622.471 195.136 622.471 194.704V191.488C622.471 189.376 621.543 188.32 619.335 188.32C618.247 188.32 617.127 188.688 616.359 189.472L617.143 190.288ZM621.223 192.4V192.88C621.191 194.096 620.455 195.136 619.015 195.136C618.071 195.136 617.367 194.784 617.367 193.84C617.367 192.832 618.391 192.4 619.975 192.4H621.223ZM630.976 196H632.224V183.904H630.976V189.6H630.944C630.256 188.8 629.344 188.32 628.256 188.32C625.904 188.32 624.32 189.984 624.32 192.256C624.32 194.496 625.968 196.192 628.064 196.192C629.408 196.192 630.48 195.52 630.944 194.672H630.976V196ZM630.976 192.256C630.976 193.824 629.936 195.04 628.32 195.04C626.704 195.04 625.664 193.824 625.664 192.256C625.664 190.688 626.704 189.472 628.32 189.472C629.936 189.472 630.976 190.688 630.976 192.256ZM299.463 220H300.711V216.352C300.711 214.64 301.415 213.472 303.031 213.472C304.055 213.472 304.471 214.112 304.471 215.76V220H305.719V215.68C305.719 214.336 306.599 213.472 307.655 213.472C309.111 213.472 309.479 214.48 309.479 215.52V220H310.727V215.456C310.727 213.52 310.023 212.32 307.879 212.32C306.743 212.32 306.055 212.864 305.511 213.744C305.271 213.232 304.759 212.32 303.143 212.32C301.911 212.32 300.983 213.008 300.647 213.744H300.615C300.615 213.328 300.583 212.912 300.583 212.512H299.399C299.399 213.008 299.463 213.6 299.463 214.288V220ZM313.2 220H314.448V212.512H313.2V220ZM312.912 209.584C312.912 210.112 313.296 210.496 313.824 210.496C314.352 210.496 314.736 210.112 314.736 209.584C314.736 209.088 314.336 208.672 313.824 208.672C313.312 208.672 312.912 209.088 312.912 209.584ZM316.932 220H318.18V216.352C318.18 214.64 318.884 213.472 320.5 213.472C321.668 213.472 322.212 214.256 322.212 215.504V220H323.46V215.376C323.46 213.568 322.58 212.32 320.612 212.32C319.38 212.32 318.452 213.008 318.116 213.744H318.084C318.084 213.328 318.052 212.912 318.052 212.512H316.868C316.868 213.008 316.932 213.6 316.932 214.288V220ZM325.934 220H327.182V212.512H325.934V220ZM325.646 209.584C325.646 210.112 326.03 210.496 326.558 210.496C327.086 210.496 327.47 210.112 327.47 209.584C327.47 209.088 327.07 208.672 326.558 208.672C326.046 208.672 325.646 209.088 325.646 209.584ZM329.666 220H330.914V216.352C330.914 214.64 331.618 213.472 333.234 213.472C334.258 213.472 334.674 214.112 334.674 215.76V220H335.922V215.68C335.922 214.336 336.802 213.472 337.858 213.472C339.314 213.472 339.682 214.48 339.682 215.52V220H340.93V215.456C340.93 213.52 340.226 212.32 338.082 212.32C336.946 212.32 336.258 212.864 335.714 213.744C335.474 213.232 334.962 212.32 333.346 212.32C332.114 212.32 331.186 213.008 330.85 213.744H330.818C330.818 213.328 330.786 212.912 330.786 212.512H329.602C329.602 213.008 329.666 213.6 329.666 214.288V220ZM354.112 212.512H352.768L350.544 218.384H350.512L348.176 212.512H346.72L349.776 220H351.152L354.112 212.512ZM361.207 217.904C360.615 218.656 359.895 219.04 358.823 219.04C357.463 219.04 356.471 217.936 356.375 216.64H362.423V216.24C362.423 213.76 360.983 212.32 358.871 212.32C356.663 212.32 355.031 213.936 355.031 216.256C355.031 218.432 356.471 220.192 358.823 220.192C360.215 220.192 361.271 219.776 362.151 218.64L361.207 217.904ZM356.375 215.584C356.535 214.32 357.447 213.472 358.823 213.472C360.199 213.472 361.031 214.32 361.079 215.584H356.375ZM364.353 220H365.601V216.352C365.601 214.64 366.305 213.472 367.921 213.472C369.089 213.472 369.633 214.256 369.633 215.504V220H370.881V215.376C370.881 213.568 370.001 212.32 368.033 212.32C366.801 212.32 365.873 213.008 365.537 213.744H365.505C365.505 213.328 365.473 212.912 365.473 212.512H364.289C364.289 213.008 364.353 213.6 364.353 214.288V220ZM373.356 220H374.604V212.512H373.356V220ZM373.068 209.584C373.068 210.112 373.452 210.496 373.98 210.496C374.508 210.496 374.892 210.112 374.892 209.584C374.892 209.088 374.492 208.672 373.98 208.672C373.468 208.672 373.068 209.088 373.068 209.584ZM377.776 214.288C378.368 213.744 379.2 213.472 380 213.472C381.168 213.472 381.856 214.032 381.856 215.12V215.344H381.376C379.536 215.344 376.656 215.488 376.656 217.968C376.656 219.424 377.92 220.192 379.44 220.192C380.576 220.192 381.408 219.648 381.904 218.88H381.936C381.936 219.2 381.936 219.664 382.016 220H383.216C383.152 219.616 383.104 219.136 383.104 218.704V215.488C383.104 213.376 382.176 212.32 379.968 212.32C378.88 212.32 377.76 212.688 376.992 213.472L377.776 214.288ZM381.856 216.4V216.88C381.824 218.096 381.088 219.136 379.648 219.136C378.704 219.136 378 218.784 378 217.84C378 216.832 379.024 216.4 380.608 216.4H381.856ZM385.385 220H386.633V216.352C386.633 214.64 387.337 213.472 388.953 213.472C389.977 213.472 390.393 214.112 390.393 215.76V220H391.641V215.68C391.641 214.336 392.521 213.472 393.577 213.472C395.033 213.472 395.401 214.48 395.401 215.52V220H396.649V215.456C396.649 213.52 395.945 212.32 393.801 212.32C392.665 212.32 391.977 212.864 391.433 213.744C391.193 213.232 390.681 212.32 389.065 212.32C387.833 212.32 386.905 213.008 386.569 213.744H386.537C386.537 213.328 386.505 212.912 386.505 212.512H385.321C385.321 213.008 385.385 213.6 385.385 214.288V220ZM401.202 218.368H399.746L398.658 222.208H399.89L401.202 218.368ZM415.388 212.512H414.14V213.84H414.108C413.644 212.992 412.572 212.32 411.228 212.32C409.132 212.32 407.484 214.016 407.484 216.256C407.484 218.528 409.068 220.192 411.42 220.192C412.508 220.192 413.42 219.712 414.108 218.912H414.14V223.648H415.388V212.512ZM414.14 216.256C414.14 217.824 413.1 219.04 411.484 219.04C409.868 219.04 408.828 217.824 408.828 216.256C408.828 214.688 409.868 213.472 411.484 213.472C413.1 213.472 414.14 214.688 414.14 216.256ZM424.225 212.512H422.977V216.16C422.977 217.872 422.273 219.04 420.657 219.04C419.489 219.04 418.945 218.256 418.945 217.008V212.512H417.697V217.136C417.697 218.944 418.577 220.192 420.545 220.192C421.777 220.192 422.705 219.504 423.041 218.768H423.073C423.073 219.184 423.105 219.6 423.105 220H424.289C424.289 219.504 424.225 218.912 424.225 218.224V212.512ZM426.7 220H427.948V212.512H426.7V220ZM426.412 209.584C426.412 210.112 426.796 210.496 427.324 210.496C427.852 210.496 428.236 210.112 428.236 209.584C428.236 209.088 427.836 208.672 427.324 208.672C426.812 208.672 426.412 209.088 426.412 209.584ZM429.6 218.8C430.336 219.856 431.248 220.192 432.512 220.192C434 220.192 435.504 219.536 435.504 217.84C435.504 216.336 434.384 215.856 433.056 215.6C432.064 215.408 431.168 215.136 431.168 214.512C431.168 213.808 431.952 213.472 432.64 213.472C433.376 213.472 433.904 213.84 434.224 214.368L435.264 213.68C434.752 212.72 433.776 212.32 432.72 212.32C431.328 212.32 429.92 213.072 429.92 214.528C429.92 216.08 431.136 216.384 432.56 216.704C433.36 216.88 434.16 217.088 434.16 217.888C434.16 218.704 433.296 219.04 432.512 219.04C431.632 219.04 431.088 218.64 430.592 218.032L429.6 218.8ZM441.697 220H442.945V216.352C442.945 214.64 443.649 213.472 445.265 213.472C446.433 213.472 446.977 214.256 446.977 215.504V220H448.225V215.376C448.225 213.568 447.345 212.32 445.377 212.32C444.145 212.32 443.217 213.008 442.881 213.744H442.849C442.849 213.328 442.817 212.912 442.817 212.512H441.633C441.633 213.008 441.697 213.6 441.697 214.288V220ZM450.156 216.256C450.156 218.592 451.852 220.192 454.156 220.192C456.46 220.192 458.156 218.592 458.156 216.256C458.156 213.92 456.46 212.32 454.156 212.32C451.852 212.32 450.156 213.92 450.156 216.256ZM451.5 216.256C451.5 214.688 452.54 213.472 454.156 213.472C455.772 213.472 456.812 214.688 456.812 216.256C456.812 217.824 455.772 219.04 454.156 219.04C452.54 219.04 451.5 217.824 451.5 216.256ZM459.256 218.8C459.992 219.856 460.904 220.192 462.168 220.192C463.656 220.192 465.16 219.536 465.16 217.84C465.16 216.336 464.04 215.856 462.712 215.6C461.72 215.408 460.824 215.136 460.824 214.512C460.824 213.808 461.608 213.472 462.296 213.472C463.032 213.472 463.56 213.84 463.88 214.368L464.92 213.68C464.408 212.72 463.432 212.32 462.376 212.32C460.984 212.32 459.576 213.072 459.576 214.528C459.576 216.08 460.792 216.384 462.216 216.704C463.016 216.88 463.816 217.088 463.816 217.888C463.816 218.704 462.952 219.04 462.168 219.04C461.288 219.04 460.744 218.64 460.248 218.032L459.256 218.8ZM470.996 212.512H468.788V210.384H467.54V212.512H465.908V213.568H467.54V217.68C467.54 219.232 467.828 220.192 469.604 220.192C470.068 220.192 470.628 220.112 471.06 219.92L471.012 218.784C470.676 218.96 470.276 219.04 469.908 219.04C468.804 219.04 468.788 218.272 468.788 217.312V213.568H470.996V212.512ZM472.525 220H473.773V216.352C473.773 214.64 474.445 213.568 475.965 213.568C476.189 213.568 476.429 213.6 476.637 213.664L476.717 212.4C476.541 212.336 476.365 212.32 476.205 212.32C474.973 212.32 474.045 213.008 473.709 213.744H473.677C473.677 213.328 473.645 212.912 473.645 212.512H472.461C472.461 213.008 472.525 213.6 472.525 214.288V220ZM484.678 212.512H483.43V216.16C483.43 217.872 482.726 219.04 481.11 219.04C479.942 219.04 479.398 218.256 479.398 217.008V212.512H478.15V217.136C478.15 218.944 479.03 220.192 480.998 220.192C482.23 220.192 483.158 219.504 483.494 218.768H483.526C483.526 219.184 483.558 219.6 483.558 220H484.742C484.742 219.504 484.678 218.912 484.678 218.224V212.512ZM493.265 220H494.513V207.904H493.265V213.6H493.233C492.545 212.8 491.633 212.32 490.545 212.32C488.193 212.32 486.609 213.984 486.609 216.256C486.609 218.496 488.257 220.192 490.353 220.192C491.697 220.192 492.769 219.52 493.233 218.672H493.265V220ZM493.265 216.256C493.265 217.824 492.225 219.04 490.609 219.04C488.993 219.04 487.953 217.824 487.953 216.256C487.953 214.688 488.993 213.472 490.609 213.472C492.225 213.472 493.265 214.688 493.265 216.256ZM507.019 217.904C506.427 218.656 505.707 219.04 504.635 219.04C503.275 219.04 502.283 217.936 502.187 216.64H508.235V216.24C508.235 213.76 506.795 212.32 504.683 212.32C502.475 212.32 500.843 213.936 500.843 216.256C500.843 218.432 502.283 220.192 504.635 220.192C506.027 220.192 507.083 219.776 507.963 218.64L507.019 217.904ZM502.187 215.584C502.347 214.32 503.259 213.472 504.635 213.472C506.011 213.472 506.843 214.32 506.891 215.584H502.187ZM509.03 220H510.582L512.918 216.768L515.286 220H516.934L513.846 215.968L516.422 212.512H514.902L513.03 215.2L511.046 212.512H509.414L512.102 215.968L509.03 220ZM523.91 217.904C523.318 218.656 522.598 219.04 521.526 219.04C520.166 219.04 519.174 217.936 519.078 216.64H525.126V216.24C525.126 213.76 523.686 212.32 521.574 212.32C519.366 212.32 517.734 213.936 517.734 216.256C517.734 218.432 519.174 220.192 521.526 220.192C522.918 220.192 523.974 219.776 524.854 218.64L523.91 217.904ZM519.078 215.584C519.238 214.32 520.15 213.472 521.526 213.472C522.902 213.472 523.734 214.32 523.782 215.584H519.078ZM527.057 220H528.305V216.352C528.305 214.64 528.977 213.568 530.497 213.568C530.721 213.568 530.961 213.6 531.169 213.664L531.249 212.4C531.073 212.336 530.897 212.32 530.737 212.32C529.505 212.32 528.577 213.008 528.241 213.744H528.209C528.209 213.328 528.177 212.912 528.177 212.512H526.993C526.993 213.008 527.057 213.6 527.057 214.288V220ZM538.72 213.504C537.968 212.688 536.944 212.32 535.84 212.32C533.536 212.32 531.968 213.984 531.968 216.256C531.968 218.56 533.52 220.192 535.84 220.192C536.928 220.192 537.952 219.824 538.672 218.992L537.744 218.112C537.28 218.752 536.656 219.04 535.84 219.04C534.32 219.04 533.312 217.792 533.312 216.256C533.312 214.72 534.16 213.472 535.84 213.472C536.592 213.472 537.2 213.744 537.728 214.384L538.72 213.504ZM540.231 220H541.479V212.512H540.231V220ZM539.943 209.584C539.943 210.112 540.327 210.496 540.855 210.496C541.383 210.496 541.767 210.112 541.767 209.584C541.767 209.088 541.367 208.672 540.855 208.672C540.343 208.672 539.943 209.088 539.943 209.584ZM548.059 212.512H545.851V210.384H544.603V212.512H542.971V213.568H544.603V217.68C544.603 219.232 544.891 220.192 546.667 220.192C547.131 220.192 547.691 220.112 548.123 219.92L548.075 218.784C547.739 218.96 547.339 219.04 546.971 219.04C545.867 219.04 545.851 218.272 545.851 217.312V213.568H548.059V212.512ZM550.276 214.288C550.868 213.744 551.7 213.472 552.5 213.472C553.668 213.472 554.356 214.032 554.356 215.12V215.344H553.876C552.036 215.344 549.156 215.488 549.156 217.968C549.156 219.424 550.42 220.192 551.94 220.192C553.076 220.192 553.908 219.648 554.404 218.88H554.436C554.436 219.2 554.436 219.664 554.516 220H555.716C555.652 219.616 555.604 219.136 555.604 218.704V215.488C555.604 213.376 554.676 212.32 552.468 212.32C551.38 212.32 550.26 212.688 549.492 213.472L550.276 214.288ZM554.356 216.4V216.88C554.324 218.096 553.588 219.136 552.148 219.136C551.204 219.136 550.5 218.784 550.5 217.84C550.5 216.832 551.524 216.4 553.108 216.4H554.356ZM561.981 212.512H559.773V210.384H558.525V212.512H556.893V213.568H558.525V217.68C558.525 219.232 558.813 220.192 560.589 220.192C561.053 220.192 561.613 220.112 562.045 219.92L561.997 218.784C561.661 218.96 561.261 219.04 560.893 219.04C559.789 219.04 559.773 218.272 559.773 217.312V213.568H561.981V212.512ZM563.622 220H564.87V212.512H563.622V220ZM563.334 209.584C563.334 210.112 563.718 210.496 564.246 210.496C564.774 210.496 565.158 210.112 565.158 209.584C565.158 209.088 564.758 208.672 564.246 208.672C563.734 208.672 563.334 209.088 563.334 209.584ZM566.921 216.256C566.921 218.592 568.617 220.192 570.921 220.192C573.225 220.192 574.921 218.592 574.921 216.256C574.921 213.92 573.225 212.32 570.921 212.32C568.617 212.32 566.921 213.92 566.921 216.256ZM568.265 216.256C568.265 214.688 569.305 213.472 570.921 213.472C572.537 213.472 573.577 214.688 573.577 216.256C573.577 217.824 572.537 219.04 570.921 219.04C569.305 219.04 568.265 217.824 568.265 216.256ZM576.853 220H578.101V216.352C578.101 214.64 578.805 213.472 580.421 213.472C581.589 213.472 582.133 214.256 582.133 215.504V220H583.381V215.376C583.381 213.568 582.501 212.32 580.533 212.32C579.301 212.32 578.373 213.008 578.037 213.744H578.005C578.005 213.328 577.973 212.912 577.973 212.512H576.789C576.789 213.008 576.853 213.6 576.853 214.288V220ZM596.725 212.512H595.477V216.16C595.477 217.872 594.773 219.04 593.157 219.04C591.989 219.04 591.445 218.256 591.445 217.008V212.512H590.197V217.136C590.197 218.944 591.077 220.192 593.045 220.192C594.277 220.192 595.205 219.504 595.541 218.768H595.573C595.573 219.184 595.605 219.6 595.605 220H596.789C596.789 219.504 596.725 218.912 596.725 218.224V212.512ZM599.2 220H600.448V207.904H599.2V220ZM603.044 220H604.292V207.904H603.044V220ZM607.463 214.288C608.055 213.744 608.887 213.472 609.687 213.472C610.855 213.472 611.543 214.032 611.543 215.12V215.344H611.063C609.223 215.344 606.343 215.488 606.343 217.968C606.343 219.424 607.607 220.192 609.127 220.192C610.263 220.192 611.095 219.648 611.591 218.88H611.623C611.623 219.2 611.623 219.664 611.703 220H612.903C612.839 219.616 612.791 219.136 612.791 218.704V215.488C612.791 213.376 611.863 212.32 609.655 212.32C608.567 212.32 607.447 212.688 606.679 213.472L607.463 214.288ZM611.543 216.4V216.88C611.511 218.096 610.775 219.136 609.335 219.136C608.391 219.136 607.687 218.784 607.687 217.84C607.687 216.832 608.711 216.4 610.295 216.4H611.543ZM615.072 220H616.32V216.352C616.32 214.64 617.024 213.472 618.64 213.472C619.664 213.472 620.08 214.112 620.08 215.76V220H621.328V215.68C621.328 214.336 622.208 213.472 623.264 213.472C624.72 213.472 625.088 214.48 625.088 215.52V220H626.336V215.456C626.336 213.52 625.632 212.32 623.488 212.32C622.352 212.32 621.664 212.864 621.12 213.744C620.88 213.232 620.368 212.32 618.752 212.32C617.52 212.32 616.592 213.008 616.256 213.744H616.224C616.224 213.328 616.192 212.912 616.192 212.512H615.008C615.008 213.008 615.072 213.6 615.072 214.288V220ZM635.017 213.504C634.265 212.688 633.241 212.32 632.137 212.32C629.833 212.32 628.265 213.984 628.265 216.256C628.265 218.56 629.817 220.192 632.137 220.192C633.225 220.192 634.249 219.824 634.969 218.992L634.041 218.112C633.577 218.752 632.953 219.04 632.137 219.04C630.617 219.04 629.609 217.792 629.609 216.256C629.609 214.72 630.457 213.472 632.137 213.472C632.889 213.472 633.497 213.744 634.025 214.384L635.017 213.504ZM635.984 216.256C635.984 218.592 637.68 220.192 639.984 220.192C642.288 220.192 643.984 218.592 643.984 216.256C643.984 213.92 642.288 212.32 639.984 212.32C637.68 212.32 635.984 213.92 635.984 216.256ZM637.328 216.256C637.328 214.688 638.368 213.472 639.984 213.472C641.6 213.472 642.64 214.688 642.64 216.256C642.64 217.824 641.6 219.04 639.984 219.04C638.368 219.04 637.328 217.824 637.328 216.256ZM297.176 244H298.424V231.904H297.176V244ZM301.596 238.288C302.188 237.744 303.02 237.472 303.82 237.472C304.988 237.472 305.676 238.032 305.676 239.12V239.344H305.196C303.356 239.344 300.476 239.488 300.476 241.968C300.476 243.424 301.74 244.192 303.26 244.192C304.396 244.192 305.228 243.648 305.724 242.88H305.756C305.756 243.2 305.756 243.664 305.836 244H307.036C306.972 243.616 306.924 243.136 306.924 242.704V239.488C306.924 237.376 305.996 236.32 303.788 236.32C302.7 236.32 301.58 236.688 300.812 237.472L301.596 238.288ZM305.676 240.4V240.88C305.644 242.096 304.908 243.136 303.468 243.136C302.524 243.136 301.82 242.784 301.82 241.84C301.82 240.832 302.844 240.4 304.428 240.4H305.676ZM309.141 244H310.389V242.672H310.421C310.885 243.52 311.957 244.192 313.301 244.192C315.397 244.192 317.045 242.496 317.045 240.256C317.045 237.984 315.461 236.32 313.109 236.32C312.021 236.32 311.109 236.8 310.421 237.6H310.389V231.904H309.141V244ZM310.389 240.256C310.389 238.688 311.429 237.472 313.045 237.472C314.661 237.472 315.701 238.688 315.701 240.256C315.701 241.824 314.661 243.04 313.045 243.04C311.429 243.04 310.389 241.824 310.389 240.256ZM318.554 240.256C318.554 242.592 320.25 244.192 322.554 244.192C324.858 244.192 326.554 242.592 326.554 240.256C326.554 237.92 324.858 236.32 322.554 236.32C320.25 236.32 318.554 237.92 318.554 240.256ZM319.898 240.256C319.898 238.688 320.938 237.472 322.554 237.472C324.17 237.472 325.21 238.688 325.21 240.256C325.21 241.824 324.17 243.04 322.554 243.04C320.938 243.04 319.898 241.824 319.898 240.256ZM328.486 244H329.734V240.352C329.734 238.64 330.406 237.568 331.926 237.568C332.15 237.568 332.39 237.6 332.598 237.664L332.678 236.4C332.502 236.336 332.326 236.32 332.166 236.32C330.934 236.32 330.006 237.008 329.67 237.744H329.638C329.638 237.328 329.606 236.912 329.606 236.512H328.422C328.422 237.008 328.486 237.6 328.486 238.288V244ZM334.223 244H335.471V236.512H334.223V244ZM333.935 233.584C333.935 234.112 334.319 234.496 334.847 234.496C335.375 234.496 335.759 234.112 335.759 233.584C335.759 233.088 335.359 232.672 334.847 232.672C334.335 232.672 333.935 233.088 333.935 233.584ZM337.123 242.8C337.859 243.856 338.771 244.192 340.035 244.192C341.523 244.192 343.027 243.536 343.027 241.84C343.027 240.336 341.907 239.856 340.579 239.6C339.587 239.408 338.691 239.136 338.691 238.512C338.691 237.808 339.475 237.472 340.163 237.472C340.899 237.472 341.427 237.84 341.747 238.368L342.787 237.68C342.275 236.72 341.299 236.32 340.243 236.32C338.851 236.32 337.443 237.072 337.443 238.528C337.443 240.08 338.659 240.384 340.083 240.704C340.883 240.88 341.683 241.088 341.683 241.888C341.683 242.704 340.819 243.04 340.035 243.04C339.155 243.04 338.611 242.64 338.115 242.032L337.123 242.8ZM349.221 244H350.469V240.352C350.469 238.64 351.173 237.472 352.789 237.472C353.957 237.472 354.501 238.256 354.501 239.504V244H355.749V239.376C355.749 237.568 354.869 236.32 352.901 236.32C351.669 236.32 350.741 237.008 350.405 237.744H350.373C350.373 237.328 350.341 236.912 350.341 236.512H349.157C349.157 237.008 349.221 237.6 349.221 238.288V244ZM358.223 244H359.471V236.512H358.223V244ZM357.935 233.584C357.935 234.112 358.319 234.496 358.847 234.496C359.375 234.496 359.759 234.112 359.759 233.584C359.759 233.088 359.359 232.672 358.847 232.672C358.335 232.672 357.935 233.088 357.935 233.584ZM361.123 242.8C361.859 243.856 362.771 244.192 364.035 244.192C365.523 244.192 367.027 243.536 367.027 241.84C367.027 240.336 365.907 239.856 364.579 239.6C363.587 239.408 362.691 239.136 362.691 238.512C362.691 237.808 363.475 237.472 364.163 237.472C364.899 237.472 365.427 237.84 365.747 238.368L366.787 237.68C366.275 236.72 365.299 236.32 364.243 236.32C362.851 236.32 361.443 237.072 361.443 238.528C361.443 240.08 362.659 240.384 364.083 240.704C364.883 240.88 365.683 241.088 365.683 241.888C365.683 242.704 364.819 243.04 364.035 243.04C363.155 243.04 362.611 242.64 362.115 242.032L361.123 242.8ZM368.879 244H370.127V236.512H368.879V244ZM368.591 233.584C368.591 234.112 368.975 234.496 369.503 234.496C370.031 234.496 370.415 234.112 370.415 233.584C370.415 233.088 370.015 232.672 369.503 232.672C368.991 232.672 368.591 233.088 368.591 233.584ZM383.592 236.512H382.344V240.16C382.344 241.872 381.64 243.04 380.024 243.04C378.856 243.04 378.312 242.256 378.312 241.008V236.512H377.064V241.136C377.064 242.944 377.944 244.192 379.912 244.192C381.144 244.192 382.072 243.504 382.408 242.768H382.44C382.44 243.184 382.472 243.6 382.472 244H383.656C383.656 243.504 383.592 242.912 383.592 242.224V236.512ZM390.051 236.512H387.843V234.384H386.595V236.512H384.963V237.568H386.595V241.68C386.595 243.232 386.883 244.192 388.659 244.192C389.123 244.192 389.683 244.112 390.115 243.92L390.067 242.784C389.731 242.96 389.331 243.04 388.963 243.04C387.859 243.04 387.843 242.272 387.843 241.312V237.568H390.051V236.512ZM396.721 238.288C397.313 237.744 398.145 237.472 398.945 237.472C400.113 237.472 400.801 238.032 400.801 239.12V239.344H400.321C398.481 239.344 395.601 239.488 395.601 241.968C395.601 243.424 396.865 244.192 398.385 244.192C399.521 244.192 400.353 243.648 400.849 242.88H400.881C400.881 243.2 400.881 243.664 400.961 244H402.161C402.097 243.616 402.049 243.136 402.049 242.704V239.488C402.049 237.376 401.121 236.32 398.913 236.32C397.825 236.32 396.705 236.688 395.937 237.472L396.721 238.288ZM400.801 240.4V240.88C400.769 242.096 400.033 243.136 398.593 243.136C397.649 243.136 396.945 242.784 396.945 241.84C396.945 240.832 397.969 240.4 399.553 240.4H400.801ZM404.442 244H405.69V231.904H404.442V244ZM408.286 244H409.534V236.512H408.286V244ZM407.998 233.584C407.998 234.112 408.382 234.496 408.91 234.496C409.438 234.496 409.822 234.112 409.822 233.584C409.822 233.088 409.422 232.672 408.91 232.672C408.398 232.672 407.998 233.088 407.998 233.584ZM419.489 236.512H418.241V237.84H418.209C417.745 236.992 416.673 236.32 415.329 236.32C413.233 236.32 411.585 238.016 411.585 240.256C411.585 242.528 413.169 244.192 415.521 244.192C416.609 244.192 417.521 243.712 418.209 242.912H418.241V247.648H419.489V236.512ZM418.241 240.256C418.241 241.824 417.201 243.04 415.585 243.04C413.969 243.04 412.929 241.824 412.929 240.256C412.929 238.688 413.969 237.472 415.585 237.472C417.201 237.472 418.241 238.688 418.241 240.256ZM428.327 236.512H427.079V240.16C427.079 241.872 426.375 243.04 424.759 243.04C423.591 243.04 423.047 242.256 423.047 241.008V236.512H421.799V241.136C421.799 242.944 422.679 244.192 424.647 244.192C425.879 244.192 426.807 243.504 427.143 242.768H427.175C427.175 243.184 427.207 243.6 427.207 244H428.391C428.391 243.504 428.327 242.912 428.327 242.224V236.512ZM430.801 244H432.049V236.512H430.801V244ZM430.513 233.584C430.513 234.112 430.897 234.496 431.425 234.496C431.953 234.496 432.337 234.112 432.337 233.584C432.337 233.088 431.937 232.672 431.425 232.672C430.913 232.672 430.513 233.088 430.513 233.584ZM434.469 247.648H435.717V242.672H435.749C436.213 243.52 437.285 244.192 438.629 244.192C440.725 244.192 442.373 242.496 442.373 240.256C442.373 237.984 440.789 236.32 438.437 236.32C437.349 236.32 436.437 236.8 435.749 237.6H435.717V236.512H434.469V247.648ZM435.717 240.256C435.717 238.688 436.757 237.472 438.373 237.472C439.989 237.472 441.029 238.688 441.029 240.256C441.029 241.824 439.989 243.04 438.373 243.04C436.757 243.04 435.717 241.824 435.717 240.256ZM454.511 241.904C453.919 242.656 453.199 243.04 452.127 243.04C450.767 243.04 449.775 241.936 449.679 240.64H455.727V240.24C455.727 237.76 454.287 236.32 452.175 236.32C449.967 236.32 448.335 237.936 448.335 240.256C448.335 242.432 449.775 244.192 452.127 244.192C453.519 244.192 454.575 243.776 455.455 242.64L454.511 241.904ZM449.679 239.584C449.839 238.32 450.751 237.472 452.127 237.472C453.503 237.472 454.335 238.32 454.383 239.584H449.679ZM456.522 244H458.074L460.41 240.768L462.778 244H464.426L461.338 239.968L463.914 236.512H462.394L460.522 239.2L458.538 236.512H456.906L459.594 239.968L456.522 244ZM475.855 241.904C475.263 242.656 474.543 243.04 473.471 243.04C472.111 243.04 471.119 241.936 471.023 240.64H477.071V240.24C477.071 237.76 475.631 236.32 473.519 236.32C471.311 236.32 469.679 237.936 469.679 240.256C469.679 242.432 471.119 244.192 473.471 244.192C474.863 244.192 475.919 243.776 476.799 242.64L475.855 241.904ZM471.023 239.584C471.183 238.32 472.095 237.472 473.471 237.472C474.847 237.472 475.679 238.32 475.727 239.584H471.023ZM479.69 238.288C480.282 237.744 481.114 237.472 481.914 237.472C483.082 237.472 483.77 238.032 483.77 239.12V239.344H483.29C481.45 239.344 478.57 239.488 478.57 241.968C478.57 243.424 479.834 244.192 481.354 244.192C482.49 244.192 483.322 243.648 483.818 242.88H483.85C483.85 243.2 483.85 243.664 483.93 244H485.13C485.066 243.616 485.018 243.136 485.018 242.704V239.488C485.018 237.376 484.09 236.32 481.882 236.32C480.794 236.32 479.674 236.688 478.906 237.472L479.69 238.288ZM483.77 240.4V240.88C483.738 242.096 483.002 243.136 481.562 243.136C480.618 243.136 479.914 242.784 479.914 241.84C479.914 240.832 480.938 240.4 482.522 240.4H483.77ZM498.072 237.504C497.32 236.688 496.296 236.32 495.192 236.32C492.888 236.32 491.32 237.984 491.32 240.256C491.32 242.56 492.872 244.192 495.192 244.192C496.28 244.192 497.304 243.824 498.024 242.992L497.096 242.112C496.632 242.752 496.008 243.04 495.192 243.04C493.672 243.04 492.664 241.792 492.664 240.256C492.664 238.72 493.512 237.472 495.192 237.472C495.944 237.472 496.552 237.744 497.08 238.384L498.072 237.504ZM499.039 240.256C499.039 242.592 500.735 244.192 503.039 244.192C505.343 244.192 507.039 242.592 507.039 240.256C507.039 237.92 505.343 236.32 503.039 236.32C500.735 236.32 499.039 237.92 499.039 240.256ZM500.383 240.256C500.383 238.688 501.423 237.472 503.039 237.472C504.655 237.472 505.695 238.688 505.695 240.256C505.695 241.824 504.655 243.04 503.039 243.04C501.423 243.04 500.383 241.824 500.383 240.256ZM508.971 244H510.219V240.352C510.219 238.64 510.923 237.472 512.539 237.472C513.563 237.472 513.979 238.112 513.979 239.76V244H515.227V239.68C515.227 238.336 516.107 237.472 517.163 237.472C518.619 237.472 518.987 238.48 518.987 239.52V244H520.235V239.456C520.235 237.52 519.531 236.32 517.387 236.32C516.251 236.32 515.563 236.864 515.019 237.744C514.779 237.232 514.267 236.32 512.651 236.32C511.419 236.32 510.491 237.008 510.155 237.744H510.123C510.123 237.328 510.091 236.912 510.091 236.512H508.907C508.907 237.008 508.971 237.6 508.971 238.288V244ZM522.596 244H523.844V240.352C523.844 238.64 524.548 237.472 526.164 237.472C527.188 237.472 527.604 238.112 527.604 239.76V244H528.852V239.68C528.852 238.336 529.732 237.472 530.788 237.472C532.244 237.472 532.612 238.48 532.612 239.52V244H533.86V239.456C533.86 237.52 533.156 236.32 531.012 236.32C529.876 236.32 529.188 236.864 528.644 237.744C528.404 237.232 527.892 236.32 526.276 236.32C525.044 236.32 524.116 237.008 523.78 237.744H523.748C523.748 237.328 523.716 236.912 523.716 236.512H522.532C522.532 237.008 522.596 237.6 522.596 238.288V244ZM535.789 240.256C535.789 242.592 537.485 244.192 539.789 244.192C542.093 244.192 543.789 242.592 543.789 240.256C543.789 237.92 542.093 236.32 539.789 236.32C537.485 236.32 535.789 237.92 535.789 240.256ZM537.133 240.256C537.133 238.688 538.173 237.472 539.789 237.472C541.405 237.472 542.445 238.688 542.445 240.256C542.445 241.824 541.405 243.04 539.789 243.04C538.173 243.04 537.133 241.824 537.133 240.256ZM551.945 244H553.193V231.904H551.945V237.6H551.913C551.225 236.8 550.313 236.32 549.225 236.32C546.873 236.32 545.289 237.984 545.289 240.256C545.289 242.496 546.937 244.192 549.033 244.192C550.377 244.192 551.449 243.52 551.913 242.672H551.945V244ZM551.945 240.256C551.945 241.824 550.905 243.04 549.289 243.04C547.673 243.04 546.633 241.824 546.633 240.256C546.633 238.688 547.673 237.472 549.289 237.472C550.905 237.472 551.945 238.688 551.945 240.256ZM555.07 240.256C555.07 242.592 556.766 244.192 559.07 244.192C561.374 244.192 563.07 242.592 563.07 240.256C563.07 237.92 561.374 236.32 559.07 236.32C556.766 236.32 555.07 237.92 555.07 240.256ZM556.414 240.256C556.414 238.688 557.454 237.472 559.07 237.472C560.686 237.472 561.726 238.688 561.726 240.256C561.726 241.824 560.686 243.04 559.07 243.04C557.454 243.04 556.414 241.824 556.414 240.256ZM575.775 237.504C575.023 236.688 573.999 236.32 572.895 236.32C570.591 236.32 569.023 237.984 569.023 240.256C569.023 242.56 570.575 244.192 572.895 244.192C573.983 244.192 575.007 243.824 575.727 242.992L574.799 242.112C574.335 242.752 573.711 243.04 572.895 243.04C571.375 243.04 570.367 241.792 570.367 240.256C570.367 238.72 571.215 237.472 572.895 237.472C573.647 237.472 574.255 237.744 574.783 238.384L575.775 237.504ZM576.742 240.256C576.742 242.592 578.438 244.192 580.742 244.192C583.046 244.192 584.742 242.592 584.742 240.256C584.742 237.92 583.046 236.32 580.742 236.32C578.438 236.32 576.742 237.92 576.742 240.256ZM578.086 240.256C578.086 238.688 579.126 237.472 580.742 237.472C582.358 237.472 583.398 238.688 583.398 240.256C583.398 241.824 582.358 243.04 580.742 243.04C579.126 243.04 578.086 241.824 578.086 240.256ZM586.674 244H587.922V240.352C587.922 238.64 588.626 237.472 590.242 237.472C591.41 237.472 591.954 238.256 591.954 239.504V244H593.202V239.376C593.202 237.568 592.322 236.32 590.354 236.32C589.122 236.32 588.194 237.008 587.858 237.744H587.826C587.826 237.328 587.794 236.912 587.794 236.512H586.61C586.61 237.008 586.674 237.6 586.674 238.288V244ZM594.732 242.8C595.468 243.856 596.38 244.192 597.644 244.192C599.132 244.192 600.636 243.536 600.636 241.84C600.636 240.336 599.516 239.856 598.188 239.6C597.196 239.408 596.3 239.136 596.3 238.512C596.3 237.808 597.084 237.472 597.772 237.472C598.508 237.472 599.036 237.84 599.356 238.368L600.396 237.68C599.884 236.72 598.908 236.32 597.852 236.32C596.46 236.32 595.052 237.072 595.052 238.528C595.052 240.08 596.268 240.384 597.692 240.704C598.492 240.88 599.292 241.088 599.292 241.888C599.292 242.704 598.428 243.04 597.644 243.04C596.764 243.04 596.22 242.64 595.724 242.032L594.732 242.8ZM608.121 241.904C607.529 242.656 606.809 243.04 605.737 243.04C604.377 243.04 603.385 241.936 603.289 240.64H609.337V240.24C609.337 237.76 607.897 236.32 605.785 236.32C603.577 236.32 601.945 237.936 601.945 240.256C601.945 242.432 603.385 244.192 605.737 244.192C607.129 244.192 608.185 243.776 609.065 242.64L608.121 241.904ZM603.289 239.584C603.449 238.32 604.361 237.472 605.737 237.472C607.113 237.472 607.945 238.32 607.993 239.584H603.289ZM618.739 236.512H617.491V237.84H617.459C616.995 236.992 615.923 236.32 614.579 236.32C612.483 236.32 610.835 238.016 610.835 240.256C610.835 242.528 612.419 244.192 614.771 244.192C615.859 244.192 616.771 243.712 617.459 242.912H617.491V247.648H618.739V236.512ZM617.491 240.256C617.491 241.824 616.451 243.04 614.835 243.04C613.219 243.04 612.179 241.824 612.179 240.256C612.179 238.688 613.219 237.472 614.835 237.472C616.451 237.472 617.491 238.688 617.491 240.256ZM627.577 236.512H626.329V240.16C626.329 241.872 625.625 243.04 624.009 243.04C622.841 243.04 622.297 242.256 622.297 241.008V236.512H621.049V241.136C621.049 242.944 621.929 244.192 623.897 244.192C625.129 244.192 626.057 243.504 626.393 242.768H626.425C626.425 243.184 626.457 243.6 626.457 244H627.641C627.641 243.504 627.577 242.912 627.577 242.224V236.512ZM630.627 238.288C631.219 237.744 632.051 237.472 632.851 237.472C634.019 237.472 634.707 238.032 634.707 239.12V239.344H634.227C632.387 239.344 629.507 239.488 629.507 241.968C629.507 243.424 630.771 244.192 632.291 244.192C633.427 244.192 634.259 243.648 634.755 242.88H634.787C634.787 243.2 634.787 243.664 634.867 244H636.067C636.003 243.616 635.955 243.136 635.955 242.704V239.488C635.955 237.376 635.027 236.32 632.819 236.32C631.731 236.32 630.611 236.688 629.843 237.472L630.627 238.288ZM634.707 240.4V240.88C634.675 242.096 633.939 243.136 632.499 243.136C631.555 243.136 630.851 242.784 630.851 241.84C630.851 240.832 631.875 240.4 633.459 240.4H634.707ZM642.332 236.512H640.124V234.384H638.876V236.512H637.244V237.568H638.876V241.68C638.876 243.232 639.164 244.192 640.94 244.192C641.404 244.192 641.964 244.112 642.396 243.92L642.348 242.784C642.012 242.96 641.612 243.04 641.244 243.04C640.14 243.04 640.124 242.272 640.124 241.312V237.568H642.332V236.512ZM644.901 242.176C644.373 242.176 643.941 242.608 643.941 243.136C643.941 243.664 644.405 244.096 644.901 244.096C645.397 244.096 645.861 243.664 645.861 243.136C645.861 242.608 645.429 242.176 644.901 242.176Z" fill="black"/>
</svg>
