<svg width="1168" height="958" viewBox="0 0 1168 958" fill="none" xmlns="http://www.w3.org/2000/svg">
<rect width="1168" height="958" fill="black" fill-opacity="0.35"/>
<rect x="26" y="24" width="300" height="270" rx="12" fill="white"/>
<path d="M60.58 48.96C59.38 47.9 57.84 47.48 56.24 47.48C53.46 47.48 50.84 49.06 50.84 52.08C50.84 56.8 57.48 55.4 57.48 58C57.48 59 56.34 59.48 55.32 59.48C54.28 59.48 53.24 58.98 52.6 58.14L50.38 60.58C51.72 61.82 53.32 62.36 55.14 62.36C58.06 62.36 60.6 60.86 60.6 57.7C60.6 52.74 54.08 54.4 54.08 51.82C54.08 50.76 55.3 50.36 56.18 50.36C56.94 50.36 57.94 50.66 58.44 51.3L60.58 48.96ZM62.5444 62H65.5444V57.16C65.5444 55.9 65.7844 54.68 67.3444 54.68C68.7244 54.68 68.6844 56.14 68.6844 56.86V62H71.6844V56.86C71.6844 55.66 72.1244 54.68 73.5044 54.68C74.4844 54.68 74.8244 55.44 74.8244 56.34V62H77.8244V56.26C77.8244 53.9 77.0244 52.04 74.3844 52.04C72.9444 52.04 72.0044 52.54 71.3044 53.78C70.7844 52.6 69.6644 52.04 68.3044 52.04C66.8444 52.04 65.8644 52.84 65.4644 53.6H65.4244V52.28H62.5444V62ZM86.0467 62H88.8067V57.06C88.8067 53.82 87.8667 52.04 84.3667 52.04C82.7867 52.04 81.1867 52.56 80.0867 53.6L81.6867 55.24C82.3267 54.52 83.1467 54.08 84.1267 54.08C85.1667 54.08 86.0467 54.76 86.0467 55.82C83.5467 55.82 79.4667 55.88 79.4667 59.24C79.4667 61.2 81.1067 62.24 82.9267 62.24C84.1467 62.24 85.3467 61.82 86.0067 60.78H86.0467V62ZM86.0467 57.74V58.38C86.0467 59.58 84.9467 60.2 83.7667 60.2C83.1067 60.2 82.3467 59.86 82.3467 59.14C82.3467 57.82 84.3867 57.74 85.3067 57.74H86.0467ZM90.7289 62H93.7289V46.88H90.7289V62ZM95.9242 62H98.9242V46.88H95.9242V62ZM107.378 62H112.478C116.698 62 120.438 59.54 120.438 54.96C120.438 49.78 116.618 47.84 112.058 47.84H107.378V62ZM110.498 50.72H112.338C114.978 50.72 117.198 52.02 117.198 54.8C117.198 58.02 115.018 59.12 112.118 59.12H110.498V50.72ZM129.273 58.78C128.773 59.46 128.113 59.96 127.133 59.96C125.973 59.96 125.113 59.22 124.873 58.08H131.833V57.14C131.833 54.04 130.073 52.04 127.273 52.04C124.273 52.04 121.873 54.04 121.873 57.14C121.873 60.24 124.273 62.24 127.273 62.24C128.833 62.24 130.413 61.54 131.373 60.32L129.273 58.78ZM124.873 56.04C124.953 55.1 125.673 54.2 126.993 54.2C128.073 54.2 128.853 55.04 128.833 56.04H124.873ZM134.698 62H137.698V54.68H139.918V52.28H137.698V50.74C137.698 49.46 138.178 49.16 139.138 49.16C139.498 49.16 139.778 49.24 140.118 49.36L140.258 46.82C139.698 46.68 139.098 46.64 138.498 46.64C135.238 46.64 134.698 48.44 134.698 50.56V52.28H132.718V54.68H134.698V62ZM147.16 62H149.92V57.06C149.92 53.82 148.98 52.04 145.48 52.04C143.9 52.04 142.3 52.56 141.2 53.6L142.8 55.24C143.44 54.52 144.26 54.08 145.24 54.08C146.28 54.08 147.16 54.76 147.16 55.82C144.66 55.82 140.58 55.88 140.58 59.24C140.58 61.2 142.22 62.24 144.04 62.24C145.26 62.24 146.46 61.82 147.12 60.78H147.16V62ZM147.16 57.74V58.38C147.16 59.58 146.06 60.2 144.88 60.2C144.22 60.2 143.46 59.86 143.46 59.14C143.46 57.82 145.5 57.74 146.42 57.74H147.16ZM161.162 52.28H158.162V57.12C158.162 58.38 157.922 59.6 156.362 59.6C154.822 59.6 154.802 58.16 154.802 57.04V52.28H151.802V57.64C151.802 60.24 152.362 62.24 155.402 62.24C156.862 62.24 157.842 61.44 158.242 60.68H158.282V62H161.162V52.28ZM163.327 62H166.327V46.88H163.327V62ZM175.102 52.28H172.462V49.4H169.462V52.28H167.542V54.68H169.462V59.3C169.462 61.42 171.002 62.24 173.002 62.24C173.702 62.24 174.442 62.18 175.102 61.94V59.44C174.842 59.68 174.202 59.72 173.882 59.72C172.582 59.72 172.462 58.96 172.462 57.92V54.68H175.102V52.28Z" fill="#333333"/>
<path d="M291.06 55L295.48 50.58C295.554 50.5113 295.613 50.4285 295.654 50.3365C295.695 50.2445 295.717 50.1452 295.719 50.0445C295.72 49.9438 295.702 49.8437 295.664 49.7504C295.626 49.657 295.57 49.5721 295.499 49.5009C295.428 49.4297 295.343 49.3736 295.25 49.3358C295.156 49.2981 295.056 49.2796 294.955 49.2814C294.855 49.2831 294.755 49.3052 294.663 49.3462C294.571 49.3872 294.489 49.4463 294.42 49.52L290 53.94L285.58 49.52C285.438 49.3875 285.25 49.3154 285.055 49.3188C284.861 49.3222 284.676 49.4009 284.538 49.5383C284.401 49.6757 284.322 49.8611 284.319 50.0554C284.315 50.2497 284.388 50.4378 284.52 50.58L288.94 55L284.52 59.42C284.38 59.5606 284.301 59.7512 284.301 59.95C284.301 60.1487 284.38 60.3393 284.52 60.48C284.661 60.6204 284.851 60.6993 285.05 60.6993C285.249 60.6993 285.439 60.6204 285.58 60.48L290 56.06L294.42 60.48C294.561 60.6204 294.751 60.6993 294.95 60.6993C295.149 60.6993 295.339 60.6204 295.48 60.48C295.62 60.3393 295.699 60.1487 295.699 59.95C295.699 59.7512 295.62 59.5606 295.48 59.42L291.06 55Z" fill="#6B778C"/>
<rect x="211.5" y="238.5" width="90" height="35" rx="3.5" fill="#6C3078"/>
<path d="M232.106 260H233.87V255.898H235.13C237.23 255.898 239.092 255.45 239.092 252.958C239.092 250.76 237.356 250.088 235.438 250.088H232.106V260ZM233.87 254.386V251.6H235.13C236.082 251.6 237.244 251.768 237.244 252.986C237.244 254.33 235.942 254.386 234.934 254.386H233.87ZM240.511 260H242.191V256.402C242.191 256.038 242.415 254.708 243.997 254.708C244.263 254.708 244.529 254.764 244.809 254.834V253.21C244.613 253.154 244.417 253.112 244.207 253.112C243.325 253.112 242.583 253.574 242.219 254.344H242.191V253.28H240.511V260ZM245.98 260H247.66V253.28H245.98V260ZM245.742 250.998C245.742 251.53 246.19 252.006 246.806 252.006C247.422 252.006 247.898 251.572 247.898 250.998C247.898 250.424 247.422 249.99 246.806 249.99C246.19 249.99 245.742 250.466 245.742 250.998ZM249.519 260H251.199V256.332C251.199 255.436 251.633 254.624 252.739 254.624C253.551 254.624 253.887 255.17 253.887 255.996V260H255.567V256.36C255.567 255.492 255.959 254.624 257.009 254.624C258.003 254.624 258.255 255.352 258.255 256.192V260H259.935V255.996C259.935 254.386 259.305 253.112 257.513 253.112C256.505 253.112 255.791 253.504 255.301 254.358C254.951 253.518 254.237 253.112 253.201 253.112C252.081 253.112 251.437 253.7 251.143 254.33H251.115V253.28H249.519V260ZM265.97 260H267.482V256.136C267.482 255.184 267.482 253.112 264.612 253.112C263.548 253.112 262.498 253.434 261.756 254.19L262.638 255.072C263.086 254.652 263.73 254.372 264.43 254.372C265.326 254.372 265.97 254.806 265.97 255.632V255.814H265.55C263.87 255.814 261.322 255.968 261.322 258.152C261.322 259.482 262.526 260.168 263.772 260.168C264.668 260.168 265.452 259.832 265.928 259.076H265.97V260ZM265.872 257.368C265.872 258.306 265.326 258.908 264.178 258.908C263.632 258.908 263.002 258.642 263.002 258.026C263.002 257.06 264.598 256.99 265.522 256.99H265.872V257.368ZM269.29 260H270.97V256.402C270.97 256.038 271.194 254.708 272.776 254.708C273.042 254.708 273.308 254.764 273.588 254.834V253.21C273.392 253.154 273.196 253.112 272.986 253.112C272.104 253.112 271.362 253.574 270.998 254.344H270.97V253.28H269.29V260ZM276.691 260.056L276.369 260.854C276.089 261.554 275.865 261.848 275.039 261.848C274.745 261.848 274.451 261.778 274.185 261.68L273.975 263.192C274.395 263.304 274.829 263.36 275.263 263.36C276.747 263.36 277.335 262.702 277.825 261.442L281.003 253.28H279.253L277.573 257.942H277.545L275.669 253.28H273.821L276.691 260.056Z" fill="white"/>
<rect x="211.5" y="238.5" width="90" height="35" rx="3.5" stroke="#6C3078"/>
<path d="M60.512 252.16C59.552 250.912 58.048 250.384 56.512 250.384C53.152 250.384 50.752 253.008 50.752 256.336C50.752 259.776 53.264 262.288 56.512 262.288C58.32 262.288 59.792 261.664 60.8 260.304L59.792 259.456C58.992 260.48 57.888 261.04 56.512 261.04C53.968 261.04 52.192 258.96 52.192 256.336C52.192 253.856 53.984 251.632 56.512 251.632C57.6 251.632 58.672 252.096 59.344 253.008L60.512 252.16ZM63.1376 256.288C63.7296 255.744 64.5616 255.472 65.3616 255.472C66.5296 255.472 67.2176 256.032 67.2176 257.12V257.344H66.7376C64.8976 257.344 62.0176 257.488 62.0176 259.968C62.0176 261.424 63.2816 262.192 64.8016 262.192C65.9376 262.192 66.7696 261.648 67.2656 260.88H67.2976C67.2976 261.2 67.2976 261.664 67.3776 262H68.5776C68.5136 261.616 68.4656 261.136 68.4656 260.704V257.488C68.4656 255.376 67.5376 254.32 65.3296 254.32C64.2416 254.32 63.1216 254.688 62.3536 255.472L63.1376 256.288ZM67.2176 258.4V258.88C67.1856 260.096 66.4496 261.136 65.0096 261.136C64.0656 261.136 63.3616 260.784 63.3616 259.84C63.3616 258.832 64.3856 258.4 65.9696 258.4H67.2176ZM70.7465 262H71.9945V258.352C71.9945 256.64 72.6985 255.472 74.3145 255.472C75.4825 255.472 76.0265 256.256 76.0265 257.504V262H77.2745V257.376C77.2745 255.568 76.3945 254.32 74.4265 254.32C73.1945 254.32 72.2665 255.008 71.9305 255.744H71.8985C71.8985 255.328 71.8665 254.912 71.8665 254.512H70.6825C70.6825 255.008 70.7465 255.6 70.7465 256.288V262ZM85.9571 255.504C85.2051 254.688 84.1811 254.32 83.0771 254.32C80.7731 254.32 79.2051 255.984 79.2051 258.256C79.2051 260.56 80.7571 262.192 83.0771 262.192C84.1651 262.192 85.1891 261.824 85.9091 260.992L84.9811 260.112C84.5171 260.752 83.8931 261.04 83.0771 261.04C81.5571 261.04 80.5491 259.792 80.5491 258.256C80.5491 256.72 81.3971 255.472 83.0771 255.472C83.8291 255.472 84.4371 255.744 84.9651 256.384L85.9571 255.504ZM93.0999 259.904C92.5079 260.656 91.7879 261.04 90.7159 261.04C89.3559 261.04 88.3639 259.936 88.2679 258.64H94.3159V258.24C94.3159 255.76 92.8759 254.32 90.7639 254.32C88.5559 254.32 86.9239 255.936 86.9239 258.256C86.9239 260.432 88.3639 262.192 90.7159 262.192C92.1079 262.192 93.1639 261.776 94.0439 260.64L93.0999 259.904ZM88.2679 257.584C88.4279 256.32 89.3399 255.472 90.7159 255.472C92.0919 255.472 92.9239 256.32 92.9719 257.584H88.2679ZM96.3585 262H97.6065V249.904H96.3585V262Z" fill="#6C3078"/>
<rect x="854" y="642" width="300" height="270" rx="12" fill="white"/>
<path d="M888.58 666.96C887.38 665.9 885.84 665.48 884.24 665.48C881.46 665.48 878.84 667.06 878.84 670.08C878.84 674.8 885.48 673.4 885.48 676C885.48 677 884.34 677.48 883.32 677.48C882.28 677.48 881.24 676.98 880.6 676.14L878.38 678.58C879.72 679.82 881.32 680.36 883.14 680.36C886.06 680.36 888.6 678.86 888.6 675.7C888.6 670.74 882.08 672.4 882.08 669.82C882.08 668.76 883.3 668.36 884.18 668.36C884.94 668.36 885.94 668.66 886.44 669.3L888.58 666.96ZM890.544 680H893.544V675.16C893.544 673.9 893.784 672.68 895.344 672.68C896.724 672.68 896.684 674.14 896.684 674.86V680H899.684V674.86C899.684 673.66 900.124 672.68 901.504 672.68C902.484 672.68 902.824 673.44 902.824 674.34V680H905.824V674.26C905.824 671.9 905.024 670.04 902.384 670.04C900.944 670.04 900.004 670.54 899.304 671.78C898.784 670.6 897.664 670.04 896.304 670.04C894.844 670.04 893.864 670.84 893.464 671.6H893.424V670.28H890.544V680ZM914.047 680H916.807V675.06C916.807 671.82 915.867 670.04 912.367 670.04C910.787 670.04 909.187 670.56 908.087 671.6L909.687 673.24C910.327 672.52 911.147 672.08 912.127 672.08C913.167 672.08 914.047 672.76 914.047 673.82C911.547 673.82 907.467 673.88 907.467 677.24C907.467 679.2 909.107 680.24 910.927 680.24C912.147 680.24 913.347 679.82 914.007 678.78H914.047V680ZM914.047 675.74V676.38C914.047 677.58 912.947 678.2 911.767 678.2C911.107 678.2 910.347 677.86 910.347 677.14C910.347 675.82 912.387 675.74 913.307 675.74H914.047ZM918.729 680H921.729V664.88H918.729V680ZM923.924 680H926.924V664.88H923.924V680ZM935.378 680H940.478C944.698 680 948.438 677.54 948.438 672.96C948.438 667.78 944.618 665.84 940.058 665.84H935.378V680ZM938.498 668.72H940.338C942.978 668.72 945.198 670.02 945.198 672.8C945.198 676.02 943.018 677.12 940.118 677.12H938.498V668.72ZM956.273 680H959.033V675.06C959.033 671.82 958.093 670.04 954.593 670.04C953.013 670.04 951.413 670.56 950.313 671.6L951.913 673.24C952.553 672.52 953.373 672.08 954.353 672.08C955.393 672.08 956.273 672.76 956.273 673.82C953.773 673.82 949.693 673.88 949.693 677.24C949.693 679.2 951.333 680.24 953.153 680.24C954.373 680.24 955.573 679.82 956.233 678.78H956.273V680ZM956.273 675.74V676.38C956.273 677.58 955.173 678.2 953.993 678.2C953.333 678.2 952.573 677.86 952.573 677.14C952.573 675.82 954.613 675.74 955.533 675.74H956.273ZM960.915 680H963.915V675.16C963.915 673.9 964.155 672.68 965.715 672.68C967.255 672.68 967.275 674.12 967.275 675.24V680H970.275V674.64C970.275 672.04 969.715 670.04 966.675 670.04C965.215 670.04 964.235 670.84 963.835 671.6H963.795V670.28H960.915V680ZM982.6 670.28H979.84V671.56H979.8C979.34 670.86 978.18 670.04 976.48 670.04C973.72 670.04 972.04 672.52 972.04 675.1C972.04 678.04 973.94 680.12 976.82 680.12C977.72 680.12 978.88 679.78 979.56 678.84H979.6V679.78C979.6 681.16 978.74 682.16 976.92 682.16C975.7 682.16 974.68 681.68 973.76 680.9L972.1 683.38C973.5 684.5 975.26 684.8 976.98 684.8C980.74 684.8 982.6 682.84 982.6 679.18V670.28ZM975.04 675.08C975.04 673.82 976.08 672.68 977.44 672.68C978.8 672.68 979.84 673.82 979.84 675.08C979.84 676.34 978.8 677.48 977.44 677.48C976.08 677.48 975.04 676.34 975.04 675.08ZM992.098 676.78C991.598 677.46 990.938 677.96 989.958 677.96C988.798 677.96 987.938 677.22 987.698 676.08H994.658V675.14C994.658 672.04 992.898 670.04 990.098 670.04C987.098 670.04 984.698 672.04 984.698 675.14C984.698 678.24 987.098 680.24 990.098 680.24C991.658 680.24 993.238 679.54 994.198 678.32L992.098 676.78ZM987.698 674.04C987.778 673.1 988.498 672.2 989.817 672.2C990.898 672.2 991.678 673.04 991.658 674.04H987.698ZM996.482 680H999.482V675.94C999.482 674 999.762 672.68 1002.04 672.68C1002.48 672.68 1002.9 672.76 1003.32 672.88V670.14C1003.04 670.06 1002.66 670.04 1002.32 670.04C1001 670.04 1000.16 670.66 999.522 671.84H999.482V670.28H996.482V680Z" fill="#DB3259"/>
<path d="M1119.06 673L1123.48 668.58C1123.55 668.511 1123.61 668.428 1123.65 668.336C1123.69 668.244 1123.72 668.145 1123.72 668.044C1123.72 667.944 1123.7 667.844 1123.66 667.75C1123.63 667.657 1123.57 667.572 1123.5 667.501C1123.43 667.43 1123.34 667.374 1123.25 667.336C1123.16 667.298 1123.06 667.28 1122.96 667.281C1122.85 667.283 1122.76 667.305 1122.66 667.346C1122.57 667.387 1122.49 667.446 1122.42 667.52L1118 671.94L1113.58 667.52C1113.44 667.387 1113.25 667.315 1113.06 667.319C1112.86 667.322 1112.68 667.401 1112.54 667.538C1112.4 667.676 1112.32 667.861 1112.32 668.055C1112.32 668.25 1112.39 668.438 1112.52 668.58L1116.94 673L1112.52 677.42C1112.38 677.561 1112.3 677.751 1112.3 677.95C1112.3 678.149 1112.38 678.339 1112.52 678.48C1112.66 678.62 1112.85 678.699 1113.05 678.699C1113.25 678.699 1113.44 678.62 1113.58 678.48L1118 674.06L1122.42 678.48C1122.56 678.62 1122.75 678.699 1122.95 678.699C1123.15 678.699 1123.34 678.62 1123.48 678.48C1123.62 678.339 1123.7 678.149 1123.7 677.95C1123.7 677.751 1123.62 677.561 1123.48 677.42L1119.06 673Z" fill="#6B778C"/>
<rect x="1039.5" y="856.5" width="90" height="35" rx="3.5" fill="#DB3259"/>
<path d="M1060.11 878H1061.87V873.898H1063.13C1065.23 873.898 1067.09 873.45 1067.09 870.958C1067.09 868.76 1065.36 868.088 1063.44 868.088H1060.11V878ZM1061.87 872.386V869.6H1063.13C1064.08 869.6 1065.24 869.768 1065.24 870.986C1065.24 872.33 1063.94 872.386 1062.93 872.386H1061.87ZM1068.51 878H1070.19V874.402C1070.19 874.038 1070.41 872.708 1072 872.708C1072.26 872.708 1072.53 872.764 1072.81 872.834V871.21C1072.61 871.154 1072.42 871.112 1072.21 871.112C1071.32 871.112 1070.58 871.574 1070.22 872.344H1070.19V871.28H1068.51V878ZM1073.98 878H1075.66V871.28H1073.98V878ZM1073.74 868.998C1073.74 869.53 1074.19 870.006 1074.81 870.006C1075.42 870.006 1075.9 869.572 1075.9 868.998C1075.9 868.424 1075.42 867.99 1074.81 867.99C1074.19 867.99 1073.74 868.466 1073.74 868.998ZM1077.52 878H1079.2V874.332C1079.2 873.436 1079.63 872.624 1080.74 872.624C1081.55 872.624 1081.89 873.17 1081.89 873.996V878H1083.57V874.36C1083.57 873.492 1083.96 872.624 1085.01 872.624C1086 872.624 1086.25 873.352 1086.25 874.192V878H1087.93V873.996C1087.93 872.386 1087.3 871.112 1085.51 871.112C1084.5 871.112 1083.79 871.504 1083.3 872.358C1082.95 871.518 1082.24 871.112 1081.2 871.112C1080.08 871.112 1079.44 871.7 1079.14 872.33H1079.11V871.28H1077.52V878ZM1093.97 878H1095.48V874.136C1095.48 873.184 1095.48 871.112 1092.61 871.112C1091.55 871.112 1090.5 871.434 1089.76 872.19L1090.64 873.072C1091.09 872.652 1091.73 872.372 1092.43 872.372C1093.33 872.372 1093.97 872.806 1093.97 873.632V873.814H1093.55C1091.87 873.814 1089.32 873.968 1089.32 876.152C1089.32 877.482 1090.53 878.168 1091.77 878.168C1092.67 878.168 1093.45 877.832 1093.93 877.076H1093.97V878ZM1093.87 875.368C1093.87 876.306 1093.33 876.908 1092.18 876.908C1091.63 876.908 1091 876.642 1091 876.026C1091 875.06 1092.6 874.99 1093.52 874.99H1093.87V875.368ZM1097.29 878H1098.97V874.402C1098.97 874.038 1099.19 872.708 1100.78 872.708C1101.04 872.708 1101.31 872.764 1101.59 872.834V871.21C1101.39 871.154 1101.2 871.112 1100.99 871.112C1100.1 871.112 1099.36 871.574 1099 872.344H1098.97V871.28H1097.29V878ZM1104.69 878.056L1104.37 878.854C1104.09 879.554 1103.87 879.848 1103.04 879.848C1102.75 879.848 1102.45 879.778 1102.19 879.68L1101.98 881.192C1102.4 881.304 1102.83 881.36 1103.26 881.36C1104.75 881.36 1105.34 880.702 1105.83 879.442L1109 871.28H1107.25L1105.57 875.942H1105.55L1103.67 871.28H1101.82L1104.69 878.056Z" fill="white"/>
<rect x="1039.5" y="856.5" width="90" height="35" rx="3.5" stroke="#DB3259"/>
<path d="M888.512 870.16C887.552 868.912 886.048 868.384 884.512 868.384C881.152 868.384 878.752 871.008 878.752 874.336C878.752 877.776 881.264 880.288 884.512 880.288C886.32 880.288 887.792 879.664 888.8 878.304L887.792 877.456C886.992 878.48 885.888 879.04 884.512 879.04C881.968 879.04 880.192 876.96 880.192 874.336C880.192 871.856 881.984 869.632 884.512 869.632C885.6 869.632 886.672 870.096 887.344 871.008L888.512 870.16ZM891.138 874.288C891.73 873.744 892.562 873.472 893.362 873.472C894.53 873.472 895.218 874.032 895.218 875.12V875.344H894.738C892.898 875.344 890.018 875.488 890.018 877.968C890.018 879.424 891.282 880.192 892.802 880.192C893.938 880.192 894.77 879.648 895.266 878.88H895.298C895.298 879.2 895.298 879.664 895.378 880H896.578C896.514 879.616 896.466 879.136 896.466 878.704V875.488C896.466 873.376 895.538 872.32 893.33 872.32C892.242 872.32 891.122 872.688 890.354 873.472L891.138 874.288ZM895.218 876.4V876.88C895.186 878.096 894.45 879.136 893.01 879.136C892.066 879.136 891.362 878.784 891.362 877.84C891.362 876.832 892.386 876.4 893.97 876.4H895.218ZM898.747 880H899.995V876.352C899.995 874.64 900.699 873.472 902.315 873.472C903.483 873.472 904.027 874.256 904.027 875.504V880H905.275V875.376C905.275 873.568 904.395 872.32 902.427 872.32C901.195 872.32 900.267 873.008 899.931 873.744H899.899C899.899 873.328 899.867 872.912 899.867 872.512H898.683C898.683 873.008 898.747 873.6 898.747 874.288V880ZM913.957 873.504C913.205 872.688 912.181 872.32 911.077 872.32C908.773 872.32 907.205 873.984 907.205 876.256C907.205 878.56 908.757 880.192 911.077 880.192C912.165 880.192 913.189 879.824 913.909 878.992L912.981 878.112C912.517 878.752 911.893 879.04 911.077 879.04C909.557 879.04 908.549 877.792 908.549 876.256C908.549 874.72 909.397 873.472 911.077 873.472C911.829 873.472 912.437 873.744 912.965 874.384L913.957 873.504ZM921.1 877.904C920.508 878.656 919.788 879.04 918.716 879.04C917.356 879.04 916.364 877.936 916.268 876.64H922.316V876.24C922.316 873.76 920.876 872.32 918.764 872.32C916.556 872.32 914.924 873.936 914.924 876.256C914.924 878.432 916.364 880.192 918.716 880.192C920.108 880.192 921.164 879.776 922.044 878.64L921.1 877.904ZM916.268 875.584C916.428 874.32 917.34 873.472 918.716 873.472C920.092 873.472 920.924 874.32 920.972 875.584H916.268ZM924.359 880H925.607V867.904H924.359V880Z" fill="#6C3078"/>
<rect x="26" y="328" width="500" height="270" rx="12" fill="white"/>
<path d="M51.44 366H54.56V355.14H54.6L58.18 366H60.56L64.28 355.14H64.32V366H67.44V351.84H62.74L59.46 361.08H59.42L56.16 351.84H51.44V366ZM77.0467 362.78C76.5467 363.46 75.8867 363.96 74.9067 363.96C73.7467 363.96 72.8867 363.22 72.6467 362.08H79.6067V361.14C79.6067 358.04 77.8467 356.04 75.0467 356.04C72.0467 356.04 69.6467 358.04 69.6467 361.14C69.6467 364.24 72.0467 366.24 75.0467 366.24C76.6067 366.24 78.1867 365.54 79.1467 364.32L77.0467 362.78ZM72.6467 360.04C72.7267 359.1 73.4467 358.2 74.7667 358.2C75.8467 358.2 76.6267 359.04 76.6067 360.04H72.6467ZM91.6311 350.88H88.6311V357.32H88.5911C87.9111 356.38 86.7511 356.04 85.5111 356.04C82.7511 356.04 81.0711 358.52 81.0711 361.22C81.0711 364.16 82.9711 366.24 85.8511 366.24C87.2111 366.24 88.3711 365.42 88.8311 364.72H88.8711V366H91.6311V350.88ZM88.8711 361.14C88.8711 362.6 87.9711 363.6 86.4711 363.6C84.9711 363.6 84.0711 362.6 84.0711 361.14C84.0711 359.68 84.9711 358.68 86.4711 358.68C87.9711 358.68 88.8711 359.68 88.8711 361.14ZM94.0688 366H97.0688V356.28H94.0688V366ZM93.8288 353.22C93.8288 354.18 94.6088 354.96 95.5688 354.96C96.5288 354.96 97.3088 354.18 97.3088 353.22C97.3088 352.26 96.5288 351.48 95.5688 351.48C94.6088 351.48 93.8288 352.26 93.8288 353.22ZM108.584 356.28H105.584V361.12C105.584 362.38 105.344 363.6 103.784 363.6C102.244 363.6 102.224 362.16 102.224 361.04V356.28H99.2241V361.64C99.2241 364.24 99.7841 366.24 102.824 366.24C104.284 366.24 105.264 365.44 105.664 364.68H105.704V366H108.584V356.28ZM110.708 366H113.708V361.16C113.708 359.9 113.948 358.68 115.508 358.68C116.888 358.68 116.848 360.14 116.848 360.86V366H119.848V360.86C119.848 359.66 120.288 358.68 121.668 358.68C122.648 358.68 122.988 359.44 122.988 360.34V366H125.988V360.26C125.988 357.9 125.188 356.04 122.548 356.04C121.108 356.04 120.168 356.54 119.468 357.78C118.948 356.6 117.828 356.04 116.468 356.04C115.008 356.04 114.028 356.84 113.628 357.6H113.588V356.28H110.708V366ZM134.409 366H139.509C143.729 366 147.469 363.54 147.469 358.96C147.469 353.78 143.649 351.84 139.089 351.84H134.409V366ZM137.529 354.72H139.369C142.009 354.72 144.229 356.02 144.229 358.8C144.229 362.02 142.049 363.12 139.149 363.12H137.529V354.72ZM156.305 362.78C155.805 363.46 155.145 363.96 154.165 363.96C153.005 363.96 152.145 363.22 151.905 362.08H158.865V361.14C158.865 358.04 157.105 356.04 154.305 356.04C151.305 356.04 148.905 358.04 148.905 361.14C148.905 364.24 151.305 366.24 154.305 366.24C155.865 366.24 157.445 365.54 158.405 364.32L156.305 362.78ZM151.905 360.04C151.985 359.1 152.705 358.2 154.025 358.2C155.105 358.2 155.885 359.04 155.865 360.04H151.905ZM161.729 366H164.729V358.68H166.949V356.28H164.729V354.74C164.729 353.46 165.209 353.16 166.169 353.16C166.529 353.16 166.809 353.24 167.149 353.36L167.289 350.82C166.729 350.68 166.129 350.64 165.529 350.64C162.269 350.64 161.729 352.44 161.729 354.56V356.28H159.749V358.68H161.729V366ZM174.191 366H176.951V361.06C176.951 357.82 176.011 356.04 172.511 356.04C170.931 356.04 169.331 356.56 168.231 357.6L169.831 359.24C170.471 358.52 171.291 358.08 172.271 358.08C173.311 358.08 174.191 358.76 174.191 359.82C171.691 359.82 167.611 359.88 167.611 363.24C167.611 365.2 169.251 366.24 171.071 366.24C172.291 366.24 173.491 365.82 174.151 364.78H174.191V366ZM174.191 361.74V362.38C174.191 363.58 173.091 364.2 171.911 364.2C171.251 364.2 170.491 363.86 170.491 363.14C170.491 361.82 172.531 361.74 173.451 361.74H174.191ZM188.193 356.28H185.193V361.12C185.193 362.38 184.953 363.6 183.393 363.6C181.853 363.6 181.833 362.16 181.833 361.04V356.28H178.833V361.64C178.833 364.24 179.393 366.24 182.433 366.24C183.893 366.24 184.873 365.44 185.273 364.68H185.313V366H188.193V356.28ZM190.358 366H193.358V350.88H190.358V366ZM202.133 356.28H199.493V353.4H196.493V356.28H194.573V358.68H196.493V363.3C196.493 365.42 198.033 366.24 200.033 366.24C200.733 366.24 201.473 366.18 202.133 365.94V363.44C201.873 363.68 201.233 363.72 200.913 363.72C199.613 363.72 199.493 362.96 199.493 361.92V358.68H202.133V356.28Z" fill="#333333"/>
<path d="M491.06 359L495.48 354.58C495.554 354.511 495.613 354.428 495.654 354.336C495.695 354.244 495.717 354.145 495.719 354.044C495.72 353.944 495.702 353.844 495.664 353.75C495.626 353.657 495.57 353.572 495.499 353.501C495.428 353.43 495.343 353.374 495.25 353.336C495.156 353.298 495.056 353.28 494.955 353.281C494.855 353.283 494.755 353.305 494.663 353.346C494.571 353.387 494.489 353.446 494.42 353.52L490 357.94L485.58 353.52C485.438 353.387 485.25 353.315 485.055 353.319C484.861 353.322 484.676 353.401 484.538 353.538C484.401 353.676 484.322 353.861 484.319 354.055C484.315 354.25 484.388 354.438 484.52 354.58L488.94 359L484.52 363.42C484.38 363.561 484.301 363.751 484.301 363.95C484.301 364.149 484.38 364.339 484.52 364.48C484.661 364.62 484.851 364.699 485.05 364.699C485.249 364.699 485.439 364.62 485.58 364.48L490 360.06L494.42 364.48C494.561 364.62 494.751 364.699 494.95 364.699C495.149 364.699 495.339 364.62 495.48 364.48C495.62 364.339 495.699 364.149 495.699 363.95C495.699 363.751 495.62 363.561 495.48 363.42L491.06 359Z" fill="#6B778C"/>
<rect x="411.5" y="542.5" width="90" height="35" rx="3.5" fill="#6C3078"/>
<path d="M432.106 564H433.87V559.898H435.13C437.23 559.898 439.092 559.45 439.092 556.958C439.092 554.76 437.356 554.088 435.438 554.088H432.106V564ZM433.87 558.386V555.6H435.13C436.082 555.6 437.244 555.768 437.244 556.986C437.244 558.33 435.942 558.386 434.934 558.386H433.87ZM440.511 564H442.191V560.402C442.191 560.038 442.415 558.708 443.997 558.708C444.263 558.708 444.529 558.764 444.809 558.834V557.21C444.613 557.154 444.417 557.112 444.207 557.112C443.325 557.112 442.583 557.574 442.219 558.344H442.191V557.28H440.511V564ZM445.98 564H447.66V557.28H445.98V564ZM445.742 554.998C445.742 555.53 446.19 556.006 446.806 556.006C447.422 556.006 447.898 555.572 447.898 554.998C447.898 554.424 447.422 553.99 446.806 553.99C446.19 553.99 445.742 554.466 445.742 554.998ZM449.519 564H451.199V560.332C451.199 559.436 451.633 558.624 452.739 558.624C453.551 558.624 453.887 559.17 453.887 559.996V564H455.567V560.36C455.567 559.492 455.959 558.624 457.009 558.624C458.003 558.624 458.255 559.352 458.255 560.192V564H459.935V559.996C459.935 558.386 459.305 557.112 457.513 557.112C456.505 557.112 455.791 557.504 455.301 558.358C454.951 557.518 454.237 557.112 453.201 557.112C452.081 557.112 451.437 557.7 451.143 558.33H451.115V557.28H449.519V564ZM465.97 564H467.482V560.136C467.482 559.184 467.482 557.112 464.612 557.112C463.548 557.112 462.498 557.434 461.756 558.19L462.638 559.072C463.086 558.652 463.73 558.372 464.43 558.372C465.326 558.372 465.97 558.806 465.97 559.632V559.814H465.55C463.87 559.814 461.322 559.968 461.322 562.152C461.322 563.482 462.526 564.168 463.772 564.168C464.668 564.168 465.452 563.832 465.928 563.076H465.97V564ZM465.872 561.368C465.872 562.306 465.326 562.908 464.178 562.908C463.632 562.908 463.002 562.642 463.002 562.026C463.002 561.06 464.598 560.99 465.522 560.99H465.872V561.368ZM469.29 564H470.97V560.402C470.97 560.038 471.194 558.708 472.776 558.708C473.042 558.708 473.308 558.764 473.588 558.834V557.21C473.392 557.154 473.196 557.112 472.986 557.112C472.104 557.112 471.362 557.574 470.998 558.344H470.97V557.28H469.29V564ZM476.691 564.056L476.369 564.854C476.089 565.554 475.865 565.848 475.039 565.848C474.745 565.848 474.451 565.778 474.185 565.68L473.975 567.192C474.395 567.304 474.829 567.36 475.263 567.36C476.747 567.36 477.335 566.702 477.825 565.442L481.003 557.28H479.253L477.573 561.942H477.545L475.669 557.28H473.821L476.691 564.056Z" fill="white"/>
<rect x="411.5" y="542.5" width="90" height="35" rx="3.5" stroke="#6C3078"/>
<path d="M60.512 556.16C59.552 554.912 58.048 554.384 56.512 554.384C53.152 554.384 50.752 557.008 50.752 560.336C50.752 563.776 53.264 566.288 56.512 566.288C58.32 566.288 59.792 565.664 60.8 564.304L59.792 563.456C58.992 564.48 57.888 565.04 56.512 565.04C53.968 565.04 52.192 562.96 52.192 560.336C52.192 557.856 53.984 555.632 56.512 555.632C57.6 555.632 58.672 556.096 59.344 557.008L60.512 556.16ZM63.1376 560.288C63.7296 559.744 64.5616 559.472 65.3616 559.472C66.5296 559.472 67.2176 560.032 67.2176 561.12V561.344H66.7376C64.8976 561.344 62.0176 561.488 62.0176 563.968C62.0176 565.424 63.2816 566.192 64.8016 566.192C65.9376 566.192 66.7696 565.648 67.2656 564.88H67.2976C67.2976 565.2 67.2976 565.664 67.3776 566H68.5776C68.5136 565.616 68.4656 565.136 68.4656 564.704V561.488C68.4656 559.376 67.5376 558.32 65.3296 558.32C64.2416 558.32 63.1216 558.688 62.3536 559.472L63.1376 560.288ZM67.2176 562.4V562.88C67.1856 564.096 66.4496 565.136 65.0096 565.136C64.0656 565.136 63.3616 564.784 63.3616 563.84C63.3616 562.832 64.3856 562.4 65.9696 562.4H67.2176ZM70.7465 566H71.9945V562.352C71.9945 560.64 72.6985 559.472 74.3145 559.472C75.4825 559.472 76.0265 560.256 76.0265 561.504V566H77.2745V561.376C77.2745 559.568 76.3945 558.32 74.4265 558.32C73.1945 558.32 72.2665 559.008 71.9305 559.744H71.8985C71.8985 559.328 71.8665 558.912 71.8665 558.512H70.6825C70.6825 559.008 70.7465 559.6 70.7465 560.288V566ZM85.9571 559.504C85.2051 558.688 84.1811 558.32 83.0771 558.32C80.7731 558.32 79.2051 559.984 79.2051 562.256C79.2051 564.56 80.7571 566.192 83.0771 566.192C84.1651 566.192 85.1891 565.824 85.9091 564.992L84.9811 564.112C84.5171 564.752 83.8931 565.04 83.0771 565.04C81.5571 565.04 80.5491 563.792 80.5491 562.256C80.5491 560.72 81.3971 559.472 83.0771 559.472C83.8291 559.472 84.4371 559.744 84.9651 560.384L85.9571 559.504ZM93.0999 563.904C92.5079 564.656 91.7879 565.04 90.7159 565.04C89.3559 565.04 88.3639 563.936 88.2679 562.64H94.3159V562.24C94.3159 559.76 92.8759 558.32 90.7639 558.32C88.5559 558.32 86.9239 559.936 86.9239 562.256C86.9239 564.432 88.3639 566.192 90.7159 566.192C92.1079 566.192 93.1639 565.776 94.0439 564.64L93.0999 563.904ZM88.2679 561.584C88.4279 560.32 89.3399 559.472 90.7159 559.472C92.0919 559.472 92.9239 560.32 92.9719 561.584H88.2679ZM96.3585 566H97.6065V553.904H96.3585V566Z" fill="#6C3078"/>
<rect x="294.5" y="542.5" width="108" height="35" rx="3.5" fill="#EDE9ED"/>
<path d="M321.252 554.858C320.482 554.13 319.446 553.836 318.41 553.836C316.576 553.836 314.756 554.788 314.756 556.832C314.756 560.374 319.46 559.128 319.46 561.298C319.46 562.208 318.536 562.656 317.724 562.656C316.94 562.656 316.198 562.278 315.764 561.62L314.434 562.908C315.246 563.874 316.45 564.252 317.682 564.252C319.628 564.252 321.308 563.216 321.308 561.088C321.308 557.56 316.604 558.694 316.604 556.706C316.604 555.796 317.416 555.432 318.228 555.432C318.914 555.432 319.586 555.684 319.964 556.216L321.252 554.858ZM329.459 561.228V560.766C329.459 558.428 328.185 557.112 326.309 557.112C324.279 557.112 322.655 558.526 322.655 560.64C322.655 562.754 324.279 564.168 326.309 564.168C327.373 564.168 328.367 563.79 329.151 562.824L327.947 561.914C327.527 562.432 326.981 562.824 326.141 562.824C325.203 562.824 324.447 562.222 324.335 561.228H329.459ZM324.335 559.968C324.461 559.002 325.077 558.372 326.071 558.372C327.121 558.372 327.765 558.988 327.779 559.968H324.335ZM336.784 558.134C336.14 557.42 335.202 557.112 334.348 557.112C332.318 557.112 330.694 558.526 330.694 560.64C330.694 562.754 332.318 564.168 334.348 564.168C334.936 564.168 336.084 563.916 336.77 563.23L335.65 562.026C335.342 562.432 334.866 562.656 334.348 562.656C333.116 562.656 332.374 561.69 332.374 560.64C332.374 559.59 333.116 558.624 334.348 558.624C334.796 558.624 335.23 558.89 335.622 559.296L336.784 558.134ZM337.448 560.64C337.448 562.754 339.072 564.168 341.102 564.168C343.132 564.168 344.756 562.754 344.756 560.64C344.756 558.526 343.132 557.112 341.102 557.112C339.072 557.112 337.448 558.526 337.448 560.64ZM339.128 560.64C339.128 559.59 339.87 558.624 341.102 558.624C342.334 558.624 343.076 559.59 343.076 560.64C343.076 561.69 342.334 562.656 341.102 562.656C339.87 562.656 339.128 561.69 339.128 560.64ZM346.329 564H348.009V560.332C348.009 559.436 348.443 558.624 349.549 558.624C350.725 558.624 350.781 559.856 350.781 560.598V564H352.461V559.758C352.461 558.386 351.817 557.112 350.011 557.112C348.891 557.112 348.261 557.686 347.953 558.358H347.925V557.28H346.329V564ZM359.688 564H361.284V553.416H359.604V558.134H359.562C359.212 557.7 358.54 557.112 357.28 557.112C355.362 557.112 354.032 558.652 354.032 560.64C354.032 562.628 355.278 564.168 357.35 564.168C358.288 564.168 359.17 563.804 359.66 562.992H359.688V564ZM355.712 560.64C355.712 559.59 356.454 558.624 357.686 558.624C358.918 558.624 359.66 559.59 359.66 560.64C359.66 561.69 358.918 562.656 357.686 562.656C356.454 562.656 355.712 561.69 355.712 560.64ZM367.386 564H368.898V560.136C368.898 559.184 368.898 557.112 366.028 557.112C364.964 557.112 363.914 557.434 363.172 558.19L364.054 559.072C364.502 558.652 365.146 558.372 365.846 558.372C366.742 558.372 367.386 558.806 367.386 559.632V559.814H366.966C365.286 559.814 362.738 559.968 362.738 562.152C362.738 563.482 363.942 564.168 365.188 564.168C366.084 564.168 366.868 563.832 367.344 563.076H367.386V564ZM367.288 561.368C367.288 562.306 366.742 562.908 365.594 562.908C365.048 562.908 364.418 562.642 364.418 562.026C364.418 561.06 366.014 560.99 366.938 560.99H367.288V561.368ZM370.706 564H372.386V560.402C372.386 560.038 372.61 558.708 374.192 558.708C374.458 558.708 374.724 558.764 375.004 558.834V557.21C374.808 557.154 374.612 557.112 374.402 557.112C373.52 557.112 372.778 557.574 372.414 558.344H372.386V557.28H370.706V564ZM378.107 564.056L377.785 564.854C377.505 565.554 377.281 565.848 376.455 565.848C376.161 565.848 375.867 565.778 375.601 565.68L375.391 567.192C375.811 567.304 376.245 567.36 376.679 567.36C378.163 567.36 378.751 566.702 379.241 565.442L382.419 557.28H380.669L378.989 561.942H378.961L377.085 557.28H375.237L378.107 564.056Z" fill="#6C3078"/>
<rect x="294.5" y="542.5" width="108" height="35" rx="3.5" stroke="#6C3078"/>
<rect x="654" y="328" width="500" height="270" rx="12" fill="white"/>
<path d="M679.44 366H682.56V355.14H682.6L686.18 366H688.56L692.28 355.14H692.32V366H695.44V351.84H690.74L687.46 361.08H687.42L684.16 351.84H679.44V366ZM705.047 362.78C704.547 363.46 703.887 363.96 702.907 363.96C701.747 363.96 700.887 363.22 700.647 362.08H707.607V361.14C707.607 358.04 705.847 356.04 703.047 356.04C700.047 356.04 697.647 358.04 697.647 361.14C697.647 364.24 700.047 366.24 703.047 366.24C704.607 366.24 706.187 365.54 707.147 364.32L705.047 362.78ZM700.647 360.04C700.727 359.1 701.447 358.2 702.767 358.2C703.847 358.2 704.627 359.04 704.607 360.04H700.647ZM719.631 350.88H716.631V357.32H716.591C715.911 356.38 714.751 356.04 713.511 356.04C710.751 356.04 709.071 358.52 709.071 361.22C709.071 364.16 710.971 366.24 713.851 366.24C715.211 366.24 716.371 365.42 716.831 364.72H716.871V366H719.631V350.88ZM716.871 361.14C716.871 362.6 715.971 363.6 714.471 363.6C712.971 363.6 712.071 362.6 712.071 361.14C712.071 359.68 712.971 358.68 714.471 358.68C715.971 358.68 716.871 359.68 716.871 361.14ZM722.069 366H725.069V356.28H722.069V366ZM721.829 353.22C721.829 354.18 722.609 354.96 723.569 354.96C724.529 354.96 725.309 354.18 725.309 353.22C725.309 352.26 724.529 351.48 723.569 351.48C722.609 351.48 721.829 352.26 721.829 353.22ZM736.584 356.28H733.584V361.12C733.584 362.38 733.344 363.6 731.784 363.6C730.244 363.6 730.224 362.16 730.224 361.04V356.28H727.224V361.64C727.224 364.24 727.784 366.24 730.824 366.24C732.284 366.24 733.264 365.44 733.664 364.68H733.704V366H736.584V356.28ZM738.708 366H741.708V361.16C741.708 359.9 741.948 358.68 743.508 358.68C744.888 358.68 744.848 360.14 744.848 360.86V366H747.848V360.86C747.848 359.66 748.288 358.68 749.668 358.68C750.648 358.68 750.988 359.44 750.988 360.34V366H753.988V360.26C753.988 357.9 753.188 356.04 750.548 356.04C749.108 356.04 748.168 356.54 747.468 357.78C746.948 356.6 745.828 356.04 744.468 356.04C743.008 356.04 742.028 356.84 741.628 357.6H741.588V356.28H738.708V366ZM762.409 366H767.509C771.729 366 775.469 363.54 775.469 358.96C775.469 353.78 771.649 351.84 767.089 351.84H762.409V366ZM765.529 354.72H767.369C770.009 354.72 772.229 356.02 772.229 358.8C772.229 362.02 770.049 363.12 767.149 363.12H765.529V354.72ZM783.305 366H786.065V361.06C786.065 357.82 785.125 356.04 781.625 356.04C780.045 356.04 778.445 356.56 777.345 357.6L778.945 359.24C779.585 358.52 780.405 358.08 781.385 358.08C782.425 358.08 783.305 358.76 783.305 359.82C780.805 359.82 776.725 359.88 776.725 363.24C776.725 365.2 778.365 366.24 780.185 366.24C781.405 366.24 782.605 365.82 783.265 364.78H783.305V366ZM783.305 361.74V362.38C783.305 363.58 782.205 364.2 781.025 364.2C780.365 364.2 779.605 363.86 779.605 363.14C779.605 361.82 781.645 361.74 782.565 361.74H783.305ZM787.947 366H790.947V361.16C790.947 359.9 791.187 358.68 792.747 358.68C794.287 358.68 794.307 360.12 794.307 361.24V366H797.307V360.64C797.307 358.04 796.747 356.04 793.707 356.04C792.247 356.04 791.267 356.84 790.867 357.6H790.827V356.28H787.947V366ZM809.631 356.28H806.871V357.56H806.831C806.371 356.86 805.211 356.04 803.511 356.04C800.751 356.04 799.071 358.52 799.071 361.1C799.071 364.04 800.971 366.12 803.851 366.12C804.751 366.12 805.911 365.78 806.591 364.84H806.631V365.78C806.631 367.16 805.771 368.16 803.951 368.16C802.731 368.16 801.711 367.68 800.791 366.9L799.131 369.38C800.531 370.5 802.291 370.8 804.011 370.8C807.771 370.8 809.631 368.84 809.631 365.18V356.28ZM802.071 361.08C802.071 359.82 803.111 358.68 804.471 358.68C805.831 358.68 806.871 359.82 806.871 361.08C806.871 362.34 805.831 363.48 804.471 363.48C803.111 363.48 802.071 362.34 802.071 361.08ZM819.129 362.78C818.629 363.46 817.969 363.96 816.989 363.96C815.829 363.96 814.969 363.22 814.729 362.08H821.689V361.14C821.689 358.04 819.929 356.04 817.129 356.04C814.129 356.04 811.729 358.04 811.729 361.14C811.729 364.24 814.129 366.24 817.129 366.24C818.689 366.24 820.269 365.54 821.229 364.32L819.129 362.78ZM814.729 360.04C814.809 359.1 815.529 358.2 816.849 358.2C817.929 358.2 818.709 359.04 818.689 360.04H814.729ZM823.513 366H826.513V361.94C826.513 360 826.793 358.68 829.073 358.68C829.513 358.68 829.933 358.76 830.353 358.88V356.14C830.073 356.06 829.693 356.04 829.353 356.04C828.033 356.04 827.193 356.66 826.553 357.84H826.513V356.28H823.513V366Z" fill="#DB3259"/>
<path d="M1119.06 359L1123.48 354.58C1123.55 354.511 1123.61 354.428 1123.65 354.336C1123.69 354.244 1123.72 354.145 1123.72 354.044C1123.72 353.944 1123.7 353.844 1123.66 353.75C1123.63 353.657 1123.57 353.572 1123.5 353.501C1123.43 353.43 1123.34 353.374 1123.25 353.336C1123.16 353.298 1123.06 353.28 1122.96 353.281C1122.85 353.283 1122.76 353.305 1122.66 353.346C1122.57 353.387 1122.49 353.446 1122.42 353.52L1118 357.94L1113.58 353.52C1113.44 353.387 1113.25 353.315 1113.06 353.319C1112.86 353.322 1112.68 353.401 1112.54 353.538C1112.4 353.676 1112.32 353.861 1112.32 354.055C1112.32 354.25 1112.39 354.438 1112.52 354.58L1116.94 359L1112.52 363.42C1112.38 363.561 1112.3 363.751 1112.3 363.95C1112.3 364.149 1112.38 364.339 1112.52 364.48C1112.66 364.62 1112.85 364.699 1113.05 364.699C1113.25 364.699 1113.44 364.62 1113.58 364.48L1118 360.06L1122.42 364.48C1122.56 364.62 1122.75 364.699 1122.95 364.699C1123.15 364.699 1123.34 364.62 1123.48 364.48C1123.62 364.339 1123.7 364.149 1123.7 363.95C1123.7 363.751 1123.62 363.561 1123.48 363.42L1119.06 359Z" fill="#6B778C"/>
<rect x="1039.5" y="542.5" width="90" height="35" rx="3.5" fill="#DB3259"/>
<path d="M1060.11 564H1061.87V559.898H1063.13C1065.23 559.898 1067.09 559.45 1067.09 556.958C1067.09 554.76 1065.36 554.088 1063.44 554.088H1060.11V564ZM1061.87 558.386V555.6H1063.13C1064.08 555.6 1065.24 555.768 1065.24 556.986C1065.24 558.33 1063.94 558.386 1062.93 558.386H1061.87ZM1068.51 564H1070.19V560.402C1070.19 560.038 1070.41 558.708 1072 558.708C1072.26 558.708 1072.53 558.764 1072.81 558.834V557.21C1072.61 557.154 1072.42 557.112 1072.21 557.112C1071.32 557.112 1070.58 557.574 1070.22 558.344H1070.19V557.28H1068.51V564ZM1073.98 564H1075.66V557.28H1073.98V564ZM1073.74 554.998C1073.74 555.53 1074.19 556.006 1074.81 556.006C1075.42 556.006 1075.9 555.572 1075.9 554.998C1075.9 554.424 1075.42 553.99 1074.81 553.99C1074.19 553.99 1073.74 554.466 1073.74 554.998ZM1077.52 564H1079.2V560.332C1079.2 559.436 1079.63 558.624 1080.74 558.624C1081.55 558.624 1081.89 559.17 1081.89 559.996V564H1083.57V560.36C1083.57 559.492 1083.96 558.624 1085.01 558.624C1086 558.624 1086.25 559.352 1086.25 560.192V564H1087.93V559.996C1087.93 558.386 1087.3 557.112 1085.51 557.112C1084.5 557.112 1083.79 557.504 1083.3 558.358C1082.95 557.518 1082.24 557.112 1081.2 557.112C1080.08 557.112 1079.44 557.7 1079.14 558.33H1079.11V557.28H1077.52V564ZM1093.97 564H1095.48V560.136C1095.48 559.184 1095.48 557.112 1092.61 557.112C1091.55 557.112 1090.5 557.434 1089.76 558.19L1090.64 559.072C1091.09 558.652 1091.73 558.372 1092.43 558.372C1093.33 558.372 1093.97 558.806 1093.97 559.632V559.814H1093.55C1091.87 559.814 1089.32 559.968 1089.32 562.152C1089.32 563.482 1090.53 564.168 1091.77 564.168C1092.67 564.168 1093.45 563.832 1093.93 563.076H1093.97V564ZM1093.87 561.368C1093.87 562.306 1093.33 562.908 1092.18 562.908C1091.63 562.908 1091 562.642 1091 562.026C1091 561.06 1092.6 560.99 1093.52 560.99H1093.87V561.368ZM1097.29 564H1098.97V560.402C1098.97 560.038 1099.19 558.708 1100.78 558.708C1101.04 558.708 1101.31 558.764 1101.59 558.834V557.21C1101.39 557.154 1101.2 557.112 1100.99 557.112C1100.1 557.112 1099.36 557.574 1099 558.344H1098.97V557.28H1097.29V564ZM1104.69 564.056L1104.37 564.854C1104.09 565.554 1103.87 565.848 1103.04 565.848C1102.75 565.848 1102.45 565.778 1102.19 565.68L1101.98 567.192C1102.4 567.304 1102.83 567.36 1103.26 567.36C1104.75 567.36 1105.34 566.702 1105.83 565.442L1109 557.28H1107.25L1105.57 561.942H1105.55L1103.67 557.28H1101.82L1104.69 564.056Z" fill="white"/>
<rect x="1039.5" y="542.5" width="90" height="35" rx="3.5" stroke="#DB3259"/>
<path d="M688.512 556.16C687.552 554.912 686.048 554.384 684.512 554.384C681.152 554.384 678.752 557.008 678.752 560.336C678.752 563.776 681.264 566.288 684.512 566.288C686.32 566.288 687.792 565.664 688.8 564.304L687.792 563.456C686.992 564.48 685.888 565.04 684.512 565.04C681.968 565.04 680.192 562.96 680.192 560.336C680.192 557.856 681.984 555.632 684.512 555.632C685.6 555.632 686.672 556.096 687.344 557.008L688.512 556.16ZM691.138 560.288C691.73 559.744 692.562 559.472 693.362 559.472C694.53 559.472 695.218 560.032 695.218 561.12V561.344H694.738C692.898 561.344 690.018 561.488 690.018 563.968C690.018 565.424 691.282 566.192 692.802 566.192C693.938 566.192 694.77 565.648 695.266 564.88H695.298C695.298 565.2 695.298 565.664 695.378 566H696.578C696.514 565.616 696.466 565.136 696.466 564.704V561.488C696.466 559.376 695.538 558.32 693.33 558.32C692.242 558.32 691.122 558.688 690.354 559.472L691.138 560.288ZM695.218 562.4V562.88C695.186 564.096 694.45 565.136 693.01 565.136C692.066 565.136 691.362 564.784 691.362 563.84C691.362 562.832 692.386 562.4 693.97 562.4H695.218ZM698.747 566H699.995V562.352C699.995 560.64 700.699 559.472 702.315 559.472C703.483 559.472 704.027 560.256 704.027 561.504V566H705.275V561.376C705.275 559.568 704.395 558.32 702.427 558.32C701.195 558.32 700.267 559.008 699.931 559.744H699.899C699.899 559.328 699.867 558.912 699.867 558.512H698.683C698.683 559.008 698.747 559.6 698.747 560.288V566ZM713.957 559.504C713.205 558.688 712.181 558.32 711.077 558.32C708.773 558.32 707.205 559.984 707.205 562.256C707.205 564.56 708.757 566.192 711.077 566.192C712.165 566.192 713.189 565.824 713.909 564.992L712.981 564.112C712.517 564.752 711.893 565.04 711.077 565.04C709.557 565.04 708.549 563.792 708.549 562.256C708.549 560.72 709.397 559.472 711.077 559.472C711.829 559.472 712.437 559.744 712.965 560.384L713.957 559.504ZM721.1 563.904C720.508 564.656 719.788 565.04 718.716 565.04C717.356 565.04 716.364 563.936 716.268 562.64H722.316V562.24C722.316 559.76 720.876 558.32 718.764 558.32C716.556 558.32 714.924 559.936 714.924 562.256C714.924 564.432 716.364 566.192 718.716 566.192C720.108 566.192 721.164 565.776 722.044 564.64L721.1 563.904ZM716.268 561.584C716.428 560.32 717.34 559.472 718.716 559.472C720.092 559.472 720.924 560.32 720.972 561.584H716.268ZM724.359 566H725.607V553.904H724.359V566Z" fill="#6C3078"/>
<rect x="26" y="642" width="800" height="270" rx="12" fill="white"/>
<path d="M51.56 680H60.46V677.12H54.68V665.84H51.56V680ZM75.0022 671.6H69.4622V674.48H72.0022V676.78C71.4222 677.1 70.4222 677.48 69.0622 677.48C66.4022 677.48 64.6622 675.56 64.6622 672.92C64.6622 670.28 66.4022 668.36 69.0622 668.36C70.6422 668.36 71.6622 668.82 72.5022 669.7L74.7022 667.3C73.2822 665.98 71.3022 665.48 69.0622 665.48C64.6422 665.48 61.4222 668.38 61.4222 672.92C61.4222 677.46 64.6422 680.36 69.0622 680.36C71.1422 680.36 73.1622 679.96 75.0022 679V671.6ZM83.6666 680H88.7666C92.9866 680 96.7266 677.54 96.7266 672.96C96.7266 667.78 92.9066 665.84 88.3466 665.84H83.6666V680ZM86.7866 668.72H88.6266C91.2666 668.72 93.4866 670.02 93.4866 672.8C93.4866 676.02 91.3066 677.12 88.4066 677.12H86.7866V668.72ZM105.562 676.78C105.062 677.46 104.402 677.96 103.422 677.96C102.262 677.96 101.402 677.22 101.162 676.08H108.122V675.14C108.122 672.04 106.362 670.04 103.562 670.04C100.562 670.04 98.1623 672.04 98.1623 675.14C98.1623 678.24 100.562 680.24 103.562 680.24C105.122 680.24 106.702 679.54 107.662 678.32L105.562 676.78ZM101.162 674.04C101.242 673.1 101.962 672.2 103.282 672.2C104.362 672.2 105.142 673.04 105.122 674.04H101.162ZM110.987 680H113.987V672.68H116.207V670.28H113.987V668.74C113.987 667.46 114.467 667.16 115.427 667.16C115.787 667.16 116.067 667.24 116.407 667.36L116.547 664.82C115.987 664.68 115.387 664.64 114.787 664.64C111.527 664.64 110.987 666.44 110.987 668.56V670.28H109.007V672.68H110.987V680ZM123.449 680H126.209V675.06C126.209 671.82 125.269 670.04 121.769 670.04C120.189 670.04 118.589 670.56 117.489 671.6L119.089 673.24C119.729 672.52 120.549 672.08 121.529 672.08C122.569 672.08 123.449 672.76 123.449 673.82C120.949 673.82 116.869 673.88 116.869 677.24C116.869 679.2 118.509 680.24 120.329 680.24C121.549 680.24 122.749 679.82 123.409 678.78H123.449V680ZM123.449 675.74V676.38C123.449 677.58 122.349 678.2 121.169 678.2C120.509 678.2 119.749 677.86 119.749 677.14C119.749 675.82 121.789 675.74 122.709 675.74H123.449ZM137.451 670.28H134.451V675.12C134.451 676.38 134.211 677.6 132.651 677.6C131.111 677.6 131.091 676.16 131.091 675.04V670.28H128.091V675.64C128.091 678.24 128.651 680.24 131.691 680.24C133.151 680.24 134.131 679.44 134.531 678.68H134.571V680H137.451V670.28ZM139.616 680H142.616V664.88H139.616V680ZM151.391 670.28H148.751V667.4H145.751V670.28H143.831V672.68H145.751V677.3C145.751 679.42 147.291 680.24 149.291 680.24C149.991 680.24 150.731 680.18 151.391 679.94V677.44C151.131 677.68 150.491 677.72 150.171 677.72C148.871 677.72 148.751 676.96 148.751 675.92V672.68H151.391V670.28Z" fill="#333333"/>
<path d="M791.06 673L795.48 668.58C795.554 668.511 795.613 668.428 795.654 668.336C795.695 668.244 795.717 668.145 795.719 668.044C795.72 667.944 795.702 667.844 795.664 667.75C795.626 667.657 795.57 667.572 795.499 667.501C795.428 667.43 795.343 667.374 795.25 667.336C795.156 667.298 795.056 667.28 794.955 667.281C794.855 667.283 794.755 667.305 794.663 667.346C794.571 667.387 794.489 667.446 794.42 667.52L790 671.94L785.58 667.52C785.438 667.387 785.25 667.315 785.055 667.319C784.861 667.322 784.676 667.401 784.538 667.538C784.401 667.676 784.322 667.861 784.319 668.055C784.315 668.25 784.388 668.438 784.52 668.58L788.94 673L784.52 677.42C784.38 677.561 784.301 677.751 784.301 677.95C784.301 678.149 784.38 678.339 784.52 678.48C784.661 678.62 784.851 678.699 785.05 678.699C785.249 678.699 785.439 678.62 785.58 678.48L790 674.06L794.42 678.48C794.561 678.62 794.751 678.699 794.95 678.699C795.149 678.699 795.339 678.62 795.48 678.48C795.62 678.339 795.699 678.149 795.699 677.95C795.699 677.751 795.62 677.561 795.48 677.42L791.06 673Z" fill="#6B778C"/>
<rect x="711.5" y="856.5" width="90" height="35" rx="3.5" fill="#6C3078"/>
<path d="M732.106 878H733.87V873.898H735.13C737.23 873.898 739.092 873.45 739.092 870.958C739.092 868.76 737.356 868.088 735.438 868.088H732.106V878ZM733.87 872.386V869.6H735.13C736.082 869.6 737.244 869.768 737.244 870.986C737.244 872.33 735.942 872.386 734.934 872.386H733.87ZM740.511 878H742.191V874.402C742.191 874.038 742.415 872.708 743.997 872.708C744.263 872.708 744.529 872.764 744.809 872.834V871.21C744.613 871.154 744.417 871.112 744.207 871.112C743.325 871.112 742.583 871.574 742.219 872.344H742.191V871.28H740.511V878ZM745.98 878H747.66V871.28H745.98V878ZM745.742 868.998C745.742 869.53 746.19 870.006 746.806 870.006C747.422 870.006 747.898 869.572 747.898 868.998C747.898 868.424 747.422 867.99 746.806 867.99C746.19 867.99 745.742 868.466 745.742 868.998ZM749.519 878H751.199V874.332C751.199 873.436 751.633 872.624 752.739 872.624C753.551 872.624 753.887 873.17 753.887 873.996V878H755.567V874.36C755.567 873.492 755.959 872.624 757.009 872.624C758.003 872.624 758.255 873.352 758.255 874.192V878H759.935V873.996C759.935 872.386 759.305 871.112 757.513 871.112C756.505 871.112 755.791 871.504 755.301 872.358C754.951 871.518 754.237 871.112 753.201 871.112C752.081 871.112 751.437 871.7 751.143 872.33H751.115V871.28H749.519V878ZM765.97 878H767.482V874.136C767.482 873.184 767.482 871.112 764.612 871.112C763.548 871.112 762.498 871.434 761.756 872.19L762.638 873.072C763.086 872.652 763.73 872.372 764.43 872.372C765.326 872.372 765.97 872.806 765.97 873.632V873.814H765.55C763.87 873.814 761.322 873.968 761.322 876.152C761.322 877.482 762.526 878.168 763.772 878.168C764.668 878.168 765.452 877.832 765.928 877.076H765.97V878ZM765.872 875.368C765.872 876.306 765.326 876.908 764.178 876.908C763.632 876.908 763.002 876.642 763.002 876.026C763.002 875.06 764.598 874.99 765.522 874.99H765.872V875.368ZM769.29 878H770.97V874.402C770.97 874.038 771.194 872.708 772.776 872.708C773.042 872.708 773.308 872.764 773.588 872.834V871.21C773.392 871.154 773.196 871.112 772.986 871.112C772.104 871.112 771.362 871.574 770.998 872.344H770.97V871.28H769.29V878ZM776.691 878.056L776.369 878.854C776.089 879.554 775.865 879.848 775.039 879.848C774.745 879.848 774.451 879.778 774.185 879.68L773.975 881.192C774.395 881.304 774.829 881.36 775.263 881.36C776.747 881.36 777.335 880.702 777.825 879.442L781.003 871.28H779.253L777.573 875.942H777.545L775.669 871.28H773.821L776.691 878.056Z" fill="white"/>
<rect x="711.5" y="856.5" width="90" height="35" rx="3.5" stroke="#6C3078"/>
<path d="M60.512 870.16C59.552 868.912 58.048 868.384 56.512 868.384C53.152 868.384 50.752 871.008 50.752 874.336C50.752 877.776 53.264 880.288 56.512 880.288C58.32 880.288 59.792 879.664 60.8 878.304L59.792 877.456C58.992 878.48 57.888 879.04 56.512 879.04C53.968 879.04 52.192 876.96 52.192 874.336C52.192 871.856 53.984 869.632 56.512 869.632C57.6 869.632 58.672 870.096 59.344 871.008L60.512 870.16ZM63.1376 874.288C63.7296 873.744 64.5616 873.472 65.3616 873.472C66.5296 873.472 67.2176 874.032 67.2176 875.12V875.344H66.7376C64.8976 875.344 62.0176 875.488 62.0176 877.968C62.0176 879.424 63.2816 880.192 64.8016 880.192C65.9376 880.192 66.7696 879.648 67.2656 878.88H67.2976C67.2976 879.2 67.2976 879.664 67.3776 880H68.5776C68.5136 879.616 68.4656 879.136 68.4656 878.704V875.488C68.4656 873.376 67.5376 872.32 65.3296 872.32C64.2416 872.32 63.1216 872.688 62.3536 873.472L63.1376 874.288ZM67.2176 876.4V876.88C67.1856 878.096 66.4496 879.136 65.0096 879.136C64.0656 879.136 63.3616 878.784 63.3616 877.84C63.3616 876.832 64.3856 876.4 65.9696 876.4H67.2176ZM70.7465 880H71.9945V876.352C71.9945 874.64 72.6985 873.472 74.3145 873.472C75.4825 873.472 76.0265 874.256 76.0265 875.504V880H77.2745V875.376C77.2745 873.568 76.3945 872.32 74.4265 872.32C73.1945 872.32 72.2665 873.008 71.9305 873.744H71.8985C71.8985 873.328 71.8665 872.912 71.8665 872.512H70.6825C70.6825 873.008 70.7465 873.6 70.7465 874.288V880ZM85.9571 873.504C85.2051 872.688 84.1811 872.32 83.0771 872.32C80.7731 872.32 79.2051 873.984 79.2051 876.256C79.2051 878.56 80.7571 880.192 83.0771 880.192C84.1651 880.192 85.1891 879.824 85.9091 878.992L84.9811 878.112C84.5171 878.752 83.8931 879.04 83.0771 879.04C81.5571 879.04 80.5491 877.792 80.5491 876.256C80.5491 874.72 81.3971 873.472 83.0771 873.472C83.8291 873.472 84.4371 873.744 84.9651 874.384L85.9571 873.504ZM93.0999 877.904C92.5079 878.656 91.7879 879.04 90.7159 879.04C89.3559 879.04 88.3639 877.936 88.2679 876.64H94.3159V876.24C94.3159 873.76 92.8759 872.32 90.7639 872.32C88.5559 872.32 86.9239 873.936 86.9239 876.256C86.9239 878.432 88.3639 880.192 90.7159 880.192C92.1079 880.192 93.1639 879.776 94.0439 878.64L93.0999 877.904ZM88.2679 875.584C88.4279 874.32 89.3399 873.472 90.7159 873.472C92.0919 873.472 92.9239 874.32 92.9719 875.584H88.2679ZM96.3585 880H97.6065V867.904H96.3585V880Z" fill="#6C3078"/>
<rect x="594.5" y="856.5" width="108" height="35" rx="3.5" fill="#EDE9ED"/>
<path d="M621.252 868.858C620.482 868.13 619.446 867.836 618.41 867.836C616.576 867.836 614.756 868.788 614.756 870.832C614.756 874.374 619.46 873.128 619.46 875.298C619.46 876.208 618.536 876.656 617.724 876.656C616.94 876.656 616.198 876.278 615.764 875.62L614.434 876.908C615.246 877.874 616.45 878.252 617.682 878.252C619.628 878.252 621.308 877.216 621.308 875.088C621.308 871.56 616.604 872.694 616.604 870.706C616.604 869.796 617.416 869.432 618.228 869.432C618.914 869.432 619.586 869.684 619.964 870.216L621.252 868.858ZM629.459 875.228V874.766C629.459 872.428 628.185 871.112 626.309 871.112C624.279 871.112 622.655 872.526 622.655 874.64C622.655 876.754 624.279 878.168 626.309 878.168C627.373 878.168 628.367 877.79 629.151 876.824L627.947 875.914C627.527 876.432 626.981 876.824 626.141 876.824C625.203 876.824 624.447 876.222 624.335 875.228H629.459ZM624.335 873.968C624.461 873.002 625.077 872.372 626.071 872.372C627.121 872.372 627.765 872.988 627.779 873.968H624.335ZM636.784 872.134C636.14 871.42 635.202 871.112 634.348 871.112C632.318 871.112 630.694 872.526 630.694 874.64C630.694 876.754 632.318 878.168 634.348 878.168C634.936 878.168 636.084 877.916 636.77 877.23L635.65 876.026C635.342 876.432 634.866 876.656 634.348 876.656C633.116 876.656 632.374 875.69 632.374 874.64C632.374 873.59 633.116 872.624 634.348 872.624C634.796 872.624 635.23 872.89 635.622 873.296L636.784 872.134ZM637.448 874.64C637.448 876.754 639.072 878.168 641.102 878.168C643.132 878.168 644.756 876.754 644.756 874.64C644.756 872.526 643.132 871.112 641.102 871.112C639.072 871.112 637.448 872.526 637.448 874.64ZM639.128 874.64C639.128 873.59 639.87 872.624 641.102 872.624C642.334 872.624 643.076 873.59 643.076 874.64C643.076 875.69 642.334 876.656 641.102 876.656C639.87 876.656 639.128 875.69 639.128 874.64ZM646.329 878H648.009V874.332C648.009 873.436 648.443 872.624 649.549 872.624C650.725 872.624 650.781 873.856 650.781 874.598V878H652.461V873.758C652.461 872.386 651.817 871.112 650.011 871.112C648.891 871.112 648.261 871.686 647.953 872.358H647.925V871.28H646.329V878ZM659.688 878H661.284V867.416H659.604V872.134H659.562C659.212 871.7 658.54 871.112 657.28 871.112C655.362 871.112 654.032 872.652 654.032 874.64C654.032 876.628 655.278 878.168 657.35 878.168C658.288 878.168 659.17 877.804 659.66 876.992H659.688V878ZM655.712 874.64C655.712 873.59 656.454 872.624 657.686 872.624C658.918 872.624 659.66 873.59 659.66 874.64C659.66 875.69 658.918 876.656 657.686 876.656C656.454 876.656 655.712 875.69 655.712 874.64ZM667.386 878H668.898V874.136C668.898 873.184 668.898 871.112 666.028 871.112C664.964 871.112 663.914 871.434 663.172 872.19L664.054 873.072C664.502 872.652 665.146 872.372 665.846 872.372C666.742 872.372 667.386 872.806 667.386 873.632V873.814H666.966C665.286 873.814 662.738 873.968 662.738 876.152C662.738 877.482 663.942 878.168 665.188 878.168C666.084 878.168 666.868 877.832 667.344 877.076H667.386V878ZM667.288 875.368C667.288 876.306 666.742 876.908 665.594 876.908C665.048 876.908 664.418 876.642 664.418 876.026C664.418 875.06 666.014 874.99 666.938 874.99H667.288V875.368ZM670.706 878H672.386V874.402C672.386 874.038 672.61 872.708 674.192 872.708C674.458 872.708 674.724 872.764 675.004 872.834V871.21C674.808 871.154 674.612 871.112 674.402 871.112C673.52 871.112 672.778 871.574 672.414 872.344H672.386V871.28H670.706V878ZM678.107 878.056L677.785 878.854C677.505 879.554 677.281 879.848 676.455 879.848C676.161 879.848 675.867 879.778 675.601 879.68L675.391 881.192C675.811 881.304 676.245 881.36 676.679 881.36C678.163 881.36 678.751 880.702 679.241 879.442L682.419 871.28H680.669L678.989 875.942H678.961L677.085 871.28H675.237L678.107 878.056Z" fill="#6C3078"/>
<rect x="594.5" y="856.5" width="108" height="35" rx="3.5" stroke="#6C3078"/>
<rect x="354" y="24" width="800" height="270" rx="12" fill="white"/>
<path d="M379.56 62H388.46V59.12H382.68V47.84H379.56V62ZM403.002 53.6H397.462V56.48H400.002V58.78C399.422 59.1 398.422 59.48 397.062 59.48C394.402 59.48 392.662 57.56 392.662 54.92C392.662 52.28 394.402 50.36 397.062 50.36C398.642 50.36 399.662 50.82 400.502 51.7L402.702 49.3C401.282 47.98 399.302 47.48 397.062 47.48C392.642 47.48 389.422 50.38 389.422 54.92C389.422 59.46 392.642 62.36 397.062 62.36C399.142 62.36 401.162 61.96 403.002 61V53.6ZM411.667 62H416.767C420.987 62 424.727 59.54 424.727 54.96C424.727 49.78 420.907 47.84 416.347 47.84H411.667V62ZM414.787 50.72H416.627C419.267 50.72 421.487 52.02 421.487 54.8C421.487 58.02 419.307 59.12 416.407 59.12H414.787V50.72ZM432.562 62H435.322V57.06C435.322 53.82 434.382 52.04 430.882 52.04C429.302 52.04 427.702 52.56 426.602 53.6L428.202 55.24C428.842 54.52 429.662 54.08 430.642 54.08C431.682 54.08 432.562 54.76 432.562 55.82C430.062 55.82 425.982 55.88 425.982 59.24C425.982 61.2 427.622 62.24 429.442 62.24C430.662 62.24 431.862 61.82 432.522 60.78H432.562V62ZM432.562 57.74V58.38C432.562 59.58 431.462 60.2 430.282 60.2C429.622 60.2 428.862 59.86 428.862 59.14C428.862 57.82 430.902 57.74 431.822 57.74H432.562ZM437.205 62H440.205V57.16C440.205 55.9 440.445 54.68 442.005 54.68C443.545 54.68 443.565 56.12 443.565 57.24V62H446.565V56.64C446.565 54.04 446.005 52.04 442.965 52.04C441.505 52.04 440.525 52.84 440.125 53.6H440.085V52.28H437.205V62ZM458.889 52.28H456.129V53.56H456.089C455.629 52.86 454.469 52.04 452.769 52.04C450.009 52.04 448.329 54.52 448.329 57.1C448.329 60.04 450.229 62.12 453.109 62.12C454.009 62.12 455.169 61.78 455.849 60.84H455.889V61.78C455.889 63.16 455.029 64.16 453.209 64.16C451.989 64.16 450.969 63.68 450.049 62.9L448.389 65.38C449.789 66.5 451.549 66.8 453.269 66.8C457.029 66.8 458.889 64.84 458.889 61.18V52.28ZM451.329 57.08C451.329 55.82 452.369 54.68 453.729 54.68C455.089 54.68 456.129 55.82 456.129 57.08C456.129 58.34 455.089 59.48 453.729 59.48C452.369 59.48 451.329 58.34 451.329 57.08ZM468.387 58.78C467.887 59.46 467.227 59.96 466.247 59.96C465.087 59.96 464.227 59.22 463.987 58.08H470.947V57.14C470.947 54.04 469.187 52.04 466.387 52.04C463.387 52.04 460.987 54.04 460.987 57.14C460.987 60.24 463.387 62.24 466.387 62.24C467.947 62.24 469.527 61.54 470.487 60.32L468.387 58.78ZM463.987 56.04C464.067 55.1 464.787 54.2 466.107 54.2C467.187 54.2 467.967 55.04 467.947 56.04H463.987ZM472.771 62H475.771V57.94C475.771 56 476.051 54.68 478.331 54.68C478.771 54.68 479.191 54.76 479.611 54.88V52.14C479.331 52.06 478.951 52.04 478.611 52.04C477.291 52.04 476.451 52.66 475.811 53.84H475.771V52.28H472.771V62Z" fill="#DB3259"/>
<path d="M1119.06 55L1123.48 50.58C1123.55 50.5113 1123.61 50.4285 1123.65 50.3365C1123.69 50.2445 1123.72 50.1452 1123.72 50.0445C1123.72 49.9438 1123.7 49.8437 1123.66 49.7504C1123.63 49.657 1123.57 49.5721 1123.5 49.5009C1123.43 49.4297 1123.34 49.3736 1123.25 49.3358C1123.16 49.2981 1123.06 49.2796 1122.96 49.2814C1122.85 49.2831 1122.76 49.3052 1122.66 49.3462C1122.57 49.3872 1122.49 49.4463 1122.42 49.52L1118 53.94L1113.58 49.52C1113.44 49.3875 1113.25 49.3154 1113.06 49.3188C1112.86 49.3222 1112.68 49.4009 1112.54 49.5383C1112.4 49.6757 1112.32 49.8611 1112.32 50.0554C1112.32 50.2497 1112.39 50.4378 1112.52 50.58L1116.94 55L1112.52 59.42C1112.38 59.5606 1112.3 59.7512 1112.3 59.95C1112.3 60.1487 1112.38 60.3393 1112.52 60.48C1112.66 60.6204 1112.85 60.6993 1113.05 60.6993C1113.25 60.6993 1113.44 60.6204 1113.58 60.48L1118 56.06L1122.42 60.48C1122.56 60.6204 1122.75 60.6993 1122.95 60.6993C1123.15 60.6993 1123.34 60.6204 1123.48 60.48C1123.62 60.3393 1123.7 60.1487 1123.7 59.95C1123.7 59.7512 1123.62 59.5606 1123.48 59.42L1119.06 55Z" fill="#6B778C"/>
<rect x="1039.5" y="238.5" width="90" height="35" rx="3.5" fill="#DB3259"/>
<path d="M1060.11 260H1061.87V255.898H1063.13C1065.23 255.898 1067.09 255.45 1067.09 252.958C1067.09 250.76 1065.36 250.088 1063.44 250.088H1060.11V260ZM1061.87 254.386V251.6H1063.13C1064.08 251.6 1065.24 251.768 1065.24 252.986C1065.24 254.33 1063.94 254.386 1062.93 254.386H1061.87ZM1068.51 260H1070.19V256.402C1070.19 256.038 1070.41 254.708 1072 254.708C1072.26 254.708 1072.53 254.764 1072.81 254.834V253.21C1072.61 253.154 1072.42 253.112 1072.21 253.112C1071.32 253.112 1070.58 253.574 1070.22 254.344H1070.19V253.28H1068.51V260ZM1073.98 260H1075.66V253.28H1073.98V260ZM1073.74 250.998C1073.74 251.53 1074.19 252.006 1074.81 252.006C1075.42 252.006 1075.9 251.572 1075.9 250.998C1075.9 250.424 1075.42 249.99 1074.81 249.99C1074.19 249.99 1073.74 250.466 1073.74 250.998ZM1077.52 260H1079.2V256.332C1079.2 255.436 1079.63 254.624 1080.74 254.624C1081.55 254.624 1081.89 255.17 1081.89 255.996V260H1083.57V256.36C1083.57 255.492 1083.96 254.624 1085.01 254.624C1086 254.624 1086.25 255.352 1086.25 256.192V260H1087.93V255.996C1087.93 254.386 1087.3 253.112 1085.51 253.112C1084.5 253.112 1083.79 253.504 1083.3 254.358C1082.95 253.518 1082.24 253.112 1081.2 253.112C1080.08 253.112 1079.44 253.7 1079.14 254.33H1079.11V253.28H1077.52V260ZM1093.97 260H1095.48V256.136C1095.48 255.184 1095.48 253.112 1092.61 253.112C1091.55 253.112 1090.5 253.434 1089.76 254.19L1090.64 255.072C1091.09 254.652 1091.73 254.372 1092.43 254.372C1093.33 254.372 1093.97 254.806 1093.97 255.632V255.814H1093.55C1091.87 255.814 1089.32 255.968 1089.32 258.152C1089.32 259.482 1090.53 260.168 1091.77 260.168C1092.67 260.168 1093.45 259.832 1093.93 259.076H1093.97V260ZM1093.87 257.368C1093.87 258.306 1093.33 258.908 1092.18 258.908C1091.63 258.908 1091 258.642 1091 258.026C1091 257.06 1092.6 256.99 1093.52 256.99H1093.87V257.368ZM1097.29 260H1098.97V256.402C1098.97 256.038 1099.19 254.708 1100.78 254.708C1101.04 254.708 1101.31 254.764 1101.59 254.834V253.21C1101.39 253.154 1101.2 253.112 1100.99 253.112C1100.1 253.112 1099.36 253.574 1099 254.344H1098.97V253.28H1097.29V260ZM1104.69 260.056L1104.37 260.854C1104.09 261.554 1103.87 261.848 1103.04 261.848C1102.75 261.848 1102.45 261.778 1102.19 261.68L1101.98 263.192C1102.4 263.304 1102.83 263.36 1103.26 263.36C1104.75 263.36 1105.34 262.702 1105.83 261.442L1109 253.28H1107.25L1105.57 257.942H1105.55L1103.67 253.28H1101.82L1104.69 260.056Z" fill="white"/>
<rect x="1039.5" y="238.5" width="90" height="35" rx="3.5" stroke="#DB3259"/>
<path d="M388.512 252.16C387.552 250.912 386.048 250.384 384.512 250.384C381.152 250.384 378.752 253.008 378.752 256.336C378.752 259.776 381.264 262.288 384.512 262.288C386.32 262.288 387.792 261.664 388.8 260.304L387.792 259.456C386.992 260.48 385.888 261.04 384.512 261.04C381.968 261.04 380.192 258.96 380.192 256.336C380.192 253.856 381.984 251.632 384.512 251.632C385.6 251.632 386.672 252.096 387.344 253.008L388.512 252.16ZM391.138 256.288C391.73 255.744 392.562 255.472 393.362 255.472C394.53 255.472 395.218 256.032 395.218 257.12V257.344H394.738C392.898 257.344 390.018 257.488 390.018 259.968C390.018 261.424 391.282 262.192 392.802 262.192C393.938 262.192 394.77 261.648 395.266 260.88H395.298C395.298 261.2 395.298 261.664 395.378 262H396.578C396.514 261.616 396.466 261.136 396.466 260.704V257.488C396.466 255.376 395.538 254.32 393.33 254.32C392.242 254.32 391.122 254.688 390.354 255.472L391.138 256.288ZM395.218 258.4V258.88C395.186 260.096 394.45 261.136 393.01 261.136C392.066 261.136 391.362 260.784 391.362 259.84C391.362 258.832 392.386 258.4 393.97 258.4H395.218ZM398.747 262H399.995V258.352C399.995 256.64 400.699 255.472 402.315 255.472C403.483 255.472 404.027 256.256 404.027 257.504V262H405.275V257.376C405.275 255.568 404.395 254.32 402.427 254.32C401.195 254.32 400.267 255.008 399.931 255.744H399.899C399.899 255.328 399.867 254.912 399.867 254.512H398.683C398.683 255.008 398.747 255.6 398.747 256.288V262ZM413.957 255.504C413.205 254.688 412.181 254.32 411.077 254.32C408.773 254.32 407.205 255.984 407.205 258.256C407.205 260.56 408.757 262.192 411.077 262.192C412.165 262.192 413.189 261.824 413.909 260.992L412.981 260.112C412.517 260.752 411.893 261.04 411.077 261.04C409.557 261.04 408.549 259.792 408.549 258.256C408.549 256.72 409.397 255.472 411.077 255.472C411.829 255.472 412.437 255.744 412.965 256.384L413.957 255.504ZM421.1 259.904C420.508 260.656 419.788 261.04 418.716 261.04C417.356 261.04 416.364 259.936 416.268 258.64H422.316V258.24C422.316 255.76 420.876 254.32 418.764 254.32C416.556 254.32 414.924 255.936 414.924 258.256C414.924 260.432 416.364 262.192 418.716 262.192C420.108 262.192 421.164 261.776 422.044 260.64L421.1 259.904ZM416.268 257.584C416.428 256.32 417.34 255.472 418.716 255.472C420.092 255.472 420.924 256.32 420.972 257.584H416.268ZM424.359 262H425.607V249.904H424.359V262Z" fill="#6C3078"/>
</svg>
