<svg width="139" height="64" viewBox="0 0 139 64" fill="none" xmlns="http://www.w3.org/2000/svg">
<g filter="url(#filter0_dd_65_15854)">
<rect x="10" y="8" width="119" height="38" rx="8" fill="#333333"/>
<path d="M32.2151 31H37.9271V29.908H33.3911V21.088H32.2151V31ZM38.6411 27.724C38.6411 29.768 40.1251 31.168 42.1411 31.168C44.1571 31.168 45.6411 29.768 45.6411 27.724C45.6411 25.68 44.1571 24.28 42.1411 24.28C40.1251 24.28 38.6411 25.68 38.6411 27.724ZM39.8171 27.724C39.8171 26.352 40.7271 25.288 42.1411 25.288C43.5551 25.288 44.4651 26.352 44.4651 27.724C44.4651 29.096 43.5551 30.16 42.1411 30.16C40.7271 30.16 39.8171 29.096 39.8171 27.724ZM47.3316 31H48.4236V27.808C48.4236 26.31 49.0116 25.372 50.3416 25.372C50.5376 25.372 50.7476 25.4 50.9296 25.456L50.9996 24.35C50.8456 24.294 50.6916 24.28 50.5516 24.28C49.4736 24.28 48.6616 24.882 48.3676 25.526H48.3396C48.3396 25.162 48.3116 24.798 48.3116 24.448H47.2756C47.2756 24.882 47.3316 25.4 47.3316 26.002V31ZM57.0334 29.166C56.5154 29.824 55.8854 30.16 54.9474 30.16C53.7574 30.16 52.8894 29.194 52.8054 28.06H58.0974V27.71C58.0974 25.54 56.8374 24.28 54.9894 24.28C53.0574 24.28 51.6294 25.694 51.6294 27.724C51.6294 29.628 52.8894 31.168 54.9474 31.168C56.1654 31.168 57.0894 30.804 57.8594 29.81L57.0334 29.166ZM52.8054 27.136C52.9454 26.03 53.7434 25.288 54.9474 25.288C56.1514 25.288 56.8794 26.03 56.9214 27.136H52.8054ZM59.7867 31H60.8787V27.808C60.8787 26.31 61.4947 25.288 62.9087 25.288C63.8047 25.288 64.1687 25.848 64.1687 27.29V31H65.2607V27.22C65.2607 26.044 66.0307 25.288 66.9547 25.288C68.2287 25.288 68.5507 26.17 68.5507 27.08V31H69.6427V27.024C69.6427 25.33 69.0267 24.28 67.1507 24.28C66.1567 24.28 65.5547 24.756 65.0787 25.526C64.8687 25.078 64.4207 24.28 63.0067 24.28C61.9287 24.28 61.1167 24.882 60.8227 25.526H60.7947C60.7947 25.162 60.7667 24.798 60.7667 24.448H59.7307C59.7307 24.882 59.7867 25.4 59.7867 26.002V31ZM75.801 31H76.977V21.088H75.801V31ZM79.1858 34.192H80.2778V29.838H80.3058C80.7118 30.58 81.6498 31.168 82.8258 31.168C84.6598 31.168 86.1018 29.684 86.1018 27.724C86.1018 25.736 84.7158 24.28 82.6578 24.28C81.7058 24.28 80.9078 24.7 80.3058 25.4H80.2778V24.448H79.1858V34.192ZM80.2778 27.724C80.2778 26.352 81.1878 25.288 82.6018 25.288C84.0158 25.288 84.9258 26.352 84.9258 27.724C84.9258 29.096 84.0158 30.16 82.6018 30.16C81.1878 30.16 80.2778 29.096 80.2778 27.724ZM87.0724 29.95C87.7164 30.874 88.5144 31.168 89.6204 31.168C90.9224 31.168 92.2384 30.594 92.2384 29.11C92.2384 27.794 91.2584 27.374 90.0964 27.15C89.2284 26.982 88.4444 26.744 88.4444 26.198C88.4444 25.582 89.1304 25.288 89.7324 25.288C90.3764 25.288 90.8384 25.61 91.1184 26.072L92.0284 25.47C91.5804 24.63 90.7264 24.28 89.8024 24.28C88.5844 24.28 87.3524 24.938 87.3524 26.212C87.3524 27.57 88.4164 27.836 89.6624 28.116C90.3624 28.27 91.0624 28.452 91.0624 29.152C91.0624 29.866 90.3064 30.16 89.6204 30.16C88.8504 30.16 88.3744 29.81 87.9404 29.278L87.0724 29.95ZM99.4733 24.448H98.3813V27.64C98.3813 29.138 97.7653 30.16 96.3513 30.16C95.3293 30.16 94.8533 29.474 94.8533 28.382V24.448H93.7613V28.494C93.7613 30.076 94.5313 31.168 96.2533 31.168C97.3313 31.168 98.1433 30.566 98.4373 29.922H98.4653C98.4653 30.286 98.4933 30.65 98.4933 31H99.5293C99.5293 30.566 99.4733 30.048 99.4733 29.446V24.448ZM101.541 31H102.633V27.808C102.633 26.31 103.249 25.288 104.663 25.288C105.559 25.288 105.923 25.848 105.923 27.29V31H107.015V27.22C107.015 26.044 107.785 25.288 108.709 25.288C109.983 25.288 110.305 26.17 110.305 27.08V31H111.397V27.024C111.397 25.33 110.781 24.28 108.905 24.28C107.911 24.28 107.309 24.756 106.833 25.526C106.623 25.078 106.175 24.28 104.761 24.28C103.683 24.28 102.871 24.882 102.577 25.526H102.549C102.549 25.162 102.521 24.798 102.521 24.448H101.485C101.485 24.882 101.541 25.4 101.541 26.002V31Z" fill="white"/>
<path d="M69.5 52L79.5 46H59.5L69.5 52Z" fill="#333333"/>
</g>
<defs>
<filter id="filter0_dd_65_15854" x="0" y="0" width="139" height="64" filterUnits="userSpaceOnUse" color-interpolation-filters="sRGB">
<feFlood flood-opacity="0" result="BackgroundImageFix"/>
<feColorMatrix in="SourceAlpha" type="matrix" values="0 0 0 0 0 0 0 0 0 0 0 0 0 0 0 0 0 0 127 0" result="hardAlpha"/>
<feOffset dy="4"/>
<feGaussianBlur stdDeviation="2"/>
<feColorMatrix type="matrix" values="0 0 0 0 0 0 0 0 0 0 0 0 0 0 0 0 0 0 0.18 0"/>
<feBlend mode="normal" in2="BackgroundImageFix" result="effect1_dropShadow_65_15854"/>
<feColorMatrix in="SourceAlpha" type="matrix" values="0 0 0 0 0 0 0 0 0 0 0 0 0 0 0 0 0 0 127 0" result="hardAlpha"/>
<feOffset dy="2"/>
<feGaussianBlur stdDeviation="5"/>
<feComposite in2="hardAlpha" operator="out"/>
<feColorMatrix type="matrix" values="0 0 0 0 0 0 0 0 0 0 0 0 0 0 0 0 0 0 0.12 0"/>
<feBlend mode="normal" in2="effect1_dropShadow_65_15854" result="effect2_dropShadow_65_15854"/>
<feBlend mode="normal" in="SourceGraphic" in2="effect2_dropShadow_65_15854" result="shape"/>
</filter>
</defs>
</svg>
