<svg width="419" height="122" viewBox="0 0 419 122" fill="none" xmlns="http://www.w3.org/2000/svg">
<g filter="url(#filter0_dd_65_15857)">
<rect x="25" y="13" width="119" height="38" rx="8" fill="#333333"/>
<path d="M73.4036 36H79.1156V34.908H74.5796V26.088H73.4036V36ZM79.8296 32.724C79.8296 34.768 81.3136 36.168 83.3296 36.168C85.3456 36.168 86.8296 34.768 86.8296 32.724C86.8296 30.68 85.3456 29.28 83.3296 29.28C81.3136 29.28 79.8296 30.68 79.8296 32.724ZM81.0056 32.724C81.0056 31.352 81.9156 30.288 83.3296 30.288C84.7436 30.288 85.6536 31.352 85.6536 32.724C85.6536 34.096 84.7436 35.16 83.3296 35.16C81.9156 35.16 81.0056 34.096 81.0056 32.724ZM94.0501 30.316C93.3921 29.602 92.4961 29.28 91.5301 29.28C89.5141 29.28 88.1421 30.736 88.1421 32.724C88.1421 34.74 89.5001 36.168 91.5301 36.168C92.4821 36.168 93.3781 35.846 94.0081 35.118L93.1961 34.348C92.7901 34.908 92.2441 35.16 91.5301 35.16C90.2001 35.16 89.3181 34.068 89.3181 32.724C89.3181 31.38 90.0601 30.288 91.5301 30.288C92.1881 30.288 92.7201 30.526 93.1821 31.086L94.0501 30.316ZM95.274 36H96.366V32.556L99.614 36H101.224L97.738 32.43L100.902 29.448H99.348L96.366 32.332V25.416H95.274V36Z" fill="white"/>
<path d="M84.5 57L94.5 51H74.5L84.5 57Z" fill="#333333"/>
</g>
<path d="M29 77.5H68.5V112.5H29C27.067 112.5 25.5 110.933 25.5 109V81C25.5 79.067 27.067 77.5 29 77.5Z" fill="white"/>
<path d="M49 99.75H41C40.2707 99.75 39.5712 99.4603 39.0555 98.9445C38.5397 98.4288 38.25 97.7293 38.25 97V89C38.25 88.2707 38.5397 87.5712 39.0555 87.0555C39.5712 86.5397 40.2707 86.25 41 86.25H49C49.7293 86.25 50.4288 86.5397 50.9445 87.0555C51.4603 87.5712 51.75 88.2707 51.75 89V97C51.75 97.7293 51.4603 98.4288 50.9445 98.9445C50.4288 99.4603 49.7293 99.75 49 99.75ZM41 87.75C40.6685 87.75 40.3505 87.8817 40.1161 88.1161C39.8817 88.3505 39.75 88.6685 39.75 89V97C39.75 97.3315 39.8817 97.6495 40.1161 97.8839C40.3505 98.1183 40.6685 98.25 41 98.25H49C49.3315 98.25 49.6495 98.1183 49.8839 97.8839C50.1183 97.6495 50.25 97.3315 50.25 97V89C50.25 88.6685 50.1183 88.3505 49.8839 88.1161C49.6495 87.8817 49.3315 87.75 49 87.75H41Z" fill="#6B778C"/>
<path d="M53 103.75H45C44.2707 103.75 43.5712 103.46 43.0555 102.945C42.5397 102.429 42.25 101.729 42.25 101V99H43.75V101C43.75 101.332 43.8817 101.649 44.1161 101.884C44.3505 102.118 44.6685 102.25 45 102.25H53C53.3315 102.25 53.6495 102.118 53.8839 101.884C54.1183 101.649 54.25 101.332 54.25 101V93C54.25 92.6685 54.1183 92.3505 53.8839 92.1161C53.6495 91.8817 53.3315 91.75 53 91.75H51V90.25H53C53.7293 90.25 54.4288 90.5397 54.9445 91.0555C55.4603 91.5712 55.75 92.2707 55.75 93V101C55.75 101.729 55.4603 102.429 54.9445 102.945C54.4288 103.46 53.7293 103.75 53 103.75Z" fill="#6B778C"/>
<path d="M29 77.5H68.5V112.5H29C27.067 112.5 25.5 110.933 25.5 109V81C25.5 79.067 27.067 77.5 29 77.5Z" stroke="#9EA6B5"/>
<path d="M68.5 77.5H111.5V112.5H68.5V77.5Z" fill="white"/>
<path d="M95 93.25H94.75V91C94.75 89.7402 94.2496 88.532 93.3588 87.6412C92.468 86.7504 91.2598 86.25 90 86.25C88.7402 86.25 87.532 86.7504 86.6412 87.6412C85.7504 88.532 85.25 89.7402 85.25 91V93.25H85C84.2707 93.25 83.5712 93.5397 83.0555 94.0555C82.5397 94.5712 82.25 95.2707 82.25 96V101C82.25 101.729 82.5397 102.429 83.0555 102.945C83.5712 103.46 84.2707 103.75 85 103.75H95C95.7293 103.75 96.4288 103.46 96.9445 102.945C97.4603 102.429 97.75 101.729 97.75 101V96C97.75 95.2707 97.4603 94.5712 96.9445 94.0555C96.4288 93.5397 95.7293 93.25 95 93.25ZM86.75 91C86.75 90.138 87.0924 89.3114 87.7019 88.7019C88.3114 88.0924 89.138 87.75 90 87.75C90.862 87.75 91.6886 88.0924 92.2981 88.7019C92.9076 89.3114 93.25 90.138 93.25 91V93.25H86.75V91ZM96.25 101C96.25 101.332 96.1183 101.649 95.8839 101.884C95.6495 102.118 95.3315 102.25 95 102.25H85C84.6685 102.25 84.3505 102.118 84.1161 101.884C83.8817 101.649 83.75 101.332 83.75 101V96C83.75 95.6685 83.8817 95.3505 84.1161 95.1161C84.3505 94.8817 84.6685 94.75 85 94.75H95C95.3315 94.75 95.6495 94.8817 95.8839 95.1161C96.1183 95.3505 96.25 95.6685 96.25 96V101Z" fill="#6B778C"/>
<path d="M68.5 77.5H111.5V112.5H68.5V77.5Z" stroke="#9EA6B5"/>
<path d="M111.5 77.5H154.5V112.5H111.5V77.5Z" fill="white"/>
<path d="M141 91.7002H125C124.902 91.7002 124.804 91.6808 124.713 91.6431C124.622 91.6054 124.539 91.5502 124.47 91.4805C124.4 91.4109 124.345 91.3282 124.307 91.2372C124.269 91.1462 124.25 91.0487 124.25 90.9502C124.25 90.8517 124.269 90.7542 124.307 90.6632C124.345 90.5722 124.4 90.4895 124.47 90.4199C124.539 90.3502 124.622 90.295 124.713 90.2573C124.804 90.2196 124.902 90.2002 125 90.2002H141C141.199 90.2002 141.39 90.2792 141.53 90.4199C141.671 90.5605 141.75 90.7513 141.75 90.9502C141.75 91.1491 141.671 91.3399 141.53 91.4805C141.39 91.6212 141.199 91.7002 141 91.7002V91.7002Z" fill="#6B778C"/>
<path d="M137.44 103.75H128.56C128.243 103.771 127.925 103.73 127.624 103.628C127.323 103.526 127.046 103.365 126.808 103.155C126.57 102.944 126.376 102.689 126.237 102.403C126.098 102.117 126.018 101.807 126 101.49V90.9998C126 90.8009 126.079 90.6101 126.22 90.4695C126.36 90.3288 126.551 90.2498 126.75 90.2498C126.949 90.2498 127.14 90.3288 127.28 90.4695C127.421 90.6101 127.5 90.8009 127.5 90.9998V101.49C127.5 101.9 127.97 102.25 128.5 102.25H137.38C137.94 102.25 138.38 101.9 138.38 101.49V90.9998C138.38 90.785 138.465 90.5789 138.617 90.427C138.769 90.2751 138.975 90.1898 139.19 90.1898C139.405 90.1898 139.611 90.2751 139.763 90.427C139.915 90.5789 140 90.785 140 90.9998V101.49C139.982 101.807 139.902 102.117 139.763 102.403C139.624 102.689 139.43 102.944 139.192 103.155C138.954 103.365 138.676 103.526 138.376 103.628C138.075 103.73 137.757 103.771 137.44 103.75ZM137.56 90.7498C137.461 90.7511 137.363 90.7327 137.271 90.6955C137.18 90.6582 137.097 90.603 137.027 90.5331C136.957 90.4632 136.902 90.38 136.864 90.2884C136.827 90.1968 136.809 90.0987 136.81 89.9998V88.5098C136.81 88.0998 136.33 87.7498 135.81 87.7498H130.22C129.67 87.7498 129.22 88.0998 129.22 88.5098V89.9998C129.22 90.1987 129.141 90.3895 129 90.5301C128.86 90.6708 128.669 90.7498 128.47 90.7498C128.271 90.7498 128.08 90.6708 127.94 90.5301C127.799 90.3895 127.72 90.1987 127.72 89.9998V88.5098C127.759 87.8811 128.042 87.2926 128.509 86.8702C128.977 86.4478 129.591 86.2251 130.22 86.2498H135.78C136.414 86.217 137.036 86.436 137.51 86.8593C137.984 87.2825 138.271 87.8757 138.31 88.5098V89.9998C138.311 90.0991 138.293 90.1977 138.256 90.2899C138.219 90.382 138.164 90.4659 138.094 90.5366C138.024 90.6073 137.941 90.6635 137.849 90.7018C137.758 90.7401 137.659 90.7598 137.56 90.7598V90.7498Z" fill="#6B778C"/>
<path d="M131.22 100C131.022 99.9976 130.833 99.9178 130.693 99.7777C130.552 99.6376 130.473 99.4483 130.47 99.2502V94.7202C130.47 94.5213 130.549 94.3305 130.69 94.1899C130.83 94.0492 131.021 93.9702 131.22 93.9702C131.419 93.9702 131.61 94.0492 131.75 94.1899C131.891 94.3305 131.97 94.5213 131.97 94.7202V99.2402C131.971 99.3395 131.953 99.4381 131.916 99.5303C131.879 99.6225 131.824 99.7063 131.754 99.777C131.684 99.8477 131.601 99.9039 131.509 99.9422C131.418 99.9805 131.319 100 131.22 100V100Z" fill="#6B778C"/>
<path d="M134.78 100C134.581 100 134.39 99.9212 134.25 99.7805C134.109 99.6399 134.03 99.4491 134.03 99.2502V94.7202C134.03 94.5213 134.109 94.3305 134.25 94.1899C134.39 94.0492 134.581 93.9702 134.78 93.9702C134.979 93.9702 135.17 94.0492 135.31 94.1899C135.451 94.3305 135.53 94.5213 135.53 94.7202V99.2402C135.53 99.4401 135.451 99.6319 135.311 99.7741C135.171 99.9164 134.98 99.9976 134.78 100Z" fill="#6B778C"/>
<path d="M111.5 77.5H154.5V112.5H111.5V77.5Z" stroke="#9EA6B5"/>
<path d="M154.5 77.5H194C195.933 77.5 197.5 79.067 197.5 81V109C197.5 110.933 195.933 112.5 194 112.5H154.5V77.5Z" fill="white"/>
<path d="M176 96.75C176.966 96.75 177.75 95.9665 177.75 95C177.75 94.0335 176.966 93.25 176 93.25C175.034 93.25 174.25 94.0335 174.25 95C174.25 95.9665 175.034 96.75 176 96.75Z" fill="#6B778C"/>
<path d="M183 96.75C183.966 96.75 184.75 95.9665 184.75 95C184.75 94.0335 183.966 93.25 183 93.25C182.034 93.25 181.25 94.0335 181.25 95C181.25 95.9665 182.034 96.75 183 96.75Z" fill="#6B778C"/>
<path d="M169 96.75C169.966 96.75 170.75 95.9665 170.75 95C170.75 94.0335 169.966 93.25 169 93.25C168.034 93.25 167.25 94.0335 167.25 95C167.25 95.9665 168.034 96.75 169 96.75Z" fill="#6B778C"/>
<path d="M154.5 77.5H194C195.933 77.5 197.5 79.067 197.5 81V109C197.5 110.933 195.933 112.5 194 112.5H154.5V77.5Z" stroke="#9EA6B5"/>
<g filter="url(#filter1_dd_65_15857)">
<rect x="271" y="13" width="119" height="38" rx="8" fill="#333333"/>
<path d="M300.482 36H301.658V31.548H306.278V30.456H301.658V27.18H306.628V26.088H300.482V36ZM313.777 29.448H312.685V32.64C312.685 34.138 312.069 35.16 310.655 35.16C309.633 35.16 309.157 34.474 309.157 33.382V29.448H308.065V33.494C308.065 35.076 308.835 36.168 310.557 36.168C311.635 36.168 312.447 35.566 312.741 34.922H312.769C312.769 35.286 312.797 35.65 312.797 36H313.833C313.833 35.566 313.777 35.048 313.777 34.446V29.448ZM315.942 36H317.034V25.416H315.942V36ZM319.306 36H320.398V25.416H319.306V36ZM325.739 34.95C326.383 35.874 327.181 36.168 328.287 36.168C329.589 36.168 330.905 35.594 330.905 34.11C330.905 32.794 329.925 32.374 328.763 32.15C327.895 31.982 327.111 31.744 327.111 31.198C327.111 30.582 327.797 30.288 328.399 30.288C329.043 30.288 329.505 30.61 329.785 31.072L330.695 30.47C330.247 29.63 329.393 29.28 328.469 29.28C327.251 29.28 326.019 29.938 326.019 31.212C326.019 32.57 327.083 32.836 328.329 33.116C329.029 33.27 329.729 33.452 329.729 34.152C329.729 34.866 328.973 35.16 328.287 35.16C327.517 35.16 327.041 34.81 326.607 34.278L325.739 34.95ZM337.958 30.316C337.3 29.602 336.404 29.28 335.438 29.28C333.422 29.28 332.05 30.736 332.05 32.724C332.05 34.74 333.408 36.168 335.438 36.168C336.39 36.168 337.286 35.846 337.916 35.118L337.104 34.348C336.698 34.908 336.152 35.16 335.438 35.16C334.108 35.16 333.226 34.068 333.226 32.724C333.226 31.38 333.968 30.288 335.438 30.288C336.096 30.288 336.628 30.526 337.09 31.086L337.958 30.316ZM339.182 36H340.274V32.808C340.274 31.31 340.862 30.372 342.192 30.372C342.388 30.372 342.598 30.4 342.78 30.456L342.85 29.35C342.696 29.294 342.542 29.28 342.402 29.28C341.324 29.28 340.512 29.882 340.218 30.526H340.19C340.19 30.162 340.162 29.798 340.162 29.448H339.126C339.126 29.882 339.182 30.4 339.182 31.002V36ZM348.884 34.166C348.366 34.824 347.736 35.16 346.798 35.16C345.608 35.16 344.74 34.194 344.656 33.06H349.948V32.71C349.948 30.54 348.688 29.28 346.84 29.28C344.908 29.28 343.48 30.694 343.48 32.724C343.48 34.628 344.74 36.168 346.798 36.168C348.016 36.168 348.94 35.804 349.71 34.81L348.884 34.166ZM344.656 32.136C344.796 31.03 345.594 30.288 346.798 30.288C348.002 30.288 348.73 31.03 348.772 32.136H344.656ZM356.663 34.166C356.145 34.824 355.515 35.16 354.577 35.16C353.387 35.16 352.519 34.194 352.435 33.06H357.727V32.71C357.727 30.54 356.467 29.28 354.619 29.28C352.687 29.28 351.259 30.694 351.259 32.724C351.259 34.628 352.519 36.168 354.577 36.168C355.795 36.168 356.719 35.804 357.489 34.81L356.663 34.166ZM352.435 32.136C352.575 31.03 353.373 30.288 354.577 30.288C355.781 30.288 356.509 31.03 356.551 32.136H352.435ZM359.417 36H360.509V32.808C360.509 31.31 361.125 30.288 362.539 30.288C363.561 30.288 364.037 30.974 364.037 32.066V36H365.129V31.954C365.129 30.372 364.359 29.28 362.637 29.28C361.559 29.28 360.747 29.882 360.453 30.526H360.425C360.425 30.162 360.397 29.798 360.397 29.448H359.361C359.361 29.882 359.417 30.4 359.417 31.002V36Z" fill="white"/>
<path d="M330.5 57L340.5 51H320.5L330.5 57Z" fill="#333333"/>
</g>
<rect x="309.5" y="65.5" width="43" height="35" rx="3.5" fill="white"/>
<path d="M322 87V90C322 90.5304 322.211 91.0391 322.586 91.4142C322.961 91.7893 323.47 92 324 92H327M327 74H324C323.47 74 322.961 74.2107 322.586 74.5858C322.211 74.9609 322 75.4696 322 76V79L327 74ZM340 79V76C340 75.4696 339.789 74.9609 339.414 74.5858C339.039 74.2107 338.53 74 338 74H335L340 79ZM335 92H338C338.53 92 339.039 91.7893 339.414 91.4142C339.789 91.0391 340 90.5304 340 90V87L335 92Z" stroke="#6B778C" stroke-width="2" stroke-linecap="round" stroke-linejoin="round"/>
<rect x="309.5" y="65.5" width="43" height="35" rx="3.5" stroke="#9EA6B5"/>
<defs>
<filter id="filter0_dd_65_15857" x="15" y="5" width="139" height="64" filterUnits="userSpaceOnUse" color-interpolation-filters="sRGB">
<feFlood flood-opacity="0" result="BackgroundImageFix"/>
<feColorMatrix in="SourceAlpha" type="matrix" values="0 0 0 0 0 0 0 0 0 0 0 0 0 0 0 0 0 0 127 0" result="hardAlpha"/>
<feOffset dy="4"/>
<feGaussianBlur stdDeviation="2"/>
<feColorMatrix type="matrix" values="0 0 0 0 0 0 0 0 0 0 0 0 0 0 0 0 0 0 0.18 0"/>
<feBlend mode="normal" in2="BackgroundImageFix" result="effect1_dropShadow_65_15857"/>
<feColorMatrix in="SourceAlpha" type="matrix" values="0 0 0 0 0 0 0 0 0 0 0 0 0 0 0 0 0 0 127 0" result="hardAlpha"/>
<feOffset dy="2"/>
<feGaussianBlur stdDeviation="5"/>
<feComposite in2="hardAlpha" operator="out"/>
<feColorMatrix type="matrix" values="0 0 0 0 0 0 0 0 0 0 0 0 0 0 0 0 0 0 0.12 0"/>
<feBlend mode="normal" in2="effect1_dropShadow_65_15857" result="effect2_dropShadow_65_15857"/>
<feBlend mode="normal" in="SourceGraphic" in2="effect2_dropShadow_65_15857" result="shape"/>
</filter>
<filter id="filter1_dd_65_15857" x="261" y="5" width="139" height="64" filterUnits="userSpaceOnUse" color-interpolation-filters="sRGB">
<feFlood flood-opacity="0" result="BackgroundImageFix"/>
<feColorMatrix in="SourceAlpha" type="matrix" values="0 0 0 0 0 0 0 0 0 0 0 0 0 0 0 0 0 0 127 0" result="hardAlpha"/>
<feOffset dy="4"/>
<feGaussianBlur stdDeviation="2"/>
<feColorMatrix type="matrix" values="0 0 0 0 0 0 0 0 0 0 0 0 0 0 0 0 0 0 0.18 0"/>
<feBlend mode="normal" in2="BackgroundImageFix" result="effect1_dropShadow_65_15857"/>
<feColorMatrix in="SourceAlpha" type="matrix" values="0 0 0 0 0 0 0 0 0 0 0 0 0 0 0 0 0 0 127 0" result="hardAlpha"/>
<feOffset dy="2"/>
<feGaussianBlur stdDeviation="5"/>
<feComposite in2="hardAlpha" operator="out"/>
<feColorMatrix type="matrix" values="0 0 0 0 0 0 0 0 0 0 0 0 0 0 0 0 0 0 0.12 0"/>
<feBlend mode="normal" in2="effect1_dropShadow_65_15857" result="effect2_dropShadow_65_15857"/>
<feBlend mode="normal" in="SourceGraphic" in2="effect2_dropShadow_65_15857" result="shape"/>
</filter>
</defs>
</svg>
