<svg width="223" height="223" viewBox="0 0 223 223" fill="none" xmlns="http://www.w3.org/2000/svg">
<g clip-path="url(#clip0_236_27476)">
<rect y="0.269531" width="223" height="223" fill="#A4DBE8"/>
<rect opacity="0.5" y="127.473" width="101.292" height="95.7958" fill="#95D2E0"/>
<rect opacity="0.5" x="72.3917" y="-2.82031" width="149.112" height="142.122" transform="rotate(-22.0873 72.3917 -2.82031)" fill="#95D2E0"/>
<rect opacity="0.5" x="50.8929" y="189.512" width="209.191" height="96.54" transform="rotate(-12.9449 50.8929 189.512)" fill="#94CDDB"/>
<rect x="111.539" y="41.7148" width="6.85727" height="152.231" fill="white"/>
<path d="M42.9003 54.87C43.5521 54.4426 44.3146 54.2148 45.094 54.2148H152.019C154.228 54.2148 156.019 56.0057 156.019 58.2148V77.6439C156.019 79.8531 154.228 81.6439 152.019 81.6439H45.094C44.3146 81.6439 43.5521 81.4162 42.9003 80.9887L28.0881 71.2742C25.6797 69.6946 25.6797 66.1641 28.0881 64.5846L42.9003 54.87Z" fill="white"/>
<path d="M179.861 98.7568C179.21 98.3293 178.447 98.1016 177.668 98.1016H70.7426C68.5335 98.1016 66.7426 99.8924 66.7426 102.102V121.531C66.7426 123.74 68.5335 125.531 70.7426 125.531H177.668C178.447 125.531 179.21 125.303 179.861 124.875L194.674 115.161C197.082 113.581 197.082 110.051 194.674 108.471L179.861 98.7568Z" fill="white"/>
</g>
<defs>
<clipPath id="clip0_236_27476">
<rect width="223" height="223" fill="white"/>
</clipPath>
</defs>
</svg>
