<svg width="223" height="223" viewBox="0 0 223 223" fill="none" xmlns="http://www.w3.org/2000/svg">
<g clip-path="url(#clip0_236_27516)">
<rect y="0.269531" width="223" height="223" fill="#BFBDF2"/>
<g style="mix-blend-mode:multiply" opacity="0.5">
<rect y="127.473" width="101.292" height="95.7958" fill="#F4F4F4"/>
</g>
<g style="mix-blend-mode:multiply" opacity="0.66">
<rect x="72.3917" y="-2.82031" width="149.112" height="142.122" transform="rotate(-22.0873 72.3917 -2.82031)" fill="#F5F5F5"/>
</g>
<g style="mix-blend-mode:multiply" opacity="0.5">
<rect x="50.8929" y="189.512" width="209.191" height="96.54" transform="rotate(-12.9449 50.8929 189.512)" fill="#ECECEC"/>
</g>
<path fill-rule="evenodd" clip-rule="evenodd" d="M198.877 65.1465C200.048 63.8457 199.101 61.7746 197.351 61.8088L118.101 63.3564C116.288 63.3918 115.454 65.629 116.802 66.8425L159.809 105.557C160.63 106.296 161.895 106.229 162.634 105.408L198.877 65.1465ZM180.644 73.0122C181.824 71.7019 180.854 69.6172 179.092 69.6752L138.949 70.9954C137.149 71.0546 136.338 73.276 137.676 74.4808L159.194 93.8509C160.015 94.5899 161.28 94.5235 162.019 93.7026L180.644 73.0122Z" fill="white"/>
<path fill-rule="evenodd" clip-rule="evenodd" d="M94.5576 136.7C94.8254 136.968 94.8194 137.403 94.5516 137.671C84.0316 148.191 84.0316 165.247 94.5516 175.767C105.072 186.287 122.128 186.287 132.648 175.767C132.916 175.5 133.351 175.494 133.619 175.761L135.112 177.254C136.179 178.321 137.909 178.321 138.976 177.254L140.076 176.154C141.639 174.592 141.639 172.059 140.076 170.497L99.8221 130.242C98.26 128.68 95.7273 128.68 94.1652 130.242L93.0649 131.343C91.9978 132.41 91.9978 134.14 93.0649 135.207L94.5576 136.7ZM100.761 143.186C100.841 143.109 100.968 143.111 101.047 143.189L126.929 169.072C127.12 169.262 127.124 169.57 126.934 169.76C119.57 177.124 107.696 177.189 100.413 169.906C93.1295 162.623 93.1951 150.749 100.559 143.385L100.761 143.186Z" fill="white"/>
<path d="M31.1514 108.249C31.7502 106.122 33.9595 104.884 36.0859 105.483L68.2813 114.55C70.4077 115.149 71.646 117.358 71.0472 119.484L61.9801 151.68C61.3812 153.806 59.172 155.044 57.0455 154.446L24.8502 145.379C22.7238 144.78 21.4855 142.57 22.0843 140.444L31.1514 108.249Z" fill="white"/>
<circle cx="78.5032" cy="59.7218" r="20.7218" fill="white"/>
<circle cx="94.905" cy="99.0407" r="6.81485" transform="rotate(-60 94.905 99.0407)" fill="white"/>
<path fill-rule="evenodd" clip-rule="evenodd" d="M158.192 166.963C158.749 167.54 159.645 167.534 160.195 166.95C160.744 166.366 160.738 165.425 160.181 164.848L98.979 101.445L184.489 122.746C185.267 122.94 186.085 122.475 186.317 121.707C186.548 120.939 186.104 120.159 185.326 119.966L96.8294 97.9202C96.0513 97.7264 95.2331 98.1917 95.0019 98.9596C94.9853 99.0148 94.9721 99.07 94.9624 99.1251C94.9192 99.1614 94.8775 99.2007 94.8377 99.243C94.2883 99.8271 94.2944 100.768 94.8514 101.345L158.192 166.963Z" fill="white"/>
<rect x="77.9124" y="91.4844" width="3.8942" height="14.6032" rx="1.9471" transform="rotate(-60 77.9124 91.4844)" fill="white"/>
<path d="M171.42 178.754C170.871 179.338 170.471 178.397 169.914 177.82L158.532 166.028L159.165 164.933L171.027 177.222C171.584 177.799 171.97 178.17 171.42 178.754Z" fill="white"/>
<path d="M202.382 125.126C202.613 124.358 201.598 124.482 200.82 124.289L184.917 120.327L184.285 121.422L200.859 125.551C201.637 125.745 202.151 125.893 202.382 125.126Z" fill="white"/>
</g>
<defs>
<clipPath id="clip0_236_27516">
<rect width="223" height="223" fill="white"/>
</clipPath>
</defs>
</svg>
