<svg width="155" height="62" viewBox="0 0 155 62" fill="none" xmlns="http://www.w3.org/2000/svg">
<path fill-rule="evenodd" clip-rule="evenodd" d="M53.6639 21.2616C51.4388 21.5479 49.2073 21.9015 46.9672 22.3247C32.9963 24.9415 21.6997 29.7253 14.7249 35.2656C11.2182 37.7761 8.63367 41.2801 7.34355 45.283C7.94261 41.3169 10.7026 37.3508 15.2811 33.7118C22.5982 27.865 34.5367 22.8767 49.2137 20.1168L51.0537 19.7897L50.3049 19.4013L48.9356 19.6466C33.959 22.4474 21.9136 27.5379 14.4467 33.487C10.7026 36.1651 7.94475 39.9083 6.57333 44.177C7.21518 39.9472 10.1891 35.7153 15.1314 31.9128C22.2773 26.209 33.5311 21.2616 47.4165 18.1951L46.4966 17.8476C32.6539 20.9754 21.4429 26.025 14.2542 31.6879C10.2255 34.4826 7.23016 38.4262 5.69613 42.9524C6.38077 38.4343 9.56864 33.8958 14.789 29.7458C23.2123 23.6086 32.8486 19.1662 43.1161 16.6823L41.9822 16.3756C31.7939 18.9352 22.2431 23.4103 13.8904 29.5413C9.59217 32.6079 6.42998 36.9052 4.86172 41.8075C5.58915 36.9624 9.01237 32.1377 14.5751 27.681C21.6633 22.3697 29.6736 18.285 38.2381 15.6192L36.8046 15.4148C28.3985 18.1011 20.54 22.1448 13.5695 27.3743C8.98241 30.6473 5.60199 35.2308 3.92034 40.4583C4.71195 35.286 8.34912 30.1138 14.3183 25.3504C19.8939 21.1226 26.0749 17.6799 32.6753 15.1285H30.8354C24.5088 17.682 18.5845 21.0593 13.2272 25.1664C7.70727 29.5822 4.11289 34.366 2.91477 39.1703C3.74917 33.6505 7.64308 28.1103 14.0402 23.0198C17.8271 20.0575 21.9286 17.4816 26.2782 15.333L24.6522 15.517L23.882 15.6192C19.9816 17.5777 16.2867 19.8837 12.8421 22.5087C6.95844 27.2925 3.12872 32.4035 1.84501 37.5553C2.74361 31.647 6.91565 25.7184 13.7407 20.2599C15.3025 19.0128 17.1211 17.7658 18.8969 16.5596C17.718 16.8826 16.5606 17.2731 15.4309 17.7249C14.3569 18.328 13.3727 19.0639 12.4998 19.9124C-4.44514 32.6079 -4.27398 50.7823 13.6979 57.6514L13.3128 57.263C12.8571 56.7989 12.4356 56.343 12.0505 55.8932L11.644 55.4026C11.2375 54.8915 10.8737 54.3804 10.5528 53.8877L10.1891 53.3173C9.87459 52.7817 9.59645 52.2297 9.35469 51.6614L9.07655 50.9868C8.8519 50.3673 8.68074 49.7315 8.56307 49.0855C8.58446 48.8075 8.53954 48.5274 8.4347 48.2657C8.37693 47.6422 8.37693 47.0125 8.4347 46.3869C8.38121 46.0537 8.38121 45.7164 8.4347 45.3852C8.54167 44.7392 8.70642 44.1034 8.92679 43.4839C9.05302 43.1016 9.20492 42.7275 9.37608 42.3595C9.72054 41.6583 10.1078 40.9755 10.5314 40.3152C11.8558 38.4221 13.4968 36.7518 15.3881 35.3678C24.8105 28.8728 35.6642 24.5224 47.117 22.6518C49.4705 22.2021 51.8239 21.8545 54.1774 21.5479L53.5569 21.1594" fill="#6C3078"/>
<path fill-rule="evenodd" clip-rule="evenodd" d="M12.222 39.1909C22.9195 36.3083 46.9462 35.9812 50.8615 48.7769C44.7382 45.5877 37.5238 44.8947 30.8571 46.8573C24.1818 48.7912 18.2383 52.5345 13.741 57.6311L13.3131 57.2631C17.8403 52.052 23.8887 48.2454 30.686 46.3257C34.9885 45.1318 39.5221 44.909 43.9295 45.6715C38.9059 44.5614 33.6642 44.7086 28.7176 46.1008C22.3461 47.8856 16.593 51.267 12.0508 55.8934L11.6443 55.4027C16.2528 50.7313 22.0787 47.3152 28.525 45.508C33.1592 44.2078 38.0459 43.9624 42.7956 44.7924C37.4254 43.6047 31.8263 43.76 26.5353 45.2422C20.6217 46.9002 15.2002 49.8625 10.7029 53.8878L10.3392 53.3175C14.9071 49.2696 20.4035 46.295 26.3855 44.6289C31.3043 43.2592 36.4904 43.0016 41.5333 43.8725C35.7865 42.6091 29.7981 42.7767 24.1391 44.3631C18.7903 45.8412 13.8074 48.3312 9.48342 51.682L9.20528 51.0073C13.5592 47.6709 18.5635 45.1911 23.9251 43.7089C29.1562 42.2779 34.6612 42.0203 40.0142 42.9525C33.8674 41.591 27.4553 41.7668 21.4005 43.4636C16.8326 44.6636 12.4958 46.5608 8.56343 49.0856C8.58482 48.8076 8.53989 48.5275 8.43506 48.2658C12.3696 45.7267 16.7021 43.8009 21.2721 42.562C26.9012 41.0001 32.834 40.7057 38.6021 41.7034C32.0296 40.2539 25.1789 40.4441 18.7047 42.2574C15.151 43.2449 11.7278 44.6166 8.49924 46.3462C8.46715 46.0109 8.48855 45.6736 8.56343 45.3444C11.6935 43.711 15.0012 42.4087 18.4266 41.4601C24.445 39.7858 30.7865 39.471 36.9547 40.5402C29.9221 38.9864 22.5922 39.1909 15.6666 41.133C13.3987 41.7545 11.1822 42.5355 9.03412 43.4636C9.16249 43.0793 9.31226 42.7051 9.48342 42.3392C11.4197 41.5358 13.4051 40.8529 15.4313 40.2948C21.8733 38.5019 28.6641 38.1666 35.2645 39.3135C27.7441 37.6535 19.905 37.8702 12.5001 39.9473L10.489 40.5402L10.7029 40.4379C10.9233 40.0965 11.1672 39.7674 11.4304 39.4566L12.222 39.1909Z" fill="#6C3078"/>
<path fill-rule="evenodd" clip-rule="evenodd" d="M63.5057 10.6307C54.9477 1.92171 48.5292 0.286212 46.3896 0C57.7676 6.40501 62.0209 20.1309 56.1244 31.422C54.2053 34.9935 51.7234 38.2624 48.7645 41.1123L49.3422 41.7869C52.5001 38.796 55.1445 35.3451 57.1728 31.5651C59.8514 26.7853 60.7479 21.2778 59.7188 15.9461C61.3748 21.9811 60.5639 28.3922 57.4509 33.8752C55.6131 37.3056 53.281 40.4703 50.5189 43.2793L51.0752 44.097C54.079 41.1225 56.6101 37.7391 58.5848 34.0592C61.4347 28.9585 62.3932 23.085 61.302 17.3976C63.0586 23.8476 62.1878 30.6942 58.863 36.5533C57.0487 39.9449 54.7765 43.0933 52.1021 45.9165C52.2733 46.2436 52.4295 46.5769 52.5728 46.9183C55.5574 43.8619 58.0778 40.4233 60.0611 36.6964C63.1249 31.2298 64.1497 24.927 62.9708 18.8286C64.8386 25.7141 63.9058 33.0186 60.3606 39.2723C58.5228 42.8132 56.2143 46.1107 53.4928 49.0853C53.4928 49.5146 53.7068 49.9439 53.7923 50.3937C56.9674 47.1493 59.6546 43.496 61.7727 39.5381C65.0012 33.6871 66.056 26.9632 64.768 20.4641C66.8198 27.8525 65.8485 35.7131 62.0508 42.4411C59.8857 46.493 57.1492 50.2404 53.9207 53.5829C53.8908 54.2146 53.8202 54.8402 53.7068 55.4637C57.5985 51.7 60.8656 47.3926 63.3987 42.6864C66.9054 36.4327 68.0821 29.2222 66.7364 22.2427C68.8909 30.1299 67.8275 38.5036 63.7625 45.6712C60.6687 51.3689 56.5823 56.5207 51.6742 60.9018C51.6742 61.0653 52.2091 61.1266 53.3003 61.0449C58.127 56.6658 62.1557 51.5447 65.2173 45.8961C68.9657 39.209 70.2259 31.5037 68.7903 24.0418C71.0732 32.4809 69.9178 41.4312 65.5596 49.0853C63.4437 53.0861 60.8292 56.8273 57.7718 60.2271C58.5635 60.0022 59.4193 59.7365 60.2751 59.4298C62.9195 56.3346 65.2066 52.9757 67.1001 49.4124C71.1052 42.2612 72.4489 34.0224 70.9084 26.0453C73.3753 35.0752 72.1579 44.6633 67.5066 52.8674C66.7214 54.3128 65.8806 55.7765 64.982 57.2628C66.1223 56.5922 67.2028 55.8338 68.2126 54.9935C68.555 54.4007 68.8973 53.7873 69.2182 53.174C76.899 38.475 75.6367 23.1423 63.5057 10.692" fill="#6C3078"/>
<path d="M100.183 30.7804V33.8204H108.343C107.943 39.4204 103.703 43.2204 98.0229 43.2204C91.503 43.2204 86.8229 38.3804 86.8229 31.5404C86.8229 24.3004 91.3829 19.3804 98.0229 19.3804C102.063 19.3804 105.143 21.1004 107.223 24.5804L110.063 22.3004C107.383 18.2604 103.343 16.3004 97.903 16.3004C93.7829 16.3004 90.3429 17.5404 87.7429 20.0204C84.6629 22.9404 83.1429 26.7804 83.1429 31.5404C83.1429 37.3404 85.8229 42.0604 90.5029 44.6204C92.423 45.6604 94.8629 46.3004 97.703 46.3004C106.423 46.3004 111.983 40.8604 111.983 31.7404C111.983 31.4204 111.983 31.1004 111.983 30.7804H100.183ZM117.441 45.5404H132.521V42.3804H120.841V31.4204H132.521V28.2604H120.841V20.0604H132.521V16.9404H117.441V45.5404ZM138.7 45.5404H152.9V42.3004H142.1V16.9404H138.7V45.5404Z" fill="#6C3078"/>
</svg>
