<svg width="129" height="128" viewBox="0 0 129 128" fill="none" xmlns="http://www.w3.org/2000/svg">
<mask id="mask0_245_2136" style="mask-type:alpha" maskUnits="userSpaceOnUse" x="24" y="36" width="81" height="92">
<path d="M73.912 90.7291V97.625H75.5029C91.3183 97.625 104.139 109.713 104.139 124.625V128H24.5938V124.625C24.5938 109.713 37.4148 97.625 53.2302 97.625H54.8211V90.7291C47.9653 87.6584 43.0373 81.3826 42.2152 73.9555C39.8985 73.6467 38.1165 71.7695 38.1165 69.5V64.25C38.1165 62.0203 39.8365 60.1693 42.0938 59.8122V57.5C42.0938 45.902 52.0657 36.5 64.3665 36.5C76.6674 36.5 86.6393 45.902 86.6393 57.5V59.8122C88.8965 60.1693 90.6165 62.0203 90.6165 64.25V69.5C90.6165 71.7695 88.8346 73.6467 86.5179 73.9555C85.6958 81.3826 80.7678 87.6584 73.912 90.7291Z" fill="white"/>
</mask>
<g mask="url(#mask0_245_2136)">
<path d="M73.912 90.7291V97.625H75.5029C91.3183 97.625 104.139 109.713 104.139 124.625V128H24.5938V124.625C24.5938 109.713 37.4148 97.625 53.2302 97.625H54.8211V90.7291C47.9653 87.6584 43.0373 81.3826 42.2152 73.9555C39.8985 73.6467 38.1165 71.7695 38.1165 69.5V64.25C38.1165 62.0203 39.8365 60.1693 42.0938 59.8122V57.5C42.0938 45.902 52.0657 36.5 64.3665 36.5C76.6674 36.5 86.6393 45.902 86.6393 57.5V59.8122C88.8965 60.1693 90.6165 62.0203 90.6165 64.25V69.5C90.6165 71.7695 88.8346 73.6467 86.5179 73.9555C85.6958 81.3826 80.7678 87.6584 73.912 90.7291Z" fill="#D0C6AC"/>
<path d="M129.594 36.5H24.5938V141.5H129.594V36.5Z" fill="#EDB98A"/>
<path fill-rule="evenodd" clip-rule="evenodd" d="M86.6391 66.125V74.75C86.6391 86.348 76.6673 95.75 64.3664 95.75C52.0655 95.75 42.0937 86.348 42.0937 74.75V66.125V71.75C42.0937 83.348 52.0655 92.75 64.3664 92.75C76.6673 92.75 86.6391 83.348 86.6391 71.75V66.125Z" fill="black" fill-opacity="0.1"/>
</g>
<mask id="mask1_245_2136" style="mask-type:alpha" maskUnits="userSpaceOnUse" x="24" y="97" width="81" height="31">
<path fill-rule="evenodd" clip-rule="evenodd" d="M53.7044 97.6445H53.2302C37.4148 97.6445 24.5938 109.733 24.5938 124.645V128H104.139V124.645C104.139 109.733 91.3183 97.6445 75.5029 97.6445H75.0287C75.0792 98.0134 75.1052 98.3888 75.1052 98.7695C75.1052 103.947 70.2973 108.145 64.3665 108.145C58.4358 108.145 53.6279 103.947 53.6279 98.7695C53.6279 98.3888 53.6539 98.0134 53.7044 97.6445Z" fill="white"/>
</mask>
<g mask="url(#mask1_245_2136)">
<path fill-rule="evenodd" clip-rule="evenodd" d="M53.7044 97.6445H53.2302C37.4148 97.6445 24.5938 109.733 24.5938 124.645V128H104.139V124.645C104.139 109.733 91.3183 97.6445 75.5029 97.6445H75.0287C75.0792 98.0134 75.1052 98.3888 75.1052 98.7695C75.1052 103.947 70.2973 108.145 64.3665 108.145C58.4358 108.145 53.6279 103.947 53.6279 98.7695C53.6279 98.3888 53.6539 98.0134 53.7044 97.6445Z" fill="#E6E6E6"/>
<path d="M116.867 86.75H11.8665V128H116.867V86.75Z" fill="#25557C"/>
<path fill-rule="evenodd" clip-rule="evenodd" d="M73.9119 95.1053C76.3705 96.8137 77.8892 99.1652 77.8892 101.761C77.8892 104.463 76.2436 106.9 73.6053 108.623L71.3582 106.954L69.5369 107.078L69.9346 105.897L69.9037 105.874C72.33 104.695 73.9119 102.763 73.9119 100.579V95.1053ZM54.821 94.8398C52.1295 96.5658 50.446 99.0279 50.446 101.761C50.446 104.535 52.1807 107.031 54.9437 108.76L57.3747 106.954L59.196 107.078L58.7983 105.897L58.8292 105.874C56.403 104.695 54.821 102.763 54.821 100.579V94.8398Z" fill="#F2F2F2"/>
</g>
<mask id="mask2_245_2136" style="mask-type:alpha" maskUnits="userSpaceOnUse" x="56" y="78" width="16" height="8">
<path fill-rule="evenodd" clip-rule="evenodd" d="M56.8567 78.923C57.2775 82.4824 60.4793 85.25 64.3667 85.25C68.2661 85.25 71.4756 82.4653 71.8804 78.89C71.913 78.6023 71.5722 78.125 71.145 78.125C65.2213 78.125 60.6829 78.125 57.6398 78.125C57.2102 78.125 56.8146 78.5669 56.8567 78.923Z" fill="white"/>
</mask>
<g mask="url(#mask2_245_2136)">
<path fill-rule="evenodd" clip-rule="evenodd" d="M56.8567 78.923C57.2775 82.4824 60.4793 85.25 64.3667 85.25C68.2661 85.25 71.4756 82.4653 71.8804 78.89C71.913 78.6023 71.5722 78.125 71.145 78.125C65.2213 78.125 60.6829 78.125 57.6398 78.125C57.2102 78.125 56.8146 78.5669 56.8567 78.923Z" fill="black" fill-opacity="0.7"/>
<path d="M68.7415 74H60.3893C59.291 74 58.4006 74.8395 58.4006 75.875V78.125C58.4006 79.1605 59.291 80 60.3893 80H68.7415C69.8398 80 70.7302 79.1605 70.7302 78.125V75.875C70.7302 74.8395 69.8398 74 68.7415 74Z" fill="white"/>
<path d="M62.378 90.5C64.7943 90.5 66.753 88.6532 66.753 86.375C66.753 84.0968 64.7943 82.25 62.378 82.25C59.9618 82.25 58.003 84.0968 58.003 86.375C58.003 88.6532 59.9618 90.5 62.378 90.5Z" fill="#FF4F6D"/>
<path d="M66.3554 90.5C68.7716 90.5 70.7304 88.6532 70.7304 86.375C70.7304 84.0968 68.7716 82.25 66.3554 82.25C63.9391 82.25 61.9804 84.0968 61.9804 86.375C61.9804 88.6532 63.9391 90.5 66.3554 90.5Z" fill="#FF4F6D"/>
</g>
<path fill-rule="evenodd" clip-rule="evenodd" d="M59.5937 71.75C59.5937 73.4069 61.7305 74.75 64.3664 74.75C67.0023 74.75 69.1392 73.4069 69.1392 71.75" fill="black" fill-opacity="0.16"/>
<path d="M54.0258 67.25C55.3437 67.25 56.4121 66.2426 56.4121 65C56.4121 63.7574 55.3437 62.75 54.0258 62.75C52.7078 62.75 51.6394 63.7574 51.6394 65C51.6394 66.2426 52.7078 67.25 54.0258 67.25Z" fill="black" fill-opacity="0.6"/>
<path d="M74.7077 67.25C76.0257 67.25 77.0941 66.2426 77.0941 65C77.0941 63.7574 76.0257 62.75 74.7077 62.75C73.3897 62.75 72.3213 63.7574 72.3213 65C72.3213 66.2426 73.3897 67.25 74.7077 67.25Z" fill="black" fill-opacity="0.6"/>
<path d="M48.3104 60.1864C49.8675 58.1206 54.1362 56.9622 57.8132 57.8136C58.2398 57.9124 58.6706 57.6664 58.7754 57.2641C58.8802 56.8618 58.6192 56.4557 58.1926 56.3569C53.9224 55.3682 48.9793 56.7095 47.0136 59.3174C46.7591 59.6551 46.8431 60.1233 47.2012 60.3633C47.5593 60.6032 48.0559 60.524 48.3104 60.1864Z" fill="black" fill-opacity="0.6"/>
<path d="M80.4229 60.1864C78.8659 58.1206 74.5972 56.9622 70.9201 57.8136C70.4935 57.9124 70.0627 57.6664 69.9579 57.2641C69.8531 56.8618 70.1141 56.4557 70.5407 56.3569C74.811 55.3682 79.754 56.7095 81.7197 59.3174C81.9742 59.6551 81.8902 60.1233 81.5321 60.3633C81.174 60.6032 80.6774 60.524 80.4229 60.1864Z" fill="black" fill-opacity="0.6"/>
<mask id="mask3_245_2136" style="mask-type:alpha" maskUnits="userSpaceOnUse" x="11" y="23" width="106" height="105">
<path d="M116.867 23H11.8667V128H116.867V23Z" fill="white"/>
</mask>
<g mask="url(#mask3_245_2136)">
<mask id="mask4_245_2136" style="mask-type:alpha" maskUnits="userSpaceOnUse" x="40" y="30" width="48" height="31">
<path fill-rule="evenodd" clip-rule="evenodd" d="M85.7768 50.7233C86.4757 51.094 87.0291 54.8105 87.0558 56.2316C87.0726 57.1086 87.0876 60.4527 86.1039 60.1637C85.8044 60.0757 85.3473 58.3052 85.2822 57.269C85.2172 56.2328 84.5929 52.7075 83.6351 51.0855C83.4162 50.7149 82.7895 50.0641 83.0603 49.7506C83.3962 49.3618 83.7224 49.5873 84.1324 49.743C84.576 49.9116 85.6983 50.6818 85.7768 50.7233ZM86.097 49.6087C85.8003 49.9695 83.7739 48.9566 82.9289 48.5165C75.8312 44.819 74.4535 43.6433 63.271 43.7967C52.0886 43.9501 44.4274 48.89 43.9965 49.3953C43.6967 49.7468 43.3139 50.6855 42.9991 53.3002C42.6844 55.9149 43.0862 60.6042 41.9468 60.5985C40.9767 60.5936 40.7657 51.6789 41.1844 48.1424C41.2487 47.5994 41.4965 46.6281 41.3172 46.1397C41.1604 45.7131 40.3936 45.714 40.516 45.0031C40.6551 44.194 41.5204 44.5959 41.8973 44.209C42.611 43.4761 41.51 43.3027 41.3274 42.6615C41.0559 41.7085 41.8403 41.4626 42.547 41.1617C43.3291 40.8289 43.2275 41.1212 43.8622 40.4693C43.0144 39.8834 42.7077 39.0852 43.8686 38.657C44.3616 38.4751 45.6442 38.7158 46.0305 38.4426C46.1312 38.3713 46.171 37.9628 46.2331 37.8793C46.8499 37.0473 46.6977 36.445 46.6352 35.5109C46.5837 34.7466 46.5906 34.045 47.5612 33.9686C48.2088 33.9177 48.7355 34.4166 49.3158 34.5634C49.9595 34.7265 49.7177 34.8454 50.2221 34.5181C51.1075 33.9431 50.5049 32.8229 51.207 32.1545C52.1705 31.2373 52.8021 32.5817 53.5757 32.6832C55.2551 32.9038 54.7161 31.2957 55.7103 30.7064C56.8986 30.0027 57.0136 31.5505 57.7558 31.6056C58.399 31.6532 59.557 30.4829 60.1177 30.2649C61.7812 29.6177 62.6055 31.439 64.1891 31.2067C65.3382 31.0381 65.6485 30.9004 66.6855 31.5168C67.6922 32.1151 67.9313 31.6874 69.0712 31.6789C69.8765 31.6731 70.3698 32.3076 71.0434 32.3738C71.3794 32.4069 71.701 32.0769 72.0615 32.0976C73.3491 32.1713 73.4305 33.7411 74.4535 34.1733C75.3881 34.5683 76.487 34.0134 77.4145 33.9107C79.6778 33.6603 78.1279 35.6534 78.1918 36.843C79.0802 37.0384 79.9819 36.2566 80.8663 36.4005C82.2589 36.6272 81.7332 37.988 81.4105 38.9054C82.3754 38.889 84.8943 37.8791 85.5195 39.1708C85.8419 39.8367 85.0908 40.7259 85.1031 41.4029C85.1203 42.3559 85.863 43.1445 86.1259 44.0465C86.4805 45.2641 86.986 48.5277 86.097 49.6087Z" fill="white"/>
</mask>
<g mask="url(#mask4_245_2136)">
<path fill-rule="evenodd" clip-rule="evenodd" d="M85.7768 50.7233C86.4757 51.094 87.0291 54.8105 87.0558 56.2316C87.0726 57.1086 87.0876 60.4527 86.1039 60.1637C85.8044 60.0757 85.3473 58.3052 85.2822 57.269C85.2172 56.2328 84.5929 52.7075 83.6351 51.0855C83.4162 50.7149 82.7895 50.0641 83.0603 49.7506C83.3962 49.3618 83.7224 49.5873 84.1324 49.743C84.576 49.9116 85.6983 50.6818 85.7768 50.7233ZM86.097 49.6087C85.8003 49.9695 83.7739 48.9566 82.9289 48.5165C75.8312 44.819 74.4535 43.6433 63.271 43.7967C52.0886 43.9501 44.4274 48.89 43.9965 49.3953C43.6967 49.7468 43.3139 50.6855 42.9991 53.3002C42.6844 55.9149 43.0862 60.6042 41.9468 60.5985C40.9767 60.5936 40.7657 51.6789 41.1844 48.1424C41.2487 47.5994 41.4965 46.6281 41.3172 46.1397C41.1604 45.7131 40.3936 45.714 40.516 45.0031C40.6551 44.194 41.5204 44.5959 41.8973 44.209C42.611 43.4761 41.51 43.3027 41.3274 42.6615C41.0559 41.7085 41.8403 41.4626 42.547 41.1617C43.3291 40.8289 43.2275 41.1212 43.8622 40.4693C43.0144 39.8834 42.7077 39.0852 43.8686 38.657C44.3616 38.4751 45.6442 38.7158 46.0305 38.4426C46.1312 38.3713 46.171 37.9628 46.2331 37.8793C46.8499 37.0473 46.6977 36.445 46.6352 35.5109C46.5837 34.7466 46.5906 34.045 47.5612 33.9686C48.2088 33.9177 48.7355 34.4166 49.3158 34.5634C49.9595 34.7265 49.7177 34.8454 50.2221 34.5181C51.1075 33.9431 50.5049 32.8229 51.207 32.1545C52.1705 31.2373 52.8021 32.5817 53.5757 32.6832C55.2551 32.9038 54.7161 31.2957 55.7103 30.7064C56.8986 30.0027 57.0136 31.5505 57.7558 31.6056C58.399 31.6532 59.557 30.4829 60.1177 30.2649C61.7812 29.6177 62.6055 31.439 64.1891 31.2067C65.3382 31.0381 65.6485 30.9004 66.6855 31.5168C67.6922 32.1151 67.9313 31.6874 69.0712 31.6789C69.8765 31.6731 70.3698 32.3076 71.0434 32.3738C71.3794 32.4069 71.701 32.0769 72.0615 32.0976C73.3491 32.1713 73.4305 33.7411 74.4535 34.1733C75.3881 34.5683 76.487 34.0134 77.4145 33.9107C79.6778 33.6603 78.1279 35.6534 78.1918 36.843C79.0802 37.0384 79.9819 36.2566 80.8663 36.4005C82.2589 36.6272 81.7332 37.988 81.4105 38.9054C82.3754 38.889 84.8943 37.8791 85.5195 39.1708C85.8419 39.8367 85.0908 40.7259 85.1031 41.4029C85.1203 42.3559 85.863 43.1445 86.1259 44.0465C86.4805 45.2641 86.986 48.5277 86.097 49.6087Z" fill="#2E3257"/>
<path d="M116.866 23H11.8665V128H116.866V23Z" fill="#B58143"/>
</g>
</g>
</svg>
