<svg width="121" height="129" viewBox="0 0 121 129" fill="none" xmlns="http://www.w3.org/2000/svg">
<mask id="mask0_245_26123" style="mask-type:alpha" maskUnits="userSpaceOnUse" x="23" y="36" width="75" height="92">
<path d="M69.5 90.7291V97.625H71C85.9117 97.625 98 109.713 98 124.625V128H23V124.625C23 109.713 35.0883 97.625 50 97.625H51.5V90.7291C45.036 87.6584 40.3896 81.3826 39.6144 73.9555C37.4301 73.6467 35.75 71.7695 35.75 69.5V64.25C35.75 62.0203 37.3717 60.1693 39.5 59.8122V57.5C39.5 45.902 48.902 36.5 60.5 36.5C72.098 36.5 81.5 45.902 81.5 57.5V59.8122C83.6283 60.1693 85.25 62.0203 85.25 64.25V69.5C85.25 71.7695 83.5699 73.6467 81.3856 73.9555C80.6104 81.3826 75.964 87.6584 69.5 90.7291Z" fill="white"/>
</mask>
<g mask="url(#mask0_245_26123)">
<path d="M69.5 90.7291V97.625H71C85.9117 97.625 98 109.713 98 124.625V128H23V124.625C23 109.713 35.0883 97.625 50 97.625H51.5V90.7291C45.036 87.6584 40.3896 81.3826 39.6144 73.9555C37.4301 73.6467 35.75 71.7695 35.75 69.5V64.25C35.75 62.0203 37.3717 60.1693 39.5 59.8122V57.5C39.5 45.902 48.902 36.5 60.5 36.5C72.098 36.5 81.5 45.902 81.5 57.5V59.8122C83.6283 60.1693 85.25 62.0203 85.25 64.25V69.5C85.25 71.7695 83.5699 73.6467 81.3856 73.9555C80.6104 81.3826 75.964 87.6584 69.5 90.7291Z" fill="#D0C6AC"/>
<path d="M122 36.5H23V141.5H122V36.5Z" fill="#F5D980"/>
<path fill-rule="evenodd" clip-rule="evenodd" d="M81.5 66.125V74.75C81.5 86.348 72.098 95.75 60.5 95.75C48.902 95.75 39.5 86.348 39.5 74.75V66.125V71.75C39.5 83.348 48.902 92.75 60.5 92.75C72.098 92.75 81.5 83.348 81.5 71.75V66.125Z" fill="black" fill-opacity="0.1"/>
</g>
<mask id="mask1_245_26123" style="mask-type:alpha" maskUnits="userSpaceOnUse" x="23" y="97" width="75" height="31">
<path fill-rule="evenodd" clip-rule="evenodd" d="M75.2449 97.9757C88.1399 100.012 98 111.176 98 124.644V128H23V124.644C23 111.176 32.8604 100.012 45.7557 97.9756C46.0938 99.8765 47.0436 101.683 48.5885 103.077L59.4954 112.912C60.0662 113.427 60.9338 113.427 61.5046 112.912L72.4115 103.077C72.571 102.933 72.7254 102.783 72.8743 102.628C74.1553 101.295 74.944 99.669 75.2449 97.9757V97.9757Z" fill="white"/>
</mask>
<g mask="url(#mask1_245_26123)">
<path fill-rule="evenodd" clip-rule="evenodd" d="M75.2449 97.9757C88.1399 100.012 98 111.176 98 124.644V128H23V124.644C23 111.176 32.8604 100.012 45.7557 97.9756C46.0938 99.8765 47.0436 101.683 48.5885 103.077L59.4954 112.912C60.0662 113.427 60.9338 113.427 61.5046 112.912L72.4115 103.077C72.571 102.933 72.7254 102.783 72.8743 102.628C74.1553 101.295 74.944 99.669 75.2449 97.9757V97.9757Z" fill="#E6E6E6"/>
<path d="M110 86.75H11V128H110V86.75Z" fill="#FF5C5C"/>
</g>
<path fill-rule="evenodd" clip-rule="evenodd" d="M55.25 78.874C55.25 81.7735 57.6005 84.124 60.5 84.124C63.3995 84.124 65.75 81.7735 65.75 78.874" fill="black" fill-opacity="0.7"/>
<path fill-rule="evenodd" clip-rule="evenodd" d="M56 71.75C56 73.4069 58.0147 74.75 60.5 74.75C62.9853 74.75 65 73.4069 65 71.75" fill="black" fill-opacity="0.16"/>
<path d="M50.75 67.25C51.9926 67.25 53 66.2426 53 65C53 63.7574 51.9926 62.75 50.75 62.75C49.5074 62.75 48.5 63.7574 48.5 65C48.5 66.2426 49.5074 67.25 50.75 67.25Z" fill="black" fill-opacity="0.6"/>
<path d="M70.25 67.25C71.4926 67.25 72.5 66.2426 72.5 65C72.5 63.7574 71.4926 62.75 70.25 62.75C69.0074 62.75 68 63.7574 68 65C68 66.2426 69.0074 67.25 70.25 67.25Z" fill="black" fill-opacity="0.6"/>
<path d="M45.3614 60.1844C46.8295 58.1187 50.8543 56.9603 54.3212 57.8117C54.7235 57.9104 55.1296 57.6644 55.2284 57.2622C55.3272 56.8599 55.0812 56.4537 54.6789 56.3549C50.6527 55.3662 45.9921 56.7076 44.1387 59.3155C43.8988 59.6531 43.978 60.1214 44.3156 60.3613C44.6532 60.6012 45.1215 60.5221 45.3614 60.1844Z" fill="black" fill-opacity="0.6"/>
<path d="M75.6391 60.1844C74.171 58.1187 70.1462 56.9603 66.6793 57.8117C66.277 57.9104 65.8709 57.6644 65.7721 57.2622C65.6733 56.8599 65.9193 56.4537 66.3216 56.3549C70.3478 55.3662 75.0084 56.7076 76.8618 59.3155C77.1017 59.6531 77.0225 60.1214 76.6849 60.3613C76.3473 60.6012 75.879 60.5221 75.6391 60.1844Z" fill="black" fill-opacity="0.6"/>
<mask id="mask2_245_26123" style="mask-type:alpha" maskUnits="userSpaceOnUse" x="11" y="23" width="99" height="105">
<path d="M110 23H11V128H110V23Z" fill="white"/>
</mask>
<g mask="url(#mask2_245_26123)">
<mask id="mask3_245_26123" style="mask-type:alpha" maskUnits="userSpaceOnUse" x="25" y="28" width="76" height="95">
<path fill-rule="evenodd" clip-rule="evenodd" d="M33.4995 87.7011V54.5156C33.4995 53.1911 33.6488 51.9014 33.9315 50.6624C35.0764 43.1476 39.4152 37.1774 44.3745 33.4983C51.8388 27.9634 64.4152 26.3664 68.7672 32.9441C72.0114 31.5037 76.8192 32.8166 80.3745 36.1233C83.9614 39.6539 86.8244 47.4473 85.121 53.8246C85.1603 54.2993 85.1803 54.7792 85.1803 55.2636V63.4578C84.8498 61.5927 83.3704 60.1244 81.4995 59.8105V59.7483C79.236 51.6724 72.5856 47.9658 68.5356 44.2897C62.2003 51.3758 42.433 51.4007 35.7495 65.3733V69.1233C35.7495 71.3803 37.4111 73.2492 39.5777 73.5735C40.2314 81.1664 44.9255 87.6044 51.4995 90.7274V90.8733C52.5984 107.319 49.0089 127.922 25.6245 121.623C30.7267 118.637 33.4276 99.5191 33.4995 87.7011ZM69.4995 90.7274C76.0736 87.6044 80.7676 81.1664 81.4213 73.5735C83.329 73.2879 84.8452 71.8049 85.1803 69.9138V70.4247C85.1803 76.3603 86.5893 82.211 89.2913 87.4959L99.397 107.261C102.008 112.368 101.242 118.313 97.921 122.549C96.8618 108.607 85.2133 97.6233 70.9995 97.6233H69.4995V90.7274Z" fill="white"/>
</mask>
<g mask="url(#mask3_245_26123)">
<path fill-rule="evenodd" clip-rule="evenodd" d="M33.4995 87.7011V54.5156C33.4995 53.1911 33.6488 51.9014 33.9315 50.6624C35.0764 43.1476 39.4152 37.1774 44.3745 33.4983C51.8388 27.9634 64.4152 26.3664 68.7672 32.9441C72.0114 31.5037 76.8192 32.8166 80.3745 36.1233C83.9614 39.6539 86.8244 47.4473 85.121 53.8246C85.1603 54.2993 85.1803 54.7792 85.1803 55.2636V63.4578C84.8498 61.5927 83.3704 60.1244 81.4995 59.8105V59.7483C79.236 51.6724 72.5856 47.9658 68.5356 44.2897C62.2003 51.3758 42.433 51.4007 35.7495 65.3733V69.1233C35.7495 71.3803 37.4111 73.2492 39.5777 73.5735C40.2314 81.1664 44.9255 87.6044 51.4995 90.7274V90.8733C52.5984 107.319 49.0089 127.922 25.6245 121.623C30.7267 118.637 33.4276 99.5191 33.4995 87.7011ZM69.4995 90.7274C76.0736 87.6044 80.7676 81.1664 81.4213 73.5735C83.329 73.2879 84.8452 71.8049 85.1803 69.9138V70.4247C85.1803 76.3603 86.5893 82.211 89.2913 87.4959L99.397 107.261C102.008 112.368 101.242 118.313 97.921 122.549C96.8618 108.607 85.2133 97.6233 70.9995 97.6233H69.4995V90.7274Z" fill="#272C2E"/>
<path d="M124.625 28.624H25.6245V133.624H124.625V28.624Z" fill="#2C1B18"/>
</g>
<path fill-rule="evenodd" clip-rule="evenodd" d="M35.7495 65.3746C42.433 53.2488 62.2003 53.2272 68.5356 47.0777C72.5773 50.2615 79.2089 52.7246 81.4856 59.7004C79.2089 51.6586 72.5773 47.9596 68.5356 44.291C62.2003 51.3771 42.433 51.402 35.7495 65.3746Z" fill="black" fill-opacity="0.16"/>
</g>
</svg>
