<svg width="129" height="128" viewBox="0 0 129 128" fill="none" xmlns="http://www.w3.org/2000/svg">
<mask id="mask0_272_4595" style="mask-type:alpha" maskUnits="userSpaceOnUse" x="24" y="36" width="81" height="92">
<path d="M74.312 90.7291V97.625H75.9029C91.7183 97.625 104.539 109.713 104.539 124.625V128H24.9938V124.625C24.9938 109.713 37.8147 97.625 53.6301 97.625H55.221V90.7291C48.3653 87.6584 43.4373 81.3826 42.6151 73.9555C40.2984 73.6467 38.5165 71.7695 38.5165 69.5V64.25C38.5165 62.0203 40.2365 60.1693 42.4938 59.8122V57.5C42.4938 45.902 52.4656 36.5 64.7665 36.5C77.0674 36.5 87.0392 45.902 87.0392 57.5V59.8122C89.2965 60.1693 91.0165 62.0203 91.0165 64.25V69.5C91.0165 71.7695 89.2346 73.6467 86.9179 73.9555C86.0957 81.3826 81.1677 87.6584 74.312 90.7291Z" fill="white"/>
</mask>
<g mask="url(#mask0_272_4595)">
<path d="M74.312 90.7291V97.625H75.9029C91.7183 97.625 104.539 109.713 104.539 124.625V128H24.9938V124.625C24.9938 109.713 37.8147 97.625 53.6301 97.625H55.221V90.7291C48.3653 87.6584 43.4373 81.3826 42.6151 73.9555C40.2984 73.6467 38.5165 71.7695 38.5165 69.5V64.25C38.5165 62.0203 40.2365 60.1693 42.4938 59.8122V57.5C42.4938 45.902 52.4656 36.5 64.7665 36.5C77.0674 36.5 87.0392 45.902 87.0392 57.5V59.8122C89.2965 60.1693 91.0165 62.0203 91.0165 64.25V69.5C91.0165 71.7695 89.2346 73.6467 86.9179 73.9555C86.0957 81.3826 81.1677 87.6584 74.312 90.7291Z" fill="#D0C6AC"/>
<path d="M129.994 36.5H24.9938V141.5H129.994V36.5Z" fill="#D08B5B"/>
<path fill-rule="evenodd" clip-rule="evenodd" d="M87.0391 66.125V74.75C87.0391 86.348 77.0672 95.75 64.7663 95.75C52.4655 95.75 42.4936 86.348 42.4936 74.75V66.125V71.75C42.4936 83.348 52.4655 92.75 64.7663 92.75C77.0672 92.75 87.0391 83.348 87.0391 71.75V66.125Z" fill="black" fill-opacity="0.1"/>
</g>
<mask id="mask1_272_4595" style="mask-type:alpha" maskUnits="userSpaceOnUse" x="24" y="97" width="81" height="31">
<path fill-rule="evenodd" clip-rule="evenodd" d="M54.1044 97.6445H53.6301C37.8147 97.6445 24.9938 109.733 24.9938 124.645V128H104.539V124.645C104.539 109.733 91.7183 97.6445 75.9029 97.6445H75.4286C75.4791 98.0134 75.5051 98.3888 75.5051 98.7695C75.5051 103.947 70.6973 108.145 64.7665 108.145C58.8357 108.145 54.0279 103.947 54.0279 98.7695C54.0279 98.3888 54.0539 98.0134 54.1044 97.6445Z" fill="white"/>
</mask>
<g mask="url(#mask1_272_4595)">
<path fill-rule="evenodd" clip-rule="evenodd" d="M54.1044 97.6445H53.6301C37.8147 97.6445 24.9938 109.733 24.9938 124.645V128H104.539V124.645C104.539 109.733 91.7183 97.6445 75.9029 97.6445H75.4286C75.4791 98.0134 75.5051 98.3888 75.5051 98.7695C75.5051 103.947 70.6973 108.145 64.7665 108.145C58.8357 108.145 54.0279 103.947 54.0279 98.7695C54.0279 98.3888 54.0539 98.0134 54.1044 97.6445Z" fill="#E6E6E6"/>
<path d="M117.267 86.75H12.2665V128H117.267V86.75Z" fill="#262E33"/>
<path fill-rule="evenodd" clip-rule="evenodd" d="M52.3511 97.6719C37.1291 98.3026 24.9935 110.138 24.9935 124.645V128.001H52.5806C51.2279 123.471 50.4481 118.142 50.4481 112.439C50.4481 107.066 51.1401 102.025 52.3511 97.6719ZM77.3497 128.001H104.539V124.645C104.539 110.266 92.6171 98.5121 77.5845 97.6912C78.7922 102.04 79.4822 107.074 79.4822 112.439C79.4822 118.142 78.7023 123.471 77.3497 128.001Z" fill="#3A4C5A"/>
<path fill-rule="evenodd" clip-rule="evenodd" d="M84.2549 118.999L88.0555 116.312C88.6294 115.906 89.4204 115.912 89.9867 116.328L92.6071 118.249L84.2549 118.999Z" fill="#E6E6E6"/>
<path fill-rule="evenodd" clip-rule="evenodd" d="M52.4367 97.25C50.8458 104.5 51.5086 114.75 54.4253 128H48.0617L42.4935 114.5L44.8799 111.125L42.4935 108.875L50.0503 97.625C50.8568 97.3885 51.6522 97.2635 52.4367 97.25Z" fill="#2F4351"/>
<path fill-rule="evenodd" clip-rule="evenodd" d="M77.0959 97.25C78.6868 104.5 78.0239 114.75 75.1073 128H81.4709L87.0391 114.5L84.6527 111.125L87.0391 108.875L79.4823 97.625C78.6758 97.3885 77.8804 97.2635 77.0959 97.25Z" fill="#2F4351"/>
<path fill-rule="evenodd" clip-rule="evenodd" d="M74.3119 94.8281C77.0054 96.552 78.6869 98.9971 78.6869 101.709C78.6869 104.484 76.9258 106.98 74.121 108.71L71.7582 106.955L69.9369 107.079L70.3346 105.897L70.3037 105.874C72.7299 104.696 74.3119 102.764 74.3119 100.58V94.8281ZM55.221 94.8281C52.5274 96.552 50.846 98.9971 50.846 101.709C50.846 104.484 52.6071 106.98 55.4118 108.71L57.7747 106.955L59.596 107.079L59.1983 105.897L59.2292 105.874C56.8029 104.696 55.221 102.764 55.221 100.58V94.8281Z" fill="#F2F2F2"/>
</g>
<path fill-rule="evenodd" clip-rule="evenodd" d="M59.1984 78.875C59.1984 81.7745 61.6914 84.125 64.7666 84.125C67.8418 84.125 70.3348 81.7745 70.3348 78.875" fill="black" fill-opacity="0.7"/>
<path fill-rule="evenodd" clip-rule="evenodd" d="M59.9937 71.75C59.9937 73.4069 62.1305 74.75 64.7664 74.75C67.4023 74.75 69.5391 73.4069 69.5391 71.75" fill="black" fill-opacity="0.16"/>
<path d="M54.4257 67.25C55.7437 67.25 56.8121 66.2426 56.8121 65C56.8121 63.7574 55.7437 62.75 54.4257 62.75C53.1078 62.75 52.0394 63.7574 52.0394 65C52.0394 66.2426 53.1078 67.25 54.4257 67.25Z" fill="black" fill-opacity="0.6"/>
<path d="M75.1076 67.25C76.4256 67.25 77.494 66.2426 77.494 65C77.494 63.7574 76.4256 62.75 75.1076 62.75C73.7897 62.75 72.7213 63.7574 72.7213 65C72.7213 66.2426 73.7897 67.25 75.1076 67.25Z" fill="black" fill-opacity="0.6"/>
<path d="M48.7103 60.1864C50.2674 58.1206 54.5361 56.9622 58.2131 57.8136C58.6398 57.9124 59.0706 57.6664 59.1753 57.2641C59.2801 56.8618 59.0192 56.4557 58.5925 56.3569C54.3223 55.3682 49.3792 56.7095 47.4135 59.3174C47.1591 59.6551 47.243 60.1233 47.6011 60.3633C47.9592 60.6032 48.4558 60.524 48.7103 60.1864Z" fill="black" fill-opacity="0.6"/>
<path d="M80.8229 60.1864C79.2658 58.1206 74.9971 56.9622 71.3201 57.8136C70.8934 57.9124 70.4626 57.6664 70.3579 57.2641C70.2531 56.8618 70.514 56.4557 70.9407 56.3569C75.2109 55.3682 80.154 56.7095 82.1197 59.3174C82.3742 59.6551 82.2902 60.1233 81.9321 60.3633C81.574 60.6032 81.0774 60.524 80.8229 60.1864Z" fill="black" fill-opacity="0.6"/>
<mask id="mask2_272_4595" style="mask-type:alpha" maskUnits="userSpaceOnUse" x="12" y="23" width="106" height="105">
<path d="M117.267 23H12.2666V128H117.267V23Z" fill="white"/>
</mask>
<g mask="url(#mask2_272_4595)">
<mask id="mask3_272_4595" style="mask-type:alpha" maskUnits="userSpaceOnUse" x="41" y="59" width="48" height="38">
<path fill-rule="evenodd" clip-rule="evenodd" d="M73.126 85.2986C71.5879 87.3955 70.4374 85.98 68.7987 84.8286C67.812 84.1352 66.3421 83.2728 64.9674 83.3154C63.5925 83.2728 62.1226 84.1352 61.1359 84.8286C59.4973 85.98 58.3467 87.3955 56.8086 85.2986C55.6542 83.7246 56.1372 81.0777 57.2159 79.5885C58.7507 77.4692 60.8328 78.4943 63.1608 78.2525C63.7939 78.1868 64.4298 78.0211 64.9674 77.75C65.505 78.0211 66.1408 78.1868 66.7738 78.2525C69.102 78.4943 71.1839 77.4692 72.7189 79.5885C73.7974 81.0777 74.2804 83.7246 73.126 85.2986ZM87.195 59.75C85.833 65.0281 85.2072 70.4127 84.2196 75.7517C84.0138 76.8646 83.7885 77.9736 83.5493 79.0811C83.499 79.3137 83.4495 80.1772 83.2065 80.2866C82.4702 80.6182 80.9698 78.855 80.5686 78.4569C79.561 77.4572 78.5619 76.4485 77.3347 75.664C74.855 74.0788 71.9519 73.1416 68.931 72.9192C67.6671 72.826 65.958 72.9884 64.7668 73.6664C63.5756 72.9884 61.8665 72.826 60.6025 72.9192C57.5816 73.1416 54.6784 74.0788 52.1988 75.664C50.9715 76.4485 49.9726 77.4572 48.9648 78.4569C48.5636 78.855 47.0632 80.6182 46.327 80.2866C46.084 80.1772 46.0344 79.3137 45.9842 79.0811C45.745 77.9736 45.5197 76.8646 45.3139 75.7517C44.3264 70.4127 43.7006 65.0281 42.3386 59.75C41.9423 59.75 41.5946 66.7804 41.5504 67.4355C41.3704 70.0959 41.1602 72.697 41.4288 75.3598C41.8918 79.9531 42.3745 85.7127 46.0865 89.2203C49.4407 92.3898 54.3106 93.0524 58.511 95.053C59.0518 95.3106 59.7692 95.6286 60.5428 95.8892C61.3578 96.4753 62.9741 96.875 64.836 96.875C66.7891 96.875 68.4718 96.4353 69.2428 95.8017C69.9193 95.5597 70.541 95.2823 71.0224 95.053C75.2225 93.052 80.0928 92.3898 83.4469 89.2203C87.159 85.7127 87.6417 79.9531 88.1048 75.3598C88.3733 72.697 88.1631 70.0959 87.9832 67.4355C87.9389 66.7804 87.5912 59.75 87.195 59.75Z" fill="white"/>
</mask>
<g mask="url(#mask3_272_4595)">
<path fill-rule="evenodd" clip-rule="evenodd" d="M73.126 85.2986C71.5879 87.3955 70.4374 85.98 68.7987 84.8286C67.812 84.1352 66.3421 83.2728 64.9674 83.3154C63.5925 83.2728 62.1226 84.1352 61.1359 84.8286C59.4973 85.98 58.3467 87.3955 56.8086 85.2986C55.6542 83.7246 56.1372 81.0777 57.2159 79.5885C58.7507 77.4692 60.8328 78.4943 63.1608 78.2525C63.7939 78.1868 64.4298 78.0211 64.9674 77.75C65.505 78.0211 66.1408 78.1868 66.7738 78.2525C69.102 78.4943 71.1839 77.4692 72.7189 79.5885C73.7974 81.0777 74.2804 83.7246 73.126 85.2986ZM87.195 59.75C85.833 65.0281 85.2072 70.4127 84.2196 75.7517C84.0138 76.8646 83.7885 77.9736 83.5493 79.0811C83.499 79.3137 83.4495 80.1772 83.2065 80.2866C82.4702 80.6182 80.9698 78.855 80.5686 78.4569C79.561 77.4572 78.5619 76.4485 77.3347 75.664C74.855 74.0788 71.9519 73.1416 68.931 72.9192C67.6671 72.826 65.958 72.9884 64.7668 73.6664C63.5756 72.9884 61.8665 72.826 60.6025 72.9192C57.5816 73.1416 54.6784 74.0788 52.1988 75.664C50.9715 76.4485 49.9726 77.4572 48.9648 78.4569C48.5636 78.855 47.0632 80.6182 46.327 80.2866C46.084 80.1772 46.0344 79.3137 45.9842 79.0811C45.745 77.9736 45.5197 76.8646 45.3139 75.7517C44.3264 70.4127 43.7006 65.0281 42.3386 59.75C41.9423 59.75 41.5946 66.7804 41.5504 67.4355C41.3704 70.0959 41.1602 72.697 41.4288 75.3598C41.8918 79.9531 42.3745 85.7127 46.0865 89.2203C49.4407 92.3898 54.3106 93.0524 58.511 95.053C59.0518 95.3106 59.7692 95.6286 60.5428 95.8892C61.3578 96.4753 62.9741 96.875 64.836 96.875C66.7891 96.875 68.4718 96.4353 69.2428 95.8017C69.9193 95.5597 70.541 95.2823 71.0224 95.053C75.2225 93.052 80.0928 92.3898 83.4469 89.2203C87.159 85.7127 87.6417 79.9531 88.1048 75.3598C88.3733 72.697 88.1631 70.0959 87.9832 67.4355C87.9389 66.7804 87.5912 59.75 87.195 59.75Z" fill="#252E32"/>
<path d="M123.631 50H18.6305V141.5H123.631V50Z" fill="#382B22"/>
</g>
<path fill-rule="evenodd" clip-rule="evenodd" d="M41.9095 59.5625C41.5114 58.659 41.3008 57.7174 41.3008 56.75C41.3008 49.9155 51.8069 44.375 64.7668 44.375C77.7266 44.375 88.2327 49.9155 88.2327 56.75C88.2327 57.7174 88.0221 58.659 87.624 59.5625C85.2092 54.083 75.8921 50 64.7668 50C53.6414 50 44.3243 54.083 41.9095 59.5625Z" fill="#EDECE3"/>
<mask id="mask4_272_4595" style="mask-type:alpha" maskUnits="userSpaceOnUse" x="31" y="24" width="68" height="52">
<path fill-rule="evenodd" clip-rule="evenodd" d="M64.7553 45.0564C74.0751 50.1554 89.0737 54.9167 86.6416 75.875C94.3486 73.76 98.1933 67.9255 98.1757 58.3713C98.1432 40.6806 77.4345 24.125 65.5621 24.125C65.294 24.125 65.0275 24.1361 64.7633 24.158C64.5013 24.1361 64.237 24.125 63.9713 24.125C52.0687 24.125 31.3896 40.6806 31.3576 58.3713C31.34 68.1651 35.1847 73.9997 42.8917 75.875C40.4503 54.9167 55.4241 50.1554 64.7553 45.0564L64.7553 45.0564Z" fill="white"/>
</mask>
<g mask="url(#mask4_272_4595)">
<path fill-rule="evenodd" clip-rule="evenodd" d="M64.7553 45.0564C74.0751 50.1554 89.0737 54.9167 86.6416 75.875C94.3486 73.76 98.1933 67.9255 98.1757 58.3713C98.1432 40.6806 77.4345 24.125 65.5621 24.125C65.294 24.125 65.0275 24.1361 64.7633 24.158C64.5013 24.1361 64.237 24.125 63.9713 24.125C52.0687 24.125 31.3896 40.6806 31.3576 58.3713C31.34 68.1651 35.1847 73.9997 42.8917 75.875C40.4503 54.9167 55.4241 50.1554 64.7553 45.0564L64.7553 45.0564Z" fill="#124C74"/>
<path d="M136.358 24.125H31.3576V129.125H136.358V24.125Z" fill="#4A8DB3"/>
</g>
<path fill-rule="evenodd" clip-rule="evenodd" d="M31.3619 59.0049C31.509 68.4173 35.3522 74.0407 42.8917 75.8752C35.1846 74.1087 31.3399 68.6123 31.3576 59.3863C31.3578 59.2591 31.3593 59.1319 31.3619 59.0049ZM72.978 34.4258C73.274 36.5735 72.7713 39.0837 71.1303 41.8011C66.6946 49.8378 42.7172 50.0017 42.6267 71.6301C42.5357 48.4107 66.6778 48.2677 71.1303 39.7043C72.1921 37.8378 72.7774 36.0634 72.978 34.4258Z" fill="black" fill-opacity="0.16"/>
<g filter="url(#filter0_d_272_4595)">
<path fill-rule="evenodd" clip-rule="evenodd" d="M68.5311 61.0228C70.0884 58.047 73.3388 56 77.0963 56C80.6439 56 83.7395 57.8247 85.3849 60.533C85.4685 60.5115 85.5565 60.5 85.6474 60.5H88.8292C89.3784 60.5 89.8235 60.9197 89.8235 61.4375C89.8235 61.9553 89.3784 62.375 88.8292 62.375H86.2293C86.4975 63.2055 86.6417 64.0869 86.6417 65C86.6417 69.9706 82.3681 74 77.0963 74C71.8245 74 67.5508 69.9706 67.5508 65C67.5508 64.4668 67.6 63.9444 67.6943 63.4367C67.6607 61.7957 66.3233 60.5 64.712 60.5C63.2258 60.5 61.9726 61.6024 61.7606 63.0613C61.906 63.6857 61.9826 64.3344 61.9826 65C61.9826 69.9706 57.709 74 52.4372 74C47.1654 74 42.8917 69.9706 42.8917 65C42.8917 64.0869 43.036 63.2055 43.3041 62.375H40.7042C40.1551 62.375 39.7099 61.9553 39.7099 61.4375C39.7099 60.9197 40.1551 60.5 40.7042 60.5H43.886C43.9769 60.5 44.0649 60.5115 44.1486 60.533C45.794 57.8247 48.8896 56 52.4372 56C56.1568 56 59.3795 58.0059 60.9548 60.9331C61.7809 59.7647 63.1557 59 64.712 59C66.3078 59 67.7127 59.804 68.5311 61.0228ZM52.4372 72.5C56.8303 72.5 60.3917 69.1421 60.3917 65C60.3917 60.8579 56.8303 57.5 52.4372 57.5C48.044 57.5 44.4826 60.8579 44.4826 65C44.4826 69.1421 48.044 72.5 52.4372 72.5ZM77.0963 72.5C81.4894 72.5 85.0508 69.1421 85.0508 65C85.0508 60.8579 81.4894 57.5 77.0963 57.5C72.7031 57.5 69.1417 60.8579 69.1417 65C69.1417 69.1421 72.7031 72.5 77.0963 72.5Z" fill="black"/>
</g>
<path fill-rule="evenodd" clip-rule="evenodd" d="M68.5311 61.0228C70.0884 58.047 73.3388 56 77.0963 56C80.6439 56 83.7395 57.8247 85.3849 60.533C85.4685 60.5115 85.5565 60.5 85.6474 60.5H88.8292C89.3784 60.5 89.8235 60.9197 89.8235 61.4375C89.8235 61.9553 89.3784 62.375 88.8292 62.375H86.2293C86.4975 63.2055 86.6417 64.0869 86.6417 65C86.6417 69.9706 82.3681 74 77.0963 74C71.8245 74 67.5508 69.9706 67.5508 65C67.5508 64.4668 67.6 63.9444 67.6943 63.4367C67.6607 61.7957 66.3233 60.5 64.712 60.5C63.2258 60.5 61.9726 61.6024 61.7606 63.0613C61.906 63.6857 61.9826 64.3344 61.9826 65C61.9826 69.9706 57.709 74 52.4372 74C47.1654 74 42.8917 69.9706 42.8917 65C42.8917 64.0869 43.036 63.2055 43.3041 62.375H40.7042C40.1551 62.375 39.7099 61.9553 39.7099 61.4375C39.7099 60.9197 40.1551 60.5 40.7042 60.5H43.886C43.9769 60.5 44.0649 60.5115 44.1486 60.533C45.794 57.8247 48.8896 56 52.4372 56C56.1568 56 59.3795 58.0059 60.9548 60.9331C61.7809 59.7647 63.1557 59 64.712 59C66.3078 59 67.7127 59.804 68.5311 61.0228ZM52.4372 72.5C56.8303 72.5 60.3917 69.1421 60.3917 65C60.3917 60.8579 56.8303 57.5 52.4372 57.5C48.044 57.5 44.4826 60.8579 44.4826 65C44.4826 69.1421 48.044 72.5 52.4372 72.5ZM77.0963 72.5C81.4894 72.5 85.0508 69.1421 85.0508 65C85.0508 60.8579 81.4894 57.5 77.0963 57.5C72.7031 57.5 69.1417 60.8579 69.1417 65C69.1417 69.1421 72.7031 72.5 77.0963 72.5Z" fill="#252C2F"/>
</g>
<defs>
<filter id="filter0_d_272_4595" x="35.7099" y="54" width="58.1136" height="26" filterUnits="userSpaceOnUse" color-interpolation-filters="sRGB">
<feFlood flood-opacity="0" result="BackgroundImageFix"/>
<feColorMatrix in="SourceAlpha" type="matrix" values="0 0 0 0 0 0 0 0 0 0 0 0 0 0 0 0 0 0 127 0" result="hardAlpha"/>
<feOffset dy="2"/>
<feGaussianBlur stdDeviation="2"/>
<feColorMatrix type="matrix" values="0 0 0 0 0 0 0 0 0 0 0 0 0 0 0 0 0 0 0.1 0"/>
<feBlend mode="normal" in2="BackgroundImageFix" result="effect1_dropShadow_272_4595"/>
<feBlend mode="normal" in="SourceGraphic" in2="effect1_dropShadow_272_4595" result="shape"/>
</filter>
</defs>
</svg>
