<svg width="129" height="128" viewBox="0 0 129 128" fill="none" xmlns="http://www.w3.org/2000/svg">
<mask id="mask0_245_1930" style="mask-type:alpha" maskUnits="userSpaceOnUse" x="25" y="36" width="80" height="92">
<path d="M74.512 90.7291V97.625H76.103C91.9184 97.625 104.739 109.713 104.739 124.625V128H25.1939V124.625C25.1939 109.713 38.0148 97.625 53.8302 97.625H55.4211V90.7291C48.5654 87.6584 43.6374 81.3826 42.8152 73.9555C40.4985 73.6467 38.7166 71.7695 38.7166 69.5V64.25C38.7166 62.0203 40.4366 60.1693 42.6939 59.8122V57.5C42.6939 45.902 52.6657 36.5 64.9666 36.5C77.2675 36.5 87.2393 45.902 87.2393 57.5V59.8122C89.4966 60.1693 91.2166 62.0203 91.2166 64.25V69.5C91.2166 71.7695 89.4346 73.6467 87.118 73.9555C86.2958 81.3826 81.3678 87.6584 74.512 90.7291Z" fill="white"/>
</mask>
<g mask="url(#mask0_245_1930)">
<path d="M74.512 90.7291V97.625H76.103C91.9184 97.625 104.739 109.713 104.739 124.625V128H25.1939V124.625C25.1939 109.713 38.0148 97.625 53.8302 97.625H55.4211V90.7291C48.5654 87.6584 43.6374 81.3826 42.8152 73.9555C40.4985 73.6467 38.7166 71.7695 38.7166 69.5V64.25C38.7166 62.0203 40.4366 60.1693 42.6939 59.8122V57.5C42.6939 45.902 52.6657 36.5 64.9666 36.5C77.2675 36.5 87.2393 45.902 87.2393 57.5V59.8122C89.4966 60.1693 91.2166 62.0203 91.2166 64.25V69.5C91.2166 71.7695 89.4346 73.6467 87.118 73.9555C86.2958 81.3826 81.3678 87.6584 74.512 90.7291Z" fill="#D0C6AC"/>
<path d="M130.194 36.5H25.1939V141.5H130.194V36.5Z" fill="#FFDBB4"/>
<path fill-rule="evenodd" clip-rule="evenodd" d="M87.2391 66.125V74.75C87.2391 86.348 77.2673 95.75 64.9664 95.75C52.6655 95.75 42.6937 86.348 42.6937 74.75V66.125V71.75C42.6937 83.348 52.6655 92.75 64.9664 92.75C77.2673 92.75 87.2391 83.348 87.2391 71.75V66.125Z" fill="black" fill-opacity="0.1"/>
</g>
<mask id="mask1_245_1930" style="mask-type:alpha" maskUnits="userSpaceOnUse" x="25" y="97" width="80" height="31">
<path fill-rule="evenodd" clip-rule="evenodd" d="M78.3395 97.726C93.1095 98.8019 104.739 110.443 104.739 124.645V128H25.1936V124.645C25.1936 110.313 37.036 98.59 51.9976 97.6992C51.8947 98.103 51.8413 98.5167 51.8413 98.9379C51.8413 103.391 57.8066 107 65.1652 107C72.5237 107 78.489 103.391 78.489 98.9379C78.489 98.526 78.438 98.1213 78.3395 97.726L78.3395 97.726Z" fill="white"/>
</mask>
<g mask="url(#mask1_245_1930)">
<path fill-rule="evenodd" clip-rule="evenodd" d="M78.3396 97.726C93.1096 98.8019 104.739 110.443 104.739 124.645V128H25.1937V124.645C25.1937 110.313 37.0361 98.59 51.9977 97.6992C51.8948 98.103 51.8414 98.5167 51.8414 98.9379C51.8414 103.391 57.8067 107 65.1653 107C72.5239 107 78.4892 103.391 78.4892 98.9379C78.4892 98.526 78.4381 98.1213 78.3396 97.726L78.3396 97.726Z" fill="#E6E6E6"/>
<path d="M117.467 86.75H12.4666V128H117.467V86.75Z" fill="#3C4F5C"/>
<path fill-rule="evenodd" clip-rule="evenodd" d="M47.1764 119.8C48.4784 119.591 49.4559 118.468 49.2367 117.255C49.0522 116.234 48.5425 117.127 48.0531 117.575C47.522 118.062 47.0789 118.54 46.2491 118.345C44.8143 118.008 44.3171 116.32 44.7217 115.165C44.9429 114.534 45.4284 114.036 46.1052 113.779C46.8416 113.5 47.3793 113.813 47.9937 114.19C48.1082 114.26 48.6814 114.703 48.7867 114.658C48.9704 114.579 48.8324 113.747 48.8045 113.636C48.6699 113.103 48.3011 112.671 47.7636 112.422C46.4379 111.809 44.7752 112.605 43.9298 113.568C41.9868 115.779 43.5636 120.379 47.1764 119.8Z" fill="white"/>
<path fill-rule="evenodd" clip-rule="evenodd" d="M51.1581 112.64C51.1577 112.642 51.158 112.641 51.1581 112.64ZM50.524 117.465C50.7241 118.768 51.7081 119.903 53.2892 119.849C54.9907 119.79 55.6978 118.312 56.0766 117.041C56.4569 115.767 56.8925 114.16 56.3406 112.882C56.1735 112.495 56.0682 111.989 55.6579 112.308C55.1599 112.695 55.0977 113.822 55.0556 114.348C54.9759 115.341 54.7446 118.088 53.4217 118.452C51.7596 118.911 51.8118 116.26 51.8304 115.461C51.8469 114.75 51.9286 114.061 51.6948 113.367C51.5702 112.998 51.4598 112.452 51.0868 112.754C50.5739 113.17 50.5089 114.19 50.4729 114.752C50.4154 115.654 50.3879 116.568 50.524 117.465Z" fill="white"/>
<path fill-rule="evenodd" clip-rule="evenodd" d="M58.1182 118.53C58.1932 118.684 58.3665 119.055 58.5239 119.159C58.8994 119.407 58.5021 119.425 58.842 119.137C59.1656 118.864 59.2916 118.118 59.3409 117.761C59.4941 116.651 59.2931 115.47 59.3065 114.351C59.7135 115.183 59.9365 116.07 60.2551 116.929C60.4754 117.522 60.8103 118.73 61.7085 118.711C62.6803 118.691 62.7303 117.532 62.8597 116.904C63.043 116.015 63.2455 115.134 63.5261 114.265C63.5627 115.731 62.9585 118.388 64.3646 119.485C64.3701 119.49 64.9343 117.929 64.9479 117.833C65.0369 117.199 64.9812 116.541 64.9907 115.903C65.0109 114.554 65.276 112.901 64.8716 111.588C64.7408 111.163 64.4836 110.739 63.9132 110.75C63.1873 110.765 63.0251 111.495 62.8401 111.987C62.3307 113.342 61.8676 114.696 61.505 116.09C61.2869 115.46 59.3816 109.932 58.0094 112.002C57.7886 112.335 57.8839 112.834 57.8748 113.2C57.8575 113.905 57.8133 114.609 57.7971 115.313C57.7726 116.379 57.634 117.528 58.1182 118.53Z" fill="white"/>
<path fill-rule="evenodd" clip-rule="evenodd" d="M67.7583 113.643C68.0445 113.592 70.0392 112.995 69.955 113.592C69.8663 114.22 68.1121 114.833 67.6415 115.045C67.6407 114.592 67.5486 114.13 67.3859 113.708C67.5099 113.686 67.6341 113.665 67.7583 113.643ZM70.0318 113.403C70.032 113.403 70.0213 113.39 70.0318 113.403ZM70.0805 116.531C70.9843 116.989 70.5925 117.812 69.911 118.259C69.6531 118.428 67.3139 118.935 67.3205 118.883C67.3208 118.884 67.3204 118.884 67.3193 118.884C67.3907 118.249 67.2168 117.003 67.7168 116.627C68.2356 116.237 69.5067 116.324 70.0805 116.531ZM70.1052 113.533C70.1087 113.541 70.1056 113.534 70.1052 113.533ZM66.1372 119.849C66.226 120.056 66.4791 120.566 66.7599 120.579C67.1022 120.594 67.0757 120.187 67.1293 119.938C68.4981 120.583 70.5093 119.92 71.4675 118.801C72.5757 117.507 72.0036 115.7 70.4418 115.147C71.2819 114.514 72.043 113.122 70.9409 112.338C70.0675 111.717 68.6229 111.683 67.7102 112.225C66.6222 112.871 66.179 114.412 66.0836 115.602C65.9819 116.87 65.6229 118.649 66.1372 119.849Z" fill="white"/>
<path fill-rule="evenodd" clip-rule="evenodd" d="M73.3385 116.703C73.3676 117.479 73.2786 118.31 73.4704 119.067C73.5384 119.336 73.6426 119.634 73.7727 119.878C74.0156 120.334 73.896 120.272 74.1832 120.013C75.047 119.232 74.6638 116.798 74.643 115.795C74.6267 115.015 74.6685 114.19 74.4392 113.439C74.3748 113.228 73.9927 112.183 73.781 112.207C73.4563 112.244 73.2338 113.681 73.215 113.967C73.1562 114.866 73.3048 115.803 73.3385 116.703Z" fill="white"/>
<path fill-rule="evenodd" clip-rule="evenodd" d="M80.775 116.913C80.1457 116.862 79.3346 116.941 78.74 117.122C79.0171 116.403 79.3264 115.602 79.6302 114.951C79.8187 114.542 80.0167 114.137 80.2241 113.736C80.7325 114.743 81.0163 115.921 81.3505 116.986C81.16 116.953 80.9681 116.929 80.775 116.913ZM82.9388 117.185C82.6494 116.143 82.3108 115.11 81.9739 114.08C81.76 113.426 81.5244 112.613 80.9399 112.142C79.2838 110.807 78.3439 114.336 77.9378 115.229C77.5461 116.09 77.0562 116.967 76.8044 117.872C76.6809 118.316 76.6417 118.787 76.707 119.242C76.7888 119.811 76.7054 119.895 77.2216 119.585C77.6195 119.346 77.7841 118.913 78.1075 118.624C78.1647 118.573 78.1941 118.373 78.2623 118.341C78.3376 118.305 78.8607 118.435 78.9845 118.444C79.8474 118.5 80.8587 118.362 81.655 118.048C81.7367 118.364 82.3024 120.284 82.8392 120.213C83.0768 120.182 83.2232 119.064 83.2338 118.887C83.2685 118.304 83.0939 117.744 82.9388 117.185Z" fill="white"/>
<path fill-rule="evenodd" clip-rule="evenodd" d="M86.5642 112.036C86.4595 111.585 86.2404 110.802 85.8316 111.244C85.2785 111.843 85.3979 113.184 85.3896 113.936C85.3837 114.48 84.7726 118.459 85.6111 118.392C85.5753 118.392 85.9471 117.766 86.0011 117.671C86.3249 117.1 86.4507 116.558 86.5293 115.9C86.6744 114.687 86.8408 113.234 86.5642 112.036Z" fill="white"/>
<path fill-rule="evenodd" clip-rule="evenodd" d="M86.1117 119.862C85.2211 118.839 83.6015 120.109 84.1066 121.127C84.7942 122.515 87.0226 120.917 86.1117 119.862Z" fill="white"/>
<path fill-rule="evenodd" clip-rule="evenodd" d="M80.835 121.454C79.6848 121.177 78.3304 121.364 77.1563 121.397C75.9308 121.432 74.7064 121.496 73.481 121.531C70.869 121.605 68.2614 121.565 65.6492 121.545C60.696 121.507 55.7317 121.803 50.781 121.608C49.7181 121.566 48.5755 121.341 47.5204 121.53C47.2312 121.582 46.3237 121.733 46.1964 122.005C46.0626 122.289 46.7541 122.588 47.1236 122.738C48.0868 123.129 49.2429 123.059 50.2658 123.099C51.4311 123.144 52.6069 123.121 53.7729 123.094C58.5758 122.983 63.3538 122.59 68.1631 122.657C70.9372 122.696 73.7061 122.671 76.4803 122.657C77.8004 122.651 79.2641 122.855 80.5658 122.634C80.7854 122.597 82.0625 122.314 82.0802 121.946C82.0883 121.776 80.9642 121.485 80.835 121.454Z" fill="white"/>
</g>
<path fill-rule="evenodd" clip-rule="evenodd" d="M59.3985 78.875C59.3985 81.7745 61.8915 84.125 64.9667 84.125C68.0419 84.125 70.5349 81.7745 70.5349 78.875" fill="black" fill-opacity="0.7"/>
<path fill-rule="evenodd" clip-rule="evenodd" d="M60.1938 71.75C60.1938 73.4069 62.3306 74.75 64.9665 74.75C67.6024 74.75 69.7392 73.4069 69.7392 71.75" fill="black" fill-opacity="0.16"/>
<path d="M54.6258 67.25C55.9438 67.25 57.0122 66.2426 57.0122 65C57.0122 63.7574 55.9438 62.75 54.6258 62.75C53.3079 62.75 52.2395 63.7574 52.2395 65C52.2395 66.2426 53.3079 67.25 54.6258 67.25Z" fill="black" fill-opacity="0.6"/>
<path d="M75.3077 67.25C76.6257 67.25 77.6941 66.2426 77.6941 65C77.6941 63.7574 76.6257 62.75 75.3077 62.75C73.9898 62.75 72.9214 63.7574 72.9214 65C72.9214 66.2426 73.9898 67.25 75.3077 67.25Z" fill="black" fill-opacity="0.6"/>
<path d="M48.9104 60.1864C50.4675 58.1206 54.7362 56.9622 58.4132 57.8136C58.8399 57.9124 59.2707 57.6664 59.3754 57.2641C59.4802 56.8618 59.2193 56.4557 58.7927 56.3569C54.5224 55.3682 49.5794 56.7095 47.6136 59.3174C47.3592 59.6551 47.4431 60.1233 47.8012 60.3633C48.1593 60.6032 48.6559 60.524 48.9104 60.1864Z" fill="black" fill-opacity="0.6"/>
<path d="M81.023 60.1864C79.4659 58.1206 75.1972 56.9622 71.5202 57.8136C71.0935 57.9124 70.6627 57.6664 70.558 57.2641C70.4532 56.8618 70.7141 56.4557 71.1408 56.3569C75.411 55.3682 80.3541 56.7095 82.3198 59.3174C82.5743 59.6551 82.4903 60.1233 82.1322 60.3633C81.7741 60.6032 81.2775 60.524 81.023 60.1864Z" fill="black" fill-opacity="0.6"/>
<mask id="mask2_245_1930" style="mask-type:alpha" maskUnits="userSpaceOnUse" x="12" y="23" width="106" height="105">
<path d="M117.467 23H12.4667V128H117.467V23Z" fill="white"/>
</mask>
<g mask="url(#mask2_245_1930)">
<mask id="mask3_245_1930" style="mask-type:alpha" maskUnits="userSpaceOnUse" x="32" y="30" width="68" height="98">
<path fill-rule="evenodd" clip-rule="evenodd" d="M38.336 51.9031C40.5781 39.9522 51.6482 30.875 64.9669 30.875C79.9037 30.875 92.0124 42.2917 92.0124 56.375V67.9066C92.3605 71.5829 92.6861 74.1583 92.9893 75.6329C93.537 78.2968 95.254 77.4183 95.254 81.2076C95.254 84.9969 93.5325 86.2701 93.525 89.6395C93.5176 93.009 99.6489 95.6886 99.6489 99.966C99.6489 104.243 96.8352 124.428 68.7762 124.428C62.7823 124.428 57.6768 122.821 53.4596 119.605C53.7312 122.039 53.9874 124.837 54.2283 128H35.5351C35.906 119.086 32.6379 114.101 32.6379 104.167C32.6379 94.2331 38.0617 79.7853 37.9215 76.25C37.9294 76.0316 37.9376 75.7732 37.9462 75.4745C37.9298 75.1099 37.9215 74.7434 37.9215 74.375V56.375C37.9215 54.884 38.0572 53.423 38.3176 52.0021C38.3181 51.9598 38.3187 51.9174 38.3192 51.875C38.3248 51.8844 38.3304 51.8937 38.336 51.9031ZM64.7681 42.875C52.7967 42.875 43.0919 52.0252 43.0919 63.3125V71.9375C43.0919 83.2248 52.7967 92.375 64.7681 92.375H65.1658C77.1372 92.375 86.8419 83.2248 86.8419 71.9375V63.3125C86.8419 52.0252 77.1372 42.875 65.1658 42.875H64.7681Z" fill="white"/>
</mask>
<g mask="url(#mask3_245_1930)">
<path fill-rule="evenodd" clip-rule="evenodd" d="M38.3358 51.9031C40.578 39.9522 51.6481 30.875 64.9668 30.875C79.9036 30.875 92.0123 42.2917 92.0123 56.375V67.9066C92.3603 71.5829 92.686 74.1583 92.9892 75.6329C93.5369 78.2968 95.2538 77.4183 95.2538 81.2076C95.2538 84.9969 93.5324 86.2701 93.5249 89.6395C93.5174 93.009 99.6488 95.6886 99.6488 99.966C99.6488 104.243 96.8351 124.428 68.7761 124.428C62.7822 124.428 57.6767 122.821 53.4595 119.605C53.7311 122.039 53.9873 124.837 54.2282 128H35.535C35.9058 119.086 32.6378 114.101 32.6378 104.167C32.6378 94.2331 38.0616 79.7853 37.9213 76.25C37.9293 76.0316 37.9375 75.7732 37.946 75.4745C37.9296 75.1099 37.9213 74.7434 37.9213 74.375V56.375C37.9213 54.884 38.0571 53.423 38.3175 52.0021C38.318 51.9598 38.3185 51.9174 38.3191 51.875C38.3247 51.8844 38.3303 51.8937 38.3358 51.9031ZM64.7679 42.875C52.7965 42.875 43.0918 52.0252 43.0918 63.3125V71.9375C43.0918 83.2248 52.7965 92.375 64.7679 92.375H65.1657C77.1371 92.375 86.8418 83.2248 86.8418 71.9375V63.3125C86.8418 52.0252 77.1371 42.875 65.1657 42.875H64.7679Z" fill="#3B6BAD"/>
<path d="M117.069 23H12.0689V128H117.069V23Z" fill="#D4DBE3"/>
<path fill-rule="evenodd" clip-rule="evenodd" d="M40.7352 62.3599C40.4547 60.9676 40.3079 59.5311 40.3079 58.0625C40.3079 45.3254 51.3481 35 64.967 35C78.5858 35 89.6261 45.3254 89.6261 58.0625C89.6261 59.5311 89.4793 60.9676 89.1987 62.3599C88.5686 50.256 77.9607 40.625 64.967 40.625C51.9733 40.625 41.3653 50.256 40.7352 62.3599V62.3599Z" fill="white" fill-opacity="0.5"/>
<path opacity="0.9" fill-rule="evenodd" clip-rule="evenodd" d="M86.8136 62.2617C87.093 63.5713 87.2395 64.9262 87.2395 66.3134V74.9384C87.2395 86.2258 77.5348 95.3759 65.5634 95.3759H64.3702C52.3988 95.3759 42.6941 86.2258 42.6941 74.9384V66.3134C42.6941 64.9262 42.8407 63.5713 43.12 62.2617C43.1013 62.6101 43.0918 62.9607 43.0918 63.3134V71.9384C43.0918 83.2258 52.7966 92.3759 64.768 92.3759H65.1657C77.1371 92.3759 86.8418 83.2258 86.8418 71.9384V63.3134C86.8418 62.9607 86.8323 62.6101 86.8136 62.2617ZM57.4763 100.624C60.0554 102.494 66.0262 103.142 72.6845 102.035C79.3429 100.928 84.7187 98.3935 86.464 95.805C86.4911 95.8996 86.5139 95.9955 86.532 96.0927C87.2119 99.7284 81.2678 103.755 73.2555 105.088C65.2431 106.42 58.1967 104.552 57.5168 100.917C57.4986 100.819 57.4851 100.722 57.4764 100.624H57.4763ZM62.1965 111.471C65.4549 113.592 71.8959 113.692 78.5308 111.415C85.1657 109.139 90.0311 105.158 91.0817 101.559C91.1385 101.679 91.191 101.802 91.2391 101.926C93.0395 106.59 88.0267 112.592 80.0426 115.332C72.0586 118.072 64.1267 116.512 62.3263 111.848C62.2782 111.724 62.235 111.598 62.1965 111.471H62.1965Z" fill="black" fill-opacity="0.16"/>
</g>
</g>
</svg>
