<svg width="634" height="93" viewBox="0 0 634 93" fill="none" xmlns="http://www.w3.org/2000/svg">
<g opacity="0.8">
<g opacity="0.8">
<path d="M100.224 90.1872L103.222 87.1895" stroke="#616C7F" stroke-width="0.627694" stroke-linecap="round" stroke-linejoin="round"/>
<path d="M102.185 90.1865L103.43 88.9512" stroke="#616C7F" stroke-width="0.627694" stroke-linecap="round" stroke-linejoin="round"/>
<path d="M91.5601 92.6526V85.25" stroke="#616C7F" stroke-width="0.627694" stroke-linecap="round" stroke-linejoin="round"/>
<path d="M105.176 85.25V92.6526" stroke="#616C7F" stroke-width="0.627694" stroke-linecap="round" stroke-linejoin="round"/>
<path d="M95.8486 85.25V92.6312" stroke="#616C7F" stroke-width="0.627694" stroke-linecap="round" stroke-linejoin="round"/>
<path d="M94.3696 87.6445V88.6414" stroke="#616C7F" stroke-width="0.627694" stroke-linecap="round" stroke-linejoin="round"/>
<path d="M106.01 81.2559H90.6611" stroke="#616C7F" stroke-width="0.627694" stroke-linecap="round" stroke-linejoin="round"/>
<path d="M97.0122 79.8366L97.1267 77.9883" stroke="#616C7F" stroke-width="0.627694" stroke-linecap="round" stroke-linejoin="round"/>
<path d="M94.3198 79.8366L94.7563 77.9883" stroke="#616C7F" stroke-width="0.627694" stroke-linecap="round" stroke-linejoin="round"/>
<path d="M99.6598 79.8366L99.543 77.9883" stroke="#616C7F" stroke-width="0.627694" stroke-linecap="round" stroke-linejoin="round"/>
<path d="M102.351 79.8366L101.915 77.9883" stroke="#616C7F" stroke-width="0.627694" stroke-linecap="round" stroke-linejoin="round"/>
<path d="M90.2012 92.6504H106.535" stroke="#616C7F" stroke-width="0.627694" stroke-linecap="round" stroke-linejoin="round"/>
<path d="M104.196 77.959H92.5792L90.6665 81.2573H106.07L104.196 77.959Z" stroke="#616C7F" stroke-width="0.627694" stroke-linecap="round" stroke-linejoin="round"/>
<path d="M90.6669 81.2559V82.5246C90.6582 82.9367 90.8101 83.3361 91.0905 83.6382C91.3709 83.9404 91.7577 84.1217 92.1693 84.1439C92.5545 84.1503 92.9279 84.0108 93.2145 83.7534C93.5012 83.4959 93.6798 83.1396 93.7147 82.7559H93.729" stroke="#9EA6B5" stroke-width="0.627694" stroke-linecap="round" stroke-linejoin="round"/>
<path d="M132.763 72.4883H118.778" stroke="#616C7F" stroke-width="0.627694" stroke-linecap="round" stroke-linejoin="round"/>
<path d="M124.042 83.4551H133.696" stroke="#616C7F" stroke-width="0.627694" stroke-linecap="round" stroke-linejoin="round"/>
<path d="M113.752 92.4531V83.4562L118.778 72.4883L123.916 83.4562V92.4531" fill="#9EA6B5"/>
<path d="M113.752 92.4531V83.4562L118.778 72.4883L123.916 83.4562V92.4531" stroke="#9EA6B5" stroke-width="0.627694" stroke-linecap="round" stroke-linejoin="round"/>
<path d="M145.208 79.5935C146.103 85.1967 142.567 87.4355 139.45 87.3602C136.332 87.2848 132.955 84.6987 133.704 79.6605C134.257 75.8524 136.382 68.8809 139.483 68.8809C142.584 68.8809 144.555 75.5302 145.208 79.5935Z" stroke="#616C7F" stroke-width="0.627694" stroke-linecap="round" stroke-linejoin="round"/>
<path d="M139.374 83.7266L135.93 80.6426" stroke="#616C7F" stroke-width="0.627694" stroke-linecap="round" stroke-linejoin="round"/>
<path d="M139.316 79.3429L137.24 77.4766" stroke="#616C7F" stroke-width="0.627694" stroke-linecap="round" stroke-linejoin="round"/>
<path d="M139.559 83.7266L143.003 80.6426" stroke="#616C7F" stroke-width="0.627694" stroke-linecap="round" stroke-linejoin="round"/>
<path d="M139.618 79.3429L141.697 77.4766" stroke="#616C7F" stroke-width="0.627694" stroke-linecap="round" stroke-linejoin="round"/>
<path d="M139.47 75.2832V92.4527" stroke="#616C7F" stroke-width="0.627694" stroke-linecap="round" stroke-linejoin="round"/>
<path d="M117.055 92.5454V86.8711H120.273V92.5454" fill="white"/>
<path d="M117.055 92.5454V86.8711H120.273V92.5454" stroke="white" stroke-width="0.627694" stroke-linecap="round" stroke-linejoin="round"/>
<path d="M111.137 92.6543H142.359" stroke="#616C7F" stroke-width="0.627694" stroke-linecap="round" stroke-linejoin="round"/>
<g clip-path="url(#clip0_161_25295)">
<path d="M313.502 80.2974V78.8594H311.39V80.2974" stroke="#616C7F" stroke-width="0.627694" stroke-linecap="round" stroke-linejoin="round"/>
<path d="M318.784 80.2969H310.334C309.601 80.3186 308.905 80.6332 308.394 81.1741C307.883 81.7149 307.597 82.4393 307.597 83.1934C307.597 83.9475 307.883 84.6719 308.394 85.2127C308.905 85.7535 309.601 86.0682 310.334 86.0899H318.784C319.518 86.0682 320.214 85.7535 320.725 85.2127C321.236 84.6719 321.522 83.9475 321.522 83.1934C321.522 82.4393 321.236 81.7149 320.725 81.1741C320.214 80.6332 319.518 80.3186 318.784 80.2969Z" fill="#9EA6B5" stroke="#9EA6B5" stroke-width="0.313847"/>
<path d="M302.235 90.4342C302.235 90.7186 302.317 90.9966 302.471 91.2331C302.625 91.4696 302.843 91.6539 303.099 91.7628C303.354 91.8716 303.636 91.9001 303.907 91.8446C304.178 91.7891 304.427 91.6521 304.623 91.451C304.819 91.2499 304.952 90.9937 305.006 90.7147C305.06 90.4358 305.032 90.1466 304.926 89.8838C304.82 89.6211 304.641 89.3965 304.411 89.2385C304.181 89.0804 303.911 88.9961 303.634 88.9961C303.263 88.9961 302.907 89.1476 302.645 89.4173C302.383 89.687 302.235 90.0528 302.235 90.4342Z" stroke="#616C7F" stroke-width="0.627694" stroke-linecap="round" stroke-linejoin="round"/>
<path d="M302.236 90.4346H299.772V86.8203L302.588 82.832H306.11V88.625" stroke="#616C7F" stroke-width="0.627694" stroke-linecap="round" stroke-linejoin="round"/>
<path d="M304.7 84.2793V87.177H301.532" stroke="#616C7F" stroke-width="0.627694" stroke-linecap="round" stroke-linejoin="round"/>
<path d="M319.841 90.4324H321.601V87.5371H306.11" stroke="#616C7F" stroke-width="0.627694" stroke-linecap="round" stroke-linejoin="round"/>
<path d="M317.023 90.4342C317.023 90.7186 317.105 90.9966 317.259 91.2331C317.412 91.4696 317.631 91.6539 317.886 91.7628C318.142 91.8716 318.423 91.9001 318.695 91.8446C318.966 91.7891 319.215 91.6521 319.411 91.451C319.606 91.2499 319.739 90.9937 319.793 90.7147C319.847 90.4358 319.82 90.1466 319.714 89.8838C319.608 89.6211 319.429 89.3965 319.199 89.2385C318.969 89.0804 318.698 88.9961 318.422 88.9961C318.051 88.9961 317.695 89.1476 317.433 89.4173C317.17 89.687 317.023 90.0528 317.023 90.4342Z" stroke="#616C7F" stroke-width="0.627694" stroke-linecap="round" stroke-linejoin="round"/>
<path d="M312.799 90.4342C312.799 90.7186 312.881 90.9966 313.035 91.2331C313.188 91.4696 313.407 91.6539 313.662 91.7628C313.918 91.8716 314.199 91.9001 314.47 91.8446C314.742 91.7891 314.991 91.6521 315.187 91.451C315.382 91.2499 315.515 90.9937 315.569 90.7147C315.623 90.4358 315.596 90.1466 315.49 89.8838C315.384 89.6211 315.205 89.3965 314.975 89.2385C314.745 89.0804 314.474 88.9961 314.198 88.9961C313.827 88.9961 313.471 89.1476 313.208 89.4173C312.946 89.687 312.799 90.0528 312.799 90.4342V90.4342Z" stroke="#616C7F" stroke-width="0.627694" stroke-linecap="round" stroke-linejoin="round"/>
<path d="M317.022 90.4336H315.623" stroke="#616C7F" stroke-width="0.627694" stroke-linecap="round" stroke-linejoin="round"/>
<path d="M312.798 90.4336H305.052" stroke="#616C7F" stroke-width="0.627694" stroke-linecap="round" stroke-linejoin="round"/>
<path d="M318.079 84.6404V79.9355" stroke="#616C7F" stroke-width="0.627694" stroke-linecap="round" stroke-linejoin="round"/>
<path d="M315.967 84.6404V79.9355" stroke="#616C7F" stroke-width="0.627694" stroke-linecap="round" stroke-linejoin="round"/>
<path d="M319.137 78.8496C318.998 78.8493 318.861 78.8771 318.732 78.9316C318.604 78.986 318.487 79.0659 318.389 79.1668C318.29 79.2676 318.212 79.3874 318.159 79.5193C318.106 79.6512 318.079 79.7926 318.079 79.9354" stroke="#616C7F" stroke-width="0.627694" stroke-linecap="round" stroke-linejoin="round"/>
<path d="M317.023 78.8496C316.743 78.8496 316.475 78.964 316.277 79.1676C316.079 79.3712 315.967 79.6474 315.967 79.9354" stroke="#616C7F" stroke-width="0.627694" stroke-linecap="round" stroke-linejoin="round"/>
<path d="M318.079 82.1074H315.967" stroke="#616C7F" stroke-width="0.627694" stroke-linecap="round" stroke-linejoin="round"/>
<path d="M318.079 83.918H315.967" stroke="#616C7F" stroke-width="0.627694" stroke-linecap="round" stroke-linejoin="round"/>
</g>
<g clip-path="url(#clip1_161_25295)">
<path d="M33.0786 92.4807V43.0879" stroke="#616C7F" stroke-width="0.627694" stroke-linecap="round" stroke-linejoin="round"/>
<path d="M43.8788 2.69922L34.9478 30.8589" stroke="#616C7F" stroke-width="0.627694" stroke-linecap="round" stroke-linejoin="round"/>
<path d="M37.1499 41.3438L55.024 63.7831" stroke="#616C7F" stroke-width="0.627694" stroke-linecap="round" stroke-linejoin="round"/>
<path d="M0.898438 43.6972L27.129 37.75" stroke="#616C7F" stroke-width="0.627694" stroke-linecap="round" stroke-linejoin="round"/>
<path d="M36.2758 36.6515C36.2782 37.2855 36.0917 37.9059 35.7401 38.4341C35.3885 38.9622 34.8875 39.3743 34.3007 39.618C33.714 39.8617 33.0679 39.9261 32.4444 39.803C31.8209 39.6799 31.2481 39.3748 30.7986 38.9265C30.3492 38.4782 30.0434 37.9068 29.92 37.2849C29.7965 36.6629 29.8611 36.0184 30.1054 35.4331C30.3497 34.8478 30.7628 34.3481 31.2923 33.9973C31.8218 33.6466 32.4437 33.4606 33.0793 33.4629C33.9261 33.4661 34.7373 33.803 35.3361 34.4003C35.9349 34.9976 36.2727 35.8068 36.2758 36.6515Z" fill="#9EA6B5" stroke="#9EA6B5" stroke-width="0.418463"/>
<path d="M76.1425 56.3329C76.1472 56.9674 75.9628 57.589 75.6126 58.1187C75.2624 58.6484 74.7623 59.0623 74.1757 59.3079C73.5892 59.5534 72.9427 59.6195 72.3184 59.4978C71.6941 59.376 71.1202 59.0719 70.6696 58.6241C70.219 58.1763 69.9119 57.6049 69.7875 56.9827C69.6631 56.3604 69.727 55.7153 69.9709 55.1293C70.2149 54.5433 70.628 54.0428 71.1577 53.6915C71.6874 53.3402 72.3099 53.1539 72.946 53.1563C73.7917 53.1563 74.6029 53.4906 75.202 54.086C75.8011 54.6813 76.1393 55.4893 76.1425 56.3329Z" fill="#9EA6B5" stroke="#9EA6B5" stroke-width="0.418463"/>
<path d="M63.6196 32.1953L70.4077 50.5027" stroke="#616C7F" stroke-width="0.627694" stroke-linecap="round" stroke-linejoin="round"/>
<path d="M68.9714 61.4199L56.7002 78.4614" stroke="#616C7F" stroke-width="0.627694" stroke-linecap="round" stroke-linejoin="round"/>
<path d="M79.1357 57.9434L98.2789 62.0395" stroke="#616C7F" stroke-width="0.627694" stroke-linecap="round" stroke-linejoin="round"/>
<path d="M72.9336 61.7891V92.4805" stroke="#616C7F" stroke-width="0.627694" stroke-linecap="round" stroke-linejoin="round"/>
</g>
<path d="M426.798 73.2878L437.561 66.8682V73.74L448.318 66.416V89.145" stroke="#616C7F" stroke-width="0.627694" stroke-linecap="round" stroke-linejoin="round"/>
<path d="M417.36 89.2922L419.18 59.623H425.888L427.707 89.2291" stroke="#616C7F" stroke-width="0.627694" stroke-linecap="round" stroke-linejoin="round"/>
<path d="M440.61 71.5101L441.299 59.6172H445.327L445.868 67.9822" stroke="#616C7F" stroke-width="0.627694" stroke-linecap="round" stroke-linejoin="round"/>
<path d="M429.558 71.5101L430.247 59.6172H434.269L434.816 68.3607" stroke="#616C7F" stroke-width="0.627694" stroke-linecap="round" stroke-linejoin="round"/>
<path d="M437.74 82.2886C437.74 82.2886 437.74 76.0477 444.049 76.9362C444.049 78.6165 443.382 80.228 442.194 81.4161C441.006 82.6043 439.394 83.2717 437.714 83.2717C436.034 83.2717 434.422 82.6043 433.234 81.4161C432.046 80.228 431.378 78.6165 431.378 76.9362C437.745 76.0477 437.745 82.2886 437.745 82.2886V85.8533" fill="#9EA6B5"/>
<path d="M437.74 82.2886C437.74 82.2886 437.74 76.0477 444.049 76.9362C444.049 78.6165 443.382 80.228 442.194 81.4161C441.006 82.6043 439.394 83.2717 437.714 83.2717C436.034 83.2717 434.422 82.6043 433.234 81.4161C432.046 80.228 431.378 78.6165 431.378 76.9362C437.745 76.0477 437.745 82.2886 437.745 82.2886V85.8533" stroke="#9EA6B5" stroke-width="0.627694"/>
<path d="M449.406 89.4746H416.372V92.6503H449.406V89.4746Z" fill="#616C7F" stroke="#616C7F" stroke-width="0.627694" stroke-linecap="round" stroke-linejoin="round"/>
<path d="M386.893 73.4668H384.68L382.661 92.6546" stroke="#616C7F" stroke-width="0.627694" stroke-linecap="round" stroke-linejoin="round"/>
<path d="M386.893 73.4668H389.106L391.12 92.6546" stroke="#616C7F" stroke-width="0.627694" stroke-linecap="round" stroke-linejoin="round"/>
<path d="M395.532 68.7773L393.082 92.6533" stroke="#616C7F" stroke-width="0.627694" stroke-linecap="round" stroke-linejoin="round"/>
<path d="M399.89 67.7637L401.383 81.9555" stroke="#616C7F" stroke-width="0.627694" stroke-linecap="round" stroke-linejoin="round"/>
<path d="M406.205 65.7207L404.539 81.9566" stroke="#616C7F" stroke-width="0.627694" stroke-linecap="round" stroke-linejoin="round"/>
<path d="M410.605 64.043L412.487 81.9566" stroke="#616C7F" stroke-width="0.627694" stroke-linecap="round" stroke-linejoin="round"/>
<path d="M389.007 71.035C389.549 70.6719 389.993 70.1787 390.301 69.5997C390.608 69.0206 390.769 68.3737 390.768 67.7167C390.77 67.7009 390.77 67.6847 390.768 67.6689L391.041 67.6424C391.356 67.7489 391.683 67.8149 392.014 67.8388C392.721 67.8804 393.427 67.7342 394.06 67.4146C394.694 67.0951 395.234 66.6135 395.626 66.0177C396.234 66.3812 396.94 66.5424 397.644 66.4785C398.348 66.4147 399.014 66.1291 399.548 65.662C400.053 65.8987 400.597 66.0391 401.152 66.0761C402.204 66.1391 403.244 65.8176 404.081 65.1703C404.918 64.523 405.496 63.5931 405.71 62.5507C406.657 63.0027 407.733 63.0975 408.743 62.818C409.753 62.5384 410.631 61.9029 411.217 61.0266C411.804 60.1502 412.06 59.0908 411.94 58.0401C411.82 56.9894 411.332 56.0168 410.563 55.2982C410.434 54.5654 410.124 53.8771 409.662 53.2971C409.2 52.7171 408.601 52.2641 407.92 51.9799C407.239 51.6958 406.497 51.5896 405.765 51.6713C405.032 51.7529 404.332 52.0198 403.728 52.4471C403.327 52.2615 402.896 52.1483 402.456 52.1126C401.958 52.0829 401.459 52.1555 400.99 52.3262C400.521 52.4968 400.091 52.762 399.727 53.1055C399.159 52.8809 398.559 52.7501 397.95 52.7179C396.833 52.6478 395.72 52.9064 394.745 53.4624C393.771 54.0184 392.978 54.848 392.461 55.8504C391.844 55.8983 391.252 56.1141 390.748 56.4751C390.243 56.836 389.845 57.3284 389.595 57.8998C388.46 58.0985 387.431 58.6951 386.688 59.5847C385.946 60.4742 385.538 61.5997 385.536 62.7631C385.54 63.1604 385.589 63.556 385.684 63.9418C384.955 64.1671 384.306 64.6016 383.817 65.1924C383.328 65.7831 383.02 66.5047 382.93 67.2692C382.839 68.0337 382.971 68.8083 383.309 69.4985C383.647 70.1888 384.176 70.7651 384.832 71.1571" fill="#9EA6B5"/>
<path d="M381.23 92.6543H417.282" stroke="#616C7F" stroke-width="0.627694" stroke-linecap="round" stroke-linejoin="round"/>
<path d="M415.978 81.9551H397.766V92.6533H415.978V81.9551Z" stroke="#616C7F" stroke-width="0.627694" stroke-linecap="round" stroke-linejoin="round"/>
<path d="M384.249 77.5664H389.538" stroke="#616C7F" stroke-width="0.627694" stroke-linecap="round" stroke-linejoin="round"/>
<path d="M384.249 82.8164H389.538" stroke="#616C7F" stroke-width="0.627694" stroke-linecap="round" stroke-linejoin="round"/>
<path d="M383.445 88.0664H390.343" stroke="#616C7F" stroke-width="0.627694" stroke-linecap="round" stroke-linejoin="round"/>
<path d="M400.92 84.6641H402.729" stroke="#616C7F" stroke-width="0.627694" stroke-linecap="round" stroke-linejoin="round"/>
<path d="M405.968 84.6641H407.777" stroke="#616C7F" stroke-width="0.627694" stroke-linecap="round" stroke-linejoin="round"/>
<path d="M411.015 84.6641H412.823" stroke="#616C7F" stroke-width="0.627694" stroke-linecap="round" stroke-linejoin="round"/>
<path d="M400.92 87.3086H402.729" stroke="#616C7F" stroke-width="0.627694" stroke-linecap="round" stroke-linejoin="round"/>
<path d="M405.968 87.3086H407.777" stroke="#616C7F" stroke-width="0.627694" stroke-linecap="round" stroke-linejoin="round"/>
<path d="M411.015 87.3086H412.823" stroke="#616C7F" stroke-width="0.627694" stroke-linecap="round" stroke-linejoin="round"/>
<path d="M400.92 89.9512H402.729" stroke="#616C7F" stroke-width="0.627694" stroke-linecap="round" stroke-linejoin="round"/>
<path d="M405.968 89.9512H407.777" stroke="#616C7F" stroke-width="0.627694" stroke-linecap="round" stroke-linejoin="round"/>
<path d="M411.015 89.9512H412.823" stroke="#616C7F" stroke-width="0.627694" stroke-linecap="round" stroke-linejoin="round"/>
<path d="M343.533 61.9321C345.888 61.5063 348.806 61.2539 351.961 61.2539C359.779 61.2539 366.114 62.7944 366.114 64.6977V92.4688" stroke="#616C7F" stroke-width="0.627694" stroke-linecap="round" stroke-linejoin="round"/>
<path d="M343.564 58.2617V92.4735" stroke="#9EA6B5" stroke-width="0.627694" stroke-linecap="round" stroke-linejoin="round"/>
<path d="M350.29 58.2617V92.4735" stroke="#9EA6B5" stroke-width="0.627694" stroke-linecap="round" stroke-linejoin="round"/>
<path d="M346.226 66.7383H349.869" stroke="#9EA6B5" stroke-width="0.627694" stroke-linecap="round" stroke-linejoin="round"/>
<path d="M346.226 71.9219H349.869" stroke="#9EA6B5" stroke-width="0.627694" stroke-linecap="round" stroke-linejoin="round"/>
<path d="M346.226 77.1055H349.869" stroke="#9EA6B5" stroke-width="0.627694" stroke-linecap="round" stroke-linejoin="round"/>
<path d="M346.226 82.2891H349.869" stroke="#9EA6B5" stroke-width="0.627694" stroke-linecap="round" stroke-linejoin="round"/>
<path d="M346.226 87.4785H349.869" stroke="#9EA6B5" stroke-width="0.627694" stroke-linecap="round" stroke-linejoin="round"/>
<path d="M337.813 92.4729V64.7018C337.813 63.95 338.796 63.2612 340.468 62.6934" stroke="#616C7F" stroke-width="0.627694" stroke-linecap="round" stroke-linejoin="round"/>
<path d="M369.254 71.0703C375.027 71.1334 379.627 72.2953 379.627 73.7202V92.4744" stroke="#616C7F" stroke-width="0.627694" stroke-linecap="round" stroke-linejoin="round"/>
<path d="M333.912 92.6523H383.528" stroke="#616C7F" stroke-width="0.627694" stroke-linecap="round" stroke-linejoin="round"/>
<path d="M14.897 92.6523L485.812 92.6534" stroke="#616C7F" stroke-width="0.627694" stroke-linecap="round" stroke-linejoin="round"/>
<g clip-path="url(#clip2_161_25295)">
<path d="M550.585 59.7552C550.585 59.7552 549.677 59.7552 549.359 58.55C549.137 57.7131 549.911 57.3992 549.597 56.3489L550.204 56.9766C550.204 56.9766 550.342 55.6375 550.949 55.332C550.849 55.659 550.852 56.0087 550.956 56.3341C551.061 56.6595 551.263 56.9451 551.535 57.1523C552.677 58.1943 551.953 59.8389 550.585 59.7552Z" fill="#9EA6B5"/>
<path d="M529.432 87.1425V79.5684H533.516V86.314" stroke="#616C7F" stroke-width="0.627694" stroke-linecap="round" stroke-linejoin="round"/>
<path d="M545.262 86.8161V79.5684H549.346V86.9793" stroke="#616C7F" stroke-width="0.627694" stroke-linecap="round" stroke-linejoin="round"/>
<path d="M554.38 79.5685H539.387H524.393L523.205 77.5138V74.9863H539.387H555.568V77.5138L554.38 79.5685Z" stroke="#616C7F" stroke-width="0.627694" stroke-linecap="round" stroke-linejoin="round"/>
<path d="M538.571 68.1074H524.415V74.9116H538.571V68.1074Z" stroke="#616C7F" stroke-width="0.627694" stroke-linecap="round" stroke-linejoin="round"/>
<path d="M535.587 64.334H527.402V68.1085H535.587V64.334Z" stroke="#616C7F" stroke-width="0.627694" stroke-linecap="round" stroke-linejoin="round"/>
<path d="M555.568 77.5137H523.205" stroke="#616C7F" stroke-width="0.627694" stroke-linecap="round" stroke-linejoin="round"/>
<path d="M527.402 71.5098H535.772" stroke="#616C7F" stroke-width="0.627694" stroke-linecap="round" stroke-linejoin="round"/>
<path d="M530.298 64.334V68.1085" stroke="#616C7F" stroke-width="0.627694" stroke-linecap="round" stroke-linejoin="round"/>
<path d="M532.879 64.334V68.1085" stroke="#616C7F" stroke-width="0.627694" stroke-linecap="round" stroke-linejoin="round"/>
<path d="M531.586 64.3331V61.9102" stroke="#616C7F" stroke-width="0.627694" stroke-linecap="round" stroke-linejoin="round"/>
<path d="M549.305 62.0938H551.878L553.494 74.9866H547.689L549.305 62.0938Z" stroke="#616C7F" stroke-width="0.627694" stroke-linecap="round" stroke-linejoin="round"/>
<path d="M548.255 70.4766H542.379V74.9876H548.255" stroke="#616C7F" stroke-width="0.627694" stroke-linecap="round" stroke-linejoin="round"/>
<path d="M545.316 70.4763V68.543" stroke="#616C7F" stroke-width="0.627694" stroke-linecap="round" stroke-linejoin="round"/>
<path d="M557.699 92.0653C556.642 92.0747 555.62 91.6864 554.836 90.9773C554.578 90.6782 554.356 90.3495 554.175 89.998C553.898 90.3408 553.602 90.6677 553.288 90.9773C552.716 91.6075 551.926 91.9965 551.078 92.0653H550.539C550.025 92.0795 549.514 91.9906 549.035 91.8037C548.556 91.6168 548.12 91.3358 547.752 90.9773C547.425 90.6946 547.143 90.3645 546.915 89.998C546.76 90.1654 546.178 90.835 546.023 90.9773C545.453 91.6065 544.665 91.9955 543.818 92.0653H543.257C542.749 92.081 542.243 91.9925 541.77 91.8054C541.297 91.6183 540.868 91.3365 540.508 90.9773C540.191 90.6919 539.918 90.3621 539.696 89.998C539.419 90.3419 539.121 90.6689 538.805 90.9773C538.067 91.6875 537.08 92.0784 536.056 92.0653C534.996 92.0929 533.967 91.702 533.193 90.9773C532.936 90.6782 532.716 90.3495 532.536 89.998C532.21 90.3079 531.9 90.6348 531.607 90.9773C530.843 91.6965 529.828 92.0872 528.779 92.0653C527.746 92.0652 526.751 91.6769 525.992 90.9773C525.681 90.7057 525.43 90.3721 525.255 89.998C525.024 90.3446 524.765 90.672 524.481 90.9773C523.726 91.6845 522.728 92.0741 521.694 92.0653H521.075" stroke="#616C7F" stroke-width="0.627694" stroke-linecap="round" stroke-linejoin="round"/>
<path d="M557.699 87.3487C556.642 87.3582 555.62 86.9698 554.836 86.2607C554.577 85.961 554.355 85.6308 554.175 85.2773C553.899 85.6224 553.603 85.9507 553.288 86.2607C552.716 86.891 551.926 87.28 551.078 87.3487H550.539C550.025 87.363 549.514 87.2741 549.035 87.0872C548.556 86.9003 548.12 86.6193 547.752 86.2607C547.424 85.9776 547.142 85.646 546.915 85.2773C546.76 85.4489 546.178 86.1394 546.023 86.2607C545.453 86.89 544.665 87.279 543.818 87.3487H543.257C542.749 87.3644 542.243 87.276 541.77 87.0889C541.297 86.9018 540.868 86.62 540.508 86.2607C540.19 85.9749 539.917 85.6435 539.696 85.2773C539.42 85.6234 539.122 85.9519 538.805 86.2607C538.067 86.971 537.08 87.3619 536.056 87.3487C534.996 87.3764 533.967 86.9855 533.193 86.2607C532.935 85.961 532.714 85.6307 532.536 85.2773C532.302 85.4489 531.733 86.1394 531.607 86.2607C530.843 86.98 529.828 87.3707 528.779 87.3487C527.746 87.3487 526.751 86.9604 525.992 86.2607C525.679 85.9887 525.428 85.6535 525.255 85.2773C525.025 85.626 524.766 85.955 524.481 86.2607C523.726 86.968 522.728 87.3576 521.694 87.3487H521.075" stroke="#616C7F" stroke-width="0.627694" stroke-linecap="round" stroke-linejoin="round"/>
</g>
<g clip-path="url(#clip3_161_25295)">
<path d="M631.023 79.929V73.9492H622.056V79.929" stroke="#616C7F" stroke-width="0.627694" stroke-linecap="round" stroke-linejoin="round"/>
<path d="M624.45 73.9495V70.3633H630.43V73.9704" stroke="#616C7F" stroke-width="0.627694" stroke-linecap="round" stroke-linejoin="round"/>
<path d="M628.635 70.3626V66.1152" stroke="#616C7F" stroke-width="0.627694" stroke-linecap="round" stroke-linejoin="round"/>
<path d="M626.242 70.3624V66.1777" stroke="#616C7F" stroke-width="0.627694" stroke-linecap="round" stroke-linejoin="round"/>
<path d="M596.928 78.137V75.7434C596.957 74.9698 597.284 74.2375 597.842 73.7004C598.399 73.1633 599.143 72.8633 599.918 72.8633C600.692 72.8633 601.436 73.1633 601.993 73.7004C602.551 74.2375 602.879 74.9698 602.908 75.7434V78.137" fill="#9EA6B5"/>
<path d="M596.928 78.137V75.7434C596.957 74.9698 597.284 74.2375 597.842 73.7004C598.399 73.1633 599.143 72.8633 599.918 72.8633C600.692 72.8633 601.436 73.1633 601.993 73.7004C602.551 74.2375 602.879 74.9698 602.908 75.7434V78.137" stroke="#9EA6B5" stroke-width="0.313847"/>
<path d="M611.294 79.928V75.7434C611.265 74.9698 610.937 74.2375 610.38 73.7004C609.822 73.1633 609.078 72.8633 608.304 72.8633C607.53 72.8633 606.786 73.1633 606.228 73.7004C605.671 74.2375 605.343 74.9698 605.314 75.7434V79.3296L605.912 79.928" fill="#9EA6B5"/>
<path d="M611.294 79.928V75.7434C611.265 74.9698 610.937 74.2375 610.38 73.7004C609.822 73.1633 609.078 72.8633 608.304 72.8633C607.53 72.8633 606.786 73.1633 606.228 73.7004C605.671 74.2375 605.343 74.9698 605.314 75.7434V79.3296L605.912 79.928" stroke="#9EA6B5" stroke-width="0.313847"/>
<path d="M613.687 79.928V75.7434C613.715 74.9698 614.043 74.2375 614.601 73.7004C615.158 73.1633 615.902 72.8633 616.676 72.8633C617.451 72.8633 618.195 73.1633 618.752 73.7004C619.31 74.2375 619.637 74.9698 619.666 75.7434V79.928" fill="#9EA6B5"/>
<path d="M613.687 79.928V75.7434C613.715 74.9698 614.043 74.2375 614.601 73.7004C615.158 73.1633 615.902 72.8633 616.676 72.8633C617.451 72.8633 618.195 73.1633 618.752 73.7004C619.31 74.2375 619.637 74.9698 619.666 75.7434V79.928" stroke="#9EA6B5" stroke-width="0.313847"/>
<path d="M599.931 72.7569V72.1585C599.931 71.9226 599.977 71.6889 600.067 71.4708C600.157 71.2528 600.289 71.0547 600.456 70.8879C600.623 70.721 600.821 70.5888 601.039 70.4988C601.257 70.4088 601.49 70.3627 601.726 70.3633H606.509C606.745 70.3627 606.979 70.4088 607.197 70.4988C607.415 70.5888 607.613 70.721 607.78 70.8879C607.947 71.0547 608.079 71.2528 608.169 71.4708C608.259 71.6889 608.305 71.9226 608.305 72.1585V72.7569" stroke="#616C7F" stroke-width="0.627694" stroke-linecap="round" stroke-linejoin="round"/>
<path d="M608.306 72.7569V72.1585C608.305 71.9228 608.35 71.6892 608.44 71.4712C608.529 71.2531 608.661 71.055 608.828 70.8881C608.994 70.7212 609.192 70.589 609.41 70.4989C609.628 70.4088 609.861 70.3627 610.097 70.3633H614.88C615.116 70.3627 615.349 70.4088 615.567 70.4988C615.785 70.5888 615.984 70.721 616.15 70.8879C616.317 71.0547 616.449 71.2528 616.539 71.4708C616.629 71.6889 616.675 71.9226 616.675 72.1585V72.7569" stroke="#616C7F" stroke-width="0.627694" stroke-linecap="round" stroke-linejoin="round"/>
<path d="M628.635 77.5386H624.45V76.3418" stroke="#616C7F" stroke-width="0.627694" stroke-linecap="round" stroke-linejoin="round"/>
<path d="M633.17 92.0636C632.112 92.0744 631.09 91.6842 630.308 90.9714C630.049 90.6724 629.828 90.3437 629.647 89.9922C629.371 90.3359 629.074 90.6628 628.76 90.9714C628.189 91.6032 627.399 91.9937 626.55 92.0636H626.01C625.496 92.0773 624.985 91.9877 624.506 91.8001C624.027 91.6125 623.591 91.3307 623.223 90.9714C622.898 90.6875 622.616 90.3576 622.386 89.9922C622.232 90.1638 621.654 90.8291 621.499 90.9714C620.929 91.6032 620.138 91.9937 619.29 92.0636H618.729C618.221 92.0799 617.715 91.9913 617.243 91.8034C616.77 91.6155 616.342 91.3323 615.984 90.9714C615.665 90.6872 615.39 90.3572 615.168 89.9922C614.892 90.3369 614.594 90.664 614.277 90.9714C613.542 91.6837 612.555 92.0763 611.532 92.0636C610.469 92.0925 609.439 91.6999 608.665 90.9714C608.408 90.6724 608.187 90.3436 608.008 89.9922C607.774 90.1638 607.205 90.8291 607.079 90.9714C606.317 91.6945 605.3 92.0871 604.25 92.0636C603.217 92.0628 602.222 91.6729 601.463 90.9714C601.152 90.6998 600.902 90.3663 600.727 89.9922C600.495 90.3387 600.236 90.6662 599.953 90.9714C599.2 91.6816 598.201 92.073 597.166 92.0636H596.546" stroke="#616C7F" stroke-width="0.627694" stroke-linecap="round" stroke-linejoin="round"/>
<path d="M633.17 87.3445C632.113 87.3565 631.09 86.9678 630.308 86.2565C630.049 85.9575 629.828 85.6288 629.647 85.2773C629.371 85.621 629.074 85.948 628.76 86.2565C628.188 86.8868 627.398 87.2758 626.55 87.3445H626.01C625.497 87.3591 624.985 87.2702 624.506 87.0833C624.028 86.8964 623.591 86.6153 623.223 86.2565C622.898 85.9727 622.616 85.6428 622.386 85.2773C622.232 85.4489 621.654 86.1352 621.499 86.2565C620.928 86.8868 620.138 87.2758 619.29 87.3445H618.729C618.221 87.3617 617.715 87.2739 617.243 87.0867C616.771 86.8995 616.342 86.6169 615.984 86.2565C615.665 85.9723 615.39 85.6423 615.168 85.2773C614.892 85.6221 614.594 85.9491 614.277 86.2565C613.541 86.9677 612.554 87.3589 611.532 87.3445C610.47 87.3751 609.439 86.9839 608.665 86.2565C608.408 85.9575 608.187 85.6288 608.008 85.2773C607.774 85.4489 607.205 86.1352 607.079 86.2565C606.317 86.9781 605.3 87.3692 604.25 87.3445C603.218 87.3454 602.222 86.9569 601.463 86.2565C601.152 85.9849 600.902 85.6514 600.727 85.2773C600.495 85.6239 600.236 85.9513 599.953 86.2565C599.199 86.9656 598.2 87.3555 597.166 87.3445H596.546" stroke="#616C7F" stroke-width="0.627694" stroke-linecap="round" stroke-linejoin="round"/>
<path d="M598.635 86.9119L595.149 78.1367H604.117L605.912 79.9277H632.221V86.9119" stroke="#616C7F" stroke-width="0.627694" stroke-linecap="round" stroke-linejoin="round"/>
</g>
<path d="M596.034 92.0636C594.976 92.0744 593.953 91.6842 593.171 90.9714C592.913 90.6724 592.691 90.3437 592.51 89.9922C592.234 90.3359 591.938 90.6628 591.623 90.9714C591.052 91.6032 590.262 91.9937 589.413 92.0636H588.874C588.36 92.0773 587.848 91.9877 587.369 91.8001C586.891 91.6125 586.454 91.3307 586.087 90.9714C585.761 90.6875 585.479 90.3576 585.25 89.9922C585.095 90.1638 584.517 90.8291 584.363 90.9714C583.792 91.6032 583.002 91.9937 582.153 92.0636H581.592C581.084 92.0799 580.578 91.9913 580.106 91.8034C579.634 91.6155 579.205 91.3323 578.847 90.9714C578.528 90.6872 578.253 90.3572 578.031 89.9922C577.755 90.3369 577.457 90.664 577.14 90.9714C576.405 91.6837 575.418 92.0763 574.395 92.0636C573.333 92.0925 572.302 91.6999 571.528 90.9714C571.271 90.6724 571.051 90.3436 570.871 89.9922C570.637 90.1638 570.068 90.8291 569.942 90.9714C569.181 91.6945 568.164 92.0871 567.114 92.0636C566.08 92.0628 565.085 91.6729 564.327 90.9714C564.016 90.6998 563.765 90.3663 563.59 89.9922C563.359 90.3387 563.1 90.6662 562.816 90.9714C562.063 91.6816 561.064 92.073 560.029 92.0636H559.41" stroke="#616C7F" stroke-width="0.627694" stroke-linecap="round" stroke-linejoin="round"/>
<path d="M596.034 87.3445C594.976 87.3565 593.954 86.9678 593.171 86.2565C592.913 85.9575 592.691 85.6288 592.51 85.2773C592.234 85.621 591.938 85.948 591.623 86.2565C591.051 86.8868 590.261 87.2758 589.413 87.3445H588.874C588.36 87.3591 587.848 87.2702 587.37 87.0833C586.891 86.8964 586.455 86.6153 586.087 86.2565C585.761 85.9727 585.479 85.6428 585.25 85.2773C585.095 85.4489 584.517 86.1352 584.363 86.2565C583.791 86.8868 583.001 87.2758 582.153 87.3445H581.592C581.085 87.3617 580.579 87.2739 580.106 87.0867C579.634 86.8995 579.205 86.6169 578.847 86.2565C578.528 85.9723 578.253 85.6423 578.031 85.2773C577.755 85.6221 577.457 85.9491 577.14 86.2565C576.405 86.9677 575.418 87.3589 574.395 87.3445C573.333 87.3751 572.302 86.9839 571.528 86.2565C571.271 85.9575 571.051 85.6288 570.871 85.2773C570.637 85.4489 570.068 86.1352 569.942 86.2565C569.18 86.9781 568.163 87.3692 567.114 87.3445C566.081 87.3454 565.086 86.9569 564.327 86.2565C564.016 85.9849 563.765 85.6514 563.59 85.2773C563.359 85.6239 563.1 85.9513 562.816 86.2565C562.062 86.9656 561.064 87.3555 560.029 87.3445H559.41" stroke="#616C7F" stroke-width="0.627694" stroke-linecap="round" stroke-linejoin="round"/>
<path d="M522.472 92.0636C521.414 92.0744 520.391 91.6842 519.609 90.9714C519.351 90.6724 519.129 90.3437 518.948 89.9922C518.672 90.3359 518.376 90.6628 518.061 90.9714C517.49 91.6032 516.7 91.9937 515.851 92.0636H515.312C514.798 92.0773 514.286 91.9877 513.807 91.8001C513.329 91.6125 512.892 91.3307 512.525 90.9714C512.199 90.6875 511.917 90.3576 511.688 89.9922C511.533 90.1638 510.955 90.8291 510.801 90.9714C510.23 91.6032 509.44 91.9937 508.591 92.0636H508.03C507.522 92.0799 507.016 91.9913 506.544 91.8034C506.072 91.6155 505.643 91.3323 505.285 90.9714C504.966 90.6872 504.691 90.3572 504.469 89.9922C504.193 90.3369 503.895 90.664 503.578 90.9714C502.843 91.6837 501.856 92.0763 500.833 92.0636C499.771 92.0925 498.74 91.6999 497.966 90.9714C497.709 90.6724 497.489 90.3436 497.309 89.9922C497.075 90.1638 496.506 90.8291 496.38 90.9714C495.619 91.6945 494.602 92.0871 493.552 92.0636C492.518 92.0628 491.523 91.6729 490.765 90.9714C490.454 90.6998 490.203 90.3663 490.028 89.9922C489.797 90.3387 489.538 90.6662 489.254 90.9714C488.501 91.6816 487.502 92.073 486.467 92.0636H485.848" stroke="#616C7F" stroke-width="0.627694" stroke-linecap="round" stroke-linejoin="round"/>
<path d="M522.472 87.3445C521.414 87.3565 520.392 86.9678 519.609 86.2565C519.351 85.9575 519.129 85.6288 518.948 85.2773C518.672 85.621 518.376 85.948 518.061 86.2565C517.489 86.8868 516.699 87.2758 515.851 87.3445H515.312C514.798 87.3591 514.286 87.2702 513.808 87.0833C513.329 86.8964 512.893 86.6153 512.525 86.2565C512.199 85.9727 511.917 85.6428 511.688 85.2773C511.533 85.4489 510.955 86.1352 510.801 86.2565C510.229 86.8868 509.439 87.2758 508.591 87.3445H508.03C507.523 87.3617 507.017 87.2739 506.544 87.0867C506.072 86.8995 505.643 86.6169 505.285 86.2565C504.966 85.9723 504.691 85.6423 504.469 85.2773C504.193 85.6221 503.895 85.9491 503.578 86.2565C502.843 86.9677 501.856 87.3589 500.833 87.3445C499.771 87.3751 498.74 86.9839 497.966 86.2565C497.709 85.9575 497.489 85.6288 497.309 85.2773C497.075 85.4489 496.506 86.1352 496.38 86.2565C495.618 86.9781 494.601 87.3692 493.552 87.3445C492.519 87.3454 491.524 86.9569 490.765 86.2565C490.454 85.9849 490.203 85.6514 490.028 85.2773C489.797 85.6239 489.538 85.9513 489.254 86.2565C488.5 86.9656 487.502 87.3555 486.467 87.3445H485.848" stroke="#616C7F" stroke-width="0.627694" stroke-linecap="round" stroke-linejoin="round"/>
</g>
</g>
<defs>
<clipPath id="clip0_161_25295">
<rect width="22.1785" height="13.3908" fill="white" transform="translate(299.597 78.6719)"/>
</clipPath>
<clipPath id="clip1_161_25295">
<rect width="99.1756" height="92.4802" fill="white"/>
</clipPath>
<clipPath id="clip2_161_25295">
<rect width="37.2515" height="37.0465" fill="white" transform="translate(520.76 55.332)"/>
</clipPath>
<clipPath id="clip3_161_25295">
<rect width="38.6492" height="26.5766" fill="white" transform="translate(594.837 65.8027)"/>
</clipPath>
</defs>
</svg>
