<svg width="78" height="65" viewBox="0 0 78 65" fill="none" xmlns="http://www.w3.org/2000/svg">
<g clip-path="url(#clip0_121_735)">
<path d="M24.5399 28.09C23.2615 26.3764 22.2966 24.45 21.6899 22.4C20.3182 23.6546 19.3769 25.3097 18.9999 27.13C15.8499 24 16.1999 20.77 16.6399 16C13.0267 18.6605 10.4668 22.5093 9.40991 26.87C8.45991 30.52 9.06991 35.51 11.5399 38.52" stroke="#34B9B3" stroke-width="1.5" stroke-linecap="round" stroke-linejoin="round"/>
<path d="M57 9.55C59.65 8.27 61.47 4.71 61.47 4.71C62.3758 6.45671 62.7248 8.43897 62.47 10.39C66.63 8.19 66.9 5.28 67.67 0.75C70.332 4.10876 71.73 8.29567 71.62 12.58C71.62 16.2 69.62 22.2 62.18 26.02" stroke="#34B9B3" stroke-width="1.5" stroke-linecap="round" stroke-linejoin="round"/>
<path d="M26.2799 63.24C27.7115 62.1997 28.9673 60.9371 29.9999 59.5C31.0896 57.9754 31.7775 56.2008 31.9999 54.34C32.2145 52.3278 31.9542 50.2933 31.2399 48.4C30.0683 45.1968 28.1523 42.3177 25.6499 40C25.4476 42.3718 24.6608 44.6565 23.3599 46.65C23.3599 46.65 22.4499 37.71 15.5299 34.51C17.5299 46.82 11.5299 48.43 11.5299 48.43C11.3366 46.5648 10.6111 44.7945 9.43993 43.33C8.89749 45.3466 8.16071 47.3057 7.23993 49.18C6.36379 50.8198 5.79445 52.6057 5.55993 54.45C5.33353 56.5136 5.90608 58.5855 7.15993 60.24C8.04662 61.3773 9.10218 62.3722 10.2899 63.19" fill="#A4519B"/>
<path d="M26.2799 63.24C27.7115 62.1997 28.9673 60.9371 29.9999 59.5C31.0896 57.9754 31.7775 56.2008 31.9999 54.34C32.2145 52.3278 31.9542 50.2933 31.2399 48.4C30.0683 45.1968 28.1523 42.3177 25.6499 40C25.4476 42.3718 24.6608 44.6565 23.3599 46.65C23.3599 46.65 22.4499 37.71 15.5299 34.51C17.5299 46.82 11.5299 48.43 11.5299 48.43C11.3366 46.5648 10.6111 44.7945 9.43993 43.33C8.89749 45.3466 8.16071 47.3057 7.23993 49.18C6.36379 50.8198 5.79445 52.6057 5.55993 54.45C5.33353 56.5136 5.90608 58.5855 7.15993 60.24C8.04662 61.3773 9.10218 62.3722 10.2899 63.19" stroke="#A4519B" stroke-width="1.5" stroke-linecap="round" stroke-linejoin="round"/>
<path d="M58.3599 63.11C57.6099 62.0453 57.0998 60.8304 56.865 59.5494C56.6302 58.2683 56.6762 56.9516 56.9999 55.69C57.6749 52.913 59.3072 50.4627 61.6099 48.77C61.3299 51.77 61.0599 54 63.3299 55.84C64.7799 57.03 65.9299 59.93 64.2299 63.11" fill="#A4519B"/>
<path d="M58.3599 63.11C57.6099 62.0453 57.0998 60.8304 56.865 59.5494C56.6302 58.2683 56.6762 56.9516 56.9999 55.69C57.6749 52.913 59.3072 50.4627 61.6099 48.77C61.3299 51.77 61.0599 54 63.3299 55.84C64.7799 57.03 65.9299 59.93 64.2299 63.11" stroke="#A4519B" stroke-width="1.5" stroke-linecap="round" stroke-linejoin="round"/>
<path d="M21.0501 63.1099C21.7102 62.1672 22.1591 61.093 22.3662 59.9609C22.5733 58.8288 22.5337 57.6653 22.2501 56.5499C21.6512 54.0939 20.2112 51.925 18.1801 50.4199C18.4201 53.1099 18.6601 55.0499 16.6601 56.6799C15.8073 57.4961 15.2621 58.5813 15.1164 59.7526C14.9707 60.924 15.2333 62.1097 15.8601 63.1099" fill="white"/>
<path d="M59.0901 31.9999C61.2301 45.3899 52.7901 50.7399 45.3401 50.5599C37.8901 50.3799 29.8101 44.1899 31.6001 32.1499C33.0001 23.0499 38.0001 6.38989 45.4101 6.38989C52.8201 6.38989 57.5301 22.2799 59.0901 31.9999Z" stroke="#34B9B3" stroke-width="1.5" stroke-linecap="round" stroke-linejoin="round"/>
<path d="M45.1499 41.87L36.9199 34.5" stroke="#34B9B3" stroke-width="1.5" stroke-linecap="round" stroke-linejoin="round"/>
<path d="M45.01 31.3899L40.05 26.9299" stroke="#34B9B3" stroke-width="1.5" stroke-linecap="round" stroke-linejoin="round"/>
<path d="M45.6001 41.87L53.8301 34.5" stroke="#34B9B3" stroke-width="1.5" stroke-linecap="round" stroke-linejoin="round"/>
<path d="M45.74 31.3899L50.7 26.9299" stroke="#34B9B3" stroke-width="1.5" stroke-linecap="round" stroke-linejoin="round"/>
<path d="M45.3899 21.6899V62.7199" stroke="#34B9B3" stroke-width="1.5" stroke-linecap="round" stroke-linejoin="round"/>
<path d="M0.75 63.77H76.38" stroke="#34B9B3" stroke-width="1.5" stroke-linecap="round" stroke-linejoin="round"/>
</g>
<defs>
<clipPath id="clip0_121_735">
<rect width="77.13" height="64.52" fill="white"/>
</clipPath>
</defs>
</svg>
