<svg width="64" height="59" viewBox="0 0 64 59" fill="none" xmlns="http://www.w3.org/2000/svg">
<path d="M31.8101 41.2397L38.7401 58.1097" stroke="#34B9B3" stroke-width="1.5" stroke-linecap="round" stroke-linejoin="round"/>
<path d="M24.2 22.7397L29.66 36.0398" stroke="#34B9B3" stroke-width="1.5" stroke-linecap="round" stroke-linejoin="round"/>
<path d="M7.92999 41.2397L1 58.1097" stroke="#34B9B3" stroke-width="1.5" stroke-linecap="round" stroke-linejoin="round"/>
<path d="M15.5401 22.7397L10.0701 36.0398" stroke="#34B9B3" stroke-width="1.5" stroke-linecap="round" stroke-linejoin="round"/>
<path d="M20.54 36.1699H37.37" stroke="#34B9B3" stroke-width="1.5" stroke-linecap="round" stroke-linejoin="round"/>
<path d="M2.37012 36.1699H15.0601" stroke="#34B9B3" stroke-width="1.5" stroke-linecap="round" stroke-linejoin="round"/>
<path d="M19.8701 32.6299V39.8599" stroke="#34B9B3" stroke-width="1.5" stroke-linecap="round" stroke-linejoin="round"/>
<path d="M27.6101 16.1301C27.6101 20.4101 24.1401 23.8801 19.8601 23.8801C15.5801 23.8801 12.1101 20.4101 12.1101 16.1301C12.1101 11.8501 15.5801 8.39014 19.8601 8.39014C24.1401 8.39014 27.6101 11.8601 27.6101 16.1301Z" fill="#A4519B" stroke="#A4519B"/>
<path d="M63.2098 1.19971H46.0698V57.7698H63.2098V1.19971Z" stroke="#34B9B3" stroke-width="1.5" stroke-linecap="round" stroke-linejoin="round"/>
<path d="M16.6001 8.93994V1H23.1401V8.93994" fill="#A4519B"/>
<path d="M16.6001 8.93994V1H23.1401V8.93994" stroke="#A4519B"/>
<path d="M46.3701 8.27979H52.1002" stroke="#34B9B3" stroke-width="1.5" stroke-linecap="round" stroke-linejoin="round"/>
<path d="M46.3701 15.3398H55.9001" stroke="#34B9B3" stroke-width="1.5" stroke-linecap="round" stroke-linejoin="round"/>
<path d="M46.3701 29.48H55.9001" stroke="#34B9B3" stroke-width="1.5" stroke-linecap="round" stroke-linejoin="round"/>
<path d="M46.3701 22.4097H52.1002" stroke="#34B9B3" stroke-width="1.5" stroke-linecap="round" stroke-linejoin="round"/>
<path d="M46.3701 36.5498H52.1002" stroke="#34B9B3" stroke-width="1.5" stroke-linecap="round" stroke-linejoin="round"/>
<path d="M46.3701 50.6899H52.1002" stroke="#34B9B3" stroke-width="1.5" stroke-linecap="round" stroke-linejoin="round"/>
<path d="M46.3701 43.6196H55.9001" stroke="#34B9B3" stroke-width="1.5" stroke-linecap="round" stroke-linejoin="round"/>
<path d="M20.7 16.1302C20.7 16.5902 20.33 16.9602 19.87 16.9602C19.41 16.9602 19.04 16.5902 19.04 16.1302C19.04 15.6702 19.41 15.3003 19.87 15.3003C20.33 15.3003 20.7 15.6702 20.7 16.1302Z" stroke="white" stroke-width="1.5" stroke-linecap="round" stroke-linejoin="round"/>
</svg>
