<svg width="83" height="78" viewBox="0 0 83 78" fill="none" xmlns="http://www.w3.org/2000/svg">
<g clip-path="url(#clip0_121_1619)">
<path d="M57.83 76.7201H24.26L33.21 31.8101H48.88L57.83 76.7201Z" stroke="#34B9B3" stroke-width="1.5" stroke-linecap="round" stroke-linejoin="round"/>
<path d="M57.8301 76.72L28.4301 55.8L51.3601 44.24L33.2101 31.81L48.8701 16.28L33.2201 0.75L17.5801 16.35H64.5101L48.8701 0.75L33.2201 16.28L48.8801 31.81L30.7301 44.24L53.6601 55.8L24.2601 76.72" stroke="#34B9B3" stroke-width="1.5" stroke-linecap="round" stroke-linejoin="round"/>
<path d="M17.5801 31.9501L33.2201 16.3501H48.8701L64.5101 31.9501H17.5801Z" stroke="#34B9B3" stroke-width="1.5" stroke-linecap="round" stroke-linejoin="round"/>
<path d="M48.8602 0.75H33.2202V31.81H48.8602V0.75Z" stroke="#34B9B3" stroke-width="1.5" stroke-linecap="round" stroke-linejoin="round"/>
<path d="M22.3201 16.3501H17.5801V20.8401H22.3201V16.3501Z" stroke="#A4519B" stroke-width="1.5" stroke-linecap="round" stroke-linejoin="round"/>
<path d="M64.51 16.3501H59.77V20.8401H64.51V16.3501Z" stroke="#A4519B" stroke-width="1.5" stroke-linecap="round" stroke-linejoin="round"/>
<path d="M22.3201 31.95H17.5801V36.4399H22.3201V31.95Z" stroke="#A4519B" stroke-width="1.5" stroke-linecap="round" stroke-linejoin="round"/>
<path d="M64.51 31.95H59.77V36.4399H64.51V31.95Z" stroke="#A4519B" stroke-width="1.5" stroke-linecap="round" stroke-linejoin="round"/>
<path d="M64.75 36.54C64.75 36.54 72.81 44.13 81.34 44.13" stroke="#A4519B" stroke-width="1.5" stroke-linecap="round" stroke-linejoin="round"/>
<path d="M64.75 20.8999C64.75 20.8999 72.81 28.4799 81.34 28.4799" stroke="#A4519B" stroke-width="1.5" stroke-linecap="round" stroke-linejoin="round"/>
<path d="M64.2798 16.1599C64.2798 16.1599 72.8098 23.7399 81.3398 23.7399" stroke="#A4519B" stroke-width="1.5" stroke-linecap="round" stroke-linejoin="round"/>
<path d="M64.2798 31.8C64.2798 31.8 72.8098 39.39 81.3398 39.39" stroke="#A4519B" stroke-width="1.5" stroke-linecap="round" stroke-linejoin="round"/>
<path d="M17.34 36.54C17.34 36.54 9.28 44.13 0.75 44.13" stroke="#A4519B" stroke-width="1.5" stroke-linecap="round" stroke-linejoin="round"/>
<path d="M17.34 20.8999C17.34 20.8999 9.28 28.4799 0.75 28.4799" stroke="#A4519B" stroke-width="1.5" stroke-linecap="round" stroke-linejoin="round"/>
<path d="M17.82 16.1599C17.82 16.1599 9.28 23.7399 0.75 23.7399" stroke="#A4519B" stroke-width="1.5" stroke-linecap="round" stroke-linejoin="round"/>
<path d="M17.82 31.8C17.82 31.8 9.28 39.39 0.75 39.39" stroke="#A4519B" stroke-width="1.5" stroke-linecap="round" stroke-linejoin="round"/>
</g>
<defs>
<clipPath id="clip0_121_1619">
<rect width="82.09" height="77.47" fill="white"/>
</clipPath>
</defs>
</svg>
