<svg width="1179" height="210" viewBox="0 0 1179 210" fill="none" xmlns="http://www.w3.org/2000/svg">
<path d="M7.252 2.858C6.482 2.13 5.446 1.836 4.41 1.836C2.576 1.836 0.756 2.788 0.756 4.832C0.756 8.374 5.46 7.128 5.46 9.298C5.46 10.208 4.536 10.656 3.724 10.656C2.94 10.656 2.198 10.278 1.764 9.62L0.434 10.908C1.246 11.874 2.45 12.252 3.682 12.252C5.628 12.252 7.308 11.216 7.308 9.088C7.308 5.56 2.604 6.694 2.604 4.706C2.604 3.796 3.416 3.432 4.228 3.432C4.914 3.432 5.586 3.684 5.964 4.216L7.252 2.858ZM9.59306 6.708V9.788C9.59306 11.37 10.0131 12.168 11.7911 12.168C12.1831 12.168 12.7711 12.112 13.1211 11.944V10.53C12.9111 10.684 12.5051 10.74 12.2111 10.74C11.4691 10.74 11.2731 10.32 11.2731 9.648V6.708H13.1211V5.28H11.2731V3.334H9.59306V5.28H8.20706V6.708H9.59306ZM18.6325 12H20.1445V8.136C20.1445 7.184 20.1445 5.112 17.2745 5.112C16.2105 5.112 15.1605 5.434 14.4185 6.19L15.3005 7.072C15.7485 6.652 16.3925 6.372 17.0925 6.372C17.9885 6.372 18.6325 6.806 18.6325 7.632V7.814H18.2125C16.5325 7.814 13.9845 7.968 13.9845 10.152C13.9845 11.482 15.1885 12.168 16.4345 12.168C17.3305 12.168 18.1145 11.832 18.5905 11.076H18.6325V12ZM18.5345 9.368C18.5345 10.306 17.9885 10.908 16.8405 10.908C16.2945 10.908 15.6645 10.642 15.6645 10.026C15.6645 9.06 17.2605 8.99 18.1845 8.99H18.5345V9.368ZM22.554 6.708V9.788C22.554 11.37 22.974 12.168 24.752 12.168C25.144 12.168 25.732 12.112 26.082 11.944V10.53C25.872 10.684 25.466 10.74 25.172 10.74C24.43 10.74 24.234 10.32 24.234 9.648V6.708H26.082V5.28H24.234V3.334H22.554V5.28H21.168V6.708H22.554ZM33.8614 9.228V8.766C33.8614 6.428 32.5874 5.112 30.7114 5.112C28.6814 5.112 27.0574 6.526 27.0574 8.64C27.0574 10.754 28.6814 12.168 30.7114 12.168C31.7754 12.168 32.7694 11.79 33.5534 10.824L32.3494 9.914C31.9294 10.432 31.3834 10.824 30.5434 10.824C29.6054 10.824 28.8494 10.222 28.7374 9.228H33.8614ZM28.7374 7.968C28.8634 7.002 29.4794 6.372 30.4734 6.372C31.5234 6.372 32.1674 6.988 32.1814 7.968H28.7374ZM35.4325 11.02C35.4325 11.622 35.9645 12.084 36.5525 12.084C37.1685 12.084 37.6725 11.594 37.6725 10.992C37.6725 10.39 37.1545 9.928 36.5525 9.928C35.9365 9.928 35.4325 10.418 35.4325 11.02ZM35.4325 6.274C35.4325 6.876 35.9645 7.338 36.5525 7.338C37.1685 7.338 37.6725 6.848 37.6725 6.246C37.6725 5.644 37.1545 5.182 36.5525 5.182C35.9365 5.182 35.4325 5.672 35.4325 6.274ZM43.8296 12H45.5936V2.088H43.8296V12ZM47.6141 12H49.2941V8.332C49.2941 7.436 49.7281 6.624 50.8341 6.624C52.0101 6.624 52.0661 7.856 52.0661 8.598V12H53.7461V7.758C53.7461 6.386 53.1021 5.112 51.2961 5.112C50.1761 5.112 49.5461 5.686 49.2381 6.358H49.2101V5.28H47.6141V12ZM56.2552 12H57.9352V6.708H59.4892V5.28H57.9352V4.062C57.9352 3.32 58.0752 2.676 59.0132 2.676C59.2512 2.676 59.4752 2.718 59.7132 2.774L59.8252 1.346C59.4752 1.276 59.1252 1.248 58.7612 1.248C56.6752 1.248 56.2552 2.466 56.2552 4.328V5.28H54.8692V6.708H56.2552V12ZM60.239 8.64C60.239 10.754 61.863 12.168 63.893 12.168C65.923 12.168 67.547 10.754 67.547 8.64C67.547 6.526 65.923 5.112 63.893 5.112C61.863 5.112 60.239 6.526 60.239 8.64ZM61.919 8.64C61.919 7.59 62.661 6.624 63.893 6.624C65.125 6.624 65.867 7.59 65.867 8.64C65.867 9.69 65.125 10.656 63.893 10.656C62.661 10.656 61.919 9.69 61.919 8.64Z" fill="black"/>
<rect y="37" width="551" height="56" rx="8" fill="#F4FBFC"/>
<path d="M28 69.75C27.8019 69.7474 27.6126 69.6676 27.4725 69.5275C27.3324 69.3874 27.2526 69.1981 27.25 69V64C27.25 63.8011 27.329 63.6103 27.4697 63.4697C27.6103 63.329 27.8011 63.25 28 63.25C28.1989 63.25 28.3897 63.329 28.5303 63.4697C28.671 63.6103 28.75 63.8011 28.75 64V69C28.7474 69.1981 28.6676 69.3874 28.5275 69.5275C28.3874 69.6676 28.1981 69.7474 28 69.75V69.75Z" fill="#5666BC"/>
<path d="M28 62.25C27.8019 62.2474 27.6126 62.1676 27.4725 62.0275C27.3324 61.8874 27.2526 61.6981 27.25 61.5V61C27.25 60.8011 27.329 60.6103 27.4697 60.4697C27.6103 60.329 27.8011 60.25 28 60.25C28.1989 60.25 28.3897 60.329 28.5303 60.4697C28.671 60.6103 28.75 60.8011 28.75 61V61.5C28.7474 61.6981 28.6676 61.8874 28.5275 62.0275C28.3874 62.1676 28.1981 62.2474 28 62.25Z" fill="#5666BC"/>
<path d="M28 74C26.22 74 24.4799 73.4722 22.9999 72.4832C21.5198 71.4943 20.3663 70.0887 19.6851 68.4442C19.0039 66.7996 18.8257 64.99 19.1729 63.2442C19.5202 61.4984 20.3774 59.8947 21.636 58.636C22.8947 57.3774 24.4984 56.5202 26.2442 56.1729C27.99 55.8257 29.7996 56.0039 31.4442 56.6851C33.0887 57.3663 34.4943 58.5198 35.4832 59.9999C36.4722 61.4799 37 63.22 37 65C37 67.387 36.0518 69.6761 34.364 71.364C32.6761 73.0518 30.387 74 28 74V74ZM28 57.5C26.5166 57.5 25.0666 57.9399 23.8332 58.764C22.5999 59.5881 21.6386 60.7594 21.0709 62.1299C20.5033 63.5003 20.3547 65.0083 20.6441 66.4632C20.9335 67.918 21.6478 69.2544 22.6967 70.3033C23.7456 71.3522 25.082 72.0665 26.5368 72.3559C27.9917 72.6453 29.4997 72.4968 30.8701 71.9291C32.2406 71.3614 33.4119 70.4001 34.236 69.1668C35.0601 67.9334 35.5 66.4834 35.5 65C35.5 63.0109 34.7098 61.1032 33.3033 59.6967C31.8968 58.2902 29.9891 57.5 28 57.5Z" fill="#5666BC"/>
<path d="M56.096 69.5H57.616L58.784 66.716H64.448L65.6 69.5H67.168L62.352 58.172H61.088L56.096 69.5ZM63.936 65.468H59.312L61.664 59.9H61.696L63.936 65.468ZM68.5616 69.5H69.8096V57.404H68.5616V69.5ZM78.0374 67.404C77.4454 68.156 76.7254 68.54 75.6534 68.54C74.2934 68.54 73.3014 67.436 73.2054 66.14H79.2534V65.74C79.2534 63.26 77.8134 61.82 75.7014 61.82C73.4934 61.82 71.8614 63.436 71.8614 65.756C71.8614 67.932 73.3014 69.692 75.6534 69.692C77.0454 69.692 78.1014 69.276 78.9814 68.14L78.0374 67.404ZM73.2054 65.084C73.3654 63.82 74.2774 62.972 75.6534 62.972C77.0294 62.972 77.8614 63.82 77.9094 65.084H73.2054ZM81.184 69.5H82.432V65.852C82.432 64.14 83.104 63.068 84.624 63.068C84.848 63.068 85.088 63.1 85.296 63.164L85.376 61.9C85.2 61.836 85.024 61.82 84.864 61.82C83.632 61.82 82.704 62.508 82.368 63.244H82.336C82.336 62.828 82.304 62.412 82.304 62.012H81.12C81.12 62.508 81.184 63.1 81.184 63.788V69.5ZM90.905 62.012H88.697V59.884H87.449V62.012H85.817V63.068H87.449V67.18C87.449 68.732 87.737 69.692 89.513 69.692C89.977 69.692 90.537 69.612 90.969 69.42L90.921 68.284C90.585 68.46 90.185 68.54 89.817 68.54C88.713 68.54 88.697 67.772 88.697 66.812V63.068H90.905V62.012ZM104.711 58.172H95.8791V59.42H99.6231V69.5H100.967V59.42H104.711V58.172ZM110.037 67.404C109.445 68.156 108.725 68.54 107.653 68.54C106.293 68.54 105.301 67.436 105.205 66.14H111.253V65.74C111.253 63.26 109.813 61.82 107.701 61.82C105.493 61.82 103.861 63.436 103.861 65.756C103.861 67.932 105.301 69.692 107.653 69.692C109.045 69.692 110.101 69.276 110.981 68.14L110.037 67.404ZM105.205 65.084C105.365 63.82 106.277 62.972 107.653 62.972C109.029 62.972 109.861 63.82 109.909 65.084H105.205ZM112.048 69.5H113.6L115.936 66.268L118.304 69.5H119.952L116.864 65.468L119.44 62.012H117.92L116.048 64.7L114.064 62.012H112.432L115.12 65.468L112.048 69.5ZM125.28 62.012H123.072V59.884H121.824V62.012H120.192V63.068H121.824V67.18C121.824 68.732 122.112 69.692 123.888 69.692C124.352 69.692 124.912 69.612 125.344 69.42L125.296 68.284C124.96 68.46 124.56 68.54 124.192 68.54C123.088 68.54 123.072 67.772 123.072 66.812V63.068H125.28V62.012Z" fill="#5666BC"/>
<path d="M524.06 65L528.48 60.58C528.554 60.5113 528.613 60.4285 528.654 60.3365C528.695 60.2445 528.717 60.1452 528.719 60.0445C528.72 59.9438 528.702 59.8437 528.664 59.7504C528.627 59.657 528.57 59.5721 528.499 59.5009C528.428 59.4297 528.343 59.3736 528.25 59.3358C528.156 59.2981 528.056 59.2796 527.956 59.2814C527.855 59.2831 527.756 59.3052 527.664 59.3462C527.572 59.3872 527.489 59.4463 527.42 59.52L523 63.94L518.58 59.52C518.438 59.3875 518.25 59.3154 518.056 59.3188C517.861 59.3222 517.676 59.4009 517.538 59.5383C517.401 59.6757 517.322 59.8611 517.319 60.0554C517.316 60.2497 517.388 60.4378 517.52 60.58L521.94 65L517.52 69.42C517.38 69.5606 517.301 69.7512 517.301 69.95C517.301 70.1487 517.38 70.3393 517.52 70.48C517.661 70.6204 517.851 70.6993 518.05 70.6993C518.249 70.6993 518.439 70.6204 518.58 70.48L523 66.06L527.42 70.48C527.561 70.6204 527.751 70.6993 527.95 70.6993C528.149 70.6993 528.339 70.6204 528.48 70.48C528.621 70.3393 528.699 70.1487 528.699 69.95C528.699 69.7512 528.621 69.5606 528.48 69.42L524.06 65Z" fill="#6B778C"/>
<path d="M635.252 2.858C634.482 2.13 633.446 1.836 632.41 1.836C630.576 1.836 628.756 2.788 628.756 4.832C628.756 8.374 633.46 7.128 633.46 9.298C633.46 10.208 632.536 10.656 631.724 10.656C630.94 10.656 630.198 10.278 629.764 9.62L628.434 10.908C629.246 11.874 630.45 12.252 631.682 12.252C633.628 12.252 635.308 11.216 635.308 9.088C635.308 5.56 630.604 6.694 630.604 4.706C630.604 3.796 631.416 3.432 632.228 3.432C632.914 3.432 633.586 3.684 633.964 4.216L635.252 2.858ZM637.593 6.708V9.788C637.593 11.37 638.013 12.168 639.791 12.168C640.183 12.168 640.771 12.112 641.121 11.944V10.53C640.911 10.684 640.505 10.74 640.211 10.74C639.469 10.74 639.273 10.32 639.273 9.648V6.708H641.121V5.28H639.273V3.334H637.593V5.28H636.207V6.708H637.593ZM646.632 12H648.144V8.136C648.144 7.184 648.144 5.112 645.274 5.112C644.21 5.112 643.16 5.434 642.418 6.19L643.3 7.072C643.748 6.652 644.392 6.372 645.092 6.372C645.988 6.372 646.632 6.806 646.632 7.632V7.814H646.212C644.532 7.814 641.984 7.968 641.984 10.152C641.984 11.482 643.188 12.168 644.434 12.168C645.33 12.168 646.114 11.832 646.59 11.076H646.632V12ZM646.534 9.368C646.534 10.306 645.988 10.908 644.84 10.908C644.294 10.908 643.664 10.642 643.664 10.026C643.664 9.06 645.26 8.99 646.184 8.99H646.534V9.368ZM650.554 6.708V9.788C650.554 11.37 650.974 12.168 652.752 12.168C653.144 12.168 653.732 12.112 654.082 11.944V10.53C653.872 10.684 653.466 10.74 653.172 10.74C652.43 10.74 652.234 10.32 652.234 9.648V6.708H654.082V5.28H652.234V3.334H650.554V5.28H649.168V6.708H650.554ZM661.861 9.228V8.766C661.861 6.428 660.587 5.112 658.711 5.112C656.681 5.112 655.057 6.526 655.057 8.64C655.057 10.754 656.681 12.168 658.711 12.168C659.775 12.168 660.769 11.79 661.553 10.824L660.349 9.914C659.929 10.432 659.383 10.824 658.543 10.824C657.605 10.824 656.849 10.222 656.737 9.228H661.861ZM656.737 7.968C656.863 7.002 657.479 6.372 658.473 6.372C659.523 6.372 660.167 6.988 660.181 7.968H656.737ZM663.432 11.02C663.432 11.622 663.964 12.084 664.552 12.084C665.168 12.084 665.672 11.594 665.672 10.992C665.672 10.39 665.154 9.928 664.552 9.928C663.936 9.928 663.432 10.418 663.432 11.02ZM663.432 6.274C663.432 6.876 663.964 7.338 664.552 7.338C665.168 7.338 665.672 6.848 665.672 6.246C665.672 5.644 665.154 5.182 664.552 5.182C663.936 5.182 663.432 5.672 663.432 6.274ZM678.018 2.858C677.248 2.13 676.212 1.836 675.176 1.836C673.342 1.836 671.522 2.788 671.522 4.832C671.522 8.374 676.226 7.128 676.226 9.298C676.226 10.208 675.302 10.656 674.49 10.656C673.706 10.656 672.964 10.278 672.53 9.62L671.2 10.908C672.012 11.874 673.216 12.252 674.448 12.252C676.394 12.252 678.074 11.216 678.074 9.088C678.074 5.56 673.37 6.694 673.37 4.706C673.37 3.796 674.182 3.432 674.994 3.432C675.68 3.432 676.352 3.684 676.73 4.216L678.018 2.858ZM685.889 5.28H684.209V8.948C684.209 9.844 683.775 10.656 682.669 10.656C681.493 10.656 681.437 9.424 681.437 8.682V5.28H679.757V9.522C679.757 10.894 680.401 12.168 682.207 12.168C683.327 12.168 683.957 11.594 684.265 10.922H684.293V12H685.889V5.28ZM693.55 6.134C692.906 5.42 691.968 5.112 691.114 5.112C689.084 5.112 687.46 6.526 687.46 8.64C687.46 10.754 689.084 12.168 691.114 12.168C691.702 12.168 692.85 11.916 693.536 11.23L692.416 10.026C692.108 10.432 691.632 10.656 691.114 10.656C689.882 10.656 689.14 9.69 689.14 8.64C689.14 7.59 689.882 6.624 691.114 6.624C691.562 6.624 691.996 6.89 692.388 7.296L693.55 6.134ZM700.304 6.134C699.66 5.42 698.722 5.112 697.868 5.112C695.838 5.112 694.214 6.526 694.214 8.64C694.214 10.754 695.838 12.168 697.868 12.168C698.456 12.168 699.604 11.916 700.29 11.23L699.17 10.026C698.862 10.432 698.386 10.656 697.868 10.656C696.636 10.656 695.894 9.69 695.894 8.64C695.894 7.59 696.636 6.624 697.868 6.624C698.316 6.624 698.75 6.89 699.142 7.296L700.304 6.134ZM707.772 9.228V8.766C707.772 6.428 706.498 5.112 704.622 5.112C702.592 5.112 700.968 6.526 700.968 8.64C700.968 10.754 702.592 12.168 704.622 12.168C705.686 12.168 706.68 11.79 707.464 10.824L706.26 9.914C705.84 10.432 705.294 10.824 704.454 10.824C703.516 10.824 702.76 10.222 702.648 9.228H707.772ZM702.648 7.968C702.774 7.002 703.39 6.372 704.384 6.372C705.434 6.372 706.078 6.988 706.092 7.968H702.648ZM714.047 6.134C713.501 5.392 712.549 5.112 711.653 5.112C710.295 5.112 708.951 5.784 708.951 7.282C708.951 9.844 712.577 8.752 712.577 10.138C712.577 10.67 711.947 10.908 711.457 10.908C710.743 10.908 710.295 10.558 709.861 10.082L708.741 11.132C709.427 11.902 710.323 12.168 711.359 12.168C712.731 12.168 714.257 11.608 714.257 10.012C714.257 7.394 710.631 8.374 710.631 7.17C710.631 6.666 711.163 6.456 711.611 6.456C712.185 6.456 712.605 6.694 712.927 7.142L714.047 6.134ZM720.267 6.134C719.721 5.392 718.769 5.112 717.873 5.112C716.515 5.112 715.171 5.784 715.171 7.282C715.171 9.844 718.797 8.752 718.797 10.138C718.797 10.67 718.167 10.908 717.677 10.908C716.963 10.908 716.515 10.558 716.081 10.082L714.961 11.132C715.647 11.902 716.543 12.168 717.579 12.168C718.951 12.168 720.477 11.608 720.477 10.012C720.477 7.394 716.851 8.374 716.851 7.17C716.851 6.666 717.383 6.456 717.831 6.456C718.405 6.456 718.825 6.694 719.147 7.142L720.267 6.134Z" fill="black"/>
<rect x="628" y="37" width="551" height="56" rx="8" fill="#ECF7E3"/>
<path d="M654.5 68.25C654.307 68.2352 654.128 68.1455 654 68L651 65C650.933 64.86 650.911 64.7028 650.938 64.5499C650.964 64.3971 651.037 64.2561 651.146 64.1464C651.256 64.0368 651.397 63.9638 651.55 63.9376C651.703 63.9113 651.86 63.9331 652 64L654.47 66.47L663 58C663.14 57.9331 663.297 57.9113 663.45 57.9376C663.603 57.9638 663.744 58.0368 663.854 58.1464C663.963 58.2561 664.036 58.3971 664.062 58.5499C664.089 58.7028 664.067 58.86 664 59L655 68C654.872 68.1455 654.693 68.2352 654.5 68.25V68.25Z" fill="#467822"/>
<path d="M656 74.0001C654.392 73.9975 652.813 73.5639 651.429 72.7443C650.045 71.9248 648.906 70.7492 648.13 69.3401C647.54 68.2901 647.176 67.1287 647.06 65.9301C646.877 64.1722 647.216 62.3993 648.034 60.8326C648.852 59.2658 650.113 57.9747 651.66 57.1201C652.71 56.5305 653.871 56.1661 655.07 56.0501C656.264 55.9216 657.472 56.0373 658.62 56.3901C658.723 56.4106 658.82 56.4522 658.905 56.5124C658.99 56.5725 659.062 56.6499 659.116 56.7395C659.17 56.829 659.204 56.9289 659.217 57.0325C659.23 57.1362 659.221 57.2415 659.191 57.3415C659.161 57.4416 659.111 57.5342 659.043 57.6136C658.975 57.6929 658.891 57.7572 658.797 57.8022C658.702 57.8473 658.6 57.8722 658.495 57.8752C658.391 57.8783 658.287 57.8595 658.19 57.8201C657.219 57.528 656.199 57.4328 655.19 57.5401C654.193 57.6422 653.227 57.9449 652.35 58.4301C651.505 58.8962 650.758 59.5209 650.15 60.2701C649.524 61.0332 649.056 61.9137 648.775 62.8598C648.493 63.8059 648.403 64.7987 648.51 65.7801C648.612 66.7771 648.915 67.7431 649.4 68.6201C649.866 69.465 650.491 70.2119 651.24 70.8201C652.003 71.4462 652.884 71.9138 653.83 72.1954C654.776 72.477 655.769 72.567 656.75 72.4601C657.747 72.358 658.713 72.0553 659.59 71.5701C660.435 71.104 661.182 70.4792 661.79 69.7301C662.416 68.9669 662.884 68.0865 663.165 67.1404C663.447 66.1942 663.537 65.2014 663.43 64.2201C663.42 64.117 663.431 64.013 663.461 63.914C663.492 63.815 663.541 63.7229 663.607 63.643C663.673 63.5632 663.754 63.4971 663.845 63.4485C663.937 63.4 664.037 63.3699 664.14 63.3601C664.243 63.3502 664.347 63.3608 664.446 63.3911C664.545 63.4215 664.637 63.471 664.717 63.537C664.797 63.6029 664.863 63.6839 664.912 63.7754C664.96 63.8669 664.99 63.967 665 64.0701C665.182 65.8291 664.842 67.6027 664.022 69.1695C663.202 70.7363 661.939 72.0269 660.39 72.8801C659.329 73.4938 658.15 73.8756 656.93 74.0001C656.62 74.0001 656.3 74.0001 656 74.0001Z" fill="#467822"/>
<path d="M684.096 69.5H685.616L686.784 66.716H692.448L693.6 69.5H695.168L690.352 58.172H689.088L684.096 69.5ZM691.936 65.468H687.312L689.664 59.9H689.696L691.936 65.468ZM696.562 69.5H697.81V57.404H696.562V69.5ZM706.037 67.404C705.445 68.156 704.725 68.54 703.653 68.54C702.293 68.54 701.301 67.436 701.205 66.14H707.253V65.74C707.253 63.26 705.813 61.82 703.701 61.82C701.493 61.82 699.861 63.436 699.861 65.756C699.861 67.932 701.301 69.692 703.653 69.692C705.045 69.692 706.101 69.276 706.981 68.14L706.037 67.404ZM701.205 65.084C701.365 63.82 702.277 62.972 703.653 62.972C705.029 62.972 705.861 63.82 705.909 65.084H701.205ZM709.184 69.5H710.432V65.852C710.432 64.14 711.104 63.068 712.624 63.068C712.848 63.068 713.088 63.1 713.296 63.164L713.376 61.9C713.2 61.836 713.024 61.82 712.864 61.82C711.632 61.82 710.704 62.508 710.368 63.244H710.336C710.336 62.828 710.304 62.412 710.304 62.012H709.12C709.12 62.508 709.184 63.1 709.184 63.788V69.5ZM718.905 62.012H716.697V59.884H715.449V62.012H713.817V63.068H715.449V67.18C715.449 68.732 715.737 69.692 717.513 69.692C717.977 69.692 718.537 69.612 718.969 69.42L718.921 68.284C718.585 68.46 718.185 68.54 717.817 68.54C716.713 68.54 716.697 67.772 716.697 66.812V63.068H718.905V62.012ZM732.711 58.172H723.879V59.42H727.623V69.5H728.967V59.42H732.711V58.172ZM738.037 67.404C737.445 68.156 736.725 68.54 735.653 68.54C734.293 68.54 733.301 67.436 733.205 66.14H739.253V65.74C739.253 63.26 737.813 61.82 735.701 61.82C733.493 61.82 731.861 63.436 731.861 65.756C731.861 67.932 733.301 69.692 735.653 69.692C737.045 69.692 738.101 69.276 738.981 68.14L738.037 67.404ZM733.205 65.084C733.365 63.82 734.277 62.972 735.653 62.972C737.029 62.972 737.861 63.82 737.909 65.084H733.205ZM740.048 69.5H741.6L743.936 66.268L746.304 69.5H747.952L744.864 65.468L747.44 62.012H745.92L744.048 64.7L742.064 62.012H740.432L743.12 65.468L740.048 69.5ZM753.28 62.012H751.072V59.884H749.824V62.012H748.192V63.068H749.824V67.18C749.824 68.732 750.112 69.692 751.888 69.692C752.352 69.692 752.912 69.612 753.344 69.42L753.296 68.284C752.96 68.46 752.56 68.54 752.192 68.54C751.088 68.54 751.072 67.772 751.072 66.812V63.068H753.28V62.012Z" fill="#467822"/>
<path d="M1152.06 65L1156.48 60.58C1156.55 60.5113 1156.61 60.4285 1156.65 60.3365C1156.69 60.2445 1156.72 60.1452 1156.72 60.0445C1156.72 59.9438 1156.7 59.8437 1156.66 59.7504C1156.63 59.657 1156.57 59.5721 1156.5 59.5009C1156.43 59.4297 1156.34 59.3736 1156.25 59.3358C1156.16 59.2981 1156.06 59.2796 1155.96 59.2814C1155.85 59.2831 1155.76 59.3052 1155.66 59.3462C1155.57 59.3872 1155.49 59.4463 1155.42 59.52L1151 63.94L1146.58 59.52C1146.44 59.3875 1146.25 59.3154 1146.06 59.3188C1145.86 59.3222 1145.68 59.4009 1145.54 59.5383C1145.4 59.6757 1145.32 59.8611 1145.32 60.0554C1145.32 60.2497 1145.39 60.4378 1145.52 60.58L1149.94 65L1145.52 69.42C1145.38 69.5606 1145.3 69.7512 1145.3 69.95C1145.3 70.1487 1145.38 70.3393 1145.52 70.48C1145.66 70.6204 1145.85 70.6993 1146.05 70.6993C1146.25 70.6993 1146.44 70.6204 1146.58 70.48L1151 66.06L1155.42 70.48C1155.56 70.6204 1155.75 70.6993 1155.95 70.6993C1156.15 70.6993 1156.34 70.6204 1156.48 70.48C1156.62 70.3393 1156.7 70.1487 1156.7 69.95C1156.7 69.7512 1156.62 69.5606 1156.48 69.42L1152.06 65Z" fill="#6B778C"/>
<path d="M7.252 115.858C6.482 115.13 5.446 114.836 4.41 114.836C2.576 114.836 0.756 115.788 0.756 117.832C0.756 121.374 5.46 120.128 5.46 122.298C5.46 123.208 4.536 123.656 3.724 123.656C2.94 123.656 2.198 123.278 1.764 122.62L0.434 123.908C1.246 124.874 2.45 125.252 3.682 125.252C5.628 125.252 7.308 124.216 7.308 122.088C7.308 118.56 2.604 119.694 2.604 117.706C2.604 116.796 3.416 116.432 4.228 116.432C4.914 116.432 5.586 116.684 5.964 117.216L7.252 115.858ZM9.59306 119.708V122.788C9.59306 124.37 10.0131 125.168 11.7911 125.168C12.1831 125.168 12.7711 125.112 13.1211 124.944V123.53C12.9111 123.684 12.5051 123.74 12.2111 123.74C11.4691 123.74 11.2731 123.32 11.2731 122.648V119.708H13.1211V118.28H11.2731V116.334H9.59306V118.28H8.20706V119.708H9.59306ZM18.6325 125H20.1445V121.136C20.1445 120.184 20.1445 118.112 17.2745 118.112C16.2105 118.112 15.1605 118.434 14.4185 119.19L15.3005 120.072C15.7485 119.652 16.3925 119.372 17.0925 119.372C17.9885 119.372 18.6325 119.806 18.6325 120.632V120.814H18.2125C16.5325 120.814 13.9845 120.968 13.9845 123.152C13.9845 124.482 15.1885 125.168 16.4345 125.168C17.3305 125.168 18.1145 124.832 18.5905 124.076H18.6325V125ZM18.5345 122.368C18.5345 123.306 17.9885 123.908 16.8405 123.908C16.2945 123.908 15.6645 123.642 15.6645 123.026C15.6645 122.06 17.2605 121.99 18.1845 121.99H18.5345V122.368ZM22.554 119.708V122.788C22.554 124.37 22.974 125.168 24.752 125.168C25.144 125.168 25.732 125.112 26.082 124.944V123.53C25.872 123.684 25.466 123.74 25.172 123.74C24.43 123.74 24.234 123.32 24.234 122.648V119.708H26.082V118.28H24.234V116.334H22.554V118.28H21.168V119.708H22.554ZM33.8614 122.228V121.766C33.8614 119.428 32.5874 118.112 30.7114 118.112C28.6814 118.112 27.0574 119.526 27.0574 121.64C27.0574 123.754 28.6814 125.168 30.7114 125.168C31.7754 125.168 32.7694 124.79 33.5534 123.824L32.3494 122.914C31.9294 123.432 31.3834 123.824 30.5434 123.824C29.6054 123.824 28.8494 123.222 28.7374 122.228H33.8614ZM28.7374 120.968C28.8634 120.002 29.4794 119.372 30.4734 119.372C31.5234 119.372 32.1674 119.988 32.1814 120.968H28.7374ZM35.4325 124.02C35.4325 124.622 35.9645 125.084 36.5525 125.084C37.1685 125.084 37.6725 124.594 37.6725 123.992C37.6725 123.39 37.1545 122.928 36.5525 122.928C35.9365 122.928 35.4325 123.418 35.4325 124.02ZM35.4325 119.274C35.4325 119.876 35.9645 120.338 36.5525 120.338C37.1685 120.338 37.6725 119.848 37.6725 119.246C37.6725 118.644 37.1545 118.182 36.5525 118.182C35.9365 118.182 35.4325 118.672 35.4325 119.274ZM45.6916 125H47.3156L49.6116 117.454H49.6396L51.9356 125H53.6156L56.4996 115.088H54.7076L52.7616 122.228H52.7336L50.5496 115.088H48.8136L46.5876 122.228H46.5596L44.6976 115.088H42.7656L45.6916 125ZM61.1383 125H62.6503V121.136C62.6503 120.184 62.6503 118.112 59.7803 118.112C58.7163 118.112 57.6663 118.434 56.9243 119.19L57.8063 120.072C58.2543 119.652 58.8983 119.372 59.5983 119.372C60.4943 119.372 61.1383 119.806 61.1383 120.632V120.814H60.7183C59.0383 120.814 56.4903 120.968 56.4903 123.152C56.4903 124.482 57.6943 125.168 58.9403 125.168C59.8363 125.168 60.6203 124.832 61.0963 124.076H61.1383V125ZM61.0403 122.368C61.0403 123.306 60.4943 123.908 59.3463 123.908C58.8003 123.908 58.1703 123.642 58.1703 123.026C58.1703 122.06 59.7663 121.99 60.6903 121.99H61.0403V122.368ZM64.4579 125H66.1379V121.402C66.1379 121.038 66.3619 119.708 67.9439 119.708C68.2099 119.708 68.4759 119.764 68.7559 119.834V118.21C68.5599 118.154 68.3639 118.112 68.1539 118.112C67.2719 118.112 66.5299 118.574 66.1659 119.344H66.1379V118.28H64.4579V125ZM70.1454 125H71.8254V121.332C71.8254 120.436 72.2594 119.624 73.3654 119.624C74.5414 119.624 74.5974 120.856 74.5974 121.598V125H76.2774V120.758C76.2774 119.386 75.6334 118.112 73.8274 118.112C72.7074 118.112 72.0774 118.686 71.7694 119.358H71.7414V118.28H70.1454V125ZM78.2124 125H79.8924V118.28H78.2124V125ZM77.9744 115.998C77.9744 116.53 78.4224 117.006 79.0384 117.006C79.6544 117.006 80.1304 116.572 80.1304 115.998C80.1304 115.424 79.6544 114.99 79.0384 114.99C78.4224 114.99 77.9744 115.466 77.9744 115.998ZM81.8211 125H83.5011V121.332C83.5011 120.436 83.9351 119.624 85.0411 119.624C86.2171 119.624 86.2731 120.856 86.2731 121.598V125H87.9531V120.758C87.9531 119.386 87.3091 118.112 85.5031 118.112C84.3831 118.112 83.7531 118.686 83.4451 119.358H83.4171V118.28H81.8211V125ZM95.1802 118.28V119.288H95.1522C94.6622 118.476 93.7802 118.112 92.8422 118.112C90.7702 118.112 89.5242 119.652 89.5242 121.64C89.5242 123.544 90.8542 125.084 92.8702 125.084C93.7102 125.084 94.5782 124.762 95.0682 124.104H95.0962V124.594C95.0962 125.924 94.5922 126.848 92.9682 126.848C92.0302 126.848 91.3302 126.498 90.6582 125.882L89.6502 127.254C90.6022 128.094 91.7362 128.36 92.9822 128.36C95.6002 128.36 96.7762 126.82 96.7762 124.398V118.28H95.1802ZM93.1922 119.624C94.4102 119.624 95.1802 120.436 95.1802 121.598C95.1802 122.718 94.4242 123.572 93.1782 123.572C92.0442 123.572 91.2042 122.69 91.2042 121.626C91.2042 120.436 92.0162 119.624 93.1922 119.624Z" fill="black"/>
<rect y="150" width="551" height="56" rx="8" fill="#FFF4EC"/>
<path d="M35.9999 184.75H19.9999C19.8689 184.75 19.7402 184.715 19.6263 184.651C19.5124 184.586 19.4172 184.493 19.3499 184.38C19.286 184.265 19.2524 184.136 19.2524 184.005C19.2524 183.874 19.286 183.745 19.3499 183.63L27.3499 169.63C27.4211 169.523 27.5177 169.435 27.6311 169.374C27.7445 169.313 27.8712 169.281 27.9999 169.281C28.1286 169.281 28.2554 169.313 28.3688 169.374C28.4822 169.435 28.5788 169.523 28.6499 169.63L36.6499 183.63C36.7139 183.745 36.7474 183.874 36.7474 184.005C36.7474 184.136 36.7139 184.265 36.6499 184.38C36.5827 184.493 36.4875 184.586 36.3736 184.651C36.2597 184.715 36.131 184.75 35.9999 184.75ZM21.2899 183.25H34.7099L27.9999 171.51L21.2899 183.25Z" fill="#FE7355"/>
<path d="M28 179.25C27.8019 179.247 27.6126 179.168 27.4725 179.027C27.3324 178.887 27.2526 178.698 27.25 178.5V175C27.25 174.801 27.329 174.61 27.4697 174.47C27.6103 174.329 27.8011 174.25 28 174.25C28.1989 174.25 28.3897 174.329 28.5303 174.47C28.671 174.61 28.75 174.801 28.75 175V178.5C28.7474 178.698 28.6676 178.887 28.5275 179.027C28.3874 179.168 28.1981 179.247 28 179.25V179.25Z" fill="#FE7355"/>
<path d="M28 182.25C27.8019 182.247 27.6126 182.168 27.4725 182.027C27.3324 181.887 27.2526 181.698 27.25 181.5V181C27.25 180.801 27.329 180.61 27.4697 180.47C27.6103 180.329 27.8011 180.25 28 180.25C28.1989 180.25 28.3897 180.329 28.5303 180.47C28.671 180.61 28.75 180.801 28.75 181V181.5C28.7474 181.698 28.6676 181.887 28.5275 182.027C28.3874 182.168 28.1981 182.247 28 182.25V182.25Z" fill="#FE7355"/>
<path d="M56.096 182.5H57.616L58.784 179.716H64.448L65.6 182.5H67.168L62.352 171.172H61.088L56.096 182.5ZM63.936 178.468H59.312L61.664 172.9H61.696L63.936 178.468ZM68.5616 182.5H69.8096V170.404H68.5616V182.5ZM78.0374 180.404C77.4454 181.156 76.7254 181.54 75.6534 181.54C74.2934 181.54 73.3014 180.436 73.2054 179.14H79.2534V178.74C79.2534 176.26 77.8134 174.82 75.7014 174.82C73.4934 174.82 71.8614 176.436 71.8614 178.756C71.8614 180.932 73.3014 182.692 75.6534 182.692C77.0454 182.692 78.1014 182.276 78.9814 181.14L78.0374 180.404ZM73.2054 178.084C73.3654 176.82 74.2774 175.972 75.6534 175.972C77.0294 175.972 77.8614 176.82 77.9094 178.084H73.2054ZM81.184 182.5H82.432V178.852C82.432 177.14 83.104 176.068 84.624 176.068C84.848 176.068 85.088 176.1 85.296 176.164L85.376 174.9C85.2 174.836 85.024 174.82 84.864 174.82C83.632 174.82 82.704 175.508 82.368 176.244H82.336C82.336 175.828 82.304 175.412 82.304 175.012H81.12C81.12 175.508 81.184 176.1 81.184 176.788V182.5ZM90.905 175.012H88.697V172.884H87.449V175.012H85.817V176.068H87.449V180.18C87.449 181.732 87.737 182.692 89.513 182.692C89.977 182.692 90.537 182.612 90.969 182.42L90.921 181.284C90.585 181.46 90.185 181.54 89.817 181.54C88.713 181.54 88.697 180.772 88.697 179.812V176.068H90.905V175.012ZM104.711 171.172H95.8791V172.42H99.6231V182.5H100.967V172.42H104.711V171.172ZM110.037 180.404C109.445 181.156 108.725 181.54 107.653 181.54C106.293 181.54 105.301 180.436 105.205 179.14H111.253V178.74C111.253 176.26 109.813 174.82 107.701 174.82C105.493 174.82 103.861 176.436 103.861 178.756C103.861 180.932 105.301 182.692 107.653 182.692C109.045 182.692 110.101 182.276 110.981 181.14L110.037 180.404ZM105.205 178.084C105.365 176.82 106.277 175.972 107.653 175.972C109.029 175.972 109.861 176.82 109.909 178.084H105.205ZM112.048 182.5H113.6L115.936 179.268L118.304 182.5H119.952L116.864 178.468L119.44 175.012H117.92L116.048 177.7L114.064 175.012H112.432L115.12 178.468L112.048 182.5ZM125.28 175.012H123.072V172.884H121.824V175.012H120.192V176.068H121.824V180.18C121.824 181.732 122.112 182.692 123.888 182.692C124.352 182.692 124.912 182.612 125.344 182.42L125.296 181.284C124.96 181.46 124.56 181.54 124.192 181.54C123.088 181.54 123.072 180.772 123.072 179.812V176.068H125.28V175.012Z" fill="#FE7355"/>
<path d="M524.06 178L528.48 173.58C528.554 173.511 528.613 173.428 528.654 173.336C528.695 173.244 528.717 173.145 528.719 173.044C528.72 172.944 528.702 172.844 528.664 172.75C528.627 172.657 528.57 172.572 528.499 172.501C528.428 172.43 528.343 172.374 528.25 172.336C528.156 172.298 528.056 172.28 527.956 172.281C527.855 172.283 527.756 172.305 527.664 172.346C527.572 172.387 527.489 172.446 527.42 172.52L523 176.94L518.58 172.52C518.438 172.387 518.25 172.315 518.056 172.319C517.861 172.322 517.676 172.401 517.538 172.538C517.401 172.676 517.322 172.861 517.319 173.055C517.316 173.25 517.388 173.438 517.52 173.58L521.94 178L517.52 182.42C517.38 182.561 517.301 182.751 517.301 182.95C517.301 183.149 517.38 183.339 517.52 183.48C517.661 183.62 517.851 183.699 518.05 183.699C518.249 183.699 518.439 183.62 518.58 183.48L523 179.06L527.42 183.48C527.561 183.62 527.751 183.699 527.95 183.699C528.149 183.699 528.339 183.62 528.48 183.48C528.621 183.339 528.699 183.149 528.699 182.95C528.699 182.751 528.621 182.561 528.48 182.42L524.06 178Z" fill="#6B778C"/>
<path d="M635.252 115.858C634.482 115.13 633.446 114.836 632.41 114.836C630.576 114.836 628.756 115.788 628.756 117.832C628.756 121.374 633.46 120.128 633.46 122.298C633.46 123.208 632.536 123.656 631.724 123.656C630.94 123.656 630.198 123.278 629.764 122.62L628.434 123.908C629.246 124.874 630.45 125.252 631.682 125.252C633.628 125.252 635.308 124.216 635.308 122.088C635.308 118.56 630.604 119.694 630.604 117.706C630.604 116.796 631.416 116.432 632.228 116.432C632.914 116.432 633.586 116.684 633.964 117.216L635.252 115.858ZM637.593 119.708V122.788C637.593 124.37 638.013 125.168 639.791 125.168C640.183 125.168 640.771 125.112 641.121 124.944V123.53C640.911 123.684 640.505 123.74 640.211 123.74C639.469 123.74 639.273 123.32 639.273 122.648V119.708H641.121V118.28H639.273V116.334H637.593V118.28H636.207V119.708H637.593ZM646.632 125H648.144V121.136C648.144 120.184 648.144 118.112 645.274 118.112C644.21 118.112 643.16 118.434 642.418 119.19L643.3 120.072C643.748 119.652 644.392 119.372 645.092 119.372C645.988 119.372 646.632 119.806 646.632 120.632V120.814H646.212C644.532 120.814 641.984 120.968 641.984 123.152C641.984 124.482 643.188 125.168 644.434 125.168C645.33 125.168 646.114 124.832 646.59 124.076H646.632V125ZM646.534 122.368C646.534 123.306 645.988 123.908 644.84 123.908C644.294 123.908 643.664 123.642 643.664 123.026C643.664 122.06 645.26 121.99 646.184 121.99H646.534V122.368ZM650.554 119.708V122.788C650.554 124.37 650.974 125.168 652.752 125.168C653.144 125.168 653.732 125.112 654.082 124.944V123.53C653.872 123.684 653.466 123.74 653.172 123.74C652.43 123.74 652.234 123.32 652.234 122.648V119.708H654.082V118.28H652.234V116.334H650.554V118.28H649.168V119.708H650.554ZM661.861 122.228V121.766C661.861 119.428 660.587 118.112 658.711 118.112C656.681 118.112 655.057 119.526 655.057 121.64C655.057 123.754 656.681 125.168 658.711 125.168C659.775 125.168 660.769 124.79 661.553 123.824L660.349 122.914C659.929 123.432 659.383 123.824 658.543 123.824C657.605 123.824 656.849 123.222 656.737 122.228H661.861ZM656.737 120.968C656.863 120.002 657.479 119.372 658.473 119.372C659.523 119.372 660.167 119.988 660.181 120.968H656.737ZM663.432 124.02C663.432 124.622 663.964 125.084 664.552 125.084C665.168 125.084 665.672 124.594 665.672 123.992C665.672 123.39 665.154 122.928 664.552 122.928C663.936 122.928 663.432 123.418 663.432 124.02ZM663.432 119.274C663.432 119.876 663.964 120.338 664.552 120.338C665.168 120.338 665.672 119.848 665.672 119.246C665.672 118.644 665.154 118.182 664.552 118.182C663.936 118.182 663.432 118.672 663.432 119.274ZM671.872 125H678.69V123.404H673.636V120.716H678.186V119.12H673.636V116.684H678.438V115.088H671.872V125ZM680.276 125H681.956V121.402C681.956 121.038 682.18 119.708 683.762 119.708C684.028 119.708 684.294 119.764 684.574 119.834V118.21C684.378 118.154 684.182 118.112 683.972 118.112C683.09 118.112 682.348 118.574 681.984 119.344H681.956V118.28H680.276V125ZM685.718 125H687.398V121.402C687.398 121.038 687.622 119.708 689.204 119.708C689.47 119.708 689.736 119.764 690.016 119.834V118.21C689.82 118.154 689.624 118.112 689.414 118.112C688.532 118.112 687.79 118.574 687.426 119.344H687.398V118.28H685.718V125ZM690.577 121.64C690.577 123.754 692.201 125.168 694.231 125.168C696.261 125.168 697.885 123.754 697.885 121.64C697.885 119.526 696.261 118.112 694.231 118.112C692.201 118.112 690.577 119.526 690.577 121.64ZM692.257 121.64C692.257 120.59 692.999 119.624 694.231 119.624C695.463 119.624 696.205 120.59 696.205 121.64C696.205 122.69 695.463 123.656 694.231 123.656C692.999 123.656 692.257 122.69 692.257 121.64ZM699.458 125H701.138V121.402C701.138 121.038 701.362 119.708 702.944 119.708C703.21 119.708 703.476 119.764 703.756 119.834V118.21C703.56 118.154 703.364 118.112 703.154 118.112C702.272 118.112 701.53 118.574 701.166 119.344H701.138V118.28H699.458V125Z" fill="black"/>
<rect x="628" y="150" width="551" height="56" rx="8" fill="#FEEFEF"/>
<path d="M664 184.75H648C647.869 184.75 647.74 184.715 647.626 184.651C647.512 184.586 647.417 184.493 647.35 184.38C647.286 184.265 647.252 184.136 647.252 184.005C647.252 183.874 647.286 183.745 647.35 183.63L655.35 169.63C655.421 169.523 655.518 169.435 655.631 169.374C655.744 169.313 655.871 169.281 656 169.281C656.129 169.281 656.255 169.313 656.369 169.374C656.482 169.435 656.579 169.523 656.65 169.63L664.65 183.63C664.714 183.745 664.747 183.874 664.747 184.005C664.747 184.136 664.714 184.265 664.65 184.38C664.583 184.493 664.487 184.586 664.374 184.651C664.26 184.715 664.131 184.75 664 184.75ZM649.29 183.25H662.71L656 171.51L649.29 183.25Z" fill="#DB3259"/>
<path d="M656 179.25C655.802 179.247 655.613 179.168 655.473 179.027C655.332 178.887 655.253 178.698 655.25 178.5V175C655.25 174.801 655.329 174.61 655.47 174.47C655.61 174.329 655.801 174.25 656 174.25C656.199 174.25 656.39 174.329 656.53 174.47C656.671 174.61 656.75 174.801 656.75 175V178.5C656.747 178.698 656.668 178.887 656.527 179.027C656.387 179.168 656.198 179.247 656 179.25V179.25Z" fill="#DB3259"/>
<path d="M656 182.25C655.802 182.247 655.613 182.168 655.473 182.027C655.332 181.887 655.253 181.698 655.25 181.5V181C655.25 180.801 655.329 180.61 655.47 180.47C655.61 180.329 655.801 180.25 656 180.25C656.199 180.25 656.39 180.329 656.53 180.47C656.671 180.61 656.75 180.801 656.75 181V181.5C656.747 181.698 656.668 181.887 656.527 182.027C656.387 182.168 656.198 182.247 656 182.25V182.25Z" fill="#DB3259"/>
<path d="M684.096 182.5H685.616L686.784 179.716H692.448L693.6 182.5H695.168L690.352 171.172H689.088L684.096 182.5ZM691.936 178.468H687.312L689.664 172.9H689.696L691.936 178.468ZM696.562 182.5H697.81V170.404H696.562V182.5ZM706.037 180.404C705.445 181.156 704.725 181.54 703.653 181.54C702.293 181.54 701.301 180.436 701.205 179.14H707.253V178.74C707.253 176.26 705.813 174.82 703.701 174.82C701.493 174.82 699.861 176.436 699.861 178.756C699.861 180.932 701.301 182.692 703.653 182.692C705.045 182.692 706.101 182.276 706.981 181.14L706.037 180.404ZM701.205 178.084C701.365 176.82 702.277 175.972 703.653 175.972C705.029 175.972 705.861 176.82 705.909 178.084H701.205ZM709.184 182.5H710.432V178.852C710.432 177.14 711.104 176.068 712.624 176.068C712.848 176.068 713.088 176.1 713.296 176.164L713.376 174.9C713.2 174.836 713.024 174.82 712.864 174.82C711.632 174.82 710.704 175.508 710.368 176.244H710.336C710.336 175.828 710.304 175.412 710.304 175.012H709.12C709.12 175.508 709.184 176.1 709.184 176.788V182.5ZM718.905 175.012H716.697V172.884H715.449V175.012H713.817V176.068H715.449V180.18C715.449 181.732 715.737 182.692 717.513 182.692C717.977 182.692 718.537 182.612 718.969 182.42L718.921 181.284C718.585 181.46 718.185 181.54 717.817 181.54C716.713 181.54 716.697 180.772 716.697 179.812V176.068H718.905V175.012ZM732.711 171.172H723.879V172.42H727.623V182.5H728.967V172.42H732.711V171.172ZM738.037 180.404C737.445 181.156 736.725 181.54 735.653 181.54C734.293 181.54 733.301 180.436 733.205 179.14H739.253V178.74C739.253 176.26 737.813 174.82 735.701 174.82C733.493 174.82 731.861 176.436 731.861 178.756C731.861 180.932 733.301 182.692 735.653 182.692C737.045 182.692 738.101 182.276 738.981 181.14L738.037 180.404ZM733.205 178.084C733.365 176.82 734.277 175.972 735.653 175.972C737.029 175.972 737.861 176.82 737.909 178.084H733.205ZM740.048 182.5H741.6L743.936 179.268L746.304 182.5H747.952L744.864 178.468L747.44 175.012H745.92L744.048 177.7L742.064 175.012H740.432L743.12 178.468L740.048 182.5ZM753.28 175.012H751.072V172.884H749.824V175.012H748.192V176.068H749.824V180.18C749.824 181.732 750.112 182.692 751.888 182.692C752.352 182.692 752.912 182.612 753.344 182.42L753.296 181.284C752.96 181.46 752.56 181.54 752.192 181.54C751.088 181.54 751.072 180.772 751.072 179.812V176.068H753.28V175.012Z" fill="#DB3259"/>
</svg>
