<svg width="600" height="389" viewBox="0 0 600 389" fill="none" xmlns="http://www.w3.org/2000/svg">
<g filter="url(#filter0_dd_205_32006)">
<rect x="10" y="9" width="580" height="39" fill="#3C1053"/>
<rect width="580" height="330" transform="translate(10 48)" fill="white"/>
<rect x="26" y="64" width="116" height="16" rx="2" fill="#E7EDF9"/>
<rect x="26" y="104" width="548" height="56" rx="8" fill="#FFF4EC"/>
<path d="M62.0004 138.75H46.0004C45.8694 138.75 45.7406 138.715 45.6268 138.651C45.5129 138.586 45.4177 138.493 45.3504 138.38C45.2865 138.265 45.2529 138.136 45.2529 138.005C45.2529 137.874 45.2865 137.745 45.3504 137.63L53.3504 123.63C53.4216 123.523 53.5182 123.435 53.6316 123.374C53.745 123.313 53.8717 123.281 54.0004 123.281C54.1291 123.281 54.2558 123.313 54.3693 123.374C54.4827 123.435 54.5793 123.523 54.6504 123.63L62.6504 137.63C62.7143 137.745 62.7479 137.874 62.7479 138.005C62.7479 138.136 62.7143 138.265 62.6504 138.38C62.5832 138.493 62.488 138.586 62.3741 138.651C62.2602 138.715 62.1315 138.75 62.0004 138.75ZM47.2904 137.25H60.7104L54.0004 125.51L47.2904 137.25Z" fill="#FE7355"/>
<path d="M54 133.25C53.8019 133.247 53.6126 133.168 53.4725 133.027C53.3324 132.887 53.2526 132.698 53.25 132.5V129C53.25 128.801 53.329 128.61 53.4697 128.47C53.6103 128.329 53.8011 128.25 54 128.25C54.1989 128.25 54.3897 128.329 54.5303 128.47C54.671 128.61 54.75 128.801 54.75 129V132.5C54.7474 132.698 54.6676 132.887 54.5275 133.027C54.3874 133.168 54.1981 133.247 54 133.25V133.25Z" fill="#FE7355"/>
<path d="M54 136.25C53.8019 136.247 53.6126 136.168 53.4725 136.027C53.3324 135.887 53.2526 135.698 53.25 135.5V135C53.25 134.801 53.329 134.61 53.4697 134.47C53.6103 134.329 53.8011 134.25 54 134.25C54.1989 134.25 54.3897 134.329 54.5303 134.47C54.671 134.61 54.75 134.801 54.75 135V135.5C54.7474 135.698 54.6676 135.887 54.5275 136.027C54.3874 136.168 54.1981 136.247 54 136.25V136.25Z" fill="#FE7355"/>
<path d="M82.096 136.5H83.616L84.784 133.716H90.448L91.6 136.5H93.168L88.352 125.172H87.088L82.096 136.5ZM89.936 132.468H85.312L87.664 126.9H87.696L89.936 132.468ZM94.5616 136.5H95.8096V124.404H94.5616V136.5ZM104.037 134.404C103.445 135.156 102.725 135.54 101.653 135.54C100.293 135.54 99.3014 134.436 99.2054 133.14H105.253V132.74C105.253 130.26 103.813 128.82 101.701 128.82C99.4934 128.82 97.8614 130.436 97.8614 132.756C97.8614 134.932 99.3014 136.692 101.653 136.692C103.045 136.692 104.101 136.276 104.981 135.14L104.037 134.404ZM99.2054 132.084C99.3654 130.82 100.277 129.972 101.653 129.972C103.029 129.972 103.861 130.82 103.909 132.084H99.2054ZM107.184 136.5H108.432V132.852C108.432 131.14 109.104 130.068 110.624 130.068C110.848 130.068 111.088 130.1 111.296 130.164L111.376 128.9C111.2 128.836 111.024 128.82 110.864 128.82C109.632 128.82 108.704 129.508 108.368 130.244H108.336C108.336 129.828 108.304 129.412 108.304 129.012H107.12C107.12 129.508 107.184 130.1 107.184 130.788V136.5ZM116.905 129.012H114.697V126.884H113.449V129.012H111.817V130.068H113.449V134.18C113.449 135.732 113.737 136.692 115.513 136.692C115.977 136.692 116.537 136.612 116.969 136.42L116.921 135.284C116.585 135.46 116.185 135.54 115.817 135.54C114.713 135.54 114.697 134.772 114.697 133.812V130.068H116.905V129.012ZM122.887 136.5H124.135V132.852C124.135 131.14 124.839 129.972 126.455 129.972C127.479 129.972 127.895 130.612 127.895 132.26V136.5H129.143V132.18C129.143 130.836 130.023 129.972 131.079 129.972C132.535 129.972 132.903 130.98 132.903 132.02V136.5H134.151V131.956C134.151 130.02 133.447 128.82 131.303 128.82C130.167 128.82 129.479 129.364 128.935 130.244C128.695 129.732 128.183 128.82 126.567 128.82C125.335 128.82 124.407 129.508 124.071 130.244H124.039C124.039 129.828 124.007 129.412 124.007 129.012H122.823C122.823 129.508 122.887 130.1 122.887 130.788V136.5ZM142.256 134.404C141.664 135.156 140.944 135.54 139.872 135.54C138.512 135.54 137.52 134.436 137.424 133.14H143.472V132.74C143.472 130.26 142.032 128.82 139.92 128.82C137.712 128.82 136.08 130.436 136.08 132.756C136.08 134.932 137.52 136.692 139.872 136.692C141.264 136.692 142.32 136.276 143.2 135.14L142.256 134.404ZM137.424 132.084C137.584 130.82 138.496 129.972 139.872 129.972C141.248 129.972 142.08 130.82 142.128 132.084H137.424ZM144.571 135.3C145.307 136.356 146.219 136.692 147.483 136.692C148.971 136.692 150.475 136.036 150.475 134.34C150.475 132.836 149.355 132.356 148.027 132.1C147.035 131.908 146.139 131.636 146.139 131.012C146.139 130.308 146.923 129.972 147.611 129.972C148.347 129.972 148.875 130.34 149.195 130.868L150.235 130.18C149.723 129.22 148.747 128.82 147.691 128.82C146.299 128.82 144.891 129.572 144.891 131.028C144.891 132.58 146.107 132.884 147.531 133.204C148.331 133.38 149.131 133.588 149.131 134.388C149.131 135.204 148.267 135.54 147.483 135.54C146.603 135.54 146.059 135.14 145.563 134.532L144.571 135.3ZM151.383 135.3C152.119 136.356 153.031 136.692 154.295 136.692C155.783 136.692 157.287 136.036 157.287 134.34C157.287 132.836 156.167 132.356 154.839 132.1C153.847 131.908 152.951 131.636 152.951 131.012C152.951 130.308 153.735 129.972 154.423 129.972C155.159 129.972 155.687 130.34 156.007 130.868L157.047 130.18C156.535 129.22 155.559 128.82 154.503 128.82C153.111 128.82 151.703 129.572 151.703 131.028C151.703 132.58 152.919 132.884 154.343 133.204C155.143 133.38 155.943 133.588 155.943 134.388C155.943 135.204 155.079 135.54 154.295 135.54C153.415 135.54 152.871 135.14 152.375 134.532L151.383 135.3ZM159.716 130.788C160.308 130.244 161.14 129.972 161.94 129.972C163.108 129.972 163.796 130.532 163.796 131.62V131.844H163.316C161.476 131.844 158.596 131.988 158.596 134.468C158.596 135.924 159.86 136.692 161.38 136.692C162.516 136.692 163.348 136.148 163.844 135.38H163.876C163.876 135.7 163.876 136.164 163.956 136.5H165.156C165.092 136.116 165.044 135.636 165.044 135.204V131.988C165.044 129.876 164.116 128.82 161.908 128.82C160.82 128.82 159.7 129.188 158.932 129.972L159.716 130.788ZM163.796 132.9V133.38C163.764 134.596 163.028 135.636 161.588 135.636C160.644 135.636 159.94 135.284 159.94 134.34C159.94 133.332 160.964 132.9 162.548 132.9H163.796ZM174.797 129.012H173.549V130.292H173.517C173.021 129.3 171.885 128.82 170.877 128.82C168.493 128.82 166.893 130.308 166.893 132.756C166.893 134.964 168.525 136.596 170.877 136.596C171.869 136.596 172.925 136.164 173.517 135.204H173.549V136.164C173.549 137.748 172.957 139.188 170.717 139.188C169.565 139.188 168.717 138.74 167.933 137.892L167.037 138.916C168.093 139.956 169.261 140.34 170.717 140.34C173.341 140.34 174.797 138.868 174.797 136.164V129.012ZM168.237 132.756C168.237 131.188 169.309 129.972 170.877 129.972C172.461 129.972 173.549 131.108 173.549 132.724C173.549 134.164 172.589 135.444 170.877 135.444C169.421 135.444 168.237 134.276 168.237 132.756ZM182.85 134.404C182.258 135.156 181.538 135.54 180.466 135.54C179.106 135.54 178.114 134.436 178.018 133.14H184.066V132.74C184.066 130.26 182.626 128.82 180.514 128.82C178.306 128.82 176.674 130.436 176.674 132.756C176.674 134.932 178.114 136.692 180.466 136.692C181.858 136.692 182.914 136.276 183.794 135.14L182.85 134.404ZM178.018 132.084C178.178 130.82 179.09 129.972 180.466 129.972C181.842 129.972 182.674 130.82 182.722 132.084H178.018Z" fill="#FE7355"/>
<path d="M547.06 132L551.48 127.58C551.554 127.511 551.613 127.428 551.654 127.336C551.695 127.244 551.717 127.145 551.719 127.044C551.72 126.944 551.702 126.844 551.664 126.75C551.627 126.657 551.57 126.572 551.499 126.501C551.428 126.43 551.343 126.374 551.25 126.336C551.156 126.298 551.056 126.28 550.956 126.281C550.855 126.283 550.756 126.305 550.664 126.346C550.572 126.387 550.489 126.446 550.42 126.52L546 130.94L541.58 126.52C541.438 126.387 541.25 126.315 541.056 126.319C540.861 126.322 540.676 126.401 540.538 126.538C540.401 126.676 540.322 126.861 540.319 127.055C540.316 127.25 540.388 127.438 540.52 127.58L544.94 132L540.52 136.42C540.38 136.561 540.301 136.751 540.301 136.95C540.301 137.149 540.38 137.339 540.52 137.48C540.661 137.62 540.851 137.699 541.05 137.699C541.249 137.699 541.439 137.62 541.58 137.48L546 133.06L550.42 137.48C550.561 137.62 550.751 137.699 550.95 137.699C551.149 137.699 551.339 137.62 551.48 137.48C551.621 137.339 551.699 137.149 551.699 136.95C551.699 136.751 551.621 136.561 551.48 136.42L547.06 132Z" fill="#6B778C"/>
<rect x="26" y="184" width="262.5" height="178" rx="2" fill="#E7EDF9"/>
<rect x="311.5" y="184" width="262.5" height="178" rx="2" fill="#E7EDF9"/>
</g>
<defs>
<filter id="filter0_dd_205_32006" x="0" y="0" width="600" height="389" filterUnits="userSpaceOnUse" color-interpolation-filters="sRGB">
<feFlood flood-opacity="0" result="BackgroundImageFix"/>
<feColorMatrix in="SourceAlpha" type="matrix" values="0 0 0 0 0 0 0 0 0 0 0 0 0 0 0 0 0 0 127 0" result="hardAlpha"/>
<feOffset dy="2"/>
<feGaussianBlur stdDeviation="2"/>
<feColorMatrix type="matrix" values="0 0 0 0 0 0 0 0 0 0 0 0 0 0 0 0 0 0 0.1 0"/>
<feBlend mode="normal" in2="BackgroundImageFix" result="effect1_dropShadow_205_32006"/>
<feColorMatrix in="SourceAlpha" type="matrix" values="0 0 0 0 0 0 0 0 0 0 0 0 0 0 0 0 0 0 127 0" result="hardAlpha"/>
<feOffset dy="1"/>
<feGaussianBlur stdDeviation="5"/>
<feComposite in2="hardAlpha" operator="out"/>
<feColorMatrix type="matrix" values="0 0 0 0 0 0 0 0 0 0 0 0 0 0 0 0 0 0 0.12 0"/>
<feBlend mode="normal" in2="effect1_dropShadow_205_32006" result="effect2_dropShadow_205_32006"/>
<feBlend mode="normal" in="SourceGraphic" in2="effect2_dropShadow_205_32006" result="shape"/>
</filter>
</defs>
</svg>
