<svg width="1940" height="363" viewBox="0 0 1940 363" fill="none" xmlns="http://www.w3.org/2000/svg">
<rect width="1920" height="64" transform="translate(10)" fill="#34B9B3"/>
<path d="M936.296 25.256H941.03C941.69 25.256 942.314 25.316 942.902 25.436C943.49 25.556 944 25.766 944.432 26.066C944.876 26.354 945.224 26.75 945.476 27.254C945.74 27.746 945.872 28.37 945.872 29.126C945.872 29.87 945.752 30.494 945.512 30.998C945.272 31.502 944.942 31.904 944.522 32.204C944.102 32.504 943.604 32.72 943.028 32.852C942.452 32.972 941.828 33.032 941.156 33.032H939.104V38H936.296V25.256ZM939.104 30.656H940.976C941.228 30.656 941.468 30.632 941.696 30.584C941.936 30.536 942.146 30.458 942.326 30.35C942.518 30.23 942.668 30.074 942.776 29.882C942.896 29.678 942.956 29.426 942.956 29.126C942.956 28.802 942.878 28.544 942.722 28.352C942.578 28.148 942.386 27.992 942.146 27.884C941.918 27.776 941.66 27.71 941.372 27.686C941.084 27.65 940.808 27.632 940.544 27.632H939.104V30.656ZM947.292 29.252H949.992V30.656H950.028C950.316 30.116 950.658 29.714 951.054 29.45C951.45 29.174 951.948 29.036 952.548 29.036C952.704 29.036 952.86 29.042 953.016 29.054C953.172 29.066 953.316 29.09 953.448 29.126V31.592C953.256 31.532 953.064 31.49 952.872 31.466C952.692 31.43 952.5 31.412 952.296 31.412C951.78 31.412 951.372 31.484 951.072 31.628C950.772 31.772 950.538 31.976 950.37 32.24C950.214 32.492 950.112 32.798 950.064 33.158C950.016 33.518 949.992 33.914 949.992 34.346V38H947.292V29.252ZM962.586 36.488C962.154 37.04 961.608 37.466 960.948 37.766C960.288 38.066 959.604 38.216 958.896 38.216C958.224 38.216 957.588 38.108 956.988 37.892C956.4 37.676 955.884 37.37 955.44 36.974C955.008 36.566 954.666 36.08 954.414 35.516C954.162 34.952 954.036 34.322 954.036 33.626C954.036 32.93 954.162 32.3 954.414 31.736C954.666 31.172 955.008 30.692 955.44 30.296C955.884 29.888 956.4 29.576 956.988 29.36C957.588 29.144 958.224 29.036 958.896 29.036C959.52 29.036 960.084 29.144 960.588 29.36C961.104 29.576 961.536 29.888 961.884 30.296C962.244 30.692 962.52 31.172 962.712 31.736C962.904 32.3 963 32.93 963 33.626V34.472H956.736C956.844 34.988 957.078 35.402 957.438 35.714C957.798 36.014 958.242 36.164 958.77 36.164C959.214 36.164 959.586 36.068 959.886 35.876C960.198 35.672 960.468 35.414 960.696 35.102L962.586 36.488ZM960.3 32.636C960.312 32.18 960.162 31.79 959.85 31.466C959.538 31.142 959.136 30.98 958.644 30.98C958.344 30.98 958.08 31.028 957.852 31.124C957.624 31.22 957.426 31.346 957.258 31.502C957.102 31.646 956.976 31.82 956.88 32.024C956.796 32.216 956.748 32.42 956.736 32.636H960.3ZM964.894 29.252H967.378V30.404H967.414C967.522 30.248 967.66 30.092 967.828 29.936C968.008 29.768 968.212 29.618 968.439 29.486C968.68 29.354 968.938 29.246 969.214 29.162C969.49 29.078 969.784 29.036 970.096 29.036C970.744 29.036 971.332 29.15 971.86 29.378C972.388 29.594 972.838 29.906 973.21 30.314C973.594 30.71 973.888 31.184 974.092 31.736C974.296 32.288 974.398 32.894 974.398 33.554C974.398 34.166 974.302 34.754 974.11 35.318C973.93 35.87 973.666 36.362 973.318 36.794C972.982 37.226 972.568 37.574 972.076 37.838C971.584 38.09 971.026 38.216 970.402 38.216C969.838 38.216 969.31 38.132 968.818 37.964C968.338 37.784 967.942 37.484 967.63 37.064H967.594V42.104H964.894V29.252ZM967.378 33.626C967.378 34.286 967.564 34.82 967.936 35.228C968.32 35.636 968.854 35.84 969.538 35.84C970.222 35.84 970.75 35.636 971.122 35.228C971.506 34.82 971.698 34.286 971.698 33.626C971.698 32.966 971.506 32.432 971.122 32.024C970.75 31.616 970.222 31.412 969.538 31.412C968.854 31.412 968.32 31.616 967.936 32.024C967.564 32.432 967.378 32.966 967.378 33.626ZM975.979 29.252H978.679V30.656H978.715C979.003 30.116 979.345 29.714 979.741 29.45C980.137 29.174 980.635 29.036 981.235 29.036C981.391 29.036 981.547 29.042 981.703 29.054C981.859 29.066 982.003 29.09 982.135 29.126V31.592C981.943 31.532 981.751 31.49 981.559 31.466C981.379 31.43 981.187 31.412 980.983 31.412C980.467 31.412 980.059 31.484 979.759 31.628C979.459 31.772 979.225 31.976 979.057 32.24C978.901 32.492 978.799 32.798 978.751 33.158C978.703 33.518 978.679 33.914 978.679 34.346V38H975.979V29.252ZM982.669 33.626C982.669 32.93 982.795 32.3 983.047 31.736C983.299 31.172 983.641 30.692 984.073 30.296C984.517 29.888 985.033 29.576 985.621 29.36C986.221 29.144 986.857 29.036 987.529 29.036C988.201 29.036 988.831 29.144 989.419 29.36C990.019 29.576 990.535 29.888 990.967 30.296C991.411 30.692 991.759 31.172 992.011 31.736C992.263 32.3 992.389 32.93 992.389 33.626C992.389 34.322 992.263 34.952 992.011 35.516C991.759 36.08 991.411 36.566 990.967 36.974C990.535 37.37 990.019 37.676 989.419 37.892C988.831 38.108 988.201 38.216 987.529 38.216C986.857 38.216 986.221 38.108 985.621 37.892C985.033 37.676 984.517 37.37 984.073 36.974C983.641 36.566 983.299 36.08 983.047 35.516C982.795 34.952 982.669 34.322 982.669 33.626ZM985.369 33.626C985.369 34.286 985.555 34.82 985.927 35.228C986.311 35.636 986.845 35.84 987.529 35.84C988.213 35.84 988.741 35.636 989.113 35.228C989.497 34.82 989.689 34.286 989.689 33.626C989.689 32.966 989.497 32.432 989.113 32.024C988.741 31.616 988.213 31.412 987.529 31.412C986.845 31.412 986.311 31.616 985.927 32.024C985.555 32.432 985.369 32.966 985.369 33.626ZM1003.16 38H1000.68V36.848H1000.64C1000.53 37.004 1000.39 37.166 1000.21 37.334C1000.04 37.49 999.835 37.634 999.595 37.766C999.367 37.898 999.109 38.006 998.821 38.09C998.545 38.174 998.257 38.216 997.957 38.216C997.309 38.216 996.721 38.108 996.193 37.892C995.665 37.664 995.209 37.352 994.825 36.956C994.453 36.548 994.165 36.068 993.961 35.516C993.757 34.964 993.655 34.358 993.655 33.698C993.655 33.086 993.745 32.504 993.925 31.952C994.117 31.388 994.381 30.89 994.717 30.458C995.065 30.026 995.485 29.684 995.977 29.432C996.469 29.168 997.027 29.036 997.651 29.036C998.215 29.036 998.737 29.126 999.217 29.306C999.709 29.474 1000.11 29.768 1000.42 30.188H1000.46V24.392H1003.16V38ZM1000.68 33.626C1000.68 32.966 1000.48 32.432 1000.1 32.024C999.727 31.616 999.199 31.412 998.515 31.412C997.831 31.412 997.297 31.616 996.913 32.024C996.541 32.432 996.355 32.966 996.355 33.626C996.355 34.286 996.541 34.82 996.913 35.228C997.297 35.636 997.831 35.84 998.515 35.84C999.199 35.84 999.727 35.636 1000.1 35.228C1000.48 34.82 1000.68 34.286 1000.68 33.626Z" fill="white"/>
<g clip-path="url(#clip0_51_14786)" filter="url(#filter0_dd_51_14786)">
<rect width="1920" height="288" transform="translate(10 64)" fill="white"/>
<g clip-path="url(#clip1_51_14786)" filter="url(#filter1_dd_51_14786)">
<rect width="1920" height="288" transform="translate(10 64)" fill="white"/>
<line x1="10" y1="215.5" x2="1936" y2="215.5" stroke="#D2D6DD"/>
<mask id="path-3-inside-1_51_14786" fill="white">
<path d="M10 128H1930V216H10V128Z"/>
</mask>
<path d="M10 128H1930V216H10V128Z" fill="white"/>
<path d="M76.304 180H81.296V171.168H84.944C89.712 171.168 93.328 169.536 93.328 164.224C93.328 158.848 89.424 157.344 84.72 157.344H76.304V180ZM81.296 161.568H83.856C85.776 161.568 88.144 161.888 88.144 164.224C88.144 166.336 86.384 166.944 84.624 166.944H81.296V161.568ZM105.612 180H110.028V172.096C110.028 166.912 108.524 164.064 102.924 164.064C100.396 164.064 97.8363 164.896 96.0763 166.56L98.6363 169.184C99.6603 168.032 100.972 167.328 102.54 167.328C104.204 167.328 105.612 168.416 105.612 170.112C101.612 170.112 95.0843 170.208 95.0843 175.584C95.0843 178.72 97.7083 180.384 100.62 180.384C102.572 180.384 104.492 179.712 105.548 178.048H105.612V180ZM105.612 173.184V174.208C105.612 176.128 103.852 177.12 101.964 177.12C100.908 177.12 99.6923 176.576 99.6923 175.424C99.6923 173.312 102.956 173.184 104.428 173.184H105.612ZM129.36 164.448H124.944V166.496H124.88C124.144 165.376 122.288 164.064 119.568 164.064C115.152 164.064 112.464 168.032 112.464 172.16C112.464 176.864 115.504 180.192 120.112 180.192C121.552 180.192 123.408 179.648 124.496 178.144H124.56V179.648C124.56 181.856 123.184 183.456 120.272 183.456C118.32 183.456 116.688 182.688 115.216 181.44L112.56 185.408C114.8 187.2 117.616 187.68 120.368 187.68C126.384 187.68 129.36 184.544 129.36 178.688V164.448ZM117.264 172.128C117.264 170.112 118.928 168.288 121.104 168.288C123.28 168.288 124.944 170.112 124.944 172.128C124.944 174.144 123.28 175.968 121.104 175.968C118.928 175.968 117.264 174.144 117.264 172.128ZM144.556 174.848C143.756 175.936 142.7 176.736 141.132 176.736C139.276 176.736 137.9 175.552 137.516 173.728H148.652V172.224C148.652 167.264 145.836 164.064 141.356 164.064C136.556 164.064 132.716 167.264 132.716 172.224C132.716 177.184 136.556 180.384 141.356 180.384C143.852 180.384 146.38 179.264 147.916 177.312L144.556 174.848ZM137.516 170.464C137.644 168.96 138.796 167.52 140.908 167.52C142.636 167.52 143.884 168.864 143.852 170.464H137.516ZM161.04 155.808V180H165.84V172.256C165.84 170.24 166.224 168.288 168.72 168.288C171.184 168.288 171.216 170.592 171.216 172.384V180H176.016V171.424C176.016 167.264 175.12 164.064 170.256 164.064C167.92 164.064 166.352 165.344 165.904 166.56H165.84V155.808H161.04ZM190.775 174.848C189.975 175.936 188.919 176.736 187.351 176.736C185.495 176.736 184.119 175.552 183.735 173.728H194.871V172.224C194.871 167.264 192.055 164.064 187.575 164.064C182.775 164.064 178.935 167.264 178.935 172.224C178.935 177.184 182.775 180.384 187.575 180.384C190.071 180.384 192.599 179.264 194.135 177.312L190.775 174.848ZM183.735 170.464C183.863 168.96 185.015 167.52 187.127 167.52C188.855 167.52 190.103 168.864 190.071 170.464H183.735ZM207.55 180H211.966V172.096C211.966 166.912 210.462 164.064 204.862 164.064C202.334 164.064 199.774 164.896 198.014 166.56L200.574 169.184C201.598 168.032 202.91 167.328 204.478 167.328C206.142 167.328 207.55 168.416 207.55 170.112C203.55 170.112 197.022 170.208 197.022 175.584C197.022 178.72 199.646 180.384 202.558 180.384C204.51 180.384 206.43 179.712 207.486 178.048H207.55V180ZM207.55 173.184V174.208C207.55 176.128 205.79 177.12 203.902 177.12C202.846 177.12 201.63 176.576 201.63 175.424C201.63 173.312 204.894 173.184 206.366 173.184H207.55ZM231.297 155.808H226.497V166.112H226.433C225.345 164.608 223.489 164.064 221.505 164.064C217.089 164.064 214.401 168.032 214.401 172.352C214.401 177.056 217.441 180.384 222.049 180.384C224.225 180.384 226.081 179.072 226.817 177.952H226.881V180H231.297V155.808ZM226.881 172.224C226.881 174.56 225.441 176.16 223.041 176.16C220.641 176.16 219.201 174.56 219.201 172.224C219.201 169.888 220.641 168.288 223.041 168.288C225.441 168.288 226.881 169.888 226.881 172.224ZM235.198 180H239.998V164.448H235.198V180ZM234.814 159.552C234.814 161.088 236.062 162.336 237.598 162.336C239.134 162.336 240.382 161.088 240.382 159.552C240.382 158.016 239.134 156.768 237.598 156.768C236.062 156.768 234.814 158.016 234.814 159.552ZM243.446 180H248.246V172.256C248.246 170.24 248.63 168.288 251.126 168.288C253.59 168.288 253.622 170.592 253.622 172.384V180H258.422V171.424C258.422 167.264 257.526 164.064 252.662 164.064C250.326 164.064 248.758 165.344 248.118 166.56H248.054V164.448H243.446V180ZM278.141 164.448H273.725V166.496H273.661C272.925 165.376 271.069 164.064 268.349 164.064C263.933 164.064 261.245 168.032 261.245 172.16C261.245 176.864 264.285 180.192 268.893 180.192C270.333 180.192 272.189 179.648 273.277 178.144H273.341V179.648C273.341 181.856 271.965 183.456 269.053 183.456C267.101 183.456 265.469 182.688 263.997 181.44L261.341 185.408C263.581 187.2 266.397 187.68 269.149 187.68C275.165 187.68 278.141 184.544 278.141 178.688V164.448ZM266.045 172.128C266.045 170.112 267.709 168.288 269.885 168.288C272.061 168.288 273.725 170.112 273.725 172.128C273.725 174.144 272.061 175.968 269.885 175.968C267.709 175.968 266.045 174.144 266.045 172.128Z" fill="#502252"/>
<path d="M1930 215H10V217H1930V215Z" fill="#D2D6DD" mask="url(#path-3-inside-1_51_14786)"/>
<rect width="1920" height="50" transform="translate(10 302)" fill="#D8D8D8"/>
<rect x="10" y="302" width="1920" height="50" fill="white"/>
<path d="M1806.66 330.488C1806.49 331.256 1806.14 331.864 1805.61 332.312C1805.07 332.76 1804.44 332.984 1803.7 332.984C1803.16 332.984 1802.67 332.893 1802.23 332.712C1801.79 332.52 1801.42 332.264 1801.11 331.944C1800.8 331.613 1800.56 331.229 1800.39 330.792C1800.23 330.344 1800.15 329.859 1800.15 329.336C1800.15 328.813 1800.23 328.328 1800.39 327.88C1800.55 327.432 1800.78 327.048 1801.08 326.728C1801.38 326.408 1801.75 326.157 1802.18 325.976C1802.62 325.795 1803.11 325.704 1803.65 325.704C1804.03 325.704 1804.38 325.757 1804.71 325.864C1805.05 325.96 1805.36 326.109 1805.62 326.312C1805.89 326.515 1806.11 326.771 1806.28 327.08C1806.46 327.379 1806.58 327.725 1806.65 328.12H1805.67C1805.59 327.672 1805.36 327.304 1805 327.016C1804.65 326.717 1804.2 326.568 1803.67 326.568C1803.28 326.568 1802.92 326.643 1802.61 326.792C1802.31 326.931 1802.04 327.123 1801.83 327.368C1801.63 327.613 1801.47 327.907 1801.37 328.248C1801.26 328.579 1801.21 328.941 1801.21 329.336C1801.21 329.709 1801.27 330.067 1801.38 330.408C1801.5 330.739 1801.67 331.032 1801.88 331.288C1802.1 331.544 1802.36 331.747 1802.66 331.896C1802.97 332.045 1803.32 332.12 1803.7 332.12C1804.24 332.12 1804.68 331.965 1805.03 331.656C1805.38 331.347 1805.6 330.957 1805.67 330.488H1806.66ZM1797.51 329.336C1797.51 328.493 1797.67 327.709 1797.97 326.984C1798.29 326.248 1798.73 325.619 1799.27 325.096C1799.81 324.563 1800.44 324.147 1801.16 323.848C1801.88 323.539 1802.65 323.384 1803.46 323.384C1804.27 323.384 1805.04 323.539 1805.75 323.848C1806.48 324.147 1807.11 324.563 1807.65 325.096C1808.2 325.619 1808.63 326.248 1808.93 326.984C1809.25 327.709 1809.41 328.493 1809.41 329.336C1809.41 330.189 1809.25 330.979 1808.93 331.704C1808.63 332.429 1808.2 333.059 1807.65 333.592C1807.11 334.115 1806.48 334.531 1805.75 334.84C1805.04 335.139 1804.27 335.288 1803.46 335.288C1802.65 335.288 1801.88 335.139 1801.16 334.84C1800.44 334.531 1799.81 334.115 1799.27 333.592C1798.73 333.059 1798.29 332.429 1797.97 331.704C1797.67 330.979 1797.51 330.189 1797.51 329.336ZM1798.57 329.336C1798.57 330.061 1798.69 330.733 1798.95 331.352C1799.21 331.971 1799.55 332.509 1799.99 332.968C1800.43 333.416 1800.95 333.773 1801.54 334.04C1802.14 334.296 1802.78 334.424 1803.46 334.424C1804.15 334.424 1804.78 334.296 1805.37 334.04C1805.96 333.773 1806.48 333.416 1806.92 332.968C1807.37 332.509 1807.72 331.971 1807.97 331.352C1808.23 330.733 1808.36 330.061 1808.36 329.336C1808.36 328.621 1808.23 327.955 1807.97 327.336C1807.72 326.707 1807.37 326.168 1806.92 325.72C1806.48 325.261 1805.96 324.904 1805.37 324.648C1804.78 324.381 1804.15 324.248 1803.46 324.248C1802.78 324.248 1802.14 324.381 1801.54 324.648C1800.95 324.904 1800.43 325.261 1799.99 325.72C1799.55 326.168 1799.21 326.707 1798.95 327.336C1798.69 327.955 1798.57 328.621 1798.57 329.336ZM1815.11 333.464L1819.38 329.304C1819.65 329.048 1819.89 328.813 1820.09 328.6C1820.29 328.376 1820.46 328.163 1820.58 327.96C1820.72 327.747 1820.82 327.528 1820.89 327.304C1820.95 327.08 1820.98 326.829 1820.98 326.552C1820.98 326.253 1820.93 325.987 1820.82 325.752C1820.72 325.517 1820.57 325.32 1820.38 325.16C1820.2 324.989 1819.98 324.861 1819.72 324.776C1819.48 324.68 1819.21 324.632 1818.92 324.632C1818.34 324.632 1817.87 324.797 1817.5 325.128C1817.12 325.459 1816.88 325.896 1816.78 326.44L1815.32 326.312C1815.4 325.853 1815.53 325.448 1815.74 325.096C1815.95 324.733 1816.21 324.435 1816.52 324.2C1816.84 323.965 1817.2 323.789 1817.59 323.672C1817.99 323.544 1818.41 323.48 1818.87 323.48C1819.34 323.48 1819.78 323.549 1820.2 323.688C1820.62 323.816 1820.98 324.008 1821.29 324.264C1821.61 324.52 1821.86 324.84 1822.04 325.224C1822.23 325.608 1822.33 326.051 1822.33 326.552C1822.33 327 1822.26 327.405 1822.14 327.768C1822.02 328.131 1821.85 328.467 1821.64 328.776C1821.44 329.075 1821.2 329.363 1820.94 329.64C1820.68 329.907 1820.41 330.173 1820.12 330.44L1816.63 333.72V333.752H1822.41V335H1815.11V333.464ZM1823.81 329.336C1823.81 328.696 1823.86 328.029 1823.97 327.336C1824.08 326.643 1824.28 326.013 1824.56 325.448C1824.85 324.872 1825.24 324.403 1825.73 324.04C1826.23 323.667 1826.87 323.48 1827.65 323.48C1828.43 323.48 1829.06 323.667 1829.56 324.04C1830.06 324.403 1830.45 324.872 1830.74 325.448C1831.03 326.013 1831.22 326.643 1831.33 327.336C1831.44 328.029 1831.49 328.696 1831.49 329.336C1831.49 329.976 1831.44 330.643 1831.33 331.336C1831.22 332.029 1831.03 332.664 1830.74 333.24C1830.45 333.805 1830.06 334.275 1829.56 334.648C1829.06 335.011 1828.43 335.192 1827.65 335.192C1826.87 335.192 1826.23 335.011 1825.73 334.648C1825.24 334.275 1824.85 333.805 1824.56 333.24C1824.28 332.664 1824.08 332.029 1823.97 331.336C1823.86 330.643 1823.81 329.976 1823.81 329.336ZM1825.16 329.336C1825.16 329.613 1825.17 329.923 1825.19 330.264C1825.21 330.605 1825.25 330.952 1825.3 331.304C1825.36 331.645 1825.45 331.981 1825.56 332.312C1825.67 332.643 1825.82 332.936 1826 333.192C1826.2 333.448 1826.42 333.656 1826.69 333.816C1826.96 333.965 1827.28 334.04 1827.65 334.04C1828.02 334.04 1828.34 333.965 1828.61 333.816C1828.88 333.656 1829.1 333.448 1829.28 333.192C1829.48 332.936 1829.62 332.643 1829.73 332.312C1829.85 331.981 1829.93 331.645 1829.99 331.304C1830.05 330.952 1830.09 330.605 1830.12 330.264C1830.14 329.923 1830.15 329.613 1830.15 329.336C1830.15 329.059 1830.14 328.749 1830.12 328.408C1830.09 328.067 1830.05 327.725 1829.99 327.384C1829.93 327.032 1829.85 326.691 1829.73 326.36C1829.62 326.029 1829.48 325.736 1829.28 325.48C1829.1 325.224 1828.88 325.021 1828.61 324.872C1828.34 324.712 1828.02 324.632 1827.65 324.632C1827.28 324.632 1826.96 324.712 1826.69 324.872C1826.42 325.021 1826.2 325.224 1826 325.48C1825.82 325.736 1825.67 326.029 1825.56 326.36C1825.45 326.691 1825.36 327.032 1825.3 327.384C1825.25 327.725 1825.21 328.067 1825.19 328.408C1825.17 328.749 1825.16 329.059 1825.16 329.336ZM1832.89 333.464L1837.17 329.304C1837.43 329.048 1837.67 328.813 1837.87 328.6C1838.07 328.376 1838.24 328.163 1838.37 327.96C1838.5 327.747 1838.61 327.528 1838.67 327.304C1838.73 327.08 1838.77 326.829 1838.77 326.552C1838.77 326.253 1838.71 325.987 1838.61 325.752C1838.5 325.517 1838.35 325.32 1838.16 325.16C1837.98 324.989 1837.76 324.861 1837.5 324.776C1837.26 324.68 1836.99 324.632 1836.7 324.632C1836.13 324.632 1835.65 324.797 1835.28 325.128C1834.9 325.459 1834.66 325.896 1834.56 326.44L1833.1 326.312C1833.18 325.853 1833.32 325.448 1833.52 325.096C1833.73 324.733 1833.99 324.435 1834.3 324.2C1834.62 323.965 1834.98 323.789 1835.37 323.672C1835.77 323.544 1836.2 323.48 1836.65 323.48C1837.12 323.48 1837.57 323.549 1837.98 323.688C1838.4 323.816 1838.76 324.008 1839.07 324.264C1839.39 324.52 1839.64 324.84 1839.82 325.224C1840.01 325.608 1840.11 326.051 1840.11 326.552C1840.11 327 1840.05 327.405 1839.92 327.768C1839.8 328.131 1839.64 328.467 1839.42 328.776C1839.22 329.075 1838.98 329.363 1838.72 329.64C1838.46 329.907 1838.19 330.173 1837.9 330.44L1834.41 333.72V333.752H1840.19V335H1832.89V333.464ZM1841.78 333.464L1846.06 329.304C1846.32 329.048 1846.56 328.813 1846.76 328.6C1846.96 328.376 1847.13 328.163 1847.26 327.96C1847.4 327.747 1847.5 327.528 1847.56 327.304C1847.62 327.08 1847.66 326.829 1847.66 326.552C1847.66 326.253 1847.6 325.987 1847.5 325.752C1847.39 325.517 1847.24 325.32 1847.05 325.16C1846.87 324.989 1846.65 324.861 1846.39 324.776C1846.15 324.68 1845.88 324.632 1845.59 324.632C1845.02 324.632 1844.54 324.797 1844.17 325.128C1843.8 325.459 1843.56 325.896 1843.45 326.44L1841.99 326.312C1842.07 325.853 1842.21 325.448 1842.41 325.096C1842.62 324.733 1842.88 324.435 1843.19 324.2C1843.51 323.965 1843.87 323.789 1844.26 323.672C1844.66 323.544 1845.09 323.48 1845.54 323.48C1846.01 323.48 1846.46 323.549 1846.87 323.688C1847.29 323.816 1847.65 324.008 1847.96 324.264C1848.28 324.52 1848.53 324.84 1848.71 325.224C1848.9 325.608 1849 326.051 1849 326.552C1849 327 1848.94 327.405 1848.81 327.768C1848.69 328.131 1848.53 328.467 1848.31 328.776C1848.11 329.075 1847.88 329.363 1847.61 329.64C1847.35 329.907 1847.08 330.173 1846.79 330.44L1843.3 333.72V333.752H1849.08V335H1841.78V333.464ZM1859.42 323.672H1860.68L1865.5 335H1863.93L1862.78 332.216H1857.11L1855.94 335H1854.42L1859.42 323.672ZM1860.02 325.4H1859.99L1857.64 330.968H1862.26L1860.02 325.4ZM1867 323.672H1874.12V324.92H1868.35V328.472H1873.74V329.72H1868.35V333.752H1874.41V335H1867V323.672ZM1876.49 323.672H1878.49L1882.33 332.552H1882.36L1886.23 323.672H1888.18V335H1886.84V325.496H1886.81L1882.74 335H1881.93L1877.86 325.496H1877.83V335H1876.49V323.672ZM1896.27 335.288C1895.4 335.288 1894.61 335.139 1893.88 334.84C1893.17 334.541 1892.54 334.131 1892.01 333.608C1891.49 333.075 1891.08 332.445 1890.78 331.72C1890.49 330.984 1890.35 330.189 1890.35 329.336C1890.35 328.483 1890.49 327.693 1890.78 326.968C1891.08 326.232 1891.49 325.603 1892.01 325.08C1892.54 324.547 1893.17 324.131 1893.88 323.832C1894.61 323.533 1895.4 323.384 1896.27 323.384C1897.13 323.384 1897.92 323.533 1898.63 323.832C1899.36 324.131 1899.98 324.547 1900.51 325.08C1901.04 325.603 1901.45 326.232 1901.74 326.968C1902.04 327.693 1902.19 328.483 1902.19 329.336C1902.19 330.189 1902.04 330.984 1901.74 331.72C1901.45 332.445 1901.04 333.075 1900.51 333.608C1899.98 334.131 1899.36 334.541 1898.63 334.84C1897.92 335.139 1897.13 335.288 1896.27 335.288ZM1896.27 334.04C1896.93 334.04 1897.53 333.917 1898.07 333.672C1898.63 333.427 1899.1 333.091 1899.5 332.664C1899.89 332.237 1900.2 331.741 1900.41 331.176C1900.63 330.6 1900.75 329.987 1900.75 329.336C1900.75 328.685 1900.63 328.077 1900.41 327.512C1900.2 326.936 1899.89 326.435 1899.5 326.008C1899.1 325.581 1898.63 325.245 1898.07 325C1897.53 324.755 1896.93 324.632 1896.27 324.632C1895.6 324.632 1895 324.755 1894.44 325C1893.9 325.245 1893.43 325.581 1893.03 326.008C1892.64 326.435 1892.33 326.936 1892.11 327.512C1891.89 328.077 1891.79 328.685 1891.79 329.336C1891.79 329.987 1891.89 330.6 1892.11 331.176C1892.33 331.741 1892.64 332.237 1893.03 332.664C1893.43 333.091 1893.9 333.427 1894.44 333.672C1895 333.917 1895.6 334.04 1896.27 334.04Z" fill="#6B778C"/>
<path fill-rule="evenodd" clip-rule="evenodd" d="M1776.07 323.354C1775.2 323.467 1774.32 323.606 1773.44 323.772C1767.96 324.8 1763.52 326.68 1760.78 328.857C1759.4 329.843 1758.39 331.22 1757.88 332.793C1758.12 331.234 1759.2 329.676 1761 328.246C1763.87 325.949 1768.56 323.989 1774.32 322.904L1775.05 322.776L1774.75 322.623L1774.21 322.72C1768.33 323.82 1763.6 325.82 1760.67 328.158C1759.2 329.21 1758.12 330.681 1757.58 332.358C1757.83 330.696 1759 329.033 1760.94 327.539C1763.75 325.298 1768.17 323.354 1773.62 322.149L1773.26 322.013C1767.82 323.242 1763.42 325.226 1760.6 327.451C1759.01 328.549 1757.84 330.098 1757.24 331.877C1757.51 330.102 1758.76 328.318 1760.81 326.688C1764.11 324.276 1767.9 322.531 1771.93 321.555L1771.48 321.434C1767.48 322.44 1763.73 324.198 1760.45 326.607C1758.77 327.812 1757.52 329.501 1756.91 331.427C1757.19 329.523 1758.54 327.628 1760.72 325.876C1763.51 323.79 1766.65 322.185 1770.01 321.137L1769.45 321.057C1766.15 322.112 1763.06 323.701 1760.33 325.756C1758.53 327.042 1757.2 328.843 1756.54 330.897C1756.85 328.865 1758.28 326.832 1760.62 324.961C1762.81 323.3 1765.24 321.947 1767.83 320.944H1767.11C1764.62 321.948 1762.3 323.275 1760.19 324.888C1758.03 326.623 1756.61 328.503 1756.14 330.391C1756.47 328.222 1758 326.045 1760.51 324.045C1762 322.881 1763.61 321.869 1765.32 321.025L1764.68 321.097L1764.38 321.137C1762.85 321.907 1761.39 322.813 1760.04 323.844C1757.73 325.724 1756.23 327.732 1755.72 329.756C1756.08 327.435 1757.72 325.105 1760.4 322.961C1761.01 322.471 1761.72 321.981 1762.42 321.507C1761.96 321.634 1761.5 321.787 1761.06 321.964C1760.64 322.201 1760.25 322.491 1759.91 322.824C1753.25 327.812 1753.32 334.953 1760.38 337.652L1760.23 337.5C1760.05 337.318 1759.88 337.138 1759.73 336.962L1759.57 336.769C1759.41 336.568 1759.27 336.367 1759.14 336.174L1759 335.95C1758.88 335.739 1758.77 335.522 1758.67 335.299L1758.56 335.034C1758.48 334.79 1758.41 334.541 1758.36 334.287C1758.37 334.178 1758.35 334.067 1758.31 333.965C1758.29 333.72 1758.29 333.472 1758.31 333.226C1758.29 333.095 1758.29 332.963 1758.31 332.833C1758.35 332.579 1758.42 332.329 1758.5 332.086C1758.55 331.936 1758.61 331.789 1758.68 331.644C1758.82 331.368 1758.97 331.1 1759.13 330.841C1759.65 330.097 1760.3 329.441 1761.04 328.897C1764.74 326.345 1769 324.635 1773.5 323.9C1774.42 323.724 1775.35 323.587 1776.27 323.467L1776.03 323.314" fill="#6B778C"/>
<path fill-rule="evenodd" clip-rule="evenodd" d="M1759.8 330.399C1764 329.266 1773.43 329.138 1774.97 334.166C1772.57 332.912 1769.73 332.64 1767.12 333.411C1764.49 334.171 1762.16 335.642 1760.4 337.645L1760.23 337.5C1762 335.452 1764.38 333.957 1767.05 333.202C1768.74 332.733 1770.52 332.646 1772.25 332.945C1770.28 332.509 1768.22 332.567 1766.28 333.114C1763.77 333.815 1761.51 335.144 1759.73 336.962L1759.57 336.769C1761.38 334.934 1763.67 333.591 1766.2 332.881C1768.02 332.37 1769.94 332.274 1771.8 332.6C1769.69 332.133 1767.5 332.194 1765.42 332.777C1763.1 333.428 1760.97 334.592 1759.2 336.174L1759.06 335.95C1760.85 334.359 1763.01 333.19 1765.36 332.536C1767.29 331.998 1769.33 331.896 1771.31 332.239C1769.05 331.742 1766.7 331.808 1764.48 332.431C1762.38 333.012 1760.42 333.99 1758.72 335.307L1758.61 335.042C1760.32 333.731 1762.29 332.757 1764.39 332.174C1766.45 331.612 1768.61 331.511 1770.71 331.877C1768.3 331.342 1765.78 331.411 1763.4 332.078C1761.61 332.549 1759.91 333.295 1758.36 334.287C1758.37 334.178 1758.35 334.068 1758.31 333.965C1759.86 332.967 1761.56 332.21 1763.35 331.724C1765.56 331.11 1767.89 330.994 1770.16 331.386C1767.58 330.817 1764.89 330.891 1762.34 331.604C1760.95 331.992 1759.6 332.531 1758.34 333.21C1758.32 333.079 1758.33 332.946 1758.36 332.817C1759.59 332.175 1760.89 331.663 1762.23 331.291C1764.6 330.633 1767.09 330.509 1769.51 330.929C1766.75 330.319 1763.87 330.399 1761.15 331.162C1760.26 331.406 1759.39 331.713 1758.55 332.078C1758.6 331.927 1758.66 331.78 1758.72 331.636C1759.48 331.32 1760.26 331.052 1761.06 330.833C1763.59 330.128 1766.25 329.997 1768.85 330.447C1765.89 329.795 1762.82 329.88 1759.91 330.696L1759.12 330.929L1759.2 330.889C1759.29 330.755 1759.38 330.626 1759.49 330.503L1759.8 330.399Z" fill="#6B778C"/>
<path fill-rule="evenodd" clip-rule="evenodd" d="M1779.93 319.177C1776.57 315.755 1774.05 315.112 1773.21 315C1777.68 317.517 1779.35 322.91 1777.04 327.346C1776.28 328.75 1775.31 330.034 1774.15 331.154L1774.37 331.419C1775.61 330.244 1776.65 328.888 1777.45 327.403C1778.5 325.525 1778.85 323.36 1778.45 321.266C1779.1 323.637 1778.78 326.156 1777.56 328.31C1776.84 329.658 1775.92 330.902 1774.84 332.005L1775.05 332.327C1776.23 331.158 1777.23 329.828 1778 328.383C1779.12 326.378 1779.5 324.071 1779.07 321.836C1779.76 324.37 1779.42 327.06 1778.11 329.363C1777.4 330.695 1776.51 331.932 1775.46 333.042C1775.52 333.17 1775.59 333.301 1775.64 333.435C1776.81 332.234 1777.8 330.883 1778.58 329.419C1779.78 327.271 1780.19 324.794 1779.72 322.398C1780.46 325.104 1780.09 327.974 1778.7 330.431C1777.98 331.822 1777.07 333.118 1776 334.287C1776 334.455 1776.09 334.624 1776.12 334.801C1777.37 333.526 1778.42 332.091 1779.25 330.535C1780.52 328.236 1780.94 325.594 1780.43 323.041C1781.24 325.944 1780.85 329.032 1779.36 331.676C1778.51 333.268 1777.44 334.741 1776.17 336.054C1776.16 336.302 1776.13 336.548 1776.09 336.793C1777.61 335.314 1778.9 333.622 1779.89 331.772C1781.27 329.315 1781.73 326.482 1781.2 323.74C1782.05 326.839 1781.63 330.129 1780.03 332.945C1778.82 335.184 1777.22 337.208 1775.29 338.93C1775.29 338.994 1775.5 339.018 1775.93 338.986C1777.82 337.265 1779.4 335.253 1780.61 333.034C1782.08 330.406 1782.57 327.378 1782.01 324.447C1782.91 327.762 1782.45 331.279 1780.74 334.287C1779.91 335.859 1778.88 337.329 1777.68 338.665C1777.99 338.576 1778.33 338.472 1778.67 338.351C1779.7 337.135 1780.6 335.815 1781.35 334.415C1782.92 331.605 1783.45 328.368 1782.84 325.234C1783.81 328.782 1783.33 332.549 1781.51 335.773C1781.2 336.341 1780.87 336.916 1780.51 337.5C1780.96 337.236 1781.39 336.938 1781.78 336.608C1781.92 336.375 1782.05 336.134 1782.18 335.893C1785.19 330.118 1784.7 324.093 1779.93 319.201" fill="#6B778C"/>
<rect width="1921.24" height="64" transform="translate(10 64)" fill="#3C1053"/>
<path d="M53 96.75H39C38.8011 96.75 38.6103 96.671 38.4697 96.5303C38.329 96.3897 38.25 96.1989 38.25 96C38.25 95.8011 38.329 95.6103 38.4697 95.4697C38.6103 95.329 38.8011 95.25 39 95.25H53C53.1989 95.25 53.3897 95.329 53.5303 95.4697C53.671 95.6103 53.75 95.8011 53.75 96C53.75 96.1989 53.671 96.3897 53.5303 96.5303C53.3897 96.671 53.1989 96.75 53 96.75Z" fill="white"/>
<path d="M53 92.25H39C38.8011 92.25 38.6103 92.171 38.4697 92.0303C38.329 91.8897 38.25 91.6989 38.25 91.5C38.25 91.3011 38.329 91.1103 38.4697 90.9697C38.6103 90.829 38.8011 90.75 39 90.75H53C53.1989 90.75 53.3897 90.829 53.5303 90.9697C53.671 91.1103 53.75 91.3011 53.75 91.5C53.75 91.6989 53.671 91.8897 53.5303 92.0303C53.3897 92.171 53.1989 92.25 53 92.25Z" fill="white"/>
<path d="M53 101.25H39C38.8011 101.25 38.6103 101.171 38.4697 101.03C38.329 100.89 38.25 100.699 38.25 100.5C38.25 100.301 38.329 100.11 38.4697 99.9697C38.6103 99.829 38.8011 99.75 39 99.75H53C53.1989 99.75 53.3897 99.829 53.5303 99.9697C53.671 100.11 53.75 100.301 53.75 100.5C53.75 100.699 53.671 100.89 53.5303 101.03C53.3897 101.171 53.1989 101.25 53 101.25Z" fill="white"/>
<path fill-rule="evenodd" clip-rule="evenodd" d="M108.622 90.0296C107.186 90.2142 105.747 90.4424 104.301 90.7154C95.2879 92.4037 87.9998 95.49 83.4999 99.0644C81.2375 100.684 79.5701 102.945 78.7378 105.527C79.1243 102.968 80.9049 100.41 83.8588 98.062C88.5795 94.2898 96.2817 91.0716 105.751 89.291L106.938 89.08L106.455 88.8294L105.571 88.9876C95.9091 90.7946 88.1378 94.0788 83.3205 97.9169C80.9049 99.6447 79.1256 102.06 78.2409 104.814C78.655 102.085 80.5736 99.3546 83.7622 96.9013C88.3725 93.2214 95.633 90.0296 104.591 88.0512L103.998 87.827C95.0671 89.8449 87.8341 93.1027 83.1962 96.7562C80.5971 98.5592 78.6646 101.103 77.6749 104.024C78.1166 101.109 80.1733 98.1807 83.5413 95.5032C88.9757 91.5437 95.1927 88.6777 101.817 87.0752L101.085 86.8773C94.5122 88.5286 88.3504 91.4158 82.9616 95.3713C80.1885 97.3498 78.1484 100.122 77.1366 103.285C77.6059 100.159 79.8144 97.0464 83.4033 94.1711C87.9763 90.7445 93.1443 88.1092 98.6697 86.3893L97.7449 86.2574C92.3216 87.9905 87.2516 90.5994 82.7545 93.9732C79.7951 96.0849 77.6142 99.042 76.5292 102.415C77.04 99.0776 79.3865 95.7406 83.2376 92.6675C86.8348 89.9399 90.8225 87.7188 95.0809 86.0728H93.8938C89.8121 87.7201 85.99 89.899 82.5337 92.5488C78.9724 95.3977 76.6535 98.484 75.8805 101.584C76.4188 98.0224 78.931 94.4481 83.0582 91.1639C85.5014 89.2527 88.1475 87.5909 90.9537 86.2046L89.9046 86.3234L89.4077 86.3893C86.8914 87.6529 84.5075 89.1406 82.2852 90.8342C78.4893 93.9205 76.0185 97.2179 75.1903 100.542C75.7701 96.7298 78.4617 92.9049 82.865 89.3833C83.8726 88.5788 85.0459 87.7742 86.1915 86.996C85.431 87.2044 84.6842 87.4563 83.9554 87.7478C83.2625 88.1369 82.6275 88.6117 82.0644 89.1591C71.1322 97.3498 71.2426 109.075 82.8373 113.507L82.5889 113.256C82.2949 112.957 82.023 112.663 81.7745 112.373L81.5122 112.056C81.25 111.726 81.0153 111.397 80.8083 111.079L80.5736 110.711C80.3707 110.365 80.1913 110.009 80.0353 109.642L79.8558 109.207C79.7109 108.807 79.6005 108.397 79.5246 107.98C79.5384 107.801 79.5094 107.62 79.4417 107.452C79.4045 107.049 79.4045 106.643 79.4417 106.239C79.4072 106.024 79.4072 105.807 79.4417 105.593C79.5108 105.176 79.617 104.766 79.7592 104.367C79.8407 104.12 79.9387 103.879 80.0491 103.641C80.2713 103.189 80.5212 102.748 80.7945 102.322C81.6489 101.101 82.7076 100.023 83.9278 99.1303C90.0068 94.94 97.0092 92.1333 104.398 90.9265C105.916 90.6363 107.435 90.4121 108.953 90.2142L108.553 89.9636" fill="white"/>
<path fill-rule="evenodd" clip-rule="evenodd" d="M81.8851 101.597C88.7868 99.7372 104.288 99.5262 106.814 107.781C102.863 105.724 98.2089 105.277 93.9078 106.543C89.6012 107.791 85.7666 110.206 82.8652 113.494L82.5891 113.256C85.5099 109.894 89.4121 107.439 93.7974 106.2C96.5732 105.43 99.4981 105.286 102.342 105.778C99.1006 105.062 95.7188 105.157 92.5275 106.055C88.4169 107.206 84.7051 109.388 81.7747 112.373L81.5124 112.056C84.4857 109.042 88.2443 106.838 92.4032 105.673C95.393 104.834 98.5457 104.675 101.61 105.211C98.1454 104.445 94.5331 104.545 91.1195 105.501C87.3043 106.571 83.8066 108.482 80.9051 111.079L80.6704 110.711C83.6174 108.099 87.1635 106.18 91.0229 105.105C94.1963 104.222 97.5422 104.055 100.796 104.617C97.0881 103.802 93.2245 103.91 89.5736 104.934C86.1227 105.887 82.908 107.494 80.1183 109.656L79.9389 109.22C82.7478 107.068 85.9764 105.468 89.4355 104.512C92.8104 103.589 96.362 103.422 99.8156 104.024C95.8499 103.145 91.7131 103.259 87.8067 104.354C84.8597 105.128 82.0618 106.352 79.5248 107.981C79.5386 107.801 79.5096 107.621 79.442 107.452C81.9804 105.814 84.7755 104.571 87.7239 103.772C91.3556 102.764 95.1832 102.574 98.9046 103.218C94.6642 102.283 90.2444 102.405 86.0675 103.575C83.7748 104.212 81.5663 105.097 79.4834 106.213C79.4627 105.997 79.4765 105.779 79.5248 105.567C81.5442 104.513 83.6782 103.673 85.8881 103.061C89.771 101.981 93.8622 101.778 97.8417 102.467C93.3046 101.465 88.5756 101.597 84.1075 102.85C82.6443 103.251 81.2143 103.755 79.8284 104.354C79.9113 104.106 80.0079 103.864 80.1183 103.628C81.3675 103.11 82.6485 102.669 83.9556 102.309C88.1118 101.152 92.493 100.936 96.7513 101.676C91.8994 100.605 86.8419 100.745 82.0646 102.085L80.7671 102.467L80.9051 102.402C81.0473 102.181 81.2046 101.969 81.3744 101.768L81.8851 101.597Z" fill="white"/>
<path fill-rule="evenodd" clip-rule="evenodd" d="M114.971 83.171C109.45 77.5523 105.309 76.4972 103.929 76.3125C111.269 80.4448 114.013 89.3002 110.209 96.5847C108.971 98.8889 107.37 100.998 105.461 102.837L105.834 103.272C107.871 101.342 109.577 99.1158 110.886 96.6771C112.614 93.5934 113.192 90.0401 112.528 86.6003C113.597 90.4938 113.073 94.63 111.065 98.1675C109.879 100.381 108.375 102.422 106.593 104.235L106.952 104.762C108.89 102.843 110.523 100.66 111.797 98.2862C113.635 94.9954 114.254 91.2061 113.55 87.5367C114.683 91.698 114.121 96.1152 111.976 99.8953C110.806 102.083 109.34 104.115 107.614 105.936C107.725 106.147 107.825 106.362 107.918 106.582C109.843 104.611 111.469 102.392 112.749 99.9876C114.726 96.4607 115.387 92.3944 114.626 88.46C115.831 92.9022 115.229 97.6148 112.942 101.649C111.757 103.934 110.267 106.061 108.511 107.98C108.511 108.257 108.649 108.534 108.705 108.825C110.753 106.731 112.487 104.374 113.853 101.821C115.936 98.0461 116.617 93.7081 115.786 89.5152C117.109 94.2818 116.483 99.3532 114.033 103.694C112.636 106.308 110.87 108.726 108.787 110.882C108.768 111.29 108.723 111.693 108.649 112.096C111.16 109.667 113.268 106.888 114.902 103.852C117.165 99.8175 117.924 95.1655 117.056 90.6627C118.446 95.7512 117.76 101.154 115.137 105.778C113.141 109.454 110.505 112.777 107.338 115.604C107.338 115.709 107.683 115.749 108.387 115.696C111.501 112.871 114.1 109.567 116.076 105.923C118.494 101.609 119.307 96.6375 118.381 91.8233C119.854 97.2679 119.108 103.042 116.296 107.98C114.931 110.562 113.245 112.975 111.272 115.169C111.783 115.024 112.335 114.852 112.887 114.654C114.593 112.657 116.069 110.49 117.29 108.191C119.874 103.578 120.741 98.2624 119.747 93.1159C121.339 98.9417 120.553 105.128 117.553 110.42C117.046 111.353 116.504 112.297 115.924 113.256C116.66 112.824 117.357 112.334 118.008 111.792C118.229 111.41 118.45 111.014 118.657 110.618C123.612 101.135 122.798 91.243 114.971 83.2106" fill="white"/>
<path fill-rule="evenodd" clip-rule="evenodd" d="M159.169 107.044L161.515 94.646L167.451 107.704L173.386 94.646L175.871 107.044H178.079L174.214 88.0513L167.451 103.219L160.825 88.0513L156.96 107.044H159.169ZM154.752 88.8426H144.676V107.044H154.752V105.066H147.022V98.0753H154.752V95.9649H147.022V90.8211H154.752V88.8426ZM134.075 92.8922L131.038 99.6056H137.111L134.075 92.8922ZM125.434 107.07L134.075 88.0912L142.743 107.07H140.259L137.76 101.479H130.32L127.836 107.07H125.434ZM181.6 104.71C185.613 108.46 192.026 108.46 196.038 104.71L196.121 104.631C199.991 100.885 199.954 94.8521 196.038 91.1512C192.01 87.4357 185.628 87.4357 181.6 91.1512L181.448 91.2962C181.448 91.2976 181.447 91.2976 181.445 91.2989C177.612 95.0434 177.683 101.047 181.6 104.71ZM196.59 98.0097C196.6 99.9908 195.773 101.891 194.299 103.285L194.188 103.391C192.738 104.709 190.811 105.446 188.808 105.446C184.493 105.447 180.994 102.106 180.992 97.9833C180.977 95.9733 181.803 94.041 183.284 92.6152C184.769 91.2105 186.78 90.4337 188.869 90.4574C193.184 90.5062 196.641 93.8867 196.59 98.0097Z" fill="white"/>
<path d="M214.976 102H219.104L220.52 98.4H227.12L228.584 102H232.808L225.416 85.008H222.32L214.976 102ZM225.848 95.232H221.696L223.76 89.952L225.848 95.232ZM234.397 107.472H237.997V100.752H238.045C238.861 101.88 240.253 102.288 241.741 102.288C245.053 102.288 247.069 99.312 247.069 96.072C247.069 92.544 244.789 90.048 241.333 90.048C239.701 90.048 238.309 91.032 237.757 91.872H237.709V90.336H234.397V107.472ZM237.709 96.168C237.709 94.416 238.789 93.216 240.589 93.216C242.389 93.216 243.469 94.416 243.469 96.168C243.469 97.92 242.389 99.12 240.589 99.12C238.789 99.12 237.709 97.92 237.709 96.168ZM249.514 107.472H253.114V100.752H253.162C253.978 101.88 255.37 102.288 256.858 102.288C260.17 102.288 262.186 99.312 262.186 96.072C262.186 92.544 259.906 90.048 256.45 90.048C254.818 90.048 253.426 91.032 252.874 91.872H252.826V90.336H249.514V107.472ZM252.826 96.168C252.826 94.416 253.906 93.216 255.706 93.216C257.506 93.216 258.586 94.416 258.586 96.168C258.586 97.92 257.506 99.12 255.706 99.12C253.906 99.12 252.826 97.92 252.826 96.168ZM271.853 102H275.597V89.904H275.645L283.061 102H287.957V85.008H284.213V96.816H284.165L276.941 85.008H271.853V102ZM298.287 102H301.599V96.072C301.599 92.184 300.471 90.048 296.271 90.048C294.375 90.048 292.455 90.672 291.135 91.92L293.055 93.888C293.823 93.024 294.807 92.496 295.983 92.496C297.231 92.496 298.287 93.312 298.287 94.584C295.287 94.584 290.391 94.656 290.391 98.688C290.391 101.04 292.359 102.288 294.543 102.288C296.007 102.288 297.447 101.784 298.239 100.536H298.287V102ZM298.287 96.888V97.656C298.287 99.096 296.967 99.84 295.551 99.84C294.759 99.84 293.847 99.432 293.847 98.568C293.847 96.984 296.295 96.888 297.399 96.888H298.287ZM303.858 102H307.458V96.192C307.458 94.68 307.746 93.216 309.618 93.216C311.274 93.216 311.226 94.968 311.226 95.832V102H314.826V95.832C314.826 94.392 315.354 93.216 317.01 93.216C318.186 93.216 318.594 94.128 318.594 95.208V102H322.194V95.112C322.194 92.28 321.234 90.048 318.066 90.048C316.338 90.048 315.21 90.648 314.37 92.136C313.746 90.72 312.402 90.048 310.77 90.048C309.018 90.048 307.842 91.008 307.362 91.92H307.314V90.336H303.858V102ZM333.261 98.136C332.661 98.952 331.869 99.552 330.693 99.552C329.301 99.552 328.269 98.664 327.981 97.296H336.333V96.168C336.333 92.448 334.221 90.048 330.861 90.048C327.261 90.048 324.381 92.448 324.381 96.168C324.381 99.888 327.261 102.288 330.861 102.288C332.733 102.288 334.629 101.448 335.781 99.984L333.261 98.136ZM327.981 94.848C328.077 93.72 328.941 92.64 330.525 92.64C331.821 92.64 332.757 93.648 332.733 94.848H327.981Z" fill="white"/>
<rect x="1555.24" y="83.5" width="158" height="25" rx="8" fill="#FE7355"/>
<path d="M1564.81 99.5H1565.98V95.048H1567.97C1569.37 95.048 1571.22 94.474 1571.22 92.304C1571.22 90.232 1569.57 89.588 1567.75 89.588H1564.81V99.5ZM1565.98 90.68H1567.97C1569.15 90.68 1569.96 91.212 1569.96 92.318C1569.96 93.424 1569.15 93.956 1567.97 93.956H1565.98V90.68ZM1573.51 94.502C1574.03 94.026 1574.76 93.788 1575.46 93.788C1576.48 93.788 1577.08 94.278 1577.08 95.23V95.426H1576.66C1575.05 95.426 1572.53 95.552 1572.53 97.722C1572.53 98.996 1573.64 99.668 1574.97 99.668C1575.96 99.668 1576.69 99.192 1577.12 98.52H1577.15C1577.15 98.8 1577.15 99.206 1577.22 99.5H1578.27C1578.21 99.164 1578.17 98.744 1578.17 98.366V95.552C1578.17 93.704 1577.36 92.78 1575.43 92.78C1574.48 92.78 1573.5 93.102 1572.82 93.788L1573.51 94.502ZM1577.08 96.35V96.77C1577.05 97.834 1576.41 98.744 1575.15 98.744C1574.32 98.744 1573.71 98.436 1573.71 97.61C1573.71 96.728 1574.6 96.35 1575.99 96.35H1577.08ZM1580.17 99.5H1581.26V96.308C1581.26 94.81 1581.85 93.872 1583.18 93.872C1583.37 93.872 1583.58 93.9 1583.77 93.956L1583.84 92.85C1583.68 92.794 1583.53 92.78 1583.39 92.78C1582.31 92.78 1581.5 93.382 1581.2 94.026H1581.18C1581.18 93.662 1581.15 93.298 1581.15 92.948H1580.11C1580.11 93.382 1580.17 93.9 1580.17 94.502V99.5ZM1588.67 92.948H1586.74V91.086H1585.65V92.948H1584.22V93.872H1585.65V97.47C1585.65 98.828 1585.9 99.668 1587.46 99.668C1587.86 99.668 1588.35 99.598 1588.73 99.43L1588.69 98.436C1588.39 98.59 1588.04 98.66 1587.72 98.66C1586.76 98.66 1586.74 97.988 1586.74 97.148V93.872H1588.67V92.948ZM1590.11 99.5H1591.2V92.948H1590.11V99.5ZM1589.86 90.386C1589.86 90.848 1590.19 91.184 1590.66 91.184C1591.12 91.184 1591.45 90.848 1591.45 90.386C1591.45 89.952 1591.1 89.588 1590.66 89.588C1590.21 89.588 1589.86 89.952 1589.86 90.386ZM1598.91 93.816C1598.25 93.102 1597.35 92.78 1596.39 92.78C1594.37 92.78 1593 94.236 1593 96.224C1593 98.24 1594.36 99.668 1596.39 99.668C1597.34 99.668 1598.23 99.346 1598.86 98.618L1598.05 97.848C1597.65 98.408 1597.1 98.66 1596.39 98.66C1595.06 98.66 1594.17 97.568 1594.17 96.224C1594.17 94.88 1594.92 93.788 1596.39 93.788C1597.04 93.788 1597.58 94.026 1598.04 94.586L1598.91 93.816ZM1600.23 99.5H1601.32V92.948H1600.23V99.5ZM1599.98 90.386C1599.98 90.848 1600.31 91.184 1600.77 91.184C1601.24 91.184 1601.57 90.848 1601.57 90.386C1601.57 89.952 1601.22 89.588 1600.77 89.588C1600.33 89.588 1599.98 89.952 1599.98 90.386ZM1603.44 102.692H1604.53V98.338H1604.56C1604.96 99.08 1605.9 99.668 1607.08 99.668C1608.91 99.668 1610.35 98.184 1610.35 96.224C1610.35 94.236 1608.97 92.78 1606.91 92.78C1605.96 92.78 1605.16 93.2 1604.56 93.9H1604.53V92.948H1603.44V102.692ZM1604.53 96.224C1604.53 94.852 1605.44 93.788 1606.85 93.788C1608.27 93.788 1609.18 94.852 1609.18 96.224C1609.18 97.596 1608.27 98.66 1606.85 98.66C1605.44 98.66 1604.53 97.596 1604.53 96.224ZM1612.65 94.502C1613.17 94.026 1613.9 93.788 1614.6 93.788C1615.62 93.788 1616.22 94.278 1616.22 95.23V95.426H1615.8C1614.19 95.426 1611.67 95.552 1611.67 97.722C1611.67 98.996 1612.78 99.668 1614.11 99.668C1615.1 99.668 1615.83 99.192 1616.27 98.52H1616.29C1616.29 98.8 1616.29 99.206 1616.36 99.5H1617.41C1617.36 99.164 1617.32 98.744 1617.32 98.366V95.552C1617.32 93.704 1616.5 92.78 1614.57 92.78C1613.62 92.78 1612.64 93.102 1611.97 93.788L1612.65 94.502ZM1616.22 96.35V96.77C1616.2 97.834 1615.55 98.744 1614.29 98.744C1613.47 98.744 1612.85 98.436 1612.85 97.61C1612.85 96.728 1613.75 96.35 1615.13 96.35H1616.22ZM1619.31 99.5H1620.4V96.308C1620.4 94.81 1621.02 93.788 1622.43 93.788C1623.46 93.788 1623.93 94.474 1623.93 95.566V99.5H1625.02V95.454C1625.02 93.872 1624.25 92.78 1622.53 92.78C1621.45 92.78 1620.64 93.382 1620.35 94.026H1620.32C1620.32 93.662 1620.29 93.298 1620.29 92.948H1619.26C1619.26 93.382 1619.31 93.9 1619.31 94.502V99.5ZM1630.67 92.948H1628.74V91.086H1627.65V92.948H1626.22V93.872H1627.65V97.47C1627.65 98.828 1627.9 99.668 1629.46 99.668C1629.86 99.668 1630.35 99.598 1630.73 99.43L1630.69 98.436C1630.39 98.59 1630.04 98.66 1629.72 98.66C1628.76 98.66 1628.74 97.988 1628.74 97.148V93.872H1630.67V92.948ZM1632.92 92.78C1632.46 92.78 1632.08 93.158 1632.08 93.62C1632.08 94.082 1632.49 94.46 1632.92 94.46C1633.36 94.46 1633.76 94.082 1633.76 93.62C1633.76 93.158 1633.38 92.78 1632.92 92.78ZM1632.92 97.904C1632.46 97.904 1632.08 98.282 1632.08 98.744C1632.08 99.206 1632.49 99.584 1632.92 99.584C1633.36 99.584 1633.76 99.206 1633.76 98.744C1633.76 98.282 1633.38 97.904 1632.92 97.904ZM1640 99.5H1641.18V91.268H1641.21L1646.95 99.5H1648.43V89.588H1647.25V97.82H1647.23L1641.49 89.588H1640V99.5ZM1650.9 99.5H1657.38V98.408H1652.07V94.88H1656.79V93.788H1652.07V90.68H1657.13V89.588H1650.9V99.5ZM1659.2 99.5H1660.37V91.184H1660.4L1663.96 99.5H1664.67L1668.23 91.184H1668.25V99.5H1669.43V89.588H1667.72L1664.33 97.358H1664.31L1660.95 89.588H1659.2V99.5ZM1671.9 99.5H1673.07V91.184H1673.1L1676.66 99.5H1677.37L1680.93 91.184H1680.96V99.5H1682.13V89.588H1680.42L1677.04 97.358H1677.01L1673.65 89.588H1671.9V99.5ZM1692.56 90.89C1691.72 89.798 1690.41 89.336 1689.06 89.336C1686.12 89.336 1684.02 91.632 1684.02 94.544C1684.02 97.554 1686.22 99.752 1689.06 99.752C1690.65 99.752 1691.93 99.206 1692.82 98.016L1691.93 97.274C1691.23 98.17 1690.27 98.66 1689.06 98.66C1686.84 98.66 1685.28 96.84 1685.28 94.544C1685.28 92.374 1686.85 90.428 1689.06 90.428C1690.02 90.428 1690.95 90.834 1691.54 91.632L1692.56 90.89ZM1699.06 99.752C1702.07 99.752 1704.24 97.54 1704.24 94.544C1704.24 91.548 1702.07 89.336 1699.06 89.336C1696.05 89.336 1693.88 91.548 1693.88 94.544C1693.88 97.54 1696.05 99.752 1699.06 99.752ZM1699.06 98.66C1696.74 98.66 1695.14 96.826 1695.14 94.544C1695.14 92.262 1696.74 90.428 1699.06 90.428C1701.39 90.428 1702.98 92.262 1702.98 94.544C1702.98 96.826 1701.39 98.66 1699.06 98.66Z" fill="white"/>
<path d="M1739.14 88.672H1737.8V95.488C1737.8 97.312 1737.13 99.04 1734.87 99.04C1732.61 99.04 1731.94 97.312 1731.94 95.488V88.672H1730.6V95.68C1730.6 98.144 1731.75 100.288 1734.87 100.288C1737.99 100.288 1739.14 98.144 1739.14 95.68V88.672ZM1740.85 98.8C1741.59 99.856 1742.5 100.192 1743.77 100.192C1745.25 100.192 1746.76 99.536 1746.76 97.84C1746.76 96.336 1745.64 95.856 1744.31 95.6C1743.32 95.408 1742.42 95.136 1742.42 94.512C1742.42 93.808 1743.21 93.472 1743.89 93.472C1744.63 93.472 1745.16 93.84 1745.48 94.368L1746.52 93.68C1746.01 92.72 1745.03 92.32 1743.97 92.32C1742.58 92.32 1741.17 93.072 1741.17 94.528C1741.17 96.08 1742.39 96.384 1743.81 96.704C1744.61 96.88 1745.41 97.088 1745.41 97.888C1745.41 98.704 1744.55 99.04 1743.77 99.04C1742.89 99.04 1742.34 98.64 1741.85 98.032L1740.85 98.8ZM1754.24 97.904C1753.65 98.656 1752.93 99.04 1751.86 99.04C1750.5 99.04 1749.51 97.936 1749.41 96.64H1755.46V96.24C1755.46 93.76 1754.02 92.32 1751.91 92.32C1749.7 92.32 1748.07 93.936 1748.07 96.256C1748.07 98.432 1749.51 100.192 1751.86 100.192C1753.25 100.192 1754.31 99.776 1755.19 98.64L1754.24 97.904ZM1749.41 95.584C1749.57 94.32 1750.48 93.472 1751.86 93.472C1753.24 93.472 1754.07 94.32 1754.12 95.584H1749.41ZM1757.39 100H1758.64V96.352C1758.64 94.64 1759.31 93.568 1760.83 93.568C1761.05 93.568 1761.29 93.6 1761.5 93.664L1761.58 92.4C1761.41 92.336 1761.23 92.32 1761.07 92.32C1759.84 92.32 1758.91 93.008 1758.57 93.744H1758.54C1758.54 93.328 1758.51 92.912 1758.51 92.512H1757.33C1757.33 93.008 1757.39 93.6 1757.39 94.288V100ZM1763.01 100H1764.26V96.352C1764.26 94.64 1764.97 93.472 1766.58 93.472C1767.75 93.472 1768.29 94.256 1768.29 95.504V100H1769.54V95.376C1769.54 93.568 1768.66 92.32 1766.69 92.32C1765.46 92.32 1764.53 93.008 1764.2 93.744H1764.17C1764.17 93.328 1764.13 92.912 1764.13 92.512H1762.95C1762.95 93.008 1763.01 93.6 1763.01 94.288V100ZM1772.59 94.288C1773.19 93.744 1774.02 93.472 1774.82 93.472C1775.99 93.472 1776.67 94.032 1776.67 95.12V95.344H1776.19C1774.35 95.344 1771.47 95.488 1771.47 97.968C1771.47 99.424 1772.74 100.192 1774.26 100.192C1775.39 100.192 1776.23 99.648 1776.72 98.88H1776.75C1776.75 99.2 1776.75 99.664 1776.83 100H1778.03C1777.97 99.616 1777.92 99.136 1777.92 98.704V95.488C1777.92 93.376 1776.99 92.32 1774.79 92.32C1773.7 92.32 1772.58 92.688 1771.81 93.472L1772.59 94.288ZM1776.67 96.4V96.88C1776.64 98.096 1775.91 99.136 1774.47 99.136C1773.52 99.136 1772.82 98.784 1772.82 97.84C1772.82 96.832 1773.84 96.4 1775.43 96.4H1776.67ZM1780.2 100H1781.45V96.352C1781.45 94.64 1782.15 93.472 1783.77 93.472C1784.79 93.472 1785.21 94.112 1785.21 95.76V100H1786.46V95.68C1786.46 94.336 1787.34 93.472 1788.39 93.472C1789.85 93.472 1790.22 94.48 1790.22 95.52V100H1791.47V95.456C1791.47 93.52 1790.76 92.32 1788.62 92.32C1787.48 92.32 1786.79 92.864 1786.25 93.744C1786.01 93.232 1785.5 92.32 1783.88 92.32C1782.65 92.32 1781.72 93.008 1781.39 93.744H1781.35C1781.35 93.328 1781.32 92.912 1781.32 92.512H1780.14C1780.14 93.008 1780.2 93.6 1780.2 94.288V100ZM1799.57 97.904C1798.98 98.656 1798.26 99.04 1797.19 99.04C1795.83 99.04 1794.84 97.936 1794.74 96.64H1800.79V96.24C1800.79 93.76 1799.35 92.32 1797.24 92.32C1795.03 92.32 1793.4 93.936 1793.4 96.256C1793.4 98.432 1794.84 100.192 1797.19 100.192C1798.58 100.192 1799.64 99.776 1800.52 98.64L1799.57 97.904ZM1794.74 95.584C1794.9 94.32 1795.81 93.472 1797.19 93.472C1798.56 93.472 1799.4 94.32 1799.44 95.584H1794.74Z" fill="white"/>
<path d="M1819.24 98.1667C1819.17 98.167 1819.11 98.1542 1819.05 98.129C1818.98 98.1038 1818.93 98.0668 1818.88 98.02L1815.55 94.6867C1815.48 94.5894 1815.45 94.4718 1815.47 94.3546C1815.48 94.2374 1815.53 94.1281 1815.61 94.046C1815.7 93.9638 1815.81 93.9142 1815.93 93.9058C1816.04 93.8974 1816.16 93.9308 1816.26 94L1819.24 96.96L1822.22 94C1822.31 93.9391 1822.42 93.9115 1822.53 93.9216C1822.65 93.9317 1822.75 93.979 1822.83 94.0559C1822.91 94.1327 1822.97 94.2347 1822.98 94.3455C1823 94.4562 1822.98 94.5693 1822.92 94.6667L1819.59 98C1819.55 98.0504 1819.49 98.0912 1819.43 98.1198C1819.37 98.1485 1819.3 98.1644 1819.24 98.1667V98.1667Z" fill="white"/>
<path d="M1863.77 100.25C1863.68 100.25 1861.66 99.89 1861.66 94C1861.66 89.84 1859.24 87.25 1855.24 87.25C1851.24 87.25 1848.82 89.84 1848.82 94C1848.82 100 1846.73 100.25 1846.74 100.25C1846.54 100.25 1846.35 100.329 1846.21 100.47C1846.07 100.61 1845.99 100.801 1845.99 101C1845.99 101.199 1846.07 101.39 1846.21 101.53C1846.35 101.671 1846.54 101.75 1846.74 101.75H1851.57C1851.73 102.601 1852.19 103.367 1852.86 103.918C1853.53 104.469 1854.37 104.77 1855.24 104.77C1856.1 104.77 1856.94 104.469 1857.61 103.918C1858.28 103.367 1858.74 102.601 1858.91 101.75H1863.75C1863.95 101.75 1864.14 101.671 1864.28 101.53C1864.42 101.39 1864.5 101.199 1864.5 101C1864.5 100.801 1864.42 100.61 1864.28 100.47C1864.14 100.329 1863.95 100.25 1863.75 100.25H1863.77ZM1855.24 103.25C1854.77 103.249 1854.32 103.104 1853.94 102.836C1853.57 102.567 1853.28 102.188 1853.13 101.75H1857.35C1857.19 102.188 1856.91 102.567 1856.53 102.836C1856.15 103.104 1855.7 103.249 1855.24 103.25V103.25ZM1849 100.25C1849.72 99.16 1850.32 97.25 1850.32 94C1850.32 90.75 1852.12 88.75 1855.24 88.75C1858.36 88.75 1860.16 90.66 1860.16 94C1860.16 97.34 1860.76 99.16 1861.48 100.25H1849Z" fill="white"/>
<path d="M1895.24 87C1893.46 87 1891.72 87.5278 1890.24 88.5168C1888.76 89.5057 1887.6 90.9113 1886.92 92.5558C1886.24 94.2004 1886.06 96.01 1886.41 97.7558C1886.76 99.5016 1887.61 101.105 1888.87 102.364C1890.13 103.623 1891.74 104.48 1893.48 104.827C1895.23 105.174 1897.04 104.996 1898.68 104.315C1900.33 103.634 1901.73 102.48 1902.72 101C1903.71 99.5201 1904.24 97.78 1904.24 96C1904.24 93.6131 1903.29 91.3239 1901.6 89.636C1899.91 87.9482 1897.62 87 1895.24 87V87ZM1895.24 103.5C1893.75 103.5 1892.3 103.06 1891.07 102.236C1889.84 101.412 1888.88 100.241 1888.31 98.8701C1887.74 97.4997 1887.59 95.9917 1887.88 94.5368C1888.17 93.082 1888.88 91.7456 1889.93 90.6967C1890.98 89.6478 1892.32 88.9335 1893.77 88.6441C1895.23 88.3547 1896.74 88.5032 1898.11 89.0709C1899.48 89.6386 1900.65 90.5999 1901.47 91.8332C1902.3 93.0666 1902.74 94.5166 1902.74 96C1902.74 97.9891 1901.95 99.8968 1900.54 101.303C1899.13 102.71 1897.23 103.5 1895.24 103.5Z" fill="white"/>
<path d="M1892.94 91.7C1892.64 92.0021 1892.4 92.3608 1892.23 92.7555C1892.07 93.1501 1891.99 93.573 1891.99 94C1891.99 94.1989 1892.07 94.3897 1892.21 94.5303C1892.35 94.671 1892.54 94.75 1892.74 94.75C1892.94 94.75 1893.13 94.671 1893.27 94.5303C1893.41 94.3897 1893.49 94.1989 1893.49 94C1893.49 93.7698 1893.53 93.5417 1893.62 93.3289C1893.71 93.116 1893.83 92.9227 1894 92.76C1894.33 92.442 1894.78 92.2647 1895.24 92.2647C1895.7 92.2647 1896.14 92.442 1896.48 92.76C1896.73 93.0042 1896.9 93.3173 1896.97 93.6592C1897.04 94.0011 1897 94.356 1896.87 94.6785C1896.74 95.001 1896.51 95.2763 1896.22 95.469C1895.93 95.6617 1895.59 95.763 1895.24 95.76C1895.04 95.7626 1894.85 95.8424 1894.71 95.9825C1894.57 96.1226 1894.49 96.3119 1894.49 96.51V97.51C1894.49 97.7089 1894.57 97.8997 1894.71 98.0403C1894.85 98.181 1895.04 98.26 1895.24 98.26C1895.44 98.26 1895.63 98.181 1895.77 98.0403C1895.91 97.8997 1895.99 97.7089 1895.99 97.51V97.17C1896.57 97.0355 1897.11 96.7373 1897.54 96.31C1898.15 95.699 1898.49 94.8721 1898.49 94.01C1898.49 93.1479 1898.15 92.3209 1897.54 91.71C1896.92 91.1192 1896.1 90.7887 1895.24 90.7869C1894.38 90.785 1893.56 91.1119 1892.94 91.7V91.7Z" fill="white"/>
<path d="M1895.24 101.5C1895.93 101.5 1896.49 100.94 1896.49 100.25C1896.49 99.5596 1895.93 99 1895.24 99C1894.55 99 1893.99 99.5596 1893.99 100.25C1893.99 100.94 1894.55 101.5 1895.24 101.5Z" fill="white"/>
</g>
</g>
<defs>
<filter id="filter0_dd_51_14786" x="0" y="55" width="1940" height="308" filterUnits="userSpaceOnUse" color-interpolation-filters="sRGB">
<feFlood flood-opacity="0" result="BackgroundImageFix"/>
<feColorMatrix in="SourceAlpha" type="matrix" values="0 0 0 0 0 0 0 0 0 0 0 0 0 0 0 0 0 0 127 0" result="hardAlpha"/>
<feOffset dy="2"/>
<feGaussianBlur stdDeviation="2"/>
<feColorMatrix type="matrix" values="0 0 0 0 0 0 0 0 0 0 0 0 0 0 0 0 0 0 0.1 0"/>
<feBlend mode="normal" in2="BackgroundImageFix" result="effect1_dropShadow_51_14786"/>
<feColorMatrix in="SourceAlpha" type="matrix" values="0 0 0 0 0 0 0 0 0 0 0 0 0 0 0 0 0 0 127 0" result="hardAlpha"/>
<feOffset dy="1"/>
<feGaussianBlur stdDeviation="5"/>
<feComposite in2="hardAlpha" operator="out"/>
<feColorMatrix type="matrix" values="0 0 0 0 0 0 0 0 0 0 0 0 0 0 0 0 0 0 0.12 0"/>
<feBlend mode="normal" in2="effect1_dropShadow_51_14786" result="effect2_dropShadow_51_14786"/>
<feBlend mode="normal" in="SourceGraphic" in2="effect2_dropShadow_51_14786" result="shape"/>
</filter>
<filter id="filter1_dd_51_14786" x="0" y="55" width="1940" height="308" filterUnits="userSpaceOnUse" color-interpolation-filters="sRGB">
<feFlood flood-opacity="0" result="BackgroundImageFix"/>
<feColorMatrix in="SourceAlpha" type="matrix" values="0 0 0 0 0 0 0 0 0 0 0 0 0 0 0 0 0 0 127 0" result="hardAlpha"/>
<feOffset dy="2"/>
<feGaussianBlur stdDeviation="2"/>
<feColorMatrix type="matrix" values="0 0 0 0 0 0 0 0 0 0 0 0 0 0 0 0 0 0 0.1 0"/>
<feBlend mode="normal" in2="BackgroundImageFix" result="effect1_dropShadow_51_14786"/>
<feColorMatrix in="SourceAlpha" type="matrix" values="0 0 0 0 0 0 0 0 0 0 0 0 0 0 0 0 0 0 127 0" result="hardAlpha"/>
<feOffset dy="1"/>
<feGaussianBlur stdDeviation="5"/>
<feComposite in2="hardAlpha" operator="out"/>
<feColorMatrix type="matrix" values="0 0 0 0 0 0 0 0 0 0 0 0 0 0 0 0 0 0 0.12 0"/>
<feBlend mode="normal" in2="effect1_dropShadow_51_14786" result="effect2_dropShadow_51_14786"/>
<feBlend mode="normal" in="SourceGraphic" in2="effect2_dropShadow_51_14786" result="shape"/>
</filter>
<clipPath id="clip0_51_14786">
<rect width="1920" height="288" fill="white" transform="translate(10 64)"/>
</clipPath>
<clipPath id="clip1_51_14786">
<rect width="1920" height="288" fill="white" transform="translate(10 64)"/>
</clipPath>
</defs>
</svg>
