<svg width="960" height="323" viewBox="0 0 960 323" fill="none" xmlns="http://www.w3.org/2000/svg">
<path d="M7.252 2.858C6.482 2.13 5.446 1.836 4.41 1.836C2.576 1.836 0.756 2.788 0.756 4.832C0.756 8.374 5.46 7.128 5.46 9.298C5.46 10.208 4.536 10.656 3.724 10.656C2.94 10.656 2.198 10.278 1.764 9.62L0.434 10.908C1.246 11.874 2.45 12.252 3.682 12.252C5.628 12.252 7.308 11.216 7.308 9.088C7.308 5.56 2.604 6.694 2.604 4.706C2.604 3.796 3.416 3.432 4.228 3.432C4.914 3.432 5.586 3.684 5.964 4.216L7.252 2.858ZM9.59306 6.708V9.788C9.59306 11.37 10.0131 12.168 11.7911 12.168C12.1831 12.168 12.7711 12.112 13.1211 11.944V10.53C12.9111 10.684 12.5051 10.74 12.2111 10.74C11.4691 10.74 11.2731 10.32 11.2731 9.648V6.708H13.1211V5.28H11.2731V3.334H9.59306V5.28H8.20706V6.708H9.59306ZM18.6325 12H20.1445V8.136C20.1445 7.184 20.1445 5.112 17.2745 5.112C16.2105 5.112 15.1605 5.434 14.4185 6.19L15.3005 7.072C15.7485 6.652 16.3925 6.372 17.0925 6.372C17.9885 6.372 18.6325 6.806 18.6325 7.632V7.814H18.2125C16.5325 7.814 13.9845 7.968 13.9845 10.152C13.9845 11.482 15.1885 12.168 16.4345 12.168C17.3305 12.168 18.1145 11.832 18.5905 11.076H18.6325V12ZM18.5345 9.368C18.5345 10.306 17.9885 10.908 16.8405 10.908C16.2945 10.908 15.6645 10.642 15.6645 10.026C15.6645 9.06 17.2605 8.99 18.1845 8.99H18.5345V9.368ZM22.554 6.708V9.788C22.554 11.37 22.974 12.168 24.752 12.168C25.144 12.168 25.732 12.112 26.082 11.944V10.53C25.872 10.684 25.466 10.74 25.172 10.74C24.43 10.74 24.234 10.32 24.234 9.648V6.708H26.082V5.28H24.234V3.334H22.554V5.28H21.168V6.708H22.554ZM33.8614 9.228V8.766C33.8614 6.428 32.5874 5.112 30.7114 5.112C28.6814 5.112 27.0574 6.526 27.0574 8.64C27.0574 10.754 28.6814 12.168 30.7114 12.168C31.7754 12.168 32.7694 11.79 33.5534 10.824L32.3494 9.914C31.9294 10.432 31.3834 10.824 30.5434 10.824C29.6054 10.824 28.8494 10.222 28.7374 9.228H33.8614ZM28.7374 7.968C28.8634 7.002 29.4794 6.372 30.4734 6.372C31.5234 6.372 32.1674 6.988 32.1814 7.968H28.7374ZM35.4325 11.02C35.4325 11.622 35.9645 12.084 36.5525 12.084C37.1685 12.084 37.6725 11.594 37.6725 10.992C37.6725 10.39 37.1545 9.928 36.5525 9.928C35.9365 9.928 35.4325 10.418 35.4325 11.02ZM35.4325 6.274C35.4325 6.876 35.9645 7.338 36.5525 7.338C37.1685 7.338 37.6725 6.848 37.6725 6.246C37.6725 5.644 37.1545 5.182 36.5525 5.182C35.9365 5.182 35.4325 5.672 35.4325 6.274ZM43.8296 12H45.5936V2.088H43.8296V12ZM47.6141 12H49.2941V8.332C49.2941 7.436 49.7281 6.624 50.8341 6.624C52.0101 6.624 52.0661 7.856 52.0661 8.598V12H53.7461V7.758C53.7461 6.386 53.1021 5.112 51.2961 5.112C50.1761 5.112 49.5461 5.686 49.2381 6.358H49.2101V5.28H47.6141V12ZM56.2552 12H57.9352V6.708H59.4892V5.28H57.9352V4.062C57.9352 3.32 58.0752 2.676 59.0132 2.676C59.2512 2.676 59.4752 2.718 59.7132 2.774L59.8252 1.346C59.4752 1.276 59.1252 1.248 58.7612 1.248C56.6752 1.248 56.2552 2.466 56.2552 4.328V5.28H54.8692V6.708H56.2552V12ZM60.239 8.64C60.239 10.754 61.863 12.168 63.893 12.168C65.923 12.168 67.547 10.754 67.547 8.64C67.547 6.526 65.923 5.112 63.893 5.112C61.863 5.112 60.239 6.526 60.239 8.64ZM61.919 8.64C61.919 7.59 62.661 6.624 63.893 6.624C65.125 6.624 65.867 7.59 65.867 8.64C65.867 9.69 65.125 10.656 63.893 10.656C62.661 10.656 61.919 9.69 61.919 8.64Z" fill="black"/>
<rect width="960" height="64" transform="translate(0 33)" fill="#5666BC"/>
<path d="M464.605 58.256H467.413V71H464.605V58.256ZM469.625 62.252H472.217V63.44H472.253C472.337 63.272 472.457 63.104 472.613 62.936C472.769 62.768 472.955 62.618 473.171 62.486C473.387 62.354 473.633 62.246 473.909 62.162C474.185 62.078 474.485 62.036 474.809 62.036C475.493 62.036 476.045 62.144 476.465 62.36C476.885 62.564 477.209 62.852 477.437 63.224C477.677 63.596 477.839 64.034 477.923 64.538C478.007 65.042 478.049 65.588 478.049 66.176V71H475.349V66.716C475.349 66.464 475.337 66.206 475.313 65.942C475.301 65.666 475.247 65.414 475.151 65.186C475.067 64.958 474.929 64.772 474.737 64.628C474.557 64.484 474.293 64.412 473.945 64.412C473.597 64.412 473.315 64.478 473.099 64.61C472.883 64.73 472.715 64.898 472.595 65.114C472.487 65.318 472.415 65.552 472.379 65.816C472.343 66.08 472.325 66.356 472.325 66.644V71H469.625V62.252ZM480.897 64.412H479.115V62.252H480.897V60.704C480.897 60.224 480.939 59.774 481.023 59.354C481.107 58.922 481.269 58.544 481.509 58.22C481.749 57.896 482.091 57.644 482.535 57.464C482.991 57.272 483.585 57.176 484.317 57.176C484.593 57.176 484.863 57.188 485.127 57.212C485.391 57.236 485.649 57.278 485.901 57.338L485.775 59.624C485.619 59.564 485.475 59.522 485.343 59.498C485.211 59.462 485.061 59.444 484.893 59.444C484.461 59.444 484.137 59.54 483.921 59.732C483.705 59.912 483.597 60.29 483.597 60.866V62.252H485.595V64.412H483.597V71H480.897V64.412ZM486.299 66.626C486.299 65.93 486.425 65.3 486.677 64.736C486.929 64.172 487.271 63.692 487.703 63.296C488.147 62.888 488.663 62.576 489.251 62.36C489.851 62.144 490.487 62.036 491.159 62.036C491.831 62.036 492.461 62.144 493.049 62.36C493.649 62.576 494.165 62.888 494.597 63.296C495.041 63.692 495.389 64.172 495.641 64.736C495.893 65.3 496.019 65.93 496.019 66.626C496.019 67.322 495.893 67.952 495.641 68.516C495.389 69.08 495.041 69.566 494.597 69.974C494.165 70.37 493.649 70.676 493.049 70.892C492.461 71.108 491.831 71.216 491.159 71.216C490.487 71.216 489.851 71.108 489.251 70.892C488.663 70.676 488.147 70.37 487.703 69.974C487.271 69.566 486.929 69.08 486.677 68.516C486.425 67.952 486.299 67.322 486.299 66.626ZM488.999 66.626C488.999 67.286 489.185 67.82 489.557 68.228C489.941 68.636 490.475 68.84 491.159 68.84C491.843 68.84 492.371 68.636 492.743 68.228C493.127 67.82 493.319 67.286 493.319 66.626C493.319 65.966 493.127 65.432 492.743 65.024C492.371 64.616 491.843 64.412 491.159 64.412C490.475 64.412 489.941 64.616 489.557 65.024C489.185 65.432 488.999 65.966 488.999 66.626Z" fill="white"/>
<path d="M922.06 65L926.48 60.58C926.554 60.5113 926.613 60.4285 926.654 60.3365C926.695 60.2445 926.717 60.1452 926.719 60.0445C926.72 59.9438 926.702 59.8437 926.664 59.7504C926.626 59.657 926.57 59.5721 926.499 59.5009C926.428 59.4297 926.343 59.3736 926.25 59.3358C926.156 59.2981 926.056 59.2796 925.955 59.2814C925.855 59.2831 925.755 59.3052 925.663 59.3462C925.571 59.3872 925.489 59.4463 925.42 59.52L921 63.94L916.58 59.52C916.438 59.3875 916.25 59.3154 916.055 59.3188C915.861 59.3222 915.676 59.4009 915.538 59.5383C915.401 59.6757 915.322 59.8611 915.319 60.0554C915.315 60.2497 915.388 60.4378 915.52 60.58L919.94 65L915.52 69.42C915.38 69.5606 915.301 69.7512 915.301 69.95C915.301 70.1487 915.38 70.3393 915.52 70.48C915.661 70.6204 915.851 70.6993 916.05 70.6993C916.249 70.6993 916.439 70.6204 916.58 70.48L921 66.06L925.42 70.48C925.561 70.6204 925.751 70.6993 925.95 70.6993C926.149 70.6993 926.339 70.6204 926.48 70.48C926.62 70.3393 926.699 70.1487 926.699 69.95C926.699 69.7512 926.62 69.5606 926.48 69.42L922.06 65Z" fill="white"/>
<path d="M7.252 115.858C6.482 115.13 5.446 114.836 4.41 114.836C2.576 114.836 0.756 115.788 0.756 117.832C0.756 121.374 5.46 120.128 5.46 122.298C5.46 123.208 4.536 123.656 3.724 123.656C2.94 123.656 2.198 123.278 1.764 122.62L0.434 123.908C1.246 124.874 2.45 125.252 3.682 125.252C5.628 125.252 7.308 124.216 7.308 122.088C7.308 118.56 2.604 119.694 2.604 117.706C2.604 116.796 3.416 116.432 4.228 116.432C4.914 116.432 5.586 116.684 5.964 117.216L7.252 115.858ZM9.59306 119.708V122.788C9.59306 124.37 10.0131 125.168 11.7911 125.168C12.1831 125.168 12.7711 125.112 13.1211 124.944V123.53C12.9111 123.684 12.5051 123.74 12.2111 123.74C11.4691 123.74 11.2731 123.32 11.2731 122.648V119.708H13.1211V118.28H11.2731V116.334H9.59306V118.28H8.20706V119.708H9.59306ZM18.6325 125H20.1445V121.136C20.1445 120.184 20.1445 118.112 17.2745 118.112C16.2105 118.112 15.1605 118.434 14.4185 119.19L15.3005 120.072C15.7485 119.652 16.3925 119.372 17.0925 119.372C17.9885 119.372 18.6325 119.806 18.6325 120.632V120.814H18.2125C16.5325 120.814 13.9845 120.968 13.9845 123.152C13.9845 124.482 15.1885 125.168 16.4345 125.168C17.3305 125.168 18.1145 124.832 18.5905 124.076H18.6325V125ZM18.5345 122.368C18.5345 123.306 17.9885 123.908 16.8405 123.908C16.2945 123.908 15.6645 123.642 15.6645 123.026C15.6645 122.06 17.2605 121.99 18.1845 121.99H18.5345V122.368ZM22.554 119.708V122.788C22.554 124.37 22.974 125.168 24.752 125.168C25.144 125.168 25.732 125.112 26.082 124.944V123.53C25.872 123.684 25.466 123.74 25.172 123.74C24.43 123.74 24.234 123.32 24.234 122.648V119.708H26.082V118.28H24.234V116.334H22.554V118.28H21.168V119.708H22.554ZM33.8614 122.228V121.766C33.8614 119.428 32.5874 118.112 30.7114 118.112C28.6814 118.112 27.0574 119.526 27.0574 121.64C27.0574 123.754 28.6814 125.168 30.7114 125.168C31.7754 125.168 32.7694 124.79 33.5534 123.824L32.3494 122.914C31.9294 123.432 31.3834 123.824 30.5434 123.824C29.6054 123.824 28.8494 123.222 28.7374 122.228H33.8614ZM28.7374 120.968C28.8634 120.002 29.4794 119.372 30.4734 119.372C31.5234 119.372 32.1674 119.988 32.1814 120.968H28.7374ZM35.4325 124.02C35.4325 124.622 35.9645 125.084 36.5525 125.084C37.1685 125.084 37.6725 124.594 37.6725 123.992C37.6725 123.39 37.1545 122.928 36.5525 122.928C35.9365 122.928 35.4325 123.418 35.4325 124.02ZM35.4325 119.274C35.4325 119.876 35.9645 120.338 36.5525 120.338C37.1685 120.338 37.6725 119.848 37.6725 119.246C37.6725 118.644 37.1545 118.182 36.5525 118.182C35.9365 118.182 35.4325 118.672 35.4325 119.274ZM43.8716 125H45.6356V120.898H46.8956C48.9956 120.898 50.8576 120.45 50.8576 117.958C50.8576 115.76 49.1216 115.088 47.2036 115.088H43.8716V125ZM45.6356 119.386V116.6H46.8956C47.8476 116.6 49.0096 116.768 49.0096 117.986C49.0096 119.33 47.7076 119.386 46.6996 119.386H45.6356ZM52.2762 125H53.9562V121.402C53.9562 121.038 54.1802 119.708 55.7622 119.708C56.0282 119.708 56.2942 119.764 56.5742 119.834V118.21C56.3782 118.154 56.1822 118.112 55.9722 118.112C55.0902 118.112 54.3482 118.574 53.9842 119.344H53.9562V118.28H52.2762V125ZM63.9395 122.228V121.766C63.9395 119.428 62.6655 118.112 60.7895 118.112C58.7595 118.112 57.1355 119.526 57.1355 121.64C57.1355 123.754 58.7595 125.168 60.7895 125.168C61.8535 125.168 62.8475 124.79 63.6315 123.824L62.4275 122.914C62.0075 123.432 61.4615 123.824 60.6215 123.824C59.6835 123.824 58.9275 123.222 58.8155 122.228H63.9395ZM58.8155 120.968C58.9415 120.002 59.5575 119.372 60.5515 119.372C61.6015 119.372 62.2455 119.988 62.2595 120.968H58.8155ZM65.5106 128.192H67.1906V124.146H67.2326C67.5826 124.58 68.2546 125.168 69.5146 125.168C71.4326 125.168 72.7626 123.628 72.7626 121.64C72.7626 119.652 71.5166 118.112 69.4446 118.112C68.5066 118.112 67.6246 118.476 67.1346 119.288H67.1066V118.28H65.5106V128.192ZM71.0826 121.64C71.0826 122.69 70.3406 123.656 69.1086 123.656C67.8766 123.656 67.1346 122.69 67.1346 121.64C67.1346 120.59 67.8766 119.624 69.1086 119.624C70.3406 119.624 71.0826 120.59 71.0826 121.64ZM74.329 125H76.009V121.402C76.009 121.038 76.233 119.708 77.815 119.708C78.081 119.708 78.347 119.764 78.627 119.834V118.21C78.431 118.154 78.235 118.112 78.025 118.112C77.143 118.112 76.401 118.574 76.037 119.344H76.009V118.28H74.329V125ZM79.1883 121.64C79.1883 123.754 80.8123 125.168 82.8423 125.168C84.8723 125.168 86.4963 123.754 86.4963 121.64C86.4963 119.526 84.8723 118.112 82.8423 118.112C80.8123 118.112 79.1883 119.526 79.1883 121.64ZM80.8683 121.64C80.8683 120.59 81.6103 119.624 82.8423 119.624C84.0743 119.624 84.8163 120.59 84.8163 121.64C84.8163 122.69 84.0743 123.656 82.8423 123.656C81.6103 123.656 80.8683 122.69 80.8683 121.64ZM93.3892 125H94.9852V114.416H93.3052V119.134H93.2632C92.9132 118.7 92.2412 118.112 90.9812 118.112C89.0632 118.112 87.7332 119.652 87.7332 121.64C87.7332 123.628 88.9792 125.168 91.0512 125.168C91.9892 125.168 92.8712 124.804 93.3612 123.992H93.3892V125ZM89.4132 121.64C89.4132 120.59 90.1552 119.624 91.3872 119.624C92.6192 119.624 93.3612 120.59 93.3612 121.64C93.3612 122.69 92.6192 123.656 91.3872 123.656C90.1552 123.656 89.4132 122.69 89.4132 121.64Z" fill="black"/>
<rect width="960" height="64" transform="translate(0 146)" fill="#34B9B3"/>
<path d="M446.296 171.256H451.03C451.69 171.256 452.314 171.316 452.902 171.436C453.49 171.556 454 171.766 454.432 172.066C454.876 172.354 455.224 172.75 455.476 173.254C455.74 173.746 455.872 174.37 455.872 175.126C455.872 175.87 455.752 176.494 455.512 176.998C455.272 177.502 454.942 177.904 454.522 178.204C454.102 178.504 453.604 178.72 453.028 178.852C452.452 178.972 451.828 179.032 451.156 179.032H449.104V184H446.296V171.256ZM449.104 176.656H450.976C451.228 176.656 451.468 176.632 451.696 176.584C451.936 176.536 452.146 176.458 452.326 176.35C452.518 176.23 452.668 176.074 452.776 175.882C452.896 175.678 452.956 175.426 452.956 175.126C452.956 174.802 452.878 174.544 452.722 174.352C452.578 174.148 452.386 173.992 452.146 173.884C451.918 173.776 451.66 173.71 451.372 173.686C451.084 173.65 450.808 173.632 450.544 173.632H449.104V176.656ZM457.292 175.252H459.992V176.656H460.028C460.316 176.116 460.658 175.714 461.054 175.45C461.45 175.174 461.948 175.036 462.548 175.036C462.704 175.036 462.86 175.042 463.016 175.054C463.172 175.066 463.316 175.09 463.448 175.126V177.592C463.256 177.532 463.064 177.49 462.872 177.466C462.692 177.43 462.5 177.412 462.296 177.412C461.78 177.412 461.372 177.484 461.072 177.628C460.772 177.772 460.538 177.976 460.37 178.24C460.214 178.492 460.112 178.798 460.064 179.158C460.016 179.518 459.992 179.914 459.992 180.346V184H457.292V175.252ZM472.586 182.488C472.154 183.04 471.608 183.466 470.948 183.766C470.288 184.066 469.604 184.216 468.896 184.216C468.224 184.216 467.588 184.108 466.988 183.892C466.4 183.676 465.884 183.37 465.44 182.974C465.008 182.566 464.666 182.08 464.414 181.516C464.162 180.952 464.036 180.322 464.036 179.626C464.036 178.93 464.162 178.3 464.414 177.736C464.666 177.172 465.008 176.692 465.44 176.296C465.884 175.888 466.4 175.576 466.988 175.36C467.588 175.144 468.224 175.036 468.896 175.036C469.52 175.036 470.084 175.144 470.588 175.36C471.104 175.576 471.536 175.888 471.884 176.296C472.244 176.692 472.52 177.172 472.712 177.736C472.904 178.3 473 178.93 473 179.626V180.472H466.736C466.844 180.988 467.078 181.402 467.438 181.714C467.798 182.014 468.242 182.164 468.77 182.164C469.214 182.164 469.586 182.068 469.886 181.876C470.198 181.672 470.468 181.414 470.696 181.102L472.586 182.488ZM470.3 178.636C470.312 178.18 470.162 177.79 469.85 177.466C469.538 177.142 469.136 176.98 468.644 176.98C468.344 176.98 468.08 177.028 467.852 177.124C467.624 177.22 467.426 177.346 467.258 177.502C467.102 177.646 466.976 177.82 466.88 178.024C466.796 178.216 466.748 178.42 466.736 178.636H470.3ZM474.894 175.252H477.378V176.404H477.414C477.522 176.248 477.66 176.092 477.828 175.936C478.008 175.768 478.212 175.618 478.439 175.486C478.68 175.354 478.938 175.246 479.214 175.162C479.49 175.078 479.784 175.036 480.096 175.036C480.744 175.036 481.332 175.15 481.86 175.378C482.388 175.594 482.838 175.906 483.21 176.314C483.594 176.71 483.888 177.184 484.092 177.736C484.296 178.288 484.398 178.894 484.398 179.554C484.398 180.166 484.302 180.754 484.11 181.318C483.93 181.87 483.666 182.362 483.318 182.794C482.982 183.226 482.568 183.574 482.076 183.838C481.584 184.09 481.026 184.216 480.402 184.216C479.838 184.216 479.31 184.132 478.818 183.964C478.338 183.784 477.942 183.484 477.63 183.064H477.594V188.104H474.894V175.252ZM477.378 179.626C477.378 180.286 477.564 180.82 477.936 181.228C478.32 181.636 478.854 181.84 479.538 181.84C480.222 181.84 480.75 181.636 481.122 181.228C481.506 180.82 481.698 180.286 481.698 179.626C481.698 178.966 481.506 178.432 481.122 178.024C480.75 177.616 480.222 177.412 479.538 177.412C478.854 177.412 478.32 177.616 477.936 178.024C477.564 178.432 477.378 178.966 477.378 179.626ZM485.979 175.252H488.679V176.656H488.715C489.003 176.116 489.345 175.714 489.741 175.45C490.137 175.174 490.635 175.036 491.235 175.036C491.391 175.036 491.547 175.042 491.703 175.054C491.859 175.066 492.003 175.09 492.135 175.126V177.592C491.943 177.532 491.751 177.49 491.559 177.466C491.379 177.43 491.187 177.412 490.983 177.412C490.467 177.412 490.059 177.484 489.759 177.628C489.459 177.772 489.225 177.976 489.057 178.24C488.901 178.492 488.799 178.798 488.751 179.158C488.703 179.518 488.679 179.914 488.679 180.346V184H485.979V175.252ZM492.669 179.626C492.669 178.93 492.795 178.3 493.047 177.736C493.299 177.172 493.641 176.692 494.073 176.296C494.517 175.888 495.033 175.576 495.621 175.36C496.221 175.144 496.857 175.036 497.529 175.036C498.201 175.036 498.831 175.144 499.419 175.36C500.019 175.576 500.535 175.888 500.967 176.296C501.411 176.692 501.759 177.172 502.011 177.736C502.263 178.3 502.389 178.93 502.389 179.626C502.389 180.322 502.263 180.952 502.011 181.516C501.759 182.08 501.411 182.566 500.967 182.974C500.535 183.37 500.019 183.676 499.419 183.892C498.831 184.108 498.201 184.216 497.529 184.216C496.857 184.216 496.221 184.108 495.621 183.892C495.033 183.676 494.517 183.37 494.073 182.974C493.641 182.566 493.299 182.08 493.047 181.516C492.795 180.952 492.669 180.322 492.669 179.626ZM495.369 179.626C495.369 180.286 495.555 180.82 495.927 181.228C496.311 181.636 496.845 181.84 497.529 181.84C498.213 181.84 498.741 181.636 499.113 181.228C499.497 180.82 499.689 180.286 499.689 179.626C499.689 178.966 499.497 178.432 499.113 178.024C498.741 177.616 498.213 177.412 497.529 177.412C496.845 177.412 496.311 177.616 495.927 178.024C495.555 178.432 495.369 178.966 495.369 179.626ZM513.159 184H510.675V182.848H510.639C510.531 183.004 510.387 183.166 510.207 183.334C510.039 183.49 509.835 183.634 509.595 183.766C509.367 183.898 509.109 184.006 508.821 184.09C508.545 184.174 508.257 184.216 507.957 184.216C507.309 184.216 506.721 184.108 506.193 183.892C505.665 183.664 505.209 183.352 504.825 182.956C504.453 182.548 504.165 182.068 503.961 181.516C503.757 180.964 503.655 180.358 503.655 179.698C503.655 179.086 503.745 178.504 503.925 177.952C504.117 177.388 504.381 176.89 504.717 176.458C505.065 176.026 505.485 175.684 505.977 175.432C506.469 175.168 507.027 175.036 507.651 175.036C508.215 175.036 508.737 175.126 509.217 175.306C509.709 175.474 510.111 175.768 510.423 176.188H510.459V170.392H513.159V184ZM510.675 179.626C510.675 178.966 510.483 178.432 510.099 178.024C509.727 177.616 509.199 177.412 508.515 177.412C507.831 177.412 507.297 177.616 506.913 178.024C506.541 178.432 506.355 178.966 506.355 179.626C506.355 180.286 506.541 180.82 506.913 181.228C507.297 181.636 507.831 181.84 508.515 181.84C509.199 181.84 509.727 181.636 510.099 181.228C510.483 180.82 510.675 180.286 510.675 179.626Z" fill="white"/>
<path d="M7.252 228.858C6.482 228.13 5.446 227.836 4.41 227.836C2.576 227.836 0.756 228.788 0.756 230.832C0.756 234.374 5.46 233.128 5.46 235.298C5.46 236.208 4.536 236.656 3.724 236.656C2.94 236.656 2.198 236.278 1.764 235.62L0.434 236.908C1.246 237.874 2.45 238.252 3.682 238.252C5.628 238.252 7.308 237.216 7.308 235.088C7.308 231.56 2.604 232.694 2.604 230.706C2.604 229.796 3.416 229.432 4.228 229.432C4.914 229.432 5.586 229.684 5.964 230.216L7.252 228.858ZM9.59306 232.708V235.788C9.59306 237.37 10.0131 238.168 11.7911 238.168C12.1831 238.168 12.7711 238.112 13.1211 237.944V236.53C12.9111 236.684 12.5051 236.74 12.2111 236.74C11.4691 236.74 11.2731 236.32 11.2731 235.648V232.708H13.1211V231.28H11.2731V229.334H9.59306V231.28H8.20706V232.708H9.59306ZM18.6325 238H20.1445V234.136C20.1445 233.184 20.1445 231.112 17.2745 231.112C16.2105 231.112 15.1605 231.434 14.4185 232.19L15.3005 233.072C15.7485 232.652 16.3925 232.372 17.0925 232.372C17.9885 232.372 18.6325 232.806 18.6325 233.632V233.814H18.2125C16.5325 233.814 13.9845 233.968 13.9845 236.152C13.9845 237.482 15.1885 238.168 16.4345 238.168C17.3305 238.168 18.1145 237.832 18.5905 237.076H18.6325V238ZM18.5345 235.368C18.5345 236.306 17.9885 236.908 16.8405 236.908C16.2945 236.908 15.6645 236.642 15.6645 236.026C15.6645 235.06 17.2605 234.99 18.1845 234.99H18.5345V235.368ZM22.554 232.708V235.788C22.554 237.37 22.974 238.168 24.752 238.168C25.144 238.168 25.732 238.112 26.082 237.944V236.53C25.872 236.684 25.466 236.74 25.172 236.74C24.43 236.74 24.234 236.32 24.234 235.648V232.708H26.082V231.28H24.234V229.334H22.554V231.28H21.168V232.708H22.554ZM33.8614 235.228V234.766C33.8614 232.428 32.5874 231.112 30.7114 231.112C28.6814 231.112 27.0574 232.526 27.0574 234.64C27.0574 236.754 28.6814 238.168 30.7114 238.168C31.7754 238.168 32.7694 237.79 33.5534 236.824L32.3494 235.914C31.9294 236.432 31.3834 236.824 30.5434 236.824C29.6054 236.824 28.8494 236.222 28.7374 235.228H33.8614ZM28.7374 233.968C28.8634 233.002 29.4794 232.372 30.4734 232.372C31.5234 232.372 32.1674 232.988 32.1814 233.968H28.7374ZM35.4325 237.02C35.4325 237.622 35.9645 238.084 36.5525 238.084C37.1685 238.084 37.6725 237.594 37.6725 236.992C37.6725 236.39 37.1545 235.928 36.5525 235.928C35.9365 235.928 35.4325 236.418 35.4325 237.02ZM35.4325 232.274C35.4325 232.876 35.9645 233.338 36.5525 233.338C37.1685 233.338 37.6725 232.848 37.6725 232.246C37.6725 231.644 37.1545 231.182 36.5525 231.182C35.9365 231.182 35.4325 231.672 35.4325 232.274ZM43.8716 238H47.5676C49.9476 238 52.8176 236.432 52.8176 233.044C52.8176 229.684 50.3816 228.088 47.7776 228.088H43.8716V238ZM45.6356 236.404V229.684H47.2456C49.4016 229.684 50.9696 230.636 50.9696 233.044C50.9696 235.452 49.1636 236.404 46.9516 236.404H45.6356ZM58.5407 238H60.0527V234.136C60.0527 233.184 60.0527 231.112 57.1827 231.112C56.1187 231.112 55.0687 231.434 54.3267 232.19L55.2087 233.072C55.6567 232.652 56.3007 232.372 57.0007 232.372C57.8967 232.372 58.5407 232.806 58.5407 233.632V233.814H58.1207C56.4407 233.814 53.8927 233.968 53.8927 236.152C53.8927 237.482 55.0967 238.168 56.3427 238.168C57.2387 238.168 58.0227 237.832 58.4987 237.076H58.5407V238ZM58.4427 235.368C58.4427 236.306 57.8967 236.908 56.7487 236.908C56.2027 236.908 55.5727 236.642 55.5727 236.026C55.5727 235.06 57.1687 234.99 58.0927 234.99H58.4427V235.368ZM61.8602 238H63.5402V234.332C63.5402 233.436 63.9742 232.624 65.0802 232.624C66.2562 232.624 66.3122 233.856 66.3122 234.598V238H67.9922V233.758C67.9922 232.386 67.3482 231.112 65.5422 231.112C64.4222 231.112 63.7922 231.686 63.4842 232.358H63.4562V231.28H61.8602V238ZM75.2193 231.28V232.288H75.1913C74.7013 231.476 73.8193 231.112 72.8813 231.112C70.8093 231.112 69.5633 232.652 69.5633 234.64C69.5633 236.544 70.8933 238.084 72.9093 238.084C73.7493 238.084 74.6173 237.762 75.1073 237.104H75.1353V237.594C75.1353 238.924 74.6313 239.848 73.0073 239.848C72.0693 239.848 71.3693 239.498 70.6973 238.882L69.6893 240.254C70.6413 241.094 71.7753 241.36 73.0213 241.36C75.6393 241.36 76.8153 239.82 76.8153 237.398V231.28H75.2193ZM73.2313 232.624C74.4493 232.624 75.2193 233.436 75.2193 234.598C75.2193 235.718 74.4633 236.572 73.2173 236.572C72.0833 236.572 71.2433 235.69 71.2433 234.626C71.2433 233.436 72.0553 232.624 73.2313 232.624ZM85.1856 235.228V234.766C85.1856 232.428 83.9116 231.112 82.0356 231.112C80.0056 231.112 78.3816 232.526 78.3816 234.64C78.3816 236.754 80.0056 238.168 82.0356 238.168C83.0996 238.168 84.0936 237.79 84.8776 236.824L83.6736 235.914C83.2536 236.432 82.7076 236.824 81.8676 236.824C80.9296 236.824 80.1736 236.222 80.0616 235.228H85.1856ZM80.0616 233.968C80.1876 233.002 80.8036 232.372 81.7976 232.372C82.8476 232.372 83.4916 232.988 83.5056 233.968H80.0616ZM86.7567 238H88.4367V234.402C88.4367 234.038 88.6607 232.708 90.2427 232.708C90.5087 232.708 90.7747 232.764 91.0547 232.834V231.21C90.8587 231.154 90.6627 231.112 90.4527 231.112C89.5707 231.112 88.8287 231.574 88.4647 232.344H88.4367V231.28H86.7567V238Z" fill="black"/>
<rect width="960" height="64" transform="translate(0 259)" fill="#DB3259"/>
<path d="M459.405 284.256H468.063V286.848H462.213V289.224H467.739V291.816H462.213V294.408H468.387V297H459.405V284.256ZM470.293 288.252H472.993V289.656H473.029C473.317 289.116 473.659 288.714 474.055 288.45C474.451 288.174 474.949 288.036 475.549 288.036C475.705 288.036 475.861 288.042 476.017 288.054C476.173 288.066 476.317 288.09 476.449 288.126V290.592C476.257 290.532 476.065 290.49 475.873 290.466C475.693 290.43 475.501 290.412 475.297 290.412C474.781 290.412 474.373 290.484 474.073 290.628C473.773 290.772 473.539 290.976 473.371 291.24C473.215 291.492 473.113 291.798 473.065 292.158C473.017 292.518 472.993 292.914 472.993 293.346V297H470.293V288.252ZM477.623 288.252H480.323V289.656H480.359C480.647 289.116 480.989 288.714 481.385 288.45C481.781 288.174 482.279 288.036 482.879 288.036C483.035 288.036 483.191 288.042 483.347 288.054C483.503 288.066 483.647 288.09 483.779 288.126V290.592C483.587 290.532 483.395 290.49 483.203 290.466C483.023 290.43 482.831 290.412 482.627 290.412C482.111 290.412 481.703 290.484 481.403 290.628C481.103 290.772 480.869 290.976 480.701 291.24C480.545 291.492 480.443 291.798 480.395 292.158C480.347 292.518 480.323 292.914 480.323 293.346V297H477.623V288.252ZM484.313 292.626C484.313 291.93 484.439 291.3 484.691 290.736C484.943 290.172 485.285 289.692 485.717 289.296C486.161 288.888 486.677 288.576 487.265 288.36C487.865 288.144 488.501 288.036 489.173 288.036C489.845 288.036 490.475 288.144 491.063 288.36C491.663 288.576 492.179 288.888 492.611 289.296C493.055 289.692 493.403 290.172 493.655 290.736C493.907 291.3 494.033 291.93 494.033 292.626C494.033 293.322 493.907 293.952 493.655 294.516C493.403 295.08 493.055 295.566 492.611 295.974C492.179 296.37 491.663 296.676 491.063 296.892C490.475 297.108 489.845 297.216 489.173 297.216C488.501 297.216 487.865 297.108 487.265 296.892C486.677 296.676 486.161 296.37 485.717 295.974C485.285 295.566 484.943 295.08 484.691 294.516C484.439 293.952 484.313 293.322 484.313 292.626ZM487.013 292.626C487.013 293.286 487.199 293.82 487.571 294.228C487.955 294.636 488.489 294.84 489.173 294.84C489.857 294.84 490.385 294.636 490.757 294.228C491.141 293.82 491.333 293.286 491.333 292.626C491.333 291.966 491.141 291.432 490.757 291.024C490.385 290.616 489.857 290.412 489.173 290.412C488.489 290.412 487.955 290.616 487.571 291.024C487.199 291.432 487.013 291.966 487.013 292.626ZM495.623 288.252H498.323V289.656H498.359C498.647 289.116 498.989 288.714 499.385 288.45C499.781 288.174 500.279 288.036 500.879 288.036C501.035 288.036 501.191 288.042 501.347 288.054C501.503 288.066 501.647 288.09 501.779 288.126V290.592C501.587 290.532 501.395 290.49 501.203 290.466C501.023 290.43 500.831 290.412 500.627 290.412C500.111 290.412 499.703 290.484 499.403 290.628C499.103 290.772 498.869 290.976 498.701 291.24C498.545 291.492 498.443 291.798 498.395 292.158C498.347 292.518 498.323 292.914 498.323 293.346V297H495.623V288.252Z" fill="white"/>
<path d="M922.06 291L926.48 286.58C926.554 286.511 926.613 286.428 926.654 286.336C926.695 286.244 926.717 286.145 926.719 286.044C926.72 285.944 926.702 285.844 926.664 285.75C926.626 285.657 926.57 285.572 926.499 285.501C926.428 285.43 926.343 285.374 926.25 285.336C926.156 285.298 926.056 285.28 925.955 285.281C925.855 285.283 925.755 285.305 925.663 285.346C925.571 285.387 925.489 285.446 925.42 285.52L921 289.94L916.58 285.52C916.438 285.387 916.25 285.315 916.055 285.319C915.861 285.322 915.676 285.401 915.538 285.538C915.401 285.676 915.322 285.861 915.319 286.055C915.315 286.25 915.388 286.438 915.52 286.58L919.94 291L915.52 295.42C915.38 295.561 915.301 295.751 915.301 295.95C915.301 296.149 915.38 296.339 915.52 296.48C915.661 296.62 915.851 296.699 916.05 296.699C916.249 296.699 916.439 296.62 916.58 296.48L921 292.06L925.42 296.48C925.561 296.62 925.751 296.699 925.95 296.699C926.149 296.699 926.339 296.62 926.48 296.48C926.62 296.339 926.699 296.149 926.699 295.95C926.699 295.751 926.62 295.561 926.48 295.42L922.06 291Z" fill="white"/>
</svg>
