<svg width="320" height="92" viewBox="0 0 320 92" fill="none" xmlns="http://www.w3.org/2000/svg">
<g clip-path="url(#clip0_54_14276)">
<path d="M1.408 18H2.752V12.912H8.032V11.664H2.752V7.92H8.432V6.672H1.408V18ZM10.1866 18H11.4346V10.512H10.1866V18ZM9.89863 7.584C9.89863 8.112 10.2826 8.496 10.8106 8.496C11.3386 8.496 11.7226 8.112 11.7226 7.584C11.7226 7.088 11.3226 6.672 10.8106 6.672C10.2986 6.672 9.89863 7.088 9.89863 7.584ZM19.6624 15.904C19.0704 16.656 18.3504 17.04 17.2784 17.04C15.9184 17.04 14.9264 15.936 14.8304 14.64H20.8784V14.24C20.8784 11.76 19.4384 10.32 17.3264 10.32C15.1184 10.32 13.4864 11.936 13.4864 14.256C13.4864 16.432 14.9264 18.192 17.2784 18.192C18.6704 18.192 19.7264 17.776 20.6064 16.64L19.6624 15.904ZM14.8304 13.584C14.9904 12.32 15.9024 11.472 17.2784 11.472C18.6544 11.472 19.4864 12.32 19.5344 13.584H14.8304ZM22.921 18H24.169V5.904H22.921V18ZM32.8768 18H34.1248V5.904H32.8768V11.6H32.8448C32.1568 10.8 31.2448 10.32 30.1568 10.32C27.8048 10.32 26.2208 11.984 26.2208 14.256C26.2208 16.496 27.8688 18.192 29.9648 18.192C31.3088 18.192 32.3808 17.52 32.8448 16.672H32.8768V18ZM32.8768 14.256C32.8768 15.824 31.8368 17.04 30.2208 17.04C28.6048 17.04 27.5648 15.824 27.5648 14.256C27.5648 12.688 28.6048 11.472 30.2208 11.472C31.8368 11.472 32.8768 12.688 32.8768 14.256ZM41.1111 18H47.6391V16.752H42.4551V6.672H41.1111V18ZM49.5751 12.288C50.1671 11.744 50.9991 11.472 51.7991 11.472C52.9671 11.472 53.6551 12.032 53.6551 13.12V13.344H53.1751C51.3351 13.344 48.4551 13.488 48.4551 15.968C48.4551 17.424 49.7191 18.192 51.2391 18.192C52.3751 18.192 53.2071 17.648 53.7031 16.88H53.7351C53.7351 17.2 53.7351 17.664 53.8151 18H55.0151C54.9511 17.616 54.9031 17.136 54.9031 16.704V13.488C54.9031 11.376 53.9751 10.32 51.7671 10.32C50.6791 10.32 49.5591 10.688 48.7911 11.472L49.5751 12.288ZM53.6551 14.4V14.88C53.6231 16.096 52.8871 17.136 51.4471 17.136C50.5031 17.136 49.7991 16.784 49.7991 15.84C49.7991 14.832 50.8231 14.4 52.4071 14.4H53.6551ZM57.12 18H58.368V16.672H58.4C58.864 17.52 59.936 18.192 61.28 18.192C63.376 18.192 65.024 16.496 65.024 14.256C65.024 11.984 63.44 10.32 61.088 10.32C60 10.32 59.088 10.8 58.4 11.6H58.368V5.904H57.12V18ZM58.368 14.256C58.368 12.688 59.408 11.472 61.024 11.472C62.64 11.472 63.68 12.688 63.68 14.256C63.68 15.824 62.64 17.04 61.024 17.04C59.408 17.04 58.368 15.824 58.368 14.256ZM72.7093 15.904C72.1173 16.656 71.3973 17.04 70.3253 17.04C68.9653 17.04 67.9733 15.936 67.8773 14.64H73.9253V14.24C73.9253 11.76 72.4853 10.32 70.3733 10.32C68.1653 10.32 66.5333 11.936 66.5333 14.256C66.5333 16.432 67.9733 18.192 70.3253 18.192C71.7173 18.192 72.7733 17.776 73.6533 16.64L72.7093 15.904ZM67.8773 13.584C68.0373 12.32 68.9493 11.472 70.3253 11.472C71.7013 11.472 72.5333 12.32 72.5813 13.584H67.8773ZM75.9679 18H77.2159V5.904H75.9679V18Z" fill="#333333"/>
<path opacity="0.8" d="M87.384 4.672H86.04V6.944L83.864 6.192L83.448 7.472L85.64 8.224L84.264 10.032L85.336 10.848L86.68 9.008L88.056 10.896L89.16 10.096L87.784 8.224L89.96 7.52L89.544 6.24L87.384 6.944V4.672Z" fill="#DB3259"/>
</g>
<rect x="0.5" y="28.5" width="319" height="35" rx="3.5" fill="white"/>
<path opacity="0.8" d="M13.408 50H14.752V44.912H17.024C18.624 44.912 20.736 44.256 20.736 41.776C20.736 39.408 18.848 38.672 16.768 38.672H13.408V50ZM14.752 39.92H17.024C18.368 39.92 19.296 40.528 19.296 41.792C19.296 43.056 18.368 43.664 17.024 43.664H14.752V39.92ZM22.7804 50H24.0284V37.904H22.7804V50ZM27.2001 44.288C27.7921 43.744 28.6241 43.472 29.4241 43.472C30.5921 43.472 31.2801 44.032 31.2801 45.12V45.344H30.8001C28.9601 45.344 26.0801 45.488 26.0801 47.968C26.0801 49.424 27.3441 50.192 28.8641 50.192C30.0001 50.192 30.8321 49.648 31.3281 48.88H31.3601C31.3601 49.2 31.3601 49.664 31.4401 50H32.6401C32.5761 49.616 32.5281 49.136 32.5281 48.704V45.488C32.5281 43.376 31.6001 42.32 29.3921 42.32C28.3041 42.32 27.1841 42.688 26.4161 43.472L27.2001 44.288ZM31.2801 46.4V46.88C31.2481 48.096 30.5121 49.136 29.0721 49.136C28.1281 49.136 27.4241 48.784 27.4241 47.84C27.4241 46.832 28.4481 46.4 30.0321 46.4H31.2801ZM41.129 43.504C40.377 42.688 39.353 42.32 38.249 42.32C35.945 42.32 34.377 43.984 34.377 46.256C34.377 48.56 35.929 50.192 38.249 50.192C39.337 50.192 40.361 49.824 41.081 48.992L40.153 48.112C39.689 48.752 39.065 49.04 38.249 49.04C36.729 49.04 35.721 47.792 35.721 46.256C35.721 44.72 36.569 43.472 38.249 43.472C39.001 43.472 39.609 43.744 40.137 44.384L41.129 43.504ZM48.2718 47.904C47.6798 48.656 46.9598 49.04 45.8878 49.04C44.5278 49.04 43.5358 47.936 43.4398 46.64H49.4878V46.24C49.4878 43.76 48.0478 42.32 45.9358 42.32C43.7278 42.32 42.0958 43.936 42.0958 46.256C42.0958 48.432 43.5358 50.192 45.8878 50.192C47.2798 50.192 48.3358 49.776 49.2158 48.64L48.2718 47.904ZM43.4398 45.584C43.5998 44.32 44.5118 43.472 45.8878 43.472C47.2638 43.472 48.0958 44.32 48.1438 45.584H43.4398ZM51.4184 50H52.6664V46.352C52.6664 44.64 53.3704 43.472 54.9864 43.472C56.1544 43.472 56.6984 44.256 56.6984 45.504V50H57.9464V45.376C57.9464 43.568 57.0664 42.32 55.0984 42.32C53.9304 42.32 53.0344 42.96 52.6984 43.552H52.6664V37.904H51.4184V50ZM59.877 46.256C59.877 48.592 61.573 50.192 63.877 50.192C66.181 50.192 67.877 48.592 67.877 46.256C67.877 43.92 66.181 42.32 63.877 42.32C61.573 42.32 59.877 43.92 59.877 46.256ZM61.221 46.256C61.221 44.688 62.261 43.472 63.877 43.472C65.493 43.472 66.533 44.688 66.533 46.256C66.533 47.824 65.493 49.04 63.877 49.04C62.261 49.04 61.221 47.824 61.221 46.256ZM69.921 50H71.169V37.904H69.921V50ZM79.8768 50H81.1248V37.904H79.8768V43.6H79.8448C79.1568 42.8 78.2448 42.32 77.1568 42.32C74.8048 42.32 73.2208 43.984 73.2208 46.256C73.2208 48.496 74.8688 50.192 76.9648 50.192C78.3088 50.192 79.3808 49.52 79.8448 48.672H79.8768V50ZM79.8768 46.256C79.8768 47.824 78.8368 49.04 77.2208 49.04C75.6048 49.04 74.5648 47.824 74.5648 46.256C74.5648 44.688 75.6048 43.472 77.2208 43.472C78.8368 43.472 79.8768 44.688 79.8768 46.256ZM89.178 47.904C88.586 48.656 87.866 49.04 86.794 49.04C85.434 49.04 84.442 47.936 84.346 46.64H90.394V46.24C90.394 43.76 88.954 42.32 86.842 42.32C84.634 42.32 83.002 43.936 83.002 46.256C83.002 48.432 84.442 50.192 86.794 50.192C88.186 50.192 89.242 49.776 90.122 48.64L89.178 47.904ZM84.346 45.584C84.506 44.32 85.418 43.472 86.794 43.472C88.17 43.472 89.002 44.32 89.05 45.584H84.346ZM92.3246 50H93.5726V46.352C93.5726 44.64 94.2446 43.568 95.7646 43.568C95.9886 43.568 96.2286 43.6 96.4366 43.664L96.5166 42.4C96.3406 42.336 96.1646 42.32 96.0046 42.32C94.7726 42.32 93.8446 43.008 93.5086 43.744H93.4766C93.4766 43.328 93.4446 42.912 93.4446 42.512H92.2606C92.2606 43.008 92.3246 43.6 92.3246 44.288V50Z" fill="#9EA6B5"/>
<rect x="0.5" y="28.5" width="319" height="35" rx="3.5" stroke="#DB3259"/>
<path d="M16.6667 83.6251H3.33335C3.22415 83.6247 3.11688 83.5962 3.02197 83.5422C2.92706 83.4881 2.84773 83.4105 2.79169 83.3167C2.73841 83.2212 2.71045 83.1136 2.71045 83.0042C2.71045 82.8949 2.73841 82.7873 2.79169 82.6917L9.45835 71.0251C9.51765 70.9357 9.59814 70.8624 9.69265 70.8116C9.78716 70.7609 9.89276 70.7344 10 70.7344C10.1073 70.7344 10.2129 70.7609 10.3074 70.8116C10.4019 70.8624 10.4824 70.9357 10.5417 71.0251L17.2084 82.6917C17.2616 82.7873 17.2896 82.8949 17.2896 83.0042C17.2896 83.1136 17.2616 83.2212 17.2084 83.3167C17.1523 83.4105 17.073 83.4881 16.9781 83.5422C16.8832 83.5962 16.7759 83.6247 16.6667 83.6251ZM4.40835 82.3751H15.5917L10 72.5917L4.40835 82.3751Z" fill="#DB3259"/>
<path d="M10 79.0417C9.83491 79.0395 9.67719 78.973 9.56045 78.8562C9.4437 78.7395 9.37716 78.5818 9.375 78.4167V75.5C9.375 75.3342 9.44085 75.1753 9.55806 75.0581C9.67527 74.9408 9.83424 74.875 10 74.875C10.1658 74.875 10.3247 74.9408 10.4419 75.0581C10.5592 75.1753 10.625 75.3342 10.625 75.5V78.4167C10.6228 78.5818 10.5563 78.7395 10.4396 78.8562C10.3228 78.973 10.1651 79.0395 10 79.0417V79.0417Z" fill="#DB3259"/>
<path d="M10 81.5417C9.83491 81.5395 9.67719 81.473 9.56045 81.3562C9.4437 81.2395 9.37716 81.0818 9.375 80.9167V80.5C9.375 80.3342 9.44085 80.1753 9.55806 80.0581C9.67527 79.9408 9.83424 79.875 10 79.875C10.1658 79.875 10.3247 79.9408 10.4419 80.0581C10.5592 80.1753 10.625 80.3342 10.625 80.5V80.9167C10.6228 81.0818 10.5563 81.2395 10.4396 81.3562C10.3228 81.473 10.1651 81.5395 10 81.5417V81.5417Z" fill="#DB3259"/>
<path d="M35.008 72.672H26.176V73.92H29.92V84H31.264V73.92H35.008V72.672ZM36.3715 84H37.6195V80.352C37.6195 78.64 38.3235 77.472 39.9395 77.472C41.1075 77.472 41.6515 78.256 41.6515 79.504V84H42.8995V79.376C42.8995 77.568 42.0195 76.32 40.0515 76.32C38.8835 76.32 37.9875 76.96 37.6515 77.552H37.6195V71.904H36.3715V84ZM45.3741 84H46.6221V76.512H45.3741V84ZM45.0861 73.584C45.0861 74.112 45.4701 74.496 45.9981 74.496C46.5261 74.496 46.9101 74.112 46.9101 73.584C46.9101 73.088 46.5101 72.672 45.9981 72.672C45.4861 72.672 45.0861 73.088 45.0861 73.584ZM48.2739 82.8C49.0099 83.856 49.9219 84.192 51.1859 84.192C52.6739 84.192 54.1779 83.536 54.1779 81.84C54.1779 80.336 53.0579 79.856 51.7299 79.6C50.7379 79.408 49.8419 79.136 49.8419 78.512C49.8419 77.808 50.6259 77.472 51.3139 77.472C52.0499 77.472 52.5779 77.84 52.8979 78.368L53.9379 77.68C53.4259 76.72 52.4499 76.32 51.3939 76.32C50.0019 76.32 48.5939 77.072 48.5939 78.528C48.5939 80.08 49.8099 80.384 51.2339 80.704C52.0339 80.88 52.8339 81.088 52.8339 81.888C52.8339 82.704 51.9699 83.04 51.1859 83.04C50.3059 83.04 49.7619 82.64 49.2659 82.032L48.2739 82.8ZM60.4835 84H61.7315V76.512H60.4835V84ZM60.1955 73.584C60.1955 74.112 60.5795 74.496 61.1075 74.496C61.6355 74.496 62.0195 74.112 62.0195 73.584C62.0195 73.088 61.6195 72.672 61.1075 72.672C60.5955 72.672 60.1955 73.088 60.1955 73.584ZM63.3833 82.8C64.1193 83.856 65.0312 84.192 66.2953 84.192C67.7833 84.192 69.2873 83.536 69.2873 81.84C69.2873 80.336 68.1673 79.856 66.8393 79.6C65.8473 79.408 64.9513 79.136 64.9513 78.512C64.9513 77.808 65.7353 77.472 66.4233 77.472C67.1593 77.472 67.6873 77.84 68.0073 78.368L69.0473 77.68C68.5353 76.72 67.5593 76.32 66.5033 76.32C65.1113 76.32 63.7033 77.072 63.7033 78.528C63.7033 80.08 64.9193 80.384 66.3433 80.704C67.1432 80.88 67.9433 81.088 67.9433 81.888C67.9433 82.704 67.0793 83.04 66.2953 83.04C65.4153 83.04 64.8713 82.64 64.3753 82.032L63.3833 82.8ZM76.1689 78.288C76.7609 77.744 77.5929 77.472 78.3929 77.472C79.5609 77.472 80.2489 78.032 80.2489 79.12V79.344H79.7689C77.9289 79.344 75.0489 79.488 75.0489 81.968C75.0489 83.424 76.3129 84.192 77.8329 84.192C78.9689 84.192 79.8009 83.648 80.2969 82.88H80.3289C80.3289 83.2 80.3289 83.664 80.4089 84H81.6089C81.5449 83.616 81.4969 83.136 81.4969 82.704V79.488C81.4969 77.376 80.5689 76.32 78.3609 76.32C77.2729 76.32 76.1529 76.688 75.3849 77.472L76.1689 78.288ZM80.2489 80.4V80.88C80.2169 82.096 79.4809 83.136 78.0409 83.136C77.0969 83.136 76.3929 82.784 76.3929 81.84C76.3929 80.832 77.4169 80.4 79.0009 80.4H80.2489ZM88.2309 84H89.4789V80.352C89.4789 78.64 90.1829 77.472 91.7989 77.472C92.8229 77.472 93.2389 78.112 93.2389 79.76V84H94.4869V79.68C94.4869 78.336 95.3669 77.472 96.4229 77.472C97.8789 77.472 98.2469 78.48 98.2469 79.52V84H99.4949V79.456C99.4949 77.52 98.7909 76.32 96.6469 76.32C95.5109 76.32 94.8229 76.864 94.2789 77.744C94.0389 77.232 93.5269 76.32 91.9109 76.32C90.6789 76.32 89.7509 77.008 89.4149 77.744H89.3829C89.3829 77.328 89.3509 76.912 89.3509 76.512H88.1669C88.1669 77.008 88.2309 77.6 88.2309 78.288V84ZM107.6 81.904C107.008 82.656 106.288 83.04 105.216 83.04C103.856 83.04 102.864 81.936 102.768 80.64H108.816V80.24C108.816 77.76 107.376 76.32 105.264 76.32C103.056 76.32 101.424 77.936 101.424 80.256C101.424 82.432 102.864 84.192 105.216 84.192C106.608 84.192 107.664 83.776 108.544 82.64L107.6 81.904ZM102.768 79.584C102.928 78.32 103.84 77.472 105.216 77.472C106.592 77.472 107.424 78.32 107.472 79.584H102.768ZM109.915 82.8C110.651 83.856 111.562 84.192 112.827 84.192C114.315 84.192 115.819 83.536 115.819 81.84C115.819 80.336 114.699 79.856 113.371 79.6C112.379 79.408 111.483 79.136 111.483 78.512C111.483 77.808 112.267 77.472 112.955 77.472C113.691 77.472 114.219 77.84 114.539 78.368L115.579 77.68C115.067 76.72 114.091 76.32 113.035 76.32C111.643 76.32 110.235 77.072 110.235 78.528C110.235 80.08 111.451 80.384 112.875 80.704C113.674 80.88 114.475 81.088 114.475 81.888C114.475 82.704 113.611 83.04 112.827 83.04C111.947 83.04 111.403 82.64 110.907 82.032L109.915 82.8ZM116.727 82.8C117.463 83.856 118.375 84.192 119.639 84.192C121.127 84.192 122.631 83.536 122.631 81.84C122.631 80.336 121.511 79.856 120.183 79.6C119.191 79.408 118.295 79.136 118.295 78.512C118.295 77.808 119.079 77.472 119.767 77.472C120.503 77.472 121.031 77.84 121.351 78.368L122.391 77.68C121.879 76.72 120.903 76.32 119.847 76.32C118.455 76.32 117.047 77.072 117.047 78.528C117.047 80.08 118.263 80.384 119.687 80.704C120.487 80.88 121.287 81.088 121.287 81.888C121.287 82.704 120.423 83.04 119.639 83.04C118.759 83.04 118.215 82.64 117.719 82.032L116.727 82.8ZM125.06 78.288C125.652 77.744 126.484 77.472 127.284 77.472C128.452 77.472 129.14 78.032 129.14 79.12V79.344H128.66C126.82 79.344 123.94 79.488 123.94 81.968C123.94 83.424 125.204 84.192 126.724 84.192C127.86 84.192 128.692 83.648 129.188 82.88H129.22C129.22 83.2 129.22 83.664 129.3 84H130.5C130.436 83.616 130.388 83.136 130.388 82.704V79.488C130.388 77.376 129.46 76.32 127.252 76.32C126.164 76.32 125.044 76.688 124.276 77.472L125.06 78.288ZM129.14 80.4V80.88C129.108 82.096 128.372 83.136 126.932 83.136C125.988 83.136 125.284 82.784 125.284 81.84C125.284 80.832 126.308 80.4 127.891 80.4H129.14ZM140.14 76.512H138.892V77.792H138.86C138.364 76.8 137.228 76.32 136.22 76.32C133.836 76.32 132.236 77.808 132.236 80.256C132.236 82.464 133.868 84.096 136.22 84.096C137.212 84.096 138.268 83.664 138.86 82.704H138.892V83.664C138.892 85.248 138.3 86.688 136.06 86.688C134.908 86.688 134.06 86.24 133.276 85.392L132.38 86.416C133.436 87.456 134.604 87.84 136.06 87.84C138.684 87.84 140.14 86.368 140.14 83.664V76.512ZM133.58 80.256C133.58 78.688 134.652 77.472 136.22 77.472C137.804 77.472 138.892 78.608 138.892 80.224C138.892 81.664 137.932 82.944 136.22 82.944C134.764 82.944 133.58 81.776 133.58 80.256ZM148.194 81.904C147.602 82.656 146.882 83.04 145.81 83.04C144.45 83.04 143.458 81.936 143.362 80.64H149.41V80.24C149.41 77.76 147.97 76.32 145.858 76.32C143.65 76.32 142.018 77.936 142.018 80.256C142.018 82.432 143.458 84.192 145.81 84.192C147.202 84.192 148.258 83.776 149.138 82.64L148.194 81.904ZM143.362 79.584C143.522 78.32 144.434 77.472 145.81 77.472C147.186 77.472 148.018 78.32 148.066 79.584H143.362Z" fill="#DB3259"/>
<defs>
<clipPath id="clip0_54_14276">
<rect width="91" height="24" fill="white"/>
</clipPath>
</defs>
</svg>
