<svg width="1187" height="111" viewBox="0 0 1187 111" fill="none" xmlns="http://www.w3.org/2000/svg">
<path d="M11.252 2.858C10.482 2.13 9.446 1.836 8.41 1.836C6.576 1.836 4.756 2.788 4.756 4.832C4.756 8.374 9.46 7.128 9.46 9.298C9.46 10.208 8.536 10.656 7.724 10.656C6.94 10.656 6.198 10.278 5.764 9.62L4.434 10.908C5.246 11.874 6.45 12.252 7.682 12.252C9.628 12.252 11.308 11.216 11.308 9.088C11.308 5.56 6.604 6.694 6.604 4.706C6.604 3.796 7.416 3.432 8.228 3.432C8.914 3.432 9.586 3.684 9.964 4.216L11.252 2.858ZM13.5931 6.708V9.788C13.5931 11.37 14.0131 12.168 15.7911 12.168C16.1831 12.168 16.7711 12.112 17.1211 11.944V10.53C16.9111 10.684 16.5051 10.74 16.2111 10.74C15.4691 10.74 15.2731 10.32 15.2731 9.648V6.708H17.1211V5.28H15.2731V3.334H13.5931V5.28H12.2071V6.708H13.5931ZM22.6325 12H24.1445V8.136C24.1445 7.184 24.1445 5.112 21.2745 5.112C20.2105 5.112 19.1605 5.434 18.4185 6.19L19.3005 7.072C19.7485 6.652 20.3925 6.372 21.0925 6.372C21.9885 6.372 22.6325 6.806 22.6325 7.632V7.814H22.2125C20.5325 7.814 17.9845 7.968 17.9845 10.152C17.9845 11.482 19.1885 12.168 20.4345 12.168C21.3305 12.168 22.1145 11.832 22.5905 11.076H22.6325V12ZM22.5345 9.368C22.5345 10.306 21.9885 10.908 20.8405 10.908C20.2945 10.908 19.6645 10.642 19.6645 10.026C19.6645 9.06 21.2605 8.99 22.1845 8.99H22.5345V9.368ZM26.554 6.708V9.788C26.554 11.37 26.974 12.168 28.752 12.168C29.144 12.168 29.732 12.112 30.082 11.944V10.53C29.872 10.684 29.466 10.74 29.172 10.74C28.43 10.74 28.234 10.32 28.234 9.648V6.708H30.082V5.28H28.234V3.334H26.554V5.28H25.168V6.708H26.554ZM37.8614 9.228V8.766C37.8614 6.428 36.5874 5.112 34.7114 5.112C32.6814 5.112 31.0574 6.526 31.0574 8.64C31.0574 10.754 32.6814 12.168 34.7114 12.168C35.7754 12.168 36.7694 11.79 37.5534 10.824L36.3494 9.914C35.9294 10.432 35.3834 10.824 34.5434 10.824C33.6054 10.824 32.8494 10.222 32.7374 9.228H37.8614ZM32.7374 7.968C32.8634 7.002 33.4794 6.372 34.4734 6.372C35.5234 6.372 36.1674 6.988 36.1814 7.968H32.7374ZM39.4325 11.02C39.4325 11.622 39.9645 12.084 40.5525 12.084C41.1685 12.084 41.6725 11.594 41.6725 10.992C41.6725 10.39 41.1545 9.928 40.5525 9.928C39.9365 9.928 39.4325 10.418 39.4325 11.02ZM39.4325 6.274C39.4325 6.876 39.9645 7.338 40.5525 7.338C41.1685 7.338 41.6725 6.848 41.6725 6.246C41.6725 5.644 41.1545 5.182 40.5525 5.182C39.9365 5.182 39.4325 5.672 39.4325 6.274ZM47.8296 12H49.5936V2.088H47.8296V12ZM51.6141 12H53.2941V8.332C53.2941 7.436 53.7281 6.624 54.8341 6.624C56.0101 6.624 56.0661 7.856 56.0661 8.598V12H57.7461V7.758C57.7461 6.386 57.1021 5.112 55.2961 5.112C54.1761 5.112 53.5461 5.686 53.2381 6.358H53.2101V5.28H51.6141V12ZM60.2552 12H61.9352V6.708H63.4892V5.28H61.9352V4.062C61.9352 3.32 62.0752 2.676 63.0132 2.676C63.2512 2.676 63.4752 2.718 63.7132 2.774L63.8252 1.346C63.4752 1.276 63.1252 1.248 62.7612 1.248C60.6752 1.248 60.2552 2.466 60.2552 4.328V5.28H58.8692V6.708H60.2552V12ZM64.239 8.64C64.239 10.754 65.863 12.168 67.893 12.168C69.923 12.168 71.547 10.754 71.547 8.64C71.547 6.526 69.923 5.112 67.893 5.112C65.863 5.112 64.239 6.526 64.239 8.64ZM65.919 8.64C65.919 7.59 66.661 6.624 67.893 6.624C69.125 6.624 69.867 7.59 69.867 8.64C69.867 9.69 69.125 10.656 67.893 10.656C66.661 10.656 65.919 9.69 65.919 8.64Z" fill="black"/>
<g filter="url(#filter0_bd_52_14113)">
<rect x="4" y="33" width="320" height="70" rx="8" fill="#F4FBFC" fill-opacity="0.85" shape-rendering="crispEdges"/>
<path d="M32 72.75C31.8019 72.7474 31.6126 72.6676 31.4725 72.5275C31.3324 72.3874 31.2526 72.1981 31.25 72V67C31.25 66.8011 31.329 66.6103 31.4697 66.4697C31.6103 66.329 31.8011 66.25 32 66.25C32.1989 66.25 32.3897 66.329 32.5303 66.4697C32.671 66.6103 32.75 66.8011 32.75 67V72C32.7474 72.1981 32.6676 72.3874 32.5275 72.5275C32.3874 72.6676 32.1981 72.7474 32 72.75Z" fill="#5666BC"/>
<path d="M32 65.25C31.8019 65.2474 31.6126 65.1676 31.4725 65.0275C31.3324 64.8874 31.2526 64.6981 31.25 64.5V64C31.25 63.8011 31.329 63.6103 31.4697 63.4697C31.6103 63.329 31.8011 63.25 32 63.25C32.1989 63.25 32.3897 63.329 32.5303 63.4697C32.671 63.6103 32.75 63.8011 32.75 64V64.5C32.7474 64.6981 32.6676 64.8874 32.5275 65.0275C32.3874 65.1676 32.1981 65.2474 32 65.25Z" fill="#5666BC"/>
<path d="M32 77C30.22 77 28.4799 76.4722 26.9999 75.4832C25.5198 74.4943 24.3663 73.0887 23.6851 71.4442C23.0039 69.7996 22.8257 67.99 23.1729 66.2442C23.5202 64.4984 24.3774 62.8947 25.636 61.636C26.8947 60.3774 28.4984 59.5202 30.2442 59.1729C31.99 58.8257 33.7996 59.0039 35.4442 59.6851C37.0887 60.3663 38.4943 61.5198 39.4832 62.9999C40.4722 64.4799 41 66.22 41 68C41 70.387 40.0518 72.6761 38.364 74.364C36.6761 76.0518 34.387 77 32 77ZM32 60.5C30.5166 60.5 29.0666 60.9399 27.8332 61.764C26.5999 62.5881 25.6386 63.7594 25.0709 65.1299C24.5033 66.5003 24.3547 68.0083 24.6441 69.4632C24.9335 70.918 25.6478 72.2544 26.6967 73.3033C27.7456 74.3522 29.082 75.0665 30.5368 75.3559C31.9917 75.6453 33.4997 75.4968 34.8701 74.9291C36.2406 74.3614 37.4119 73.4001 38.236 72.1668C39.0601 70.9334 39.5 69.4834 39.5 68C39.5 66.0109 38.7098 64.1032 37.3033 62.6967C35.8968 61.2902 33.9891 60.5 32 60.5Z" fill="#5666BC"/>
<path d="M69.008 51.672H60.176V52.92H63.92V63H65.264V52.92H69.008V51.672ZM68.1583 59.256C68.1583 61.592 69.8543 63.192 72.1583 63.192C74.4623 63.192 76.1583 61.592 76.1583 59.256C76.1583 56.92 74.4623 55.32 72.1583 55.32C69.8543 55.32 68.1583 56.92 68.1583 59.256ZM69.5023 59.256C69.5023 57.688 70.5423 56.472 72.1583 56.472C73.7743 56.472 74.8143 57.688 74.8143 59.256C74.8143 60.824 73.7743 62.04 72.1583 62.04C70.5423 62.04 69.5023 60.824 69.5023 59.256ZM78.7783 57.288C79.3703 56.744 80.2023 56.472 81.0023 56.472C82.1703 56.472 82.8583 57.032 82.8583 58.12V58.344H82.3783C80.5383 58.344 77.6583 58.488 77.6583 60.968C77.6583 62.424 78.9223 63.192 80.4423 63.192C81.5783 63.192 82.4103 62.648 82.9063 61.88H82.9383C82.9383 62.2 82.9383 62.664 83.0183 63H84.2183C84.1543 62.616 84.1063 62.136 84.1063 61.704V58.488C84.1063 56.376 83.1783 55.32 80.9703 55.32C79.8823 55.32 78.7623 55.688 77.9943 56.472L78.7783 57.288ZM82.8583 59.4V59.88C82.8263 61.096 82.0903 62.136 80.6503 62.136C79.7063 62.136 79.0023 61.784 79.0023 60.84C79.0023 59.832 80.0263 59.4 81.6102 59.4H82.8583ZM85.5551 61.8C86.2911 62.856 87.2031 63.192 88.4671 63.192C89.9551 63.192 91.4591 62.536 91.4591 60.84C91.4591 59.336 90.3391 58.856 89.0111 58.6C88.0191 58.408 87.1231 58.136 87.1231 57.512C87.1231 56.808 87.9071 56.472 88.5951 56.472C89.3311 56.472 89.8591 56.84 90.1791 57.368L91.2191 56.68C90.7071 55.72 89.7311 55.32 88.6751 55.32C87.2831 55.32 85.8751 56.072 85.8751 57.528C85.8751 59.08 87.0911 59.384 88.5151 59.704C89.3151 59.88 90.1151 60.088 90.1151 60.888C90.1151 61.704 89.2511 62.04 88.4671 62.04C87.5871 62.04 87.0431 61.64 86.5471 61.032L85.5551 61.8ZM97.2956 55.512H95.0876V53.384H93.8396V55.512H92.2076V56.568H93.8396V60.68C93.8396 62.232 94.1276 63.192 95.9036 63.192C96.3676 63.192 96.9276 63.112 97.3596 62.92L97.3116 61.784C96.9756 61.96 96.5756 62.04 96.2076 62.04C95.1036 62.04 95.0876 61.272 95.0876 60.312V56.568H97.2956V55.512ZM103.278 63H104.526V59.352C104.526 57.64 105.23 56.472 106.846 56.472C107.87 56.472 108.286 57.112 108.286 58.76V63H109.534V58.68C109.534 57.336 110.414 56.472 111.47 56.472C112.926 56.472 113.294 57.48 113.294 58.52V63H114.542V58.456C114.542 56.52 113.838 55.32 111.694 55.32C110.558 55.32 109.87 55.864 109.326 56.744C109.086 56.232 108.574 55.32 106.958 55.32C105.726 55.32 104.798 56.008 104.462 56.744H104.43C104.43 56.328 104.398 55.912 104.398 55.512H103.214C103.214 56.008 103.278 56.6 103.278 57.288V63ZM122.647 60.904C122.055 61.656 121.335 62.04 120.263 62.04C118.903 62.04 117.911 60.936 117.815 59.64H123.863V59.24C123.863 56.76 122.423 55.32 120.311 55.32C118.103 55.32 116.471 56.936 116.471 59.256C116.471 61.432 117.911 63.192 120.263 63.192C121.655 63.192 122.711 62.776 123.591 61.64L122.647 60.904ZM117.815 58.584C117.975 57.32 118.887 56.472 120.263 56.472C121.639 56.472 122.471 57.32 122.519 58.584H117.815ZM124.961 61.8C125.697 62.856 126.609 63.192 127.873 63.192C129.361 63.192 130.865 62.536 130.865 60.84C130.865 59.336 129.745 58.856 128.417 58.6C127.425 58.408 126.529 58.136 126.529 57.512C126.529 56.808 127.313 56.472 128.001 56.472C128.737 56.472 129.265 56.84 129.585 57.368L130.625 56.68C130.113 55.72 129.137 55.32 128.081 55.32C126.689 55.32 125.281 56.072 125.281 57.528C125.281 59.08 126.497 59.384 127.921 59.704C128.721 59.88 129.521 60.088 129.521 60.888C129.521 61.704 128.657 62.04 127.873 62.04C126.993 62.04 126.449 61.64 125.953 61.032L124.961 61.8ZM131.774 61.8C132.51 62.856 133.422 63.192 134.686 63.192C136.174 63.192 137.678 62.536 137.678 60.84C137.678 59.336 136.558 58.856 135.23 58.6C134.238 58.408 133.342 58.136 133.342 57.512C133.342 56.808 134.126 56.472 134.814 56.472C135.55 56.472 136.078 56.84 136.398 57.368L137.438 56.68C136.926 55.72 135.95 55.32 134.894 55.32C133.502 55.32 132.094 56.072 132.094 57.528C132.094 59.08 133.31 59.384 134.734 59.704C135.534 59.88 136.334 60.088 136.334 60.888C136.334 61.704 135.47 62.04 134.686 62.04C133.806 62.04 133.262 61.64 132.766 61.032L131.774 61.8ZM140.106 57.288C140.698 56.744 141.53 56.472 142.33 56.472C143.498 56.472 144.186 57.032 144.186 58.12V58.344H143.706C141.866 58.344 138.986 58.488 138.986 60.968C138.986 62.424 140.25 63.192 141.77 63.192C142.906 63.192 143.738 62.648 144.234 61.88H144.266C144.266 62.2 144.266 62.664 144.346 63H145.546C145.482 62.616 145.434 62.136 145.434 61.704V58.488C145.434 56.376 144.506 55.32 142.298 55.32C141.21 55.32 140.09 55.688 139.322 56.472L140.106 57.288ZM144.186 59.4V59.88C144.154 61.096 143.418 62.136 141.978 62.136C141.034 62.136 140.33 61.784 140.33 60.84C140.33 59.832 141.354 59.4 142.938 59.4H144.186ZM155.187 55.512H153.939V56.792H153.907C153.411 55.8 152.275 55.32 151.267 55.32C148.883 55.32 147.283 56.808 147.283 59.256C147.283 61.464 148.915 63.096 151.267 63.096C152.259 63.096 153.315 62.664 153.907 61.704H153.939V62.664C153.939 64.248 153.347 65.688 151.107 65.688C149.955 65.688 149.107 65.24 148.323 64.392L147.427 65.416C148.483 66.456 149.651 66.84 151.107 66.84C153.731 66.84 155.187 65.368 155.187 62.664V55.512ZM148.627 59.256C148.627 57.688 149.699 56.472 151.267 56.472C152.851 56.472 153.939 57.608 153.939 59.224C153.939 60.664 152.979 61.944 151.267 61.944C149.811 61.944 148.627 60.776 148.627 59.256ZM163.241 60.904C162.649 61.656 161.929 62.04 160.857 62.04C159.497 62.04 158.505 60.936 158.409 59.64H164.457V59.24C164.457 56.76 163.017 55.32 160.905 55.32C158.697 55.32 157.065 56.936 157.065 59.256C157.065 61.432 158.505 63.192 160.857 63.192C162.249 63.192 163.305 62.776 164.185 61.64L163.241 60.904ZM158.409 58.584C158.569 57.32 159.481 56.472 160.857 56.472C162.233 56.472 163.065 57.32 163.113 58.584H158.409ZM170.36 59.736H174.28V58.584H170.36V59.736ZM61.408 82H62.752V70.672H61.408V82ZM65.3403 82H66.5883V78.352C66.5883 76.64 67.2923 75.472 68.9083 75.472C70.0763 75.472 70.6203 76.256 70.6203 77.504V82H71.8683V77.376C71.8683 75.568 70.9883 74.32 69.0203 74.32C67.7883 74.32 66.8603 75.008 66.5243 75.744H66.4923C66.4923 75.328 66.4603 74.912 66.4603 74.512H65.2763C65.2763 75.008 65.3403 75.6 65.3403 76.288V82ZM74.8709 82H76.1189V75.568H77.9429V74.512H76.1189V73.104C76.1189 71.808 76.1669 70.864 77.4629 70.864C77.7509 70.864 78.0389 70.928 78.3109 71.024L78.4869 69.904C78.2469 69.776 77.8469 69.712 77.5269 69.712C75.5109 69.712 74.8709 71.008 74.8709 72.832V74.512H73.2389V75.568H74.8709V82ZM78.8458 78.256C78.8458 80.592 80.5418 82.192 82.8458 82.192C85.1498 82.192 86.8458 80.592 86.8458 78.256C86.8458 75.92 85.1498 74.32 82.8458 74.32C80.5418 74.32 78.8458 75.92 78.8458 78.256ZM80.1898 78.256C80.1898 76.688 81.2298 75.472 82.8458 75.472C84.4618 75.472 85.5018 76.688 85.5018 78.256C85.5018 79.824 84.4618 81.04 82.8458 81.04C81.2298 81.04 80.1898 79.824 80.1898 78.256ZM88.7778 82H90.0258V78.352C90.0258 76.64 90.6978 75.568 92.2178 75.568C92.4418 75.568 92.6818 75.6 92.8898 75.664L92.9698 74.4C92.7938 74.336 92.6178 74.32 92.4578 74.32C91.2258 74.32 90.2978 75.008 89.9618 75.744H89.9298C89.9298 75.328 89.8978 74.912 89.8978 74.512H88.7138C88.7138 75.008 88.7778 75.6 88.7778 76.288V82ZM94.4028 82H95.6508V78.352C95.6508 76.64 96.3548 75.472 97.9708 75.472C98.9948 75.472 99.4108 76.112 99.4108 77.76V82H100.659V77.68C100.659 76.336 101.539 75.472 102.595 75.472C104.051 75.472 104.419 76.48 104.419 77.52V82H105.667V77.456C105.667 75.52 104.963 74.32 102.819 74.32C101.683 74.32 100.995 74.864 100.451 75.744C100.211 75.232 99.6988 74.32 98.0828 74.32C96.8508 74.32 95.9228 75.008 95.5868 75.744H95.5548C95.5548 75.328 95.5228 74.912 95.5228 74.512H94.3388C94.3388 75.008 94.4028 75.6 94.4028 76.288V82ZM108.716 76.288C109.308 75.744 110.14 75.472 110.94 75.472C112.108 75.472 112.796 76.032 112.796 77.12V77.344H112.316C110.476 77.344 107.596 77.488 107.596 79.968C107.596 81.424 108.86 82.192 110.38 82.192C111.516 82.192 112.348 81.648 112.844 80.88H112.876C112.876 81.2 112.876 81.664 112.956 82H114.156C114.092 81.616 114.044 81.136 114.044 80.704V77.488C114.044 75.376 113.116 74.32 110.908 74.32C109.82 74.32 108.7 74.688 107.932 75.472L108.716 76.288ZM112.796 78.4V78.88C112.764 80.096 112.028 81.136 110.588 81.136C109.644 81.136 108.94 80.784 108.94 79.84C108.94 78.832 109.964 78.4 111.548 78.4H112.796ZM120.421 74.512H118.213V72.384H116.965V74.512H115.333V75.568H116.965V79.68C116.965 81.232 117.253 82.192 119.029 82.192C119.493 82.192 120.053 82.112 120.485 81.92L120.437 80.784C120.101 80.96 119.701 81.04 119.333 81.04C118.229 81.04 118.213 80.272 118.213 79.312V75.568H120.421V74.512ZM122.062 82H123.31V74.512H122.062V82ZM121.774 71.584C121.774 72.112 122.158 72.496 122.686 72.496C123.214 72.496 123.598 72.112 123.598 71.584C123.598 71.088 123.198 70.672 122.686 70.672C122.174 70.672 121.774 71.088 121.774 71.584ZM125.361 78.256C125.361 80.592 127.057 82.192 129.361 82.192C131.665 82.192 133.361 80.592 133.361 78.256C133.361 75.92 131.665 74.32 129.361 74.32C127.057 74.32 125.361 75.92 125.361 78.256ZM126.705 78.256C126.705 76.688 127.745 75.472 129.361 75.472C130.977 75.472 132.017 76.688 132.017 78.256C132.017 79.824 130.977 81.04 129.361 81.04C127.745 81.04 126.705 79.824 126.705 78.256ZM135.293 82H136.541V78.352C136.541 76.64 137.245 75.472 138.861 75.472C140.029 75.472 140.573 76.256 140.573 77.504V82H141.821V77.376C141.821 75.568 140.941 74.32 138.973 74.32C137.741 74.32 136.813 75.008 136.477 75.744H136.445C136.445 75.328 136.413 74.912 136.413 74.512H135.229C135.229 75.008 135.293 75.6 135.293 76.288V82ZM144.872 76.288C145.464 75.744 146.296 75.472 147.096 75.472C148.264 75.472 148.952 76.032 148.952 77.12V77.344H148.472C146.632 77.344 143.752 77.488 143.752 79.968C143.752 81.424 145.016 82.192 146.536 82.192C147.672 82.192 148.504 81.648 149 80.88H149.032C149.032 81.2 149.032 81.664 149.112 82H150.312C150.248 81.616 150.2 81.136 150.2 80.704V77.488C150.2 75.376 149.272 74.32 147.064 74.32C145.976 74.32 144.856 74.688 144.088 75.472L144.872 76.288ZM148.952 78.4V78.88C148.92 80.096 148.184 81.136 146.744 81.136C145.8 81.136 145.096 80.784 145.096 79.84C145.096 78.832 146.12 78.4 147.704 78.4H148.952ZM152.593 82H153.841V69.904H152.593V82ZM160.778 82H162.026V78.352C162.026 76.64 162.73 75.472 164.346 75.472C165.37 75.472 165.786 76.112 165.786 77.76V82H167.034V77.68C167.034 76.336 167.914 75.472 168.97 75.472C170.426 75.472 170.794 76.48 170.794 77.52V82H172.042V77.456C172.042 75.52 171.338 74.32 169.194 74.32C168.058 74.32 167.37 74.864 166.826 75.744C166.586 75.232 166.074 74.32 164.458 74.32C163.226 74.32 162.298 75.008 161.962 75.744H161.93C161.93 75.328 161.898 74.912 161.898 74.512H160.714C160.714 75.008 160.778 75.6 160.778 76.288V82ZM180.147 79.904C179.555 80.656 178.835 81.04 177.763 81.04C176.403 81.04 175.411 79.936 175.315 78.64H181.363V78.24C181.363 75.76 179.923 74.32 177.811 74.32C175.603 74.32 173.971 75.936 173.971 78.256C173.971 80.432 175.411 82.192 177.763 82.192C179.155 82.192 180.211 81.776 181.091 80.64L180.147 79.904ZM175.315 77.584C175.475 76.32 176.387 75.472 177.763 75.472C179.139 75.472 179.971 76.32 180.019 77.584H175.315ZM182.461 80.8C183.197 81.856 184.109 82.192 185.373 82.192C186.861 82.192 188.365 81.536 188.365 79.84C188.365 78.336 187.245 77.856 185.917 77.6C184.925 77.408 184.029 77.136 184.029 76.512C184.029 75.808 184.813 75.472 185.501 75.472C186.237 75.472 186.765 75.84 187.085 76.368L188.125 75.68C187.613 74.72 186.637 74.32 185.581 74.32C184.189 74.32 182.781 75.072 182.781 76.528C182.781 78.08 183.997 78.384 185.421 78.704C186.221 78.88 187.021 79.088 187.021 79.888C187.021 80.704 186.157 81.04 185.373 81.04C184.493 81.04 183.949 80.64 183.453 80.032L182.461 80.8ZM189.274 80.8C190.01 81.856 190.922 82.192 192.186 82.192C193.674 82.192 195.178 81.536 195.178 79.84C195.178 78.336 194.058 77.856 192.73 77.6C191.738 77.408 190.842 77.136 190.842 76.512C190.842 75.808 191.626 75.472 192.314 75.472C193.05 75.472 193.578 75.84 193.898 76.368L194.938 75.68C194.426 74.72 193.45 74.32 192.394 74.32C191.002 74.32 189.594 75.072 189.594 76.528C189.594 78.08 190.81 78.384 192.234 78.704C193.034 78.88 193.834 79.088 193.834 79.888C193.834 80.704 192.97 81.04 192.186 81.04C191.306 81.04 190.762 80.64 190.266 80.032L189.274 80.8ZM197.606 76.288C198.198 75.744 199.03 75.472 199.83 75.472C200.998 75.472 201.686 76.032 201.686 77.12V77.344H201.206C199.366 77.344 196.486 77.488 196.486 79.968C196.486 81.424 197.75 82.192 199.27 82.192C200.406 82.192 201.238 81.648 201.734 80.88H201.766C201.766 81.2 201.766 81.664 201.846 82H203.046C202.982 81.616 202.934 81.136 202.934 80.704V77.488C202.934 75.376 202.006 74.32 199.798 74.32C198.71 74.32 197.59 74.688 196.822 75.472L197.606 76.288ZM201.686 78.4V78.88C201.654 80.096 200.918 81.136 199.478 81.136C198.534 81.136 197.83 80.784 197.83 79.84C197.83 78.832 198.854 78.4 200.438 78.4H201.686ZM212.687 74.512H211.439V75.792H211.407C210.911 74.8 209.775 74.32 208.767 74.32C206.383 74.32 204.783 75.808 204.783 78.256C204.783 80.464 206.415 82.096 208.767 82.096C209.759 82.096 210.815 81.664 211.407 80.704H211.439V81.664C211.439 83.248 210.847 84.688 208.607 84.688C207.455 84.688 206.607 84.24 205.823 83.392L204.927 84.416C205.983 85.456 207.151 85.84 208.607 85.84C211.231 85.84 212.687 84.368 212.687 81.664V74.512ZM206.127 78.256C206.127 76.688 207.199 75.472 208.767 75.472C210.351 75.472 211.439 76.608 211.439 78.224C211.439 79.664 210.479 80.944 208.767 80.944C207.311 80.944 206.127 79.776 206.127 78.256ZM220.741 79.904C220.149 80.656 219.429 81.04 218.357 81.04C216.997 81.04 216.005 79.936 215.909 78.64H221.957V78.24C221.957 75.76 220.517 74.32 218.405 74.32C216.197 74.32 214.565 75.936 214.565 78.256C214.565 80.432 216.005 82.192 218.357 82.192C219.749 82.192 220.805 81.776 221.685 80.64L220.741 79.904ZM215.909 77.584C216.069 76.32 216.981 75.472 218.357 75.472C219.733 75.472 220.565 76.32 220.613 77.584H215.909ZM223.055 80.8C223.791 81.856 224.703 82.192 225.967 82.192C227.455 82.192 228.959 81.536 228.959 79.84C228.959 78.336 227.839 77.856 226.511 77.6C225.519 77.408 224.623 77.136 224.623 76.512C224.623 75.808 225.407 75.472 226.095 75.472C226.831 75.472 227.359 75.84 227.679 76.368L228.719 75.68C228.207 74.72 227.231 74.32 226.175 74.32C224.783 74.32 223.375 75.072 223.375 76.528C223.375 78.08 224.591 78.384 226.015 78.704C226.815 78.88 227.615 79.088 227.615 79.888C227.615 80.704 226.751 81.04 225.967 81.04C225.087 81.04 224.543 80.64 224.047 80.032L223.055 80.8ZM231.74 80.176C231.212 80.176 230.78 80.608 230.78 81.136C230.78 81.664 231.244 82.096 231.74 82.096C232.236 82.096 232.7 81.664 232.7 81.136C232.7 80.608 232.268 80.176 231.74 80.176Z" fill="#5666BC"/>
<path d="M297.06 68L301.48 63.58C301.554 63.5113 301.613 63.4285 301.654 63.3365C301.695 63.2445 301.717 63.1452 301.719 63.0445C301.72 62.9438 301.702 62.8437 301.664 62.7504C301.626 62.657 301.57 62.5721 301.499 62.5009C301.428 62.4297 301.343 62.3736 301.25 62.3358C301.156 62.2981 301.056 62.2796 300.955 62.2814C300.855 62.2831 300.755 62.3052 300.663 62.3462C300.571 62.3872 300.489 62.4463 300.42 62.52L296 66.94L291.58 62.52C291.438 62.3875 291.25 62.3154 291.055 62.3188C290.861 62.3222 290.676 62.4009 290.538 62.5383C290.401 62.6757 290.322 62.8611 290.319 63.0554C290.315 63.2497 290.388 63.4378 290.52 63.58L294.94 68L290.52 72.42C290.38 72.5606 290.301 72.7512 290.301 72.95C290.301 73.1487 290.38 73.3393 290.52 73.48C290.661 73.6204 290.851 73.6993 291.05 73.6993C291.249 73.6993 291.439 73.6204 291.58 73.48L296 69.06L300.42 73.48C300.561 73.6204 300.751 73.6993 300.95 73.6993C301.149 73.6993 301.339 73.6204 301.48 73.48C301.62 73.3393 301.699 73.1487 301.699 72.95C301.699 72.7512 301.62 72.5606 301.48 72.42L297.06 68Z" fill="#5666BC"/>
</g>
<path d="M440.752 2.858C439.982 2.13 438.946 1.836 437.91 1.836C436.076 1.836 434.256 2.788 434.256 4.832C434.256 8.374 438.96 7.128 438.96 9.298C438.96 10.208 438.036 10.656 437.224 10.656C436.44 10.656 435.698 10.278 435.264 9.62L433.934 10.908C434.746 11.874 435.95 12.252 437.182 12.252C439.128 12.252 440.808 11.216 440.808 9.088C440.808 5.56 436.104 6.694 436.104 4.706C436.104 3.796 436.916 3.432 437.728 3.432C438.414 3.432 439.086 3.684 439.464 4.216L440.752 2.858ZM443.093 6.708V9.788C443.093 11.37 443.513 12.168 445.291 12.168C445.683 12.168 446.271 12.112 446.621 11.944V10.53C446.411 10.684 446.005 10.74 445.711 10.74C444.969 10.74 444.773 10.32 444.773 9.648V6.708H446.621V5.28H444.773V3.334H443.093V5.28H441.707V6.708H443.093ZM452.132 12H453.644V8.136C453.644 7.184 453.644 5.112 450.774 5.112C449.71 5.112 448.66 5.434 447.918 6.19L448.8 7.072C449.248 6.652 449.892 6.372 450.592 6.372C451.488 6.372 452.132 6.806 452.132 7.632V7.814H451.712C450.032 7.814 447.484 7.968 447.484 10.152C447.484 11.482 448.688 12.168 449.934 12.168C450.83 12.168 451.614 11.832 452.09 11.076H452.132V12ZM452.034 9.368C452.034 10.306 451.488 10.908 450.34 10.908C449.794 10.908 449.164 10.642 449.164 10.026C449.164 9.06 450.76 8.99 451.684 8.99H452.034V9.368ZM456.054 6.708V9.788C456.054 11.37 456.474 12.168 458.252 12.168C458.644 12.168 459.232 12.112 459.582 11.944V10.53C459.372 10.684 458.966 10.74 458.672 10.74C457.93 10.74 457.734 10.32 457.734 9.648V6.708H459.582V5.28H457.734V3.334H456.054V5.28H454.668V6.708H456.054ZM467.361 9.228V8.766C467.361 6.428 466.087 5.112 464.211 5.112C462.181 5.112 460.557 6.526 460.557 8.64C460.557 10.754 462.181 12.168 464.211 12.168C465.275 12.168 466.269 11.79 467.053 10.824L465.849 9.914C465.429 10.432 464.883 10.824 464.043 10.824C463.105 10.824 462.349 10.222 462.237 9.228H467.361ZM462.237 7.968C462.363 7.002 462.979 6.372 463.973 6.372C465.023 6.372 465.667 6.988 465.681 7.968H462.237ZM468.932 11.02C468.932 11.622 469.464 12.084 470.052 12.084C470.668 12.084 471.172 11.594 471.172 10.992C471.172 10.39 470.654 9.928 470.052 9.928C469.436 9.928 468.932 10.418 468.932 11.02ZM468.932 6.274C468.932 6.876 469.464 7.338 470.052 7.338C470.668 7.338 471.172 6.848 471.172 6.246C471.172 5.644 470.654 5.182 470.052 5.182C469.436 5.182 468.932 5.672 468.932 6.274ZM483.518 2.858C482.748 2.13 481.712 1.836 480.676 1.836C478.842 1.836 477.022 2.788 477.022 4.832C477.022 8.374 481.726 7.128 481.726 9.298C481.726 10.208 480.802 10.656 479.99 10.656C479.206 10.656 478.464 10.278 478.03 9.62L476.7 10.908C477.512 11.874 478.716 12.252 479.948 12.252C481.894 12.252 483.574 11.216 483.574 9.088C483.574 5.56 478.87 6.694 478.87 4.706C478.87 3.796 479.682 3.432 480.494 3.432C481.18 3.432 481.852 3.684 482.23 4.216L483.518 2.858ZM491.389 5.28H489.709V8.948C489.709 9.844 489.275 10.656 488.169 10.656C486.993 10.656 486.937 9.424 486.937 8.682V5.28H485.257V9.522C485.257 10.894 485.901 12.168 487.707 12.168C488.827 12.168 489.457 11.594 489.765 10.922H489.793V12H491.389V5.28ZM499.05 6.134C498.406 5.42 497.468 5.112 496.614 5.112C494.584 5.112 492.96 6.526 492.96 8.64C492.96 10.754 494.584 12.168 496.614 12.168C497.202 12.168 498.35 11.916 499.036 11.23L497.916 10.026C497.608 10.432 497.132 10.656 496.614 10.656C495.382 10.656 494.64 9.69 494.64 8.64C494.64 7.59 495.382 6.624 496.614 6.624C497.062 6.624 497.496 6.89 497.888 7.296L499.05 6.134ZM505.804 6.134C505.16 5.42 504.222 5.112 503.368 5.112C501.338 5.112 499.714 6.526 499.714 8.64C499.714 10.754 501.338 12.168 503.368 12.168C503.956 12.168 505.104 11.916 505.79 11.23L504.67 10.026C504.362 10.432 503.886 10.656 503.368 10.656C502.136 10.656 501.394 9.69 501.394 8.64C501.394 7.59 502.136 6.624 503.368 6.624C503.816 6.624 504.25 6.89 504.642 7.296L505.804 6.134ZM513.272 9.228V8.766C513.272 6.428 511.998 5.112 510.122 5.112C508.092 5.112 506.468 6.526 506.468 8.64C506.468 10.754 508.092 12.168 510.122 12.168C511.186 12.168 512.18 11.79 512.964 10.824L511.76 9.914C511.34 10.432 510.794 10.824 509.954 10.824C509.016 10.824 508.26 10.222 508.148 9.228H513.272ZM508.148 7.968C508.274 7.002 508.89 6.372 509.884 6.372C510.934 6.372 511.578 6.988 511.592 7.968H508.148ZM519.547 6.134C519.001 5.392 518.049 5.112 517.153 5.112C515.795 5.112 514.451 5.784 514.451 7.282C514.451 9.844 518.077 8.752 518.077 10.138C518.077 10.67 517.447 10.908 516.957 10.908C516.243 10.908 515.795 10.558 515.361 10.082L514.241 11.132C514.927 11.902 515.823 12.168 516.859 12.168C518.231 12.168 519.757 11.608 519.757 10.012C519.757 7.394 516.131 8.374 516.131 7.17C516.131 6.666 516.663 6.456 517.111 6.456C517.685 6.456 518.105 6.694 518.427 7.142L519.547 6.134ZM525.767 6.134C525.221 5.392 524.269 5.112 523.373 5.112C522.015 5.112 520.671 5.784 520.671 7.282C520.671 9.844 524.297 8.752 524.297 10.138C524.297 10.67 523.667 10.908 523.177 10.908C522.463 10.908 522.015 10.558 521.581 10.082L520.461 11.132C521.147 11.902 522.043 12.168 523.079 12.168C524.451 12.168 525.977 11.608 525.977 10.012C525.977 7.394 522.351 8.374 522.351 7.17C522.351 6.666 522.883 6.456 523.331 6.456C523.905 6.456 524.325 6.694 524.647 7.142L525.767 6.134Z" fill="black"/>
<g filter="url(#filter1_bd_52_14113)">
<rect x="433.5" y="33" width="320" height="70" rx="8" fill="#ECF7E3" fill-opacity="0.85" shape-rendering="crispEdges"/>
<path d="M460 71.25C459.807 71.2352 459.628 71.1455 459.5 71L456.5 68C456.433 67.86 456.411 67.7028 456.438 67.5499C456.464 67.3971 456.537 67.2561 456.646 67.1464C456.756 67.0368 456.897 66.9638 457.05 66.9376C457.203 66.9113 457.36 66.9331 457.5 67L459.97 69.47L468.5 61C468.64 60.9331 468.797 60.9113 468.95 60.9376C469.103 60.9638 469.244 61.0368 469.354 61.1464C469.463 61.2561 469.536 61.3971 469.562 61.5499C469.589 61.7028 469.567 61.86 469.5 62L460.5 71C460.372 71.1455 460.193 71.2352 460 71.25Z" fill="#467822"/>
<path d="M461.5 77.0001C459.892 76.9975 458.313 76.5639 456.929 75.7443C455.545 74.9248 454.406 73.7492 453.63 72.3401C453.04 71.2901 452.676 70.1287 452.56 68.9301C452.377 67.1722 452.716 65.3993 453.534 63.8326C454.352 62.2658 455.613 60.9747 457.16 60.1201C458.21 59.5305 459.371 59.1661 460.57 59.0501C461.764 58.9216 462.972 59.0373 464.12 59.3901C464.223 59.4106 464.32 59.4522 464.405 59.5124C464.49 59.5725 464.562 59.6499 464.616 59.7395C464.67 59.829 464.704 59.9289 464.717 60.0325C464.73 60.1362 464.721 60.2415 464.691 60.3415C464.661 60.4416 464.611 60.5342 464.543 60.6136C464.475 60.6929 464.391 60.7572 464.297 60.8022C464.202 60.8473 464.1 60.8722 463.995 60.8752C463.891 60.8783 463.787 60.8595 463.69 60.8201C462.719 60.528 461.699 60.4328 460.69 60.5401C459.693 60.6422 458.727 60.9449 457.85 61.4301C457.005 61.8962 456.258 62.5209 455.65 63.2701C455.024 64.0332 454.556 64.9137 454.275 65.8598C453.993 66.8059 453.903 67.7987 454.01 68.7801C454.112 69.7771 454.415 70.7431 454.9 71.6201C455.366 72.465 455.991 73.2119 456.74 73.8201C457.503 74.4462 458.384 74.9138 459.33 75.1954C460.276 75.477 461.269 75.567 462.25 75.4601C463.247 75.358 464.213 75.0553 465.09 74.5701C465.935 74.104 466.682 73.4792 467.29 72.7301C467.916 71.9669 468.384 71.0865 468.665 70.1404C468.947 69.1942 469.037 68.2014 468.93 67.2201C468.92 67.117 468.931 67.013 468.961 66.914C468.992 66.815 469.041 66.7229 469.107 66.643C469.173 66.5632 469.254 66.4971 469.345 66.4485C469.437 66.4 469.537 66.3699 469.64 66.3601C469.743 66.3502 469.847 66.3608 469.946 66.3911C470.045 66.4215 470.137 66.471 470.217 66.537C470.297 66.6029 470.363 66.6839 470.412 66.7754C470.46 66.8669 470.49 66.967 470.5 67.0701C470.682 68.8291 470.342 70.6027 469.522 72.1695C468.702 73.7363 467.439 75.0269 465.89 75.8801C464.829 76.4938 463.65 76.8756 462.43 77.0001C462.12 77.0001 461.8 77.0001 461.5 77.0001Z" fill="#467822"/>
<path d="M498.508 51.672H489.676V52.92H493.42V63H494.764V52.92H498.508V51.672ZM497.658 59.256C497.658 61.592 499.354 63.192 501.658 63.192C503.962 63.192 505.658 61.592 505.658 59.256C505.658 56.92 503.962 55.32 501.658 55.32C499.354 55.32 497.658 56.92 497.658 59.256ZM499.002 59.256C499.002 57.688 500.042 56.472 501.658 56.472C503.274 56.472 504.314 57.688 504.314 59.256C504.314 60.824 503.274 62.04 501.658 62.04C500.042 62.04 499.002 60.824 499.002 59.256ZM508.278 57.288C508.87 56.744 509.702 56.472 510.502 56.472C511.67 56.472 512.358 57.032 512.358 58.12V58.344H511.878C510.038 58.344 507.158 58.488 507.158 60.968C507.158 62.424 508.422 63.192 509.942 63.192C511.078 63.192 511.91 62.648 512.406 61.88H512.438C512.438 62.2 512.438 62.664 512.518 63H513.718C513.654 62.616 513.606 62.136 513.606 61.704V58.488C513.606 56.376 512.678 55.32 510.47 55.32C509.382 55.32 508.262 55.688 507.494 56.472L508.278 57.288ZM512.358 59.4V59.88C512.326 61.096 511.59 62.136 510.15 62.136C509.206 62.136 508.502 61.784 508.502 60.84C508.502 59.832 509.526 59.4 511.11 59.4H512.358ZM515.055 61.8C515.791 62.856 516.703 63.192 517.967 63.192C519.455 63.192 520.959 62.536 520.959 60.84C520.959 59.336 519.839 58.856 518.511 58.6C517.519 58.408 516.623 58.136 516.623 57.512C516.623 56.808 517.407 56.472 518.095 56.472C518.831 56.472 519.359 56.84 519.679 57.368L520.719 56.68C520.207 55.72 519.231 55.32 518.175 55.32C516.783 55.32 515.375 56.072 515.375 57.528C515.375 59.08 516.591 59.384 518.015 59.704C518.815 59.88 519.615 60.088 519.615 60.888C519.615 61.704 518.751 62.04 517.967 62.04C517.087 62.04 516.543 61.64 516.047 61.032L515.055 61.8ZM526.796 55.512H524.588V53.384H523.34V55.512H521.708V56.568H523.34V60.68C523.34 62.232 523.628 63.192 525.404 63.192C525.868 63.192 526.428 63.112 526.86 62.92L526.812 61.784C526.476 61.96 526.076 62.04 525.708 62.04C524.604 62.04 524.588 61.272 524.588 60.312V56.568H526.796V55.512ZM532.778 63H534.026V59.352C534.026 57.64 534.73 56.472 536.346 56.472C537.37 56.472 537.786 57.112 537.786 58.76V63H539.034V58.68C539.034 57.336 539.914 56.472 540.97 56.472C542.426 56.472 542.794 57.48 542.794 58.52V63H544.042V58.456C544.042 56.52 543.338 55.32 541.194 55.32C540.058 55.32 539.37 55.864 538.826 56.744C538.586 56.232 538.074 55.32 536.458 55.32C535.226 55.32 534.298 56.008 533.962 56.744H533.93C533.93 56.328 533.898 55.912 533.898 55.512H532.714C532.714 56.008 532.778 56.6 532.778 57.288V63ZM552.147 60.904C551.555 61.656 550.835 62.04 549.763 62.04C548.403 62.04 547.411 60.936 547.315 59.64H553.363V59.24C553.363 56.76 551.923 55.32 549.811 55.32C547.603 55.32 545.971 56.936 545.971 59.256C545.971 61.432 547.411 63.192 549.763 63.192C551.155 63.192 552.211 62.776 553.091 61.64L552.147 60.904ZM547.315 58.584C547.475 57.32 548.387 56.472 549.763 56.472C551.139 56.472 551.971 57.32 552.019 58.584H547.315ZM554.461 61.8C555.197 62.856 556.109 63.192 557.373 63.192C558.861 63.192 560.365 62.536 560.365 60.84C560.365 59.336 559.245 58.856 557.917 58.6C556.925 58.408 556.029 58.136 556.029 57.512C556.029 56.808 556.813 56.472 557.501 56.472C558.237 56.472 558.765 56.84 559.085 57.368L560.125 56.68C559.613 55.72 558.637 55.32 557.581 55.32C556.189 55.32 554.781 56.072 554.781 57.528C554.781 59.08 555.997 59.384 557.421 59.704C558.221 59.88 559.021 60.088 559.021 60.888C559.021 61.704 558.157 62.04 557.373 62.04C556.493 62.04 555.949 61.64 555.453 61.032L554.461 61.8ZM561.274 61.8C562.01 62.856 562.922 63.192 564.186 63.192C565.674 63.192 567.178 62.536 567.178 60.84C567.178 59.336 566.058 58.856 564.73 58.6C563.738 58.408 562.842 58.136 562.842 57.512C562.842 56.808 563.626 56.472 564.314 56.472C565.05 56.472 565.578 56.84 565.898 57.368L566.938 56.68C566.426 55.72 565.45 55.32 564.394 55.32C563.002 55.32 561.594 56.072 561.594 57.528C561.594 59.08 562.81 59.384 564.234 59.704C565.034 59.88 565.834 60.088 565.834 60.888C565.834 61.704 564.97 62.04 564.186 62.04C563.306 62.04 562.762 61.64 562.266 61.032L561.274 61.8ZM569.606 57.288C570.198 56.744 571.03 56.472 571.83 56.472C572.998 56.472 573.686 57.032 573.686 58.12V58.344H573.206C571.366 58.344 568.486 58.488 568.486 60.968C568.486 62.424 569.75 63.192 571.27 63.192C572.406 63.192 573.238 62.648 573.734 61.88H573.766C573.766 62.2 573.766 62.664 573.846 63H575.046C574.982 62.616 574.934 62.136 574.934 61.704V58.488C574.934 56.376 574.006 55.32 571.798 55.32C570.71 55.32 569.59 55.688 568.822 56.472L569.606 57.288ZM573.686 59.4V59.88C573.654 61.096 572.918 62.136 571.478 62.136C570.534 62.136 569.83 61.784 569.83 60.84C569.83 59.832 570.854 59.4 572.438 59.4H573.686ZM584.687 55.512H583.439V56.792H583.407C582.911 55.8 581.775 55.32 580.767 55.32C578.383 55.32 576.783 56.808 576.783 59.256C576.783 61.464 578.415 63.096 580.767 63.096C581.759 63.096 582.815 62.664 583.407 61.704H583.439V62.664C583.439 64.248 582.847 65.688 580.607 65.688C579.455 65.688 578.607 65.24 577.823 64.392L576.927 65.416C577.983 66.456 579.151 66.84 580.607 66.84C583.231 66.84 584.687 65.368 584.687 62.664V55.512ZM578.127 59.256C578.127 57.688 579.199 56.472 580.767 56.472C582.351 56.472 583.439 57.608 583.439 59.224C583.439 60.664 582.479 61.944 580.767 61.944C579.311 61.944 578.127 60.776 578.127 59.256ZM592.741 60.904C592.149 61.656 591.429 62.04 590.357 62.04C588.997 62.04 588.005 60.936 587.909 59.64H593.957V59.24C593.957 56.76 592.517 55.32 590.405 55.32C588.197 55.32 586.565 56.936 586.565 59.256C586.565 61.432 588.005 63.192 590.357 63.192C591.749 63.192 592.805 62.776 593.685 61.64L592.741 60.904ZM587.909 58.584C588.069 57.32 588.981 56.472 590.357 56.472C591.733 56.472 592.565 57.32 592.613 58.584H587.909ZM599.86 59.736H603.78V58.584H599.86V59.736ZM616.826 52.712C615.994 51.736 614.922 51.384 613.658 51.384C611.674 51.384 609.802 52.472 609.802 54.648C609.802 56.536 611.018 57.24 612.618 57.768C614.634 58.44 615.578 58.68 615.578 60.072C615.578 61.368 614.266 62.04 613.114 62.04C612.138 62.04 611.178 61.608 610.698 60.776L609.546 61.72C610.314 62.856 611.722 63.288 613.034 63.288C615.082 63.288 617.017 62.232 617.017 59.976C617.017 57.752 615.386 57.176 613.626 56.616C611.818 56.04 611.242 55.576 611.242 54.536C611.242 53.192 612.474 52.632 613.658 52.632C614.474 52.632 615.274 52.952 615.722 53.672L616.826 52.712ZM625.54 55.512H624.292V59.16C624.292 60.872 623.588 62.04 621.972 62.04C620.804 62.04 620.26 61.256 620.26 60.008V55.512H619.012V60.136C619.012 61.944 619.892 63.192 621.86 63.192C623.092 63.192 624.02 62.504 624.356 61.768H624.388C624.388 62.184 624.42 62.6 624.42 63H625.604C625.604 62.504 625.54 61.912 625.54 61.224V55.512ZM634.223 56.504C633.471 55.688 632.447 55.32 631.343 55.32C629.039 55.32 627.471 56.984 627.471 59.256C627.471 61.56 629.023 63.192 631.343 63.192C632.431 63.192 633.455 62.824 634.175 61.992L633.247 61.112C632.783 61.752 632.159 62.04 631.343 62.04C629.823 62.04 628.815 60.792 628.815 59.256C628.815 57.72 629.663 56.472 631.343 56.472C632.095 56.472 632.703 56.744 633.231 57.384L634.223 56.504ZM641.942 56.504C641.19 55.688 640.166 55.32 639.062 55.32C636.758 55.32 635.19 56.984 635.19 59.256C635.19 61.56 636.742 63.192 639.062 63.192C640.15 63.192 641.174 62.824 641.894 61.992L640.966 61.112C640.502 61.752 639.878 62.04 639.062 62.04C637.542 62.04 636.534 60.792 636.534 59.256C636.534 57.72 637.382 56.472 639.062 56.472C639.814 56.472 640.422 56.744 640.95 57.384L641.942 56.504ZM649.084 60.904C648.492 61.656 647.772 62.04 646.7 62.04C645.34 62.04 644.348 60.936 644.252 59.64H650.3V59.24C650.3 56.76 648.86 55.32 646.748 55.32C644.54 55.32 642.908 56.936 642.908 59.256C642.908 61.432 644.348 63.192 646.7 63.192C648.092 63.192 649.148 62.776 650.028 61.64L649.084 60.904ZM644.252 58.584C644.412 57.32 645.324 56.472 646.7 56.472C648.076 56.472 648.908 57.32 648.956 58.584H644.252ZM651.399 61.8C652.135 62.856 653.047 63.192 654.311 63.192C655.799 63.192 657.303 62.536 657.303 60.84C657.303 59.336 656.183 58.856 654.855 58.6C653.863 58.408 652.967 58.136 652.967 57.512C652.967 56.808 653.751 56.472 654.439 56.472C655.175 56.472 655.703 56.84 656.023 57.368L657.063 56.68C656.551 55.72 655.575 55.32 654.519 55.32C653.127 55.32 651.719 56.072 651.719 57.528C651.719 59.08 652.935 59.384 654.359 59.704C655.159 59.88 655.959 60.088 655.959 60.888C655.959 61.704 655.095 62.04 654.311 62.04C653.431 62.04 652.887 61.64 652.391 61.032L651.399 61.8ZM658.211 61.8C658.947 62.856 659.859 63.192 661.123 63.192C662.611 63.192 664.115 62.536 664.115 60.84C664.115 59.336 662.995 58.856 661.667 58.6C660.675 58.408 659.779 58.136 659.779 57.512C659.779 56.808 660.563 56.472 661.251 56.472C661.987 56.472 662.515 56.84 662.835 57.368L663.875 56.68C663.363 55.72 662.387 55.32 661.331 55.32C659.939 55.32 658.531 56.072 658.531 57.528C658.531 59.08 659.747 59.384 661.171 59.704C661.971 59.88 662.771 60.088 662.771 60.888C662.771 61.704 661.907 62.04 661.123 62.04C660.243 62.04 659.699 61.64 659.203 61.032L658.211 61.8ZM666.496 63H667.744V56.568H669.568V55.512H667.744V54.104C667.744 52.808 667.792 51.864 669.088 51.864C669.376 51.864 669.664 51.928 669.936 52.024L670.112 50.904C669.872 50.776 669.472 50.712 669.152 50.712C667.136 50.712 666.496 52.008 666.496 53.832V55.512H664.864V56.568H666.496V63ZM677.431 55.512H676.183V59.16C676.183 60.872 675.479 62.04 673.863 62.04C672.695 62.04 672.151 61.256 672.151 60.008V55.512H670.903V60.136C670.903 61.944 671.783 63.192 673.751 63.192C674.983 63.192 675.911 62.504 676.247 61.768H676.279C676.279 62.184 676.311 62.6 676.311 63H677.495C677.495 62.504 677.431 61.912 677.431 61.224V55.512ZM679.905 63H681.153V50.904H679.905V63ZM490.684 82H491.932V78.352C491.932 76.64 492.636 75.472 494.252 75.472C495.276 75.472 495.692 76.112 495.692 77.76V82H496.94V77.68C496.94 76.336 497.82 75.472 498.876 75.472C500.332 75.472 500.7 76.48 500.7 77.52V82H501.948V77.456C501.948 75.52 501.244 74.32 499.1 74.32C497.964 74.32 497.276 74.864 496.732 75.744C496.492 75.232 495.98 74.32 494.364 74.32C493.132 74.32 492.204 75.008 491.868 75.744H491.836C491.836 75.328 491.804 74.912 491.804 74.512H490.62C490.62 75.008 490.684 75.6 490.684 76.288V82ZM510.053 79.904C509.461 80.656 508.741 81.04 507.669 81.04C506.309 81.04 505.317 79.936 505.221 78.64H511.269V78.24C511.269 75.76 509.829 74.32 507.717 74.32C505.509 74.32 503.877 75.936 503.877 78.256C503.877 80.432 505.317 82.192 507.669 82.192C509.061 82.192 510.117 81.776 510.997 80.64L510.053 79.904ZM505.221 77.584C505.381 76.32 506.293 75.472 507.669 75.472C509.045 75.472 509.877 76.32 509.925 77.584H505.221ZM512.368 80.8C513.104 81.856 514.016 82.192 515.28 82.192C516.768 82.192 518.272 81.536 518.272 79.84C518.272 78.336 517.152 77.856 515.824 77.6C514.832 77.408 513.936 77.136 513.936 76.512C513.936 75.808 514.72 75.472 515.408 75.472C516.144 75.472 516.672 75.84 516.992 76.368L518.032 75.68C517.52 74.72 516.544 74.32 515.488 74.32C514.096 74.32 512.688 75.072 512.688 76.528C512.688 78.08 513.904 78.384 515.328 78.704C516.128 78.88 516.928 79.088 516.928 79.888C516.928 80.704 516.064 81.04 515.28 81.04C514.4 81.04 513.856 80.64 513.36 80.032L512.368 80.8ZM519.18 80.8C519.916 81.856 520.828 82.192 522.092 82.192C523.58 82.192 525.084 81.536 525.084 79.84C525.084 78.336 523.964 77.856 522.636 77.6C521.644 77.408 520.748 77.136 520.748 76.512C520.748 75.808 521.532 75.472 522.22 75.472C522.956 75.472 523.484 75.84 523.804 76.368L524.844 75.68C524.332 74.72 523.356 74.32 522.3 74.32C520.908 74.32 519.5 75.072 519.5 76.528C519.5 78.08 520.716 78.384 522.14 78.704C522.94 78.88 523.74 79.088 523.74 79.888C523.74 80.704 522.876 81.04 522.092 81.04C521.212 81.04 520.668 80.64 520.172 80.032L519.18 80.8ZM527.513 76.288C528.105 75.744 528.937 75.472 529.737 75.472C530.905 75.472 531.593 76.032 531.593 77.12V77.344H531.113C529.273 77.344 526.393 77.488 526.393 79.968C526.393 81.424 527.657 82.192 529.177 82.192C530.313 82.192 531.145 81.648 531.641 80.88H531.673C531.673 81.2 531.673 81.664 531.753 82H532.953C532.889 81.616 532.841 81.136 532.841 80.704V77.488C532.841 75.376 531.913 74.32 529.705 74.32C528.617 74.32 527.497 74.688 526.729 75.472L527.513 76.288ZM531.593 78.4V78.88C531.561 80.096 530.825 81.136 529.385 81.136C528.441 81.136 527.737 80.784 527.737 79.84C527.737 78.832 528.761 78.4 530.345 78.4H531.593ZM542.594 74.512H541.346V75.792H541.314C540.818 74.8 539.682 74.32 538.674 74.32C536.289 74.32 534.69 75.808 534.69 78.256C534.69 80.464 536.322 82.096 538.674 82.096C539.666 82.096 540.722 81.664 541.314 80.704H541.346V81.664C541.346 83.248 540.754 84.688 538.514 84.688C537.362 84.688 536.514 84.24 535.73 83.392L534.834 84.416C535.89 85.456 537.058 85.84 538.514 85.84C541.138 85.84 542.594 84.368 542.594 81.664V74.512ZM536.034 78.256C536.034 76.688 537.106 75.472 538.674 75.472C540.258 75.472 541.346 76.608 541.346 78.224C541.346 79.664 540.386 80.944 538.674 80.944C537.218 80.944 536.034 79.776 536.034 78.256ZM550.647 79.904C550.055 80.656 549.335 81.04 548.263 81.04C546.903 81.04 545.911 79.936 545.815 78.64H551.863V78.24C551.863 75.76 550.423 74.32 548.311 74.32C546.103 74.32 544.471 75.936 544.471 78.256C544.471 80.432 545.911 82.192 548.263 82.192C549.655 82.192 550.711 81.776 551.591 80.64L550.647 79.904ZM545.815 77.584C545.975 76.32 546.887 75.472 548.263 75.472C549.639 75.472 550.471 76.32 550.519 77.584H545.815ZM552.961 80.8C553.697 81.856 554.609 82.192 555.873 82.192C557.361 82.192 558.865 81.536 558.865 79.84C558.865 78.336 557.745 77.856 556.417 77.6C555.425 77.408 554.529 77.136 554.529 76.512C554.529 75.808 555.313 75.472 556.001 75.472C556.737 75.472 557.265 75.84 557.585 76.368L558.625 75.68C558.113 74.72 557.137 74.32 556.081 74.32C554.689 74.32 553.281 75.072 553.281 76.528C553.281 78.08 554.497 78.384 555.921 78.704C556.721 78.88 557.521 79.088 557.521 79.888C557.521 80.704 556.657 81.04 555.873 81.04C554.993 81.04 554.449 80.64 553.953 80.032L552.961 80.8ZM561.646 80.176C561.118 80.176 560.686 80.608 560.686 81.136C560.686 81.664 561.15 82.096 561.646 82.096C562.142 82.096 562.606 81.664 562.606 81.136C562.606 80.608 562.174 80.176 561.646 80.176Z" fill="#467822"/>
<path d="M726.56 68L730.98 63.58C731.054 63.5113 731.113 63.4285 731.154 63.3365C731.195 63.2445 731.217 63.1452 731.219 63.0445C731.22 62.9438 731.202 62.8437 731.164 62.7504C731.127 62.657 731.07 62.5721 730.999 62.5009C730.928 62.4297 730.843 62.3736 730.75 62.3358C730.656 62.2981 730.556 62.2796 730.456 62.2814C730.355 62.2831 730.256 62.3052 730.164 62.3462C730.072 62.3872 729.989 62.4463 729.92 62.52L725.5 66.94L721.08 62.52C720.938 62.3875 720.75 62.3154 720.556 62.3188C720.361 62.3222 720.176 62.4009 720.038 62.5383C719.901 62.6757 719.822 62.8611 719.819 63.0554C719.816 63.2497 719.888 63.4378 720.02 63.58L724.44 68L720.02 72.42C719.88 72.5606 719.801 72.7512 719.801 72.95C719.801 73.1487 719.88 73.3393 720.02 73.48C720.161 73.6204 720.351 73.6993 720.55 73.6993C720.749 73.6993 720.939 73.6204 721.08 73.48L725.5 69.06L729.92 73.48C730.061 73.6204 730.251 73.6993 730.45 73.6993C730.649 73.6993 730.839 73.6204 730.98 73.48C731.121 73.3393 731.199 73.1487 731.199 72.95C731.199 72.7512 731.121 72.5606 730.98 72.42L726.56 68Z" fill="#6B778C"/>
</g>
<path d="M870.252 2.858C869.482 2.13 868.446 1.836 867.41 1.836C865.576 1.836 863.756 2.788 863.756 4.832C863.756 8.374 868.46 7.128 868.46 9.298C868.46 10.208 867.536 10.656 866.724 10.656C865.94 10.656 865.198 10.278 864.764 9.62L863.434 10.908C864.246 11.874 865.45 12.252 866.682 12.252C868.628 12.252 870.308 11.216 870.308 9.088C870.308 5.56 865.604 6.694 865.604 4.706C865.604 3.796 866.416 3.432 867.228 3.432C867.914 3.432 868.586 3.684 868.964 4.216L870.252 2.858ZM872.593 6.708V9.788C872.593 11.37 873.013 12.168 874.791 12.168C875.183 12.168 875.771 12.112 876.121 11.944V10.53C875.911 10.684 875.505 10.74 875.211 10.74C874.469 10.74 874.273 10.32 874.273 9.648V6.708H876.121V5.28H874.273V3.334H872.593V5.28H871.207V6.708H872.593ZM881.632 12H883.144V8.136C883.144 7.184 883.144 5.112 880.274 5.112C879.21 5.112 878.16 5.434 877.418 6.19L878.3 7.072C878.748 6.652 879.392 6.372 880.092 6.372C880.988 6.372 881.632 6.806 881.632 7.632V7.814H881.212C879.532 7.814 876.984 7.968 876.984 10.152C876.984 11.482 878.188 12.168 879.434 12.168C880.33 12.168 881.114 11.832 881.59 11.076H881.632V12ZM881.534 9.368C881.534 10.306 880.988 10.908 879.84 10.908C879.294 10.908 878.664 10.642 878.664 10.026C878.664 9.06 880.26 8.99 881.184 8.99H881.534V9.368ZM885.554 6.708V9.788C885.554 11.37 885.974 12.168 887.752 12.168C888.144 12.168 888.732 12.112 889.082 11.944V10.53C888.872 10.684 888.466 10.74 888.172 10.74C887.43 10.74 887.234 10.32 887.234 9.648V6.708H889.082V5.28H887.234V3.334H885.554V5.28H884.168V6.708H885.554ZM896.861 9.228V8.766C896.861 6.428 895.587 5.112 893.711 5.112C891.681 5.112 890.057 6.526 890.057 8.64C890.057 10.754 891.681 12.168 893.711 12.168C894.775 12.168 895.769 11.79 896.553 10.824L895.349 9.914C894.929 10.432 894.383 10.824 893.543 10.824C892.605 10.824 891.849 10.222 891.737 9.228H896.861ZM891.737 7.968C891.863 7.002 892.479 6.372 893.473 6.372C894.523 6.372 895.167 6.988 895.181 7.968H891.737ZM898.432 11.02C898.432 11.622 898.964 12.084 899.552 12.084C900.168 12.084 900.672 11.594 900.672 10.992C900.672 10.39 900.154 9.928 899.552 9.928C898.936 9.928 898.432 10.418 898.432 11.02ZM898.432 6.274C898.432 6.876 898.964 7.338 899.552 7.338C900.168 7.338 900.672 6.848 900.672 6.246C900.672 5.644 900.154 5.182 899.552 5.182C898.936 5.182 898.432 5.672 898.432 6.274ZM906.872 12H913.69V10.404H908.636V7.716H913.186V6.12H908.636V3.684H913.438V2.088H906.872V12ZM915.276 12H916.956V8.402C916.956 8.038 917.18 6.708 918.762 6.708C919.028 6.708 919.294 6.764 919.574 6.834V5.21C919.378 5.154 919.182 5.112 918.972 5.112C918.09 5.112 917.348 5.574 916.984 6.344H916.956V5.28H915.276V12ZM920.718 12H922.398V8.402C922.398 8.038 922.622 6.708 924.204 6.708C924.47 6.708 924.736 6.764 925.016 6.834V5.21C924.82 5.154 924.624 5.112 924.414 5.112C923.532 5.112 922.79 5.574 922.426 6.344H922.398V5.28H920.718V12ZM925.577 8.64C925.577 10.754 927.201 12.168 929.231 12.168C931.261 12.168 932.885 10.754 932.885 8.64C932.885 6.526 931.261 5.112 929.231 5.112C927.201 5.112 925.577 6.526 925.577 8.64ZM927.257 8.64C927.257 7.59 927.999 6.624 929.231 6.624C930.463 6.624 931.205 7.59 931.205 8.64C931.205 9.69 930.463 10.656 929.231 10.656C927.999 10.656 927.257 9.69 927.257 8.64ZM934.458 12H936.138V8.402C936.138 8.038 936.362 6.708 937.944 6.708C938.21 6.708 938.476 6.764 938.756 6.834V5.21C938.56 5.154 938.364 5.112 938.154 5.112C937.272 5.112 936.53 5.574 936.166 6.344H936.138V5.28H934.458V12Z" fill="black"/>
<g filter="url(#filter2_bd_52_14113)">
<rect x="863" y="33" width="320" height="70" rx="8" fill="#FEEFEF" fill-opacity="0.85" shape-rendering="crispEdges"/>
<path d="M899 74.7501H883C882.869 74.7497 882.74 74.7154 882.626 74.6506C882.512 74.5858 882.417 74.4926 882.35 74.3801C882.286 74.2654 882.252 74.1364 882.252 74.0051C882.252 73.8738 882.286 73.7447 882.35 73.6301L890.35 59.6301C890.421 59.5228 890.518 59.4348 890.631 59.374C890.744 59.3131 890.871 59.2812 891 59.2812C891.129 59.2812 891.255 59.3131 891.369 59.374C891.482 59.4348 891.579 59.5228 891.65 59.6301L899.65 73.6301C899.714 73.7447 899.747 73.8738 899.747 74.0051C899.747 74.1364 899.714 74.2654 899.65 74.3801C899.583 74.4926 899.487 74.5858 899.374 74.6506C899.26 74.7154 899.131 74.7497 899 74.7501ZM884.29 73.2501H897.71L891 61.5101L884.29 73.2501Z" fill="#DB3259"/>
<path d="M891 69.25C890.802 69.2474 890.613 69.1676 890.473 69.0275C890.332 68.8874 890.253 68.6981 890.25 68.5V65C890.25 64.8011 890.329 64.6103 890.47 64.4697C890.61 64.329 890.801 64.25 891 64.25C891.199 64.25 891.39 64.329 891.53 64.4697C891.671 64.6103 891.75 64.8011 891.75 65V68.5C891.747 68.6981 891.668 68.8874 891.527 69.0275C891.387 69.1676 891.198 69.2474 891 69.25Z" fill="#DB3259"/>
<path d="M891 72.25C890.802 72.2474 890.613 72.1676 890.473 72.0275C890.332 71.8874 890.253 71.6981 890.25 71.5V71C890.25 70.8011 890.329 70.6103 890.47 70.4697C890.61 70.329 890.801 70.25 891 70.25C891.199 70.25 891.39 70.329 891.53 70.4697C891.671 70.6103 891.75 70.8011 891.75 71V71.5C891.747 71.6981 891.668 71.8874 891.527 72.0275C891.387 72.1676 891.198 72.2474 891 72.25Z" fill="#DB3259"/>
<path d="M928.008 51.672H919.176V52.92H922.92V63H924.264V52.92H928.008V51.672ZM927.158 59.256C927.158 61.592 928.854 63.192 931.158 63.192C933.462 63.192 935.158 61.592 935.158 59.256C935.158 56.92 933.462 55.32 931.158 55.32C928.854 55.32 927.158 56.92 927.158 59.256ZM928.502 59.256C928.502 57.688 929.542 56.472 931.158 56.472C932.774 56.472 933.814 57.688 933.814 59.256C933.814 60.824 932.774 62.04 931.158 62.04C929.542 62.04 928.502 60.824 928.502 59.256ZM937.778 57.288C938.37 56.744 939.202 56.472 940.002 56.472C941.17 56.472 941.858 57.032 941.858 58.12V58.344H941.378C939.538 58.344 936.658 58.488 936.658 60.968C936.658 62.424 937.922 63.192 939.442 63.192C940.578 63.192 941.41 62.648 941.906 61.88H941.938C941.938 62.2 941.938 62.664 942.018 63H943.218C943.154 62.616 943.106 62.136 943.106 61.704V58.488C943.106 56.376 942.178 55.32 939.97 55.32C938.882 55.32 937.762 55.688 936.994 56.472L937.778 57.288ZM941.858 59.4V59.88C941.826 61.096 941.09 62.136 939.65 62.136C938.706 62.136 938.002 61.784 938.002 60.84C938.002 59.832 939.026 59.4 940.61 59.4H941.858ZM944.555 61.8C945.291 62.856 946.203 63.192 947.467 63.192C948.955 63.192 950.459 62.536 950.459 60.84C950.459 59.336 949.339 58.856 948.011 58.6C947.019 58.408 946.123 58.136 946.123 57.512C946.123 56.808 946.907 56.472 947.595 56.472C948.331 56.472 948.859 56.84 949.179 57.368L950.219 56.68C949.707 55.72 948.731 55.32 947.675 55.32C946.283 55.32 944.875 56.072 944.875 57.528C944.875 59.08 946.091 59.384 947.515 59.704C948.315 59.88 949.115 60.088 949.115 60.888C949.115 61.704 948.251 62.04 947.467 62.04C946.587 62.04 946.043 61.64 945.547 61.032L944.555 61.8ZM956.296 55.512H954.088V53.384H952.84V55.512H951.208V56.568H952.84V60.68C952.84 62.232 953.128 63.192 954.904 63.192C955.368 63.192 955.928 63.112 956.36 62.92L956.312 61.784C955.976 61.96 955.576 62.04 955.208 62.04C954.104 62.04 954.088 61.272 954.088 60.312V56.568H956.296V55.512ZM962.278 63H963.526V59.352C963.526 57.64 964.23 56.472 965.846 56.472C966.87 56.472 967.286 57.112 967.286 58.76V63H968.534V58.68C968.534 57.336 969.414 56.472 970.47 56.472C971.926 56.472 972.294 57.48 972.294 58.52V63H973.542V58.456C973.542 56.52 972.838 55.32 970.694 55.32C969.558 55.32 968.87 55.864 968.326 56.744C968.086 56.232 967.574 55.32 965.958 55.32C964.726 55.32 963.798 56.008 963.462 56.744H963.43C963.43 56.328 963.398 55.912 963.398 55.512H962.214C962.214 56.008 962.278 56.6 962.278 57.288V63ZM981.647 60.904C981.055 61.656 980.335 62.04 979.263 62.04C977.903 62.04 976.911 60.936 976.815 59.64H982.863V59.24C982.863 56.76 981.423 55.32 979.311 55.32C977.103 55.32 975.471 56.936 975.471 59.256C975.471 61.432 976.911 63.192 979.263 63.192C980.655 63.192 981.711 62.776 982.591 61.64L981.647 60.904ZM976.815 58.584C976.975 57.32 977.887 56.472 979.263 56.472C980.639 56.472 981.471 57.32 981.519 58.584H976.815ZM983.961 61.8C984.697 62.856 985.609 63.192 986.873 63.192C988.361 63.192 989.865 62.536 989.865 60.84C989.865 59.336 988.745 58.856 987.417 58.6C986.425 58.408 985.529 58.136 985.529 57.512C985.529 56.808 986.313 56.472 987.001 56.472C987.737 56.472 988.265 56.84 988.585 57.368L989.625 56.68C989.113 55.72 988.137 55.32 987.081 55.32C985.689 55.32 984.281 56.072 984.281 57.528C984.281 59.08 985.497 59.384 986.921 59.704C987.721 59.88 988.521 60.088 988.521 60.888C988.521 61.704 987.657 62.04 986.873 62.04C985.993 62.04 985.449 61.64 984.953 61.032L983.961 61.8ZM990.774 61.8C991.51 62.856 992.422 63.192 993.686 63.192C995.174 63.192 996.678 62.536 996.678 60.84C996.678 59.336 995.558 58.856 994.23 58.6C993.238 58.408 992.342 58.136 992.342 57.512C992.342 56.808 993.126 56.472 993.814 56.472C994.55 56.472 995.078 56.84 995.398 57.368L996.438 56.68C995.926 55.72 994.95 55.32 993.894 55.32C992.502 55.32 991.094 56.072 991.094 57.528C991.094 59.08 992.31 59.384 993.734 59.704C994.534 59.88 995.334 60.088 995.334 60.888C995.334 61.704 994.47 62.04 993.686 62.04C992.806 62.04 992.262 61.64 991.766 61.032L990.774 61.8ZM999.106 57.288C999.698 56.744 1000.53 56.472 1001.33 56.472C1002.5 56.472 1003.19 57.032 1003.19 58.12V58.344H1002.71C1000.87 58.344 997.986 58.488 997.986 60.968C997.986 62.424 999.25 63.192 1000.77 63.192C1001.91 63.192 1002.74 62.648 1003.23 61.88H1003.27C1003.27 62.2 1003.27 62.664 1003.35 63H1004.55C1004.48 62.616 1004.43 62.136 1004.43 61.704V58.488C1004.43 56.376 1003.51 55.32 1001.3 55.32C1000.21 55.32 999.09 55.688 998.322 56.472L999.106 57.288ZM1003.19 59.4V59.88C1003.15 61.096 1002.42 62.136 1000.98 62.136C1000.03 62.136 999.33 61.784 999.33 60.84C999.33 59.832 1000.35 59.4 1001.94 59.4H1003.19ZM1014.19 55.512H1012.94V56.792H1012.91C1012.41 55.8 1011.28 55.32 1010.27 55.32C1007.88 55.32 1006.28 56.808 1006.28 59.256C1006.28 61.464 1007.92 63.096 1010.27 63.096C1011.26 63.096 1012.32 62.664 1012.91 61.704H1012.94V62.664C1012.94 64.248 1012.35 65.688 1010.11 65.688C1008.96 65.688 1008.11 65.24 1007.32 64.392L1006.43 65.416C1007.48 66.456 1008.65 66.84 1010.11 66.84C1012.73 66.84 1014.19 65.368 1014.19 62.664V55.512ZM1007.63 59.256C1007.63 57.688 1008.7 56.472 1010.27 56.472C1011.85 56.472 1012.94 57.608 1012.94 59.224C1012.94 60.664 1011.98 61.944 1010.27 61.944C1008.81 61.944 1007.63 60.776 1007.63 59.256ZM1022.24 60.904C1021.65 61.656 1020.93 62.04 1019.86 62.04C1018.5 62.04 1017.5 60.936 1017.41 59.64H1023.46V59.24C1023.46 56.76 1022.02 55.32 1019.9 55.32C1017.7 55.32 1016.06 56.936 1016.06 59.256C1016.06 61.432 1017.5 63.192 1019.86 63.192C1021.25 63.192 1022.3 62.776 1023.18 61.64L1022.24 60.904ZM1017.41 58.584C1017.57 57.32 1018.48 56.472 1019.86 56.472C1021.23 56.472 1022.06 57.32 1022.11 58.584H1017.41ZM1029.36 59.736H1033.28V58.584H1029.36V59.736ZM1039.85 63H1047.25V61.752H1041.19V57.72H1046.58V56.472H1041.19V52.92H1046.97V51.672H1039.85V63ZM1049.11 63H1050.35V59.352C1050.35 57.64 1051.03 56.568 1052.55 56.568C1052.77 56.568 1053.01 56.6 1053.22 56.664L1053.3 55.4C1053.12 55.336 1052.95 55.32 1052.79 55.32C1051.55 55.32 1050.63 56.008 1050.29 56.744H1050.26C1050.26 56.328 1050.23 55.912 1050.23 55.512H1049.04C1049.04 56.008 1049.11 56.6 1049.11 57.288V63ZM1054.73 63H1055.98V59.352C1055.98 57.64 1056.65 56.568 1058.17 56.568C1058.39 56.568 1058.63 56.6 1058.84 56.664L1058.92 55.4C1058.75 55.336 1058.57 55.32 1058.41 55.32C1057.18 55.32 1056.25 56.008 1055.91 56.744H1055.88C1055.88 56.328 1055.85 55.912 1055.85 55.512H1054.67C1054.67 56.008 1054.73 56.6 1054.73 57.288V63ZM1059.64 59.256C1059.64 61.592 1061.34 63.192 1063.64 63.192C1065.95 63.192 1067.64 61.592 1067.64 59.256C1067.64 56.92 1065.95 55.32 1063.64 55.32C1061.34 55.32 1059.64 56.92 1059.64 59.256ZM1060.99 59.256C1060.99 57.688 1062.03 56.472 1063.64 56.472C1065.26 56.472 1066.3 57.688 1066.3 59.256C1066.3 60.824 1065.26 62.04 1063.64 62.04C1062.03 62.04 1060.99 60.824 1060.99 59.256ZM1069.57 63H1070.82V59.352C1070.82 57.64 1071.49 56.568 1073.01 56.568C1073.24 56.568 1073.48 56.6 1073.69 56.664L1073.77 55.4C1073.59 55.336 1073.41 55.32 1073.25 55.32C1072.02 55.32 1071.09 56.008 1070.76 56.744H1070.73C1070.73 56.328 1070.69 55.912 1070.69 55.512H1069.51C1069.51 56.008 1069.57 56.6 1069.57 57.288V63ZM920.184 82H921.432V78.352C921.432 76.64 922.136 75.472 923.752 75.472C924.776 75.472 925.192 76.112 925.192 77.76V82H926.44V77.68C926.44 76.336 927.32 75.472 928.376 75.472C929.832 75.472 930.2 76.48 930.2 77.52V82H931.448V77.456C931.448 75.52 930.744 74.32 928.6 74.32C927.464 74.32 926.776 74.864 926.232 75.744C925.992 75.232 925.48 74.32 923.864 74.32C922.632 74.32 921.704 75.008 921.368 75.744H921.336C921.336 75.328 921.304 74.912 921.304 74.512H920.12C920.12 75.008 920.184 75.6 920.184 76.288V82ZM939.553 79.904C938.961 80.656 938.241 81.04 937.169 81.04C935.809 81.04 934.817 79.936 934.721 78.64H940.769V78.24C940.769 75.76 939.329 74.32 937.217 74.32C935.009 74.32 933.377 75.936 933.377 78.256C933.377 80.432 934.817 82.192 937.169 82.192C938.561 82.192 939.617 81.776 940.497 80.64L939.553 79.904ZM934.721 77.584C934.881 76.32 935.793 75.472 937.169 75.472C938.545 75.472 939.377 76.32 939.425 77.584H934.721ZM941.868 80.8C942.604 81.856 943.516 82.192 944.78 82.192C946.268 82.192 947.772 81.536 947.772 79.84C947.772 78.336 946.652 77.856 945.324 77.6C944.332 77.408 943.436 77.136 943.436 76.512C943.436 75.808 944.22 75.472 944.908 75.472C945.644 75.472 946.172 75.84 946.492 76.368L947.532 75.68C947.02 74.72 946.044 74.32 944.988 74.32C943.596 74.32 942.188 75.072 942.188 76.528C942.188 78.08 943.404 78.384 944.828 78.704C945.628 78.88 946.428 79.088 946.428 79.888C946.428 80.704 945.564 81.04 944.78 81.04C943.9 81.04 943.356 80.64 942.86 80.032L941.868 80.8ZM948.68 80.8C949.416 81.856 950.328 82.192 951.592 82.192C953.08 82.192 954.584 81.536 954.584 79.84C954.584 78.336 953.464 77.856 952.136 77.6C951.144 77.408 950.248 77.136 950.248 76.512C950.248 75.808 951.032 75.472 951.72 75.472C952.456 75.472 952.984 75.84 953.304 76.368L954.344 75.68C953.832 74.72 952.856 74.32 951.8 74.32C950.408 74.32 949 75.072 949 76.528C949 78.08 950.216 78.384 951.64 78.704C952.44 78.88 953.24 79.088 953.24 79.888C953.24 80.704 952.376 81.04 951.592 81.04C950.712 81.04 950.168 80.64 949.672 80.032L948.68 80.8ZM957.013 76.288C957.605 75.744 958.437 75.472 959.237 75.472C960.405 75.472 961.093 76.032 961.093 77.12V77.344H960.613C958.773 77.344 955.893 77.488 955.893 79.968C955.893 81.424 957.157 82.192 958.677 82.192C959.813 82.192 960.645 81.648 961.141 80.88H961.173C961.173 81.2 961.173 81.664 961.253 82H962.453C962.389 81.616 962.341 81.136 962.341 80.704V77.488C962.341 75.376 961.413 74.32 959.205 74.32C958.117 74.32 956.997 74.688 956.229 75.472L957.013 76.288ZM961.093 78.4V78.88C961.061 80.096 960.325 81.136 958.885 81.136C957.941 81.136 957.237 80.784 957.237 79.84C957.237 78.832 958.261 78.4 959.845 78.4H961.093ZM972.094 74.512H970.846V75.792H970.814C970.318 74.8 969.182 74.32 968.174 74.32C965.789 74.32 964.19 75.808 964.19 78.256C964.19 80.464 965.822 82.096 968.174 82.096C969.166 82.096 970.222 81.664 970.814 80.704H970.846V81.664C970.846 83.248 970.254 84.688 968.014 84.688C966.862 84.688 966.014 84.24 965.23 83.392L964.334 84.416C965.39 85.456 966.558 85.84 968.014 85.84C970.638 85.84 972.094 84.368 972.094 81.664V74.512ZM965.534 78.256C965.534 76.688 966.606 75.472 968.174 75.472C969.758 75.472 970.846 76.608 970.846 78.224C970.846 79.664 969.886 80.944 968.174 80.944C966.718 80.944 965.534 79.776 965.534 78.256ZM980.147 79.904C979.555 80.656 978.835 81.04 977.763 81.04C976.403 81.04 975.411 79.936 975.315 78.64H981.363V78.24C981.363 75.76 979.923 74.32 977.811 74.32C975.603 74.32 973.971 75.936 973.971 78.256C973.971 80.432 975.411 82.192 977.763 82.192C979.155 82.192 980.211 81.776 981.091 80.64L980.147 79.904ZM975.315 77.584C975.475 76.32 976.387 75.472 977.763 75.472C979.139 75.472 979.971 76.32 980.019 77.584H975.315ZM982.461 80.8C983.197 81.856 984.109 82.192 985.373 82.192C986.861 82.192 988.365 81.536 988.365 79.84C988.365 78.336 987.245 77.856 985.917 77.6C984.925 77.408 984.029 77.136 984.029 76.512C984.029 75.808 984.813 75.472 985.501 75.472C986.237 75.472 986.765 75.84 987.085 76.368L988.125 75.68C987.613 74.72 986.637 74.32 985.581 74.32C984.189 74.32 982.781 75.072 982.781 76.528C982.781 78.08 983.997 78.384 985.421 78.704C986.221 78.88 987.021 79.088 987.021 79.888C987.021 80.704 986.157 81.04 985.373 81.04C984.493 81.04 983.949 80.64 983.453 80.032L982.461 80.8ZM991.146 80.176C990.618 80.176 990.186 80.608 990.186 81.136C990.186 81.664 990.65 82.096 991.146 82.096C991.642 82.096 992.106 81.664 992.106 81.136C992.106 80.608 991.674 80.176 991.146 80.176Z" fill="#DB3259"/>
<path d="M1156.06 68L1160.48 63.58C1160.55 63.5113 1160.61 63.4285 1160.65 63.3365C1160.69 63.2445 1160.72 63.1452 1160.72 63.0445C1160.72 62.9438 1160.7 62.8437 1160.66 62.7504C1160.63 62.657 1160.57 62.5721 1160.5 62.5009C1160.43 62.4297 1160.34 62.3736 1160.25 62.3358C1160.16 62.2981 1160.06 62.2796 1159.96 62.2814C1159.85 62.2831 1159.76 62.3052 1159.66 62.3462C1159.57 62.3872 1159.49 62.4463 1159.42 62.52L1155 66.94L1150.58 62.52C1150.44 62.3875 1150.25 62.3154 1150.06 62.3188C1149.86 62.3222 1149.68 62.4009 1149.54 62.5383C1149.4 62.6757 1149.32 62.8611 1149.32 63.0554C1149.32 63.2497 1149.39 63.4378 1149.52 63.58L1153.94 68L1149.52 72.42C1149.38 72.5606 1149.3 72.7512 1149.3 72.95C1149.3 73.1487 1149.38 73.3393 1149.52 73.48C1149.66 73.6204 1149.85 73.6993 1150.05 73.6993C1150.25 73.6993 1150.44 73.6204 1150.58 73.48L1155 69.06L1159.42 73.48C1159.56 73.6204 1159.75 73.6993 1159.95 73.6993C1160.15 73.6993 1160.34 73.6204 1160.48 73.48C1160.62 73.3393 1160.7 73.1487 1160.7 72.95C1160.7 72.7512 1160.62 72.5606 1160.48 72.42L1156.06 68Z" fill="#6B778C"/>
</g>
<defs>
<filter id="filter0_bd_52_14113" x="0" y="29" width="328" height="82" filterUnits="userSpaceOnUse" color-interpolation-filters="sRGB">
<feFlood flood-opacity="0" result="BackgroundImageFix"/>
<feGaussianBlur in="BackgroundImageFix" stdDeviation="2"/>
<feComposite in2="SourceAlpha" operator="in" result="effect1_backgroundBlur_52_14113"/>
<feColorMatrix in="SourceAlpha" type="matrix" values="0 0 0 0 0 0 0 0 0 0 0 0 0 0 0 0 0 0 127 0" result="hardAlpha"/>
<feOffset dy="4"/>
<feGaussianBlur stdDeviation="2"/>
<feComposite in2="hardAlpha" operator="out"/>
<feColorMatrix type="matrix" values="0 0 0 0 0 0 0 0 0 0 0 0 0 0 0 0 0 0 0.25 0"/>
<feBlend mode="normal" in2="effect1_backgroundBlur_52_14113" result="effect2_dropShadow_52_14113"/>
<feBlend mode="normal" in="SourceGraphic" in2="effect2_dropShadow_52_14113" result="shape"/>
</filter>
<filter id="filter1_bd_52_14113" x="429.5" y="29" width="328" height="82" filterUnits="userSpaceOnUse" color-interpolation-filters="sRGB">
<feFlood flood-opacity="0" result="BackgroundImageFix"/>
<feGaussianBlur in="BackgroundImageFix" stdDeviation="2"/>
<feComposite in2="SourceAlpha" operator="in" result="effect1_backgroundBlur_52_14113"/>
<feColorMatrix in="SourceAlpha" type="matrix" values="0 0 0 0 0 0 0 0 0 0 0 0 0 0 0 0 0 0 127 0" result="hardAlpha"/>
<feOffset dy="4"/>
<feGaussianBlur stdDeviation="2"/>
<feComposite in2="hardAlpha" operator="out"/>
<feColorMatrix type="matrix" values="0 0 0 0 0 0 0 0 0 0 0 0 0 0 0 0 0 0 0.25 0"/>
<feBlend mode="normal" in2="effect1_backgroundBlur_52_14113" result="effect2_dropShadow_52_14113"/>
<feBlend mode="normal" in="SourceGraphic" in2="effect2_dropShadow_52_14113" result="shape"/>
</filter>
<filter id="filter2_bd_52_14113" x="859" y="29" width="328" height="82" filterUnits="userSpaceOnUse" color-interpolation-filters="sRGB">
<feFlood flood-opacity="0" result="BackgroundImageFix"/>
<feGaussianBlur in="BackgroundImageFix" stdDeviation="2"/>
<feComposite in2="SourceAlpha" operator="in" result="effect1_backgroundBlur_52_14113"/>
<feColorMatrix in="SourceAlpha" type="matrix" values="0 0 0 0 0 0 0 0 0 0 0 0 0 0 0 0 0 0 127 0" result="hardAlpha"/>
<feOffset dy="4"/>
<feGaussianBlur stdDeviation="2"/>
<feComposite in2="hardAlpha" operator="out"/>
<feColorMatrix type="matrix" values="0 0 0 0 0 0 0 0 0 0 0 0 0 0 0 0 0 0 0.25 0"/>
<feBlend mode="normal" in2="effect1_backgroundBlur_52_14113" result="effect2_dropShadow_52_14113"/>
<feBlend mode="normal" in="SourceGraphic" in2="effect2_dropShadow_52_14113" result="shape"/>
</filter>
</defs>
</svg>
