<svg width="600" height="240" viewBox="0 0 600 240" fill="none" xmlns="http://www.w3.org/2000/svg">
<rect y="192" width="200" height="1" fill="#E7EDF9"/>
<path d="M19.408 174H20.656V161.904H19.408V167.6H19.376C18.688 166.8 17.776 166.32 16.688 166.32C14.336 166.32 12.752 167.984 12.752 170.256C12.752 172.496 14.4 174.192 16.496 174.192C17.84 174.192 18.912 173.52 19.376 172.672H19.408V174ZM19.408 170.256C19.408 171.824 18.368 173.04 16.752 173.04C15.136 173.04 14.096 171.824 14.096 170.256C14.096 168.688 15.136 167.472 16.752 167.472C18.368 167.472 19.408 168.688 19.408 170.256ZM23.6533 168.288C24.2453 167.744 25.0773 167.472 25.8773 167.472C27.0453 167.472 27.7333 168.032 27.7333 169.12V169.344H27.2533C25.4133 169.344 22.5333 169.488 22.5333 171.968C22.5333 173.424 23.7973 174.192 25.3173 174.192C26.4533 174.192 27.2853 173.648 27.7813 172.88H27.8133C27.8133 173.2 27.8133 173.664 27.8933 174H29.0933C29.0293 173.616 28.9813 173.136 28.9813 172.704V169.488C28.9813 167.376 28.0533 166.32 25.8453 166.32C24.7573 166.32 23.6373 166.688 22.8693 167.472L23.6533 168.288ZM27.7333 170.4V170.88C27.7013 172.096 26.9653 173.136 25.5253 173.136C24.5813 173.136 23.8773 172.784 23.8773 171.84C23.8773 170.832 24.9013 170.4 26.4852 170.4H27.7333ZM35.3581 166.512H33.1501V164.384H31.9021V166.512H30.2701V167.568H31.9021V171.68C31.9021 173.232 32.1901 174.192 33.9661 174.192C34.4301 174.192 34.9901 174.112 35.4221 173.92L35.3741 172.784C35.0381 172.96 34.6381 173.04 34.2701 173.04C33.1661 173.04 33.1501 172.272 33.1501 171.312V167.568H35.3581V166.512ZM37.5751 168.288C38.1671 167.744 38.9991 167.472 39.7991 167.472C40.9671 167.472 41.6551 168.032 41.6551 169.12V169.344H41.1751C39.3351 169.344 36.4551 169.488 36.4551 171.968C36.4551 173.424 37.7191 174.192 39.2391 174.192C40.3751 174.192 41.2071 173.648 41.7031 172.88H41.7351C41.7351 173.2 41.7351 173.664 41.8151 174H43.0151C42.9511 173.616 42.9031 173.136 42.9031 172.704V169.488C42.9031 167.376 41.9751 166.32 39.7671 166.32C38.6791 166.32 37.5591 166.688 36.7911 167.472L37.5751 168.288ZM41.6551 170.4V170.88C41.6231 172.096 40.8871 173.136 39.4471 173.136C38.5031 173.136 37.7991 172.784 37.7991 171.84C37.7991 170.832 38.8231 170.4 40.4071 170.4H41.6551Z" fill="#333333"/>
<rect y="144" width="200" height="1" fill="#E7EDF9"/>
<path d="M19.408 126H20.656V113.904H19.408V119.6H19.376C18.688 118.8 17.776 118.32 16.688 118.32C14.336 118.32 12.752 119.984 12.752 122.256C12.752 124.496 14.4 126.192 16.496 126.192C17.84 126.192 18.912 125.52 19.376 124.672H19.408V126ZM19.408 122.256C19.408 123.824 18.368 125.04 16.752 125.04C15.136 125.04 14.096 123.824 14.096 122.256C14.096 120.688 15.136 119.472 16.752 119.472C18.368 119.472 19.408 120.688 19.408 122.256ZM23.6533 120.288C24.2453 119.744 25.0773 119.472 25.8773 119.472C27.0453 119.472 27.7333 120.032 27.7333 121.12V121.344H27.2533C25.4133 121.344 22.5333 121.488 22.5333 123.968C22.5333 125.424 23.7973 126.192 25.3173 126.192C26.4533 126.192 27.2853 125.648 27.7813 124.88H27.8133C27.8133 125.2 27.8133 125.664 27.8933 126H29.0933C29.0293 125.616 28.9813 125.136 28.9813 124.704V121.488C28.9813 119.376 28.0533 118.32 25.8453 118.32C24.7573 118.32 23.6373 118.688 22.8693 119.472L23.6533 120.288ZM27.7333 122.4V122.88C27.7013 124.096 26.9653 125.136 25.5253 125.136C24.5813 125.136 23.8773 124.784 23.8773 123.84C23.8773 122.832 24.9013 122.4 26.4852 122.4H27.7333ZM35.3581 118.512H33.1501V116.384H31.9021V118.512H30.2701V119.568H31.9021V123.68C31.9021 125.232 32.1901 126.192 33.9661 126.192C34.4301 126.192 34.9901 126.112 35.4221 125.92L35.3741 124.784C35.0381 124.96 34.6381 125.04 34.2701 125.04C33.1661 125.04 33.1501 124.272 33.1501 123.312V119.568H35.3581V118.512ZM37.5751 120.288C38.1671 119.744 38.9991 119.472 39.7991 119.472C40.9671 119.472 41.6551 120.032 41.6551 121.12V121.344H41.1751C39.3351 121.344 36.4551 121.488 36.4551 123.968C36.4551 125.424 37.7191 126.192 39.2391 126.192C40.3751 126.192 41.2071 125.648 41.7031 124.88H41.7351C41.7351 125.2 41.7351 125.664 41.8151 126H43.0151C42.9511 125.616 42.9031 125.136 42.9031 124.704V121.488C42.9031 119.376 41.9751 118.32 39.7671 118.32C38.6791 118.32 37.5591 118.688 36.7911 119.472L37.5751 120.288ZM41.6551 122.4V122.88C41.6231 124.096 40.8871 125.136 39.4471 125.136C38.5031 125.136 37.7991 124.784 37.7991 123.84C37.7991 122.832 38.8231 122.4 40.4071 122.4H41.6551Z" fill="#333333"/>
<rect y="96" width="200" height="1" fill="#E7EDF9"/>
<path d="M19.408 78H20.656V65.904H19.408V71.6H19.376C18.688 70.8 17.776 70.32 16.688 70.32C14.336 70.32 12.752 71.984 12.752 74.256C12.752 76.496 14.4 78.192 16.496 78.192C17.84 78.192 18.912 77.52 19.376 76.672H19.408V78ZM19.408 74.256C19.408 75.824 18.368 77.04 16.752 77.04C15.136 77.04 14.096 75.824 14.096 74.256C14.096 72.688 15.136 71.472 16.752 71.472C18.368 71.472 19.408 72.688 19.408 74.256ZM23.6533 72.288C24.2453 71.744 25.0773 71.472 25.8773 71.472C27.0453 71.472 27.7333 72.032 27.7333 73.12V73.344H27.2533C25.4133 73.344 22.5333 73.488 22.5333 75.968C22.5333 77.424 23.7973 78.192 25.3173 78.192C26.4533 78.192 27.2853 77.648 27.7813 76.88H27.8133C27.8133 77.2 27.8133 77.664 27.8933 78H29.0933C29.0293 77.616 28.9813 77.136 28.9813 76.704V73.488C28.9813 71.376 28.0533 70.32 25.8453 70.32C24.7573 70.32 23.6373 70.688 22.8693 71.472L23.6533 72.288ZM27.7333 74.4V74.88C27.7013 76.096 26.9653 77.136 25.5253 77.136C24.5813 77.136 23.8773 76.784 23.8773 75.84C23.8773 74.832 24.9013 74.4 26.4852 74.4H27.7333ZM35.3581 70.512H33.1501V68.384H31.9021V70.512H30.2701V71.568H31.9021V75.68C31.9021 77.232 32.1901 78.192 33.9661 78.192C34.4301 78.192 34.9901 78.112 35.4221 77.92L35.3741 76.784C35.0381 76.96 34.6381 77.04 34.2701 77.04C33.1661 77.04 33.1501 76.272 33.1501 75.312V71.568H35.3581V70.512ZM37.5751 72.288C38.1671 71.744 38.9991 71.472 39.7991 71.472C40.9671 71.472 41.6551 72.032 41.6551 73.12V73.344H41.1751C39.3351 73.344 36.4551 73.488 36.4551 75.968C36.4551 77.424 37.7191 78.192 39.2391 78.192C40.3751 78.192 41.2071 77.648 41.7031 76.88H41.7351C41.7351 77.2 41.7351 77.664 41.8151 78H43.0151C42.9511 77.616 42.9031 77.136 42.9031 76.704V73.488C42.9031 71.376 41.9751 70.32 39.7671 70.32C38.6791 70.32 37.5591 70.688 36.7911 71.472L37.5751 72.288ZM41.6551 74.4V74.88C41.6231 76.096 40.8871 77.136 39.4471 77.136C38.5031 77.136 37.7991 76.784 37.7991 75.84C37.7991 74.832 38.8231 74.4 40.4071 74.4H41.6551Z" fill="#333333"/>
<rect y="48" width="200" height="1" fill="#E7EDF9"/>
<path d="M15.008 17.904H13.088V30H15.008V25.808C15.008 24.784 15.504 23.856 16.768 23.856C18.112 23.856 18.176 25.264 18.176 26.112V30H20.096V25.152C20.096 23.584 19.36 22.128 17.296 22.128C16.112 22.128 15.344 22.752 15.04 23.392H15.008V17.904ZM29.6675 26.832V26.304C29.6675 23.632 28.2115 22.128 26.0675 22.128C23.7475 22.128 21.8915 23.744 21.8915 26.16C21.8915 28.576 23.7475 30.192 26.0675 30.192C27.2835 30.192 28.4195 29.76 29.3155 28.656L27.9395 27.616C27.4595 28.208 26.8355 28.656 25.8755 28.656C24.8035 28.656 23.9395 27.968 23.8115 26.832H29.6675ZM23.8115 25.392C23.9555 24.288 24.6595 23.568 25.7955 23.568C26.9955 23.568 27.7315 24.272 27.7475 25.392H23.8115ZM36.263 30H37.991V25.584C37.991 24.496 37.991 22.128 34.711 22.128C33.495 22.128 32.295 22.496 31.447 23.36L32.455 24.368C32.967 23.888 33.703 23.568 34.503 23.568C35.527 23.568 36.263 24.064 36.263 25.008V25.216H35.783C33.863 25.216 30.951 25.392 30.951 27.888C30.951 29.408 32.327 30.192 33.751 30.192C34.775 30.192 35.671 29.808 36.215 28.944H36.263V30ZM36.151 26.992C36.151 28.064 35.527 28.752 34.215 28.752C33.591 28.752 32.871 28.448 32.871 27.744C32.871 26.64 34.695 26.56 35.751 26.56H36.151V26.992ZM46.1368 30H47.9608V17.904H46.0408V23.296H45.9928C45.5928 22.8 44.8248 22.128 43.3848 22.128C41.1928 22.128 39.6728 23.888 39.6728 26.16C39.6728 28.432 41.0968 30.192 43.4648 30.192C44.5368 30.192 45.5448 29.776 46.1048 28.848H46.1368V30ZM41.5928 26.16C41.5928 24.96 42.4408 23.856 43.8488 23.856C45.2568 23.856 46.1048 24.96 46.1048 26.16C46.1048 27.36 45.2568 28.464 43.8488 28.464C42.4408 28.464 41.5928 27.36 41.5928 26.16Z" fill="#333333"/>
<rect x="200" y="192" width="200" height="1" fill="#E7EDF9"/>
<path d="M219.408 174H220.656V161.904H219.408V167.6H219.376C218.688 166.8 217.776 166.32 216.688 166.32C214.336 166.32 212.752 167.984 212.752 170.256C212.752 172.496 214.4 174.192 216.496 174.192C217.84 174.192 218.912 173.52 219.376 172.672H219.408V174ZM219.408 170.256C219.408 171.824 218.368 173.04 216.752 173.04C215.136 173.04 214.096 171.824 214.096 170.256C214.096 168.688 215.136 167.472 216.752 167.472C218.368 167.472 219.408 168.688 219.408 170.256ZM223.653 168.288C224.245 167.744 225.077 167.472 225.877 167.472C227.045 167.472 227.733 168.032 227.733 169.12V169.344H227.253C225.413 169.344 222.533 169.488 222.533 171.968C222.533 173.424 223.797 174.192 225.317 174.192C226.453 174.192 227.285 173.648 227.781 172.88H227.813C227.813 173.2 227.813 173.664 227.893 174H229.093C229.029 173.616 228.981 173.136 228.981 172.704V169.488C228.981 167.376 228.053 166.32 225.845 166.32C224.757 166.32 223.637 166.688 222.869 167.472L223.653 168.288ZM227.733 170.4V170.88C227.701 172.096 226.965 173.136 225.525 173.136C224.581 173.136 223.877 172.784 223.877 171.84C223.877 170.832 224.901 170.4 226.485 170.4H227.733ZM235.358 166.512H233.15V164.384H231.902V166.512H230.27V167.568H231.902V171.68C231.902 173.232 232.19 174.192 233.966 174.192C234.43 174.192 234.99 174.112 235.422 173.92L235.374 172.784C235.038 172.96 234.638 173.04 234.27 173.04C233.166 173.04 233.15 172.272 233.15 171.312V167.568H235.358V166.512ZM237.575 168.288C238.167 167.744 238.999 167.472 239.799 167.472C240.967 167.472 241.655 168.032 241.655 169.12V169.344H241.175C239.335 169.344 236.455 169.488 236.455 171.968C236.455 173.424 237.719 174.192 239.239 174.192C240.375 174.192 241.207 173.648 241.703 172.88H241.735C241.735 173.2 241.735 173.664 241.815 174H243.015C242.951 173.616 242.903 173.136 242.903 172.704V169.488C242.903 167.376 241.975 166.32 239.767 166.32C238.679 166.32 237.559 166.688 236.791 167.472L237.575 168.288ZM241.655 170.4V170.88C241.623 172.096 240.887 173.136 239.447 173.136C238.503 173.136 237.799 172.784 237.799 171.84C237.799 170.832 238.823 170.4 240.407 170.4H241.655Z" fill="#333333"/>
<rect x="200" y="144" width="200" height="1" fill="#E7EDF9"/>
<path d="M219.408 126H220.656V113.904H219.408V119.6H219.376C218.688 118.8 217.776 118.32 216.688 118.32C214.336 118.32 212.752 119.984 212.752 122.256C212.752 124.496 214.4 126.192 216.496 126.192C217.84 126.192 218.912 125.52 219.376 124.672H219.408V126ZM219.408 122.256C219.408 123.824 218.368 125.04 216.752 125.04C215.136 125.04 214.096 123.824 214.096 122.256C214.096 120.688 215.136 119.472 216.752 119.472C218.368 119.472 219.408 120.688 219.408 122.256ZM223.653 120.288C224.245 119.744 225.077 119.472 225.877 119.472C227.045 119.472 227.733 120.032 227.733 121.12V121.344H227.253C225.413 121.344 222.533 121.488 222.533 123.968C222.533 125.424 223.797 126.192 225.317 126.192C226.453 126.192 227.285 125.648 227.781 124.88H227.813C227.813 125.2 227.813 125.664 227.893 126H229.093C229.029 125.616 228.981 125.136 228.981 124.704V121.488C228.981 119.376 228.053 118.32 225.845 118.32C224.757 118.32 223.637 118.688 222.869 119.472L223.653 120.288ZM227.733 122.4V122.88C227.701 124.096 226.965 125.136 225.525 125.136C224.581 125.136 223.877 124.784 223.877 123.84C223.877 122.832 224.901 122.4 226.485 122.4H227.733ZM235.358 118.512H233.15V116.384H231.902V118.512H230.27V119.568H231.902V123.68C231.902 125.232 232.19 126.192 233.966 126.192C234.43 126.192 234.99 126.112 235.422 125.92L235.374 124.784C235.038 124.96 234.638 125.04 234.27 125.04C233.166 125.04 233.15 124.272 233.15 123.312V119.568H235.358V118.512ZM237.575 120.288C238.167 119.744 238.999 119.472 239.799 119.472C240.967 119.472 241.655 120.032 241.655 121.12V121.344H241.175C239.335 121.344 236.455 121.488 236.455 123.968C236.455 125.424 237.719 126.192 239.239 126.192C240.375 126.192 241.207 125.648 241.703 124.88H241.735C241.735 125.2 241.735 125.664 241.815 126H243.015C242.951 125.616 242.903 125.136 242.903 124.704V121.488C242.903 119.376 241.975 118.32 239.767 118.32C238.679 118.32 237.559 118.688 236.791 119.472L237.575 120.288ZM241.655 122.4V122.88C241.623 124.096 240.887 125.136 239.447 125.136C238.503 125.136 237.799 124.784 237.799 123.84C237.799 122.832 238.823 122.4 240.407 122.4H241.655Z" fill="#333333"/>
<rect x="200" y="96" width="200" height="1" fill="#E7EDF9"/>
<path d="M219.408 78H220.656V65.904H219.408V71.6H219.376C218.688 70.8 217.776 70.32 216.688 70.32C214.336 70.32 212.752 71.984 212.752 74.256C212.752 76.496 214.4 78.192 216.496 78.192C217.84 78.192 218.912 77.52 219.376 76.672H219.408V78ZM219.408 74.256C219.408 75.824 218.368 77.04 216.752 77.04C215.136 77.04 214.096 75.824 214.096 74.256C214.096 72.688 215.136 71.472 216.752 71.472C218.368 71.472 219.408 72.688 219.408 74.256ZM223.653 72.288C224.245 71.744 225.077 71.472 225.877 71.472C227.045 71.472 227.733 72.032 227.733 73.12V73.344H227.253C225.413 73.344 222.533 73.488 222.533 75.968C222.533 77.424 223.797 78.192 225.317 78.192C226.453 78.192 227.285 77.648 227.781 76.88H227.813C227.813 77.2 227.813 77.664 227.893 78H229.093C229.029 77.616 228.981 77.136 228.981 76.704V73.488C228.981 71.376 228.053 70.32 225.845 70.32C224.757 70.32 223.637 70.688 222.869 71.472L223.653 72.288ZM227.733 74.4V74.88C227.701 76.096 226.965 77.136 225.525 77.136C224.581 77.136 223.877 76.784 223.877 75.84C223.877 74.832 224.901 74.4 226.485 74.4H227.733ZM235.358 70.512H233.15V68.384H231.902V70.512H230.27V71.568H231.902V75.68C231.902 77.232 232.19 78.192 233.966 78.192C234.43 78.192 234.99 78.112 235.422 77.92L235.374 76.784C235.038 76.96 234.638 77.04 234.27 77.04C233.166 77.04 233.15 76.272 233.15 75.312V71.568H235.358V70.512ZM237.575 72.288C238.167 71.744 238.999 71.472 239.799 71.472C240.967 71.472 241.655 72.032 241.655 73.12V73.344H241.175C239.335 73.344 236.455 73.488 236.455 75.968C236.455 77.424 237.719 78.192 239.239 78.192C240.375 78.192 241.207 77.648 241.703 76.88H241.735C241.735 77.2 241.735 77.664 241.815 78H243.015C242.951 77.616 242.903 77.136 242.903 76.704V73.488C242.903 71.376 241.975 70.32 239.767 70.32C238.679 70.32 237.559 70.688 236.791 71.472L237.575 72.288ZM241.655 74.4V74.88C241.623 76.096 240.887 77.136 239.447 77.136C238.503 77.136 237.799 76.784 237.799 75.84C237.799 74.832 238.823 74.4 240.407 74.4H241.655Z" fill="#333333"/>
<rect x="200" y="48" width="200" height="1" fill="#E7EDF9"/>
<path d="M215.008 17.904H213.088V30H215.008V25.808C215.008 24.784 215.504 23.856 216.768 23.856C218.112 23.856 218.176 25.264 218.176 26.112V30H220.096V25.152C220.096 23.584 219.36 22.128 217.296 22.128C216.112 22.128 215.344 22.752 215.04 23.392H215.008V17.904ZM229.668 26.832V26.304C229.668 23.632 228.212 22.128 226.068 22.128C223.748 22.128 221.892 23.744 221.892 26.16C221.892 28.576 223.748 30.192 226.068 30.192C227.284 30.192 228.42 29.76 229.316 28.656L227.94 27.616C227.46 28.208 226.836 28.656 225.876 28.656C224.804 28.656 223.94 27.968 223.812 26.832H229.668ZM223.812 25.392C223.956 24.288 224.66 23.568 225.796 23.568C226.996 23.568 227.732 24.272 227.748 25.392H223.812ZM236.263 30H237.991V25.584C237.991 24.496 237.991 22.128 234.711 22.128C233.495 22.128 232.295 22.496 231.447 23.36L232.455 24.368C232.967 23.888 233.703 23.568 234.503 23.568C235.527 23.568 236.263 24.064 236.263 25.008V25.216H235.783C233.863 25.216 230.951 25.392 230.951 27.888C230.951 29.408 232.327 30.192 233.751 30.192C234.775 30.192 235.671 29.808 236.215 28.944H236.263V30ZM236.151 26.992C236.151 28.064 235.527 28.752 234.215 28.752C233.591 28.752 232.871 28.448 232.871 27.744C232.871 26.64 234.695 26.56 235.751 26.56H236.151V26.992ZM246.137 30H247.961V17.904H246.041V23.296H245.993C245.593 22.8 244.825 22.128 243.385 22.128C241.193 22.128 239.673 23.888 239.673 26.16C239.673 28.432 241.097 30.192 243.465 30.192C244.537 30.192 245.545 29.776 246.105 28.848H246.137V30ZM241.593 26.16C241.593 24.96 242.441 23.856 243.849 23.856C245.257 23.856 246.105 24.96 246.105 26.16C246.105 27.36 245.257 28.464 243.849 28.464C242.441 28.464 241.593 27.36 241.593 26.16Z" fill="#333333"/>
<rect x="400" y="192" width="200" height="1" fill="#E7EDF9"/>
<path d="M419.408 174H420.656V161.904H419.408V167.6H419.376C418.688 166.8 417.776 166.32 416.688 166.32C414.336 166.32 412.752 167.984 412.752 170.256C412.752 172.496 414.4 174.192 416.496 174.192C417.84 174.192 418.912 173.52 419.376 172.672H419.408V174ZM419.408 170.256C419.408 171.824 418.368 173.04 416.752 173.04C415.136 173.04 414.096 171.824 414.096 170.256C414.096 168.688 415.136 167.472 416.752 167.472C418.368 167.472 419.408 168.688 419.408 170.256ZM423.653 168.288C424.245 167.744 425.077 167.472 425.877 167.472C427.045 167.472 427.733 168.032 427.733 169.12V169.344H427.253C425.413 169.344 422.533 169.488 422.533 171.968C422.533 173.424 423.797 174.192 425.317 174.192C426.453 174.192 427.285 173.648 427.781 172.88H427.813C427.813 173.2 427.813 173.664 427.893 174H429.093C429.029 173.616 428.981 173.136 428.981 172.704V169.488C428.981 167.376 428.053 166.32 425.845 166.32C424.757 166.32 423.637 166.688 422.869 167.472L423.653 168.288ZM427.733 170.4V170.88C427.701 172.096 426.965 173.136 425.525 173.136C424.581 173.136 423.877 172.784 423.877 171.84C423.877 170.832 424.901 170.4 426.485 170.4H427.733ZM435.358 166.512H433.15V164.384H431.902V166.512H430.27V167.568H431.902V171.68C431.902 173.232 432.19 174.192 433.966 174.192C434.43 174.192 434.99 174.112 435.422 173.92L435.374 172.784C435.038 172.96 434.638 173.04 434.27 173.04C433.166 173.04 433.15 172.272 433.15 171.312V167.568H435.358V166.512ZM437.575 168.288C438.167 167.744 438.999 167.472 439.799 167.472C440.967 167.472 441.655 168.032 441.655 169.12V169.344H441.175C439.335 169.344 436.455 169.488 436.455 171.968C436.455 173.424 437.719 174.192 439.239 174.192C440.375 174.192 441.207 173.648 441.703 172.88H441.735C441.735 173.2 441.735 173.664 441.815 174H443.015C442.951 173.616 442.903 173.136 442.903 172.704V169.488C442.903 167.376 441.975 166.32 439.767 166.32C438.679 166.32 437.559 166.688 436.791 167.472L437.575 168.288ZM441.655 170.4V170.88C441.623 172.096 440.887 173.136 439.447 173.136C438.503 173.136 437.799 172.784 437.799 171.84C437.799 170.832 438.823 170.4 440.407 170.4H441.655Z" fill="#333333"/>
<rect x="400" y="144" width="200" height="1" fill="#E7EDF9"/>
<path d="M419.408 126H420.656V113.904H419.408V119.6H419.376C418.688 118.8 417.776 118.32 416.688 118.32C414.336 118.32 412.752 119.984 412.752 122.256C412.752 124.496 414.4 126.192 416.496 126.192C417.84 126.192 418.912 125.52 419.376 124.672H419.408V126ZM419.408 122.256C419.408 123.824 418.368 125.04 416.752 125.04C415.136 125.04 414.096 123.824 414.096 122.256C414.096 120.688 415.136 119.472 416.752 119.472C418.368 119.472 419.408 120.688 419.408 122.256ZM423.653 120.288C424.245 119.744 425.077 119.472 425.877 119.472C427.045 119.472 427.733 120.032 427.733 121.12V121.344H427.253C425.413 121.344 422.533 121.488 422.533 123.968C422.533 125.424 423.797 126.192 425.317 126.192C426.453 126.192 427.285 125.648 427.781 124.88H427.813C427.813 125.2 427.813 125.664 427.893 126H429.093C429.029 125.616 428.981 125.136 428.981 124.704V121.488C428.981 119.376 428.053 118.32 425.845 118.32C424.757 118.32 423.637 118.688 422.869 119.472L423.653 120.288ZM427.733 122.4V122.88C427.701 124.096 426.965 125.136 425.525 125.136C424.581 125.136 423.877 124.784 423.877 123.84C423.877 122.832 424.901 122.4 426.485 122.4H427.733ZM435.358 118.512H433.15V116.384H431.902V118.512H430.27V119.568H431.902V123.68C431.902 125.232 432.19 126.192 433.966 126.192C434.43 126.192 434.99 126.112 435.422 125.92L435.374 124.784C435.038 124.96 434.638 125.04 434.27 125.04C433.166 125.04 433.15 124.272 433.15 123.312V119.568H435.358V118.512ZM437.575 120.288C438.167 119.744 438.999 119.472 439.799 119.472C440.967 119.472 441.655 120.032 441.655 121.12V121.344H441.175C439.335 121.344 436.455 121.488 436.455 123.968C436.455 125.424 437.719 126.192 439.239 126.192C440.375 126.192 441.207 125.648 441.703 124.88H441.735C441.735 125.2 441.735 125.664 441.815 126H443.015C442.951 125.616 442.903 125.136 442.903 124.704V121.488C442.903 119.376 441.975 118.32 439.767 118.32C438.679 118.32 437.559 118.688 436.791 119.472L437.575 120.288ZM441.655 122.4V122.88C441.623 124.096 440.887 125.136 439.447 125.136C438.503 125.136 437.799 124.784 437.799 123.84C437.799 122.832 438.823 122.4 440.407 122.4H441.655Z" fill="#333333"/>
<rect x="400" y="96" width="200" height="1" fill="#E7EDF9"/>
<path d="M419.408 78H420.656V65.904H419.408V71.6H419.376C418.688 70.8 417.776 70.32 416.688 70.32C414.336 70.32 412.752 71.984 412.752 74.256C412.752 76.496 414.4 78.192 416.496 78.192C417.84 78.192 418.912 77.52 419.376 76.672H419.408V78ZM419.408 74.256C419.408 75.824 418.368 77.04 416.752 77.04C415.136 77.04 414.096 75.824 414.096 74.256C414.096 72.688 415.136 71.472 416.752 71.472C418.368 71.472 419.408 72.688 419.408 74.256ZM423.653 72.288C424.245 71.744 425.077 71.472 425.877 71.472C427.045 71.472 427.733 72.032 427.733 73.12V73.344H427.253C425.413 73.344 422.533 73.488 422.533 75.968C422.533 77.424 423.797 78.192 425.317 78.192C426.453 78.192 427.285 77.648 427.781 76.88H427.813C427.813 77.2 427.813 77.664 427.893 78H429.093C429.029 77.616 428.981 77.136 428.981 76.704V73.488C428.981 71.376 428.053 70.32 425.845 70.32C424.757 70.32 423.637 70.688 422.869 71.472L423.653 72.288ZM427.733 74.4V74.88C427.701 76.096 426.965 77.136 425.525 77.136C424.581 77.136 423.877 76.784 423.877 75.84C423.877 74.832 424.901 74.4 426.485 74.4H427.733ZM435.358 70.512H433.15V68.384H431.902V70.512H430.27V71.568H431.902V75.68C431.902 77.232 432.19 78.192 433.966 78.192C434.43 78.192 434.99 78.112 435.422 77.92L435.374 76.784C435.038 76.96 434.638 77.04 434.27 77.04C433.166 77.04 433.15 76.272 433.15 75.312V71.568H435.358V70.512ZM437.575 72.288C438.167 71.744 438.999 71.472 439.799 71.472C440.967 71.472 441.655 72.032 441.655 73.12V73.344H441.175C439.335 73.344 436.455 73.488 436.455 75.968C436.455 77.424 437.719 78.192 439.239 78.192C440.375 78.192 441.207 77.648 441.703 76.88H441.735C441.735 77.2 441.735 77.664 441.815 78H443.015C442.951 77.616 442.903 77.136 442.903 76.704V73.488C442.903 71.376 441.975 70.32 439.767 70.32C438.679 70.32 437.559 70.688 436.791 71.472L437.575 72.288ZM441.655 74.4V74.88C441.623 76.096 440.887 77.136 439.447 77.136C438.503 77.136 437.799 76.784 437.799 75.84C437.799 74.832 438.823 74.4 440.407 74.4H441.655Z" fill="#333333"/>
<rect x="400" y="48" width="200" height="1" fill="#E7EDF9"/>
<path d="M415.008 17.904H413.088V30H415.008V25.808C415.008 24.784 415.504 23.856 416.768 23.856C418.112 23.856 418.176 25.264 418.176 26.112V30H420.096V25.152C420.096 23.584 419.36 22.128 417.296 22.128C416.112 22.128 415.344 22.752 415.04 23.392H415.008V17.904ZM429.668 26.832V26.304C429.668 23.632 428.212 22.128 426.068 22.128C423.748 22.128 421.892 23.744 421.892 26.16C421.892 28.576 423.748 30.192 426.068 30.192C427.284 30.192 428.42 29.76 429.316 28.656L427.94 27.616C427.46 28.208 426.836 28.656 425.876 28.656C424.804 28.656 423.94 27.968 423.812 26.832H429.668ZM423.812 25.392C423.956 24.288 424.66 23.568 425.796 23.568C426.996 23.568 427.732 24.272 427.748 25.392H423.812ZM436.263 30H437.991V25.584C437.991 24.496 437.991 22.128 434.711 22.128C433.495 22.128 432.295 22.496 431.447 23.36L432.455 24.368C432.967 23.888 433.703 23.568 434.503 23.568C435.527 23.568 436.263 24.064 436.263 25.008V25.216H435.783C433.863 25.216 430.951 25.392 430.951 27.888C430.951 29.408 432.327 30.192 433.751 30.192C434.775 30.192 435.671 29.808 436.215 28.944H436.263V30ZM436.151 26.992C436.151 28.064 435.527 28.752 434.215 28.752C433.591 28.752 432.871 28.448 432.871 27.744C432.871 26.64 434.695 26.56 435.751 26.56H436.151V26.992ZM446.137 30H447.961V17.904H446.041V23.296H445.993C445.593 22.8 444.825 22.128 443.385 22.128C441.193 22.128 439.673 23.888 439.673 26.16C439.673 28.432 441.097 30.192 443.465 30.192C444.537 30.192 445.545 29.776 446.105 28.848H446.137V30ZM441.593 26.16C441.593 24.96 442.441 23.856 443.849 23.856C445.257 23.856 446.105 24.96 446.105 26.16C446.105 27.36 445.257 28.464 443.849 28.464C442.441 28.464 441.593 27.36 441.593 26.16Z" fill="#333333"/>
<path d="M169 232.25C168.901 232.251 168.804 232.231 168.713 232.194C168.622 232.156 168.539 232.1 168.47 232.03L165 228.53C164.86 228.389 164.781 228.199 164.781 228C164.781 227.801 164.86 227.611 165 227.47L168.47 224C168.611 223.909 168.779 223.867 168.946 223.882C169.113 223.898 169.27 223.969 169.393 224.084C169.515 224.199 169.595 224.352 169.62 224.518C169.645 224.684 169.613 224.854 169.53 225L166.53 228L169.53 231C169.67 231.141 169.749 231.331 169.749 231.53C169.749 231.729 169.67 231.919 169.53 232.06C169.385 232.191 169.195 232.259 169 232.25V232.25Z" fill="#D2D6DD"/>
<path d="M174.5 232.25C174.307 232.235 174.128 232.145 174 232L170.5 228.5C170.36 228.359 170.281 228.169 170.281 227.97C170.281 227.771 170.36 227.581 170.5 227.44L174 224C174.14 223.933 174.297 223.911 174.45 223.938C174.603 223.964 174.744 224.037 174.854 224.146C174.963 224.256 175.036 224.397 175.062 224.55C175.089 224.703 175.067 224.86 175 225L172 228L175 231C175.123 231.137 175.191 231.315 175.191 231.5C175.191 231.684 175.123 231.862 175 232C174.872 232.145 174.693 232.235 174.5 232.25Z" fill="#D2D6DD"/>
<path d="M197.75 232.25C197.651 232.251 197.554 232.231 197.463 232.194C197.372 232.156 197.289 232.1 197.22 232.03L193.72 228.53C193.58 228.389 193.501 228.199 193.501 228C193.501 227.801 193.58 227.611 193.72 227.47L197.22 224C197.361 223.909 197.529 223.867 197.696 223.882C197.863 223.898 198.02 223.969 198.143 224.084C198.265 224.199 198.345 224.352 198.37 224.518C198.395 224.684 198.363 224.854 198.28 225L195.28 228L198.28 231C198.42 231.141 198.499 231.331 198.499 231.53C198.499 231.729 198.42 231.919 198.28 232.06C198.135 232.191 197.945 232.259 197.75 232.25V232.25Z" fill="#D2D6DD"/>
<rect x="210" y="216" width="24" height="24" rx="12" fill="#E6E6E6"/>
<path d="M223.15 223.088H222.128L219.468 225.244L220.168 226.098L221.946 224.6H221.974V233H223.15V223.088Z" fill="#333333"/>
<path d="M244.81 233H251.194V231.908H246.14V231.88L249.192 229.01C250.186 228.072 251.124 227.19 251.124 225.608C251.124 223.844 249.738 222.92 248.1 222.92C246.504 222.92 245.258 223.774 244.992 225.398L246.266 225.51C246.448 224.558 247.148 223.928 248.142 223.928C249.136 223.928 249.948 224.572 249.948 225.608C249.948 226.574 249.486 227.106 248.548 228.016L244.81 231.656V233Z" fill="#616C7F"/>
<path d="M272.966 228.296H273.33C274.548 228.296 275.836 228.758 275.836 230.214C275.836 231.362 274.94 232.16 273.82 232.16C272.728 232.16 272.154 231.754 271.818 230.69L270.628 231.082C271.132 232.552 272.322 233.168 273.82 233.168C275.584 233.168 277.096 232.188 277.096 230.298C277.096 229.052 276.326 228.016 275.066 227.806V227.778C276.06 227.47 276.76 226.546 276.76 225.51C276.76 223.802 275.388 222.92 273.806 222.92C272.546 222.92 271.412 223.48 270.936 224.6L272.07 225.034C272.42 224.306 273.064 223.928 273.89 223.928C274.884 223.928 275.584 224.558 275.584 225.566C275.584 227.064 274.31 227.288 273.33 227.288H272.966V228.296Z" fill="#616C7F"/>
<path d="M301.976 223.088H300.534L296.6 229.43V230.732H300.8V233H301.976V230.732H303.404V229.64H301.976V223.088ZM300.8 229.64H297.608L300.772 224.46H300.8V229.64Z" fill="#616C7F"/>
<path d="M328.746 223.088H323.552L323.454 228.24C324.042 227.89 324.798 227.624 325.47 227.624C326.856 227.624 327.92 228.422 327.92 229.878C327.92 231.25 326.982 232.16 325.792 232.16C324.952 232.16 324.28 231.656 323.944 230.914L322.768 231.362C323.3 232.454 324.196 233.168 325.694 233.168C327.626 233.168 329.096 231.852 329.096 229.878C329.096 228.016 327.836 226.616 325.932 226.616C325.526 226.616 325.036 226.672 324.658 226.854L324.7 224.18H328.746V223.088Z" fill="#616C7F"/>
<path d="M353.626 223.088H352.254L349.622 227.274C349.09 228.128 348.684 228.912 348.684 230.06C348.684 231.992 350.126 233.168 352.002 233.168C353.878 233.168 355.32 231.992 355.32 230.06C355.32 228.212 354.046 226.952 352.324 226.952C351.918 226.952 351.358 227.036 350.994 227.246L350.966 227.218L353.626 223.088ZM352.002 227.96C353.192 227.96 354.144 228.772 354.144 230.06C354.144 231.348 353.192 232.16 352.002 232.16C350.812 232.16 349.86 231.348 349.86 230.06C349.86 228.772 350.812 227.96 352.002 227.96Z" fill="#616C7F"/>
<path d="M380.83 223.088H374.782V224.18H379.57L375.538 233H376.868L380.83 224.18V223.088Z" fill="#616C7F"/>
<path d="M402.25 232.25C402.149 232.247 402.05 232.223 401.959 232.18C401.868 232.137 401.787 232.076 401.72 232C401.58 231.859 401.501 231.669 401.501 231.47C401.501 231.271 401.58 231.081 401.72 230.94L404.72 227.94L401.72 224.94C401.661 224.796 401.648 224.637 401.683 224.485C401.718 224.334 401.799 224.196 401.916 224.093C402.032 223.99 402.178 223.925 402.333 223.909C402.488 223.892 402.644 223.924 402.78 224L406.28 227.5C406.42 227.641 406.499 227.831 406.499 228.03C406.499 228.229 406.42 228.419 406.28 228.56L402.78 232C402.713 232.076 402.632 232.137 402.541 232.18C402.45 232.223 402.351 232.247 402.25 232.25V232.25Z" fill="#6B778C"/>
<path d="M431 232.25C430.901 232.251 430.804 232.231 430.713 232.194C430.622 232.156 430.539 232.1 430.47 232.03C430.33 231.89 430.251 231.699 430.251 231.5C430.251 231.301 430.33 231.111 430.47 230.97L433.47 227.97L430.47 224.97C430.4 224.825 430.378 224.661 430.409 224.502C430.439 224.344 430.52 224.2 430.639 224.091C430.758 223.982 430.909 223.914 431.07 223.898C431.23 223.882 431.392 223.917 431.53 224L435.03 227.5C435.17 227.641 435.249 227.831 435.249 228.03C435.249 228.229 435.17 228.42 435.03 228.56L431.53 232C431.463 232.076 431.382 232.137 431.291 232.18C431.2 232.223 431.101 232.247 431 232.25V232.25Z" fill="#6B778C"/>
<path d="M425.5 232.25C425.307 232.235 425.128 232.145 425 232C424.877 231.862 424.809 231.684 424.809 231.5C424.809 231.315 424.877 231.137 425 231L428 228L425 225C424.933 224.86 424.911 224.703 424.938 224.55C424.964 224.397 425.037 224.256 425.146 224.146C425.256 224.037 425.397 223.964 425.55 223.938C425.703 223.911 425.86 223.933 426 224L429.5 227.5C429.64 227.641 429.719 227.831 429.719 228.03C429.719 228.229 429.64 228.419 429.5 228.56L426 232C425.872 232.145 425.693 232.235 425.5 232.25V232.25Z" fill="#6B778C"/>
</svg>
