<svg width="725" height="350" viewBox="0 0 725 350" fill="none" xmlns="http://www.w3.org/2000/svg">
<rect width="725" height="350" fill="white"/>
<path d="M39.264 307H43.488C46.208 307 49.488 305.208 49.488 301.336C49.488 297.496 46.704 295.672 43.728 295.672H39.264V307ZM41.28 305.176V297.496H43.12C45.584 297.496 47.376 298.584 47.376 301.336C47.376 304.088 45.312 305.176 42.784 305.176H41.28ZM50.8446 303.16C50.8446 305.576 52.7006 307.192 55.0206 307.192C57.3406 307.192 59.1966 305.576 59.1966 303.16C59.1966 300.744 57.3406 299.128 55.0206 299.128C52.7006 299.128 50.8446 300.744 50.8446 303.16ZM52.7646 303.16C52.7646 301.96 53.6126 300.856 55.0206 300.856C56.4286 300.856 57.2766 301.96 57.2766 303.16C57.2766 304.36 56.4286 305.464 55.0206 305.464C53.6126 305.464 52.7646 304.36 52.7646 303.16ZM60.8583 306.02C60.8583 306.622 61.3903 307.084 61.9783 307.084C62.5943 307.084 63.0983 306.594 63.0983 305.992C63.0983 305.39 62.5803 304.928 61.9783 304.928C61.3623 304.928 60.8583 305.418 60.8583 306.02ZM60.8583 301.274C60.8583 301.876 61.3903 302.338 61.9783 302.338C62.5943 302.338 63.0983 301.848 63.0983 301.246C63.0983 300.644 62.5803 300.182 61.9783 300.182C61.3623 300.182 60.8583 300.672 60.8583 301.274Z" fill="black"/>
<path d="M82.904 295.672H81.56V302.488C81.56 304.312 80.888 306.04 78.632 306.04C76.376 306.04 75.704 304.312 75.704 302.488V295.672H74.36V302.68C74.36 305.144 75.512 307.288 78.632 307.288C81.752 307.288 82.904 305.144 82.904 302.68V295.672ZM84.6176 305.8C85.3536 306.856 86.2656 307.192 87.5296 307.192C89.0176 307.192 90.5216 306.536 90.5216 304.84C90.5216 303.336 89.4016 302.856 88.0736 302.6C87.0816 302.408 86.1856 302.136 86.1856 301.512C86.1856 300.808 86.9696 300.472 87.6576 300.472C88.3936 300.472 88.9216 300.84 89.2416 301.368L90.2816 300.68C89.7696 299.72 88.7936 299.32 87.7376 299.32C86.3456 299.32 84.9376 300.072 84.9376 301.528C84.9376 303.08 86.1536 303.384 87.5776 303.704C88.3776 303.88 89.1776 304.088 89.1776 304.888C89.1776 305.704 88.3136 306.04 87.5296 306.04C86.6496 306.04 86.1056 305.64 85.6096 305.032L84.6176 305.8ZM98.0061 304.904C97.4141 305.656 96.6941 306.04 95.6221 306.04C94.2621 306.04 93.2701 304.936 93.1741 303.64H99.2221V303.24C99.2221 300.76 97.7821 299.32 95.6701 299.32C93.4621 299.32 91.8301 300.936 91.8301 303.256C91.8301 305.432 93.2701 307.192 95.6221 307.192C97.0141 307.192 98.0701 306.776 98.9501 305.64L98.0061 304.904ZM93.1741 302.584C93.3341 301.32 94.2461 300.472 95.6221 300.472C96.9981 300.472 97.8301 301.32 97.8781 302.584H93.1741ZM104.774 305.8C105.51 306.856 106.422 307.192 107.686 307.192C109.174 307.192 110.678 306.536 110.678 304.84C110.678 303.336 109.558 302.856 108.23 302.6C107.238 302.408 106.342 302.136 106.342 301.512C106.342 300.808 107.126 300.472 107.814 300.472C108.55 300.472 109.078 300.84 109.398 301.368L110.438 300.68C109.926 299.72 108.95 299.32 107.894 299.32C106.502 299.32 105.094 300.072 105.094 301.528C105.094 303.08 106.31 303.384 107.734 303.704C108.534 303.88 109.334 304.088 109.334 304.888C109.334 305.704 108.47 306.04 107.686 306.04C106.806 306.04 106.262 305.64 105.766 305.032L104.774 305.8ZM118.738 300.504C117.986 299.688 116.962 299.32 115.858 299.32C113.554 299.32 111.986 300.984 111.986 303.256C111.986 305.56 113.538 307.192 115.858 307.192C116.946 307.192 117.97 306.824 118.69 305.992L117.762 305.112C117.298 305.752 116.674 306.04 115.858 306.04C114.338 306.04 113.33 304.792 113.33 303.256C113.33 301.72 114.178 300.472 115.858 300.472C116.61 300.472 117.218 300.744 117.746 301.384L118.738 300.504ZM120.825 301.288C121.417 300.744 122.249 300.472 123.049 300.472C124.217 300.472 124.905 301.032 124.905 302.12V302.344H124.425C122.585 302.344 119.705 302.488 119.705 304.968C119.705 306.424 120.969 307.192 122.489 307.192C123.625 307.192 124.457 306.648 124.953 305.88H124.985C124.985 306.2 124.985 306.664 125.065 307H126.265C126.201 306.616 126.153 306.136 126.153 305.704V302.488C126.153 300.376 125.225 299.32 123.017 299.32C121.929 299.32 120.809 299.688 120.041 300.472L120.825 301.288ZM124.905 303.4V303.88C124.873 305.096 124.137 306.136 122.697 306.136C121.753 306.136 121.049 305.784 121.049 304.84C121.049 303.832 122.073 303.4 123.657 303.4H124.905ZM128.546 307H129.794V294.904H128.546V307ZM138.022 304.904C137.43 305.656 136.71 306.04 135.638 306.04C134.278 306.04 133.286 304.936 133.19 303.64H139.238V303.24C139.238 300.76 137.798 299.32 135.686 299.32C133.478 299.32 131.846 300.936 131.846 303.256C131.846 305.432 133.286 307.192 135.638 307.192C137.03 307.192 138.086 306.776 138.966 305.64L138.022 304.904ZM133.19 302.584C133.35 301.32 134.262 300.472 135.638 300.472C137.014 300.472 137.846 301.32 137.894 302.584H133.19ZM146.31 301.288C146.902 300.744 147.734 300.472 148.534 300.472C149.702 300.472 150.39 301.032 150.39 302.12V302.344H149.91C148.07 302.344 145.19 302.488 145.19 304.968C145.19 306.424 146.454 307.192 147.974 307.192C149.11 307.192 149.942 306.648 150.438 305.88H150.47C150.47 306.2 150.47 306.664 150.55 307H151.75C151.686 306.616 151.638 306.136 151.638 305.704V302.488C151.638 300.376 150.71 299.32 148.502 299.32C147.414 299.32 146.294 299.688 145.526 300.472L146.31 301.288ZM150.39 303.4V303.88C150.358 305.096 149.622 306.136 148.182 306.136C147.238 306.136 146.534 305.784 146.534 304.84C146.534 303.832 147.558 303.4 149.141 303.4H150.39ZM153.918 307H155.166V303.352C155.166 301.64 155.87 300.472 157.486 300.472C158.654 300.472 159.198 301.256 159.198 302.504V307H160.446V302.376C160.446 300.568 159.566 299.32 157.598 299.32C156.366 299.32 155.438 300.008 155.102 300.744H155.07C155.07 300.328 155.038 299.912 155.038 299.512H153.854C153.854 300.008 153.918 300.6 153.918 301.288V307ZM169.033 307H170.281V294.904H169.033V300.6H169.001C168.313 299.8 167.401 299.32 166.313 299.32C163.961 299.32 162.377 300.984 162.377 303.256C162.377 305.496 164.025 307.192 166.121 307.192C167.465 307.192 168.537 306.52 169.001 305.672H169.033V307ZM169.033 303.256C169.033 304.824 167.993 306.04 166.377 306.04C164.761 306.04 163.721 304.824 163.721 303.256C163.721 301.688 164.761 300.472 166.377 300.472C167.993 300.472 169.033 301.688 169.033 303.256ZM176.211 305.8C176.947 306.856 177.859 307.192 179.123 307.192C180.611 307.192 182.115 306.536 182.115 304.84C182.115 303.336 180.995 302.856 179.667 302.6C178.675 302.408 177.779 302.136 177.779 301.512C177.779 300.808 178.563 300.472 179.251 300.472C179.987 300.472 180.515 300.84 180.835 301.368L181.875 300.68C181.363 299.72 180.387 299.32 179.331 299.32C177.939 299.32 176.531 300.072 176.531 301.528C176.531 303.08 177.747 303.384 179.171 303.704C179.971 303.88 180.771 304.088 180.771 304.888C180.771 305.704 179.907 306.04 179.123 306.04C178.243 306.04 177.699 305.64 177.203 305.032L176.211 305.8ZM183.792 310.648H185.04V305.672H185.072C185.536 306.52 186.608 307.192 187.952 307.192C190.048 307.192 191.696 305.496 191.696 303.256C191.696 300.984 190.112 299.32 187.76 299.32C186.672 299.32 185.76 299.8 185.072 300.6H185.04V299.512H183.792V310.648ZM185.04 303.256C185.04 301.688 186.08 300.472 187.696 300.472C189.312 300.472 190.352 301.688 190.352 303.256C190.352 304.824 189.312 306.04 187.696 306.04C186.08 306.04 185.04 304.824 185.04 303.256ZM194.325 301.288C194.917 300.744 195.749 300.472 196.549 300.472C197.717 300.472 198.405 301.032 198.405 302.12V302.344H197.925C196.085 302.344 193.205 302.488 193.205 304.968C193.205 306.424 194.469 307.192 195.989 307.192C197.125 307.192 197.957 306.648 198.453 305.88H198.485C198.485 306.2 198.485 306.664 198.565 307H199.765C199.701 306.616 199.653 306.136 199.653 305.704V302.488C199.653 300.376 198.725 299.32 196.517 299.32C195.429 299.32 194.309 299.688 193.541 300.472L194.325 301.288ZM198.405 303.4V303.88C198.373 305.096 197.637 306.136 196.197 306.136C195.253 306.136 194.549 305.784 194.549 304.84C194.549 303.832 195.573 303.4 197.157 303.4H198.405ZM208.254 300.504C207.502 299.688 206.478 299.32 205.374 299.32C203.07 299.32 201.502 300.984 201.502 303.256C201.502 305.56 203.054 307.192 205.374 307.192C206.462 307.192 207.486 306.824 208.206 305.992L207.278 305.112C206.814 305.752 206.19 306.04 205.374 306.04C203.854 306.04 202.846 304.792 202.846 303.256C202.846 301.72 203.694 300.472 205.374 300.472C206.126 300.472 206.734 300.744 207.262 301.384L208.254 300.504ZM209.765 307H211.013V299.512H209.765V307ZM209.477 296.584C209.477 297.112 209.861 297.496 210.389 297.496C210.917 297.496 211.301 297.112 211.301 296.584C211.301 296.088 210.901 295.672 210.389 295.672C209.877 295.672 209.477 296.088 209.477 296.584ZM213.497 307H214.745V303.352C214.745 301.64 215.449 300.472 217.065 300.472C218.233 300.472 218.777 301.256 218.777 302.504V307H220.025V302.376C220.025 300.568 219.145 299.32 217.177 299.32C215.945 299.32 215.017 300.008 214.681 300.744H214.649C214.649 300.328 214.617 299.912 214.617 299.512H213.433C213.433 300.008 213.497 300.6 213.497 301.288V307ZM229.859 299.512H228.611V300.792H228.579C228.083 299.8 226.947 299.32 225.939 299.32C223.555 299.32 221.955 300.808 221.955 303.256C221.955 305.464 223.587 307.096 225.939 307.096C226.931 307.096 227.987 306.664 228.579 305.704H228.611V306.664C228.611 308.248 228.019 309.688 225.779 309.688C224.627 309.688 223.779 309.24 222.995 308.392L222.099 309.416C223.155 310.456 224.323 310.84 225.779 310.84C228.403 310.84 229.859 309.368 229.859 306.664V299.512ZM223.299 303.256C223.299 301.688 224.371 300.472 225.939 300.472C227.523 300.472 228.611 301.608 228.611 303.224C228.611 304.664 227.651 305.944 225.939 305.944C224.483 305.944 223.299 304.776 223.299 303.256ZM240.718 299.512H238.51V297.384H237.262V299.512H235.63V300.568H237.262V304.68C237.262 306.232 237.549 307.192 239.326 307.192C239.79 307.192 240.35 307.112 240.782 306.92L240.734 305.784C240.398 305.96 239.998 306.04 239.63 306.04C238.526 306.04 238.51 305.272 238.51 304.312V300.568H240.718V299.512ZM241.815 303.256C241.815 305.592 243.511 307.192 245.815 307.192C248.119 307.192 249.815 305.592 249.815 303.256C249.815 300.92 248.119 299.32 245.815 299.32C243.511 299.32 241.815 300.92 241.815 303.256ZM243.159 303.256C243.159 301.688 244.199 300.472 245.815 300.472C247.431 300.472 248.471 301.688 248.471 303.256C248.471 304.824 247.431 306.04 245.815 306.04C244.199 306.04 243.159 304.824 243.159 303.256ZM256.2 307H257.448V303.352C257.448 301.64 258.12 300.568 259.64 300.568C259.864 300.568 260.104 300.6 260.312 300.664L260.392 299.4C260.216 299.336 260.04 299.32 259.88 299.32C258.648 299.32 257.72 300.008 257.384 300.744H257.352C257.352 300.328 257.32 299.912 257.32 299.512H256.136C256.136 300.008 256.2 300.6 256.2 301.288V307ZM262.513 301.288C263.105 300.744 263.937 300.472 264.737 300.472C265.905 300.472 266.593 301.032 266.593 302.12V302.344H266.113C264.273 302.344 261.393 302.488 261.393 304.968C261.393 306.424 262.657 307.192 264.177 307.192C265.313 307.192 266.145 306.648 266.641 305.88H266.673C266.673 306.2 266.673 306.664 266.753 307H267.953C267.889 306.616 267.841 306.136 267.841 305.704V302.488C267.841 300.376 266.913 299.32 264.705 299.32C263.617 299.32 262.497 299.688 261.729 300.472L262.513 301.288ZM266.593 303.4V303.88C266.561 305.096 265.825 306.136 264.385 306.136C263.441 306.136 262.737 305.784 262.737 304.84C262.737 303.832 263.761 303.4 265.345 303.4H266.593ZM270.122 307H271.37V303.352C271.37 301.64 272.074 300.472 273.69 300.472C274.858 300.472 275.402 301.256 275.402 302.504V307H276.65V302.376C276.65 300.568 275.77 299.32 273.802 299.32C272.57 299.32 271.642 300.008 271.306 300.744H271.274C271.274 300.328 271.242 299.912 271.242 299.512H270.058C270.058 300.008 270.122 300.6 270.122 301.288V307ZM279.012 307H280.26V303.064L283.972 307H285.812L281.828 302.92L285.444 299.512H283.668L280.26 302.808V294.904H279.012V307ZM79.928 328.904C79.336 329.656 78.616 330.04 77.544 330.04C76.184 330.04 75.192 328.936 75.096 327.64H81.144V327.24C81.144 324.76 79.704 323.32 77.592 323.32C75.384 323.32 73.752 324.936 73.752 327.256C73.752 329.432 75.192 331.192 77.544 331.192C78.936 331.192 79.992 330.776 80.872 329.64L79.928 328.904ZM75.096 326.584C75.256 325.32 76.168 324.472 77.544 324.472C78.92 324.472 79.752 325.32 79.8 326.584H75.096ZM83.1866 331H84.4346V318.904H83.1866V331ZM92.6624 328.904C92.0704 329.656 91.3504 330.04 90.2784 330.04C88.9184 330.04 87.9264 328.936 87.8304 327.64H93.8784V327.24C93.8784 324.76 92.4384 323.32 90.3264 323.32C88.1184 323.32 86.4864 324.936 86.4864 327.256C86.4864 329.432 87.9264 331.192 90.2784 331.192C91.6704 331.192 92.7264 330.776 93.6064 329.64L92.6624 328.904ZM87.8304 326.584C87.9904 325.32 88.9024 324.472 90.2784 324.472C91.6544 324.472 92.4864 325.32 92.5344 326.584H87.8304ZM95.809 331H97.057V327.352C97.057 325.64 97.761 324.472 99.377 324.472C100.401 324.472 100.817 325.112 100.817 326.76V331H102.065V326.68C102.065 325.336 102.945 324.472 104.001 324.472C105.457 324.472 105.825 325.48 105.825 326.52V331H107.073V326.456C107.073 324.52 106.369 323.32 104.225 323.32C103.089 323.32 102.401 323.864 101.857 324.744C101.617 324.232 101.105 323.32 99.489 323.32C98.257 323.32 97.329 324.008 96.993 324.744H96.961C96.961 324.328 96.929 323.912 96.929 323.512H95.745C95.745 324.008 95.809 324.6 95.809 325.288V331ZM115.178 328.904C114.586 329.656 113.866 330.04 112.794 330.04C111.434 330.04 110.442 328.936 110.346 327.64H116.394V327.24C116.394 324.76 114.954 323.32 112.842 323.32C110.634 323.32 109.002 324.936 109.002 327.256C109.002 329.432 110.442 331.192 112.794 331.192C114.186 331.192 115.242 330.776 116.122 329.64L115.178 328.904ZM110.346 326.584C110.506 325.32 111.418 324.472 112.794 324.472C114.17 324.472 115.002 325.32 115.05 326.584H110.346ZM118.325 331H119.573V327.352C119.573 325.64 120.277 324.472 121.893 324.472C123.061 324.472 123.605 325.256 123.605 326.504V331H124.853V326.376C124.853 324.568 123.973 323.32 122.005 323.32C120.773 323.32 119.845 324.008 119.509 324.744H119.477C119.477 324.328 119.445 323.912 119.445 323.512H118.261C118.261 324.008 118.325 324.6 118.325 325.288V331ZM131.311 323.512H129.103V321.384H127.855V323.512H126.223V324.568H127.855V328.68C127.855 330.232 128.143 331.192 129.919 331.192C130.383 331.192 130.943 331.112 131.375 330.92L131.327 329.784C130.991 329.96 130.591 330.04 130.223 330.04C129.119 330.04 129.103 329.272 129.103 328.312V324.568H131.311V323.512ZM132.008 329.8C132.744 330.856 133.656 331.192 134.92 331.192C136.408 331.192 137.912 330.536 137.912 328.84C137.912 327.336 136.792 326.856 135.464 326.6C134.472 326.408 133.576 326.136 133.576 325.512C133.576 324.808 134.36 324.472 135.048 324.472C135.784 324.472 136.312 324.84 136.632 325.368L137.672 324.68C137.16 323.72 136.184 323.32 135.128 323.32C133.736 323.32 132.328 324.072 132.328 325.528C132.328 327.08 133.544 327.384 134.968 327.704C135.768 327.88 136.568 328.088 136.568 328.888C136.568 329.704 135.704 330.04 134.92 330.04C134.04 330.04 133.496 329.64 133 329.032L132.008 329.8Z" fill="black"/>
<path d="M410.264 307H414.488C417.208 307 420.488 305.208 420.488 301.336C420.488 297.496 417.704 295.672 414.728 295.672H410.264V307ZM412.28 305.176V297.496H414.12C416.584 297.496 418.376 298.584 418.376 301.336C418.376 304.088 416.312 305.176 413.784 305.176H412.28ZM421.845 303.16C421.845 305.576 423.701 307.192 426.021 307.192C428.341 307.192 430.197 305.576 430.197 303.16C430.197 300.744 428.341 299.128 426.021 299.128C423.701 299.128 421.845 300.744 421.845 303.16ZM423.765 303.16C423.765 301.96 424.613 300.856 426.021 300.856C427.429 300.856 428.277 301.96 428.277 303.16C428.277 304.36 427.429 305.464 426.021 305.464C424.613 305.464 423.765 304.36 423.765 303.16ZM431.994 307H433.914V302.808C433.914 301.784 434.41 300.856 435.674 300.856C437.018 300.856 437.082 302.264 437.082 303.112V307H439.002V302.152C439.002 300.584 438.266 299.128 436.202 299.128C434.922 299.128 434.202 299.784 433.85 300.552H433.818V299.32H431.994V307ZM440.926 299.896H442.638L443.998 295.672H442.046L440.926 299.896ZM446.323 300.952V304.472C446.323 306.28 446.803 307.192 448.835 307.192C449.283 307.192 449.955 307.128 450.355 306.936V305.32C450.115 305.496 449.651 305.56 449.315 305.56C448.467 305.56 448.243 305.08 448.243 304.312V300.952H450.355V299.32H448.243V297.096H446.323V299.32H444.739V300.952H446.323ZM451.718 306.02C451.718 306.622 452.25 307.084 452.838 307.084C453.454 307.084 453.958 306.594 453.958 305.992C453.958 305.39 453.44 304.928 452.838 304.928C452.222 304.928 451.718 305.418 451.718 306.02ZM451.718 301.274C451.718 301.876 452.25 302.338 452.838 302.338C453.454 302.338 453.958 301.848 453.958 301.246C453.958 300.644 453.44 300.182 452.838 300.182C452.222 300.182 451.718 300.672 451.718 301.274Z" fill="black"/>
<path d="M474.04 300.664H470.088V301.912H472.696V305.384C471.864 305.8 470.792 306.04 469.88 306.04C467.096 306.04 465.192 304.04 465.192 301.336C465.192 298.584 467.16 296.632 469.752 296.632C470.904 296.632 472.072 297.096 472.84 297.928L473.848 296.872C472.776 295.784 471.336 295.384 469.848 295.384C466.456 295.384 463.752 297.768 463.752 301.336C463.752 304.888 466.28 307.288 469.8 307.288C471.272 307.288 472.744 306.952 474.04 306.232V300.664ZM476.749 307H477.997V299.512H476.749V307ZM476.461 296.584C476.461 297.112 476.845 297.496 477.373 297.496C477.901 297.496 478.285 297.112 478.285 296.584C478.285 296.088 477.885 295.672 477.373 295.672C476.861 295.672 476.461 296.088 476.461 296.584ZM486.849 299.512H485.505L483.281 305.384H483.249L480.913 299.512H479.457L482.513 307H483.889L486.849 299.512ZM493.944 304.904C493.352 305.656 492.632 306.04 491.56 306.04C490.2 306.04 489.208 304.936 489.112 303.64H495.16V303.24C495.16 300.76 493.72 299.32 491.608 299.32C489.4 299.32 487.768 300.936 487.768 303.256C487.768 305.432 489.208 307.192 491.56 307.192C492.952 307.192 494.008 306.776 494.888 305.64L493.944 304.904ZM489.112 302.584C489.272 301.32 490.184 300.472 491.56 300.472C492.936 300.472 493.768 301.32 493.816 302.584H489.112ZM507.287 304.904C506.695 305.656 505.975 306.04 504.903 306.04C503.543 306.04 502.551 304.936 502.455 303.64H508.503V303.24C508.503 300.76 507.063 299.32 504.951 299.32C502.743 299.32 501.111 300.936 501.111 303.256C501.111 305.432 502.551 307.192 504.903 307.192C506.295 307.192 507.351 306.776 508.231 305.64L507.287 304.904ZM502.455 302.584C502.615 301.32 503.527 300.472 504.903 300.472C506.279 300.472 507.111 301.32 507.159 302.584H502.455ZM516.802 299.512H515.458L513.234 305.384H513.202L510.866 299.512H509.41L512.466 307H513.842L516.802 299.512ZM523.897 304.904C523.305 305.656 522.585 306.04 521.513 306.04C520.153 306.04 519.161 304.936 519.065 303.64H525.113V303.24C525.113 300.76 523.673 299.32 521.561 299.32C519.353 299.32 517.721 300.936 517.721 303.256C517.721 305.432 519.161 307.192 521.513 307.192C522.905 307.192 523.961 306.776 524.841 305.64L523.897 304.904ZM519.065 302.584C519.225 301.32 520.137 300.472 521.513 300.472C522.889 300.472 523.721 301.32 523.769 302.584H519.065ZM527.043 307H528.291V303.352C528.291 301.64 528.963 300.568 530.483 300.568C530.707 300.568 530.947 300.6 531.155 300.664L531.235 299.4C531.059 299.336 530.883 299.32 530.723 299.32C529.491 299.32 528.563 300.008 528.227 300.744H528.195C528.195 300.328 528.163 299.912 528.163 299.512H526.979C526.979 300.008 527.043 300.6 527.043 301.288V307ZM539.036 299.512H537.676L535.452 305.384H535.42L533.1 299.512H531.644L534.748 307.048L534.236 308.456C533.964 309.192 533.66 309.688 532.844 309.688C532.492 309.688 532.22 309.656 531.964 309.56L531.804 310.648C532.14 310.808 532.572 310.84 532.924 310.84C534.428 310.84 534.924 309.976 535.42 308.712L539.036 299.512ZM550.584 304.904C549.992 305.656 549.272 306.04 548.2 306.04C546.84 306.04 545.848 304.936 545.752 303.64H551.8V303.24C551.8 300.76 550.36 299.32 548.248 299.32C546.04 299.32 544.408 300.936 544.408 303.256C544.408 305.432 545.848 307.192 548.2 307.192C549.592 307.192 550.648 306.776 551.528 305.64L550.584 304.904ZM545.752 302.584C545.912 301.32 546.824 300.472 548.2 300.472C549.576 300.472 550.408 301.32 550.456 302.584H545.752ZM553.843 307H555.091V294.904H553.843V307ZM563.319 304.904C562.727 305.656 562.007 306.04 560.935 306.04C559.575 306.04 558.583 304.936 558.487 303.64H564.535V303.24C564.535 300.76 563.095 299.32 560.983 299.32C558.775 299.32 557.143 300.936 557.143 303.256C557.143 305.432 558.583 307.192 560.935 307.192C562.327 307.192 563.383 306.776 564.263 305.64L563.319 304.904ZM558.487 302.584C558.647 301.32 559.559 300.472 560.935 300.472C562.311 300.472 563.143 301.32 563.191 302.584H558.487ZM566.465 307H567.713V303.352C567.713 301.64 568.417 300.472 570.033 300.472C571.057 300.472 571.473 301.112 571.473 302.76V307H572.721V302.68C572.721 301.336 573.601 300.472 574.657 300.472C576.113 300.472 576.481 301.48 576.481 302.52V307H577.729V302.456C577.729 300.52 577.025 299.32 574.881 299.32C573.745 299.32 573.057 299.864 572.513 300.744C572.273 300.232 571.761 299.32 570.145 299.32C568.913 299.32 567.985 300.008 567.649 300.744H567.617C567.617 300.328 567.585 299.912 567.585 299.512H566.401C566.401 300.008 566.465 300.6 566.465 301.288V307ZM585.834 304.904C585.242 305.656 584.522 306.04 583.45 306.04C582.09 306.04 581.098 304.936 581.002 303.64H587.05V303.24C587.05 300.76 585.61 299.32 583.498 299.32C581.29 299.32 579.658 300.936 579.658 303.256C579.658 305.432 581.098 307.192 583.45 307.192C584.842 307.192 585.898 306.776 586.778 305.64L585.834 304.904ZM581.002 302.584C581.162 301.32 582.074 300.472 583.45 300.472C584.826 300.472 585.658 301.32 585.706 302.584H581.002ZM588.981 307H590.229V303.352C590.229 301.64 590.933 300.472 592.549 300.472C593.717 300.472 594.261 301.256 594.261 302.504V307H595.509V302.376C595.509 300.568 594.629 299.32 592.661 299.32C591.429 299.32 590.501 300.008 590.165 300.744H590.133C590.133 300.328 590.101 299.912 590.101 299.512H588.917C588.917 300.008 588.981 300.6 588.981 301.288V307ZM601.968 299.512H599.76V297.384H598.512V299.512H596.88V300.568H598.512V304.68C598.512 306.232 598.799 307.192 600.576 307.192C601.04 307.192 601.6 307.112 602.032 306.92L601.984 305.784C601.648 305.96 601.248 306.04 600.88 306.04C599.776 306.04 599.76 305.272 599.76 304.312V300.568H601.968V299.512ZM602.665 305.8C603.401 306.856 604.312 307.192 605.577 307.192C607.065 307.192 608.569 306.536 608.569 304.84C608.569 303.336 607.449 302.856 606.121 302.6C605.129 302.408 604.233 302.136 604.233 301.512C604.233 300.808 605.017 300.472 605.705 300.472C606.441 300.472 606.969 300.84 607.289 301.368L608.329 300.68C607.817 299.72 606.841 299.32 605.785 299.32C604.393 299.32 602.985 300.072 602.985 301.528C602.985 303.08 604.201 303.384 605.625 303.704C606.424 303.88 607.225 304.088 607.225 304.888C607.225 305.704 606.361 306.04 605.577 306.04C604.697 306.04 604.153 305.64 603.657 305.032L602.665 305.8ZM618.858 299.512H616.65V297.384H615.402V299.512H613.77V300.568H615.402V304.68C615.402 306.232 615.69 307.192 617.466 307.192C617.93 307.192 618.49 307.112 618.922 306.92L618.874 305.784C618.538 305.96 618.138 306.04 617.77 306.04C616.666 306.04 616.65 305.272 616.65 304.312V300.568H618.858V299.512ZM620.387 307H621.635V303.352C621.635 301.64 622.339 300.472 623.955 300.472C625.123 300.472 625.667 301.256 625.667 302.504V307H626.915V302.376C626.915 300.568 626.035 299.32 624.067 299.32C622.899 299.32 622.003 299.96 621.667 300.552H621.635V294.904H620.387V307ZM635.022 304.904C634.43 305.656 633.71 306.04 632.638 306.04C631.278 306.04 630.286 304.936 630.19 303.64H636.238V303.24C636.238 300.76 634.798 299.32 632.686 299.32C630.478 299.32 628.846 300.936 628.846 303.256C628.846 305.432 630.286 307.192 632.638 307.192C634.03 307.192 635.086 306.776 635.966 305.64L635.022 304.904ZM630.19 302.584C630.35 301.32 631.262 300.472 632.638 300.472C634.014 300.472 634.846 301.32 634.894 302.584H630.19ZM641.79 305.8C642.526 306.856 643.438 307.192 644.702 307.192C646.19 307.192 647.694 306.536 647.694 304.84C647.694 303.336 646.574 302.856 645.246 302.6C644.254 302.408 643.358 302.136 643.358 301.512C643.358 300.808 644.142 300.472 644.83 300.472C645.566 300.472 646.094 300.84 646.414 301.368L647.454 300.68C646.942 299.72 645.966 299.32 644.91 299.32C643.518 299.32 642.11 300.072 642.11 301.528C642.11 303.08 643.326 303.384 644.75 303.704C645.549 303.88 646.35 304.088 646.35 304.888C646.35 305.704 645.486 306.04 644.702 306.04C643.822 306.04 643.278 305.64 642.782 305.032L641.79 305.8ZM650.122 301.288C650.714 300.744 651.546 300.472 652.346 300.472C653.514 300.472 654.202 301.032 654.202 302.12V302.344H653.722C651.882 302.344 649.002 302.488 649.002 304.968C649.002 306.424 650.266 307.192 651.786 307.192C652.922 307.192 653.754 306.648 654.25 305.88H654.282C654.282 306.2 654.282 306.664 654.362 307H655.562C655.498 306.616 655.45 306.136 655.45 305.704V302.488C655.45 300.376 654.522 299.32 652.314 299.32C651.226 299.32 650.106 299.688 649.338 300.472L650.122 301.288ZM654.202 303.4V303.88C654.17 305.096 653.434 306.136 651.994 306.136C651.05 306.136 650.346 305.784 650.346 304.84C650.346 303.832 651.37 303.4 652.954 303.4H654.202ZM657.731 307H658.979V303.352C658.979 301.64 659.683 300.472 661.299 300.472C662.323 300.472 662.739 301.112 662.739 302.76V307H663.987V302.68C663.987 301.336 664.867 300.472 665.923 300.472C667.379 300.472 667.747 301.48 667.747 302.52V307H668.995V302.456C668.995 300.52 668.291 299.32 666.147 299.32C665.011 299.32 664.323 299.864 663.779 300.744C663.539 300.232 663.027 299.32 661.411 299.32C660.179 299.32 659.251 300.008 658.915 300.744H658.883C658.883 300.328 658.851 299.912 658.851 299.512H657.667C657.667 300.008 657.731 300.6 657.731 301.288V307ZM677.1 304.904C676.508 305.656 675.788 306.04 674.716 306.04C673.356 306.04 672.364 304.936 672.268 303.64H678.316V303.24C678.316 300.76 676.876 299.32 674.764 299.32C672.556 299.32 670.924 300.936 670.924 303.256C670.924 305.432 672.364 307.192 674.716 307.192C676.108 307.192 677.164 306.776 678.044 305.64L677.1 304.904ZM672.268 302.584C672.428 301.32 673.34 300.472 674.716 300.472C676.092 300.472 676.924 301.32 676.972 302.584H672.268ZM470.552 323.512H469.208L466.984 329.384H466.952L464.616 323.512H463.16L466.216 331H467.592L470.552 323.512ZM472.015 331H473.263V323.512H472.015V331ZM471.727 320.584C471.727 321.112 472.111 321.496 472.639 321.496C473.167 321.496 473.551 321.112 473.551 320.584C473.551 320.088 473.151 319.672 472.639 319.672C472.127 319.672 471.727 320.088 471.727 320.584ZM474.915 329.8C475.651 330.856 476.562 331.192 477.827 331.192C479.315 331.192 480.819 330.536 480.819 328.84C480.819 327.336 479.699 326.856 478.371 326.6C477.379 326.408 476.483 326.136 476.483 325.512C476.483 324.808 477.267 324.472 477.955 324.472C478.691 324.472 479.219 324.84 479.539 325.368L480.579 324.68C480.067 323.72 479.091 323.32 478.035 323.32C476.643 323.32 475.235 324.072 475.235 325.528C475.235 327.08 476.451 327.384 477.875 327.704C478.674 327.88 479.475 328.088 479.475 328.888C479.475 329.704 478.611 330.04 477.827 330.04C476.947 330.04 476.403 329.64 475.907 329.032L474.915 329.8ZM489.087 323.512H487.839V327.16C487.839 328.872 487.135 330.04 485.519 330.04C484.351 330.04 483.807 329.256 483.807 328.008V323.512H482.559V328.136C482.559 329.944 483.439 331.192 485.407 331.192C486.639 331.192 487.567 330.504 487.903 329.768H487.935C487.935 330.184 487.967 330.6 487.967 331H489.151C489.151 330.504 489.087 329.912 489.087 329.224V323.512ZM492.138 325.288C492.73 324.744 493.562 324.472 494.362 324.472C495.53 324.472 496.218 325.032 496.218 326.12V326.344H495.738C493.898 326.344 491.018 326.488 491.018 328.968C491.018 330.424 492.282 331.192 493.802 331.192C494.938 331.192 495.77 330.648 496.266 329.88H496.298C496.298 330.2 496.298 330.664 496.378 331H497.578C497.514 330.616 497.466 330.136 497.466 329.704V326.488C497.466 324.376 496.538 323.32 494.33 323.32C493.242 323.32 492.122 323.688 491.354 324.472L492.138 325.288ZM496.218 327.4V327.88C496.186 329.096 495.45 330.136 494.01 330.136C493.066 330.136 492.362 329.784 492.362 328.84C492.362 327.832 493.386 327.4 494.97 327.4H496.218ZM499.859 331H501.107V318.904H499.859V331ZM508.155 331H509.403V323.512H508.155V331ZM507.867 320.584C507.867 321.112 508.251 321.496 508.779 321.496C509.307 321.496 509.691 321.112 509.691 320.584C509.691 320.088 509.291 319.672 508.779 319.672C508.267 319.672 507.867 320.088 507.867 320.584ZM511.887 331H513.135V327.352C513.135 325.64 513.839 324.472 515.455 324.472C516.479 324.472 516.895 325.112 516.895 326.76V331H518.143V326.68C518.143 325.336 519.023 324.472 520.079 324.472C521.535 324.472 521.903 325.48 521.903 326.52V331H523.151V326.456C523.151 324.52 522.447 323.32 520.303 323.32C519.167 323.32 518.479 323.864 517.935 324.744C517.695 324.232 517.183 323.32 515.567 323.32C514.335 323.32 513.407 324.008 513.071 324.744H513.039C513.039 324.328 513.007 323.912 513.007 323.512H511.823C511.823 324.008 511.887 324.6 511.887 325.288V331ZM525.448 334.648H526.696V329.672H526.728C527.192 330.52 528.264 331.192 529.608 331.192C531.704 331.192 533.352 329.496 533.352 327.256C533.352 324.984 531.768 323.32 529.416 323.32C528.328 323.32 527.416 323.8 526.728 324.6H526.696V323.512H525.448V334.648ZM526.696 327.256C526.696 325.688 527.736 324.472 529.352 324.472C530.968 324.472 532.008 325.688 532.008 327.256C532.008 328.824 530.968 330.04 529.352 330.04C527.736 330.04 526.696 328.824 526.696 327.256ZM534.861 327.256C534.861 329.592 536.557 331.192 538.861 331.192C541.165 331.192 542.861 329.592 542.861 327.256C542.861 324.92 541.165 323.32 538.861 323.32C536.557 323.32 534.861 324.92 534.861 327.256ZM536.205 327.256C536.205 325.688 537.245 324.472 538.861 324.472C540.477 324.472 541.517 325.688 541.517 327.256C541.517 328.824 540.477 330.04 538.861 330.04C537.245 330.04 536.205 328.824 536.205 327.256ZM544.793 331H546.041V327.352C546.041 325.64 546.713 324.568 548.233 324.568C548.457 324.568 548.697 324.6 548.905 324.664L548.985 323.4C548.809 323.336 548.633 323.32 548.473 323.32C547.241 323.32 546.313 324.008 545.977 324.744H545.945C545.945 324.328 545.913 323.912 545.913 323.512H544.729C544.729 324.008 544.793 324.6 544.793 325.288V331ZM554.514 323.512H552.306V321.384H551.058V323.512H549.426V324.568H551.058V328.68C551.058 330.232 551.346 331.192 553.122 331.192C553.586 331.192 554.146 331.112 554.578 330.92L554.53 329.784C554.194 329.96 553.794 330.04 553.426 330.04C552.322 330.04 552.306 329.272 552.306 328.312V324.568H554.514V323.512ZM556.731 325.288C557.323 324.744 558.155 324.472 558.955 324.472C560.123 324.472 560.811 325.032 560.811 326.12V326.344H560.331C558.491 326.344 555.611 326.488 555.611 328.968C555.611 330.424 556.875 331.192 558.395 331.192C559.531 331.192 560.363 330.648 560.859 329.88H560.891C560.891 330.2 560.891 330.664 560.971 331H562.171C562.107 330.616 562.059 330.136 562.059 329.704V326.488C562.059 324.376 561.131 323.32 558.923 323.32C557.835 323.32 556.715 323.688 555.947 324.472L556.731 325.288ZM560.811 327.4V327.88C560.779 329.096 560.043 330.136 558.603 330.136C557.659 330.136 556.955 329.784 556.955 328.84C556.955 327.832 557.979 327.4 559.563 327.4H560.811ZM564.34 331H565.588V327.352C565.588 325.64 566.292 324.472 567.908 324.472C569.076 324.472 569.62 325.256 569.62 326.504V331H570.868V326.376C570.868 324.568 569.988 323.32 568.02 323.32C566.788 323.32 565.86 324.008 565.524 324.744H565.492C565.492 324.328 565.46 323.912 565.46 323.512H564.276C564.276 324.008 564.34 324.6 564.34 325.288V331ZM579.551 324.504C578.799 323.688 577.775 323.32 576.671 323.32C574.367 323.32 572.799 324.984 572.799 327.256C572.799 329.56 574.351 331.192 576.671 331.192C577.759 331.192 578.783 330.824 579.503 329.992L578.575 329.112C578.111 329.752 577.487 330.04 576.671 330.04C575.151 330.04 574.143 328.792 574.143 327.256C574.143 325.72 574.991 324.472 576.671 324.472C577.423 324.472 578.031 324.744 578.559 325.384L579.551 324.504ZM586.694 328.904C586.102 329.656 585.382 330.04 584.31 330.04C582.95 330.04 581.958 328.936 581.862 327.64H587.91V327.24C587.91 324.76 586.47 323.32 584.358 323.32C582.15 323.32 580.518 324.936 580.518 327.256C580.518 329.432 581.958 331.192 584.31 331.192C585.702 331.192 586.758 330.776 587.638 329.64L586.694 328.904ZM581.862 326.584C582.022 325.32 582.934 324.472 584.31 324.472C585.686 324.472 586.518 325.32 586.566 326.584H581.862Z" fill="black"/>
<rect x="34" y="14" width="286" height="251" fill="white"/>
<rect width="250" height="227" transform="translate(52 26)" fill="white"/>
<path d="M72.93 83.57C72.41 82.96 71.74 82.74 70.95 82.74C69.71 82.74 68.54 83.42 68.54 84.78C68.54 85.96 69.3 86.4 70.3 86.73C71.56 87.15 72.15 87.3 72.15 88.17C72.15 88.98 71.33 89.4 70.61 89.4C70 89.4 69.4 89.13 69.1 88.61L68.38 89.2C68.86 89.91 69.74 90.18 70.56 90.18C71.84 90.18 73.05 89.52 73.05 88.11C73.05 86.72 72.03 86.36 70.93 86.01C69.8 85.65 69.44 85.36 69.44 84.71C69.44 83.87 70.21 83.52 70.95 83.52C71.46 83.52 71.96 83.72 72.24 84.17L72.93 83.57ZM76.8566 85.32H75.4766V83.99H74.6966V85.32H73.6766V85.98H74.6966V88.55C74.6966 89.52 74.8766 90.12 75.9866 90.12C76.2766 90.12 76.6266 90.07 76.8966 89.95L76.8666 89.24C76.6566 89.35 76.4066 89.4 76.1766 89.4C75.4866 89.4 75.4766 88.92 75.4766 88.32V85.98H76.8566V85.32ZM78.2423 86.43C78.6123 86.09 79.1323 85.92 79.6323 85.92C80.3623 85.92 80.7923 86.27 80.7923 86.95V87.09H80.4923C79.3423 87.09 77.5423 87.18 77.5423 88.73C77.5423 89.64 78.3323 90.12 79.2823 90.12C79.9923 90.12 80.5123 89.78 80.8223 89.3H80.8423C80.8423 89.5 80.8423 89.79 80.8923 90H81.6423C81.6023 89.76 81.5723 89.46 81.5723 89.19V87.18C81.5723 85.86 80.9923 85.2 79.6123 85.2C78.9323 85.2 78.2323 85.43 77.7523 85.92L78.2423 86.43ZM80.7923 87.75V88.05C80.7723 88.81 80.3123 89.46 79.4123 89.46C78.8223 89.46 78.3823 89.24 78.3823 88.65C78.3823 88.02 79.0223 87.75 80.0123 87.75H80.7923ZM85.5578 85.32H84.1778V83.99H83.3978V85.32H82.3778V85.98H83.3978V88.55C83.3978 89.52 83.5778 90.12 84.6878 90.12C84.9778 90.12 85.3278 90.07 85.5978 89.95L85.5678 89.24C85.3578 89.35 85.1078 89.4 84.8778 89.4C84.1878 89.4 84.1778 88.92 84.1778 88.32V85.98H85.5578V85.32ZM90.1034 88.69C89.7334 89.16 89.2834 89.4 88.6134 89.4C87.7634 89.4 87.1434 88.71 87.0834 87.9H90.8634V87.65C90.8634 86.1 89.9634 85.2 88.6434 85.2C87.2634 85.2 86.2434 86.21 86.2434 87.66C86.2434 89.02 87.1434 90.12 88.6134 90.12C89.4834 90.12 90.1434 89.86 90.6934 89.15L90.1034 88.69ZM87.0834 87.24C87.1834 86.45 87.7534 85.92 88.6134 85.92C89.4734 85.92 89.9934 86.45 90.0234 87.24H87.0834ZM95.0001 82.74L94.3701 82.5L91.3601 90.18L91.9901 90.43L95.0001 82.74ZM97.6513 90H98.4613L101.231 82.92H100.341L98.0913 88.74H98.0713L95.8913 82.92H94.9412L97.6513 90ZM101.955 90H102.735V85.32H101.955V90ZM101.775 83.49C101.775 83.82 102.015 84.06 102.345 84.06C102.675 84.06 102.915 83.82 102.915 83.49C102.915 83.18 102.665 82.92 102.345 82.92C102.025 82.92 101.775 83.18 101.775 83.49ZM108.237 85.94C107.767 85.43 107.127 85.2 106.437 85.2C104.997 85.2 104.017 86.24 104.017 87.66C104.017 89.1 104.987 90.12 106.437 90.12C107.117 90.12 107.757 89.89 108.207 89.37L107.627 88.82C107.337 89.22 106.947 89.4 106.437 89.4C105.487 89.4 104.857 88.62 104.857 87.66C104.857 86.7 105.387 85.92 106.437 85.92C106.907 85.92 107.287 86.09 107.617 86.49L108.237 85.94ZM111.671 85.32H110.291V83.99H109.511V85.32H108.491V85.98H109.511V88.55C109.511 89.52 109.691 90.12 110.801 90.12C111.091 90.12 111.441 90.07 111.711 89.95L111.681 89.24C111.471 89.35 111.221 89.4 110.991 89.4C110.301 89.4 110.291 88.92 110.291 88.32V85.98H111.671V85.32ZM112.357 87.66C112.357 89.12 113.417 90.12 114.857 90.12C116.297 90.12 117.357 89.12 117.357 87.66C117.357 86.2 116.297 85.2 114.857 85.2C113.417 85.2 112.357 86.2 112.357 87.66ZM113.197 87.66C113.197 86.68 113.847 85.92 114.857 85.92C115.867 85.92 116.517 86.68 116.517 87.66C116.517 88.64 115.867 89.4 114.857 89.4C113.847 89.4 113.197 88.64 113.197 87.66ZM118.564 90H119.344V87.72C119.344 86.65 119.764 85.98 120.714 85.98C120.854 85.98 121.004 86 121.134 86.04L121.184 85.25C121.074 85.21 120.964 85.2 120.864 85.2C120.094 85.2 119.514 85.63 119.304 86.09H119.284C119.284 85.83 119.264 85.57 119.264 85.32H118.524C118.524 85.63 118.564 86 118.564 86.43V90ZM122.15 90H122.93V85.32H122.15V90ZM121.97 83.49C121.97 83.82 122.21 84.06 122.54 84.06C122.87 84.06 123.11 83.82 123.11 83.49C123.11 83.18 122.86 82.92 122.54 82.92C122.22 82.92 121.97 83.18 121.97 83.49ZM124.912 86.43C125.282 86.09 125.802 85.92 126.302 85.92C127.032 85.92 127.462 86.27 127.462 86.95V87.09H127.162C126.012 87.09 124.212 87.18 124.212 88.73C124.212 89.64 125.002 90.12 125.952 90.12C126.662 90.12 127.182 89.78 127.492 89.3H127.512C127.512 89.5 127.512 89.79 127.562 90H128.312C128.272 89.76 128.242 89.46 128.242 89.19V87.18C128.242 85.86 127.662 85.2 126.282 85.2C125.602 85.2 124.902 85.43 124.422 85.92L124.912 86.43ZM127.462 87.75V88.05C127.442 88.81 126.982 89.46 126.082 89.46C125.492 89.46 125.052 89.24 125.052 88.65C125.052 88.02 125.692 87.75 126.682 87.75H127.462Z" fill="#616C7F"/>
<rect width="218" height="4" transform="translate(68 93)" fill="#ECF7E3"/>
<path d="M71.408 113H72.88L75.696 103.4H75.728L78.528 113H79.984L83.312 101.672H81.904L79.28 111.08H79.248L76.48 101.672H74.976L72.192 111.08H72.16L69.584 101.672H68.096L71.408 113ZM84.7023 113H85.9503V105.512H84.7023V113ZM84.4143 102.584C84.4143 103.112 84.7983 103.496 85.3263 103.496C85.8543 103.496 86.2383 103.112 86.2383 102.584C86.2383 102.088 85.8383 101.672 85.3263 101.672C84.8143 101.672 84.4143 102.088 84.4143 102.584ZM88.434 113H89.682V109.352C89.682 107.64 90.386 106.472 92.002 106.472C93.17 106.472 93.714 107.256 93.714 108.504V113H94.962V108.376C94.962 106.568 94.082 105.32 92.114 105.32C90.882 105.32 89.954 106.008 89.618 106.744H89.586C89.586 106.328 89.554 105.912 89.554 105.512H88.37C88.37 106.008 88.434 106.6 88.434 107.288V113ZM103.549 113H104.797V100.904H103.549V106.6H103.517C102.829 105.8 101.917 105.32 100.829 105.32C98.4766 105.32 96.8926 106.984 96.8926 109.256C96.8926 111.496 98.5406 113.192 100.637 113.192C101.981 113.192 103.053 112.52 103.517 111.672H103.549V113ZM103.549 109.256C103.549 110.824 102.509 112.04 100.893 112.04C99.2766 112.04 98.2366 110.824 98.2366 109.256C98.2366 107.688 99.2766 106.472 100.893 106.472C102.509 106.472 103.549 107.688 103.549 109.256ZM112.247 107.288C112.839 106.744 113.671 106.472 114.471 106.472C115.639 106.472 116.327 107.032 116.327 108.12V108.344H115.847C114.007 108.344 111.127 108.488 111.127 110.968C111.127 112.424 112.391 113.192 113.911 113.192C115.047 113.192 115.879 112.648 116.375 111.88H116.407C116.407 112.2 116.407 112.664 116.487 113H117.687C117.623 112.616 117.575 112.136 117.575 111.704V108.488C117.575 106.376 116.647 105.32 114.439 105.32C113.351 105.32 112.231 105.688 111.463 106.472L112.247 107.288ZM116.327 109.4V109.88C116.295 111.096 115.559 112.136 114.119 112.136C113.175 112.136 112.471 111.784 112.471 110.84C112.471 109.832 113.495 109.4 115.079 109.4H116.327ZM119.856 113H121.104V109.352C121.104 107.64 121.808 106.472 123.424 106.472C124.592 106.472 125.136 107.256 125.136 108.504V113H126.384V108.376C126.384 106.568 125.504 105.32 123.536 105.32C122.304 105.32 121.376 106.008 121.04 106.744H121.008C121.008 106.328 120.976 105.912 120.976 105.512H119.792C119.792 106.008 119.856 106.6 119.856 107.288V113ZM134.971 113H136.219V100.904H134.971V106.6H134.939C134.251 105.8 133.339 105.32 132.251 105.32C129.899 105.32 128.315 106.984 128.315 109.256C128.315 111.496 129.963 113.192 132.059 113.192C133.403 113.192 134.475 112.52 134.939 111.672H134.971V113ZM134.971 109.256C134.971 110.824 133.931 112.04 132.315 112.04C130.699 112.04 129.659 110.824 129.659 109.256C129.659 107.688 130.699 106.472 132.315 106.472C133.931 106.472 134.971 107.688 134.971 109.256ZM143.621 113H144.869V106.568H146.693V105.512H144.869V104.104C144.869 102.808 144.917 101.864 146.213 101.864C146.501 101.864 146.789 101.928 147.061 102.024L147.237 100.904C146.997 100.776 146.597 100.712 146.277 100.712C144.261 100.712 143.621 102.008 143.621 103.832V105.512H141.989V106.568H143.621V113ZM148.716 107.288C149.308 106.744 150.14 106.472 150.94 106.472C152.108 106.472 152.796 107.032 152.796 108.12V108.344H152.316C150.476 108.344 147.596 108.488 147.596 110.968C147.596 112.424 148.86 113.192 150.38 113.192C151.516 113.192 152.348 112.648 152.844 111.88H152.876C152.876 112.2 152.876 112.664 152.956 113H154.156C154.092 112.616 154.044 112.136 154.044 111.704V108.488C154.044 106.376 153.116 105.32 150.908 105.32C149.82 105.32 148.7 105.688 147.932 106.472L148.716 107.288ZM152.796 109.4V109.88C152.764 111.096 152.028 112.136 150.588 112.136C149.644 112.136 148.94 111.784 148.94 110.84C148.94 109.832 149.964 109.4 151.548 109.4H152.796ZM156.325 113H157.573V109.352C157.573 107.64 158.245 106.568 159.765 106.568C159.989 106.568 160.229 106.6 160.437 106.664L160.517 105.4C160.341 105.336 160.165 105.32 160.005 105.32C158.773 105.32 157.845 106.008 157.509 106.744H157.477C157.477 106.328 157.445 105.912 157.445 105.512H156.261C156.261 106.008 156.325 106.6 156.325 107.288V113ZM161.95 113H163.198V109.352C163.198 107.64 163.902 106.472 165.518 106.472C166.542 106.472 166.958 107.112 166.958 108.76V113H168.206V108.68C168.206 107.336 169.086 106.472 170.142 106.472C171.598 106.472 171.966 107.48 171.966 108.52V113H173.214V108.456C173.214 106.52 172.51 105.32 170.366 105.32C169.23 105.32 168.542 105.864 167.998 106.744C167.758 106.232 167.246 105.32 165.63 105.32C164.398 105.32 163.47 106.008 163.134 106.744H163.102C163.102 106.328 163.07 105.912 163.07 105.512H161.886C161.886 106.008 161.95 106.6 161.95 107.288V113Z" fill="#333333"/>
<path fill-rule="evenodd" clip-rule="evenodd" d="M71.25 133C71.25 132.586 71.5858 132.25 72 132.25H78.2222C78.6364 132.25 78.9722 132.586 78.9722 133V139.222C78.9722 139.636 78.6364 139.972 78.2222 139.972H72C71.5858 139.972 71.25 139.636 71.25 139.222V133ZM72.75 133.75V138.472H77.4722V133.75H72.75Z" fill="#6B778C"/>
<path fill-rule="evenodd" clip-rule="evenodd" d="M81.028 133C81.028 132.586 81.3637 132.25 81.778 132.25H88.0002C88.4144 132.25 88.7502 132.586 88.7502 133V139.222C88.7502 139.636 88.4144 139.972 88.0002 139.972H81.778C81.3637 139.972 81.028 139.636 81.028 139.222V133ZM82.528 133.75V138.472H87.2502V133.75H82.528Z" fill="#6B778C"/>
<path fill-rule="evenodd" clip-rule="evenodd" d="M81.028 142.777C81.028 142.363 81.3637 142.027 81.778 142.027H88.0002C88.4144 142.027 88.7502 142.363 88.7502 142.777V149C88.7502 149.414 88.4144 149.75 88.0002 149.75H81.778C81.3637 149.75 81.028 149.414 81.028 149V142.777ZM82.528 143.527V148.25H87.2502V143.527H82.528Z" fill="#6B778C"/>
<path fill-rule="evenodd" clip-rule="evenodd" d="M71.25 142.777C71.25 142.363 71.5858 142.027 72 142.027H78.2222C78.6364 142.027 78.9722 142.363 78.9722 142.777V149C78.9722 149.414 78.6364 149.75 78.2222 149.75H72C71.5858 149.75 71.25 149.414 71.25 149V142.777ZM72.75 143.527V148.25H77.4722V143.527H72.75Z" fill="#6B778C"/>
<g opacity="0.5">
<rect x="96" y="137.5" width="32" height="7" rx="3.5" fill="#6B778C"/>
</g>
<g opacity="0.5">
<rect x="68" y="161" width="185" height="7" rx="3.5" fill="#D2D6DD"/>
</g>
<g opacity="0.5">
<rect x="68" y="176" width="185" height="7" rx="3.5" fill="#D2D6DD"/>
</g>
<g opacity="0.5">
<rect x="68" y="191" width="90" height="7" rx="3.5" fill="#D2D6DD"/>
</g>
<rect x="292" y="26" width="16" height="16" rx="8" fill="#467822"/>
<path d="M299 36.1673C298.871 36.1575 298.752 36.0976 298.667 36.0006L296.667 34.0006C296.622 33.9073 296.608 33.8025 296.625 33.7006C296.642 33.5987 296.691 33.5047 296.764 33.4316C296.837 33.3585 296.931 33.3098 297.033 33.2924C297.135 33.2749 297.24 33.2894 297.333 33.334L298.98 34.9806L304.667 29.334C304.76 29.2894 304.865 29.2749 304.967 29.2924C305.069 29.3098 305.163 29.3585 305.236 29.4316C305.309 29.5047 305.357 29.5987 305.375 29.7006C305.392 29.8025 305.378 29.9073 305.333 30.0006L299.333 36.0006C299.248 36.0976 299.129 36.1575 299 36.1673Z" fill="white"/>
<path d="M300 40.0005C298.928 39.9988 297.875 39.7097 296.953 39.1634C296.03 38.617 295.27 37.8333 294.753 36.8939C294.36 36.1939 294.117 35.4196 294.04 34.6205C293.918 33.4486 294.144 32.2667 294.689 31.2222C295.234 30.1777 296.075 29.3169 297.107 28.7472C297.807 28.3541 298.581 28.1112 299.38 28.0339C300.176 27.9482 300.981 28.0254 301.747 28.2605C301.815 28.2742 301.88 28.302 301.937 28.3421C301.994 28.3822 302.041 28.4337 302.077 28.4935C302.113 28.5532 302.136 28.6197 302.145 28.6889C302.153 28.758 302.148 28.8281 302.127 28.8948C302.107 28.9615 302.074 29.0233 302.028 29.0762C301.983 29.1291 301.927 29.1719 301.864 29.202C301.801 29.232 301.733 29.2486 301.663 29.2506C301.594 29.2527 301.524 29.2402 301.46 29.2139C300.812 29.0192 300.132 28.9557 299.46 29.0272C298.795 29.0953 298.151 29.2971 297.567 29.6205C297.003 29.9313 296.505 30.3478 296.1 30.8472C295.683 31.356 295.371 31.9429 295.183 32.5737C294.995 33.2044 294.935 33.8663 295.007 34.5205C295.075 35.1852 295.277 35.8292 295.6 36.4139C295.911 36.9771 296.327 37.4751 296.827 37.8805C297.335 38.298 297.922 38.6097 298.553 38.7974C299.184 38.9852 299.846 39.0451 300.5 38.9739C301.165 38.9058 301.809 38.704 302.393 38.3805C302.957 38.0698 303.455 37.6533 303.86 37.1539C304.277 36.6451 304.589 36.0582 304.777 35.4274C304.965 34.7966 305.025 34.1348 304.953 33.4805C304.947 33.4118 304.954 33.3425 304.974 33.2765C304.994 33.2105 305.027 33.1491 305.071 33.0958C305.115 33.0426 305.169 32.9985 305.23 32.9662C305.291 32.9338 305.358 32.9138 305.427 32.9072C305.495 32.9006 305.565 32.9077 305.631 32.9279C305.697 32.9481 305.758 32.9812 305.811 33.0251C305.865 33.0691 305.909 33.1231 305.941 33.1841C305.973 33.2451 305.993 33.3118 306 33.3805C306.121 34.5532 305.895 35.7356 305.348 36.7802C304.801 37.8247 303.959 38.6851 302.927 39.2539C302.219 39.663 301.433 39.9175 300.62 40.0005C300.413 40.0005 300.2 40.0005 300 40.0005Z" fill="white"/>
<rect x="34" y="14" width="286" height="251" stroke="#E6E6E6" stroke-width="8"/>
<rect x="405" y="14" width="286" height="251" fill="white"/>
<rect width="250" height="227" transform="translate(423 26)" fill="white"/>
<path d="M446.888 82.212C446.056 81.236 444.984 80.884 443.72 80.884C441.736 80.884 439.864 81.972 439.864 84.148C439.864 86.036 441.08 86.74 442.68 87.268C444.696 87.94 445.64 88.18 445.64 89.572C445.64 90.868 444.328 91.54 443.176 91.54C442.2 91.54 441.24 91.108 440.76 90.276L439.608 91.22C440.376 92.356 441.784 92.788 443.096 92.788C445.144 92.788 447.08 91.732 447.08 89.476C447.08 87.252 445.448 86.676 443.688 86.116C441.88 85.54 441.304 85.076 441.304 84.036C441.304 82.692 442.536 82.132 443.72 82.132C444.536 82.132 445.336 82.452 445.784 83.172L446.888 82.212ZM453.171 85.012H450.963V82.884H449.715V85.012H448.083V86.068H449.715V90.18C449.715 91.732 450.003 92.692 451.779 92.692C452.243 92.692 452.803 92.612 453.235 92.42L453.187 91.284C452.851 91.46 452.451 91.54 452.083 91.54C450.979 91.54 450.963 90.772 450.963 89.812V86.068H453.171V85.012ZM455.388 86.788C455.98 86.244 456.812 85.972 457.612 85.972C458.78 85.972 459.468 86.532 459.468 87.62V87.844H458.988C457.148 87.844 454.268 87.988 454.268 90.468C454.268 91.924 455.532 92.692 457.052 92.692C458.188 92.692 459.02 92.148 459.516 91.38H459.548C459.548 91.7 459.548 92.164 459.628 92.5H460.828C460.764 92.116 460.716 91.636 460.716 91.204V87.988C460.716 85.876 459.788 84.82 457.58 84.82C456.492 84.82 455.372 85.188 454.604 85.972L455.388 86.788ZM459.468 88.9V89.38C459.436 90.596 458.7 91.636 457.26 91.636C456.316 91.636 455.612 91.284 455.612 90.34C455.612 89.332 456.636 88.9 458.22 88.9H459.468ZM467.093 85.012H464.885V82.884H463.637V85.012H462.005V86.068H463.637V90.18C463.637 91.732 463.924 92.692 465.701 92.692C466.165 92.692 466.725 92.612 467.157 92.42L467.109 91.284C466.773 91.46 466.373 91.54 466.005 91.54C464.901 91.54 464.885 90.772 464.885 89.812V86.068H467.093V85.012ZM474.366 90.404C473.774 91.156 473.054 91.54 471.982 91.54C470.622 91.54 469.63 90.436 469.534 89.14H475.582V88.74C475.582 86.26 474.142 84.82 472.03 84.82C469.822 84.82 468.19 86.436 468.19 88.756C468.19 90.932 469.63 92.692 471.982 92.692C473.374 92.692 474.43 92.276 475.31 91.14L474.366 90.404ZM469.534 88.084C469.694 86.82 470.606 85.972 471.982 85.972C473.358 85.972 474.19 86.82 474.238 88.084H469.534ZM482.2 80.884L481.192 80.5L476.376 92.788L477.384 93.188L482.2 80.884ZM486.442 92.5H487.738L492.17 81.172H490.746L487.146 90.484H487.114L483.626 81.172H482.106L486.442 92.5ZM493.327 92.5H494.575V85.012H493.327V92.5ZM493.039 82.084C493.039 82.612 493.423 82.996 493.951 82.996C494.479 82.996 494.863 82.612 494.863 82.084C494.863 81.588 494.463 81.172 493.951 81.172C493.439 81.172 493.039 81.588 493.039 82.084ZM503.379 86.004C502.627 85.188 501.603 84.82 500.499 84.82C498.195 84.82 496.627 86.484 496.627 88.756C496.627 91.06 498.179 92.692 500.499 92.692C501.587 92.692 502.611 92.324 503.331 91.492L502.403 90.612C501.939 91.252 501.315 91.54 500.499 91.54C498.979 91.54 497.971 90.292 497.971 88.756C497.971 87.22 498.819 85.972 500.499 85.972C501.251 85.972 501.859 86.244 502.387 86.884L503.379 86.004ZM508.874 85.012H506.666V82.884H505.418V85.012H503.786V86.068H505.418V90.18C505.418 91.732 505.706 92.692 507.482 92.692C507.946 92.692 508.506 92.612 508.938 92.42L508.89 91.284C508.554 91.46 508.154 91.54 507.786 91.54C506.682 91.54 506.666 90.772 506.666 89.812V86.068H508.874V85.012ZM509.971 88.756C509.971 91.092 511.667 92.692 513.971 92.692C516.275 92.692 517.971 91.092 517.971 88.756C517.971 86.42 516.275 84.82 513.971 84.82C511.667 84.82 509.971 86.42 509.971 88.756ZM511.315 88.756C511.315 87.188 512.355 85.972 513.971 85.972C515.587 85.972 516.627 87.188 516.627 88.756C516.627 90.324 515.587 91.54 513.971 91.54C512.355 91.54 511.315 90.324 511.315 88.756ZM519.903 92.5H521.151V88.852C521.151 87.14 521.823 86.068 523.343 86.068C523.567 86.068 523.807 86.1 524.015 86.164L524.095 84.9C523.919 84.836 523.743 84.82 523.583 84.82C522.351 84.82 521.423 85.508 521.087 86.244H521.055C521.055 85.828 521.023 85.412 521.023 85.012H519.839C519.839 85.508 519.903 86.1 519.903 86.788V92.5ZM525.64 92.5H526.888V85.012H525.64V92.5ZM525.352 82.084C525.352 82.612 525.736 82.996 526.264 82.996C526.792 82.996 527.176 82.612 527.176 82.084C527.176 81.588 526.776 81.172 526.264 81.172C525.752 81.172 525.352 81.588 525.352 82.084ZM530.06 86.788C530.652 86.244 531.484 85.972 532.284 85.972C533.452 85.972 534.14 86.532 534.14 87.62V87.844H533.66C531.82 87.844 528.94 87.988 528.94 90.468C528.94 91.924 530.204 92.692 531.724 92.692C532.86 92.692 533.692 92.148 534.188 91.38H534.22C534.22 91.7 534.22 92.164 534.3 92.5H535.5C535.436 92.116 535.388 91.636 535.388 91.204V87.988C535.388 85.876 534.46 84.82 532.252 84.82C531.164 84.82 530.044 85.188 529.276 85.972L530.06 86.788ZM534.14 88.9V89.38C534.108 90.596 533.372 91.636 531.932 91.636C530.988 91.636 530.284 91.284 530.284 90.34C530.284 89.332 531.308 88.9 532.891 88.9H534.14Z" fill="#6B778C"/>
<rect width="218" height="2" transform="translate(439 97.5)" fill="#FEEFEF"/>
<path d="M442.408 115.5H443.88L446.696 105.9H446.728L449.528 115.5H450.984L454.312 104.172H452.904L450.28 113.58H450.248L447.48 104.172H445.976L443.192 113.58H443.16L440.584 104.172H439.096L442.408 115.5ZM455.702 115.5H456.95V108.012H455.702V115.5ZM455.414 105.084C455.414 105.612 455.798 105.996 456.326 105.996C456.854 105.996 457.238 105.612 457.238 105.084C457.238 104.588 456.838 104.172 456.326 104.172C455.814 104.172 455.414 104.588 455.414 105.084ZM459.434 115.5H460.682V111.852C460.682 110.14 461.386 108.972 463.002 108.972C464.17 108.972 464.714 109.756 464.714 111.004V115.5H465.962V110.876C465.962 109.068 465.082 107.82 463.114 107.82C461.882 107.82 460.954 108.508 460.618 109.244H460.586C460.586 108.828 460.554 108.412 460.554 108.012H459.37C459.37 108.508 459.434 109.1 459.434 109.788V115.5ZM474.549 115.5H475.797V103.404H474.549V109.1H474.517C473.829 108.3 472.917 107.82 471.829 107.82C469.477 107.82 467.893 109.484 467.893 111.756C467.893 113.996 469.541 115.692 471.637 115.692C472.981 115.692 474.053 115.02 474.517 114.172H474.549V115.5ZM474.549 111.756C474.549 113.324 473.509 114.54 471.893 114.54C470.277 114.54 469.237 113.324 469.237 111.756C469.237 110.188 470.277 108.972 471.893 108.972C473.509 108.972 474.549 110.188 474.549 111.756ZM483.247 109.788C483.839 109.244 484.671 108.972 485.471 108.972C486.639 108.972 487.327 109.532 487.327 110.62V110.844H486.847C485.007 110.844 482.127 110.988 482.127 113.468C482.127 114.924 483.391 115.692 484.911 115.692C486.047 115.692 486.879 115.148 487.375 114.38H487.407C487.407 114.7 487.407 115.164 487.487 115.5H488.687C488.623 115.116 488.575 114.636 488.575 114.204V110.988C488.575 108.876 487.647 107.82 485.439 107.82C484.351 107.82 483.231 108.188 482.463 108.972L483.247 109.788ZM487.327 111.9V112.38C487.295 113.596 486.559 114.636 485.119 114.636C484.175 114.636 483.471 114.284 483.471 113.34C483.471 112.332 484.495 111.9 486.079 111.9H487.327ZM490.856 115.5H492.104V111.852C492.104 110.14 492.808 108.972 494.424 108.972C495.592 108.972 496.136 109.756 496.136 111.004V115.5H497.384V110.876C497.384 109.068 496.504 107.82 494.536 107.82C493.304 107.82 492.376 108.508 492.04 109.244H492.008C492.008 108.828 491.976 108.412 491.976 108.012H490.792C490.792 108.508 490.856 109.1 490.856 109.788V115.5ZM505.971 115.5H507.219V103.404H505.971V109.1H505.939C505.251 108.3 504.339 107.82 503.251 107.82C500.899 107.82 499.315 109.484 499.315 111.756C499.315 113.996 500.963 115.692 503.059 115.692C504.403 115.692 505.475 115.02 505.939 114.172H505.971V115.5ZM505.971 111.756C505.971 113.324 504.931 114.54 503.315 114.54C501.699 114.54 500.659 113.324 500.659 111.756C500.659 110.188 501.699 108.972 503.315 108.972C504.931 108.972 505.971 110.188 505.971 111.756ZM514.621 115.5H515.869V109.068H517.693V108.012H515.869V106.604C515.869 105.308 515.917 104.364 517.213 104.364C517.501 104.364 517.789 104.428 518.061 104.524L518.237 103.404C517.997 103.276 517.597 103.212 517.277 103.212C515.261 103.212 514.621 104.508 514.621 106.332V108.012H512.989V109.068H514.621V115.5ZM519.716 109.788C520.308 109.244 521.14 108.972 521.94 108.972C523.108 108.972 523.796 109.532 523.796 110.62V110.844H523.316C521.476 110.844 518.596 110.988 518.596 113.468C518.596 114.924 519.86 115.692 521.38 115.692C522.516 115.692 523.348 115.148 523.844 114.38H523.876C523.876 114.7 523.876 115.164 523.956 115.5H525.156C525.092 115.116 525.044 114.636 525.044 114.204V110.988C525.044 108.876 524.116 107.82 521.908 107.82C520.82 107.82 519.7 108.188 518.932 108.972L519.716 109.788ZM523.796 111.9V112.38C523.764 113.596 523.028 114.636 521.588 114.636C520.644 114.636 519.94 114.284 519.94 113.34C519.94 112.332 520.964 111.9 522.548 111.9H523.796ZM527.325 115.5H528.573V111.852C528.573 110.14 529.245 109.068 530.765 109.068C530.989 109.068 531.229 109.1 531.437 109.164L531.517 107.9C531.341 107.836 531.165 107.82 531.005 107.82C529.773 107.82 528.845 108.508 528.509 109.244H528.477C528.477 108.828 528.445 108.412 528.445 108.012H527.261C527.261 108.508 527.325 109.1 527.325 109.788V115.5ZM532.95 115.5H534.198V111.852C534.198 110.14 534.902 108.972 536.518 108.972C537.542 108.972 537.958 109.612 537.958 111.26V115.5H539.206V111.18C539.206 109.836 540.086 108.972 541.142 108.972C542.598 108.972 542.966 109.98 542.966 111.02V115.5H544.214V110.956C544.214 109.02 543.51 107.82 541.366 107.82C540.23 107.82 539.542 108.364 538.998 109.244C538.758 108.732 538.246 107.82 536.63 107.82C535.398 107.82 534.47 108.508 534.134 109.244H534.102C534.102 108.828 534.07 108.412 534.07 108.012H532.886C532.886 108.508 532.95 109.1 532.95 109.788V115.5Z" fill="#333333"/>
<path fill-rule="evenodd" clip-rule="evenodd" d="M442.25 135.5C442.25 135.086 442.586 134.75 443 134.75H449.222C449.636 134.75 449.972 135.086 449.972 135.5V141.722C449.972 142.136 449.636 142.472 449.222 142.472H443C442.586 142.472 442.25 142.136 442.25 141.722V135.5ZM443.75 136.25V140.972H448.472V136.25H443.75Z" fill="#6B778C"/>
<path fill-rule="evenodd" clip-rule="evenodd" d="M452.028 135.5C452.028 135.086 452.364 134.75 452.778 134.75H459C459.414 134.75 459.75 135.086 459.75 135.5V141.722C459.75 142.136 459.414 142.472 459 142.472H452.778C452.364 142.472 452.028 142.136 452.028 141.722V135.5ZM453.528 136.25V140.972H458.25V136.25H453.528Z" fill="#6B778C"/>
<path fill-rule="evenodd" clip-rule="evenodd" d="M452.028 145.277C452.028 144.863 452.364 144.527 452.778 144.527H459C459.414 144.527 459.75 144.863 459.75 145.277V151.5C459.75 151.914 459.414 152.25 459 152.25H452.778C452.364 152.25 452.028 151.914 452.028 151.5V145.277ZM453.528 146.027V150.75H458.25V146.027H453.528Z" fill="#6B778C"/>
<path fill-rule="evenodd" clip-rule="evenodd" d="M442.25 145.277C442.25 144.863 442.586 144.527 443 144.527H449.222C449.636 144.527 449.972 144.863 449.972 145.277V151.5C449.972 151.914 449.636 152.25 449.222 152.25H443C442.586 152.25 442.25 151.914 442.25 151.5V145.277ZM443.75 146.027V150.75H448.472V146.027H443.75Z" fill="#6B778C"/>
<g opacity="0.5">
<rect x="467" y="140" width="32" height="7" rx="3.5" fill="#6B778C"/>
</g>
<g opacity="0.5">
<rect x="439" y="163.5" width="185" height="7" rx="3.5" fill="#D2D6DD"/>
</g>
<g opacity="0.5">
<rect x="439" y="178.5" width="185" height="7" rx="3.5" fill="#D2D6DD"/>
</g>
<g opacity="0.5">
<rect x="439" y="193.5" width="90" height="7" rx="3.5" fill="#D2D6DD"/>
</g>
<rect x="663" y="26" width="16" height="16" rx="8" fill="#DB3259"/>
<path d="M671.707 34L674.653 31.0533C674.702 31.0075 674.742 30.9523 674.769 30.891C674.797 30.8297 674.811 30.7635 674.812 30.6963C674.814 30.6292 674.801 30.5625 674.776 30.5002C674.751 30.438 674.714 30.3814 674.666 30.3339C674.619 30.2865 674.562 30.249 674.5 30.2239C674.437 30.1987 674.371 30.1864 674.304 30.1876C674.237 30.1888 674.17 30.2035 674.109 30.2308C674.048 30.2581 673.992 30.2975 673.947 30.3466L671 33.2933L668.053 30.3466C667.959 30.2583 667.833 30.2102 667.704 30.2125C667.574 30.2148 667.451 30.2673 667.359 30.3589C667.267 30.4505 667.215 30.5741 667.213 30.7036C667.21 30.8332 667.258 30.9585 667.347 31.0533L670.293 34L667.347 36.9466C667.253 37.0404 667.2 37.1675 667.2 37.3C667.2 37.4325 667.253 37.5596 667.347 37.6533C667.44 37.7469 667.567 37.7995 667.7 37.7995C667.832 37.7995 667.96 37.7469 668.053 37.6533L671 34.7066L673.947 37.6533C674.04 37.7469 674.167 37.7995 674.3 37.7995C674.433 37.7995 674.56 37.7469 674.653 37.6533C674.747 37.5596 674.8 37.4325 674.8 37.3C674.8 37.1675 674.747 37.0404 674.653 36.9466L671.707 34Z" fill="white"/>
<rect x="405" y="14" width="286" height="251" stroke="#E6E6E6" stroke-width="8"/>
</svg>
