<svg width="637" height="374" viewBox="0 0 637 374" fill="none" xmlns="http://www.w3.org/2000/svg">
<path d="M81.614 188.156C83.291 188.156 84.617 187.103 84.617 185.361C84.617 184.217 83.863 183.385 82.862 183.112V183.073C83.551 182.891 84.305 182.202 84.305 180.928C84.305 179.537 83.057 178.64 81.614 178.64C80.171 178.64 78.923 179.537 78.923 180.928C78.923 182.202 79.677 182.891 80.366 183.073V183.112C79.365 183.385 78.611 184.217 78.611 185.361C78.611 187.103 79.937 188.156 81.614 188.156ZM80.171 181.11C80.171 180.252 80.821 179.654 81.614 179.654C82.472 179.654 83.057 180.265 83.057 181.11C83.057 181.864 82.576 182.566 81.614 182.566C80.691 182.566 80.171 181.825 80.171 181.11ZM81.614 187.064C80.665 187.064 79.859 186.44 79.859 185.361C79.859 184.386 80.6 183.671 81.614 183.658C82.589 183.671 83.369 184.243 83.369 185.361C83.369 186.362 82.654 187.064 81.614 187.064ZM86.1076 191.666H87.2776V187.116H87.3036C87.7196 187.753 88.5646 188.156 89.4486 188.156C91.3466 188.156 92.5816 186.765 92.5816 184.919C92.5816 183.099 91.3596 181.682 89.4486 181.682C88.6166 181.682 87.7586 182.059 87.3036 182.722H87.2776V181.838H86.1076V191.666ZM89.3056 182.774C90.5536 182.774 91.3336 183.671 91.3336 184.919C91.3336 186.167 90.5536 187.064 89.3056 187.064C88.0576 187.064 87.2776 186.167 87.2776 184.919C87.2776 183.671 88.0576 182.774 89.3056 182.774ZM93.2489 188H94.6919L96.5119 185.413L98.3319 188H99.8399L97.3439 184.711L99.4499 181.838H98.0329L96.5639 184.022L95.0689 181.838H93.5609L95.7449 184.711L93.2489 188Z" fill="black"/>
<path d="M4.368 188H5.616V185.972H6.916V184.88H5.616V178.796H4.108L0.442 184.698V185.972H4.368V188ZM4.368 184.88H1.534L4.342 180.278H4.368V184.88ZM8.10763 191.666H9.27763V187.116H9.30363C9.71963 187.753 10.5646 188.156 11.4486 188.156C13.3466 188.156 14.5816 186.765 14.5816 184.919C14.5816 183.099 13.3596 181.682 11.4486 181.682C10.6166 181.682 9.75863 182.059 9.30363 182.722H9.27763V181.838H8.10763V191.666ZM11.3056 182.774C12.5536 182.774 13.3336 183.671 13.3336 184.919C13.3336 186.167 12.5536 187.064 11.3056 187.064C10.0576 187.064 9.27763 186.167 9.27763 184.919C9.27763 183.671 10.0576 182.774 11.3056 182.774ZM15.2489 188H16.6919L18.5119 185.413L20.3319 188H21.8399L19.3439 184.711L21.4499 181.838H20.0329L18.5639 184.022L17.0689 181.838H15.5609L17.7449 184.711L15.2489 188Z" fill="black"/>
<path d="M78.297 210.28C78.729 210.883 79.512 211.162 80.331 211.162C81.555 211.162 82.545 210.424 82.545 209.191C82.545 206.896 79.404 207.859 79.404 206.248C79.404 205.852 79.692 205.276 80.646 205.276C81.141 205.276 81.564 205.501 81.78 205.834L82.482 205.195C82.005 204.61 81.339 204.466 80.646 204.466C79.116 204.466 78.486 205.501 78.486 206.248C78.486 208.732 81.627 207.823 81.627 209.29C81.627 209.992 80.925 210.352 80.358 210.352C79.845 210.352 79.314 210.136 79.008 209.668L78.297 210.28ZM83.613 213.538H84.423V210.388H84.441C84.729 210.829 85.314 211.108 85.926 211.108C87.24 211.108 88.095 210.145 88.095 208.867C88.095 207.607 87.249 206.626 85.926 206.626C85.35 206.626 84.756 206.887 84.441 207.346H84.423V206.734H83.613V213.538ZM85.827 207.382C86.691 207.382 87.231 208.003 87.231 208.867C87.231 209.731 86.691 210.352 85.827 210.352C84.963 210.352 84.423 209.731 84.423 208.867C84.423 208.003 84.963 207.382 85.827 207.382ZM89.6189 207.76C89.9159 207.535 90.2129 207.274 90.8339 207.274C91.5269 207.274 91.8509 207.733 91.8509 208.174V208.354H91.2569C89.9609 208.354 88.9079 208.732 88.9079 209.83C88.9079 210.658 89.5919 211.108 90.3839 211.108C91.0319 211.108 91.5179 210.901 91.8779 210.352H91.8959C91.8959 210.568 91.9049 210.784 91.9229 211H92.6429C92.6159 210.775 92.6069 210.523 92.6069 210.226V208.048C92.6069 207.31 92.0849 206.626 90.8249 206.626C90.2309 206.626 89.5829 206.833 89.1329 207.256L89.6189 207.76ZM91.8509 208.948V209.218C91.8509 209.794 91.5359 210.46 90.6359 210.46C90.0779 210.46 89.7179 210.253 89.7179 209.767C89.7179 209.083 90.6539 208.948 91.4189 208.948H91.8509ZM97.4449 207.31C97.0219 206.851 96.4279 206.635 95.8069 206.635C94.4749 206.635 93.5749 207.571 93.5749 208.885C93.5749 210.199 94.4929 211.108 95.8069 211.108C96.4279 211.108 97.0039 210.919 97.4269 210.451L96.8509 209.875C96.5809 210.19 96.2659 210.352 95.8159 210.352C94.9789 210.352 94.4389 209.704 94.4389 208.903C94.4389 208.102 94.8889 207.391 95.7709 207.391C96.2209 207.391 96.5359 207.553 96.8329 207.868L97.4449 207.31ZM102.156 209.164V208.876C102.156 207.778 101.58 206.626 100.077 206.626C98.7987 206.626 97.8717 207.589 97.8717 208.867C97.8717 210.136 98.7177 211.108 100.068 211.108C100.887 211.108 101.508 210.82 101.958 210.235L101.346 209.767C101.031 210.154 100.671 210.406 100.176 210.406C99.4287 210.406 98.7357 209.911 98.7357 209.164H102.156ZM98.7357 208.516C98.7357 207.949 99.2577 207.274 100.059 207.274C100.878 207.274 101.274 207.805 101.292 208.516H98.7357ZM103.125 211H103.935V208.858C103.935 207.922 104.367 207.49 105.159 207.49C105.285 207.49 105.42 207.517 105.555 207.553L105.591 206.68C105.483 206.644 105.357 206.626 105.231 206.626C104.7 206.626 104.16 206.941 103.953 207.391H103.935V206.734H103.125V211ZM108.763 211H112.939V210.244H109.735L111.832 208.219C112.399 207.67 112.939 207.067 112.939 206.23C112.939 205.06 112.03 204.466 110.932 204.466C109.834 204.466 108.997 204.997 108.826 206.122L109.762 206.203C109.87 205.6 110.302 205.222 110.923 205.222C111.526 205.222 112.021 205.609 112.021 206.239C112.021 206.761 111.67 207.202 111.319 207.544L108.763 210.082V211Z" fill="black"/>
<path d="M0.297 210.28C0.729 210.883 1.512 211.162 2.331 211.162C3.555 211.162 4.545 210.424 4.545 209.191C4.545 206.896 1.404 207.859 1.404 206.248C1.404 205.852 1.692 205.276 2.646 205.276C3.141 205.276 3.564 205.501 3.78 205.834L4.482 205.195C4.005 204.61 3.339 204.466 2.646 204.466C1.116 204.466 0.486 205.501 0.486 206.248C0.486 208.732 3.627 207.823 3.627 209.29C3.627 209.992 2.925 210.352 2.358 210.352C1.845 210.352 1.314 210.136 1.008 209.668L0.297 210.28ZM5.61298 213.538H6.42298V210.388H6.44098C6.72898 210.829 7.31398 211.108 7.92598 211.108C9.23998 211.108 10.095 210.145 10.095 208.867C10.095 207.607 9.24898 206.626 7.92598 206.626C7.34998 206.626 6.75598 206.887 6.44098 207.346H6.42298V206.734H5.61298V213.538ZM7.82698 207.382C8.69098 207.382 9.23098 208.003 9.23098 208.867C9.23098 209.731 8.69098 210.352 7.82698 210.352C6.96298 210.352 6.42298 209.731 6.42298 208.867C6.42298 208.003 6.96298 207.382 7.82698 207.382ZM11.6189 207.76C11.9159 207.535 12.2129 207.274 12.8339 207.274C13.5269 207.274 13.8509 207.733 13.8509 208.174V208.354H13.2569C11.9609 208.354 10.9079 208.732 10.9079 209.83C10.9079 210.658 11.5919 211.108 12.3839 211.108C13.0319 211.108 13.5179 210.901 13.8779 210.352H13.8959C13.8959 210.568 13.9049 210.784 13.9229 211H14.6429C14.6159 210.775 14.6069 210.523 14.6069 210.226V208.048C14.6069 207.31 14.0849 206.626 12.8249 206.626C12.2309 206.626 11.5829 206.833 11.1329 207.256L11.6189 207.76ZM13.8509 208.948V209.218C13.8509 209.794 13.5359 210.46 12.6359 210.46C12.0779 210.46 11.7179 210.253 11.7179 209.767C11.7179 209.083 12.6539 208.948 13.4189 208.948H13.8509ZM19.4449 207.31C19.0219 206.851 18.4279 206.635 17.8069 206.635C16.4749 206.635 15.5749 207.571 15.5749 208.885C15.5749 210.199 16.4929 211.108 17.8069 211.108C18.4279 211.108 19.0039 210.919 19.4269 210.451L18.8509 209.875C18.5809 210.19 18.2659 210.352 17.8159 210.352C16.9789 210.352 16.4389 209.704 16.4389 208.903C16.4389 208.102 16.8889 207.391 17.7709 207.391C18.2209 207.391 18.5359 207.553 18.8329 207.868L19.4449 207.31ZM24.1557 209.164V208.876C24.1557 207.778 23.5797 206.626 22.0767 206.626C20.7987 206.626 19.8717 207.589 19.8717 208.867C19.8717 210.136 20.7177 211.108 22.0677 211.108C22.8867 211.108 23.5077 210.82 23.9577 210.235L23.3457 209.767C23.0307 210.154 22.6707 210.406 22.1757 210.406C21.4287 210.406 20.7357 209.911 20.7357 209.164H24.1557ZM20.7357 208.516C20.7357 207.949 21.2577 207.274 22.0587 207.274C22.8777 207.274 23.2737 207.805 23.2917 208.516H20.7357ZM25.1247 211H25.9347V208.858C25.9347 207.922 26.3667 207.49 27.1587 207.49C27.2847 207.49 27.4197 207.517 27.5547 207.553L27.5907 206.68C27.4827 206.644 27.3567 206.626 27.2307 206.626C26.6997 206.626 26.1597 206.941 25.9527 207.391H25.9347V206.734H25.1247V211ZM32.7786 211H33.6426V204.628H32.8776L31.1046 206.095L31.6086 206.698L32.7786 205.618V211Z" fill="black"/>
<path d="M173.622 210.28C174.054 210.883 174.837 211.162 175.656 211.162C176.88 211.162 177.87 210.424 177.87 209.191C177.87 206.896 174.729 207.859 174.729 206.248C174.729 205.852 175.017 205.276 175.971 205.276C176.466 205.276 176.889 205.501 177.105 205.834L177.807 205.195C177.33 204.61 176.664 204.466 175.971 204.466C174.441 204.466 173.811 205.501 173.811 206.248C173.811 208.732 176.952 207.823 176.952 209.29C176.952 209.992 176.25 210.352 175.683 210.352C175.17 210.352 174.639 210.136 174.333 209.668L173.622 210.28ZM178.938 213.538H179.748V210.388H179.766C180.054 210.829 180.639 211.108 181.251 211.108C182.565 211.108 183.42 210.145 183.42 208.867C183.42 207.607 182.574 206.626 181.251 206.626C180.675 206.626 180.081 206.887 179.766 207.346H179.748V206.734H178.938V213.538ZM181.152 207.382C182.016 207.382 182.556 208.003 182.556 208.867C182.556 209.731 182.016 210.352 181.152 210.352C180.288 210.352 179.748 209.731 179.748 208.867C179.748 208.003 180.288 207.382 181.152 207.382ZM184.944 207.76C185.241 207.535 185.538 207.274 186.159 207.274C186.852 207.274 187.176 207.733 187.176 208.174V208.354H186.582C185.286 208.354 184.233 208.732 184.233 209.83C184.233 210.658 184.917 211.108 185.709 211.108C186.357 211.108 186.843 210.901 187.203 210.352H187.221C187.221 210.568 187.23 210.784 187.248 211H187.968C187.941 210.775 187.932 210.523 187.932 210.226V208.048C187.932 207.31 187.41 206.626 186.15 206.626C185.556 206.626 184.908 206.833 184.458 207.256L184.944 207.76ZM187.176 208.948V209.218C187.176 209.794 186.861 210.46 185.961 210.46C185.403 210.46 185.043 210.253 185.043 209.767C185.043 209.083 185.979 208.948 186.744 208.948H187.176ZM192.77 207.31C192.347 206.851 191.753 206.635 191.132 206.635C189.8 206.635 188.9 207.571 188.9 208.885C188.9 210.199 189.818 211.108 191.132 211.108C191.753 211.108 192.329 210.919 192.752 210.451L192.176 209.875C191.906 210.19 191.591 210.352 191.141 210.352C190.304 210.352 189.764 209.704 189.764 208.903C189.764 208.102 190.214 207.391 191.096 207.391C191.546 207.391 191.861 207.553 192.158 207.868L192.77 207.31ZM197.481 209.164V208.876C197.481 207.778 196.905 206.626 195.402 206.626C194.124 206.626 193.197 207.589 193.197 208.867C193.197 210.136 194.043 211.108 195.393 211.108C196.212 211.108 196.833 210.82 197.283 210.235L196.671 209.767C196.356 210.154 195.996 210.406 195.501 210.406C194.754 210.406 194.061 209.911 194.061 209.164H197.481ZM194.061 208.516C194.061 207.949 194.583 207.274 195.384 207.274C196.203 207.274 196.599 207.805 196.617 208.516H194.061ZM198.45 211H199.26V208.858C199.26 207.922 199.692 207.49 200.484 207.49C200.61 207.49 200.745 207.517 200.88 207.553L200.916 206.68C200.808 206.644 200.682 206.626 200.556 206.626C200.025 206.626 199.485 206.941 199.278 207.391H199.26V206.734H198.45V211ZM204.088 209.722C204.376 210.685 205.168 211.108 206.14 211.108C207.265 211.108 208.264 210.487 208.264 209.263C208.264 208.48 207.814 207.796 207.013 207.661V207.643C207.661 207.454 208.102 206.869 208.102 206.203C208.102 205.024 207.193 204.466 206.149 204.466C205.303 204.466 204.556 204.853 204.223 205.663L205.105 205.96C205.294 205.519 205.699 205.222 206.167 205.222C206.779 205.222 207.238 205.582 207.238 206.257C207.238 206.887 206.923 207.256 205.609 207.256V208.012C206.419 208.012 207.4 208.138 207.4 209.2C207.4 209.884 206.833 210.352 206.167 210.352C205.492 210.352 205.204 210.055 204.997 209.443L204.088 209.722Z" fill="black"/>
<path d="M268.297 210.28C268.729 210.883 269.512 211.162 270.331 211.162C271.555 211.162 272.545 210.424 272.545 209.191C272.545 206.896 269.404 207.859 269.404 206.248C269.404 205.852 269.692 205.276 270.646 205.276C271.141 205.276 271.564 205.501 271.78 205.834L272.482 205.195C272.005 204.61 271.339 204.466 270.646 204.466C269.116 204.466 268.486 205.501 268.486 206.248C268.486 208.732 271.627 207.823 271.627 209.29C271.627 209.992 270.925 210.352 270.358 210.352C269.845 210.352 269.314 210.136 269.008 209.668L268.297 210.28ZM273.613 213.538H274.423V210.388H274.441C274.729 210.829 275.314 211.108 275.926 211.108C277.24 211.108 278.095 210.145 278.095 208.867C278.095 207.607 277.249 206.626 275.926 206.626C275.35 206.626 274.756 206.887 274.441 207.346H274.423V206.734H273.613V213.538ZM275.827 207.382C276.691 207.382 277.231 208.003 277.231 208.867C277.231 209.731 276.691 210.352 275.827 210.352C274.963 210.352 274.423 209.731 274.423 208.867C274.423 208.003 274.963 207.382 275.827 207.382ZM279.619 207.76C279.916 207.535 280.213 207.274 280.834 207.274C281.527 207.274 281.851 207.733 281.851 208.174V208.354H281.257C279.961 208.354 278.908 208.732 278.908 209.83C278.908 210.658 279.592 211.108 280.384 211.108C281.032 211.108 281.518 210.901 281.878 210.352H281.896C281.896 210.568 281.905 210.784 281.923 211H282.643C282.616 210.775 282.607 210.523 282.607 210.226V208.048C282.607 207.31 282.085 206.626 280.825 206.626C280.231 206.626 279.583 206.833 279.133 207.256L279.619 207.76ZM281.851 208.948V209.218C281.851 209.794 281.536 210.46 280.636 210.46C280.078 210.46 279.718 210.253 279.718 209.767C279.718 209.083 280.654 208.948 281.419 208.948H281.851ZM287.445 207.31C287.022 206.851 286.428 206.635 285.807 206.635C284.475 206.635 283.575 207.571 283.575 208.885C283.575 210.199 284.493 211.108 285.807 211.108C286.428 211.108 287.004 210.919 287.427 210.451L286.851 209.875C286.581 210.19 286.266 210.352 285.816 210.352C284.979 210.352 284.439 209.704 284.439 208.903C284.439 208.102 284.889 207.391 285.771 207.391C286.221 207.391 286.536 207.553 286.833 207.868L287.445 207.31ZM292.156 209.164V208.876C292.156 207.778 291.58 206.626 290.077 206.626C288.799 206.626 287.872 207.589 287.872 208.867C287.872 210.136 288.718 211.108 290.068 211.108C290.887 211.108 291.508 210.82 291.958 210.235L291.346 209.767C291.031 210.154 290.671 210.406 290.176 210.406C289.429 210.406 288.736 209.911 288.736 209.164H292.156ZM288.736 208.516C288.736 207.949 289.258 207.274 290.059 207.274C290.878 207.274 291.274 207.805 291.292 208.516H288.736ZM293.125 211H293.935V208.858C293.935 207.922 294.367 207.49 295.159 207.49C295.285 207.49 295.42 207.517 295.555 207.553L295.591 206.68C295.483 206.644 295.357 206.626 295.231 206.626C294.7 206.626 294.16 206.941 293.953 207.391H293.935V206.734H293.125V211ZM301.373 211H302.237V209.596H303.137V208.84H302.237V204.628H301.193L298.655 208.714V209.596H301.373V211ZM301.373 208.84H299.411L301.355 205.654H301.373V208.84Z" fill="black"/>
<path d="M478.297 210.28C478.729 210.883 479.512 211.162 480.331 211.162C481.555 211.162 482.545 210.424 482.545 209.191C482.545 206.896 479.404 207.859 479.404 206.248C479.404 205.852 479.692 205.276 480.646 205.276C481.141 205.276 481.564 205.501 481.78 205.834L482.482 205.195C482.005 204.61 481.339 204.466 480.646 204.466C479.116 204.466 478.486 205.501 478.486 206.248C478.486 208.732 481.627 207.823 481.627 209.29C481.627 209.992 480.925 210.352 480.358 210.352C479.845 210.352 479.314 210.136 479.008 209.668L478.297 210.28ZM483.613 213.538H484.423V210.388H484.441C484.729 210.829 485.314 211.108 485.926 211.108C487.24 211.108 488.095 210.145 488.095 208.867C488.095 207.607 487.249 206.626 485.926 206.626C485.35 206.626 484.756 206.887 484.441 207.346H484.423V206.734H483.613V213.538ZM485.827 207.382C486.691 207.382 487.231 208.003 487.231 208.867C487.231 209.731 486.691 210.352 485.827 210.352C484.963 210.352 484.423 209.731 484.423 208.867C484.423 208.003 484.963 207.382 485.827 207.382ZM489.619 207.76C489.916 207.535 490.213 207.274 490.834 207.274C491.527 207.274 491.851 207.733 491.851 208.174V208.354H491.257C489.961 208.354 488.908 208.732 488.908 209.83C488.908 210.658 489.592 211.108 490.384 211.108C491.032 211.108 491.518 210.901 491.878 210.352H491.896C491.896 210.568 491.905 210.784 491.923 211H492.643C492.616 210.775 492.607 210.523 492.607 210.226V208.048C492.607 207.31 492.085 206.626 490.825 206.626C490.231 206.626 489.583 206.833 489.133 207.256L489.619 207.76ZM491.851 208.948V209.218C491.851 209.794 491.536 210.46 490.636 210.46C490.078 210.46 489.718 210.253 489.718 209.767C489.718 209.083 490.654 208.948 491.419 208.948H491.851ZM497.445 207.31C497.022 206.851 496.428 206.635 495.807 206.635C494.475 206.635 493.575 207.571 493.575 208.885C493.575 210.199 494.493 211.108 495.807 211.108C496.428 211.108 497.004 210.919 497.427 210.451L496.851 209.875C496.581 210.19 496.266 210.352 495.816 210.352C494.979 210.352 494.439 209.704 494.439 208.903C494.439 208.102 494.889 207.391 495.771 207.391C496.221 207.391 496.536 207.553 496.833 207.868L497.445 207.31ZM502.156 209.164V208.876C502.156 207.778 501.58 206.626 500.077 206.626C498.799 206.626 497.872 207.589 497.872 208.867C497.872 210.136 498.718 211.108 500.068 211.108C500.887 211.108 501.508 210.82 501.958 210.235L501.346 209.767C501.031 210.154 500.671 210.406 500.176 210.406C499.429 210.406 498.736 209.911 498.736 209.164H502.156ZM498.736 208.516C498.736 207.949 499.258 207.274 500.059 207.274C500.878 207.274 501.274 207.805 501.292 208.516H498.736ZM503.125 211H503.935V208.858C503.935 207.922 504.367 207.49 505.159 207.49C505.285 207.49 505.42 207.517 505.555 207.553L505.591 206.68C505.483 206.644 505.357 206.626 505.231 206.626C504.7 206.626 504.16 206.941 503.953 207.391H503.935V206.734H503.125V211ZM511.931 204.628H510.914L509.303 207.175C508.916 207.787 508.664 208.273 508.664 209.056C508.664 210.298 509.654 211.108 510.851 211.108C512.048 211.108 513.038 210.37 513.038 208.966C513.038 207.571 511.985 206.95 511.067 206.95C510.806 206.95 510.572 206.995 510.365 207.094H510.329L511.931 204.628ZM509.528 209.029C509.528 208.255 510.059 207.706 510.851 207.706C511.643 207.706 512.174 208.255 512.174 209.029C512.174 209.803 511.643 210.352 510.851 210.352C510.059 210.352 509.528 209.803 509.528 209.029Z" fill="black"/>
<path d="M574.297 210.28C574.729 210.883 575.512 211.162 576.331 211.162C577.555 211.162 578.545 210.424 578.545 209.191C578.545 206.896 575.404 207.859 575.404 206.248C575.404 205.852 575.692 205.276 576.646 205.276C577.141 205.276 577.564 205.501 577.78 205.834L578.482 205.195C578.005 204.61 577.339 204.466 576.646 204.466C575.116 204.466 574.486 205.501 574.486 206.248C574.486 208.732 577.627 207.823 577.627 209.29C577.627 209.992 576.925 210.352 576.358 210.352C575.845 210.352 575.314 210.136 575.008 209.668L574.297 210.28ZM579.613 213.538H580.423V210.388H580.441C580.729 210.829 581.314 211.108 581.926 211.108C583.24 211.108 584.095 210.145 584.095 208.867C584.095 207.607 583.249 206.626 581.926 206.626C581.35 206.626 580.756 206.887 580.441 207.346H580.423V206.734H579.613V213.538ZM581.827 207.382C582.691 207.382 583.231 208.003 583.231 208.867C583.231 209.731 582.691 210.352 581.827 210.352C580.963 210.352 580.423 209.731 580.423 208.867C580.423 208.003 580.963 207.382 581.827 207.382ZM585.619 207.76C585.916 207.535 586.213 207.274 586.834 207.274C587.527 207.274 587.851 207.733 587.851 208.174V208.354H587.257C585.961 208.354 584.908 208.732 584.908 209.83C584.908 210.658 585.592 211.108 586.384 211.108C587.032 211.108 587.518 210.901 587.878 210.352H587.896C587.896 210.568 587.905 210.784 587.923 211H588.643C588.616 210.775 588.607 210.523 588.607 210.226V208.048C588.607 207.31 588.085 206.626 586.825 206.626C586.231 206.626 585.583 206.833 585.133 207.256L585.619 207.76ZM587.851 208.948V209.218C587.851 209.794 587.536 210.46 586.636 210.46C586.078 210.46 585.718 210.253 585.718 209.767C585.718 209.083 586.654 208.948 587.419 208.948H587.851ZM593.445 207.31C593.022 206.851 592.428 206.635 591.807 206.635C590.475 206.635 589.575 207.571 589.575 208.885C589.575 210.199 590.493 211.108 591.807 211.108C592.428 211.108 593.004 210.919 593.427 210.451L592.851 209.875C592.581 210.19 592.266 210.352 591.816 210.352C590.979 210.352 590.439 209.704 590.439 208.903C590.439 208.102 590.889 207.391 591.771 207.391C592.221 207.391 592.536 207.553 592.833 207.868L593.445 207.31ZM598.156 209.164V208.876C598.156 207.778 597.58 206.626 596.077 206.626C594.799 206.626 593.872 207.589 593.872 208.867C593.872 210.136 594.718 211.108 596.068 211.108C596.887 211.108 597.508 210.82 597.958 210.235L597.346 209.767C597.031 210.154 596.671 210.406 596.176 210.406C595.429 210.406 594.736 209.911 594.736 209.164H598.156ZM594.736 208.516C594.736 207.949 595.258 207.274 596.059 207.274C596.878 207.274 597.274 207.805 597.292 208.516H594.736ZM599.125 211H599.935V208.858C599.935 207.922 600.367 207.49 601.159 207.49C601.285 207.49 601.42 207.517 601.555 207.553L601.591 206.68C601.483 206.644 601.357 206.626 601.231 206.626C600.7 206.626 600.16 206.941 599.953 207.391H599.935V206.734H599.125V211ZM605.222 211H606.194L608.732 205.366V204.628H604.727V205.384H607.805L605.222 211Z" fill="black"/>
<path d="M176.51 188H177.758V178.796H176.653L174.092 180.915L174.82 181.786L176.51 180.226V188ZM185.398 178.796H183.929L181.602 182.475C181.043 183.359 180.679 184.061 180.679 185.192C180.679 186.986 182.109 188.156 183.838 188.156C185.567 188.156 186.997 187.09 186.997 185.062C186.997 183.047 185.476 182.15 184.15 182.15C183.773 182.15 183.435 182.215 183.136 182.358H183.084L185.398 178.796ZM181.927 185.153C181.927 184.035 182.694 183.242 183.838 183.242C184.982 183.242 185.749 184.035 185.749 185.153C185.749 186.271 184.982 187.064 183.838 187.064C182.694 187.064 181.927 186.271 181.927 185.153ZM188.331 191.666H189.501V187.116H189.527C189.943 187.753 190.788 188.156 191.672 188.156C193.57 188.156 194.805 186.765 194.805 184.919C194.805 183.099 193.583 181.682 191.672 181.682C190.84 181.682 189.982 182.059 189.527 182.722H189.501V181.838H188.331V191.666ZM191.529 182.774C192.777 182.774 193.557 183.671 193.557 184.919C193.557 186.167 192.777 187.064 191.529 187.064C190.281 187.064 189.501 186.167 189.501 184.919C189.501 183.671 190.281 182.774 191.529 182.774ZM195.473 188H196.916L198.736 185.413L200.556 188H202.064L199.568 184.711L201.674 181.838H200.257L198.788 184.022L197.293 181.838H195.785L197.969 184.711L195.473 188Z" fill="black"/>
<path d="M268.598 188H274.63V186.908H270.002L273.031 183.983C273.85 183.19 274.63 182.319 274.63 181.11C274.63 179.42 273.317 178.562 271.731 178.562C270.145 178.562 268.936 179.329 268.689 180.954L270.041 181.071C270.197 180.2 270.821 179.654 271.718 179.654C272.589 179.654 273.304 180.213 273.304 181.123C273.304 181.877 272.797 182.514 272.29 183.008L268.598 186.674V188ZM279.592 188H280.84V185.972H282.14V184.88H280.84V178.796H279.332L275.666 184.698V185.972H279.592V188ZM279.592 184.88H276.758L279.566 180.278H279.592V184.88ZM283.331 191.666H284.501V187.116H284.527C284.943 187.753 285.788 188.156 286.672 188.156C288.57 188.156 289.805 186.765 289.805 184.919C289.805 183.099 288.583 181.682 286.672 181.682C285.84 181.682 284.982 182.059 284.527 182.722H284.501V181.838H283.331V191.666ZM286.529 182.774C287.777 182.774 288.557 183.671 288.557 184.919C288.557 186.167 287.777 187.064 286.529 187.064C285.281 187.064 284.501 186.167 284.501 184.919C284.501 183.671 285.281 182.774 286.529 182.774ZM290.473 188H291.916L293.736 185.413L295.556 188H297.064L294.568 184.711L296.674 181.838H295.257L293.788 184.022L292.293 181.838H290.785L292.969 184.711L290.473 188Z" fill="black"/>
<path d="M363.297 210.28C363.729 210.883 364.512 211.162 365.331 211.162C366.555 211.162 367.545 210.424 367.545 209.191C367.545 206.896 364.404 207.859 364.404 206.248C364.404 205.852 364.692 205.276 365.646 205.276C366.141 205.276 366.564 205.501 366.78 205.834L367.482 205.195C367.005 204.61 366.339 204.466 365.646 204.466C364.116 204.466 363.486 205.501 363.486 206.248C363.486 208.732 366.627 207.823 366.627 209.29C366.627 209.992 365.925 210.352 365.358 210.352C364.845 210.352 364.314 210.136 364.008 209.668L363.297 210.28ZM368.613 213.538H369.423V210.388H369.441C369.729 210.829 370.314 211.108 370.926 211.108C372.24 211.108 373.095 210.145 373.095 208.867C373.095 207.607 372.249 206.626 370.926 206.626C370.35 206.626 369.756 206.887 369.441 207.346H369.423V206.734H368.613V213.538ZM370.827 207.382C371.691 207.382 372.231 208.003 372.231 208.867C372.231 209.731 371.691 210.352 370.827 210.352C369.963 210.352 369.423 209.731 369.423 208.867C369.423 208.003 369.963 207.382 370.827 207.382ZM374.619 207.76C374.916 207.535 375.213 207.274 375.834 207.274C376.527 207.274 376.851 207.733 376.851 208.174V208.354H376.257C374.961 208.354 373.908 208.732 373.908 209.83C373.908 210.658 374.592 211.108 375.384 211.108C376.032 211.108 376.518 210.901 376.878 210.352H376.896C376.896 210.568 376.905 210.784 376.923 211H377.643C377.616 210.775 377.607 210.523 377.607 210.226V208.048C377.607 207.31 377.085 206.626 375.825 206.626C375.231 206.626 374.583 206.833 374.133 207.256L374.619 207.76ZM376.851 208.948V209.218C376.851 209.794 376.536 210.46 375.636 210.46C375.078 210.46 374.718 210.253 374.718 209.767C374.718 209.083 375.654 208.948 376.419 208.948H376.851ZM382.445 207.31C382.022 206.851 381.428 206.635 380.807 206.635C379.475 206.635 378.575 207.571 378.575 208.885C378.575 210.199 379.493 211.108 380.807 211.108C381.428 211.108 382.004 210.919 382.427 210.451L381.851 209.875C381.581 210.19 381.266 210.352 380.816 210.352C379.979 210.352 379.439 209.704 379.439 208.903C379.439 208.102 379.889 207.391 380.771 207.391C381.221 207.391 381.536 207.553 381.833 207.868L382.445 207.31ZM387.156 209.164V208.876C387.156 207.778 386.58 206.626 385.077 206.626C383.799 206.626 382.872 207.589 382.872 208.867C382.872 210.136 383.718 211.108 385.068 211.108C385.887 211.108 386.508 210.82 386.958 210.235L386.346 209.767C386.031 210.154 385.671 210.406 385.176 210.406C384.429 210.406 383.736 209.911 383.736 209.164H387.156ZM383.736 208.516C383.736 207.949 384.258 207.274 385.059 207.274C385.878 207.274 386.274 207.805 386.292 208.516H383.736ZM388.125 211H388.935V208.858C388.935 207.922 389.367 207.49 390.159 207.49C390.285 207.49 390.42 207.517 390.555 207.553L390.591 206.68C390.483 206.644 390.357 206.626 390.231 206.626C389.7 206.626 389.16 206.941 388.953 207.391H388.935V206.734H388.125V211ZM397.588 204.628H394.168L394.096 207.985C394.528 207.769 395.086 207.652 395.41 207.652C396.319 207.652 396.949 208.12 396.949 209.047C396.949 209.857 396.391 210.352 395.707 210.352C395.14 210.352 394.753 210.109 394.528 209.524L393.655 209.821C393.952 210.649 394.708 211.108 395.572 211.108C396.814 211.108 397.813 210.271 397.813 209.002C397.813 207.76 397.03 206.896 395.833 206.896C395.626 206.896 395.158 206.95 394.978 207.031L395.005 205.438H397.588V204.628Z" fill="black"/>
<path d="M363.598 186.154C364.014 187.545 365.158 188.156 366.562 188.156C368.187 188.156 369.63 187.259 369.63 185.491C369.63 184.36 368.98 183.372 367.823 183.177V183.151C368.759 182.878 369.396 182.033 369.396 181.071C369.396 179.368 368.083 178.562 366.575 178.562C365.353 178.562 364.274 179.121 363.793 180.291L365.067 180.72C365.34 180.083 365.925 179.654 366.601 179.654C367.485 179.654 368.148 180.174 368.148 181.149C368.148 182.059 367.693 182.592 365.795 182.592V183.684C366.965 183.684 368.382 183.866 368.382 185.4C368.382 186.388 367.563 187.064 366.601 187.064C365.626 187.064 365.21 186.635 364.911 185.751L363.598 186.154ZM370.822 188H376.854V186.908H372.226L375.255 183.983C376.074 183.19 376.854 182.319 376.854 181.11C376.854 179.42 375.541 178.562 373.955 178.562C372.369 178.562 371.16 179.329 370.913 180.954L372.265 181.071C372.421 180.2 373.045 179.654 373.942 179.654C374.813 179.654 375.528 180.213 375.528 181.123C375.528 181.877 375.021 182.514 374.514 183.008L370.822 186.674V188ZM378.331 191.666H379.501V187.116H379.527C379.943 187.753 380.788 188.156 381.672 188.156C383.57 188.156 384.805 186.765 384.805 184.919C384.805 183.099 383.583 181.682 381.672 181.682C380.84 181.682 379.982 182.059 379.527 182.722H379.501V181.838H378.331V191.666ZM381.529 182.774C382.777 182.774 383.557 183.671 383.557 184.919C383.557 186.167 382.777 187.064 381.529 187.064C380.281 187.064 379.501 186.167 379.501 184.919C379.501 183.671 380.281 182.774 381.529 182.774ZM385.473 188H386.916L388.736 185.413L390.556 188H392.064L389.568 184.711L391.674 181.838H390.257L388.788 184.022L387.293 181.838H385.785L387.969 184.711L385.473 188Z" fill="black"/>
<path d="M482.368 188H483.616V185.972H484.916V184.88H483.616V178.796H482.108L478.442 184.698V185.972H482.368V188ZM482.368 184.88H479.534L482.342 180.278H482.368V184.88ZM488.838 188.156C490.515 188.156 491.841 187.103 491.841 185.361C491.841 184.217 491.087 183.385 490.086 183.112V183.073C490.775 182.891 491.529 182.202 491.529 180.928C491.529 179.537 490.281 178.64 488.838 178.64C487.395 178.64 486.147 179.537 486.147 180.928C486.147 182.202 486.901 182.891 487.59 183.073V183.112C486.589 183.385 485.835 184.217 485.835 185.361C485.835 187.103 487.161 188.156 488.838 188.156ZM487.395 181.11C487.395 180.252 488.045 179.654 488.838 179.654C489.696 179.654 490.281 180.265 490.281 181.11C490.281 181.864 489.8 182.566 488.838 182.566C487.915 182.566 487.395 181.825 487.395 181.11ZM488.838 187.064C487.889 187.064 487.083 186.44 487.083 185.361C487.083 184.386 487.824 183.671 488.838 183.658C489.813 183.671 490.593 184.243 490.593 185.361C490.593 186.362 489.878 187.064 488.838 187.064ZM493.331 191.666H494.501V187.116H494.527C494.943 187.753 495.788 188.156 496.672 188.156C498.57 188.156 499.805 186.765 499.805 184.919C499.805 183.099 498.583 181.682 496.672 181.682C495.84 181.682 494.982 182.059 494.527 182.722H494.501V181.838H493.331V191.666ZM496.529 182.774C497.777 182.774 498.557 183.671 498.557 184.919C498.557 186.167 497.777 187.064 496.529 187.064C495.281 187.064 494.501 186.167 494.501 184.919C494.501 183.671 495.281 182.774 496.529 182.774ZM500.473 188H501.916L503.736 185.413L505.556 188H507.064L504.568 184.711L506.674 181.838H505.257L503.788 184.022L502.293 181.838H500.785L502.969 184.711L500.473 188Z" fill="black"/>
<path d="M578.174 178.796H576.705L574.378 182.475C573.819 183.359 573.455 184.061 573.455 185.192C573.455 186.986 574.885 188.156 576.614 188.156C578.343 188.156 579.773 187.09 579.773 185.062C579.773 183.047 578.252 182.15 576.926 182.15C576.549 182.15 576.211 182.215 575.912 182.358H575.86L578.174 178.796ZM574.703 185.153C574.703 184.035 575.47 183.242 576.614 183.242C577.758 183.242 578.525 184.035 578.525 185.153C578.525 186.271 577.758 187.064 576.614 187.064C575.47 187.064 574.703 186.271 574.703 185.153ZM584.592 188H585.84V185.972H587.14V184.88H585.84V178.796H584.332L580.666 184.698V185.972H584.592V188ZM584.592 184.88H581.758L584.566 180.278H584.592V184.88ZM588.331 191.666H589.501V187.116H589.527C589.943 187.753 590.788 188.156 591.672 188.156C593.57 188.156 594.805 186.765 594.805 184.919C594.805 183.099 593.583 181.682 591.672 181.682C590.84 181.682 589.982 182.059 589.527 182.722H589.501V181.838H588.331V191.666ZM591.529 182.774C592.777 182.774 593.557 183.671 593.557 184.919C593.557 186.167 592.777 187.064 591.529 187.064C590.281 187.064 589.501 186.167 589.501 184.919C589.501 183.671 590.281 182.774 591.529 182.774ZM595.473 188H596.916L598.736 185.413L600.556 188H602.064L599.568 184.711L601.674 181.838H600.257L598.788 184.022L597.293 181.838H595.785L597.969 184.711L595.473 188Z" fill="black"/>
<rect x="478" y="96" width="48" height="48" fill="#85CEE2"/>
<path d="M500.136 122V121.172H498.246V120.632L500.256 117.77H500.88V120.584H501.486V121.172H500.88V122H500.136ZM500.136 120.584V118.682H500.28L498.822 120.764V120.584H500.136ZM503.398 122.06C502.902 122.06 502.514 121.954 502.234 121.742C501.958 121.53 501.82 121.236 501.82 120.86C501.82 120.564 501.91 120.318 502.09 120.122C502.27 119.926 502.504 119.81 502.792 119.774V119.9C502.532 119.844 502.322 119.722 502.162 119.534C502.006 119.346 501.928 119.118 501.928 118.85C501.928 118.494 502.058 118.216 502.318 118.016C502.582 117.812 502.942 117.71 503.398 117.71C503.858 117.71 504.218 117.812 504.478 118.016C504.742 118.216 504.874 118.494 504.874 118.85C504.874 119.118 504.798 119.348 504.646 119.54C504.498 119.732 504.296 119.85 504.04 119.894V119.774C504.324 119.814 504.552 119.932 504.724 120.128C504.896 120.32 504.982 120.564 504.982 120.86C504.982 121.236 504.842 121.53 504.562 121.742C504.286 121.954 503.898 122.06 503.398 122.06ZM503.398 121.46C503.69 121.46 503.908 121.406 504.052 121.298C504.196 121.186 504.268 121.022 504.268 120.806C504.268 120.59 504.196 120.428 504.052 120.32C503.908 120.212 503.69 120.158 503.398 120.158C503.11 120.158 502.892 120.212 502.744 120.32C502.6 120.428 502.528 120.59 502.528 120.806C502.528 121.022 502.6 121.186 502.744 121.298C502.892 121.406 503.11 121.46 503.398 121.46ZM503.398 119.558C503.646 119.558 503.834 119.502 503.962 119.39C504.094 119.278 504.16 119.124 504.16 118.928C504.16 118.736 504.094 118.586 503.962 118.478C503.834 118.366 503.646 118.31 503.398 118.31C503.154 118.31 502.966 118.366 502.834 118.478C502.706 118.586 502.642 118.736 502.642 118.928C502.642 119.124 502.706 119.278 502.834 119.39C502.966 119.502 503.154 119.558 503.398 119.558Z" fill="black"/>
<rect x="573" y="80" width="64" height="64" fill="#34B9B3"/>
<path d="M602.95 114.06C602.418 114.06 602.006 113.876 601.714 113.508C601.426 113.14 601.282 112.624 601.282 111.96C601.282 111.48 601.356 111.074 601.504 110.742C601.652 110.406 601.862 110.15 602.134 109.974C602.41 109.798 602.74 109.71 603.124 109.71C603.352 109.71 603.578 109.752 603.802 109.836C604.026 109.916 604.218 110.032 604.378 110.184L604.12 110.76C603.972 110.624 603.812 110.524 603.64 110.46C603.468 110.392 603.294 110.358 603.118 110.358C602.758 110.358 602.484 110.48 602.296 110.724C602.108 110.968 602.014 111.332 602.014 111.816V112.266H601.942C601.974 112.062 602.042 111.888 602.146 111.744C602.25 111.596 602.384 111.484 602.548 111.408C602.712 111.328 602.894 111.288 603.094 111.288C603.342 111.288 603.562 111.346 603.754 111.462C603.946 111.578 604.096 111.738 604.204 111.942C604.316 112.146 604.372 112.38 604.372 112.644C604.372 112.916 604.31 113.16 604.186 113.376C604.066 113.588 603.9 113.756 603.688 113.88C603.476 114 603.23 114.06 602.95 114.06ZM602.908 113.448C603.056 113.448 603.186 113.416 603.298 113.352C603.41 113.288 603.496 113.198 603.556 113.082C603.62 112.962 603.652 112.826 603.652 112.674C603.652 112.518 603.62 112.382 603.556 112.266C603.496 112.15 603.41 112.06 603.298 111.996C603.186 111.928 603.056 111.894 602.908 111.894C602.76 111.894 602.63 111.928 602.518 111.996C602.406 112.06 602.318 112.15 602.254 112.266C602.19 112.382 602.158 112.518 602.158 112.674C602.158 112.826 602.19 112.962 602.254 113.082C602.318 113.198 602.406 113.288 602.518 113.352C602.63 113.416 602.76 113.448 602.908 113.448ZM606.734 114V113.172H604.844V112.632L606.854 109.77H607.478V112.584H608.084V113.172H607.478V114H606.734ZM606.734 112.584V110.682H606.878L605.42 112.764V112.584H606.734Z" fill="black"/>
<rect x="363" y="112" width="32" height="32" fill="#DA2901"/>
<path d="M376.734 130.06C376.442 130.06 376.162 130.018 375.894 129.934C375.626 129.846 375.406 129.726 375.234 129.574L375.486 128.992C375.674 129.136 375.868 129.242 376.068 129.31C376.272 129.378 376.486 129.412 376.71 129.412C376.982 129.412 377.188 129.358 377.328 129.25C377.468 129.142 377.538 128.984 377.538 128.776C377.538 128.576 377.468 128.426 377.328 128.326C377.192 128.222 376.992 128.17 376.728 128.17H376.044V127.552H376.662C376.89 127.552 377.072 127.496 377.208 127.384C377.344 127.272 377.412 127.118 377.412 126.922C377.412 126.738 377.348 126.598 377.22 126.502C377.096 126.406 376.916 126.358 376.68 126.358C376.256 126.358 375.882 126.502 375.558 126.79L375.306 126.214C375.478 126.054 375.69 125.93 375.942 125.842C376.198 125.754 376.466 125.71 376.746 125.71C377.186 125.71 377.53 125.81 377.778 126.01C378.03 126.206 378.156 126.48 378.156 126.832C378.156 127.084 378.084 127.302 377.94 127.486C377.8 127.666 377.606 127.786 377.358 127.846V127.774C377.65 127.822 377.876 127.942 378.036 128.134C378.2 128.322 378.282 128.558 378.282 128.842C378.282 129.218 378.144 129.516 377.868 129.736C377.592 129.952 377.214 130.06 376.734 130.06ZM379.066 130V129.43L380.47 127.966C380.646 127.782 380.776 127.612 380.86 127.456C380.944 127.3 380.986 127.14 380.986 126.976C380.986 126.772 380.922 126.618 380.794 126.514C380.666 126.41 380.48 126.358 380.236 126.358C380.04 126.358 379.852 126.394 379.672 126.466C379.492 126.534 379.316 126.642 379.144 126.79L378.892 126.214C379.064 126.062 379.276 125.94 379.528 125.848C379.784 125.756 380.052 125.71 380.332 125.71C380.788 125.71 381.138 125.812 381.382 126.016C381.626 126.22 381.748 126.512 381.748 126.892C381.748 127.156 381.686 127.408 381.562 127.648C381.438 127.884 381.246 128.132 380.986 128.392L379.816 129.562V129.358H381.916V130H379.066Z" fill="black"/>
<rect x="268" y="120" width="24" height="24" fill="#5666BC"/>
<path d="M276.468 134V133.43L277.872 131.966C278.048 131.782 278.178 131.612 278.262 131.456C278.346 131.3 278.388 131.14 278.388 130.976C278.388 130.772 278.324 130.618 278.196 130.514C278.068 130.41 277.882 130.358 277.638 130.358C277.442 130.358 277.254 130.394 277.074 130.466C276.894 130.534 276.718 130.642 276.546 130.79L276.294 130.214C276.466 130.062 276.678 129.94 276.93 129.848C277.186 129.756 277.454 129.71 277.734 129.71C278.19 129.71 278.54 129.812 278.784 130.016C279.028 130.22 279.15 130.512 279.15 130.892C279.15 131.156 279.088 131.408 278.964 131.648C278.84 131.884 278.648 132.132 278.388 132.392L277.218 133.562V133.358H279.318V134H276.468ZM281.734 134V133.172H279.844V132.632L281.854 129.77H282.478V132.584H283.084V133.172H282.478V134H281.734ZM281.734 132.584V130.682H281.878L280.42 132.764V132.584H281.734Z" fill="black"/>
<rect x="173" y="128" width="16" height="16" fill="#FFD565"/>
<path d="M177.666 138V137.358H178.638V134.418H179.01L177.762 135.162V134.43L178.86 133.77H179.412V137.358H180.324V138H177.666ZM182.548 138.06C182.016 138.06 181.604 137.876 181.312 137.508C181.024 137.14 180.88 136.624 180.88 135.96C180.88 135.48 180.954 135.074 181.102 134.742C181.25 134.406 181.46 134.15 181.732 133.974C182.008 133.798 182.338 133.71 182.722 133.71C182.95 133.71 183.176 133.752 183.4 133.836C183.624 133.916 183.816 134.032 183.976 134.184L183.718 134.76C183.57 134.624 183.41 134.524 183.238 134.46C183.066 134.392 182.892 134.358 182.716 134.358C182.356 134.358 182.082 134.48 181.894 134.724C181.706 134.968 181.612 135.332 181.612 135.816V136.266H181.54C181.572 136.062 181.64 135.888 181.744 135.744C181.848 135.596 181.982 135.484 182.146 135.408C182.31 135.328 182.492 135.288 182.692 135.288C182.94 135.288 183.16 135.346 183.352 135.462C183.544 135.578 183.694 135.738 183.802 135.942C183.914 136.146 183.97 136.38 183.97 136.644C183.97 136.916 183.908 137.16 183.784 137.376C183.664 137.588 183.498 137.756 183.286 137.88C183.074 138 182.828 138.06 182.548 138.06ZM182.506 137.448C182.654 137.448 182.784 137.416 182.896 137.352C183.008 137.288 183.094 137.198 183.154 137.082C183.218 136.962 183.25 136.826 183.25 136.674C183.25 136.518 183.218 136.382 183.154 136.266C183.094 136.15 183.008 136.06 182.896 135.996C182.784 135.928 182.654 135.894 182.506 135.894C182.358 135.894 182.228 135.928 182.116 135.996C182.004 136.06 181.916 136.15 181.852 136.266C181.788 136.382 181.756 136.518 181.756 136.674C181.756 136.826 181.788 136.962 181.852 137.082C181.916 137.198 182.004 137.288 182.116 137.352C182.228 137.416 182.358 137.448 182.506 137.448Z" fill="black"/>
<rect x="78" y="136" width="8" height="8" fill="#F0E04D"/>
<path d="M81.8 142.06C81.304 142.06 80.916 141.954 80.636 141.742C80.36 141.53 80.222 141.236 80.222 140.86C80.222 140.564 80.312 140.318 80.492 140.122C80.672 139.926 80.906 139.81 81.194 139.774V139.9C80.934 139.844 80.724 139.722 80.564 139.534C80.408 139.346 80.33 139.118 80.33 138.85C80.33 138.494 80.46 138.216 80.72 138.016C80.984 137.812 81.344 137.71 81.8 137.71C82.26 137.71 82.62 137.812 82.88 138.016C83.144 138.216 83.276 138.494 83.276 138.85C83.276 139.118 83.2 139.348 83.048 139.54C82.9 139.732 82.698 139.85 82.442 139.894V139.774C82.726 139.814 82.954 139.932 83.126 140.128C83.298 140.32 83.384 140.564 83.384 140.86C83.384 141.236 83.244 141.53 82.964 141.742C82.688 141.954 82.3 142.06 81.8 142.06ZM81.8 141.46C82.092 141.46 82.31 141.406 82.454 141.298C82.598 141.186 82.67 141.022 82.67 140.806C82.67 140.59 82.598 140.428 82.454 140.32C82.31 140.212 82.092 140.158 81.8 140.158C81.512 140.158 81.294 140.212 81.146 140.32C81.002 140.428 80.93 140.59 80.93 140.806C80.93 141.022 81.002 141.186 81.146 141.298C81.294 141.406 81.512 141.46 81.8 141.46ZM81.8 139.558C82.048 139.558 82.236 139.502 82.364 139.39C82.496 139.278 82.562 139.124 82.562 138.928C82.562 138.736 82.496 138.586 82.364 138.478C82.236 138.366 82.048 138.31 81.8 138.31C81.556 138.31 81.368 138.366 81.236 138.478C81.108 138.586 81.044 138.736 81.044 138.928C81.044 139.124 81.108 139.278 81.236 139.39C81.368 139.502 81.556 139.558 81.8 139.558Z" fill="#081934"/>
<rect x="78" y="136" width="8" height="8" fill="#A1D978"/>
<path d="M81.8 142.06C81.304 142.06 80.916 141.954 80.636 141.742C80.36 141.53 80.222 141.236 80.222 140.86C80.222 140.564 80.312 140.318 80.492 140.122C80.672 139.926 80.906 139.81 81.194 139.774V139.9C80.934 139.844 80.724 139.722 80.564 139.534C80.408 139.346 80.33 139.118 80.33 138.85C80.33 138.494 80.46 138.216 80.72 138.016C80.984 137.812 81.344 137.71 81.8 137.71C82.26 137.71 82.62 137.812 82.88 138.016C83.144 138.216 83.276 138.494 83.276 138.85C83.276 139.118 83.2 139.348 83.048 139.54C82.9 139.732 82.698 139.85 82.442 139.894V139.774C82.726 139.814 82.954 139.932 83.126 140.128C83.298 140.32 83.384 140.564 83.384 140.86C83.384 141.236 83.244 141.53 82.964 141.742C82.688 141.954 82.3 142.06 81.8 142.06ZM81.8 141.46C82.092 141.46 82.31 141.406 82.454 141.298C82.598 141.186 82.67 141.022 82.67 140.806C82.67 140.59 82.598 140.428 82.454 140.32C82.31 140.212 82.092 140.158 81.8 140.158C81.512 140.158 81.294 140.212 81.146 140.32C81.002 140.428 80.93 140.59 80.93 140.806C80.93 141.022 81.002 141.186 81.146 141.298C81.294 141.406 81.512 141.46 81.8 141.46ZM81.8 139.558C82.048 139.558 82.236 139.502 82.364 139.39C82.496 139.278 82.562 139.124 82.562 138.928C82.562 138.736 82.496 138.586 82.364 138.478C82.236 138.366 82.048 138.31 81.8 138.31C81.556 138.31 81.368 138.366 81.236 138.478C81.108 138.586 81.044 138.736 81.044 138.928C81.044 139.124 81.108 139.278 81.236 139.39C81.368 139.502 81.556 139.558 81.8 139.558Z" fill="#081934"/>
<rect x="5" y="140" width="4" height="4" fill="#D4254E"/>
<path d="M105.403 19.2H115.627L118.075 21.672V27.384L115.603 29.88H108.187V36H105.403V19.2ZM114.379 27.528L115.339 26.568V22.512L114.379 21.552H108.187V27.528H114.379ZM119.969 33.864V31.032L122.105 28.92H128.273V27.144L127.385 26.256H123.617L122.729 27.144V27.912H120.065V26.52L122.513 24.048H128.489L130.937 26.52V36H128.465V34.152L126.545 36H122.105L119.969 33.864ZM126.281 33.864L128.273 31.944V30.936H123.401L122.633 31.68V33.144L123.353 33.864H126.281ZM134.056 33.6V26.448L136.432 24.048H141.136L142.744 25.44V18.864H145.456V36H142.888V34.032L140.92 36H136.432L134.056 33.6ZM140.608 33.672L142.744 31.512V28.008L140.896 26.376H137.776L136.768 27.384V32.664L137.776 33.672H140.608ZM148.679 33.6V26.448L151.055 24.048H155.759L157.367 25.44V18.864H160.079V36H157.511V34.032L155.543 36H151.055L148.679 33.6ZM155.231 33.672L157.367 31.512V28.008L155.519 26.376H152.399L151.391 27.384V32.664L152.399 33.672H155.231ZM163.423 21.48V20.088L164.407 19.128H165.871L166.855 20.088V21.48L165.871 22.44H164.407L163.423 21.48ZM163.783 24.048H166.495V36H163.783V24.048ZM170.197 24.048H172.717V26.232L174.901 24.048H178.693L181.213 26.568V36H178.501V27.312L177.565 26.376H175.405L172.909 28.896V36H170.197V24.048ZM195.723 24.048V38.832L193.251 41.28H186.939L184.851 39.192V37.608H187.539V38.4L188.139 39H192.075L193.011 38.04V34.296L191.163 36H186.699L184.323 33.6V26.448L186.699 24.048H191.355L193.179 25.824V24.048H195.723ZM193.011 28.176L191.091 26.376H188.043L187.035 27.384V32.664L188.043 33.672H190.875L193.011 31.584V28.176Z" fill="#F74480"/>
<g clip-path="url(#clip0_402_39766)">
<line x1="150.5" y1="88" x2="150.5" y2="48" stroke="#F74480"/>
<line x1="291.5" y1="88" x2="291.5" y2="96" stroke="#F74480"/>
<line x1="9.5" y1="88" x2="9.5" y2="96" stroke="#F74480"/>
<line x1="292" y1="88.5" x2="9.00003" y2="88.5" stroke="#F74480"/>
</g>
<g clip-path="url(#clip1_402_39766)">
<line x1="323.5" y1="286" x2="323.5" y2="326" stroke="#F74480"/>
<line x1="9.5" y1="286" x2="9.5" y2="278" stroke="#F74480"/>
<line x1="636.5" y1="286" x2="636.5" y2="278" stroke="#F74480"/>
<line x1="9" y1="285.5" x2="637" y2="285.5" stroke="#F74480"/>
</g>
<path d="M285.672 337.2H288.336L293.472 348.768H293.52L298.656 337.2H301.344V354H298.68V342.768H298.632L294.408 351.864H292.584L288.384 342.768H288.336V354H285.672V337.2ZM304.573 351.864V349.032L306.709 346.92H312.877V345.144L311.989 344.256H308.221L307.333 345.144V345.912H304.669V344.52L307.117 342.048H313.093L315.541 344.52V354H313.069V352.152L311.149 354H306.709L304.573 351.864ZM310.885 351.864L312.877 349.944V348.936H308.005L307.237 349.68V351.144L307.957 351.864H310.885ZM318.901 342.048H321.421V344.088L323.413 342.048H326.725V344.376H324.013L321.613 346.824V354H318.901V342.048ZM339.434 342.048V356.832L336.962 359.28H330.65L328.562 357.192V355.608H331.25V356.4L331.85 357H335.786L336.722 356.04V352.296L334.874 354H330.41L328.034 351.6V344.448L330.41 342.048H335.066L336.89 343.824V342.048H339.434ZM336.722 346.176L334.802 344.376H331.754L330.746 345.384V350.664L331.754 351.672H334.586L336.722 349.584V346.176ZM342.777 339.48V338.088L343.761 337.128H345.225L346.209 338.088V339.48L345.225 340.44H343.761L342.777 339.48ZM343.137 342.048H345.849V354H343.137V342.048ZM349.552 342.048H352.072V344.232L354.256 342.048H358.048L360.568 344.568V354H357.856V345.312L356.92 344.376H354.76L352.264 346.896V354H349.552V342.048Z" fill="#D63384"/>
<defs>
<clipPath id="clip0_402_39766">
<rect width="48" height="283" fill="white" transform="translate(292 48) rotate(90)"/>
</clipPath>
<clipPath id="clip1_402_39766">
<rect width="48" height="628" fill="white" transform="translate(9 326) rotate(-90)"/>
</clipPath>
</defs>
</svg>
