<svg width="725" height="350" viewBox="0 0 725 350" fill="none" xmlns="http://www.w3.org/2000/svg">
<rect width="725" height="350" fill="white"/>
<path d="M39.264 307H43.488C46.208 307 49.488 305.208 49.488 301.336C49.488 297.496 46.704 295.672 43.728 295.672H39.264V307ZM41.28 305.176V297.496H43.12C45.584 297.496 47.376 298.584 47.376 301.336C47.376 304.088 45.312 305.176 42.784 305.176H41.28ZM50.8446 303.16C50.8446 305.576 52.7006 307.192 55.0206 307.192C57.3406 307.192 59.1966 305.576 59.1966 303.16C59.1966 300.744 57.3406 299.128 55.0206 299.128C52.7006 299.128 50.8446 300.744 50.8446 303.16ZM52.7646 303.16C52.7646 301.96 53.6126 300.856 55.0206 300.856C56.4286 300.856 57.2766 301.96 57.2766 303.16C57.2766 304.36 56.4286 305.464 55.0206 305.464C53.6126 305.464 52.7646 304.36 52.7646 303.16ZM60.8583 306.02C60.8583 306.622 61.3903 307.084 61.9783 307.084C62.5943 307.084 63.0983 306.594 63.0983 305.992C63.0983 305.39 62.5803 304.928 61.9783 304.928C61.3623 304.928 60.8583 305.418 60.8583 306.02ZM60.8583 301.274C60.8583 301.876 61.3903 302.338 61.9783 302.338C62.5943 302.338 63.0983 301.848 63.0983 301.246C63.0983 300.644 62.5803 300.182 61.9783 300.182C61.3623 300.182 60.8583 300.672 60.8583 301.274Z" fill="black"/>
<path d="M84.04 300.664H80.088V301.912H82.696V305.384C81.864 305.8 80.792 306.04 79.88 306.04C77.096 306.04 75.192 304.04 75.192 301.336C75.192 298.584 77.16 296.632 79.752 296.632C80.904 296.632 82.072 297.096 82.84 297.928L83.848 296.872C82.776 295.784 81.336 295.384 79.848 295.384C76.456 295.384 73.752 297.768 73.752 301.336C73.752 304.888 76.28 307.288 79.8 307.288C81.272 307.288 82.744 306.952 84.04 306.232V300.664ZM86.6371 307H87.8851V303.352C87.8851 301.64 88.5571 300.568 90.0771 300.568C90.3011 300.568 90.5411 300.6 90.7491 300.664L90.8291 299.4C90.6531 299.336 90.4771 299.32 90.3171 299.32C89.0851 299.32 88.1571 300.008 87.8211 300.744H87.7891C87.7891 300.328 87.7571 299.912 87.7571 299.512H86.5731C86.5731 300.008 86.6371 300.6 86.6371 301.288V307ZM91.5489 303.256C91.5489 305.592 93.2449 307.192 95.5489 307.192C97.8529 307.192 99.5489 305.592 99.5489 303.256C99.5489 300.92 97.8529 299.32 95.5489 299.32C93.2449 299.32 91.5489 300.92 91.5489 303.256ZM92.8929 303.256C92.8929 301.688 93.9329 300.472 95.5489 300.472C97.1649 300.472 98.2049 301.688 98.2049 303.256C98.2049 304.824 97.1649 306.04 95.5489 306.04C93.9329 306.04 92.8929 304.824 92.8929 303.256ZM108.009 299.512H106.761V303.16C106.761 304.872 106.057 306.04 104.441 306.04C103.273 306.04 102.729 305.256 102.729 304.008V299.512H101.481V304.136C101.481 305.944 102.361 307.192 104.329 307.192C105.561 307.192 106.489 306.504 106.825 305.768H106.857C106.857 306.184 106.889 306.6 106.889 307H108.073C108.073 306.504 108.009 305.912 108.009 305.224V299.512ZM110.308 310.648H111.556V305.672H111.588C112.052 306.52 113.124 307.192 114.468 307.192C116.564 307.192 118.212 305.496 118.212 303.256C118.212 300.984 116.628 299.32 114.276 299.32C113.188 299.32 112.276 299.8 111.588 300.6H111.556V299.512H110.308V310.648ZM111.556 303.256C111.556 301.688 112.596 300.472 114.212 300.472C115.828 300.472 116.868 301.688 116.868 303.256C116.868 304.824 115.828 306.04 114.212 306.04C112.596 306.04 111.556 304.824 111.556 303.256ZM124.606 307H125.854V303.352C125.854 301.64 126.526 300.568 128.046 300.568C128.27 300.568 128.51 300.6 128.718 300.664L128.798 299.4C128.622 299.336 128.446 299.32 128.286 299.32C127.054 299.32 126.126 300.008 125.79 300.744H125.758C125.758 300.328 125.726 299.912 125.726 299.512H124.542C124.542 300.008 124.606 300.6 124.606 301.288V307ZM135.694 304.904C135.102 305.656 134.382 306.04 133.31 306.04C131.95 306.04 130.958 304.936 130.862 303.64H136.91V303.24C136.91 300.76 135.47 299.32 133.358 299.32C131.15 299.32 129.518 300.936 129.518 303.256C129.518 305.432 130.958 307.192 133.31 307.192C134.702 307.192 135.758 306.776 136.638 305.64L135.694 304.904ZM130.862 302.584C131.022 301.32 131.934 300.472 133.31 300.472C134.686 300.472 135.518 301.32 135.566 302.584H130.862ZM138.952 307H140.2V294.904H138.952V307ZM143.372 301.288C143.964 300.744 144.796 300.472 145.596 300.472C146.764 300.472 147.452 301.032 147.452 302.12V302.344H146.972C145.132 302.344 142.252 302.488 142.252 304.968C142.252 306.424 143.516 307.192 145.036 307.192C146.172 307.192 147.004 306.648 147.5 305.88H147.532C147.532 306.2 147.532 306.664 147.612 307H148.812C148.748 306.616 148.7 306.136 148.7 305.704V302.488C148.7 300.376 147.772 299.32 145.564 299.32C144.476 299.32 143.356 299.688 142.588 300.472L143.372 301.288ZM147.452 303.4V303.88C147.42 305.096 146.684 306.136 145.244 306.136C144.3 306.136 143.596 305.784 143.596 304.84C143.596 303.832 144.62 303.4 146.204 303.4H147.452ZM155.077 299.512H152.869V297.384H151.621V299.512H149.989V300.568H151.621V304.68C151.621 306.232 151.909 307.192 153.685 307.192C154.149 307.192 154.709 307.112 155.141 306.92L155.093 305.784C154.757 305.96 154.357 306.04 153.989 306.04C152.885 306.04 152.869 305.272 152.869 304.312V300.568H155.077V299.512ZM162.35 304.904C161.758 305.656 161.038 306.04 159.966 306.04C158.606 306.04 157.614 304.936 157.518 303.64H163.566V303.24C163.566 300.76 162.126 299.32 160.014 299.32C157.806 299.32 156.174 300.936 156.174 303.256C156.174 305.432 157.614 307.192 159.966 307.192C161.358 307.192 162.414 306.776 163.294 305.64L162.35 304.904ZM157.518 302.584C157.678 301.32 158.59 300.472 159.966 300.472C161.342 300.472 162.174 301.32 162.222 302.584H157.518ZM171.721 307H172.969V294.904H171.721V300.6H171.689C171.001 299.8 170.089 299.32 169.001 299.32C166.649 299.32 165.065 300.984 165.065 303.256C165.065 305.496 166.713 307.192 168.809 307.192C170.153 307.192 171.225 306.52 171.689 305.672H171.721V307ZM171.721 303.256C171.721 304.824 170.681 306.04 169.065 306.04C167.449 306.04 166.409 304.824 166.409 303.256C166.409 301.688 167.449 300.472 169.065 300.472C170.681 300.472 171.721 301.688 171.721 303.256ZM179.843 307H181.091V299.512H179.843V307ZM179.555 296.584C179.555 297.112 179.939 297.496 180.467 297.496C180.995 297.496 181.379 297.112 181.379 296.584C181.379 296.088 180.979 295.672 180.467 295.672C179.955 295.672 179.555 296.088 179.555 296.584ZM187.671 299.512H185.463V297.384H184.215V299.512H182.583V300.568H184.215V304.68C184.215 306.232 184.503 307.192 186.279 307.192C186.743 307.192 187.303 307.112 187.735 306.92L187.687 305.784C187.351 305.96 186.951 306.04 186.583 306.04C185.479 306.04 185.463 305.272 185.463 304.312V300.568H187.671V299.512ZM194.944 304.904C194.352 305.656 193.632 306.04 192.56 306.04C191.2 306.04 190.208 304.936 190.112 303.64H196.16V303.24C196.16 300.76 194.72 299.32 192.608 299.32C190.4 299.32 188.768 300.936 188.768 303.256C188.768 305.432 190.208 307.192 192.56 307.192C193.952 307.192 195.008 306.776 195.888 305.64L194.944 304.904ZM190.112 302.584C190.272 301.32 191.184 300.472 192.56 300.472C193.936 300.472 194.768 301.32 194.816 302.584H190.112ZM198.09 307H199.338V303.352C199.338 301.64 200.042 300.472 201.658 300.472C202.682 300.472 203.098 301.112 203.098 302.76V307H204.346V302.68C204.346 301.336 205.226 300.472 206.282 300.472C207.738 300.472 208.106 301.48 208.106 302.52V307H209.354V302.456C209.354 300.52 208.65 299.32 206.506 299.32C205.37 299.32 204.682 299.864 204.138 300.744C203.898 300.232 203.386 299.32 201.77 299.32C200.538 299.32 199.61 300.008 199.274 300.744H199.242C199.242 300.328 199.21 299.912 199.21 299.512H198.026C198.026 300.008 198.09 300.6 198.09 301.288V307ZM210.883 305.8C211.619 306.856 212.531 307.192 213.795 307.192C215.283 307.192 216.787 306.536 216.787 304.84C216.787 303.336 215.667 302.856 214.339 302.6C213.347 302.408 212.451 302.136 212.451 301.512C212.451 300.808 213.235 300.472 213.923 300.472C214.659 300.472 215.187 300.84 215.507 301.368L216.547 300.68C216.035 299.72 215.059 299.32 214.003 299.32C212.611 299.32 211.203 300.072 211.203 301.528C211.203 303.08 212.419 303.384 213.843 303.704C214.643 303.88 215.443 304.088 215.443 304.888C215.443 305.704 214.579 306.04 213.795 306.04C212.915 306.04 212.371 305.64 211.875 305.032L210.883 305.8ZM227.077 299.512H224.869V297.384H223.621V299.512H221.989V300.568H223.621V304.68C223.621 306.232 223.909 307.192 225.685 307.192C226.149 307.192 226.709 307.112 227.141 306.92L227.093 305.784C226.757 305.96 226.357 306.04 225.989 306.04C224.885 306.04 224.869 305.272 224.869 304.312V300.568H227.077V299.512ZM228.174 303.256C228.174 305.592 229.87 307.192 232.174 307.192C234.478 307.192 236.174 305.592 236.174 303.256C236.174 300.92 234.478 299.32 232.174 299.32C229.87 299.32 228.174 300.92 228.174 303.256ZM229.518 303.256C229.518 301.688 230.558 300.472 232.174 300.472C233.79 300.472 234.83 301.688 234.83 303.256C234.83 304.824 233.79 306.04 232.174 306.04C230.558 306.04 229.518 304.824 229.518 303.256ZM245.578 299.512H244.33V300.792H244.298C243.802 299.8 242.666 299.32 241.658 299.32C239.274 299.32 237.674 300.808 237.674 303.256C237.674 305.464 239.306 307.096 241.658 307.096C242.65 307.096 243.706 306.664 244.298 305.704H244.33V306.664C244.33 308.248 243.738 309.688 241.498 309.688C240.346 309.688 239.498 309.24 238.714 308.392L237.818 309.416C238.874 310.456 240.042 310.84 241.498 310.84C244.122 310.84 245.578 309.368 245.578 306.664V299.512ZM239.018 303.256C239.018 301.688 240.09 300.472 241.658 300.472C243.242 300.472 244.33 301.608 244.33 303.224C244.33 304.664 243.37 305.944 241.658 305.944C240.202 305.944 239.018 304.776 239.018 303.256ZM253.631 304.904C253.039 305.656 252.319 306.04 251.247 306.04C249.887 306.04 248.895 304.936 248.799 303.64H254.847V303.24C254.847 300.76 253.407 299.32 251.295 299.32C249.087 299.32 247.455 300.936 247.455 303.256C247.455 305.432 248.895 307.192 251.247 307.192C252.639 307.192 253.695 306.776 254.575 305.64L253.631 304.904ZM248.799 302.584C248.959 301.32 249.871 300.472 251.247 300.472C252.623 300.472 253.455 301.32 253.503 302.584H248.799ZM260.874 299.512H258.666V297.384H257.418V299.512H255.786V300.568H257.418V304.68C257.418 306.232 257.706 307.192 259.482 307.192C259.946 307.192 260.506 307.112 260.938 306.92L260.89 305.784C260.554 305.96 260.154 306.04 259.786 306.04C258.682 306.04 258.666 305.272 258.666 304.312V300.568H260.874V299.512ZM262.403 307H263.651V303.352C263.651 301.64 264.355 300.472 265.971 300.472C267.139 300.472 267.683 301.256 267.683 302.504V307H268.931V302.376C268.931 300.568 268.051 299.32 266.083 299.32C264.915 299.32 264.019 299.96 263.683 300.552H263.651V294.904H262.403V307ZM277.037 304.904C276.445 305.656 275.725 306.04 274.653 306.04C273.293 306.04 272.301 304.936 272.205 303.64H278.253V303.24C278.253 300.76 276.813 299.32 274.701 299.32C272.493 299.32 270.861 300.936 270.861 303.256C270.861 305.432 272.301 307.192 274.653 307.192C276.045 307.192 277.101 306.776 277.981 305.64L277.037 304.904ZM272.205 302.584C272.365 301.32 273.277 300.472 274.653 300.472C276.029 300.472 276.861 301.32 276.909 302.584H272.205ZM280.184 307H281.432V303.352C281.432 301.64 282.104 300.568 283.624 300.568C283.848 300.568 284.088 300.6 284.296 300.664L284.376 299.4C284.2 299.336 284.024 299.32 283.864 299.32C282.632 299.32 281.704 300.008 281.368 300.744H281.336C281.336 300.328 281.304 299.912 281.304 299.512H280.12C280.12 300.008 280.184 300.6 280.184 301.288V307ZM290.902 307H292.15V300.568H293.974V299.512H292.15V298.104C292.15 296.808 292.198 295.864 293.494 295.864C293.782 295.864 294.07 295.928 294.342 296.024L294.518 294.904C294.278 294.776 293.878 294.712 293.558 294.712C291.542 294.712 290.902 296.008 290.902 297.832V299.512H289.27V300.568H290.902V307ZM294.877 303.256C294.877 305.592 296.573 307.192 298.877 307.192C301.181 307.192 302.877 305.592 302.877 303.256C302.877 300.92 301.181 299.32 298.877 299.32C296.573 299.32 294.877 300.92 294.877 303.256ZM296.221 303.256C296.221 301.688 297.261 300.472 298.877 300.472C300.493 300.472 301.533 301.688 301.533 303.256C301.533 304.824 300.493 306.04 298.877 306.04C297.261 306.04 296.221 304.824 296.221 303.256ZM304.809 307H306.057V303.352C306.057 301.64 306.729 300.568 308.249 300.568C308.473 300.568 308.713 300.6 308.921 300.664L309.001 299.4C308.825 299.336 308.649 299.32 308.489 299.32C307.257 299.32 306.329 300.008 305.993 300.744H305.961C305.961 300.328 305.929 299.912 305.929 299.512H304.745C304.745 300.008 304.809 300.6 304.809 301.288V307ZM79.928 328.904C79.336 329.656 78.616 330.04 77.544 330.04C76.184 330.04 75.192 328.936 75.096 327.64H81.144V327.24C81.144 324.76 79.704 323.32 77.592 323.32C75.384 323.32 73.752 324.936 73.752 327.256C73.752 329.432 75.192 331.192 77.544 331.192C78.936 331.192 79.992 330.776 80.872 329.64L79.928 328.904ZM75.096 326.584C75.256 325.32 76.168 324.472 77.544 324.472C78.92 324.472 79.752 325.32 79.8 326.584H75.096ZM83.7626 325.288C84.3546 324.744 85.1866 324.472 85.9866 324.472C87.1546 324.472 87.8426 325.032 87.8426 326.12V326.344H87.3626C85.5226 326.344 82.6426 326.488 82.6426 328.968C82.6426 330.424 83.9066 331.192 85.4266 331.192C86.5626 331.192 87.3946 330.648 87.8906 329.88H87.9226C87.9226 330.2 87.9226 330.664 88.0026 331H89.2026C89.1386 330.616 89.0906 330.136 89.0906 329.704V326.488C89.0906 324.376 88.1626 323.32 85.9546 323.32C84.8666 323.32 83.7466 323.688 82.9786 324.472L83.7626 325.288ZM87.8426 327.4V327.88C87.8106 329.096 87.0746 330.136 85.6346 330.136C84.6906 330.136 83.9866 329.784 83.9866 328.84C83.9866 327.832 85.0106 327.4 86.5946 327.4H87.8426ZM90.5395 329.8C91.2755 330.856 92.1875 331.192 93.4515 331.192C94.9395 331.192 96.4435 330.536 96.4435 328.84C96.4435 327.336 95.3235 326.856 93.9955 326.6C93.0035 326.408 92.1075 326.136 92.1075 325.512C92.1075 324.808 92.8915 324.472 93.5795 324.472C94.3155 324.472 94.8435 324.84 95.1635 325.368L96.2035 324.68C95.6915 323.72 94.7155 323.32 93.6595 323.32C92.2675 323.32 90.8595 324.072 90.8595 325.528C90.8595 327.08 92.0755 327.384 93.4995 327.704C94.2995 327.88 95.0995 328.088 95.0995 328.888C95.0995 329.704 94.2355 330.04 93.4515 330.04C92.5715 330.04 92.0275 329.64 91.5315 329.032L90.5395 329.8ZM98.296 331H99.544V323.512H98.296V331ZM98.008 320.584C98.008 321.112 98.392 321.496 98.92 321.496C99.448 321.496 99.832 321.112 99.832 320.584C99.832 320.088 99.432 319.672 98.92 319.672C98.408 319.672 98.008 320.088 98.008 320.584ZM107.772 328.904C107.18 329.656 106.46 330.04 105.388 330.04C104.028 330.04 103.036 328.936 102.94 327.64H108.988V327.24C108.988 324.76 107.548 323.32 105.436 323.32C103.228 323.32 101.596 324.936 101.596 327.256C101.596 329.432 103.036 331.192 105.388 331.192C106.78 331.192 107.836 330.776 108.716 329.64L107.772 328.904ZM102.94 326.584C103.1 325.32 104.012 324.472 105.388 324.472C106.764 324.472 107.596 325.32 107.644 326.584H102.94ZM110.918 331H112.166V327.352C112.166 325.64 112.838 324.568 114.358 324.568C114.582 324.568 114.822 324.6 115.03 324.664L115.11 323.4C114.934 323.336 114.758 323.32 114.598 323.32C113.366 323.32 112.438 324.008 112.102 324.744H112.07C112.07 324.328 112.038 323.912 112.038 323.512H110.854C110.854 324.008 110.918 324.6 110.918 325.288V331ZM120.165 329.8C120.901 330.856 121.812 331.192 123.077 331.192C124.565 331.192 126.069 330.536 126.069 328.84C126.069 327.336 124.949 326.856 123.621 326.6C122.629 326.408 121.733 326.136 121.733 325.512C121.733 324.808 122.517 324.472 123.205 324.472C123.941 324.472 124.469 324.84 124.789 325.368L125.829 324.68C125.317 323.72 124.341 323.32 123.285 323.32C121.893 323.32 120.485 324.072 120.485 325.528C120.485 327.08 121.701 327.384 123.125 327.704C123.924 327.88 124.725 328.088 124.725 328.888C124.725 329.704 123.861 330.04 123.077 330.04C122.197 330.04 121.653 329.64 121.157 329.032L120.165 329.8ZM134.129 324.504C133.377 323.688 132.353 323.32 131.249 323.32C128.945 323.32 127.377 324.984 127.377 327.256C127.377 329.56 128.929 331.192 131.249 331.192C132.337 331.192 133.361 330.824 134.081 329.992L133.153 329.112C132.689 329.752 132.065 330.04 131.249 330.04C129.729 330.04 128.721 328.792 128.721 327.256C128.721 325.72 129.569 324.472 131.249 324.472C132.001 324.472 132.609 324.744 133.137 325.384L134.129 324.504ZM136.216 325.288C136.808 324.744 137.64 324.472 138.44 324.472C139.608 324.472 140.296 325.032 140.296 326.12V326.344H139.816C137.976 326.344 135.096 326.488 135.096 328.968C135.096 330.424 136.36 331.192 137.88 331.192C139.016 331.192 139.848 330.648 140.344 329.88H140.376C140.376 330.2 140.376 330.664 140.456 331H141.656C141.592 330.616 141.544 330.136 141.544 329.704V326.488C141.544 324.376 140.616 323.32 138.408 323.32C137.32 323.32 136.2 323.688 135.432 324.472L136.216 325.288ZM140.296 327.4V327.88C140.264 329.096 139.528 330.136 138.088 330.136C137.144 330.136 136.44 329.784 136.44 328.84C136.44 327.832 137.464 327.4 139.048 327.4H140.296ZM143.825 331H145.073V327.352C145.073 325.64 145.777 324.472 147.393 324.472C148.561 324.472 149.105 325.256 149.105 326.504V331H150.353V326.376C150.353 324.568 149.473 323.32 147.505 323.32C146.273 323.32 145.345 324.008 145.009 324.744H144.977C144.977 324.328 144.945 323.912 144.945 323.512H143.761C143.761 324.008 143.825 324.6 143.825 325.288V331ZM152.715 331H153.963V327.352C153.963 325.64 154.667 324.472 156.283 324.472C157.451 324.472 157.995 325.256 157.995 326.504V331H159.243V326.376C159.243 324.568 158.363 323.32 156.395 323.32C155.163 323.32 154.235 324.008 153.899 324.744H153.867C153.867 324.328 153.835 323.912 153.835 323.512H152.651C152.651 324.008 152.715 324.6 152.715 325.288V331ZM161.718 331H162.966V323.512H161.718V331ZM161.43 320.584C161.43 321.112 161.814 321.496 162.342 321.496C162.87 321.496 163.254 321.112 163.254 320.584C163.254 320.088 162.854 319.672 162.342 319.672C161.83 319.672 161.43 320.088 161.43 320.584ZM165.45 331H166.698V327.352C166.698 325.64 167.402 324.472 169.018 324.472C170.186 324.472 170.73 325.256 170.73 326.504V331H171.978V326.376C171.978 324.568 171.098 323.32 169.13 323.32C167.898 323.32 166.97 324.008 166.634 324.744H166.602C166.602 324.328 166.57 323.912 166.57 323.512H165.386C165.386 324.008 165.45 324.6 165.45 325.288V331ZM181.812 323.512H180.564V324.792H180.532C180.036 323.8 178.9 323.32 177.892 323.32C175.508 323.32 173.908 324.808 173.908 327.256C173.908 329.464 175.54 331.096 177.892 331.096C178.884 331.096 179.94 330.664 180.532 329.704H180.564V330.664C180.564 332.248 179.972 333.688 177.732 333.688C176.58 333.688 175.732 333.24 174.948 332.392L174.052 333.416C175.108 334.456 176.276 334.84 177.732 334.84C180.356 334.84 181.812 333.368 181.812 330.664V323.512ZM175.252 327.256C175.252 325.688 176.324 324.472 177.892 324.472C179.476 324.472 180.564 325.608 180.564 327.224C180.564 328.664 179.604 329.944 177.892 329.944C176.436 329.944 175.252 328.776 175.252 327.256ZM185.162 329.176C184.634 329.176 184.202 329.608 184.202 330.136C184.202 330.664 184.666 331.096 185.162 331.096C185.658 331.096 186.122 330.664 186.122 330.136C186.122 329.608 185.69 329.176 185.162 329.176Z" fill="black"/>
<path d="M410.264 307H414.488C417.208 307 420.488 305.208 420.488 301.336C420.488 297.496 417.704 295.672 414.728 295.672H410.264V307ZM412.28 305.176V297.496H414.12C416.584 297.496 418.376 298.584 418.376 301.336C418.376 304.088 416.312 305.176 413.784 305.176H412.28ZM421.845 303.16C421.845 305.576 423.701 307.192 426.021 307.192C428.341 307.192 430.197 305.576 430.197 303.16C430.197 300.744 428.341 299.128 426.021 299.128C423.701 299.128 421.845 300.744 421.845 303.16ZM423.765 303.16C423.765 301.96 424.613 300.856 426.021 300.856C427.429 300.856 428.277 301.96 428.277 303.16C428.277 304.36 427.429 305.464 426.021 305.464C424.613 305.464 423.765 304.36 423.765 303.16ZM431.994 307H433.914V302.808C433.914 301.784 434.41 300.856 435.674 300.856C437.018 300.856 437.082 302.264 437.082 303.112V307H439.002V302.152C439.002 300.584 438.266 299.128 436.202 299.128C434.922 299.128 434.202 299.784 433.85 300.552H433.818V299.32H431.994V307ZM440.926 299.896H442.638L443.998 295.672H442.046L440.926 299.896ZM446.323 300.952V304.472C446.323 306.28 446.803 307.192 448.835 307.192C449.283 307.192 449.955 307.128 450.355 306.936V305.32C450.115 305.496 449.651 305.56 449.315 305.56C448.467 305.56 448.243 305.08 448.243 304.312V300.952H450.355V299.32H448.243V297.096H446.323V299.32H444.739V300.952H446.323ZM451.718 306.02C451.718 306.622 452.25 307.084 452.838 307.084C453.454 307.084 453.958 306.594 453.958 305.992C453.958 305.39 453.44 304.928 452.838 304.928C452.222 304.928 451.718 305.418 451.718 306.02ZM451.718 301.274C451.718 301.876 452.25 302.338 452.838 302.338C453.454 302.338 453.958 301.848 453.958 301.246C453.958 300.644 453.44 300.182 452.838 300.182C452.222 300.182 451.718 300.672 451.718 301.274Z" fill="black"/>
<path d="M474.04 300.664H470.088V301.912H472.696V305.384C471.864 305.8 470.792 306.04 469.88 306.04C467.096 306.04 465.192 304.04 465.192 301.336C465.192 298.584 467.16 296.632 469.752 296.632C470.904 296.632 472.072 297.096 472.84 297.928L473.848 296.872C472.776 295.784 471.336 295.384 469.848 295.384C466.456 295.384 463.752 297.768 463.752 301.336C463.752 304.888 466.28 307.288 469.8 307.288C471.272 307.288 472.744 306.952 474.04 306.232V300.664ZM476.637 307H477.885V303.352C477.885 301.64 478.557 300.568 480.077 300.568C480.301 300.568 480.541 300.6 480.749 300.664L480.829 299.4C480.653 299.336 480.477 299.32 480.317 299.32C479.085 299.32 478.157 300.008 477.821 300.744H477.789C477.789 300.328 477.757 299.912 477.757 299.512H476.573C476.573 300.008 476.637 300.6 476.637 301.288V307ZM481.549 303.256C481.549 305.592 483.245 307.192 485.549 307.192C487.853 307.192 489.549 305.592 489.549 303.256C489.549 300.92 487.853 299.32 485.549 299.32C483.245 299.32 481.549 300.92 481.549 303.256ZM482.893 303.256C482.893 301.688 483.933 300.472 485.549 300.472C487.165 300.472 488.205 301.688 488.205 303.256C488.205 304.824 487.165 306.04 485.549 306.04C483.933 306.04 482.893 304.824 482.893 303.256ZM498.009 299.512H496.761V303.16C496.761 304.872 496.057 306.04 494.441 306.04C493.273 306.04 492.729 305.256 492.729 304.008V299.512H491.481V304.136C491.481 305.944 492.361 307.192 494.329 307.192C495.561 307.192 496.489 306.504 496.825 305.768H496.857C496.857 306.184 496.889 306.6 496.889 307H498.073C498.073 306.504 498.009 305.912 498.009 305.224V299.512ZM500.308 310.648H501.556V305.672H501.588C502.052 306.52 503.124 307.192 504.468 307.192C506.564 307.192 508.212 305.496 508.212 303.256C508.212 300.984 506.628 299.32 504.276 299.32C503.188 299.32 502.276 299.8 501.588 300.6H501.556V299.512H500.308V310.648ZM501.556 303.256C501.556 301.688 502.596 300.472 504.212 300.472C505.828 300.472 506.868 301.688 506.868 303.256C506.868 304.824 505.828 306.04 504.212 306.04C502.596 306.04 501.556 304.824 501.556 303.256ZM514.606 307H515.854V303.352C515.854 301.64 516.526 300.568 518.046 300.568C518.27 300.568 518.51 300.6 518.718 300.664L518.798 299.4C518.622 299.336 518.446 299.32 518.286 299.32C517.054 299.32 516.126 300.008 515.79 300.744H515.758C515.758 300.328 515.726 299.912 515.726 299.512H514.542C514.542 300.008 514.606 300.6 514.606 301.288V307ZM525.694 304.904C525.102 305.656 524.382 306.04 523.31 306.04C521.95 306.04 520.958 304.936 520.862 303.64H526.91V303.24C526.91 300.76 525.47 299.32 523.358 299.32C521.15 299.32 519.518 300.936 519.518 303.256C519.518 305.432 520.958 307.192 523.31 307.192C524.702 307.192 525.758 306.776 526.638 305.64L525.694 304.904ZM520.862 302.584C521.022 301.32 521.934 300.472 523.31 300.472C524.686 300.472 525.518 301.32 525.566 302.584H520.862ZM528.952 307H530.2V294.904H528.952V307ZM533.372 301.288C533.964 300.744 534.796 300.472 535.596 300.472C536.764 300.472 537.452 301.032 537.452 302.12V302.344H536.972C535.132 302.344 532.252 302.488 532.252 304.968C532.252 306.424 533.516 307.192 535.036 307.192C536.172 307.192 537.004 306.648 537.5 305.88H537.532C537.532 306.2 537.532 306.664 537.612 307H538.812C538.748 306.616 538.7 306.136 538.7 305.704V302.488C538.7 300.376 537.772 299.32 535.564 299.32C534.476 299.32 533.356 299.688 532.588 300.472L533.372 301.288ZM537.452 303.4V303.88C537.42 305.096 536.684 306.136 535.244 306.136C534.3 306.136 533.596 305.784 533.596 304.84C533.596 303.832 534.62 303.4 536.204 303.4H537.452ZM545.077 299.512H542.869V297.384H541.621V299.512H539.989V300.568H541.621V304.68C541.621 306.232 541.909 307.192 543.685 307.192C544.149 307.192 544.709 307.112 545.141 306.92L545.093 305.784C544.757 305.96 544.357 306.04 543.989 306.04C542.885 306.04 542.869 305.272 542.869 304.312V300.568H545.077V299.512ZM552.35 304.904C551.758 305.656 551.038 306.04 549.966 306.04C548.606 306.04 547.614 304.936 547.518 303.64H553.566V303.24C553.566 300.76 552.126 299.32 550.014 299.32C547.806 299.32 546.174 300.936 546.174 303.256C546.174 305.432 547.614 307.192 549.966 307.192C551.358 307.192 552.414 306.776 553.294 305.64L552.35 304.904ZM547.518 302.584C547.678 301.32 548.59 300.472 549.966 300.472C551.342 300.472 552.174 301.32 552.222 302.584H547.518ZM561.721 307H562.969V294.904H561.721V300.6H561.689C561.001 299.8 560.089 299.32 559.001 299.32C556.649 299.32 555.065 300.984 555.065 303.256C555.065 305.496 556.713 307.192 558.809 307.192C560.153 307.192 561.225 306.52 561.689 305.672H561.721V307ZM561.721 303.256C561.721 304.824 560.681 306.04 559.065 306.04C557.449 306.04 556.409 304.824 556.409 303.256C556.409 301.688 557.449 300.472 559.065 300.472C560.681 300.472 561.721 301.688 561.721 303.256ZM569.843 307H571.091V299.512H569.843V307ZM569.555 296.584C569.555 297.112 569.939 297.496 570.467 297.496C570.995 297.496 571.379 297.112 571.379 296.584C571.379 296.088 570.979 295.672 570.467 295.672C569.955 295.672 569.555 296.088 569.555 296.584ZM577.671 299.512H575.463V297.384H574.215V299.512H572.583V300.568H574.215V304.68C574.215 306.232 574.503 307.192 576.279 307.192C576.743 307.192 577.303 307.112 577.735 306.92L577.687 305.784C577.351 305.96 576.951 306.04 576.583 306.04C575.479 306.04 575.463 305.272 575.463 304.312V300.568H577.671V299.512ZM584.944 304.904C584.352 305.656 583.632 306.04 582.56 306.04C581.2 306.04 580.208 304.936 580.112 303.64H586.16V303.24C586.16 300.76 584.72 299.32 582.608 299.32C580.4 299.32 578.768 300.936 578.768 303.256C578.768 305.432 580.208 307.192 582.56 307.192C583.952 307.192 585.008 306.776 585.888 305.64L584.944 304.904ZM580.112 302.584C580.272 301.32 581.184 300.472 582.56 300.472C583.936 300.472 584.768 301.32 584.816 302.584H580.112ZM588.09 307H589.338V303.352C589.338 301.64 590.042 300.472 591.658 300.472C592.682 300.472 593.098 301.112 593.098 302.76V307H594.346V302.68C594.346 301.336 595.226 300.472 596.282 300.472C597.738 300.472 598.106 301.48 598.106 302.52V307H599.354V302.456C599.354 300.52 598.65 299.32 596.506 299.32C595.37 299.32 594.682 299.864 594.138 300.744C593.898 300.232 593.386 299.32 591.77 299.32C590.538 299.32 589.61 300.008 589.274 300.744H589.242C589.242 300.328 589.21 299.912 589.21 299.512H588.026C588.026 300.008 588.09 300.6 588.09 301.288V307ZM600.883 305.8C601.619 306.856 602.531 307.192 603.795 307.192C605.283 307.192 606.787 306.536 606.787 304.84C606.787 303.336 605.667 302.856 604.339 302.6C603.347 302.408 602.451 302.136 602.451 301.512C602.451 300.808 603.235 300.472 603.923 300.472C604.659 300.472 605.187 300.84 605.507 301.368L606.547 300.68C606.035 299.72 605.059 299.32 604.003 299.32C602.611 299.32 601.203 300.072 601.203 301.528C601.203 303.08 602.419 303.384 603.843 303.704C604.643 303.88 605.443 304.088 605.443 304.888C605.443 305.704 604.579 306.04 603.795 306.04C602.915 306.04 602.371 305.64 601.875 305.032L600.883 305.8ZM613.621 307H614.869V300.568H616.693V299.512H614.869V298.104C614.869 296.808 614.917 295.864 616.213 295.864C616.501 295.864 616.789 295.928 617.061 296.024L617.237 294.904C616.997 294.776 616.597 294.712 616.277 294.712C614.261 294.712 613.621 296.008 613.621 297.832V299.512H611.989V300.568H613.621V307ZM618.716 301.288C619.308 300.744 620.14 300.472 620.94 300.472C622.108 300.472 622.796 301.032 622.796 302.12V302.344H622.316C620.476 302.344 617.596 302.488 617.596 304.968C617.596 306.424 618.86 307.192 620.38 307.192C621.516 307.192 622.348 306.648 622.844 305.88H622.876C622.876 306.2 622.876 306.664 622.956 307H624.156C624.092 306.616 624.044 306.136 624.044 305.704V302.488C624.044 300.376 623.116 299.32 620.908 299.32C619.82 299.32 618.7 299.688 617.932 300.472L618.716 301.288ZM622.796 303.4V303.88C622.764 305.096 622.028 306.136 620.588 306.136C619.644 306.136 618.94 305.784 618.94 304.84C618.94 303.832 619.964 303.4 621.548 303.4H622.796ZM626.325 307H627.573V303.352C627.573 301.64 628.245 300.568 629.765 300.568C629.989 300.568 630.229 300.6 630.437 300.664L630.517 299.4C630.341 299.336 630.165 299.32 630.005 299.32C628.773 299.32 627.845 300.008 627.509 300.744H627.477C627.477 300.328 627.445 299.912 627.445 299.512H626.261C626.261 300.008 626.325 300.6 626.325 301.288V307ZM637.091 301.288C637.683 300.744 638.515 300.472 639.315 300.472C640.483 300.472 641.171 301.032 641.171 302.12V302.344H640.691C638.851 302.344 635.971 302.488 635.971 304.968C635.971 306.424 637.235 307.192 638.755 307.192C639.891 307.192 640.723 306.648 641.219 305.88H641.251C641.251 306.2 641.251 306.664 641.331 307H642.531C642.467 306.616 642.419 306.136 642.419 305.704V302.488C642.419 300.376 641.491 299.32 639.283 299.32C638.195 299.32 637.075 299.688 636.307 300.472L637.091 301.288ZM641.171 303.4V303.88C641.139 305.096 640.403 306.136 638.963 306.136C638.019 306.136 637.315 305.784 637.315 304.84C637.315 303.832 638.339 303.4 639.923 303.4H641.171ZM644.636 310.648H645.884V305.672H645.916C646.38 306.52 647.452 307.192 648.796 307.192C650.892 307.192 652.54 305.496 652.54 303.256C652.54 300.984 650.956 299.32 648.604 299.32C647.516 299.32 646.604 299.8 645.916 300.6H645.884V299.512H644.636V310.648ZM645.884 303.256C645.884 301.688 646.924 300.472 648.54 300.472C650.156 300.472 651.196 301.688 651.196 303.256C651.196 304.824 650.156 306.04 648.54 306.04C646.924 306.04 645.884 304.824 645.884 303.256ZM655.169 301.288C655.761 300.744 656.593 300.472 657.393 300.472C658.561 300.472 659.249 301.032 659.249 302.12V302.344H658.769C656.929 302.344 654.049 302.488 654.049 304.968C654.049 306.424 655.313 307.192 656.833 307.192C657.969 307.192 658.801 306.648 659.297 305.88H659.329C659.329 306.2 659.329 306.664 659.409 307H660.609C660.545 306.616 660.497 306.136 660.497 305.704V302.488C660.497 300.376 659.569 299.32 657.361 299.32C656.273 299.32 655.153 299.688 654.385 300.472L655.169 301.288ZM659.249 303.4V303.88C659.217 305.096 658.481 306.136 657.041 306.136C656.097 306.136 655.393 305.784 655.393 304.84C655.393 303.832 656.417 303.4 658.001 303.4H659.249ZM662.778 307H664.026V303.352C664.026 301.64 664.698 300.568 666.218 300.568C666.442 300.568 666.682 300.6 666.89 300.664L666.97 299.4C666.794 299.336 666.618 299.32 666.458 299.32C665.226 299.32 664.298 300.008 663.962 300.744H663.93C663.93 300.328 663.898 299.912 663.898 299.512H662.714C662.714 300.008 662.778 300.6 662.778 301.288V307ZM672.499 299.512H670.291V297.384H669.043V299.512H667.411V300.568H669.043V304.68C669.043 306.232 669.331 307.192 671.107 307.192C671.571 307.192 672.131 307.112 672.563 306.92L672.515 305.784C672.179 305.96 671.779 306.04 671.411 306.04C670.307 306.04 670.291 305.272 670.291 304.312V300.568H672.499V299.512ZM675.068 305.176C674.54 305.176 674.108 305.608 674.108 306.136C674.108 306.664 674.572 307.096 675.068 307.096C675.564 307.096 676.028 306.664 676.028 306.136C676.028 305.608 675.596 305.176 675.068 305.176Z" fill="black"/>
<rect x="34" y="14" width="286" height="251" fill="white"/>
<rect width="250" height="227" transform="translate(52 26)" fill="white"/>
<path d="M111.408 82.5H117.936V81.252H112.752V71.172H111.408V82.5ZM118.752 78.756C118.752 81.092 120.448 82.692 122.752 82.692C125.056 82.692 126.752 81.092 126.752 78.756C126.752 76.42 125.056 74.82 122.752 74.82C120.448 74.82 118.752 76.42 118.752 78.756ZM120.096 78.756C120.096 77.188 121.136 75.972 122.752 75.972C124.368 75.972 125.408 77.188 125.408 78.756C125.408 80.324 124.368 81.54 122.752 81.54C121.136 81.54 120.096 80.324 120.096 78.756ZM128.684 82.5H129.932V78.852C129.932 77.14 130.604 76.068 132.124 76.068C132.348 76.068 132.588 76.1 132.796 76.164L132.876 74.9C132.7 74.836 132.524 74.82 132.364 74.82C131.132 74.82 130.204 75.508 129.868 76.244H129.836C129.836 75.828 129.804 75.412 129.804 75.012H128.62C128.62 75.508 128.684 76.1 128.684 76.788V82.5ZM139.772 80.404C139.18 81.156 138.46 81.54 137.388 81.54C136.028 81.54 135.036 80.436 134.94 79.14H140.988V78.74C140.988 76.26 139.548 74.82 137.436 74.82C135.228 74.82 133.596 76.436 133.596 78.756C133.596 80.932 135.036 82.692 137.388 82.692C138.78 82.692 139.836 82.276 140.716 81.14L139.772 80.404ZM134.94 78.084C135.1 76.82 136.012 75.972 137.388 75.972C138.764 75.972 139.596 76.82 139.644 78.084H134.94ZM142.918 82.5H144.166V78.852C144.166 77.14 144.87 75.972 146.486 75.972C147.51 75.972 147.926 76.612 147.926 78.26V82.5H149.174V78.18C149.174 76.836 150.054 75.972 151.11 75.972C152.566 75.972 152.934 76.98 152.934 78.02V82.5H154.182V77.956C154.182 76.02 153.478 74.82 151.334 74.82C150.198 74.82 149.51 75.364 148.966 76.244C148.726 75.732 148.214 74.82 146.598 74.82C145.366 74.82 144.438 75.508 144.102 76.244H144.07C144.07 75.828 144.038 75.412 144.038 75.012H142.854C142.854 75.508 142.918 76.1 142.918 76.788V82.5ZM161.109 82.5H162.357V75.012H161.109V82.5ZM160.821 72.084C160.821 72.612 161.205 72.996 161.733 72.996C162.261 72.996 162.645 72.612 162.645 72.084C162.645 71.588 162.245 71.172 161.733 71.172C161.221 71.172 160.821 71.588 160.821 72.084ZM164.776 86.148H166.024V81.172H166.056C166.52 82.02 167.592 82.692 168.936 82.692C171.032 82.692 172.68 80.996 172.68 78.756C172.68 76.484 171.096 74.82 168.744 74.82C167.656 74.82 166.744 75.3 166.056 76.1H166.024V75.012H164.776V86.148ZM166.024 78.756C166.024 77.188 167.064 75.972 168.68 75.972C170.296 75.972 171.336 77.188 171.336 78.756C171.336 80.324 170.296 81.54 168.68 81.54C167.064 81.54 166.024 80.324 166.024 78.756ZM173.79 81.3C174.526 82.356 175.438 82.692 176.702 82.692C178.19 82.692 179.694 82.036 179.694 80.34C179.694 78.836 178.574 78.356 177.246 78.1C176.254 77.908 175.358 77.636 175.358 77.012C175.358 76.308 176.142 75.972 176.83 75.972C177.566 75.972 178.094 76.34 178.414 76.868L179.454 76.18C178.942 75.22 177.966 74.82 176.91 74.82C175.518 74.82 174.11 75.572 174.11 77.028C174.11 78.58 175.326 78.884 176.75 79.204C177.549 79.38 178.35 79.588 178.35 80.388C178.35 81.204 177.486 81.54 176.702 81.54C175.822 81.54 175.278 81.14 174.782 80.532L173.79 81.3ZM187.962 75.012H186.714V78.66C186.714 80.372 186.01 81.54 184.394 81.54C183.226 81.54 182.682 80.756 182.682 79.508V75.012H181.434V79.636C181.434 81.444 182.314 82.692 184.282 82.692C185.514 82.692 186.442 82.004 186.778 81.268H186.81C186.81 81.684 186.842 82.1 186.842 82.5H188.026C188.026 82.004 187.962 81.412 187.962 80.724V75.012ZM190.325 82.5H191.573V78.852C191.573 77.14 192.277 75.972 193.893 75.972C194.917 75.972 195.333 76.612 195.333 78.26V82.5H196.581V78.18C196.581 76.836 197.461 75.972 198.517 75.972C199.973 75.972 200.341 76.98 200.341 78.02V82.5H201.589V77.956C201.589 76.02 200.885 74.82 198.741 74.82C197.605 74.82 196.917 75.364 196.373 76.244C196.133 75.732 195.621 74.82 194.005 74.82C192.773 74.82 191.845 75.508 191.509 76.244H191.477C191.477 75.828 191.445 75.412 191.445 75.012H190.261C190.261 75.508 190.325 76.1 190.325 76.788V82.5ZM209.091 76.788C209.683 76.244 210.515 75.972 211.315 75.972C212.483 75.972 213.171 76.532 213.171 77.62V77.844H212.691C210.851 77.844 207.971 77.988 207.971 80.468C207.971 81.924 209.235 82.692 210.755 82.692C211.891 82.692 212.723 82.148 213.219 81.38H213.251C213.251 81.7 213.251 82.164 213.331 82.5H214.531C214.467 82.116 214.419 81.636 214.419 81.204V77.988C214.419 75.876 213.491 74.82 211.283 74.82C210.195 74.82 209.075 75.188 208.307 75.972L209.091 76.788ZM213.171 78.9V79.38C213.139 80.596 212.403 81.636 210.963 81.636C210.019 81.636 209.315 81.284 209.315 80.34C209.315 79.332 210.339 78.9 211.923 78.9H213.171ZM216.7 82.5H217.948V78.852C217.948 77.14 218.652 75.972 220.268 75.972C221.292 75.972 221.708 76.612 221.708 78.26V82.5H222.956V78.18C222.956 76.836 223.836 75.972 224.892 75.972C226.348 75.972 226.716 76.98 226.716 78.02V82.5H227.964V77.956C227.964 76.02 227.26 74.82 225.116 74.82C223.98 74.82 223.292 75.364 222.748 76.244C222.508 75.732 221.996 74.82 220.38 74.82C219.148 74.82 218.22 75.508 217.884 76.244H217.852C217.852 75.828 217.82 75.412 217.82 75.012H216.636C216.636 75.508 216.7 76.1 216.7 76.788V82.5ZM236.069 80.404C235.477 81.156 234.757 81.54 233.685 81.54C232.325 81.54 231.333 80.436 231.237 79.14H237.285V78.74C237.285 76.26 235.845 74.82 233.733 74.82C231.525 74.82 229.893 76.436 229.893 78.756C229.893 80.932 231.333 82.692 233.685 82.692C235.077 82.692 236.133 82.276 237.013 81.14L236.069 80.404ZM231.237 78.084C231.397 76.82 232.309 75.972 233.685 75.972C235.061 75.972 235.893 76.82 235.941 78.084H231.237ZM243.311 75.012H241.103V72.884H239.855V75.012H238.223V76.068H239.855V80.18C239.855 81.732 240.143 82.692 241.919 82.692C242.383 82.692 242.943 82.612 243.375 82.42L243.327 81.284C242.991 81.46 242.591 81.54 242.223 81.54C241.119 81.54 241.103 80.772 241.103 79.812V76.068H243.311V75.012Z" fill="#333333"/>
<g opacity="0.5">
<rect x="68" y="98.5" width="218" height="7" rx="3.5" fill="#6B778C"/>
</g>
<g opacity="0.5">
<rect x="68" y="113.5" width="95" height="7" rx="3.5" fill="#9EA6B5"/>
</g>
<rect x="68.5" y="125" width="217" height="35" rx="3.5" fill="white"/>
<g opacity="0.5">
<rect x="80" y="139" width="112" height="7" rx="3.5" fill="#D2D6DD"/>
</g>
<rect x="68.5" y="125" width="217" height="35" rx="3.5" stroke="#9EA6B5"/>
<rect width="218" height="16" transform="translate(68 160.5)" fill="#ECF7E3"/>
<rect x="133" y="177" width="88" height="35" rx="3.5" fill="#6C3078"/>
<rect x="152.5" y="192" width="49" height="6" rx="3" fill="white"/>
<rect x="133" y="177" width="88" height="35" rx="3.5" stroke="#6C3078"/>
<rect x="292" y="26" width="16" height="16" rx="8" fill="#467822"/>
<path d="M299 36.1673C298.871 36.1575 298.752 36.0976 298.667 36.0006L296.667 34.0006C296.622 33.9073 296.608 33.8025 296.625 33.7006C296.642 33.5987 296.691 33.5047 296.764 33.4316C296.837 33.3585 296.931 33.3098 297.033 33.2924C297.135 33.2749 297.24 33.2894 297.333 33.334L298.98 34.9806L304.667 29.334C304.76 29.2894 304.865 29.2749 304.967 29.2924C305.069 29.3098 305.163 29.3585 305.236 29.4316C305.309 29.5047 305.357 29.5987 305.375 29.7006C305.392 29.8025 305.378 29.9073 305.333 30.0006L299.333 36.0006C299.248 36.0976 299.129 36.1575 299 36.1673Z" fill="white"/>
<path d="M300 40.0005C298.928 39.9988 297.875 39.7097 296.953 39.1634C296.03 38.617 295.27 37.8333 294.753 36.8939C294.36 36.1939 294.117 35.4196 294.04 34.6205C293.918 33.4486 294.144 32.2667 294.689 31.2222C295.234 30.1777 296.075 29.3169 297.107 28.7472C297.807 28.3541 298.581 28.1112 299.38 28.0339C300.176 27.9482 300.981 28.0254 301.747 28.2605C301.815 28.2742 301.88 28.302 301.937 28.3421C301.994 28.3822 302.041 28.4337 302.077 28.4935C302.113 28.5532 302.136 28.6197 302.145 28.6889C302.153 28.758 302.148 28.8281 302.127 28.8948C302.107 28.9615 302.074 29.0233 302.028 29.0762C301.983 29.1291 301.927 29.1719 301.864 29.202C301.801 29.232 301.733 29.2486 301.663 29.2506C301.594 29.2527 301.524 29.2402 301.46 29.2139C300.812 29.0192 300.132 28.9557 299.46 29.0272C298.795 29.0953 298.151 29.2971 297.567 29.6205C297.003 29.9313 296.505 30.3478 296.1 30.8472C295.683 31.356 295.371 31.9429 295.183 32.5737C294.995 33.2044 294.935 33.8663 295.007 34.5205C295.075 35.1852 295.277 35.8292 295.6 36.4139C295.911 36.9771 296.327 37.4751 296.827 37.8805C297.335 38.298 297.922 38.6097 298.553 38.7974C299.184 38.9852 299.846 39.0451 300.5 38.9739C301.165 38.9058 301.809 38.704 302.393 38.3805C302.957 38.0698 303.455 37.6533 303.86 37.1539C304.277 36.6451 304.589 36.0582 304.777 35.4274C304.965 34.7966 305.025 34.1348 304.953 33.4805C304.947 33.4118 304.954 33.3425 304.974 33.2765C304.994 33.2105 305.027 33.1491 305.071 33.0958C305.115 33.0426 305.169 32.9985 305.23 32.9662C305.291 32.9338 305.358 32.9138 305.427 32.9072C305.495 32.9006 305.565 32.9077 305.631 32.9279C305.697 32.9481 305.758 32.9812 305.811 33.0251C305.865 33.0691 305.909 33.1231 305.941 33.1841C305.973 33.2451 305.993 33.3118 306 33.3805C306.121 34.5532 305.895 35.7356 305.348 36.7802C304.801 37.8247 303.959 38.6851 302.927 39.2539C302.219 39.663 301.433 39.9175 300.62 40.0005C300.413 40.0005 300.2 40.0005 300 40.0005Z" fill="white"/>
<rect x="34" y="14" width="286" height="251" stroke="#E6E6E6" stroke-width="8"/>
<rect x="405" y="14" width="286" height="251" fill="white"/>
<rect width="250" height="227" transform="translate(423 26)" fill="white"/>
<path d="M482.408 66.5H488.936V65.252H483.752V55.172H482.408V66.5ZM489.752 62.756C489.752 65.092 491.448 66.692 493.752 66.692C496.056 66.692 497.752 65.092 497.752 62.756C497.752 60.42 496.056 58.82 493.752 58.82C491.448 58.82 489.752 60.42 489.752 62.756ZM491.096 62.756C491.096 61.188 492.136 59.972 493.752 59.972C495.368 59.972 496.408 61.188 496.408 62.756C496.408 64.324 495.368 65.54 493.752 65.54C492.136 65.54 491.096 64.324 491.096 62.756ZM499.684 66.5H500.932V62.852C500.932 61.14 501.604 60.068 503.124 60.068C503.348 60.068 503.588 60.1 503.796 60.164L503.876 58.9C503.7 58.836 503.524 58.82 503.364 58.82C502.132 58.82 501.204 59.508 500.868 60.244H500.836C500.836 59.828 500.804 59.412 500.804 59.012H499.62C499.62 59.508 499.684 60.1 499.684 60.788V66.5ZM510.772 64.404C510.18 65.156 509.46 65.54 508.388 65.54C507.028 65.54 506.036 64.436 505.94 63.14H511.988V62.74C511.988 60.26 510.548 58.82 508.436 58.82C506.228 58.82 504.596 60.436 504.596 62.756C504.596 64.932 506.036 66.692 508.388 66.692C509.78 66.692 510.836 66.276 511.716 65.14L510.772 64.404ZM505.94 62.084C506.1 60.82 507.012 59.972 508.388 59.972C509.764 59.972 510.596 60.82 510.644 62.084H505.94ZM513.918 66.5H515.166V62.852C515.166 61.14 515.87 59.972 517.486 59.972C518.51 59.972 518.926 60.612 518.926 62.26V66.5H520.174V62.18C520.174 60.836 521.054 59.972 522.11 59.972C523.566 59.972 523.934 60.98 523.934 62.02V66.5H525.182V61.956C525.182 60.02 524.478 58.82 522.334 58.82C521.198 58.82 520.51 59.364 519.966 60.244C519.726 59.732 519.214 58.82 517.598 58.82C516.366 58.82 515.438 59.508 515.102 60.244H515.07C515.07 59.828 515.038 59.412 515.038 59.012H513.854C513.854 59.508 513.918 60.1 513.918 60.788V66.5ZM532.109 66.5H533.357V59.012H532.109V66.5ZM531.821 56.084C531.821 56.612 532.205 56.996 532.733 56.996C533.261 56.996 533.645 56.612 533.645 56.084C533.645 55.588 533.245 55.172 532.733 55.172C532.221 55.172 531.821 55.588 531.821 56.084ZM535.776 70.148H537.024V65.172H537.056C537.52 66.02 538.592 66.692 539.936 66.692C542.032 66.692 543.68 64.996 543.68 62.756C543.68 60.484 542.096 58.82 539.744 58.82C538.656 58.82 537.744 59.3 537.056 60.1H537.024V59.012H535.776V70.148ZM537.024 62.756C537.024 61.188 538.064 59.972 539.68 59.972C541.296 59.972 542.336 61.188 542.336 62.756C542.336 64.324 541.296 65.54 539.68 65.54C538.064 65.54 537.024 64.324 537.024 62.756ZM544.79 65.3C545.526 66.356 546.438 66.692 547.702 66.692C549.19 66.692 550.694 66.036 550.694 64.34C550.694 62.836 549.574 62.356 548.246 62.1C547.254 61.908 546.358 61.636 546.358 61.012C546.358 60.308 547.142 59.972 547.83 59.972C548.566 59.972 549.094 60.34 549.414 60.868L550.454 60.18C549.942 59.22 548.966 58.82 547.91 58.82C546.518 58.82 545.11 59.572 545.11 61.028C545.11 62.58 546.326 62.884 547.75 63.204C548.549 63.38 549.35 63.588 549.35 64.388C549.35 65.204 548.486 65.54 547.702 65.54C546.822 65.54 546.278 65.14 545.782 64.532L544.79 65.3ZM558.962 59.012H557.714V62.66C557.714 64.372 557.01 65.54 555.394 65.54C554.226 65.54 553.682 64.756 553.682 63.508V59.012H552.434V63.636C552.434 65.444 553.314 66.692 555.282 66.692C556.514 66.692 557.442 66.004 557.778 65.268H557.81C557.81 65.684 557.842 66.1 557.842 66.5H559.026C559.026 66.004 558.962 65.412 558.962 64.724V59.012ZM561.325 66.5H562.573V62.852C562.573 61.14 563.277 59.972 564.893 59.972C565.917 59.972 566.333 60.612 566.333 62.26V66.5H567.581V62.18C567.581 60.836 568.461 59.972 569.517 59.972C570.973 59.972 571.341 60.98 571.341 62.02V66.5H572.589V61.956C572.589 60.02 571.885 58.82 569.741 58.82C568.605 58.82 567.917 59.364 567.373 60.244C567.133 59.732 566.621 58.82 565.005 58.82C563.773 58.82 562.845 59.508 562.509 60.244H562.477C562.477 59.828 562.445 59.412 562.445 59.012H561.261C561.261 59.508 561.325 60.1 561.325 60.788V66.5ZM580.091 60.788C580.683 60.244 581.515 59.972 582.315 59.972C583.483 59.972 584.171 60.532 584.171 61.62V61.844H583.691C581.851 61.844 578.971 61.988 578.971 64.468C578.971 65.924 580.235 66.692 581.755 66.692C582.891 66.692 583.723 66.148 584.219 65.38H584.251C584.251 65.7 584.251 66.164 584.331 66.5H585.531C585.467 66.116 585.419 65.636 585.419 65.204V61.988C585.419 59.876 584.491 58.82 582.283 58.82C581.195 58.82 580.075 59.188 579.307 59.972L580.091 60.788ZM584.171 62.9V63.38C584.139 64.596 583.403 65.636 581.963 65.636C581.019 65.636 580.315 65.284 580.315 64.34C580.315 63.332 581.339 62.9 582.923 62.9H584.171ZM587.7 66.5H588.948V62.852C588.948 61.14 589.652 59.972 591.268 59.972C592.292 59.972 592.708 60.612 592.708 62.26V66.5H593.956V62.18C593.956 60.836 594.836 59.972 595.892 59.972C597.348 59.972 597.716 60.98 597.716 62.02V66.5H598.964V61.956C598.964 60.02 598.26 58.82 596.116 58.82C594.98 58.82 594.292 59.364 593.748 60.244C593.508 59.732 592.996 58.82 591.38 58.82C590.148 58.82 589.22 59.508 588.884 60.244H588.852C588.852 59.828 588.82 59.412 588.82 59.012H587.636C587.636 59.508 587.7 60.1 587.7 60.788V66.5ZM607.069 64.404C606.477 65.156 605.757 65.54 604.685 65.54C603.325 65.54 602.333 64.436 602.237 63.14H608.285V62.74C608.285 60.26 606.845 58.82 604.733 58.82C602.525 58.82 600.893 60.436 600.893 62.756C600.893 64.932 602.333 66.692 604.685 66.692C606.077 66.692 607.133 66.276 608.013 65.14L607.069 64.404ZM602.237 62.084C602.397 60.82 603.309 59.972 604.685 59.972C606.061 59.972 606.893 60.82 606.941 62.084H602.237ZM614.311 59.012H612.103V56.884H610.855V59.012H609.223V60.068H610.855V64.18C610.855 65.732 611.143 66.692 612.919 66.692C613.383 66.692 613.943 66.612 614.375 66.42L614.327 65.284C613.991 65.46 613.591 65.54 613.223 65.54C612.119 65.54 612.103 64.772 612.103 63.812V60.068H614.311V59.012Z" fill="#333333"/>
<g opacity="0.5">
<rect x="439" y="82.5" width="218" height="7" rx="3.5" fill="#6B778C"/>
</g>
<g opacity="0.5">
<rect x="439" y="97.5" width="95" height="7" rx="3.5" fill="#9EA6B5"/>
</g>
<rect x="439.5" y="109" width="217" height="35" rx="3.5" fill="white"/>
<g opacity="0.5">
<rect x="451" y="123" width="112" height="7" rx="3.5" fill="#D2D6DD"/>
</g>
<rect x="439.5" y="109" width="217" height="35" rx="3.5" stroke="#9EA6B5"/>
<rect width="218" height="48" transform="translate(439 144.5)" fill="#FEEFEF"/>
<rect x="504" y="193" width="88" height="35" rx="3.5" fill="#6C3078"/>
<rect x="523.5" y="208" width="49" height="6" rx="3" fill="white"/>
<rect x="504" y="193" width="88" height="35" rx="3.5" stroke="#6C3078"/>
<rect x="663" y="26" width="16" height="16" rx="8" fill="#DB3259"/>
<path d="M671.707 34L674.653 31.0533C674.702 31.0075 674.742 30.9523 674.769 30.891C674.797 30.8297 674.811 30.7635 674.812 30.6963C674.814 30.6292 674.801 30.5625 674.776 30.5002C674.751 30.438 674.714 30.3814 674.666 30.3339C674.619 30.2865 674.562 30.249 674.5 30.2239C674.437 30.1987 674.371 30.1864 674.304 30.1876C674.237 30.1888 674.17 30.2035 674.109 30.2308C674.048 30.2581 673.992 30.2975 673.947 30.3466L671 33.2933L668.053 30.3466C667.959 30.2583 667.833 30.2102 667.704 30.2125C667.574 30.2148 667.451 30.2673 667.359 30.3589C667.267 30.4505 667.215 30.5741 667.213 30.7036C667.21 30.8332 667.258 30.9585 667.347 31.0533L670.293 34L667.347 36.9466C667.253 37.0404 667.2 37.1675 667.2 37.3C667.2 37.4325 667.253 37.5596 667.347 37.6533C667.44 37.7469 667.567 37.7995 667.7 37.7995C667.832 37.7995 667.96 37.7469 668.053 37.6533L671 34.7066L673.947 37.6533C674.04 37.7469 674.167 37.7995 674.3 37.7995C674.433 37.7995 674.56 37.7469 674.653 37.6533C674.747 37.5596 674.8 37.4325 674.8 37.3C674.8 37.1675 674.747 37.0404 674.653 36.9466L671.707 34Z" fill="white"/>
<rect x="405" y="14" width="286" height="251" stroke="#E6E6E6" stroke-width="8"/>
</svg>
