<svg width="725" height="350" viewBox="0 0 725 350" fill="none" xmlns="http://www.w3.org/2000/svg">
<rect width="725" height="350" fill="white"/>
<path d="M39.264 307H43.488C46.208 307 49.488 305.208 49.488 301.336C49.488 297.496 46.704 295.672 43.728 295.672H39.264V307ZM41.28 305.176V297.496H43.12C45.584 297.496 47.376 298.584 47.376 301.336C47.376 304.088 45.312 305.176 42.784 305.176H41.28ZM50.8446 303.16C50.8446 305.576 52.7006 307.192 55.0206 307.192C57.3406 307.192 59.1966 305.576 59.1966 303.16C59.1966 300.744 57.3406 299.128 55.0206 299.128C52.7006 299.128 50.8446 300.744 50.8446 303.16ZM52.7646 303.16C52.7646 301.96 53.6126 300.856 55.0206 300.856C56.4286 300.856 57.2766 301.96 57.2766 303.16C57.2766 304.36 56.4286 305.464 55.0206 305.464C53.6126 305.464 52.7646 304.36 52.7646 303.16ZM60.8583 306.02C60.8583 306.622 61.3903 307.084 61.9783 307.084C62.5943 307.084 63.0983 306.594 63.0983 305.992C63.0983 305.39 62.5803 304.928 61.9783 304.928C61.3623 304.928 60.8583 305.418 60.8583 306.02ZM60.8583 301.274C60.8583 301.876 61.3903 302.338 61.9783 302.338C62.5943 302.338 63.0983 301.848 63.0983 301.246C63.0983 300.644 62.5803 300.182 61.9783 300.182C61.3623 300.182 60.8583 300.672 60.8583 301.274Z" fill="black"/>
<path d="M84.04 300.664H80.088V301.912H82.696V305.384C81.864 305.8 80.792 306.04 79.88 306.04C77.096 306.04 75.192 304.04 75.192 301.336C75.192 298.584 77.16 296.632 79.752 296.632C80.904 296.632 82.072 297.096 82.84 297.928L83.848 296.872C82.776 295.784 81.336 295.384 79.848 295.384C76.456 295.384 73.752 297.768 73.752 301.336C73.752 304.888 76.28 307.288 79.8 307.288C81.272 307.288 82.744 306.952 84.04 306.232V300.664ZM86.6371 307H87.8851V303.352C87.8851 301.64 88.5571 300.568 90.0771 300.568C90.3011 300.568 90.5411 300.6 90.7491 300.664L90.8291 299.4C90.6531 299.336 90.4771 299.32 90.3171 299.32C89.0851 299.32 88.1571 300.008 87.8211 300.744H87.7891C87.7891 300.328 87.7571 299.912 87.7571 299.512H86.5731C86.5731 300.008 86.6371 300.6 86.6371 301.288V307ZM91.5489 303.256C91.5489 305.592 93.2449 307.192 95.5489 307.192C97.8529 307.192 99.5489 305.592 99.5489 303.256C99.5489 300.92 97.8529 299.32 95.5489 299.32C93.2449 299.32 91.5489 300.92 91.5489 303.256ZM92.8929 303.256C92.8929 301.688 93.9329 300.472 95.5489 300.472C97.1649 300.472 98.2049 301.688 98.2049 303.256C98.2049 304.824 97.1649 306.04 95.5489 306.04C93.9329 306.04 92.8929 304.824 92.8929 303.256ZM108.009 299.512H106.761V303.16C106.761 304.872 106.057 306.04 104.441 306.04C103.273 306.04 102.729 305.256 102.729 304.008V299.512H101.481V304.136C101.481 305.944 102.361 307.192 104.329 307.192C105.561 307.192 106.489 306.504 106.825 305.768H106.857C106.857 306.184 106.889 306.6 106.889 307H108.073C108.073 306.504 108.009 305.912 108.009 305.224V299.512ZM110.308 310.648H111.556V305.672H111.588C112.052 306.52 113.124 307.192 114.468 307.192C116.564 307.192 118.212 305.496 118.212 303.256C118.212 300.984 116.628 299.32 114.276 299.32C113.188 299.32 112.276 299.8 111.588 300.6H111.556V299.512H110.308V310.648ZM111.556 303.256C111.556 301.688 112.596 300.472 114.212 300.472C115.828 300.472 116.868 301.688 116.868 303.256C116.868 304.824 115.828 306.04 114.212 306.04C112.596 306.04 111.556 304.824 111.556 303.256ZM123.774 305.8C124.51 306.856 125.422 307.192 126.686 307.192C128.174 307.192 129.678 306.536 129.678 304.84C129.678 303.336 128.558 302.856 127.23 302.6C126.238 302.408 125.342 302.136 125.342 301.512C125.342 300.808 126.126 300.472 126.814 300.472C127.55 300.472 128.078 300.84 128.398 301.368L129.438 300.68C128.926 299.72 127.95 299.32 126.894 299.32C125.502 299.32 124.094 300.072 124.094 301.528C124.094 303.08 125.31 303.384 126.734 303.704C127.534 303.88 128.334 304.088 128.334 304.888C128.334 305.704 127.47 306.04 126.686 306.04C125.806 306.04 125.262 305.64 124.766 305.032L123.774 305.8ZM131.53 307H132.778V299.512H131.53V307ZM131.242 296.584C131.242 297.112 131.626 297.496 132.154 297.496C132.682 297.496 133.066 297.112 133.066 296.584C133.066 296.088 132.666 295.672 132.154 295.672C131.642 295.672 131.242 296.088 131.242 296.584ZM135.262 307H136.51V303.352C136.51 301.64 137.214 300.472 138.83 300.472C139.854 300.472 140.27 301.112 140.27 302.76V307H141.518V302.68C141.518 301.336 142.398 300.472 143.454 300.472C144.91 300.472 145.278 301.48 145.278 302.52V307H146.526V302.456C146.526 300.52 145.822 299.32 143.678 299.32C142.542 299.32 141.854 299.864 141.31 300.744C141.07 300.232 140.558 299.32 138.942 299.32C137.71 299.32 136.782 300.008 136.446 300.744H136.414C136.414 300.328 136.382 299.912 136.382 299.512H135.198C135.198 300.008 135.262 300.6 135.262 301.288V307ZM148.999 307H150.247V299.512H148.999V307ZM148.711 296.584C148.711 297.112 149.095 297.496 149.623 297.496C150.151 297.496 150.535 297.112 150.535 296.584C150.535 296.088 150.135 295.672 149.623 295.672C149.111 295.672 148.711 296.088 148.711 296.584ZM152.843 307H154.091V294.904H152.843V307ZM157.263 301.288C157.855 300.744 158.687 300.472 159.487 300.472C160.655 300.472 161.343 301.032 161.343 302.12V302.344H160.863C159.023 302.344 156.143 302.488 156.143 304.968C156.143 306.424 157.407 307.192 158.927 307.192C160.063 307.192 160.895 306.648 161.391 305.88H161.423C161.423 306.2 161.423 306.664 161.503 307H162.703C162.639 306.616 162.591 306.136 162.591 305.704V302.488C162.591 300.376 161.663 299.32 159.455 299.32C158.367 299.32 157.247 299.688 156.479 300.472L157.263 301.288ZM161.343 303.4V303.88C161.311 305.096 160.575 306.136 159.135 306.136C158.191 306.136 157.487 305.784 157.487 304.84C157.487 303.832 158.511 303.4 160.095 303.4H161.343ZM164.872 307H166.12V303.352C166.12 301.64 166.792 300.568 168.312 300.568C168.536 300.568 168.776 300.6 168.984 300.664L169.064 299.4C168.888 299.336 168.712 299.32 168.552 299.32C167.32 299.32 166.392 300.008 166.056 300.744H166.024C166.024 300.328 165.992 299.912 165.992 299.512H164.808C164.808 300.008 164.872 300.6 164.872 301.288V307ZM175.062 307H176.31V299.512H175.062V307ZM174.774 296.584C174.774 297.112 175.158 297.496 175.686 297.496C176.214 297.496 176.598 297.112 176.598 296.584C176.598 296.088 176.198 295.672 175.686 295.672C175.174 295.672 174.774 296.088 174.774 296.584ZM182.889 299.512H180.681V297.384H179.433V299.512H177.801V300.568H179.433V304.68C179.433 306.232 179.721 307.192 181.497 307.192C181.961 307.192 182.521 307.112 182.953 306.92L182.905 305.784C182.569 305.96 182.169 306.04 181.801 306.04C180.697 306.04 180.681 305.272 180.681 304.312V300.568H182.889V299.512ZM190.162 304.904C189.57 305.656 188.85 306.04 187.778 306.04C186.418 306.04 185.426 304.936 185.33 303.64H191.378V303.24C191.378 300.76 189.938 299.32 187.826 299.32C185.618 299.32 183.986 300.936 183.986 303.256C183.986 305.432 185.426 307.192 187.778 307.192C189.17 307.192 190.226 306.776 191.106 305.64L190.162 304.904ZM185.33 302.584C185.49 301.32 186.402 300.472 187.778 300.472C189.154 300.472 189.986 301.32 190.034 302.584H185.33ZM193.309 307H194.557V303.352C194.557 301.64 195.261 300.472 196.877 300.472C197.901 300.472 198.317 301.112 198.317 302.76V307H199.565V302.68C199.565 301.336 200.445 300.472 201.501 300.472C202.957 300.472 203.325 301.48 203.325 302.52V307H204.573V302.456C204.573 300.52 203.869 299.32 201.725 299.32C200.589 299.32 199.901 299.864 199.357 300.744C199.117 300.232 198.605 299.32 196.989 299.32C195.757 299.32 194.829 300.008 194.493 300.744H194.461C194.461 300.328 194.429 299.912 194.429 299.512H193.245C193.245 300.008 193.309 300.6 193.309 301.288V307ZM206.102 305.8C206.838 306.856 207.75 307.192 209.014 307.192C210.502 307.192 212.006 306.536 212.006 304.84C212.006 303.336 210.886 302.856 209.558 302.6C208.566 302.408 207.67 302.136 207.67 301.512C207.67 300.808 208.454 300.472 209.142 300.472C209.878 300.472 210.406 300.84 210.726 301.368L211.766 300.68C211.254 299.72 210.278 299.32 209.222 299.32C207.83 299.32 206.422 300.072 206.422 301.528C206.422 303.08 207.638 303.384 209.062 303.704C209.862 303.88 210.662 304.088 210.662 304.888C210.662 305.704 209.798 306.04 209.014 306.04C208.134 306.04 207.59 305.64 207.094 305.032L206.102 305.8ZM222.296 299.512H220.088V297.384H218.84V299.512H217.208V300.568H218.84V304.68C218.84 306.232 219.128 307.192 220.904 307.192C221.368 307.192 221.928 307.112 222.36 306.92L222.312 305.784C221.976 305.96 221.576 306.04 221.208 306.04C220.104 306.04 220.088 305.272 220.088 304.312V300.568H222.296V299.512ZM223.393 303.256C223.393 305.592 225.089 307.192 227.393 307.192C229.697 307.192 231.393 305.592 231.393 303.256C231.393 300.92 229.697 299.32 227.393 299.32C225.089 299.32 223.393 300.92 223.393 303.256ZM224.737 303.256C224.737 301.688 225.777 300.472 227.393 300.472C229.009 300.472 230.049 301.688 230.049 303.256C230.049 304.824 229.009 306.04 227.393 306.04C225.777 306.04 224.737 304.824 224.737 303.256ZM240.797 299.512H239.549V300.792H239.517C239.021 299.8 237.885 299.32 236.877 299.32C234.493 299.32 232.893 300.808 232.893 303.256C232.893 305.464 234.525 307.096 236.877 307.096C237.869 307.096 238.925 306.664 239.517 305.704H239.549V306.664C239.549 308.248 238.957 309.688 236.717 309.688C235.565 309.688 234.717 309.24 233.933 308.392L233.037 309.416C234.093 310.456 235.261 310.84 236.717 310.84C239.341 310.84 240.797 309.368 240.797 306.664V299.512ZM234.237 303.256C234.237 301.688 235.309 300.472 236.877 300.472C238.461 300.472 239.549 301.608 239.549 303.224C239.549 304.664 238.589 305.944 236.877 305.944C235.421 305.944 234.237 304.776 234.237 303.256ZM248.85 304.904C248.258 305.656 247.538 306.04 246.466 306.04C245.106 306.04 244.114 304.936 244.018 303.64H250.066V303.24C250.066 300.76 248.626 299.32 246.514 299.32C244.306 299.32 242.674 300.936 242.674 303.256C242.674 305.432 244.114 307.192 246.466 307.192C247.858 307.192 248.914 306.776 249.794 305.64L248.85 304.904ZM244.018 302.584C244.178 301.32 245.09 300.472 246.466 300.472C247.842 300.472 248.674 301.32 248.722 302.584H244.018ZM256.093 299.512H253.885V297.384H252.637V299.512H251.005V300.568H252.637V304.68C252.637 306.232 252.924 307.192 254.701 307.192C255.165 307.192 255.725 307.112 256.157 306.92L256.109 305.784C255.773 305.96 255.373 306.04 255.005 306.04C253.901 306.04 253.885 305.272 253.885 304.312V300.568H256.093V299.512ZM257.622 307H258.87V303.352C258.87 301.64 259.574 300.472 261.19 300.472C262.358 300.472 262.902 301.256 262.902 302.504V307H264.15V302.376C264.15 300.568 263.27 299.32 261.302 299.32C260.134 299.32 259.238 299.96 258.902 300.552H258.87V294.904H257.622V307ZM272.256 304.904C271.664 305.656 270.944 306.04 269.872 306.04C268.512 306.04 267.52 304.936 267.424 303.64H273.472V303.24C273.472 300.76 272.032 299.32 269.92 299.32C267.712 299.32 266.08 300.936 266.08 303.256C266.08 305.432 267.52 307.192 269.872 307.192C271.264 307.192 272.32 306.776 273.2 305.64L272.256 304.904ZM267.424 302.584C267.584 301.32 268.496 300.472 269.872 300.472C271.248 300.472 272.08 301.32 272.128 302.584H267.424ZM275.403 307H276.651V303.352C276.651 301.64 277.323 300.568 278.843 300.568C279.067 300.568 279.307 300.6 279.515 300.664L279.595 299.4C279.419 299.336 279.243 299.32 279.083 299.32C277.851 299.32 276.923 300.008 276.587 300.744H276.555C276.555 300.328 276.523 299.912 276.523 299.512H275.339C275.339 300.008 275.403 300.6 275.403 301.288V307ZM80.712 323.512H79.464V327.16C79.464 328.872 78.76 330.04 77.144 330.04C75.976 330.04 75.432 329.256 75.432 328.008V323.512H74.184V328.136C74.184 329.944 75.064 331.192 77.032 331.192C78.264 331.192 79.192 330.504 79.528 329.768H79.56C79.56 330.184 79.592 330.6 79.592 331H80.776C80.776 330.504 80.712 329.912 80.712 329.224V323.512ZM82.2426 329.8C82.9786 330.856 83.8906 331.192 85.1546 331.192C86.6426 331.192 88.1466 330.536 88.1466 328.84C88.1466 327.336 87.0266 326.856 85.6986 326.6C84.7066 326.408 83.8106 326.136 83.8106 325.512C83.8106 324.808 84.5946 324.472 85.2826 324.472C86.0186 324.472 86.5466 324.84 86.8666 325.368L87.9066 324.68C87.3946 323.72 86.4186 323.32 85.3626 323.32C83.9706 323.32 82.5626 324.072 82.5626 325.528C82.5626 327.08 83.7786 327.384 85.2026 327.704C86.0026 327.88 86.8026 328.088 86.8026 328.888C86.8026 329.704 85.9386 330.04 85.1546 330.04C84.2746 330.04 83.7306 329.64 83.2346 329.032L82.2426 329.8ZM89.9991 331H91.2471V323.512H89.9991V331ZM89.7111 320.584C89.7111 321.112 90.0951 321.496 90.6231 321.496C91.1511 321.496 91.5351 321.112 91.5351 320.584C91.5351 320.088 91.1351 319.672 90.6231 319.672C90.1111 319.672 89.7111 320.088 89.7111 320.584ZM93.7309 331H94.9789V327.352C94.9789 325.64 95.6829 324.472 97.2989 324.472C98.4669 324.472 99.0109 325.256 99.0109 326.504V331H100.259V326.376C100.259 324.568 99.3789 323.32 97.4109 323.32C96.1789 323.32 95.2509 324.008 94.9149 324.744H94.8829C94.8829 324.328 94.8509 323.912 94.8509 323.512H93.6669C93.6669 324.008 93.7309 324.6 93.7309 325.288V331ZM110.094 323.512H108.846V324.792H108.814C108.318 323.8 107.182 323.32 106.174 323.32C103.789 323.32 102.19 324.808 102.19 327.256C102.19 329.464 103.822 331.096 106.174 331.096C107.166 331.096 108.222 330.664 108.814 329.704H108.846V330.664C108.846 332.248 108.254 333.688 106.014 333.688C104.862 333.688 104.014 333.24 103.23 332.392L102.334 333.416C103.39 334.456 104.558 334.84 106.014 334.84C108.638 334.84 110.094 333.368 110.094 330.664V323.512ZM103.534 327.256C103.534 325.688 104.606 324.472 106.174 324.472C107.758 324.472 108.846 325.608 108.846 327.224C108.846 328.664 107.886 329.944 106.174 329.944C104.718 329.944 103.534 328.776 103.534 327.256ZM116.024 329.8C116.76 330.856 117.672 331.192 118.936 331.192C120.424 331.192 121.928 330.536 121.928 328.84C121.928 327.336 120.808 326.856 119.48 326.6C118.488 326.408 117.592 326.136 117.592 325.512C117.592 324.808 118.376 324.472 119.064 324.472C119.8 324.472 120.328 324.84 120.648 325.368L121.688 324.68C121.176 323.72 120.2 323.32 119.144 323.32C117.752 323.32 116.344 324.072 116.344 325.528C116.344 327.08 117.56 327.384 118.984 327.704C119.784 327.88 120.584 328.088 120.584 328.888C120.584 329.704 119.72 330.04 118.936 330.04C118.056 330.04 117.512 329.64 117.016 329.032L116.024 329.8ZM123.78 331H125.028V323.512H123.78V331ZM123.492 320.584C123.492 321.112 123.876 321.496 124.404 321.496C124.932 321.496 125.316 321.112 125.316 320.584C125.316 320.088 124.916 319.672 124.404 319.672C123.892 319.672 123.492 320.088 123.492 320.584ZM127.512 331H128.76V327.352C128.76 325.64 129.464 324.472 131.08 324.472C132.104 324.472 132.52 325.112 132.52 326.76V331H133.768V326.68C133.768 325.336 134.648 324.472 135.704 324.472C137.16 324.472 137.528 325.48 137.528 326.52V331H138.776V326.456C138.776 324.52 138.072 323.32 135.928 323.32C134.792 323.32 134.104 323.864 133.56 324.744C133.32 324.232 132.808 323.32 131.192 323.32C129.96 323.32 129.032 324.008 128.696 324.744H128.664C128.664 324.328 128.632 323.912 128.632 323.512H127.448C127.448 324.008 127.512 324.6 127.512 325.288V331ZM141.249 331H142.497V323.512H141.249V331ZM140.961 320.584C140.961 321.112 141.345 321.496 141.873 321.496C142.401 321.496 142.785 321.112 142.785 320.584C142.785 320.088 142.385 319.672 141.873 319.672C141.361 319.672 140.961 320.088 140.961 320.584ZM145.093 331H146.341V318.904H145.093V331ZM149.513 325.288C150.105 324.744 150.937 324.472 151.737 324.472C152.905 324.472 153.593 325.032 153.593 326.12V326.344H153.113C151.273 326.344 148.393 326.488 148.393 328.968C148.393 330.424 149.657 331.192 151.177 331.192C152.313 331.192 153.145 330.648 153.641 329.88H153.673C153.673 330.2 153.673 330.664 153.753 331H154.953C154.889 330.616 154.841 330.136 154.841 329.704V326.488C154.841 324.376 153.913 323.32 151.705 323.32C150.617 323.32 149.497 323.688 148.729 324.472L149.513 325.288ZM153.593 327.4V327.88C153.561 329.096 152.825 330.136 151.385 330.136C150.441 330.136 149.737 329.784 149.737 328.84C149.737 327.832 150.761 327.4 152.345 327.4H153.593ZM157.122 331H158.37V327.352C158.37 325.64 159.042 324.568 160.562 324.568C160.786 324.568 161.026 324.6 161.234 324.664L161.314 323.4C161.138 323.336 160.962 323.32 160.802 323.32C159.57 323.32 158.642 324.008 158.306 324.744H158.274C158.274 324.328 158.242 323.912 158.242 323.512H157.058C157.058 324.008 157.122 324.6 157.122 325.288V331ZM166.368 329.8C167.104 330.856 168.016 331.192 169.28 331.192C170.768 331.192 172.272 330.536 172.272 328.84C172.272 327.336 171.152 326.856 169.824 326.6C168.832 326.408 167.936 326.136 167.936 325.512C167.936 324.808 168.72 324.472 169.408 324.472C170.144 324.472 170.672 324.84 170.992 325.368L172.032 324.68C171.52 323.72 170.544 323.32 169.488 323.32C168.096 323.32 166.688 324.072 166.688 325.528C166.688 327.08 167.904 327.384 169.328 327.704C170.128 327.88 170.928 328.088 170.928 328.888C170.928 329.704 170.064 330.04 169.28 330.04C168.4 330.04 167.856 329.64 167.36 329.032L166.368 329.8ZM173.948 334.648H175.196V329.672H175.228C175.692 330.52 176.764 331.192 178.108 331.192C180.204 331.192 181.852 329.496 181.852 327.256C181.852 324.984 180.268 323.32 177.916 323.32C176.828 323.32 175.916 323.8 175.228 324.6H175.196V323.512H173.948V334.648ZM175.196 327.256C175.196 325.688 176.236 324.472 177.852 324.472C179.468 324.472 180.508 325.688 180.508 327.256C180.508 328.824 179.468 330.04 177.852 330.04C176.236 330.04 175.196 328.824 175.196 327.256ZM184.481 325.288C185.073 324.744 185.905 324.472 186.705 324.472C187.873 324.472 188.561 325.032 188.561 326.12V326.344H188.081C186.241 326.344 183.361 326.488 183.361 328.968C183.361 330.424 184.625 331.192 186.145 331.192C187.281 331.192 188.113 330.648 188.609 329.88H188.641C188.641 330.2 188.641 330.664 188.721 331H189.921C189.857 330.616 189.809 330.136 189.809 329.704V326.488C189.809 324.376 188.881 323.32 186.673 323.32C185.585 323.32 184.465 323.688 183.697 324.472L184.481 325.288ZM188.561 327.4V327.88C188.529 329.096 187.793 330.136 186.353 330.136C185.409 330.136 184.705 329.784 184.705 328.84C184.705 327.832 185.729 327.4 187.313 327.4H188.561ZM198.41 324.504C197.658 323.688 196.634 323.32 195.53 323.32C193.226 323.32 191.658 324.984 191.658 327.256C191.658 329.56 193.21 331.192 195.53 331.192C196.618 331.192 197.642 330.824 198.362 329.992L197.434 329.112C196.97 329.752 196.346 330.04 195.53 330.04C194.01 330.04 193.002 328.792 193.002 327.256C193.002 325.72 193.85 324.472 195.53 324.472C196.282 324.472 196.89 324.744 197.418 325.384L198.41 324.504ZM199.921 331H201.169V323.512H199.921V331ZM199.633 320.584C199.633 321.112 200.017 321.496 200.545 321.496C201.073 321.496 201.457 321.112 201.457 320.584C201.457 320.088 201.057 319.672 200.545 319.672C200.033 319.672 199.633 320.088 199.633 320.584ZM203.653 331H204.901V327.352C204.901 325.64 205.605 324.472 207.221 324.472C208.389 324.472 208.933 325.256 208.933 326.504V331H210.181V326.376C210.181 324.568 209.301 323.32 207.333 323.32C206.101 323.32 205.173 324.008 204.837 324.744H204.805C204.805 324.328 204.773 323.912 204.773 323.512H203.589C203.589 324.008 203.653 324.6 203.653 325.288V331ZM220.015 323.512H218.767V324.792H218.735C218.239 323.8 217.103 323.32 216.095 323.32C213.711 323.32 212.111 324.808 212.111 327.256C212.111 329.464 213.743 331.096 216.095 331.096C217.087 331.096 218.143 330.664 218.735 329.704H218.767V330.664C218.767 332.248 218.175 333.688 215.935 333.688C214.783 333.688 213.935 333.24 213.151 332.392L212.255 333.416C213.311 334.456 214.479 334.84 215.935 334.84C218.559 334.84 220.015 333.368 220.015 330.664V323.512ZM213.455 327.256C213.455 325.688 214.527 324.472 216.095 324.472C217.679 324.472 218.767 325.608 218.767 327.224C218.767 328.664 217.807 329.944 216.095 329.944C214.639 329.944 213.455 328.776 213.455 327.256Z" fill="black"/>
<path d="M410.264 307H414.488C417.208 307 420.488 305.208 420.488 301.336C420.488 297.496 417.704 295.672 414.728 295.672H410.264V307ZM412.28 305.176V297.496H414.12C416.584 297.496 418.376 298.584 418.376 301.336C418.376 304.088 416.312 305.176 413.784 305.176H412.28ZM421.845 303.16C421.845 305.576 423.701 307.192 426.021 307.192C428.341 307.192 430.197 305.576 430.197 303.16C430.197 300.744 428.341 299.128 426.021 299.128C423.701 299.128 421.845 300.744 421.845 303.16ZM423.765 303.16C423.765 301.96 424.613 300.856 426.021 300.856C427.429 300.856 428.277 301.96 428.277 303.16C428.277 304.36 427.429 305.464 426.021 305.464C424.613 305.464 423.765 304.36 423.765 303.16ZM431.994 307H433.914V302.808C433.914 301.784 434.41 300.856 435.674 300.856C437.018 300.856 437.082 302.264 437.082 303.112V307H439.002V302.152C439.002 300.584 438.266 299.128 436.202 299.128C434.922 299.128 434.202 299.784 433.85 300.552H433.818V299.32H431.994V307ZM440.926 299.896H442.638L443.998 295.672H442.046L440.926 299.896ZM446.323 300.952V304.472C446.323 306.28 446.803 307.192 448.835 307.192C449.283 307.192 449.955 307.128 450.355 306.936V305.32C450.115 305.496 449.651 305.56 449.315 305.56C448.467 305.56 448.243 305.08 448.243 304.312V300.952H450.355V299.32H448.243V297.096H446.323V299.32H444.739V300.952H446.323ZM451.718 306.02C451.718 306.622 452.25 307.084 452.838 307.084C453.454 307.084 453.958 306.594 453.958 305.992C453.958 305.39 453.44 304.928 452.838 304.928C452.222 304.928 451.718 305.418 451.718 306.02ZM451.718 301.274C451.718 301.876 452.25 302.338 452.838 302.338C453.454 302.338 453.958 301.848 453.958 301.246C453.958 300.644 453.44 300.182 452.838 300.182C452.222 300.182 451.718 300.672 451.718 301.274Z" fill="black"/>
<path d="M474.04 300.664H470.088V301.912H472.696V305.384C471.864 305.8 470.792 306.04 469.88 306.04C467.096 306.04 465.192 304.04 465.192 301.336C465.192 298.584 467.16 296.632 469.752 296.632C470.904 296.632 472.072 297.096 472.84 297.928L473.848 296.872C472.776 295.784 471.336 295.384 469.848 295.384C466.456 295.384 463.752 297.768 463.752 301.336C463.752 304.888 466.28 307.288 469.8 307.288C471.272 307.288 472.744 306.952 474.04 306.232V300.664ZM476.637 307H477.885V303.352C477.885 301.64 478.557 300.568 480.077 300.568C480.301 300.568 480.541 300.6 480.749 300.664L480.829 299.4C480.653 299.336 480.477 299.32 480.317 299.32C479.085 299.32 478.157 300.008 477.821 300.744H477.789C477.789 300.328 477.757 299.912 477.757 299.512H476.573C476.573 300.008 476.637 300.6 476.637 301.288V307ZM481.549 303.256C481.549 305.592 483.245 307.192 485.549 307.192C487.853 307.192 489.549 305.592 489.549 303.256C489.549 300.92 487.853 299.32 485.549 299.32C483.245 299.32 481.549 300.92 481.549 303.256ZM482.893 303.256C482.893 301.688 483.933 300.472 485.549 300.472C487.165 300.472 488.205 301.688 488.205 303.256C488.205 304.824 487.165 306.04 485.549 306.04C483.933 306.04 482.893 304.824 482.893 303.256ZM498.009 299.512H496.761V303.16C496.761 304.872 496.057 306.04 494.441 306.04C493.273 306.04 492.729 305.256 492.729 304.008V299.512H491.481V304.136C491.481 305.944 492.361 307.192 494.329 307.192C495.561 307.192 496.489 306.504 496.825 305.768H496.857C496.857 306.184 496.889 306.6 496.889 307H498.073C498.073 306.504 498.009 305.912 498.009 305.224V299.512ZM500.308 310.648H501.556V305.672H501.588C502.052 306.52 503.124 307.192 504.468 307.192C506.564 307.192 508.212 305.496 508.212 303.256C508.212 300.984 506.628 299.32 504.276 299.32C503.188 299.32 502.276 299.8 501.588 300.6H501.556V299.512H500.308V310.648ZM501.556 303.256C501.556 301.688 502.596 300.472 504.212 300.472C505.828 300.472 506.868 301.688 506.868 303.256C506.868 304.824 505.828 306.04 504.212 306.04C502.596 306.04 501.556 304.824 501.556 303.256ZM513.774 305.8C514.51 306.856 515.422 307.192 516.686 307.192C518.174 307.192 519.678 306.536 519.678 304.84C519.678 303.336 518.558 302.856 517.23 302.6C516.238 302.408 515.342 302.136 515.342 301.512C515.342 300.808 516.126 300.472 516.814 300.472C517.55 300.472 518.078 300.84 518.398 301.368L519.438 300.68C518.926 299.72 517.95 299.32 516.894 299.32C515.502 299.32 514.094 300.072 514.094 301.528C514.094 303.08 515.31 303.384 516.734 303.704C517.534 303.88 518.334 304.088 518.334 304.888C518.334 305.704 517.47 306.04 516.686 306.04C515.806 306.04 515.262 305.64 514.766 305.032L513.774 305.8ZM521.53 307H522.778V299.512H521.53V307ZM521.242 296.584C521.242 297.112 521.626 297.496 522.154 297.496C522.682 297.496 523.066 297.112 523.066 296.584C523.066 296.088 522.666 295.672 522.154 295.672C521.642 295.672 521.242 296.088 521.242 296.584ZM525.262 307H526.51V303.352C526.51 301.64 527.214 300.472 528.83 300.472C529.854 300.472 530.27 301.112 530.27 302.76V307H531.518V302.68C531.518 301.336 532.398 300.472 533.454 300.472C534.91 300.472 535.278 301.48 535.278 302.52V307H536.526V302.456C536.526 300.52 535.822 299.32 533.678 299.32C532.542 299.32 531.854 299.864 531.31 300.744C531.07 300.232 530.558 299.32 528.942 299.32C527.71 299.32 526.782 300.008 526.446 300.744H526.414C526.414 300.328 526.382 299.912 526.382 299.512H525.198C525.198 300.008 525.262 300.6 525.262 301.288V307ZM538.999 307H540.247V299.512H538.999V307ZM538.711 296.584C538.711 297.112 539.095 297.496 539.623 297.496C540.151 297.496 540.535 297.112 540.535 296.584C540.535 296.088 540.135 295.672 539.623 295.672C539.111 295.672 538.711 296.088 538.711 296.584ZM542.843 307H544.091V294.904H542.843V307ZM547.263 301.288C547.855 300.744 548.687 300.472 549.487 300.472C550.655 300.472 551.343 301.032 551.343 302.12V302.344H550.863C549.023 302.344 546.143 302.488 546.143 304.968C546.143 306.424 547.407 307.192 548.927 307.192C550.063 307.192 550.895 306.648 551.391 305.88H551.423C551.423 306.2 551.423 306.664 551.503 307H552.703C552.639 306.616 552.591 306.136 552.591 305.704V302.488C552.591 300.376 551.663 299.32 549.455 299.32C548.367 299.32 547.247 299.688 546.479 300.472L547.263 301.288ZM551.343 303.4V303.88C551.311 305.096 550.575 306.136 549.135 306.136C548.191 306.136 547.487 305.784 547.487 304.84C547.487 303.832 548.511 303.4 550.095 303.4H551.343ZM554.872 307H556.12V303.352C556.12 301.64 556.792 300.568 558.312 300.568C558.536 300.568 558.776 300.6 558.984 300.664L559.064 299.4C558.888 299.336 558.712 299.32 558.552 299.32C557.32 299.32 556.392 300.008 556.056 300.744H556.024C556.024 300.328 555.992 299.912 555.992 299.512H554.808C554.808 300.008 554.872 300.6 554.872 301.288V307ZM565.062 307H566.31V299.512H565.062V307ZM564.774 296.584C564.774 297.112 565.158 297.496 565.686 297.496C566.214 297.496 566.598 297.112 566.598 296.584C566.598 296.088 566.198 295.672 565.686 295.672C565.174 295.672 564.774 296.088 564.774 296.584ZM572.889 299.512H570.681V297.384H569.433V299.512H567.801V300.568H569.433V304.68C569.433 306.232 569.721 307.192 571.497 307.192C571.961 307.192 572.521 307.112 572.953 306.92L572.905 305.784C572.569 305.96 572.169 306.04 571.801 306.04C570.697 306.04 570.681 305.272 570.681 304.312V300.568H572.889V299.512ZM580.162 304.904C579.57 305.656 578.85 306.04 577.778 306.04C576.418 306.04 575.426 304.936 575.33 303.64H581.378V303.24C581.378 300.76 579.938 299.32 577.826 299.32C575.618 299.32 573.986 300.936 573.986 303.256C573.986 305.432 575.426 307.192 577.778 307.192C579.17 307.192 580.226 306.776 581.106 305.64L580.162 304.904ZM575.33 302.584C575.49 301.32 576.402 300.472 577.778 300.472C579.154 300.472 579.986 301.32 580.034 302.584H575.33ZM583.309 307H584.557V303.352C584.557 301.64 585.261 300.472 586.877 300.472C587.901 300.472 588.317 301.112 588.317 302.76V307H589.565V302.68C589.565 301.336 590.445 300.472 591.501 300.472C592.957 300.472 593.325 301.48 593.325 302.52V307H594.573V302.456C594.573 300.52 593.869 299.32 591.725 299.32C590.589 299.32 589.901 299.864 589.357 300.744C589.117 300.232 588.605 299.32 586.989 299.32C585.757 299.32 584.829 300.008 584.493 300.744H584.461C584.461 300.328 584.429 299.912 584.429 299.512H583.245C583.245 300.008 583.309 300.6 583.309 301.288V307ZM596.102 305.8C596.838 306.856 597.75 307.192 599.014 307.192C600.502 307.192 602.006 306.536 602.006 304.84C602.006 303.336 600.886 302.856 599.558 302.6C598.566 302.408 597.67 302.136 597.67 301.512C597.67 300.808 598.454 300.472 599.142 300.472C599.878 300.472 600.406 300.84 600.726 301.368L601.766 300.68C601.254 299.72 600.278 299.32 599.222 299.32C597.83 299.32 596.422 300.072 596.422 301.528C596.422 303.08 597.638 303.384 599.062 303.704C599.862 303.88 600.662 304.088 600.662 304.888C600.662 305.704 599.798 306.04 599.014 306.04C598.134 306.04 597.59 305.64 597.094 305.032L596.102 305.8ZM614.424 307H615.672V294.904H614.424V300.6H614.392C613.704 299.8 612.792 299.32 611.704 299.32C609.352 299.32 607.768 300.984 607.768 303.256C607.768 305.496 609.416 307.192 611.512 307.192C612.856 307.192 613.928 306.52 614.392 305.672H614.424V307ZM614.424 303.256C614.424 304.824 613.384 306.04 611.768 306.04C610.152 306.04 609.112 304.824 609.112 303.256C609.112 301.688 610.152 300.472 611.768 300.472C613.384 300.472 614.424 301.688 614.424 303.256ZM618.093 307H619.341V299.512H618.093V307ZM617.805 296.584C617.805 297.112 618.189 297.496 618.717 297.496C619.245 297.496 619.629 297.112 619.629 296.584C619.629 296.088 619.229 295.672 618.717 295.672C618.205 295.672 617.805 296.088 617.805 296.584ZM622.465 307H623.713V300.568H625.537V299.512H623.713V298.104C623.713 296.808 623.761 295.864 625.057 295.864C625.345 295.864 625.633 295.928 625.905 296.024L626.081 294.904C625.841 294.776 625.441 294.712 625.121 294.712C623.105 294.712 622.465 296.008 622.465 297.832V299.512H620.833V300.568H622.465V307ZM627.23 307H628.478V300.568H630.302V299.512H628.478V298.104C628.478 296.808 628.526 295.864 629.822 295.864C630.11 295.864 630.398 295.928 630.67 296.024L630.846 294.904C630.606 294.776 630.206 294.712 629.886 294.712C627.87 294.712 627.23 296.008 627.23 297.832V299.512H625.598V300.568H627.23V307ZM637.381 304.904C636.789 305.656 636.069 306.04 634.997 306.04C633.637 306.04 632.645 304.936 632.549 303.64H638.597V303.24C638.597 300.76 637.157 299.32 635.045 299.32C632.837 299.32 631.205 300.936 631.205 303.256C631.205 305.432 632.645 307.192 634.997 307.192C636.389 307.192 637.445 306.776 638.325 305.64L637.381 304.904ZM632.549 302.584C632.709 301.32 633.621 300.472 634.997 300.472C636.373 300.472 637.205 301.32 637.253 302.584H632.549ZM640.528 307H641.776V303.352C641.776 301.64 642.448 300.568 643.968 300.568C644.192 300.568 644.432 300.6 644.64 300.664L644.72 299.4C644.544 299.336 644.368 299.32 644.208 299.32C642.976 299.32 642.048 300.008 641.712 300.744H641.68C641.68 300.328 641.648 299.912 641.648 299.512H640.464C640.464 300.008 640.528 300.6 640.528 301.288V307ZM651.616 304.904C651.024 305.656 650.304 306.04 649.232 306.04C647.872 306.04 646.88 304.936 646.784 303.64H652.832V303.24C652.832 300.76 651.392 299.32 649.28 299.32C647.072 299.32 645.44 300.936 645.44 303.256C645.44 305.432 646.88 307.192 649.232 307.192C650.624 307.192 651.68 306.776 652.56 305.64L651.616 304.904ZM646.784 302.584C646.944 301.32 647.856 300.472 649.232 300.472C650.608 300.472 651.44 301.32 651.488 302.584H646.784ZM654.762 307H656.01V303.352C656.01 301.64 656.714 300.472 658.33 300.472C659.498 300.472 660.042 301.256 660.042 302.504V307H661.29V302.376C661.29 300.568 660.41 299.32 658.442 299.32C657.21 299.32 656.282 300.008 655.946 300.744H655.914C655.914 300.328 655.882 299.912 655.882 299.512H654.698C654.698 300.008 654.762 300.6 654.762 301.288V307ZM667.749 299.512H665.541V297.384H664.293V299.512H662.661V300.568H664.293V304.68C664.293 306.232 664.581 307.192 666.357 307.192C666.821 307.192 667.381 307.112 667.813 306.92L667.765 305.784C667.429 305.96 667.029 306.04 666.661 306.04C665.557 306.04 665.541 305.272 665.541 304.312V300.568H667.749V299.512ZM669.39 307H670.638V294.904H669.39V307ZM679.49 299.512H678.13L675.906 305.384H675.874L673.554 299.512H672.098L675.202 307.048L674.69 308.456C674.418 309.192 674.114 309.688 673.298 309.688C672.946 309.688 672.674 309.656 672.418 309.56L672.258 310.648C672.594 310.808 673.026 310.84 673.378 310.84C674.882 310.84 675.378 309.976 675.874 308.712L679.49 299.512ZM680.693 305.176C680.165 305.176 679.733 305.608 679.733 306.136C679.733 306.664 680.197 307.096 680.693 307.096C681.189 307.096 681.653 306.664 681.653 306.136C681.653 305.608 681.221 305.176 680.693 305.176Z" fill="black"/>
<rect x="34" y="14" width="286" height="252" fill="white"/>
<rect width="250" height="228" transform="translate(52 26)" fill="white"/>
<g opacity="0.5">
<rect x="68" y="42" width="156" height="7" rx="3.5" fill="#6B778C"/>
</g>
<g opacity="0.5">
<rect x="68" y="65" width="95" height="7" rx="3.5" fill="#9EA6B5"/>
</g>
<rect x="68.5" y="76.5" width="217" height="35" rx="3.5" fill="white"/>
<g opacity="0.5">
<rect x="80" y="90.5" width="112" height="7" rx="3.5" fill="#D2D6DD"/>
</g>
<rect x="68.5" y="76.5" width="217" height="35" rx="3.5" stroke="#9EA6B5"/>
<rect width="218" height="16" transform="translate(68 112)" fill="#ECF7E3"/>
<g opacity="0.5">
<rect x="68" y="128" width="95" height="7" rx="3.5" fill="#9EA6B5"/>
</g>
<rect x="68.5" y="139.5" width="217" height="35" rx="3.5" fill="white"/>
<g opacity="0.5">
<rect x="80" y="153.5" width="112" height="7" rx="3.5" fill="#D2D6DD"/>
</g>
<rect x="68.5" y="139.5" width="217" height="35" rx="3.5" stroke="#9EA6B5"/>
<rect width="218" height="16" transform="translate(68 175)" fill="#ECF7E3"/>
<g opacity="0.5">
<rect x="68" y="191" width="95" height="7" rx="3.5" fill="#9EA6B5"/>
</g>
<rect x="68.5" y="202.5" width="217" height="35" rx="3.5" fill="white"/>
<g opacity="0.5">
<rect x="80" y="216.5" width="112" height="7" rx="3.5" fill="#D2D6DD"/>
</g>
<rect x="68.5" y="202.5" width="217" height="35" rx="3.5" stroke="#9EA6B5"/>
<rect x="292" y="26" width="16" height="16" rx="8" fill="#467822"/>
<path d="M299 36.1673C298.871 36.1575 298.752 36.0976 298.667 36.0006L296.667 34.0006C296.622 33.9073 296.608 33.8025 296.625 33.7006C296.642 33.5987 296.691 33.5047 296.764 33.4316C296.837 33.3585 296.931 33.3098 297.033 33.2924C297.135 33.2749 297.24 33.2894 297.333 33.334L298.98 34.9806L304.667 29.334C304.76 29.2894 304.865 29.2749 304.967 29.2924C305.069 29.3098 305.163 29.3585 305.236 29.4316C305.309 29.5047 305.357 29.5987 305.375 29.7006C305.392 29.8025 305.378 29.9073 305.333 30.0006L299.333 36.0006C299.248 36.0976 299.129 36.1575 299 36.1673Z" fill="white"/>
<path d="M300 40.0005C298.928 39.9988 297.875 39.7097 296.953 39.1634C296.03 38.617 295.27 37.8333 294.753 36.8939C294.36 36.1939 294.117 35.4196 294.04 34.6205C293.918 33.4486 294.144 32.2667 294.689 31.2222C295.234 30.1777 296.075 29.3169 297.107 28.7472C297.807 28.3541 298.581 28.1112 299.38 28.0339C300.176 27.9482 300.981 28.0254 301.747 28.2605C301.815 28.2742 301.88 28.302 301.937 28.3421C301.994 28.3822 302.041 28.4337 302.077 28.4935C302.113 28.5532 302.136 28.6197 302.145 28.6889C302.153 28.758 302.148 28.8281 302.127 28.8948C302.107 28.9615 302.074 29.0233 302.028 29.0762C301.983 29.1291 301.927 29.1719 301.864 29.202C301.801 29.232 301.733 29.2486 301.663 29.2506C301.594 29.2527 301.524 29.2402 301.46 29.2139C300.812 29.0192 300.132 28.9557 299.46 29.0272C298.795 29.0953 298.151 29.2971 297.567 29.6205C297.003 29.9313 296.505 30.3478 296.1 30.8472C295.683 31.356 295.371 31.9429 295.183 32.5737C294.995 33.2044 294.935 33.8663 295.007 34.5205C295.075 35.1852 295.277 35.8292 295.6 36.4139C295.911 36.9771 296.327 37.4751 296.827 37.8805C297.335 38.298 297.922 38.6097 298.553 38.7974C299.184 38.9852 299.846 39.0451 300.5 38.9739C301.165 38.9058 301.809 38.704 302.393 38.3805C302.957 38.0698 303.455 37.6533 303.86 37.1539C304.277 36.6451 304.589 36.0582 304.777 35.4274C304.965 34.7966 305.025 34.1348 304.953 33.4805C304.947 33.4118 304.954 33.3425 304.974 33.2765C304.994 33.2105 305.027 33.1491 305.071 33.0958C305.115 33.0426 305.169 32.9985 305.23 32.9662C305.291 32.9338 305.358 32.9138 305.427 32.9072C305.495 32.9006 305.565 32.9077 305.631 32.9279C305.697 32.9481 305.758 32.9812 305.811 33.0251C305.865 33.0691 305.909 33.1231 305.941 33.1841C305.973 33.2451 305.993 33.3118 306 33.3805C306.121 34.5532 305.895 35.7356 305.348 36.7802C304.801 37.8247 303.959 38.6851 302.927 39.2539C302.219 39.663 301.433 39.9175 300.62 40.0005C300.413 40.0005 300.2 40.0005 300 40.0005Z" fill="white"/>
<rect x="34" y="14" width="286" height="252" stroke="#E6E6E6" stroke-width="8"/>
<rect x="405" y="14" width="286" height="252" fill="white"/>
<rect width="250" height="228" transform="translate(423 26)" fill="white"/>
<g opacity="0.5">
<rect x="439" y="42" width="156" height="7" rx="3.5" fill="#6B778C"/>
</g>
<g clip-path="url(#clip0_406_42902)">
<g opacity="0.5">
<rect x="439" y="65" width="95" height="7" rx="3.5" fill="#9EA6B5"/>
</g>
<rect x="439.5" y="76.5" width="217" height="35" rx="3.5" fill="white"/>
<g opacity="0.5">
<rect x="451" y="90.5" width="112" height="7" rx="3.5" fill="#D2D6DD"/>
</g>
<rect x="439.5" y="76.5" width="217" height="35" rx="3.5" stroke="#9EA6B5"/>
<rect width="218" height="16" transform="translate(439 112)" fill="#FEEFEF"/>
<g opacity="0.5">
<rect x="439" y="128" width="95" height="7" rx="3.5" fill="#9EA6B5"/>
</g>
<rect x="439.5" y="139.5" width="217" height="35" rx="3.5" fill="white"/>
<g opacity="0.5">
<rect x="451" y="153.5" width="112" height="7" rx="3.5" fill="#D2D6DD"/>
</g>
<rect x="439.5" y="139.5" width="217" height="35" rx="3.5" stroke="#9EA6B5"/>
<rect width="218" height="38" transform="translate(439 175)" fill="#FEEFEF"/>
<g opacity="0.5">
<rect x="439" y="213" width="95" height="7" rx="3.5" fill="#9EA6B5"/>
</g>
<rect x="439.5" y="224.5" width="217" height="35" rx="3.5" fill="white"/>
<rect x="439.5" y="224.5" width="217" height="35" rx="3.5" stroke="#9EA6B5"/>
</g>
<rect x="663" y="26" width="16" height="16" rx="8" fill="#DB3259"/>
<path d="M671.707 34L674.653 31.0533C674.702 31.0075 674.742 30.9523 674.769 30.891C674.797 30.8297 674.811 30.7635 674.812 30.6963C674.814 30.6292 674.801 30.5625 674.776 30.5002C674.751 30.438 674.714 30.3814 674.666 30.3339C674.619 30.2865 674.562 30.249 674.5 30.2239C674.437 30.1987 674.371 30.1864 674.304 30.1876C674.237 30.1888 674.17 30.2035 674.109 30.2308C674.048 30.2581 673.992 30.2975 673.947 30.3466L671 33.2933L668.053 30.3466C667.959 30.2583 667.833 30.2102 667.704 30.2125C667.574 30.2148 667.451 30.2673 667.359 30.3589C667.267 30.4505 667.215 30.5741 667.213 30.7036C667.21 30.8332 667.258 30.9585 667.347 31.0533L670.293 34L667.347 36.9466C667.253 37.0404 667.2 37.1675 667.2 37.3C667.2 37.4325 667.253 37.5596 667.347 37.6533C667.44 37.7469 667.567 37.7995 667.7 37.7995C667.832 37.7995 667.96 37.7469 668.053 37.6533L671 34.7066L673.947 37.6533C674.04 37.7469 674.167 37.7995 674.3 37.7995C674.433 37.7995 674.56 37.7469 674.653 37.6533C674.747 37.5596 674.8 37.4325 674.8 37.3C674.8 37.1675 674.747 37.0404 674.653 36.9466L671.707 34Z" fill="white"/>
<rect x="405" y="14" width="286" height="252" stroke="#E6E6E6" stroke-width="8"/>
<defs>
<clipPath id="clip0_406_42902">
<rect width="218" height="173" fill="white" transform="translate(439 65)"/>
</clipPath>
</defs>
</svg>
