<svg width="739" height="271" viewBox="0 0 739 271" fill="none" xmlns="http://www.w3.org/2000/svg">
<path d="M9.01562 5.94141V21H6.67188V5.94141H1.21094V3.83203H14.7227V5.94141H9.01562ZM24.2617 21V13.1133C24.2617 12.1758 24.0312 11.4375 23.5703 10.8984C23.1094 10.3594 22.4609 10.0898 21.625 10.0898C21.0859 10.0898 20.543 10.25 19.9961 10.5703C19.457 10.8828 19.043 11.25 18.7539 11.6719V21H16.5273V3.30469H18.7539V9.83203C19.0508 9.37109 19.5273 8.98828 20.1836 8.68359C20.8477 8.37109 21.5312 8.21484 22.2344 8.21484C23.5625 8.21484 24.6016 8.65234 25.3516 9.52734C26.1094 10.4023 26.4883 11.5977 26.4883 13.1133V21H24.2617ZM40.2227 14.9414H31.1758C31.1758 16.4102 31.5781 17.5391 32.3828 18.3281C33.0938 19.0156 34.0078 19.3594 35.125 19.3594C36.3984 19.3594 37.4609 18.9883 38.3125 18.2461L39.25 19.8516C38.9062 20.1953 38.3789 20.4922 37.668 20.7422C36.7773 21.0703 35.7852 21.2344 34.6914 21.2344C33.1133 21.2344 31.7734 20.6992 30.6719 19.6289C29.4453 18.4492 28.832 16.8633 28.832 14.8711C28.832 12.8008 29.4609 11.1406 30.7188 9.89062C31.8438 8.77344 33.1758 8.21484 34.7148 8.21484C36.5039 8.21484 37.9062 8.71875 38.9219 9.72656C39.9062 10.6953 40.3984 11.9805 40.3984 13.582C40.3984 14.0742 40.3398 14.5273 40.2227 14.9414ZM34.8203 10.0898C33.8281 10.0898 32.9961 10.4102 32.3242 11.0508C31.6836 11.6602 31.3203 12.418 31.2344 13.3242H38.1836C38.1836 12.4258 37.9023 11.6758 37.3398 11.0742C36.7227 10.418 35.8828 10.0898 34.8203 10.0898ZM58.0352 25.9219V20.2617C57.3867 20.9102 56.3008 21.2344 54.7773 21.2344C53.0664 21.2344 51.7227 20.6641 50.7461 19.5234C49.7773 18.375 49.293 16.7852 49.293 14.7539C49.293 12.7461 49.8477 11.1562 50.957 9.98438C52.0742 8.80469 53.5078 8.21484 55.2578 8.21484C56.3516 8.21484 57.3711 8.60938 58.3164 9.39844L58.9141 8.44922H60.2617V25.9219H58.0352ZM58.0352 11.0508C57.3945 10.4102 56.5938 10.0898 55.6328 10.0898C54.375 10.0898 53.3945 10.5156 52.6914 11.3672C51.9883 12.2188 51.6367 13.3477 51.6367 14.7539C51.6367 16.207 51.9883 17.3398 52.6914 18.1523C53.3945 18.957 54.3438 19.3594 55.5391 19.3594C56.6094 19.3594 57.4414 19.0859 58.0352 18.5391V11.0508ZM65.4883 8.44922V16.4531C65.4883 18.3906 66.3281 19.3594 68.0078 19.3594C68.7422 19.3594 69.4141 19.1484 70.0234 18.7266C70.6328 18.3047 71.0352 17.8164 71.2305 17.2617V8.44922H73.457V21H71.2305V19.2656C70.9805 19.7578 70.4766 20.2109 69.7188 20.625C68.9688 21.0312 68.2344 21.2344 67.5156 21.2344C66.1406 21.2344 65.0859 20.8398 64.3516 20.0508C63.625 19.2617 63.2617 18.1406 63.2617 16.6875V8.44922H65.4883ZM78.8008 3.70312C79.1836 3.70312 79.5078 3.83984 79.7734 4.11328C80.0469 4.37891 80.1836 4.69922 80.1836 5.07422C80.1836 5.45703 80.0469 5.78516 79.7734 6.05859C79.5078 6.32422 79.1836 6.45703 78.8008 6.45703C78.4258 6.45703 78.1016 6.32422 77.8281 6.05859C77.5625 5.78516 77.4297 5.45703 77.4297 5.07422C77.4297 4.69141 77.5625 4.36719 77.8281 4.10156C78.0938 3.83594 78.418 3.70312 78.8008 3.70312ZM77.582 21V10.3242H75.8594V8.44922H79.8086V21H77.582ZM92.8164 9.46875L91.7148 11.0391C91.4883 10.8125 91.0859 10.5977 90.5078 10.3945C89.9375 10.1914 89.375 10.0898 88.8203 10.0898C87.6094 10.0898 86.6484 10.5156 85.9375 11.3672C85.2266 12.2109 84.8711 13.3711 84.8711 14.8477C84.8711 16.3164 85.2344 17.4375 85.9609 18.2109C86.6875 18.9766 87.6953 19.3594 88.9844 19.3594C89.9844 19.3594 90.9922 18.9727 92.0078 18.1992L92.8867 20.0742C91.6914 20.8477 90.2109 21.2344 88.4453 21.2344C86.7344 21.2344 85.3203 20.6602 84.2031 19.5117C83.0859 18.3633 82.5273 16.8086 82.5273 14.8477C82.5273 12.8477 83.1055 11.2422 84.2617 10.0312C85.4258 8.82031 87.0156 8.21484 89.0312 8.21484C89.6797 8.21484 90.3828 8.35156 91.1406 8.625C91.8984 8.89844 92.457 9.17969 92.8164 9.46875ZM103.34 21L99.4023 14.7188L97.457 16.7227V21H95.2305V3.30469H97.457V14.2852L102.262 8.44922H104.863L100.844 13.2188L105.754 21H103.34ZM116.488 20.0977L115.703 21.2344H114.59V3.30469H116.816V9.375C117.027 9.08594 117.422 8.82031 118 8.57812C118.586 8.33594 119.16 8.21484 119.723 8.21484C121.441 8.21484 122.832 8.80859 123.895 9.99609C124.965 11.1836 125.5 12.6836 125.5 14.4961C125.5 16.5898 124.965 18.2383 123.895 19.4414C122.824 20.6367 121.375 21.2344 119.547 21.2344C118.953 21.2344 118.367 21.125 117.789 20.9062C117.219 20.6797 116.785 20.4102 116.488 20.0977ZM116.816 11.0742V18.3164C116.816 18.4414 117.094 18.6484 117.648 18.9375C118.203 19.2188 118.625 19.3594 118.914 19.3594C120.43 19.3594 121.516 18.9961 122.172 18.2695C122.828 17.543 123.156 16.3242 123.156 14.6133C123.156 13.1914 122.773 12.082 122.008 11.2852C121.242 10.4883 120.211 10.0898 118.914 10.0898C118.641 10.0898 118.258 10.207 117.766 10.4414C117.281 10.6758 116.965 10.8867 116.816 11.0742ZM134.793 10.5938C134.309 10.2578 133.82 10.0898 133.328 10.0898C132.539 10.0898 131.848 10.4531 131.254 11.1797C130.668 11.9062 130.375 12.7812 130.375 13.8047V21H128.148V8.44922H130.375V10.4531C131.188 8.96094 132.395 8.21484 133.996 8.21484C134.395 8.21484 134.969 8.28516 135.719 8.42578L134.793 10.5938ZM136.48 14.6953C136.48 12.7578 137 11.1953 138.039 10.0078C139.086 8.8125 140.461 8.21484 142.164 8.21484C143.961 8.21484 145.355 8.78906 146.348 9.9375C147.34 11.0781 147.836 12.6641 147.836 14.6953C147.836 16.7188 147.328 18.3164 146.312 19.4883C145.297 20.6523 143.914 21.2344 142.164 21.2344C140.375 21.2344 138.98 20.6445 137.98 19.4648C136.98 18.2852 136.48 16.6953 136.48 14.6953ZM138.824 14.6953C138.824 17.8438 139.938 19.418 142.164 19.418C143.203 19.418 144.016 18.9961 144.602 18.1523C145.195 17.3086 145.492 16.1562 145.492 14.6953C145.492 11.5859 144.383 10.0312 142.164 10.0312C141.148 10.0312 140.336 10.4453 139.727 11.2734C139.125 12.1016 138.824 13.2422 138.824 14.6953ZM161.793 21.2344H161.207L157.527 12.6914L153.859 21.2344H153.273L148.785 8.41406H151.164L153.848 16.6523L157.188 8.41406H157.773L161.219 16.6523L164.102 8.41406H166.293L161.793 21.2344ZM175.773 21V13.6992C175.773 12.3633 175.57 11.4297 175.164 10.8984C174.766 10.3594 174.094 10.0898 173.148 10.0898C172.641 10.0898 172.109 10.2422 171.555 10.5469C171 10.8516 170.574 11.2266 170.277 11.6719V21H168.051V8.44922H169.574L170.277 10.0664C171.012 8.83203 172.211 8.21484 173.875 8.21484C176.625 8.21484 178 9.88672 178 13.2305V21H175.773ZM195.203 5.29688C194.75 5.14063 194.328 5.0625 193.938 5.0625C193.258 5.0625 192.695 5.32031 192.25 5.83594C191.812 6.35156 191.594 7.00391 191.594 7.79297C191.594 8.00391 191.613 8.22266 191.652 8.44922H194.207V10.3242H191.652V21H189.426V10.3242H187.598V8.44922H189.426C189.426 6.84766 189.82 5.58984 190.609 4.67578C191.398 3.76172 192.441 3.30469 193.738 3.30469C194.387 3.30469 195.082 3.42188 195.824 3.65625L195.203 5.29688ZM196.48 14.6953C196.48 12.7578 197 11.1953 198.039 10.0078C199.086 8.8125 200.461 8.21484 202.164 8.21484C203.961 8.21484 205.355 8.78906 206.348 9.9375C207.34 11.0781 207.836 12.6641 207.836 14.6953C207.836 16.7188 207.328 18.3164 206.312 19.4883C205.297 20.6523 203.914 21.2344 202.164 21.2344C200.375 21.2344 198.98 20.6445 197.98 19.4648C196.98 18.2852 196.48 16.6953 196.48 14.6953ZM198.824 14.6953C198.824 17.8438 199.938 19.418 202.164 19.418C203.203 19.418 204.016 18.9961 204.602 18.1523C205.195 17.3086 205.492 16.1562 205.492 14.6953C205.492 11.5859 204.383 10.0312 202.164 10.0312C201.148 10.0312 200.336 10.4453 199.727 11.2734C199.125 12.1016 198.824 13.2422 198.824 14.6953ZM217.832 21L214.41 16.4297L211.352 21H208.75L213.309 14.5781L209.125 8.44922H211.633L214.445 12.7617L217.598 8.44922H220.059L215.5 14.5781L220.492 21H217.832ZM232.891 3.70312C233.273 3.70312 233.598 3.83984 233.863 4.11328C234.137 4.37891 234.273 4.69922 234.273 5.07422C234.273 5.45703 234.137 5.78516 233.863 6.05859C233.598 6.32422 233.273 6.45703 232.891 6.45703C232.508 6.45703 232.184 6.32422 231.918 6.05859C231.652 5.78516 231.52 5.45703 231.52 5.07422C231.52 4.69141 231.652 4.36719 231.918 4.10156C232.184 3.83594 232.508 3.70312 232.891 3.70312ZM228.086 25.9219V23.9297C229.617 23.9297 230.664 23.6953 231.227 23.2266C231.797 22.7656 232.082 22.0039 232.082 20.9414V10.3242H229.586V8.44922H234.309V20.8945C234.309 22.6211 233.801 23.8906 232.785 24.7031C231.77 25.5156 230.203 25.9219 228.086 25.9219ZM240.379 8.44922V16.4531C240.379 18.3906 241.219 19.3594 242.898 19.3594C243.633 19.3594 244.305 19.1484 244.914 18.7266C245.523 18.3047 245.926 17.8164 246.121 17.2617V8.44922H248.348V21H246.121V19.2656C245.871 19.7578 245.367 20.2109 244.609 20.625C243.859 21.0312 243.125 21.2344 242.406 21.2344C241.031 21.2344 239.977 20.8398 239.242 20.0508C238.516 19.2617 238.152 18.1406 238.152 16.6875V8.44922H240.379ZM265.926 21V13.0547C265.926 11.0781 265.07 10.0898 263.359 10.0898C262.82 10.0898 262.316 10.2578 261.848 10.5938C261.379 10.9219 261.059 11.2969 260.887 11.7188V21H258.66V12.082C258.66 11.4648 258.426 10.9805 257.957 10.6289C257.496 10.2695 256.883 10.0898 256.117 10.0898C255.672 10.0898 255.195 10.2617 254.688 10.6055C254.188 10.9492 253.832 11.3281 253.621 11.7422V21H251.395V8.44922H252.848L253.586 9.90234C254.445 8.77734 255.52 8.21484 256.809 8.21484C258.605 8.21484 259.863 8.77344 260.582 9.89062C260.832 9.41406 261.297 9.01562 261.977 8.69531C262.656 8.375 263.355 8.21484 264.074 8.21484C265.371 8.21484 266.375 8.60156 267.086 9.375C267.797 10.1406 268.152 11.2188 268.152 12.6094V21H265.926ZM273.543 20.3086V25.9219H271.316V8.44922H273.543V9.48047C274.387 8.63672 275.406 8.21484 276.602 8.21484C278.383 8.21484 279.77 8.76953 280.762 9.87891C281.754 10.9883 282.25 12.6133 282.25 14.7539C282.25 16.6602 281.75 18.2188 280.75 19.4297C279.75 20.6328 278.305 21.2344 276.414 21.2344C275.883 21.2344 275.312 21.1406 274.703 20.9531C274.102 20.7656 273.715 20.5508 273.543 20.3086ZM273.543 11.1562V18.4688C273.684 18.6797 273.98 18.8828 274.434 19.0781C274.887 19.2656 275.328 19.3594 275.758 19.3594C278.523 19.3594 279.906 17.7969 279.906 14.6719C279.906 13.0859 279.578 11.9258 278.922 11.1914C278.266 10.457 277.215 10.0898 275.77 10.0898C275.457 10.0898 275.074 10.1992 274.621 10.418C274.168 10.6367 273.809 10.8828 273.543 11.1562ZM283.879 20.25L284.664 18.1406C285.906 18.9531 286.906 19.3594 287.664 19.3594C289.039 19.3594 289.727 18.7812 289.727 17.625C289.727 16.7969 289.062 16.0859 287.734 15.4922C286.711 15.0234 286.02 14.668 285.66 14.4258C285.309 14.1836 285 13.9102 284.734 13.6055C284.477 13.293 284.281 12.9648 284.148 12.6211C284.023 12.2695 283.961 11.8945 283.961 11.4961C283.961 10.4648 284.336 9.66016 285.086 9.08203C285.836 8.50391 286.816 8.21484 288.027 8.21484C288.941 8.21484 290.094 8.50391 291.484 9.08203L290.852 11.1445C289.969 10.4414 289.082 10.0898 288.191 10.0898C287.66 10.0898 287.211 10.2148 286.844 10.4648C286.484 10.7148 286.305 11.0312 286.305 11.4141C286.305 12.2188 286.762 12.8281 287.676 13.2422L289.27 13.9688C290.246 14.4141 290.957 14.9219 291.402 15.4922C291.848 16.0625 292.07 16.7773 292.07 17.6367C292.07 18.7617 291.676 19.6445 290.887 20.2852C290.098 20.918 289.004 21.2344 287.605 21.2344C286.285 21.2344 285.043 20.9062 283.879 20.25ZM300.848 14.6953C300.848 12.7578 301.367 11.1953 302.406 10.0078C303.453 8.8125 304.828 8.21484 306.531 8.21484C308.328 8.21484 309.723 8.78906 310.715 9.9375C311.707 11.0781 312.203 12.6641 312.203 14.6953C312.203 16.7188 311.695 18.3164 310.68 19.4883C309.664 20.6523 308.281 21.2344 306.531 21.2344C304.742 21.2344 303.348 20.6445 302.348 19.4648C301.348 18.2852 300.848 16.6953 300.848 14.6953ZM303.191 14.6953C303.191 17.8438 304.305 19.418 306.531 19.418C307.57 19.418 308.383 18.9961 308.969 18.1523C309.562 17.3086 309.859 16.1562 309.859 14.6953C309.859 11.5859 308.75 10.0312 306.531 10.0312C305.516 10.0312 304.703 10.4453 304.094 11.2734C303.492 12.1016 303.191 13.2422 303.191 14.6953ZM319.082 21.2344H318.496L313.117 8.41406H315.555L318.871 17.2031L322.258 8.41406H324.59L319.082 21.2344ZM336.895 14.9414H327.848C327.848 16.4102 328.25 17.5391 329.055 18.3281C329.766 19.0156 330.68 19.3594 331.797 19.3594C333.07 19.3594 334.133 18.9883 334.984 18.2461L335.922 19.8516C335.578 20.1953 335.051 20.4922 334.34 20.7422C333.449 21.0703 332.457 21.2344 331.363 21.2344C329.785 21.2344 328.445 20.6992 327.344 19.6289C326.117 18.4492 325.504 16.8633 325.504 14.8711C325.504 12.8008 326.133 11.1406 327.391 9.89062C328.516 8.77344 329.848 8.21484 331.387 8.21484C333.176 8.21484 334.578 8.71875 335.594 9.72656C336.578 10.6953 337.07 11.9805 337.07 13.582C337.07 14.0742 337.012 14.5273 336.895 14.9414ZM331.492 10.0898C330.5 10.0898 329.668 10.4102 328.996 11.0508C328.355 11.6602 327.992 12.418 327.906 13.3242H334.855C334.855 12.4258 334.574 11.6758 334.012 11.0742C333.395 10.418 332.555 10.0898 331.492 10.0898ZM346.246 10.5938C345.762 10.2578 345.273 10.0898 344.781 10.0898C343.992 10.0898 343.301 10.4531 342.707 11.1797C342.121 11.9062 341.828 12.7812 341.828 13.8047V21H339.602V8.44922H341.828V10.4531C342.641 8.96094 343.848 8.21484 345.449 8.21484C345.848 8.21484 346.422 8.28516 347.172 8.42578L346.246 10.5938ZM356.793 10.207H355.34V8.44922H356.793V5.82422L359.02 4.96875V8.44922H362.465V10.207H359.02V16.4414C359.02 17.4961 359.195 18.2461 359.547 18.6914C359.906 19.1367 360.48 19.3594 361.27 19.3594C361.84 19.3594 362.43 19.2148 363.039 18.9258L363.367 20.8828C362.445 21.1172 361.434 21.2344 360.332 21.2344C359.34 21.2344 358.5 20.8672 357.812 20.1328C357.133 19.3906 356.793 18.457 356.793 17.332V10.207ZM373.246 21V13.1133C373.246 12.1758 373.016 11.4375 372.555 10.8984C372.094 10.3594 371.445 10.0898 370.609 10.0898C370.07 10.0898 369.527 10.25 368.98 10.5703C368.441 10.8828 368.027 11.25 367.738 11.6719V21H365.512V3.30469H367.738V9.83203C368.035 9.37109 368.512 8.98828 369.168 8.68359C369.832 8.37109 370.516 8.21484 371.219 8.21484C372.547 8.21484 373.586 8.65234 374.336 9.52734C375.094 10.4023 375.473 11.5977 375.473 13.1133V21H373.246ZM389.207 14.9414H380.16C380.16 16.4102 380.562 17.5391 381.367 18.3281C382.078 19.0156 382.992 19.3594 384.109 19.3594C385.383 19.3594 386.445 18.9883 387.297 18.2461L388.234 19.8516C387.891 20.1953 387.363 20.4922 386.652 20.7422C385.762 21.0703 384.77 21.2344 383.676 21.2344C382.098 21.2344 380.758 20.6992 379.656 19.6289C378.43 18.4492 377.816 16.8633 377.816 14.8711C377.816 12.8008 378.445 11.1406 379.703 9.89062C380.828 8.77344 382.16 8.21484 383.699 8.21484C385.488 8.21484 386.891 8.71875 387.906 9.72656C388.891 10.6953 389.383 11.9805 389.383 13.582C389.383 14.0742 389.324 14.5273 389.207 14.9414ZM383.805 10.0898C382.812 10.0898 381.98 10.4102 381.309 11.0508C380.668 11.6602 380.305 12.418 380.219 13.3242H387.168C387.168 12.4258 386.887 11.6758 386.324 11.0742C385.707 10.418 384.867 10.0898 383.805 10.0898ZM399.156 17.4492V3.30469H401.383V17.0742C401.383 17.7461 401.574 18.2773 401.957 18.668C402.348 19.0508 402.855 19.2422 403.48 19.2422V21.2344C400.598 21.2344 399.156 19.9727 399.156 17.4492ZM413.148 19.5586C412.258 20.6758 410.895 21.2344 409.059 21.2344C408.074 21.2344 407.219 20.8789 406.492 20.168C405.773 19.4492 405.414 18.5586 405.414 17.4961C405.414 16.2227 405.969 15.1484 407.078 14.2734C408.195 13.3906 409.617 12.9492 411.344 12.9492C411.812 12.9492 412.344 13.0508 412.938 13.2539C412.938 11.2227 412.031 10.207 410.219 10.207C408.828 10.207 407.758 10.582 407.008 11.332L406.07 9.46875C406.492 9.125 407.074 8.83203 407.816 8.58984C408.566 8.33984 409.281 8.21484 409.961 8.21484C411.781 8.21484 413.102 8.62891 413.922 9.45703C414.75 10.2852 415.164 11.6016 415.164 13.4062V17.9062C415.164 19.0078 415.492 19.7422 416.148 20.1094V21.2227C415.242 21.2227 414.562 21.0938 414.109 20.8359C413.664 20.5781 413.344 20.1523 413.148 19.5586ZM412.938 14.8359C412.234 14.6797 411.742 14.6016 411.461 14.6016C410.336 14.6016 409.418 14.8906 408.707 15.4688C407.996 16.0469 407.641 16.7305 407.641 17.5195C407.641 18.8242 408.41 19.4766 409.949 19.4766C411.074 19.4766 412.07 18.9414 412.938 17.8711V14.8359ZM421.047 19.0078H428.008V21H417.555V20.4141L424.691 10.4414H417.672V8.44922H427.938V9.08203L421.047 19.0078ZM434.852 23.1328C434.562 23.9297 433.953 24.5938 433.023 25.125C432.102 25.6562 431.07 25.9219 429.93 25.9219V23.9297C430.859 23.9297 431.656 23.7109 432.32 23.2734C432.984 22.8438 433.316 22.3164 433.316 21.6914C433.316 21.0039 433.195 20.3281 432.953 19.6641C432.711 18.9922 432.398 18.1641 432.016 17.1797L428.617 8.44922H430.891L434.582 18.1523L437.898 8.44922H440.172L434.852 23.1328ZM457.094 20.9883V20.0625C456.32 20.8359 455.195 21.2227 453.719 21.2227C452.148 21.2227 450.875 20.6602 449.898 19.5352C448.922 18.4102 448.434 16.9102 448.434 15.0352C448.434 13.1523 448.996 11.5469 450.121 10.2188C451.246 8.88281 452.586 8.21484 454.141 8.21484C455.438 8.21484 456.422 8.51953 457.094 9.12891V3.30469H459.32V20.9883H457.094ZM457.094 11.3555C456.531 10.5117 455.762 10.0898 454.785 10.0898C453.59 10.0898 452.621 10.5352 451.879 11.4258C451.145 12.3164 450.777 13.4492 450.777 14.8242C450.777 17.8477 452.152 19.3594 454.902 19.3594C455.254 19.3594 455.676 19.25 456.168 19.0312C456.66 18.8047 456.969 18.5664 457.094 18.3164V11.3555ZM461.699 14.6953C461.699 12.7578 462.219 11.1953 463.258 10.0078C464.305 8.8125 465.68 8.21484 467.383 8.21484C469.18 8.21484 470.574 8.78906 471.566 9.9375C472.559 11.0781 473.055 12.6641 473.055 14.6953C473.055 16.7188 472.547 18.3164 471.531 19.4883C470.516 20.6523 469.133 21.2344 467.383 21.2344C465.594 21.2344 464.199 20.6445 463.199 19.4648C462.199 18.2852 461.699 16.6953 461.699 14.6953ZM464.043 14.6953C464.043 17.8438 465.156 19.418 467.383 19.418C468.422 19.418 469.234 18.9961 469.82 18.1523C470.414 17.3086 470.711 16.1562 470.711 14.6953C470.711 11.5859 469.602 10.0312 467.383 10.0312C466.367 10.0312 465.555 10.4453 464.945 11.2734C464.344 12.1016 464.043 13.2422 464.043 14.6953ZM474.953 24.4336L476.16 22.6523C477.457 23.5195 478.652 23.9531 479.746 23.9531C480.754 23.9531 481.547 23.7773 482.125 23.4258C482.711 23.082 483.004 22.6523 483.004 22.1367C483.004 21.1211 482.27 20.6133 480.801 20.6133C480.551 20.6133 480.098 20.6758 479.441 20.8008C478.785 20.9258 478.273 20.9883 477.906 20.9883C476.125 20.9883 475.234 20.3164 475.234 18.9727C475.234 18.5586 475.441 18.1836 475.855 17.8477C476.277 17.5117 476.797 17.2695 477.414 17.1211C475.648 16.293 474.766 14.8555 474.766 12.8086C474.766 11.4961 475.223 10.4023 476.137 9.52734C477.051 8.65234 478.18 8.21484 479.523 8.21484C480.758 8.21484 481.723 8.46875 482.418 8.97656L483.531 7.64062L484.984 9.01172L483.648 10.0195C484.219 10.7617 484.504 11.7305 484.504 12.9258C484.504 14.1914 484.109 15.2539 483.32 16.1133C482.531 16.9727 481.496 17.4648 480.215 17.5898L478.375 17.7773C478.156 17.8008 477.863 17.8867 477.496 18.0352C477.129 18.1758 476.945 18.3633 476.945 18.5977C476.945 18.918 477.328 19.0781 478.094 19.0781C478.43 19.0781 478.953 19.0195 479.664 18.9023C480.375 18.7773 480.902 18.7148 481.246 18.7148C482.48 18.7148 483.441 19.0117 484.129 19.6055C484.824 20.1914 485.172 21.0078 485.172 22.0547C485.172 23.2109 484.652 24.1445 483.613 24.8555C482.582 25.5664 481.273 25.9219 479.688 25.9219C478.875 25.9219 478.02 25.7773 477.121 25.4883C476.223 25.1992 475.5 24.8477 474.953 24.4336ZM479.676 10.0078C478.902 10.0078 478.27 10.2812 477.777 10.8281C477.293 11.375 477.051 12.0391 477.051 12.8203C477.051 13.6953 477.285 14.4219 477.754 15C478.23 15.5703 478.871 15.8555 479.676 15.8555C480.465 15.8555 481.082 15.5781 481.527 15.0234C481.973 14.4609 482.195 13.7266 482.195 12.8203C482.195 12.0391 481.953 11.375 481.469 10.8281C480.992 10.2812 480.395 10.0078 479.676 10.0078ZM490.023 17.707C490.508 17.707 490.922 17.8789 491.266 18.2227C491.609 18.5664 491.781 18.9805 491.781 19.4648C491.781 19.9492 491.609 20.3672 491.266 20.7188C490.922 21.0625 490.508 21.2344 490.023 21.2344C489.539 21.2344 489.125 21.0625 488.781 20.7188C488.438 20.3672 488.266 19.9492 488.266 19.4648C488.266 18.9805 488.438 18.5664 488.781 18.2227C489.125 17.8789 489.539 17.707 490.023 17.707Z" fill="black"/>
<rect x="0.5" y="24.5" width="697" height="41" fill="#9EA6B5"/>
<rect width="40" height="40" transform="translate(1 25)" fill="white"/>
<path d="M23.6719 51L22.8828 48.5859H18.625L17.7812 51H16.0312L20.6797 39.3984H21.0938L25.4062 51H23.6719ZM20.8125 42.3984L19.0391 47.4375H22.4375L20.8125 42.3984Z" fill="#333333"/>
<rect width="40" height="40" transform="translate(42 25)" fill="white"/>
<path d="M61.4375 51H58.1719V39.5547C59.5625 39.487 60.5651 39.4531 61.1797 39.4531C62.3099 39.4531 63.1849 39.6979 63.8047 40.1875C64.4245 40.6719 64.7344 41.3672 64.7344 42.2734C64.7344 42.8047 64.5365 43.2891 64.1406 43.7266C63.7448 44.1641 63.3073 44.4375 62.8281 44.5469C63.7344 44.7656 64.3932 45.1276 64.8047 45.6328C65.2214 46.138 65.4297 46.8255 65.4297 47.6953C65.4297 48.7005 65.0599 49.5026 64.3203 50.1016C63.5859 50.7005 62.625 51 61.4375 51ZM59.7344 40.8047V44.0938C60.0625 44.125 60.4688 44.1406 60.9531 44.1406C62.4323 44.1406 63.1719 43.5391 63.1719 42.3359C63.1719 41.2786 62.4922 40.75 61.1328 40.75C60.612 40.75 60.1458 40.7682 59.7344 40.8047ZM59.7344 45.3047V49.6719C60.2708 49.724 60.6823 49.75 60.9688 49.75C61.9479 49.75 62.6615 49.5677 63.1094 49.2031C63.5625 48.8333 63.7891 48.2474 63.7891 47.4453C63.7891 46.7005 63.5729 46.151 63.1406 45.7969C62.7135 45.4427 61.9974 45.2656 60.9922 45.2656L59.7344 45.3047Z" fill="#333333"/>
<rect width="40" height="40" transform="translate(83 25)" fill="white"/>
<path d="M106.477 39.9766L105.953 41.3125C105.453 40.9479 104.667 40.7656 103.594 40.7656C102.589 40.7656 101.781 41.1979 101.172 42.0625C100.568 42.9271 100.266 44.0417 100.266 45.4062C100.266 46.7083 100.576 47.7656 101.195 48.5781C101.82 49.3854 102.625 49.7891 103.609 49.7891C104.682 49.7891 105.508 49.4089 106.086 48.6484L106.945 49.8438C106.039 50.7448 104.872 51.1953 103.445 51.1953C101.951 51.1953 100.773 50.6562 99.9141 49.5781C99.0547 48.5 98.625 47.0781 98.625 45.3125C98.625 43.6042 99.0833 42.1849 100 41.0547C100.917 39.9245 102.102 39.3594 103.555 39.3594C104.799 39.3594 105.773 39.5651 106.477 39.9766Z" fill="#333333"/>
<rect width="40" height="40" transform="translate(124 25)" fill="white"/>
<path d="M142.477 51H140.172V39.5547C141.641 39.5026 142.581 39.4766 142.992 39.4766C144.591 39.4766 145.857 39.9635 146.789 40.9375C147.721 41.9062 148.188 43.1979 148.188 44.8125C148.188 48.9375 146.284 51 142.477 51ZM141.734 40.9609V49.5156C142.083 49.5677 142.516 49.5938 143.031 49.5938C144.125 49.5938 144.984 49.1849 145.609 48.3672C146.234 47.5443 146.547 46.4036 146.547 44.9453C146.547 42.237 145.331 40.8828 142.898 40.8828C142.753 40.8828 142.365 40.9089 141.734 40.9609Z" fill="#333333"/>
<rect width="40" height="40" transform="translate(165 25)" fill="white"/>
<path d="M183.234 40.9609V44.1406H187.016V45.4688H183.234V49.5938H188.422V51H181.672V39.5547H188.508V40.9609H183.234Z" fill="#333333"/>
<rect width="40" height="40" transform="translate(206 25)" fill="white"/>
<path d="M224.234 40.9609V44.1406H228.258V45.4688H224.234V51H222.672V39.5547H229.742V40.9609H224.234Z" fill="#333333"/>
<rect width="40" height="40" transform="translate(247 25)" fill="white"/>
<path d="M270.602 40.3516L269.953 41.6406C269.167 41.0573 268.396 40.7656 267.641 40.7656C266.443 40.7656 265.497 41.1875 264.805 42.0312C264.112 42.875 263.766 43.9922 263.766 45.3828C263.766 46.7057 264.104 47.7708 264.781 48.5781C265.464 49.3854 266.391 49.7891 267.562 49.7891C268.396 49.7891 269.07 49.5391 269.586 49.0391V46.3594H268V45.0312H271.148V50.0156C270.732 50.3698 270.151 50.6562 269.406 50.875C268.661 51.0885 267.938 51.1953 267.234 51.1953C265.656 51.1953 264.409 50.6615 263.492 49.5938C262.581 48.5208 262.125 47.0964 262.125 45.3203C262.125 43.5495 262.625 42.1146 263.625 41.0156C264.63 39.9115 265.984 39.3594 267.688 39.3594C268.88 39.3594 269.852 39.6901 270.602 40.3516Z" fill="#333333"/>
<rect width="40" height="40" transform="translate(288 25)" fill="white"/>
<path d="M310.234 51V45.4688H305.234V51H303.672V39.5547H305.234V44.1406H310.234V39.5547H311.797V51H310.234Z" fill="#333333"/>
<rect width="40" height="40" transform="translate(329 25)" fill="white"/>
<path d="M347.945 51V39.5547H349.508V51H347.945Z" fill="#333333"/>
<rect width="40" height="40" transform="translate(370 25)" fill="white"/>
<path d="M386.383 48.7109H387.75C387.875 49.4036 388.289 49.75 388.992 49.75C389.69 49.75 390.18 49.6016 390.461 49.3047C390.747 49.0026 390.891 48.1641 390.891 46.7891V39.5547H392.453V46.7266C392.453 48.2891 392.201 49.4193 391.695 50.1172C391.19 50.8099 390.292 51.1562 389 51.1562C388.255 51.1562 387.643 50.9349 387.164 50.4922C386.69 50.0495 386.43 49.4557 386.383 48.7109Z" fill="#333333"/>
<rect width="40" height="40" transform="translate(411 25)" fill="white"/>
<path d="M433.484 51L430.258 45.7344L428.734 47.8984V51H427.172V39.5547H428.734V45.7812L432.984 39.5547H434.727L431.305 44.5156L435.211 51H433.484Z" fill="#333333"/>
<rect width="40" height="40" transform="translate(452 25)" fill="white"/>
<path d="M468.672 51V39.5547H470.234V49.5938H475.406V51H468.672Z" fill="#333333"/>
<rect width="40" height="40" transform="translate(493 25)" fill="white"/>
<path d="M516.789 51L515.43 43.6484L512.93 51.1562H512.539L509.969 43.6484L508.641 51H507.156L509.297 39.5547H510.008L512.734 47.9062L515.25 39.5547H515.953L518.273 51H516.789Z" fill="#333333"/>
<rect width="40" height="40" transform="translate(534 25)" fill="white"/>
<path d="M557.07 51.1562L551.156 42.7891V51H549.672V39.5547H550.297L556.055 47.4688V39.5547H557.539V51.1562H557.07Z" fill="#333333"/>
<rect width="40" height="40" transform="translate(575 25)" fill="white"/>
<path d="M590.125 45.1797C590.125 43.5234 590.539 42.138 591.367 41.0234C592.201 39.9089 593.323 39.3516 594.734 39.3516C596.323 39.3516 597.539 39.8646 598.383 40.8906C599.232 41.9167 599.656 43.3464 599.656 45.1797C599.656 47.0599 599.232 48.5339 598.383 49.6016C597.534 50.6641 596.318 51.1953 594.734 51.1953C593.292 51.1953 592.161 50.6328 591.344 49.5078C590.531 48.3828 590.125 46.9401 590.125 45.1797ZM591.766 45.1797C591.766 46.4922 592.023 47.5885 592.539 48.4688C593.06 49.349 593.792 49.7891 594.734 49.7891C595.802 49.7891 596.615 49.3854 597.172 48.5781C597.734 47.7708 598.016 46.638 598.016 45.1797C598.016 42.2318 596.922 40.7578 594.734 40.7578C593.766 40.7578 593.029 41.1536 592.523 41.9453C592.018 42.737 591.766 43.8151 591.766 45.1797Z" fill="#333333"/>
<rect width="40" height="40" transform="translate(616 25)" fill="white"/>
<path d="M634.234 46.5938V51H632.672V39.5547C633.854 39.5026 634.568 39.4766 634.812 39.4766C638.135 39.4766 639.797 40.5885 639.797 42.8125C639.797 45.3854 638.328 46.6719 635.391 46.6719C635.214 46.6719 634.828 46.6458 634.234 46.5938ZM634.234 40.9609V45.1875C634.896 45.2396 635.245 45.2656 635.281 45.2656C637.219 45.2656 638.188 44.5026 638.188 42.9766C638.188 41.5807 637.154 40.8828 635.086 40.8828C634.878 40.8828 634.594 40.9089 634.234 40.9609Z" fill="#333333"/>
<rect width="40" height="40" transform="translate(657 25)" fill="white"/>
<path d="M683.375 51.8438L683.141 53.3672C680.411 53.3672 678.622 52.6094 677.773 51.0938C677.612 51.1615 677.266 51.1953 676.734 51.1953C675.292 51.1953 674.161 50.6328 673.344 49.5078C672.531 48.3828 672.125 46.9401 672.125 45.1797C672.125 43.5286 672.539 42.1458 673.367 41.0312C674.195 39.9115 675.318 39.3516 676.734 39.3516C678.323 39.3516 679.539 39.8646 680.383 40.8906C681.232 41.9167 681.656 43.3464 681.656 45.1797C681.656 47.8099 680.87 49.6146 679.297 50.5938C679.865 51.4271 680.818 51.8438 682.156 51.8438H683.375ZM676.734 40.7578C675.766 40.7578 675.029 41.1536 674.523 41.9453C674.018 42.737 673.766 43.8151 673.766 45.1797C673.766 46.4922 674.023 47.5885 674.539 48.4688C675.06 49.349 675.792 49.7891 676.734 49.7891C677.807 49.7891 678.622 49.3828 679.18 48.5703C679.737 47.7526 680.016 46.6224 680.016 45.1797C680.016 42.2318 678.922 40.7578 676.734 40.7578Z" fill="#333333"/>
<rect x="0.5" y="24.5" width="697" height="41" stroke="#9EA6B5"/>
<rect x="0.5" y="65.5" width="369" height="41" fill="#9EA6B5"/>
<rect width="40" height="40" transform="translate(1 66)" fill="white"/>
<path d="M23.5234 92L20.4688 87.0859C20.1198 87.0859 19.5677 87.0599 18.8125 87.0078V92H17.25V80.5547C17.3073 80.5547 17.7109 80.5365 18.4609 80.5C19.2161 80.4583 19.7656 80.4375 20.1094 80.4375C22.8594 80.4375 24.2344 81.5312 24.2344 83.7188C24.2344 84.4375 24.013 85.0859 23.5703 85.6641C23.1276 86.237 22.6016 86.5938 21.9922 86.7344L25.3125 92H23.5234ZM18.8125 81.9609V85.6797C19.1875 85.7318 19.5521 85.7578 19.9062 85.7578C20.8438 85.7578 21.526 85.6068 21.9531 85.3047C22.3802 85.0026 22.5938 84.4635 22.5938 83.6875C22.5938 83.0469 22.3646 82.5859 21.9062 82.3047C21.4479 82.0234 20.724 81.8828 19.7344 81.8828C19.5781 81.8828 19.2708 81.9089 18.8125 81.9609Z" fill="#333333"/>
<rect width="40" height="40" transform="translate(42 66)" fill="white"/>
<path d="M58.6562 91.4766L59.2266 90.0391C59.5182 90.2526 59.8802 90.4323 60.3125 90.5781C60.75 90.7188 61.1406 90.7891 61.4844 90.7891C62.0938 90.7891 62.5833 90.6224 62.9531 90.2891C63.3229 89.9557 63.5078 89.5312 63.5078 89.0156C63.5078 88.6302 63.4036 88.2734 63.1953 87.9453C62.9922 87.612 62.4766 87.25 61.6484 86.8594L60.7266 86.4297C59.9453 86.0651 59.3984 85.6328 59.0859 85.1328C58.7786 84.6328 58.625 84.0312 58.625 83.3281C58.625 82.474 58.9271 81.7656 59.5312 81.2031C60.1354 80.6406 60.9115 80.3594 61.8594 80.3594C63.125 80.3594 64.0052 80.5651 64.5 80.9766L64.0391 82.3359C63.8307 82.1849 63.513 82.0391 63.0859 81.8984C62.6589 81.7578 62.263 81.6875 61.8984 81.6875C61.3672 81.6875 60.9479 81.8385 60.6406 82.1406C60.3385 82.4427 60.1875 82.8307 60.1875 83.3047C60.1875 83.5964 60.2422 83.862 60.3516 84.1016C60.4609 84.3411 60.612 84.5417 60.8047 84.7031C61.0026 84.8646 61.4036 85.0911 62.0078 85.3828L62.9453 85.8281C63.7266 86.1979 64.2734 86.6406 64.5859 87.1562C64.9036 87.6667 65.0625 88.3177 65.0625 89.1094C65.0625 89.9688 64.7161 90.6979 64.0234 91.2969C63.3359 91.8958 62.4141 92.1953 61.2578 92.1953C60.2422 92.1953 59.375 91.9557 58.6562 91.4766Z" fill="#333333"/>
<rect width="40" height="40" transform="translate(83 66)" fill="white"/>
<path d="M103.344 81.9609V92H101.781V81.9609H98.1406V80.5547H107.148V81.9609H103.344Z" fill="#333333"/>
<rect width="40" height="40" transform="translate(124 66)" fill="white"/>
<path d="M139.672 80.5547H141.234V88.3906C141.234 89.0885 141.456 89.6641 141.898 90.1172C142.341 90.5651 142.927 90.7891 143.656 90.7891C144.427 90.7891 145.034 90.5703 145.477 90.1328C145.919 89.6953 146.141 89.1016 146.141 88.3516V80.5547H147.703V88.5156C147.703 89.6719 147.341 90.5755 146.617 91.2266C145.898 91.8724 144.917 92.1953 143.672 92.1953C142.391 92.1953 141.404 91.8776 140.711 91.2422C140.018 90.6068 139.672 89.6953 139.672 88.5078V80.5547Z" fill="#333333"/>
<rect width="40" height="40" transform="translate(165 66)" fill="white"/>
<path d="M185.156 92.1562H184.367L180.102 80.5547H181.836L184.781 88.9844L187.617 80.5547H189.297L185.156 92.1562Z" fill="#333333"/>
<rect width="40" height="40" transform="translate(206 66)" fill="white"/>
<path d="M228.969 92.1562H228.477L225.75 84.2656L223.203 92.1562H222.711L219.102 80.5547H220.727L223.023 88.5469L225.539 80.5547H226.086L228.57 88.5312L230.906 80.5547H232.531L228.969 92.1562Z" fill="#333333"/>
<rect width="40" height="40" transform="translate(247 66)" fill="white"/>
<path d="M269.648 92L266.805 87.4062L264.18 92H262.602L265.977 86.0625L262.875 80.5469L264.414 80.5547L266.859 84.8828L269.555 80.5547H271.125L267.57 86.0938L271.305 92H269.648Z" fill="#333333"/>
<rect width="40" height="40" transform="translate(288 66)" fill="white"/>
<path d="M308.352 86.875V92H306.789V86.875L303.102 80.5547H304.711L307.562 85.5547L310.414 80.5547H312.023L308.352 86.875Z" fill="#333333"/>
<rect width="40" height="40" transform="translate(329 66)" fill="white"/>
<path d="M345.281 92V91.6094L350.203 81.9609H345.359V80.5547H352.352V80.9453L347.414 90.5938H352.523V92H345.281Z" fill="#333333"/>
<rect x="0.5" y="65.5" width="369" height="41" stroke="#9EA6B5"/>
<rect x="0.5" y="106.5" width="697" height="41" fill="#9EA6B5"/>
<rect width="40" height="40" transform="translate(1 107)" fill="white"/>
<path d="M22.2812 132.039C21.6875 132.784 20.7786 133.156 19.5547 133.156C18.8984 133.156 18.3281 132.919 17.8438 132.445C17.3646 131.966 17.125 131.372 17.125 130.664C17.125 129.815 17.4948 129.099 18.2344 128.516C18.9792 127.927 19.9271 127.633 21.0781 127.633C21.3906 127.633 21.7448 127.701 22.1406 127.836C22.1406 126.482 21.5365 125.805 20.3281 125.805C19.401 125.805 18.6875 126.055 18.1875 126.555L17.5625 125.312C17.8438 125.083 18.2318 124.888 18.7266 124.727C19.2266 124.56 19.7031 124.477 20.1562 124.477C21.3698 124.477 22.25 124.753 22.7969 125.305C23.349 125.857 23.625 126.734 23.625 127.938V130.938C23.625 131.672 23.8438 132.161 24.2812 132.406V133.148C23.6771 133.148 23.224 133.062 22.9219 132.891C22.625 132.719 22.4115 132.435 22.2812 132.039ZM22.1406 128.891C21.6719 128.786 21.3438 128.734 21.1562 128.734C20.4062 128.734 19.7943 128.927 19.3203 129.312C18.8464 129.698 18.6094 130.154 18.6094 130.68C18.6094 131.549 19.1224 131.984 20.1484 131.984C20.8984 131.984 21.5625 131.628 22.1406 130.914V128.891Z" fill="#333333"/>
<rect width="40" height="40" transform="translate(42 107)" fill="white"/>
<path d="M59.8203 132.398L59.2969 133.156H58.5547V121.203H60.0391V125.25C60.1797 125.057 60.4427 124.88 60.8281 124.719C61.2188 124.557 61.6016 124.477 61.9766 124.477C63.1224 124.477 64.0495 124.872 64.7578 125.664C65.4714 126.456 65.8281 127.456 65.8281 128.664C65.8281 130.06 65.4714 131.159 64.7578 131.961C64.0443 132.758 63.0781 133.156 61.8594 133.156C61.4635 133.156 61.0729 133.083 60.6875 132.938C60.3073 132.786 60.0182 132.607 59.8203 132.398ZM60.0391 126.383V131.211C60.0391 131.294 60.224 131.432 60.5938 131.625C60.9635 131.812 61.2448 131.906 61.4375 131.906C62.4479 131.906 63.1719 131.664 63.6094 131.18C64.0469 130.695 64.2656 129.883 64.2656 128.742C64.2656 127.794 64.0104 127.055 63.5 126.523C62.9896 125.992 62.3021 125.727 61.4375 125.727C61.2552 125.727 61 125.805 60.6719 125.961C60.349 126.117 60.138 126.258 60.0391 126.383Z" fill="#333333"/>
<rect width="40" height="40" transform="translate(83 107)" fill="white"/>
<path d="M106.367 125.312L105.633 126.359C105.482 126.208 105.214 126.065 104.828 125.93C104.448 125.794 104.073 125.727 103.703 125.727C102.896 125.727 102.255 126.01 101.781 126.578C101.307 127.141 101.07 127.914 101.07 128.898C101.07 129.878 101.312 130.625 101.797 131.141C102.281 131.651 102.953 131.906 103.812 131.906C104.479 131.906 105.151 131.648 105.828 131.133L106.414 132.383C105.617 132.898 104.63 133.156 103.453 133.156C102.312 133.156 101.37 132.773 100.625 132.008C99.8802 131.242 99.5078 130.206 99.5078 128.898C99.5078 127.565 99.8932 126.495 100.664 125.688C101.44 124.88 102.5 124.477 103.844 124.477C104.276 124.477 104.745 124.568 105.25 124.75C105.755 124.932 106.128 125.12 106.367 125.312Z" fill="#333333"/>
<rect width="40" height="40" transform="translate(124 107)" fill="white"/>
<path d="M145.859 132.992V132.375C145.344 132.891 144.594 133.148 143.609 133.148C142.562 133.148 141.714 132.773 141.062 132.023C140.411 131.273 140.086 130.273 140.086 129.023C140.086 127.768 140.461 126.698 141.211 125.812C141.961 124.922 142.854 124.477 143.891 124.477C144.755 124.477 145.411 124.68 145.859 125.086V121.203H147.344V132.992H145.859ZM145.859 126.57C145.484 126.008 144.971 125.727 144.32 125.727C143.523 125.727 142.878 126.023 142.383 126.617C141.893 127.211 141.648 127.966 141.648 128.883C141.648 130.898 142.565 131.906 144.398 131.906C144.633 131.906 144.914 131.833 145.242 131.688C145.57 131.536 145.776 131.378 145.859 131.211V126.57Z" fill="#333333"/>
<rect width="40" height="40" transform="translate(165 107)" fill="white"/>
<path d="M188.602 128.961H182.57C182.57 129.94 182.839 130.693 183.375 131.219C183.849 131.677 184.458 131.906 185.203 131.906C186.052 131.906 186.76 131.659 187.328 131.164L187.953 132.234C187.724 132.464 187.372 132.661 186.898 132.828C186.305 133.047 185.643 133.156 184.914 133.156C183.862 133.156 182.969 132.799 182.234 132.086C181.417 131.299 181.008 130.242 181.008 128.914C181.008 127.534 181.427 126.427 182.266 125.594C183.016 124.849 183.904 124.477 184.93 124.477C186.122 124.477 187.057 124.812 187.734 125.484C188.391 126.13 188.719 126.987 188.719 128.055C188.719 128.383 188.68 128.685 188.602 128.961ZM185 125.727C184.339 125.727 183.784 125.94 183.336 126.367C182.909 126.773 182.667 127.279 182.609 127.883H187.242C187.242 127.284 187.055 126.784 186.68 126.383C186.268 125.945 185.708 125.727 185 125.727Z" fill="#333333"/>
<rect width="40" height="40" transform="translate(206 107)" fill="white"/>
<path d="M228.578 122.531C228.276 122.427 227.995 122.375 227.734 122.375C227.281 122.375 226.906 122.547 226.609 122.891C226.318 123.234 226.172 123.669 226.172 124.195C226.172 124.336 226.185 124.482 226.211 124.633H227.914V125.883H226.211V133H224.727V125.883H223.508V124.633H224.727C224.727 123.565 224.99 122.727 225.516 122.117C226.042 121.508 226.737 121.203 227.602 121.203C228.034 121.203 228.497 121.281 228.992 121.438L228.578 122.531Z" fill="#333333"/>
<rect width="40" height="40" transform="translate(247 107)" fill="white"/>
<path d="M263.25 135.289L264.055 134.102C264.919 134.68 265.716 134.969 266.445 134.969C267.117 134.969 267.646 134.852 268.031 134.617C268.422 134.388 268.617 134.102 268.617 133.758C268.617 133.081 268.128 132.742 267.148 132.742C266.982 132.742 266.68 132.784 266.242 132.867C265.805 132.951 265.464 132.992 265.219 132.992C264.031 132.992 263.438 132.544 263.438 131.648C263.438 131.372 263.576 131.122 263.852 130.898C264.133 130.674 264.479 130.513 264.891 130.414C263.714 129.862 263.125 128.904 263.125 127.539C263.125 126.664 263.43 125.935 264.039 125.352C264.648 124.768 265.401 124.477 266.297 124.477C267.12 124.477 267.763 124.646 268.227 124.984L268.969 124.094L269.938 125.008L269.047 125.68C269.427 126.174 269.617 126.82 269.617 127.617C269.617 128.461 269.354 129.169 268.828 129.742C268.302 130.315 267.612 130.643 266.758 130.727L265.531 130.852C265.385 130.867 265.19 130.924 264.945 131.023C264.701 131.117 264.578 131.242 264.578 131.398C264.578 131.612 264.833 131.719 265.344 131.719C265.568 131.719 265.917 131.68 266.391 131.602C266.865 131.518 267.216 131.477 267.445 131.477C268.268 131.477 268.909 131.674 269.367 132.07C269.831 132.461 270.062 133.005 270.062 133.703C270.062 134.474 269.716 135.096 269.023 135.57C268.336 136.044 267.464 136.281 266.406 136.281C265.865 136.281 265.294 136.185 264.695 135.992C264.096 135.799 263.615 135.565 263.25 135.289ZM266.398 125.672C265.883 125.672 265.461 125.854 265.133 126.219C264.81 126.583 264.648 127.026 264.648 127.547C264.648 128.13 264.805 128.615 265.117 129C265.435 129.38 265.862 129.57 266.398 129.57C266.924 129.57 267.336 129.385 267.633 129.016C267.93 128.641 268.078 128.151 268.078 127.547C268.078 127.026 267.917 126.583 267.594 126.219C267.276 125.854 266.878 125.672 266.398 125.672Z" fill="#333333"/>
<rect width="40" height="40" transform="translate(288 107)" fill="white"/>
<path d="M309.711 133V127.742C309.711 127.117 309.557 126.625 309.25 126.266C308.943 125.906 308.51 125.727 307.953 125.727C307.594 125.727 307.232 125.833 306.867 126.047C306.508 126.255 306.232 126.5 306.039 126.781V133H304.555V121.203H306.039V125.555C306.237 125.247 306.555 124.992 306.992 124.789C307.435 124.581 307.891 124.477 308.359 124.477C309.245 124.477 309.938 124.768 310.438 125.352C310.943 125.935 311.195 126.732 311.195 127.742V133H309.711Z" fill="#333333"/>
<rect width="40" height="40" transform="translate(329 107)" fill="white"/>
<path d="M349.086 121.469C349.341 121.469 349.557 121.56 349.734 121.742C349.917 121.919 350.008 122.133 350.008 122.383C350.008 122.638 349.917 122.857 349.734 123.039C349.557 123.216 349.341 123.305 349.086 123.305C348.836 123.305 348.62 123.216 348.438 123.039C348.26 122.857 348.172 122.638 348.172 122.383C348.172 122.128 348.26 121.911 348.438 121.734C348.615 121.557 348.831 121.469 349.086 121.469ZM348.273 133V125.883H347.125V124.633H349.758V133H348.273Z" fill="#333333"/>
<rect width="40" height="40" transform="translate(370 107)" fill="white"/>
<path d="M390.344 121.469C390.599 121.469 390.815 121.56 390.992 121.742C391.174 121.919 391.266 122.133 391.266 122.383C391.266 122.638 391.174 122.857 390.992 123.039C390.815 123.216 390.599 123.305 390.344 123.305C390.089 123.305 389.872 123.216 389.695 123.039C389.518 122.857 389.43 122.638 389.43 122.383C389.43 122.128 389.518 121.911 389.695 121.734C389.872 121.557 390.089 121.469 390.344 121.469ZM387.141 136.281V134.953C388.161 134.953 388.859 134.797 389.234 134.484C389.615 134.177 389.805 133.669 389.805 132.961V125.883H388.141V124.633H391.289V132.93C391.289 134.081 390.951 134.927 390.273 135.469C389.596 136.01 388.552 136.281 387.141 136.281Z" fill="#333333"/>
<rect width="40" height="40" transform="translate(411 107)" fill="white"/>
<path d="M432.961 133L430.336 128.812L429.039 130.148V133H427.555V121.203H429.039V128.523L432.242 124.633H433.977L431.297 127.812L434.57 133H432.961Z" fill="#333333"/>
<rect width="40" height="40" transform="translate(452 107)" fill="white"/>
<path d="M470.672 130.633V121.203H472.156V130.383C472.156 130.831 472.284 131.185 472.539 131.445C472.799 131.701 473.138 131.828 473.555 131.828V133.156C471.633 133.156 470.672 132.315 470.672 130.633Z" fill="#333333"/>
<rect width="40" height="40" transform="translate(493 107)" fill="white"/>
<path d="M516.742 133V127.703C516.742 126.385 516.172 125.727 515.031 125.727C514.672 125.727 514.336 125.839 514.023 126.062C513.711 126.281 513.497 126.531 513.383 126.812V133H511.898V127.055C511.898 126.643 511.742 126.32 511.43 126.086C511.122 125.846 510.714 125.727 510.203 125.727C509.906 125.727 509.589 125.841 509.25 126.07C508.917 126.299 508.68 126.552 508.539 126.828V133H507.055V124.633H508.023L508.516 125.602C509.089 124.852 509.805 124.477 510.664 124.477C511.862 124.477 512.701 124.849 513.18 125.594C513.346 125.276 513.656 125.01 514.109 124.797C514.562 124.583 515.029 124.477 515.508 124.477C516.372 124.477 517.042 124.734 517.516 125.25C517.99 125.76 518.227 126.479 518.227 127.406V133H516.742Z" fill="#333333"/>
<rect width="40" height="40" transform="translate(534 107)" fill="white"/>
<path d="M555.703 133V128.133C555.703 127.242 555.568 126.62 555.297 126.266C555.031 125.906 554.583 125.727 553.953 125.727C553.615 125.727 553.26 125.828 552.891 126.031C552.521 126.234 552.237 126.484 552.039 126.781V133H550.555V124.633H551.57L552.039 125.711C552.529 124.888 553.328 124.477 554.438 124.477C556.271 124.477 557.188 125.591 557.188 127.82V133H555.703Z" fill="#333333"/>
<rect width="40" height="40" transform="translate(575 107)" fill="white"/>
<path d="M591.008 128.797C591.008 127.505 591.354 126.464 592.047 125.672C592.745 124.875 593.661 124.477 594.797 124.477C595.995 124.477 596.924 124.859 597.586 125.625C598.247 126.385 598.578 127.443 598.578 128.797C598.578 130.146 598.24 131.211 597.562 131.992C596.885 132.768 595.964 133.156 594.797 133.156C593.604 133.156 592.674 132.763 592.008 131.977C591.341 131.19 591.008 130.13 591.008 128.797ZM592.57 128.797C592.57 130.896 593.312 131.945 594.797 131.945C595.49 131.945 596.031 131.664 596.422 131.102C596.818 130.539 597.016 129.771 597.016 128.797C597.016 126.724 596.276 125.688 594.797 125.688C594.12 125.688 593.578 125.964 593.172 126.516C592.771 127.068 592.57 127.828 592.57 128.797Z" fill="#333333"/>
<rect width="40" height="40" transform="translate(616 107)" fill="white"/>
<path d="M634.039 132.539V136.281H632.555V124.633H634.039V125.32C634.602 124.758 635.281 124.477 636.078 124.477C637.266 124.477 638.19 124.846 638.852 125.586C639.513 126.326 639.844 127.409 639.844 128.836C639.844 130.107 639.51 131.146 638.844 131.953C638.177 132.755 637.214 133.156 635.953 133.156C635.599 133.156 635.219 133.094 634.812 132.969C634.411 132.844 634.154 132.701 634.039 132.539ZM634.039 126.438V131.312C634.133 131.453 634.331 131.589 634.633 131.719C634.935 131.844 635.229 131.906 635.516 131.906C637.359 131.906 638.281 130.865 638.281 128.781C638.281 127.724 638.062 126.951 637.625 126.461C637.188 125.971 636.487 125.727 635.523 125.727C635.315 125.727 635.06 125.799 634.758 125.945C634.456 126.091 634.216 126.255 634.039 126.438Z" fill="#333333"/>
<rect width="40" height="40" transform="translate(657 107)" fill="white"/>
<path d="M678.914 136.281V132.508C678.482 132.94 677.758 133.156 676.742 133.156C675.602 133.156 674.706 132.776 674.055 132.016C673.409 131.25 673.086 130.19 673.086 128.836C673.086 127.497 673.456 126.438 674.195 125.656C674.94 124.87 675.896 124.477 677.062 124.477C677.792 124.477 678.471 124.74 679.102 125.266L679.5 124.633H680.398V136.281H678.914ZM678.914 126.367C678.487 125.94 677.953 125.727 677.312 125.727C676.474 125.727 675.82 126.01 675.352 126.578C674.883 127.146 674.648 127.898 674.648 128.836C674.648 129.805 674.883 130.56 675.352 131.102C675.82 131.638 676.453 131.906 677.25 131.906C677.964 131.906 678.518 131.724 678.914 131.359V126.367Z" fill="#333333"/>
<rect x="0.5" y="106.5" width="697" height="41" stroke="#9EA6B5"/>
<rect x="0.5" y="147.5" width="369" height="41" fill="#9EA6B5"/>
<rect width="40" height="40" transform="translate(1 148)" fill="white"/>
<path d="M23.1016 167.062C22.7786 166.839 22.4531 166.727 22.125 166.727C21.599 166.727 21.138 166.969 20.7422 167.453C20.3516 167.938 20.1562 168.521 20.1562 169.203V174H18.6719V165.633H20.1562V166.969C20.6979 165.974 21.5026 165.477 22.5703 165.477C22.8359 165.477 23.2188 165.523 23.7188 165.617L23.1016 167.062Z" fill="#333333"/>
<rect width="40" height="40" transform="translate(42 148)" fill="white"/>
<path d="M59.0078 173.5L59.5312 172.094C60.3594 172.635 61.026 172.906 61.5312 172.906C62.4479 172.906 62.9062 172.521 62.9062 171.75C62.9062 171.198 62.4635 170.724 61.5781 170.328C60.8958 170.016 60.4349 169.779 60.1953 169.617C59.9609 169.456 59.7552 169.273 59.5781 169.07C59.4062 168.862 59.276 168.643 59.1875 168.414C59.1042 168.18 59.0625 167.93 59.0625 167.664C59.0625 166.977 59.3125 166.44 59.8125 166.055C60.3125 165.669 60.9661 165.477 61.7734 165.477C62.3828 165.477 63.151 165.669 64.0781 166.055L63.6562 167.43C63.0677 166.961 62.4766 166.727 61.8828 166.727C61.5286 166.727 61.2292 166.81 60.9844 166.977C60.7448 167.143 60.625 167.354 60.625 167.609C60.625 168.146 60.9297 168.552 61.5391 168.828L62.6016 169.312C63.2526 169.609 63.7266 169.948 64.0234 170.328C64.3203 170.708 64.4688 171.185 64.4688 171.758C64.4688 172.508 64.2057 173.096 63.6797 173.523C63.1536 173.945 62.4245 174.156 61.4922 174.156C60.612 174.156 59.7839 173.938 59.0078 173.5Z" fill="#333333"/>
<rect width="40" height="40" transform="translate(83 148)" fill="white"/>
<path d="M101.086 166.805H100.117V165.633H101.086V163.883L102.57 163.312V165.633H104.867V166.805H102.57V170.961C102.57 171.664 102.688 172.164 102.922 172.461C103.161 172.758 103.544 172.906 104.07 172.906C104.451 172.906 104.844 172.81 105.25 172.617L105.469 173.922C104.854 174.078 104.18 174.156 103.445 174.156C102.784 174.156 102.224 173.911 101.766 173.422C101.312 172.927 101.086 172.305 101.086 171.555V166.805Z" fill="#333333"/>
<rect width="40" height="40" transform="translate(124 148)" fill="white"/>
<path d="M141.961 165.633V170.969C141.961 172.26 142.521 172.906 143.641 172.906C144.13 172.906 144.578 172.766 144.984 172.484C145.391 172.203 145.659 171.878 145.789 171.508V165.633H147.273V174H145.789V172.844C145.622 173.172 145.286 173.474 144.781 173.75C144.281 174.021 143.792 174.156 143.312 174.156C142.396 174.156 141.693 173.893 141.203 173.367C140.719 172.841 140.477 172.094 140.477 171.125V165.633H141.961Z" fill="#333333"/>
<rect width="40" height="40" transform="translate(165 148)" fill="white"/>
<path d="M185.07 174.156H184.68L181.094 165.609H182.719L184.93 171.469L187.188 165.609H188.742L185.07 174.156Z" fill="#333333"/>
<rect width="40" height="40" transform="translate(206 148)" fill="white"/>
<path d="M228.789 174.156H228.398L225.945 168.461L223.5 174.156H223.109L220.117 165.609H221.703L223.492 171.102L225.719 165.609H226.109L228.406 171.102L230.328 165.609H231.789L228.789 174.156Z" fill="#333333"/>
<rect width="40" height="40" transform="translate(247 148)" fill="white"/>
<path d="M268.648 174L266.367 170.953L264.328 174H262.594L265.633 169.719L262.844 165.633H264.516L266.391 168.508L268.492 165.633H270.133L267.094 169.719L270.422 174H268.648Z" fill="#333333"/>
<rect width="40" height="40" transform="translate(288 148)" fill="white"/>
<path d="M308.25 175.422C308.057 175.953 307.651 176.396 307.031 176.75C306.417 177.104 305.729 177.281 304.969 177.281V175.953C305.589 175.953 306.12 175.807 306.562 175.516C307.005 175.229 307.227 174.878 307.227 174.461C307.227 174.003 307.146 173.552 306.984 173.109C306.823 172.661 306.615 172.109 306.359 171.453L304.094 165.633H305.609L308.07 172.102L310.281 165.633H311.797L308.25 175.422Z" fill="#333333"/>
<rect width="40" height="40" transform="translate(329 148)" fill="white"/>
<path d="M347.641 172.672H352.281V174H345.312V173.609L350.07 166.961H345.391V165.633H352.234V166.055L347.641 172.672Z" fill="#333333"/>
<rect x="0.5" y="147.5" width="369" height="41" stroke="#9EA6B5"/>
<rect x="0.5" y="188.5" width="410" height="41" fill="#9EA6B5"/>
<rect width="40" height="40" transform="translate(1 189)" fill="white"/>
<path d="M20.3906 215V206.227L18.0625 207.68V206.219C18.651 205.922 19.276 205.513 19.9375 204.992C20.6042 204.471 21.1198 203.977 21.4844 203.508H21.9531V215H20.3906Z" fill="#333333"/>
<rect width="40" height="40" transform="translate(42 189)" fill="white"/>
<path d="M58.0391 215V214.688L61.625 209.195C62.375 208.044 62.75 207.068 62.75 206.266C62.75 205.208 62.1536 204.68 60.9609 204.68C60.5391 204.68 60.1432 204.792 59.7734 205.016C59.4036 205.234 59.1354 205.513 58.9688 205.852L57.9609 205.023C58.138 204.513 58.4844 204.107 59 203.805C59.5208 203.503 60.1484 203.352 60.8828 203.352C61.9818 203.352 62.8411 203.607 63.4609 204.117C64.0807 204.622 64.3906 205.339 64.3906 206.266C64.3906 207.125 63.9792 208.208 63.1562 209.516L60.5859 213.594H65.0703V215H58.0391Z" fill="#333333"/>
<rect width="40" height="40" transform="translate(83 189)" fill="white"/>
<path d="M99.3516 214.188L100.102 212.984C100.612 213.547 101.258 213.828 102.039 213.828C103.487 213.828 104.211 213.12 104.211 211.703C104.211 211.057 104 210.534 103.578 210.133C103.156 209.727 102.596 209.523 101.898 209.523H101.773V208.258H101.844C103.167 208.258 103.828 207.674 103.828 206.508C103.828 205.289 103.206 204.68 101.961 204.68C101.284 204.68 100.745 204.906 100.344 205.359L99.6484 204.297C100.133 203.667 100.943 203.352 102.078 203.352C103.078 203.352 103.893 203.62 104.523 204.156C105.154 204.688 105.469 205.37 105.469 206.203C105.469 206.839 105.292 207.401 104.938 207.891C104.589 208.38 104.177 208.708 103.703 208.875C104.359 209.089 104.88 209.453 105.266 209.969C105.656 210.479 105.852 211.099 105.852 211.828C105.852 212.891 105.516 213.711 104.844 214.289C104.172 214.867 103.229 215.156 102.016 215.156C101.505 215.156 101.005 215.062 100.516 214.875C100.026 214.682 99.638 214.453 99.3516 214.188Z" fill="#333333"/>
<rect width="40" height="40" transform="translate(124 189)" fill="white"/>
<path d="M146.391 211.883V215H144.906V211.883H139.695V210.992L145.844 203.508H146.391V210.68H147.547V211.883H146.391ZM144.906 206.625L141.547 210.68H144.906V206.625Z" fill="#333333"/>
<rect width="40" height="40" transform="translate(165 189)" fill="white"/>
<path d="M182.312 209.414L181.781 209.047V203.508H187.477V204.836H183.266V207.617C183.651 207.331 184.141 207.188 184.734 207.188C185.797 207.188 186.607 207.505 187.164 208.141C187.727 208.776 188.008 209.68 188.008 210.852C188.008 213.721 186.729 215.156 184.172 215.156C183.104 215.156 182.219 214.859 181.516 214.266L182.117 212.961C182.826 213.539 183.508 213.828 184.164 213.828C185.633 213.828 186.367 212.911 186.367 211.078C186.367 209.37 185.643 208.516 184.195 208.516C183.497 208.516 182.87 208.815 182.312 209.414Z" fill="#333333"/>
<rect width="40" height="40" transform="translate(206 189)" fill="white"/>
<path d="M226.75 203.352L227.508 204.188C227.049 204.37 226.385 204.987 225.516 206.039C224.651 207.086 224.172 207.893 224.078 208.461C224.51 208.044 225.112 207.836 225.883 207.836C226.893 207.836 227.703 208.159 228.312 208.805C228.922 209.451 229.227 210.339 229.227 211.469C229.227 212.589 228.911 213.49 228.281 214.172C227.656 214.854 226.87 215.195 225.922 215.195C223.411 215.195 222.156 213.531 222.156 210.203C222.156 208.818 222.646 207.401 223.625 205.953C224.609 204.5 225.651 203.633 226.75 203.352ZM223.797 211.422C223.797 213.052 224.466 213.867 225.805 213.867C226.367 213.867 226.81 213.656 227.133 213.234C227.461 212.807 227.625 212.245 227.625 211.547C227.625 210.823 227.453 210.245 227.109 209.812C226.766 209.38 226.323 209.164 225.781 209.164C224.458 209.164 223.797 209.917 223.797 211.422Z" fill="#333333"/>
<rect width="40" height="40" transform="translate(247 189)" fill="white"/>
<path d="M265.844 215H264.109C264.495 213.776 265.143 212.159 266.055 210.148C266.966 208.133 267.799 206.414 268.555 204.992H263.156V203.508H270.578V204.117L269.57 206.102C269.232 206.773 268.878 207.51 268.508 208.312C268.138 209.115 267.776 209.932 267.422 210.766C267.068 211.599 266.758 212.372 266.492 213.086C266.227 213.799 266.01 214.438 265.844 215Z" fill="#333333"/>
<rect width="40" height="40" transform="translate(288 189)" fill="white"/>
<path d="M306.258 208.633C305.773 208.372 305.378 208.01 305.07 207.547C304.763 207.083 304.609 206.604 304.609 206.109C304.609 205.26 304.896 204.589 305.469 204.094C306.047 203.599 306.792 203.352 307.703 203.352C308.688 203.352 309.451 203.599 309.992 204.094C310.534 204.589 310.805 205.263 310.805 206.117C310.805 206.617 310.641 207.128 310.312 207.648C309.984 208.164 309.604 208.544 309.172 208.789C310.547 209.56 311.234 210.573 311.234 211.828C311.234 212.885 310.917 213.706 310.281 214.289C309.646 214.867 308.773 215.156 307.664 215.156C305.352 215.156 304.195 214.047 304.195 211.828C304.195 211.188 304.393 210.557 304.789 209.938C305.185 209.318 305.674 208.883 306.258 208.633ZM308.172 208.148C308.88 207.482 309.234 206.792 309.234 206.078C309.234 205.651 309.091 205.312 308.805 205.062C308.523 204.807 308.156 204.68 307.703 204.68C306.682 204.68 306.172 205.151 306.172 206.094C306.172 206.792 306.839 207.477 308.172 208.148ZM307.477 209.312C306.331 209.932 305.758 210.771 305.758 211.828C305.758 212.396 305.935 212.872 306.289 213.258C306.643 213.638 307.102 213.828 307.664 213.828C308.247 213.828 308.727 213.641 309.102 213.266C309.482 212.891 309.672 212.411 309.672 211.828C309.672 211.406 309.542 211.01 309.281 210.641C309.021 210.266 308.419 209.823 307.477 209.312Z" fill="#333333"/>
<rect width="40" height="40" transform="translate(329 189)" fill="white"/>
<path d="M347.555 215.195L346.797 214.359C347.25 214.177 347.911 213.562 348.781 212.516C349.656 211.469 350.138 210.661 350.227 210.094C349.799 210.505 349.198 210.711 348.422 210.711C347.411 210.711 346.602 210.388 345.992 209.742C345.383 209.096 345.078 208.208 345.078 207.078C345.078 205.958 345.391 205.057 346.016 204.375C346.646 203.693 347.435 203.352 348.383 203.352C350.893 203.352 352.148 205.016 352.148 208.344C352.148 209.729 351.656 211.148 350.672 212.602C349.693 214.049 348.654 214.914 347.555 215.195ZM350.508 207.125C350.508 205.495 349.839 204.68 348.5 204.68C347.938 204.68 347.492 204.893 347.164 205.32C346.841 205.742 346.68 206.302 346.68 207C346.68 207.724 346.852 208.302 347.195 208.734C347.539 209.167 347.982 209.383 348.523 209.383C349.846 209.383 350.508 208.63 350.508 207.125Z" fill="#333333"/>
<rect width="40" height="40" transform="translate(370 189)" fill="white"/>
<path d="M386 208.93C386 207.284 386.333 205.943 387 204.906C387.667 203.87 388.604 203.352 389.812 203.352C391.01 203.352 391.909 203.784 392.508 204.648C393.112 205.513 393.414 207.023 393.414 209.18C393.414 211.034 393.099 212.495 392.469 213.562C391.839 214.625 390.917 215.156 389.703 215.156C388.49 215.156 387.568 214.727 386.938 213.867C386.312 213.008 386 211.362 386 208.93ZM387.562 209.07C387.562 212.242 388.24 213.828 389.594 213.828C390.37 213.828 390.94 213.477 391.305 212.773C391.669 212.07 391.852 210.839 391.852 209.078C391.852 207.865 391.781 206.974 391.641 206.406C391.5 205.839 391.273 205.409 390.961 205.117C390.648 204.826 390.253 204.68 389.773 204.68C388.299 204.68 387.562 206.143 387.562 209.07Z" fill="#333333"/>
<rect x="0.5" y="188.5" width="410" height="41" stroke="#9EA6B5"/>
<rect x="0.5" y="229.5" width="738" height="41" fill="#9EA6B5"/>
<rect width="40" height="40" transform="translate(1 230)" fill="white"/>
<path d="M21.2266 253.016H20.6719C20.2708 250.396 20.0703 248.576 20.0703 247.555V244.352H21.8359V247.547C21.8359 248.542 21.6328 250.365 21.2266 253.016ZM21 253.805C21.3229 253.805 21.599 253.919 21.8281 254.148C22.0573 254.378 22.1719 254.654 22.1719 254.977C22.1719 255.299 22.0573 255.578 21.8281 255.812C21.599 256.042 21.3229 256.156 21 256.156C20.6771 256.156 20.401 256.042 20.1719 255.812C19.9427 255.578 19.8281 255.299 19.8281 254.977C19.8281 254.654 19.9427 254.378 20.1719 254.148C20.401 253.919 20.6771 253.805 21 253.805Z" fill="#333333"/>
<rect width="40" height="40" transform="translate(42 230)" fill="white"/>
<path d="M64.6875 255.094C64.9271 255.182 65.2786 255.333 65.7422 255.547C64.7422 256.547 63.4245 257.047 61.7891 257.047C60.1224 257.047 58.7865 256.534 57.7812 255.508C56.7812 254.482 56.2812 253.133 56.2812 251.461C56.2812 249.763 56.7891 248.37 57.8047 247.281C58.8203 246.193 60.1484 245.648 61.7891 245.648C63.3672 245.648 64.638 246.12 65.6016 247.062C66.5651 248.005 67.0469 249.263 67.0469 250.836C67.0469 251.721 66.8125 252.474 66.3438 253.094C65.8802 253.708 65.2656 254.016 64.5 254.016C63.6719 254.016 63.0729 253.833 62.7031 253.469C62.2604 253.875 61.737 254.078 61.1328 254.078C60.5755 254.078 60.125 253.927 59.7812 253.625C59.4375 253.318 59.2656 252.906 59.2656 252.391C59.2656 251.734 59.5469 251.234 60.1094 250.891C60.6719 250.547 61.4323 250.375 62.3906 250.375C62.3125 249.609 62.0052 249.227 61.4688 249.227C60.9219 249.227 60.4896 249.372 60.1719 249.664L59.7969 248.891C60.224 248.573 60.7448 248.414 61.3594 248.414C62.8073 248.414 63.5312 249.245 63.5312 250.906V252.773C63.9062 253.049 64.224 253.188 64.4844 253.188C65.4531 253.188 65.9375 252.396 65.9375 250.812C65.9375 249.609 65.5469 248.607 64.7656 247.805C63.9844 247.003 62.9922 246.602 61.7891 246.602C60.4714 246.602 59.4089 247.057 58.6016 247.969C57.7943 248.88 57.3906 250.044 57.3906 251.461C57.3906 252.852 57.7891 253.971 58.5859 254.82C59.388 255.669 60.4557 256.094 61.7891 256.094C62.9922 256.094 63.9583 255.76 64.6875 255.094ZM62.3906 252.93V251.102H61.9922C60.9766 251.102 60.4688 251.518 60.4688 252.352C60.4688 252.633 60.5677 252.865 60.7656 253.047C60.9635 253.229 61.2109 253.32 61.5078 253.32C61.8359 253.32 62.1302 253.19 62.3906 252.93Z" fill="#333333"/>
<rect width="40" height="40" transform="translate(83 230)" fill="white"/>
<path d="M105.367 248.602L104.594 251.672H105.852V252.672H104.336L103.367 256.156H102.375L103.344 252.672H101.023L100.055 256.156H99.0391L100 252.672H98.7891V251.672H100.258L101.031 248.602H99.6875V247.602H101.289L102.086 244.383H103.109L102.305 247.602H104.625L105.43 244.383H106.422L105.617 247.602H106.984V248.602H105.367ZM102.055 248.602L101.281 251.672H103.602L104.375 248.602H102.055Z" fill="#333333"/>
<rect width="40" height="40" transform="translate(124 230)" fill="white"/>
<path d="M143.078 256.195C142.719 256.174 142.266 256.083 141.719 255.922C141.172 255.76 140.797 255.612 140.594 255.477L141.156 254.039C141.427 254.237 141.784 254.411 142.227 254.562C142.674 254.714 143.073 254.789 143.422 254.789C144.031 254.789 144.521 254.622 144.891 254.289C145.26 253.956 145.445 253.531 145.445 253.016C145.445 252.693 145.391 252.406 145.281 252.156C145.177 251.906 145.031 251.706 144.844 251.555C144.661 251.398 144.242 251.167 143.586 250.859L142.664 250.43C141.883 250.065 141.336 249.633 141.023 249.133C140.716 248.633 140.562 248.031 140.562 247.328C140.562 246.604 140.789 245.974 141.242 245.438C141.701 244.901 142.312 244.562 143.078 244.422V243.172H144.164V244.367C145.284 244.414 146.042 244.617 146.438 244.977L145.977 246.336C145.768 246.185 145.451 246.039 145.023 245.898C144.596 245.758 144.201 245.688 143.836 245.688C143.305 245.688 142.885 245.839 142.578 246.141C142.276 246.443 142.125 246.831 142.125 247.305C142.125 247.596 142.18 247.862 142.289 248.102C142.398 248.341 142.555 248.544 142.758 248.711C142.961 248.878 143.357 249.102 143.945 249.383L144.664 249.719C145.477 250.099 146.07 250.565 146.445 251.117C146.82 251.664 147.008 252.367 147.008 253.227C147.008 253.935 146.755 254.557 146.25 255.094C145.75 255.625 145.055 255.966 144.164 256.117V257.922H143.078V256.195Z" fill="#333333"/>
<rect width="40" height="40" transform="translate(165 230)" fill="white"/>
<path d="M181.703 256.156H180.711L187.609 244.352H188.594L181.703 256.156ZM180.477 246.922C180.477 246.156 180.688 245.536 181.109 245.062C181.531 244.589 182.068 244.352 182.719 244.352C183.359 244.352 183.87 244.586 184.25 245.055C184.635 245.523 184.828 246.195 184.828 247.07C184.828 247.883 184.625 248.529 184.219 249.008C183.812 249.482 183.289 249.719 182.648 249.719C181.201 249.719 180.477 248.786 180.477 246.922ZM181.461 247C181.461 247.609 181.562 248.083 181.766 248.422C181.974 248.755 182.245 248.922 182.578 248.922C183.422 248.922 183.844 248.284 183.844 247.008C183.844 245.768 183.461 245.148 182.695 245.148C182.315 245.148 182.013 245.315 181.789 245.648C181.57 245.982 181.461 246.432 181.461 247ZM184.695 253.359C184.695 252.594 184.906 251.974 185.328 251.5C185.75 251.026 186.286 250.789 186.938 250.789C187.578 250.789 188.089 251.023 188.469 251.492C188.854 251.961 189.047 252.633 189.047 253.508C189.047 254.32 188.844 254.966 188.438 255.445C188.031 255.919 187.508 256.156 186.867 256.156C185.419 256.156 184.695 255.224 184.695 253.359ZM185.68 253.438C185.68 254.047 185.781 254.521 185.984 254.859C186.193 255.193 186.464 255.359 186.797 255.359C187.641 255.359 188.062 254.721 188.062 253.445C188.062 252.206 187.68 251.586 186.914 251.586C186.534 251.586 186.232 251.753 186.008 252.086C185.789 252.419 185.68 252.87 185.68 253.438Z" fill="#333333"/>
<rect width="40" height="40" transform="translate(206 230)" fill="white"/>
<path d="M227.461 248.914L225.555 245.414L223.617 248.945H222.664L225.148 244.508H225.984L228.453 248.914H227.461Z" fill="#333333"/>
<rect width="40" height="40" transform="translate(247 230)" fill="white"/>
<path d="M268.258 255.602C267.503 255.971 266.591 256.156 265.523 256.156C264.435 256.156 263.594 255.836 263 255.195C262.406 254.549 262.109 253.638 262.109 252.461C262.109 251.857 262.198 251.333 262.375 250.891C262.557 250.448 262.888 249.99 263.367 249.516C262.633 248.786 262.266 248.029 262.266 247.242C262.266 246.445 262.565 245.766 263.164 245.203C263.768 244.635 264.576 244.352 265.586 244.352C266.659 244.352 267.487 244.589 268.07 245.062L267.422 246.266C266.828 245.771 266.297 245.523 265.828 245.523C264.443 245.523 263.75 246.148 263.75 247.398C263.75 248.076 264.052 248.648 264.656 249.117H267.562V247.688L269.047 247.117V249.141H270.992V250.391H269.047V252.969C269.047 253.688 269.143 254.177 269.336 254.438C269.529 254.698 269.862 254.828 270.336 254.828C270.617 254.828 270.948 254.732 271.328 254.539L271.539 255.922C270.992 256.078 270.367 256.156 269.664 256.156C269.18 256.156 268.711 255.971 268.258 255.602ZM267.562 253.547V250.391H264.414C263.919 251.026 263.672 251.693 263.672 252.391C263.672 254.016 264.466 254.828 266.055 254.828C266.763 254.828 267.294 254.701 267.648 254.445C267.591 254.206 267.562 253.906 267.562 253.547Z" fill="#333333"/>
<rect width="40" height="40" transform="translate(288 230)" fill="white"/>
<path d="M309.664 247.195L308.312 247.219L309.547 248.039L309.914 248.523L308.961 249.336L308.539 248.789L307.898 247.547L307.188 248.812L306.852 249.312L305.828 248.523L306.219 247.984L307.453 247.336L306.078 247.125L305.375 246.875L305.938 245.703L306.688 245.992L307.664 246.734L307.172 245.133V244.516H308.547V245.109L308.078 246.758L309.312 245.922L309.891 245.711L310.336 246.969L309.664 247.195Z" fill="#333333"/>
<rect width="40" height="40" transform="translate(329 230)" fill="white"/>
<path d="M350.828 244.477V245.125C349.797 246.615 349.281 248.789 349.281 251.648C349.281 255.044 349.797 257.336 350.828 258.523V259.344C349.776 258.609 348.958 257.555 348.375 256.18C347.797 254.81 347.508 253.294 347.508 251.633C347.508 250.216 347.839 248.786 348.5 247.344C349.161 245.896 349.938 244.94 350.828 244.477Z" fill="#333333"/>
<rect width="40" height="40" transform="translate(370 230)" fill="white"/>
<path d="M388.508 259.344V258.523C389.539 257.336 390.055 255.044 390.055 251.648C390.055 248.789 389.539 246.615 388.508 245.125V244.477C389.398 244.94 390.174 245.896 390.836 247.344C391.497 248.786 391.828 250.216 391.828 251.633C391.828 253.294 391.536 254.81 390.953 256.18C390.375 257.555 389.56 258.609 388.508 259.344Z" fill="#333333"/>
<rect width="40" height="40" transform="translate(411 230)" fill="white"/>
<path d="M429.578 259.281V244.203H433.195V245.531H431.141V257.953H433.195V259.281H429.578Z" fill="#333333"/>
<rect width="40" height="40" transform="translate(452 230)" fill="white"/>
<path d="M473.297 259.281H469.68V257.953H471.734V245.531H469.68V244.203H473.297V259.281Z" fill="#333333"/>
<rect width="40" height="40" transform="translate(493 230)" fill="white"/>
<path d="M514 256L509.977 244.508H511.086L515.117 256H514Z" fill="#333333"/>
<rect width="40" height="40" transform="translate(534 230)" fill="white"/>
<path d="M553.766 247.477C554.089 247.477 554.365 247.591 554.594 247.82C554.823 248.049 554.938 248.326 554.938 248.648C554.938 248.971 554.823 249.25 554.594 249.484C554.365 249.714 554.089 249.828 553.766 249.828C553.443 249.828 553.167 249.714 552.938 249.484C552.708 249.25 552.594 248.971 552.594 248.648C552.594 248.326 552.708 248.049 552.938 247.82C553.167 247.591 553.443 247.477 553.766 247.477ZM552.75 258.836L552.352 258.273C553.247 257.539 553.695 256.914 553.695 256.398C553.695 256.169 553.617 255.94 553.461 255.711C553.013 255.497 552.789 255.19 552.789 254.789C552.789 254.513 552.896 254.286 553.109 254.109C553.323 253.927 553.591 253.836 553.914 253.836C554.201 253.836 554.456 253.961 554.68 254.211C554.909 254.461 555.023 254.753 555.023 255.086C555.023 255.779 554.878 256.401 554.586 256.953C554.299 257.51 553.688 258.138 552.75 258.836Z" fill="#333333"/>
<rect width="40" height="40" transform="translate(575 230)" fill="white"/>
<path d="M596.32 244.898L595.734 245.398C595.448 245.643 595.305 245.943 595.305 246.297C595.305 246.51 595.432 246.758 595.688 247.039C595.943 247.32 596.07 247.578 596.07 247.812C596.07 248.578 595.693 248.961 594.938 248.961C594.13 248.961 593.727 248.5 593.727 247.578C593.727 246.198 594.417 245.073 595.797 244.203L596.32 244.898Z" fill="#333333"/>
<rect width="40" height="40" transform="translate(616 230)" fill="white"/>
<path d="M638.445 254.297L632.672 251.5V250.539L638.445 247.773V249.031L633.984 251.023L638.445 253.039V254.297Z" fill="#333333"/>
<rect width="40" height="40" transform="translate(657 230)" fill="white"/>
<path d="M679.445 251.5L673.672 254.297V253.039L678.133 251.023L673.672 249.031V247.773L679.445 250.539V251.5Z" fill="#333333"/>
<rect width="40" height="40" transform="translate(698 230)" fill="white"/>
<path d="M716.234 256H714.977L719.125 244.508H720.367L716.234 256Z" fill="#333333"/>
<rect x="0.5" y="229.5" width="738" height="41" stroke="#9EA6B5"/>
</svg>
