<svg width="739" height="272" viewBox="0 0 739 272" fill="none" xmlns="http://www.w3.org/2000/svg">
<path d="M14.512 2.008H1.264V3.88H6.88V19H8.896V3.88H14.512V2.008ZM16.5573 19H18.4293V13.528C18.4293 10.96 19.4853 9.208 21.9093 9.208C23.6613 9.208 24.4773 10.384 24.4773 12.256V19H26.3493V12.064C26.3493 9.352 25.0293 7.48 22.0773 7.48C20.3253 7.48 18.9813 8.44 18.4773 9.328H18.4293V0.855999H16.5573V19ZM38.5092 15.856C37.6212 16.984 36.5412 17.56 34.9332 17.56C32.8932 17.56 31.4052 15.904 31.2612 13.96H40.3332V13.36C40.3332 9.64 38.1732 7.48 35.0052 7.48C31.6932 7.48 29.2452 9.904 29.2452 13.384C29.2452 16.648 31.4052 19.288 34.9332 19.288C37.0212 19.288 38.6052 18.664 39.9252 16.96L38.5092 15.856ZM31.2612 12.376C31.5012 10.48 32.8692 9.208 34.9332 9.208C36.9972 9.208 38.2452 10.48 38.3172 12.376H31.2612ZM61.1168 7.768H59.2448V9.76H59.1968C58.5008 8.488 56.8928 7.48 54.8768 7.48C51.7328 7.48 49.2608 10.024 49.2608 13.384C49.2608 16.792 51.6368 19.288 55.1648 19.288C56.7968 19.288 58.1648 18.568 59.1968 17.368H59.2448V24.472H61.1168V7.768ZM59.2448 13.384C59.2448 15.736 57.6848 17.56 55.2608 17.56C52.8368 17.56 51.2768 15.736 51.2768 13.384C51.2768 11.032 52.8368 9.208 55.2608 9.208C57.6848 9.208 59.2448 11.032 59.2448 13.384ZM74.3727 7.768H72.5007V13.24C72.5007 15.808 71.4447 17.56 69.0207 17.56C67.2687 17.56 66.4527 16.384 66.4527 14.512V7.768H64.5807V14.704C64.5807 17.416 65.9007 19.288 68.8527 19.288C70.7007 19.288 72.0927 18.256 72.5967 17.152H72.6447C72.6447 17.776 72.6927 18.4 72.6927 19H74.4687C74.4687 18.256 74.3727 17.368 74.3727 16.336V7.768ZM78.0846 19H79.9566V7.768H78.0846V19ZM77.6526 3.376C77.6526 4.168 78.2286 4.744 79.0206 4.744C79.8126 4.744 80.3886 4.168 80.3886 3.376C80.3886 2.632 79.7886 2.008 79.0206 2.008C78.2526 2.008 77.6526 2.632 77.6526 3.376ZM93.1623 9.256C92.0343 8.032 90.4983 7.48 88.8423 7.48C85.3863 7.48 83.0343 9.976 83.0343 13.384C83.0343 16.84 85.3623 19.288 88.8423 19.288C90.4743 19.288 92.0103 18.736 93.0903 17.488L91.6983 16.168C91.0023 17.128 90.0663 17.56 88.8423 17.56C86.5623 17.56 85.0503 15.688 85.0503 13.384C85.0503 11.08 86.3223 9.208 88.8423 9.208C89.9703 9.208 90.8823 9.616 91.6743 10.576L93.1623 9.256ZM95.2604 19H97.1324V13.096L102.7 19H105.46L99.4844 12.88L104.908 7.768H102.244L97.1324 12.712V0.855999H95.2604V19ZM113.844 19H115.716V17.008H115.764C116.46 18.28 118.068 19.288 120.084 19.288C123.228 19.288 125.7 16.744 125.7 13.384C125.7 9.976 123.324 7.48 119.796 7.48C118.164 7.48 116.796 8.2 115.764 9.4H115.716V0.855999H113.844V19ZM115.716 13.384C115.716 11.032 117.276 9.208 119.7 9.208C122.124 9.208 123.684 11.032 123.684 13.384C123.684 15.736 122.124 17.56 119.7 17.56C117.276 17.56 115.716 15.736 115.716 13.384ZM128.612 19H130.484V13.528C130.484 10.96 131.492 9.352 133.772 9.352C134.108 9.352 134.468 9.4 134.78 9.496L134.9 7.6C134.636 7.504 134.372 7.48 134.132 7.48C132.284 7.48 130.892 8.512 130.388 9.616H130.34C130.34 8.992 130.292 8.368 130.292 7.768H128.516C128.516 8.512 128.612 9.4 128.612 10.432V19ZM135.98 13.384C135.98 16.888 138.524 19.288 141.98 19.288C145.436 19.288 147.98 16.888 147.98 13.384C147.98 9.88 145.436 7.48 141.98 7.48C138.524 7.48 135.98 9.88 135.98 13.384ZM137.996 13.384C137.996 11.032 139.556 9.208 141.98 9.208C144.404 9.208 145.964 11.032 145.964 13.384C145.964 15.736 144.404 17.56 141.98 17.56C139.556 17.56 137.996 15.736 137.996 13.384ZM166.55 7.768H164.534L161.99 16.408H161.942L158.99 7.768H157.022L154.118 16.408H154.07L151.502 7.768H149.438L153.086 19H155.006L157.838 10.36H157.886L161.078 19H162.926L166.55 7.768ZM168.667 19H170.539V13.528C170.539 10.96 171.595 9.208 174.019 9.208C175.771 9.208 176.587 10.384 176.587 12.256V19H178.459V12.064C178.459 9.352 177.139 7.48 174.187 7.48C172.339 7.48 170.947 8.512 170.443 9.616H170.395C170.395 8.992 170.347 8.368 170.347 7.768H168.571C168.571 8.512 168.667 9.4 168.667 10.432V19ZM189.642 19H191.514V9.352H194.25V7.768H191.514V5.656C191.514 3.712 191.586 2.296 193.53 2.296C193.962 2.296 194.394 2.392 194.802 2.536L195.066 0.855999C194.706 0.663999 194.106 0.568 193.626 0.568C190.602 0.568 189.642 2.512 189.642 5.248V7.768H187.194V9.352H189.642V19ZM195.605 13.384C195.605 16.888 198.149 19.288 201.605 19.288C205.061 19.288 207.605 16.888 207.605 13.384C207.605 9.88 205.061 7.48 201.605 7.48C198.149 7.48 195.605 9.88 195.605 13.384ZM197.621 13.384C197.621 11.032 199.181 9.208 201.605 9.208C204.029 9.208 205.589 11.032 205.589 13.384C205.589 15.736 204.029 17.56 201.605 17.56C199.181 17.56 197.621 15.736 197.621 13.384ZM208.799 19H211.127L214.631 14.152L218.183 19H220.655L216.023 12.952L219.887 7.768H217.607L214.799 11.8L211.823 7.768H209.375L213.407 12.952L208.799 19ZM231.222 7.768H229.35V20.656C229.35 21.952 229.134 23.032 227.718 23.032C227.406 23.032 227.118 22.984 226.806 22.888L226.59 24.52C226.998 24.712 227.454 24.76 227.886 24.76C230.67 24.76 231.222 22.672 231.222 21.52V7.768ZM228.918 3.376C228.918 4.168 229.494 4.744 230.286 4.744C231.078 4.744 231.654 4.168 231.654 3.376C231.654 2.632 231.054 2.008 230.286 2.008C229.518 2.008 228.918 2.632 228.918 3.376ZM244.74 7.768H242.868V13.24C242.868 15.808 241.812 17.56 239.388 17.56C237.636 17.56 236.82 16.384 236.82 14.512V7.768H234.948V14.704C234.948 17.416 236.268 19.288 239.22 19.288C241.068 19.288 242.46 18.256 242.964 17.152H243.012C243.012 17.776 243.06 18.4 243.06 19H244.836C244.836 18.256 244.74 17.368 244.74 16.336V7.768ZM248.284 19H250.156V13.528C250.156 10.96 251.212 9.208 253.636 9.208C255.172 9.208 255.796 10.168 255.796 12.64V19H257.668V12.52C257.668 10.504 258.988 9.208 260.572 9.208C262.756 9.208 263.308 10.72 263.308 12.28V19H265.18V12.184C265.18 9.28 264.124 7.48 260.908 7.48C259.204 7.48 258.172 8.296 257.356 9.616C256.996 8.848 256.228 7.48 253.804 7.48C251.956 7.48 250.564 8.512 250.06 9.616H250.012C250.012 8.992 249.964 8.368 249.964 7.768H248.188C248.188 8.512 248.284 9.4 248.284 10.432V19ZM268.625 24.472H270.497V17.008H270.545C271.241 18.28 272.849 19.288 274.865 19.288C278.009 19.288 280.481 16.744 280.481 13.384C280.481 9.976 278.105 7.48 274.577 7.48C272.945 7.48 271.577 8.2 270.545 9.4H270.497V7.768H268.625V24.472ZM270.497 13.384C270.497 11.032 272.057 9.208 274.481 9.208C276.905 9.208 278.465 11.032 278.465 13.384C278.465 15.736 276.905 17.56 274.481 17.56C272.057 17.56 270.497 15.736 270.497 13.384ZM282.145 17.2C283.249 18.784 284.617 19.288 286.513 19.288C288.745 19.288 291.001 18.304 291.001 15.76C291.001 13.504 289.321 12.784 287.329 12.4C285.841 12.112 284.497 11.704 284.497 10.768C284.497 9.712 285.673 9.208 286.705 9.208C287.809 9.208 288.601 9.76 289.081 10.552L290.641 9.52C289.873 8.08 288.409 7.48 286.825 7.48C284.737 7.48 282.625 8.608 282.625 10.792C282.625 13.12 284.449 13.576 286.585 14.056C287.785 14.32 288.985 14.632 288.985 15.832C288.985 17.056 287.689 17.56 286.513 17.56C285.193 17.56 284.377 16.96 283.633 16.048L282.145 17.2ZM299.644 13.384C299.644 16.888 302.188 19.288 305.644 19.288C309.1 19.288 311.644 16.888 311.644 13.384C311.644 9.88 309.1 7.48 305.644 7.48C302.188 7.48 299.644 9.88 299.644 13.384ZM301.66 13.384C301.66 11.032 303.22 9.208 305.644 9.208C308.068 9.208 309.628 11.032 309.628 13.384C309.628 15.736 308.068 17.56 305.644 17.56C303.22 17.56 301.66 15.736 301.66 13.384ZM324.094 7.768H322.078L318.742 16.576H318.694L315.19 7.768H313.006L317.59 19H319.654L324.094 7.768ZM334.736 15.856C333.848 16.984 332.768 17.56 331.16 17.56C329.12 17.56 327.632 15.904 327.488 13.96H336.56V13.36C336.56 9.64 334.4 7.48 331.232 7.48C327.92 7.48 325.472 9.904 325.472 13.384C325.472 16.648 327.632 19.288 331.16 19.288C333.248 19.288 334.832 18.664 336.152 16.96L334.736 15.856ZM327.488 12.376C327.728 10.48 329.096 9.208 331.16 9.208C333.224 9.208 334.472 10.48 334.544 12.376H327.488ZM339.456 19H341.328V13.528C341.328 10.96 342.336 9.352 344.616 9.352C344.952 9.352 345.312 9.4 345.624 9.496L345.744 7.6C345.48 7.504 345.216 7.48 344.976 7.48C343.128 7.48 341.736 8.512 341.232 9.616H341.184C341.184 8.992 341.136 8.368 341.136 7.768H339.36C339.36 8.512 339.456 9.4 339.456 10.432V19ZM360.717 7.768H357.405V4.576H355.533V7.768H353.085V9.352H355.533V15.52C355.533 17.848 355.965 19.288 358.629 19.288C359.325 19.288 360.165 19.168 360.813 18.88L360.741 17.176C360.237 17.44 359.637 17.56 359.085 17.56C357.429 17.56 357.405 16.408 357.405 14.968V9.352H360.717V7.768ZM363.01 19H364.882V13.528C364.882 10.96 365.938 9.208 368.362 9.208C370.114 9.208 370.93 10.384 370.93 12.256V19H372.802V12.064C372.802 9.352 371.482 7.48 368.53 7.48C366.778 7.48 365.434 8.44 364.93 9.328H364.882V0.855999H363.01V19ZM384.962 15.856C384.074 16.984 382.994 17.56 381.386 17.56C379.346 17.56 377.858 15.904 377.714 13.96H386.786V13.36C386.786 9.64 384.626 7.48 381.458 7.48C378.146 7.48 375.698 9.904 375.698 13.384C375.698 16.648 377.858 19.288 381.386 19.288C383.474 19.288 385.058 18.664 386.378 16.96L384.962 15.856ZM377.714 12.376C377.954 10.48 379.322 9.208 381.386 9.208C383.45 9.208 384.698 10.48 384.77 12.376H377.714ZM396.53 19H398.402V0.855999H396.53V19ZM403.16 10.432C404.048 9.616 405.296 9.208 406.496 9.208C408.248 9.208 409.28 10.048 409.28 11.68V12.016H408.56C405.8 12.016 401.48 12.232 401.48 15.952C401.48 18.136 403.376 19.288 405.656 19.288C407.36 19.288 408.608 18.472 409.352 17.32H409.4C409.4 17.8 409.4 18.496 409.52 19H411.32C411.224 18.424 411.152 17.704 411.152 17.056V12.232C411.152 9.064 409.76 7.48 406.448 7.48C404.816 7.48 403.136 8.032 401.984 9.208L403.16 10.432ZM409.28 13.6V14.32C409.232 16.144 408.128 17.704 405.968 17.704C404.552 17.704 403.496 17.176 403.496 15.76C403.496 14.248 405.032 13.6 407.408 13.6H409.28ZM413.517 19H422.733V17.416H415.965L422.565 9.208V7.768H413.805V9.352H420.117L413.517 17.536V19ZM434.789 7.768H432.749L429.413 16.576H429.365L425.885 7.768H423.701L428.357 19.072L427.589 21.184C427.181 22.288 426.725 23.032 425.501 23.032C424.973 23.032 424.565 22.984 424.181 22.84L423.941 24.472C424.445 24.712 425.093 24.76 425.621 24.76C427.877 24.76 428.621 23.464 429.365 21.568L434.789 7.768ZM452.831 19H454.703V0.855999H452.831V9.4H452.783C451.751 8.2 450.383 7.48 448.751 7.48C445.223 7.48 442.847 9.976 442.847 13.384C442.847 16.744 445.319 19.288 448.463 19.288C450.479 19.288 452.087 18.28 452.783 17.008H452.831V19ZM452.831 13.384C452.831 15.736 451.271 17.56 448.847 17.56C446.423 17.56 444.863 15.736 444.863 13.384C444.863 11.032 446.423 9.208 448.847 9.208C451.271 9.208 452.831 11.032 452.831 13.384ZM457.519 13.384C457.519 16.888 460.063 19.288 463.519 19.288C466.975 19.288 469.519 16.888 469.519 13.384C469.519 9.88 466.975 7.48 463.519 7.48C460.063 7.48 457.519 9.88 457.519 13.384ZM459.535 13.384C459.535 11.032 461.095 9.208 463.519 9.208C465.943 9.208 467.503 11.032 467.503 13.384C467.503 15.736 465.943 17.56 463.519 17.56C461.095 17.56 459.535 15.736 459.535 13.384ZM483.625 7.768H481.753V9.688H481.705C480.961 8.2 479.257 7.48 477.745 7.48C474.169 7.48 471.769 9.712 471.769 13.384C471.769 16.696 474.217 19.144 477.745 19.144C479.233 19.144 480.817 18.496 481.705 17.056H481.753V18.496C481.753 20.872 480.865 23.032 477.505 23.032C475.777 23.032 474.505 22.36 473.329 21.088L471.985 22.624C473.569 24.184 475.321 24.76 477.505 24.76C481.441 24.76 483.625 22.552 483.625 18.496V7.768ZM473.785 13.384C473.785 11.032 475.393 9.208 477.745 9.208C480.121 9.208 481.753 10.912 481.753 13.336C481.753 15.496 480.313 17.416 477.745 17.416C475.561 17.416 473.785 15.664 473.785 13.384ZM488.649 16.264C487.857 16.264 487.209 16.912 487.209 17.704C487.209 18.496 487.905 19.144 488.649 19.144C489.393 19.144 490.089 18.496 490.089 17.704C490.089 16.912 489.441 16.264 488.649 16.264Z" fill="black"/>
<rect x="0.5" y="25.5" width="697" height="41" fill="#9EA6B5"/>
<rect width="40" height="40" transform="translate(1 26)" fill="white"/>
<path d="M15.096 50H16.616L17.784 47.216H23.448L24.6 50H26.168L21.352 38.672H20.088L15.096 50ZM22.936 45.968H18.312L20.664 40.4H20.696L22.936 45.968Z" fill="#333333"/>
<rect width="40" height="40" transform="translate(42 26)" fill="white"/>
<path d="M57.908 50H61.284C63.38 50 65.7 49.328 65.7 46.832C65.7 45.344 64.596 44.176 63.14 44.048V44.016C64.356 43.648 65.124 42.768 65.124 41.456C65.124 39.376 63.236 38.672 61.364 38.672H57.908V50ZM59.252 39.92H61.252C62.468 39.92 63.684 40.24 63.684 41.632C63.684 43.2 62.372 43.472 61.108 43.472H59.252V39.92ZM59.252 44.72H61.556C62.916 44.72 64.26 45.2 64.26 46.784C64.26 48.224 62.836 48.752 61.524 48.752H59.252V44.72Z" fill="#333333"/>
<rect width="40" height="40" transform="translate(83 26)" fill="white"/>
<path d="M107.512 40.16C106.552 38.912 105.048 38.384 103.512 38.384C100.152 38.384 97.752 41.008 97.752 44.336C97.752 47.776 100.264 50.288 103.512 50.288C105.32 50.288 106.792 49.664 107.8 48.304L106.792 47.456C105.992 48.48 104.888 49.04 103.512 49.04C100.968 49.04 99.192 46.96 99.192 44.336C99.192 41.856 100.984 39.632 103.512 39.632C104.6 39.632 105.672 40.096 106.344 41.008L107.512 40.16Z" fill="#333333"/>
<rect width="40" height="40" transform="translate(124 26)" fill="white"/>
<path d="M139.2 50H143.552C145.776 50 149.104 48.512 149.104 44.336C149.104 40.16 145.776 38.672 143.552 38.672H139.2V50ZM140.544 39.92H143.104C145.696 39.92 147.664 41.232 147.664 44.336C147.664 47.44 145.696 48.752 143.104 48.752H140.544V39.92Z" fill="#333333"/>
<rect width="40" height="40" transform="translate(165 26)" fill="white"/>
<path d="M181.408 50H188.816V48.752H182.752V44.72H188.144V43.472H182.752V39.92H188.528V38.672H181.408V50Z" fill="#333333"/>
<rect width="40" height="40" transform="translate(206 26)" fill="white"/>
<path d="M222.908 50H224.252V44.912H229.532V43.664H224.252V39.92H229.932V38.672H222.908V50Z" fill="#333333"/>
<rect width="40" height="40" transform="translate(247 26)" fill="white"/>
<path d="M271.54 43.664H267.588V44.912H270.196V48.384C269.364 48.8 268.292 49.04 267.38 49.04C264.596 49.04 262.692 47.04 262.692 44.336C262.692 41.584 264.66 39.632 267.252 39.632C268.404 39.632 269.572 40.096 270.34 40.928L271.348 39.872C270.276 38.784 268.836 38.384 267.348 38.384C263.956 38.384 261.252 40.768 261.252 44.336C261.252 47.888 263.78 50.288 267.3 50.288C268.772 50.288 270.244 49.952 271.54 49.232V43.664Z" fill="#333333"/>
<rect width="40" height="40" transform="translate(288 26)" fill="white"/>
<path d="M303.408 50H304.752V44.72H310.8V50H312.144V38.672H310.8V43.472H304.752V38.672H303.408V50Z" fill="#333333"/>
<rect width="40" height="40" transform="translate(329 26)" fill="white"/>
<path d="M347.908 50H349.252V38.672H347.908V50Z" fill="#333333"/>
<rect width="40" height="40" transform="translate(370 26)" fill="white"/>
<path d="M392.304 38.672H390.96V46.608C390.96 47.84 390.624 49.04 389.088 49.04C388.144 49.04 387.568 48.48 387.392 47.584L386.048 47.856C386.336 49.472 387.472 50.288 389.072 50.288C391.488 50.288 392.304 48.592 392.304 47.072V38.672Z" fill="#333333"/>
<rect width="40" height="40" transform="translate(411 26)" fill="white"/>
<path d="M426.908 50H428.252V44.24H428.444L433.836 50H435.804L429.932 43.84L435.532 38.672H433.596L428.444 43.568H428.252V38.672H426.908V50Z" fill="#333333"/>
<rect width="40" height="40" transform="translate(452 26)" fill="white"/>
<path d="M469.408 50H475.936V48.752H470.752V38.672H469.408V50Z" fill="#333333"/>
<rect width="40" height="40" transform="translate(493 26)" fill="white"/>
<path d="M506.908 50H508.252V40.496H508.284L512.348 50H513.164L517.228 40.496H517.26V50H518.604V38.672H516.652L512.78 47.552H512.748L508.908 38.672H506.908V50Z" fill="#333333"/>
<rect width="40" height="40" transform="translate(534 26)" fill="white"/>
<path d="M548.908 50H550.252V40.592H550.284L556.844 50H558.54V38.672H557.196V48.08H557.164L550.604 38.672H548.908V50Z" fill="#333333"/>
<rect width="40" height="40" transform="translate(575 26)" fill="white"/>
<path d="M594.672 50.288C598.112 50.288 600.592 47.76 600.592 44.336C600.592 40.912 598.112 38.384 594.672 38.384C591.232 38.384 588.752 40.912 588.752 44.336C588.752 47.76 591.232 50.288 594.672 50.288ZM594.672 49.04C592.016 49.04 590.192 46.944 590.192 44.336C590.192 41.728 592.016 39.632 594.672 39.632C597.328 39.632 599.152 41.728 599.152 44.336C599.152 46.944 597.328 49.04 594.672 49.04Z" fill="#333333"/>
<rect width="40" height="40" transform="translate(616 26)" fill="white"/>
<path d="M632.408 50H633.752V44.912H636.024C637.624 44.912 639.736 44.256 639.736 41.776C639.736 39.408 637.848 38.672 635.768 38.672H632.408V50ZM633.752 39.92H636.024C637.368 39.92 638.296 40.528 638.296 41.792C638.296 43.056 637.368 43.664 636.024 43.664H633.752V39.92Z" fill="#333333"/>
<rect width="40" height="40" transform="translate(657 26)" fill="white"/>
<path d="M683.152 48.848H679.648V48.816C681.344 48.096 682.4 46.112 682.4 44.192C682.4 40.912 679.888 38.384 676.576 38.384C673.264 38.384 670.752 40.912 670.752 44.192C670.752 47.472 673.264 50 676.576 50H683.152V48.848ZM672.192 44.192C672.192 41.664 674.032 39.632 676.576 39.632C679.12 39.632 680.96 41.664 680.96 44.192C680.96 46.752 679.072 48.752 676.576 48.752C674.08 48.752 672.192 46.752 672.192 44.192Z" fill="#333333"/>
<rect x="0.5" y="25.5" width="697" height="41" stroke="#9EA6B5"/>
<rect x="0.5" y="66.5" width="369" height="41" fill="#9EA6B5"/>
<rect width="40" height="40" transform="translate(1 67)" fill="white"/>
<path d="M17.408 91H18.752V85.912H20.48L23.552 91H25.2L21.984 85.784C23.744 85.512 24.816 84.44 24.816 82.792C24.816 79.992 22.496 79.672 20.304 79.672H17.408V91ZM18.752 80.92H20.64C21.952 80.92 23.376 81.16 23.376 82.792C23.376 84.664 21.44 84.664 19.952 84.664H18.752V80.92Z" fill="#333333"/>
<rect width="40" height="40" transform="translate(42 67)" fill="white"/>
<path d="M65.388 80.712C64.556 79.736 63.484 79.384 62.22 79.384C60.236 79.384 58.364 80.472 58.364 82.648C58.364 84.536 59.58 85.24 61.18 85.768C63.196 86.44 64.14 86.68 64.14 88.072C64.14 89.368 62.828 90.04 61.676 90.04C60.7 90.04 59.74 89.608 59.26 88.776L58.108 89.72C58.876 90.856 60.284 91.288 61.596 91.288C63.644 91.288 65.58 90.232 65.58 87.976C65.58 85.752 63.948 85.176 62.188 84.616C60.38 84.04 59.804 83.576 59.804 82.536C59.804 81.192 61.036 80.632 62.22 80.632C63.036 80.632 63.836 80.952 64.284 81.672L65.388 80.712Z" fill="#333333"/>
<rect width="40" height="40" transform="translate(83 67)" fill="white"/>
<path d="M107.008 79.672H98.176V80.92H101.92V91H103.264V80.92H107.008V79.672Z" fill="#333333"/>
<rect width="40" height="40" transform="translate(124 67)" fill="white"/>
<path d="M147.904 79.672H146.56V86.488C146.56 88.312 145.888 90.04 143.632 90.04C141.376 90.04 140.704 88.312 140.704 86.488V79.672H139.36V86.68C139.36 89.144 140.512 91.288 143.632 91.288C146.752 91.288 147.904 89.144 147.904 86.68V79.672Z" fill="#333333"/>
<rect width="40" height="40" transform="translate(165 67)" fill="white"/>
<path d="M184.192 91H185.488L189.92 79.672H188.496L184.896 88.984H184.864L181.376 79.672H179.856L184.192 91Z" fill="#333333"/>
<rect width="40" height="40" transform="translate(206 67)" fill="white"/>
<path d="M221.408 91H222.88L225.696 81.4H225.728L228.528 91H229.984L233.312 79.672H231.904L229.28 89.08H229.248L226.48 79.672H224.976L222.192 89.08H222.16L219.584 79.672H218.096L221.408 91Z" fill="#333333"/>
<rect width="40" height="40" transform="translate(247 67)" fill="white"/>
<path d="M261.452 91H263.116L266.492 85.976L269.852 91H271.628L267.452 85.032L271.26 79.672H269.58L266.556 84.104L263.5 79.672H261.772L265.58 85.032L261.452 91Z" fill="#333333"/>
<rect width="40" height="40" transform="translate(288 67)" fill="white"/>
<path d="M307.08 91H308.424V86.12L312.648 79.672H311.032L307.752 84.792L304.568 79.672H302.856L307.08 86.12V91Z" fill="#333333"/>
<rect width="40" height="40" transform="translate(329 67)" fill="white"/>
<path d="M344.464 91H352.72V89.752H346.096L352.64 80.824V79.672H344.56V80.92H351.008L344.464 89.8V91Z" fill="#333333"/>
<rect x="0.5" y="66.5" width="369" height="41" stroke="#9EA6B5"/>
<rect x="0.5" y="107.5" width="697" height="41" fill="#9EA6B5"/>
<rect width="40" height="40" transform="translate(1 108)" fill="white"/>
<path d="M18.372 126.288C18.964 125.744 19.796 125.472 20.596 125.472C21.764 125.472 22.452 126.032 22.452 127.12V127.344H21.972C20.132 127.344 17.252 127.488 17.252 129.968C17.252 131.424 18.516 132.192 20.036 132.192C21.172 132.192 22.004 131.648 22.5 130.88H22.532C22.532 131.2 22.532 131.664 22.612 132H23.812C23.748 131.616 23.7 131.136 23.7 130.704V127.488C23.7 125.376 22.772 124.32 20.564 124.32C19.476 124.32 18.356 124.688 17.588 125.472L18.372 126.288ZM22.452 128.4V128.88C22.42 130.096 21.684 131.136 20.244 131.136C19.3 131.136 18.596 130.784 18.596 129.84C18.596 128.832 19.62 128.4 21.204 128.4H22.452Z" fill="#333333"/>
<rect width="40" height="40" transform="translate(42 108)" fill="white"/>
<path d="M58.12 132H59.368V130.672H59.4C59.864 131.52 60.936 132.192 62.28 132.192C64.376 132.192 66.024 130.496 66.024 128.256C66.024 125.984 64.44 124.32 62.088 124.32C61 124.32 60.088 124.8 59.4 125.6H59.368V119.904H58.12V132ZM59.368 128.256C59.368 126.688 60.408 125.472 62.024 125.472C63.64 125.472 64.68 126.688 64.68 128.256C64.68 129.824 63.64 131.04 62.024 131.04C60.408 131.04 59.368 129.824 59.368 128.256Z" fill="#333333"/>
<rect width="40" height="40" transform="translate(83 108)" fill="white"/>
<path d="M106.504 125.504C105.752 124.688 104.728 124.32 103.624 124.32C101.32 124.32 99.752 125.984 99.752 128.256C99.752 130.56 101.304 132.192 103.624 132.192C104.712 132.192 105.736 131.824 106.456 130.992L105.528 130.112C105.064 130.752 104.44 131.04 103.624 131.04C102.104 131.04 101.096 129.792 101.096 128.256C101.096 126.72 101.944 125.472 103.624 125.472C104.376 125.472 104.984 125.744 105.512 126.384L106.504 125.504Z" fill="#333333"/>
<rect width="40" height="40" transform="translate(124 108)" fill="white"/>
<path d="M146.408 132H147.656V119.904H146.408V125.6H146.376C145.688 124.8 144.776 124.32 143.688 124.32C141.336 124.32 139.752 125.984 139.752 128.256C139.752 130.496 141.4 132.192 143.496 132.192C144.84 132.192 145.912 131.52 146.376 130.672H146.408V132ZM146.408 128.256C146.408 129.824 145.368 131.04 143.752 131.04C142.136 131.04 141.096 129.824 141.096 128.256C141.096 126.688 142.136 125.472 143.752 125.472C145.368 125.472 146.408 126.688 146.408 128.256Z" fill="#333333"/>
<rect width="40" height="40" transform="translate(165 108)" fill="white"/>
<path d="M187.428 129.904C186.836 130.656 186.116 131.04 185.044 131.04C183.684 131.04 182.692 129.936 182.596 128.64H188.644V128.24C188.644 125.76 187.204 124.32 185.092 124.32C182.884 124.32 181.252 125.936 181.252 128.256C181.252 130.432 182.692 132.192 185.044 132.192C186.436 132.192 187.492 131.776 188.372 130.64L187.428 129.904ZM182.596 127.584C182.756 126.32 183.668 125.472 185.044 125.472C186.42 125.472 187.252 126.32 187.3 127.584H182.596Z" fill="#333333"/>
<rect width="40" height="40" transform="translate(206 108)" fill="white"/>
<path d="M224.824 132H226.072V125.568H227.896V124.512H226.072V123.104C226.072 121.808 226.12 120.864 227.416 120.864C227.704 120.864 227.992 120.928 228.264 121.024L228.44 119.904C228.2 119.776 227.8 119.712 227.48 119.712C225.464 119.712 224.824 121.008 224.824 122.832V124.512H223.192V125.568H224.824V132Z" fill="#333333"/>
<rect width="40" height="40" transform="translate(247 108)" fill="white"/>
<path d="M270.656 124.512H269.408V125.792H269.376C268.88 124.8 267.744 124.32 266.736 124.32C264.352 124.32 262.752 125.808 262.752 128.256C262.752 130.464 264.384 132.096 266.736 132.096C267.728 132.096 268.784 131.664 269.376 130.704H269.408V131.664C269.408 133.248 268.816 134.688 266.576 134.688C265.424 134.688 264.576 134.24 263.792 133.392L262.896 134.416C263.952 135.456 265.12 135.84 266.576 135.84C269.2 135.84 270.656 134.368 270.656 131.664V124.512ZM264.096 128.256C264.096 126.688 265.168 125.472 266.736 125.472C268.32 125.472 269.408 126.608 269.408 128.224C269.408 129.664 268.448 130.944 266.736 130.944C265.28 130.944 264.096 129.776 264.096 128.256Z" fill="#333333"/>
<rect width="40" height="40" transform="translate(288 108)" fill="white"/>
<path d="M304.684 132H305.932V128.352C305.932 126.64 306.636 125.472 308.252 125.472C309.42 125.472 309.964 126.256 309.964 127.504V132H311.212V127.376C311.212 125.568 310.332 124.32 308.364 124.32C307.196 124.32 306.3 124.96 305.964 125.552H305.932V119.904H304.684V132Z" fill="#333333"/>
<rect width="40" height="40" transform="translate(329 108)" fill="white"/>
<path d="M348.296 132H349.544V124.512H348.296V132ZM348.008 121.584C348.008 122.112 348.392 122.496 348.92 122.496C349.448 122.496 349.832 122.112 349.832 121.584C349.832 121.088 349.432 120.672 348.92 120.672C348.408 120.672 348.008 121.088 348.008 121.584Z" fill="#333333"/>
<rect width="40" height="40" transform="translate(370 108)" fill="white"/>
<path d="M390.544 124.512H389.296V133.104C389.296 133.968 389.152 134.688 388.208 134.688C388 134.688 387.808 134.656 387.6 134.592L387.456 135.68C387.728 135.808 388.032 135.84 388.32 135.84C390.176 135.84 390.544 134.448 390.544 133.68V124.512ZM389.008 121.584C389.008 122.112 389.392 122.496 389.92 122.496C390.448 122.496 390.832 122.112 390.832 121.584C390.832 121.088 390.432 120.672 389.92 120.672C389.408 120.672 389.008 121.088 389.008 121.584Z" fill="#333333"/>
<rect width="40" height="40" transform="translate(411 108)" fill="white"/>
<path d="M428.184 132H429.432V128.064L433.144 132H434.984L431 127.92L434.616 124.512H432.84L429.432 127.808V119.904H428.184V132Z" fill="#333333"/>
<rect width="40" height="40" transform="translate(452 108)" fill="white"/>
<path d="M471.296 132H472.544V119.904H471.296V132Z" fill="#333333"/>
<rect width="40" height="40" transform="translate(493 108)" fill="white"/>
<path d="M507.184 132H508.432V128.352C508.432 126.64 509.136 125.472 510.752 125.472C511.776 125.472 512.192 126.112 512.192 127.76V132H513.44V127.68C513.44 126.336 514.32 125.472 515.376 125.472C516.832 125.472 517.2 126.48 517.2 127.52V132H518.448V127.456C518.448 125.52 517.744 124.32 515.6 124.32C514.464 124.32 513.776 124.864 513.232 125.744C512.992 125.232 512.48 124.32 510.864 124.32C509.632 124.32 508.704 125.008 508.368 125.744H508.336C508.336 125.328 508.304 124.912 508.304 124.512H507.12C507.12 125.008 507.184 125.6 507.184 126.288V132Z" fill="#333333"/>
<rect width="40" height="40" transform="translate(534 108)" fill="white"/>
<path d="M550.684 132H551.932V128.352C551.932 126.64 552.636 125.472 554.252 125.472C555.42 125.472 555.964 126.256 555.964 127.504V132H557.212V127.376C557.212 125.568 556.332 124.32 554.364 124.32C553.132 124.32 552.204 125.008 551.868 125.744H551.836C551.836 125.328 551.804 124.912 551.804 124.512H550.62C550.62 125.008 550.684 125.6 550.684 126.288V132Z" fill="#333333"/>
<rect width="40" height="40" transform="translate(575 108)" fill="white"/>
<path d="M590.752 128.256C590.752 130.592 592.448 132.192 594.752 132.192C597.056 132.192 598.752 130.592 598.752 128.256C598.752 125.92 597.056 124.32 594.752 124.32C592.448 124.32 590.752 125.92 590.752 128.256ZM592.096 128.256C592.096 126.688 593.136 125.472 594.752 125.472C596.368 125.472 597.408 126.688 597.408 128.256C597.408 129.824 596.368 131.04 594.752 131.04C593.136 131.04 592.096 129.824 592.096 128.256Z" fill="#333333"/>
<rect width="40" height="40" transform="translate(616 108)" fill="white"/>
<path d="M632.12 135.648H633.368V130.672H633.4C633.864 131.52 634.936 132.192 636.28 132.192C638.376 132.192 640.024 130.496 640.024 128.256C640.024 125.984 638.44 124.32 636.088 124.32C635 124.32 634.088 124.8 633.4 125.6H633.368V124.512H632.12V135.648ZM633.368 128.256C633.368 126.688 634.408 125.472 636.024 125.472C637.64 125.472 638.68 126.688 638.68 128.256C638.68 129.824 637.64 131.04 636.024 131.04C634.408 131.04 633.368 129.824 633.368 128.256Z" fill="#333333"/>
<rect width="40" height="40" transform="translate(657 108)" fill="white"/>
<path d="M680.656 124.512H679.408V125.84H679.376C678.912 124.992 677.84 124.32 676.496 124.32C674.4 124.32 672.752 126.016 672.752 128.256C672.752 130.528 674.336 132.192 676.688 132.192C677.776 132.192 678.688 131.712 679.376 130.912H679.408V135.648H680.656V124.512ZM679.408 128.256C679.408 129.824 678.368 131.04 676.752 131.04C675.136 131.04 674.096 129.824 674.096 128.256C674.096 126.688 675.136 125.472 676.752 125.472C678.368 125.472 679.408 126.688 679.408 128.256Z" fill="#333333"/>
<rect x="0.5" y="107.5" width="697" height="41" stroke="#9EA6B5"/>
<rect x="0.5" y="148.5" width="369" height="41" fill="#9EA6B5"/>
<rect width="40" height="40" transform="translate(1 149)" fill="white"/>
<path d="M19.184 173H20.432V169.352C20.432 167.64 21.104 166.568 22.624 166.568C22.848 166.568 23.088 166.6 23.296 166.664L23.376 165.4C23.2 165.336 23.024 165.32 22.864 165.32C21.632 165.32 20.704 166.008 20.368 166.744H20.336C20.336 166.328 20.304 165.912 20.304 165.512H19.12C19.12 166.008 19.184 166.6 19.184 167.288V173Z" fill="#333333"/>
<rect width="40" height="40" transform="translate(42 149)" fill="white"/>
<path d="M58.852 171.8C59.588 172.856 60.5 173.192 61.764 173.192C63.252 173.192 64.756 172.536 64.756 170.84C64.756 169.336 63.636 168.856 62.308 168.6C61.316 168.408 60.42 168.136 60.42 167.512C60.42 166.808 61.204 166.472 61.892 166.472C62.628 166.472 63.156 166.84 63.476 167.368L64.516 166.68C64.004 165.72 63.028 165.32 61.972 165.32C60.58 165.32 59.172 166.072 59.172 167.528C59.172 169.08 60.388 169.384 61.812 169.704C62.612 169.88 63.412 170.088 63.412 170.888C63.412 171.704 62.548 172.04 61.764 172.04C60.884 172.04 60.34 171.64 59.844 171.032L58.852 171.8Z" fill="#333333"/>
<rect width="40" height="40" transform="translate(83 149)" fill="white"/>
<path d="M105.28 165.512H103.072V163.384H101.824V165.512H100.192V166.568H101.824V170.68C101.824 172.232 102.112 173.192 103.888 173.192C104.352 173.192 104.912 173.112 105.344 172.92L105.296 171.784C104.96 171.96 104.56 172.04 104.192 172.04C103.088 172.04 103.072 171.272 103.072 170.312V166.568H105.28V165.512Z" fill="#333333"/>
<rect width="40" height="40" transform="translate(124 149)" fill="white"/>
<path d="M147.212 165.512H145.964V169.16C145.964 170.872 145.26 172.04 143.644 172.04C142.476 172.04 141.932 171.256 141.932 170.008V165.512H140.684V170.136C140.684 171.944 141.564 173.192 143.532 173.192C144.764 173.192 145.692 172.504 146.028 171.768H146.06C146.06 172.184 146.092 172.6 146.092 173H147.276C147.276 172.504 147.212 171.912 147.212 171.224V165.512Z" fill="#333333"/>
<rect width="40" height="40" transform="translate(165 149)" fill="white"/>
<path d="M188.552 165.512H187.208L184.984 171.384H184.952L182.616 165.512H181.16L184.216 173H185.592L188.552 165.512Z" fill="#333333"/>
<rect width="40" height="40" transform="translate(206 149)" fill="white"/>
<path d="M231.632 165.512H230.288L228.592 171.272H228.56L226.592 165.512H225.28L223.344 171.272H223.312L221.6 165.512H220.224L222.656 173H223.936L225.824 167.24H225.856L227.984 173H229.216L231.632 165.512Z" fill="#333333"/>
<rect width="40" height="40" transform="translate(247 149)" fill="white"/>
<path d="M263.048 173H264.6L266.936 169.768L269.304 173H270.952L267.864 168.968L270.44 165.512H268.92L267.048 168.2L265.064 165.512H263.432L266.12 168.968L263.048 173Z" fill="#333333"/>
<rect width="40" height="40" transform="translate(288 149)" fill="white"/>
<path d="M311.552 165.512H310.192L307.968 171.384H307.936L305.616 165.512H304.16L307.264 173.048L306.752 174.456C306.48 175.192 306.176 175.688 305.36 175.688C305.008 175.688 304.736 175.656 304.48 175.56L304.32 176.648C304.656 176.808 305.088 176.84 305.44 176.84C306.944 176.84 307.44 175.976 307.936 174.712L311.552 165.512Z" fill="#333333"/>
<rect width="40" height="40" transform="translate(329 149)" fill="white"/>
<path d="M345.48 173H351.624V171.944H347.112L351.512 166.472V165.512H345.672V166.568H349.88L345.48 172.024V173Z" fill="#333333"/>
<rect x="0.5" y="148.5" width="369" height="41" stroke="#9EA6B5"/>
<rect x="0.5" y="189.5" width="410" height="41" fill="#9EA6B5"/>
<rect width="40" height="40" transform="translate(1 190)" fill="white"/>
<path d="M22.26 202.672H21.092L18.052 205.136L18.852 206.112L20.884 204.4H20.916V214H22.26V202.672Z" fill="#333333"/>
<rect width="40" height="40" transform="translate(42 190)" fill="white"/>
<path d="M58.3 214H65.596V212.752H59.82V212.72L63.308 209.44C64.444 208.368 65.516 207.36 65.516 205.552C65.516 203.536 63.932 202.48 62.06 202.48C60.236 202.48 58.812 203.456 58.508 205.312L59.964 205.44C60.172 204.352 60.972 203.632 62.108 203.632C63.244 203.632 64.172 204.368 64.172 205.552C64.172 206.656 63.644 207.264 62.572 208.304L58.3 212.464V214Z" fill="#333333"/>
<rect width="40" height="40" transform="translate(83 190)" fill="white"/>
<path d="M101.764 208.624H102.18C103.572 208.624 105.044 209.152 105.044 210.816C105.044 212.128 104.02 213.04 102.74 213.04C101.492 213.04 100.836 212.576 100.452 211.36L99.092 211.808C99.668 213.488 101.028 214.192 102.74 214.192C104.756 214.192 106.484 213.072 106.484 210.912C106.484 209.488 105.604 208.304 104.164 208.064V208.032C105.3 207.68 106.1 206.624 106.1 205.44C106.1 203.488 104.532 202.48 102.724 202.48C101.284 202.48 99.988 203.12 99.444 204.4L100.74 204.896C101.14 204.064 101.876 203.632 102.82 203.632C103.956 203.632 104.756 204.352 104.756 205.504C104.756 207.216 103.3 207.472 102.18 207.472H101.764V208.624Z" fill="#333333"/>
<rect width="40" height="40" transform="translate(124 190)" fill="white"/>
<path d="M146.204 202.672H144.556L140.06 209.92V211.408H144.86V214H146.204V211.408H147.836V210.16H146.204V202.672ZM144.86 210.16H141.212L144.828 204.24H144.86V210.16Z" fill="#333333"/>
<rect width="40" height="40" transform="translate(165 190)" fill="white"/>
<path d="M188.084 202.672H182.148L182.036 208.56C182.708 208.16 183.572 207.856 184.34 207.856C185.924 207.856 187.14 208.768 187.14 210.432C187.14 212 186.068 213.04 184.708 213.04C183.748 213.04 182.98 212.464 182.596 211.616L181.252 212.128C181.86 213.376 182.884 214.192 184.596 214.192C186.804 214.192 188.484 212.688 188.484 210.432C188.484 208.304 187.044 206.704 184.868 206.704C184.404 206.704 183.844 206.768 183.412 206.976L183.46 203.92H188.084V202.672Z" fill="#333333"/>
<rect width="40" height="40" transform="translate(206 190)" fill="white"/>
<path d="M227.804 202.672H226.236L223.228 207.456C222.62 208.432 222.156 209.328 222.156 210.64C222.156 212.848 223.804 214.192 225.948 214.192C228.092 214.192 229.74 212.848 229.74 210.64C229.74 208.528 228.284 207.088 226.316 207.088C225.852 207.088 225.212 207.184 224.796 207.424L224.764 207.392L227.804 202.672ZM225.948 208.24C227.308 208.24 228.396 209.168 228.396 210.64C228.396 212.112 227.308 213.04 225.948 213.04C224.588 213.04 223.5 212.112 223.5 210.64C223.5 209.168 224.588 208.24 225.948 208.24Z" fill="#333333"/>
<rect width="40" height="40" transform="translate(247 190)" fill="white"/>
<path d="M270.18 202.672H263.268V203.92H268.74L264.132 214H265.652L270.18 203.92V202.672Z" fill="#333333"/>
<rect width="40" height="40" transform="translate(288 190)" fill="white"/>
<path d="M304.716 205.44C304.716 206.512 305.42 207.632 306.572 207.936V207.968C305.212 208.256 304.332 209.456 304.332 210.88C304.332 212.944 305.932 214.192 307.948 214.192C309.964 214.192 311.564 212.944 311.564 210.88C311.564 209.456 310.684 208.256 309.324 207.968V207.936C310.476 207.632 311.18 206.512 311.18 205.44C311.18 203.664 309.772 202.48 307.948 202.48C306.124 202.48 304.716 203.664 304.716 205.44ZM306.06 205.504C306.06 204.432 306.828 203.632 307.948 203.632C309.068 203.632 309.836 204.432 309.836 205.504C309.836 206.576 309.068 207.376 307.948 207.376C306.828 207.376 306.06 206.576 306.06 205.504ZM305.676 210.784C305.676 209.456 306.684 208.528 307.948 208.528C309.212 208.528 310.22 209.456 310.22 210.784C310.22 212.112 309.212 213.04 307.948 213.04C306.684 213.04 305.676 212.112 305.676 210.784Z" fill="#333333"/>
<rect width="40" height="40" transform="translate(329 190)" fill="white"/>
<path d="M347.092 214H348.66L351.668 209.216C352.276 208.24 352.74 207.344 352.74 206.032C352.74 203.824 351.092 202.48 348.948 202.48C346.804 202.48 345.156 203.824 345.156 206.032C345.156 208.144 346.612 209.584 348.58 209.584C349.044 209.584 349.684 209.488 350.1 209.248L350.132 209.28L347.092 214ZM348.948 208.432C347.588 208.432 346.5 207.504 346.5 206.032C346.5 204.56 347.588 203.632 348.948 203.632C350.308 203.632 351.396 204.56 351.396 206.032C351.396 207.504 350.308 208.432 348.948 208.432Z" fill="#333333"/>
<rect width="40" height="40" transform="translate(370 190)" fill="white"/>
<path d="M386.108 208.336C386.108 210.912 386.828 214.192 389.948 214.192C393.068 214.192 393.788 210.912 393.788 208.336C393.788 205.76 393.068 202.48 389.948 202.48C386.828 202.48 386.108 205.76 386.108 208.336ZM387.452 208.336C387.452 206.672 387.708 203.632 389.948 203.632C392.188 203.632 392.444 206.672 392.444 208.336C392.444 210 392.188 213.04 389.948 213.04C387.708 213.04 387.452 210 387.452 208.336Z" fill="#333333"/>
<rect x="0.5" y="189.5" width="410" height="41" stroke="#9EA6B5"/>
<rect x="0.5" y="230.5" width="738" height="41" fill="#9EA6B5"/>
<rect width="40" height="40" transform="translate(1 231)" fill="white"/>
<path d="M21.396 243.672H20.052V251.832H21.396V243.672ZM20.724 253.176C20.196 253.176 19.764 253.608 19.764 254.136C19.764 254.664 20.228 255.096 20.724 255.096C21.22 255.096 21.684 254.664 21.684 254.136C21.684 253.608 21.252 253.176 20.724 253.176Z" fill="#333333"/>
<rect width="40" height="40" transform="translate(42 231)" fill="white"/>
<path d="M59.692 250.312C59.692 248.92 60.764 246.952 62.268 246.952C62.94 246.952 63.564 247.64 63.564 248.456C63.564 249.768 62.476 251.848 61.084 251.848C60.284 251.848 59.692 251.192 59.692 250.312ZM65.404 246.2H64.364L64.076 247.208H64.044C63.692 246.248 63.004 245.896 62.268 245.896C60.012 245.896 58.54 248.2 58.54 250.424C58.54 251.816 59.436 252.904 60.796 252.904C61.74 252.904 62.3 252.424 62.796 251.848H62.828C62.86 252.568 63.308 252.904 63.852 252.904C65.356 252.904 67.596 251.048 67.596 248.28C67.596 245.416 65.116 243.384 62.188 243.384C58.892 243.384 56.204 246.008 56.204 249.336C56.204 252.648 58.828 255.288 62.188 255.288C64.268 255.288 66.204 254.232 67.228 252.488H66.22C65.356 253.656 63.772 254.424 62.188 254.424C59.548 254.424 57.26 252.2 57.26 249.336C57.26 246.584 59.42 244.248 62.188 244.248C64.412 244.248 66.54 245.848 66.54 248.36C66.54 250.136 65.324 251.848 64.3 251.848C64.028 251.848 63.916 251.752 63.916 251.528C63.916 251.288 63.98 250.984 64.06 250.728L65.404 246.2Z" fill="#333333"/>
<rect width="40" height="40" transform="translate(83 231)" fill="white"/>
<path d="M100.068 255H101.14L101.62 251.592H103.636L103.156 255H104.228L104.708 251.592H106.436V250.536H104.868L105.204 248.104H106.916V247.048H105.348L105.828 243.672H104.756L104.276 247.048H102.26L102.74 243.672H101.668L101.188 247.048H99.46V248.104H101.028L100.708 250.536H98.98V251.592H100.548L100.068 255ZM103.796 250.536H101.78L102.116 248.104H104.132L103.796 250.536Z" fill="#333333"/>
<rect width="40" height="40" transform="translate(124 231)" fill="white"/>
<path d="M143.596 256.328H144.364V255.192C146.188 255.08 147.724 253.864 147.724 251.96C147.724 249.864 146.092 249.256 144.364 248.712V244.728C145.196 244.728 145.932 245.096 146.412 245.736L147.468 244.776C146.716 243.912 145.516 243.48 144.364 243.48V242.424H143.596V243.48C141.916 243.624 140.428 244.84 140.428 246.632C140.428 248.568 141.916 249.432 143.596 249.88V253.944C142.684 253.912 141.756 253.448 141.292 252.728L140.172 253.704C140.972 254.776 142.268 255.192 143.596 255.192V256.328ZM143.596 248.504C142.636 248.12 141.868 247.752 141.868 246.648C141.868 245.64 142.556 244.92 143.596 244.728V248.504ZM144.364 250.088C145.34 250.392 146.284 250.856 146.284 252.024C146.284 253.048 145.452 253.816 144.364 253.944V250.088Z" fill="#333333"/>
<rect width="40" height="40" transform="translate(165 231)" fill="white"/>
<path d="M178.608 246.28C178.608 247.848 179.84 249.08 181.408 249.08C182.976 249.08 184.208 247.848 184.208 246.28C184.208 244.712 182.976 243.48 181.408 243.48C179.84 243.48 178.608 244.712 178.608 246.28ZM179.76 246.28C179.76 245.384 180.528 244.632 181.408 244.632C182.288 244.632 183.056 245.384 183.056 246.28C183.056 247.176 182.288 247.928 181.408 247.928C180.528 247.928 179.76 247.176 179.76 246.28ZM185.12 252.392C185.12 253.96 186.352 255.192 187.92 255.192C189.488 255.192 190.72 253.96 190.72 252.392C190.72 250.824 189.488 249.592 187.92 249.592C186.352 249.592 185.12 250.824 185.12 252.392ZM186.272 252.392C186.272 251.496 187.04 250.744 187.92 250.744C188.8 250.744 189.568 251.496 189.568 252.392C189.568 253.288 188.8 254.04 187.92 254.04C187.04 254.04 186.272 253.288 186.272 252.392ZM180.72 255L181.6 255.512L188.704 243.672L187.824 243.16L180.72 255Z" fill="#333333"/>
<rect width="40" height="40" transform="translate(206 231)" fill="white"/>
<path d="M221.78 250.6H222.964L225.828 245.016L228.692 250.6H229.876L226.308 243.672H225.348L221.78 250.6Z" fill="#333333"/>
<rect width="40" height="40" transform="translate(247 231)" fill="white"/>
<path d="M270.488 255H272.328L269.736 252.344L271.912 248.856H270.392L268.872 251.4L266.472 248.856C267.608 248.264 268.872 247.4 268.872 245.976C268.872 244.312 267.576 243.464 266.04 243.464C264.472 243.464 263.112 244.376 263.112 246.056C263.112 247.144 263.736 247.928 264.472 248.68C263.112 249.304 261.96 250.36 261.96 251.96C261.96 253.992 263.64 255.192 265.56 255.192C267.064 255.192 268.04 254.52 268.952 253.368L270.488 255ZM265.24 247.624C264.856 247.224 264.456 246.744 264.456 246.136C264.456 245.208 265.192 244.616 266.088 244.616C266.872 244.616 267.528 245.112 267.528 245.944C267.528 247.064 266.488 247.576 265.64 248.04L265.24 247.624ZM268.136 252.472C267.416 253.304 266.68 254.04 265.512 254.04C264.328 254.04 263.304 253.128 263.304 251.912C263.304 250.696 264.344 250.024 265.304 249.496L268.136 252.472Z" fill="#333333"/>
<rect width="40" height="40" transform="translate(288 231)" fill="white"/>
<path d="M308.032 243.672H307.072V246.056L304.8 245.288L304.496 246.216L306.752 246.984L305.36 248.888L306.16 249.496L307.552 247.528L308.992 249.496L309.776 248.888L308.352 246.984L310.608 246.216L310.304 245.288L308.032 246.056V243.672Z" fill="#333333"/>
<rect width="40" height="40" transform="translate(329 231)" fill="white"/>
<path d="M350.58 256.888C349.204 254.728 348.532 252.968 348.532 250.392C348.532 248.056 349.22 245.8 350.58 243.928L349.716 243.288C348.244 245.288 347.38 247.768 347.38 250.392C347.38 252.84 348.196 255.4 349.716 257.496L350.58 256.888Z" fill="#333333"/>
<rect width="40" height="40" transform="translate(370 231)" fill="white"/>
<path d="M387.868 243.896C389.244 246.056 389.916 247.816 389.916 250.392C389.916 252.728 389.228 254.984 387.868 256.856L388.732 257.496C390.204 255.496 391.068 253.016 391.068 250.392C391.068 247.944 390.252 245.384 388.732 243.288L387.868 243.896Z" fill="#333333"/>
<rect width="40" height="40" transform="translate(411 231)" fill="white"/>
<path d="M431.588 243.288H428.948V257.496H431.588V256.536H430.1V244.248H431.588V243.288Z" fill="#333333"/>
<rect width="40" height="40" transform="translate(452 231)" fill="white"/>
<path d="M470.556 244.248H472.044V256.536H470.556V257.496H473.196V243.288H470.556V244.248Z" fill="#333333"/>
<rect width="40" height="40" transform="translate(493 231)" fill="white"/>
<path d="M514.864 255.688L515.872 255.288L511.056 243L510.048 243.384L514.864 255.688Z" fill="#333333"/>
<rect width="40" height="40" transform="translate(534 231)" fill="white"/>
<path d="M554.876 253.368H553.42L552.332 257.208H553.564L554.876 253.368ZM553.724 247.32C553.196 247.32 552.764 247.752 552.764 248.28C552.764 248.808 553.228 249.24 553.724 249.24C554.22 249.24 554.684 248.808 554.684 248.28C554.684 247.752 554.252 247.32 553.724 247.32Z" fill="#333333"/>
<rect width="40" height="40" transform="translate(575 231)" fill="white"/>
<path d="M593.46 247.512H594.916L595.988 243.672H594.772L593.46 247.512Z" fill="#333333"/>
<rect width="40" height="40" transform="translate(616 231)" fill="white"/>
<path d="M640.004 245.976L631.652 249.688V250.616L640.004 254.328V253.272L632.948 250.152L640.004 247.032V245.976Z" fill="#333333"/>
<rect width="40" height="40" transform="translate(657 231)" fill="white"/>
<path d="M672.652 254.328L681.004 250.616V249.688L672.652 245.976V247.032L679.708 250.152L672.652 253.272V254.328Z" fill="#333333"/>
<rect width="40" height="40" transform="translate(698 231)" fill="white"/>
<path d="M720.872 243.384L719.864 243L715.048 255.288L716.056 255.688L720.872 243.384Z" fill="#333333"/>
<rect x="0.5" y="230.5" width="738" height="41" stroke="#9EA6B5"/>
</svg>
