<svg width="337" height="108" viewBox="0 0 337 108" fill="none" xmlns="http://www.w3.org/2000/svg">
<path d="M21.3499 24H29.1419V22.176H23.3659V19.104H28.5659V17.28H23.3659V14.496H28.8539V12.672H21.3499V24ZM30.9872 24H32.9072V11.904H30.9872V24ZM42.5034 20.832V20.304C42.5034 17.632 41.0474 16.128 38.9034 16.128C36.5834 16.128 34.7274 17.744 34.7274 20.16C34.7274 22.576 36.5834 24.192 38.9034 24.192C40.1194 24.192 41.2554 23.76 42.1514 22.656L40.7754 21.616C40.2954 22.208 39.6714 22.656 38.7114 22.656C37.6394 22.656 36.7754 21.968 36.6474 20.832H42.5034ZM36.6474 19.392C36.7914 18.288 37.4954 17.568 38.6314 17.568C39.8314 17.568 40.5674 18.272 40.5834 19.392H36.6474ZM50.8749 17.296C50.1389 16.48 49.0669 16.128 48.0909 16.128C45.7709 16.128 43.9149 17.744 43.9149 20.16C43.9149 22.576 45.7709 24.192 48.0909 24.192C48.7629 24.192 50.0749 23.904 50.8589 23.12L49.5789 21.744C49.2269 22.208 48.6829 22.464 48.0909 22.464C46.6829 22.464 45.8349 21.36 45.8349 20.16C45.8349 18.96 46.6829 17.856 48.0909 17.856C48.6029 17.856 49.0989 18.16 49.5469 18.624L50.8749 17.296ZM52.7057 17.952V21.472C52.7057 23.28 53.1857 24.192 55.2177 24.192C55.6657 24.192 56.3377 24.128 56.7377 23.936V22.32C56.4977 22.496 56.0337 22.56 55.6977 22.56C54.8497 22.56 54.6257 22.08 54.6257 21.312V17.952H56.7377V16.32H54.6257V14.096H52.7057V16.32H51.1217V17.952H52.7057ZM58.2364 24H60.1564V19.888C60.1564 19.472 60.4124 17.952 62.2204 17.952C62.5244 17.952 62.8284 18.016 63.1484 18.096V16.24C62.9244 16.176 62.7004 16.128 62.4604 16.128C61.4524 16.128 60.6044 16.656 60.1884 17.536H60.1564V16.32H58.2364V24ZM64.4872 24H66.4072V16.32H64.4872V24ZM64.2152 13.712C64.2152 14.32 64.7272 14.864 65.4312 14.864C66.1352 14.864 66.6792 14.368 66.6792 13.712C66.6792 13.056 66.1352 12.56 65.4312 12.56C64.7272 12.56 64.2152 13.104 64.2152 13.712ZM75.1874 17.296C74.4514 16.48 73.3794 16.128 72.4034 16.128C70.0834 16.128 68.2274 17.744 68.2274 20.16C68.2274 22.576 70.0834 24.192 72.4034 24.192C73.0754 24.192 74.3874 23.904 75.1714 23.12L73.8914 21.744C73.5394 22.208 72.9954 22.464 72.4034 22.464C70.9954 22.464 70.1474 21.36 70.1474 20.16C70.1474 18.96 70.9954 17.856 72.4034 17.856C72.9154 17.856 73.4114 18.16 73.8594 18.624L75.1874 17.296ZM76.3622 24H78.2822V16.32H76.3622V24ZM76.0902 13.712C76.0902 14.32 76.6022 14.864 77.3062 14.864C78.0102 14.864 78.5542 14.368 78.5542 13.712C78.5542 13.056 78.0102 12.56 77.3062 12.56C76.6022 12.56 76.0902 13.104 76.0902 13.712ZM81.1744 17.952V21.472C81.1744 23.28 81.6544 24.192 83.6864 24.192C84.1344 24.192 84.8064 24.128 85.2064 23.936V22.32C84.9664 22.496 84.5024 22.56 84.1664 22.56C83.3184 22.56 83.0944 22.08 83.0944 21.312V17.952H85.2064V16.32H83.0944V14.096H81.1744V16.32H79.5904V17.952H81.1744ZM88.9452 24.064L88.5772 24.976C88.2572 25.776 88.0012 26.112 87.0572 26.112C86.7212 26.112 86.3852 26.032 86.0812 25.92L85.8412 27.648C86.3212 27.776 86.8172 27.84 87.3132 27.84C89.0092 27.84 89.6812 27.088 90.2412 25.648L93.8732 16.32H91.8732L89.9532 21.648H89.9212L87.7772 16.32H85.6652L88.9452 24.064Z" fill="#616C7F"/>
<path d="M113.782 24H115.638L118.262 15.376H118.294L120.918 24H122.838L126.134 12.672H124.086L121.862 20.832H121.83L119.334 12.672H117.35L114.806 20.832H114.774L112.646 12.672H110.438L113.782 24ZM127.261 24H129.181V16.32H127.261V24ZM126.989 13.712C126.989 14.32 127.501 14.864 128.205 14.864C128.909 14.864 129.453 14.368 129.453 13.712C129.453 13.056 128.909 12.56 128.205 12.56C127.501 12.56 126.989 13.104 126.989 13.712ZM131.385 24H133.305V19.808C133.305 18.784 133.801 17.856 135.065 17.856C136.409 17.856 136.473 19.264 136.473 20.112V24H138.393V19.152C138.393 17.584 137.657 16.128 135.593 16.128C134.313 16.128 133.593 16.784 133.241 17.552H133.209V16.32H131.385V24ZM146.652 24H148.476V11.904H146.556V17.296H146.508C146.108 16.8 145.34 16.128 143.9 16.128C141.708 16.128 140.188 17.888 140.188 20.16C140.188 22.432 141.612 24.192 143.98 24.192C145.052 24.192 146.06 23.776 146.62 22.848H146.652V24ZM142.108 20.16C142.108 18.96 142.956 17.856 144.364 17.856C145.772 17.856 146.62 18.96 146.62 20.16C146.62 21.36 145.772 22.464 144.364 22.464C142.956 22.464 142.108 21.36 142.108 20.16Z" fill="#6C3078"/>
<rect x="110" y="39" width="40" height="2" rx="1" fill="#6C3078"/>
<path d="M176.874 14.176C175.754 12.88 174.442 12.384 172.906 12.384C169.418 12.384 166.922 14.752 166.922 18.384C166.922 21.92 169.418 24.288 172.906 24.288C174.57 24.288 176.106 23.68 177.13 22.272L175.466 21.088C174.714 22.048 173.834 22.464 172.922 22.464C170.586 22.464 169.034 20.672 169.034 18.256C169.034 16 170.586 14.208 172.922 14.208C173.706 14.208 174.474 14.448 175.306 15.328L176.874 14.176ZM177.923 20.16C177.923 22.576 179.779 24.192 182.099 24.192C184.419 24.192 186.275 22.576 186.275 20.16C186.275 17.744 184.419 16.128 182.099 16.128C179.779 16.128 177.923 17.744 177.923 20.16ZM179.843 20.16C179.843 18.96 180.691 17.856 182.099 17.856C183.507 17.856 184.355 18.96 184.355 20.16C184.355 21.36 183.507 22.464 182.099 22.464C180.691 22.464 179.843 21.36 179.843 20.16ZM192.872 24H194.6V19.584C194.6 18.496 194.6 16.128 191.32 16.128C190.104 16.128 188.904 16.496 188.056 17.36L189.064 18.368C189.576 17.888 190.312 17.568 191.112 17.568C192.136 17.568 192.872 18.064 192.872 19.008V19.216H192.392C190.472 19.216 187.56 19.392 187.56 21.888C187.56 23.408 188.936 24.192 190.36 24.192C191.384 24.192 192.28 23.808 192.824 22.944H192.872V24ZM192.76 20.992C192.76 22.064 192.136 22.752 190.824 22.752C190.2 22.752 189.48 22.448 189.48 21.744C189.48 20.64 191.304 20.56 192.36 20.56H192.76V20.992ZM196.698 24H198.618V11.904H196.698V24Z" fill="#616C7F"/>
<path d="M200 40H20V42H200V40Z" fill="#D2D6DD" mask="url(#path-1-inside-1_44_11211)"/>
<path d="M27.884 82.12C27.164 81.184 26.036 80.788 24.884 80.788C22.364 80.788 20.564 82.756 20.564 85.252C20.564 87.832 22.448 89.716 24.884 89.716C26.24 89.716 27.344 89.248 28.1 88.228L27.344 87.592C26.744 88.36 25.916 88.78 24.884 88.78C22.976 88.78 21.644 87.22 21.644 85.252C21.644 83.392 22.988 81.724 24.884 81.724C25.7 81.724 26.504 82.072 27.008 82.756L27.884 82.12ZM33.4532 89.716C36.0332 89.716 37.8932 87.82 37.8932 85.252C37.8932 82.684 36.0332 80.788 33.4532 80.788C30.8732 80.788 29.0132 82.684 29.0132 85.252C29.0132 87.82 30.8732 89.716 33.4532 89.716ZM33.4532 88.78C31.4612 88.78 30.0932 87.208 30.0932 85.252C30.0932 83.296 31.4612 81.724 33.4532 81.724C35.4452 81.724 36.8132 83.296 36.8132 85.252C36.8132 87.208 35.4452 88.78 33.4532 88.78ZM39.513 89.5H40.521V82.372H40.545L43.593 89.5H44.205L47.253 82.372H47.277V89.5H48.285V81.004H46.821L43.917 87.664H43.893L41.013 81.004H39.513V89.5ZM50.3998 89.5H51.4078V85.684H53.1118C54.3118 85.684 55.8958 85.192 55.8958 83.332C55.8958 81.556 54.4798 81.004 52.9198 81.004H50.3998V89.5ZM51.4078 81.94H53.1118C54.1198 81.94 54.8158 82.396 54.8158 83.344C54.8158 84.292 54.1198 84.748 53.1118 84.748H51.4078V81.94ZM63.885 81.004H62.877V86.116C62.877 87.484 62.373 88.78 60.681 88.78C58.989 88.78 58.485 87.484 58.485 86.116V81.004H57.477V86.26C57.477 88.108 58.341 89.716 60.681 89.716C63.021 89.716 63.885 88.108 63.885 86.26V81.004ZM71.6623 81.004H65.0383V81.94H67.8463V89.5H68.8543V81.94H71.6623V81.004ZM72.8529 89.5H78.4089V88.564H73.8609V85.54H77.9049V84.604H73.8609V81.94H78.1929V81.004H72.8529V89.5ZM79.9662 89.5H80.9742V85.684H82.2702L84.5742 89.5H85.8102L83.3982 85.588C84.7182 85.384 85.5222 84.58 85.5222 83.344C85.5222 81.244 83.7822 81.004 82.1382 81.004H79.9662V89.5ZM80.9742 81.94H82.3902C83.3742 81.94 84.4422 82.12 84.4422 83.344C84.4422 84.748 82.9902 84.748 81.8742 84.748H80.9742V81.94Z" fill="#9EA6B5"/>
<circle cx="107" cy="86.5" r="4" fill="#D2D6DD"/>
<path d="M128.056 89.5H129.064V82.444H129.088L134.008 89.5H135.28V81.004H134.272V88.06H134.248L129.328 81.004H128.056V89.5ZM141.344 89.716C143.924 89.716 145.784 87.82 145.784 85.252C145.784 82.684 143.924 80.788 141.344 80.788C138.764 80.788 136.904 82.684 136.904 85.252C136.904 87.82 138.764 89.716 141.344 89.716ZM141.344 88.78C139.352 88.78 137.984 87.208 137.984 85.252C137.984 83.296 139.352 81.724 141.344 81.724C143.336 81.724 144.704 83.296 144.704 85.252C144.704 87.208 143.336 88.78 141.344 88.78ZM153.104 81.004H146.48V81.94H149.288V89.5H150.296V81.94H153.104V81.004ZM154.294 89.5H159.85V88.564H155.302V85.54H159.346V84.604H155.302V81.94H159.634V81.004H154.294V89.5ZM161.408 89.5H163.94C165.512 89.5 167.252 88.996 167.252 87.124C167.252 86.008 166.424 85.132 165.332 85.036V85.012C166.244 84.736 166.82 84.076 166.82 83.092C166.82 81.532 165.404 81.004 164 81.004H161.408V89.5ZM162.416 81.94H163.916C164.828 81.94 165.74 82.18 165.74 83.224C165.74 84.4 164.756 84.604 163.808 84.604H162.416V81.94ZM162.416 85.54H164.144C165.164 85.54 166.172 85.9 166.172 87.088C166.172 88.168 165.104 88.564 164.12 88.564H162.416V85.54ZM172.914 89.716C175.494 89.716 177.354 87.82 177.354 85.252C177.354 82.684 175.494 80.788 172.914 80.788C170.334 80.788 168.474 82.684 168.474 85.252C168.474 87.82 170.334 89.716 172.914 89.716ZM172.914 88.78C170.922 88.78 169.554 87.208 169.554 85.252C169.554 83.296 170.922 81.724 172.914 81.724C174.906 81.724 176.274 83.296 176.274 85.252C176.274 87.208 174.906 88.78 172.914 88.78ZM182.922 89.716C185.502 89.716 187.362 87.82 187.362 85.252C187.362 82.684 185.502 80.788 182.922 80.788C180.342 80.788 178.482 82.684 178.482 85.252C178.482 87.82 180.342 89.716 182.922 89.716ZM182.922 88.78C180.93 88.78 179.562 87.208 179.562 85.252C179.562 83.296 180.93 81.724 182.922 81.724C184.914 81.724 186.282 83.296 186.282 85.252C186.282 87.208 184.914 88.78 182.922 88.78ZM188.982 89.5H189.99V85.18H190.134L194.178 89.5H195.654L191.25 84.88L195.45 81.004H193.998L190.134 84.676H189.99V81.004H188.982V89.5Z" fill="#9EA6B5"/>
<circle cx="216" cy="86.5" r="4" fill="#D2D6DD"/>
<path d="M236.072 89.5H237.212L238.088 87.412H242.336L243.2 89.5H244.376L240.764 81.004H239.816L236.072 89.5ZM241.952 86.476H238.484L240.248 82.3H240.272L241.952 86.476ZM252.333 82.12C251.613 81.184 250.485 80.788 249.333 80.788C246.813 80.788 245.013 82.756 245.013 85.252C245.013 87.832 246.897 89.716 249.333 89.716C250.689 89.716 251.793 89.248 252.549 88.228L251.793 87.592C251.193 88.36 250.365 88.78 249.333 88.78C247.425 88.78 246.093 87.22 246.093 85.252C246.093 83.392 247.437 81.724 249.333 81.724C250.149 81.724 250.953 82.072 251.457 82.756L252.333 82.12ZM260.782 82.12C260.062 81.184 258.934 80.788 257.782 80.788C255.262 80.788 253.462 82.756 253.462 85.252C253.462 87.832 255.346 89.716 257.782 89.716C259.138 89.716 260.242 89.248 260.998 88.228L260.242 87.592C259.642 88.36 258.814 88.78 257.782 88.78C255.874 88.78 254.542 87.22 254.542 85.252C254.542 83.392 255.886 81.724 257.782 81.724C258.598 81.724 259.402 82.072 259.906 82.756L260.782 82.12ZM262.404 89.5H267.96V88.564H263.412V85.54H267.456V84.604H263.412V81.94H267.744V81.004H262.404V89.5ZM274.377 81.784C273.753 81.052 272.949 80.788 272.001 80.788C270.513 80.788 269.109 81.604 269.109 83.236C269.109 84.652 270.021 85.18 271.221 85.576C272.733 86.08 273.441 86.26 273.441 87.304C273.441 88.276 272.457 88.78 271.593 88.78C270.861 88.78 270.141 88.456 269.781 87.832L268.917 88.54C269.493 89.392 270.549 89.716 271.533 89.716C273.069 89.716 274.521 88.924 274.521 87.232C274.521 85.564 273.297 85.132 271.977 84.712C270.621 84.28 270.189 83.932 270.189 83.152C270.189 82.144 271.113 81.724 272.001 81.724C272.613 81.724 273.213 81.964 273.549 82.504L274.377 81.784ZM281.045 81.784C280.421 81.052 279.617 80.788 278.669 80.788C277.181 80.788 275.777 81.604 275.777 83.236C275.777 84.652 276.689 85.18 277.889 85.576C279.401 86.08 280.109 86.26 280.109 87.304C280.109 88.276 279.125 88.78 278.261 88.78C277.529 88.78 276.809 88.456 276.449 87.832L275.585 88.54C276.161 89.392 277.217 89.716 278.201 89.716C279.737 89.716 281.189 88.924 281.189 87.232C281.189 85.564 279.965 85.132 278.645 84.712C277.289 84.28 276.857 83.932 276.857 83.152C276.857 82.144 277.781 81.724 278.669 81.724C279.281 81.724 279.881 81.964 280.217 82.504L281.045 81.784ZM286.801 89.716C289.381 89.716 291.241 87.82 291.241 85.252C291.241 82.684 289.381 80.788 286.801 80.788C284.221 80.788 282.361 82.684 282.361 85.252C282.361 87.82 284.221 89.716 286.801 89.716ZM286.801 88.78C284.809 88.78 283.441 87.208 283.441 85.252C283.441 83.296 284.809 81.724 286.801 81.724C288.793 81.724 290.161 83.296 290.161 85.252C290.161 87.208 288.793 88.78 286.801 88.78ZM292.861 89.5H293.869V85.684H295.165L297.469 89.5H298.705L296.293 85.588C297.613 85.384 298.417 84.58 298.417 83.344C298.417 81.244 296.677 81.004 295.033 81.004H292.861V89.5ZM293.869 81.94H295.285C296.269 81.94 297.337 82.12 297.337 83.344C297.337 84.748 295.885 84.748 294.769 84.748H293.869V81.94ZM300.197 89.5H301.205V81.004H300.197V89.5ZM303.314 89.5H308.87V88.564H304.322V85.54H308.366V84.604H304.322V81.94H308.654V81.004H303.314V89.5ZM315.287 81.784C314.663 81.052 313.859 80.788 312.911 80.788C311.423 80.788 310.019 81.604 310.019 83.236C310.019 84.652 310.931 85.18 312.131 85.576C313.643 86.08 314.351 86.26 314.351 87.304C314.351 88.276 313.367 88.78 312.503 88.78C311.771 88.78 311.051 88.456 310.691 87.832L309.827 88.54C310.403 89.392 311.459 89.716 312.443 89.716C313.979 89.716 315.431 88.924 315.431 87.232C315.431 85.564 314.207 85.132 312.887 84.712C311.531 84.28 311.099 83.932 311.099 83.152C311.099 82.144 312.023 81.724 312.911 81.724C313.523 81.724 314.123 81.964 314.459 82.504L315.287 81.784Z" fill="#9EA6B5"/>
</svg>
