<svg width="212" height="18" viewBox="0 0 212 18" fill="none" xmlns="http://www.w3.org/2000/svg">
<path d="M1.056 12H5.952V11.064H2.064V3.504H1.056V12ZM7.056 12H12.612V11.064H8.064V8.04H12.108V7.104H8.064V4.44H12.396V3.504H7.056V12ZM16.2573 12H17.2293L20.5533 3.504H19.4853L16.7853 10.488H16.7613L14.1453 3.504H13.0053L16.2573 12ZM21.5052 12H27.0612V11.064H22.5132V8.04H26.5572V7.104H22.5132V4.44H26.8452V3.504H21.5052V12ZM28.6185 12H33.5145V11.064H29.6265V3.504H28.6185V12ZM41.2223 3.504H40.3463L38.0663 5.352L38.6663 6.084L40.1903 4.8H40.2143V12H41.2223V3.504Z" fill="#9EA6B5"/>
<circle cx="64" cy="9" r="4" fill="#D2D6DD"/>
<path d="M85.056 12H89.952V11.064H86.064V3.504H85.056V12ZM91.056 12H96.612V11.064H92.064V8.04H96.108V7.104H92.064V4.44H96.396V3.504H91.056V12ZM100.257 12H101.229L104.553 3.504H103.485L100.785 10.488H100.761L98.1453 3.504H97.0053L100.257 12ZM105.505 12H111.061V11.064H106.513V8.04H110.557V7.104H106.513V4.44H110.845V3.504H105.505V12ZM112.619 12H117.515V11.064H113.627V3.504H112.619V12ZM121.502 12H126.974V11.064H122.642V11.04L125.258 8.58C126.11 7.776 126.914 7.02 126.914 5.664C126.914 4.152 125.726 3.36 124.322 3.36C122.954 3.36 121.886 4.092 121.658 5.484L122.75 5.58C122.906 4.764 123.506 4.224 124.358 4.224C125.21 4.224 125.906 4.776 125.906 5.664C125.906 6.492 125.51 6.948 124.706 7.728L121.502 10.848V12Z" fill="#9EA6B5"/>
<circle cx="148" cy="9" r="4" fill="#D2D6DD"/>
<path d="M169.056 12H173.952V11.064H170.064V3.504H169.056V12ZM175.056 12H180.612V11.064H176.064V8.04H180.108V7.104H176.064V4.44H180.396V3.504H175.056V12ZM184.257 12H185.229L188.553 3.504H187.485L184.785 10.488H184.761L182.145 3.504H181.005L184.257 12ZM189.505 12H195.061V11.064H190.513V8.04H194.557V7.104H190.513V4.44H194.845V3.504H189.505V12ZM196.619 12H201.515V11.064H197.627V3.504H196.619V12ZM207.35 7.968H207.662C208.706 7.968 209.81 8.364 209.81 9.612C209.81 10.596 209.042 11.28 208.082 11.28C207.146 11.28 206.654 10.932 206.366 10.02L205.346 10.356C205.778 11.616 206.798 12.144 208.082 12.144C209.594 12.144 210.89 11.304 210.89 9.684C210.89 8.616 210.23 7.728 209.15 7.548V7.524C210.002 7.26 210.602 6.468 210.602 5.58C210.602 4.116 209.426 3.36 208.07 3.36C206.99 3.36 206.018 3.84 205.61 4.8L206.582 5.172C206.882 4.548 207.434 4.224 208.142 4.224C208.994 4.224 209.594 4.764 209.594 5.628C209.594 6.912 208.502 7.104 207.662 7.104H207.35V7.968Z" fill="#9EA6B5"/>
</svg>
