<svg width="800" height="279" viewBox="0 0 800 279" fill="none" xmlns="http://www.w3.org/2000/svg">
<path d="M7.252 2.858C6.482 2.13 5.446 1.836 4.41 1.836C2.576 1.836 0.756 2.788 0.756 4.832C0.756 8.374 5.46 7.128 5.46 9.298C5.46 10.208 4.536 10.656 3.724 10.656C2.94 10.656 2.198 10.278 1.764 9.62L0.434 10.908C1.246 11.874 2.45 12.252 3.682 12.252C5.628 12.252 7.308 11.216 7.308 9.088C7.308 5.56 2.604 6.694 2.604 4.706C2.604 3.796 3.416 3.432 4.228 3.432C4.914 3.432 5.586 3.684 5.964 4.216L7.252 2.858ZM9.01906 12H10.6991V5.28H9.01906V12ZM8.78106 2.998C8.78106 3.53 9.22906 4.006 9.84506 4.006C10.4611 4.006 10.9371 3.572 10.9371 2.998C10.9371 2.424 10.4611 1.99 9.84506 1.99C9.22906 1.99 8.78106 2.466 8.78106 2.998ZM12.1518 12H17.9478V10.656H14.1398L17.7798 6.806V5.28H12.3198V6.624H15.7498V6.652L12.1518 10.446V12ZM25.8497 9.228V8.766C25.8497 6.428 24.5757 5.112 22.6997 5.112C20.6697 5.112 19.0457 6.526 19.0457 8.64C19.0457 10.754 20.6697 12.168 22.6997 12.168C23.7637 12.168 24.7577 11.79 25.5417 10.824L24.3377 9.914C23.9177 10.432 23.3717 10.824 22.5317 10.824C21.5937 10.824 20.8377 10.222 20.7257 9.228H25.8497ZM20.7257 7.968C20.8517 7.002 21.4677 6.372 22.4617 6.372C23.5117 6.372 24.1557 6.988 24.1697 7.968H20.7257ZM27.4208 11.02C27.4208 11.622 27.9528 12.084 28.5408 12.084C29.1568 12.084 29.6608 11.594 29.6608 10.992C29.6608 10.39 29.1428 9.928 28.5408 9.928C27.9248 9.928 27.4208 10.418 27.4208 11.02ZM27.4208 6.274C27.4208 6.876 27.9528 7.338 28.5408 7.338C29.1568 7.338 29.6608 6.848 29.6608 6.246C29.6608 5.644 29.1428 5.182 28.5408 5.182C27.9248 5.182 27.4208 5.672 27.4208 6.274ZM42.0059 2.858C41.2359 2.13 40.1999 1.836 39.1639 1.836C37.3299 1.836 35.5099 2.788 35.5099 4.832C35.5099 8.374 40.2139 7.128 40.2139 9.298C40.2139 10.208 39.2899 10.656 38.4779 10.656C37.6939 10.656 36.9519 10.278 36.5179 9.62L35.1879 10.908C35.9999 11.874 37.2039 12.252 38.4359 12.252C40.3819 12.252 42.0619 11.216 42.0619 9.088C42.0619 5.56 37.3579 6.694 37.3579 4.706C37.3579 3.796 38.1699 3.432 38.9819 3.432C39.6679 3.432 40.3399 3.684 40.7179 4.216L42.0059 2.858ZM43.941 12H45.621V3.768H45.649L48.659 12H49.891L52.901 3.768H52.929V12H54.609V2.088H51.949L49.275 9.032L46.629 2.088H43.941V12Z" fill="black"/>
<g opacity="0.5">
<rect width="38" height="1" transform="translate(0 44.5)" fill="#9EA6B5"/>
</g>
<path opacity="0.8" d="M51.1504 40.088H50.1284L47.4684 42.244L48.1684 43.098L49.9464 41.6H49.9744V50H51.1504V40.088Z" fill="#9EA6B5"/>
<rect x="38.5" y="33.5" width="23" height="23" rx="11.5" stroke="#D2D6DD"/>
<path opacity="0.8" d="M41.2943 70.712C40.4623 69.736 39.3903 69.384 38.1263 69.384C36.1423 69.384 34.2703 70.472 34.2703 72.648C34.2703 74.536 35.4863 75.24 37.0863 75.768C39.1023 76.44 40.0463 76.68 40.0463 78.072C40.0463 79.368 38.7343 80.04 37.5823 80.04C36.6063 80.04 35.6463 79.608 35.1663 78.776L34.0143 79.72C34.7823 80.856 36.1903 81.288 37.5023 81.288C39.5503 81.288 41.4862 80.232 41.4862 77.976C41.4862 75.752 39.8543 75.176 38.0943 74.616C36.2863 74.04 35.7103 73.576 35.7103 72.536C35.7103 71.192 36.9423 70.632 38.1263 70.632C38.9423 70.632 39.7423 70.952 40.1903 71.672L41.2943 70.712ZM47.5769 73.512H45.3689V71.384H44.1209V73.512H42.4889V74.568H44.1209V78.68C44.1209 80.232 44.4089 81.192 46.1849 81.192C46.6489 81.192 47.2089 81.112 47.6409 80.92L47.5929 79.784C47.2569 79.96 46.8569 80.04 46.4889 80.04C45.3849 80.04 45.3689 79.272 45.3689 78.312V74.568H47.5769V73.512ZM54.8499 78.904C54.2579 79.656 53.5379 80.04 52.4659 80.04C51.1059 80.04 50.1139 78.936 50.0179 77.64H56.0659V77.24C56.0659 74.76 54.6259 73.32 52.5139 73.32C50.3059 73.32 48.6739 74.936 48.6739 77.256C48.6739 79.432 50.1139 81.192 52.4659 81.192C53.8579 81.192 54.9139 80.776 55.7939 79.64L54.8499 78.904ZM50.0179 76.584C50.1779 75.32 51.0899 74.472 52.4659 74.472C53.8419 74.472 54.6739 75.32 54.7219 76.584H50.0179ZM57.9325 84.648H59.1805V79.672H59.2125C59.6765 80.52 60.7485 81.192 62.0925 81.192C64.1885 81.192 65.8365 79.496 65.8365 77.256C65.8365 74.984 64.2525 73.32 61.9005 73.32C60.8125 73.32 59.9005 73.8 59.2125 74.6H59.1805V73.512H57.9325V84.648ZM59.1805 77.256C59.1805 75.688 60.2205 74.472 61.8365 74.472C63.4525 74.472 64.4925 75.688 64.4925 77.256C64.4925 78.824 63.4525 80.04 61.8365 80.04C60.2205 80.04 59.1805 78.824 59.1805 77.256Z" fill="#9EA6B5"/>
<g opacity="0.5">
<rect width="38" height="1" transform="translate(62 44.5)" fill="#9EA6B5"/>
</g>
<g opacity="0.5">
<rect width="38" height="1" transform="translate(100 44.5)" fill="#9EA6B5"/>
</g>
<rect x="138" y="33" width="24" height="24" rx="12" fill="#D2D6DD"/>
<path d="M146.81 50H153.194V48.908H148.14V48.88L151.192 46.01C152.186 45.072 153.124 44.19 153.124 42.608C153.124 40.844 151.738 39.92 150.1 39.92C148.504 39.92 147.258 40.774 146.992 42.398L148.266 42.51C148.448 41.558 149.148 40.928 150.142 40.928C151.136 40.928 151.948 41.572 151.948 42.608C151.948 43.574 151.486 44.106 150.548 45.016L146.81 48.656V50Z" fill="black"/>
<path d="M141.294 70.712C140.462 69.736 139.39 69.384 138.126 69.384C136.142 69.384 134.27 70.472 134.27 72.648C134.27 74.536 135.486 75.24 137.086 75.768C139.102 76.44 140.046 76.68 140.046 78.072C140.046 79.368 138.734 80.04 137.582 80.04C136.606 80.04 135.646 79.608 135.166 78.776L134.014 79.72C134.782 80.856 136.19 81.288 137.502 81.288C139.55 81.288 141.486 80.232 141.486 77.976C141.486 75.752 139.854 75.176 138.094 74.616C136.286 74.04 135.71 73.576 135.71 72.536C135.71 71.192 136.942 70.632 138.126 70.632C138.942 70.632 139.742 70.952 140.19 71.672L141.294 70.712ZM147.577 73.512H145.369V71.384H144.121V73.512H142.489V74.568H144.121V78.68C144.121 80.232 144.409 81.192 146.185 81.192C146.649 81.192 147.209 81.112 147.641 80.92L147.593 79.784C147.257 79.96 146.857 80.04 146.489 80.04C145.385 80.04 145.369 79.272 145.369 78.312V74.568H147.577V73.512ZM154.85 78.904C154.258 79.656 153.538 80.04 152.466 80.04C151.106 80.04 150.114 78.936 150.018 77.64H156.066V77.24C156.066 74.76 154.626 73.32 152.514 73.32C150.306 73.32 148.674 74.936 148.674 77.256C148.674 79.432 150.114 81.192 152.466 81.192C153.858 81.192 154.914 80.776 155.794 79.64L154.85 78.904ZM150.018 76.584C150.178 75.32 151.09 74.472 152.466 74.472C153.842 74.472 154.674 75.32 154.722 76.584H150.018ZM157.933 84.648H159.181V79.672H159.213C159.677 80.52 160.749 81.192 162.093 81.192C164.189 81.192 165.837 79.496 165.837 77.256C165.837 74.984 164.253 73.32 161.901 73.32C160.812 73.32 159.901 73.8 159.213 74.6H159.181V73.512H157.933V84.648ZM159.181 77.256C159.181 75.688 160.221 74.472 161.837 74.472C163.453 74.472 164.493 75.688 164.493 77.256C164.493 78.824 163.453 80.04 161.837 80.04C160.221 80.04 159.181 78.824 159.181 77.256Z" fill="black"/>
<g opacity="0.5">
<rect width="38" height="1" transform="translate(162 44.5)" fill="#9EA6B5"/>
</g>
<g opacity="0.5">
<rect width="38" height="1" transform="translate(200 44.5)" fill="#9EA6B5"/>
</g>
<path opacity="0.8" d="M248.966 45.296H249.33C250.548 45.296 251.836 45.758 251.836 47.214C251.836 48.362 250.94 49.16 249.82 49.16C248.728 49.16 248.154 48.754 247.818 47.69L246.628 48.082C247.132 49.552 248.322 50.168 249.82 50.168C251.584 50.168 253.096 49.188 253.096 47.298C253.096 46.052 252.326 45.016 251.066 44.806V44.778C252.06 44.47 252.76 43.546 252.76 42.51C252.76 40.802 251.388 39.92 249.806 39.92C248.546 39.92 247.412 40.48 246.936 41.6L248.07 42.034C248.42 41.306 249.064 40.928 249.89 40.928C250.884 40.928 251.584 41.558 251.584 42.566C251.584 44.064 250.31 44.288 249.33 44.288H248.966V45.296Z" fill="#9EA6B5"/>
<rect x="238.5" y="33.5" width="23" height="23" rx="11.5" stroke="#D2D6DD"/>
<path opacity="0.8" d="M241.294 70.712C240.462 69.736 239.39 69.384 238.126 69.384C236.142 69.384 234.27 70.472 234.27 72.648C234.27 74.536 235.486 75.24 237.086 75.768C239.102 76.44 240.046 76.68 240.046 78.072C240.046 79.368 238.734 80.04 237.582 80.04C236.606 80.04 235.646 79.608 235.166 78.776L234.014 79.72C234.782 80.856 236.19 81.288 237.502 81.288C239.55 81.288 241.486 80.232 241.486 77.976C241.486 75.752 239.854 75.176 238.094 74.616C236.286 74.04 235.71 73.576 235.71 72.536C235.71 71.192 236.942 70.632 238.126 70.632C238.942 70.632 239.742 70.952 240.19 71.672L241.294 70.712ZM247.577 73.512H245.369V71.384H244.121V73.512H242.489V74.568H244.121V78.68C244.121 80.232 244.409 81.192 246.185 81.192C246.649 81.192 247.209 81.112 247.641 80.92L247.593 79.784C247.257 79.96 246.857 80.04 246.489 80.04C245.385 80.04 245.369 79.272 245.369 78.312V74.568H247.577V73.512ZM254.85 78.904C254.258 79.656 253.538 80.04 252.466 80.04C251.106 80.04 250.114 78.936 250.018 77.64H256.066V77.24C256.066 74.76 254.626 73.32 252.514 73.32C250.306 73.32 248.674 74.936 248.674 77.256C248.674 79.432 250.114 81.192 252.466 81.192C253.858 81.192 254.914 80.776 255.794 79.64L254.85 78.904ZM250.018 76.584C250.178 75.32 251.09 74.472 252.466 74.472C253.842 74.472 254.674 75.32 254.722 76.584H250.018ZM257.933 84.648H259.181V79.672H259.213C259.677 80.52 260.749 81.192 262.093 81.192C264.189 81.192 265.837 79.496 265.837 77.256C265.837 74.984 264.253 73.32 261.901 73.32C260.812 73.32 259.901 73.8 259.213 74.6H259.181V73.512H257.933V84.648ZM259.181 77.256C259.181 75.688 260.221 74.472 261.837 74.472C263.453 74.472 264.493 75.688 264.493 77.256C264.493 78.824 263.453 80.04 261.837 80.04C260.221 80.04 259.181 78.824 259.181 77.256Z" fill="#9EA6B5"/>
<g opacity="0.5">
<rect width="38" height="1" transform="translate(262 44.5)" fill="#9EA6B5"/>
</g>
<g opacity="0.5">
<rect width="38" height="1" transform="translate(300 44.5)" fill="#9EA6B5"/>
</g>
<path opacity="0.8" d="M351.976 40.088H350.534L346.6 46.43V47.732H350.8V50H351.976V47.732H353.404V46.64H351.976V40.088ZM350.8 46.64H347.608L350.772 41.46H350.8V46.64Z" fill="#9EA6B5"/>
<rect x="338.5" y="33.5" width="23" height="23" rx="11.5" stroke="#D2D6DD"/>
<path opacity="0.8" d="M341.294 70.712C340.462 69.736 339.39 69.384 338.126 69.384C336.142 69.384 334.27 70.472 334.27 72.648C334.27 74.536 335.486 75.24 337.086 75.768C339.102 76.44 340.046 76.68 340.046 78.072C340.046 79.368 338.734 80.04 337.582 80.04C336.606 80.04 335.646 79.608 335.166 78.776L334.014 79.72C334.782 80.856 336.19 81.288 337.502 81.288C339.55 81.288 341.486 80.232 341.486 77.976C341.486 75.752 339.854 75.176 338.094 74.616C336.286 74.04 335.71 73.576 335.71 72.536C335.71 71.192 336.942 70.632 338.126 70.632C338.942 70.632 339.742 70.952 340.19 71.672L341.294 70.712ZM347.577 73.512H345.369V71.384H344.121V73.512H342.489V74.568H344.121V78.68C344.121 80.232 344.409 81.192 346.185 81.192C346.649 81.192 347.209 81.112 347.641 80.92L347.593 79.784C347.257 79.96 346.857 80.04 346.489 80.04C345.385 80.04 345.369 79.272 345.369 78.312V74.568H347.577V73.512ZM354.85 78.904C354.258 79.656 353.538 80.04 352.466 80.04C351.106 80.04 350.114 78.936 350.018 77.64H356.066V77.24C356.066 74.76 354.626 73.32 352.514 73.32C350.306 73.32 348.674 74.936 348.674 77.256C348.674 79.432 350.114 81.192 352.466 81.192C353.858 81.192 354.914 80.776 355.794 79.64L354.85 78.904ZM350.018 76.584C350.178 75.32 351.09 74.472 352.466 74.472C353.842 74.472 354.674 75.32 354.722 76.584H350.018ZM357.933 84.648H359.181V79.672H359.213C359.677 80.52 360.749 81.192 362.093 81.192C364.189 81.192 365.837 79.496 365.837 77.256C365.837 74.984 364.253 73.32 361.901 73.32C360.812 73.32 359.901 73.8 359.213 74.6H359.181V73.512H357.933V84.648ZM359.181 77.256C359.181 75.688 360.221 74.472 361.837 74.472C363.453 74.472 364.493 75.688 364.493 77.256C364.493 78.824 363.453 80.04 361.837 80.04C360.221 80.04 359.181 78.824 359.181 77.256Z" fill="#9EA6B5"/>
<g opacity="0.5">
<rect width="38" height="1" transform="translate(362 44.5)" fill="#9EA6B5"/>
</g>
<path d="M7.252 99.858C6.482 99.13 5.446 98.836 4.41 98.836C2.576 98.836 0.756 99.788 0.756 101.832C0.756 105.374 5.46 104.128 5.46 106.298C5.46 107.208 4.536 107.656 3.724 107.656C2.94 107.656 2.198 107.278 1.764 106.62L0.434 107.908C1.246 108.874 2.45 109.252 3.682 109.252C5.628 109.252 7.308 108.216 7.308 106.088C7.308 102.56 2.604 103.694 2.604 101.706C2.604 100.796 3.416 100.432 4.228 100.432C4.914 100.432 5.586 100.684 5.964 101.216L7.252 99.858ZM9.01906 109H10.6991V102.28H9.01906V109ZM8.78106 99.998C8.78106 100.53 9.22906 101.006 9.84506 101.006C10.4611 101.006 10.9371 100.572 10.9371 99.998C10.9371 99.424 10.4611 98.99 9.84506 98.99C9.22906 98.99 8.78106 99.466 8.78106 99.998ZM12.1518 109H17.9478V107.656H14.1398L17.7798 103.806V102.28H12.3198V103.624H15.7498V103.652L12.1518 107.446V109ZM25.8497 106.228V105.766C25.8497 103.428 24.5757 102.112 22.6997 102.112C20.6697 102.112 19.0457 103.526 19.0457 105.64C19.0457 107.754 20.6697 109.168 22.6997 109.168C23.7637 109.168 24.7577 108.79 25.5417 107.824L24.3377 106.914C23.9177 107.432 23.3717 107.824 22.5317 107.824C21.5937 107.824 20.8377 107.222 20.7257 106.228H25.8497ZM20.7257 104.968C20.8517 104.002 21.4677 103.372 22.4617 103.372C23.5117 103.372 24.1557 103.988 24.1697 104.968H20.7257ZM27.4208 108.02C27.4208 108.622 27.9528 109.084 28.5408 109.084C29.1568 109.084 29.6608 108.594 29.6608 107.992C29.6608 107.39 29.1428 106.928 28.5408 106.928C27.9248 106.928 27.4208 107.418 27.4208 108.02ZM27.4208 103.274C27.4208 103.876 27.9528 104.338 28.5408 104.338C29.1568 104.338 29.6608 103.848 29.6608 103.246C29.6608 102.644 29.1428 102.182 28.5408 102.182C27.9248 102.182 27.4208 102.672 27.4208 103.274ZM35.9019 109H37.5819V100.768H37.6099L40.6199 109H41.8519L44.8619 100.768H44.8899V109H46.5699V99.088H43.9099L41.2359 106.032L38.5899 99.088H35.9019V109ZM48.8208 109H52.5168C54.8968 109 57.7668 107.432 57.7668 104.044C57.7668 100.684 55.3308 99.088 52.7268 99.088H48.8208V109ZM50.5848 107.404V100.684H52.1948C54.3508 100.684 55.9188 101.636 55.9188 104.044C55.9188 106.452 54.1128 107.404 51.9008 107.404H50.5848Z" fill="black"/>
<g opacity="0.5">
<rect width="38" height="1" transform="translate(0 141.5)" fill="#9EA6B5"/>
</g>
<path opacity="0.8" d="M51.1504 137.088H50.1284L47.4684 139.244L48.1684 140.098L49.9464 138.6H49.9744V147H51.1504V137.088Z" fill="#9EA6B5"/>
<rect x="38.5" y="130.5" width="23" height="23" rx="11.5" stroke="#D2D6DD"/>
<path opacity="0.8" d="M41.2943 167.712C40.4623 166.736 39.3903 166.384 38.1263 166.384C36.1423 166.384 34.2703 167.472 34.2703 169.648C34.2703 171.536 35.4863 172.24 37.0863 172.768C39.1023 173.44 40.0463 173.68 40.0463 175.072C40.0463 176.368 38.7343 177.04 37.5823 177.04C36.6063 177.04 35.6463 176.608 35.1663 175.776L34.0143 176.72C34.7823 177.856 36.1903 178.288 37.5023 178.288C39.5503 178.288 41.4862 177.232 41.4862 174.976C41.4862 172.752 39.8543 172.176 38.0943 171.616C36.2863 171.04 35.7103 170.576 35.7103 169.536C35.7103 168.192 36.9423 167.632 38.1263 167.632C38.9423 167.632 39.7423 167.952 40.1903 168.672L41.2943 167.712ZM47.5769 170.512H45.3689V168.384H44.1209V170.512H42.4889V171.568H44.1209V175.68C44.1209 177.232 44.4089 178.192 46.1849 178.192C46.6489 178.192 47.2089 178.112 47.6409 177.92L47.5929 176.784C47.2569 176.96 46.8569 177.04 46.4889 177.04C45.3849 177.04 45.3689 176.272 45.3689 175.312V171.568H47.5769V170.512ZM54.8499 175.904C54.2579 176.656 53.5379 177.04 52.4659 177.04C51.1059 177.04 50.1139 175.936 50.0179 174.64H56.0659V174.24C56.0659 171.76 54.6259 170.32 52.5139 170.32C50.3059 170.32 48.6739 171.936 48.6739 174.256C48.6739 176.432 50.1139 178.192 52.4659 178.192C53.8579 178.192 54.9139 177.776 55.7939 176.64L54.8499 175.904ZM50.0179 173.584C50.1779 172.32 51.0899 171.472 52.4659 171.472C53.8419 171.472 54.6739 172.32 54.7219 173.584H50.0179ZM57.9325 181.648H59.1805V176.672H59.2125C59.6765 177.52 60.7485 178.192 62.0925 178.192C64.1885 178.192 65.8365 176.496 65.8365 174.256C65.8365 171.984 64.2525 170.32 61.9005 170.32C60.8125 170.32 59.9005 170.8 59.2125 171.6H59.1805V170.512H57.9325V181.648ZM59.1805 174.256C59.1805 172.688 60.2205 171.472 61.8365 171.472C63.4525 171.472 64.4925 172.688 64.4925 174.256C64.4925 175.824 63.4525 177.04 61.8365 177.04C60.2205 177.04 59.1805 175.824 59.1805 174.256Z" fill="#9EA6B5"/>
<g opacity="0.5">
<rect width="38" height="1" transform="translate(62 141.5)" fill="#9EA6B5"/>
</g>
<g opacity="0.5">
<rect width="38" height="1" transform="translate(100 141.5)" fill="#9EA6B5"/>
</g>
<rect x="138" y="130" width="24" height="24" rx="12" fill="#D2D6DD"/>
<path d="M146.81 147H153.194V145.908H148.14V145.88L151.192 143.01C152.186 142.072 153.124 141.19 153.124 139.608C153.124 137.844 151.738 136.92 150.1 136.92C148.504 136.92 147.258 137.774 146.992 139.398L148.266 139.51C148.448 138.558 149.148 137.928 150.142 137.928C151.136 137.928 151.948 138.572 151.948 139.608C151.948 140.574 151.486 141.106 150.548 142.016L146.81 145.656V147Z" fill="black"/>
<path d="M141.294 167.712C140.462 166.736 139.39 166.384 138.126 166.384C136.142 166.384 134.27 167.472 134.27 169.648C134.27 171.536 135.486 172.24 137.086 172.768C139.102 173.44 140.046 173.68 140.046 175.072C140.046 176.368 138.734 177.04 137.582 177.04C136.606 177.04 135.646 176.608 135.166 175.776L134.014 176.72C134.782 177.856 136.19 178.288 137.502 178.288C139.55 178.288 141.486 177.232 141.486 174.976C141.486 172.752 139.854 172.176 138.094 171.616C136.286 171.04 135.71 170.576 135.71 169.536C135.71 168.192 136.942 167.632 138.126 167.632C138.942 167.632 139.742 167.952 140.19 168.672L141.294 167.712ZM147.577 170.512H145.369V168.384H144.121V170.512H142.489V171.568H144.121V175.68C144.121 177.232 144.409 178.192 146.185 178.192C146.649 178.192 147.209 178.112 147.641 177.92L147.593 176.784C147.257 176.96 146.857 177.04 146.489 177.04C145.385 177.04 145.369 176.272 145.369 175.312V171.568H147.577V170.512ZM154.85 175.904C154.258 176.656 153.538 177.04 152.466 177.04C151.106 177.04 150.114 175.936 150.018 174.64H156.066V174.24C156.066 171.76 154.626 170.32 152.514 170.32C150.306 170.32 148.674 171.936 148.674 174.256C148.674 176.432 150.114 178.192 152.466 178.192C153.858 178.192 154.914 177.776 155.794 176.64L154.85 175.904ZM150.018 173.584C150.178 172.32 151.09 171.472 152.466 171.472C153.842 171.472 154.674 172.32 154.722 173.584H150.018ZM157.933 181.648H159.181V176.672H159.213C159.677 177.52 160.749 178.192 162.093 178.192C164.189 178.192 165.837 176.496 165.837 174.256C165.837 171.984 164.253 170.32 161.901 170.32C160.812 170.32 159.901 170.8 159.213 171.6H159.181V170.512H157.933V181.648ZM159.181 174.256C159.181 172.688 160.221 171.472 161.837 171.472C163.453 171.472 164.493 172.688 164.493 174.256C164.493 175.824 163.453 177.04 161.837 177.04C160.221 177.04 159.181 175.824 159.181 174.256Z" fill="black"/>
<g opacity="0.5">
<rect width="38" height="1" transform="translate(162 141.5)" fill="#9EA6B5"/>
</g>
<g opacity="0.5">
<rect width="38" height="1" transform="translate(200 141.5)" fill="#9EA6B5"/>
</g>
<path opacity="0.8" d="M248.966 142.296H249.33C250.548 142.296 251.836 142.758 251.836 144.214C251.836 145.362 250.94 146.16 249.82 146.16C248.728 146.16 248.154 145.754 247.818 144.69L246.628 145.082C247.132 146.552 248.322 147.168 249.82 147.168C251.584 147.168 253.096 146.188 253.096 144.298C253.096 143.052 252.326 142.016 251.066 141.806V141.778C252.06 141.47 252.76 140.546 252.76 139.51C252.76 137.802 251.388 136.92 249.806 136.92C248.546 136.92 247.412 137.48 246.936 138.6L248.07 139.034C248.42 138.306 249.064 137.928 249.89 137.928C250.884 137.928 251.584 138.558 251.584 139.566C251.584 141.064 250.31 141.288 249.33 141.288H248.966V142.296Z" fill="#9EA6B5"/>
<rect x="238.5" y="130.5" width="23" height="23" rx="11.5" stroke="#D2D6DD"/>
<path opacity="0.8" d="M241.294 167.712C240.462 166.736 239.39 166.384 238.126 166.384C236.142 166.384 234.27 167.472 234.27 169.648C234.27 171.536 235.486 172.24 237.086 172.768C239.102 173.44 240.046 173.68 240.046 175.072C240.046 176.368 238.734 177.04 237.582 177.04C236.606 177.04 235.646 176.608 235.166 175.776L234.014 176.72C234.782 177.856 236.19 178.288 237.502 178.288C239.55 178.288 241.486 177.232 241.486 174.976C241.486 172.752 239.854 172.176 238.094 171.616C236.286 171.04 235.71 170.576 235.71 169.536C235.71 168.192 236.942 167.632 238.126 167.632C238.942 167.632 239.742 167.952 240.19 168.672L241.294 167.712ZM247.577 170.512H245.369V168.384H244.121V170.512H242.489V171.568H244.121V175.68C244.121 177.232 244.409 178.192 246.185 178.192C246.649 178.192 247.209 178.112 247.641 177.92L247.593 176.784C247.257 176.96 246.857 177.04 246.489 177.04C245.385 177.04 245.369 176.272 245.369 175.312V171.568H247.577V170.512ZM254.85 175.904C254.258 176.656 253.538 177.04 252.466 177.04C251.106 177.04 250.114 175.936 250.018 174.64H256.066V174.24C256.066 171.76 254.626 170.32 252.514 170.32C250.306 170.32 248.674 171.936 248.674 174.256C248.674 176.432 250.114 178.192 252.466 178.192C253.858 178.192 254.914 177.776 255.794 176.64L254.85 175.904ZM250.018 173.584C250.178 172.32 251.09 171.472 252.466 171.472C253.842 171.472 254.674 172.32 254.722 173.584H250.018ZM257.933 181.648H259.181V176.672H259.213C259.677 177.52 260.749 178.192 262.093 178.192C264.189 178.192 265.837 176.496 265.837 174.256C265.837 171.984 264.253 170.32 261.901 170.32C260.812 170.32 259.901 170.8 259.213 171.6H259.181V170.512H257.933V181.648ZM259.181 174.256C259.181 172.688 260.221 171.472 261.837 171.472C263.453 171.472 264.493 172.688 264.493 174.256C264.493 175.824 263.453 177.04 261.837 177.04C260.221 177.04 259.181 175.824 259.181 174.256Z" fill="#9EA6B5"/>
<g opacity="0.5">
<rect width="38" height="1" transform="translate(262 141.5)" fill="#9EA6B5"/>
</g>
<g opacity="0.5">
<rect width="38" height="1" transform="translate(300 141.5)" fill="#9EA6B5"/>
</g>
<path opacity="0.8" d="M351.976 137.088H350.534L346.6 143.43V144.732H350.8V147H351.976V144.732H353.404V143.64H351.976V137.088ZM350.8 143.64H347.608L350.772 138.46H350.8V143.64Z" fill="#9EA6B5"/>
<rect x="338.5" y="130.5" width="23" height="23" rx="11.5" stroke="#D2D6DD"/>
<path opacity="0.8" d="M341.294 167.712C340.462 166.736 339.39 166.384 338.126 166.384C336.142 166.384 334.27 167.472 334.27 169.648C334.27 171.536 335.486 172.24 337.086 172.768C339.102 173.44 340.046 173.68 340.046 175.072C340.046 176.368 338.734 177.04 337.582 177.04C336.606 177.04 335.646 176.608 335.166 175.776L334.014 176.72C334.782 177.856 336.19 178.288 337.502 178.288C339.55 178.288 341.486 177.232 341.486 174.976C341.486 172.752 339.854 172.176 338.094 171.616C336.286 171.04 335.71 170.576 335.71 169.536C335.71 168.192 336.942 167.632 338.126 167.632C338.942 167.632 339.742 167.952 340.19 168.672L341.294 167.712ZM347.577 170.512H345.369V168.384H344.121V170.512H342.489V171.568H344.121V175.68C344.121 177.232 344.409 178.192 346.185 178.192C346.649 178.192 347.209 178.112 347.641 177.92L347.593 176.784C347.257 176.96 346.857 177.04 346.489 177.04C345.385 177.04 345.369 176.272 345.369 175.312V171.568H347.577V170.512ZM354.85 175.904C354.258 176.656 353.538 177.04 352.466 177.04C351.106 177.04 350.114 175.936 350.018 174.64H356.066V174.24C356.066 171.76 354.626 170.32 352.514 170.32C350.306 170.32 348.674 171.936 348.674 174.256C348.674 176.432 350.114 178.192 352.466 178.192C353.858 178.192 354.914 177.776 355.794 176.64L354.85 175.904ZM350.018 173.584C350.178 172.32 351.09 171.472 352.466 171.472C353.842 171.472 354.674 172.32 354.722 173.584H350.018ZM357.933 181.648H359.181V176.672H359.213C359.677 177.52 360.749 178.192 362.093 178.192C364.189 178.192 365.837 176.496 365.837 174.256C365.837 171.984 364.253 170.32 361.901 170.32C360.812 170.32 359.901 170.8 359.213 171.6H359.181V170.512H357.933V181.648ZM359.181 174.256C359.181 172.688 360.221 171.472 361.837 171.472C363.453 171.472 364.493 172.688 364.493 174.256C364.493 175.824 363.453 177.04 361.837 177.04C360.221 177.04 359.181 175.824 359.181 174.256Z" fill="#9EA6B5"/>
<g opacity="0.5">
<rect width="38" height="1" transform="translate(362 141.5)" fill="#9EA6B5"/>
</g>
<g opacity="0.5">
<rect width="38" height="1" transform="translate(400 141.5)" fill="#9EA6B5"/>
</g>
<path opacity="0.8" d="M452.746 137.088H447.552L447.454 142.24C448.042 141.89 448.798 141.624 449.47 141.624C450.856 141.624 451.92 142.422 451.92 143.878C451.92 145.25 450.982 146.16 449.792 146.16C448.952 146.16 448.28 145.656 447.944 144.914L446.768 145.362C447.3 146.454 448.196 147.168 449.694 147.168C451.626 147.168 453.096 145.852 453.096 143.878C453.096 142.016 451.836 140.616 449.932 140.616C449.526 140.616 449.036 140.672 448.658 140.854L448.7 138.18H452.746V137.088Z" fill="#9EA6B5"/>
<rect x="438.5" y="130.5" width="23" height="23" rx="11.5" stroke="#D2D6DD"/>
<path opacity="0.8" d="M441.294 167.712C440.462 166.736 439.39 166.384 438.126 166.384C436.142 166.384 434.27 167.472 434.27 169.648C434.27 171.536 435.486 172.24 437.086 172.768C439.102 173.44 440.046 173.68 440.046 175.072C440.046 176.368 438.734 177.04 437.582 177.04C436.606 177.04 435.646 176.608 435.166 175.776L434.014 176.72C434.782 177.856 436.19 178.288 437.502 178.288C439.55 178.288 441.486 177.232 441.486 174.976C441.486 172.752 439.854 172.176 438.094 171.616C436.286 171.04 435.71 170.576 435.71 169.536C435.71 168.192 436.942 167.632 438.126 167.632C438.942 167.632 439.742 167.952 440.19 168.672L441.294 167.712ZM447.577 170.512H445.369V168.384H444.121V170.512H442.489V171.568H444.121V175.68C444.121 177.232 444.409 178.192 446.185 178.192C446.649 178.192 447.209 178.112 447.641 177.92L447.593 176.784C447.257 176.96 446.857 177.04 446.489 177.04C445.385 177.04 445.369 176.272 445.369 175.312V171.568H447.577V170.512ZM454.85 175.904C454.258 176.656 453.538 177.04 452.466 177.04C451.106 177.04 450.114 175.936 450.018 174.64H456.066V174.24C456.066 171.76 454.626 170.32 452.514 170.32C450.306 170.32 448.674 171.936 448.674 174.256C448.674 176.432 450.114 178.192 452.466 178.192C453.858 178.192 454.914 177.776 455.794 176.64L454.85 175.904ZM450.018 173.584C450.178 172.32 451.09 171.472 452.466 171.472C453.842 171.472 454.674 172.32 454.722 173.584H450.018ZM457.933 181.648H459.181V176.672H459.213C459.677 177.52 460.749 178.192 462.093 178.192C464.189 178.192 465.837 176.496 465.837 174.256C465.837 171.984 464.253 170.32 461.901 170.32C460.812 170.32 459.901 170.8 459.213 171.6H459.181V170.512H457.933V181.648ZM459.181 174.256C459.181 172.688 460.221 171.472 461.837 171.472C463.453 171.472 464.493 172.688 464.493 174.256C464.493 175.824 463.453 177.04 461.837 177.04C460.221 177.04 459.181 175.824 459.181 174.256Z" fill="#9EA6B5"/>
<g opacity="0.5">
<rect width="38" height="1" transform="translate(462 141.5)" fill="#9EA6B5"/>
</g>
<g opacity="0.5">
<rect width="38" height="1" transform="translate(500 141.5)" fill="#9EA6B5"/>
</g>
<path opacity="0.8" d="M551.626 137.088H550.254L547.622 141.274C547.09 142.128 546.684 142.912 546.684 144.06C546.684 145.992 548.126 147.168 550.002 147.168C551.878 147.168 553.32 145.992 553.32 144.06C553.32 142.212 552.046 140.952 550.324 140.952C549.918 140.952 549.358 141.036 548.994 141.246L548.966 141.218L551.626 137.088ZM550.002 141.96C551.192 141.96 552.144 142.772 552.144 144.06C552.144 145.348 551.192 146.16 550.002 146.16C548.812 146.16 547.86 145.348 547.86 144.06C547.86 142.772 548.812 141.96 550.002 141.96Z" fill="#9EA6B5"/>
<rect x="538.5" y="130.5" width="23" height="23" rx="11.5" stroke="#D2D6DD"/>
<path opacity="0.8" d="M541.294 167.712C540.462 166.736 539.39 166.384 538.126 166.384C536.142 166.384 534.27 167.472 534.27 169.648C534.27 171.536 535.486 172.24 537.086 172.768C539.102 173.44 540.046 173.68 540.046 175.072C540.046 176.368 538.734 177.04 537.582 177.04C536.606 177.04 535.646 176.608 535.166 175.776L534.014 176.72C534.782 177.856 536.19 178.288 537.502 178.288C539.55 178.288 541.486 177.232 541.486 174.976C541.486 172.752 539.854 172.176 538.094 171.616C536.286 171.04 535.71 170.576 535.71 169.536C535.71 168.192 536.942 167.632 538.126 167.632C538.942 167.632 539.742 167.952 540.19 168.672L541.294 167.712ZM547.577 170.512H545.369V168.384H544.121V170.512H542.489V171.568H544.121V175.68C544.121 177.232 544.409 178.192 546.185 178.192C546.649 178.192 547.209 178.112 547.641 177.92L547.593 176.784C547.257 176.96 546.857 177.04 546.489 177.04C545.385 177.04 545.369 176.272 545.369 175.312V171.568H547.577V170.512ZM554.85 175.904C554.258 176.656 553.538 177.04 552.466 177.04C551.106 177.04 550.114 175.936 550.018 174.64H556.066V174.24C556.066 171.76 554.626 170.32 552.514 170.32C550.306 170.32 548.674 171.936 548.674 174.256C548.674 176.432 550.114 178.192 552.466 178.192C553.858 178.192 554.914 177.776 555.794 176.64L554.85 175.904ZM550.018 173.584C550.178 172.32 551.09 171.472 552.466 171.472C553.842 171.472 554.674 172.32 554.722 173.584H550.018ZM557.933 181.648H559.181V176.672H559.213C559.677 177.52 560.749 178.192 562.093 178.192C564.189 178.192 565.837 176.496 565.837 174.256C565.837 171.984 564.253 170.32 561.901 170.32C560.812 170.32 559.901 170.8 559.213 171.6H559.181V170.512H557.933V181.648ZM559.181 174.256C559.181 172.688 560.221 171.472 561.837 171.472C563.453 171.472 564.493 172.688 564.493 174.256C564.493 175.824 563.453 177.04 561.837 177.04C560.221 177.04 559.181 175.824 559.181 174.256Z" fill="#9EA6B5"/>
<g opacity="0.5">
<rect width="38" height="1" transform="translate(562 141.5)" fill="#9EA6B5"/>
</g>
<path d="M7.252 196.858C6.482 196.13 5.446 195.836 4.41 195.836C2.576 195.836 0.756 196.788 0.756 198.832C0.756 202.374 5.46 201.128 5.46 203.298C5.46 204.208 4.536 204.656 3.724 204.656C2.94 204.656 2.198 204.278 1.764 203.62L0.434 204.908C1.246 205.874 2.45 206.252 3.682 206.252C5.628 206.252 7.308 205.216 7.308 203.088C7.308 199.56 2.604 200.694 2.604 198.706C2.604 197.796 3.416 197.432 4.228 197.432C4.914 197.432 5.586 197.684 5.964 198.216L7.252 196.858ZM9.01906 206H10.6991V199.28H9.01906V206ZM8.78106 196.998C8.78106 197.53 9.22906 198.006 9.84506 198.006C10.4611 198.006 10.9371 197.572 10.9371 196.998C10.9371 196.424 10.4611 195.99 9.84506 195.99C9.22906 195.99 8.78106 196.466 8.78106 196.998ZM12.1518 206H17.9478V204.656H14.1398L17.7798 200.806V199.28H12.3198V200.624H15.7498V200.652L12.1518 204.446V206ZM25.8497 203.228V202.766C25.8497 200.428 24.5757 199.112 22.6997 199.112C20.6697 199.112 19.0457 200.526 19.0457 202.64C19.0457 204.754 20.6697 206.168 22.6997 206.168C23.7637 206.168 24.7577 205.79 25.5417 204.824L24.3377 203.914C23.9177 204.432 23.3717 204.824 22.5317 204.824C21.5937 204.824 20.8377 204.222 20.7257 203.228H25.8497ZM20.7257 201.968C20.8517 201.002 21.4677 200.372 22.4617 200.372C23.5117 200.372 24.1557 200.988 24.1697 201.968H20.7257ZM27.4208 205.02C27.4208 205.622 27.9528 206.084 28.5408 206.084C29.1568 206.084 29.6608 205.594 29.6608 204.992C29.6608 204.39 29.1428 203.928 28.5408 203.928C27.9248 203.928 27.4208 204.418 27.4208 205.02ZM27.4208 200.274C27.4208 200.876 27.9528 201.338 28.5408 201.338C29.1568 201.338 29.6608 200.848 29.6608 200.246C29.6608 199.644 29.1428 199.182 28.5408 199.182C27.9248 199.182 27.4208 199.672 27.4208 200.274ZM35.8599 206H41.8379V204.404H37.6239V196.088H35.8599V206ZM51.9257 200.204H48.1317V201.8H50.1617V204.138C49.5457 204.488 48.7337 204.656 47.8377 204.656C45.7937 204.656 44.4357 203.088 44.4357 200.974C44.4357 199 45.7937 197.432 47.8377 197.432C48.8317 197.432 49.7977 197.782 50.4277 198.398L51.7297 197.082C50.6937 196.158 49.3357 195.836 47.8237 195.836C44.7717 195.836 42.5877 197.908 42.5877 201.086C42.5877 204.18 44.7717 206.252 47.8237 206.252C49.3497 206.252 50.7217 205.916 51.9257 205.272V200.204Z" fill="black"/>
<g opacity="0.5">
<rect width="38" height="1" transform="translate(0 238.5)" fill="#9EA6B5"/>
</g>
<path opacity="0.8" d="M51.1504 234.088H50.1284L47.4684 236.244L48.1684 237.098L49.9464 235.6H49.9744V244H51.1504V234.088Z" fill="#9EA6B5"/>
<rect x="38.5" y="227.5" width="23" height="23" rx="11.5" stroke="#D2D6DD"/>
<path opacity="0.8" d="M41.2943 264.712C40.4623 263.736 39.3903 263.384 38.1263 263.384C36.1423 263.384 34.2703 264.472 34.2703 266.648C34.2703 268.536 35.4863 269.24 37.0863 269.768C39.1023 270.44 40.0463 270.68 40.0463 272.072C40.0463 273.368 38.7343 274.04 37.5823 274.04C36.6063 274.04 35.6463 273.608 35.1663 272.776L34.0143 273.72C34.7823 274.856 36.1903 275.288 37.5023 275.288C39.5503 275.288 41.4862 274.232 41.4862 271.976C41.4862 269.752 39.8543 269.176 38.0943 268.616C36.2863 268.04 35.7103 267.576 35.7103 266.536C35.7103 265.192 36.9423 264.632 38.1263 264.632C38.9423 264.632 39.7423 264.952 40.1903 265.672L41.2943 264.712ZM47.5769 267.512H45.3689V265.384H44.1209V267.512H42.4889V268.568H44.1209V272.68C44.1209 274.232 44.4089 275.192 46.1849 275.192C46.6489 275.192 47.2089 275.112 47.6409 274.92L47.5929 273.784C47.2569 273.96 46.8569 274.04 46.4889 274.04C45.3849 274.04 45.3689 273.272 45.3689 272.312V268.568H47.5769V267.512ZM54.8499 272.904C54.2579 273.656 53.5379 274.04 52.4659 274.04C51.1059 274.04 50.1139 272.936 50.0179 271.64H56.0659V271.24C56.0659 268.76 54.6259 267.32 52.5139 267.32C50.3059 267.32 48.6739 268.936 48.6739 271.256C48.6739 273.432 50.1139 275.192 52.4659 275.192C53.8579 275.192 54.9139 274.776 55.7939 273.64L54.8499 272.904ZM50.0179 270.584C50.1779 269.32 51.0899 268.472 52.4659 268.472C53.8419 268.472 54.6739 269.32 54.7219 270.584H50.0179ZM57.9325 278.648H59.1805V273.672H59.2125C59.6765 274.52 60.7485 275.192 62.0925 275.192C64.1885 275.192 65.8365 273.496 65.8365 271.256C65.8365 268.984 64.2525 267.32 61.9005 267.32C60.8125 267.32 59.9005 267.8 59.2125 268.6H59.1805V267.512H57.9325V278.648ZM59.1805 271.256C59.1805 269.688 60.2205 268.472 61.8365 268.472C63.4525 268.472 64.4925 269.688 64.4925 271.256C64.4925 272.824 63.4525 274.04 61.8365 274.04C60.2205 274.04 59.1805 272.824 59.1805 271.256Z" fill="#9EA6B5"/>
<g opacity="0.5">
<rect width="38" height="1" transform="translate(62 238.5)" fill="#9EA6B5"/>
</g>
<g opacity="0.5">
<rect width="38" height="1" transform="translate(100 238.5)" fill="#9EA6B5"/>
</g>
<rect x="138" y="227" width="24" height="24" rx="12" fill="#D2D6DD"/>
<path d="M146.81 244H153.194V242.908H148.14V242.88L151.192 240.01C152.186 239.072 153.124 238.19 153.124 236.608C153.124 234.844 151.738 233.92 150.1 233.92C148.504 233.92 147.258 234.774 146.992 236.398L148.266 236.51C148.448 235.558 149.148 234.928 150.142 234.928C151.136 234.928 151.948 235.572 151.948 236.608C151.948 237.574 151.486 238.106 150.548 239.016L146.81 242.656V244Z" fill="black"/>
<path d="M141.294 264.712C140.462 263.736 139.39 263.384 138.126 263.384C136.142 263.384 134.27 264.472 134.27 266.648C134.27 268.536 135.486 269.24 137.086 269.768C139.102 270.44 140.046 270.68 140.046 272.072C140.046 273.368 138.734 274.04 137.582 274.04C136.606 274.04 135.646 273.608 135.166 272.776L134.014 273.72C134.782 274.856 136.19 275.288 137.502 275.288C139.55 275.288 141.486 274.232 141.486 271.976C141.486 269.752 139.854 269.176 138.094 268.616C136.286 268.04 135.71 267.576 135.71 266.536C135.71 265.192 136.942 264.632 138.126 264.632C138.942 264.632 139.742 264.952 140.19 265.672L141.294 264.712ZM147.577 267.512H145.369V265.384H144.121V267.512H142.489V268.568H144.121V272.68C144.121 274.232 144.409 275.192 146.185 275.192C146.649 275.192 147.209 275.112 147.641 274.92L147.593 273.784C147.257 273.96 146.857 274.04 146.489 274.04C145.385 274.04 145.369 273.272 145.369 272.312V268.568H147.577V267.512ZM154.85 272.904C154.258 273.656 153.538 274.04 152.466 274.04C151.106 274.04 150.114 272.936 150.018 271.64H156.066V271.24C156.066 268.76 154.626 267.32 152.514 267.32C150.306 267.32 148.674 268.936 148.674 271.256C148.674 273.432 150.114 275.192 152.466 275.192C153.858 275.192 154.914 274.776 155.794 273.64L154.85 272.904ZM150.018 270.584C150.178 269.32 151.09 268.472 152.466 268.472C153.842 268.472 154.674 269.32 154.722 270.584H150.018ZM157.933 278.648H159.181V273.672H159.213C159.677 274.52 160.749 275.192 162.093 275.192C164.189 275.192 165.837 273.496 165.837 271.256C165.837 268.984 164.253 267.32 161.901 267.32C160.812 267.32 159.901 267.8 159.213 268.6H159.181V267.512H157.933V278.648ZM159.181 271.256C159.181 269.688 160.221 268.472 161.837 268.472C163.453 268.472 164.493 269.688 164.493 271.256C164.493 272.824 163.453 274.04 161.837 274.04C160.221 274.04 159.181 272.824 159.181 271.256Z" fill="black"/>
<g opacity="0.5">
<rect width="38" height="1" transform="translate(162 238.5)" fill="#9EA6B5"/>
</g>
<g opacity="0.5">
<rect width="38" height="1" transform="translate(200 238.5)" fill="#9EA6B5"/>
</g>
<path opacity="0.8" d="M248.966 239.296H249.33C250.548 239.296 251.836 239.758 251.836 241.214C251.836 242.362 250.94 243.16 249.82 243.16C248.728 243.16 248.154 242.754 247.818 241.69L246.628 242.082C247.132 243.552 248.322 244.168 249.82 244.168C251.584 244.168 253.096 243.188 253.096 241.298C253.096 240.052 252.326 239.016 251.066 238.806V238.778C252.06 238.47 252.76 237.546 252.76 236.51C252.76 234.802 251.388 233.92 249.806 233.92C248.546 233.92 247.412 234.48 246.936 235.6L248.07 236.034C248.42 235.306 249.064 234.928 249.89 234.928C250.884 234.928 251.584 235.558 251.584 236.566C251.584 238.064 250.31 238.288 249.33 238.288H248.966V239.296Z" fill="#9EA6B5"/>
<rect x="238.5" y="227.5" width="23" height="23" rx="11.5" stroke="#D2D6DD"/>
<path opacity="0.8" d="M241.294 264.712C240.462 263.736 239.39 263.384 238.126 263.384C236.142 263.384 234.27 264.472 234.27 266.648C234.27 268.536 235.486 269.24 237.086 269.768C239.102 270.44 240.046 270.68 240.046 272.072C240.046 273.368 238.734 274.04 237.582 274.04C236.606 274.04 235.646 273.608 235.166 272.776L234.014 273.72C234.782 274.856 236.19 275.288 237.502 275.288C239.55 275.288 241.486 274.232 241.486 271.976C241.486 269.752 239.854 269.176 238.094 268.616C236.286 268.04 235.71 267.576 235.71 266.536C235.71 265.192 236.942 264.632 238.126 264.632C238.942 264.632 239.742 264.952 240.19 265.672L241.294 264.712ZM247.577 267.512H245.369V265.384H244.121V267.512H242.489V268.568H244.121V272.68C244.121 274.232 244.409 275.192 246.185 275.192C246.649 275.192 247.209 275.112 247.641 274.92L247.593 273.784C247.257 273.96 246.857 274.04 246.489 274.04C245.385 274.04 245.369 273.272 245.369 272.312V268.568H247.577V267.512ZM254.85 272.904C254.258 273.656 253.538 274.04 252.466 274.04C251.106 274.04 250.114 272.936 250.018 271.64H256.066V271.24C256.066 268.76 254.626 267.32 252.514 267.32C250.306 267.32 248.674 268.936 248.674 271.256C248.674 273.432 250.114 275.192 252.466 275.192C253.858 275.192 254.914 274.776 255.794 273.64L254.85 272.904ZM250.018 270.584C250.178 269.32 251.09 268.472 252.466 268.472C253.842 268.472 254.674 269.32 254.722 270.584H250.018ZM257.933 278.648H259.181V273.672H259.213C259.677 274.52 260.749 275.192 262.093 275.192C264.189 275.192 265.837 273.496 265.837 271.256C265.837 268.984 264.253 267.32 261.901 267.32C260.812 267.32 259.901 267.8 259.213 268.6H259.181V267.512H257.933V278.648ZM259.181 271.256C259.181 269.688 260.221 268.472 261.837 268.472C263.453 268.472 264.493 269.688 264.493 271.256C264.493 272.824 263.453 274.04 261.837 274.04C260.221 274.04 259.181 272.824 259.181 271.256Z" fill="#9EA6B5"/>
<g opacity="0.5">
<rect width="38" height="1" transform="translate(262 238.5)" fill="#9EA6B5"/>
</g>
<g opacity="0.5">
<rect width="38" height="1" transform="translate(300 238.5)" fill="#9EA6B5"/>
</g>
<path opacity="0.8" d="M351.976 234.088H350.534L346.6 240.43V241.732H350.8V244H351.976V241.732H353.404V240.64H351.976V234.088ZM350.8 240.64H347.608L350.772 235.46H350.8V240.64Z" fill="#9EA6B5"/>
<rect x="338.5" y="227.5" width="23" height="23" rx="11.5" stroke="#D2D6DD"/>
<path opacity="0.8" d="M341.294 264.712C340.462 263.736 339.39 263.384 338.126 263.384C336.142 263.384 334.27 264.472 334.27 266.648C334.27 268.536 335.486 269.24 337.086 269.768C339.102 270.44 340.046 270.68 340.046 272.072C340.046 273.368 338.734 274.04 337.582 274.04C336.606 274.04 335.646 273.608 335.166 272.776L334.014 273.72C334.782 274.856 336.19 275.288 337.502 275.288C339.55 275.288 341.486 274.232 341.486 271.976C341.486 269.752 339.854 269.176 338.094 268.616C336.286 268.04 335.71 267.576 335.71 266.536C335.71 265.192 336.942 264.632 338.126 264.632C338.942 264.632 339.742 264.952 340.19 265.672L341.294 264.712ZM347.577 267.512H345.369V265.384H344.121V267.512H342.489V268.568H344.121V272.68C344.121 274.232 344.409 275.192 346.185 275.192C346.649 275.192 347.209 275.112 347.641 274.92L347.593 273.784C347.257 273.96 346.857 274.04 346.489 274.04C345.385 274.04 345.369 273.272 345.369 272.312V268.568H347.577V267.512ZM354.85 272.904C354.258 273.656 353.538 274.04 352.466 274.04C351.106 274.04 350.114 272.936 350.018 271.64H356.066V271.24C356.066 268.76 354.626 267.32 352.514 267.32C350.306 267.32 348.674 268.936 348.674 271.256C348.674 273.432 350.114 275.192 352.466 275.192C353.858 275.192 354.914 274.776 355.794 273.64L354.85 272.904ZM350.018 270.584C350.178 269.32 351.09 268.472 352.466 268.472C353.842 268.472 354.674 269.32 354.722 270.584H350.018ZM357.933 278.648H359.181V273.672H359.213C359.677 274.52 360.749 275.192 362.093 275.192C364.189 275.192 365.837 273.496 365.837 271.256C365.837 268.984 364.253 267.32 361.901 267.32C360.812 267.32 359.901 267.8 359.213 268.6H359.181V267.512H357.933V278.648ZM359.181 271.256C359.181 269.688 360.221 268.472 361.837 268.472C363.453 268.472 364.493 269.688 364.493 271.256C364.493 272.824 363.453 274.04 361.837 274.04C360.221 274.04 359.181 272.824 359.181 271.256Z" fill="#9EA6B5"/>
<g opacity="0.5">
<rect width="38" height="1" transform="translate(362 238.5)" fill="#9EA6B5"/>
</g>
<g opacity="0.5">
<rect width="38" height="1" transform="translate(400 238.5)" fill="#9EA6B5"/>
</g>
<path opacity="0.8" d="M452.746 234.088H447.552L447.454 239.24C448.042 238.89 448.798 238.624 449.47 238.624C450.856 238.624 451.92 239.422 451.92 240.878C451.92 242.25 450.982 243.16 449.792 243.16C448.952 243.16 448.28 242.656 447.944 241.914L446.768 242.362C447.3 243.454 448.196 244.168 449.694 244.168C451.626 244.168 453.096 242.852 453.096 240.878C453.096 239.016 451.836 237.616 449.932 237.616C449.526 237.616 449.036 237.672 448.658 237.854L448.7 235.18H452.746V234.088Z" fill="#9EA6B5"/>
<rect x="438.5" y="227.5" width="23" height="23" rx="11.5" stroke="#D2D6DD"/>
<path opacity="0.8" d="M441.294 264.712C440.462 263.736 439.39 263.384 438.126 263.384C436.142 263.384 434.27 264.472 434.27 266.648C434.27 268.536 435.486 269.24 437.086 269.768C439.102 270.44 440.046 270.68 440.046 272.072C440.046 273.368 438.734 274.04 437.582 274.04C436.606 274.04 435.646 273.608 435.166 272.776L434.014 273.72C434.782 274.856 436.19 275.288 437.502 275.288C439.55 275.288 441.486 274.232 441.486 271.976C441.486 269.752 439.854 269.176 438.094 268.616C436.286 268.04 435.71 267.576 435.71 266.536C435.71 265.192 436.942 264.632 438.126 264.632C438.942 264.632 439.742 264.952 440.19 265.672L441.294 264.712ZM447.577 267.512H445.369V265.384H444.121V267.512H442.489V268.568H444.121V272.68C444.121 274.232 444.409 275.192 446.185 275.192C446.649 275.192 447.209 275.112 447.641 274.92L447.593 273.784C447.257 273.96 446.857 274.04 446.489 274.04C445.385 274.04 445.369 273.272 445.369 272.312V268.568H447.577V267.512ZM454.85 272.904C454.258 273.656 453.538 274.04 452.466 274.04C451.106 274.04 450.114 272.936 450.018 271.64H456.066V271.24C456.066 268.76 454.626 267.32 452.514 267.32C450.306 267.32 448.674 268.936 448.674 271.256C448.674 273.432 450.114 275.192 452.466 275.192C453.858 275.192 454.914 274.776 455.794 273.64L454.85 272.904ZM450.018 270.584C450.178 269.32 451.09 268.472 452.466 268.472C453.842 268.472 454.674 269.32 454.722 270.584H450.018ZM457.933 278.648H459.181V273.672H459.213C459.677 274.52 460.749 275.192 462.093 275.192C464.189 275.192 465.837 273.496 465.837 271.256C465.837 268.984 464.253 267.32 461.901 267.32C460.812 267.32 459.901 267.8 459.213 268.6H459.181V267.512H457.933V278.648ZM459.181 271.256C459.181 269.688 460.221 268.472 461.837 268.472C463.453 268.472 464.493 269.688 464.493 271.256C464.493 272.824 463.453 274.04 461.837 274.04C460.221 274.04 459.181 272.824 459.181 271.256Z" fill="#9EA6B5"/>
<g opacity="0.5">
<rect width="38" height="1" transform="translate(462 238.5)" fill="#9EA6B5"/>
</g>
<g opacity="0.5">
<rect width="38" height="1" transform="translate(500 238.5)" fill="#9EA6B5"/>
</g>
<path opacity="0.8" d="M551.626 234.088H550.254L547.622 238.274C547.09 239.128 546.684 239.912 546.684 241.06C546.684 242.992 548.126 244.168 550.002 244.168C551.878 244.168 553.32 242.992 553.32 241.06C553.32 239.212 552.046 237.952 550.324 237.952C549.918 237.952 549.358 238.036 548.994 238.246L548.966 238.218L551.626 234.088ZM550.002 238.96C551.192 238.96 552.144 239.772 552.144 241.06C552.144 242.348 551.192 243.16 550.002 243.16C548.812 243.16 547.86 242.348 547.86 241.06C547.86 239.772 548.812 238.96 550.002 238.96Z" fill="#9EA6B5"/>
<rect x="538.5" y="227.5" width="23" height="23" rx="11.5" stroke="#D2D6DD"/>
<path opacity="0.8" d="M541.294 264.712C540.462 263.736 539.39 263.384 538.126 263.384C536.142 263.384 534.27 264.472 534.27 266.648C534.27 268.536 535.486 269.24 537.086 269.768C539.102 270.44 540.046 270.68 540.046 272.072C540.046 273.368 538.734 274.04 537.582 274.04C536.606 274.04 535.646 273.608 535.166 272.776L534.014 273.72C534.782 274.856 536.19 275.288 537.502 275.288C539.55 275.288 541.486 274.232 541.486 271.976C541.486 269.752 539.854 269.176 538.094 268.616C536.286 268.04 535.71 267.576 535.71 266.536C535.71 265.192 536.942 264.632 538.126 264.632C538.942 264.632 539.742 264.952 540.19 265.672L541.294 264.712ZM547.577 267.512H545.369V265.384H544.121V267.512H542.489V268.568H544.121V272.68C544.121 274.232 544.409 275.192 546.185 275.192C546.649 275.192 547.209 275.112 547.641 274.92L547.593 273.784C547.257 273.96 546.857 274.04 546.489 274.04C545.385 274.04 545.369 273.272 545.369 272.312V268.568H547.577V267.512ZM554.85 272.904C554.258 273.656 553.538 274.04 552.466 274.04C551.106 274.04 550.114 272.936 550.018 271.64H556.066V271.24C556.066 268.76 554.626 267.32 552.514 267.32C550.306 267.32 548.674 268.936 548.674 271.256C548.674 273.432 550.114 275.192 552.466 275.192C553.858 275.192 554.914 274.776 555.794 273.64L554.85 272.904ZM550.018 270.584C550.178 269.32 551.09 268.472 552.466 268.472C553.842 268.472 554.674 269.32 554.722 270.584H550.018ZM557.933 278.648H559.181V273.672H559.213C559.677 274.52 560.749 275.192 562.093 275.192C564.189 275.192 565.837 273.496 565.837 271.256C565.837 268.984 564.253 267.32 561.901 267.32C560.812 267.32 559.901 267.8 559.213 268.6H559.181V267.512H557.933V278.648ZM559.181 271.256C559.181 269.688 560.221 268.472 561.837 268.472C563.453 268.472 564.493 269.688 564.493 271.256C564.493 272.824 563.453 274.04 561.837 274.04C560.221 274.04 559.181 272.824 559.181 271.256Z" fill="#9EA6B5"/>
<g opacity="0.5">
<rect width="38" height="1" transform="translate(562 238.5)" fill="#9EA6B5"/>
</g>
<g opacity="0.5">
<rect width="38" height="1" transform="translate(600 238.5)" fill="#9EA6B5"/>
</g>
<path opacity="0.8" d="M652.83 234.088H646.782V235.18H651.57L647.538 244H648.868L652.83 235.18V234.088Z" fill="#9EA6B5"/>
<rect x="638.5" y="227.5" width="23" height="23" rx="11.5" stroke="#D2D6DD"/>
<path opacity="0.8" d="M641.294 264.712C640.462 263.736 639.39 263.384 638.126 263.384C636.142 263.384 634.27 264.472 634.27 266.648C634.27 268.536 635.486 269.24 637.086 269.768C639.102 270.44 640.046 270.68 640.046 272.072C640.046 273.368 638.734 274.04 637.582 274.04C636.606 274.04 635.646 273.608 635.166 272.776L634.014 273.72C634.782 274.856 636.19 275.288 637.502 275.288C639.55 275.288 641.486 274.232 641.486 271.976C641.486 269.752 639.854 269.176 638.094 268.616C636.286 268.04 635.71 267.576 635.71 266.536C635.71 265.192 636.942 264.632 638.126 264.632C638.942 264.632 639.742 264.952 640.19 265.672L641.294 264.712ZM647.577 267.512H645.369V265.384H644.121V267.512H642.489V268.568H644.121V272.68C644.121 274.232 644.409 275.192 646.185 275.192C646.649 275.192 647.209 275.112 647.641 274.92L647.593 273.784C647.257 273.96 646.857 274.04 646.489 274.04C645.385 274.04 645.369 273.272 645.369 272.312V268.568H647.577V267.512ZM654.85 272.904C654.258 273.656 653.538 274.04 652.466 274.04C651.106 274.04 650.114 272.936 650.018 271.64H656.066V271.24C656.066 268.76 654.626 267.32 652.514 267.32C650.306 267.32 648.674 268.936 648.674 271.256C648.674 273.432 650.114 275.192 652.466 275.192C653.858 275.192 654.914 274.776 655.794 273.64L654.85 272.904ZM650.018 270.584C650.178 269.32 651.09 268.472 652.466 268.472C653.842 268.472 654.674 269.32 654.722 270.584H650.018ZM657.933 278.648H659.181V273.672H659.213C659.677 274.52 660.749 275.192 662.093 275.192C664.189 275.192 665.837 273.496 665.837 271.256C665.837 268.984 664.253 267.32 661.901 267.32C660.812 267.32 659.901 267.8 659.213 268.6H659.181V267.512H657.933V278.648ZM659.181 271.256C659.181 269.688 660.221 268.472 661.837 268.472C663.453 268.472 664.493 269.688 664.493 271.256C664.493 272.824 663.453 274.04 661.837 274.04C660.221 274.04 659.181 272.824 659.181 271.256Z" fill="#9EA6B5"/>
<g opacity="0.5">
<rect width="38" height="1" transform="translate(662 238.5)" fill="#9EA6B5"/>
</g>
<g opacity="0.5">
<rect width="38" height="1" transform="translate(700 238.5)" fill="#9EA6B5"/>
</g>
<path opacity="0.8" d="M747.174 236.51C747.174 237.448 747.79 238.428 748.798 238.694V238.722C747.608 238.974 746.838 240.024 746.838 241.27C746.838 243.076 748.238 244.168 750.002 244.168C751.766 244.168 753.166 243.076 753.166 241.27C753.166 240.024 752.396 238.974 751.206 238.722V238.694C752.214 238.428 752.83 237.448 752.83 236.51C752.83 234.956 751.598 233.92 750.002 233.92C748.406 233.92 747.174 234.956 747.174 236.51ZM748.35 236.566C748.35 235.628 749.022 234.928 750.002 234.928C750.982 234.928 751.654 235.628 751.654 236.566C751.654 237.504 750.982 238.204 750.002 238.204C749.022 238.204 748.35 237.504 748.35 236.566ZM748.014 241.186C748.014 240.024 748.896 239.212 750.002 239.212C751.108 239.212 751.99 240.024 751.99 241.186C751.99 242.348 751.108 243.16 750.002 243.16C748.896 243.16 748.014 242.348 748.014 241.186Z" fill="#9EA6B5"/>
<rect x="738.5" y="227.5" width="23" height="23" rx="11.5" stroke="#D2D6DD"/>
<path opacity="0.8" d="M741.294 264.712C740.462 263.736 739.39 263.384 738.126 263.384C736.142 263.384 734.27 264.472 734.27 266.648C734.27 268.536 735.486 269.24 737.086 269.768C739.102 270.44 740.046 270.68 740.046 272.072C740.046 273.368 738.734 274.04 737.582 274.04C736.606 274.04 735.646 273.608 735.166 272.776L734.014 273.72C734.782 274.856 736.19 275.288 737.502 275.288C739.55 275.288 741.486 274.232 741.486 271.976C741.486 269.752 739.854 269.176 738.094 268.616C736.286 268.04 735.71 267.576 735.71 266.536C735.71 265.192 736.942 264.632 738.126 264.632C738.942 264.632 739.742 264.952 740.19 265.672L741.294 264.712ZM747.577 267.512H745.369V265.384H744.121V267.512H742.489V268.568H744.121V272.68C744.121 274.232 744.409 275.192 746.185 275.192C746.649 275.192 747.209 275.112 747.641 274.92L747.593 273.784C747.257 273.96 746.857 274.04 746.489 274.04C745.385 274.04 745.369 273.272 745.369 272.312V268.568H747.577V267.512ZM754.85 272.904C754.258 273.656 753.538 274.04 752.466 274.04C751.106 274.04 750.114 272.936 750.018 271.64H756.066V271.24C756.066 268.76 754.626 267.32 752.514 267.32C750.306 267.32 748.674 268.936 748.674 271.256C748.674 273.432 750.114 275.192 752.466 275.192C753.858 275.192 754.914 274.776 755.794 273.64L754.85 272.904ZM750.018 270.584C750.178 269.32 751.09 268.472 752.466 268.472C753.842 268.472 754.674 269.32 754.722 270.584H750.018ZM757.933 278.648H759.181V273.672H759.213C759.677 274.52 760.749 275.192 762.093 275.192C764.189 275.192 765.837 273.496 765.837 271.256C765.837 268.984 764.253 267.32 761.901 267.32C760.812 267.32 759.901 267.8 759.213 268.6H759.181V267.512H757.933V278.648ZM759.181 271.256C759.181 269.688 760.221 268.472 761.837 268.472C763.453 268.472 764.493 269.688 764.493 271.256C764.493 272.824 763.453 274.04 761.837 274.04C760.221 274.04 759.181 272.824 759.181 271.256Z" fill="#9EA6B5"/>
<g opacity="0.5">
<rect width="38" height="1" transform="translate(762 238.5)" fill="#9EA6B5"/>
</g>
</svg>
