<svg width="903" height="316" viewBox="0 0 903 316" fill="none" xmlns="http://www.w3.org/2000/svg">
<g opacity="0.5">
<rect width="100.875" height="1" transform="translate(0 11.5)" fill="#9EA6B5"/>
</g>
<path opacity="0.8" d="M114.025 7.088H113.003L110.343 9.244L111.043 10.098L112.821 8.6H112.849V17H114.025V7.088Z" fill="#9EA6B5"/>
<rect x="101.375" y="0.5" width="23" height="23" rx="11.5" stroke="#D2D6DD"/>
<path opacity="0.8" d="M61.6531 48H66.0051C68.2291 48 71.5571 46.512 71.5571 42.336C71.5571 38.16 68.2291 36.672 66.0051 36.672H61.6531V48ZM62.9971 37.92H65.5571C68.1491 37.92 70.1171 39.232 70.1171 42.336C70.1171 45.44 68.1491 46.752 65.5571 46.752H62.9971V37.92ZM74.1845 42.288C74.7765 41.744 75.6085 41.472 76.4085 41.472C77.5765 41.472 78.2645 42.032 78.2645 43.12V43.344H77.7845C75.9445 43.344 73.0645 43.488 73.0645 45.968C73.0645 47.424 74.3285 48.192 75.8485 48.192C76.9845 48.192 77.8165 47.648 78.3125 46.88H78.3445C78.3445 47.2 78.3445 47.664 78.4245 48H79.6245C79.5605 47.616 79.5125 47.136 79.5125 46.704V43.488C79.5125 41.376 78.5845 40.32 76.3765 40.32C75.2885 40.32 74.1685 40.688 73.4005 41.472L74.1845 42.288ZM78.2645 44.4V44.88C78.2325 46.096 77.4965 47.136 76.0565 47.136C75.1125 47.136 74.4085 46.784 74.4085 45.84C74.4085 44.832 75.4325 44.4 77.0165 44.4H78.2645ZM85.8894 40.512H83.6814V38.384H82.4334V40.512H80.8014V41.568H82.4334V45.68C82.4334 47.232 82.7214 48.192 84.4974 48.192C84.9614 48.192 85.5214 48.112 85.9534 47.92L85.9054 46.784C85.5694 46.96 85.1694 47.04 84.8014 47.04C83.6974 47.04 83.6814 46.272 83.6814 45.312V41.568H85.8894V40.512ZM93.1624 45.904C92.5704 46.656 91.8504 47.04 90.7784 47.04C89.4184 47.04 88.4264 45.936 88.3304 44.64H94.3784V44.24C94.3784 41.76 92.9384 40.32 90.8264 40.32C88.6184 40.32 86.9864 41.936 86.9864 44.256C86.9864 46.432 88.4264 48.192 90.7784 48.192C92.1704 48.192 93.2264 47.776 94.1064 46.64L93.1624 45.904ZM88.3304 43.584C88.4904 42.32 89.4024 41.472 90.7784 41.472C92.1544 41.472 92.9864 42.32 93.0344 43.584H88.3304ZM101.45 42.288C102.042 41.744 102.874 41.472 103.674 41.472C104.842 41.472 105.53 42.032 105.53 43.12V43.344H105.05C103.21 43.344 100.33 43.488 100.33 45.968C100.33 47.424 101.594 48.192 103.114 48.192C104.25 48.192 105.082 47.648 105.578 46.88H105.61C105.61 47.2 105.61 47.664 105.69 48H106.89C106.826 47.616 106.778 47.136 106.778 46.704V43.488C106.778 41.376 105.85 40.32 103.642 40.32C102.554 40.32 101.434 40.688 100.666 41.472L101.45 42.288ZM105.53 44.4V44.88C105.498 46.096 104.762 47.136 103.322 47.136C102.378 47.136 101.674 46.784 101.674 45.84C101.674 44.832 102.698 44.4 104.282 44.4H105.53ZM109.059 48H110.307V44.352C110.307 42.64 111.011 41.472 112.627 41.472C113.795 41.472 114.339 42.256 114.339 43.504V48H115.587V43.376C115.587 41.568 114.707 40.32 112.739 40.32C111.507 40.32 110.579 41.008 110.243 41.744H110.211C110.211 41.328 110.179 40.912 110.179 40.512H108.995C108.995 41.008 109.059 41.6 109.059 42.288V48ZM124.174 48H125.422V35.904H124.174V41.6H124.142C123.454 40.8 122.542 40.32 121.454 40.32C119.102 40.32 117.518 41.984 117.518 44.256C117.518 46.496 119.166 48.192 121.262 48.192C122.606 48.192 123.678 47.52 124.142 46.672H124.174V48ZM124.174 44.256C124.174 45.824 123.134 47.04 121.518 47.04C119.902 47.04 118.862 45.824 118.862 44.256C118.862 42.688 119.902 41.472 121.518 41.472C123.134 41.472 124.174 42.688 124.174 44.256ZM140.008 36.672H131.176V37.92H134.92V48H136.264V37.92H140.008V36.672ZM141.484 48H142.732V40.512H141.484V48ZM141.196 37.584C141.196 38.112 141.58 38.496 142.108 38.496C142.636 38.496 143.02 38.112 143.02 37.584C143.02 37.088 142.62 36.672 142.108 36.672C141.596 36.672 141.196 37.088 141.196 37.584ZM145.215 48H146.463V44.352C146.463 42.64 147.167 41.472 148.783 41.472C149.807 41.472 150.223 42.112 150.223 43.76V48H151.471V43.68C151.471 42.336 152.351 41.472 153.407 41.472C154.863 41.472 155.231 42.48 155.231 43.52V48H156.479V43.456C156.479 41.52 155.775 40.32 153.631 40.32C152.495 40.32 151.807 40.864 151.263 41.744C151.023 41.232 150.511 40.32 148.895 40.32C147.663 40.32 146.735 41.008 146.399 41.744H146.367C146.367 41.328 146.335 40.912 146.335 40.512H145.151C145.151 41.008 145.215 41.6 145.215 42.288V48ZM164.584 45.904C163.992 46.656 163.272 47.04 162.2 47.04C160.84 47.04 159.848 45.936 159.752 44.64H165.8V44.24C165.8 41.76 164.36 40.32 162.248 40.32C160.04 40.32 158.408 41.936 158.408 44.256C158.408 46.432 159.848 48.192 162.2 48.192C163.592 48.192 164.648 47.776 165.528 46.64L164.584 45.904ZM159.752 43.584C159.912 42.32 160.824 41.472 162.2 41.472C163.576 41.472 164.408 42.32 164.456 43.584H159.752Z" fill="#9EA6B5"/>
<g opacity="0.5">
<rect width="100.875" height="1" transform="translate(124.875 11.5)" fill="#9EA6B5"/>
</g>
<g opacity="0.5">
<rect width="100.875" height="1" transform="translate(225.75 11.5)" fill="#9EA6B5"/>
</g>
<path opacity="0.8" d="M335.435 17H341.819V15.908H336.765V15.88L339.817 13.01C340.811 12.072 341.749 11.19 341.749 9.608C341.749 7.844 340.363 6.92 338.725 6.92C337.129 6.92 335.883 7.774 335.617 9.398L336.891 9.51C337.073 8.558 337.773 7.928 338.767 7.928C339.761 7.928 340.573 8.572 340.573 9.608C340.573 10.574 340.111 11.106 339.173 12.016L335.435 15.656V17Z" fill="#9EA6B5"/>
<rect x="327.125" y="0.5" width="23" height="23" rx="11.5" stroke="#D2D6DD"/>
<path opacity="0.8" d="M293.189 48H294.533V42.912H299.813V41.664H294.533V37.92H300.213V36.672H293.189V48ZM301.968 48H303.216V40.512H301.968V48ZM301.68 37.584C301.68 38.112 302.064 38.496 302.592 38.496C303.12 38.496 303.504 38.112 303.504 37.584C303.504 37.088 303.104 36.672 302.592 36.672C302.08 36.672 301.68 37.088 301.68 37.584ZM305.812 48H307.06V35.904H305.812V48ZM315.287 45.904C314.695 46.656 313.975 47.04 312.903 47.04C311.543 47.04 310.551 45.936 310.455 44.64H316.503V44.24C316.503 41.76 315.063 40.32 312.951 40.32C310.743 40.32 309.111 41.936 309.111 44.256C309.111 46.432 310.551 48.192 312.903 48.192C314.295 48.192 315.351 47.776 316.231 46.64L315.287 45.904ZM310.455 43.584C310.615 42.32 311.527 41.472 312.903 41.472C314.279 41.472 315.111 42.32 315.159 43.584H310.455ZM322.055 46.8C322.791 47.856 323.703 48.192 324.967 48.192C326.455 48.192 327.959 47.536 327.959 45.84C327.959 44.336 326.839 43.856 325.511 43.6C324.519 43.408 323.623 43.136 323.623 42.512C323.623 41.808 324.407 41.472 325.095 41.472C325.831 41.472 326.359 41.84 326.679 42.368L327.719 41.68C327.207 40.72 326.231 40.32 325.175 40.32C323.783 40.32 322.375 41.072 322.375 42.528C322.375 44.08 323.591 44.384 325.015 44.704C325.815 44.88 326.615 45.088 326.615 45.888C326.615 46.704 325.751 47.04 324.967 47.04C324.087 47.04 323.543 46.64 323.047 46.032L322.055 46.8ZM335.444 45.904C334.852 46.656 334.132 47.04 333.06 47.04C331.7 47.04 330.708 45.936 330.612 44.64H336.66V44.24C336.66 41.76 335.22 40.32 333.108 40.32C330.9 40.32 329.268 41.936 329.268 44.256C329.268 46.432 330.708 48.192 333.06 48.192C334.452 48.192 335.508 47.776 336.388 46.64L335.444 45.904ZM330.612 43.584C330.772 42.32 331.684 41.472 333.06 41.472C334.436 41.472 335.268 42.32 335.316 43.584H330.612ZM338.702 48H339.95V35.904H338.702V48ZM348.178 45.904C347.586 46.656 346.866 47.04 345.794 47.04C344.434 47.04 343.442 45.936 343.346 44.64H349.394V44.24C349.394 41.76 347.954 40.32 345.842 40.32C343.634 40.32 342.002 41.936 342.002 44.256C342.002 46.432 343.442 48.192 345.794 48.192C347.186 48.192 348.242 47.776 349.122 46.64L348.178 45.904ZM343.346 43.584C343.506 42.32 344.418 41.472 345.794 41.472C347.17 41.472 348.002 42.32 348.05 43.584H343.346ZM357.645 41.504C356.893 40.688 355.869 40.32 354.765 40.32C352.461 40.32 350.893 41.984 350.893 44.256C350.893 46.56 352.445 48.192 354.765 48.192C355.853 48.192 356.877 47.824 357.597 46.992L356.669 46.112C356.205 46.752 355.581 47.04 354.765 47.04C353.245 47.04 352.237 45.792 352.237 44.256C352.237 42.72 353.085 41.472 354.765 41.472C355.517 41.472 356.125 41.744 356.653 42.384L357.645 41.504ZM363.139 40.512H360.931V38.384H359.683V40.512H358.051V41.568H359.683V45.68C359.683 47.232 359.971 48.192 361.747 48.192C362.211 48.192 362.771 48.112 363.203 47.92L363.155 46.784C362.819 46.96 362.419 47.04 362.051 47.04C360.947 47.04 360.931 46.272 360.931 45.312V41.568H363.139V40.512ZM364.78 48H366.028V40.512H364.78V48ZM364.492 37.584C364.492 38.112 364.876 38.496 365.404 38.496C365.932 38.496 366.316 38.112 366.316 37.584C366.316 37.088 365.916 36.672 365.404 36.672C364.892 36.672 364.492 37.088 364.492 37.584ZM368.08 44.256C368.08 46.592 369.776 48.192 372.08 48.192C374.384 48.192 376.08 46.592 376.08 44.256C376.08 41.92 374.384 40.32 372.08 40.32C369.776 40.32 368.08 41.92 368.08 44.256ZM369.424 44.256C369.424 42.688 370.464 41.472 372.08 41.472C373.696 41.472 374.736 42.688 374.736 44.256C374.736 45.824 373.696 47.04 372.08 47.04C370.464 47.04 369.424 45.824 369.424 44.256ZM378.012 48H379.26V44.352C379.26 42.64 379.964 41.472 381.58 41.472C382.748 41.472 383.292 42.256 383.292 43.504V48H384.54V43.376C384.54 41.568 383.66 40.32 381.692 40.32C380.46 40.32 379.532 41.008 379.196 41.744H379.164C379.164 41.328 379.132 40.912 379.132 40.512H377.948C377.948 41.008 378.012 41.6 378.012 42.288V48Z" fill="#9EA6B5"/>
<g opacity="0.5">
<rect width="100.875" height="1" transform="translate(350.625 11.5)" fill="#9EA6B5"/>
</g>
<g opacity="0.5">
<rect width="100.875" height="1" transform="translate(451.5 11.5)" fill="#9EA6B5"/>
</g>
<path opacity="0.8" d="M563.341 12.296H563.705C564.923 12.296 566.211 12.758 566.211 14.214C566.211 15.362 565.315 16.16 564.195 16.16C563.103 16.16 562.529 15.754 562.193 14.69L561.003 15.082C561.507 16.552 562.697 17.168 564.195 17.168C565.959 17.168 567.471 16.188 567.471 14.298C567.471 13.052 566.701 12.016 565.441 11.806V11.778C566.435 11.47 567.135 10.546 567.135 9.51C567.135 7.802 565.763 6.92 564.181 6.92C562.921 6.92 561.787 7.48 561.311 8.6L562.445 9.034C562.795 8.306 563.439 7.928 564.265 7.928C565.259 7.928 565.959 8.558 565.959 9.566C565.959 11.064 564.685 11.288 563.705 11.288H563.341V12.296Z" fill="#9EA6B5"/>
<rect x="552.875" y="0.5" width="23" height="23" rx="11.5" stroke="#D2D6DD"/>
<path opacity="0.8" d="M549.161 48H553.513C555.737 48 559.065 46.512 559.065 42.336C559.065 38.16 555.737 36.672 553.513 36.672H549.161V48ZM550.505 37.92H553.065C555.657 37.92 557.625 39.232 557.625 42.336C557.625 45.44 555.657 46.752 553.065 46.752H550.505V37.92ZM561.692 42.288C562.284 41.744 563.116 41.472 563.916 41.472C565.084 41.472 565.772 42.032 565.772 43.12V43.344H565.292C563.452 43.344 560.572 43.488 560.572 45.968C560.572 47.424 561.836 48.192 563.356 48.192C564.492 48.192 565.324 47.648 565.82 46.88H565.852C565.852 47.2 565.852 47.664 565.932 48H567.132C567.068 47.616 567.02 47.136 567.02 46.704V43.488C567.02 41.376 566.092 40.32 563.884 40.32C562.796 40.32 561.676 40.688 560.908 41.472L561.692 42.288ZM565.772 44.4V44.88C565.74 46.096 565.004 47.136 563.564 47.136C562.62 47.136 561.916 46.784 561.916 45.84C561.916 44.832 562.94 44.4 564.524 44.4H565.772ZM573.397 40.512H571.189V38.384H569.941V40.512H568.309V41.568H569.941V45.68C569.941 47.232 570.229 48.192 572.005 48.192C572.469 48.192 573.029 48.112 573.461 47.92L573.413 46.784C573.077 46.96 572.677 47.04 572.309 47.04C571.205 47.04 571.189 46.272 571.189 45.312V41.568H573.397V40.512ZM575.614 42.288C576.206 41.744 577.038 41.472 577.838 41.472C579.006 41.472 579.694 42.032 579.694 43.12V43.344H579.214C577.374 43.344 574.494 43.488 574.494 45.968C574.494 47.424 575.758 48.192 577.278 48.192C578.414 48.192 579.246 47.648 579.742 46.88H579.774C579.774 47.2 579.774 47.664 579.854 48H581.054C580.99 47.616 580.942 47.136 580.942 46.704V43.488C580.942 41.376 580.014 40.32 577.806 40.32C576.718 40.32 575.598 40.688 574.83 41.472L575.614 42.288ZM579.694 44.4V44.88C579.662 46.096 578.926 47.136 577.486 47.136C576.542 47.136 575.838 46.784 575.838 45.84C575.838 44.832 576.862 44.4 578.446 44.4H579.694Z" fill="#9EA6B5"/>
<g opacity="0.5">
<rect width="100.875" height="1" transform="translate(576.375 11.5)" fill="#9EA6B5"/>
</g>
<g opacity="0.5">
<rect width="100.875" height="1" transform="translate(677.25 11.5)" fill="#9EA6B5"/>
</g>
<rect x="778.125" width="24" height="24" rx="12" fill="#D2D6DD"/>
<path d="M792.101 7.088H790.659L786.725 13.43V14.732H790.925V17H792.101V14.732H793.529V13.64H792.101V7.088ZM790.925 13.64H787.733L790.897 8.46H790.925V13.64Z" fill="black"/>
<path d="M764.853 48H766.197V42.912H771.477V41.664H766.197V37.92H771.877V36.672H764.853V48ZM773.632 48H774.88V40.512H773.632V48ZM773.344 37.584C773.344 38.112 773.728 38.496 774.256 38.496C774.784 38.496 775.168 38.112 775.168 37.584C775.168 37.088 774.768 36.672 774.256 36.672C773.744 36.672 773.344 37.088 773.344 37.584ZM777.364 48H778.612V44.352C778.612 42.64 779.316 41.472 780.932 41.472C782.1 41.472 782.644 42.256 782.644 43.504V48H783.892V43.376C783.892 41.568 783.012 40.32 781.044 40.32C779.812 40.32 778.884 41.008 778.548 41.744H778.516C778.516 41.328 778.484 40.912 778.484 40.512H777.3C777.3 41.008 777.364 41.6 777.364 42.288V48ZM786.942 42.288C787.534 41.744 788.366 41.472 789.166 41.472C790.334 41.472 791.022 42.032 791.022 43.12V43.344H790.542C788.702 43.344 785.822 43.488 785.822 45.968C785.822 47.424 787.086 48.192 788.606 48.192C789.742 48.192 790.574 47.648 791.07 46.88H791.102C791.102 47.2 791.102 47.664 791.182 48H792.382C792.318 47.616 792.27 47.136 792.27 46.704V43.488C792.27 41.376 791.342 40.32 789.134 40.32C788.046 40.32 786.926 40.688 786.158 41.472L786.942 42.288ZM791.022 44.4V44.88C790.99 46.096 790.254 47.136 788.814 47.136C787.87 47.136 787.166 46.784 787.166 45.84C787.166 44.832 788.19 44.4 789.774 44.4H791.022ZM794.663 48H795.911V35.904H794.663V48ZM798.507 48H799.755V40.512H798.507V48ZM798.219 37.584C798.219 38.112 798.603 38.496 799.131 38.496C799.659 38.496 800.043 38.112 800.043 37.584C800.043 37.088 799.643 36.672 799.131 36.672C798.619 36.672 798.219 37.088 798.219 37.584ZM801.535 48H807.679V46.944H803.167L807.567 41.472V40.512H801.727V41.568H805.935L801.535 47.024V48ZM815.092 45.904C814.5 46.656 813.78 47.04 812.708 47.04C811.348 47.04 810.356 45.936 810.26 44.64H816.308V44.24C816.308 41.76 814.868 40.32 812.756 40.32C810.548 40.32 808.916 41.936 808.916 44.256C808.916 46.432 810.356 48.192 812.708 48.192C814.1 48.192 815.156 47.776 816.036 46.64L815.092 45.904ZM810.26 43.584C810.42 42.32 811.332 41.472 812.708 41.472C814.084 41.472 814.916 42.32 814.964 43.584H810.26Z" fill="black"/>
<g opacity="0.5">
<rect width="100.875" height="1" transform="translate(802.125 11.5)" fill="#9EA6B5"/>
</g>
<path d="M1.248 98H3.744V93.584H8.464V91.28H3.744V88.976H8.848V86.672H1.248V98ZM10.3644 98H12.7644V90.224H10.3644V98ZM10.1724 87.776C10.1724 88.544 10.7964 89.168 11.5644 89.168C12.3324 89.168 12.9564 88.544 12.9564 87.776C12.9564 87.008 12.3324 86.384 11.5644 86.384C10.7964 86.384 10.1724 87.008 10.1724 87.776ZM14.4886 98H16.8886V94.128C16.8886 93.12 17.0806 92.144 18.3286 92.144C19.5606 92.144 19.5766 93.296 19.5766 94.192V98H21.9766V93.712C21.9766 91.632 21.5286 90.032 19.0966 90.032C17.9286 90.032 17.1446 90.672 16.8246 91.28H16.7926V90.224H14.4886V98ZM28.5561 98H30.7641V94.048C30.7641 91.456 30.0121 90.032 27.2121 90.032C25.9481 90.032 24.6681 90.448 23.7881 91.28L25.0681 92.592C25.5801 92.016 26.2361 91.664 27.0201 91.664C27.8521 91.664 28.5561 92.208 28.5561 93.056C26.5561 93.056 23.2921 93.104 23.2921 95.792C23.2921 97.36 24.6041 98.192 26.0601 98.192C27.0361 98.192 27.9961 97.856 28.5241 97.024H28.5561V98ZM28.5561 94.592V95.104C28.5561 96.064 27.6761 96.56 26.7321 96.56C26.2041 96.56 25.5961 96.288 25.5961 95.712C25.5961 94.656 27.2281 94.592 27.9641 94.592H28.5561ZM32.3019 98H34.7019V85.904H32.3019V98ZM36.4581 98H38.8581V90.224H36.4581V98ZM36.2661 87.776C36.2661 88.544 36.8901 89.168 37.6581 89.168C38.4261 89.168 39.0501 88.544 39.0501 87.776C39.0501 87.008 38.4261 86.384 37.6581 86.384C36.8901 86.384 36.2661 87.008 36.2661 87.776ZM40.2784 98H47.1904V96.08H42.8704L47.0944 92.528V90.224H40.3744V92.144H44.3104L40.2784 95.6V98ZM54.2624 95.424C53.8624 95.968 53.3344 96.368 52.5504 96.368C51.6224 96.368 50.9344 95.776 50.7424 94.864H56.3104V94.112C56.3104 91.632 54.9024 90.032 52.6624 90.032C50.2624 90.032 48.3424 91.632 48.3424 94.112C48.3424 96.592 50.2624 98.192 52.6624 98.192C53.9104 98.192 55.1744 97.632 55.9424 96.656L54.2624 95.424ZM50.7424 93.232C50.8064 92.48 51.3824 91.76 52.4384 91.76C53.3024 91.76 53.9264 92.432 53.9104 93.232H50.7424Z" fill="black"/>
<g clip-path="url(#clip0_45_11175)">
<path d="M1.408 138H2.752V132.912H8.032V131.664H2.752V127.92H8.432V126.672H1.408V138ZM10.1866 138H11.4346V130.512H10.1866V138ZM9.89863 127.584C9.89863 128.112 10.2826 128.496 10.8106 128.496C11.3386 128.496 11.7226 128.112 11.7226 127.584C11.7226 127.088 11.3226 126.672 10.8106 126.672C10.2986 126.672 9.89863 127.088 9.89863 127.584ZM14.0304 138H15.2784V125.904H14.0304V138ZM23.5061 135.904C22.9141 136.656 22.1941 137.04 21.1221 137.04C19.7621 137.04 18.7701 135.936 18.6741 134.64H24.7221V134.24C24.7221 131.76 23.2821 130.32 21.1701 130.32C18.9621 130.32 17.3301 131.936 17.3301 134.256C17.3301 136.432 18.7701 138.192 21.1221 138.192C22.5141 138.192 23.5701 137.776 24.4501 136.64L23.5061 135.904ZM18.6741 133.584C18.8341 132.32 19.7461 131.472 21.1221 131.472C22.4981 131.472 23.3301 132.32 23.3781 133.584H18.6741ZM31.1059 138H32.3539V134.352C32.3539 132.64 33.0579 131.472 34.6739 131.472C35.8419 131.472 36.3859 132.256 36.3859 133.504V138H37.6339V133.376C37.6339 131.568 36.7539 130.32 34.7859 130.32C33.5539 130.32 32.6259 131.008 32.2899 131.744H32.2579C32.2579 131.328 32.2259 130.912 32.2259 130.512H31.0419C31.0419 131.008 31.1059 131.6 31.1059 132.288V138ZM40.6845 132.288C41.2765 131.744 42.1085 131.472 42.9085 131.472C44.0765 131.472 44.7645 132.032 44.7645 133.12V133.344H44.2845C42.4445 133.344 39.5645 133.488 39.5645 135.968C39.5645 137.424 40.8285 138.192 42.3485 138.192C43.4845 138.192 44.3165 137.648 44.8125 136.88H44.8445C44.8445 137.2 44.8445 137.664 44.9245 138H46.1245C46.0605 137.616 46.0125 137.136 46.0125 136.704V133.488C46.0125 131.376 45.0845 130.32 42.8765 130.32C41.7885 130.32 40.6685 130.688 39.9005 131.472L40.6845 132.288ZM44.7645 134.4V134.88C44.7325 136.096 43.9965 137.136 42.5565 137.136C41.6125 137.136 40.9085 136.784 40.9085 135.84C40.9085 134.832 41.9325 134.4 43.5165 134.4H44.7645ZM48.2934 138H49.5414V134.352C49.5414 132.64 50.2454 131.472 51.8614 131.472C52.8854 131.472 53.3014 132.112 53.3014 133.76V138H54.5494V133.68C54.5494 132.336 55.4294 131.472 56.4854 131.472C57.9414 131.472 58.3094 132.48 58.3094 133.52V138H59.5574V133.456C59.5574 131.52 58.8534 130.32 56.7094 130.32C55.5734 130.32 54.8854 130.864 54.3414 131.744C54.1014 131.232 53.5894 130.32 51.9734 130.32C50.7414 130.32 49.8134 131.008 49.4774 131.744H49.4454C49.4454 131.328 49.4134 130.912 49.4134 130.512H48.2294C48.2294 131.008 48.2934 131.6 48.2934 132.288V138ZM67.6624 135.904C67.0704 136.656 66.3504 137.04 65.2784 137.04C63.9184 137.04 62.9264 135.936 62.8304 134.64H68.8784V134.24C68.8784 131.76 67.4384 130.32 65.3264 130.32C63.1184 130.32 61.4864 131.936 61.4864 134.256C61.4864 136.432 62.9264 138.192 65.2784 138.192C66.6704 138.192 67.7264 137.776 68.6064 136.64L67.6624 135.904ZM62.8304 133.584C62.9904 132.32 63.9024 131.472 65.2784 131.472C66.6544 131.472 67.4864 132.32 67.5344 133.584H62.8304ZM75.1981 141.648H76.4461V136.672H76.4781C76.9421 137.52 78.0141 138.192 79.3581 138.192C81.4541 138.192 83.1021 136.496 83.1021 134.256C83.1021 131.984 81.5181 130.32 79.1661 130.32C78.0781 130.32 77.1661 130.8 76.4781 131.6H76.4461V130.512H75.1981V141.648ZM76.4461 134.256C76.4461 132.688 77.4861 131.472 79.1021 131.472C80.7181 131.472 81.7581 132.688 81.7581 134.256C81.7581 135.824 80.7181 137.04 79.1021 137.04C77.4861 137.04 76.4461 135.824 76.4461 134.256ZM85.0434 138H86.2914V134.352C86.2914 132.64 86.9634 131.568 88.4834 131.568C88.7074 131.568 88.9474 131.6 89.1554 131.664L89.2354 130.4C89.0594 130.336 88.8834 130.32 88.7234 130.32C87.4914 130.32 86.5634 131.008 86.2274 131.744H86.1954C86.1954 131.328 86.1634 130.912 86.1634 130.512H84.9794C84.9794 131.008 85.0434 131.6 85.0434 132.288V138ZM96.1311 135.904C95.5391 136.656 94.8191 137.04 93.7471 137.04C92.3871 137.04 91.3951 135.936 91.2991 134.64H97.3471V134.24C97.3471 131.76 95.9071 130.32 93.7951 130.32C91.5871 130.32 89.9551 131.936 89.9551 134.256C89.9551 136.432 91.3951 138.192 93.7471 138.192C95.1391 138.192 96.1951 137.776 97.0751 136.64L96.1311 135.904ZM91.2991 133.584C91.4591 132.32 92.3711 131.472 93.7471 131.472C95.1231 131.472 95.9551 132.32 96.0031 133.584H91.2991ZM102.99 130.512H101.166V129.104C101.166 127.808 101.214 126.864 102.51 126.864C102.798 126.864 103.086 126.928 103.358 127.024L103.534 125.904C103.294 125.776 102.894 125.712 102.574 125.712C100.558 125.712 99.9178 127.008 99.9178 128.832V130.512H98.2858V131.568H99.9178V138H101.166V131.568H102.99V130.512ZM104.142 138H105.39V130.512H104.142V138ZM103.854 127.584C103.854 128.112 104.238 128.496 104.766 128.496C105.294 128.496 105.678 128.112 105.678 127.584C105.678 127.088 105.278 126.672 104.766 126.672C104.254 126.672 103.854 127.088 103.854 127.584ZM106.736 138H108.288L110.624 134.768L112.992 138H114.64L111.552 133.968L114.128 130.512H112.608L110.736 133.2L108.752 130.512H107.12L109.808 133.968L106.736 138Z" fill="#333333"/>
<path opacity="0.8" d="M123.384 124.672H122.04V126.944L119.864 126.192L119.448 127.472L121.64 128.224L120.264 130.032L121.336 130.848L122.68 129.008L124.056 130.896L125.16 130.096L123.784 128.224L125.96 127.52L125.544 126.24L123.384 126.944V124.672Z" fill="#DB3259"/>
</g>
<rect x="0.5" y="148.5" width="399" height="35" rx="3.5" fill="white"/>
<path opacity="0.5" d="M13.408 170H14.752V164.912H17.024C18.624 164.912 20.736 164.256 20.736 161.776C20.736 159.408 18.848 158.672 16.768 158.672H13.408V170ZM14.752 159.92H17.024C18.368 159.92 19.296 160.528 19.296 161.792C19.296 163.056 18.368 163.664 17.024 163.664H14.752V159.92ZM22.7804 170H24.0284V157.904H22.7804V170ZM27.2001 164.288C27.7921 163.744 28.6241 163.472 29.4241 163.472C30.5921 163.472 31.2801 164.032 31.2801 165.12V165.344H30.8001C28.9601 165.344 26.0801 165.488 26.0801 167.968C26.0801 169.424 27.3441 170.192 28.8641 170.192C30.0001 170.192 30.8321 169.648 31.3281 168.88H31.3601C31.3601 169.2 31.3601 169.664 31.4401 170H32.6401C32.5761 169.616 32.5281 169.136 32.5281 168.704V165.488C32.5281 163.376 31.6001 162.32 29.3921 162.32C28.3041 162.32 27.1841 162.688 26.4161 163.472L27.2001 164.288ZM31.2801 166.4V166.88C31.2481 168.096 30.5121 169.136 29.0721 169.136C28.1281 169.136 27.4241 168.784 27.4241 167.84C27.4241 166.832 28.4481 166.4 30.0321 166.4H31.2801ZM41.129 163.504C40.377 162.688 39.353 162.32 38.249 162.32C35.945 162.32 34.377 163.984 34.377 166.256C34.377 168.56 35.929 170.192 38.249 170.192C39.337 170.192 40.361 169.824 41.081 168.992L40.153 168.112C39.689 168.752 39.065 169.04 38.249 169.04C36.729 169.04 35.721 167.792 35.721 166.256C35.721 164.72 36.569 163.472 38.249 163.472C39.001 163.472 39.609 163.744 40.137 164.384L41.129 163.504ZM48.2718 167.904C47.6798 168.656 46.9598 169.04 45.8878 169.04C44.5278 169.04 43.5358 167.936 43.4398 166.64H49.4878V166.24C49.4878 163.76 48.0478 162.32 45.9358 162.32C43.7278 162.32 42.0958 163.936 42.0958 166.256C42.0958 168.432 43.5358 170.192 45.8878 170.192C47.2798 170.192 48.3358 169.776 49.2158 168.64L48.2718 167.904ZM43.4398 165.584C43.5998 164.32 44.5118 163.472 45.8878 163.472C47.2638 163.472 48.0958 164.32 48.1438 165.584H43.4398ZM51.4184 170H52.6664V166.352C52.6664 164.64 53.3704 163.472 54.9864 163.472C56.1544 163.472 56.6984 164.256 56.6984 165.504V170H57.9464V165.376C57.9464 163.568 57.0664 162.32 55.0984 162.32C53.9304 162.32 53.0344 162.96 52.6984 163.552H52.6664V157.904H51.4184V170ZM59.877 166.256C59.877 168.592 61.573 170.192 63.877 170.192C66.181 170.192 67.877 168.592 67.877 166.256C67.877 163.92 66.181 162.32 63.877 162.32C61.573 162.32 59.877 163.92 59.877 166.256ZM61.221 166.256C61.221 164.688 62.261 163.472 63.877 163.472C65.493 163.472 66.533 164.688 66.533 166.256C66.533 167.824 65.493 169.04 63.877 169.04C62.261 169.04 61.221 167.824 61.221 166.256ZM69.921 170H71.169V157.904H69.921V170ZM79.8768 170H81.1248V157.904H79.8768V163.6H79.8448C79.1568 162.8 78.2448 162.32 77.1568 162.32C74.8048 162.32 73.2208 163.984 73.2208 166.256C73.2208 168.496 74.8688 170.192 76.9648 170.192C78.3088 170.192 79.3808 169.52 79.8448 168.672H79.8768V170ZM79.8768 166.256C79.8768 167.824 78.8368 169.04 77.2208 169.04C75.6048 169.04 74.5648 167.824 74.5648 166.256C74.5648 164.688 75.6048 163.472 77.2208 163.472C78.8368 163.472 79.8768 164.688 79.8768 166.256ZM89.178 167.904C88.586 168.656 87.866 169.04 86.794 169.04C85.434 169.04 84.442 167.936 84.346 166.64H90.394V166.24C90.394 163.76 88.954 162.32 86.842 162.32C84.634 162.32 83.002 163.936 83.002 166.256C83.002 168.432 84.442 170.192 86.794 170.192C88.186 170.192 89.242 169.776 90.122 168.64L89.178 167.904ZM84.346 165.584C84.506 164.32 85.418 163.472 86.794 163.472C88.17 163.472 89.002 164.32 89.05 165.584H84.346ZM92.3246 170H93.5726V166.352C93.5726 164.64 94.2446 163.568 95.7646 163.568C95.9886 163.568 96.2286 163.6 96.4366 163.664L96.5166 162.4C96.3406 162.336 96.1646 162.32 96.0046 162.32C94.7726 162.32 93.8446 163.008 93.5086 163.744H93.4766C93.4766 163.328 93.4446 162.912 93.4446 162.512H92.2606C92.2606 163.008 92.3246 163.6 92.3246 164.288V170Z" fill="#9EA6B5"/>
<rect x="0.5" y="148.5" width="399" height="35" rx="3.5" stroke="#9EA6B5"/>
<g clip-path="url(#clip1_45_11175)">
<path d="M1.408 218H2.752V212.912H8.032V211.664H2.752V207.92H8.432V206.672H1.408V218ZM10.1866 218H11.4346V210.512H10.1866V218ZM9.89863 207.584C9.89863 208.112 10.2826 208.496 10.8106 208.496C11.3386 208.496 11.7226 208.112 11.7226 207.584C11.7226 207.088 11.3226 206.672 10.8106 206.672C10.2986 206.672 9.89863 207.088 9.89863 207.584ZM14.0304 218H15.2784V205.904H14.0304V218ZM23.5061 215.904C22.9141 216.656 22.1941 217.04 21.1221 217.04C19.7621 217.04 18.7701 215.936 18.6741 214.64H24.7221V214.24C24.7221 211.76 23.2821 210.32 21.1701 210.32C18.9621 210.32 17.3301 211.936 17.3301 214.256C17.3301 216.432 18.7701 218.192 21.1221 218.192C22.5141 218.192 23.5701 217.776 24.4501 216.64L23.5061 215.904ZM18.6741 213.584C18.8341 212.32 19.7461 211.472 21.1221 211.472C22.4981 211.472 23.3301 212.32 23.3781 213.584H18.6741ZM31.1059 218H32.3539V214.352C32.3539 212.64 33.0579 211.472 34.6739 211.472C35.8419 211.472 36.3859 212.256 36.3859 213.504V218H37.6339V213.376C37.6339 211.568 36.7539 210.32 34.7859 210.32C33.5539 210.32 32.6259 211.008 32.2899 211.744H32.2579C32.2579 211.328 32.2259 210.912 32.2259 210.512H31.0419C31.0419 211.008 31.1059 211.6 31.1059 212.288V218ZM40.6845 212.288C41.2765 211.744 42.1085 211.472 42.9085 211.472C44.0765 211.472 44.7645 212.032 44.7645 213.12V213.344H44.2845C42.4445 213.344 39.5645 213.488 39.5645 215.968C39.5645 217.424 40.8285 218.192 42.3485 218.192C43.4845 218.192 44.3165 217.648 44.8125 216.88H44.8445C44.8445 217.2 44.8445 217.664 44.9245 218H46.1245C46.0605 217.616 46.0125 217.136 46.0125 216.704V213.488C46.0125 211.376 45.0845 210.32 42.8765 210.32C41.7885 210.32 40.6685 210.688 39.9005 211.472L40.6845 212.288ZM44.7645 214.4V214.88C44.7325 216.096 43.9965 217.136 42.5565 217.136C41.6125 217.136 40.9085 216.784 40.9085 215.84C40.9085 214.832 41.9325 214.4 43.5165 214.4H44.7645ZM48.2934 218H49.5414V214.352C49.5414 212.64 50.2454 211.472 51.8614 211.472C52.8854 211.472 53.3014 212.112 53.3014 213.76V218H54.5494V213.68C54.5494 212.336 55.4294 211.472 56.4854 211.472C57.9414 211.472 58.3094 212.48 58.3094 213.52V218H59.5574V213.456C59.5574 211.52 58.8534 210.32 56.7094 210.32C55.5734 210.32 54.8854 210.864 54.3414 211.744C54.1014 211.232 53.5894 210.32 51.9734 210.32C50.7414 210.32 49.8134 211.008 49.4774 211.744H49.4454C49.4454 211.328 49.4134 210.912 49.4134 210.512H48.2294C48.2294 211.008 48.2934 211.6 48.2934 212.288V218ZM67.6624 215.904C67.0704 216.656 66.3504 217.04 65.2784 217.04C63.9184 217.04 62.9264 215.936 62.8304 214.64H68.8784V214.24C68.8784 211.76 67.4384 210.32 65.3264 210.32C63.1184 210.32 61.4864 211.936 61.4864 214.256C61.4864 216.432 62.9264 218.192 65.2784 218.192C66.6704 218.192 67.7264 217.776 68.6064 216.64L67.6624 215.904ZM62.8304 213.584C62.9904 212.32 63.9024 211.472 65.2784 211.472C66.6544 211.472 67.4864 212.32 67.5344 213.584H62.8304ZM75.3741 218H76.6221V210.512H75.3741V218ZM75.0861 207.584C75.0861 208.112 75.4701 208.496 75.9981 208.496C76.5261 208.496 76.9101 208.112 76.9101 207.584C76.9101 207.088 76.5101 206.672 75.9981 206.672C75.4861 206.672 75.0861 207.088 75.0861 207.584ZM79.1059 218H80.3539V214.352C80.3539 212.64 81.0579 211.472 82.6739 211.472C83.8419 211.472 84.3859 212.256 84.3859 213.504V218H85.6339V213.376C85.6339 211.568 84.7539 210.32 82.7859 210.32C81.5539 210.32 80.6259 211.008 80.2899 211.744H80.2579C80.2579 211.328 80.2259 210.912 80.2259 210.512H79.0419C79.0419 211.008 79.1059 211.6 79.1059 212.288V218ZM94.3165 211.504C93.5645 210.688 92.5405 210.32 91.4365 210.32C89.1325 210.32 87.5645 211.984 87.5645 214.256C87.5645 216.56 89.1165 218.192 91.4365 218.192C92.5245 218.192 93.5485 217.824 94.2685 216.992L93.3405 216.112C92.8765 216.752 92.2525 217.04 91.4365 217.04C89.9165 217.04 88.9085 215.792 88.9085 214.256C88.9085 212.72 89.7565 211.472 91.4365 211.472C92.1885 211.472 92.7965 211.744 93.3245 212.384L94.3165 211.504ZM102.243 210.512H100.995V214.16C100.995 215.872 100.291 217.04 98.6753 217.04C97.5073 217.04 96.9633 216.256 96.9633 215.008V210.512H95.7153V215.136C95.7153 216.944 96.5953 218.192 98.5633 218.192C99.7953 218.192 100.723 217.504 101.059 216.768H101.091C101.091 217.184 101.123 217.6 101.123 218H102.307C102.307 217.504 102.243 216.912 102.243 216.224V210.512ZM104.718 218H105.966V205.904H104.718V218ZM107.618 216.8C108.354 217.856 109.266 218.192 110.53 218.192C112.018 218.192 113.522 217.536 113.522 215.84C113.522 214.336 112.402 213.856 111.074 213.6C110.082 213.408 109.186 213.136 109.186 212.512C109.186 211.808 109.97 211.472 110.658 211.472C111.394 211.472 111.922 211.84 112.242 212.368L113.282 211.68C112.77 210.72 111.794 210.32 110.738 210.32C109.346 210.32 107.938 211.072 107.938 212.528C107.938 214.08 109.154 214.384 110.578 214.704C111.378 214.88 112.178 215.088 112.178 215.888C112.178 216.704 111.314 217.04 110.53 217.04C109.65 217.04 109.106 216.64 108.61 216.032L107.618 216.8ZM115.374 218H116.622V210.512H115.374V218ZM115.086 207.584C115.086 208.112 115.47 208.496 115.998 208.496C116.526 208.496 116.91 208.112 116.91 207.584C116.91 207.088 116.51 206.672 115.998 206.672C115.486 206.672 115.086 207.088 115.086 207.584ZM118.674 214.256C118.674 216.592 120.37 218.192 122.674 218.192C124.978 218.192 126.674 216.592 126.674 214.256C126.674 211.92 124.978 210.32 122.674 210.32C120.37 210.32 118.674 211.92 118.674 214.256ZM120.018 214.256C120.018 212.688 121.058 211.472 122.674 211.472C124.29 211.472 125.33 212.688 125.33 214.256C125.33 215.824 124.29 217.04 122.674 217.04C121.058 217.04 120.018 215.824 120.018 214.256ZM128.606 218H129.854V214.352C129.854 212.64 130.558 211.472 132.174 211.472C133.342 211.472 133.886 212.256 133.886 213.504V218H135.134V213.376C135.134 211.568 134.254 210.32 132.286 210.32C131.054 210.32 130.126 211.008 129.79 211.744H129.758C129.758 211.328 129.726 210.912 129.726 210.512H128.542C128.542 211.008 128.606 211.6 128.606 212.288V218ZM136.665 216.8C137.401 217.856 138.312 218.192 139.577 218.192C141.065 218.192 142.569 217.536 142.569 215.84C142.569 214.336 141.449 213.856 140.121 213.6C139.129 213.408 138.233 213.136 138.233 212.512C138.233 211.808 139.017 211.472 139.705 211.472C140.441 211.472 140.969 211.84 141.289 212.368L142.329 211.68C141.817 210.72 140.841 210.32 139.785 210.32C138.393 210.32 136.985 211.072 136.985 212.528C136.985 214.08 138.201 214.384 139.625 214.704C140.424 214.88 141.225 215.088 141.225 215.888C141.225 216.704 140.361 217.04 139.577 217.04C138.697 217.04 138.153 216.64 137.657 216.032L136.665 216.8Z" fill="#333333"/>
</g>
<rect x="0.5" y="228.5" width="399" height="35" rx="3.5" fill="white"/>
<path d="M17.0611 244.336C17.0611 246.912 17.7811 250.192 20.9011 250.192C24.0211 250.192 24.7411 246.912 24.7411 244.336C24.7411 241.76 24.0211 238.48 20.9011 238.48C17.7811 238.48 17.0611 241.76 17.0611 244.336ZM18.4051 244.336C18.4051 242.672 18.6611 239.632 20.9011 239.632C23.1411 239.632 23.3971 242.672 23.3971 244.336C23.3971 246 23.1411 249.04 20.9011 249.04C18.6611 249.04 18.4051 246 18.4051 244.336ZM31.1038 238.672H29.9358L26.8958 241.136L27.6957 242.112L29.7278 240.4H29.7598V250H31.1038V238.672ZM44.9915 238.672H43.6475V246.608C43.6475 247.84 43.3115 249.04 41.7755 249.04C40.8315 249.04 40.2555 248.48 40.0795 247.584L38.7355 247.856C39.0235 249.472 40.1595 250.288 41.7595 250.288C44.1755 250.288 44.9915 248.592 44.9915 247.072V238.672ZM48.2783 244.288C48.8703 243.744 49.7023 243.472 50.5023 243.472C51.6703 243.472 52.3583 244.032 52.3583 245.12V245.344H51.8783C50.0383 245.344 47.1583 245.488 47.1583 247.968C47.1583 249.424 48.4223 250.192 49.9423 250.192C51.0783 250.192 51.9103 249.648 52.4063 248.88H52.4383C52.4383 249.2 52.4383 249.664 52.5183 250H53.7183C53.6543 249.616 53.6063 249.136 53.6063 248.704V245.488C53.6063 243.376 52.6783 242.32 50.4703 242.32C49.3823 242.32 48.2623 242.688 47.4943 243.472L48.2783 244.288ZM52.3583 246.4V246.88C52.3263 248.096 51.5903 249.136 50.1503 249.136C49.2063 249.136 48.5023 248.784 48.5023 247.84C48.5023 246.832 49.5263 246.4 51.1102 246.4H52.3583ZM55.8871 250H57.1351V246.352C57.1351 244.64 57.8391 243.472 59.4551 243.472C60.6231 243.472 61.1671 244.256 61.1671 245.504V250H62.4151V245.376C62.4151 243.568 61.5351 242.32 59.5671 242.32C58.3351 242.32 57.4071 243.008 57.0711 243.744H57.0391C57.0391 243.328 57.0071 242.912 57.0071 242.512H55.8231C55.8231 243.008 55.8871 243.6 55.8871 244.288V250ZM68.8469 250H76.1429V248.752H70.3669V248.72L73.8549 245.44C74.9909 244.368 76.0629 243.36 76.0629 241.552C76.0629 239.536 74.4789 238.48 72.6069 238.48C70.7829 238.48 69.3589 239.456 69.0549 241.312L70.5109 241.44C70.7189 240.352 71.5189 239.632 72.6549 239.632C73.7909 239.632 74.7189 240.368 74.7189 241.552C74.7189 242.656 74.1909 243.264 73.1189 244.304L68.8469 248.464V250ZM77.5455 244.336C77.5455 246.912 78.2655 250.192 81.3855 250.192C84.5055 250.192 85.2255 246.912 85.2255 244.336C85.2255 241.76 84.5055 238.48 81.3855 238.48C78.2655 238.48 77.5455 241.76 77.5455 244.336ZM78.8895 244.336C78.8895 242.672 79.1455 239.632 81.3855 239.632C83.6255 239.632 83.8815 242.672 83.8815 244.336C83.8815 246 83.6255 249.04 81.3855 249.04C79.1455 249.04 78.8895 246 78.8895 244.336ZM86.6281 250H93.9241V248.752H88.1481V248.72L91.6361 245.44C92.7721 244.368 93.8441 243.36 93.8441 241.552C93.8441 239.536 92.2601 238.48 90.3881 238.48C88.5641 238.48 87.1401 239.456 86.8361 241.312L88.2921 241.44C88.5001 240.352 89.3001 239.632 90.4361 239.632C91.5721 239.632 92.5001 240.368 92.5001 241.552C92.5001 242.656 91.9721 243.264 90.9001 244.304L86.6281 248.464V250ZM95.5188 250H102.815V248.752H97.0388V248.72L100.527 245.44C101.663 244.368 102.735 243.36 102.735 241.552C102.735 239.536 101.151 238.48 99.2788 238.48C97.4548 238.48 96.0308 239.456 95.7268 241.312L97.1828 241.44C97.3908 240.352 98.1908 239.632 99.3268 239.632C100.463 239.632 101.391 240.368 101.391 241.552C101.391 242.656 100.863 243.264 99.7908 244.304L95.5188 248.464V250Z" fill="#333333"/>
<path d="M382.332 240.333H381.499V239.5C381.499 239.367 381.446 239.24 381.352 239.146C381.259 239.053 381.132 239 380.999 239C380.866 239 380.739 239.053 380.645 239.146C380.552 239.24 380.499 239.367 380.499 239.5V240.333H377.499V239.5C377.499 239.367 377.446 239.24 377.352 239.146C377.259 239.053 377.132 239 376.999 239C376.866 239 376.739 239.053 376.645 239.146C376.552 239.24 376.499 239.367 376.499 239.5V240.333H375.666C375.179 240.333 374.713 240.526 374.369 240.87C374.025 241.214 373.832 241.68 373.832 242.167V249.5C373.832 249.986 374.025 250.453 374.369 250.796C374.713 251.14 375.179 251.333 375.666 251.333H382.332C382.819 251.333 383.285 251.14 383.629 250.796C383.972 250.453 384.166 249.986 384.166 249.5V242.167C384.166 241.68 383.972 241.214 383.629 240.87C383.285 240.526 382.819 240.333 382.332 240.333ZM375.666 241.333H376.499V242.167C376.499 242.299 376.552 242.426 376.645 242.52C376.739 242.614 376.866 242.667 376.999 242.667C377.132 242.667 377.259 242.614 377.352 242.52C377.446 242.426 377.499 242.299 377.499 242.167V241.333H380.499V242.167C380.499 242.299 380.552 242.426 380.645 242.52C380.739 242.614 380.866 242.667 380.999 242.667C381.132 242.667 381.259 242.614 381.352 242.52C381.446 242.426 381.499 242.299 381.499 242.167V241.333H382.332C382.553 241.333 382.765 241.421 382.922 241.577C383.078 241.734 383.166 241.946 383.166 242.167V244H374.832V242.167C374.832 241.946 374.92 241.734 375.076 241.577C375.233 241.421 375.445 241.333 375.666 241.333V241.333ZM382.332 250.333H375.666C375.445 250.333 375.233 250.246 375.076 250.089C374.92 249.933 374.832 249.721 374.832 249.5V245H383.166V249.5C383.166 249.721 383.078 249.933 382.922 250.089C382.765 250.246 382.553 250.333 382.332 250.333Z" fill="#6C3078"/>
<rect x="0.5" y="228.5" width="399" height="35" rx="3.5" stroke="#9EA6B5"/>
<rect x="0.5" y="280.5" width="106" height="35" rx="3.5" fill="#6C3078"/>
<path d="M21.106 302H24.802C27.182 302 30.052 300.432 30.052 297.044C30.052 293.684 27.616 292.088 25.012 292.088H21.106V302ZM22.87 300.404V293.684H24.48C26.636 293.684 28.204 294.636 28.204 297.044C28.204 299.452 26.398 300.404 24.186 300.404H22.87ZM31.239 298.64C31.239 300.754 32.863 302.168 34.893 302.168C36.923 302.168 38.547 300.754 38.547 298.64C38.547 296.526 36.923 295.112 34.893 295.112C32.863 295.112 31.239 296.526 31.239 298.64ZM32.919 298.64C32.919 297.59 33.661 296.624 34.893 296.624C36.125 296.624 36.867 297.59 36.867 298.64C36.867 299.69 36.125 300.656 34.893 300.656C33.661 300.656 32.919 299.69 32.919 298.64ZM41.548 302H43.284L44.698 297.408H44.726L46.322 302H47.988L50.27 295.28H48.576L47.176 299.984H47.148L45.692 295.28H43.872L42.514 299.984H42.486L41.03 295.28H39.21L41.548 302ZM51.2625 302H52.9425V298.332C52.9425 297.436 53.3765 296.624 54.4825 296.624C55.6585 296.624 55.7145 297.856 55.7145 298.598V302H57.3945V297.758C57.3945 296.386 56.7505 295.112 54.9445 295.112C53.8245 295.112 53.1945 295.686 52.8865 296.358H52.8585V295.28H51.2625V302ZM59.3296 302H61.0096V291.416H59.3296V302ZM62.6023 298.64C62.6023 300.754 64.2263 302.168 66.2563 302.168C68.2863 302.168 69.9103 300.754 69.9103 298.64C69.9103 296.526 68.2863 295.112 66.2563 295.112C64.2263 295.112 62.6023 296.526 62.6023 298.64ZM64.2823 298.64C64.2823 297.59 65.0243 296.624 66.2563 296.624C67.4883 296.624 68.2303 297.59 68.2303 298.64C68.2303 299.69 67.4883 300.656 66.2563 300.656C65.0243 300.656 64.2823 299.69 64.2823 298.64ZM75.6833 302H77.1953V298.136C77.1953 297.184 77.1953 295.112 74.3253 295.112C73.2613 295.112 72.2113 295.434 71.4693 296.19L72.3513 297.072C72.7993 296.652 73.4433 296.372 74.1433 296.372C75.0393 296.372 75.6833 296.806 75.6833 297.632V297.814H75.2633C73.5833 297.814 71.0353 297.968 71.0353 300.152C71.0353 301.482 72.2393 302.168 73.4853 302.168C74.3813 302.168 75.1653 301.832 75.6413 301.076H75.6833V302ZM75.5853 299.368C75.5853 300.306 75.0393 300.908 73.8913 300.908C73.3453 300.908 72.7153 300.642 72.7153 300.026C72.7153 299.06 74.3113 298.99 75.2353 298.99H75.5853V299.368ZM84.3228 302H85.9188V291.416H84.2388V296.134H84.1968C83.8468 295.7 83.1748 295.112 81.9148 295.112C79.9968 295.112 78.6668 296.652 78.6668 298.64C78.6668 300.628 79.9128 302.168 81.9848 302.168C82.9228 302.168 83.8048 301.804 84.2948 300.992H84.3228V302ZM80.3468 298.64C80.3468 297.59 81.0888 296.624 82.3208 296.624C83.5528 296.624 84.2948 297.59 84.2948 298.64C84.2948 299.69 83.5528 300.656 82.3208 300.656C81.0888 300.656 80.3468 299.69 80.3468 298.64Z" fill="white"/>
<rect x="0.5" y="280.5" width="106" height="35" rx="3.5" stroke="#6C3078"/>
<defs>
<clipPath id="clip0_45_11175">
<rect width="127" height="24" fill="white" transform="translate(0 120)"/>
</clipPath>
<clipPath id="clip1_45_11175">
<rect width="144" height="24" fill="white" transform="translate(0 200)"/>
</clipPath>
</defs>
</svg>
