<svg width="280" height="185" viewBox="0 0 280 185" fill="none" xmlns="http://www.w3.org/2000/svg">
<path d="M21.3499 24H29.1419V22.176H23.3659V19.104H28.5659V17.28H23.3659V14.496H28.8539V12.672H21.3499V24ZM30.9872 24H32.9072V11.904H30.9872V24ZM42.5034 20.832V20.304C42.5034 17.632 41.0474 16.128 38.9034 16.128C36.5834 16.128 34.7274 17.744 34.7274 20.16C34.7274 22.576 36.5834 24.192 38.9034 24.192C40.1194 24.192 41.2554 23.76 42.1514 22.656L40.7754 21.616C40.2954 22.208 39.6714 22.656 38.7114 22.656C37.6394 22.656 36.7754 21.968 36.6474 20.832H42.5034ZM36.6474 19.392C36.7914 18.288 37.4954 17.568 38.6314 17.568C39.8314 17.568 40.5674 18.272 40.5834 19.392H36.6474ZM50.8749 17.296C50.1389 16.48 49.0669 16.128 48.0909 16.128C45.7709 16.128 43.9149 17.744 43.9149 20.16C43.9149 22.576 45.7709 24.192 48.0909 24.192C48.7629 24.192 50.0749 23.904 50.8589 23.12L49.5789 21.744C49.2269 22.208 48.6829 22.464 48.0909 22.464C46.6829 22.464 45.8349 21.36 45.8349 20.16C45.8349 18.96 46.6829 17.856 48.0909 17.856C48.6029 17.856 49.0989 18.16 49.5469 18.624L50.8749 17.296ZM52.7057 17.952V21.472C52.7057 23.28 53.1857 24.192 55.2177 24.192C55.6657 24.192 56.3377 24.128 56.7377 23.936V22.32C56.4977 22.496 56.0337 22.56 55.6977 22.56C54.8497 22.56 54.6257 22.08 54.6257 21.312V17.952H56.7377V16.32H54.6257V14.096H52.7057V16.32H51.1217V17.952H52.7057ZM58.2364 24H60.1564V19.888C60.1564 19.472 60.4124 17.952 62.2204 17.952C62.5244 17.952 62.8284 18.016 63.1484 18.096V16.24C62.9244 16.176 62.7004 16.128 62.4604 16.128C61.4524 16.128 60.6044 16.656 60.1884 17.536H60.1564V16.32H58.2364V24ZM64.4872 24H66.4072V16.32H64.4872V24ZM64.2152 13.712C64.2152 14.32 64.7272 14.864 65.4312 14.864C66.1352 14.864 66.6792 14.368 66.6792 13.712C66.6792 13.056 66.1352 12.56 65.4312 12.56C64.7272 12.56 64.2152 13.104 64.2152 13.712ZM75.1874 17.296C74.4514 16.48 73.3794 16.128 72.4034 16.128C70.0834 16.128 68.2274 17.744 68.2274 20.16C68.2274 22.576 70.0834 24.192 72.4034 24.192C73.0754 24.192 74.3874 23.904 75.1714 23.12L73.8914 21.744C73.5394 22.208 72.9954 22.464 72.4034 22.464C70.9954 22.464 70.1474 21.36 70.1474 20.16C70.1474 18.96 70.9954 17.856 72.4034 17.856C72.9154 17.856 73.4114 18.16 73.8594 18.624L75.1874 17.296ZM76.3622 24H78.2822V16.32H76.3622V24ZM76.0902 13.712C76.0902 14.32 76.6022 14.864 77.3062 14.864C78.0102 14.864 78.5542 14.368 78.5542 13.712C78.5542 13.056 78.0102 12.56 77.3062 12.56C76.6022 12.56 76.0902 13.104 76.0902 13.712ZM81.1744 17.952V21.472C81.1744 23.28 81.6544 24.192 83.6864 24.192C84.1344 24.192 84.8064 24.128 85.2064 23.936V22.32C84.9664 22.496 84.5024 22.56 84.1664 22.56C83.3184 22.56 83.0944 22.08 83.0944 21.312V17.952H85.2064V16.32H83.0944V14.096H81.1744V16.32H79.5904V17.952H81.1744ZM88.9452 24.064L88.5772 24.976C88.2572 25.776 88.0012 26.112 87.0572 26.112C86.7212 26.112 86.3852 26.032 86.0812 25.92L85.8412 27.648C86.3212 27.776 86.8172 27.84 87.3132 27.84C89.0092 27.84 89.6812 27.088 90.2412 25.648L93.8732 16.32H91.8732L89.9532 21.648H89.9212L87.7772 16.32H85.6652L88.9452 24.064Z" fill="#616C7F"/>
<path d="M113.782 24H115.638L118.262 15.376H118.294L120.918 24H122.838L126.134 12.672H124.086L121.862 20.832H121.83L119.334 12.672H117.35L114.806 20.832H114.774L112.646 12.672H110.438L113.782 24ZM127.261 24H129.181V16.32H127.261V24ZM126.989 13.712C126.989 14.32 127.501 14.864 128.205 14.864C128.909 14.864 129.453 14.368 129.453 13.712C129.453 13.056 128.909 12.56 128.205 12.56C127.501 12.56 126.989 13.104 126.989 13.712ZM131.385 24H133.305V19.808C133.305 18.784 133.801 17.856 135.065 17.856C136.409 17.856 136.473 19.264 136.473 20.112V24H138.393V19.152C138.393 17.584 137.657 16.128 135.593 16.128C134.313 16.128 133.593 16.784 133.241 17.552H133.209V16.32H131.385V24ZM146.652 24H148.476V11.904H146.556V17.296H146.508C146.108 16.8 145.34 16.128 143.9 16.128C141.708 16.128 140.188 17.888 140.188 20.16C140.188 22.432 141.612 24.192 143.98 24.192C145.052 24.192 146.06 23.776 146.62 22.848H146.652V24ZM142.108 20.16C142.108 18.96 142.956 17.856 144.364 17.856C145.772 17.856 146.62 18.96 146.62 20.16C146.62 21.36 145.772 22.464 144.364 22.464C142.956 22.464 142.108 21.36 142.108 20.16Z" fill="#6C3078"/>
<rect x="110" y="39" width="40" height="2" rx="1" fill="#6C3078"/>
<path d="M176.874 14.176C175.754 12.88 174.442 12.384 172.906 12.384C169.418 12.384 166.922 14.752 166.922 18.384C166.922 21.92 169.418 24.288 172.906 24.288C174.57 24.288 176.106 23.68 177.13 22.272L175.466 21.088C174.714 22.048 173.834 22.464 172.922 22.464C170.586 22.464 169.034 20.672 169.034 18.256C169.034 16 170.586 14.208 172.922 14.208C173.706 14.208 174.474 14.448 175.306 15.328L176.874 14.176ZM177.923 20.16C177.923 22.576 179.779 24.192 182.099 24.192C184.419 24.192 186.275 22.576 186.275 20.16C186.275 17.744 184.419 16.128 182.099 16.128C179.779 16.128 177.923 17.744 177.923 20.16ZM179.843 20.16C179.843 18.96 180.691 17.856 182.099 17.856C183.507 17.856 184.355 18.96 184.355 20.16C184.355 21.36 183.507 22.464 182.099 22.464C180.691 22.464 179.843 21.36 179.843 20.16ZM192.872 24H194.6V19.584C194.6 18.496 194.6 16.128 191.32 16.128C190.104 16.128 188.904 16.496 188.056 17.36L189.064 18.368C189.576 17.888 190.312 17.568 191.112 17.568C192.136 17.568 192.872 18.064 192.872 19.008V19.216H192.392C190.472 19.216 187.56 19.392 187.56 21.888C187.56 23.408 188.936 24.192 190.36 24.192C191.384 24.192 192.28 23.808 192.824 22.944H192.872V24ZM192.76 20.992C192.76 22.064 192.136 22.752 190.824 22.752C190.2 22.752 189.48 22.448 189.48 21.744C189.48 20.64 191.304 20.56 192.36 20.56H192.76V20.992ZM196.698 24H198.618V11.904H196.698V24Z" fill="#616C7F"/>
<path d="M200 40H20V42H200V40Z" fill="#D2D6DD" mask="url(#path-1-inside-1_43_11023)"/>
<path d="M25.4256 86H28.6416L32.3856 74.24H32.4336L36.1776 86H39.5136L44.4816 69.008H40.6896L37.8336 80.192H37.7856L34.2576 69.008H30.7776L27.2256 79.904H27.1776L24.4656 69.008H20.3856L25.4256 86ZM45.7536 86H49.3536V74.336H45.7536V86ZM45.4656 70.664C45.4656 71.816 46.4016 72.752 47.5536 72.752C48.7056 72.752 49.6416 71.816 49.6416 70.664C49.6416 69.512 48.7056 68.576 47.5536 68.576C46.4016 68.576 45.4656 69.512 45.4656 70.664ZM51.94 86H55.54V80.192C55.54 78.68 55.828 77.216 57.7 77.216C59.548 77.216 59.572 78.944 59.572 80.288V86H63.172V79.568C63.172 76.448 62.5 74.048 58.852 74.048C57.1 74.048 55.924 75.008 55.444 75.92H55.396V74.336H51.94V86ZM77.9612 67.856H74.3612V75.584H74.3132C73.4972 74.456 72.1052 74.048 70.6172 74.048C67.3052 74.048 65.2892 77.024 65.2892 80.264C65.2892 83.792 67.5692 86.288 71.0252 86.288C72.6572 86.288 74.0492 85.304 74.6012 84.464H74.6492V86H77.9612V67.856ZM74.6492 80.168C74.6492 81.92 73.5692 83.12 71.7692 83.12C69.9692 83.12 68.8892 81.92 68.8892 80.168C68.8892 78.416 69.9692 77.216 71.7692 77.216C73.5692 77.216 74.6492 78.416 74.6492 80.168Z" fill="black"/>
<g clip-path="url(#clip0_43_11023)">
<path d="M58.63 182.93V141.57" stroke="#6C3078" stroke-width="1.5" stroke-linecap="round" stroke-linejoin="round"/>
<path d="M67.6499 107.75L60.1899 131.33" stroke="#6C3078" stroke-width="1.5" stroke-linecap="round" stroke-linejoin="round"/>
<path d="M62.03 140.11L76.96 158.9" stroke="#6C3078" stroke-width="1.5" stroke-linecap="round" stroke-linejoin="round"/>
<path d="M31.75 142.08L53.66 137.1" stroke="#6C3078" stroke-width="1.5" stroke-linecap="round" stroke-linejoin="round"/>
<path d="M61.3 136.18C61.302 136.711 61.1463 137.23 60.8526 137.673C60.5588 138.115 60.1404 138.46 59.6503 138.664C59.1602 138.868 58.6205 138.922 58.0997 138.819C57.5789 138.716 57.1004 138.46 56.725 138.085C56.3496 137.71 56.0942 137.231 55.9911 136.71C55.888 136.19 55.9419 135.65 56.146 135.16C56.3501 134.67 56.6951 134.251 57.1374 133.958C57.5796 133.664 58.0991 133.508 58.63 133.51C59.3374 133.513 60.015 133.795 60.5151 134.295C61.0153 134.795 61.2974 135.473 61.3 136.18V136.18Z" fill="#A4519B" stroke="#A4519B"/>
<path d="M94.6 152.66C94.604 153.191 94.4499 153.712 94.1574 154.155C93.8649 154.599 93.4472 154.946 92.9572 155.151C92.4673 155.357 91.9273 155.412 91.4059 155.31C90.8844 155.208 90.405 154.954 90.0286 154.579C89.6522 154.204 89.3958 153.725 89.2919 153.204C89.188 152.683 89.2413 152.143 89.4451 151.652C89.6488 151.161 89.9939 150.742 90.4363 150.448C90.8788 150.154 91.3987 149.998 91.93 150C92.6364 150 93.3141 150.28 93.8145 150.779C94.3149 151.277 94.5974 151.954 94.6 152.66V152.66Z" fill="#A4519B" stroke="#A4519B"/>
<path d="M84.14 132.45L89.81 147.78" stroke="#6C3078" stroke-width="1.5" stroke-linecap="round" stroke-linejoin="round"/>
<path d="M88.61 156.92L78.36 171.19" stroke="#6C3078" stroke-width="1.5" stroke-linecap="round" stroke-linejoin="round"/>
<path d="M97.1 154.01L113.09 157.44" stroke="#6C3078" stroke-width="1.5" stroke-linecap="round" stroke-linejoin="round"/>
<path d="M91.9301 157.99V183.69" stroke="#6C3078" stroke-width="1.5" stroke-linecap="round" stroke-linejoin="round"/>
</g>
<rect x="20.5" y="95.5" width="239" height="89" rx="7.5" stroke="#D2D6DD"/>
<defs>
<clipPath id="clip0_43_11023">
<rect width="82.84" height="77.44" fill="white" transform="translate(31 107)"/>
</clipPath>
</defs>
</svg>
