<svg width="1036" height="198" viewBox="0 0 1036 198" fill="none" xmlns="http://www.w3.org/2000/svg">
<path d="M7.252 2.858C6.482 2.13 5.446 1.836 4.41 1.836C2.576 1.836 0.756 2.788 0.756 4.832C0.756 8.374 5.46 7.128 5.46 9.298C5.46 10.208 4.536 10.656 3.724 10.656C2.94 10.656 2.198 10.278 1.764 9.62L0.434 10.908C1.246 11.874 2.45 12.252 3.682 12.252C5.628 12.252 7.308 11.216 7.308 9.088C7.308 5.56 2.604 6.694 2.604 4.706C2.604 3.796 3.416 3.432 4.228 3.432C4.914 3.432 5.586 3.684 5.964 4.216L7.252 2.858ZM9.01906 12H10.6991V5.28H9.01906V12ZM8.78106 2.998C8.78106 3.53 9.22906 4.006 9.84506 4.006C10.4611 4.006 10.9371 3.572 10.9371 2.998C10.9371 2.424 10.4611 1.99 9.84506 1.99C9.22906 1.99 8.78106 2.466 8.78106 2.998ZM12.1518 12H17.9478V10.656H14.1398L17.7798 6.806V5.28H12.3198V6.624H15.7498V6.652L12.1518 10.446V12ZM25.8497 9.228V8.766C25.8497 6.428 24.5757 5.112 22.6997 5.112C20.6697 5.112 19.0457 6.526 19.0457 8.64C19.0457 10.754 20.6697 12.168 22.6997 12.168C23.7637 12.168 24.7577 11.79 25.5417 10.824L24.3377 9.914C23.9177 10.432 23.3717 10.824 22.5317 10.824C21.5937 10.824 20.8377 10.222 20.7257 9.228H25.8497ZM20.7257 7.968C20.8517 7.002 21.4677 6.372 22.4617 6.372C23.5117 6.372 24.1557 6.988 24.1697 7.968H20.7257ZM27.4208 11.02C27.4208 11.622 27.9528 12.084 28.5408 12.084C29.1568 12.084 29.6608 11.594 29.6608 10.992C29.6608 10.39 29.1428 9.928 28.5408 9.928C27.9248 9.928 27.4208 10.418 27.4208 11.02ZM27.4208 6.274C27.4208 6.876 27.9528 7.338 28.5408 7.338C29.1568 7.338 29.6608 6.848 29.6608 6.246C29.6608 5.644 29.1428 5.182 28.5408 5.182C27.9248 5.182 27.4208 5.672 27.4208 6.274ZM35.8599 12H39.5559C41.9359 12 44.8059 10.432 44.8059 7.044C44.8059 3.684 42.3699 2.088 39.7659 2.088H35.8599V12ZM37.6239 10.404V3.684H39.2339C41.3899 3.684 42.9579 4.636 42.9579 7.044C42.9579 9.452 41.1519 10.404 38.9399 10.404H37.6239ZM52.797 9.228V8.766C52.797 6.428 51.523 5.112 49.647 5.112C47.617 5.112 45.993 6.526 45.993 8.64C45.993 10.754 47.617 12.168 49.647 12.168C50.711 12.168 51.705 11.79 52.489 10.824L51.285 9.914C50.865 10.432 50.319 10.824 49.479 10.824C48.541 10.824 47.785 10.222 47.673 9.228H52.797ZM47.673 7.968C47.799 7.002 48.415 6.372 49.409 6.372C50.459 6.372 51.103 6.988 51.117 7.968H47.673ZM54.97 12H56.65V6.708H58.204V5.28H56.65V4.062C56.65 3.32 56.79 2.676 57.728 2.676C57.966 2.676 58.19 2.718 58.428 2.774L58.54 1.346C58.19 1.276 57.84 1.248 57.476 1.248C55.39 1.248 54.97 2.466 54.97 4.328V5.28H53.584V6.708H54.97V12ZM63.4899 12H65.0019V8.136C65.0019 7.184 65.0019 5.112 62.1319 5.112C61.0679 5.112 60.0179 5.434 59.2759 6.19L60.1579 7.072C60.6059 6.652 61.2499 6.372 61.9499 6.372C62.8459 6.372 63.4899 6.806 63.4899 7.632V7.814H63.0699C61.3899 7.814 58.8419 7.968 58.8419 10.152C58.8419 11.482 60.0459 12.168 61.2919 12.168C62.1879 12.168 62.9719 11.832 63.4479 11.076H63.4899V12ZM63.3919 9.368C63.3919 10.306 62.8459 10.908 61.6979 10.908C61.1519 10.908 60.5219 10.642 60.5219 10.026C60.5219 9.06 62.1179 8.99 63.0419 8.99H63.3919V9.368ZM72.9414 5.28H71.2614V8.948C71.2614 9.844 70.8274 10.656 69.7214 10.656C68.5454 10.656 68.4894 9.424 68.4894 8.682V5.28H66.8094V9.522C66.8094 10.894 67.4534 12.168 69.2594 12.168C70.3794 12.168 71.0094 11.594 71.3174 10.922H71.3454V12H72.9414V5.28ZM74.8765 12H76.5565V1.416H74.8765V12ZM79.0872 6.708V9.788C79.0872 11.37 79.5072 12.168 81.2852 12.168C81.6772 12.168 82.2652 12.112 82.6152 11.944V10.53C82.4052 10.684 81.9992 10.74 81.7052 10.74C80.9632 10.74 80.7672 10.32 80.7672 9.648V6.708H82.6152V5.28H80.7672V3.334H79.0872V5.28H77.7012V6.708H79.0872ZM3.136 29H4.9V20.684H7.938V19.088H0.098V20.684H3.136V29ZM11.7965 29H13.3085V25.136C13.3085 24.184 13.3085 22.112 10.4385 22.112C9.37453 22.112 8.32453 22.434 7.58253 23.19L8.46453 24.072C8.91253 23.652 9.55653 23.372 10.2565 23.372C11.1525 23.372 11.7965 23.806 11.7965 24.632V24.814H11.3765C9.69653 24.814 7.14853 24.968 7.14853 27.152C7.14853 28.482 8.35253 29.168 9.59853 29.168C10.4945 29.168 11.2785 28.832 11.7545 28.076H11.7965V29ZM11.6985 26.368C11.6985 27.306 11.1525 27.908 10.0045 27.908C9.45853 27.908 8.82853 27.642 8.82853 27.026C8.82853 26.06 10.4245 25.99 11.3485 25.99H11.6985V26.368ZM15.1161 29H16.7121V27.992H16.7401C17.2301 28.804 18.1121 29.168 19.0501 29.168C21.1221 29.168 22.3681 27.628 22.3681 25.64C22.3681 23.652 21.0381 22.112 19.1201 22.112C17.8601 22.112 17.1881 22.7 16.8381 23.134H16.7961V18.416H15.1161V29ZM20.6881 25.64C20.6881 26.69 19.9461 27.656 18.7141 27.656C17.4821 27.656 16.7401 26.69 16.7401 25.64C16.7401 24.59 17.4821 23.624 18.7141 23.624C19.9461 23.624 20.6881 24.59 20.6881 25.64ZM36.407 20.404C35.427 19.27 34.279 18.836 32.935 18.836C29.883 18.836 27.699 20.908 27.699 24.086C27.699 27.18 29.883 29.252 32.935 29.252C34.391 29.252 35.735 28.72 36.631 27.488L35.175 26.452C34.517 27.292 33.747 27.656 32.949 27.656C30.905 27.656 29.547 26.088 29.547 23.974C29.547 22 30.905 20.432 32.949 20.432C33.635 20.432 34.307 20.642 35.035 21.412L36.407 20.404ZM37.325 25.64C37.325 27.754 38.949 29.168 40.979 29.168C43.009 29.168 44.633 27.754 44.633 25.64C44.633 23.526 43.009 22.112 40.979 22.112C38.949 22.112 37.325 23.526 37.325 25.64ZM39.005 25.64C39.005 24.59 39.747 23.624 40.979 23.624C42.211 23.624 42.953 24.59 42.953 25.64C42.953 26.69 42.211 27.656 40.979 27.656C39.747 27.656 39.005 26.69 39.005 25.64ZM52.3379 22.28H50.6579V25.948C50.6579 26.844 50.2239 27.656 49.1179 27.656C47.9419 27.656 47.8859 26.424 47.8859 25.682V22.28H46.2059V26.522C46.2059 27.894 46.8499 29.168 48.6559 29.168C49.7759 29.168 50.4059 28.594 50.7139 27.922H50.7419V29H52.3379V22.28ZM54.245 29H55.925V25.332C55.925 24.436 56.359 23.624 57.465 23.624C58.641 23.624 58.697 24.856 58.697 25.598V29H60.377V24.758C60.377 23.386 59.733 22.112 57.927 22.112C56.807 22.112 56.177 22.686 55.869 23.358H55.841V22.28H54.245V29ZM62.886 23.708V26.788C62.886 28.37 63.306 29.168 65.084 29.168C65.476 29.168 66.064 29.112 66.414 28.944V27.53C66.204 27.684 65.798 27.74 65.504 27.74C64.762 27.74 64.566 27.32 64.566 26.648V23.708H66.414V22.28H64.566V20.334H62.886V22.28H61.5V23.708H62.886ZM67.7254 28.02C67.7254 28.622 68.2574 29.084 68.8454 29.084C69.4614 29.084 69.9654 28.594 69.9654 27.992C69.9654 27.39 69.4474 26.928 68.8454 26.928C68.2294 26.928 67.7254 27.418 67.7254 28.02ZM67.7254 23.274C67.7254 23.876 68.2574 24.338 68.8454 24.338C69.4614 24.338 69.9654 23.848 69.9654 23.246C69.9654 22.644 69.4474 22.182 68.8454 22.182C68.2294 22.182 67.7254 22.672 67.7254 23.274ZM78.1666 24.59H78.5726C79.5946 24.59 80.7706 24.814 80.7706 26.102C80.7706 27.026 80.0006 27.656 79.1046 27.656C78.2086 27.656 77.7046 27.18 77.4946 26.368L75.7026 26.844C76.1366 28.496 77.4806 29.168 79.1046 29.168C80.8686 29.168 82.4506 28.132 82.4506 26.242C82.4506 25.024 81.7786 24.016 80.5186 23.834V23.806C81.5686 23.54 82.2126 22.63 82.2126 21.566C82.2126 19.816 80.7426 18.92 79.0346 18.92C77.5786 18.92 76.2906 19.578 75.8566 21.048L77.6346 21.524C77.8726 20.838 78.4466 20.432 79.1186 20.432C79.9446 20.432 80.5326 20.978 80.5326 21.734C80.5326 22.938 79.5666 23.078 78.6006 23.078H78.1666V24.59Z" fill="black"/>
<path d="M3.95119 74H5.96719V64.496H9.43919V62.672H0.479188V64.496H3.95119V74ZM13.8489 74H15.5769V69.584C15.5769 68.496 15.5769 66.128 12.2969 66.128C11.0809 66.128 9.88094 66.496 9.03294 67.36L10.0409 68.368C10.5529 67.888 11.2889 67.568 12.0889 67.568C13.1129 67.568 13.8489 68.064 13.8489 69.008V69.216H13.3689C11.4489 69.216 8.53694 69.392 8.53694 71.888C8.53694 73.408 9.91294 74.192 11.3369 74.192C12.3609 74.192 13.2569 73.808 13.8009 72.944H13.8489V74ZM13.7369 70.992C13.7369 72.064 13.1129 72.752 11.8009 72.752C11.1769 72.752 10.4569 72.448 10.4569 71.744C10.4569 70.64 12.2809 70.56 13.3369 70.56H13.7369V70.992ZM17.6427 74H19.4667V72.848H19.4987C20.0587 73.776 21.0667 74.192 22.1387 74.192C24.5067 74.192 25.9307 72.432 25.9307 70.16C25.9307 67.888 24.4107 66.128 22.2187 66.128C20.7787 66.128 20.0107 66.8 19.6107 67.296H19.5627V61.904H17.6427V74ZM24.0107 70.16C24.0107 71.36 23.1627 72.464 21.7547 72.464C20.3467 72.464 19.4987 71.36 19.4987 70.16C19.4987 68.96 20.3467 67.856 21.7547 67.856C23.1627 67.856 24.0107 68.96 24.0107 70.16Z" fill="#616C7F"/>
<path d="M46.9512 74H48.9672V64.496H52.4392V62.672H43.4792V64.496H46.9512V74ZM56.8489 74H58.5769V69.584C58.5769 68.496 58.5769 66.128 55.2969 66.128C54.0809 66.128 52.8809 66.496 52.0329 67.36L53.0409 68.368C53.5529 67.888 54.2889 67.568 55.0889 67.568C56.1129 67.568 56.8489 68.064 56.8489 69.008V69.216H56.3689C54.4489 69.216 51.5369 69.392 51.5369 71.888C51.5369 73.408 52.9129 74.192 54.3369 74.192C55.3609 74.192 56.2569 73.808 56.8009 72.944H56.8489V74ZM56.7369 70.992C56.7369 72.064 56.1129 72.752 54.8009 72.752C54.1769 72.752 53.4569 72.448 53.4569 71.744C53.4569 70.64 55.2809 70.56 56.3369 70.56H56.7369V70.992ZM60.6427 74H62.4667V72.848H62.4987C63.0587 73.776 64.0667 74.192 65.1387 74.192C67.5067 74.192 68.9307 72.432 68.9307 70.16C68.9307 67.888 67.4107 66.128 65.2187 66.128C63.7787 66.128 63.0107 66.8 62.6107 67.296H62.5627V61.904H60.6427V74ZM67.0107 70.16C67.0107 71.36 66.1627 72.464 64.7547 72.464C63.3467 72.464 62.4987 71.36 62.4987 70.16C62.4987 68.96 63.3467 67.856 64.7547 67.856C66.1627 67.856 67.0107 68.96 67.0107 70.16Z" fill="#6C3078"/>
<rect x="43" y="89" width="27" height="2" rx="1" fill="#6C3078"/>
<path d="M89.9512 74H91.9672V64.496H95.4392V62.672H86.4792V64.496H89.9512V74ZM99.8489 74H101.577V69.584C101.577 68.496 101.577 66.128 98.2969 66.128C97.0809 66.128 95.8809 66.496 95.0329 67.36L96.0409 68.368C96.5529 67.888 97.2889 67.568 98.0889 67.568C99.1129 67.568 99.8489 68.064 99.8489 69.008V69.216H99.3689C97.4489 69.216 94.5369 69.392 94.5369 71.888C94.5369 73.408 95.9129 74.192 97.3369 74.192C98.3609 74.192 99.2569 73.808 99.8009 72.944H99.8489V74ZM99.7369 70.992C99.7369 72.064 99.1129 72.752 97.8009 72.752C97.1769 72.752 96.4569 72.448 96.4569 71.744C96.4569 70.64 98.2809 70.56 99.3369 70.56H99.7369V70.992ZM103.643 74H105.467V72.848H105.499C106.059 73.776 107.067 74.192 108.139 74.192C110.507 74.192 111.931 72.432 111.931 70.16C111.931 67.888 110.411 66.128 108.219 66.128C106.779 66.128 106.011 66.8 105.611 67.296H105.563V61.904H103.643V74ZM110.011 70.16C110.011 71.36 109.163 72.464 107.755 72.464C106.347 72.464 105.499 71.36 105.499 70.16C105.499 68.96 106.347 67.856 107.755 67.856C109.163 67.856 110.011 68.96 110.011 70.16Z" fill="#616C7F"/>
<path d="M113 90H0V92H113V90Z" fill="#D2D6DD" mask="url(#path-2-inside-1_44_11203)"/>
<path d="M317.252 2.858C316.482 2.13 315.446 1.836 314.41 1.836C312.576 1.836 310.756 2.788 310.756 4.832C310.756 8.374 315.46 7.128 315.46 9.298C315.46 10.208 314.536 10.656 313.724 10.656C312.94 10.656 312.198 10.278 311.764 9.62L310.434 10.908C311.246 11.874 312.45 12.252 313.682 12.252C315.628 12.252 317.308 11.216 317.308 9.088C317.308 5.56 312.604 6.694 312.604 4.706C312.604 3.796 313.416 3.432 314.228 3.432C314.914 3.432 315.586 3.684 315.964 4.216L317.252 2.858ZM319.019 12H320.699V5.28H319.019V12ZM318.781 2.998C318.781 3.53 319.229 4.006 319.845 4.006C320.461 4.006 320.937 3.572 320.937 2.998C320.937 2.424 320.461 1.99 319.845 1.99C319.229 1.99 318.781 2.466 318.781 2.998ZM322.152 12H327.948V10.656H324.14L327.78 6.806V5.28H322.32V6.624H325.75V6.652L322.152 10.446V12ZM335.85 9.228V8.766C335.85 6.428 334.576 5.112 332.7 5.112C330.67 5.112 329.046 6.526 329.046 8.64C329.046 10.754 330.67 12.168 332.7 12.168C333.764 12.168 334.758 11.79 335.542 10.824L334.338 9.914C333.918 10.432 333.372 10.824 332.532 10.824C331.594 10.824 330.838 10.222 330.726 9.228H335.85ZM330.726 7.968C330.852 7.002 331.468 6.372 332.462 6.372C333.512 6.372 334.156 6.988 334.17 7.968H330.726ZM337.421 11.02C337.421 11.622 337.953 12.084 338.541 12.084C339.157 12.084 339.661 11.594 339.661 10.992C339.661 10.39 339.143 9.928 338.541 9.928C337.925 9.928 337.421 10.418 337.421 11.02ZM337.421 6.274C337.421 6.876 337.953 7.338 338.541 7.338C339.157 7.338 339.661 6.848 339.661 6.246C339.661 5.644 339.143 5.182 338.541 5.182C337.925 5.182 337.421 5.672 337.421 6.274ZM345.86 12H349.556C351.936 12 354.806 10.432 354.806 7.044C354.806 3.684 352.37 2.088 349.766 2.088H345.86V12ZM347.624 10.404V3.684H349.234C351.39 3.684 352.958 4.636 352.958 7.044C352.958 9.452 351.152 10.404 348.94 10.404H347.624ZM362.797 9.228V8.766C362.797 6.428 361.523 5.112 359.647 5.112C357.617 5.112 355.993 6.526 355.993 8.64C355.993 10.754 357.617 12.168 359.647 12.168C360.711 12.168 361.705 11.79 362.489 10.824L361.285 9.914C360.865 10.432 360.319 10.824 359.479 10.824C358.541 10.824 357.785 10.222 357.673 9.228H362.797ZM357.673 7.968C357.799 7.002 358.415 6.372 359.409 6.372C360.459 6.372 361.103 6.988 361.117 7.968H357.673ZM364.97 12H366.65V6.708H368.204V5.28H366.65V4.062C366.65 3.32 366.79 2.676 367.728 2.676C367.966 2.676 368.19 2.718 368.428 2.774L368.54 1.346C368.19 1.276 367.84 1.248 367.476 1.248C365.39 1.248 364.97 2.466 364.97 4.328V5.28H363.584V6.708H364.97V12ZM373.49 12H375.002V8.136C375.002 7.184 375.002 5.112 372.132 5.112C371.068 5.112 370.018 5.434 369.276 6.19L370.158 7.072C370.606 6.652 371.25 6.372 371.95 6.372C372.846 6.372 373.49 6.806 373.49 7.632V7.814H373.07C371.39 7.814 368.842 7.968 368.842 10.152C368.842 11.482 370.046 12.168 371.292 12.168C372.188 12.168 372.972 11.832 373.448 11.076H373.49V12ZM373.392 9.368C373.392 10.306 372.846 10.908 371.698 10.908C371.152 10.908 370.522 10.642 370.522 10.026C370.522 9.06 372.118 8.99 373.042 8.99H373.392V9.368ZM382.941 5.28H381.261V8.948C381.261 9.844 380.827 10.656 379.721 10.656C378.545 10.656 378.489 9.424 378.489 8.682V5.28H376.809V9.522C376.809 10.894 377.453 12.168 379.259 12.168C380.379 12.168 381.009 11.594 381.317 10.922H381.345V12H382.941V5.28ZM384.876 12H386.556V1.416H384.876V12ZM389.087 6.708V9.788C389.087 11.37 389.507 12.168 391.285 12.168C391.677 12.168 392.265 12.112 392.615 11.944V10.53C392.405 10.684 391.999 10.74 391.705 10.74C390.963 10.74 390.767 10.32 390.767 9.648V6.708H392.615V5.28H390.767V3.334H389.087V5.28H387.701V6.708H389.087ZM313.136 29H314.9V20.684H317.938V19.088H310.098V20.684H313.136V29ZM321.797 29H323.309V25.136C323.309 24.184 323.309 22.112 320.439 22.112C319.375 22.112 318.325 22.434 317.583 23.19L318.465 24.072C318.913 23.652 319.557 23.372 320.257 23.372C321.153 23.372 321.797 23.806 321.797 24.632V24.814H321.377C319.697 24.814 317.149 24.968 317.149 27.152C317.149 28.482 318.353 29.168 319.599 29.168C320.495 29.168 321.279 28.832 321.755 28.076H321.797V29ZM321.699 26.368C321.699 27.306 321.153 27.908 320.005 27.908C319.459 27.908 318.829 27.642 318.829 27.026C318.829 26.06 320.425 25.99 321.349 25.99H321.699V26.368ZM325.116 29H326.712V27.992H326.74C327.23 28.804 328.112 29.168 329.05 29.168C331.122 29.168 332.368 27.628 332.368 25.64C332.368 23.652 331.038 22.112 329.12 22.112C327.86 22.112 327.188 22.7 326.838 23.134H326.796V18.416H325.116V29ZM330.688 25.64C330.688 26.69 329.946 27.656 328.714 27.656C327.482 27.656 326.74 26.69 326.74 25.64C326.74 24.59 327.482 23.624 328.714 23.624C329.946 23.624 330.688 24.59 330.688 25.64ZM346.407 20.404C345.427 19.27 344.279 18.836 342.935 18.836C339.883 18.836 337.699 20.908 337.699 24.086C337.699 27.18 339.883 29.252 342.935 29.252C344.391 29.252 345.735 28.72 346.631 27.488L345.175 26.452C344.517 27.292 343.747 27.656 342.949 27.656C340.905 27.656 339.547 26.088 339.547 23.974C339.547 22 340.905 20.432 342.949 20.432C343.635 20.432 344.307 20.642 345.035 21.412L346.407 20.404ZM347.325 25.64C347.325 27.754 348.949 29.168 350.979 29.168C353.009 29.168 354.633 27.754 354.633 25.64C354.633 23.526 353.009 22.112 350.979 22.112C348.949 22.112 347.325 23.526 347.325 25.64ZM349.005 25.64C349.005 24.59 349.747 23.624 350.979 23.624C352.211 23.624 352.953 24.59 352.953 25.64C352.953 26.69 352.211 27.656 350.979 27.656C349.747 27.656 349.005 26.69 349.005 25.64ZM362.338 22.28H360.658V25.948C360.658 26.844 360.224 27.656 359.118 27.656C357.942 27.656 357.886 26.424 357.886 25.682V22.28H356.206V26.522C356.206 27.894 356.85 29.168 358.656 29.168C359.776 29.168 360.406 28.594 360.714 27.922H360.742V29H362.338V22.28ZM364.245 29H365.925V25.332C365.925 24.436 366.359 23.624 367.465 23.624C368.641 23.624 368.697 24.856 368.697 25.598V29H370.377V24.758C370.377 23.386 369.733 22.112 367.927 22.112C366.807 22.112 366.177 22.686 365.869 23.358H365.841V22.28H364.245V29ZM372.886 23.708V26.788C372.886 28.37 373.306 29.168 375.084 29.168C375.476 29.168 376.064 29.112 376.414 28.944V27.53C376.204 27.684 375.798 27.74 375.504 27.74C374.762 27.74 374.566 27.32 374.566 26.648V23.708H376.414V22.28H374.566V20.334H372.886V22.28H371.5V23.708H372.886ZM377.725 28.02C377.725 28.622 378.257 29.084 378.845 29.084C379.461 29.084 379.965 28.594 379.965 27.992C379.965 27.39 379.447 26.928 378.845 26.928C378.229 26.928 377.725 27.418 377.725 28.02ZM377.725 23.274C377.725 23.876 378.257 24.338 378.845 24.338C379.461 24.338 379.965 23.848 379.965 23.246C379.965 22.644 379.447 22.182 378.845 22.182C378.229 22.182 377.725 22.672 377.725 23.274ZM392.129 19.088H386.487L386.389 24.436C386.977 24.142 387.733 23.96 388.461 23.96C389.693 23.96 390.785 24.492 390.785 25.878C390.785 26.844 390.071 27.572 389.063 27.572C388.209 27.572 387.663 27.138 387.439 26.424L385.675 26.9C386.137 28.426 387.313 29.168 388.881 29.168C390.911 29.168 392.465 27.866 392.465 25.738C392.465 23.736 391.107 22.448 389.161 22.448C388.811 22.448 388.363 22.49 388.097 22.574L388.139 20.6H392.129V19.088Z" fill="black"/>
<path d="M313.951 74H315.967V64.496H319.439V62.672H310.479V64.496H313.951V74ZM323.849 74H325.577V69.584C325.577 68.496 325.577 66.128 322.297 66.128C321.081 66.128 319.881 66.496 319.033 67.36L320.041 68.368C320.553 67.888 321.289 67.568 322.089 67.568C323.113 67.568 323.849 68.064 323.849 69.008V69.216H323.369C321.449 69.216 318.537 69.392 318.537 71.888C318.537 73.408 319.913 74.192 321.337 74.192C322.361 74.192 323.257 73.808 323.801 72.944H323.849V74ZM323.737 70.992C323.737 72.064 323.113 72.752 321.801 72.752C321.177 72.752 320.457 72.448 320.457 71.744C320.457 70.64 322.281 70.56 323.337 70.56H323.737V70.992ZM327.643 74H329.467V72.848H329.499C330.059 73.776 331.067 74.192 332.139 74.192C334.507 74.192 335.931 72.432 335.931 70.16C335.931 67.888 334.411 66.128 332.219 66.128C330.779 66.128 330.011 66.8 329.611 67.296H329.563V61.904H327.643V74ZM334.011 70.16C334.011 71.36 333.163 72.464 331.755 72.464C330.347 72.464 329.499 71.36 329.499 70.16C329.499 68.96 330.347 67.856 331.755 67.856C333.163 67.856 334.011 68.96 334.011 70.16Z" fill="#616C7F"/>
<path d="M356.951 74H358.967V64.496H362.439V62.672H353.479V64.496H356.951V74ZM366.849 74H368.577V69.584C368.577 68.496 368.577 66.128 365.297 66.128C364.081 66.128 362.881 66.496 362.033 67.36L363.041 68.368C363.553 67.888 364.289 67.568 365.089 67.568C366.113 67.568 366.849 68.064 366.849 69.008V69.216H366.369C364.449 69.216 361.537 69.392 361.537 71.888C361.537 73.408 362.913 74.192 364.337 74.192C365.361 74.192 366.257 73.808 366.801 72.944H366.849V74ZM366.737 70.992C366.737 72.064 366.113 72.752 364.801 72.752C364.177 72.752 363.457 72.448 363.457 71.744C363.457 70.64 365.281 70.56 366.337 70.56H366.737V70.992ZM370.643 74H372.467V72.848H372.499C373.059 73.776 374.067 74.192 375.139 74.192C377.507 74.192 378.931 72.432 378.931 70.16C378.931 67.888 377.411 66.128 375.219 66.128C373.779 66.128 373.011 66.8 372.611 67.296H372.563V61.904H370.643V74ZM377.011 70.16C377.011 71.36 376.163 72.464 374.755 72.464C373.347 72.464 372.499 71.36 372.499 70.16C372.499 68.96 373.347 67.856 374.755 67.856C376.163 67.856 377.011 68.96 377.011 70.16Z" fill="#6C3078"/>
<rect x="353" y="89" width="27" height="2" rx="1" fill="#6C3078"/>
<path d="M399.951 74H401.967V64.496H405.439V62.672H396.479V64.496H399.951V74ZM409.849 74H411.577V69.584C411.577 68.496 411.577 66.128 408.297 66.128C407.081 66.128 405.881 66.496 405.033 67.36L406.041 68.368C406.553 67.888 407.289 67.568 408.089 67.568C409.113 67.568 409.849 68.064 409.849 69.008V69.216H409.369C407.449 69.216 404.537 69.392 404.537 71.888C404.537 73.408 405.913 74.192 407.337 74.192C408.361 74.192 409.257 73.808 409.801 72.944H409.849V74ZM409.737 70.992C409.737 72.064 409.113 72.752 407.801 72.752C407.177 72.752 406.457 72.448 406.457 71.744C406.457 70.64 408.281 70.56 409.337 70.56H409.737V70.992ZM413.643 74H415.467V72.848H415.499C416.059 73.776 417.067 74.192 418.139 74.192C420.507 74.192 421.931 72.432 421.931 70.16C421.931 67.888 420.411 66.128 418.219 66.128C416.779 66.128 416.011 66.8 415.611 67.296H415.563V61.904H413.643V74ZM420.011 70.16C420.011 71.36 419.163 72.464 417.755 72.464C416.347 72.464 415.499 71.36 415.499 70.16C415.499 68.96 416.347 67.856 417.755 67.856C419.163 67.856 420.011 68.96 420.011 70.16Z" fill="#616C7F"/>
<path d="M442.951 74H444.967V64.496H448.439V62.672H439.479V64.496H442.951V74ZM452.849 74H454.577V69.584C454.577 68.496 454.577 66.128 451.297 66.128C450.081 66.128 448.881 66.496 448.033 67.36L449.041 68.368C449.553 67.888 450.289 67.568 451.089 67.568C452.113 67.568 452.849 68.064 452.849 69.008V69.216H452.369C450.449 69.216 447.537 69.392 447.537 71.888C447.537 73.408 448.913 74.192 450.337 74.192C451.361 74.192 452.257 73.808 452.801 72.944H452.849V74ZM452.737 70.992C452.737 72.064 452.113 72.752 450.801 72.752C450.177 72.752 449.457 72.448 449.457 71.744C449.457 70.64 451.281 70.56 452.337 70.56H452.737V70.992ZM456.643 74H458.467V72.848H458.499C459.059 73.776 460.067 74.192 461.139 74.192C463.507 74.192 464.931 72.432 464.931 70.16C464.931 67.888 463.411 66.128 461.219 66.128C459.779 66.128 459.011 66.8 458.611 67.296H458.563V61.904H456.643V74ZM463.011 70.16C463.011 71.36 462.163 72.464 460.755 72.464C459.347 72.464 458.499 71.36 458.499 70.16C458.499 68.96 459.347 67.856 460.755 67.856C462.163 67.856 463.011 68.96 463.011 70.16Z" fill="#616C7F"/>
<path d="M485.951 74H487.967V64.496H491.439V62.672H482.479V64.496H485.951V74ZM495.849 74H497.577V69.584C497.577 68.496 497.577 66.128 494.297 66.128C493.081 66.128 491.881 66.496 491.033 67.36L492.041 68.368C492.553 67.888 493.289 67.568 494.089 67.568C495.113 67.568 495.849 68.064 495.849 69.008V69.216H495.369C493.449 69.216 490.537 69.392 490.537 71.888C490.537 73.408 491.913 74.192 493.337 74.192C494.361 74.192 495.257 73.808 495.801 72.944H495.849V74ZM495.737 70.992C495.737 72.064 495.113 72.752 493.801 72.752C493.177 72.752 492.457 72.448 492.457 71.744C492.457 70.64 494.281 70.56 495.337 70.56H495.737V70.992ZM499.643 74H501.467V72.848H501.499C502.059 73.776 503.067 74.192 504.139 74.192C506.507 74.192 507.931 72.432 507.931 70.16C507.931 67.888 506.411 66.128 504.219 66.128C502.779 66.128 502.011 66.8 501.611 67.296H501.563V61.904H499.643V74ZM506.011 70.16C506.011 71.36 505.163 72.464 503.755 72.464C502.347 72.464 501.499 71.36 501.499 70.16C501.499 68.96 502.347 67.856 503.755 67.856C505.163 67.856 506.011 68.96 506.011 70.16Z" fill="#616C7F"/>
<path d="M509 90H310V92H509V90Z" fill="#D2D6DD" mask="url(#path-9-inside-2_44_11203)"/>
<path d="M713.252 2.858C712.482 2.13 711.446 1.836 710.41 1.836C708.576 1.836 706.756 2.788 706.756 4.832C706.756 8.374 711.46 7.128 711.46 9.298C711.46 10.208 710.536 10.656 709.724 10.656C708.94 10.656 708.198 10.278 707.764 9.62L706.434 10.908C707.246 11.874 708.45 12.252 709.682 12.252C711.628 12.252 713.308 11.216 713.308 9.088C713.308 5.56 708.604 6.694 708.604 4.706C708.604 3.796 709.416 3.432 710.228 3.432C710.914 3.432 711.586 3.684 711.964 4.216L713.252 2.858ZM715.019 12H716.699V5.28H715.019V12ZM714.781 2.998C714.781 3.53 715.229 4.006 715.845 4.006C716.461 4.006 716.937 3.572 716.937 2.998C716.937 2.424 716.461 1.99 715.845 1.99C715.229 1.99 714.781 2.466 714.781 2.998ZM718.152 12H723.948V10.656H720.14L723.78 6.806V5.28H718.32V6.624H721.75V6.652L718.152 10.446V12ZM731.85 9.228V8.766C731.85 6.428 730.576 5.112 728.7 5.112C726.67 5.112 725.046 6.526 725.046 8.64C725.046 10.754 726.67 12.168 728.7 12.168C729.764 12.168 730.758 11.79 731.542 10.824L730.338 9.914C729.918 10.432 729.372 10.824 728.532 10.824C727.594 10.824 726.838 10.222 726.726 9.228H731.85ZM726.726 7.968C726.852 7.002 727.468 6.372 728.462 6.372C729.512 6.372 730.156 6.988 730.17 7.968H726.726ZM733.421 11.02C733.421 11.622 733.953 12.084 734.541 12.084C735.157 12.084 735.661 11.594 735.661 10.992C735.661 10.39 735.143 9.928 734.541 9.928C733.925 9.928 733.421 10.418 733.421 11.02ZM733.421 6.274C733.421 6.876 733.953 7.338 734.541 7.338C735.157 7.338 735.661 6.848 735.661 6.246C735.661 5.644 735.143 5.182 734.541 5.182C733.925 5.182 733.421 5.672 733.421 6.274ZM741.86 12H745.556C747.936 12 750.806 10.432 750.806 7.044C750.806 3.684 748.37 2.088 745.766 2.088H741.86V12ZM743.624 10.404V3.684H745.234C747.39 3.684 748.958 4.636 748.958 7.044C748.958 9.452 747.152 10.404 744.94 10.404H743.624ZM758.797 9.228V8.766C758.797 6.428 757.523 5.112 755.647 5.112C753.617 5.112 751.993 6.526 751.993 8.64C751.993 10.754 753.617 12.168 755.647 12.168C756.711 12.168 757.705 11.79 758.489 10.824L757.285 9.914C756.865 10.432 756.319 10.824 755.479 10.824C754.541 10.824 753.785 10.222 753.673 9.228H758.797ZM753.673 7.968C753.799 7.002 754.415 6.372 755.409 6.372C756.459 6.372 757.103 6.988 757.117 7.968H753.673ZM760.97 12H762.65V6.708H764.204V5.28H762.65V4.062C762.65 3.32 762.79 2.676 763.728 2.676C763.966 2.676 764.19 2.718 764.428 2.774L764.54 1.346C764.19 1.276 763.84 1.248 763.476 1.248C761.39 1.248 760.97 2.466 760.97 4.328V5.28H759.584V6.708H760.97V12ZM769.49 12H771.002V8.136C771.002 7.184 771.002 5.112 768.132 5.112C767.068 5.112 766.018 5.434 765.276 6.19L766.158 7.072C766.606 6.652 767.25 6.372 767.95 6.372C768.846 6.372 769.49 6.806 769.49 7.632V7.814H769.07C767.39 7.814 764.842 7.968 764.842 10.152C764.842 11.482 766.046 12.168 767.292 12.168C768.188 12.168 768.972 11.832 769.448 11.076H769.49V12ZM769.392 9.368C769.392 10.306 768.846 10.908 767.698 10.908C767.152 10.908 766.522 10.642 766.522 10.026C766.522 9.06 768.118 8.99 769.042 8.99H769.392V9.368ZM778.941 5.28H777.261V8.948C777.261 9.844 776.827 10.656 775.721 10.656C774.545 10.656 774.489 9.424 774.489 8.682V5.28H772.809V9.522C772.809 10.894 773.453 12.168 775.259 12.168C776.379 12.168 777.009 11.594 777.317 10.922H777.345V12H778.941V5.28ZM780.876 12H782.556V1.416H780.876V12ZM785.087 6.708V9.788C785.087 11.37 785.507 12.168 787.285 12.168C787.677 12.168 788.265 12.112 788.615 11.944V10.53C788.405 10.684 787.999 10.74 787.705 10.74C786.963 10.74 786.767 10.32 786.767 9.648V6.708H788.615V5.28H786.767V3.334H785.087V5.28H783.701V6.708H785.087ZM709.136 29H710.9V20.684H713.938V19.088H706.098V20.684H709.136V29ZM717.797 29H719.309V25.136C719.309 24.184 719.309 22.112 716.439 22.112C715.375 22.112 714.325 22.434 713.583 23.19L714.465 24.072C714.913 23.652 715.557 23.372 716.257 23.372C717.153 23.372 717.797 23.806 717.797 24.632V24.814H717.377C715.697 24.814 713.149 24.968 713.149 27.152C713.149 28.482 714.353 29.168 715.599 29.168C716.495 29.168 717.279 28.832 717.755 28.076H717.797V29ZM717.699 26.368C717.699 27.306 717.153 27.908 716.005 27.908C715.459 27.908 714.829 27.642 714.829 27.026C714.829 26.06 716.425 25.99 717.349 25.99H717.699V26.368ZM721.116 29H722.712V27.992H722.74C723.23 28.804 724.112 29.168 725.05 29.168C727.122 29.168 728.368 27.628 728.368 25.64C728.368 23.652 727.038 22.112 725.12 22.112C723.86 22.112 723.188 22.7 722.838 23.134H722.796V18.416H721.116V29ZM726.688 25.64C726.688 26.69 725.946 27.656 724.714 27.656C723.482 27.656 722.74 26.69 722.74 25.64C722.74 24.59 723.482 23.624 724.714 23.624C725.946 23.624 726.688 24.59 726.688 25.64ZM742.407 20.404C741.427 19.27 740.279 18.836 738.935 18.836C735.883 18.836 733.699 20.908 733.699 24.086C733.699 27.18 735.883 29.252 738.935 29.252C740.391 29.252 741.735 28.72 742.631 27.488L741.175 26.452C740.517 27.292 739.747 27.656 738.949 27.656C736.905 27.656 735.547 26.088 735.547 23.974C735.547 22 736.905 20.432 738.949 20.432C739.635 20.432 740.307 20.642 741.035 21.412L742.407 20.404ZM743.325 25.64C743.325 27.754 744.949 29.168 746.979 29.168C749.009 29.168 750.633 27.754 750.633 25.64C750.633 23.526 749.009 22.112 746.979 22.112C744.949 22.112 743.325 23.526 743.325 25.64ZM745.005 25.64C745.005 24.59 745.747 23.624 746.979 23.624C748.211 23.624 748.953 24.59 748.953 25.64C748.953 26.69 748.211 27.656 746.979 27.656C745.747 27.656 745.005 26.69 745.005 25.64ZM758.338 22.28H756.658V25.948C756.658 26.844 756.224 27.656 755.118 27.656C753.942 27.656 753.886 26.424 753.886 25.682V22.28H752.206V26.522C752.206 27.894 752.85 29.168 754.656 29.168C755.776 29.168 756.406 28.594 756.714 27.922H756.742V29H758.338V22.28ZM760.245 29H761.925V25.332C761.925 24.436 762.359 23.624 763.465 23.624C764.641 23.624 764.697 24.856 764.697 25.598V29H766.377V24.758C766.377 23.386 765.733 22.112 763.927 22.112C762.807 22.112 762.177 22.686 761.869 23.358H761.841V22.28H760.245V29ZM768.886 23.708V26.788C768.886 28.37 769.306 29.168 771.084 29.168C771.476 29.168 772.064 29.112 772.414 28.944V27.53C772.204 27.684 771.798 27.74 771.504 27.74C770.762 27.74 770.566 27.32 770.566 26.648V23.708H772.414V22.28H770.566V20.334H768.886V22.28H767.5V23.708H768.886ZM773.725 28.02C773.725 28.622 774.257 29.084 774.845 29.084C775.461 29.084 775.965 28.594 775.965 27.992C775.965 27.39 775.447 26.928 774.845 26.928C774.229 26.928 773.725 27.418 773.725 28.02ZM773.725 23.274C773.725 23.876 774.257 24.338 774.845 24.338C775.461 24.338 775.965 23.848 775.965 23.246C775.965 22.644 775.447 22.182 774.845 22.182C774.229 22.182 773.725 22.672 773.725 23.274ZM781.647 20.684H786.491L782.445 29H784.419L788.381 20.628V19.088H781.647V20.684Z" fill="black"/>
<path d="M709.951 74H711.967V64.496H715.439V62.672H706.479V64.496H709.951V74ZM719.849 74H721.577V69.584C721.577 68.496 721.577 66.128 718.297 66.128C717.081 66.128 715.881 66.496 715.033 67.36L716.041 68.368C716.553 67.888 717.289 67.568 718.089 67.568C719.113 67.568 719.849 68.064 719.849 69.008V69.216H719.369C717.449 69.216 714.537 69.392 714.537 71.888C714.537 73.408 715.913 74.192 717.337 74.192C718.361 74.192 719.257 73.808 719.801 72.944H719.849V74ZM719.737 70.992C719.737 72.064 719.113 72.752 717.801 72.752C717.177 72.752 716.457 72.448 716.457 71.744C716.457 70.64 718.281 70.56 719.337 70.56H719.737V70.992ZM723.643 74H725.467V72.848H725.499C726.059 73.776 727.067 74.192 728.139 74.192C730.507 74.192 731.931 72.432 731.931 70.16C731.931 67.888 730.411 66.128 728.219 66.128C726.779 66.128 726.011 66.8 725.611 67.296H725.563V61.904H723.643V74ZM730.011 70.16C730.011 71.36 729.163 72.464 727.755 72.464C726.347 72.464 725.499 71.36 725.499 70.16C725.499 68.96 726.347 67.856 727.755 67.856C729.163 67.856 730.011 68.96 730.011 70.16Z" fill="#616C7F"/>
<path d="M752.951 74H754.967V64.496H758.439V62.672H749.479V64.496H752.951V74ZM762.849 74H764.577V69.584C764.577 68.496 764.577 66.128 761.297 66.128C760.081 66.128 758.881 66.496 758.033 67.36L759.041 68.368C759.553 67.888 760.289 67.568 761.089 67.568C762.113 67.568 762.849 68.064 762.849 69.008V69.216H762.369C760.449 69.216 757.537 69.392 757.537 71.888C757.537 73.408 758.913 74.192 760.337 74.192C761.361 74.192 762.257 73.808 762.801 72.944H762.849V74ZM762.737 70.992C762.737 72.064 762.113 72.752 760.801 72.752C760.177 72.752 759.457 72.448 759.457 71.744C759.457 70.64 761.281 70.56 762.337 70.56H762.737V70.992ZM766.643 74H768.467V72.848H768.499C769.059 73.776 770.067 74.192 771.139 74.192C773.507 74.192 774.931 72.432 774.931 70.16C774.931 67.888 773.411 66.128 771.219 66.128C769.779 66.128 769.011 66.8 768.611 67.296H768.563V61.904H766.643V74ZM773.011 70.16C773.011 71.36 772.163 72.464 770.755 72.464C769.347 72.464 768.499 71.36 768.499 70.16C768.499 68.96 769.347 67.856 770.755 67.856C772.163 67.856 773.011 68.96 773.011 70.16Z" fill="#6C3078"/>
<rect x="749" y="89" width="27" height="2" rx="1" fill="#6C3078"/>
<path d="M795.951 74H797.967V64.496H801.439V62.672H792.479V64.496H795.951V74ZM805.849 74H807.577V69.584C807.577 68.496 807.577 66.128 804.297 66.128C803.081 66.128 801.881 66.496 801.033 67.36L802.041 68.368C802.553 67.888 803.289 67.568 804.089 67.568C805.113 67.568 805.849 68.064 805.849 69.008V69.216H805.369C803.449 69.216 800.537 69.392 800.537 71.888C800.537 73.408 801.913 74.192 803.337 74.192C804.361 74.192 805.257 73.808 805.801 72.944H805.849V74ZM805.737 70.992C805.737 72.064 805.113 72.752 803.801 72.752C803.177 72.752 802.457 72.448 802.457 71.744C802.457 70.64 804.281 70.56 805.337 70.56H805.737V70.992ZM809.643 74H811.467V72.848H811.499C812.059 73.776 813.067 74.192 814.139 74.192C816.507 74.192 817.931 72.432 817.931 70.16C817.931 67.888 816.411 66.128 814.219 66.128C812.779 66.128 812.011 66.8 811.611 67.296H811.563V61.904H809.643V74ZM816.011 70.16C816.011 71.36 815.163 72.464 813.755 72.464C812.347 72.464 811.499 71.36 811.499 70.16C811.499 68.96 812.347 67.856 813.755 67.856C815.163 67.856 816.011 68.96 816.011 70.16Z" fill="#616C7F"/>
<path d="M838.951 74H840.967V64.496H844.439V62.672H835.479V64.496H838.951V74ZM848.849 74H850.577V69.584C850.577 68.496 850.577 66.128 847.297 66.128C846.081 66.128 844.881 66.496 844.033 67.36L845.041 68.368C845.553 67.888 846.289 67.568 847.089 67.568C848.113 67.568 848.849 68.064 848.849 69.008V69.216H848.369C846.449 69.216 843.537 69.392 843.537 71.888C843.537 73.408 844.913 74.192 846.337 74.192C847.361 74.192 848.257 73.808 848.801 72.944H848.849V74ZM848.737 70.992C848.737 72.064 848.113 72.752 846.801 72.752C846.177 72.752 845.457 72.448 845.457 71.744C845.457 70.64 847.281 70.56 848.337 70.56H848.737V70.992ZM852.643 74H854.467V72.848H854.499C855.059 73.776 856.067 74.192 857.139 74.192C859.507 74.192 860.931 72.432 860.931 70.16C860.931 67.888 859.411 66.128 857.219 66.128C855.779 66.128 855.011 66.8 854.611 67.296H854.563V61.904H852.643V74ZM859.011 70.16C859.011 71.36 858.163 72.464 856.755 72.464C855.347 72.464 854.499 71.36 854.499 70.16C854.499 68.96 855.347 67.856 856.755 67.856C858.163 67.856 859.011 68.96 859.011 70.16Z" fill="#616C7F"/>
<path d="M881.951 74H883.967V64.496H887.439V62.672H878.479V64.496H881.951V74ZM891.849 74H893.577V69.584C893.577 68.496 893.577 66.128 890.297 66.128C889.081 66.128 887.881 66.496 887.033 67.36L888.041 68.368C888.553 67.888 889.289 67.568 890.089 67.568C891.113 67.568 891.849 68.064 891.849 69.008V69.216H891.369C889.449 69.216 886.537 69.392 886.537 71.888C886.537 73.408 887.913 74.192 889.337 74.192C890.361 74.192 891.257 73.808 891.801 72.944H891.849V74ZM891.737 70.992C891.737 72.064 891.113 72.752 889.801 72.752C889.177 72.752 888.457 72.448 888.457 71.744C888.457 70.64 890.281 70.56 891.337 70.56H891.737V70.992ZM895.643 74H897.467V72.848H897.499C898.059 73.776 899.067 74.192 900.139 74.192C902.507 74.192 903.931 72.432 903.931 70.16C903.931 67.888 902.411 66.128 900.219 66.128C898.779 66.128 898.011 66.8 897.611 67.296H897.563V61.904H895.643V74ZM902.011 70.16C902.011 71.36 901.163 72.464 899.755 72.464C898.347 72.464 897.499 71.36 897.499 70.16C897.499 68.96 898.347 67.856 899.755 67.856C901.163 67.856 902.011 68.96 902.011 70.16Z" fill="#616C7F"/>
<path d="M924.951 74H926.967V64.496H930.439V62.672H921.479V64.496H924.951V74ZM934.849 74H936.577V69.584C936.577 68.496 936.577 66.128 933.297 66.128C932.081 66.128 930.881 66.496 930.033 67.36L931.041 68.368C931.553 67.888 932.289 67.568 933.089 67.568C934.113 67.568 934.849 68.064 934.849 69.008V69.216H934.369C932.449 69.216 929.537 69.392 929.537 71.888C929.537 73.408 930.913 74.192 932.337 74.192C933.361 74.192 934.257 73.808 934.801 72.944H934.849V74ZM934.737 70.992C934.737 72.064 934.113 72.752 932.801 72.752C932.177 72.752 931.457 72.448 931.457 71.744C931.457 70.64 933.281 70.56 934.337 70.56H934.737V70.992ZM938.643 74H940.467V72.848H940.499C941.059 73.776 942.067 74.192 943.139 74.192C945.507 74.192 946.931 72.432 946.931 70.16C946.931 67.888 945.411 66.128 943.219 66.128C941.779 66.128 941.011 66.8 940.611 67.296H940.563V61.904H938.643V74ZM945.011 70.16C945.011 71.36 944.163 72.464 942.755 72.464C941.347 72.464 940.499 71.36 940.499 70.16C940.499 68.96 941.347 67.856 942.755 67.856C944.163 67.856 945.011 68.96 945.011 70.16Z" fill="#616C7F"/>
<path d="M967.951 74H969.967V64.496H973.439V62.672H964.479V64.496H967.951V74ZM977.849 74H979.577V69.584C979.577 68.496 979.577 66.128 976.297 66.128C975.081 66.128 973.881 66.496 973.033 67.36L974.041 68.368C974.553 67.888 975.289 67.568 976.089 67.568C977.113 67.568 977.849 68.064 977.849 69.008V69.216H977.369C975.449 69.216 972.537 69.392 972.537 71.888C972.537 73.408 973.913 74.192 975.337 74.192C976.361 74.192 977.257 73.808 977.801 72.944H977.849V74ZM977.737 70.992C977.737 72.064 977.113 72.752 975.801 72.752C975.177 72.752 974.457 72.448 974.457 71.744C974.457 70.64 976.281 70.56 977.337 70.56H977.737V70.992ZM981.643 74H983.467V72.848H983.499C984.059 73.776 985.067 74.192 986.139 74.192C988.507 74.192 989.931 72.432 989.931 70.16C989.931 67.888 988.411 66.128 986.219 66.128C984.779 66.128 984.011 66.8 983.611 67.296H983.563V61.904H981.643V74ZM988.011 70.16C988.011 71.36 987.163 72.464 985.755 72.464C984.347 72.464 983.499 71.36 983.499 70.16C983.499 68.96 984.347 67.856 985.755 67.856C987.163 67.856 988.011 68.96 988.011 70.16Z" fill="#616C7F"/>
<path d="M991 90H706V92H991V90Z" fill="#D2D6DD" mask="url(#path-18-inside-3_44_11203)"/>
<path d="M7.252 109.858C6.482 109.13 5.446 108.836 4.41 108.836C2.576 108.836 0.756 109.788 0.756 111.832C0.756 115.374 5.46 114.128 5.46 116.298C5.46 117.208 4.536 117.656 3.724 117.656C2.94 117.656 2.198 117.278 1.764 116.62L0.434 117.908C1.246 118.874 2.45 119.252 3.682 119.252C5.628 119.252 7.308 118.216 7.308 116.088C7.308 112.56 2.604 113.694 2.604 111.706C2.604 110.796 3.416 110.432 4.228 110.432C4.914 110.432 5.586 110.684 5.964 111.216L7.252 109.858ZM9.01906 119H10.6991V112.28H9.01906V119ZM8.78106 109.998C8.78106 110.53 9.22906 111.006 9.84506 111.006C10.4611 111.006 10.9371 110.572 10.9371 109.998C10.9371 109.424 10.4611 108.99 9.84506 108.99C9.22906 108.99 8.78106 109.466 8.78106 109.998ZM12.1518 119H17.9478V117.656H14.1398L17.7798 113.806V112.28H12.3198V113.624H15.7498V113.652L12.1518 117.446V119ZM25.8497 116.228V115.766C25.8497 113.428 24.5757 112.112 22.6997 112.112C20.6697 112.112 19.0457 113.526 19.0457 115.64C19.0457 117.754 20.6697 119.168 22.6997 119.168C23.7637 119.168 24.7577 118.79 25.5417 117.824L24.3377 116.914C23.9177 117.432 23.3717 117.824 22.5317 117.824C21.5937 117.824 20.8377 117.222 20.7257 116.228H25.8497ZM20.7257 114.968C20.8517 114.002 21.4677 113.372 22.4617 113.372C23.5117 113.372 24.1557 113.988 24.1697 114.968H20.7257ZM27.4208 118.02C27.4208 118.622 27.9528 119.084 28.5408 119.084C29.1568 119.084 29.6608 118.594 29.6608 117.992C29.6608 117.39 29.1428 116.928 28.5408 116.928C27.9248 116.928 27.4208 117.418 27.4208 118.02ZM27.4208 113.274C27.4208 113.876 27.9528 114.338 28.5408 114.338C29.1568 114.338 29.6608 113.848 29.6608 113.246C29.6608 112.644 29.1428 112.182 28.5408 112.182C27.9248 112.182 27.4208 112.672 27.4208 113.274ZM35.8599 119H41.8379V117.404H37.6239V109.088H35.8599V119ZM51.9257 113.204H48.1317V114.8H50.1617V117.138C49.5457 117.488 48.7337 117.656 47.8377 117.656C45.7937 117.656 44.4357 116.088 44.4357 113.974C44.4357 112 45.7937 110.432 47.8377 110.432C48.8317 110.432 49.7977 110.782 50.4277 111.398L51.7297 110.082C50.6937 109.158 49.3357 108.836 47.8237 108.836C44.7717 108.836 42.5877 110.908 42.5877 114.086C42.5877 117.18 44.7717 119.252 47.8237 119.252C49.3497 119.252 50.7217 118.916 51.9257 118.272V113.204ZM3.136 136H4.9V127.684H7.938V126.088H0.098V127.684H3.136V136ZM11.7965 136H13.3085V132.136C13.3085 131.184 13.3085 129.112 10.4385 129.112C9.37453 129.112 8.32453 129.434 7.58253 130.19L8.46453 131.072C8.91253 130.652 9.55653 130.372 10.2565 130.372C11.1525 130.372 11.7965 130.806 11.7965 131.632V131.814H11.3765C9.69653 131.814 7.14853 131.968 7.14853 134.152C7.14853 135.482 8.35253 136.168 9.59853 136.168C10.4945 136.168 11.2785 135.832 11.7545 135.076H11.7965V136ZM11.6985 133.368C11.6985 134.306 11.1525 134.908 10.0045 134.908C9.45853 134.908 8.82853 134.642 8.82853 134.026C8.82853 133.06 10.4245 132.99 11.3485 132.99H11.6985V133.368ZM15.1161 136H16.7121V134.992H16.7401C17.2301 135.804 18.1121 136.168 19.0501 136.168C21.1221 136.168 22.3681 134.628 22.3681 132.64C22.3681 130.652 21.0381 129.112 19.1201 129.112C17.8601 129.112 17.1881 129.7 16.8381 130.134H16.7961V125.416H15.1161V136ZM20.6881 132.64C20.6881 133.69 19.9461 134.656 18.7141 134.656C17.4821 134.656 16.7401 133.69 16.7401 132.64C16.7401 131.59 17.4821 130.624 18.7141 130.624C19.9461 130.624 20.6881 131.59 20.6881 132.64ZM36.407 127.404C35.427 126.27 34.279 125.836 32.935 125.836C29.883 125.836 27.699 127.908 27.699 131.086C27.699 134.18 29.883 136.252 32.935 136.252C34.391 136.252 35.735 135.72 36.631 134.488L35.175 133.452C34.517 134.292 33.747 134.656 32.949 134.656C30.905 134.656 29.547 133.088 29.547 130.974C29.547 129 30.905 127.432 32.949 127.432C33.635 127.432 34.307 127.642 35.035 128.412L36.407 127.404ZM37.325 132.64C37.325 134.754 38.949 136.168 40.979 136.168C43.009 136.168 44.633 134.754 44.633 132.64C44.633 130.526 43.009 129.112 40.979 129.112C38.949 129.112 37.325 130.526 37.325 132.64ZM39.005 132.64C39.005 131.59 39.747 130.624 40.979 130.624C42.211 130.624 42.953 131.59 42.953 132.64C42.953 133.69 42.211 134.656 40.979 134.656C39.747 134.656 39.005 133.69 39.005 132.64ZM52.3379 129.28H50.6579V132.948C50.6579 133.844 50.2239 134.656 49.1179 134.656C47.9419 134.656 47.8859 133.424 47.8859 132.682V129.28H46.2059V133.522C46.2059 134.894 46.8499 136.168 48.6559 136.168C49.7759 136.168 50.4059 135.594 50.7139 134.922H50.7419V136H52.3379V129.28ZM54.245 136H55.925V132.332C55.925 131.436 56.359 130.624 57.465 130.624C58.641 130.624 58.697 131.856 58.697 132.598V136H60.377V131.758C60.377 130.386 59.733 129.112 57.927 129.112C56.807 129.112 56.177 129.686 55.869 130.358H55.841V129.28H54.245V136ZM62.886 130.708V133.788C62.886 135.37 63.306 136.168 65.084 136.168C65.476 136.168 66.064 136.112 66.414 135.944V134.53C66.204 134.684 65.798 134.74 65.504 134.74C64.762 134.74 64.566 134.32 64.566 133.648V130.708H66.414V129.28H64.566V127.334H62.886V129.28H61.5V130.708H62.886ZM67.7254 135.02C67.7254 135.622 68.2574 136.084 68.8454 136.084C69.4614 136.084 69.9654 135.594 69.9654 134.992C69.9654 134.39 69.4474 133.928 68.8454 133.928C68.2294 133.928 67.7254 134.418 67.7254 135.02ZM67.7254 130.274C67.7254 130.876 68.2574 131.338 68.8454 131.338C69.4614 131.338 69.9654 130.848 69.9654 130.246C69.9654 129.644 69.4474 129.182 68.8454 129.182C68.2294 129.182 67.7254 129.672 67.7254 130.274ZM78.1666 131.59H78.5726C79.5946 131.59 80.7706 131.814 80.7706 133.102C80.7706 134.026 80.0006 134.656 79.1046 134.656C78.2086 134.656 77.7046 134.18 77.4946 133.368L75.7026 133.844C76.1366 135.496 77.4806 136.168 79.1046 136.168C80.8686 136.168 82.4506 135.132 82.4506 133.242C82.4506 132.024 81.7786 131.016 80.5186 130.834V130.806C81.5686 130.54 82.2126 129.63 82.2126 128.566C82.2126 126.816 80.7426 125.92 79.0346 125.92C77.5786 125.92 76.2906 126.578 75.8566 128.048L77.6346 128.524C77.8726 127.838 78.4466 127.432 79.1186 127.432C79.9446 127.432 80.5326 127.978 80.5326 128.734C80.5326 129.938 79.5666 130.078 78.6006 130.078H78.1666V131.59Z" fill="black"/>
<path d="M4.25759 181.5H6.52559V170.808H10.4316V168.756H0.351586V170.808H4.25759V181.5ZM15.3926 181.5H17.3366V176.532C17.3366 175.308 17.3366 172.644 13.6466 172.644C12.2786 172.644 10.9286 173.058 9.97455 174.03L11.1086 175.164C11.6846 174.624 12.5126 174.264 13.4126 174.264C14.5646 174.264 15.3926 174.822 15.3926 175.884V176.118H14.8526C12.6926 176.118 9.41655 176.316 9.41655 179.124C9.41655 180.834 10.9646 181.716 12.5666 181.716C13.7186 181.716 14.7266 181.284 15.3386 180.312H15.3926V181.5ZM15.2666 178.116C15.2666 179.322 14.5646 180.096 13.0886 180.096C12.3866 180.096 11.5766 179.754 11.5766 178.962C11.5766 177.72 13.6286 177.63 14.8166 177.63H15.2666V178.116ZM19.6605 181.5H21.7125V180.204H21.7485C22.3785 181.248 23.5125 181.716 24.7185 181.716C27.3825 181.716 28.9845 179.736 28.9845 177.18C28.9845 174.624 27.2745 172.644 24.8085 172.644C23.1885 172.644 22.3245 173.4 21.8745 173.958H21.8205V167.892H19.6605V181.5ZM26.8245 177.18C26.8245 178.53 25.8705 179.772 24.2865 179.772C22.7025 179.772 21.7485 178.53 21.7485 177.18C21.7485 175.83 22.7025 174.588 24.2865 174.588C25.8705 174.588 26.8245 175.83 26.8245 177.18Z" fill="#616C7F"/>
<path d="M50.2576 181.5H52.5256V170.808H56.4316V168.756H46.3516V170.808H50.2576V181.5ZM61.3926 181.5H63.3366V176.532C63.3366 175.308 63.3366 172.644 59.6466 172.644C58.2786 172.644 56.9286 173.058 55.9746 174.03L57.1086 175.164C57.6846 174.624 58.5126 174.264 59.4126 174.264C60.5646 174.264 61.3926 174.822 61.3926 175.884V176.118H60.8526C58.6926 176.118 55.4166 176.316 55.4166 179.124C55.4166 180.834 56.9646 181.716 58.5666 181.716C59.7186 181.716 60.7266 181.284 61.3386 180.312H61.3926V181.5ZM61.2666 178.116C61.2666 179.322 60.5646 180.096 59.0886 180.096C58.3866 180.096 57.5766 179.754 57.5766 178.962C57.5766 177.72 59.6286 177.63 60.8166 177.63H61.2666V178.116ZM65.6605 181.5H67.7125V180.204H67.7485C68.3785 181.248 69.5125 181.716 70.7185 181.716C73.3825 181.716 74.9845 179.736 74.9845 177.18C74.9845 174.624 73.2745 172.644 70.8085 172.644C69.1885 172.644 68.3245 173.4 67.8745 173.958H67.8205V167.892H65.6605V181.5ZM72.8245 177.18C72.8245 178.53 71.8705 179.772 70.2865 179.772C68.7025 179.772 67.7485 178.53 67.7485 177.18C67.7485 175.83 68.7025 174.588 70.2865 174.588C71.8705 174.588 72.8245 175.83 72.8245 177.18Z" fill="#6C3078"/>
<rect x="46" y="196" width="30" height="2" rx="1" fill="#6C3078"/>
<path d="M96.2576 181.5H98.5256V170.808H102.432V168.756H92.3516V170.808H96.2576V181.5ZM107.393 181.5H109.337V176.532C109.337 175.308 109.337 172.644 105.647 172.644C104.279 172.644 102.929 173.058 101.975 174.03L103.109 175.164C103.685 174.624 104.513 174.264 105.413 174.264C106.565 174.264 107.393 174.822 107.393 175.884V176.118H106.853C104.693 176.118 101.417 176.316 101.417 179.124C101.417 180.834 102.965 181.716 104.567 181.716C105.719 181.716 106.727 181.284 107.339 180.312H107.393V181.5ZM107.267 178.116C107.267 179.322 106.565 180.096 105.089 180.096C104.387 180.096 103.577 179.754 103.577 178.962C103.577 177.72 105.629 177.63 106.817 177.63H107.267V178.116ZM111.661 181.5H113.713V180.204H113.749C114.379 181.248 115.513 181.716 116.719 181.716C119.383 181.716 120.985 179.736 120.985 177.18C120.985 174.624 119.275 172.644 116.809 172.644C115.189 172.644 114.325 173.4 113.875 173.958H113.821V167.892H111.661V181.5ZM118.825 177.18C118.825 178.53 117.871 179.772 116.287 179.772C114.703 179.772 113.749 178.53 113.749 177.18C113.749 175.83 114.703 174.588 116.287 174.588C117.871 174.588 118.825 175.83 118.825 177.18Z" fill="#616C7F"/>
<path d="M122 197H0V199H122V197Z" fill="#D2D6DD" mask="url(#path-29-inside-4_44_11203)"/>
<path d="M326.252 109.858C325.482 109.13 324.446 108.836 323.41 108.836C321.576 108.836 319.756 109.788 319.756 111.832C319.756 115.374 324.46 114.128 324.46 116.298C324.46 117.208 323.536 117.656 322.724 117.656C321.94 117.656 321.198 117.278 320.764 116.62L319.434 117.908C320.246 118.874 321.45 119.252 322.682 119.252C324.628 119.252 326.308 118.216 326.308 116.088C326.308 112.56 321.604 113.694 321.604 111.706C321.604 110.796 322.416 110.432 323.228 110.432C323.914 110.432 324.586 110.684 324.964 111.216L326.252 109.858ZM328.019 119H329.699V112.28H328.019V119ZM327.781 109.998C327.781 110.53 328.229 111.006 328.845 111.006C329.461 111.006 329.937 110.572 329.937 109.998C329.937 109.424 329.461 108.99 328.845 108.99C328.229 108.99 327.781 109.466 327.781 109.998ZM331.152 119H336.948V117.656H333.14L336.78 113.806V112.28H331.32V113.624H334.75V113.652L331.152 117.446V119ZM344.85 116.228V115.766C344.85 113.428 343.576 112.112 341.7 112.112C339.67 112.112 338.046 113.526 338.046 115.64C338.046 117.754 339.67 119.168 341.7 119.168C342.764 119.168 343.758 118.79 344.542 117.824L343.338 116.914C342.918 117.432 342.372 117.824 341.532 117.824C340.594 117.824 339.838 117.222 339.726 116.228H344.85ZM339.726 114.968C339.852 114.002 340.468 113.372 341.462 113.372C342.512 113.372 343.156 113.988 343.17 114.968H339.726ZM346.421 118.02C346.421 118.622 346.953 119.084 347.541 119.084C348.157 119.084 348.661 118.594 348.661 117.992C348.661 117.39 348.143 116.928 347.541 116.928C346.925 116.928 346.421 117.418 346.421 118.02ZM346.421 113.274C346.421 113.876 346.953 114.338 347.541 114.338C348.157 114.338 348.661 113.848 348.661 113.246C348.661 112.644 348.143 112.182 347.541 112.182C346.925 112.182 346.421 112.672 346.421 113.274ZM354.86 119H360.838V117.404H356.624V109.088H354.86V119ZM370.926 113.204H367.132V114.8H369.162V117.138C368.546 117.488 367.734 117.656 366.838 117.656C364.794 117.656 363.436 116.088 363.436 113.974C363.436 112 364.794 110.432 366.838 110.432C367.832 110.432 368.798 110.782 369.428 111.398L370.73 110.082C369.694 109.158 368.336 108.836 366.824 108.836C363.772 108.836 361.588 110.908 361.588 114.086C361.588 117.18 363.772 119.252 366.824 119.252C368.35 119.252 369.722 118.916 370.926 118.272V113.204ZM322.136 136H323.9V127.684H326.938V126.088H319.098V127.684H322.136V136ZM330.797 136H332.309V132.136C332.309 131.184 332.309 129.112 329.439 129.112C328.375 129.112 327.325 129.434 326.583 130.19L327.465 131.072C327.913 130.652 328.557 130.372 329.257 130.372C330.153 130.372 330.797 130.806 330.797 131.632V131.814H330.377C328.697 131.814 326.149 131.968 326.149 134.152C326.149 135.482 327.353 136.168 328.599 136.168C329.495 136.168 330.279 135.832 330.755 135.076H330.797V136ZM330.699 133.368C330.699 134.306 330.153 134.908 329.005 134.908C328.459 134.908 327.829 134.642 327.829 134.026C327.829 133.06 329.425 132.99 330.349 132.99H330.699V133.368ZM334.116 136H335.712V134.992H335.74C336.23 135.804 337.112 136.168 338.05 136.168C340.122 136.168 341.368 134.628 341.368 132.64C341.368 130.652 340.038 129.112 338.12 129.112C336.86 129.112 336.188 129.7 335.838 130.134H335.796V125.416H334.116V136ZM339.688 132.64C339.688 133.69 338.946 134.656 337.714 134.656C336.482 134.656 335.74 133.69 335.74 132.64C335.74 131.59 336.482 130.624 337.714 130.624C338.946 130.624 339.688 131.59 339.688 132.64ZM355.407 127.404C354.427 126.27 353.279 125.836 351.935 125.836C348.883 125.836 346.699 127.908 346.699 131.086C346.699 134.18 348.883 136.252 351.935 136.252C353.391 136.252 354.735 135.72 355.631 134.488L354.175 133.452C353.517 134.292 352.747 134.656 351.949 134.656C349.905 134.656 348.547 133.088 348.547 130.974C348.547 129 349.905 127.432 351.949 127.432C352.635 127.432 353.307 127.642 354.035 128.412L355.407 127.404ZM356.325 132.64C356.325 134.754 357.949 136.168 359.979 136.168C362.009 136.168 363.633 134.754 363.633 132.64C363.633 130.526 362.009 129.112 359.979 129.112C357.949 129.112 356.325 130.526 356.325 132.64ZM358.005 132.64C358.005 131.59 358.747 130.624 359.979 130.624C361.211 130.624 361.953 131.59 361.953 132.64C361.953 133.69 361.211 134.656 359.979 134.656C358.747 134.656 358.005 133.69 358.005 132.64ZM371.338 129.28H369.658V132.948C369.658 133.844 369.224 134.656 368.118 134.656C366.942 134.656 366.886 133.424 366.886 132.682V129.28H365.206V133.522C365.206 134.894 365.85 136.168 367.656 136.168C368.776 136.168 369.406 135.594 369.714 134.922H369.742V136H371.338V129.28ZM373.245 136H374.925V132.332C374.925 131.436 375.359 130.624 376.465 130.624C377.641 130.624 377.697 131.856 377.697 132.598V136H379.377V131.758C379.377 130.386 378.733 129.112 376.927 129.112C375.807 129.112 375.177 129.686 374.869 130.358H374.841V129.28H373.245V136ZM381.886 130.708V133.788C381.886 135.37 382.306 136.168 384.084 136.168C384.476 136.168 385.064 136.112 385.414 135.944V134.53C385.204 134.684 384.798 134.74 384.504 134.74C383.762 134.74 383.566 134.32 383.566 133.648V130.708H385.414V129.28H383.566V127.334H381.886V129.28H380.5V130.708H381.886ZM386.725 135.02C386.725 135.622 387.257 136.084 387.845 136.084C388.461 136.084 388.965 135.594 388.965 134.992C388.965 134.39 388.447 133.928 387.845 133.928C387.229 133.928 386.725 134.418 386.725 135.02ZM386.725 130.274C386.725 130.876 387.257 131.338 387.845 131.338C388.461 131.338 388.965 130.848 388.965 130.246C388.965 129.644 388.447 129.182 387.845 129.182C387.229 129.182 386.725 129.672 386.725 130.274ZM401.129 126.088H395.487L395.389 131.436C395.977 131.142 396.733 130.96 397.461 130.96C398.693 130.96 399.785 131.492 399.785 132.878C399.785 133.844 399.071 134.572 398.063 134.572C397.209 134.572 396.663 134.138 396.439 133.424L394.675 133.9C395.137 135.426 396.313 136.168 397.881 136.168C399.911 136.168 401.465 134.866 401.465 132.738C401.465 130.736 400.107 129.448 398.161 129.448C397.811 129.448 397.363 129.49 397.097 129.574L397.139 127.6H401.129V126.088Z" fill="black"/>
<path d="M323.258 181.5H325.526V170.808H329.432V168.756H319.352V170.808H323.258V181.5ZM334.393 181.5H336.337V176.532C336.337 175.308 336.337 172.644 332.647 172.644C331.279 172.644 329.929 173.058 328.975 174.03L330.109 175.164C330.685 174.624 331.513 174.264 332.413 174.264C333.565 174.264 334.393 174.822 334.393 175.884V176.118H333.853C331.693 176.118 328.417 176.316 328.417 179.124C328.417 180.834 329.965 181.716 331.567 181.716C332.719 181.716 333.727 181.284 334.339 180.312H334.393V181.5ZM334.267 178.116C334.267 179.322 333.565 180.096 332.089 180.096C331.387 180.096 330.577 179.754 330.577 178.962C330.577 177.72 332.629 177.63 333.817 177.63H334.267V178.116ZM338.661 181.5H340.713V180.204H340.749C341.379 181.248 342.513 181.716 343.719 181.716C346.383 181.716 347.985 179.736 347.985 177.18C347.985 174.624 346.275 172.644 343.809 172.644C342.189 172.644 341.325 173.4 340.875 173.958H340.821V167.892H338.661V181.5ZM345.825 177.18C345.825 178.53 344.871 179.772 343.287 179.772C341.703 179.772 340.749 178.53 340.749 177.18C340.749 175.83 341.703 174.588 343.287 174.588C344.871 174.588 345.825 175.83 345.825 177.18Z" fill="#616C7F"/>
<path d="M369.258 181.5H371.526V170.808H375.432V168.756H365.352V170.808H369.258V181.5ZM380.393 181.5H382.337V176.532C382.337 175.308 382.337 172.644 378.647 172.644C377.279 172.644 375.929 173.058 374.975 174.03L376.109 175.164C376.685 174.624 377.513 174.264 378.413 174.264C379.565 174.264 380.393 174.822 380.393 175.884V176.118H379.853C377.693 176.118 374.417 176.316 374.417 179.124C374.417 180.834 375.965 181.716 377.567 181.716C378.719 181.716 379.727 181.284 380.339 180.312H380.393V181.5ZM380.267 178.116C380.267 179.322 379.565 180.096 378.089 180.096C377.387 180.096 376.577 179.754 376.577 178.962C376.577 177.72 378.629 177.63 379.817 177.63H380.267V178.116ZM384.661 181.5H386.713V180.204H386.749C387.379 181.248 388.513 181.716 389.719 181.716C392.383 181.716 393.985 179.736 393.985 177.18C393.985 174.624 392.275 172.644 389.809 172.644C388.189 172.644 387.325 173.4 386.875 173.958H386.821V167.892H384.661V181.5ZM391.825 177.18C391.825 178.53 390.871 179.772 389.287 179.772C387.703 179.772 386.749 178.53 386.749 177.18C386.749 175.83 387.703 174.588 389.287 174.588C390.871 174.588 391.825 175.83 391.825 177.18Z" fill="#6C3078"/>
<rect x="365" y="196" width="30" height="2" rx="1" fill="#6C3078"/>
<path d="M415.258 181.5H417.526V170.808H421.432V168.756H411.352V170.808H415.258V181.5ZM426.393 181.5H428.337V176.532C428.337 175.308 428.337 172.644 424.647 172.644C423.279 172.644 421.929 173.058 420.975 174.03L422.109 175.164C422.685 174.624 423.513 174.264 424.413 174.264C425.565 174.264 426.393 174.822 426.393 175.884V176.118H425.853C423.693 176.118 420.417 176.316 420.417 179.124C420.417 180.834 421.965 181.716 423.567 181.716C424.719 181.716 425.727 181.284 426.339 180.312H426.393V181.5ZM426.267 178.116C426.267 179.322 425.565 180.096 424.089 180.096C423.387 180.096 422.577 179.754 422.577 178.962C422.577 177.72 424.629 177.63 425.817 177.63H426.267V178.116ZM430.661 181.5H432.713V180.204H432.749C433.379 181.248 434.513 181.716 435.719 181.716C438.383 181.716 439.985 179.736 439.985 177.18C439.985 174.624 438.275 172.644 435.809 172.644C434.189 172.644 433.325 173.4 432.875 173.958H432.821V167.892H430.661V181.5ZM437.825 177.18C437.825 178.53 436.871 179.772 435.287 179.772C433.703 179.772 432.749 178.53 432.749 177.18C432.749 175.83 433.703 174.588 435.287 174.588C436.871 174.588 437.825 175.83 437.825 177.18Z" fill="#616C7F"/>
<path d="M461.258 181.5H463.526V170.808H467.432V168.756H457.352V170.808H461.258V181.5ZM472.393 181.5H474.337V176.532C474.337 175.308 474.337 172.644 470.647 172.644C469.279 172.644 467.929 173.058 466.975 174.03L468.109 175.164C468.685 174.624 469.513 174.264 470.413 174.264C471.565 174.264 472.393 174.822 472.393 175.884V176.118H471.853C469.693 176.118 466.417 176.316 466.417 179.124C466.417 180.834 467.965 181.716 469.567 181.716C470.719 181.716 471.727 181.284 472.339 180.312H472.393V181.5ZM472.267 178.116C472.267 179.322 471.565 180.096 470.089 180.096C469.387 180.096 468.577 179.754 468.577 178.962C468.577 177.72 470.629 177.63 471.817 177.63H472.267V178.116ZM476.661 181.5H478.713V180.204H478.749C479.379 181.248 480.513 181.716 481.719 181.716C484.383 181.716 485.985 179.736 485.985 177.18C485.985 174.624 484.275 172.644 481.809 172.644C480.189 172.644 479.325 173.4 478.875 173.958H478.821V167.892H476.661V181.5ZM483.825 177.18C483.825 178.53 482.871 179.772 481.287 179.772C479.703 179.772 478.749 178.53 478.749 177.18C478.749 175.83 479.703 174.588 481.287 174.588C482.871 174.588 483.825 175.83 483.825 177.18Z" fill="#616C7F"/>
<path d="M507.258 181.5H509.526V170.808H513.432V168.756H503.352V170.808H507.258V181.5ZM518.393 181.5H520.337V176.532C520.337 175.308 520.337 172.644 516.647 172.644C515.279 172.644 513.929 173.058 512.975 174.03L514.109 175.164C514.685 174.624 515.513 174.264 516.413 174.264C517.565 174.264 518.393 174.822 518.393 175.884V176.118H517.853C515.693 176.118 512.417 176.316 512.417 179.124C512.417 180.834 513.965 181.716 515.567 181.716C516.719 181.716 517.727 181.284 518.339 180.312H518.393V181.5ZM518.267 178.116C518.267 179.322 517.565 180.096 516.089 180.096C515.387 180.096 514.577 179.754 514.577 178.962C514.577 177.72 516.629 177.63 517.817 177.63H518.267V178.116ZM522.661 181.5H524.713V180.204H524.749C525.379 181.248 526.513 181.716 527.719 181.716C530.383 181.716 531.985 179.736 531.985 177.18C531.985 174.624 530.275 172.644 527.809 172.644C526.189 172.644 525.325 173.4 524.875 173.958H524.821V167.892H522.661V181.5ZM529.825 177.18C529.825 178.53 528.871 179.772 527.287 179.772C525.703 179.772 524.749 178.53 524.749 177.18C524.749 175.83 525.703 174.588 527.287 174.588C528.871 174.588 529.825 175.83 529.825 177.18Z" fill="#616C7F"/>
<path d="M533 197H319V199H533V197Z" fill="#D2D6DD" mask="url(#path-36-inside-5_44_11203)"/>
<path d="M737.252 109.858C736.482 109.13 735.446 108.836 734.41 108.836C732.576 108.836 730.756 109.788 730.756 111.832C730.756 115.374 735.46 114.128 735.46 116.298C735.46 117.208 734.536 117.656 733.724 117.656C732.94 117.656 732.198 117.278 731.764 116.62L730.434 117.908C731.246 118.874 732.45 119.252 733.682 119.252C735.628 119.252 737.308 118.216 737.308 116.088C737.308 112.56 732.604 113.694 732.604 111.706C732.604 110.796 733.416 110.432 734.228 110.432C734.914 110.432 735.586 110.684 735.964 111.216L737.252 109.858ZM739.019 119H740.699V112.28H739.019V119ZM738.781 109.998C738.781 110.53 739.229 111.006 739.845 111.006C740.461 111.006 740.937 110.572 740.937 109.998C740.937 109.424 740.461 108.99 739.845 108.99C739.229 108.99 738.781 109.466 738.781 109.998ZM742.152 119H747.948V117.656H744.14L747.78 113.806V112.28H742.32V113.624H745.75V113.652L742.152 117.446V119ZM755.85 116.228V115.766C755.85 113.428 754.576 112.112 752.7 112.112C750.67 112.112 749.046 113.526 749.046 115.64C749.046 117.754 750.67 119.168 752.7 119.168C753.764 119.168 754.758 118.79 755.542 117.824L754.338 116.914C753.918 117.432 753.372 117.824 752.532 117.824C751.594 117.824 750.838 117.222 750.726 116.228H755.85ZM750.726 114.968C750.852 114.002 751.468 113.372 752.462 113.372C753.512 113.372 754.156 113.988 754.17 114.968H750.726ZM757.421 118.02C757.421 118.622 757.953 119.084 758.541 119.084C759.157 119.084 759.661 118.594 759.661 117.992C759.661 117.39 759.143 116.928 758.541 116.928C757.925 116.928 757.421 117.418 757.421 118.02ZM757.421 113.274C757.421 113.876 757.953 114.338 758.541 114.338C759.157 114.338 759.661 113.848 759.661 113.246C759.661 112.644 759.143 112.182 758.541 112.182C757.925 112.182 757.421 112.672 757.421 113.274ZM765.86 119H771.838V117.404H767.624V109.088H765.86V119ZM781.926 113.204H778.132V114.8H780.162V117.138C779.546 117.488 778.734 117.656 777.838 117.656C775.794 117.656 774.436 116.088 774.436 113.974C774.436 112 775.794 110.432 777.838 110.432C778.832 110.432 779.798 110.782 780.428 111.398L781.73 110.082C780.694 109.158 779.336 108.836 777.824 108.836C774.772 108.836 772.588 110.908 772.588 114.086C772.588 117.18 774.772 119.252 777.824 119.252C779.35 119.252 780.722 118.916 781.926 118.272V113.204ZM733.136 136H734.9V127.684H737.938V126.088H730.098V127.684H733.136V136ZM741.797 136H743.309V132.136C743.309 131.184 743.309 129.112 740.439 129.112C739.375 129.112 738.325 129.434 737.583 130.19L738.465 131.072C738.913 130.652 739.557 130.372 740.257 130.372C741.153 130.372 741.797 130.806 741.797 131.632V131.814H741.377C739.697 131.814 737.149 131.968 737.149 134.152C737.149 135.482 738.353 136.168 739.599 136.168C740.495 136.168 741.279 135.832 741.755 135.076H741.797V136ZM741.699 133.368C741.699 134.306 741.153 134.908 740.005 134.908C739.459 134.908 738.829 134.642 738.829 134.026C738.829 133.06 740.425 132.99 741.349 132.99H741.699V133.368ZM745.116 136H746.712V134.992H746.74C747.23 135.804 748.112 136.168 749.05 136.168C751.122 136.168 752.368 134.628 752.368 132.64C752.368 130.652 751.038 129.112 749.12 129.112C747.86 129.112 747.188 129.7 746.838 130.134H746.796V125.416H745.116V136ZM750.688 132.64C750.688 133.69 749.946 134.656 748.714 134.656C747.482 134.656 746.74 133.69 746.74 132.64C746.74 131.59 747.482 130.624 748.714 130.624C749.946 130.624 750.688 131.59 750.688 132.64ZM766.407 127.404C765.427 126.27 764.279 125.836 762.935 125.836C759.883 125.836 757.699 127.908 757.699 131.086C757.699 134.18 759.883 136.252 762.935 136.252C764.391 136.252 765.735 135.72 766.631 134.488L765.175 133.452C764.517 134.292 763.747 134.656 762.949 134.656C760.905 134.656 759.547 133.088 759.547 130.974C759.547 129 760.905 127.432 762.949 127.432C763.635 127.432 764.307 127.642 765.035 128.412L766.407 127.404ZM767.325 132.64C767.325 134.754 768.949 136.168 770.979 136.168C773.009 136.168 774.633 134.754 774.633 132.64C774.633 130.526 773.009 129.112 770.979 129.112C768.949 129.112 767.325 130.526 767.325 132.64ZM769.005 132.64C769.005 131.59 769.747 130.624 770.979 130.624C772.211 130.624 772.953 131.59 772.953 132.64C772.953 133.69 772.211 134.656 770.979 134.656C769.747 134.656 769.005 133.69 769.005 132.64ZM782.338 129.28H780.658V132.948C780.658 133.844 780.224 134.656 779.118 134.656C777.942 134.656 777.886 133.424 777.886 132.682V129.28H776.206V133.522C776.206 134.894 776.85 136.168 778.656 136.168C779.776 136.168 780.406 135.594 780.714 134.922H780.742V136H782.338V129.28ZM784.245 136H785.925V132.332C785.925 131.436 786.359 130.624 787.465 130.624C788.641 130.624 788.697 131.856 788.697 132.598V136H790.377V131.758C790.377 130.386 789.733 129.112 787.927 129.112C786.807 129.112 786.177 129.686 785.869 130.358H785.841V129.28H784.245V136ZM792.886 130.708V133.788C792.886 135.37 793.306 136.168 795.084 136.168C795.476 136.168 796.064 136.112 796.414 135.944V134.53C796.204 134.684 795.798 134.74 795.504 134.74C794.762 134.74 794.566 134.32 794.566 133.648V130.708H796.414V129.28H794.566V127.334H792.886V129.28H791.5V130.708H792.886ZM797.725 135.02C797.725 135.622 798.257 136.084 798.845 136.084C799.461 136.084 799.965 135.594 799.965 134.992C799.965 134.39 799.447 133.928 798.845 133.928C798.229 133.928 797.725 134.418 797.725 135.02ZM797.725 130.274C797.725 130.876 798.257 131.338 798.845 131.338C799.461 131.338 799.965 130.848 799.965 130.246C799.965 129.644 799.447 129.182 798.845 129.182C798.229 129.182 797.725 129.672 797.725 130.274ZM805.647 127.684H810.491L806.445 136H808.419L812.381 127.628V126.088H805.647V127.684Z" fill="black"/>
<path d="M734.258 181.5H736.526V170.808H740.432V168.756H730.352V170.808H734.258V181.5ZM745.393 181.5H747.337V176.532C747.337 175.308 747.337 172.644 743.647 172.644C742.279 172.644 740.929 173.058 739.975 174.03L741.109 175.164C741.685 174.624 742.513 174.264 743.413 174.264C744.565 174.264 745.393 174.822 745.393 175.884V176.118H744.853C742.693 176.118 739.417 176.316 739.417 179.124C739.417 180.834 740.965 181.716 742.567 181.716C743.719 181.716 744.727 181.284 745.339 180.312H745.393V181.5ZM745.267 178.116C745.267 179.322 744.565 180.096 743.089 180.096C742.387 180.096 741.577 179.754 741.577 178.962C741.577 177.72 743.629 177.63 744.817 177.63H745.267V178.116ZM749.661 181.5H751.713V180.204H751.749C752.379 181.248 753.513 181.716 754.719 181.716C757.383 181.716 758.985 179.736 758.985 177.18C758.985 174.624 757.275 172.644 754.809 172.644C753.189 172.644 752.325 173.4 751.875 173.958H751.821V167.892H749.661V181.5ZM756.825 177.18C756.825 178.53 755.871 179.772 754.287 179.772C752.703 179.772 751.749 178.53 751.749 177.18C751.749 175.83 752.703 174.588 754.287 174.588C755.871 174.588 756.825 175.83 756.825 177.18Z" fill="#616C7F"/>
<path d="M780.258 181.5H782.526V170.808H786.432V168.756H776.352V170.808H780.258V181.5ZM791.393 181.5H793.337V176.532C793.337 175.308 793.337 172.644 789.647 172.644C788.279 172.644 786.929 173.058 785.975 174.03L787.109 175.164C787.685 174.624 788.513 174.264 789.413 174.264C790.565 174.264 791.393 174.822 791.393 175.884V176.118H790.853C788.693 176.118 785.417 176.316 785.417 179.124C785.417 180.834 786.965 181.716 788.567 181.716C789.719 181.716 790.727 181.284 791.339 180.312H791.393V181.5ZM791.267 178.116C791.267 179.322 790.565 180.096 789.089 180.096C788.387 180.096 787.577 179.754 787.577 178.962C787.577 177.72 789.629 177.63 790.817 177.63H791.267V178.116ZM795.661 181.5H797.713V180.204H797.749C798.379 181.248 799.513 181.716 800.719 181.716C803.383 181.716 804.985 179.736 804.985 177.18C804.985 174.624 803.275 172.644 800.809 172.644C799.189 172.644 798.325 173.4 797.875 173.958H797.821V167.892H795.661V181.5ZM802.825 177.18C802.825 178.53 801.871 179.772 800.287 179.772C798.703 179.772 797.749 178.53 797.749 177.18C797.749 175.83 798.703 174.588 800.287 174.588C801.871 174.588 802.825 175.83 802.825 177.18Z" fill="#6C3078"/>
<rect x="776" y="196" width="30" height="2" rx="1" fill="#6C3078"/>
<path d="M826.258 181.5H828.526V170.808H832.432V168.756H822.352V170.808H826.258V181.5ZM837.393 181.5H839.337V176.532C839.337 175.308 839.337 172.644 835.647 172.644C834.279 172.644 832.929 173.058 831.975 174.03L833.109 175.164C833.685 174.624 834.513 174.264 835.413 174.264C836.565 174.264 837.393 174.822 837.393 175.884V176.118H836.853C834.693 176.118 831.417 176.316 831.417 179.124C831.417 180.834 832.965 181.716 834.567 181.716C835.719 181.716 836.727 181.284 837.339 180.312H837.393V181.5ZM837.267 178.116C837.267 179.322 836.565 180.096 835.089 180.096C834.387 180.096 833.577 179.754 833.577 178.962C833.577 177.72 835.629 177.63 836.817 177.63H837.267V178.116ZM841.661 181.5H843.713V180.204H843.749C844.379 181.248 845.513 181.716 846.719 181.716C849.383 181.716 850.985 179.736 850.985 177.18C850.985 174.624 849.275 172.644 846.809 172.644C845.189 172.644 844.325 173.4 843.875 173.958H843.821V167.892H841.661V181.5ZM848.825 177.18C848.825 178.53 847.871 179.772 846.287 179.772C844.703 179.772 843.749 178.53 843.749 177.18C843.749 175.83 844.703 174.588 846.287 174.588C847.871 174.588 848.825 175.83 848.825 177.18Z" fill="#616C7F"/>
<path d="M872.258 181.5H874.526V170.808H878.432V168.756H868.352V170.808H872.258V181.5ZM883.393 181.5H885.337V176.532C885.337 175.308 885.337 172.644 881.647 172.644C880.279 172.644 878.929 173.058 877.975 174.03L879.109 175.164C879.685 174.624 880.513 174.264 881.413 174.264C882.565 174.264 883.393 174.822 883.393 175.884V176.118H882.853C880.693 176.118 877.417 176.316 877.417 179.124C877.417 180.834 878.965 181.716 880.567 181.716C881.719 181.716 882.727 181.284 883.339 180.312H883.393V181.5ZM883.267 178.116C883.267 179.322 882.565 180.096 881.089 180.096C880.387 180.096 879.577 179.754 879.577 178.962C879.577 177.72 881.629 177.63 882.817 177.63H883.267V178.116ZM887.661 181.5H889.713V180.204H889.749C890.379 181.248 891.513 181.716 892.719 181.716C895.383 181.716 896.985 179.736 896.985 177.18C896.985 174.624 895.275 172.644 892.809 172.644C891.189 172.644 890.325 173.4 889.875 173.958H889.821V167.892H887.661V181.5ZM894.825 177.18C894.825 178.53 893.871 179.772 892.287 179.772C890.703 179.772 889.749 178.53 889.749 177.18C889.749 175.83 890.703 174.588 892.287 174.588C893.871 174.588 894.825 175.83 894.825 177.18Z" fill="#616C7F"/>
<path d="M918.258 181.5H920.526V170.808H924.432V168.756H914.352V170.808H918.258V181.5ZM929.393 181.5H931.337V176.532C931.337 175.308 931.337 172.644 927.647 172.644C926.279 172.644 924.929 173.058 923.975 174.03L925.109 175.164C925.685 174.624 926.513 174.264 927.413 174.264C928.565 174.264 929.393 174.822 929.393 175.884V176.118H928.853C926.693 176.118 923.417 176.316 923.417 179.124C923.417 180.834 924.965 181.716 926.567 181.716C927.719 181.716 928.727 181.284 929.339 180.312H929.393V181.5ZM929.267 178.116C929.267 179.322 928.565 180.096 927.089 180.096C926.387 180.096 925.577 179.754 925.577 178.962C925.577 177.72 927.629 177.63 928.817 177.63H929.267V178.116ZM933.661 181.5H935.713V180.204H935.749C936.379 181.248 937.513 181.716 938.719 181.716C941.383 181.716 942.985 179.736 942.985 177.18C942.985 174.624 941.275 172.644 938.809 172.644C937.189 172.644 936.325 173.4 935.875 173.958H935.821V167.892H933.661V181.5ZM940.825 177.18C940.825 178.53 939.871 179.772 938.287 179.772C936.703 179.772 935.749 178.53 935.749 177.18C935.749 175.83 936.703 174.588 938.287 174.588C939.871 174.588 940.825 175.83 940.825 177.18Z" fill="#616C7F"/>
<path d="M964.258 181.5H966.526V170.808H970.432V168.756H960.352V170.808H964.258V181.5ZM975.393 181.5H977.337V176.532C977.337 175.308 977.337 172.644 973.647 172.644C972.279 172.644 970.929 173.058 969.975 174.03L971.109 175.164C971.685 174.624 972.513 174.264 973.413 174.264C974.565 174.264 975.393 174.822 975.393 175.884V176.118H974.853C972.693 176.118 969.417 176.316 969.417 179.124C969.417 180.834 970.965 181.716 972.567 181.716C973.719 181.716 974.727 181.284 975.339 180.312H975.393V181.5ZM975.267 178.116C975.267 179.322 974.565 180.096 973.089 180.096C972.387 180.096 971.577 179.754 971.577 178.962C971.577 177.72 973.629 177.63 974.817 177.63H975.267V178.116ZM979.661 181.5H981.713V180.204H981.749C982.379 181.248 983.513 181.716 984.719 181.716C987.383 181.716 988.985 179.736 988.985 177.18C988.985 174.624 987.275 172.644 984.809 172.644C983.189 172.644 982.325 173.4 981.875 173.958H981.821V167.892H979.661V181.5ZM986.825 177.18C986.825 178.53 985.871 179.772 984.287 179.772C982.703 179.772 981.749 178.53 981.749 177.18C981.749 175.83 982.703 174.588 984.287 174.588C985.871 174.588 986.825 175.83 986.825 177.18Z" fill="#616C7F"/>
<path d="M1010.26 181.5H1012.53V170.808H1016.43V168.756H1006.35V170.808H1010.26V181.5ZM1021.39 181.5H1023.34V176.532C1023.34 175.308 1023.34 172.644 1019.65 172.644C1018.28 172.644 1016.93 173.058 1015.97 174.03L1017.11 175.164C1017.68 174.624 1018.51 174.264 1019.41 174.264C1020.56 174.264 1021.39 174.822 1021.39 175.884V176.118H1020.85C1018.69 176.118 1015.42 176.316 1015.42 179.124C1015.42 180.834 1016.96 181.716 1018.57 181.716C1019.72 181.716 1020.73 181.284 1021.34 180.312H1021.39V181.5ZM1021.27 178.116C1021.27 179.322 1020.56 180.096 1019.09 180.096C1018.39 180.096 1017.58 179.754 1017.58 178.962C1017.58 177.72 1019.63 177.63 1020.82 177.63H1021.27V178.116ZM1025.66 181.5H1027.71V180.204H1027.75C1028.38 181.248 1029.51 181.716 1030.72 181.716C1033.38 181.716 1034.98 179.736 1034.98 177.18C1034.98 174.624 1033.27 172.644 1030.81 172.644C1029.19 172.644 1028.32 173.4 1027.87 173.958H1027.82V167.892H1025.66V181.5ZM1032.82 177.18C1032.82 178.53 1031.87 179.772 1030.29 179.772C1028.7 179.772 1027.75 178.53 1027.75 177.18C1027.75 175.83 1028.7 174.588 1030.29 174.588C1031.87 174.588 1032.82 175.83 1032.82 177.18Z" fill="#616C7F"/>
<path d="M1036 197H730V199H1036V197Z" fill="#D2D6DD" mask="url(#path-45-inside-6_44_11203)"/>
</svg>
