<svg width="848" height="302" viewBox="0 0 848 302" fill="none" xmlns="http://www.w3.org/2000/svg">
<path d="M9.282 3.404C8.302 2.27 7.154 1.836 5.81 1.836C2.758 1.836 0.574 3.908 0.574 7.086C0.574 10.18 2.758 12.252 5.81 12.252C7.266 12.252 8.61 11.72 9.506 10.488L8.05 9.452C7.392 10.292 6.622 10.656 5.824 10.656C3.78 10.656 2.422 9.088 2.422 6.974C2.422 5 3.78 3.432 5.824 3.432C6.51 3.432 7.182 3.642 7.91 4.412L9.282 3.404ZM12.216 1.416H10.536V12H12.216V8.332C12.216 7.436 12.65 6.624 13.756 6.624C14.932 6.624 14.988 7.856 14.988 8.598V12H16.668V7.758C16.668 6.386 16.024 5.112 14.218 5.112C13.182 5.112 12.51 5.658 12.244 6.218H12.216V1.416ZM25.043 9.228V8.766C25.043 6.428 23.769 5.112 21.893 5.112C19.863 5.112 18.239 6.526 18.239 8.64C18.239 10.754 19.863 12.168 21.893 12.168C22.957 12.168 23.951 11.79 24.735 10.824L23.531 9.914C23.111 10.432 22.565 10.824 21.725 10.824C20.787 10.824 20.031 10.222 19.919 9.228H25.043ZM19.919 7.968C20.045 7.002 20.661 6.372 21.655 6.372C22.705 6.372 23.349 6.988 23.363 7.968H19.919ZM32.3681 6.134C31.7241 5.42 30.7861 5.112 29.9321 5.112C27.9021 5.112 26.2781 6.526 26.2781 8.64C26.2781 10.754 27.9021 12.168 29.9321 12.168C30.5201 12.168 31.6681 11.916 32.3541 11.23L31.2341 10.026C30.9261 10.432 30.4501 10.656 29.9321 10.656C28.7001 10.656 27.9581 9.69 27.9581 8.64C27.9581 7.59 28.7001 6.624 29.9321 6.624C30.3801 6.624 30.8141 6.89 31.2061 7.296L32.3681 6.134ZM33.368 12H35.048V8.57H35.076L37.75 12H39.976L36.91 8.332L39.794 5.28H37.638L35.048 8.066V1.416H33.368V12ZM40.8875 12H42.4835V10.992H42.5115C43.0015 11.804 43.8835 12.168 44.8215 12.168C46.8935 12.168 48.1395 10.628 48.1395 8.64C48.1395 6.652 46.8095 5.112 44.8915 5.112C43.6315 5.112 42.9595 5.7 42.6095 6.134H42.5675V1.416H40.8875V12ZM46.4595 8.64C46.4595 9.69 45.7175 10.656 44.4855 10.656C43.2535 10.656 42.5115 9.69 42.5115 8.64C42.5115 7.59 43.2535 6.624 44.4855 6.624C45.7175 6.624 46.4595 7.59 46.4595 8.64ZM49.3699 8.64C49.3699 10.754 50.9939 12.168 53.0239 12.168C55.0539 12.168 56.6779 10.754 56.6779 8.64C56.6779 6.526 55.0539 5.112 53.0239 5.112C50.9939 5.112 49.3699 6.526 49.3699 8.64ZM51.0499 8.64C51.0499 7.59 51.7919 6.624 53.0239 6.624C54.2559 6.624 54.9979 7.59 54.9979 8.64C54.9979 9.69 54.2559 10.656 53.0239 10.656C51.7919 10.656 51.0499 9.69 51.0499 8.64ZM57.2848 12H59.2728L61.0368 9.592L62.7868 12H64.8308L62.1288 8.388L64.4248 5.28H62.5068L61.0508 7.296L59.7068 5.28H57.6628L59.9868 8.388L57.2848 12ZM65.7704 11.02C65.7704 11.622 66.3024 12.084 66.8904 12.084C67.5064 12.084 68.0104 11.594 68.0104 10.992C68.0104 10.39 67.4924 9.928 66.8904 9.928C66.2744 9.928 65.7704 10.418 65.7704 11.02ZM65.7704 6.274C65.7704 6.876 66.3024 7.338 66.8904 7.338C67.5064 7.338 68.0104 6.848 68.0104 6.246C68.0104 5.644 67.4924 5.182 66.8904 5.182C66.2744 5.182 65.7704 5.672 65.7704 6.274ZM72.0969 12H73.8609V3.684H76.8989V2.088H69.0589V3.684H72.0969V12ZM76.6668 12H78.3468V8.402C78.3468 8.038 78.5708 6.708 80.1528 6.708C80.4188 6.708 80.6848 6.764 80.9648 6.834V5.21C80.7688 5.154 80.5728 5.112 80.3628 5.112C79.4808 5.112 78.7388 5.574 78.3748 6.344H78.3468V5.28H76.6668V12ZM88.2403 5.28H86.5603V8.948C86.5603 9.844 86.1263 10.656 85.0203 10.656C83.8443 10.656 83.7883 9.424 83.7883 8.682V5.28H82.1083V9.522C82.1083 10.894 82.7523 12.168 84.5583 12.168C85.6783 12.168 86.3083 11.594 86.6163 10.922H86.6443V12H88.2403V5.28ZM96.6153 9.228V8.766C96.6153 6.428 95.3413 5.112 93.4653 5.112C91.4353 5.112 89.8113 6.526 89.8113 8.64C89.8113 10.754 91.4353 12.168 93.4653 12.168C94.5293 12.168 95.5233 11.79 96.3073 10.824L95.1033 9.914C94.6833 10.432 94.1373 10.824 93.2973 10.824C92.3593 10.824 91.6033 10.222 91.4913 9.228H96.6153ZM91.4913 7.968C91.6173 7.002 92.2333 6.372 93.2273 6.372C94.2773 6.372 94.9213 6.988 94.9353 7.968H91.4913ZM3.136 29H4.9V20.684H7.938V19.088H0.098V20.684H3.136V29ZM7.70591 29H9.38591V25.402C9.38591 25.038 9.60991 23.708 11.1919 23.708C11.4579 23.708 11.7239 23.764 12.0039 23.834V22.21C11.8079 22.154 11.6119 22.112 11.4019 22.112C10.5199 22.112 9.77791 22.574 9.41391 23.344H9.38591V22.28H7.70591V29ZM19.3692 26.228V25.766C19.3692 23.428 18.0952 22.112 16.2192 22.112C14.1892 22.112 12.5652 23.526 12.5652 25.64C12.5652 27.754 14.1892 29.168 16.2192 29.168C17.2832 29.168 18.2772 28.79 19.0612 27.824L17.8572 26.914C17.4372 27.432 16.8912 27.824 16.0512 27.824C15.1132 27.824 14.3572 27.222 14.2452 26.228H19.3692ZM14.2452 24.968C14.3712 24.002 14.9872 23.372 15.9812 23.372C17.0312 23.372 17.6752 23.988 17.6892 24.968H14.2452ZM27.4083 26.228V25.766C27.4083 23.428 26.1343 22.112 24.2583 22.112C22.2283 22.112 20.6043 23.526 20.6043 25.64C20.6043 27.754 22.2283 29.168 24.2583 29.168C25.3223 29.168 26.3163 28.79 27.1003 27.824L25.8963 26.914C25.4763 27.432 24.9303 27.824 24.0903 27.824C23.1523 27.824 22.3963 27.222 22.2843 26.228H27.4083ZM22.2843 24.968C22.4103 24.002 23.0263 23.372 24.0203 23.372C25.0703 23.372 25.7143 23.988 25.7283 24.968H22.2843ZM28.9793 28.02C28.9793 28.622 29.5113 29.084 30.0993 29.084C30.7153 29.084 31.2193 28.594 31.2193 27.992C31.2193 27.39 30.7013 26.928 30.0993 26.928C29.4833 26.928 28.9793 27.418 28.9793 28.02ZM28.9793 23.274C28.9793 23.876 29.5113 24.338 30.0993 24.338C30.7153 24.338 31.2193 23.848 31.2193 23.246C31.2193 22.644 30.7013 22.182 30.0993 22.182C29.4833 22.182 28.9793 22.672 28.9793 23.274ZM37.4185 29H39.1825V24.884H43.5505V23.288H39.1825V20.684H43.8165V19.088H37.4185V29ZM49.5036 29H51.0156V25.136C51.0156 24.184 51.0156 22.112 48.1456 22.112C47.0816 22.112 46.0316 22.434 45.2896 23.19L46.1716 24.072C46.6196 23.652 47.2636 23.372 47.9636 23.372C48.8596 23.372 49.5036 23.806 49.5036 24.632V24.814H49.0836C47.4036 24.814 44.8556 24.968 44.8556 27.152C44.8556 28.482 46.0596 29.168 47.3056 29.168C48.2016 29.168 48.9856 28.832 49.4616 28.076H49.5036V29ZM49.4056 26.368C49.4056 27.306 48.8596 27.908 47.7116 27.908C47.1656 27.908 46.5356 27.642 46.5356 27.026C46.5356 26.06 48.1316 25.99 49.0556 25.99H49.4056V26.368ZM52.8511 29H54.5311V18.416H52.8511V29ZM61.1638 23.134C60.6178 22.392 59.6658 22.112 58.7698 22.112C57.4118 22.112 56.0678 22.784 56.0678 24.282C56.0678 26.844 59.6938 25.752 59.6938 27.138C59.6938 27.67 59.0638 27.908 58.5738 27.908C57.8598 27.908 57.4118 27.558 56.9778 27.082L55.8578 28.132C56.5438 28.902 57.4398 29.168 58.4758 29.168C59.8478 29.168 61.3738 28.608 61.3738 27.012C61.3738 24.394 57.7478 25.374 57.7478 24.17C57.7478 23.666 58.2798 23.456 58.7278 23.456C59.3018 23.456 59.7218 23.694 60.0438 24.142L61.1638 23.134ZM69.1485 26.228V25.766C69.1485 23.428 67.8745 22.112 65.9985 22.112C63.9685 22.112 62.3445 23.526 62.3445 25.64C62.3445 27.754 63.9685 29.168 65.9985 29.168C67.0625 29.168 68.0565 28.79 68.8405 27.824L67.6365 26.914C67.2165 27.432 66.6705 27.824 65.8305 27.824C64.8925 27.824 64.1365 27.222 64.0245 26.228H69.1485ZM64.0245 24.968C64.1505 24.002 64.7665 23.372 65.7605 23.372C66.8105 23.372 67.4545 23.988 67.4685 24.968H64.0245Z" fill="black"/>
<g clip-path="url(#clip0_41_10923)">
<rect width="200" height="36" transform="translate(0 50)" fill="white"/>
<path d="M22.6667 71.8334C22.601 71.8337 22.5359 71.8209 22.4752 71.7957C22.4145 71.7705 22.3595 71.7335 22.3133 71.6867C22.2197 71.593 22.1671 71.4659 22.1671 71.3334C22.1671 71.2009 22.2197 71.0738 22.3133 70.9801L25.2933 68.0001L22.3133 65.0201C22.225 64.9253 22.1769 64.7999 22.1792 64.6704C22.1815 64.5408 22.234 64.4173 22.3256 64.3256C22.4172 64.234 22.5408 64.1816 22.6703 64.1793C22.7999 64.177 22.9252 64.2251 23.02 64.3134L26.3533 67.6467C26.447 67.7405 26.4996 67.8676 26.4996 68.0001C26.4996 68.1326 26.447 68.2596 26.3533 68.3534L23.02 71.6867C22.9738 71.7335 22.9188 71.7705 22.8581 71.7957C22.7975 71.8209 22.7324 71.8337 22.6667 71.8334V71.8334Z" fill="#6B778C"/>
<rect x="40.5" y="58.5" width="19" height="19" rx="3.5" fill="white" stroke="#9EA6B5"/>
<path d="M73.838 71.752C76.848 71.752 79.018 69.54 79.018 66.544C79.018 63.548 76.848 61.336 73.838 61.336C70.828 61.336 68.658 63.548 68.658 66.544C68.658 69.54 70.828 71.752 73.838 71.752ZM73.838 70.66C71.514 70.66 69.918 68.826 69.918 66.544C69.918 64.262 71.514 62.428 73.838 62.428C76.162 62.428 77.758 64.262 77.758 66.544C77.758 68.826 76.162 70.66 73.838 70.66ZM80.6558 74.692H81.7478V70.338H81.7758C82.1818 71.08 83.1198 71.668 84.2958 71.668C86.1298 71.668 87.5718 70.184 87.5718 68.224C87.5718 66.236 86.1858 64.78 84.1278 64.78C83.1758 64.78 82.3778 65.2 81.7758 65.9H81.7478V64.948H80.6558V74.692ZM81.7478 68.224C81.7478 66.852 82.6578 65.788 84.0718 65.788C85.4858 65.788 86.3958 66.852 86.3958 68.224C86.3958 69.596 85.4858 70.66 84.0718 70.66C82.6578 70.66 81.7478 69.596 81.7478 68.224ZM92.8544 64.948H90.9224V63.086H89.8304V64.948H88.4024V65.872H89.8304V69.47C89.8304 70.828 90.0824 71.668 91.6364 71.668C92.0424 71.668 92.5324 71.598 92.9104 71.43L92.8684 70.436C92.5744 70.59 92.2244 70.66 91.9024 70.66C90.9364 70.66 90.9224 69.988 90.9224 69.148V65.872H92.8544V64.948ZM94.2903 71.5H95.3823V64.948H94.2903V71.5ZM94.0383 62.386C94.0383 62.848 94.3743 63.184 94.8363 63.184C95.2983 63.184 95.6343 62.848 95.6343 62.386C95.6343 61.952 95.2843 61.588 94.8363 61.588C94.3883 61.588 94.0383 61.952 94.0383 62.386ZM97.1775 68.224C97.1775 70.268 98.6615 71.668 100.678 71.668C102.694 71.668 104.178 70.268 104.178 68.224C104.178 66.18 102.694 64.78 100.678 64.78C98.6615 64.78 97.1775 66.18 97.1775 68.224ZM98.3535 68.224C98.3535 66.852 99.2635 65.788 100.678 65.788C102.092 65.788 103.002 66.852 103.002 68.224C103.002 69.596 102.092 70.66 100.678 70.66C99.2635 70.66 98.3535 69.596 98.3535 68.224ZM105.868 71.5H106.96V68.308C106.96 66.81 107.576 65.788 108.99 65.788C110.012 65.788 110.488 66.474 110.488 67.566V71.5H111.58V67.454C111.58 65.872 110.81 64.78 109.088 64.78C108.01 64.78 107.198 65.382 106.904 66.026H106.876C106.876 65.662 106.848 65.298 106.848 64.948H105.812C105.812 65.382 105.868 65.9 105.868 66.502V71.5Z" fill="#333333"/>
<rect width="200" height="36" transform="translate(0 86)" fill="white"/>
<path d="M22.6667 107.833C22.601 107.834 22.5359 107.821 22.4752 107.796C22.4145 107.771 22.3595 107.733 22.3133 107.687C22.2197 107.593 22.1671 107.466 22.1671 107.333C22.1671 107.201 22.2197 107.074 22.3133 106.98L25.2933 104L22.3133 101.02C22.225 100.925 22.1769 100.8 22.1792 100.67C22.1815 100.541 22.234 100.417 22.3256 100.326C22.4172 100.234 22.5408 100.182 22.6703 100.179C22.7999 100.177 22.9252 100.225 23.02 100.313L26.3533 103.647C26.447 103.74 26.4996 103.868 26.4996 104C26.4996 104.133 26.447 104.26 26.3533 104.353L23.02 107.687C22.9738 107.733 22.9188 107.771 22.8581 107.796C22.7975 107.821 22.7324 107.834 22.6667 107.833V107.833Z" fill="#6B778C"/>
<rect x="40.5" y="94.5" width="19" height="19" rx="3.5" fill="white" stroke="#9EA6B5"/>
<path d="M73.838 107.752C76.848 107.752 79.018 105.54 79.018 102.544C79.018 99.548 76.848 97.336 73.838 97.336C70.828 97.336 68.658 99.548 68.658 102.544C68.658 105.54 70.828 107.752 73.838 107.752ZM73.838 106.66C71.514 106.66 69.918 104.826 69.918 102.544C69.918 100.262 71.514 98.428 73.838 98.428C76.162 98.428 77.758 100.262 77.758 102.544C77.758 104.826 76.162 106.66 73.838 106.66ZM80.6558 110.692H81.7478V106.338H81.7758C82.1818 107.08 83.1198 107.668 84.2958 107.668C86.1298 107.668 87.5718 106.184 87.5718 104.224C87.5718 102.236 86.1858 100.78 84.1278 100.78C83.1758 100.78 82.3778 101.2 81.7758 101.9H81.7478V100.948H80.6558V110.692ZM81.7478 104.224C81.7478 102.852 82.6578 101.788 84.0718 101.788C85.4858 101.788 86.3958 102.852 86.3958 104.224C86.3958 105.596 85.4858 106.66 84.0718 106.66C82.6578 106.66 81.7478 105.596 81.7478 104.224ZM92.8544 100.948H90.9224V99.086H89.8304V100.948H88.4024V101.872H89.8304V105.47C89.8304 106.828 90.0824 107.668 91.6364 107.668C92.0424 107.668 92.5324 107.598 92.9104 107.43L92.8684 106.436C92.5744 106.59 92.2244 106.66 91.9024 106.66C90.9364 106.66 90.9224 105.988 90.9224 105.148V101.872H92.8544V100.948ZM94.2903 107.5H95.3823V100.948H94.2903V107.5ZM94.0383 98.386C94.0383 98.848 94.3743 99.184 94.8363 99.184C95.2983 99.184 95.6343 98.848 95.6343 98.386C95.6343 97.952 95.2843 97.588 94.8363 97.588C94.3883 97.588 94.0383 97.952 94.0383 98.386ZM97.1775 104.224C97.1775 106.268 98.6615 107.668 100.678 107.668C102.694 107.668 104.178 106.268 104.178 104.224C104.178 102.18 102.694 100.78 100.678 100.78C98.6615 100.78 97.1775 102.18 97.1775 104.224ZM98.3535 104.224C98.3535 102.852 99.2635 101.788 100.678 101.788C102.092 101.788 103.002 102.852 103.002 104.224C103.002 105.596 102.092 106.66 100.678 106.66C99.2635 106.66 98.3535 105.596 98.3535 104.224ZM105.868 107.5H106.96V104.308C106.96 102.81 107.576 101.788 108.99 101.788C110.012 101.788 110.488 102.474 110.488 103.566V107.5H111.58V103.454C111.58 101.872 110.81 100.78 109.088 100.78C108.01 100.78 107.198 101.382 106.904 102.026H106.876C106.876 101.662 106.848 101.298 106.848 100.948H105.812C105.812 101.382 105.868 101.9 105.868 102.502V107.5Z" fill="#333333"/>
<rect width="200" height="36" transform="translate(0 122)" fill="white"/>
<path d="M22.6667 143.833C22.601 143.834 22.5359 143.821 22.4752 143.796C22.4145 143.771 22.3595 143.733 22.3133 143.687C22.2197 143.593 22.1671 143.466 22.1671 143.333C22.1671 143.201 22.2197 143.074 22.3133 142.98L25.2933 140L22.3133 137.02C22.225 136.925 22.1769 136.8 22.1792 136.67C22.1815 136.541 22.234 136.417 22.3256 136.326C22.4172 136.234 22.5408 136.182 22.6703 136.179C22.7999 136.177 22.9252 136.225 23.02 136.313L26.3533 139.647C26.447 139.74 26.4996 139.868 26.4996 140C26.4996 140.133 26.447 140.26 26.3533 140.353L23.02 143.687C22.9738 143.733 22.9188 143.771 22.8581 143.796C22.7975 143.821 22.7324 143.834 22.6667 143.833V143.833Z" fill="#6B778C"/>
<rect x="40.5" y="130.5" width="19" height="19" rx="3.5" fill="white" stroke="#9EA6B5"/>
<path d="M73.838 143.752C76.848 143.752 79.018 141.54 79.018 138.544C79.018 135.548 76.848 133.336 73.838 133.336C70.828 133.336 68.658 135.548 68.658 138.544C68.658 141.54 70.828 143.752 73.838 143.752ZM73.838 142.66C71.514 142.66 69.918 140.826 69.918 138.544C69.918 136.262 71.514 134.428 73.838 134.428C76.162 134.428 77.758 136.262 77.758 138.544C77.758 140.826 76.162 142.66 73.838 142.66ZM80.6558 146.692H81.7478V142.338H81.7758C82.1818 143.08 83.1198 143.668 84.2958 143.668C86.1298 143.668 87.5718 142.184 87.5718 140.224C87.5718 138.236 86.1858 136.78 84.1278 136.78C83.1758 136.78 82.3778 137.2 81.7758 137.9H81.7478V136.948H80.6558V146.692ZM81.7478 140.224C81.7478 138.852 82.6578 137.788 84.0718 137.788C85.4858 137.788 86.3958 138.852 86.3958 140.224C86.3958 141.596 85.4858 142.66 84.0718 142.66C82.6578 142.66 81.7478 141.596 81.7478 140.224ZM92.8544 136.948H90.9224V135.086H89.8304V136.948H88.4024V137.872H89.8304V141.47C89.8304 142.828 90.0824 143.668 91.6364 143.668C92.0424 143.668 92.5324 143.598 92.9104 143.43L92.8684 142.436C92.5744 142.59 92.2244 142.66 91.9024 142.66C90.9364 142.66 90.9224 141.988 90.9224 141.148V137.872H92.8544V136.948ZM94.2903 143.5H95.3823V136.948H94.2903V143.5ZM94.0383 134.386C94.0383 134.848 94.3743 135.184 94.8363 135.184C95.2983 135.184 95.6343 134.848 95.6343 134.386C95.6343 133.952 95.2843 133.588 94.8363 133.588C94.3883 133.588 94.0383 133.952 94.0383 134.386ZM97.1775 140.224C97.1775 142.268 98.6615 143.668 100.678 143.668C102.694 143.668 104.178 142.268 104.178 140.224C104.178 138.18 102.694 136.78 100.678 136.78C98.6615 136.78 97.1775 138.18 97.1775 140.224ZM98.3535 140.224C98.3535 138.852 99.2635 137.788 100.678 137.788C102.092 137.788 103.002 138.852 103.002 140.224C103.002 141.596 102.092 142.66 100.678 142.66C99.2635 142.66 98.3535 141.596 98.3535 140.224ZM105.868 143.5H106.96V140.308C106.96 138.81 107.576 137.788 108.99 137.788C110.012 137.788 110.488 138.474 110.488 139.566V143.5H111.58V139.454C111.58 137.872 110.81 136.78 109.088 136.78C108.01 136.78 107.198 137.382 106.904 138.026H106.876C106.876 137.662 106.848 137.298 106.848 136.948H105.812C105.812 137.382 105.868 137.9 105.868 138.502V143.5Z" fill="#333333"/>
<rect width="200" height="36" transform="translate(0 158)" fill="white"/>
<path d="M22.6667 179.833C22.601 179.834 22.5359 179.821 22.4752 179.796C22.4145 179.771 22.3595 179.733 22.3133 179.687C22.2197 179.593 22.1671 179.466 22.1671 179.333C22.1671 179.201 22.2197 179.074 22.3133 178.98L25.2933 176L22.3133 173.02C22.225 172.925 22.1769 172.8 22.1792 172.67C22.1815 172.541 22.234 172.417 22.3256 172.326C22.4172 172.234 22.5408 172.182 22.6703 172.179C22.7999 172.177 22.9252 172.225 23.02 172.313L26.3533 175.647C26.447 175.74 26.4996 175.868 26.4996 176C26.4996 176.133 26.447 176.26 26.3533 176.353L23.02 179.687C22.9738 179.733 22.9188 179.771 22.8581 179.796C22.7975 179.821 22.7324 179.834 22.6667 179.833V179.833Z" fill="#6B778C"/>
<rect x="40.5" y="166.5" width="19" height="19" rx="3.5" fill="white" stroke="#9EA6B5"/>
<path d="M73.838 179.752C76.848 179.752 79.018 177.54 79.018 174.544C79.018 171.548 76.848 169.336 73.838 169.336C70.828 169.336 68.658 171.548 68.658 174.544C68.658 177.54 70.828 179.752 73.838 179.752ZM73.838 178.66C71.514 178.66 69.918 176.826 69.918 174.544C69.918 172.262 71.514 170.428 73.838 170.428C76.162 170.428 77.758 172.262 77.758 174.544C77.758 176.826 76.162 178.66 73.838 178.66ZM80.6558 182.692H81.7478V178.338H81.7758C82.1818 179.08 83.1198 179.668 84.2958 179.668C86.1298 179.668 87.5718 178.184 87.5718 176.224C87.5718 174.236 86.1858 172.78 84.1278 172.78C83.1758 172.78 82.3778 173.2 81.7758 173.9H81.7478V172.948H80.6558V182.692ZM81.7478 176.224C81.7478 174.852 82.6578 173.788 84.0718 173.788C85.4858 173.788 86.3958 174.852 86.3958 176.224C86.3958 177.596 85.4858 178.66 84.0718 178.66C82.6578 178.66 81.7478 177.596 81.7478 176.224ZM92.8544 172.948H90.9224V171.086H89.8304V172.948H88.4024V173.872H89.8304V177.47C89.8304 178.828 90.0824 179.668 91.6364 179.668C92.0424 179.668 92.5324 179.598 92.9104 179.43L92.8684 178.436C92.5744 178.59 92.2244 178.66 91.9024 178.66C90.9364 178.66 90.9224 177.988 90.9224 177.148V173.872H92.8544V172.948ZM94.2903 179.5H95.3823V172.948H94.2903V179.5ZM94.0383 170.386C94.0383 170.848 94.3743 171.184 94.8363 171.184C95.2983 171.184 95.6343 170.848 95.6343 170.386C95.6343 169.952 95.2843 169.588 94.8363 169.588C94.3883 169.588 94.0383 169.952 94.0383 170.386ZM97.1775 176.224C97.1775 178.268 98.6615 179.668 100.678 179.668C102.694 179.668 104.178 178.268 104.178 176.224C104.178 174.18 102.694 172.78 100.678 172.78C98.6615 172.78 97.1775 174.18 97.1775 176.224ZM98.3535 176.224C98.3535 174.852 99.2635 173.788 100.678 173.788C102.092 173.788 103.002 174.852 103.002 176.224C103.002 177.596 102.092 178.66 100.678 178.66C99.2635 178.66 98.3535 177.596 98.3535 176.224ZM105.868 179.5H106.96V176.308C106.96 174.81 107.576 173.788 108.99 173.788C110.012 173.788 110.488 174.474 110.488 175.566V179.5H111.58V175.454C111.58 173.872 110.81 172.78 109.088 172.78C108.01 172.78 107.198 173.382 106.904 174.026H106.876C106.876 173.662 106.848 173.298 106.848 172.948H105.812C105.812 173.382 105.868 173.9 105.868 174.502V179.5Z" fill="#333333"/>
<rect width="200" height="36" transform="translate(0 194)" fill="white"/>
<path d="M22.6667 215.833C22.601 215.834 22.5359 215.821 22.4752 215.796C22.4145 215.771 22.3595 215.733 22.3133 215.687C22.2197 215.593 22.1671 215.466 22.1671 215.333C22.1671 215.201 22.2197 215.074 22.3133 214.98L25.2933 212L22.3133 209.02C22.225 208.925 22.1769 208.8 22.1792 208.67C22.1815 208.541 22.234 208.417 22.3256 208.326C22.4172 208.234 22.5408 208.182 22.6703 208.179C22.7999 208.177 22.9252 208.225 23.02 208.313L26.3533 211.647C26.447 211.74 26.4996 211.868 26.4996 212C26.4996 212.133 26.447 212.26 26.3533 212.353L23.02 215.687C22.9738 215.733 22.9188 215.771 22.8581 215.796C22.7975 215.821 22.7324 215.834 22.6667 215.833V215.833Z" fill="#6B778C"/>
<rect x="40.5" y="202.5" width="19" height="19" rx="3.5" fill="white" stroke="#9EA6B5"/>
<path d="M73.838 215.752C76.848 215.752 79.018 213.54 79.018 210.544C79.018 207.548 76.848 205.336 73.838 205.336C70.828 205.336 68.658 207.548 68.658 210.544C68.658 213.54 70.828 215.752 73.838 215.752ZM73.838 214.66C71.514 214.66 69.918 212.826 69.918 210.544C69.918 208.262 71.514 206.428 73.838 206.428C76.162 206.428 77.758 208.262 77.758 210.544C77.758 212.826 76.162 214.66 73.838 214.66ZM80.6558 218.692H81.7478V214.338H81.7758C82.1818 215.08 83.1198 215.668 84.2958 215.668C86.1298 215.668 87.5718 214.184 87.5718 212.224C87.5718 210.236 86.1858 208.78 84.1278 208.78C83.1758 208.78 82.3778 209.2 81.7758 209.9H81.7478V208.948H80.6558V218.692ZM81.7478 212.224C81.7478 210.852 82.6578 209.788 84.0718 209.788C85.4858 209.788 86.3958 210.852 86.3958 212.224C86.3958 213.596 85.4858 214.66 84.0718 214.66C82.6578 214.66 81.7478 213.596 81.7478 212.224ZM92.8544 208.948H90.9224V207.086H89.8304V208.948H88.4024V209.872H89.8304V213.47C89.8304 214.828 90.0824 215.668 91.6364 215.668C92.0424 215.668 92.5324 215.598 92.9104 215.43L92.8684 214.436C92.5744 214.59 92.2244 214.66 91.9024 214.66C90.9364 214.66 90.9224 213.988 90.9224 213.148V209.872H92.8544V208.948ZM94.2903 215.5H95.3823V208.948H94.2903V215.5ZM94.0383 206.386C94.0383 206.848 94.3743 207.184 94.8363 207.184C95.2983 207.184 95.6343 206.848 95.6343 206.386C95.6343 205.952 95.2843 205.588 94.8363 205.588C94.3883 205.588 94.0383 205.952 94.0383 206.386ZM97.1775 212.224C97.1775 214.268 98.6615 215.668 100.678 215.668C102.694 215.668 104.178 214.268 104.178 212.224C104.178 210.18 102.694 208.78 100.678 208.78C98.6615 208.78 97.1775 210.18 97.1775 212.224ZM98.3535 212.224C98.3535 210.852 99.2635 209.788 100.678 209.788C102.092 209.788 103.002 210.852 103.002 212.224C103.002 213.596 102.092 214.66 100.678 214.66C99.2635 214.66 98.3535 213.596 98.3535 212.224ZM105.868 215.5H106.96V212.308C106.96 210.81 107.576 209.788 108.99 209.788C110.012 209.788 110.488 210.474 110.488 211.566V215.5H111.58V211.454C111.58 209.872 110.81 208.78 109.088 208.78C108.01 208.78 107.198 209.382 106.904 210.026H106.876C106.876 209.662 106.848 209.298 106.848 208.948H105.812C105.812 209.382 105.868 209.9 105.868 210.502V215.5Z" fill="#333333"/>
<rect width="200" height="36" transform="translate(0 230)" fill="white"/>
<path d="M22.6667 251.833C22.601 251.834 22.5359 251.821 22.4752 251.796C22.4145 251.771 22.3595 251.733 22.3133 251.687C22.2197 251.593 22.1671 251.466 22.1671 251.333C22.1671 251.201 22.2197 251.074 22.3133 250.98L25.2933 248L22.3133 245.02C22.225 244.925 22.1769 244.8 22.1792 244.67C22.1815 244.541 22.234 244.417 22.3256 244.326C22.4172 244.234 22.5408 244.182 22.6703 244.179C22.7999 244.177 22.9252 244.225 23.02 244.313L26.3533 247.647C26.447 247.74 26.4996 247.868 26.4996 248C26.4996 248.133 26.447 248.26 26.3533 248.353L23.02 251.687C22.9738 251.733 22.9188 251.771 22.8581 251.796C22.7975 251.821 22.7324 251.834 22.6667 251.833V251.833Z" fill="#6B778C"/>
<rect x="40.5" y="238.5" width="19" height="19" rx="3.5" fill="white" stroke="#9EA6B5"/>
<path d="M73.838 251.752C76.848 251.752 79.018 249.54 79.018 246.544C79.018 243.548 76.848 241.336 73.838 241.336C70.828 241.336 68.658 243.548 68.658 246.544C68.658 249.54 70.828 251.752 73.838 251.752ZM73.838 250.66C71.514 250.66 69.918 248.826 69.918 246.544C69.918 244.262 71.514 242.428 73.838 242.428C76.162 242.428 77.758 244.262 77.758 246.544C77.758 248.826 76.162 250.66 73.838 250.66ZM80.6558 254.692H81.7478V250.338H81.7758C82.1818 251.08 83.1198 251.668 84.2958 251.668C86.1298 251.668 87.5718 250.184 87.5718 248.224C87.5718 246.236 86.1858 244.78 84.1278 244.78C83.1758 244.78 82.3778 245.2 81.7758 245.9H81.7478V244.948H80.6558V254.692ZM81.7478 248.224C81.7478 246.852 82.6578 245.788 84.0718 245.788C85.4858 245.788 86.3958 246.852 86.3958 248.224C86.3958 249.596 85.4858 250.66 84.0718 250.66C82.6578 250.66 81.7478 249.596 81.7478 248.224ZM92.8544 244.948H90.9224V243.086H89.8304V244.948H88.4024V245.872H89.8304V249.47C89.8304 250.828 90.0824 251.668 91.6364 251.668C92.0424 251.668 92.5324 251.598 92.9104 251.43L92.8684 250.436C92.5744 250.59 92.2244 250.66 91.9024 250.66C90.9364 250.66 90.9224 249.988 90.9224 249.148V245.872H92.8544V244.948ZM94.2903 251.5H95.3823V244.948H94.2903V251.5ZM94.0383 242.386C94.0383 242.848 94.3743 243.184 94.8363 243.184C95.2983 243.184 95.6343 242.848 95.6343 242.386C95.6343 241.952 95.2843 241.588 94.8363 241.588C94.3883 241.588 94.0383 241.952 94.0383 242.386ZM97.1775 248.224C97.1775 250.268 98.6615 251.668 100.678 251.668C102.694 251.668 104.178 250.268 104.178 248.224C104.178 246.18 102.694 244.78 100.678 244.78C98.6615 244.78 97.1775 246.18 97.1775 248.224ZM98.3535 248.224C98.3535 246.852 99.2635 245.788 100.678 245.788C102.092 245.788 103.002 246.852 103.002 248.224C103.002 249.596 102.092 250.66 100.678 250.66C99.2635 250.66 98.3535 249.596 98.3535 248.224ZM105.868 251.5H106.96V248.308C106.96 246.81 107.576 245.788 108.99 245.788C110.012 245.788 110.488 246.474 110.488 247.566V251.5H111.58V247.454C111.58 245.872 110.81 244.78 109.088 244.78C108.01 244.78 107.198 245.382 106.904 246.026H106.876C106.876 245.662 106.848 245.298 106.848 244.948H105.812C105.812 245.382 105.868 245.9 105.868 246.502V251.5Z" fill="#333333"/>
</g>
<path d="M225.282 3.404C224.302 2.27 223.154 1.836 221.81 1.836C218.758 1.836 216.574 3.908 216.574 7.086C216.574 10.18 218.758 12.252 221.81 12.252C223.266 12.252 224.61 11.72 225.506 10.488L224.05 9.452C223.392 10.292 222.622 10.656 221.824 10.656C219.78 10.656 218.422 9.088 218.422 6.974C218.422 5 219.78 3.432 221.824 3.432C222.51 3.432 223.182 3.642 223.91 4.412L225.282 3.404ZM228.216 1.416H226.536V12H228.216V8.332C228.216 7.436 228.65 6.624 229.756 6.624C230.932 6.624 230.988 7.856 230.988 8.598V12H232.668V7.758C232.668 6.386 232.024 5.112 230.218 5.112C229.182 5.112 228.51 5.658 228.244 6.218H228.216V1.416ZM241.043 9.228V8.766C241.043 6.428 239.769 5.112 237.893 5.112C235.863 5.112 234.239 6.526 234.239 8.64C234.239 10.754 235.863 12.168 237.893 12.168C238.957 12.168 239.951 11.79 240.735 10.824L239.531 9.914C239.111 10.432 238.565 10.824 237.725 10.824C236.787 10.824 236.031 10.222 235.919 9.228H241.043ZM235.919 7.968C236.045 7.002 236.661 6.372 237.655 6.372C238.705 6.372 239.349 6.988 239.363 7.968H235.919ZM248.368 6.134C247.724 5.42 246.786 5.112 245.932 5.112C243.902 5.112 242.278 6.526 242.278 8.64C242.278 10.754 243.902 12.168 245.932 12.168C246.52 12.168 247.668 11.916 248.354 11.23L247.234 10.026C246.926 10.432 246.45 10.656 245.932 10.656C244.7 10.656 243.958 9.69 243.958 8.64C243.958 7.59 244.7 6.624 245.932 6.624C246.38 6.624 246.814 6.89 247.206 7.296L248.368 6.134ZM249.368 12H251.048V8.57H251.076L253.75 12H255.976L252.91 8.332L255.794 5.28H253.638L251.048 8.066V1.416H249.368V12ZM256.888 12H258.484V10.992H258.512C259.002 11.804 259.884 12.168 260.822 12.168C262.894 12.168 264.14 10.628 264.14 8.64C264.14 6.652 262.81 5.112 260.892 5.112C259.632 5.112 258.96 5.7 258.61 6.134H258.568V1.416H256.888V12ZM262.46 8.64C262.46 9.69 261.718 10.656 260.486 10.656C259.254 10.656 258.512 9.69 258.512 8.64C258.512 7.59 259.254 6.624 260.486 6.624C261.718 6.624 262.46 7.59 262.46 8.64ZM265.37 8.64C265.37 10.754 266.994 12.168 269.024 12.168C271.054 12.168 272.678 10.754 272.678 8.64C272.678 6.526 271.054 5.112 269.024 5.112C266.994 5.112 265.37 6.526 265.37 8.64ZM267.05 8.64C267.05 7.59 267.792 6.624 269.024 6.624C270.256 6.624 270.998 7.59 270.998 8.64C270.998 9.69 270.256 10.656 269.024 10.656C267.792 10.656 267.05 9.69 267.05 8.64ZM273.285 12H275.273L277.037 9.592L278.787 12H280.831L278.129 8.388L280.425 5.28H278.507L277.051 7.296L275.707 5.28H273.663L275.987 8.388L273.285 12ZM281.77 11.02C281.77 11.622 282.302 12.084 282.89 12.084C283.506 12.084 284.01 11.594 284.01 10.992C284.01 10.39 283.492 9.928 282.89 9.928C282.274 9.928 281.77 10.418 281.77 11.02ZM281.77 6.274C281.77 6.876 282.302 7.338 282.89 7.338C283.506 7.338 284.01 6.848 284.01 6.246C284.01 5.644 283.492 5.182 282.89 5.182C282.274 5.182 281.77 5.672 281.77 6.274ZM292.24 12H294.004V3.684H297.042V2.088H289.202V3.684H292.24V12ZM296.809 12H298.489V8.402C298.489 8.038 298.713 6.708 300.295 6.708C300.561 6.708 300.827 6.764 301.107 6.834V5.21C300.911 5.154 300.715 5.112 300.505 5.112C299.623 5.112 298.881 5.574 298.517 6.344H298.489V5.28H296.809V12ZM308.383 5.28H306.703V8.948C306.703 9.844 306.269 10.656 305.163 10.656C303.987 10.656 303.931 9.424 303.931 8.682V5.28H302.251V9.522C302.251 10.894 302.895 12.168 304.701 12.168C305.821 12.168 306.451 11.594 306.759 10.922H306.787V12H308.383V5.28ZM316.758 9.228V8.766C316.758 6.428 315.484 5.112 313.608 5.112C311.578 5.112 309.954 6.526 309.954 8.64C309.954 10.754 311.578 12.168 313.608 12.168C314.672 12.168 315.666 11.79 316.45 10.824L315.246 9.914C314.826 10.432 314.28 10.824 313.44 10.824C312.502 10.824 311.746 10.222 311.634 9.228H316.758ZM311.634 7.968C311.76 7.002 312.376 6.372 313.37 6.372C314.42 6.372 315.064 6.988 315.078 7.968H311.634ZM219.136 29H220.9V20.684H223.938V19.088H216.098V20.684H219.136V29ZM223.706 29H225.386V25.402C225.386 25.038 225.61 23.708 227.192 23.708C227.458 23.708 227.724 23.764 228.004 23.834V22.21C227.808 22.154 227.612 22.112 227.402 22.112C226.52 22.112 225.778 22.574 225.414 23.344H225.386V22.28H223.706V29ZM235.369 26.228V25.766C235.369 23.428 234.095 22.112 232.219 22.112C230.189 22.112 228.565 23.526 228.565 25.64C228.565 27.754 230.189 29.168 232.219 29.168C233.283 29.168 234.277 28.79 235.061 27.824L233.857 26.914C233.437 27.432 232.891 27.824 232.051 27.824C231.113 27.824 230.357 27.222 230.245 26.228H235.369ZM230.245 24.968C230.371 24.002 230.987 23.372 231.981 23.372C233.031 23.372 233.675 23.988 233.689 24.968H230.245ZM243.408 26.228V25.766C243.408 23.428 242.134 22.112 240.258 22.112C238.228 22.112 236.604 23.526 236.604 25.64C236.604 27.754 238.228 29.168 240.258 29.168C241.322 29.168 242.316 28.79 243.1 27.824L241.896 26.914C241.476 27.432 240.93 27.824 240.09 27.824C239.152 27.824 238.396 27.222 238.284 26.228H243.408ZM238.284 24.968C238.41 24.002 239.026 23.372 240.02 23.372C241.07 23.372 241.714 23.988 241.728 24.968H238.284ZM244.979 28.02C244.979 28.622 245.511 29.084 246.099 29.084C246.715 29.084 247.219 28.594 247.219 27.992C247.219 27.39 246.701 26.928 246.099 26.928C245.483 26.928 244.979 27.418 244.979 28.02ZM244.979 23.274C244.979 23.876 245.511 24.338 246.099 24.338C246.715 24.338 247.219 23.848 247.219 23.246C247.219 22.644 246.701 22.182 246.099 22.182C245.483 22.182 244.979 22.672 244.979 23.274ZM255.449 29H257.213V20.684H260.251V19.088H252.411V20.684H255.449V29ZM260.018 29H261.698V25.402C261.698 25.038 261.922 23.708 263.504 23.708C263.77 23.708 264.036 23.764 264.316 23.834V22.21C264.12 22.154 263.924 22.112 263.714 22.112C262.832 22.112 262.09 22.574 261.726 23.344H261.698V22.28H260.018V29ZM271.592 22.28H269.912V25.948C269.912 26.844 269.478 27.656 268.372 27.656C267.196 27.656 267.14 26.424 267.14 25.682V22.28H265.46V26.522C265.46 27.894 266.104 29.168 267.91 29.168C269.03 29.168 269.66 28.594 269.968 27.922H269.996V29H271.592V22.28ZM279.967 26.228V25.766C279.967 23.428 278.693 22.112 276.817 22.112C274.787 22.112 273.163 23.526 273.163 25.64C273.163 27.754 274.787 29.168 276.817 29.168C277.881 29.168 278.875 28.79 279.659 27.824L278.455 26.914C278.035 27.432 277.489 27.824 276.649 27.824C275.711 27.824 274.955 27.222 274.843 26.228H279.967ZM274.843 24.968C274.969 24.002 275.585 23.372 276.579 23.372C277.629 23.372 278.273 23.988 278.287 24.968H274.843Z" fill="black"/>
<g clip-path="url(#clip1_41_10923)">
<rect width="200" height="252" transform="translate(216 50)" fill="white"/>
<rect width="200" height="36" transform="translate(216 50)" fill="white"/>
<path d="M240 70.1667C239.934 70.167 239.869 70.1542 239.809 70.129C239.748 70.1038 239.693 70.0668 239.647 70.02L236.313 66.6867C236.247 66.5894 236.217 66.4718 236.229 66.3546C236.24 66.2374 236.293 66.1281 236.378 66.046C236.462 65.9638 236.573 65.9142 236.69 65.9058C236.808 65.8974 236.925 65.9308 237.02 66L240 68.96L242.98 66C243.074 65.9391 243.186 65.9115 243.297 65.9216C243.409 65.9317 243.514 65.979 243.595 66.0559C243.677 66.1327 243.73 66.2347 243.747 66.3455C243.763 66.4562 243.742 66.5693 243.687 66.6667L240.353 70C240.309 70.0504 240.255 70.0912 240.194 70.1198C240.133 70.1485 240.067 70.1644 240 70.1667V70.1667Z" fill="#6B778C"/>
<rect x="256.5" y="58.5" width="19" height="19" rx="3.5" fill="white" stroke="#9EA6B5"/>
<path d="M289.838 71.752C292.848 71.752 295.018 69.54 295.018 66.544C295.018 63.548 292.848 61.336 289.838 61.336C286.828 61.336 284.658 63.548 284.658 66.544C284.658 69.54 286.828 71.752 289.838 71.752ZM289.838 70.66C287.514 70.66 285.918 68.826 285.918 66.544C285.918 64.262 287.514 62.428 289.838 62.428C292.162 62.428 293.758 64.262 293.758 66.544C293.758 68.826 292.162 70.66 289.838 70.66ZM296.656 74.692H297.748V70.338H297.776C298.182 71.08 299.12 71.668 300.296 71.668C302.13 71.668 303.572 70.184 303.572 68.224C303.572 66.236 302.186 64.78 300.128 64.78C299.176 64.78 298.378 65.2 297.776 65.9H297.748V64.948H296.656V74.692ZM297.748 68.224C297.748 66.852 298.658 65.788 300.072 65.788C301.486 65.788 302.396 66.852 302.396 68.224C302.396 69.596 301.486 70.66 300.072 70.66C298.658 70.66 297.748 69.596 297.748 68.224ZM308.854 64.948H306.922V63.086H305.83V64.948H304.402V65.872H305.83V69.47C305.83 70.828 306.082 71.668 307.636 71.668C308.042 71.668 308.532 71.598 308.91 71.43L308.868 70.436C308.574 70.59 308.224 70.66 307.902 70.66C306.936 70.66 306.922 69.988 306.922 69.148V65.872H308.854V64.948ZM310.29 71.5H311.382V64.948H310.29V71.5ZM310.038 62.386C310.038 62.848 310.374 63.184 310.836 63.184C311.298 63.184 311.634 62.848 311.634 62.386C311.634 61.952 311.284 61.588 310.836 61.588C310.388 61.588 310.038 61.952 310.038 62.386ZM313.178 68.224C313.178 70.268 314.662 71.668 316.678 71.668C318.694 71.668 320.178 70.268 320.178 68.224C320.178 66.18 318.694 64.78 316.678 64.78C314.662 64.78 313.178 66.18 313.178 68.224ZM314.354 68.224C314.354 66.852 315.264 65.788 316.678 65.788C318.092 65.788 319.002 66.852 319.002 68.224C319.002 69.596 318.092 70.66 316.678 70.66C315.264 70.66 314.354 69.596 314.354 68.224ZM321.868 71.5H322.96V68.308C322.96 66.81 323.576 65.788 324.99 65.788C326.012 65.788 326.488 66.474 326.488 67.566V71.5H327.58V67.454C327.58 65.872 326.81 64.78 325.088 64.78C324.01 64.78 323.198 65.382 322.904 66.026H322.876C322.876 65.662 322.848 65.298 322.848 64.948H321.812C321.812 65.382 321.868 65.9 321.868 66.502V71.5Z" fill="#333333"/>
<rect width="184" height="36" transform="translate(232 86)" fill="white"/>
<path d="M256 106.167C255.934 106.167 255.869 106.154 255.809 106.129C255.748 106.104 255.693 106.067 255.647 106.02L252.313 102.687C252.247 102.589 252.217 102.472 252.229 102.355C252.24 102.237 252.293 102.128 252.378 102.046C252.462 101.964 252.573 101.914 252.69 101.906C252.808 101.897 252.925 101.931 253.02 102L256 104.96L258.98 102C259.074 101.939 259.186 101.911 259.297 101.922C259.409 101.932 259.514 101.979 259.595 102.056C259.677 102.133 259.73 102.235 259.747 102.345C259.763 102.456 259.742 102.569 259.687 102.667L256.353 106C256.309 106.05 256.255 106.091 256.194 106.12C256.133 106.148 256.067 106.164 256 106.167V106.167Z" fill="#6B778C"/>
<rect x="272.5" y="94.5" width="19" height="19" rx="3.5" fill="white" stroke="#9EA6B5"/>
<path d="M305.838 107.752C308.848 107.752 311.018 105.54 311.018 102.544C311.018 99.548 308.848 97.336 305.838 97.336C302.828 97.336 300.658 99.548 300.658 102.544C300.658 105.54 302.828 107.752 305.838 107.752ZM305.838 106.66C303.514 106.66 301.918 104.826 301.918 102.544C301.918 100.262 303.514 98.428 305.838 98.428C308.162 98.428 309.758 100.262 309.758 102.544C309.758 104.826 308.162 106.66 305.838 106.66ZM312.656 110.692H313.748V106.338H313.776C314.182 107.08 315.12 107.668 316.296 107.668C318.13 107.668 319.572 106.184 319.572 104.224C319.572 102.236 318.186 100.78 316.128 100.78C315.176 100.78 314.378 101.2 313.776 101.9H313.748V100.948H312.656V110.692ZM313.748 104.224C313.748 102.852 314.658 101.788 316.072 101.788C317.486 101.788 318.396 102.852 318.396 104.224C318.396 105.596 317.486 106.66 316.072 106.66C314.658 106.66 313.748 105.596 313.748 104.224ZM324.854 100.948H322.922V99.086H321.83V100.948H320.402V101.872H321.83V105.47C321.83 106.828 322.082 107.668 323.636 107.668C324.042 107.668 324.532 107.598 324.91 107.43L324.868 106.436C324.574 106.59 324.224 106.66 323.902 106.66C322.936 106.66 322.922 105.988 322.922 105.148V101.872H324.854V100.948ZM326.29 107.5H327.382V100.948H326.29V107.5ZM326.038 98.386C326.038 98.848 326.374 99.184 326.836 99.184C327.298 99.184 327.634 98.848 327.634 98.386C327.634 97.952 327.284 97.588 326.836 97.588C326.388 97.588 326.038 97.952 326.038 98.386ZM329.178 104.224C329.178 106.268 330.662 107.668 332.678 107.668C334.694 107.668 336.178 106.268 336.178 104.224C336.178 102.18 334.694 100.78 332.678 100.78C330.662 100.78 329.178 102.18 329.178 104.224ZM330.354 104.224C330.354 102.852 331.264 101.788 332.678 101.788C334.092 101.788 335.002 102.852 335.002 104.224C335.002 105.596 334.092 106.66 332.678 106.66C331.264 106.66 330.354 105.596 330.354 104.224ZM337.868 107.5H338.96V104.308C338.96 102.81 339.576 101.788 340.99 101.788C342.012 101.788 342.488 102.474 342.488 103.566V107.5H343.58V103.454C343.58 101.872 342.81 100.78 341.088 100.78C340.01 100.78 339.198 101.382 338.904 102.026H338.876C338.876 101.662 338.848 101.298 338.848 100.948H337.812C337.812 101.382 337.868 101.9 337.868 102.502V107.5Z" fill="#333333"/>
<rect width="168" height="36" transform="translate(248 122)" fill="white"/>
<rect x="288.5" y="130.5" width="19" height="19" rx="3.5" fill="white" stroke="#9EA6B5"/>
<path d="M321.838 143.752C324.848 143.752 327.018 141.54 327.018 138.544C327.018 135.548 324.848 133.336 321.838 133.336C318.828 133.336 316.658 135.548 316.658 138.544C316.658 141.54 318.828 143.752 321.838 143.752ZM321.838 142.66C319.514 142.66 317.918 140.826 317.918 138.544C317.918 136.262 319.514 134.428 321.838 134.428C324.162 134.428 325.758 136.262 325.758 138.544C325.758 140.826 324.162 142.66 321.838 142.66ZM328.656 146.692H329.748V142.338H329.776C330.182 143.08 331.12 143.668 332.296 143.668C334.13 143.668 335.572 142.184 335.572 140.224C335.572 138.236 334.186 136.78 332.128 136.78C331.176 136.78 330.378 137.2 329.776 137.9H329.748V136.948H328.656V146.692ZM329.748 140.224C329.748 138.852 330.658 137.788 332.072 137.788C333.486 137.788 334.396 138.852 334.396 140.224C334.396 141.596 333.486 142.66 332.072 142.66C330.658 142.66 329.748 141.596 329.748 140.224ZM340.854 136.948H338.922V135.086H337.83V136.948H336.402V137.872H337.83V141.47C337.83 142.828 338.082 143.668 339.636 143.668C340.042 143.668 340.532 143.598 340.91 143.43L340.868 142.436C340.574 142.59 340.224 142.66 339.902 142.66C338.936 142.66 338.922 141.988 338.922 141.148V137.872H340.854V136.948ZM342.29 143.5H343.382V136.948H342.29V143.5ZM342.038 134.386C342.038 134.848 342.374 135.184 342.836 135.184C343.298 135.184 343.634 134.848 343.634 134.386C343.634 133.952 343.284 133.588 342.836 133.588C342.388 133.588 342.038 133.952 342.038 134.386ZM345.178 140.224C345.178 142.268 346.662 143.668 348.678 143.668C350.694 143.668 352.178 142.268 352.178 140.224C352.178 138.18 350.694 136.78 348.678 136.78C346.662 136.78 345.178 138.18 345.178 140.224ZM346.354 140.224C346.354 138.852 347.264 137.788 348.678 137.788C350.092 137.788 351.002 138.852 351.002 140.224C351.002 141.596 350.092 142.66 348.678 142.66C347.264 142.66 346.354 141.596 346.354 140.224ZM353.868 143.5H354.96V140.308C354.96 138.81 355.576 137.788 356.99 137.788C358.012 137.788 358.488 138.474 358.488 139.566V143.5H359.58V139.454C359.58 137.872 358.81 136.78 357.088 136.78C356.01 136.78 355.198 137.382 354.904 138.026H354.876C354.876 137.662 354.848 137.298 354.848 136.948H353.812C353.812 137.382 353.868 137.9 353.868 138.502V143.5Z" fill="#333333"/>
<rect width="168" height="36" transform="translate(248 158)" fill="white"/>
<rect x="288.5" y="166.5" width="19" height="19" rx="3.5" fill="white" stroke="#9EA6B5"/>
<path d="M321.838 179.752C324.848 179.752 327.018 177.54 327.018 174.544C327.018 171.548 324.848 169.336 321.838 169.336C318.828 169.336 316.658 171.548 316.658 174.544C316.658 177.54 318.828 179.752 321.838 179.752ZM321.838 178.66C319.514 178.66 317.918 176.826 317.918 174.544C317.918 172.262 319.514 170.428 321.838 170.428C324.162 170.428 325.758 172.262 325.758 174.544C325.758 176.826 324.162 178.66 321.838 178.66ZM328.656 182.692H329.748V178.338H329.776C330.182 179.08 331.12 179.668 332.296 179.668C334.13 179.668 335.572 178.184 335.572 176.224C335.572 174.236 334.186 172.78 332.128 172.78C331.176 172.78 330.378 173.2 329.776 173.9H329.748V172.948H328.656V182.692ZM329.748 176.224C329.748 174.852 330.658 173.788 332.072 173.788C333.486 173.788 334.396 174.852 334.396 176.224C334.396 177.596 333.486 178.66 332.072 178.66C330.658 178.66 329.748 177.596 329.748 176.224ZM340.854 172.948H338.922V171.086H337.83V172.948H336.402V173.872H337.83V177.47C337.83 178.828 338.082 179.668 339.636 179.668C340.042 179.668 340.532 179.598 340.91 179.43L340.868 178.436C340.574 178.59 340.224 178.66 339.902 178.66C338.936 178.66 338.922 177.988 338.922 177.148V173.872H340.854V172.948ZM342.29 179.5H343.382V172.948H342.29V179.5ZM342.038 170.386C342.038 170.848 342.374 171.184 342.836 171.184C343.298 171.184 343.634 170.848 343.634 170.386C343.634 169.952 343.284 169.588 342.836 169.588C342.388 169.588 342.038 169.952 342.038 170.386ZM345.178 176.224C345.178 178.268 346.662 179.668 348.678 179.668C350.694 179.668 352.178 178.268 352.178 176.224C352.178 174.18 350.694 172.78 348.678 172.78C346.662 172.78 345.178 174.18 345.178 176.224ZM346.354 176.224C346.354 174.852 347.264 173.788 348.678 173.788C350.092 173.788 351.002 174.852 351.002 176.224C351.002 177.596 350.092 178.66 348.678 178.66C347.264 178.66 346.354 177.596 346.354 176.224ZM353.868 179.5H354.96V176.308C354.96 174.81 355.576 173.788 356.99 173.788C358.012 173.788 358.488 174.474 358.488 175.566V179.5H359.58V175.454C359.58 173.872 358.81 172.78 357.088 172.78C356.01 172.78 355.198 173.382 354.904 174.026H354.876C354.876 173.662 354.848 173.298 354.848 172.948H353.812C353.812 173.382 353.868 173.9 353.868 174.502V179.5Z" fill="#333333"/>
<rect width="200" height="36" transform="translate(216 194)" fill="white"/>
<path d="M240 214.167C239.934 214.167 239.869 214.154 239.809 214.129C239.748 214.104 239.693 214.067 239.647 214.02L236.313 210.687C236.247 210.589 236.217 210.472 236.229 210.355C236.24 210.237 236.293 210.128 236.378 210.046C236.462 209.964 236.573 209.914 236.69 209.906C236.808 209.897 236.925 209.931 237.02 210L240 212.96L242.98 210C243.074 209.939 243.186 209.911 243.297 209.922C243.409 209.932 243.514 209.979 243.595 210.056C243.677 210.133 243.73 210.235 243.747 210.345C243.763 210.456 243.742 210.569 243.687 210.667L240.353 214C240.309 214.05 240.255 214.091 240.194 214.12C240.133 214.148 240.067 214.164 240 214.167V214.167Z" fill="#6B778C"/>
<rect x="256.5" y="202.5" width="19" height="19" rx="3.5" fill="white" stroke="#9EA6B5"/>
<path d="M289.838 215.752C292.848 215.752 295.018 213.54 295.018 210.544C295.018 207.548 292.848 205.336 289.838 205.336C286.828 205.336 284.658 207.548 284.658 210.544C284.658 213.54 286.828 215.752 289.838 215.752ZM289.838 214.66C287.514 214.66 285.918 212.826 285.918 210.544C285.918 208.262 287.514 206.428 289.838 206.428C292.162 206.428 293.758 208.262 293.758 210.544C293.758 212.826 292.162 214.66 289.838 214.66ZM296.656 218.692H297.748V214.338H297.776C298.182 215.08 299.12 215.668 300.296 215.668C302.13 215.668 303.572 214.184 303.572 212.224C303.572 210.236 302.186 208.78 300.128 208.78C299.176 208.78 298.378 209.2 297.776 209.9H297.748V208.948H296.656V218.692ZM297.748 212.224C297.748 210.852 298.658 209.788 300.072 209.788C301.486 209.788 302.396 210.852 302.396 212.224C302.396 213.596 301.486 214.66 300.072 214.66C298.658 214.66 297.748 213.596 297.748 212.224ZM308.854 208.948H306.922V207.086H305.83V208.948H304.402V209.872H305.83V213.47C305.83 214.828 306.082 215.668 307.636 215.668C308.042 215.668 308.532 215.598 308.91 215.43L308.868 214.436C308.574 214.59 308.224 214.66 307.902 214.66C306.936 214.66 306.922 213.988 306.922 213.148V209.872H308.854V208.948ZM310.29 215.5H311.382V208.948H310.29V215.5ZM310.038 206.386C310.038 206.848 310.374 207.184 310.836 207.184C311.298 207.184 311.634 206.848 311.634 206.386C311.634 205.952 311.284 205.588 310.836 205.588C310.388 205.588 310.038 205.952 310.038 206.386ZM313.178 212.224C313.178 214.268 314.662 215.668 316.678 215.668C318.694 215.668 320.178 214.268 320.178 212.224C320.178 210.18 318.694 208.78 316.678 208.78C314.662 208.78 313.178 210.18 313.178 212.224ZM314.354 212.224C314.354 210.852 315.264 209.788 316.678 209.788C318.092 209.788 319.002 210.852 319.002 212.224C319.002 213.596 318.092 214.66 316.678 214.66C315.264 214.66 314.354 213.596 314.354 212.224ZM321.868 215.5H322.96V212.308C322.96 210.81 323.576 209.788 324.99 209.788C326.012 209.788 326.488 210.474 326.488 211.566V215.5H327.58V211.454C327.58 209.872 326.81 208.78 325.088 208.78C324.01 208.78 323.198 209.382 322.904 210.026H322.876C322.876 209.662 322.848 209.298 322.848 208.948H321.812C321.812 209.382 321.868 209.9 321.868 210.502V215.5Z" fill="#333333"/>
<rect width="184" height="36" transform="translate(232 230)" fill="white"/>
<rect x="272.5" y="238.5" width="19" height="19" rx="3.5" fill="white" stroke="#9EA6B5"/>
<path d="M305.838 251.752C308.848 251.752 311.018 249.54 311.018 246.544C311.018 243.548 308.848 241.336 305.838 241.336C302.828 241.336 300.658 243.548 300.658 246.544C300.658 249.54 302.828 251.752 305.838 251.752ZM305.838 250.66C303.514 250.66 301.918 248.826 301.918 246.544C301.918 244.262 303.514 242.428 305.838 242.428C308.162 242.428 309.758 244.262 309.758 246.544C309.758 248.826 308.162 250.66 305.838 250.66ZM312.656 254.692H313.748V250.338H313.776C314.182 251.08 315.12 251.668 316.296 251.668C318.13 251.668 319.572 250.184 319.572 248.224C319.572 246.236 318.186 244.78 316.128 244.78C315.176 244.78 314.378 245.2 313.776 245.9H313.748V244.948H312.656V254.692ZM313.748 248.224C313.748 246.852 314.658 245.788 316.072 245.788C317.486 245.788 318.396 246.852 318.396 248.224C318.396 249.596 317.486 250.66 316.072 250.66C314.658 250.66 313.748 249.596 313.748 248.224ZM324.854 244.948H322.922V243.086H321.83V244.948H320.402V245.872H321.83V249.47C321.83 250.828 322.082 251.668 323.636 251.668C324.042 251.668 324.532 251.598 324.91 251.43L324.868 250.436C324.574 250.59 324.224 250.66 323.902 250.66C322.936 250.66 322.922 249.988 322.922 249.148V245.872H324.854V244.948ZM326.29 251.5H327.382V244.948H326.29V251.5ZM326.038 242.386C326.038 242.848 326.374 243.184 326.836 243.184C327.298 243.184 327.634 242.848 327.634 242.386C327.634 241.952 327.284 241.588 326.836 241.588C326.388 241.588 326.038 241.952 326.038 242.386ZM329.178 248.224C329.178 250.268 330.662 251.668 332.678 251.668C334.694 251.668 336.178 250.268 336.178 248.224C336.178 246.18 334.694 244.78 332.678 244.78C330.662 244.78 329.178 246.18 329.178 248.224ZM330.354 248.224C330.354 246.852 331.264 245.788 332.678 245.788C334.092 245.788 335.002 246.852 335.002 248.224C335.002 249.596 334.092 250.66 332.678 250.66C331.264 250.66 330.354 249.596 330.354 248.224ZM337.868 251.5H338.96V248.308C338.96 246.81 339.576 245.788 340.99 245.788C342.012 245.788 342.488 246.474 342.488 247.566V251.5H343.58V247.454C343.58 245.872 342.81 244.78 341.088 244.78C340.01 244.78 339.198 245.382 338.904 246.026H338.876C338.876 245.662 338.848 245.298 338.848 244.948H337.812C337.812 245.382 337.868 245.9 337.868 246.502V251.5Z" fill="#333333"/>
<rect width="184" height="36" transform="translate(232 266)" fill="white"/>
<rect x="272.5" y="274.5" width="19" height="19" rx="3.5" fill="white" stroke="#9EA6B5"/>
<path d="M305.838 287.752C308.848 287.752 311.018 285.54 311.018 282.544C311.018 279.548 308.848 277.336 305.838 277.336C302.828 277.336 300.658 279.548 300.658 282.544C300.658 285.54 302.828 287.752 305.838 287.752ZM305.838 286.66C303.514 286.66 301.918 284.826 301.918 282.544C301.918 280.262 303.514 278.428 305.838 278.428C308.162 278.428 309.758 280.262 309.758 282.544C309.758 284.826 308.162 286.66 305.838 286.66ZM312.656 290.692H313.748V286.338H313.776C314.182 287.08 315.12 287.668 316.296 287.668C318.13 287.668 319.572 286.184 319.572 284.224C319.572 282.236 318.186 280.78 316.128 280.78C315.176 280.78 314.378 281.2 313.776 281.9H313.748V280.948H312.656V290.692ZM313.748 284.224C313.748 282.852 314.658 281.788 316.072 281.788C317.486 281.788 318.396 282.852 318.396 284.224C318.396 285.596 317.486 286.66 316.072 286.66C314.658 286.66 313.748 285.596 313.748 284.224ZM324.854 280.948H322.922V279.086H321.83V280.948H320.402V281.872H321.83V285.47C321.83 286.828 322.082 287.668 323.636 287.668C324.042 287.668 324.532 287.598 324.91 287.43L324.868 286.436C324.574 286.59 324.224 286.66 323.902 286.66C322.936 286.66 322.922 285.988 322.922 285.148V281.872H324.854V280.948ZM326.29 287.5H327.382V280.948H326.29V287.5ZM326.038 278.386C326.038 278.848 326.374 279.184 326.836 279.184C327.298 279.184 327.634 278.848 327.634 278.386C327.634 277.952 327.284 277.588 326.836 277.588C326.388 277.588 326.038 277.952 326.038 278.386ZM329.178 284.224C329.178 286.268 330.662 287.668 332.678 287.668C334.694 287.668 336.178 286.268 336.178 284.224C336.178 282.18 334.694 280.78 332.678 280.78C330.662 280.78 329.178 282.18 329.178 284.224ZM330.354 284.224C330.354 282.852 331.264 281.788 332.678 281.788C334.092 281.788 335.002 282.852 335.002 284.224C335.002 285.596 334.092 286.66 332.678 286.66C331.264 286.66 330.354 285.596 330.354 284.224ZM337.868 287.5H338.96V284.308C338.96 282.81 339.576 281.788 340.99 281.788C342.012 281.788 342.488 282.474 342.488 283.566V287.5H343.58V283.454C343.58 281.872 342.81 280.78 341.088 280.78C340.01 280.78 339.198 281.382 338.904 282.026H338.876C338.876 281.662 338.848 281.298 338.848 280.948H337.812C337.812 281.382 337.868 281.9 337.868 282.502V287.5Z" fill="#333333"/>
</g>
<path d="M441.282 3.404C440.302 2.27 439.154 1.836 437.81 1.836C434.758 1.836 432.574 3.908 432.574 7.086C432.574 10.18 434.758 12.252 437.81 12.252C439.266 12.252 440.61 11.72 441.506 10.488L440.05 9.452C439.392 10.292 438.622 10.656 437.824 10.656C435.78 10.656 434.422 9.088 434.422 6.974C434.422 5 435.78 3.432 437.824 3.432C438.51 3.432 439.182 3.642 439.91 4.412L441.282 3.404ZM444.216 1.416H442.536V12H444.216V8.332C444.216 7.436 444.65 6.624 445.756 6.624C446.932 6.624 446.988 7.856 446.988 8.598V12H448.668V7.758C448.668 6.386 448.024 5.112 446.218 5.112C445.182 5.112 444.51 5.658 444.244 6.218H444.216V1.416ZM457.043 9.228V8.766C457.043 6.428 455.769 5.112 453.893 5.112C451.863 5.112 450.239 6.526 450.239 8.64C450.239 10.754 451.863 12.168 453.893 12.168C454.957 12.168 455.951 11.79 456.735 10.824L455.531 9.914C455.111 10.432 454.565 10.824 453.725 10.824C452.787 10.824 452.031 10.222 451.919 9.228H457.043ZM451.919 7.968C452.045 7.002 452.661 6.372 453.655 6.372C454.705 6.372 455.349 6.988 455.363 7.968H451.919ZM464.368 6.134C463.724 5.42 462.786 5.112 461.932 5.112C459.902 5.112 458.278 6.526 458.278 8.64C458.278 10.754 459.902 12.168 461.932 12.168C462.52 12.168 463.668 11.916 464.354 11.23L463.234 10.026C462.926 10.432 462.45 10.656 461.932 10.656C460.7 10.656 459.958 9.69 459.958 8.64C459.958 7.59 460.7 6.624 461.932 6.624C462.38 6.624 462.814 6.89 463.206 7.296L464.368 6.134ZM465.368 12H467.048V8.57H467.076L469.75 12H471.976L468.91 8.332L471.794 5.28H469.638L467.048 8.066V1.416H465.368V12ZM472.888 12H474.484V10.992H474.512C475.002 11.804 475.884 12.168 476.822 12.168C478.894 12.168 480.14 10.628 480.14 8.64C480.14 6.652 478.81 5.112 476.892 5.112C475.632 5.112 474.96 5.7 474.61 6.134H474.568V1.416H472.888V12ZM478.46 8.64C478.46 9.69 477.718 10.656 476.486 10.656C475.254 10.656 474.512 9.69 474.512 8.64C474.512 7.59 475.254 6.624 476.486 6.624C477.718 6.624 478.46 7.59 478.46 8.64ZM481.37 8.64C481.37 10.754 482.994 12.168 485.024 12.168C487.054 12.168 488.678 10.754 488.678 8.64C488.678 6.526 487.054 5.112 485.024 5.112C482.994 5.112 481.37 6.526 481.37 8.64ZM483.05 8.64C483.05 7.59 483.792 6.624 485.024 6.624C486.256 6.624 486.998 7.59 486.998 8.64C486.998 9.69 486.256 10.656 485.024 10.656C483.792 10.656 483.05 9.69 483.05 8.64ZM489.285 12H491.273L493.037 9.592L494.787 12H496.831L494.129 8.388L496.425 5.28H494.507L493.051 7.296L491.707 5.28H489.663L491.987 8.388L489.285 12ZM497.77 11.02C497.77 11.622 498.302 12.084 498.89 12.084C499.506 12.084 500.01 11.594 500.01 10.992C500.01 10.39 499.492 9.928 498.89 9.928C498.274 9.928 497.77 10.418 497.77 11.02ZM497.77 6.274C497.77 6.876 498.302 7.338 498.89 7.338C499.506 7.338 500.01 6.848 500.01 6.246C500.01 5.644 499.492 5.182 498.89 5.182C498.274 5.182 497.77 5.672 497.77 6.274ZM506.21 12H507.974V7.884H512.342V6.288H507.974V3.684H512.608V2.088H506.21V12ZM518.295 12H519.807V8.136C519.807 7.184 519.807 5.112 516.937 5.112C515.873 5.112 514.823 5.434 514.081 6.19L514.963 7.072C515.411 6.652 516.055 6.372 516.755 6.372C517.651 6.372 518.295 6.806 518.295 7.632V7.814H517.875C516.195 7.814 513.647 7.968 513.647 10.152C513.647 11.482 514.851 12.168 516.097 12.168C516.993 12.168 517.777 11.832 518.253 11.076H518.295V12ZM518.197 9.368C518.197 10.306 517.651 10.908 516.503 10.908C515.957 10.908 515.327 10.642 515.327 10.026C515.327 9.06 516.923 8.99 517.847 8.99H518.197V9.368ZM521.642 12H523.322V1.416H521.642V12ZM529.955 6.134C529.409 5.392 528.457 5.112 527.561 5.112C526.203 5.112 524.859 5.784 524.859 7.282C524.859 9.844 528.485 8.752 528.485 10.138C528.485 10.67 527.855 10.908 527.365 10.908C526.651 10.908 526.203 10.558 525.769 10.082L524.649 11.132C525.335 11.902 526.231 12.168 527.267 12.168C528.639 12.168 530.165 11.608 530.165 10.012C530.165 7.394 526.539 8.374 526.539 7.17C526.539 6.666 527.071 6.456 527.519 6.456C528.093 6.456 528.513 6.694 528.835 7.142L529.955 6.134ZM537.94 9.228V8.766C537.94 6.428 536.666 5.112 534.79 5.112C532.76 5.112 531.136 6.526 531.136 8.64C531.136 10.754 532.76 12.168 534.79 12.168C535.854 12.168 536.848 11.79 537.632 10.824L536.428 9.914C536.008 10.432 535.462 10.824 534.622 10.824C533.684 10.824 532.928 10.222 532.816 9.228H537.94ZM532.816 7.968C532.942 7.002 533.558 6.372 534.552 6.372C535.602 6.372 536.246 6.988 536.26 7.968H532.816ZM435.136 29H436.9V20.684H439.938V19.088H432.098V20.684H435.136V29ZM439.706 29H441.386V25.402C441.386 25.038 441.61 23.708 443.192 23.708C443.458 23.708 443.724 23.764 444.004 23.834V22.21C443.808 22.154 443.612 22.112 443.402 22.112C442.52 22.112 441.778 22.574 441.414 23.344H441.386V22.28H439.706V29ZM451.369 26.228V25.766C451.369 23.428 450.095 22.112 448.219 22.112C446.189 22.112 444.565 23.526 444.565 25.64C444.565 27.754 446.189 29.168 448.219 29.168C449.283 29.168 450.277 28.79 451.061 27.824L449.857 26.914C449.437 27.432 448.891 27.824 448.051 27.824C447.113 27.824 446.357 27.222 446.245 26.228H451.369ZM446.245 24.968C446.371 24.002 446.987 23.372 447.981 23.372C449.031 23.372 449.675 23.988 449.689 24.968H446.245ZM459.408 26.228V25.766C459.408 23.428 458.134 22.112 456.258 22.112C454.228 22.112 452.604 23.526 452.604 25.64C452.604 27.754 454.228 29.168 456.258 29.168C457.322 29.168 458.316 28.79 459.1 27.824L457.896 26.914C457.476 27.432 456.93 27.824 456.09 27.824C455.152 27.824 454.396 27.222 454.284 26.228H459.408ZM454.284 24.968C454.41 24.002 455.026 23.372 456.02 23.372C457.07 23.372 457.714 23.988 457.728 24.968H454.284ZM460.979 28.02C460.979 28.622 461.511 29.084 462.099 29.084C462.715 29.084 463.219 28.594 463.219 27.992C463.219 27.39 462.701 26.928 462.099 26.928C461.483 26.928 460.979 27.418 460.979 28.02ZM460.979 23.274C460.979 23.876 461.511 24.338 462.099 24.338C462.715 24.338 463.219 23.848 463.219 23.246C463.219 22.644 462.701 22.182 462.099 22.182C461.483 22.182 460.979 22.672 460.979 23.274ZM469.419 29H471.183V24.884H475.551V23.288H471.183V20.684H475.817V19.088H469.419V29ZM481.504 29H483.016V25.136C483.016 24.184 483.016 22.112 480.146 22.112C479.082 22.112 478.032 22.434 477.29 23.19L478.172 24.072C478.62 23.652 479.264 23.372 479.964 23.372C480.86 23.372 481.504 23.806 481.504 24.632V24.814H481.084C479.404 24.814 476.856 24.968 476.856 27.152C476.856 28.482 478.06 29.168 479.306 29.168C480.202 29.168 480.986 28.832 481.462 28.076H481.504V29ZM481.406 26.368C481.406 27.306 480.86 27.908 479.712 27.908C479.166 27.908 478.536 27.642 478.536 27.026C478.536 26.06 480.132 25.99 481.056 25.99H481.406V26.368ZM484.851 29H486.531V18.416H484.851V29ZM493.164 23.134C492.618 22.392 491.666 22.112 490.77 22.112C489.412 22.112 488.068 22.784 488.068 24.282C488.068 26.844 491.694 25.752 491.694 27.138C491.694 27.67 491.064 27.908 490.574 27.908C489.86 27.908 489.412 27.558 488.978 27.082L487.858 28.132C488.544 28.902 489.44 29.168 490.476 29.168C491.848 29.168 493.374 28.608 493.374 27.012C493.374 24.394 489.748 25.374 489.748 24.17C489.748 23.666 490.28 23.456 490.728 23.456C491.302 23.456 491.722 23.694 492.044 24.142L493.164 23.134ZM501.149 26.228V25.766C501.149 23.428 499.875 22.112 497.999 22.112C495.969 22.112 494.345 23.526 494.345 25.64C494.345 27.754 495.969 29.168 497.999 29.168C499.063 29.168 500.057 28.79 500.841 27.824L499.637 26.914C499.217 27.432 498.671 27.824 497.831 27.824C496.893 27.824 496.137 27.222 496.025 26.228H501.149ZM496.025 24.968C496.151 24.002 496.767 23.372 497.761 23.372C498.811 23.372 499.455 23.988 499.469 24.968H496.025Z" fill="black"/>
<g clip-path="url(#clip2_41_10923)">
<rect width="200" height="33" transform="translate(432 50)" fill="white"/>
<path d="M454.667 70.3334C454.601 70.3337 454.536 70.3209 454.475 70.2957C454.415 70.2705 454.36 70.2335 454.313 70.1867C454.22 70.093 454.167 69.9659 454.167 69.8334C454.167 69.7009 454.22 69.5738 454.313 69.4801L457.293 66.5001L454.313 63.5201C454.225 63.4253 454.177 63.2999 454.179 63.1704C454.182 63.0408 454.234 62.9173 454.326 62.8256C454.417 62.734 454.541 62.6816 454.67 62.6793C454.8 62.677 454.925 62.7251 455.02 62.8134L458.353 66.1467C458.447 66.2405 458.5 66.3676 458.5 66.5001C458.5 66.6326 458.447 66.7596 458.353 66.8534L455.02 70.1867C454.974 70.2335 454.919 70.2705 454.858 70.2957C454.797 70.3209 454.732 70.3337 454.667 70.3334V70.3334Z" fill="#6B778C"/>
<path d="M477.838 70.252C480.848 70.252 483.018 68.04 483.018 65.044C483.018 62.048 480.848 59.836 477.838 59.836C474.828 59.836 472.658 62.048 472.658 65.044C472.658 68.04 474.828 70.252 477.838 70.252ZM477.838 69.16C475.514 69.16 473.918 67.326 473.918 65.044C473.918 62.762 475.514 60.928 477.838 60.928C480.162 60.928 481.758 62.762 481.758 65.044C481.758 67.326 480.162 69.16 477.838 69.16ZM484.656 73.192H485.748V68.838H485.776C486.182 69.58 487.12 70.168 488.296 70.168C490.13 70.168 491.572 68.684 491.572 66.724C491.572 64.736 490.186 63.28 488.128 63.28C487.176 63.28 486.378 63.7 485.776 64.4H485.748V63.448H484.656V73.192ZM485.748 66.724C485.748 65.352 486.658 64.288 488.072 64.288C489.486 64.288 490.396 65.352 490.396 66.724C490.396 68.096 489.486 69.16 488.072 69.16C486.658 69.16 485.748 68.096 485.748 66.724ZM496.854 63.448H494.922V61.586H493.83V63.448H492.402V64.372H493.83V67.97C493.83 69.328 494.082 70.168 495.636 70.168C496.042 70.168 496.532 70.098 496.91 69.93L496.868 68.936C496.574 69.09 496.224 69.16 495.902 69.16C494.936 69.16 494.922 68.488 494.922 67.648V64.372H496.854V63.448ZM498.29 70H499.382V63.448H498.29V70ZM498.038 60.886C498.038 61.348 498.374 61.684 498.836 61.684C499.298 61.684 499.634 61.348 499.634 60.886C499.634 60.452 499.284 60.088 498.836 60.088C498.388 60.088 498.038 60.452 498.038 60.886ZM501.178 66.724C501.178 68.768 502.662 70.168 504.678 70.168C506.694 70.168 508.178 68.768 508.178 66.724C508.178 64.68 506.694 63.28 504.678 63.28C502.662 63.28 501.178 64.68 501.178 66.724ZM502.354 66.724C502.354 65.352 503.264 64.288 504.678 64.288C506.092 64.288 507.002 65.352 507.002 66.724C507.002 68.096 506.092 69.16 504.678 69.16C503.264 69.16 502.354 68.096 502.354 66.724ZM509.868 70H510.96V66.808C510.96 65.31 511.576 64.288 512.99 64.288C514.012 64.288 514.488 64.974 514.488 66.066V70H515.58V65.954C515.58 64.372 514.81 63.28 513.088 63.28C512.01 63.28 511.198 63.882 510.904 64.526H510.876C510.876 64.162 510.848 63.798 510.848 63.448H509.812C509.812 63.882 509.868 64.4 509.868 65.002V70Z" fill="#333333"/>
<rect width="200" height="33" transform="translate(432 83)" fill="white"/>
<path d="M454.667 103.333C454.601 103.334 454.536 103.321 454.475 103.296C454.415 103.271 454.36 103.233 454.313 103.187C454.22 103.093 454.167 102.966 454.167 102.833C454.167 102.701 454.22 102.574 454.313 102.48L457.293 99.5001L454.313 96.5201C454.225 96.4253 454.177 96.2999 454.179 96.1704C454.182 96.0408 454.234 95.9173 454.326 95.8256C454.417 95.734 454.541 95.6816 454.67 95.6793C454.8 95.677 454.925 95.7251 455.02 95.8134L458.353 99.1467C458.447 99.2405 458.5 99.3676 458.5 99.5001C458.5 99.6326 458.447 99.7596 458.353 99.8534L455.02 103.187C454.974 103.233 454.919 103.271 454.858 103.296C454.797 103.321 454.732 103.334 454.667 103.333V103.333Z" fill="#6B778C"/>
<path d="M477.838 103.252C480.848 103.252 483.018 101.04 483.018 98.044C483.018 95.048 480.848 92.836 477.838 92.836C474.828 92.836 472.658 95.048 472.658 98.044C472.658 101.04 474.828 103.252 477.838 103.252ZM477.838 102.16C475.514 102.16 473.918 100.326 473.918 98.044C473.918 95.762 475.514 93.928 477.838 93.928C480.162 93.928 481.758 95.762 481.758 98.044C481.758 100.326 480.162 102.16 477.838 102.16ZM484.656 106.192H485.748V101.838H485.776C486.182 102.58 487.12 103.168 488.296 103.168C490.13 103.168 491.572 101.684 491.572 99.724C491.572 97.736 490.186 96.28 488.128 96.28C487.176 96.28 486.378 96.7 485.776 97.4H485.748V96.448H484.656V106.192ZM485.748 99.724C485.748 98.352 486.658 97.288 488.072 97.288C489.486 97.288 490.396 98.352 490.396 99.724C490.396 101.096 489.486 102.16 488.072 102.16C486.658 102.16 485.748 101.096 485.748 99.724ZM496.854 96.448H494.922V94.586H493.83V96.448H492.402V97.372H493.83V100.97C493.83 102.328 494.082 103.168 495.636 103.168C496.042 103.168 496.532 103.098 496.91 102.93L496.868 101.936C496.574 102.09 496.224 102.16 495.902 102.16C494.936 102.16 494.922 101.488 494.922 100.648V97.372H496.854V96.448ZM498.29 103H499.382V96.448H498.29V103ZM498.038 93.886C498.038 94.348 498.374 94.684 498.836 94.684C499.298 94.684 499.634 94.348 499.634 93.886C499.634 93.452 499.284 93.088 498.836 93.088C498.388 93.088 498.038 93.452 498.038 93.886ZM501.178 99.724C501.178 101.768 502.662 103.168 504.678 103.168C506.694 103.168 508.178 101.768 508.178 99.724C508.178 97.68 506.694 96.28 504.678 96.28C502.662 96.28 501.178 97.68 501.178 99.724ZM502.354 99.724C502.354 98.352 503.264 97.288 504.678 97.288C506.092 97.288 507.002 98.352 507.002 99.724C507.002 101.096 506.092 102.16 504.678 102.16C503.264 102.16 502.354 101.096 502.354 99.724ZM509.868 103H510.96V99.808C510.96 98.31 511.576 97.288 512.99 97.288C514.012 97.288 514.488 97.974 514.488 99.066V103H515.58V98.954C515.58 97.372 514.81 96.28 513.088 96.28C512.01 96.28 511.198 96.882 510.904 97.526H510.876C510.876 97.162 510.848 96.798 510.848 96.448H509.812C509.812 96.882 509.868 97.4 509.868 98.002V103Z" fill="#333333"/>
<rect width="200" height="33" transform="translate(432 116)" fill="white"/>
<path d="M454.667 136.333C454.601 136.334 454.536 136.321 454.475 136.296C454.415 136.271 454.36 136.233 454.313 136.187C454.22 136.093 454.167 135.966 454.167 135.833C454.167 135.701 454.22 135.574 454.313 135.48L457.293 132.5L454.313 129.52C454.225 129.425 454.177 129.3 454.179 129.17C454.182 129.041 454.234 128.917 454.326 128.826C454.417 128.734 454.541 128.682 454.67 128.679C454.8 128.677 454.925 128.725 455.02 128.813L458.353 132.147C458.447 132.24 458.5 132.368 458.5 132.5C458.5 132.633 458.447 132.76 458.353 132.853L455.02 136.187C454.974 136.233 454.919 136.271 454.858 136.296C454.797 136.321 454.732 136.334 454.667 136.333V136.333Z" fill="#6B778C"/>
<path d="M477.838 136.252C480.848 136.252 483.018 134.04 483.018 131.044C483.018 128.048 480.848 125.836 477.838 125.836C474.828 125.836 472.658 128.048 472.658 131.044C472.658 134.04 474.828 136.252 477.838 136.252ZM477.838 135.16C475.514 135.16 473.918 133.326 473.918 131.044C473.918 128.762 475.514 126.928 477.838 126.928C480.162 126.928 481.758 128.762 481.758 131.044C481.758 133.326 480.162 135.16 477.838 135.16ZM484.656 139.192H485.748V134.838H485.776C486.182 135.58 487.12 136.168 488.296 136.168C490.13 136.168 491.572 134.684 491.572 132.724C491.572 130.736 490.186 129.28 488.128 129.28C487.176 129.28 486.378 129.7 485.776 130.4H485.748V129.448H484.656V139.192ZM485.748 132.724C485.748 131.352 486.658 130.288 488.072 130.288C489.486 130.288 490.396 131.352 490.396 132.724C490.396 134.096 489.486 135.16 488.072 135.16C486.658 135.16 485.748 134.096 485.748 132.724ZM496.854 129.448H494.922V127.586H493.83V129.448H492.402V130.372H493.83V133.97C493.83 135.328 494.082 136.168 495.636 136.168C496.042 136.168 496.532 136.098 496.91 135.93L496.868 134.936C496.574 135.09 496.224 135.16 495.902 135.16C494.936 135.16 494.922 134.488 494.922 133.648V130.372H496.854V129.448ZM498.29 136H499.382V129.448H498.29V136ZM498.038 126.886C498.038 127.348 498.374 127.684 498.836 127.684C499.298 127.684 499.634 127.348 499.634 126.886C499.634 126.452 499.284 126.088 498.836 126.088C498.388 126.088 498.038 126.452 498.038 126.886ZM501.178 132.724C501.178 134.768 502.662 136.168 504.678 136.168C506.694 136.168 508.178 134.768 508.178 132.724C508.178 130.68 506.694 129.28 504.678 129.28C502.662 129.28 501.178 130.68 501.178 132.724ZM502.354 132.724C502.354 131.352 503.264 130.288 504.678 130.288C506.092 130.288 507.002 131.352 507.002 132.724C507.002 134.096 506.092 135.16 504.678 135.16C503.264 135.16 502.354 134.096 502.354 132.724ZM509.868 136H510.96V132.808C510.96 131.31 511.576 130.288 512.99 130.288C514.012 130.288 514.488 130.974 514.488 132.066V136H515.58V131.954C515.58 130.372 514.81 129.28 513.088 129.28C512.01 129.28 511.198 129.882 510.904 130.526H510.876C510.876 130.162 510.848 129.798 510.848 129.448H509.812C509.812 129.882 509.868 130.4 509.868 131.002V136Z" fill="#333333"/>
<rect width="200" height="33" transform="translate(432 149)" fill="white"/>
<path d="M454.667 169.333C454.601 169.334 454.536 169.321 454.475 169.296C454.415 169.271 454.36 169.233 454.313 169.187C454.22 169.093 454.167 168.966 454.167 168.833C454.167 168.701 454.22 168.574 454.313 168.48L457.293 165.5L454.313 162.52C454.225 162.425 454.177 162.3 454.179 162.17C454.182 162.041 454.234 161.917 454.326 161.826C454.417 161.734 454.541 161.682 454.67 161.679C454.8 161.677 454.925 161.725 455.02 161.813L458.353 165.147C458.447 165.24 458.5 165.368 458.5 165.5C458.5 165.633 458.447 165.76 458.353 165.853L455.02 169.187C454.974 169.233 454.919 169.271 454.858 169.296C454.797 169.321 454.732 169.334 454.667 169.333V169.333Z" fill="#6B778C"/>
<path d="M477.838 169.252C480.848 169.252 483.018 167.04 483.018 164.044C483.018 161.048 480.848 158.836 477.838 158.836C474.828 158.836 472.658 161.048 472.658 164.044C472.658 167.04 474.828 169.252 477.838 169.252ZM477.838 168.16C475.514 168.16 473.918 166.326 473.918 164.044C473.918 161.762 475.514 159.928 477.838 159.928C480.162 159.928 481.758 161.762 481.758 164.044C481.758 166.326 480.162 168.16 477.838 168.16ZM484.656 172.192H485.748V167.838H485.776C486.182 168.58 487.12 169.168 488.296 169.168C490.13 169.168 491.572 167.684 491.572 165.724C491.572 163.736 490.186 162.28 488.128 162.28C487.176 162.28 486.378 162.7 485.776 163.4H485.748V162.448H484.656V172.192ZM485.748 165.724C485.748 164.352 486.658 163.288 488.072 163.288C489.486 163.288 490.396 164.352 490.396 165.724C490.396 167.096 489.486 168.16 488.072 168.16C486.658 168.16 485.748 167.096 485.748 165.724ZM496.854 162.448H494.922V160.586H493.83V162.448H492.402V163.372H493.83V166.97C493.83 168.328 494.082 169.168 495.636 169.168C496.042 169.168 496.532 169.098 496.91 168.93L496.868 167.936C496.574 168.09 496.224 168.16 495.902 168.16C494.936 168.16 494.922 167.488 494.922 166.648V163.372H496.854V162.448ZM498.29 169H499.382V162.448H498.29V169ZM498.038 159.886C498.038 160.348 498.374 160.684 498.836 160.684C499.298 160.684 499.634 160.348 499.634 159.886C499.634 159.452 499.284 159.088 498.836 159.088C498.388 159.088 498.038 159.452 498.038 159.886ZM501.178 165.724C501.178 167.768 502.662 169.168 504.678 169.168C506.694 169.168 508.178 167.768 508.178 165.724C508.178 163.68 506.694 162.28 504.678 162.28C502.662 162.28 501.178 163.68 501.178 165.724ZM502.354 165.724C502.354 164.352 503.264 163.288 504.678 163.288C506.092 163.288 507.002 164.352 507.002 165.724C507.002 167.096 506.092 168.16 504.678 168.16C503.264 168.16 502.354 167.096 502.354 165.724ZM509.868 169H510.96V165.808C510.96 164.31 511.576 163.288 512.99 163.288C514.012 163.288 514.488 163.974 514.488 165.066V169H515.58V164.954C515.58 163.372 514.81 162.28 513.088 162.28C512.01 162.28 511.198 162.882 510.904 163.526H510.876C510.876 163.162 510.848 162.798 510.848 162.448H509.812C509.812 162.882 509.868 163.4 509.868 164.002V169Z" fill="#333333"/>
<rect width="200" height="33" transform="translate(432 182)" fill="white"/>
<path d="M454.667 202.333C454.601 202.334 454.536 202.321 454.475 202.296C454.415 202.271 454.36 202.233 454.313 202.187C454.22 202.093 454.167 201.966 454.167 201.833C454.167 201.701 454.22 201.574 454.313 201.48L457.293 198.5L454.313 195.52C454.225 195.425 454.177 195.3 454.179 195.17C454.182 195.041 454.234 194.917 454.326 194.826C454.417 194.734 454.541 194.682 454.67 194.679C454.8 194.677 454.925 194.725 455.02 194.813L458.353 198.147C458.447 198.24 458.5 198.368 458.5 198.5C458.5 198.633 458.447 198.76 458.353 198.853L455.02 202.187C454.974 202.233 454.919 202.271 454.858 202.296C454.797 202.321 454.732 202.334 454.667 202.333V202.333Z" fill="#6B778C"/>
<path d="M477.838 202.252C480.848 202.252 483.018 200.04 483.018 197.044C483.018 194.048 480.848 191.836 477.838 191.836C474.828 191.836 472.658 194.048 472.658 197.044C472.658 200.04 474.828 202.252 477.838 202.252ZM477.838 201.16C475.514 201.16 473.918 199.326 473.918 197.044C473.918 194.762 475.514 192.928 477.838 192.928C480.162 192.928 481.758 194.762 481.758 197.044C481.758 199.326 480.162 201.16 477.838 201.16ZM484.656 205.192H485.748V200.838H485.776C486.182 201.58 487.12 202.168 488.296 202.168C490.13 202.168 491.572 200.684 491.572 198.724C491.572 196.736 490.186 195.28 488.128 195.28C487.176 195.28 486.378 195.7 485.776 196.4H485.748V195.448H484.656V205.192ZM485.748 198.724C485.748 197.352 486.658 196.288 488.072 196.288C489.486 196.288 490.396 197.352 490.396 198.724C490.396 200.096 489.486 201.16 488.072 201.16C486.658 201.16 485.748 200.096 485.748 198.724ZM496.854 195.448H494.922V193.586H493.83V195.448H492.402V196.372H493.83V199.97C493.83 201.328 494.082 202.168 495.636 202.168C496.042 202.168 496.532 202.098 496.91 201.93L496.868 200.936C496.574 201.09 496.224 201.16 495.902 201.16C494.936 201.16 494.922 200.488 494.922 199.648V196.372H496.854V195.448ZM498.29 202H499.382V195.448H498.29V202ZM498.038 192.886C498.038 193.348 498.374 193.684 498.836 193.684C499.298 193.684 499.634 193.348 499.634 192.886C499.634 192.452 499.284 192.088 498.836 192.088C498.388 192.088 498.038 192.452 498.038 192.886ZM501.178 198.724C501.178 200.768 502.662 202.168 504.678 202.168C506.694 202.168 508.178 200.768 508.178 198.724C508.178 196.68 506.694 195.28 504.678 195.28C502.662 195.28 501.178 196.68 501.178 198.724ZM502.354 198.724C502.354 197.352 503.264 196.288 504.678 196.288C506.092 196.288 507.002 197.352 507.002 198.724C507.002 200.096 506.092 201.16 504.678 201.16C503.264 201.16 502.354 200.096 502.354 198.724ZM509.868 202H510.96V198.808C510.96 197.31 511.576 196.288 512.99 196.288C514.012 196.288 514.488 196.974 514.488 198.066V202H515.58V197.954C515.58 196.372 514.81 195.28 513.088 195.28C512.01 195.28 511.198 195.882 510.904 196.526H510.876C510.876 196.162 510.848 195.798 510.848 195.448H509.812C509.812 195.882 509.868 196.4 509.868 197.002V202Z" fill="#333333"/>
<rect width="200" height="33" transform="translate(432 215)" fill="white"/>
<path d="M454.667 235.333C454.601 235.334 454.536 235.321 454.475 235.296C454.415 235.271 454.36 235.233 454.313 235.187C454.22 235.093 454.167 234.966 454.167 234.833C454.167 234.701 454.22 234.574 454.313 234.48L457.293 231.5L454.313 228.52C454.225 228.425 454.177 228.3 454.179 228.17C454.182 228.041 454.234 227.917 454.326 227.826C454.417 227.734 454.541 227.682 454.67 227.679C454.8 227.677 454.925 227.725 455.02 227.813L458.353 231.147C458.447 231.24 458.5 231.368 458.5 231.5C458.5 231.633 458.447 231.76 458.353 231.853L455.02 235.187C454.974 235.233 454.919 235.271 454.858 235.296C454.797 235.321 454.732 235.334 454.667 235.333V235.333Z" fill="#6B778C"/>
<path d="M477.838 235.252C480.848 235.252 483.018 233.04 483.018 230.044C483.018 227.048 480.848 224.836 477.838 224.836C474.828 224.836 472.658 227.048 472.658 230.044C472.658 233.04 474.828 235.252 477.838 235.252ZM477.838 234.16C475.514 234.16 473.918 232.326 473.918 230.044C473.918 227.762 475.514 225.928 477.838 225.928C480.162 225.928 481.758 227.762 481.758 230.044C481.758 232.326 480.162 234.16 477.838 234.16ZM484.656 238.192H485.748V233.838H485.776C486.182 234.58 487.12 235.168 488.296 235.168C490.13 235.168 491.572 233.684 491.572 231.724C491.572 229.736 490.186 228.28 488.128 228.28C487.176 228.28 486.378 228.7 485.776 229.4H485.748V228.448H484.656V238.192ZM485.748 231.724C485.748 230.352 486.658 229.288 488.072 229.288C489.486 229.288 490.396 230.352 490.396 231.724C490.396 233.096 489.486 234.16 488.072 234.16C486.658 234.16 485.748 233.096 485.748 231.724ZM496.854 228.448H494.922V226.586H493.83V228.448H492.402V229.372H493.83V232.97C493.83 234.328 494.082 235.168 495.636 235.168C496.042 235.168 496.532 235.098 496.91 234.93L496.868 233.936C496.574 234.09 496.224 234.16 495.902 234.16C494.936 234.16 494.922 233.488 494.922 232.648V229.372H496.854V228.448ZM498.29 235H499.382V228.448H498.29V235ZM498.038 225.886C498.038 226.348 498.374 226.684 498.836 226.684C499.298 226.684 499.634 226.348 499.634 225.886C499.634 225.452 499.284 225.088 498.836 225.088C498.388 225.088 498.038 225.452 498.038 225.886ZM501.178 231.724C501.178 233.768 502.662 235.168 504.678 235.168C506.694 235.168 508.178 233.768 508.178 231.724C508.178 229.68 506.694 228.28 504.678 228.28C502.662 228.28 501.178 229.68 501.178 231.724ZM502.354 231.724C502.354 230.352 503.264 229.288 504.678 229.288C506.092 229.288 507.002 230.352 507.002 231.724C507.002 233.096 506.092 234.16 504.678 234.16C503.264 234.16 502.354 233.096 502.354 231.724ZM509.868 235H510.96V231.808C510.96 230.31 511.576 229.288 512.99 229.288C514.012 229.288 514.488 229.974 514.488 231.066V235H515.58V230.954C515.58 229.372 514.81 228.28 513.088 228.28C512.01 228.28 511.198 228.882 510.904 229.526H510.876C510.876 229.162 510.848 228.798 510.848 228.448H509.812C509.812 228.882 509.868 229.4 509.868 230.002V235Z" fill="#333333"/>
</g>
<path d="M657.282 3.404C656.302 2.27 655.154 1.836 653.81 1.836C650.758 1.836 648.574 3.908 648.574 7.086C648.574 10.18 650.758 12.252 653.81 12.252C655.266 12.252 656.61 11.72 657.506 10.488L656.05 9.452C655.392 10.292 654.622 10.656 653.824 10.656C651.78 10.656 650.422 9.088 650.422 6.974C650.422 5 651.78 3.432 653.824 3.432C654.51 3.432 655.182 3.642 655.91 4.412L657.282 3.404ZM660.216 1.416H658.536V12H660.216V8.332C660.216 7.436 660.65 6.624 661.756 6.624C662.932 6.624 662.988 7.856 662.988 8.598V12H664.668V7.758C664.668 6.386 664.024 5.112 662.218 5.112C661.182 5.112 660.51 5.658 660.244 6.218H660.216V1.416ZM673.043 9.228V8.766C673.043 6.428 671.769 5.112 669.893 5.112C667.863 5.112 666.239 6.526 666.239 8.64C666.239 10.754 667.863 12.168 669.893 12.168C670.957 12.168 671.951 11.79 672.735 10.824L671.531 9.914C671.111 10.432 670.565 10.824 669.725 10.824C668.787 10.824 668.031 10.222 667.919 9.228H673.043ZM667.919 7.968C668.045 7.002 668.661 6.372 669.655 6.372C670.705 6.372 671.349 6.988 671.363 7.968H667.919ZM680.368 6.134C679.724 5.42 678.786 5.112 677.932 5.112C675.902 5.112 674.278 6.526 674.278 8.64C674.278 10.754 675.902 12.168 677.932 12.168C678.52 12.168 679.668 11.916 680.354 11.23L679.234 10.026C678.926 10.432 678.45 10.656 677.932 10.656C676.7 10.656 675.958 9.69 675.958 8.64C675.958 7.59 676.7 6.624 677.932 6.624C678.38 6.624 678.814 6.89 679.206 7.296L680.368 6.134ZM681.368 12H683.048V8.57H683.076L685.75 12H687.976L684.91 8.332L687.794 5.28H685.638L683.048 8.066V1.416H681.368V12ZM688.888 12H690.484V10.992H690.512C691.002 11.804 691.884 12.168 692.822 12.168C694.894 12.168 696.14 10.628 696.14 8.64C696.14 6.652 694.81 5.112 692.892 5.112C691.632 5.112 690.96 5.7 690.61 6.134H690.568V1.416H688.888V12ZM694.46 8.64C694.46 9.69 693.718 10.656 692.486 10.656C691.254 10.656 690.512 9.69 690.512 8.64C690.512 7.59 691.254 6.624 692.486 6.624C693.718 6.624 694.46 7.59 694.46 8.64ZM697.37 8.64C697.37 10.754 698.994 12.168 701.024 12.168C703.054 12.168 704.678 10.754 704.678 8.64C704.678 6.526 703.054 5.112 701.024 5.112C698.994 5.112 697.37 6.526 697.37 8.64ZM699.05 8.64C699.05 7.59 699.792 6.624 701.024 6.624C702.256 6.624 702.998 7.59 702.998 8.64C702.998 9.69 702.256 10.656 701.024 10.656C699.792 10.656 699.05 9.69 699.05 8.64ZM705.285 12H707.273L709.037 9.592L710.787 12H712.831L710.129 8.388L712.425 5.28H710.507L709.051 7.296L707.707 5.28H705.663L707.987 8.388L705.285 12ZM713.77 11.02C713.77 11.622 714.302 12.084 714.89 12.084C715.506 12.084 716.01 11.594 716.01 10.992C716.01 10.39 715.492 9.928 714.89 9.928C714.274 9.928 713.77 10.418 713.77 11.02ZM713.77 6.274C713.77 6.876 714.302 7.338 714.89 7.338C715.506 7.338 716.01 6.848 716.01 6.246C716.01 5.644 715.492 5.182 714.89 5.182C714.274 5.182 713.77 5.672 713.77 6.274ZM722.21 12H723.974V7.884H728.342V6.288H723.974V3.684H728.608V2.088H722.21V12ZM734.295 12H735.807V8.136C735.807 7.184 735.807 5.112 732.937 5.112C731.873 5.112 730.823 5.434 730.081 6.19L730.963 7.072C731.411 6.652 732.055 6.372 732.755 6.372C733.651 6.372 734.295 6.806 734.295 7.632V7.814H733.875C732.195 7.814 729.647 7.968 729.647 10.152C729.647 11.482 730.851 12.168 732.097 12.168C732.993 12.168 733.777 11.832 734.253 11.076H734.295V12ZM734.197 9.368C734.197 10.306 733.651 10.908 732.503 10.908C731.957 10.908 731.327 10.642 731.327 10.026C731.327 9.06 732.923 8.99 733.847 8.99H734.197V9.368ZM737.642 12H739.322V1.416H737.642V12ZM745.955 6.134C745.409 5.392 744.457 5.112 743.561 5.112C742.203 5.112 740.859 5.784 740.859 7.282C740.859 9.844 744.485 8.752 744.485 10.138C744.485 10.67 743.855 10.908 743.365 10.908C742.651 10.908 742.203 10.558 741.769 10.082L740.649 11.132C741.335 11.902 742.231 12.168 743.267 12.168C744.639 12.168 746.165 11.608 746.165 10.012C746.165 7.394 742.539 8.374 742.539 7.17C742.539 6.666 743.071 6.456 743.519 6.456C744.093 6.456 744.513 6.694 744.835 7.142L745.955 6.134ZM753.94 9.228V8.766C753.94 6.428 752.666 5.112 750.79 5.112C748.76 5.112 747.136 6.526 747.136 8.64C747.136 10.754 748.76 12.168 750.79 12.168C751.854 12.168 752.848 11.79 753.632 10.824L752.428 9.914C752.008 10.432 751.462 10.824 750.622 10.824C749.684 10.824 748.928 10.222 748.816 9.228H753.94ZM748.816 7.968C748.942 7.002 749.558 6.372 750.552 6.372C751.602 6.372 752.246 6.988 752.26 7.968H748.816ZM651.136 29H652.9V20.684H655.938V19.088H648.098V20.684H651.136V29ZM655.706 29H657.386V25.402C657.386 25.038 657.61 23.708 659.192 23.708C659.458 23.708 659.724 23.764 660.004 23.834V22.21C659.808 22.154 659.612 22.112 659.402 22.112C658.52 22.112 657.778 22.574 657.414 23.344H657.386V22.28H655.706V29ZM667.369 26.228V25.766C667.369 23.428 666.095 22.112 664.219 22.112C662.189 22.112 660.565 23.526 660.565 25.64C660.565 27.754 662.189 29.168 664.219 29.168C665.283 29.168 666.277 28.79 667.061 27.824L665.857 26.914C665.437 27.432 664.891 27.824 664.051 27.824C663.113 27.824 662.357 27.222 662.245 26.228H667.369ZM662.245 24.968C662.371 24.002 662.987 23.372 663.981 23.372C665.031 23.372 665.675 23.988 665.689 24.968H662.245ZM675.408 26.228V25.766C675.408 23.428 674.134 22.112 672.258 22.112C670.228 22.112 668.604 23.526 668.604 25.64C668.604 27.754 670.228 29.168 672.258 29.168C673.322 29.168 674.316 28.79 675.1 27.824L673.896 26.914C673.476 27.432 672.93 27.824 672.09 27.824C671.152 27.824 670.396 27.222 670.284 26.228H675.408ZM670.284 24.968C670.41 24.002 671.026 23.372 672.02 23.372C673.07 23.372 673.714 23.988 673.728 24.968H670.284ZM676.979 28.02C676.979 28.622 677.511 29.084 678.099 29.084C678.715 29.084 679.219 28.594 679.219 27.992C679.219 27.39 678.701 26.928 678.099 26.928C677.483 26.928 676.979 27.418 676.979 28.02ZM676.979 23.274C676.979 23.876 677.511 24.338 678.099 24.338C678.715 24.338 679.219 23.848 679.219 23.246C679.219 22.644 678.701 22.182 678.099 22.182C677.483 22.182 676.979 22.672 676.979 23.274ZM687.449 29H689.213V20.684H692.251V19.088H684.411V20.684H687.449V29ZM692.018 29H693.698V25.402C693.698 25.038 693.922 23.708 695.504 23.708C695.77 23.708 696.036 23.764 696.316 23.834V22.21C696.12 22.154 695.924 22.112 695.714 22.112C694.832 22.112 694.09 22.574 693.726 23.344H693.698V22.28H692.018V29ZM703.592 22.28H701.912V25.948C701.912 26.844 701.478 27.656 700.372 27.656C699.196 27.656 699.14 26.424 699.14 25.682V22.28H697.46V26.522C697.46 27.894 698.104 29.168 699.91 29.168C701.03 29.168 701.66 28.594 701.968 27.922H701.996V29H703.592V22.28ZM711.967 26.228V25.766C711.967 23.428 710.693 22.112 708.817 22.112C706.787 22.112 705.163 23.526 705.163 25.64C705.163 27.754 706.787 29.168 708.817 29.168C709.881 29.168 710.875 28.79 711.659 27.824L710.455 26.914C710.035 27.432 709.489 27.824 708.649 27.824C707.711 27.824 706.955 27.222 706.843 26.228H711.967ZM706.843 24.968C706.969 24.002 707.585 23.372 708.579 23.372C709.629 23.372 710.273 23.988 710.287 24.968H706.843Z" fill="black"/>
<g clip-path="url(#clip3_41_10923)">
<rect width="200" height="231" transform="translate(648 50)" fill="white"/>
<rect width="200" height="33" transform="translate(648 50)" fill="white"/>
<path d="M672 68.6667C671.934 68.667 671.869 68.6542 671.808 68.629C671.748 68.6038 671.693 68.5668 671.647 68.52L668.313 65.1867C668.247 65.0894 668.217 64.9718 668.229 64.8546C668.24 64.7374 668.293 64.6281 668.378 64.546C668.462 64.4638 668.573 64.4142 668.69 64.4058C668.808 64.3974 668.925 64.4308 669.02 64.5L672 67.46L674.98 64.5C675.074 64.4391 675.186 64.4115 675.297 64.4216C675.409 64.4317 675.514 64.479 675.595 64.5559C675.677 64.6327 675.73 64.7347 675.746 64.8455C675.763 64.9562 675.742 65.0693 675.687 65.1667L672.353 68.5C672.309 68.5504 672.255 68.5912 672.194 68.6198C672.133 68.6485 672.067 68.6644 672 68.6667V68.6667Z" fill="#6B778C"/>
<path d="M693.838 70.252C696.848 70.252 699.018 68.04 699.018 65.044C699.018 62.048 696.848 59.836 693.838 59.836C690.828 59.836 688.658 62.048 688.658 65.044C688.658 68.04 690.828 70.252 693.838 70.252ZM693.838 69.16C691.514 69.16 689.918 67.326 689.918 65.044C689.918 62.762 691.514 60.928 693.838 60.928C696.162 60.928 697.758 62.762 697.758 65.044C697.758 67.326 696.162 69.16 693.838 69.16ZM700.656 73.192H701.748V68.838H701.776C702.182 69.58 703.12 70.168 704.296 70.168C706.13 70.168 707.572 68.684 707.572 66.724C707.572 64.736 706.186 63.28 704.128 63.28C703.176 63.28 702.378 63.7 701.776 64.4H701.748V63.448H700.656V73.192ZM701.748 66.724C701.748 65.352 702.658 64.288 704.072 64.288C705.486 64.288 706.396 65.352 706.396 66.724C706.396 68.096 705.486 69.16 704.072 69.16C702.658 69.16 701.748 68.096 701.748 66.724ZM712.854 63.448H710.922V61.586H709.83V63.448H708.402V64.372H709.83V67.97C709.83 69.328 710.082 70.168 711.636 70.168C712.042 70.168 712.532 70.098 712.91 69.93L712.868 68.936C712.574 69.09 712.224 69.16 711.902 69.16C710.936 69.16 710.922 68.488 710.922 67.648V64.372H712.854V63.448ZM714.29 70H715.382V63.448H714.29V70ZM714.038 60.886C714.038 61.348 714.374 61.684 714.836 61.684C715.298 61.684 715.634 61.348 715.634 60.886C715.634 60.452 715.284 60.088 714.836 60.088C714.388 60.088 714.038 60.452 714.038 60.886ZM717.178 66.724C717.178 68.768 718.662 70.168 720.678 70.168C722.694 70.168 724.178 68.768 724.178 66.724C724.178 64.68 722.694 63.28 720.678 63.28C718.662 63.28 717.178 64.68 717.178 66.724ZM718.354 66.724C718.354 65.352 719.264 64.288 720.678 64.288C722.092 64.288 723.002 65.352 723.002 66.724C723.002 68.096 722.092 69.16 720.678 69.16C719.264 69.16 718.354 68.096 718.354 66.724ZM725.868 70H726.96V66.808C726.96 65.31 727.576 64.288 728.99 64.288C730.012 64.288 730.488 64.974 730.488 66.066V70H731.58V65.954C731.58 64.372 730.81 63.28 729.088 63.28C728.01 63.28 727.198 63.882 726.904 64.526H726.876C726.876 64.162 726.848 63.798 726.848 63.448H725.812C725.812 63.882 725.868 64.4 725.868 65.002V70Z" fill="#333333"/>
<rect width="184" height="33" transform="translate(664 83)" fill="white"/>
<path d="M688 101.667C687.934 101.667 687.869 101.654 687.808 101.629C687.748 101.604 687.693 101.567 687.647 101.52L684.313 98.1867C684.247 98.0894 684.217 97.9718 684.229 97.8546C684.24 97.7374 684.293 97.6281 684.378 97.546C684.462 97.4638 684.573 97.4142 684.69 97.4058C684.808 97.3974 684.925 97.4308 685.02 97.5L688 100.46L690.98 97.5C691.074 97.4391 691.186 97.4115 691.297 97.4216C691.409 97.4317 691.514 97.479 691.595 97.5559C691.677 97.6327 691.73 97.7347 691.746 97.8455C691.763 97.9562 691.742 98.0693 691.687 98.1667L688.353 101.5C688.309 101.55 688.255 101.591 688.194 101.62C688.133 101.648 688.067 101.664 688 101.667V101.667Z" fill="#6B778C"/>
<path d="M709.838 103.252C712.848 103.252 715.018 101.04 715.018 98.044C715.018 95.048 712.848 92.836 709.838 92.836C706.828 92.836 704.658 95.048 704.658 98.044C704.658 101.04 706.828 103.252 709.838 103.252ZM709.838 102.16C707.514 102.16 705.918 100.326 705.918 98.044C705.918 95.762 707.514 93.928 709.838 93.928C712.162 93.928 713.758 95.762 713.758 98.044C713.758 100.326 712.162 102.16 709.838 102.16ZM716.656 106.192H717.748V101.838H717.776C718.182 102.58 719.12 103.168 720.296 103.168C722.13 103.168 723.572 101.684 723.572 99.724C723.572 97.736 722.186 96.28 720.128 96.28C719.176 96.28 718.378 96.7 717.776 97.4H717.748V96.448H716.656V106.192ZM717.748 99.724C717.748 98.352 718.658 97.288 720.072 97.288C721.486 97.288 722.396 98.352 722.396 99.724C722.396 101.096 721.486 102.16 720.072 102.16C718.658 102.16 717.748 101.096 717.748 99.724ZM728.854 96.448H726.922V94.586H725.83V96.448H724.402V97.372H725.83V100.97C725.83 102.328 726.082 103.168 727.636 103.168C728.042 103.168 728.532 103.098 728.91 102.93L728.868 101.936C728.574 102.09 728.224 102.16 727.902 102.16C726.936 102.16 726.922 101.488 726.922 100.648V97.372H728.854V96.448ZM730.29 103H731.382V96.448H730.29V103ZM730.038 93.886C730.038 94.348 730.374 94.684 730.836 94.684C731.298 94.684 731.634 94.348 731.634 93.886C731.634 93.452 731.284 93.088 730.836 93.088C730.388 93.088 730.038 93.452 730.038 93.886ZM733.178 99.724C733.178 101.768 734.662 103.168 736.678 103.168C738.694 103.168 740.178 101.768 740.178 99.724C740.178 97.68 738.694 96.28 736.678 96.28C734.662 96.28 733.178 97.68 733.178 99.724ZM734.354 99.724C734.354 98.352 735.264 97.288 736.678 97.288C738.092 97.288 739.002 98.352 739.002 99.724C739.002 101.096 738.092 102.16 736.678 102.16C735.264 102.16 734.354 101.096 734.354 99.724ZM741.868 103H742.96V99.808C742.96 98.31 743.576 97.288 744.99 97.288C746.012 97.288 746.488 97.974 746.488 99.066V103H747.58V98.954C747.58 97.372 746.81 96.28 745.088 96.28C744.01 96.28 743.198 96.882 742.904 97.526H742.876C742.876 97.162 742.848 96.798 742.848 96.448H741.812C741.812 96.882 741.868 97.4 741.868 98.002V103Z" fill="#333333"/>
<rect width="168" height="33" transform="translate(680 116)" fill="white"/>
<path d="M725.838 136.252C728.848 136.252 731.018 134.04 731.018 131.044C731.018 128.048 728.848 125.836 725.838 125.836C722.828 125.836 720.658 128.048 720.658 131.044C720.658 134.04 722.828 136.252 725.838 136.252ZM725.838 135.16C723.514 135.16 721.918 133.326 721.918 131.044C721.918 128.762 723.514 126.928 725.838 126.928C728.162 126.928 729.758 128.762 729.758 131.044C729.758 133.326 728.162 135.16 725.838 135.16ZM732.656 139.192H733.748V134.838H733.776C734.182 135.58 735.12 136.168 736.296 136.168C738.13 136.168 739.572 134.684 739.572 132.724C739.572 130.736 738.186 129.28 736.128 129.28C735.176 129.28 734.378 129.7 733.776 130.4H733.748V129.448H732.656V139.192ZM733.748 132.724C733.748 131.352 734.658 130.288 736.072 130.288C737.486 130.288 738.396 131.352 738.396 132.724C738.396 134.096 737.486 135.16 736.072 135.16C734.658 135.16 733.748 134.096 733.748 132.724ZM744.854 129.448H742.922V127.586H741.83V129.448H740.402V130.372H741.83V133.97C741.83 135.328 742.082 136.168 743.636 136.168C744.042 136.168 744.532 136.098 744.91 135.93L744.868 134.936C744.574 135.09 744.224 135.16 743.902 135.16C742.936 135.16 742.922 134.488 742.922 133.648V130.372H744.854V129.448ZM746.29 136H747.382V129.448H746.29V136ZM746.038 126.886C746.038 127.348 746.374 127.684 746.836 127.684C747.298 127.684 747.634 127.348 747.634 126.886C747.634 126.452 747.284 126.088 746.836 126.088C746.388 126.088 746.038 126.452 746.038 126.886ZM749.178 132.724C749.178 134.768 750.662 136.168 752.678 136.168C754.694 136.168 756.178 134.768 756.178 132.724C756.178 130.68 754.694 129.28 752.678 129.28C750.662 129.28 749.178 130.68 749.178 132.724ZM750.354 132.724C750.354 131.352 751.264 130.288 752.678 130.288C754.092 130.288 755.002 131.352 755.002 132.724C755.002 134.096 754.092 135.16 752.678 135.16C751.264 135.16 750.354 134.096 750.354 132.724ZM757.868 136H758.96V132.808C758.96 131.31 759.576 130.288 760.99 130.288C762.012 130.288 762.488 130.974 762.488 132.066V136H763.58V131.954C763.58 130.372 762.81 129.28 761.088 129.28C760.01 129.28 759.198 129.882 758.904 130.526H758.876C758.876 130.162 758.848 129.798 758.848 129.448H757.812C757.812 129.882 757.868 130.4 757.868 131.002V136Z" fill="#333333"/>
<rect width="168" height="33" transform="translate(680 149)" fill="white"/>
<path d="M725.838 169.252C728.848 169.252 731.018 167.04 731.018 164.044C731.018 161.048 728.848 158.836 725.838 158.836C722.828 158.836 720.658 161.048 720.658 164.044C720.658 167.04 722.828 169.252 725.838 169.252ZM725.838 168.16C723.514 168.16 721.918 166.326 721.918 164.044C721.918 161.762 723.514 159.928 725.838 159.928C728.162 159.928 729.758 161.762 729.758 164.044C729.758 166.326 728.162 168.16 725.838 168.16ZM732.656 172.192H733.748V167.838H733.776C734.182 168.58 735.12 169.168 736.296 169.168C738.13 169.168 739.572 167.684 739.572 165.724C739.572 163.736 738.186 162.28 736.128 162.28C735.176 162.28 734.378 162.7 733.776 163.4H733.748V162.448H732.656V172.192ZM733.748 165.724C733.748 164.352 734.658 163.288 736.072 163.288C737.486 163.288 738.396 164.352 738.396 165.724C738.396 167.096 737.486 168.16 736.072 168.16C734.658 168.16 733.748 167.096 733.748 165.724ZM744.854 162.448H742.922V160.586H741.83V162.448H740.402V163.372H741.83V166.97C741.83 168.328 742.082 169.168 743.636 169.168C744.042 169.168 744.532 169.098 744.91 168.93L744.868 167.936C744.574 168.09 744.224 168.16 743.902 168.16C742.936 168.16 742.922 167.488 742.922 166.648V163.372H744.854V162.448ZM746.29 169H747.382V162.448H746.29V169ZM746.038 159.886C746.038 160.348 746.374 160.684 746.836 160.684C747.298 160.684 747.634 160.348 747.634 159.886C747.634 159.452 747.284 159.088 746.836 159.088C746.388 159.088 746.038 159.452 746.038 159.886ZM749.178 165.724C749.178 167.768 750.662 169.168 752.678 169.168C754.694 169.168 756.178 167.768 756.178 165.724C756.178 163.68 754.694 162.28 752.678 162.28C750.662 162.28 749.178 163.68 749.178 165.724ZM750.354 165.724C750.354 164.352 751.264 163.288 752.678 163.288C754.092 163.288 755.002 164.352 755.002 165.724C755.002 167.096 754.092 168.16 752.678 168.16C751.264 168.16 750.354 167.096 750.354 165.724ZM757.868 169H758.96V165.808C758.96 164.31 759.576 163.288 760.99 163.288C762.012 163.288 762.488 163.974 762.488 165.066V169H763.58V164.954C763.58 163.372 762.81 162.28 761.088 162.28C760.01 162.28 759.198 162.882 758.904 163.526H758.876C758.876 163.162 758.848 162.798 758.848 162.448H757.812C757.812 162.882 757.868 163.4 757.868 164.002V169Z" fill="#333333"/>
<rect width="200" height="33" transform="translate(648 182)" fill="white"/>
<path d="M672 200.667C671.934 200.667 671.869 200.654 671.808 200.629C671.748 200.604 671.693 200.567 671.647 200.52L668.313 197.187C668.247 197.089 668.217 196.972 668.229 196.855C668.24 196.737 668.293 196.628 668.378 196.546C668.462 196.464 668.573 196.414 668.69 196.406C668.808 196.397 668.925 196.431 669.02 196.5L672 199.46L674.98 196.5C675.074 196.439 675.186 196.411 675.297 196.422C675.409 196.432 675.514 196.479 675.595 196.556C675.677 196.633 675.73 196.735 675.746 196.845C675.763 196.956 675.742 197.069 675.687 197.167L672.353 200.5C672.309 200.55 672.255 200.591 672.194 200.62C672.133 200.648 672.067 200.664 672 200.667V200.667Z" fill="#6B778C"/>
<path d="M693.838 202.252C696.848 202.252 699.018 200.04 699.018 197.044C699.018 194.048 696.848 191.836 693.838 191.836C690.828 191.836 688.658 194.048 688.658 197.044C688.658 200.04 690.828 202.252 693.838 202.252ZM693.838 201.16C691.514 201.16 689.918 199.326 689.918 197.044C689.918 194.762 691.514 192.928 693.838 192.928C696.162 192.928 697.758 194.762 697.758 197.044C697.758 199.326 696.162 201.16 693.838 201.16ZM700.656 205.192H701.748V200.838H701.776C702.182 201.58 703.12 202.168 704.296 202.168C706.13 202.168 707.572 200.684 707.572 198.724C707.572 196.736 706.186 195.28 704.128 195.28C703.176 195.28 702.378 195.7 701.776 196.4H701.748V195.448H700.656V205.192ZM701.748 198.724C701.748 197.352 702.658 196.288 704.072 196.288C705.486 196.288 706.396 197.352 706.396 198.724C706.396 200.096 705.486 201.16 704.072 201.16C702.658 201.16 701.748 200.096 701.748 198.724ZM712.854 195.448H710.922V193.586H709.83V195.448H708.402V196.372H709.83V199.97C709.83 201.328 710.082 202.168 711.636 202.168C712.042 202.168 712.532 202.098 712.91 201.93L712.868 200.936C712.574 201.09 712.224 201.16 711.902 201.16C710.936 201.16 710.922 200.488 710.922 199.648V196.372H712.854V195.448ZM714.29 202H715.382V195.448H714.29V202ZM714.038 192.886C714.038 193.348 714.374 193.684 714.836 193.684C715.298 193.684 715.634 193.348 715.634 192.886C715.634 192.452 715.284 192.088 714.836 192.088C714.388 192.088 714.038 192.452 714.038 192.886ZM717.178 198.724C717.178 200.768 718.662 202.168 720.678 202.168C722.694 202.168 724.178 200.768 724.178 198.724C724.178 196.68 722.694 195.28 720.678 195.28C718.662 195.28 717.178 196.68 717.178 198.724ZM718.354 198.724C718.354 197.352 719.264 196.288 720.678 196.288C722.092 196.288 723.002 197.352 723.002 198.724C723.002 200.096 722.092 201.16 720.678 201.16C719.264 201.16 718.354 200.096 718.354 198.724ZM725.868 202H726.96V198.808C726.96 197.31 727.576 196.288 728.99 196.288C730.012 196.288 730.488 196.974 730.488 198.066V202H731.58V197.954C731.58 196.372 730.81 195.28 729.088 195.28C728.01 195.28 727.198 195.882 726.904 196.526H726.876C726.876 196.162 726.848 195.798 726.848 195.448H725.812C725.812 195.882 725.868 196.4 725.868 197.002V202Z" fill="#333333"/>
<rect width="184" height="33" transform="translate(664 215)" fill="white"/>
<path d="M709.838 235.252C712.848 235.252 715.018 233.04 715.018 230.044C715.018 227.048 712.848 224.836 709.838 224.836C706.828 224.836 704.658 227.048 704.658 230.044C704.658 233.04 706.828 235.252 709.838 235.252ZM709.838 234.16C707.514 234.16 705.918 232.326 705.918 230.044C705.918 227.762 707.514 225.928 709.838 225.928C712.162 225.928 713.758 227.762 713.758 230.044C713.758 232.326 712.162 234.16 709.838 234.16ZM716.656 238.192H717.748V233.838H717.776C718.182 234.58 719.12 235.168 720.296 235.168C722.13 235.168 723.572 233.684 723.572 231.724C723.572 229.736 722.186 228.28 720.128 228.28C719.176 228.28 718.378 228.7 717.776 229.4H717.748V228.448H716.656V238.192ZM717.748 231.724C717.748 230.352 718.658 229.288 720.072 229.288C721.486 229.288 722.396 230.352 722.396 231.724C722.396 233.096 721.486 234.16 720.072 234.16C718.658 234.16 717.748 233.096 717.748 231.724ZM728.854 228.448H726.922V226.586H725.83V228.448H724.402V229.372H725.83V232.97C725.83 234.328 726.082 235.168 727.636 235.168C728.042 235.168 728.532 235.098 728.91 234.93L728.868 233.936C728.574 234.09 728.224 234.16 727.902 234.16C726.936 234.16 726.922 233.488 726.922 232.648V229.372H728.854V228.448ZM730.29 235H731.382V228.448H730.29V235ZM730.038 225.886C730.038 226.348 730.374 226.684 730.836 226.684C731.298 226.684 731.634 226.348 731.634 225.886C731.634 225.452 731.284 225.088 730.836 225.088C730.388 225.088 730.038 225.452 730.038 225.886ZM733.178 231.724C733.178 233.768 734.662 235.168 736.678 235.168C738.694 235.168 740.178 233.768 740.178 231.724C740.178 229.68 738.694 228.28 736.678 228.28C734.662 228.28 733.178 229.68 733.178 231.724ZM734.354 231.724C734.354 230.352 735.264 229.288 736.678 229.288C738.092 229.288 739.002 230.352 739.002 231.724C739.002 233.096 738.092 234.16 736.678 234.16C735.264 234.16 734.354 233.096 734.354 231.724ZM741.868 235H742.96V231.808C742.96 230.31 743.576 229.288 744.99 229.288C746.012 229.288 746.488 229.974 746.488 231.066V235H747.58V230.954C747.58 229.372 746.81 228.28 745.088 228.28C744.01 228.28 743.198 228.882 742.904 229.526H742.876C742.876 229.162 742.848 228.798 742.848 228.448H741.812C741.812 228.882 741.868 229.4 741.868 230.002V235Z" fill="#333333"/>
<rect width="184" height="33" transform="translate(664 248)" fill="white"/>
<path d="M709.838 268.252C712.848 268.252 715.018 266.04 715.018 263.044C715.018 260.048 712.848 257.836 709.838 257.836C706.828 257.836 704.658 260.048 704.658 263.044C704.658 266.04 706.828 268.252 709.838 268.252ZM709.838 267.16C707.514 267.16 705.918 265.326 705.918 263.044C705.918 260.762 707.514 258.928 709.838 258.928C712.162 258.928 713.758 260.762 713.758 263.044C713.758 265.326 712.162 267.16 709.838 267.16ZM716.656 271.192H717.748V266.838H717.776C718.182 267.58 719.12 268.168 720.296 268.168C722.13 268.168 723.572 266.684 723.572 264.724C723.572 262.736 722.186 261.28 720.128 261.28C719.176 261.28 718.378 261.7 717.776 262.4H717.748V261.448H716.656V271.192ZM717.748 264.724C717.748 263.352 718.658 262.288 720.072 262.288C721.486 262.288 722.396 263.352 722.396 264.724C722.396 266.096 721.486 267.16 720.072 267.16C718.658 267.16 717.748 266.096 717.748 264.724ZM728.854 261.448H726.922V259.586H725.83V261.448H724.402V262.372H725.83V265.97C725.83 267.328 726.082 268.168 727.636 268.168C728.042 268.168 728.532 268.098 728.91 267.93L728.868 266.936C728.574 267.09 728.224 267.16 727.902 267.16C726.936 267.16 726.922 266.488 726.922 265.648V262.372H728.854V261.448ZM730.29 268H731.382V261.448H730.29V268ZM730.038 258.886C730.038 259.348 730.374 259.684 730.836 259.684C731.298 259.684 731.634 259.348 731.634 258.886C731.634 258.452 731.284 258.088 730.836 258.088C730.388 258.088 730.038 258.452 730.038 258.886ZM733.178 264.724C733.178 266.768 734.662 268.168 736.678 268.168C738.694 268.168 740.178 266.768 740.178 264.724C740.178 262.68 738.694 261.28 736.678 261.28C734.662 261.28 733.178 262.68 733.178 264.724ZM734.354 264.724C734.354 263.352 735.264 262.288 736.678 262.288C738.092 262.288 739.002 263.352 739.002 264.724C739.002 266.096 738.092 267.16 736.678 267.16C735.264 267.16 734.354 266.096 734.354 264.724ZM741.868 268H742.96V264.808C742.96 263.31 743.576 262.288 744.99 262.288C746.012 262.288 746.488 262.974 746.488 264.066V268H747.58V263.954C747.58 262.372 746.81 261.28 745.088 261.28C744.01 261.28 743.198 261.882 742.904 262.526H742.876C742.876 262.162 742.848 261.798 742.848 261.448H741.812C741.812 261.882 741.868 262.4 741.868 263.002V268Z" fill="#333333"/>
</g>
<defs>
<clipPath id="clip0_41_10923">
<rect width="200" height="216" fill="white" transform="translate(0 50)"/>
</clipPath>
<clipPath id="clip1_41_10923">
<rect width="200" height="252" fill="white" transform="translate(216 50)"/>
</clipPath>
<clipPath id="clip2_41_10923">
<rect width="200" height="198" fill="white" transform="translate(432 50)"/>
</clipPath>
<clipPath id="clip3_41_10923">
<rect width="200" height="231" fill="white" transform="translate(648 50)"/>
</clipPath>
</defs>
</svg>
