<svg width="51" height="76" viewBox="0 0 51 76" fill="none" xmlns="http://www.w3.org/2000/svg">
<g clip-path="url(#clip0_167_24882)">
<path d="M49.6198 60.68L48.6598 42.04L48.6498 41.99L46.7198 4.69002L42.6098 3.15002L38.8698 1.52002L32.0198 7.88002L32.6798 10.65H29.2498L29.5798 13.58L26.9698 11.46L24.5298 14.72L25.4998 17.98L22.4098 22.87L8.8798 28.57L4.1598 33.62L2.8498 35.42L1.5498 33.79L1.7098 41.12L4.8098 47.31L3.1798 49.43L8.5598 57.25L12.6298 65.57L13.6098 69.96L12.1398 71.27V73.55L19.6398 75.18L24.8498 71.1L34.7898 69.15L37.0698 65.57L40.9898 63.45L49.6198 60.68Z" stroke="#6C3078" stroke-width="1.5" stroke-linecap="round" stroke-linejoin="round"/>
</g>
<defs>
<clipPath id="clip0_167_24882">
<rect width="49.57" height="75.16" fill="white" transform="translate(0.799805 0.77002)"/>
</clipPath>
</defs>
</svg>
