<svg width="60" height="48" viewBox="0 0 60 48" fill="none" xmlns="http://www.w3.org/2000/svg">
<g clip-path="url(#clip0_167_24857)">
<path d="M58.2099 4.37002L52.9599 3.65002L49.4199 6.75002L46.3299 4.18002L39.7899 3.04002L37.6699 4.71002L2.49987 1.52002L1.11987 27.02L5.11987 27.55L10.0599 31.26L10.5999 33.56L15.2299 37.8L28.5099 38.98L29.3899 43.23L32.8499 45.92L36.2299 46.84L39.4399 39.42L46.4399 27.93L54.6899 16.43L58.4399 7.93002L58.2099 4.37002Z" stroke="#6C3078" stroke-width="1.5" stroke-linecap="round" stroke-linejoin="round"/>
<path d="M36.7498 37.9803C36.7498 38.3248 36.6475 38.6616 36.4558 38.948C36.2642 39.2343 35.9918 39.4573 35.6733 39.5887C35.3548 39.7201 35.0044 39.754 34.6666 39.6861C34.3288 39.6181 34.0188 39.4514 33.7759 39.207C33.5329 38.9627 33.368 38.6517 33.302 38.3135C33.236 37.9754 33.2719 37.6252 33.4051 37.3074C33.5383 36.9897 33.7629 36.7186 34.0504 36.5286C34.3378 36.3386 34.6752 36.2383 35.0198 36.2403C35.2478 36.2403 35.4736 36.2853 35.6841 36.3729C35.8947 36.4605 36.0858 36.5888 36.2466 36.7505C36.4074 36.9122 36.5346 37.1041 36.621 37.3151C36.7073 37.5262 36.7511 37.7522 36.7498 37.9803Z" stroke="#6C3078" stroke-width="1.5" stroke-linecap="round" stroke-linejoin="round"/>
</g>
<defs>
<clipPath id="clip0_167_24857">
<rect width="58.82" height="46.82" fill="white" transform="translate(0.369873 0.77002)"/>
</clipPath>
</defs>
</svg>
