<svg width="48" height="69" viewBox="0 0 48 69" fill="none" xmlns="http://www.w3.org/2000/svg">
<g clip-path="url(#clip0_167_24866)">
<path d="M18.05 1.52002L15.17 7.96002L14.66 17.29L9.07 25.59L1.78 21.36L1.63 21.25L0.75 54.47H9.98L9.43 64.65L33.3 66.82L34.74 65.68L39.17 66.46L41.27 68.19L43.67 66.1L47.23 66.58L47.22 66.29L46.54 55.77L41.96 49.16L41.45 45.77L38.57 44.92L36.53 36.79L28.91 30.34L28.74 25.43L27.38 23.05L26.7 16.44L23.99 14.07H22.12L20.6 6.94002L18.05 1.52002Z" stroke="#6C3078" stroke-width="1.5" stroke-linecap="round" stroke-linejoin="round"/>
</g>
<defs>
<clipPath id="clip0_167_24866">
<rect width="47.99" height="68.17" fill="white" transform="translate(0 0.77002)"/>
</clipPath>
</defs>
</svg>
