<svg width="313" height="77" viewBox="0 0 313 77" fill="none" xmlns="http://www.w3.org/2000/svg">
<path d="M0 5.09091C0 2.27928 2.27928 0 5.09091 0H156V77H5.09091C2.27928 77 0 74.7207 0 71.9091V5.09091Z" fill="#702F73"/>
<path d="M312.727 5.09091C312.727 2.27928 310.448 0 307.636 0H156.182V77H307.636C310.448 77 312.727 74.7207 312.727 71.9091V5.09091Z" fill="white"/>
<path d="M173.7 15.7643H183.25V18.0858H176.265V21.629H182.884V23.9505H176.265V27.8603H183.617V30.1818H173.7V15.7643ZM189.671 22.6472L184.866 15.7643H188.103L191.504 21.0996L194.864 15.7643H197.98L193.255 22.6472L198.489 30.1818H195.231L191.423 24.093L187.635 30.1818H184.54L189.671 22.6472ZM200.089 15.7643H204.935C205.628 15.7643 206.293 15.8322 206.931 15.9679C207.583 16.1037 208.153 16.3345 208.642 16.6603C209.13 16.9726 209.517 17.4002 209.802 17.9432C210.101 18.4727 210.25 19.1379 210.25 19.9389C210.25 20.8484 210.094 21.5815 209.782 22.1381C209.47 22.6947 209.049 23.1292 208.519 23.4414C207.99 23.7401 207.372 23.9437 206.666 24.0523C205.974 24.1609 205.248 24.2152 204.487 24.2152H202.655V30.1818H200.089V15.7643ZM204.202 22.0159C204.569 22.0159 204.949 22.0024 205.343 21.9752C205.736 21.9481 206.096 21.8666 206.422 21.7309C206.761 21.5951 207.033 21.3915 207.237 21.1199C207.454 20.8484 207.562 20.4683 207.562 19.9796C207.562 19.5316 207.467 19.1786 207.277 18.9207C207.087 18.6492 206.843 18.4455 206.544 18.3098C206.245 18.1604 205.913 18.0654 205.546 18.0247C205.18 17.9839 204.827 17.9636 204.487 17.9636H202.655V22.0159H204.202ZM212.538 15.7643H222.088V18.0858H215.104V21.629H221.722V23.9505H215.104V27.8603H222.455V30.1818H212.538V15.7643ZM224.987 15.7643H229.996C230.688 15.7643 231.354 15.8322 231.992 15.9679C232.643 16.0901 233.22 16.3073 233.723 16.6196C234.225 16.9318 234.625 17.3527 234.924 17.8821C235.223 18.4116 235.372 19.0836 235.372 19.8981C235.372 20.9435 235.08 21.8191 234.496 22.525C233.926 23.231 233.105 23.6586 232.032 23.8079L235.861 30.1818H232.766L229.426 24.0727H227.552V30.1818H224.987V15.7643ZM229.548 21.8734C229.915 21.8734 230.281 21.8598 230.648 21.8327C231.014 21.7919 231.347 21.7105 231.646 21.5883C231.958 21.4526 232.209 21.2557 232.399 20.9978C232.589 20.7262 232.684 20.3529 232.684 19.8778C232.684 19.4569 232.596 19.1175 232.419 18.8596C232.243 18.6016 232.012 18.4116 231.727 18.2894C231.442 18.1536 231.123 18.0654 230.77 18.0247C230.43 17.9839 230.098 17.9636 229.772 17.9636H227.552V21.8734H229.548ZM237.752 15.7643H240.318V30.1818H237.752V15.7643ZM243.481 15.7643H253.031V18.0858H246.047V21.629H252.665V23.9505H246.047V27.8603H253.398V30.1818H243.481V15.7643ZM255.93 15.7643H259.331L266.315 26.4756H266.356V15.7643H268.922V30.1818H265.664L258.536 19.1243H258.496V30.1818H255.93V15.7643ZM282.034 19.1447C281.504 18.5745 280.989 18.1944 280.486 18.0043C279.998 17.8142 279.502 17.7192 279 17.7192C278.253 17.7192 277.574 17.855 276.963 18.1265C276.366 18.3844 275.85 18.751 275.416 19.2261C274.981 19.6877 274.642 20.2307 274.398 20.8552C274.167 21.4797 274.051 22.1517 274.051 22.8712C274.051 23.645 274.167 24.3578 274.398 25.0094C274.642 25.661 274.981 26.2244 275.416 26.6996C275.85 27.1747 276.366 27.5481 276.963 27.8196C277.574 28.0911 278.253 28.2269 279 28.2269C279.583 28.2269 280.147 28.0911 280.69 27.8196C281.247 27.5345 281.762 27.0865 282.238 26.4756L284.355 27.9825C283.704 28.8785 282.91 29.5301 281.973 29.9374C281.036 30.3447 280.038 30.5483 278.979 30.5483C277.866 30.5483 276.841 30.3718 275.904 30.0189C274.981 29.6523 274.18 29.1432 273.502 28.4916C272.836 27.8264 272.314 27.0322 271.934 26.109C271.553 25.1859 271.363 24.1609 271.363 23.0341C271.363 21.8802 271.553 20.8349 271.934 19.8981C272.314 18.9478 272.836 18.1401 273.502 17.4749C274.18 16.8096 274.981 16.3005 275.904 15.9476C276.841 15.581 277.866 15.3978 278.979 15.3978C279.957 15.3978 280.86 15.5742 281.688 15.9272C282.529 16.2666 283.31 16.8504 284.03 17.6785L282.034 19.1447ZM286.078 15.7643H295.628V18.0858H288.643V21.629H295.262V23.9505H288.643V27.8603H295.995V30.1818H286.078V15.7643ZM183.78 54.781L186.895 58.1818H183.739L182.212 56.5323C181.628 57.2247 181.003 57.7338 180.338 58.0596C179.673 58.3854 178.879 58.5483 177.956 58.5483C177.318 58.5483 176.7 58.4533 176.103 58.2632C175.519 58.0867 175.003 57.822 174.555 57.469C174.107 57.1025 173.747 56.6613 173.476 56.1454C173.204 55.6159 173.068 55.005 173.068 54.3127C173.068 53.8239 173.15 53.3759 173.313 52.9687C173.476 52.5478 173.693 52.1677 173.964 51.8283C174.249 51.4753 174.582 51.1699 174.962 50.9119C175.342 50.6404 175.75 50.4232 176.184 50.2603C175.953 50.0024 175.736 49.7512 175.532 49.5069C175.342 49.2625 175.173 49.0113 175.023 48.7534C174.874 48.4955 174.752 48.2172 174.657 47.9185C174.575 47.6198 174.535 47.294 174.535 46.941C174.535 46.3573 174.643 45.8414 174.86 45.3934C175.091 44.9454 175.397 44.5789 175.777 44.2938C176.157 43.9951 176.598 43.7711 177.1 43.6218C177.603 43.4724 178.125 43.3978 178.668 43.3978C179.211 43.3978 179.727 43.4656 180.216 43.6014C180.705 43.7372 181.132 43.9476 181.499 44.2327C181.879 44.5042 182.178 44.8572 182.395 45.2916C182.626 45.726 182.741 46.2351 182.741 46.8189C182.741 47.2669 182.66 47.6809 182.497 48.061C182.334 48.4276 182.117 48.767 181.845 49.0792C181.574 49.3779 181.261 49.6562 180.908 49.9141C180.569 50.1585 180.223 50.3689 179.87 50.5454L182.191 53.0501L183.8 50.6065H186.671L183.78 54.781ZM178.709 45.597C178.234 45.597 177.827 45.7328 177.487 46.0043C177.148 46.2622 176.978 46.6084 176.978 47.0429C176.978 47.2329 177.019 47.423 177.1 47.613C177.182 47.7895 177.29 47.9728 177.426 48.1629C177.562 48.3393 177.705 48.509 177.854 48.6719C178.017 48.8349 178.18 48.991 178.343 49.1403C178.546 49.0317 178.763 48.9095 178.994 48.7738C179.225 48.6244 179.435 48.4615 179.625 48.285C179.829 48.095 179.992 47.8913 180.114 47.6741C180.236 47.4569 180.297 47.2126 180.297 46.941C180.297 46.5473 180.141 46.2283 179.829 45.9839C179.517 45.726 179.144 45.597 178.709 45.597ZM177.732 51.7061C177.487 51.8555 177.25 52.0116 177.019 52.1745C176.788 52.3238 176.578 52.4935 176.388 52.6836C176.198 52.8736 176.041 53.0909 175.919 53.3352C175.811 53.5796 175.756 53.8579 175.756 54.1701C175.756 54.4824 175.817 54.7742 175.94 55.0458C176.062 55.3173 176.225 55.5481 176.428 55.7381C176.646 55.9282 176.89 56.0775 177.161 56.1861C177.433 56.2947 177.725 56.349 178.037 56.349C178.594 56.349 179.082 56.1997 179.503 55.901C179.924 55.6024 180.318 55.2766 180.684 54.9236L177.732 51.7061ZM194.819 43.7643H200.5C201.451 43.7643 202.367 43.9136 203.25 44.2123C204.132 44.4974 204.913 44.9386 205.591 45.5359C206.27 46.1333 206.813 46.8867 207.22 47.7963C207.628 48.6923 207.831 49.7512 207.831 50.973C207.831 52.2084 207.594 53.2809 207.119 54.1905C206.657 55.0865 206.053 55.8332 205.306 56.4305C204.573 57.0142 203.752 57.4555 202.842 57.7541C201.946 58.0392 201.064 58.1818 200.195 58.1818H194.819V43.7643ZM199.299 55.8603C200.1 55.8603 200.853 55.7721 201.559 55.5956C202.279 55.4055 202.903 55.1204 203.433 54.7403C203.962 54.3466 204.376 53.8443 204.675 53.2334C204.987 52.6089 205.143 51.8555 205.143 50.973C205.143 50.1042 205.008 49.3575 204.736 48.733C204.465 48.1085 204.084 47.6062 203.596 47.2261C203.121 46.8324 202.55 46.5473 201.885 46.3709C201.234 46.1808 200.514 46.0858 199.727 46.0858H197.385V55.8603H199.299ZM210.271 43.7643H219.821V46.0858H212.837V49.629H219.455V51.9505H212.837V55.8603H220.188V58.1818H210.271V43.7643ZM229.786 46.8596C229.514 46.4659 229.148 46.1808 228.686 46.0043C228.238 45.8142 227.763 45.7192 227.261 45.7192C226.962 45.7192 226.67 45.7532 226.385 45.821C226.113 45.8889 225.862 45.9975 225.632 46.1469C225.414 46.2962 225.238 46.493 225.102 46.7374C224.966 46.9682 224.898 47.2465 224.898 47.5723C224.898 48.061 225.068 48.4344 225.408 48.6923C225.747 48.9502 226.168 49.1742 226.67 49.3643C227.172 49.5544 227.722 49.7376 228.32 49.9141C228.917 50.0906 229.467 50.335 229.969 50.6472C230.471 50.9595 230.892 51.3735 231.232 51.8894C231.571 52.4053 231.741 53.0909 231.741 53.9461C231.741 54.7199 231.598 55.3987 231.313 55.9825C231.028 56.5527 230.641 57.0278 230.152 57.4079C229.677 57.7881 229.121 58.0732 228.482 58.2632C227.844 58.4533 227.172 58.5483 226.466 58.5483C225.57 58.5483 224.708 58.399 223.88 58.1003C223.052 57.8016 222.339 57.2993 221.742 56.5934L223.677 54.7199C223.989 55.1951 224.396 55.5684 224.898 55.8399C225.414 56.0979 225.957 56.2269 226.528 56.2269C226.826 56.2269 227.125 56.1861 227.424 56.1047C227.722 56.0232 227.994 55.901 228.238 55.7381C228.482 55.5752 228.679 55.3716 228.829 55.1272C228.978 54.8693 229.053 54.5774 229.053 54.2516C229.053 53.7221 228.883 53.3149 228.544 53.0298C228.204 52.7447 227.783 52.5071 227.281 52.317C226.779 52.1134 226.229 51.9233 225.632 51.7469C225.034 51.5704 224.484 51.3328 223.982 51.0341C223.48 50.7219 223.059 50.3146 222.72 49.8123C222.38 49.2964 222.21 48.6109 222.21 47.7556C222.21 47.0089 222.36 46.3641 222.658 45.821C222.971 45.278 223.371 44.83 223.86 44.477C224.362 44.1105 224.932 43.839 225.57 43.6625C226.209 43.486 226.86 43.3978 227.525 43.3978C228.286 43.3978 229.019 43.5132 229.725 43.7439C230.444 43.9747 231.089 44.3549 231.659 44.8843L229.786 46.8596ZM234.352 43.7643H236.917V58.1818H234.352V43.7643ZM252.889 57.1229C251.111 58.0732 249.122 58.5483 246.923 58.5483C245.809 58.5483 244.784 58.3718 243.848 58.0189C242.924 57.6523 242.124 57.1432 241.445 56.4916C240.78 55.8264 240.257 55.0322 239.877 54.109C239.497 53.1859 239.307 52.1609 239.307 51.0341C239.307 49.8802 239.497 48.8349 239.877 47.8981C240.257 46.9478 240.78 46.1401 241.445 45.4749C242.124 44.8096 242.924 44.3005 243.848 43.9476C244.784 43.581 245.809 43.3978 246.923 43.3978C248.022 43.3978 249.054 43.5335 250.018 43.805C250.982 44.063 251.844 44.5313 252.604 45.2101L250.71 47.1243C250.249 46.6763 249.685 46.3301 249.02 46.0858C248.368 45.8414 247.676 45.7192 246.943 45.7192C246.196 45.7192 245.517 45.855 244.907 46.1265C244.309 46.3844 243.793 46.751 243.359 47.2261C242.924 47.6877 242.585 48.2307 242.341 48.8552C242.11 49.4797 241.995 50.1517 241.995 50.8712C241.995 51.645 242.11 52.3578 242.341 53.0094C242.585 53.661 242.924 54.2244 243.359 54.6996C243.793 55.1747 244.309 55.5481 244.907 55.8196C245.517 56.0911 246.196 56.2269 246.943 56.2269C247.595 56.2269 248.205 56.1658 248.776 56.0436C249.359 55.9214 249.875 55.7313 250.323 55.4734V52.0727H247.371V49.7512H252.889V57.1229ZM255.93 43.7643H259.331L266.315 54.4756H266.356V43.7643H268.922V58.1818H265.664L258.536 47.1243H258.496V58.1818H255.93V43.7643Z" fill="#702F73"/>
<path d="M26.3939 54.5935H28.5245C28.8808 54.5935 29.2245 54.6495 29.5554 54.7615C29.8863 54.8684 30.179 55.0338 30.4336 55.2578C30.6881 55.4818 30.8918 55.7644 31.0445 56.1055C31.1972 56.4415 31.2736 56.8385 31.2736 57.2967C31.2736 57.76 31.1845 58.1622 31.0063 58.5033C30.8332 58.8393 30.6067 59.1193 30.3267 59.3433C30.0518 59.5622 29.7438 59.7276 29.4027 59.8396C29.0667 59.9465 28.7358 60 28.4099 60H26.3939V54.5935ZM28.0739 59.1295C28.3743 59.1295 28.6568 59.0964 28.9216 59.0302C29.1914 58.9589 29.4256 58.852 29.6241 58.7095C29.8227 58.5618 29.9779 58.3735 30.0899 58.1444C30.207 57.9102 30.2656 57.6276 30.2656 57.2967C30.2656 56.9709 30.2147 56.6909 30.1128 56.4567C30.011 56.2225 29.8685 56.0342 29.6852 55.8916C29.507 55.744 29.2932 55.6371 29.0438 55.5709C28.7994 55.4996 28.5296 55.464 28.2343 55.464H27.3561V59.1295H28.0739ZM32.1654 54.5935H33.1276V60H32.1654V54.5935ZM39.117 59.6029C38.45 59.9593 37.7042 60.1375 36.8795 60.1375C36.462 60.1375 36.0777 60.0713 35.7264 59.9389C35.3802 59.8015 35.0799 59.6105 34.8253 59.3662C34.5759 59.1167 34.3799 58.8189 34.2373 58.4727C34.0948 58.1265 34.0235 57.7422 34.0235 57.3196C34.0235 56.8869 34.0948 56.4949 34.2373 56.1436C34.3799 55.7873 34.5759 55.4844 34.8253 55.2349C35.0799 54.9855 35.3802 54.7945 35.7264 54.6622C36.0777 54.5247 36.462 54.456 36.8795 54.456C37.2919 54.456 37.6788 54.5069 38.0402 54.6087C38.4017 54.7055 38.725 54.8811 39.01 55.1356L38.2999 55.8535C38.1268 55.6855 37.9155 55.5556 37.666 55.464C37.4217 55.3724 37.162 55.3265 36.8871 55.3265C36.6071 55.3265 36.3526 55.3775 36.1235 55.4793C35.8995 55.576 35.706 55.7135 35.5431 55.8916C35.3802 56.0647 35.253 56.2684 35.1613 56.5025C35.0748 56.7367 35.0315 56.9887 35.0315 57.2585C35.0315 57.5487 35.0748 57.816 35.1613 58.0604C35.253 58.3047 35.3802 58.516 35.5431 58.6942C35.706 58.8724 35.8995 59.0124 36.1235 59.1142C36.3526 59.216 36.6071 59.2669 36.8871 59.2669C37.1315 59.2669 37.3606 59.244 37.5744 59.1982C37.7933 59.1524 37.9868 59.0811 38.1548 58.9844V57.7091H37.0475V56.8385H39.117V59.6029ZM40.2343 54.5935H41.1965V60H40.2343V54.5935ZM43.4898 55.464H41.8328V54.5935H46.1091V55.464H44.452V60H43.4898V55.464ZM47.8152 54.5935H48.6476L50.9767 60H49.8771L49.3731 58.7629H47.0287L46.54 60H45.4632L47.8152 54.5935ZM49.0371 57.9382L48.2047 55.7389L47.3571 57.9382H49.0371ZM51.5775 54.5935H52.5397V59.1295H54.8383V60H51.5775V54.5935ZM57.797 54.5935H59.9275C60.2839 54.5935 60.6275 54.6495 60.9584 54.7615C61.2894 54.8684 61.5821 55.0338 61.8366 55.2578C62.0912 55.4818 62.2948 55.7644 62.4475 56.1055C62.6003 56.4415 62.6766 56.8385 62.6766 57.2967C62.6766 57.76 62.5875 58.1622 62.4094 58.5033C62.2363 58.8393 62.0097 59.1193 61.7297 59.3433C61.4548 59.5622 61.1468 59.7276 60.8057 59.8396C60.4697 59.9465 60.1388 60 59.813 60H57.797V54.5935ZM59.477 59.1295C59.7774 59.1295 60.0599 59.0964 60.3246 59.0302C60.5944 58.9589 60.8286 58.852 61.0272 58.7095C61.2257 58.5618 61.381 58.3735 61.493 58.1444C61.6101 57.9102 61.6686 57.6276 61.6686 57.2967C61.6686 56.9709 61.6177 56.6909 61.5159 56.4567C61.4141 56.2225 61.2715 56.0342 61.0883 55.8916C60.9101 55.744 60.6963 55.6371 60.4468 55.5709C60.2024 55.4996 59.9326 55.464 59.6374 55.464H58.7592V59.1295H59.477ZM63.5914 54.5935H67.1728V55.464H64.5536V56.7927H67.0354V57.6633H64.5536V59.1295H67.3103V60H63.5914V54.5935ZM68.2597 54.5935H69.2219V59.1295H71.5204V60H68.2597V54.5935ZM72.1967 54.5935H73.1588V60H72.1967V54.5935ZM73.7187 54.5935H74.826L76.2998 58.6789L77.8195 54.5935H78.858L76.674 60H75.8417L73.7187 54.5935ZM79.4383 54.5935H83.0198V55.464H80.4005V56.7927H82.8823V57.6633H80.4005V59.1295H83.1572V60H79.4383V54.5935ZM84.1066 54.5935H85.9852C86.2448 54.5935 86.4943 54.6189 86.7336 54.6698C86.9779 54.7156 87.1943 54.7971 87.3826 54.9142C87.571 55.0313 87.7212 55.1891 87.8332 55.3876C87.9452 55.5862 88.0012 55.8382 88.0012 56.1436C88.0012 56.5356 87.8917 56.864 87.6728 57.1287C87.459 57.3935 87.151 57.5538 86.7488 57.6098L88.1845 60H87.0237L85.7714 57.7091H85.0688V60H84.1066V54.5935ZM85.8172 56.8844C85.9546 56.8844 86.0921 56.8793 86.2296 56.8691C86.367 56.8538 86.4917 56.8233 86.6037 56.7775C86.7208 56.7265 86.815 56.6527 86.8863 56.556C86.9576 56.4542 86.9932 56.3142 86.9932 56.136C86.9932 55.9782 86.9601 55.8509 86.8939 55.7542C86.8277 55.6575 86.7412 55.5862 86.6343 55.5404C86.5274 55.4895 86.4077 55.4564 86.2754 55.4411C86.1481 55.4258 86.0234 55.4182 85.9012 55.4182H85.0688V56.8844H85.8172ZM89.9544 57.6862L87.9231 54.5935H89.1296L90.4584 56.7469L91.8024 54.5935H92.9478L90.9166 57.6862V60H89.9544V57.6862ZM99.4142 55.8611C99.2156 55.6473 99.0222 55.5047 98.8338 55.4335C98.6505 55.3622 98.4647 55.3265 98.2763 55.3265C97.9963 55.3265 97.7418 55.3775 97.5127 55.4793C97.2887 55.576 97.0952 55.7135 96.9323 55.8916C96.7694 56.0647 96.6422 56.2684 96.5505 56.5025C96.464 56.7367 96.4207 56.9887 96.4207 57.2585C96.4207 57.5487 96.464 57.816 96.5505 58.0604C96.6422 58.3047 96.7694 58.516 96.9323 58.6942C97.0952 58.8724 97.2887 59.0124 97.5127 59.1142C97.7418 59.216 97.9963 59.2669 98.2763 59.2669C98.4952 59.2669 98.7065 59.216 98.9102 59.1142C99.1189 59.0073 99.3123 58.8393 99.4905 58.6102L100.285 59.1753C100.04 59.5113 99.7425 59.7556 99.3912 59.9084C99.04 60.0611 98.6658 60.1375 98.2687 60.1375C97.8512 60.1375 97.4669 60.0713 97.1156 59.9389C96.7694 59.8015 96.4691 59.6105 96.2145 59.3662C95.9651 59.1167 95.7691 58.8189 95.6265 58.4727C95.484 58.1265 95.4127 57.7422 95.4127 57.3196C95.4127 56.8869 95.484 56.4949 95.6265 56.1436C95.7691 55.7873 95.9651 55.4844 96.2145 55.2349C96.4691 54.9855 96.7694 54.7945 97.1156 54.6622C97.4669 54.5247 97.8512 54.456 98.2687 54.456C98.6352 54.456 98.9738 54.5222 99.2843 54.6545C99.6 54.7818 99.8927 55.0007 100.163 55.3113L99.4142 55.8611ZM100.931 54.5935H104.512V55.464H101.893V56.7927H104.375V57.6633H101.893V59.1295H104.649V60H100.931V54.5935ZM105.599 54.5935H106.874L109.493 58.6102H109.509V54.5935H110.471V60H109.249L106.576 55.8535H106.561V60H105.599V54.5935ZM112.784 55.464H111.127V54.5935H115.403V55.464H113.746V60H112.784V55.464ZM116.062 54.5935H117.94C118.2 54.5935 118.449 54.6189 118.688 54.6698C118.933 54.7156 119.149 54.7971 119.338 54.9142C119.526 55.0313 119.676 55.1891 119.788 55.3876C119.9 55.5862 119.956 55.8382 119.956 56.1436C119.956 56.5356 119.847 56.864 119.628 57.1287C119.414 57.3935 119.106 57.5538 118.704 57.6098L120.139 60H118.979L117.726 57.7091H117.024V60H116.062V54.5935ZM117.772 56.8844C117.91 56.8844 118.047 56.8793 118.184 56.8691C118.322 56.8538 118.447 56.8233 118.559 56.7775C118.676 56.7265 118.77 56.6527 118.841 56.556C118.912 56.4542 118.948 56.3142 118.948 56.136C118.948 55.9782 118.915 55.8509 118.849 55.7542C118.783 55.6575 118.696 55.5862 118.589 55.5404C118.482 55.4895 118.363 55.4564 118.23 55.4411C118.103 55.4258 117.978 55.4182 117.856 55.4182H117.024V56.8844H117.772ZM120.872 54.5935H124.453V55.464H121.834V56.7927H124.316V57.6633H121.834V59.1295H124.59V60H120.872V54.5935Z" fill="white"/>
<path fill-rule="evenodd" clip-rule="evenodd" d="M54.0442 21.9751C52.8964 22.1228 51.7454 22.3054 50.5899 22.5238C43.3835 23.8746 37.5566 26.344 33.9589 29.2038C32.1501 30.4997 30.817 32.3085 30.1515 34.3748C30.4605 32.3275 31.8842 30.2802 34.2458 28.4018C38.0201 25.3837 44.1781 22.8088 51.7487 21.3841L52.6978 21.2153L52.3115 21.0148L51.6052 21.1414C43.8801 22.5871 37.667 25.2148 33.8154 28.2857C31.8842 29.6682 30.4616 31.6004 29.7542 33.8038C30.0853 31.6204 31.6193 29.436 34.1686 27.4731C37.8546 24.5289 43.6594 21.9751 50.8217 20.3921L50.3471 20.2127C43.2069 21.8273 37.4242 24.4339 33.7161 27.3571C31.6381 28.7996 30.0931 30.8353 29.3018 33.1717C29.6549 30.8395 31.2993 28.4968 33.992 26.3545C38.3368 23.1866 43.3074 20.8934 48.6035 19.6112L48.0186 19.4529C42.7633 20.7742 37.8369 23.0842 33.5285 26.249C31.3114 27.8319 29.6803 30.0502 28.8714 32.5808C29.2466 30.0797 31.0123 27.5892 33.8817 25.2887C37.5378 22.547 41.6697 20.4386 46.0873 19.0625L45.3479 18.9569C41.0119 20.3436 36.9585 22.431 33.363 25.1304C30.9969 26.8199 29.2532 29.1859 28.3858 31.8843C28.7941 29.2144 30.6702 26.5445 33.7492 24.0857C36.6252 21.9033 39.8134 20.1262 43.218 18.8092H42.2689C39.0056 20.1273 35.9498 21.8706 33.1864 23.9907C30.3391 26.2701 28.4851 28.7395 27.8671 31.2194C28.2975 28.3701 30.306 25.5103 33.6058 22.8826C35.5591 21.3535 37.6747 20.0238 39.9183 18.9147L39.0795 19.0097L38.6823 19.0625C36.6704 20.0734 34.7645 21.2638 32.9878 22.6188C29.9529 25.0882 27.9775 27.7264 27.3153 30.3858C27.7788 27.336 29.9308 24.2756 33.4513 21.458C34.2569 20.8143 35.1949 20.1705 36.1109 19.5479C35.5028 19.7146 34.9058 19.9162 34.3231 20.1494C33.7691 20.4607 33.2614 20.8406 32.8112 21.2786C24.0708 27.8319 24.1591 37.2135 33.4292 40.7593L33.2305 40.5588C32.9955 40.3192 32.7781 40.0839 32.5794 39.8517L32.3697 39.5984C32.1601 39.3346 31.9725 39.0708 31.8069 38.8165L31.6193 38.522C31.4571 38.2456 31.3136 37.9606 31.1889 37.6673L31.0454 37.319C30.9296 36.9993 30.8413 36.6711 30.7806 36.3376C30.7916 36.1941 30.7684 36.0495 30.7144 35.9144C30.6846 35.5926 30.6846 35.2675 30.7144 34.9446C30.6868 34.7726 30.6868 34.5985 30.7144 34.4275C30.7695 34.094 30.8545 33.7658 30.9682 33.4461C31.0333 33.2488 31.1117 33.0556 31.1999 32.8657C31.3776 32.5037 31.5774 32.1513 31.7959 31.8104C32.479 30.8332 33.3254 29.971 34.301 29.2566C39.1612 25.9039 44.7597 23.6583 50.6672 22.6927C51.8811 22.4605 53.0951 22.2811 54.309 22.1228L53.989 21.9223" fill="white"/>
<path fill-rule="evenodd" clip-rule="evenodd" d="M32.6679 31.2301C38.1858 29.7422 50.5791 29.5733 52.5986 36.1784C49.4402 34.5321 45.7189 34.1744 42.2801 35.1875C38.8369 36.1858 35.7712 38.118 33.4514 40.7489L33.2307 40.5589C35.5659 37.869 38.6857 35.904 42.1918 34.9131C44.4111 34.2968 46.7496 34.1818 49.023 34.5754C46.4318 34.0024 43.728 34.0784 41.1765 34.797C37.89 35.7183 34.9225 37.4637 32.5796 39.8519L32.3699 39.5986C34.747 37.1873 37.7521 35.4239 41.0772 34.491C43.4676 33.8198 45.9882 33.6932 48.4381 34.1216C45.6681 33.5085 42.78 33.5887 40.0509 34.3538C37.0006 35.2096 34.2041 36.7388 31.8843 38.8166L31.6967 38.5222C34.0529 36.4327 36.888 34.8973 39.9736 34.0372C42.5108 33.3302 45.1858 33.1972 47.787 33.6468C44.8228 32.9946 41.7338 33.0811 38.8149 33.9C36.0559 34.663 33.4856 35.9483 31.2553 37.678L31.1118 37.3297C33.3576 35.6075 35.9389 34.3274 38.7045 33.5623C41.4028 32.8236 44.2423 32.6907 47.0034 33.1719C43.8328 32.4691 40.5254 32.5598 37.4023 33.4357C35.0461 34.0552 32.8091 35.0345 30.7808 36.3377C30.7918 36.1942 30.7686 36.0497 30.7145 35.9146C32.744 34.6039 34.9788 33.6098 37.336 32.9703C40.2396 32.1641 43.2998 32.0121 46.2751 32.5271C42.8849 31.7789 39.3512 31.877 36.0117 32.8131C34.1787 33.3228 32.413 34.0309 30.7476 34.9237C30.7311 34.7506 30.7421 34.5765 30.7808 34.4066C32.3953 33.5634 34.1014 32.8912 35.8683 32.4015C38.9727 31.5372 42.2437 31.3747 45.4253 31.9266C41.7978 31.1246 38.017 31.2301 34.4447 32.2327C33.2749 32.5535 32.1315 32.9566 31.0235 33.4357C31.0898 33.2373 31.167 33.0442 31.2553 32.8553C32.254 32.4406 33.2782 32.0881 34.3233 31.8C37.6462 30.8745 41.1489 30.7014 44.5535 31.2935C40.6744 30.4366 36.6309 30.5484 32.8113 31.6206L31.774 31.9266L31.8843 31.8739C31.998 31.6976 32.1238 31.5277 32.2596 31.3673L32.6679 31.2301Z" fill="white"/>
<path fill-rule="evenodd" clip-rule="evenodd" d="M59.1205 16.4875C54.7062 11.992 51.3955 11.1477 50.2919 11C56.1607 14.3062 58.3547 21.3915 55.3132 27.2198C54.3233 29.0634 53.0431 30.7508 51.5168 32.2219L51.8148 32.5702C53.4437 31.0263 54.8077 29.2449 55.8539 27.2937C57.2356 24.8264 57.698 21.9835 57.1672 19.2313C58.0214 22.3465 57.6031 25.6559 55.9974 28.4862C55.0494 30.257 53.8465 31.8906 52.4218 33.3405L52.7087 33.7626C54.2582 32.2272 55.5637 30.4807 56.5823 28.5812C58.0523 25.9482 58.5467 22.9164 57.9839 19.9805C58.8899 23.31 58.4407 26.8441 56.7258 29.8686C55.7899 31.6193 54.6179 33.2445 53.2384 34.7018C53.3267 34.8707 53.4073 35.0427 53.4812 35.2189C55.0207 33.6413 56.3208 31.8663 57.3438 29.9425C58.9241 27.1206 59.4527 23.8672 58.8446 20.7192C59.8081 24.2735 59.3269 28.044 57.4983 31.2722C56.5503 33.0999 55.3595 34.8021 53.9558 36.3376C53.9558 36.5592 54.0661 36.7808 54.1103 37.0129C55.748 35.3382 57.1341 33.4524 58.2266 31.4093C59.892 28.3891 60.436 24.9182 59.7717 21.5635C60.83 25.3773 60.329 29.4349 58.3701 32.9079C57.2533 34.9994 55.8418 36.9338 54.1765 38.6592C54.161 38.9853 54.1246 39.3082 54.0661 39.6301C56.0735 37.6873 57.7587 35.4638 59.0654 33.0345C60.8741 29.8064 61.4811 26.0843 60.787 22.4816C61.8983 26.5529 61.3498 30.8754 59.253 34.5752C57.6572 37.5163 55.5493 40.1756 53.0177 42.4371C53.0177 42.5216 53.2936 42.5532 53.8564 42.511C56.3461 40.2506 58.4242 37.6071 60.0034 34.6913C61.9369 31.2394 62.5869 27.262 61.8464 23.4102C63.0239 27.7665 62.428 32.3865 60.18 36.3376C59.0885 38.4028 57.74 40.3339 56.1629 42.0889C56.5713 41.9728 57.0127 41.8356 57.4541 41.6773C58.8182 40.0796 59.9979 38.3458 60.9746 36.5064C63.0405 32.815 63.7335 28.5622 62.9389 24.4444C64.2114 29.1056 63.5834 34.055 61.1842 38.2898C60.7792 39.0359 60.3455 39.7915 59.882 40.5587C60.4702 40.2126 61.0275 39.8211 61.5484 39.3873C61.725 39.0813 61.9016 38.7647 62.0671 38.4481C66.029 30.8606 65.3779 22.9459 59.1205 16.5192" fill="white"/>
<path d="M71.2985 37H74.9602C75.2275 37 75.5215 37 75.7887 37C78.8891 37 81.4015 36.9198 83.6198 35.2093C85.8115 33.5255 86.9607 30.8795 86.9607 27.4584C86.9607 24.0373 85.8115 21.3645 83.6198 19.6807C81.2945 17.89 78.5416 17.89 74.9602 17.89H71.2985V37ZM73.5971 34.8618V20.0015H75.0404C78.3278 20.0015 80.5996 20.0549 82.1765 21.3913C83.7535 22.7009 84.582 24.7322 84.582 27.4316C84.582 30.1311 83.7267 32.2158 82.1765 33.4987C80.5729 34.8351 78.3011 34.8618 75.0404 34.8618H73.5971ZM90.6654 37H94.327C94.5943 37 94.8883 37 95.1556 37C98.2559 37 100.768 36.9198 102.987 35.2093C105.178 33.5255 106.328 30.8795 106.328 27.4584C106.328 24.0373 105.178 21.3645 102.987 19.6807C100.661 17.89 97.9085 17.89 94.327 17.89H90.6654V37ZM92.9639 34.8618V20.0015H94.4072C97.6947 20.0015 99.9665 20.0549 101.543 21.3913C103.12 22.7009 103.949 24.7322 103.949 27.4316C103.949 30.1311 103.094 32.2158 101.543 33.4987C99.9397 34.8351 97.6679 34.8618 94.4072 34.8618H92.9639ZM125.534 22.4604V19.4936C123.556 18.1305 121.525 17.4356 119.253 17.4356C116.447 17.4356 114.095 18.3711 112.144 20.242C110.139 22.1931 109.15 24.5718 109.15 27.5385C109.15 30.9329 110.674 33.8195 113.453 35.7438C115.11 36.8931 117.061 37.5078 119.093 37.5078C121.418 37.5078 123.636 36.7862 125.534 35.4231V32.4029C123.797 34.4342 121.685 35.4231 119.28 35.4231C116.687 35.4231 114.362 34.1936 112.839 32.0287C111.957 30.7725 111.529 29.2758 111.529 27.5118C111.529 25.2667 112.251 23.3958 113.721 21.8724C115.137 20.4024 117.168 19.5471 119.173 19.5471C121.659 19.5471 123.69 20.4558 125.534 22.4604Z" fill="white"/>
</svg>
