<svg width="921" height="371" viewBox="0 0 921 371" fill="none" xmlns="http://www.w3.org/2000/svg">
<g filter="url(#filter0_d_112_26554)">
<g clip-path="url(#clip0_112_26554)">
<rect x="10" y="10" width="901" height="351" rx="2" fill="white"/>
<mask id="mask0_112_26554" style="mask-type:alpha" maskUnits="userSpaceOnUse" x="10" y="10" width="901" height="351">
<rect x="10" y="10" width="901" height="351" rx="2" fill="white"/>
</mask>
<g mask="url(#mask0_112_26554)">
</g>
<g clip-path="url(#clip1_112_26554)">
<g clip-path="url(#clip2_112_26554)">
<rect x="10" y="10" width="901" height="47" fill="#C7C7C7"/>
<path fill-rule="evenodd" clip-rule="evenodd" d="M95 21C95 19.8954 95.8954 19 97 19H870C871.105 19 872 19.8954 872 21V47C872 48.1046 871.105 49 870 49H97C95.8954 49 95 48.1046 95 47V21Z" fill="#F8F9FB"/>
</g>
<g clip-path="url(#clip3_112_26554)">
<circle cx="27.5" cy="32.5" r="7.5" fill="#FF6057"/>
<circle cx="49.5" cy="32.5" r="7.5" fill="#FFC12E"/>
<circle cx="73.5" cy="32.5" r="7.5" fill="#28CA40"/>
</g>
</g>
</g>
</g>
<rect width="264" height="94" transform="translate(114 155)" fill="#B056BC" fill-opacity="0.2"/>
<path d="M226 198.008C225.659 197.549 225.238 197.208 224.736 196.984C224.235 196.749 223.712 196.632 223.168 196.632C222.539 196.632 221.958 196.76 221.424 197.016C220.902 197.272 220.448 197.619 220.064 198.056C219.68 198.483 219.382 198.984 219.168 199.56C218.955 200.125 218.848 200.717 218.848 201.336C218.848 201.997 218.955 202.616 219.168 203.192C219.382 203.757 219.675 204.253 220.048 204.68C220.432 205.096 220.886 205.427 221.408 205.672C221.942 205.917 222.528 206.04 223.168 206.04C223.862 206.04 224.48 205.907 225.024 205.64C225.568 205.363 226.043 204.968 226.448 204.456L227.456 205.304C226.944 205.987 226.326 206.488 225.6 206.808C224.886 207.128 224.075 207.288 223.168 207.288C222.358 207.288 221.6 207.139 220.896 206.84C220.192 206.541 219.579 206.131 219.056 205.608C218.544 205.075 218.139 204.445 217.84 203.72C217.552 202.995 217.408 202.2 217.408 201.336C217.408 200.504 217.547 199.725 217.824 199C218.112 198.275 218.512 197.645 219.024 197.112C219.536 196.579 220.144 196.157 220.848 195.848C221.552 195.539 222.326 195.384 223.168 195.384C223.936 195.384 224.672 195.523 225.376 195.8C226.091 196.077 226.688 196.531 227.168 197.16L226 198.008ZM228.674 203.256C228.674 202.669 228.775 202.136 228.978 201.656C229.181 201.176 229.458 200.765 229.81 200.424C230.162 200.072 230.583 199.8 231.074 199.608C231.565 199.416 232.098 199.32 232.674 199.32C233.25 199.32 233.783 199.416 234.274 199.608C234.765 199.8 235.186 200.072 235.538 200.424C235.89 200.765 236.167 201.176 236.37 201.656C236.573 202.136 236.674 202.669 236.674 203.256C236.674 203.843 236.573 204.376 236.37 204.856C236.167 205.336 235.89 205.752 235.538 206.104C235.186 206.445 234.765 206.712 234.274 206.904C233.783 207.096 233.25 207.192 232.674 207.192C232.098 207.192 231.565 207.096 231.074 206.904C230.583 206.712 230.162 206.445 229.81 206.104C229.458 205.752 229.181 205.336 228.978 204.856C228.775 204.376 228.674 203.843 228.674 203.256ZM230.018 203.256C230.018 203.651 230.077 204.019 230.194 204.36C230.322 204.691 230.503 204.984 230.738 205.24C230.973 205.485 231.25 205.683 231.57 205.832C231.901 205.971 232.269 206.04 232.674 206.04C233.079 206.04 233.442 205.971 233.762 205.832C234.093 205.683 234.375 205.485 234.61 205.24C234.845 204.984 235.021 204.691 235.138 204.36C235.266 204.019 235.33 203.651 235.33 203.256C235.33 202.861 235.266 202.499 235.138 202.168C235.021 201.827 234.845 201.533 234.61 201.288C234.375 201.032 234.093 200.835 233.762 200.696C233.442 200.547 233.079 200.472 232.674 200.472C232.269 200.472 231.901 200.547 231.57 200.696C231.25 200.835 230.973 201.032 230.738 201.288C230.503 201.533 230.322 201.827 230.194 202.168C230.077 202.499 230.018 202.861 230.018 203.256ZM238.606 201.288C238.606 200.947 238.595 200.627 238.574 200.328C238.553 200.029 238.542 199.757 238.542 199.512H239.726C239.726 199.715 239.731 199.917 239.742 200.12C239.753 200.323 239.758 200.531 239.758 200.744H239.79C239.875 200.563 239.993 200.387 240.142 200.216C240.302 200.045 240.489 199.896 240.702 199.768C240.915 199.629 241.155 199.523 241.422 199.448C241.689 199.363 241.977 199.32 242.286 199.32C242.777 199.32 243.198 199.395 243.55 199.544C243.913 199.693 244.211 199.901 244.446 200.168C244.681 200.435 244.851 200.76 244.958 201.144C245.075 201.517 245.134 201.928 245.134 202.376V207H243.886V202.504C243.886 201.875 243.747 201.379 243.47 201.016C243.193 200.653 242.761 200.472 242.174 200.472C241.769 200.472 241.417 200.541 241.118 200.68C240.83 200.819 240.59 201.016 240.398 201.272C240.217 201.528 240.078 201.832 239.982 202.184C239.897 202.536 239.854 202.925 239.854 203.352V207H238.606V201.288ZM251.593 200.568H249.385V204.312C249.385 204.557 249.39 204.787 249.401 205C249.411 205.203 249.454 205.384 249.529 205.544C249.603 205.693 249.715 205.816 249.865 205.912C250.014 205.997 250.227 206.04 250.505 206.04C250.686 206.04 250.873 206.019 251.065 205.976C251.257 205.933 251.438 205.869 251.609 205.784L251.657 206.92C251.443 207.016 251.203 207.085 250.937 207.128C250.681 207.171 250.435 207.192 250.201 207.192C249.753 207.192 249.395 207.133 249.129 207.016C248.862 206.899 248.654 206.733 248.505 206.52C248.355 206.307 248.254 206.045 248.201 205.736C248.158 205.416 248.137 205.064 248.137 204.68V200.568H246.505V199.512H248.137V197.384H249.385V199.512H251.593V200.568ZM259.81 205.64C259.362 206.216 258.871 206.621 258.338 206.856C257.804 207.08 257.186 207.192 256.482 207.192C255.895 207.192 255.367 207.091 254.898 206.888C254.428 206.675 254.028 206.392 253.698 206.04C253.378 205.688 253.127 205.272 252.946 204.792C252.775 204.312 252.69 203.8 252.69 203.256C252.69 202.68 252.786 202.152 252.978 201.672C253.17 201.181 253.436 200.765 253.778 200.424C254.119 200.072 254.524 199.8 254.994 199.608C255.463 199.416 255.975 199.32 256.53 199.32C257.052 199.32 257.532 199.411 257.97 199.592C258.407 199.763 258.78 200.019 259.09 200.36C259.41 200.691 259.655 201.101 259.826 201.592C259.996 202.072 260.082 202.621 260.082 203.24V203.64H254.034C254.055 203.96 254.13 204.269 254.258 204.568C254.396 204.856 254.572 205.112 254.786 205.336C254.999 205.549 255.25 205.72 255.538 205.848C255.826 205.976 256.14 206.04 256.482 206.04C257.026 206.04 257.484 205.944 257.858 205.752C258.231 205.56 258.567 205.277 258.866 204.904L259.81 205.64ZM258.738 202.584C258.716 201.944 258.508 201.432 258.114 201.048C257.719 200.664 257.175 200.472 256.482 200.472C255.788 200.472 255.228 200.664 254.802 201.048C254.375 201.432 254.119 201.944 254.034 202.584H258.738ZM262.012 201.288C262.012 200.947 262.001 200.627 261.98 200.328C261.959 200.029 261.948 199.757 261.948 199.512H263.132C263.132 199.715 263.137 199.917 263.148 200.12C263.159 200.323 263.164 200.531 263.164 200.744H263.196C263.281 200.563 263.399 200.387 263.548 200.216C263.708 200.045 263.895 199.896 264.108 199.768C264.321 199.629 264.561 199.523 264.828 199.448C265.095 199.363 265.383 199.32 265.692 199.32C266.183 199.32 266.604 199.395 266.956 199.544C267.319 199.693 267.617 199.901 267.852 200.168C268.087 200.435 268.257 200.76 268.364 201.144C268.481 201.517 268.54 201.928 268.54 202.376V207H267.292V202.504C267.292 201.875 267.153 201.379 266.876 201.016C266.599 200.653 266.167 200.472 265.58 200.472C265.175 200.472 264.823 200.541 264.524 200.68C264.236 200.819 263.996 201.016 263.804 201.272C263.623 201.528 263.484 201.832 263.388 202.184C263.303 202.536 263.26 202.925 263.26 203.352V207H262.012V201.288ZM274.999 200.568H272.791V204.312C272.791 204.557 272.796 204.787 272.807 205C272.817 205.203 272.86 205.384 272.935 205.544C273.009 205.693 273.121 205.816 273.271 205.912C273.42 205.997 273.633 206.04 273.911 206.04C274.092 206.04 274.279 206.019 274.471 205.976C274.663 205.933 274.844 205.869 275.015 205.784L275.063 206.92C274.849 207.016 274.609 207.085 274.343 207.128C274.087 207.171 273.841 207.192 273.607 207.192C273.159 207.192 272.801 207.133 272.535 207.016C272.268 206.899 272.06 206.733 271.911 206.52C271.761 206.307 271.66 206.045 271.607 205.736C271.564 205.416 271.543 205.064 271.543 204.68V200.568H269.911V199.512H271.543V197.384H272.791V199.512H274.999V200.568Z" fill="#333333"/>
<rect width="408" height="94" transform="translate(402 155)" fill="#B056BC" fill-opacity="0.2"/>
<path d="M586 198.008C585.659 197.549 585.238 197.208 584.736 196.984C584.235 196.749 583.712 196.632 583.168 196.632C582.539 196.632 581.958 196.76 581.424 197.016C580.902 197.272 580.448 197.619 580.064 198.056C579.68 198.483 579.382 198.984 579.168 199.56C578.955 200.125 578.848 200.717 578.848 201.336C578.848 201.997 578.955 202.616 579.168 203.192C579.382 203.757 579.675 204.253 580.048 204.68C580.432 205.096 580.886 205.427 581.408 205.672C581.942 205.917 582.528 206.04 583.168 206.04C583.862 206.04 584.48 205.907 585.024 205.64C585.568 205.363 586.043 204.968 586.448 204.456L587.456 205.304C586.944 205.987 586.326 206.488 585.6 206.808C584.886 207.128 584.075 207.288 583.168 207.288C582.358 207.288 581.6 207.139 580.896 206.84C580.192 206.541 579.579 206.131 579.056 205.608C578.544 205.075 578.139 204.445 577.84 203.72C577.552 202.995 577.408 202.2 577.408 201.336C577.408 200.504 577.547 199.725 577.824 199C578.112 198.275 578.512 197.645 579.024 197.112C579.536 196.579 580.144 196.157 580.848 195.848C581.552 195.539 582.326 195.384 583.168 195.384C583.936 195.384 584.672 195.523 585.376 195.8C586.091 196.077 586.688 196.531 587.168 197.16L586 198.008ZM588.674 203.256C588.674 202.669 588.775 202.136 588.978 201.656C589.181 201.176 589.458 200.765 589.81 200.424C590.162 200.072 590.583 199.8 591.074 199.608C591.565 199.416 592.098 199.32 592.674 199.32C593.25 199.32 593.783 199.416 594.274 199.608C594.765 199.8 595.186 200.072 595.538 200.424C595.89 200.765 596.167 201.176 596.37 201.656C596.573 202.136 596.674 202.669 596.674 203.256C596.674 203.843 596.573 204.376 596.37 204.856C596.167 205.336 595.89 205.752 595.538 206.104C595.186 206.445 594.765 206.712 594.274 206.904C593.783 207.096 593.25 207.192 592.674 207.192C592.098 207.192 591.565 207.096 591.074 206.904C590.583 206.712 590.162 206.445 589.81 206.104C589.458 205.752 589.181 205.336 588.978 204.856C588.775 204.376 588.674 203.843 588.674 203.256ZM590.018 203.256C590.018 203.651 590.077 204.019 590.194 204.36C590.322 204.691 590.503 204.984 590.738 205.24C590.973 205.485 591.25 205.683 591.57 205.832C591.901 205.971 592.269 206.04 592.674 206.04C593.079 206.04 593.442 205.971 593.762 205.832C594.093 205.683 594.375 205.485 594.61 205.24C594.845 204.984 595.021 204.691 595.138 204.36C595.266 204.019 595.33 203.651 595.33 203.256C595.33 202.861 595.266 202.499 595.138 202.168C595.021 201.827 594.845 201.533 594.61 201.288C594.375 201.032 594.093 200.835 593.762 200.696C593.442 200.547 593.079 200.472 592.674 200.472C592.269 200.472 591.901 200.547 591.57 200.696C591.25 200.835 590.973 201.032 590.738 201.288C590.503 201.533 590.322 201.827 590.194 202.168C590.077 202.499 590.018 202.861 590.018 203.256ZM598.606 201.288C598.606 200.947 598.595 200.627 598.574 200.328C598.553 200.029 598.542 199.757 598.542 199.512H599.726C599.726 199.715 599.731 199.917 599.742 200.12C599.753 200.323 599.758 200.531 599.758 200.744H599.79C599.875 200.563 599.993 200.387 600.142 200.216C600.302 200.045 600.489 199.896 600.702 199.768C600.915 199.629 601.155 199.523 601.422 199.448C601.689 199.363 601.977 199.32 602.286 199.32C602.777 199.32 603.198 199.395 603.55 199.544C603.913 199.693 604.211 199.901 604.446 200.168C604.681 200.435 604.851 200.76 604.958 201.144C605.075 201.517 605.134 201.928 605.134 202.376V207H603.886V202.504C603.886 201.875 603.747 201.379 603.47 201.016C603.193 200.653 602.761 200.472 602.174 200.472C601.769 200.472 601.417 200.541 601.118 200.68C600.83 200.819 600.59 201.016 600.398 201.272C600.217 201.528 600.078 201.832 599.982 202.184C599.897 202.536 599.854 202.925 599.854 203.352V207H598.606V201.288ZM611.593 200.568H609.385V204.312C609.385 204.557 609.39 204.787 609.401 205C609.411 205.203 609.454 205.384 609.529 205.544C609.603 205.693 609.715 205.816 609.865 205.912C610.014 205.997 610.227 206.04 610.505 206.04C610.686 206.04 610.873 206.019 611.065 205.976C611.257 205.933 611.438 205.869 611.609 205.784L611.657 206.92C611.443 207.016 611.203 207.085 610.937 207.128C610.681 207.171 610.435 207.192 610.201 207.192C609.753 207.192 609.395 207.133 609.129 207.016C608.862 206.899 608.654 206.733 608.505 206.52C608.355 206.307 608.254 206.045 608.201 205.736C608.158 205.416 608.137 205.064 608.137 204.68V200.568H606.505V199.512H608.137V197.384H609.385V199.512H611.593V200.568ZM619.81 205.64C619.362 206.216 618.871 206.621 618.338 206.856C617.804 207.08 617.186 207.192 616.482 207.192C615.895 207.192 615.367 207.091 614.898 206.888C614.428 206.675 614.028 206.392 613.698 206.04C613.378 205.688 613.127 205.272 612.946 204.792C612.775 204.312 612.69 203.8 612.69 203.256C612.69 202.68 612.786 202.152 612.978 201.672C613.17 201.181 613.436 200.765 613.778 200.424C614.119 200.072 614.524 199.8 614.994 199.608C615.463 199.416 615.975 199.32 616.53 199.32C617.052 199.32 617.532 199.411 617.97 199.592C618.407 199.763 618.78 200.019 619.09 200.36C619.41 200.691 619.655 201.101 619.826 201.592C619.996 202.072 620.082 202.621 620.082 203.24V203.64H614.034C614.055 203.96 614.13 204.269 614.258 204.568C614.396 204.856 614.572 205.112 614.786 205.336C614.999 205.549 615.25 205.72 615.538 205.848C615.826 205.976 616.14 206.04 616.482 206.04C617.026 206.04 617.484 205.944 617.858 205.752C618.231 205.56 618.567 205.277 618.866 204.904L619.81 205.64ZM618.738 202.584C618.716 201.944 618.508 201.432 618.114 201.048C617.719 200.664 617.175 200.472 616.482 200.472C615.788 200.472 615.228 200.664 614.802 201.048C614.375 201.432 614.119 201.944 614.034 202.584H618.738ZM622.012 201.288C622.012 200.947 622.001 200.627 621.98 200.328C621.959 200.029 621.948 199.757 621.948 199.512H623.132C623.132 199.715 623.137 199.917 623.148 200.12C623.159 200.323 623.164 200.531 623.164 200.744H623.196C623.281 200.563 623.399 200.387 623.548 200.216C623.708 200.045 623.895 199.896 624.108 199.768C624.321 199.629 624.561 199.523 624.828 199.448C625.095 199.363 625.383 199.32 625.692 199.32C626.183 199.32 626.604 199.395 626.956 199.544C627.319 199.693 627.617 199.901 627.852 200.168C628.087 200.435 628.257 200.76 628.364 201.144C628.481 201.517 628.54 201.928 628.54 202.376V207H627.292V202.504C627.292 201.875 627.153 201.379 626.876 201.016C626.599 200.653 626.167 200.472 625.58 200.472C625.175 200.472 624.823 200.541 624.524 200.68C624.236 200.819 623.996 201.016 623.804 201.272C623.623 201.528 623.484 201.832 623.388 202.184C623.303 202.536 623.26 202.925 623.26 203.352V207H622.012V201.288ZM634.999 200.568H632.791V204.312C632.791 204.557 632.796 204.787 632.807 205C632.817 205.203 632.86 205.384 632.935 205.544C633.009 205.693 633.121 205.816 633.271 205.912C633.42 205.997 633.633 206.04 633.911 206.04C634.092 206.04 634.279 206.019 634.471 205.976C634.663 205.933 634.844 205.869 635.015 205.784L635.063 206.92C634.849 207.016 634.609 207.085 634.343 207.128C634.087 207.171 633.841 207.192 633.607 207.192C633.159 207.192 632.801 207.133 632.535 207.016C632.268 206.899 632.06 206.733 631.911 206.52C631.761 206.307 631.66 206.045 631.607 205.736C631.564 205.416 631.543 205.064 631.543 204.68V200.568H629.911V199.512H631.543V197.384H632.791V199.512H634.999V200.568Z" fill="#333333"/>
<rect opacity="0.25" x="42" y="92" width="49.1666" height="219" fill="#FFBDBD"/>
<rect opacity="0.25" x="113.859" y="92" width="49.1666" height="219" fill="#FFBDBD"/>
<rect opacity="0.25" x="185.718" y="92" width="49.1666" height="219" fill="#FFBDBD"/>
<rect opacity="0.25" x="257.577" y="92" width="49.1666" height="219" fill="#FFBDBD"/>
<rect opacity="0.25" x="329.436" y="92" width="49.1666" height="219" fill="#FFBDBD"/>
<rect opacity="0.25" x="401.294" y="92" width="49.1666" height="219" fill="#FFBDBD"/>
<rect opacity="0.25" x="473.153" y="92" width="49.1666" height="219" fill="#FFBDBD"/>
<rect opacity="0.25" x="545.012" y="92" width="49.1666" height="219" fill="#FFBDBD"/>
<rect opacity="0.25" x="616.871" y="92" width="49.1666" height="219" fill="#FFBDBD"/>
<rect opacity="0.25" x="688.73" y="92" width="49.1666" height="219" fill="#FFBDBD"/>
<rect opacity="0.25" x="760.589" y="92" width="49.1666" height="219" fill="#FFBDBD"/>
<rect opacity="0.25" x="832.448" y="92" width="49.1666" height="219" fill="#FFBDBD"/>
<path d="M344.538 105.352V103.768H346.394V104.792L347.018 105.4H350.058L350.682 104.792V102.76L350.09 102.168H346.89V100.568H350.09L350.682 99.976V98.008L350.058 97.4H347.114L346.49 98.008V99.032H344.634V97.448L346.282 95.8H350.89L352.538 97.448V100.52L351.674 101.368L352.538 102.232V105.352L350.89 107H346.186L344.538 105.352ZM354.724 105.224V97.576L356.5 95.8H361.332L363.108 97.576V105.224L361.332 107H356.5L354.724 105.224ZM360.468 105.4L361.252 104.632V98.168L360.468 97.4H357.364L356.58 98.168V104.632L357.364 105.4H360.468ZM365.451 99.032H367.131V100.28L368.395 99.032H371.451L373.051 100.632V105.4L371.451 107H368.379L367.259 106.056V110.392H365.451V99.032ZM370.603 105.448L371.243 104.824V101.208L370.603 100.584H368.683L367.259 102.008V104.232L368.603 105.448H370.603ZM380.012 107L378.076 104.328L376.156 107H374.124L377.084 102.952L374.204 99.032H376.236L378.076 101.592L379.932 99.032H381.964L379.1 102.984L382.044 107H380.012ZM395.582 99.032V108.888L393.934 110.52H389.726L388.334 109.128V108.072H390.126V108.6L390.526 109H393.15L393.774 108.36V105.864L392.542 107H389.566L387.982 105.4V100.632L389.566 99.032H392.67L393.886 100.216V99.032H395.582ZM393.774 101.784L392.494 100.584H390.462L389.79 101.256V104.776L390.462 105.448H392.35L393.774 104.056V101.784ZM397.927 105.384V99.032H399.735V104.824L400.359 105.448H401.751L403.447 103.752V99.032H405.255V107H403.575V105.528L402.087 107H399.543L397.927 105.384ZM408.405 105.416V100.568H406.965V99.032H408.437V96.44H410.213V99.032H412.661V100.568H410.213V104.84L410.837 105.464H412.661V107H409.989L408.405 105.416ZM415.255 105.416V100.568H413.815V99.032H415.287V96.44H417.063V99.032H419.511V100.568H417.063V104.84L417.687 105.464H419.511V107H416.839L415.255 105.416ZM420.991 105.416V100.632L422.575 99.032H426.911L428.527 100.632V103.608H422.799V104.888L423.407 105.496H426.143L426.719 104.904V104.424H428.511V105.448L426.959 107H422.559L420.991 105.416ZM426.719 102.28V101.176L426.095 100.536H423.423L422.799 101.176V102.28H426.719ZM430.72 99.032H432.4V100.392L433.728 99.032H435.936V100.584H434.128L432.528 102.216V107H430.72V99.032Z" fill="#F74480"/>
<g clip-path="url(#clip4_112_26554)">
<line x1="389.5" y1="162" x2="389.5" y2="122" stroke="#F74480"/>
<line x1="401.5" y1="162" x2="401.5" y2="170" stroke="#F74480"/>
<line x1="378.5" y1="162" x2="378.5" y2="170" stroke="#F74480"/>
<line x1="402" y1="162.5" x2="378" y2="162.5" stroke="#F74480"/>
</g>
<defs>
<filter id="filter0_d_112_26554" x="0" y="0" width="921" height="371" filterUnits="userSpaceOnUse" color-interpolation-filters="sRGB">
<feFlood flood-opacity="0" result="BackgroundImageFix"/>
<feColorMatrix in="SourceAlpha" type="matrix" values="0 0 0 0 0 0 0 0 0 0 0 0 0 0 0 0 0 0 127 0" result="hardAlpha"/>
<feOffset/>
<feGaussianBlur stdDeviation="5"/>
<feColorMatrix type="matrix" values="0 0 0 0 0 0 0 0 0 0 0 0 0 0 0 0 0 0 0.5 0"/>
<feBlend mode="normal" in2="BackgroundImageFix" result="effect1_dropShadow_112_26554"/>
<feBlend mode="normal" in="SourceGraphic" in2="effect1_dropShadow_112_26554" result="shape"/>
</filter>
<clipPath id="clip0_112_26554">
<rect width="901" height="351" fill="white" transform="translate(10 10)"/>
</clipPath>
<clipPath id="clip1_112_26554">
<rect width="901" height="47" fill="white" transform="translate(10 10)"/>
</clipPath>
<clipPath id="clip2_112_26554">
<rect width="901" height="47" fill="white" transform="translate(10 10)"/>
</clipPath>
<clipPath id="clip3_112_26554">
<rect width="61" height="15" fill="white" transform="translate(20 25)"/>
</clipPath>
<clipPath id="clip4_112_26554">
<rect width="48" height="24" fill="white" transform="translate(402 122) rotate(90)"/>
</clipPath>
</defs>
</svg>
