<svg width="921" height="494" viewBox="0 0 921 494" fill="none" xmlns="http://www.w3.org/2000/svg">
<g filter="url(#filter0_d_112_26550)">
<g clip-path="url(#clip0_112_26550)">
<rect x="10" y="10" width="901" height="474" rx="2" fill="white"/>
<mask id="mask0_112_26550" style="mask-type:alpha" maskUnits="userSpaceOnUse" x="10" y="10" width="901" height="474">
<rect x="10" y="10" width="901" height="474" rx="2" fill="white"/>
</mask>
<g mask="url(#mask0_112_26550)">
</g>
<g clip-path="url(#clip1_112_26550)">
<g clip-path="url(#clip2_112_26550)">
<rect x="10" y="10" width="901" height="47" fill="#C7C7C7"/>
<path fill-rule="evenodd" clip-rule="evenodd" d="M95 21C95 19.8954 95.8954 19 97 19H870C871.105 19 872 19.8954 872 21V47C872 48.1046 871.105 49 870 49H97C95.8954 49 95 48.1046 95 47V21Z" fill="#F8F9FB"/>
</g>
<g clip-path="url(#clip3_112_26550)">
<circle cx="27.5" cy="32.5" r="7.5" fill="#FF6057"/>
<circle cx="49.5" cy="32.5" r="7.5" fill="#FFC12E"/>
<circle cx="73.5" cy="32.5" r="7.5" fill="#28CA40"/>
</g>
</g>
</g>
</g>
<rect opacity="0.25" x="42" y="92" width="49.1666" height="373" fill="#FFBDBD"/>
<rect opacity="0.25" x="113.859" y="92" width="49.1666" height="373" fill="#FFBDBD"/>
<rect opacity="0.25" x="185.718" y="92" width="49.1666" height="373" fill="#FFBDBD"/>
<rect opacity="0.25" x="257.577" y="92" width="49.1666" height="373" fill="#FFBDBD"/>
<rect opacity="0.25" x="329.436" y="92" width="49.1666" height="373" fill="#FFBDBD"/>
<rect opacity="0.25" x="401.294" y="92" width="49.1666" height="373" fill="#FFBDBD"/>
<rect opacity="0.25" x="473.153" y="92" width="49.1666" height="373" fill="#FFBDBD"/>
<rect opacity="0.25" x="545.012" y="92" width="49.1666" height="373" fill="#FFBDBD"/>
<rect opacity="0.25" x="616.871" y="92" width="49.1666" height="373" fill="#FFBDBD"/>
<rect opacity="0.25" x="688.73" y="92" width="49.1666" height="373" fill="#FFBDBD"/>
<rect opacity="0.25" x="760.589" y="92" width="49.1666" height="373" fill="#FFBDBD"/>
<rect opacity="0.25" x="832.448" y="92" width="49.1666" height="373" fill="#FFBDBD"/>
<rect width="193" height="36" transform="translate(42 229)" fill="#B056BC" fill-opacity="0.2"/>
<path d="M137.319 245.472H137.735C138.012 245.472 138.3 245.451 138.599 245.408C138.908 245.365 139.185 245.275 139.431 245.136C139.687 244.997 139.895 244.8 140.055 244.544C140.225 244.277 140.311 243.931 140.311 243.504C140.311 242.928 140.129 242.475 139.767 242.144C139.415 241.803 138.951 241.632 138.375 241.632C137.895 241.632 137.479 241.739 137.127 241.952C136.775 242.165 136.497 242.48 136.295 242.896L134.999 242.4C135.276 241.76 135.708 241.28 136.295 240.96C136.892 240.64 137.553 240.48 138.279 240.48C138.727 240.48 139.153 240.544 139.559 240.672C139.975 240.8 140.337 240.987 140.647 241.232C140.956 241.477 141.201 241.787 141.383 242.16C141.564 242.523 141.655 242.949 141.655 243.44C141.655 244.037 141.473 244.576 141.111 245.056C140.759 245.525 140.295 245.851 139.719 246.032V246.064C140.081 246.128 140.401 246.245 140.679 246.416C140.967 246.587 141.212 246.8 141.415 247.056C141.617 247.301 141.772 247.584 141.879 247.904C141.985 248.224 142.039 248.56 142.039 248.912C142.039 249.456 141.937 249.931 141.735 250.336C141.532 250.741 141.26 251.083 140.919 251.36C140.577 251.637 140.177 251.845 139.719 251.984C139.271 252.123 138.796 252.192 138.295 252.192C137.431 252.192 136.679 252.005 136.039 251.632C135.399 251.259 134.935 250.651 134.647 249.808L136.007 249.36C136.199 249.968 136.471 250.4 136.823 250.656C137.175 250.912 137.665 251.04 138.295 251.04C138.615 251.04 138.913 250.987 139.191 250.88C139.468 250.773 139.708 250.624 139.911 250.432C140.124 250.229 140.289 249.995 140.407 249.728C140.535 249.451 140.599 249.147 140.599 248.816C140.599 248.4 140.513 248.053 140.343 247.776C140.183 247.488 139.964 247.264 139.687 247.104C139.42 246.933 139.116 246.811 138.775 246.736C138.433 246.661 138.087 246.624 137.735 246.624H137.319V245.472Z" fill="#333333"/>
<rect width="193" height="36" transform="translate(472 229)" fill="#B056BC" fill-opacity="0.2"/>
<path d="M567.319 245.472H567.735C568.012 245.472 568.3 245.451 568.599 245.408C568.908 245.365 569.185 245.275 569.431 245.136C569.687 244.997 569.895 244.8 570.055 244.544C570.225 244.277 570.311 243.931 570.311 243.504C570.311 242.928 570.129 242.475 569.767 242.144C569.415 241.803 568.951 241.632 568.375 241.632C567.895 241.632 567.479 241.739 567.127 241.952C566.775 242.165 566.497 242.48 566.295 242.896L564.999 242.4C565.276 241.76 565.708 241.28 566.295 240.96C566.892 240.64 567.553 240.48 568.279 240.48C568.727 240.48 569.153 240.544 569.559 240.672C569.975 240.8 570.337 240.987 570.647 241.232C570.956 241.477 571.201 241.787 571.383 242.16C571.564 242.523 571.655 242.949 571.655 243.44C571.655 244.037 571.473 244.576 571.111 245.056C570.759 245.525 570.295 245.851 569.719 246.032V246.064C570.081 246.128 570.401 246.245 570.679 246.416C570.967 246.587 571.212 246.8 571.415 247.056C571.617 247.301 571.772 247.584 571.879 247.904C571.985 248.224 572.039 248.56 572.039 248.912C572.039 249.456 571.937 249.931 571.735 250.336C571.532 250.741 571.26 251.083 570.919 251.36C570.577 251.637 570.177 251.845 569.719 251.984C569.271 252.123 568.796 252.192 568.295 252.192C567.431 252.192 566.679 252.005 566.039 251.632C565.399 251.259 564.935 250.651 564.647 249.808L566.007 249.36C566.199 249.968 566.471 250.4 566.823 250.656C567.175 250.912 567.665 251.04 568.295 251.04C568.615 251.04 568.913 250.987 569.191 250.88C569.468 250.773 569.708 250.624 569.911 250.432C570.124 250.229 570.289 249.995 570.407 249.728C570.535 249.451 570.599 249.147 570.599 248.816C570.599 248.4 570.513 248.053 570.343 247.776C570.183 247.488 569.964 247.264 569.687 247.104C569.42 246.933 569.116 246.811 568.775 246.736C568.433 246.661 568.087 246.624 567.735 246.624H567.319V245.472Z" fill="#333333"/>
<rect width="193" height="36" transform="translate(257 229)" fill="#B056BC" fill-opacity="0.2"/>
<path d="M352.319 245.472H352.735C353.012 245.472 353.3 245.451 353.599 245.408C353.908 245.365 354.185 245.275 354.431 245.136C354.687 244.997 354.895 244.8 355.055 244.544C355.225 244.277 355.311 243.931 355.311 243.504C355.311 242.928 355.129 242.475 354.767 242.144C354.415 241.803 353.951 241.632 353.375 241.632C352.895 241.632 352.479 241.739 352.127 241.952C351.775 242.165 351.497 242.48 351.295 242.896L349.999 242.4C350.276 241.76 350.708 241.28 351.295 240.96C351.892 240.64 352.553 240.48 353.279 240.48C353.727 240.48 354.153 240.544 354.559 240.672C354.975 240.8 355.337 240.987 355.647 241.232C355.956 241.477 356.201 241.787 356.383 242.16C356.564 242.523 356.655 242.949 356.655 243.44C356.655 244.037 356.473 244.576 356.111 245.056C355.759 245.525 355.295 245.851 354.719 246.032V246.064C355.081 246.128 355.401 246.245 355.679 246.416C355.967 246.587 356.212 246.8 356.415 247.056C356.617 247.301 356.772 247.584 356.879 247.904C356.985 248.224 357.039 248.56 357.039 248.912C357.039 249.456 356.937 249.931 356.735 250.336C356.532 250.741 356.26 251.083 355.919 251.36C355.577 251.637 355.177 251.845 354.719 251.984C354.271 252.123 353.796 252.192 353.295 252.192C352.431 252.192 351.679 252.005 351.039 251.632C350.399 251.259 349.935 250.651 349.647 249.808L351.007 249.36C351.199 249.968 351.471 250.4 351.823 250.656C352.175 250.912 352.665 251.04 353.295 251.04C353.615 251.04 353.913 250.987 354.191 250.88C354.468 250.773 354.708 250.624 354.911 250.432C355.124 250.229 355.289 249.995 355.407 249.728C355.535 249.451 355.599 249.147 355.599 248.816C355.599 248.4 355.513 248.053 355.343 247.776C355.183 247.488 354.964 247.264 354.687 247.104C354.42 246.933 354.116 246.811 353.775 246.736C353.433 246.661 353.087 246.624 352.735 246.624H352.319V245.472Z" fill="#333333"/>
<rect width="193" height="36" transform="translate(687 229)" fill="#B056BC" fill-opacity="0.2"/>
<path d="M782.319 245.472H782.735C783.012 245.472 783.3 245.451 783.599 245.408C783.908 245.365 784.185 245.275 784.431 245.136C784.687 244.997 784.895 244.8 785.055 244.544C785.225 244.277 785.311 243.931 785.311 243.504C785.311 242.928 785.129 242.475 784.767 242.144C784.415 241.803 783.951 241.632 783.375 241.632C782.895 241.632 782.479 241.739 782.127 241.952C781.775 242.165 781.497 242.48 781.295 242.896L779.999 242.4C780.276 241.76 780.708 241.28 781.295 240.96C781.892 240.64 782.553 240.48 783.279 240.48C783.727 240.48 784.153 240.544 784.559 240.672C784.975 240.8 785.337 240.987 785.647 241.232C785.956 241.477 786.201 241.787 786.383 242.16C786.564 242.523 786.655 242.949 786.655 243.44C786.655 244.037 786.473 244.576 786.111 245.056C785.759 245.525 785.295 245.851 784.719 246.032V246.064C785.081 246.128 785.401 246.245 785.679 246.416C785.967 246.587 786.212 246.8 786.415 247.056C786.617 247.301 786.772 247.584 786.879 247.904C786.985 248.224 787.039 248.56 787.039 248.912C787.039 249.456 786.937 249.931 786.735 250.336C786.532 250.741 786.26 251.083 785.919 251.36C785.577 251.637 785.177 251.845 784.719 251.984C784.271 252.123 783.796 252.192 783.295 252.192C782.431 252.192 781.679 252.005 781.039 251.632C780.399 251.259 779.935 250.651 779.647 249.808L781.007 249.36C781.199 249.968 781.471 250.4 781.823 250.656C782.175 250.912 782.665 251.04 783.295 251.04C783.615 251.04 783.913 250.987 784.191 250.88C784.468 250.773 784.708 250.624 784.911 250.432C785.124 250.229 785.289 249.995 785.407 249.728C785.535 249.451 785.599 249.147 785.599 248.816C785.599 248.4 785.513 248.053 785.343 247.776C785.183 247.488 784.964 247.264 784.687 247.104C784.42 246.933 784.116 246.811 783.775 246.736C783.433 246.661 783.087 246.624 782.735 246.624H782.319V245.472Z" fill="#333333"/>
<rect width="121" height="36" transform="translate(42 169)" fill="#B056BC" fill-opacity="0.2"/>
<path d="M98.8547 190.464L103.127 186.304C103.393 186.048 103.628 185.813 103.831 185.6C104.033 185.376 104.199 185.163 104.327 184.96C104.465 184.747 104.567 184.528 104.631 184.304C104.695 184.08 104.727 183.829 104.727 183.552C104.727 183.253 104.673 182.987 104.567 182.752C104.46 182.517 104.311 182.32 104.119 182.16C103.937 181.989 103.719 181.861 103.463 181.776C103.217 181.68 102.951 181.632 102.663 181.632C102.087 181.632 101.612 181.797 101.239 182.128C100.865 182.459 100.625 182.896 100.519 183.44L99.0627 183.312C99.1374 182.853 99.276 182.448 99.4787 182.096C99.692 181.733 99.9534 181.435 100.263 181.2C100.583 180.965 100.94 180.789 101.335 180.672C101.729 180.544 102.156 180.48 102.615 180.48C103.084 180.48 103.527 180.549 103.943 180.688C104.359 180.816 104.721 181.008 105.031 181.264C105.351 181.52 105.601 181.84 105.783 182.224C105.975 182.608 106.071 183.051 106.071 183.552C106.071 184 106.007 184.405 105.879 184.768C105.761 185.131 105.596 185.467 105.383 185.776C105.18 186.075 104.945 186.363 104.679 186.64C104.423 186.907 104.151 187.173 103.863 187.44L100.375 190.72V190.752H106.151V192H98.8547V190.464Z" fill="#333333"/>
<rect width="121" height="36" transform="translate(329 169)" fill="#B056BC" fill-opacity="0.2"/>
<path d="M385.855 190.464L390.127 186.304C390.393 186.048 390.628 185.813 390.831 185.6C391.033 185.376 391.199 185.163 391.327 184.96C391.465 184.747 391.567 184.528 391.631 184.304C391.695 184.08 391.727 183.829 391.727 183.552C391.727 183.253 391.673 182.987 391.567 182.752C391.46 182.517 391.311 182.32 391.119 182.16C390.937 181.989 390.719 181.861 390.463 181.776C390.217 181.68 389.951 181.632 389.663 181.632C389.087 181.632 388.612 181.797 388.239 182.128C387.865 182.459 387.625 182.896 387.519 183.44L386.063 183.312C386.137 182.853 386.276 182.448 386.479 182.096C386.692 181.733 386.953 181.435 387.263 181.2C387.583 180.965 387.94 180.789 388.335 180.672C388.729 180.544 389.156 180.48 389.615 180.48C390.084 180.48 390.527 180.549 390.943 180.688C391.359 180.816 391.721 181.008 392.031 181.264C392.351 181.52 392.601 181.84 392.783 182.224C392.975 182.608 393.071 183.051 393.071 183.552C393.071 184 393.007 184.405 392.879 184.768C392.761 185.131 392.596 185.467 392.383 185.776C392.18 186.075 391.945 186.363 391.679 186.64C391.423 186.907 391.151 187.173 390.863 187.44L387.375 190.72V190.752H393.151V192H385.855V190.464Z" fill="#333333"/>
<rect width="121" height="36" transform="translate(616 169)" fill="#B056BC" fill-opacity="0.2"/>
<path d="M672.855 190.464L677.127 186.304C677.393 186.048 677.628 185.813 677.831 185.6C678.033 185.376 678.199 185.163 678.327 184.96C678.465 184.747 678.567 184.528 678.631 184.304C678.695 184.08 678.727 183.829 678.727 183.552C678.727 183.253 678.673 182.987 678.567 182.752C678.46 182.517 678.311 182.32 678.119 182.16C677.937 181.989 677.719 181.861 677.463 181.776C677.217 181.68 676.951 181.632 676.663 181.632C676.087 181.632 675.612 181.797 675.239 182.128C674.865 182.459 674.625 182.896 674.519 183.44L673.063 183.312C673.137 182.853 673.276 182.448 673.479 182.096C673.692 181.733 673.953 181.435 674.263 181.2C674.583 180.965 674.94 180.789 675.335 180.672C675.729 180.544 676.156 180.48 676.615 180.48C677.084 180.48 677.527 180.549 677.943 180.688C678.359 180.816 678.721 181.008 679.031 181.264C679.351 181.52 679.601 181.84 679.783 182.224C679.975 182.608 680.071 183.051 680.071 183.552C680.071 184 680.007 184.405 679.879 184.768C679.761 185.131 679.596 185.467 679.383 185.776C679.18 186.075 678.945 186.363 678.679 186.64C678.423 186.907 678.151 187.173 677.863 187.44L674.375 190.72V190.752H680.151V192H672.855V190.464Z" fill="#333333"/>
<rect width="121" height="36" transform="translate(186 169)" fill="#B056BC" fill-opacity="0.2"/>
<path d="M242.855 190.464L247.127 186.304C247.393 186.048 247.628 185.813 247.831 185.6C248.033 185.376 248.199 185.163 248.327 184.96C248.465 184.747 248.567 184.528 248.631 184.304C248.695 184.08 248.727 183.829 248.727 183.552C248.727 183.253 248.673 182.987 248.567 182.752C248.46 182.517 248.311 182.32 248.119 182.16C247.937 181.989 247.719 181.861 247.463 181.776C247.217 181.68 246.951 181.632 246.663 181.632C246.087 181.632 245.612 181.797 245.239 182.128C244.865 182.459 244.625 182.896 244.519 183.44L243.063 183.312C243.137 182.853 243.276 182.448 243.479 182.096C243.692 181.733 243.953 181.435 244.263 181.2C244.583 180.965 244.94 180.789 245.335 180.672C245.729 180.544 246.156 180.48 246.615 180.48C247.084 180.48 247.527 180.549 247.943 180.688C248.359 180.816 248.721 181.008 249.031 181.264C249.351 181.52 249.601 181.84 249.783 182.224C249.975 182.608 250.071 183.051 250.071 183.552C250.071 184 250.007 184.405 249.879 184.768C249.761 185.131 249.596 185.467 249.383 185.776C249.18 186.075 248.945 186.363 248.679 186.64C248.423 186.907 248.151 187.173 247.863 187.44L244.375 190.72V190.752H250.151V192H242.855V190.464Z" fill="#333333"/>
<rect width="121" height="36" transform="translate(473 169)" fill="#B056BC" fill-opacity="0.2"/>
<path d="M529.855 190.464L534.127 186.304C534.393 186.048 534.628 185.813 534.831 185.6C535.033 185.376 535.199 185.163 535.327 184.96C535.465 184.747 535.567 184.528 535.631 184.304C535.695 184.08 535.727 183.829 535.727 183.552C535.727 183.253 535.673 182.987 535.567 182.752C535.46 182.517 535.311 182.32 535.119 182.16C534.937 181.989 534.719 181.861 534.463 181.776C534.217 181.68 533.951 181.632 533.663 181.632C533.087 181.632 532.612 181.797 532.239 182.128C531.865 182.459 531.625 182.896 531.519 183.44L530.063 183.312C530.137 182.853 530.276 182.448 530.479 182.096C530.692 181.733 530.953 181.435 531.263 181.2C531.583 180.965 531.94 180.789 532.335 180.672C532.729 180.544 533.156 180.48 533.615 180.48C534.084 180.48 534.527 180.549 534.943 180.688C535.359 180.816 535.721 181.008 536.031 181.264C536.351 181.52 536.601 181.84 536.783 182.224C536.975 182.608 537.071 183.051 537.071 183.552C537.071 184 537.007 184.405 536.879 184.768C536.761 185.131 536.596 185.467 536.383 185.776C536.18 186.075 535.945 186.363 535.679 186.64C535.423 186.907 535.151 187.173 534.863 187.44L531.375 190.72V190.752H537.151V192H529.855V190.464Z" fill="#333333"/>
<rect width="121" height="36" transform="translate(760 169)" fill="#B056BC" fill-opacity="0.2"/>
<path d="M816.855 190.464L821.127 186.304C821.393 186.048 821.628 185.813 821.831 185.6C822.033 185.376 822.199 185.163 822.327 184.96C822.465 184.747 822.567 184.528 822.631 184.304C822.695 184.08 822.727 183.829 822.727 183.552C822.727 183.253 822.673 182.987 822.567 182.752C822.46 182.517 822.311 182.32 822.119 182.16C821.937 181.989 821.719 181.861 821.463 181.776C821.217 181.68 820.951 181.632 820.663 181.632C820.087 181.632 819.612 181.797 819.239 182.128C818.865 182.459 818.625 182.896 818.519 183.44L817.063 183.312C817.137 182.853 817.276 182.448 817.479 182.096C817.692 181.733 817.953 181.435 818.263 181.2C818.583 180.965 818.94 180.789 819.335 180.672C819.729 180.544 820.156 180.48 820.615 180.48C821.084 180.48 821.527 180.549 821.943 180.688C822.359 180.816 822.721 181.008 823.031 181.264C823.351 181.52 823.601 181.84 823.783 182.224C823.975 182.608 824.071 183.051 824.071 183.552C824.071 184 824.007 184.405 823.879 184.768C823.761 185.131 823.596 185.467 823.383 185.776C823.18 186.075 822.945 186.363 822.679 186.64C822.423 186.907 822.151 187.173 821.863 187.44L818.375 190.72V190.752H824.151V192H816.855V190.464Z" fill="#333333"/>
<rect width="265" height="36" transform="translate(42 289)" fill="#B056BC" fill-opacity="0.2"/>
<path d="M176.759 308.16H178.391V309.408H176.759V312H175.415V309.408H170.615V307.92L175.111 300.672H176.759V308.16ZM175.415 302.24H175.383L171.767 308.16H175.415V302.24Z" fill="#333333"/>
<rect width="265" height="36" transform="translate(329 289)" fill="#B056BC" fill-opacity="0.2"/>
<path d="M463.759 308.16H465.391V309.408H463.759V312H462.415V309.408H457.615V307.92L462.111 300.672H463.759V308.16ZM462.415 302.24H462.383L458.767 308.16H462.415V302.24Z" fill="#333333"/>
<rect width="265" height="36" transform="translate(617 289)" fill="#B056BC" fill-opacity="0.2"/>
<path d="M751.759 308.16H753.391V309.408H751.759V312H750.415V309.408H745.615V307.92L750.111 300.672H751.759V308.16ZM750.415 302.24H750.383L746.767 308.16H750.415V302.24Z" fill="#333333"/>
<rect width="336" height="36" transform="translate(42 349)" fill="#B056BC" fill-opacity="0.2"/>
<path d="M213.139 361.92H208.515L208.467 364.976C208.68 364.869 208.915 364.8 209.171 364.768C209.437 364.725 209.688 364.704 209.923 364.704C210.467 364.704 210.957 364.8 211.395 364.992C211.843 365.173 212.227 365.435 212.547 365.776C212.867 366.107 213.112 366.501 213.283 366.96C213.453 367.408 213.539 367.899 213.539 368.432C213.539 368.997 213.437 369.515 213.235 369.984C213.043 370.443 212.771 370.837 212.419 371.168C212.077 371.488 211.667 371.739 211.187 371.92C210.717 372.101 210.205 372.192 209.651 372.192C208.787 372.192 208.088 372.005 207.555 371.632C207.032 371.259 206.616 370.757 206.307 370.128L207.651 369.616C207.843 370.043 208.12 370.389 208.483 370.656C208.856 370.912 209.283 371.04 209.763 371.04C210.104 371.04 210.419 370.981 210.707 370.864C211.005 370.736 211.261 370.56 211.475 370.336C211.699 370.101 211.875 369.824 212.003 369.504C212.131 369.184 212.195 368.827 212.195 368.432C212.195 368.016 212.12 367.648 211.971 367.328C211.832 367.008 211.635 366.741 211.379 366.528C211.133 366.304 210.84 366.139 210.499 366.032C210.157 365.915 209.789 365.856 209.395 365.856C209.011 365.856 208.616 365.925 208.211 366.064C207.805 366.192 207.432 366.357 207.091 366.56L207.203 360.672H213.139V361.92Z" fill="#333333"/>
<rect width="336" height="36" transform="translate(401 349)" fill="#B056BC" fill-opacity="0.2"/>
<path d="M572.139 361.92H567.515L567.467 364.976C567.68 364.869 567.915 364.8 568.171 364.768C568.437 364.725 568.688 364.704 568.923 364.704C569.467 364.704 569.957 364.8 570.395 364.992C570.843 365.173 571.227 365.435 571.547 365.776C571.867 366.107 572.112 366.501 572.283 366.96C572.453 367.408 572.539 367.899 572.539 368.432C572.539 368.997 572.437 369.515 572.235 369.984C572.043 370.443 571.771 370.837 571.419 371.168C571.077 371.488 570.667 371.739 570.187 371.92C569.717 372.101 569.205 372.192 568.651 372.192C567.787 372.192 567.088 372.005 566.555 371.632C566.032 371.259 565.616 370.757 565.307 370.128L566.651 369.616C566.843 370.043 567.12 370.389 567.483 370.656C567.856 370.912 568.283 371.04 568.763 371.04C569.104 371.04 569.419 370.981 569.707 370.864C570.005 370.736 570.261 370.56 570.475 370.336C570.699 370.101 570.875 369.824 571.003 369.504C571.131 369.184 571.195 368.827 571.195 368.432C571.195 368.016 571.12 367.648 570.971 367.328C570.832 367.008 570.635 366.741 570.379 366.528C570.133 366.304 569.84 366.139 569.499 366.032C569.157 365.915 568.789 365.856 568.395 365.856C568.011 365.856 567.616 365.925 567.211 366.064C566.805 366.192 566.432 366.357 566.091 366.56L566.203 360.672H572.139V361.92Z" fill="#333333"/>
<rect width="121" height="36" transform="translate(761 349)" fill="#B056BC" fill-opacity="0.2"/>
<path d="M817.855 370.464L822.127 366.304C822.393 366.048 822.628 365.813 822.831 365.6C823.033 365.376 823.199 365.163 823.327 364.96C823.465 364.747 823.567 364.528 823.631 364.304C823.695 364.08 823.727 363.829 823.727 363.552C823.727 363.253 823.673 362.987 823.567 362.752C823.46 362.517 823.311 362.32 823.119 362.16C822.937 361.989 822.719 361.861 822.463 361.776C822.217 361.68 821.951 361.632 821.663 361.632C821.087 361.632 820.612 361.797 820.239 362.128C819.865 362.459 819.625 362.896 819.519 363.44L818.063 363.312C818.137 362.853 818.276 362.448 818.479 362.096C818.692 361.733 818.953 361.435 819.263 361.2C819.583 360.965 819.94 360.789 820.335 360.672C820.729 360.544 821.156 360.48 821.615 360.48C822.084 360.48 822.527 360.549 822.943 360.688C823.359 360.816 823.721 361.008 824.031 361.264C824.351 361.52 824.601 361.84 824.783 362.224C824.975 362.608 825.071 363.051 825.071 363.552C825.071 364 825.007 364.405 824.879 364.768C824.761 365.131 824.596 365.467 824.383 365.776C824.18 366.075 823.945 366.363 823.679 366.64C823.423 366.907 823.151 367.173 822.863 367.44L819.375 370.72V370.752H825.151V372H817.855V370.464Z" fill="#333333"/>
<rect width="408" height="36" transform="translate(42 409)" fill="#B056BC" fill-opacity="0.2"/>
<path d="M244.819 425.392L244.851 425.424C245.064 425.307 245.309 425.221 245.587 425.168C245.875 425.115 246.136 425.088 246.371 425.088C246.861 425.088 247.315 425.173 247.731 425.344C248.157 425.515 248.52 425.76 248.819 426.08C249.128 426.389 249.368 426.763 249.539 427.2C249.709 427.637 249.795 428.117 249.795 428.64C249.795 429.195 249.699 429.691 249.507 430.128C249.315 430.565 249.048 430.939 248.707 431.248C248.365 431.547 247.96 431.781 247.491 431.952C247.032 432.112 246.536 432.192 246.003 432.192C245.469 432.192 244.968 432.112 244.499 431.952C244.04 431.781 243.64 431.547 243.299 431.248C242.957 430.939 242.691 430.565 242.499 430.128C242.307 429.691 242.211 429.195 242.211 428.64C242.211 427.989 242.312 427.419 242.515 426.928C242.717 426.437 242.973 425.947 243.283 425.456L246.291 420.672H247.859L244.819 425.392ZM246.003 426.24C245.661 426.24 245.341 426.299 245.043 426.416C244.744 426.523 244.483 426.683 244.259 426.896C244.045 427.099 243.875 427.349 243.747 427.648C243.619 427.947 243.555 428.277 243.555 428.64C243.555 429.013 243.619 429.349 243.747 429.648C243.875 429.936 244.045 430.187 244.259 430.4C244.483 430.603 244.744 430.763 245.043 430.88C245.341 430.987 245.661 431.04 246.003 431.04C246.344 431.04 246.664 430.987 246.963 430.88C247.261 430.763 247.517 430.603 247.731 430.4C247.955 430.187 248.131 429.936 248.259 429.648C248.387 429.349 248.451 429.013 248.451 428.64C248.451 428.277 248.387 427.947 248.259 427.648C248.131 427.349 247.955 427.099 247.731 426.896C247.517 426.683 247.261 426.523 246.963 426.416C246.664 426.299 246.344 426.24 246.003 426.24Z" fill="#333333"/>
<rect width="408" height="36" transform="translate(473 409)" fill="#B056BC" fill-opacity="0.2"/>
<path d="M675.819 425.392L675.851 425.424C676.064 425.307 676.309 425.221 676.587 425.168C676.875 425.115 677.136 425.088 677.371 425.088C677.861 425.088 678.315 425.173 678.731 425.344C679.157 425.515 679.52 425.76 679.819 426.08C680.128 426.389 680.368 426.763 680.539 427.2C680.709 427.637 680.795 428.117 680.795 428.64C680.795 429.195 680.699 429.691 680.507 430.128C680.315 430.565 680.048 430.939 679.707 431.248C679.365 431.547 678.96 431.781 678.491 431.952C678.032 432.112 677.536 432.192 677.003 432.192C676.469 432.192 675.968 432.112 675.499 431.952C675.04 431.781 674.64 431.547 674.299 431.248C673.957 430.939 673.691 430.565 673.499 430.128C673.307 429.691 673.211 429.195 673.211 428.64C673.211 427.989 673.312 427.419 673.515 426.928C673.717 426.437 673.973 425.947 674.283 425.456L677.291 420.672H678.859L675.819 425.392ZM677.003 426.24C676.661 426.24 676.341 426.299 676.043 426.416C675.744 426.523 675.483 426.683 675.259 426.896C675.045 427.099 674.875 427.349 674.747 427.648C674.619 427.947 674.555 428.277 674.555 428.64C674.555 429.013 674.619 429.349 674.747 429.648C674.875 429.936 675.045 430.187 675.259 430.4C675.483 430.603 675.744 430.763 676.043 430.88C676.341 430.987 676.661 431.04 677.003 431.04C677.344 431.04 677.664 430.987 677.963 430.88C678.261 430.763 678.517 430.603 678.731 430.4C678.955 430.187 679.131 429.936 679.259 429.648C679.387 429.349 679.451 429.013 679.451 428.64C679.451 428.277 679.387 427.947 679.259 427.648C679.131 427.349 678.955 427.099 678.731 426.896C678.517 426.683 678.261 426.523 677.963 426.416C677.664 426.299 677.344 426.24 677.003 426.24Z" fill="#333333"/>
<rect width="49" height="36" transform="translate(42 109)" fill="#B056BC" fill-opacity="0.2"/>
<path d="M67.8147 132H66.4707V122.4H66.4387L64.4067 124.112L63.6067 123.136L66.6467 120.672H67.8147V132Z" fill="#333333"/>
<rect width="49" height="36" transform="translate(329 109)" fill="#B056BC" fill-opacity="0.2"/>
<path d="M354.815 132H353.471V122.4H353.439L351.407 124.112L350.607 123.136L353.647 120.672H354.815V132Z" fill="#333333"/>
<rect width="49" height="36" transform="translate(617 109)" fill="#B056BC" fill-opacity="0.2"/>
<path d="M642.815 132H641.471V122.4H641.439L639.407 124.112L638.607 123.136L641.647 120.672H642.815V132Z" fill="#333333"/>
<rect width="49" height="36" transform="translate(186 109)" fill="#B056BC" fill-opacity="0.2"/>
<path d="M211.815 132H210.471V122.4H210.439L208.407 124.112L207.607 123.136L210.647 120.672H211.815V132Z" fill="#333333"/>
<rect width="49" height="36" transform="translate(473 109)" fill="#B056BC" fill-opacity="0.2"/>
<path d="M498.815 132H497.471V122.4H497.439L495.407 124.112L494.607 123.136L497.647 120.672H498.815V132Z" fill="#333333"/>
<rect width="49" height="36" transform="translate(761 109)" fill="#B056BC" fill-opacity="0.2"/>
<path d="M786.815 132H785.471V122.4H785.439L783.407 124.112L782.607 123.136L785.647 120.672H786.815V132Z" fill="#333333"/>
<rect width="49" height="36" transform="translate(114 109)" fill="#B056BC" fill-opacity="0.2"/>
<path d="M139.815 132H138.471V122.4H138.439L136.407 124.112L135.607 123.136L138.647 120.672H139.815V132Z" fill="#333333"/>
<rect width="49" height="36" transform="translate(401 109)" fill="#B056BC" fill-opacity="0.2"/>
<path d="M426.815 132H425.471V122.4H425.439L423.407 124.112L422.607 123.136L425.647 120.672H426.815V132Z" fill="#333333"/>
<rect width="49" height="36" transform="translate(689 109)" fill="#B056BC" fill-opacity="0.2"/>
<path d="M714.815 132H713.471V122.4H713.439L711.407 124.112L710.607 123.136L713.647 120.672H714.815V132Z" fill="#333333"/>
<rect width="49" height="36" transform="translate(258 109)" fill="#B056BC" fill-opacity="0.2"/>
<path d="M283.815 132H282.471V122.4H282.439L280.407 124.112L279.607 123.136L282.647 120.672H283.815V132Z" fill="#333333"/>
<rect width="49" height="36" transform="translate(545 109)" fill="#B056BC" fill-opacity="0.2"/>
<path d="M570.815 132H569.471V122.4H569.439L567.407 124.112L566.607 123.136L569.647 120.672H570.815V132Z" fill="#333333"/>
<rect width="49" height="36" transform="translate(833 109)" fill="#B056BC" fill-opacity="0.2"/>
<path d="M858.815 132H857.471V122.4H857.439L855.407 124.112L854.607 123.136L857.647 120.672H858.815V132Z" fill="#333333"/>
<defs>
<filter id="filter0_d_112_26550" x="0" y="0" width="921" height="494" filterUnits="userSpaceOnUse" color-interpolation-filters="sRGB">
<feFlood flood-opacity="0" result="BackgroundImageFix"/>
<feColorMatrix in="SourceAlpha" type="matrix" values="0 0 0 0 0 0 0 0 0 0 0 0 0 0 0 0 0 0 127 0" result="hardAlpha"/>
<feOffset/>
<feGaussianBlur stdDeviation="5"/>
<feColorMatrix type="matrix" values="0 0 0 0 0 0 0 0 0 0 0 0 0 0 0 0 0 0 0.5 0"/>
<feBlend mode="normal" in2="BackgroundImageFix" result="effect1_dropShadow_112_26550"/>
<feBlend mode="normal" in="SourceGraphic" in2="effect1_dropShadow_112_26550" result="shape"/>
</filter>
<clipPath id="clip0_112_26550">
<rect width="901" height="474" fill="white" transform="translate(10 10)"/>
</clipPath>
<clipPath id="clip1_112_26550">
<rect width="901" height="47" fill="white" transform="translate(10 10)"/>
</clipPath>
<clipPath id="clip2_112_26550">
<rect width="901" height="47" fill="white" transform="translate(10 10)"/>
</clipPath>
<clipPath id="clip3_112_26550">
<rect width="61" height="15" fill="white" transform="translate(20 25)"/>
</clipPath>
</defs>
</svg>
