<svg width="2658" height="1658" viewBox="0 0 2658 1658" fill="none" xmlns="http://www.w3.org/2000/svg">
<rect x="0.5" y="0.5" width="2657" height="1657" fill="white"/>
<path d="M70.16 57.92C67.76 55.8 64.68 54.96 61.48 54.96C55.92 54.96 50.68 58.12 50.68 64.16C50.68 73.6 63.96 70.8 63.96 76C63.96 78 61.68 78.96 59.64 78.96C57.56 78.96 55.48 77.96 54.2 76.28L49.76 81.16C52.44 83.64 55.64 84.72 59.28 84.72C65.12 84.72 70.2 81.72 70.2 75.4C70.2 65.48 57.16 68.8 57.16 63.64C57.16 61.52 59.6 60.72 61.36 60.72C62.88 60.72 64.88 61.32 65.88 62.6L70.16 57.92ZM74.1688 84H80.1688V64.56H74.1688V84ZM73.6888 58.44C73.6888 60.36 75.2488 61.92 77.1688 61.92C79.0888 61.92 80.6488 60.36 80.6488 58.44C80.6488 56.52 79.0888 54.96 77.1688 54.96C75.2488 54.96 73.6888 56.52 73.6888 58.44ZM83.7194 84H100.999V79.2H90.1994L100.759 70.32V64.56H83.9594V69.36H93.7994L83.7194 78V84ZM118.679 77.56C117.679 78.92 116.359 79.92 114.399 79.92C112.079 79.92 110.359 78.44 109.879 76.16H123.799V74.28C123.799 68.08 120.279 64.08 114.679 64.08C108.679 64.08 103.879 68.08 103.879 74.28C103.879 80.48 108.679 84.48 114.679 84.48C117.799 84.48 120.959 83.08 122.879 80.64L118.679 77.56ZM109.879 72.08C110.039 70.2 111.479 68.4 114.119 68.4C116.279 68.4 117.839 70.08 117.799 72.08H109.879ZM127.568 80.56C127.568 82.6 129.208 84.24 131.248 84.24C133.288 84.24 134.928 82.6 134.928 80.56C134.928 78.52 133.288 76.88 131.248 76.88C129.208 76.88 127.568 78.52 127.568 80.56ZM127.568 67.76C127.568 69.8 129.208 71.44 131.248 71.44C133.288 71.44 134.928 69.8 134.928 67.76C134.928 65.72 133.288 64.08 131.248 64.08C129.208 64.08 127.568 65.72 127.568 67.76ZM151.88 84H158.12V63.84H158.2L170.56 84H178.72V55.68H172.48V75.36H172.4L160.36 55.68H151.88V84ZM197.937 77.56C196.937 78.92 195.617 79.92 193.657 79.92C191.337 79.92 189.617 78.44 189.137 76.16H203.057V74.28C203.057 68.08 199.537 64.08 193.937 64.08C187.937 64.08 183.137 68.08 183.137 74.28C183.137 80.48 187.937 84.48 193.937 84.48C197.057 84.48 200.217 83.08 202.137 80.64L197.937 77.56ZM189.137 72.08C189.297 70.2 190.737 68.4 193.377 68.4C195.537 68.4 197.097 70.08 197.057 72.08H189.137ZM221.386 66.64C219.586 64.72 216.746 64.08 214.186 64.08C210.106 64.08 206.026 66.08 206.026 70.64C206.026 78.04 216.146 75.4 216.146 78.52C216.146 79.56 214.786 79.92 213.426 79.92C211.626 79.92 210.306 79.16 209.186 77.8L205.546 81.84C207.466 83.8 210.466 84.48 213.186 84.48C217.346 84.48 222.146 83.04 222.146 78.08C222.146 70.68 212.026 73.12 212.026 70.24C212.026 69.08 213.226 68.64 214.226 68.64C215.666 68.64 216.826 69.2 217.706 70.28L221.386 66.64ZM238.462 64.56H233.182V58.8H227.182V64.56H223.342V69.36H227.182V78.6C227.182 82.84 230.262 84.48 234.262 84.48C235.662 84.48 237.142 84.36 238.462 83.88V78.88C237.942 79.36 236.662 79.44 236.022 79.44C233.422 79.44 233.182 77.92 233.182 75.84V69.36H238.462V64.56ZM255.711 77.56C254.711 78.92 253.391 79.92 251.431 79.92C249.111 79.92 247.391 78.44 246.911 76.16H260.831V74.28C260.831 68.08 257.311 64.08 251.711 64.08C245.711 64.08 240.911 68.08 240.911 74.28C240.911 80.48 245.711 84.48 251.711 84.48C254.831 84.48 257.991 83.08 259.911 80.64L255.711 77.56ZM246.911 72.08C247.071 70.2 248.511 68.4 251.151 68.4C253.311 68.4 254.871 70.08 254.831 72.08H246.911ZM284.879 53.76H278.879V66.64H278.799C277.439 64.76 275.119 64.08 272.639 64.08C267.119 64.08 263.759 69.04 263.759 74.44C263.759 80.32 267.559 84.48 273.319 84.48C276.039 84.48 278.359 82.84 279.279 81.44H279.359V84H284.879V53.76ZM279.359 74.28C279.359 77.2 277.559 79.2 274.559 79.2C271.559 79.2 269.759 77.2 269.759 74.28C269.759 71.36 271.559 69.36 274.559 69.36C277.559 69.36 279.359 71.36 279.359 74.28ZM301.311 54V94H306.351V54H301.311ZM348.614 67.2H337.534V72.96H342.614V77.56C341.454 78.2 339.454 78.96 336.734 78.96C331.414 78.96 327.934 75.12 327.934 69.84C327.934 64.56 331.414 60.72 336.734 60.72C339.894 60.72 341.934 61.64 343.614 63.4L348.014 58.6C345.174 55.96 341.214 54.96 336.734 54.96C327.894 54.96 321.454 60.76 321.454 69.84C321.454 78.92 327.894 84.72 336.734 84.72C340.894 84.72 344.934 83.92 348.614 82V67.2ZM353.347 84H359.347V75.88C359.347 72 359.907 69.36 364.467 69.36C365.347 69.36 366.187 69.52 367.027 69.76V64.28C366.467 64.12 365.707 64.08 365.027 64.08C362.387 64.08 360.707 65.32 359.427 67.68H359.347V64.56H353.347V84ZM369.716 84H375.716V64.56H369.716V84ZM369.236 58.44C369.236 60.36 370.796 61.92 372.716 61.92C374.636 61.92 376.196 60.36 376.196 58.44C376.196 56.52 374.636 54.96 372.716 54.96C370.796 54.96 369.236 56.52 369.236 58.44ZM400.426 53.76H394.426V66.64H394.346C392.986 64.76 390.666 64.08 388.186 64.08C382.666 64.08 379.306 69.04 379.306 74.44C379.306 80.32 383.106 84.48 388.866 84.48C391.586 84.48 393.906 82.84 394.826 81.44H394.906V84H400.426V53.76ZM394.906 74.28C394.906 77.2 393.106 79.2 390.106 79.2C387.106 79.2 385.306 77.2 385.306 74.28C385.306 71.36 387.106 69.36 390.106 69.36C393.106 69.36 394.906 71.36 394.906 74.28ZM413.942 71.64H404.102V76.44H413.942V71.64ZM431.738 66.64C429.938 64.72 427.098 64.08 424.538 64.08C420.458 64.08 416.378 66.08 416.378 70.64C416.378 78.04 426.498 75.4 426.498 78.52C426.498 79.56 425.138 79.92 423.778 79.92C421.978 79.92 420.658 79.16 419.538 77.8L415.898 81.84C417.818 83.8 420.817 84.48 423.538 84.48C427.698 84.48 432.498 83.04 432.498 78.08C432.498 70.68 422.378 73.12 422.378 70.24C422.378 69.08 423.578 68.64 424.578 68.64C426.018 68.64 427.178 69.2 428.058 70.28L431.738 66.64ZM435.653 84H441.653V64.56H435.653V84ZM435.173 58.44C435.173 60.36 436.733 61.92 438.653 61.92C440.573 61.92 442.133 60.36 442.133 58.44C442.133 56.52 440.573 54.96 438.653 54.96C436.733 54.96 435.173 56.52 435.173 58.44ZM445.204 84H462.484V79.2H451.684L462.244 70.32V64.56H445.444V69.36H455.284L445.204 78V84ZM480.164 77.56C479.164 78.92 477.844 79.92 475.884 79.92C473.564 79.92 471.844 78.44 471.364 76.16H485.284V74.28C485.284 68.08 481.764 64.08 476.164 64.08C470.164 64.08 465.364 68.08 465.364 74.28C465.364 80.48 470.164 84.48 476.164 84.48C479.284 84.48 482.444 83.08 484.364 80.64L480.164 77.56ZM471.364 72.08C471.524 70.2 472.964 68.4 475.604 68.4C477.764 68.4 479.324 70.08 479.284 72.08H471.364ZM489.053 80.56C489.053 82.6 490.693 84.24 492.733 84.24C494.773 84.24 496.413 82.6 496.413 80.56C496.413 78.52 494.773 76.88 492.733 76.88C490.693 76.88 489.053 78.52 489.053 80.56ZM489.053 67.76C489.053 69.8 490.693 71.44 492.733 71.44C494.773 71.44 496.413 69.8 496.413 67.76C496.413 65.72 494.773 64.08 492.733 64.08C490.693 64.08 489.053 65.72 489.053 67.76ZM513.364 84H519.604V72.68H522.684L528.604 84H536.084L528.884 72.04C532.884 71.32 535.004 68.24 535.004 64.28C535.004 57.68 530.124 55.68 524.324 55.68H513.364V84ZM519.604 60.96H523.684C525.964 60.96 528.524 61.4 528.524 64.24C528.524 67.32 525.564 67.4 523.284 67.4H519.604V60.96ZM552.742 77.56C551.742 78.92 550.422 79.92 548.462 79.92C546.142 79.92 544.422 78.44 543.942 76.16H557.862V74.28C557.862 68.08 554.342 64.08 548.742 64.08C542.742 64.08 537.942 68.08 537.942 74.28C537.942 80.48 542.742 84.48 548.742 84.48C551.862 84.48 555.022 83.08 556.942 80.64L552.742 77.56ZM543.942 72.08C544.102 70.2 545.542 68.4 548.182 68.4C550.342 68.4 551.902 70.08 551.862 72.08H543.942ZM576.191 66.64C574.391 64.72 571.551 64.08 568.991 64.08C564.911 64.08 560.831 66.08 560.831 70.64C560.831 78.04 570.951 75.4 570.951 78.52C570.951 79.56 569.591 79.92 568.231 79.92C566.431 79.92 565.111 79.16 563.991 77.8L560.351 81.84C562.271 83.8 565.271 84.48 567.991 84.48C572.151 84.48 576.951 83.04 576.951 78.08C576.951 70.68 566.831 73.12 566.831 70.24C566.831 69.08 568.031 68.64 569.031 68.64C570.471 68.64 571.631 69.2 572.511 70.28L576.191 66.64ZM580.586 93.12H586.586V81.92H586.666C588.026 83.8 590.346 84.48 592.826 84.48C598.346 84.48 601.706 79.52 601.706 74.12C601.706 68.24 597.906 64.08 592.146 64.08C589.426 64.08 587.106 65.72 586.186 67.12H586.106V64.56H580.586V93.12ZM586.106 74.28C586.106 71.36 587.906 69.36 590.906 69.36C593.906 69.36 595.706 71.36 595.706 74.28C595.706 77.2 593.906 79.2 590.906 79.2C587.906 79.2 586.106 77.2 586.106 74.28ZM604.502 74.28C604.502 80.48 609.302 84.48 615.302 84.48C621.302 84.48 626.102 80.48 626.102 74.28C626.102 68.08 621.302 64.08 615.302 64.08C609.302 64.08 604.502 68.08 604.502 74.28ZM610.502 74.28C610.502 71.36 612.302 69.36 615.302 69.36C618.302 69.36 620.102 71.36 620.102 74.28C620.102 77.2 618.302 79.2 615.302 79.2C612.302 79.2 610.502 77.2 610.502 74.28ZM629.636 84H635.636V74.32C635.636 71.8 636.116 69.36 639.236 69.36C642.316 69.36 642.356 72.24 642.356 74.48V84H648.356V73.28C648.356 68.08 647.236 64.08 641.156 64.08C638.236 64.08 636.276 65.68 635.476 67.2H635.396V64.56H629.636V84ZM667.284 66.64C665.484 64.72 662.644 64.08 660.084 64.08C656.004 64.08 651.924 66.08 651.924 70.64C651.924 78.04 662.044 75.4 662.044 78.52C662.044 79.56 660.684 79.92 659.324 79.92C657.524 79.92 656.204 79.16 655.084 77.8L651.444 81.84C653.364 83.8 656.364 84.48 659.084 84.48C663.244 84.48 668.044 83.04 668.044 78.08C668.044 70.68 657.924 73.12 657.924 70.24C657.924 69.08 659.124 68.64 660.124 68.64C661.564 68.64 662.724 69.2 663.604 70.28L667.284 66.64ZM671.2 84H677.2V64.56H671.2V84ZM670.72 58.44C670.72 60.36 672.28 61.92 674.2 61.92C676.12 61.92 677.68 60.36 677.68 58.44C677.68 56.52 676.12 54.96 674.2 54.96C672.28 54.96 670.72 56.52 670.72 58.44ZM687.511 84H693.871L701.551 64.56H695.511L690.951 77.76H690.871L685.951 64.56H679.471L687.511 84ZM717.937 77.56C716.937 78.92 715.617 79.92 713.657 79.92C711.337 79.92 709.617 78.44 709.137 76.16H723.057V74.28C723.057 68.08 719.537 64.08 713.937 64.08C707.937 64.08 703.137 68.08 703.137 74.28C703.137 80.48 707.937 84.48 713.937 84.48C717.057 84.48 720.217 83.08 722.137 80.64L717.937 77.56ZM709.137 72.08C709.297 70.2 710.737 68.4 713.377 68.4C715.537 68.4 717.097 70.08 717.057 72.08H709.137Z" fill="black"/>
<rect width="851" height="100" transform="translate(49 123)" fill="white"/>
<g clip-path="url(#clip0_99_26094)">
<rect x="111.999" y="123" width="33" height="100" fill="#FFBDBD" fill-opacity="0.3"/>
<g clip-path="url(#clip1_99_26094)">
<rect x="175.003" y="123" width="33" height="100" fill="#FFBDBD" fill-opacity="0.3"/>
</g>
<g clip-path="url(#clip2_99_26094)">
<rect x="238.006" y="123" width="33" height="100" fill="#FFBDBD" fill-opacity="0.3"/>
</g>
<g clip-path="url(#clip3_99_26094)">
<rect x="301.008" y="123" width="33" height="100" fill="#FFBDBD" fill-opacity="0.3"/>
</g>
<g clip-path="url(#clip4_99_26094)">
<rect x="364.011" y="123" width="33" height="100" fill="#FFBDBD" fill-opacity="0.3"/>
</g>
<g clip-path="url(#clip5_99_26094)">
<rect x="427.014" y="123" width="33" height="100" fill="#FFBDBD" fill-opacity="0.3"/>
</g>
<g clip-path="url(#clip6_99_26094)">
<rect x="488.983" y="123" width="33" height="100" fill="#FFBDBD" fill-opacity="0.3"/>
</g>
<g clip-path="url(#clip7_99_26094)">
<rect x="551.986" y="123" width="33" height="100" fill="#FFBDBD" fill-opacity="0.3"/>
</g>
<g clip-path="url(#clip8_99_26094)">
<rect x="614.989" y="123" width="33" height="100" fill="#FFBDBD" fill-opacity="0.3"/>
</g>
<g clip-path="url(#clip9_99_26094)">
<rect x="677.992" y="123" width="33" height="100" fill="#FFBDBD" fill-opacity="0.3"/>
</g>
<g clip-path="url(#clip10_99_26094)">
<rect x="740.994" y="123" width="33" height="100" fill="#FFBDBD" fill-opacity="0.3"/>
</g>
<g clip-path="url(#clip11_99_26094)">
<rect x="803.997" y="123" width="33" height="100" fill="#FFBDBD" fill-opacity="0.3"/>
</g>
</g>
<path d="M70.16 255.92C67.76 253.8 64.68 252.96 61.48 252.96C55.92 252.96 50.68 256.12 50.68 262.16C50.68 271.6 63.96 268.8 63.96 274C63.96 276 61.68 276.96 59.64 276.96C57.56 276.96 55.48 275.96 54.2 274.28L49.76 279.16C52.44 281.64 55.64 282.72 59.28 282.72C65.12 282.72 70.2 279.72 70.2 273.4C70.2 263.48 57.16 266.8 57.16 261.64C57.16 259.52 59.6 258.72 61.36 258.72C62.88 258.72 64.88 259.32 65.88 260.6L70.16 255.92ZM74.1688 282H80.1688V262.56H74.1688V282ZM73.6888 256.44C73.6888 258.36 75.2488 259.92 77.1688 259.92C79.0888 259.92 80.6488 258.36 80.6488 256.44C80.6488 254.52 79.0888 252.96 77.1688 252.96C75.2488 252.96 73.6888 254.52 73.6888 256.44ZM83.7194 282H100.999V277.2H90.1994L100.759 268.32V262.56H83.9594V267.36H93.7994L83.7194 276V282ZM118.679 275.56C117.679 276.92 116.359 277.92 114.399 277.92C112.079 277.92 110.359 276.44 109.879 274.16H123.799V272.28C123.799 266.08 120.279 262.08 114.679 262.08C108.679 262.08 103.879 266.08 103.879 272.28C103.879 278.48 108.679 282.48 114.679 282.48C117.799 282.48 120.959 281.08 122.879 278.64L118.679 275.56ZM109.879 270.08C110.039 268.2 111.479 266.4 114.119 266.4C116.279 266.4 117.839 268.08 117.799 270.08H109.879ZM127.568 278.56C127.568 280.6 129.208 282.24 131.248 282.24C133.288 282.24 134.928 280.6 134.928 278.56C134.928 276.52 133.288 274.88 131.248 274.88C129.208 274.88 127.568 276.52 127.568 278.56ZM127.568 265.76C127.568 267.8 129.208 269.44 131.248 269.44C133.288 269.44 134.928 267.8 134.928 265.76C134.928 263.72 133.288 262.08 131.248 262.08C129.208 262.08 127.568 263.72 127.568 265.76ZM149 282H156.4L163.12 270.6L170.04 282H177.88L167.64 267.08L176.8 253.68H169.24L163.44 263.6L157.4 253.68H149.56L158.92 267.2L149 282ZM199.027 255.92C196.627 253.8 193.547 252.96 190.347 252.96C184.787 252.96 179.547 256.12 179.547 262.16C179.547 271.6 192.827 268.8 192.827 274C192.827 276 190.547 276.96 188.507 276.96C186.427 276.96 184.347 275.96 183.067 274.28L178.627 279.16C181.307 281.64 184.507 282.72 188.147 282.72C193.987 282.72 199.067 279.72 199.067 273.4C199.067 263.48 186.027 266.8 186.027 261.64C186.027 259.52 188.467 258.72 190.227 258.72C191.747 258.72 193.747 259.32 194.747 260.6L199.027 255.92ZM214.592 252V292H219.632V252H214.592ZM261.895 265.2H250.815V270.96H255.895V275.56C254.735 276.2 252.735 276.96 250.015 276.96C244.695 276.96 241.215 273.12 241.215 267.84C241.215 262.56 244.695 258.72 250.015 258.72C253.175 258.72 255.215 259.64 256.895 261.4L261.295 256.6C258.455 253.96 254.495 252.96 250.015 252.96C241.175 252.96 234.735 258.76 234.735 267.84C234.735 276.92 241.175 282.72 250.015 282.72C254.175 282.72 258.215 281.92 261.895 280V265.2ZM266.628 282H272.628V273.88C272.628 270 273.188 267.36 277.748 267.36C278.628 267.36 279.468 267.52 280.308 267.76V262.28C279.748 262.12 278.988 262.08 278.308 262.08C275.668 262.08 273.988 263.32 272.708 265.68H272.628V262.56H266.628V282ZM282.997 282H288.997V262.56H282.997V282ZM282.517 256.44C282.517 258.36 284.077 259.92 285.997 259.92C287.917 259.92 289.477 258.36 289.477 256.44C289.477 254.52 287.917 252.96 285.997 252.96C284.077 252.96 282.517 254.52 282.517 256.44ZM313.708 251.76H307.708V264.64H307.628C306.268 262.76 303.948 262.08 301.467 262.08C295.948 262.08 292.588 267.04 292.588 272.44C292.588 278.32 296.388 282.48 302.148 282.48C304.868 282.48 307.188 280.84 308.108 279.44H308.188V282H313.708V251.76ZM308.188 272.28C308.188 275.2 306.388 277.2 303.388 277.2C300.388 277.2 298.588 275.2 298.588 272.28C298.588 269.36 300.388 267.36 303.388 267.36C306.388 267.36 308.188 269.36 308.188 272.28ZM327.223 269.64H317.383V274.44H327.223V269.64ZM345.019 264.64C343.219 262.72 340.379 262.08 337.819 262.08C333.739 262.08 329.659 264.08 329.659 268.64C329.659 276.04 339.779 273.4 339.779 276.52C339.779 277.56 338.419 277.92 337.059 277.92C335.259 277.92 333.939 277.16 332.819 275.8L329.179 279.84C331.099 281.8 334.099 282.48 336.819 282.48C340.979 282.48 345.779 281.04 345.779 276.08C345.779 268.68 335.659 271.12 335.659 268.24C335.659 267.08 336.859 266.64 337.859 266.64C339.299 266.64 340.459 267.2 341.339 268.28L345.019 264.64ZM348.934 282H354.934V262.56H348.934V282ZM348.454 256.44C348.454 258.36 350.014 259.92 351.934 259.92C353.854 259.92 355.414 258.36 355.414 256.44C355.414 254.52 353.854 252.96 351.934 252.96C350.014 252.96 348.454 254.52 348.454 256.44ZM358.485 282H375.765V277.2H364.965L375.525 268.32V262.56H358.725V267.36H368.565L358.485 276V282ZM393.445 275.56C392.445 276.92 391.125 277.92 389.165 277.92C386.845 277.92 385.125 276.44 384.645 274.16H398.565V272.28C398.565 266.08 395.045 262.08 389.445 262.08C383.445 262.08 378.645 266.08 378.645 272.28C378.645 278.48 383.445 282.48 389.445 282.48C392.565 282.48 395.725 281.08 397.645 278.64L393.445 275.56ZM384.645 270.08C384.805 268.2 386.245 266.4 388.885 266.4C391.045 266.4 392.605 268.08 392.565 270.08H384.645ZM402.334 278.56C402.334 280.6 403.974 282.24 406.014 282.24C408.054 282.24 409.694 280.6 409.694 278.56C409.694 276.52 408.054 274.88 406.014 274.88C403.974 274.88 402.334 276.52 402.334 278.56ZM402.334 265.76C402.334 267.8 403.974 269.44 406.014 269.44C408.054 269.44 409.694 267.8 409.694 265.76C409.694 263.72 408.054 262.08 406.014 262.08C403.974 262.08 402.334 263.72 402.334 265.76ZM437.086 282H442.846V276.32H446.486V271.28H442.846V253.68H436.286L424.726 271.28V276.32H437.086V282ZM437.086 271.28H430.726L437.006 261.52H437.086V271.28ZM449.798 261C449.798 264.08 451.558 266.4 454.598 267.28V267.36C451.198 268.28 449.318 270.72 449.318 274.24C449.318 279.72 454.038 282.48 459.278 282.48C464.518 282.48 469.238 279.72 469.238 274.24C469.238 270.72 467.358 268.28 463.958 267.36V267.28C466.998 266.4 468.758 264.08 468.758 261C468.758 255.8 464.478 253.2 459.278 253.2C454.078 253.2 449.798 255.8 449.798 261ZM455.798 261.84C455.798 260.12 457.198 258.72 459.278 258.72C461.358 258.72 462.758 260.12 462.758 261.84C462.758 263.6 461.358 265 459.278 265C457.198 265 455.798 263.6 455.798 261.84ZM455.318 273.4C455.318 271.4 456.918 269.8 459.278 269.8C461.638 269.8 463.238 271.4 463.238 273.4C463.238 275.36 461.638 276.96 459.278 276.96C456.918 276.96 455.318 275.36 455.318 273.4ZM472.429 267.84C472.429 274.56 474.549 282.48 482.949 282.48C491.349 282.48 493.469 274.56 493.469 267.84C493.469 261.12 491.349 253.2 482.949 253.2C474.549 253.2 472.429 261.12 472.429 267.84ZM478.429 267.84C478.429 264.88 478.629 258.72 482.949 258.72C487.269 258.72 487.469 264.88 487.469 267.84C487.469 270.8 487.269 276.96 482.949 276.96C478.629 276.96 478.429 270.8 478.429 267.84ZM497.461 291.12H503.461V279.92H503.541C504.901 281.8 507.221 282.48 509.701 282.48C515.221 282.48 518.581 277.52 518.581 272.12C518.581 266.24 514.781 262.08 509.021 262.08C506.301 262.08 503.981 263.72 503.061 265.12H502.981V262.56H497.461V291.12ZM502.981 272.28C502.981 269.36 504.781 267.36 507.781 267.36C510.781 267.36 512.581 269.36 512.581 272.28C512.581 275.2 510.781 277.2 507.781 277.2C504.781 277.2 502.981 275.2 502.981 272.28ZM519.657 282H526.657L531.217 275.52L535.457 282H542.537L535.057 271.6L541.377 262.56H534.697L531.377 267.84L527.937 262.56H520.857L527.337 271.6L519.657 282Z" fill="black"/>
<rect width="480" height="100" transform="translate(49 321)" fill="white"/>
<g clip-path="url(#clip12_99_26094)">
<rect opacity="0.25" x="64" y="322" width="12" height="99" fill="#FFBDBD"/>
<rect opacity="0.25" x="104" y="322" width="12" height="99" fill="#FFBDBD"/>
<rect opacity="0.25" x="144" y="322" width="12" height="99" fill="#FFBDBD"/>
<rect opacity="0.25" x="183" y="322" width="12" height="99" fill="#FFBDBD"/>
<rect opacity="0.25" x="223" y="322" width="12" height="99" fill="#FFBDBD"/>
<rect opacity="0.25" x="263" y="322" width="12" height="99" fill="#FFBDBD"/>
<rect opacity="0.25" x="303" y="322" width="12" height="99" fill="#FFBDBD"/>
<rect opacity="0.25" x="343" y="322" width="12" height="99" fill="#FFBDBD"/>
<rect opacity="0.25" x="382" y="322" width="12" height="99" fill="#FFBDBD"/>
<rect opacity="0.25" x="422" y="322" width="12" height="99" fill="#FFBDBD"/>
<rect opacity="0.25" x="462" y="322" width="12" height="99" fill="#FFBDBD"/>
<rect opacity="0.25" x="502" y="322" width="12" height="99" fill="#FFBDBD"/>
</g>
<path d="M70.16 453.92C67.76 451.8 64.68 450.96 61.48 450.96C55.92 450.96 50.68 454.12 50.68 460.16C50.68 469.6 63.96 466.8 63.96 472C63.96 474 61.68 474.96 59.64 474.96C57.56 474.96 55.48 473.96 54.2 472.28L49.76 477.16C52.44 479.64 55.64 480.72 59.28 480.72C65.12 480.72 70.2 477.72 70.2 471.4C70.2 461.48 57.16 464.8 57.16 459.64C57.16 457.52 59.6 456.72 61.36 456.72C62.88 456.72 64.88 457.32 65.88 458.6L70.16 453.92ZM74.1688 480H80.1688V460.56H74.1688V480ZM73.6888 454.44C73.6888 456.36 75.2488 457.92 77.1688 457.92C79.0888 457.92 80.6488 456.36 80.6488 454.44C80.6488 452.52 79.0888 450.96 77.1688 450.96C75.2488 450.96 73.6888 452.52 73.6888 454.44ZM83.7194 480H100.999V475.2H90.1994L100.759 466.32V460.56H83.9594V465.36H93.7994L83.7194 474V480ZM118.679 473.56C117.679 474.92 116.359 475.92 114.399 475.92C112.079 475.92 110.359 474.44 109.879 472.16H123.799V470.28C123.799 464.08 120.279 460.08 114.679 460.08C108.679 460.08 103.879 464.08 103.879 470.28C103.879 476.48 108.679 480.48 114.679 480.48C117.799 480.48 120.959 479.08 122.879 476.64L118.679 473.56ZM109.879 468.08C110.039 466.2 111.479 464.4 114.119 464.4C116.279 464.4 117.839 466.08 117.799 468.08H109.879ZM127.568 476.56C127.568 478.6 129.208 480.24 131.248 480.24C133.288 480.24 134.928 478.6 134.928 476.56C134.928 474.52 133.288 472.88 131.248 472.88C129.208 472.88 127.568 474.52 127.568 476.56ZM127.568 463.76C127.568 465.8 129.208 467.44 131.248 467.44C133.288 467.44 134.928 465.8 134.928 463.76C134.928 461.72 133.288 460.08 131.248 460.08C129.208 460.08 127.568 461.72 127.568 463.76ZM170.16 453.92C167.76 451.8 164.68 450.96 161.48 450.96C155.92 450.96 150.68 454.12 150.68 460.16C150.68 469.6 163.96 466.8 163.96 472C163.96 474 161.68 474.96 159.64 474.96C157.56 474.96 155.48 473.96 154.2 472.28L149.76 477.16C152.44 479.64 155.64 480.72 159.28 480.72C165.12 480.72 170.2 477.72 170.2 471.4C170.2 461.48 157.16 464.8 157.16 459.64C157.16 457.52 159.6 456.72 161.36 456.72C162.88 456.72 164.88 457.32 165.88 458.6L170.16 453.92ZM174.849 480H181.089V458.28H181.169L188.329 480H193.089L200.529 458.28H200.609V480H206.849V451.68H197.449L190.889 470.16H190.809L184.289 451.68H174.849V480ZM223.498 450V490H228.538V450H223.498ZM270.801 463.2H259.721V468.96H264.801V473.56C263.641 474.2 261.641 474.96 258.921 474.96C253.601 474.96 250.121 471.12 250.121 465.84C250.121 460.56 253.601 456.72 258.921 456.72C262.081 456.72 264.121 457.64 265.801 459.4L270.201 454.6C267.361 451.96 263.401 450.96 258.921 450.96C250.081 450.96 243.641 456.76 243.641 465.84C243.641 474.92 250.081 480.72 258.921 480.72C263.081 480.72 267.121 479.92 270.801 478V463.2ZM275.534 480H281.534V471.88C281.534 468 282.094 465.36 286.654 465.36C287.534 465.36 288.374 465.52 289.214 465.76V460.28C288.654 460.12 287.894 460.08 287.214 460.08C284.574 460.08 282.894 461.32 281.614 463.68H281.534V460.56H275.534V480ZM291.903 480H297.903V460.56H291.903V480ZM291.423 454.44C291.423 456.36 292.983 457.92 294.903 457.92C296.823 457.92 298.383 456.36 298.383 454.44C298.383 452.52 296.823 450.96 294.903 450.96C292.983 450.96 291.423 452.52 291.423 454.44ZM322.614 449.76H316.614V462.64H316.534C315.174 460.76 312.854 460.08 310.374 460.08C304.854 460.08 301.494 465.04 301.494 470.44C301.494 476.32 305.294 480.48 311.054 480.48C313.774 480.48 316.094 478.84 317.014 477.44H317.094V480H322.614V449.76ZM317.094 470.28C317.094 473.2 315.294 475.2 312.294 475.2C309.294 475.2 307.494 473.2 307.494 470.28C307.494 467.36 309.294 465.36 312.294 465.36C315.294 465.36 317.094 467.36 317.094 470.28ZM336.129 467.64H326.289V472.44H336.129V467.64ZM353.925 462.64C352.125 460.72 349.285 460.08 346.725 460.08C342.645 460.08 338.565 462.08 338.565 466.64C338.565 474.04 348.685 471.4 348.685 474.52C348.685 475.56 347.325 475.92 345.965 475.92C344.165 475.92 342.845 475.16 341.725 473.8L338.085 477.84C340.005 479.8 343.005 480.48 345.725 480.48C349.885 480.48 354.685 479.04 354.685 474.08C354.685 466.68 344.565 469.12 344.565 466.24C344.565 465.08 345.765 464.64 346.765 464.64C348.205 464.64 349.365 465.2 350.245 466.28L353.925 462.64ZM357.841 480H363.841V460.56H357.841V480ZM357.361 454.44C357.361 456.36 358.921 457.92 360.841 457.92C362.761 457.92 364.321 456.36 364.321 454.44C364.321 452.52 362.761 450.96 360.841 450.96C358.921 450.96 357.361 452.52 357.361 454.44ZM367.391 480H384.671V475.2H373.871L384.431 466.32V460.56H367.631V465.36H377.471L367.391 474V480ZM402.351 473.56C401.351 474.92 400.031 475.92 398.071 475.92C395.751 475.92 394.031 474.44 393.551 472.16H407.471V470.28C407.471 464.08 403.951 460.08 398.351 460.08C392.351 460.08 387.551 464.08 387.551 470.28C387.551 476.48 392.351 480.48 398.351 480.48C401.471 480.48 404.631 479.08 406.551 476.64L402.351 473.56ZM393.551 468.08C393.711 466.2 395.151 464.4 397.791 464.4C399.951 464.4 401.511 466.08 401.471 468.08H393.551ZM411.24 476.56C411.24 478.6 412.88 480.24 414.92 480.24C416.96 480.24 418.6 478.6 418.6 476.56C418.6 474.52 416.96 472.88 414.92 472.88C412.88 472.88 411.24 474.52 411.24 476.56ZM411.24 463.76C411.24 465.8 412.88 467.44 414.92 467.44C416.96 467.44 418.6 465.8 418.6 463.76C418.6 461.72 416.96 460.08 414.92 460.08C412.88 460.08 411.24 461.72 411.24 463.76ZM453.352 451.68H436.232L435.912 467.32C437.792 466.68 439.832 466.28 441.792 466.28C444.912 466.28 448.312 467.24 448.312 470.96C448.312 473.4 446.672 475.2 444.112 475.2C442.032 475.2 440.552 473.84 440.232 471.8L433.952 473.24C435.192 478.04 438.632 480.48 443.512 480.48C449.712 480.48 454.312 476.76 454.312 470.36C454.312 464.56 450.232 461 444.512 461C443.432 461 442.672 461.08 441.992 461.32L442.112 456.96H453.352V451.68ZM469.664 480H475.424V474.32H479.064V469.28H475.424V451.68H468.864L457.304 469.28V474.32H469.664V480ZM469.664 469.28H463.304L469.584 459.52H469.664V469.28ZM481.336 465.84C481.336 472.56 483.456 480.48 491.856 480.48C500.256 480.48 502.376 472.56 502.376 465.84C502.376 459.12 500.256 451.2 491.856 451.2C483.456 451.2 481.336 459.12 481.336 465.84ZM487.336 465.84C487.336 462.88 487.536 456.72 491.856 456.72C496.176 456.72 496.376 462.88 496.376 465.84C496.376 468.8 496.176 474.96 491.856 474.96C487.536 474.96 487.336 468.8 487.336 465.84ZM506.368 489.12H512.368V477.92H512.448C513.808 479.8 516.128 480.48 518.608 480.48C524.128 480.48 527.488 475.52 527.488 470.12C527.488 464.24 523.688 460.08 517.928 460.08C515.208 460.08 512.888 461.72 511.968 463.12H511.888V460.56H506.368V489.12ZM511.888 470.28C511.888 467.36 513.688 465.36 516.688 465.36C519.688 465.36 521.488 467.36 521.488 470.28C521.488 473.2 519.688 475.2 516.688 475.2C513.688 475.2 511.888 473.2 511.888 470.28ZM528.563 480H535.563L540.123 473.52L544.363 480H551.443L543.963 469.6L550.283 460.56H543.603L540.283 465.84L536.843 460.56H529.763L536.243 469.6L528.563 480Z" fill="black"/>
<rect width="576" height="100" transform="translate(49 519)" fill="white"/>
<g clip-path="url(#clip13_99_26094)">
<rect opacity="0.25" x="82" y="519" width="15" height="100" fill="#FFBDBD"/>
<rect opacity="0.25" x="127" y="519" width="15" height="100" fill="#FFBDBD"/>
<rect opacity="0.25" x="172" y="519" width="15" height="100" fill="#FFBDBD"/>
<rect opacity="0.25" x="217" y="519" width="15" height="100" fill="#FFBDBD"/>
<rect opacity="0.25" x="262" y="519" width="15" height="100" fill="#FFBDBD"/>
<rect opacity="0.25" x="307" y="519" width="15" height="100" fill="#FFBDBD"/>
<rect opacity="0.25" x="352" y="519" width="15" height="100" fill="#FFBDBD"/>
<rect opacity="0.25" x="397" y="519" width="15" height="100" fill="#FFBDBD"/>
<rect opacity="0.25" x="442" y="519" width="15" height="100" fill="#FFBDBD"/>
<rect opacity="0.25" x="487" y="519" width="15" height="100" fill="#FFBDBD"/>
<rect opacity="0.25" x="532" y="519" width="15" height="100" fill="#FFBDBD"/>
<rect opacity="0.25" x="577" y="519" width="15" height="100" fill="#FFBDBD"/>
</g>
<path d="M70.16 651.92C67.76 649.8 64.68 648.96 61.48 648.96C55.92 648.96 50.68 652.12 50.68 658.16C50.68 667.6 63.96 664.8 63.96 670C63.96 672 61.68 672.96 59.64 672.96C57.56 672.96 55.48 671.96 54.2 670.28L49.76 675.16C52.44 677.64 55.64 678.72 59.28 678.72C65.12 678.72 70.2 675.72 70.2 669.4C70.2 659.48 57.16 662.8 57.16 657.64C57.16 655.52 59.6 654.72 61.36 654.72C62.88 654.72 64.88 655.32 65.88 656.6L70.16 651.92ZM74.1688 678H80.1688V658.56H74.1688V678ZM73.6888 652.44C73.6888 654.36 75.2488 655.92 77.1688 655.92C79.0888 655.92 80.6488 654.36 80.6488 652.44C80.6488 650.52 79.0888 648.96 77.1688 648.96C75.2488 648.96 73.6888 650.52 73.6888 652.44ZM83.7194 678H100.999V673.2H90.1994L100.759 664.32V658.56H83.9594V663.36H93.7994L83.7194 672V678ZM118.679 671.56C117.679 672.92 116.359 673.92 114.399 673.92C112.079 673.92 110.359 672.44 109.879 670.16H123.799V668.28C123.799 662.08 120.279 658.08 114.679 658.08C108.679 658.08 103.879 662.08 103.879 668.28C103.879 674.48 108.679 678.48 114.679 678.48C117.799 678.48 120.959 677.08 122.879 674.64L118.679 671.56ZM109.879 666.08C110.039 664.2 111.479 662.4 114.119 662.4C116.279 662.4 117.839 664.08 117.799 666.08H109.879ZM127.568 674.56C127.568 676.6 129.208 678.24 131.248 678.24C133.288 678.24 134.928 676.6 134.928 674.56C134.928 672.52 133.288 670.88 131.248 670.88C129.208 670.88 127.568 672.52 127.568 674.56ZM127.568 661.76C127.568 663.8 129.208 665.44 131.248 665.44C133.288 665.44 134.928 663.8 134.928 661.76C134.928 659.72 133.288 658.08 131.248 658.08C129.208 658.08 127.568 659.72 127.568 661.76ZM151.88 678H158.12V656.28H158.2L165.36 678H170.12L177.56 656.28H177.64V678H183.88V649.68H174.48L167.92 668.16H167.84L161.32 649.68H151.88V678ZM189.653 678H199.853C208.293 678 215.773 673.08 215.773 663.92C215.773 653.56 208.133 649.68 199.013 649.68H189.653V678ZM195.893 655.44H199.573C204.853 655.44 209.293 658.04 209.293 663.6C209.293 670.04 204.933 672.24 199.133 672.24H195.893V655.44ZM230.881 648V688H235.921V648H230.881ZM278.184 661.2H267.104V666.96H272.184V671.56C271.024 672.2 269.024 672.96 266.304 672.96C260.984 672.96 257.504 669.12 257.504 663.84C257.504 658.56 260.984 654.72 266.304 654.72C269.464 654.72 271.504 655.64 273.184 657.4L277.584 652.6C274.744 649.96 270.784 648.96 266.304 648.96C257.464 648.96 251.024 654.76 251.024 663.84C251.024 672.92 257.464 678.72 266.304 678.72C270.464 678.72 274.504 677.92 278.184 676V661.2ZM282.917 678H288.917V669.88C288.917 666 289.477 663.36 294.037 663.36C294.917 663.36 295.757 663.52 296.597 663.76V658.28C296.037 658.12 295.277 658.08 294.597 658.08C291.957 658.08 290.277 659.32 288.997 661.68H288.917V658.56H282.917V678ZM299.286 678H305.286V658.56H299.286V678ZM298.806 652.44C298.806 654.36 300.366 655.92 302.286 655.92C304.206 655.92 305.766 654.36 305.766 652.44C305.766 650.52 304.206 648.96 302.286 648.96C300.366 648.96 298.806 650.52 298.806 652.44ZM329.997 647.76H323.997V660.64H323.917C322.557 658.76 320.237 658.08 317.757 658.08C312.237 658.08 308.877 663.04 308.877 668.44C308.877 674.32 312.677 678.48 318.437 678.48C321.157 678.48 323.477 676.84 324.397 675.44H324.477V678H329.997V647.76ZM324.477 668.28C324.477 671.2 322.677 673.2 319.677 673.2C316.677 673.2 314.877 671.2 314.877 668.28C314.877 665.36 316.677 663.36 319.677 663.36C322.677 663.36 324.477 665.36 324.477 668.28ZM343.512 665.64H333.672V670.44H343.512V665.64ZM361.308 660.64C359.508 658.72 356.668 658.08 354.108 658.08C350.028 658.08 345.948 660.08 345.948 664.64C345.948 672.04 356.068 669.4 356.068 672.52C356.068 673.56 354.708 673.92 353.348 673.92C351.548 673.92 350.228 673.16 349.108 671.8L345.468 675.84C347.388 677.8 350.388 678.48 353.108 678.48C357.268 678.48 362.068 677.04 362.068 672.08C362.068 664.68 351.948 667.12 351.948 664.24C351.948 663.08 353.148 662.64 354.148 662.64C355.588 662.64 356.748 663.2 357.628 664.28L361.308 660.64ZM365.223 678H371.223V658.56H365.223V678ZM364.743 652.44C364.743 654.36 366.303 655.92 368.223 655.92C370.143 655.92 371.703 654.36 371.703 652.44C371.703 650.52 370.143 648.96 368.223 648.96C366.303 648.96 364.743 650.52 364.743 652.44ZM374.774 678H392.054V673.2H381.254L391.814 664.32V658.56H375.014V663.36H384.854L374.774 672V678ZM409.734 671.56C408.734 672.92 407.414 673.92 405.454 673.92C403.134 673.92 401.414 672.44 400.934 670.16H414.854V668.28C414.854 662.08 411.334 658.08 405.734 658.08C399.734 658.08 394.934 662.08 394.934 668.28C394.934 674.48 399.734 678.48 405.734 678.48C408.854 678.48 412.014 677.08 413.934 674.64L409.734 671.56ZM400.934 666.08C401.094 664.2 402.534 662.4 405.174 662.4C407.334 662.4 408.894 664.08 408.854 666.08H400.934ZM418.623 674.56C418.623 676.6 420.263 678.24 422.303 678.24C424.343 678.24 425.983 676.6 425.983 674.56C425.983 672.52 424.343 670.88 422.303 670.88C420.263 670.88 418.623 672.52 418.623 674.56ZM418.623 661.76C418.623 663.8 420.263 665.44 422.303 665.44C424.343 665.44 425.983 663.8 425.983 661.76C425.983 659.72 424.343 658.08 422.303 658.08C420.263 658.08 418.623 659.72 418.623 661.76ZM443.935 678H450.935L462.255 654.96V649.68H441.535V655.2H455.535L443.935 678ZM465.687 678H485.447V672.72H472.887L481.487 665.32C483.647 663.44 485.207 661.36 485.207 657.72C485.207 652.04 481.207 649.2 476.047 649.2C470.487 649.2 466.407 652.04 466.047 657.88L472.047 658.32C472.207 656.28 473.527 654.72 475.727 654.72C477.567 654.72 479.207 655.88 479.207 657.8C479.207 659.52 477.807 660.72 476.687 661.76L465.687 671.64V678ZM488.718 663.84C488.718 670.56 490.838 678.48 499.238 678.48C507.638 678.48 509.758 670.56 509.758 663.84C509.758 657.12 507.638 649.2 499.238 649.2C490.838 649.2 488.718 657.12 488.718 663.84ZM494.718 663.84C494.718 660.88 494.918 654.72 499.238 654.72C503.558 654.72 503.758 660.88 503.758 663.84C503.758 666.8 503.558 672.96 499.238 672.96C494.918 672.96 494.718 666.8 494.718 663.84ZM513.75 687.12H519.75V675.92H519.83C521.19 677.8 523.51 678.48 525.99 678.48C531.51 678.48 534.87 673.52 534.87 668.12C534.87 662.24 531.07 658.08 525.31 658.08C522.59 658.08 520.27 659.72 519.35 661.12H519.27V658.56H513.75V687.12ZM519.27 668.28C519.27 665.36 521.07 663.36 524.07 663.36C527.07 663.36 528.87 665.36 528.87 668.28C528.87 671.2 527.07 673.2 524.07 673.2C521.07 673.2 519.27 671.2 519.27 668.28ZM535.946 678H542.946L547.506 671.52L551.746 678H558.826L551.346 667.6L557.666 658.56H550.986L547.666 663.84L544.226 658.56H537.146L543.626 667.6L535.946 678Z" fill="black"/>
<rect width="768" height="100" transform="translate(49 717)" fill="white"/>
<rect opacity="0.25" x="88" y="717" width="30" height="100" fill="#FFBDBD"/>
<rect opacity="0.25" x="148" y="717" width="30" height="100" fill="#FFBDBD"/>
<rect opacity="0.25" x="208" y="717" width="30" height="100" fill="#FFBDBD"/>
<rect opacity="0.25" x="268" y="717" width="30" height="100" fill="#FFBDBD"/>
<rect opacity="0.25" x="328" y="717" width="30" height="100" fill="#FFBDBD"/>
<rect opacity="0.25" x="388" y="717" width="30" height="100" fill="#FFBDBD"/>
<rect opacity="0.25" x="448" y="717" width="30" height="100" fill="#FFBDBD"/>
<rect opacity="0.25" x="508" y="717" width="30" height="100" fill="#FFBDBD"/>
<rect opacity="0.25" x="568" y="717" width="30" height="100" fill="#FFBDBD"/>
<rect opacity="0.25" x="628" y="717" width="30" height="100" fill="#FFBDBD"/>
<rect opacity="0.25" x="688" y="717" width="30" height="100" fill="#FFBDBD"/>
<rect opacity="0.25" x="748" y="717" width="30" height="100" fill="#FFBDBD"/>
<path d="M70.16 849.92C67.76 847.8 64.68 846.96 61.48 846.96C55.92 846.96 50.68 850.12 50.68 856.16C50.68 865.6 63.96 862.8 63.96 868C63.96 870 61.68 870.96 59.64 870.96C57.56 870.96 55.48 869.96 54.2 868.28L49.76 873.16C52.44 875.64 55.64 876.72 59.28 876.72C65.12 876.72 70.2 873.72 70.2 867.4C70.2 857.48 57.16 860.8 57.16 855.64C57.16 853.52 59.6 852.72 61.36 852.72C62.88 852.72 64.88 853.32 65.88 854.6L70.16 849.92ZM74.1688 876H80.1688V856.56H74.1688V876ZM73.6888 850.44C73.6888 852.36 75.2488 853.92 77.1688 853.92C79.0888 853.92 80.6488 852.36 80.6488 850.44C80.6488 848.52 79.0888 846.96 77.1688 846.96C75.2488 846.96 73.6888 848.52 73.6888 850.44ZM83.7194 876H100.999V871.2H90.1994L100.759 862.32V856.56H83.9594V861.36H93.7994L83.7194 870V876ZM118.679 869.56C117.679 870.92 116.359 871.92 114.399 871.92C112.079 871.92 110.359 870.44 109.879 868.16H123.799V866.28C123.799 860.08 120.279 856.08 114.679 856.08C108.679 856.08 103.879 860.08 103.879 866.28C103.879 872.48 108.679 876.48 114.679 876.48C117.799 876.48 120.959 875.08 122.879 872.64L118.679 869.56ZM109.879 864.08C110.039 862.2 111.479 860.4 114.119 860.4C116.279 860.4 117.839 862.08 117.799 864.08H109.879ZM127.568 872.56C127.568 874.6 129.208 876.24 131.248 876.24C133.288 876.24 134.928 874.6 134.928 872.56C134.928 870.52 133.288 868.88 131.248 868.88C129.208 868.88 127.568 870.52 127.568 872.56ZM127.568 859.76C127.568 861.8 129.208 863.44 131.248 863.44C133.288 863.44 134.928 861.8 134.928 859.76C134.928 857.72 133.288 856.08 131.248 856.08C129.208 856.08 127.568 857.72 127.568 859.76ZM152.12 876H169.92V870.24H158.36V847.68H152.12V876ZM199.004 859.2H187.924V864.96H193.004V869.56C191.844 870.2 189.844 870.96 187.124 870.96C181.804 870.96 178.324 867.12 178.324 861.84C178.324 856.56 181.804 852.72 187.124 852.72C190.284 852.72 192.324 853.64 194.004 855.4L198.404 850.6C195.564 847.96 191.604 846.96 187.124 846.96C178.284 846.96 171.844 852.76 171.844 861.84C171.844 870.92 178.284 876.72 187.124 876.72C191.284 876.72 195.324 875.92 199.004 874V859.2ZM215.373 846V886H220.413V846H215.373ZM262.676 859.2H251.596V864.96H256.676V869.56C255.516 870.2 253.516 870.96 250.796 870.96C245.476 870.96 241.996 867.12 241.996 861.84C241.996 856.56 245.476 852.72 250.796 852.72C253.956 852.72 255.996 853.64 257.676 855.4L262.076 850.6C259.236 847.96 255.276 846.96 250.796 846.96C241.956 846.96 235.516 852.76 235.516 861.84C235.516 870.92 241.956 876.72 250.796 876.72C254.956 876.72 258.996 875.92 262.676 874V859.2ZM267.409 876H273.409V867.88C273.409 864 273.969 861.36 278.529 861.36C279.409 861.36 280.249 861.52 281.089 861.76V856.28C280.529 856.12 279.769 856.08 279.089 856.08C276.449 856.08 274.769 857.32 273.489 859.68H273.409V856.56H267.409V876ZM283.778 876H289.778V856.56H283.778V876ZM283.298 850.44C283.298 852.36 284.858 853.92 286.778 853.92C288.698 853.92 290.258 852.36 290.258 850.44C290.258 848.52 288.698 846.96 286.778 846.96C284.858 846.96 283.298 848.52 283.298 850.44ZM314.489 845.76H308.489V858.64H308.409C307.049 856.76 304.729 856.08 302.249 856.08C296.729 856.08 293.369 861.04 293.369 866.44C293.369 872.32 297.169 876.48 302.929 876.48C305.649 876.48 307.969 874.84 308.889 873.44H308.969V876H314.489V845.76ZM308.969 866.28C308.969 869.2 307.169 871.2 304.169 871.2C301.169 871.2 299.369 869.2 299.369 866.28C299.369 863.36 301.169 861.36 304.169 861.36C307.169 861.36 308.969 863.36 308.969 866.28ZM328.004 863.64H318.164V868.44H328.004V863.64ZM345.8 858.64C344 856.72 341.16 856.08 338.6 856.08C334.52 856.08 330.44 858.08 330.44 862.64C330.44 870.04 340.56 867.4 340.56 870.52C340.56 871.56 339.2 871.92 337.84 871.92C336.04 871.92 334.72 871.16 333.6 869.8L329.96 873.84C331.88 875.8 334.88 876.48 337.6 876.48C341.76 876.48 346.56 875.04 346.56 870.08C346.56 862.68 336.44 865.12 336.44 862.24C336.44 861.08 337.64 860.64 338.64 860.64C340.08 860.64 341.24 861.2 342.12 862.28L345.8 858.64ZM349.716 876H355.716V856.56H349.716V876ZM349.236 850.44C349.236 852.36 350.796 853.92 352.716 853.92C354.636 853.92 356.196 852.36 356.196 850.44C356.196 848.52 354.636 846.96 352.716 846.96C350.796 846.96 349.236 848.52 349.236 850.44ZM359.266 876H376.546V871.2H365.746L376.306 862.32V856.56H359.506V861.36H369.346L359.266 870V876ZM394.226 869.56C393.226 870.92 391.906 871.92 389.946 871.92C387.626 871.92 385.906 870.44 385.426 868.16H399.346V866.28C399.346 860.08 395.826 856.08 390.226 856.08C384.226 856.08 379.426 860.08 379.426 866.28C379.426 872.48 384.226 876.48 390.226 876.48C393.346 876.48 396.506 875.08 398.426 872.64L394.226 869.56ZM385.426 864.08C385.586 862.2 387.026 860.4 389.666 860.4C391.826 860.4 393.386 862.08 393.346 864.08H385.426ZM403.115 872.56C403.115 874.6 404.755 876.24 406.795 876.24C408.835 876.24 410.475 874.6 410.475 872.56C410.475 870.52 408.835 868.88 406.795 868.88C404.755 868.88 403.115 870.52 403.115 872.56ZM403.115 859.76C403.115 861.8 404.755 863.44 406.795 863.44C408.835 863.44 410.475 861.8 410.475 859.76C410.475 857.72 408.835 856.08 406.795 856.08C404.755 856.08 403.115 857.72 403.115 859.76ZM430.107 876H437.427L443.627 866.32C445.427 863.48 447.027 861 447.027 856.92C447.027 851.08 442.387 847.2 436.467 847.2C430.547 847.2 425.907 851.08 425.907 856.92C425.907 862.08 429.467 866.16 434.787 866.16C435.467 866.16 436.107 866.04 436.747 865.88L430.107 876ZM431.907 857.16C431.907 854.6 433.787 852.72 436.467 852.72C439.147 852.72 441.027 854.6 441.027 857.16C441.027 859.72 439.147 861.6 436.467 861.6C433.787 861.6 431.907 859.72 431.907 857.16ZM466.339 847.68H459.019L452.819 857.36C451.019 860.2 449.419 862.68 449.419 866.76C449.419 872.6 454.059 876.48 459.979 876.48C465.899 876.48 470.539 872.6 470.539 866.76C470.539 861.6 466.979 857.52 461.659 857.52C460.979 857.52 460.339 857.64 459.699 857.8L466.339 847.68ZM464.539 866.52C464.539 869.08 462.659 870.96 459.979 870.96C457.299 870.96 455.419 869.08 455.419 866.52C455.419 863.96 457.299 862.08 459.979 862.08C462.659 862.08 464.539 863.96 464.539 866.52ZM473.211 861.84C473.211 868.56 475.331 876.48 483.731 876.48C492.131 876.48 494.251 868.56 494.251 861.84C494.251 855.12 492.131 847.2 483.731 847.2C475.331 847.2 473.211 855.12 473.211 861.84ZM479.211 861.84C479.211 858.88 479.411 852.72 483.731 852.72C488.051 852.72 488.251 858.88 488.251 861.84C488.251 864.8 488.051 870.96 483.731 870.96C479.411 870.96 479.211 864.8 479.211 861.84ZM498.243 885.12H504.243V873.92H504.323C505.683 875.8 508.003 876.48 510.483 876.48C516.003 876.48 519.363 871.52 519.363 866.12C519.363 860.24 515.562 856.08 509.803 856.08C507.083 856.08 504.763 857.72 503.843 859.12H503.763V856.56H498.243V885.12ZM503.763 866.28C503.763 863.36 505.562 861.36 508.563 861.36C511.563 861.36 513.363 863.36 513.363 866.28C513.363 869.2 511.563 871.2 508.563 871.2C505.562 871.2 503.763 869.2 503.763 866.28ZM520.438 876H527.438L531.998 869.52L536.238 876H543.318L535.838 865.6L542.158 856.56H535.478L532.158 861.84L528.718 856.56H521.638L528.118 865.6L520.438 876Z" fill="black"/>
<rect width="992" height="100" transform="translate(49 915)" fill="white"/>
<g clip-path="url(#clip14_99_26094)">
<rect opacity="0.25" x="80" y="915" width="50" height="100" fill="#FFBDBD"/>
<rect opacity="0.25" x="160" y="915" width="50" height="100" fill="#FFBDBD"/>
<rect opacity="0.25" x="240" y="915" width="50" height="100" fill="#FFBDBD"/>
<rect opacity="0.25" x="320" y="915" width="50" height="100" fill="#FFBDBD"/>
<rect opacity="0.25" x="400" y="915" width="50" height="100" fill="#FFBDBD"/>
<rect opacity="0.25" x="480" y="915" width="50" height="100" fill="#FFBDBD"/>
<rect opacity="0.25" x="560" y="915" width="50" height="100" fill="#FFBDBD"/>
<rect opacity="0.25" x="640" y="915" width="50" height="100" fill="#FFBDBD"/>
<rect opacity="0.25" x="720" y="915" width="50" height="100" fill="#FFBDBD"/>
<rect opacity="0.25" x="800" y="915" width="50" height="100" fill="#FFBDBD"/>
<rect opacity="0.25" x="880" y="915" width="50" height="100" fill="#FFBDBD"/>
<rect opacity="0.25" x="960" y="915" width="50" height="100" fill="#FFBDBD"/>
</g>
<path d="M70.16 1047.92C67.76 1045.8 64.68 1044.96 61.48 1044.96C55.92 1044.96 50.68 1048.12 50.68 1054.16C50.68 1063.6 63.96 1060.8 63.96 1066C63.96 1068 61.68 1068.96 59.64 1068.96C57.56 1068.96 55.48 1067.96 54.2 1066.28L49.76 1071.16C52.44 1073.64 55.64 1074.72 59.28 1074.72C65.12 1074.72 70.2 1071.72 70.2 1065.4C70.2 1055.48 57.16 1058.8 57.16 1053.64C57.16 1051.52 59.6 1050.72 61.36 1050.72C62.88 1050.72 64.88 1051.32 65.88 1052.6L70.16 1047.92ZM74.1688 1074H80.1688V1054.56H74.1688V1074ZM73.6888 1048.44C73.6888 1050.36 75.2488 1051.92 77.1688 1051.92C79.0888 1051.92 80.6488 1050.36 80.6488 1048.44C80.6488 1046.52 79.0888 1044.96 77.1688 1044.96C75.2488 1044.96 73.6888 1046.52 73.6888 1048.44ZM83.7194 1074H100.999V1069.2H90.1994L100.759 1060.32V1054.56H83.9594V1059.36H93.7994L83.7194 1068V1074ZM118.679 1067.56C117.679 1068.92 116.359 1069.92 114.399 1069.92C112.079 1069.92 110.359 1068.44 109.879 1066.16H123.799V1064.28C123.799 1058.08 120.279 1054.08 114.679 1054.08C108.679 1054.08 103.879 1058.08 103.879 1064.28C103.879 1070.48 108.679 1074.48 114.679 1074.48C117.799 1074.48 120.959 1073.08 122.879 1070.64L118.679 1067.56ZM109.879 1062.08C110.039 1060.2 111.479 1058.4 114.119 1058.4C116.279 1058.4 117.839 1060.08 117.799 1062.08H109.879ZM127.568 1070.56C127.568 1072.6 129.208 1074.24 131.248 1074.24C133.288 1074.24 134.928 1072.6 134.928 1070.56C134.928 1068.52 133.288 1066.88 131.248 1066.88C129.208 1066.88 127.568 1068.52 127.568 1070.56ZM127.568 1057.76C127.568 1059.8 129.208 1061.44 131.248 1061.44C133.288 1061.44 134.928 1059.8 134.928 1057.76C134.928 1055.72 133.288 1054.08 131.248 1054.08C129.208 1054.08 127.568 1055.72 127.568 1057.76ZM149 1074H156.4L163.12 1062.6L170.04 1074H177.88L167.64 1059.08L176.8 1045.68H169.24L163.44 1055.6L157.4 1045.68H149.56L158.92 1059.2L149 1074ZM180.987 1074H198.787V1068.24H187.227V1045.68H180.987V1074ZM213.108 1044V1084H218.148V1044H213.108ZM260.411 1057.2H249.331V1062.96H254.411V1067.56C253.251 1068.2 251.251 1068.96 248.531 1068.96C243.211 1068.96 239.731 1065.12 239.731 1059.84C239.731 1054.56 243.211 1050.72 248.531 1050.72C251.691 1050.72 253.731 1051.64 255.411 1053.4L259.811 1048.6C256.971 1045.96 253.011 1044.96 248.531 1044.96C239.691 1044.96 233.251 1050.76 233.251 1059.84C233.251 1068.92 239.691 1074.72 248.531 1074.72C252.691 1074.72 256.731 1073.92 260.411 1072V1057.2ZM265.143 1074H271.143V1065.88C271.143 1062 271.703 1059.36 276.263 1059.36C277.143 1059.36 277.983 1059.52 278.823 1059.76V1054.28C278.263 1054.12 277.503 1054.08 276.823 1054.08C274.183 1054.08 272.503 1055.32 271.223 1057.68H271.143V1054.56H265.143V1074ZM281.513 1074H287.513V1054.56H281.513V1074ZM281.033 1048.44C281.033 1050.36 282.593 1051.92 284.513 1051.92C286.433 1051.92 287.993 1050.36 287.993 1048.44C287.993 1046.52 286.433 1044.96 284.513 1044.96C282.593 1044.96 281.033 1046.52 281.033 1048.44ZM312.223 1043.76H306.223V1056.64H306.143C304.783 1054.76 302.463 1054.08 299.983 1054.08C294.463 1054.08 291.103 1059.04 291.103 1064.44C291.103 1070.32 294.903 1074.48 300.663 1074.48C303.383 1074.48 305.703 1072.84 306.623 1071.44H306.703V1074H312.223V1043.76ZM306.703 1064.28C306.703 1067.2 304.903 1069.2 301.903 1069.2C298.903 1069.2 297.103 1067.2 297.103 1064.28C297.103 1061.36 298.903 1059.36 301.903 1059.36C304.903 1059.36 306.703 1061.36 306.703 1064.28ZM325.738 1061.64H315.898V1066.44H325.738V1061.64ZM343.534 1056.64C341.734 1054.72 338.894 1054.08 336.334 1054.08C332.254 1054.08 328.174 1056.08 328.174 1060.64C328.174 1068.04 338.294 1065.4 338.294 1068.52C338.294 1069.56 336.934 1069.92 335.574 1069.92C333.774 1069.92 332.454 1069.16 331.334 1067.8L327.694 1071.84C329.614 1073.8 332.614 1074.48 335.334 1074.48C339.494 1074.48 344.294 1073.04 344.294 1068.08C344.294 1060.68 334.174 1063.12 334.174 1060.24C334.174 1059.08 335.374 1058.64 336.374 1058.64C337.814 1058.64 338.974 1059.2 339.854 1060.28L343.534 1056.64ZM347.45 1074H353.45V1054.56H347.45V1074ZM346.97 1048.44C346.97 1050.36 348.53 1051.92 350.45 1051.92C352.37 1051.92 353.93 1050.36 353.93 1048.44C353.93 1046.52 352.37 1044.96 350.45 1044.96C348.53 1044.96 346.97 1046.52 346.97 1048.44ZM357.001 1074H374.281V1069.2H363.481L374.041 1060.32V1054.56H357.241V1059.36H367.081L357.001 1068V1074ZM391.961 1067.56C390.961 1068.92 389.641 1069.92 387.681 1069.92C385.361 1069.92 383.641 1068.44 383.161 1066.16H397.081V1064.28C397.081 1058.08 393.561 1054.08 387.961 1054.08C381.961 1054.08 377.161 1058.08 377.161 1064.28C377.161 1070.48 381.961 1074.48 387.961 1074.48C391.081 1074.48 394.241 1073.08 396.161 1070.64L391.961 1067.56ZM383.161 1062.08C383.321 1060.2 384.761 1058.4 387.401 1058.4C389.561 1058.4 391.121 1060.08 391.081 1062.08H383.161ZM400.849 1070.56C400.849 1072.6 402.489 1074.24 404.529 1074.24C406.569 1074.24 408.209 1072.6 408.209 1070.56C408.209 1068.52 406.569 1066.88 404.529 1066.88C402.489 1066.88 400.849 1068.52 400.849 1070.56ZM400.849 1057.76C400.849 1059.8 402.489 1061.44 404.529 1061.44C406.569 1061.44 408.209 1059.8 408.209 1057.76C408.209 1055.72 406.569 1054.08 404.529 1054.08C402.489 1054.08 400.849 1055.72 400.849 1057.76ZM433.801 1074H439.561V1045.68H433.961L424.721 1053.48L428.121 1057.4L433.801 1052.4V1074ZM457.473 1074H463.233V1045.68H457.633L448.393 1053.48L451.793 1057.4L457.473 1052.4V1074ZM482.945 1074H488.705V1068.32H492.345V1063.28H488.705V1045.68H482.145L470.585 1063.28V1068.32H482.945V1074ZM482.945 1063.28H476.585L482.865 1053.52H482.945V1063.28ZM494.617 1059.84C494.617 1066.56 496.737 1074.48 505.137 1074.48C513.537 1074.48 515.657 1066.56 515.657 1059.84C515.657 1053.12 513.537 1045.2 505.137 1045.2C496.737 1045.2 494.617 1053.12 494.617 1059.84ZM500.617 1059.84C500.617 1056.88 500.817 1050.72 505.137 1050.72C509.457 1050.72 509.657 1056.88 509.657 1059.84C509.657 1062.8 509.457 1068.96 505.137 1068.96C500.817 1068.96 500.617 1062.8 500.617 1059.84ZM519.649 1083.12H525.649V1071.92H525.729C527.089 1073.8 529.409 1074.48 531.889 1074.48C537.409 1074.48 540.769 1069.52 540.769 1064.12C540.769 1058.24 536.969 1054.08 531.209 1054.08C528.489 1054.08 526.169 1055.72 525.249 1057.12H525.169V1054.56H519.649V1083.12ZM525.169 1064.28C525.169 1061.36 526.969 1059.36 529.969 1059.36C532.969 1059.36 534.769 1061.36 534.769 1064.28C534.769 1067.2 532.969 1069.2 529.969 1069.2C526.969 1069.2 525.169 1067.2 525.169 1064.28ZM541.844 1074H548.844L553.404 1067.52L557.644 1074H564.724L557.244 1063.6L563.564 1054.56H556.884L553.564 1059.84L550.124 1054.56H543.044L549.524 1063.6L541.844 1074Z" fill="black"/>
<rect width="1200" height="100" transform="translate(49 1113)" fill="white"/>
<g clip-path="url(#clip15_99_26094)">
<rect opacity="0.25" x="94" y="1113" width="65" height="100" fill="#FFBDBD"/>
<rect opacity="0.25" x="189" y="1113" width="65" height="100" fill="#FFBDBD"/>
<rect opacity="0.25" x="284" y="1113" width="65" height="100" fill="#FFBDBD"/>
<rect opacity="0.25" x="379" y="1113" width="65" height="100" fill="#FFBDBD"/>
<rect opacity="0.25" x="474" y="1113" width="65" height="100" fill="#FFBDBD"/>
<rect opacity="0.25" x="569" y="1113" width="65" height="100" fill="#FFBDBD"/>
<rect opacity="0.25" x="664" y="1113" width="65" height="100" fill="#FFBDBD"/>
<rect opacity="0.25" x="759" y="1113" width="65" height="100" fill="#FFBDBD"/>
<rect opacity="0.25" x="854" y="1113" width="65" height="100" fill="#FFBDBD"/>
<rect opacity="0.25" x="949" y="1113" width="65" height="100" fill="#FFBDBD"/>
<rect opacity="0.25" x="1044" y="1113" width="65" height="100" fill="#FFBDBD"/>
<rect opacity="0.25" x="1139" y="1113" width="65" height="100" fill="#FFBDBD"/>
</g>
<path d="M70.16 1245.92C67.76 1243.8 64.68 1242.96 61.48 1242.96C55.92 1242.96 50.68 1246.12 50.68 1252.16C50.68 1261.6 63.96 1258.8 63.96 1264C63.96 1266 61.68 1266.96 59.64 1266.96C57.56 1266.96 55.48 1265.96 54.2 1264.28L49.76 1269.16C52.44 1271.64 55.64 1272.72 59.28 1272.72C65.12 1272.72 70.2 1269.72 70.2 1263.4C70.2 1253.48 57.16 1256.8 57.16 1251.64C57.16 1249.52 59.6 1248.72 61.36 1248.72C62.88 1248.72 64.88 1249.32 65.88 1250.6L70.16 1245.92ZM74.1688 1272H80.1688V1252.56H74.1688V1272ZM73.6888 1246.44C73.6888 1248.36 75.2488 1249.92 77.1688 1249.92C79.0888 1249.92 80.6488 1248.36 80.6488 1246.44C80.6488 1244.52 79.0888 1242.96 77.1688 1242.96C75.2488 1242.96 73.6888 1244.52 73.6888 1246.44ZM83.7194 1272H100.999V1267.2H90.1994L100.759 1258.32V1252.56H83.9594V1257.36H93.7994L83.7194 1266V1272ZM118.679 1265.56C117.679 1266.92 116.359 1267.92 114.399 1267.92C112.079 1267.92 110.359 1266.44 109.879 1264.16H123.799V1262.28C123.799 1256.08 120.279 1252.08 114.679 1252.08C108.679 1252.08 103.879 1256.08 103.879 1262.28C103.879 1268.48 108.679 1272.48 114.679 1272.48C117.799 1272.48 120.959 1271.08 122.879 1268.64L118.679 1265.56ZM109.879 1260.08C110.039 1258.2 111.479 1256.4 114.119 1256.4C116.279 1256.4 117.839 1258.08 117.799 1260.08H109.879ZM127.568 1268.56C127.568 1270.6 129.208 1272.24 131.248 1272.24C133.288 1272.24 134.928 1270.6 134.928 1268.56C134.928 1266.52 133.288 1264.88 131.248 1264.88C129.208 1264.88 127.568 1266.52 127.568 1268.56ZM127.568 1255.76C127.568 1257.8 129.208 1259.44 131.248 1259.44C133.288 1259.44 134.928 1257.8 134.928 1255.76C134.928 1253.72 133.288 1252.08 131.248 1252.08C129.208 1252.08 127.568 1253.72 127.568 1255.76ZM149 1272H156.4L163.12 1260.6L170.04 1272H177.88L167.64 1257.08L176.8 1243.68H169.24L163.44 1253.6L157.4 1243.68H149.56L158.92 1257.2L149 1272ZM177.867 1272H185.267L191.987 1260.6L198.907 1272H206.747L196.507 1257.08L205.667 1243.68H198.107L192.307 1253.6L186.267 1243.68H178.427L187.787 1257.2L177.867 1272ZM209.854 1272H227.654V1266.24H216.094V1243.68H209.854V1272ZM235.819 1242.72L235.739 1242.88C232.059 1248.32 229.979 1253.92 229.979 1260.48C229.979 1267.04 232.059 1272.64 235.739 1278.08L235.819 1278.24L239.939 1275.84C236.699 1270.76 234.779 1266.68 234.779 1260.48C234.779 1254.28 236.699 1250.2 239.939 1245.12L235.819 1242.72ZM243.677 1272H253.877C262.317 1272 269.797 1267.08 269.797 1257.92C269.797 1247.56 262.157 1243.68 253.037 1243.68H243.677V1272ZM249.917 1249.44H253.597C258.877 1249.44 263.317 1252.04 263.317 1257.6C263.317 1264.04 258.957 1266.24 253.157 1266.24H249.917V1249.44ZM287.468 1265.56C286.468 1266.92 285.148 1267.92 283.188 1267.92C280.868 1267.92 279.148 1266.44 278.668 1264.16H292.588V1262.28C292.588 1256.08 289.068 1252.08 283.468 1252.08C277.468 1252.08 272.668 1256.08 272.668 1262.28C272.668 1268.48 277.468 1272.48 283.468 1272.48C286.588 1272.48 289.748 1271.08 291.668 1268.64L287.468 1265.56ZM278.668 1260.08C278.828 1258.2 280.268 1256.4 282.908 1256.4C285.068 1256.4 286.628 1258.08 286.588 1260.08H278.668ZM298.317 1272H304.317V1257.36H308.757V1252.56H304.317V1249.48C304.317 1246.92 305.277 1246.32 307.197 1246.32C307.917 1246.32 308.477 1246.48 309.157 1246.72L309.437 1241.64C308.317 1241.36 307.117 1241.28 305.917 1241.28C299.397 1241.28 298.317 1244.88 298.317 1249.12V1252.56H294.357V1257.36H298.317V1272ZM323.242 1272H328.762V1262.12C328.762 1255.64 326.882 1252.08 319.882 1252.08C316.722 1252.08 313.522 1253.12 311.322 1255.2L314.522 1258.48C315.802 1257.04 317.442 1256.16 319.402 1256.16C321.482 1256.16 323.242 1257.52 323.242 1259.64C318.242 1259.64 310.082 1259.76 310.082 1266.48C310.082 1270.4 313.362 1272.48 317.002 1272.48C319.442 1272.48 321.842 1271.64 323.162 1269.56H323.242V1272ZM323.242 1263.48V1264.76C323.242 1267.16 321.042 1268.4 318.682 1268.4C317.362 1268.4 315.842 1267.72 315.842 1266.28C315.842 1263.64 319.922 1263.48 321.762 1263.48H323.242ZM351.246 1252.56H345.246V1262.24C345.246 1264.76 344.766 1267.2 341.646 1267.2C338.566 1267.2 338.526 1264.32 338.526 1262.08V1252.56H332.526V1263.28C332.526 1268.48 333.646 1272.48 339.726 1272.48C342.646 1272.48 344.606 1270.88 345.406 1269.36H345.486V1272H351.246V1252.56ZM355.575 1272H361.575V1241.76H355.575V1272ZM379.126 1252.56H373.846V1246.8H367.846V1252.56H364.006V1257.36H367.846V1266.6C367.846 1270.84 370.926 1272.48 374.926 1272.48C376.326 1272.48 377.806 1272.36 379.126 1271.88V1266.88C378.606 1267.36 377.326 1267.44 376.686 1267.44C374.086 1267.44 373.846 1265.92 373.846 1263.84V1257.36H379.126V1252.56ZM385.015 1278.24L385.095 1278.08C388.775 1272.64 390.855 1267.04 390.855 1260.48C390.855 1253.92 388.775 1248.32 385.095 1242.88L385.015 1242.72L380.895 1245.12C384.135 1250.2 386.055 1254.28 386.055 1260.48C386.055 1266.68 384.135 1270.76 380.895 1275.84L385.015 1278.24ZM406.389 1242V1282H411.429V1242H406.389ZM453.692 1255.2H442.612V1260.96H447.692V1265.56C446.532 1266.2 444.532 1266.96 441.812 1266.96C436.492 1266.96 433.012 1263.12 433.012 1257.84C433.012 1252.56 436.492 1248.72 441.812 1248.72C444.972 1248.72 447.012 1249.64 448.692 1251.4L453.092 1246.6C450.252 1243.96 446.292 1242.96 441.812 1242.96C432.972 1242.96 426.532 1248.76 426.532 1257.84C426.532 1266.92 432.972 1272.72 441.812 1272.72C445.972 1272.72 450.012 1271.92 453.692 1270V1255.2ZM458.425 1272H464.425V1263.88C464.425 1260 464.985 1257.36 469.545 1257.36C470.425 1257.36 471.265 1257.52 472.105 1257.76V1252.28C471.545 1252.12 470.785 1252.08 470.105 1252.08C467.465 1252.08 465.785 1253.32 464.505 1255.68H464.425V1252.56H458.425V1272ZM474.794 1272H480.794V1252.56H474.794V1272ZM474.314 1246.44C474.314 1248.36 475.874 1249.92 477.794 1249.92C479.714 1249.92 481.274 1248.36 481.274 1246.44C481.274 1244.52 479.714 1242.96 477.794 1242.96C475.874 1242.96 474.314 1244.52 474.314 1246.44ZM505.504 1241.76H499.504V1254.64H499.424C498.064 1252.76 495.744 1252.08 493.264 1252.08C487.744 1252.08 484.384 1257.04 484.384 1262.44C484.384 1268.32 488.184 1272.48 493.944 1272.48C496.664 1272.48 498.984 1270.84 499.904 1269.44H499.984V1272H505.504V1241.76ZM499.984 1262.28C499.984 1265.2 498.184 1267.2 495.184 1267.2C492.184 1267.2 490.384 1265.2 490.384 1262.28C490.384 1259.36 492.184 1257.36 495.184 1257.36C498.184 1257.36 499.984 1259.36 499.984 1262.28ZM519.02 1259.64H509.18V1264.44H519.02V1259.64ZM536.816 1254.64C535.016 1252.72 532.176 1252.08 529.616 1252.08C525.536 1252.08 521.456 1254.08 521.456 1258.64C521.456 1266.04 531.576 1263.4 531.576 1266.52C531.576 1267.56 530.216 1267.92 528.856 1267.92C527.056 1267.92 525.736 1267.16 524.616 1265.8L520.976 1269.84C522.896 1271.8 525.896 1272.48 528.616 1272.48C532.776 1272.48 537.576 1271.04 537.576 1266.08C537.576 1258.68 527.456 1261.12 527.456 1258.24C527.456 1257.08 528.656 1256.64 529.656 1256.64C531.096 1256.64 532.256 1257.2 533.136 1258.28L536.816 1254.64ZM540.731 1272H546.731V1252.56H540.731V1272ZM540.251 1246.44C540.251 1248.36 541.811 1249.92 543.731 1249.92C545.651 1249.92 547.211 1248.36 547.211 1246.44C547.211 1244.52 545.651 1242.96 543.731 1242.96C541.811 1242.96 540.251 1244.52 540.251 1246.44ZM550.282 1272H567.562V1267.2H556.762L567.322 1258.32V1252.56H550.522V1257.36H560.362L550.282 1266V1272ZM585.242 1265.56C584.242 1266.92 582.922 1267.92 580.962 1267.92C578.642 1267.92 576.922 1266.44 576.442 1264.16H590.362V1262.28C590.362 1256.08 586.842 1252.08 581.242 1252.08C575.242 1252.08 570.442 1256.08 570.442 1262.28C570.442 1268.48 575.242 1272.48 581.242 1272.48C584.362 1272.48 587.522 1271.08 589.442 1268.64L585.242 1265.56ZM576.442 1260.08C576.602 1258.2 578.042 1256.4 580.682 1256.4C582.842 1256.4 584.402 1258.08 584.362 1260.08H576.442ZM594.131 1268.56C594.131 1270.6 595.771 1272.24 597.811 1272.24C599.851 1272.24 601.491 1270.6 601.491 1268.56C601.491 1266.52 599.851 1264.88 597.811 1264.88C595.771 1264.88 594.131 1266.52 594.131 1268.56ZM594.131 1255.76C594.131 1257.8 595.771 1259.44 597.811 1259.44C599.851 1259.44 601.491 1257.8 601.491 1255.76C601.491 1253.72 599.851 1252.08 597.811 1252.08C595.771 1252.08 594.131 1253.72 594.131 1255.76ZM627.083 1272H632.843V1243.68H627.243L618.003 1251.48L621.403 1255.4L627.083 1250.4V1272ZM659.914 1243.68H642.794L642.474 1259.32C644.354 1258.68 646.394 1258.28 648.354 1258.28C651.474 1258.28 654.874 1259.24 654.874 1262.96C654.874 1265.4 653.234 1267.2 650.674 1267.2C648.594 1267.2 647.114 1265.84 646.794 1263.8L640.514 1265.24C641.754 1270.04 645.194 1272.48 650.074 1272.48C656.274 1272.48 660.874 1268.76 660.874 1262.36C660.874 1256.56 656.794 1253 651.074 1253C649.994 1253 649.234 1253.08 648.554 1253.32L648.674 1248.96H659.914V1243.68ZM681.026 1243.68H673.706L667.506 1253.36C665.706 1256.2 664.106 1258.68 664.106 1262.76C664.106 1268.6 668.746 1272.48 674.666 1272.48C680.586 1272.48 685.226 1268.6 685.226 1262.76C685.226 1257.6 681.666 1253.52 676.346 1253.52C675.666 1253.52 675.026 1253.64 674.386 1253.8L681.026 1243.68ZM679.226 1262.52C679.226 1265.08 677.346 1266.96 674.666 1266.96C671.986 1266.96 670.106 1265.08 670.106 1262.52C670.106 1259.96 671.986 1258.08 674.666 1258.08C677.346 1258.08 679.226 1259.96 679.226 1262.52ZM687.898 1257.84C687.898 1264.56 690.018 1272.48 698.418 1272.48C706.818 1272.48 708.938 1264.56 708.938 1257.84C708.938 1251.12 706.818 1243.2 698.418 1243.2C690.018 1243.2 687.898 1251.12 687.898 1257.84ZM693.898 1257.84C693.898 1254.88 694.098 1248.72 698.418 1248.72C702.738 1248.72 702.938 1254.88 702.938 1257.84C702.938 1260.8 702.738 1266.96 698.418 1266.96C694.098 1266.96 693.898 1260.8 693.898 1257.84ZM712.93 1281.12H718.93V1269.92H719.01C720.37 1271.8 722.69 1272.48 725.17 1272.48C730.69 1272.48 734.05 1267.52 734.05 1262.12C734.05 1256.24 730.25 1252.08 724.49 1252.08C721.77 1252.08 719.45 1253.72 718.53 1255.12H718.45V1252.56H712.93V1281.12ZM718.45 1262.28C718.45 1259.36 720.25 1257.36 723.25 1257.36C726.25 1257.36 728.05 1259.36 728.05 1262.28C728.05 1265.2 726.25 1267.2 723.25 1267.2C720.25 1267.2 718.45 1265.2 718.45 1262.28ZM735.125 1272H742.125L746.685 1265.52L750.925 1272H758.005L750.525 1261.6L756.845 1252.56H750.165L746.845 1257.84L743.405 1252.56H736.325L742.805 1261.6L735.125 1272Z" fill="black"/>
<rect width="1600" height="100" transform="translate(49 1311)" fill="white"/>
<g clip-path="url(#clip16_99_26094)">
<g clip-path="url(#clip17_99_26094)">
<rect x="84" y="1311" width="100" height="100" fill="#FFBDBD" fill-opacity="0.3"/>
</g>
<g clip-path="url(#clip18_99_26094)">
<rect x="214.178" y="1311" width="100" height="100" fill="#FFBDBD" fill-opacity="0.3"/>
</g>
<g clip-path="url(#clip19_99_26094)">
<rect x="344.355" y="1311" width="100" height="100" fill="#FFBDBD" fill-opacity="0.3"/>
</g>
<g clip-path="url(#clip20_99_26094)">
<rect x="474.533" y="1311" width="100" height="100" fill="#FFBDBD" fill-opacity="0.3"/>
</g>
<g clip-path="url(#clip21_99_26094)">
<rect x="604.711" y="1311" width="100" height="100" fill="#FFBDBD" fill-opacity="0.3"/>
</g>
<g clip-path="url(#clip22_99_26094)">
<rect x="734.89" y="1311" width="100" height="100" fill="#FFBDBD" fill-opacity="0.3"/>
</g>
<g clip-path="url(#clip23_99_26094)">
<rect x="862.933" y="1311" width="100" height="100" fill="#FFBDBD" fill-opacity="0.3"/>
</g>
<g clip-path="url(#clip24_99_26094)">
<rect x="993.111" y="1311" width="100" height="100" fill="#FFBDBD" fill-opacity="0.3"/>
</g>
<g clip-path="url(#clip25_99_26094)">
<rect x="1123.29" y="1311" width="100" height="100" fill="#FFBDBD" fill-opacity="0.3"/>
</g>
<g clip-path="url(#clip26_99_26094)">
<rect x="1253.47" y="1311" width="100" height="100" fill="#FFBDBD" fill-opacity="0.3"/>
</g>
<g clip-path="url(#clip27_99_26094)">
<rect x="1383.64" y="1311" width="100" height="100" fill="#FFBDBD" fill-opacity="0.3"/>
</g>
<g clip-path="url(#clip28_99_26094)">
<rect x="1513.82" y="1311" width="100" height="100" fill="#FFBDBD" fill-opacity="0.3"/>
</g>
</g>
<path d="M70.16 1443.92C67.76 1441.8 64.68 1440.96 61.48 1440.96C55.92 1440.96 50.68 1444.12 50.68 1450.16C50.68 1459.6 63.96 1456.8 63.96 1462C63.96 1464 61.68 1464.96 59.64 1464.96C57.56 1464.96 55.48 1463.96 54.2 1462.28L49.76 1467.16C52.44 1469.64 55.64 1470.72 59.28 1470.72C65.12 1470.72 70.2 1467.72 70.2 1461.4C70.2 1451.48 57.16 1454.8 57.16 1449.64C57.16 1447.52 59.6 1446.72 61.36 1446.72C62.88 1446.72 64.88 1447.32 65.88 1448.6L70.16 1443.92ZM74.1688 1470H80.1688V1450.56H74.1688V1470ZM73.6888 1444.44C73.6888 1446.36 75.2488 1447.92 77.1688 1447.92C79.0888 1447.92 80.6488 1446.36 80.6488 1444.44C80.6488 1442.52 79.0888 1440.96 77.1688 1440.96C75.2488 1440.96 73.6888 1442.52 73.6888 1444.44ZM83.7194 1470H100.999V1465.2H90.1994L100.759 1456.32V1450.56H83.9594V1455.36H93.7994L83.7194 1464V1470ZM118.679 1463.56C117.679 1464.92 116.359 1465.92 114.399 1465.92C112.079 1465.92 110.359 1464.44 109.879 1462.16H123.799V1460.28C123.799 1454.08 120.279 1450.08 114.679 1450.08C108.679 1450.08 103.879 1454.08 103.879 1460.28C103.879 1466.48 108.679 1470.48 114.679 1470.48C117.799 1470.48 120.959 1469.08 122.879 1466.64L118.679 1463.56ZM109.879 1458.08C110.039 1456.2 111.479 1454.4 114.119 1454.4C116.279 1454.4 117.839 1456.08 117.799 1458.08H109.879ZM127.568 1466.56C127.568 1468.6 129.208 1470.24 131.248 1470.24C133.288 1470.24 134.928 1468.6 134.928 1466.56C134.928 1464.52 133.288 1462.88 131.248 1462.88C129.208 1462.88 127.568 1464.52 127.568 1466.56ZM127.568 1453.76C127.568 1455.8 129.208 1457.44 131.248 1457.44C133.288 1457.44 134.928 1455.8 134.928 1453.76C134.928 1451.72 133.288 1450.08 131.248 1450.08C129.208 1450.08 127.568 1451.72 127.568 1453.76ZM149 1470H156.4L163.12 1458.6L170.04 1470H177.88L167.64 1455.08L176.8 1441.68H169.24L163.44 1451.6L157.4 1441.68H149.56L158.92 1455.2L149 1470ZM177.867 1470H185.267L191.987 1458.6L198.907 1470H206.747L196.507 1455.08L205.667 1441.68H198.107L192.307 1451.6L186.267 1441.68H178.427L187.787 1455.2L177.867 1470ZM206.734 1470H214.134L220.854 1458.6L227.774 1470H235.614L225.374 1455.08L234.534 1441.68H226.974L221.174 1451.6L215.134 1441.68H207.294L216.654 1455.2L206.734 1470ZM238.722 1470H256.522V1464.24H244.962V1441.68H238.722V1470ZM270.842 1440V1480H275.882V1440H270.842ZM318.145 1453.2H307.065V1458.96H312.145V1463.56C310.985 1464.2 308.985 1464.96 306.265 1464.96C300.945 1464.96 297.465 1461.12 297.465 1455.84C297.465 1450.56 300.945 1446.72 306.265 1446.72C309.425 1446.72 311.465 1447.64 313.145 1449.4L317.545 1444.6C314.705 1441.96 310.745 1440.96 306.265 1440.96C297.425 1440.96 290.985 1446.76 290.985 1455.84C290.985 1464.92 297.425 1470.72 306.265 1470.72C310.425 1470.72 314.465 1469.92 318.145 1468V1453.2ZM322.878 1470H328.878V1461.88C328.878 1458 329.438 1455.36 333.998 1455.36C334.878 1455.36 335.718 1455.52 336.558 1455.76V1450.28C335.998 1450.12 335.238 1450.08 334.558 1450.08C331.918 1450.08 330.238 1451.32 328.958 1453.68H328.878V1450.56H322.878V1470ZM339.247 1470H345.247V1450.56H339.247V1470ZM338.767 1444.44C338.767 1446.36 340.327 1447.92 342.247 1447.92C344.167 1447.92 345.727 1446.36 345.727 1444.44C345.727 1442.52 344.167 1440.96 342.247 1440.96C340.327 1440.96 338.767 1442.52 338.767 1444.44ZM369.958 1439.76H363.958V1452.64H363.878C362.518 1450.76 360.198 1450.08 357.717 1450.08C352.198 1450.08 348.838 1455.04 348.838 1460.44C348.838 1466.32 352.638 1470.48 358.398 1470.48C361.118 1470.48 363.438 1468.84 364.358 1467.44H364.438V1470H369.958V1439.76ZM364.438 1460.28C364.438 1463.2 362.638 1465.2 359.638 1465.2C356.638 1465.2 354.838 1463.2 354.838 1460.28C354.838 1457.36 356.638 1455.36 359.638 1455.36C362.638 1455.36 364.438 1457.36 364.438 1460.28ZM383.473 1457.64H373.633V1462.44H383.473V1457.64ZM401.269 1452.64C399.469 1450.72 396.629 1450.08 394.069 1450.08C389.989 1450.08 385.909 1452.08 385.909 1456.64C385.909 1464.04 396.029 1461.4 396.029 1464.52C396.029 1465.56 394.669 1465.92 393.309 1465.92C391.509 1465.92 390.189 1465.16 389.069 1463.8L385.429 1467.84C387.349 1469.8 390.349 1470.48 393.069 1470.48C397.229 1470.48 402.029 1469.04 402.029 1464.08C402.029 1456.68 391.909 1459.12 391.909 1456.24C391.909 1455.08 393.109 1454.64 394.109 1454.64C395.549 1454.64 396.709 1455.2 397.589 1456.28L401.269 1452.64ZM405.184 1470H411.184V1450.56H405.184V1470ZM404.704 1444.44C404.704 1446.36 406.264 1447.92 408.184 1447.92C410.104 1447.92 411.664 1446.36 411.664 1444.44C411.664 1442.52 410.104 1440.96 408.184 1440.96C406.264 1440.96 404.704 1442.52 404.704 1444.44ZM414.735 1470H432.015V1465.2H421.215L431.775 1456.32V1450.56H414.975V1455.36H424.815L414.735 1464V1470ZM449.695 1463.56C448.695 1464.92 447.375 1465.92 445.415 1465.92C443.095 1465.92 441.375 1464.44 440.895 1462.16H454.815V1460.28C454.815 1454.08 451.295 1450.08 445.695 1450.08C439.695 1450.08 434.895 1454.08 434.895 1460.28C434.895 1466.48 439.695 1470.48 445.695 1470.48C448.815 1470.48 451.975 1469.08 453.895 1466.64L449.695 1463.56ZM440.895 1458.08C441.055 1456.2 442.495 1454.4 445.135 1454.4C447.295 1454.4 448.855 1456.08 448.815 1458.08H440.895ZM458.584 1466.56C458.584 1468.6 460.224 1470.24 462.264 1470.24C464.304 1470.24 465.944 1468.6 465.944 1466.56C465.944 1464.52 464.304 1462.88 462.264 1462.88C460.224 1462.88 458.584 1464.52 458.584 1466.56ZM458.584 1453.76C458.584 1455.8 460.224 1457.44 462.264 1457.44C464.304 1457.44 465.944 1455.8 465.944 1453.76C465.944 1451.72 464.304 1450.08 462.264 1450.08C460.224 1450.08 458.584 1451.72 458.584 1453.76ZM491.536 1470H497.296V1441.68H491.696L482.456 1449.48L485.856 1453.4L491.536 1448.4V1470ZM509.248 1470H516.568L522.768 1460.32C524.568 1457.48 526.168 1455 526.168 1450.92C526.168 1445.08 521.528 1441.2 515.608 1441.2C509.688 1441.2 505.048 1445.08 505.048 1450.92C505.048 1456.08 508.608 1460.16 513.928 1460.16C514.608 1460.16 515.248 1460.04 515.888 1459.88L509.248 1470ZM511.048 1451.16C511.048 1448.6 512.928 1446.72 515.608 1446.72C518.288 1446.72 520.168 1448.6 520.168 1451.16C520.168 1453.72 518.288 1455.6 515.608 1455.6C512.928 1455.6 511.048 1453.72 511.048 1451.16ZM529.319 1470H549.079V1464.72H536.519L545.119 1457.32C547.279 1455.44 548.839 1453.36 548.839 1449.72C548.839 1444.04 544.839 1441.2 539.679 1441.2C534.119 1441.2 530.039 1444.04 529.679 1449.88L535.679 1450.32C535.839 1448.28 537.159 1446.72 539.359 1446.72C541.199 1446.72 542.839 1447.88 542.839 1449.8C542.839 1451.52 541.439 1452.72 540.319 1453.76L529.319 1463.64V1470ZM552.351 1455.84C552.351 1462.56 554.471 1470.48 562.871 1470.48C571.271 1470.48 573.391 1462.56 573.391 1455.84C573.391 1449.12 571.271 1441.2 562.871 1441.2C554.471 1441.2 552.351 1449.12 552.351 1455.84ZM558.351 1455.84C558.351 1452.88 558.551 1446.72 562.871 1446.72C567.191 1446.72 567.391 1452.88 567.391 1455.84C567.391 1458.8 567.191 1464.96 562.871 1464.96C558.551 1464.96 558.351 1458.8 558.351 1455.84ZM577.383 1479.12H583.383V1467.92H583.463C584.823 1469.8 587.143 1470.48 589.623 1470.48C595.143 1470.48 598.503 1465.52 598.503 1460.12C598.503 1454.24 594.703 1450.08 588.943 1450.08C586.223 1450.08 583.903 1451.72 582.983 1453.12H582.903V1450.56H577.383V1479.12ZM582.903 1460.28C582.903 1457.36 584.703 1455.36 587.703 1455.36C590.703 1455.36 592.503 1457.36 592.503 1460.28C592.503 1463.2 590.703 1465.2 587.703 1465.2C584.703 1465.2 582.903 1463.2 582.903 1460.28ZM599.578 1470H606.578L611.138 1463.52L615.378 1470H622.458L614.978 1459.6L621.298 1450.56H614.618L611.298 1455.84L607.858 1450.56H600.778L607.258 1459.6L599.578 1470Z" fill="black"/>
<rect width="2560" height="100" transform="translate(49 1509)" fill="white"/>
<g clip-path="url(#clip29_99_26094)">
<g clip-path="url(#clip30_99_26094)">
<rect x="384" y="1509" width="130" height="100" fill="#FFBDBD" fill-opacity="0.3"/>
</g>
<g clip-path="url(#clip31_99_26094)">
<rect x="544.219" y="1509" width="130" height="100" fill="#FFBDBD" fill-opacity="0.3"/>
</g>
<g clip-path="url(#clip32_99_26094)">
<rect x="704.438" y="1509" width="130" height="100" fill="#FFBDBD" fill-opacity="0.3"/>
</g>
<g clip-path="url(#clip33_99_26094)">
<rect x="864.656" y="1509" width="130" height="100" fill="#FFBDBD" fill-opacity="0.3"/>
</g>
<g clip-path="url(#clip34_99_26094)">
<rect x="1024.88" y="1509" width="130" height="100" fill="#FFBDBD" fill-opacity="0.3"/>
</g>
<g clip-path="url(#clip35_99_26094)">
<rect x="1185.09" y="1509" width="130" height="100" fill="#FFBDBD" fill-opacity="0.3"/>
</g>
<g clip-path="url(#clip36_99_26094)">
<rect x="1342.69" y="1509" width="130" height="100" fill="#FFBDBD" fill-opacity="0.3"/>
</g>
<g clip-path="url(#clip37_99_26094)">
<rect x="1502.91" y="1509" width="130" height="100" fill="#FFBDBD" fill-opacity="0.3"/>
</g>
<g clip-path="url(#clip38_99_26094)">
<rect x="1663.12" y="1509" width="130" height="100" fill="#FFBDBD" fill-opacity="0.3"/>
</g>
<g clip-path="url(#clip39_99_26094)">
<rect x="1823.34" y="1509" width="130" height="100" fill="#FFBDBD" fill-opacity="0.3"/>
</g>
<g clip-path="url(#clip40_99_26094)">
<rect x="1983.56" y="1509" width="130" height="100" fill="#FFBDBD" fill-opacity="0.3"/>
</g>
<g clip-path="url(#clip41_99_26094)">
<rect x="2143.78" y="1509" width="130" height="100" fill="#FFBDBD" fill-opacity="0.3"/>
</g>
</g>
<rect x="0.5" y="0.5" width="2657" height="1657" stroke="#CBCBCB"/>
<defs>
<clipPath id="clip0_99_26094">
<rect width="755" height="100" fill="white" transform="translate(97 123)"/>
</clipPath>
<clipPath id="clip1_99_26094">
<rect width="63.0027" height="100" fill="white" transform="translate(160.003 123)"/>
</clipPath>
<clipPath id="clip2_99_26094">
<rect width="63.0027" height="100" fill="white" transform="translate(223.006 123)"/>
</clipPath>
<clipPath id="clip3_99_26094">
<rect width="63.0027" height="100" fill="white" transform="translate(286.008 123)"/>
</clipPath>
<clipPath id="clip4_99_26094">
<rect width="63.0027" height="100" fill="white" transform="translate(349.011 123)"/>
</clipPath>
<clipPath id="clip5_99_26094">
<rect width="63.0027" height="100" fill="white" transform="translate(412.014 123)"/>
</clipPath>
<clipPath id="clip6_99_26094">
<rect width="63.0027" height="100" fill="white" transform="translate(473.983 123)"/>
</clipPath>
<clipPath id="clip7_99_26094">
<rect width="63.0027" height="100" fill="white" transform="translate(536.986 123)"/>
</clipPath>
<clipPath id="clip8_99_26094">
<rect width="63.0027" height="100" fill="white" transform="translate(599.989 123)"/>
</clipPath>
<clipPath id="clip9_99_26094">
<rect width="63.0027" height="100" fill="white" transform="translate(662.992 123)"/>
</clipPath>
<clipPath id="clip10_99_26094">
<rect width="63.0027" height="100" fill="white" transform="translate(725.994 123)"/>
</clipPath>
<clipPath id="clip11_99_26094">
<rect width="63.0027" height="100" fill="white" transform="translate(788.997 123)"/>
</clipPath>
<clipPath id="clip12_99_26094">
<rect width="450" height="99" fill="white" transform="translate(64 322)"/>
</clipPath>
<clipPath id="clip13_99_26094">
<rect width="510" height="100" fill="white" transform="translate(82 519)"/>
</clipPath>
<clipPath id="clip14_99_26094">
<rect width="930" height="100" fill="white" transform="translate(80 915)"/>
</clipPath>
<clipPath id="clip15_99_26094">
<rect width="1110" height="100" fill="white" transform="translate(94 1113)"/>
</clipPath>
<clipPath id="clip16_99_26094">
<rect width="1560" height="100" fill="white" transform="translate(69 1311)"/>
</clipPath>
<clipPath id="clip17_99_26094">
<rect width="130.172" height="100" fill="white" transform="translate(69 1311)"/>
</clipPath>
<clipPath id="clip18_99_26094">
<rect width="130.178" height="100" fill="white" transform="translate(199.178 1311)"/>
</clipPath>
<clipPath id="clip19_99_26094">
<rect width="130.178" height="100" fill="white" transform="translate(329.355 1311)"/>
</clipPath>
<clipPath id="clip20_99_26094">
<rect width="130.178" height="100" fill="white" transform="translate(459.533 1311)"/>
</clipPath>
<clipPath id="clip21_99_26094">
<rect width="130.178" height="100" fill="white" transform="translate(589.711 1311)"/>
</clipPath>
<clipPath id="clip22_99_26094">
<rect width="130.178" height="100" fill="white" transform="translate(719.89 1311)"/>
</clipPath>
<clipPath id="clip23_99_26094">
<rect width="130.178" height="100" fill="white" transform="translate(847.933 1311)"/>
</clipPath>
<clipPath id="clip24_99_26094">
<rect width="130.178" height="100" fill="white" transform="translate(978.111 1311)"/>
</clipPath>
<clipPath id="clip25_99_26094">
<rect width="130.178" height="100" fill="white" transform="translate(1108.29 1311)"/>
</clipPath>
<clipPath id="clip26_99_26094">
<rect width="130.178" height="100" fill="white" transform="translate(1238.47 1311)"/>
</clipPath>
<clipPath id="clip27_99_26094">
<rect width="130.178" height="100" fill="white" transform="translate(1368.64 1311)"/>
</clipPath>
<clipPath id="clip28_99_26094">
<rect width="130.178" height="100" fill="white" transform="translate(1498.82 1311)"/>
</clipPath>
<clipPath id="clip29_99_26094">
<rect width="1920" height="100" fill="white" transform="translate(369 1509)"/>
</clipPath>
<clipPath id="clip30_99_26094">
<rect width="160.212" height="100" fill="white" transform="translate(369 1509)"/>
</clipPath>
<clipPath id="clip31_99_26094">
<rect width="160.219" height="100" fill="white" transform="translate(529.219 1509)"/>
</clipPath>
<clipPath id="clip32_99_26094">
<rect width="160.219" height="100" fill="white" transform="translate(689.438 1509)"/>
</clipPath>
<clipPath id="clip33_99_26094">
<rect width="160.219" height="100" fill="white" transform="translate(849.656 1509)"/>
</clipPath>
<clipPath id="clip34_99_26094">
<rect width="160.219" height="100" fill="white" transform="translate(1009.88 1509)"/>
</clipPath>
<clipPath id="clip35_99_26094">
<rect width="160.219" height="100" fill="white" transform="translate(1170.09 1509)"/>
</clipPath>
<clipPath id="clip36_99_26094">
<rect width="160.219" height="100" fill="white" transform="translate(1327.69 1509)"/>
</clipPath>
<clipPath id="clip37_99_26094">
<rect width="160.219" height="100" fill="white" transform="translate(1487.91 1509)"/>
</clipPath>
<clipPath id="clip38_99_26094">
<rect width="160.219" height="100" fill="white" transform="translate(1648.12 1509)"/>
</clipPath>
<clipPath id="clip39_99_26094">
<rect width="160.219" height="100" fill="white" transform="translate(1808.34 1509)"/>
</clipPath>
<clipPath id="clip40_99_26094">
<rect width="160.219" height="100" fill="white" transform="translate(1968.56 1509)"/>
</clipPath>
<clipPath id="clip41_99_26094">
<rect width="160.219" height="100" fill="white" transform="translate(2128.78 1509)"/>
</clipPath>
</defs>
</svg>
