<svg width="921" height="494" viewBox="0 0 921 494" fill="none" xmlns="http://www.w3.org/2000/svg">
<g filter="url(#filter0_d_112_26551)">
<g clip-path="url(#clip0_112_26551)">
<rect x="10" y="10" width="901" height="474" rx="2" fill="white"/>
<mask id="mask0_112_26551" style="mask-type:alpha" maskUnits="userSpaceOnUse" x="10" y="10" width="901" height="474">
<rect x="10" y="10" width="901" height="474" rx="2" fill="white"/>
</mask>
<g mask="url(#mask0_112_26551)">
</g>
<g clip-path="url(#clip1_112_26551)">
<g clip-path="url(#clip2_112_26551)">
<rect x="10" y="10" width="901" height="47" fill="#C7C7C7"/>
<path fill-rule="evenodd" clip-rule="evenodd" d="M95 21C95 19.8954 95.8954 19 97 19H870C871.105 19 872 19.8954 872 21V47C872 48.1046 871.105 49 870 49H97C95.8954 49 95 48.1046 95 47V21Z" fill="#F8F9FB"/>
</g>
<g clip-path="url(#clip3_112_26551)">
<circle cx="27.5" cy="32.5" r="7.5" fill="#FF6057"/>
<circle cx="49.5" cy="32.5" r="7.5" fill="#FFC12E"/>
<circle cx="73.5" cy="32.5" r="7.5" fill="#28CA40"/>
</g>
</g>
</g>
</g>
<rect opacity="0.25" x="42" y="92" width="49.1666" height="373" fill="#FFBDBD"/>
<rect opacity="0.25" x="113.859" y="92" width="49.1666" height="373" fill="#FFBDBD"/>
<rect opacity="0.25" x="185.718" y="92" width="49.1666" height="373" fill="#FFBDBD"/>
<rect opacity="0.25" x="257.577" y="92" width="49.1666" height="373" fill="#FFBDBD"/>
<rect opacity="0.25" x="329.436" y="92" width="49.1666" height="373" fill="#FFBDBD"/>
<rect opacity="0.25" x="401.294" y="92" width="49.1666" height="373" fill="#FFBDBD"/>
<rect opacity="0.25" x="473.153" y="92" width="49.1666" height="373" fill="#FFBDBD"/>
<rect opacity="0.25" x="545.012" y="92" width="49.1666" height="373" fill="#FFBDBD"/>
<rect opacity="0.25" x="616.871" y="92" width="49.1666" height="373" fill="#FFBDBD"/>
<rect opacity="0.25" x="688.73" y="92" width="49.1666" height="373" fill="#FFBDBD"/>
<rect opacity="0.25" x="760.589" y="92" width="49.1666" height="373" fill="#FFBDBD"/>
<rect opacity="0.25" x="832.448" y="92" width="49.1666" height="373" fill="#FFBDBD"/>
<rect width="480" height="36" transform="translate(42 111)" fill="#B056BC" fill-opacity="0.2"/>
<path d="M285.235 123.92L280.707 134H279.187L283.795 123.92H278.323V122.672H285.235V123.92Z" fill="#333333"/>
<rect width="336" height="36" transform="translate(546 111)" fill="#B056BC" fill-opacity="0.2"/>
<path d="M717.139 123.92H712.515L712.467 126.976C712.68 126.869 712.915 126.8 713.171 126.768C713.437 126.725 713.688 126.704 713.923 126.704C714.467 126.704 714.957 126.8 715.395 126.992C715.843 127.173 716.227 127.435 716.547 127.776C716.867 128.107 717.112 128.501 717.283 128.96C717.453 129.408 717.539 129.899 717.539 130.432C717.539 130.997 717.437 131.515 717.235 131.984C717.043 132.443 716.771 132.837 716.419 133.168C716.077 133.488 715.667 133.739 715.187 133.92C714.717 134.101 714.205 134.192 713.651 134.192C712.787 134.192 712.088 134.005 711.555 133.632C711.032 133.259 710.616 132.757 710.307 132.128L711.651 131.616C711.843 132.043 712.12 132.389 712.483 132.656C712.856 132.912 713.283 133.04 713.763 133.04C714.104 133.04 714.419 132.981 714.707 132.864C715.005 132.736 715.261 132.56 715.475 132.336C715.699 132.101 715.875 131.824 716.003 131.504C716.131 131.184 716.195 130.827 716.195 130.432C716.195 130.016 716.12 129.648 715.971 129.328C715.832 129.008 715.635 128.741 715.379 128.528C715.133 128.304 714.84 128.139 714.499 128.032C714.157 127.915 713.789 127.856 713.395 127.856C713.011 127.856 712.616 127.925 712.211 128.064C711.805 128.192 711.432 128.357 711.091 128.56L711.203 122.672H717.139V123.92Z" fill="#333333"/>
<rect width="552" height="36" transform="translate(42 171)" fill="#B056BC" fill-opacity="0.2"/>
<path d="M314.771 185.44C314.771 184.992 314.851 184.587 315.011 184.224C315.181 183.861 315.411 183.552 315.699 183.296C315.987 183.04 316.328 182.843 316.723 182.704C317.117 182.555 317.544 182.48 318.003 182.48C318.461 182.48 318.888 182.555 319.283 182.704C319.677 182.843 320.019 183.04 320.307 183.296C320.595 183.552 320.819 183.861 320.979 184.224C321.149 184.587 321.235 184.992 321.235 185.44C321.235 185.707 321.192 185.973 321.107 186.24C321.021 186.507 320.899 186.752 320.739 186.976C320.579 187.2 320.381 187.397 320.147 187.568C319.923 187.739 319.667 187.861 319.379 187.936V187.968C319.72 188.043 320.029 188.171 320.307 188.352C320.584 188.523 320.819 188.736 321.011 188.992C321.203 189.248 321.352 189.541 321.459 189.872C321.565 190.192 321.619 190.528 321.619 190.88C321.619 191.392 321.523 191.856 321.331 192.272C321.149 192.677 320.893 193.024 320.563 193.312C320.243 193.6 319.859 193.819 319.411 193.968C318.973 194.117 318.504 194.192 318.003 194.192C317.501 194.192 317.027 194.117 316.579 193.968C316.141 193.819 315.757 193.6 315.427 193.312C315.107 193.024 314.851 192.677 314.659 192.272C314.477 191.856 314.387 191.392 314.387 190.88C314.387 190.528 314.44 190.192 314.547 189.872C314.653 189.541 314.803 189.248 314.995 188.992C315.187 188.736 315.421 188.523 315.699 188.352C315.976 188.171 316.285 188.043 316.627 187.968V187.936C316.339 187.861 316.077 187.739 315.843 187.568C315.619 187.397 315.427 187.2 315.267 186.976C315.107 186.752 314.984 186.507 314.899 186.24C314.813 185.973 314.771 185.707 314.771 185.44ZM316.115 185.504C316.115 186.048 316.285 186.496 316.627 186.848C316.979 187.2 317.437 187.376 318.003 187.376C318.568 187.376 319.021 187.2 319.363 186.848C319.715 186.496 319.891 186.048 319.891 185.504C319.891 184.96 319.715 184.512 319.363 184.16C319.021 183.808 318.568 183.632 318.003 183.632C317.437 183.632 316.979 183.808 316.627 184.16C316.285 184.512 316.115 184.96 316.115 185.504ZM315.731 190.784C315.731 191.115 315.789 191.419 315.907 191.696C316.024 191.973 316.184 192.213 316.387 192.416C316.6 192.608 316.84 192.763 317.107 192.88C317.384 192.987 317.683 193.04 318.003 193.04C318.323 193.04 318.616 192.987 318.883 192.88C319.16 192.763 319.4 192.608 319.603 192.416C319.816 192.213 319.981 191.973 320.099 191.696C320.216 191.419 320.275 191.115 320.275 190.784C320.275 190.453 320.216 190.149 320.099 189.872C319.981 189.595 319.816 189.36 319.603 189.168C319.4 188.965 319.16 188.811 318.883 188.704C318.616 188.587 318.323 188.528 318.003 188.528C317.683 188.528 317.384 188.587 317.107 188.704C316.84 188.811 316.6 188.965 316.387 189.168C316.184 189.36 316.024 189.595 315.907 189.872C315.789 190.149 315.731 190.453 315.731 190.784Z" fill="#333333"/>
<rect width="265" height="36" transform="translate(617 171)" fill="#B056BC" fill-opacity="0.2"/>
<path d="M751.759 190.16H753.391V191.408H751.759V194H750.415V191.408H745.615V189.92L750.111 182.672H751.759V190.16ZM750.415 184.24H750.383L746.767 190.16H750.415V184.24Z" fill="#333333"/>
<rect width="624" height="36" transform="translate(42 231)" fill="#B056BC" fill-opacity="0.2"/>
<path d="M355.187 249.28L355.155 249.248C354.941 249.365 354.691 249.451 354.403 249.504C354.125 249.557 353.869 249.584 353.635 249.584C353.144 249.584 352.685 249.499 352.259 249.328C351.843 249.157 351.48 248.917 351.171 248.608C350.872 248.288 350.637 247.915 350.467 247.488C350.296 247.051 350.211 246.565 350.211 246.032C350.211 245.477 350.307 244.981 350.499 244.544C350.691 244.107 350.957 243.739 351.299 243.44C351.64 243.131 352.04 242.896 352.499 242.736C352.968 242.565 353.469 242.48 354.003 242.48C354.536 242.48 355.032 242.565 355.491 242.736C355.96 242.896 356.365 243.131 356.707 243.44C357.048 243.739 357.315 244.107 357.507 244.544C357.699 244.981 357.795 245.477 357.795 246.032C357.795 246.363 357.768 246.667 357.715 246.944C357.661 247.221 357.587 247.488 357.491 247.744C357.395 248 357.277 248.251 357.139 248.496C357.011 248.731 356.872 248.971 356.723 249.216L353.715 254H352.147L355.187 249.28ZM354.003 248.432C354.344 248.432 354.664 248.379 354.963 248.272C355.261 248.155 355.517 247.995 355.731 247.792C355.955 247.579 356.131 247.328 356.259 247.04C356.387 246.741 356.451 246.405 356.451 246.032C356.451 245.669 356.387 245.339 356.259 245.04C356.131 244.741 355.955 244.491 355.731 244.288C355.517 244.075 355.261 243.915 354.963 243.808C354.664 243.691 354.344 243.632 354.003 243.632C353.661 243.632 353.341 243.691 353.043 243.808C352.744 243.915 352.483 244.075 352.259 244.288C352.045 244.491 351.875 244.741 351.747 245.04C351.619 245.339 351.555 245.669 351.555 246.032C351.555 246.405 351.619 246.741 351.747 247.04C351.875 247.328 352.045 247.579 352.259 247.792C352.483 247.995 352.744 248.155 353.043 248.272C353.341 248.379 353.661 248.432 354.003 248.432Z" fill="#333333"/>
<rect width="193" height="36" transform="translate(687 231)" fill="#B056BC" fill-opacity="0.2"/>
<path d="M782.319 247.472H782.735C783.012 247.472 783.3 247.451 783.599 247.408C783.908 247.365 784.185 247.275 784.431 247.136C784.687 246.997 784.895 246.8 785.055 246.544C785.225 246.277 785.311 245.931 785.311 245.504C785.311 244.928 785.129 244.475 784.767 244.144C784.415 243.803 783.951 243.632 783.375 243.632C782.895 243.632 782.479 243.739 782.127 243.952C781.775 244.165 781.497 244.48 781.295 244.896L779.999 244.4C780.276 243.76 780.708 243.28 781.295 242.96C781.892 242.64 782.553 242.48 783.279 242.48C783.727 242.48 784.153 242.544 784.559 242.672C784.975 242.8 785.337 242.987 785.647 243.232C785.956 243.477 786.201 243.787 786.383 244.16C786.564 244.523 786.655 244.949 786.655 245.44C786.655 246.037 786.473 246.576 786.111 247.056C785.759 247.525 785.295 247.851 784.719 248.032V248.064C785.081 248.128 785.401 248.245 785.679 248.416C785.967 248.587 786.212 248.8 786.415 249.056C786.617 249.301 786.772 249.584 786.879 249.904C786.985 250.224 787.039 250.56 787.039 250.912C787.039 251.456 786.937 251.931 786.735 252.336C786.532 252.741 786.26 253.083 785.919 253.36C785.577 253.637 785.177 253.845 784.719 253.984C784.271 254.123 783.796 254.192 783.295 254.192C782.431 254.192 781.679 254.005 781.039 253.632C780.399 253.259 779.935 252.651 779.647 251.808L781.007 251.36C781.199 251.968 781.471 252.4 781.823 252.656C782.175 252.912 782.665 253.04 783.295 253.04C783.615 253.04 783.913 252.987 784.191 252.88C784.468 252.773 784.708 252.624 784.911 252.432C785.124 252.229 785.289 251.995 785.407 251.728C785.535 251.451 785.599 251.147 785.599 250.816C785.599 250.4 785.513 250.053 785.343 249.776C785.183 249.488 784.964 249.264 784.687 249.104C784.42 248.933 784.116 248.811 783.775 248.736C783.433 248.661 783.087 248.624 782.735 248.624H782.319V247.472Z" fill="#333333"/>
<rect width="693" height="36" transform="translate(44 291)" fill="#B056BC" fill-opacity="0.2"/>
<path d="M387.369 314H386.025V304.4H385.993L383.961 306.112L383.161 305.136L386.201 302.672H387.369V314ZM391.108 308.336C391.108 307.696 391.161 307.029 391.268 306.336C391.375 305.643 391.572 305.013 391.86 304.448C392.148 303.872 392.537 303.403 393.028 303.04C393.529 302.667 394.169 302.48 394.948 302.48C395.727 302.48 396.361 302.667 396.852 303.04C397.353 303.403 397.748 303.872 398.036 304.448C398.324 305.013 398.521 305.643 398.628 306.336C398.735 307.029 398.788 307.696 398.788 308.336C398.788 308.976 398.735 309.643 398.628 310.336C398.521 311.029 398.324 311.664 398.036 312.24C397.748 312.805 397.353 313.275 396.852 313.648C396.361 314.011 395.727 314.192 394.948 314.192C394.169 314.192 393.529 314.011 393.028 313.648C392.537 313.275 392.148 312.805 391.86 312.24C391.572 311.664 391.375 311.029 391.268 310.336C391.161 309.643 391.108 308.976 391.108 308.336ZM392.452 308.336C392.452 308.613 392.463 308.923 392.484 309.264C392.505 309.605 392.543 309.952 392.596 310.304C392.66 310.645 392.745 310.981 392.852 311.312C392.969 311.643 393.119 311.936 393.3 312.192C393.492 312.448 393.721 312.656 393.988 312.816C394.255 312.965 394.575 313.04 394.948 313.04C395.321 313.04 395.641 312.965 395.908 312.816C396.175 312.656 396.399 312.448 396.58 312.192C396.772 311.936 396.921 311.643 397.028 311.312C397.145 310.981 397.231 310.645 397.284 310.304C397.348 309.952 397.391 309.605 397.412 309.264C397.433 308.923 397.444 308.613 397.444 308.336C397.444 308.059 397.433 307.749 397.412 307.408C397.391 307.067 397.348 306.725 397.284 306.384C397.231 306.032 397.145 305.691 397.028 305.36C396.921 305.029 396.772 304.736 396.58 304.48C396.399 304.224 396.175 304.021 395.908 303.872C395.641 303.712 395.321 303.632 394.948 303.632C394.575 303.632 394.255 303.712 393.988 303.872C393.721 304.021 393.492 304.224 393.3 304.48C393.119 304.736 392.969 305.029 392.852 305.36C392.745 305.691 392.66 306.032 392.596 306.384C392.543 306.725 392.505 307.067 392.484 307.408C392.463 307.749 392.452 308.059 392.452 308.336Z" fill="#333333"/>
<rect width="121" height="36" transform="translate(761 291)" fill="#B056BC" fill-opacity="0.2"/>
<path d="M817.855 312.464L822.127 308.304C822.393 308.048 822.628 307.813 822.831 307.6C823.033 307.376 823.199 307.163 823.327 306.96C823.465 306.747 823.567 306.528 823.631 306.304C823.695 306.08 823.727 305.829 823.727 305.552C823.727 305.253 823.673 304.987 823.567 304.752C823.46 304.517 823.311 304.32 823.119 304.16C822.937 303.989 822.719 303.861 822.463 303.776C822.217 303.68 821.951 303.632 821.663 303.632C821.087 303.632 820.612 303.797 820.239 304.128C819.865 304.459 819.625 304.896 819.519 305.44L818.063 305.312C818.137 304.853 818.276 304.448 818.479 304.096C818.692 303.733 818.953 303.435 819.263 303.2C819.583 302.965 819.94 302.789 820.335 302.672C820.729 302.544 821.156 302.48 821.615 302.48C822.084 302.48 822.527 302.549 822.943 302.688C823.359 302.816 823.721 303.008 824.031 303.264C824.351 303.52 824.601 303.84 824.783 304.224C824.975 304.608 825.071 305.051 825.071 305.552C825.071 306 825.007 306.405 824.879 306.768C824.761 307.131 824.596 307.467 824.383 307.776C824.18 308.075 823.945 308.363 823.679 308.64C823.423 308.907 823.151 309.173 822.863 309.44L819.375 312.72V312.752H825.151V314H817.855V312.464Z" fill="#333333"/>
<rect width="766" height="36" transform="translate(44 351)" fill="#B056BC" fill-opacity="0.2"/>
<path d="M423.869 374H422.525V364.4H422.493L420.461 366.112L419.661 365.136L422.701 362.672H423.869V374ZM432.76 374H431.416V364.4H431.384L429.352 366.112L428.552 365.136L431.592 362.672H432.76V374Z" fill="#333333"/>
<rect width="49" height="36" transform="translate(833 351)" fill="#B056BC" fill-opacity="0.2"/>
<path d="M858.815 374H857.471V364.4H857.439L855.407 366.112L854.607 365.136L857.647 362.672H858.815V374Z" fill="#333333"/>
<rect width="836" height="36" transform="translate(44 411)" fill="#B056BC" fill-opacity="0.2"/>
<path d="M458.869 434H457.525V424.4H457.493L455.461 426.112L454.661 425.136L457.701 422.672H458.869V434ZM462.8 432.464L467.072 428.304C467.339 428.048 467.573 427.813 467.776 427.6C467.979 427.376 468.144 427.163 468.272 426.96C468.411 426.747 468.512 426.528 468.576 426.304C468.64 426.08 468.672 425.829 468.672 425.552C468.672 425.253 468.619 424.987 468.512 424.752C468.405 424.517 468.256 424.32 468.064 424.16C467.883 423.989 467.664 423.861 467.408 423.776C467.163 423.68 466.896 423.632 466.608 423.632C466.032 423.632 465.557 423.797 465.184 424.128C464.811 424.459 464.571 424.896 464.464 425.44L463.008 425.312C463.083 424.853 463.221 424.448 463.424 424.096C463.637 423.733 463.899 423.435 464.208 423.2C464.528 422.965 464.885 422.789 465.28 422.672C465.675 422.544 466.101 422.48 466.56 422.48C467.029 422.48 467.472 422.549 467.888 422.688C468.304 422.816 468.667 423.008 468.976 423.264C469.296 423.52 469.547 423.84 469.728 424.224C469.92 424.608 470.016 425.051 470.016 425.552C470.016 426 469.952 426.405 469.824 426.768C469.707 427.131 469.541 427.467 469.328 427.776C469.125 428.075 468.891 428.363 468.624 428.64C468.368 428.907 468.096 429.173 467.808 429.44L464.32 432.72V432.752H470.096V434H462.8V432.464Z" fill="#333333"/>
<defs>
<filter id="filter0_d_112_26551" x="0" y="0" width="921" height="494" filterUnits="userSpaceOnUse" color-interpolation-filters="sRGB">
<feFlood flood-opacity="0" result="BackgroundImageFix"/>
<feColorMatrix in="SourceAlpha" type="matrix" values="0 0 0 0 0 0 0 0 0 0 0 0 0 0 0 0 0 0 127 0" result="hardAlpha"/>
<feOffset/>
<feGaussianBlur stdDeviation="5"/>
<feColorMatrix type="matrix" values="0 0 0 0 0 0 0 0 0 0 0 0 0 0 0 0 0 0 0.5 0"/>
<feBlend mode="normal" in2="BackgroundImageFix" result="effect1_dropShadow_112_26551"/>
<feBlend mode="normal" in="SourceGraphic" in2="effect1_dropShadow_112_26551" result="shape"/>
</filter>
<clipPath id="clip0_112_26551">
<rect width="901" height="474" fill="white" transform="translate(10 10)"/>
</clipPath>
<clipPath id="clip1_112_26551">
<rect width="901" height="47" fill="white" transform="translate(10 10)"/>
</clipPath>
<clipPath id="clip2_112_26551">
<rect width="901" height="47" fill="white" transform="translate(10 10)"/>
</clipPath>
<clipPath id="clip3_112_26551">
<rect width="61" height="15" fill="white" transform="translate(20 25)"/>
</clipPath>
</defs>
</svg>
