<svg width="921" height="371" viewBox="0 0 921 371" fill="none" xmlns="http://www.w3.org/2000/svg">
<g filter="url(#filter0_d_112_26553)">
<g clip-path="url(#clip0_112_26553)">
<rect x="10" y="10" width="901" height="351" rx="2" fill="white"/>
<mask id="mask0_112_26553" style="mask-type:alpha" maskUnits="userSpaceOnUse" x="10" y="10" width="901" height="351">
<rect x="10" y="10" width="901" height="351" rx="2" fill="white"/>
</mask>
<g mask="url(#mask0_112_26553)">
</g>
<g clip-path="url(#clip1_112_26553)">
<g clip-path="url(#clip2_112_26553)">
<rect x="10" y="10" width="901" height="47" fill="#C7C7C7"/>
<path fill-rule="evenodd" clip-rule="evenodd" d="M95 21C95 19.8954 95.8954 19 97 19H870C871.105 19 872 19.8954 872 21V47C872 48.1046 871.105 49 870 49H97C95.8954 49 95 48.1046 95 47V21Z" fill="#F8F9FB"/>
</g>
<g clip-path="url(#clip3_112_26553)">
<circle cx="27.5" cy="32.5" r="7.5" fill="#FF6057"/>
<circle cx="49.5" cy="32.5" r="7.5" fill="#FFC12E"/>
<circle cx="73.5" cy="32.5" r="7.5" fill="#28CA40"/>
</g>
</g>
</g>
</g>
<rect opacity="0.25" x="42" y="92" width="49.1666" height="219" fill="#FFBDBD"/>
<rect opacity="0.25" x="113.859" y="92" width="49.1666" height="219" fill="#FFBDBD"/>
<rect opacity="0.25" x="185.718" y="92" width="49.1666" height="219" fill="#FFBDBD"/>
<rect opacity="0.25" x="257.577" y="92" width="49.1666" height="219" fill="#FFBDBD"/>
<rect opacity="0.25" x="329.436" y="92" width="49.1666" height="219" fill="#FFBDBD"/>
<rect opacity="0.25" x="401.294" y="92" width="49.1666" height="219" fill="#FFBDBD"/>
<rect opacity="0.25" x="473.153" y="92" width="49.1666" height="219" fill="#FFBDBD"/>
<rect opacity="0.25" x="545.012" y="92" width="49.1666" height="219" fill="#FFBDBD"/>
<rect opacity="0.25" x="616.871" y="92" width="49.1666" height="219" fill="#FFBDBD"/>
<rect opacity="0.25" x="688.73" y="92" width="49.1666" height="219" fill="#FFBDBD"/>
<rect opacity="0.25" x="760.589" y="92" width="49.1666" height="219" fill="#FFBDBD"/>
<rect opacity="0.25" x="832.448" y="92" width="49.1666" height="219" fill="#FFBDBD"/>
<rect opacity="0.25" x="186" y="129" width="24.7636" height="146" fill="#CC8ACF"/>
<rect opacity="0.25" x="186" y="129" width="552" height="146" fill="#CC8ACF"/>
<rect opacity="0.25" x="233.931" y="129" width="24.7636" height="146" fill="#CC8ACF"/>
<rect opacity="0.25" x="281.861" y="129" width="24.7636" height="146" fill="#CC8ACF"/>
<rect opacity="0.25" x="329.792" y="129" width="24.7636" height="146" fill="#CC8ACF"/>
<rect opacity="0.25" x="377.722" y="129" width="24.7636" height="146" fill="#CC8ACF"/>
<rect opacity="0.25" x="425.653" y="129" width="24.7636" height="146" fill="#CC8ACF"/>
<rect opacity="0.25" x="473.583" y="129" width="24.7636" height="146" fill="#CC8ACF"/>
<rect opacity="0.25" x="521.514" y="129" width="24.7636" height="146" fill="#CC8ACF"/>
<rect opacity="0.25" x="569.445" y="129" width="24.7636" height="146" fill="#CC8ACF"/>
<rect opacity="0.25" x="617.375" y="129" width="24.7636" height="146" fill="#CC8ACF"/>
<rect opacity="0.25" x="665.306" y="129" width="24.7636" height="146" fill="#CC8ACF"/>
<rect opacity="0.25" x="713.236" y="129" width="24.7636" height="146" fill="#CC8ACF"/>
<defs>
<filter id="filter0_d_112_26553" x="0" y="0" width="921" height="371" filterUnits="userSpaceOnUse" color-interpolation-filters="sRGB">
<feFlood flood-opacity="0" result="BackgroundImageFix"/>
<feColorMatrix in="SourceAlpha" type="matrix" values="0 0 0 0 0 0 0 0 0 0 0 0 0 0 0 0 0 0 127 0" result="hardAlpha"/>
<feOffset/>
<feGaussianBlur stdDeviation="5"/>
<feColorMatrix type="matrix" values="0 0 0 0 0 0 0 0 0 0 0 0 0 0 0 0 0 0 0.5 0"/>
<feBlend mode="normal" in2="BackgroundImageFix" result="effect1_dropShadow_112_26553"/>
<feBlend mode="normal" in="SourceGraphic" in2="effect1_dropShadow_112_26553" result="shape"/>
</filter>
<clipPath id="clip0_112_26553">
<rect width="901" height="351" fill="white" transform="translate(10 10)"/>
</clipPath>
<clipPath id="clip1_112_26553">
<rect width="901" height="47" fill="white" transform="translate(10 10)"/>
</clipPath>
<clipPath id="clip2_112_26553">
<rect width="901" height="47" fill="white" transform="translate(10 10)"/>
</clipPath>
<clipPath id="clip3_112_26553">
<rect width="61" height="15" fill="white" transform="translate(20 25)"/>
</clipPath>
</defs>
</svg>
