<svg width="270" height="275" viewBox="0 0 270 275" fill="none" xmlns="http://www.w3.org/2000/svg">
<g filter="url(#filter0_dd_139_26755)">
<g clip-path="url(#clip0_139_26755)">
<rect width="250" height="33" transform="translate(10 40)" fill="white"/>
<path d="M27.232 60H32.944V58.908H28.408V50.088H27.232V60ZM34.134 60H35.226V53.448H34.134V60ZM33.882 50.886C33.882 51.348 34.218 51.684 34.68 51.684C35.142 51.684 35.478 51.348 35.478 50.886C35.478 50.452 35.128 50.088 34.68 50.088C34.232 50.088 33.882 50.452 33.882 50.886ZM36.6713 58.95C37.3153 59.874 38.1133 60.168 39.2193 60.168C40.5213 60.168 41.8373 59.594 41.8373 58.11C41.8373 56.794 40.8573 56.374 39.6953 56.15C38.8273 55.982 38.0433 55.744 38.0433 55.198C38.0433 54.582 38.7293 54.288 39.3313 54.288C39.9753 54.288 40.4373 54.61 40.7173 55.072L41.6273 54.47C41.1793 53.63 40.3253 53.28 39.4013 53.28C38.1833 53.28 36.9513 53.938 36.9513 55.212C36.9513 56.57 38.0153 56.836 39.2613 57.116C39.9613 57.27 40.6613 57.452 40.6613 58.152C40.6613 58.866 39.9053 59.16 39.2193 59.16C38.4493 59.16 37.9733 58.81 37.5393 58.278L36.6713 58.95ZM46.9442 53.448H45.0122V51.586H43.9202V53.448H42.4922V54.372H43.9202V57.97C43.9202 59.328 44.1722 60.168 45.7262 60.168C46.1322 60.168 46.6222 60.098 47.0002 59.93L46.9582 58.936C46.6642 59.09 46.3142 59.16 45.9922 59.16C45.0262 59.16 45.0122 58.488 45.0122 57.648V54.372H46.9442V53.448ZM52.2766 60H53.3686V53.448H52.2766V60ZM52.0246 50.886C52.0246 51.348 52.3606 51.684 52.8226 51.684C53.2846 51.684 53.6206 51.348 53.6206 50.886C53.6206 50.452 53.2706 50.088 52.8226 50.088C52.3746 50.088 52.0246 50.452 52.0246 50.886ZM59.1259 53.448H57.1939V51.586H56.1019V53.448H54.6739V54.372H56.1019V57.97C56.1019 59.328 56.3539 60.168 57.9079 60.168C58.3139 60.168 58.8039 60.098 59.1819 59.93L59.1399 58.936C58.8459 59.09 58.4959 59.16 58.1739 59.16C57.2079 59.16 57.1939 58.488 57.1939 57.648V54.372H59.1259V53.448ZM65.4897 58.166C64.9717 58.824 64.3417 59.16 63.4037 59.16C62.2137 59.16 61.3457 58.194 61.2617 57.06H66.5537V56.71C66.5537 54.54 65.2937 53.28 63.4457 53.28C61.5137 53.28 60.0857 54.694 60.0857 56.724C60.0857 58.628 61.3457 60.168 63.4037 60.168C64.6217 60.168 65.5457 59.804 66.3157 58.81L65.4897 58.166ZM61.2617 56.136C61.4017 55.03 62.1997 54.288 63.4037 54.288C64.6077 54.288 65.3357 55.03 65.3777 56.136H61.2617ZM68.243 60H69.335V56.808C69.335 55.31 69.951 54.288 71.365 54.288C72.261 54.288 72.625 54.848 72.625 56.29V60H73.717V56.22C73.717 55.044 74.487 54.288 75.411 54.288C76.685 54.288 77.007 55.17 77.007 56.08V60H78.099V56.024C78.099 54.33 77.483 53.28 75.607 53.28C74.613 53.28 74.011 53.756 73.535 54.526C73.325 54.078 72.877 53.28 71.463 53.28C70.385 53.28 69.573 53.882 69.279 54.526H69.251C69.251 54.162 69.223 53.798 69.223 53.448H68.187C68.187 53.882 68.243 54.4 68.243 55.002V60Z" fill="#333333"/>
<rect width="250" height="33" transform="translate(10 73)" fill="#E6E6E6"/>
<path d="M27.232 93H32.944V91.908H28.408V83.088H27.232V93ZM34.134 93H35.226V86.448H34.134V93ZM33.882 83.886C33.882 84.348 34.218 84.684 34.68 84.684C35.142 84.684 35.478 84.348 35.478 83.886C35.478 83.452 35.128 83.088 34.68 83.088C34.232 83.088 33.882 83.452 33.882 83.886ZM36.6713 91.95C37.3153 92.874 38.1133 93.168 39.2193 93.168C40.5213 93.168 41.8373 92.594 41.8373 91.11C41.8373 89.794 40.8573 89.374 39.6953 89.15C38.8273 88.982 38.0433 88.744 38.0433 88.198C38.0433 87.582 38.7293 87.288 39.3313 87.288C39.9753 87.288 40.4373 87.61 40.7173 88.072L41.6273 87.47C41.1793 86.63 40.3253 86.28 39.4013 86.28C38.1833 86.28 36.9513 86.938 36.9513 88.212C36.9513 89.57 38.0153 89.836 39.2613 90.116C39.9613 90.27 40.6613 90.452 40.6613 91.152C40.6613 91.866 39.9053 92.16 39.2193 92.16C38.4493 92.16 37.9733 91.81 37.5393 91.278L36.6713 91.95ZM46.9442 86.448H45.0122V84.586H43.9202V86.448H42.4922V87.372H43.9202V90.97C43.9202 92.328 44.1722 93.168 45.7262 93.168C46.1322 93.168 46.6222 93.098 47.0002 92.93L46.9582 91.936C46.6642 92.09 46.3142 92.16 45.9922 92.16C45.0262 92.16 45.0122 91.488 45.0122 90.648V87.372H46.9442V86.448ZM52.2766 93H53.3686V86.448H52.2766V93ZM52.0246 83.886C52.0246 84.348 52.3606 84.684 52.8226 84.684C53.2846 84.684 53.6206 84.348 53.6206 83.886C53.6206 83.452 53.2706 83.088 52.8226 83.088C52.3746 83.088 52.0246 83.452 52.0246 83.886ZM59.1259 86.448H57.1939V84.586H56.1019V86.448H54.6739V87.372H56.1019V90.97C56.1019 92.328 56.3539 93.168 57.9079 93.168C58.3139 93.168 58.8039 93.098 59.1819 92.93L59.1399 91.936C58.8459 92.09 58.4959 92.16 58.1739 92.16C57.2079 92.16 57.1939 91.488 57.1939 90.648V87.372H59.1259V86.448ZM65.4897 91.166C64.9717 91.824 64.3417 92.16 63.4037 92.16C62.2137 92.16 61.3457 91.194 61.2617 90.06H66.5537V89.71C66.5537 87.54 65.2937 86.28 63.4457 86.28C61.5137 86.28 60.0857 87.694 60.0857 89.724C60.0857 91.628 61.3457 93.168 63.4037 93.168C64.6217 93.168 65.5457 92.804 66.3157 91.81L65.4897 91.166ZM61.2617 89.136C61.4017 88.03 62.1997 87.288 63.4037 87.288C64.6077 87.288 65.3357 88.03 65.3777 89.136H61.2617ZM68.243 93H69.335V89.808C69.335 88.31 69.951 87.288 71.365 87.288C72.261 87.288 72.625 87.848 72.625 89.29V93H73.717V89.22C73.717 88.044 74.487 87.288 75.411 87.288C76.685 87.288 77.007 88.17 77.007 89.08V93H78.099V89.024C78.099 87.33 77.483 86.28 75.607 86.28C74.613 86.28 74.011 86.756 73.535 87.526C73.325 87.078 72.877 86.28 71.463 86.28C70.385 86.28 69.573 86.882 69.279 87.526H69.251C69.251 87.162 69.223 86.798 69.223 86.448H68.187C68.187 86.882 68.243 87.4 68.243 88.002V93Z" fill="#333333"/>
<rect width="250" height="33" transform="translate(10 106)" fill="white"/>
<path d="M27.232 126H32.944V124.908H28.408V116.088H27.232V126ZM34.134 126H35.226V119.448H34.134V126ZM33.882 116.886C33.882 117.348 34.218 117.684 34.68 117.684C35.142 117.684 35.478 117.348 35.478 116.886C35.478 116.452 35.128 116.088 34.68 116.088C34.232 116.088 33.882 116.452 33.882 116.886ZM36.6713 124.95C37.3153 125.874 38.1133 126.168 39.2193 126.168C40.5213 126.168 41.8373 125.594 41.8373 124.11C41.8373 122.794 40.8573 122.374 39.6953 122.15C38.8273 121.982 38.0433 121.744 38.0433 121.198C38.0433 120.582 38.7293 120.288 39.3313 120.288C39.9753 120.288 40.4373 120.61 40.7173 121.072L41.6273 120.47C41.1793 119.63 40.3253 119.28 39.4013 119.28C38.1833 119.28 36.9513 119.938 36.9513 121.212C36.9513 122.57 38.0153 122.836 39.2613 123.116C39.9613 123.27 40.6613 123.452 40.6613 124.152C40.6613 124.866 39.9053 125.16 39.2193 125.16C38.4493 125.16 37.9733 124.81 37.5393 124.278L36.6713 124.95ZM46.9442 119.448H45.0122V117.586H43.9202V119.448H42.4922V120.372H43.9202V123.97C43.9202 125.328 44.1722 126.168 45.7262 126.168C46.1322 126.168 46.6222 126.098 47.0002 125.93L46.9582 124.936C46.6642 125.09 46.3142 125.16 45.9922 125.16C45.0262 125.16 45.0122 124.488 45.0122 123.648V120.372H46.9442V119.448ZM52.2766 126H53.3686V119.448H52.2766V126ZM52.0246 116.886C52.0246 117.348 52.3606 117.684 52.8226 117.684C53.2846 117.684 53.6206 117.348 53.6206 116.886C53.6206 116.452 53.2706 116.088 52.8226 116.088C52.3746 116.088 52.0246 116.452 52.0246 116.886ZM59.1259 119.448H57.1939V117.586H56.1019V119.448H54.6739V120.372H56.1019V123.97C56.1019 125.328 56.3539 126.168 57.9079 126.168C58.3139 126.168 58.8039 126.098 59.1819 125.93L59.1399 124.936C58.8459 125.09 58.4959 125.16 58.1739 125.16C57.2079 125.16 57.1939 124.488 57.1939 123.648V120.372H59.1259V119.448ZM65.4897 124.166C64.9717 124.824 64.3417 125.16 63.4037 125.16C62.2137 125.16 61.3457 124.194 61.2617 123.06H66.5537V122.71C66.5537 120.54 65.2937 119.28 63.4457 119.28C61.5137 119.28 60.0857 120.694 60.0857 122.724C60.0857 124.628 61.3457 126.168 63.4037 126.168C64.6217 126.168 65.5457 125.804 66.3157 124.81L65.4897 124.166ZM61.2617 122.136C61.4017 121.03 62.1997 120.288 63.4037 120.288C64.6077 120.288 65.3357 121.03 65.3777 122.136H61.2617ZM68.243 126H69.335V122.808C69.335 121.31 69.951 120.288 71.365 120.288C72.261 120.288 72.625 120.848 72.625 122.29V126H73.717V122.22C73.717 121.044 74.487 120.288 75.411 120.288C76.685 120.288 77.007 121.17 77.007 122.08V126H78.099V122.024C78.099 120.33 77.483 119.28 75.607 119.28C74.613 119.28 74.011 119.756 73.535 120.526C73.325 120.078 72.877 119.28 71.463 119.28C70.385 119.28 69.573 119.882 69.279 120.526H69.251C69.251 120.162 69.223 119.798 69.223 119.448H68.187C68.187 119.882 68.243 120.4 68.243 121.002V126Z" fill="#333333"/>
<rect width="250" height="33" transform="translate(10 139)" fill="white"/>
<path d="M27.232 159H32.944V157.908H28.408V149.088H27.232V159ZM34.134 159H35.226V152.448H34.134V159ZM33.882 149.886C33.882 150.348 34.218 150.684 34.68 150.684C35.142 150.684 35.478 150.348 35.478 149.886C35.478 149.452 35.128 149.088 34.68 149.088C34.232 149.088 33.882 149.452 33.882 149.886ZM36.6713 157.95C37.3153 158.874 38.1133 159.168 39.2193 159.168C40.5213 159.168 41.8373 158.594 41.8373 157.11C41.8373 155.794 40.8573 155.374 39.6953 155.15C38.8273 154.982 38.0433 154.744 38.0433 154.198C38.0433 153.582 38.7293 153.288 39.3313 153.288C39.9753 153.288 40.4373 153.61 40.7173 154.072L41.6273 153.47C41.1793 152.63 40.3253 152.28 39.4013 152.28C38.1833 152.28 36.9513 152.938 36.9513 154.212C36.9513 155.57 38.0153 155.836 39.2613 156.116C39.9613 156.27 40.6613 156.452 40.6613 157.152C40.6613 157.866 39.9053 158.16 39.2193 158.16C38.4493 158.16 37.9733 157.81 37.5393 157.278L36.6713 157.95ZM46.9442 152.448H45.0122V150.586H43.9202V152.448H42.4922V153.372H43.9202V156.97C43.9202 158.328 44.1722 159.168 45.7262 159.168C46.1322 159.168 46.6222 159.098 47.0002 158.93L46.9582 157.936C46.6642 158.09 46.3142 158.16 45.9922 158.16C45.0262 158.16 45.0122 157.488 45.0122 156.648V153.372H46.9442V152.448ZM52.2766 159H53.3686V152.448H52.2766V159ZM52.0246 149.886C52.0246 150.348 52.3606 150.684 52.8226 150.684C53.2846 150.684 53.6206 150.348 53.6206 149.886C53.6206 149.452 53.2706 149.088 52.8226 149.088C52.3746 149.088 52.0246 149.452 52.0246 149.886ZM59.1259 152.448H57.1939V150.586H56.1019V152.448H54.6739V153.372H56.1019V156.97C56.1019 158.328 56.3539 159.168 57.9079 159.168C58.3139 159.168 58.8039 159.098 59.1819 158.93L59.1399 157.936C58.8459 158.09 58.4959 158.16 58.1739 158.16C57.2079 158.16 57.1939 157.488 57.1939 156.648V153.372H59.1259V152.448ZM65.4897 157.166C64.9717 157.824 64.3417 158.16 63.4037 158.16C62.2137 158.16 61.3457 157.194 61.2617 156.06H66.5537V155.71C66.5537 153.54 65.2937 152.28 63.4457 152.28C61.5137 152.28 60.0857 153.694 60.0857 155.724C60.0857 157.628 61.3457 159.168 63.4037 159.168C64.6217 159.168 65.5457 158.804 66.3157 157.81L65.4897 157.166ZM61.2617 155.136C61.4017 154.03 62.1997 153.288 63.4037 153.288C64.6077 153.288 65.3357 154.03 65.3777 155.136H61.2617ZM68.243 159H69.335V155.808C69.335 154.31 69.951 153.288 71.365 153.288C72.261 153.288 72.625 153.848 72.625 155.29V159H73.717V155.22C73.717 154.044 74.487 153.288 75.411 153.288C76.685 153.288 77.007 154.17 77.007 155.08V159H78.099V155.024C78.099 153.33 77.483 152.28 75.607 152.28C74.613 152.28 74.011 152.756 73.535 153.526C73.325 153.078 72.877 152.28 71.463 152.28C70.385 152.28 69.573 152.882 69.279 153.526H69.251C69.251 153.162 69.223 152.798 69.223 152.448H68.187C68.187 152.882 68.243 153.4 68.243 154.002V159Z" fill="#333333"/>
<rect width="250" height="33" transform="translate(10 172)" fill="white"/>
<path d="M27.232 192H32.944V190.908H28.408V182.088H27.232V192ZM34.134 192H35.226V185.448H34.134V192ZM33.882 182.886C33.882 183.348 34.218 183.684 34.68 183.684C35.142 183.684 35.478 183.348 35.478 182.886C35.478 182.452 35.128 182.088 34.68 182.088C34.232 182.088 33.882 182.452 33.882 182.886ZM36.6713 190.95C37.3153 191.874 38.1133 192.168 39.2193 192.168C40.5213 192.168 41.8373 191.594 41.8373 190.11C41.8373 188.794 40.8573 188.374 39.6953 188.15C38.8273 187.982 38.0433 187.744 38.0433 187.198C38.0433 186.582 38.7293 186.288 39.3313 186.288C39.9753 186.288 40.4373 186.61 40.7173 187.072L41.6273 186.47C41.1793 185.63 40.3253 185.28 39.4013 185.28C38.1833 185.28 36.9513 185.938 36.9513 187.212C36.9513 188.57 38.0153 188.836 39.2613 189.116C39.9613 189.27 40.6613 189.452 40.6613 190.152C40.6613 190.866 39.9053 191.16 39.2193 191.16C38.4493 191.16 37.9733 190.81 37.5393 190.278L36.6713 190.95ZM46.9442 185.448H45.0122V183.586H43.9202V185.448H42.4922V186.372H43.9202V189.97C43.9202 191.328 44.1722 192.168 45.7262 192.168C46.1322 192.168 46.6222 192.098 47.0002 191.93L46.9582 190.936C46.6642 191.09 46.3142 191.16 45.9922 191.16C45.0262 191.16 45.0122 190.488 45.0122 189.648V186.372H46.9442V185.448ZM52.2766 192H53.3686V185.448H52.2766V192ZM52.0246 182.886C52.0246 183.348 52.3606 183.684 52.8226 183.684C53.2846 183.684 53.6206 183.348 53.6206 182.886C53.6206 182.452 53.2706 182.088 52.8226 182.088C52.3746 182.088 52.0246 182.452 52.0246 182.886ZM59.1259 185.448H57.1939V183.586H56.1019V185.448H54.6739V186.372H56.1019V189.97C56.1019 191.328 56.3539 192.168 57.9079 192.168C58.3139 192.168 58.8039 192.098 59.1819 191.93L59.1399 190.936C58.8459 191.09 58.4959 191.16 58.1739 191.16C57.2079 191.16 57.1939 190.488 57.1939 189.648V186.372H59.1259V185.448ZM65.4897 190.166C64.9717 190.824 64.3417 191.16 63.4037 191.16C62.2137 191.16 61.3457 190.194 61.2617 189.06H66.5537V188.71C66.5537 186.54 65.2937 185.28 63.4457 185.28C61.5137 185.28 60.0857 186.694 60.0857 188.724C60.0857 190.628 61.3457 192.168 63.4037 192.168C64.6217 192.168 65.5457 191.804 66.3157 190.81L65.4897 190.166ZM61.2617 188.136C61.4017 187.03 62.1997 186.288 63.4037 186.288C64.6077 186.288 65.3357 187.03 65.3777 188.136H61.2617ZM68.243 192H69.335V188.808C69.335 187.31 69.951 186.288 71.365 186.288C72.261 186.288 72.625 186.848 72.625 188.29V192H73.717V188.22C73.717 187.044 74.487 186.288 75.411 186.288C76.685 186.288 77.007 187.17 77.007 188.08V192H78.099V188.024C78.099 186.33 77.483 185.28 75.607 185.28C74.613 185.28 74.011 185.756 73.535 186.526C73.325 186.078 72.877 185.28 71.463 185.28C70.385 185.28 69.573 185.882 69.279 186.526H69.251C69.251 186.162 69.223 185.798 69.223 185.448H68.187C68.187 185.882 68.243 186.4 68.243 187.002V192Z" fill="#333333"/>
<rect width="250" height="33" transform="translate(10 205)" fill="white"/>
<path d="M27.232 225H32.944V223.908H28.408V215.088H27.232V225ZM34.134 225H35.226V218.448H34.134V225ZM33.882 215.886C33.882 216.348 34.218 216.684 34.68 216.684C35.142 216.684 35.478 216.348 35.478 215.886C35.478 215.452 35.128 215.088 34.68 215.088C34.232 215.088 33.882 215.452 33.882 215.886ZM36.6713 223.95C37.3153 224.874 38.1133 225.168 39.2193 225.168C40.5213 225.168 41.8373 224.594 41.8373 223.11C41.8373 221.794 40.8573 221.374 39.6953 221.15C38.8273 220.982 38.0433 220.744 38.0433 220.198C38.0433 219.582 38.7293 219.288 39.3313 219.288C39.9753 219.288 40.4373 219.61 40.7173 220.072L41.6273 219.47C41.1793 218.63 40.3253 218.28 39.4013 218.28C38.1833 218.28 36.9513 218.938 36.9513 220.212C36.9513 221.57 38.0153 221.836 39.2613 222.116C39.9613 222.27 40.6613 222.452 40.6613 223.152C40.6613 223.866 39.9053 224.16 39.2193 224.16C38.4493 224.16 37.9733 223.81 37.5393 223.278L36.6713 223.95ZM46.9442 218.448H45.0122V216.586H43.9202V218.448H42.4922V219.372H43.9202V222.97C43.9202 224.328 44.1722 225.168 45.7262 225.168C46.1322 225.168 46.6222 225.098 47.0002 224.93L46.9582 223.936C46.6642 224.09 46.3142 224.16 45.9922 224.16C45.0262 224.16 45.0122 223.488 45.0122 222.648V219.372H46.9442V218.448ZM52.2766 225H53.3686V218.448H52.2766V225ZM52.0246 215.886C52.0246 216.348 52.3606 216.684 52.8226 216.684C53.2846 216.684 53.6206 216.348 53.6206 215.886C53.6206 215.452 53.2706 215.088 52.8226 215.088C52.3746 215.088 52.0246 215.452 52.0246 215.886ZM59.1259 218.448H57.1939V216.586H56.1019V218.448H54.6739V219.372H56.1019V222.97C56.1019 224.328 56.3539 225.168 57.9079 225.168C58.3139 225.168 58.8039 225.098 59.1819 224.93L59.1399 223.936C58.8459 224.09 58.4959 224.16 58.1739 224.16C57.2079 224.16 57.1939 223.488 57.1939 222.648V219.372H59.1259V218.448ZM65.4897 223.166C64.9717 223.824 64.3417 224.16 63.4037 224.16C62.2137 224.16 61.3457 223.194 61.2617 222.06H66.5537V221.71C66.5537 219.54 65.2937 218.28 63.4457 218.28C61.5137 218.28 60.0857 219.694 60.0857 221.724C60.0857 223.628 61.3457 225.168 63.4037 225.168C64.6217 225.168 65.5457 224.804 66.3157 223.81L65.4897 223.166ZM61.2617 221.136C61.4017 220.03 62.1997 219.288 63.4037 219.288C64.6077 219.288 65.3357 220.03 65.3777 221.136H61.2617ZM68.243 225H69.335V221.808C69.335 220.31 69.951 219.288 71.365 219.288C72.261 219.288 72.625 219.848 72.625 221.29V225H73.717V221.22C73.717 220.044 74.487 219.288 75.411 219.288C76.685 219.288 77.007 220.17 77.007 221.08V225H78.099V221.024C78.099 219.33 77.483 218.28 75.607 218.28C74.613 218.28 74.011 218.756 73.535 219.526C73.325 219.078 72.877 218.28 71.463 218.28C70.385 218.28 69.573 218.882 69.279 219.526H69.251C69.251 219.162 69.223 218.798 69.223 218.448H68.187C68.187 218.882 68.243 219.4 68.243 220.002V225Z" fill="#333333"/>
</g>
</g>
<rect x="10.5" y="0.5" width="92" height="35" rx="3.5" fill="white"/>
<path d="M27.408 22H28.752V16.912H34.032V15.664H28.752V11.92H34.432V10.672H27.408V22ZM36.1866 22H37.4346V14.512H36.1866V22ZM35.8986 11.584C35.8986 12.112 36.2826 12.496 36.8106 12.496C37.3386 12.496 37.7226 12.112 37.7226 11.584C37.7226 11.088 37.3226 10.672 36.8106 10.672C36.2986 10.672 35.8986 11.088 35.8986 11.584ZM40.0304 22H41.2784V9.904H40.0304V22ZM47.8581 14.512H45.6501V12.384H44.4021V14.512H42.7701V15.568H44.4021V19.68C44.4021 21.232 44.6901 22.192 46.4661 22.192C46.9301 22.192 47.4901 22.112 47.9221 21.92L47.8741 20.784C47.5381 20.96 47.1381 21.04 46.7701 21.04C45.6661 21.04 45.6501 20.272 45.6501 19.312V15.568H47.8581V14.512ZM55.1311 19.904C54.5391 20.656 53.8191 21.04 52.7471 21.04C51.3871 21.04 50.3951 19.936 50.2991 18.64H56.3471V18.24C56.3471 15.76 54.9071 14.32 52.7951 14.32C50.5871 14.32 48.9551 15.936 48.9551 18.256C48.9551 20.432 50.3951 22.192 52.7471 22.192C54.1391 22.192 55.1951 21.776 56.0751 20.64L55.1311 19.904ZM50.2991 17.584C50.4591 16.32 51.3711 15.472 52.7471 15.472C54.1231 15.472 54.9551 16.32 55.0031 17.584H50.2991ZM58.2778 22H59.5258V18.352C59.5258 16.64 60.1978 15.568 61.7178 15.568C61.9418 15.568 62.1818 15.6 62.3898 15.664L62.4698 14.4C62.2938 14.336 62.1178 14.32 61.9578 14.32C60.7258 14.32 59.7978 15.008 59.4618 15.744H59.4298C59.4298 15.328 59.3978 14.912 59.3978 14.512H58.2138C58.2138 15.008 58.2778 15.6 58.2778 16.288V22Z" fill="#616C7F"/>
<path d="M77 20.7085C76.9179 20.7089 76.8365 20.6929 76.7607 20.6614C76.6848 20.63 76.616 20.5836 76.5583 20.5252L72.3917 16.3585C72.3086 16.237 72.2711 16.0899 72.2858 15.9434C72.3005 15.7969 72.3665 15.6603 72.4721 15.5576C72.5777 15.455 72.7162 15.393 72.8631 15.3825C73.01 15.3719 73.1559 15.4137 73.275 15.5002L77 19.2002L80.725 15.5002C80.8425 15.4241 80.9821 15.3895 81.1215 15.4022C81.2609 15.4149 81.3921 15.4739 81.4939 15.57C81.5957 15.6661 81.6624 15.7936 81.6831 15.932C81.7039 16.0704 81.6775 16.2119 81.6083 16.3335L77.4417 20.5002C77.3861 20.5632 77.3183 20.6141 77.2423 20.65C77.1664 20.6858 77.0839 20.7057 77 20.7085V20.7085Z" fill="#6B778C"/>
<rect x="10.5" y="0.5" width="92" height="35" rx="3.5" stroke="#9EA6B5"/>
<path d="M27.408 267H30.784C32.88 267 35.2 266.328 35.2 263.832C35.2 262.344 34.096 261.176 32.64 261.048V261.016C33.856 260.648 34.624 259.768 34.624 258.456C34.624 256.376 32.736 255.672 30.864 255.672H27.408V267ZM28.752 256.92H30.752C31.968 256.92 33.184 257.24 33.184 258.632C33.184 260.2 31.872 260.472 30.608 260.472H28.752V256.92ZM28.752 261.72H31.056C32.416 261.72 33.76 262.2 33.76 263.784C33.76 265.224 32.336 265.752 31.024 265.752H28.752V261.72ZM43.7901 259.512H42.5421V263.16C42.5421 264.872 41.8381 266.04 40.2221 266.04C39.0541 266.04 38.5101 265.256 38.5101 264.008V259.512H37.2621V264.136C37.2621 265.944 38.1421 267.192 40.1101 267.192C41.3421 267.192 42.2701 266.504 42.6061 265.768H42.6381C42.6381 266.184 42.6701 266.6 42.6701 267H43.8541C43.8541 266.504 43.7901 265.912 43.7901 265.224V259.512ZM50.2488 259.512H48.0408V257.384H46.7928V259.512H45.1608V260.568H46.7928V264.68C46.7928 266.232 47.0807 267.192 48.8568 267.192C49.3208 267.192 49.8808 267.112 50.3128 266.92L50.2648 265.784C49.9288 265.96 49.5288 266.04 49.1608 266.04C48.0568 266.04 48.0408 265.272 48.0408 264.312V260.568H50.2488V259.512ZM55.8738 259.512H53.6658V257.384H52.4178V259.512H50.7858V260.568H52.4178V264.68C52.4178 266.232 52.7057 267.192 54.4818 267.192C54.9458 267.192 55.5058 267.112 55.9378 266.92L55.8898 265.784C55.5538 265.96 55.1538 266.04 54.7858 266.04C53.6818 266.04 53.6658 265.272 53.6658 264.312V260.568H55.8738V259.512ZM56.9708 263.256C56.9708 265.592 58.6668 267.192 60.9708 267.192C63.2748 267.192 64.9708 265.592 64.9708 263.256C64.9708 260.92 63.2748 259.32 60.9708 259.32C58.6668 259.32 56.9708 260.92 56.9708 263.256ZM58.3148 263.256C58.3148 261.688 59.3548 260.472 60.9708 260.472C62.5868 260.472 63.6268 261.688 63.6268 263.256C63.6268 264.824 62.5868 266.04 60.9708 266.04C59.3548 266.04 58.3148 264.824 58.3148 263.256ZM66.9028 267H68.1508V263.352C68.1508 261.64 68.8548 260.472 70.4708 260.472C71.6388 260.472 72.1828 261.256 72.1828 262.504V267H73.4308V262.376C73.4308 260.568 72.5508 259.32 70.5828 259.32C69.3508 259.32 68.4228 260.008 68.0868 260.744H68.0548C68.0548 260.328 68.0228 259.912 68.0228 259.512H66.8388C66.8388 260.008 66.9028 260.6 66.9028 261.288V267ZM86.5665 260.504C85.8145 259.688 84.7905 259.32 83.6865 259.32C81.3825 259.32 79.8145 260.984 79.8145 263.256C79.8145 265.56 81.3665 267.192 83.6865 267.192C84.7745 267.192 85.7985 266.824 86.5185 265.992L85.5905 265.112C85.1265 265.752 84.5025 266.04 83.6865 266.04C82.1665 266.04 81.1585 264.792 81.1585 263.256C81.1585 261.72 82.0065 260.472 83.6865 260.472C84.4385 260.472 85.0465 260.744 85.5745 261.384L86.5665 260.504ZM87.5333 263.256C87.5333 265.592 89.2293 267.192 91.5333 267.192C93.8373 267.192 95.5333 265.592 95.5333 263.256C95.5333 260.92 93.8373 259.32 91.5333 259.32C89.2293 259.32 87.5333 260.92 87.5333 263.256ZM88.8773 263.256C88.8773 261.688 89.9173 260.472 91.5333 260.472C93.1493 260.472 94.1893 261.688 94.1893 263.256C94.1893 264.824 93.1493 266.04 91.5333 266.04C89.9173 266.04 88.8773 264.824 88.8773 263.256ZM97.4653 267H98.7133V263.352C98.7133 261.64 99.4173 260.472 101.033 260.472C102.201 260.472 102.745 261.256 102.745 262.504V267H103.993V262.376C103.993 260.568 103.113 259.32 101.145 259.32C99.9133 259.32 98.9853 260.008 98.6493 260.744H98.6173C98.6173 260.328 98.5853 259.912 98.5853 259.512H97.4013C97.4013 260.008 97.4653 260.6 97.4653 261.288V267ZM110.452 259.512H108.244V257.384H106.996V259.512H105.364V260.568H106.996V264.68C106.996 266.232 107.284 267.192 109.06 267.192C109.524 267.192 110.084 267.112 110.516 266.92L110.468 265.784C110.132 265.96 109.732 266.04 109.364 266.04C108.26 266.04 108.244 265.272 108.244 264.312V260.568H110.452V259.512ZM111.981 267H113.229V263.352C113.229 261.64 113.901 260.568 115.421 260.568C115.645 260.568 115.885 260.6 116.093 260.664L116.173 259.4C115.997 259.336 115.821 259.32 115.661 259.32C114.429 259.32 113.501 260.008 113.165 260.744H113.133C113.133 260.328 113.101 259.912 113.101 259.512H111.917C111.917 260.008 111.981 260.6 111.981 261.288V267ZM116.893 263.256C116.893 265.592 118.589 267.192 120.893 267.192C123.197 267.192 124.893 265.592 124.893 263.256C124.893 260.92 123.197 259.32 120.893 259.32C118.589 259.32 116.893 260.92 116.893 263.256ZM118.237 263.256C118.237 261.688 119.277 260.472 120.893 260.472C122.509 260.472 123.549 261.688 123.549 263.256C123.549 264.824 122.509 266.04 120.893 266.04C119.277 266.04 118.237 264.824 118.237 263.256ZM126.937 267H128.185V254.904H126.937V267ZM145.57 259.512H144.226L142.53 265.272H142.498L140.53 259.512H139.218L137.282 265.272H137.25L135.538 259.512H134.162L136.594 267H137.874L139.762 261.24H139.794L141.922 267H143.154L145.57 259.512ZM147.093 267H148.341V259.512H147.093V267ZM146.805 256.584C146.805 257.112 147.189 257.496 147.717 257.496C148.245 257.496 148.629 257.112 148.629 256.584C148.629 256.088 148.229 255.672 147.717 255.672C147.205 255.672 146.805 256.088 146.805 256.584ZM154.921 259.512H152.713V257.384H151.465V259.512H149.833V260.568H151.465V264.68C151.465 266.232 151.753 267.192 153.529 267.192C153.993 267.192 154.553 267.112 154.985 266.92L154.937 265.784C154.601 265.96 154.201 266.04 153.833 266.04C152.729 266.04 152.713 265.272 152.713 264.312V260.568H154.921V259.512ZM156.45 267H157.698V263.352C157.698 261.64 158.402 260.472 160.018 260.472C161.186 260.472 161.73 261.256 161.73 262.504V267H162.978V262.376C162.978 260.568 162.098 259.32 160.13 259.32C158.962 259.32 158.066 259.96 157.73 260.552H157.698V254.904H156.45V267ZM176.017 267H177.265V254.904H176.017V260.6H175.985C175.297 259.8 174.385 259.32 173.297 259.32C170.945 259.32 169.361 260.984 169.361 263.256C169.361 265.496 171.009 267.192 173.105 267.192C174.449 267.192 175.521 266.52 175.985 265.672H176.017V267ZM176.017 263.256C176.017 264.824 174.977 266.04 173.361 266.04C171.745 266.04 170.705 264.824 170.705 263.256C170.705 261.688 171.745 260.472 173.361 260.472C174.977 260.472 176.017 261.688 176.017 263.256ZM179.575 267H180.823V263.352C180.823 261.64 181.495 260.568 183.015 260.568C183.239 260.568 183.479 260.6 183.687 260.664L183.767 259.4C183.591 259.336 183.415 259.32 183.255 259.32C182.023 259.32 181.095 260.008 180.759 260.744H180.727C180.727 260.328 180.695 259.912 180.695 259.512H179.511C179.511 260.008 179.575 260.6 179.575 261.288V267ZM184.486 263.256C184.486 265.592 186.182 267.192 188.486 267.192C190.79 267.192 192.486 265.592 192.486 263.256C192.486 260.92 190.79 259.32 188.486 259.32C186.182 259.32 184.486 260.92 184.486 263.256ZM185.83 263.256C185.83 261.688 186.87 260.472 188.486 260.472C190.102 260.472 191.142 261.688 191.142 263.256C191.142 264.824 190.102 266.04 188.486 266.04C186.87 266.04 185.83 264.824 185.83 263.256ZM194.354 270.648H195.602V265.672H195.634C196.098 266.52 197.17 267.192 198.514 267.192C200.61 267.192 202.258 265.496 202.258 263.256C202.258 260.984 200.674 259.32 198.322 259.32C197.234 259.32 196.322 259.8 195.634 260.6H195.602V259.512H194.354V270.648ZM195.602 263.256C195.602 261.688 196.642 260.472 198.258 260.472C199.874 260.472 200.914 261.688 200.914 263.256C200.914 264.824 199.874 266.04 198.258 266.04C196.642 266.04 195.602 264.824 195.602 263.256ZM210.424 267H211.672V254.904H210.424V260.6H210.392C209.704 259.8 208.792 259.32 207.704 259.32C205.352 259.32 203.768 260.984 203.768 263.256C203.768 265.496 205.416 267.192 207.512 267.192C208.856 267.192 209.928 266.52 210.392 265.672H210.424V267ZM210.424 263.256C210.424 264.824 209.384 266.04 207.768 266.04C206.152 266.04 205.112 264.824 205.112 263.256C205.112 261.688 206.152 260.472 207.768 260.472C209.384 260.472 210.424 261.688 210.424 263.256ZM213.549 263.256C213.549 265.592 215.245 267.192 217.549 267.192C219.853 267.192 221.549 265.592 221.549 263.256C221.549 260.92 219.853 259.32 217.549 259.32C215.245 259.32 213.549 260.92 213.549 263.256ZM214.893 263.256C214.893 261.688 215.933 260.472 217.549 260.472C219.165 260.472 220.205 261.688 220.205 263.256C220.205 264.824 219.165 266.04 217.549 266.04C215.933 266.04 214.893 264.824 214.893 263.256ZM233.929 259.512H232.585L230.889 265.272H230.857L228.889 259.512H227.577L225.641 265.272H225.609L223.897 259.512H222.521L224.953 267H226.233L228.121 261.24H228.153L230.281 267H231.513L233.929 259.512ZM235.34 267H236.588V263.352C236.588 261.64 237.292 260.472 238.908 260.472C240.076 260.472 240.62 261.256 240.62 262.504V267H241.868V262.376C241.868 260.568 240.988 259.32 239.02 259.32C237.788 259.32 236.86 260.008 236.524 260.744H236.492C236.492 260.328 236.46 259.912 236.46 259.512H235.276C235.276 260.008 235.34 260.6 235.34 261.288V267Z" fill="#333333"/>
<defs>
<filter id="filter0_dd_139_26755" x="0" y="31" width="270" height="218" filterUnits="userSpaceOnUse" color-interpolation-filters="sRGB">
<feFlood flood-opacity="0" result="BackgroundImageFix"/>
<feColorMatrix in="SourceAlpha" type="matrix" values="0 0 0 0 0 0 0 0 0 0 0 0 0 0 0 0 0 0 127 0" result="hardAlpha"/>
<feOffset dy="2"/>
<feGaussianBlur stdDeviation="2"/>
<feColorMatrix type="matrix" values="0 0 0 0 0 0 0 0 0 0 0 0 0 0 0 0 0 0 0.1 0"/>
<feBlend mode="normal" in2="BackgroundImageFix" result="effect1_dropShadow_139_26755"/>
<feColorMatrix in="SourceAlpha" type="matrix" values="0 0 0 0 0 0 0 0 0 0 0 0 0 0 0 0 0 0 127 0" result="hardAlpha"/>
<feOffset dy="1"/>
<feGaussianBlur stdDeviation="5"/>
<feComposite in2="hardAlpha" operator="out"/>
<feColorMatrix type="matrix" values="0 0 0 0 0 0 0 0 0 0 0 0 0 0 0 0 0 0 0.12 0"/>
<feBlend mode="normal" in2="effect1_dropShadow_139_26755" result="effect2_dropShadow_139_26755"/>
<feBlend mode="normal" in="SourceGraphic" in2="effect2_dropShadow_139_26755" result="shape"/>
</filter>
<clipPath id="clip0_139_26755">
<rect x="10" y="40" width="250" height="198" rx="4" fill="white"/>
</clipPath>
</defs>
</svg>
