<svg width="1014" height="155" viewBox="0 0 1014 155" fill="none" xmlns="http://www.w3.org/2000/svg">
<path d="M2.106 12H3.87V4.398H3.898L8.798 12H11.038V2.088H9.274V9.452H9.246L4.444 2.088H2.106V12ZM19.2266 5.28H17.5466V8.948C17.5466 9.844 17.1126 10.656 16.0066 10.656C14.8306 10.656 14.7746 9.424 14.7746 8.682V5.28H13.0946V9.522C13.0946 10.894 13.7386 12.168 15.5446 12.168C16.6646 12.168 17.2946 11.594 17.6026 10.922H17.6306V12H19.2266V5.28ZM21.0636 12H22.7436V8.332C22.7436 7.436 23.1776 6.624 24.2836 6.624C25.0956 6.624 25.4316 7.17 25.4316 7.996V12H27.1116V8.36C27.1116 7.492 27.5036 6.624 28.5536 6.624C29.5476 6.624 29.7996 7.352 29.7996 8.192V12H31.4796V7.996C31.4796 6.386 30.8496 5.112 29.0576 5.112C28.0496 5.112 27.3356 5.504 26.8456 6.358C26.4956 5.518 25.7816 5.112 24.7456 5.112C23.6256 5.112 22.9816 5.7 22.6876 6.33H22.6596V5.28H21.0636V12ZM33.3153 12H34.9113V10.992H34.9393C35.4293 11.804 36.3113 12.168 37.2493 12.168C39.3213 12.168 40.5673 10.628 40.5673 8.64C40.5673 6.652 39.2373 5.112 37.3193 5.112C36.0593 5.112 35.3873 5.7 35.0373 6.134H34.9953V1.416H33.3153V12ZM38.8873 8.64C38.8873 9.69 38.1453 10.656 36.9133 10.656C35.6813 10.656 34.9393 9.69 34.9393 8.64C34.9393 7.59 35.6813 6.624 36.9133 6.624C38.1453 6.624 38.8873 7.59 38.8873 8.64ZM48.6016 9.228V8.766C48.6016 6.428 47.3276 5.112 45.4516 5.112C43.4216 5.112 41.7976 6.526 41.7976 8.64C41.7976 10.754 43.4216 12.168 45.4516 12.168C46.5156 12.168 47.5096 11.79 48.2936 10.824L47.0896 9.914C46.6696 10.432 46.1236 10.824 45.2836 10.824C44.3456 10.824 43.5896 10.222 43.4776 9.228H48.6016ZM43.4776 7.968C43.6036 7.002 44.2196 6.372 45.2136 6.372C46.2636 6.372 46.9076 6.988 46.9216 7.968H43.4776ZM50.1727 12H51.8527V8.402C51.8527 8.038 52.0767 6.708 53.6587 6.708C53.9247 6.708 54.1907 6.764 54.4707 6.834V5.21C54.2747 5.154 54.0787 5.112 53.8687 5.112C52.9867 5.112 52.2447 5.574 51.8807 6.344H51.8527V5.28H50.1727V12ZM60.3181 6.134C59.7721 5.392 58.8201 5.112 57.9241 5.112C56.5661 5.112 55.2221 5.784 55.2221 7.282C55.2221 9.844 58.8481 8.752 58.8481 10.138C58.8481 10.67 58.2181 10.908 57.7281 10.908C57.0141 10.908 56.5661 10.558 56.1321 10.082L55.0121 11.132C55.6981 11.902 56.5941 12.168 57.6301 12.168C59.0021 12.168 60.5281 11.608 60.5281 10.012C60.5281 7.394 56.9021 8.374 56.9021 7.17C56.9021 6.666 57.4341 6.456 57.8821 6.456C58.4561 6.456 58.8761 6.694 59.1981 7.142L60.3181 6.134ZM61.8348 11.02C61.8348 11.622 62.3668 12.084 62.9548 12.084C63.5708 12.084 64.0748 11.594 64.0748 10.992C64.0748 10.39 63.5568 9.928 62.9548 9.928C62.3388 9.928 61.8348 10.418 61.8348 11.02ZM61.8348 6.274C61.8348 6.876 62.3668 7.338 62.9548 7.338C63.5708 7.338 64.0748 6.848 64.0748 6.246C64.0748 5.644 63.5568 5.182 62.9548 5.182C62.3388 5.182 61.8348 5.672 61.8348 6.274ZM69.994 12H76.63V10.488H72.038L75.104 7.646C75.986 6.834 76.63 5.98 76.63 4.734C76.63 2.83 75.202 1.92 73.424 1.92C71.632 1.92 70.302 2.886 70.134 4.72L71.898 4.86C72.01 4.048 72.598 3.516 73.424 3.516C74.194 3.516 74.866 4.006 74.866 4.818C74.866 5.504 74.306 6.05 73.844 6.498L69.994 10.222V12ZM82.5757 12H84.2557V1.416H82.5757V12ZM92.6524 9.228V8.766C92.6524 6.428 91.3784 5.112 89.5024 5.112C87.4724 5.112 85.8484 6.526 85.8484 8.64C85.8484 10.754 87.4724 12.168 89.5024 12.168C90.5664 12.168 91.5604 11.79 92.3444 10.824L91.1404 9.914C90.7204 10.432 90.1744 10.824 89.3344 10.824C88.3964 10.824 87.6404 10.222 87.5284 9.228H92.6524ZM87.5284 7.968C87.6544 7.002 88.2704 6.372 89.2644 6.372C90.3144 6.372 90.9584 6.988 90.9724 7.968H87.5284ZM94.8255 12H96.5055V6.708H98.0595V5.28H96.5055V4.062C96.5055 3.32 96.6455 2.676 97.5835 2.676C97.8215 2.676 98.0455 2.718 98.2835 2.774L98.3955 1.346C98.0455 1.276 97.6955 1.248 97.3315 1.248C95.2455 1.248 94.8255 2.466 94.8255 4.328V5.28H93.4395V6.708H94.8255V12ZM99.7474 6.708V9.788C99.7474 11.37 100.167 12.168 101.945 12.168C102.337 12.168 102.925 12.112 103.275 11.944V10.53C103.065 10.684 102.659 10.74 102.365 10.74C101.623 10.74 101.427 10.32 101.427 9.648V6.708H103.275V5.28H101.427V3.334H99.7474V5.28H98.3614V6.708H99.7474Z" fill="black"/>
<path d="M1 37C1 34.7909 2.79086 33 5 33H117V69H5C2.79086 69 1 67.2091 1 65V37Z" fill="#EDE9ED"/>
<path d="M47.2749 54.5H53.2529V52.904H49.0389V44.588H47.2749V54.5ZM60.8487 51.728V51.266C60.8487 48.928 59.5747 47.612 57.6987 47.612C55.6687 47.612 54.0447 49.026 54.0447 51.14C54.0447 53.254 55.6687 54.668 57.6987 54.668C58.7627 54.668 59.7567 54.29 60.5407 53.324L59.3367 52.414C58.9167 52.932 58.3707 53.324 57.5307 53.324C56.5927 53.324 55.8367 52.722 55.7247 51.728H60.8487ZM55.7247 50.468C55.8507 49.502 56.4667 48.872 57.4607 48.872C58.5107 48.872 59.1547 49.488 59.1687 50.468H55.7247ZM63.0218 54.5H64.7018V49.208H66.2558V47.78H64.7018V46.562C64.7018 45.82 64.8418 45.176 65.7798 45.176C66.0178 45.176 66.2418 45.218 66.4798 45.274L66.5918 43.846C66.2418 43.776 65.8918 43.748 65.5278 43.748C63.4418 43.748 63.0218 44.966 63.0218 46.828V47.78H61.6358V49.208H63.0218V54.5ZM67.9436 49.208V52.288C67.9436 53.87 68.3636 54.668 70.1416 54.668C70.5336 54.668 71.1216 54.612 71.4716 54.444V53.03C71.2616 53.184 70.8556 53.24 70.5616 53.24C69.8196 53.24 69.6236 52.82 69.6236 52.148V49.208H71.4716V47.78H69.6236V45.834H67.9436V47.78H66.5576V49.208H67.9436Z" fill="#6C3078"/>
<path d="M1 37C1 34.7909 2.79086 33 5 33H117V69H5C2.79086 69 1 67.2091 1 65V37Z" stroke="#6C3078"/>
<path d="M117 33H229C231.209 33 233 34.7909 233 37V65C233 67.2091 231.209 69 229 69H117V33Z" fill="white"/>
<path d="M159.641 54.5H160.817V50.048H162.329L165.017 54.5H166.459L163.645 49.936C165.185 49.698 166.123 48.76 166.123 47.318C166.123 44.868 164.093 44.588 162.175 44.588H159.641V54.5ZM160.817 45.68H162.469C163.617 45.68 164.863 45.89 164.863 47.318C164.863 48.956 163.169 48.956 161.867 48.956H160.817V45.68ZM168.102 54.5H169.194V47.948H168.102V54.5ZM167.85 45.386C167.85 45.848 168.186 46.184 168.648 46.184C169.11 46.184 169.446 45.848 169.446 45.386C169.446 44.952 169.096 44.588 168.648 44.588C168.2 44.588 167.85 44.952 167.85 45.386ZM177.905 47.948H176.813V49.068H176.785C176.351 48.2 175.357 47.78 174.475 47.78C172.389 47.78 170.989 49.082 170.989 51.224C170.989 53.156 172.417 54.584 174.475 54.584C175.343 54.584 176.267 54.206 176.785 53.366H176.813V54.206C176.813 55.592 176.295 56.852 174.335 56.852C173.327 56.852 172.585 56.46 171.899 55.718L171.115 56.614C172.039 57.524 173.061 57.86 174.335 57.86C176.631 57.86 177.905 56.572 177.905 54.206V47.948ZM172.165 51.224C172.165 49.852 173.103 48.788 174.475 48.788C175.861 48.788 176.813 49.782 176.813 51.196C176.813 52.456 175.973 53.576 174.475 53.576C173.201 53.576 172.165 52.554 172.165 51.224ZM179.926 54.5H181.018V51.308C181.018 49.81 181.634 48.788 183.048 48.788C184.07 48.788 184.546 49.474 184.546 50.566V54.5H185.638V50.454C185.638 48.872 184.868 47.78 183.146 47.78C182.124 47.78 181.34 48.34 181.046 48.858H181.018V43.916H179.926V54.5ZM191.289 47.948H189.357V46.086H188.265V47.948H186.837V48.872H188.265V52.47C188.265 53.828 188.517 54.668 190.071 54.668C190.477 54.668 190.967 54.598 191.345 54.43L191.303 53.436C191.009 53.59 190.659 53.66 190.337 53.66C189.371 53.66 189.357 52.988 189.357 52.148V48.872H191.289V47.948Z" fill="#616C7F"/>
<path d="M117 33H229C231.209 33 233 34.7909 233 37V65C233 67.2091 231.209 69 229 69H117V33Z" stroke="#9EA6B5"/>
<path d="M266.106 12H267.87V4.398H267.898L272.798 12H275.038V2.088H273.274V9.452H273.246L268.444 2.088H266.106V12ZM283.227 5.28H281.547V8.948C281.547 9.844 281.113 10.656 280.007 10.656C278.831 10.656 278.775 9.424 278.775 8.682V5.28H277.095V9.522C277.095 10.894 277.739 12.168 279.545 12.168C280.665 12.168 281.295 11.594 281.603 10.922H281.631V12H283.227V5.28ZM285.064 12H286.744V8.332C286.744 7.436 287.178 6.624 288.284 6.624C289.096 6.624 289.432 7.17 289.432 7.996V12H291.112V8.36C291.112 7.492 291.504 6.624 292.554 6.624C293.548 6.624 293.8 7.352 293.8 8.192V12H295.48V7.996C295.48 6.386 294.85 5.112 293.058 5.112C292.05 5.112 291.336 5.504 290.846 6.358C290.496 5.518 289.782 5.112 288.746 5.112C287.626 5.112 286.982 5.7 286.688 6.33H286.66V5.28H285.064V12ZM297.315 12H298.911V10.992H298.939C299.429 11.804 300.311 12.168 301.249 12.168C303.321 12.168 304.567 10.628 304.567 8.64C304.567 6.652 303.237 5.112 301.319 5.112C300.059 5.112 299.387 5.7 299.037 6.134H298.995V1.416H297.315V12ZM302.887 8.64C302.887 9.69 302.145 10.656 300.913 10.656C299.681 10.656 298.939 9.69 298.939 8.64C298.939 7.59 299.681 6.624 300.913 6.624C302.145 6.624 302.887 7.59 302.887 8.64ZM312.602 9.228V8.766C312.602 6.428 311.328 5.112 309.452 5.112C307.422 5.112 305.798 6.526 305.798 8.64C305.798 10.754 307.422 12.168 309.452 12.168C310.516 12.168 311.51 11.79 312.294 10.824L311.09 9.914C310.67 10.432 310.124 10.824 309.284 10.824C308.346 10.824 307.59 10.222 307.478 9.228H312.602ZM307.478 7.968C307.604 7.002 308.22 6.372 309.214 6.372C310.264 6.372 310.908 6.988 310.922 7.968H307.478ZM314.173 12H315.853V8.402C315.853 8.038 316.077 6.708 317.659 6.708C317.925 6.708 318.191 6.764 318.471 6.834V5.21C318.275 5.154 318.079 5.112 317.869 5.112C316.987 5.112 316.245 5.574 315.881 6.344H315.853V5.28H314.173V12ZM324.318 6.134C323.772 5.392 322.82 5.112 321.924 5.112C320.566 5.112 319.222 5.784 319.222 7.282C319.222 9.844 322.848 8.752 322.848 10.138C322.848 10.67 322.218 10.908 321.728 10.908C321.014 10.908 320.566 10.558 320.132 10.082L319.012 11.132C319.698 11.902 320.594 12.168 321.63 12.168C323.002 12.168 324.528 11.608 324.528 10.012C324.528 7.394 320.902 8.374 320.902 7.17C320.902 6.666 321.434 6.456 321.882 6.456C322.456 6.456 322.876 6.694 323.198 7.142L324.318 6.134ZM325.835 11.02C325.835 11.622 326.367 12.084 326.955 12.084C327.571 12.084 328.075 11.594 328.075 10.992C328.075 10.39 327.557 9.928 326.955 9.928C326.339 9.928 325.835 10.418 325.835 11.02ZM325.835 6.274C325.835 6.876 326.367 7.338 326.955 7.338C327.571 7.338 328.075 6.848 328.075 6.246C328.075 5.644 327.557 5.182 326.955 5.182C326.339 5.182 325.835 5.672 325.835 6.274ZM333.994 12H340.63V10.488H336.038L339.104 7.646C339.986 6.834 340.63 5.98 340.63 4.734C340.63 2.83 339.202 1.92 337.424 1.92C335.632 1.92 334.302 2.886 334.134 4.72L335.898 4.86C336.01 4.048 336.598 3.516 337.424 3.516C338.194 3.516 338.866 4.006 338.866 4.818C338.866 5.504 338.306 6.05 337.844 6.498L333.994 10.222V12ZM346.702 12H348.466V7.8H349.754L352.05 12H354.178L351.546 7.618C353.016 7.408 353.842 6.358 353.842 4.93C353.842 2.704 352.05 2.088 350.146 2.088H346.702V12ZM348.466 6.288V3.6H349.992C350.902 3.6 351.994 3.74 351.994 4.916C351.994 6.204 350.832 6.288 349.838 6.288H348.466ZM355.394 12H357.074V5.28H355.394V12ZM355.156 2.998C355.156 3.53 355.604 4.006 356.22 4.006C356.836 4.006 357.312 3.572 357.312 2.998C357.312 2.424 356.836 1.99 356.22 1.99C355.604 1.99 355.156 2.466 355.156 2.998ZM364.323 5.28V6.288H364.295C363.805 5.476 362.923 5.112 361.985 5.112C359.913 5.112 358.667 6.652 358.667 8.64C358.667 10.544 359.997 12.084 362.013 12.084C362.853 12.084 363.721 11.762 364.211 11.104H364.239V11.594C364.239 12.924 363.735 13.848 362.111 13.848C361.173 13.848 360.473 13.498 359.801 12.882L358.793 14.254C359.745 15.094 360.879 15.36 362.125 15.36C364.743 15.36 365.919 13.82 365.919 11.398V5.28H364.323ZM362.335 6.624C363.553 6.624 364.323 7.436 364.323 8.598C364.323 9.718 363.567 10.572 362.321 10.572C361.187 10.572 360.347 9.69 360.347 8.626C360.347 7.436 361.159 6.624 362.335 6.624ZM369.501 1.416H367.821V12H369.501V8.332C369.501 7.436 369.935 6.624 371.041 6.624C372.217 6.624 372.273 7.856 372.273 8.598V12H373.953V7.758C373.953 6.386 373.309 5.112 371.503 5.112C370.467 5.112 369.795 5.658 369.529 6.218H369.501V1.416ZM376.462 6.708V9.788C376.462 11.37 376.882 12.168 378.66 12.168C379.052 12.168 379.64 12.112 379.99 11.944V10.53C379.78 10.684 379.374 10.74 379.08 10.74C378.338 10.74 378.142 10.32 378.142 9.648V6.708H379.99V5.28H378.142V3.334H376.462V5.28H375.076V6.708H376.462Z" fill="black"/>
<path d="M265 36C265 33.7909 266.791 32 269 32H381V68H269C266.791 68 265 66.2091 265 64V36Z" fill="white"/>
<path d="M312.173 53.5H317.885V52.408H313.349V43.588H312.173V53.5ZM324.003 51.666C323.485 52.324 322.855 52.66 321.917 52.66C320.727 52.66 319.859 51.694 319.775 50.56H325.067V50.21C325.067 48.04 323.807 46.78 321.959 46.78C320.027 46.78 318.599 48.194 318.599 50.224C318.599 52.128 319.859 53.668 321.917 53.668C323.135 53.668 324.059 53.304 324.829 52.31L324.003 51.666ZM319.775 49.636C319.915 48.53 320.713 47.788 321.917 47.788C323.121 47.788 323.849 48.53 323.891 49.636H319.775ZM327.317 53.5H328.409V47.872H330.005V46.948H328.409V45.716C328.409 44.582 328.451 43.756 329.585 43.756C329.837 43.756 330.089 43.812 330.327 43.896L330.481 42.916C330.271 42.804 329.921 42.748 329.641 42.748C327.877 42.748 327.317 43.882 327.317 45.478V46.948H325.889V47.872H327.317V53.5ZM334.757 46.948H332.825V45.086H331.733V46.948H330.305V47.872H331.733V51.47C331.733 52.828 331.985 53.668 333.539 53.668C333.945 53.668 334.435 53.598 334.813 53.43L334.771 52.436C334.477 52.59 334.127 52.66 333.805 52.66C332.839 52.66 332.825 51.988 332.825 51.148V47.872H334.757V46.948Z" fill="#616C7F"/>
<path d="M265 36C265 33.7909 266.791 32 269 32H381V68H269C266.791 68 265 66.2091 265 64V36Z" stroke="#9EA6B5" stroke-miterlimit="9.56677"/>
<path d="M381 32H493C495.209 32 497 33.7909 497 36V64C497 66.2091 495.209 68 493 68H381V32Z" fill="#EDE9ED"/>
<path d="M422.729 53.5H424.493V49.3H425.781L428.077 53.5H430.205L427.573 49.118C429.043 48.908 429.869 47.858 429.869 46.43C429.869 44.204 428.077 43.588 426.173 43.588H422.729V53.5ZM424.493 47.788V45.1H426.019C426.929 45.1 428.021 45.24 428.021 46.416C428.021 47.704 426.859 47.788 425.865 47.788H424.493ZM431.421 53.5H433.101V46.78H431.421V53.5ZM431.183 44.498C431.183 45.03 431.631 45.506 432.247 45.506C432.863 45.506 433.339 45.072 433.339 44.498C433.339 43.924 432.863 43.49 432.247 43.49C431.631 43.49 431.183 43.966 431.183 44.498ZM440.35 46.78V47.788H440.322C439.832 46.976 438.95 46.612 438.012 46.612C435.94 46.612 434.694 48.152 434.694 50.14C434.694 52.044 436.024 53.584 438.04 53.584C438.88 53.584 439.748 53.262 440.238 52.604H440.266V53.094C440.266 54.424 439.762 55.348 438.138 55.348C437.2 55.348 436.5 54.998 435.828 54.382L434.82 55.754C435.772 56.594 436.906 56.86 438.152 56.86C440.77 56.86 441.946 55.32 441.946 52.898V46.78H440.35ZM438.362 48.124C439.58 48.124 440.35 48.936 440.35 50.098C440.35 51.218 439.594 52.072 438.348 52.072C437.214 52.072 436.374 51.19 436.374 50.126C436.374 48.936 437.186 48.124 438.362 48.124ZM445.528 42.916H443.848V53.5H445.528V49.832C445.528 48.936 445.962 48.124 447.068 48.124C448.244 48.124 448.3 49.356 448.3 50.098V53.5H449.98V49.258C449.98 47.886 449.336 46.612 447.53 46.612C446.494 46.612 445.822 47.158 445.556 47.718H445.528V42.916ZM452.49 48.208V51.288C452.49 52.87 452.91 53.668 454.688 53.668C455.08 53.668 455.668 53.612 456.018 53.444V52.03C455.808 52.184 455.402 52.24 455.108 52.24C454.366 52.24 454.17 51.82 454.17 51.148V48.208H456.018V46.78H454.17V44.834H452.49V46.78H451.104V48.208H452.49Z" fill="#6C3078"/>
<path d="M381 32H493C495.209 32 497 33.7909 497 36V64C497 66.2091 495.209 68 493 68H381V32Z" stroke="#6C3078" stroke-miterlimit="9.56677"/>
<path d="M2.106 97H3.87V89.398H3.898L8.798 97H11.038V87.088H9.274V94.452H9.246L4.444 87.088H2.106V97ZM19.2266 90.28H17.5466V93.948C17.5466 94.844 17.1126 95.656 16.0066 95.656C14.8306 95.656 14.7746 94.424 14.7746 93.682V90.28H13.0946V94.522C13.0946 95.894 13.7386 97.168 15.5446 97.168C16.6646 97.168 17.2946 96.594 17.6026 95.922H17.6306V97H19.2266V90.28ZM21.0636 97H22.7436V93.332C22.7436 92.436 23.1776 91.624 24.2836 91.624C25.0956 91.624 25.4316 92.17 25.4316 92.996V97H27.1116V93.36C27.1116 92.492 27.5036 91.624 28.5536 91.624C29.5476 91.624 29.7996 92.352 29.7996 93.192V97H31.4796V92.996C31.4796 91.386 30.8496 90.112 29.0576 90.112C28.0496 90.112 27.3356 90.504 26.8456 91.358C26.4956 90.518 25.7816 90.112 24.7456 90.112C23.6256 90.112 22.9816 90.7 22.6876 91.33H22.6596V90.28H21.0636V97ZM33.3153 97H34.9113V95.992H34.9393C35.4293 96.804 36.3113 97.168 37.2493 97.168C39.3213 97.168 40.5673 95.628 40.5673 93.64C40.5673 91.652 39.2373 90.112 37.3193 90.112C36.0593 90.112 35.3873 90.7 35.0373 91.134H34.9953V86.416H33.3153V97ZM38.8873 93.64C38.8873 94.69 38.1453 95.656 36.9133 95.656C35.6813 95.656 34.9393 94.69 34.9393 93.64C34.9393 92.59 35.6813 91.624 36.9133 91.624C38.1453 91.624 38.8873 92.59 38.8873 93.64ZM48.6016 94.228V93.766C48.6016 91.428 47.3276 90.112 45.4516 90.112C43.4216 90.112 41.7976 91.526 41.7976 93.64C41.7976 95.754 43.4216 97.168 45.4516 97.168C46.5156 97.168 47.5096 96.79 48.2936 95.824L47.0896 94.914C46.6696 95.432 46.1236 95.824 45.2836 95.824C44.3456 95.824 43.5896 95.222 43.4776 94.228H48.6016ZM43.4776 92.968C43.6036 92.002 44.2196 91.372 45.2136 91.372C46.2636 91.372 46.9076 91.988 46.9216 92.968H43.4776ZM50.1727 97H51.8527V93.402C51.8527 93.038 52.0767 91.708 53.6587 91.708C53.9247 91.708 54.1907 91.764 54.4707 91.834V90.21C54.2747 90.154 54.0787 90.112 53.8687 90.112C52.9867 90.112 52.2447 90.574 51.8807 91.344H51.8527V90.28H50.1727V97ZM60.3181 91.134C59.7721 90.392 58.8201 90.112 57.9241 90.112C56.5661 90.112 55.2221 90.784 55.2221 92.282C55.2221 94.844 58.8481 93.752 58.8481 95.138C58.8481 95.67 58.2181 95.908 57.7281 95.908C57.0141 95.908 56.5661 95.558 56.1321 95.082L55.0121 96.132C55.6981 96.902 56.5941 97.168 57.6301 97.168C59.0021 97.168 60.5281 96.608 60.5281 95.012C60.5281 92.394 56.9021 93.374 56.9021 92.17C56.9021 91.666 57.4341 91.456 57.8821 91.456C58.4561 91.456 58.8761 91.694 59.1981 92.142L60.3181 91.134ZM61.8348 96.02C61.8348 96.622 62.3668 97.084 62.9548 97.084C63.5708 97.084 64.0748 96.594 64.0748 95.992C64.0748 95.39 63.5568 94.928 62.9548 94.928C62.3388 94.928 61.8348 95.418 61.8348 96.02ZM61.8348 91.274C61.8348 91.876 62.3668 92.338 62.9548 92.338C63.5708 92.338 64.0748 91.848 64.0748 91.246C64.0748 90.644 63.5568 90.182 62.9548 90.182C62.3388 90.182 61.8348 90.672 61.8348 91.274ZM72.276 92.59H72.682C73.704 92.59 74.88 92.814 74.88 94.102C74.88 95.026 74.11 95.656 73.214 95.656C72.318 95.656 71.814 95.18 71.604 94.368L69.812 94.844C70.246 96.496 71.59 97.168 73.214 97.168C74.978 97.168 76.56 96.132 76.56 94.242C76.56 93.024 75.888 92.016 74.628 91.834V91.806C75.678 91.54 76.322 90.63 76.322 89.566C76.322 87.816 74.852 86.92 73.144 86.92C71.688 86.92 70.4 87.578 69.966 89.048L71.744 89.524C71.982 88.838 72.556 88.432 73.228 88.432C74.054 88.432 74.642 88.978 74.642 89.734C74.642 90.938 73.676 91.078 72.71 91.078H72.276V92.59ZM82.5757 97H84.2557V86.416H82.5757V97ZM92.6524 94.228V93.766C92.6524 91.428 91.3784 90.112 89.5024 90.112C87.4724 90.112 85.8484 91.526 85.8484 93.64C85.8484 95.754 87.4724 97.168 89.5024 97.168C90.5664 97.168 91.5604 96.79 92.3444 95.824L91.1404 94.914C90.7204 95.432 90.1744 95.824 89.3344 95.824C88.3964 95.824 87.6404 95.222 87.5284 94.228H92.6524ZM87.5284 92.968C87.6544 92.002 88.2704 91.372 89.2644 91.372C90.3144 91.372 90.9584 91.988 90.9724 92.968H87.5284ZM94.8255 97H96.5055V91.708H98.0595V90.28H96.5055V89.062C96.5055 88.32 96.6455 87.676 97.5835 87.676C97.8215 87.676 98.0455 87.718 98.2835 87.774L98.3955 86.346C98.0455 86.276 97.6955 86.248 97.3315 86.248C95.2455 86.248 94.8255 87.466 94.8255 89.328V90.28H93.4395V91.708H94.8255V97ZM99.7474 91.708V94.788C99.7474 96.37 100.167 97.168 101.945 97.168C102.337 97.168 102.925 97.112 103.275 96.944V95.53C103.065 95.684 102.659 95.74 102.365 95.74C101.623 95.74 101.427 95.32 101.427 94.648V91.708H103.275V90.28H101.427V88.334H99.7474V90.28H98.3614V91.708H99.7474Z" fill="black"/>
<path d="M1 122C1 119.791 2.79086 118 5 118H106.333V154H5C2.79086 154 1 152.209 1 150V122Z" fill="#EDE9ED"/>
<path d="M41.9416 139.5H47.9196V137.904H43.7056V129.588H41.9416V139.5ZM55.5154 136.728V136.266C55.5154 133.928 54.2414 132.612 52.3654 132.612C50.3354 132.612 48.7114 134.026 48.7114 136.14C48.7114 138.254 50.3354 139.668 52.3654 139.668C53.4294 139.668 54.4234 139.29 55.2074 138.324L54.0034 137.414C53.5834 137.932 53.0374 138.324 52.1974 138.324C51.2594 138.324 50.5034 137.722 50.3914 136.728H55.5154ZM50.3914 135.468C50.5174 134.502 51.1334 133.872 52.1274 133.872C53.1774 133.872 53.8214 134.488 53.8354 135.468H50.3914ZM57.6884 139.5H59.3684V134.208H60.9224V132.78H59.3684V131.562C59.3684 130.82 59.5084 130.176 60.4464 130.176C60.6844 130.176 60.9084 130.218 61.1464 130.274L61.2584 128.846C60.9084 128.776 60.5584 128.748 60.1944 128.748C58.1084 128.748 57.6884 129.966 57.6884 131.828V132.78H56.3024V134.208H57.6884V139.5ZM62.6103 134.208V137.288C62.6103 138.87 63.0303 139.668 64.8083 139.668C65.2003 139.668 65.7883 139.612 66.1383 139.444V138.03C65.9283 138.184 65.5223 138.24 65.2283 138.24C64.4863 138.24 64.2903 137.82 64.2903 137.148V134.208H66.1383V132.78H64.2903V130.834H62.6103V132.78H61.2243V134.208H62.6103Z" fill="#6C3078"/>
<path d="M1 122C1 119.791 2.79086 118 5 118H106.333V154H5C2.79086 154 1 152.209 1 150V122Z" stroke="#6C3078"/>
<path d="M106.333 118H211.667V154H106.333V118Z" fill="white"/>
<path d="M138.07 139.5H139.246V131.184H139.274L142.83 139.5H143.544L147.1 131.184H147.128V139.5H148.304V129.588H146.596L143.208 137.358H143.18L139.82 129.588H138.07V139.5ZM150.673 139.5H151.765V132.948H150.673V139.5ZM150.421 130.386C150.421 130.848 150.757 131.184 151.219 131.184C151.681 131.184 152.017 130.848 152.017 130.386C152.017 129.952 151.667 129.588 151.219 129.588C150.771 129.588 150.421 129.952 150.421 130.386ZM159.384 139.5H160.476V128.916H159.384V133.9H159.356C158.754 133.2 157.956 132.78 157.004 132.78C154.946 132.78 153.56 134.236 153.56 136.224C153.56 138.184 155.002 139.668 156.836 139.668C158.012 139.668 158.95 139.08 159.356 138.338H159.384V139.5ZM159.384 136.224C159.384 137.596 158.474 138.66 157.06 138.66C155.646 138.66 154.736 137.596 154.736 136.224C154.736 134.852 155.646 133.788 157.06 133.788C158.474 133.788 159.384 134.852 159.384 136.224ZM167.943 139.5H169.035V128.916H167.943V133.9H167.915C167.313 133.2 166.515 132.78 165.563 132.78C163.505 132.78 162.119 134.236 162.119 136.224C162.119 138.184 163.561 139.668 165.395 139.668C166.571 139.668 167.509 139.08 167.915 138.338H167.943V139.5ZM167.943 136.224C167.943 137.596 167.033 138.66 165.619 138.66C164.205 138.66 163.295 137.596 163.295 136.224C163.295 134.852 164.205 133.788 165.619 133.788C167.033 133.788 167.943 134.852 167.943 136.224ZM171.154 139.5H172.246V128.916H171.154V139.5ZM179.445 137.666C178.927 138.324 178.297 138.66 177.359 138.66C176.169 138.66 175.301 137.694 175.217 136.56H180.509V136.21C180.509 134.04 179.249 132.78 177.401 132.78C175.469 132.78 174.041 134.194 174.041 136.224C174.041 138.128 175.301 139.668 177.359 139.668C178.577 139.668 179.501 139.304 180.271 138.31L179.445 137.666ZM175.217 135.636C175.357 134.53 176.155 133.788 177.359 133.788C178.563 133.788 179.291 134.53 179.333 135.636H175.217Z" fill="#616C7F"/>
<path d="M106.333 118H211.667V154H106.333V118Z" stroke="#9EA6B5"/>
<path d="M211.667 118H313C315.209 118 317 119.791 317 122V150C317 152.209 315.209 154 313 154H211.667V118Z" fill="white"/>
<path d="M248.975 139.5H250.151V135.048H251.663L254.351 139.5H255.793L252.979 134.936C254.519 134.698 255.457 133.76 255.457 132.318C255.457 129.868 253.427 129.588 251.509 129.588H248.975V139.5ZM250.151 130.68H251.803C252.951 130.68 254.197 130.89 254.197 132.318C254.197 133.956 252.503 133.956 251.201 133.956H250.151V130.68ZM257.435 139.5H258.527V132.948H257.435V139.5ZM257.183 130.386C257.183 130.848 257.519 131.184 257.981 131.184C258.443 131.184 258.779 130.848 258.779 130.386C258.779 129.952 258.429 129.588 257.981 129.588C257.533 129.588 257.183 129.952 257.183 130.386ZM267.238 132.948H266.146V134.068H266.118C265.684 133.2 264.69 132.78 263.808 132.78C261.722 132.78 260.322 134.082 260.322 136.224C260.322 138.156 261.75 139.584 263.808 139.584C264.676 139.584 265.6 139.206 266.118 138.366H266.146V139.206C266.146 140.592 265.628 141.852 263.668 141.852C262.66 141.852 261.918 141.46 261.232 140.718L260.448 141.614C261.372 142.524 262.394 142.86 263.668 142.86C265.964 142.86 267.238 141.572 267.238 139.206V132.948ZM261.498 136.224C261.498 134.852 262.436 133.788 263.808 133.788C265.194 133.788 266.146 134.782 266.146 136.196C266.146 137.456 265.306 138.576 263.808 138.576C262.534 138.576 261.498 137.554 261.498 136.224ZM269.259 139.5H270.351V136.308C270.351 134.81 270.967 133.788 272.381 133.788C273.403 133.788 273.879 134.474 273.879 135.566V139.5H274.971V135.454C274.971 133.872 274.201 132.78 272.479 132.78C271.457 132.78 270.673 133.34 270.379 133.858H270.351V128.916H269.259V139.5ZM280.622 132.948H278.69V131.086H277.598V132.948H276.17V133.872H277.598V137.47C277.598 138.828 277.85 139.668 279.404 139.668C279.81 139.668 280.3 139.598 280.678 139.43L280.636 138.436C280.342 138.59 279.992 138.66 279.67 138.66C278.704 138.66 278.69 137.988 278.69 137.148V133.872H280.622V132.948Z" fill="#616C7F"/>
<path d="M211.667 118H313C315.209 118 317 119.791 317 122V150C317 152.209 315.209 154 313 154H211.667V118Z" stroke="#9EA6B5"/>
<path d="M350.106 97H351.87V89.398H351.898L356.798 97H359.038V87.088H357.274V94.452H357.246L352.444 87.088H350.106V97ZM367.227 90.28H365.547V93.948C365.547 94.844 365.113 95.656 364.007 95.656C362.831 95.656 362.775 94.424 362.775 93.682V90.28H361.095V94.522C361.095 95.894 361.739 97.168 363.545 97.168C364.665 97.168 365.295 96.594 365.603 95.922H365.631V97H367.227V90.28ZM369.064 97H370.744V93.332C370.744 92.436 371.178 91.624 372.284 91.624C373.096 91.624 373.432 92.17 373.432 92.996V97H375.112V93.36C375.112 92.492 375.504 91.624 376.554 91.624C377.548 91.624 377.8 92.352 377.8 93.192V97H379.48V92.996C379.48 91.386 378.85 90.112 377.058 90.112C376.05 90.112 375.336 90.504 374.846 91.358C374.496 90.518 373.782 90.112 372.746 90.112C371.626 90.112 370.982 90.7 370.688 91.33H370.66V90.28H369.064V97ZM381.315 97H382.911V95.992H382.939C383.429 96.804 384.311 97.168 385.249 97.168C387.321 97.168 388.567 95.628 388.567 93.64C388.567 91.652 387.237 90.112 385.319 90.112C384.059 90.112 383.387 90.7 383.037 91.134H382.995V86.416H381.315V97ZM386.887 93.64C386.887 94.69 386.145 95.656 384.913 95.656C383.681 95.656 382.939 94.69 382.939 93.64C382.939 92.59 383.681 91.624 384.913 91.624C386.145 91.624 386.887 92.59 386.887 93.64ZM396.602 94.228V93.766C396.602 91.428 395.328 90.112 393.452 90.112C391.422 90.112 389.798 91.526 389.798 93.64C389.798 95.754 391.422 97.168 393.452 97.168C394.516 97.168 395.51 96.79 396.294 95.824L395.09 94.914C394.67 95.432 394.124 95.824 393.284 95.824C392.346 95.824 391.59 95.222 391.478 94.228H396.602ZM391.478 92.968C391.604 92.002 392.22 91.372 393.214 91.372C394.264 91.372 394.908 91.988 394.922 92.968H391.478ZM398.173 97H399.853V93.402C399.853 93.038 400.077 91.708 401.659 91.708C401.925 91.708 402.191 91.764 402.471 91.834V90.21C402.275 90.154 402.079 90.112 401.869 90.112C400.987 90.112 400.245 90.574 399.881 91.344H399.853V90.28H398.173V97ZM408.318 91.134C407.772 90.392 406.82 90.112 405.924 90.112C404.566 90.112 403.222 90.784 403.222 92.282C403.222 94.844 406.848 93.752 406.848 95.138C406.848 95.67 406.218 95.908 405.728 95.908C405.014 95.908 404.566 95.558 404.132 95.082L403.012 96.132C403.698 96.902 404.594 97.168 405.63 97.168C407.002 97.168 408.528 96.608 408.528 95.012C408.528 92.394 404.902 93.374 404.902 92.17C404.902 91.666 405.434 91.456 405.882 91.456C406.456 91.456 406.876 91.694 407.198 92.142L408.318 91.134ZM409.835 96.02C409.835 96.622 410.367 97.084 410.955 97.084C411.571 97.084 412.075 96.594 412.075 95.992C412.075 95.39 411.557 94.928 410.955 94.928C410.339 94.928 409.835 95.418 409.835 96.02ZM409.835 91.274C409.835 91.876 410.367 92.338 410.955 92.338C411.571 92.338 412.075 91.848 412.075 91.246C412.075 90.644 411.557 90.182 410.955 90.182C410.339 90.182 409.835 90.672 409.835 91.274ZM420.276 92.59H420.682C421.704 92.59 422.88 92.814 422.88 94.102C422.88 95.026 422.11 95.656 421.214 95.656C420.318 95.656 419.814 95.18 419.604 94.368L417.812 94.844C418.246 96.496 419.59 97.168 421.214 97.168C422.978 97.168 424.56 96.132 424.56 94.242C424.56 93.024 423.888 92.016 422.628 91.834V91.806C423.678 91.54 424.322 90.63 424.322 89.566C424.322 87.816 422.852 86.92 421.144 86.92C419.688 86.92 418.4 87.578 417.966 89.048L419.744 89.524C419.982 88.838 420.556 88.432 421.228 88.432C422.054 88.432 422.642 88.978 422.642 89.734C422.642 90.938 421.676 91.078 420.71 91.078H420.276V92.59ZM430.478 97H432.158V93.332C432.158 92.436 432.592 91.624 433.698 91.624C434.51 91.624 434.846 92.17 434.846 92.996V97H436.526V93.36C436.526 92.492 436.918 91.624 437.968 91.624C438.962 91.624 439.214 92.352 439.214 93.192V97H440.894V92.996C440.894 91.386 440.264 90.112 438.472 90.112C437.464 90.112 436.75 90.504 436.26 91.358C435.91 90.518 435.196 90.112 434.16 90.112C433.04 90.112 432.396 90.7 432.102 91.33H432.074V90.28H430.478V97ZM442.757 97H444.437V90.28H442.757V97ZM442.519 87.998C442.519 88.53 442.967 89.006 443.583 89.006C444.199 89.006 444.675 88.572 444.675 87.998C444.675 87.424 444.199 86.99 443.583 86.99C442.967 86.99 442.519 87.466 442.519 87.998ZM451.686 97H453.282V86.416H451.602V91.134H451.56C451.21 90.7 450.538 90.112 449.278 90.112C447.36 90.112 446.03 91.652 446.03 93.64C446.03 95.628 447.276 97.168 449.348 97.168C450.286 97.168 451.168 96.804 451.658 95.992H451.686V97ZM447.71 93.64C447.71 92.59 448.452 91.624 449.684 91.624C450.916 91.624 451.658 92.59 451.658 93.64C451.658 94.69 450.916 95.656 449.684 95.656C448.452 95.656 447.71 94.69 447.71 93.64ZM460.504 97H462.1V86.416H460.42V91.134H460.378C460.028 90.7 459.356 90.112 458.096 90.112C456.178 90.112 454.848 91.652 454.848 93.64C454.848 95.628 456.094 97.168 458.166 97.168C459.104 97.168 459.986 96.804 460.476 95.992H460.504V97ZM456.528 93.64C456.528 92.59 457.27 91.624 458.502 91.624C459.734 91.624 460.476 92.59 460.476 93.64C460.476 94.69 459.734 95.656 458.502 95.656C457.27 95.656 456.528 94.69 456.528 93.64ZM464.031 97H465.711V86.416H464.031V97ZM474.108 94.228V93.766C474.108 91.428 472.834 90.112 470.958 90.112C468.928 90.112 467.304 91.526 467.304 93.64C467.304 95.754 468.928 97.168 470.958 97.168C472.022 97.168 473.016 96.79 473.8 95.824L472.596 94.914C472.176 95.432 471.63 95.824 470.79 95.824C469.852 95.824 469.096 95.222 468.984 94.228H474.108ZM468.984 92.968C469.11 92.002 469.726 91.372 470.72 91.372C471.77 91.372 472.414 91.988 472.428 92.968H468.984Z" fill="black"/>
<path d="M349 122C349 119.791 350.791 118 353 118H454.333V154H353C350.791 154 349 152.209 349 150V122Z" fill="white"/>
<path d="M390.84 139.5H396.552V138.408H392.016V129.588H390.84V139.5ZM402.67 137.666C402.152 138.324 401.522 138.66 400.584 138.66C399.394 138.66 398.526 137.694 398.442 136.56H403.734V136.21C403.734 134.04 402.474 132.78 400.626 132.78C398.694 132.78 397.266 134.194 397.266 136.224C397.266 138.128 398.526 139.668 400.584 139.668C401.802 139.668 402.726 139.304 403.496 138.31L402.67 137.666ZM398.442 135.636C398.582 134.53 399.38 133.788 400.584 133.788C401.788 133.788 402.516 134.53 402.558 135.636H398.442ZM405.983 139.5H407.075V133.872H408.671V132.948H407.075V131.716C407.075 130.582 407.117 129.756 408.251 129.756C408.503 129.756 408.755 129.812 408.993 129.896L409.147 128.916C408.937 128.804 408.587 128.748 408.307 128.748C406.543 128.748 405.983 129.882 405.983 131.478V132.948H404.555V133.872H405.983V139.5ZM413.423 132.948H411.491V131.086H410.399V132.948H408.971V133.872H410.399V137.47C410.399 138.828 410.651 139.668 412.205 139.668C412.611 139.668 413.101 139.598 413.479 139.43L413.437 138.436C413.143 138.59 412.793 138.66 412.471 138.66C411.505 138.66 411.491 137.988 411.491 137.148V133.872H413.423V132.948Z" fill="#616C7F"/>
<path d="M349 122C349 119.791 350.791 118 353 118H454.333V154H353C350.791 154 349 152.209 349 150V122Z" stroke="#9EA6B5"/>
<path d="M454.333 118H559.667V154H454.333V118Z" fill="#EDE9ED"/>
<path d="M485.193 139.5H486.873V131.268H486.901L489.911 139.5H491.143L494.153 131.268H494.181V139.5H495.861V129.588H493.201L490.527 136.532L487.881 129.588H485.193V139.5ZM497.986 139.5H499.666V132.78H497.986V139.5ZM497.748 130.498C497.748 131.03 498.196 131.506 498.812 131.506C499.428 131.506 499.904 131.072 499.904 130.498C499.904 129.924 499.428 129.49 498.812 129.49C498.196 129.49 497.748 129.966 497.748 130.498ZM506.915 139.5H508.511V128.916H506.831V133.634H506.789C506.439 133.2 505.767 132.612 504.507 132.612C502.589 132.612 501.259 134.152 501.259 136.14C501.259 138.128 502.505 139.668 504.577 139.668C505.515 139.668 506.397 139.304 506.887 138.492H506.915V139.5ZM502.939 136.14C502.939 135.09 503.681 134.124 504.913 134.124C506.145 134.124 506.887 135.09 506.887 136.14C506.887 137.19 506.145 138.156 504.913 138.156C503.681 138.156 502.939 137.19 502.939 136.14ZM515.733 139.5H517.329V128.916H515.649V133.634H515.607C515.257 133.2 514.585 132.612 513.325 132.612C511.407 132.612 510.077 134.152 510.077 136.14C510.077 138.128 511.323 139.668 513.395 139.668C514.333 139.668 515.215 139.304 515.705 138.492H515.733V139.5ZM511.757 136.14C511.757 135.09 512.499 134.124 513.731 134.124C514.963 134.124 515.705 135.09 515.705 136.14C515.705 137.19 514.963 138.156 513.731 138.156C512.499 138.156 511.757 137.19 511.757 136.14ZM519.259 139.5H520.939V128.916H519.259V139.5ZM529.336 136.728V136.266C529.336 133.928 528.062 132.612 526.186 132.612C524.156 132.612 522.532 134.026 522.532 136.14C522.532 138.254 524.156 139.668 526.186 139.668C527.25 139.668 528.244 139.29 529.028 138.324L527.824 137.414C527.404 137.932 526.858 138.324 526.018 138.324C525.08 138.324 524.324 137.722 524.212 136.728H529.336ZM524.212 135.468C524.338 134.502 524.954 133.872 525.948 133.872C526.998 133.872 527.642 134.488 527.656 135.468H524.212Z" fill="#6C3078"/>
<path d="M454.333 118H559.667V154H454.333V118Z" stroke="#6C3078"/>
<path d="M559.667 118H661C663.209 118 665 119.791 665 122V150C665 152.209 663.209 154 661 154H559.667V118Z" fill="white"/>
<path d="M596.975 139.5H598.151V135.048H599.663L602.351 139.5H603.793L600.979 134.936C602.519 134.698 603.457 133.76 603.457 132.318C603.457 129.868 601.427 129.588 599.509 129.588H596.975V139.5ZM598.151 130.68H599.803C600.951 130.68 602.197 130.89 602.197 132.318C602.197 133.956 600.503 133.956 599.201 133.956H598.151V130.68ZM605.435 139.5H606.527V132.948H605.435V139.5ZM605.183 130.386C605.183 130.848 605.519 131.184 605.981 131.184C606.443 131.184 606.779 130.848 606.779 130.386C606.779 129.952 606.429 129.588 605.981 129.588C605.533 129.588 605.183 129.952 605.183 130.386ZM615.238 132.948H614.146V134.068H614.118C613.684 133.2 612.69 132.78 611.808 132.78C609.722 132.78 608.322 134.082 608.322 136.224C608.322 138.156 609.75 139.584 611.808 139.584C612.676 139.584 613.6 139.206 614.118 138.366H614.146V139.206C614.146 140.592 613.628 141.852 611.668 141.852C610.66 141.852 609.918 141.46 609.232 140.718L608.448 141.614C609.372 142.524 610.394 142.86 611.668 142.86C613.964 142.86 615.238 141.572 615.238 139.206V132.948ZM609.498 136.224C609.498 134.852 610.436 133.788 611.808 133.788C613.194 133.788 614.146 134.782 614.146 136.196C614.146 137.456 613.306 138.576 611.808 138.576C610.534 138.576 609.498 137.554 609.498 136.224ZM617.259 139.5H618.351V136.308C618.351 134.81 618.967 133.788 620.381 133.788C621.403 133.788 621.879 134.474 621.879 135.566V139.5H622.971V135.454C622.971 133.872 622.201 132.78 620.479 132.78C619.457 132.78 618.673 133.34 618.379 133.858H618.351V128.916H617.259V139.5ZM628.622 132.948H626.69V131.086H625.598V132.948H624.17V133.872H625.598V137.47C625.598 138.828 625.85 139.668 627.404 139.668C627.81 139.668 628.3 139.598 628.678 139.43L628.636 138.436C628.342 138.59 627.992 138.66 627.67 138.66C626.704 138.66 626.69 137.988 626.69 137.148V133.872H628.622V132.948Z" fill="#616C7F"/>
<path d="M559.667 118H661C663.209 118 665 119.791 665 122V150C665 152.209 663.209 154 661 154H559.667V118Z" stroke="#9EA6B5"/>
<path d="M698.106 97H699.87V89.398H699.898L704.798 97H707.038V87.088H705.274V94.452H705.246L700.444 87.088H698.106V97ZM715.227 90.28H713.547V93.948C713.547 94.844 713.113 95.656 712.007 95.656C710.831 95.656 710.775 94.424 710.775 93.682V90.28H709.095V94.522C709.095 95.894 709.739 97.168 711.545 97.168C712.665 97.168 713.295 96.594 713.603 95.922H713.631V97H715.227V90.28ZM717.064 97H718.744V93.332C718.744 92.436 719.178 91.624 720.284 91.624C721.096 91.624 721.432 92.17 721.432 92.996V97H723.112V93.36C723.112 92.492 723.504 91.624 724.554 91.624C725.548 91.624 725.8 92.352 725.8 93.192V97H727.48V92.996C727.48 91.386 726.85 90.112 725.058 90.112C724.05 90.112 723.336 90.504 722.846 91.358C722.496 90.518 721.782 90.112 720.746 90.112C719.626 90.112 718.982 90.7 718.688 91.33H718.66V90.28H717.064V97ZM729.315 97H730.911V95.992H730.939C731.429 96.804 732.311 97.168 733.249 97.168C735.321 97.168 736.567 95.628 736.567 93.64C736.567 91.652 735.237 90.112 733.319 90.112C732.059 90.112 731.387 90.7 731.037 91.134H730.995V86.416H729.315V97ZM734.887 93.64C734.887 94.69 734.145 95.656 732.913 95.656C731.681 95.656 730.939 94.69 730.939 93.64C730.939 92.59 731.681 91.624 732.913 91.624C734.145 91.624 734.887 92.59 734.887 93.64ZM744.602 94.228V93.766C744.602 91.428 743.328 90.112 741.452 90.112C739.422 90.112 737.798 91.526 737.798 93.64C737.798 95.754 739.422 97.168 741.452 97.168C742.516 97.168 743.51 96.79 744.294 95.824L743.09 94.914C742.67 95.432 742.124 95.824 741.284 95.824C740.346 95.824 739.59 95.222 739.478 94.228H744.602ZM739.478 92.968C739.604 92.002 740.22 91.372 741.214 91.372C742.264 91.372 742.908 91.988 742.922 92.968H739.478ZM746.173 97H747.853V93.402C747.853 93.038 748.077 91.708 749.659 91.708C749.925 91.708 750.191 91.764 750.471 91.834V90.21C750.275 90.154 750.079 90.112 749.869 90.112C748.987 90.112 748.245 90.574 747.881 91.344H747.853V90.28H746.173V97ZM756.318 91.134C755.772 90.392 754.82 90.112 753.924 90.112C752.566 90.112 751.222 90.784 751.222 92.282C751.222 94.844 754.848 93.752 754.848 95.138C754.848 95.67 754.218 95.908 753.728 95.908C753.014 95.908 752.566 95.558 752.132 95.082L751.012 96.132C751.698 96.902 752.594 97.168 753.63 97.168C755.002 97.168 756.528 96.608 756.528 95.012C756.528 92.394 752.902 93.374 752.902 92.17C752.902 91.666 753.434 91.456 753.882 91.456C754.456 91.456 754.876 91.694 755.198 92.142L756.318 91.134ZM757.835 96.02C757.835 96.622 758.367 97.084 758.955 97.084C759.571 97.084 760.075 96.594 760.075 95.992C760.075 95.39 759.557 94.928 758.955 94.928C758.339 94.928 757.835 95.418 757.835 96.02ZM757.835 91.274C757.835 91.876 758.367 92.338 758.955 92.338C759.571 92.338 760.075 91.848 760.075 91.246C760.075 90.644 759.557 90.182 758.955 90.182C758.339 90.182 757.835 90.672 757.835 91.274ZM768.276 92.59H768.682C769.704 92.59 770.88 92.814 770.88 94.102C770.88 95.026 770.11 95.656 769.214 95.656C768.318 95.656 767.814 95.18 767.604 94.368L765.812 94.844C766.246 96.496 767.59 97.168 769.214 97.168C770.978 97.168 772.56 96.132 772.56 94.242C772.56 93.024 771.888 92.016 770.628 91.834V91.806C771.678 91.54 772.322 90.63 772.322 89.566C772.322 87.816 770.852 86.92 769.144 86.92C767.688 86.92 766.4 87.578 765.966 89.048L767.744 89.524C767.982 88.838 768.556 88.432 769.228 88.432C770.054 88.432 770.642 88.978 770.642 89.734C770.642 90.938 769.676 91.078 768.71 91.078H768.276V92.59ZM778.702 97H780.466V92.8H781.754L784.05 97H786.178L783.546 92.618C785.016 92.408 785.842 91.358 785.842 89.93C785.842 87.704 784.05 87.088 782.146 87.088H778.702V97ZM780.466 91.288V88.6H781.992C782.902 88.6 783.994 88.74 783.994 89.916C783.994 91.204 782.832 91.288 781.838 91.288H780.466ZM787.394 97H789.074V90.28H787.394V97ZM787.156 87.998C787.156 88.53 787.604 89.006 788.22 89.006C788.836 89.006 789.312 88.572 789.312 87.998C789.312 87.424 788.836 86.99 788.22 86.99C787.604 86.99 787.156 87.466 787.156 87.998ZM796.323 90.28V91.288H796.295C795.805 90.476 794.923 90.112 793.985 90.112C791.913 90.112 790.667 91.652 790.667 93.64C790.667 95.544 791.997 97.084 794.013 97.084C794.853 97.084 795.721 96.762 796.211 96.104H796.239V96.594C796.239 97.924 795.735 98.848 794.111 98.848C793.173 98.848 792.473 98.498 791.801 97.882L790.793 99.254C791.745 100.094 792.879 100.36 794.125 100.36C796.743 100.36 797.919 98.82 797.919 96.398V90.28H796.323ZM794.335 91.624C795.553 91.624 796.323 92.436 796.323 93.598C796.323 94.718 795.567 95.572 794.321 95.572C793.187 95.572 792.347 94.69 792.347 93.626C792.347 92.436 793.159 91.624 794.335 91.624ZM801.501 86.416H799.821V97H801.501V93.332C801.501 92.436 801.935 91.624 803.041 91.624C804.217 91.624 804.273 92.856 804.273 93.598V97H805.953V92.758C805.953 91.386 805.309 90.112 803.503 90.112C802.467 90.112 801.795 90.658 801.529 91.218H801.501V86.416ZM808.462 91.708V94.788C808.462 96.37 808.882 97.168 810.66 97.168C811.052 97.168 811.64 97.112 811.99 96.944V95.53C811.78 95.684 811.374 95.74 811.08 95.74C810.338 95.74 810.142 95.32 810.142 94.648V91.708H811.99V90.28H810.142V88.334H808.462V90.28H807.076V91.708H808.462Z" fill="black"/>
<path d="M697 122C697 119.791 698.791 118 701 118H802.333V154H701C698.791 154 697 152.209 697 150V122Z" fill="white"/>
<path d="M738.84 139.5H744.552V138.408H740.016V129.588H738.84V139.5ZM750.67 137.666C750.152 138.324 749.522 138.66 748.584 138.66C747.394 138.66 746.526 137.694 746.442 136.56H751.734V136.21C751.734 134.04 750.474 132.78 748.626 132.78C746.694 132.78 745.266 134.194 745.266 136.224C745.266 138.128 746.526 139.668 748.584 139.668C749.802 139.668 750.726 139.304 751.496 138.31L750.67 137.666ZM746.442 135.636C746.582 134.53 747.38 133.788 748.584 133.788C749.788 133.788 750.516 134.53 750.558 135.636H746.442ZM753.983 139.5H755.075V133.872H756.671V132.948H755.075V131.716C755.075 130.582 755.117 129.756 756.251 129.756C756.503 129.756 756.755 129.812 756.993 129.896L757.147 128.916C756.937 128.804 756.587 128.748 756.307 128.748C754.543 128.748 753.983 129.882 753.983 131.478V132.948H752.555V133.872H753.983V139.5ZM761.423 132.948H759.491V131.086H758.399V132.948H756.971V133.872H758.399V137.47C758.399 138.828 758.651 139.668 760.205 139.668C760.611 139.668 761.101 139.598 761.479 139.43L761.437 138.436C761.143 138.59 760.793 138.66 760.471 138.66C759.505 138.66 759.491 137.988 759.491 137.148V133.872H761.423V132.948Z" fill="#616C7F"/>
<path d="M697 122C697 119.791 698.791 118 701 118H802.333V154H701C698.791 154 697 152.209 697 150V122Z" stroke="#9EA6B5"/>
<path d="M834.07 139.5H835.246V131.184H835.274L838.83 139.5H839.544L843.1 131.184H843.128V139.5H844.304V129.588H842.596L839.208 137.358H839.18L835.82 129.588H834.07V139.5ZM846.673 139.5H847.765V132.948H846.673V139.5ZM846.421 130.386C846.421 130.848 846.757 131.184 847.219 131.184C847.681 131.184 848.017 130.848 848.017 130.386C848.017 129.952 847.667 129.588 847.219 129.588C846.771 129.588 846.421 129.952 846.421 130.386ZM855.384 139.5H856.476V128.916H855.384V133.9H855.356C854.754 133.2 853.956 132.78 853.004 132.78C850.946 132.78 849.56 134.236 849.56 136.224C849.56 138.184 851.002 139.668 852.836 139.668C854.012 139.668 854.95 139.08 855.356 138.338H855.384V139.5ZM855.384 136.224C855.384 137.596 854.474 138.66 853.06 138.66C851.646 138.66 850.736 137.596 850.736 136.224C850.736 134.852 851.646 133.788 853.06 133.788C854.474 133.788 855.384 134.852 855.384 136.224ZM863.943 139.5H865.035V128.916H863.943V133.9H863.915C863.313 133.2 862.515 132.78 861.563 132.78C859.505 132.78 858.119 134.236 858.119 136.224C858.119 138.184 859.561 139.668 861.395 139.668C862.571 139.668 863.509 139.08 863.915 138.338H863.943V139.5ZM863.943 136.224C863.943 137.596 863.033 138.66 861.619 138.66C860.205 138.66 859.295 137.596 859.295 136.224C859.295 134.852 860.205 133.788 861.619 133.788C863.033 133.788 863.943 134.852 863.943 136.224ZM867.154 139.5H868.246V128.916H867.154V139.5ZM875.445 137.666C874.927 138.324 874.297 138.66 873.359 138.66C872.169 138.66 871.301 137.694 871.217 136.56H876.509V136.21C876.509 134.04 875.249 132.78 873.401 132.78C871.469 132.78 870.041 134.194 870.041 136.224C870.041 138.128 871.301 139.668 873.359 139.668C874.577 139.668 875.501 139.304 876.271 138.31L875.445 137.666ZM871.217 135.636C871.357 134.53 872.155 133.788 873.359 133.788C874.563 133.788 875.291 134.53 875.333 135.636H871.217Z" fill="#616C7F"/>
<path d="M802.333 118H907.667V154H802.333V118Z" stroke="#9EA6B5"/>
<path d="M907.667 118H1009C1011.21 118 1013 119.791 1013 122V150C1013 152.209 1011.21 154 1009 154H907.667V118Z" fill="#EDE9ED"/>
<path d="M944.062 139.5H945.826V135.3H947.114L949.41 139.5H951.538L948.906 135.118C950.376 134.908 951.202 133.858 951.202 132.43C951.202 130.204 949.41 129.588 947.506 129.588H944.062V139.5ZM945.826 133.788V131.1H947.352C948.262 131.1 949.354 131.24 949.354 132.416C949.354 133.704 948.192 133.788 947.198 133.788H945.826ZM952.755 139.5H954.435V132.78H952.755V139.5ZM952.517 130.498C952.517 131.03 952.965 131.506 953.581 131.506C954.197 131.506 954.673 131.072 954.673 130.498C954.673 129.924 954.197 129.49 953.581 129.49C952.965 129.49 952.517 129.966 952.517 130.498ZM961.683 132.78V133.788H961.655C961.165 132.976 960.283 132.612 959.345 132.612C957.273 132.612 956.027 134.152 956.027 136.14C956.027 138.044 957.357 139.584 959.373 139.584C960.213 139.584 961.081 139.262 961.571 138.604H961.599V139.094C961.599 140.424 961.095 141.348 959.471 141.348C958.533 141.348 957.833 140.998 957.161 140.382L956.153 141.754C957.105 142.594 958.239 142.86 959.485 142.86C962.103 142.86 963.279 141.32 963.279 138.898V132.78H961.683ZM959.695 134.124C960.913 134.124 961.683 134.936 961.683 136.098C961.683 137.218 960.927 138.072 959.681 138.072C958.547 138.072 957.707 137.19 957.707 136.126C957.707 134.936 958.519 134.124 959.695 134.124ZM966.862 128.916H965.182V139.5H966.862V135.832C966.862 134.936 967.296 134.124 968.402 134.124C969.578 134.124 969.634 135.356 969.634 136.098V139.5H971.314V135.258C971.314 133.886 970.67 132.612 968.864 132.612C967.828 132.612 967.156 133.158 966.89 133.718H966.862V128.916ZM973.823 134.208V137.288C973.823 138.87 974.243 139.668 976.021 139.668C976.413 139.668 977.001 139.612 977.351 139.444V138.03C977.141 138.184 976.735 138.24 976.441 138.24C975.699 138.24 975.503 137.82 975.503 137.148V134.208H977.351V132.78H975.503V130.834H973.823V132.78H972.437V134.208H973.823Z" fill="#6C3078"/>
<path d="M907.667 118H1009C1011.21 118 1013 119.791 1013 122V150C1013 152.209 1011.21 154 1009 154H907.667V118Z" stroke="#6C3078"/>
</svg>
