<svg width="482" height="69" viewBox="0 0 482 69" fill="none" xmlns="http://www.w3.org/2000/svg">
<path d="M7.252 2.858C6.482 2.13 5.446 1.836 4.41 1.836C2.576 1.836 0.756 2.788 0.756 4.832C0.756 8.374 5.46 7.128 5.46 9.298C5.46 10.208 4.536 10.656 3.724 10.656C2.94 10.656 2.198 10.278 1.764 9.62L0.434 10.908C1.246 11.874 2.45 12.252 3.682 12.252C5.628 12.252 7.308 11.216 7.308 9.088C7.308 5.56 2.604 6.694 2.604 4.706C2.604 3.796 3.416 3.432 4.228 3.432C4.914 3.432 5.586 3.684 5.964 4.216L7.252 2.858ZM9.01906 12H10.6991V5.28H9.01906V12ZM8.78106 2.998C8.78106 3.53 9.22906 4.006 9.84506 4.006C10.4611 4.006 10.9371 3.572 10.9371 2.998C10.9371 2.424 10.4611 1.99 9.84506 1.99C9.22906 1.99 8.78106 2.466 8.78106 2.998ZM12.1518 12H17.9478V10.656H14.1398L17.7798 6.806V5.28H12.3198V6.624H15.7498V6.652L12.1518 10.446V12ZM25.8497 9.228V8.766C25.8497 6.428 24.5757 5.112 22.6997 5.112C20.6697 5.112 19.0457 6.526 19.0457 8.64C19.0457 10.754 20.6697 12.168 22.6997 12.168C23.7637 12.168 24.7577 11.79 25.5417 10.824L24.3377 9.914C23.9177 10.432 23.3717 10.824 22.5317 10.824C21.5937 10.824 20.8377 10.222 20.7257 9.228H25.8497ZM20.7257 7.968C20.8517 7.002 21.4677 6.372 22.4617 6.372C23.5117 6.372 24.1557 6.988 24.1697 7.968H20.7257ZM27.4208 11.02C27.4208 11.622 27.9528 12.084 28.5408 12.084C29.1568 12.084 29.6608 11.594 29.6608 10.992C29.6608 10.39 29.1428 9.928 28.5408 9.928C27.9248 9.928 27.4208 10.418 27.4208 11.02ZM27.4208 6.274C27.4208 6.876 27.9528 7.338 28.5408 7.338C29.1568 7.338 29.6608 6.848 29.6608 6.246C29.6608 5.644 29.1428 5.182 28.5408 5.182C27.9248 5.182 27.4208 5.672 27.4208 6.274ZM38.5059 12H40.1859V2.088H38.6599L35.6639 4.58L36.6439 5.742L38.5059 4.02V12Z" fill="black"/>
<rect x="0.5" y="33.5" width="43" height="35" rx="3.5" fill="white"/>
<path d="M28 55.75H26C25.8011 55.75 25.6103 55.671 25.4697 55.5303C25.329 55.3897 25.25 55.1989 25.25 55C25.25 54.8011 25.329 54.6103 25.4697 54.4697C25.6103 54.329 25.8011 54.25 26 54.25H28C28.3315 54.25 28.6495 54.1183 28.8839 53.8839C29.1183 53.6495 29.25 53.3315 29.25 53V49C29.25 48.6685 29.1183 48.3505 28.8839 48.1161C28.6495 47.8817 28.3315 47.75 28 47.75H16C15.6685 47.75 15.3505 47.8817 15.1161 48.1161C14.8817 48.3505 14.75 48.6685 14.75 49V53C14.75 53.3315 14.8817 53.6495 15.1161 53.8839C15.3505 54.1183 15.6685 54.25 16 54.25H18C18.1989 54.25 18.3897 54.329 18.5303 54.4697C18.671 54.6103 18.75 54.8011 18.75 55C18.75 55.1989 18.671 55.3897 18.5303 55.5303C18.3897 55.671 18.1989 55.75 18 55.75H16C15.2707 55.75 14.5712 55.4603 14.0555 54.9445C13.5397 54.4288 13.25 53.7293 13.25 53V49C13.25 48.2707 13.5397 47.5712 14.0555 47.0555C14.5712 46.5397 15.2707 46.25 16 46.25H28C28.7293 46.25 29.4288 46.5397 29.9445 47.0555C30.4603 47.5712 30.75 48.2707 30.75 49V53C30.75 53.7293 30.4603 54.4288 29.9445 54.9445C29.4288 55.4603 28.7293 55.75 28 55.75Z" fill="#6B778C"/>
<path d="M26 47.75C25.8019 47.7474 25.6126 47.6676 25.4725 47.5275C25.3324 47.3874 25.2526 47.1981 25.25 47V43.75H18.75V47C18.75 47.1989 18.671 47.3897 18.5303 47.5303C18.3897 47.671 18.1989 47.75 18 47.75C17.8011 47.75 17.6103 47.671 17.4697 47.5303C17.329 47.3897 17.25 47.1989 17.25 47V43.5C17.25 43.1685 17.3817 42.8505 17.6161 42.6161C17.8505 42.3817 18.1685 42.25 18.5 42.25H25.5C25.8315 42.25 26.1495 42.3817 26.3839 42.6161C26.6183 42.8505 26.75 43.1685 26.75 43.5V47C26.7474 47.1981 26.6676 47.3874 26.5275 47.5275C26.3874 47.6676 26.1981 47.7474 26 47.75V47.75Z" fill="#6B778C"/>
<path d="M25.5 59.75H18.5C18.1685 59.75 17.8505 59.6183 17.6161 59.3839C17.3817 59.1495 17.25 58.8315 17.25 58.5V51.5C17.25 51.1685 17.3817 50.8505 17.6161 50.6161C17.8505 50.3817 18.1685 50.25 18.5 50.25H25.5C25.8315 50.25 26.1495 50.3817 26.3839 50.6161C26.6183 50.8505 26.75 51.1685 26.75 51.5V58.5C26.75 58.8315 26.6183 59.1495 26.3839 59.3839C26.1495 59.6183 25.8315 59.75 25.5 59.75ZM18.75 58.25H25.25V51.75H18.75V58.25Z" fill="#6B778C"/>
<rect x="0.5" y="33.5" width="43" height="35" rx="3.5" stroke="#9EA6B5"/>
<path d="M67.252 2.858C66.482 2.13 65.446 1.836 64.41 1.836C62.576 1.836 60.756 2.788 60.756 4.832C60.756 8.374 65.46 7.128 65.46 9.298C65.46 10.208 64.536 10.656 63.724 10.656C62.94 10.656 62.198 10.278 61.764 9.62L60.434 10.908C61.246 11.874 62.45 12.252 63.682 12.252C65.628 12.252 67.308 11.216 67.308 9.088C67.308 5.56 62.604 6.694 62.604 4.706C62.604 3.796 63.416 3.432 64.228 3.432C64.914 3.432 65.586 3.684 65.964 4.216L67.252 2.858ZM69.0191 12H70.6991V5.28H69.0191V12ZM68.7811 2.998C68.7811 3.53 69.2291 4.006 69.8451 4.006C70.4611 4.006 70.9371 3.572 70.9371 2.998C70.9371 2.424 70.4611 1.99 69.8451 1.99C69.2291 1.99 68.7811 2.466 68.7811 2.998ZM72.1518 12H77.9478V10.656H74.1398L77.7798 6.806V5.28H72.3198V6.624H75.7498V6.652L72.1518 10.446V12ZM85.8497 9.228V8.766C85.8497 6.428 84.5757 5.112 82.6997 5.112C80.6697 5.112 79.0457 6.526 79.0457 8.64C79.0457 10.754 80.6697 12.168 82.6997 12.168C83.7637 12.168 84.7577 11.79 85.5417 10.824L84.3377 9.914C83.9177 10.432 83.3717 10.824 82.5317 10.824C81.5937 10.824 80.8377 10.222 80.7257 9.228H85.8497ZM80.7257 7.968C80.8517 7.002 81.4677 6.372 82.4617 6.372C83.5117 6.372 84.1557 6.988 84.1697 7.968H80.7257ZM87.4208 11.02C87.4208 11.622 87.9528 12.084 88.5408 12.084C89.1568 12.084 89.6608 11.594 89.6608 10.992C89.6608 10.39 89.1428 9.928 88.5408 9.928C87.9248 9.928 87.4208 10.418 87.4208 11.02ZM87.4208 6.274C87.4208 6.876 87.9528 7.338 88.5408 7.338C89.1568 7.338 89.6608 6.848 89.6608 6.246C89.6608 5.644 89.1428 5.182 88.5408 5.182C87.9248 5.182 87.4208 5.672 87.4208 6.274ZM95.5799 12H102.216V10.488H97.6239L100.69 7.646C101.572 6.834 102.216 5.98 102.216 4.734C102.216 2.83 100.788 1.92 99.0099 1.92C97.2179 1.92 95.8879 2.886 95.7199 4.72L97.4839 4.86C97.5959 4.048 98.1839 3.516 99.0099 3.516C99.7799 3.516 100.452 4.006 100.452 4.818C100.452 5.504 99.8919 6.05 99.4299 6.498L95.5799 10.222V12Z" fill="black"/>
<path d="M64 33.5H103.5V68.5H64C62.067 68.5 60.5 66.933 60.5 65V37C60.5 35.067 62.067 33.5 64 33.5Z" fill="white"/>
<path d="M84.6701 59.6501C84.4672 59.6519 84.2662 59.611 84.0801 59.5301L79.3301 57.5301L75.7601 59.0601C75.4927 59.1751 75.2009 59.2216 74.9111 59.1955C74.6212 59.1693 74.3425 59.0712 74.1001 58.9101C73.837 58.7346 73.6216 58.4966 73.4733 58.2173C73.3249 57.9381 73.2482 57.6263 73.2501 57.3101L84.6701 59.6501ZM84.6701 59.6501C84.8728 59.6499 85.0734 59.6091 85.2601 59.5301L84.6701 59.6501ZM74.2501 46.0632C74.2482 45.8826 74.3014 45.7056 74.4026 45.5559C74.5023 45.4083 74.6439 45.2942 74.809 45.228L78.3814 43.6813L79.0801 43.3788V44.1401V56.2201V56.55L78.7769 56.6798L75.3869 58.1312C75.2813 58.1853 75.1641 58.2136 75.0451 58.2136C74.9134 58.2136 74.7841 58.179 74.6701 58.1131L74.6512 58.1023L74.6333 58.0898C74.5078 58.0019 74.4068 57.8835 74.3399 57.7456C74.2754 57.6129 74.2446 57.4663 74.2501 57.319M74.2501 46.0632V46.0601H74.7501L74.2501 46.0678C74.2501 46.0663 74.2501 46.0647 74.2501 46.0632ZM74.2501 46.0632V57.319M74.2501 57.319V57.3301H74.7501L74.2508 57.3023C74.2505 57.3078 74.2503 57.3134 74.2501 57.319ZM88.437 43.3997L88.4376 43.3994C88.6286 43.3173 88.837 43.2841 89.0441 43.3028C89.2509 43.3215 89.4498 43.3914 89.6229 43.5063C89.8169 43.6358 89.9758 43.8115 90.0853 44.0175C90.1948 44.2237 90.2514 44.4538 90.2501 44.6872V44.6901V55.9101H90.25L90.2501 55.917C90.2539 56.1891 90.1771 56.4562 90.0296 56.6847C89.8821 56.913 89.6706 57.0927 89.4215 57.2012C89.4212 57.2014 89.4209 57.2015 89.4206 57.2016L85.0653 59.0696C85.0649 59.0698 85.0645 59.0699 85.0641 59.0701C84.9392 59.1228 84.805 59.15 84.6694 59.1501L84.6658 59.1502C84.5329 59.1513 84.4012 59.1245 84.2793 59.0715L84.2793 59.0715L84.2741 59.0693L79.5241 57.0693L79.3283 56.9869L79.1331 57.0706L75.5631 58.6006L75.5625 58.6008C75.3715 58.683 75.1631 58.7162 74.9561 58.6975C74.7492 58.6788 74.5503 58.6088 74.3772 58.494C74.1832 58.3645 74.0243 58.1888 73.9148 57.9828C73.8053 57.7766 73.7487 57.5465 73.75 57.313H73.7501V57.3101V46.0601H73.7501L73.75 46.0532C73.7462 45.7812 73.823 45.5141 73.9706 45.2855C74.1177 45.0577 74.3287 44.8783 74.5772 44.7696L78.9345 42.9308L78.9354 42.9304C79.0602 42.8774 79.1945 42.8501 79.3301 42.8501C79.4657 42.8501 79.5999 42.8774 79.7247 42.9304L79.726 42.931L84.476 44.931L84.6718 45.0134L84.867 44.9297L88.437 43.3997ZM80.2764 43.6303L79.5801 43.3329V44.0901V56.2201V56.5503L79.8837 56.68L83.7237 58.32L84.4201 58.6174V57.8601V45.7301V45.4L84.1164 45.2703L80.2764 43.6303ZM89.6255 56.4138C89.7123 56.2678 89.7555 56.1001 89.7501 55.9305V44.6813C89.7555 44.5339 89.7247 44.3874 89.6602 44.2546C89.5933 44.1168 89.4923 43.9984 89.3668 43.9105L89.3489 43.898L89.3301 43.8871C89.216 43.8213 89.0867 43.7866 88.9551 43.7866C88.836 43.7866 88.7189 43.815 88.6132 43.8691L85.2233 45.3205L84.9201 45.4503V45.7801V57.8601V58.619L85.6173 58.3196L89.2273 56.7696L89.2375 56.7652L89.2474 56.7604C89.4047 56.6845 89.5362 56.5639 89.6255 56.4138Z" fill="#6B778C" stroke="#6B778C"/>
<path d="M64 33.5H103.5V68.5H64C62.067 68.5 60.5 66.933 60.5 65V37C60.5 35.067 62.067 33.5 64 33.5Z" stroke="#9EA6B5"/>
<path d="M103.5 33.5H143C144.933 33.5 146.5 35.067 146.5 37V65C146.5 66.933 144.933 68.5 143 68.5H103.5V33.5Z" fill="white"/>
<path d="M123.769 56.8002C122.379 56.8001 121.02 56.3878 119.864 55.6155C118.708 54.843 117.807 53.7451 117.275 52.4605C116.743 51.1759 116.604 49.7624 116.875 48.3988C117.146 47.0351 117.816 45.7824 118.799 44.7993C119.782 43.8161 121.035 43.1466 122.399 42.8753C123.762 42.6041 125.176 42.7433 126.46 43.2754C127.745 43.8074 128.843 44.7085 129.615 45.8646C130.388 47.0205 130.8 48.3794 130.8 49.7696C130.798 51.6335 130.056 53.4203 128.738 54.7383C127.42 56.0562 125.633 56.7978 123.769 56.8002ZM123.77 43.2502C122.484 43.2502 121.228 43.6315 120.159 44.3457C119.09 45.0599 118.257 46.0751 117.765 47.2628C117.273 48.4505 117.144 49.7574 117.395 51.0183C117.646 52.2792 118.265 53.4374 119.174 54.3464C120.083 55.2555 121.241 55.8745 122.502 56.1253C123.763 56.3761 125.07 56.2474 126.257 55.7555C127.445 55.2635 128.46 54.4304 129.175 53.3614C129.889 52.2925 130.27 51.0358 130.27 49.7502C130.27 48.0263 129.585 46.373 128.366 45.154C127.147 43.9351 125.494 43.2502 123.77 43.2502Z" fill="#6B778C" stroke="#6B778C"/>
<path d="M132.826 59.1786L132.824 59.1764L128.701 55.0543C128.66 55.0075 128.638 54.9469 128.639 54.8843C128.64 54.8195 128.666 54.7577 128.712 54.7119C128.758 54.6661 128.819 54.6399 128.884 54.6387C128.947 54.6376 129.008 54.66 129.054 54.7014L133.176 58.8233C133.223 58.8702 133.249 58.9337 133.249 59C133.249 59.0662 133.223 59.1298 133.176 59.1766L133.174 59.1786C133.152 59.2014 133.125 59.2194 133.095 59.2316C133.066 59.2439 133.034 59.2501 133.002 59.25L133 59.75L132.998 59.25C132.966 59.2501 132.934 59.2439 132.904 59.2316C132.875 59.2194 132.848 59.2014 132.826 59.1786Z" fill="#6B778C" stroke="#6B778C"/>
<path d="M126.25 50H121.25C121.184 50 121.12 49.9737 121.073 49.9268C121.026 49.8799 121 49.8163 121 49.75C121 49.6837 121.026 49.6201 121.073 49.5732C121.12 49.5263 121.184 49.5 121.25 49.5H126.25C126.316 49.5 126.38 49.5263 126.427 49.5732C126.474 49.6201 126.5 49.6837 126.5 49.75C126.5 49.8163 126.474 49.8799 126.427 49.9268C126.38 49.9737 126.316 50 126.25 50Z" fill="#6B778C" stroke="#6B778C"/>
<path d="M103.5 33.5H143C144.933 33.5 146.5 35.067 146.5 37V65C146.5 66.933 144.933 68.5 143 68.5H103.5V33.5Z" stroke="#9EA6B5"/>
<path d="M170.252 2.858C169.482 2.13 168.446 1.836 167.41 1.836C165.576 1.836 163.756 2.788 163.756 4.832C163.756 8.374 168.46 7.128 168.46 9.298C168.46 10.208 167.536 10.656 166.724 10.656C165.94 10.656 165.198 10.278 164.764 9.62L163.434 10.908C164.246 11.874 165.45 12.252 166.682 12.252C168.628 12.252 170.308 11.216 170.308 9.088C170.308 5.56 165.604 6.694 165.604 4.706C165.604 3.796 166.416 3.432 167.228 3.432C167.914 3.432 168.586 3.684 168.964 4.216L170.252 2.858ZM172.019 12H173.699V5.28H172.019V12ZM171.781 2.998C171.781 3.53 172.229 4.006 172.845 4.006C173.461 4.006 173.937 3.572 173.937 2.998C173.937 2.424 173.461 1.99 172.845 1.99C172.229 1.99 171.781 2.466 171.781 2.998ZM175.152 12H180.948V10.656H177.14L180.78 6.806V5.28H175.32V6.624H178.75V6.652L175.152 10.446V12ZM188.85 9.228V8.766C188.85 6.428 187.576 5.112 185.7 5.112C183.67 5.112 182.046 6.526 182.046 8.64C182.046 10.754 183.67 12.168 185.7 12.168C186.764 12.168 187.758 11.79 188.542 10.824L187.338 9.914C186.918 10.432 186.372 10.824 185.532 10.824C184.594 10.824 183.838 10.222 183.726 9.228H188.85ZM183.726 7.968C183.852 7.002 184.468 6.372 185.462 6.372C186.512 6.372 187.156 6.988 187.17 7.968H183.726ZM190.421 11.02C190.421 11.622 190.953 12.084 191.541 12.084C192.157 12.084 192.661 11.594 192.661 10.992C192.661 10.39 192.143 9.928 191.541 9.928C190.925 9.928 190.421 10.418 190.421 11.02ZM190.421 6.274C190.421 6.876 190.953 7.338 191.541 7.338C192.157 7.338 192.661 6.848 192.661 6.246C192.661 5.644 192.143 5.182 191.541 5.182C190.925 5.182 190.421 5.672 190.421 6.274ZM200.862 7.59H201.268C202.29 7.59 203.466 7.814 203.466 9.102C203.466 10.026 202.696 10.656 201.8 10.656C200.904 10.656 200.4 10.18 200.19 9.368L198.398 9.844C198.832 11.496 200.176 12.168 201.8 12.168C203.564 12.168 205.146 11.132 205.146 9.242C205.146 8.024 204.474 7.016 203.214 6.834V6.806C204.264 6.54 204.908 5.63 204.908 4.566C204.908 2.816 203.438 1.92 201.73 1.92C200.274 1.92 198.986 2.578 198.552 4.048L200.33 4.524C200.568 3.838 201.142 3.432 201.814 3.432C202.64 3.432 203.228 3.978 203.228 4.734C203.228 5.938 202.262 6.078 201.296 6.078H200.862V7.59Z" fill="black"/>
<path d="M167 33.5H206.5V68.5H167C165.067 68.5 163.5 66.933 163.5 65V37C163.5 35.067 165.067 33.5 167 33.5Z" fill="white"/>
<path d="M187 55.75H179C178.271 55.75 177.571 55.4603 177.055 54.9445C176.54 54.4288 176.25 53.7293 176.25 53V45C176.25 44.2707 176.54 43.5712 177.055 43.0555C177.571 42.5397 178.271 42.25 179 42.25H187C187.729 42.25 188.429 42.5397 188.945 43.0555C189.46 43.5712 189.75 44.2707 189.75 45V53C189.75 53.7293 189.46 54.4288 188.945 54.9445C188.429 55.4603 187.729 55.75 187 55.75ZM179 43.75C178.668 43.75 178.351 43.8817 178.116 44.1161C177.882 44.3505 177.75 44.6685 177.75 45V53C177.75 53.3315 177.882 53.6495 178.116 53.8839C178.351 54.1183 178.668 54.25 179 54.25H187C187.332 54.25 187.649 54.1183 187.884 53.8839C188.118 53.6495 188.25 53.3315 188.25 53V45C188.25 44.6685 188.118 44.3505 187.884 44.1161C187.649 43.8817 187.332 43.75 187 43.75H179Z" fill="#6B778C"/>
<path d="M191 59.75H183C182.271 59.75 181.571 59.4603 181.055 58.9445C180.54 58.4288 180.25 57.7293 180.25 57V55H181.75V57C181.75 57.3315 181.882 57.6495 182.116 57.8839C182.351 58.1183 182.668 58.25 183 58.25H191C191.332 58.25 191.649 58.1183 191.884 57.8839C192.118 57.6495 192.25 57.3315 192.25 57V49C192.25 48.6685 192.118 48.3505 191.884 48.1161C191.649 47.8817 191.332 47.75 191 47.75H189V46.25H191C191.729 46.25 192.429 46.5397 192.945 47.0555C193.46 47.5712 193.75 48.2707 193.75 49V57C193.75 57.7293 193.46 58.4288 192.945 58.9445C192.429 59.4603 191.729 59.75 191 59.75Z" fill="#6B778C"/>
<path d="M167 33.5H206.5V68.5H167C165.067 68.5 163.5 66.933 163.5 65V37C163.5 35.067 165.067 33.5 167 33.5Z" stroke="#9EA6B5"/>
<path d="M206.5 33.5H249.5V68.5H206.5V33.5Z" fill="white"/>
<path d="M236 47.7002H220C219.902 47.7002 219.804 47.6808 219.713 47.6431C219.622 47.6054 219.539 47.5502 219.47 47.4805C219.4 47.4109 219.345 47.3282 219.307 47.2372C219.269 47.1462 219.25 47.0487 219.25 46.9502C219.25 46.8517 219.269 46.7542 219.307 46.6632C219.345 46.5722 219.4 46.4895 219.47 46.4199C219.539 46.3502 219.622 46.295 219.713 46.2573C219.804 46.2196 219.902 46.2002 220 46.2002H236C236.199 46.2002 236.39 46.2792 236.53 46.4199C236.671 46.5605 236.75 46.7513 236.75 46.9502C236.75 47.1491 236.671 47.3399 236.53 47.4805C236.39 47.6212 236.199 47.7002 236 47.7002V47.7002Z" fill="#6B778C"/>
<path d="M232.44 59.7498H223.56C223.243 59.7715 222.925 59.73 222.624 59.6279C222.323 59.5257 222.046 59.3648 221.808 59.1546C221.57 58.9444 221.376 58.689 221.237 58.4032C221.098 58.1174 221.018 57.807 221 57.4898V46.9998C221 46.8009 221.079 46.6101 221.22 46.4695C221.36 46.3288 221.551 46.2498 221.75 46.2498C221.949 46.2498 222.14 46.3288 222.28 46.4695C222.421 46.6101 222.5 46.8009 222.5 46.9998V57.4898C222.5 57.8998 222.97 58.2498 223.5 58.2498H232.38C232.94 58.2498 233.38 57.8998 233.38 57.4898V46.9998C233.38 46.785 233.465 46.5789 233.617 46.427C233.769 46.2751 233.975 46.1898 234.19 46.1898C234.405 46.1898 234.611 46.2751 234.763 46.427C234.915 46.5789 235 46.785 235 46.9998V57.4898C234.982 57.807 234.902 58.1174 234.763 58.4032C234.624 58.689 234.43 58.9444 234.192 59.1546C233.954 59.3648 233.676 59.5257 233.376 59.6279C233.075 59.73 232.757 59.7715 232.44 59.7498ZM232.56 46.7498C232.461 46.7511 232.363 46.7327 232.271 46.6955C232.18 46.6582 232.097 46.603 232.027 46.5331C231.957 46.4632 231.902 46.38 231.864 46.2884C231.827 46.1968 231.809 46.0987 231.81 45.9998V44.5098C231.81 44.0998 231.33 43.7498 230.81 43.7498H225.22C224.67 43.7498 224.22 44.0998 224.22 44.5098V45.9998C224.22 46.1987 224.141 46.3895 224 46.5301C223.86 46.6708 223.669 46.7498 223.47 46.7498C223.271 46.7498 223.08 46.6708 222.94 46.5301C222.799 46.3895 222.72 46.1987 222.72 45.9998V44.5098C222.759 43.8811 223.042 43.2926 223.509 42.8702C223.977 42.4478 224.591 42.2251 225.22 42.2498H230.78C231.414 42.217 232.036 42.436 232.51 42.8593C232.984 43.2825 233.271 43.8757 233.31 44.5098V45.9998C233.311 46.0991 233.293 46.1977 233.256 46.2899C233.219 46.382 233.164 46.4659 233.094 46.5366C233.024 46.6073 232.941 46.6635 232.849 46.7018C232.758 46.7401 232.659 46.7598 232.56 46.7598V46.7498Z" fill="#6B778C"/>
<path d="M226.22 56.0002C226.022 55.9976 225.833 55.9178 225.693 55.7777C225.552 55.6376 225.473 55.4483 225.47 55.2502V50.7202C225.47 50.5213 225.549 50.3305 225.69 50.1899C225.83 50.0492 226.021 49.9702 226.22 49.9702C226.419 49.9702 226.61 50.0492 226.75 50.1899C226.891 50.3305 226.97 50.5213 226.97 50.7202V55.2402C226.971 55.3395 226.953 55.4381 226.916 55.5303C226.879 55.6225 226.824 55.7063 226.754 55.777C226.684 55.8477 226.601 55.9039 226.509 55.9422C226.418 55.9805 226.319 56.0002 226.22 56.0002V56.0002Z" fill="#6B778C"/>
<path d="M229.78 56.0002C229.581 56.0002 229.39 55.9212 229.25 55.7805C229.109 55.6399 229.03 55.4491 229.03 55.2502V50.7202C229.03 50.5213 229.109 50.3305 229.25 50.1899C229.39 50.0492 229.581 49.9702 229.78 49.9702C229.979 49.9702 230.17 50.0492 230.31 50.1899C230.451 50.3305 230.53 50.5213 230.53 50.7202V55.2402C230.53 55.4401 230.451 55.6319 230.311 55.7741C230.171 55.9164 229.98 55.9976 229.78 56.0002Z" fill="#6B778C"/>
<path d="M206.5 33.5H249.5V68.5H206.5V33.5Z" stroke="#9EA6B5"/>
<path d="M249.5 33.5H289C290.933 33.5 292.5 35.067 292.5 37V65C292.5 66.933 290.933 68.5 289 68.5H249.5V33.5Z" fill="white"/>
<path d="M273 59.5H269C268.802 59.4974 268.613 59.4176 268.473 59.2775C268.332 59.1374 268.253 58.9481 268.25 58.75V51L262.9 43.69C262.815 43.5801 262.764 43.4483 262.752 43.3102C262.739 43.172 262.766 43.0332 262.83 42.91C262.894 42.7871 262.99 42.684 263.108 42.6117C263.226 42.5395 263.362 42.5008 263.5 42.5H278.5C278.638 42.5008 278.774 42.5395 278.892 42.6117C279.01 42.684 279.106 42.7871 279.17 42.91C279.234 43.0332 279.261 43.172 279.248 43.3102C279.236 43.4483 279.185 43.5801 279.1 43.69L273.75 51V58.75C273.747 58.9481 273.668 59.1374 273.527 59.2775C273.387 59.4176 273.198 59.4974 273 59.5V59.5ZM269.75 58H272.25V50.75C272.249 50.5907 272.302 50.4357 272.4 50.31L277 44H265L269.62 50.31C269.718 50.4357 269.771 50.5907 269.77 50.75L269.75 58Z" fill="#6B778C"/>
<path d="M249.5 33.5H289C290.933 33.5 292.5 35.067 292.5 37V65C292.5 66.933 290.933 68.5 289 68.5H249.5V33.5Z" stroke="#9EA6B5"/>
<path d="M316.252 2.858C315.482 2.13 314.446 1.836 313.41 1.836C311.576 1.836 309.756 2.788 309.756 4.832C309.756 8.374 314.46 7.128 314.46 9.298C314.46 10.208 313.536 10.656 312.724 10.656C311.94 10.656 311.198 10.278 310.764 9.62L309.434 10.908C310.246 11.874 311.45 12.252 312.682 12.252C314.628 12.252 316.308 11.216 316.308 9.088C316.308 5.56 311.604 6.694 311.604 4.706C311.604 3.796 312.416 3.432 313.228 3.432C313.914 3.432 314.586 3.684 314.964 4.216L316.252 2.858ZM318.019 12H319.699V5.28H318.019V12ZM317.781 2.998C317.781 3.53 318.229 4.006 318.845 4.006C319.461 4.006 319.937 3.572 319.937 2.998C319.937 2.424 319.461 1.99 318.845 1.99C318.229 1.99 317.781 2.466 317.781 2.998ZM321.152 12H326.948V10.656H323.14L326.78 6.806V5.28H321.32V6.624H324.75V6.652L321.152 10.446V12ZM334.85 9.228V8.766C334.85 6.428 333.576 5.112 331.7 5.112C329.67 5.112 328.046 6.526 328.046 8.64C328.046 10.754 329.67 12.168 331.7 12.168C332.764 12.168 333.758 11.79 334.542 10.824L333.338 9.914C332.918 10.432 332.372 10.824 331.532 10.824C330.594 10.824 329.838 10.222 329.726 9.228H334.85ZM329.726 7.968C329.852 7.002 330.468 6.372 331.462 6.372C332.512 6.372 333.156 6.988 333.17 7.968H329.726ZM336.421 11.02C336.421 11.622 336.953 12.084 337.541 12.084C338.157 12.084 338.661 11.594 338.661 10.992C338.661 10.39 338.143 9.928 337.541 9.928C336.925 9.928 336.421 10.418 336.421 11.02ZM336.421 6.274C336.421 6.876 336.953 7.338 337.541 7.338C338.157 7.338 338.661 6.848 338.661 6.246C338.661 5.644 338.143 5.182 337.541 5.182C336.925 5.182 336.421 5.672 336.421 6.274ZM348.444 12H350.124V9.984H351.566V8.472H350.124V2.088H348.22L344.23 8.318V9.984H348.444V12ZM348.444 8.472H345.938L348.416 4.468H348.444V8.472Z" fill="black"/>
<path d="M313 33.5H352.5V68.5H313C311.067 68.5 309.5 66.933 309.5 65V37C309.5 35.067 311.067 33.5 313 33.5Z" fill="white"/>
<path d="M333 55.75H325C324.271 55.75 323.571 55.4603 323.055 54.9445C322.54 54.4288 322.25 53.7293 322.25 53V45C322.25 44.2707 322.54 43.5712 323.055 43.0555C323.571 42.5397 324.271 42.25 325 42.25H333C333.729 42.25 334.429 42.5397 334.945 43.0555C335.46 43.5712 335.75 44.2707 335.75 45V53C335.75 53.7293 335.46 54.4288 334.945 54.9445C334.429 55.4603 333.729 55.75 333 55.75ZM325 43.75C324.668 43.75 324.351 43.8817 324.116 44.1161C323.882 44.3505 323.75 44.6685 323.75 45V53C323.75 53.3315 323.882 53.6495 324.116 53.8839C324.351 54.1183 324.668 54.25 325 54.25H333C333.332 54.25 333.649 54.1183 333.884 53.8839C334.118 53.6495 334.25 53.3315 334.25 53V45C334.25 44.6685 334.118 44.3505 333.884 44.1161C333.649 43.8817 333.332 43.75 333 43.75H325Z" fill="#6B778C"/>
<path d="M337 59.75H329C328.271 59.75 327.571 59.4603 327.055 58.9445C326.54 58.4288 326.25 57.7293 326.25 57V55H327.75V57C327.75 57.3315 327.882 57.6495 328.116 57.8839C328.351 58.1183 328.668 58.25 329 58.25H337C337.332 58.25 337.649 58.1183 337.884 57.8839C338.118 57.6495 338.25 57.3315 338.25 57V49C338.25 48.6685 338.118 48.3505 337.884 48.1161C337.649 47.8817 337.332 47.75 337 47.75H335V46.25H337C337.729 46.25 338.429 46.5397 338.945 47.0555C339.46 47.5712 339.75 48.2707 339.75 49V57C339.75 57.7293 339.46 58.4288 338.945 58.9445C338.429 59.4603 337.729 59.75 337 59.75Z" fill="#6B778C"/>
<path d="M313 33.5H352.5V68.5H313C311.067 68.5 309.5 66.933 309.5 65V37C309.5 35.067 311.067 33.5 313 33.5Z" stroke="#9EA6B5"/>
<path d="M352.5 33.5H395.5V68.5H352.5V33.5Z" fill="white"/>
<path d="M379 49.25H378.75V47C378.75 45.7402 378.25 44.532 377.359 43.6412C376.468 42.7504 375.26 42.25 374 42.25C372.74 42.25 371.532 42.7504 370.641 43.6412C369.75 44.532 369.25 45.7402 369.25 47V49.25H369C368.271 49.25 367.571 49.5397 367.055 50.0555C366.54 50.5712 366.25 51.2707 366.25 52V57C366.25 57.7293 366.54 58.4288 367.055 58.9445C367.571 59.4603 368.271 59.75 369 59.75H379C379.729 59.75 380.429 59.4603 380.945 58.9445C381.46 58.4288 381.75 57.7293 381.75 57V52C381.75 51.2707 381.46 50.5712 380.945 50.0555C380.429 49.5397 379.729 49.25 379 49.25ZM370.75 47C370.75 46.138 371.092 45.3114 371.702 44.7019C372.311 44.0924 373.138 43.75 374 43.75C374.862 43.75 375.689 44.0924 376.298 44.7019C376.908 45.3114 377.25 46.138 377.25 47V49.25H370.75V47ZM380.25 57C380.25 57.3315 380.118 57.6495 379.884 57.8839C379.649 58.1183 379.332 58.25 379 58.25H369C368.668 58.25 368.351 58.1183 368.116 57.8839C367.882 57.6495 367.75 57.3315 367.75 57V52C367.75 51.6685 367.882 51.3505 368.116 51.1161C368.351 50.8817 368.668 50.75 369 50.75H379C379.332 50.75 379.649 50.8817 379.884 51.1161C380.118 51.3505 380.25 51.6685 380.25 52V57Z" fill="#6B778C"/>
<path d="M352.5 33.5H395.5V68.5H352.5V33.5Z" stroke="#9EA6B5"/>
<path d="M395.5 33.5H438.5V68.5H395.5V33.5Z" fill="white"/>
<path d="M425 47.7002H409C408.902 47.7002 408.804 47.6808 408.713 47.6431C408.622 47.6054 408.539 47.5502 408.47 47.4805C408.4 47.4109 408.345 47.3282 408.307 47.2372C408.269 47.1462 408.25 47.0487 408.25 46.9502C408.25 46.8517 408.269 46.7542 408.307 46.6632C408.345 46.5722 408.4 46.4895 408.47 46.4199C408.539 46.3502 408.622 46.295 408.713 46.2573C408.804 46.2196 408.902 46.2002 409 46.2002H425C425.199 46.2002 425.39 46.2792 425.53 46.4199C425.671 46.5605 425.75 46.7513 425.75 46.9502C425.75 47.1491 425.671 47.3399 425.53 47.4805C425.39 47.6212 425.199 47.7002 425 47.7002V47.7002Z" fill="#6B778C"/>
<path d="M421.44 59.7498H412.56C412.243 59.7715 411.925 59.73 411.624 59.6279C411.323 59.5257 411.046 59.3648 410.808 59.1546C410.57 58.9444 410.376 58.689 410.237 58.4032C410.098 58.1174 410.018 57.807 410 57.4898V46.9998C410 46.8009 410.079 46.6101 410.22 46.4695C410.36 46.3288 410.551 46.2498 410.75 46.2498C410.949 46.2498 411.14 46.3288 411.28 46.4695C411.421 46.6101 411.5 46.8009 411.5 46.9998V57.4898C411.5 57.8998 411.97 58.2498 412.5 58.2498H421.38C421.94 58.2498 422.38 57.8998 422.38 57.4898V46.9998C422.38 46.785 422.465 46.5789 422.617 46.427C422.769 46.2751 422.975 46.1898 423.19 46.1898C423.405 46.1898 423.611 46.2751 423.763 46.427C423.915 46.5789 424 46.785 424 46.9998V57.4898C423.982 57.807 423.902 58.1174 423.763 58.4032C423.624 58.689 423.43 58.9444 423.192 59.1546C422.954 59.3648 422.676 59.5257 422.376 59.6279C422.075 59.73 421.757 59.7715 421.44 59.7498ZM421.56 46.7498C421.461 46.7511 421.363 46.7327 421.271 46.6955C421.18 46.6582 421.097 46.603 421.027 46.5331C420.957 46.4632 420.902 46.38 420.864 46.2884C420.827 46.1968 420.809 46.0987 420.81 45.9998V44.5098C420.81 44.0998 420.33 43.7498 419.81 43.7498H414.22C413.67 43.7498 413.22 44.0998 413.22 44.5098V45.9998C413.22 46.1987 413.141 46.3895 413 46.5301C412.86 46.6708 412.669 46.7498 412.47 46.7498C412.271 46.7498 412.08 46.6708 411.94 46.5301C411.799 46.3895 411.72 46.1987 411.72 45.9998V44.5098C411.759 43.8811 412.042 43.2926 412.509 42.8702C412.977 42.4478 413.591 42.2251 414.22 42.2498H419.78C420.414 42.217 421.036 42.436 421.51 42.8593C421.984 43.2825 422.271 43.8757 422.31 44.5098V45.9998C422.311 46.0991 422.293 46.1977 422.256 46.2899C422.219 46.382 422.164 46.4659 422.094 46.5366C422.024 46.6073 421.941 46.6635 421.849 46.7018C421.758 46.7401 421.659 46.7598 421.56 46.7598V46.7498Z" fill="#6B778C"/>
<path d="M415.22 56.0002C415.022 55.9976 414.833 55.9178 414.693 55.7777C414.552 55.6376 414.473 55.4483 414.47 55.2502V50.7202C414.47 50.5213 414.549 50.3305 414.69 50.1899C414.83 50.0492 415.021 49.9702 415.22 49.9702C415.419 49.9702 415.61 50.0492 415.75 50.1899C415.891 50.3305 415.97 50.5213 415.97 50.7202V55.2402C415.971 55.3395 415.953 55.4381 415.916 55.5303C415.879 55.6225 415.824 55.7063 415.754 55.777C415.684 55.8477 415.601 55.9039 415.509 55.9422C415.418 55.9805 415.319 56.0002 415.22 56.0002V56.0002Z" fill="#6B778C"/>
<path d="M418.78 56.0002C418.581 56.0002 418.39 55.9212 418.25 55.7805C418.109 55.6399 418.03 55.4491 418.03 55.2502V50.7202C418.03 50.5213 418.109 50.3305 418.25 50.1899C418.39 50.0492 418.581 49.9702 418.78 49.9702C418.979 49.9702 419.17 50.0492 419.31 50.1899C419.451 50.3305 419.53 50.5213 419.53 50.7202V55.2402C419.53 55.4401 419.451 55.6319 419.311 55.7741C419.171 55.9164 418.98 55.9976 418.78 56.0002Z" fill="#6B778C"/>
<path d="M395.5 33.5H438.5V68.5H395.5V33.5Z" stroke="#9EA6B5"/>
<path d="M438.5 33.5H478C479.933 33.5 481.5 35.067 481.5 37V65C481.5 66.933 479.933 68.5 478 68.5H438.5V33.5Z" fill="white"/>
<path d="M460 52.75C460.966 52.75 461.75 51.9665 461.75 51C461.75 50.0335 460.966 49.25 460 49.25C459.034 49.25 458.25 50.0335 458.25 51C458.25 51.9665 459.034 52.75 460 52.75Z" fill="#6B778C"/>
<path d="M467 52.75C467.966 52.75 468.75 51.9665 468.75 51C468.75 50.0335 467.966 49.25 467 49.25C466.034 49.25 465.25 50.0335 465.25 51C465.25 51.9665 466.034 52.75 467 52.75Z" fill="#6B778C"/>
<path d="M453 52.75C453.966 52.75 454.75 51.9665 454.75 51C454.75 50.0335 453.966 49.25 453 49.25C452.034 49.25 451.25 50.0335 451.25 51C451.25 51.9665 452.034 52.75 453 52.75Z" fill="#6B778C"/>
<path d="M438.5 33.5H478C479.933 33.5 481.5 35.067 481.5 37V65C481.5 66.933 479.933 68.5 478 68.5H438.5V33.5Z" stroke="#9EA6B5"/>
</svg>
