<svg width="668" height="241" viewBox="0 0 668 241" fill="none" xmlns="http://www.w3.org/2000/svg">
<rect width="208" height="150" fill="white"/>
<rect x="44.5" y="20.5" width="19" height="19" rx="3.5" fill="white" stroke="#9EA6B5"/>
<path d="M73.408 34H74.752V24.496H74.784L78.848 34H79.664L83.728 24.496H83.76V34H85.104V22.672H83.152L79.28 31.552H79.248L75.408 22.672H73.408V34ZM93.4436 31.904C92.8516 32.656 92.1316 33.04 91.0596 33.04C89.6996 33.04 88.7076 31.936 88.6116 30.64H94.6596V30.24C94.6596 27.76 93.2196 26.32 91.1076 26.32C88.8996 26.32 87.2676 27.936 87.2676 30.256C87.2676 32.432 88.7076 34.192 91.0596 34.192C92.4516 34.192 93.5076 33.776 94.3876 32.64L93.4436 31.904ZM88.6116 29.584C88.7716 28.32 89.6836 27.472 91.0596 27.472C92.4356 27.472 93.2676 28.32 93.3156 29.584H88.6116ZM96.7023 34H97.9503V21.904H96.7023V34ZM100.37 34H101.618V32.672H101.65C102.114 33.52 103.186 34.192 104.53 34.192C106.626 34.192 108.274 32.496 108.274 30.256C108.274 27.984 106.69 26.32 104.338 26.32C103.25 26.32 102.338 26.8 101.65 27.6H101.618V21.904H100.37V34ZM101.618 30.256C101.618 28.688 102.658 27.472 104.274 27.472C105.89 27.472 106.93 28.688 106.93 30.256C106.93 31.824 105.89 33.04 104.274 33.04C102.658 33.04 101.618 31.824 101.618 30.256ZM109.783 30.256C109.783 32.592 111.479 34.192 113.783 34.192C116.087 34.192 117.783 32.592 117.783 30.256C117.783 27.92 116.087 26.32 113.783 26.32C111.479 26.32 109.783 27.92 109.783 30.256ZM111.127 30.256C111.127 28.688 112.167 27.472 113.783 27.472C115.399 27.472 116.439 28.688 116.439 30.256C116.439 31.824 115.399 33.04 113.783 33.04C112.167 33.04 111.127 31.824 111.127 30.256ZM126.243 26.512H124.995V30.16C124.995 31.872 124.291 33.04 122.675 33.04C121.507 33.04 120.963 32.256 120.963 31.008V26.512H119.715V31.136C119.715 32.944 120.595 34.192 122.563 34.192C123.795 34.192 124.723 33.504 125.059 32.768H125.091C125.091 33.184 125.123 33.6 125.123 34H126.307C126.307 33.504 126.243 32.912 126.243 32.224V26.512ZM128.606 34H129.854V30.352C129.854 28.64 130.526 27.568 132.046 27.568C132.27 27.568 132.51 27.6 132.718 27.664L132.798 26.4C132.622 26.336 132.446 26.32 132.286 26.32C131.054 26.32 130.126 27.008 129.79 27.744H129.758C129.758 27.328 129.726 26.912 129.726 26.512H128.542C128.542 27.008 128.606 27.6 128.606 28.288V34ZM134.231 34H135.479V30.352C135.479 28.64 136.183 27.472 137.799 27.472C138.967 27.472 139.511 28.256 139.511 29.504V34H140.759V29.376C140.759 27.568 139.879 26.32 137.911 26.32C136.679 26.32 135.751 27.008 135.415 27.744H135.383C135.383 27.328 135.351 26.912 135.351 26.512H134.167C134.167 27.008 134.231 27.6 134.231 28.288V34ZM148.866 31.904C148.274 32.656 147.554 33.04 146.482 33.04C145.122 33.04 144.13 31.936 144.034 30.64H150.082V30.24C150.082 27.76 148.642 26.32 146.53 26.32C144.322 26.32 142.69 27.936 142.69 30.256C142.69 32.432 144.13 34.192 146.482 34.192C147.874 34.192 148.93 33.776 149.81 32.64L148.866 31.904ZM144.034 29.584C144.194 28.32 145.106 27.472 146.482 27.472C147.858 27.472 148.69 28.32 148.738 29.584H144.034Z" fill="#333333"/>
<rect x="44" y="48" width="20" height="20" rx="6" fill="#EDE9ED"/>
<path d="M48 48.5H60C61.933 48.5 63.5 50.067 63.5 52V64C63.5 65.933 61.933 67.5 60 67.5H48C46.067 67.5 44.5 65.933 44.5 64V52C44.5 50.067 46.067 48.5 48 48.5Z" stroke="#6C3078"/>
<path d="M52.0757 62.7728L48.1757 58.8728C47.9414 58.6385 47.9414 58.2586 48.1757 58.0243L49.0242 57.1757C49.2585 56.9414 49.6385 56.9414 49.8728 57.1757L52.5 59.8029L58.1272 54.1757C58.3615 53.9414 58.7415 53.9414 58.9758 54.1757L59.8243 55.0243C60.0586 55.2586 60.0586 55.6385 59.8243 55.8728L52.9243 62.7728C52.6899 63.0071 52.31 63.0071 52.0757 62.7728Z" fill="#6C3078"/>
<path d="M79.888 51.712C79.056 50.736 77.984 50.384 76.72 50.384C74.736 50.384 72.864 51.472 72.864 53.648C72.864 55.536 74.08 56.24 75.68 56.768C77.696 57.44 78.64 57.68 78.64 59.072C78.64 60.368 77.328 61.04 76.176 61.04C75.2 61.04 74.24 60.608 73.76 59.776L72.608 60.72C73.376 61.856 74.784 62.288 76.096 62.288C78.144 62.288 80.08 61.232 80.08 58.976C80.08 56.752 78.448 56.176 76.688 55.616C74.88 55.04 74.304 54.576 74.304 53.536C74.304 52.192 75.536 51.632 76.72 51.632C77.536 51.632 78.336 51.952 78.784 52.672L79.888 51.712ZM88.4426 54.512H87.0826L84.8586 60.384H84.8266L82.5066 54.512H81.0506L84.1546 62.048L83.6426 63.456C83.3706 64.192 83.0666 64.688 82.2506 64.688C81.8986 64.688 81.6266 64.656 81.3706 64.56L81.2106 65.648C81.5466 65.808 81.9786 65.84 82.3306 65.84C83.8346 65.84 84.3306 64.976 84.8266 63.712L88.4426 54.512ZM96.0174 62H97.2654V49.904H96.0174V55.6H95.9854C95.2974 54.8 94.3854 54.32 93.2974 54.32C90.9454 54.32 89.3614 55.984 89.3614 58.256C89.3614 60.496 91.0094 62.192 93.1054 62.192C94.4494 62.192 95.5214 61.52 95.9854 60.672H96.0174V62ZM96.0174 58.256C96.0174 59.824 94.9774 61.04 93.3614 61.04C91.7454 61.04 90.7054 59.824 90.7054 58.256C90.7054 56.688 91.7454 55.472 93.3614 55.472C94.9774 55.472 96.0174 56.688 96.0174 58.256ZM99.5746 62H100.823V58.352C100.823 56.64 101.527 55.472 103.143 55.472C104.311 55.472 104.855 56.256 104.855 57.504V62H106.103V57.376C106.103 55.568 105.223 54.32 103.255 54.32C102.023 54.32 101.095 55.008 100.759 55.744H100.727C100.727 55.328 100.695 54.912 100.695 54.512H99.5106C99.5106 55.008 99.5746 55.6 99.5746 56.288V62ZM114.209 59.904C113.617 60.656 112.897 61.04 111.825 61.04C110.465 61.04 109.473 59.936 109.377 58.64H115.425V58.24C115.425 55.76 113.985 54.32 111.873 54.32C109.665 54.32 108.033 55.936 108.033 58.256C108.033 60.432 109.473 62.192 111.825 62.192C113.217 62.192 114.273 61.776 115.153 60.64L114.209 59.904ZM109.377 57.584C109.537 56.32 110.449 55.472 111.825 55.472C113.201 55.472 114.033 56.32 114.081 57.584H109.377ZM123.724 54.512H122.364L120.14 60.384H120.108L117.788 54.512H116.332L119.436 62.048L118.924 63.456C118.652 64.192 118.348 64.688 117.532 64.688C117.18 64.688 116.908 64.656 116.652 64.56L116.492 65.648C116.828 65.808 117.26 65.84 117.612 65.84C119.116 65.84 119.612 64.976 120.108 63.712L123.724 54.512Z" fill="#333333"/>
<rect x="44" y="76" width="20" height="20" rx="6" fill="#EDE9ED"/>
<path d="M48 76.5H60C61.933 76.5 63.5 78.067 63.5 80V92C63.5 93.933 61.933 95.5 60 95.5H48C46.067 95.5 44.5 93.933 44.5 92V80C44.5 78.067 46.067 76.5 48 76.5Z" stroke="#6C3078"/>
<path d="M52.0757 90.7728L48.1757 86.8728C47.9414 86.6385 47.9414 86.2586 48.1757 86.0243L49.0242 85.1757C49.2585 84.9414 49.6385 84.9414 49.8728 85.1757L52.5 87.8029L58.1272 82.1757C58.3615 81.9414 58.7415 81.9414 58.9758 82.1757L59.8243 83.0243C60.0586 83.2586 60.0586 83.6385 59.8243 83.8728L52.9243 90.7728C52.6899 91.0071 52.31 91.0071 52.0757 90.7728Z" fill="#6C3078"/>
<path d="M73.408 90H76.784C78.88 90 81.2 89.328 81.2 86.832C81.2 85.344 80.096 84.176 78.64 84.048V84.016C79.856 83.648 80.624 82.768 80.624 81.456C80.624 79.376 78.736 78.672 76.864 78.672H73.408V90ZM74.752 79.92H76.752C77.968 79.92 79.184 80.24 79.184 81.632C79.184 83.2 77.872 83.472 76.608 83.472H74.752V79.92ZM74.752 84.72H77.056C78.416 84.72 79.76 85.2 79.76 86.784C79.76 88.224 78.336 88.752 77.024 88.752H74.752V84.72ZM83.2621 90H84.5101V86.352C84.5101 84.64 85.1821 83.568 86.7021 83.568C86.9261 83.568 87.1661 83.6 87.3741 83.664L87.4541 82.4C87.2781 82.336 87.1021 82.32 86.9421 82.32C85.7101 82.32 84.7821 83.008 84.4461 83.744H84.4141C84.4141 83.328 84.3821 82.912 84.3821 82.512H83.1981C83.1981 83.008 83.2621 83.6 83.2621 84.288V90ZM88.9991 90H90.2471V82.512H88.9991V90ZM88.7111 79.584C88.7111 80.112 89.0951 80.496 89.6231 80.496C90.1511 80.496 90.5351 80.112 90.5351 79.584C90.5351 79.088 90.1351 78.672 89.6231 78.672C89.1111 78.672 88.7111 79.088 88.7111 79.584ZM91.8989 88.8C92.6349 89.856 93.5469 90.192 94.8109 90.192C96.2989 90.192 97.8029 89.536 97.8029 87.84C97.8029 86.336 96.6829 85.856 95.3549 85.6C94.3629 85.408 93.4669 85.136 93.4669 84.512C93.4669 83.808 94.2509 83.472 94.9389 83.472C95.6749 83.472 96.2029 83.84 96.5229 84.368L97.5629 83.68C97.0509 82.72 96.0749 82.32 95.0189 82.32C93.6269 82.32 92.2189 83.072 92.2189 84.528C92.2189 86.08 93.4349 86.384 94.8589 86.704C95.6589 86.88 96.4589 87.088 96.4589 87.888C96.4589 88.704 95.5949 89.04 94.8109 89.04C93.9309 89.04 93.3869 88.64 92.8909 88.032L91.8989 88.8ZM99.4794 90H100.727V88.672H100.759C101.223 89.52 102.295 90.192 103.639 90.192C105.735 90.192 107.383 88.496 107.383 86.256C107.383 83.984 105.799 82.32 103.447 82.32C102.359 82.32 101.447 82.8 100.759 83.6H100.727V77.904H99.4794V90ZM100.727 86.256C100.727 84.688 101.767 83.472 103.383 83.472C104.999 83.472 106.039 84.688 106.039 86.256C106.039 87.824 104.999 89.04 103.383 89.04C101.767 89.04 100.727 87.824 100.727 86.256ZM110.013 84.288C110.605 83.744 111.437 83.472 112.237 83.472C113.405 83.472 114.093 84.032 114.093 85.12V85.344H113.613C111.773 85.344 108.893 85.488 108.893 87.968C108.893 89.424 110.157 90.192 111.677 90.192C112.813 90.192 113.645 89.648 114.141 88.88H114.173C114.173 89.2 114.173 89.664 114.253 90H115.453C115.389 89.616 115.341 89.136 115.341 88.704V85.488C115.341 83.376 114.413 82.32 112.205 82.32C111.117 82.32 109.997 82.688 109.229 83.472L110.013 84.288ZM114.093 86.4V86.88C114.061 88.096 113.325 89.136 111.885 89.136C110.941 89.136 110.237 88.784 110.237 87.84C110.237 86.832 111.261 86.4 112.845 86.4H114.093ZM117.622 90H118.87V86.352C118.87 84.64 119.574 83.472 121.19 83.472C122.358 83.472 122.902 84.256 122.902 85.504V90H124.15V85.376C124.15 83.568 123.27 82.32 121.302 82.32C120.07 82.32 119.142 83.008 118.806 83.744H118.774C118.774 83.328 118.742 82.912 118.742 82.512H117.558C117.558 83.008 117.622 83.6 117.622 84.288V90ZM132.256 87.904C131.664 88.656 130.944 89.04 129.872 89.04C128.512 89.04 127.52 87.936 127.424 86.64H133.472V86.24C133.472 83.76 132.032 82.32 129.92 82.32C127.712 82.32 126.08 83.936 126.08 86.256C126.08 88.432 127.52 90.192 129.872 90.192C131.264 90.192 132.32 89.776 133.2 88.64L132.256 87.904ZM127.424 85.584C127.584 84.32 128.496 83.472 129.872 83.472C131.248 83.472 132.08 84.32 132.128 85.584H127.424Z" fill="#333333"/>
<rect x="44.5" y="104.5" width="19" height="19" rx="3.5" fill="white" stroke="#9EA6B5"/>
<path d="M81.008 106.672H72.176V107.92H75.92V118H77.264V107.92H81.008V106.672ZM81.2783 112.288C81.8703 111.744 82.7023 111.472 83.5023 111.472C84.6703 111.472 85.3583 112.032 85.3583 113.12V113.344H84.8783C83.0383 113.344 80.1583 113.488 80.1583 115.968C80.1583 117.424 81.4223 118.192 82.9423 118.192C84.0783 118.192 84.9103 117.648 85.4063 116.88H85.4383C85.4383 117.2 85.4383 117.664 85.5183 118H86.7183C86.6543 117.616 86.6063 117.136 86.6063 116.704V113.488C86.6063 111.376 85.6783 110.32 83.4703 110.32C82.3823 110.32 81.2623 110.688 80.4943 111.472L81.2783 112.288ZM85.3583 114.4V114.88C85.3263 116.096 84.5903 117.136 83.1503 117.136C82.2063 117.136 81.5023 116.784 81.5023 115.84C81.5023 114.832 82.5263 114.4 84.1102 114.4H85.3583ZM88.0551 116.8C88.7911 117.856 89.7031 118.192 90.9671 118.192C92.4551 118.192 93.9591 117.536 93.9591 115.84C93.9591 114.336 92.8391 113.856 91.5111 113.6C90.5191 113.408 89.6231 113.136 89.6231 112.512C89.6231 111.808 90.4071 111.472 91.0951 111.472C91.8311 111.472 92.3591 111.84 92.6791 112.368L93.7191 111.68C93.2071 110.72 92.2311 110.32 91.1751 110.32C89.7831 110.32 88.3751 111.072 88.3751 112.528C88.3751 114.08 89.5911 114.384 91.0151 114.704C91.8151 114.88 92.6151 115.088 92.6151 115.888C92.6151 116.704 91.7511 117.04 90.9671 117.04C90.0871 117.04 89.5431 116.64 89.0471 116.032L88.0551 116.8ZM95.6996 118H96.9476V114.352C96.9476 112.64 97.6516 111.472 99.2676 111.472C100.292 111.472 100.708 112.112 100.708 113.76V118H101.956V113.68C101.956 112.336 102.836 111.472 103.892 111.472C105.348 111.472 105.716 112.48 105.716 113.52V118H106.964V113.456C106.964 111.52 106.26 110.32 104.116 110.32C102.98 110.32 102.292 110.864 101.748 111.744C101.508 111.232 100.996 110.32 99.3796 110.32C98.1476 110.32 97.2196 111.008 96.8836 111.744H96.8516C96.8516 111.328 96.8196 110.912 96.8196 110.512H95.6356C95.6356 111.008 95.6996 111.6 95.6996 112.288V118ZM110.013 112.288C110.605 111.744 111.437 111.472 112.237 111.472C113.405 111.472 114.093 112.032 114.093 113.12V113.344H113.613C111.773 113.344 108.893 113.488 108.893 115.968C108.893 117.424 110.157 118.192 111.677 118.192C112.813 118.192 113.645 117.648 114.141 116.88H114.173C114.173 117.2 114.173 117.664 114.253 118H115.453C115.389 117.616 115.341 117.136 115.341 116.704V113.488C115.341 111.376 114.413 110.32 112.205 110.32C111.117 110.32 109.997 110.688 109.229 111.472L110.013 112.288ZM114.093 114.4V114.88C114.061 116.096 113.325 117.136 111.885 117.136C110.941 117.136 110.237 116.784 110.237 115.84C110.237 114.832 111.261 114.4 112.845 114.4H114.093ZM117.622 118H118.87V114.352C118.87 112.64 119.574 111.472 121.19 111.472C122.358 111.472 122.902 112.256 122.902 113.504V118H124.15V113.376C124.15 111.568 123.27 110.32 121.302 110.32C120.07 110.32 119.142 111.008 118.806 111.744H118.774C118.774 111.328 118.742 110.912 118.742 110.512H117.558C117.558 111.008 117.622 111.6 117.622 112.288V118ZM126.624 118H127.872V110.512H126.624V118ZM126.336 107.584C126.336 108.112 126.72 108.496 127.248 108.496C127.776 108.496 128.16 108.112 128.16 107.584C128.16 107.088 127.76 106.672 127.248 106.672C126.736 106.672 126.336 107.088 126.336 107.584ZM131.044 112.288C131.636 111.744 132.468 111.472 133.268 111.472C134.436 111.472 135.124 112.032 135.124 113.12V113.344H134.644C132.804 113.344 129.924 113.488 129.924 115.968C129.924 117.424 131.188 118.192 132.708 118.192C133.844 118.192 134.676 117.648 135.172 116.88H135.204C135.204 117.2 135.204 117.664 135.284 118H136.484C136.42 117.616 136.372 117.136 136.372 116.704V113.488C136.372 111.376 135.444 110.32 133.236 110.32C132.148 110.32 131.028 110.688 130.26 111.472L131.044 112.288ZM135.124 114.4V114.88C135.092 116.096 134.356 117.136 132.916 117.136C131.972 117.136 131.268 116.784 131.268 115.84C131.268 114.832 132.292 114.4 133.876 114.4H135.124Z" fill="#333333"/>
<rect x="220" y="0.979584" width="48" height="47.0204" fill="white"/>
<rect x="220" width="48" height="0.979592" fill="#E7EDF9"/>
<rect x="220" y="47.0204" width="48" height="0.979591" fill="#E7EDF9"/>
<rect x="220" y="1" width="1" height="47" fill="#E7EDF9"/>
<rect x="267" y="1" width="1" height="47" fill="#E7EDF9"/>
<rect x="232" y="13" width="20" height="20" rx="6" fill="#EDE9ED"/>
<path d="M236 13.5H248C249.933 13.5 251.5 15.067 251.5 17V29C251.5 30.933 249.933 32.5 248 32.5H236C234.067 32.5 232.5 30.933 232.5 29V17C232.5 15.067 234.067 13.5 236 13.5Z" stroke="#6C3078"/>
<path d="M236 22.5C236 22.2239 236.224 22 236.5 22H247.5C247.776 22 248 22.2239 248 22.5V23.5C248 23.7761 247.776 24 247.5 24H236.5C236.224 24 236 23.7761 236 23.5V22.5Z" fill="#6C3078"/>
<rect x="268" y="1" width="200" height="48" fill="#777DA7"/>
<path d="M281.264 30H283.28V25.008H288.576V30H290.592V18.672H288.576V23.184H283.28V18.672H281.264V30ZM300.339 26.832V26.304C300.339 23.632 298.883 22.128 296.739 22.128C294.419 22.128 292.563 23.744 292.563 26.16C292.563 28.576 294.419 30.192 296.739 30.192C297.955 30.192 299.091 29.76 299.987 28.656L298.611 27.616C298.131 28.208 297.507 28.656 296.547 28.656C295.475 28.656 294.611 27.968 294.483 26.832H300.339ZM294.483 25.392C294.627 24.288 295.331 23.568 296.467 23.568C297.667 23.568 298.403 24.272 298.419 25.392H294.483ZM306.935 30H308.663V25.584C308.663 24.496 308.663 22.128 305.383 22.128C304.167 22.128 302.967 22.496 302.119 23.36L303.127 24.368C303.639 23.888 304.375 23.568 305.175 23.568C306.199 23.568 306.935 24.064 306.935 25.008V25.216H306.455C304.535 25.216 301.623 25.392 301.623 27.888C301.623 29.408 302.999 30.192 304.423 30.192C305.447 30.192 306.343 29.808 306.887 28.944H306.935V30ZM306.823 26.992C306.823 28.064 306.199 28.752 304.887 28.752C304.263 28.752 303.543 28.448 303.543 27.744C303.543 26.64 305.367 26.56 306.423 26.56H306.823V26.992ZM316.809 30H318.633V17.904H316.713V23.296H316.665C316.265 22.8 315.497 22.128 314.057 22.128C311.865 22.128 310.345 23.888 310.345 26.16C310.345 28.432 311.769 30.192 314.137 30.192C315.209 30.192 316.217 29.776 316.777 28.848H316.809V30ZM312.265 26.16C312.265 24.96 313.113 23.856 314.521 23.856C315.929 23.856 316.777 24.96 316.777 26.16C316.777 27.36 315.929 28.464 314.521 28.464C313.113 28.464 312.265 27.36 312.265 26.16Z" fill="white"/>
<path d="M442.5 21.25C442.307 21.2353 442.128 21.1455 442 21L440 19L438 21C437.948 21.1083 437.871 21.2026 437.776 21.2749C437.68 21.3473 437.568 21.3957 437.45 21.416C437.332 21.4363 437.21 21.4279 437.096 21.3916C436.982 21.3552 436.878 21.292 436.793 21.2071C436.708 21.1223 436.645 21.0183 436.608 20.904C436.572 20.7896 436.564 20.6682 436.584 20.55C436.604 20.4317 436.653 20.32 436.725 20.2243C436.797 20.1287 436.892 20.0517 437 20L439.5 17.5C439.641 17.3596 439.831 17.2807 440.03 17.2807C440.229 17.2807 440.419 17.3596 440.56 17.5L443 20C443.123 20.1375 443.191 20.3155 443.191 20.5C443.191 20.6845 443.123 20.8625 443 21C442.872 21.1455 442.693 21.2353 442.5 21.25V21.25Z" fill="white"/>
<path d="M440 32.75C439.802 32.7474 439.613 32.6676 439.473 32.5275C439.332 32.3874 439.253 32.1981 439.25 32V18C439.25 17.8011 439.329 17.6103 439.47 17.4697C439.61 17.329 439.801 17.25 440 17.25C440.199 17.25 440.39 17.329 440.53 17.4697C440.671 17.6103 440.75 17.8011 440.75 18V32C440.747 32.1981 440.668 32.3874 440.527 32.5275C440.387 32.6676 440.198 32.7474 440 32.75V32.75Z" fill="white"/>
<path d="M448 32.75C447.901 32.7505 447.804 32.7312 447.713 32.6935C447.622 32.6557 447.539 32.6001 447.47 32.53L445 30C444.892 29.9483 444.797 29.8713 444.725 29.7757C444.653 29.68 444.604 29.5683 444.584 29.45C444.564 29.3318 444.572 29.2104 444.608 29.096C444.645 28.9817 444.708 28.8777 444.793 28.7929C444.878 28.708 444.982 28.6448 445.096 28.6084C445.21 28.5721 445.332 28.5637 445.45 28.584C445.568 28.6043 445.68 28.6527 445.776 28.7251C445.871 28.7974 445.948 28.8917 446 29L448 31L450 29C450.052 28.8917 450.129 28.7974 450.224 28.7251C450.32 28.6527 450.432 28.6043 450.55 28.584C450.668 28.5637 450.79 28.5721 450.904 28.6084C451.018 28.6448 451.122 28.708 451.207 28.7929C451.292 28.8777 451.355 28.9817 451.392 29.096C451.428 29.2104 451.436 29.3318 451.416 29.45C451.396 29.5683 451.347 29.68 451.275 29.7757C451.203 29.8713 451.108 29.9483 451 30L448.5 32.5C448.372 32.6455 448.193 32.7352 448 32.75Z" fill="white"/>
<path d="M448 32.75C447.802 32.7474 447.613 32.6676 447.473 32.5275C447.332 32.3874 447.253 32.1981 447.25 32V18C447.25 17.8011 447.329 17.6103 447.47 17.4697C447.61 17.329 447.801 17.25 448 17.25C448.199 17.25 448.39 17.329 448.53 17.4697C448.671 17.6103 448.75 17.8011 448.75 18V32C448.747 32.1981 448.668 32.3874 448.527 32.5275C448.387 32.6676 448.198 32.7474 448 32.75V32.75Z" fill="white"/>
<rect x="468" y="1" width="200" height="48" fill="#777DA7"/>
<path d="M481.264 30H483.28V25.008H488.576V30H490.592V18.672H488.576V23.184H483.28V18.672H481.264V30ZM500.339 26.832V26.304C500.339 23.632 498.883 22.128 496.739 22.128C494.419 22.128 492.563 23.744 492.563 26.16C492.563 28.576 494.419 30.192 496.739 30.192C497.955 30.192 499.091 29.76 499.987 28.656L498.611 27.616C498.131 28.208 497.507 28.656 496.547 28.656C495.475 28.656 494.611 27.968 494.483 26.832H500.339ZM494.483 25.392C494.627 24.288 495.331 23.568 496.467 23.568C497.667 23.568 498.403 24.272 498.419 25.392H494.483ZM506.935 30H508.663V25.584C508.663 24.496 508.663 22.128 505.383 22.128C504.167 22.128 502.967 22.496 502.119 23.36L503.127 24.368C503.639 23.888 504.375 23.568 505.175 23.568C506.199 23.568 506.935 24.064 506.935 25.008V25.216H506.455C504.535 25.216 501.623 25.392 501.623 27.888C501.623 29.408 502.999 30.192 504.423 30.192C505.447 30.192 506.343 29.808 506.887 28.944H506.935V30ZM506.823 26.992C506.823 28.064 506.199 28.752 504.887 28.752C504.263 28.752 503.543 28.448 503.543 27.744C503.543 26.64 505.367 26.56 506.423 26.56H506.823V26.992ZM516.809 30H518.633V17.904H516.713V23.296H516.665C516.265 22.8 515.497 22.128 514.057 22.128C511.865 22.128 510.345 23.888 510.345 26.16C510.345 28.432 511.769 30.192 514.137 30.192C515.209 30.192 516.217 29.776 516.777 28.848H516.809V30ZM512.265 26.16C512.265 24.96 513.113 23.856 514.521 23.856C515.929 23.856 516.777 24.96 516.777 26.16C516.777 27.36 515.929 28.464 514.521 28.464C513.113 28.464 512.265 27.36 512.265 26.16Z" fill="white"/>
<path d="M642.5 21.25C642.307 21.2353 642.128 21.1455 642 21L640 19L638 21C637.948 21.1083 637.871 21.2026 637.776 21.2749C637.68 21.3473 637.568 21.3957 637.45 21.416C637.332 21.4363 637.21 21.4279 637.096 21.3916C636.982 21.3552 636.878 21.292 636.793 21.2071C636.708 21.1223 636.645 21.0183 636.608 20.904C636.572 20.7896 636.564 20.6682 636.584 20.55C636.604 20.4317 636.653 20.32 636.725 20.2243C636.797 20.1287 636.892 20.0517 637 20L639.5 17.5C639.641 17.3596 639.831 17.2807 640.03 17.2807C640.229 17.2807 640.419 17.3596 640.56 17.5L643 20C643.123 20.1375 643.191 20.3155 643.191 20.5C643.191 20.6845 643.123 20.8625 643 21C642.872 21.1455 642.693 21.2353 642.5 21.25V21.25Z" fill="white"/>
<path d="M640 32.75C639.802 32.7474 639.613 32.6676 639.473 32.5275C639.332 32.3874 639.253 32.1981 639.25 32V18C639.25 17.8011 639.329 17.6103 639.47 17.4697C639.61 17.329 639.801 17.25 640 17.25C640.199 17.25 640.39 17.329 640.53 17.4697C640.671 17.6103 640.75 17.8011 640.75 18V32C640.747 32.1981 640.668 32.3874 640.527 32.5275C640.387 32.6676 640.198 32.7474 640 32.75V32.75Z" fill="white"/>
<path d="M648 32.75C647.901 32.7505 647.804 32.7312 647.713 32.6935C647.622 32.6557 647.539 32.6001 647.47 32.53L645 30C644.892 29.9483 644.797 29.8713 644.725 29.7757C644.653 29.68 644.604 29.5683 644.584 29.45C644.564 29.3318 644.572 29.2104 644.608 29.096C644.645 28.9817 644.708 28.8777 644.793 28.7929C644.878 28.708 644.982 28.6448 645.096 28.6084C645.21 28.5721 645.332 28.5637 645.45 28.584C645.568 28.6043 645.68 28.6527 645.776 28.7251C645.871 28.7974 645.948 28.8917 646 29L648 31L650 29C650.052 28.8917 650.129 28.7974 650.224 28.7251C650.32 28.6527 650.432 28.6043 650.55 28.584C650.668 28.5637 650.79 28.5721 650.904 28.6084C651.018 28.6448 651.122 28.708 651.207 28.7929C651.292 28.8777 651.355 28.9817 651.392 29.096C651.428 29.2104 651.436 29.3318 651.416 29.45C651.396 29.5683 651.347 29.68 651.275 29.7757C651.203 29.8713 651.108 29.9483 651 30L648.5 32.5C648.372 32.6455 648.193 32.7352 648 32.75Z" fill="white"/>
<path d="M648 32.75C647.802 32.7474 647.613 32.6676 647.473 32.5275C647.332 32.3874 647.253 32.1981 647.25 32V18C647.25 17.8011 647.329 17.6103 647.47 17.4697C647.61 17.329 647.801 17.25 648 17.25C648.199 17.25 648.39 17.329 648.53 17.4697C648.671 17.6103 648.75 17.8011 648.75 18V32C648.747 32.1981 648.668 32.3874 648.527 32.5275C648.387 32.6676 648.198 32.7474 648 32.75V32.75Z" fill="white"/>
<rect x="220" y="48.9796" width="48" height="47.0204" fill="white"/>
<rect x="220" y="48" width="48" height="0.979592" fill="#E7EDF9"/>
<rect x="220" y="95.0204" width="48" height="0.979591" fill="#E7EDF9"/>
<rect x="220" y="49" width="1" height="47" fill="#E7EDF9"/>
<rect x="267" y="49" width="1" height="47" fill="#E7EDF9"/>
<rect x="232.5" y="61.5" width="19" height="19" rx="3.5" fill="white" stroke="#9EA6B5"/>
<rect x="268" y="49" width="200" height="48" fill="white"/>
<rect x="268" y="96" width="200" height="1" fill="#E7EDF9"/>
<rect x="268" y="49" width="1" height="47" fill="#E7EDF9"/>
<path d="M287.408 78H288.656V65.904H287.408V71.6H287.376C286.688 70.8 285.776 70.32 284.688 70.32C282.336 70.32 280.752 71.984 280.752 74.256C280.752 76.496 282.4 78.192 284.496 78.192C285.84 78.192 286.912 77.52 287.376 76.672H287.408V78ZM287.408 74.256C287.408 75.824 286.368 77.04 284.752 77.04C283.136 77.04 282.096 75.824 282.096 74.256C282.096 72.688 283.136 71.472 284.752 71.472C286.368 71.472 287.408 72.688 287.408 74.256ZM291.653 72.288C292.245 71.744 293.077 71.472 293.877 71.472C295.045 71.472 295.733 72.032 295.733 73.12V73.344H295.253C293.413 73.344 290.533 73.488 290.533 75.968C290.533 77.424 291.797 78.192 293.317 78.192C294.453 78.192 295.285 77.648 295.781 76.88H295.813C295.813 77.2 295.813 77.664 295.893 78H297.093C297.029 77.616 296.981 77.136 296.981 76.704V73.488C296.981 71.376 296.053 70.32 293.845 70.32C292.757 70.32 291.637 70.688 290.869 71.472L291.653 72.288ZM295.733 74.4V74.88C295.701 76.096 294.965 77.136 293.525 77.136C292.581 77.136 291.877 76.784 291.877 75.84C291.877 74.832 292.901 74.4 294.485 74.4H295.733ZM303.358 70.512H301.15V68.384H299.902V70.512H298.27V71.568H299.902V75.68C299.902 77.232 300.19 78.192 301.966 78.192C302.43 78.192 302.99 78.112 303.422 77.92L303.374 76.784C303.038 76.96 302.638 77.04 302.27 77.04C301.166 77.04 301.15 76.272 301.15 75.312V71.568H303.358V70.512ZM305.575 72.288C306.167 71.744 306.999 71.472 307.799 71.472C308.967 71.472 309.655 72.032 309.655 73.12V73.344H309.175C307.335 73.344 304.455 73.488 304.455 75.968C304.455 77.424 305.719 78.192 307.239 78.192C308.375 78.192 309.207 77.648 309.703 76.88H309.735C309.735 77.2 309.735 77.664 309.815 78H311.015C310.951 77.616 310.903 77.136 310.903 76.704V73.488C310.903 71.376 309.975 70.32 307.767 70.32C306.679 70.32 305.559 70.688 304.791 71.472L305.575 72.288ZM309.655 74.4V74.88C309.623 76.096 308.887 77.136 307.447 77.136C306.503 77.136 305.799 76.784 305.799 75.84C305.799 74.832 306.823 74.4 308.407 74.4H309.655Z" fill="#333333"/>
<rect x="468" y="49" width="200" height="48" fill="white"/>
<rect x="468" y="96" width="200" height="1" fill="#E7EDF9"/>
<rect x="468" y="49" width="1" height="47" fill="#E7EDF9"/>
<path d="M487.408 78H488.656V65.904H487.408V71.6H487.376C486.688 70.8 485.776 70.32 484.688 70.32C482.336 70.32 480.752 71.984 480.752 74.256C480.752 76.496 482.4 78.192 484.496 78.192C485.84 78.192 486.912 77.52 487.376 76.672H487.408V78ZM487.408 74.256C487.408 75.824 486.368 77.04 484.752 77.04C483.136 77.04 482.096 75.824 482.096 74.256C482.096 72.688 483.136 71.472 484.752 71.472C486.368 71.472 487.408 72.688 487.408 74.256ZM491.653 72.288C492.245 71.744 493.077 71.472 493.877 71.472C495.045 71.472 495.733 72.032 495.733 73.12V73.344H495.253C493.413 73.344 490.533 73.488 490.533 75.968C490.533 77.424 491.797 78.192 493.317 78.192C494.453 78.192 495.285 77.648 495.781 76.88H495.813C495.813 77.2 495.813 77.664 495.893 78H497.093C497.029 77.616 496.981 77.136 496.981 76.704V73.488C496.981 71.376 496.053 70.32 493.845 70.32C492.757 70.32 491.637 70.688 490.869 71.472L491.653 72.288ZM495.733 74.4V74.88C495.701 76.096 494.965 77.136 493.525 77.136C492.581 77.136 491.877 76.784 491.877 75.84C491.877 74.832 492.901 74.4 494.485 74.4H495.733ZM503.358 70.512H501.15V68.384H499.902V70.512H498.27V71.568H499.902V75.68C499.902 77.232 500.19 78.192 501.966 78.192C502.43 78.192 502.99 78.112 503.422 77.92L503.374 76.784C503.038 76.96 502.638 77.04 502.27 77.04C501.166 77.04 501.15 76.272 501.15 75.312V71.568H503.358V70.512ZM505.575 72.288C506.167 71.744 506.999 71.472 507.799 71.472C508.967 71.472 509.655 72.032 509.655 73.12V73.344H509.175C507.335 73.344 504.455 73.488 504.455 75.968C504.455 77.424 505.719 78.192 507.239 78.192C508.375 78.192 509.207 77.648 509.703 76.88H509.735C509.735 77.2 509.735 77.664 509.815 78H511.015C510.951 77.616 510.903 77.136 510.903 76.704V73.488C510.903 71.376 509.975 70.32 507.767 70.32C506.679 70.32 505.559 70.688 504.791 71.472L505.575 72.288ZM509.655 74.4V74.88C509.623 76.096 508.887 77.136 507.447 77.136C506.503 77.136 505.799 76.784 505.799 75.84C505.799 74.832 506.823 74.4 508.407 74.4H509.655Z" fill="#333333"/>
<rect x="220" y="96.9796" width="48" height="47.0204" fill="white"/>
<rect x="220" y="96" width="48" height="0.979592" fill="#E7EDF9"/>
<rect x="220" y="143.02" width="48" height="0.979591" fill="#E7EDF9"/>
<rect x="220" y="97" width="1" height="47" fill="#E7EDF9"/>
<rect x="267" y="97" width="1" height="47" fill="#E7EDF9"/>
<rect x="232" y="109" width="20" height="20" rx="6" fill="#EDE9ED"/>
<path d="M236 109.5H248C249.933 109.5 251.5 111.067 251.5 113V125C251.5 126.933 249.933 128.5 248 128.5H236C234.067 128.5 232.5 126.933 232.5 125V113C232.5 111.067 234.067 109.5 236 109.5Z" stroke="#6C3078"/>
<path d="M240.076 123.773L236.176 119.873C235.941 119.638 235.941 119.259 236.176 119.024L237.024 118.176C237.259 117.941 237.638 117.941 237.873 118.176L240.5 120.803L246.127 115.176C246.362 114.941 246.741 114.941 246.976 115.176L247.824 116.024C248.059 116.259 248.059 116.638 247.824 116.873L240.924 123.773C240.69 124.007 240.31 124.007 240.076 123.773Z" fill="#6C3078"/>
<rect x="268" y="97" width="200" height="48" fill="white"/>
<rect x="268" y="144" width="200" height="1" fill="#E7EDF9"/>
<rect x="268" y="97" width="1" height="47" fill="#E7EDF9"/>
<path d="M287.408 126H288.656V113.904H287.408V119.6H287.376C286.688 118.8 285.776 118.32 284.688 118.32C282.336 118.32 280.752 119.984 280.752 122.256C280.752 124.496 282.4 126.192 284.496 126.192C285.84 126.192 286.912 125.52 287.376 124.672H287.408V126ZM287.408 122.256C287.408 123.824 286.368 125.04 284.752 125.04C283.136 125.04 282.096 123.824 282.096 122.256C282.096 120.688 283.136 119.472 284.752 119.472C286.368 119.472 287.408 120.688 287.408 122.256ZM291.653 120.288C292.245 119.744 293.077 119.472 293.877 119.472C295.045 119.472 295.733 120.032 295.733 121.12V121.344H295.253C293.413 121.344 290.533 121.488 290.533 123.968C290.533 125.424 291.797 126.192 293.317 126.192C294.453 126.192 295.285 125.648 295.781 124.88H295.813C295.813 125.2 295.813 125.664 295.893 126H297.093C297.029 125.616 296.981 125.136 296.981 124.704V121.488C296.981 119.376 296.053 118.32 293.845 118.32C292.757 118.32 291.637 118.688 290.869 119.472L291.653 120.288ZM295.733 122.4V122.88C295.701 124.096 294.965 125.136 293.525 125.136C292.581 125.136 291.877 124.784 291.877 123.84C291.877 122.832 292.901 122.4 294.485 122.4H295.733ZM303.358 118.512H301.15V116.384H299.902V118.512H298.27V119.568H299.902V123.68C299.902 125.232 300.19 126.192 301.966 126.192C302.43 126.192 302.99 126.112 303.422 125.92L303.374 124.784C303.038 124.96 302.638 125.04 302.27 125.04C301.166 125.04 301.15 124.272 301.15 123.312V119.568H303.358V118.512ZM305.575 120.288C306.167 119.744 306.999 119.472 307.799 119.472C308.967 119.472 309.655 120.032 309.655 121.12V121.344H309.175C307.335 121.344 304.455 121.488 304.455 123.968C304.455 125.424 305.719 126.192 307.239 126.192C308.375 126.192 309.207 125.648 309.703 124.88H309.735C309.735 125.2 309.735 125.664 309.815 126H311.015C310.951 125.616 310.903 125.136 310.903 124.704V121.488C310.903 119.376 309.975 118.32 307.767 118.32C306.679 118.32 305.559 118.688 304.791 119.472L305.575 120.288ZM309.655 122.4V122.88C309.623 124.096 308.887 125.136 307.447 125.136C306.503 125.136 305.799 124.784 305.799 123.84C305.799 122.832 306.823 122.4 308.407 122.4H309.655Z" fill="#333333"/>
<rect x="468" y="97" width="200" height="48" fill="white"/>
<rect x="468" y="144" width="200" height="1" fill="#E7EDF9"/>
<rect x="468" y="97" width="1" height="47" fill="#E7EDF9"/>
<path d="M487.408 126H488.656V113.904H487.408V119.6H487.376C486.688 118.8 485.776 118.32 484.688 118.32C482.336 118.32 480.752 119.984 480.752 122.256C480.752 124.496 482.4 126.192 484.496 126.192C485.84 126.192 486.912 125.52 487.376 124.672H487.408V126ZM487.408 122.256C487.408 123.824 486.368 125.04 484.752 125.04C483.136 125.04 482.096 123.824 482.096 122.256C482.096 120.688 483.136 119.472 484.752 119.472C486.368 119.472 487.408 120.688 487.408 122.256ZM491.653 120.288C492.245 119.744 493.077 119.472 493.877 119.472C495.045 119.472 495.733 120.032 495.733 121.12V121.344H495.253C493.413 121.344 490.533 121.488 490.533 123.968C490.533 125.424 491.797 126.192 493.317 126.192C494.453 126.192 495.285 125.648 495.781 124.88H495.813C495.813 125.2 495.813 125.664 495.893 126H497.093C497.029 125.616 496.981 125.136 496.981 124.704V121.488C496.981 119.376 496.053 118.32 493.845 118.32C492.757 118.32 491.637 118.688 490.869 119.472L491.653 120.288ZM495.733 122.4V122.88C495.701 124.096 494.965 125.136 493.525 125.136C492.581 125.136 491.877 124.784 491.877 123.84C491.877 122.832 492.901 122.4 494.485 122.4H495.733ZM503.358 118.512H501.15V116.384H499.902V118.512H498.27V119.568H499.902V123.68C499.902 125.232 500.19 126.192 501.966 126.192C502.43 126.192 502.99 126.112 503.422 125.92L503.374 124.784C503.038 124.96 502.638 125.04 502.27 125.04C501.166 125.04 501.15 124.272 501.15 123.312V119.568H503.358V118.512ZM505.575 120.288C506.167 119.744 506.999 119.472 507.799 119.472C508.967 119.472 509.655 120.032 509.655 121.12V121.344H509.175C507.335 121.344 504.455 121.488 504.455 123.968C504.455 125.424 505.719 126.192 507.239 126.192C508.375 126.192 509.207 125.648 509.703 124.88H509.735C509.735 125.2 509.735 125.664 509.815 126H511.015C510.951 125.616 510.903 125.136 510.903 124.704V121.488C510.903 119.376 509.975 118.32 507.767 118.32C506.679 118.32 505.559 118.688 504.791 119.472L505.575 120.288ZM509.655 122.4V122.88C509.623 124.096 508.887 125.136 507.447 125.136C506.503 125.136 505.799 124.784 505.799 123.84C505.799 122.832 506.823 122.4 508.407 122.4H509.655Z" fill="#333333"/>
<rect x="220" y="144.98" width="48" height="47.0204" fill="white"/>
<rect x="220" y="144" width="48" height="0.979592" fill="#E7EDF9"/>
<rect x="220" y="191.02" width="48" height="0.979591" fill="#E7EDF9"/>
<rect x="220" y="145" width="1" height="47" fill="#E7EDF9"/>
<rect x="267" y="145" width="1" height="47" fill="#E7EDF9"/>
<rect x="232.5" y="157.5" width="19" height="19" rx="3.5" fill="white" stroke="#9EA6B5"/>
<rect x="268" y="145" width="200" height="48" fill="white"/>
<rect x="268" y="192" width="200" height="1" fill="#E7EDF9"/>
<rect x="268" y="145" width="1" height="47" fill="#E7EDF9"/>
<path d="M287.408 174H288.656V161.904H287.408V167.6H287.376C286.688 166.8 285.776 166.32 284.688 166.32C282.336 166.32 280.752 167.984 280.752 170.256C280.752 172.496 282.4 174.192 284.496 174.192C285.84 174.192 286.912 173.52 287.376 172.672H287.408V174ZM287.408 170.256C287.408 171.824 286.368 173.04 284.752 173.04C283.136 173.04 282.096 171.824 282.096 170.256C282.096 168.688 283.136 167.472 284.752 167.472C286.368 167.472 287.408 168.688 287.408 170.256ZM291.653 168.288C292.245 167.744 293.077 167.472 293.877 167.472C295.045 167.472 295.733 168.032 295.733 169.12V169.344H295.253C293.413 169.344 290.533 169.488 290.533 171.968C290.533 173.424 291.797 174.192 293.317 174.192C294.453 174.192 295.285 173.648 295.781 172.88H295.813C295.813 173.2 295.813 173.664 295.893 174H297.093C297.029 173.616 296.981 173.136 296.981 172.704V169.488C296.981 167.376 296.053 166.32 293.845 166.32C292.757 166.32 291.637 166.688 290.869 167.472L291.653 168.288ZM295.733 170.4V170.88C295.701 172.096 294.965 173.136 293.525 173.136C292.581 173.136 291.877 172.784 291.877 171.84C291.877 170.832 292.901 170.4 294.485 170.4H295.733ZM303.358 166.512H301.15V164.384H299.902V166.512H298.27V167.568H299.902V171.68C299.902 173.232 300.19 174.192 301.966 174.192C302.43 174.192 302.99 174.112 303.422 173.92L303.374 172.784C303.038 172.96 302.638 173.04 302.27 173.04C301.166 173.04 301.15 172.272 301.15 171.312V167.568H303.358V166.512ZM305.575 168.288C306.167 167.744 306.999 167.472 307.799 167.472C308.967 167.472 309.655 168.032 309.655 169.12V169.344H309.175C307.335 169.344 304.455 169.488 304.455 171.968C304.455 173.424 305.719 174.192 307.239 174.192C308.375 174.192 309.207 173.648 309.703 172.88H309.735C309.735 173.2 309.735 173.664 309.815 174H311.015C310.951 173.616 310.903 173.136 310.903 172.704V169.488C310.903 167.376 309.975 166.32 307.767 166.32C306.679 166.32 305.559 166.688 304.791 167.472L305.575 168.288ZM309.655 170.4V170.88C309.623 172.096 308.887 173.136 307.447 173.136C306.503 173.136 305.799 172.784 305.799 171.84C305.799 170.832 306.823 170.4 308.407 170.4H309.655Z" fill="#333333"/>
<rect x="468" y="145" width="200" height="48" fill="white"/>
<rect x="468" y="192" width="200" height="1" fill="#E7EDF9"/>
<rect x="468" y="145" width="1" height="47" fill="#E7EDF9"/>
<path d="M487.408 174H488.656V161.904H487.408V167.6H487.376C486.688 166.8 485.776 166.32 484.688 166.32C482.336 166.32 480.752 167.984 480.752 170.256C480.752 172.496 482.4 174.192 484.496 174.192C485.84 174.192 486.912 173.52 487.376 172.672H487.408V174ZM487.408 170.256C487.408 171.824 486.368 173.04 484.752 173.04C483.136 173.04 482.096 171.824 482.096 170.256C482.096 168.688 483.136 167.472 484.752 167.472C486.368 167.472 487.408 168.688 487.408 170.256ZM491.653 168.288C492.245 167.744 493.077 167.472 493.877 167.472C495.045 167.472 495.733 168.032 495.733 169.12V169.344H495.253C493.413 169.344 490.533 169.488 490.533 171.968C490.533 173.424 491.797 174.192 493.317 174.192C494.453 174.192 495.285 173.648 495.781 172.88H495.813C495.813 173.2 495.813 173.664 495.893 174H497.093C497.029 173.616 496.981 173.136 496.981 172.704V169.488C496.981 167.376 496.053 166.32 493.845 166.32C492.757 166.32 491.637 166.688 490.869 167.472L491.653 168.288ZM495.733 170.4V170.88C495.701 172.096 494.965 173.136 493.525 173.136C492.581 173.136 491.877 172.784 491.877 171.84C491.877 170.832 492.901 170.4 494.485 170.4H495.733ZM503.358 166.512H501.15V164.384H499.902V166.512H498.27V167.568H499.902V171.68C499.902 173.232 500.19 174.192 501.966 174.192C502.43 174.192 502.99 174.112 503.422 173.92L503.374 172.784C503.038 172.96 502.638 173.04 502.27 173.04C501.166 173.04 501.15 172.272 501.15 171.312V167.568H503.358V166.512ZM505.575 168.288C506.167 167.744 506.999 167.472 507.799 167.472C508.967 167.472 509.655 168.032 509.655 169.12V169.344H509.175C507.335 169.344 504.455 169.488 504.455 171.968C504.455 173.424 505.719 174.192 507.239 174.192C508.375 174.192 509.207 173.648 509.703 172.88H509.735C509.735 173.2 509.735 173.664 509.815 174H511.015C510.951 173.616 510.903 173.136 510.903 172.704V169.488C510.903 167.376 509.975 166.32 507.767 166.32C506.679 166.32 505.559 166.688 504.791 167.472L505.575 168.288ZM509.655 170.4V170.88C509.623 172.096 508.887 173.136 507.447 173.136C506.503 173.136 505.799 172.784 505.799 171.84C505.799 170.832 506.823 170.4 508.407 170.4H509.655Z" fill="#333333"/>
<rect x="220" y="192.98" width="48" height="47.0204" fill="white"/>
<rect x="220" y="192" width="48" height="0.979592" fill="#E7EDF9"/>
<rect x="220" y="239.02" width="48" height="0.979591" fill="#E7EDF9"/>
<rect x="220" y="193" width="1" height="47" fill="#E7EDF9"/>
<rect x="267" y="193" width="1" height="47" fill="#E7EDF9"/>
<rect x="232" y="205" width="20" height="20" rx="6" fill="#EDE9ED"/>
<path d="M236 205.5H248C249.933 205.5 251.5 207.067 251.5 209V221C251.5 222.933 249.933 224.5 248 224.5H236C234.067 224.5 232.5 222.933 232.5 221V209C232.5 207.067 234.067 205.5 236 205.5Z" stroke="#6C3078"/>
<path d="M240.076 219.773L236.176 215.873C235.941 215.638 235.941 215.259 236.176 215.024L237.024 214.176C237.259 213.941 237.638 213.941 237.873 214.176L240.5 216.803L246.127 211.176C246.362 210.941 246.741 210.941 246.976 211.176L247.824 212.024C248.059 212.259 248.059 212.638 247.824 212.873L240.924 219.773C240.69 220.007 240.31 220.007 240.076 219.773Z" fill="#6C3078"/>
<rect x="268" y="193" width="200" height="48" fill="white"/>
<rect x="268" y="240" width="200" height="1" fill="#E7EDF9"/>
<rect x="268" y="193" width="1" height="47" fill="#E7EDF9"/>
<path d="M287.408 222H288.656V209.904H287.408V215.6H287.376C286.688 214.8 285.776 214.32 284.688 214.32C282.336 214.32 280.752 215.984 280.752 218.256C280.752 220.496 282.4 222.192 284.496 222.192C285.84 222.192 286.912 221.52 287.376 220.672H287.408V222ZM287.408 218.256C287.408 219.824 286.368 221.04 284.752 221.04C283.136 221.04 282.096 219.824 282.096 218.256C282.096 216.688 283.136 215.472 284.752 215.472C286.368 215.472 287.408 216.688 287.408 218.256ZM291.653 216.288C292.245 215.744 293.077 215.472 293.877 215.472C295.045 215.472 295.733 216.032 295.733 217.12V217.344H295.253C293.413 217.344 290.533 217.488 290.533 219.968C290.533 221.424 291.797 222.192 293.317 222.192C294.453 222.192 295.285 221.648 295.781 220.88H295.813C295.813 221.2 295.813 221.664 295.893 222H297.093C297.029 221.616 296.981 221.136 296.981 220.704V217.488C296.981 215.376 296.053 214.32 293.845 214.32C292.757 214.32 291.637 214.688 290.869 215.472L291.653 216.288ZM295.733 218.4V218.88C295.701 220.096 294.965 221.136 293.525 221.136C292.581 221.136 291.877 220.784 291.877 219.84C291.877 218.832 292.901 218.4 294.485 218.4H295.733ZM303.358 214.512H301.15V212.384H299.902V214.512H298.27V215.568H299.902V219.68C299.902 221.232 300.19 222.192 301.966 222.192C302.43 222.192 302.99 222.112 303.422 221.92L303.374 220.784C303.038 220.96 302.638 221.04 302.27 221.04C301.166 221.04 301.15 220.272 301.15 219.312V215.568H303.358V214.512ZM305.575 216.288C306.167 215.744 306.999 215.472 307.799 215.472C308.967 215.472 309.655 216.032 309.655 217.12V217.344H309.175C307.335 217.344 304.455 217.488 304.455 219.968C304.455 221.424 305.719 222.192 307.239 222.192C308.375 222.192 309.207 221.648 309.703 220.88H309.735C309.735 221.2 309.735 221.664 309.815 222H311.015C310.951 221.616 310.903 221.136 310.903 220.704V217.488C310.903 215.376 309.975 214.32 307.767 214.32C306.679 214.32 305.559 214.688 304.791 215.472L305.575 216.288ZM309.655 218.4V218.88C309.623 220.096 308.887 221.136 307.447 221.136C306.503 221.136 305.799 220.784 305.799 219.84C305.799 218.832 306.823 218.4 308.407 218.4H309.655Z" fill="#333333"/>
<rect x="468" y="193" width="200" height="48" fill="white"/>
<rect x="468" y="240" width="200" height="1" fill="#E7EDF9"/>
<rect x="468" y="193" width="1" height="47" fill="#E7EDF9"/>
<path d="M487.408 222H488.656V209.904H487.408V215.6H487.376C486.688 214.8 485.776 214.32 484.688 214.32C482.336 214.32 480.752 215.984 480.752 218.256C480.752 220.496 482.4 222.192 484.496 222.192C485.84 222.192 486.912 221.52 487.376 220.672H487.408V222ZM487.408 218.256C487.408 219.824 486.368 221.04 484.752 221.04C483.136 221.04 482.096 219.824 482.096 218.256C482.096 216.688 483.136 215.472 484.752 215.472C486.368 215.472 487.408 216.688 487.408 218.256ZM491.653 216.288C492.245 215.744 493.077 215.472 493.877 215.472C495.045 215.472 495.733 216.032 495.733 217.12V217.344H495.253C493.413 217.344 490.533 217.488 490.533 219.968C490.533 221.424 491.797 222.192 493.317 222.192C494.453 222.192 495.285 221.648 495.781 220.88H495.813C495.813 221.2 495.813 221.664 495.893 222H497.093C497.029 221.616 496.981 221.136 496.981 220.704V217.488C496.981 215.376 496.053 214.32 493.845 214.32C492.757 214.32 491.637 214.688 490.869 215.472L491.653 216.288ZM495.733 218.4V218.88C495.701 220.096 494.965 221.136 493.525 221.136C492.581 221.136 491.877 220.784 491.877 219.84C491.877 218.832 492.901 218.4 494.485 218.4H495.733ZM503.358 214.512H501.15V212.384H499.902V214.512H498.27V215.568H499.902V219.68C499.902 221.232 500.19 222.192 501.966 222.192C502.43 222.192 502.99 222.112 503.422 221.92L503.374 220.784C503.038 220.96 502.638 221.04 502.27 221.04C501.166 221.04 501.15 220.272 501.15 219.312V215.568H503.358V214.512ZM505.575 216.288C506.167 215.744 506.999 215.472 507.799 215.472C508.967 215.472 509.655 216.032 509.655 217.12V217.344H509.175C507.335 217.344 504.455 217.488 504.455 219.968C504.455 221.424 505.719 222.192 507.239 222.192C508.375 222.192 509.207 221.648 509.703 220.88H509.735C509.735 221.2 509.735 221.664 509.815 222H511.015C510.951 221.616 510.903 221.136 510.903 220.704V217.488C510.903 215.376 509.975 214.32 507.767 214.32C506.679 214.32 505.559 214.688 504.791 215.472L505.575 216.288ZM509.655 218.4V218.88C509.623 220.096 508.887 221.136 507.447 221.136C506.503 221.136 505.799 220.784 505.799 219.84C505.799 218.832 506.823 218.4 508.407 218.4H509.655Z" fill="#333333"/>
</svg>
