<svg width="715" height="231" viewBox="0 0 715 231" fill="none" xmlns="http://www.w3.org/2000/svg">
<rect width="715" height="231" fill="white"/>
<rect x="28" y="6" width="308" height="190" fill="white"/>
<rect x="80.5" y="76.5" width="19" height="19" rx="3.5" fill="white" stroke="#9EA6B5"/>
<path d="M109.2 90H113.552C115.776 90 119.104 88.512 119.104 84.336C119.104 80.16 115.776 78.672 113.552 78.672H109.2V90ZM110.544 79.92H113.104C115.696 79.92 117.664 81.232 117.664 84.336C117.664 87.44 115.696 88.752 113.104 88.752H110.544V79.92ZM121.731 84.288C122.323 83.744 123.155 83.472 123.955 83.472C125.123 83.472 125.811 84.032 125.811 85.12V85.344H125.331C123.491 85.344 120.611 85.488 120.611 87.968C120.611 89.424 121.875 90.192 123.395 90.192C124.531 90.192 125.363 89.648 125.859 88.88H125.891C125.891 89.2 125.891 89.664 125.971 90H127.171C127.107 89.616 127.059 89.136 127.059 88.704V85.488C127.059 83.376 126.131 82.32 123.923 82.32C122.835 82.32 121.715 82.688 120.947 83.472L121.731 84.288ZM125.811 86.4V86.88C125.779 88.096 125.043 89.136 123.603 89.136C122.659 89.136 121.955 88.784 121.955 87.84C121.955 86.832 122.979 86.4 124.563 86.4H125.811ZM129.452 90H130.7V82.512H129.452V90ZM129.164 79.584C129.164 80.112 129.548 80.496 130.076 80.496C130.604 80.496 130.988 80.112 130.988 79.584C130.988 79.088 130.588 78.672 130.076 78.672C129.564 78.672 129.164 79.088 129.164 79.584ZM133.296 90H134.544V77.904H133.296V90ZM143.396 82.512H142.036L139.812 88.384H139.78L137.46 82.512H136.004L139.108 90.048L138.596 91.456C138.324 92.192 138.02 92.688 137.204 92.688C136.852 92.688 136.58 92.656 136.324 92.56L136.164 93.648C136.5 93.808 136.932 93.84 137.284 93.84C138.788 93.84 139.284 92.976 139.78 91.712L143.396 82.512Z" fill="#333333"/>
<rect x="64" y="44" width="20" height="20" rx="6" fill="#EDE9ED"/>
<path d="M68 44.5H80C81.933 44.5 83.5 46.067 83.5 48V60C83.5 61.933 81.933 63.5 80 63.5H68C66.067 63.5 64.5 61.933 64.5 60V48C64.5 46.067 66.067 44.5 68 44.5Z" stroke="#6C3078"/>
<path d="M68 53.5C68 53.2239 68.2239 53 68.5 53H79.5C79.7761 53 80 53.2239 80 53.5V54.5C80 54.7761 79.7761 55 79.5 55H68.5C68.2239 55 68 54.7761 68 54.5V53.5Z" fill="#6C3078"/>
<path d="M93.408 58H100.816V56.752H94.752V52.72H100.144V51.472H94.752V47.92H100.528V46.672H93.408V58ZM102.668 58H103.916V54.352C103.916 52.64 104.62 51.472 106.236 51.472C107.26 51.472 107.676 52.112 107.676 53.76V58H108.924V53.68C108.924 52.336 109.804 51.472 110.86 51.472C112.316 51.472 112.684 52.48 112.684 53.52V58H113.932V53.456C113.932 51.52 113.228 50.32 111.084 50.32C109.948 50.32 109.26 50.864 108.716 51.744C108.476 51.232 107.964 50.32 106.348 50.32C105.116 50.32 104.188 51.008 103.852 51.744H103.82C103.82 51.328 103.788 50.912 103.788 50.512H102.604C102.604 51.008 102.668 51.6 102.668 52.288V58ZM116.981 52.288C117.573 51.744 118.405 51.472 119.205 51.472C120.373 51.472 121.061 52.032 121.061 53.12V53.344H120.581C118.741 53.344 115.861 53.488 115.861 55.968C115.861 57.424 117.125 58.192 118.645 58.192C119.781 58.192 120.613 57.648 121.109 56.88H121.141C121.141 57.2 121.141 57.664 121.221 58H122.421C122.357 57.616 122.309 57.136 122.309 56.704V53.488C122.309 51.376 121.381 50.32 119.173 50.32C118.085 50.32 116.965 50.688 116.197 51.472L116.981 52.288ZM121.061 54.4V54.88C121.029 56.096 120.293 57.136 118.853 57.136C117.909 57.136 117.205 56.784 117.205 55.84C117.205 54.832 118.229 54.4 119.813 54.4H121.061ZM124.702 58H125.95V50.512H124.702V58ZM124.414 47.584C124.414 48.112 124.798 48.496 125.326 48.496C125.854 48.496 126.238 48.112 126.238 47.584C126.238 47.088 125.838 46.672 125.326 46.672C124.814 46.672 124.414 47.088 124.414 47.584ZM128.546 58H129.794V45.904H128.546V58ZM137.371 58H138.619V51.568H140.443V50.512H138.619V49.104C138.619 47.808 138.667 46.864 139.963 46.864C140.251 46.864 140.539 46.928 140.811 47.024L140.987 45.904C140.747 45.776 140.347 45.712 140.027 45.712C138.011 45.712 137.371 47.008 137.371 48.832V50.512H135.739V51.568H137.371V58ZM141.778 58H143.026V54.352C143.026 52.64 143.698 51.568 145.218 51.568C145.442 51.568 145.682 51.6 145.89 51.664L145.97 50.4C145.794 50.336 145.618 50.32 145.458 50.32C144.226 50.32 143.298 51.008 142.962 51.744H142.93C142.93 51.328 142.898 50.912 142.898 50.512H141.714C141.714 51.008 141.778 51.6 141.778 52.288V58ZM152.866 55.904C152.274 56.656 151.554 57.04 150.482 57.04C149.122 57.04 148.13 55.936 148.034 54.64H154.082V54.24C154.082 51.76 152.642 50.32 150.53 50.32C148.322 50.32 146.69 51.936 146.69 54.256C146.69 56.432 148.13 58.192 150.482 58.192C151.874 58.192 152.93 57.776 153.81 56.64L152.866 55.904ZM148.034 53.584C148.194 52.32 149.106 51.472 150.482 51.472C151.858 51.472 152.69 52.32 152.738 53.584H148.034ZM163.484 50.512H162.236V51.84H162.204C161.74 50.992 160.668 50.32 159.324 50.32C157.228 50.32 155.58 52.016 155.58 54.256C155.58 56.528 157.164 58.192 159.516 58.192C160.604 58.192 161.516 57.712 162.204 56.912H162.236V61.648H163.484V50.512ZM162.236 54.256C162.236 55.824 161.196 57.04 159.58 57.04C157.964 57.04 156.924 55.824 156.924 54.256C156.924 52.688 157.964 51.472 159.58 51.472C161.196 51.472 162.236 52.688 162.236 54.256ZM172.321 50.512H171.073V54.16C171.073 55.872 170.369 57.04 168.753 57.04C167.585 57.04 167.041 56.256 167.041 55.008V50.512H165.793V55.136C165.793 56.944 166.673 58.192 168.641 58.192C169.873 58.192 170.801 57.504 171.137 56.768H171.169C171.169 57.184 171.201 57.6 171.201 58H172.385C172.385 57.504 172.321 56.912 172.321 56.224V50.512ZM180.428 55.904C179.836 56.656 179.116 57.04 178.044 57.04C176.684 57.04 175.692 55.936 175.596 54.64H181.644V54.24C181.644 51.76 180.204 50.32 178.092 50.32C175.884 50.32 174.252 51.936 174.252 54.256C174.252 56.432 175.692 58.192 178.044 58.192C179.436 58.192 180.492 57.776 181.372 56.64L180.428 55.904ZM175.596 53.584C175.756 52.32 176.668 51.472 178.044 51.472C179.42 51.472 180.252 52.32 180.3 53.584H175.596ZM183.575 58H184.823V54.352C184.823 52.64 185.527 51.472 187.143 51.472C188.311 51.472 188.855 52.256 188.855 53.504V58H190.103V53.376C190.103 51.568 189.223 50.32 187.255 50.32C186.023 50.32 185.095 51.008 184.759 51.744H184.727C184.727 51.328 184.695 50.912 184.695 50.512H183.511C183.511 51.008 183.575 51.6 183.575 52.288V58ZM198.785 51.504C198.033 50.688 197.009 50.32 195.905 50.32C193.601 50.32 192.033 51.984 192.033 54.256C192.033 56.56 193.585 58.192 195.905 58.192C196.993 58.192 198.017 57.824 198.737 56.992L197.809 56.112C197.345 56.752 196.721 57.04 195.905 57.04C194.385 57.04 193.377 55.792 193.377 54.256C193.377 52.72 194.225 51.472 195.905 51.472C196.657 51.472 197.265 51.744 197.793 52.384L198.785 51.504ZM206.552 50.512H205.192L202.968 56.384H202.936L200.616 50.512H199.16L202.264 58.048L201.752 59.456C201.48 60.192 201.176 60.688 200.36 60.688C200.008 60.688 199.736 60.656 199.48 60.56L199.32 61.648C199.656 61.808 200.088 61.84 200.44 61.84C201.944 61.84 202.44 60.976 202.936 59.712L206.552 50.512Z" fill="#333333"/>
<rect x="80" y="108" width="20" height="20" rx="6" fill="#EDE9ED"/>
<path d="M84 108.5H96C97.933 108.5 99.5 110.067 99.5 112V124C99.5 125.933 97.933 127.5 96 127.5H84C82.067 127.5 80.5 125.933 80.5 124V112C80.5 110.067 82.067 108.5 84 108.5Z" stroke="#6C3078"/>
<path d="M88.0757 122.773L84.1757 118.873C83.9414 118.638 83.9414 118.259 84.1757 118.024L85.0242 117.176C85.2585 116.941 85.6385 116.941 85.8728 117.176L88.5 119.803L94.1272 114.176C94.3615 113.941 94.7415 113.941 94.9758 114.176L95.8243 115.024C96.0586 115.259 96.0586 115.638 95.8243 115.873L88.9243 122.773C88.6899 123.007 88.31 123.007 88.0757 122.773Z" fill="#6C3078"/>
<path d="M111.408 122H112.88L115.696 112.4H115.728L118.528 122H119.984L123.312 110.672H121.904L119.28 120.08H119.248L116.48 110.672H114.976L112.192 120.08H112.16L109.584 110.672H108.096L111.408 122ZM129.584 119.904C128.992 120.656 128.272 121.04 127.2 121.04C125.84 121.04 124.848 119.936 124.752 118.64H130.8V118.24C130.8 115.76 129.36 114.32 127.248 114.32C125.04 114.32 123.408 115.936 123.408 118.256C123.408 120.432 124.848 122.192 127.2 122.192C128.592 122.192 129.648 121.776 130.528 120.64L129.584 119.904ZM124.752 117.584C124.912 116.32 125.824 115.472 127.2 115.472C128.576 115.472 129.408 116.32 129.456 117.584H124.752ZM138.475 119.904C137.883 120.656 137.163 121.04 136.091 121.04C134.731 121.04 133.739 119.936 133.643 118.64H139.691V118.24C139.691 115.76 138.251 114.32 136.139 114.32C133.931 114.32 132.299 115.936 132.299 118.256C132.299 120.432 133.739 122.192 136.091 122.192C137.483 122.192 138.539 121.776 139.419 120.64L138.475 119.904ZM133.643 117.584C133.803 116.32 134.715 115.472 136.091 115.472C137.467 115.472 138.299 116.32 138.347 117.584H133.643ZM141.622 122H142.87V118.064L146.582 122H148.422L144.438 117.92L148.054 114.512H146.278L142.87 117.808V109.904H141.622V122ZM149.734 122H150.982V109.904H149.734V122ZM159.833 114.512H158.473L156.249 120.384H156.217L153.897 114.512H152.441L155.545 122.048L155.033 123.456C154.761 124.192 154.457 124.688 153.641 124.688C153.289 124.688 153.017 124.656 152.761 124.56L152.601 125.648C152.937 125.808 153.369 125.84 153.721 125.84C155.225 125.84 155.721 124.976 156.217 123.712L159.833 114.512Z" fill="#333333"/>
<rect x="80" y="140" width="20" height="20" rx="6" fill="#EDE9ED"/>
<path d="M84 140.5H96C97.933 140.5 99.5 142.067 99.5 144V156C99.5 157.933 97.933 159.5 96 159.5H84C82.067 159.5 80.5 157.933 80.5 156V144C80.5 142.067 82.067 140.5 84 140.5Z" stroke="#6C3078"/>
<path d="M88.0757 154.773L84.1757 150.873C83.9414 150.638 83.9414 150.259 84.1757 150.024L85.0242 149.176C85.2585 148.941 85.6385 148.941 85.8728 149.176L88.5 151.803L94.1272 146.176C94.3615 145.941 94.7415 145.941 94.9758 146.176L95.8243 147.024C96.0586 147.259 96.0586 147.638 95.8243 147.873L88.9243 154.773C88.6899 155.007 88.31 155.007 88.0757 154.773Z" fill="#6C3078"/>
<path d="M109.408 154H110.752V144.496H110.784L114.848 154H115.664L119.728 144.496H119.76V154H121.104V142.672H119.152L115.28 151.552H115.248L111.408 142.672H109.408V154ZM123.268 150.256C123.268 152.592 124.964 154.192 127.268 154.192C129.572 154.192 131.268 152.592 131.268 150.256C131.268 147.92 129.572 146.32 127.268 146.32C124.964 146.32 123.268 147.92 123.268 150.256ZM124.612 150.256C124.612 148.688 125.652 147.472 127.268 147.472C128.884 147.472 129.924 148.688 129.924 150.256C129.924 151.824 128.884 153.04 127.268 153.04C125.652 153.04 124.612 151.824 124.612 150.256ZM133.2 154H134.448V150.352C134.448 148.64 135.152 147.472 136.768 147.472C137.936 147.472 138.48 148.256 138.48 149.504V154H139.728V149.376C139.728 147.568 138.848 146.32 136.88 146.32C135.648 146.32 134.72 147.008 134.384 147.744H134.352C134.352 147.328 134.32 146.912 134.32 146.512H133.136C133.136 147.008 133.2 147.6 133.2 148.288V154ZM146.186 146.512H143.978V144.384H142.73V146.512H141.098V147.568H142.73V151.68C142.73 153.232 143.018 154.192 144.794 154.192C145.258 154.192 145.818 154.112 146.25 153.92L146.202 152.784C145.866 152.96 145.466 153.04 145.098 153.04C143.994 153.04 143.978 152.272 143.978 151.312V147.568H146.186V146.512ZM147.715 154H148.963V150.352C148.963 148.64 149.667 147.472 151.283 147.472C152.451 147.472 152.995 148.256 152.995 149.504V154H154.243V149.376C154.243 147.568 153.363 146.32 151.395 146.32C150.227 146.32 149.331 146.96 148.995 147.552H148.963V141.904H147.715V154ZM156.718 154H157.966V141.904H156.718V154ZM166.818 146.512H165.458L163.234 152.384H163.202L160.882 146.512H159.426L162.53 154.048L162.018 155.456C161.746 156.192 161.442 156.688 160.626 156.688C160.274 156.688 160.002 156.656 159.746 156.56L159.586 157.648C159.922 157.808 160.354 157.84 160.706 157.84C162.21 157.84 162.706 156.976 163.202 155.712L166.818 146.512Z" fill="#333333"/>
<rect x="311" y="15" width="16" height="16" rx="8" fill="#467822"/>
<path d="M318 25.1668C317.871 25.157 317.752 25.0972 317.667 25.0002L315.667 23.0002C315.622 22.9068 315.608 22.802 315.625 22.7001C315.643 22.5982 315.691 22.5042 315.764 22.4311C315.837 22.358 315.931 22.3094 316.033 22.2919C316.135 22.2744 316.24 22.2889 316.333 22.3335L317.98 23.9802L323.667 18.3335C323.76 18.2889 323.865 18.2744 323.967 18.2919C324.069 18.3094 324.163 18.358 324.236 18.4311C324.309 18.5042 324.357 18.5982 324.375 18.7001C324.392 18.802 324.378 18.9068 324.333 19.0002L318.333 25.0002C318.248 25.0972 318.129 25.157 318 25.1668V25.1668Z" fill="white"/>
<path d="M319 29.0001C317.928 28.9983 316.875 28.7092 315.953 28.1629C315.03 27.6165 314.27 26.8328 313.753 25.8934C313.36 25.1934 313.117 24.4192 313.04 23.6201C312.918 22.4481 313.144 21.2662 313.689 20.2217C314.234 19.1772 315.075 18.3164 316.107 17.7467C316.807 17.3536 317.581 17.1107 318.38 17.0334C319.176 16.9478 319.981 17.0249 320.747 17.2601C320.815 17.2737 320.88 17.3015 320.937 17.3416C320.994 17.3817 321.042 17.4333 321.077 17.493C321.113 17.5527 321.136 17.6192 321.145 17.6884C321.153 17.7575 321.148 17.8276 321.128 17.8943C321.107 17.9611 321.074 18.0228 321.028 18.0757C320.983 18.1286 320.927 18.1715 320.864 18.2015C320.801 18.2315 320.733 18.2481 320.663 18.2502C320.594 18.2522 320.525 18.2397 320.46 18.2134C319.812 18.0187 319.132 17.9552 318.46 18.0267C317.795 18.0948 317.151 18.2966 316.567 18.6201C316.003 18.9308 315.505 19.3473 315.1 19.8467C314.683 20.3555 314.371 20.9424 314.183 21.5732C313.995 22.204 313.935 22.8658 314.007 23.5201C314.075 24.1847 314.277 24.8288 314.6 25.4134C314.911 25.9766 315.327 26.4746 315.827 26.8801C316.335 27.2975 316.922 27.6092 317.553 27.7969C318.184 27.9847 318.846 28.0447 319.5 27.9734C320.165 27.9053 320.809 27.7035 321.393 27.3801C321.957 27.0693 322.455 26.6528 322.86 26.1534C323.277 25.6446 323.589 25.0577 323.777 24.4269C323.965 23.7962 324.025 23.1343 323.953 22.4801C323.947 22.4113 323.954 22.342 323.974 22.276C323.994 22.21 324.027 22.1486 324.071 22.0954C324.115 22.0421 324.169 21.9981 324.23 21.9657C324.291 21.9333 324.358 21.9133 324.427 21.9067C324.495 21.9002 324.565 21.9072 324.631 21.9274C324.697 21.9477 324.758 21.9807 324.811 22.0247C324.865 22.0686 324.909 22.1226 324.941 22.1836C324.973 22.2446 324.993 22.3113 325 22.3801C325.121 23.5527 324.895 24.7351 324.348 25.7797C323.801 26.8242 322.959 27.6846 321.927 28.2534C321.219 28.6626 320.433 28.917 319.62 29.0001C319.413 29.0001 319.2 29.0001 319 29.0001Z" fill="white"/>
<rect x="28" y="6" width="308" height="190" stroke="#E6E6E6" stroke-width="8"/>
<rect x="381" y="6" width="308" height="190" fill="white"/>
<rect x="417.5" y="49.5" width="47" height="23" rx="11.5" fill="#EDE9ED"/>
<g filter="url(#filter0_dd_143_27153)">
<path fill-rule="evenodd" clip-rule="evenodd" d="M453 70C457.971 70 462 65.9706 462 61C462 56.0294 457.971 52 453 52C448.029 52 444 56.0294 444 61C444 65.9706 448.029 70 453 70Z" fill="#6C3078"/>
</g>
<rect x="417.5" y="49.5" width="47" height="23" rx="11.5" stroke="#6C3078"/>
<path d="M474.2 65H478.552C480.776 65 484.104 63.512 484.104 59.336C484.104 55.16 480.776 53.672 478.552 53.672H474.2V65ZM475.544 54.92H478.104C480.696 54.92 482.664 56.232 482.664 59.336C482.664 62.44 480.696 63.752 478.104 63.752H475.544V54.92ZM486.731 59.288C487.323 58.744 488.155 58.472 488.955 58.472C490.123 58.472 490.811 59.032 490.811 60.12V60.344H490.331C488.491 60.344 485.611 60.488 485.611 62.968C485.611 64.424 486.875 65.192 488.395 65.192C489.531 65.192 490.363 64.648 490.859 63.88H490.891C490.891 64.2 490.891 64.664 490.971 65H492.171C492.107 64.616 492.059 64.136 492.059 63.704V60.488C492.059 58.376 491.131 57.32 488.923 57.32C487.835 57.32 486.715 57.688 485.947 58.472L486.731 59.288ZM490.811 61.4V61.88C490.779 63.096 490.043 64.136 488.603 64.136C487.659 64.136 486.955 63.784 486.955 62.84C486.955 61.832 487.979 61.4 489.563 61.4H490.811ZM494.452 65H495.7V57.512H494.452V65ZM494.164 54.584C494.164 55.112 494.548 55.496 495.076 55.496C495.604 55.496 495.988 55.112 495.988 54.584C495.988 54.088 495.588 53.672 495.076 53.672C494.564 53.672 494.164 54.088 494.164 54.584ZM498.296 65H499.544V52.904H498.296V65ZM508.396 57.512H507.036L504.812 63.384H504.78L502.46 57.512H501.004L504.108 65.048L503.596 66.456C503.324 67.192 503.02 67.688 502.204 67.688C501.852 67.688 501.58 67.656 501.324 67.56L501.164 68.648C501.5 68.808 501.932 68.84 502.284 68.84C503.788 68.84 504.284 67.976 504.78 66.712L508.396 57.512Z" fill="#333333"/>
<rect x="417.5" y="89.5" width="47" height="23" rx="11.5" fill="#EDE9ED"/>
<g filter="url(#filter1_dd_143_27153)">
<path fill-rule="evenodd" clip-rule="evenodd" d="M453 110C457.971 110 462 105.971 462 101C462 96.0294 457.971 92 453 92C448.029 92 444 96.0294 444 101C444 105.971 448.029 110 453 110Z" fill="#6C3078"/>
</g>
<rect x="417.5" y="89.5" width="47" height="23" rx="11.5" stroke="#6C3078"/>
<path d="M476.408 105H477.88L480.696 95.4H480.728L483.528 105H484.984L488.312 93.672H486.904L484.28 103.08H484.248L481.48 93.672H479.976L477.192 103.08H477.16L474.584 93.672H473.096L476.408 105ZM494.584 102.904C493.992 103.656 493.272 104.04 492.2 104.04C490.84 104.04 489.848 102.936 489.752 101.64H495.8V101.24C495.8 98.76 494.36 97.32 492.248 97.32C490.04 97.32 488.408 98.936 488.408 101.256C488.408 103.432 489.848 105.192 492.2 105.192C493.592 105.192 494.648 104.776 495.528 103.64L494.584 102.904ZM489.752 100.584C489.912 99.32 490.824 98.472 492.2 98.472C493.576 98.472 494.408 99.32 494.456 100.584H489.752ZM503.475 102.904C502.883 103.656 502.163 104.04 501.091 104.04C499.731 104.04 498.739 102.936 498.643 101.64H504.691V101.24C504.691 98.76 503.251 97.32 501.139 97.32C498.931 97.32 497.299 98.936 497.299 101.256C497.299 103.432 498.739 105.192 501.091 105.192C502.483 105.192 503.539 104.776 504.419 103.64L503.475 102.904ZM498.643 100.584C498.803 99.32 499.715 98.472 501.091 98.472C502.467 98.472 503.299 99.32 503.347 100.584H498.643ZM506.622 105H507.87V101.064L511.582 105H513.422L509.438 100.92L513.054 97.512H511.278L507.87 100.808V92.904H506.622V105ZM514.734 105H515.982V92.904H514.734V105ZM524.833 97.512H523.473L521.249 103.384H521.217L518.897 97.512H517.441L520.545 105.048L520.033 106.456C519.761 107.192 519.457 107.688 518.641 107.688C518.289 107.688 518.017 107.656 517.761 107.56L517.601 108.648C517.937 108.808 518.369 108.84 518.721 108.84C520.225 108.84 520.721 107.976 521.217 106.712L524.833 97.512Z" fill="#333333"/>
<rect x="417.5" y="129.5" width="47" height="23" rx="11.5" fill="#EDE9ED"/>
<g filter="url(#filter2_dd_143_27153)">
<path fill-rule="evenodd" clip-rule="evenodd" d="M453 150C457.971 150 462 145.971 462 141C462 136.029 457.971 132 453 132C448.029 132 444 136.029 444 141C444 145.971 448.029 150 453 150Z" fill="#6C3078"/>
</g>
<rect x="417.5" y="129.5" width="47" height="23" rx="11.5" stroke="#6C3078"/>
<path d="M474.408 145H475.752V135.496H475.784L479.848 145H480.664L484.728 135.496H484.76V145H486.104V133.672H484.152L480.28 142.552H480.248L476.408 133.672H474.408V145ZM488.268 141.256C488.268 143.592 489.964 145.192 492.268 145.192C494.572 145.192 496.268 143.592 496.268 141.256C496.268 138.92 494.572 137.32 492.268 137.32C489.964 137.32 488.268 138.92 488.268 141.256ZM489.612 141.256C489.612 139.688 490.652 138.472 492.268 138.472C493.884 138.472 494.924 139.688 494.924 141.256C494.924 142.824 493.884 144.04 492.268 144.04C490.652 144.04 489.612 142.824 489.612 141.256ZM498.2 145H499.448V141.352C499.448 139.64 500.152 138.472 501.768 138.472C502.936 138.472 503.48 139.256 503.48 140.504V145H504.728V140.376C504.728 138.568 503.848 137.32 501.88 137.32C500.648 137.32 499.72 138.008 499.384 138.744H499.352C499.352 138.328 499.32 137.912 499.32 137.512H498.136C498.136 138.008 498.2 138.6 498.2 139.288V145ZM511.186 137.512H508.978V135.384H507.73V137.512H506.098V138.568H507.73V142.68C507.73 144.232 508.018 145.192 509.794 145.192C510.258 145.192 510.818 145.112 511.25 144.92L511.202 143.784C510.866 143.96 510.466 144.04 510.098 144.04C508.994 144.04 508.978 143.272 508.978 142.312V138.568H511.186V137.512ZM512.715 145H513.963V141.352C513.963 139.64 514.667 138.472 516.283 138.472C517.451 138.472 517.995 139.256 517.995 140.504V145H519.243V140.376C519.243 138.568 518.363 137.32 516.395 137.32C515.227 137.32 514.331 137.96 513.995 138.552H513.963V132.904H512.715V145ZM521.718 145H522.966V132.904H521.718V145ZM531.818 137.512H530.458L528.234 143.384H528.202L525.882 137.512H524.426L527.53 145.048L527.018 146.456C526.746 147.192 526.442 147.688 525.626 147.688C525.274 147.688 525.002 147.656 524.746 147.56L524.586 148.648C524.922 148.808 525.354 148.84 525.706 148.84C527.21 148.84 527.706 147.976 528.202 146.712L531.818 137.512Z" fill="#333333"/>
<rect x="662" y="15" width="16" height="16" rx="8" fill="#DB3259"/>
<path d="M670.707 23L673.653 20.0533C673.702 20.0075 673.742 19.9523 673.769 19.891C673.797 19.8297 673.811 19.7635 673.812 19.6963C673.814 19.6292 673.801 19.5625 673.776 19.5002C673.751 19.438 673.714 19.3814 673.666 19.3339C673.619 19.2865 673.562 19.249 673.5 19.2239C673.437 19.1987 673.371 19.1864 673.304 19.1876C673.237 19.1888 673.17 19.2035 673.109 19.2308C673.048 19.2581 672.992 19.2975 672.947 19.3466L670 22.2933L667.053 19.3466C666.959 19.2583 666.833 19.2102 666.704 19.2125C666.574 19.2148 666.451 19.2673 666.359 19.3589C666.267 19.4505 666.215 19.5741 666.213 19.7036C666.21 19.8332 666.258 19.9585 666.347 20.0533L669.293 23L666.347 25.9466C666.253 26.0404 666.2 26.1675 666.2 26.3C666.2 26.4325 666.253 26.5596 666.347 26.6533C666.44 26.7469 666.567 26.7995 666.7 26.7995C666.832 26.7995 666.96 26.7469 667.053 26.6533L670 23.7066L672.947 26.6533C673.04 26.7469 673.167 26.7995 673.3 26.7995C673.433 26.7995 673.56 26.7469 673.653 26.6533C673.747 26.5596 673.8 26.4325 673.8 26.3C673.8 26.1675 673.747 26.0404 673.653 25.9466L670.707 23Z" fill="white"/>
<rect x="381" y="6" width="308" height="190" stroke="#E6E6E6" stroke-width="8"/>
<path d="M34.264 223H38.488C41.208 223 44.488 221.208 44.488 217.336C44.488 213.496 41.704 211.672 38.728 211.672H34.264V223ZM36.28 221.176V213.496H38.12C40.584 213.496 42.376 214.584 42.376 217.336C42.376 220.088 40.312 221.176 37.784 221.176H36.28ZM45.8446 219.16C45.8446 221.576 47.7006 223.192 50.0206 223.192C52.3406 223.192 54.1966 221.576 54.1966 219.16C54.1966 216.744 52.3406 215.128 50.0206 215.128C47.7006 215.128 45.8446 216.744 45.8446 219.16ZM47.7646 219.16C47.7646 217.96 48.6126 216.856 50.0206 216.856C51.4286 216.856 52.2766 217.96 52.2766 219.16C52.2766 220.36 51.4286 221.464 50.0206 221.464C48.6126 221.464 47.7646 220.36 47.7646 219.16ZM55.9943 221.88C55.9943 222.568 56.6023 223.096 57.2743 223.096C57.9783 223.096 58.5543 222.536 58.5543 221.848C58.5543 221.16 57.9623 220.632 57.2743 220.632C56.5703 220.632 55.9943 221.192 55.9943 221.88ZM55.9943 216.456C55.9943 217.144 56.6023 217.672 57.2743 217.672C57.9783 217.672 58.5543 217.112 58.5543 216.424C58.5543 215.736 57.9623 215.208 57.2743 215.208C56.5703 215.208 55.9943 215.768 55.9943 216.456Z" fill="#333333"/>
<path d="M386.264 223H390.488C393.208 223 396.488 221.208 396.488 217.336C396.488 213.496 393.704 211.672 390.728 211.672H386.264V223ZM388.28 221.176V213.496H390.12C392.584 213.496 394.376 214.584 394.376 217.336C394.376 220.088 392.312 221.176 389.784 221.176H388.28ZM397.845 219.16C397.845 221.576 399.701 223.192 402.021 223.192C404.341 223.192 406.197 221.576 406.197 219.16C406.197 216.744 404.341 215.128 402.021 215.128C399.701 215.128 397.845 216.744 397.845 219.16ZM399.765 219.16C399.765 217.96 400.613 216.856 402.021 216.856C403.429 216.856 404.277 217.96 404.277 219.16C404.277 220.36 403.429 221.464 402.021 221.464C400.613 221.464 399.765 220.36 399.765 219.16ZM407.994 223H409.914V218.808C409.914 217.784 410.41 216.856 411.674 216.856C413.018 216.856 413.082 218.264 413.082 219.112V223H415.002V218.152C415.002 216.584 414.266 215.128 412.202 215.128C410.922 215.128 410.202 215.784 409.85 216.552H409.818V215.32H407.994V223ZM416.926 215.896H418.638L419.998 211.672H418.046L416.926 215.896ZM422.323 216.952V220.472C422.323 222.28 422.803 223.192 424.835 223.192C425.283 223.192 425.955 223.128 426.355 222.936V221.32C426.115 221.496 425.651 221.56 425.315 221.56C424.467 221.56 424.243 221.08 424.243 220.312V216.952H426.355V215.32H424.243V213.096H422.323V215.32H420.739V216.952H422.323ZM427.854 221.88C427.854 222.568 428.462 223.096 429.134 223.096C429.838 223.096 430.414 222.536 430.414 221.848C430.414 221.16 429.822 220.632 429.134 220.632C428.43 220.632 427.854 221.192 427.854 221.88ZM427.854 216.456C427.854 217.144 428.462 217.672 429.134 217.672C429.838 217.672 430.414 217.112 430.414 216.424C430.414 215.736 429.822 215.208 429.134 215.208C428.43 215.208 427.854 215.768 427.854 216.456Z" fill="#333333"/>
<path d="M75.712 215.512H74.464V219.16C74.464 220.872 73.76 222.04 72.144 222.04C70.976 222.04 70.432 221.256 70.432 220.008V215.512H69.184V220.136C69.184 221.944 70.064 223.192 72.032 223.192C73.264 223.192 74.192 222.504 74.528 221.768H74.56C74.56 222.184 74.592 222.6 74.592 223H75.776C75.776 222.504 75.712 221.912 75.712 221.224V215.512ZM77.2426 221.8C77.9786 222.856 78.8906 223.192 80.1546 223.192C81.6426 223.192 83.1466 222.536 83.1466 220.84C83.1466 219.336 82.0266 218.856 80.6986 218.6C79.7066 218.408 78.8106 218.136 78.8106 217.512C78.8106 216.808 79.5946 216.472 80.2826 216.472C81.0186 216.472 81.5466 216.84 81.8666 217.368L82.9066 216.68C82.3946 215.72 81.4186 215.32 80.3626 215.32C78.9706 215.32 77.5626 216.072 77.5626 217.528C77.5626 219.08 78.7786 219.384 80.2026 219.704C81.0026 219.88 81.8026 220.088 81.8026 220.888C81.8026 221.704 80.9386 222.04 80.1546 222.04C79.2746 222.04 78.7306 221.64 78.2346 221.032L77.2426 221.8ZM90.6311 220.904C90.0391 221.656 89.3191 222.04 88.2471 222.04C86.8871 222.04 85.8951 220.936 85.7991 219.64H91.8471V219.24C91.8471 216.76 90.4071 215.32 88.2951 215.32C86.0871 215.32 84.4551 216.936 84.4551 219.256C84.4551 221.432 85.8951 223.192 88.2471 223.192C89.6391 223.192 90.6951 222.776 91.5751 221.64L90.6311 220.904ZM85.7991 218.584C85.9591 217.32 86.8711 216.472 88.2471 216.472C89.6231 216.472 90.4551 217.32 90.5031 218.584H85.7991ZM104.551 216.504C103.799 215.688 102.775 215.32 101.671 215.32C99.3669 215.32 97.7989 216.984 97.7989 219.256C97.7989 221.56 99.3509 223.192 101.671 223.192C102.759 223.192 103.783 222.824 104.503 221.992L103.575 221.112C103.111 221.752 102.487 222.04 101.671 222.04C100.151 222.04 99.1429 220.792 99.1429 219.256C99.1429 217.72 99.9909 216.472 101.671 216.472C102.423 216.472 103.031 216.744 103.559 217.384L104.551 216.504ZM105.95 223H107.198V219.352C107.198 217.64 107.902 216.472 109.518 216.472C110.686 216.472 111.23 217.256 111.23 218.504V223H112.478V218.376C112.478 216.568 111.598 215.32 109.63 215.32C108.462 215.32 107.566 215.96 107.23 216.552H107.198V210.904H105.95V223ZM120.584 220.904C119.992 221.656 119.272 222.04 118.2 222.04C116.84 222.04 115.848 220.936 115.752 219.64H121.8V219.24C121.8 216.76 120.36 215.32 118.248 215.32C116.04 215.32 114.408 216.936 114.408 219.256C114.408 221.432 115.848 223.192 118.2 223.192C119.592 223.192 120.648 222.776 121.528 221.64L120.584 220.904ZM115.752 218.584C115.912 217.32 116.824 216.472 118.2 216.472C119.576 216.472 120.408 217.32 120.456 218.584H115.752ZM130.051 216.504C129.299 215.688 128.275 215.32 127.171 215.32C124.867 215.32 123.299 216.984 123.299 219.256C123.299 221.56 124.851 223.192 127.171 223.192C128.259 223.192 129.283 222.824 130.003 221.992L129.075 221.112C128.611 221.752 127.987 222.04 127.171 222.04C125.651 222.04 124.643 220.792 124.643 219.256C124.643 217.72 125.491 216.472 127.171 216.472C127.923 216.472 128.531 216.744 129.059 217.384L130.051 216.504ZM131.45 223H132.698V219.064L136.41 223H138.25L134.266 218.92L137.882 215.512H136.106L132.698 218.808V210.904H131.45V223ZM139.386 223H140.634V221.672H140.666C141.13 222.52 142.202 223.192 143.546 223.192C145.642 223.192 147.29 221.496 147.29 219.256C147.29 216.984 145.706 215.32 143.354 215.32C142.266 215.32 141.354 215.8 140.666 216.6H140.634V210.904H139.386V223ZM140.634 219.256C140.634 217.688 141.674 216.472 143.29 216.472C144.906 216.472 145.946 217.688 145.946 219.256C145.946 220.824 144.906 222.04 143.29 222.04C141.674 222.04 140.634 220.824 140.634 219.256ZM148.799 219.256C148.799 221.592 150.495 223.192 152.799 223.192C155.103 223.192 156.799 221.592 156.799 219.256C156.799 216.92 155.103 215.32 152.799 215.32C150.495 215.32 148.799 216.92 148.799 219.256ZM150.143 219.256C150.143 217.688 151.183 216.472 152.799 216.472C154.415 216.472 155.455 217.688 155.455 219.256C155.455 220.824 154.415 222.04 152.799 222.04C151.183 222.04 150.143 220.824 150.143 219.256ZM157.595 223H159.147L161.483 219.768L163.851 223H165.499L162.411 218.968L164.987 215.512H163.467L161.595 218.2L159.611 215.512H157.979L160.667 218.968L157.595 223ZM171.824 223H173.072V216.568H174.896V215.512H173.072V214.104C173.072 212.808 173.12 211.864 174.416 211.864C174.704 211.864 174.992 211.928 175.264 212.024L175.44 210.904C175.2 210.776 174.8 210.712 174.48 210.712C172.464 210.712 171.824 212.008 171.824 213.832V215.512H170.192V216.568H171.824V223ZM175.799 219.256C175.799 221.592 177.495 223.192 179.799 223.192C182.103 223.192 183.799 221.592 183.799 219.256C183.799 216.92 182.103 215.32 179.799 215.32C177.495 215.32 175.799 216.92 175.799 219.256ZM177.143 219.256C177.143 217.688 178.183 216.472 179.799 216.472C181.415 216.472 182.455 217.688 182.455 219.256C182.455 220.824 181.415 222.04 179.799 222.04C178.183 222.04 177.143 220.824 177.143 219.256ZM185.731 223H186.979V219.352C186.979 217.64 187.651 216.568 189.171 216.568C189.395 216.568 189.635 216.6 189.843 216.664L189.923 215.4C189.747 215.336 189.571 215.32 189.411 215.32C188.179 215.32 187.251 216.008 186.915 216.744H186.883C186.883 216.328 186.851 215.912 186.851 215.512H185.667C185.667 216.008 185.731 216.6 185.731 217.288V223ZM195.809 223H197.057V219.352C197.057 217.64 197.761 216.472 199.377 216.472C200.401 216.472 200.817 217.112 200.817 218.76V223H202.065V218.68C202.065 217.336 202.945 216.472 204.001 216.472C205.457 216.472 205.825 217.48 205.825 218.52V223H207.073V218.456C207.073 216.52 206.369 215.32 204.225 215.32C203.089 215.32 202.401 215.864 201.857 216.744C201.617 216.232 201.105 215.32 199.489 215.32C198.257 215.32 197.329 216.008 196.993 216.744H196.961C196.961 216.328 196.929 215.912 196.929 215.512H195.745C195.745 216.008 195.809 216.6 195.809 217.288V223ZM215.962 215.512H214.714V219.16C214.714 220.872 214.01 222.04 212.394 222.04C211.226 222.04 210.682 221.256 210.682 220.008V215.512H209.434V220.136C209.434 221.944 210.314 223.192 212.282 223.192C213.514 223.192 214.442 222.504 214.778 221.768H214.81C214.81 222.184 214.842 222.6 214.842 223H216.026C216.026 222.504 215.962 221.912 215.962 221.224V215.512ZM218.437 223H219.685V210.904H218.437V223ZM226.264 215.512H224.056V213.384H222.808V215.512H221.176V216.568H222.808V220.68C222.808 222.232 223.096 223.192 224.872 223.192C225.336 223.192 225.896 223.112 226.328 222.92L226.28 221.784C225.944 221.96 225.544 222.04 225.176 222.04C224.072 222.04 224.056 221.272 224.056 220.312V216.568H226.264V215.512ZM227.905 223H229.153V215.512H227.905V223ZM227.617 212.584C227.617 213.112 228.001 213.496 228.529 213.496C229.057 213.496 229.441 213.112 229.441 212.584C229.441 212.088 229.041 211.672 228.529 211.672C228.017 211.672 227.617 212.088 227.617 212.584ZM235.258 221.8C235.994 222.856 236.906 223.192 238.17 223.192C239.658 223.192 241.162 222.536 241.162 220.84C241.162 219.336 240.042 218.856 238.714 218.6C237.722 218.408 236.826 218.136 236.826 217.512C236.826 216.808 237.61 216.472 238.298 216.472C239.034 216.472 239.562 216.84 239.882 217.368L240.922 216.68C240.41 215.72 239.434 215.32 238.378 215.32C236.986 215.32 235.578 216.072 235.578 217.528C235.578 219.08 236.794 219.384 238.218 219.704C239.018 219.88 239.818 220.088 239.818 220.888C239.818 221.704 238.954 222.04 238.17 222.04C237.29 222.04 236.746 221.64 236.25 221.032L235.258 221.8ZM248.647 220.904C248.055 221.656 247.335 222.04 246.263 222.04C244.903 222.04 243.911 220.936 243.815 219.64H249.863V219.24C249.863 216.76 248.423 215.32 246.311 215.32C244.103 215.32 242.471 216.936 242.471 219.256C242.471 221.432 243.911 223.192 246.263 223.192C247.655 223.192 248.711 222.776 249.591 221.64L248.647 220.904ZM243.815 218.584C243.975 217.32 244.887 216.472 246.263 216.472C247.639 216.472 248.471 217.32 248.519 218.584H243.815ZM251.905 223H253.153V210.904H251.905V223ZM261.381 220.904C260.789 221.656 260.069 222.04 258.997 222.04C257.637 222.04 256.645 220.936 256.549 219.64H262.597V219.24C262.597 216.76 261.157 215.32 259.045 215.32C256.837 215.32 255.205 216.936 255.205 219.256C255.205 221.432 256.645 223.192 258.997 223.192C260.389 223.192 261.445 222.776 262.325 221.64L261.381 220.904ZM256.549 218.584C256.709 217.32 257.621 216.472 258.997 216.472C260.373 216.472 261.205 217.32 261.253 218.584H256.549ZM270.848 216.504C270.096 215.688 269.072 215.32 267.968 215.32C265.664 215.32 264.096 216.984 264.096 219.256C264.096 221.56 265.648 223.192 267.968 223.192C269.056 223.192 270.08 222.824 270.8 221.992L269.872 221.112C269.408 221.752 268.784 222.04 267.968 222.04C266.448 222.04 265.44 220.792 265.44 219.256C265.44 217.72 266.288 216.472 267.968 216.472C268.72 216.472 269.328 216.744 269.856 217.384L270.848 216.504ZM276.343 215.512H274.135V213.384H272.887V215.512H271.255V216.568H272.887V220.68C272.887 222.232 273.174 223.192 274.951 223.192C275.415 223.192 275.975 223.112 276.407 222.92L276.359 221.784C276.023 221.96 275.623 222.04 275.255 222.04C274.151 222.04 274.135 221.272 274.135 220.312V216.568H276.343V215.512ZM281.893 219.256C281.893 221.592 283.589 223.192 285.893 223.192C288.197 223.192 289.893 221.592 289.893 219.256C289.893 216.92 288.197 215.32 285.893 215.32C283.589 215.32 281.893 216.92 281.893 219.256ZM283.237 219.256C283.237 217.688 284.277 216.472 285.893 216.472C287.509 216.472 288.549 217.688 288.549 219.256C288.549 220.824 287.509 222.04 285.893 222.04C284.277 222.04 283.237 220.824 283.237 219.256ZM291.761 226.648H293.009V221.672H293.041C293.505 222.52 294.577 223.192 295.921 223.192C298.017 223.192 299.665 221.496 299.665 219.256C299.665 216.984 298.081 215.32 295.729 215.32C294.641 215.32 293.729 215.8 293.041 216.6H293.009V215.512H291.761V226.648ZM293.009 219.256C293.009 217.688 294.049 216.472 295.665 216.472C297.281 216.472 298.321 217.688 298.321 219.256C298.321 220.824 297.281 222.04 295.665 222.04C294.049 222.04 293.009 220.824 293.009 219.256ZM305.702 215.512H303.494V213.384H302.246V215.512H300.614V216.568H302.246V220.68C302.246 222.232 302.534 223.192 304.31 223.192C304.774 223.192 305.334 223.112 305.766 222.92L305.718 221.784C305.382 221.96 304.982 222.04 304.614 222.04C303.51 222.04 303.494 221.272 303.494 220.312V216.568H305.702V215.512ZM307.343 223H308.591V215.512H307.343V223ZM307.055 212.584C307.055 213.112 307.439 213.496 307.967 213.496C308.495 213.496 308.879 213.112 308.879 212.584C308.879 212.088 308.479 211.672 307.967 211.672C307.455 211.672 307.055 212.088 307.055 212.584ZM310.643 219.256C310.643 221.592 312.339 223.192 314.643 223.192C316.947 223.192 318.643 221.592 318.643 219.256C318.643 216.92 316.947 215.32 314.643 215.32C312.339 215.32 310.643 216.92 310.643 219.256ZM311.987 219.256C311.987 217.688 313.027 216.472 314.643 216.472C316.259 216.472 317.299 217.688 317.299 219.256C317.299 220.824 316.259 222.04 314.643 222.04C313.027 222.04 311.987 220.824 311.987 219.256ZM320.575 223H321.823V219.352C321.823 217.64 322.527 216.472 324.143 216.472C325.311 216.472 325.855 217.256 325.855 218.504V223H327.103V218.376C327.103 216.568 326.223 215.32 324.255 215.32C323.023 215.32 322.095 216.008 321.759 216.744H321.727C321.727 216.328 321.695 215.912 321.695 215.512H320.511C320.511 216.008 320.575 216.6 320.575 217.288V223ZM328.633 221.8C329.369 222.856 330.281 223.192 331.545 223.192C333.033 223.192 334.537 222.536 334.537 220.84C334.537 219.336 333.417 218.856 332.089 218.6C331.097 218.408 330.201 218.136 330.201 217.512C330.201 216.808 330.985 216.472 331.673 216.472C332.409 216.472 332.937 216.84 333.257 217.368L334.297 216.68C333.785 215.72 332.809 215.32 331.753 215.32C330.361 215.32 328.953 216.072 328.953 217.528C328.953 219.08 330.169 219.384 331.593 219.704C332.393 219.88 333.193 220.088 333.193 220.888C333.193 221.704 332.329 222.04 331.545 222.04C330.665 222.04 330.121 221.64 329.625 221.032L328.633 221.8Z" fill="#333333"/>
<path d="M448.712 215.512H447.464V219.16C447.464 220.872 446.76 222.04 445.144 222.04C443.976 222.04 443.432 221.256 443.432 220.008V215.512H442.184V220.136C442.184 221.944 443.064 223.192 445.032 223.192C446.264 223.192 447.192 222.504 447.528 221.768H447.56C447.56 222.184 447.592 222.6 447.592 223H448.776C448.776 222.504 448.712 221.912 448.712 221.224V215.512ZM450.243 221.8C450.979 222.856 451.891 223.192 453.155 223.192C454.643 223.192 456.147 222.536 456.147 220.84C456.147 219.336 455.027 218.856 453.699 218.6C452.707 218.408 451.811 218.136 451.811 217.512C451.811 216.808 452.595 216.472 453.283 216.472C454.019 216.472 454.547 216.84 454.867 217.368L455.907 216.68C455.395 215.72 454.419 215.32 453.363 215.32C451.971 215.32 450.563 216.072 450.563 217.528C450.563 219.08 451.779 219.384 453.203 219.704C454.003 219.88 454.803 220.088 454.803 220.888C454.803 221.704 453.939 222.04 453.155 222.04C452.275 222.04 451.731 221.64 451.235 221.032L450.243 221.8ZM463.631 220.904C463.039 221.656 462.319 222.04 461.247 222.04C459.887 222.04 458.895 220.936 458.799 219.64H464.847V219.24C464.847 216.76 463.407 215.32 461.295 215.32C459.087 215.32 457.455 216.936 457.455 219.256C457.455 221.432 458.895 223.192 461.247 223.192C462.639 223.192 463.695 222.776 464.575 221.64L463.631 220.904ZM458.799 218.584C458.959 217.32 459.871 216.472 461.247 216.472C462.623 216.472 463.455 217.32 463.503 218.584H458.799ZM475.327 215.512H473.119V213.384H471.871V215.512H470.239V216.568H471.871V220.68C471.871 222.232 472.159 223.192 473.935 223.192C474.399 223.192 474.959 223.112 475.391 222.92L475.343 221.784C475.007 221.96 474.607 222.04 474.239 222.04C473.135 222.04 473.119 221.272 473.119 220.312V216.568H475.327V215.512ZM476.424 219.256C476.424 221.592 478.12 223.192 480.424 223.192C482.728 223.192 484.424 221.592 484.424 219.256C484.424 216.92 482.728 215.32 480.424 215.32C478.12 215.32 476.424 216.92 476.424 219.256ZM477.768 219.256C477.768 217.688 478.808 216.472 480.424 216.472C482.04 216.472 483.08 217.688 483.08 219.256C483.08 220.824 482.04 222.04 480.424 222.04C478.808 222.04 477.768 220.824 477.768 219.256ZM493.828 215.512H492.58V216.792H492.548C492.052 215.8 490.916 215.32 489.908 215.32C487.524 215.32 485.924 216.808 485.924 219.256C485.924 221.464 487.556 223.096 489.908 223.096C490.9 223.096 491.956 222.664 492.548 221.704H492.58V222.664C492.58 224.248 491.988 225.688 489.748 225.688C488.596 225.688 487.748 225.24 486.964 224.392L486.068 225.416C487.124 226.456 488.292 226.84 489.748 226.84C492.372 226.84 493.828 225.368 493.828 222.664V215.512ZM487.268 219.256C487.268 217.688 488.34 216.472 489.908 216.472C491.492 216.472 492.58 217.608 492.58 219.224C492.58 220.664 491.62 221.944 489.908 221.944C488.452 221.944 487.268 220.776 487.268 219.256ZM503.609 215.512H502.361V216.792H502.329C501.833 215.8 500.697 215.32 499.689 215.32C497.305 215.32 495.705 216.808 495.705 219.256C495.705 221.464 497.337 223.096 499.689 223.096C500.681 223.096 501.737 222.664 502.329 221.704H502.361V222.664C502.361 224.248 501.769 225.688 499.529 225.688C498.377 225.688 497.529 225.24 496.745 224.392L495.849 225.416C496.905 226.456 498.073 226.84 499.529 226.84C502.153 226.84 503.609 225.368 503.609 222.664V215.512ZM497.049 219.256C497.049 217.688 498.121 216.472 499.689 216.472C501.273 216.472 502.361 217.608 502.361 219.224C502.361 220.664 501.401 221.944 499.689 221.944C498.233 221.944 497.049 220.776 497.049 219.256ZM506.03 223H507.278V210.904H506.03V223ZM515.506 220.904C514.914 221.656 514.194 222.04 513.122 222.04C511.762 222.04 510.77 220.936 510.674 219.64H516.722V219.24C516.722 216.76 515.282 215.32 513.17 215.32C510.962 215.32 509.33 216.936 509.33 219.256C509.33 221.432 510.77 223.192 513.122 223.192C514.514 223.192 515.57 222.776 516.45 221.64L515.506 220.904ZM510.674 218.584C510.834 217.32 511.746 216.472 513.122 216.472C514.498 216.472 515.33 217.32 515.378 218.584H510.674ZM523.746 223H524.994V216.568H526.818V215.512H524.994V214.104C524.994 212.808 525.042 211.864 526.338 211.864C526.626 211.864 526.914 211.928 527.186 212.024L527.362 210.904C527.122 210.776 526.722 210.712 526.402 210.712C524.386 210.712 523.746 212.008 523.746 213.832V215.512H522.114V216.568H523.746V223ZM527.721 219.256C527.721 221.592 529.417 223.192 531.721 223.192C534.025 223.192 535.721 221.592 535.721 219.256C535.721 216.92 534.025 215.32 531.721 215.32C529.417 215.32 527.721 216.92 527.721 219.256ZM529.065 219.256C529.065 217.688 530.105 216.472 531.721 216.472C533.337 216.472 534.377 217.688 534.377 219.256C534.377 220.824 533.337 222.04 531.721 222.04C530.105 222.04 529.065 220.824 529.065 219.256ZM537.653 223H538.901V219.352C538.901 217.64 539.573 216.568 541.093 216.568C541.317 216.568 541.557 216.6 541.765 216.664L541.845 215.4C541.669 215.336 541.493 215.32 541.333 215.32C540.101 215.32 539.173 216.008 538.837 216.744H538.805C538.805 216.328 538.773 215.912 538.773 215.512H537.589C537.589 216.008 537.653 216.6 537.653 217.288V223ZM547.731 223H548.979V219.352C548.979 217.64 549.683 216.472 551.299 216.472C552.323 216.472 552.739 217.112 552.739 218.76V223H553.987V218.68C553.987 217.336 554.867 216.472 555.923 216.472C557.379 216.472 557.747 217.48 557.747 218.52V223H558.995V218.456C558.995 216.52 558.291 215.32 556.147 215.32C555.011 215.32 554.323 215.864 553.779 216.744C553.539 216.232 553.027 215.32 551.411 215.32C550.179 215.32 549.251 216.008 548.915 216.744H548.883C548.883 216.328 548.851 215.912 548.851 215.512H547.667C547.667 216.008 547.731 216.6 547.731 217.288V223ZM567.884 215.512H566.636V219.16C566.636 220.872 565.932 222.04 564.316 222.04C563.148 222.04 562.604 221.256 562.604 220.008V215.512H561.356V220.136C561.356 221.944 562.236 223.192 564.204 223.192C565.436 223.192 566.364 222.504 566.7 221.768H566.732C566.732 222.184 566.764 222.6 566.764 223H567.948C567.948 222.504 567.884 221.912 567.884 221.224V215.512ZM570.359 223H571.607V210.904H570.359V223ZM578.186 215.512H575.978V213.384H574.73V215.512H573.098V216.568H574.73V220.68C574.73 222.232 575.018 223.192 576.794 223.192C577.258 223.192 577.818 223.112 578.25 222.92L578.202 221.784C577.866 221.96 577.466 222.04 577.098 222.04C575.994 222.04 575.978 221.272 575.978 220.312V216.568H578.186V215.512ZM579.827 223H581.075V215.512H579.827V223ZM579.539 212.584C579.539 213.112 579.923 213.496 580.451 213.496C580.979 213.496 581.363 213.112 581.363 212.584C581.363 212.088 580.963 211.672 580.451 211.672C579.939 211.672 579.539 212.088 579.539 212.584ZM587.18 221.8C587.916 222.856 588.828 223.192 590.092 223.192C591.58 223.192 593.084 222.536 593.084 220.84C593.084 219.336 591.964 218.856 590.636 218.6C589.644 218.408 588.748 218.136 588.748 217.512C588.748 216.808 589.532 216.472 590.22 216.472C590.956 216.472 591.484 216.84 591.804 217.368L592.844 216.68C592.332 215.72 591.356 215.32 590.3 215.32C588.908 215.32 587.5 216.072 587.5 217.528C587.5 219.08 588.716 219.384 590.14 219.704C590.94 219.88 591.74 220.088 591.74 220.888C591.74 221.704 590.876 222.04 590.092 222.04C589.212 222.04 588.668 221.64 588.172 221.032L587.18 221.8ZM600.569 220.904C599.977 221.656 599.257 222.04 598.185 222.04C596.825 222.04 595.833 220.936 595.737 219.64H601.785V219.24C601.785 216.76 600.345 215.32 598.233 215.32C596.025 215.32 594.393 216.936 594.393 219.256C594.393 221.432 595.833 223.192 598.185 223.192C599.577 223.192 600.633 222.776 601.513 221.64L600.569 220.904ZM595.737 218.584C595.897 217.32 596.809 216.472 598.185 216.472C599.561 216.472 600.393 217.32 600.441 218.584H595.737ZM603.827 223H605.075V210.904H603.827V223ZM613.303 220.904C612.711 221.656 611.991 222.04 610.919 222.04C609.559 222.04 608.567 220.936 608.471 219.64H614.519V219.24C614.519 216.76 613.079 215.32 610.967 215.32C608.759 215.32 607.127 216.936 607.127 219.256C607.127 221.432 608.567 223.192 610.919 223.192C612.311 223.192 613.367 222.776 614.247 221.64L613.303 220.904ZM608.471 218.584C608.631 217.32 609.543 216.472 610.919 216.472C612.295 216.472 613.127 217.32 613.175 218.584H608.471ZM622.77 216.504C622.018 215.688 620.994 215.32 619.89 215.32C617.586 215.32 616.018 216.984 616.018 219.256C616.018 221.56 617.57 223.192 619.89 223.192C620.978 223.192 622.002 222.824 622.722 221.992L621.794 221.112C621.33 221.752 620.706 222.04 619.89 222.04C618.37 222.04 617.362 220.792 617.362 219.256C617.362 217.72 618.21 216.472 619.89 216.472C620.642 216.472 621.25 216.744 621.778 217.384L622.77 216.504ZM628.264 215.512H626.056V213.384H624.808V215.512H623.176V216.568H624.808V220.68C624.808 222.232 625.096 223.192 626.872 223.192C627.336 223.192 627.896 223.112 628.328 222.92L628.28 221.784C627.944 221.96 627.544 222.04 627.176 222.04C626.072 222.04 626.056 221.272 626.056 220.312V216.568H628.264V215.512ZM633.815 219.256C633.815 221.592 635.511 223.192 637.815 223.192C640.119 223.192 641.815 221.592 641.815 219.256C641.815 216.92 640.119 215.32 637.815 215.32C635.511 215.32 633.815 216.92 633.815 219.256ZM635.159 219.256C635.159 217.688 636.199 216.472 637.815 216.472C639.431 216.472 640.471 217.688 640.471 219.256C640.471 220.824 639.431 222.04 637.815 222.04C636.199 222.04 635.159 220.824 635.159 219.256ZM643.683 226.648H644.931V221.672H644.963C645.427 222.52 646.499 223.192 647.843 223.192C649.939 223.192 651.587 221.496 651.587 219.256C651.587 216.984 650.003 215.32 647.651 215.32C646.562 215.32 645.651 215.8 644.963 216.6H644.931V215.512H643.683V226.648ZM644.931 219.256C644.931 217.688 645.971 216.472 647.587 216.472C649.203 216.472 650.243 217.688 650.243 219.256C650.243 220.824 649.203 222.04 647.587 222.04C645.971 222.04 644.931 220.824 644.931 219.256ZM657.624 215.512H655.416V213.384H654.168V215.512H652.536V216.568H654.168V220.68C654.168 222.232 654.456 223.192 656.232 223.192C656.696 223.192 657.256 223.112 657.688 222.92L657.64 221.784C657.304 221.96 656.904 222.04 656.536 222.04C655.432 222.04 655.416 221.272 655.416 220.312V216.568H657.624V215.512ZM659.265 223H660.513V215.512H659.265V223ZM658.977 212.584C658.977 213.112 659.361 213.496 659.889 213.496C660.417 213.496 660.801 213.112 660.801 212.584C660.801 212.088 660.401 211.672 659.889 211.672C659.377 211.672 658.977 212.088 658.977 212.584ZM662.565 219.256C662.565 221.592 664.261 223.192 666.565 223.192C668.869 223.192 670.565 221.592 670.565 219.256C670.565 216.92 668.869 215.32 666.565 215.32C664.261 215.32 662.565 216.92 662.565 219.256ZM663.909 219.256C663.909 217.688 664.949 216.472 666.565 216.472C668.181 216.472 669.221 217.688 669.221 219.256C669.221 220.824 668.181 222.04 666.565 222.04C664.949 222.04 663.909 220.824 663.909 219.256ZM672.497 223H673.745V219.352C673.745 217.64 674.449 216.472 676.065 216.472C677.233 216.472 677.777 217.256 677.777 218.504V223H679.025V218.376C679.025 216.568 678.145 215.32 676.177 215.32C674.945 215.32 674.017 216.008 673.681 216.744H673.649C673.649 216.328 673.617 215.912 673.617 215.512H672.433C672.433 216.008 672.497 216.6 672.497 217.288V223ZM680.555 221.8C681.291 222.856 682.203 223.192 683.467 223.192C684.955 223.192 686.459 222.536 686.459 220.84C686.459 219.336 685.339 218.856 684.011 218.6C683.019 218.408 682.123 218.136 682.123 217.512C682.123 216.808 682.907 216.472 683.595 216.472C684.331 216.472 684.859 216.84 685.179 217.368L686.219 216.68C685.707 215.72 684.731 215.32 683.675 215.32C682.283 215.32 680.875 216.072 680.875 217.528C680.875 219.08 682.091 219.384 683.515 219.704C684.315 219.88 685.115 220.088 685.115 220.888C685.115 221.704 684.251 222.04 683.467 222.04C682.587 222.04 682.043 221.64 681.547 221.032L680.555 221.8Z" fill="#333333"/>
<defs>
<filter id="filter0_dd_143_27153" x="442" y="51" width="22" height="22" filterUnits="userSpaceOnUse" color-interpolation-filters="sRGB">
<feFlood flood-opacity="0" result="BackgroundImageFix"/>
<feColorMatrix in="SourceAlpha" type="matrix" values="0 0 0 0 0 0 0 0 0 0 0 0 0 0 0 0 0 0 127 0" result="hardAlpha"/>
<feOffset dy="1"/>
<feGaussianBlur stdDeviation="1"/>
<feColorMatrix type="matrix" values="0 0 0 0 0 0 0 0 0 0 0 0 0 0 0 0 0 0 0.2 0"/>
<feBlend mode="normal" in2="BackgroundImageFix" result="effect1_dropShadow_143_27153"/>
<feColorMatrix in="SourceAlpha" type="matrix" values="0 0 0 0 0 0 0 0 0 0 0 0 0 0 0 0 0 0 127 0" result="hardAlpha"/>
<feOffset dy="0.1"/>
<feGaussianBlur stdDeviation="0.15"/>
<feColorMatrix type="matrix" values="0 0 0 0 0 0 0 0 0 0 0 0 0 0 0 0 0 0 0.1 0"/>
<feBlend mode="normal" in2="effect1_dropShadow_143_27153" result="effect2_dropShadow_143_27153"/>
<feBlend mode="normal" in="SourceGraphic" in2="effect2_dropShadow_143_27153" result="shape"/>
</filter>
<filter id="filter1_dd_143_27153" x="442" y="91" width="22" height="22" filterUnits="userSpaceOnUse" color-interpolation-filters="sRGB">
<feFlood flood-opacity="0" result="BackgroundImageFix"/>
<feColorMatrix in="SourceAlpha" type="matrix" values="0 0 0 0 0 0 0 0 0 0 0 0 0 0 0 0 0 0 127 0" result="hardAlpha"/>
<feOffset dy="1"/>
<feGaussianBlur stdDeviation="1"/>
<feColorMatrix type="matrix" values="0 0 0 0 0 0 0 0 0 0 0 0 0 0 0 0 0 0 0.2 0"/>
<feBlend mode="normal" in2="BackgroundImageFix" result="effect1_dropShadow_143_27153"/>
<feColorMatrix in="SourceAlpha" type="matrix" values="0 0 0 0 0 0 0 0 0 0 0 0 0 0 0 0 0 0 127 0" result="hardAlpha"/>
<feOffset dy="0.1"/>
<feGaussianBlur stdDeviation="0.15"/>
<feColorMatrix type="matrix" values="0 0 0 0 0 0 0 0 0 0 0 0 0 0 0 0 0 0 0.1 0"/>
<feBlend mode="normal" in2="effect1_dropShadow_143_27153" result="effect2_dropShadow_143_27153"/>
<feBlend mode="normal" in="SourceGraphic" in2="effect2_dropShadow_143_27153" result="shape"/>
</filter>
<filter id="filter2_dd_143_27153" x="442" y="131" width="22" height="22" filterUnits="userSpaceOnUse" color-interpolation-filters="sRGB">
<feFlood flood-opacity="0" result="BackgroundImageFix"/>
<feColorMatrix in="SourceAlpha" type="matrix" values="0 0 0 0 0 0 0 0 0 0 0 0 0 0 0 0 0 0 127 0" result="hardAlpha"/>
<feOffset dy="1"/>
<feGaussianBlur stdDeviation="1"/>
<feColorMatrix type="matrix" values="0 0 0 0 0 0 0 0 0 0 0 0 0 0 0 0 0 0 0.2 0"/>
<feBlend mode="normal" in2="BackgroundImageFix" result="effect1_dropShadow_143_27153"/>
<feColorMatrix in="SourceAlpha" type="matrix" values="0 0 0 0 0 0 0 0 0 0 0 0 0 0 0 0 0 0 127 0" result="hardAlpha"/>
<feOffset dy="0.1"/>
<feGaussianBlur stdDeviation="0.15"/>
<feColorMatrix type="matrix" values="0 0 0 0 0 0 0 0 0 0 0 0 0 0 0 0 0 0 0.1 0"/>
<feBlend mode="normal" in2="effect1_dropShadow_143_27153" result="effect2_dropShadow_143_27153"/>
<feBlend mode="normal" in="SourceGraphic" in2="effect2_dropShadow_143_27153" result="shape"/>
</filter>
</defs>
</svg>
