<svg width="70" height="25" viewBox="0 0 70 25" fill="none" xmlns="http://www.w3.org/2000/svg">
<rect width="70" height="25" rx="12.5" fill="#E6E6E6"/>
<path d="M17.4187 7.39C16.5787 6.298 15.2627 5.836 13.9187 5.836C10.9787 5.836 8.8787 8.132 8.8787 11.044C8.8787 14.054 11.0767 16.252 13.9187 16.252C15.5007 16.252 16.7887 15.706 17.6707 14.516L16.7887 13.774C16.0887 14.67 15.1227 15.16 13.9187 15.16C11.6927 15.16 10.1387 13.34 10.1387 11.044C10.1387 8.874 11.7067 6.928 13.9187 6.928C14.8707 6.928 15.8087 7.334 16.3967 8.132L17.4187 7.39ZM19.1141 16H20.2061V12.808C20.2061 11.31 20.8221 10.288 22.2361 10.288C23.2581 10.288 23.7341 10.974 23.7341 12.066V16H24.8261V11.954C24.8261 10.372 24.0561 9.28 22.3341 9.28C21.3121 9.28 20.5281 9.84 20.2341 10.358H20.2061V5.416H19.1141V16ZM26.9914 16H28.0834V9.448H26.9914V16ZM26.7394 6.886C26.7394 7.348 27.0754 7.684 27.5374 7.684C27.9994 7.684 28.3354 7.348 28.3354 6.886C28.3354 6.452 27.9854 6.088 27.5374 6.088C27.0894 6.088 26.7394 6.452 26.7394 6.886ZM30.2007 19.192H31.2927V14.838H31.3207C31.7267 15.58 32.6647 16.168 33.8407 16.168C35.6747 16.168 37.1167 14.684 37.1167 12.724C37.1167 10.736 35.7307 9.28 33.6727 9.28C32.7207 9.28 31.9227 9.7 31.3207 10.4H31.2927V9.448H30.2007V19.192ZM31.2927 12.724C31.2927 11.352 32.2027 10.288 33.6167 10.288C35.0307 10.288 35.9407 11.352 35.9407 12.724C35.9407 14.096 35.0307 15.16 33.6167 15.16C32.2027 15.16 31.2927 14.096 31.2927 12.724Z" fill="#333333"/>
<path d="M54 18.5C52.8133 18.5 51.6533 18.1481 50.6666 17.4888C49.6799 16.8295 48.9109 15.8925 48.4567 14.7961C48.0026 13.6997 47.8838 12.4933 48.1153 11.3295C48.3468 10.1656 48.9182 9.09648 49.7574 8.25736C50.5965 7.41825 51.6656 6.8468 52.8295 6.61529C53.9933 6.38378 55.1997 6.5026 56.2961 6.95673C57.3925 7.41085 58.3295 8.17989 58.9888 9.16658C59.6481 10.1533 60 11.3133 60 12.5C60 14.0913 59.3679 15.6174 58.2426 16.7426C57.1174 17.8679 55.5913 18.5 54 18.5V18.5ZM54 7.5C53.0111 7.5 52.0444 7.79325 51.2222 8.34265C50.3999 8.89206 49.759 9.67296 49.3806 10.5866C49.0022 11.5002 48.9032 12.5055 49.0961 13.4755C49.289 14.4454 49.7652 15.3363 50.4645 16.0355C51.1637 16.7348 52.0546 17.211 53.0246 17.4039C53.9945 17.5969 54.9998 17.4978 55.9134 17.1194C56.8271 16.741 57.6079 16.1001 58.1574 15.2779C58.7068 14.4556 59 13.4889 59 12.5C59 11.1739 58.4732 9.90215 57.5355 8.96447C56.5979 8.02679 55.3261 7.5 54 7.5Z" fill="#333333"/>
<path d="M52 15C51.9344 15.0003 51.8693 14.9875 51.8086 14.9623C51.7479 14.9371 51.6929 14.9001 51.6467 14.8533C51.5531 14.7596 51.5005 14.6325 51.5005 14.5C51.5005 14.3675 51.5531 14.2404 51.6467 14.1467L55.6467 10.1467C55.7415 10.0584 55.8669 10.0103 55.9964 10.0126C56.1259 10.0148 56.2495 10.0673 56.3411 10.1589C56.4327 10.2505 56.4852 10.3741 56.4875 10.5037C56.4898 10.6332 56.4417 10.7586 56.3534 10.8533L52.3534 14.8533C52.3072 14.9001 52.2522 14.9371 52.1915 14.9623C52.1308 14.9875 52.0657 15.0003 52 15Z" fill="#333333"/>
<path d="M56.0002 15C55.9345 15.0003 55.8694 14.9875 55.8088 14.9623C55.7481 14.9371 55.6931 14.9001 55.6469 14.8533L51.6469 10.8533C51.5586 10.7586 51.5105 10.6332 51.5128 10.5037C51.5151 10.3741 51.5675 10.2505 51.6591 10.1589C51.7508 10.0673 51.8743 10.0148 52.0039 10.0126C52.1334 10.0103 52.2588 10.0584 52.3536 10.1467L56.3536 14.1467C56.4472 14.2404 56.4998 14.3675 56.4998 14.5C56.4998 14.6325 56.4472 14.7596 56.3536 14.8533C56.3074 14.9001 56.2524 14.9371 56.1917 14.9623C56.131 14.9875 56.0659 15.0003 56.0002 15V15Z" fill="#333333"/>
</svg>
