<svg width="689" height="316" viewBox="0 0 689 316" fill="none" xmlns="http://www.w3.org/2000/svg">
<g clip-path="url(#clip0_152_27248)">
<path d="M20.512 8.16C19.552 6.912 18.048 6.384 16.512 6.384C13.152 6.384 10.752 9.008 10.752 12.336C10.752 15.776 13.264 18.288 16.512 18.288C18.32 18.288 19.792 17.664 20.8 16.304L19.792 15.456C18.992 16.48 17.888 17.04 16.512 17.04C13.968 17.04 12.192 14.96 12.192 12.336C12.192 9.856 13.984 7.632 16.512 7.632C17.6 7.632 18.672 8.096 19.344 9.008L20.512 8.16ZM22.5616 18H23.8096V10.512H22.5616V18ZM22.2736 7.584C22.2736 8.112 22.6576 8.496 23.1856 8.496C23.7136 8.496 24.0976 8.112 24.0976 7.584C24.0976 7.088 23.6976 6.672 23.1856 6.672C22.6736 6.672 22.2736 7.088 22.2736 7.584ZM30.3894 10.512H28.1814V8.384H26.9334V10.512H25.3014V11.568H26.9334V15.68C26.9334 17.232 27.2214 18.192 28.9974 18.192C29.4614 18.192 30.0214 18.112 30.4534 17.92L30.4054 16.784C30.0694 16.96 29.6694 17.04 29.3014 17.04C28.1974 17.04 28.1814 16.272 28.1814 15.312V11.568H30.3894V10.512ZM38.2864 10.512H36.9264L34.7024 16.384H34.6704L32.3504 10.512H30.8944L33.9984 18.048L33.4864 19.456C33.2144 20.192 32.9104 20.688 32.0944 20.688C31.7424 20.688 31.4704 20.656 31.2144 20.56L31.0544 21.648C31.3904 21.808 31.8224 21.84 32.1744 21.84C33.6784 21.84 34.1744 20.976 34.6704 19.712L38.2864 10.512Z" fill="#333333"/>
<path opacity="0.8" d="M47.384 4.672H46.04V6.944L43.864 6.192L43.448 7.472L45.64 8.224L44.264 10.032L45.336 10.848L46.68 9.008L48.056 10.896L49.16 10.096L47.784 8.224L49.96 7.52L49.544 6.24L47.384 6.944V4.672Z" fill="#DB3259"/>
</g>
<rect x="10.5" y="28.5" width="319" height="35" rx="3.5" fill="white"/>
<path d="M308.999 47.6664C308.934 47.6668 308.869 47.6539 308.808 47.6288C308.747 47.6036 308.692 47.5665 308.646 47.5198L305.313 44.1864C305.246 44.0892 305.216 43.9716 305.228 43.8543C305.24 43.7371 305.293 43.6278 305.377 43.5457C305.462 43.4636 305.572 43.414 305.69 43.4056C305.807 43.3972 305.924 43.4305 306.019 43.4998L308.999 46.4598L311.979 43.4998C312.073 43.4389 312.185 43.4112 312.297 43.4214C312.408 43.4315 312.513 43.4788 312.595 43.5556C312.676 43.6325 312.729 43.7345 312.746 43.8452C312.763 43.956 312.741 44.0691 312.686 44.1664L309.353 47.4998C309.308 47.5502 309.254 47.5909 309.193 47.6196C309.133 47.6482 309.067 47.6642 308.999 47.6664V47.6664Z" fill="#6B778C"/>
<rect x="22" y="33" width="86" height="25" rx="12.5" fill="#E6E6E6"/>
<path d="M37.1999 39.998C36.4719 39.144 35.5339 38.836 34.4279 38.836C32.6919 38.836 31.0539 39.788 31.0539 41.692C31.0539 43.344 32.1179 43.96 33.5179 44.422C35.2819 45.01 36.1079 45.22 36.1079 46.438C36.1079 47.572 34.9599 48.16 33.9519 48.16C33.0979 48.16 32.2579 47.782 31.8379 47.054L30.8299 47.88C31.5019 48.874 32.7339 49.252 33.8819 49.252C35.6739 49.252 37.3679 48.328 37.3679 46.354C37.3679 44.408 35.9399 43.904 34.3999 43.414C32.8179 42.91 32.3139 42.504 32.3139 41.594C32.3139 40.418 33.3919 39.928 34.4279 39.928C35.1419 39.928 35.8419 40.208 36.2339 40.838L37.1999 39.998ZM44.6851 42.448H43.4951L41.5491 47.586H41.5211L39.4911 42.448H38.2171L40.9331 49.042L40.4851 50.274C40.2471 50.918 39.9811 51.352 39.2671 51.352C38.9591 51.352 38.7211 51.324 38.4971 51.24L38.3571 52.192C38.6511 52.332 39.0291 52.36 39.3371 52.36C40.6531 52.36 41.0871 51.604 41.5211 50.498L44.6851 42.448ZM51.3131 49H52.4051V38.416H51.3131V43.4H51.2851C50.6831 42.7 49.8851 42.28 48.9331 42.28C46.8751 42.28 45.4891 43.736 45.4891 45.724C45.4891 47.684 46.9311 49.168 48.7651 49.168C49.9411 49.168 50.8791 48.58 51.2851 47.838H51.3131V49ZM51.3131 45.724C51.3131 47.096 50.4031 48.16 48.9891 48.16C47.5751 48.16 46.6651 47.096 46.6651 45.724C46.6651 44.352 47.5751 43.288 48.9891 43.288C50.4031 43.288 51.3131 44.352 51.3131 45.724ZM54.4256 49H55.5176V45.808C55.5176 44.31 56.1336 43.288 57.5476 43.288C58.5696 43.288 59.0456 43.974 59.0456 45.066V49H60.1376V44.954C60.1376 43.372 59.3676 42.28 57.6456 42.28C56.5676 42.28 55.7556 42.882 55.4616 43.526H55.4336C55.4336 43.162 55.4056 42.798 55.4056 42.448H54.3696C54.3696 42.882 54.4256 43.4 54.4256 44.002V49ZM67.2309 47.166C66.7129 47.824 66.0829 48.16 65.1449 48.16C63.9549 48.16 63.0869 47.194 63.0029 46.06H68.2949V45.71C68.2949 43.54 67.0349 42.28 65.1869 42.28C63.2549 42.28 61.8269 43.694 61.8269 45.724C61.8269 47.628 63.0869 49.168 65.1449 49.168C66.3629 49.168 67.2869 48.804 68.0569 47.81L67.2309 47.166ZM63.0029 45.136C63.1429 44.03 63.9409 43.288 65.1449 43.288C66.3489 43.288 67.0769 44.03 67.1189 45.136H63.0029ZM75.5562 42.448H74.3662L72.4202 47.586H72.3922L70.3622 42.448H69.0882L71.8042 49.042L71.3562 50.274C71.1182 50.918 70.8522 51.352 70.1382 51.352C69.8302 51.352 69.5922 51.324 69.3682 51.24L69.2282 52.192C69.5222 52.332 69.9002 52.36 70.2082 52.36C71.5242 52.36 71.9582 51.604 72.3922 50.498L75.5562 42.448Z" fill="#333333"/>
<path d="M92 51.5C90.8133 51.5 89.6533 51.1481 88.6666 50.4888C87.6799 49.8295 86.9109 48.8925 86.4567 47.7961C86.0026 46.6997 85.8838 45.4933 86.1153 44.3295C86.3468 43.1656 86.9182 42.0965 87.7574 41.2574C88.5965 40.4182 89.6656 39.8468 90.8295 39.6153C91.9933 39.3838 93.1997 39.5026 94.2961 39.9567C95.3925 40.4109 96.3295 41.1799 96.9888 42.1666C97.6481 43.1533 98 44.3133 98 45.5C98 47.0913 97.3679 48.6174 96.2426 49.7426C95.1174 50.8679 93.5913 51.5 92 51.5V51.5ZM92 40.5C91.0111 40.5 90.0444 40.7932 89.2222 41.3427C88.3999 41.8921 87.759 42.673 87.3806 43.5866C87.0022 44.5002 86.9032 45.5055 87.0961 46.4755C87.289 47.4454 87.7652 48.3363 88.4645 49.0355C89.1637 49.7348 90.0546 50.211 91.0246 50.4039C91.9945 50.5969 92.9998 50.4978 93.9134 50.1194C94.8271 49.741 95.6079 49.1001 96.1574 48.2779C96.7068 47.4556 97 46.4889 97 45.5C97 44.1739 96.4732 42.9022 95.5355 41.9645C94.5979 41.0268 93.3261 40.5 92 40.5Z" fill="#333333"/>
<path d="M89.9996 48.0002C89.9339 48.0005 89.8688 47.9877 89.8081 47.9625C89.7474 47.9373 89.6924 47.9003 89.6462 47.8536C89.5526 47.7598 89.5 47.6327 89.5 47.5002C89.5 47.3677 89.5526 47.2406 89.6462 47.1469L93.6462 43.1469C93.741 43.0586 93.8664 43.0105 93.9959 43.0128C94.1254 43.0151 94.249 43.0675 94.3406 43.1591C94.4322 43.2508 94.4847 43.3743 94.487 43.5039C94.4893 43.6334 94.4412 43.7588 94.3529 43.8536L90.3529 47.8536C90.3067 47.9003 90.2517 47.9373 90.191 47.9625C90.1303 47.9877 90.0653 48.0005 89.9996 48.0002Z" fill="#333333"/>
<path d="M94.0002 48.0002C93.9345 48.0005 93.8694 47.9877 93.8088 47.9625C93.7481 47.9373 93.6931 47.9003 93.6469 47.8536L89.6469 43.8536C89.5586 43.7588 89.5105 43.6334 89.5128 43.5039C89.5151 43.3743 89.5675 43.2508 89.6591 43.1591C89.7508 43.0675 89.8743 43.0151 90.0039 43.0128C90.1334 43.0105 90.2588 43.0586 90.3536 43.1469L94.3536 47.1469C94.4472 47.2406 94.4998 47.3677 94.4998 47.5002C94.4998 47.6327 94.4472 47.7598 94.3536 47.8536C94.3074 47.9003 94.2524 47.9373 94.1917 47.9625C94.131 47.9877 94.0659 48.0005 94.0002 48.0002V48.0002Z" fill="#333333"/>
<rect x="112" y="33" width="109" height="25" rx="12.5" fill="#E6E6E6"/>
<path d="M121.245 49H122.421V40.684H122.449L126.005 49H126.719L130.275 40.684H130.303V49H131.479V39.088H129.771L126.383 46.858H126.355L122.995 39.088H121.245V49ZM138.776 47.166C138.258 47.824 137.628 48.16 136.69 48.16C135.5 48.16 134.632 47.194 134.548 46.06H139.84V45.71C139.84 43.54 138.58 42.28 136.732 42.28C134.8 42.28 133.372 43.694 133.372 45.724C133.372 47.628 134.632 49.168 136.69 49.168C137.908 49.168 138.832 48.804 139.602 47.81L138.776 47.166ZM134.548 45.136C134.688 44.03 135.486 43.288 136.69 43.288C137.894 43.288 138.622 44.03 138.664 45.136H134.548ZM141.627 49H142.719V38.416H141.627V49ZM144.836 49H145.928V47.838H145.956C146.362 48.58 147.3 49.168 148.476 49.168C150.31 49.168 151.752 47.684 151.752 45.724C151.752 43.736 150.366 42.28 148.308 42.28C147.356 42.28 146.558 42.7 145.956 43.4H145.928V38.416H144.836V49ZM145.928 45.724C145.928 44.352 146.838 43.288 148.252 43.288C149.666 43.288 150.576 44.352 150.576 45.724C150.576 47.096 149.666 48.16 148.252 48.16C146.838 48.16 145.928 47.096 145.928 45.724ZM153.073 45.724C153.073 47.768 154.557 49.168 156.573 49.168C158.589 49.168 160.073 47.768 160.073 45.724C160.073 43.68 158.589 42.28 156.573 42.28C154.557 42.28 153.073 43.68 153.073 45.724ZM154.249 45.724C154.249 44.352 155.159 43.288 156.573 43.288C157.987 43.288 158.897 44.352 158.897 45.724C158.897 47.096 157.987 48.16 156.573 48.16C155.159 48.16 154.249 47.096 154.249 45.724ZM167.476 42.448H166.384V45.64C166.384 47.138 165.768 48.16 164.354 48.16C163.332 48.16 162.856 47.474 162.856 46.382V42.448H161.764V46.494C161.764 48.076 162.534 49.168 164.256 49.168C165.334 49.168 166.146 48.566 166.44 47.922H166.468C166.468 48.286 166.496 48.65 166.496 49H167.532C167.532 48.566 167.476 48.048 167.476 47.446V42.448ZM169.543 49H170.635V45.808C170.635 44.31 171.223 43.372 172.553 43.372C172.749 43.372 172.959 43.4 173.141 43.456L173.211 42.35C173.057 42.294 172.903 42.28 172.763 42.28C171.685 42.28 170.873 42.882 170.579 43.526H170.551C170.551 43.162 170.523 42.798 170.523 42.448H169.487C169.487 42.882 169.543 43.4 169.543 44.002V49ZM174.465 49H175.557V45.808C175.557 44.31 176.173 43.288 177.587 43.288C178.609 43.288 179.085 43.974 179.085 45.066V49H180.177V44.954C180.177 43.372 179.407 42.28 177.685 42.28C176.607 42.28 175.795 42.882 175.501 43.526H175.473C175.473 43.162 175.445 42.798 175.445 42.448H174.409C174.409 42.882 174.465 43.4 174.465 44.002V49ZM187.27 47.166C186.752 47.824 186.122 48.16 185.184 48.16C183.994 48.16 183.126 47.194 183.042 46.06H188.334V45.71C188.334 43.54 187.074 42.28 185.226 42.28C183.294 42.28 181.866 43.694 181.866 45.724C181.866 47.628 183.126 49.168 185.184 49.168C186.402 49.168 187.326 48.804 188.096 47.81L187.27 47.166ZM183.042 45.136C183.182 44.03 183.98 43.288 185.184 43.288C186.388 43.288 187.116 44.03 187.158 45.136H183.042Z" fill="#333333"/>
<path d="M205 51.5C203.813 51.5 202.653 51.1481 201.667 50.4888C200.68 49.8295 199.911 48.8925 199.457 47.7961C199.003 46.6997 198.884 45.4933 199.115 44.3295C199.347 43.1656 199.918 42.0965 200.757 41.2574C201.596 40.4182 202.666 39.8468 203.829 39.6153C204.993 39.3838 206.2 39.5026 207.296 39.9567C208.392 40.4109 209.33 41.1799 209.989 42.1666C210.648 43.1533 211 44.3133 211 45.5C211 47.0913 210.368 48.6174 209.243 49.7426C208.117 50.8679 206.591 51.5 205 51.5V51.5ZM205 40.5C204.011 40.5 203.044 40.7932 202.222 41.3427C201.4 41.8921 200.759 42.673 200.381 43.5866C200.002 44.5002 199.903 45.5055 200.096 46.4755C200.289 47.4454 200.765 48.3363 201.464 49.0355C202.164 49.7348 203.055 50.211 204.025 50.4039C204.994 50.5969 206 50.4978 206.913 50.1194C207.827 49.741 208.608 49.1001 209.157 48.2779C209.707 47.4556 210 46.4889 210 45.5C210 44.1739 209.473 42.9022 208.536 41.9645C207.598 41.0268 206.326 40.5 205 40.5Z" fill="#333333"/>
<path d="M203 48.0002C202.934 48.0005 202.869 47.9877 202.808 47.9625C202.747 47.9373 202.692 47.9003 202.646 47.8536C202.553 47.7598 202.5 47.6327 202.5 47.5002C202.5 47.3677 202.553 47.2406 202.646 47.1469L206.646 43.1469C206.741 43.0586 206.866 43.0105 206.996 43.0128C207.125 43.0151 207.249 43.0675 207.341 43.1591C207.432 43.2508 207.485 43.3743 207.487 43.5039C207.489 43.6334 207.441 43.7588 207.353 43.8536L203.353 47.8536C203.307 47.9003 203.252 47.9373 203.191 47.9625C203.13 47.9877 203.065 48.0005 203 48.0002Z" fill="#333333"/>
<path d="M207 48.0002C206.935 48.0005 206.869 47.9877 206.809 47.9625C206.748 47.9373 206.693 47.9003 206.647 47.8536L202.647 43.8536C202.559 43.7588 202.51 43.6334 202.513 43.5039C202.515 43.3743 202.568 43.2508 202.659 43.1591C202.751 43.0675 202.874 43.0151 203.004 43.0128C203.133 43.0105 203.259 43.0586 203.354 43.1469L207.354 47.1469C207.447 47.2406 207.5 47.3677 207.5 47.5002C207.5 47.6327 207.447 47.7598 207.354 47.8536C207.307 47.9003 207.252 47.9373 207.192 47.9625C207.131 47.9877 207.066 48.0005 207 48.0002V48.0002Z" fill="#333333"/>
<path d="M227.544 48.176C227.016 48.176 226.584 48.608 226.584 49.136C226.584 49.664 227.048 50.096 227.544 50.096C228.04 50.096 228.504 49.664 228.504 49.136C228.504 48.608 228.072 48.176 227.544 48.176ZM231.997 48.176C231.469 48.176 231.037 48.608 231.037 49.136C231.037 49.664 231.501 50.096 231.997 50.096C232.493 50.096 232.957 49.664 232.957 49.136C232.957 48.608 232.525 48.176 231.997 48.176ZM236.451 48.176C235.923 48.176 235.491 48.608 235.491 49.136C235.491 49.664 235.955 50.096 236.451 50.096C236.947 50.096 237.411 49.664 237.411 49.136C237.411 48.608 236.979 48.176 236.451 48.176Z" fill="#502252"/>
<rect x="10.5" y="28.5" width="319" height="35" rx="3.5" stroke="#9EA6B5"/>
<g clip-path="url(#clip1_152_27248)">
<path d="M17.882 69.088H10.154V70.18H13.43V79H14.606V70.18H17.882V69.088ZM19.0751 79H20.1671V75.808C20.1671 74.31 20.7831 73.288 22.1971 73.288C23.2191 73.288 23.6951 73.974 23.6951 75.066V79H24.7871V74.954C24.7871 73.372 24.0171 72.28 22.2951 72.28C21.2731 72.28 20.4891 72.84 20.1951 73.358H20.1671V68.416H19.0751V79ZM26.9524 79H28.0444V72.448H26.9524V79ZM26.7004 69.886C26.7004 70.348 27.0364 70.684 27.4984 70.684C27.9604 70.684 28.2964 70.348 28.2964 69.886C28.2964 69.452 27.9464 69.088 27.4984 69.088C27.0504 69.088 26.7004 69.452 26.7004 69.886ZM29.4896 77.95C30.1336 78.874 30.9316 79.168 32.0376 79.168C33.3396 79.168 34.6556 78.594 34.6556 77.11C34.6556 75.794 33.6756 75.374 32.5136 75.15C31.6456 74.982 30.8616 74.744 30.8616 74.198C30.8616 73.582 31.5476 73.288 32.1496 73.288C32.7936 73.288 33.2556 73.61 33.5356 74.072L34.4456 73.47C33.9976 72.63 33.1436 72.28 32.2196 72.28C31.0016 72.28 29.7696 72.938 29.7696 74.212C29.7696 75.57 30.8336 75.836 32.0796 76.116C32.7796 76.27 33.4796 76.452 33.4796 77.152C33.4796 77.866 32.7236 78.16 32.0376 78.16C31.2676 78.16 30.7916 77.81 30.3576 77.278L29.4896 77.95ZM40.1731 79H41.2651V72.448H40.1731V79ZM39.9211 69.886C39.9211 70.348 40.2571 70.684 40.7191 70.684C41.1811 70.684 41.5171 70.348 41.5171 69.886C41.5171 69.452 41.1671 69.088 40.7191 69.088C40.2711 69.088 39.9211 69.452 39.9211 69.886ZM42.7103 77.95C43.3543 78.874 44.1523 79.168 45.2583 79.168C46.5603 79.168 47.8763 78.594 47.8763 77.11C47.8763 75.794 46.8963 75.374 45.7343 75.15C44.8663 74.982 44.0823 74.744 44.0823 74.198C44.0823 73.582 44.7683 73.288 45.3703 73.288C46.0143 73.288 46.4763 73.61 46.7563 74.072L47.6663 73.47C47.2183 72.63 46.3643 72.28 45.4403 72.28C44.2223 72.28 42.9903 72.938 42.9903 74.212C42.9903 75.57 44.0543 75.836 45.3003 76.116C46.0003 76.27 46.7003 76.452 46.7003 77.152C46.7003 77.866 45.9443 78.16 45.2583 78.16C44.4883 78.16 44.0123 77.81 43.5783 77.278L42.7103 77.95ZM56.8798 72.448H54.9478V70.586H53.8558V72.448H52.4278V73.372H53.8558V76.97C53.8558 78.328 54.1078 79.168 55.6618 79.168C56.0678 79.168 56.5578 79.098 56.9358 78.93L56.8938 77.936C56.5998 78.09 56.2498 78.16 55.9278 78.16C54.9618 78.16 54.9478 77.488 54.9478 76.648V73.372H56.8798V72.448ZM58.2176 79H59.3096V75.808C59.3096 74.31 59.9256 73.288 61.3396 73.288C62.3616 73.288 62.8376 73.974 62.8376 75.066V79H63.9296V74.954C63.9296 73.372 63.1596 72.28 61.4376 72.28C60.4156 72.28 59.6316 72.84 59.3376 73.358H59.3096V68.416H58.2176V79ZM71.0229 77.166C70.5049 77.824 69.8749 78.16 68.9369 78.16C67.7469 78.16 66.8789 77.194 66.7949 76.06H72.0869V75.71C72.0869 73.54 70.8269 72.28 68.9789 72.28C67.0469 72.28 65.6189 73.694 65.6189 75.724C65.6189 77.628 66.8789 79.168 68.9369 79.168C70.1549 79.168 71.0789 78.804 71.8489 77.81L71.0229 77.166ZM66.7949 75.136C66.9349 74.03 67.7329 73.288 68.9369 73.288C70.1409 73.288 70.8689 74.03 70.9109 75.136H66.7949ZM83.1187 79H84.2107V68.416H83.1187V73.4H83.0907C82.4887 72.7 81.6907 72.28 80.7387 72.28C78.6807 72.28 77.2947 73.736 77.2947 75.724C77.2947 77.684 78.7367 79.168 80.5707 79.168C81.7467 79.168 82.6847 78.58 83.0907 77.838H83.1187V79ZM83.1187 75.724C83.1187 77.096 82.2087 78.16 80.7947 78.16C79.3807 78.16 78.4707 77.096 78.4707 75.724C78.4707 74.352 79.3807 73.288 80.7947 73.288C82.2087 73.288 83.1187 74.352 83.1187 75.724ZM91.2573 77.166C90.7393 77.824 90.1093 78.16 89.1713 78.16C87.9813 78.16 87.1133 77.194 87.0293 76.06H92.3213V75.71C92.3213 73.54 91.0613 72.28 89.2133 72.28C87.2813 72.28 85.8533 73.694 85.8533 75.724C85.8533 77.628 87.1133 79.168 89.1713 79.168C90.3893 79.168 91.3133 78.804 92.0833 77.81L91.2573 77.166ZM87.0293 75.136C87.1693 74.03 87.9673 73.288 89.1713 73.288C90.3753 73.288 91.1033 74.03 91.1453 75.136H87.0293ZM93.2826 77.95C93.9266 78.874 94.7246 79.168 95.8306 79.168C97.1326 79.168 98.4486 78.594 98.4486 77.11C98.4486 75.794 97.4686 75.374 96.3066 75.15C95.4386 74.982 94.6546 74.744 94.6546 74.198C94.6546 73.582 95.3406 73.288 95.9426 73.288C96.5866 73.288 97.0486 73.61 97.3286 74.072L98.2386 73.47C97.7906 72.63 96.9366 72.28 96.0126 72.28C94.7946 72.28 93.5626 72.938 93.5626 74.212C93.5626 75.57 94.6266 75.836 95.8726 76.116C96.5726 76.27 97.2726 76.452 97.2726 77.152C97.2726 77.866 96.5166 78.16 95.8306 78.16C95.0606 78.16 94.5846 77.81 94.1506 77.278L93.2826 77.95ZM105.502 73.316C104.844 72.602 103.948 72.28 102.982 72.28C100.966 72.28 99.5935 73.736 99.5935 75.724C99.5935 77.74 100.952 79.168 102.982 79.168C103.934 79.168 104.83 78.846 105.46 78.118L104.648 77.348C104.242 77.908 103.696 78.16 102.982 78.16C101.652 78.16 100.77 77.068 100.77 75.724C100.77 74.38 101.512 73.288 102.982 73.288C103.64 73.288 104.172 73.526 104.634 74.086L105.502 73.316ZM106.725 79H107.817V75.808C107.817 74.31 108.405 73.372 109.735 73.372C109.931 73.372 110.141 73.4 110.323 73.456L110.393 72.35C110.239 72.294 110.085 72.28 109.945 72.28C108.867 72.28 108.055 72.882 107.761 73.526H107.733C107.733 73.162 107.705 72.798 107.705 72.448H106.669C106.669 72.882 106.725 73.4 106.725 74.002V79ZM111.745 79H112.837V72.448H111.745V79ZM111.493 69.886C111.493 70.348 111.829 70.684 112.291 70.684C112.753 70.684 113.089 70.348 113.089 69.886C113.089 69.452 112.739 69.088 112.291 69.088C111.843 69.088 111.493 69.452 111.493 69.886ZM114.955 82.192H116.047V77.838H116.075C116.481 78.58 117.419 79.168 118.595 79.168C120.429 79.168 121.871 77.684 121.871 75.724C121.871 73.736 120.485 72.28 118.427 72.28C117.475 72.28 116.677 72.7 116.075 73.4H116.047V72.448H114.955V82.192ZM116.047 75.724C116.047 74.352 116.957 73.288 118.371 73.288C119.785 73.288 120.695 74.352 120.695 75.724C120.695 77.096 119.785 78.16 118.371 78.16C116.957 78.16 116.047 77.096 116.047 75.724ZM127.153 72.448H125.221V70.586H124.129V72.448H122.701V73.372H124.129V76.97C124.129 78.328 124.381 79.168 125.935 79.168C126.341 79.168 126.831 79.098 127.209 78.93L127.167 77.936C126.873 78.09 126.523 78.16 126.201 78.16C125.235 78.16 125.221 77.488 125.221 76.648V73.372H127.153V72.448ZM128.589 79H129.681V72.448H128.589V79ZM128.337 69.886C128.337 70.348 128.673 70.684 129.135 70.684C129.597 70.684 129.933 70.348 129.933 69.886C129.933 69.452 129.583 69.088 129.135 69.088C128.687 69.088 128.337 69.452 128.337 69.886ZM131.476 75.724C131.476 77.768 132.96 79.168 134.976 79.168C136.992 79.168 138.476 77.768 138.476 75.724C138.476 73.68 136.992 72.28 134.976 72.28C132.96 72.28 131.476 73.68 131.476 75.724ZM132.652 75.724C132.652 74.352 133.562 73.288 134.976 73.288C136.39 73.288 137.3 74.352 137.3 75.724C137.3 77.096 136.39 78.16 134.976 78.16C133.562 78.16 132.652 77.096 132.652 75.724ZM140.167 79H141.259V75.808C141.259 74.31 141.875 73.288 143.289 73.288C144.311 73.288 144.787 73.974 144.787 75.066V79H145.879V74.954C145.879 73.372 145.109 72.28 143.387 72.28C142.309 72.28 141.497 72.882 141.203 73.526H141.175C141.175 73.162 141.147 72.798 141.147 72.448H140.111C140.111 72.882 140.167 73.4 140.167 74.002V79ZM152.445 74.002C152.963 73.526 153.691 73.288 154.391 73.288C155.413 73.288 156.015 73.778 156.015 74.73V74.926H155.595C153.985 74.926 151.465 75.052 151.465 77.222C151.465 78.496 152.571 79.168 153.901 79.168C154.895 79.168 155.623 78.692 156.057 78.02H156.085C156.085 78.3 156.085 78.706 156.155 79H157.205C157.149 78.664 157.107 78.244 157.107 77.866V75.052C157.107 73.204 156.295 72.28 154.363 72.28C153.411 72.28 152.431 72.602 151.759 73.288L152.445 74.002ZM156.015 75.85V76.27C155.987 77.334 155.343 78.244 154.083 78.244C153.257 78.244 152.641 77.936 152.641 77.11C152.641 76.228 153.537 75.85 154.923 75.85H156.015ZM159.102 79H160.194V75.808C160.194 74.31 160.782 73.372 162.112 73.372C162.308 73.372 162.518 73.4 162.7 73.456L162.77 72.35C162.616 72.294 162.462 72.28 162.322 72.28C161.244 72.28 160.432 72.882 160.138 73.526H160.11C160.11 73.162 160.082 72.798 160.082 72.448H159.046C159.046 72.882 159.102 73.4 159.102 74.002V79ZM168.804 77.166C168.286 77.824 167.656 78.16 166.718 78.16C165.528 78.16 164.66 77.194 164.576 76.06H169.868V75.71C169.868 73.54 168.608 72.28 166.76 72.28C164.828 72.28 163.4 73.694 163.4 75.724C163.4 77.628 164.66 79.168 166.718 79.168C167.936 79.168 168.86 78.804 169.63 77.81L168.804 77.166ZM164.576 75.136C164.716 74.03 165.514 73.288 166.718 73.288C167.922 73.288 168.65 74.03 168.692 75.136H164.576ZM172.159 74.002C172.677 73.526 173.405 73.288 174.105 73.288C175.127 73.288 175.729 73.778 175.729 74.73V74.926H175.309C173.699 74.926 171.179 75.052 171.179 77.222C171.179 78.496 172.285 79.168 173.615 79.168C174.609 79.168 175.337 78.692 175.771 78.02H175.799C175.799 78.3 175.799 78.706 175.869 79H176.919C176.863 78.664 176.821 78.244 176.821 77.866V75.052C176.821 73.204 176.009 72.28 174.077 72.28C173.125 72.28 172.145 72.602 171.473 73.288L172.159 74.002ZM175.729 75.85V76.27C175.701 77.334 175.057 78.244 173.797 78.244C172.971 78.244 172.355 77.936 172.355 77.11C172.355 76.228 173.251 75.85 174.637 75.85H175.729Z" fill="#333333"/>
</g>
<rect x="380.5" y="30.5" width="236" height="35" rx="3.5" fill="white"/>
<path d="M406.512 42.16C405.552 40.912 404.048 40.384 402.512 40.384C399.152 40.384 396.752 43.008 396.752 46.336C396.752 49.776 399.264 52.288 402.512 52.288C404.32 52.288 405.792 51.664 406.8 50.304L405.792 49.456C404.992 50.48 403.888 51.04 402.512 51.04C399.968 51.04 398.192 48.96 398.192 46.336C398.192 43.856 399.984 41.632 402.512 41.632C403.6 41.632 404.672 42.096 405.344 43.008L406.512 42.16ZM408.562 52H409.81V44.512H408.562V52ZM408.274 41.584C408.274 42.112 408.658 42.496 409.186 42.496C409.714 42.496 410.098 42.112 410.098 41.584C410.098 41.088 409.698 40.672 409.186 40.672C408.674 40.672 408.274 41.088 408.274 41.584ZM416.389 44.512H414.181V42.384H412.933V44.512H411.301V45.568H412.933V49.68C412.933 51.232 413.221 52.192 414.997 52.192C415.461 52.192 416.021 52.112 416.453 51.92L416.405 50.784C416.069 50.96 415.669 51.04 415.301 51.04C414.197 51.04 414.181 50.272 414.181 49.312V45.568H416.389V44.512ZM424.286 44.512H422.926L420.702 50.384H420.67L418.35 44.512H416.894L419.998 52.048L419.486 53.456C419.214 54.192 418.91 54.688 418.094 54.688C417.742 54.688 417.47 54.656 417.214 54.56L417.054 55.648C417.39 55.808 417.822 55.84 418.174 55.84C419.678 55.84 420.174 54.976 420.67 53.712L424.286 44.512Z" fill="#616C7F"/>
<rect x="429" y="35.5" width="86" height="25" rx="12.5" fill="#E6E6E6"/>
<path d="M444.2 42.498C443.472 41.644 442.534 41.336 441.428 41.336C439.692 41.336 438.054 42.288 438.054 44.192C438.054 45.844 439.118 46.46 440.518 46.922C442.282 47.51 443.108 47.72 443.108 48.938C443.108 50.072 441.96 50.66 440.952 50.66C440.098 50.66 439.258 50.282 438.838 49.554L437.83 50.38C438.502 51.374 439.734 51.752 440.882 51.752C442.674 51.752 444.368 50.828 444.368 48.854C444.368 46.908 442.94 46.404 441.4 45.914C439.818 45.41 439.314 45.004 439.314 44.094C439.314 42.918 440.392 42.428 441.428 42.428C442.142 42.428 442.842 42.708 443.234 43.338L444.2 42.498ZM451.685 44.948H450.495L448.549 50.086H448.521L446.491 44.948H445.217L447.933 51.542L447.485 52.774C447.247 53.418 446.981 53.852 446.267 53.852C445.959 53.852 445.721 53.824 445.497 53.74L445.357 54.692C445.651 54.832 446.029 54.86 446.337 54.86C447.653 54.86 448.087 54.104 448.521 52.998L451.685 44.948ZM458.313 51.5H459.405V40.916H458.313V45.9H458.285C457.683 45.2 456.885 44.78 455.933 44.78C453.875 44.78 452.489 46.236 452.489 48.224C452.489 50.184 453.931 51.668 455.765 51.668C456.941 51.668 457.879 51.08 458.285 50.338H458.313V51.5ZM458.313 48.224C458.313 49.596 457.403 50.66 455.989 50.66C454.575 50.66 453.665 49.596 453.665 48.224C453.665 46.852 454.575 45.788 455.989 45.788C457.403 45.788 458.313 46.852 458.313 48.224ZM461.426 51.5H462.518V48.308C462.518 46.81 463.134 45.788 464.548 45.788C465.57 45.788 466.046 46.474 466.046 47.566V51.5H467.138V47.454C467.138 45.872 466.368 44.78 464.646 44.78C463.568 44.78 462.756 45.382 462.462 46.026H462.434C462.434 45.662 462.406 45.298 462.406 44.948H461.37C461.37 45.382 461.426 45.9 461.426 46.502V51.5ZM474.231 49.666C473.713 50.324 473.083 50.66 472.145 50.66C470.955 50.66 470.087 49.694 470.003 48.56H475.295V48.21C475.295 46.04 474.035 44.78 472.187 44.78C470.255 44.78 468.827 46.194 468.827 48.224C468.827 50.128 470.087 51.668 472.145 51.668C473.363 51.668 474.287 51.304 475.057 50.31L474.231 49.666ZM470.003 47.636C470.143 46.53 470.941 45.788 472.145 45.788C473.349 45.788 474.077 46.53 474.119 47.636H470.003ZM482.556 44.948H481.366L479.42 50.086H479.392L477.362 44.948H476.088L478.804 51.542L478.356 52.774C478.118 53.418 477.852 53.852 477.138 53.852C476.83 53.852 476.592 53.824 476.368 53.74L476.228 54.692C476.522 54.832 476.9 54.86 477.208 54.86C478.524 54.86 478.958 54.104 479.392 52.998L482.556 44.948Z" fill="#333333"/>
<path d="M499 54C497.813 54 496.653 53.6481 495.667 52.9888C494.68 52.3295 493.911 51.3925 493.457 50.2961C493.003 49.1997 492.884 47.9933 493.115 46.8295C493.347 45.6656 493.918 44.5965 494.757 43.7574C495.596 42.9182 496.666 42.3468 497.829 42.1153C498.993 41.8838 500.2 42.0026 501.296 42.4567C502.392 42.9109 503.33 43.6799 503.989 44.6666C504.648 45.6533 505 46.8133 505 48C505 49.5913 504.368 51.1174 503.243 52.2426C502.117 53.3679 500.591 54 499 54V54ZM499 43C498.011 43 497.044 43.2932 496.222 43.8427C495.4 44.3921 494.759 45.173 494.381 46.0866C494.002 47.0002 493.903 48.0055 494.096 48.9755C494.289 49.9454 494.765 50.8363 495.464 51.5355C496.164 52.2348 497.055 52.711 498.025 52.9039C498.994 53.0969 500 52.9978 500.913 52.6194C501.827 52.241 502.608 51.6001 503.157 50.7779C503.707 49.9556 504 48.9889 504 48C504 46.6739 503.473 45.4022 502.536 44.4645C501.598 43.5268 500.326 43 499 43Z" fill="#333333"/>
<path d="M497 50.5002C496.934 50.5005 496.869 50.4877 496.808 50.4625C496.747 50.4373 496.692 50.4003 496.646 50.3536C496.553 50.2598 496.5 50.1327 496.5 50.0002C496.5 49.8677 496.553 49.7406 496.646 49.6469L500.646 45.6469C500.741 45.5586 500.866 45.5105 500.996 45.5128C501.125 45.5151 501.249 45.5675 501.341 45.6591C501.432 45.7508 501.485 45.8743 501.487 46.0039C501.489 46.1334 501.441 46.2588 501.353 46.3536L497.353 50.3536C497.307 50.4003 497.252 50.4373 497.191 50.4625C497.13 50.4877 497.065 50.5005 497 50.5002Z" fill="#333333"/>
<path d="M501 50.5002C500.935 50.5005 500.869 50.4877 500.809 50.4625C500.748 50.4373 500.693 50.4003 500.647 50.3536L496.647 46.3536C496.559 46.2588 496.51 46.1334 496.513 46.0039C496.515 45.8743 496.568 45.7508 496.659 45.6591C496.751 45.5675 496.874 45.5151 497.004 45.5128C497.133 45.5105 497.259 45.5586 497.354 45.6469L501.354 49.6469C501.447 49.7406 501.5 49.8677 501.5 50.0002C501.5 50.1327 501.447 50.2598 501.354 50.3536C501.307 50.4003 501.252 50.4373 501.192 50.4625C501.131 50.4877 501.066 50.5005 501 50.5002V50.5002Z" fill="#333333"/>
<rect x="519" y="35.5" width="58" height="25" rx="12.5" fill="#E6E6E6"/>
<path d="M528.456 47.72H531.648V50.912H532.572V47.72H535.764V46.796H532.572V43.604H531.648V46.796H528.456V47.72ZM537.472 51.5H543.856V50.408H538.802V50.38L541.854 47.51C542.848 46.572 543.786 45.69 543.786 44.108C543.786 42.344 542.4 41.42 540.762 41.42C539.166 41.42 537.92 42.274 537.654 43.898L538.928 44.01C539.11 43.058 539.81 42.428 540.804 42.428C541.798 42.428 542.61 43.072 542.61 44.108C542.61 45.074 542.148 45.606 541.21 46.516L537.472 50.156V51.5Z" fill="#333333"/>
<path d="M561 54C559.813 54 558.653 53.6481 557.667 52.9888C556.68 52.3295 555.911 51.3925 555.457 50.2961C555.003 49.1997 554.884 47.9933 555.115 46.8295C555.347 45.6656 555.918 44.5965 556.757 43.7574C557.596 42.9182 558.666 42.3468 559.829 42.1153C560.993 41.8838 562.2 42.0026 563.296 42.4567C564.392 42.9109 565.33 43.6799 565.989 44.6666C566.648 45.6533 567 46.8133 567 48C567 49.5913 566.368 51.1174 565.243 52.2426C564.117 53.3679 562.591 54 561 54V54ZM561 43C560.011 43 559.044 43.2932 558.222 43.8427C557.4 44.3921 556.759 45.173 556.381 46.0866C556.002 47.0002 555.903 48.0055 556.096 48.9755C556.289 49.9454 556.765 50.8363 557.464 51.5355C558.164 52.2348 559.055 52.711 560.025 52.9039C560.994 53.0969 562 52.9978 562.913 52.6194C563.827 52.241 564.608 51.6001 565.157 50.7779C565.707 49.9556 566 48.9889 566 48C566 46.6739 565.473 45.4022 564.536 44.4645C563.598 43.5268 562.326 43 561 43Z" fill="#333333"/>
<path d="M559 50.5002C558.934 50.5005 558.869 50.4877 558.808 50.4625C558.747 50.4373 558.692 50.4003 558.646 50.3536C558.553 50.2598 558.5 50.1327 558.5 50.0002C558.5 49.8677 558.553 49.7406 558.646 49.6469L562.646 45.6469C562.741 45.5586 562.866 45.5105 562.996 45.5128C563.125 45.5151 563.249 45.5675 563.341 45.6591C563.432 45.7508 563.485 45.8743 563.487 46.0039C563.489 46.1334 563.441 46.2588 563.353 46.3536L559.353 50.3536C559.307 50.4003 559.252 50.4373 559.191 50.4625C559.13 50.4877 559.065 50.5005 559 50.5002Z" fill="#333333"/>
<path d="M563 50.5002C562.935 50.5005 562.869 50.4877 562.809 50.4625C562.748 50.4373 562.693 50.4003 562.647 50.3536L558.647 46.3536C558.559 46.2588 558.51 46.1334 558.513 46.0039C558.515 45.8743 558.568 45.7508 558.659 45.6591C558.751 45.5675 558.874 45.5151 559.004 45.5128C559.133 45.5105 559.259 45.5586 559.354 45.6469L563.354 49.6469C563.447 49.7406 563.5 49.8677 563.5 50.0002C563.5 50.1327 563.447 50.2598 563.354 50.3536C563.307 50.4003 563.252 50.4373 563.192 50.4625C563.131 50.4877 563.066 50.5005 563 50.5002V50.5002Z" fill="#333333"/>
<path d="M586 45.5L591 50.5L596 45.5" stroke="#6B778C" stroke-width="2" stroke-linecap="round" stroke-linejoin="round"/>
<rect x="380.5" y="30.5" width="236" height="35" rx="3.5" stroke="#9EA6B5"/>
<g filter="url(#filter0_dd_152_27248)">
<g clip-path="url(#clip2_152_27248)">
<rect width="320" height="36" transform="translate(10 68)" fill="#E6E6E6"/>
<rect x="26" y="76" width="20" height="20" rx="6" fill="#EDE9ED"/>
<path d="M30 76.5H42C43.933 76.5 45.5 78.067 45.5 80V92C45.5 93.933 43.933 95.5 42 95.5H30C28.067 95.5 26.5 93.933 26.5 92V80C26.5 78.067 28.067 76.5 30 76.5Z" stroke="#6C3078"/>
<path d="M34.0757 90.7728L30.1757 86.8728C29.9414 86.6385 29.9414 86.2586 30.1757 86.0243L31.0242 85.1757C31.2585 84.9414 31.6385 84.9414 31.8728 85.1757L34.5 87.8029L40.1272 82.1757C40.3615 81.9414 40.7415 81.9414 40.9758 82.1757L41.8243 83.0243C42.0586 83.2586 42.0586 83.6385 41.8243 83.8728L34.9243 90.7728C34.6899 91.0071 34.31 91.0071 34.0757 90.7728Z" fill="#6C3078"/>
<path d="M60.902 80.498C60.174 79.644 59.236 79.336 58.13 79.336C56.394 79.336 54.756 80.288 54.756 82.192C54.756 83.844 55.82 84.46 57.22 84.922C58.984 85.51 59.81 85.72 59.81 86.938C59.81 88.072 58.662 88.66 57.654 88.66C56.8 88.66 55.96 88.282 55.54 87.554L54.532 88.38C55.204 89.374 56.436 89.752 57.584 89.752C59.376 89.752 61.07 88.828 61.07 86.854C61.07 84.908 59.642 84.404 58.102 83.914C56.52 83.41 56.016 83.004 56.016 82.094C56.016 80.918 57.094 80.428 58.13 80.428C58.844 80.428 59.544 80.708 59.936 81.338L60.902 80.498ZM68.3873 82.948H67.1973L65.2513 88.086H65.2233L63.1933 82.948H61.9193L64.6353 89.542L64.1873 90.774C63.9493 91.418 63.6833 91.852 62.9693 91.852C62.6613 91.852 62.4233 91.824 62.1993 91.74L62.0593 92.692C62.3533 92.832 62.7313 92.86 63.0393 92.86C64.3553 92.86 64.7893 92.104 65.2233 90.998L68.3873 82.948ZM75.0152 89.5H76.1072V78.916H75.0152V83.9H74.9872C74.3852 83.2 73.5872 82.78 72.6352 82.78C70.5772 82.78 69.1912 84.236 69.1912 86.224C69.1912 88.184 70.6332 89.668 72.4672 89.668C73.6432 89.668 74.5812 89.08 74.9872 88.338H75.0152V89.5ZM75.0152 86.224C75.0152 87.596 74.1052 88.66 72.6912 88.66C71.2772 88.66 70.3672 87.596 70.3672 86.224C70.3672 84.852 71.2772 83.788 72.6912 83.788C74.1052 83.788 75.0152 84.852 75.0152 86.224ZM78.1278 89.5H79.2198V86.308C79.2198 84.81 79.8358 83.788 81.2498 83.788C82.2718 83.788 82.7478 84.474 82.7478 85.566V89.5H83.8398V85.454C83.8398 83.872 83.0698 82.78 81.3478 82.78C80.2698 82.78 79.4578 83.382 79.1638 84.026H79.1358C79.1358 83.662 79.1078 83.298 79.1078 82.948H78.0718C78.0718 83.382 78.1278 83.9 78.1278 84.502V89.5ZM90.9331 87.666C90.4151 88.324 89.7851 88.66 88.8471 88.66C87.6571 88.66 86.7891 87.694 86.7051 86.56H91.9971V86.21C91.9971 84.04 90.7371 82.78 88.8891 82.78C86.9571 82.78 85.5291 84.194 85.5291 86.224C85.5291 88.128 86.7891 89.668 88.8471 89.668C90.0651 89.668 90.9891 89.304 91.7591 88.31L90.9331 87.666ZM86.7051 85.636C86.8451 84.53 87.6431 83.788 88.8471 83.788C90.0511 83.788 90.7791 84.53 90.8211 85.636H86.7051ZM99.2584 82.948H98.0684L96.1224 88.086H96.0944L94.0644 82.948H92.7904L95.5064 89.542L95.0584 90.774C94.8204 91.418 94.5544 91.852 93.8404 91.852C93.5324 91.852 93.2944 91.824 93.0704 91.74L92.9304 92.692C93.2244 92.832 93.6024 92.86 93.9104 92.86C95.2264 92.86 95.6604 92.104 96.0944 90.998L99.2584 82.948Z" fill="#333333"/>
<rect width="320" height="36" transform="translate(10 104)" fill="#E6E6E6"/>
<rect x="26" y="112" width="20" height="20" rx="6" fill="#EDE9ED"/>
<path d="M30 112.5H42C43.933 112.5 45.5 114.067 45.5 116V128C45.5 129.933 43.933 131.5 42 131.5H30C28.067 131.5 26.5 129.933 26.5 128V116C26.5 114.067 28.067 112.5 30 112.5Z" stroke="#6C3078"/>
<path d="M34.0757 126.773L30.1757 122.873C29.9414 122.638 29.9414 122.259 30.1757 122.024L31.0242 121.176C31.2585 120.941 31.6385 120.941 31.8728 121.176L34.5 123.803L40.1272 118.176C40.3615 117.941 40.7415 117.941 40.9758 118.176L41.8243 119.024C42.0586 119.259 42.0586 119.638 41.8243 119.873L34.9243 126.773C34.6899 127.007 34.31 127.007 34.0757 126.773Z" fill="#6C3078"/>
<path d="M55.232 125.5H56.408V117.184H56.436L59.992 125.5H60.706L64.262 117.184H64.29V125.5H65.466V115.588H63.758L60.37 123.358H60.342L56.982 115.588H55.232V125.5ZM72.7632 123.666C72.2452 124.324 71.6152 124.66 70.6772 124.66C69.4872 124.66 68.6192 123.694 68.5352 122.56H73.8272V122.21C73.8272 120.04 72.5672 118.78 70.7192 118.78C68.7872 118.78 67.3592 120.194 67.3592 122.224C67.3592 124.128 68.6192 125.668 70.6772 125.668C71.8952 125.668 72.8192 125.304 73.5892 124.31L72.7632 123.666ZM68.5352 121.636C68.6752 120.53 69.4732 119.788 70.6772 119.788C71.8812 119.788 72.6092 120.53 72.6512 121.636H68.5352ZM75.6145 125.5H76.7065V114.916H75.6145V125.5ZM78.8238 125.5H79.9158V124.338H79.9438C80.3498 125.08 81.2878 125.668 82.4638 125.668C84.2978 125.668 85.7398 124.184 85.7398 122.224C85.7398 120.236 84.3538 118.78 82.2958 118.78C81.3438 118.78 80.5458 119.2 79.9438 119.9H79.9158V114.916H78.8238V125.5ZM79.9158 122.224C79.9158 120.852 80.8258 119.788 82.2398 119.788C83.6538 119.788 84.5638 120.852 84.5638 122.224C84.5638 123.596 83.6538 124.66 82.2398 124.66C80.8258 124.66 79.9158 123.596 79.9158 122.224ZM87.0603 122.224C87.0603 124.268 88.5443 125.668 90.5603 125.668C92.5763 125.668 94.0603 124.268 94.0603 122.224C94.0603 120.18 92.5763 118.78 90.5603 118.78C88.5443 118.78 87.0603 120.18 87.0603 122.224ZM88.2363 122.224C88.2363 120.852 89.1463 119.788 90.5603 119.788C91.9743 119.788 92.8843 120.852 92.8843 122.224C92.8843 123.596 91.9743 124.66 90.5603 124.66C89.1463 124.66 88.2363 123.596 88.2363 122.224ZM101.463 118.948H100.371V122.14C100.371 123.638 99.7548 124.66 98.3408 124.66C97.3188 124.66 96.8428 123.974 96.8428 122.882V118.948H95.7508V122.994C95.7508 124.576 96.5208 125.668 98.2428 125.668C99.3208 125.668 100.133 125.066 100.427 124.422H100.455C100.455 124.786 100.483 125.15 100.483 125.5H101.519C101.519 125.066 101.463 124.548 101.463 123.946V118.948ZM103.53 125.5H104.622V122.308C104.622 120.81 105.21 119.872 106.54 119.872C106.736 119.872 106.946 119.9 107.128 119.956L107.198 118.85C107.044 118.794 106.89 118.78 106.75 118.78C105.672 118.78 104.86 119.382 104.566 120.026H104.538C104.538 119.662 104.51 119.298 104.51 118.948H103.474C103.474 119.382 103.53 119.9 103.53 120.502V125.5ZM108.452 125.5H109.544V122.308C109.544 120.81 110.16 119.788 111.574 119.788C112.596 119.788 113.072 120.474 113.072 121.566V125.5H114.164V121.454C114.164 119.872 113.394 118.78 111.672 118.78C110.594 118.78 109.782 119.382 109.488 120.026H109.46C109.46 119.662 109.432 119.298 109.432 118.948H108.396C108.396 119.382 108.452 119.9 108.452 120.502V125.5ZM121.257 123.666C120.739 124.324 120.109 124.66 119.171 124.66C117.981 124.66 117.113 123.694 117.029 122.56H122.321V122.21C122.321 120.04 121.061 118.78 119.213 118.78C117.281 118.78 115.853 120.194 115.853 122.224C115.853 124.128 117.113 125.668 119.171 125.668C120.389 125.668 121.313 125.304 122.083 124.31L121.257 123.666ZM117.029 121.636C117.169 120.53 117.967 119.788 119.171 119.788C120.375 119.788 121.103 120.53 121.145 121.636H117.029Z" fill="#333333"/>
<rect width="320" height="36" transform="translate(10 140)" fill="#E6E6E6"/>
<rect x="26" y="148" width="20" height="20" rx="6" fill="#EDE9ED"/>
<path d="M30 148.5H42C43.933 148.5 45.5 150.067 45.5 152V164C45.5 165.933 43.933 167.5 42 167.5H30C28.067 167.5 26.5 165.933 26.5 164V152C26.5 150.067 28.067 148.5 30 148.5Z" stroke="#6C3078"/>
<path d="M34.0757 162.773L30.1757 158.873C29.9414 158.638 29.9414 158.259 30.1757 158.024L31.0242 157.176C31.2585 156.941 31.6385 156.941 31.8728 157.176L34.5 159.803L40.1272 154.176C40.3615 153.941 40.7415 153.941 40.9758 154.176L41.8243 155.024C42.0586 155.259 42.0586 155.638 41.8243 155.873L34.9243 162.773C34.6899 163.007 34.31 163.007 34.0757 162.773Z" fill="#6C3078"/>
<path d="M55.232 161.5H58.186C60.02 161.5 62.05 160.912 62.05 158.728C62.05 157.426 61.084 156.404 59.81 156.292V156.264C60.874 155.942 61.546 155.172 61.546 154.024C61.546 152.204 59.894 151.588 58.256 151.588H55.232V161.5ZM56.408 152.68H58.158C59.222 152.68 60.286 152.96 60.286 154.178C60.286 155.55 59.138 155.788 58.032 155.788H56.408V152.68ZM56.408 156.88H58.424C59.614 156.88 60.79 157.3 60.79 158.686C60.79 159.946 59.544 160.408 58.396 160.408H56.408V156.88ZM63.8544 161.5H64.9464V158.308C64.9464 156.81 65.5344 155.872 66.8644 155.872C67.0604 155.872 67.2704 155.9 67.4524 155.956L67.5224 154.85C67.3684 154.794 67.2144 154.78 67.0744 154.78C65.9964 154.78 65.1844 155.382 64.8904 156.026H64.8624C64.8624 155.662 64.8344 155.298 64.8344 154.948H63.7984C63.7984 155.382 63.8544 155.9 63.8544 156.502V161.5ZM68.8742 161.5H69.9662V154.948H68.8742V161.5ZM68.6222 152.386C68.6222 152.848 68.9582 153.184 69.4202 153.184C69.8822 153.184 70.2182 152.848 70.2182 152.386C70.2182 151.952 69.8682 151.588 69.4202 151.588C68.9722 151.588 68.6222 151.952 68.6222 152.386ZM71.4115 160.45C72.0555 161.374 72.8535 161.668 73.9595 161.668C75.2615 161.668 76.5775 161.094 76.5775 159.61C76.5775 158.294 75.5975 157.874 74.4355 157.65C73.5675 157.482 72.7835 157.244 72.7835 156.698C72.7835 156.082 73.4695 155.788 74.0715 155.788C74.7155 155.788 75.1775 156.11 75.4575 156.572L76.3675 155.97C75.9195 155.13 75.0655 154.78 74.1415 154.78C72.9235 154.78 71.6915 155.438 71.6915 156.712C71.6915 158.07 72.7555 158.336 74.0015 158.616C74.7015 158.77 75.4015 158.952 75.4015 159.652C75.4015 160.366 74.6455 160.66 73.9595 160.66C73.1895 160.66 72.7135 160.31 72.2795 159.778L71.4115 160.45ZM78.0445 161.5H79.1365V160.338H79.1645C79.5705 161.08 80.5085 161.668 81.6845 161.668C83.5185 161.668 84.9605 160.184 84.9605 158.224C84.9605 156.236 83.5745 154.78 81.5165 154.78C80.5645 154.78 79.7665 155.2 79.1645 155.9H79.1365V150.916H78.0445V161.5ZM79.1365 158.224C79.1365 156.852 80.0465 155.788 81.4605 155.788C82.8745 155.788 83.7845 156.852 83.7845 158.224C83.7845 159.596 82.8745 160.66 81.4605 160.66C80.0465 160.66 79.1365 159.596 79.1365 158.224ZM87.261 156.502C87.779 156.026 88.507 155.788 89.207 155.788C90.229 155.788 90.831 156.278 90.831 157.23V157.426H90.411C88.801 157.426 86.281 157.552 86.281 159.722C86.281 160.996 87.387 161.668 88.717 161.668C89.711 161.668 90.439 161.192 90.873 160.52H90.901C90.901 160.8 90.901 161.206 90.971 161.5H92.021C91.965 161.164 91.923 160.744 91.923 160.366V157.552C91.923 155.704 91.111 154.78 89.179 154.78C88.227 154.78 87.247 155.102 86.575 155.788L87.261 156.502ZM90.831 158.35V158.77C90.803 159.834 90.159 160.744 88.899 160.744C88.073 160.744 87.457 160.436 87.457 159.61C87.457 158.728 88.353 158.35 89.739 158.35H90.831ZM93.9188 161.5H95.0108V158.308C95.0108 156.81 95.6268 155.788 97.0408 155.788C98.0628 155.788 98.5388 156.474 98.5388 157.566V161.5H99.6308V157.454C99.6308 155.872 98.8608 154.78 97.1388 154.78C96.0608 154.78 95.2488 155.382 94.9548 156.026H94.9268C94.9268 155.662 94.8988 155.298 94.8988 154.948H93.8628C93.8628 155.382 93.9188 155.9 93.9188 156.502V161.5ZM106.724 159.666C106.206 160.324 105.576 160.66 104.638 160.66C103.448 160.66 102.58 159.694 102.496 158.56H107.788V158.21C107.788 156.04 106.528 154.78 104.68 154.78C102.748 154.78 101.32 156.194 101.32 158.224C101.32 160.128 102.58 161.668 104.638 161.668C105.856 161.668 106.78 161.304 107.55 160.31L106.724 159.666ZM102.496 157.636C102.636 156.53 103.434 155.788 104.638 155.788C105.842 155.788 106.57 156.53 106.612 157.636H102.496Z" fill="#333333"/>
<rect width="320" height="36" transform="translate(10 176)" fill="white"/>
<rect x="26.5" y="184.5" width="19" height="19" rx="3.5" fill="white" stroke="#9EA6B5"/>
<path d="M55.232 197.5H56.408V193.048H58.396C59.796 193.048 61.644 192.474 61.644 190.304C61.644 188.232 59.992 187.588 58.172 187.588H55.232V197.5ZM56.408 188.68H58.396C59.572 188.68 60.384 189.212 60.384 190.318C60.384 191.424 59.572 191.956 58.396 191.956H56.408V188.68ZM68.3608 195.666C67.8428 196.324 67.2128 196.66 66.2748 196.66C65.0848 196.66 64.2168 195.694 64.1328 194.56H69.4248V194.21C69.4248 192.04 68.1648 190.78 66.3168 190.78C64.3848 190.78 62.9568 192.194 62.9568 194.224C62.9568 196.128 64.2168 197.668 66.2748 197.668C67.4928 197.668 68.4168 197.304 69.1868 196.31L68.3608 195.666ZM64.1328 193.636C64.2728 192.53 65.0708 191.788 66.2748 191.788C67.4788 191.788 68.2068 192.53 68.2488 193.636H64.1328ZM71.1141 197.5H72.2061V194.308C72.2061 192.81 72.7941 191.872 74.1241 191.872C74.3201 191.872 74.5301 191.9 74.7121 191.956L74.7821 190.85C74.6281 190.794 74.4741 190.78 74.3341 190.78C73.2561 190.78 72.4441 191.382 72.1501 192.026H72.1221C72.1221 191.662 72.0941 191.298 72.0941 190.948H71.0581C71.0581 191.382 71.1141 191.9 71.1141 192.502V197.5ZM79.62 190.948H77.688V189.086H76.596V190.948H75.168V191.872H76.596V195.47C76.596 196.828 76.848 197.668 78.402 197.668C78.808 197.668 79.298 197.598 79.676 197.43L79.634 196.436C79.34 196.59 78.99 196.66 78.668 196.66C77.702 196.66 77.688 195.988 77.688 195.148V191.872H79.62V190.948ZM80.9579 197.5H82.0499V194.308C82.0499 192.81 82.6659 191.788 84.0799 191.788C85.1019 191.788 85.5779 192.474 85.5779 193.566V197.5H86.6699V193.454C86.6699 191.872 85.8999 190.78 84.1779 190.78C83.1559 190.78 82.3719 191.34 82.0779 191.858H82.0499V186.916H80.9579V197.5Z" fill="#333333"/>
<rect width="320" height="36" transform="translate(10 212)" fill="white"/>
<rect x="26.5" y="220.5" width="19" height="19" rx="3.5" fill="white" stroke="#9EA6B5"/>
<path d="M61.882 223.588H54.154V224.68H57.43V233.5H58.606V224.68H61.882V223.588ZM62.1185 228.502C62.6365 228.026 63.3645 227.788 64.0645 227.788C65.0865 227.788 65.6885 228.278 65.6885 229.23V229.426H65.2685C63.6585 229.426 61.1385 229.552 61.1385 231.722C61.1385 232.996 62.2445 233.668 63.5745 233.668C64.5685 233.668 65.2965 233.192 65.7305 232.52H65.7585C65.7585 232.8 65.7585 233.206 65.8285 233.5H66.8785C66.8225 233.164 66.7805 232.744 66.7805 232.366V229.552C66.7805 227.704 65.9685 226.78 64.0365 226.78C63.0845 226.78 62.1045 227.102 61.4325 227.788L62.1185 228.502ZM65.6885 230.35V230.77C65.6605 231.834 65.0165 232.744 63.7565 232.744C62.9305 232.744 62.3145 232.436 62.3145 231.61C62.3145 230.728 63.2105 230.35 64.5965 230.35H65.6885ZM68.0482 232.45C68.6922 233.374 69.4902 233.668 70.5962 233.668C71.8982 233.668 73.2142 233.094 73.2142 231.61C73.2142 230.294 72.2342 229.874 71.0722 229.65C70.2042 229.482 69.4202 229.244 69.4202 228.698C69.4202 228.082 70.1062 227.788 70.7082 227.788C71.3522 227.788 71.8142 228.11 72.0942 228.572L73.0042 227.97C72.5562 227.13 71.7022 226.78 70.7782 226.78C69.5602 226.78 68.3282 227.438 68.3282 228.712C68.3282 230.07 69.3922 230.336 70.6382 230.616C71.3382 230.77 72.0382 230.952 72.0382 231.652C72.0382 232.366 71.2822 232.66 70.5962 232.66C69.8262 232.66 69.3502 232.31 68.9162 231.778L68.0482 232.45ZM74.7372 233.5H75.8292V230.308C75.8292 228.81 76.4452 227.788 77.8592 227.788C78.7552 227.788 79.1192 228.348 79.1192 229.79V233.5H80.2112V229.72C80.2112 228.544 80.9812 227.788 81.9052 227.788C83.1792 227.788 83.5012 228.67 83.5012 229.58V233.5H84.5932V229.524C84.5932 227.83 83.9772 226.78 82.1012 226.78C81.1072 226.78 80.5052 227.256 80.0292 228.026C79.8192 227.578 79.3712 226.78 77.9572 226.78C76.8792 226.78 76.0672 227.382 75.7732 228.026H75.7452C75.7452 227.662 75.7172 227.298 75.7172 226.948H74.6812C74.6812 227.382 74.7372 227.9 74.7372 228.502V233.5ZM87.261 228.502C87.779 228.026 88.507 227.788 89.207 227.788C90.229 227.788 90.831 228.278 90.831 229.23V229.426H90.411C88.801 229.426 86.281 229.552 86.281 231.722C86.281 232.996 87.387 233.668 88.717 233.668C89.711 233.668 90.439 233.192 90.873 232.52H90.901C90.901 232.8 90.901 233.206 90.971 233.5H92.021C91.965 233.164 91.923 232.744 91.923 232.366V229.552C91.923 227.704 91.111 226.78 89.179 226.78C88.227 226.78 87.247 227.102 86.575 227.788L87.261 228.502ZM90.831 230.35V230.77C90.803 231.834 90.159 232.744 88.899 232.744C88.073 232.744 87.457 232.436 87.457 231.61C87.457 230.728 88.353 230.35 89.739 230.35H90.831ZM93.9188 233.5H95.0108V230.308C95.0108 228.81 95.6268 227.788 97.0408 227.788C98.0628 227.788 98.5388 228.474 98.5388 229.566V233.5H99.6308V229.454C99.6308 227.872 98.8608 226.78 97.1388 226.78C96.0608 226.78 95.2488 227.382 94.9548 228.026H94.9268C94.9268 227.662 94.8988 227.298 94.8988 226.948H93.8628C93.8628 227.382 93.9188 227.9 93.9188 228.502V233.5ZM101.796 233.5H102.888V226.948H101.796V233.5ZM101.544 224.386C101.544 224.848 101.88 225.184 102.342 225.184C102.804 225.184 103.14 224.848 103.14 224.386C103.14 223.952 102.79 223.588 102.342 223.588C101.894 223.588 101.544 223.952 101.544 224.386ZM105.663 228.502C106.181 228.026 106.909 227.788 107.609 227.788C108.631 227.788 109.233 228.278 109.233 229.23V229.426H108.813C107.203 229.426 104.683 229.552 104.683 231.722C104.683 232.996 105.789 233.668 107.119 233.668C108.113 233.668 108.841 233.192 109.275 232.52H109.303C109.303 232.8 109.303 233.206 109.373 233.5H110.423C110.367 233.164 110.325 232.744 110.325 232.366V229.552C110.325 227.704 109.513 226.78 107.581 226.78C106.629 226.78 105.649 227.102 104.977 227.788L105.663 228.502ZM109.233 230.35V230.77C109.205 231.834 108.561 232.744 107.301 232.744C106.475 232.744 105.859 232.436 105.859 231.61C105.859 230.728 106.755 230.35 108.141 230.35H109.233Z" fill="#333333"/>
<rect width="320" height="36" transform="translate(10 248)" fill="white"/>
<rect x="26.5" y="256.5" width="19" height="19" rx="3.5" fill="white" stroke="#9EA6B5"/>
<path d="M54.084 269.5H55.414L56.436 267.064H61.392L62.4 269.5H63.772L59.558 259.588H58.452L54.084 269.5ZM60.944 265.972H56.898L58.956 261.1H58.984L60.944 265.972ZM70.3394 269.5H71.4314V258.916H70.3394V263.9H70.3114C69.7094 263.2 68.9114 262.78 67.9594 262.78C65.9014 262.78 64.5154 264.236 64.5154 266.224C64.5154 268.184 65.9574 269.668 67.7914 269.668C68.9674 269.668 69.9054 269.08 70.3114 268.338H70.3394V269.5ZM70.3394 266.224C70.3394 267.596 69.4294 268.66 68.0154 268.66C66.6014 268.66 65.6914 267.596 65.6914 266.224C65.6914 264.852 66.6014 263.788 68.0154 263.788C69.4294 263.788 70.3394 264.852 70.3394 266.224ZM78.478 267.666C77.96 268.324 77.33 268.66 76.392 268.66C75.202 268.66 74.334 267.694 74.25 266.56H79.542V266.21C79.542 264.04 78.282 262.78 76.434 262.78C74.502 262.78 73.074 264.194 73.074 266.224C73.074 268.128 74.334 269.668 76.392 269.668C77.61 269.668 78.534 269.304 79.304 268.31L78.478 267.666ZM74.25 265.636C74.39 264.53 75.188 263.788 76.392 263.788C77.596 263.788 78.324 264.53 78.366 265.636H74.25ZM81.3293 269.5H82.4213V258.916H81.3293V269.5ZM85.1966 264.502C85.7146 264.026 86.4426 263.788 87.1426 263.788C88.1646 263.788 88.7666 264.278 88.7666 265.23V265.426H88.3466C86.7366 265.426 84.2166 265.552 84.2166 267.722C84.2166 268.996 85.3226 269.668 86.6526 269.668C87.6466 269.668 88.3746 269.192 88.8086 268.52H88.8366C88.8366 268.8 88.8366 269.206 88.9066 269.5H89.9566C89.9006 269.164 89.8586 268.744 89.8586 268.366V265.552C89.8586 263.704 89.0466 262.78 87.1146 262.78C86.1626 262.78 85.1826 263.102 84.5106 263.788L85.1966 264.502ZM88.7666 266.35V266.77C88.7386 267.834 88.0946 268.744 86.8346 268.744C86.0086 268.744 85.3926 268.436 85.3926 267.61C85.3926 266.728 86.2886 266.35 87.6746 266.35H88.7666ZM91.9524 269.5H93.0444V262.948H91.9524V269.5ZM91.7004 260.386C91.7004 260.848 92.0364 261.184 92.4984 261.184C92.9604 261.184 93.2964 260.848 93.2964 260.386C93.2964 259.952 92.9464 259.588 92.4984 259.588C92.0504 259.588 91.7004 259.952 91.7004 260.386ZM100.664 269.5H101.756V258.916H100.664V263.9H100.636C100.034 263.2 99.2356 262.78 98.2836 262.78C96.2256 262.78 94.8396 264.236 94.8396 266.224C94.8396 268.184 96.2816 269.668 98.1156 269.668C99.2916 269.668 100.23 269.08 100.636 268.338H100.664V269.5ZM100.664 266.224C100.664 267.596 99.7536 268.66 98.3396 268.66C96.9256 268.66 96.0156 267.596 96.0156 266.224C96.0156 264.852 96.9256 263.788 98.3396 263.788C99.7536 263.788 100.664 264.852 100.664 266.224ZM108.802 267.666C108.284 268.324 107.654 268.66 106.716 268.66C105.526 268.66 104.658 267.694 104.574 266.56H109.866V266.21C109.866 264.04 108.606 262.78 106.758 262.78C104.826 262.78 103.398 264.194 103.398 266.224C103.398 268.128 104.658 269.668 106.716 269.668C107.934 269.668 108.858 269.304 109.628 268.31L108.802 267.666ZM104.574 265.636C104.714 264.53 105.512 263.788 106.716 263.788C107.92 263.788 108.648 264.53 108.69 265.636H104.574Z" fill="#333333"/>
</g>
</g>
<g filter="url(#filter1_dd_152_27248)">
<g clip-path="url(#clip3_152_27248)">
<rect width="237" height="36" transform="translate(380 68)" fill="#E6E6E6"/>
<rect x="396" y="76" width="20" height="20" rx="6" fill="#EDE9ED"/>
<path d="M400 76.5H412C413.933 76.5 415.5 78.067 415.5 80V92C415.5 93.933 413.933 95.5 412 95.5H400C398.067 95.5 396.5 93.933 396.5 92V80C396.5 78.067 398.067 76.5 400 76.5Z" stroke="#6C3078"/>
<path d="M404.076 90.7728L400.176 86.8728C399.941 86.6385 399.941 86.2586 400.176 86.0243L401.024 85.1757C401.259 84.9414 401.638 84.9414 401.873 85.1757L404.5 87.8029L410.127 82.1757C410.362 81.9414 410.741 81.9414 410.976 82.1757L411.824 83.0243C412.059 83.2586 412.059 83.6385 411.824 83.8728L404.924 90.7728C404.69 91.0071 404.31 91.0071 404.076 90.7728Z" fill="#6C3078"/>
<path d="M430.902 80.498C430.174 79.644 429.236 79.336 428.13 79.336C426.394 79.336 424.756 80.288 424.756 82.192C424.756 83.844 425.82 84.46 427.22 84.922C428.984 85.51 429.81 85.72 429.81 86.938C429.81 88.072 428.662 88.66 427.654 88.66C426.8 88.66 425.96 88.282 425.54 87.554L424.532 88.38C425.204 89.374 426.436 89.752 427.584 89.752C429.376 89.752 431.07 88.828 431.07 86.854C431.07 84.908 429.642 84.404 428.102 83.914C426.52 83.41 426.016 83.004 426.016 82.094C426.016 80.918 427.094 80.428 428.13 80.428C428.844 80.428 429.544 80.708 429.936 81.338L430.902 80.498ZM438.387 82.948H437.197L435.251 88.086H435.223L433.193 82.948H431.919L434.635 89.542L434.187 90.774C433.949 91.418 433.683 91.852 432.969 91.852C432.661 91.852 432.423 91.824 432.199 91.74L432.059 92.692C432.353 92.832 432.731 92.86 433.039 92.86C434.355 92.86 434.789 92.104 435.223 90.998L438.387 82.948ZM445.015 89.5H446.107V78.916H445.015V83.9H444.987C444.385 83.2 443.587 82.78 442.635 82.78C440.577 82.78 439.191 84.236 439.191 86.224C439.191 88.184 440.633 89.668 442.467 89.668C443.643 89.668 444.581 89.08 444.987 88.338H445.015V89.5ZM445.015 86.224C445.015 87.596 444.105 88.66 442.691 88.66C441.277 88.66 440.367 87.596 440.367 86.224C440.367 84.852 441.277 83.788 442.691 83.788C444.105 83.788 445.015 84.852 445.015 86.224ZM448.128 89.5H449.22V86.308C449.22 84.81 449.836 83.788 451.25 83.788C452.272 83.788 452.748 84.474 452.748 85.566V89.5H453.84V85.454C453.84 83.872 453.07 82.78 451.348 82.78C450.27 82.78 449.458 83.382 449.164 84.026H449.136C449.136 83.662 449.108 83.298 449.108 82.948H448.072C448.072 83.382 448.128 83.9 448.128 84.502V89.5ZM460.933 87.666C460.415 88.324 459.785 88.66 458.847 88.66C457.657 88.66 456.789 87.694 456.705 86.56H461.997V86.21C461.997 84.04 460.737 82.78 458.889 82.78C456.957 82.78 455.529 84.194 455.529 86.224C455.529 88.128 456.789 89.668 458.847 89.668C460.065 89.668 460.989 89.304 461.759 88.31L460.933 87.666ZM456.705 85.636C456.845 84.53 457.643 83.788 458.847 83.788C460.051 83.788 460.779 84.53 460.821 85.636H456.705ZM469.258 82.948H468.068L466.122 88.086H466.094L464.064 82.948H462.79L465.506 89.542L465.058 90.774C464.82 91.418 464.554 91.852 463.84 91.852C463.532 91.852 463.294 91.824 463.07 91.74L462.93 92.692C463.224 92.832 463.602 92.86 463.91 92.86C465.226 92.86 465.66 92.104 466.094 90.998L469.258 82.948Z" fill="#333333"/>
<rect width="237" height="36" transform="translate(380 104)" fill="#E6E6E6"/>
<rect x="396" y="112" width="20" height="20" rx="6" fill="#EDE9ED"/>
<path d="M400 112.5H412C413.933 112.5 415.5 114.067 415.5 116V128C415.5 129.933 413.933 131.5 412 131.5H400C398.067 131.5 396.5 129.933 396.5 128V116C396.5 114.067 398.067 112.5 400 112.5Z" stroke="#6C3078"/>
<path d="M404.076 126.773L400.176 122.873C399.941 122.638 399.941 122.259 400.176 122.024L401.024 121.176C401.259 120.941 401.638 120.941 401.873 121.176L404.5 123.803L410.127 118.176C410.362 117.941 410.741 117.941 410.976 118.176L411.824 119.024C412.059 119.259 412.059 119.638 411.824 119.873L404.924 126.773C404.69 127.007 404.31 127.007 404.076 126.773Z" fill="#6C3078"/>
<path d="M425.232 125.5H426.408V117.184H426.436L429.992 125.5H430.706L434.262 117.184H434.29V125.5H435.466V115.588H433.758L430.37 123.358H430.342L426.982 115.588H425.232V125.5ZM442.763 123.666C442.245 124.324 441.615 124.66 440.677 124.66C439.487 124.66 438.619 123.694 438.535 122.56H443.827V122.21C443.827 120.04 442.567 118.78 440.719 118.78C438.787 118.78 437.359 120.194 437.359 122.224C437.359 124.128 438.619 125.668 440.677 125.668C441.895 125.668 442.819 125.304 443.589 124.31L442.763 123.666ZM438.535 121.636C438.675 120.53 439.473 119.788 440.677 119.788C441.881 119.788 442.609 120.53 442.651 121.636H438.535ZM445.614 125.5H446.706V114.916H445.614V125.5ZM448.824 125.5H449.916V124.338H449.944C450.35 125.08 451.288 125.668 452.464 125.668C454.298 125.668 455.74 124.184 455.74 122.224C455.74 120.236 454.354 118.78 452.296 118.78C451.344 118.78 450.546 119.2 449.944 119.9H449.916V114.916H448.824V125.5ZM449.916 122.224C449.916 120.852 450.826 119.788 452.24 119.788C453.654 119.788 454.564 120.852 454.564 122.224C454.564 123.596 453.654 124.66 452.24 124.66C450.826 124.66 449.916 123.596 449.916 122.224ZM457.06 122.224C457.06 124.268 458.544 125.668 460.56 125.668C462.576 125.668 464.06 124.268 464.06 122.224C464.06 120.18 462.576 118.78 460.56 118.78C458.544 118.78 457.06 120.18 457.06 122.224ZM458.236 122.224C458.236 120.852 459.146 119.788 460.56 119.788C461.974 119.788 462.884 120.852 462.884 122.224C462.884 123.596 461.974 124.66 460.56 124.66C459.146 124.66 458.236 123.596 458.236 122.224ZM471.463 118.948H470.371V122.14C470.371 123.638 469.755 124.66 468.341 124.66C467.319 124.66 466.843 123.974 466.843 122.882V118.948H465.751V122.994C465.751 124.576 466.521 125.668 468.243 125.668C469.321 125.668 470.133 125.066 470.427 124.422H470.455C470.455 124.786 470.483 125.15 470.483 125.5H471.519C471.519 125.066 471.463 124.548 471.463 123.946V118.948ZM473.53 125.5H474.622V122.308C474.622 120.81 475.21 119.872 476.54 119.872C476.736 119.872 476.946 119.9 477.128 119.956L477.198 118.85C477.044 118.794 476.89 118.78 476.75 118.78C475.672 118.78 474.86 119.382 474.566 120.026H474.538C474.538 119.662 474.51 119.298 474.51 118.948H473.474C473.474 119.382 473.53 119.9 473.53 120.502V125.5ZM478.452 125.5H479.544V122.308C479.544 120.81 480.16 119.788 481.574 119.788C482.596 119.788 483.072 120.474 483.072 121.566V125.5H484.164V121.454C484.164 119.872 483.394 118.78 481.672 118.78C480.594 118.78 479.782 119.382 479.488 120.026H479.46C479.46 119.662 479.432 119.298 479.432 118.948H478.396C478.396 119.382 478.452 119.9 478.452 120.502V125.5ZM491.257 123.666C490.739 124.324 490.109 124.66 489.171 124.66C487.981 124.66 487.113 123.694 487.029 122.56H492.321V122.21C492.321 120.04 491.061 118.78 489.213 118.78C487.281 118.78 485.853 120.194 485.853 122.224C485.853 124.128 487.113 125.668 489.171 125.668C490.389 125.668 491.313 125.304 492.083 124.31L491.257 123.666ZM487.029 121.636C487.169 120.53 487.967 119.788 489.171 119.788C490.375 119.788 491.103 120.53 491.145 121.636H487.029Z" fill="#333333"/>
<rect width="237" height="36" transform="translate(380 140)" fill="#E6E6E6"/>
<rect x="396" y="148" width="20" height="20" rx="6" fill="#EDE9ED"/>
<path d="M400 148.5H412C413.933 148.5 415.5 150.067 415.5 152V164C415.5 165.933 413.933 167.5 412 167.5H400C398.067 167.5 396.5 165.933 396.5 164V152C396.5 150.067 398.067 148.5 400 148.5Z" stroke="#6C3078"/>
<path d="M404.076 162.773L400.176 158.873C399.941 158.638 399.941 158.259 400.176 158.024L401.024 157.176C401.259 156.941 401.638 156.941 401.873 157.176L404.5 159.803L410.127 154.176C410.362 153.941 410.741 153.941 410.976 154.176L411.824 155.024C412.059 155.259 412.059 155.638 411.824 155.873L404.924 162.773C404.69 163.007 404.31 163.007 404.076 162.773Z" fill="#6C3078"/>
<path d="M425.232 161.5H428.186C430.02 161.5 432.05 160.912 432.05 158.728C432.05 157.426 431.084 156.404 429.81 156.292V156.264C430.874 155.942 431.546 155.172 431.546 154.024C431.546 152.204 429.894 151.588 428.256 151.588H425.232V161.5ZM426.408 152.68H428.158C429.222 152.68 430.286 152.96 430.286 154.178C430.286 155.55 429.138 155.788 428.032 155.788H426.408V152.68ZM426.408 156.88H428.424C429.614 156.88 430.79 157.3 430.79 158.686C430.79 159.946 429.544 160.408 428.396 160.408H426.408V156.88ZM433.854 161.5H434.946V158.308C434.946 156.81 435.534 155.872 436.864 155.872C437.06 155.872 437.27 155.9 437.452 155.956L437.522 154.85C437.368 154.794 437.214 154.78 437.074 154.78C435.996 154.78 435.184 155.382 434.89 156.026H434.862C434.862 155.662 434.834 155.298 434.834 154.948H433.798C433.798 155.382 433.854 155.9 433.854 156.502V161.5ZM438.874 161.5H439.966V154.948H438.874V161.5ZM438.622 152.386C438.622 152.848 438.958 153.184 439.42 153.184C439.882 153.184 440.218 152.848 440.218 152.386C440.218 151.952 439.868 151.588 439.42 151.588C438.972 151.588 438.622 151.952 438.622 152.386ZM441.412 160.45C442.056 161.374 442.854 161.668 443.96 161.668C445.262 161.668 446.578 161.094 446.578 159.61C446.578 158.294 445.598 157.874 444.436 157.65C443.568 157.482 442.784 157.244 442.784 156.698C442.784 156.082 443.47 155.788 444.072 155.788C444.716 155.788 445.178 156.11 445.458 156.572L446.368 155.97C445.92 155.13 445.066 154.78 444.142 154.78C442.924 154.78 441.692 155.438 441.692 156.712C441.692 158.07 442.756 158.336 444.002 158.616C444.702 158.77 445.402 158.952 445.402 159.652C445.402 160.366 444.646 160.66 443.96 160.66C443.19 160.66 442.714 160.31 442.28 159.778L441.412 160.45ZM448.044 161.5H449.136V160.338H449.164C449.57 161.08 450.508 161.668 451.684 161.668C453.518 161.668 454.96 160.184 454.96 158.224C454.96 156.236 453.574 154.78 451.516 154.78C450.564 154.78 449.766 155.2 449.164 155.9H449.136V150.916H448.044V161.5ZM449.136 158.224C449.136 156.852 450.046 155.788 451.46 155.788C452.874 155.788 453.784 156.852 453.784 158.224C453.784 159.596 452.874 160.66 451.46 160.66C450.046 160.66 449.136 159.596 449.136 158.224ZM457.261 156.502C457.779 156.026 458.507 155.788 459.207 155.788C460.229 155.788 460.831 156.278 460.831 157.23V157.426H460.411C458.801 157.426 456.281 157.552 456.281 159.722C456.281 160.996 457.387 161.668 458.717 161.668C459.711 161.668 460.439 161.192 460.873 160.52H460.901C460.901 160.8 460.901 161.206 460.971 161.5H462.021C461.965 161.164 461.923 160.744 461.923 160.366V157.552C461.923 155.704 461.111 154.78 459.179 154.78C458.227 154.78 457.247 155.102 456.575 155.788L457.261 156.502ZM460.831 158.35V158.77C460.803 159.834 460.159 160.744 458.899 160.744C458.073 160.744 457.457 160.436 457.457 159.61C457.457 158.728 458.353 158.35 459.739 158.35H460.831ZM463.919 161.5H465.011V158.308C465.011 156.81 465.627 155.788 467.041 155.788C468.063 155.788 468.539 156.474 468.539 157.566V161.5H469.631V157.454C469.631 155.872 468.861 154.78 467.139 154.78C466.061 154.78 465.249 155.382 464.955 156.026H464.927C464.927 155.662 464.899 155.298 464.899 154.948H463.863C463.863 155.382 463.919 155.9 463.919 156.502V161.5ZM476.724 159.666C476.206 160.324 475.576 160.66 474.638 160.66C473.448 160.66 472.58 159.694 472.496 158.56H477.788V158.21C477.788 156.04 476.528 154.78 474.68 154.78C472.748 154.78 471.32 156.194 471.32 158.224C471.32 160.128 472.58 161.668 474.638 161.668C475.856 161.668 476.78 161.304 477.55 160.31L476.724 159.666ZM472.496 157.636C472.636 156.53 473.434 155.788 474.638 155.788C475.842 155.788 476.57 156.53 476.612 157.636H472.496Z" fill="#333333"/>
<rect width="237" height="36" transform="translate(380 176)" fill="white"/>
<rect x="396.5" y="184.5" width="19" height="19" rx="3.5" fill="white" stroke="#9EA6B5"/>
<path d="M425.232 197.5H426.408V193.048H428.396C429.796 193.048 431.644 192.474 431.644 190.304C431.644 188.232 429.992 187.588 428.172 187.588H425.232V197.5ZM426.408 188.68H428.396C429.572 188.68 430.384 189.212 430.384 190.318C430.384 191.424 429.572 191.956 428.396 191.956H426.408V188.68ZM438.361 195.666C437.843 196.324 437.213 196.66 436.275 196.66C435.085 196.66 434.217 195.694 434.133 194.56H439.425V194.21C439.425 192.04 438.165 190.78 436.317 190.78C434.385 190.78 432.957 192.194 432.957 194.224C432.957 196.128 434.217 197.668 436.275 197.668C437.493 197.668 438.417 197.304 439.187 196.31L438.361 195.666ZM434.133 193.636C434.273 192.53 435.071 191.788 436.275 191.788C437.479 191.788 438.207 192.53 438.249 193.636H434.133ZM441.114 197.5H442.206V194.308C442.206 192.81 442.794 191.872 444.124 191.872C444.32 191.872 444.53 191.9 444.712 191.956L444.782 190.85C444.628 190.794 444.474 190.78 444.334 190.78C443.256 190.78 442.444 191.382 442.15 192.026H442.122C442.122 191.662 442.094 191.298 442.094 190.948H441.058C441.058 191.382 441.114 191.9 441.114 192.502V197.5ZM449.62 190.948H447.688V189.086H446.596V190.948H445.168V191.872H446.596V195.47C446.596 196.828 446.848 197.668 448.402 197.668C448.808 197.668 449.298 197.598 449.676 197.43L449.634 196.436C449.34 196.59 448.99 196.66 448.668 196.66C447.702 196.66 447.688 195.988 447.688 195.148V191.872H449.62V190.948ZM450.958 197.5H452.05V194.308C452.05 192.81 452.666 191.788 454.08 191.788C455.102 191.788 455.578 192.474 455.578 193.566V197.5H456.67V193.454C456.67 191.872 455.9 190.78 454.178 190.78C453.156 190.78 452.372 191.34 452.078 191.858H452.05V186.916H450.958V197.5Z" fill="#333333"/>
<rect width="237" height="36" transform="translate(380 212)" fill="white"/>
<rect x="396.5" y="220.5" width="19" height="19" rx="3.5" fill="white" stroke="#9EA6B5"/>
<path d="M431.882 223.588H424.154V224.68H427.43V233.5H428.606V224.68H431.882V223.588ZM432.118 228.502C432.636 228.026 433.364 227.788 434.064 227.788C435.086 227.788 435.688 228.278 435.688 229.23V229.426H435.268C433.658 229.426 431.138 229.552 431.138 231.722C431.138 232.996 432.244 233.668 433.574 233.668C434.568 233.668 435.296 233.192 435.73 232.52H435.758C435.758 232.8 435.758 233.206 435.828 233.5H436.878C436.822 233.164 436.78 232.744 436.78 232.366V229.552C436.78 227.704 435.968 226.78 434.036 226.78C433.084 226.78 432.104 227.102 431.432 227.788L432.118 228.502ZM435.688 230.35V230.77C435.66 231.834 435.016 232.744 433.756 232.744C432.93 232.744 432.314 232.436 432.314 231.61C432.314 230.728 433.21 230.35 434.596 230.35H435.688ZM438.048 232.45C438.692 233.374 439.49 233.668 440.596 233.668C441.898 233.668 443.214 233.094 443.214 231.61C443.214 230.294 442.234 229.874 441.072 229.65C440.204 229.482 439.42 229.244 439.42 228.698C439.42 228.082 440.106 227.788 440.708 227.788C441.352 227.788 441.814 228.11 442.094 228.572L443.004 227.97C442.556 227.13 441.702 226.78 440.778 226.78C439.56 226.78 438.328 227.438 438.328 228.712C438.328 230.07 439.392 230.336 440.638 230.616C441.338 230.77 442.038 230.952 442.038 231.652C442.038 232.366 441.282 232.66 440.596 232.66C439.826 232.66 439.35 232.31 438.916 231.778L438.048 232.45ZM444.737 233.5H445.829V230.308C445.829 228.81 446.445 227.788 447.859 227.788C448.755 227.788 449.119 228.348 449.119 229.79V233.5H450.211V229.72C450.211 228.544 450.981 227.788 451.905 227.788C453.179 227.788 453.501 228.67 453.501 229.58V233.5H454.593V229.524C454.593 227.83 453.977 226.78 452.101 226.78C451.107 226.78 450.505 227.256 450.029 228.026C449.819 227.578 449.371 226.78 447.957 226.78C446.879 226.78 446.067 227.382 445.773 228.026H445.745C445.745 227.662 445.717 227.298 445.717 226.948H444.681C444.681 227.382 444.737 227.9 444.737 228.502V233.5ZM457.261 228.502C457.779 228.026 458.507 227.788 459.207 227.788C460.229 227.788 460.831 228.278 460.831 229.23V229.426H460.411C458.801 229.426 456.281 229.552 456.281 231.722C456.281 232.996 457.387 233.668 458.717 233.668C459.711 233.668 460.439 233.192 460.873 232.52H460.901C460.901 232.8 460.901 233.206 460.971 233.5H462.021C461.965 233.164 461.923 232.744 461.923 232.366V229.552C461.923 227.704 461.111 226.78 459.179 226.78C458.227 226.78 457.247 227.102 456.575 227.788L457.261 228.502ZM460.831 230.35V230.77C460.803 231.834 460.159 232.744 458.899 232.744C458.073 232.744 457.457 232.436 457.457 231.61C457.457 230.728 458.353 230.35 459.739 230.35H460.831ZM463.919 233.5H465.011V230.308C465.011 228.81 465.627 227.788 467.041 227.788C468.063 227.788 468.539 228.474 468.539 229.566V233.5H469.631V229.454C469.631 227.872 468.861 226.78 467.139 226.78C466.061 226.78 465.249 227.382 464.955 228.026H464.927C464.927 227.662 464.899 227.298 464.899 226.948H463.863C463.863 227.382 463.919 227.9 463.919 228.502V233.5ZM471.796 233.5H472.888V226.948H471.796V233.5ZM471.544 224.386C471.544 224.848 471.88 225.184 472.342 225.184C472.804 225.184 473.14 224.848 473.14 224.386C473.14 223.952 472.79 223.588 472.342 223.588C471.894 223.588 471.544 223.952 471.544 224.386ZM475.663 228.502C476.181 228.026 476.909 227.788 477.609 227.788C478.631 227.788 479.233 228.278 479.233 229.23V229.426H478.813C477.203 229.426 474.683 229.552 474.683 231.722C474.683 232.996 475.789 233.668 477.119 233.668C478.113 233.668 478.841 233.192 479.275 232.52H479.303C479.303 232.8 479.303 233.206 479.373 233.5H480.423C480.367 233.164 480.325 232.744 480.325 232.366V229.552C480.325 227.704 479.513 226.78 477.581 226.78C476.629 226.78 475.649 227.102 474.977 227.788L475.663 228.502ZM479.233 230.35V230.77C479.205 231.834 478.561 232.744 477.301 232.744C476.475 232.744 475.859 232.436 475.859 231.61C475.859 230.728 476.755 230.35 478.141 230.35H479.233Z" fill="#333333"/>
<rect width="237" height="36" transform="translate(380 248)" fill="white"/>
<rect x="396.5" y="256.5" width="19" height="19" rx="3.5" fill="white" stroke="#9EA6B5"/>
<path d="M424.084 269.5H425.414L426.436 267.064H431.392L432.4 269.5H433.772L429.558 259.588H428.452L424.084 269.5ZM430.944 265.972H426.898L428.956 261.1H428.984L430.944 265.972ZM440.339 269.5H441.431V258.916H440.339V263.9H440.311C439.709 263.2 438.911 262.78 437.959 262.78C435.901 262.78 434.515 264.236 434.515 266.224C434.515 268.184 435.957 269.668 437.791 269.668C438.967 269.668 439.905 269.08 440.311 268.338H440.339V269.5ZM440.339 266.224C440.339 267.596 439.429 268.66 438.015 268.66C436.601 268.66 435.691 267.596 435.691 266.224C435.691 264.852 436.601 263.788 438.015 263.788C439.429 263.788 440.339 264.852 440.339 266.224ZM448.478 267.666C447.96 268.324 447.33 268.66 446.392 268.66C445.202 268.66 444.334 267.694 444.25 266.56H449.542V266.21C449.542 264.04 448.282 262.78 446.434 262.78C444.502 262.78 443.074 264.194 443.074 266.224C443.074 268.128 444.334 269.668 446.392 269.668C447.61 269.668 448.534 269.304 449.304 268.31L448.478 267.666ZM444.25 265.636C444.39 264.53 445.188 263.788 446.392 263.788C447.596 263.788 448.324 264.53 448.366 265.636H444.25ZM451.329 269.5H452.421V258.916H451.329V269.5ZM455.197 264.502C455.715 264.026 456.443 263.788 457.143 263.788C458.165 263.788 458.767 264.278 458.767 265.23V265.426H458.347C456.737 265.426 454.217 265.552 454.217 267.722C454.217 268.996 455.323 269.668 456.653 269.668C457.647 269.668 458.375 269.192 458.809 268.52H458.837C458.837 268.8 458.837 269.206 458.907 269.5H459.957C459.901 269.164 459.859 268.744 459.859 268.366V265.552C459.859 263.704 459.047 262.78 457.115 262.78C456.163 262.78 455.183 263.102 454.511 263.788L455.197 264.502ZM458.767 266.35V266.77C458.739 267.834 458.095 268.744 456.835 268.744C456.009 268.744 455.393 268.436 455.393 267.61C455.393 266.728 456.289 266.35 457.675 266.35H458.767ZM461.952 269.5H463.044V262.948H461.952V269.5ZM461.7 260.386C461.7 260.848 462.036 261.184 462.498 261.184C462.96 261.184 463.296 260.848 463.296 260.386C463.296 259.952 462.946 259.588 462.498 259.588C462.05 259.588 461.7 259.952 461.7 260.386ZM470.664 269.5H471.756V258.916H470.664V263.9H470.636C470.034 263.2 469.236 262.78 468.284 262.78C466.226 262.78 464.84 264.236 464.84 266.224C464.84 268.184 466.282 269.668 468.116 269.668C469.292 269.668 470.23 269.08 470.636 268.338H470.664V269.5ZM470.664 266.224C470.664 267.596 469.754 268.66 468.34 268.66C466.926 268.66 466.016 267.596 466.016 266.224C466.016 264.852 466.926 263.788 468.34 263.788C469.754 263.788 470.664 264.852 470.664 266.224ZM478.802 267.666C478.284 268.324 477.654 268.66 476.716 268.66C475.526 268.66 474.658 267.694 474.574 266.56H479.866V266.21C479.866 264.04 478.606 262.78 476.758 262.78C474.826 262.78 473.398 264.194 473.398 266.224C473.398 268.128 474.658 269.668 476.716 269.668C477.934 269.668 478.858 269.304 479.628 268.31L478.802 267.666ZM474.574 265.636C474.714 264.53 475.512 263.788 476.716 263.788C477.92 263.788 478.648 264.53 478.69 265.636H474.574Z" fill="#333333"/>
</g>
</g>
<path d="M20.512 296.16C19.552 294.912 18.048 294.384 16.512 294.384C13.152 294.384 10.752 297.008 10.752 300.336C10.752 303.776 13.264 306.288 16.512 306.288C18.32 306.288 19.792 305.664 20.8 304.304L19.792 303.456C18.992 304.48 17.888 305.04 16.512 305.04C13.968 305.04 12.192 302.96 12.192 300.336C12.192 297.856 13.984 295.632 16.512 295.632C17.6 295.632 18.672 296.096 19.344 297.008L20.512 296.16ZM22.4496 306H23.6976V302.352C23.6976 300.64 24.4016 299.472 26.0176 299.472C27.1856 299.472 27.7296 300.256 27.7296 301.504V306H28.9776V301.376C28.9776 299.568 28.0976 298.32 26.1296 298.32C24.9616 298.32 24.0656 298.96 23.7296 299.552H23.6976V293.904H22.4496V306ZM31.4523 306H32.7003V298.512H31.4523V306ZM31.1643 295.584C31.1643 296.112 31.5483 296.496 32.0763 296.496C32.6043 296.496 32.9883 296.112 32.9883 295.584C32.9883 295.088 32.5883 294.672 32.0763 294.672C31.5643 294.672 31.1643 295.088 31.1643 295.584ZM35.12 309.648H36.368V304.672H36.4C36.864 305.52 37.936 306.192 39.28 306.192C41.376 306.192 43.024 304.496 43.024 302.256C43.024 299.984 41.44 298.32 39.088 298.32C38 298.32 37.088 298.8 36.4 299.6H36.368V298.512H35.12V309.648ZM36.368 302.256C36.368 300.688 37.408 299.472 39.024 299.472C40.64 299.472 41.68 300.688 41.68 302.256C41.68 303.824 40.64 305.04 39.024 305.04C37.408 305.04 36.368 303.824 36.368 302.256ZM44.1333 304.8C44.8693 305.856 45.7812 306.192 47.0453 306.192C48.5333 306.192 50.0373 305.536 50.0373 303.84C50.0373 302.336 48.9173 301.856 47.5893 301.6C46.5973 301.408 45.7013 301.136 45.7013 300.512C45.7013 299.808 46.4853 299.472 47.1733 299.472C47.9093 299.472 48.4373 299.84 48.7573 300.368L49.7973 299.68C49.2853 298.72 48.3093 298.32 47.2533 298.32C45.8613 298.32 44.4533 299.072 44.4533 300.528C44.4533 302.08 45.6693 302.384 47.0933 302.704C47.8932 302.88 48.6933 303.088 48.6933 303.888C48.6933 304.704 47.8293 305.04 47.0453 305.04C46.1653 305.04 45.6213 304.64 45.1253 304.032L44.1333 304.8ZM66.6789 298.512H65.3349L63.6389 304.272H63.6069L61.6389 298.512H60.3269L58.3909 304.272H58.3589L56.6469 298.512H55.2709L57.7029 306H58.9829L60.8709 300.24H60.9029L63.0309 306H64.2629L66.6789 298.512ZM68.0903 306H69.3383V302.352C69.3383 300.64 70.0423 299.472 71.6583 299.472C72.8263 299.472 73.3703 300.256 73.3703 301.504V306H74.6183V301.376C74.6183 299.568 73.7383 298.32 71.7703 298.32C70.6023 298.32 69.7063 298.96 69.3703 299.552H69.3383V293.904H68.0903V306ZM82.7249 303.904C82.1329 304.656 81.4129 305.04 80.3409 305.04C78.9809 305.04 77.9889 303.936 77.8929 302.64H83.9409V302.24C83.9409 299.76 82.5009 298.32 80.3889 298.32C78.1809 298.32 76.5489 299.936 76.5489 302.256C76.5489 304.432 77.9889 306.192 80.3409 306.192C81.7329 306.192 82.7889 305.776 83.6689 304.64L82.7249 303.904ZM77.8929 301.584C78.0529 300.32 78.9649 299.472 80.3409 299.472C81.7169 299.472 82.5489 300.32 82.5969 301.584H77.8929ZM85.8715 306H87.1195V302.352C87.1195 300.64 87.8235 299.472 89.4395 299.472C90.6075 299.472 91.1515 300.256 91.1515 301.504V306H92.3995V301.376C92.3995 299.568 91.5195 298.32 89.5515 298.32C88.3195 298.32 87.3915 299.008 87.0555 299.744H87.0235C87.0235 299.328 86.9915 298.912 86.9915 298.512H85.8075C85.8075 299.008 85.8715 299.6 85.8715 300.288V306ZM105.743 298.512H104.495V302.16C104.495 303.872 103.791 305.04 102.175 305.04C101.007 305.04 100.463 304.256 100.463 303.008V298.512H99.2153V303.136C99.2153 304.944 100.095 306.192 102.063 306.192C103.295 306.192 104.223 305.504 104.559 304.768H104.591C104.591 305.184 104.623 305.6 104.623 306H105.807C105.807 305.504 105.743 304.912 105.743 304.224V298.512ZM107.274 304.8C108.01 305.856 108.922 306.192 110.186 306.192C111.674 306.192 113.178 305.536 113.178 303.84C113.178 302.336 112.058 301.856 110.73 301.6C109.738 301.408 108.842 301.136 108.842 300.512C108.842 299.808 109.626 299.472 110.314 299.472C111.05 299.472 111.578 299.84 111.898 300.368L112.938 299.68C112.426 298.72 111.45 298.32 110.394 298.32C109.002 298.32 107.594 299.072 107.594 300.528C107.594 302.08 108.81 302.384 110.234 302.704C111.034 302.88 111.834 303.088 111.834 303.888C111.834 304.704 110.97 305.04 110.186 305.04C109.306 305.04 108.762 304.64 108.266 304.032L107.274 304.8ZM120.662 303.904C120.07 304.656 119.35 305.04 118.278 305.04C116.918 305.04 115.926 303.936 115.83 302.64H121.878V302.24C121.878 299.76 120.438 298.32 118.326 298.32C116.118 298.32 114.486 299.936 114.486 302.256C114.486 304.432 115.926 306.192 118.278 306.192C119.67 306.192 120.726 305.776 121.606 304.64L120.662 303.904ZM115.83 301.584C115.99 300.32 116.902 299.472 118.278 299.472C119.654 299.472 120.486 300.32 120.534 301.584H115.83ZM130.033 306H131.281V293.904H130.033V299.6H130.001C129.313 298.8 128.401 298.32 127.313 298.32C124.961 298.32 123.377 299.984 123.377 302.256C123.377 304.496 125.025 306.192 127.121 306.192C128.465 306.192 129.537 305.52 130.001 304.672H130.033V306ZM130.033 302.256C130.033 303.824 128.993 305.04 127.377 305.04C125.761 305.04 124.721 303.824 124.721 302.256C124.721 300.688 125.761 299.472 127.377 299.472C128.993 299.472 130.033 300.688 130.033 302.256ZM138.155 306H139.403V298.512H138.155V306ZM137.867 295.584C137.867 296.112 138.251 296.496 138.779 296.496C139.307 296.496 139.691 296.112 139.691 295.584C139.691 295.088 139.291 294.672 138.779 294.672C138.267 294.672 137.867 295.088 137.867 295.584ZM141.887 306H143.135V302.352C143.135 300.64 143.839 299.472 145.455 299.472C146.623 299.472 147.167 300.256 147.167 301.504V306H148.415V301.376C148.415 299.568 147.535 298.32 145.567 298.32C144.335 298.32 143.407 299.008 143.071 299.744H143.039C143.039 299.328 143.007 298.912 143.007 298.512H141.823C141.823 299.008 141.887 299.6 141.887 300.288V306ZM154.399 304.8C155.135 305.856 156.047 306.192 157.311 306.192C158.799 306.192 160.303 305.536 160.303 303.84C160.303 302.336 159.183 301.856 157.855 301.6C156.863 301.408 155.967 301.136 155.967 300.512C155.967 299.808 156.751 299.472 157.439 299.472C158.175 299.472 158.703 299.84 159.023 300.368L160.063 299.68C159.551 298.72 158.575 298.32 157.519 298.32C156.127 298.32 154.719 299.072 154.719 300.528C154.719 302.08 155.935 302.384 157.359 302.704C158.159 302.88 158.959 303.088 158.959 303.888C158.959 304.704 158.095 305.04 157.311 305.04C156.431 305.04 155.887 304.64 155.391 304.032L154.399 304.8ZM167.787 303.904C167.195 304.656 166.475 305.04 165.403 305.04C164.043 305.04 163.051 303.936 162.955 302.64H169.003V302.24C169.003 299.76 167.563 298.32 165.451 298.32C163.243 298.32 161.611 299.936 161.611 302.256C161.611 304.432 163.051 306.192 165.403 306.192C166.795 306.192 167.851 305.776 168.731 304.64L167.787 303.904ZM162.955 301.584C163.115 300.32 164.027 299.472 165.403 299.472C166.779 299.472 167.611 300.32 167.659 301.584H162.955ZM171.046 306H172.294V293.904H171.046V306ZM180.522 303.904C179.93 304.656 179.21 305.04 178.138 305.04C176.778 305.04 175.786 303.936 175.69 302.64H181.738V302.24C181.738 299.76 180.298 298.32 178.186 298.32C175.978 298.32 174.346 299.936 174.346 302.256C174.346 304.432 175.786 306.192 178.138 306.192C179.53 306.192 180.586 305.776 181.466 304.64L180.522 303.904ZM175.69 301.584C175.85 300.32 176.762 299.472 178.138 299.472C179.514 299.472 180.346 300.32 180.394 301.584H175.69ZM189.988 299.504C189.236 298.688 188.212 298.32 187.108 298.32C184.804 298.32 183.236 299.984 183.236 302.256C183.236 304.56 184.788 306.192 187.108 306.192C188.196 306.192 189.22 305.824 189.94 304.992L189.012 304.112C188.548 304.752 187.924 305.04 187.108 305.04C185.588 305.04 184.58 303.792 184.58 302.256C184.58 300.72 185.428 299.472 187.108 299.472C187.86 299.472 188.468 299.744 188.996 300.384L189.988 299.504ZM195.483 298.512H193.275V296.384H192.027V298.512H190.395V299.568H192.027V303.68C192.027 305.232 192.315 306.192 194.091 306.192C194.555 306.192 195.115 306.112 195.547 305.92L195.499 304.784C195.163 304.96 194.763 305.04 194.395 305.04C193.291 305.04 193.275 304.272 193.275 303.312V299.568H195.483V298.512ZM201.577 306H202.825V298.512H201.577V306ZM201.289 295.584C201.289 296.112 201.673 296.496 202.201 296.496C202.729 296.496 203.113 296.112 203.113 295.584C203.113 295.088 202.713 294.672 202.201 294.672C201.689 294.672 201.289 295.088 201.289 295.584ZM205.309 306H206.557V302.352C206.557 300.64 207.261 299.472 208.877 299.472C210.045 299.472 210.589 300.256 210.589 301.504V306H211.837V301.376C211.837 299.568 210.957 298.32 208.989 298.32C207.757 298.32 206.829 299.008 206.493 299.744H206.461C206.461 299.328 206.429 298.912 206.429 298.512H205.245C205.245 299.008 205.309 299.6 205.309 300.288V306ZM214.136 309.648H215.384V304.672H215.416C215.88 305.52 216.952 306.192 218.296 306.192C220.392 306.192 222.04 304.496 222.04 302.256C222.04 299.984 220.456 298.32 218.104 298.32C217.016 298.32 216.104 298.8 215.416 299.6H215.384V298.512H214.136V309.648ZM215.384 302.256C215.384 300.688 216.424 299.472 218.04 299.472C219.656 299.472 220.696 300.688 220.696 302.256C220.696 303.824 219.656 305.04 218.04 305.04C216.424 305.04 215.384 303.824 215.384 302.256ZM230.509 298.512H229.261V302.16C229.261 303.872 228.557 305.04 226.941 305.04C225.773 305.04 225.229 304.256 225.229 303.008V298.512H223.981V303.136C223.981 304.944 224.861 306.192 226.829 306.192C228.061 306.192 228.989 305.504 229.325 304.768H229.357C229.357 305.184 229.389 305.6 229.389 306H230.573C230.573 305.504 230.509 304.912 230.509 304.224V298.512ZM236.968 298.512H234.76V296.384H233.512V298.512H231.88V299.568H233.512V303.68C233.512 305.232 233.799 306.192 235.576 306.192C236.04 306.192 236.6 306.112 237.032 305.92L236.984 304.784C236.648 304.96 236.248 305.04 235.88 305.04C234.776 305.04 234.76 304.272 234.76 303.312V299.568H236.968V298.512Z" fill="#333333"/>
<path d="M390.512 296.16C389.552 294.912 388.048 294.384 386.512 294.384C383.152 294.384 380.752 297.008 380.752 300.336C380.752 303.776 383.264 306.288 386.512 306.288C388.32 306.288 389.792 305.664 390.8 304.304L389.792 303.456C388.992 304.48 387.888 305.04 386.512 305.04C383.968 305.04 382.192 302.96 382.192 300.336C382.192 297.856 383.984 295.632 386.512 295.632C387.6 295.632 388.672 296.096 389.344 297.008L390.512 296.16ZM392.45 306H393.698V302.352C393.698 300.64 394.402 299.472 396.018 299.472C397.186 299.472 397.73 300.256 397.73 301.504V306H398.978V301.376C398.978 299.568 398.098 298.32 396.13 298.32C394.962 298.32 394.066 298.96 393.73 299.552H393.698V293.904H392.45V306ZM401.452 306H402.7V298.512H401.452V306ZM401.164 295.584C401.164 296.112 401.548 296.496 402.076 296.496C402.604 296.496 402.988 296.112 402.988 295.584C402.988 295.088 402.588 294.672 402.076 294.672C401.564 294.672 401.164 295.088 401.164 295.584ZM405.12 309.648H406.368V304.672H406.4C406.864 305.52 407.936 306.192 409.28 306.192C411.376 306.192 413.024 304.496 413.024 302.256C413.024 299.984 411.44 298.32 409.088 298.32C408 298.32 407.088 298.8 406.4 299.6H406.368V298.512H405.12V309.648ZM406.368 302.256C406.368 300.688 407.408 299.472 409.024 299.472C410.64 299.472 411.68 300.688 411.68 302.256C411.68 303.824 410.64 305.04 409.024 305.04C407.408 305.04 406.368 303.824 406.368 302.256ZM414.133 304.8C414.869 305.856 415.781 306.192 417.045 306.192C418.533 306.192 420.037 305.536 420.037 303.84C420.037 302.336 418.917 301.856 417.589 301.6C416.597 301.408 415.701 301.136 415.701 300.512C415.701 299.808 416.485 299.472 417.173 299.472C417.909 299.472 418.437 299.84 418.757 300.368L419.797 299.68C419.285 298.72 418.309 298.32 417.253 298.32C415.861 298.32 414.453 299.072 414.453 300.528C414.453 302.08 415.669 302.384 417.093 302.704C417.893 302.88 418.693 303.088 418.693 303.888C418.693 304.704 417.829 305.04 417.045 305.04C416.165 305.04 415.621 304.64 415.125 304.032L414.133 304.8ZM436.679 298.512H435.335L433.639 304.272H433.607L431.639 298.512H430.327L428.391 304.272H428.359L426.647 298.512H425.271L427.703 306H428.983L430.871 300.24H430.903L433.031 306H434.263L436.679 298.512ZM438.09 306H439.338V302.352C439.338 300.64 440.042 299.472 441.658 299.472C442.826 299.472 443.37 300.256 443.37 301.504V306H444.618V301.376C444.618 299.568 443.738 298.32 441.77 298.32C440.602 298.32 439.706 298.96 439.37 299.552H439.338V293.904H438.09V306ZM452.725 303.904C452.133 304.656 451.413 305.04 450.341 305.04C448.981 305.04 447.989 303.936 447.893 302.64H453.941V302.24C453.941 299.76 452.501 298.32 450.389 298.32C448.181 298.32 446.549 299.936 446.549 302.256C446.549 304.432 447.989 306.192 450.341 306.192C451.733 306.192 452.789 305.776 453.669 304.64L452.725 303.904ZM447.893 301.584C448.053 300.32 448.965 299.472 450.341 299.472C451.717 299.472 452.549 300.32 452.597 301.584H447.893ZM455.872 306H457.12V302.352C457.12 300.64 457.824 299.472 459.44 299.472C460.608 299.472 461.152 300.256 461.152 301.504V306H462.4V301.376C462.4 299.568 461.52 298.32 459.552 298.32C458.32 298.32 457.392 299.008 457.056 299.744H457.024C457.024 299.328 456.992 298.912 456.992 298.512H455.808C455.808 299.008 455.872 299.6 455.872 300.288V306ZM475.743 298.512H474.495V302.16C474.495 303.872 473.791 305.04 472.175 305.04C471.007 305.04 470.463 304.256 470.463 303.008V298.512H469.215V303.136C469.215 304.944 470.095 306.192 472.063 306.192C473.295 306.192 474.223 305.504 474.559 304.768H474.591C474.591 305.184 474.623 305.6 474.623 306H475.807C475.807 305.504 475.743 304.912 475.743 304.224V298.512ZM477.274 304.8C478.01 305.856 478.922 306.192 480.186 306.192C481.674 306.192 483.178 305.536 483.178 303.84C483.178 302.336 482.058 301.856 480.73 301.6C479.738 301.408 478.842 301.136 478.842 300.512C478.842 299.808 479.626 299.472 480.314 299.472C481.05 299.472 481.578 299.84 481.898 300.368L482.938 299.68C482.426 298.72 481.45 298.32 480.394 298.32C479.002 298.32 477.594 299.072 477.594 300.528C477.594 302.08 478.81 302.384 480.234 302.704C481.034 302.88 481.834 303.088 481.834 303.888C481.834 304.704 480.97 305.04 480.186 305.04C479.306 305.04 478.762 304.64 478.266 304.032L477.274 304.8ZM490.662 303.904C490.07 304.656 489.35 305.04 488.278 305.04C486.918 305.04 485.926 303.936 485.83 302.64H491.878V302.24C491.878 299.76 490.438 298.32 488.326 298.32C486.118 298.32 484.486 299.936 484.486 302.256C484.486 304.432 485.926 306.192 488.278 306.192C489.67 306.192 490.726 305.776 491.606 304.64L490.662 303.904ZM485.83 301.584C485.99 300.32 486.902 299.472 488.278 299.472C489.654 299.472 490.486 300.32 490.534 301.584H485.83ZM500.033 306H501.281V293.904H500.033V299.6H500.001C499.313 298.8 498.401 298.32 497.313 298.32C494.961 298.32 493.377 299.984 493.377 302.256C493.377 304.496 495.025 306.192 497.121 306.192C498.465 306.192 499.537 305.52 500.001 304.672H500.033V306ZM500.033 302.256C500.033 303.824 498.993 305.04 497.377 305.04C495.761 305.04 494.721 303.824 494.721 302.256C494.721 300.688 495.761 299.472 497.377 299.472C498.993 299.472 500.033 300.688 500.033 302.256ZM508.155 306H509.403V298.512H508.155V306ZM507.867 295.584C507.867 296.112 508.251 296.496 508.779 296.496C509.307 296.496 509.691 296.112 509.691 295.584C509.691 295.088 509.291 294.672 508.779 294.672C508.267 294.672 507.867 295.088 507.867 295.584ZM511.887 306H513.135V302.352C513.135 300.64 513.839 299.472 515.455 299.472C516.623 299.472 517.167 300.256 517.167 301.504V306H518.415V301.376C518.415 299.568 517.535 298.32 515.567 298.32C514.335 298.32 513.407 299.008 513.071 299.744H513.039C513.039 299.328 513.007 298.912 513.007 298.512H511.823C511.823 299.008 511.887 299.6 511.887 300.288V306ZM525.167 306H526.415V304.672H526.447C526.911 305.52 527.983 306.192 529.327 306.192C531.423 306.192 533.071 304.496 533.071 302.256C533.071 299.984 531.487 298.32 529.135 298.32C528.047 298.32 527.135 298.8 526.447 299.6H526.415V293.904H525.167V306ZM526.415 302.256C526.415 300.688 527.455 299.472 529.071 299.472C530.687 299.472 531.727 300.688 531.727 302.256C531.727 303.824 530.687 305.04 529.071 305.04C527.455 305.04 526.415 303.824 526.415 302.256ZM541.54 298.512H540.292V302.16C540.292 303.872 539.588 305.04 537.972 305.04C536.804 305.04 536.26 304.256 536.26 303.008V298.512H535.012V303.136C535.012 304.944 535.892 306.192 537.86 306.192C539.092 306.192 540.02 305.504 540.356 304.768H540.388C540.388 305.184 540.42 305.6 540.42 306H541.604C541.604 305.504 541.54 304.912 541.54 304.224V298.512ZM547.999 298.512H545.791V296.384H544.543V298.512H542.911V299.568H544.543V303.68C544.543 305.232 544.831 306.192 546.607 306.192C547.071 306.192 547.631 306.112 548.063 305.92L548.015 304.784C547.679 304.96 547.279 305.04 546.911 305.04C545.807 305.04 545.791 304.272 545.791 303.312V299.568H547.999V298.512ZM553.624 298.512H551.416V296.384H550.168V298.512H548.536V299.568H550.168V303.68C550.168 305.232 550.456 306.192 552.232 306.192C552.696 306.192 553.256 306.112 553.688 305.92L553.64 304.784C553.304 304.96 552.904 305.04 552.536 305.04C551.432 305.04 551.416 304.272 551.416 303.312V299.568H553.624V298.512ZM554.721 302.256C554.721 304.592 556.417 306.192 558.721 306.192C561.025 306.192 562.721 304.592 562.721 302.256C562.721 299.92 561.025 298.32 558.721 298.32C556.417 298.32 554.721 299.92 554.721 302.256ZM556.065 302.256C556.065 300.688 557.105 299.472 558.721 299.472C560.337 299.472 561.377 300.688 561.377 302.256C561.377 303.824 560.337 305.04 558.721 305.04C557.105 305.04 556.065 303.824 556.065 302.256ZM564.653 306H565.901V302.352C565.901 300.64 566.605 299.472 568.221 299.472C569.389 299.472 569.933 300.256 569.933 301.504V306H571.181V301.376C571.181 299.568 570.301 298.32 568.333 298.32C567.101 298.32 566.173 299.008 565.837 299.744H565.805C565.805 299.328 565.773 298.912 565.773 298.512H564.589C564.589 299.008 564.653 299.6 564.653 300.288V306ZM584.317 299.504C583.565 298.688 582.541 298.32 581.437 298.32C579.133 298.32 577.565 299.984 577.565 302.256C577.565 304.56 579.117 306.192 581.437 306.192C582.525 306.192 583.549 305.824 584.269 304.992L583.341 304.112C582.877 304.752 582.253 305.04 581.437 305.04C579.917 305.04 578.909 303.792 578.909 302.256C578.909 300.72 579.757 299.472 581.437 299.472C582.189 299.472 582.797 299.744 583.325 300.384L584.317 299.504ZM585.283 302.256C585.283 304.592 586.979 306.192 589.283 306.192C591.587 306.192 593.283 304.592 593.283 302.256C593.283 299.92 591.587 298.32 589.283 298.32C586.979 298.32 585.283 299.92 585.283 302.256ZM586.627 302.256C586.627 300.688 587.667 299.472 589.283 299.472C590.899 299.472 591.939 300.688 591.939 302.256C591.939 303.824 590.899 305.04 589.283 305.04C587.667 305.04 586.627 303.824 586.627 302.256ZM595.215 306H596.463V302.352C596.463 300.64 597.167 299.472 598.783 299.472C599.951 299.472 600.495 300.256 600.495 301.504V306H601.743V301.376C601.743 299.568 600.863 298.32 598.895 298.32C597.663 298.32 596.735 299.008 596.399 299.744H596.367C596.367 299.328 596.335 298.912 596.335 298.512H595.151C595.151 299.008 595.215 299.6 595.215 300.288V306ZM608.202 298.512H605.994V296.384H604.746V298.512H603.114V299.568H604.746V303.68C604.746 305.232 605.034 306.192 606.81 306.192C607.274 306.192 607.834 306.112 608.266 305.92L608.218 304.784C607.882 304.96 607.482 305.04 607.114 305.04C606.01 305.04 605.994 304.272 605.994 303.312V299.568H608.202V298.512ZM609.731 306H610.979V302.352C610.979 300.64 611.651 299.568 613.171 299.568C613.395 299.568 613.635 299.6 613.843 299.664L613.923 298.4C613.747 298.336 613.571 298.32 613.411 298.32C612.179 298.32 611.251 299.008 610.915 299.744H610.883C610.883 299.328 610.851 298.912 610.851 298.512H609.667C609.667 299.008 609.731 299.6 609.731 300.288V306ZM614.643 302.256C614.643 304.592 616.339 306.192 618.643 306.192C620.947 306.192 622.643 304.592 622.643 302.256C622.643 299.92 620.947 298.32 618.643 298.32C616.339 298.32 614.643 299.92 614.643 302.256ZM615.987 302.256C615.987 300.688 617.027 299.472 618.643 299.472C620.259 299.472 621.299 300.688 621.299 302.256C621.299 303.824 620.259 305.04 618.643 305.04C617.027 305.04 615.987 303.824 615.987 302.256ZM624.687 306H625.935V293.904H624.687V306ZM633.512 306H634.76V299.568H636.584V298.512H634.76V297.104C634.76 295.808 634.808 294.864 636.104 294.864C636.391 294.864 636.68 294.928 636.952 295.024L637.128 293.904C636.888 293.776 636.488 293.712 636.168 293.712C634.152 293.712 633.512 295.008 633.512 296.832V298.512H631.88V299.568H633.512V306ZM637.486 302.256C637.486 304.592 639.182 306.192 641.486 306.192C643.79 306.192 645.486 304.592 645.486 302.256C645.486 299.92 643.79 298.32 641.486 298.32C639.182 298.32 637.486 299.92 637.486 302.256ZM638.83 302.256C638.83 300.688 639.87 299.472 641.486 299.472C643.102 299.472 644.142 300.688 644.142 302.256C644.142 303.824 643.102 305.04 641.486 305.04C639.87 305.04 638.83 303.824 638.83 302.256ZM647.418 306H648.666V302.352C648.666 300.64 649.338 299.568 650.858 299.568C651.082 299.568 651.322 299.6 651.53 299.664L651.61 298.4C651.434 298.336 651.258 298.32 651.098 298.32C649.866 298.32 648.938 299.008 648.602 299.744H648.57C648.57 299.328 648.538 298.912 648.538 298.512H647.354C647.354 299.008 647.418 299.6 647.418 300.288V306ZM661.209 298.512H659.385V297.104C659.385 295.808 659.433 294.864 660.729 294.864C661.016 294.864 661.305 294.928 661.577 295.024L661.753 293.904C661.513 293.776 661.113 293.712 660.793 293.712C658.777 293.712 658.137 295.008 658.137 296.832V298.512H656.505V299.568H658.137V306H659.385V299.568H661.209V298.512ZM662.361 306H663.609V298.512H662.361V306ZM662.073 295.584C662.073 296.112 662.457 296.496 662.985 296.496C663.513 296.496 663.897 296.112 663.897 295.584C663.897 295.088 663.497 294.672 662.985 294.672C662.473 294.672 662.073 295.088 662.073 295.584ZM666.202 306H667.45V293.904H666.202V306ZM674.03 298.512H671.822V296.384H670.574V298.512H668.942V299.568H670.574V303.68C670.574 305.232 670.862 306.192 672.638 306.192C673.102 306.192 673.662 306.112 674.094 305.92L674.046 304.784C673.71 304.96 673.31 305.04 672.942 305.04C671.838 305.04 671.822 304.272 671.822 303.312V299.568H674.03V298.512ZM681.303 303.904C680.711 304.656 679.991 305.04 678.919 305.04C677.559 305.04 676.567 303.936 676.471 302.64H682.519V302.24C682.519 299.76 681.079 298.32 678.967 298.32C676.759 298.32 675.127 299.936 675.127 302.256C675.127 304.432 676.567 306.192 678.919 306.192C680.311 306.192 681.367 305.776 682.247 304.64L681.303 303.904ZM676.471 301.584C676.631 300.32 677.543 299.472 678.919 299.472C680.295 299.472 681.127 300.32 681.175 301.584H676.471ZM684.45 306H685.698V302.352C685.698 300.64 686.37 299.568 687.89 299.568C688.114 299.568 688.354 299.6 688.562 299.664L688.642 298.4C688.466 298.336 688.29 298.32 688.13 298.32C686.898 298.32 685.97 299.008 685.634 299.744H685.602C685.602 299.328 685.57 298.912 685.57 298.512H684.386C684.386 299.008 684.45 299.6 684.45 300.288V306Z" fill="#333333"/>
<defs>
<filter id="filter0_dd_152_27248" x="0" y="59" width="340" height="236" filterUnits="userSpaceOnUse" color-interpolation-filters="sRGB">
<feFlood flood-opacity="0" result="BackgroundImageFix"/>
<feColorMatrix in="SourceAlpha" type="matrix" values="0 0 0 0 0 0 0 0 0 0 0 0 0 0 0 0 0 0 127 0" result="hardAlpha"/>
<feOffset dy="2"/>
<feGaussianBlur stdDeviation="2"/>
<feColorMatrix type="matrix" values="0 0 0 0 0 0 0 0 0 0 0 0 0 0 0 0 0 0 0.1 0"/>
<feBlend mode="normal" in2="BackgroundImageFix" result="effect1_dropShadow_152_27248"/>
<feColorMatrix in="SourceAlpha" type="matrix" values="0 0 0 0 0 0 0 0 0 0 0 0 0 0 0 0 0 0 127 0" result="hardAlpha"/>
<feOffset dy="1"/>
<feGaussianBlur stdDeviation="5"/>
<feComposite in2="hardAlpha" operator="out"/>
<feColorMatrix type="matrix" values="0 0 0 0 0 0 0 0 0 0 0 0 0 0 0 0 0 0 0.12 0"/>
<feBlend mode="normal" in2="effect1_dropShadow_152_27248" result="effect2_dropShadow_152_27248"/>
<feBlend mode="normal" in="SourceGraphic" in2="effect2_dropShadow_152_27248" result="shape"/>
</filter>
<filter id="filter1_dd_152_27248" x="370" y="59" width="257" height="236" filterUnits="userSpaceOnUse" color-interpolation-filters="sRGB">
<feFlood flood-opacity="0" result="BackgroundImageFix"/>
<feColorMatrix in="SourceAlpha" type="matrix" values="0 0 0 0 0 0 0 0 0 0 0 0 0 0 0 0 0 0 127 0" result="hardAlpha"/>
<feOffset dy="2"/>
<feGaussianBlur stdDeviation="2"/>
<feColorMatrix type="matrix" values="0 0 0 0 0 0 0 0 0 0 0 0 0 0 0 0 0 0 0.1 0"/>
<feBlend mode="normal" in2="BackgroundImageFix" result="effect1_dropShadow_152_27248"/>
<feColorMatrix in="SourceAlpha" type="matrix" values="0 0 0 0 0 0 0 0 0 0 0 0 0 0 0 0 0 0 127 0" result="hardAlpha"/>
<feOffset dy="1"/>
<feGaussianBlur stdDeviation="5"/>
<feComposite in2="hardAlpha" operator="out"/>
<feColorMatrix type="matrix" values="0 0 0 0 0 0 0 0 0 0 0 0 0 0 0 0 0 0 0.12 0"/>
<feBlend mode="normal" in2="effect1_dropShadow_152_27248" result="effect2_dropShadow_152_27248"/>
<feBlend mode="normal" in="SourceGraphic" in2="effect2_dropShadow_152_27248" result="shape"/>
</filter>
<clipPath id="clip0_152_27248">
<rect width="41" height="24" fill="white" transform="translate(10)"/>
</clipPath>
<clipPath id="clip1_152_27248">
<rect width="320" height="17" fill="white" transform="translate(10 68)"/>
</clipPath>
<clipPath id="clip2_152_27248">
<rect x="10" y="68" width="320" height="216" rx="4" fill="white"/>
</clipPath>
<clipPath id="clip3_152_27248">
<rect x="380" y="68" width="237" height="216" rx="4" fill="white"/>
</clipPath>
</defs>
</svg>
