<svg width="656" height="325" viewBox="0 0 656 325" fill="none" xmlns="http://www.w3.org/2000/svg">
<g clip-path="url(#clip0_28_8322)">
<path d="M19.008 6.672H10.176V7.92H13.92V18H15.264V7.92H19.008V6.672ZM20.4835 18H21.7315V10.512H20.4835V18ZM20.1955 7.584C20.1955 8.112 20.5795 8.496 21.1075 8.496C21.6355 8.496 22.0195 8.112 22.0195 7.584C22.0195 7.088 21.6195 6.672 21.1075 6.672C20.5955 6.672 20.1955 7.088 20.1955 7.584ZM24.2153 18H25.4633V14.352C25.4633 12.64 26.1673 11.472 27.7833 11.472C28.8073 11.472 29.2233 12.112 29.2233 13.76V18H30.4713V13.68C30.4713 12.336 31.3513 11.472 32.4073 11.472C33.8633 11.472 34.2313 12.48 34.2313 13.52V18H35.4793V13.456C35.4793 11.52 34.7753 10.32 32.6313 10.32C31.4953 10.32 30.8073 10.864 30.2633 11.744C30.0233 11.232 29.5113 10.32 27.8953 10.32C26.6633 10.32 25.7353 11.008 25.3993 11.744H25.3673C25.3673 11.328 25.3353 10.912 25.3353 10.512H24.1513C24.1513 11.008 24.2153 11.6 24.2153 12.288V18ZM43.5843 15.904C42.9923 16.656 42.2723 17.04 41.2003 17.04C39.8403 17.04 38.8483 15.936 38.7523 14.64H44.8003V14.24C44.8003 11.76 43.3603 10.32 41.2483 10.32C39.0403 10.32 37.4083 11.936 37.4083 14.256C37.4083 16.432 38.8483 18.192 41.2003 18.192C42.5923 18.192 43.6483 17.776 44.5283 16.64L43.5843 15.904ZM38.7523 13.584C38.9123 12.32 39.8243 11.472 41.2003 11.472C42.5763 11.472 43.4083 12.32 43.4563 13.584H38.7523Z" fill="#333333"/>
<path opacity="0.8" d="M54.384 4.672H53.04V6.944L50.864 6.192L50.448 7.472L52.64 8.224L51.264 10.032L52.336 10.848L53.68 9.008L55.056 10.896L56.16 10.096L54.784 8.224L56.96 7.52L56.544 6.24L54.384 6.944V4.672Z" fill="#DB3259"/>
</g>
<rect x="10.5" y="28.5" width="138" height="35" rx="3.5" fill="white"/>
<path d="M127.999 51.5C126.812 51.5 125.652 51.1481 124.666 50.4888C123.679 49.8295 122.91 48.8925 122.456 47.7961C122.002 46.6997 121.883 45.4933 122.114 44.3295C122.346 43.1656 122.917 42.0965 123.756 41.2574C124.596 40.4182 125.665 39.8468 126.828 39.6153C127.992 39.3838 129.199 39.5026 130.295 39.9567C131.391 40.4108 132.329 41.1799 132.988 42.1666C133.647 43.1533 133.999 44.3133 133.999 45.5C133.999 47.0913 133.367 48.6174 132.242 49.7426C131.116 50.8679 129.59 51.5 127.999 51.5ZM127.999 40.5C127.01 40.5 126.043 40.7932 125.221 41.3427C124.399 41.8921 123.758 42.673 123.38 43.5866C123.001 44.5002 122.902 45.5055 123.095 46.4755C123.288 47.4454 123.764 48.3363 124.463 49.0355C125.163 49.7348 126.054 50.211 127.024 50.4039C127.993 50.5969 128.999 50.4978 129.912 50.1194C130.826 49.741 131.607 49.1001 132.156 48.2779C132.706 47.4556 132.999 46.4889 132.999 45.5C132.999 44.1739 132.472 42.9021 131.535 41.9645C130.597 41.0268 129.325 40.5 127.999 40.5Z" fill="#6C3078"/>
<path d="M129.999 46H127.999C127.867 45.9983 127.741 45.945 127.647 45.8516C127.554 45.7582 127.501 45.6321 127.499 45.5V42.1667C127.499 42.0341 127.552 41.9069 127.645 41.8131C127.739 41.7193 127.866 41.6667 127.999 41.6667C128.132 41.6667 128.259 41.7193 128.353 41.8131C128.446 41.9069 128.499 42.0341 128.499 42.1667V45H129.999C130.132 45 130.259 45.0527 130.353 45.1464C130.446 45.2402 130.499 45.3674 130.499 45.5C130.499 45.6326 130.446 45.7598 130.353 45.8536C130.259 45.9473 130.132 46 129.999 46Z" fill="#6C3078"/>
<rect x="10.5" y="28.5" width="138" height="35" rx="3.5" stroke="#9EA6B5"/>
<g filter="url(#filter0_dd_28_8322)">
<rect x="10" y="68" width="251" height="235.41" rx="4" fill="white" shape-rendering="crispEdges"/>
<path d="M38.1208 108H40.6168V103.104H45.4648V108H47.9608V96.672H45.4648V100.896H40.6168V96.672H38.1208V108ZM49.9574 108H52.3574V104.752C52.3574 103.2 52.5814 102.144 54.4054 102.144C54.7574 102.144 55.0934 102.208 55.4294 102.304V100.112C55.2054 100.048 54.9014 100.032 54.6294 100.032C53.5734 100.032 52.9014 100.528 52.3894 101.472H52.3574V100.224H49.9574V108ZM62.345 101.056C61.625 100.288 60.489 100.032 59.465 100.032C57.833 100.032 56.201 100.832 56.201 102.656C56.201 105.616 60.249 104.56 60.249 105.808C60.249 106.224 59.705 106.368 59.161 106.368C58.441 106.368 57.913 106.064 57.465 105.52L56.009 107.136C56.777 107.92 57.977 108.192 59.065 108.192C60.729 108.192 62.649 107.616 62.649 105.632C62.649 102.672 58.601 103.648 58.601 102.496C58.601 102.032 59.081 101.856 59.481 101.856C60.057 101.856 60.521 102.08 60.873 102.512L62.345 101.056Z" fill="#333333"/>
<path d="M92.9254 108H95.4214V99.312H95.4534L98.3174 108H100.221L103.197 99.312H103.229V108H105.725V96.672H101.965L99.3414 104.064H99.3094L96.7014 96.672H92.9254V108ZM107.763 108H110.163V100.224H107.763V108ZM107.571 97.776C107.571 98.544 108.195 99.168 108.963 99.168C109.731 99.168 110.355 98.544 110.355 97.776C110.355 97.008 109.731 96.384 108.963 96.384C108.195 96.384 107.571 97.008 107.571 97.776ZM111.887 108H114.287V104.128C114.287 103.12 114.479 102.144 115.727 102.144C116.959 102.144 116.975 103.296 116.975 104.192V108H119.375V103.712C119.375 101.632 118.927 100.032 116.495 100.032C115.327 100.032 114.543 100.672 114.223 101.28H114.191V100.224H111.887V108Z" fill="#333333"/>
<path d="M157.417 97.568C156.457 96.72 155.225 96.384 153.945 96.384C151.721 96.384 149.625 97.648 149.625 100.064C149.625 103.84 154.937 102.72 154.937 104.8C154.937 105.6 154.025 105.984 153.209 105.984C152.377 105.984 151.545 105.584 151.033 104.912L149.257 106.864C150.329 107.856 151.609 108.288 153.065 108.288C155.401 108.288 157.433 107.088 157.433 104.56C157.433 100.592 152.217 101.92 152.217 99.856C152.217 99.008 153.193 98.688 153.897 98.688C154.505 98.688 155.305 98.928 155.705 99.44L157.417 97.568ZM164.669 105.424C164.269 105.968 163.741 106.368 162.957 106.368C162.029 106.368 161.341 105.776 161.149 104.864H166.717V104.112C166.717 101.632 165.309 100.032 163.069 100.032C160.669 100.032 158.749 101.632 158.749 104.112C158.749 106.592 160.669 108.192 163.069 108.192C164.317 108.192 165.581 107.632 166.349 106.656L164.669 105.424ZM161.149 103.232C161.213 102.48 161.789 101.76 162.845 101.76C163.709 101.76 164.333 102.432 164.317 103.232H161.149ZM175.024 101.072C174.272 100.304 173.168 100.032 172.256 100.032C169.856 100.032 167.936 101.632 167.936 104.112C167.936 106.592 169.856 108.192 172.256 108.192C173.168 108.192 174.272 107.92 175.024 107.152L173.44 105.488C173.168 105.808 172.784 106.08 172.256 106.08C171.056 106.08 170.336 105.28 170.336 104.112C170.336 102.944 171.056 102.144 172.256 102.144C172.752 102.144 173.2 102.4 173.44 102.736L175.024 101.072Z" fill="#333333"/>
<path d="M34 193H237V225H34V193Z" fill="#E6E6E6"/>
<path d="M45.4294 215H46.9654V203.672H45.6054L42.4534 206.28L43.3494 207.352L45.4294 205.432V215ZM54.32 215H55.856V203.672H54.496L51.344 206.28L52.24 207.352L54.32 205.432V215Z" fill="#333333"/>
<path d="M45.4294 177H46.9654V165.672H45.6054L42.4534 168.28L43.3494 169.352L45.4294 167.432V177ZM50.544 171.336C50.544 173.72 51.232 177.192 54.448 177.192C57.664 177.192 58.352 173.72 58.352 171.336C58.352 168.856 57.664 165.48 54.448 165.48C51.232 165.48 50.544 168.856 50.544 171.336ZM52.08 171.336C52.08 169.768 52.304 166.824 54.448 166.824C56.592 166.824 56.816 169.768 56.816 171.336C56.816 172.808 56.592 175.848 54.448 175.848C52.304 175.848 52.08 172.808 52.08 171.336Z" fill="#333333"/>
<path d="M45.4294 249H46.9654V237.672H45.6054L42.4534 240.28L43.3494 241.352L45.4294 239.432V249ZM50.736 249H58.16V247.656H52.464L56.192 244.056C57.2 243.08 58.16 242.008 58.16 240.52C58.16 238.44 56.544 237.384 54.592 237.384C52.64 237.384 51.152 238.328 50.848 240.328L52.512 240.472C52.704 239.4 53.472 238.728 54.576 238.728C55.648 238.728 56.528 239.416 56.528 240.536C56.528 241.464 55.904 242.248 55.28 242.856L50.736 247.368V249Z" fill="#333333"/>
<path d="M54.59 272L50 276.58L45.41 272L44 273.41L50 279.41L56 273.41L54.59 272Z" fill="#6B778C"/>
<path d="M45.41 146.41L50 141.83L54.59 146.41L56 145L50 139L44 145L45.41 146.41Z" fill="#6B778C"/>
<path d="M97.8454 177H105.269V175.656H99.5734L103.301 172.056C104.309 171.08 105.269 170.008 105.269 168.52C105.269 166.44 103.653 165.384 101.701 165.384C99.7494 165.384 98.2614 166.328 97.9574 168.328L99.6214 168.472C99.8134 167.4 100.581 166.728 101.685 166.728C102.757 166.728 103.637 167.416 103.637 168.536C103.637 169.464 103.013 170.248 102.389 170.856L97.8454 175.368V177ZM108.528 177H110.336L113.2 172.472C113.888 171.384 114.336 170.52 114.336 169.128C114.336 166.92 112.576 165.48 110.448 165.48C108.32 165.48 106.56 166.792 106.56 169.288C106.56 171.768 108.432 172.872 110.064 172.872C110.528 172.872 110.944 172.792 111.312 172.616H111.376L108.528 177ZM112.8 169.176C112.8 170.552 111.856 171.528 110.448 171.528C109.04 171.528 108.096 170.552 108.096 169.176C108.096 167.8 109.04 166.824 110.448 166.824C111.856 166.824 112.8 167.8 112.8 169.176Z" fill="#333333"/>
<path d="M97.8454 246.728C98.3574 248.44 99.7654 249.192 101.493 249.192C103.493 249.192 105.269 248.088 105.269 245.912C105.269 244.52 104.469 243.304 103.045 243.064V243.032C104.197 242.696 104.981 241.656 104.981 240.472C104.981 238.376 103.365 237.384 101.509 237.384C100.005 237.384 98.6774 238.072 98.0854 239.512L99.6534 240.04C99.9894 239.256 100.709 238.728 101.541 238.728C102.629 238.728 103.445 239.368 103.445 240.568C103.445 241.688 102.885 242.344 100.549 242.344V243.688C101.989 243.688 103.733 243.912 103.733 245.8C103.733 247.016 102.725 247.848 101.541 247.848C100.341 247.848 99.8294 247.32 99.4614 246.232L97.8454 246.728ZM110.32 249H111.856V237.672H110.496L107.344 240.28L108.24 241.352L110.32 239.432V249Z" fill="#333333"/>
<path d="M97.8454 212.728C98.3574 214.44 99.7654 215.192 101.493 215.192C103.493 215.192 105.269 214.088 105.269 211.912C105.269 210.52 104.469 209.304 103.045 209.064V209.032C104.197 208.696 104.981 207.656 104.981 206.472C104.981 204.376 103.365 203.384 101.509 203.384C100.005 203.384 98.6774 204.072 98.0854 205.512L99.6534 206.04C99.9894 205.256 100.709 204.728 101.541 204.728C102.629 204.728 103.445 205.368 103.445 206.568C103.445 207.688 102.885 208.344 100.549 208.344V209.688C101.989 209.688 103.733 209.912 103.733 211.8C103.733 213.016 102.725 213.848 101.541 213.848C100.341 213.848 99.8294 213.32 99.4614 212.232L97.8454 212.728ZM106.544 209.336C106.544 211.72 107.232 215.192 110.448 215.192C113.664 215.192 114.352 211.72 114.352 209.336C114.352 206.856 113.664 203.48 110.448 203.48C107.232 203.48 106.544 206.856 106.544 209.336ZM108.08 209.336C108.08 207.768 108.304 204.824 110.448 204.824C112.592 204.824 112.816 207.768 112.816 209.336C112.816 210.808 112.592 213.848 110.448 213.848C108.304 213.848 108.08 210.808 108.08 209.336Z" fill="#333333"/>
<path d="M110.59 272L106 276.58L101.41 272L100 273.41L106 279.41L112 273.41L110.59 272Z" fill="#6B778C"/>
<path d="M101.41 146.41L106 141.83L110.59 146.41L112 145L106 139L100 145L101.41 146.41Z" fill="#6B778C"/>
<path d="M158.485 177H160.021V174.504H161.621V173.16H160.021V165.672H158.165L153.653 172.936V174.504H158.485V177ZM158.485 173.16H154.997L158.453 167.496H158.485V173.16ZM167.376 177H168.912V174.504H170.512V173.16H168.912V165.672H167.056L162.544 172.936V174.504H167.376V177ZM167.376 173.16H163.888L167.344 167.496H167.376V173.16Z" fill="#333333"/>
<path d="M160.485 249H162.021V246.504H163.621V245.16H162.021V237.672H160.165L155.653 244.936V246.504H160.485V249ZM160.485 245.16H156.997L160.453 239.496H160.485V245.16ZM170.368 237.672H168.56L165.696 242.2C165.008 243.288 164.56 244.152 164.56 245.544C164.56 247.752 166.32 249.192 168.448 249.192C170.576 249.192 172.336 247.88 172.336 245.384C172.336 242.904 170.464 241.8 168.832 241.8C168.368 241.8 167.952 241.88 167.584 242.056H167.52L170.368 237.672ZM166.096 245.496C166.096 244.12 167.04 243.144 168.448 243.144C169.856 243.144 170.8 244.12 170.8 245.496C170.8 246.872 169.856 247.848 168.448 247.848C167.04 247.848 166.096 246.872 166.096 245.496Z" fill="#333333"/>
<path d="M160.485 215H162.021V212.504H163.621V211.16H162.021V203.672H160.165L155.653 210.936V212.504H160.485V215ZM160.485 211.16H156.997L160.453 205.496H160.485V211.16ZM171.536 203.672H165.456L165.328 209.64C166.096 209.256 167.088 209.048 167.664 209.048C169.28 209.048 170.4 209.88 170.4 211.528C170.4 212.968 169.408 213.848 168.192 213.848C167.184 213.848 166.496 213.416 166.096 212.376L164.544 212.904C165.072 214.376 166.416 215.192 167.952 215.192C170.16 215.192 171.936 213.704 171.936 211.448C171.936 209.24 170.544 207.704 168.416 207.704C168.048 207.704 167.216 207.8 166.896 207.944L166.944 205.112H171.536V203.672Z" fill="#333333"/>
<path d="M168.59 272L164 276.58L159.41 272L158 273.41L164 279.41L170 273.41L168.59 272Z" fill="#6B778C"/>
<path d="M157.41 146.41L162 141.83L166.59 146.41L168 145L162 139L156 145L157.41 146.41Z" fill="#6B778C"/>
<path d="M209.464 249H211V244.008H213.448C216.344 244.008 217.08 242.264 217.08 240.84C217.08 239.416 216.344 237.672 213.448 237.672H209.464V249ZM211 239.016H213.016C214.232 239.016 215.448 239.304 215.448 240.84C215.448 242.376 214.232 242.664 213.016 242.664H211V239.016ZM218.836 249H220.372V239.688H220.404L224.228 249H225.252L229.076 239.688H229.108V249H230.644V237.672H228.356L224.788 246.248H224.724L221.124 237.672H218.836V249Z" fill="#333333"/>
<path d="M208.133 215H209.925L211.045 212.2H216.437L217.573 215H219.365L214.517 203.672H213.125L208.133 215ZM211.589 210.856L213.733 205.656H213.765L215.877 210.856H211.589ZM220.727 215H222.263V205.688H222.295L226.119 215H227.143L230.967 205.688H230.999V215H232.535V203.672H230.247L226.679 212.248H226.615L223.015 203.672H220.727V215Z" fill="#333333"/>
<path d="M224.59 272L220 276.58L215.41 272L214 273.41L220 279.41L226 273.41L224.59 272Z" fill="#6B778C"/>
<path d="M216.41 146.41L221 141.83L225.59 146.41L227 145L221 139L215 145L216.41 146.41Z" fill="#6B778C"/>
</g>
<g clip-path="url(#clip1_28_8322)">
<path d="M362.2 18H366.552C368.776 18 372.104 16.512 372.104 12.336C372.104 8.16 368.776 6.672 366.552 6.672H362.2V18ZM363.544 7.92H366.104C368.696 7.92 370.664 9.232 370.664 12.336C370.664 15.44 368.696 16.752 366.104 16.752H363.544V7.92ZM374.731 12.288C375.323 11.744 376.155 11.472 376.955 11.472C378.123 11.472 378.811 12.032 378.811 13.12V13.344H378.331C376.491 13.344 373.611 13.488 373.611 15.968C373.611 17.424 374.875 18.192 376.395 18.192C377.531 18.192 378.363 17.648 378.859 16.88H378.891C378.891 17.2 378.891 17.664 378.971 18H380.171C380.107 17.616 380.059 17.136 380.059 16.704V13.488C380.059 11.376 379.131 10.32 376.923 10.32C375.835 10.32 374.715 10.688 373.947 11.472L374.731 12.288ZM378.811 14.4V14.88C378.779 16.096 378.043 17.136 376.603 17.136C375.659 17.136 374.955 16.784 374.955 15.84C374.955 14.832 375.979 14.4 377.563 14.4H378.811ZM386.436 10.512H384.228V8.384H382.98V10.512H381.348V11.568H382.98V15.68C382.98 17.232 383.268 18.192 385.044 18.192C385.508 18.192 386.068 18.112 386.5 17.92L386.452 16.784C386.116 16.96 385.716 17.04 385.348 17.04C384.244 17.04 384.228 16.272 384.228 15.312V11.568H386.436V10.512ZM393.709 15.904C393.117 16.656 392.397 17.04 391.325 17.04C389.965 17.04 388.973 15.936 388.877 14.64H394.925V14.24C394.925 11.76 393.485 10.32 391.373 10.32C389.165 10.32 387.533 11.936 387.533 14.256C387.533 16.432 388.973 18.192 391.325 18.192C392.717 18.192 393.773 17.776 394.653 16.64L393.709 15.904ZM388.877 13.584C389.037 12.32 389.949 11.472 391.325 11.472C392.701 11.472 393.533 12.32 393.581 13.584H388.877Z" fill="#333333"/>
</g>
<rect x="361.5" y="28.5" width="165" height="35" rx="3.5" fill="white"/>
<path d="M373.608 44.336C373.608 46.912 374.328 50.192 377.448 50.192C380.568 50.192 381.288 46.912 381.288 44.336C381.288 41.76 380.568 38.48 377.448 38.48C374.328 38.48 373.608 41.76 373.608 44.336ZM374.952 44.336C374.952 42.672 375.208 39.632 377.448 39.632C379.688 39.632 379.944 42.672 379.944 44.336C379.944 46 379.688 49.04 377.448 49.04C375.208 49.04 374.952 46 374.952 44.336ZM388.595 38.672H386.947L382.451 45.92V47.408H387.251V50H388.595V47.408H390.227V46.16H388.595V38.672ZM387.251 46.16H383.603L387.219 40.24H387.251V46.16ZM396.642 50H397.986V40.592H398.018L404.578 50H406.274V38.672H404.93V48.08H404.898L398.338 38.672H396.642V50ZM408.44 46.256C408.44 48.592 410.136 50.192 412.44 50.192C414.744 50.192 416.44 48.592 416.44 46.256C416.44 43.92 414.744 42.32 412.44 42.32C410.136 42.32 408.44 43.92 408.44 46.256ZM409.784 46.256C409.784 44.688 410.824 43.472 412.44 43.472C414.056 43.472 415.096 44.688 415.096 46.256C415.096 47.824 414.056 49.04 412.44 49.04C410.824 49.04 409.784 47.824 409.784 46.256ZM424.74 42.512H423.396L421.172 48.384H421.14L418.804 42.512H417.348L420.404 50H421.78L424.74 42.512ZM430.159 50H437.455V48.752H431.679V48.72L435.167 45.44C436.303 44.368 437.375 43.36 437.375 41.552C437.375 39.536 435.791 38.48 433.919 38.48C432.095 38.48 430.671 39.456 430.367 41.312L431.823 41.44C432.031 40.352 432.831 39.632 433.967 39.632C435.103 39.632 436.031 40.368 436.031 41.552C436.031 42.656 435.503 43.264 434.431 44.304L430.159 48.464V50ZM438.858 44.336C438.858 46.912 439.578 50.192 442.698 50.192C445.818 50.192 446.538 46.912 446.538 44.336C446.538 41.76 445.818 38.48 442.698 38.48C439.578 38.48 438.858 41.76 438.858 44.336ZM440.202 44.336C440.202 42.672 440.458 39.632 442.698 39.632C444.938 39.632 445.194 42.672 445.194 44.336C445.194 46 444.938 49.04 442.698 49.04C440.458 49.04 440.202 46 440.202 44.336ZM447.941 50H455.237V48.752H449.461V48.72L452.949 45.44C454.085 44.368 455.157 43.36 455.157 41.552C455.157 39.536 453.573 38.48 451.701 38.48C449.877 38.48 448.453 39.456 448.149 41.312L449.605 41.44C449.813 40.352 450.613 39.632 451.749 39.632C452.885 39.632 453.813 40.368 453.813 41.552C453.813 42.656 453.285 43.264 452.213 44.304L447.941 48.464V50ZM461.791 38.672H460.623L457.583 41.136L458.383 42.112L460.415 40.4H460.447V50H461.791V38.672Z" fill="#333333"/>
<path d="M509.332 40.3333H508.499V39.5C508.499 39.3674 508.446 39.2402 508.352 39.1464C508.258 39.0527 508.131 39 507.999 39C507.866 39 507.739 39.0527 507.645 39.1464C507.551 39.2402 507.499 39.3674 507.499 39.5V40.3333H504.499V39.5C504.499 39.3674 504.446 39.2402 504.352 39.1464C504.258 39.0527 504.131 39 503.999 39C503.866 39 503.739 39.0527 503.645 39.1464C503.551 39.2402 503.499 39.3674 503.499 39.5V40.3333H502.665C502.179 40.3333 501.713 40.5265 501.369 40.8703C501.025 41.2141 500.832 41.6804 500.832 42.1667V49.5C500.832 49.9862 501.025 50.4525 501.369 50.7964C501.713 51.1402 502.179 51.3333 502.665 51.3333H509.332C509.818 51.3333 510.285 51.1402 510.628 50.7964C510.972 50.4525 511.165 49.9862 511.165 49.5V42.1667C511.165 41.6804 510.972 41.2141 510.628 40.8703C510.285 40.5265 509.818 40.3333 509.332 40.3333ZM502.665 41.3333H503.499V42.1667C503.499 42.2993 503.551 42.4265 503.645 42.5202C503.739 42.614 503.866 42.6667 503.999 42.6667C504.131 42.6667 504.258 42.614 504.352 42.5202C504.446 42.4265 504.499 42.2993 504.499 42.1667V41.3333H507.499V42.1667C507.499 42.2993 507.551 42.4265 507.645 42.5202C507.739 42.614 507.866 42.6667 507.999 42.6667C508.131 42.6667 508.258 42.614 508.352 42.5202C508.446 42.4265 508.499 42.2993 508.499 42.1667V41.3333H509.332C509.553 41.3333 509.765 41.4211 509.921 41.5774C510.078 41.7337 510.165 41.9457 510.165 42.1667V44H501.832V42.1667C501.832 41.9457 501.92 41.7337 502.076 41.5774C502.232 41.4211 502.444 41.3333 502.665 41.3333ZM509.332 50.3333H502.665C502.444 50.3333 502.232 50.2455 502.076 50.0893C501.92 49.933 501.832 49.721 501.832 49.5V45H510.165V49.5C510.165 49.721 510.078 49.933 509.921 50.0893C509.765 50.2455 509.553 50.3333 509.332 50.3333Z" fill="#6C3078"/>
<rect x="361.5" y="28.5" width="165" height="35" rx="3.5" stroke="#9EA6B5"/>
<g filter="url(#filter1_dd_28_8322)">
<rect x="361" y="68" width="285" height="246" rx="4" fill="white"/>
<path d="M443.55 94H446.046V85.936H446.078L451.022 94H454.286V82.672H451.79V90.544H451.758L446.942 82.672H443.55V94ZM456.005 90.112C456.005 92.592 457.925 94.192 460.325 94.192C462.725 94.192 464.645 92.592 464.645 90.112C464.645 87.632 462.725 86.032 460.325 86.032C457.925 86.032 456.005 87.632 456.005 90.112ZM458.405 90.112C458.405 88.944 459.125 88.144 460.325 88.144C461.525 88.144 462.245 88.944 462.245 90.112C462.245 91.28 461.525 92.08 460.325 92.08C459.125 92.08 458.405 91.28 458.405 90.112ZM468.459 94H471.003L474.075 86.224H471.659L469.835 91.504H469.803L467.835 86.224H465.243L468.459 94ZM480.63 91.424C480.23 91.968 479.702 92.368 478.918 92.368C477.99 92.368 477.302 91.776 477.11 90.864H482.678V90.112C482.678 87.632 481.27 86.032 479.03 86.032C476.63 86.032 474.71 87.632 474.71 90.112C474.71 92.592 476.63 94.192 479.03 94.192C480.278 94.192 481.542 93.632 482.31 92.656L480.63 91.424ZM477.11 89.232C477.174 88.48 477.75 87.76 478.806 87.76C479.67 87.76 480.294 88.432 480.278 89.232H477.11ZM484.137 94H486.537V90.128C486.537 89.12 486.729 88.144 487.977 88.144C489.081 88.144 489.049 89.312 489.049 89.888V94H491.449V89.888C491.449 88.928 491.801 88.144 492.905 88.144C493.689 88.144 493.961 88.752 493.961 89.472V94H496.361V89.408C496.361 87.52 495.721 86.032 493.609 86.032C492.457 86.032 491.705 86.432 491.145 87.424C490.729 86.48 489.833 86.032 488.745 86.032C487.577 86.032 486.793 86.672 486.473 87.28H486.441V86.224H484.137V94ZM498.283 94H500.491V92.976H500.523C500.891 93.536 501.819 94.192 502.907 94.192C505.211 94.192 506.731 92.528 506.731 90.176C506.731 88.016 505.387 86.032 503.179 86.032C502.187 86.032 501.259 86.304 500.715 87.056H500.683V81.904H498.283V94ZM500.491 90.112C500.491 88.944 501.211 88.144 502.411 88.144C503.611 88.144 504.331 88.944 504.331 90.112C504.331 91.28 503.611 92.08 502.411 92.08C501.211 92.08 500.491 91.28 500.491 90.112ZM513.817 91.424C513.417 91.968 512.889 92.368 512.105 92.368C511.177 92.368 510.489 91.776 510.297 90.864H515.865V90.112C515.865 87.632 514.457 86.032 512.217 86.032C509.817 86.032 507.897 87.632 507.897 90.112C507.897 92.592 509.817 94.192 512.217 94.192C513.465 94.192 514.729 93.632 515.497 92.656L513.817 91.424ZM510.297 89.232C510.361 88.48 510.937 87.76 511.993 87.76C512.857 87.76 513.481 88.432 513.465 89.232H510.297ZM517.325 94H519.725V90.752C519.725 89.2 519.949 88.144 521.773 88.144C522.125 88.144 522.461 88.208 522.797 88.304V86.112C522.573 86.048 522.269 86.032 521.997 86.032C520.941 86.032 520.269 86.528 519.757 87.472H519.725V86.224H517.325V94ZM528.511 94H536.415V91.888H531.391L534.831 88.928C535.695 88.176 536.319 87.344 536.319 85.888C536.319 83.616 534.719 82.48 532.655 82.48C530.431 82.48 528.799 83.616 528.655 85.952L531.055 86.128C531.119 85.312 531.647 84.688 532.527 84.688C533.263 84.688 533.919 85.152 533.919 85.92C533.919 86.608 533.359 87.088 532.911 87.504L528.511 91.456V94ZM537.723 88.336C537.723 91.024 538.571 94.192 541.931 94.192C545.291 94.192 546.139 91.024 546.139 88.336C546.139 85.648 545.291 82.48 541.931 82.48C538.571 82.48 537.723 85.648 537.723 88.336ZM540.123 88.336C540.123 87.152 540.203 84.688 541.931 84.688C543.659 84.688 543.739 87.152 543.739 88.336C543.739 89.52 543.659 91.984 541.931 91.984C540.203 91.984 540.123 89.52 540.123 88.336ZM547.448 94H555.352V91.888H550.328L553.768 88.928C554.632 88.176 555.256 87.344 555.256 85.888C555.256 83.616 553.656 82.48 551.592 82.48C549.368 82.48 547.736 83.616 547.592 85.952L549.992 86.128C550.056 85.312 550.584 84.688 551.464 84.688C552.2 84.688 552.856 85.152 552.856 85.92C552.856 86.608 552.296 87.088 551.848 87.504L547.448 91.456V94ZM560.741 94H563.045V82.672H560.805L557.109 85.792L558.469 87.36L560.741 85.36V94Z" fill="#333333"/>
<path d="M382 94.75C381.902 94.7505 381.804 94.7312 381.713 94.6935C381.622 94.6557 381.54 94.6001 381.47 94.53L376.47 89.53C376.33 89.3894 376.251 89.1988 376.251 89C376.251 88.8012 376.33 88.6106 376.47 88.47L381.47 83.47C381.612 83.3375 381.801 83.2654 381.995 83.2688C382.189 83.2723 382.375 83.351 382.512 83.4884C382.649 83.6258 382.728 83.8112 382.731 84.0055C382.735 84.1998 382.663 84.3878 382.53 84.53L378.06 89L382.53 93.47C382.671 93.6106 382.75 93.8012 382.75 94C382.75 94.1988 382.671 94.3894 382.53 94.53C382.461 94.6001 382.379 94.6557 382.288 94.6935C382.196 94.7312 382.099 94.7505 382 94.75Z" fill="#6B778C"/>
<path d="M625 94.75C624.902 94.7505 624.804 94.7312 624.713 94.6935C624.622 94.6557 624.54 94.6001 624.47 94.53C624.33 94.3894 624.251 94.1988 624.251 94C624.251 93.8012 624.33 93.6106 624.47 93.47L628.94 89L624.47 84.53C624.338 84.3878 624.266 84.1998 624.269 84.0055C624.273 83.8112 624.351 83.6258 624.489 83.4884C624.626 83.351 624.811 83.2723 625.006 83.2688C625.2 83.2654 625.388 83.3375 625.53 83.47L630.53 88.47C630.671 88.6106 630.75 88.8012 630.75 89C630.75 89.1988 630.671 89.3894 630.53 89.53L625.53 94.53C625.461 94.6001 625.379 94.6557 625.288 94.6935C625.196 94.7312 625.099 94.7505 625 94.75Z" fill="#6B778C"/>
<path d="M374.193 125.858C373.423 125.13 372.387 124.836 371.351 124.836C369.517 124.836 367.697 125.788 367.697 127.832C367.697 131.374 372.401 130.128 372.401 132.298C372.401 133.208 371.477 133.656 370.665 133.656C369.881 133.656 369.139 133.278 368.705 132.62L367.375 133.908C368.187 134.874 369.391 135.252 370.623 135.252C372.569 135.252 374.249 134.216 374.249 132.088C374.249 128.56 369.545 129.694 369.545 127.706C369.545 126.796 370.357 126.432 371.169 126.432C371.855 126.432 372.527 126.684 372.905 127.216L374.193 125.858ZM382.064 128.28H380.384V131.948C380.384 132.844 379.95 133.656 378.844 133.656C377.668 133.656 377.612 132.424 377.612 131.682V128.28H375.932V132.522C375.932 133.894 376.576 135.168 378.382 135.168C379.502 135.168 380.132 134.594 380.44 133.922H380.468V135H382.064V128.28ZM383.972 135H385.652V131.332C385.652 130.436 386.086 129.624 387.192 129.624C388.368 129.624 388.424 130.856 388.424 131.598V135H390.104V130.758C390.104 129.386 389.46 128.112 387.654 128.112C386.534 128.112 385.904 128.686 385.596 129.358H385.568V128.28H383.972V135Z" fill="#333333"/>
<path d="M410.376 135H412.056V126.768H412.084L415.094 135H416.326L419.336 126.768H419.364V135H421.044V125.088H418.384L415.71 132.032L413.064 125.088H410.376V135ZM422.804 131.64C422.804 133.754 424.428 135.168 426.458 135.168C428.488 135.168 430.112 133.754 430.112 131.64C430.112 129.526 428.488 128.112 426.458 128.112C424.428 128.112 422.804 129.526 422.804 131.64ZM424.484 131.64C424.484 130.59 425.226 129.624 426.458 129.624C427.69 129.624 428.432 130.59 428.432 131.64C428.432 132.69 427.69 133.656 426.458 133.656C425.226 133.656 424.484 132.69 424.484 131.64ZM431.685 135H433.365V131.332C433.365 130.436 433.799 129.624 434.905 129.624C436.081 129.624 436.137 130.856 436.137 131.598V135H437.817V130.758C437.817 129.386 437.173 128.112 435.367 128.112C434.247 128.112 433.617 128.686 433.309 129.358H433.281V128.28H431.685V135Z" fill="#333333"/>
<path d="M459.72 135H461.484V126.684H464.522V125.088H456.682V126.684H459.72V135ZM470.422 128.28H468.742V131.948C468.742 132.844 468.308 133.656 467.202 133.656C466.026 133.656 465.97 132.424 465.97 131.682V128.28H464.29V132.522C464.29 133.894 464.934 135.168 466.74 135.168C467.86 135.168 468.49 134.594 468.798 133.922H468.826V135H470.422V128.28ZM478.797 132.228V131.766C478.797 129.428 477.523 128.112 475.647 128.112C473.617 128.112 471.993 129.526 471.993 131.64C471.993 133.754 473.617 135.168 475.647 135.168C476.711 135.168 477.705 134.79 478.489 133.824L477.285 132.914C476.865 133.432 476.319 133.824 475.479 133.824C474.541 133.824 473.785 133.222 473.673 132.228H478.797ZM473.673 130.968C473.799 130.002 474.415 129.372 475.409 129.372C476.459 129.372 477.103 129.988 477.117 130.968H473.673Z" fill="#333333"/>
<path d="M496.75 136H498.374L500.67 128.454H500.698L502.994 136H504.674L507.558 126.088H505.766L503.82 133.228H503.792L501.608 126.088H499.872L497.646 133.228H497.618L495.756 126.088H493.824L496.75 136ZM514.738 133.228V132.766C514.738 130.428 513.464 129.112 511.588 129.112C509.558 129.112 507.934 130.526 507.934 132.64C507.934 134.754 509.558 136.168 511.588 136.168C512.652 136.168 513.646 135.79 514.43 134.824L513.226 133.914C512.806 134.432 512.26 134.824 511.42 134.824C510.482 134.824 509.726 134.222 509.614 133.228H514.738ZM509.614 131.968C509.74 131.002 510.356 130.372 511.35 130.372C512.4 130.372 513.044 130.988 513.058 131.968H509.614ZM521.629 136H523.225V125.416H521.545V130.134H521.503C521.153 129.7 520.481 129.112 519.221 129.112C517.303 129.112 515.973 130.652 515.973 132.64C515.973 134.628 517.219 136.168 519.291 136.168C520.229 136.168 521.111 135.804 521.601 134.992H521.629V136ZM517.653 132.64C517.653 131.59 518.395 130.624 519.627 130.624C520.859 130.624 521.601 131.59 521.601 132.64C521.601 133.69 520.859 134.656 519.627 134.656C518.395 134.656 517.653 133.69 517.653 132.64Z" fill="#333333"/>
<path d="M545.077 135H546.841V126.684H549.879V125.088H542.039V126.684H545.077V135ZM552.612 124.416H550.932V135H552.612V131.332C552.612 130.436 553.046 129.624 554.152 129.624C555.328 129.624 555.384 130.856 555.384 131.598V135H557.064V130.758C557.064 129.386 556.42 128.112 554.614 128.112C553.578 128.112 552.906 128.658 552.64 129.218H552.612V124.416ZM565.104 128.28H563.424V131.948C563.424 132.844 562.99 133.656 561.884 133.656C560.708 133.656 560.652 132.424 560.652 131.682V128.28H558.972V132.522C558.972 133.894 559.616 135.168 561.422 135.168C562.542 135.168 563.172 134.594 563.48 133.922H563.508V135H565.104V128.28Z" fill="#333333"/>
<path d="M584.547 135H586.311V130.884H590.679V129.288H586.311V126.684H590.945V125.088H584.547V135ZM592.432 135H594.112V131.402C594.112 131.038 594.336 129.708 595.918 129.708C596.184 129.708 596.45 129.764 596.73 129.834V128.21C596.534 128.154 596.338 128.112 596.128 128.112C595.246 128.112 594.504 128.574 594.14 129.344H594.112V128.28H592.432V135ZM597.902 135H599.582V128.28H597.902V135ZM597.664 125.998C597.664 126.53 598.112 127.006 598.728 127.006C599.344 127.006 599.82 126.572 599.82 125.998C599.82 125.424 599.344 124.99 598.728 124.99C598.112 124.99 597.664 125.466 597.664 125.998Z" fill="#333333"/>
<path d="M623.752 125.858C622.982 125.13 621.946 124.836 620.91 124.836C619.076 124.836 617.256 125.788 617.256 127.832C617.256 131.374 621.96 130.128 621.96 132.298C621.96 133.208 621.036 133.656 620.224 133.656C619.44 133.656 618.698 133.278 618.264 132.62L616.934 133.908C617.746 134.874 618.95 135.252 620.182 135.252C622.128 135.252 623.808 134.216 623.808 132.088C623.808 128.56 619.104 129.694 619.104 127.706C619.104 126.796 619.916 126.432 620.728 126.432C621.414 126.432 622.086 126.684 622.464 127.216L623.752 125.858ZM629.691 135H631.203V131.136C631.203 130.184 631.203 128.112 628.333 128.112C627.269 128.112 626.219 128.434 625.477 129.19L626.359 130.072C626.807 129.652 627.451 129.372 628.151 129.372C629.047 129.372 629.691 129.806 629.691 130.632V130.814H629.271C627.591 130.814 625.043 130.968 625.043 133.152C625.043 134.482 626.247 135.168 627.493 135.168C628.389 135.168 629.173 134.832 629.649 134.076H629.691V135ZM629.593 132.368C629.593 133.306 629.047 133.908 627.899 133.908C627.353 133.908 626.723 133.642 626.723 133.026C626.723 132.06 628.319 131.99 629.243 131.99H629.593V132.368ZM633.613 129.708V132.788C633.613 134.37 634.033 135.168 635.811 135.168C636.203 135.168 636.791 135.112 637.141 134.944V133.53C636.931 133.684 636.525 133.74 636.231 133.74C635.489 133.74 635.293 133.32 635.293 132.648V129.708H637.141V128.28H635.293V126.334H633.613V128.28H632.227V129.708H633.613Z" fill="#333333"/>
<path d="M370.845 166.728C371.357 168.44 372.765 169.192 374.493 169.192C376.493 169.192 378.269 168.088 378.269 165.912C378.269 164.52 377.469 163.304 376.045 163.064V163.032C377.197 162.696 377.981 161.656 377.981 160.472C377.981 158.376 376.365 157.384 374.509 157.384C373.005 157.384 371.677 158.072 371.085 159.512L372.653 160.04C372.989 159.256 373.709 158.728 374.541 158.728C375.629 158.728 376.445 159.368 376.445 160.568C376.445 161.688 375.885 162.344 373.549 162.344V163.688C374.989 163.688 376.733 163.912 376.733 165.8C376.733 167.016 375.725 167.848 374.541 167.848C373.341 167.848 372.829 167.32 372.461 166.232L370.845 166.728ZM383.32 169H384.856V157.672H383.496L380.344 160.28L381.24 161.352L383.32 159.432V169Z" fill="#D2D6DD"/>
<path d="M423.875 169H425.411V157.672H424.051L420.899 160.28L421.795 161.352L423.875 159.432V169Z" fill="#333333"/>
<path d="M464.291 169H471.715V167.656H466.019L469.747 164.056C470.755 163.08 471.715 162.008 471.715 160.52C471.715 158.44 470.099 157.384 468.147 157.384C466.195 157.384 464.707 158.328 464.403 160.328L466.067 160.472C466.259 159.4 467.027 158.728 468.131 158.728C469.203 158.728 470.083 159.416 470.083 160.536C470.083 161.464 469.459 162.248 468.835 162.856L464.291 167.368V169Z" fill="#333333"/>
<path d="M505.291 166.728C505.803 168.44 507.211 169.192 508.939 169.192C510.939 169.192 512.715 168.088 512.715 165.912C512.715 164.52 511.915 163.304 510.491 163.064V163.032C511.643 162.696 512.427 161.656 512.427 160.472C512.427 158.376 510.811 157.384 508.955 157.384C507.451 157.384 506.123 158.072 505.531 159.512L507.099 160.04C507.435 159.256 508.155 158.728 508.987 158.728C510.075 158.728 510.891 159.368 510.891 160.568C510.891 161.688 510.331 162.344 507.995 162.344V163.688C509.435 163.688 511.179 163.912 511.179 165.8C511.179 167.016 510.171 167.848 508.987 167.848C507.787 167.848 507.275 167.32 506.907 166.232L505.291 166.728Z" fill="#333333"/>
<path d="M554.931 169H556.467V166.504H558.067V165.16H556.467V157.672H554.611L550.099 164.936V166.504H554.931V169ZM554.931 165.16H551.443L554.899 159.496H554.931V165.16Z" fill="#333333"/>
<path d="M595.091 157.672H589.011L588.883 163.64C589.651 163.256 590.643 163.048 591.219 163.048C592.835 163.048 593.955 163.88 593.955 165.528C593.955 166.968 592.963 167.848 591.747 167.848C590.739 167.848 590.051 167.416 589.651 166.376L588.099 166.904C588.627 168.376 589.971 169.192 591.507 169.192C593.715 169.192 595.491 167.704 595.491 165.448C595.491 163.24 594.099 161.704 591.971 161.704C591.603 161.704 590.771 161.8 590.451 161.944L590.499 159.112H595.091V157.672Z" fill="#333333"/>
<path d="M628.923 157.672H627.115L624.251 162.2C623.563 163.288 623.115 164.152 623.115 165.544C623.115 167.752 624.875 169.192 627.003 169.192C629.131 169.192 630.891 167.88 630.891 165.384C630.891 162.904 629.019 161.8 627.387 161.8C626.923 161.8 626.507 161.88 626.139 162.056H626.075L628.923 157.672ZM624.651 165.496C624.651 164.12 625.595 163.144 627.003 163.144C628.411 163.144 629.355 164.12 629.355 165.496C629.355 166.872 628.411 167.848 627.003 167.848C625.595 167.848 624.651 166.872 624.651 165.496Z" fill="#333333"/>
<path d="M376.107 202H377.835L382.347 191.984V190.672H375.227V192.016H380.699L376.107 202Z" fill="#333333"/>
<path d="M424.003 202.192C426.067 202.192 427.699 200.896 427.699 198.752C427.699 197.344 426.771 196.32 425.539 195.984V195.936C426.387 195.712 427.315 194.864 427.315 193.296C427.315 191.584 425.779 190.48 424.003 190.48C422.227 190.48 420.691 191.584 420.691 193.296C420.691 194.864 421.619 195.712 422.467 195.936V195.984C421.235 196.32 420.307 197.344 420.307 198.752C420.307 200.896 421.939 202.192 424.003 202.192ZM422.227 193.52C422.227 192.464 423.027 191.728 424.003 191.728C425.059 191.728 425.779 192.48 425.779 193.52C425.779 194.448 425.187 195.312 424.003 195.312C422.867 195.312 422.227 194.4 422.227 193.52ZM424.003 200.848C422.835 200.848 421.843 200.08 421.843 198.752C421.843 197.552 422.755 196.672 424.003 196.656C425.203 196.672 426.163 197.376 426.163 198.752C426.163 199.984 425.283 200.848 424.003 200.848Z" fill="#333333"/>
<path d="M466.083 202H467.891L470.755 197.472C471.443 196.384 471.891 195.52 471.891 194.128C471.891 191.92 470.131 190.48 468.003 190.48C465.875 190.48 464.115 191.792 464.115 194.288C464.115 196.768 465.987 197.872 467.619 197.872C468.083 197.872 468.499 197.792 468.867 197.616H468.931L466.083 202ZM470.355 194.176C470.355 195.552 469.411 196.528 468.003 196.528C466.595 196.528 465.651 195.552 465.651 194.176C465.651 192.8 466.595 191.824 468.003 191.824C469.411 191.824 470.355 192.8 470.355 194.176Z" fill="#333333"/>
<path d="M504.429 202H505.965V190.672H504.605L501.453 193.28L502.349 194.352L504.429 192.432V202ZM509.544 196.336C509.544 198.72 510.232 202.192 513.448 202.192C516.664 202.192 517.352 198.72 517.352 196.336C517.352 193.856 516.664 190.48 513.448 190.48C510.232 190.48 509.544 193.856 509.544 196.336ZM511.08 196.336C511.08 194.768 511.304 191.824 513.448 191.824C515.592 191.824 515.816 194.768 515.816 196.336C515.816 197.808 515.592 200.848 513.448 200.848C511.304 200.848 511.08 197.808 511.08 196.336Z" fill="#333333"/>
<path d="M549.429 202H550.965V190.672H549.605L546.453 193.28L547.349 194.352L549.429 192.432V202ZM558.32 202H559.856V190.672H558.496L555.344 193.28L556.24 194.352L558.32 192.432V202Z" fill="#333333"/>
<path d="M587.429 202H588.965V190.672H587.605L584.453 193.28L585.349 194.352L587.429 192.432V202ZM592.736 202H600.16V200.656H594.464L598.192 197.056C599.2 196.08 600.16 195.008 600.16 193.52C600.16 191.44 598.544 190.384 596.592 190.384C594.64 190.384 593.152 191.328 592.848 193.328L594.512 193.472C594.704 192.4 595.472 191.728 596.576 191.728C597.648 191.728 598.528 192.416 598.528 193.536C598.528 194.464 597.904 195.248 597.28 195.856L592.736 200.368V202Z" fill="#333333"/>
<path d="M622.429 202H623.965V190.672H622.605L619.453 193.28L620.349 194.352L622.429 192.432V202ZM627.736 199.728C628.248 201.44 629.656 202.192 631.384 202.192C633.384 202.192 635.16 201.088 635.16 198.912C635.16 197.52 634.36 196.304 632.936 196.064V196.032C634.088 195.696 634.872 194.656 634.872 193.472C634.872 191.376 633.256 190.384 631.4 190.384C629.896 190.384 628.568 191.072 627.976 192.512L629.544 193.04C629.88 192.256 630.6 191.728 631.432 191.728C632.52 191.728 633.336 192.368 633.336 193.568C633.336 194.688 632.776 195.344 630.44 195.344V196.688C631.88 196.688 633.624 196.912 633.624 198.8C633.624 200.016 632.616 200.848 631.432 200.848C630.232 200.848 629.72 200.32 629.352 199.232L627.736 199.728Z" fill="#333333"/>
<path d="M374.429 235H375.965V223.672H374.605L371.453 226.28L372.349 227.352L374.429 225.432V235ZM384.376 235H385.912V232.504H387.512V231.16H385.912V223.672H384.056L379.544 230.936V232.504H384.376V235ZM384.376 231.16H380.888L384.344 225.496H384.376V231.16Z" fill="#333333"/>
<path d="M419.429 235H420.965V223.672H419.605L416.453 226.28L417.349 227.352L419.429 225.432V235ZM431.536 223.672H425.456L425.328 229.64C426.096 229.256 427.088 229.048 427.664 229.048C429.28 229.048 430.4 229.88 430.4 231.528C430.4 232.968 429.408 233.848 428.192 233.848C427.184 233.848 426.496 233.416 426.096 232.376L424.544 232.904C425.072 234.376 426.416 235.192 427.952 235.192C430.16 235.192 431.936 233.704 431.936 231.448C431.936 229.24 430.544 227.704 428.416 227.704C428.048 227.704 427.216 227.8 426.896 227.944L426.944 225.112H431.536V223.672Z" fill="#333333"/>
<path d="M463.429 235H464.965V223.672H463.605L460.453 226.28L461.349 227.352L463.429 225.432V235ZM474.368 223.672H472.56L469.696 228.2C469.008 229.288 468.56 230.152 468.56 231.544C468.56 233.752 470.32 235.192 472.448 235.192C474.576 235.192 476.336 233.88 476.336 231.384C476.336 228.904 474.464 227.8 472.832 227.8C472.368 227.8 471.952 227.88 471.584 228.056H471.52L474.368 223.672ZM470.096 231.496C470.096 230.12 471.04 229.144 472.448 229.144C473.856 229.144 474.8 230.12 474.8 231.496C474.8 232.872 473.856 233.848 472.448 233.848C471.04 233.848 470.096 232.872 470.096 231.496Z" fill="#333333"/>
<path d="M504.429 235H505.965V223.672H504.605L501.453 226.28L502.349 227.352L504.429 225.432V235ZM510.552 235H512.28L516.792 224.984V223.672H509.672V225.016H515.144L510.552 235Z" fill="#333333"/>
<path d="M549.429 235H550.965V223.672H549.605L546.453 226.28L547.349 227.352L549.429 225.432V235ZM558.448 235.192C560.512 235.192 562.144 233.896 562.144 231.752C562.144 230.344 561.216 229.32 559.984 228.984V228.936C560.832 228.712 561.76 227.864 561.76 226.296C561.76 224.584 560.224 223.48 558.448 223.48C556.672 223.48 555.136 224.584 555.136 226.296C555.136 227.864 556.064 228.712 556.912 228.936V228.984C555.68 229.32 554.752 230.344 554.752 231.752C554.752 233.896 556.384 235.192 558.448 235.192ZM556.672 226.52C556.672 225.464 557.472 224.728 558.448 224.728C559.504 224.728 560.224 225.48 560.224 226.52C560.224 227.448 559.632 228.312 558.448 228.312C557.312 228.312 556.672 227.4 556.672 226.52ZM558.448 233.848C557.28 233.848 556.288 233.08 556.288 231.752C556.288 230.552 557.2 229.672 558.448 229.656C559.648 229.672 560.608 230.376 560.608 231.752C560.608 232.984 559.728 233.848 558.448 233.848Z" fill="#333333"/>
<path d="M587.429 235H588.965V223.672H587.605L584.453 226.28L585.349 227.352L587.429 225.432V235ZM594.528 235H596.336L599.2 230.472C599.888 229.384 600.336 228.52 600.336 227.128C600.336 224.92 598.576 223.48 596.448 223.48C594.32 223.48 592.56 224.792 592.56 227.288C592.56 229.768 594.432 230.872 596.064 230.872C596.528 230.872 596.944 230.792 597.312 230.616H597.376L594.528 235ZM598.8 227.176C598.8 228.552 597.856 229.528 596.448 229.528C595.04 229.528 594.096 228.552 594.096 227.176C594.096 225.8 595.04 224.824 596.448 224.824C597.856 224.824 598.8 225.8 598.8 227.176Z" fill="#333333"/>
<path d="M618.845 235H626.269V233.656H620.573L624.301 230.056C625.309 229.08 626.269 228.008 626.269 226.52C626.269 224.44 624.653 223.384 622.701 223.384C620.749 223.384 619.261 224.328 618.957 226.328L620.621 226.472C620.813 225.4 621.581 224.728 622.685 224.728C623.757 224.728 624.637 225.416 624.637 226.536C624.637 227.464 624.013 228.248 623.389 228.856L618.845 233.368V235ZM627.544 229.336C627.544 231.72 628.232 235.192 631.448 235.192C634.664 235.192 635.352 231.72 635.352 229.336C635.352 226.856 634.664 223.48 631.448 223.48C628.232 223.48 627.544 226.856 627.544 229.336ZM629.08 229.336C629.08 227.768 629.304 224.824 631.448 224.824C633.592 224.824 633.816 227.768 633.816 229.336C633.816 230.808 633.592 233.848 631.448 233.848C629.304 233.848 629.08 230.808 629.08 229.336Z" fill="#333333"/>
<path d="M370.845 268H378.269V266.656H372.573L376.301 263.056C377.309 262.08 378.269 261.008 378.269 259.52C378.269 257.44 376.653 256.384 374.701 256.384C372.749 256.384 371.261 257.328 370.957 259.328L372.621 259.472C372.813 258.4 373.581 257.728 374.685 257.728C375.757 257.728 376.637 258.416 376.637 259.536C376.637 260.464 376.013 261.248 375.389 261.856L370.845 266.368V268ZM383.32 268H384.856V256.672H383.496L380.344 259.28L381.24 260.352L383.32 258.432V268Z" fill="#333333"/>
<path d="M415.845 268H423.269V266.656H417.573L421.301 263.056C422.309 262.08 423.269 261.008 423.269 259.52C423.269 257.44 421.653 256.384 419.701 256.384C417.749 256.384 416.261 257.328 415.957 259.328L417.621 259.472C417.813 258.4 418.581 257.728 419.685 257.728C420.757 257.728 421.637 258.416 421.637 259.536C421.637 260.464 421.013 261.248 420.389 261.856L415.845 266.368V268ZM424.736 268H432.16V266.656H426.464L430.192 263.056C431.2 262.08 432.16 261.008 432.16 259.52C432.16 257.44 430.544 256.384 428.592 256.384C426.64 256.384 425.152 257.328 424.848 259.328L426.512 259.472C426.704 258.4 427.472 257.728 428.576 257.728C429.648 257.728 430.528 258.416 430.528 259.536C430.528 260.464 429.904 261.248 429.28 261.856L424.736 266.368V268Z" fill="#333333"/>
<path d="M459.845 268H467.269V266.656H461.573L465.301 263.056C466.309 262.08 467.269 261.008 467.269 259.52C467.269 257.44 465.653 256.384 463.701 256.384C461.749 256.384 460.261 257.328 459.957 259.328L461.621 259.472C461.813 258.4 462.581 257.728 463.685 257.728C464.757 257.728 465.637 258.416 465.637 259.536C465.637 260.464 465.013 261.248 464.389 261.856L459.845 266.368V268ZM468.736 265.728C469.248 267.44 470.656 268.192 472.384 268.192C474.384 268.192 476.16 267.088 476.16 264.912C476.16 263.52 475.36 262.304 473.936 262.064V262.032C475.088 261.696 475.872 260.656 475.872 259.472C475.872 257.376 474.256 256.384 472.4 256.384C470.896 256.384 469.568 257.072 468.976 258.512L470.544 259.04C470.88 258.256 471.6 257.728 472.432 257.728C473.52 257.728 474.336 258.368 474.336 259.568C474.336 260.688 473.776 261.344 471.44 261.344V262.688C472.88 262.688 474.624 262.912 474.624 264.8C474.624 266.016 473.616 266.848 472.432 266.848C471.232 266.848 470.72 266.32 470.352 265.232L468.736 265.728Z" fill="#333333"/>
<path d="M500.845 268H508.269V266.656H502.573L506.301 263.056C507.309 262.08 508.269 261.008 508.269 259.52C508.269 257.44 506.653 256.384 504.701 256.384C502.749 256.384 501.261 257.328 500.957 259.328L502.621 259.472C502.813 258.4 503.581 257.728 504.685 257.728C505.757 257.728 506.637 258.416 506.637 259.536C506.637 260.464 506.013 261.248 505.389 261.856L500.845 266.368V268ZM514.376 268H515.912V265.504H517.512V264.16H515.912V256.672H514.056L509.544 263.936V265.504H514.376V268ZM514.376 264.16H510.888L514.344 258.496H514.376V264.16Z" fill="#333333"/>
<path d="M545.845 268H553.269V266.656H547.573L551.301 263.056C552.309 262.08 553.269 261.008 553.269 259.52C553.269 257.44 551.653 256.384 549.701 256.384C547.749 256.384 546.261 257.328 545.957 259.328L547.621 259.472C547.813 258.4 548.581 257.728 549.685 257.728C550.757 257.728 551.637 258.416 551.637 259.536C551.637 260.464 551.013 261.248 550.389 261.856L545.845 266.368V268ZM561.536 256.672H555.456L555.328 262.64C556.096 262.256 557.088 262.048 557.664 262.048C559.28 262.048 560.4 262.88 560.4 264.528C560.4 265.968 559.408 266.848 558.192 266.848C557.184 266.848 556.496 266.416 556.096 265.376L554.544 265.904C555.072 267.376 556.416 268.192 557.952 268.192C560.16 268.192 561.936 266.704 561.936 264.448C561.936 262.24 560.544 260.704 558.416 260.704C558.048 260.704 557.216 260.8 556.896 260.944L556.944 258.112H561.536V256.672Z" fill="#333333"/>
<path d="M583.845 268H591.269V266.656H585.573L589.301 263.056C590.309 262.08 591.269 261.008 591.269 259.52C591.269 257.44 589.653 256.384 587.701 256.384C585.749 256.384 584.261 257.328 583.957 259.328L585.621 259.472C585.813 258.4 586.581 257.728 587.685 257.728C588.757 257.728 589.637 258.416 589.637 259.536C589.637 260.464 589.013 261.248 588.389 261.856L583.845 266.368V268ZM598.368 256.672H596.56L593.696 261.2C593.008 262.288 592.56 263.152 592.56 264.544C592.56 266.752 594.32 268.192 596.448 268.192C598.576 268.192 600.336 266.88 600.336 264.384C600.336 261.904 598.464 260.8 596.832 260.8C596.368 260.8 595.952 260.88 595.584 261.056H595.52L598.368 256.672ZM594.096 264.496C594.096 263.12 595.04 262.144 596.448 262.144C597.856 262.144 598.8 263.12 598.8 264.496C598.8 265.872 597.856 266.848 596.448 266.848C595.04 266.848 594.096 265.872 594.096 264.496Z" fill="#333333"/>
<path d="M618.845 268H626.269V266.656H620.573L624.301 263.056C625.309 262.08 626.269 261.008 626.269 259.52C626.269 257.44 624.653 256.384 622.701 256.384C620.749 256.384 619.261 257.328 618.957 259.328L620.621 259.472C620.813 258.4 621.581 257.728 622.685 257.728C623.757 257.728 624.637 258.416 624.637 259.536C624.637 260.464 624.013 261.248 623.389 261.856L618.845 266.368V268ZM628.552 268H630.28L634.792 257.984V256.672H627.672V258.016H633.144L628.552 268Z" fill="#333333"/>
<path d="M370.845 301H378.269V299.656H372.573L376.301 296.056C377.309 295.08 378.269 294.008 378.269 292.52C378.269 290.44 376.653 289.384 374.701 289.384C372.749 289.384 371.261 290.328 370.957 292.328L372.621 292.472C372.813 291.4 373.581 290.728 374.685 290.728C375.757 290.728 376.637 291.416 376.637 292.536C376.637 293.464 376.013 294.248 375.389 294.856L370.845 299.368V301ZM383.448 301.192C385.512 301.192 387.144 299.896 387.144 297.752C387.144 296.344 386.216 295.32 384.984 294.984V294.936C385.832 294.712 386.76 293.864 386.76 292.296C386.76 290.584 385.224 289.48 383.448 289.48C381.672 289.48 380.136 290.584 380.136 292.296C380.136 293.864 381.064 294.712 381.912 294.936V294.984C380.68 295.32 379.752 296.344 379.752 297.752C379.752 299.896 381.384 301.192 383.448 301.192ZM381.672 292.52C381.672 291.464 382.472 290.728 383.448 290.728C384.504 290.728 385.224 291.48 385.224 292.52C385.224 293.448 384.632 294.312 383.448 294.312C382.312 294.312 381.672 293.4 381.672 292.52ZM383.448 299.848C382.28 299.848 381.288 299.08 381.288 297.752C381.288 296.552 382.2 295.672 383.448 295.656C384.648 295.672 385.608 296.376 385.608 297.752C385.608 298.984 384.728 299.848 383.448 299.848Z" fill="#333333"/>
<path d="M415.845 301H423.269V299.656H417.573L421.301 296.056C422.309 295.08 423.269 294.008 423.269 292.52C423.269 290.44 421.653 289.384 419.701 289.384C417.749 289.384 416.261 290.328 415.957 292.328L417.621 292.472C417.813 291.4 418.581 290.728 419.685 290.728C420.757 290.728 421.637 291.416 421.637 292.536C421.637 293.464 421.013 294.248 420.389 294.856L415.845 299.368V301ZM426.528 301H428.336L431.2 296.472C431.888 295.384 432.336 294.52 432.336 293.128C432.336 290.92 430.576 289.48 428.448 289.48C426.32 289.48 424.56 290.792 424.56 293.288C424.56 295.768 426.432 296.872 428.064 296.872C428.528 296.872 428.944 296.792 429.312 296.616H429.376L426.528 301ZM430.8 293.176C430.8 294.552 429.856 295.528 428.448 295.528C427.04 295.528 426.096 294.552 426.096 293.176C426.096 291.8 427.04 290.824 428.448 290.824C429.856 290.824 430.8 291.8 430.8 293.176Z" fill="#333333"/>
<path d="M459.845 298.728C460.357 300.44 461.765 301.192 463.493 301.192C465.493 301.192 467.269 300.088 467.269 297.912C467.269 296.52 466.469 295.304 465.045 295.064V295.032C466.197 294.696 466.981 293.656 466.981 292.472C466.981 290.376 465.365 289.384 463.509 289.384C462.005 289.384 460.677 290.072 460.085 291.512L461.653 292.04C461.989 291.256 462.709 290.728 463.541 290.728C464.629 290.728 465.445 291.368 465.445 292.568C465.445 293.688 464.885 294.344 462.549 294.344V295.688C463.989 295.688 465.733 295.912 465.733 297.8C465.733 299.016 464.725 299.848 463.541 299.848C462.341 299.848 461.829 299.32 461.461 298.232L459.845 298.728ZM468.544 295.336C468.544 297.72 469.232 301.192 472.448 301.192C475.664 301.192 476.352 297.72 476.352 295.336C476.352 292.856 475.664 289.48 472.448 289.48C469.232 289.48 468.544 292.856 468.544 295.336ZM470.08 295.336C470.08 293.768 470.304 290.824 472.448 290.824C474.592 290.824 474.816 293.768 474.816 295.336C474.816 296.808 474.592 299.848 472.448 299.848C470.304 299.848 470.08 296.808 470.08 295.336Z" fill="#333333"/>
<path d="M508.875 301H510.411V289.672H509.051L505.899 292.28L506.795 293.352L508.875 291.432V301Z" fill="#D2D6DD"/>
<path d="M550.291 301H557.715V299.656H552.019L555.747 296.056C556.755 295.08 557.715 294.008 557.715 292.52C557.715 290.44 556.099 289.384 554.147 289.384C552.195 289.384 550.707 290.328 550.403 292.328L552.067 292.472C552.259 291.4 553.027 290.728 554.131 290.728C555.203 290.728 556.083 291.416 556.083 292.536C556.083 293.464 555.459 294.248 554.835 294.856L550.291 299.368V301Z" fill="#D2D6DD"/>
<path d="M588.291 298.728C588.803 300.44 590.211 301.192 591.939 301.192C593.939 301.192 595.715 300.088 595.715 297.912C595.715 296.52 594.915 295.304 593.491 295.064V295.032C594.643 294.696 595.427 293.656 595.427 292.472C595.427 290.376 593.811 289.384 591.955 289.384C590.451 289.384 589.123 290.072 588.531 291.512L590.099 292.04C590.435 291.256 591.155 290.728 591.987 290.728C593.075 290.728 593.891 291.368 593.891 292.568C593.891 293.688 593.331 294.344 590.995 294.344V295.688C592.435 295.688 594.179 295.912 594.179 297.8C594.179 299.016 593.171 299.848 591.987 299.848C590.787 299.848 590.275 299.32 589.907 298.232L588.291 298.728Z" fill="#D2D6DD"/>
<path d="M627.931 301H629.467V298.504H631.067V297.16H629.467V289.672H627.611L623.099 296.936V298.504H627.931V301ZM627.931 297.16H624.443L627.899 291.496H627.931V297.16Z" fill="#D2D6DD"/>
<circle cx="554" cy="161" r="16" fill="#E6E6E6"/>
<path d="M554.931 167H556.467V164.504H558.067V163.16H556.467V155.672H554.611L550.099 162.936V164.504H554.931V167ZM554.931 163.16H551.443L554.899 157.496H554.931V163.16Z" fill="#333333"/>
</g>
<defs>
<filter id="filter0_dd_28_8322" x="0" y="59" width="271" height="255.41" filterUnits="userSpaceOnUse" color-interpolation-filters="sRGB">
<feFlood flood-opacity="0" result="BackgroundImageFix"/>
<feColorMatrix in="SourceAlpha" type="matrix" values="0 0 0 0 0 0 0 0 0 0 0 0 0 0 0 0 0 0 127 0" result="hardAlpha"/>
<feOffset dy="2"/>
<feGaussianBlur stdDeviation="2"/>
<feColorMatrix type="matrix" values="0 0 0 0 0 0 0 0 0 0 0 0 0 0 0 0 0 0 0.1 0"/>
<feBlend mode="normal" in2="BackgroundImageFix" result="effect1_dropShadow_28_8322"/>
<feColorMatrix in="SourceAlpha" type="matrix" values="0 0 0 0 0 0 0 0 0 0 0 0 0 0 0 0 0 0 127 0" result="hardAlpha"/>
<feOffset dy="1"/>
<feGaussianBlur stdDeviation="5"/>
<feComposite in2="hardAlpha" operator="out"/>
<feColorMatrix type="matrix" values="0 0 0 0 0 0 0 0 0 0 0 0 0 0 0 0 0 0 0.12 0"/>
<feBlend mode="normal" in2="effect1_dropShadow_28_8322" result="effect2_dropShadow_28_8322"/>
<feBlend mode="normal" in="SourceGraphic" in2="effect2_dropShadow_28_8322" result="shape"/>
</filter>
<filter id="filter1_dd_28_8322" x="351" y="59" width="305" height="266" filterUnits="userSpaceOnUse" color-interpolation-filters="sRGB">
<feFlood flood-opacity="0" result="BackgroundImageFix"/>
<feColorMatrix in="SourceAlpha" type="matrix" values="0 0 0 0 0 0 0 0 0 0 0 0 0 0 0 0 0 0 127 0" result="hardAlpha"/>
<feOffset dy="2"/>
<feGaussianBlur stdDeviation="2"/>
<feColorMatrix type="matrix" values="0 0 0 0 0 0 0 0 0 0 0 0 0 0 0 0 0 0 0.1 0"/>
<feBlend mode="normal" in2="BackgroundImageFix" result="effect1_dropShadow_28_8322"/>
<feColorMatrix in="SourceAlpha" type="matrix" values="0 0 0 0 0 0 0 0 0 0 0 0 0 0 0 0 0 0 127 0" result="hardAlpha"/>
<feOffset dy="1"/>
<feGaussianBlur stdDeviation="5"/>
<feComposite in2="hardAlpha" operator="out"/>
<feColorMatrix type="matrix" values="0 0 0 0 0 0 0 0 0 0 0 0 0 0 0 0 0 0 0.12 0"/>
<feBlend mode="normal" in2="effect1_dropShadow_28_8322" result="effect2_dropShadow_28_8322"/>
<feBlend mode="normal" in="SourceGraphic" in2="effect2_dropShadow_28_8322" result="shape"/>
</filter>
<clipPath id="clip0_28_8322">
<rect width="48" height="24" fill="white" transform="translate(10)"/>
</clipPath>
<clipPath id="clip1_28_8322">
<rect width="35" height="24" fill="white" transform="translate(361)"/>
</clipPath>
</defs>
</svg>
