<svg width="650" height="225" viewBox="0 0 650 225" fill="none" xmlns="http://www.w3.org/2000/svg">
<path d="M7.252 2.858C6.482 2.13 5.446 1.836 4.41 1.836C2.576 1.836 0.756 2.788 0.756 4.832C0.756 8.374 5.46 7.128 5.46 9.298C5.46 10.208 4.536 10.656 3.724 10.656C2.94 10.656 2.198 10.278 1.764 9.62L0.434 10.908C1.246 11.874 2.45 12.252 3.682 12.252C5.628 12.252 7.308 11.216 7.308 9.088C7.308 5.56 2.604 6.694 2.604 4.706C2.604 3.796 3.416 3.432 4.228 3.432C4.914 3.432 5.586 3.684 5.964 4.216L7.252 2.858ZM9.01906 12H10.6991V5.28H9.01906V12ZM8.78106 2.998C8.78106 3.53 9.22906 4.006 9.84506 4.006C10.4611 4.006 10.9371 3.572 10.9371 2.998C10.9371 2.424 10.4611 1.99 9.84506 1.99C9.22906 1.99 8.78106 2.466 8.78106 2.998ZM12.1518 12H17.9478V10.656H14.1398L17.7798 6.806V5.28H12.3198V6.624H15.7498V6.652L12.1518 10.446V12ZM25.8497 9.228V8.766C25.8497 6.428 24.5757 5.112 22.6997 5.112C20.6697 5.112 19.0457 6.526 19.0457 8.64C19.0457 10.754 20.6697 12.168 22.6997 12.168C23.7637 12.168 24.7577 11.79 25.5417 10.824L24.3377 9.914C23.9177 10.432 23.3717 10.824 22.5317 10.824C21.5937 10.824 20.8377 10.222 20.7257 9.228H25.8497ZM20.7257 7.968C20.8517 7.002 21.4677 6.372 22.4617 6.372C23.5117 6.372 24.1557 6.988 24.1697 7.968H20.7257ZM27.4208 11.02C27.4208 11.622 27.9528 12.084 28.5408 12.084C29.1568 12.084 29.6608 11.594 29.6608 10.992C29.6608 10.39 29.1428 9.928 28.5408 9.928C27.9248 9.928 27.4208 10.418 27.4208 11.02ZM27.4208 6.274C27.4208 6.876 27.9528 7.338 28.5408 7.338C29.1568 7.338 29.6608 6.848 29.6608 6.246C29.6608 5.644 29.1428 5.182 28.5408 5.182C27.9248 5.182 27.4208 5.672 27.4208 6.274ZM35.8599 12H39.5559C41.9359 12 44.8059 10.432 44.8059 7.044C44.8059 3.684 42.3699 2.088 39.7659 2.088H35.8599V12ZM37.6239 10.404V3.684H39.2339C41.3899 3.684 42.9579 4.636 42.9579 7.044C42.9579 9.452 41.1519 10.404 38.9399 10.404H37.6239ZM52.797 9.228V8.766C52.797 6.428 51.523 5.112 49.647 5.112C47.617 5.112 45.993 6.526 45.993 8.64C45.993 10.754 47.617 12.168 49.647 12.168C50.711 12.168 51.705 11.79 52.489 10.824L51.285 9.914C50.865 10.432 50.319 10.824 49.479 10.824C48.541 10.824 47.785 10.222 47.673 9.228H52.797ZM47.673 7.968C47.799 7.002 48.415 6.372 49.409 6.372C50.459 6.372 51.103 6.988 51.117 7.968H47.673ZM54.97 12H56.65V6.708H58.204V5.28H56.65V4.062C56.65 3.32 56.79 2.676 57.728 2.676C57.966 2.676 58.19 2.718 58.428 2.774L58.54 1.346C58.19 1.276 57.84 1.248 57.476 1.248C55.39 1.248 54.97 2.466 54.97 4.328V5.28H53.584V6.708H54.97V12ZM63.4899 12H65.0019V8.136C65.0019 7.184 65.0019 5.112 62.1319 5.112C61.0679 5.112 60.0179 5.434 59.2759 6.19L60.1579 7.072C60.6059 6.652 61.2499 6.372 61.9499 6.372C62.8459 6.372 63.4899 6.806 63.4899 7.632V7.814H63.0699C61.3899 7.814 58.8419 7.968 58.8419 10.152C58.8419 11.482 60.0459 12.168 61.2919 12.168C62.1879 12.168 62.9719 11.832 63.4479 11.076H63.4899V12ZM63.3919 9.368C63.3919 10.306 62.8459 10.908 61.6979 10.908C61.1519 10.908 60.5219 10.642 60.5219 10.026C60.5219 9.06 62.1179 8.99 63.0419 8.99H63.3919V9.368ZM72.9414 5.28H71.2614V8.948C71.2614 9.844 70.8274 10.656 69.7214 10.656C68.5454 10.656 68.4894 9.424 68.4894 8.682V5.28H66.8094V9.522C66.8094 10.894 67.4534 12.168 69.2594 12.168C70.3794 12.168 71.0094 11.594 71.3174 10.922H71.3454V12H72.9414V5.28ZM74.8765 12H76.5565V1.416H74.8765V12ZM79.0872 6.708V9.788C79.0872 11.37 79.5072 12.168 81.2852 12.168C81.6772 12.168 82.2652 12.112 82.6152 11.944V10.53C82.4052 10.684 81.9992 10.74 81.7052 10.74C80.9632 10.74 80.7672 10.32 80.7672 9.648V6.708H82.6152V5.28H80.7672V3.334H79.0872V5.28H77.7012V6.708H79.0872Z" fill="black"/>
<g clip-path="url(#clip0_27_8004)">
<rect y="33" width="320" height="70" rx="4" fill="white"/>
<rect width="320" height="30" transform="translate(0 33)" fill="white"/>
<path d="M17.5402 47.5816C17.9996 47.1031 18.2812 46.4564 18.2812 45.7455V45.6061C18.2812 44.135 17.0768 42.9414 15.592 42.9414H11.5465C11.34 42.9414 11.1719 43.1096 11.1719 43.316V52.6006C11.1719 52.8234 11.3523 53.0039 11.5752 53.0039H15.9324C17.532 53.0039 18.8281 51.716 18.8281 50.126V49.9756C18.8281 48.9775 18.3168 48.0984 17.5402 47.5816ZM12.4844 44.2539H15.5564C16.3371 44.2539 16.9688 44.8609 16.9688 45.6115V45.7414C16.9688 46.4906 16.3357 47.099 15.5564 47.099H12.4844V44.2539ZM17.4965 50.1246C17.4965 50.9846 16.7896 51.6818 15.9174 51.6818H12.4844V48.4197H15.9174C16.7896 48.4197 17.4965 49.117 17.4965 49.977V50.1246Z" fill="#616C7F"/>
<path d="M48.9102 43.1875H43.0039C42.9437 43.1875 42.8945 43.2367 42.8945 43.2969V44.1719C42.8945 44.232 42.9437 44.2812 43.0039 44.2812H45.4813L43.3484 51.7188H41.1309C41.0707 51.7188 41.0215 51.768 41.0215 51.8281V52.7031C41.0215 52.7633 41.0707 52.8125 41.1309 52.8125H47.0371C47.0973 52.8125 47.1465 52.7633 47.1465 52.7031V51.8281C47.1465 51.768 47.0973 51.7188 47.0371 51.7188H44.4859L46.6188 44.2812H48.9102C48.9703 44.2812 49.0195 44.232 49.0195 44.1719V43.2969C49.0195 43.2367 48.9703 43.1875 48.9102 43.1875Z" fill="#616C7F"/>
<path d="M79.2656 51.9922H70.7344C70.6742 51.9922 70.625 52.0387 70.625 52.0961V52.9273C70.625 52.9848 70.6742 53.0312 70.7344 53.0312H79.2656C79.3258 53.0312 79.375 52.9848 79.375 52.9273V52.0961C79.375 52.0387 79.3258 51.9922 79.2656 51.9922ZM75 50.9531C75.9488 50.9531 76.8402 50.5826 77.5129 49.9113C78.1855 49.24 78.5547 48.3473 78.5547 47.3984V43.1328C78.5547 43.0426 78.4809 42.9688 78.3906 42.9688H77.5703C77.4801 42.9688 77.4062 43.0426 77.4062 43.1328V47.3984C77.4062 48.7246 76.3262 49.8047 75 49.8047C73.6738 49.8047 72.5938 48.7246 72.5938 47.3984V43.1328C72.5938 43.0426 72.5199 42.9688 72.4297 42.9688H71.6094C71.5191 42.9688 71.4453 43.0426 71.4453 43.1328V47.3984C71.4453 48.3473 71.8158 49.2387 72.4871 49.9113C73.1584 50.584 74.0512 50.9531 75 50.9531Z" fill="#616C7F"/>
<line y1="62.5" x2="320" y2="62.5" stroke="#D2D6DD"/>
<path d="M9.408 87H10.752V81.912H12.48L15.552 87H17.2L13.984 81.784C15.744 81.512 16.816 80.44 16.816 78.792C16.816 75.992 14.496 75.672 12.304 75.672H9.408V87ZM10.752 76.92H12.64C13.952 76.92 15.376 77.16 15.376 78.792C15.376 80.664 13.44 80.664 11.952 80.664H10.752V76.92ZM19.0773 87H20.3253V79.512H19.0773V87ZM18.7893 76.584C18.7893 77.112 19.1733 77.496 19.7013 77.496C20.2293 77.496 20.6133 77.112 20.6133 76.584C20.6133 76.088 20.2133 75.672 19.7013 75.672C19.1893 75.672 18.7893 76.088 18.7893 76.584ZM29.129 80.504C28.377 79.688 27.353 79.32 26.249 79.32C23.945 79.32 22.377 80.984 22.377 83.256C22.377 85.56 23.929 87.192 26.249 87.192C27.337 87.192 28.361 86.824 29.081 85.992L28.153 85.112C27.689 85.752 27.065 86.04 26.249 86.04C24.729 86.04 23.721 84.792 23.721 83.256C23.721 81.72 24.569 80.472 26.249 80.472C27.001 80.472 27.609 80.744 28.137 81.384L29.129 80.504ZM30.5278 87H31.7758V83.352C31.7758 81.64 32.4798 80.472 34.0958 80.472C35.2638 80.472 35.8078 81.256 35.8078 82.504V87H37.0558V82.376C37.0558 80.568 36.1758 79.32 34.2078 79.32C33.0398 79.32 32.1438 79.96 31.8078 80.552H31.7758V74.904H30.5278V87ZM47.9675 79.512H45.7595V77.384H44.5115V79.512H42.8795V80.568H44.5115V84.68C44.5115 86.232 44.7995 87.192 46.5755 87.192C47.0395 87.192 47.5995 87.112 48.0315 86.92L47.9835 85.784C47.6475 85.96 47.2475 86.04 46.8795 86.04C45.7755 86.04 45.7595 85.272 45.7595 84.312V80.568H47.9675V79.512ZM55.2405 84.904C54.6485 85.656 53.9285 86.04 52.8565 86.04C51.4965 86.04 50.5045 84.936 50.4085 83.64H56.4565V83.24C56.4565 80.76 55.0165 79.32 52.9045 79.32C50.6965 79.32 49.0645 80.936 49.0645 83.256C49.0645 85.432 50.5045 87.192 52.8565 87.192C54.2485 87.192 55.3045 86.776 56.1845 85.64L55.2405 84.904ZM50.4085 82.584C50.5685 81.32 51.4805 80.472 52.8565 80.472C54.2325 80.472 55.0645 81.32 55.1125 82.584H50.4085ZM57.2511 87H58.8031L61.1391 83.768L63.5071 87H65.1551L62.0671 82.968L64.6431 79.512H63.1231L61.2511 82.2L59.2671 79.512H57.6351L60.3231 82.968L57.2511 87ZM70.4831 79.512H68.2751V77.384H67.0271V79.512H65.3951V80.568H67.0271V84.68C67.0271 86.232 67.3151 87.192 69.0911 87.192C69.5551 87.192 70.1151 87.112 70.5471 86.92L70.4991 85.784C70.1631 85.96 69.7631 86.04 69.3951 86.04C68.2911 86.04 68.2751 85.272 68.2751 84.312V80.568H70.4831V79.512ZM82.2093 84.904C81.6173 85.656 80.8973 86.04 79.8253 86.04C78.4653 86.04 77.4733 84.936 77.3773 83.64H83.4253V83.24C83.4253 80.76 81.9853 79.32 79.8733 79.32C77.6653 79.32 76.0333 80.936 76.0333 83.256C76.0333 85.432 77.4733 87.192 79.8253 87.192C81.2173 87.192 82.2733 86.776 83.1533 85.64L82.2093 84.904ZM77.3773 82.584C77.5373 81.32 78.4493 80.472 79.8253 80.472C81.2013 80.472 82.0333 81.32 82.0813 82.584H77.3773ZM91.5799 87H92.8279V74.904H91.5799V80.6H91.5479C90.8599 79.8 89.9479 79.32 88.8599 79.32C86.5079 79.32 84.9239 80.984 84.9239 83.256C84.9239 85.496 86.5719 87.192 88.6679 87.192C90.0119 87.192 91.0839 86.52 91.5479 85.672H91.5799V87ZM91.5799 83.256C91.5799 84.824 90.5399 86.04 88.9239 86.04C87.3079 86.04 86.2679 84.824 86.2679 83.256C86.2679 81.688 87.3079 80.472 88.9239 80.472C90.5399 80.472 91.5799 81.688 91.5799 83.256ZM95.2491 87H96.4971V79.512H95.2491V87ZM94.9611 76.584C94.9611 77.112 95.3451 77.496 95.8731 77.496C96.4011 77.496 96.7851 77.112 96.7851 76.584C96.7851 76.088 96.3851 75.672 95.8731 75.672C95.3611 75.672 94.9611 76.088 94.9611 76.584ZM103.077 79.512H100.869V77.384H99.6209V79.512H97.9889V80.568H99.6209V84.68C99.6209 86.232 99.9089 87.192 101.685 87.192C102.149 87.192 102.709 87.112 103.141 86.92L103.093 85.784C102.757 85.96 102.357 86.04 101.989 86.04C100.885 86.04 100.869 85.272 100.869 84.312V80.568H103.077V79.512ZM104.174 83.256C104.174 85.592 105.87 87.192 108.174 87.192C110.478 87.192 112.174 85.592 112.174 83.256C112.174 80.92 110.478 79.32 108.174 79.32C105.87 79.32 104.174 80.92 104.174 83.256ZM105.518 83.256C105.518 81.688 106.558 80.472 108.174 80.472C109.79 80.472 110.83 81.688 110.83 83.256C110.83 84.824 109.79 86.04 108.174 86.04C106.558 86.04 105.518 84.824 105.518 83.256ZM114.106 87H115.354V83.352C115.354 81.64 116.026 80.568 117.546 80.568C117.77 80.568 118.01 80.6 118.218 80.664L118.298 79.4C118.122 79.336 117.946 79.32 117.786 79.32C116.554 79.32 115.626 80.008 115.29 80.744H115.258C115.258 80.328 115.226 79.912 115.226 79.512H114.042C114.042 80.008 114.106 80.6 114.106 81.288V87Z" fill="#9EA6B5"/>
</g>
<rect x="0.5" y="33.5" width="319" height="69" rx="3.5" stroke="#9EA6B5"/>
<path d="M7.252 121.858C6.482 121.13 5.446 120.836 4.41 120.836C2.576 120.836 0.756 121.788 0.756 123.832C0.756 127.374 5.46 126.128 5.46 128.298C5.46 129.208 4.536 129.656 3.724 129.656C2.94 129.656 2.198 129.278 1.764 128.62L0.434 129.908C1.246 130.874 2.45 131.252 3.682 131.252C5.628 131.252 7.308 130.216 7.308 128.088C7.308 124.56 2.604 125.694 2.604 123.706C2.604 122.796 3.416 122.432 4.228 122.432C4.914 122.432 5.586 122.684 5.964 123.216L7.252 121.858ZM9.01906 131H10.6991V124.28H9.01906V131ZM8.78106 121.998C8.78106 122.53 9.22906 123.006 9.84506 123.006C10.4611 123.006 10.9371 122.572 10.9371 121.998C10.9371 121.424 10.4611 120.99 9.84506 120.99C9.22906 120.99 8.78106 121.466 8.78106 121.998ZM12.1518 131H17.9478V129.656H14.1398L17.7798 125.806V124.28H12.3198V125.624H15.7498V125.652L12.1518 129.446V131ZM25.8497 128.228V127.766C25.8497 125.428 24.5757 124.112 22.6997 124.112C20.6697 124.112 19.0457 125.526 19.0457 127.64C19.0457 129.754 20.6697 131.168 22.6997 131.168C23.7637 131.168 24.7577 130.79 25.5417 129.824L24.3377 128.914C23.9177 129.432 23.3717 129.824 22.5317 129.824C21.5937 129.824 20.8377 129.222 20.7257 128.228H25.8497ZM20.7257 126.968C20.8517 126.002 21.4677 125.372 22.4617 125.372C23.5117 125.372 24.1557 125.988 24.1697 126.968H20.7257ZM27.4208 130.02C27.4208 130.622 27.9528 131.084 28.5408 131.084C29.1568 131.084 29.6608 130.594 29.6608 129.992C29.6608 129.39 29.1428 128.928 28.5408 128.928C27.9248 128.928 27.4208 129.418 27.4208 130.02ZM27.4208 125.274C27.4208 125.876 27.9528 126.338 28.5408 126.338C29.1568 126.338 29.6608 125.848 29.6608 125.246C29.6608 124.644 29.1428 124.182 28.5408 124.182C27.9248 124.182 27.4208 124.672 27.4208 125.274ZM35.8599 131H41.8379V129.404H37.6239V121.088H35.8599V131ZM51.9257 125.204H48.1317V126.8H50.1617V129.138C49.5457 129.488 48.7337 129.656 47.8377 129.656C45.7937 129.656 44.4357 128.088 44.4357 125.974C44.4357 124 45.7937 122.432 47.8377 122.432C48.8317 122.432 49.7977 122.782 50.4277 123.398L51.7297 122.082C50.6937 121.158 49.3357 120.836 47.8237 120.836C44.7717 120.836 42.5877 122.908 42.5877 126.086C42.5877 129.18 44.7717 131.252 47.8237 131.252C49.3497 131.252 50.7217 130.916 51.9257 130.272V125.204Z" fill="black"/>
<g clip-path="url(#clip1_27_8004)">
<rect y="152" width="650" height="73" rx="4" fill="white"/>
<rect width="650" height="33" transform="translate(0 152)" fill="white"/>
<path d="M9.232 172H10.408V167.38H15.7V172H16.876V162.088H15.7V166.288H10.408V162.088H9.232V172ZM24.1655 170.166C23.6475 170.824 23.0175 171.16 22.0795 171.16C20.8895 171.16 20.0215 170.194 19.9375 169.06H25.2295V168.71C25.2295 166.54 23.9695 165.28 22.1215 165.28C20.1895 165.28 18.7615 166.694 18.7615 168.724C18.7615 170.628 20.0215 172.168 22.0795 172.168C23.2975 172.168 24.2215 171.804 24.9915 170.81L24.1655 170.166ZM19.9375 168.136C20.0775 167.03 20.8755 166.288 22.0795 166.288C23.2835 166.288 24.0115 167.03 24.0535 168.136H19.9375ZM27.5208 167.002C28.0388 166.526 28.7668 166.288 29.4668 166.288C30.4888 166.288 31.0908 166.778 31.0908 167.73V167.926H30.6708C29.0608 167.926 26.5408 168.052 26.5408 170.222C26.5408 171.496 27.6468 172.168 28.9768 172.168C29.9708 172.168 30.6988 171.692 31.1328 171.02H31.1608C31.1608 171.3 31.1608 171.706 31.2308 172H32.2808C32.2248 171.664 32.1828 171.244 32.1828 170.866V168.052C32.1828 166.204 31.3708 165.28 29.4388 165.28C28.4868 165.28 27.5068 165.602 26.8348 166.288L27.5208 167.002ZM31.0908 168.85V169.27C31.0628 170.334 30.4188 171.244 29.1588 171.244C28.3328 171.244 27.7168 170.936 27.7168 170.11C27.7168 169.228 28.6128 168.85 29.9988 168.85H31.0908ZM39.6246 172H40.7166V161.416H39.6246V166.4H39.5966C38.9946 165.7 38.1966 165.28 37.2446 165.28C35.1866 165.28 33.8006 166.736 33.8006 168.724C33.8006 170.684 35.2426 172.168 37.0766 172.168C38.2526 172.168 39.1906 171.58 39.5966 170.838H39.6246V172ZM39.6246 168.724C39.6246 170.096 38.7146 171.16 37.3006 171.16C35.8866 171.16 34.9766 170.096 34.9766 168.724C34.9766 167.352 35.8866 166.288 37.3006 166.288C38.7146 166.288 39.6246 167.352 39.6246 168.724ZM42.8352 172H43.9272V165.448H42.8352V172ZM42.5832 162.886C42.5832 163.348 42.9192 163.684 43.3812 163.684C43.8432 163.684 44.1792 163.348 44.1792 162.886C44.1792 162.452 43.8292 162.088 43.3812 162.088C42.9332 162.088 42.5832 162.452 42.5832 162.886ZM46.1005 172H47.1925V168.808C47.1925 167.31 47.8085 166.288 49.2225 166.288C50.2445 166.288 50.7205 166.974 50.7205 168.066V172H51.8125V167.954C51.8125 166.372 51.0425 165.28 49.3205 165.28C48.2425 165.28 47.4305 165.882 47.1365 166.526H47.1085C47.1085 166.162 47.0805 165.798 47.0805 165.448H46.0445C46.0445 165.882 46.1005 166.4 46.1005 167.002V172ZM60.4178 165.448H59.3258V166.568H59.2978C58.8638 165.7 57.8698 165.28 56.9878 165.28C54.9017 165.28 53.5018 166.582 53.5018 168.724C53.5018 170.656 54.9298 172.084 56.9878 172.084C57.8558 172.084 58.7798 171.706 59.2978 170.866H59.3258V171.706C59.3258 173.092 58.8078 174.352 56.8478 174.352C55.8398 174.352 55.0978 173.96 54.4118 173.218L53.6278 174.114C54.5518 175.024 55.5738 175.36 56.8478 175.36C59.1438 175.36 60.4178 174.072 60.4178 171.706V165.448ZM54.6778 168.724C54.6778 167.352 55.6158 166.288 56.9878 166.288C58.3738 166.288 59.3258 167.282 59.3258 168.696C59.3258 169.956 58.4858 171.076 56.9878 171.076C55.7138 171.076 54.6778 170.054 54.6778 168.724Z" fill="#616C7F"/>
<g clip-path="url(#clip2_27_8004)">
<path d="M77.4609 167.482H70.5391C70.0598 167.482 69.8197 166.948 70.1586 166.635L73.6196 163.445C73.8297 163.252 74.1703 163.252 74.3804 163.445L77.8413 166.635C78.1803 166.948 77.9402 167.482 77.4609 167.482Z" fill="#6B778C"/>
<path d="M70.5383 169.243H77.4617C77.9407 169.243 78.1802 169.78 77.8411 170.095L74.3807 173.311C74.1709 173.505 73.8291 173.505 73.6193 173.311L70.1589 170.095C69.8198 169.78 70.0593 169.243 70.5383 169.243Z" fill="#6B778C"/>
</g>
<path d="M116.902 162.998C116.174 162.144 115.236 161.836 114.13 161.836C112.394 161.836 110.756 162.788 110.756 164.692C110.756 166.344 111.82 166.96 113.22 167.422C114.984 168.01 115.81 168.22 115.81 169.438C115.81 170.572 114.662 171.16 113.654 171.16C112.8 171.16 111.96 170.782 111.54 170.054L110.532 170.88C111.204 171.874 112.436 172.252 113.584 172.252C115.376 172.252 117.07 171.328 117.07 169.354C117.07 167.408 115.642 166.904 114.102 166.414C112.52 165.91 112.016 165.504 112.016 164.594C112.016 163.418 113.094 162.928 114.13 162.928C114.844 162.928 115.544 163.208 115.936 163.838L116.902 162.998ZM119.417 167.002C119.935 166.526 120.663 166.288 121.363 166.288C122.385 166.288 122.987 166.778 122.987 167.73V167.926H122.567C120.957 167.926 118.437 168.052 118.437 170.222C118.437 171.496 119.543 172.168 120.873 172.168C121.867 172.168 122.595 171.692 123.029 171.02H123.057C123.057 171.3 123.057 171.706 123.127 172H124.177C124.121 171.664 124.079 171.244 124.079 170.866V168.052C124.079 166.204 123.267 165.28 121.335 165.28C120.383 165.28 119.403 165.602 118.731 166.288L119.417 167.002ZM122.987 168.85V169.27C122.959 170.334 122.315 171.244 121.055 171.244C120.229 171.244 119.613 170.936 119.613 170.11C119.613 169.228 120.509 168.85 121.895 168.85H122.987ZM126.075 172H127.167V168.808C127.167 167.31 127.783 166.288 129.197 166.288C130.219 166.288 130.695 166.974 130.695 168.066V172H131.787V167.954C131.787 166.372 131.017 165.28 129.295 165.28C128.217 165.28 127.405 165.882 127.111 166.526H127.083C127.083 166.162 127.055 165.798 127.055 165.448H126.019C126.019 165.882 126.075 166.4 126.075 167.002V172ZM133.126 170.95C133.77 171.874 134.568 172.168 135.674 172.168C136.976 172.168 138.292 171.594 138.292 170.11C138.292 168.794 137.312 168.374 136.15 168.15C135.282 167.982 134.498 167.744 134.498 167.198C134.498 166.582 135.184 166.288 135.786 166.288C136.43 166.288 136.892 166.61 137.172 167.072L138.082 166.47C137.634 165.63 136.78 165.28 135.856 165.28C134.638 165.28 133.406 165.938 133.406 167.212C133.406 168.57 134.47 168.836 135.716 169.116C136.416 169.27 137.116 169.452 137.116 170.152C137.116 170.866 136.36 171.16 135.674 171.16C134.904 171.16 134.428 170.81 133.994 170.278L133.126 170.95ZM149.578 162.998C148.85 162.144 147.912 161.836 146.806 161.836C145.07 161.836 143.432 162.788 143.432 164.692C143.432 166.344 144.496 166.96 145.896 167.422C147.66 168.01 148.486 168.22 148.486 169.438C148.486 170.572 147.338 171.16 146.33 171.16C145.476 171.16 144.636 170.782 144.216 170.054L143.208 170.88C143.88 171.874 145.112 172.252 146.26 172.252C148.052 172.252 149.746 171.328 149.746 169.354C149.746 167.408 148.318 166.904 146.778 166.414C145.196 165.91 144.692 165.504 144.692 164.594C144.692 163.418 145.77 162.928 146.806 162.928C147.52 162.928 148.22 163.208 148.612 163.838L149.578 162.998ZM156.517 170.166C155.999 170.824 155.369 171.16 154.431 171.16C153.241 171.16 152.373 170.194 152.289 169.06H157.581V168.71C157.581 166.54 156.321 165.28 154.473 165.28C152.541 165.28 151.113 166.694 151.113 168.724C151.113 170.628 152.373 172.168 154.431 172.168C155.649 172.168 156.573 171.804 157.343 170.81L156.517 170.166ZM152.289 168.136C152.429 167.03 153.227 166.288 154.431 166.288C155.635 166.288 156.363 167.03 156.405 168.136H152.289ZM159.27 172H160.362V168.808C160.362 167.31 160.95 166.372 162.28 166.372C162.476 166.372 162.686 166.4 162.868 166.456L162.938 165.35C162.784 165.294 162.63 165.28 162.49 165.28C161.412 165.28 160.6 165.882 160.306 166.526H160.278C160.278 166.162 160.25 165.798 160.25 165.448H159.214C159.214 165.882 159.27 166.4 159.27 167.002V172ZM164.29 172H165.382V165.448H164.29V172ZM164.038 162.886C164.038 163.348 164.374 163.684 164.836 163.684C165.298 163.684 165.634 163.348 165.634 162.886C165.634 162.452 165.284 162.088 164.836 162.088C164.388 162.088 164.038 162.452 164.038 162.886ZM168.116 172H169.208V166.372H170.804V165.448H169.208V164.216C169.208 163.082 169.25 162.256 170.384 162.256C170.636 162.256 170.888 162.312 171.126 162.396L171.28 161.416C171.07 161.304 170.72 161.248 170.44 161.248C168.676 161.248 168.116 162.382 168.116 163.978V165.448H166.688V166.372H168.116V172Z" fill="#616C7F"/>
<g clip-path="url(#clip3_27_8004)">
<path d="M186.461 167.482H179.539C179.06 167.482 178.82 166.948 179.159 166.635L182.62 163.445C182.83 163.252 183.17 163.252 183.38 163.445L186.841 166.635C187.18 166.948 186.94 167.482 186.461 167.482Z" fill="#6B778C"/>
<path d="M179.538 169.243H186.462C186.941 169.243 187.18 169.78 186.841 170.095L183.381 173.311C183.171 173.505 182.829 173.505 182.619 173.311L179.159 170.095C178.82 169.78 179.059 169.243 179.538 169.243Z" fill="#6B778C"/>
</g>
<path d="M228.54 168.082C229 167.603 229.281 166.956 229.281 166.246V166.106C229.281 164.635 228.077 163.441 226.592 163.441H222.546C222.34 163.441 222.172 163.61 222.172 163.816V173.101C222.172 173.323 222.352 173.504 222.575 173.504H226.932C228.532 173.504 229.828 172.216 229.828 170.626V170.476C229.828 169.478 229.317 168.598 228.54 168.082ZM223.484 164.754H226.556C227.337 164.754 227.969 165.361 227.969 166.112V166.241C227.969 166.991 227.336 167.599 226.556 167.599H223.484V164.754ZM228.496 170.625C228.496 171.485 227.79 172.182 226.917 172.182H223.484V168.92H226.917C227.79 168.92 228.496 169.617 228.496 170.477V170.625Z" fill="#616C7F"/>
<path d="M259.91 163.688H254.004C253.944 163.688 253.895 163.737 253.895 163.797V164.672C253.895 164.732 253.944 164.781 254.004 164.781H256.481L254.348 172.219H252.131C252.071 172.219 252.021 172.268 252.021 172.328V173.203C252.021 173.263 252.071 173.312 252.131 173.312H258.037C258.097 173.312 258.146 173.263 258.146 173.203V172.328C258.146 172.268 258.097 172.219 258.037 172.219H255.486L257.619 164.781H259.91C259.97 164.781 260.02 164.732 260.02 164.672V163.797C260.02 163.737 259.97 163.688 259.91 163.688Z" fill="#616C7F"/>
<path d="M290.266 172.492H281.734C281.674 172.492 281.625 172.539 281.625 172.596V173.427C281.625 173.485 281.674 173.531 281.734 173.531H290.266C290.326 173.531 290.375 173.485 290.375 173.427V172.596C290.375 172.539 290.326 172.492 290.266 172.492ZM286 171.453C286.949 171.453 287.84 171.083 288.513 170.411C289.186 169.74 289.555 168.847 289.555 167.898V163.633C289.555 163.543 289.481 163.469 289.391 163.469H288.57C288.48 163.469 288.406 163.543 288.406 163.633V167.898C288.406 169.225 287.326 170.305 286 170.305C284.674 170.305 283.594 169.225 283.594 167.898V163.633C283.594 163.543 283.52 163.469 283.43 163.469H282.609C282.519 163.469 282.445 163.543 282.445 163.633V167.898C282.445 168.847 282.816 169.739 283.487 170.411C284.158 171.084 285.051 171.453 286 171.453Z" fill="#616C7F"/>
<path d="M327.917 172H336.083V173.75H327.917V172ZM332.292 163.833H331.708C331.474 163.833 331.263 163.973 331.171 164.189L328.351 170.833H329.619L330.361 169.083H333.63L334.37 170.833H335.636L332.829 164.189C332.784 164.084 332.709 163.994 332.614 163.93C332.518 163.867 332.406 163.833 332.292 163.833V163.833ZM330.857 167.917L331.999 165.224L333.137 167.917H330.857Z" fill="#616C7F"/>
<path fill-rule="evenodd" clip-rule="evenodd" d="M360.293 172.288L359.817 173.54H364.404L363.929 172.288H360.293ZM360.685 171.064H363.537L362.111 167.286L360.685 171.064Z" fill="#616C7F"/>
<path fill-rule="evenodd" clip-rule="evenodd" d="M366.06 163.46H357.94C357.401 163.46 356.96 163.901 356.96 164.44V172.56C356.96 173.099 357.401 173.54 357.94 173.54H358.236L361.149 166.153C361.172 166.079 361.218 166.013 361.28 165.967C361.343 165.921 361.418 165.896 361.496 165.896H362.73C362.891 165.896 363.026 166.001 363.074 166.146H363.077L365.987 173.54H366.06C366.599 173.54 367.04 173.099 367.04 172.56V164.44C367.04 163.901 366.599 163.46 366.06 163.46Z" fill="#616C7F"/>
<path d="M404.081 168.537C403.832 168.729 403.661 168.893 403.571 169.034C403.48 169.174 403.426 169.324 403.408 169.482H404.971V169.045H404.158C404.205 168.998 404.246 168.957 404.281 168.928C404.318 168.899 404.388 168.845 404.492 168.771C404.669 168.644 404.79 168.526 404.857 168.418C404.925 168.31 404.958 168.2 404.958 168.081C404.96 167.975 404.929 167.871 404.87 167.783C404.812 167.693 404.728 167.624 404.63 167.584C404.528 167.539 404.385 167.519 404.202 167.519C404.027 167.519 403.889 167.541 403.79 167.585C403.695 167.627 403.615 167.695 403.559 167.783C403.504 167.866 403.466 167.984 403.446 168.135L403.968 168.179C403.982 168.07 404.011 167.994 404.053 167.949C404.075 167.928 404.1 167.912 404.128 167.901C404.156 167.89 404.186 167.885 404.216 167.886C404.28 167.886 404.333 167.907 404.375 167.949C404.395 167.969 404.411 167.992 404.422 168.018C404.433 168.044 404.438 168.072 404.438 168.1C404.434 168.163 404.412 168.223 404.375 168.273C404.332 168.333 404.234 168.421 404.081 168.537V168.537ZM404.113 172.263C404.053 172.264 403.994 172.242 403.949 172.201C403.906 172.16 403.874 172.088 403.854 171.981L403.333 172.05C403.368 172.169 403.416 172.267 403.48 172.345C403.543 172.422 403.625 172.482 403.723 172.523C403.821 172.564 403.956 172.583 404.127 172.583C404.302 172.583 404.442 172.556 404.55 172.502C404.654 172.45 404.74 172.368 404.797 172.267C404.854 172.165 404.882 172.06 404.882 171.949C404.884 171.87 404.867 171.791 404.831 171.72C404.796 171.658 404.746 171.605 404.686 171.568C404.634 171.538 404.577 171.516 404.519 171.504C404.599 171.463 404.668 171.403 404.72 171.329C404.764 171.263 404.787 171.185 404.786 171.106C404.787 171.039 404.773 170.973 404.744 170.913C404.716 170.853 404.674 170.8 404.622 170.758C404.513 170.665 404.336 170.619 404.092 170.619C403.879 170.619 403.714 170.661 403.598 170.747C403.481 170.83 403.403 170.953 403.362 171.112L403.854 171.2C403.868 171.106 403.893 171.04 403.932 171.003C403.97 170.966 404.02 170.946 404.082 170.946C404.108 170.945 404.133 170.949 404.157 170.958C404.182 170.967 404.204 170.98 404.222 170.998C404.257 171.033 404.273 171.079 404.273 171.137C404.273 171.197 404.251 171.249 404.205 171.294C404.159 171.339 404.102 171.36 404.034 171.36C404.011 171.359 403.989 171.357 403.966 171.353L403.94 171.732C403.995 171.713 404.051 171.703 404.109 171.699C404.186 171.699 404.247 171.723 404.291 171.773C404.336 171.82 404.358 171.889 404.358 171.978C404.358 172.063 404.335 172.133 404.289 172.184C404.267 172.209 404.24 172.229 404.21 172.243C404.179 172.256 404.147 172.263 404.113 172.263V172.263ZM404.666 166.381V164.417H404.235C404.183 164.534 404.104 164.639 404.005 164.722C403.907 164.805 403.77 164.875 403.592 164.935V165.375C403.792 165.32 403.978 165.224 404.139 165.095V166.381H404.666V166.381ZM406.25 165H412.667V166.167H406.25V165ZM406.25 167.917H412.667V169.083H406.25V167.917ZM406.25 170.833H412.667V172H406.25V170.833Z" fill="#616C7F"/>
<path d="M435.667 164.417H443.25V165.583H435.667V164.417ZM432.75 164.125H434.5V165.875H432.75V164.125ZM432.75 167.625H434.5V169.375H432.75V167.625ZM432.75 171.125H434.5V172.875H432.75V171.125ZM435.667 167.917H443.25V169.083H435.667V167.917ZM435.667 171.417H443.25V172.583H435.667V171.417Z" fill="#616C7F"/>
<path d="M461.875 172V171.125H469.75V172H461.875ZM461.875 167.625H474.125V168.5H461.875V167.625ZM471.5 164.125V165H461.875V164.125H471.5Z" fill="#616C7F"/>
<path d="M518.537 173.037C518.267 173.308 517.945 173.523 517.591 173.669C517.238 173.816 516.858 173.891 516.475 173.89C516.092 173.891 515.713 173.816 515.359 173.669C515.005 173.523 514.683 173.308 514.413 173.037L512.763 171.387L513.588 170.562L515.237 172.212C515.566 172.54 516.011 172.723 516.475 172.723C516.939 172.723 517.384 172.54 517.712 172.212C518.04 171.884 518.224 171.439 518.224 170.975C518.224 170.511 518.04 170.066 517.712 169.737L516.062 168.088L516.887 167.263L518.537 168.912C519.083 169.46 519.39 170.202 519.39 170.975C519.39 171.748 519.083 172.49 518.537 173.037V173.037ZM509.463 168.088C508.917 167.54 508.611 166.798 508.611 166.025C508.611 165.252 508.917 164.51 509.463 163.963C510.01 163.417 510.752 163.11 511.525 163.11C512.299 163.11 513.04 163.417 513.588 163.963L515.237 165.613L514.413 166.438L512.763 164.788C512.434 164.46 511.989 164.277 511.525 164.277C511.062 164.277 510.617 164.46 510.288 164.788C509.96 165.116 509.776 165.561 509.776 166.025C509.776 166.489 509.96 166.934 510.288 167.263L511.938 168.912L511.113 169.737L509.463 168.088Z" fill="#616C7F"/>
<path d="M516.063 171.387L516.888 170.563L511.937 165.612L511.113 166.438L516.063 171.387Z" fill="#616C7F"/>
<path d="M541.375 167.917C541.858 167.917 542.25 167.525 542.25 167.042C542.25 166.558 541.858 166.167 541.375 166.167C540.891 166.167 540.5 166.558 540.5 167.042C540.5 167.525 540.891 167.917 541.375 167.917Z" fill="#616C7F"/>
<path d="M543.125 169.667L542.25 168.5L540.5 170.833H547.5L544.875 167.333L543.125 169.667Z" fill="#616C7F"/>
<path d="M548.666 163.833H539.333C538.689 163.833 538.166 164.357 538.166 165V172C538.166 172.643 538.689 173.167 539.333 173.167H548.666C549.309 173.167 549.833 172.643 549.833 172V165C549.833 164.357 549.309 163.833 548.666 163.833ZM539.333 172V165H548.666L548.667 172H539.333V172Z" fill="#616C7F"/>
<path d="M571.302 171.289L572.031 170.378L569.684 168.5L572.031 166.622L571.302 165.711L568.386 168.044C568.317 168.099 568.262 168.168 568.224 168.247C568.186 168.326 568.167 168.413 568.167 168.5C568.167 168.588 568.186 168.674 568.224 168.753C568.262 168.832 568.317 168.901 568.386 168.956L571.302 171.289ZM576.698 165.711L575.969 166.622L578.316 168.5L575.969 170.378L576.698 171.289L579.615 168.956C579.683 168.901 579.738 168.832 579.776 168.753C579.814 168.674 579.834 168.588 579.834 168.5C579.834 168.413 579.814 168.326 579.776 168.247C579.738 168.168 579.683 168.099 579.615 168.044L576.698 165.711ZM575.736 163.376L573.403 173.876L572.264 173.623L574.597 163.123L575.736 163.376Z" fill="#616C7F"/>
<g clip-path="url(#clip4_27_8004)">
<path d="M613 173.75H620.875V175.5H613V173.75ZM625.25 163.25H621.114L618.602 172.875H616.793L619.305 163.25H615.626V161.5H625.251L625.25 163.25ZM625.712 175.5L623.938 173.726L622.163 175.5L621.312 174.649L623.087 172.875L621.312 171.101L622.163 170.25L623.938 172.024L625.712 170.25L626.562 171.101L624.788 172.875L626.562 174.649L625.712 175.5Z" fill="#616C7F"/>
</g>
<line y1="184.5" x2="650" y2="184.5" stroke="#D2D6DD"/>
<path d="M9.408 209H10.752V203.912H12.48L15.552 209H17.2L13.984 203.784C15.744 203.512 16.816 202.44 16.816 200.792C16.816 197.992 14.496 197.672 12.304 197.672H9.408V209ZM10.752 198.92H12.64C13.952 198.92 15.376 199.16 15.376 200.792C15.376 202.664 13.44 202.664 11.952 202.664H10.752V198.92ZM19.0773 209H20.3253V201.512H19.0773V209ZM18.7893 198.584C18.7893 199.112 19.1733 199.496 19.7013 199.496C20.2293 199.496 20.6133 199.112 20.6133 198.584C20.6133 198.088 20.2133 197.672 19.7013 197.672C19.1893 197.672 18.7893 198.088 18.7893 198.584ZM29.129 202.504C28.377 201.688 27.353 201.32 26.249 201.32C23.945 201.32 22.377 202.984 22.377 205.256C22.377 207.56 23.929 209.192 26.249 209.192C27.337 209.192 28.361 208.824 29.081 207.992L28.153 207.112C27.689 207.752 27.065 208.04 26.249 208.04C24.729 208.04 23.721 206.792 23.721 205.256C23.721 203.72 24.569 202.472 26.249 202.472C27.001 202.472 27.609 202.744 28.137 203.384L29.129 202.504ZM30.5278 209H31.7758V205.352C31.7758 203.64 32.4798 202.472 34.0958 202.472C35.2638 202.472 35.8078 203.256 35.8078 204.504V209H37.0558V204.376C37.0558 202.568 36.1758 201.32 34.2078 201.32C33.0398 201.32 32.1438 201.96 31.8078 202.552H31.7758V196.904H30.5278V209ZM47.9675 201.512H45.7595V199.384H44.5115V201.512H42.8795V202.568H44.5115V206.68C44.5115 208.232 44.7995 209.192 46.5755 209.192C47.0395 209.192 47.5995 209.112 48.0315 208.92L47.9835 207.784C47.6475 207.96 47.2475 208.04 46.8795 208.04C45.7755 208.04 45.7595 207.272 45.7595 206.312V202.568H47.9675V201.512ZM55.2405 206.904C54.6485 207.656 53.9285 208.04 52.8565 208.04C51.4965 208.04 50.5045 206.936 50.4085 205.64H56.4565V205.24C56.4565 202.76 55.0165 201.32 52.9045 201.32C50.6965 201.32 49.0645 202.936 49.0645 205.256C49.0645 207.432 50.5045 209.192 52.8565 209.192C54.2485 209.192 55.3045 208.776 56.1845 207.64L55.2405 206.904ZM50.4085 204.584C50.5685 203.32 51.4805 202.472 52.8565 202.472C54.2325 202.472 55.0645 203.32 55.1125 204.584H50.4085ZM57.2511 209H58.8031L61.1391 205.768L63.5071 209H65.1551L62.0671 204.968L64.6431 201.512H63.1231L61.2511 204.2L59.2671 201.512H57.6351L60.3231 204.968L57.2511 209ZM70.4831 201.512H68.2751V199.384H67.0271V201.512H65.3951V202.568H67.0271V206.68C67.0271 208.232 67.3151 209.192 69.0911 209.192C69.5551 209.192 70.1151 209.112 70.5471 208.92L70.4991 207.784C70.1631 207.96 69.7631 208.04 69.3951 208.04C68.2911 208.04 68.2751 207.272 68.2751 206.312V202.568H70.4831V201.512ZM82.2093 206.904C81.6173 207.656 80.8973 208.04 79.8253 208.04C78.4653 208.04 77.4733 206.936 77.3773 205.64H83.4253V205.24C83.4253 202.76 81.9853 201.32 79.8733 201.32C77.6653 201.32 76.0333 202.936 76.0333 205.256C76.0333 207.432 77.4733 209.192 79.8253 209.192C81.2173 209.192 82.2733 208.776 83.1533 207.64L82.2093 206.904ZM77.3773 204.584C77.5373 203.32 78.4493 202.472 79.8253 202.472C81.2013 202.472 82.0333 203.32 82.0813 204.584H77.3773ZM91.5799 209H92.8279V196.904H91.5799V202.6H91.5479C90.8599 201.8 89.9479 201.32 88.8599 201.32C86.5079 201.32 84.9239 202.984 84.9239 205.256C84.9239 207.496 86.5719 209.192 88.6679 209.192C90.0119 209.192 91.0839 208.52 91.5479 207.672H91.5799V209ZM91.5799 205.256C91.5799 206.824 90.5399 208.04 88.9239 208.04C87.3079 208.04 86.2679 206.824 86.2679 205.256C86.2679 203.688 87.3079 202.472 88.9239 202.472C90.5399 202.472 91.5799 203.688 91.5799 205.256ZM95.2491 209H96.4971V201.512H95.2491V209ZM94.9611 198.584C94.9611 199.112 95.3451 199.496 95.8731 199.496C96.4011 199.496 96.7851 199.112 96.7851 198.584C96.7851 198.088 96.3851 197.672 95.8731 197.672C95.3611 197.672 94.9611 198.088 94.9611 198.584ZM103.077 201.512H100.869V199.384H99.6209V201.512H97.9889V202.568H99.6209V206.68C99.6209 208.232 99.9089 209.192 101.685 209.192C102.149 209.192 102.709 209.112 103.141 208.92L103.093 207.784C102.757 207.96 102.357 208.04 101.989 208.04C100.885 208.04 100.869 207.272 100.869 206.312V202.568H103.077V201.512ZM104.174 205.256C104.174 207.592 105.87 209.192 108.174 209.192C110.478 209.192 112.174 207.592 112.174 205.256C112.174 202.92 110.478 201.32 108.174 201.32C105.87 201.32 104.174 202.92 104.174 205.256ZM105.518 205.256C105.518 203.688 106.558 202.472 108.174 202.472C109.79 202.472 110.83 203.688 110.83 205.256C110.83 206.824 109.79 208.04 108.174 208.04C106.558 208.04 105.518 206.824 105.518 205.256ZM114.106 209H115.354V205.352C115.354 203.64 116.026 202.568 117.546 202.568C117.77 202.568 118.01 202.6 118.218 202.664L118.298 201.4C118.122 201.336 117.946 201.32 117.786 201.32C116.554 201.32 115.626 202.008 115.29 202.744H115.258C115.258 202.328 115.226 201.912 115.226 201.512H114.042C114.042 202.008 114.106 202.6 114.106 203.288V209Z" fill="#9EA6B5"/>
</g>
<rect x="0.5" y="152.5" width="649" height="72" rx="3.5" stroke="#9EA6B5"/>
<defs>
<clipPath id="clip0_27_8004">
<rect y="33" width="320" height="70" rx="4" fill="white"/>
</clipPath>
<clipPath id="clip1_27_8004">
<rect y="152" width="650" height="73" rx="4" fill="white"/>
</clipPath>
<clipPath id="clip2_27_8004">
<rect width="8" height="10.4" fill="white" transform="translate(70 163.3)"/>
</clipPath>
<clipPath id="clip3_27_8004">
<rect width="8" height="10.4" fill="white" transform="translate(179 163.3)"/>
</clipPath>
<clipPath id="clip4_27_8004">
<rect width="14" height="14" fill="white" transform="translate(613 161.5)"/>
</clipPath>
</defs>
</svg>
