<svg width="257" height="64" viewBox="0 0 257 64" fill="none" xmlns="http://www.w3.org/2000/svg">
<path d="M138.178 43.448H137.002L135.518 48.488H135.49L133.768 43.448H132.62L130.926 48.488H130.898L129.4 43.448H128.196L130.324 50H131.444L133.096 44.96H133.124L134.986 50H136.064L138.178 43.448ZM140.015 45.002C140.533 44.526 141.261 44.288 141.961 44.288C142.983 44.288 143.585 44.778 143.585 45.73V45.926H143.165C141.555 45.926 139.035 46.052 139.035 48.222C139.035 49.496 140.141 50.168 141.471 50.168C142.465 50.168 143.193 49.692 143.627 49.02H143.655C143.655 49.3 143.655 49.706 143.725 50H144.775C144.719 49.664 144.677 49.244 144.677 48.866V46.052C144.677 44.204 143.865 43.28 141.933 43.28C140.981 43.28 140.001 43.602 139.329 44.288L140.015 45.002ZM143.585 46.85V47.27C143.557 48.334 142.913 49.244 141.653 49.244C140.827 49.244 140.211 48.936 140.211 48.11C140.211 47.228 141.107 46.85 142.493 46.85H143.585ZM146.771 50H147.863V39.416H146.771V50ZM150.134 50H151.226V39.416H150.134V50ZM153.343 53.192H154.435V48.838H154.463C154.869 49.58 155.807 50.168 156.983 50.168C158.817 50.168 160.259 48.684 160.259 46.724C160.259 44.736 158.873 43.28 156.815 43.28C155.863 43.28 155.065 43.7 154.463 44.4H154.435V43.448H153.343V53.192ZM154.435 46.724C154.435 45.352 155.345 44.288 156.759 44.288C158.173 44.288 159.083 45.352 159.083 46.724C159.083 48.096 158.173 49.16 156.759 49.16C155.345 49.16 154.435 48.096 154.435 46.724ZM162.56 45.002C163.078 44.526 163.806 44.288 164.506 44.288C165.528 44.288 166.13 44.778 166.13 45.73V45.926H165.71C164.1 45.926 161.58 46.052 161.58 48.222C161.58 49.496 162.686 50.168 164.016 50.168C165.01 50.168 165.738 49.692 166.172 49.02H166.2C166.2 49.3 166.2 49.706 166.27 50H167.32C167.264 49.664 167.222 49.244 167.222 48.866V46.052C167.222 44.204 166.41 43.28 164.478 43.28C163.526 43.28 162.546 43.602 161.874 44.288L162.56 45.002ZM166.13 46.85V47.27C166.102 48.334 165.458 49.244 164.198 49.244C163.372 49.244 162.756 48.936 162.756 48.11C162.756 47.228 163.652 46.85 165.038 46.85H166.13ZM169.162 53.192H170.254V48.838H170.282C170.688 49.58 171.626 50.168 172.802 50.168C174.636 50.168 176.078 48.684 176.078 46.724C176.078 44.736 174.692 43.28 172.634 43.28C171.682 43.28 170.884 43.7 170.282 44.4H170.254V43.448H169.162V53.192ZM170.254 46.724C170.254 45.352 171.164 44.288 172.578 44.288C173.992 44.288 174.902 45.352 174.902 46.724C174.902 48.096 173.992 49.16 172.578 49.16C171.164 49.16 170.254 48.096 170.254 46.724ZM182.802 48.166C182.284 48.824 181.654 49.16 180.716 49.16C179.526 49.16 178.658 48.194 178.574 47.06H183.866V46.71C183.866 44.54 182.606 43.28 180.758 43.28C178.826 43.28 177.398 44.694 177.398 46.724C177.398 48.628 178.658 50.168 180.716 50.168C181.934 50.168 182.858 49.804 183.628 48.81L182.802 48.166ZM178.574 46.136C178.714 45.03 179.512 44.288 180.716 44.288C181.92 44.288 182.648 45.03 182.69 46.136H178.574ZM185.556 50H186.648V46.808C186.648 45.31 187.236 44.372 188.566 44.372C188.762 44.372 188.972 44.4 189.154 44.456L189.224 43.35C189.07 43.294 188.916 43.28 188.776 43.28C187.698 43.28 186.886 43.882 186.592 44.526H186.564C186.564 44.162 186.536 43.798 186.536 43.448H185.5C185.5 43.882 185.556 44.4 185.556 45.002V50ZM190.102 48.404C189.64 48.404 189.262 48.782 189.262 49.244C189.262 49.706 189.668 50.084 190.102 50.084C190.536 50.084 190.942 49.706 190.942 49.244C190.942 48.782 190.564 48.404 190.102 48.404ZM194.279 43.448H193.187V50.966C193.187 51.722 193.061 52.352 192.235 52.352C192.053 52.352 191.885 52.324 191.703 52.268L191.577 53.22C191.815 53.332 192.081 53.36 192.333 53.36C193.957 53.36 194.279 52.142 194.279 51.47V43.448ZM192.935 40.886C192.935 41.348 193.271 41.684 193.733 41.684C194.195 41.684 194.531 41.348 194.531 40.886C194.531 40.452 194.181 40.088 193.733 40.088C193.285 40.088 192.935 40.452 192.935 40.886ZM196.396 53.192H197.488V48.838H197.516C197.922 49.58 198.86 50.168 200.036 50.168C201.87 50.168 203.312 48.684 203.312 46.724C203.312 44.736 201.926 43.28 199.868 43.28C198.916 43.28 198.118 43.7 197.516 44.4H197.488V43.448H196.396V53.192ZM197.488 46.724C197.488 45.352 198.398 44.288 199.812 44.288C201.226 44.288 202.136 45.352 202.136 46.724C202.136 48.096 201.226 49.16 199.812 49.16C198.398 49.16 197.488 48.096 197.488 46.724ZM211.549 43.448H210.457V44.568H210.429C209.995 43.7 209.001 43.28 208.119 43.28C206.033 43.28 204.633 44.582 204.633 46.724C204.633 48.656 206.061 50.084 208.119 50.084C208.987 50.084 209.911 49.706 210.429 48.866H210.457V49.706C210.457 51.092 209.939 52.352 207.979 52.352C206.971 52.352 206.229 51.96 205.543 51.218L204.759 52.114C205.683 53.024 206.705 53.36 207.979 53.36C210.275 53.36 211.549 52.072 211.549 49.706V43.448ZM205.809 46.724C205.809 45.352 206.747 44.288 208.119 44.288C209.505 44.288 210.457 45.282 210.457 46.696C210.457 47.956 209.617 49.076 208.119 49.076C206.845 49.076 205.809 48.054 205.809 46.724ZM218.068 45.002C218.586 44.526 219.314 44.288 220.014 44.288C221.036 44.288 221.638 44.778 221.638 45.73V45.926H221.218C219.608 45.926 217.088 46.052 217.088 48.222C217.088 49.496 218.194 50.168 219.524 50.168C220.518 50.168 221.246 49.692 221.68 49.02H221.708C221.708 49.3 221.708 49.706 221.778 50H222.828C222.772 49.664 222.73 49.244 222.73 48.866V46.052C222.73 44.204 221.918 43.28 219.986 43.28C219.034 43.28 218.054 43.602 217.382 44.288L218.068 45.002ZM221.638 46.85V47.27C221.61 48.334 220.966 49.244 219.706 49.244C218.88 49.244 218.264 48.936 218.264 48.11C218.264 47.228 219.16 46.85 220.546 46.85H221.638ZM230.171 50H231.263V39.416H230.171V44.4H230.143C229.541 43.7 228.743 43.28 227.791 43.28C225.733 43.28 224.347 44.736 224.347 46.724C224.347 48.684 225.789 50.168 227.623 50.168C228.799 50.168 229.737 49.58 230.143 48.838H230.171V50ZM230.171 46.724C230.171 48.096 229.261 49.16 227.847 49.16C226.433 49.16 225.523 48.096 225.523 46.724C225.523 45.352 226.433 44.288 227.847 44.288C229.261 44.288 230.171 45.352 230.171 46.724ZM238.73 50H239.822V39.416H238.73V44.4H238.702C238.1 43.7 237.302 43.28 236.35 43.28C234.292 43.28 232.906 44.736 232.906 46.724C232.906 48.684 234.348 50.168 236.182 50.168C237.358 50.168 238.296 49.58 238.702 48.838H238.73V50ZM238.73 46.724C238.73 48.096 237.82 49.16 236.406 49.16C234.992 49.16 234.082 48.096 234.082 46.724C234.082 45.352 234.992 44.288 236.406 44.288C237.82 44.288 238.73 45.352 238.73 46.724ZM246.869 48.166C246.351 48.824 245.721 49.16 244.783 49.16C243.593 49.16 242.725 48.194 242.641 47.06H247.933V46.71C247.933 44.54 246.673 43.28 244.825 43.28C242.893 43.28 241.465 44.694 241.465 46.724C241.465 48.628 242.725 50.168 244.783 50.168C246.001 50.168 246.925 49.804 247.695 48.81L246.869 48.166ZM242.641 46.136C242.781 45.03 243.579 44.288 244.783 44.288C245.987 44.288 246.715 45.03 246.757 46.136H242.641ZM255.068 50H256.16V39.416H255.068V44.4H255.04C254.438 43.7 253.64 43.28 252.688 43.28C250.63 43.28 249.244 44.736 249.244 46.724C249.244 48.684 250.686 50.168 252.52 50.168C253.696 50.168 254.634 49.58 255.04 48.838H255.068V50ZM255.068 46.724C255.068 48.096 254.158 49.16 252.744 49.16C251.33 49.16 250.42 48.096 250.42 46.724C250.42 45.352 251.33 44.288 252.744 44.288C254.158 44.288 255.068 45.352 255.068 46.724Z" fill="#616C7F"/>
<rect x="0.5" y="28.5" width="111" height="35" rx="3.5" fill="white"/>
<path d="M26.012 40.16C25.052 38.912 23.548 38.384 22.012 38.384C18.652 38.384 16.252 41.008 16.252 44.336C16.252 47.776 18.764 50.288 22.012 50.288C23.82 50.288 25.292 49.664 26.3 48.304L25.292 47.456C24.492 48.48 23.388 49.04 22.012 49.04C19.468 49.04 17.692 46.96 17.692 44.336C17.692 41.856 19.484 39.632 22.012 39.632C23.1 39.632 24.172 40.096 24.844 41.008L26.012 40.16ZM27.9496 50H29.1976V46.352C29.1976 44.64 29.9016 43.472 31.5176 43.472C32.6856 43.472 33.2296 44.256 33.2296 45.504V50H34.4776V45.376C34.4776 43.568 33.5976 42.32 31.6296 42.32C30.4616 42.32 29.5656 42.96 29.2296 43.552H29.1976V37.904H27.9496V50ZM36.4083 46.256C36.4083 48.592 38.1043 50.192 40.4083 50.192C42.7123 50.192 44.4083 48.592 44.4083 46.256C44.4083 43.92 42.7123 42.32 40.4083 42.32C38.1043 42.32 36.4083 43.92 36.4083 46.256ZM37.7523 46.256C37.7523 44.688 38.7923 43.472 40.4083 43.472C42.0243 43.472 43.0643 44.688 43.0643 46.256C43.0643 47.824 42.0243 49.04 40.4083 49.04C38.7923 49.04 37.7523 47.824 37.7523 46.256ZM45.9083 46.256C45.9083 48.592 47.6043 50.192 49.9083 50.192C52.2123 50.192 53.9083 48.592 53.9083 46.256C53.9083 43.92 52.2123 42.32 49.9083 42.32C47.6043 42.32 45.9083 43.92 45.9083 46.256ZM47.2523 46.256C47.2523 44.688 48.2923 43.472 49.9083 43.472C51.5243 43.472 52.5643 44.688 52.5643 46.256C52.5643 47.824 51.5243 49.04 49.9083 49.04C48.2923 49.04 47.2523 47.824 47.2523 46.256ZM55.0083 48.8C55.7443 49.856 56.6562 50.192 57.9203 50.192C59.4083 50.192 60.9123 49.536 60.9123 47.84C60.9123 46.336 59.7923 45.856 58.4643 45.6C57.4723 45.408 56.5763 45.136 56.5763 44.512C56.5763 43.808 57.3603 43.472 58.0483 43.472C58.7843 43.472 59.3123 43.84 59.6323 44.368L60.6723 43.68C60.1603 42.72 59.1843 42.32 58.1283 42.32C56.7363 42.32 55.3283 43.072 55.3283 44.528C55.3283 46.08 56.5443 46.384 57.9683 46.704C58.7682 46.88 59.5683 47.088 59.5683 47.888C59.5683 48.704 58.7043 49.04 57.9203 49.04C57.0403 49.04 56.4963 48.64 56.0003 48.032L55.0083 48.8ZM68.3968 47.904C67.8048 48.656 67.0848 49.04 66.0128 49.04C64.6528 49.04 63.6608 47.936 63.5648 46.64H69.6128V46.24C69.6128 43.76 68.1728 42.32 66.0608 42.32C63.8528 42.32 62.2208 43.936 62.2208 46.256C62.2208 48.432 63.6608 50.192 66.0128 50.192C67.4048 50.192 68.4608 49.776 69.3408 48.64L68.3968 47.904ZM63.5648 45.584C63.7248 44.32 64.6368 43.472 66.0128 43.472C67.3888 43.472 68.2208 44.32 68.2688 45.584H63.5648ZM79.7085 42.512H77.8845V41.104C77.8845 39.808 77.9325 38.864 79.2285 38.864C79.5165 38.864 79.8045 38.928 80.0765 39.024L80.2525 37.904C80.0125 37.776 79.6125 37.712 79.2925 37.712C77.2765 37.712 76.6365 39.008 76.6365 40.832V42.512H75.0045V43.568H76.6365V50H77.8845V43.568H79.7085V42.512ZM80.8605 50H82.1085V42.512H80.8605V50ZM80.5725 39.584C80.5725 40.112 80.9565 40.496 81.4845 40.496C82.0125 40.496 82.3965 40.112 82.3965 39.584C82.3965 39.088 81.9965 38.672 81.4845 38.672C80.9725 38.672 80.5725 39.088 80.5725 39.584ZM84.7023 50H85.9503V37.904H84.7023V50ZM94.178 47.904C93.586 48.656 92.866 49.04 91.794 49.04C90.434 49.04 89.442 47.936 89.346 46.64H95.394V46.24C95.394 43.76 93.954 42.32 91.842 42.32C89.634 42.32 88.002 43.936 88.002 46.256C88.002 48.432 89.442 50.192 91.794 50.192C93.186 50.192 94.242 49.776 95.122 48.64L94.178 47.904ZM89.346 45.584C89.506 44.32 90.418 43.472 91.794 43.472C93.17 43.472 94.002 44.32 94.05 45.584H89.346Z" fill="#6C3078"/>
<rect x="0.5" y="28.5" width="111" height="35" rx="3.5" stroke="#9EA6B5"/>
<path d="M9.904 4.672H8.56V11.488C8.56 13.312 7.888 15.04 5.632 15.04C3.376 15.04 2.704 13.312 2.704 11.488V4.672H1.36V11.68C1.36 14.144 2.512 16.288 5.632 16.288C8.752 16.288 9.904 14.144 9.904 11.68V4.672ZM12.3856 19.648H13.6336V14.672H13.6656C14.1296 15.52 15.2016 16.192 16.5456 16.192C18.6416 16.192 20.2896 14.496 20.2896 12.256C20.2896 9.984 18.7056 8.32 16.3536 8.32C15.2656 8.32 14.3536 8.8 13.6656 9.6H13.6336V8.512H12.3856V19.648ZM13.6336 12.256C13.6336 10.688 14.6736 9.472 16.2896 9.472C17.9056 9.472 18.9456 10.688 18.9456 12.256C18.9456 13.824 17.9056 15.04 16.2896 15.04C14.6736 15.04 13.6336 13.824 13.6336 12.256ZM22.3429 16H23.5909V3.904H22.3429V16ZM25.6426 12.256C25.6426 14.592 27.3386 16.192 29.6426 16.192C31.9466 16.192 33.6426 14.592 33.6426 12.256C33.6426 9.92 31.9466 8.32 29.6426 8.32C27.3386 8.32 25.6426 9.92 25.6426 12.256ZM26.9866 12.256C26.9866 10.688 28.0266 9.472 29.6426 9.472C31.2586 9.472 32.2986 10.688 32.2986 12.256C32.2986 13.824 31.2586 15.04 29.6426 15.04C28.0266 15.04 26.9866 13.824 26.9866 12.256ZM36.2626 10.288C36.8546 9.744 37.6866 9.472 38.4866 9.472C39.6546 9.472 40.3426 10.032 40.3426 11.12V11.344H39.8626C38.0226 11.344 35.1426 11.488 35.1426 13.968C35.1426 15.424 36.4066 16.192 37.9266 16.192C39.0626 16.192 39.8946 15.648 40.3906 14.88H40.4226C40.4226 15.2 40.4226 15.664 40.5026 16H41.7026C41.6386 15.616 41.5906 15.136 41.5906 14.704V11.488C41.5906 9.376 40.6626 8.32 38.4546 8.32C37.3666 8.32 36.2466 8.688 35.4786 9.472L36.2626 10.288ZM40.3426 12.4V12.88C40.3106 14.096 39.5746 15.136 38.1346 15.136C37.1906 15.136 36.4866 14.784 36.4866 13.84C36.4866 12.832 37.5106 12.4 39.0946 12.4H40.3426ZM50.0955 16H51.3435V3.904H50.0955V9.6H50.0635C49.3755 8.8 48.4635 8.32 47.3755 8.32C45.0235 8.32 43.4395 9.984 43.4395 12.256C43.4395 14.496 45.0875 16.192 47.1835 16.192C48.5275 16.192 49.5995 15.52 50.0635 14.672H50.0955V16ZM50.0955 12.256C50.0955 13.824 49.0555 15.04 47.4395 15.04C45.8235 15.04 44.7835 13.824 44.7835 12.256C44.7835 10.688 45.8235 9.472 47.4395 9.472C49.0555 9.472 50.0955 10.688 50.0955 12.256ZM58.3299 16H59.6739V10.912H64.9539V9.664H59.6739V5.92H65.3539V4.672H58.3299V16ZM67.1085 16H68.3565V8.512H67.1085V16ZM66.8205 5.584C66.8205 6.112 67.2045 6.496 67.7325 6.496C68.2605 6.496 68.6445 6.112 68.6445 5.584C68.6445 5.088 68.2445 4.672 67.7325 4.672C67.2205 4.672 66.8205 5.088 66.8205 5.584ZM70.9523 16H72.2003V3.904H70.9523V16ZM80.428 13.904C79.836 14.656 79.116 15.04 78.044 15.04C76.684 15.04 75.692 13.936 75.596 12.64H81.644V12.24C81.644 9.76 80.204 8.32 78.092 8.32C75.884 8.32 74.252 9.936 74.252 12.256C74.252 14.432 75.692 16.192 78.044 16.192C79.436 16.192 80.492 15.776 81.372 14.64L80.428 13.904ZM75.596 11.584C75.756 10.32 76.668 9.472 78.044 9.472C79.42 9.472 80.252 10.32 80.3 11.584H75.596Z" fill="black"/>
</svg>
