<svg width="219" height="64" viewBox="0 0 219 64" fill="none" xmlns="http://www.w3.org/2000/svg">
<path d="M129.232 50H130.408V41.768H130.436L136.176 50H137.66V40.088H136.484V48.32H136.456L130.716 40.088H129.232V50ZM139.554 46.724C139.554 48.768 141.038 50.168 143.054 50.168C145.07 50.168 146.554 48.768 146.554 46.724C146.554 44.68 145.07 43.28 143.054 43.28C141.038 43.28 139.554 44.68 139.554 46.724ZM140.73 46.724C140.73 45.352 141.64 44.288 143.054 44.288C144.468 44.288 145.378 45.352 145.378 46.724C145.378 48.096 144.468 49.16 143.054 49.16C141.64 49.16 140.73 48.096 140.73 46.724ZM155.389 43.448H153.793V42.216C153.793 41.082 153.835 40.256 154.969 40.256C155.221 40.256 155.473 40.312 155.711 40.396L155.865 39.416C155.655 39.304 155.305 39.248 155.025 39.248C153.261 39.248 152.701 40.382 152.701 41.978V43.448H151.273V44.372H152.701V50H153.793V44.372H155.389V43.448ZM156.397 50H157.489V43.448H156.397V50ZM156.145 40.886C156.145 41.348 156.481 41.684 156.943 41.684C157.405 41.684 157.741 41.348 157.741 40.886C157.741 40.452 157.391 40.088 156.943 40.088C156.495 40.088 156.145 40.452 156.145 40.886ZM159.759 50H160.851V39.416H159.759V50ZM168.05 48.166C167.532 48.824 166.902 49.16 165.964 49.16C164.774 49.16 163.906 48.194 163.822 47.06H169.114V46.71C169.114 44.54 167.854 43.28 166.006 43.28C164.074 43.28 162.646 44.694 162.646 46.724C162.646 48.628 163.906 50.168 165.964 50.168C167.182 50.168 168.106 49.804 168.876 48.81L168.05 48.166ZM163.822 46.136C163.962 45.03 164.76 44.288 165.964 44.288C167.168 44.288 167.896 45.03 167.938 46.136H163.822ZM180.23 44.316C179.572 43.602 178.676 43.28 177.71 43.28C175.694 43.28 174.322 44.736 174.322 46.724C174.322 48.74 175.68 50.168 177.71 50.168C178.662 50.168 179.558 49.846 180.188 49.118L179.376 48.348C178.97 48.908 178.424 49.16 177.71 49.16C176.38 49.16 175.498 48.068 175.498 46.724C175.498 45.38 176.24 44.288 177.71 44.288C178.368 44.288 178.9 44.526 179.362 45.086L180.23 44.316ZM181.454 50H182.546V46.808C182.546 45.31 183.162 44.288 184.576 44.288C185.598 44.288 186.074 44.974 186.074 46.066V50H187.166V45.954C187.166 44.372 186.396 43.28 184.674 43.28C183.652 43.28 182.868 43.84 182.574 44.358H182.546V39.416H181.454V50ZM188.855 46.724C188.855 48.768 190.339 50.168 192.355 50.168C194.371 50.168 195.855 48.768 195.855 46.724C195.855 44.68 194.371 43.28 192.355 43.28C190.339 43.28 188.855 44.68 188.855 46.724ZM190.031 46.724C190.031 45.352 190.941 44.288 192.355 44.288C193.769 44.288 194.679 45.352 194.679 46.724C194.679 48.096 193.769 49.16 192.355 49.16C190.941 49.16 190.031 48.096 190.031 46.724ZM196.818 48.95C197.462 49.874 198.26 50.168 199.366 50.168C200.668 50.168 201.984 49.594 201.984 48.11C201.984 46.794 201.004 46.374 199.842 46.15C198.974 45.982 198.19 45.744 198.19 45.198C198.19 44.582 198.876 44.288 199.478 44.288C200.122 44.288 200.584 44.61 200.864 45.072L201.774 44.47C201.326 43.63 200.472 43.28 199.548 43.28C198.33 43.28 197.098 43.938 197.098 45.212C197.098 46.57 198.162 46.836 199.408 47.116C200.108 47.27 200.808 47.452 200.808 48.152C200.808 48.866 200.052 49.16 199.366 49.16C198.596 49.16 198.12 48.81 197.686 48.278L196.818 48.95ZM208.533 48.166C208.015 48.824 207.385 49.16 206.447 49.16C205.257 49.16 204.389 48.194 204.305 47.06H209.597V46.71C209.597 44.54 208.337 43.28 206.489 43.28C204.557 43.28 203.129 44.694 203.129 46.724C203.129 48.628 204.389 50.168 206.447 50.168C207.665 50.168 208.589 49.804 209.359 48.81L208.533 48.166ZM204.305 46.136C204.445 45.03 205.243 44.288 206.447 44.288C207.651 44.288 208.379 45.03 208.421 46.136H204.305ZM211.286 50H212.378V46.808C212.378 45.31 212.994 44.288 214.408 44.288C215.43 44.288 215.906 44.974 215.906 46.066V50H216.998V45.954C216.998 44.372 216.228 43.28 214.506 43.28C213.428 43.28 212.616 43.882 212.322 44.526H212.294C212.294 44.162 212.266 43.798 212.266 43.448H211.23C211.23 43.882 211.286 44.4 211.286 45.002V50Z" fill="#616C7F"/>
<rect x="0.5" y="28.5" width="111" height="35" rx="3.5" fill="white"/>
<path d="M26.012 40.16C25.052 38.912 23.548 38.384 22.012 38.384C18.652 38.384 16.252 41.008 16.252 44.336C16.252 47.776 18.764 50.288 22.012 50.288C23.82 50.288 25.292 49.664 26.3 48.304L25.292 47.456C24.492 48.48 23.388 49.04 22.012 49.04C19.468 49.04 17.692 46.96 17.692 44.336C17.692 41.856 19.484 39.632 22.012 39.632C23.1 39.632 24.172 40.096 24.844 41.008L26.012 40.16ZM27.9496 50H29.1976V46.352C29.1976 44.64 29.9016 43.472 31.5176 43.472C32.6856 43.472 33.2296 44.256 33.2296 45.504V50H34.4776V45.376C34.4776 43.568 33.5976 42.32 31.6296 42.32C30.4616 42.32 29.5656 42.96 29.2296 43.552H29.1976V37.904H27.9496V50ZM36.4083 46.256C36.4083 48.592 38.1043 50.192 40.4083 50.192C42.7123 50.192 44.4083 48.592 44.4083 46.256C44.4083 43.92 42.7123 42.32 40.4083 42.32C38.1043 42.32 36.4083 43.92 36.4083 46.256ZM37.7523 46.256C37.7523 44.688 38.7923 43.472 40.4083 43.472C42.0243 43.472 43.0643 44.688 43.0643 46.256C43.0643 47.824 42.0243 49.04 40.4083 49.04C38.7923 49.04 37.7523 47.824 37.7523 46.256ZM45.9083 46.256C45.9083 48.592 47.6043 50.192 49.9083 50.192C52.2123 50.192 53.9083 48.592 53.9083 46.256C53.9083 43.92 52.2123 42.32 49.9083 42.32C47.6043 42.32 45.9083 43.92 45.9083 46.256ZM47.2523 46.256C47.2523 44.688 48.2923 43.472 49.9083 43.472C51.5243 43.472 52.5643 44.688 52.5643 46.256C52.5643 47.824 51.5243 49.04 49.9083 49.04C48.2923 49.04 47.2523 47.824 47.2523 46.256ZM55.0083 48.8C55.7443 49.856 56.6562 50.192 57.9203 50.192C59.4083 50.192 60.9123 49.536 60.9123 47.84C60.9123 46.336 59.7923 45.856 58.4643 45.6C57.4723 45.408 56.5763 45.136 56.5763 44.512C56.5763 43.808 57.3603 43.472 58.0483 43.472C58.7843 43.472 59.3123 43.84 59.6323 44.368L60.6723 43.68C60.1603 42.72 59.1843 42.32 58.1283 42.32C56.7363 42.32 55.3283 43.072 55.3283 44.528C55.3283 46.08 56.5443 46.384 57.9683 46.704C58.7682 46.88 59.5683 47.088 59.5683 47.888C59.5683 48.704 58.7043 49.04 57.9203 49.04C57.0403 49.04 56.4963 48.64 56.0003 48.032L55.0083 48.8ZM68.3968 47.904C67.8048 48.656 67.0848 49.04 66.0128 49.04C64.6528 49.04 63.6608 47.936 63.5648 46.64H69.6128V46.24C69.6128 43.76 68.1728 42.32 66.0608 42.32C63.8528 42.32 62.2208 43.936 62.2208 46.256C62.2208 48.432 63.6608 50.192 66.0128 50.192C67.4048 50.192 68.4608 49.776 69.3408 48.64L68.3968 47.904ZM63.5648 45.584C63.7248 44.32 64.6368 43.472 66.0128 43.472C67.3888 43.472 68.2208 44.32 68.2688 45.584H63.5648ZM79.7085 42.512H77.8845V41.104C77.8845 39.808 77.9325 38.864 79.2285 38.864C79.5165 38.864 79.8045 38.928 80.0765 39.024L80.2525 37.904C80.0125 37.776 79.6125 37.712 79.2925 37.712C77.2765 37.712 76.6365 39.008 76.6365 40.832V42.512H75.0045V43.568H76.6365V50H77.8845V43.568H79.7085V42.512ZM80.8605 50H82.1085V42.512H80.8605V50ZM80.5725 39.584C80.5725 40.112 80.9565 40.496 81.4845 40.496C82.0125 40.496 82.3965 40.112 82.3965 39.584C82.3965 39.088 81.9965 38.672 81.4845 38.672C80.9725 38.672 80.5725 39.088 80.5725 39.584ZM84.7023 50H85.9503V37.904H84.7023V50ZM94.178 47.904C93.586 48.656 92.866 49.04 91.794 49.04C90.434 49.04 89.442 47.936 89.346 46.64H95.394V46.24C95.394 43.76 93.954 42.32 91.842 42.32C89.634 42.32 88.002 43.936 88.002 46.256C88.002 48.432 89.442 50.192 91.794 50.192C93.186 50.192 94.242 49.776 95.122 48.64L94.178 47.904ZM89.346 45.584C89.506 44.32 90.418 43.472 91.794 43.472C93.17 43.472 94.002 44.32 94.05 45.584H89.346Z" fill="#6C3078"/>
<rect x="0.5" y="28.5" width="111" height="35" rx="3.5" stroke="#9EA6B5"/>
<path d="M9.904 4.672H8.56V11.488C8.56 13.312 7.888 15.04 5.632 15.04C3.376 15.04 2.704 13.312 2.704 11.488V4.672H1.36V11.68C1.36 14.144 2.512 16.288 5.632 16.288C8.752 16.288 9.904 14.144 9.904 11.68V4.672ZM12.3856 19.648H13.6336V14.672H13.6656C14.1296 15.52 15.2016 16.192 16.5456 16.192C18.6416 16.192 20.2896 14.496 20.2896 12.256C20.2896 9.984 18.7056 8.32 16.3536 8.32C15.2656 8.32 14.3536 8.8 13.6656 9.6H13.6336V8.512H12.3856V19.648ZM13.6336 12.256C13.6336 10.688 14.6736 9.472 16.2896 9.472C17.9056 9.472 18.9456 10.688 18.9456 12.256C18.9456 13.824 17.9056 15.04 16.2896 15.04C14.6736 15.04 13.6336 13.824 13.6336 12.256ZM22.3429 16H23.5909V3.904H22.3429V16ZM25.6426 12.256C25.6426 14.592 27.3386 16.192 29.6426 16.192C31.9466 16.192 33.6426 14.592 33.6426 12.256C33.6426 9.92 31.9466 8.32 29.6426 8.32C27.3386 8.32 25.6426 9.92 25.6426 12.256ZM26.9866 12.256C26.9866 10.688 28.0266 9.472 29.6426 9.472C31.2586 9.472 32.2986 10.688 32.2986 12.256C32.2986 13.824 31.2586 15.04 29.6426 15.04C28.0266 15.04 26.9866 13.824 26.9866 12.256ZM36.2626 10.288C36.8546 9.744 37.6866 9.472 38.4866 9.472C39.6546 9.472 40.3426 10.032 40.3426 11.12V11.344H39.8626C38.0226 11.344 35.1426 11.488 35.1426 13.968C35.1426 15.424 36.4066 16.192 37.9266 16.192C39.0626 16.192 39.8946 15.648 40.3906 14.88H40.4226C40.4226 15.2 40.4226 15.664 40.5026 16H41.7026C41.6386 15.616 41.5906 15.136 41.5906 14.704V11.488C41.5906 9.376 40.6626 8.32 38.4546 8.32C37.3666 8.32 36.2466 8.688 35.4786 9.472L36.2626 10.288ZM40.3426 12.4V12.88C40.3106 14.096 39.5746 15.136 38.1346 15.136C37.1906 15.136 36.4866 14.784 36.4866 13.84C36.4866 12.832 37.5106 12.4 39.0946 12.4H40.3426ZM50.0955 16H51.3435V3.904H50.0955V9.6H50.0635C49.3755 8.8 48.4635 8.32 47.3755 8.32C45.0235 8.32 43.4395 9.984 43.4395 12.256C43.4395 14.496 45.0875 16.192 47.1835 16.192C48.5275 16.192 49.5995 15.52 50.0635 14.672H50.0955V16ZM50.0955 12.256C50.0955 13.824 49.0555 15.04 47.4395 15.04C45.8235 15.04 44.7835 13.824 44.7835 12.256C44.7835 10.688 45.8235 9.472 47.4395 9.472C49.0555 9.472 50.0955 10.688 50.0955 12.256ZM58.3299 16H59.6739V10.912H64.9539V9.664H59.6739V5.92H65.3539V4.672H58.3299V16ZM67.1085 16H68.3565V8.512H67.1085V16ZM66.8205 5.584C66.8205 6.112 67.2045 6.496 67.7325 6.496C68.2605 6.496 68.6445 6.112 68.6445 5.584C68.6445 5.088 68.2445 4.672 67.7325 4.672C67.2205 4.672 66.8205 5.088 66.8205 5.584ZM70.9523 16H72.2003V3.904H70.9523V16ZM80.428 13.904C79.836 14.656 79.116 15.04 78.044 15.04C76.684 15.04 75.692 13.936 75.596 12.64H81.644V12.24C81.644 9.76 80.204 8.32 78.092 8.32C75.884 8.32 74.252 9.936 74.252 12.256C74.252 14.432 75.692 16.192 78.044 16.192C79.436 16.192 80.492 15.776 81.372 14.64L80.428 13.904ZM75.596 11.584C75.756 10.32 76.668 9.472 78.044 9.472C79.42 9.472 80.252 10.32 80.3 11.584H75.596Z" fill="black"/>
</svg>
