<svg width="469" height="97" viewBox="0 0 469 97" fill="none" xmlns="http://www.w3.org/2000/svg">
<path d="M3.136 12H4.9V3.684H7.938V2.088H0.098V3.684H3.136V12ZM9.39247 12.056L9.07047 12.854C8.79047 13.554 8.56647 13.848 7.74047 13.848C7.44647 13.848 7.15247 13.778 6.88647 13.68L6.67647 15.192C7.09647 15.304 7.53047 15.36 7.96447 15.36C9.44847 15.36 10.0365 14.702 10.5265 13.442L13.7045 5.28H11.9545L10.2745 9.942H10.2465L8.37047 5.28H6.52247L9.39247 12.056ZM14.6922 15.192H16.3722V11.146H16.4142C16.7642 11.58 17.4362 12.168 18.6962 12.168C20.6142 12.168 21.9442 10.628 21.9442 8.64C21.9442 6.652 20.6982 5.112 18.6262 5.112C17.6882 5.112 16.8062 5.476 16.3162 6.288H16.2882V5.28H14.6922V15.192ZM20.2642 8.64C20.2642 9.69 19.5222 10.656 18.2902 10.656C17.0582 10.656 16.3162 9.69 16.3162 8.64C16.3162 7.59 17.0582 6.624 18.2902 6.624C19.5222 6.624 20.2642 7.59 20.2642 8.64ZM29.9786 9.228V8.766C29.9786 6.428 28.7046 5.112 26.8286 5.112C24.7986 5.112 23.1746 6.526 23.1746 8.64C23.1746 10.754 24.7986 12.168 26.8286 12.168C27.8926 12.168 28.8866 11.79 29.6706 10.824L28.4666 9.914C28.0466 10.432 27.5006 10.824 26.6606 10.824C25.7226 10.824 24.9666 10.222 24.8546 9.228H29.9786ZM24.8546 7.968C24.9806 7.002 25.5966 6.372 26.5906 6.372C27.6406 6.372 28.2846 6.988 28.2986 7.968H24.8546ZM31.5497 11.02C31.5497 11.622 32.0817 12.084 32.6697 12.084C33.2857 12.084 33.7897 11.594 33.7897 10.992C33.7897 10.39 33.2717 9.928 32.6697 9.928C32.0537 9.928 31.5497 10.418 31.5497 11.02ZM31.5497 6.274C31.5497 6.876 32.0817 7.338 32.6697 7.338C33.2857 7.338 33.7897 6.848 33.7897 6.246C33.7897 5.644 33.2717 5.182 32.6697 5.182C32.0537 5.182 31.5497 5.672 31.5497 6.274ZM39.9888 12H43.6848C46.0648 12 48.9348 10.432 48.9348 7.044C48.9348 3.684 46.4988 2.088 43.8948 2.088H39.9888V12ZM41.7528 10.404V3.684H43.3628C45.5188 3.684 47.0868 4.636 47.0868 7.044C47.0868 9.452 45.2808 10.404 43.0688 10.404H41.7528ZM56.9259 9.228V8.766C56.9259 6.428 55.6519 5.112 53.7759 5.112C51.7459 5.112 50.1219 6.526 50.1219 8.64C50.1219 10.754 51.7459 12.168 53.7759 12.168C54.8399 12.168 55.8339 11.79 56.6179 10.824L55.4139 9.914C54.9939 10.432 54.4479 10.824 53.6079 10.824C52.6699 10.824 51.9139 10.222 51.8019 9.228H56.9259ZM51.8019 7.968C51.9279 7.002 52.5439 6.372 53.5379 6.372C54.5879 6.372 55.2319 6.988 55.2459 7.968H51.8019ZM59.0989 12H60.7789V6.708H62.3329V5.28H60.7789V4.062C60.7789 3.32 60.9189 2.676 61.8569 2.676C62.0949 2.676 62.3189 2.718 62.5569 2.774L62.6689 1.346C62.3189 1.276 61.9689 1.248 61.6049 1.248C59.5189 1.248 59.0989 2.466 59.0989 4.328V5.28H57.7129V6.708H59.0989V12ZM67.6188 12H69.1308V8.136C69.1308 7.184 69.1308 5.112 66.2608 5.112C65.1968 5.112 64.1468 5.434 63.4048 6.19L64.2868 7.072C64.7348 6.652 65.3788 6.372 66.0788 6.372C66.9748 6.372 67.6188 6.806 67.6188 7.632V7.814H67.1988C65.5188 7.814 62.9708 7.968 62.9708 10.152C62.9708 11.482 64.1748 12.168 65.4208 12.168C66.3168 12.168 67.1008 11.832 67.5768 11.076H67.6188V12ZM67.5208 9.368C67.5208 10.306 66.9748 10.908 65.8268 10.908C65.2808 10.908 64.6508 10.642 64.6508 10.026C64.6508 9.06 66.2468 8.99 67.1708 8.99H67.5208V9.368ZM77.0703 5.28H75.3903V8.948C75.3903 9.844 74.9563 10.656 73.8503 10.656C72.6743 10.656 72.6183 9.424 72.6183 8.682V5.28H70.9383V9.522C70.9383 10.894 71.5823 12.168 73.3883 12.168C74.5083 12.168 75.1383 11.594 75.4463 10.922H75.4743V12H77.0703V5.28ZM79.0054 12H80.6854V1.416H79.0054V12ZM83.2161 6.708V9.788C83.2161 11.37 83.6361 12.168 85.4141 12.168C85.8061 12.168 86.3941 12.112 86.7441 11.944V10.53C86.5341 10.684 86.1281 10.74 85.8341 10.74C85.0921 10.74 84.8961 10.32 84.8961 9.648V6.708H86.7441V5.28H84.8961V3.334H83.2161V5.28H81.8301V6.708H83.2161Z" fill="black"/>
<path d="M9.904 37.672H8.56V44.488C8.56 46.312 7.888 48.04 5.632 48.04C3.376 48.04 2.704 46.312 2.704 44.488V37.672H1.36V44.68C1.36 47.144 2.512 49.288 5.632 49.288C8.752 49.288 9.904 47.144 9.904 44.68V37.672ZM12.3856 52.648H13.6336V47.672H13.6656C14.1296 48.52 15.2016 49.192 16.5456 49.192C18.6416 49.192 20.2896 47.496 20.2896 45.256C20.2896 42.984 18.7056 41.32 16.3536 41.32C15.2656 41.32 14.3536 41.8 13.6656 42.6H13.6336V41.512H12.3856V52.648ZM13.6336 45.256C13.6336 43.688 14.6736 42.472 16.2896 42.472C17.9056 42.472 18.9456 43.688 18.9456 45.256C18.9456 46.824 17.9056 48.04 16.2896 48.04C14.6736 48.04 13.6336 46.824 13.6336 45.256ZM22.3429 49H23.5909V36.904H22.3429V49ZM25.6426 45.256C25.6426 47.592 27.3386 49.192 29.6426 49.192C31.9466 49.192 33.6426 47.592 33.6426 45.256C33.6426 42.92 31.9466 41.32 29.6426 41.32C27.3386 41.32 25.6426 42.92 25.6426 45.256ZM26.9866 45.256C26.9866 43.688 28.0266 42.472 29.6426 42.472C31.2586 42.472 32.2986 43.688 32.2986 45.256C32.2986 46.824 31.2586 48.04 29.6426 48.04C28.0266 48.04 26.9866 46.824 26.9866 45.256ZM36.2626 43.288C36.8546 42.744 37.6866 42.472 38.4866 42.472C39.6546 42.472 40.3426 43.032 40.3426 44.12V44.344H39.8626C38.0226 44.344 35.1426 44.488 35.1426 46.968C35.1426 48.424 36.4066 49.192 37.9266 49.192C39.0626 49.192 39.8946 48.648 40.3906 47.88H40.4226C40.4226 48.2 40.4226 48.664 40.5026 49H41.7026C41.6386 48.616 41.5906 48.136 41.5906 47.704V44.488C41.5906 42.376 40.6626 41.32 38.4546 41.32C37.3666 41.32 36.2466 41.688 35.4786 42.472L36.2626 43.288ZM40.3426 45.4V45.88C40.3106 47.096 39.5746 48.136 38.1346 48.136C37.1906 48.136 36.4866 47.784 36.4866 46.84C36.4866 45.832 37.5106 45.4 39.0946 45.4H40.3426ZM50.0955 49H51.3435V36.904H50.0955V42.6H50.0635C49.3755 41.8 48.4635 41.32 47.3755 41.32C45.0235 41.32 43.4395 42.984 43.4395 45.256C43.4395 47.496 45.0875 49.192 47.1835 49.192C48.5275 49.192 49.5995 48.52 50.0635 47.672H50.0955V49ZM50.0955 45.256C50.0955 46.824 49.0555 48.04 47.4395 48.04C45.8235 48.04 44.7835 46.824 44.7835 45.256C44.7835 43.688 45.8235 42.472 47.4395 42.472C49.0555 42.472 50.0955 43.688 50.0955 45.256ZM58.3299 49H59.6739V43.912H64.9539V42.664H59.6739V38.92H65.3539V37.672H58.3299V49ZM67.1085 49H68.3565V41.512H67.1085V49ZM66.8205 38.584C66.8205 39.112 67.2045 39.496 67.7325 39.496C68.2605 39.496 68.6445 39.112 68.6445 38.584C68.6445 38.088 68.2445 37.672 67.7325 37.672C67.2205 37.672 66.8205 38.088 66.8205 38.584ZM70.9523 49H72.2003V36.904H70.9523V49ZM80.428 46.904C79.836 47.656 79.116 48.04 78.044 48.04C76.684 48.04 75.692 46.936 75.596 45.64H81.644V45.24C81.644 42.76 80.204 41.32 78.092 41.32C75.884 41.32 74.252 42.936 74.252 45.256C74.252 47.432 75.692 49.192 78.044 49.192C79.436 49.192 80.492 48.776 81.372 47.64L80.428 46.904ZM75.596 44.584C75.756 43.32 76.668 42.472 78.044 42.472C79.42 42.472 80.252 43.32 80.3 44.584H75.596Z" fill="#333333"/>
<rect x="0.5" y="61.5" width="112" height="35" rx="3.5" fill="white"/>
<path d="M26.512 73.16C25.552 71.912 24.048 71.384 22.512 71.384C19.152 71.384 16.752 74.008 16.752 77.336C16.752 80.776 19.264 83.288 22.512 83.288C24.32 83.288 25.792 82.664 26.8 81.304L25.792 80.456C24.992 81.48 23.888 82.04 22.512 82.04C19.968 82.04 18.192 79.96 18.192 77.336C18.192 74.856 19.984 72.632 22.512 72.632C23.6 72.632 24.672 73.096 25.344 74.008L26.512 73.16ZM28.4496 83H29.6976V79.352C29.6976 77.64 30.4016 76.472 32.0176 76.472C33.1856 76.472 33.7296 77.256 33.7296 78.504V83H34.9776V78.376C34.9776 76.568 34.0976 75.32 32.1296 75.32C30.9616 75.32 30.0656 75.96 29.7296 76.552H29.6976V70.904H28.4496V83ZM36.9083 79.256C36.9083 81.592 38.6043 83.192 40.9083 83.192C43.2123 83.192 44.9083 81.592 44.9083 79.256C44.9083 76.92 43.2123 75.32 40.9083 75.32C38.6043 75.32 36.9083 76.92 36.9083 79.256ZM38.2523 79.256C38.2523 77.688 39.2923 76.472 40.9083 76.472C42.5243 76.472 43.5643 77.688 43.5643 79.256C43.5643 80.824 42.5243 82.04 40.9083 82.04C39.2923 82.04 38.2523 80.824 38.2523 79.256ZM46.4083 79.256C46.4083 81.592 48.1043 83.192 50.4083 83.192C52.7123 83.192 54.4083 81.592 54.4083 79.256C54.4083 76.92 52.7123 75.32 50.4083 75.32C48.1043 75.32 46.4083 76.92 46.4083 79.256ZM47.7523 79.256C47.7523 77.688 48.7923 76.472 50.4083 76.472C52.0243 76.472 53.0643 77.688 53.0643 79.256C53.0643 80.824 52.0243 82.04 50.4083 82.04C48.7923 82.04 47.7523 80.824 47.7523 79.256ZM55.5083 81.8C56.2443 82.856 57.1562 83.192 58.4203 83.192C59.9083 83.192 61.4123 82.536 61.4123 80.84C61.4123 79.336 60.2923 78.856 58.9643 78.6C57.9723 78.408 57.0763 78.136 57.0763 77.512C57.0763 76.808 57.8603 76.472 58.5483 76.472C59.2843 76.472 59.8123 76.84 60.1323 77.368L61.1723 76.68C60.6603 75.72 59.6843 75.32 58.6283 75.32C57.2363 75.32 55.8283 76.072 55.8283 77.528C55.8283 79.08 57.0443 79.384 58.4683 79.704C59.2682 79.88 60.0683 80.088 60.0683 80.888C60.0683 81.704 59.2043 82.04 58.4203 82.04C57.5403 82.04 56.9963 81.64 56.5003 81.032L55.5083 81.8ZM68.8968 80.904C68.3048 81.656 67.5848 82.04 66.5128 82.04C65.1528 82.04 64.1608 80.936 64.0648 79.64H70.1128V79.24C70.1128 76.76 68.6728 75.32 66.5608 75.32C64.3528 75.32 62.7208 76.936 62.7208 79.256C62.7208 81.432 64.1608 83.192 66.5128 83.192C67.9048 83.192 68.9608 82.776 69.8408 81.64L68.8968 80.904ZM64.0648 78.584C64.2248 77.32 65.1368 76.472 66.5128 76.472C67.8888 76.472 68.7208 77.32 68.7688 78.584H64.0648ZM80.2085 75.512H78.3845V74.104C78.3845 72.808 78.4325 71.864 79.7285 71.864C80.0165 71.864 80.3045 71.928 80.5765 72.024L80.7525 70.904C80.5125 70.776 80.1125 70.712 79.7925 70.712C77.7765 70.712 77.1365 72.008 77.1365 73.832V75.512H75.5045V76.568H77.1365V83H78.3845V76.568H80.2085V75.512ZM81.3605 83H82.6085V75.512H81.3605V83ZM81.0725 72.584C81.0725 73.112 81.4565 73.496 81.9845 73.496C82.5125 73.496 82.8965 73.112 82.8965 72.584C82.8965 72.088 82.4965 71.672 81.9845 71.672C81.4725 71.672 81.0725 72.088 81.0725 72.584ZM85.2023 83H86.4503V70.904H85.2023V83ZM94.678 80.904C94.086 81.656 93.366 82.04 92.294 82.04C90.934 82.04 89.942 80.936 89.846 79.64H95.894V79.24C95.894 76.76 94.454 75.32 92.342 75.32C90.134 75.32 88.502 76.936 88.502 79.256C88.502 81.432 89.942 83.192 92.294 83.192C93.686 83.192 94.742 82.776 95.622 81.64L94.678 80.904ZM89.846 78.584C90.006 77.32 90.918 76.472 92.294 76.472C93.67 76.472 94.502 77.32 94.55 78.584H89.846Z" fill="#6C3078"/>
<rect x="0.5" y="61.5" width="112" height="35" rx="3.5" stroke="#9EA6B5"/>
<path d="M130.232 82.5H131.408V74.268H131.436L137.176 82.5H138.66V72.588H137.484V80.82H137.456L131.716 72.588H130.232V82.5ZM140.554 79.224C140.554 81.268 142.038 82.668 144.054 82.668C146.07 82.668 147.554 81.268 147.554 79.224C147.554 77.18 146.07 75.78 144.054 75.78C142.038 75.78 140.554 77.18 140.554 79.224ZM141.73 79.224C141.73 77.852 142.64 76.788 144.054 76.788C145.468 76.788 146.378 77.852 146.378 79.224C146.378 80.596 145.468 81.66 144.054 81.66C142.64 81.66 141.73 80.596 141.73 79.224ZM156.389 75.948H154.793V74.716C154.793 73.582 154.835 72.756 155.969 72.756C156.221 72.756 156.473 72.812 156.711 72.896L156.865 71.916C156.655 71.804 156.305 71.748 156.025 71.748C154.261 71.748 153.701 72.882 153.701 74.478V75.948H152.273V76.872H153.701V82.5H154.793V76.872H156.389V75.948ZM157.397 82.5H158.489V75.948H157.397V82.5ZM157.145 73.386C157.145 73.848 157.481 74.184 157.943 74.184C158.405 74.184 158.741 73.848 158.741 73.386C158.741 72.952 158.391 72.588 157.943 72.588C157.495 72.588 157.145 72.952 157.145 73.386ZM160.759 82.5H161.851V71.916H160.759V82.5ZM169.05 80.666C168.532 81.324 167.902 81.66 166.964 81.66C165.774 81.66 164.906 80.694 164.822 79.56H170.114V79.21C170.114 77.04 168.854 75.78 167.006 75.78C165.074 75.78 163.646 77.194 163.646 79.224C163.646 81.128 164.906 82.668 166.964 82.668C168.182 82.668 169.106 82.304 169.876 81.31L169.05 80.666ZM164.822 78.636C164.962 77.53 165.76 76.788 166.964 76.788C168.168 76.788 168.896 77.53 168.938 78.636H164.822ZM181.23 76.816C180.572 76.102 179.676 75.78 178.71 75.78C176.694 75.78 175.322 77.236 175.322 79.224C175.322 81.24 176.68 82.668 178.71 82.668C179.662 82.668 180.558 82.346 181.188 81.618L180.376 80.848C179.97 81.408 179.424 81.66 178.71 81.66C177.38 81.66 176.498 80.568 176.498 79.224C176.498 77.88 177.24 76.788 178.71 76.788C179.368 76.788 179.9 77.026 180.362 77.586L181.23 76.816ZM182.454 82.5H183.546V79.308C183.546 77.81 184.162 76.788 185.576 76.788C186.598 76.788 187.074 77.474 187.074 78.566V82.5H188.166V78.454C188.166 76.872 187.396 75.78 185.674 75.78C184.652 75.78 183.868 76.34 183.574 76.858H183.546V71.916H182.454V82.5ZM189.855 79.224C189.855 81.268 191.339 82.668 193.355 82.668C195.371 82.668 196.855 81.268 196.855 79.224C196.855 77.18 195.371 75.78 193.355 75.78C191.339 75.78 189.855 77.18 189.855 79.224ZM191.031 79.224C191.031 77.852 191.941 76.788 193.355 76.788C194.769 76.788 195.679 77.852 195.679 79.224C195.679 80.596 194.769 81.66 193.355 81.66C191.941 81.66 191.031 80.596 191.031 79.224ZM197.818 81.45C198.462 82.374 199.26 82.668 200.366 82.668C201.668 82.668 202.984 82.094 202.984 80.61C202.984 79.294 202.004 78.874 200.842 78.65C199.974 78.482 199.19 78.244 199.19 77.698C199.19 77.082 199.876 76.788 200.478 76.788C201.122 76.788 201.584 77.11 201.864 77.572L202.774 76.97C202.326 76.13 201.472 75.78 200.548 75.78C199.33 75.78 198.098 76.438 198.098 77.712C198.098 79.07 199.162 79.336 200.408 79.616C201.108 79.77 201.808 79.952 201.808 80.652C201.808 81.366 201.052 81.66 200.366 81.66C199.596 81.66 199.12 81.31 198.686 80.778L197.818 81.45ZM209.533 80.666C209.015 81.324 208.385 81.66 207.447 81.66C206.257 81.66 205.389 80.694 205.305 79.56H210.597V79.21C210.597 77.04 209.337 75.78 207.489 75.78C205.557 75.78 204.129 77.194 204.129 79.224C204.129 81.128 205.389 82.668 207.447 82.668C208.665 82.668 209.589 82.304 210.359 81.31L209.533 80.666ZM205.305 78.636C205.445 77.53 206.243 76.788 207.447 76.788C208.651 76.788 209.379 77.53 209.421 78.636H205.305ZM212.286 82.5H213.378V79.308C213.378 77.81 213.994 76.788 215.408 76.788C216.43 76.788 216.906 77.474 216.906 78.566V82.5H217.998V78.454C217.998 76.872 217.228 75.78 215.506 75.78C214.428 75.78 213.616 76.382 213.322 77.026H213.294C213.294 76.662 213.266 76.298 213.266 75.948H212.23C212.23 76.382 212.286 76.9 212.286 77.502V82.5Z" fill="#616C7F"/>
<path d="M255.136 12H256.9V3.684H259.938V2.088H252.098V3.684H255.136V12ZM261.392 12.056L261.07 12.854C260.79 13.554 260.566 13.848 259.74 13.848C259.446 13.848 259.152 13.778 258.886 13.68L258.676 15.192C259.096 15.304 259.53 15.36 259.964 15.36C261.448 15.36 262.036 14.702 262.526 13.442L265.704 5.28H263.954L262.274 9.942H262.246L260.37 5.28H258.522L261.392 12.056ZM266.692 15.192H268.372V11.146H268.414C268.764 11.58 269.436 12.168 270.696 12.168C272.614 12.168 273.944 10.628 273.944 8.64C273.944 6.652 272.698 5.112 270.626 5.112C269.688 5.112 268.806 5.476 268.316 6.288H268.288V5.28H266.692V15.192ZM272.264 8.64C272.264 9.69 271.522 10.656 270.29 10.656C269.058 10.656 268.316 9.69 268.316 8.64C268.316 7.59 269.058 6.624 270.29 6.624C271.522 6.624 272.264 7.59 272.264 8.64ZM281.979 9.228V8.766C281.979 6.428 280.705 5.112 278.829 5.112C276.799 5.112 275.175 6.526 275.175 8.64C275.175 10.754 276.799 12.168 278.829 12.168C279.893 12.168 280.887 11.79 281.671 10.824L280.467 9.914C280.047 10.432 279.501 10.824 278.661 10.824C277.723 10.824 276.967 10.222 276.855 9.228H281.979ZM276.855 7.968C276.981 7.002 277.597 6.372 278.591 6.372C279.641 6.372 280.285 6.988 280.299 7.968H276.855ZM283.55 11.02C283.55 11.622 284.082 12.084 284.67 12.084C285.286 12.084 285.79 11.594 285.79 10.992C285.79 10.39 285.272 9.928 284.67 9.928C284.054 9.928 283.55 10.418 283.55 11.02ZM283.55 6.274C283.55 6.876 284.082 7.338 284.67 7.338C285.286 7.338 285.79 6.848 285.79 6.246C285.79 5.644 285.272 5.182 284.67 5.182C284.054 5.182 283.55 5.672 283.55 6.274ZM298.135 2.858C297.365 2.13 296.329 1.836 295.293 1.836C293.459 1.836 291.639 2.788 291.639 4.832C291.639 8.374 296.343 7.128 296.343 9.298C296.343 10.208 295.419 10.656 294.607 10.656C293.823 10.656 293.081 10.278 292.647 9.62L291.317 10.908C292.129 11.874 293.333 12.252 294.565 12.252C296.511 12.252 298.191 11.216 298.191 9.088C298.191 5.56 293.487 6.694 293.487 4.706C293.487 3.796 294.299 3.432 295.111 3.432C295.797 3.432 296.469 3.684 296.847 4.216L298.135 2.858ZM306.342 9.228V8.766C306.342 6.428 305.068 5.112 303.192 5.112C301.162 5.112 299.538 6.526 299.538 8.64C299.538 10.754 301.162 12.168 303.192 12.168C304.256 12.168 305.25 11.79 306.034 10.824L304.83 9.914C304.41 10.432 303.864 10.824 303.024 10.824C302.086 10.824 301.33 10.222 301.218 9.228H306.342ZM301.218 7.968C301.344 7.002 301.96 6.372 302.954 6.372C304.004 6.372 304.648 6.988 304.662 7.968H301.218ZM307.941 12H309.621V1.416H307.941V12ZM318.018 9.228V8.766C318.018 6.428 316.744 5.112 314.868 5.112C312.838 5.112 311.214 6.526 311.214 8.64C311.214 10.754 312.838 12.168 314.868 12.168C315.932 12.168 316.926 11.79 317.71 10.824L316.506 9.914C316.086 10.432 315.54 10.824 314.7 10.824C313.762 10.824 313.006 10.222 312.894 9.228H318.018ZM312.894 7.968C313.02 7.002 313.636 6.372 314.63 6.372C315.68 6.372 316.324 6.988 316.338 7.968H312.894ZM325.343 6.134C324.699 5.42 323.761 5.112 322.907 5.112C320.877 5.112 319.253 6.526 319.253 8.64C319.253 10.754 320.877 12.168 322.907 12.168C323.495 12.168 324.643 11.916 325.329 11.23L324.209 10.026C323.901 10.432 323.425 10.656 322.907 10.656C321.675 10.656 320.933 9.69 320.933 8.64C320.933 7.59 321.675 6.624 322.907 6.624C323.355 6.624 323.789 6.89 324.181 7.296L325.343 6.134ZM326.945 6.708V9.788C326.945 11.37 327.365 12.168 329.143 12.168C329.535 12.168 330.123 12.112 330.473 11.944V10.53C330.263 10.684 329.857 10.74 329.563 10.74C328.821 10.74 328.625 10.32 328.625 9.648V6.708H330.473V5.28H328.625V3.334H326.945V5.28H325.559V6.708H326.945ZM338.252 9.228V8.766C338.252 6.428 336.978 5.112 335.102 5.112C333.072 5.112 331.448 6.526 331.448 8.64C331.448 10.754 333.072 12.168 335.102 12.168C336.166 12.168 337.16 11.79 337.944 10.824L336.74 9.914C336.32 10.432 335.774 10.824 334.934 10.824C333.996 10.824 333.24 10.222 333.128 9.228H338.252ZM333.128 7.968C333.254 7.002 333.87 6.372 334.864 6.372C335.914 6.372 336.558 6.988 336.572 7.968H333.128ZM345.143 12H346.739V1.416H345.059V6.134H345.017C344.667 5.7 343.995 5.112 342.735 5.112C340.817 5.112 339.487 6.652 339.487 8.64C339.487 10.628 340.733 12.168 342.805 12.168C343.743 12.168 344.625 11.804 345.115 10.992H345.143V12ZM341.167 8.64C341.167 7.59 341.909 6.624 343.141 6.624C344.373 6.624 345.115 7.59 345.115 8.64C345.115 9.69 344.373 10.656 343.141 10.656C341.909 10.656 341.167 9.69 341.167 8.64Z" fill="black"/>
<path d="M261.904 37.672H260.56V44.488C260.56 46.312 259.888 48.04 257.632 48.04C255.376 48.04 254.704 46.312 254.704 44.488V37.672H253.36V44.68C253.36 47.144 254.512 49.288 257.632 49.288C260.752 49.288 261.904 47.144 261.904 44.68V37.672ZM264.386 52.648H265.634V47.672H265.666C266.13 48.52 267.202 49.192 268.546 49.192C270.642 49.192 272.29 47.496 272.29 45.256C272.29 42.984 270.706 41.32 268.354 41.32C267.266 41.32 266.354 41.8 265.666 42.6H265.634V41.512H264.386V52.648ZM265.634 45.256C265.634 43.688 266.674 42.472 268.29 42.472C269.906 42.472 270.946 43.688 270.946 45.256C270.946 46.824 269.906 48.04 268.29 48.04C266.674 48.04 265.634 46.824 265.634 45.256ZM274.343 49H275.591V36.904H274.343V49ZM277.643 45.256C277.643 47.592 279.339 49.192 281.643 49.192C283.947 49.192 285.643 47.592 285.643 45.256C285.643 42.92 283.947 41.32 281.643 41.32C279.339 41.32 277.643 42.92 277.643 45.256ZM278.987 45.256C278.987 43.688 280.027 42.472 281.643 42.472C283.259 42.472 284.299 43.688 284.299 45.256C284.299 46.824 283.259 48.04 281.643 48.04C280.027 48.04 278.987 46.824 278.987 45.256ZM288.263 43.288C288.855 42.744 289.687 42.472 290.487 42.472C291.655 42.472 292.343 43.032 292.343 44.12V44.344H291.863C290.023 44.344 287.143 44.488 287.143 46.968C287.143 48.424 288.407 49.192 289.927 49.192C291.063 49.192 291.895 48.648 292.391 47.88H292.423C292.423 48.2 292.423 48.664 292.503 49H293.703C293.639 48.616 293.591 48.136 293.591 47.704V44.488C293.591 42.376 292.663 41.32 290.455 41.32C289.367 41.32 288.247 41.688 287.479 42.472L288.263 43.288ZM292.343 45.4V45.88C292.311 47.096 291.575 48.136 290.135 48.136C289.191 48.136 288.487 47.784 288.487 46.84C288.487 45.832 289.511 45.4 291.095 45.4H292.343ZM302.096 49H303.344V36.904H302.096V42.6H302.064C301.376 41.8 300.464 41.32 299.376 41.32C297.024 41.32 295.44 42.984 295.44 45.256C295.44 47.496 297.088 49.192 299.184 49.192C300.528 49.192 301.6 48.52 302.064 47.672H302.096V49ZM302.096 45.256C302.096 46.824 301.056 48.04 299.44 48.04C297.824 48.04 296.784 46.824 296.784 45.256C296.784 43.688 297.824 42.472 299.44 42.472C301.056 42.472 302.096 43.688 302.096 45.256ZM310.33 49H311.674V43.912H316.954V42.664H311.674V38.92H317.354V37.672H310.33V49ZM319.109 49H320.357V41.512H319.109V49ZM318.821 38.584C318.821 39.112 319.205 39.496 319.733 39.496C320.261 39.496 320.645 39.112 320.645 38.584C320.645 38.088 320.245 37.672 319.733 37.672C319.221 37.672 318.821 38.088 318.821 38.584ZM322.952 49H324.2V36.904H322.952V49ZM332.428 46.904C331.836 47.656 331.116 48.04 330.044 48.04C328.684 48.04 327.692 46.936 327.596 45.64H333.644V45.24C333.644 42.76 332.204 41.32 330.092 41.32C327.884 41.32 326.252 42.936 326.252 45.256C326.252 47.432 327.692 49.192 330.044 49.192C331.436 49.192 332.492 48.776 333.372 47.64L332.428 46.904ZM327.596 44.584C327.756 43.32 328.668 42.472 330.044 42.472C331.42 42.472 332.252 43.32 332.3 44.584H327.596Z" fill="#333333"/>
<rect x="252.5" y="61.5" width="112" height="35" rx="3.5" fill="white"/>
<path d="M278.512 73.16C277.552 71.912 276.048 71.384 274.512 71.384C271.152 71.384 268.752 74.008 268.752 77.336C268.752 80.776 271.264 83.288 274.512 83.288C276.32 83.288 277.792 82.664 278.8 81.304L277.792 80.456C276.992 81.48 275.888 82.04 274.512 82.04C271.968 82.04 270.192 79.96 270.192 77.336C270.192 74.856 271.984 72.632 274.512 72.632C275.6 72.632 276.672 73.096 277.344 74.008L278.512 73.16ZM280.45 83H281.698V79.352C281.698 77.64 282.402 76.472 284.018 76.472C285.186 76.472 285.73 77.256 285.73 78.504V83H286.978V78.376C286.978 76.568 286.098 75.32 284.13 75.32C282.962 75.32 282.066 75.96 281.73 76.552H281.698V70.904H280.45V83ZM288.908 79.256C288.908 81.592 290.604 83.192 292.908 83.192C295.212 83.192 296.908 81.592 296.908 79.256C296.908 76.92 295.212 75.32 292.908 75.32C290.604 75.32 288.908 76.92 288.908 79.256ZM290.252 79.256C290.252 77.688 291.292 76.472 292.908 76.472C294.524 76.472 295.564 77.688 295.564 79.256C295.564 80.824 294.524 82.04 292.908 82.04C291.292 82.04 290.252 80.824 290.252 79.256ZM298.408 79.256C298.408 81.592 300.104 83.192 302.408 83.192C304.712 83.192 306.408 81.592 306.408 79.256C306.408 76.92 304.712 75.32 302.408 75.32C300.104 75.32 298.408 76.92 298.408 79.256ZM299.752 79.256C299.752 77.688 300.792 76.472 302.408 76.472C304.024 76.472 305.064 77.688 305.064 79.256C305.064 80.824 304.024 82.04 302.408 82.04C300.792 82.04 299.752 80.824 299.752 79.256ZM307.508 81.8C308.244 82.856 309.156 83.192 310.42 83.192C311.908 83.192 313.412 82.536 313.412 80.84C313.412 79.336 312.292 78.856 310.964 78.6C309.972 78.408 309.076 78.136 309.076 77.512C309.076 76.808 309.86 76.472 310.548 76.472C311.284 76.472 311.812 76.84 312.132 77.368L313.172 76.68C312.66 75.72 311.684 75.32 310.628 75.32C309.236 75.32 307.828 76.072 307.828 77.528C307.828 79.08 309.044 79.384 310.468 79.704C311.268 79.88 312.068 80.088 312.068 80.888C312.068 81.704 311.204 82.04 310.42 82.04C309.54 82.04 308.996 81.64 308.5 81.032L307.508 81.8ZM320.897 80.904C320.305 81.656 319.585 82.04 318.513 82.04C317.153 82.04 316.161 80.936 316.065 79.64H322.113V79.24C322.113 76.76 320.673 75.32 318.561 75.32C316.353 75.32 314.721 76.936 314.721 79.256C314.721 81.432 316.161 83.192 318.513 83.192C319.905 83.192 320.961 82.776 321.841 81.64L320.897 80.904ZM316.065 78.584C316.225 77.32 317.137 76.472 318.513 76.472C319.889 76.472 320.721 77.32 320.769 78.584H316.065ZM332.209 75.512H330.385V74.104C330.385 72.808 330.433 71.864 331.729 71.864C332.016 71.864 332.305 71.928 332.577 72.024L332.753 70.904C332.513 70.776 332.113 70.712 331.793 70.712C329.777 70.712 329.137 72.008 329.137 73.832V75.512H327.505V76.568H329.137V83H330.385V76.568H332.209V75.512ZM333.361 83H334.609V75.512H333.361V83ZM333.073 72.584C333.073 73.112 333.457 73.496 333.985 73.496C334.513 73.496 334.897 73.112 334.897 72.584C334.897 72.088 334.497 71.672 333.985 71.672C333.473 71.672 333.073 72.088 333.073 72.584ZM337.202 83H338.45V70.904H337.202V83ZM346.678 80.904C346.086 81.656 345.366 82.04 344.294 82.04C342.934 82.04 341.942 80.936 341.846 79.64H347.894V79.24C347.894 76.76 346.454 75.32 344.342 75.32C342.134 75.32 340.502 76.936 340.502 79.256C340.502 81.432 341.942 83.192 344.294 83.192C345.686 83.192 346.742 82.776 347.622 81.64L346.678 80.904ZM341.846 78.584C342.006 77.32 342.918 76.472 344.294 76.472C345.67 76.472 346.502 77.32 346.55 78.584H341.846Z" fill="#6C3078"/>
<rect x="252.5" y="61.5" width="112" height="35" rx="3.5" stroke="#9EA6B5"/>
<path d="M382.232 82.5H383.408V78.048H388.028V76.956H383.408V73.68H388.378V72.588H382.232V82.5ZM389.913 82.5H391.005V75.948H389.913V82.5ZM389.661 73.386C389.661 73.848 389.997 74.184 390.459 74.184C390.921 74.184 391.257 73.848 391.257 73.386C391.257 72.952 390.907 72.588 390.459 72.588C390.011 72.588 389.661 72.952 389.661 73.386ZM393.277 82.5H394.369V71.916H393.277V82.5ZM401.568 80.666C401.05 81.324 400.42 81.66 399.482 81.66C398.292 81.66 397.424 80.694 397.34 79.56H402.632V79.21C402.632 77.04 401.372 75.78 399.524 75.78C397.592 75.78 396.164 77.194 396.164 79.224C396.164 81.128 397.424 82.668 399.482 82.668C400.7 82.668 401.624 82.304 402.394 81.31L401.568 80.666ZM397.34 78.636C397.48 77.53 398.278 76.788 399.482 76.788C400.686 76.788 401.414 77.53 401.456 78.636H397.34ZM405.231 80.904C404.769 80.904 404.391 81.282 404.391 81.744C404.391 82.206 404.797 82.584 405.231 82.584C405.665 82.584 406.071 82.206 406.071 81.744C406.071 81.282 405.693 80.904 405.231 80.904ZM408.162 85.692H409.254V81.338H409.282C409.688 82.08 410.626 82.668 411.802 82.668C413.636 82.668 415.078 81.184 415.078 79.224C415.078 77.236 413.692 75.78 411.634 75.78C410.682 75.78 409.884 76.2 409.282 76.9H409.254V75.948H408.162V85.692ZM409.254 79.224C409.254 77.852 410.164 76.788 411.578 76.788C412.992 76.788 413.902 77.852 413.902 79.224C413.902 80.596 412.992 81.66 411.578 81.66C410.164 81.66 409.254 80.596 409.254 79.224ZM422.222 82.5H423.314V71.916H422.222V76.9H422.194C421.592 76.2 420.794 75.78 419.842 75.78C417.784 75.78 416.398 77.236 416.398 79.224C416.398 81.184 417.84 82.668 419.674 82.668C420.85 82.668 421.788 82.08 422.194 81.338H422.222V82.5ZM422.222 79.224C422.222 80.596 421.312 81.66 419.898 81.66C418.484 81.66 417.574 80.596 417.574 79.224C417.574 77.852 418.484 76.788 419.898 76.788C421.312 76.788 422.222 77.852 422.222 79.224ZM425.895 82.5H426.987V76.872H428.583V75.948H426.987V74.716C426.987 73.582 427.029 72.756 428.163 72.756C428.415 72.756 428.667 72.812 428.905 72.896L429.059 71.916C428.849 71.804 428.499 71.748 428.219 71.748C426.455 71.748 425.895 72.882 425.895 74.478V75.948H424.467V76.872H425.895V82.5Z" fill="#616C7F"/>
<path d="M458.06 79L462.48 74.58C462.554 74.5113 462.613 74.4285 462.654 74.3365C462.695 74.2445 462.717 74.1452 462.719 74.0445C462.72 73.9438 462.702 73.8437 462.664 73.7504C462.627 73.657 462.57 73.5721 462.499 73.5009C462.428 73.4297 462.343 73.3736 462.25 73.3358C462.156 73.2981 462.056 73.2796 461.956 73.2814C461.855 73.2831 461.756 73.3052 461.664 73.3462C461.572 73.3872 461.489 73.4463 461.42 73.52L457 77.94L452.58 73.52C452.438 73.3875 452.25 73.3154 452.056 73.3188C451.861 73.3222 451.676 73.4009 451.538 73.5383C451.401 73.6757 451.322 73.8611 451.319 74.0554C451.316 74.2497 451.388 74.4378 451.52 74.58L455.94 79L451.52 83.42C451.38 83.5606 451.301 83.7512 451.301 83.95C451.301 84.1487 451.38 84.3393 451.52 84.48C451.661 84.6204 451.851 84.6993 452.05 84.6993C452.249 84.6993 452.439 84.6204 452.58 84.48L457 80.06L461.42 84.48C461.561 84.6204 461.751 84.6993 461.95 84.6993C462.149 84.6993 462.339 84.6204 462.48 84.48C462.621 84.3393 462.699 84.1487 462.699 83.95C462.699 83.7512 462.621 83.5606 462.48 83.42L458.06 79Z" fill="#6B778C"/>
</svg>
