<svg width="452" height="394" viewBox="0 0 452 394" fill="none" xmlns="http://www.w3.org/2000/svg">
<path d="M1.408 36H2.752V30.912H4.48L7.552 36H9.2L5.984 30.784C7.744 30.512 8.816 29.44 8.816 27.792C8.816 24.992 6.496 24.672 4.304 24.672H1.408V36ZM2.752 25.92H4.64C5.952 25.92 7.376 26.16 7.376 27.792C7.376 29.664 5.44 29.664 3.952 29.664H2.752V25.92ZM16.7093 33.904C16.1173 34.656 15.3973 35.04 14.3253 35.04C12.9653 35.04 11.9733 33.936 11.8773 32.64H17.9253V32.24C17.9253 29.76 16.4853 28.32 14.3733 28.32C12.1653 28.32 10.5333 29.936 10.5333 32.256C10.5333 34.432 11.9733 36.192 14.3253 36.192C15.7173 36.192 16.7733 35.776 17.6533 34.64L16.7093 33.904ZM11.8773 31.584C12.0373 30.32 12.9493 29.472 14.3253 29.472C15.7013 29.472 16.5333 30.32 16.5813 31.584H11.8773ZM27.3279 28.512H26.0799V29.84H26.0479C25.5839 28.992 24.5119 28.32 23.1679 28.32C21.0719 28.32 19.4239 30.016 19.4239 32.256C19.4239 34.528 21.0079 36.192 23.3599 36.192C24.4479 36.192 25.3599 35.712 26.0479 34.912H26.0799V39.648H27.3279V28.512ZM26.0799 32.256C26.0799 33.824 25.0399 35.04 23.4239 35.04C21.8079 35.04 20.7679 33.824 20.7679 32.256C20.7679 30.688 21.8079 29.472 23.4239 29.472C25.0399 29.472 26.0799 30.688 26.0799 32.256ZM36.1651 28.512H34.9171V32.16C34.9171 33.872 34.2131 35.04 32.5971 35.04C31.4291 35.04 30.8851 34.256 30.8851 33.008V28.512H29.6371V33.136C29.6371 34.944 30.5171 36.192 32.4851 36.192C33.7171 36.192 34.6451 35.504 34.9811 34.768H35.0131C35.0131 35.184 35.0451 35.6 35.0451 36H36.2291C36.2291 35.504 36.1651 34.912 36.1651 34.224V28.512ZM38.6398 36H39.8878V28.512H38.6398V36ZM38.3518 25.584C38.3518 26.112 38.7358 26.496 39.2638 26.496C39.7918 26.496 40.1758 26.112 40.1758 25.584C40.1758 25.088 39.7758 24.672 39.2638 24.672C38.7518 24.672 38.3518 25.088 38.3518 25.584ZM42.3715 36H43.6195V32.352C43.6195 30.64 44.2915 29.568 45.8115 29.568C46.0355 29.568 46.2755 29.6 46.4835 29.664L46.5635 28.4C46.3875 28.336 46.2115 28.32 46.0515 28.32C44.8195 28.32 43.8915 29.008 43.5555 29.744H43.5235C43.5235 29.328 43.4915 28.912 43.4915 28.512H42.3075C42.3075 29.008 42.3715 29.6 42.3715 30.288V36ZM53.4593 33.904C52.8673 34.656 52.1473 35.04 51.0753 35.04C49.7153 35.04 48.7233 33.936 48.6273 32.64H54.6753V32.24C54.6753 29.76 53.2353 28.32 51.1233 28.32C48.9153 28.32 47.2833 29.936 47.2833 32.256C47.2833 34.432 48.7233 36.192 51.0753 36.192C52.4673 36.192 53.5233 35.776 54.4033 34.64L53.4593 33.904ZM48.6273 31.584C48.7873 30.32 49.6993 29.472 51.0753 29.472C52.4513 29.472 53.2833 30.32 53.3313 31.584H48.6273ZM62.8299 36H64.0779V23.904H62.8299V29.6H62.7979C62.1099 28.8 61.1979 28.32 60.1099 28.32C57.7579 28.32 56.1739 29.984 56.1739 32.256C56.1739 34.496 57.8219 36.192 59.9179 36.192C61.2619 36.192 62.3339 35.52 62.7979 34.672H62.8299V36ZM62.8299 32.256C62.8299 33.824 61.7899 35.04 60.1739 35.04C58.5579 35.04 57.5179 33.824 57.5179 32.256C57.5179 30.688 58.5579 29.472 60.1739 29.472C61.7899 29.472 62.8299 30.688 62.8299 32.256Z" fill="black"/>
<g clip-path="url(#clip0_1_269)">
<path d="M133.408 18H134.752V12.912H140.032V11.664H134.752V7.92H140.432V6.672H133.408V18ZM142.187 18H143.435V10.512H142.187V18ZM141.899 7.584C141.899 8.112 142.283 8.496 142.811 8.496C143.339 8.496 143.723 8.112 143.723 7.584C143.723 7.088 143.323 6.672 142.811 6.672C142.299 6.672 141.899 7.088 141.899 7.584ZM151.662 15.904C151.07 16.656 150.35 17.04 149.278 17.04C147.918 17.04 146.926 15.936 146.83 14.64H152.878V14.24C152.878 11.76 151.438 10.32 149.326 10.32C147.118 10.32 145.486 11.936 145.486 14.256C145.486 16.432 146.926 18.192 149.278 18.192C150.67 18.192 151.726 17.776 152.606 16.64L151.662 15.904ZM146.83 13.584C146.99 12.32 147.902 11.472 149.278 11.472C150.654 11.472 151.486 12.32 151.534 13.584H146.83ZM154.921 18H156.169V5.904H154.921V18ZM164.877 18H166.125V5.904H164.877V11.6H164.845C164.157 10.8 163.245 10.32 162.157 10.32C159.805 10.32 158.221 11.984 158.221 14.256C158.221 16.496 159.869 18.192 161.965 18.192C163.309 18.192 164.381 17.52 164.845 16.672H164.877V18ZM164.877 14.256C164.877 15.824 163.837 17.04 162.221 17.04C160.605 17.04 159.565 15.824 159.565 14.256C159.565 12.688 160.605 11.472 162.221 11.472C163.837 11.472 164.877 12.688 164.877 14.256ZM173.111 18H179.639V16.752H174.455V6.672H173.111V18ZM181.575 12.288C182.167 11.744 182.999 11.472 183.799 11.472C184.967 11.472 185.655 12.032 185.655 13.12V13.344H185.175C183.335 13.344 180.455 13.488 180.455 15.968C180.455 17.424 181.719 18.192 183.239 18.192C184.375 18.192 185.207 17.648 185.703 16.88H185.735C185.735 17.2 185.735 17.664 185.815 18H187.015C186.951 17.616 186.903 17.136 186.903 16.704V13.488C186.903 11.376 185.975 10.32 183.767 10.32C182.679 10.32 181.559 10.688 180.791 11.472L181.575 12.288ZM185.655 14.4V14.88C185.623 16.096 184.887 17.136 183.447 17.136C182.503 17.136 181.799 16.784 181.799 15.84C181.799 14.832 182.823 14.4 184.407 14.4H185.655ZM189.12 18H190.368V16.672H190.4C190.864 17.52 191.936 18.192 193.28 18.192C195.376 18.192 197.024 16.496 197.024 14.256C197.024 11.984 195.44 10.32 193.088 10.32C192 10.32 191.088 10.8 190.4 11.6H190.368V5.904H189.12V18ZM190.368 14.256C190.368 12.688 191.408 11.472 193.024 11.472C194.64 11.472 195.68 12.688 195.68 14.256C195.68 15.824 194.64 17.04 193.024 17.04C191.408 17.04 190.368 15.824 190.368 14.256ZM204.709 15.904C204.117 16.656 203.397 17.04 202.325 17.04C200.965 17.04 199.973 15.936 199.877 14.64H205.925V14.24C205.925 11.76 204.485 10.32 202.373 10.32C200.165 10.32 198.533 11.936 198.533 14.256C198.533 16.432 199.973 18.192 202.325 18.192C203.717 18.192 204.773 17.776 205.653 16.64L204.709 15.904ZM199.877 13.584C200.037 12.32 200.949 11.472 202.325 11.472C203.701 11.472 204.533 12.32 204.581 13.584H199.877ZM207.968 18H209.216V5.904H207.968V18Z" fill="black"/>
<path opacity="0.8" d="M219.384 4.672H218.04V6.944L215.864 6.192L215.448 7.472L217.64 8.224L216.264 10.032L217.336 10.848L218.68 9.008L220.056 10.896L221.16 10.096L219.784 8.224L221.96 7.52L221.544 6.24L219.384 6.944V4.672Z" fill="#DB3259"/>
</g>
<g clip-path="url(#clip1_1_269)">
<rect x="132" y="28" width="320" height="36" rx="4" fill="white"/>
<path d="M155.333 46.6667H144.667C144.49 46.6667 144.32 46.5964 144.195 46.4714C144.07 46.3464 144 46.1768 144 46C144 45.8232 144.07 45.6536 144.195 45.5286C144.32 45.4036 144.49 45.3333 144.667 45.3333H155.333C155.51 45.3333 155.68 45.4036 155.805 45.5286C155.93 45.6536 156 45.8232 156 46C156 46.1768 155.93 46.3464 155.805 46.4714C155.68 46.5964 155.51 46.6667 155.333 46.6667Z" fill="#6B778C"/>
<path opacity="0.5" d="M180.096 50H181.616L182.784 47.216H188.448L189.6 50H191.168L186.352 38.672H185.088L180.096 50ZM187.936 45.968H183.312L185.664 40.4H185.696L187.936 45.968ZM201.17 38.672H199.826V45.488C199.826 47.312 199.154 49.04 196.898 49.04C194.642 49.04 193.97 47.312 193.97 45.488V38.672H192.626V45.68C192.626 48.144 193.778 50.288 196.898 50.288C200.018 50.288 201.17 48.144 201.17 45.68V38.672ZM203.731 50H208.083C210.307 50 213.635 48.512 213.635 44.336C213.635 40.16 210.307 38.672 208.083 38.672H203.731V50ZM205.075 39.92H207.635C210.227 39.92 212.195 41.232 212.195 44.336C212.195 47.44 210.227 48.752 207.635 48.752H205.075V39.92Z" fill="#9EA6B5"/>
<path opacity="0.5" d="M224.408 50H225.752V44.912H228.024C229.624 44.912 231.736 44.256 231.736 41.776C231.736 39.408 229.848 38.672 227.768 38.672H224.408V50ZM225.752 39.92H228.024C229.368 39.92 230.296 40.528 230.296 41.792C230.296 43.056 229.368 43.664 228.024 43.664H225.752V39.92ZM233.78 50H235.028V37.904H233.78V50ZM238.2 44.288C238.792 43.744 239.624 43.472 240.424 43.472C241.592 43.472 242.28 44.032 242.28 45.12V45.344H241.8C239.96 45.344 237.08 45.488 237.08 47.968C237.08 49.424 238.344 50.192 239.864 50.192C241 50.192 241.832 49.648 242.328 48.88H242.36C242.36 49.2 242.36 49.664 242.44 50H243.64C243.576 49.616 243.528 49.136 243.528 48.704V45.488C243.528 43.376 242.6 42.32 240.392 42.32C239.304 42.32 238.184 42.688 237.416 43.472L238.2 44.288ZM242.28 46.4V46.88C242.248 48.096 241.512 49.136 240.072 49.136C239.128 49.136 238.424 48.784 238.424 47.84C238.424 46.832 239.448 46.4 241.032 46.4H242.28ZM252.129 43.504C251.377 42.688 250.353 42.32 249.249 42.32C246.945 42.32 245.377 43.984 245.377 46.256C245.377 48.56 246.929 50.192 249.249 50.192C250.337 50.192 251.361 49.824 252.081 48.992L251.153 48.112C250.689 48.752 250.065 49.04 249.249 49.04C247.729 49.04 246.721 47.792 246.721 46.256C246.721 44.72 247.569 43.472 249.249 43.472C250.001 43.472 250.609 43.744 251.137 44.384L252.129 43.504ZM259.272 47.904C258.68 48.656 257.96 49.04 256.888 49.04C255.528 49.04 254.536 47.936 254.44 46.64H260.488V46.24C260.488 43.76 259.048 42.32 256.936 42.32C254.728 42.32 253.096 43.936 253.096 46.256C253.096 48.432 254.536 50.192 256.888 50.192C258.28 50.192 259.336 49.776 260.216 48.64L259.272 47.904ZM254.44 45.584C254.6 44.32 255.512 43.472 256.888 43.472C258.264 43.472 259.096 44.32 259.144 45.584H254.44ZM262.418 50H263.666V46.352C263.666 44.64 264.37 43.472 265.986 43.472C267.154 43.472 267.698 44.256 267.698 45.504V50H268.946V45.376C268.946 43.568 268.066 42.32 266.098 42.32C264.93 42.32 264.034 42.96 263.698 43.552H263.666V37.904H262.418V50ZM270.877 46.256C270.877 48.592 272.573 50.192 274.877 50.192C277.181 50.192 278.877 48.592 278.877 46.256C278.877 43.92 277.181 42.32 274.877 42.32C272.573 42.32 270.877 43.92 270.877 46.256ZM272.221 46.256C272.221 44.688 273.261 43.472 274.877 43.472C276.493 43.472 277.533 44.688 277.533 46.256C277.533 47.824 276.493 49.04 274.877 49.04C273.261 49.04 272.221 47.824 272.221 46.256ZM280.921 50H282.169V37.904H280.921V50ZM290.877 50H292.125V37.904H290.877V43.6H290.845C290.157 42.8 289.245 42.32 288.157 42.32C285.805 42.32 284.221 43.984 284.221 46.256C284.221 48.496 285.869 50.192 287.965 50.192C289.309 50.192 290.381 49.52 290.845 48.672H290.877V50ZM290.877 46.256C290.877 47.824 289.837 49.04 288.221 49.04C286.605 49.04 285.565 47.824 285.565 46.256C285.565 44.688 286.605 43.472 288.221 43.472C289.837 43.472 290.877 44.688 290.877 46.256ZM300.178 47.904C299.586 48.656 298.866 49.04 297.794 49.04C296.434 49.04 295.442 47.936 295.346 46.64H301.394V46.24C301.394 43.76 299.954 42.32 297.842 42.32C295.634 42.32 294.002 43.936 294.002 46.256C294.002 48.432 295.442 50.192 297.794 50.192C299.186 50.192 300.242 49.776 301.122 48.64L300.178 47.904ZM295.346 45.584C295.506 44.32 296.418 43.472 297.794 43.472C299.17 43.472 300.002 44.32 300.05 45.584H295.346ZM303.325 50H304.573V46.352C304.573 44.64 305.245 43.568 306.765 43.568C306.989 43.568 307.229 43.6 307.437 43.664L307.517 42.4C307.341 42.336 307.165 42.32 307.005 42.32C305.773 42.32 304.845 43.008 304.509 43.744H304.477C304.477 43.328 304.445 42.912 304.445 42.512H303.261C303.261 43.008 303.325 43.6 303.325 44.288V50Z" fill="#9EA6B5"/>
<path d="M434.499 45.5V41.3333C434.499 41.2007 434.446 41.0736 434.353 40.9798C434.259 40.886 434.132 40.8333 433.999 40.8333C433.866 40.8333 433.739 40.886 433.645 40.9798C433.552 41.0736 433.499 41.2007 433.499 41.3333V45.5H429.332C429.2 45.5 429.073 45.5527 428.979 45.6465C428.885 45.7402 428.832 45.8674 428.832 46C428.832 46.1326 428.885 46.2598 428.979 46.3536C429.073 46.4473 429.2 46.5 429.332 46.5H433.499V50.6667C433.501 50.7987 433.554 50.9249 433.647 51.0183C433.741 51.1117 433.867 51.165 433.999 51.1667C434.132 51.1667 434.259 51.114 434.353 51.0202C434.446 50.9265 434.499 50.7993 434.499 50.6667V46.5H438.666C438.798 46.5 438.925 46.4473 439.019 46.3536C439.113 46.2598 439.166 46.1326 439.166 46C439.164 45.8679 439.111 45.7418 439.017 45.6484C438.924 45.555 438.798 45.5017 438.666 45.5H434.499Z" fill="#6B778C"/>
</g>
<rect x="132.5" y="28.5" width="319" height="35" rx="3.5" stroke="#9EA6B5"/>
<path d="M1.408 108H2.752V98.592H2.784L9.344 108H11.04V96.672H9.696V106.08H9.664L3.104 96.672H1.408V108ZM13.2051 104.256C13.2051 106.592 14.9011 108.192 17.2051 108.192C19.5091 108.192 21.2051 106.592 21.2051 104.256C21.2051 101.92 19.5091 100.32 17.2051 100.32C14.9011 100.32 13.2051 101.92 13.2051 104.256ZM14.5491 104.256C14.5491 102.688 15.5891 101.472 17.2051 101.472C18.8211 101.472 19.8611 102.688 19.8611 104.256C19.8611 105.824 18.8211 107.04 17.2051 107.04C15.5891 107.04 14.5491 105.824 14.5491 104.256ZM27.2331 100.512H25.0251V98.384H23.7771V100.512H22.1451V101.568H23.7771V105.68C23.7771 107.232 24.0651 108.192 25.8411 108.192C26.3051 108.192 26.8651 108.112 27.2971 107.92L27.2491 106.784C26.9131 106.96 26.5131 107.04 26.1451 107.04C25.0411 107.04 25.0251 106.272 25.0251 105.312V101.568H27.2331V100.512ZM33.4393 108H34.7833V102.912H36.5113L39.5833 108H41.2313L38.0153 102.784C39.7753 102.512 40.8472 101.44 40.8472 99.792C40.8472 96.992 38.5273 96.672 36.3353 96.672H33.4393V108ZM34.7833 97.92H36.6713C37.9833 97.92 39.4073 98.16 39.4073 99.792C39.4073 101.664 37.4713 101.664 35.9833 101.664H34.7833V97.92ZM48.7405 105.904C48.1485 106.656 47.4285 107.04 46.3565 107.04C44.9965 107.04 44.0045 105.936 43.9085 104.64H49.9565V104.24C49.9565 101.76 48.5165 100.32 46.4045 100.32C44.1965 100.32 42.5645 101.936 42.5645 104.256C42.5645 106.432 44.0045 108.192 46.3565 108.192C47.7485 108.192 48.8045 107.776 49.6845 106.64L48.7405 105.904ZM43.9085 103.584C44.0685 102.32 44.9805 101.472 46.3565 101.472C47.7325 101.472 48.5645 102.32 48.6125 103.584H43.9085ZM59.3591 100.512H58.1111V101.84H58.0791C57.6151 100.992 56.5431 100.32 55.1991 100.32C53.1031 100.32 51.4551 102.016 51.4551 104.256C51.4551 106.528 53.0391 108.192 55.3911 108.192C56.4791 108.192 57.3911 107.712 58.0791 106.912H58.1111V111.648H59.3591V100.512ZM58.1111 104.256C58.1111 105.824 57.0711 107.04 55.4551 107.04C53.8391 107.04 52.7991 105.824 52.7991 104.256C52.7991 102.688 53.8391 101.472 55.4551 101.472C57.0711 101.472 58.1111 102.688 58.1111 104.256ZM68.1964 100.512H66.9484V104.16C66.9484 105.872 66.2444 107.04 64.6284 107.04C63.4604 107.04 62.9164 106.256 62.9164 105.008V100.512H61.6684V105.136C61.6684 106.944 62.5484 108.192 64.5164 108.192C65.7484 108.192 66.6764 107.504 67.0124 106.768H67.0444C67.0444 107.184 67.0764 107.6 67.0764 108H68.2604C68.2604 107.504 68.1964 106.912 68.1964 106.224V100.512ZM70.671 108H71.919V100.512H70.671V108ZM70.383 97.584C70.383 98.112 70.767 98.496 71.295 98.496C71.823 98.496 72.207 98.112 72.207 97.584C72.207 97.088 71.807 96.672 71.295 96.672C70.783 96.672 70.383 97.088 70.383 97.584ZM74.4028 108H75.6508V104.352C75.6508 102.64 76.3228 101.568 77.8428 101.568C78.0668 101.568 78.3068 101.6 78.5148 101.664L78.5948 100.4C78.4188 100.336 78.2428 100.32 78.0828 100.32C76.8508 100.32 75.9228 101.008 75.5868 101.744H75.5548C75.5548 101.328 75.5228 100.912 75.5228 100.512H74.3388C74.3388 101.008 74.4028 101.6 74.4028 102.288V108ZM85.4905 105.904C84.8985 106.656 84.1785 107.04 83.1065 107.04C81.7465 107.04 80.7545 105.936 80.6585 104.64H86.7065V104.24C86.7065 101.76 85.2665 100.32 83.1545 100.32C80.9465 100.32 79.3145 101.936 79.3145 104.256C79.3145 106.432 80.7545 108.192 83.1065 108.192C84.4985 108.192 85.5545 107.776 86.4345 106.64L85.4905 105.904ZM80.6585 103.584C80.8185 102.32 81.7305 101.472 83.1065 101.472C84.4825 101.472 85.3145 102.32 85.3625 103.584H80.6585ZM94.8611 108H96.1091V95.904H94.8611V101.6H94.8291C94.1411 100.8 93.2291 100.32 92.1411 100.32C89.7891 100.32 88.2051 101.984 88.2051 104.256C88.2051 106.496 89.8531 108.192 91.9491 108.192C93.2931 108.192 94.3651 107.52 94.8291 106.672H94.8611V108ZM94.8611 104.256C94.8611 105.824 93.8211 107.04 92.2051 107.04C90.5891 107.04 89.5491 105.824 89.5491 104.256C89.5491 102.688 90.5891 101.472 92.2051 101.472C93.8211 101.472 94.8611 102.688 94.8611 104.256Z" fill="black"/>
<g clip-path="url(#clip2_1_269)">
<path d="M133.408 90H134.752V84.912H140.032V83.664H134.752V79.92H140.432V78.672H133.408V90ZM142.187 90H143.435V82.512H142.187V90ZM141.899 79.584C141.899 80.112 142.283 80.496 142.811 80.496C143.339 80.496 143.723 80.112 143.723 79.584C143.723 79.088 143.323 78.672 142.811 78.672C142.299 78.672 141.899 79.088 141.899 79.584ZM151.662 87.904C151.07 88.656 150.35 89.04 149.278 89.04C147.918 89.04 146.926 87.936 146.83 86.64H152.878V86.24C152.878 83.76 151.438 82.32 149.326 82.32C147.118 82.32 145.486 83.936 145.486 86.256C145.486 88.432 146.926 90.192 149.278 90.192C150.67 90.192 151.726 89.776 152.606 88.64L151.662 87.904ZM146.83 85.584C146.99 84.32 147.902 83.472 149.278 83.472C150.654 83.472 151.486 84.32 151.534 85.584H146.83ZM154.921 90H156.169V77.904H154.921V90ZM164.877 90H166.125V77.904H164.877V83.6H164.845C164.157 82.8 163.245 82.32 162.157 82.32C159.805 82.32 158.221 83.984 158.221 86.256C158.221 88.496 159.869 90.192 161.965 90.192C163.309 90.192 164.381 89.52 164.845 88.672H164.877V90ZM164.877 86.256C164.877 87.824 163.837 89.04 162.221 89.04C160.605 89.04 159.565 87.824 159.565 86.256C159.565 84.688 160.605 83.472 162.221 83.472C163.837 83.472 164.877 84.688 164.877 86.256ZM173.111 90H179.639V88.752H174.455V78.672H173.111V90ZM181.575 84.288C182.167 83.744 182.999 83.472 183.799 83.472C184.967 83.472 185.655 84.032 185.655 85.12V85.344H185.175C183.335 85.344 180.455 85.488 180.455 87.968C180.455 89.424 181.719 90.192 183.239 90.192C184.375 90.192 185.207 89.648 185.703 88.88H185.735C185.735 89.2 185.735 89.664 185.815 90H187.015C186.951 89.616 186.903 89.136 186.903 88.704V85.488C186.903 83.376 185.975 82.32 183.767 82.32C182.679 82.32 181.559 82.688 180.791 83.472L181.575 84.288ZM185.655 86.4V86.88C185.623 88.096 184.887 89.136 183.447 89.136C182.503 89.136 181.799 88.784 181.799 87.84C181.799 86.832 182.823 86.4 184.407 86.4H185.655ZM189.12 90H190.368V88.672H190.4C190.864 89.52 191.936 90.192 193.28 90.192C195.376 90.192 197.024 88.496 197.024 86.256C197.024 83.984 195.44 82.32 193.088 82.32C192 82.32 191.088 82.8 190.4 83.6H190.368V77.904H189.12V90ZM190.368 86.256C190.368 84.688 191.408 83.472 193.024 83.472C194.64 83.472 195.68 84.688 195.68 86.256C195.68 87.824 194.64 89.04 193.024 89.04C191.408 89.04 190.368 87.824 190.368 86.256ZM204.709 87.904C204.117 88.656 203.397 89.04 202.325 89.04C200.965 89.04 199.973 87.936 199.877 86.64H205.925V86.24C205.925 83.76 204.485 82.32 202.373 82.32C200.165 82.32 198.533 83.936 198.533 86.256C198.533 88.432 199.973 90.192 202.325 90.192C203.717 90.192 204.773 89.776 205.653 88.64L204.709 87.904ZM199.877 85.584C200.037 84.32 200.949 83.472 202.325 83.472C203.701 83.472 204.533 84.32 204.581 85.584H199.877ZM207.968 90H209.216V77.904H207.968V90Z" fill="black"/>
</g>
<g clip-path="url(#clip3_1_269)">
<rect x="132" y="100" width="320" height="36" rx="4" fill="white"/>
<path d="M155.333 118.667H144.667C144.49 118.667 144.32 118.596 144.195 118.471C144.07 118.346 144 118.177 144 118C144 117.823 144.07 117.654 144.195 117.529C144.32 117.404 144.49 117.333 144.667 117.333H155.333C155.51 117.333 155.68 117.404 155.805 117.529C155.93 117.654 156 117.823 156 118C156 118.177 155.93 118.346 155.805 118.471C155.68 118.596 155.51 118.667 155.333 118.667Z" fill="#6B778C"/>
<path opacity="0.5" d="M180.096 122H181.616L182.784 119.216H188.448L189.6 122H191.168L186.352 110.672H185.088L180.096 122ZM187.936 117.968H183.312L185.664 112.4H185.696L187.936 117.968ZM201.17 110.672H199.826V117.488C199.826 119.312 199.154 121.04 196.898 121.04C194.642 121.04 193.97 119.312 193.97 117.488V110.672H192.626V117.68C192.626 120.144 193.778 122.288 196.898 122.288C200.018 122.288 201.17 120.144 201.17 117.68V110.672ZM203.731 122H208.083C210.307 122 213.635 120.512 213.635 116.336C213.635 112.16 210.307 110.672 208.083 110.672H203.731V122ZM205.075 111.92H207.635C210.227 111.92 212.195 113.232 212.195 116.336C212.195 119.44 210.227 120.752 207.635 120.752H205.075V111.92Z" fill="#9EA6B5"/>
<path opacity="0.5" d="M224.408 122H225.752V116.912H228.024C229.624 116.912 231.736 116.256 231.736 113.776C231.736 111.408 229.848 110.672 227.768 110.672H224.408V122ZM225.752 111.92H228.024C229.368 111.92 230.296 112.528 230.296 113.792C230.296 115.056 229.368 115.664 228.024 115.664H225.752V111.92ZM233.78 122H235.028V109.904H233.78V122ZM238.2 116.288C238.792 115.744 239.624 115.472 240.424 115.472C241.592 115.472 242.28 116.032 242.28 117.12V117.344H241.8C239.96 117.344 237.08 117.488 237.08 119.968C237.08 121.424 238.344 122.192 239.864 122.192C241 122.192 241.832 121.648 242.328 120.88H242.36C242.36 121.2 242.36 121.664 242.44 122H243.64C243.576 121.616 243.528 121.136 243.528 120.704V117.488C243.528 115.376 242.6 114.32 240.392 114.32C239.304 114.32 238.184 114.688 237.416 115.472L238.2 116.288ZM242.28 118.4V118.88C242.248 120.096 241.512 121.136 240.072 121.136C239.128 121.136 238.424 120.784 238.424 119.84C238.424 118.832 239.448 118.4 241.032 118.4H242.28ZM252.129 115.504C251.377 114.688 250.353 114.32 249.249 114.32C246.945 114.32 245.377 115.984 245.377 118.256C245.377 120.56 246.929 122.192 249.249 122.192C250.337 122.192 251.361 121.824 252.081 120.992L251.153 120.112C250.689 120.752 250.065 121.04 249.249 121.04C247.729 121.04 246.721 119.792 246.721 118.256C246.721 116.72 247.569 115.472 249.249 115.472C250.001 115.472 250.609 115.744 251.137 116.384L252.129 115.504ZM259.272 119.904C258.68 120.656 257.96 121.04 256.888 121.04C255.528 121.04 254.536 119.936 254.44 118.64H260.488V118.24C260.488 115.76 259.048 114.32 256.936 114.32C254.728 114.32 253.096 115.936 253.096 118.256C253.096 120.432 254.536 122.192 256.888 122.192C258.28 122.192 259.336 121.776 260.216 120.64L259.272 119.904ZM254.44 117.584C254.6 116.32 255.512 115.472 256.888 115.472C258.264 115.472 259.096 116.32 259.144 117.584H254.44ZM262.418 122H263.666V118.352C263.666 116.64 264.37 115.472 265.986 115.472C267.154 115.472 267.698 116.256 267.698 117.504V122H268.946V117.376C268.946 115.568 268.066 114.32 266.098 114.32C264.93 114.32 264.034 114.96 263.698 115.552H263.666V109.904H262.418V122ZM270.877 118.256C270.877 120.592 272.573 122.192 274.877 122.192C277.181 122.192 278.877 120.592 278.877 118.256C278.877 115.92 277.181 114.32 274.877 114.32C272.573 114.32 270.877 115.92 270.877 118.256ZM272.221 118.256C272.221 116.688 273.261 115.472 274.877 115.472C276.493 115.472 277.533 116.688 277.533 118.256C277.533 119.824 276.493 121.04 274.877 121.04C273.261 121.04 272.221 119.824 272.221 118.256ZM280.921 122H282.169V109.904H280.921V122ZM290.877 122H292.125V109.904H290.877V115.6H290.845C290.157 114.8 289.245 114.32 288.157 114.32C285.805 114.32 284.221 115.984 284.221 118.256C284.221 120.496 285.869 122.192 287.965 122.192C289.309 122.192 290.381 121.52 290.845 120.672H290.877V122ZM290.877 118.256C290.877 119.824 289.837 121.04 288.221 121.04C286.605 121.04 285.565 119.824 285.565 118.256C285.565 116.688 286.605 115.472 288.221 115.472C289.837 115.472 290.877 116.688 290.877 118.256ZM300.178 119.904C299.586 120.656 298.866 121.04 297.794 121.04C296.434 121.04 295.442 119.936 295.346 118.64H301.394V118.24C301.394 115.76 299.954 114.32 297.842 114.32C295.634 114.32 294.002 115.936 294.002 118.256C294.002 120.432 295.442 122.192 297.794 122.192C299.186 122.192 300.242 121.776 301.122 120.64L300.178 119.904ZM295.346 117.584C295.506 116.32 296.418 115.472 297.794 115.472C299.17 115.472 300.002 116.32 300.05 117.584H295.346ZM303.325 122H304.573V118.352C304.573 116.64 305.245 115.568 306.765 115.568C306.989 115.568 307.229 115.6 307.437 115.664L307.517 114.4C307.341 114.336 307.165 114.32 307.005 114.32C305.773 114.32 304.845 115.008 304.509 115.744H304.477C304.477 115.328 304.445 114.912 304.445 114.512H303.261C303.261 115.008 303.325 115.6 303.325 116.288V122Z" fill="#9EA6B5"/>
<path d="M434.499 117.5V113.333C434.499 113.201 434.446 113.074 434.353 112.98C434.259 112.886 434.132 112.833 433.999 112.833C433.866 112.833 433.739 112.886 433.645 112.98C433.552 113.074 433.499 113.201 433.499 113.333V117.5H429.332C429.2 117.5 429.073 117.553 428.979 117.646C428.885 117.74 428.832 117.867 428.832 118C428.832 118.133 428.885 118.26 428.979 118.354C429.073 118.447 429.2 118.5 429.332 118.5H433.499V122.667C433.501 122.799 433.554 122.925 433.647 123.018C433.741 123.112 433.867 123.165 433.999 123.167C434.132 123.167 434.259 123.114 434.353 123.02C434.446 122.926 434.499 122.799 434.499 122.667V118.5H438.666C438.798 118.5 438.925 118.447 439.019 118.354C439.113 118.26 439.166 118.133 439.166 118C439.164 117.868 439.111 117.742 439.017 117.648C438.924 117.555 438.798 117.502 438.666 117.5H434.499Z" fill="#6B778C"/>
</g>
<rect x="132.5" y="100.5" width="319" height="35" rx="3.5" stroke="#9EA6B5"/>
<path d="M1.408 178.5H2.752V173.412H4.48L7.552 178.5H9.2L5.984 173.284C7.744 173.012 8.816 171.94 8.816 170.292C8.816 167.492 6.496 167.172 4.304 167.172H1.408V178.5ZM2.752 168.42H4.64C5.952 168.42 7.376 168.66 7.376 170.292C7.376 172.164 5.44 172.164 3.952 172.164H2.752V168.42ZM16.7093 176.404C16.1173 177.156 15.3973 177.54 14.3253 177.54C12.9653 177.54 11.9733 176.436 11.8773 175.14H17.9253V174.74C17.9253 172.26 16.4853 170.82 14.3733 170.82C12.1653 170.82 10.5333 172.436 10.5333 174.756C10.5333 176.932 11.9733 178.692 14.3253 178.692C15.7173 178.692 16.7733 178.276 17.6533 177.14L16.7093 176.404ZM11.8773 174.084C12.0373 172.82 12.9493 171.972 14.3253 171.972C15.7013 171.972 16.5333 172.82 16.5813 174.084H11.8773ZM27.3279 171.012H26.0799V172.34H26.0479C25.5839 171.492 24.5119 170.82 23.1679 170.82C21.0719 170.82 19.4239 172.516 19.4239 174.756C19.4239 177.028 21.0079 178.692 23.3599 178.692C24.4479 178.692 25.3599 178.212 26.0479 177.412H26.0799V182.148H27.3279V171.012ZM26.0799 174.756C26.0799 176.324 25.0399 177.54 23.4239 177.54C21.8079 177.54 20.7679 176.324 20.7679 174.756C20.7679 173.188 21.8079 171.972 23.4239 171.972C25.0399 171.972 26.0799 173.188 26.0799 174.756ZM36.1651 171.012H34.9171V174.66C34.9171 176.372 34.2131 177.54 32.5971 177.54C31.4291 177.54 30.8851 176.756 30.8851 175.508V171.012H29.6371V175.636C29.6371 177.444 30.5171 178.692 32.4851 178.692C33.7171 178.692 34.6451 178.004 34.9811 177.268H35.0131C35.0131 177.684 35.0451 178.1 35.0451 178.5H36.2291C36.2291 178.004 36.1651 177.412 36.1651 176.724V171.012ZM38.6398 178.5H39.8878V171.012H38.6398V178.5ZM38.3518 168.084C38.3518 168.612 38.7358 168.996 39.2638 168.996C39.7918 168.996 40.1758 168.612 40.1758 168.084C40.1758 167.588 39.7758 167.172 39.2638 167.172C38.7518 167.172 38.3518 167.588 38.3518 168.084ZM42.3715 178.5H43.6195V174.852C43.6195 173.14 44.2915 172.068 45.8115 172.068C46.0355 172.068 46.2755 172.1 46.4835 172.164L46.5635 170.9C46.3875 170.836 46.2115 170.82 46.0515 170.82C44.8195 170.82 43.8915 171.508 43.5555 172.244H43.5235C43.5235 171.828 43.4915 171.412 43.4915 171.012H42.3075C42.3075 171.508 42.3715 172.1 42.3715 172.788V178.5ZM53.4593 176.404C52.8673 177.156 52.1473 177.54 51.0753 177.54C49.7153 177.54 48.7233 176.436 48.6273 175.14H54.6753V174.74C54.6753 172.26 53.2353 170.82 51.1233 170.82C48.9153 170.82 47.2833 172.436 47.2833 174.756C47.2833 176.932 48.7233 178.692 51.0753 178.692C52.4673 178.692 53.5233 178.276 54.4033 177.14L53.4593 176.404ZM48.6273 174.084C48.7873 172.82 49.6993 171.972 51.0753 171.972C52.4513 171.972 53.2833 172.82 53.3313 174.084H48.6273ZM62.8299 178.5H64.0779V166.404H62.8299V172.1H62.7979C62.1099 171.3 61.1979 170.82 60.1099 170.82C57.7579 170.82 56.1739 172.484 56.1739 174.756C56.1739 176.996 57.8219 178.692 59.9179 178.692C61.2619 178.692 62.3339 178.02 62.7979 177.172H62.8299V178.5ZM62.8299 174.756C62.8299 176.324 61.7899 177.54 60.1739 177.54C58.5579 177.54 57.5179 176.324 57.5179 174.756C57.5179 173.188 58.5579 171.972 60.1739 171.972C61.7899 171.972 62.8299 173.188 62.8299 174.756ZM81.2883 171.012H79.9443L78.2483 176.772H78.2163L76.2483 171.012H74.9363L73.0003 176.772H72.9683L71.2563 171.012H69.8803L72.3123 178.5H73.5923L75.4803 172.74H75.5123L77.6403 178.5H78.8723L81.2883 171.012ZM87.3876 166.884L86.3796 166.5L81.5636 178.788L82.5716 179.188L87.3876 166.884ZM1.184 202.5H2.432V198.852C2.432 197.14 3.136 195.972 4.752 195.972C5.92 195.972 6.464 196.756 6.464 198.004V202.5H7.712V197.876C7.712 196.068 6.832 194.82 4.864 194.82C3.696 194.82 2.8 195.46 2.464 196.052H2.432V190.404H1.184V202.5ZM15.8186 200.404C15.2266 201.156 14.5066 201.54 13.4346 201.54C12.0746 201.54 11.0826 200.436 10.9866 199.14H17.0346V198.74C17.0346 196.26 15.5946 194.82 13.4826 194.82C11.2746 194.82 9.64263 196.436 9.64263 198.756C9.64263 200.932 11.0826 202.692 13.4346 202.692C14.8266 202.692 15.8826 202.276 16.7626 201.14L15.8186 200.404ZM10.9866 198.084C11.1466 196.82 12.0586 195.972 13.4346 195.972C14.8106 195.972 15.6426 196.82 15.6906 198.084H10.9866ZM19.0773 202.5H20.3253V190.404H19.0773V202.5ZM22.745 206.148H23.993V201.172H24.025C24.489 202.02 25.561 202.692 26.905 202.692C29.001 202.692 30.649 200.996 30.649 198.756C30.649 196.484 29.065 194.82 26.713 194.82C25.625 194.82 24.713 195.3 24.025 196.1H23.993V195.012H22.745V206.148ZM23.993 198.756C23.993 197.188 25.033 195.972 26.649 195.972C28.265 195.972 29.305 197.188 29.305 198.756C29.305 200.324 28.265 201.54 26.649 201.54C25.033 201.54 23.993 200.324 23.993 198.756ZM41.1394 195.012H38.9314V192.884H37.6834V195.012H36.0514V196.068H37.6834V200.18C37.6834 201.732 37.9714 202.692 39.7474 202.692C40.2114 202.692 40.7714 202.612 41.2034 202.42L41.1554 201.284C40.8194 201.46 40.4194 201.54 40.0514 201.54C38.9474 201.54 38.9314 200.772 38.9314 199.812V196.068H41.1394V195.012ZM48.4124 200.404C47.8204 201.156 47.1004 201.54 46.0284 201.54C44.6684 201.54 43.6764 200.436 43.5804 199.14H49.6284V198.74C49.6284 196.26 48.1884 194.82 46.0764 194.82C43.8684 194.82 42.2364 196.436 42.2364 198.756C42.2364 200.932 43.6764 202.692 46.0284 202.692C47.4204 202.692 48.4764 202.276 49.3564 201.14L48.4124 200.404ZM43.5804 198.084C43.7404 196.82 44.6524 195.972 46.0284 195.972C47.4044 195.972 48.2364 196.82 48.2844 198.084H43.5804ZM50.423 202.5H51.975L54.311 199.268L56.679 202.5H58.327L55.239 198.468L57.815 195.012H56.295L54.423 197.7L52.439 195.012H50.807L53.495 198.468L50.423 202.5ZM63.655 195.012H61.447V192.884H60.199V195.012H58.567V196.068H60.199V200.18C60.199 201.732 60.487 202.692 62.263 202.692C62.727 202.692 63.287 202.612 63.719 202.42L63.671 201.284C63.335 201.46 62.935 201.54 62.567 201.54C61.463 201.54 61.447 200.772 61.447 199.812V196.068H63.655V195.012Z" fill="black"/>
<g clip-path="url(#clip4_1_269)">
<path d="M133.408 162H134.752V156.912H140.032V155.664H134.752V151.92H140.432V150.672H133.408V162ZM142.187 162H143.435V154.512H142.187V162ZM141.899 151.584C141.899 152.112 142.283 152.496 142.811 152.496C143.339 152.496 143.723 152.112 143.723 151.584C143.723 151.088 143.323 150.672 142.811 150.672C142.299 150.672 141.899 151.088 141.899 151.584ZM151.662 159.904C151.07 160.656 150.35 161.04 149.278 161.04C147.918 161.04 146.926 159.936 146.83 158.64H152.878V158.24C152.878 155.76 151.438 154.32 149.326 154.32C147.118 154.32 145.486 155.936 145.486 158.256C145.486 160.432 146.926 162.192 149.278 162.192C150.67 162.192 151.726 161.776 152.606 160.64L151.662 159.904ZM146.83 157.584C146.99 156.32 147.902 155.472 149.278 155.472C150.654 155.472 151.486 156.32 151.534 157.584H146.83ZM154.921 162H156.169V149.904H154.921V162ZM164.877 162H166.125V149.904H164.877V155.6H164.845C164.157 154.8 163.245 154.32 162.157 154.32C159.805 154.32 158.221 155.984 158.221 158.256C158.221 160.496 159.869 162.192 161.965 162.192C163.309 162.192 164.381 161.52 164.845 160.672H164.877V162ZM164.877 158.256C164.877 159.824 163.837 161.04 162.221 161.04C160.605 161.04 159.565 159.824 159.565 158.256C159.565 156.688 160.605 155.472 162.221 155.472C163.837 155.472 164.877 156.688 164.877 158.256ZM173.111 162H179.639V160.752H174.455V150.672H173.111V162ZM181.575 156.288C182.167 155.744 182.999 155.472 183.799 155.472C184.967 155.472 185.655 156.032 185.655 157.12V157.344H185.175C183.335 157.344 180.455 157.488 180.455 159.968C180.455 161.424 181.719 162.192 183.239 162.192C184.375 162.192 185.207 161.648 185.703 160.88H185.735C185.735 161.2 185.735 161.664 185.815 162H187.015C186.951 161.616 186.903 161.136 186.903 160.704V157.488C186.903 155.376 185.975 154.32 183.767 154.32C182.679 154.32 181.559 154.688 180.791 155.472L181.575 156.288ZM185.655 158.4V158.88C185.623 160.096 184.887 161.136 183.447 161.136C182.503 161.136 181.799 160.784 181.799 159.84C181.799 158.832 182.823 158.4 184.407 158.4H185.655ZM189.12 162H190.368V160.672H190.4C190.864 161.52 191.936 162.192 193.28 162.192C195.376 162.192 197.024 160.496 197.024 158.256C197.024 155.984 195.44 154.32 193.088 154.32C192 154.32 191.088 154.8 190.4 155.6H190.368V149.904H189.12V162ZM190.368 158.256C190.368 156.688 191.408 155.472 193.024 155.472C194.64 155.472 195.68 156.688 195.68 158.256C195.68 159.824 194.64 161.04 193.024 161.04C191.408 161.04 190.368 159.824 190.368 158.256ZM204.709 159.904C204.117 160.656 203.397 161.04 202.325 161.04C200.965 161.04 199.973 159.936 199.877 158.64H205.925V158.24C205.925 155.76 204.485 154.32 202.373 154.32C200.165 154.32 198.533 155.936 198.533 158.256C198.533 160.432 199.973 162.192 202.325 162.192C203.717 162.192 204.773 161.776 205.653 160.64L204.709 159.904ZM199.877 157.584C200.037 156.32 200.949 155.472 202.325 155.472C203.701 155.472 204.533 156.32 204.581 157.584H199.877ZM207.968 162H209.216V149.904H207.968V162Z" fill="black"/>
<path opacity="0.8" d="M219.384 148.672H218.04V150.944L215.864 150.192L215.448 151.472L217.64 152.224L216.264 154.032L217.336 154.848L218.68 153.008L220.056 154.896L221.16 154.096L219.784 152.224L221.96 151.52L221.544 150.24L219.384 150.944V148.672Z" fill="#DB3259"/>
</g>
<g clip-path="url(#clip5_1_269)">
<rect x="132" y="172" width="320" height="36" rx="4" fill="white"/>
<path d="M155.333 190.667H144.667C144.49 190.667 144.32 190.596 144.195 190.471C144.07 190.346 144 190.177 144 190C144 189.823 144.07 189.654 144.195 189.529C144.32 189.404 144.49 189.333 144.667 189.333H155.333C155.51 189.333 155.68 189.404 155.805 189.529C155.93 189.654 156 189.823 156 190C156 190.177 155.93 190.346 155.805 190.471C155.68 190.596 155.51 190.667 155.333 190.667Z" fill="#6B778C"/>
<path opacity="0.5" d="M180.096 194H181.616L182.784 191.216H188.448L189.6 194H191.168L186.352 182.672H185.088L180.096 194ZM187.936 189.968H183.312L185.664 184.4H185.696L187.936 189.968ZM201.17 182.672H199.826V189.488C199.826 191.312 199.154 193.04 196.898 193.04C194.642 193.04 193.97 191.312 193.97 189.488V182.672H192.626V189.68C192.626 192.144 193.778 194.288 196.898 194.288C200.018 194.288 201.17 192.144 201.17 189.68V182.672ZM203.731 194H208.083C210.307 194 213.635 192.512 213.635 188.336C213.635 184.16 210.307 182.672 208.083 182.672H203.731V194ZM205.075 183.92H207.635C210.227 183.92 212.195 185.232 212.195 188.336C212.195 191.44 210.227 192.752 207.635 192.752H205.075V183.92Z" fill="#9EA6B5"/>
<path opacity="0.5" d="M224.408 194H225.752V188.912H228.024C229.624 188.912 231.736 188.256 231.736 185.776C231.736 183.408 229.848 182.672 227.768 182.672H224.408V194ZM225.752 183.92H228.024C229.368 183.92 230.296 184.528 230.296 185.792C230.296 187.056 229.368 187.664 228.024 187.664H225.752V183.92ZM233.78 194H235.028V181.904H233.78V194ZM238.2 188.288C238.792 187.744 239.624 187.472 240.424 187.472C241.592 187.472 242.28 188.032 242.28 189.12V189.344H241.8C239.96 189.344 237.08 189.488 237.08 191.968C237.08 193.424 238.344 194.192 239.864 194.192C241 194.192 241.832 193.648 242.328 192.88H242.36C242.36 193.2 242.36 193.664 242.44 194H243.64C243.576 193.616 243.528 193.136 243.528 192.704V189.488C243.528 187.376 242.6 186.32 240.392 186.32C239.304 186.32 238.184 186.688 237.416 187.472L238.2 188.288ZM242.28 190.4V190.88C242.248 192.096 241.512 193.136 240.072 193.136C239.128 193.136 238.424 192.784 238.424 191.84C238.424 190.832 239.448 190.4 241.032 190.4H242.28ZM252.129 187.504C251.377 186.688 250.353 186.32 249.249 186.32C246.945 186.32 245.377 187.984 245.377 190.256C245.377 192.56 246.929 194.192 249.249 194.192C250.337 194.192 251.361 193.824 252.081 192.992L251.153 192.112C250.689 192.752 250.065 193.04 249.249 193.04C247.729 193.04 246.721 191.792 246.721 190.256C246.721 188.72 247.569 187.472 249.249 187.472C250.001 187.472 250.609 187.744 251.137 188.384L252.129 187.504ZM259.272 191.904C258.68 192.656 257.96 193.04 256.888 193.04C255.528 193.04 254.536 191.936 254.44 190.64H260.488V190.24C260.488 187.76 259.048 186.32 256.936 186.32C254.728 186.32 253.096 187.936 253.096 190.256C253.096 192.432 254.536 194.192 256.888 194.192C258.28 194.192 259.336 193.776 260.216 192.64L259.272 191.904ZM254.44 189.584C254.6 188.32 255.512 187.472 256.888 187.472C258.264 187.472 259.096 188.32 259.144 189.584H254.44ZM262.418 194H263.666V190.352C263.666 188.64 264.37 187.472 265.986 187.472C267.154 187.472 267.698 188.256 267.698 189.504V194H268.946V189.376C268.946 187.568 268.066 186.32 266.098 186.32C264.93 186.32 264.034 186.96 263.698 187.552H263.666V181.904H262.418V194ZM270.877 190.256C270.877 192.592 272.573 194.192 274.877 194.192C277.181 194.192 278.877 192.592 278.877 190.256C278.877 187.92 277.181 186.32 274.877 186.32C272.573 186.32 270.877 187.92 270.877 190.256ZM272.221 190.256C272.221 188.688 273.261 187.472 274.877 187.472C276.493 187.472 277.533 188.688 277.533 190.256C277.533 191.824 276.493 193.04 274.877 193.04C273.261 193.04 272.221 191.824 272.221 190.256ZM280.921 194H282.169V181.904H280.921V194ZM290.877 194H292.125V181.904H290.877V187.6H290.845C290.157 186.8 289.245 186.32 288.157 186.32C285.805 186.32 284.221 187.984 284.221 190.256C284.221 192.496 285.869 194.192 287.965 194.192C289.309 194.192 290.381 193.52 290.845 192.672H290.877V194ZM290.877 190.256C290.877 191.824 289.837 193.04 288.221 193.04C286.605 193.04 285.565 191.824 285.565 190.256C285.565 188.688 286.605 187.472 288.221 187.472C289.837 187.472 290.877 188.688 290.877 190.256ZM300.178 191.904C299.586 192.656 298.866 193.04 297.794 193.04C296.434 193.04 295.442 191.936 295.346 190.64H301.394V190.24C301.394 187.76 299.954 186.32 297.842 186.32C295.634 186.32 294.002 187.936 294.002 190.256C294.002 192.432 295.442 194.192 297.794 194.192C299.186 194.192 300.242 193.776 301.122 192.64L300.178 191.904ZM295.346 189.584C295.506 188.32 296.418 187.472 297.794 187.472C299.17 187.472 300.002 188.32 300.05 189.584H295.346ZM303.325 194H304.573V190.352C304.573 188.64 305.245 187.568 306.765 187.568C306.989 187.568 307.229 187.6 307.437 187.664L307.517 186.4C307.341 186.336 307.165 186.32 307.005 186.32C305.773 186.32 304.845 187.008 304.509 187.744H304.477C304.477 187.328 304.445 186.912 304.445 186.512H303.261C303.261 187.008 303.325 187.6 303.325 188.288V194Z" fill="#9EA6B5"/>
<path d="M434.499 189.5V185.333C434.499 185.201 434.446 185.074 434.353 184.98C434.259 184.886 434.132 184.833 433.999 184.833C433.866 184.833 433.739 184.886 433.645 184.98C433.552 185.074 433.499 185.201 433.499 185.333V189.5H429.332C429.2 189.5 429.073 189.553 428.979 189.646C428.885 189.74 428.832 189.867 428.832 190C428.832 190.133 428.885 190.26 428.979 190.354C429.073 190.447 429.2 190.5 429.332 190.5H433.499V194.667C433.501 194.799 433.554 194.925 433.647 195.018C433.741 195.112 433.867 195.165 433.999 195.167C434.132 195.167 434.259 195.114 434.353 195.02C434.446 194.926 434.499 194.799 434.499 194.667V190.5H438.666C438.798 190.5 438.925 190.447 439.019 190.354C439.113 190.26 439.166 190.133 439.166 190C439.164 189.868 439.111 189.742 439.017 189.648C438.924 189.555 438.798 189.502 438.666 189.5H434.499Z" fill="#6B778C"/>
</g>
<rect x="132.5" y="172.5" width="319" height="35" rx="3.5" stroke="#9EA6B5"/>
<g clip-path="url(#clip6_1_269)">
<path d="M139.882 213.088H132.154V214.18H135.43V223H136.606V214.18H139.882V213.088ZM141.075 223H142.167V219.808C142.167 218.31 142.783 217.288 144.197 217.288C145.219 217.288 145.695 217.974 145.695 219.066V223H146.787V218.954C146.787 217.372 146.017 216.28 144.295 216.28C143.273 216.28 142.489 216.84 142.195 217.358H142.167V212.416H141.075V223ZM148.952 223H150.044V216.448H148.952V223ZM148.7 213.886C148.7 214.348 149.036 214.684 149.498 214.684C149.96 214.684 150.296 214.348 150.296 213.886C150.296 213.452 149.946 213.088 149.498 213.088C149.05 213.088 148.7 213.452 148.7 213.886ZM151.49 221.95C152.134 222.874 152.932 223.168 154.038 223.168C155.34 223.168 156.656 222.594 156.656 221.11C156.656 219.794 155.676 219.374 154.514 219.15C153.646 218.982 152.862 218.744 152.862 218.198C152.862 217.582 153.548 217.288 154.15 217.288C154.794 217.288 155.256 217.61 155.536 218.072L156.446 217.47C155.998 216.63 155.144 216.28 154.22 216.28C153.002 216.28 151.77 216.938 151.77 218.212C151.77 219.57 152.834 219.836 154.08 220.116C154.78 220.27 155.48 220.452 155.48 221.152C155.48 221.866 154.724 222.16 154.038 222.16C153.268 222.16 152.792 221.81 152.358 221.278L151.49 221.95ZM162.173 223H163.265V216.448H162.173V223ZM161.921 213.886C161.921 214.348 162.257 214.684 162.719 214.684C163.181 214.684 163.517 214.348 163.517 213.886C163.517 213.452 163.167 213.088 162.719 213.088C162.271 213.088 161.921 213.452 161.921 213.886ZM164.71 221.95C165.354 222.874 166.152 223.168 167.258 223.168C168.56 223.168 169.876 222.594 169.876 221.11C169.876 219.794 168.896 219.374 167.734 219.15C166.866 218.982 166.082 218.744 166.082 218.198C166.082 217.582 166.768 217.288 167.37 217.288C168.014 217.288 168.476 217.61 168.756 218.072L169.666 217.47C169.218 216.63 168.364 216.28 167.44 216.28C166.222 216.28 164.99 216.938 164.99 218.212C164.99 219.57 166.054 219.836 167.3 220.116C168 220.27 168.7 220.452 168.7 221.152C168.7 221.866 167.944 222.16 167.258 222.16C166.488 222.16 166.012 221.81 165.578 221.278L164.71 221.95ZM178.88 216.448H176.948V214.586H175.856V216.448H174.428V217.372H175.856V220.97C175.856 222.328 176.108 223.168 177.662 223.168C178.068 223.168 178.558 223.098 178.936 222.93L178.894 221.936C178.6 222.09 178.25 222.16 177.928 222.16C176.962 222.16 176.948 221.488 176.948 220.648V217.372H178.88V216.448ZM180.218 223H181.31V219.808C181.31 218.31 181.926 217.288 183.34 217.288C184.362 217.288 184.838 217.974 184.838 219.066V223H185.93V218.954C185.93 217.372 185.16 216.28 183.438 216.28C182.416 216.28 181.632 216.84 181.338 217.358H181.31V212.416H180.218V223ZM193.023 221.166C192.505 221.824 191.875 222.16 190.937 222.16C189.747 222.16 188.879 221.194 188.795 220.06H194.087V219.71C194.087 217.54 192.827 216.28 190.979 216.28C189.047 216.28 187.619 217.694 187.619 219.724C187.619 221.628 188.879 223.168 190.937 223.168C192.155 223.168 193.079 222.804 193.849 221.81L193.023 221.166ZM188.795 219.136C188.935 218.03 189.733 217.288 190.937 217.288C192.141 217.288 192.869 218.03 192.911 219.136H188.795ZM205.119 223H206.211V212.416H205.119V217.4H205.091C204.489 216.7 203.691 216.28 202.739 216.28C200.681 216.28 199.295 217.736 199.295 219.724C199.295 221.684 200.737 223.168 202.571 223.168C203.747 223.168 204.685 222.58 205.091 221.838H205.119V223ZM205.119 219.724C205.119 221.096 204.209 222.16 202.795 222.16C201.381 222.16 200.471 221.096 200.471 219.724C200.471 218.352 201.381 217.288 202.795 217.288C204.209 217.288 205.119 218.352 205.119 219.724ZM213.257 221.166C212.739 221.824 212.109 222.16 211.171 222.16C209.981 222.16 209.113 221.194 209.029 220.06H214.321V219.71C214.321 217.54 213.061 216.28 211.213 216.28C209.281 216.28 207.853 217.694 207.853 219.724C207.853 221.628 209.113 223.168 211.171 223.168C212.389 223.168 213.313 222.804 214.083 221.81L213.257 221.166ZM209.029 219.136C209.169 218.03 209.967 217.288 211.171 217.288C212.375 217.288 213.103 218.03 213.145 219.136H209.029ZM215.283 221.95C215.927 222.874 216.725 223.168 217.831 223.168C219.133 223.168 220.449 222.594 220.449 221.11C220.449 219.794 219.469 219.374 218.307 219.15C217.439 218.982 216.655 218.744 216.655 218.198C216.655 217.582 217.341 217.288 217.943 217.288C218.587 217.288 219.049 217.61 219.329 218.072L220.239 217.47C219.791 216.63 218.937 216.28 218.013 216.28C216.795 216.28 215.563 216.938 215.563 218.212C215.563 219.57 216.627 219.836 217.873 220.116C218.573 220.27 219.273 220.452 219.273 221.152C219.273 221.866 218.517 222.16 217.831 222.16C217.061 222.16 216.585 221.81 216.151 221.278L215.283 221.95ZM227.502 217.316C226.844 216.602 225.948 216.28 224.982 216.28C222.966 216.28 221.594 217.736 221.594 219.724C221.594 221.74 222.952 223.168 224.982 223.168C225.934 223.168 226.83 222.846 227.46 222.118L226.648 221.348C226.242 221.908 225.696 222.16 224.982 222.16C223.652 222.16 222.77 221.068 222.77 219.724C222.77 218.38 223.512 217.288 224.982 217.288C225.64 217.288 226.172 217.526 226.634 218.086L227.502 217.316ZM228.725 223H229.817V219.808C229.817 218.31 230.405 217.372 231.735 217.372C231.931 217.372 232.141 217.4 232.323 217.456L232.393 216.35C232.239 216.294 232.085 216.28 231.945 216.28C230.867 216.28 230.055 216.882 229.761 217.526H229.733C229.733 217.162 229.705 216.798 229.705 216.448H228.669C228.669 216.882 228.725 217.4 228.725 218.002V223ZM233.745 223H234.837V216.448H233.745V223ZM233.493 213.886C233.493 214.348 233.829 214.684 234.291 214.684C234.753 214.684 235.089 214.348 235.089 213.886C235.089 213.452 234.739 213.088 234.291 213.088C233.843 213.088 233.493 213.452 233.493 213.886ZM236.955 226.192H238.047V221.838H238.075C238.481 222.58 239.419 223.168 240.595 223.168C242.429 223.168 243.871 221.684 243.871 219.724C243.871 217.736 242.485 216.28 240.427 216.28C239.475 216.28 238.677 216.7 238.075 217.4H238.047V216.448H236.955V226.192ZM238.047 219.724C238.047 218.352 238.957 217.288 240.371 217.288C241.785 217.288 242.695 218.352 242.695 219.724C242.695 221.096 241.785 222.16 240.371 222.16C238.957 222.16 238.047 221.096 238.047 219.724ZM249.153 216.448H247.221V214.586H246.129V216.448H244.701V217.372H246.129V220.97C246.129 222.328 246.381 223.168 247.935 223.168C248.341 223.168 248.831 223.098 249.209 222.93L249.167 221.936C248.873 222.09 248.523 222.16 248.201 222.16C247.235 222.16 247.221 221.488 247.221 220.648V217.372H249.153V216.448ZM250.589 223H251.681V216.448H250.589V223ZM250.337 213.886C250.337 214.348 250.673 214.684 251.135 214.684C251.597 214.684 251.933 214.348 251.933 213.886C251.933 213.452 251.583 213.088 251.135 213.088C250.687 213.088 250.337 213.452 250.337 213.886ZM253.476 219.724C253.476 221.768 254.96 223.168 256.976 223.168C258.992 223.168 260.476 221.768 260.476 219.724C260.476 217.68 258.992 216.28 256.976 216.28C254.96 216.28 253.476 217.68 253.476 219.724ZM254.652 219.724C254.652 218.352 255.562 217.288 256.976 217.288C258.39 217.288 259.3 218.352 259.3 219.724C259.3 221.096 258.39 222.16 256.976 222.16C255.562 222.16 254.652 221.096 254.652 219.724ZM262.167 223H263.259V219.808C263.259 218.31 263.875 217.288 265.289 217.288C266.311 217.288 266.787 217.974 266.787 219.066V223H267.879V218.954C267.879 217.372 267.109 216.28 265.387 216.28C264.309 216.28 263.497 216.882 263.203 217.526H263.175C263.175 217.162 263.147 216.798 263.147 216.448H262.111C262.111 216.882 262.167 217.4 262.167 218.002V223ZM274.445 218.002C274.963 217.526 275.691 217.288 276.391 217.288C277.413 217.288 278.015 217.778 278.015 218.73V218.926H277.595C275.985 218.926 273.465 219.052 273.465 221.222C273.465 222.496 274.571 223.168 275.901 223.168C276.895 223.168 277.623 222.692 278.057 222.02H278.085C278.085 222.3 278.085 222.706 278.155 223H279.205C279.149 222.664 279.107 222.244 279.107 221.866V219.052C279.107 217.204 278.295 216.28 276.363 216.28C275.411 216.28 274.431 216.602 273.759 217.288L274.445 218.002ZM278.015 219.85V220.27C277.987 221.334 277.343 222.244 276.083 222.244C275.257 222.244 274.641 221.936 274.641 221.11C274.641 220.228 275.537 219.85 276.923 219.85H278.015ZM281.102 223H282.194V219.808C282.194 218.31 282.782 217.372 284.112 217.372C284.308 217.372 284.518 217.4 284.7 217.456L284.77 216.35C284.616 216.294 284.462 216.28 284.322 216.28C283.244 216.28 282.432 216.882 282.138 217.526H282.11C282.11 217.162 282.082 216.798 282.082 216.448H281.046C281.046 216.882 281.102 217.4 281.102 218.002V223ZM290.804 221.166C290.286 221.824 289.656 222.16 288.718 222.16C287.528 222.16 286.66 221.194 286.576 220.06H291.868V219.71C291.868 217.54 290.608 216.28 288.76 216.28C286.828 216.28 285.4 217.694 285.4 219.724C285.4 221.628 286.66 223.168 288.718 223.168C289.936 223.168 290.86 222.804 291.63 221.81L290.804 221.166ZM286.576 219.136C286.716 218.03 287.514 217.288 288.718 217.288C289.922 217.288 290.65 218.03 290.692 219.136H286.576ZM294.159 218.002C294.677 217.526 295.405 217.288 296.105 217.288C297.127 217.288 297.729 217.778 297.729 218.73V218.926H297.309C295.699 218.926 293.179 219.052 293.179 221.222C293.179 222.496 294.285 223.168 295.615 223.168C296.609 223.168 297.337 222.692 297.771 222.02H297.799C297.799 222.3 297.799 222.706 297.869 223H298.919C298.863 222.664 298.821 222.244 298.821 221.866V219.052C298.821 217.204 298.009 216.28 296.077 216.28C295.125 216.28 294.145 216.602 293.473 217.288L294.159 218.002ZM297.729 219.85V220.27C297.701 221.334 297.057 222.244 295.797 222.244C294.971 222.244 294.355 221.936 294.355 221.11C294.355 220.228 295.251 219.85 296.637 219.85H297.729Z" fill="black"/>
</g>
<path d="M1.408 271.5H2.752V262.092H2.784L9.344 271.5H11.04V260.172H9.696V269.58H9.664L3.104 260.172H1.408V271.5ZM13.2051 267.756C13.2051 270.092 14.9011 271.692 17.2051 271.692C19.5091 271.692 21.2051 270.092 21.2051 267.756C21.2051 265.42 19.5091 263.82 17.2051 263.82C14.9011 263.82 13.2051 265.42 13.2051 267.756ZM14.5491 267.756C14.5491 266.188 15.5891 264.972 17.2051 264.972C18.8211 264.972 19.8611 266.188 19.8611 267.756C19.8611 269.324 18.8211 270.54 17.2051 270.54C15.5891 270.54 14.5491 269.324 14.5491 267.756ZM27.2331 264.012H25.0251V261.884H23.7771V264.012H22.1451V265.068H23.7771V269.18C23.7771 270.732 24.0651 271.692 25.8411 271.692C26.3051 271.692 26.8651 271.612 27.2971 271.42L27.2491 270.284C26.9131 270.46 26.5131 270.54 26.1451 270.54C25.0411 270.54 25.0251 269.772 25.0251 268.812V265.068H27.2331V264.012ZM33.2153 271.5H34.4633V267.852C34.4633 266.14 35.1353 265.068 36.6553 265.068C36.8793 265.068 37.1193 265.1 37.3273 265.164L37.4073 263.9C37.2313 263.836 37.0553 263.82 36.8953 263.82C35.6633 263.82 34.7353 264.508 34.3993 265.244H34.3673C34.3673 264.828 34.3353 264.412 34.3353 264.012H33.1513C33.1513 264.508 33.2153 265.1 33.2153 265.788V271.5ZM44.303 269.404C43.711 270.156 42.991 270.54 41.919 270.54C40.559 270.54 39.567 269.436 39.471 268.14H45.519V267.74C45.519 265.26 44.079 263.82 41.967 263.82C39.759 263.82 38.127 265.436 38.127 267.756C38.127 269.932 39.567 271.692 41.919 271.692C43.311 271.692 44.367 271.276 45.247 270.14L44.303 269.404ZM39.471 267.084C39.631 265.82 40.543 264.972 41.919 264.972C43.295 264.972 44.127 265.82 44.175 267.084H39.471ZM54.9216 264.012H53.6736V265.34H53.6416C53.1776 264.492 52.1056 263.82 50.7616 263.82C48.6656 263.82 47.0176 265.516 47.0176 267.756C47.0176 270.028 48.6016 271.692 50.9536 271.692C52.0416 271.692 52.9536 271.212 53.6416 270.412H53.6736V275.148H54.9216V264.012ZM53.6736 267.756C53.6736 269.324 52.6336 270.54 51.0176 270.54C49.4016 270.54 48.3616 269.324 48.3616 267.756C48.3616 266.188 49.4016 264.972 51.0176 264.972C52.6336 264.972 53.6736 266.188 53.6736 267.756ZM63.7589 264.012H62.5109V267.66C62.5109 269.372 61.8069 270.54 60.1909 270.54C59.0229 270.54 58.4789 269.756 58.4789 268.508V264.012H57.2309V268.636C57.2309 270.444 58.1109 271.692 60.0789 271.692C61.3109 271.692 62.2389 271.004 62.5749 270.268H62.6069C62.6069 270.684 62.6389 271.1 62.6389 271.5H63.8229C63.8229 271.004 63.7589 270.412 63.7589 269.724V264.012ZM66.2335 271.5H67.4815V264.012H66.2335V271.5ZM65.9455 261.084C65.9455 261.612 66.3295 261.996 66.8575 261.996C67.3855 261.996 67.7695 261.612 67.7695 261.084C67.7695 260.588 67.3695 260.172 66.8575 260.172C66.3455 260.172 65.9455 260.588 65.9455 261.084ZM69.9653 271.5H71.2133V267.852C71.2133 266.14 71.8853 265.068 73.4053 265.068C73.6293 265.068 73.8693 265.1 74.0773 265.164L74.1573 263.9C73.9813 263.836 73.8053 263.82 73.6453 263.82C72.4133 263.82 71.4853 264.508 71.1493 265.244H71.1173C71.1173 264.828 71.0853 264.412 71.0853 264.012H69.9013C69.9013 264.508 69.9653 265.1 69.9653 265.788V271.5ZM81.053 269.404C80.461 270.156 79.741 270.54 78.669 270.54C77.309 270.54 76.317 269.436 76.221 268.14H82.269V267.74C82.269 265.26 80.829 263.82 78.717 263.82C76.509 263.82 74.877 265.436 74.877 267.756C74.877 269.932 76.317 271.692 78.669 271.692C80.061 271.692 81.117 271.276 81.997 270.14L81.053 269.404ZM76.221 267.084C76.381 265.82 77.293 264.972 78.669 264.972C80.045 264.972 80.877 265.82 80.925 267.084H76.221ZM90.4236 271.5H91.6716V259.404H90.4236V265.1H90.3916C89.7036 264.3 88.7916 263.82 87.7036 263.82C85.3516 263.82 83.7676 265.484 83.7676 267.756C83.7676 269.996 85.4156 271.692 87.5116 271.692C88.8556 271.692 89.9276 271.02 90.3916 270.172H90.4236V271.5ZM90.4236 267.756C90.4236 269.324 89.3836 270.54 87.7676 270.54C86.1516 270.54 85.1116 269.324 85.1116 267.756C85.1116 266.188 86.1516 264.972 87.7676 264.972C89.3836 264.972 90.4236 266.188 90.4236 267.756ZM108.882 264.012H107.538L105.842 269.772H105.81L103.842 264.012H102.53L100.594 269.772H100.562L98.85 264.012H97.474L99.906 271.5H101.186L103.074 265.74H103.106L105.234 271.5H106.466L108.882 264.012ZM114.981 259.884L113.973 259.5L109.157 271.788L110.165 272.188L114.981 259.884ZM1.184 295.5H2.432V291.852C2.432 290.14 3.136 288.972 4.752 288.972C5.92 288.972 6.464 289.756 6.464 291.004V295.5H7.712V290.876C7.712 289.068 6.832 287.82 4.864 287.82C3.696 287.82 2.8 288.46 2.464 289.052H2.432V283.404H1.184V295.5ZM15.8186 293.404C15.2266 294.156 14.5066 294.54 13.4346 294.54C12.0746 294.54 11.0826 293.436 10.9866 292.14H17.0346V291.74C17.0346 289.26 15.5946 287.82 13.4826 287.82C11.2746 287.82 9.64263 289.436 9.64263 291.756C9.64263 293.932 11.0826 295.692 13.4346 295.692C14.8266 295.692 15.8826 295.276 16.7626 294.14L15.8186 293.404ZM10.9866 291.084C11.1466 289.82 12.0586 288.972 13.4346 288.972C14.8106 288.972 15.6426 289.82 15.6906 291.084H10.9866ZM19.0773 295.5H20.3253V283.404H19.0773V295.5ZM22.745 299.148H23.993V294.172H24.025C24.489 295.02 25.561 295.692 26.905 295.692C29.001 295.692 30.649 293.996 30.649 291.756C30.649 289.484 29.065 287.82 26.713 287.82C25.625 287.82 24.713 288.3 24.025 289.1H23.993V288.012H22.745V299.148ZM23.993 291.756C23.993 290.188 25.033 288.972 26.649 288.972C28.265 288.972 29.305 290.188 29.305 291.756C29.305 293.324 28.265 294.54 26.649 294.54C25.033 294.54 23.993 293.324 23.993 291.756ZM41.1394 288.012H38.9314V285.884H37.6834V288.012H36.0514V289.068H37.6834V293.18C37.6834 294.732 37.9714 295.692 39.7474 295.692C40.2114 295.692 40.7714 295.612 41.2034 295.42L41.1554 294.284C40.8194 294.46 40.4194 294.54 40.0514 294.54C38.9474 294.54 38.9314 293.772 38.9314 292.812V289.068H41.1394V288.012ZM48.4124 293.404C47.8204 294.156 47.1004 294.54 46.0284 294.54C44.6684 294.54 43.6764 293.436 43.5804 292.14H49.6284V291.74C49.6284 289.26 48.1884 287.82 46.0764 287.82C43.8684 287.82 42.2364 289.436 42.2364 291.756C42.2364 293.932 43.6764 295.692 46.0284 295.692C47.4204 295.692 48.4764 295.276 49.3564 294.14L48.4124 293.404ZM43.5804 291.084C43.7404 289.82 44.6524 288.972 46.0284 288.972C47.4044 288.972 48.2364 289.82 48.2844 291.084H43.5804ZM50.423 295.5H51.975L54.311 292.268L56.679 295.5H58.327L55.239 291.468L57.815 288.012H56.295L54.423 290.7L52.439 288.012H50.807L53.495 291.468L50.423 295.5ZM63.655 288.012H61.447V285.884H60.199V288.012H58.567V289.068H60.199V293.18C60.199 294.732 60.487 295.692 62.263 295.692C62.727 295.692 63.287 295.612 63.719 295.42L63.671 294.284C63.335 294.46 62.935 294.54 62.567 294.54C61.463 294.54 61.447 293.772 61.447 292.812V289.068H63.655V288.012Z" fill="black"/>
<g clip-path="url(#clip7_1_269)">
<path d="M133.408 255H134.752V249.912H140.032V248.664H134.752V244.92H140.432V243.672H133.408V255ZM142.187 255H143.435V247.512H142.187V255ZM141.899 244.584C141.899 245.112 142.283 245.496 142.811 245.496C143.339 245.496 143.723 245.112 143.723 244.584C143.723 244.088 143.323 243.672 142.811 243.672C142.299 243.672 141.899 244.088 141.899 244.584ZM151.662 252.904C151.07 253.656 150.35 254.04 149.278 254.04C147.918 254.04 146.926 252.936 146.83 251.64H152.878V251.24C152.878 248.76 151.438 247.32 149.326 247.32C147.118 247.32 145.486 248.936 145.486 251.256C145.486 253.432 146.926 255.192 149.278 255.192C150.67 255.192 151.726 254.776 152.606 253.64L151.662 252.904ZM146.83 250.584C146.99 249.32 147.902 248.472 149.278 248.472C150.654 248.472 151.486 249.32 151.534 250.584H146.83ZM154.921 255H156.169V242.904H154.921V255ZM164.877 255H166.125V242.904H164.877V248.6H164.845C164.157 247.8 163.245 247.32 162.157 247.32C159.805 247.32 158.221 248.984 158.221 251.256C158.221 253.496 159.869 255.192 161.965 255.192C163.309 255.192 164.381 254.52 164.845 253.672H164.877V255ZM164.877 251.256C164.877 252.824 163.837 254.04 162.221 254.04C160.605 254.04 159.565 252.824 159.565 251.256C159.565 249.688 160.605 248.472 162.221 248.472C163.837 248.472 164.877 249.688 164.877 251.256ZM173.111 255H179.639V253.752H174.455V243.672H173.111V255ZM181.575 249.288C182.167 248.744 182.999 248.472 183.799 248.472C184.967 248.472 185.655 249.032 185.655 250.12V250.344H185.175C183.335 250.344 180.455 250.488 180.455 252.968C180.455 254.424 181.719 255.192 183.239 255.192C184.375 255.192 185.207 254.648 185.703 253.88H185.735C185.735 254.2 185.735 254.664 185.815 255H187.015C186.951 254.616 186.903 254.136 186.903 253.704V250.488C186.903 248.376 185.975 247.32 183.767 247.32C182.679 247.32 181.559 247.688 180.791 248.472L181.575 249.288ZM185.655 251.4V251.88C185.623 253.096 184.887 254.136 183.447 254.136C182.503 254.136 181.799 253.784 181.799 252.84C181.799 251.832 182.823 251.4 184.407 251.4H185.655ZM189.12 255H190.368V253.672H190.4C190.864 254.52 191.936 255.192 193.28 255.192C195.376 255.192 197.024 253.496 197.024 251.256C197.024 248.984 195.44 247.32 193.088 247.32C192 247.32 191.088 247.8 190.4 248.6H190.368V242.904H189.12V255ZM190.368 251.256C190.368 249.688 191.408 248.472 193.024 248.472C194.64 248.472 195.68 249.688 195.68 251.256C195.68 252.824 194.64 254.04 193.024 254.04C191.408 254.04 190.368 252.824 190.368 251.256ZM204.709 252.904C204.117 253.656 203.397 254.04 202.325 254.04C200.965 254.04 199.973 252.936 199.877 251.64H205.925V251.24C205.925 248.76 204.485 247.32 202.373 247.32C200.165 247.32 198.533 248.936 198.533 251.256C198.533 253.432 199.973 255.192 202.325 255.192C203.717 255.192 204.773 254.776 205.653 253.64L204.709 252.904ZM199.877 250.584C200.037 249.32 200.949 248.472 202.325 248.472C203.701 248.472 204.533 249.32 204.581 250.584H199.877ZM207.968 255H209.216V242.904H207.968V255Z" fill="black"/>
</g>
<g clip-path="url(#clip8_1_269)">
<rect x="132" y="265" width="320" height="36" rx="4" fill="white"/>
<path d="M155.333 283.667H144.667C144.49 283.667 144.32 283.596 144.195 283.471C144.07 283.346 144 283.177 144 283C144 282.823 144.07 282.654 144.195 282.529C144.32 282.404 144.49 282.333 144.667 282.333H155.333C155.51 282.333 155.68 282.404 155.805 282.529C155.93 282.654 156 282.823 156 283C156 283.177 155.93 283.346 155.805 283.471C155.68 283.596 155.51 283.667 155.333 283.667Z" fill="#6B778C"/>
<path opacity="0.5" d="M180.096 287H181.616L182.784 284.216H188.448L189.6 287H191.168L186.352 275.672H185.088L180.096 287ZM187.936 282.968H183.312L185.664 277.4H185.696L187.936 282.968ZM201.17 275.672H199.826V282.488C199.826 284.312 199.154 286.04 196.898 286.04C194.642 286.04 193.97 284.312 193.97 282.488V275.672H192.626V282.68C192.626 285.144 193.778 287.288 196.898 287.288C200.018 287.288 201.17 285.144 201.17 282.68V275.672ZM203.731 287H208.083C210.307 287 213.635 285.512 213.635 281.336C213.635 277.16 210.307 275.672 208.083 275.672H203.731V287ZM205.075 276.92H207.635C210.227 276.92 212.195 278.232 212.195 281.336C212.195 284.44 210.227 285.752 207.635 285.752H205.075V276.92Z" fill="#9EA6B5"/>
<path opacity="0.5" d="M224.408 287H225.752V281.912H228.024C229.624 281.912 231.736 281.256 231.736 278.776C231.736 276.408 229.848 275.672 227.768 275.672H224.408V287ZM225.752 276.92H228.024C229.368 276.92 230.296 277.528 230.296 278.792C230.296 280.056 229.368 280.664 228.024 280.664H225.752V276.92ZM233.78 287H235.028V274.904H233.78V287ZM238.2 281.288C238.792 280.744 239.624 280.472 240.424 280.472C241.592 280.472 242.28 281.032 242.28 282.12V282.344H241.8C239.96 282.344 237.08 282.488 237.08 284.968C237.08 286.424 238.344 287.192 239.864 287.192C241 287.192 241.832 286.648 242.328 285.88H242.36C242.36 286.2 242.36 286.664 242.44 287H243.64C243.576 286.616 243.528 286.136 243.528 285.704V282.488C243.528 280.376 242.6 279.32 240.392 279.32C239.304 279.32 238.184 279.688 237.416 280.472L238.2 281.288ZM242.28 283.4V283.88C242.248 285.096 241.512 286.136 240.072 286.136C239.128 286.136 238.424 285.784 238.424 284.84C238.424 283.832 239.448 283.4 241.032 283.4H242.28ZM252.129 280.504C251.377 279.688 250.353 279.32 249.249 279.32C246.945 279.32 245.377 280.984 245.377 283.256C245.377 285.56 246.929 287.192 249.249 287.192C250.337 287.192 251.361 286.824 252.081 285.992L251.153 285.112C250.689 285.752 250.065 286.04 249.249 286.04C247.729 286.04 246.721 284.792 246.721 283.256C246.721 281.72 247.569 280.472 249.249 280.472C250.001 280.472 250.609 280.744 251.137 281.384L252.129 280.504ZM259.272 284.904C258.68 285.656 257.96 286.04 256.888 286.04C255.528 286.04 254.536 284.936 254.44 283.64H260.488V283.24C260.488 280.76 259.048 279.32 256.936 279.32C254.728 279.32 253.096 280.936 253.096 283.256C253.096 285.432 254.536 287.192 256.888 287.192C258.28 287.192 259.336 286.776 260.216 285.64L259.272 284.904ZM254.44 282.584C254.6 281.32 255.512 280.472 256.888 280.472C258.264 280.472 259.096 281.32 259.144 282.584H254.44ZM262.418 287H263.666V283.352C263.666 281.64 264.37 280.472 265.986 280.472C267.154 280.472 267.698 281.256 267.698 282.504V287H268.946V282.376C268.946 280.568 268.066 279.32 266.098 279.32C264.93 279.32 264.034 279.96 263.698 280.552H263.666V274.904H262.418V287ZM270.877 283.256C270.877 285.592 272.573 287.192 274.877 287.192C277.181 287.192 278.877 285.592 278.877 283.256C278.877 280.92 277.181 279.32 274.877 279.32C272.573 279.32 270.877 280.92 270.877 283.256ZM272.221 283.256C272.221 281.688 273.261 280.472 274.877 280.472C276.493 280.472 277.533 281.688 277.533 283.256C277.533 284.824 276.493 286.04 274.877 286.04C273.261 286.04 272.221 284.824 272.221 283.256ZM280.921 287H282.169V274.904H280.921V287ZM290.877 287H292.125V274.904H290.877V280.6H290.845C290.157 279.8 289.245 279.32 288.157 279.32C285.805 279.32 284.221 280.984 284.221 283.256C284.221 285.496 285.869 287.192 287.965 287.192C289.309 287.192 290.381 286.52 290.845 285.672H290.877V287ZM290.877 283.256C290.877 284.824 289.837 286.04 288.221 286.04C286.605 286.04 285.565 284.824 285.565 283.256C285.565 281.688 286.605 280.472 288.221 280.472C289.837 280.472 290.877 281.688 290.877 283.256ZM300.178 284.904C299.586 285.656 298.866 286.04 297.794 286.04C296.434 286.04 295.442 284.936 295.346 283.64H301.394V283.24C301.394 280.76 299.954 279.32 297.842 279.32C295.634 279.32 294.002 280.936 294.002 283.256C294.002 285.432 295.442 287.192 297.794 287.192C299.186 287.192 300.242 286.776 301.122 285.64L300.178 284.904ZM295.346 282.584C295.506 281.32 296.418 280.472 297.794 280.472C299.17 280.472 300.002 281.32 300.05 282.584H295.346ZM303.325 287H304.573V283.352C304.573 281.64 305.245 280.568 306.765 280.568C306.989 280.568 307.229 280.6 307.437 280.664L307.517 279.4C307.341 279.336 307.165 279.32 307.005 279.32C305.773 279.32 304.845 280.008 304.509 280.744H304.477C304.477 280.328 304.445 279.912 304.445 279.512H303.261C303.261 280.008 303.325 280.6 303.325 281.288V287Z" fill="#9EA6B5"/>
<path d="M434.499 282.5V278.333C434.499 278.201 434.446 278.074 434.353 277.98C434.259 277.886 434.132 277.833 433.999 277.833C433.866 277.833 433.739 277.886 433.645 277.98C433.552 278.074 433.499 278.201 433.499 278.333V282.5H429.332C429.2 282.5 429.073 282.553 428.979 282.646C428.885 282.74 428.832 282.867 428.832 283C428.832 283.133 428.885 283.26 428.979 283.354C429.073 283.447 429.2 283.5 429.332 283.5H433.499V287.667C433.501 287.799 433.554 287.925 433.647 288.018C433.741 288.112 433.867 288.165 433.999 288.167C434.132 288.167 434.259 288.114 434.353 288.02C434.446 287.926 434.499 287.799 434.499 287.667V283.5H438.666C438.798 283.5 438.925 283.447 439.019 283.354C439.113 283.26 439.166 283.133 439.166 283C439.164 282.868 439.111 282.742 439.017 282.648C438.924 282.555 438.798 282.502 438.666 282.5H434.499Z" fill="#6B778C"/>
</g>
<rect x="132.5" y="265.5" width="319" height="35" rx="3.5" stroke="#9EA6B5"/>
<g clip-path="url(#clip9_1_269)">
<path d="M139.882 306.088H132.154V307.18H135.43V316H136.606V307.18H139.882V306.088ZM141.075 316H142.167V312.808C142.167 311.31 142.783 310.288 144.197 310.288C145.219 310.288 145.695 310.974 145.695 312.066V316H146.787V311.954C146.787 310.372 146.017 309.28 144.295 309.28C143.273 309.28 142.489 309.84 142.195 310.358H142.167V305.416H141.075V316ZM148.952 316H150.044V309.448H148.952V316ZM148.7 306.886C148.7 307.348 149.036 307.684 149.498 307.684C149.96 307.684 150.296 307.348 150.296 306.886C150.296 306.452 149.946 306.088 149.498 306.088C149.05 306.088 148.7 306.452 148.7 306.886ZM151.49 314.95C152.134 315.874 152.932 316.168 154.038 316.168C155.34 316.168 156.656 315.594 156.656 314.11C156.656 312.794 155.676 312.374 154.514 312.15C153.646 311.982 152.862 311.744 152.862 311.198C152.862 310.582 153.548 310.288 154.15 310.288C154.794 310.288 155.256 310.61 155.536 311.072L156.446 310.47C155.998 309.63 155.144 309.28 154.22 309.28C153.002 309.28 151.77 309.938 151.77 311.212C151.77 312.57 152.834 312.836 154.08 313.116C154.78 313.27 155.48 313.452 155.48 314.152C155.48 314.866 154.724 315.16 154.038 315.16C153.268 315.16 152.792 314.81 152.358 314.278L151.49 314.95ZM162.173 316H163.265V309.448H162.173V316ZM161.921 306.886C161.921 307.348 162.257 307.684 162.719 307.684C163.181 307.684 163.517 307.348 163.517 306.886C163.517 306.452 163.167 306.088 162.719 306.088C162.271 306.088 161.921 306.452 161.921 306.886ZM164.71 314.95C165.354 315.874 166.152 316.168 167.258 316.168C168.56 316.168 169.876 315.594 169.876 314.11C169.876 312.794 168.896 312.374 167.734 312.15C166.866 311.982 166.082 311.744 166.082 311.198C166.082 310.582 166.768 310.288 167.37 310.288C168.014 310.288 168.476 310.61 168.756 311.072L169.666 310.47C169.218 309.63 168.364 309.28 167.44 309.28C166.222 309.28 164.99 309.938 164.99 311.212C164.99 312.57 166.054 312.836 167.3 313.116C168 313.27 168.7 313.452 168.7 314.152C168.7 314.866 167.944 315.16 167.258 315.16C166.488 315.16 166.012 314.81 165.578 314.278L164.71 314.95ZM178.88 309.448H176.948V307.586H175.856V309.448H174.428V310.372H175.856V313.97C175.856 315.328 176.108 316.168 177.662 316.168C178.068 316.168 178.558 316.098 178.936 315.93L178.894 314.936C178.6 315.09 178.25 315.16 177.928 315.16C176.962 315.16 176.948 314.488 176.948 313.648V310.372H178.88V309.448ZM180.218 316H181.31V312.808C181.31 311.31 181.926 310.288 183.34 310.288C184.362 310.288 184.838 310.974 184.838 312.066V316H185.93V311.954C185.93 310.372 185.16 309.28 183.438 309.28C182.416 309.28 181.632 309.84 181.338 310.358H181.31V305.416H180.218V316ZM193.023 314.166C192.505 314.824 191.875 315.16 190.937 315.16C189.747 315.16 188.879 314.194 188.795 313.06H194.087V312.71C194.087 310.54 192.827 309.28 190.979 309.28C189.047 309.28 187.619 310.694 187.619 312.724C187.619 314.628 188.879 316.168 190.937 316.168C192.155 316.168 193.079 315.804 193.849 314.81L193.023 314.166ZM188.795 312.136C188.935 311.03 189.733 310.288 190.937 310.288C192.141 310.288 192.869 311.03 192.911 312.136H188.795ZM205.119 316H206.211V305.416H205.119V310.4H205.091C204.489 309.7 203.691 309.28 202.739 309.28C200.681 309.28 199.295 310.736 199.295 312.724C199.295 314.684 200.737 316.168 202.571 316.168C203.747 316.168 204.685 315.58 205.091 314.838H205.119V316ZM205.119 312.724C205.119 314.096 204.209 315.16 202.795 315.16C201.381 315.16 200.471 314.096 200.471 312.724C200.471 311.352 201.381 310.288 202.795 310.288C204.209 310.288 205.119 311.352 205.119 312.724ZM213.257 314.166C212.739 314.824 212.109 315.16 211.171 315.16C209.981 315.16 209.113 314.194 209.029 313.06H214.321V312.71C214.321 310.54 213.061 309.28 211.213 309.28C209.281 309.28 207.853 310.694 207.853 312.724C207.853 314.628 209.113 316.168 211.171 316.168C212.389 316.168 213.313 315.804 214.083 314.81L213.257 314.166ZM209.029 312.136C209.169 311.03 209.967 310.288 211.171 310.288C212.375 310.288 213.103 311.03 213.145 312.136H209.029ZM215.283 314.95C215.927 315.874 216.725 316.168 217.831 316.168C219.133 316.168 220.449 315.594 220.449 314.11C220.449 312.794 219.469 312.374 218.307 312.15C217.439 311.982 216.655 311.744 216.655 311.198C216.655 310.582 217.341 310.288 217.943 310.288C218.587 310.288 219.049 310.61 219.329 311.072L220.239 310.47C219.791 309.63 218.937 309.28 218.013 309.28C216.795 309.28 215.563 309.938 215.563 311.212C215.563 312.57 216.627 312.836 217.873 313.116C218.573 313.27 219.273 313.452 219.273 314.152C219.273 314.866 218.517 315.16 217.831 315.16C217.061 315.16 216.585 314.81 216.151 314.278L215.283 314.95ZM227.502 310.316C226.844 309.602 225.948 309.28 224.982 309.28C222.966 309.28 221.594 310.736 221.594 312.724C221.594 314.74 222.952 316.168 224.982 316.168C225.934 316.168 226.83 315.846 227.46 315.118L226.648 314.348C226.242 314.908 225.696 315.16 224.982 315.16C223.652 315.16 222.77 314.068 222.77 312.724C222.77 311.38 223.512 310.288 224.982 310.288C225.64 310.288 226.172 310.526 226.634 311.086L227.502 310.316ZM228.725 316H229.817V312.808C229.817 311.31 230.405 310.372 231.735 310.372C231.931 310.372 232.141 310.4 232.323 310.456L232.393 309.35C232.239 309.294 232.085 309.28 231.945 309.28C230.867 309.28 230.055 309.882 229.761 310.526H229.733C229.733 310.162 229.705 309.798 229.705 309.448H228.669C228.669 309.882 228.725 310.4 228.725 311.002V316ZM233.745 316H234.837V309.448H233.745V316ZM233.493 306.886C233.493 307.348 233.829 307.684 234.291 307.684C234.753 307.684 235.089 307.348 235.089 306.886C235.089 306.452 234.739 306.088 234.291 306.088C233.843 306.088 233.493 306.452 233.493 306.886ZM236.955 319.192H238.047V314.838H238.075C238.481 315.58 239.419 316.168 240.595 316.168C242.429 316.168 243.871 314.684 243.871 312.724C243.871 310.736 242.485 309.28 240.427 309.28C239.475 309.28 238.677 309.7 238.075 310.4H238.047V309.448H236.955V319.192ZM238.047 312.724C238.047 311.352 238.957 310.288 240.371 310.288C241.785 310.288 242.695 311.352 242.695 312.724C242.695 314.096 241.785 315.16 240.371 315.16C238.957 315.16 238.047 314.096 238.047 312.724ZM249.153 309.448H247.221V307.586H246.129V309.448H244.701V310.372H246.129V313.97C246.129 315.328 246.381 316.168 247.935 316.168C248.341 316.168 248.831 316.098 249.209 315.93L249.167 314.936C248.873 315.09 248.523 315.16 248.201 315.16C247.235 315.16 247.221 314.488 247.221 313.648V310.372H249.153V309.448ZM250.589 316H251.681V309.448H250.589V316ZM250.337 306.886C250.337 307.348 250.673 307.684 251.135 307.684C251.597 307.684 251.933 307.348 251.933 306.886C251.933 306.452 251.583 306.088 251.135 306.088C250.687 306.088 250.337 306.452 250.337 306.886ZM253.476 312.724C253.476 314.768 254.96 316.168 256.976 316.168C258.992 316.168 260.476 314.768 260.476 312.724C260.476 310.68 258.992 309.28 256.976 309.28C254.96 309.28 253.476 310.68 253.476 312.724ZM254.652 312.724C254.652 311.352 255.562 310.288 256.976 310.288C258.39 310.288 259.3 311.352 259.3 312.724C259.3 314.096 258.39 315.16 256.976 315.16C255.562 315.16 254.652 314.096 254.652 312.724ZM262.167 316H263.259V312.808C263.259 311.31 263.875 310.288 265.289 310.288C266.311 310.288 266.787 310.974 266.787 312.066V316H267.879V311.954C267.879 310.372 267.109 309.28 265.387 309.28C264.309 309.28 263.497 309.882 263.203 310.526H263.175C263.175 310.162 263.147 309.798 263.147 309.448H262.111C262.111 309.882 262.167 310.4 262.167 311.002V316ZM274.445 311.002C274.963 310.526 275.691 310.288 276.391 310.288C277.413 310.288 278.015 310.778 278.015 311.73V311.926H277.595C275.985 311.926 273.465 312.052 273.465 314.222C273.465 315.496 274.571 316.168 275.901 316.168C276.895 316.168 277.623 315.692 278.057 315.02H278.085C278.085 315.3 278.085 315.706 278.155 316H279.205C279.149 315.664 279.107 315.244 279.107 314.866V312.052C279.107 310.204 278.295 309.28 276.363 309.28C275.411 309.28 274.431 309.602 273.759 310.288L274.445 311.002ZM278.015 312.85V313.27C277.987 314.334 277.343 315.244 276.083 315.244C275.257 315.244 274.641 314.936 274.641 314.11C274.641 313.228 275.537 312.85 276.923 312.85H278.015ZM281.102 316H282.194V312.808C282.194 311.31 282.782 310.372 284.112 310.372C284.308 310.372 284.518 310.4 284.7 310.456L284.77 309.35C284.616 309.294 284.462 309.28 284.322 309.28C283.244 309.28 282.432 309.882 282.138 310.526H282.11C282.11 310.162 282.082 309.798 282.082 309.448H281.046C281.046 309.882 281.102 310.4 281.102 311.002V316ZM290.804 314.166C290.286 314.824 289.656 315.16 288.718 315.16C287.528 315.16 286.66 314.194 286.576 313.06H291.868V312.71C291.868 310.54 290.608 309.28 288.76 309.28C286.828 309.28 285.4 310.694 285.4 312.724C285.4 314.628 286.66 316.168 288.718 316.168C289.936 316.168 290.86 315.804 291.63 314.81L290.804 314.166ZM286.576 312.136C286.716 311.03 287.514 310.288 288.718 310.288C289.922 310.288 290.65 311.03 290.692 312.136H286.576ZM294.159 311.002C294.677 310.526 295.405 310.288 296.105 310.288C297.127 310.288 297.729 310.778 297.729 311.73V311.926H297.309C295.699 311.926 293.179 312.052 293.179 314.222C293.179 315.496 294.285 316.168 295.615 316.168C296.609 316.168 297.337 315.692 297.771 315.02H297.799C297.799 315.3 297.799 315.706 297.869 316H298.919C298.863 315.664 298.821 315.244 298.821 314.866V312.052C298.821 310.204 298.009 309.28 296.077 309.28C295.125 309.28 294.145 309.602 293.473 310.288L294.159 311.002ZM297.729 312.85V313.27C297.701 314.334 297.057 315.244 295.797 315.244C294.971 315.244 294.355 314.936 294.355 314.11C294.355 313.228 295.251 312.85 296.637 312.85H297.729Z" fill="black"/>
</g>
<path d="M11.04 359.664H7.088V360.912H9.696V364.384C8.864 364.8 7.792 365.04 6.88 365.04C4.096 365.04 2.192 363.04 2.192 360.336C2.192 357.584 4.16 355.632 6.752 355.632C7.904 355.632 9.072 356.096 9.84 356.928L10.848 355.872C9.776 354.784 8.336 354.384 6.848 354.384C3.456 354.384 0.752 356.768 0.752 360.336C0.752 363.888 3.28 366.288 6.8 366.288C8.272 366.288 9.744 365.952 11.04 365.232V359.664ZM13.6371 366H14.8851V362.352C14.8851 360.64 15.5571 359.568 17.0771 359.568C17.3011 359.568 17.5411 359.6 17.7491 359.664L17.8291 358.4C17.6531 358.336 17.4771 358.32 17.3171 358.32C16.0851 358.32 15.1571 359.008 14.8211 359.744H14.7891C14.7891 359.328 14.7571 358.912 14.7571 358.512H13.5731C13.5731 359.008 13.6371 359.6 13.6371 360.288V366ZM18.5489 362.256C18.5489 364.592 20.2449 366.192 22.5489 366.192C24.8529 366.192 26.5489 364.592 26.5489 362.256C26.5489 359.92 24.8529 358.32 22.5489 358.32C20.2449 358.32 18.5489 359.92 18.5489 362.256ZM19.8929 362.256C19.8929 360.688 20.9329 359.472 22.5489 359.472C24.1649 359.472 25.2049 360.688 25.2049 362.256C25.2049 363.824 24.1649 365.04 22.5489 365.04C20.9329 365.04 19.8929 363.824 19.8929 362.256ZM28.4169 369.648H29.6649V364.672H29.6969C30.1609 365.52 31.2329 366.192 32.5769 366.192C34.6729 366.192 36.3209 364.496 36.3209 362.256C36.3209 359.984 34.7369 358.32 32.3849 358.32C31.2969 358.32 30.3849 358.8 29.6969 359.6H29.6649V358.512H28.4169V369.648ZM29.6649 362.256C29.6649 360.688 30.7049 359.472 32.3209 359.472C33.9369 359.472 34.9769 360.688 34.9769 362.256C34.9769 363.824 33.9369 365.04 32.3209 365.04C30.7049 365.04 29.6649 363.824 29.6649 362.256ZM44.7901 358.512H43.5421V362.16C43.5421 363.872 42.8381 365.04 41.2221 365.04C40.0541 365.04 39.5101 364.256 39.5101 363.008V358.512H38.2621V363.136C38.2621 364.944 39.1421 366.192 41.1101 366.192C42.3421 366.192 43.2701 365.504 43.6061 364.768H43.6381C43.6381 365.184 43.6701 365.6 43.6701 366H44.8541C44.8541 365.504 44.7901 364.912 44.7901 364.224V358.512ZM51.8299 366H55.2059C57.3019 366 59.6219 365.328 59.6219 362.832C59.6219 361.344 58.5179 360.176 57.0619 360.048V360.016C58.2779 359.648 59.0459 358.768 59.0459 357.456C59.0459 355.376 57.1579 354.672 55.2859 354.672H51.8299V366ZM53.1739 355.92H55.1739C56.3899 355.92 57.6059 356.24 57.6059 357.632C57.6059 359.2 56.2939 359.472 55.0299 359.472H53.1739V355.92ZM53.1739 360.72H55.4779C56.8379 360.72 58.1819 361.2 58.1819 362.784C58.1819 364.224 56.7579 364.752 55.4459 364.752H53.1739V360.72ZM69.508 354.672H60.676V355.92H64.42V366H65.764V355.92H69.508V354.672ZM71.0955 366H72.4395V356.592H72.4715L79.0315 366H80.7275V354.672H79.3835V364.08H79.3515L72.7915 354.672H71.0955V366Z" fill="black"/>
<g clip-path="url(#clip10_1_269)">
<path d="M133.408 348H134.752V342.912H140.032V341.664H134.752V337.92H140.432V336.672H133.408V348ZM142.187 348H143.435V340.512H142.187V348ZM141.899 337.584C141.899 338.112 142.283 338.496 142.811 338.496C143.339 338.496 143.723 338.112 143.723 337.584C143.723 337.088 143.323 336.672 142.811 336.672C142.299 336.672 141.899 337.088 141.899 337.584ZM151.662 345.904C151.07 346.656 150.35 347.04 149.278 347.04C147.918 347.04 146.926 345.936 146.83 344.64H152.878V344.24C152.878 341.76 151.438 340.32 149.326 340.32C147.118 340.32 145.486 341.936 145.486 344.256C145.486 346.432 146.926 348.192 149.278 348.192C150.67 348.192 151.726 347.776 152.606 346.64L151.662 345.904ZM146.83 343.584C146.99 342.32 147.902 341.472 149.278 341.472C150.654 341.472 151.486 342.32 151.534 343.584H146.83ZM154.921 348H156.169V335.904H154.921V348ZM164.877 348H166.125V335.904H164.877V341.6H164.845C164.157 340.8 163.245 340.32 162.157 340.32C159.805 340.32 158.221 341.984 158.221 344.256C158.221 346.496 159.869 348.192 161.965 348.192C163.309 348.192 164.381 347.52 164.845 346.672H164.877V348ZM164.877 344.256C164.877 345.824 163.837 347.04 162.221 347.04C160.605 347.04 159.565 345.824 159.565 344.256C159.565 342.688 160.605 341.472 162.221 341.472C163.837 341.472 164.877 342.688 164.877 344.256ZM173.111 348H179.639V346.752H174.455V336.672H173.111V348ZM181.575 342.288C182.167 341.744 182.999 341.472 183.799 341.472C184.967 341.472 185.655 342.032 185.655 343.12V343.344H185.175C183.335 343.344 180.455 343.488 180.455 345.968C180.455 347.424 181.719 348.192 183.239 348.192C184.375 348.192 185.207 347.648 185.703 346.88H185.735C185.735 347.2 185.735 347.664 185.815 348H187.015C186.951 347.616 186.903 347.136 186.903 346.704V343.488C186.903 341.376 185.975 340.32 183.767 340.32C182.679 340.32 181.559 340.688 180.791 341.472L181.575 342.288ZM185.655 344.4V344.88C185.623 346.096 184.887 347.136 183.447 347.136C182.503 347.136 181.799 346.784 181.799 345.84C181.799 344.832 182.823 344.4 184.407 344.4H185.655ZM189.12 348H190.368V346.672H190.4C190.864 347.52 191.936 348.192 193.28 348.192C195.376 348.192 197.024 346.496 197.024 344.256C197.024 341.984 195.44 340.32 193.088 340.32C192 340.32 191.088 340.8 190.4 341.6H190.368V335.904H189.12V348ZM190.368 344.256C190.368 342.688 191.408 341.472 193.024 341.472C194.64 341.472 195.68 342.688 195.68 344.256C195.68 345.824 194.64 347.04 193.024 347.04C191.408 347.04 190.368 345.824 190.368 344.256ZM204.709 345.904C204.117 346.656 203.397 347.04 202.325 347.04C200.965 347.04 199.973 345.936 199.877 344.64H205.925V344.24C205.925 341.76 204.485 340.32 202.373 340.32C200.165 340.32 198.533 341.936 198.533 344.256C198.533 346.432 199.973 348.192 202.325 348.192C203.717 348.192 204.773 347.776 205.653 346.64L204.709 345.904ZM199.877 343.584C200.037 342.32 200.949 341.472 202.325 341.472C203.701 341.472 204.533 342.32 204.581 343.584H199.877ZM207.968 348H209.216V335.904H207.968V348Z" fill="black"/>
</g>
<g clip-path="url(#clip11_1_269)">
<rect x="132" y="358" width="320" height="36" rx="4" fill="white"/>
<path opacity="0.5" d="M144.096 380H145.616L146.784 377.216H152.448L153.6 380H155.168L150.352 368.672H149.088L144.096 380ZM151.936 375.968H147.312L149.664 370.4H149.696L151.936 375.968ZM165.17 368.672H163.826V375.488C163.826 377.312 163.154 379.04 160.898 379.04C158.642 379.04 157.97 377.312 157.97 375.488V368.672H156.626V375.68C156.626 378.144 157.778 380.288 160.898 380.288C164.018 380.288 165.17 378.144 165.17 375.68V368.672ZM167.731 380H172.083C174.307 380 177.635 378.512 177.635 374.336C177.635 370.16 174.307 368.672 172.083 368.672H167.731V380ZM169.075 369.92H171.635C174.227 369.92 176.195 371.232 176.195 374.336C176.195 377.44 174.227 378.752 171.635 378.752H169.075V369.92Z" fill="#9EA6B5"/>
<path opacity="0.5" d="M188.408 380H189.752V374.912H192.024C193.624 374.912 195.736 374.256 195.736 371.776C195.736 369.408 193.848 368.672 191.768 368.672H188.408V380ZM189.752 369.92H192.024C193.368 369.92 194.296 370.528 194.296 371.792C194.296 373.056 193.368 373.664 192.024 373.664H189.752V369.92ZM197.78 380H199.028V367.904H197.78V380ZM202.2 374.288C202.792 373.744 203.624 373.472 204.424 373.472C205.592 373.472 206.28 374.032 206.28 375.12V375.344H205.8C203.96 375.344 201.08 375.488 201.08 377.968C201.08 379.424 202.344 380.192 203.864 380.192C205 380.192 205.832 379.648 206.328 378.88H206.36C206.36 379.2 206.36 379.664 206.44 380H207.64C207.576 379.616 207.528 379.136 207.528 378.704V375.488C207.528 373.376 206.6 372.32 204.392 372.32C203.304 372.32 202.184 372.688 201.416 373.472L202.2 374.288ZM206.28 376.4V376.88C206.248 378.096 205.512 379.136 204.072 379.136C203.128 379.136 202.424 378.784 202.424 377.84C202.424 376.832 203.448 376.4 205.032 376.4H206.28ZM216.129 373.504C215.377 372.688 214.353 372.32 213.249 372.32C210.945 372.32 209.377 373.984 209.377 376.256C209.377 378.56 210.929 380.192 213.249 380.192C214.337 380.192 215.361 379.824 216.081 378.992L215.153 378.112C214.689 378.752 214.065 379.04 213.249 379.04C211.729 379.04 210.721 377.792 210.721 376.256C210.721 374.72 211.569 373.472 213.249 373.472C214.001 373.472 214.609 373.744 215.137 374.384L216.129 373.504ZM223.272 377.904C222.68 378.656 221.96 379.04 220.888 379.04C219.528 379.04 218.536 377.936 218.44 376.64H224.488V376.24C224.488 373.76 223.048 372.32 220.936 372.32C218.728 372.32 217.096 373.936 217.096 376.256C217.096 378.432 218.536 380.192 220.888 380.192C222.28 380.192 223.336 379.776 224.216 378.64L223.272 377.904ZM218.44 375.584C218.6 374.32 219.512 373.472 220.888 373.472C222.264 373.472 223.096 374.32 223.144 375.584H218.44ZM226.418 380H227.666V376.352C227.666 374.64 228.37 373.472 229.986 373.472C231.154 373.472 231.698 374.256 231.698 375.504V380H232.946V375.376C232.946 373.568 232.066 372.32 230.098 372.32C228.93 372.32 228.034 372.96 227.698 373.552H227.666V367.904H226.418V380ZM234.877 376.256C234.877 378.592 236.573 380.192 238.877 380.192C241.181 380.192 242.877 378.592 242.877 376.256C242.877 373.92 241.181 372.32 238.877 372.32C236.573 372.32 234.877 373.92 234.877 376.256ZM236.221 376.256C236.221 374.688 237.261 373.472 238.877 373.472C240.493 373.472 241.533 374.688 241.533 376.256C241.533 377.824 240.493 379.04 238.877 379.04C237.261 379.04 236.221 377.824 236.221 376.256ZM244.921 380H246.169V367.904H244.921V380ZM254.877 380H256.125V367.904H254.877V373.6H254.845C254.157 372.8 253.245 372.32 252.157 372.32C249.805 372.32 248.221 373.984 248.221 376.256C248.221 378.496 249.869 380.192 251.965 380.192C253.309 380.192 254.381 379.52 254.845 378.672H254.877V380ZM254.877 376.256C254.877 377.824 253.837 379.04 252.221 379.04C250.605 379.04 249.565 377.824 249.565 376.256C249.565 374.688 250.605 373.472 252.221 373.472C253.837 373.472 254.877 374.688 254.877 376.256ZM264.178 377.904C263.586 378.656 262.866 379.04 261.794 379.04C260.434 379.04 259.442 377.936 259.346 376.64H265.394V376.24C265.394 373.76 263.954 372.32 261.842 372.32C259.634 372.32 258.002 373.936 258.002 376.256C258.002 378.432 259.442 380.192 261.794 380.192C263.186 380.192 264.242 379.776 265.122 378.64L264.178 377.904ZM259.346 375.584C259.506 374.32 260.418 373.472 261.794 373.472C263.17 373.472 264.002 374.32 264.05 375.584H259.346ZM267.325 380H268.573V376.352C268.573 374.64 269.245 373.568 270.765 373.568C270.989 373.568 271.229 373.6 271.437 373.664L271.517 372.4C271.341 372.336 271.165 372.32 271.005 372.32C269.773 372.32 268.845 373.008 268.509 373.744H268.477C268.477 373.328 268.445 372.912 268.445 372.512H267.261C267.261 373.008 267.325 373.6 267.325 374.288V380Z" fill="#9EA6B5"/>
<path d="M437.332 370.167C437.267 370.167 437.202 370.154 437.141 370.129C437.08 370.104 437.025 370.067 436.979 370.02L433.999 367.04L431.019 370C430.925 370.061 430.813 370.089 430.702 370.078C430.59 370.068 430.485 370.021 430.404 369.944C430.322 369.867 430.269 369.765 430.253 369.655C430.236 369.544 430.257 369.431 430.312 369.333L433.646 366C433.739 365.906 433.867 365.854 433.999 365.854C434.132 365.854 434.259 365.906 434.352 366L437.686 369.333C437.779 369.427 437.832 369.554 437.832 369.687C437.832 369.819 437.779 369.946 437.686 370.04C437.589 370.127 437.462 370.173 437.332 370.167V370.167Z" fill="#6B778C"/>
<path d="M433.999 386.167C433.933 386.167 433.868 386.154 433.808 386.129C433.747 386.104 433.692 386.067 433.646 386.02L430.312 382.687C430.246 382.589 430.216 382.472 430.228 382.355C430.239 382.237 430.292 382.128 430.377 382.046C430.461 381.964 430.572 381.914 430.69 381.906C430.807 381.897 430.924 381.931 431.019 382L433.999 384.96L436.979 382C437.073 381.939 437.185 381.911 437.296 381.922C437.408 381.932 437.513 381.979 437.594 382.056C437.676 382.133 437.729 382.235 437.746 382.345C437.762 382.456 437.741 382.569 437.686 382.667L434.352 386C434.308 386.05 434.254 386.091 434.193 386.12C434.132 386.148 434.066 386.164 433.999 386.167V386.167Z" fill="#6B778C"/>
</g>
<rect x="132.5" y="358.5" width="319" height="35" rx="3.5" stroke="#9EA6B5"/>
<defs>
<clipPath id="clip0_1_269">
<rect width="91" height="24" fill="white" transform="translate(132)"/>
</clipPath>
<clipPath id="clip1_1_269">
<rect x="132" y="28" width="320" height="36" rx="4" fill="white"/>
</clipPath>
<clipPath id="clip2_1_269">
<rect width="79" height="24" fill="white" transform="translate(132 72)"/>
</clipPath>
<clipPath id="clip3_1_269">
<rect x="132" y="100" width="320" height="36" rx="4" fill="white"/>
</clipPath>
<clipPath id="clip4_1_269">
<rect width="91" height="24" fill="white" transform="translate(132 144)"/>
</clipPath>
<clipPath id="clip5_1_269">
<rect x="132" y="172" width="320" height="36" rx="4" fill="white"/>
</clipPath>
<clipPath id="clip6_1_269">
<rect width="320" height="17" fill="white" transform="translate(132 212)"/>
</clipPath>
<clipPath id="clip7_1_269">
<rect width="79" height="24" fill="white" transform="translate(132 237)"/>
</clipPath>
<clipPath id="clip8_1_269">
<rect x="132" y="265" width="320" height="36" rx="4" fill="white"/>
</clipPath>
<clipPath id="clip9_1_269">
<rect width="320" height="17" fill="white" transform="translate(132 305)"/>
</clipPath>
<clipPath id="clip10_1_269">
<rect width="79" height="24" fill="white" transform="translate(132 330)"/>
</clipPath>
<clipPath id="clip11_1_269">
<rect x="132" y="358" width="320" height="36" rx="4" fill="white"/>
</clipPath>
</defs>
</svg>
