<svg width="400" height="396" viewBox="0 0 400 396" fill="none" xmlns="http://www.w3.org/2000/svg">
<path d="M1.2 36H5.552C7.776 36 11.104 34.512 11.104 30.336C11.104 26.16 7.776 24.672 5.552 24.672H1.2V36ZM2.544 25.92H5.104C7.696 25.92 9.664 27.232 9.664 30.336C9.664 33.44 7.696 34.752 5.104 34.752H2.544V25.92ZM18.7874 33.904C18.1954 34.656 17.4754 35.04 16.4034 35.04C15.0434 35.04 14.0514 33.936 13.9554 32.64H20.0034V32.24C20.0034 29.76 18.5634 28.32 16.4514 28.32C14.2434 28.32 12.6114 29.936 12.6114 32.256C12.6114 34.432 14.0514 36.192 16.4034 36.192C17.7954 36.192 18.8514 35.776 19.7314 34.64L18.7874 33.904ZM13.9554 31.584C14.1154 30.32 15.0274 29.472 16.4034 29.472C17.7794 29.472 18.6114 30.32 18.6594 31.584H13.9554ZM22.574 36H23.822V29.568H25.646V28.512H23.822V27.104C23.822 25.808 23.87 24.864 25.166 24.864C25.454 24.864 25.742 24.928 26.014 25.024L26.19 23.904C25.95 23.776 25.55 23.712 25.23 23.712C23.214 23.712 22.574 25.008 22.574 26.832V28.512H20.942V29.568H22.574V36ZM27.6689 30.288C28.2609 29.744 29.0929 29.472 29.8929 29.472C31.0609 29.472 31.7489 30.032 31.7489 31.12V31.344H31.2689C29.4289 31.344 26.5489 31.488 26.5489 33.968C26.5489 35.424 27.8129 36.192 29.3329 36.192C30.4689 36.192 31.3009 35.648 31.7969 34.88H31.8289C31.8289 35.2 31.8289 35.664 31.9089 36H33.1089C33.0449 35.616 32.9969 35.136 32.9969 34.704V31.488C32.9969 29.376 32.0689 28.32 29.8609 28.32C28.7729 28.32 27.6529 28.688 26.8849 29.472L27.6689 30.288ZM31.7489 32.4V32.88C31.7169 34.096 30.9809 35.136 29.5409 35.136C28.5969 35.136 27.8929 34.784 27.8929 33.84C27.8929 32.832 28.9169 32.4 30.5009 32.4H31.7489ZM41.8058 28.512H40.5578V32.16C40.5578 33.872 39.8538 35.04 38.2378 35.04C37.0698 35.04 36.5258 34.256 36.5258 33.008V28.512H35.2778V33.136C35.2778 34.944 36.1578 36.192 38.1258 36.192C39.3578 36.192 40.2858 35.504 40.6218 34.768H40.6538C40.6538 35.184 40.6858 35.6 40.6858 36H41.8698C41.8698 35.504 41.8058 34.912 41.8058 34.224V28.512ZM44.2804 36H45.5284V23.904H44.2804V36ZM52.1081 28.512H49.9001V26.384H48.6521V28.512H47.0201V29.568H48.6521V33.68C48.6521 35.232 48.9401 36.192 50.7161 36.192C51.1801 36.192 51.7401 36.112 52.1721 35.92L52.1241 34.784C51.7881 34.96 51.3881 35.04 51.0201 35.04C49.9161 35.04 49.9001 34.272 49.9001 33.312V29.568H52.1081V28.512Z" fill="black"/>
<g clip-path="url(#clip0_161_27083)">
<path d="M81.408 18H82.752V12.912H88.032V11.664H82.752V7.92H88.432V6.672H81.408V18ZM90.1866 18H91.4346V10.512H90.1866V18ZM89.8986 7.584C89.8986 8.112 90.2826 8.496 90.8106 8.496C91.3386 8.496 91.7226 8.112 91.7226 7.584C91.7226 7.088 91.3226 6.672 90.8106 6.672C90.2986 6.672 89.8986 7.088 89.8986 7.584ZM99.6624 15.904C99.0704 16.656 98.3504 17.04 97.2784 17.04C95.9184 17.04 94.9264 15.936 94.8304 14.64H100.878V14.24C100.878 11.76 99.4384 10.32 97.3264 10.32C95.1184 10.32 93.4864 11.936 93.4864 14.256C93.4864 16.432 94.9264 18.192 97.2784 18.192C98.6704 18.192 99.7264 17.776 100.606 16.64L99.6624 15.904ZM94.8304 13.584C94.9904 12.32 95.9024 11.472 97.2784 11.472C98.6544 11.472 99.4864 12.32 99.5344 13.584H94.8304ZM102.921 18H104.169V5.904H102.921V18ZM112.877 18H114.125V5.904H112.877V11.6H112.845C112.157 10.8 111.245 10.32 110.157 10.32C107.805 10.32 106.221 11.984 106.221 14.256C106.221 16.496 107.869 18.192 109.965 18.192C111.309 18.192 112.381 17.52 112.845 16.672H112.877V18ZM112.877 14.256C112.877 15.824 111.837 17.04 110.221 17.04C108.605 17.04 107.565 15.824 107.565 14.256C107.565 12.688 108.605 11.472 110.221 11.472C111.837 11.472 112.877 12.688 112.877 14.256ZM121.111 18H127.639V16.752H122.455V6.672H121.111V18ZM129.575 12.288C130.167 11.744 130.999 11.472 131.799 11.472C132.967 11.472 133.655 12.032 133.655 13.12V13.344H133.175C131.335 13.344 128.455 13.488 128.455 15.968C128.455 17.424 129.719 18.192 131.239 18.192C132.375 18.192 133.207 17.648 133.703 16.88H133.735C133.735 17.2 133.735 17.664 133.815 18H135.015C134.951 17.616 134.903 17.136 134.903 16.704V13.488C134.903 11.376 133.975 10.32 131.767 10.32C130.679 10.32 129.559 10.688 128.791 11.472L129.575 12.288ZM133.655 14.4V14.88C133.623 16.096 132.887 17.136 131.447 17.136C130.503 17.136 129.799 16.784 129.799 15.84C129.799 14.832 130.823 14.4 132.407 14.4H133.655ZM137.12 18H138.368V16.672H138.4C138.864 17.52 139.936 18.192 141.28 18.192C143.376 18.192 145.024 16.496 145.024 14.256C145.024 11.984 143.44 10.32 141.088 10.32C140 10.32 139.088 10.8 138.4 11.6H138.368V5.904H137.12V18ZM138.368 14.256C138.368 12.688 139.408 11.472 141.024 11.472C142.64 11.472 143.68 12.688 143.68 14.256C143.68 15.824 142.64 17.04 141.024 17.04C139.408 17.04 138.368 15.824 138.368 14.256ZM152.709 15.904C152.117 16.656 151.397 17.04 150.325 17.04C148.965 17.04 147.973 15.936 147.877 14.64H153.925V14.24C153.925 11.76 152.485 10.32 150.373 10.32C148.165 10.32 146.533 11.936 146.533 14.256C146.533 16.432 147.973 18.192 150.325 18.192C151.717 18.192 152.773 17.776 153.653 16.64L152.709 15.904ZM147.877 13.584C148.037 12.32 148.949 11.472 150.325 11.472C151.701 11.472 152.533 12.32 152.581 13.584H147.877ZM155.968 18H157.216V5.904H155.968V18Z" fill="#333333"/>
<path opacity="0.8" d="M167.384 4.672H166.04V6.944L163.864 6.192L163.448 7.472L165.64 8.224L164.264 10.032L165.336 10.848L166.68 9.008L168.056 10.896L169.16 10.096L167.784 8.224L169.96 7.52L169.544 6.24L167.384 6.944V4.672Z" fill="#DB3259"/>
</g>
<rect x="80.5" y="28.5" width="319" height="35" rx="3.5" fill="white"/>
<path opacity="0.5" d="M93.408 50H94.752V44.912H97.024C98.624 44.912 100.736 44.256 100.736 41.776C100.736 39.408 98.848 38.672 96.768 38.672H93.408V50ZM94.752 39.92H97.024C98.368 39.92 99.296 40.528 99.296 41.792C99.296 43.056 98.368 43.664 97.024 43.664H94.752V39.92ZM102.78 50H104.028V37.904H102.78V50ZM107.2 44.288C107.792 43.744 108.624 43.472 109.424 43.472C110.592 43.472 111.28 44.032 111.28 45.12V45.344H110.8C108.96 45.344 106.08 45.488 106.08 47.968C106.08 49.424 107.344 50.192 108.864 50.192C110 50.192 110.832 49.648 111.328 48.88H111.36C111.36 49.2 111.36 49.664 111.44 50H112.64C112.576 49.616 112.528 49.136 112.528 48.704V45.488C112.528 43.376 111.6 42.32 109.392 42.32C108.304 42.32 107.184 42.688 106.416 43.472L107.2 44.288ZM111.28 46.4V46.88C111.248 48.096 110.512 49.136 109.072 49.136C108.128 49.136 107.424 48.784 107.424 47.84C107.424 46.832 108.448 46.4 110.032 46.4H111.28ZM121.129 43.504C120.377 42.688 119.353 42.32 118.249 42.32C115.945 42.32 114.377 43.984 114.377 46.256C114.377 48.56 115.929 50.192 118.249 50.192C119.337 50.192 120.361 49.824 121.081 48.992L120.153 48.112C119.689 48.752 119.065 49.04 118.249 49.04C116.729 49.04 115.721 47.792 115.721 46.256C115.721 44.72 116.569 43.472 118.249 43.472C119.001 43.472 119.609 43.744 120.137 44.384L121.129 43.504ZM128.272 47.904C127.68 48.656 126.96 49.04 125.888 49.04C124.528 49.04 123.536 47.936 123.44 46.64H129.488V46.24C129.488 43.76 128.048 42.32 125.936 42.32C123.728 42.32 122.096 43.936 122.096 46.256C122.096 48.432 123.536 50.192 125.888 50.192C127.28 50.192 128.336 49.776 129.216 48.64L128.272 47.904ZM123.44 45.584C123.6 44.32 124.512 43.472 125.888 43.472C127.264 43.472 128.096 44.32 128.144 45.584H123.44ZM131.418 50H132.666V46.352C132.666 44.64 133.37 43.472 134.986 43.472C136.154 43.472 136.698 44.256 136.698 45.504V50H137.946V45.376C137.946 43.568 137.066 42.32 135.098 42.32C133.93 42.32 133.034 42.96 132.698 43.552H132.666V37.904H131.418V50ZM139.877 46.256C139.877 48.592 141.573 50.192 143.877 50.192C146.181 50.192 147.877 48.592 147.877 46.256C147.877 43.92 146.181 42.32 143.877 42.32C141.573 42.32 139.877 43.92 139.877 46.256ZM141.221 46.256C141.221 44.688 142.261 43.472 143.877 43.472C145.493 43.472 146.533 44.688 146.533 46.256C146.533 47.824 145.493 49.04 143.877 49.04C142.261 49.04 141.221 47.824 141.221 46.256ZM149.921 50H151.169V37.904H149.921V50ZM159.877 50H161.125V37.904H159.877V43.6H159.845C159.157 42.8 158.245 42.32 157.157 42.32C154.805 42.32 153.221 43.984 153.221 46.256C153.221 48.496 154.869 50.192 156.965 50.192C158.309 50.192 159.381 49.52 159.845 48.672H159.877V50ZM159.877 46.256C159.877 47.824 158.837 49.04 157.221 49.04C155.605 49.04 154.565 47.824 154.565 46.256C154.565 44.688 155.605 43.472 157.221 43.472C158.837 43.472 159.877 44.688 159.877 46.256ZM169.178 47.904C168.586 48.656 167.866 49.04 166.794 49.04C165.434 49.04 164.442 47.936 164.346 46.64H170.394V46.24C170.394 43.76 168.954 42.32 166.842 42.32C164.634 42.32 163.002 43.936 163.002 46.256C163.002 48.432 164.442 50.192 166.794 50.192C168.186 50.192 169.242 49.776 170.122 48.64L169.178 47.904ZM164.346 45.584C164.506 44.32 165.418 43.472 166.794 43.472C168.17 43.472 169.002 44.32 169.05 45.584H164.346ZM172.325 50H173.573V46.352C173.573 44.64 174.245 43.568 175.765 43.568C175.989 43.568 176.229 43.6 176.437 43.664L176.517 42.4C176.341 42.336 176.165 42.32 176.005 42.32C174.773 42.32 173.845 43.008 173.509 43.744H173.477C173.477 43.328 173.445 42.912 173.445 42.512H172.261C172.261 43.008 172.325 43.6 172.325 44.288V50Z" fill="#9EA6B5"/>
<rect x="80.5" y="28.5" width="319" height="35" rx="3.5" stroke="#9EA6B5"/>
<path d="M0.096 112H1.616L2.784 109.216H8.448L9.6 112H11.168L6.352 100.672H5.088L0.096 112ZM7.936 107.968H3.312L5.664 102.4H5.696L7.936 107.968ZM18.7696 105.504C18.0176 104.688 16.9936 104.32 15.8896 104.32C13.5856 104.32 12.0176 105.984 12.0176 108.256C12.0176 110.56 13.5696 112.192 15.8896 112.192C16.9776 112.192 18.0016 111.824 18.7216 110.992L17.7936 110.112C17.3296 110.752 16.7056 111.04 15.8896 111.04C14.3696 111.04 13.3616 109.792 13.3616 108.256C13.3616 106.72 14.2096 105.472 15.8896 105.472C16.6416 105.472 17.2496 105.744 17.7776 106.384L18.7696 105.504ZM24.2644 104.512H22.0564V102.384H20.8084V104.512H19.1764V105.568H20.8084V109.68C20.8084 111.232 21.0964 112.192 22.8724 112.192C23.3364 112.192 23.8964 112.112 24.3284 111.92L24.2804 110.784C23.9444 110.96 23.5444 111.04 23.1764 111.04C22.0724 111.04 22.0564 110.272 22.0564 109.312V105.568H24.2644V104.512ZM25.9054 112H27.1534V104.512H25.9054V112ZM25.6174 101.584C25.6174 102.112 26.0014 102.496 26.5294 102.496C27.0574 102.496 27.4414 102.112 27.4414 101.584C27.4414 101.088 27.0414 100.672 26.5294 100.672C26.0174 100.672 25.6174 101.088 25.6174 101.584ZM36.0051 104.512H34.6611L32.4371 110.384H32.4051L30.0691 104.512H28.6131L31.6691 112H33.0451L36.0051 104.512ZM43.0999 109.904C42.5079 110.656 41.7879 111.04 40.7159 111.04C39.3559 111.04 38.3639 109.936 38.2679 108.64H44.3159V108.24C44.3159 105.76 42.8759 104.32 40.7639 104.32C38.5559 104.32 36.9239 105.936 36.9239 108.256C36.9239 110.432 38.3639 112.192 40.7159 112.192C42.1079 112.192 43.1639 111.776 44.0439 110.64L43.0999 109.904ZM38.2679 107.584C38.4279 106.32 39.3399 105.472 40.7159 105.472C42.0919 105.472 42.9239 106.32 42.9719 107.584H38.2679Z" fill="black"/>
<g clip-path="url(#clip1_161_27083)">
<path d="M81.408 94H82.752V88.912H88.032V87.664H82.752V83.92H88.432V82.672H81.408V94ZM90.1866 94H91.4346V86.512H90.1866V94ZM89.8986 83.584C89.8986 84.112 90.2826 84.496 90.8106 84.496C91.3386 84.496 91.7226 84.112 91.7226 83.584C91.7226 83.088 91.3226 82.672 90.8106 82.672C90.2986 82.672 89.8986 83.088 89.8986 83.584ZM99.6624 91.904C99.0704 92.656 98.3504 93.04 97.2784 93.04C95.9184 93.04 94.9264 91.936 94.8304 90.64H100.878V90.24C100.878 87.76 99.4384 86.32 97.3264 86.32C95.1184 86.32 93.4864 87.936 93.4864 90.256C93.4864 92.432 94.9264 94.192 97.2784 94.192C98.6704 94.192 99.7264 93.776 100.606 92.64L99.6624 91.904ZM94.8304 89.584C94.9904 88.32 95.9024 87.472 97.2784 87.472C98.6544 87.472 99.4864 88.32 99.5344 89.584H94.8304ZM102.921 94H104.169V81.904H102.921V94ZM112.877 94H114.125V81.904H112.877V87.6H112.845C112.157 86.8 111.245 86.32 110.157 86.32C107.805 86.32 106.221 87.984 106.221 90.256C106.221 92.496 107.869 94.192 109.965 94.192C111.309 94.192 112.381 93.52 112.845 92.672H112.877V94ZM112.877 90.256C112.877 91.824 111.837 93.04 110.221 93.04C108.605 93.04 107.565 91.824 107.565 90.256C107.565 88.688 108.605 87.472 110.221 87.472C111.837 87.472 112.877 88.688 112.877 90.256ZM121.111 94H127.639V92.752H122.455V82.672H121.111V94ZM129.575 88.288C130.167 87.744 130.999 87.472 131.799 87.472C132.967 87.472 133.655 88.032 133.655 89.12V89.344H133.175C131.335 89.344 128.455 89.488 128.455 91.968C128.455 93.424 129.719 94.192 131.239 94.192C132.375 94.192 133.207 93.648 133.703 92.88H133.735C133.735 93.2 133.735 93.664 133.815 94H135.015C134.951 93.616 134.903 93.136 134.903 92.704V89.488C134.903 87.376 133.975 86.32 131.767 86.32C130.679 86.32 129.559 86.688 128.791 87.472L129.575 88.288ZM133.655 90.4V90.88C133.623 92.096 132.887 93.136 131.447 93.136C130.503 93.136 129.799 92.784 129.799 91.84C129.799 90.832 130.823 90.4 132.407 90.4H133.655ZM137.12 94H138.368V92.672H138.4C138.864 93.52 139.936 94.192 141.28 94.192C143.376 94.192 145.024 92.496 145.024 90.256C145.024 87.984 143.44 86.32 141.088 86.32C140 86.32 139.088 86.8 138.4 87.6H138.368V81.904H137.12V94ZM138.368 90.256C138.368 88.688 139.408 87.472 141.024 87.472C142.64 87.472 143.68 88.688 143.68 90.256C143.68 91.824 142.64 93.04 141.024 93.04C139.408 93.04 138.368 91.824 138.368 90.256ZM152.709 91.904C152.117 92.656 151.397 93.04 150.325 93.04C148.965 93.04 147.973 91.936 147.877 90.64H153.925V90.24C153.925 87.76 152.485 86.32 150.373 86.32C148.165 86.32 146.533 87.936 146.533 90.256C146.533 92.432 147.973 94.192 150.325 94.192C151.717 94.192 152.773 93.776 153.653 92.64L152.709 91.904ZM147.877 89.584C148.037 88.32 148.949 87.472 150.325 87.472C151.701 87.472 152.533 88.32 152.581 89.584H147.877ZM155.968 94H157.216V81.904H155.968V94Z" fill="#333333"/>
<path opacity="0.8" d="M167.384 80.672H166.04V82.944L163.864 82.192L163.448 83.472L165.64 84.224L164.264 86.032L165.336 86.848L166.68 85.008L168.056 86.896L169.16 86.096L167.784 84.224L169.96 83.52L169.544 82.24L167.384 82.944V80.672Z" fill="#DB3259"/>
</g>
<rect x="81" y="105" width="318" height="34" rx="3" fill="white"/>
<path opacity="0.8" d="M93.408 126H94.752V120.912H97.024C98.624 120.912 100.736 120.256 100.736 117.776C100.736 115.408 98.848 114.672 96.768 114.672H93.408V126ZM94.752 115.92H97.024C98.368 115.92 99.296 116.528 99.296 117.792C99.296 119.056 98.368 119.664 97.024 119.664H94.752V115.92ZM102.78 126H104.028V113.904H102.78V126ZM107.2 120.288C107.792 119.744 108.624 119.472 109.424 119.472C110.592 119.472 111.28 120.032 111.28 121.12V121.344H110.8C108.96 121.344 106.08 121.488 106.08 123.968C106.08 125.424 107.344 126.192 108.864 126.192C110 126.192 110.832 125.648 111.328 124.88H111.36C111.36 125.2 111.36 125.664 111.44 126H112.64C112.576 125.616 112.528 125.136 112.528 124.704V121.488C112.528 119.376 111.6 118.32 109.392 118.32C108.304 118.32 107.184 118.688 106.416 119.472L107.2 120.288ZM111.28 122.4V122.88C111.248 124.096 110.512 125.136 109.072 125.136C108.128 125.136 107.424 124.784 107.424 123.84C107.424 122.832 108.448 122.4 110.032 122.4H111.28ZM121.129 119.504C120.377 118.688 119.353 118.32 118.249 118.32C115.945 118.32 114.377 119.984 114.377 122.256C114.377 124.56 115.929 126.192 118.249 126.192C119.337 126.192 120.361 125.824 121.081 124.992L120.153 124.112C119.689 124.752 119.065 125.04 118.249 125.04C116.729 125.04 115.721 123.792 115.721 122.256C115.721 120.72 116.569 119.472 118.249 119.472C119.001 119.472 119.609 119.744 120.137 120.384L121.129 119.504ZM128.272 123.904C127.68 124.656 126.96 125.04 125.888 125.04C124.528 125.04 123.536 123.936 123.44 122.64H129.488V122.24C129.488 119.76 128.048 118.32 125.936 118.32C123.728 118.32 122.096 119.936 122.096 122.256C122.096 124.432 123.536 126.192 125.888 126.192C127.28 126.192 128.336 125.776 129.216 124.64L128.272 123.904ZM123.44 121.584C123.6 120.32 124.512 119.472 125.888 119.472C127.264 119.472 128.096 120.32 128.144 121.584H123.44ZM131.418 126H132.666V122.352C132.666 120.64 133.37 119.472 134.986 119.472C136.154 119.472 136.698 120.256 136.698 121.504V126H137.946V121.376C137.946 119.568 137.066 118.32 135.098 118.32C133.93 118.32 133.034 118.96 132.698 119.552H132.666V113.904H131.418V126ZM139.877 122.256C139.877 124.592 141.573 126.192 143.877 126.192C146.181 126.192 147.877 124.592 147.877 122.256C147.877 119.92 146.181 118.32 143.877 118.32C141.573 118.32 139.877 119.92 139.877 122.256ZM141.221 122.256C141.221 120.688 142.261 119.472 143.877 119.472C145.493 119.472 146.533 120.688 146.533 122.256C146.533 123.824 145.493 125.04 143.877 125.04C142.261 125.04 141.221 123.824 141.221 122.256ZM149.921 126H151.169V113.904H149.921V126ZM159.877 126H161.125V113.904H159.877V119.6H159.845C159.157 118.8 158.245 118.32 157.157 118.32C154.805 118.32 153.221 119.984 153.221 122.256C153.221 124.496 154.869 126.192 156.965 126.192C158.309 126.192 159.381 125.52 159.845 124.672H159.877V126ZM159.877 122.256C159.877 123.824 158.837 125.04 157.221 125.04C155.605 125.04 154.565 123.824 154.565 122.256C154.565 120.688 155.605 119.472 157.221 119.472C158.837 119.472 159.877 120.688 159.877 122.256ZM169.178 123.904C168.586 124.656 167.866 125.04 166.794 125.04C165.434 125.04 164.442 123.936 164.346 122.64H170.394V122.24C170.394 119.76 168.954 118.32 166.842 118.32C164.634 118.32 163.002 119.936 163.002 122.256C163.002 124.432 164.442 126.192 166.794 126.192C168.186 126.192 169.242 125.776 170.122 124.64L169.178 123.904ZM164.346 121.584C164.506 120.32 165.418 119.472 166.794 119.472C168.17 119.472 169.002 120.32 169.05 121.584H164.346ZM172.325 126H173.573V122.352C173.573 120.64 174.245 119.568 175.765 119.568C175.989 119.568 176.229 119.6 176.437 119.664L176.517 118.4C176.341 118.336 176.165 118.32 176.005 118.32C174.773 118.32 173.845 119.008 173.509 119.744H173.477C173.477 119.328 173.445 118.912 173.445 118.512H172.261C172.261 119.008 172.325 119.6 172.325 120.288V126Z" fill="#9EA6B5"/>
<rect x="81" y="105" width="318" height="34" rx="3" stroke="#6C3078" stroke-width="2"/>
<path d="M1.408 188H2.752V182.912H8.032V181.664H2.752V177.92H8.432V176.672H1.408V188ZM10.1866 188H11.4346V180.512H10.1866V188ZM9.89863 177.584C9.89863 178.112 10.2826 178.496 10.8106 178.496C11.3386 178.496 11.7226 178.112 11.7226 177.584C11.7226 177.088 11.3226 176.672 10.8106 176.672C10.2986 176.672 9.89863 177.088 9.89863 177.584ZM14.0304 188H15.2784V175.904H14.0304V188ZM17.8741 188H19.1221V175.904H17.8741V188ZM27.3499 185.904C26.7579 186.656 26.0379 187.04 24.9659 187.04C23.6059 187.04 22.6139 185.936 22.5179 184.64H28.5659V184.24C28.5659 181.76 27.1259 180.32 25.0139 180.32C22.8059 180.32 21.1739 181.936 21.1739 184.256C21.1739 186.432 22.6139 188.192 24.9659 188.192C26.3579 188.192 27.4139 187.776 28.2939 186.64L27.3499 185.904ZM22.5179 183.584C22.6779 182.32 23.5899 181.472 24.9659 181.472C26.3419 181.472 27.1739 182.32 27.2219 183.584H22.5179ZM36.7205 188H37.9685V175.904H36.7205V181.6H36.6885C36.0005 180.8 35.0885 180.32 34.0005 180.32C31.6485 180.32 30.0645 181.984 30.0645 184.256C30.0645 186.496 31.7125 188.192 33.8085 188.192C35.1525 188.192 36.2245 187.52 36.6885 186.672H36.7205V188ZM36.7205 184.256C36.7205 185.824 35.6805 187.04 34.0645 187.04C32.4485 187.04 31.4085 185.824 31.4085 184.256C31.4085 182.688 32.4485 181.472 34.0645 181.472C35.6805 181.472 36.7205 182.688 36.7205 184.256Z" fill="black"/>
<g clip-path="url(#clip2_161_27083)">
<path d="M81.408 170H82.752V164.912H88.032V163.664H82.752V159.92H88.432V158.672H81.408V170ZM90.1866 170H91.4346V162.512H90.1866V170ZM89.8986 159.584C89.8986 160.112 90.2826 160.496 90.8106 160.496C91.3386 160.496 91.7226 160.112 91.7226 159.584C91.7226 159.088 91.3226 158.672 90.8106 158.672C90.2986 158.672 89.8986 159.088 89.8986 159.584ZM99.6624 167.904C99.0704 168.656 98.3504 169.04 97.2784 169.04C95.9184 169.04 94.9264 167.936 94.8304 166.64H100.878V166.24C100.878 163.76 99.4384 162.32 97.3264 162.32C95.1184 162.32 93.4864 163.936 93.4864 166.256C93.4864 168.432 94.9264 170.192 97.2784 170.192C98.6704 170.192 99.7264 169.776 100.606 168.64L99.6624 167.904ZM94.8304 165.584C94.9904 164.32 95.9024 163.472 97.2784 163.472C98.6544 163.472 99.4864 164.32 99.5344 165.584H94.8304ZM102.921 170H104.169V157.904H102.921V170ZM112.877 170H114.125V157.904H112.877V163.6H112.845C112.157 162.8 111.245 162.32 110.157 162.32C107.805 162.32 106.221 163.984 106.221 166.256C106.221 168.496 107.869 170.192 109.965 170.192C111.309 170.192 112.381 169.52 112.845 168.672H112.877V170ZM112.877 166.256C112.877 167.824 111.837 169.04 110.221 169.04C108.605 169.04 107.565 167.824 107.565 166.256C107.565 164.688 108.605 163.472 110.221 163.472C111.837 163.472 112.877 164.688 112.877 166.256ZM121.111 170H127.639V168.752H122.455V158.672H121.111V170ZM129.575 164.288C130.167 163.744 130.999 163.472 131.799 163.472C132.967 163.472 133.655 164.032 133.655 165.12V165.344H133.175C131.335 165.344 128.455 165.488 128.455 167.968C128.455 169.424 129.719 170.192 131.239 170.192C132.375 170.192 133.207 169.648 133.703 168.88H133.735C133.735 169.2 133.735 169.664 133.815 170H135.015C134.951 169.616 134.903 169.136 134.903 168.704V165.488C134.903 163.376 133.975 162.32 131.767 162.32C130.679 162.32 129.559 162.688 128.791 163.472L129.575 164.288ZM133.655 166.4V166.88C133.623 168.096 132.887 169.136 131.447 169.136C130.503 169.136 129.799 168.784 129.799 167.84C129.799 166.832 130.823 166.4 132.407 166.4H133.655ZM137.12 170H138.368V168.672H138.4C138.864 169.52 139.936 170.192 141.28 170.192C143.376 170.192 145.024 168.496 145.024 166.256C145.024 163.984 143.44 162.32 141.088 162.32C140 162.32 139.088 162.8 138.4 163.6H138.368V157.904H137.12V170ZM138.368 166.256C138.368 164.688 139.408 163.472 141.024 163.472C142.64 163.472 143.68 164.688 143.68 166.256C143.68 167.824 142.64 169.04 141.024 169.04C139.408 169.04 138.368 167.824 138.368 166.256ZM152.709 167.904C152.117 168.656 151.397 169.04 150.325 169.04C148.965 169.04 147.973 167.936 147.877 166.64H153.925V166.24C153.925 163.76 152.485 162.32 150.373 162.32C148.165 162.32 146.533 163.936 146.533 166.256C146.533 168.432 147.973 170.192 150.325 170.192C151.717 170.192 152.773 169.776 153.653 168.64L152.709 167.904ZM147.877 165.584C148.037 164.32 148.949 163.472 150.325 163.472C151.701 163.472 152.533 164.32 152.581 165.584H147.877ZM155.968 170H157.216V157.904H155.968V170Z" fill="#333333"/>
<path opacity="0.8" d="M167.384 156.672H166.04V158.944L163.864 158.192L163.448 159.472L165.64 160.224L164.264 162.032L165.336 162.848L166.68 161.008L168.056 162.896L169.16 162.096L167.784 160.224L169.96 159.52L169.544 158.24L167.384 158.944V156.672Z" fill="#DB3259"/>
</g>
<rect x="80.5" y="180.5" width="319" height="35" rx="3.5" fill="white"/>
<path d="M93.408 202H94.752V196.912H97.024C98.624 196.912 100.736 196.256 100.736 193.776C100.736 191.408 98.848 190.672 96.768 190.672H93.408V202ZM94.752 191.92H97.024C98.368 191.92 99.296 192.528 99.296 193.792C99.296 195.056 98.368 195.664 97.024 195.664H94.752V191.92ZM102.78 202H104.028V189.904H102.78V202ZM107.2 196.288C107.792 195.744 108.624 195.472 109.424 195.472C110.592 195.472 111.28 196.032 111.28 197.12V197.344H110.8C108.96 197.344 106.08 197.488 106.08 199.968C106.08 201.424 107.344 202.192 108.864 202.192C110 202.192 110.832 201.648 111.328 200.88H111.36C111.36 201.2 111.36 201.664 111.44 202H112.64C112.576 201.616 112.528 201.136 112.528 200.704V197.488C112.528 195.376 111.6 194.32 109.392 194.32C108.304 194.32 107.184 194.688 106.416 195.472L107.2 196.288ZM111.28 198.4V198.88C111.248 200.096 110.512 201.136 109.072 201.136C108.128 201.136 107.424 200.784 107.424 199.84C107.424 198.832 108.448 198.4 110.032 198.4H111.28ZM121.129 195.504C120.377 194.688 119.353 194.32 118.249 194.32C115.945 194.32 114.377 195.984 114.377 198.256C114.377 200.56 115.929 202.192 118.249 202.192C119.337 202.192 120.361 201.824 121.081 200.992L120.153 200.112C119.689 200.752 119.065 201.04 118.249 201.04C116.729 201.04 115.721 199.792 115.721 198.256C115.721 196.72 116.569 195.472 118.249 195.472C119.001 195.472 119.609 195.744 120.137 196.384L121.129 195.504ZM128.272 199.904C127.68 200.656 126.96 201.04 125.888 201.04C124.528 201.04 123.536 199.936 123.44 198.64H129.488V198.24C129.488 195.76 128.048 194.32 125.936 194.32C123.728 194.32 122.096 195.936 122.096 198.256C122.096 200.432 123.536 202.192 125.888 202.192C127.28 202.192 128.336 201.776 129.216 200.64L128.272 199.904ZM123.44 197.584C123.6 196.32 124.512 195.472 125.888 195.472C127.264 195.472 128.096 196.32 128.144 197.584H123.44ZM131.418 202H132.666V198.352C132.666 196.64 133.37 195.472 134.986 195.472C136.154 195.472 136.698 196.256 136.698 197.504V202H137.946V197.376C137.946 195.568 137.066 194.32 135.098 194.32C133.93 194.32 133.034 194.96 132.698 195.552H132.666V189.904H131.418V202ZM139.877 198.256C139.877 200.592 141.573 202.192 143.877 202.192C146.181 202.192 147.877 200.592 147.877 198.256C147.877 195.92 146.181 194.32 143.877 194.32C141.573 194.32 139.877 195.92 139.877 198.256ZM141.221 198.256C141.221 196.688 142.261 195.472 143.877 195.472C145.493 195.472 146.533 196.688 146.533 198.256C146.533 199.824 145.493 201.04 143.877 201.04C142.261 201.04 141.221 199.824 141.221 198.256ZM149.921 202H151.169V189.904H149.921V202ZM159.877 202H161.125V189.904H159.877V195.6H159.845C159.157 194.8 158.245 194.32 157.157 194.32C154.805 194.32 153.221 195.984 153.221 198.256C153.221 200.496 154.869 202.192 156.965 202.192C158.309 202.192 159.381 201.52 159.845 200.672H159.877V202ZM159.877 198.256C159.877 199.824 158.837 201.04 157.221 201.04C155.605 201.04 154.565 199.824 154.565 198.256C154.565 196.688 155.605 195.472 157.221 195.472C158.837 195.472 159.877 196.688 159.877 198.256ZM169.178 199.904C168.586 200.656 167.866 201.04 166.794 201.04C165.434 201.04 164.442 199.936 164.346 198.64H170.394V198.24C170.394 195.76 168.954 194.32 166.842 194.32C164.634 194.32 163.002 195.936 163.002 198.256C163.002 200.432 164.442 202.192 166.794 202.192C168.186 202.192 169.242 201.776 170.122 200.64L169.178 199.904ZM164.346 197.584C164.506 196.32 165.418 195.472 166.794 195.472C168.17 195.472 169.002 196.32 169.05 197.584H164.346ZM172.325 202H173.573V198.352C173.573 196.64 174.245 195.568 175.765 195.568C175.989 195.568 176.229 195.6 176.437 195.664L176.517 194.4C176.341 194.336 176.165 194.32 176.005 194.32C174.773 194.32 173.845 195.008 173.509 195.744H173.477C173.477 195.328 173.445 194.912 173.445 194.512H172.261C172.261 195.008 172.325 195.6 172.325 196.288V202Z" fill="#333333"/>
<rect x="80.5" y="180.5" width="319" height="35" rx="3.5" stroke="#9EA6B5"/>
<path d="M1.2 264H5.552C7.776 264 11.104 262.512 11.104 258.336C11.104 254.16 7.776 252.672 5.552 252.672H1.2V264ZM2.544 253.92H5.104C7.696 253.92 9.664 255.232 9.664 258.336C9.664 261.44 7.696 262.752 5.104 262.752H2.544V253.92ZM13.1554 264H14.4034V256.512H13.1554V264ZM12.8674 253.584C12.8674 254.112 13.2514 254.496 13.7794 254.496C14.3074 254.496 14.6914 254.112 14.6914 253.584C14.6914 253.088 14.2914 252.672 13.7794 252.672C13.2674 252.672 12.8674 253.088 12.8674 253.584ZM16.0551 262.8C16.7911 263.856 17.7031 264.192 18.9671 264.192C20.4551 264.192 21.9591 263.536 21.9591 261.84C21.9591 260.336 20.8391 259.856 19.5111 259.6C18.5191 259.408 17.6231 259.136 17.6231 258.512C17.6231 257.808 18.4071 257.472 19.0951 257.472C19.8311 257.472 20.3591 257.84 20.6791 258.368L21.7191 257.68C21.2071 256.72 20.2311 256.32 19.1751 256.32C17.7831 256.32 16.3751 257.072 16.3751 258.528C16.3751 260.08 17.5911 260.384 19.0151 260.704C19.8151 260.88 20.6151 261.088 20.6151 261.888C20.6151 262.704 19.7511 263.04 18.9671 263.04C18.0871 263.04 17.5431 262.64 17.0471 262.032L16.0551 262.8ZM24.3876 258.288C24.9796 257.744 25.8116 257.472 26.6116 257.472C27.7796 257.472 28.4676 258.032 28.4676 259.12V259.344H27.9876C26.1476 259.344 23.2676 259.488 23.2676 261.968C23.2676 263.424 24.5316 264.192 26.0516 264.192C27.1876 264.192 28.0196 263.648 28.5156 262.88H28.5476C28.5476 263.2 28.5476 263.664 28.6276 264H29.8276C29.7636 263.616 29.7156 263.136 29.7156 262.704V259.488C29.7156 257.376 28.7876 256.32 26.5796 256.32C25.4916 256.32 24.3716 256.688 23.6036 257.472L24.3876 258.288ZM28.4676 260.4V260.88C28.4356 262.096 27.6996 263.136 26.2596 263.136C25.3156 263.136 24.6116 262.784 24.6116 261.84C24.6116 260.832 25.6356 260.4 27.2196 260.4H28.4676ZM31.9325 264H33.1805V262.672H33.2125C33.6765 263.52 34.7485 264.192 36.0925 264.192C38.1885 264.192 39.8365 262.496 39.8365 260.256C39.8365 257.984 38.2525 256.32 35.9005 256.32C34.8125 256.32 33.9005 256.8 33.2125 257.6H33.1805V251.904H31.9325V264ZM33.1805 260.256C33.1805 258.688 34.2205 257.472 35.8365 257.472C37.4525 257.472 38.4925 258.688 38.4925 260.256C38.4925 261.824 37.4525 263.04 35.8365 263.04C34.2205 263.04 33.1805 261.824 33.1805 260.256ZM41.8898 264H43.1378V251.904H41.8898V264ZM51.3655 261.904C50.7735 262.656 50.0535 263.04 48.9815 263.04C47.6215 263.04 46.6295 261.936 46.5335 260.64H52.5815V260.24C52.5815 257.76 51.1415 256.32 49.0295 256.32C46.8215 256.32 45.1895 257.936 45.1895 260.256C45.1895 262.432 46.6295 264.192 48.9815 264.192C50.3735 264.192 51.4295 263.776 52.3095 262.64L51.3655 261.904ZM46.5335 259.584C46.6935 258.32 47.6055 257.472 48.9815 257.472C50.3575 257.472 51.1895 258.32 51.2375 259.584H46.5335ZM60.7361 264H61.9841V251.904H60.7361V257.6H60.7041C60.0161 256.8 59.1041 256.32 58.0161 256.32C55.6641 256.32 54.0801 257.984 54.0801 260.256C54.0801 262.496 55.7281 264.192 57.8241 264.192C59.1681 264.192 60.2401 263.52 60.7041 262.672H60.7361V264ZM60.7361 260.256C60.7361 261.824 59.6961 263.04 58.0801 263.04C56.4641 263.04 55.4241 261.824 55.4241 260.256C55.4241 258.688 56.4641 257.472 58.0801 257.472C59.6961 257.472 60.7361 258.688 60.7361 260.256Z" fill="black"/>
<g clip-path="url(#clip3_161_27083)">
<path d="M81.408 246H82.752V240.912H88.032V239.664H82.752V235.92H88.432V234.672H81.408V246ZM90.1866 246H91.4346V238.512H90.1866V246ZM89.8986 235.584C89.8986 236.112 90.2826 236.496 90.8106 236.496C91.3386 236.496 91.7226 236.112 91.7226 235.584C91.7226 235.088 91.3226 234.672 90.8106 234.672C90.2986 234.672 89.8986 235.088 89.8986 235.584ZM99.6624 243.904C99.0704 244.656 98.3504 245.04 97.2784 245.04C95.9184 245.04 94.9264 243.936 94.8304 242.64H100.878V242.24C100.878 239.76 99.4384 238.32 97.3264 238.32C95.1184 238.32 93.4864 239.936 93.4864 242.256C93.4864 244.432 94.9264 246.192 97.2784 246.192C98.6704 246.192 99.7264 245.776 100.606 244.64L99.6624 243.904ZM94.8304 241.584C94.9904 240.32 95.9024 239.472 97.2784 239.472C98.6544 239.472 99.4864 240.32 99.5344 241.584H94.8304ZM102.921 246H104.169V233.904H102.921V246ZM112.877 246H114.125V233.904H112.877V239.6H112.845C112.157 238.8 111.245 238.32 110.157 238.32C107.805 238.32 106.221 239.984 106.221 242.256C106.221 244.496 107.869 246.192 109.965 246.192C111.309 246.192 112.381 245.52 112.845 244.672H112.877V246ZM112.877 242.256C112.877 243.824 111.837 245.04 110.221 245.04C108.605 245.04 107.565 243.824 107.565 242.256C107.565 240.688 108.605 239.472 110.221 239.472C111.837 239.472 112.877 240.688 112.877 242.256ZM121.111 246H127.639V244.752H122.455V234.672H121.111V246ZM129.575 240.288C130.167 239.744 130.999 239.472 131.799 239.472C132.967 239.472 133.655 240.032 133.655 241.12V241.344H133.175C131.335 241.344 128.455 241.488 128.455 243.968C128.455 245.424 129.719 246.192 131.239 246.192C132.375 246.192 133.207 245.648 133.703 244.88H133.735C133.735 245.2 133.735 245.664 133.815 246H135.015C134.951 245.616 134.903 245.136 134.903 244.704V241.488C134.903 239.376 133.975 238.32 131.767 238.32C130.679 238.32 129.559 238.688 128.791 239.472L129.575 240.288ZM133.655 242.4V242.88C133.623 244.096 132.887 245.136 131.447 245.136C130.503 245.136 129.799 244.784 129.799 243.84C129.799 242.832 130.823 242.4 132.407 242.4H133.655ZM137.12 246H138.368V244.672H138.4C138.864 245.52 139.936 246.192 141.28 246.192C143.376 246.192 145.024 244.496 145.024 242.256C145.024 239.984 143.44 238.32 141.088 238.32C140 238.32 139.088 238.8 138.4 239.6H138.368V233.904H137.12V246ZM138.368 242.256C138.368 240.688 139.408 239.472 141.024 239.472C142.64 239.472 143.68 240.688 143.68 242.256C143.68 243.824 142.64 245.04 141.024 245.04C139.408 245.04 138.368 243.824 138.368 242.256ZM152.709 243.904C152.117 244.656 151.397 245.04 150.325 245.04C148.965 245.04 147.973 243.936 147.877 242.64H153.925V242.24C153.925 239.76 152.485 238.32 150.373 238.32C148.165 238.32 146.533 239.936 146.533 242.256C146.533 244.432 147.973 246.192 150.325 246.192C151.717 246.192 152.773 245.776 153.653 244.64L152.709 243.904ZM147.877 241.584C148.037 240.32 148.949 239.472 150.325 239.472C151.701 239.472 152.533 240.32 152.581 241.584H147.877ZM155.968 246H157.216V233.904H155.968V246Z" fill="#333333"/>
<path opacity="0.8" d="M167.384 232.672H166.04V234.944L163.864 234.192L163.448 235.472L165.64 236.224L164.264 238.032L165.336 238.848L166.68 237.008L168.056 238.896L169.16 238.096L167.784 236.224L169.96 235.52L169.544 234.24L167.384 234.944V232.672Z" fill="#DB3259"/>
</g>
<g opacity="0.5">
<rect x="80.5" y="256.5" width="319" height="35" rx="3.5" fill="#D2D6DD"/>
<path opacity="0.8" d="M93.408 278H94.752V272.912H97.024C98.624 272.912 100.736 272.256 100.736 269.776C100.736 267.408 98.848 266.672 96.768 266.672H93.408V278ZM94.752 267.92H97.024C98.368 267.92 99.296 268.528 99.296 269.792C99.296 271.056 98.368 271.664 97.024 271.664H94.752V267.92ZM102.78 278H104.028V265.904H102.78V278ZM107.2 272.288C107.792 271.744 108.624 271.472 109.424 271.472C110.592 271.472 111.28 272.032 111.28 273.12V273.344H110.8C108.96 273.344 106.08 273.488 106.08 275.968C106.08 277.424 107.344 278.192 108.864 278.192C110 278.192 110.832 277.648 111.328 276.88H111.36C111.36 277.2 111.36 277.664 111.44 278H112.64C112.576 277.616 112.528 277.136 112.528 276.704V273.488C112.528 271.376 111.6 270.32 109.392 270.32C108.304 270.32 107.184 270.688 106.416 271.472L107.2 272.288ZM111.28 274.4V274.88C111.248 276.096 110.512 277.136 109.072 277.136C108.128 277.136 107.424 276.784 107.424 275.84C107.424 274.832 108.448 274.4 110.032 274.4H111.28ZM121.129 271.504C120.377 270.688 119.353 270.32 118.249 270.32C115.945 270.32 114.377 271.984 114.377 274.256C114.377 276.56 115.929 278.192 118.249 278.192C119.337 278.192 120.361 277.824 121.081 276.992L120.153 276.112C119.689 276.752 119.065 277.04 118.249 277.04C116.729 277.04 115.721 275.792 115.721 274.256C115.721 272.72 116.569 271.472 118.249 271.472C119.001 271.472 119.609 271.744 120.137 272.384L121.129 271.504ZM128.272 275.904C127.68 276.656 126.96 277.04 125.888 277.04C124.528 277.04 123.536 275.936 123.44 274.64H129.488V274.24C129.488 271.76 128.048 270.32 125.936 270.32C123.728 270.32 122.096 271.936 122.096 274.256C122.096 276.432 123.536 278.192 125.888 278.192C127.28 278.192 128.336 277.776 129.216 276.64L128.272 275.904ZM123.44 273.584C123.6 272.32 124.512 271.472 125.888 271.472C127.264 271.472 128.096 272.32 128.144 273.584H123.44ZM131.418 278H132.666V274.352C132.666 272.64 133.37 271.472 134.986 271.472C136.154 271.472 136.698 272.256 136.698 273.504V278H137.946V273.376C137.946 271.568 137.066 270.32 135.098 270.32C133.93 270.32 133.034 270.96 132.698 271.552H132.666V265.904H131.418V278ZM139.877 274.256C139.877 276.592 141.573 278.192 143.877 278.192C146.181 278.192 147.877 276.592 147.877 274.256C147.877 271.92 146.181 270.32 143.877 270.32C141.573 270.32 139.877 271.92 139.877 274.256ZM141.221 274.256C141.221 272.688 142.261 271.472 143.877 271.472C145.493 271.472 146.533 272.688 146.533 274.256C146.533 275.824 145.493 277.04 143.877 277.04C142.261 277.04 141.221 275.824 141.221 274.256ZM149.921 278H151.169V265.904H149.921V278ZM159.877 278H161.125V265.904H159.877V271.6H159.845C159.157 270.8 158.245 270.32 157.157 270.32C154.805 270.32 153.221 271.984 153.221 274.256C153.221 276.496 154.869 278.192 156.965 278.192C158.309 278.192 159.381 277.52 159.845 276.672H159.877V278ZM159.877 274.256C159.877 275.824 158.837 277.04 157.221 277.04C155.605 277.04 154.565 275.824 154.565 274.256C154.565 272.688 155.605 271.472 157.221 271.472C158.837 271.472 159.877 272.688 159.877 274.256ZM169.178 275.904C168.586 276.656 167.866 277.04 166.794 277.04C165.434 277.04 164.442 275.936 164.346 274.64H170.394V274.24C170.394 271.76 168.954 270.32 166.842 270.32C164.634 270.32 163.002 271.936 163.002 274.256C163.002 276.432 164.442 278.192 166.794 278.192C168.186 278.192 169.242 277.776 170.122 276.64L169.178 275.904ZM164.346 273.584C164.506 272.32 165.418 271.472 166.794 271.472C168.17 271.472 169.002 272.32 169.05 273.584H164.346ZM172.325 278H173.573V274.352C173.573 272.64 174.245 271.568 175.765 271.568C175.989 271.568 176.229 271.6 176.437 271.664L176.517 270.4C176.341 270.336 176.165 270.32 176.005 270.32C174.773 270.32 173.845 271.008 173.509 271.744H173.477C173.477 271.328 173.445 270.912 173.445 270.512H172.261C172.261 271.008 172.325 271.6 172.325 272.288V278Z" fill="#9EA6B5"/>
<rect x="80.5" y="256.5" width="319" height="35" rx="3.5" stroke="#9EA6B5"/>
</g>
<path d="M1.408 354H8.816V352.752H2.752V348.72H8.144V347.472H2.752V343.92H8.528V342.672H1.408V354ZM10.6684 354H11.9164V350.352C11.9164 348.64 12.5884 347.568 14.1084 347.568C14.3324 347.568 14.5724 347.6 14.7804 347.664L14.8604 346.4C14.6844 346.336 14.5084 346.32 14.3484 346.32C13.1164 346.32 12.1884 347.008 11.8524 347.744H11.8204C11.8204 347.328 11.7884 346.912 11.7884 346.512H10.6044C10.6044 347.008 10.6684 347.6 10.6684 348.288V354ZM16.2934 354H17.5414V350.352C17.5414 348.64 18.2134 347.568 19.7334 347.568C19.9574 347.568 20.1974 347.6 20.4054 347.664L20.4854 346.4C20.3094 346.336 20.1334 346.32 19.9734 346.32C18.7414 346.32 17.8134 347.008 17.4774 347.744H17.4454C17.4454 347.328 17.4134 346.912 17.4134 346.512H16.2294C16.2294 347.008 16.2934 347.6 16.2934 348.288V354ZM21.2051 350.256C21.2051 352.592 22.9011 354.192 25.2051 354.192C27.5091 354.192 29.2051 352.592 29.2051 350.256C29.2051 347.92 27.5091 346.32 25.2051 346.32C22.9011 346.32 21.2051 347.92 21.2051 350.256ZM22.5491 350.256C22.5491 348.688 23.5891 347.472 25.2051 347.472C26.8211 347.472 27.8611 348.688 27.8611 350.256C27.8611 351.824 26.8211 353.04 25.2051 353.04C23.5891 353.04 22.5491 351.824 22.5491 350.256ZM31.1371 354H32.3851V350.352C32.3851 348.64 33.0571 347.568 34.5771 347.568C34.8011 347.568 35.0411 347.6 35.2491 347.664L35.3291 346.4C35.1531 346.336 34.9771 346.32 34.8171 346.32C33.5851 346.32 32.6571 347.008 32.3211 347.744H32.2891C32.2891 347.328 32.2571 346.912 32.2571 346.512H31.0731C31.0731 347.008 31.1371 347.6 31.1371 348.288V354Z" fill="black"/>
<g clip-path="url(#clip4_161_27083)">
<path d="M81.408 322H82.752V316.912H88.032V315.664H82.752V311.92H88.432V310.672H81.408V322ZM90.1866 322H91.4346V314.512H90.1866V322ZM89.8986 311.584C89.8986 312.112 90.2826 312.496 90.8106 312.496C91.3386 312.496 91.7226 312.112 91.7226 311.584C91.7226 311.088 91.3226 310.672 90.8106 310.672C90.2986 310.672 89.8986 311.088 89.8986 311.584ZM99.6624 319.904C99.0704 320.656 98.3504 321.04 97.2784 321.04C95.9184 321.04 94.9264 319.936 94.8304 318.64H100.878V318.24C100.878 315.76 99.4384 314.32 97.3264 314.32C95.1184 314.32 93.4864 315.936 93.4864 318.256C93.4864 320.432 94.9264 322.192 97.2784 322.192C98.6704 322.192 99.7264 321.776 100.606 320.64L99.6624 319.904ZM94.8304 317.584C94.9904 316.32 95.9024 315.472 97.2784 315.472C98.6544 315.472 99.4864 316.32 99.5344 317.584H94.8304ZM102.921 322H104.169V309.904H102.921V322ZM112.877 322H114.125V309.904H112.877V315.6H112.845C112.157 314.8 111.245 314.32 110.157 314.32C107.805 314.32 106.221 315.984 106.221 318.256C106.221 320.496 107.869 322.192 109.965 322.192C111.309 322.192 112.381 321.52 112.845 320.672H112.877V322ZM112.877 318.256C112.877 319.824 111.837 321.04 110.221 321.04C108.605 321.04 107.565 319.824 107.565 318.256C107.565 316.688 108.605 315.472 110.221 315.472C111.837 315.472 112.877 316.688 112.877 318.256ZM121.111 322H127.639V320.752H122.455V310.672H121.111V322ZM129.575 316.288C130.167 315.744 130.999 315.472 131.799 315.472C132.967 315.472 133.655 316.032 133.655 317.12V317.344H133.175C131.335 317.344 128.455 317.488 128.455 319.968C128.455 321.424 129.719 322.192 131.239 322.192C132.375 322.192 133.207 321.648 133.703 320.88H133.735C133.735 321.2 133.735 321.664 133.815 322H135.015C134.951 321.616 134.903 321.136 134.903 320.704V317.488C134.903 315.376 133.975 314.32 131.767 314.32C130.679 314.32 129.559 314.688 128.791 315.472L129.575 316.288ZM133.655 318.4V318.88C133.623 320.096 132.887 321.136 131.447 321.136C130.503 321.136 129.799 320.784 129.799 319.84C129.799 318.832 130.823 318.4 132.407 318.4H133.655ZM137.12 322H138.368V320.672H138.4C138.864 321.52 139.936 322.192 141.28 322.192C143.376 322.192 145.024 320.496 145.024 318.256C145.024 315.984 143.44 314.32 141.088 314.32C140 314.32 139.088 314.8 138.4 315.6H138.368V309.904H137.12V322ZM138.368 318.256C138.368 316.688 139.408 315.472 141.024 315.472C142.64 315.472 143.68 316.688 143.68 318.256C143.68 319.824 142.64 321.04 141.024 321.04C139.408 321.04 138.368 319.824 138.368 318.256ZM152.709 319.904C152.117 320.656 151.397 321.04 150.325 321.04C148.965 321.04 147.973 319.936 147.877 318.64H153.925V318.24C153.925 315.76 152.485 314.32 150.373 314.32C148.165 314.32 146.533 315.936 146.533 318.256C146.533 320.432 147.973 322.192 150.325 322.192C151.717 322.192 152.773 321.776 153.653 320.64L152.709 319.904ZM147.877 317.584C148.037 316.32 148.949 315.472 150.325 315.472C151.701 315.472 152.533 316.32 152.581 317.584H147.877ZM155.968 322H157.216V309.904H155.968V322Z" fill="#333333"/>
<path opacity="0.8" d="M167.384 308.672H166.04V310.944L163.864 310.192L163.448 311.472L165.64 312.224L164.264 314.032L165.336 314.848L166.68 313.008L168.056 314.896L169.16 314.096L167.784 312.224L169.96 311.52L169.544 310.24L167.384 310.944V308.672Z" fill="#DB3259"/>
</g>
<rect x="80.5" y="332.5" width="319" height="35" rx="3.5" fill="white"/>
<path opacity="0.8" d="M93.408 354H94.752V348.912H97.024C98.624 348.912 100.736 348.256 100.736 345.776C100.736 343.408 98.848 342.672 96.768 342.672H93.408V354ZM94.752 343.92H97.024C98.368 343.92 99.296 344.528 99.296 345.792C99.296 347.056 98.368 347.664 97.024 347.664H94.752V343.92ZM102.78 354H104.028V341.904H102.78V354ZM107.2 348.288C107.792 347.744 108.624 347.472 109.424 347.472C110.592 347.472 111.28 348.032 111.28 349.12V349.344H110.8C108.96 349.344 106.08 349.488 106.08 351.968C106.08 353.424 107.344 354.192 108.864 354.192C110 354.192 110.832 353.648 111.328 352.88H111.36C111.36 353.2 111.36 353.664 111.44 354H112.64C112.576 353.616 112.528 353.136 112.528 352.704V349.488C112.528 347.376 111.6 346.32 109.392 346.32C108.304 346.32 107.184 346.688 106.416 347.472L107.2 348.288ZM111.28 350.4V350.88C111.248 352.096 110.512 353.136 109.072 353.136C108.128 353.136 107.424 352.784 107.424 351.84C107.424 350.832 108.448 350.4 110.032 350.4H111.28ZM121.129 347.504C120.377 346.688 119.353 346.32 118.249 346.32C115.945 346.32 114.377 347.984 114.377 350.256C114.377 352.56 115.929 354.192 118.249 354.192C119.337 354.192 120.361 353.824 121.081 352.992L120.153 352.112C119.689 352.752 119.065 353.04 118.249 353.04C116.729 353.04 115.721 351.792 115.721 350.256C115.721 348.72 116.569 347.472 118.249 347.472C119.001 347.472 119.609 347.744 120.137 348.384L121.129 347.504ZM128.272 351.904C127.68 352.656 126.96 353.04 125.888 353.04C124.528 353.04 123.536 351.936 123.44 350.64H129.488V350.24C129.488 347.76 128.048 346.32 125.936 346.32C123.728 346.32 122.096 347.936 122.096 350.256C122.096 352.432 123.536 354.192 125.888 354.192C127.28 354.192 128.336 353.776 129.216 352.64L128.272 351.904ZM123.44 349.584C123.6 348.32 124.512 347.472 125.888 347.472C127.264 347.472 128.096 348.32 128.144 349.584H123.44ZM131.418 354H132.666V350.352C132.666 348.64 133.37 347.472 134.986 347.472C136.154 347.472 136.698 348.256 136.698 349.504V354H137.946V349.376C137.946 347.568 137.066 346.32 135.098 346.32C133.93 346.32 133.034 346.96 132.698 347.552H132.666V341.904H131.418V354ZM139.877 350.256C139.877 352.592 141.573 354.192 143.877 354.192C146.181 354.192 147.877 352.592 147.877 350.256C147.877 347.92 146.181 346.32 143.877 346.32C141.573 346.32 139.877 347.92 139.877 350.256ZM141.221 350.256C141.221 348.688 142.261 347.472 143.877 347.472C145.493 347.472 146.533 348.688 146.533 350.256C146.533 351.824 145.493 353.04 143.877 353.04C142.261 353.04 141.221 351.824 141.221 350.256ZM149.921 354H151.169V341.904H149.921V354ZM159.877 354H161.125V341.904H159.877V347.6H159.845C159.157 346.8 158.245 346.32 157.157 346.32C154.805 346.32 153.221 347.984 153.221 350.256C153.221 352.496 154.869 354.192 156.965 354.192C158.309 354.192 159.381 353.52 159.845 352.672H159.877V354ZM159.877 350.256C159.877 351.824 158.837 353.04 157.221 353.04C155.605 353.04 154.565 351.824 154.565 350.256C154.565 348.688 155.605 347.472 157.221 347.472C158.837 347.472 159.877 348.688 159.877 350.256ZM169.178 351.904C168.586 352.656 167.866 353.04 166.794 353.04C165.434 353.04 164.442 351.936 164.346 350.64H170.394V350.24C170.394 347.76 168.954 346.32 166.842 346.32C164.634 346.32 163.002 347.936 163.002 350.256C163.002 352.432 164.442 354.192 166.794 354.192C168.186 354.192 169.242 353.776 170.122 352.64L169.178 351.904ZM164.346 349.584C164.506 348.32 165.418 347.472 166.794 347.472C168.17 347.472 169.002 348.32 169.05 349.584H164.346ZM172.325 354H173.573V350.352C173.573 348.64 174.245 347.568 175.765 347.568C175.989 347.568 176.229 347.6 176.437 347.664L176.517 346.4C176.341 346.336 176.165 346.32 176.005 346.32C174.773 346.32 173.845 347.008 173.509 347.744H173.477C173.477 347.328 173.445 346.912 173.445 346.512H172.261C172.261 347.008 172.325 347.6 172.325 348.288V354Z" fill="#9EA6B5"/>
<rect x="80.5" y="332.5" width="319" height="35" rx="3.5" stroke="#DB3259"/>
<path d="M96.6662 387.625H83.3329C83.2237 387.625 83.1164 387.596 83.0215 387.542C82.9266 387.488 82.8472 387.41 82.7912 387.317C82.7379 387.221 82.71 387.114 82.71 387.004C82.71 386.895 82.7379 386.787 82.7912 386.692L89.4579 375.025C89.5172 374.936 89.5976 374.862 89.6922 374.812C89.7867 374.761 89.8923 374.734 89.9995 374.734C90.1068 374.734 90.2124 374.761 90.3069 374.812C90.4014 374.862 90.4819 374.936 90.5412 375.025L97.2079 386.692C97.2611 386.787 97.2891 386.895 97.2891 387.004C97.2891 387.114 97.2611 387.221 97.2079 387.317C97.1518 387.41 97.0725 387.488 96.9776 387.542C96.8827 387.596 96.7754 387.625 96.6662 387.625ZM84.4079 386.375H95.5912L89.9995 376.592L84.4079 386.375Z" fill="#DB3259"/>
<path d="M90 383.042C89.8349 383.04 89.6772 382.973 89.5604 382.856C89.4437 382.739 89.3772 382.582 89.375 382.417V379.5C89.375 379.334 89.4408 379.175 89.5581 379.058C89.6753 378.941 89.8342 378.875 90 378.875C90.1658 378.875 90.3247 378.941 90.4419 379.058C90.5592 379.175 90.625 379.334 90.625 379.5V382.417C90.6228 382.582 90.5563 382.739 90.4396 382.856C90.3228 382.973 90.1651 383.04 90 383.042Z" fill="#DB3259"/>
<path d="M90 385.542C89.8349 385.54 89.6772 385.473 89.5604 385.356C89.4437 385.239 89.3772 385.082 89.375 384.917V384.5C89.375 384.334 89.4408 384.175 89.5581 384.058C89.6753 383.941 89.8342 383.875 90 383.875C90.1658 383.875 90.3247 383.941 90.4419 384.058C90.5592 384.175 90.625 384.334 90.625 384.5V384.917C90.6228 385.082 90.5563 385.239 90.4396 385.356C90.3228 385.473 90.1651 385.54 90 385.542Z" fill="#DB3259"/>
<path d="M115.008 376.672H106.176V377.92H109.92V388H111.264V377.92H115.008V376.672ZM116.372 388H117.62V384.352C117.62 382.64 118.324 381.472 119.94 381.472C121.108 381.472 121.652 382.256 121.652 383.504V388H122.9V383.376C122.9 381.568 122.02 380.32 120.052 380.32C118.884 380.32 117.988 380.96 117.652 381.552H117.62V375.904H116.372V388ZM125.374 388H126.622V380.512H125.374V388ZM125.086 377.584C125.086 378.112 125.47 378.496 125.998 378.496C126.526 378.496 126.91 378.112 126.91 377.584C126.91 377.088 126.51 376.672 125.998 376.672C125.486 376.672 125.086 377.088 125.086 377.584ZM128.274 386.8C129.01 387.856 129.922 388.192 131.186 388.192C132.674 388.192 134.178 387.536 134.178 385.84C134.178 384.336 133.058 383.856 131.73 383.6C130.738 383.408 129.842 383.136 129.842 382.512C129.842 381.808 130.626 381.472 131.314 381.472C132.05 381.472 132.578 381.84 132.898 382.368L133.938 381.68C133.426 380.72 132.45 380.32 131.394 380.32C130.002 380.32 128.594 381.072 128.594 382.528C128.594 384.08 129.81 384.384 131.234 384.704C132.034 384.88 132.834 385.088 132.834 385.888C132.834 386.704 131.97 387.04 131.186 387.04C130.306 387.04 129.762 386.64 129.266 386.032L128.274 386.8ZM140.484 388H141.732V380.512H140.484V388ZM140.196 377.584C140.196 378.112 140.58 378.496 141.108 378.496C141.636 378.496 142.02 378.112 142.02 377.584C142.02 377.088 141.62 376.672 141.108 376.672C140.596 376.672 140.196 377.088 140.196 377.584ZM143.383 386.8C144.119 387.856 145.031 388.192 146.295 388.192C147.783 388.192 149.287 387.536 149.287 385.84C149.287 384.336 148.167 383.856 146.839 383.6C145.847 383.408 144.951 383.136 144.951 382.512C144.951 381.808 145.735 381.472 146.423 381.472C147.159 381.472 147.687 381.84 148.007 382.368L149.047 381.68C148.535 380.72 147.559 380.32 146.503 380.32C145.111 380.32 143.703 381.072 143.703 382.528C143.703 384.08 144.919 384.384 146.343 384.704C147.143 384.88 147.943 385.088 147.943 385.888C147.943 386.704 147.079 387.04 146.295 387.04C145.415 387.04 144.871 386.64 144.375 386.032L143.383 386.8ZM156.169 382.288C156.761 381.744 157.593 381.472 158.393 381.472C159.561 381.472 160.249 382.032 160.249 383.12V383.344H159.769C157.929 383.344 155.049 383.488 155.049 385.968C155.049 387.424 156.313 388.192 157.833 388.192C158.969 388.192 159.801 387.648 160.297 386.88H160.329C160.329 387.2 160.329 387.664 160.409 388H161.609C161.545 387.616 161.497 387.136 161.497 386.704V383.488C161.497 381.376 160.569 380.32 158.361 380.32C157.273 380.32 156.153 380.688 155.385 381.472L156.169 382.288ZM160.249 384.4V384.88C160.217 386.096 159.481 387.136 158.041 387.136C157.097 387.136 156.393 386.784 156.393 385.84C156.393 384.832 157.417 384.4 159.001 384.4H160.249ZM168.231 388H169.479V384.352C169.479 382.64 170.183 381.472 171.799 381.472C172.823 381.472 173.239 382.112 173.239 383.76V388H174.487V383.68C174.487 382.336 175.367 381.472 176.423 381.472C177.879 381.472 178.247 382.48 178.247 383.52V388H179.495V383.456C179.495 381.52 178.791 380.32 176.647 380.32C175.511 380.32 174.823 380.864 174.279 381.744C174.039 381.232 173.527 380.32 171.911 380.32C170.679 380.32 169.751 381.008 169.415 381.744H169.383C169.383 381.328 169.351 380.912 169.351 380.512H168.167C168.167 381.008 168.231 381.6 168.231 382.288V388ZM187.6 385.904C187.008 386.656 186.288 387.04 185.216 387.04C183.856 387.04 182.864 385.936 182.768 384.64H188.816V384.24C188.816 381.76 187.376 380.32 185.264 380.32C183.056 380.32 181.424 381.936 181.424 384.256C181.424 386.432 182.864 388.192 185.216 388.192C186.608 388.192 187.664 387.776 188.544 386.64L187.6 385.904ZM182.768 383.584C182.928 382.32 183.84 381.472 185.216 381.472C186.592 381.472 187.424 382.32 187.472 383.584H182.768ZM189.915 386.8C190.651 387.856 191.562 388.192 192.827 388.192C194.315 388.192 195.819 387.536 195.819 385.84C195.819 384.336 194.699 383.856 193.371 383.6C192.379 383.408 191.483 383.136 191.483 382.512C191.483 381.808 192.267 381.472 192.955 381.472C193.691 381.472 194.219 381.84 194.539 382.368L195.579 381.68C195.067 380.72 194.091 380.32 193.035 380.32C191.643 380.32 190.235 381.072 190.235 382.528C190.235 384.08 191.451 384.384 192.875 384.704C193.674 384.88 194.475 385.088 194.475 385.888C194.475 386.704 193.611 387.04 192.827 387.04C191.947 387.04 191.403 386.64 190.907 386.032L189.915 386.8ZM196.727 386.8C197.463 387.856 198.375 388.192 199.639 388.192C201.127 388.192 202.631 387.536 202.631 385.84C202.631 384.336 201.511 383.856 200.183 383.6C199.191 383.408 198.295 383.136 198.295 382.512C198.295 381.808 199.079 381.472 199.767 381.472C200.503 381.472 201.031 381.84 201.351 382.368L202.391 381.68C201.879 380.72 200.903 380.32 199.847 380.32C198.455 380.32 197.047 381.072 197.047 382.528C197.047 384.08 198.263 384.384 199.687 384.704C200.487 384.88 201.287 385.088 201.287 385.888C201.287 386.704 200.423 387.04 199.639 387.04C198.759 387.04 198.215 386.64 197.719 386.032L196.727 386.8ZM205.06 382.288C205.652 381.744 206.484 381.472 207.284 381.472C208.452 381.472 209.14 382.032 209.14 383.12V383.344H208.66C206.82 383.344 203.94 383.488 203.94 385.968C203.94 387.424 205.204 388.192 206.724 388.192C207.86 388.192 208.692 387.648 209.188 386.88H209.22C209.22 387.2 209.22 387.664 209.3 388H210.5C210.436 387.616 210.388 387.136 210.388 386.704V383.488C210.388 381.376 209.46 380.32 207.252 380.32C206.164 380.32 205.044 380.688 204.276 381.472L205.06 382.288ZM209.14 384.4V384.88C209.108 386.096 208.372 387.136 206.932 387.136C205.988 387.136 205.284 386.784 205.284 385.84C205.284 384.832 206.308 384.4 207.891 384.4H209.14ZM220.14 380.512H218.892V381.792H218.86C218.364 380.8 217.228 380.32 216.22 380.32C213.836 380.32 212.236 381.808 212.236 384.256C212.236 386.464 213.868 388.096 216.22 388.096C217.212 388.096 218.268 387.664 218.86 386.704H218.892V387.664C218.892 389.248 218.3 390.688 216.06 390.688C214.908 390.688 214.06 390.24 213.276 389.392L212.38 390.416C213.436 391.456 214.604 391.84 216.06 391.84C218.684 391.84 220.14 390.368 220.14 387.664V380.512ZM213.58 384.256C213.58 382.688 214.652 381.472 216.22 381.472C217.804 381.472 218.892 382.608 218.892 384.224C218.892 385.664 217.932 386.944 216.22 386.944C214.764 386.944 213.58 385.776 213.58 384.256ZM228.194 385.904C227.602 386.656 226.882 387.04 225.81 387.04C224.45 387.04 223.458 385.936 223.362 384.64H229.41V384.24C229.41 381.76 227.97 380.32 225.858 380.32C223.65 380.32 222.018 381.936 222.018 384.256C222.018 386.432 223.458 388.192 225.81 388.192C227.202 388.192 228.258 387.776 229.138 386.64L228.194 385.904ZM223.362 383.584C223.522 382.32 224.434 381.472 225.81 381.472C227.186 381.472 228.018 382.32 228.066 383.584H223.362Z" fill="#DB3259"/>
<defs>
<clipPath id="clip0_161_27083">
<rect width="91" height="24" fill="white" transform="translate(80)"/>
</clipPath>
<clipPath id="clip1_161_27083">
<rect width="91" height="24" fill="white" transform="translate(80 76)"/>
</clipPath>
<clipPath id="clip2_161_27083">
<rect width="91" height="24" fill="white" transform="translate(80 152)"/>
</clipPath>
<clipPath id="clip3_161_27083">
<rect width="91" height="24" fill="white" transform="translate(80 228)"/>
</clipPath>
<clipPath id="clip4_161_27083">
<rect width="91" height="24" fill="white" transform="translate(80 304)"/>
</clipPath>
</defs>
</svg>
