<svg width="320" height="203" viewBox="0 0 320 203" fill="none" xmlns="http://www.w3.org/2000/svg">
<g clip-path="url(#clip0_21_3729)">
<path d="M1.408 18H2.752V12.912H8.032V11.664H2.752V7.92H8.432V6.672H1.408V18ZM10.1866 18H11.4346V10.512H10.1866V18ZM9.89863 7.584C9.89863 8.112 10.2826 8.496 10.8106 8.496C11.3386 8.496 11.7226 8.112 11.7226 7.584C11.7226 7.088 11.3226 6.672 10.8106 6.672C10.2986 6.672 9.89863 7.088 9.89863 7.584ZM13.9184 18H15.1664V14.352C15.1664 12.64 15.8384 11.568 17.3584 11.568C17.5824 11.568 17.8224 11.6 18.0304 11.664L18.1104 10.4C17.9344 10.336 17.7584 10.32 17.5984 10.32C16.3664 10.32 15.4384 11.008 15.1024 11.744H15.0704C15.0704 11.328 15.0384 10.912 15.0384 10.512H13.8544C13.8544 11.008 13.9184 11.6 13.9184 12.288V18ZM18.7114 16.8C19.4474 17.856 20.3594 18.192 21.6234 18.192C23.1114 18.192 24.6154 17.536 24.6154 15.84C24.6154 14.336 23.4954 13.856 22.1674 13.6C21.1754 13.408 20.2794 13.136 20.2794 12.512C20.2794 11.808 21.0634 11.472 21.7514 11.472C22.4874 11.472 23.0154 11.84 23.3354 12.368L24.3754 11.68C23.8634 10.72 22.8874 10.32 21.8314 10.32C20.4394 10.32 19.0314 11.072 19.0314 12.528C19.0314 14.08 20.2474 14.384 21.6714 14.704C22.4714 14.88 23.2714 15.088 23.2714 15.888C23.2714 16.704 22.4074 17.04 21.6234 17.04C20.7434 17.04 20.1994 16.64 19.7034 16.032L18.7114 16.8ZM30.4519 10.512H28.2439V8.384H26.9959V10.512H25.3639V11.568H26.9959V15.68C26.9959 17.232 27.2839 18.192 29.0599 18.192C29.5239 18.192 30.0839 18.112 30.5159 17.92L30.4679 16.784C30.1319 16.96 29.7319 17.04 29.3639 17.04C28.2599 17.04 28.2439 16.272 28.2439 15.312V11.568H30.4519V10.512ZM36.434 18H37.682V14.352C37.682 12.64 38.386 11.472 40.002 11.472C41.17 11.472 41.714 12.256 41.714 13.504V18H42.962V13.376C42.962 11.568 42.082 10.32 40.114 10.32C38.882 10.32 37.954 11.008 37.618 11.744H37.586C37.586 11.328 37.554 10.912 37.554 10.512H36.37C36.37 11.008 36.434 11.6 36.434 12.288V18ZM46.0126 12.288C46.6046 11.744 47.4366 11.472 48.2366 11.472C49.4046 11.472 50.0926 12.032 50.0926 13.12V13.344H49.6126C47.7726 13.344 44.8926 13.488 44.8926 15.968C44.8926 17.424 46.1566 18.192 47.6766 18.192C48.8126 18.192 49.6446 17.648 50.1406 16.88H50.1726C50.1726 17.2 50.1726 17.664 50.2526 18H51.4526C51.3886 17.616 51.3406 17.136 51.3406 16.704V13.488C51.3406 11.376 50.4126 10.32 48.2046 10.32C47.1166 10.32 45.9966 10.688 45.2286 11.472L46.0126 12.288ZM50.0926 14.4V14.88C50.0606 16.096 49.3246 17.136 47.8846 17.136C46.9406 17.136 46.2366 16.784 46.2366 15.84C46.2366 14.832 47.2606 14.4 48.8446 14.4H50.0926ZM53.6215 18H54.8695V14.352C54.8695 12.64 55.5735 11.472 57.1895 11.472C58.2135 11.472 58.6295 12.112 58.6295 13.76V18H59.8775V13.68C59.8775 12.336 60.7575 11.472 61.8135 11.472C63.2695 11.472 63.6375 12.48 63.6375 13.52V18H64.8855V13.456C64.8855 11.52 64.1815 10.32 62.0375 10.32C60.9015 10.32 60.2135 10.864 59.6695 11.744C59.4295 11.232 58.9175 10.32 57.3015 10.32C56.0695 10.32 55.1415 11.008 54.8055 11.744H54.7735C54.7735 11.328 54.7415 10.912 54.7415 10.512H53.5575C53.5575 11.008 53.6215 11.6 53.6215 12.288V18ZM72.9905 15.904C72.3985 16.656 71.6785 17.04 70.6065 17.04C69.2465 17.04 68.2545 15.936 68.1585 14.64H74.2065V14.24C74.2065 11.76 72.7665 10.32 70.6545 10.32C68.4465 10.32 66.8145 11.936 66.8145 14.256C66.8145 16.432 68.2545 18.192 70.6065 18.192C71.9985 18.192 73.0545 17.776 73.9345 16.64L72.9905 15.904ZM68.1585 13.584C68.3185 12.32 69.2305 11.472 70.6065 11.472C71.9825 11.472 72.8145 12.32 72.8625 13.584H68.1585Z" fill="#333333"/>
<path opacity="0.8" d="M83.384 4.672H82.04V6.944L79.864 6.192L79.448 7.472L81.64 8.224L80.264 10.032L81.336 10.848L82.68 9.008L84.056 10.896L85.16 10.096L83.784 8.224L85.96 7.52L85.544 6.24L83.384 6.944V4.672Z" fill="#DB3259"/>
</g>
<rect x="0.5" y="28.5" width="319" height="35" rx="3.5" fill="white"/>
<path opacity="0.5" d="M18.304 38.672H16.96V46.608C16.96 47.84 16.624 49.04 15.088 49.04C14.144 49.04 13.568 48.48 13.392 47.584L12.048 47.856C12.336 49.472 13.472 50.288 15.072 50.288C17.488 50.288 18.304 48.592 18.304 47.072V38.672ZM20.4708 46.256C20.4708 48.592 22.1668 50.192 24.4708 50.192C26.7748 50.192 28.4708 48.592 28.4708 46.256C28.4708 43.92 26.7748 42.32 24.4708 42.32C22.1668 42.32 20.4708 43.92 20.4708 46.256ZM21.8148 46.256C21.8148 44.688 22.8548 43.472 24.4708 43.472C26.0868 43.472 27.1268 44.688 27.1268 46.256C27.1268 47.824 26.0868 49.04 24.4708 49.04C22.8548 49.04 21.8148 47.824 21.8148 46.256ZM30.4028 50H31.6508V46.352C31.6508 44.64 32.3548 43.472 33.9708 43.472C35.1388 43.472 35.6828 44.256 35.6828 45.504V50H36.9308V45.376C36.9308 43.568 36.0508 42.32 34.0828 42.32C32.9148 42.32 32.0188 42.96 31.6828 43.552H31.6508V37.904H30.4028V50ZM39.2934 50H40.5414V46.352C40.5414 44.64 41.2454 43.472 42.8614 43.472C44.0294 43.472 44.5734 44.256 44.5734 45.504V50H45.8214V45.376C45.8214 43.568 44.9414 42.32 42.9734 42.32C41.7414 42.32 40.8134 43.008 40.4774 43.744H40.4454C40.4454 43.328 40.4134 42.912 40.4134 42.512H39.2294C39.2294 43.008 39.2934 43.6 39.2934 44.288V50Z" fill="#9EA6B5"/>
<rect x="0.5" y="28.5" width="319" height="35" rx="3.5" stroke="#9EA6B5"/>
<g clip-path="url(#clip1_21_3729)">
<path d="M1.408 98H7.936V96.752H2.752V86.672H1.408V98ZM9.872 92.288C10.464 91.744 11.296 91.472 12.096 91.472C13.264 91.472 13.952 92.032 13.952 93.12V93.344H13.472C11.632 93.344 8.752 93.488 8.752 95.968C8.752 97.424 10.016 98.192 11.536 98.192C12.672 98.192 13.504 97.648 14 96.88H14.032C14.032 97.2 14.032 97.664 14.112 98H15.312C15.248 97.616 15.2 97.136 15.2 96.704V93.488C15.2 91.376 14.272 90.32 12.064 90.32C10.976 90.32 9.856 90.688 9.088 91.472L9.872 92.288ZM13.952 94.4V94.88C13.92 96.096 13.184 97.136 11.744 97.136C10.8 97.136 10.096 96.784 10.096 95.84C10.096 94.832 11.12 94.4 12.704 94.4H13.952ZM16.6489 96.8C17.3849 97.856 18.2969 98.192 19.5609 98.192C21.0489 98.192 22.5529 97.536 22.5529 95.84C22.5529 94.336 21.4329 93.856 20.1049 93.6C19.1129 93.408 18.2169 93.136 18.2169 92.512C18.2169 91.808 19.0009 91.472 19.6889 91.472C20.4249 91.472 20.9529 91.84 21.2729 92.368L22.3129 91.68C21.8009 90.72 20.8249 90.32 19.7689 90.32C18.3769 90.32 16.9689 91.072 16.9689 92.528C16.9689 94.08 18.1849 94.384 19.6089 94.704C20.4089 94.88 21.2089 95.088 21.2089 95.888C21.2089 96.704 20.3449 97.04 19.5609 97.04C18.6809 97.04 18.1369 96.64 17.6409 96.032L16.6489 96.8ZM28.3894 90.512H26.1814V88.384H24.9334V90.512H23.3014V91.568H24.9334V95.68C24.9334 97.232 25.2214 98.192 26.9974 98.192C27.4614 98.192 28.0214 98.112 28.4534 97.92L28.4054 96.784C28.0694 96.96 27.6694 97.04 27.3014 97.04C26.1974 97.04 26.1814 96.272 26.1814 95.312V91.568H28.3894V90.512ZM34.3715 98H35.6195V94.352C35.6195 92.64 36.3235 91.472 37.9395 91.472C39.1075 91.472 39.6515 92.256 39.6515 93.504V98H40.8995V93.376C40.8995 91.568 40.0195 90.32 38.0515 90.32C36.8195 90.32 35.8915 91.008 35.5555 91.744H35.5235C35.5235 91.328 35.4915 90.912 35.4915 90.512H34.3075C34.3075 91.008 34.3715 91.6 34.3715 92.288V98ZM43.9501 92.288C44.5421 91.744 45.3741 91.472 46.1741 91.472C47.3421 91.472 48.0301 92.032 48.0301 93.12V93.344H47.5501C45.7101 93.344 42.8301 93.488 42.8301 95.968C42.8301 97.424 44.0941 98.192 45.6141 98.192C46.7501 98.192 47.5821 97.648 48.0781 96.88H48.1101C48.1101 97.2 48.1101 97.664 48.1901 98H49.3901C49.3261 97.616 49.2781 97.136 49.2781 96.704V93.488C49.2781 91.376 48.3501 90.32 46.1421 90.32C45.0541 90.32 43.9341 90.688 43.1661 91.472L43.9501 92.288ZM48.0301 94.4V94.88C47.9981 96.096 47.2621 97.136 45.8221 97.136C44.8781 97.136 44.1741 96.784 44.1741 95.84C44.1741 94.832 45.1981 94.4 46.7821 94.4H48.0301ZM51.559 98H52.807V94.352C52.807 92.64 53.511 91.472 55.127 91.472C56.151 91.472 56.567 92.112 56.567 93.76V98H57.815V93.68C57.815 92.336 58.695 91.472 59.751 91.472C61.207 91.472 61.575 92.48 61.575 93.52V98H62.823V93.456C62.823 91.52 62.119 90.32 59.975 90.32C58.839 90.32 58.151 90.864 57.607 91.744C57.367 91.232 56.855 90.32 55.239 90.32C54.007 90.32 53.079 91.008 52.743 91.744H52.711C52.711 91.328 52.679 90.912 52.679 90.512H51.495C51.495 91.008 51.559 91.6 51.559 92.288V98ZM70.928 95.904C70.336 96.656 69.616 97.04 68.544 97.04C67.184 97.04 66.192 95.936 66.096 94.64H72.144V94.24C72.144 91.76 70.704 90.32 68.592 90.32C66.384 90.32 64.752 91.936 64.752 94.256C64.752 96.432 66.192 98.192 68.544 98.192C69.936 98.192 70.992 97.776 71.872 96.64L70.928 95.904ZM66.096 93.584C66.256 92.32 67.168 91.472 68.544 91.472C69.92 91.472 70.752 92.32 70.8 93.584H66.096Z" fill="#333333"/>
<path opacity="0.8" d="M81.384 84.672H80.04V86.944L77.864 86.192L77.448 87.472L79.64 88.224L78.264 90.032L79.336 90.848L80.68 89.008L82.056 90.896L83.16 90.096L81.784 88.224L83.96 87.52L83.544 86.24L81.384 86.944V84.672Z" fill="#DB3259"/>
</g>
<rect x="1" y="109" width="318" height="34" rx="3" fill="white"/>
<path opacity="0.8" d="M13.2 130H17.552C19.776 130 23.104 128.512 23.104 124.336C23.104 120.16 19.776 118.672 17.552 118.672H13.2V130ZM14.544 119.92H17.104C19.696 119.92 21.664 121.232 21.664 124.336C21.664 127.44 19.696 128.752 17.104 128.752H14.544V119.92ZM24.6114 126.256C24.6114 128.592 26.3074 130.192 28.6114 130.192C30.9154 130.192 32.6114 128.592 32.6114 126.256C32.6114 123.92 30.9154 122.32 28.6114 122.32C26.3074 122.32 24.6114 123.92 24.6114 126.256ZM25.9554 126.256C25.9554 124.688 26.9954 123.472 28.6114 123.472C30.2274 123.472 31.2674 124.688 31.2674 126.256C31.2674 127.824 30.2274 129.04 28.6114 129.04C26.9954 129.04 25.9554 127.824 25.9554 126.256ZM40.2874 127.904C39.6954 128.656 38.9754 129.04 37.9034 129.04C36.5434 129.04 35.5514 127.936 35.4554 126.64H41.5034V126.24C41.5034 123.76 40.0634 122.32 37.9514 122.32C35.7434 122.32 34.1114 123.936 34.1114 126.256C34.1114 128.432 35.5514 130.192 37.9034 130.192C39.2954 130.192 40.3514 129.776 41.2314 128.64L40.2874 127.904ZM35.4554 125.584C35.6154 124.32 36.5274 123.472 37.9034 123.472C39.2794 123.472 40.1114 124.32 40.1594 125.584H35.4554Z" fill="#9EA6B5"/>
<rect x="1" y="109" width="318" height="34" rx="3" stroke="#6C3078" stroke-width="2"/>
<rect x="0.5" y="160.5" width="319" height="42" rx="7.5" fill="#6C3078"/>
<path d="M142.764 185.5H144.78V176.812H144.812L150.412 185.5H152.972V174.172H150.956V182.588H150.924L145.436 174.172H142.764V185.5ZM162.714 182.332V181.804C162.714 179.132 161.258 177.628 159.114 177.628C156.794 177.628 154.938 179.244 154.938 181.66C154.938 184.076 156.794 185.692 159.114 185.692C160.33 185.692 161.466 185.26 162.362 184.156L160.986 183.116C160.506 183.708 159.882 184.156 158.922 184.156C157.85 184.156 156.986 183.468 156.858 182.332H162.714ZM156.858 180.892C157.002 179.788 157.706 179.068 158.842 179.068C160.042 179.068 160.778 179.772 160.794 180.892H156.858ZM163.406 185.5H165.678L167.694 182.748L169.694 185.5H172.03L168.942 181.372L171.566 177.82H169.374L167.71 180.124L166.174 177.82H163.838L166.494 181.372L163.406 185.5ZM173.792 179.452V182.972C173.792 184.78 174.272 185.692 176.304 185.692C176.752 185.692 177.424 185.628 177.824 185.436V183.82C177.584 183.996 177.12 184.06 176.784 184.06C175.936 184.06 175.712 183.58 175.712 182.812V179.452H177.824V177.82H175.712V175.596H173.792V177.82H172.208V179.452H173.792Z" fill="white"/>
<rect x="0.5" y="160.5" width="319" height="42" rx="7.5" stroke="#6C3078"/>
<defs>
<clipPath id="clip0_21_3729">
<rect width="87" height="24" fill="white"/>
</clipPath>
<clipPath id="clip1_21_3729">
<rect width="85" height="24" fill="white" transform="translate(0 80)"/>
</clipPath>
</defs>
</svg>
