<svg width="400" height="308" viewBox="0 0 400 308" fill="none" xmlns="http://www.w3.org/2000/svg">
<path d="M1.2 36H5.552C7.776 36 11.104 34.512 11.104 30.336C11.104 26.16 7.776 24.672 5.552 24.672H1.2V36ZM2.544 25.92H5.104C7.696 25.92 9.664 27.232 9.664 30.336C9.664 33.44 7.696 34.752 5.104 34.752H2.544V25.92ZM18.7874 33.904C18.1954 34.656 17.4754 35.04 16.4034 35.04C15.0434 35.04 14.0514 33.936 13.9554 32.64H20.0034V32.24C20.0034 29.76 18.5634 28.32 16.4514 28.32C14.2434 28.32 12.6114 29.936 12.6114 32.256C12.6114 34.432 14.0514 36.192 16.4034 36.192C17.7954 36.192 18.8514 35.776 19.7314 34.64L18.7874 33.904ZM13.9554 31.584C14.1154 30.32 15.0274 29.472 16.4034 29.472C17.7794 29.472 18.6114 30.32 18.6594 31.584H13.9554ZM22.574 36H23.822V29.568H25.646V28.512H23.822V27.104C23.822 25.808 23.87 24.864 25.166 24.864C25.454 24.864 25.742 24.928 26.014 25.024L26.19 23.904C25.95 23.776 25.55 23.712 25.23 23.712C23.214 23.712 22.574 25.008 22.574 26.832V28.512H20.942V29.568H22.574V36ZM27.6689 30.288C28.2609 29.744 29.0929 29.472 29.8929 29.472C31.0609 29.472 31.7489 30.032 31.7489 31.12V31.344H31.2689C29.4289 31.344 26.5489 31.488 26.5489 33.968C26.5489 35.424 27.8129 36.192 29.3329 36.192C30.4689 36.192 31.3009 35.648 31.7969 34.88H31.8289C31.8289 35.2 31.8289 35.664 31.9089 36H33.1089C33.0449 35.616 32.9969 35.136 32.9969 34.704V31.488C32.9969 29.376 32.0689 28.32 29.8609 28.32C28.7729 28.32 27.6529 28.688 26.8849 29.472L27.6689 30.288ZM31.7489 32.4V32.88C31.7169 34.096 30.9809 35.136 29.5409 35.136C28.5969 35.136 27.8929 34.784 27.8929 33.84C27.8929 32.832 28.9169 32.4 30.5009 32.4H31.7489ZM41.8058 28.512H40.5578V32.16C40.5578 33.872 39.8538 35.04 38.2378 35.04C37.0698 35.04 36.5258 34.256 36.5258 33.008V28.512H35.2778V33.136C35.2778 34.944 36.1578 36.192 38.1258 36.192C39.3578 36.192 40.2858 35.504 40.6218 34.768H40.6538C40.6538 35.184 40.6858 35.6 40.6858 36H41.8698C41.8698 35.504 41.8058 34.912 41.8058 34.224V28.512ZM44.2804 36H45.5284V23.904H44.2804V36ZM52.1081 28.512H49.9001V26.384H48.6521V28.512H47.0201V29.568H48.6521V33.68C48.6521 35.232 48.9401 36.192 50.7161 36.192C51.1801 36.192 51.7401 36.112 52.1721 35.92L52.1241 34.784C51.7881 34.96 51.3881 35.04 51.0201 35.04C49.9161 35.04 49.9001 34.272 49.9001 33.312V29.568H52.1081V28.512Z" fill="black"/>
<g clip-path="url(#clip0_1_256)">
<path d="M81.408 18H82.752V12.912H88.032V11.664H82.752V7.92H88.432V6.672H81.408V18ZM90.1866 18H91.4346V10.512H90.1866V18ZM89.8986 7.584C89.8986 8.112 90.2826 8.496 90.8106 8.496C91.3386 8.496 91.7226 8.112 91.7226 7.584C91.7226 7.088 91.3226 6.672 90.8106 6.672C90.2986 6.672 89.8986 7.088 89.8986 7.584ZM99.6624 15.904C99.0704 16.656 98.3504 17.04 97.2784 17.04C95.9184 17.04 94.9264 15.936 94.8304 14.64H100.878V14.24C100.878 11.76 99.4384 10.32 97.3264 10.32C95.1184 10.32 93.4864 11.936 93.4864 14.256C93.4864 16.432 94.9264 18.192 97.2784 18.192C98.6704 18.192 99.7264 17.776 100.606 16.64L99.6624 15.904ZM94.8304 13.584C94.9904 12.32 95.9024 11.472 97.2784 11.472C98.6544 11.472 99.4864 12.32 99.5344 13.584H94.8304ZM102.921 18H104.169V5.904H102.921V18ZM112.877 18H114.125V5.904H112.877V11.6H112.845C112.157 10.8 111.245 10.32 110.157 10.32C107.805 10.32 106.221 11.984 106.221 14.256C106.221 16.496 107.869 18.192 109.965 18.192C111.309 18.192 112.381 17.52 112.845 16.672H112.877V18ZM112.877 14.256C112.877 15.824 111.837 17.04 110.221 17.04C108.605 17.04 107.565 15.824 107.565 14.256C107.565 12.688 108.605 11.472 110.221 11.472C111.837 11.472 112.877 12.688 112.877 14.256ZM121.111 18H127.639V16.752H122.455V6.672H121.111V18ZM129.575 12.288C130.167 11.744 130.999 11.472 131.799 11.472C132.967 11.472 133.655 12.032 133.655 13.12V13.344H133.175C131.335 13.344 128.455 13.488 128.455 15.968C128.455 17.424 129.719 18.192 131.239 18.192C132.375 18.192 133.207 17.648 133.703 16.88H133.735C133.735 17.2 133.735 17.664 133.815 18H135.015C134.951 17.616 134.903 17.136 134.903 16.704V13.488C134.903 11.376 133.975 10.32 131.767 10.32C130.679 10.32 129.559 10.688 128.791 11.472L129.575 12.288ZM133.655 14.4V14.88C133.623 16.096 132.887 17.136 131.447 17.136C130.503 17.136 129.799 16.784 129.799 15.84C129.799 14.832 130.823 14.4 132.407 14.4H133.655ZM137.12 18H138.368V16.672H138.4C138.864 17.52 139.936 18.192 141.28 18.192C143.376 18.192 145.024 16.496 145.024 14.256C145.024 11.984 143.44 10.32 141.088 10.32C140 10.32 139.088 10.8 138.4 11.6H138.368V5.904H137.12V18ZM138.368 14.256C138.368 12.688 139.408 11.472 141.024 11.472C142.64 11.472 143.68 12.688 143.68 14.256C143.68 15.824 142.64 17.04 141.024 17.04C139.408 17.04 138.368 15.824 138.368 14.256ZM152.709 15.904C152.117 16.656 151.397 17.04 150.325 17.04C148.965 17.04 147.973 15.936 147.877 14.64H153.925V14.24C153.925 11.76 152.485 10.32 150.373 10.32C148.165 10.32 146.533 11.936 146.533 14.256C146.533 16.432 147.973 18.192 150.325 18.192C151.717 18.192 152.773 17.776 153.653 16.64L152.709 15.904ZM147.877 13.584C148.037 12.32 148.949 11.472 150.325 11.472C151.701 11.472 152.533 12.32 152.581 13.584H147.877ZM155.968 18H157.216V5.904H155.968V18Z" fill="black"/>
</g>
<g clip-path="url(#clip1_1_256)">
<rect x="80" y="28" width="320" height="36" rx="4" fill="white"/>
<path d="M103.333 46.6667H92.6667C92.4899 46.6667 92.3203 46.5964 92.1953 46.4714C92.0702 46.3464 92 46.1768 92 46C92 45.8232 92.0702 45.6536 92.1953 45.5286C92.3203 45.4036 92.4899 45.3333 92.6667 45.3333H103.333C103.51 45.3333 103.68 45.4036 103.805 45.5286C103.93 45.6536 104 45.8232 104 46C104 46.1768 103.93 46.3464 103.805 46.4714C103.68 46.5964 103.51 46.6667 103.333 46.6667Z" fill="#6B778C"/>
<path opacity="0.5" d="M128.096 50H129.616L130.784 47.216H136.448L137.6 50H139.168L134.352 38.672H133.088L128.096 50ZM135.936 45.968H131.312L133.664 40.4H133.696L135.936 45.968ZM149.17 38.672H147.826V45.488C147.826 47.312 147.154 49.04 144.898 49.04C142.642 49.04 141.97 47.312 141.97 45.488V38.672H140.626V45.68C140.626 48.144 141.778 50.288 144.898 50.288C148.018 50.288 149.17 48.144 149.17 45.68V38.672ZM151.731 50H156.083C158.307 50 161.635 48.512 161.635 44.336C161.635 40.16 158.307 38.672 156.083 38.672H151.731V50ZM153.075 39.92H155.635C158.227 39.92 160.195 41.232 160.195 44.336C160.195 47.44 158.227 48.752 155.635 48.752H153.075V39.92Z" fill="#9EA6B5"/>
<path opacity="0.5" d="M172.408 50H173.752V44.912H176.024C177.624 44.912 179.736 44.256 179.736 41.776C179.736 39.408 177.848 38.672 175.768 38.672H172.408V50ZM173.752 39.92H176.024C177.368 39.92 178.296 40.528 178.296 41.792C178.296 43.056 177.368 43.664 176.024 43.664H173.752V39.92ZM181.78 50H183.028V37.904H181.78V50ZM186.2 44.288C186.792 43.744 187.624 43.472 188.424 43.472C189.592 43.472 190.28 44.032 190.28 45.12V45.344H189.8C187.96 45.344 185.08 45.488 185.08 47.968C185.08 49.424 186.344 50.192 187.864 50.192C189 50.192 189.832 49.648 190.328 48.88H190.36C190.36 49.2 190.36 49.664 190.44 50H191.64C191.576 49.616 191.528 49.136 191.528 48.704V45.488C191.528 43.376 190.6 42.32 188.392 42.32C187.304 42.32 186.184 42.688 185.416 43.472L186.2 44.288ZM190.28 46.4V46.88C190.248 48.096 189.512 49.136 188.072 49.136C187.128 49.136 186.424 48.784 186.424 47.84C186.424 46.832 187.448 46.4 189.032 46.4H190.28ZM200.129 43.504C199.377 42.688 198.353 42.32 197.249 42.32C194.945 42.32 193.377 43.984 193.377 46.256C193.377 48.56 194.929 50.192 197.249 50.192C198.337 50.192 199.361 49.824 200.081 48.992L199.153 48.112C198.689 48.752 198.065 49.04 197.249 49.04C195.729 49.04 194.721 47.792 194.721 46.256C194.721 44.72 195.569 43.472 197.249 43.472C198.001 43.472 198.609 43.744 199.137 44.384L200.129 43.504ZM207.272 47.904C206.68 48.656 205.96 49.04 204.888 49.04C203.528 49.04 202.536 47.936 202.44 46.64H208.488V46.24C208.488 43.76 207.048 42.32 204.936 42.32C202.728 42.32 201.096 43.936 201.096 46.256C201.096 48.432 202.536 50.192 204.888 50.192C206.28 50.192 207.336 49.776 208.216 48.64L207.272 47.904ZM202.44 45.584C202.6 44.32 203.512 43.472 204.888 43.472C206.264 43.472 207.096 44.32 207.144 45.584H202.44ZM210.418 50H211.666V46.352C211.666 44.64 212.37 43.472 213.986 43.472C215.154 43.472 215.698 44.256 215.698 45.504V50H216.946V45.376C216.946 43.568 216.066 42.32 214.098 42.32C212.93 42.32 212.034 42.96 211.698 43.552H211.666V37.904H210.418V50ZM218.877 46.256C218.877 48.592 220.573 50.192 222.877 50.192C225.181 50.192 226.877 48.592 226.877 46.256C226.877 43.92 225.181 42.32 222.877 42.32C220.573 42.32 218.877 43.92 218.877 46.256ZM220.221 46.256C220.221 44.688 221.261 43.472 222.877 43.472C224.493 43.472 225.533 44.688 225.533 46.256C225.533 47.824 224.493 49.04 222.877 49.04C221.261 49.04 220.221 47.824 220.221 46.256ZM228.921 50H230.169V37.904H228.921V50ZM238.877 50H240.125V37.904H238.877V43.6H238.845C238.157 42.8 237.245 42.32 236.157 42.32C233.805 42.32 232.221 43.984 232.221 46.256C232.221 48.496 233.869 50.192 235.965 50.192C237.309 50.192 238.381 49.52 238.845 48.672H238.877V50ZM238.877 46.256C238.877 47.824 237.837 49.04 236.221 49.04C234.605 49.04 233.565 47.824 233.565 46.256C233.565 44.688 234.605 43.472 236.221 43.472C237.837 43.472 238.877 44.688 238.877 46.256ZM248.178 47.904C247.586 48.656 246.866 49.04 245.794 49.04C244.434 49.04 243.442 47.936 243.346 46.64H249.394V46.24C249.394 43.76 247.954 42.32 245.842 42.32C243.634 42.32 242.002 43.936 242.002 46.256C242.002 48.432 243.442 50.192 245.794 50.192C247.186 50.192 248.242 49.776 249.122 48.64L248.178 47.904ZM243.346 45.584C243.506 44.32 244.418 43.472 245.794 43.472C247.17 43.472 248.002 44.32 248.05 45.584H243.346ZM251.325 50H252.573V46.352C252.573 44.64 253.245 43.568 254.765 43.568C254.989 43.568 255.229 43.6 255.437 43.664L255.517 42.4C255.341 42.336 255.165 42.32 255.005 42.32C253.773 42.32 252.845 43.008 252.509 43.744H252.477C252.477 43.328 252.445 42.912 252.445 42.512H251.261C251.261 43.008 251.325 43.6 251.325 44.288V50Z" fill="#9EA6B5"/>
<path d="M382.499 45.5V41.3333C382.499 41.2007 382.446 41.0736 382.353 40.9798C382.259 40.886 382.132 40.8333 381.999 40.8333C381.866 40.8333 381.739 40.886 381.645 40.9798C381.552 41.0736 381.499 41.2007 381.499 41.3333V45.5H377.332C377.2 45.5 377.073 45.5527 376.979 45.6465C376.885 45.7402 376.832 45.8674 376.832 46C376.832 46.1326 376.885 46.2598 376.979 46.3536C377.073 46.4473 377.2 46.5 377.332 46.5H381.499V50.6667C381.501 50.7987 381.554 50.9249 381.647 51.0183C381.741 51.1117 381.867 51.165 381.999 51.1667C382.132 51.1667 382.259 51.114 382.353 51.0202C382.446 50.9265 382.499 50.7993 382.499 50.6667V46.5H386.666C386.798 46.5 386.925 46.4473 387.019 46.3536C387.113 46.2598 387.166 46.1326 387.166 46C387.164 45.8679 387.111 45.7418 387.017 45.6484C386.924 45.555 386.798 45.5017 386.666 45.5H382.499Z" fill="#6B778C"/>
</g>
<rect x="80.5" y="28.5" width="319" height="35" rx="3.5" stroke="#9EA6B5"/>
<path d="M0.096 108H1.616L2.784 105.216H8.448L9.6 108H11.168L6.352 96.672H5.088L0.096 108ZM7.936 103.968H3.312L5.664 98.4H5.696L7.936 103.968ZM18.7696 101.504C18.0176 100.688 16.9936 100.32 15.8896 100.32C13.5856 100.32 12.0176 101.984 12.0176 104.256C12.0176 106.56 13.5696 108.192 15.8896 108.192C16.9776 108.192 18.0016 107.824 18.7216 106.992L17.7936 106.112C17.3296 106.752 16.7056 107.04 15.8896 107.04C14.3696 107.04 13.3616 105.792 13.3616 104.256C13.3616 102.72 14.2096 101.472 15.8896 101.472C16.6416 101.472 17.2496 101.744 17.7776 102.384L18.7696 101.504ZM24.2644 100.512H22.0564V98.384H20.8084V100.512H19.1764V101.568H20.8084V105.68C20.8084 107.232 21.0964 108.192 22.8724 108.192C23.3364 108.192 23.8964 108.112 24.3284 107.92L24.2804 106.784C23.9444 106.96 23.5444 107.04 23.1764 107.04C22.0724 107.04 22.0564 106.272 22.0564 105.312V101.568H24.2644V100.512ZM25.9054 108H27.1534V100.512H25.9054V108ZM25.6174 97.584C25.6174 98.112 26.0014 98.496 26.5294 98.496C27.0574 98.496 27.4414 98.112 27.4414 97.584C27.4414 97.088 27.0414 96.672 26.5294 96.672C26.0174 96.672 25.6174 97.088 25.6174 97.584ZM36.0051 100.512H34.6611L32.4371 106.384H32.4051L30.0691 100.512H28.6131L31.6691 108H33.0451L36.0051 100.512ZM43.0999 105.904C42.5079 106.656 41.7879 107.04 40.7159 107.04C39.3559 107.04 38.3639 105.936 38.2679 104.64H44.3159V104.24C44.3159 101.76 42.8759 100.32 40.7639 100.32C38.5559 100.32 36.9239 101.936 36.9239 104.256C36.9239 106.432 38.3639 108.192 40.7159 108.192C42.1079 108.192 43.1639 107.776 44.0439 106.64L43.0999 105.904ZM38.2679 103.584C38.4279 102.32 39.3399 101.472 40.7159 101.472C42.0919 101.472 42.9239 102.32 42.9719 103.584H38.2679Z" fill="black"/>
<g clip-path="url(#clip2_1_256)">
<path d="M81.408 90H82.752V84.912H88.032V83.664H82.752V79.92H88.432V78.672H81.408V90ZM90.1866 90H91.4346V82.512H90.1866V90ZM89.8986 79.584C89.8986 80.112 90.2826 80.496 90.8106 80.496C91.3386 80.496 91.7226 80.112 91.7226 79.584C91.7226 79.088 91.3226 78.672 90.8106 78.672C90.2986 78.672 89.8986 79.088 89.8986 79.584ZM99.6624 87.904C99.0704 88.656 98.3504 89.04 97.2784 89.04C95.9184 89.04 94.9264 87.936 94.8304 86.64H100.878V86.24C100.878 83.76 99.4384 82.32 97.3264 82.32C95.1184 82.32 93.4864 83.936 93.4864 86.256C93.4864 88.432 94.9264 90.192 97.2784 90.192C98.6704 90.192 99.7264 89.776 100.606 88.64L99.6624 87.904ZM94.8304 85.584C94.9904 84.32 95.9024 83.472 97.2784 83.472C98.6544 83.472 99.4864 84.32 99.5344 85.584H94.8304ZM102.921 90H104.169V77.904H102.921V90ZM112.877 90H114.125V77.904H112.877V83.6H112.845C112.157 82.8 111.245 82.32 110.157 82.32C107.805 82.32 106.221 83.984 106.221 86.256C106.221 88.496 107.869 90.192 109.965 90.192C111.309 90.192 112.381 89.52 112.845 88.672H112.877V90ZM112.877 86.256C112.877 87.824 111.837 89.04 110.221 89.04C108.605 89.04 107.565 87.824 107.565 86.256C107.565 84.688 108.605 83.472 110.221 83.472C111.837 83.472 112.877 84.688 112.877 86.256ZM121.111 90H127.639V88.752H122.455V78.672H121.111V90ZM129.575 84.288C130.167 83.744 130.999 83.472 131.799 83.472C132.967 83.472 133.655 84.032 133.655 85.12V85.344H133.175C131.335 85.344 128.455 85.488 128.455 87.968C128.455 89.424 129.719 90.192 131.239 90.192C132.375 90.192 133.207 89.648 133.703 88.88H133.735C133.735 89.2 133.735 89.664 133.815 90H135.015C134.951 89.616 134.903 89.136 134.903 88.704V85.488C134.903 83.376 133.975 82.32 131.767 82.32C130.679 82.32 129.559 82.688 128.791 83.472L129.575 84.288ZM133.655 86.4V86.88C133.623 88.096 132.887 89.136 131.447 89.136C130.503 89.136 129.799 88.784 129.799 87.84C129.799 86.832 130.823 86.4 132.407 86.4H133.655ZM137.12 90H138.368V88.672H138.4C138.864 89.52 139.936 90.192 141.28 90.192C143.376 90.192 145.024 88.496 145.024 86.256C145.024 83.984 143.44 82.32 141.088 82.32C140 82.32 139.088 82.8 138.4 83.6H138.368V77.904H137.12V90ZM138.368 86.256C138.368 84.688 139.408 83.472 141.024 83.472C142.64 83.472 143.68 84.688 143.68 86.256C143.68 87.824 142.64 89.04 141.024 89.04C139.408 89.04 138.368 87.824 138.368 86.256ZM152.709 87.904C152.117 88.656 151.397 89.04 150.325 89.04C148.965 89.04 147.973 87.936 147.877 86.64H153.925V86.24C153.925 83.76 152.485 82.32 150.373 82.32C148.165 82.32 146.533 83.936 146.533 86.256C146.533 88.432 147.973 90.192 150.325 90.192C151.717 90.192 152.773 89.776 153.653 88.64L152.709 87.904ZM147.877 85.584C148.037 84.32 148.949 83.472 150.325 83.472C151.701 83.472 152.533 84.32 152.581 85.584H147.877ZM155.968 90H157.216V77.904H155.968V90Z" fill="black"/>
</g>
<g clip-path="url(#clip3_1_256)">
<rect x="80" y="100" width="320" height="36" rx="4" fill="white"/>
<path d="M103.333 118.667H92.6667C92.4899 118.667 92.3203 118.596 92.1953 118.471C92.0702 118.346 92 118.177 92 118C92 117.823 92.0702 117.654 92.1953 117.529C92.3203 117.404 92.4899 117.333 92.6667 117.333H103.333C103.51 117.333 103.68 117.404 103.805 117.529C103.93 117.654 104 117.823 104 118C104 118.177 103.93 118.346 103.805 118.471C103.68 118.596 103.51 118.667 103.333 118.667Z" fill="#6C3078"/>
<path opacity="0.8" d="M128.096 122H129.616L130.784 119.216H136.448L137.6 122H139.168L134.352 110.672H133.088L128.096 122ZM135.936 117.968H131.312L133.664 112.4H133.696L135.936 117.968ZM149.17 110.672H147.826V117.488C147.826 119.312 147.154 121.04 144.898 121.04C142.642 121.04 141.97 119.312 141.97 117.488V110.672H140.626V117.68C140.626 120.144 141.778 122.288 144.898 122.288C148.018 122.288 149.17 120.144 149.17 117.68V110.672ZM151.731 122H156.083C158.307 122 161.635 120.512 161.635 116.336C161.635 112.16 158.307 110.672 156.083 110.672H151.731V122ZM153.075 111.92H155.635C158.227 111.92 160.195 113.232 160.195 116.336C160.195 119.44 158.227 120.752 155.635 120.752H153.075V111.92Z" fill="#9EA6B5"/>
<path opacity="0.8" d="M172.408 122H173.752V116.912H176.024C177.624 116.912 179.736 116.256 179.736 113.776C179.736 111.408 177.848 110.672 175.768 110.672H172.408V122ZM173.752 111.92H176.024C177.368 111.92 178.296 112.528 178.296 113.792C178.296 115.056 177.368 115.664 176.024 115.664H173.752V111.92ZM181.78 122H183.028V109.904H181.78V122ZM186.2 116.288C186.792 115.744 187.624 115.472 188.424 115.472C189.592 115.472 190.28 116.032 190.28 117.12V117.344H189.8C187.96 117.344 185.08 117.488 185.08 119.968C185.08 121.424 186.344 122.192 187.864 122.192C189 122.192 189.832 121.648 190.328 120.88H190.36C190.36 121.2 190.36 121.664 190.44 122H191.64C191.576 121.616 191.528 121.136 191.528 120.704V117.488C191.528 115.376 190.6 114.32 188.392 114.32C187.304 114.32 186.184 114.688 185.416 115.472L186.2 116.288ZM190.28 118.4V118.88C190.248 120.096 189.512 121.136 188.072 121.136C187.128 121.136 186.424 120.784 186.424 119.84C186.424 118.832 187.448 118.4 189.032 118.4H190.28ZM200.129 115.504C199.377 114.688 198.353 114.32 197.249 114.32C194.945 114.32 193.377 115.984 193.377 118.256C193.377 120.56 194.929 122.192 197.249 122.192C198.337 122.192 199.361 121.824 200.081 120.992L199.153 120.112C198.689 120.752 198.065 121.04 197.249 121.04C195.729 121.04 194.721 119.792 194.721 118.256C194.721 116.72 195.569 115.472 197.249 115.472C198.001 115.472 198.609 115.744 199.137 116.384L200.129 115.504ZM207.272 119.904C206.68 120.656 205.96 121.04 204.888 121.04C203.528 121.04 202.536 119.936 202.44 118.64H208.488V118.24C208.488 115.76 207.048 114.32 204.936 114.32C202.728 114.32 201.096 115.936 201.096 118.256C201.096 120.432 202.536 122.192 204.888 122.192C206.28 122.192 207.336 121.776 208.216 120.64L207.272 119.904ZM202.44 117.584C202.6 116.32 203.512 115.472 204.888 115.472C206.264 115.472 207.096 116.32 207.144 117.584H202.44ZM210.418 122H211.666V118.352C211.666 116.64 212.37 115.472 213.986 115.472C215.154 115.472 215.698 116.256 215.698 117.504V122H216.946V117.376C216.946 115.568 216.066 114.32 214.098 114.32C212.93 114.32 212.034 114.96 211.698 115.552H211.666V109.904H210.418V122ZM218.877 118.256C218.877 120.592 220.573 122.192 222.877 122.192C225.181 122.192 226.877 120.592 226.877 118.256C226.877 115.92 225.181 114.32 222.877 114.32C220.573 114.32 218.877 115.92 218.877 118.256ZM220.221 118.256C220.221 116.688 221.261 115.472 222.877 115.472C224.493 115.472 225.533 116.688 225.533 118.256C225.533 119.824 224.493 121.04 222.877 121.04C221.261 121.04 220.221 119.824 220.221 118.256ZM228.921 122H230.169V109.904H228.921V122ZM238.877 122H240.125V109.904H238.877V115.6H238.845C238.157 114.8 237.245 114.32 236.157 114.32C233.805 114.32 232.221 115.984 232.221 118.256C232.221 120.496 233.869 122.192 235.965 122.192C237.309 122.192 238.381 121.52 238.845 120.672H238.877V122ZM238.877 118.256C238.877 119.824 237.837 121.04 236.221 121.04C234.605 121.04 233.565 119.824 233.565 118.256C233.565 116.688 234.605 115.472 236.221 115.472C237.837 115.472 238.877 116.688 238.877 118.256ZM248.178 119.904C247.586 120.656 246.866 121.04 245.794 121.04C244.434 121.04 243.442 119.936 243.346 118.64H249.394V118.24C249.394 115.76 247.954 114.32 245.842 114.32C243.634 114.32 242.002 115.936 242.002 118.256C242.002 120.432 243.442 122.192 245.794 122.192C247.186 122.192 248.242 121.776 249.122 120.64L248.178 119.904ZM243.346 117.584C243.506 116.32 244.418 115.472 245.794 115.472C247.17 115.472 248.002 116.32 248.05 117.584H243.346ZM251.325 122H252.573V118.352C252.573 116.64 253.245 115.568 254.765 115.568C254.989 115.568 255.229 115.6 255.437 115.664L255.517 114.4C255.341 114.336 255.165 114.32 255.005 114.32C253.773 114.32 252.845 115.008 252.509 115.744H252.477C252.477 115.328 252.445 114.912 252.445 114.512H251.261C251.261 115.008 251.325 115.6 251.325 116.288V122Z" fill="#9EA6B5"/>
<path d="M382.499 117.5V113.333C382.499 113.201 382.446 113.074 382.353 112.98C382.259 112.886 382.132 112.833 381.999 112.833C381.866 112.833 381.739 112.886 381.645 112.98C381.552 113.074 381.499 113.201 381.499 113.333V117.5H377.332C377.2 117.5 377.073 117.553 376.979 117.646C376.885 117.74 376.832 117.867 376.832 118C376.832 118.133 376.885 118.26 376.979 118.354C377.073 118.447 377.2 118.5 377.332 118.5H381.499V122.667C381.501 122.799 381.554 122.925 381.647 123.018C381.741 123.112 381.867 123.165 381.999 123.167C382.132 123.167 382.259 123.114 382.353 123.02C382.446 122.926 382.499 122.799 382.499 122.667V118.5H386.666C386.798 118.5 386.925 118.447 387.019 118.354C387.113 118.26 387.166 118.133 387.166 118C387.164 117.868 387.111 117.742 387.017 117.648C386.924 117.555 386.798 117.502 386.666 117.5H382.499Z" fill="#6C3078"/>
</g>
<rect x="81" y="101" width="318" height="34" rx="3" stroke="#6C3078" stroke-width="2"/>
<path d="M1.2 180H5.552C7.776 180 11.104 178.512 11.104 174.336C11.104 170.16 7.776 168.672 5.552 168.672H1.2V180ZM2.544 169.92H5.104C7.696 169.92 9.664 171.232 9.664 174.336C9.664 177.44 7.696 178.752 5.104 178.752H2.544V169.92ZM13.1554 180H14.4034V172.512H13.1554V180ZM12.8674 169.584C12.8674 170.112 13.2514 170.496 13.7794 170.496C14.3074 170.496 14.6914 170.112 14.6914 169.584C14.6914 169.088 14.2914 168.672 13.7794 168.672C13.2674 168.672 12.8674 169.088 12.8674 169.584ZM16.0551 178.8C16.7911 179.856 17.7031 180.192 18.9671 180.192C20.4551 180.192 21.9591 179.536 21.9591 177.84C21.9591 176.336 20.8391 175.856 19.5111 175.6C18.5191 175.408 17.6231 175.136 17.6231 174.512C17.6231 173.808 18.4071 173.472 19.0951 173.472C19.8311 173.472 20.3591 173.84 20.6791 174.368L21.7191 173.68C21.2071 172.72 20.2311 172.32 19.1751 172.32C17.7831 172.32 16.3751 173.072 16.3751 174.528C16.3751 176.08 17.5911 176.384 19.0151 176.704C19.8151 176.88 20.6151 177.088 20.6151 177.888C20.6151 178.704 19.7511 179.04 18.9671 179.04C18.0871 179.04 17.5431 178.64 17.0471 178.032L16.0551 178.8ZM24.3876 174.288C24.9796 173.744 25.8116 173.472 26.6116 173.472C27.7796 173.472 28.4676 174.032 28.4676 175.12V175.344H27.9876C26.1476 175.344 23.2676 175.488 23.2676 177.968C23.2676 179.424 24.5316 180.192 26.0516 180.192C27.1876 180.192 28.0196 179.648 28.5156 178.88H28.5476C28.5476 179.2 28.5476 179.664 28.6276 180H29.8276C29.7636 179.616 29.7156 179.136 29.7156 178.704V175.488C29.7156 173.376 28.7876 172.32 26.5796 172.32C25.4916 172.32 24.3716 172.688 23.6036 173.472L24.3876 174.288ZM28.4676 176.4V176.88C28.4356 178.096 27.6996 179.136 26.2596 179.136C25.3156 179.136 24.6116 178.784 24.6116 177.84C24.6116 176.832 25.6356 176.4 27.2196 176.4H28.4676ZM31.9325 180H33.1805V178.672H33.2125C33.6765 179.52 34.7485 180.192 36.0925 180.192C38.1885 180.192 39.8365 178.496 39.8365 176.256C39.8365 173.984 38.2525 172.32 35.9005 172.32C34.8125 172.32 33.9005 172.8 33.2125 173.6H33.1805V167.904H31.9325V180ZM33.1805 176.256C33.1805 174.688 34.2205 173.472 35.8365 173.472C37.4525 173.472 38.4925 174.688 38.4925 176.256C38.4925 177.824 37.4525 179.04 35.8365 179.04C34.2205 179.04 33.1805 177.824 33.1805 176.256ZM41.8898 180H43.1378V167.904H41.8898V180ZM51.3655 177.904C50.7735 178.656 50.0535 179.04 48.9815 179.04C47.6215 179.04 46.6295 177.936 46.5335 176.64H52.5815V176.24C52.5815 173.76 51.1415 172.32 49.0295 172.32C46.8215 172.32 45.1895 173.936 45.1895 176.256C45.1895 178.432 46.6295 180.192 48.9815 180.192C50.3735 180.192 51.4295 179.776 52.3095 178.64L51.3655 177.904ZM46.5335 175.584C46.6935 174.32 47.6055 173.472 48.9815 173.472C50.3575 173.472 51.1895 174.32 51.2375 175.584H46.5335ZM60.7361 180H61.9841V167.904H60.7361V173.6H60.7041C60.0161 172.8 59.1041 172.32 58.0161 172.32C55.6641 172.32 54.0801 173.984 54.0801 176.256C54.0801 178.496 55.7281 180.192 57.8241 180.192C59.1681 180.192 60.2401 179.52 60.7041 178.672H60.7361V180ZM60.7361 176.256C60.7361 177.824 59.6961 179.04 58.0801 179.04C56.4641 179.04 55.4241 177.824 55.4241 176.256C55.4241 174.688 56.4641 173.472 58.0801 173.472C59.6961 173.472 60.7361 174.688 60.7361 176.256Z" fill="black"/>
<g clip-path="url(#clip4_1_256)">
<path d="M81.408 162H82.752V156.912H88.032V155.664H82.752V151.92H88.432V150.672H81.408V162ZM90.1866 162H91.4346V154.512H90.1866V162ZM89.8986 151.584C89.8986 152.112 90.2826 152.496 90.8106 152.496C91.3386 152.496 91.7226 152.112 91.7226 151.584C91.7226 151.088 91.3226 150.672 90.8106 150.672C90.2986 150.672 89.8986 151.088 89.8986 151.584ZM99.6624 159.904C99.0704 160.656 98.3504 161.04 97.2784 161.04C95.9184 161.04 94.9264 159.936 94.8304 158.64H100.878V158.24C100.878 155.76 99.4384 154.32 97.3264 154.32C95.1184 154.32 93.4864 155.936 93.4864 158.256C93.4864 160.432 94.9264 162.192 97.2784 162.192C98.6704 162.192 99.7264 161.776 100.606 160.64L99.6624 159.904ZM94.8304 157.584C94.9904 156.32 95.9024 155.472 97.2784 155.472C98.6544 155.472 99.4864 156.32 99.5344 157.584H94.8304ZM102.921 162H104.169V149.904H102.921V162ZM112.877 162H114.125V149.904H112.877V155.6H112.845C112.157 154.8 111.245 154.32 110.157 154.32C107.805 154.32 106.221 155.984 106.221 158.256C106.221 160.496 107.869 162.192 109.965 162.192C111.309 162.192 112.381 161.52 112.845 160.672H112.877V162ZM112.877 158.256C112.877 159.824 111.837 161.04 110.221 161.04C108.605 161.04 107.565 159.824 107.565 158.256C107.565 156.688 108.605 155.472 110.221 155.472C111.837 155.472 112.877 156.688 112.877 158.256ZM121.111 162H127.639V160.752H122.455V150.672H121.111V162ZM129.575 156.288C130.167 155.744 130.999 155.472 131.799 155.472C132.967 155.472 133.655 156.032 133.655 157.12V157.344H133.175C131.335 157.344 128.455 157.488 128.455 159.968C128.455 161.424 129.719 162.192 131.239 162.192C132.375 162.192 133.207 161.648 133.703 160.88H133.735C133.735 161.2 133.735 161.664 133.815 162H135.015C134.951 161.616 134.903 161.136 134.903 160.704V157.488C134.903 155.376 133.975 154.32 131.767 154.32C130.679 154.32 129.559 154.688 128.791 155.472L129.575 156.288ZM133.655 158.4V158.88C133.623 160.096 132.887 161.136 131.447 161.136C130.503 161.136 129.799 160.784 129.799 159.84C129.799 158.832 130.823 158.4 132.407 158.4H133.655ZM137.12 162H138.368V160.672H138.4C138.864 161.52 139.936 162.192 141.28 162.192C143.376 162.192 145.024 160.496 145.024 158.256C145.024 155.984 143.44 154.32 141.088 154.32C140 154.32 139.088 154.8 138.4 155.6H138.368V149.904H137.12V162ZM138.368 158.256C138.368 156.688 139.408 155.472 141.024 155.472C142.64 155.472 143.68 156.688 143.68 158.256C143.68 159.824 142.64 161.04 141.024 161.04C139.408 161.04 138.368 159.824 138.368 158.256ZM152.709 159.904C152.117 160.656 151.397 161.04 150.325 161.04C148.965 161.04 147.973 159.936 147.877 158.64H153.925V158.24C153.925 155.76 152.485 154.32 150.373 154.32C148.165 154.32 146.533 155.936 146.533 158.256C146.533 160.432 147.973 162.192 150.325 162.192C151.717 162.192 152.773 161.776 153.653 160.64L152.709 159.904ZM147.877 157.584C148.037 156.32 148.949 155.472 150.325 155.472C151.701 155.472 152.533 156.32 152.581 157.584H147.877ZM155.968 162H157.216V149.904H155.968V162Z" fill="black"/>
</g>
<g opacity="0.5">
<g clip-path="url(#clip5_1_256)">
<rect x="80" y="172" width="320" height="36" rx="4" fill="#D2D6DD"/>
<path d="M103.333 190.667H92.6667C92.4899 190.667 92.3203 190.596 92.1953 190.471C92.0702 190.346 92 190.177 92 190C92 189.823 92.0702 189.654 92.1953 189.529C92.3203 189.404 92.4899 189.333 92.6667 189.333H103.333C103.51 189.333 103.68 189.404 103.805 189.529C103.93 189.654 104 189.823 104 190C104 190.177 103.93 190.346 103.805 190.471C103.68 190.596 103.51 190.667 103.333 190.667Z" fill="#6B778C"/>
<g opacity="0.8">
<path opacity="0.8" d="M128.096 194H129.616L130.784 191.216H136.448L137.6 194H139.168L134.352 182.672H133.088L128.096 194ZM135.936 189.968H131.312L133.664 184.4H133.696L135.936 189.968ZM149.17 182.672H147.826V189.488C147.826 191.312 147.154 193.04 144.898 193.04C142.642 193.04 141.97 191.312 141.97 189.488V182.672H140.626V189.68C140.626 192.144 141.778 194.288 144.898 194.288C148.018 194.288 149.17 192.144 149.17 189.68V182.672ZM151.731 194H156.083C158.307 194 161.635 192.512 161.635 188.336C161.635 184.16 158.307 182.672 156.083 182.672H151.731V194ZM153.075 183.92H155.635C158.227 183.92 160.195 185.232 160.195 188.336C160.195 191.44 158.227 192.752 155.635 192.752H153.075V183.92Z" fill="#9EA6B5"/>
<path opacity="0.8" d="M172.408 194H173.752V188.912H176.024C177.624 188.912 179.736 188.256 179.736 185.776C179.736 183.408 177.848 182.672 175.768 182.672H172.408V194ZM173.752 183.92H176.024C177.368 183.92 178.296 184.528 178.296 185.792C178.296 187.056 177.368 187.664 176.024 187.664H173.752V183.92ZM181.78 194H183.028V181.904H181.78V194ZM186.2 188.288C186.792 187.744 187.624 187.472 188.424 187.472C189.592 187.472 190.28 188.032 190.28 189.12V189.344H189.8C187.96 189.344 185.08 189.488 185.08 191.968C185.08 193.424 186.344 194.192 187.864 194.192C189 194.192 189.832 193.648 190.328 192.88H190.36C190.36 193.2 190.36 193.664 190.44 194H191.64C191.576 193.616 191.528 193.136 191.528 192.704V189.488C191.528 187.376 190.6 186.32 188.392 186.32C187.304 186.32 186.184 186.688 185.416 187.472L186.2 188.288ZM190.28 190.4V190.88C190.248 192.096 189.512 193.136 188.072 193.136C187.128 193.136 186.424 192.784 186.424 191.84C186.424 190.832 187.448 190.4 189.032 190.4H190.28ZM200.129 187.504C199.377 186.688 198.353 186.32 197.249 186.32C194.945 186.32 193.377 187.984 193.377 190.256C193.377 192.56 194.929 194.192 197.249 194.192C198.337 194.192 199.361 193.824 200.081 192.992L199.153 192.112C198.689 192.752 198.065 193.04 197.249 193.04C195.729 193.04 194.721 191.792 194.721 190.256C194.721 188.72 195.569 187.472 197.249 187.472C198.001 187.472 198.609 187.744 199.137 188.384L200.129 187.504ZM207.272 191.904C206.68 192.656 205.96 193.04 204.888 193.04C203.528 193.04 202.536 191.936 202.44 190.64H208.488V190.24C208.488 187.76 207.048 186.32 204.936 186.32C202.728 186.32 201.096 187.936 201.096 190.256C201.096 192.432 202.536 194.192 204.888 194.192C206.28 194.192 207.336 193.776 208.216 192.64L207.272 191.904ZM202.44 189.584C202.6 188.32 203.512 187.472 204.888 187.472C206.264 187.472 207.096 188.32 207.144 189.584H202.44ZM210.418 194H211.666V190.352C211.666 188.64 212.37 187.472 213.986 187.472C215.154 187.472 215.698 188.256 215.698 189.504V194H216.946V189.376C216.946 187.568 216.066 186.32 214.098 186.32C212.93 186.32 212.034 186.96 211.698 187.552H211.666V181.904H210.418V194ZM218.877 190.256C218.877 192.592 220.573 194.192 222.877 194.192C225.181 194.192 226.877 192.592 226.877 190.256C226.877 187.92 225.181 186.32 222.877 186.32C220.573 186.32 218.877 187.92 218.877 190.256ZM220.221 190.256C220.221 188.688 221.261 187.472 222.877 187.472C224.493 187.472 225.533 188.688 225.533 190.256C225.533 191.824 224.493 193.04 222.877 193.04C221.261 193.04 220.221 191.824 220.221 190.256ZM228.921 194H230.169V181.904H228.921V194ZM238.877 194H240.125V181.904H238.877V187.6H238.845C238.157 186.8 237.245 186.32 236.157 186.32C233.805 186.32 232.221 187.984 232.221 190.256C232.221 192.496 233.869 194.192 235.965 194.192C237.309 194.192 238.381 193.52 238.845 192.672H238.877V194ZM238.877 190.256C238.877 191.824 237.837 193.04 236.221 193.04C234.605 193.04 233.565 191.824 233.565 190.256C233.565 188.688 234.605 187.472 236.221 187.472C237.837 187.472 238.877 188.688 238.877 190.256ZM248.178 191.904C247.586 192.656 246.866 193.04 245.794 193.04C244.434 193.04 243.442 191.936 243.346 190.64H249.394V190.24C249.394 187.76 247.954 186.32 245.842 186.32C243.634 186.32 242.002 187.936 242.002 190.256C242.002 192.432 243.442 194.192 245.794 194.192C247.186 194.192 248.242 193.776 249.122 192.64L248.178 191.904ZM243.346 189.584C243.506 188.32 244.418 187.472 245.794 187.472C247.17 187.472 248.002 188.32 248.05 189.584H243.346ZM251.325 194H252.573V190.352C252.573 188.64 253.245 187.568 254.765 187.568C254.989 187.568 255.229 187.6 255.437 187.664L255.517 186.4C255.341 186.336 255.165 186.32 255.005 186.32C253.773 186.32 252.845 187.008 252.509 187.744H252.477C252.477 187.328 252.445 186.912 252.445 186.512H251.261C251.261 187.008 251.325 187.6 251.325 188.288V194Z" fill="#9EA6B5"/>
</g>
<path d="M382.499 189.5V185.333C382.499 185.201 382.446 185.074 382.353 184.98C382.259 184.886 382.132 184.833 381.999 184.833C381.866 184.833 381.739 184.886 381.645 184.98C381.552 185.074 381.499 185.201 381.499 185.333V189.5H377.332C377.2 189.5 377.073 189.553 376.979 189.646C376.885 189.74 376.832 189.867 376.832 190C376.832 190.133 376.885 190.26 376.979 190.354C377.073 190.447 377.2 190.5 377.332 190.5H381.499V194.667C381.501 194.799 381.554 194.925 381.647 195.018C381.741 195.112 381.867 195.165 381.999 195.167C382.132 195.167 382.259 195.114 382.353 195.02C382.446 194.926 382.499 194.799 382.499 194.667V190.5H386.666C386.798 190.5 386.925 190.447 387.019 190.354C387.113 190.26 387.166 190.133 387.166 190C387.164 189.868 387.111 189.742 387.017 189.648C386.924 189.555 386.798 189.502 386.666 189.5H382.499Z" fill="#6B778C"/>
</g>
<rect x="80.5" y="172.5" width="319" height="35" rx="3.5" stroke="#9EA6B5"/>
</g>
<path d="M1.408 266H8.816V264.752H2.752V260.72H8.144V259.472H2.752V255.92H8.528V254.672H1.408V266ZM10.6684 266H11.9164V262.352C11.9164 260.64 12.5884 259.568 14.1084 259.568C14.3324 259.568 14.5724 259.6 14.7804 259.664L14.8604 258.4C14.6844 258.336 14.5084 258.32 14.3484 258.32C13.1164 258.32 12.1884 259.008 11.8524 259.744H11.8204C11.8204 259.328 11.7884 258.912 11.7884 258.512H10.6044C10.6044 259.008 10.6684 259.6 10.6684 260.288V266ZM16.2934 266H17.5414V262.352C17.5414 260.64 18.2134 259.568 19.7334 259.568C19.9574 259.568 20.1974 259.6 20.4054 259.664L20.4854 258.4C20.3094 258.336 20.1334 258.32 19.9734 258.32C18.7414 258.32 17.8134 259.008 17.4774 259.744H17.4454C17.4454 259.328 17.4134 258.912 17.4134 258.512H16.2294C16.2294 259.008 16.2934 259.6 16.2934 260.288V266ZM21.2051 262.256C21.2051 264.592 22.9011 266.192 25.2051 266.192C27.5091 266.192 29.2051 264.592 29.2051 262.256C29.2051 259.92 27.5091 258.32 25.2051 258.32C22.9011 258.32 21.2051 259.92 21.2051 262.256ZM22.5491 262.256C22.5491 260.688 23.5891 259.472 25.2051 259.472C26.8211 259.472 27.8611 260.688 27.8611 262.256C27.8611 263.824 26.8211 265.04 25.2051 265.04C23.5891 265.04 22.5491 263.824 22.5491 262.256ZM31.1371 266H32.3851V262.352C32.3851 260.64 33.0571 259.568 34.5771 259.568C34.8011 259.568 35.0411 259.6 35.2491 259.664L35.3291 258.4C35.1531 258.336 34.9771 258.32 34.8171 258.32C33.5851 258.32 32.6571 259.008 32.3211 259.744H32.2891C32.2891 259.328 32.2571 258.912 32.2571 258.512H31.0731C31.0731 259.008 31.1371 259.6 31.1371 260.288V266Z" fill="black"/>
<g clip-path="url(#clip6_1_256)">
<path d="M81.408 234H82.752V228.912H88.032V227.664H82.752V223.92H88.432V222.672H81.408V234ZM90.1866 234H91.4346V226.512H90.1866V234ZM89.8986 223.584C89.8986 224.112 90.2826 224.496 90.8106 224.496C91.3386 224.496 91.7226 224.112 91.7226 223.584C91.7226 223.088 91.3226 222.672 90.8106 222.672C90.2986 222.672 89.8986 223.088 89.8986 223.584ZM99.6624 231.904C99.0704 232.656 98.3504 233.04 97.2784 233.04C95.9184 233.04 94.9264 231.936 94.8304 230.64H100.878V230.24C100.878 227.76 99.4384 226.32 97.3264 226.32C95.1184 226.32 93.4864 227.936 93.4864 230.256C93.4864 232.432 94.9264 234.192 97.2784 234.192C98.6704 234.192 99.7264 233.776 100.606 232.64L99.6624 231.904ZM94.8304 229.584C94.9904 228.32 95.9024 227.472 97.2784 227.472C98.6544 227.472 99.4864 228.32 99.5344 229.584H94.8304ZM102.921 234H104.169V221.904H102.921V234ZM112.877 234H114.125V221.904H112.877V227.6H112.845C112.157 226.8 111.245 226.32 110.157 226.32C107.805 226.32 106.221 227.984 106.221 230.256C106.221 232.496 107.869 234.192 109.965 234.192C111.309 234.192 112.381 233.52 112.845 232.672H112.877V234ZM112.877 230.256C112.877 231.824 111.837 233.04 110.221 233.04C108.605 233.04 107.565 231.824 107.565 230.256C107.565 228.688 108.605 227.472 110.221 227.472C111.837 227.472 112.877 228.688 112.877 230.256ZM121.111 234H127.639V232.752H122.455V222.672H121.111V234ZM129.575 228.288C130.167 227.744 130.999 227.472 131.799 227.472C132.967 227.472 133.655 228.032 133.655 229.12V229.344H133.175C131.335 229.344 128.455 229.488 128.455 231.968C128.455 233.424 129.719 234.192 131.239 234.192C132.375 234.192 133.207 233.648 133.703 232.88H133.735C133.735 233.2 133.735 233.664 133.815 234H135.015C134.951 233.616 134.903 233.136 134.903 232.704V229.488C134.903 227.376 133.975 226.32 131.767 226.32C130.679 226.32 129.559 226.688 128.791 227.472L129.575 228.288ZM133.655 230.4V230.88C133.623 232.096 132.887 233.136 131.447 233.136C130.503 233.136 129.799 232.784 129.799 231.84C129.799 230.832 130.823 230.4 132.407 230.4H133.655ZM137.12 234H138.368V232.672H138.4C138.864 233.52 139.936 234.192 141.28 234.192C143.376 234.192 145.024 232.496 145.024 230.256C145.024 227.984 143.44 226.32 141.088 226.32C140 226.32 139.088 226.8 138.4 227.6H138.368V221.904H137.12V234ZM138.368 230.256C138.368 228.688 139.408 227.472 141.024 227.472C142.64 227.472 143.68 228.688 143.68 230.256C143.68 231.824 142.64 233.04 141.024 233.04C139.408 233.04 138.368 231.824 138.368 230.256ZM152.709 231.904C152.117 232.656 151.397 233.04 150.325 233.04C148.965 233.04 147.973 231.936 147.877 230.64H153.925V230.24C153.925 227.76 152.485 226.32 150.373 226.32C148.165 226.32 146.533 227.936 146.533 230.256C146.533 232.432 147.973 234.192 150.325 234.192C151.717 234.192 152.773 233.776 153.653 232.64L152.709 231.904ZM147.877 229.584C148.037 228.32 148.949 227.472 150.325 227.472C151.701 227.472 152.533 228.32 152.581 229.584H147.877ZM155.968 234H157.216V221.904H155.968V234Z" fill="black"/>
</g>
<g clip-path="url(#clip7_1_256)">
<rect x="80" y="244" width="320" height="36" rx="4" fill="white"/>
<path d="M103.333 262.667H92.6667C92.4899 262.667 92.3203 262.596 92.1953 262.471C92.0702 262.346 92 262.177 92 262C92 261.823 92.0702 261.654 92.1953 261.529C92.3203 261.404 92.4899 261.333 92.6667 261.333H103.333C103.51 261.333 103.68 261.404 103.805 261.529C103.93 261.654 104 261.823 104 262C104 262.177 103.93 262.346 103.805 262.471C103.68 262.596 103.51 262.667 103.333 262.667Z" fill="#6B778C"/>
<path opacity="0.5" d="M128.096 266H129.616L130.784 263.216H136.448L137.6 266H139.168L134.352 254.672H133.088L128.096 266ZM135.936 261.968H131.312L133.664 256.4H133.696L135.936 261.968ZM149.17 254.672H147.826V261.488C147.826 263.312 147.154 265.04 144.898 265.04C142.642 265.04 141.97 263.312 141.97 261.488V254.672H140.626V261.68C140.626 264.144 141.778 266.288 144.898 266.288C148.018 266.288 149.17 264.144 149.17 261.68V254.672ZM151.731 266H156.083C158.307 266 161.635 264.512 161.635 260.336C161.635 256.16 158.307 254.672 156.083 254.672H151.731V266ZM153.075 255.92H155.635C158.227 255.92 160.195 257.232 160.195 260.336C160.195 263.44 158.227 264.752 155.635 264.752H153.075V255.92Z" fill="#9EA6B5"/>
<path opacity="0.5" d="M172.408 266H173.752V260.912H176.024C177.624 260.912 179.736 260.256 179.736 257.776C179.736 255.408 177.848 254.672 175.768 254.672H172.408V266ZM173.752 255.92H176.024C177.368 255.92 178.296 256.528 178.296 257.792C178.296 259.056 177.368 259.664 176.024 259.664H173.752V255.92ZM181.78 266H183.028V253.904H181.78V266ZM186.2 260.288C186.792 259.744 187.624 259.472 188.424 259.472C189.592 259.472 190.28 260.032 190.28 261.12V261.344H189.8C187.96 261.344 185.08 261.488 185.08 263.968C185.08 265.424 186.344 266.192 187.864 266.192C189 266.192 189.832 265.648 190.328 264.88H190.36C190.36 265.2 190.36 265.664 190.44 266H191.64C191.576 265.616 191.528 265.136 191.528 264.704V261.488C191.528 259.376 190.6 258.32 188.392 258.32C187.304 258.32 186.184 258.688 185.416 259.472L186.2 260.288ZM190.28 262.4V262.88C190.248 264.096 189.512 265.136 188.072 265.136C187.128 265.136 186.424 264.784 186.424 263.84C186.424 262.832 187.448 262.4 189.032 262.4H190.28ZM200.129 259.504C199.377 258.688 198.353 258.32 197.249 258.32C194.945 258.32 193.377 259.984 193.377 262.256C193.377 264.56 194.929 266.192 197.249 266.192C198.337 266.192 199.361 265.824 200.081 264.992L199.153 264.112C198.689 264.752 198.065 265.04 197.249 265.04C195.729 265.04 194.721 263.792 194.721 262.256C194.721 260.72 195.569 259.472 197.249 259.472C198.001 259.472 198.609 259.744 199.137 260.384L200.129 259.504ZM207.272 263.904C206.68 264.656 205.96 265.04 204.888 265.04C203.528 265.04 202.536 263.936 202.44 262.64H208.488V262.24C208.488 259.76 207.048 258.32 204.936 258.32C202.728 258.32 201.096 259.936 201.096 262.256C201.096 264.432 202.536 266.192 204.888 266.192C206.28 266.192 207.336 265.776 208.216 264.64L207.272 263.904ZM202.44 261.584C202.6 260.32 203.512 259.472 204.888 259.472C206.264 259.472 207.096 260.32 207.144 261.584H202.44ZM210.418 266H211.666V262.352C211.666 260.64 212.37 259.472 213.986 259.472C215.154 259.472 215.698 260.256 215.698 261.504V266H216.946V261.376C216.946 259.568 216.066 258.32 214.098 258.32C212.93 258.32 212.034 258.96 211.698 259.552H211.666V253.904H210.418V266ZM218.877 262.256C218.877 264.592 220.573 266.192 222.877 266.192C225.181 266.192 226.877 264.592 226.877 262.256C226.877 259.92 225.181 258.32 222.877 258.32C220.573 258.32 218.877 259.92 218.877 262.256ZM220.221 262.256C220.221 260.688 221.261 259.472 222.877 259.472C224.493 259.472 225.533 260.688 225.533 262.256C225.533 263.824 224.493 265.04 222.877 265.04C221.261 265.04 220.221 263.824 220.221 262.256ZM228.921 266H230.169V253.904H228.921V266ZM238.877 266H240.125V253.904H238.877V259.6H238.845C238.157 258.8 237.245 258.32 236.157 258.32C233.805 258.32 232.221 259.984 232.221 262.256C232.221 264.496 233.869 266.192 235.965 266.192C237.309 266.192 238.381 265.52 238.845 264.672H238.877V266ZM238.877 262.256C238.877 263.824 237.837 265.04 236.221 265.04C234.605 265.04 233.565 263.824 233.565 262.256C233.565 260.688 234.605 259.472 236.221 259.472C237.837 259.472 238.877 260.688 238.877 262.256ZM248.178 263.904C247.586 264.656 246.866 265.04 245.794 265.04C244.434 265.04 243.442 263.936 243.346 262.64H249.394V262.24C249.394 259.76 247.954 258.32 245.842 258.32C243.634 258.32 242.002 259.936 242.002 262.256C242.002 264.432 243.442 266.192 245.794 266.192C247.186 266.192 248.242 265.776 249.122 264.64L248.178 263.904ZM243.346 261.584C243.506 260.32 244.418 259.472 245.794 259.472C247.17 259.472 248.002 260.32 248.05 261.584H243.346ZM251.325 266H252.573V262.352C252.573 260.64 253.245 259.568 254.765 259.568C254.989 259.568 255.229 259.6 255.437 259.664L255.517 258.4C255.341 258.336 255.165 258.32 255.005 258.32C253.773 258.32 252.845 259.008 252.509 259.744H252.477C252.477 259.328 252.445 258.912 252.445 258.512H251.261C251.261 259.008 251.325 259.6 251.325 260.288V266Z" fill="#9EA6B5"/>
<path d="M382.499 261.5V257.333C382.499 257.201 382.446 257.074 382.353 256.98C382.259 256.886 382.132 256.833 381.999 256.833C381.866 256.833 381.739 256.886 381.645 256.98C381.552 257.074 381.499 257.201 381.499 257.333V261.5H377.332C377.2 261.5 377.073 261.553 376.979 261.646C376.885 261.74 376.832 261.867 376.832 262C376.832 262.133 376.885 262.26 376.979 262.354C377.073 262.447 377.2 262.5 377.332 262.5H381.499V266.667C381.501 266.799 381.554 266.925 381.647 267.018C381.741 267.112 381.867 267.165 381.999 267.167C382.132 267.167 382.259 267.114 382.353 267.02C382.446 266.926 382.499 266.799 382.499 266.667V262.5H386.666C386.798 262.5 386.925 262.447 387.019 262.354C387.113 262.26 387.166 262.133 387.166 262C387.164 261.868 387.111 261.742 387.017 261.648C386.924 261.555 386.798 261.502 386.666 261.5H382.499Z" fill="#6B778C"/>
</g>
<rect x="80.5" y="244.5" width="319" height="35" rx="3.5" stroke="#DB3259"/>
<path d="M96.6667 299.625H83.3333C83.2241 299.625 83.1169 299.596 83.0219 299.542C82.927 299.488 82.8477 299.41 82.7917 299.317C82.7384 299.221 82.7104 299.114 82.7104 299.004C82.7104 298.895 82.7384 298.787 82.7917 298.692L89.4583 287.025C89.5176 286.936 89.5981 286.862 89.6926 286.812C89.7871 286.761 89.8927 286.734 90 286.734C90.1073 286.734 90.2129 286.761 90.3074 286.812C90.4019 286.862 90.4824 286.936 90.5417 287.025L97.2083 298.692C97.2616 298.787 97.2896 298.895 97.2896 299.004C97.2896 299.114 97.2616 299.221 97.2083 299.317C97.1523 299.41 97.073 299.488 96.9781 299.542C96.8831 299.596 96.7759 299.625 96.6667 299.625ZM84.4083 298.375H95.5917L90 288.592L84.4083 298.375Z" fill="#DB3259"/>
<path d="M90 295.042C89.8349 295.04 89.6772 294.973 89.5604 294.856C89.4437 294.739 89.3772 294.582 89.375 294.417V291.5C89.375 291.334 89.4408 291.175 89.5581 291.058C89.6753 290.941 89.8342 290.875 90 290.875C90.1658 290.875 90.3247 290.941 90.4419 291.058C90.5592 291.175 90.625 291.334 90.625 291.5V294.417C90.6228 294.582 90.5563 294.739 90.4396 294.856C90.3228 294.973 90.1651 295.04 90 295.042V295.042Z" fill="#DB3259"/>
<path d="M90 297.542C89.8349 297.54 89.6772 297.473 89.5604 297.356C89.4437 297.239 89.3772 297.082 89.375 296.917V296.5C89.375 296.334 89.4408 296.175 89.5581 296.058C89.6753 295.941 89.8342 295.875 90 295.875C90.1658 295.875 90.3247 295.941 90.4419 296.058C90.5592 296.175 90.625 296.334 90.625 296.5V296.917C90.6228 297.082 90.5563 297.239 90.4396 297.356C90.3228 297.473 90.1651 297.54 90 297.542V297.542Z" fill="#DB3259"/>
<path d="M115.008 288.672H106.176V289.92H109.92V300H111.264V289.92H115.008V288.672ZM116.372 300H117.62V296.352C117.62 294.64 118.324 293.472 119.94 293.472C121.108 293.472 121.652 294.256 121.652 295.504V300H122.9V295.376C122.9 293.568 122.02 292.32 120.052 292.32C118.884 292.32 117.988 292.96 117.652 293.552H117.62V287.904H116.372V300ZM125.374 300H126.622V292.512H125.374V300ZM125.086 289.584C125.086 290.112 125.47 290.496 125.998 290.496C126.526 290.496 126.91 290.112 126.91 289.584C126.91 289.088 126.51 288.672 125.998 288.672C125.486 288.672 125.086 289.088 125.086 289.584ZM128.274 298.8C129.01 299.856 129.922 300.192 131.186 300.192C132.674 300.192 134.178 299.536 134.178 297.84C134.178 296.336 133.058 295.856 131.73 295.6C130.738 295.408 129.842 295.136 129.842 294.512C129.842 293.808 130.626 293.472 131.314 293.472C132.05 293.472 132.578 293.84 132.898 294.368L133.938 293.68C133.426 292.72 132.45 292.32 131.394 292.32C130.002 292.32 128.594 293.072 128.594 294.528C128.594 296.08 129.81 296.384 131.234 296.704C132.034 296.88 132.834 297.088 132.834 297.888C132.834 298.704 131.97 299.04 131.186 299.04C130.306 299.04 129.762 298.64 129.266 298.032L128.274 298.8ZM140.484 300H141.732V292.512H140.484V300ZM140.196 289.584C140.196 290.112 140.58 290.496 141.108 290.496C141.636 290.496 142.02 290.112 142.02 289.584C142.02 289.088 141.62 288.672 141.108 288.672C140.596 288.672 140.196 289.088 140.196 289.584ZM143.383 298.8C144.119 299.856 145.031 300.192 146.295 300.192C147.783 300.192 149.287 299.536 149.287 297.84C149.287 296.336 148.167 295.856 146.839 295.6C145.847 295.408 144.951 295.136 144.951 294.512C144.951 293.808 145.735 293.472 146.423 293.472C147.159 293.472 147.687 293.84 148.007 294.368L149.047 293.68C148.535 292.72 147.559 292.32 146.503 292.32C145.111 292.32 143.703 293.072 143.703 294.528C143.703 296.08 144.919 296.384 146.343 296.704C147.143 296.88 147.943 297.088 147.943 297.888C147.943 298.704 147.079 299.04 146.295 299.04C145.415 299.04 144.871 298.64 144.375 298.032L143.383 298.8ZM156.169 294.288C156.761 293.744 157.593 293.472 158.393 293.472C159.561 293.472 160.249 294.032 160.249 295.12V295.344H159.769C157.929 295.344 155.049 295.488 155.049 297.968C155.049 299.424 156.313 300.192 157.833 300.192C158.969 300.192 159.801 299.648 160.297 298.88H160.329C160.329 299.2 160.329 299.664 160.409 300H161.609C161.545 299.616 161.497 299.136 161.497 298.704V295.488C161.497 293.376 160.569 292.32 158.361 292.32C157.273 292.32 156.153 292.688 155.385 293.472L156.169 294.288ZM160.249 296.4V296.88C160.217 298.096 159.481 299.136 158.041 299.136C157.097 299.136 156.393 298.784 156.393 297.84C156.393 296.832 157.417 296.4 159.001 296.4H160.249ZM168.231 300H169.479V296.352C169.479 294.64 170.183 293.472 171.799 293.472C172.823 293.472 173.239 294.112 173.239 295.76V300H174.487V295.68C174.487 294.336 175.367 293.472 176.423 293.472C177.879 293.472 178.247 294.48 178.247 295.52V300H179.495V295.456C179.495 293.52 178.791 292.32 176.647 292.32C175.511 292.32 174.823 292.864 174.279 293.744C174.039 293.232 173.527 292.32 171.911 292.32C170.679 292.32 169.751 293.008 169.415 293.744H169.383C169.383 293.328 169.351 292.912 169.351 292.512H168.167C168.167 293.008 168.231 293.6 168.231 294.288V300ZM187.6 297.904C187.008 298.656 186.288 299.04 185.216 299.04C183.856 299.04 182.864 297.936 182.768 296.64H188.816V296.24C188.816 293.76 187.376 292.32 185.264 292.32C183.056 292.32 181.424 293.936 181.424 296.256C181.424 298.432 182.864 300.192 185.216 300.192C186.608 300.192 187.664 299.776 188.544 298.64L187.6 297.904ZM182.768 295.584C182.928 294.32 183.84 293.472 185.216 293.472C186.592 293.472 187.424 294.32 187.472 295.584H182.768ZM189.915 298.8C190.651 299.856 191.562 300.192 192.827 300.192C194.315 300.192 195.819 299.536 195.819 297.84C195.819 296.336 194.699 295.856 193.371 295.6C192.379 295.408 191.483 295.136 191.483 294.512C191.483 293.808 192.267 293.472 192.955 293.472C193.691 293.472 194.219 293.84 194.539 294.368L195.579 293.68C195.067 292.72 194.091 292.32 193.035 292.32C191.643 292.32 190.235 293.072 190.235 294.528C190.235 296.08 191.451 296.384 192.875 296.704C193.674 296.88 194.475 297.088 194.475 297.888C194.475 298.704 193.611 299.04 192.827 299.04C191.947 299.04 191.403 298.64 190.907 298.032L189.915 298.8ZM196.727 298.8C197.463 299.856 198.375 300.192 199.639 300.192C201.127 300.192 202.631 299.536 202.631 297.84C202.631 296.336 201.511 295.856 200.183 295.6C199.191 295.408 198.295 295.136 198.295 294.512C198.295 293.808 199.079 293.472 199.767 293.472C200.503 293.472 201.031 293.84 201.351 294.368L202.391 293.68C201.879 292.72 200.903 292.32 199.847 292.32C198.455 292.32 197.047 293.072 197.047 294.528C197.047 296.08 198.263 296.384 199.687 296.704C200.487 296.88 201.287 297.088 201.287 297.888C201.287 298.704 200.423 299.04 199.639 299.04C198.759 299.04 198.215 298.64 197.719 298.032L196.727 298.8ZM205.06 294.288C205.652 293.744 206.484 293.472 207.284 293.472C208.452 293.472 209.14 294.032 209.14 295.12V295.344H208.66C206.82 295.344 203.94 295.488 203.94 297.968C203.94 299.424 205.204 300.192 206.724 300.192C207.86 300.192 208.692 299.648 209.188 298.88H209.22C209.22 299.2 209.22 299.664 209.3 300H210.5C210.436 299.616 210.388 299.136 210.388 298.704V295.488C210.388 293.376 209.46 292.32 207.252 292.32C206.164 292.32 205.044 292.688 204.276 293.472L205.06 294.288ZM209.14 296.4V296.88C209.108 298.096 208.372 299.136 206.932 299.136C205.988 299.136 205.284 298.784 205.284 297.84C205.284 296.832 206.308 296.4 207.891 296.4H209.14ZM220.14 292.512H218.892V293.792H218.86C218.364 292.8 217.228 292.32 216.22 292.32C213.836 292.32 212.236 293.808 212.236 296.256C212.236 298.464 213.868 300.096 216.22 300.096C217.212 300.096 218.268 299.664 218.86 298.704H218.892V299.664C218.892 301.248 218.3 302.688 216.06 302.688C214.908 302.688 214.06 302.24 213.276 301.392L212.38 302.416C213.436 303.456 214.604 303.84 216.06 303.84C218.684 303.84 220.14 302.368 220.14 299.664V292.512ZM213.58 296.256C213.58 294.688 214.652 293.472 216.22 293.472C217.804 293.472 218.892 294.608 218.892 296.224C218.892 297.664 217.932 298.944 216.22 298.944C214.764 298.944 213.58 297.776 213.58 296.256ZM228.194 297.904C227.602 298.656 226.882 299.04 225.81 299.04C224.45 299.04 223.458 297.936 223.362 296.64H229.41V296.24C229.41 293.76 227.97 292.32 225.858 292.32C223.65 292.32 222.018 293.936 222.018 296.256C222.018 298.432 223.458 300.192 225.81 300.192C227.202 300.192 228.258 299.776 229.138 298.64L228.194 297.904ZM223.362 295.584C223.522 294.32 224.434 293.472 225.81 293.472C227.186 293.472 228.018 294.32 228.066 295.584H223.362Z" fill="#DB3259"/>
<defs>
<clipPath id="clip0_1_256">
<rect width="79" height="24" fill="white" transform="translate(80)"/>
</clipPath>
<clipPath id="clip1_1_256">
<rect x="80" y="28" width="320" height="36" rx="4" fill="white"/>
</clipPath>
<clipPath id="clip2_1_256">
<rect width="79" height="24" fill="white" transform="translate(80 72)"/>
</clipPath>
<clipPath id="clip3_1_256">
<rect x="80" y="100" width="320" height="36" rx="4" fill="white"/>
</clipPath>
<clipPath id="clip4_1_256">
<rect width="79" height="24" fill="white" transform="translate(80 144)"/>
</clipPath>
<clipPath id="clip5_1_256">
<rect x="80" y="172" width="320" height="36" rx="4" fill="white"/>
</clipPath>
<clipPath id="clip6_1_256">
<rect width="79" height="24" fill="white" transform="translate(80 216)"/>
</clipPath>
<clipPath id="clip7_1_256">
<rect x="80" y="244" width="320" height="36" rx="4" fill="white"/>
</clipPath>
</defs>
</svg>
