<svg width="1013" height="176" viewBox="0 0 1013 176" fill="none" xmlns="http://www.w3.org/2000/svg">
<rect width="1013" height="176" fill="white"/>
<rect width="400" height="176" fill="white"/>
<rect x="28" y="28" width="344" height="88" fill="white"/>
<g clip-path="url(#clip0_162_29851)">
<path d="M41.408 58H42.752V52.912H48.032V51.664H42.752V47.92H48.432V46.672H41.408V58ZM50.1866 58H51.4346V50.512H50.1866V58ZM49.8986 47.584C49.8986 48.112 50.2826 48.496 50.8106 48.496C51.3386 48.496 51.7226 48.112 51.7226 47.584C51.7226 47.088 51.3226 46.672 50.8106 46.672C50.2986 46.672 49.8986 47.088 49.8986 47.584ZM59.6624 55.904C59.0704 56.656 58.3504 57.04 57.2784 57.04C55.9184 57.04 54.9264 55.936 54.8304 54.64H60.8784V54.24C60.8784 51.76 59.4384 50.32 57.3264 50.32C55.1184 50.32 53.4864 51.936 53.4864 54.256C53.4864 56.432 54.9264 58.192 57.2784 58.192C58.6704 58.192 59.7264 57.776 60.6064 56.64L59.6624 55.904ZM54.8304 53.584C54.9904 52.32 55.9024 51.472 57.2784 51.472C58.6544 51.472 59.4864 52.32 59.5344 53.584H54.8304ZM62.921 58H64.169V45.904H62.921V58ZM72.8768 58H74.1248V45.904H72.8768V51.6H72.8448C72.1568 50.8 71.2448 50.32 70.1568 50.32C67.8048 50.32 66.2208 51.984 66.2208 54.256C66.2208 56.496 67.8688 58.192 69.9648 58.192C71.3088 58.192 72.3808 57.52 72.8448 56.672H72.8768V58ZM72.8768 54.256C72.8768 55.824 71.8368 57.04 70.2208 57.04C68.6048 57.04 67.5648 55.824 67.5648 54.256C67.5648 52.688 68.6048 51.472 70.2208 51.472C71.8368 51.472 72.8768 52.688 72.8768 54.256ZM81.1111 58H87.6391V56.752H82.4551V46.672H81.1111V58ZM89.5751 52.288C90.1671 51.744 90.9991 51.472 91.7991 51.472C92.9671 51.472 93.6551 52.032 93.6551 53.12V53.344H93.1751C91.3351 53.344 88.4551 53.488 88.4551 55.968C88.4551 57.424 89.7191 58.192 91.2391 58.192C92.3751 58.192 93.2071 57.648 93.7031 56.88H93.7351C93.7351 57.2 93.7351 57.664 93.8151 58H95.0151C94.9511 57.616 94.9031 57.136 94.9031 56.704V53.488C94.9031 51.376 93.9751 50.32 91.7671 50.32C90.6791 50.32 89.5591 50.688 88.7911 51.472L89.5751 52.288ZM93.6551 54.4V54.88C93.6231 56.096 92.8871 57.136 91.4471 57.136C90.5031 57.136 89.7991 56.784 89.7991 55.84C89.7991 54.832 90.8231 54.4 92.4071 54.4H93.6551ZM97.12 58H98.368V56.672H98.4C98.864 57.52 99.936 58.192 101.28 58.192C103.376 58.192 105.024 56.496 105.024 54.256C105.024 51.984 103.44 50.32 101.088 50.32C100 50.32 99.088 50.8 98.4 51.6H98.368V45.904H97.12V58ZM98.368 54.256C98.368 52.688 99.408 51.472 101.024 51.472C102.64 51.472 103.68 52.688 103.68 54.256C103.68 55.824 102.64 57.04 101.024 57.04C99.408 57.04 98.368 55.824 98.368 54.256ZM112.709 55.904C112.117 56.656 111.397 57.04 110.325 57.04C108.965 57.04 107.973 55.936 107.877 54.64H113.925V54.24C113.925 51.76 112.485 50.32 110.373 50.32C108.165 50.32 106.533 51.936 106.533 54.256C106.533 56.432 107.973 58.192 110.325 58.192C111.717 58.192 112.773 57.776 113.653 56.64L112.709 55.904ZM107.877 53.584C108.037 52.32 108.949 51.472 110.325 51.472C111.701 51.472 112.533 52.32 112.581 53.584H107.877ZM115.968 58H117.216V45.904H115.968V58Z" fill="black"/>
</g>
<g clip-path="url(#clip1_162_29851)">
<rect x="40" y="68" width="320" height="36" rx="4" fill="white"/>
<path d="M63.3333 86.6668H52.6667C52.4899 86.6668 52.3203 86.5966 52.1953 86.4716C52.0702 86.3465 52 86.177 52 86.0002C52 85.8234 52.0702 85.6538 52.1953 85.5288C52.3203 85.4037 52.4899 85.3335 52.6667 85.3335H63.3333C63.5101 85.3335 63.6797 85.4037 63.8047 85.5288C63.9298 85.6538 64 85.8234 64 86.0002C64 86.177 63.9298 86.3465 63.8047 86.4716C63.6797 86.5966 63.5101 86.6668 63.3333 86.6668Z" fill="#6B778C"/>
<path d="M88.096 90H89.616L90.784 87.216H96.448L97.6 90H99.168L94.352 78.672H93.088L88.096 90ZM95.936 85.968H91.312L93.664 80.4H93.696L95.936 85.968ZM109.17 78.672H107.826V85.488C107.826 87.312 107.154 89.04 104.898 89.04C102.642 89.04 101.97 87.312 101.97 85.488V78.672H100.626V85.68C100.626 88.144 101.778 90.288 104.898 90.288C108.018 90.288 109.17 88.144 109.17 85.68V78.672ZM111.731 90H116.083C118.307 90 121.635 88.512 121.635 84.336C121.635 80.16 118.307 78.672 116.083 78.672H111.731V90ZM113.075 79.92H115.635C118.227 79.92 120.195 81.232 120.195 84.336C120.195 87.44 118.227 88.752 115.635 88.752H113.075V79.92Z" fill="#333333"/>
<path d="M133.592 90H135.16L138.168 85.216C138.776 84.24 139.24 83.344 139.24 82.032C139.24 79.824 137.592 78.48 135.448 78.48C133.304 78.48 131.656 79.824 131.656 82.032C131.656 84.144 133.112 85.584 135.08 85.584C135.544 85.584 136.184 85.488 136.6 85.248L136.632 85.28L133.592 90ZM135.448 84.432C134.088 84.432 133 83.504 133 82.032C133 80.56 134.088 79.632 135.448 79.632C136.808 79.632 137.896 80.56 137.896 82.032C137.896 83.504 136.808 84.432 135.448 84.432ZM142.483 90H144.051L147.059 85.216C147.667 84.24 148.131 83.344 148.131 82.032C148.131 79.824 146.483 78.48 144.339 78.48C142.195 78.48 140.547 79.824 140.547 82.032C140.547 84.144 142.003 85.584 143.971 85.584C144.435 85.584 145.075 85.488 145.491 85.248L145.523 85.28L142.483 90ZM144.339 84.432C142.979 84.432 141.891 83.504 141.891 82.032C141.891 80.56 142.979 79.632 144.339 79.632C145.699 79.632 146.787 80.56 146.787 82.032C146.787 83.504 145.699 84.432 144.339 84.432ZM151.373 90H152.941L155.949 85.216C156.557 84.24 157.021 83.344 157.021 82.032C157.021 79.824 155.373 78.48 153.229 78.48C151.085 78.48 149.437 79.824 149.437 82.032C149.437 84.144 150.893 85.584 152.861 85.584C153.325 85.584 153.965 85.488 154.381 85.248L154.413 85.28L151.373 90ZM153.229 84.432C151.869 84.432 150.781 83.504 150.781 82.032C150.781 80.56 151.869 79.632 153.229 79.632C154.589 79.632 155.677 80.56 155.677 82.032C155.677 83.504 154.589 84.432 153.229 84.432Z" fill="#333333"/>
<path d="M342.499 85.5002V81.3335C342.499 81.2009 342.447 81.0737 342.353 80.9799C342.259 80.8862 342.132 80.8335 341.999 80.8335C341.867 80.8335 341.739 80.8862 341.646 80.9799C341.552 81.0737 341.499 81.2009 341.499 81.3335V85.5002H337.333C337.2 85.5002 337.073 85.5528 336.979 85.6466C336.885 85.7404 336.833 85.8676 336.833 86.0002C336.833 86.1328 336.885 86.2599 336.979 86.3537C337.073 86.4475 337.2 86.5002 337.333 86.5002H341.499V90.6668C341.501 90.7989 341.554 90.9251 341.648 91.0185C341.741 91.1119 341.867 91.1651 341.999 91.1668C342.132 91.1668 342.259 91.1142 342.353 91.0204C342.447 90.9266 342.499 90.7994 342.499 90.6668V86.5002H346.666C346.798 86.5002 346.926 86.4475 347.019 86.3537C347.113 86.2599 347.166 86.1328 347.166 86.0002C347.164 85.8681 347.111 85.7419 347.017 85.6485C346.924 85.5551 346.798 85.5019 346.666 85.5002H342.499Z" fill="#6B778C"/>
</g>
<rect x="40.5" y="68.5" width="319" height="35" rx="3.5" stroke="#9EA6B5"/>
<rect x="344" y="40" width="16" height="16" rx="8" fill="#467822"/>
<path d="M351 50.1668C350.871 50.157 350.752 50.0972 350.666 50.0002L348.666 48.0002C348.622 47.9068 348.607 47.802 348.625 47.7001C348.642 47.5982 348.691 47.5042 348.764 47.4311C348.837 47.358 348.931 47.3094 349.033 47.2919C349.135 47.2744 349.24 47.2889 349.333 47.3335L350.98 48.9802L356.666 43.3335C356.76 43.2889 356.865 43.2744 356.967 43.2919C357.068 43.3094 357.162 43.358 357.236 43.4311C357.309 43.5042 357.357 43.5982 357.375 43.7001C357.392 43.802 357.378 43.9068 357.333 44.0002L351.333 50.0002C351.248 50.0972 351.128 50.157 351 50.1668Z" fill="white"/>
<path d="M352 54.0001C350.928 53.9983 349.875 53.7092 348.953 53.1629C348.03 52.6165 347.271 51.8328 346.753 50.8934C346.36 50.1934 346.117 49.4192 346.04 48.6201C345.918 47.4481 346.144 46.2662 346.689 45.2217C347.235 44.1772 348.075 43.3164 349.107 42.7467C349.807 42.3536 350.581 42.1107 351.38 42.0334C352.176 41.9478 352.981 42.0249 353.747 42.2601C353.815 42.2737 353.88 42.3015 353.937 42.3416C353.994 42.3817 354.042 42.4333 354.077 42.493C354.113 42.5527 354.136 42.6192 354.145 42.6884C354.154 42.7575 354.148 42.8276 354.128 42.8943C354.108 42.9611 354.074 43.0228 354.028 43.0757C353.983 43.1286 353.927 43.1715 353.864 43.2015C353.802 43.2315 353.733 43.2481 353.663 43.2502C353.594 43.2522 353.525 43.2397 353.46 43.2134C352.812 43.0187 352.133 42.9552 351.46 43.0267C350.795 43.0948 350.151 43.2966 349.567 43.6201C349.003 43.9308 348.506 44.3473 348.1 44.8467C347.683 45.3555 347.371 45.9424 347.183 46.5732C346.995 47.204 346.935 47.8658 347.007 48.5201C347.075 49.1847 347.277 49.8288 347.6 50.4134C347.911 50.9766 348.327 51.4746 348.827 51.8801C349.336 52.2975 349.922 52.6092 350.553 52.7969C351.184 52.9847 351.846 53.0447 352.5 52.9734C353.165 52.9053 353.809 52.7035 354.393 52.3801C354.957 52.0693 355.455 51.6528 355.86 51.1534C356.278 50.6446 356.589 50.0577 356.777 49.4269C356.965 48.7962 357.025 48.1343 356.953 47.4801C356.947 47.4113 356.954 47.342 356.974 47.276C356.994 47.21 357.027 47.1486 357.071 47.0954C357.115 47.0421 357.169 46.9981 357.23 46.9657C357.291 46.9333 357.358 46.9133 357.427 46.9067C357.495 46.9002 357.565 46.9072 357.631 46.9274C357.697 46.9477 357.758 46.9807 357.811 47.0247C357.865 47.0686 357.909 47.1226 357.941 47.1836C357.973 47.2446 357.994 47.3113 358 47.3801C358.121 48.5527 357.895 49.7351 357.348 50.7797C356.802 51.8242 355.959 52.6846 354.927 53.2534C354.219 53.6626 353.433 53.917 352.62 54.0001C352.413 54.0001 352.2 54.0001 352 54.0001Z" fill="white"/>
<rect x="28" y="28" width="344" height="88" stroke="#E6E6E6" stroke-width="8"/>
<path d="M33.264 144H37.488C40.208 144 43.488 142.208 43.488 138.336C43.488 134.496 40.704 132.672 37.728 132.672H33.264V144ZM35.28 142.176V134.496H37.12C39.584 134.496 41.376 135.584 41.376 138.336C41.376 141.088 39.312 142.176 36.784 142.176H35.28ZM44.8446 140.16C44.8446 142.576 46.7006 144.192 49.0206 144.192C51.3406 144.192 53.1966 142.576 53.1966 140.16C53.1966 137.744 51.3406 136.128 49.0206 136.128C46.7006 136.128 44.8446 137.744 44.8446 140.16ZM46.7646 140.16C46.7646 138.96 47.6126 137.856 49.0206 137.856C50.4286 137.856 51.2766 138.96 51.2766 140.16C51.2766 141.36 50.4286 142.464 49.0206 142.464C47.6126 142.464 46.7646 141.36 46.7646 140.16ZM54.9943 142.88C54.9943 143.568 55.6023 144.096 56.2743 144.096C56.9783 144.096 57.5543 143.536 57.5543 142.848C57.5543 142.16 56.9623 141.632 56.2743 141.632C55.5703 141.632 54.9943 142.192 54.9943 142.88ZM54.9943 137.456C54.9943 138.144 55.6023 138.672 56.2743 138.672C56.9783 138.672 57.5543 138.112 57.5543 137.424C57.5543 136.736 56.9623 136.208 56.2743 136.208C55.5703 136.208 54.9943 136.768 54.9943 137.456Z" fill="#333333"/>
<path d="M74.888 133.712C74.056 132.736 72.984 132.384 71.72 132.384C69.736 132.384 67.864 133.472 67.864 135.648C67.864 137.536 69.08 138.24 70.68 138.768C72.696 139.44 73.64 139.68 73.64 141.072C73.64 142.368 72.328 143.04 71.176 143.04C70.2 143.04 69.24 142.608 68.76 141.776L67.608 142.72C68.376 143.856 69.784 144.288 71.096 144.288C73.144 144.288 75.08 143.232 75.08 140.976C75.08 138.752 73.448 138.176 71.688 137.616C69.88 137.04 69.304 136.576 69.304 135.536C69.304 134.192 70.536 133.632 71.72 133.632C72.536 133.632 73.336 133.952 73.784 134.672L74.888 133.712ZM81.1706 136.512H78.9626V134.384H77.7146V136.512H76.0826V137.568H77.7146V141.68C77.7146 143.232 78.0026 144.192 79.7786 144.192C80.2426 144.192 80.8026 144.112 81.2346 143.92L81.1866 142.784C80.8506 142.96 80.4506 143.04 80.0826 143.04C78.9786 143.04 78.9626 142.272 78.9626 141.312V137.568H81.1706V136.512ZM82.8116 144H84.0596V136.512H82.8116V144ZM82.5236 133.584C82.5236 134.112 82.9076 134.496 83.4356 134.496C83.9636 134.496 84.3476 134.112 84.3476 133.584C84.3476 133.088 83.9476 132.672 83.4356 132.672C82.9236 132.672 82.5236 133.088 82.5236 133.584ZM92.8634 137.504C92.1114 136.688 91.0874 136.32 89.9834 136.32C87.6794 136.32 86.1114 137.984 86.1114 140.256C86.1114 142.56 87.6634 144.192 89.9834 144.192C91.0714 144.192 92.0954 143.824 92.8154 142.992L91.8874 142.112C91.4234 142.752 90.7994 143.04 89.9834 143.04C88.4634 143.04 87.4554 141.792 87.4554 140.256C87.4554 138.72 88.3034 137.472 89.9834 137.472C90.7354 137.472 91.3434 137.744 91.8714 138.384L92.8634 137.504ZM94.2621 144H95.5101V140.064L99.2221 144H101.062L97.0781 139.92L100.694 136.512H98.9181L95.5101 139.808V131.904H94.2621V144ZM110.811 136.512H108.603V134.384H107.355V136.512H105.723V137.568H107.355V141.68C107.355 143.232 107.643 144.192 109.419 144.192C109.883 144.192 110.443 144.112 110.875 143.92L110.827 142.784C110.491 142.96 110.091 143.04 109.723 143.04C108.619 143.04 108.603 142.272 108.603 141.312V137.568H110.811V136.512ZM111.908 140.256C111.908 142.592 113.604 144.192 115.908 144.192C118.212 144.192 119.908 142.592 119.908 140.256C119.908 137.92 118.212 136.32 115.908 136.32C113.604 136.32 111.908 137.92 111.908 140.256ZM113.252 140.256C113.252 138.688 114.292 137.472 115.908 137.472C117.524 137.472 118.564 138.688 118.564 140.256C118.564 141.824 117.524 143.04 115.908 143.04C114.292 143.04 113.252 141.824 113.252 140.256ZM130.389 136.512H128.181V134.384H126.933V136.512H125.301V137.568H126.933V141.68C126.933 143.232 127.221 144.192 128.997 144.192C129.461 144.192 130.021 144.112 130.453 143.92L130.405 142.784C130.069 142.96 129.669 143.04 129.301 143.04C128.197 143.04 128.181 142.272 128.181 141.312V137.568H130.389V136.512ZM131.918 144H133.166V140.352C133.166 138.64 133.87 137.472 135.486 137.472C136.654 137.472 137.198 138.256 137.198 139.504V144H138.446V139.376C138.446 137.568 137.566 136.32 135.598 136.32C134.43 136.32 133.534 136.96 133.198 137.552H133.166V131.904H131.918V144ZM146.553 141.904C145.961 142.656 145.241 143.04 144.169 143.04C142.809 143.04 141.817 141.936 141.721 140.64H147.769V140.24C147.769 137.76 146.329 136.32 144.217 136.32C142.009 136.32 140.377 137.936 140.377 140.256C140.377 142.432 141.817 144.192 144.169 144.192C145.561 144.192 146.617 143.776 147.497 142.64L146.553 141.904ZM141.721 139.584C141.881 138.32 142.793 137.472 144.169 137.472C145.545 137.472 146.377 138.32 146.425 139.584H141.721ZM160.377 144H161.625V131.904H160.377V137.6H160.345C159.657 136.8 158.745 136.32 157.657 136.32C155.305 136.32 153.721 137.984 153.721 140.256C153.721 142.496 155.369 144.192 157.465 144.192C158.809 144.192 159.881 143.52 160.345 142.672H160.377V144ZM160.377 140.256C160.377 141.824 159.337 143.04 157.721 143.04C156.105 143.04 155.065 141.824 155.065 140.256C155.065 138.688 156.105 137.472 157.721 137.472C159.337 137.472 160.377 138.688 160.377 140.256ZM169.678 141.904C169.086 142.656 168.366 143.04 167.294 143.04C165.934 143.04 164.942 141.936 164.846 140.64H170.894V140.24C170.894 137.76 169.454 136.32 167.342 136.32C165.134 136.32 163.502 137.936 163.502 140.256C163.502 142.432 164.942 144.192 167.294 144.192C168.686 144.192 169.742 143.776 170.622 142.64L169.678 141.904ZM164.846 139.584C165.006 138.32 165.918 137.472 167.294 137.472C168.67 137.472 169.502 138.32 169.55 139.584H164.846ZM173.465 144H174.713V137.568H176.537V136.512H174.713V135.104C174.713 133.808 174.761 132.864 176.057 132.864C176.345 132.864 176.633 132.928 176.905 133.024L177.081 131.904C176.841 131.776 176.441 131.712 176.121 131.712C174.105 131.712 173.465 133.008 173.465 134.832V136.512H171.833V137.568H173.465V144ZM178.56 138.288C179.152 137.744 179.984 137.472 180.784 137.472C181.952 137.472 182.64 138.032 182.64 139.12V139.344H182.16C180.32 139.344 177.44 139.488 177.44 141.968C177.44 143.424 178.704 144.192 180.224 144.192C181.36 144.192 182.192 143.648 182.688 142.88H182.72C182.72 143.2 182.72 143.664 182.8 144H184C183.936 143.616 183.888 143.136 183.888 142.704V139.488C183.888 137.376 182.96 136.32 180.752 136.32C179.664 136.32 178.544 136.688 177.776 137.472L178.56 138.288ZM182.64 140.4V140.88C182.608 142.096 181.872 143.136 180.432 143.136C179.488 143.136 178.784 142.784 178.784 141.84C178.784 140.832 179.808 140.4 181.391 140.4H182.64ZM192.696 136.512H191.448V140.16C191.448 141.872 190.744 143.04 189.128 143.04C187.96 143.04 187.416 142.256 187.416 141.008V136.512H186.168V141.136C186.168 142.944 187.048 144.192 189.016 144.192C190.248 144.192 191.176 143.504 191.512 142.768H191.544C191.544 143.184 191.576 143.6 191.576 144H192.76C192.76 143.504 192.696 142.912 192.696 142.224V136.512ZM195.171 144H196.419V131.904H195.171V144ZM202.999 136.512H200.791V134.384H199.543V136.512H197.911V137.568H199.543V141.68C199.543 143.232 199.831 144.192 201.607 144.192C202.071 144.192 202.631 144.112 203.063 143.92L203.015 142.784C202.679 142.96 202.279 143.04 201.911 143.04C200.807 143.04 200.791 142.272 200.791 141.312V137.568H202.999V136.512ZM208.149 142.8C208.885 143.856 209.797 144.192 211.061 144.192C212.549 144.192 214.053 143.536 214.053 141.84C214.053 140.336 212.933 139.856 211.605 139.6C210.613 139.408 209.717 139.136 209.717 138.512C209.717 137.808 210.501 137.472 211.189 137.472C211.925 137.472 212.453 137.84 212.773 138.368L213.813 137.68C213.301 136.72 212.325 136.32 211.269 136.32C209.877 136.32 208.469 137.072 208.469 138.528C208.469 140.08 209.685 140.384 211.109 140.704C211.909 140.88 212.709 141.088 212.709 141.888C212.709 142.704 211.845 143.04 211.061 143.04C210.181 143.04 209.637 142.64 209.141 142.032L208.149 142.8ZM215.905 144H217.153V136.512H215.905V144ZM215.617 133.584C215.617 134.112 216.001 134.496 216.529 134.496C217.057 134.496 217.441 134.112 217.441 133.584C217.441 133.088 217.041 132.672 216.529 132.672C216.017 132.672 215.617 133.088 215.617 133.584ZM218.933 144H225.077V142.944H220.565L224.965 137.472V136.512H219.125V137.568H223.333L218.933 143.024V144ZM232.491 141.904C231.899 142.656 231.179 143.04 230.107 143.04C228.747 143.04 227.755 141.936 227.659 140.64H233.707V140.24C233.707 137.76 232.267 136.32 230.155 136.32C227.947 136.32 226.315 137.936 226.315 140.256C226.315 142.432 227.755 144.192 230.107 144.192C231.499 144.192 232.555 143.776 233.435 142.64L232.491 141.904ZM227.659 139.584C227.819 138.32 228.731 137.472 230.107 137.472C231.483 137.472 232.315 138.32 232.363 139.584H227.659ZM240.73 144H241.978V137.568H243.802V136.512H241.978V135.104C241.978 133.808 242.026 132.864 243.322 132.864C243.61 132.864 243.898 132.928 244.17 133.024L244.346 131.904C244.106 131.776 243.706 131.712 243.386 131.712C241.37 131.712 240.73 133.008 240.73 134.832V136.512H239.098V137.568H240.73V144ZM244.705 140.256C244.705 142.592 246.401 144.192 248.705 144.192C251.009 144.192 252.705 142.592 252.705 140.256C252.705 137.92 251.009 136.32 248.705 136.32C246.401 136.32 244.705 137.92 244.705 140.256ZM246.049 140.256C246.049 138.688 247.089 137.472 248.705 137.472C250.321 137.472 251.361 138.688 251.361 140.256C251.361 141.824 250.321 143.04 248.705 143.04C247.089 143.04 246.049 141.824 246.049 140.256ZM254.637 144H255.885V140.352C255.885 138.64 256.557 137.568 258.077 137.568C258.301 137.568 258.541 137.6 258.749 137.664L258.829 136.4C258.653 136.336 258.477 136.32 258.317 136.32C257.085 136.32 256.157 137.008 255.821 137.744H255.789C255.789 137.328 255.757 136.912 255.757 136.512H254.573C254.573 137.008 254.637 137.6 254.637 138.288V144ZM265.403 138.288C265.995 137.744 266.827 137.472 267.627 137.472C268.795 137.472 269.483 138.032 269.483 139.12V139.344H269.003C267.163 139.344 264.283 139.488 264.283 141.968C264.283 143.424 265.547 144.192 267.067 144.192C268.203 144.192 269.035 143.648 269.531 142.88H269.563C269.563 143.2 269.563 143.664 269.643 144H270.843C270.779 143.616 270.731 143.136 270.731 142.704V139.488C270.731 137.376 269.803 136.32 267.595 136.32C266.507 136.32 265.387 136.688 264.619 137.472L265.403 138.288ZM269.483 140.4V140.88C269.451 142.096 268.715 143.136 267.275 143.136C266.331 143.136 265.627 142.784 265.627 141.84C265.627 140.832 266.651 140.4 268.235 140.4H269.483ZM283.993 136.512H282.745V140.16C282.745 141.872 282.041 143.04 280.425 143.04C279.257 143.04 278.713 142.256 278.713 141.008V136.512H277.465V141.136C277.465 142.944 278.345 144.192 280.313 144.192C281.545 144.192 282.473 143.504 282.809 142.768H282.841C282.841 143.184 282.873 143.6 282.873 144H284.057C284.057 143.504 283.993 142.912 283.993 142.224V136.512ZM286.356 144H287.604V140.352C287.604 138.64 288.308 137.472 289.924 137.472C291.092 137.472 291.636 138.256 291.636 139.504V144H292.884V139.376C292.884 137.568 292.004 136.32 290.036 136.32C288.804 136.32 287.876 137.008 287.54 137.744H287.508C287.508 137.328 287.476 136.912 287.476 136.512H286.292C286.292 137.008 286.356 137.6 286.356 138.288V144ZM295.359 144H296.607V136.512H295.359V144ZM295.071 133.584C295.071 134.112 295.455 134.496 295.983 134.496C296.511 134.496 296.895 134.112 296.895 133.584C296.895 133.088 296.495 132.672 295.983 132.672C295.471 132.672 295.071 133.088 295.071 133.584ZM299.73 144H300.978V137.568H302.802V136.512H300.978V135.104C300.978 133.808 301.026 132.864 302.322 132.864C302.61 132.864 302.898 132.928 303.17 133.024L303.346 131.904C303.106 131.776 302.706 131.712 302.386 131.712C300.37 131.712 299.73 133.008 299.73 134.832V136.512H298.098V137.568H299.73V144ZM303.705 140.256C303.705 142.592 305.401 144.192 307.705 144.192C310.009 144.192 311.705 142.592 311.705 140.256C311.705 137.92 310.009 136.32 307.705 136.32C305.401 136.32 303.705 137.92 303.705 140.256ZM305.049 140.256C305.049 138.688 306.089 137.472 307.705 137.472C309.321 137.472 310.361 138.688 310.361 140.256C310.361 141.824 309.321 143.04 307.705 143.04C306.089 143.04 305.049 141.824 305.049 140.256ZM313.637 144H314.885V140.352C314.885 138.64 315.557 137.568 317.077 137.568C317.301 137.568 317.541 137.6 317.749 137.664L317.829 136.4C317.653 136.336 317.477 136.32 317.317 136.32C316.085 136.32 315.157 137.008 314.821 137.744H314.789C314.789 137.328 314.757 136.912 314.757 136.512H313.573C313.573 137.008 313.637 137.6 313.637 138.288V144ZM319.262 144H320.51V140.352C320.51 138.64 321.214 137.472 322.83 137.472C323.854 137.472 324.27 138.112 324.27 139.76V144H325.518V139.68C325.518 138.336 326.398 137.472 327.454 137.472C328.91 137.472 329.278 138.48 329.278 139.52V144H330.526V139.456C330.526 137.52 329.822 136.32 327.678 136.32C326.542 136.32 325.854 136.864 325.31 137.744C325.07 137.232 324.558 136.32 322.942 136.32C321.71 136.32 320.782 137.008 320.446 137.744H320.414C320.414 137.328 320.382 136.912 320.382 136.512H319.198C319.198 137.008 319.262 137.6 319.262 138.288V144ZM68.296 168H69.544V155.904H68.296V168ZM72.7158 162.288C73.3078 161.744 74.1398 161.472 74.9398 161.472C76.1078 161.472 76.7958 162.032 76.7958 163.12V163.344H76.3158C74.4758 163.344 71.5958 163.488 71.5958 165.968C71.5958 167.424 72.8598 168.192 74.3798 168.192C75.5158 168.192 76.3478 167.648 76.8438 166.88H76.8758C76.8758 167.2 76.8758 167.664 76.9558 168H78.1558C78.0918 167.616 78.0438 167.136 78.0438 166.704V163.488C78.0438 161.376 77.1158 160.32 74.9078 160.32C73.8198 160.32 72.6998 160.688 71.9318 161.472L72.7158 162.288ZM76.7958 164.4V164.88C76.7638 166.096 76.0278 167.136 74.5878 167.136C73.6438 167.136 72.9398 166.784 72.9398 165.84C72.9398 164.832 73.9638 164.4 75.5477 164.4H76.7958ZM86.6926 160.512H85.3326L83.1086 166.384H83.0766L80.7566 160.512H79.3006L82.4046 168.048L81.8926 169.456C81.6206 170.192 81.3166 170.688 80.5006 170.688C80.1486 170.688 79.8766 170.656 79.6206 170.56L79.4606 171.648C79.7966 171.808 80.2286 171.84 80.5806 171.84C82.0846 171.84 82.5806 170.976 83.0766 169.712L86.6926 160.512ZM87.6114 164.256C87.6114 166.592 89.3074 168.192 91.6114 168.192C93.9154 168.192 95.6114 166.592 95.6114 164.256C95.6114 161.92 93.9154 160.32 91.6114 160.32C89.3074 160.32 87.6114 161.92 87.6114 164.256ZM88.9554 164.256C88.9554 162.688 89.9954 161.472 91.6114 161.472C93.2274 161.472 94.2674 162.688 94.2674 164.256C94.2674 165.824 93.2274 167.04 91.6114 167.04C89.9954 167.04 88.9554 165.824 88.9554 164.256ZM104.071 160.512H102.823V164.16C102.823 165.872 102.119 167.04 100.503 167.04C99.3354 167.04 98.7914 166.256 98.7914 165.008V160.512H97.5434V165.136C97.5434 166.944 98.4234 168.192 100.391 168.192C101.623 168.192 102.551 167.504 102.887 166.768H102.919C102.919 167.184 102.951 167.6 102.951 168H104.135C104.135 167.504 104.071 166.912 104.071 166.224V160.512ZM110.53 160.512H108.322V158.384H107.074V160.512H105.442V161.568H107.074V165.68C107.074 167.232 107.362 168.192 109.138 168.192C109.602 168.192 110.162 168.112 110.594 167.92L110.546 166.784C110.21 166.96 109.81 167.04 109.442 167.04C108.338 167.04 108.322 166.272 108.322 165.312V161.568H110.53V160.512ZM113.099 166.176C112.571 166.176 112.139 166.608 112.139 167.136C112.139 167.664 112.603 168.096 113.099 168.096C113.595 168.096 114.059 167.664 114.059 167.136C114.059 166.608 113.627 166.176 113.099 166.176Z" fill="#333333"/>
<rect width="613" height="176" transform="translate(400)" fill="white"/>
<rect x="428" y="28" width="557" height="88" fill="white"/>
<g clip-path="url(#clip2_162_29851)">
<path d="M441.408 58H442.752V52.912H448.032V51.664H442.752V47.92H448.432V46.672H441.408V58ZM450.187 58H451.435V50.512H450.187V58ZM449.899 47.584C449.899 48.112 450.283 48.496 450.811 48.496C451.339 48.496 451.723 48.112 451.723 47.584C451.723 47.088 451.323 46.672 450.811 46.672C450.299 46.672 449.899 47.088 449.899 47.584ZM459.662 55.904C459.07 56.656 458.35 57.04 457.278 57.04C455.918 57.04 454.926 55.936 454.83 54.64H460.878V54.24C460.878 51.76 459.438 50.32 457.326 50.32C455.118 50.32 453.486 51.936 453.486 54.256C453.486 56.432 454.926 58.192 457.278 58.192C458.67 58.192 459.726 57.776 460.606 56.64L459.662 55.904ZM454.83 53.584C454.99 52.32 455.902 51.472 457.278 51.472C458.654 51.472 459.486 52.32 459.534 53.584H454.83ZM462.921 58H464.169V45.904H462.921V58ZM472.877 58H474.125V45.904H472.877V51.6H472.845C472.157 50.8 471.245 50.32 470.157 50.32C467.805 50.32 466.221 51.984 466.221 54.256C466.221 56.496 467.869 58.192 469.965 58.192C471.309 58.192 472.381 57.52 472.845 56.672H472.877V58ZM472.877 54.256C472.877 55.824 471.837 57.04 470.221 57.04C468.605 57.04 467.565 55.824 467.565 54.256C467.565 52.688 468.605 51.472 470.221 51.472C471.837 51.472 472.877 52.688 472.877 54.256ZM481.111 58H487.639V56.752H482.455V46.672H481.111V58ZM489.575 52.288C490.167 51.744 490.999 51.472 491.799 51.472C492.967 51.472 493.655 52.032 493.655 53.12V53.344H493.175C491.335 53.344 488.455 53.488 488.455 55.968C488.455 57.424 489.719 58.192 491.239 58.192C492.375 58.192 493.207 57.648 493.703 56.88H493.735C493.735 57.2 493.735 57.664 493.815 58H495.015C494.951 57.616 494.903 57.136 494.903 56.704V53.488C494.903 51.376 493.975 50.32 491.767 50.32C490.679 50.32 489.559 50.688 488.791 51.472L489.575 52.288ZM493.655 54.4V54.88C493.623 56.096 492.887 57.136 491.447 57.136C490.503 57.136 489.799 56.784 489.799 55.84C489.799 54.832 490.823 54.4 492.407 54.4H493.655ZM497.12 58H498.368V56.672H498.4C498.864 57.52 499.936 58.192 501.28 58.192C503.376 58.192 505.024 56.496 505.024 54.256C505.024 51.984 503.44 50.32 501.088 50.32C500 50.32 499.088 50.8 498.4 51.6H498.368V45.904H497.12V58ZM498.368 54.256C498.368 52.688 499.408 51.472 501.024 51.472C502.64 51.472 503.68 52.688 503.68 54.256C503.68 55.824 502.64 57.04 501.024 57.04C499.408 57.04 498.368 55.824 498.368 54.256ZM512.709 55.904C512.117 56.656 511.397 57.04 510.325 57.04C508.965 57.04 507.973 55.936 507.877 54.64H513.925V54.24C513.925 51.76 512.485 50.32 510.373 50.32C508.165 50.32 506.533 51.936 506.533 54.256C506.533 56.432 507.973 58.192 510.325 58.192C511.717 58.192 512.773 57.776 513.653 56.64L512.709 55.904ZM507.877 53.584C508.037 52.32 508.949 51.472 510.325 51.472C511.701 51.472 512.533 52.32 512.581 53.584H507.877ZM515.968 58H517.216V45.904H515.968V58Z" fill="black"/>
</g>
<g clip-path="url(#clip3_162_29851)">
<rect x="440" y="68" width="533" height="36" rx="4" fill="white"/>
<path d="M463.333 86.6668H452.667C452.49 86.6668 452.32 86.5966 452.195 86.4716C452.07 86.3465 452 86.177 452 86.0002C452 85.8234 452.07 85.6538 452.195 85.5288C452.32 85.4037 452.49 85.3335 452.667 85.3335H463.333C463.51 85.3335 463.68 85.4037 463.805 85.5288C463.93 85.6538 464 85.8234 464 86.0002C464 86.177 463.93 86.3465 463.805 86.4716C463.68 86.5966 463.51 86.6668 463.333 86.6668Z" fill="#6B778C"/>
<path d="M488.096 90H489.616L490.784 87.216H496.448L497.6 90H499.168L494.352 78.672H493.088L488.096 90ZM495.936 85.968H491.312L493.664 80.4H493.696L495.936 85.968ZM509.17 78.672H507.826V85.488C507.826 87.312 507.154 89.04 504.898 89.04C502.642 89.04 501.97 87.312 501.97 85.488V78.672H500.626V85.68C500.626 88.144 501.778 90.288 504.898 90.288C508.018 90.288 509.17 88.144 509.17 85.68V78.672ZM511.731 90H516.083C518.307 90 521.635 88.512 521.635 84.336C521.635 80.16 518.307 78.672 516.083 78.672H511.731V90ZM513.075 79.92H515.635C518.227 79.92 520.195 81.232 520.195 84.336C520.195 87.44 518.227 88.752 515.635 88.752H513.075V79.92Z" fill="#333333"/>
<path d="M533.592 90H535.16L538.168 85.216C538.776 84.24 539.24 83.344 539.24 82.032C539.24 79.824 537.592 78.48 535.448 78.48C533.304 78.48 531.656 79.824 531.656 82.032C531.656 84.144 533.112 85.584 535.08 85.584C535.544 85.584 536.184 85.488 536.6 85.248L536.632 85.28L533.592 90ZM535.448 84.432C534.088 84.432 533 83.504 533 82.032C533 80.56 534.088 79.632 535.448 79.632C536.808 79.632 537.896 80.56 537.896 82.032C537.896 83.504 536.808 84.432 535.448 84.432ZM542.483 90H544.051L547.059 85.216C547.667 84.24 548.131 83.344 548.131 82.032C548.131 79.824 546.483 78.48 544.339 78.48C542.195 78.48 540.547 79.824 540.547 82.032C540.547 84.144 542.003 85.584 543.971 85.584C544.435 85.584 545.075 85.488 545.491 85.248L545.523 85.28L542.483 90ZM544.339 84.432C542.979 84.432 541.891 83.504 541.891 82.032C541.891 80.56 542.979 79.632 544.339 79.632C545.699 79.632 546.787 80.56 546.787 82.032C546.787 83.504 545.699 84.432 544.339 84.432ZM551.373 90H552.941L555.949 85.216C556.557 84.24 557.021 83.344 557.021 82.032C557.021 79.824 555.373 78.48 553.229 78.48C551.085 78.48 549.437 79.824 549.437 82.032C549.437 84.144 550.893 85.584 552.861 85.584C553.325 85.584 553.965 85.488 554.381 85.248L554.413 85.28L551.373 90ZM553.229 84.432C551.869 84.432 550.781 83.504 550.781 82.032C550.781 80.56 551.869 79.632 553.229 79.632C554.589 79.632 555.677 80.56 555.677 82.032C555.677 83.504 554.589 84.432 553.229 84.432Z" fill="#333333"/>
<path d="M955.499 85.5002V81.3335C955.499 81.2009 955.447 81.0737 955.353 80.9799C955.259 80.8862 955.132 80.8335 954.999 80.8335C954.867 80.8335 954.739 80.8862 954.646 80.9799C954.552 81.0737 954.499 81.2009 954.499 81.3335V85.5002H950.333C950.2 85.5002 950.073 85.5528 949.979 85.6466C949.885 85.7404 949.833 85.8676 949.833 86.0002C949.833 86.1328 949.885 86.2599 949.979 86.3537C950.073 86.4475 950.2 86.5002 950.333 86.5002H954.499V90.6668C954.501 90.7989 954.554 90.9251 954.648 91.0185C954.741 91.1119 954.867 91.1651 954.999 91.1668C955.132 91.1668 955.259 91.1142 955.353 91.0204C955.447 90.9266 955.499 90.7994 955.499 90.6668V86.5002H959.666C959.798 86.5002 959.926 86.4475 960.019 86.3537C960.113 86.2599 960.166 86.1328 960.166 86.0002C960.164 85.8681 960.111 85.7419 960.017 85.6485C959.924 85.5551 959.798 85.5019 959.666 85.5002H955.499Z" fill="#6B778C"/>
</g>
<rect x="440.5" y="68.5" width="532" height="35" rx="3.5" stroke="#9EA6B5"/>
<rect x="957" y="40" width="16" height="16" rx="8" fill="#DB3259"/>
<path d="M965.707 48L968.654 45.0533C968.703 45.0075 968.742 44.9523 968.769 44.891C968.797 44.8297 968.811 44.7635 968.813 44.6963C968.814 44.6292 968.801 44.5625 968.776 44.5002C968.751 44.438 968.714 44.3814 968.666 44.3339C968.619 44.2865 968.562 44.249 968.5 44.2239C968.438 44.1987 968.371 44.1864 968.304 44.1876C968.237 44.1888 968.171 44.2035 968.109 44.2308C968.048 44.2581 967.993 44.2975 967.947 44.3466L965 47.2933L962.054 44.3466C961.959 44.2583 961.833 44.2102 961.704 44.2125C961.574 44.2148 961.451 44.2673 961.359 44.3589C961.268 44.4505 961.215 44.5741 961.213 44.7036C961.211 44.8332 961.259 44.9585 961.347 45.0533L964.294 48L961.347 50.9466C961.253 51.0404 961.201 51.1675 961.201 51.3C961.201 51.4325 961.253 51.5596 961.347 51.6533C961.441 51.7469 961.568 51.7995 961.7 51.7995C961.833 51.7995 961.96 51.7469 962.054 51.6533L965 48.7066L967.947 51.6533C968.041 51.7469 968.168 51.7995 968.3 51.7995C968.433 51.7995 968.56 51.7469 968.654 51.6533C968.747 51.5596 968.8 51.4325 968.8 51.3C968.8 51.1675 968.747 51.0404 968.654 50.9466L965.707 48Z" fill="white"/>
<rect x="428" y="28" width="557" height="88" stroke="#E6E6E6" stroke-width="8"/>
<path d="M433.264 144H437.488C440.208 144 443.488 142.208 443.488 138.336C443.488 134.496 440.704 132.672 437.728 132.672H433.264V144ZM435.28 142.176V134.496H437.12C439.584 134.496 441.376 135.584 441.376 138.336C441.376 141.088 439.312 142.176 436.784 142.176H435.28ZM444.845 140.16C444.845 142.576 446.701 144.192 449.021 144.192C451.341 144.192 453.197 142.576 453.197 140.16C453.197 137.744 451.341 136.128 449.021 136.128C446.701 136.128 444.845 137.744 444.845 140.16ZM446.765 140.16C446.765 138.96 447.613 137.856 449.021 137.856C450.429 137.856 451.277 138.96 451.277 140.16C451.277 141.36 450.429 142.464 449.021 142.464C447.613 142.464 446.765 141.36 446.765 140.16ZM454.994 144H456.914V139.808C456.914 138.784 457.41 137.856 458.674 137.856C460.018 137.856 460.082 139.264 460.082 140.112V144H462.002V139.152C462.002 137.584 461.266 136.128 459.202 136.128C457.922 136.128 457.202 136.784 456.85 137.552H456.818V136.32H454.994V144ZM463.926 136.896H465.638L466.998 132.672H465.046L463.926 136.896ZM469.323 137.952V141.472C469.323 143.28 469.803 144.192 471.835 144.192C472.283 144.192 472.955 144.128 473.355 143.936V142.32C473.115 142.496 472.651 142.56 472.315 142.56C471.467 142.56 471.243 142.08 471.243 141.312V137.952H473.355V136.32H471.243V134.096H469.323V136.32H467.739V137.952H469.323ZM474.854 142.88C474.854 143.568 475.462 144.096 476.134 144.096C476.838 144.096 477.414 143.536 477.414 142.848C477.414 142.16 476.822 141.632 476.134 141.632C475.43 141.632 474.854 142.192 474.854 142.88ZM474.854 137.456C474.854 138.144 475.462 138.672 476.134 138.672C476.838 138.672 477.414 138.112 477.414 137.424C477.414 136.736 476.822 136.208 476.134 136.208C475.43 136.208 474.854 136.768 474.854 137.456Z" fill="#333333"/>
<path d="M488.408 144H489.752V132.672H488.408V144ZM492.34 144H493.588V140.352C493.588 138.64 494.292 137.472 495.908 137.472C497.076 137.472 497.62 138.256 497.62 139.504V144H498.868V139.376C498.868 137.568 497.988 136.32 496.02 136.32C494.788 136.32 493.86 137.008 493.524 137.744H493.492C493.492 137.328 493.46 136.912 493.46 136.512H492.276C492.276 137.008 492.34 137.6 492.34 138.288V144ZM507.551 137.504C506.799 136.688 505.775 136.32 504.671 136.32C502.367 136.32 500.799 137.984 500.799 140.256C500.799 142.56 502.351 144.192 504.671 144.192C505.759 144.192 506.783 143.824 507.503 142.992L506.575 142.112C506.111 142.752 505.487 143.04 504.671 143.04C503.151 143.04 502.143 141.792 502.143 140.256C502.143 138.72 502.991 137.472 504.671 137.472C505.423 137.472 506.031 137.744 506.559 138.384L507.551 137.504ZM508.95 144H510.198V140.352C510.198 138.64 510.87 137.568 512.39 137.568C512.614 137.568 512.854 137.6 513.062 137.664L513.142 136.4C512.966 136.336 512.79 136.32 512.63 136.32C511.398 136.32 510.47 137.008 510.134 137.744H510.102C510.102 137.328 510.07 136.912 510.07 136.512H508.886C508.886 137.008 508.95 137.6 508.95 138.288V144ZM520.037 141.904C519.445 142.656 518.725 143.04 517.653 143.04C516.293 143.04 515.301 141.936 515.205 140.64H521.253V140.24C521.253 137.76 519.813 136.32 517.701 136.32C515.493 136.32 513.861 137.936 513.861 140.256C513.861 142.432 515.301 144.192 517.653 144.192C519.045 144.192 520.101 143.776 520.981 142.64L520.037 141.904ZM515.205 139.584C515.365 138.32 516.277 137.472 517.653 137.472C519.029 137.472 519.861 138.32 519.909 139.584H515.205ZM523.872 138.288C524.464 137.744 525.296 137.472 526.096 137.472C527.264 137.472 527.952 138.032 527.952 139.12V139.344H527.472C525.632 139.344 522.752 139.488 522.752 141.968C522.752 143.424 524.016 144.192 525.536 144.192C526.672 144.192 527.504 143.648 528 142.88H528.032C528.032 143.2 528.032 143.664 528.112 144H529.312C529.248 143.616 529.2 143.136 529.2 142.704V139.488C529.2 137.376 528.272 136.32 526.064 136.32C524.976 136.32 523.856 136.688 523.088 137.472L523.872 138.288ZM527.952 140.4V140.88C527.92 142.096 527.184 143.136 525.744 143.136C524.8 143.136 524.096 142.784 524.096 141.84C524.096 140.832 525.12 140.4 526.704 140.4H527.952ZM530.649 142.8C531.385 143.856 532.297 144.192 533.561 144.192C535.049 144.192 536.553 143.536 536.553 141.84C536.553 140.336 535.433 139.856 534.105 139.6C533.113 139.408 532.217 139.136 532.217 138.512C532.217 137.808 533.001 137.472 533.689 137.472C534.425 137.472 534.953 137.84 535.273 138.368L536.313 137.68C535.801 136.72 534.825 136.32 533.769 136.32C532.377 136.32 530.969 137.072 530.969 138.528C530.969 140.08 532.185 140.384 533.609 140.704C534.409 140.88 535.209 141.088 535.209 141.888C535.209 142.704 534.345 143.04 533.561 143.04C532.681 143.04 532.137 142.64 531.641 142.032L530.649 142.8ZM544.037 141.904C543.445 142.656 542.725 143.04 541.653 143.04C540.293 143.04 539.301 141.936 539.205 140.64H545.253V140.24C545.253 137.76 543.813 136.32 541.701 136.32C539.493 136.32 537.861 137.936 537.861 140.256C537.861 142.432 539.301 144.192 541.653 144.192C543.045 144.192 544.101 143.776 544.981 142.64L544.037 141.904ZM539.205 139.584C539.365 138.32 540.277 137.472 541.653 137.472C543.029 137.472 543.861 138.32 543.909 139.584H539.205ZM555.733 136.512H553.525V134.384H552.277V136.512H550.645V137.568H552.277V141.68C552.277 143.232 552.565 144.192 554.341 144.192C554.805 144.192 555.365 144.112 555.797 143.92L555.749 142.784C555.413 142.96 555.013 143.04 554.645 143.04C553.541 143.04 553.525 142.272 553.525 141.312V137.568H555.733V136.512ZM557.262 144H558.51V140.352C558.51 138.64 559.214 137.472 560.83 137.472C561.998 137.472 562.542 138.256 562.542 139.504V144H563.79V139.376C563.79 137.568 562.91 136.32 560.942 136.32C559.774 136.32 558.878 136.96 558.542 137.552H558.51V131.904H557.262V144ZM571.897 141.904C571.305 142.656 570.585 143.04 569.513 143.04C568.153 143.04 567.161 141.936 567.065 140.64H573.113V140.24C573.113 137.76 571.673 136.32 569.561 136.32C567.353 136.32 565.721 137.936 565.721 140.256C565.721 142.432 567.161 144.192 569.513 144.192C570.905 144.192 571.961 143.776 572.841 142.64L571.897 141.904ZM567.065 139.584C567.225 138.32 568.137 137.472 569.513 137.472C570.889 137.472 571.721 138.32 571.769 139.584H567.065ZM579.609 144H580.857V131.904H579.609V144ZM589.084 141.904C588.492 142.656 587.772 143.04 586.7 143.04C585.34 143.04 584.348 141.936 584.252 140.64H590.3V140.24C590.3 137.76 588.86 136.32 586.748 136.32C584.54 136.32 582.908 137.936 582.908 140.256C582.908 142.432 584.348 144.192 586.7 144.192C588.092 144.192 589.148 143.776 590.028 142.64L589.084 141.904ZM584.252 139.584C584.412 138.32 585.324 137.472 586.7 137.472C588.076 137.472 588.908 138.32 588.956 139.584H584.252ZM592.231 144H593.479V140.352C593.479 138.64 594.183 137.472 595.799 137.472C596.967 137.472 597.511 138.256 597.511 139.504V144H598.759V139.376C598.759 137.568 597.879 136.32 595.911 136.32C594.679 136.32 593.751 137.008 593.415 137.744H593.383C593.383 137.328 593.351 136.912 593.351 136.512H592.167C592.167 137.008 592.231 137.6 592.231 138.288V144ZM608.594 136.512H607.346V137.792H607.314C606.818 136.8 605.682 136.32 604.674 136.32C602.289 136.32 600.69 137.808 600.69 140.256C600.69 142.464 602.322 144.096 604.674 144.096C605.666 144.096 606.722 143.664 607.314 142.704H607.346V143.664C607.346 145.248 606.754 146.688 604.514 146.688C603.362 146.688 602.514 146.24 601.73 145.392L600.834 146.416C601.89 147.456 603.058 147.84 604.514 147.84C607.138 147.84 608.594 146.368 608.594 143.664V136.512ZM602.034 140.256C602.034 138.688 603.106 137.472 604.674 137.472C606.258 137.472 607.346 138.608 607.346 140.224C607.346 141.664 606.386 142.944 604.674 142.944C603.218 142.944 602.034 141.776 602.034 140.256ZM614.999 136.512H612.791V134.384H611.543V136.512H609.911V137.568H611.543V141.68C611.543 143.232 611.831 144.192 613.607 144.192C614.071 144.192 614.631 144.112 615.063 143.92L615.015 142.784C614.679 142.96 614.279 143.04 613.911 143.04C612.807 143.04 612.791 142.272 612.791 141.312V137.568H614.999V136.512ZM616.528 144H617.776V140.352C617.776 138.64 618.48 137.472 620.096 137.472C621.264 137.472 621.808 138.256 621.808 139.504V144H623.056V139.376C623.056 137.568 622.176 136.32 620.208 136.32C619.04 136.32 618.144 136.96 617.808 137.552H617.776V131.904H616.528V144ZM629.44 140.256C629.44 142.592 631.136 144.192 633.44 144.192C635.744 144.192 637.44 142.592 637.44 140.256C637.44 137.92 635.744 136.32 633.44 136.32C631.136 136.32 629.44 137.92 629.44 140.256ZM630.784 140.256C630.784 138.688 631.824 137.472 633.44 137.472C635.056 137.472 636.096 138.688 636.096 140.256C636.096 141.824 635.056 143.04 633.44 143.04C631.824 143.04 630.784 141.824 630.784 140.256ZM640.012 144H641.26V137.568H643.084V136.512H641.26V135.104C641.26 133.808 641.308 132.864 642.604 132.864C642.891 132.864 643.18 132.928 643.452 133.024L643.628 131.904C643.388 131.776 642.988 131.712 642.668 131.712C640.652 131.712 640.012 133.008 640.012 134.832V136.512H638.38V137.568H640.012V144ZM652.968 136.512H650.76V134.384H649.512V136.512H647.88V137.568H649.512V141.68C649.512 143.232 649.799 144.192 651.576 144.192C652.04 144.192 652.6 144.112 653.032 143.92L652.984 142.784C652.648 142.96 652.248 143.04 651.88 143.04C650.776 143.04 650.76 142.272 650.76 141.312V137.568H652.968V136.512ZM654.497 144H655.745V140.352C655.745 138.64 656.449 137.472 658.065 137.472C659.233 137.472 659.777 138.256 659.777 139.504V144H661.025V139.376C661.025 137.568 660.145 136.32 658.177 136.32C657.009 136.32 656.113 136.96 655.777 137.552H655.745V131.904H654.497V144ZM669.131 141.904C668.539 142.656 667.819 143.04 666.747 143.04C665.387 143.04 664.395 141.936 664.299 140.64H670.347V140.24C670.347 137.76 668.907 136.32 666.795 136.32C664.587 136.32 662.955 137.936 662.955 140.256C662.955 142.432 664.395 144.192 666.747 144.192C668.139 144.192 669.195 143.776 670.075 142.64L669.131 141.904ZM664.299 139.584C664.459 138.32 665.371 137.472 666.747 137.472C668.123 137.472 668.955 138.32 669.003 139.584H664.299ZM676.843 144H678.091V136.512H676.843V144ZM676.555 133.584C676.555 134.112 676.939 134.496 677.467 134.496C677.995 134.496 678.379 134.112 678.379 133.584C678.379 133.088 677.979 132.672 677.467 132.672C676.955 132.672 676.555 133.088 676.555 133.584ZM680.575 144H681.823V140.352C681.823 138.64 682.527 137.472 684.143 137.472C685.311 137.472 685.855 138.256 685.855 139.504V144H687.103V139.376C687.103 137.568 686.223 136.32 684.255 136.32C683.023 136.32 682.095 137.008 681.759 137.744H681.727C681.727 137.328 681.695 136.912 681.695 136.512H680.511C680.511 137.008 680.575 137.6 680.575 138.288V144ZM689.401 147.648H690.649V142.672H690.681C691.145 143.52 692.217 144.192 693.561 144.192C695.657 144.192 697.305 142.496 697.305 140.256C697.305 137.984 695.721 136.32 693.369 136.32C692.281 136.32 691.369 136.8 690.681 137.6H690.649V136.512H689.401V147.648ZM690.649 140.256C690.649 138.688 691.689 137.472 693.305 137.472C694.921 137.472 695.961 138.688 695.961 140.256C695.961 141.824 694.921 143.04 693.305 143.04C691.689 143.04 690.649 141.824 690.649 140.256ZM705.775 136.512H704.527V140.16C704.527 141.872 703.823 143.04 702.207 143.04C701.039 143.04 700.495 142.256 700.495 141.008V136.512H699.247V141.136C699.247 142.944 700.127 144.192 702.095 144.192C703.327 144.192 704.255 143.504 704.591 142.768H704.623C704.623 143.184 704.655 143.6 704.655 144H705.839C705.839 143.504 705.775 142.912 705.775 142.224V136.512ZM712.233 136.512H710.025V134.384H708.777V136.512H707.145V137.568H708.777V141.68C708.777 143.232 709.065 144.192 710.841 144.192C711.305 144.192 711.865 144.112 712.297 143.92L712.249 142.784C711.913 142.96 711.513 143.04 711.145 143.04C710.041 143.04 710.025 142.272 710.025 141.312V137.568H712.233V136.512ZM721.927 136.512H720.103V135.104C720.103 133.808 720.151 132.864 721.447 132.864C721.735 132.864 722.023 132.928 722.295 133.024L722.471 131.904C722.231 131.776 721.831 131.712 721.511 131.712C719.495 131.712 718.855 133.008 718.855 134.832V136.512H717.223V137.568H718.855V144H720.103V137.568H721.927V136.512ZM723.079 144H724.327V136.512H723.079V144ZM722.791 133.584C722.791 134.112 723.175 134.496 723.703 134.496C724.231 134.496 724.615 134.112 724.615 133.584C724.615 133.088 724.215 132.672 723.703 132.672C723.191 132.672 722.791 133.088 722.791 133.584ZM732.553 141.904C731.961 142.656 731.241 143.04 730.169 143.04C728.809 143.04 727.817 141.936 727.721 140.64H733.769V140.24C733.769 137.76 732.329 136.32 730.217 136.32C728.009 136.32 726.377 137.936 726.377 140.256C726.377 142.432 727.817 144.192 730.169 144.192C731.561 144.192 732.617 143.776 733.497 142.64L732.553 141.904ZM727.721 139.584C727.881 138.32 728.793 137.472 730.169 137.472C731.545 137.472 732.377 138.32 732.425 139.584H727.721ZM735.812 144H737.06V131.904H735.812V144ZM745.767 144H747.015V131.904H745.767V137.6H745.735C745.047 136.8 744.135 136.32 743.047 136.32C740.695 136.32 739.111 137.984 739.111 140.256C739.111 142.496 740.759 144.192 742.855 144.192C744.199 144.192 745.271 143.52 745.735 142.672H745.767V144ZM745.767 140.256C745.767 141.824 744.727 143.04 743.111 143.04C741.495 143.04 740.455 141.824 740.455 140.256C740.455 138.688 741.495 137.472 743.111 137.472C744.727 137.472 745.767 138.688 745.767 140.256ZM753.89 144H755.138V136.512H753.89V144ZM753.602 133.584C753.602 134.112 753.986 134.496 754.514 134.496C755.042 134.496 755.426 134.112 755.426 133.584C755.426 133.088 755.026 132.672 754.514 132.672C754.002 132.672 753.602 133.088 753.602 133.584ZM758.262 144H759.51V137.568H761.334V136.512H759.51V135.104C759.51 133.808 759.558 132.864 760.854 132.864C761.141 132.864 761.43 132.928 761.702 133.024L761.878 131.904C761.638 131.776 761.238 131.712 760.918 131.712C758.902 131.712 758.262 133.008 758.262 134.832V136.512H756.63V137.568H758.262V144ZM771.218 136.512H769.01V134.384H767.762V136.512H766.13V137.568H767.762V141.68C767.762 143.232 768.049 144.192 769.826 144.192C770.29 144.192 770.85 144.112 771.282 143.92L771.234 142.784C770.898 142.96 770.498 143.04 770.13 143.04C769.026 143.04 769.01 142.272 769.01 141.312V137.568H771.218V136.512ZM772.747 144H773.995V140.352C773.995 138.64 774.699 137.472 776.315 137.472C777.483 137.472 778.027 138.256 778.027 139.504V144H779.275V139.376C779.275 137.568 778.395 136.32 776.427 136.32C775.259 136.32 774.363 136.96 774.027 137.552H773.995V131.904H772.747V144ZM787.381 141.904C786.789 142.656 786.069 143.04 784.997 143.04C783.637 143.04 782.645 141.936 782.549 140.64H788.597V140.24C788.597 137.76 787.157 136.32 785.045 136.32C782.837 136.32 781.205 137.936 781.205 140.256C781.205 142.432 782.645 144.192 784.997 144.192C786.389 144.192 787.445 143.776 788.325 142.64L787.381 141.904ZM782.549 139.584C782.709 138.32 783.621 137.472 784.997 137.472C786.373 137.472 787.205 138.32 787.253 139.584H782.549ZM801.301 137.504C800.549 136.688 799.525 136.32 798.421 136.32C796.117 136.32 794.549 137.984 794.549 140.256C794.549 142.56 796.101 144.192 798.421 144.192C799.509 144.192 800.533 143.824 801.253 142.992L800.325 142.112C799.861 142.752 799.237 143.04 798.421 143.04C796.901 143.04 795.893 141.792 795.893 140.256C795.893 138.72 796.741 137.472 798.421 137.472C799.173 137.472 799.781 137.744 800.309 138.384L801.301 137.504ZM802.268 140.256C802.268 142.592 803.964 144.192 806.268 144.192C808.572 144.192 810.268 142.592 810.268 140.256C810.268 137.92 808.572 136.32 806.268 136.32C803.964 136.32 802.268 137.92 802.268 140.256ZM803.612 140.256C803.612 138.688 804.652 137.472 806.268 137.472C807.884 137.472 808.924 138.688 808.924 140.256C808.924 141.824 807.884 143.04 806.268 143.04C804.652 143.04 803.612 141.824 803.612 140.256ZM812.2 144H813.448V140.352C813.448 138.64 814.152 137.472 815.768 137.472C816.936 137.472 817.48 138.256 817.48 139.504V144H818.728V139.376C818.728 137.568 817.848 136.32 815.88 136.32C814.648 136.32 813.72 137.008 813.384 137.744H813.352C813.352 137.328 813.32 136.912 813.32 136.512H812.136C812.136 137.008 812.2 137.6 812.2 138.288V144ZM825.186 136.512H822.978V134.384H821.73V136.512H820.098V137.568H821.73V141.68C821.73 143.232 822.018 144.192 823.794 144.192C824.258 144.192 824.818 144.112 825.25 143.92L825.202 142.784C824.866 142.96 824.466 143.04 824.098 143.04C822.994 143.04 822.978 142.272 822.978 141.312V137.568H825.186V136.512ZM832.459 141.904C831.867 142.656 831.147 143.04 830.075 143.04C828.715 143.04 827.723 141.936 827.627 140.64H833.675V140.24C833.675 137.76 832.235 136.32 830.123 136.32C827.915 136.32 826.283 137.936 826.283 140.256C826.283 142.432 827.723 144.192 830.075 144.192C831.467 144.192 832.523 143.776 833.403 142.64L832.459 141.904ZM827.627 139.584C827.787 138.32 828.699 137.472 830.075 137.472C831.451 137.472 832.283 138.32 832.331 139.584H827.627ZM835.606 144H836.854V140.352C836.854 138.64 837.558 137.472 839.174 137.472C840.342 137.472 840.886 138.256 840.886 139.504V144H842.134V139.376C842.134 137.568 841.254 136.32 839.286 136.32C838.054 136.32 837.126 137.008 836.79 137.744H836.758C836.758 137.328 836.726 136.912 836.726 136.512H835.542C835.542 137.008 835.606 137.6 835.606 138.288V144ZM848.593 136.512H846.385V134.384H845.137V136.512H843.505V137.568H845.137V141.68C845.137 143.232 845.424 144.192 847.201 144.192C847.665 144.192 848.225 144.112 848.657 143.92L848.609 142.784C848.273 142.96 847.873 143.04 847.505 143.04C846.401 143.04 846.385 142.272 846.385 141.312V137.568H848.593V136.512ZM854.687 144H855.935V136.512H854.687V144ZM854.399 133.584C854.399 134.112 854.783 134.496 855.311 134.496C855.839 134.496 856.223 134.112 856.223 133.584C856.223 133.088 855.823 132.672 855.311 132.672C854.799 132.672 854.399 133.088 854.399 133.584ZM857.586 142.8C858.322 143.856 859.234 144.192 860.498 144.192C861.986 144.192 863.49 143.536 863.49 141.84C863.49 140.336 862.37 139.856 861.042 139.6C860.05 139.408 859.154 139.136 859.154 138.512C859.154 137.808 859.938 137.472 860.626 137.472C861.362 137.472 861.89 137.84 862.21 138.368L863.25 137.68C862.738 136.72 861.762 136.32 860.706 136.32C859.314 136.32 857.906 137.072 857.906 138.528C857.906 140.08 859.122 140.384 860.546 140.704C861.346 140.88 862.146 141.088 862.146 141.888C862.146 142.704 861.282 143.04 860.498 143.04C859.618 143.04 859.074 142.64 858.578 142.032L857.586 142.8ZM868.852 142.8C869.588 143.856 870.5 144.192 871.764 144.192C873.252 144.192 874.756 143.536 874.756 141.84C874.756 140.336 873.636 139.856 872.308 139.6C871.316 139.408 870.42 139.136 870.42 138.512C870.42 137.808 871.204 137.472 871.892 137.472C872.628 137.472 873.156 137.84 873.476 138.368L874.516 137.68C874.004 136.72 873.028 136.32 871.972 136.32C870.58 136.32 869.172 137.072 869.172 138.528C869.172 140.08 870.388 140.384 871.812 140.704C872.612 140.88 873.412 141.088 873.412 141.888C873.412 142.704 872.548 143.04 871.764 143.04C870.884 143.04 870.34 142.64 869.844 142.032L868.852 142.8ZM876.497 144H877.745V140.352C877.745 138.64 878.449 137.472 880.065 137.472C881.233 137.472 881.777 138.256 881.777 139.504V144H883.025V139.376C883.025 137.568 882.145 136.32 880.177 136.32C879.009 136.32 878.113 136.96 877.777 137.552H877.745V131.904H876.497V144ZM884.955 140.256C884.955 142.592 886.651 144.192 888.955 144.192C891.259 144.192 892.955 142.592 892.955 140.256C892.955 137.92 891.259 136.32 888.955 136.32C886.651 136.32 884.955 137.92 884.955 140.256ZM886.299 140.256C886.299 138.688 887.339 137.472 888.955 137.472C890.571 137.472 891.611 138.688 891.611 140.256C891.611 141.824 890.571 143.04 888.955 143.04C887.339 143.04 886.299 141.824 886.299 140.256ZM894.887 144H896.135V140.352C896.135 138.64 896.807 137.568 898.327 137.568C898.551 137.568 898.791 137.6 898.999 137.664L899.079 136.4C898.903 136.336 898.727 136.32 898.567 136.32C897.335 136.32 896.407 137.008 896.071 137.744H896.039C896.039 137.328 896.007 136.912 896.007 136.512H894.823C894.823 137.008 894.887 137.6 894.887 138.288V144ZM904.608 136.512H902.4V134.384H901.152V136.512H899.52V137.568H901.152V141.68C901.152 143.232 901.44 144.192 903.216 144.192C903.68 144.192 904.24 144.112 904.672 143.92L904.624 142.784C904.288 142.96 903.888 143.04 903.52 143.04C902.416 143.04 902.4 142.272 902.4 141.312V137.568H904.608V136.512ZM907.177 142.176C906.649 142.176 906.217 142.608 906.217 143.136C906.217 143.664 906.681 144.096 907.177 144.096C907.673 144.096 908.137 143.664 908.137 143.136C908.137 142.608 907.705 142.176 907.177 142.176Z" fill="#333333"/>
<defs>
<clipPath id="clip0_162_29851">
<rect width="79" height="24" fill="white" transform="translate(40 40)"/>
</clipPath>
<clipPath id="clip1_162_29851">
<rect x="40" y="68" width="320" height="36" rx="4" fill="white"/>
</clipPath>
<clipPath id="clip2_162_29851">
<rect width="79" height="24" fill="white" transform="translate(440 40)"/>
</clipPath>
<clipPath id="clip3_162_29851">
<rect x="440" y="68" width="533" height="36" rx="4" fill="white"/>
</clipPath>
</defs>
</svg>
