<svg width="770" height="321" viewBox="0 0 770 321" fill="none" xmlns="http://www.w3.org/2000/svg">
<g clip-path="url(#clip0_171_30765)">
<path d="M41.408 34H42.752V28.912H45.024C46.624 28.912 48.736 28.256 48.736 25.776C48.736 23.408 46.848 22.672 44.768 22.672H41.408V34ZM42.752 23.92H45.024C46.368 23.92 47.296 24.528 47.296 25.792C47.296 27.056 46.368 27.664 45.024 27.664H42.752V23.92ZM50.7804 34H52.0284V21.904H50.7804V34ZM55.2001 28.288C55.7921 27.744 56.6241 27.472 57.4241 27.472C58.5921 27.472 59.2801 28.032 59.2801 29.12V29.344H58.8001C56.9601 29.344 54.0801 29.488 54.0801 31.968C54.0801 33.424 55.3441 34.192 56.8641 34.192C58.0001 34.192 58.8321 33.648 59.3281 32.88H59.3601C59.3601 33.2 59.3601 33.664 59.4401 34H60.6401C60.5761 33.616 60.5281 33.136 60.5281 32.704V29.488C60.5281 27.376 59.6001 26.32 57.3921 26.32C56.3041 26.32 55.1841 26.688 54.4161 27.472L55.2001 28.288ZM59.2801 30.4V30.88C59.2481 32.096 58.5121 33.136 57.0721 33.136C56.1281 33.136 55.4241 32.784 55.4241 31.84C55.4241 30.832 56.4481 30.4 58.0321 30.4H59.2801ZM62.809 34H64.057V30.352C64.057 28.64 64.761 27.472 66.377 27.472C67.545 27.472 68.089 28.256 68.089 29.504V34H69.337V29.376C69.337 27.568 68.457 26.32 66.489 26.32C65.257 26.32 64.329 27.008 63.993 27.744H63.961C63.961 27.328 63.929 26.912 63.929 26.512H62.745C62.745 27.008 62.809 27.6 62.809 28.288V34ZM75.7956 26.512H73.5876V24.384H72.3396V26.512H70.7076V27.568H72.3396V31.68C72.3396 33.232 72.6276 34.192 74.4036 34.192C74.8676 34.192 75.4276 34.112 75.8596 33.92L75.8116 32.784C75.4756 32.96 75.0756 33.04 74.7076 33.04C73.6036 33.04 73.5876 32.272 73.5876 31.312V27.568H75.7956V26.512Z" fill="#333333"/>
<path opacity="0.8" d="M85.384 20.672H84.04V22.944L81.864 22.192L81.448 23.472L83.64 24.224L82.264 26.032L83.336 26.848L84.68 25.008L86.056 26.896L87.16 26.096L85.784 24.224L87.96 23.52L87.544 22.24L85.384 22.944V20.672Z" fill="#DB3259"/>
</g>
<rect x="40.5" y="44.5" width="319" height="35" rx="3.5" fill="white"/>
<path opacity="0.6" d="M53.408 66H59.936V64.752H54.752V54.672H53.408V66ZM61.296 66H62.544V58.512H61.296V66ZM61.008 55.584C61.008 56.112 61.392 56.496 61.92 56.496C62.448 56.496 62.832 56.112 62.832 55.584C62.832 55.088 62.432 54.672 61.92 54.672C61.408 54.672 61.008 55.088 61.008 55.584ZM64.1958 64.8C64.9318 65.856 65.8438 66.192 67.1078 66.192C68.5958 66.192 70.0998 65.536 70.0998 63.84C70.0998 62.336 68.9798 61.856 67.6518 61.6C66.6598 61.408 65.7638 61.136 65.7638 60.512C65.7638 59.808 66.5478 59.472 67.2358 59.472C67.9718 59.472 68.4998 59.84 68.8198 60.368L69.8598 59.68C69.3478 58.72 68.3718 58.32 67.3158 58.32C65.9238 58.32 64.5158 59.072 64.5158 60.528C64.5158 62.08 65.7318 62.384 67.1558 62.704C67.9557 62.88 68.7558 63.088 68.7558 63.888C68.7558 64.704 67.8918 65.04 67.1078 65.04C66.2278 65.04 65.6838 64.64 65.1878 64.032L64.1958 64.8ZM75.9363 58.512H73.7283V56.384H72.4803V58.512H70.8483V59.568H72.4803V63.68C72.4803 65.232 72.7682 66.192 74.5443 66.192C75.0083 66.192 75.5683 66.112 76.0003 65.92L75.9523 64.784C75.6163 64.96 75.2163 65.04 74.8483 65.04C73.7443 65.04 73.7283 64.272 73.7283 63.312V59.568H75.9363V58.512ZM82.0304 66H83.2784V58.512H82.0304V66ZM81.7424 55.584C81.7424 56.112 82.1264 56.496 82.6544 56.496C83.1824 56.496 83.5664 56.112 83.5664 55.584C83.5664 55.088 83.1664 54.672 82.6544 54.672C82.1424 54.672 81.7424 55.088 81.7424 55.584ZM89.8581 58.512H87.6501V56.384H86.4021V58.512H84.7701V59.568H86.4021V63.68C86.4021 65.232 86.6901 66.192 88.4661 66.192C88.9301 66.192 89.4901 66.112 89.9221 65.92L89.8741 64.784C89.5381 64.96 89.1381 65.04 88.7701 65.04C87.6661 65.04 87.6501 64.272 87.6501 63.312V59.568H89.8581V58.512ZM97.1311 63.904C96.5391 64.656 95.8191 65.04 94.7471 65.04C93.3871 65.04 92.3951 63.936 92.2991 62.64H98.3471V62.24C98.3471 59.76 96.9071 58.32 94.7951 58.32C92.5871 58.32 90.9551 59.936 90.9551 62.256C90.9551 64.432 92.3951 66.192 94.7471 66.192C96.1391 66.192 97.1951 65.776 98.0751 64.64L97.1311 63.904ZM92.2991 61.584C92.4591 60.32 93.3711 59.472 94.7471 59.472C96.1231 59.472 96.9551 60.32 97.0031 61.584H92.2991ZM100.278 66H101.526V62.352C101.526 60.64 102.23 59.472 103.846 59.472C104.87 59.472 105.286 60.112 105.286 61.76V66H106.534V61.68C106.534 60.336 107.414 59.472 108.47 59.472C109.926 59.472 110.294 60.48 110.294 61.52V66H111.542V61.456C111.542 59.52 110.838 58.32 108.694 58.32C107.558 58.32 106.87 58.864 106.326 59.744C106.086 59.232 105.574 58.32 103.958 58.32C102.726 58.32 101.798 59.008 101.462 59.744H101.43C101.43 59.328 101.398 58.912 101.398 58.512H100.214C100.214 59.008 100.278 59.6 100.278 60.288V66Z" fill="#9EA6B5"/>
<path d="M338.999 63.6664C338.933 63.6668 338.868 63.6539 338.808 63.6288C338.747 63.6036 338.692 63.5665 338.646 63.5198L335.312 60.1864C335.246 60.0892 335.216 59.9716 335.228 59.8543C335.239 59.7371 335.292 59.6278 335.377 59.5457C335.461 59.4636 335.572 59.414 335.689 59.4056C335.807 59.3972 335.924 59.4305 336.019 59.4998L338.999 62.4598L341.979 59.4998C342.073 59.4389 342.185 59.4112 342.296 59.4214C342.408 59.4315 342.513 59.4788 342.594 59.5556C342.676 59.6325 342.729 59.7345 342.745 59.8452C342.762 59.956 342.741 60.0691 342.686 60.1664L339.352 63.4998C339.308 63.5502 339.254 63.5909 339.193 63.6196C339.132 63.6482 339.066 63.6642 338.999 63.6664V63.6664Z" fill="#6B778C"/>
<rect x="40.5" y="44.5" width="319" height="35" rx="3.5" stroke="#9EA6B5"/>
<g filter="url(#filter0_dd_171_30765)">
<g clip-path="url(#clip1_171_30765)">
<rect width="320" height="40" transform="translate(40 80)" fill="white"/>
<path d="M62.902 94.498C62.174 93.644 61.236 93.336 60.13 93.336C58.394 93.336 56.756 94.288 56.756 96.192C56.756 97.844 57.82 98.46 59.22 98.922C60.984 99.51 61.81 99.72 61.81 100.938C61.81 102.072 60.662 102.66 59.654 102.66C58.8 102.66 57.96 102.282 57.54 101.554L56.532 102.38C57.204 103.374 58.436 103.752 59.584 103.752C61.376 103.752 63.07 102.828 63.07 100.854C63.07 98.908 61.642 98.404 60.102 97.914C58.52 97.41 58.016 97.004 58.016 96.094C58.016 94.918 59.094 94.428 60.13 94.428C60.844 94.428 61.544 94.708 61.936 95.338L62.902 94.498ZM70.3873 96.948H69.1973L67.2513 102.086H67.2233L65.1933 96.948H63.9193L66.6353 103.542L66.1873 104.774C65.9493 105.418 65.6833 105.852 64.9693 105.852C64.6613 105.852 64.4233 105.824 64.1993 105.74L64.0593 106.692C64.3533 106.832 64.7313 106.86 65.0393 106.86C66.3553 106.86 66.7893 106.104 67.2233 104.998L70.3873 96.948ZM77.0152 103.5H78.1072V92.916H77.0152V97.9H76.9872C76.3852 97.2 75.5872 96.78 74.6352 96.78C72.5772 96.78 71.1912 98.236 71.1912 100.224C71.1912 102.184 72.6332 103.668 74.4672 103.668C75.6432 103.668 76.5812 103.08 76.9872 102.338H77.0152V103.5ZM77.0152 100.224C77.0152 101.596 76.1052 102.66 74.6912 102.66C73.2772 102.66 72.3672 101.596 72.3672 100.224C72.3672 98.852 73.2772 97.788 74.6912 97.788C76.1052 97.788 77.0152 98.852 77.0152 100.224ZM80.1278 103.5H81.2198V100.308C81.2198 98.81 81.8358 97.788 83.2498 97.788C84.2718 97.788 84.7478 98.474 84.7478 99.566V103.5H85.8398V99.454C85.8398 97.872 85.0698 96.78 83.3478 96.78C82.2698 96.78 81.4578 97.382 81.1638 98.026H81.1358C81.1358 97.662 81.1078 97.298 81.1078 96.948H80.0718C80.0718 97.382 80.1278 97.9 80.1278 98.502V103.5ZM92.9331 101.666C92.4151 102.324 91.7851 102.66 90.8471 102.66C89.6571 102.66 88.7891 101.694 88.7051 100.56H93.9971V100.21C93.9971 98.04 92.7371 96.78 90.8891 96.78C88.9571 96.78 87.5291 98.194 87.5291 100.224C87.5291 102.128 88.7891 103.668 90.8471 103.668C92.0651 103.668 92.9891 103.304 93.7591 102.31L92.9331 101.666ZM88.7051 99.636C88.8451 98.53 89.6431 97.788 90.8471 97.788C92.0511 97.788 92.7791 98.53 92.8211 99.636H88.7051ZM101.258 96.948H100.068L98.1224 102.086H98.0944L96.0644 96.948H94.7904L97.5064 103.542L97.0584 104.774C96.8204 105.418 96.5544 105.852 95.8404 105.852C95.5324 105.852 95.2944 105.824 95.0704 105.74L94.9304 106.692C95.2244 106.832 95.6024 106.86 95.9104 106.86C97.2264 106.86 97.6604 106.104 98.0944 104.998L101.258 96.948Z" fill="#333333"/>
<rect width="320" height="40" transform="translate(40 120)" fill="#E6E6E6"/>
<path d="M57.232 143.5H58.408V135.184H58.436L61.992 143.5H62.706L66.262 135.184H66.29V143.5H67.466V133.588H65.758L62.37 141.358H62.342L58.982 133.588H57.232V143.5ZM74.7632 141.666C74.2452 142.324 73.6152 142.66 72.6772 142.66C71.4872 142.66 70.6192 141.694 70.5352 140.56H75.8272V140.21C75.8272 138.04 74.5672 136.78 72.7192 136.78C70.7872 136.78 69.3592 138.194 69.3592 140.224C69.3592 142.128 70.6192 143.668 72.6772 143.668C73.8952 143.668 74.8192 143.304 75.5892 142.31L74.7632 141.666ZM70.5352 139.636C70.6752 138.53 71.4732 137.788 72.6772 137.788C73.8812 137.788 74.6092 138.53 74.6512 139.636H70.5352ZM77.6145 143.5H78.7065V132.916H77.6145V143.5ZM80.8238 143.5H81.9158V142.338H81.9438C82.3498 143.08 83.2878 143.668 84.4638 143.668C86.2978 143.668 87.7398 142.184 87.7398 140.224C87.7398 138.236 86.3538 136.78 84.2958 136.78C83.3438 136.78 82.5458 137.2 81.9438 137.9H81.9158V132.916H80.8238V143.5ZM81.9158 140.224C81.9158 138.852 82.8258 137.788 84.2398 137.788C85.6538 137.788 86.5638 138.852 86.5638 140.224C86.5638 141.596 85.6538 142.66 84.2398 142.66C82.8258 142.66 81.9158 141.596 81.9158 140.224ZM89.0603 140.224C89.0603 142.268 90.5443 143.668 92.5603 143.668C94.5763 143.668 96.0603 142.268 96.0603 140.224C96.0603 138.18 94.5763 136.78 92.5603 136.78C90.5443 136.78 89.0603 138.18 89.0603 140.224ZM90.2363 140.224C90.2363 138.852 91.1463 137.788 92.5603 137.788C93.9743 137.788 94.8843 138.852 94.8843 140.224C94.8843 141.596 93.9743 142.66 92.5603 142.66C91.1463 142.66 90.2363 141.596 90.2363 140.224ZM103.463 136.948H102.371V140.14C102.371 141.638 101.755 142.66 100.341 142.66C99.3188 142.66 98.8428 141.974 98.8428 140.882V136.948H97.7508V140.994C97.7508 142.576 98.5208 143.668 100.243 143.668C101.321 143.668 102.133 143.066 102.427 142.422H102.455C102.455 142.786 102.483 143.15 102.483 143.5H103.519C103.519 143.066 103.463 142.548 103.463 141.946V136.948ZM105.53 143.5H106.622V140.308C106.622 138.81 107.21 137.872 108.54 137.872C108.736 137.872 108.946 137.9 109.128 137.956L109.198 136.85C109.044 136.794 108.89 136.78 108.75 136.78C107.672 136.78 106.86 137.382 106.566 138.026H106.538C106.538 137.662 106.51 137.298 106.51 136.948H105.474C105.474 137.382 105.53 137.9 105.53 138.502V143.5ZM110.452 143.5H111.544V140.308C111.544 138.81 112.16 137.788 113.574 137.788C114.596 137.788 115.072 138.474 115.072 139.566V143.5H116.164V139.454C116.164 137.872 115.394 136.78 113.672 136.78C112.594 136.78 111.782 137.382 111.488 138.026H111.46C111.46 137.662 111.432 137.298 111.432 136.948H110.396C110.396 137.382 110.452 137.9 110.452 138.502V143.5ZM123.257 141.666C122.739 142.324 122.109 142.66 121.171 142.66C119.981 142.66 119.113 141.694 119.029 140.56H124.321V140.21C124.321 138.04 123.061 136.78 121.213 136.78C119.281 136.78 117.853 138.194 117.853 140.224C117.853 142.128 119.113 143.668 121.171 143.668C122.389 143.668 123.313 143.304 124.083 142.31L123.257 141.666ZM119.029 139.636C119.169 138.53 119.967 137.788 121.171 137.788C122.375 137.788 123.103 138.53 123.145 139.636H119.029Z" fill="#333333"/>
<rect width="320" height="40" transform="translate(40 160)" fill="white"/>
<path d="M57.232 183.5H60.186C62.02 183.5 64.05 182.912 64.05 180.728C64.05 179.426 63.084 178.404 61.81 178.292V178.264C62.874 177.942 63.546 177.172 63.546 176.024C63.546 174.204 61.894 173.588 60.256 173.588H57.232V183.5ZM58.408 174.68H60.158C61.222 174.68 62.286 174.96 62.286 176.178C62.286 177.55 61.138 177.788 60.032 177.788H58.408V174.68ZM58.408 178.88H60.424C61.614 178.88 62.79 179.3 62.79 180.686C62.79 181.946 61.544 182.408 60.396 182.408H58.408V178.88ZM65.8544 183.5H66.9464V180.308C66.9464 178.81 67.5344 177.872 68.8644 177.872C69.0604 177.872 69.2704 177.9 69.4524 177.956L69.5224 176.85C69.3684 176.794 69.2144 176.78 69.0744 176.78C67.9964 176.78 67.1844 177.382 66.8904 178.026H66.8624C66.8624 177.662 66.8344 177.298 66.8344 176.948H65.7984C65.7984 177.382 65.8544 177.9 65.8544 178.502V183.5ZM70.8742 183.5H71.9662V176.948H70.8742V183.5ZM70.6222 174.386C70.6222 174.848 70.9582 175.184 71.4202 175.184C71.8822 175.184 72.2182 174.848 72.2182 174.386C72.2182 173.952 71.8682 173.588 71.4202 173.588C70.9722 173.588 70.6222 173.952 70.6222 174.386ZM73.4115 182.45C74.0555 183.374 74.8535 183.668 75.9595 183.668C77.2615 183.668 78.5775 183.094 78.5775 181.61C78.5775 180.294 77.5975 179.874 76.4355 179.65C75.5675 179.482 74.7835 179.244 74.7835 178.698C74.7835 178.082 75.4695 177.788 76.0715 177.788C76.7155 177.788 77.1775 178.11 77.4575 178.572L78.3675 177.97C77.9195 177.13 77.0655 176.78 76.1415 176.78C74.9235 176.78 73.6915 177.438 73.6915 178.712C73.6915 180.07 74.7555 180.336 76.0015 180.616C76.7015 180.77 77.4015 180.952 77.4015 181.652C77.4015 182.366 76.6455 182.66 75.9595 182.66C75.1895 182.66 74.7135 182.31 74.2795 181.778L73.4115 182.45ZM80.0445 183.5H81.1365V182.338H81.1645C81.5705 183.08 82.5085 183.668 83.6845 183.668C85.5185 183.668 86.9605 182.184 86.9605 180.224C86.9605 178.236 85.5745 176.78 83.5165 176.78C82.5645 176.78 81.7665 177.2 81.1645 177.9H81.1365V172.916H80.0445V183.5ZM81.1365 180.224C81.1365 178.852 82.0465 177.788 83.4605 177.788C84.8745 177.788 85.7845 178.852 85.7845 180.224C85.7845 181.596 84.8745 182.66 83.4605 182.66C82.0465 182.66 81.1365 181.596 81.1365 180.224ZM89.261 178.502C89.779 178.026 90.507 177.788 91.207 177.788C92.229 177.788 92.831 178.278 92.831 179.23V179.426H92.411C90.801 179.426 88.281 179.552 88.281 181.722C88.281 182.996 89.387 183.668 90.717 183.668C91.711 183.668 92.439 183.192 92.873 182.52H92.901C92.901 182.8 92.901 183.206 92.971 183.5H94.021C93.965 183.164 93.923 182.744 93.923 182.366V179.552C93.923 177.704 93.111 176.78 91.179 176.78C90.227 176.78 89.247 177.102 88.575 177.788L89.261 178.502ZM92.831 180.35V180.77C92.803 181.834 92.159 182.744 90.899 182.744C90.073 182.744 89.457 182.436 89.457 181.61C89.457 180.728 90.353 180.35 91.739 180.35H92.831ZM95.9188 183.5H97.0108V180.308C97.0108 178.81 97.6268 177.788 99.0408 177.788C100.063 177.788 100.539 178.474 100.539 179.566V183.5H101.631V179.454C101.631 177.872 100.861 176.78 99.1388 176.78C98.0608 176.78 97.2488 177.382 96.9548 178.026H96.9268C96.9268 177.662 96.8988 177.298 96.8988 176.948H95.8628C95.8628 177.382 95.9188 177.9 95.9188 178.502V183.5ZM108.724 181.666C108.206 182.324 107.576 182.66 106.638 182.66C105.448 182.66 104.58 181.694 104.496 180.56H109.788V180.21C109.788 178.04 108.528 176.78 106.68 176.78C104.748 176.78 103.32 178.194 103.32 180.224C103.32 182.128 104.58 183.668 106.638 183.668C107.856 183.668 108.78 183.304 109.55 182.31L108.724 181.666ZM104.496 179.636C104.636 178.53 105.434 177.788 106.638 177.788C107.842 177.788 108.57 178.53 108.612 179.636H104.496Z" fill="#333333"/>
<rect width="320" height="40" transform="translate(40 200)" fill="white"/>
<path d="M57.232 223.5H58.408V219.048H60.396C61.796 219.048 63.644 218.474 63.644 216.304C63.644 214.232 61.992 213.588 60.172 213.588H57.232V223.5ZM58.408 214.68H60.396C61.572 214.68 62.384 215.212 62.384 216.318C62.384 217.424 61.572 217.956 60.396 217.956H58.408V214.68ZM70.3608 221.666C69.8428 222.324 69.2128 222.66 68.2748 222.66C67.0848 222.66 66.2168 221.694 66.1328 220.56H71.4248V220.21C71.4248 218.04 70.1648 216.78 68.3168 216.78C66.3848 216.78 64.9568 218.194 64.9568 220.224C64.9568 222.128 66.2168 223.668 68.2748 223.668C69.4928 223.668 70.4168 223.304 71.1868 222.31L70.3608 221.666ZM66.1328 219.636C66.2728 218.53 67.0708 217.788 68.2748 217.788C69.4788 217.788 70.2068 218.53 70.2488 219.636H66.1328ZM73.1141 223.5H74.2061V220.308C74.2061 218.81 74.7941 217.872 76.1241 217.872C76.3201 217.872 76.5301 217.9 76.7121 217.956L76.7821 216.85C76.6281 216.794 76.4741 216.78 76.3341 216.78C75.2561 216.78 74.4441 217.382 74.1501 218.026H74.1221C74.1221 217.662 74.0941 217.298 74.0941 216.948H73.0581C73.0581 217.382 73.1141 217.9 73.1141 218.502V223.5ZM81.62 216.948H79.688V215.086H78.596V216.948H77.168V217.872H78.596V221.47C78.596 222.828 78.848 223.668 80.402 223.668C80.808 223.668 81.298 223.598 81.676 223.43L81.634 222.436C81.34 222.59 80.99 222.66 80.668 222.66C79.702 222.66 79.688 221.988 79.688 221.148V217.872H81.62V216.948ZM82.9579 223.5H84.0499V220.308C84.0499 218.81 84.6659 217.788 86.0799 217.788C87.1019 217.788 87.5779 218.474 87.5779 219.566V223.5H88.6699V219.454C88.6699 217.872 87.8999 216.78 86.1779 216.78C85.1559 216.78 84.3719 217.34 84.0779 217.858H84.0499V212.916H82.9579V223.5Z" fill="#333333"/>
<g clip-path="url(#clip2_171_30765)">
<rect x="352" y="80" width="8" height="300" rx="4" fill="#FAFAFA"/>
<rect x="352" y="80" width="8" height="90" rx="4" fill="#D2D6DD"/>
</g>
</g>
</g>
<rect x="344" y="16" width="16" height="16" rx="8" fill="#DB3259"/>
<path d="M352.707 24L355.654 21.0533C355.703 21.0075 355.742 20.9523 355.769 20.891C355.797 20.8297 355.811 20.7635 355.813 20.6963C355.814 20.6292 355.801 20.5625 355.776 20.5002C355.751 20.438 355.714 20.3814 355.666 20.3339C355.619 20.2865 355.562 20.249 355.5 20.2239C355.438 20.1987 355.371 20.1864 355.304 20.1876C355.237 20.1888 355.171 20.2035 355.109 20.2308C355.048 20.2581 354.993 20.2975 354.947 20.3466L352 23.2933L349.054 20.3466C348.959 20.2583 348.833 20.2102 348.704 20.2125C348.574 20.2148 348.451 20.2673 348.359 20.3589C348.268 20.4505 348.215 20.5741 348.213 20.7036C348.211 20.8332 348.259 20.9585 348.347 21.0533L351.294 24L348.347 26.9466C348.253 27.0404 348.201 27.1675 348.201 27.3C348.201 27.4325 348.253 27.5596 348.347 27.6533C348.441 27.7469 348.568 27.7995 348.7 27.7995C348.833 27.7995 348.96 27.7469 349.054 27.6533L352 24.7066L354.947 27.6533C355.041 27.7469 355.168 27.7995 355.3 27.7995C355.433 27.7995 355.56 27.7469 355.654 27.6533C355.747 27.5596 355.8 27.4325 355.8 27.3C355.8 27.1675 355.747 27.0404 355.654 26.9466L352.707 24Z" fill="white"/>
<rect x="28" y="4" width="344" height="248" stroke="#E6E6E6" stroke-width="8"/>
<path d="M49.264 289H53.488C56.208 289 59.488 287.208 59.488 283.336C59.488 279.496 56.704 277.672 53.728 277.672H49.264V289ZM51.28 287.176V279.496H53.12C55.584 279.496 57.376 280.584 57.376 283.336C57.376 286.088 55.312 287.176 52.784 287.176H51.28ZM60.8446 285.16C60.8446 287.576 62.7006 289.192 65.0206 289.192C67.3406 289.192 69.1966 287.576 69.1966 285.16C69.1966 282.744 67.3406 281.128 65.0206 281.128C62.7006 281.128 60.8446 282.744 60.8446 285.16ZM62.7646 285.16C62.7646 283.96 63.6126 282.856 65.0206 282.856C66.4286 282.856 67.2766 283.96 67.2766 285.16C67.2766 286.36 66.4286 287.464 65.0206 287.464C63.6126 287.464 62.7646 286.36 62.7646 285.16ZM70.9943 289H72.9143V284.808C72.9143 283.784 73.4103 282.856 74.6743 282.856C76.0183 282.856 76.0823 284.264 76.0823 285.112V289H78.0023V284.152C78.0023 282.584 77.2663 281.128 75.2023 281.128C73.9223 281.128 73.2023 281.784 72.8503 282.552H72.8183V281.32H70.9943V289ZM79.9258 281.896H81.6378L82.9978 277.672H81.0458L79.9258 281.896ZM85.3229 282.952V286.472C85.3229 288.28 85.8029 289.192 87.8349 289.192C88.2829 289.192 88.9549 289.128 89.3549 288.936V287.32C89.1149 287.496 88.6509 287.56 88.3149 287.56C87.4669 287.56 87.2429 287.08 87.2429 286.312V282.952H89.3549V281.32H87.2429V279.096H85.3229V281.32H83.7389V282.952H85.3229ZM90.8536 287.88C90.8536 288.568 91.4616 289.096 92.1336 289.096C92.8376 289.096 93.4136 288.536 93.4136 287.848C93.4136 287.16 92.8216 286.632 92.1336 286.632C91.4296 286.632 90.8536 287.192 90.8536 287.88ZM90.8536 282.456C90.8536 283.144 91.4616 283.672 92.1336 283.672C92.8376 283.672 93.4136 283.112 93.4136 282.424C93.4136 281.736 92.8216 281.208 92.1336 281.208C91.4296 281.208 90.8536 281.768 90.8536 282.456Z" fill="#333333"/>
<path d="M112.904 277.672H111.56V284.488C111.56 286.312 110.888 288.04 108.632 288.04C106.376 288.04 105.704 286.312 105.704 284.488V277.672H104.36V284.68C104.36 287.144 105.512 289.288 108.632 289.288C111.752 289.288 112.904 287.144 112.904 284.68V277.672ZM114.618 287.8C115.354 288.856 116.266 289.192 117.53 289.192C119.018 289.192 120.522 288.536 120.522 286.84C120.522 285.336 119.402 284.856 118.074 284.6C117.082 284.408 116.186 284.136 116.186 283.512C116.186 282.808 116.97 282.472 117.658 282.472C118.394 282.472 118.922 282.84 119.242 283.368L120.282 282.68C119.77 281.72 118.794 281.32 117.738 281.32C116.346 281.32 114.938 282.072 114.938 283.528C114.938 285.08 116.154 285.384 117.578 285.704C118.378 285.88 119.178 286.088 119.178 286.888C119.178 287.704 118.314 288.04 117.53 288.04C116.65 288.04 116.106 287.64 115.61 287.032L114.618 287.8ZM128.006 286.904C127.414 287.656 126.694 288.04 125.622 288.04C124.262 288.04 123.27 286.936 123.174 285.64H129.222V285.24C129.222 282.76 127.782 281.32 125.67 281.32C123.462 281.32 121.83 282.936 121.83 285.256C121.83 287.432 123.27 289.192 125.622 289.192C127.014 289.192 128.07 288.776 128.95 287.64L128.006 286.904ZM123.174 284.584C123.334 283.32 124.246 282.472 125.622 282.472C126.998 282.472 127.83 283.32 127.878 284.584H123.174ZM135.718 289H136.966V276.904H135.718V289ZM139.562 289H140.81V281.512H139.562V289ZM139.274 278.584C139.274 279.112 139.658 279.496 140.186 279.496C140.714 279.496 141.098 279.112 141.098 278.584C141.098 278.088 140.698 277.672 140.186 277.672C139.674 277.672 139.274 278.088 139.274 278.584ZM142.461 287.8C143.197 288.856 144.109 289.192 145.373 289.192C146.861 289.192 148.365 288.536 148.365 286.84C148.365 285.336 147.245 284.856 145.917 284.6C144.925 284.408 144.029 284.136 144.029 283.512C144.029 282.808 144.813 282.472 145.501 282.472C146.237 282.472 146.765 282.84 147.085 283.368L148.125 282.68C147.613 281.72 146.637 281.32 145.581 281.32C144.189 281.32 142.781 282.072 142.781 283.528C142.781 285.08 143.997 285.384 145.421 285.704C146.221 285.88 147.021 286.088 147.021 286.888C147.021 287.704 146.157 288.04 145.373 288.04C144.493 288.04 143.949 287.64 143.453 287.032L142.461 287.8ZM154.202 281.512H151.994V279.384H150.746V281.512H149.114V282.568H150.746V286.68C150.746 288.232 151.034 289.192 152.81 289.192C153.274 289.192 153.834 289.112 154.266 288.92L154.218 287.784C153.882 287.96 153.482 288.04 153.114 288.04C152.01 288.04 151.994 287.272 151.994 286.312V282.568H154.202V281.512ZM155.667 289H156.915V287.672H156.947C157.411 288.52 158.483 289.192 159.827 289.192C161.923 289.192 163.571 287.496 163.571 285.256C163.571 282.984 161.987 281.32 159.635 281.32C158.547 281.32 157.635 281.8 156.947 282.6H156.915V276.904H155.667V289ZM156.915 285.256C156.915 283.688 157.955 282.472 159.571 282.472C161.187 282.472 162.227 283.688 162.227 285.256C162.227 286.824 161.187 288.04 159.571 288.04C157.955 288.04 156.915 286.824 156.915 285.256ZM165.08 285.256C165.08 287.592 166.776 289.192 169.08 289.192C171.384 289.192 173.08 287.592 173.08 285.256C173.08 282.92 171.384 281.32 169.08 281.32C166.776 281.32 165.08 282.92 165.08 285.256ZM166.424 285.256C166.424 283.688 167.464 282.472 169.08 282.472C170.696 282.472 171.736 283.688 171.736 285.256C171.736 286.824 170.696 288.04 169.08 288.04C167.464 288.04 166.424 286.824 166.424 285.256ZM173.876 289H175.428L177.764 285.768L180.132 289H181.78L178.692 284.968L181.268 281.512H179.748L177.876 284.2L175.892 281.512H174.26L176.948 284.968L173.876 289ZM187.577 289H188.825V281.512H187.577V289ZM187.289 278.584C187.289 279.112 187.673 279.496 188.201 279.496C188.729 279.496 189.113 279.112 189.113 278.584C189.113 278.088 188.713 277.672 188.201 277.672C187.689 277.672 187.289 278.088 187.289 278.584ZM191.949 289H193.197V282.568H195.021V281.512H193.197V280.104C193.197 278.808 193.245 277.864 194.541 277.864C194.829 277.864 195.117 277.928 195.389 278.024L195.565 276.904C195.325 276.776 194.925 276.712 194.605 276.712C192.589 276.712 191.949 278.008 191.949 279.832V281.512H190.317V282.568H191.949V289ZM204.905 281.512H202.697V279.384H201.449V281.512H199.817V282.568H201.449V286.68C201.449 288.232 201.737 289.192 203.513 289.192C203.977 289.192 204.537 289.112 204.969 288.92L204.921 287.784C204.585 287.96 204.185 288.04 203.817 288.04C202.713 288.04 202.697 287.272 202.697 286.312V282.568H204.905V281.512ZM206.434 289H207.682V285.352C207.682 283.64 208.386 282.472 210.002 282.472C211.17 282.472 211.714 283.256 211.714 284.504V289H212.962V284.376C212.962 282.568 212.082 281.32 210.114 281.32C208.946 281.32 208.05 281.96 207.714 282.552H207.682V276.904H206.434V289ZM221.069 286.904C220.477 287.656 219.757 288.04 218.685 288.04C217.325 288.04 216.333 286.936 216.237 285.64H222.285V285.24C222.285 282.76 220.845 281.32 218.733 281.32C216.525 281.32 214.893 282.936 214.893 285.256C214.893 287.432 216.333 289.192 218.685 289.192C220.077 289.192 221.133 288.776 222.013 287.64L221.069 286.904ZM216.237 284.584C216.397 283.32 217.309 282.472 218.685 282.472C220.061 282.472 220.893 283.32 220.941 284.584H216.237ZM224.215 289H225.463V285.352C225.463 283.64 226.135 282.568 227.655 282.568C227.879 282.568 228.119 282.6 228.327 282.664L228.407 281.4C228.231 281.336 228.055 281.32 227.895 281.32C226.663 281.32 225.735 282.008 225.399 282.744H225.367C225.367 282.328 225.335 281.912 225.335 281.512H224.151C224.151 282.008 224.215 282.6 224.215 283.288V289ZM235.303 286.904C234.711 287.656 233.991 288.04 232.919 288.04C231.559 288.04 230.567 286.936 230.471 285.64H236.519V285.24C236.519 282.76 235.079 281.32 232.967 281.32C230.759 281.32 229.127 282.936 229.127 285.256C229.127 287.432 230.567 289.192 232.919 289.192C234.311 289.192 235.367 288.776 236.247 287.64L235.303 286.904ZM230.471 284.584C230.631 283.32 231.543 282.472 232.919 282.472C234.295 282.472 235.127 283.32 235.175 284.584H230.471ZM243.591 283.288C244.183 282.744 245.015 282.472 245.815 282.472C246.983 282.472 247.671 283.032 247.671 284.12V284.344H247.191C245.351 284.344 242.471 284.488 242.471 286.968C242.471 288.424 243.735 289.192 245.255 289.192C246.391 289.192 247.223 288.648 247.719 287.88H247.751C247.751 288.2 247.751 288.664 247.831 289H249.031C248.967 288.616 248.919 288.136 248.919 287.704V284.488C248.919 282.376 247.991 281.32 245.783 281.32C244.695 281.32 243.575 281.688 242.807 282.472L243.591 283.288ZM247.671 285.4V285.88C247.639 287.096 246.903 288.136 245.463 288.136C244.519 288.136 243.815 287.784 243.815 286.84C243.815 285.832 244.839 285.4 246.423 285.4H247.671ZM251.2 289H252.448V285.352C252.448 283.64 253.12 282.568 254.64 282.568C254.864 282.568 255.104 282.6 255.312 282.664L255.392 281.4C255.216 281.336 255.04 281.32 254.88 281.32C253.648 281.32 252.72 282.008 252.384 282.744H252.352C252.352 282.328 252.32 281.912 252.32 281.512H251.136C251.136 282.008 251.2 282.6 251.2 283.288V289ZM262.287 286.904C261.695 287.656 260.975 288.04 259.903 288.04C258.543 288.04 257.551 286.936 257.455 285.64H263.503V285.24C263.503 282.76 262.063 281.32 259.951 281.32C257.743 281.32 256.111 282.936 256.111 285.256C256.111 287.432 257.551 289.192 259.903 289.192C261.295 289.192 262.351 288.776 263.231 287.64L262.287 286.904ZM257.455 284.584C257.615 283.32 258.527 282.472 259.903 282.472C261.279 282.472 262.111 283.32 262.159 284.584H257.455ZM269.999 289H271.247V276.904H269.999V289ZM279.475 286.904C278.883 287.656 278.163 288.04 277.091 288.04C275.731 288.04 274.739 286.936 274.643 285.64H280.691V285.24C280.691 282.76 279.251 281.32 277.139 281.32C274.931 281.32 273.299 282.936 273.299 285.256C273.299 287.432 274.739 289.192 277.091 289.192C278.483 289.192 279.539 288.776 280.419 287.64L279.475 286.904ZM274.643 284.584C274.803 283.32 275.715 282.472 277.091 282.472C278.467 282.472 279.299 283.32 279.347 284.584H274.643ZM281.79 287.8C282.526 288.856 283.438 289.192 284.702 289.192C286.19 289.192 287.694 288.536 287.694 286.84C287.694 285.336 286.574 284.856 285.246 284.6C284.254 284.408 283.358 284.136 283.358 283.512C283.358 282.808 284.142 282.472 284.83 282.472C285.566 282.472 286.094 282.84 286.414 283.368L287.454 282.68C286.942 281.72 285.966 281.32 284.91 281.32C283.518 281.32 282.11 282.072 282.11 283.528C282.11 285.08 283.326 285.384 284.75 285.704C285.549 285.88 286.35 286.088 286.35 286.888C286.35 287.704 285.486 288.04 284.702 288.04C283.822 288.04 283.278 287.64 282.782 287.032L281.79 287.8ZM288.602 287.8C289.338 288.856 290.25 289.192 291.514 289.192C293.002 289.192 294.506 288.536 294.506 286.84C294.506 285.336 293.386 284.856 292.058 284.6C291.066 284.408 290.17 284.136 290.17 283.512C290.17 282.808 290.954 282.472 291.642 282.472C292.378 282.472 292.906 282.84 293.226 283.368L294.266 282.68C293.754 281.72 292.778 281.32 291.722 281.32C290.33 281.32 288.922 282.072 288.922 283.528C288.922 285.08 290.138 285.384 291.562 285.704C292.362 285.88 293.162 286.088 293.162 286.888C293.162 287.704 292.298 288.04 291.514 288.04C290.634 288.04 290.09 287.64 289.594 287.032L288.602 287.8ZM304.796 281.512H302.588V279.384H301.34V281.512H299.708V282.568H301.34V286.68C301.34 288.232 301.628 289.192 303.404 289.192C303.868 289.192 304.428 289.112 304.86 288.92L304.812 287.784C304.476 287.96 304.076 288.04 303.708 288.04C302.604 288.04 302.588 287.272 302.588 286.312V282.568H304.796V281.512ZM306.325 289H307.573V285.352C307.573 283.64 308.277 282.472 309.893 282.472C311.061 282.472 311.605 283.256 311.605 284.504V289H312.853V284.376C312.853 282.568 311.973 281.32 310.005 281.32C308.837 281.32 307.941 281.96 307.605 282.552H307.573V276.904H306.325V289ZM315.903 283.288C316.495 282.744 317.327 282.472 318.127 282.472C319.295 282.472 319.983 283.032 319.983 284.12V284.344H319.503C317.663 284.344 314.783 284.488 314.783 286.968C314.783 288.424 316.047 289.192 317.567 289.192C318.703 289.192 319.535 288.648 320.031 287.88H320.063C320.063 288.2 320.063 288.664 320.143 289H321.343C321.279 288.616 321.231 288.136 321.231 287.704V284.488C321.231 282.376 320.303 281.32 318.095 281.32C317.007 281.32 315.887 281.688 315.119 282.472L315.903 283.288ZM319.983 285.4V285.88C319.951 287.096 319.215 288.136 317.775 288.136C316.831 288.136 316.127 287.784 316.127 286.84C316.127 285.832 317.151 285.4 318.735 285.4H319.983ZM323.512 289H324.76V285.352C324.76 283.64 325.464 282.472 327.08 282.472C328.248 282.472 328.792 283.256 328.792 284.504V289H330.04V284.376C330.04 282.568 329.16 281.32 327.192 281.32C325.96 281.32 325.032 282.008 324.696 282.744H324.664C324.664 282.328 324.632 281.912 324.632 281.512H323.448C323.448 282.008 323.512 282.6 323.512 283.288V289ZM343.256 277.672H337.32L337.208 283.56C337.88 283.16 338.744 282.856 339.512 282.856C341.096 282.856 342.312 283.768 342.312 285.432C342.312 287 341.24 288.04 339.88 288.04C338.92 288.04 338.152 287.464 337.768 286.616L336.424 287.128C337.032 288.376 338.056 289.192 339.768 289.192C341.976 289.192 343.656 287.688 343.656 285.432C343.656 283.304 342.216 281.704 340.04 281.704C339.576 281.704 339.016 281.768 338.584 281.976L338.632 278.92H343.256V277.672ZM103.752 309.256C103.752 311.592 105.448 313.192 107.752 313.192C110.056 313.192 111.752 311.592 111.752 309.256C111.752 306.92 110.056 305.32 107.752 305.32C105.448 305.32 103.752 306.92 103.752 309.256ZM105.096 309.256C105.096 307.688 106.136 306.472 107.752 306.472C109.368 306.472 110.408 307.688 110.408 309.256C110.408 310.824 109.368 312.04 107.752 312.04C106.136 312.04 105.096 310.824 105.096 309.256ZM113.62 316.648H114.868V311.672H114.9C115.364 312.52 116.436 313.192 117.78 313.192C119.876 313.192 121.524 311.496 121.524 309.256C121.524 306.984 119.94 305.32 117.588 305.32C116.5 305.32 115.588 305.8 114.9 306.6H114.868V305.512H113.62V316.648ZM114.868 309.256C114.868 307.688 115.908 306.472 117.524 306.472C119.14 306.472 120.18 307.688 120.18 309.256C120.18 310.824 119.14 312.04 117.524 312.04C115.908 312.04 114.868 310.824 114.868 309.256ZM127.561 305.512H125.353V303.384H124.105V305.512H122.473V306.568H124.105V310.68C124.105 312.232 124.393 313.192 126.169 313.192C126.633 313.192 127.193 313.112 127.625 312.92L127.577 311.784C127.241 311.96 126.841 312.04 126.473 312.04C125.369 312.04 125.353 311.272 125.353 310.312V306.568H127.561V305.512ZM129.202 313H130.45V305.512H129.202V313ZM128.914 302.584C128.914 303.112 129.298 303.496 129.826 303.496C130.354 303.496 130.738 303.112 130.738 302.584C130.738 302.088 130.338 301.672 129.826 301.672C129.314 301.672 128.914 302.088 128.914 302.584ZM132.502 309.256C132.502 311.592 134.198 313.192 136.502 313.192C138.806 313.192 140.502 311.592 140.502 309.256C140.502 306.92 138.806 305.32 136.502 305.32C134.198 305.32 132.502 306.92 132.502 309.256ZM133.846 309.256C133.846 307.688 134.886 306.472 136.502 306.472C138.118 306.472 139.158 307.688 139.158 309.256C139.158 310.824 138.118 312.04 136.502 312.04C134.886 312.04 133.846 310.824 133.846 309.256ZM142.434 313H143.682V309.352C143.682 307.64 144.386 306.472 146.002 306.472C147.17 306.472 147.714 307.256 147.714 308.504V313H148.962V308.376C148.962 306.568 148.082 305.32 146.114 305.32C144.882 305.32 143.954 306.008 143.618 306.744H143.586C143.586 306.328 143.554 305.912 143.554 305.512H142.37C142.37 306.008 142.434 306.6 142.434 307.288V313ZM150.493 311.8C151.229 312.856 152.141 313.192 153.405 313.192C154.893 313.192 156.397 312.536 156.397 310.84C156.397 309.336 155.277 308.856 153.949 308.6C152.957 308.408 152.061 308.136 152.061 307.512C152.061 306.808 152.845 306.472 153.533 306.472C154.269 306.472 154.797 306.84 155.117 307.368L156.157 306.68C155.645 305.72 154.669 305.32 153.613 305.32C152.221 305.32 150.813 306.072 150.813 307.528C150.813 309.08 152.029 309.384 153.453 309.704C154.253 309.88 155.053 310.088 155.053 310.888C155.053 311.704 154.189 312.04 153.405 312.04C152.525 312.04 151.981 311.64 151.485 311.032L150.493 311.8Z" fill="#333333"/>
<g clip-path="url(#clip3_171_30765)">
<path d="M427.408 34H428.752V28.912H431.024C432.624 28.912 434.736 28.256 434.736 25.776C434.736 23.408 432.848 22.672 430.768 22.672H427.408V34ZM428.752 23.92H431.024C432.368 23.92 433.296 24.528 433.296 25.792C433.296 27.056 432.368 27.664 431.024 27.664H428.752V23.92ZM436.78 34H438.028V21.904H436.78V34ZM441.2 28.288C441.792 27.744 442.624 27.472 443.424 27.472C444.592 27.472 445.28 28.032 445.28 29.12V29.344H444.8C442.96 29.344 440.08 29.488 440.08 31.968C440.08 33.424 441.344 34.192 442.864 34.192C444 34.192 444.832 33.648 445.328 32.88H445.36C445.36 33.2 445.36 33.664 445.44 34H446.64C446.576 33.616 446.528 33.136 446.528 32.704V29.488C446.528 27.376 445.6 26.32 443.392 26.32C442.304 26.32 441.184 26.688 440.416 27.472L441.2 28.288ZM445.28 30.4V30.88C445.248 32.096 444.512 33.136 443.072 33.136C442.128 33.136 441.424 32.784 441.424 31.84C441.424 30.832 442.448 30.4 444.032 30.4H445.28ZM448.809 34H450.057V30.352C450.057 28.64 450.761 27.472 452.377 27.472C453.545 27.472 454.089 28.256 454.089 29.504V34H455.337V29.376C455.337 27.568 454.457 26.32 452.489 26.32C451.257 26.32 450.329 27.008 449.993 27.744H449.961C449.961 27.328 449.929 26.912 449.929 26.512H448.745C448.745 27.008 448.809 27.6 448.809 28.288V34ZM461.796 26.512H459.588V24.384H458.34V26.512H456.708V27.568H458.34V31.68C458.34 33.232 458.628 34.192 460.404 34.192C460.868 34.192 461.428 34.112 461.86 33.92L461.812 32.784C461.476 32.96 461.076 33.04 460.708 33.04C459.604 33.04 459.588 32.272 459.588 31.312V27.568H461.796V26.512Z" fill="#333333"/>
<path opacity="0.8" d="M471.384 20.672H470.04V22.944L467.864 22.192L467.448 23.472L469.64 24.224L468.264 26.032L469.336 26.848L470.68 25.008L472.056 26.896L473.16 26.096L471.784 24.224L473.96 23.52L473.544 22.24L471.384 22.944V20.672Z" fill="#DB3259"/>
</g>
<rect x="426" y="48" width="20" height="20" rx="10" fill="#EDE9ED"/>
<circle cx="436" cy="58" r="9.5" stroke="#6C3078"/>
<circle cx="436" cy="58" r="5" fill="#6C3078"/>
<path d="M460.902 52.498C460.174 51.644 459.236 51.336 458.13 51.336C456.394 51.336 454.756 52.288 454.756 54.192C454.756 55.844 455.82 56.46 457.22 56.922C458.984 57.51 459.81 57.72 459.81 58.938C459.81 60.072 458.662 60.66 457.654 60.66C456.8 60.66 455.96 60.282 455.54 59.554L454.532 60.38C455.204 61.374 456.436 61.752 457.584 61.752C459.376 61.752 461.07 60.828 461.07 58.854C461.07 56.908 459.642 56.404 458.102 55.914C456.52 55.41 456.016 55.004 456.016 54.094C456.016 52.918 457.094 52.428 458.13 52.428C458.844 52.428 459.544 52.708 459.936 53.338L460.902 52.498ZM468.387 54.948H467.197L465.251 60.086H465.223L463.193 54.948H461.919L464.635 61.542L464.187 62.774C463.949 63.418 463.683 63.852 462.969 63.852C462.661 63.852 462.423 63.824 462.199 63.74L462.059 64.692C462.353 64.832 462.731 64.86 463.039 64.86C464.355 64.86 464.789 64.104 465.223 62.998L468.387 54.948ZM475.015 61.5H476.107V50.916H475.015V55.9H474.987C474.385 55.2 473.587 54.78 472.635 54.78C470.577 54.78 469.191 56.236 469.191 58.224C469.191 60.184 470.633 61.668 472.467 61.668C473.643 61.668 474.581 61.08 474.987 60.338H475.015V61.5ZM475.015 58.224C475.015 59.596 474.105 60.66 472.691 60.66C471.277 60.66 470.367 59.596 470.367 58.224C470.367 56.852 471.277 55.788 472.691 55.788C474.105 55.788 475.015 56.852 475.015 58.224ZM478.128 61.5H479.22V58.308C479.22 56.81 479.836 55.788 481.25 55.788C482.272 55.788 482.748 56.474 482.748 57.566V61.5H483.84V57.454C483.84 55.872 483.07 54.78 481.348 54.78C480.27 54.78 479.458 55.382 479.164 56.026H479.136C479.136 55.662 479.108 55.298 479.108 54.948H478.072C478.072 55.382 478.128 55.9 478.128 56.502V61.5ZM490.933 59.666C490.415 60.324 489.785 60.66 488.847 60.66C487.657 60.66 486.789 59.694 486.705 58.56H491.997V58.21C491.997 56.04 490.737 54.78 488.889 54.78C486.957 54.78 485.529 56.194 485.529 58.224C485.529 60.128 486.789 61.668 488.847 61.668C490.065 61.668 490.989 61.304 491.759 60.31L490.933 59.666ZM486.705 57.636C486.845 56.53 487.643 55.788 488.847 55.788C490.051 55.788 490.779 56.53 490.821 57.636H486.705ZM499.258 54.948H498.068L496.122 60.086H496.094L494.064 54.948H492.79L495.506 61.542L495.058 62.774C494.82 63.418 494.554 63.852 493.84 63.852C493.532 63.852 493.294 63.824 493.07 63.74L492.93 64.692C493.224 64.832 493.602 64.86 493.91 64.86C495.226 64.86 495.66 64.104 496.094 62.998L499.258 54.948Z" fill="#333333"/>
<circle cx="436" cy="86" r="9.5" fill="white" stroke="#9EA6B5"/>
<path d="M455.232 89.5H456.408V81.184H456.436L459.992 89.5H460.706L464.262 81.184H464.29V89.5H465.466V79.588H463.758L460.37 87.358H460.342L456.982 79.588H455.232V89.5ZM472.763 87.666C472.245 88.324 471.615 88.66 470.677 88.66C469.487 88.66 468.619 87.694 468.535 86.56H473.827V86.21C473.827 84.04 472.567 82.78 470.719 82.78C468.787 82.78 467.359 84.194 467.359 86.224C467.359 88.128 468.619 89.668 470.677 89.668C471.895 89.668 472.819 89.304 473.589 88.31L472.763 87.666ZM468.535 85.636C468.675 84.53 469.473 83.788 470.677 83.788C471.881 83.788 472.609 84.53 472.651 85.636H468.535ZM475.614 89.5H476.706V78.916H475.614V89.5ZM478.824 89.5H479.916V88.338H479.944C480.35 89.08 481.288 89.668 482.464 89.668C484.298 89.668 485.74 88.184 485.74 86.224C485.74 84.236 484.354 82.78 482.296 82.78C481.344 82.78 480.546 83.2 479.944 83.9H479.916V78.916H478.824V89.5ZM479.916 86.224C479.916 84.852 480.826 83.788 482.24 83.788C483.654 83.788 484.564 84.852 484.564 86.224C484.564 87.596 483.654 88.66 482.24 88.66C480.826 88.66 479.916 87.596 479.916 86.224ZM487.06 86.224C487.06 88.268 488.544 89.668 490.56 89.668C492.576 89.668 494.06 88.268 494.06 86.224C494.06 84.18 492.576 82.78 490.56 82.78C488.544 82.78 487.06 84.18 487.06 86.224ZM488.236 86.224C488.236 84.852 489.146 83.788 490.56 83.788C491.974 83.788 492.884 84.852 492.884 86.224C492.884 87.596 491.974 88.66 490.56 88.66C489.146 88.66 488.236 87.596 488.236 86.224ZM501.463 82.948H500.371V86.14C500.371 87.638 499.755 88.66 498.341 88.66C497.319 88.66 496.843 87.974 496.843 86.882V82.948H495.751V86.994C495.751 88.576 496.521 89.668 498.243 89.668C499.321 89.668 500.133 89.066 500.427 88.422H500.455C500.455 88.786 500.483 89.15 500.483 89.5H501.519C501.519 89.066 501.463 88.548 501.463 87.946V82.948ZM503.53 89.5H504.622V86.308C504.622 84.81 505.21 83.872 506.54 83.872C506.736 83.872 506.946 83.9 507.128 83.956L507.198 82.85C507.044 82.794 506.89 82.78 506.75 82.78C505.672 82.78 504.86 83.382 504.566 84.026H504.538C504.538 83.662 504.51 83.298 504.51 82.948H503.474C503.474 83.382 503.53 83.9 503.53 84.502V89.5ZM508.452 89.5H509.544V86.308C509.544 84.81 510.16 83.788 511.574 83.788C512.596 83.788 513.072 84.474 513.072 85.566V89.5H514.164V85.454C514.164 83.872 513.394 82.78 511.672 82.78C510.594 82.78 509.782 83.382 509.488 84.026H509.46C509.46 83.662 509.432 83.298 509.432 82.948H508.396C508.396 83.382 508.452 83.9 508.452 84.502V89.5ZM521.257 87.666C520.739 88.324 520.109 88.66 519.171 88.66C517.981 88.66 517.113 87.694 517.029 86.56H522.321V86.21C522.321 84.04 521.061 82.78 519.213 82.78C517.281 82.78 515.853 84.194 515.853 86.224C515.853 88.128 517.113 89.668 519.171 89.668C520.389 89.668 521.313 89.304 522.083 88.31L521.257 87.666ZM517.029 85.636C517.169 84.53 517.967 83.788 519.171 83.788C520.375 83.788 521.103 84.53 521.145 85.636H517.029Z" fill="#333333"/>
<circle cx="436" cy="114" r="9.5" fill="white" stroke="#9EA6B5"/>
<path d="M455.232 117.5H458.186C460.02 117.5 462.05 116.912 462.05 114.728C462.05 113.426 461.084 112.404 459.81 112.292V112.264C460.874 111.942 461.546 111.172 461.546 110.024C461.546 108.204 459.894 107.588 458.256 107.588H455.232V117.5ZM456.408 108.68H458.158C459.222 108.68 460.286 108.96 460.286 110.178C460.286 111.55 459.138 111.788 458.032 111.788H456.408V108.68ZM456.408 112.88H458.424C459.614 112.88 460.79 113.3 460.79 114.686C460.79 115.946 459.544 116.408 458.396 116.408H456.408V112.88ZM463.854 117.5H464.946V114.308C464.946 112.81 465.534 111.872 466.864 111.872C467.06 111.872 467.27 111.9 467.452 111.956L467.522 110.85C467.368 110.794 467.214 110.78 467.074 110.78C465.996 110.78 465.184 111.382 464.89 112.026H464.862C464.862 111.662 464.834 111.298 464.834 110.948H463.798C463.798 111.382 463.854 111.9 463.854 112.502V117.5ZM468.874 117.5H469.966V110.948H468.874V117.5ZM468.622 108.386C468.622 108.848 468.958 109.184 469.42 109.184C469.882 109.184 470.218 108.848 470.218 108.386C470.218 107.952 469.868 107.588 469.42 107.588C468.972 107.588 468.622 107.952 468.622 108.386ZM471.412 116.45C472.056 117.374 472.854 117.668 473.96 117.668C475.262 117.668 476.578 117.094 476.578 115.61C476.578 114.294 475.598 113.874 474.436 113.65C473.568 113.482 472.784 113.244 472.784 112.698C472.784 112.082 473.47 111.788 474.072 111.788C474.716 111.788 475.178 112.11 475.458 112.572L476.368 111.97C475.92 111.13 475.066 110.78 474.142 110.78C472.924 110.78 471.692 111.438 471.692 112.712C471.692 114.07 472.756 114.336 474.002 114.616C474.702 114.77 475.402 114.952 475.402 115.652C475.402 116.366 474.646 116.66 473.96 116.66C473.19 116.66 472.714 116.31 472.28 115.778L471.412 116.45ZM478.044 117.5H479.136V116.338H479.164C479.57 117.08 480.508 117.668 481.684 117.668C483.518 117.668 484.96 116.184 484.96 114.224C484.96 112.236 483.574 110.78 481.516 110.78C480.564 110.78 479.766 111.2 479.164 111.9H479.136V106.916H478.044V117.5ZM479.136 114.224C479.136 112.852 480.046 111.788 481.46 111.788C482.874 111.788 483.784 112.852 483.784 114.224C483.784 115.596 482.874 116.66 481.46 116.66C480.046 116.66 479.136 115.596 479.136 114.224ZM487.261 112.502C487.779 112.026 488.507 111.788 489.207 111.788C490.229 111.788 490.831 112.278 490.831 113.23V113.426H490.411C488.801 113.426 486.281 113.552 486.281 115.722C486.281 116.996 487.387 117.668 488.717 117.668C489.711 117.668 490.439 117.192 490.873 116.52H490.901C490.901 116.8 490.901 117.206 490.971 117.5H492.021C491.965 117.164 491.923 116.744 491.923 116.366V113.552C491.923 111.704 491.111 110.78 489.179 110.78C488.227 110.78 487.247 111.102 486.575 111.788L487.261 112.502ZM490.831 114.35V114.77C490.803 115.834 490.159 116.744 488.899 116.744C488.073 116.744 487.457 116.436 487.457 115.61C487.457 114.728 488.353 114.35 489.739 114.35H490.831ZM493.919 117.5H495.011V114.308C495.011 112.81 495.627 111.788 497.041 111.788C498.063 111.788 498.539 112.474 498.539 113.566V117.5H499.631V113.454C499.631 111.872 498.861 110.78 497.139 110.78C496.061 110.78 495.249 111.382 494.955 112.026H494.927C494.927 111.662 494.899 111.298 494.899 110.948H493.863C493.863 111.382 493.919 111.9 493.919 112.502V117.5ZM506.724 115.666C506.206 116.324 505.576 116.66 504.638 116.66C503.448 116.66 502.58 115.694 502.496 114.56H507.788V114.21C507.788 112.04 506.528 110.78 504.68 110.78C502.748 110.78 501.32 112.194 501.32 114.224C501.32 116.128 502.58 117.668 504.638 117.668C505.856 117.668 506.78 117.304 507.55 116.31L506.724 115.666ZM502.496 113.636C502.636 112.53 503.434 111.788 504.638 111.788C505.842 111.788 506.57 112.53 506.612 113.636H502.496Z" fill="#333333"/>
<circle cx="436" cy="142" r="9.5" fill="white" stroke="#9EA6B5"/>
<path d="M455.232 145.5H456.408V141.048H458.396C459.796 141.048 461.644 140.474 461.644 138.304C461.644 136.232 459.992 135.588 458.172 135.588H455.232V145.5ZM456.408 136.68H458.396C459.572 136.68 460.384 137.212 460.384 138.318C460.384 139.424 459.572 139.956 458.396 139.956H456.408V136.68ZM468.361 143.666C467.843 144.324 467.213 144.66 466.275 144.66C465.085 144.66 464.217 143.694 464.133 142.56H469.425V142.21C469.425 140.04 468.165 138.78 466.317 138.78C464.385 138.78 462.957 140.194 462.957 142.224C462.957 144.128 464.217 145.668 466.275 145.668C467.493 145.668 468.417 145.304 469.187 144.31L468.361 143.666ZM464.133 141.636C464.273 140.53 465.071 139.788 466.275 139.788C467.479 139.788 468.207 140.53 468.249 141.636H464.133ZM471.114 145.5H472.206V142.308C472.206 140.81 472.794 139.872 474.124 139.872C474.32 139.872 474.53 139.9 474.712 139.956L474.782 138.85C474.628 138.794 474.474 138.78 474.334 138.78C473.256 138.78 472.444 139.382 472.15 140.026H472.122C472.122 139.662 472.094 139.298 472.094 138.948H471.058C471.058 139.382 471.114 139.9 471.114 140.502V145.5ZM479.62 138.948H477.688V137.086H476.596V138.948H475.168V139.872H476.596V143.47C476.596 144.828 476.848 145.668 478.402 145.668C478.808 145.668 479.298 145.598 479.676 145.43L479.634 144.436C479.34 144.59 478.99 144.66 478.668 144.66C477.702 144.66 477.688 143.988 477.688 143.148V139.872H479.62V138.948ZM480.958 145.5H482.05V142.308C482.05 140.81 482.666 139.788 484.08 139.788C485.102 139.788 485.578 140.474 485.578 141.566V145.5H486.67V141.454C486.67 139.872 485.9 138.78 484.178 138.78C483.156 138.78 482.372 139.34 482.078 139.858H482.05V134.916H480.958V145.5Z" fill="#333333"/>
<rect x="507" y="16" width="16" height="16" rx="8" fill="#467822"/>
<path d="M514 26.1668C513.871 26.157 513.752 26.0972 513.666 26.0002L511.666 24.0002C511.622 23.9068 511.607 23.802 511.625 23.7001C511.642 23.5982 511.691 23.5042 511.764 23.4311C511.837 23.358 511.931 23.3094 512.033 23.2919C512.135 23.2744 512.24 23.2889 512.333 23.3335L513.98 24.9802L519.666 19.3335C519.76 19.2889 519.865 19.2744 519.967 19.2919C520.068 19.3094 520.162 19.358 520.236 19.4311C520.309 19.5042 520.357 19.5982 520.375 19.7001C520.392 19.802 520.378 19.9068 520.333 20.0002L514.333 26.0002C514.248 26.0972 514.128 26.157 514 26.1668V26.1668Z" fill="white"/>
<path d="M515 30.0001C513.928 29.9983 512.875 29.7092 511.953 29.1629C511.03 28.6165 510.271 27.8328 509.753 26.8934C509.36 26.1934 509.117 25.4192 509.04 24.6201C508.918 23.4481 509.144 22.2662 509.689 21.2217C510.235 20.1772 511.075 19.3164 512.107 18.7467C512.807 18.3536 513.581 18.1107 514.38 18.0334C515.176 17.9478 515.981 18.0249 516.747 18.2601C516.815 18.2737 516.88 18.3015 516.937 18.3416C516.994 18.3817 517.042 18.4333 517.077 18.493C517.113 18.5527 517.136 18.6192 517.145 18.6884C517.154 18.7575 517.148 18.8276 517.128 18.8943C517.108 18.9611 517.074 19.0228 517.028 19.0757C516.983 19.1286 516.927 19.1715 516.864 19.2015C516.802 19.2315 516.733 19.2481 516.663 19.2502C516.594 19.2522 516.525 19.2397 516.46 19.2134C515.812 19.0187 515.133 18.9552 514.46 19.0267C513.795 19.0948 513.151 19.2966 512.567 19.6201C512.003 19.9308 511.506 20.3473 511.1 20.8467C510.683 21.3555 510.371 21.9424 510.183 22.5732C509.995 23.204 509.935 23.8658 510.007 24.5201C510.075 25.1847 510.277 25.8288 510.6 26.4134C510.911 26.9766 511.327 27.4746 511.827 27.8801C512.336 28.2975 512.922 28.6092 513.553 28.7969C514.184 28.9847 514.846 29.0447 515.5 28.9734C516.165 28.9053 516.809 28.7035 517.393 28.3801C517.957 28.0693 518.455 27.6528 518.86 27.1534C519.277 26.6446 519.589 26.0577 519.777 25.4269C519.965 24.7962 520.025 24.1343 519.953 23.4801C519.947 23.4113 519.954 23.342 519.974 23.276C519.994 23.21 520.027 23.1486 520.071 23.0954C520.115 23.0421 520.169 22.9981 520.23 22.9657C520.291 22.9333 520.358 22.9133 520.427 22.9067C520.495 22.9002 520.565 22.9072 520.631 22.9274C520.697 22.9477 520.758 22.9807 520.811 23.0247C520.865 23.0686 520.909 23.1226 520.941 23.1836C520.973 23.2446 520.994 23.3113 521 23.3801C521.121 24.5527 520.895 25.7351 520.348 26.7797C519.802 27.8242 518.959 28.6846 517.927 29.2534C517.219 29.6626 516.433 29.917 515.62 30.0001C515.413 30.0001 515.2 30.0001 515 30.0001Z" fill="white"/>
<rect x="414" y="4" width="121" height="160" stroke="#E6E6E6" stroke-width="8"/>
<g clip-path="url(#clip4_171_30765)">
<path d="M560.408 34H561.752V28.912H564.024C565.624 28.912 567.736 28.256 567.736 25.776C567.736 23.408 565.848 22.672 563.768 22.672H560.408V34ZM561.752 23.92H564.024C565.368 23.92 566.296 24.528 566.296 25.792C566.296 27.056 565.368 27.664 564.024 27.664H561.752V23.92ZM569.78 34H571.028V21.904H569.78V34ZM574.2 28.288C574.792 27.744 575.624 27.472 576.424 27.472C577.592 27.472 578.28 28.032 578.28 29.12V29.344H577.8C575.96 29.344 573.08 29.488 573.08 31.968C573.08 33.424 574.344 34.192 575.864 34.192C577 34.192 577.832 33.648 578.328 32.88H578.36C578.36 33.2 578.36 33.664 578.44 34H579.64C579.576 33.616 579.528 33.136 579.528 32.704V29.488C579.528 27.376 578.6 26.32 576.392 26.32C575.304 26.32 574.184 26.688 573.416 27.472L574.2 28.288ZM578.28 30.4V30.88C578.248 32.096 577.512 33.136 576.072 33.136C575.128 33.136 574.424 32.784 574.424 31.84C574.424 30.832 575.448 30.4 577.032 30.4H578.28ZM581.809 34H583.057V30.352C583.057 28.64 583.761 27.472 585.377 27.472C586.545 27.472 587.089 28.256 587.089 29.504V34H588.337V29.376C588.337 27.568 587.457 26.32 585.489 26.32C584.257 26.32 583.329 27.008 582.993 27.744H582.961C582.961 27.328 582.929 26.912 582.929 26.512H581.745C581.745 27.008 581.809 27.6 581.809 28.288V34ZM594.796 26.512H592.588V24.384H591.34V26.512H589.708V27.568H591.34V31.68C591.34 33.232 591.628 34.192 593.404 34.192C593.868 34.192 594.428 34.112 594.86 33.92L594.812 32.784C594.476 32.96 594.076 33.04 593.708 33.04C592.604 33.04 592.588 32.272 592.588 31.312V27.568H594.796V26.512Z" fill="#333333"/>
<path opacity="0.8" d="M604.384 20.672H603.04V22.944L600.864 22.192L600.448 23.472L602.64 24.224L601.264 26.032L602.336 26.848L603.68 25.008L605.056 26.896L606.16 26.096L604.784 24.224L606.96 23.52L606.544 22.24L604.384 22.944V20.672Z" fill="#DB3259"/>
</g>
<rect x="559" y="48" width="20" height="20" rx="6" fill="#EDE9ED"/>
<path d="M563 48.5H575C576.933 48.5 578.5 50.067 578.5 52V64C578.5 65.933 576.933 67.5 575 67.5H563C561.067 67.5 559.5 65.933 559.5 64V52C559.5 50.067 561.067 48.5 563 48.5Z" stroke="#6C3078"/>
<path d="M567.076 62.7728L563.176 58.8728C562.941 58.6385 562.941 58.2586 563.176 58.0243L564.024 57.1757C564.259 56.9414 564.638 56.9414 564.873 57.1757L567.5 59.8029L573.127 54.1757C573.362 53.9414 573.741 53.9414 573.976 54.1757L574.824 55.0243C575.059 55.2586 575.059 55.6385 574.824 55.8728L567.924 62.7728C567.69 63.0071 567.31 63.0071 567.076 62.7728Z" fill="#6C3078"/>
<path d="M593.902 52.498C593.174 51.644 592.236 51.336 591.13 51.336C589.394 51.336 587.756 52.288 587.756 54.192C587.756 55.844 588.82 56.46 590.22 56.922C591.984 57.51 592.81 57.72 592.81 58.938C592.81 60.072 591.662 60.66 590.654 60.66C589.8 60.66 588.96 60.282 588.54 59.554L587.532 60.38C588.204 61.374 589.436 61.752 590.584 61.752C592.376 61.752 594.07 60.828 594.07 58.854C594.07 56.908 592.642 56.404 591.102 55.914C589.52 55.41 589.016 55.004 589.016 54.094C589.016 52.918 590.094 52.428 591.13 52.428C591.844 52.428 592.544 52.708 592.936 53.338L593.902 52.498ZM601.387 54.948H600.197L598.251 60.086H598.223L596.193 54.948H594.919L597.635 61.542L597.187 62.774C596.949 63.418 596.683 63.852 595.969 63.852C595.661 63.852 595.423 63.824 595.199 63.74L595.059 64.692C595.353 64.832 595.731 64.86 596.039 64.86C597.355 64.86 597.789 64.104 598.223 62.998L601.387 54.948ZM608.015 61.5H609.107V50.916H608.015V55.9H607.987C607.385 55.2 606.587 54.78 605.635 54.78C603.577 54.78 602.191 56.236 602.191 58.224C602.191 60.184 603.633 61.668 605.467 61.668C606.643 61.668 607.581 61.08 607.987 60.338H608.015V61.5ZM608.015 58.224C608.015 59.596 607.105 60.66 605.691 60.66C604.277 60.66 603.367 59.596 603.367 58.224C603.367 56.852 604.277 55.788 605.691 55.788C607.105 55.788 608.015 56.852 608.015 58.224ZM611.128 61.5H612.22V58.308C612.22 56.81 612.836 55.788 614.25 55.788C615.272 55.788 615.748 56.474 615.748 57.566V61.5H616.84V57.454C616.84 55.872 616.07 54.78 614.348 54.78C613.27 54.78 612.458 55.382 612.164 56.026H612.136C612.136 55.662 612.108 55.298 612.108 54.948H611.072C611.072 55.382 611.128 55.9 611.128 56.502V61.5ZM623.933 59.666C623.415 60.324 622.785 60.66 621.847 60.66C620.657 60.66 619.789 59.694 619.705 58.56H624.997V58.21C624.997 56.04 623.737 54.78 621.889 54.78C619.957 54.78 618.529 56.194 618.529 58.224C618.529 60.128 619.789 61.668 621.847 61.668C623.065 61.668 623.989 61.304 624.759 60.31L623.933 59.666ZM619.705 57.636C619.845 56.53 620.643 55.788 621.847 55.788C623.051 55.788 623.779 56.53 623.821 57.636H619.705ZM632.258 54.948H631.068L629.122 60.086H629.094L627.064 54.948H625.79L628.506 61.542L628.058 62.774C627.82 63.418 627.554 63.852 626.84 63.852C626.532 63.852 626.294 63.824 626.07 63.74L625.93 64.692C626.224 64.832 626.602 64.86 626.91 64.86C628.226 64.86 628.66 64.104 629.094 62.998L632.258 54.948Z" fill="#333333"/>
<rect x="559" y="76" width="20" height="20" rx="6" fill="#EDE9ED"/>
<path d="M563 76.5H575C576.933 76.5 578.5 78.067 578.5 80V92C578.5 93.933 576.933 95.5 575 95.5H563C561.067 95.5 559.5 93.933 559.5 92V80C559.5 78.067 561.067 76.5 563 76.5Z" stroke="#6C3078"/>
<path d="M567.076 90.7728L563.176 86.8728C562.941 86.6385 562.941 86.2586 563.176 86.0243L564.024 85.1757C564.259 84.9414 564.638 84.9414 564.873 85.1757L567.5 87.8029L573.127 82.1757C573.362 81.9414 573.741 81.9414 573.976 82.1757L574.824 83.0243C575.059 83.2586 575.059 83.6385 574.824 83.8728L567.924 90.7728C567.69 91.0071 567.31 91.0071 567.076 90.7728Z" fill="#6C3078"/>
<path d="M588.232 89.5H589.408V81.184H589.436L592.992 89.5H593.706L597.262 81.184H597.29V89.5H598.466V79.588H596.758L593.37 87.358H593.342L589.982 79.588H588.232V89.5ZM605.763 87.666C605.245 88.324 604.615 88.66 603.677 88.66C602.487 88.66 601.619 87.694 601.535 86.56H606.827V86.21C606.827 84.04 605.567 82.78 603.719 82.78C601.787 82.78 600.359 84.194 600.359 86.224C600.359 88.128 601.619 89.668 603.677 89.668C604.895 89.668 605.819 89.304 606.589 88.31L605.763 87.666ZM601.535 85.636C601.675 84.53 602.473 83.788 603.677 83.788C604.881 83.788 605.609 84.53 605.651 85.636H601.535ZM608.614 89.5H609.706V78.916H608.614V89.5ZM611.824 89.5H612.916V88.338H612.944C613.35 89.08 614.288 89.668 615.464 89.668C617.298 89.668 618.74 88.184 618.74 86.224C618.74 84.236 617.354 82.78 615.296 82.78C614.344 82.78 613.546 83.2 612.944 83.9H612.916V78.916H611.824V89.5ZM612.916 86.224C612.916 84.852 613.826 83.788 615.24 83.788C616.654 83.788 617.564 84.852 617.564 86.224C617.564 87.596 616.654 88.66 615.24 88.66C613.826 88.66 612.916 87.596 612.916 86.224ZM620.06 86.224C620.06 88.268 621.544 89.668 623.56 89.668C625.576 89.668 627.06 88.268 627.06 86.224C627.06 84.18 625.576 82.78 623.56 82.78C621.544 82.78 620.06 84.18 620.06 86.224ZM621.236 86.224C621.236 84.852 622.146 83.788 623.56 83.788C624.974 83.788 625.884 84.852 625.884 86.224C625.884 87.596 624.974 88.66 623.56 88.66C622.146 88.66 621.236 87.596 621.236 86.224ZM634.463 82.948H633.371V86.14C633.371 87.638 632.755 88.66 631.341 88.66C630.319 88.66 629.843 87.974 629.843 86.882V82.948H628.751V86.994C628.751 88.576 629.521 89.668 631.243 89.668C632.321 89.668 633.133 89.066 633.427 88.422H633.455C633.455 88.786 633.483 89.15 633.483 89.5H634.519C634.519 89.066 634.463 88.548 634.463 87.946V82.948ZM636.53 89.5H637.622V86.308C637.622 84.81 638.21 83.872 639.54 83.872C639.736 83.872 639.946 83.9 640.128 83.956L640.198 82.85C640.044 82.794 639.89 82.78 639.75 82.78C638.672 82.78 637.86 83.382 637.566 84.026H637.538C637.538 83.662 637.51 83.298 637.51 82.948H636.474C636.474 83.382 636.53 83.9 636.53 84.502V89.5ZM641.452 89.5H642.544V86.308C642.544 84.81 643.16 83.788 644.574 83.788C645.596 83.788 646.072 84.474 646.072 85.566V89.5H647.164V85.454C647.164 83.872 646.394 82.78 644.672 82.78C643.594 82.78 642.782 83.382 642.488 84.026H642.46C642.46 83.662 642.432 83.298 642.432 82.948H641.396C641.396 83.382 641.452 83.9 641.452 84.502V89.5ZM654.257 87.666C653.739 88.324 653.109 88.66 652.171 88.66C650.981 88.66 650.113 87.694 650.029 86.56H655.321V86.21C655.321 84.04 654.061 82.78 652.213 82.78C650.281 82.78 648.853 84.194 648.853 86.224C648.853 88.128 650.113 89.668 652.171 89.668C653.389 89.668 654.313 89.304 655.083 88.31L654.257 87.666ZM650.029 85.636C650.169 84.53 650.967 83.788 652.171 83.788C653.375 83.788 654.103 84.53 654.145 85.636H650.029Z" fill="#333333"/>
<rect x="559.5" y="104.5" width="19" height="19" rx="3.5" fill="white" stroke="#9EA6B5"/>
<path d="M588.232 117.5H591.186C593.02 117.5 595.05 116.912 595.05 114.728C595.05 113.426 594.084 112.404 592.81 112.292V112.264C593.874 111.942 594.546 111.172 594.546 110.024C594.546 108.204 592.894 107.588 591.256 107.588H588.232V117.5ZM589.408 108.68H591.158C592.222 108.68 593.286 108.96 593.286 110.178C593.286 111.55 592.138 111.788 591.032 111.788H589.408V108.68ZM589.408 112.88H591.424C592.614 112.88 593.79 113.3 593.79 114.686C593.79 115.946 592.544 116.408 591.396 116.408H589.408V112.88ZM596.854 117.5H597.946V114.308C597.946 112.81 598.534 111.872 599.864 111.872C600.06 111.872 600.27 111.9 600.452 111.956L600.522 110.85C600.368 110.794 600.214 110.78 600.074 110.78C598.996 110.78 598.184 111.382 597.89 112.026H597.862C597.862 111.662 597.834 111.298 597.834 110.948H596.798C596.798 111.382 596.854 111.9 596.854 112.502V117.5ZM601.874 117.5H602.966V110.948H601.874V117.5ZM601.622 108.386C601.622 108.848 601.958 109.184 602.42 109.184C602.882 109.184 603.218 108.848 603.218 108.386C603.218 107.952 602.868 107.588 602.42 107.588C601.972 107.588 601.622 107.952 601.622 108.386ZM604.412 116.45C605.056 117.374 605.854 117.668 606.96 117.668C608.262 117.668 609.578 117.094 609.578 115.61C609.578 114.294 608.598 113.874 607.436 113.65C606.568 113.482 605.784 113.244 605.784 112.698C605.784 112.082 606.47 111.788 607.072 111.788C607.716 111.788 608.178 112.11 608.458 112.572L609.368 111.97C608.92 111.13 608.066 110.78 607.142 110.78C605.924 110.78 604.692 111.438 604.692 112.712C604.692 114.07 605.756 114.336 607.002 114.616C607.702 114.77 608.402 114.952 608.402 115.652C608.402 116.366 607.646 116.66 606.96 116.66C606.19 116.66 605.714 116.31 605.28 115.778L604.412 116.45ZM611.044 117.5H612.136V116.338H612.164C612.57 117.08 613.508 117.668 614.684 117.668C616.518 117.668 617.96 116.184 617.96 114.224C617.96 112.236 616.574 110.78 614.516 110.78C613.564 110.78 612.766 111.2 612.164 111.9H612.136V106.916H611.044V117.5ZM612.136 114.224C612.136 112.852 613.046 111.788 614.46 111.788C615.874 111.788 616.784 112.852 616.784 114.224C616.784 115.596 615.874 116.66 614.46 116.66C613.046 116.66 612.136 115.596 612.136 114.224ZM620.261 112.502C620.779 112.026 621.507 111.788 622.207 111.788C623.229 111.788 623.831 112.278 623.831 113.23V113.426H623.411C621.801 113.426 619.281 113.552 619.281 115.722C619.281 116.996 620.387 117.668 621.717 117.668C622.711 117.668 623.439 117.192 623.873 116.52H623.901C623.901 116.8 623.901 117.206 623.971 117.5H625.021C624.965 117.164 624.923 116.744 624.923 116.366V113.552C624.923 111.704 624.111 110.78 622.179 110.78C621.227 110.78 620.247 111.102 619.575 111.788L620.261 112.502ZM623.831 114.35V114.77C623.803 115.834 623.159 116.744 621.899 116.744C621.073 116.744 620.457 116.436 620.457 115.61C620.457 114.728 621.353 114.35 622.739 114.35H623.831ZM626.919 117.5H628.011V114.308C628.011 112.81 628.627 111.788 630.041 111.788C631.063 111.788 631.539 112.474 631.539 113.566V117.5H632.631V113.454C632.631 111.872 631.861 110.78 630.139 110.78C629.061 110.78 628.249 111.382 627.955 112.026H627.927C627.927 111.662 627.899 111.298 627.899 110.948H626.863C626.863 111.382 626.919 111.9 626.919 112.502V117.5ZM639.724 115.666C639.206 116.324 638.576 116.66 637.638 116.66C636.448 116.66 635.58 115.694 635.496 114.56H640.788V114.21C640.788 112.04 639.528 110.78 637.68 110.78C635.748 110.78 634.32 112.194 634.32 114.224C634.32 116.128 635.58 117.668 637.638 117.668C638.856 117.668 639.78 117.304 640.55 116.31L639.724 115.666ZM635.496 113.636C635.636 112.53 636.434 111.788 637.638 111.788C638.842 111.788 639.57 112.53 639.612 113.636H635.496Z" fill="#333333"/>
<rect x="559.5" y="132.5" width="19" height="19" rx="3.5" fill="white" stroke="#9EA6B5"/>
<path d="M588.232 145.5H589.408V141.048H591.396C592.796 141.048 594.644 140.474 594.644 138.304C594.644 136.232 592.992 135.588 591.172 135.588H588.232V145.5ZM589.408 136.68H591.396C592.572 136.68 593.384 137.212 593.384 138.318C593.384 139.424 592.572 139.956 591.396 139.956H589.408V136.68ZM601.361 143.666C600.843 144.324 600.213 144.66 599.275 144.66C598.085 144.66 597.217 143.694 597.133 142.56H602.425V142.21C602.425 140.04 601.165 138.78 599.317 138.78C597.385 138.78 595.957 140.194 595.957 142.224C595.957 144.128 597.217 145.668 599.275 145.668C600.493 145.668 601.417 145.304 602.187 144.31L601.361 143.666ZM597.133 141.636C597.273 140.53 598.071 139.788 599.275 139.788C600.479 139.788 601.207 140.53 601.249 141.636H597.133ZM604.114 145.5H605.206V142.308C605.206 140.81 605.794 139.872 607.124 139.872C607.32 139.872 607.53 139.9 607.712 139.956L607.782 138.85C607.628 138.794 607.474 138.78 607.334 138.78C606.256 138.78 605.444 139.382 605.15 140.026H605.122C605.122 139.662 605.094 139.298 605.094 138.948H604.058C604.058 139.382 604.114 139.9 604.114 140.502V145.5ZM612.62 138.948H610.688V137.086H609.596V138.948H608.168V139.872H609.596V143.47C609.596 144.828 609.848 145.668 611.402 145.668C611.808 145.668 612.298 145.598 612.676 145.43L612.634 144.436C612.34 144.59 611.99 144.66 611.668 144.66C610.702 144.66 610.688 143.988 610.688 143.148V139.872H612.62V138.948ZM613.958 145.5H615.05V142.308C615.05 140.81 615.666 139.788 617.08 139.788C618.102 139.788 618.578 140.474 618.578 141.566V145.5H619.67V141.454C619.67 139.872 618.9 138.78 617.178 138.78C616.156 138.78 615.372 139.34 615.078 139.858H615.05V134.916H613.958V145.5Z" fill="#333333"/>
<rect x="640" y="16" width="16" height="16" rx="8" fill="#467822"/>
<path d="M647 26.1668C646.871 26.157 646.752 26.0972 646.666 26.0002L644.666 24.0002C644.622 23.9068 644.607 23.802 644.625 23.7001C644.642 23.5982 644.691 23.5042 644.764 23.4311C644.837 23.358 644.931 23.3094 645.033 23.2919C645.135 23.2744 645.24 23.2889 645.333 23.3335L646.98 24.9802L652.666 19.3335C652.76 19.2889 652.865 19.2744 652.967 19.2919C653.068 19.3094 653.162 19.358 653.236 19.4311C653.309 19.5042 653.357 19.5982 653.375 19.7001C653.392 19.802 653.378 19.9068 653.333 20.0002L647.333 26.0002C647.248 26.0972 647.128 26.157 647 26.1668V26.1668Z" fill="white"/>
<path d="M648 30.0001C646.928 29.9983 645.875 29.7092 644.953 29.1629C644.03 28.6165 643.271 27.8328 642.753 26.8934C642.36 26.1934 642.117 25.4192 642.04 24.6201C641.918 23.4481 642.144 22.2662 642.689 21.2217C643.235 20.1772 644.075 19.3164 645.107 18.7467C645.807 18.3536 646.581 18.1107 647.38 18.0334C648.176 17.9478 648.981 18.0249 649.747 18.2601C649.815 18.2737 649.88 18.3015 649.937 18.3416C649.994 18.3817 650.042 18.4333 650.077 18.493C650.113 18.5527 650.136 18.6192 650.145 18.6884C650.154 18.7575 650.148 18.8276 650.128 18.8943C650.108 18.9611 650.074 19.0228 650.028 19.0757C649.983 19.1286 649.927 19.1715 649.864 19.2015C649.802 19.2315 649.733 19.2481 649.663 19.2502C649.594 19.2522 649.525 19.2397 649.46 19.2134C648.812 19.0187 648.133 18.9552 647.46 19.0267C646.795 19.0948 646.151 19.2966 645.567 19.6201C645.003 19.9308 644.506 20.3473 644.1 20.8467C643.683 21.3555 643.371 21.9424 643.183 22.5732C642.995 23.204 642.935 23.8658 643.007 24.5201C643.075 25.1847 643.277 25.8288 643.6 26.4134C643.911 26.9766 644.327 27.4746 644.827 27.8801C645.336 28.2975 645.922 28.6092 646.553 28.7969C647.184 28.9847 647.846 29.0447 648.5 28.9734C649.165 28.9053 649.809 28.7035 650.393 28.3801C650.957 28.0693 651.455 27.6528 651.86 27.1534C652.277 26.6446 652.589 26.0577 652.777 25.4269C652.965 24.7962 653.025 24.1343 652.953 23.4801C652.947 23.4113 652.954 23.342 652.974 23.276C652.994 23.21 653.027 23.1486 653.071 23.0954C653.115 23.0421 653.169 22.9981 653.23 22.9657C653.291 22.9333 653.358 22.9133 653.427 22.9067C653.495 22.9002 653.565 22.9072 653.631 22.9274C653.697 22.9477 653.758 22.9807 653.811 23.0247C653.865 23.0686 653.909 23.1226 653.941 23.1836C653.973 23.2446 653.994 23.3113 654 23.3801C654.121 24.5527 653.895 25.7351 653.348 26.7797C652.802 27.8242 651.959 28.6846 650.927 29.2534C650.219 29.6626 649.433 29.917 648.62 30.0001C648.413 30.0001 648.2 30.0001 648 30.0001Z" fill="white"/>
<rect x="547" y="4" width="121" height="160" stroke="#E6E6E6" stroke-width="8"/>
<path d="M419.264 216H423.488C426.208 216 429.488 214.208 429.488 210.336C429.488 206.496 426.704 204.672 423.728 204.672H419.264V216ZM421.28 214.176V206.496H423.12C425.584 206.496 427.376 207.584 427.376 210.336C427.376 213.088 425.312 214.176 422.784 214.176H421.28ZM430.845 212.16C430.845 214.576 432.701 216.192 435.021 216.192C437.341 216.192 439.197 214.576 439.197 212.16C439.197 209.744 437.341 208.128 435.021 208.128C432.701 208.128 430.845 209.744 430.845 212.16ZM432.765 212.16C432.765 210.96 433.613 209.856 435.021 209.856C436.429 209.856 437.277 210.96 437.277 212.16C437.277 213.36 436.429 214.464 435.021 214.464C433.613 214.464 432.765 213.36 432.765 212.16ZM440.994 214.88C440.994 215.568 441.602 216.096 442.274 216.096C442.978 216.096 443.554 215.536 443.554 214.848C443.554 214.16 442.962 213.632 442.274 213.632C441.57 213.632 440.994 214.192 440.994 214.88ZM440.994 209.456C440.994 210.144 441.602 210.672 442.274 210.672C442.978 210.672 443.554 210.112 443.554 209.424C443.554 208.736 442.962 208.208 442.274 208.208C441.57 208.208 440.994 208.768 440.994 209.456Z" fill="#333333"/>
<path d="M462.904 204.672H461.56V211.488C461.56 213.312 460.888 215.04 458.632 215.04C456.376 215.04 455.704 213.312 455.704 211.488V204.672H454.36V211.68C454.36 214.144 455.512 216.288 458.632 216.288C461.752 216.288 462.904 214.144 462.904 211.68V204.672ZM464.618 214.8C465.354 215.856 466.266 216.192 467.53 216.192C469.018 216.192 470.522 215.536 470.522 213.84C470.522 212.336 469.402 211.856 468.074 211.6C467.082 211.408 466.186 211.136 466.186 210.512C466.186 209.808 466.97 209.472 467.658 209.472C468.394 209.472 468.922 209.84 469.242 210.368L470.282 209.68C469.77 208.72 468.794 208.32 467.738 208.32C466.346 208.32 464.938 209.072 464.938 210.528C464.938 212.08 466.154 212.384 467.578 212.704C468.378 212.88 469.178 213.088 469.178 213.888C469.178 214.704 468.314 215.04 467.53 215.04C466.65 215.04 466.106 214.64 465.61 214.032L464.618 214.8ZM478.006 213.904C477.414 214.656 476.694 215.04 475.622 215.04C474.262 215.04 473.27 213.936 473.174 212.64H479.222V212.24C479.222 209.76 477.782 208.32 475.67 208.32C473.462 208.32 471.83 209.936 471.83 212.256C471.83 214.432 473.27 216.192 475.622 216.192C477.014 216.192 478.07 215.776 478.95 214.64L478.006 213.904ZM473.174 211.584C473.334 210.32 474.246 209.472 475.622 209.472C476.998 209.472 477.83 210.32 477.878 211.584H473.174ZM485.606 216H486.854V212.352C486.854 210.64 487.526 209.568 489.046 209.568C489.27 209.568 489.51 209.6 489.718 209.664L489.798 208.4C489.622 208.336 489.446 208.32 489.286 208.32C488.054 208.32 487.126 209.008 486.79 209.744H486.758C486.758 209.328 486.726 208.912 486.726 208.512H485.542C485.542 209.008 485.606 209.6 485.606 210.288V216ZM491.919 210.288C492.511 209.744 493.343 209.472 494.143 209.472C495.311 209.472 495.999 210.032 495.999 211.12V211.344H495.519C493.679 211.344 490.799 211.488 490.799 213.968C490.799 215.424 492.063 216.192 493.583 216.192C494.719 216.192 495.551 215.648 496.047 214.88H496.079C496.079 215.2 496.079 215.664 496.159 216H497.359C497.295 215.616 497.247 215.136 497.247 214.704V211.488C497.247 209.376 496.319 208.32 494.111 208.32C493.023 208.32 491.903 208.688 491.135 209.472L491.919 210.288ZM495.999 212.4V212.88C495.967 214.096 495.231 215.136 493.791 215.136C492.847 215.136 492.143 214.784 492.143 213.84C492.143 212.832 493.167 212.4 494.751 212.4H495.999ZM505.752 216H507V203.904H505.752V209.6H505.72C505.032 208.8 504.12 208.32 503.032 208.32C500.68 208.32 499.096 209.984 499.096 212.256C499.096 214.496 500.744 216.192 502.84 216.192C504.184 216.192 505.256 215.52 505.72 214.672H505.752V216ZM505.752 212.256C505.752 213.824 504.712 215.04 503.096 215.04C501.48 215.04 500.44 213.824 500.44 212.256C500.44 210.688 501.48 209.472 503.096 209.472C504.712 209.472 505.752 210.688 505.752 212.256ZM509.421 216H510.669V208.512H509.421V216ZM509.133 205.584C509.133 206.112 509.517 206.496 510.045 206.496C510.573 206.496 510.957 206.112 510.957 205.584C510.957 205.088 510.557 204.672 510.045 204.672C509.533 204.672 509.133 205.088 509.133 205.584ZM512.721 212.256C512.721 214.592 514.417 216.192 516.721 216.192C519.025 216.192 520.721 214.592 520.721 212.256C520.721 209.92 519.025 208.32 516.721 208.32C514.417 208.32 512.721 209.92 512.721 212.256ZM514.065 212.256C514.065 210.688 515.105 209.472 516.721 209.472C518.337 209.472 519.377 210.688 519.377 212.256C519.377 213.824 518.337 215.04 516.721 215.04C515.105 215.04 514.065 213.824 514.065 212.256ZM526.674 212.256C526.674 214.592 528.37 216.192 530.674 216.192C532.978 216.192 534.674 214.592 534.674 212.256C534.674 209.92 532.978 208.32 530.674 208.32C528.37 208.32 526.674 209.92 526.674 212.256ZM528.018 212.256C528.018 210.688 529.058 209.472 530.674 209.472C532.29 209.472 533.33 210.688 533.33 212.256C533.33 213.824 532.29 215.04 530.674 215.04C529.058 215.04 528.018 213.824 528.018 212.256ZM536.606 216H537.854V212.352C537.854 210.64 538.526 209.568 540.046 209.568C540.27 209.568 540.51 209.6 540.718 209.664L540.798 208.4C540.622 208.336 540.446 208.32 540.286 208.32C539.054 208.32 538.126 209.008 537.79 209.744H537.758C537.758 209.328 537.726 208.912 537.726 208.512H536.542C536.542 209.008 536.606 209.6 536.606 210.288V216ZM553.004 209.504C552.252 208.688 551.228 208.32 550.124 208.32C547.82 208.32 546.252 209.984 546.252 212.256C546.252 214.56 547.804 216.192 550.124 216.192C551.212 216.192 552.236 215.824 552.956 214.992L552.028 214.112C551.564 214.752 550.94 215.04 550.124 215.04C548.604 215.04 547.596 213.792 547.596 212.256C547.596 210.72 548.444 209.472 550.124 209.472C550.876 209.472 551.484 209.744 552.012 210.384L553.004 209.504ZM554.403 216H555.651V212.352C555.651 210.64 556.355 209.472 557.971 209.472C559.139 209.472 559.683 210.256 559.683 211.504V216H560.931V211.376C560.931 209.568 560.051 208.32 558.083 208.32C556.915 208.32 556.019 208.96 555.683 209.552H555.651V203.904H554.403V216ZM569.037 213.904C568.445 214.656 567.725 215.04 566.653 215.04C565.293 215.04 564.301 213.936 564.205 212.64H570.253V212.24C570.253 209.76 568.813 208.32 566.701 208.32C564.493 208.32 562.861 209.936 562.861 212.256C562.861 214.432 564.301 216.192 566.653 216.192C568.045 216.192 569.101 215.776 569.981 214.64L569.037 213.904ZM564.205 211.584C564.365 210.32 565.277 209.472 566.653 209.472C568.029 209.472 568.861 210.32 568.909 211.584H564.205ZM578.504 209.504C577.752 208.688 576.728 208.32 575.624 208.32C573.32 208.32 571.752 209.984 571.752 212.256C571.752 214.56 573.304 216.192 575.624 216.192C576.712 216.192 577.736 215.824 578.456 214.992L577.528 214.112C577.064 214.752 576.44 215.04 575.624 215.04C574.104 215.04 573.096 213.792 573.096 212.256C573.096 210.72 573.944 209.472 575.624 209.472C576.376 209.472 576.984 209.744 577.512 210.384L578.504 209.504ZM579.903 216H581.151V212.064L584.863 216H586.703L582.719 211.92L586.335 208.512H584.559L581.151 211.808V203.904H579.903V216ZM587.839 216H589.087V214.672H589.119C589.583 215.52 590.655 216.192 591.999 216.192C594.095 216.192 595.743 214.496 595.743 212.256C595.743 209.984 594.159 208.32 591.807 208.32C590.719 208.32 589.807 208.8 589.119 209.6H589.087V203.904H587.839V216ZM589.087 212.256C589.087 210.688 590.127 209.472 591.743 209.472C593.359 209.472 594.399 210.688 594.399 212.256C594.399 213.824 593.359 215.04 591.743 215.04C590.127 215.04 589.087 213.824 589.087 212.256ZM597.252 212.256C597.252 214.592 598.948 216.192 601.252 216.192C603.556 216.192 605.252 214.592 605.252 212.256C605.252 209.92 603.556 208.32 601.252 208.32C598.948 208.32 597.252 209.92 597.252 212.256ZM598.596 212.256C598.596 210.688 599.636 209.472 601.252 209.472C602.868 209.472 603.908 210.688 603.908 212.256C603.908 213.824 602.868 215.04 601.252 215.04C599.636 215.04 598.596 213.824 598.596 212.256ZM606.048 216H607.6L609.936 212.768L612.304 216H613.952L610.864 211.968L613.44 208.512H611.92L610.048 211.2L608.064 208.512H606.432L609.12 211.968L606.048 216ZM630.085 208.512H628.741L627.045 214.272H627.013L625.045 208.512H623.733L621.797 214.272H621.765L620.053 208.512H618.677L621.109 216H622.389L624.277 210.24H624.309L626.437 216H627.669L630.085 208.512ZM631.497 216H632.745V212.352C632.745 210.64 633.449 209.472 635.065 209.472C636.233 209.472 636.777 210.256 636.777 211.504V216H638.025V211.376C638.025 209.568 637.145 208.32 635.177 208.32C634.009 208.32 633.113 208.96 632.777 209.552H632.745V203.904H631.497V216ZM646.131 213.904C645.539 214.656 644.819 215.04 643.747 215.04C642.387 215.04 641.395 213.936 641.299 212.64H647.347V212.24C647.347 209.76 645.907 208.32 643.795 208.32C641.587 208.32 639.955 209.936 639.955 212.256C639.955 214.432 641.395 216.192 643.747 216.192C645.139 216.192 646.195 215.776 647.075 214.64L646.131 213.904ZM641.299 211.584C641.459 210.32 642.371 209.472 643.747 209.472C645.123 209.472 645.955 210.32 646.003 211.584H641.299ZM649.278 216H650.526V212.352C650.526 210.64 651.23 209.472 652.846 209.472C654.014 209.472 654.558 210.256 654.558 211.504V216H655.806V211.376C655.806 209.568 654.926 208.32 652.958 208.32C651.726 208.32 650.798 209.008 650.462 209.744H650.43C650.43 209.328 650.398 208.912 650.398 208.512H649.214C649.214 209.008 649.278 209.6 649.278 210.288V216ZM666.718 208.512H664.51V206.384H663.262V208.512H661.63V209.568H663.262V213.68C663.262 215.232 663.549 216.192 665.326 216.192C665.79 216.192 666.35 216.112 666.782 215.92L666.734 214.784C666.398 214.96 665.998 215.04 665.63 215.04C664.526 215.04 664.51 214.272 664.51 213.312V209.568H666.718V208.512ZM668.247 216H669.495V212.352C669.495 210.64 670.199 209.472 671.815 209.472C672.983 209.472 673.527 210.256 673.527 211.504V216H674.775V211.376C674.775 209.568 673.895 208.32 671.927 208.32C670.759 208.32 669.863 208.96 669.527 209.552H669.495V203.904H668.247V216ZM682.881 213.904C682.289 214.656 681.569 215.04 680.497 215.04C679.137 215.04 678.145 213.936 678.049 212.64H684.097V212.24C684.097 209.76 682.657 208.32 680.545 208.32C678.337 208.32 676.705 209.936 676.705 212.256C676.705 214.432 678.145 216.192 680.497 216.192C681.889 216.192 682.945 215.776 683.825 214.64L682.881 213.904ZM678.049 211.584C678.209 210.32 679.121 209.472 680.497 209.472C681.873 209.472 682.705 210.32 682.753 211.584H678.049ZM453.752 236.256C453.752 238.592 455.448 240.192 457.752 240.192C460.056 240.192 461.752 238.592 461.752 236.256C461.752 233.92 460.056 232.32 457.752 232.32C455.448 232.32 453.752 233.92 453.752 236.256ZM455.096 236.256C455.096 234.688 456.136 233.472 457.752 233.472C459.368 233.472 460.408 234.688 460.408 236.256C460.408 237.824 459.368 239.04 457.752 239.04C456.136 239.04 455.096 237.824 455.096 236.256ZM463.62 243.648H464.868V238.672H464.9C465.364 239.52 466.436 240.192 467.78 240.192C469.876 240.192 471.524 238.496 471.524 236.256C471.524 233.984 469.94 232.32 467.588 232.32C466.5 232.32 465.588 232.8 464.9 233.6H464.868V232.512H463.62V243.648ZM464.868 236.256C464.868 234.688 465.908 233.472 467.524 233.472C469.14 233.472 470.18 234.688 470.18 236.256C470.18 237.824 469.14 239.04 467.524 239.04C465.908 239.04 464.868 237.824 464.868 236.256ZM477.561 232.512H475.353V230.384H474.105V232.512H472.473V233.568H474.105V237.68C474.105 239.232 474.393 240.192 476.169 240.192C476.633 240.192 477.193 240.112 477.625 239.92L477.577 238.784C477.241 238.96 476.841 239.04 476.473 239.04C475.369 239.04 475.353 238.272 475.353 237.312V233.568H477.561V232.512ZM479.202 240H480.45V232.512H479.202V240ZM478.914 229.584C478.914 230.112 479.298 230.496 479.826 230.496C480.354 230.496 480.738 230.112 480.738 229.584C480.738 229.088 480.338 228.672 479.826 228.672C479.314 228.672 478.914 229.088 478.914 229.584ZM482.502 236.256C482.502 238.592 484.198 240.192 486.502 240.192C488.806 240.192 490.502 238.592 490.502 236.256C490.502 233.92 488.806 232.32 486.502 232.32C484.198 232.32 482.502 233.92 482.502 236.256ZM483.846 236.256C483.846 234.688 484.886 233.472 486.502 233.472C488.118 233.472 489.158 234.688 489.158 236.256C489.158 237.824 488.118 239.04 486.502 239.04C484.886 239.04 483.846 237.824 483.846 236.256ZM492.434 240H493.682V236.352C493.682 234.64 494.386 233.472 496.002 233.472C497.17 233.472 497.714 234.256 497.714 235.504V240H498.962V235.376C498.962 233.568 498.082 232.32 496.114 232.32C494.882 232.32 493.954 233.008 493.618 233.744H493.586C493.586 233.328 493.554 232.912 493.554 232.512H492.37C492.37 233.008 492.434 233.6 492.434 234.288V240ZM500.493 238.8C501.229 239.856 502.141 240.192 503.405 240.192C504.893 240.192 506.397 239.536 506.397 237.84C506.397 236.336 505.277 235.856 503.949 235.6C502.957 235.408 502.061 235.136 502.061 234.512C502.061 233.808 502.845 233.472 503.533 233.472C504.269 233.472 504.797 233.84 505.117 234.368L506.157 233.68C505.645 232.72 504.669 232.32 503.613 232.32C502.221 232.32 500.813 233.072 500.813 234.528C500.813 236.08 502.029 236.384 503.453 236.704C504.253 236.88 505.053 237.088 505.053 237.888C505.053 238.704 504.189 239.04 503.405 239.04C502.525 239.04 501.981 238.64 501.485 238.032L500.493 238.8ZM513.278 234.288C513.87 233.744 514.702 233.472 515.502 233.472C516.67 233.472 517.358 234.032 517.358 235.12V235.344H516.878C515.038 235.344 512.158 235.488 512.158 237.968C512.158 239.424 513.422 240.192 514.942 240.192C516.078 240.192 516.91 239.648 517.406 238.88H517.438C517.438 239.2 517.438 239.664 517.518 240H518.718C518.654 239.616 518.606 239.136 518.606 238.704V235.488C518.606 233.376 517.678 232.32 515.47 232.32C514.382 232.32 513.262 232.688 512.494 233.472L513.278 234.288ZM517.358 236.4V236.88C517.326 238.096 516.59 239.136 515.15 239.136C514.206 239.136 513.502 238.784 513.502 237.84C513.502 236.832 514.526 236.4 516.11 236.4H517.358ZM520.887 240H522.135V236.352C522.135 234.64 522.807 233.568 524.327 233.568C524.551 233.568 524.791 233.6 524.999 233.664L525.079 232.4C524.903 232.336 524.727 232.32 524.567 232.32C523.335 232.32 522.407 233.008 522.071 233.744H522.039C522.039 233.328 522.007 232.912 522.007 232.512H520.823C520.823 233.008 520.887 233.6 520.887 234.288V240ZM531.975 237.904C531.383 238.656 530.663 239.04 529.591 239.04C528.231 239.04 527.239 237.936 527.143 236.64H533.191V236.24C533.191 233.76 531.751 232.32 529.639 232.32C527.431 232.32 525.799 233.936 525.799 236.256C525.799 238.432 527.239 240.192 529.591 240.192C530.983 240.192 532.039 239.776 532.919 238.64L531.975 237.904ZM527.143 235.584C527.303 234.32 528.215 233.472 529.591 233.472C530.967 233.472 531.799 234.32 531.847 235.584H527.143ZM539.687 240H540.935V227.904H539.687V240ZM549.162 237.904C548.57 238.656 547.85 239.04 546.778 239.04C545.418 239.04 544.426 237.936 544.33 236.64H550.378V236.24C550.378 233.76 548.938 232.32 546.826 232.32C544.618 232.32 542.986 233.936 542.986 236.256C542.986 238.432 544.426 240.192 546.778 240.192C548.17 240.192 549.226 239.776 550.106 238.64L549.162 237.904ZM544.33 235.584C544.49 234.32 545.402 233.472 546.778 233.472C548.154 233.472 548.986 234.32 549.034 235.584H544.33ZM551.477 238.8C552.213 239.856 553.125 240.192 554.389 240.192C555.877 240.192 557.381 239.536 557.381 237.84C557.381 236.336 556.261 235.856 554.933 235.6C553.941 235.408 553.045 235.136 553.045 234.512C553.045 233.808 553.829 233.472 554.517 233.472C555.253 233.472 555.781 233.84 556.101 234.368L557.141 233.68C556.629 232.72 555.653 232.32 554.597 232.32C553.205 232.32 551.797 233.072 551.797 234.528C551.797 236.08 553.013 236.384 554.437 236.704C555.237 236.88 556.037 237.088 556.037 237.888C556.037 238.704 555.173 239.04 554.389 239.04C553.509 239.04 552.965 238.64 552.469 238.032L551.477 238.8ZM558.29 238.8C559.026 239.856 559.938 240.192 561.202 240.192C562.69 240.192 564.194 239.536 564.194 237.84C564.194 236.336 563.074 235.856 561.746 235.6C560.754 235.408 559.858 235.136 559.858 234.512C559.858 233.808 560.642 233.472 561.33 233.472C562.066 233.472 562.594 233.84 562.914 234.368L563.954 233.68C563.442 232.72 562.466 232.32 561.41 232.32C560.018 232.32 558.61 233.072 558.61 234.528C558.61 236.08 559.826 236.384 561.25 236.704C562.049 236.88 562.85 237.088 562.85 237.888C562.85 238.704 561.986 239.04 561.202 239.04C560.322 239.04 559.778 238.64 559.282 238.032L558.29 238.8ZM574.483 232.512H572.275V230.384H571.027V232.512H569.395V233.568H571.027V237.68C571.027 239.232 571.315 240.192 573.091 240.192C573.555 240.192 574.115 240.112 574.547 239.92L574.499 238.784C574.163 238.96 573.763 239.04 573.395 239.04C572.291 239.04 572.275 238.272 572.275 237.312V233.568H574.483V232.512ZM576.012 240H577.26V236.352C577.26 234.64 577.964 233.472 579.58 233.472C580.748 233.472 581.292 234.256 581.292 235.504V240H582.54V235.376C582.54 233.568 581.66 232.32 579.692 232.32C578.524 232.32 577.628 232.96 577.292 233.552H577.26V227.904H576.012V240ZM585.591 234.288C586.183 233.744 587.015 233.472 587.815 233.472C588.983 233.472 589.671 234.032 589.671 235.12V235.344H589.191C587.351 235.344 584.471 235.488 584.471 237.968C584.471 239.424 585.735 240.192 587.255 240.192C588.391 240.192 589.223 239.648 589.719 238.88H589.751C589.751 239.2 589.751 239.664 589.831 240H591.031C590.967 239.616 590.919 239.136 590.919 238.704V235.488C590.919 233.376 589.991 232.32 587.783 232.32C586.695 232.32 585.575 232.688 584.807 233.472L585.591 234.288ZM589.671 236.4V236.88C589.639 238.096 588.903 239.136 587.463 239.136C586.519 239.136 585.815 238.784 585.815 237.84C585.815 236.832 586.839 236.4 588.423 236.4H589.671ZM593.2 240H594.448V236.352C594.448 234.64 595.152 233.472 596.768 233.472C597.936 233.472 598.48 234.256 598.48 235.504V240H599.728V235.376C599.728 233.568 598.848 232.32 596.88 232.32C595.648 232.32 594.72 233.008 594.384 233.744H594.352C594.352 233.328 594.32 232.912 594.32 232.512H593.136C593.136 233.008 593.2 233.6 593.2 234.288V240ZM612.943 228.672H607.007L606.895 234.56C607.567 234.16 608.431 233.856 609.199 233.856C610.783 233.856 611.999 234.768 611.999 236.432C611.999 238 610.927 239.04 609.567 239.04C608.607 239.04 607.839 238.464 607.455 237.616L606.111 238.128C606.719 239.376 607.743 240.192 609.455 240.192C611.663 240.192 613.343 238.688 613.343 236.432C613.343 234.304 611.903 232.704 609.727 232.704C609.263 232.704 608.703 232.768 608.271 232.976L608.319 229.92H612.943V228.672Z" fill="#333333"/>
<defs>
<filter id="filter0_dd_171_30765" x="30" y="71" width="340" height="180" filterUnits="userSpaceOnUse" color-interpolation-filters="sRGB">
<feFlood flood-opacity="0" result="BackgroundImageFix"/>
<feColorMatrix in="SourceAlpha" type="matrix" values="0 0 0 0 0 0 0 0 0 0 0 0 0 0 0 0 0 0 127 0" result="hardAlpha"/>
<feOffset dy="2"/>
<feGaussianBlur stdDeviation="2"/>
<feColorMatrix type="matrix" values="0 0 0 0 0 0 0 0 0 0 0 0 0 0 0 0 0 0 0.1 0"/>
<feBlend mode="normal" in2="BackgroundImageFix" result="effect1_dropShadow_171_30765"/>
<feColorMatrix in="SourceAlpha" type="matrix" values="0 0 0 0 0 0 0 0 0 0 0 0 0 0 0 0 0 0 127 0" result="hardAlpha"/>
<feOffset dy="1"/>
<feGaussianBlur stdDeviation="5"/>
<feComposite in2="hardAlpha" operator="out"/>
<feColorMatrix type="matrix" values="0 0 0 0 0 0 0 0 0 0 0 0 0 0 0 0 0 0 0.12 0"/>
<feBlend mode="normal" in2="effect1_dropShadow_171_30765" result="effect2_dropShadow_171_30765"/>
<feBlend mode="normal" in="SourceGraphic" in2="effect2_dropShadow_171_30765" result="shape"/>
</filter>
<clipPath id="clip0_171_30765">
<rect width="49" height="24" fill="white" transform="translate(40 16)"/>
</clipPath>
<clipPath id="clip1_171_30765">
<rect x="40" y="80" width="320" height="160" rx="4" fill="white"/>
</clipPath>
<clipPath id="clip2_171_30765">
<rect width="8" height="300" fill="white" transform="translate(352 80)"/>
</clipPath>
<clipPath id="clip3_171_30765">
<rect width="49" height="24" fill="white" transform="translate(426 16)"/>
</clipPath>
<clipPath id="clip4_171_30765">
<rect width="49" height="24" fill="white" transform="translate(559 16)"/>
</clipPath>
</defs>
</svg>
