<svg width="452" height="394" viewBox="0 0 452 394" fill="none" xmlns="http://www.w3.org/2000/svg">
<path d="M1.408 36H2.752V30.912H4.48L7.552 36H9.2L5.984 30.784C7.744 30.512 8.816 29.44 8.816 27.792C8.816 24.992 6.496 24.672 4.304 24.672H1.408V36ZM2.752 25.92H4.64C5.952 25.92 7.376 26.16 7.376 27.792C7.376 29.664 5.44 29.664 3.952 29.664H2.752V25.92ZM16.7093 33.904C16.1173 34.656 15.3973 35.04 14.3253 35.04C12.9653 35.04 11.9733 33.936 11.8773 32.64H17.9253V32.24C17.9253 29.76 16.4853 28.32 14.3733 28.32C12.1653 28.32 10.5333 29.936 10.5333 32.256C10.5333 34.432 11.9733 36.192 14.3253 36.192C15.7173 36.192 16.7733 35.776 17.6533 34.64L16.7093 33.904ZM11.8773 31.584C12.0373 30.32 12.9493 29.472 14.3253 29.472C15.7013 29.472 16.5333 30.32 16.5813 31.584H11.8773ZM27.3279 28.512H26.0799V29.84H26.0479C25.5839 28.992 24.5119 28.32 23.1679 28.32C21.0719 28.32 19.4239 30.016 19.4239 32.256C19.4239 34.528 21.0079 36.192 23.3599 36.192C24.4479 36.192 25.3599 35.712 26.0479 34.912H26.0799V39.648H27.3279V28.512ZM26.0799 32.256C26.0799 33.824 25.0399 35.04 23.4239 35.04C21.8079 35.04 20.7679 33.824 20.7679 32.256C20.7679 30.688 21.8079 29.472 23.4239 29.472C25.0399 29.472 26.0799 30.688 26.0799 32.256ZM36.1651 28.512H34.9171V32.16C34.9171 33.872 34.2131 35.04 32.5971 35.04C31.4291 35.04 30.8851 34.256 30.8851 33.008V28.512H29.6371V33.136C29.6371 34.944 30.5171 36.192 32.4851 36.192C33.7171 36.192 34.6451 35.504 34.9811 34.768H35.0131C35.0131 35.184 35.0451 35.6 35.0451 36H36.2291C36.2291 35.504 36.1651 34.912 36.1651 34.224V28.512ZM38.6398 36H39.8878V28.512H38.6398V36ZM38.3518 25.584C38.3518 26.112 38.7358 26.496 39.2638 26.496C39.7918 26.496 40.1758 26.112 40.1758 25.584C40.1758 25.088 39.7758 24.672 39.2638 24.672C38.7518 24.672 38.3518 25.088 38.3518 25.584ZM42.3715 36H43.6195V32.352C43.6195 30.64 44.2915 29.568 45.8115 29.568C46.0355 29.568 46.2755 29.6 46.4835 29.664L46.5635 28.4C46.3875 28.336 46.2115 28.32 46.0515 28.32C44.8195 28.32 43.8915 29.008 43.5555 29.744H43.5235C43.5235 29.328 43.4915 28.912 43.4915 28.512H42.3075C42.3075 29.008 42.3715 29.6 42.3715 30.288V36ZM53.4593 33.904C52.8673 34.656 52.1473 35.04 51.0753 35.04C49.7153 35.04 48.7233 33.936 48.6273 32.64H54.6753V32.24C54.6753 29.76 53.2353 28.32 51.1233 28.32C48.9153 28.32 47.2833 29.936 47.2833 32.256C47.2833 34.432 48.7233 36.192 51.0753 36.192C52.4673 36.192 53.5233 35.776 54.4033 34.64L53.4593 33.904ZM48.6273 31.584C48.7873 30.32 49.6993 29.472 51.0753 29.472C52.4513 29.472 53.2833 30.32 53.3313 31.584H48.6273ZM62.8299 36H64.0779V23.904H62.8299V29.6H62.7979C62.1099 28.8 61.1979 28.32 60.1099 28.32C57.7579 28.32 56.1739 29.984 56.1739 32.256C56.1739 34.496 57.8219 36.192 59.9179 36.192C61.2619 36.192 62.3339 35.52 62.7979 34.672H62.8299V36ZM62.8299 32.256C62.8299 33.824 61.7899 35.04 60.1739 35.04C58.5579 35.04 57.5179 33.824 57.5179 32.256C57.5179 30.688 58.5579 29.472 60.1739 29.472C61.7899 29.472 62.8299 30.688 62.8299 32.256Z" fill="black"/>
<g clip-path="url(#clip0_177_34130)">
<path d="M133.408 18H134.752V12.912H140.032V11.664H134.752V7.92H140.432V6.672H133.408V18ZM142.187 18H143.435V10.512H142.187V18ZM141.899 7.584C141.899 8.112 142.283 8.496 142.811 8.496C143.339 8.496 143.723 8.112 143.723 7.584C143.723 7.088 143.323 6.672 142.811 6.672C142.299 6.672 141.899 7.088 141.899 7.584ZM151.662 15.904C151.07 16.656 150.35 17.04 149.278 17.04C147.918 17.04 146.926 15.936 146.83 14.64H152.878V14.24C152.878 11.76 151.438 10.32 149.326 10.32C147.118 10.32 145.486 11.936 145.486 14.256C145.486 16.432 146.926 18.192 149.278 18.192C150.67 18.192 151.726 17.776 152.606 16.64L151.662 15.904ZM146.83 13.584C146.99 12.32 147.902 11.472 149.278 11.472C150.654 11.472 151.486 12.32 151.534 13.584H146.83ZM154.921 18H156.169V5.904H154.921V18ZM164.877 18H166.125V5.904H164.877V11.6H164.845C164.157 10.8 163.245 10.32 162.157 10.32C159.805 10.32 158.221 11.984 158.221 14.256C158.221 16.496 159.869 18.192 161.965 18.192C163.309 18.192 164.381 17.52 164.845 16.672H164.877V18ZM164.877 14.256C164.877 15.824 163.837 17.04 162.221 17.04C160.605 17.04 159.565 15.824 159.565 14.256C159.565 12.688 160.605 11.472 162.221 11.472C163.837 11.472 164.877 12.688 164.877 14.256ZM173.111 18H179.639V16.752H174.455V6.672H173.111V18ZM181.575 12.288C182.167 11.744 182.999 11.472 183.799 11.472C184.967 11.472 185.655 12.032 185.655 13.12V13.344H185.175C183.335 13.344 180.455 13.488 180.455 15.968C180.455 17.424 181.719 18.192 183.239 18.192C184.375 18.192 185.207 17.648 185.703 16.88H185.735C185.735 17.2 185.735 17.664 185.815 18H187.015C186.951 17.616 186.903 17.136 186.903 16.704V13.488C186.903 11.376 185.975 10.32 183.767 10.32C182.679 10.32 181.559 10.688 180.791 11.472L181.575 12.288ZM185.655 14.4V14.88C185.623 16.096 184.887 17.136 183.447 17.136C182.503 17.136 181.799 16.784 181.799 15.84C181.799 14.832 182.823 14.4 184.407 14.4H185.655ZM189.12 18H190.368V16.672H190.4C190.864 17.52 191.936 18.192 193.28 18.192C195.376 18.192 197.024 16.496 197.024 14.256C197.024 11.984 195.44 10.32 193.088 10.32C192 10.32 191.088 10.8 190.4 11.6H190.368V5.904H189.12V18ZM190.368 14.256C190.368 12.688 191.408 11.472 193.024 11.472C194.64 11.472 195.68 12.688 195.68 14.256C195.68 15.824 194.64 17.04 193.024 17.04C191.408 17.04 190.368 15.824 190.368 14.256ZM204.709 15.904C204.117 16.656 203.397 17.04 202.325 17.04C200.965 17.04 199.973 15.936 199.877 14.64H205.925V14.24C205.925 11.76 204.485 10.32 202.373 10.32C200.165 10.32 198.533 11.936 198.533 14.256C198.533 16.432 199.973 18.192 202.325 18.192C203.717 18.192 204.773 17.776 205.653 16.64L204.709 15.904ZM199.877 13.584C200.037 12.32 200.949 11.472 202.325 11.472C203.701 11.472 204.533 12.32 204.581 13.584H199.877ZM207.968 18H209.216V5.904H207.968V18Z" fill="#333333"/>
<path opacity="0.8" d="M219.384 4.672H218.04V6.944L215.864 6.192L215.448 7.472L217.64 8.224L216.264 10.032L217.336 10.848L218.68 9.008L220.056 10.896L221.16 10.096L219.784 8.224L221.96 7.52L221.544 6.24L219.384 6.944V4.672Z" fill="#DB3259"/>
</g>
<rect x="132.5" y="28.5" width="319" height="35" rx="3.5" fill="white"/>
<path opacity="0.6" d="M145.408 50H146.752V44.912H149.024C150.624 44.912 152.736 44.256 152.736 41.776C152.736 39.408 150.848 38.672 148.768 38.672H145.408V50ZM146.752 39.92H149.024C150.368 39.92 151.296 40.528 151.296 41.792C151.296 43.056 150.368 43.664 149.024 43.664H146.752V39.92ZM154.78 50H156.028V37.904H154.78V50ZM159.2 44.288C159.792 43.744 160.624 43.472 161.424 43.472C162.592 43.472 163.28 44.032 163.28 45.12V45.344H162.8C160.96 45.344 158.08 45.488 158.08 47.968C158.08 49.424 159.344 50.192 160.864 50.192C162 50.192 162.832 49.648 163.328 48.88H163.36C163.36 49.2 163.36 49.664 163.44 50H164.64C164.576 49.616 164.528 49.136 164.528 48.704V45.488C164.528 43.376 163.6 42.32 161.392 42.32C160.304 42.32 159.184 42.688 158.416 43.472L159.2 44.288ZM163.28 46.4V46.88C163.248 48.096 162.512 49.136 161.072 49.136C160.128 49.136 159.424 48.784 159.424 47.84C159.424 46.832 160.448 46.4 162.032 46.4H163.28ZM173.129 43.504C172.377 42.688 171.353 42.32 170.249 42.32C167.945 42.32 166.377 43.984 166.377 46.256C166.377 48.56 167.929 50.192 170.249 50.192C171.337 50.192 172.361 49.824 173.081 48.992L172.153 48.112C171.689 48.752 171.065 49.04 170.249 49.04C168.729 49.04 167.721 47.792 167.721 46.256C167.721 44.72 168.569 43.472 170.249 43.472C171.001 43.472 171.609 43.744 172.137 44.384L173.129 43.504ZM180.272 47.904C179.68 48.656 178.96 49.04 177.888 49.04C176.528 49.04 175.536 47.936 175.44 46.64H181.488V46.24C181.488 43.76 180.048 42.32 177.936 42.32C175.728 42.32 174.096 43.936 174.096 46.256C174.096 48.432 175.536 50.192 177.888 50.192C179.28 50.192 180.336 49.776 181.216 48.64L180.272 47.904ZM175.44 45.584C175.6 44.32 176.512 43.472 177.888 43.472C179.264 43.472 180.096 44.32 180.144 45.584H175.44ZM183.418 50H184.666V46.352C184.666 44.64 185.37 43.472 186.986 43.472C188.154 43.472 188.698 44.256 188.698 45.504V50H189.946V45.376C189.946 43.568 189.066 42.32 187.098 42.32C185.93 42.32 185.034 42.96 184.698 43.552H184.666V37.904H183.418V50ZM191.877 46.256C191.877 48.592 193.573 50.192 195.877 50.192C198.181 50.192 199.877 48.592 199.877 46.256C199.877 43.92 198.181 42.32 195.877 42.32C193.573 42.32 191.877 43.92 191.877 46.256ZM193.221 46.256C193.221 44.688 194.261 43.472 195.877 43.472C197.493 43.472 198.533 44.688 198.533 46.256C198.533 47.824 197.493 49.04 195.877 49.04C194.261 49.04 193.221 47.824 193.221 46.256ZM201.921 50H203.169V37.904H201.921V50ZM211.877 50H213.125V37.904H211.877V43.6H211.845C211.157 42.8 210.245 42.32 209.157 42.32C206.805 42.32 205.221 43.984 205.221 46.256C205.221 48.496 206.869 50.192 208.965 50.192C210.309 50.192 211.381 49.52 211.845 48.672H211.877V50ZM211.877 46.256C211.877 47.824 210.837 49.04 209.221 49.04C207.605 49.04 206.565 47.824 206.565 46.256C206.565 44.688 207.605 43.472 209.221 43.472C210.837 43.472 211.877 44.688 211.877 46.256ZM221.178 47.904C220.586 48.656 219.866 49.04 218.794 49.04C217.434 49.04 216.442 47.936 216.346 46.64H222.394V46.24C222.394 43.76 220.954 42.32 218.842 42.32C216.634 42.32 215.002 43.936 215.002 46.256C215.002 48.432 216.442 50.192 218.794 50.192C220.186 50.192 221.242 49.776 222.122 48.64L221.178 47.904ZM216.346 45.584C216.506 44.32 217.418 43.472 218.794 43.472C220.17 43.472 221.002 44.32 221.05 45.584H216.346ZM224.325 50H225.573V46.352C225.573 44.64 226.245 43.568 227.765 43.568C227.989 43.568 228.229 43.6 228.437 43.664L228.517 42.4C228.341 42.336 228.165 42.32 228.005 42.32C226.773 42.32 225.845 43.008 225.509 43.744H225.477C225.477 43.328 225.445 42.912 225.445 42.512H224.261C224.261 43.008 224.325 43.6 224.325 44.288V50Z" fill="#9EA6B5"/>
<path d="M430.999 47.6664C430.934 47.6668 430.869 47.6539 430.808 47.6288C430.747 47.6036 430.692 47.5665 430.646 47.5198L427.313 44.1864C427.246 44.0892 427.216 43.9716 427.228 43.8543C427.24 43.7371 427.293 43.6278 427.377 43.5457C427.462 43.4636 427.572 43.414 427.69 43.4056C427.807 43.3972 427.924 43.4305 428.019 43.4998L430.999 46.4598L433.979 43.4998C434.073 43.4389 434.185 43.4112 434.297 43.4214C434.408 43.4315 434.513 43.4788 434.595 43.5556C434.676 43.6325 434.729 43.7345 434.746 43.8452C434.763 43.956 434.741 44.0691 434.686 44.1664L431.353 47.4998C431.308 47.5502 431.254 47.5909 431.193 47.6196C431.133 47.6482 431.067 47.6642 430.999 47.6664V47.6664Z" fill="#6B778C"/>
<rect x="132.5" y="28.5" width="319" height="35" rx="3.5" stroke="#9EA6B5"/>
<path d="M1.408 108H2.752V98.592H2.784L9.344 108H11.04V96.672H9.696V106.08H9.664L3.104 96.672H1.408V108ZM13.2051 104.256C13.2051 106.592 14.9011 108.192 17.2051 108.192C19.5091 108.192 21.2051 106.592 21.2051 104.256C21.2051 101.92 19.5091 100.32 17.2051 100.32C14.9011 100.32 13.2051 101.92 13.2051 104.256ZM14.5491 104.256C14.5491 102.688 15.5891 101.472 17.2051 101.472C18.8211 101.472 19.8611 102.688 19.8611 104.256C19.8611 105.824 18.8211 107.04 17.2051 107.04C15.5891 107.04 14.5491 105.824 14.5491 104.256ZM27.2331 100.512H25.0251V98.384H23.7771V100.512H22.1451V101.568H23.7771V105.68C23.7771 107.232 24.0651 108.192 25.8411 108.192C26.3051 108.192 26.8651 108.112 27.2971 107.92L27.2491 106.784C26.9131 106.96 26.5131 107.04 26.1451 107.04C25.0411 107.04 25.0251 106.272 25.0251 105.312V101.568H27.2331V100.512ZM33.4393 108H34.7833V102.912H36.5113L39.5833 108H41.2313L38.0153 102.784C39.7753 102.512 40.8472 101.44 40.8472 99.792C40.8472 96.992 38.5273 96.672 36.3353 96.672H33.4393V108ZM34.7833 97.92H36.6713C37.9833 97.92 39.4073 98.16 39.4073 99.792C39.4073 101.664 37.4713 101.664 35.9833 101.664H34.7833V97.92ZM48.7405 105.904C48.1485 106.656 47.4285 107.04 46.3565 107.04C44.9965 107.04 44.0045 105.936 43.9085 104.64H49.9565V104.24C49.9565 101.76 48.5165 100.32 46.4045 100.32C44.1965 100.32 42.5645 101.936 42.5645 104.256C42.5645 106.432 44.0045 108.192 46.3565 108.192C47.7485 108.192 48.8045 107.776 49.6845 106.64L48.7405 105.904ZM43.9085 103.584C44.0685 102.32 44.9805 101.472 46.3565 101.472C47.7325 101.472 48.5645 102.32 48.6125 103.584H43.9085ZM59.3591 100.512H58.1111V101.84H58.0791C57.6151 100.992 56.5431 100.32 55.1991 100.32C53.1031 100.32 51.4551 102.016 51.4551 104.256C51.4551 106.528 53.0391 108.192 55.3911 108.192C56.4791 108.192 57.3911 107.712 58.0791 106.912H58.1111V111.648H59.3591V100.512ZM58.1111 104.256C58.1111 105.824 57.0711 107.04 55.4551 107.04C53.8391 107.04 52.7991 105.824 52.7991 104.256C52.7991 102.688 53.8391 101.472 55.4551 101.472C57.0711 101.472 58.1111 102.688 58.1111 104.256ZM68.1964 100.512H66.9484V104.16C66.9484 105.872 66.2444 107.04 64.6284 107.04C63.4604 107.04 62.9164 106.256 62.9164 105.008V100.512H61.6684V105.136C61.6684 106.944 62.5484 108.192 64.5164 108.192C65.7484 108.192 66.6764 107.504 67.0124 106.768H67.0444C67.0444 107.184 67.0764 107.6 67.0764 108H68.2604C68.2604 107.504 68.1964 106.912 68.1964 106.224V100.512ZM70.671 108H71.919V100.512H70.671V108ZM70.383 97.584C70.383 98.112 70.767 98.496 71.295 98.496C71.823 98.496 72.207 98.112 72.207 97.584C72.207 97.088 71.807 96.672 71.295 96.672C70.783 96.672 70.383 97.088 70.383 97.584ZM74.4028 108H75.6508V104.352C75.6508 102.64 76.3228 101.568 77.8428 101.568C78.0668 101.568 78.3068 101.6 78.5148 101.664L78.5948 100.4C78.4188 100.336 78.2428 100.32 78.0828 100.32C76.8508 100.32 75.9228 101.008 75.5868 101.744H75.5548C75.5548 101.328 75.5228 100.912 75.5228 100.512H74.3388C74.3388 101.008 74.4028 101.6 74.4028 102.288V108ZM85.4905 105.904C84.8985 106.656 84.1785 107.04 83.1065 107.04C81.7465 107.04 80.7545 105.936 80.6585 104.64H86.7065V104.24C86.7065 101.76 85.2665 100.32 83.1545 100.32C80.9465 100.32 79.3145 101.936 79.3145 104.256C79.3145 106.432 80.7545 108.192 83.1065 108.192C84.4985 108.192 85.5545 107.776 86.4345 106.64L85.4905 105.904ZM80.6585 103.584C80.8185 102.32 81.7305 101.472 83.1065 101.472C84.4825 101.472 85.3145 102.32 85.3625 103.584H80.6585ZM94.8611 108H96.1091V95.904H94.8611V101.6H94.8291C94.1411 100.8 93.2291 100.32 92.1411 100.32C89.7891 100.32 88.2051 101.984 88.2051 104.256C88.2051 106.496 89.8531 108.192 91.9491 108.192C93.2931 108.192 94.3651 107.52 94.8291 106.672H94.8611V108ZM94.8611 104.256C94.8611 105.824 93.8211 107.04 92.2051 107.04C90.5891 107.04 89.5491 105.824 89.5491 104.256C89.5491 102.688 90.5891 101.472 92.2051 101.472C93.8211 101.472 94.8611 102.688 94.8611 104.256Z" fill="black"/>
<g clip-path="url(#clip1_177_34130)">
<path d="M133.408 90H134.752V84.912H140.032V83.664H134.752V79.92H140.432V78.672H133.408V90ZM142.187 90H143.435V82.512H142.187V90ZM141.899 79.584C141.899 80.112 142.283 80.496 142.811 80.496C143.339 80.496 143.723 80.112 143.723 79.584C143.723 79.088 143.323 78.672 142.811 78.672C142.299 78.672 141.899 79.088 141.899 79.584ZM151.662 87.904C151.07 88.656 150.35 89.04 149.278 89.04C147.918 89.04 146.926 87.936 146.83 86.64H152.878V86.24C152.878 83.76 151.438 82.32 149.326 82.32C147.118 82.32 145.486 83.936 145.486 86.256C145.486 88.432 146.926 90.192 149.278 90.192C150.67 90.192 151.726 89.776 152.606 88.64L151.662 87.904ZM146.83 85.584C146.99 84.32 147.902 83.472 149.278 83.472C150.654 83.472 151.486 84.32 151.534 85.584H146.83ZM154.921 90H156.169V77.904H154.921V90ZM164.877 90H166.125V77.904H164.877V83.6H164.845C164.157 82.8 163.245 82.32 162.157 82.32C159.805 82.32 158.221 83.984 158.221 86.256C158.221 88.496 159.869 90.192 161.965 90.192C163.309 90.192 164.381 89.52 164.845 88.672H164.877V90ZM164.877 86.256C164.877 87.824 163.837 89.04 162.221 89.04C160.605 89.04 159.565 87.824 159.565 86.256C159.565 84.688 160.605 83.472 162.221 83.472C163.837 83.472 164.877 84.688 164.877 86.256ZM173.111 90H179.639V88.752H174.455V78.672H173.111V90ZM181.575 84.288C182.167 83.744 182.999 83.472 183.799 83.472C184.967 83.472 185.655 84.032 185.655 85.12V85.344H185.175C183.335 85.344 180.455 85.488 180.455 87.968C180.455 89.424 181.719 90.192 183.239 90.192C184.375 90.192 185.207 89.648 185.703 88.88H185.735C185.735 89.2 185.735 89.664 185.815 90H187.015C186.951 89.616 186.903 89.136 186.903 88.704V85.488C186.903 83.376 185.975 82.32 183.767 82.32C182.679 82.32 181.559 82.688 180.791 83.472L181.575 84.288ZM185.655 86.4V86.88C185.623 88.096 184.887 89.136 183.447 89.136C182.503 89.136 181.799 88.784 181.799 87.84C181.799 86.832 182.823 86.4 184.407 86.4H185.655ZM189.12 90H190.368V88.672H190.4C190.864 89.52 191.936 90.192 193.28 90.192C195.376 90.192 197.024 88.496 197.024 86.256C197.024 83.984 195.44 82.32 193.088 82.32C192 82.32 191.088 82.8 190.4 83.6H190.368V77.904H189.12V90ZM190.368 86.256C190.368 84.688 191.408 83.472 193.024 83.472C194.64 83.472 195.68 84.688 195.68 86.256C195.68 87.824 194.64 89.04 193.024 89.04C191.408 89.04 190.368 87.824 190.368 86.256ZM204.709 87.904C204.117 88.656 203.397 89.04 202.325 89.04C200.965 89.04 199.973 87.936 199.877 86.64H205.925V86.24C205.925 83.76 204.485 82.32 202.373 82.32C200.165 82.32 198.533 83.936 198.533 86.256C198.533 88.432 199.973 90.192 202.325 90.192C203.717 90.192 204.773 89.776 205.653 88.64L204.709 87.904ZM199.877 85.584C200.037 84.32 200.949 83.472 202.325 83.472C203.701 83.472 204.533 84.32 204.581 85.584H199.877ZM207.968 90H209.216V77.904H207.968V90Z" fill="#333333"/>
</g>
<rect x="132.5" y="100.5" width="319" height="35" rx="3.5" fill="white"/>
<path opacity="0.6" d="M145.408 122H146.752V116.912H149.024C150.624 116.912 152.736 116.256 152.736 113.776C152.736 111.408 150.848 110.672 148.768 110.672H145.408V122ZM146.752 111.92H149.024C150.368 111.92 151.296 112.528 151.296 113.792C151.296 115.056 150.368 115.664 149.024 115.664H146.752V111.92ZM154.78 122H156.028V109.904H154.78V122ZM159.2 116.288C159.792 115.744 160.624 115.472 161.424 115.472C162.592 115.472 163.28 116.032 163.28 117.12V117.344H162.8C160.96 117.344 158.08 117.488 158.08 119.968C158.08 121.424 159.344 122.192 160.864 122.192C162 122.192 162.832 121.648 163.328 120.88H163.36C163.36 121.2 163.36 121.664 163.44 122H164.64C164.576 121.616 164.528 121.136 164.528 120.704V117.488C164.528 115.376 163.6 114.32 161.392 114.32C160.304 114.32 159.184 114.688 158.416 115.472L159.2 116.288ZM163.28 118.4V118.88C163.248 120.096 162.512 121.136 161.072 121.136C160.128 121.136 159.424 120.784 159.424 119.84C159.424 118.832 160.448 118.4 162.032 118.4H163.28ZM173.129 115.504C172.377 114.688 171.353 114.32 170.249 114.32C167.945 114.32 166.377 115.984 166.377 118.256C166.377 120.56 167.929 122.192 170.249 122.192C171.337 122.192 172.361 121.824 173.081 120.992L172.153 120.112C171.689 120.752 171.065 121.04 170.249 121.04C168.729 121.04 167.721 119.792 167.721 118.256C167.721 116.72 168.569 115.472 170.249 115.472C171.001 115.472 171.609 115.744 172.137 116.384L173.129 115.504ZM180.272 119.904C179.68 120.656 178.96 121.04 177.888 121.04C176.528 121.04 175.536 119.936 175.44 118.64H181.488V118.24C181.488 115.76 180.048 114.32 177.936 114.32C175.728 114.32 174.096 115.936 174.096 118.256C174.096 120.432 175.536 122.192 177.888 122.192C179.28 122.192 180.336 121.776 181.216 120.64L180.272 119.904ZM175.44 117.584C175.6 116.32 176.512 115.472 177.888 115.472C179.264 115.472 180.096 116.32 180.144 117.584H175.44ZM183.418 122H184.666V118.352C184.666 116.64 185.37 115.472 186.986 115.472C188.154 115.472 188.698 116.256 188.698 117.504V122H189.946V117.376C189.946 115.568 189.066 114.32 187.098 114.32C185.93 114.32 185.034 114.96 184.698 115.552H184.666V109.904H183.418V122ZM191.877 118.256C191.877 120.592 193.573 122.192 195.877 122.192C198.181 122.192 199.877 120.592 199.877 118.256C199.877 115.92 198.181 114.32 195.877 114.32C193.573 114.32 191.877 115.92 191.877 118.256ZM193.221 118.256C193.221 116.688 194.261 115.472 195.877 115.472C197.493 115.472 198.533 116.688 198.533 118.256C198.533 119.824 197.493 121.04 195.877 121.04C194.261 121.04 193.221 119.824 193.221 118.256ZM201.921 122H203.169V109.904H201.921V122ZM211.877 122H213.125V109.904H211.877V115.6H211.845C211.157 114.8 210.245 114.32 209.157 114.32C206.805 114.32 205.221 115.984 205.221 118.256C205.221 120.496 206.869 122.192 208.965 122.192C210.309 122.192 211.381 121.52 211.845 120.672H211.877V122ZM211.877 118.256C211.877 119.824 210.837 121.04 209.221 121.04C207.605 121.04 206.565 119.824 206.565 118.256C206.565 116.688 207.605 115.472 209.221 115.472C210.837 115.472 211.877 116.688 211.877 118.256ZM221.178 119.904C220.586 120.656 219.866 121.04 218.794 121.04C217.434 121.04 216.442 119.936 216.346 118.64H222.394V118.24C222.394 115.76 220.954 114.32 218.842 114.32C216.634 114.32 215.002 115.936 215.002 118.256C215.002 120.432 216.442 122.192 218.794 122.192C220.186 122.192 221.242 121.776 222.122 120.64L221.178 119.904ZM216.346 117.584C216.506 116.32 217.418 115.472 218.794 115.472C220.17 115.472 221.002 116.32 221.05 117.584H216.346ZM224.325 122H225.573V118.352C225.573 116.64 226.245 115.568 227.765 115.568C227.989 115.568 228.229 115.6 228.437 115.664L228.517 114.4C228.341 114.336 228.165 114.32 228.005 114.32C226.773 114.32 225.845 115.008 225.509 115.744H225.477C225.477 115.328 225.445 114.912 225.445 114.512H224.261C224.261 115.008 224.325 115.6 224.325 116.288V122Z" fill="#9EA6B5"/>
<path d="M430.999 119.667C430.934 119.667 430.869 119.654 430.808 119.629C430.747 119.604 430.692 119.567 430.646 119.52L427.313 116.187C427.246 116.089 427.216 115.972 427.228 115.855C427.24 115.737 427.293 115.628 427.377 115.546C427.462 115.464 427.572 115.414 427.69 115.406C427.807 115.397 427.924 115.431 428.019 115.5L430.999 118.46L433.979 115.5C434.073 115.439 434.185 115.411 434.297 115.422C434.408 115.432 434.513 115.479 434.595 115.556C434.676 115.633 434.729 115.735 434.746 115.845C434.763 115.956 434.741 116.069 434.686 116.167L431.353 119.5C431.308 119.55 431.254 119.591 431.193 119.62C431.133 119.648 431.067 119.664 430.999 119.667V119.667Z" fill="#6B778C"/>
<rect x="132.5" y="100.5" width="319" height="35" rx="3.5" stroke="#9EA6B5"/>
<path d="M1.408 178.5H2.752V173.412H4.48L7.552 178.5H9.2L5.984 173.284C7.744 173.012 8.816 171.94 8.816 170.292C8.816 167.492 6.496 167.172 4.304 167.172H1.408V178.5ZM2.752 168.42H4.64C5.952 168.42 7.376 168.66 7.376 170.292C7.376 172.164 5.44 172.164 3.952 172.164H2.752V168.42ZM16.7093 176.404C16.1173 177.156 15.3973 177.54 14.3253 177.54C12.9653 177.54 11.9733 176.436 11.8773 175.14H17.9253V174.74C17.9253 172.26 16.4853 170.82 14.3733 170.82C12.1653 170.82 10.5333 172.436 10.5333 174.756C10.5333 176.932 11.9733 178.692 14.3253 178.692C15.7173 178.692 16.7733 178.276 17.6533 177.14L16.7093 176.404ZM11.8773 174.084C12.0373 172.82 12.9493 171.972 14.3253 171.972C15.7013 171.972 16.5333 172.82 16.5813 174.084H11.8773ZM27.3279 171.012H26.0799V172.34H26.0479C25.5839 171.492 24.5119 170.82 23.1679 170.82C21.0719 170.82 19.4239 172.516 19.4239 174.756C19.4239 177.028 21.0079 178.692 23.3599 178.692C24.4479 178.692 25.3599 178.212 26.0479 177.412H26.0799V182.148H27.3279V171.012ZM26.0799 174.756C26.0799 176.324 25.0399 177.54 23.4239 177.54C21.8079 177.54 20.7679 176.324 20.7679 174.756C20.7679 173.188 21.8079 171.972 23.4239 171.972C25.0399 171.972 26.0799 173.188 26.0799 174.756ZM36.1651 171.012H34.9171V174.66C34.9171 176.372 34.2131 177.54 32.5971 177.54C31.4291 177.54 30.8851 176.756 30.8851 175.508V171.012H29.6371V175.636C29.6371 177.444 30.5171 178.692 32.4851 178.692C33.7171 178.692 34.6451 178.004 34.9811 177.268H35.0131C35.0131 177.684 35.0451 178.1 35.0451 178.5H36.2291C36.2291 178.004 36.1651 177.412 36.1651 176.724V171.012ZM38.6398 178.5H39.8878V171.012H38.6398V178.5ZM38.3518 168.084C38.3518 168.612 38.7358 168.996 39.2638 168.996C39.7918 168.996 40.1758 168.612 40.1758 168.084C40.1758 167.588 39.7758 167.172 39.2638 167.172C38.7518 167.172 38.3518 167.588 38.3518 168.084ZM42.3715 178.5H43.6195V174.852C43.6195 173.14 44.2915 172.068 45.8115 172.068C46.0355 172.068 46.2755 172.1 46.4835 172.164L46.5635 170.9C46.3875 170.836 46.2115 170.82 46.0515 170.82C44.8195 170.82 43.8915 171.508 43.5555 172.244H43.5235C43.5235 171.828 43.4915 171.412 43.4915 171.012H42.3075C42.3075 171.508 42.3715 172.1 42.3715 172.788V178.5ZM53.4593 176.404C52.8673 177.156 52.1473 177.54 51.0753 177.54C49.7153 177.54 48.7233 176.436 48.6273 175.14H54.6753V174.74C54.6753 172.26 53.2353 170.82 51.1233 170.82C48.9153 170.82 47.2833 172.436 47.2833 174.756C47.2833 176.932 48.7233 178.692 51.0753 178.692C52.4673 178.692 53.5233 178.276 54.4033 177.14L53.4593 176.404ZM48.6273 174.084C48.7873 172.82 49.6993 171.972 51.0753 171.972C52.4513 171.972 53.2833 172.82 53.3313 174.084H48.6273ZM62.8299 178.5H64.0779V166.404H62.8299V172.1H62.7979C62.1099 171.3 61.1979 170.82 60.1099 170.82C57.7579 170.82 56.1739 172.484 56.1739 174.756C56.1739 176.996 57.8219 178.692 59.9179 178.692C61.2619 178.692 62.3339 178.02 62.7979 177.172H62.8299V178.5ZM62.8299 174.756C62.8299 176.324 61.7899 177.54 60.1739 177.54C58.5579 177.54 57.5179 176.324 57.5179 174.756C57.5179 173.188 58.5579 171.972 60.1739 171.972C61.7899 171.972 62.8299 173.188 62.8299 174.756ZM81.2883 171.012H79.9443L78.2483 176.772H78.2163L76.2483 171.012H74.9363L73.0003 176.772H72.9683L71.2563 171.012H69.8803L72.3123 178.5H73.5923L75.4803 172.74H75.5123L77.6403 178.5H78.8723L81.2883 171.012ZM87.3876 166.884L86.3796 166.5L81.5636 178.788L82.5716 179.188L87.3876 166.884ZM1.184 202.5H2.432V198.852C2.432 197.14 3.136 195.972 4.752 195.972C5.92 195.972 6.464 196.756 6.464 198.004V202.5H7.712V197.876C7.712 196.068 6.832 194.82 4.864 194.82C3.696 194.82 2.8 195.46 2.464 196.052H2.432V190.404H1.184V202.5ZM15.8186 200.404C15.2266 201.156 14.5066 201.54 13.4346 201.54C12.0746 201.54 11.0826 200.436 10.9866 199.14H17.0346V198.74C17.0346 196.26 15.5946 194.82 13.4826 194.82C11.2746 194.82 9.64263 196.436 9.64263 198.756C9.64263 200.932 11.0826 202.692 13.4346 202.692C14.8266 202.692 15.8826 202.276 16.7626 201.14L15.8186 200.404ZM10.9866 198.084C11.1466 196.82 12.0586 195.972 13.4346 195.972C14.8106 195.972 15.6426 196.82 15.6906 198.084H10.9866ZM19.0773 202.5H20.3253V190.404H19.0773V202.5ZM22.745 206.148H23.993V201.172H24.025C24.489 202.02 25.561 202.692 26.905 202.692C29.001 202.692 30.649 200.996 30.649 198.756C30.649 196.484 29.065 194.82 26.713 194.82C25.625 194.82 24.713 195.3 24.025 196.1H23.993V195.012H22.745V206.148ZM23.993 198.756C23.993 197.188 25.033 195.972 26.649 195.972C28.265 195.972 29.305 197.188 29.305 198.756C29.305 200.324 28.265 201.54 26.649 201.54C25.033 201.54 23.993 200.324 23.993 198.756ZM41.1394 195.012H38.9314V192.884H37.6834V195.012H36.0514V196.068H37.6834V200.18C37.6834 201.732 37.9714 202.692 39.7474 202.692C40.2114 202.692 40.7714 202.612 41.2034 202.42L41.1554 201.284C40.8194 201.46 40.4194 201.54 40.0514 201.54C38.9474 201.54 38.9314 200.772 38.9314 199.812V196.068H41.1394V195.012ZM48.4124 200.404C47.8204 201.156 47.1004 201.54 46.0284 201.54C44.6684 201.54 43.6764 200.436 43.5804 199.14H49.6284V198.74C49.6284 196.26 48.1884 194.82 46.0764 194.82C43.8684 194.82 42.2364 196.436 42.2364 198.756C42.2364 200.932 43.6764 202.692 46.0284 202.692C47.4204 202.692 48.4764 202.276 49.3564 201.14L48.4124 200.404ZM43.5804 198.084C43.7404 196.82 44.6524 195.972 46.0284 195.972C47.4044 195.972 48.2364 196.82 48.2844 198.084H43.5804ZM50.423 202.5H51.975L54.311 199.268L56.679 202.5H58.327L55.239 198.468L57.815 195.012H56.295L54.423 197.7L52.439 195.012H50.807L53.495 198.468L50.423 202.5ZM63.655 195.012H61.447V192.884H60.199V195.012H58.567V196.068H60.199V200.18C60.199 201.732 60.487 202.692 62.263 202.692C62.727 202.692 63.287 202.612 63.719 202.42L63.671 201.284C63.335 201.46 62.935 201.54 62.567 201.54C61.463 201.54 61.447 200.772 61.447 199.812V196.068H63.655V195.012Z" fill="black"/>
<g clip-path="url(#clip2_177_34130)">
<path d="M133.408 162H134.752V156.912H140.032V155.664H134.752V151.92H140.432V150.672H133.408V162ZM142.187 162H143.435V154.512H142.187V162ZM141.899 151.584C141.899 152.112 142.283 152.496 142.811 152.496C143.339 152.496 143.723 152.112 143.723 151.584C143.723 151.088 143.323 150.672 142.811 150.672C142.299 150.672 141.899 151.088 141.899 151.584ZM151.662 159.904C151.07 160.656 150.35 161.04 149.278 161.04C147.918 161.04 146.926 159.936 146.83 158.64H152.878V158.24C152.878 155.76 151.438 154.32 149.326 154.32C147.118 154.32 145.486 155.936 145.486 158.256C145.486 160.432 146.926 162.192 149.278 162.192C150.67 162.192 151.726 161.776 152.606 160.64L151.662 159.904ZM146.83 157.584C146.99 156.32 147.902 155.472 149.278 155.472C150.654 155.472 151.486 156.32 151.534 157.584H146.83ZM154.921 162H156.169V149.904H154.921V162ZM164.877 162H166.125V149.904H164.877V155.6H164.845C164.157 154.8 163.245 154.32 162.157 154.32C159.805 154.32 158.221 155.984 158.221 158.256C158.221 160.496 159.869 162.192 161.965 162.192C163.309 162.192 164.381 161.52 164.845 160.672H164.877V162ZM164.877 158.256C164.877 159.824 163.837 161.04 162.221 161.04C160.605 161.04 159.565 159.824 159.565 158.256C159.565 156.688 160.605 155.472 162.221 155.472C163.837 155.472 164.877 156.688 164.877 158.256ZM173.111 162H179.639V160.752H174.455V150.672H173.111V162ZM181.575 156.288C182.167 155.744 182.999 155.472 183.799 155.472C184.967 155.472 185.655 156.032 185.655 157.12V157.344H185.175C183.335 157.344 180.455 157.488 180.455 159.968C180.455 161.424 181.719 162.192 183.239 162.192C184.375 162.192 185.207 161.648 185.703 160.88H185.735C185.735 161.2 185.735 161.664 185.815 162H187.015C186.951 161.616 186.903 161.136 186.903 160.704V157.488C186.903 155.376 185.975 154.32 183.767 154.32C182.679 154.32 181.559 154.688 180.791 155.472L181.575 156.288ZM185.655 158.4V158.88C185.623 160.096 184.887 161.136 183.447 161.136C182.503 161.136 181.799 160.784 181.799 159.84C181.799 158.832 182.823 158.4 184.407 158.4H185.655ZM189.12 162H190.368V160.672H190.4C190.864 161.52 191.936 162.192 193.28 162.192C195.376 162.192 197.024 160.496 197.024 158.256C197.024 155.984 195.44 154.32 193.088 154.32C192 154.32 191.088 154.8 190.4 155.6H190.368V149.904H189.12V162ZM190.368 158.256C190.368 156.688 191.408 155.472 193.024 155.472C194.64 155.472 195.68 156.688 195.68 158.256C195.68 159.824 194.64 161.04 193.024 161.04C191.408 161.04 190.368 159.824 190.368 158.256ZM204.709 159.904C204.117 160.656 203.397 161.04 202.325 161.04C200.965 161.04 199.973 159.936 199.877 158.64H205.925V158.24C205.925 155.76 204.485 154.32 202.373 154.32C200.165 154.32 198.533 155.936 198.533 158.256C198.533 160.432 199.973 162.192 202.325 162.192C203.717 162.192 204.773 161.776 205.653 160.64L204.709 159.904ZM199.877 157.584C200.037 156.32 200.949 155.472 202.325 155.472C203.701 155.472 204.533 156.32 204.581 157.584H199.877ZM207.968 162H209.216V149.904H207.968V162Z" fill="#333333"/>
<path opacity="0.8" d="M219.384 148.672H218.04V150.944L215.864 150.192L215.448 151.472L217.64 152.224L216.264 154.032L217.336 154.848L218.68 153.008L220.056 154.896L221.16 154.096L219.784 152.224L221.96 151.52L221.544 150.24L219.384 150.944V148.672Z" fill="#DB3259"/>
</g>
<rect x="132.5" y="172.5" width="319" height="35" rx="3.5" fill="white"/>
<path opacity="0.6" d="M145.408 194H146.752V188.912H149.024C150.624 188.912 152.736 188.256 152.736 185.776C152.736 183.408 150.848 182.672 148.768 182.672H145.408V194ZM146.752 183.92H149.024C150.368 183.92 151.296 184.528 151.296 185.792C151.296 187.056 150.368 187.664 149.024 187.664H146.752V183.92ZM154.78 194H156.028V181.904H154.78V194ZM159.2 188.288C159.792 187.744 160.624 187.472 161.424 187.472C162.592 187.472 163.28 188.032 163.28 189.12V189.344H162.8C160.96 189.344 158.08 189.488 158.08 191.968C158.08 193.424 159.344 194.192 160.864 194.192C162 194.192 162.832 193.648 163.328 192.88H163.36C163.36 193.2 163.36 193.664 163.44 194H164.64C164.576 193.616 164.528 193.136 164.528 192.704V189.488C164.528 187.376 163.6 186.32 161.392 186.32C160.304 186.32 159.184 186.688 158.416 187.472L159.2 188.288ZM163.28 190.4V190.88C163.248 192.096 162.512 193.136 161.072 193.136C160.128 193.136 159.424 192.784 159.424 191.84C159.424 190.832 160.448 190.4 162.032 190.4H163.28ZM173.129 187.504C172.377 186.688 171.353 186.32 170.249 186.32C167.945 186.32 166.377 187.984 166.377 190.256C166.377 192.56 167.929 194.192 170.249 194.192C171.337 194.192 172.361 193.824 173.081 192.992L172.153 192.112C171.689 192.752 171.065 193.04 170.249 193.04C168.729 193.04 167.721 191.792 167.721 190.256C167.721 188.72 168.569 187.472 170.249 187.472C171.001 187.472 171.609 187.744 172.137 188.384L173.129 187.504ZM180.272 191.904C179.68 192.656 178.96 193.04 177.888 193.04C176.528 193.04 175.536 191.936 175.44 190.64H181.488V190.24C181.488 187.76 180.048 186.32 177.936 186.32C175.728 186.32 174.096 187.936 174.096 190.256C174.096 192.432 175.536 194.192 177.888 194.192C179.28 194.192 180.336 193.776 181.216 192.64L180.272 191.904ZM175.44 189.584C175.6 188.32 176.512 187.472 177.888 187.472C179.264 187.472 180.096 188.32 180.144 189.584H175.44ZM183.418 194H184.666V190.352C184.666 188.64 185.37 187.472 186.986 187.472C188.154 187.472 188.698 188.256 188.698 189.504V194H189.946V189.376C189.946 187.568 189.066 186.32 187.098 186.32C185.93 186.32 185.034 186.96 184.698 187.552H184.666V181.904H183.418V194ZM191.877 190.256C191.877 192.592 193.573 194.192 195.877 194.192C198.181 194.192 199.877 192.592 199.877 190.256C199.877 187.92 198.181 186.32 195.877 186.32C193.573 186.32 191.877 187.92 191.877 190.256ZM193.221 190.256C193.221 188.688 194.261 187.472 195.877 187.472C197.493 187.472 198.533 188.688 198.533 190.256C198.533 191.824 197.493 193.04 195.877 193.04C194.261 193.04 193.221 191.824 193.221 190.256ZM201.921 194H203.169V181.904H201.921V194ZM211.877 194H213.125V181.904H211.877V187.6H211.845C211.157 186.8 210.245 186.32 209.157 186.32C206.805 186.32 205.221 187.984 205.221 190.256C205.221 192.496 206.869 194.192 208.965 194.192C210.309 194.192 211.381 193.52 211.845 192.672H211.877V194ZM211.877 190.256C211.877 191.824 210.837 193.04 209.221 193.04C207.605 193.04 206.565 191.824 206.565 190.256C206.565 188.688 207.605 187.472 209.221 187.472C210.837 187.472 211.877 188.688 211.877 190.256ZM221.178 191.904C220.586 192.656 219.866 193.04 218.794 193.04C217.434 193.04 216.442 191.936 216.346 190.64H222.394V190.24C222.394 187.76 220.954 186.32 218.842 186.32C216.634 186.32 215.002 187.936 215.002 190.256C215.002 192.432 216.442 194.192 218.794 194.192C220.186 194.192 221.242 193.776 222.122 192.64L221.178 191.904ZM216.346 189.584C216.506 188.32 217.418 187.472 218.794 187.472C220.17 187.472 221.002 188.32 221.05 189.584H216.346ZM224.325 194H225.573V190.352C225.573 188.64 226.245 187.568 227.765 187.568C227.989 187.568 228.229 187.6 228.437 187.664L228.517 186.4C228.341 186.336 228.165 186.32 228.005 186.32C226.773 186.32 225.845 187.008 225.509 187.744H225.477C225.477 187.328 225.445 186.912 225.445 186.512H224.261C224.261 187.008 224.325 187.6 224.325 188.288V194Z" fill="#9EA6B5"/>
<path d="M430.999 191.667C430.934 191.667 430.869 191.654 430.808 191.629C430.747 191.604 430.692 191.567 430.646 191.52L427.313 188.187C427.246 188.089 427.216 187.972 427.228 187.855C427.24 187.737 427.293 187.628 427.377 187.546C427.462 187.464 427.572 187.414 427.69 187.406C427.807 187.397 427.924 187.431 428.019 187.5L430.999 190.46L433.979 187.5C434.073 187.439 434.185 187.411 434.297 187.422C434.408 187.432 434.513 187.479 434.595 187.556C434.676 187.633 434.729 187.735 434.746 187.845C434.763 187.956 434.741 188.069 434.686 188.167L431.353 191.5C431.308 191.55 431.254 191.591 431.193 191.62C431.133 191.648 431.067 191.664 430.999 191.667V191.667Z" fill="#6B778C"/>
<rect x="132.5" y="172.5" width="319" height="35" rx="3.5" stroke="#9EA6B5"/>
<g clip-path="url(#clip3_177_34130)">
<path d="M139.882 213.088H132.154V214.18H135.43V223H136.606V214.18H139.882V213.088ZM141.075 223H142.167V219.808C142.167 218.31 142.783 217.288 144.197 217.288C145.219 217.288 145.695 217.974 145.695 219.066V223H146.787V218.954C146.787 217.372 146.017 216.28 144.295 216.28C143.273 216.28 142.489 216.84 142.195 217.358H142.167V212.416H141.075V223ZM148.952 223H150.044V216.448H148.952V223ZM148.7 213.886C148.7 214.348 149.036 214.684 149.498 214.684C149.96 214.684 150.296 214.348 150.296 213.886C150.296 213.452 149.946 213.088 149.498 213.088C149.05 213.088 148.7 213.452 148.7 213.886ZM151.49 221.95C152.134 222.874 152.932 223.168 154.038 223.168C155.34 223.168 156.656 222.594 156.656 221.11C156.656 219.794 155.676 219.374 154.514 219.15C153.646 218.982 152.862 218.744 152.862 218.198C152.862 217.582 153.548 217.288 154.15 217.288C154.794 217.288 155.256 217.61 155.536 218.072L156.446 217.47C155.998 216.63 155.144 216.28 154.22 216.28C153.002 216.28 151.77 216.938 151.77 218.212C151.77 219.57 152.834 219.836 154.08 220.116C154.78 220.27 155.48 220.452 155.48 221.152C155.48 221.866 154.724 222.16 154.038 222.16C153.268 222.16 152.792 221.81 152.358 221.278L151.49 221.95ZM162.173 223H163.265V216.448H162.173V223ZM161.921 213.886C161.921 214.348 162.257 214.684 162.719 214.684C163.181 214.684 163.517 214.348 163.517 213.886C163.517 213.452 163.167 213.088 162.719 213.088C162.271 213.088 161.921 213.452 161.921 213.886ZM164.71 221.95C165.354 222.874 166.152 223.168 167.258 223.168C168.56 223.168 169.876 222.594 169.876 221.11C169.876 219.794 168.896 219.374 167.734 219.15C166.866 218.982 166.082 218.744 166.082 218.198C166.082 217.582 166.768 217.288 167.37 217.288C168.014 217.288 168.476 217.61 168.756 218.072L169.666 217.47C169.218 216.63 168.364 216.28 167.44 216.28C166.222 216.28 164.99 216.938 164.99 218.212C164.99 219.57 166.054 219.836 167.3 220.116C168 220.27 168.7 220.452 168.7 221.152C168.7 221.866 167.944 222.16 167.258 222.16C166.488 222.16 166.012 221.81 165.578 221.278L164.71 221.95ZM178.88 216.448H176.948V214.586H175.856V216.448H174.428V217.372H175.856V220.97C175.856 222.328 176.108 223.168 177.662 223.168C178.068 223.168 178.558 223.098 178.936 222.93L178.894 221.936C178.6 222.09 178.25 222.16 177.928 222.16C176.962 222.16 176.948 221.488 176.948 220.648V217.372H178.88V216.448ZM180.218 223H181.31V219.808C181.31 218.31 181.926 217.288 183.34 217.288C184.362 217.288 184.838 217.974 184.838 219.066V223H185.93V218.954C185.93 217.372 185.16 216.28 183.438 216.28C182.416 216.28 181.632 216.84 181.338 217.358H181.31V212.416H180.218V223ZM193.023 221.166C192.505 221.824 191.875 222.16 190.937 222.16C189.747 222.16 188.879 221.194 188.795 220.06H194.087V219.71C194.087 217.54 192.827 216.28 190.979 216.28C189.047 216.28 187.619 217.694 187.619 219.724C187.619 221.628 188.879 223.168 190.937 223.168C192.155 223.168 193.079 222.804 193.849 221.81L193.023 221.166ZM188.795 219.136C188.935 218.03 189.733 217.288 190.937 217.288C192.141 217.288 192.869 218.03 192.911 219.136H188.795ZM205.119 223H206.211V212.416H205.119V217.4H205.091C204.489 216.7 203.691 216.28 202.739 216.28C200.681 216.28 199.295 217.736 199.295 219.724C199.295 221.684 200.737 223.168 202.571 223.168C203.747 223.168 204.685 222.58 205.091 221.838H205.119V223ZM205.119 219.724C205.119 221.096 204.209 222.16 202.795 222.16C201.381 222.16 200.471 221.096 200.471 219.724C200.471 218.352 201.381 217.288 202.795 217.288C204.209 217.288 205.119 218.352 205.119 219.724ZM213.257 221.166C212.739 221.824 212.109 222.16 211.171 222.16C209.981 222.16 209.113 221.194 209.029 220.06H214.321V219.71C214.321 217.54 213.061 216.28 211.213 216.28C209.281 216.28 207.853 217.694 207.853 219.724C207.853 221.628 209.113 223.168 211.171 223.168C212.389 223.168 213.313 222.804 214.083 221.81L213.257 221.166ZM209.029 219.136C209.169 218.03 209.967 217.288 211.171 217.288C212.375 217.288 213.103 218.03 213.145 219.136H209.029ZM215.283 221.95C215.927 222.874 216.725 223.168 217.831 223.168C219.133 223.168 220.449 222.594 220.449 221.11C220.449 219.794 219.469 219.374 218.307 219.15C217.439 218.982 216.655 218.744 216.655 218.198C216.655 217.582 217.341 217.288 217.943 217.288C218.587 217.288 219.049 217.61 219.329 218.072L220.239 217.47C219.791 216.63 218.937 216.28 218.013 216.28C216.795 216.28 215.563 216.938 215.563 218.212C215.563 219.57 216.627 219.836 217.873 220.116C218.573 220.27 219.273 220.452 219.273 221.152C219.273 221.866 218.517 222.16 217.831 222.16C217.061 222.16 216.585 221.81 216.151 221.278L215.283 221.95ZM227.502 217.316C226.844 216.602 225.948 216.28 224.982 216.28C222.966 216.28 221.594 217.736 221.594 219.724C221.594 221.74 222.952 223.168 224.982 223.168C225.934 223.168 226.83 222.846 227.46 222.118L226.648 221.348C226.242 221.908 225.696 222.16 224.982 222.16C223.652 222.16 222.77 221.068 222.77 219.724C222.77 218.38 223.512 217.288 224.982 217.288C225.64 217.288 226.172 217.526 226.634 218.086L227.502 217.316ZM228.725 223H229.817V219.808C229.817 218.31 230.405 217.372 231.735 217.372C231.931 217.372 232.141 217.4 232.323 217.456L232.393 216.35C232.239 216.294 232.085 216.28 231.945 216.28C230.867 216.28 230.055 216.882 229.761 217.526H229.733C229.733 217.162 229.705 216.798 229.705 216.448H228.669C228.669 216.882 228.725 217.4 228.725 218.002V223ZM233.745 223H234.837V216.448H233.745V223ZM233.493 213.886C233.493 214.348 233.829 214.684 234.291 214.684C234.753 214.684 235.089 214.348 235.089 213.886C235.089 213.452 234.739 213.088 234.291 213.088C233.843 213.088 233.493 213.452 233.493 213.886ZM236.955 226.192H238.047V221.838H238.075C238.481 222.58 239.419 223.168 240.595 223.168C242.429 223.168 243.871 221.684 243.871 219.724C243.871 217.736 242.485 216.28 240.427 216.28C239.475 216.28 238.677 216.7 238.075 217.4H238.047V216.448H236.955V226.192ZM238.047 219.724C238.047 218.352 238.957 217.288 240.371 217.288C241.785 217.288 242.695 218.352 242.695 219.724C242.695 221.096 241.785 222.16 240.371 222.16C238.957 222.16 238.047 221.096 238.047 219.724ZM249.153 216.448H247.221V214.586H246.129V216.448H244.701V217.372H246.129V220.97C246.129 222.328 246.381 223.168 247.935 223.168C248.341 223.168 248.831 223.098 249.209 222.93L249.167 221.936C248.873 222.09 248.523 222.16 248.201 222.16C247.235 222.16 247.221 221.488 247.221 220.648V217.372H249.153V216.448ZM250.589 223H251.681V216.448H250.589V223ZM250.337 213.886C250.337 214.348 250.673 214.684 251.135 214.684C251.597 214.684 251.933 214.348 251.933 213.886C251.933 213.452 251.583 213.088 251.135 213.088C250.687 213.088 250.337 213.452 250.337 213.886ZM253.476 219.724C253.476 221.768 254.96 223.168 256.976 223.168C258.992 223.168 260.476 221.768 260.476 219.724C260.476 217.68 258.992 216.28 256.976 216.28C254.96 216.28 253.476 217.68 253.476 219.724ZM254.652 219.724C254.652 218.352 255.562 217.288 256.976 217.288C258.39 217.288 259.3 218.352 259.3 219.724C259.3 221.096 258.39 222.16 256.976 222.16C255.562 222.16 254.652 221.096 254.652 219.724ZM262.167 223H263.259V219.808C263.259 218.31 263.875 217.288 265.289 217.288C266.311 217.288 266.787 217.974 266.787 219.066V223H267.879V218.954C267.879 217.372 267.109 216.28 265.387 216.28C264.309 216.28 263.497 216.882 263.203 217.526H263.175C263.175 217.162 263.147 216.798 263.147 216.448H262.111C262.111 216.882 262.167 217.4 262.167 218.002V223ZM274.445 218.002C274.963 217.526 275.691 217.288 276.391 217.288C277.413 217.288 278.015 217.778 278.015 218.73V218.926H277.595C275.985 218.926 273.465 219.052 273.465 221.222C273.465 222.496 274.571 223.168 275.901 223.168C276.895 223.168 277.623 222.692 278.057 222.02H278.085C278.085 222.3 278.085 222.706 278.155 223H279.205C279.149 222.664 279.107 222.244 279.107 221.866V219.052C279.107 217.204 278.295 216.28 276.363 216.28C275.411 216.28 274.431 216.602 273.759 217.288L274.445 218.002ZM278.015 219.85V220.27C277.987 221.334 277.343 222.244 276.083 222.244C275.257 222.244 274.641 221.936 274.641 221.11C274.641 220.228 275.537 219.85 276.923 219.85H278.015ZM281.102 223H282.194V219.808C282.194 218.31 282.782 217.372 284.112 217.372C284.308 217.372 284.518 217.4 284.7 217.456L284.77 216.35C284.616 216.294 284.462 216.28 284.322 216.28C283.244 216.28 282.432 216.882 282.138 217.526H282.11C282.11 217.162 282.082 216.798 282.082 216.448H281.046C281.046 216.882 281.102 217.4 281.102 218.002V223ZM290.804 221.166C290.286 221.824 289.656 222.16 288.718 222.16C287.528 222.16 286.66 221.194 286.576 220.06H291.868V219.71C291.868 217.54 290.608 216.28 288.76 216.28C286.828 216.28 285.4 217.694 285.4 219.724C285.4 221.628 286.66 223.168 288.718 223.168C289.936 223.168 290.86 222.804 291.63 221.81L290.804 221.166ZM286.576 219.136C286.716 218.03 287.514 217.288 288.718 217.288C289.922 217.288 290.65 218.03 290.692 219.136H286.576ZM294.159 218.002C294.677 217.526 295.405 217.288 296.105 217.288C297.127 217.288 297.729 217.778 297.729 218.73V218.926H297.309C295.699 218.926 293.179 219.052 293.179 221.222C293.179 222.496 294.285 223.168 295.615 223.168C296.609 223.168 297.337 222.692 297.771 222.02H297.799C297.799 222.3 297.799 222.706 297.869 223H298.919C298.863 222.664 298.821 222.244 298.821 221.866V219.052C298.821 217.204 298.009 216.28 296.077 216.28C295.125 216.28 294.145 216.602 293.473 217.288L294.159 218.002ZM297.729 219.85V220.27C297.701 221.334 297.057 222.244 295.797 222.244C294.971 222.244 294.355 221.936 294.355 221.11C294.355 220.228 295.251 219.85 296.637 219.85H297.729Z" fill="#333333"/>
</g>
<path d="M1.408 271.5H2.752V262.092H2.784L9.344 271.5H11.04V260.172H9.696V269.58H9.664L3.104 260.172H1.408V271.5ZM13.2051 267.756C13.2051 270.092 14.9011 271.692 17.2051 271.692C19.5091 271.692 21.2051 270.092 21.2051 267.756C21.2051 265.42 19.5091 263.82 17.2051 263.82C14.9011 263.82 13.2051 265.42 13.2051 267.756ZM14.5491 267.756C14.5491 266.188 15.5891 264.972 17.2051 264.972C18.8211 264.972 19.8611 266.188 19.8611 267.756C19.8611 269.324 18.8211 270.54 17.2051 270.54C15.5891 270.54 14.5491 269.324 14.5491 267.756ZM27.2331 264.012H25.0251V261.884H23.7771V264.012H22.1451V265.068H23.7771V269.18C23.7771 270.732 24.0651 271.692 25.8411 271.692C26.3051 271.692 26.8651 271.612 27.2971 271.42L27.2491 270.284C26.9131 270.46 26.5131 270.54 26.1451 270.54C25.0411 270.54 25.0251 269.772 25.0251 268.812V265.068H27.2331V264.012ZM33.2153 271.5H34.4633V267.852C34.4633 266.14 35.1353 265.068 36.6553 265.068C36.8793 265.068 37.1193 265.1 37.3273 265.164L37.4073 263.9C37.2313 263.836 37.0553 263.82 36.8953 263.82C35.6633 263.82 34.7353 264.508 34.3993 265.244H34.3673C34.3673 264.828 34.3353 264.412 34.3353 264.012H33.1513C33.1513 264.508 33.2153 265.1 33.2153 265.788V271.5ZM44.303 269.404C43.711 270.156 42.991 270.54 41.919 270.54C40.559 270.54 39.567 269.436 39.471 268.14H45.519V267.74C45.519 265.26 44.079 263.82 41.967 263.82C39.759 263.82 38.127 265.436 38.127 267.756C38.127 269.932 39.567 271.692 41.919 271.692C43.311 271.692 44.367 271.276 45.247 270.14L44.303 269.404ZM39.471 267.084C39.631 265.82 40.543 264.972 41.919 264.972C43.295 264.972 44.127 265.82 44.175 267.084H39.471ZM54.9216 264.012H53.6736V265.34H53.6416C53.1776 264.492 52.1056 263.82 50.7616 263.82C48.6656 263.82 47.0176 265.516 47.0176 267.756C47.0176 270.028 48.6016 271.692 50.9536 271.692C52.0416 271.692 52.9536 271.212 53.6416 270.412H53.6736V275.148H54.9216V264.012ZM53.6736 267.756C53.6736 269.324 52.6336 270.54 51.0176 270.54C49.4016 270.54 48.3616 269.324 48.3616 267.756C48.3616 266.188 49.4016 264.972 51.0176 264.972C52.6336 264.972 53.6736 266.188 53.6736 267.756ZM63.7589 264.012H62.5109V267.66C62.5109 269.372 61.8069 270.54 60.1909 270.54C59.0229 270.54 58.4789 269.756 58.4789 268.508V264.012H57.2309V268.636C57.2309 270.444 58.1109 271.692 60.0789 271.692C61.3109 271.692 62.2389 271.004 62.5749 270.268H62.6069C62.6069 270.684 62.6389 271.1 62.6389 271.5H63.8229C63.8229 271.004 63.7589 270.412 63.7589 269.724V264.012ZM66.2335 271.5H67.4815V264.012H66.2335V271.5ZM65.9455 261.084C65.9455 261.612 66.3295 261.996 66.8575 261.996C67.3855 261.996 67.7695 261.612 67.7695 261.084C67.7695 260.588 67.3695 260.172 66.8575 260.172C66.3455 260.172 65.9455 260.588 65.9455 261.084ZM69.9653 271.5H71.2133V267.852C71.2133 266.14 71.8853 265.068 73.4053 265.068C73.6293 265.068 73.8693 265.1 74.0773 265.164L74.1573 263.9C73.9813 263.836 73.8053 263.82 73.6453 263.82C72.4133 263.82 71.4853 264.508 71.1493 265.244H71.1173C71.1173 264.828 71.0853 264.412 71.0853 264.012H69.9013C69.9013 264.508 69.9653 265.1 69.9653 265.788V271.5ZM81.053 269.404C80.461 270.156 79.741 270.54 78.669 270.54C77.309 270.54 76.317 269.436 76.221 268.14H82.269V267.74C82.269 265.26 80.829 263.82 78.717 263.82C76.509 263.82 74.877 265.436 74.877 267.756C74.877 269.932 76.317 271.692 78.669 271.692C80.061 271.692 81.117 271.276 81.997 270.14L81.053 269.404ZM76.221 267.084C76.381 265.82 77.293 264.972 78.669 264.972C80.045 264.972 80.877 265.82 80.925 267.084H76.221ZM90.4236 271.5H91.6716V259.404H90.4236V265.1H90.3916C89.7036 264.3 88.7916 263.82 87.7036 263.82C85.3516 263.82 83.7676 265.484 83.7676 267.756C83.7676 269.996 85.4156 271.692 87.5116 271.692C88.8556 271.692 89.9276 271.02 90.3916 270.172H90.4236V271.5ZM90.4236 267.756C90.4236 269.324 89.3836 270.54 87.7676 270.54C86.1516 270.54 85.1116 269.324 85.1116 267.756C85.1116 266.188 86.1516 264.972 87.7676 264.972C89.3836 264.972 90.4236 266.188 90.4236 267.756ZM108.882 264.012H107.538L105.842 269.772H105.81L103.842 264.012H102.53L100.594 269.772H100.562L98.85 264.012H97.474L99.906 271.5H101.186L103.074 265.74H103.106L105.234 271.5H106.466L108.882 264.012ZM114.981 259.884L113.973 259.5L109.157 271.788L110.165 272.188L114.981 259.884ZM1.184 295.5H2.432V291.852C2.432 290.14 3.136 288.972 4.752 288.972C5.92 288.972 6.464 289.756 6.464 291.004V295.5H7.712V290.876C7.712 289.068 6.832 287.82 4.864 287.82C3.696 287.82 2.8 288.46 2.464 289.052H2.432V283.404H1.184V295.5ZM15.8186 293.404C15.2266 294.156 14.5066 294.54 13.4346 294.54C12.0746 294.54 11.0826 293.436 10.9866 292.14H17.0346V291.74C17.0346 289.26 15.5946 287.82 13.4826 287.82C11.2746 287.82 9.64263 289.436 9.64263 291.756C9.64263 293.932 11.0826 295.692 13.4346 295.692C14.8266 295.692 15.8826 295.276 16.7626 294.14L15.8186 293.404ZM10.9866 291.084C11.1466 289.82 12.0586 288.972 13.4346 288.972C14.8106 288.972 15.6426 289.82 15.6906 291.084H10.9866ZM19.0773 295.5H20.3253V283.404H19.0773V295.5ZM22.745 299.148H23.993V294.172H24.025C24.489 295.02 25.561 295.692 26.905 295.692C29.001 295.692 30.649 293.996 30.649 291.756C30.649 289.484 29.065 287.82 26.713 287.82C25.625 287.82 24.713 288.3 24.025 289.1H23.993V288.012H22.745V299.148ZM23.993 291.756C23.993 290.188 25.033 288.972 26.649 288.972C28.265 288.972 29.305 290.188 29.305 291.756C29.305 293.324 28.265 294.54 26.649 294.54C25.033 294.54 23.993 293.324 23.993 291.756ZM41.1394 288.012H38.9314V285.884H37.6834V288.012H36.0514V289.068H37.6834V293.18C37.6834 294.732 37.9714 295.692 39.7474 295.692C40.2114 295.692 40.7714 295.612 41.2034 295.42L41.1554 294.284C40.8194 294.46 40.4194 294.54 40.0514 294.54C38.9474 294.54 38.9314 293.772 38.9314 292.812V289.068H41.1394V288.012ZM48.4124 293.404C47.8204 294.156 47.1004 294.54 46.0284 294.54C44.6684 294.54 43.6764 293.436 43.5804 292.14H49.6284V291.74C49.6284 289.26 48.1884 287.82 46.0764 287.82C43.8684 287.82 42.2364 289.436 42.2364 291.756C42.2364 293.932 43.6764 295.692 46.0284 295.692C47.4204 295.692 48.4764 295.276 49.3564 294.14L48.4124 293.404ZM43.5804 291.084C43.7404 289.82 44.6524 288.972 46.0284 288.972C47.4044 288.972 48.2364 289.82 48.2844 291.084H43.5804ZM50.423 295.5H51.975L54.311 292.268L56.679 295.5H58.327L55.239 291.468L57.815 288.012H56.295L54.423 290.7L52.439 288.012H50.807L53.495 291.468L50.423 295.5ZM63.655 288.012H61.447V285.884H60.199V288.012H58.567V289.068H60.199V293.18C60.199 294.732 60.487 295.692 62.263 295.692C62.727 295.692 63.287 295.612 63.719 295.42L63.671 294.284C63.335 294.46 62.935 294.54 62.567 294.54C61.463 294.54 61.447 293.772 61.447 292.812V289.068H63.655V288.012Z" fill="black"/>
<g clip-path="url(#clip4_177_34130)">
<path d="M133.408 255H134.752V249.912H140.032V248.664H134.752V244.92H140.432V243.672H133.408V255ZM142.187 255H143.435V247.512H142.187V255ZM141.899 244.584C141.899 245.112 142.283 245.496 142.811 245.496C143.339 245.496 143.723 245.112 143.723 244.584C143.723 244.088 143.323 243.672 142.811 243.672C142.299 243.672 141.899 244.088 141.899 244.584ZM151.662 252.904C151.07 253.656 150.35 254.04 149.278 254.04C147.918 254.04 146.926 252.936 146.83 251.64H152.878V251.24C152.878 248.76 151.438 247.32 149.326 247.32C147.118 247.32 145.486 248.936 145.486 251.256C145.486 253.432 146.926 255.192 149.278 255.192C150.67 255.192 151.726 254.776 152.606 253.64L151.662 252.904ZM146.83 250.584C146.99 249.32 147.902 248.472 149.278 248.472C150.654 248.472 151.486 249.32 151.534 250.584H146.83ZM154.921 255H156.169V242.904H154.921V255ZM164.877 255H166.125V242.904H164.877V248.6H164.845C164.157 247.8 163.245 247.32 162.157 247.32C159.805 247.32 158.221 248.984 158.221 251.256C158.221 253.496 159.869 255.192 161.965 255.192C163.309 255.192 164.381 254.52 164.845 253.672H164.877V255ZM164.877 251.256C164.877 252.824 163.837 254.04 162.221 254.04C160.605 254.04 159.565 252.824 159.565 251.256C159.565 249.688 160.605 248.472 162.221 248.472C163.837 248.472 164.877 249.688 164.877 251.256ZM173.111 255H179.639V253.752H174.455V243.672H173.111V255ZM181.575 249.288C182.167 248.744 182.999 248.472 183.799 248.472C184.967 248.472 185.655 249.032 185.655 250.12V250.344H185.175C183.335 250.344 180.455 250.488 180.455 252.968C180.455 254.424 181.719 255.192 183.239 255.192C184.375 255.192 185.207 254.648 185.703 253.88H185.735C185.735 254.2 185.735 254.664 185.815 255H187.015C186.951 254.616 186.903 254.136 186.903 253.704V250.488C186.903 248.376 185.975 247.32 183.767 247.32C182.679 247.32 181.559 247.688 180.791 248.472L181.575 249.288ZM185.655 251.4V251.88C185.623 253.096 184.887 254.136 183.447 254.136C182.503 254.136 181.799 253.784 181.799 252.84C181.799 251.832 182.823 251.4 184.407 251.4H185.655ZM189.12 255H190.368V253.672H190.4C190.864 254.52 191.936 255.192 193.28 255.192C195.376 255.192 197.024 253.496 197.024 251.256C197.024 248.984 195.44 247.32 193.088 247.32C192 247.32 191.088 247.8 190.4 248.6H190.368V242.904H189.12V255ZM190.368 251.256C190.368 249.688 191.408 248.472 193.024 248.472C194.64 248.472 195.68 249.688 195.68 251.256C195.68 252.824 194.64 254.04 193.024 254.04C191.408 254.04 190.368 252.824 190.368 251.256ZM204.709 252.904C204.117 253.656 203.397 254.04 202.325 254.04C200.965 254.04 199.973 252.936 199.877 251.64H205.925V251.24C205.925 248.76 204.485 247.32 202.373 247.32C200.165 247.32 198.533 248.936 198.533 251.256C198.533 253.432 199.973 255.192 202.325 255.192C203.717 255.192 204.773 254.776 205.653 253.64L204.709 252.904ZM199.877 250.584C200.037 249.32 200.949 248.472 202.325 248.472C203.701 248.472 204.533 249.32 204.581 250.584H199.877ZM207.968 255H209.216V242.904H207.968V255Z" fill="#333333"/>
</g>
<rect x="132.5" y="265.5" width="319" height="35" rx="3.5" fill="white"/>
<path opacity="0.6" d="M145.408 287H146.752V281.912H149.024C150.624 281.912 152.736 281.256 152.736 278.776C152.736 276.408 150.848 275.672 148.768 275.672H145.408V287ZM146.752 276.92H149.024C150.368 276.92 151.296 277.528 151.296 278.792C151.296 280.056 150.368 280.664 149.024 280.664H146.752V276.92ZM154.78 287H156.028V274.904H154.78V287ZM159.2 281.288C159.792 280.744 160.624 280.472 161.424 280.472C162.592 280.472 163.28 281.032 163.28 282.12V282.344H162.8C160.96 282.344 158.08 282.488 158.08 284.968C158.08 286.424 159.344 287.192 160.864 287.192C162 287.192 162.832 286.648 163.328 285.88H163.36C163.36 286.2 163.36 286.664 163.44 287H164.64C164.576 286.616 164.528 286.136 164.528 285.704V282.488C164.528 280.376 163.6 279.32 161.392 279.32C160.304 279.32 159.184 279.688 158.416 280.472L159.2 281.288ZM163.28 283.4V283.88C163.248 285.096 162.512 286.136 161.072 286.136C160.128 286.136 159.424 285.784 159.424 284.84C159.424 283.832 160.448 283.4 162.032 283.4H163.28ZM173.129 280.504C172.377 279.688 171.353 279.32 170.249 279.32C167.945 279.32 166.377 280.984 166.377 283.256C166.377 285.56 167.929 287.192 170.249 287.192C171.337 287.192 172.361 286.824 173.081 285.992L172.153 285.112C171.689 285.752 171.065 286.04 170.249 286.04C168.729 286.04 167.721 284.792 167.721 283.256C167.721 281.72 168.569 280.472 170.249 280.472C171.001 280.472 171.609 280.744 172.137 281.384L173.129 280.504ZM180.272 284.904C179.68 285.656 178.96 286.04 177.888 286.04C176.528 286.04 175.536 284.936 175.44 283.64H181.488V283.24C181.488 280.76 180.048 279.32 177.936 279.32C175.728 279.32 174.096 280.936 174.096 283.256C174.096 285.432 175.536 287.192 177.888 287.192C179.28 287.192 180.336 286.776 181.216 285.64L180.272 284.904ZM175.44 282.584C175.6 281.32 176.512 280.472 177.888 280.472C179.264 280.472 180.096 281.32 180.144 282.584H175.44ZM183.418 287H184.666V283.352C184.666 281.64 185.37 280.472 186.986 280.472C188.154 280.472 188.698 281.256 188.698 282.504V287H189.946V282.376C189.946 280.568 189.066 279.32 187.098 279.32C185.93 279.32 185.034 279.96 184.698 280.552H184.666V274.904H183.418V287ZM191.877 283.256C191.877 285.592 193.573 287.192 195.877 287.192C198.181 287.192 199.877 285.592 199.877 283.256C199.877 280.92 198.181 279.32 195.877 279.32C193.573 279.32 191.877 280.92 191.877 283.256ZM193.221 283.256C193.221 281.688 194.261 280.472 195.877 280.472C197.493 280.472 198.533 281.688 198.533 283.256C198.533 284.824 197.493 286.04 195.877 286.04C194.261 286.04 193.221 284.824 193.221 283.256ZM201.921 287H203.169V274.904H201.921V287ZM211.877 287H213.125V274.904H211.877V280.6H211.845C211.157 279.8 210.245 279.32 209.157 279.32C206.805 279.32 205.221 280.984 205.221 283.256C205.221 285.496 206.869 287.192 208.965 287.192C210.309 287.192 211.381 286.52 211.845 285.672H211.877V287ZM211.877 283.256C211.877 284.824 210.837 286.04 209.221 286.04C207.605 286.04 206.565 284.824 206.565 283.256C206.565 281.688 207.605 280.472 209.221 280.472C210.837 280.472 211.877 281.688 211.877 283.256ZM221.178 284.904C220.586 285.656 219.866 286.04 218.794 286.04C217.434 286.04 216.442 284.936 216.346 283.64H222.394V283.24C222.394 280.76 220.954 279.32 218.842 279.32C216.634 279.32 215.002 280.936 215.002 283.256C215.002 285.432 216.442 287.192 218.794 287.192C220.186 287.192 221.242 286.776 222.122 285.64L221.178 284.904ZM216.346 282.584C216.506 281.32 217.418 280.472 218.794 280.472C220.17 280.472 221.002 281.32 221.05 282.584H216.346ZM224.325 287H225.573V283.352C225.573 281.64 226.245 280.568 227.765 280.568C227.989 280.568 228.229 280.6 228.437 280.664L228.517 279.4C228.341 279.336 228.165 279.32 228.005 279.32C226.773 279.32 225.845 280.008 225.509 280.744H225.477C225.477 280.328 225.445 279.912 225.445 279.512H224.261C224.261 280.008 224.325 280.6 224.325 281.288V287Z" fill="#9EA6B5"/>
<path d="M430.999 284.667C430.934 284.667 430.869 284.654 430.808 284.629C430.747 284.604 430.692 284.567 430.646 284.52L427.313 281.187C427.246 281.089 427.216 280.972 427.228 280.855C427.24 280.737 427.293 280.628 427.377 280.546C427.462 280.464 427.572 280.414 427.69 280.406C427.807 280.397 427.924 280.431 428.019 280.5L430.999 283.46L433.979 280.5C434.073 280.439 434.185 280.411 434.297 280.422C434.408 280.432 434.513 280.479 434.595 280.556C434.676 280.633 434.729 280.735 434.746 280.845C434.763 280.956 434.741 281.069 434.686 281.167L431.353 284.5C431.308 284.55 431.254 284.591 431.193 284.62C431.133 284.648 431.067 284.664 430.999 284.667V284.667Z" fill="#6B778C"/>
<rect x="132.5" y="265.5" width="319" height="35" rx="3.5" stroke="#9EA6B5"/>
<g clip-path="url(#clip5_177_34130)">
<path d="M139.882 306.088H132.154V307.18H135.43V316H136.606V307.18H139.882V306.088ZM141.075 316H142.167V312.808C142.167 311.31 142.783 310.288 144.197 310.288C145.219 310.288 145.695 310.974 145.695 312.066V316H146.787V311.954C146.787 310.372 146.017 309.28 144.295 309.28C143.273 309.28 142.489 309.84 142.195 310.358H142.167V305.416H141.075V316ZM148.952 316H150.044V309.448H148.952V316ZM148.7 306.886C148.7 307.348 149.036 307.684 149.498 307.684C149.96 307.684 150.296 307.348 150.296 306.886C150.296 306.452 149.946 306.088 149.498 306.088C149.05 306.088 148.7 306.452 148.7 306.886ZM151.49 314.95C152.134 315.874 152.932 316.168 154.038 316.168C155.34 316.168 156.656 315.594 156.656 314.11C156.656 312.794 155.676 312.374 154.514 312.15C153.646 311.982 152.862 311.744 152.862 311.198C152.862 310.582 153.548 310.288 154.15 310.288C154.794 310.288 155.256 310.61 155.536 311.072L156.446 310.47C155.998 309.63 155.144 309.28 154.22 309.28C153.002 309.28 151.77 309.938 151.77 311.212C151.77 312.57 152.834 312.836 154.08 313.116C154.78 313.27 155.48 313.452 155.48 314.152C155.48 314.866 154.724 315.16 154.038 315.16C153.268 315.16 152.792 314.81 152.358 314.278L151.49 314.95ZM162.173 316H163.265V309.448H162.173V316ZM161.921 306.886C161.921 307.348 162.257 307.684 162.719 307.684C163.181 307.684 163.517 307.348 163.517 306.886C163.517 306.452 163.167 306.088 162.719 306.088C162.271 306.088 161.921 306.452 161.921 306.886ZM164.71 314.95C165.354 315.874 166.152 316.168 167.258 316.168C168.56 316.168 169.876 315.594 169.876 314.11C169.876 312.794 168.896 312.374 167.734 312.15C166.866 311.982 166.082 311.744 166.082 311.198C166.082 310.582 166.768 310.288 167.37 310.288C168.014 310.288 168.476 310.61 168.756 311.072L169.666 310.47C169.218 309.63 168.364 309.28 167.44 309.28C166.222 309.28 164.99 309.938 164.99 311.212C164.99 312.57 166.054 312.836 167.3 313.116C168 313.27 168.7 313.452 168.7 314.152C168.7 314.866 167.944 315.16 167.258 315.16C166.488 315.16 166.012 314.81 165.578 314.278L164.71 314.95ZM178.88 309.448H176.948V307.586H175.856V309.448H174.428V310.372H175.856V313.97C175.856 315.328 176.108 316.168 177.662 316.168C178.068 316.168 178.558 316.098 178.936 315.93L178.894 314.936C178.6 315.09 178.25 315.16 177.928 315.16C176.962 315.16 176.948 314.488 176.948 313.648V310.372H178.88V309.448ZM180.218 316H181.31V312.808C181.31 311.31 181.926 310.288 183.34 310.288C184.362 310.288 184.838 310.974 184.838 312.066V316H185.93V311.954C185.93 310.372 185.16 309.28 183.438 309.28C182.416 309.28 181.632 309.84 181.338 310.358H181.31V305.416H180.218V316ZM193.023 314.166C192.505 314.824 191.875 315.16 190.937 315.16C189.747 315.16 188.879 314.194 188.795 313.06H194.087V312.71C194.087 310.54 192.827 309.28 190.979 309.28C189.047 309.28 187.619 310.694 187.619 312.724C187.619 314.628 188.879 316.168 190.937 316.168C192.155 316.168 193.079 315.804 193.849 314.81L193.023 314.166ZM188.795 312.136C188.935 311.03 189.733 310.288 190.937 310.288C192.141 310.288 192.869 311.03 192.911 312.136H188.795ZM205.119 316H206.211V305.416H205.119V310.4H205.091C204.489 309.7 203.691 309.28 202.739 309.28C200.681 309.28 199.295 310.736 199.295 312.724C199.295 314.684 200.737 316.168 202.571 316.168C203.747 316.168 204.685 315.58 205.091 314.838H205.119V316ZM205.119 312.724C205.119 314.096 204.209 315.16 202.795 315.16C201.381 315.16 200.471 314.096 200.471 312.724C200.471 311.352 201.381 310.288 202.795 310.288C204.209 310.288 205.119 311.352 205.119 312.724ZM213.257 314.166C212.739 314.824 212.109 315.16 211.171 315.16C209.981 315.16 209.113 314.194 209.029 313.06H214.321V312.71C214.321 310.54 213.061 309.28 211.213 309.28C209.281 309.28 207.853 310.694 207.853 312.724C207.853 314.628 209.113 316.168 211.171 316.168C212.389 316.168 213.313 315.804 214.083 314.81L213.257 314.166ZM209.029 312.136C209.169 311.03 209.967 310.288 211.171 310.288C212.375 310.288 213.103 311.03 213.145 312.136H209.029ZM215.283 314.95C215.927 315.874 216.725 316.168 217.831 316.168C219.133 316.168 220.449 315.594 220.449 314.11C220.449 312.794 219.469 312.374 218.307 312.15C217.439 311.982 216.655 311.744 216.655 311.198C216.655 310.582 217.341 310.288 217.943 310.288C218.587 310.288 219.049 310.61 219.329 311.072L220.239 310.47C219.791 309.63 218.937 309.28 218.013 309.28C216.795 309.28 215.563 309.938 215.563 311.212C215.563 312.57 216.627 312.836 217.873 313.116C218.573 313.27 219.273 313.452 219.273 314.152C219.273 314.866 218.517 315.16 217.831 315.16C217.061 315.16 216.585 314.81 216.151 314.278L215.283 314.95ZM227.502 310.316C226.844 309.602 225.948 309.28 224.982 309.28C222.966 309.28 221.594 310.736 221.594 312.724C221.594 314.74 222.952 316.168 224.982 316.168C225.934 316.168 226.83 315.846 227.46 315.118L226.648 314.348C226.242 314.908 225.696 315.16 224.982 315.16C223.652 315.16 222.77 314.068 222.77 312.724C222.77 311.38 223.512 310.288 224.982 310.288C225.64 310.288 226.172 310.526 226.634 311.086L227.502 310.316ZM228.725 316H229.817V312.808C229.817 311.31 230.405 310.372 231.735 310.372C231.931 310.372 232.141 310.4 232.323 310.456L232.393 309.35C232.239 309.294 232.085 309.28 231.945 309.28C230.867 309.28 230.055 309.882 229.761 310.526H229.733C229.733 310.162 229.705 309.798 229.705 309.448H228.669C228.669 309.882 228.725 310.4 228.725 311.002V316ZM233.745 316H234.837V309.448H233.745V316ZM233.493 306.886C233.493 307.348 233.829 307.684 234.291 307.684C234.753 307.684 235.089 307.348 235.089 306.886C235.089 306.452 234.739 306.088 234.291 306.088C233.843 306.088 233.493 306.452 233.493 306.886ZM236.955 319.192H238.047V314.838H238.075C238.481 315.58 239.419 316.168 240.595 316.168C242.429 316.168 243.871 314.684 243.871 312.724C243.871 310.736 242.485 309.28 240.427 309.28C239.475 309.28 238.677 309.7 238.075 310.4H238.047V309.448H236.955V319.192ZM238.047 312.724C238.047 311.352 238.957 310.288 240.371 310.288C241.785 310.288 242.695 311.352 242.695 312.724C242.695 314.096 241.785 315.16 240.371 315.16C238.957 315.16 238.047 314.096 238.047 312.724ZM249.153 309.448H247.221V307.586H246.129V309.448H244.701V310.372H246.129V313.97C246.129 315.328 246.381 316.168 247.935 316.168C248.341 316.168 248.831 316.098 249.209 315.93L249.167 314.936C248.873 315.09 248.523 315.16 248.201 315.16C247.235 315.16 247.221 314.488 247.221 313.648V310.372H249.153V309.448ZM250.589 316H251.681V309.448H250.589V316ZM250.337 306.886C250.337 307.348 250.673 307.684 251.135 307.684C251.597 307.684 251.933 307.348 251.933 306.886C251.933 306.452 251.583 306.088 251.135 306.088C250.687 306.088 250.337 306.452 250.337 306.886ZM253.476 312.724C253.476 314.768 254.96 316.168 256.976 316.168C258.992 316.168 260.476 314.768 260.476 312.724C260.476 310.68 258.992 309.28 256.976 309.28C254.96 309.28 253.476 310.68 253.476 312.724ZM254.652 312.724C254.652 311.352 255.562 310.288 256.976 310.288C258.39 310.288 259.3 311.352 259.3 312.724C259.3 314.096 258.39 315.16 256.976 315.16C255.562 315.16 254.652 314.096 254.652 312.724ZM262.167 316H263.259V312.808C263.259 311.31 263.875 310.288 265.289 310.288C266.311 310.288 266.787 310.974 266.787 312.066V316H267.879V311.954C267.879 310.372 267.109 309.28 265.387 309.28C264.309 309.28 263.497 309.882 263.203 310.526H263.175C263.175 310.162 263.147 309.798 263.147 309.448H262.111C262.111 309.882 262.167 310.4 262.167 311.002V316ZM274.445 311.002C274.963 310.526 275.691 310.288 276.391 310.288C277.413 310.288 278.015 310.778 278.015 311.73V311.926H277.595C275.985 311.926 273.465 312.052 273.465 314.222C273.465 315.496 274.571 316.168 275.901 316.168C276.895 316.168 277.623 315.692 278.057 315.02H278.085C278.085 315.3 278.085 315.706 278.155 316H279.205C279.149 315.664 279.107 315.244 279.107 314.866V312.052C279.107 310.204 278.295 309.28 276.363 309.28C275.411 309.28 274.431 309.602 273.759 310.288L274.445 311.002ZM278.015 312.85V313.27C277.987 314.334 277.343 315.244 276.083 315.244C275.257 315.244 274.641 314.936 274.641 314.11C274.641 313.228 275.537 312.85 276.923 312.85H278.015ZM281.102 316H282.194V312.808C282.194 311.31 282.782 310.372 284.112 310.372C284.308 310.372 284.518 310.4 284.7 310.456L284.77 309.35C284.616 309.294 284.462 309.28 284.322 309.28C283.244 309.28 282.432 309.882 282.138 310.526H282.11C282.11 310.162 282.082 309.798 282.082 309.448H281.046C281.046 309.882 281.102 310.4 281.102 311.002V316ZM290.804 314.166C290.286 314.824 289.656 315.16 288.718 315.16C287.528 315.16 286.66 314.194 286.576 313.06H291.868V312.71C291.868 310.54 290.608 309.28 288.76 309.28C286.828 309.28 285.4 310.694 285.4 312.724C285.4 314.628 286.66 316.168 288.718 316.168C289.936 316.168 290.86 315.804 291.63 314.81L290.804 314.166ZM286.576 312.136C286.716 311.03 287.514 310.288 288.718 310.288C289.922 310.288 290.65 311.03 290.692 312.136H286.576ZM294.159 311.002C294.677 310.526 295.405 310.288 296.105 310.288C297.127 310.288 297.729 310.778 297.729 311.73V311.926H297.309C295.699 311.926 293.179 312.052 293.179 314.222C293.179 315.496 294.285 316.168 295.615 316.168C296.609 316.168 297.337 315.692 297.771 315.02H297.799C297.799 315.3 297.799 315.706 297.869 316H298.919C298.863 315.664 298.821 315.244 298.821 314.866V312.052C298.821 310.204 298.009 309.28 296.077 309.28C295.125 309.28 294.145 309.602 293.473 310.288L294.159 311.002ZM297.729 312.85V313.27C297.701 314.334 297.057 315.244 295.797 315.244C294.971 315.244 294.355 314.936 294.355 314.11C294.355 313.228 295.251 312.85 296.637 312.85H297.729Z" fill="#333333"/>
</g>
<path d="M10.512 356.16C9.552 354.912 8.048 354.384 6.512 354.384C3.152 354.384 0.752 357.008 0.752 360.336C0.752 363.776 3.264 366.288 6.512 366.288C8.32 366.288 9.792 365.664 10.8 364.304L9.792 363.456C8.992 364.48 7.888 365.04 6.512 365.04C3.968 365.04 2.192 362.96 2.192 360.336C2.192 357.856 3.984 355.632 6.512 355.632C7.6 355.632 8.672 356.096 9.344 357.008L10.512 356.16ZM12.4496 366H13.6976V362.352C13.6976 360.64 14.4016 359.472 16.0176 359.472C17.1856 359.472 17.7296 360.256 17.7296 361.504V366H18.9776V361.376C18.9776 359.568 18.0976 358.32 16.1296 358.32C14.9616 358.32 14.0656 358.96 13.7296 359.552H13.6976V353.904H12.4496V366ZM21.4523 366H22.7003V358.512H21.4523V366ZM21.1643 355.584C21.1643 356.112 21.5483 356.496 22.0763 356.496C22.6043 356.496 22.9883 356.112 22.9883 355.584C22.9883 355.088 22.5883 354.672 22.0763 354.672C21.5643 354.672 21.1643 355.088 21.1643 355.584ZM25.12 369.648H26.368V364.672H26.4C26.864 365.52 27.936 366.192 29.28 366.192C31.376 366.192 33.024 364.496 33.024 362.256C33.024 359.984 31.44 358.32 29.088 358.32C28 358.32 27.088 358.8 26.4 359.6H26.368V358.512H25.12V369.648ZM26.368 362.256C26.368 360.688 27.408 359.472 29.024 359.472C30.64 359.472 31.68 360.688 31.68 362.256C31.68 363.824 30.64 365.04 29.024 365.04C27.408 365.04 26.368 363.824 26.368 362.256ZM34.1333 364.8C34.8693 365.856 35.7812 366.192 37.0453 366.192C38.5333 366.192 40.0373 365.536 40.0373 363.84C40.0373 362.336 38.9173 361.856 37.5893 361.6C36.5973 361.408 35.7013 361.136 35.7013 360.512C35.7013 359.808 36.4853 359.472 37.1733 359.472C37.9093 359.472 38.4373 359.84 38.7573 360.368L39.7973 359.68C39.2853 358.72 38.3093 358.32 37.2533 358.32C35.8613 358.32 34.4533 359.072 34.4533 360.528C34.4533 362.08 35.6693 362.384 37.0933 362.704C37.8932 362.88 38.6933 363.088 38.6933 363.888C38.6933 364.704 37.8293 365.04 37.0453 365.04C36.1653 365.04 35.6213 364.64 35.1253 364.032L34.1333 364.8Z" fill="black"/>
<g clip-path="url(#clip6_177_34130)">
<path d="M133.408 348H134.752V342.912H140.032V341.664H134.752V337.92H140.432V336.672H133.408V348ZM142.187 348H143.435V340.512H142.187V348ZM141.899 337.584C141.899 338.112 142.283 338.496 142.811 338.496C143.339 338.496 143.723 338.112 143.723 337.584C143.723 337.088 143.323 336.672 142.811 336.672C142.299 336.672 141.899 337.088 141.899 337.584ZM151.662 345.904C151.07 346.656 150.35 347.04 149.278 347.04C147.918 347.04 146.926 345.936 146.83 344.64H152.878V344.24C152.878 341.76 151.438 340.32 149.326 340.32C147.118 340.32 145.486 341.936 145.486 344.256C145.486 346.432 146.926 348.192 149.278 348.192C150.67 348.192 151.726 347.776 152.606 346.64L151.662 345.904ZM146.83 343.584C146.99 342.32 147.902 341.472 149.278 341.472C150.654 341.472 151.486 342.32 151.534 343.584H146.83ZM154.921 348H156.169V335.904H154.921V348ZM164.877 348H166.125V335.904H164.877V341.6H164.845C164.157 340.8 163.245 340.32 162.157 340.32C159.805 340.32 158.221 341.984 158.221 344.256C158.221 346.496 159.869 348.192 161.965 348.192C163.309 348.192 164.381 347.52 164.845 346.672H164.877V348ZM164.877 344.256C164.877 345.824 163.837 347.04 162.221 347.04C160.605 347.04 159.565 345.824 159.565 344.256C159.565 342.688 160.605 341.472 162.221 341.472C163.837 341.472 164.877 342.688 164.877 344.256ZM173.111 348H179.639V346.752H174.455V336.672H173.111V348ZM181.575 342.288C182.167 341.744 182.999 341.472 183.799 341.472C184.967 341.472 185.655 342.032 185.655 343.12V343.344H185.175C183.335 343.344 180.455 343.488 180.455 345.968C180.455 347.424 181.719 348.192 183.239 348.192C184.375 348.192 185.207 347.648 185.703 346.88H185.735C185.735 347.2 185.735 347.664 185.815 348H187.015C186.951 347.616 186.903 347.136 186.903 346.704V343.488C186.903 341.376 185.975 340.32 183.767 340.32C182.679 340.32 181.559 340.688 180.791 341.472L181.575 342.288ZM185.655 344.4V344.88C185.623 346.096 184.887 347.136 183.447 347.136C182.503 347.136 181.799 346.784 181.799 345.84C181.799 344.832 182.823 344.4 184.407 344.4H185.655ZM189.12 348H190.368V346.672H190.4C190.864 347.52 191.936 348.192 193.28 348.192C195.376 348.192 197.024 346.496 197.024 344.256C197.024 341.984 195.44 340.32 193.088 340.32C192 340.32 191.088 340.8 190.4 341.6H190.368V335.904H189.12V348ZM190.368 344.256C190.368 342.688 191.408 341.472 193.024 341.472C194.64 341.472 195.68 342.688 195.68 344.256C195.68 345.824 194.64 347.04 193.024 347.04C191.408 347.04 190.368 345.824 190.368 344.256ZM204.709 345.904C204.117 346.656 203.397 347.04 202.325 347.04C200.965 347.04 199.973 345.936 199.877 344.64H205.925V344.24C205.925 341.76 204.485 340.32 202.373 340.32C200.165 340.32 198.533 341.936 198.533 344.256C198.533 346.432 199.973 348.192 202.325 348.192C203.717 348.192 204.773 347.776 205.653 346.64L204.709 345.904ZM199.877 343.584C200.037 342.32 200.949 341.472 202.325 341.472C203.701 341.472 204.533 342.32 204.581 343.584H199.877ZM207.968 348H209.216V335.904H207.968V348Z" fill="#333333"/>
<path opacity="0.8" d="M219.384 334.672H218.04V336.944L215.864 336.192L215.448 337.472L217.64 338.224L216.264 340.032L217.336 340.848L218.68 339.008L220.056 340.896L221.16 340.096L219.784 338.224L221.96 337.52L221.544 336.24L219.384 336.944V334.672Z" fill="#DB3259"/>
</g>
<rect x="132.5" y="358.5" width="319" height="35" rx="3.5" fill="white"/>
<path d="M430.999 377.667C430.934 377.667 430.869 377.654 430.808 377.629C430.747 377.604 430.692 377.567 430.646 377.52L427.313 374.187C427.246 374.089 427.216 373.972 427.228 373.855C427.24 373.737 427.293 373.628 427.377 373.546C427.462 373.464 427.572 373.414 427.69 373.406C427.807 373.397 427.924 373.431 428.019 373.5L430.999 376.46L433.979 373.5C434.073 373.439 434.185 373.411 434.297 373.422C434.408 373.432 434.513 373.479 434.595 373.556C434.676 373.633 434.729 373.735 434.746 373.845C434.763 373.956 434.741 374.069 434.686 374.167L431.353 377.5C431.308 377.55 431.254 377.591 431.193 377.62C431.133 377.648 431.067 377.664 430.999 377.667V377.667Z" fill="#6B778C"/>
<rect x="144" y="363" width="70" height="25" rx="12.5" fill="#E6E6E6"/>
<path d="M161.419 370.39C160.579 369.298 159.263 368.836 157.919 368.836C154.979 368.836 152.879 371.132 152.879 374.044C152.879 377.054 155.077 379.252 157.919 379.252C159.501 379.252 160.789 378.706 161.671 377.516L160.789 376.774C160.089 377.67 159.123 378.16 157.919 378.16C155.693 378.16 154.139 376.34 154.139 374.044C154.139 371.874 155.707 369.928 157.919 369.928C158.871 369.928 159.809 370.334 160.397 371.132L161.419 370.39ZM163.114 379H164.206V375.808C164.206 374.31 164.822 373.288 166.236 373.288C167.258 373.288 167.734 373.974 167.734 375.066V379H168.826V374.954C168.826 373.372 168.056 372.28 166.334 372.28C165.312 372.28 164.528 372.84 164.234 373.358H164.206V368.416H163.114V379ZM170.991 379H172.083V372.448H170.991V379ZM170.739 369.886C170.739 370.348 171.075 370.684 171.537 370.684C171.999 370.684 172.335 370.348 172.335 369.886C172.335 369.452 171.985 369.088 171.537 369.088C171.089 369.088 170.739 369.452 170.739 369.886ZM174.201 382.192H175.293V377.838H175.321C175.727 378.58 176.665 379.168 177.841 379.168C179.675 379.168 181.117 377.684 181.117 375.724C181.117 373.736 179.731 372.28 177.673 372.28C176.721 372.28 175.923 372.7 175.321 373.4H175.293V372.448H174.201V382.192ZM175.293 375.724C175.293 374.352 176.203 373.288 177.617 373.288C179.031 373.288 179.941 374.352 179.941 375.724C179.941 377.096 179.031 378.16 177.617 378.16C176.203 378.16 175.293 377.096 175.293 375.724Z" fill="#333333"/>
<path d="M198 381.5C196.813 381.5 195.653 381.148 194.667 380.489C193.68 379.83 192.911 378.892 192.457 377.796C192.003 376.7 191.884 375.493 192.115 374.329C192.347 373.166 192.918 372.096 193.757 371.257C194.596 370.418 195.666 369.847 196.829 369.615C197.993 369.384 199.2 369.503 200.296 369.957C201.392 370.411 202.33 371.18 202.989 372.167C203.648 373.153 204 374.313 204 375.5C204 377.091 203.368 378.617 202.243 379.743C201.117 380.868 199.591 381.5 198 381.5V381.5ZM198 370.5C197.011 370.5 196.044 370.793 195.222 371.343C194.4 371.892 193.759 372.673 193.381 373.587C193.002 374.5 192.903 375.506 193.096 376.475C193.289 377.445 193.765 378.336 194.464 379.036C195.164 379.735 196.055 380.211 197.025 380.404C197.994 380.597 199 380.498 199.913 380.119C200.827 379.741 201.608 379.1 202.157 378.278C202.707 377.456 203 376.489 203 375.5C203 374.174 202.473 372.902 201.536 371.964C200.598 371.027 199.326 370.5 198 370.5Z" fill="#333333"/>
<path d="M196 378C195.934 378 195.869 377.987 195.808 377.962C195.747 377.937 195.692 377.9 195.646 377.853C195.553 377.76 195.5 377.632 195.5 377.5C195.5 377.367 195.553 377.24 195.646 377.147L199.646 373.147C199.741 373.058 199.866 373.01 199.996 373.013C200.125 373.015 200.249 373.067 200.341 373.159C200.432 373.251 200.485 373.374 200.487 373.504C200.489 373.633 200.441 373.759 200.353 373.853L196.353 377.853C196.307 377.9 196.252 377.937 196.191 377.962C196.13 377.987 196.065 378 196 378Z" fill="#333333"/>
<path d="M200 378C199.935 378 199.869 377.987 199.809 377.962C199.748 377.937 199.693 377.9 199.647 377.853L195.647 373.853C195.559 373.759 195.51 373.633 195.513 373.504C195.515 373.374 195.568 373.251 195.659 373.159C195.751 373.067 195.874 373.015 196.004 373.013C196.133 373.01 196.259 373.058 196.354 373.147L200.354 377.147C200.447 377.24 200.5 377.367 200.5 377.5C200.5 377.632 200.447 377.76 200.354 377.853C200.307 377.9 200.252 377.937 200.192 377.962C200.131 377.987 200.066 378 200 378V378Z" fill="#333333"/>
<rect x="218" y="363" width="70" height="25" rx="12.5" fill="#E6E6E6"/>
<path d="M235.419 370.39C234.579 369.298 233.263 368.836 231.919 368.836C228.979 368.836 226.879 371.132 226.879 374.044C226.879 377.054 229.077 379.252 231.919 379.252C233.501 379.252 234.789 378.706 235.671 377.516L234.789 376.774C234.089 377.67 233.123 378.16 231.919 378.16C229.693 378.16 228.139 376.34 228.139 374.044C228.139 371.874 229.707 369.928 231.919 369.928C232.871 369.928 233.809 370.334 234.397 371.132L235.419 370.39ZM237.114 379H238.206V375.808C238.206 374.31 238.822 373.288 240.236 373.288C241.258 373.288 241.734 373.974 241.734 375.066V379H242.826V374.954C242.826 373.372 242.056 372.28 240.334 372.28C239.312 372.28 238.528 372.84 238.234 373.358H238.206V368.416H237.114V379ZM244.991 379H246.083V372.448H244.991V379ZM244.739 369.886C244.739 370.348 245.075 370.684 245.537 370.684C245.999 370.684 246.335 370.348 246.335 369.886C246.335 369.452 245.985 369.088 245.537 369.088C245.089 369.088 244.739 369.452 244.739 369.886ZM248.201 382.192H249.293V377.838H249.321C249.727 378.58 250.665 379.168 251.841 379.168C253.675 379.168 255.117 377.684 255.117 375.724C255.117 373.736 253.731 372.28 251.673 372.28C250.721 372.28 249.923 372.7 249.321 373.4H249.293V372.448H248.201V382.192ZM249.293 375.724C249.293 374.352 250.203 373.288 251.617 373.288C253.031 373.288 253.941 374.352 253.941 375.724C253.941 377.096 253.031 378.16 251.617 378.16C250.203 378.16 249.293 377.096 249.293 375.724Z" fill="#333333"/>
<path d="M272 381.5C270.813 381.5 269.653 381.148 268.667 380.489C267.68 379.83 266.911 378.892 266.457 377.796C266.003 376.7 265.884 375.493 266.115 374.329C266.347 373.166 266.918 372.096 267.757 371.257C268.596 370.418 269.666 369.847 270.829 369.615C271.993 369.384 273.2 369.503 274.296 369.957C275.392 370.411 276.33 371.18 276.989 372.167C277.648 373.153 278 374.313 278 375.5C278 377.091 277.368 378.617 276.243 379.743C275.117 380.868 273.591 381.5 272 381.5V381.5ZM272 370.5C271.011 370.5 270.044 370.793 269.222 371.343C268.4 371.892 267.759 372.673 267.381 373.587C267.002 374.5 266.903 375.506 267.096 376.475C267.289 377.445 267.765 378.336 268.464 379.036C269.164 379.735 270.055 380.211 271.025 380.404C271.994 380.597 273 380.498 273.913 380.119C274.827 379.741 275.608 379.1 276.157 378.278C276.707 377.456 277 376.489 277 375.5C277 374.174 276.473 372.902 275.536 371.964C274.598 371.027 273.326 370.5 272 370.5Z" fill="#333333"/>
<path d="M270 378C269.934 378 269.869 377.987 269.808 377.962C269.747 377.937 269.692 377.9 269.646 377.853C269.553 377.76 269.5 377.632 269.5 377.5C269.5 377.367 269.553 377.24 269.646 377.147L273.646 373.147C273.741 373.058 273.866 373.01 273.996 373.013C274.125 373.015 274.249 373.067 274.341 373.159C274.432 373.251 274.485 373.374 274.487 373.504C274.489 373.633 274.441 373.759 274.353 373.853L270.353 377.853C270.307 377.9 270.252 377.937 270.191 377.962C270.13 377.987 270.065 378 270 378Z" fill="#333333"/>
<path d="M274 378C273.935 378 273.869 377.987 273.809 377.962C273.748 377.937 273.693 377.9 273.647 377.853L269.647 373.853C269.559 373.759 269.51 373.633 269.513 373.504C269.515 373.374 269.568 373.251 269.659 373.159C269.751 373.067 269.874 373.015 270.004 373.013C270.133 373.01 270.259 373.058 270.354 373.147L274.354 377.147C274.447 377.24 274.5 377.367 274.5 377.5C274.5 377.632 274.447 377.76 274.354 377.853C274.307 377.9 274.252 377.937 274.192 377.962C274.131 377.987 274.066 378 274 378V378Z" fill="#333333"/>
<rect x="292" y="363" width="70" height="25" rx="12.5" fill="#E6E6E6"/>
<path d="M309.419 370.39C308.579 369.298 307.263 368.836 305.919 368.836C302.979 368.836 300.879 371.132 300.879 374.044C300.879 377.054 303.077 379.252 305.919 379.252C307.501 379.252 308.789 378.706 309.671 377.516L308.789 376.774C308.089 377.67 307.123 378.16 305.919 378.16C303.693 378.16 302.139 376.34 302.139 374.044C302.139 371.874 303.707 369.928 305.919 369.928C306.871 369.928 307.809 370.334 308.397 371.132L309.419 370.39ZM311.114 379H312.206V375.808C312.206 374.31 312.822 373.288 314.236 373.288C315.258 373.288 315.734 373.974 315.734 375.066V379H316.826V374.954C316.826 373.372 316.056 372.28 314.334 372.28C313.312 372.28 312.528 372.84 312.234 373.358H312.206V368.416H311.114V379ZM318.991 379H320.083V372.448H318.991V379ZM318.739 369.886C318.739 370.348 319.075 370.684 319.537 370.684C319.999 370.684 320.335 370.348 320.335 369.886C320.335 369.452 319.985 369.088 319.537 369.088C319.089 369.088 318.739 369.452 318.739 369.886ZM322.201 382.192H323.293V377.838H323.321C323.727 378.58 324.665 379.168 325.841 379.168C327.675 379.168 329.117 377.684 329.117 375.724C329.117 373.736 327.731 372.28 325.673 372.28C324.721 372.28 323.923 372.7 323.321 373.4H323.293V372.448H322.201V382.192ZM323.293 375.724C323.293 374.352 324.203 373.288 325.617 373.288C327.031 373.288 327.941 374.352 327.941 375.724C327.941 377.096 327.031 378.16 325.617 378.16C324.203 378.16 323.293 377.096 323.293 375.724Z" fill="#333333"/>
<path d="M346 381.5C344.813 381.5 343.653 381.148 342.667 380.489C341.68 379.83 340.911 378.892 340.457 377.796C340.003 376.7 339.884 375.493 340.115 374.329C340.347 373.166 340.918 372.096 341.757 371.257C342.596 370.418 343.666 369.847 344.829 369.615C345.993 369.384 347.2 369.503 348.296 369.957C349.392 370.411 350.33 371.18 350.989 372.167C351.648 373.153 352 374.313 352 375.5C352 377.091 351.368 378.617 350.243 379.743C349.117 380.868 347.591 381.5 346 381.5V381.5ZM346 370.5C345.011 370.5 344.044 370.793 343.222 371.343C342.4 371.892 341.759 372.673 341.381 373.587C341.002 374.5 340.903 375.506 341.096 376.475C341.289 377.445 341.765 378.336 342.464 379.036C343.164 379.735 344.055 380.211 345.025 380.404C345.994 380.597 347 380.498 347.913 380.119C348.827 379.741 349.608 379.1 350.157 378.278C350.707 377.456 351 376.489 351 375.5C351 374.174 350.473 372.902 349.536 371.964C348.598 371.027 347.326 370.5 346 370.5Z" fill="#333333"/>
<path d="M344 378C343.934 378 343.869 377.987 343.808 377.962C343.747 377.937 343.692 377.9 343.646 377.853C343.553 377.76 343.5 377.632 343.5 377.5C343.5 377.367 343.553 377.24 343.646 377.147L347.646 373.147C347.741 373.058 347.866 373.01 347.996 373.013C348.125 373.015 348.249 373.067 348.341 373.159C348.432 373.251 348.485 373.374 348.487 373.504C348.489 373.633 348.441 373.759 348.353 373.853L344.353 377.853C344.307 377.9 344.252 377.937 344.191 377.962C344.13 377.987 344.065 378 344 378Z" fill="#333333"/>
<path d="M348 378C347.935 378 347.869 377.987 347.809 377.962C347.748 377.937 347.693 377.9 347.647 377.853L343.647 373.853C343.559 373.759 343.51 373.633 343.513 373.504C343.515 373.374 343.568 373.251 343.659 373.159C343.751 373.067 343.874 373.015 344.004 373.013C344.133 373.01 344.259 373.058 344.354 373.147L348.354 377.147C348.447 377.24 348.5 377.367 348.5 377.5C348.5 377.632 348.447 377.76 348.354 377.853C348.307 377.9 348.252 377.937 348.192 377.962C348.131 377.987 348.066 378 348 378V378Z" fill="#333333"/>
<path d="M368.544 378.176C368.016 378.176 367.584 378.608 367.584 379.136C367.584 379.664 368.048 380.096 368.544 380.096C369.04 380.096 369.504 379.664 369.504 379.136C369.504 378.608 369.072 378.176 368.544 378.176ZM372.997 378.176C372.469 378.176 372.037 378.608 372.037 379.136C372.037 379.664 372.501 380.096 372.997 380.096C373.493 380.096 373.957 379.664 373.957 379.136C373.957 378.608 373.525 378.176 372.997 378.176ZM377.451 378.176C376.923 378.176 376.491 378.608 376.491 379.136C376.491 379.664 376.955 380.096 377.451 380.096C377.947 380.096 378.411 379.664 378.411 379.136C378.411 378.608 377.979 378.176 377.451 378.176Z" fill="#502252"/>
<rect x="132.5" y="358.5" width="319" height="35" rx="3.5" stroke="#9EA6B5"/>
<defs>
<clipPath id="clip0_177_34130">
<rect width="91" height="24" fill="white" transform="translate(132)"/>
</clipPath>
<clipPath id="clip1_177_34130">
<rect width="79" height="24" fill="white" transform="translate(132 72)"/>
</clipPath>
<clipPath id="clip2_177_34130">
<rect width="91" height="24" fill="white" transform="translate(132 144)"/>
</clipPath>
<clipPath id="clip3_177_34130">
<rect width="320" height="17" fill="white" transform="translate(132 212)"/>
</clipPath>
<clipPath id="clip4_177_34130">
<rect width="79" height="24" fill="white" transform="translate(132 237)"/>
</clipPath>
<clipPath id="clip5_177_34130">
<rect width="320" height="17" fill="white" transform="translate(132 305)"/>
</clipPath>
<clipPath id="clip6_177_34130">
<rect width="91" height="24" fill="white" transform="translate(132 330)"/>
</clipPath>
</defs>
</svg>
