<svg width="400" height="380" viewBox="0 0 400 380" fill="none" xmlns="http://www.w3.org/2000/svg">
<path d="M1.2 36H5.552C7.776 36 11.104 34.512 11.104 30.336C11.104 26.16 7.776 24.672 5.552 24.672H1.2V36ZM2.544 25.92H5.104C7.696 25.92 9.664 27.232 9.664 30.336C9.664 33.44 7.696 34.752 5.104 34.752H2.544V25.92ZM18.7874 33.904C18.1954 34.656 17.4754 35.04 16.4034 35.04C15.0434 35.04 14.0514 33.936 13.9554 32.64H20.0034V32.24C20.0034 29.76 18.5634 28.32 16.4514 28.32C14.2434 28.32 12.6114 29.936 12.6114 32.256C12.6114 34.432 14.0514 36.192 16.4034 36.192C17.7954 36.192 18.8514 35.776 19.7314 34.64L18.7874 33.904ZM13.9554 31.584C14.1154 30.32 15.0274 29.472 16.4034 29.472C17.7794 29.472 18.6114 30.32 18.6594 31.584H13.9554ZM22.574 36H23.822V29.568H25.646V28.512H23.822V27.104C23.822 25.808 23.87 24.864 25.166 24.864C25.454 24.864 25.742 24.928 26.014 25.024L26.19 23.904C25.95 23.776 25.55 23.712 25.23 23.712C23.214 23.712 22.574 25.008 22.574 26.832V28.512H20.942V29.568H22.574V36ZM27.6689 30.288C28.2609 29.744 29.0929 29.472 29.8929 29.472C31.0609 29.472 31.7489 30.032 31.7489 31.12V31.344H31.2689C29.4289 31.344 26.5489 31.488 26.5489 33.968C26.5489 35.424 27.8129 36.192 29.3329 36.192C30.4689 36.192 31.3009 35.648 31.7969 34.88H31.8289C31.8289 35.2 31.8289 35.664 31.9089 36H33.1089C33.0449 35.616 32.9969 35.136 32.9969 34.704V31.488C32.9969 29.376 32.0689 28.32 29.8609 28.32C28.7729 28.32 27.6529 28.688 26.8849 29.472L27.6689 30.288ZM31.7489 32.4V32.88C31.7169 34.096 30.9809 35.136 29.5409 35.136C28.5969 35.136 27.8929 34.784 27.8929 33.84C27.8929 32.832 28.9169 32.4 30.5009 32.4H31.7489ZM41.8058 28.512H40.5578V32.16C40.5578 33.872 39.8538 35.04 38.2378 35.04C37.0698 35.04 36.5258 34.256 36.5258 33.008V28.512H35.2778V33.136C35.2778 34.944 36.1578 36.192 38.1258 36.192C39.3578 36.192 40.2858 35.504 40.6218 34.768H40.6538C40.6538 35.184 40.6858 35.6 40.6858 36H41.8698C41.8698 35.504 41.8058 34.912 41.8058 34.224V28.512ZM44.2804 36H45.5284V23.904H44.2804V36ZM52.1081 28.512H49.9001V26.384H48.6521V28.512H47.0201V29.568H48.6521V33.68C48.6521 35.232 48.9401 36.192 50.7161 36.192C51.1801 36.192 51.7401 36.112 52.1721 35.92L52.1241 34.784C51.7881 34.96 51.3881 35.04 51.0201 35.04C49.9161 35.04 49.9001 34.272 49.9001 33.312V29.568H52.1081V28.512Z" fill="black"/>
<g clip-path="url(#clip0_177_34117)">
<path d="M81.408 18H82.752V12.912H88.032V11.664H82.752V7.92H88.432V6.672H81.408V18ZM90.1866 18H91.4346V10.512H90.1866V18ZM89.8986 7.584C89.8986 8.112 90.2826 8.496 90.8106 8.496C91.3386 8.496 91.7226 8.112 91.7226 7.584C91.7226 7.088 91.3226 6.672 90.8106 6.672C90.2986 6.672 89.8986 7.088 89.8986 7.584ZM99.6624 15.904C99.0704 16.656 98.3504 17.04 97.2784 17.04C95.9184 17.04 94.9264 15.936 94.8304 14.64H100.878V14.24C100.878 11.76 99.4384 10.32 97.3264 10.32C95.1184 10.32 93.4864 11.936 93.4864 14.256C93.4864 16.432 94.9264 18.192 97.2784 18.192C98.6704 18.192 99.7264 17.776 100.606 16.64L99.6624 15.904ZM94.8304 13.584C94.9904 12.32 95.9024 11.472 97.2784 11.472C98.6544 11.472 99.4864 12.32 99.5344 13.584H94.8304ZM102.921 18H104.169V5.904H102.921V18ZM112.877 18H114.125V5.904H112.877V11.6H112.845C112.157 10.8 111.245 10.32 110.157 10.32C107.805 10.32 106.221 11.984 106.221 14.256C106.221 16.496 107.869 18.192 109.965 18.192C111.309 18.192 112.381 17.52 112.845 16.672H112.877V18ZM112.877 14.256C112.877 15.824 111.837 17.04 110.221 17.04C108.605 17.04 107.565 15.824 107.565 14.256C107.565 12.688 108.605 11.472 110.221 11.472C111.837 11.472 112.877 12.688 112.877 14.256ZM121.111 18H127.639V16.752H122.455V6.672H121.111V18ZM129.575 12.288C130.167 11.744 130.999 11.472 131.799 11.472C132.967 11.472 133.655 12.032 133.655 13.12V13.344H133.175C131.335 13.344 128.455 13.488 128.455 15.968C128.455 17.424 129.719 18.192 131.239 18.192C132.375 18.192 133.207 17.648 133.703 16.88H133.735C133.735 17.2 133.735 17.664 133.815 18H135.015C134.951 17.616 134.903 17.136 134.903 16.704V13.488C134.903 11.376 133.975 10.32 131.767 10.32C130.679 10.32 129.559 10.688 128.791 11.472L129.575 12.288ZM133.655 14.4V14.88C133.623 16.096 132.887 17.136 131.447 17.136C130.503 17.136 129.799 16.784 129.799 15.84C129.799 14.832 130.823 14.4 132.407 14.4H133.655ZM137.12 18H138.368V16.672H138.4C138.864 17.52 139.936 18.192 141.28 18.192C143.376 18.192 145.024 16.496 145.024 14.256C145.024 11.984 143.44 10.32 141.088 10.32C140 10.32 139.088 10.8 138.4 11.6H138.368V5.904H137.12V18ZM138.368 14.256C138.368 12.688 139.408 11.472 141.024 11.472C142.64 11.472 143.68 12.688 143.68 14.256C143.68 15.824 142.64 17.04 141.024 17.04C139.408 17.04 138.368 15.824 138.368 14.256ZM152.709 15.904C152.117 16.656 151.397 17.04 150.325 17.04C148.965 17.04 147.973 15.936 147.877 14.64H153.925V14.24C153.925 11.76 152.485 10.32 150.373 10.32C148.165 10.32 146.533 11.936 146.533 14.256C146.533 16.432 147.973 18.192 150.325 18.192C151.717 18.192 152.773 17.776 153.653 16.64L152.709 15.904ZM147.877 13.584C148.037 12.32 148.949 11.472 150.325 11.472C151.701 11.472 152.533 12.32 152.581 13.584H147.877ZM155.968 18H157.216V5.904H155.968V18Z" fill="#333333"/>
<path opacity="0.8" d="M167.384 4.672H166.04V6.944L163.864 6.192L163.448 7.472L165.64 8.224L164.264 10.032L165.336 10.848L166.68 9.008L168.056 10.896L169.16 10.096L167.784 8.224L169.96 7.52L169.544 6.24L167.384 6.944V4.672Z" fill="#DB3259"/>
</g>
<rect x="80.5" y="28.5" width="319" height="35" rx="3.5" fill="white"/>
<path opacity="0.6" d="M93.408 50H94.752V44.912H97.024C98.624 44.912 100.736 44.256 100.736 41.776C100.736 39.408 98.848 38.672 96.768 38.672H93.408V50ZM94.752 39.92H97.024C98.368 39.92 99.296 40.528 99.296 41.792C99.296 43.056 98.368 43.664 97.024 43.664H94.752V39.92ZM102.78 50H104.028V37.904H102.78V50ZM107.2 44.288C107.792 43.744 108.624 43.472 109.424 43.472C110.592 43.472 111.28 44.032 111.28 45.12V45.344H110.8C108.96 45.344 106.08 45.488 106.08 47.968C106.08 49.424 107.344 50.192 108.864 50.192C110 50.192 110.832 49.648 111.328 48.88H111.36C111.36 49.2 111.36 49.664 111.44 50H112.64C112.576 49.616 112.528 49.136 112.528 48.704V45.488C112.528 43.376 111.6 42.32 109.392 42.32C108.304 42.32 107.184 42.688 106.416 43.472L107.2 44.288ZM111.28 46.4V46.88C111.248 48.096 110.512 49.136 109.072 49.136C108.128 49.136 107.424 48.784 107.424 47.84C107.424 46.832 108.448 46.4 110.032 46.4H111.28ZM121.129 43.504C120.377 42.688 119.353 42.32 118.249 42.32C115.945 42.32 114.377 43.984 114.377 46.256C114.377 48.56 115.929 50.192 118.249 50.192C119.337 50.192 120.361 49.824 121.081 48.992L120.153 48.112C119.689 48.752 119.065 49.04 118.249 49.04C116.729 49.04 115.721 47.792 115.721 46.256C115.721 44.72 116.569 43.472 118.249 43.472C119.001 43.472 119.609 43.744 120.137 44.384L121.129 43.504ZM128.272 47.904C127.68 48.656 126.96 49.04 125.888 49.04C124.528 49.04 123.536 47.936 123.44 46.64H129.488V46.24C129.488 43.76 128.048 42.32 125.936 42.32C123.728 42.32 122.096 43.936 122.096 46.256C122.096 48.432 123.536 50.192 125.888 50.192C127.28 50.192 128.336 49.776 129.216 48.64L128.272 47.904ZM123.44 45.584C123.6 44.32 124.512 43.472 125.888 43.472C127.264 43.472 128.096 44.32 128.144 45.584H123.44ZM131.418 50H132.666V46.352C132.666 44.64 133.37 43.472 134.986 43.472C136.154 43.472 136.698 44.256 136.698 45.504V50H137.946V45.376C137.946 43.568 137.066 42.32 135.098 42.32C133.93 42.32 133.034 42.96 132.698 43.552H132.666V37.904H131.418V50ZM139.877 46.256C139.877 48.592 141.573 50.192 143.877 50.192C146.181 50.192 147.877 48.592 147.877 46.256C147.877 43.92 146.181 42.32 143.877 42.32C141.573 42.32 139.877 43.92 139.877 46.256ZM141.221 46.256C141.221 44.688 142.261 43.472 143.877 43.472C145.493 43.472 146.533 44.688 146.533 46.256C146.533 47.824 145.493 49.04 143.877 49.04C142.261 49.04 141.221 47.824 141.221 46.256ZM149.921 50H151.169V37.904H149.921V50ZM159.877 50H161.125V37.904H159.877V43.6H159.845C159.157 42.8 158.245 42.32 157.157 42.32C154.805 42.32 153.221 43.984 153.221 46.256C153.221 48.496 154.869 50.192 156.965 50.192C158.309 50.192 159.381 49.52 159.845 48.672H159.877V50ZM159.877 46.256C159.877 47.824 158.837 49.04 157.221 49.04C155.605 49.04 154.565 47.824 154.565 46.256C154.565 44.688 155.605 43.472 157.221 43.472C158.837 43.472 159.877 44.688 159.877 46.256ZM169.178 47.904C168.586 48.656 167.866 49.04 166.794 49.04C165.434 49.04 164.442 47.936 164.346 46.64H170.394V46.24C170.394 43.76 168.954 42.32 166.842 42.32C164.634 42.32 163.002 43.936 163.002 46.256C163.002 48.432 164.442 50.192 166.794 50.192C168.186 50.192 169.242 49.776 170.122 48.64L169.178 47.904ZM164.346 45.584C164.506 44.32 165.418 43.472 166.794 43.472C168.17 43.472 169.002 44.32 169.05 45.584H164.346ZM172.325 50H173.573V46.352C173.573 44.64 174.245 43.568 175.765 43.568C175.989 43.568 176.229 43.6 176.437 43.664L176.517 42.4C176.341 42.336 176.165 42.32 176.005 42.32C174.773 42.32 173.845 43.008 173.509 43.744H173.477C173.477 43.328 173.445 42.912 173.445 42.512H172.261C172.261 43.008 172.325 43.6 172.325 44.288V50Z" fill="#9EA6B5"/>
<path d="M378.999 47.6664C378.934 47.6668 378.869 47.6539 378.808 47.6288C378.747 47.6036 378.692 47.5665 378.646 47.5198L375.313 44.1864C375.246 44.0892 375.216 43.9716 375.228 43.8543C375.24 43.7371 375.293 43.6278 375.377 43.5457C375.462 43.4636 375.572 43.414 375.69 43.4056C375.807 43.3972 375.924 43.4305 376.019 43.4998L378.999 46.4598L381.979 43.4998C382.073 43.4389 382.185 43.4112 382.297 43.4214C382.408 43.4315 382.513 43.4788 382.595 43.5556C382.676 43.6325 382.729 43.7345 382.746 43.8452C382.763 43.956 382.741 44.0691 382.686 44.1664L379.353 47.4998C379.308 47.5502 379.254 47.5909 379.193 47.6196C379.133 47.6482 379.067 47.6642 378.999 47.6664V47.6664Z" fill="#6B778C"/>
<rect x="80.5" y="28.5" width="319" height="35" rx="3.5" stroke="#9EA6B5"/>
<path d="M0.096 108H1.616L2.784 105.216H8.448L9.6 108H11.168L6.352 96.672H5.088L0.096 108ZM7.936 103.968H3.312L5.664 98.4H5.696L7.936 103.968ZM18.7696 101.504C18.0176 100.688 16.9936 100.32 15.8896 100.32C13.5856 100.32 12.0176 101.984 12.0176 104.256C12.0176 106.56 13.5696 108.192 15.8896 108.192C16.9776 108.192 18.0016 107.824 18.7216 106.992L17.7936 106.112C17.3296 106.752 16.7056 107.04 15.8896 107.04C14.3696 107.04 13.3616 105.792 13.3616 104.256C13.3616 102.72 14.2096 101.472 15.8896 101.472C16.6416 101.472 17.2496 101.744 17.7776 102.384L18.7696 101.504ZM24.2644 100.512H22.0564V98.384H20.8084V100.512H19.1764V101.568H20.8084V105.68C20.8084 107.232 21.0964 108.192 22.8724 108.192C23.3364 108.192 23.8964 108.112 24.3284 107.92L24.2804 106.784C23.9444 106.96 23.5444 107.04 23.1764 107.04C22.0724 107.04 22.0564 106.272 22.0564 105.312V101.568H24.2644V100.512ZM25.9054 108H27.1534V100.512H25.9054V108ZM25.6174 97.584C25.6174 98.112 26.0014 98.496 26.5294 98.496C27.0574 98.496 27.4414 98.112 27.4414 97.584C27.4414 97.088 27.0414 96.672 26.5294 96.672C26.0174 96.672 25.6174 97.088 25.6174 97.584ZM36.0051 100.512H34.6611L32.4371 106.384H32.4051L30.0691 100.512H28.6131L31.6691 108H33.0451L36.0051 100.512ZM43.0999 105.904C42.5079 106.656 41.7879 107.04 40.7159 107.04C39.3559 107.04 38.3639 105.936 38.2679 104.64H44.3159V104.24C44.3159 101.76 42.8759 100.32 40.7639 100.32C38.5559 100.32 36.9239 101.936 36.9239 104.256C36.9239 106.432 38.3639 108.192 40.7159 108.192C42.1079 108.192 43.1639 107.776 44.0439 106.64L43.0999 105.904ZM38.2679 103.584C38.4279 102.32 39.3399 101.472 40.7159 101.472C42.0919 101.472 42.9239 102.32 42.9719 103.584H38.2679Z" fill="black"/>
<g clip-path="url(#clip1_177_34117)">
<path d="M81.408 90H82.752V84.912H88.032V83.664H82.752V79.92H88.432V78.672H81.408V90ZM90.1866 90H91.4346V82.512H90.1866V90ZM89.8986 79.584C89.8986 80.112 90.2826 80.496 90.8106 80.496C91.3386 80.496 91.7226 80.112 91.7226 79.584C91.7226 79.088 91.3226 78.672 90.8106 78.672C90.2986 78.672 89.8986 79.088 89.8986 79.584ZM99.6624 87.904C99.0704 88.656 98.3504 89.04 97.2784 89.04C95.9184 89.04 94.9264 87.936 94.8304 86.64H100.878V86.24C100.878 83.76 99.4384 82.32 97.3264 82.32C95.1184 82.32 93.4864 83.936 93.4864 86.256C93.4864 88.432 94.9264 90.192 97.2784 90.192C98.6704 90.192 99.7264 89.776 100.606 88.64L99.6624 87.904ZM94.8304 85.584C94.9904 84.32 95.9024 83.472 97.2784 83.472C98.6544 83.472 99.4864 84.32 99.5344 85.584H94.8304ZM102.921 90H104.169V77.904H102.921V90ZM112.877 90H114.125V77.904H112.877V83.6H112.845C112.157 82.8 111.245 82.32 110.157 82.32C107.805 82.32 106.221 83.984 106.221 86.256C106.221 88.496 107.869 90.192 109.965 90.192C111.309 90.192 112.381 89.52 112.845 88.672H112.877V90ZM112.877 86.256C112.877 87.824 111.837 89.04 110.221 89.04C108.605 89.04 107.565 87.824 107.565 86.256C107.565 84.688 108.605 83.472 110.221 83.472C111.837 83.472 112.877 84.688 112.877 86.256ZM121.111 90H127.639V88.752H122.455V78.672H121.111V90ZM129.575 84.288C130.167 83.744 130.999 83.472 131.799 83.472C132.967 83.472 133.655 84.032 133.655 85.12V85.344H133.175C131.335 85.344 128.455 85.488 128.455 87.968C128.455 89.424 129.719 90.192 131.239 90.192C132.375 90.192 133.207 89.648 133.703 88.88H133.735C133.735 89.2 133.735 89.664 133.815 90H135.015C134.951 89.616 134.903 89.136 134.903 88.704V85.488C134.903 83.376 133.975 82.32 131.767 82.32C130.679 82.32 129.559 82.688 128.791 83.472L129.575 84.288ZM133.655 86.4V86.88C133.623 88.096 132.887 89.136 131.447 89.136C130.503 89.136 129.799 88.784 129.799 87.84C129.799 86.832 130.823 86.4 132.407 86.4H133.655ZM137.12 90H138.368V88.672H138.4C138.864 89.52 139.936 90.192 141.28 90.192C143.376 90.192 145.024 88.496 145.024 86.256C145.024 83.984 143.44 82.32 141.088 82.32C140 82.32 139.088 82.8 138.4 83.6H138.368V77.904H137.12V90ZM138.368 86.256C138.368 84.688 139.408 83.472 141.024 83.472C142.64 83.472 143.68 84.688 143.68 86.256C143.68 87.824 142.64 89.04 141.024 89.04C139.408 89.04 138.368 87.824 138.368 86.256ZM152.709 87.904C152.117 88.656 151.397 89.04 150.325 89.04C148.965 89.04 147.973 87.936 147.877 86.64H153.925V86.24C153.925 83.76 152.485 82.32 150.373 82.32C148.165 82.32 146.533 83.936 146.533 86.256C146.533 88.432 147.973 90.192 150.325 90.192C151.717 90.192 152.773 89.776 153.653 88.64L152.709 87.904ZM147.877 85.584C148.037 84.32 148.949 83.472 150.325 83.472C151.701 83.472 152.533 84.32 152.581 85.584H147.877ZM155.968 90H157.216V77.904H155.968V90Z" fill="#333333"/>
<path opacity="0.8" d="M167.384 76.672H166.04V78.944L163.864 78.192L163.448 79.472L165.64 80.224L164.264 82.032L165.336 82.848L166.68 81.008L168.056 82.896L169.16 82.096L167.784 80.224L169.96 79.52L169.544 78.24L167.384 78.944V76.672Z" fill="#DB3259"/>
</g>
<rect x="81" y="101" width="318" height="34" rx="3" fill="white"/>
<path opacity="0.8" d="M93.408 122H94.752V116.912H97.024C98.624 116.912 100.736 116.256 100.736 113.776C100.736 111.408 98.848 110.672 96.768 110.672H93.408V122ZM94.752 111.92H97.024C98.368 111.92 99.296 112.528 99.296 113.792C99.296 115.056 98.368 115.664 97.024 115.664H94.752V111.92ZM102.78 122H104.028V109.904H102.78V122ZM107.2 116.288C107.792 115.744 108.624 115.472 109.424 115.472C110.592 115.472 111.28 116.032 111.28 117.12V117.344H110.8C108.96 117.344 106.08 117.488 106.08 119.968C106.08 121.424 107.344 122.192 108.864 122.192C110 122.192 110.832 121.648 111.328 120.88H111.36C111.36 121.2 111.36 121.664 111.44 122H112.64C112.576 121.616 112.528 121.136 112.528 120.704V117.488C112.528 115.376 111.6 114.32 109.392 114.32C108.304 114.32 107.184 114.688 106.416 115.472L107.2 116.288ZM111.28 118.4V118.88C111.248 120.096 110.512 121.136 109.072 121.136C108.128 121.136 107.424 120.784 107.424 119.84C107.424 118.832 108.448 118.4 110.032 118.4H111.28ZM121.129 115.504C120.377 114.688 119.353 114.32 118.249 114.32C115.945 114.32 114.377 115.984 114.377 118.256C114.377 120.56 115.929 122.192 118.249 122.192C119.337 122.192 120.361 121.824 121.081 120.992L120.153 120.112C119.689 120.752 119.065 121.04 118.249 121.04C116.729 121.04 115.721 119.792 115.721 118.256C115.721 116.72 116.569 115.472 118.249 115.472C119.001 115.472 119.609 115.744 120.137 116.384L121.129 115.504ZM128.272 119.904C127.68 120.656 126.96 121.04 125.888 121.04C124.528 121.04 123.536 119.936 123.44 118.64H129.488V118.24C129.488 115.76 128.048 114.32 125.936 114.32C123.728 114.32 122.096 115.936 122.096 118.256C122.096 120.432 123.536 122.192 125.888 122.192C127.28 122.192 128.336 121.776 129.216 120.64L128.272 119.904ZM123.44 117.584C123.6 116.32 124.512 115.472 125.888 115.472C127.264 115.472 128.096 116.32 128.144 117.584H123.44ZM131.418 122H132.666V118.352C132.666 116.64 133.37 115.472 134.986 115.472C136.154 115.472 136.698 116.256 136.698 117.504V122H137.946V117.376C137.946 115.568 137.066 114.32 135.098 114.32C133.93 114.32 133.034 114.96 132.698 115.552H132.666V109.904H131.418V122ZM139.877 118.256C139.877 120.592 141.573 122.192 143.877 122.192C146.181 122.192 147.877 120.592 147.877 118.256C147.877 115.92 146.181 114.32 143.877 114.32C141.573 114.32 139.877 115.92 139.877 118.256ZM141.221 118.256C141.221 116.688 142.261 115.472 143.877 115.472C145.493 115.472 146.533 116.688 146.533 118.256C146.533 119.824 145.493 121.04 143.877 121.04C142.261 121.04 141.221 119.824 141.221 118.256ZM149.921 122H151.169V109.904H149.921V122ZM159.877 122H161.125V109.904H159.877V115.6H159.845C159.157 114.8 158.245 114.32 157.157 114.32C154.805 114.32 153.221 115.984 153.221 118.256C153.221 120.496 154.869 122.192 156.965 122.192C158.309 122.192 159.381 121.52 159.845 120.672H159.877V122ZM159.877 118.256C159.877 119.824 158.837 121.04 157.221 121.04C155.605 121.04 154.565 119.824 154.565 118.256C154.565 116.688 155.605 115.472 157.221 115.472C158.837 115.472 159.877 116.688 159.877 118.256ZM169.178 119.904C168.586 120.656 167.866 121.04 166.794 121.04C165.434 121.04 164.442 119.936 164.346 118.64H170.394V118.24C170.394 115.76 168.954 114.32 166.842 114.32C164.634 114.32 163.002 115.936 163.002 118.256C163.002 120.432 164.442 122.192 166.794 122.192C168.186 122.192 169.242 121.776 170.122 120.64L169.178 119.904ZM164.346 117.584C164.506 116.32 165.418 115.472 166.794 115.472C168.17 115.472 169.002 116.32 169.05 117.584H164.346ZM172.325 122H173.573V118.352C173.573 116.64 174.245 115.568 175.765 115.568C175.989 115.568 176.229 115.6 176.437 115.664L176.517 114.4C176.341 114.336 176.165 114.32 176.005 114.32C174.773 114.32 173.845 115.008 173.509 115.744H173.477C173.477 115.328 173.445 114.912 173.445 114.512H172.261C172.261 115.008 172.325 115.6 172.325 116.288V122Z" fill="#9EA6B5"/>
<path d="M378.999 119.667C378.934 119.667 378.869 119.654 378.808 119.629C378.747 119.604 378.692 119.567 378.646 119.52L375.313 116.187C375.246 116.089 375.216 115.972 375.228 115.855C375.24 115.737 375.293 115.628 375.377 115.546C375.462 115.464 375.572 115.414 375.69 115.406C375.807 115.397 375.924 115.431 376.019 115.5L378.999 118.46L381.979 115.5C382.073 115.439 382.185 115.411 382.297 115.422C382.408 115.432 382.513 115.479 382.595 115.556C382.676 115.633 382.729 115.735 382.746 115.845C382.763 115.956 382.741 116.069 382.686 116.167L379.353 119.5C379.308 119.55 379.254 119.591 379.193 119.62C379.133 119.648 379.067 119.664 378.999 119.667V119.667Z" fill="#6B778C"/>
<rect x="81" y="101" width="318" height="34" rx="3" stroke="#6C3078" stroke-width="2"/>
<path d="M1.408 180H2.752V174.912H8.032V173.664H2.752V169.92H8.432V168.672H1.408V180ZM10.1866 180H11.4346V172.512H10.1866V180ZM9.89863 169.584C9.89863 170.112 10.2826 170.496 10.8106 170.496C11.3386 170.496 11.7226 170.112 11.7226 169.584C11.7226 169.088 11.3226 168.672 10.8106 168.672C10.2986 168.672 9.89863 169.088 9.89863 169.584ZM14.0304 180H15.2784V167.904H14.0304V180ZM17.8741 180H19.1221V167.904H17.8741V180ZM27.3499 177.904C26.7579 178.656 26.0379 179.04 24.9659 179.04C23.6059 179.04 22.6139 177.936 22.5179 176.64H28.5659V176.24C28.5659 173.76 27.1259 172.32 25.0139 172.32C22.8059 172.32 21.1739 173.936 21.1739 176.256C21.1739 178.432 22.6139 180.192 24.9659 180.192C26.3579 180.192 27.4139 179.776 28.2939 178.64L27.3499 177.904ZM22.5179 175.584C22.6779 174.32 23.5899 173.472 24.9659 173.472C26.3419 173.472 27.1739 174.32 27.2219 175.584H22.5179ZM36.7205 180H37.9685V167.904H36.7205V173.6H36.6885C36.0005 172.8 35.0885 172.32 34.0005 172.32C31.6485 172.32 30.0645 173.984 30.0645 176.256C30.0645 178.496 31.7125 180.192 33.8085 180.192C35.1525 180.192 36.2245 179.52 36.6885 178.672H36.7205V180ZM36.7205 176.256C36.7205 177.824 35.6805 179.04 34.0645 179.04C32.4485 179.04 31.4085 177.824 31.4085 176.256C31.4085 174.688 32.4485 173.472 34.0645 173.472C35.6805 173.472 36.7205 174.688 36.7205 176.256Z" fill="black"/>
<g clip-path="url(#clip2_177_34117)">
<path d="M81.408 162H82.752V156.912H88.032V155.664H82.752V151.92H88.432V150.672H81.408V162ZM90.1866 162H91.4346V154.512H90.1866V162ZM89.8986 151.584C89.8986 152.112 90.2826 152.496 90.8106 152.496C91.3386 152.496 91.7226 152.112 91.7226 151.584C91.7226 151.088 91.3226 150.672 90.8106 150.672C90.2986 150.672 89.8986 151.088 89.8986 151.584ZM99.6624 159.904C99.0704 160.656 98.3504 161.04 97.2784 161.04C95.9184 161.04 94.9264 159.936 94.8304 158.64H100.878V158.24C100.878 155.76 99.4384 154.32 97.3264 154.32C95.1184 154.32 93.4864 155.936 93.4864 158.256C93.4864 160.432 94.9264 162.192 97.2784 162.192C98.6704 162.192 99.7264 161.776 100.606 160.64L99.6624 159.904ZM94.8304 157.584C94.9904 156.32 95.9024 155.472 97.2784 155.472C98.6544 155.472 99.4864 156.32 99.5344 157.584H94.8304ZM102.921 162H104.169V149.904H102.921V162ZM112.877 162H114.125V149.904H112.877V155.6H112.845C112.157 154.8 111.245 154.32 110.157 154.32C107.805 154.32 106.221 155.984 106.221 158.256C106.221 160.496 107.869 162.192 109.965 162.192C111.309 162.192 112.381 161.52 112.845 160.672H112.877V162ZM112.877 158.256C112.877 159.824 111.837 161.04 110.221 161.04C108.605 161.04 107.565 159.824 107.565 158.256C107.565 156.688 108.605 155.472 110.221 155.472C111.837 155.472 112.877 156.688 112.877 158.256ZM121.111 162H127.639V160.752H122.455V150.672H121.111V162ZM129.575 156.288C130.167 155.744 130.999 155.472 131.799 155.472C132.967 155.472 133.655 156.032 133.655 157.12V157.344H133.175C131.335 157.344 128.455 157.488 128.455 159.968C128.455 161.424 129.719 162.192 131.239 162.192C132.375 162.192 133.207 161.648 133.703 160.88H133.735C133.735 161.2 133.735 161.664 133.815 162H135.015C134.951 161.616 134.903 161.136 134.903 160.704V157.488C134.903 155.376 133.975 154.32 131.767 154.32C130.679 154.32 129.559 154.688 128.791 155.472L129.575 156.288ZM133.655 158.4V158.88C133.623 160.096 132.887 161.136 131.447 161.136C130.503 161.136 129.799 160.784 129.799 159.84C129.799 158.832 130.823 158.4 132.407 158.4H133.655ZM137.12 162H138.368V160.672H138.4C138.864 161.52 139.936 162.192 141.28 162.192C143.376 162.192 145.024 160.496 145.024 158.256C145.024 155.984 143.44 154.32 141.088 154.32C140 154.32 139.088 154.8 138.4 155.6H138.368V149.904H137.12V162ZM138.368 158.256C138.368 156.688 139.408 155.472 141.024 155.472C142.64 155.472 143.68 156.688 143.68 158.256C143.68 159.824 142.64 161.04 141.024 161.04C139.408 161.04 138.368 159.824 138.368 158.256ZM152.709 159.904C152.117 160.656 151.397 161.04 150.325 161.04C148.965 161.04 147.973 159.936 147.877 158.64H153.925V158.24C153.925 155.76 152.485 154.32 150.373 154.32C148.165 154.32 146.533 155.936 146.533 158.256C146.533 160.432 147.973 162.192 150.325 162.192C151.717 162.192 152.773 161.776 153.653 160.64L152.709 159.904ZM147.877 157.584C148.037 156.32 148.949 155.472 150.325 155.472C151.701 155.472 152.533 156.32 152.581 157.584H147.877ZM155.968 162H157.216V149.904H155.968V162Z" fill="#333333"/>
<path opacity="0.8" d="M167.384 148.672H166.04V150.944L163.864 150.192L163.448 151.472L165.64 152.224L164.264 154.032L165.336 154.848L166.68 153.008L168.056 154.896L169.16 154.096L167.784 152.224L169.96 151.52L169.544 150.24L167.384 150.944V148.672Z" fill="#DB3259"/>
</g>
<rect x="80.5" y="172.5" width="319" height="35" rx="3.5" fill="white"/>
<path d="M93.408 194H94.752V188.912H97.024C98.624 188.912 100.736 188.256 100.736 185.776C100.736 183.408 98.848 182.672 96.768 182.672H93.408V194ZM94.752 183.92H97.024C98.368 183.92 99.296 184.528 99.296 185.792C99.296 187.056 98.368 187.664 97.024 187.664H94.752V183.92ZM102.78 194H104.028V181.904H102.78V194ZM107.2 188.288C107.792 187.744 108.624 187.472 109.424 187.472C110.592 187.472 111.28 188.032 111.28 189.12V189.344H110.8C108.96 189.344 106.08 189.488 106.08 191.968C106.08 193.424 107.344 194.192 108.864 194.192C110 194.192 110.832 193.648 111.328 192.88H111.36C111.36 193.2 111.36 193.664 111.44 194H112.64C112.576 193.616 112.528 193.136 112.528 192.704V189.488C112.528 187.376 111.6 186.32 109.392 186.32C108.304 186.32 107.184 186.688 106.416 187.472L107.2 188.288ZM111.28 190.4V190.88C111.248 192.096 110.512 193.136 109.072 193.136C108.128 193.136 107.424 192.784 107.424 191.84C107.424 190.832 108.448 190.4 110.032 190.4H111.28ZM121.129 187.504C120.377 186.688 119.353 186.32 118.249 186.32C115.945 186.32 114.377 187.984 114.377 190.256C114.377 192.56 115.929 194.192 118.249 194.192C119.337 194.192 120.361 193.824 121.081 192.992L120.153 192.112C119.689 192.752 119.065 193.04 118.249 193.04C116.729 193.04 115.721 191.792 115.721 190.256C115.721 188.72 116.569 187.472 118.249 187.472C119.001 187.472 119.609 187.744 120.137 188.384L121.129 187.504ZM128.272 191.904C127.68 192.656 126.96 193.04 125.888 193.04C124.528 193.04 123.536 191.936 123.44 190.64H129.488V190.24C129.488 187.76 128.048 186.32 125.936 186.32C123.728 186.32 122.096 187.936 122.096 190.256C122.096 192.432 123.536 194.192 125.888 194.192C127.28 194.192 128.336 193.776 129.216 192.64L128.272 191.904ZM123.44 189.584C123.6 188.32 124.512 187.472 125.888 187.472C127.264 187.472 128.096 188.32 128.144 189.584H123.44ZM131.418 194H132.666V190.352C132.666 188.64 133.37 187.472 134.986 187.472C136.154 187.472 136.698 188.256 136.698 189.504V194H137.946V189.376C137.946 187.568 137.066 186.32 135.098 186.32C133.93 186.32 133.034 186.96 132.698 187.552H132.666V181.904H131.418V194ZM139.877 190.256C139.877 192.592 141.573 194.192 143.877 194.192C146.181 194.192 147.877 192.592 147.877 190.256C147.877 187.92 146.181 186.32 143.877 186.32C141.573 186.32 139.877 187.92 139.877 190.256ZM141.221 190.256C141.221 188.688 142.261 187.472 143.877 187.472C145.493 187.472 146.533 188.688 146.533 190.256C146.533 191.824 145.493 193.04 143.877 193.04C142.261 193.04 141.221 191.824 141.221 190.256ZM149.921 194H151.169V181.904H149.921V194ZM159.877 194H161.125V181.904H159.877V187.6H159.845C159.157 186.8 158.245 186.32 157.157 186.32C154.805 186.32 153.221 187.984 153.221 190.256C153.221 192.496 154.869 194.192 156.965 194.192C158.309 194.192 159.381 193.52 159.845 192.672H159.877V194ZM159.877 190.256C159.877 191.824 158.837 193.04 157.221 193.04C155.605 193.04 154.565 191.824 154.565 190.256C154.565 188.688 155.605 187.472 157.221 187.472C158.837 187.472 159.877 188.688 159.877 190.256ZM169.178 191.904C168.586 192.656 167.866 193.04 166.794 193.04C165.434 193.04 164.442 191.936 164.346 190.64H170.394V190.24C170.394 187.76 168.954 186.32 166.842 186.32C164.634 186.32 163.002 187.936 163.002 190.256C163.002 192.432 164.442 194.192 166.794 194.192C168.186 194.192 169.242 193.776 170.122 192.64L169.178 191.904ZM164.346 189.584C164.506 188.32 165.418 187.472 166.794 187.472C168.17 187.472 169.002 188.32 169.05 189.584H164.346ZM172.325 194H173.573V190.352C173.573 188.64 174.245 187.568 175.765 187.568C175.989 187.568 176.229 187.6 176.437 187.664L176.517 186.4C176.341 186.336 176.165 186.32 176.005 186.32C174.773 186.32 173.845 187.008 173.509 187.744H173.477C173.477 187.328 173.445 186.912 173.445 186.512H172.261C172.261 187.008 172.325 187.6 172.325 188.288V194Z" fill="#333333"/>
<path d="M378.999 191.667C378.934 191.667 378.869 191.654 378.808 191.629C378.747 191.604 378.692 191.567 378.646 191.52L375.313 188.187C375.246 188.089 375.216 187.972 375.228 187.855C375.24 187.737 375.293 187.628 375.377 187.546C375.462 187.464 375.572 187.414 375.69 187.406C375.807 187.397 375.924 187.431 376.019 187.5L378.999 190.46L381.979 187.5C382.073 187.439 382.185 187.411 382.297 187.422C382.408 187.432 382.513 187.479 382.595 187.556C382.676 187.633 382.729 187.735 382.746 187.845C382.763 187.956 382.741 188.069 382.686 188.167L379.353 191.5C379.308 191.55 379.254 191.591 379.193 191.62C379.133 191.648 379.067 191.664 378.999 191.667V191.667Z" fill="#6B778C"/>
<rect x="80.5" y="172.5" width="319" height="35" rx="3.5" stroke="#9EA6B5"/>
<path d="M1.2 252H5.552C7.776 252 11.104 250.512 11.104 246.336C11.104 242.16 7.776 240.672 5.552 240.672H1.2V252ZM2.544 241.92H5.104C7.696 241.92 9.664 243.232 9.664 246.336C9.664 249.44 7.696 250.752 5.104 250.752H2.544V241.92ZM13.1554 252H14.4034V244.512H13.1554V252ZM12.8674 241.584C12.8674 242.112 13.2514 242.496 13.7794 242.496C14.3074 242.496 14.6914 242.112 14.6914 241.584C14.6914 241.088 14.2914 240.672 13.7794 240.672C13.2674 240.672 12.8674 241.088 12.8674 241.584ZM16.0551 250.8C16.7911 251.856 17.7031 252.192 18.9671 252.192C20.4551 252.192 21.9591 251.536 21.9591 249.84C21.9591 248.336 20.8391 247.856 19.5111 247.6C18.5191 247.408 17.6231 247.136 17.6231 246.512C17.6231 245.808 18.4071 245.472 19.0951 245.472C19.8311 245.472 20.3591 245.84 20.6791 246.368L21.7191 245.68C21.2071 244.72 20.2311 244.32 19.1751 244.32C17.7831 244.32 16.3751 245.072 16.3751 246.528C16.3751 248.08 17.5911 248.384 19.0151 248.704C19.8151 248.88 20.6151 249.088 20.6151 249.888C20.6151 250.704 19.7511 251.04 18.9671 251.04C18.0871 251.04 17.5431 250.64 17.0471 250.032L16.0551 250.8ZM24.3876 246.288C24.9796 245.744 25.8116 245.472 26.6116 245.472C27.7796 245.472 28.4676 246.032 28.4676 247.12V247.344H27.9876C26.1476 247.344 23.2676 247.488 23.2676 249.968C23.2676 251.424 24.5316 252.192 26.0516 252.192C27.1876 252.192 28.0196 251.648 28.5156 250.88H28.5476C28.5476 251.2 28.5476 251.664 28.6276 252H29.8276C29.7636 251.616 29.7156 251.136 29.7156 250.704V247.488C29.7156 245.376 28.7876 244.32 26.5796 244.32C25.4916 244.32 24.3716 244.688 23.6036 245.472L24.3876 246.288ZM28.4676 248.4V248.88C28.4356 250.096 27.6996 251.136 26.2596 251.136C25.3156 251.136 24.6116 250.784 24.6116 249.84C24.6116 248.832 25.6356 248.4 27.2196 248.4H28.4676ZM31.9325 252H33.1805V250.672H33.2125C33.6765 251.52 34.7485 252.192 36.0925 252.192C38.1885 252.192 39.8365 250.496 39.8365 248.256C39.8365 245.984 38.2525 244.32 35.9005 244.32C34.8125 244.32 33.9005 244.8 33.2125 245.6H33.1805V239.904H31.9325V252ZM33.1805 248.256C33.1805 246.688 34.2205 245.472 35.8365 245.472C37.4525 245.472 38.4925 246.688 38.4925 248.256C38.4925 249.824 37.4525 251.04 35.8365 251.04C34.2205 251.04 33.1805 249.824 33.1805 248.256ZM41.8898 252H43.1378V239.904H41.8898V252ZM51.3655 249.904C50.7735 250.656 50.0535 251.04 48.9815 251.04C47.6215 251.04 46.6295 249.936 46.5335 248.64H52.5815V248.24C52.5815 245.76 51.1415 244.32 49.0295 244.32C46.8215 244.32 45.1895 245.936 45.1895 248.256C45.1895 250.432 46.6295 252.192 48.9815 252.192C50.3735 252.192 51.4295 251.776 52.3095 250.64L51.3655 249.904ZM46.5335 247.584C46.6935 246.32 47.6055 245.472 48.9815 245.472C50.3575 245.472 51.1895 246.32 51.2375 247.584H46.5335ZM60.7361 252H61.9841V239.904H60.7361V245.6H60.7041C60.0161 244.8 59.1041 244.32 58.0161 244.32C55.6641 244.32 54.0801 245.984 54.0801 248.256C54.0801 250.496 55.7281 252.192 57.8241 252.192C59.1681 252.192 60.2401 251.52 60.7041 250.672H60.7361V252ZM60.7361 248.256C60.7361 249.824 59.6961 251.04 58.0801 251.04C56.4641 251.04 55.4241 249.824 55.4241 248.256C55.4241 246.688 56.4641 245.472 58.0801 245.472C59.6961 245.472 60.7361 246.688 60.7361 248.256Z" fill="black"/>
<g clip-path="url(#clip3_177_34117)">
<path d="M81.408 234H82.752V228.912H88.032V227.664H82.752V223.92H88.432V222.672H81.408V234ZM90.1866 234H91.4346V226.512H90.1866V234ZM89.8986 223.584C89.8986 224.112 90.2826 224.496 90.8106 224.496C91.3386 224.496 91.7226 224.112 91.7226 223.584C91.7226 223.088 91.3226 222.672 90.8106 222.672C90.2986 222.672 89.8986 223.088 89.8986 223.584ZM99.6624 231.904C99.0704 232.656 98.3504 233.04 97.2784 233.04C95.9184 233.04 94.9264 231.936 94.8304 230.64H100.878V230.24C100.878 227.76 99.4384 226.32 97.3264 226.32C95.1184 226.32 93.4864 227.936 93.4864 230.256C93.4864 232.432 94.9264 234.192 97.2784 234.192C98.6704 234.192 99.7264 233.776 100.606 232.64L99.6624 231.904ZM94.8304 229.584C94.9904 228.32 95.9024 227.472 97.2784 227.472C98.6544 227.472 99.4864 228.32 99.5344 229.584H94.8304ZM102.921 234H104.169V221.904H102.921V234ZM112.877 234H114.125V221.904H112.877V227.6H112.845C112.157 226.8 111.245 226.32 110.157 226.32C107.805 226.32 106.221 227.984 106.221 230.256C106.221 232.496 107.869 234.192 109.965 234.192C111.309 234.192 112.381 233.52 112.845 232.672H112.877V234ZM112.877 230.256C112.877 231.824 111.837 233.04 110.221 233.04C108.605 233.04 107.565 231.824 107.565 230.256C107.565 228.688 108.605 227.472 110.221 227.472C111.837 227.472 112.877 228.688 112.877 230.256ZM121.111 234H127.639V232.752H122.455V222.672H121.111V234ZM129.575 228.288C130.167 227.744 130.999 227.472 131.799 227.472C132.967 227.472 133.655 228.032 133.655 229.12V229.344H133.175C131.335 229.344 128.455 229.488 128.455 231.968C128.455 233.424 129.719 234.192 131.239 234.192C132.375 234.192 133.207 233.648 133.703 232.88H133.735C133.735 233.2 133.735 233.664 133.815 234H135.015C134.951 233.616 134.903 233.136 134.903 232.704V229.488C134.903 227.376 133.975 226.32 131.767 226.32C130.679 226.32 129.559 226.688 128.791 227.472L129.575 228.288ZM133.655 230.4V230.88C133.623 232.096 132.887 233.136 131.447 233.136C130.503 233.136 129.799 232.784 129.799 231.84C129.799 230.832 130.823 230.4 132.407 230.4H133.655ZM137.12 234H138.368V232.672H138.4C138.864 233.52 139.936 234.192 141.28 234.192C143.376 234.192 145.024 232.496 145.024 230.256C145.024 227.984 143.44 226.32 141.088 226.32C140 226.32 139.088 226.8 138.4 227.6H138.368V221.904H137.12V234ZM138.368 230.256C138.368 228.688 139.408 227.472 141.024 227.472C142.64 227.472 143.68 228.688 143.68 230.256C143.68 231.824 142.64 233.04 141.024 233.04C139.408 233.04 138.368 231.824 138.368 230.256ZM152.709 231.904C152.117 232.656 151.397 233.04 150.325 233.04C148.965 233.04 147.973 231.936 147.877 230.64H153.925V230.24C153.925 227.76 152.485 226.32 150.373 226.32C148.165 226.32 146.533 227.936 146.533 230.256C146.533 232.432 147.973 234.192 150.325 234.192C151.717 234.192 152.773 233.776 153.653 232.64L152.709 231.904ZM147.877 229.584C148.037 228.32 148.949 227.472 150.325 227.472C151.701 227.472 152.533 228.32 152.581 229.584H147.877ZM155.968 234H157.216V221.904H155.968V234Z" fill="#333333"/>
<path opacity="0.8" d="M167.384 220.672H166.04V222.944L163.864 222.192L163.448 223.472L165.64 224.224L164.264 226.032L165.336 226.848L166.68 225.008L168.056 226.896L169.16 226.096L167.784 224.224L169.96 223.52L169.544 222.24L167.384 222.944V220.672Z" fill="#DB3259"/>
</g>
<g opacity="0.5">
<rect x="80.5" y="244.5" width="319" height="35" rx="3.5" fill="#D2D6DD"/>
<path opacity="0.8" d="M93.408 266H94.752V260.912H97.024C98.624 260.912 100.736 260.256 100.736 257.776C100.736 255.408 98.848 254.672 96.768 254.672H93.408V266ZM94.752 255.92H97.024C98.368 255.92 99.296 256.528 99.296 257.792C99.296 259.056 98.368 259.664 97.024 259.664H94.752V255.92ZM102.78 266H104.028V253.904H102.78V266ZM107.2 260.288C107.792 259.744 108.624 259.472 109.424 259.472C110.592 259.472 111.28 260.032 111.28 261.12V261.344H110.8C108.96 261.344 106.08 261.488 106.08 263.968C106.08 265.424 107.344 266.192 108.864 266.192C110 266.192 110.832 265.648 111.328 264.88H111.36C111.36 265.2 111.36 265.664 111.44 266H112.64C112.576 265.616 112.528 265.136 112.528 264.704V261.488C112.528 259.376 111.6 258.32 109.392 258.32C108.304 258.32 107.184 258.688 106.416 259.472L107.2 260.288ZM111.28 262.4V262.88C111.248 264.096 110.512 265.136 109.072 265.136C108.128 265.136 107.424 264.784 107.424 263.84C107.424 262.832 108.448 262.4 110.032 262.4H111.28ZM121.129 259.504C120.377 258.688 119.353 258.32 118.249 258.32C115.945 258.32 114.377 259.984 114.377 262.256C114.377 264.56 115.929 266.192 118.249 266.192C119.337 266.192 120.361 265.824 121.081 264.992L120.153 264.112C119.689 264.752 119.065 265.04 118.249 265.04C116.729 265.04 115.721 263.792 115.721 262.256C115.721 260.72 116.569 259.472 118.249 259.472C119.001 259.472 119.609 259.744 120.137 260.384L121.129 259.504ZM128.272 263.904C127.68 264.656 126.96 265.04 125.888 265.04C124.528 265.04 123.536 263.936 123.44 262.64H129.488V262.24C129.488 259.76 128.048 258.32 125.936 258.32C123.728 258.32 122.096 259.936 122.096 262.256C122.096 264.432 123.536 266.192 125.888 266.192C127.28 266.192 128.336 265.776 129.216 264.64L128.272 263.904ZM123.44 261.584C123.6 260.32 124.512 259.472 125.888 259.472C127.264 259.472 128.096 260.32 128.144 261.584H123.44ZM131.418 266H132.666V262.352C132.666 260.64 133.37 259.472 134.986 259.472C136.154 259.472 136.698 260.256 136.698 261.504V266H137.946V261.376C137.946 259.568 137.066 258.32 135.098 258.32C133.93 258.32 133.034 258.96 132.698 259.552H132.666V253.904H131.418V266ZM139.877 262.256C139.877 264.592 141.573 266.192 143.877 266.192C146.181 266.192 147.877 264.592 147.877 262.256C147.877 259.92 146.181 258.32 143.877 258.32C141.573 258.32 139.877 259.92 139.877 262.256ZM141.221 262.256C141.221 260.688 142.261 259.472 143.877 259.472C145.493 259.472 146.533 260.688 146.533 262.256C146.533 263.824 145.493 265.04 143.877 265.04C142.261 265.04 141.221 263.824 141.221 262.256ZM149.921 266H151.169V253.904H149.921V266ZM159.877 266H161.125V253.904H159.877V259.6H159.845C159.157 258.8 158.245 258.32 157.157 258.32C154.805 258.32 153.221 259.984 153.221 262.256C153.221 264.496 154.869 266.192 156.965 266.192C158.309 266.192 159.381 265.52 159.845 264.672H159.877V266ZM159.877 262.256C159.877 263.824 158.837 265.04 157.221 265.04C155.605 265.04 154.565 263.824 154.565 262.256C154.565 260.688 155.605 259.472 157.221 259.472C158.837 259.472 159.877 260.688 159.877 262.256ZM169.178 263.904C168.586 264.656 167.866 265.04 166.794 265.04C165.434 265.04 164.442 263.936 164.346 262.64H170.394V262.24C170.394 259.76 168.954 258.32 166.842 258.32C164.634 258.32 163.002 259.936 163.002 262.256C163.002 264.432 164.442 266.192 166.794 266.192C168.186 266.192 169.242 265.776 170.122 264.64L169.178 263.904ZM164.346 261.584C164.506 260.32 165.418 259.472 166.794 259.472C168.17 259.472 169.002 260.32 169.05 261.584H164.346ZM172.325 266H173.573V262.352C173.573 260.64 174.245 259.568 175.765 259.568C175.989 259.568 176.229 259.6 176.437 259.664L176.517 258.4C176.341 258.336 176.165 258.32 176.005 258.32C174.773 258.32 173.845 259.008 173.509 259.744H173.477C173.477 259.328 173.445 258.912 173.445 258.512H172.261C172.261 259.008 172.325 259.6 172.325 260.288V266Z" fill="#9EA6B5"/>
<path d="M378.999 263.667C378.934 263.667 378.869 263.654 378.808 263.629C378.747 263.604 378.692 263.567 378.646 263.52L375.313 260.187C375.246 260.089 375.216 259.972 375.228 259.855C375.24 259.737 375.293 259.628 375.377 259.546C375.462 259.464 375.572 259.414 375.69 259.406C375.807 259.397 375.924 259.431 376.019 259.5L378.999 262.46L381.979 259.5C382.073 259.439 382.185 259.411 382.297 259.422C382.408 259.432 382.513 259.479 382.595 259.556C382.676 259.633 382.729 259.735 382.746 259.845C382.763 259.956 382.741 260.069 382.686 260.167L379.353 263.5C379.308 263.55 379.254 263.591 379.193 263.62C379.133 263.648 379.067 263.664 378.999 263.667V263.667Z" fill="#6B778C"/>
<rect x="80.5" y="244.5" width="319" height="35" rx="3.5" stroke="#9EA6B5"/>
</g>
<path d="M1.408 338H8.816V336.752H2.752V332.72H8.144V331.472H2.752V327.92H8.528V326.672H1.408V338ZM10.6684 338H11.9164V334.352C11.9164 332.64 12.5884 331.568 14.1084 331.568C14.3324 331.568 14.5724 331.6 14.7804 331.664L14.8604 330.4C14.6844 330.336 14.5084 330.32 14.3484 330.32C13.1164 330.32 12.1884 331.008 11.8524 331.744H11.8204C11.8204 331.328 11.7884 330.912 11.7884 330.512H10.6044C10.6044 331.008 10.6684 331.6 10.6684 332.288V338ZM16.2934 338H17.5414V334.352C17.5414 332.64 18.2134 331.568 19.7334 331.568C19.9574 331.568 20.1974 331.6 20.4054 331.664L20.4854 330.4C20.3094 330.336 20.1334 330.32 19.9734 330.32C18.7414 330.32 17.8134 331.008 17.4774 331.744H17.4454C17.4454 331.328 17.4134 330.912 17.4134 330.512H16.2294C16.2294 331.008 16.2934 331.6 16.2934 332.288V338ZM21.2051 334.256C21.2051 336.592 22.9011 338.192 25.2051 338.192C27.5091 338.192 29.2051 336.592 29.2051 334.256C29.2051 331.92 27.5091 330.32 25.2051 330.32C22.9011 330.32 21.2051 331.92 21.2051 334.256ZM22.5491 334.256C22.5491 332.688 23.5891 331.472 25.2051 331.472C26.8211 331.472 27.8611 332.688 27.8611 334.256C27.8611 335.824 26.8211 337.04 25.2051 337.04C23.5891 337.04 22.5491 335.824 22.5491 334.256ZM31.1371 338H32.3851V334.352C32.3851 332.64 33.0571 331.568 34.5771 331.568C34.8011 331.568 35.0411 331.6 35.2491 331.664L35.3291 330.4C35.1531 330.336 34.9771 330.32 34.8171 330.32C33.5851 330.32 32.6571 331.008 32.3211 331.744H32.2891C32.2891 331.328 32.2571 330.912 32.2571 330.512H31.0731C31.0731 331.008 31.1371 331.6 31.1371 332.288V338Z" fill="black"/>
<g clip-path="url(#clip4_177_34117)">
<path d="M81.408 306H82.752V300.912H88.032V299.664H82.752V295.92H88.432V294.672H81.408V306ZM90.1866 306H91.4346V298.512H90.1866V306ZM89.8986 295.584C89.8986 296.112 90.2826 296.496 90.8106 296.496C91.3386 296.496 91.7226 296.112 91.7226 295.584C91.7226 295.088 91.3226 294.672 90.8106 294.672C90.2986 294.672 89.8986 295.088 89.8986 295.584ZM99.6624 303.904C99.0704 304.656 98.3504 305.04 97.2784 305.04C95.9184 305.04 94.9264 303.936 94.8304 302.64H100.878V302.24C100.878 299.76 99.4384 298.32 97.3264 298.32C95.1184 298.32 93.4864 299.936 93.4864 302.256C93.4864 304.432 94.9264 306.192 97.2784 306.192C98.6704 306.192 99.7264 305.776 100.606 304.64L99.6624 303.904ZM94.8304 301.584C94.9904 300.32 95.9024 299.472 97.2784 299.472C98.6544 299.472 99.4864 300.32 99.5344 301.584H94.8304ZM102.921 306H104.169V293.904H102.921V306ZM112.877 306H114.125V293.904H112.877V299.6H112.845C112.157 298.8 111.245 298.32 110.157 298.32C107.805 298.32 106.221 299.984 106.221 302.256C106.221 304.496 107.869 306.192 109.965 306.192C111.309 306.192 112.381 305.52 112.845 304.672H112.877V306ZM112.877 302.256C112.877 303.824 111.837 305.04 110.221 305.04C108.605 305.04 107.565 303.824 107.565 302.256C107.565 300.688 108.605 299.472 110.221 299.472C111.837 299.472 112.877 300.688 112.877 302.256ZM121.111 306H127.639V304.752H122.455V294.672H121.111V306ZM129.575 300.288C130.167 299.744 130.999 299.472 131.799 299.472C132.967 299.472 133.655 300.032 133.655 301.12V301.344H133.175C131.335 301.344 128.455 301.488 128.455 303.968C128.455 305.424 129.719 306.192 131.239 306.192C132.375 306.192 133.207 305.648 133.703 304.88H133.735C133.735 305.2 133.735 305.664 133.815 306H135.015C134.951 305.616 134.903 305.136 134.903 304.704V301.488C134.903 299.376 133.975 298.32 131.767 298.32C130.679 298.32 129.559 298.688 128.791 299.472L129.575 300.288ZM133.655 302.4V302.88C133.623 304.096 132.887 305.136 131.447 305.136C130.503 305.136 129.799 304.784 129.799 303.84C129.799 302.832 130.823 302.4 132.407 302.4H133.655ZM137.12 306H138.368V304.672H138.4C138.864 305.52 139.936 306.192 141.28 306.192C143.376 306.192 145.024 304.496 145.024 302.256C145.024 299.984 143.44 298.32 141.088 298.32C140 298.32 139.088 298.8 138.4 299.6H138.368V293.904H137.12V306ZM138.368 302.256C138.368 300.688 139.408 299.472 141.024 299.472C142.64 299.472 143.68 300.688 143.68 302.256C143.68 303.824 142.64 305.04 141.024 305.04C139.408 305.04 138.368 303.824 138.368 302.256ZM152.709 303.904C152.117 304.656 151.397 305.04 150.325 305.04C148.965 305.04 147.973 303.936 147.877 302.64H153.925V302.24C153.925 299.76 152.485 298.32 150.373 298.32C148.165 298.32 146.533 299.936 146.533 302.256C146.533 304.432 147.973 306.192 150.325 306.192C151.717 306.192 152.773 305.776 153.653 304.64L152.709 303.904ZM147.877 301.584C148.037 300.32 148.949 299.472 150.325 299.472C151.701 299.472 152.533 300.32 152.581 301.584H147.877ZM155.968 306H157.216V293.904H155.968V306Z" fill="#333333"/>
<path opacity="0.8" d="M167.384 292.672H166.04V294.944L163.864 294.192L163.448 295.472L165.64 296.224L164.264 298.032L165.336 298.848L166.68 297.008L168.056 298.896L169.16 298.096L167.784 296.224L169.96 295.52L169.544 294.24L167.384 294.944V292.672Z" fill="#DB3259"/>
</g>
<path opacity="0.8" d="M93.408 338H94.752V332.912H97.024C98.624 332.912 100.736 332.256 100.736 329.776C100.736 327.408 98.848 326.672 96.768 326.672H93.408V338ZM94.752 327.92H97.024C98.368 327.92 99.296 328.528 99.296 329.792C99.296 331.056 98.368 331.664 97.024 331.664H94.752V327.92ZM102.78 338H104.028V325.904H102.78V338ZM107.2 332.288C107.792 331.744 108.624 331.472 109.424 331.472C110.592 331.472 111.28 332.032 111.28 333.12V333.344H110.8C108.96 333.344 106.08 333.488 106.08 335.968C106.08 337.424 107.344 338.192 108.864 338.192C110 338.192 110.832 337.648 111.328 336.88H111.36C111.36 337.2 111.36 337.664 111.44 338H112.64C112.576 337.616 112.528 337.136 112.528 336.704V333.488C112.528 331.376 111.6 330.32 109.392 330.32C108.304 330.32 107.184 330.688 106.416 331.472L107.2 332.288ZM111.28 334.4V334.88C111.248 336.096 110.512 337.136 109.072 337.136C108.128 337.136 107.424 336.784 107.424 335.84C107.424 334.832 108.448 334.4 110.032 334.4H111.28ZM121.129 331.504C120.377 330.688 119.353 330.32 118.249 330.32C115.945 330.32 114.377 331.984 114.377 334.256C114.377 336.56 115.929 338.192 118.249 338.192C119.337 338.192 120.361 337.824 121.081 336.992L120.153 336.112C119.689 336.752 119.065 337.04 118.249 337.04C116.729 337.04 115.721 335.792 115.721 334.256C115.721 332.72 116.569 331.472 118.249 331.472C119.001 331.472 119.609 331.744 120.137 332.384L121.129 331.504ZM128.272 335.904C127.68 336.656 126.96 337.04 125.888 337.04C124.528 337.04 123.536 335.936 123.44 334.64H129.488V334.24C129.488 331.76 128.048 330.32 125.936 330.32C123.728 330.32 122.096 331.936 122.096 334.256C122.096 336.432 123.536 338.192 125.888 338.192C127.28 338.192 128.336 337.776 129.216 336.64L128.272 335.904ZM123.44 333.584C123.6 332.32 124.512 331.472 125.888 331.472C127.264 331.472 128.096 332.32 128.144 333.584H123.44ZM131.418 338H132.666V334.352C132.666 332.64 133.37 331.472 134.986 331.472C136.154 331.472 136.698 332.256 136.698 333.504V338H137.946V333.376C137.946 331.568 137.066 330.32 135.098 330.32C133.93 330.32 133.034 330.96 132.698 331.552H132.666V325.904H131.418V338ZM139.877 334.256C139.877 336.592 141.573 338.192 143.877 338.192C146.181 338.192 147.877 336.592 147.877 334.256C147.877 331.92 146.181 330.32 143.877 330.32C141.573 330.32 139.877 331.92 139.877 334.256ZM141.221 334.256C141.221 332.688 142.261 331.472 143.877 331.472C145.493 331.472 146.533 332.688 146.533 334.256C146.533 335.824 145.493 337.04 143.877 337.04C142.261 337.04 141.221 335.824 141.221 334.256ZM149.921 338H151.169V325.904H149.921V338ZM159.877 338H161.125V325.904H159.877V331.6H159.845C159.157 330.8 158.245 330.32 157.157 330.32C154.805 330.32 153.221 331.984 153.221 334.256C153.221 336.496 154.869 338.192 156.965 338.192C158.309 338.192 159.381 337.52 159.845 336.672H159.877V338ZM159.877 334.256C159.877 335.824 158.837 337.04 157.221 337.04C155.605 337.04 154.565 335.824 154.565 334.256C154.565 332.688 155.605 331.472 157.221 331.472C158.837 331.472 159.877 332.688 159.877 334.256ZM169.178 335.904C168.586 336.656 167.866 337.04 166.794 337.04C165.434 337.04 164.442 335.936 164.346 334.64H170.394V334.24C170.394 331.76 168.954 330.32 166.842 330.32C164.634 330.32 163.002 331.936 163.002 334.256C163.002 336.432 164.442 338.192 166.794 338.192C168.186 338.192 169.242 337.776 170.122 336.64L169.178 335.904ZM164.346 333.584C164.506 332.32 165.418 331.472 166.794 331.472C168.17 331.472 169.002 332.32 169.05 333.584H164.346ZM172.325 338H173.573V334.352C173.573 332.64 174.245 331.568 175.765 331.568C175.989 331.568 176.229 331.6 176.437 331.664L176.517 330.4C176.341 330.336 176.165 330.32 176.005 330.32C174.773 330.32 173.845 331.008 173.509 331.744H173.477C173.477 331.328 173.445 330.912 173.445 330.512H172.261C172.261 331.008 172.325 331.6 172.325 332.288V338Z" fill="#9EA6B5"/>
<path d="M378.999 335.667C378.934 335.667 378.869 335.654 378.808 335.629C378.747 335.604 378.692 335.567 378.646 335.52L375.313 332.187C375.246 332.089 375.216 331.972 375.228 331.855C375.24 331.737 375.293 331.628 375.377 331.546C375.462 331.464 375.572 331.414 375.69 331.406C375.807 331.397 375.924 331.431 376.019 331.5L378.999 334.46L381.979 331.5C382.073 331.439 382.185 331.411 382.297 331.422C382.408 331.432 382.513 331.479 382.595 331.556C382.676 331.633 382.729 331.735 382.746 331.845C382.763 331.956 382.741 332.069 382.686 332.167L379.353 335.5C379.308 335.55 379.254 335.591 379.193 335.62C379.133 335.648 379.067 335.664 378.999 335.667V335.667Z" fill="#6B778C"/>
<rect x="80.5" y="316.5" width="319" height="35" rx="3.5" stroke="#DB3259"/>
<path d="M96.6662 371.625H83.3329C83.2237 371.625 83.1164 371.596 83.0215 371.542C82.9266 371.488 82.8472 371.41 82.7912 371.317C82.7379 371.221 82.71 371.114 82.71 371.004C82.71 370.895 82.7379 370.787 82.7912 370.692L89.4579 359.025C89.5172 358.936 89.5976 358.862 89.6922 358.812C89.7867 358.761 89.8923 358.734 89.9995 358.734C90.1068 358.734 90.2124 358.761 90.3069 358.812C90.4014 358.862 90.4819 358.936 90.5412 359.025L97.2079 370.692C97.2611 370.787 97.2891 370.895 97.2891 371.004C97.2891 371.114 97.2611 371.221 97.2079 371.317C97.1518 371.41 97.0725 371.488 96.9776 371.542C96.8827 371.596 96.7754 371.625 96.6662 371.625ZM84.4079 370.375H95.5912L89.9995 360.592L84.4079 370.375Z" fill="#DB3259"/>
<path d="M90 367.042C89.8349 367.04 89.6772 366.973 89.5604 366.856C89.4437 366.739 89.3772 366.582 89.375 366.417V363.5C89.375 363.334 89.4408 363.175 89.5581 363.058C89.6753 362.941 89.8342 362.875 90 362.875C90.1658 362.875 90.3247 362.941 90.4419 363.058C90.5592 363.175 90.625 363.334 90.625 363.5V366.417C90.6228 366.582 90.5563 366.739 90.4396 366.856C90.3228 366.973 90.1651 367.04 90 367.042V367.042Z" fill="#DB3259"/>
<path d="M90 369.542C89.8349 369.54 89.6772 369.473 89.5604 369.356C89.4437 369.239 89.3772 369.082 89.375 368.917V368.5C89.375 368.334 89.4408 368.175 89.5581 368.058C89.6753 367.941 89.8342 367.875 90 367.875C90.1658 367.875 90.3247 367.941 90.4419 368.058C90.5592 368.175 90.625 368.334 90.625 368.5V368.917C90.6228 369.082 90.5563 369.239 90.4396 369.356C90.3228 369.473 90.1651 369.54 90 369.542V369.542Z" fill="#DB3259"/>
<path d="M115.008 360.672H106.176V361.92H109.92V372H111.264V361.92H115.008V360.672ZM116.372 372H117.62V368.352C117.62 366.64 118.324 365.472 119.94 365.472C121.108 365.472 121.652 366.256 121.652 367.504V372H122.9V367.376C122.9 365.568 122.02 364.32 120.052 364.32C118.884 364.32 117.988 364.96 117.652 365.552H117.62V359.904H116.372V372ZM125.374 372H126.622V364.512H125.374V372ZM125.086 361.584C125.086 362.112 125.47 362.496 125.998 362.496C126.526 362.496 126.91 362.112 126.91 361.584C126.91 361.088 126.51 360.672 125.998 360.672C125.486 360.672 125.086 361.088 125.086 361.584ZM128.274 370.8C129.01 371.856 129.922 372.192 131.186 372.192C132.674 372.192 134.178 371.536 134.178 369.84C134.178 368.336 133.058 367.856 131.73 367.6C130.738 367.408 129.842 367.136 129.842 366.512C129.842 365.808 130.626 365.472 131.314 365.472C132.05 365.472 132.578 365.84 132.898 366.368L133.938 365.68C133.426 364.72 132.45 364.32 131.394 364.32C130.002 364.32 128.594 365.072 128.594 366.528C128.594 368.08 129.81 368.384 131.234 368.704C132.034 368.88 132.834 369.088 132.834 369.888C132.834 370.704 131.97 371.04 131.186 371.04C130.306 371.04 129.762 370.64 129.266 370.032L128.274 370.8ZM140.484 372H141.732V364.512H140.484V372ZM140.196 361.584C140.196 362.112 140.58 362.496 141.108 362.496C141.636 362.496 142.02 362.112 142.02 361.584C142.02 361.088 141.62 360.672 141.108 360.672C140.596 360.672 140.196 361.088 140.196 361.584ZM143.383 370.8C144.119 371.856 145.031 372.192 146.295 372.192C147.783 372.192 149.287 371.536 149.287 369.84C149.287 368.336 148.167 367.856 146.839 367.6C145.847 367.408 144.951 367.136 144.951 366.512C144.951 365.808 145.735 365.472 146.423 365.472C147.159 365.472 147.687 365.84 148.007 366.368L149.047 365.68C148.535 364.72 147.559 364.32 146.503 364.32C145.111 364.32 143.703 365.072 143.703 366.528C143.703 368.08 144.919 368.384 146.343 368.704C147.143 368.88 147.943 369.088 147.943 369.888C147.943 370.704 147.079 371.04 146.295 371.04C145.415 371.04 144.871 370.64 144.375 370.032L143.383 370.8ZM156.169 366.288C156.761 365.744 157.593 365.472 158.393 365.472C159.561 365.472 160.249 366.032 160.249 367.12V367.344H159.769C157.929 367.344 155.049 367.488 155.049 369.968C155.049 371.424 156.313 372.192 157.833 372.192C158.969 372.192 159.801 371.648 160.297 370.88H160.329C160.329 371.2 160.329 371.664 160.409 372H161.609C161.545 371.616 161.497 371.136 161.497 370.704V367.488C161.497 365.376 160.569 364.32 158.361 364.32C157.273 364.32 156.153 364.688 155.385 365.472L156.169 366.288ZM160.249 368.4V368.88C160.217 370.096 159.481 371.136 158.041 371.136C157.097 371.136 156.393 370.784 156.393 369.84C156.393 368.832 157.417 368.4 159.001 368.4H160.249ZM168.231 372H169.479V368.352C169.479 366.64 170.183 365.472 171.799 365.472C172.823 365.472 173.239 366.112 173.239 367.76V372H174.487V367.68C174.487 366.336 175.367 365.472 176.423 365.472C177.879 365.472 178.247 366.48 178.247 367.52V372H179.495V367.456C179.495 365.52 178.791 364.32 176.647 364.32C175.511 364.32 174.823 364.864 174.279 365.744C174.039 365.232 173.527 364.32 171.911 364.32C170.679 364.32 169.751 365.008 169.415 365.744H169.383C169.383 365.328 169.351 364.912 169.351 364.512H168.167C168.167 365.008 168.231 365.6 168.231 366.288V372ZM187.6 369.904C187.008 370.656 186.288 371.04 185.216 371.04C183.856 371.04 182.864 369.936 182.768 368.64H188.816V368.24C188.816 365.76 187.376 364.32 185.264 364.32C183.056 364.32 181.424 365.936 181.424 368.256C181.424 370.432 182.864 372.192 185.216 372.192C186.608 372.192 187.664 371.776 188.544 370.64L187.6 369.904ZM182.768 367.584C182.928 366.32 183.84 365.472 185.216 365.472C186.592 365.472 187.424 366.32 187.472 367.584H182.768ZM189.915 370.8C190.651 371.856 191.562 372.192 192.827 372.192C194.315 372.192 195.819 371.536 195.819 369.84C195.819 368.336 194.699 367.856 193.371 367.6C192.379 367.408 191.483 367.136 191.483 366.512C191.483 365.808 192.267 365.472 192.955 365.472C193.691 365.472 194.219 365.84 194.539 366.368L195.579 365.68C195.067 364.72 194.091 364.32 193.035 364.32C191.643 364.32 190.235 365.072 190.235 366.528C190.235 368.08 191.451 368.384 192.875 368.704C193.674 368.88 194.475 369.088 194.475 369.888C194.475 370.704 193.611 371.04 192.827 371.04C191.947 371.04 191.403 370.64 190.907 370.032L189.915 370.8ZM196.727 370.8C197.463 371.856 198.375 372.192 199.639 372.192C201.127 372.192 202.631 371.536 202.631 369.84C202.631 368.336 201.511 367.856 200.183 367.6C199.191 367.408 198.295 367.136 198.295 366.512C198.295 365.808 199.079 365.472 199.767 365.472C200.503 365.472 201.031 365.84 201.351 366.368L202.391 365.68C201.879 364.72 200.903 364.32 199.847 364.32C198.455 364.32 197.047 365.072 197.047 366.528C197.047 368.08 198.263 368.384 199.687 368.704C200.487 368.88 201.287 369.088 201.287 369.888C201.287 370.704 200.423 371.04 199.639 371.04C198.759 371.04 198.215 370.64 197.719 370.032L196.727 370.8ZM205.06 366.288C205.652 365.744 206.484 365.472 207.284 365.472C208.452 365.472 209.14 366.032 209.14 367.12V367.344H208.66C206.82 367.344 203.94 367.488 203.94 369.968C203.94 371.424 205.204 372.192 206.724 372.192C207.86 372.192 208.692 371.648 209.188 370.88H209.22C209.22 371.2 209.22 371.664 209.3 372H210.5C210.436 371.616 210.388 371.136 210.388 370.704V367.488C210.388 365.376 209.46 364.32 207.252 364.32C206.164 364.32 205.044 364.688 204.276 365.472L205.06 366.288ZM209.14 368.4V368.88C209.108 370.096 208.372 371.136 206.932 371.136C205.988 371.136 205.284 370.784 205.284 369.84C205.284 368.832 206.308 368.4 207.891 368.4H209.14ZM220.14 364.512H218.892V365.792H218.86C218.364 364.8 217.228 364.32 216.22 364.32C213.836 364.32 212.236 365.808 212.236 368.256C212.236 370.464 213.868 372.096 216.22 372.096C217.212 372.096 218.268 371.664 218.86 370.704H218.892V371.664C218.892 373.248 218.3 374.688 216.06 374.688C214.908 374.688 214.06 374.24 213.276 373.392L212.38 374.416C213.436 375.456 214.604 375.84 216.06 375.84C218.684 375.84 220.14 374.368 220.14 371.664V364.512ZM213.58 368.256C213.58 366.688 214.652 365.472 216.22 365.472C217.804 365.472 218.892 366.608 218.892 368.224C218.892 369.664 217.932 370.944 216.22 370.944C214.764 370.944 213.58 369.776 213.58 368.256ZM228.194 369.904C227.602 370.656 226.882 371.04 225.81 371.04C224.45 371.04 223.458 369.936 223.362 368.64H229.41V368.24C229.41 365.76 227.97 364.32 225.858 364.32C223.65 364.32 222.018 365.936 222.018 368.256C222.018 370.432 223.458 372.192 225.81 372.192C227.202 372.192 228.258 371.776 229.138 370.64L228.194 369.904ZM223.362 367.584C223.522 366.32 224.434 365.472 225.81 365.472C227.186 365.472 228.018 366.32 228.066 367.584H223.362Z" fill="#DB3259"/>
<defs>
<clipPath id="clip0_177_34117">
<rect width="91" height="24" fill="white" transform="translate(80)"/>
</clipPath>
<clipPath id="clip1_177_34117">
<rect width="91" height="24" fill="white" transform="translate(80 72)"/>
</clipPath>
<clipPath id="clip2_177_34117">
<rect width="91" height="24" fill="white" transform="translate(80 144)"/>
</clipPath>
<clipPath id="clip3_177_34117">
<rect width="91" height="24" fill="white" transform="translate(80 216)"/>
</clipPath>
<clipPath id="clip4_177_34117">
<rect width="91" height="24" fill="white" transform="translate(80 288)"/>
</clipPath>
</defs>
</svg>
