<svg width="760" height="293" viewBox="0 0 760 293" fill="none" xmlns="http://www.w3.org/2000/svg">
<g clip-path="url(#clip0_31_7600)">
<path d="M11.408 18H12.752V12.912H15.024C16.624 12.912 18.736 12.256 18.736 9.776C18.736 7.408 16.848 6.672 14.768 6.672H11.408V18ZM12.752 7.92H15.024C16.368 7.92 17.296 8.528 17.296 9.792C17.296 11.056 16.368 11.664 15.024 11.664H12.752V7.92ZM20.7804 18H22.0284V5.904H20.7804V18ZM25.2001 12.288C25.7921 11.744 26.6241 11.472 27.4241 11.472C28.5921 11.472 29.2801 12.032 29.2801 13.12V13.344H28.8001C26.9601 13.344 24.0801 13.488 24.0801 15.968C24.0801 17.424 25.3441 18.192 26.8641 18.192C28.0001 18.192 28.8321 17.648 29.3281 16.88H29.3601C29.3601 17.2 29.3601 17.664 29.4401 18H30.6401C30.5761 17.616 30.5281 17.136 30.5281 16.704V13.488C30.5281 11.376 29.6001 10.32 27.3921 10.32C26.3041 10.32 25.1841 10.688 24.4161 11.472L25.2001 12.288ZM29.2801 14.4V14.88C29.2481 16.096 28.5121 17.136 27.0721 17.136C26.1281 17.136 25.4241 16.784 25.4241 15.84C25.4241 14.832 26.4481 14.4 28.0321 14.4H29.2801ZM32.809 18H34.057V14.352C34.057 12.64 34.761 11.472 36.377 11.472C37.545 11.472 38.089 12.256 38.089 13.504V18H39.337V13.376C39.337 11.568 38.457 10.32 36.489 10.32C35.257 10.32 34.329 11.008 33.993 11.744H33.961C33.961 11.328 33.929 10.912 33.929 10.512H32.745C32.745 11.008 32.809 11.6 32.809 12.288V18ZM45.7956 10.512H43.5876V8.384H42.3396V10.512H40.7076V11.568H42.3396V15.68C42.3396 17.232 42.6276 18.192 44.4036 18.192C44.8676 18.192 45.4276 18.112 45.8596 17.92L45.8116 16.784C45.4756 16.96 45.0756 17.04 44.7076 17.04C43.6036 17.04 43.5876 16.272 43.5876 15.312V11.568H45.7956V10.512Z" fill="#333333"/>
<path opacity="0.8" d="M55.384 4.672H54.04V6.944L51.864 6.192L51.448 7.472L53.64 8.224L52.264 10.032L53.336 10.848L54.68 9.008L56.056 10.896L57.16 10.096L55.784 8.224L57.96 7.52L57.544 6.24L55.384 6.944V4.672Z" fill="#DB3259"/>
</g>
<rect x="10.5" y="28.5" width="319" height="35" rx="3.5" fill="white"/>
<path opacity="0.8" d="M29.888 39.712C29.056 38.736 27.984 38.384 26.72 38.384C24.736 38.384 22.864 39.472 22.864 41.648C22.864 43.536 24.08 44.24 25.68 44.768C27.696 45.44 28.64 45.68 28.64 47.072C28.64 48.368 27.328 49.04 26.176 49.04C25.2 49.04 24.24 48.608 23.76 47.776L22.608 48.72C23.376 49.856 24.784 50.288 26.096 50.288C28.144 50.288 30.08 49.232 30.08 46.976C30.08 44.752 28.448 44.176 26.688 43.616C24.88 43.04 24.304 42.576 24.304 41.536C24.304 40.192 25.536 39.632 26.72 39.632C27.536 39.632 28.336 39.952 28.784 40.672L29.888 39.712ZM38.4426 42.512H37.0826L34.8586 48.384H34.8266L32.5066 42.512H31.0506L34.1546 50.048L33.6426 51.456C33.3706 52.192 33.0666 52.688 32.2506 52.688C31.8986 52.688 31.6266 52.656 31.3706 52.56L31.2106 53.648C31.5466 53.808 31.9786 53.84 32.3306 53.84C33.8346 53.84 34.3306 52.976 34.8266 51.712L38.4426 42.512ZM46.0174 50H47.2654V37.904H46.0174V43.6H45.9854C45.2974 42.8 44.3854 42.32 43.2974 42.32C40.9454 42.32 39.3614 43.984 39.3614 46.256C39.3614 48.496 41.0094 50.192 43.1054 50.192C44.4494 50.192 45.5214 49.52 45.9854 48.672H46.0174V50ZM46.0174 46.256C46.0174 47.824 44.9774 49.04 43.3614 49.04C41.7454 49.04 40.7054 47.824 40.7054 46.256C40.7054 44.688 41.7454 43.472 43.3614 43.472C44.9774 43.472 46.0174 44.688 46.0174 46.256ZM49.5746 50H50.8226V46.352C50.8226 44.64 51.5266 43.472 53.1426 43.472C54.3106 43.472 54.8546 44.256 54.8546 45.504V50H56.1026V45.376C56.1026 43.568 55.2226 42.32 53.2546 42.32C52.0226 42.32 51.0946 43.008 50.7586 43.744H50.7266C50.7266 43.328 50.6946 42.912 50.6946 42.512H49.5106C49.5106 43.008 49.5746 43.6 49.5746 44.288V50ZM64.2093 47.904C63.6173 48.656 62.8973 49.04 61.8253 49.04C60.4653 49.04 59.4733 47.936 59.3773 46.64H65.4253V46.24C65.4253 43.76 63.9853 42.32 61.8733 42.32C59.6653 42.32 58.0333 43.936 58.0333 46.256C58.0333 48.432 59.4733 50.192 61.8253 50.192C63.2173 50.192 64.2733 49.776 65.1533 48.64L64.2093 47.904ZM59.3773 45.584C59.5373 44.32 60.4493 43.472 61.8253 43.472C63.2013 43.472 64.0333 44.32 64.0813 45.584H59.3773ZM73.7239 42.512H72.3639L70.1399 48.384H70.1079L67.7879 42.512H66.3319L69.4359 50.048L68.9239 51.456C68.6519 52.192 68.3479 52.688 67.5319 52.688C67.1799 52.688 66.9079 52.656 66.6519 52.56L66.4919 53.648C66.8279 53.808 67.2599 53.84 67.6119 53.84C69.1159 53.84 69.6119 52.976 70.1079 51.712L73.7239 42.512Z" fill="#9EA6B5"/>
<path d="M308.999 47.6667C308.933 47.667 308.868 47.6542 308.808 47.629C308.747 47.6038 308.692 47.5667 308.646 47.52L305.312 44.1867C305.246 44.0894 305.216 43.9718 305.228 43.8546C305.239 43.7373 305.292 43.628 305.377 43.5459C305.461 43.4638 305.572 43.4142 305.69 43.4058C305.807 43.3974 305.924 43.4307 306.019 43.5L308.999 46.46L311.979 43.5C312.073 43.4391 312.185 43.4115 312.296 43.4216C312.408 43.4317 312.513 43.479 312.594 43.5558C312.676 43.6327 312.729 43.7347 312.746 43.8454C312.762 43.9562 312.741 44.0693 312.686 44.1667L309.352 47.5C309.308 47.5504 309.254 47.5911 309.193 47.6198C309.132 47.6485 309.066 47.6644 308.999 47.6667V47.6667Z" fill="#6B778C"/>
<rect x="10.5" y="28.5" width="319" height="35" rx="3.5" stroke="#545D69"/>
<g clip-path="url(#clip1_31_7600)">
<path d="M11.232 79H12.408V74.548H14.396C15.796 74.548 17.644 73.974 17.644 71.804C17.644 69.732 15.992 69.088 14.172 69.088H11.232V79ZM12.408 70.18H14.396C15.572 70.18 16.384 70.712 16.384 71.818C16.384 72.924 15.572 73.456 14.396 73.456H12.408V70.18ZM19.4328 79H20.5248V68.416H19.4328V79ZM23.3001 74.002C23.8181 73.526 24.5461 73.288 25.2461 73.288C26.2681 73.288 26.8701 73.778 26.8701 74.73V74.926H26.4501C24.8401 74.926 22.3201 75.052 22.3201 77.222C22.3201 78.496 23.4261 79.168 24.7561 79.168C25.7501 79.168 26.4781 78.692 26.9121 78.02H26.9401C26.9401 78.3 26.9401 78.706 27.0101 79H28.0601C28.0041 78.664 27.9621 78.244 27.9621 77.866V75.052C27.9621 73.204 27.1501 72.28 25.2181 72.28C24.2661 72.28 23.2861 72.602 22.6141 73.288L23.3001 74.002ZM26.8701 75.85V76.27C26.8421 77.334 26.1981 78.244 24.9381 78.244C24.1121 78.244 23.4961 77.936 23.4961 77.11C23.4961 76.228 24.3921 75.85 25.7781 75.85H26.8701ZM29.9579 79H31.0499V75.808C31.0499 74.31 31.6659 73.288 33.0799 73.288C34.1019 73.288 34.5779 73.974 34.5779 75.066V79H35.6699V74.954C35.6699 73.372 34.8999 72.28 33.1779 72.28C32.0999 72.28 31.2879 72.882 30.9939 73.526H30.9659C30.9659 73.162 30.9379 72.798 30.9379 72.448H29.9019C29.9019 72.882 29.9579 73.4 29.9579 74.002V79ZM41.3212 72.448H39.3892V70.586H38.2972V72.448H36.8692V73.372H38.2972V76.97C38.2972 78.328 38.5492 79.168 40.1032 79.168C40.5092 79.168 40.9992 79.098 41.3772 78.93L41.3352 77.936C41.0412 78.09 40.6912 78.16 40.3692 78.16C39.4032 78.16 39.3892 77.488 39.3892 76.648V73.372H41.3212V72.448ZM45.8275 77.95C46.4715 78.874 47.2695 79.168 48.3755 79.168C49.6775 79.168 50.9935 78.594 50.9935 77.11C50.9935 75.794 50.0135 75.374 48.8515 75.15C47.9835 74.982 47.1995 74.744 47.1995 74.198C47.1995 73.582 47.8855 73.288 48.4875 73.288C49.1315 73.288 49.5935 73.61 49.8735 74.072L50.7835 73.47C50.3355 72.63 49.4815 72.28 48.5575 72.28C47.3395 72.28 46.1075 72.938 46.1075 74.212C46.1075 75.57 47.1715 75.836 48.4175 76.116C49.1175 76.27 49.8175 76.452 49.8175 77.152C49.8175 77.866 49.0615 78.16 48.3755 78.16C47.6055 78.16 47.1295 77.81 46.6955 77.278L45.8275 77.95ZM57.5425 77.166C57.0245 77.824 56.3945 78.16 55.4565 78.16C54.2665 78.16 53.3985 77.194 53.3145 76.06H58.6065V75.71C58.6065 73.54 57.3465 72.28 55.4985 72.28C53.5665 72.28 52.1385 73.694 52.1385 75.724C52.1385 77.628 53.3985 79.168 55.4565 79.168C56.6745 79.168 57.5985 78.804 58.3685 77.81L57.5425 77.166ZM53.3145 75.136C53.4545 74.03 54.2525 73.288 55.4565 73.288C56.6605 73.288 57.3885 74.03 57.4305 75.136H53.3145ZM60.3938 79H61.4858V68.416H60.3938V79ZM68.685 77.166C68.167 77.824 67.537 78.16 66.599 78.16C65.409 78.16 64.541 77.194 64.457 76.06H69.749V75.71C69.749 73.54 68.489 72.28 66.641 72.28C64.709 72.28 63.281 73.694 63.281 75.724C63.281 77.628 64.541 79.168 66.599 79.168C67.817 79.168 68.741 78.804 69.511 77.81L68.685 77.166ZM64.457 75.136C64.597 74.03 65.395 73.288 66.599 73.288C67.803 73.288 68.531 74.03 68.573 75.136H64.457ZM76.9683 73.316C76.3103 72.602 75.4143 72.28 74.4483 72.28C72.4323 72.28 71.0603 73.736 71.0603 75.724C71.0603 77.74 72.4183 79.168 74.4483 79.168C75.4003 79.168 76.2963 78.846 76.9263 78.118L76.1143 77.348C75.7083 77.908 75.1623 78.16 74.4483 78.16C73.1183 78.16 72.2363 77.068 72.2363 75.724C72.2363 74.38 72.9783 73.288 74.4483 73.288C75.1063 73.288 75.6383 73.526 76.1003 74.086L76.9683 73.316ZM81.7763 72.448H79.8443V70.586H78.7523V72.448H77.3243V73.372H78.7523V76.97C78.7523 78.328 79.0042 79.168 80.5583 79.168C80.9643 79.168 81.4543 79.098 81.8323 78.93L81.7903 77.936C81.4963 78.09 81.1463 78.16 80.8243 78.16C79.8583 78.16 79.8443 77.488 79.8443 76.648V73.372H81.7763V72.448ZM83.2121 79H84.3041V72.448H83.2121V79ZM82.9601 69.886C82.9601 70.348 83.2961 70.684 83.7581 70.684C84.2201 70.684 84.5561 70.348 84.5561 69.886C84.5561 69.452 84.2061 69.088 83.7581 69.088C83.3101 69.088 82.9601 69.452 82.9601 69.886ZM86.0994 75.724C86.0994 77.768 87.5834 79.168 89.5994 79.168C91.6154 79.168 93.0994 77.768 93.0994 75.724C93.0994 73.68 91.6154 72.28 89.5994 72.28C87.5834 72.28 86.0994 73.68 86.0994 75.724ZM87.2754 75.724C87.2754 74.352 88.1854 73.288 89.5994 73.288C91.0134 73.288 91.9234 74.352 91.9234 75.724C91.9234 77.096 91.0134 78.16 89.5994 78.16C88.1854 78.16 87.2754 77.096 87.2754 75.724ZM94.7899 79H95.8819V75.808C95.8819 74.31 96.4979 73.288 97.9119 73.288C98.9339 73.288 99.4099 73.974 99.4099 75.066V79H100.502V74.954C100.502 73.372 99.7319 72.28 98.0099 72.28C96.9319 72.28 96.1199 72.882 95.8259 73.526H95.7979C95.7979 73.162 95.7699 72.798 95.7699 72.448H94.7339C94.7339 72.882 94.7899 73.4 94.7899 74.002V79ZM107.068 74.002C107.586 73.526 108.314 73.288 109.014 73.288C110.036 73.288 110.638 73.778 110.638 74.73V74.926H110.218C108.608 74.926 106.088 75.052 106.088 77.222C106.088 78.496 107.194 79.168 108.524 79.168C109.518 79.168 110.246 78.692 110.68 78.02H110.708C110.708 78.3 110.708 78.706 110.778 79H111.828C111.772 78.664 111.73 78.244 111.73 77.866V75.052C111.73 73.204 110.918 72.28 108.986 72.28C108.034 72.28 107.054 72.602 106.382 73.288L107.068 74.002ZM110.638 75.85V76.27C110.61 77.334 109.966 78.244 108.706 78.244C107.88 78.244 107.264 77.936 107.264 77.11C107.264 76.228 108.16 75.85 109.546 75.85H110.638ZM113.725 79H114.817V75.808C114.817 74.31 115.405 73.372 116.735 73.372C116.931 73.372 117.141 73.4 117.323 73.456L117.393 72.35C117.239 72.294 117.085 72.28 116.945 72.28C115.867 72.28 115.055 72.882 114.761 73.526H114.733C114.733 73.162 114.705 72.798 114.705 72.448H113.669C113.669 72.882 113.725 73.4 113.725 74.002V79ZM123.427 77.166C122.909 77.824 122.279 78.16 121.341 78.16C120.151 78.16 119.283 77.194 119.199 76.06H124.491V75.71C124.491 73.54 123.231 72.28 121.383 72.28C119.451 72.28 118.023 73.694 118.023 75.724C118.023 77.628 119.283 79.168 121.341 79.168C122.559 79.168 123.483 78.804 124.253 77.81L123.427 77.166ZM119.199 75.136C119.339 74.03 120.137 73.288 121.341 73.288C122.545 73.288 123.273 74.03 123.315 75.136H119.199ZM126.783 74.002C127.301 73.526 128.029 73.288 128.729 73.288C129.751 73.288 130.353 73.778 130.353 74.73V74.926H129.933C128.323 74.926 125.803 75.052 125.803 77.222C125.803 78.496 126.909 79.168 128.239 79.168C129.233 79.168 129.961 78.692 130.395 78.02H130.423C130.423 78.3 130.423 78.706 130.493 79H131.543C131.487 78.664 131.445 78.244 131.445 77.866V75.052C131.445 73.204 130.633 72.28 128.701 72.28C127.749 72.28 126.769 72.602 126.097 73.288L126.783 74.002ZM130.353 75.85V76.27C130.325 77.334 129.681 78.244 128.421 78.244C127.595 78.244 126.979 77.936 126.979 77.11C126.979 76.228 127.875 75.85 129.261 75.85H130.353Z" fill="#333333"/>
</g>
<g filter="url(#filter0_dd_31_7600)">
<g clip-path="url(#clip2_31_7600)">
<rect width="320" height="33" transform="translate(10 65)" fill="white"/>
<path d="M32.902 75.998C32.174 75.144 31.236 74.836 30.13 74.836C28.394 74.836 26.756 75.788 26.756 77.692C26.756 79.344 27.82 79.96 29.22 80.422C30.984 81.01 31.81 81.22 31.81 82.438C31.81 83.572 30.662 84.16 29.654 84.16C28.8 84.16 27.96 83.782 27.54 83.054L26.532 83.88C27.204 84.874 28.436 85.252 29.584 85.252C31.376 85.252 33.07 84.328 33.07 82.354C33.07 80.408 31.642 79.904 30.102 79.414C28.52 78.91 28.016 78.504 28.016 77.594C28.016 76.418 29.094 75.928 30.13 75.928C30.844 75.928 31.544 76.208 31.936 76.838L32.902 75.998ZM40.3873 78.448H39.1973L37.2513 83.586H37.2233L35.1933 78.448H33.9193L36.6353 85.042L36.1873 86.274C35.9493 86.918 35.6833 87.352 34.9693 87.352C34.6613 87.352 34.4233 87.324 34.1993 87.24L34.0593 88.192C34.3533 88.332 34.7313 88.36 35.0393 88.36C36.3553 88.36 36.7893 87.604 37.2233 86.498L40.3873 78.448ZM47.0152 85H48.1072V74.416H47.0152V79.4H46.9872C46.3852 78.7 45.5872 78.28 44.6352 78.28C42.5772 78.28 41.1912 79.736 41.1912 81.724C41.1912 83.684 42.6332 85.168 44.4672 85.168C45.6432 85.168 46.5812 84.58 46.9872 83.838H47.0152V85ZM47.0152 81.724C47.0152 83.096 46.1052 84.16 44.6912 84.16C43.2772 84.16 42.3672 83.096 42.3672 81.724C42.3672 80.352 43.2772 79.288 44.6912 79.288C46.1052 79.288 47.0152 80.352 47.0152 81.724ZM50.1278 85H51.2198V81.808C51.2198 80.31 51.8358 79.288 53.2498 79.288C54.2718 79.288 54.7478 79.974 54.7478 81.066V85H55.8398V80.954C55.8398 79.372 55.0698 78.28 53.3478 78.28C52.2698 78.28 51.4578 78.882 51.1638 79.526H51.1358C51.1358 79.162 51.1078 78.798 51.1078 78.448H50.0718C50.0718 78.882 50.1278 79.4 50.1278 80.002V85ZM62.9331 83.166C62.4151 83.824 61.7851 84.16 60.8471 84.16C59.6571 84.16 58.7891 83.194 58.7051 82.06H63.9971V81.71C63.9971 79.54 62.7371 78.28 60.8891 78.28C58.9571 78.28 57.5291 79.694 57.5291 81.724C57.5291 83.628 58.7891 85.168 60.8471 85.168C62.0651 85.168 62.9891 84.804 63.7591 83.81L62.9331 83.166ZM58.7051 81.136C58.8451 80.03 59.6431 79.288 60.8471 79.288C62.0511 79.288 62.7791 80.03 62.8211 81.136H58.7051ZM71.2584 78.448H70.0684L68.1224 83.586H68.0944L66.0644 78.448H64.7904L67.5064 85.042L67.0584 86.274C66.8204 86.918 66.5544 87.352 65.8404 87.352C65.5324 87.352 65.2944 87.324 65.0704 87.24L64.9304 88.192C65.2244 88.332 65.6024 88.36 65.9104 88.36C67.2264 88.36 67.6604 87.604 68.0944 86.498L71.2584 78.448Z" fill="#333333"/>
<rect width="320" height="33" transform="translate(10 98)" fill="#E6E6E6"/>
<path d="M27.232 118H28.408V109.684H28.436L31.992 118H32.706L36.262 109.684H36.29V118H37.466V108.088H35.758L32.37 115.858H32.342L28.982 108.088H27.232V118ZM44.7632 116.166C44.2452 116.824 43.6152 117.16 42.6772 117.16C41.4872 117.16 40.6192 116.194 40.5352 115.06H45.8272V114.71C45.8272 112.54 44.5672 111.28 42.7192 111.28C40.7872 111.28 39.3592 112.694 39.3592 114.724C39.3592 116.628 40.6192 118.168 42.6772 118.168C43.8952 118.168 44.8192 117.804 45.5892 116.81L44.7632 116.166ZM40.5352 114.136C40.6752 113.03 41.4732 112.288 42.6772 112.288C43.8812 112.288 44.6092 113.03 44.6512 114.136H40.5352ZM47.6145 118H48.7065V107.416H47.6145V118ZM50.8238 118H51.9158V116.838H51.9438C52.3498 117.58 53.2878 118.168 54.4638 118.168C56.2978 118.168 57.7398 116.684 57.7398 114.724C57.7398 112.736 56.3538 111.28 54.2958 111.28C53.3438 111.28 52.5458 111.7 51.9438 112.4H51.9158V107.416H50.8238V118ZM51.9158 114.724C51.9158 113.352 52.8258 112.288 54.2398 112.288C55.6538 112.288 56.5638 113.352 56.5638 114.724C56.5638 116.096 55.6538 117.16 54.2398 117.16C52.8258 117.16 51.9158 116.096 51.9158 114.724ZM59.0603 114.724C59.0603 116.768 60.5443 118.168 62.5603 118.168C64.5763 118.168 66.0603 116.768 66.0603 114.724C66.0603 112.68 64.5763 111.28 62.5603 111.28C60.5443 111.28 59.0603 112.68 59.0603 114.724ZM60.2363 114.724C60.2363 113.352 61.1463 112.288 62.5603 112.288C63.9743 112.288 64.8843 113.352 64.8843 114.724C64.8843 116.096 63.9743 117.16 62.5603 117.16C61.1463 117.16 60.2363 116.096 60.2363 114.724ZM73.4628 111.448H72.3708V114.64C72.3708 116.138 71.7548 117.16 70.3408 117.16C69.3188 117.16 68.8428 116.474 68.8428 115.382V111.448H67.7508V115.494C67.7508 117.076 68.5208 118.168 70.2428 118.168C71.3208 118.168 72.1328 117.566 72.4268 116.922H72.4548C72.4548 117.286 72.4828 117.65 72.4828 118H73.5188C73.5188 117.566 73.4628 117.048 73.4628 116.446V111.448ZM75.5301 118H76.6221V114.808C76.6221 113.31 77.2101 112.372 78.5401 112.372C78.7361 112.372 78.9461 112.4 79.1281 112.456L79.1981 111.35C79.0441 111.294 78.8901 111.28 78.7501 111.28C77.6721 111.28 76.8601 111.882 76.5661 112.526H76.5381C76.5381 112.162 76.5101 111.798 76.5101 111.448H75.4741C75.4741 111.882 75.5301 112.4 75.5301 113.002V118ZM80.452 118H81.544V114.808C81.544 113.31 82.16 112.288 83.574 112.288C84.596 112.288 85.072 112.974 85.072 114.066V118H86.164V113.954C86.164 112.372 85.394 111.28 83.672 111.28C82.594 111.28 81.782 111.882 81.488 112.526H81.46C81.46 112.162 81.432 111.798 81.432 111.448H80.396C80.396 111.882 80.452 112.4 80.452 113.002V118ZM93.2573 116.166C92.7393 116.824 92.1093 117.16 91.1713 117.16C89.9813 117.16 89.1133 116.194 89.0293 115.06H94.3213V114.71C94.3213 112.54 93.0613 111.28 91.2133 111.28C89.2813 111.28 87.8533 112.694 87.8533 114.724C87.8533 116.628 89.1133 118.168 91.1713 118.168C92.3893 118.168 93.3133 117.804 94.0833 116.81L93.2573 116.166ZM89.0293 114.136C89.1693 113.03 89.9673 112.288 91.1713 112.288C92.3753 112.288 93.1033 113.03 93.1453 114.136H89.0293Z" fill="#333333"/>
<rect width="320" height="33" transform="translate(10 131)" fill="white"/>
<path d="M27.232 151H30.186C32.02 151 34.05 150.412 34.05 148.228C34.05 146.926 33.084 145.904 31.81 145.792V145.764C32.874 145.442 33.546 144.672 33.546 143.524C33.546 141.704 31.894 141.088 30.256 141.088H27.232V151ZM28.408 142.18H30.158C31.222 142.18 32.286 142.46 32.286 143.678C32.286 145.05 31.138 145.288 30.032 145.288H28.408V142.18ZM28.408 146.38H30.424C31.614 146.38 32.79 146.8 32.79 148.186C32.79 149.446 31.544 149.908 30.396 149.908H28.408V146.38ZM35.8544 151H36.9464V147.808C36.9464 146.31 37.5344 145.372 38.8644 145.372C39.0604 145.372 39.2704 145.4 39.4524 145.456L39.5224 144.35C39.3684 144.294 39.2144 144.28 39.0744 144.28C37.9964 144.28 37.1844 144.882 36.8904 145.526H36.8624C36.8624 145.162 36.8344 144.798 36.8344 144.448H35.7984C35.7984 144.882 35.8544 145.4 35.8544 146.002V151ZM40.8742 151H41.9662V144.448H40.8742V151ZM40.6222 141.886C40.6222 142.348 40.9582 142.684 41.4202 142.684C41.8822 142.684 42.2182 142.348 42.2182 141.886C42.2182 141.452 41.8682 141.088 41.4202 141.088C40.9722 141.088 40.6222 141.452 40.6222 141.886ZM43.4115 149.95C44.0555 150.874 44.8535 151.168 45.9595 151.168C47.2615 151.168 48.5775 150.594 48.5775 149.11C48.5775 147.794 47.5975 147.374 46.4355 147.15C45.5675 146.982 44.7835 146.744 44.7835 146.198C44.7835 145.582 45.4695 145.288 46.0715 145.288C46.7155 145.288 47.1775 145.61 47.4575 146.072L48.3675 145.47C47.9195 144.63 47.0655 144.28 46.1415 144.28C44.9235 144.28 43.6915 144.938 43.6915 146.212C43.6915 147.57 44.7555 147.836 46.0015 148.116C46.7015 148.27 47.4015 148.452 47.4015 149.152C47.4015 149.866 46.6455 150.16 45.9595 150.16C45.1895 150.16 44.7135 149.81 44.2795 149.278L43.4115 149.95ZM50.0445 151H51.1365V149.838H51.1645C51.5705 150.58 52.5085 151.168 53.6845 151.168C55.5185 151.168 56.9605 149.684 56.9605 147.724C56.9605 145.736 55.5745 144.28 53.5165 144.28C52.5645 144.28 51.7665 144.7 51.1645 145.4H51.1365V140.416H50.0445V151ZM51.1365 147.724C51.1365 146.352 52.0465 145.288 53.4605 145.288C54.8745 145.288 55.7845 146.352 55.7845 147.724C55.7845 149.096 54.8745 150.16 53.4605 150.16C52.0465 150.16 51.1365 149.096 51.1365 147.724ZM59.261 146.002C59.779 145.526 60.507 145.288 61.207 145.288C62.229 145.288 62.831 145.778 62.831 146.73V146.926H62.411C60.801 146.926 58.281 147.052 58.281 149.222C58.281 150.496 59.387 151.168 60.717 151.168C61.711 151.168 62.439 150.692 62.873 150.02H62.901C62.901 150.3 62.901 150.706 62.971 151H64.021C63.965 150.664 63.923 150.244 63.923 149.866V147.052C63.923 145.204 63.111 144.28 61.179 144.28C60.227 144.28 59.247 144.602 58.575 145.288L59.261 146.002ZM62.831 147.85V148.27C62.803 149.334 62.159 150.244 60.899 150.244C60.073 150.244 59.457 149.936 59.457 149.11C59.457 148.228 60.353 147.85 61.739 147.85H62.831ZM65.9188 151H67.0108V147.808C67.0108 146.31 67.6268 145.288 69.0408 145.288C70.0628 145.288 70.5388 145.974 70.5388 147.066V151H71.6308V146.954C71.6308 145.372 70.8608 144.28 69.1388 144.28C68.0608 144.28 67.2488 144.882 66.9548 145.526H66.9268C66.9268 145.162 66.8988 144.798 66.8988 144.448H65.8628C65.8628 144.882 65.9188 145.4 65.9188 146.002V151ZM78.7241 149.166C78.2061 149.824 77.5761 150.16 76.6381 150.16C75.4481 150.16 74.5801 149.194 74.4961 148.06H79.7881V147.71C79.7881 145.54 78.5281 144.28 76.6801 144.28C74.7481 144.28 73.3201 145.694 73.3201 147.724C73.3201 149.628 74.5801 151.168 76.6381 151.168C77.8561 151.168 78.7801 150.804 79.5501 149.81L78.7241 149.166ZM74.4961 147.136C74.6361 146.03 75.4341 145.288 76.6381 145.288C77.8421 145.288 78.5701 146.03 78.6121 147.136H74.4961Z" fill="#333333"/>
<rect width="320" height="33" transform="translate(10 164)" fill="white"/>
<path d="M27.232 184H28.408V179.548H30.396C31.796 179.548 33.644 178.974 33.644 176.804C33.644 174.732 31.992 174.088 30.172 174.088H27.232V184ZM28.408 175.18H30.396C31.572 175.18 32.384 175.712 32.384 176.818C32.384 177.924 31.572 178.456 30.396 178.456H28.408V175.18ZM40.3608 182.166C39.8428 182.824 39.2128 183.16 38.2748 183.16C37.0848 183.16 36.2168 182.194 36.1328 181.06H41.4248V180.71C41.4248 178.54 40.1648 177.28 38.3168 177.28C36.3848 177.28 34.9568 178.694 34.9568 180.724C34.9568 182.628 36.2168 184.168 38.2748 184.168C39.4928 184.168 40.4168 183.804 41.1868 182.81L40.3608 182.166ZM36.1328 180.136C36.2728 179.03 37.0708 178.288 38.2748 178.288C39.4788 178.288 40.2068 179.03 40.2488 180.136H36.1328ZM43.1141 184H44.2061V180.808C44.2061 179.31 44.7941 178.372 46.1241 178.372C46.3201 178.372 46.5301 178.4 46.7121 178.456L46.7821 177.35C46.6281 177.294 46.4741 177.28 46.3341 177.28C45.2561 177.28 44.4441 177.882 44.1501 178.526H44.1221C44.1221 178.162 44.0941 177.798 44.0941 177.448H43.0581C43.0581 177.882 43.1141 178.4 43.1141 179.002V184ZM51.62 177.448H49.688V175.586H48.596V177.448H47.168V178.372H48.596V181.97C48.596 183.328 48.848 184.168 50.402 184.168C50.808 184.168 51.298 184.098 51.676 183.93L51.634 182.936C51.34 183.09 50.99 183.16 50.668 183.16C49.702 183.16 49.688 182.488 49.688 181.648V178.372H51.62V177.448ZM52.9579 184H54.0499V180.808C54.0499 179.31 54.6659 178.288 56.0799 178.288C57.1019 178.288 57.5779 178.974 57.5779 180.066V184H58.6699V179.954C58.6699 178.372 57.8999 177.28 56.1779 177.28C55.1559 177.28 54.3719 177.84 54.0779 178.358H54.0499V173.416H52.9579V184Z" fill="#333333"/>
<rect width="320" height="33" transform="translate(10 197)" fill="white"/>
<path d="M27.232 217H32.944V215.908H28.408V207.088H27.232V217ZM34.134 217H35.226V210.448H34.134V217ZM33.882 207.886C33.882 208.348 34.218 208.684 34.68 208.684C35.142 208.684 35.478 208.348 35.478 207.886C35.478 207.452 35.128 207.088 34.68 207.088C34.232 207.088 33.882 207.452 33.882 207.886ZM36.6713 215.95C37.3153 216.874 38.1133 217.168 39.2193 217.168C40.5213 217.168 41.8373 216.594 41.8373 215.11C41.8373 213.794 40.8573 213.374 39.6953 213.15C38.8273 212.982 38.0433 212.744 38.0433 212.198C38.0433 211.582 38.7293 211.288 39.3313 211.288C39.9753 211.288 40.4373 211.61 40.7173 212.072L41.6273 211.47C41.1793 210.63 40.3253 210.28 39.4013 210.28C38.1833 210.28 36.9513 210.938 36.9513 212.212C36.9513 213.57 38.0153 213.836 39.2613 214.116C39.9613 214.27 40.6613 214.452 40.6613 215.152C40.6613 215.866 39.9053 216.16 39.2193 216.16C38.4493 216.16 37.9733 215.81 37.5393 215.278L36.6713 215.95ZM46.9442 210.448H45.0122V208.586H43.9202V210.448H42.4922V211.372H43.9202V214.97C43.9202 216.328 44.1722 217.168 45.7262 217.168C46.1322 217.168 46.6222 217.098 47.0002 216.93L46.9582 215.936C46.6642 216.09 46.3142 216.16 45.9922 216.16C45.0262 216.16 45.0122 215.488 45.0122 214.648V211.372H46.9442V210.448ZM52.2766 217H53.3686V210.448H52.2766V217ZM52.0246 207.886C52.0246 208.348 52.3606 208.684 52.8226 208.684C53.2846 208.684 53.6206 208.348 53.6206 207.886C53.6206 207.452 53.2706 207.088 52.8226 207.088C52.3746 207.088 52.0246 207.452 52.0246 207.886ZM59.1259 210.448H57.1939V208.586H56.1019V210.448H54.6739V211.372H56.1019V214.97C56.1019 216.328 56.3539 217.168 57.9079 217.168C58.3139 217.168 58.8039 217.098 59.1819 216.93L59.1399 215.936C58.8459 216.09 58.4959 216.16 58.1739 216.16C57.2079 216.16 57.1939 215.488 57.1939 214.648V211.372H59.1259V210.448ZM65.4897 215.166C64.9717 215.824 64.3417 216.16 63.4037 216.16C62.2137 216.16 61.3457 215.194 61.2617 214.06H66.5537V213.71C66.5537 211.54 65.2937 210.28 63.4457 210.28C61.5137 210.28 60.0857 211.694 60.0857 213.724C60.0857 215.628 61.3457 217.168 63.4037 217.168C64.6217 217.168 65.5457 216.804 66.3157 215.81L65.4897 215.166ZM61.2617 213.136C61.4017 212.03 62.1997 211.288 63.4037 211.288C64.6077 211.288 65.3357 212.03 65.3777 213.136H61.2617ZM68.243 217H69.335V213.808C69.335 212.31 69.951 211.288 71.365 211.288C72.261 211.288 72.625 211.848 72.625 213.29V217H73.717V213.22C73.717 212.044 74.487 211.288 75.411 211.288C76.685 211.288 77.007 212.17 77.007 213.08V217H78.099V213.024C78.099 211.33 77.483 210.28 75.607 210.28C74.613 210.28 74.011 210.756 73.535 211.526C73.325 211.078 72.877 210.28 71.463 210.28C70.385 210.28 69.573 210.882 69.279 211.526H69.251C69.251 211.162 69.223 210.798 69.223 210.448H68.187C68.187 210.882 68.243 211.4 68.243 212.002V217Z" fill="#333333"/>
<rect width="320" height="33" transform="translate(10 230)" fill="white"/>
<path d="M27.232 250H32.944V248.908H28.408V240.088H27.232V250ZM34.134 250H35.226V243.448H34.134V250ZM33.882 240.886C33.882 241.348 34.218 241.684 34.68 241.684C35.142 241.684 35.478 241.348 35.478 240.886C35.478 240.452 35.128 240.088 34.68 240.088C34.232 240.088 33.882 240.452 33.882 240.886ZM36.6713 248.95C37.3153 249.874 38.1133 250.168 39.2193 250.168C40.5213 250.168 41.8373 249.594 41.8373 248.11C41.8373 246.794 40.8573 246.374 39.6953 246.15C38.8273 245.982 38.0433 245.744 38.0433 245.198C38.0433 244.582 38.7293 244.288 39.3313 244.288C39.9753 244.288 40.4373 244.61 40.7173 245.072L41.6273 244.47C41.1793 243.63 40.3253 243.28 39.4013 243.28C38.1833 243.28 36.9513 243.938 36.9513 245.212C36.9513 246.57 38.0153 246.836 39.2613 247.116C39.9613 247.27 40.6613 247.452 40.6613 248.152C40.6613 248.866 39.9053 249.16 39.2193 249.16C38.4493 249.16 37.9733 248.81 37.5393 248.278L36.6713 248.95ZM46.9442 243.448H45.0122V241.586H43.9202V243.448H42.4922V244.372H43.9202V247.97C43.9202 249.328 44.1722 250.168 45.7262 250.168C46.1322 250.168 46.6222 250.098 47.0002 249.93L46.9582 248.936C46.6642 249.09 46.3142 249.16 45.9922 249.16C45.0262 249.16 45.0122 248.488 45.0122 247.648V244.372H46.9442V243.448ZM52.2766 250H53.3686V243.448H52.2766V250ZM52.0246 240.886C52.0246 241.348 52.3606 241.684 52.8226 241.684C53.2846 241.684 53.6206 241.348 53.6206 240.886C53.6206 240.452 53.2706 240.088 52.8226 240.088C52.3746 240.088 52.0246 240.452 52.0246 240.886ZM59.1259 243.448H57.1939V241.586H56.1019V243.448H54.6739V244.372H56.1019V247.97C56.1019 249.328 56.3539 250.168 57.9079 250.168C58.3139 250.168 58.8039 250.098 59.1819 249.93L59.1399 248.936C58.8459 249.09 58.4959 249.16 58.1739 249.16C57.2079 249.16 57.1939 248.488 57.1939 247.648V244.372H59.1259V243.448ZM65.4897 248.166C64.9717 248.824 64.3417 249.16 63.4037 249.16C62.2137 249.16 61.3457 248.194 61.2617 247.06H66.5537V246.71C66.5537 244.54 65.2937 243.28 63.4457 243.28C61.5137 243.28 60.0857 244.694 60.0857 246.724C60.0857 248.628 61.3457 250.168 63.4037 250.168C64.6217 250.168 65.5457 249.804 66.3157 248.81L65.4897 248.166ZM61.2617 246.136C61.4017 245.03 62.1997 244.288 63.4037 244.288C64.6077 244.288 65.3357 245.03 65.3777 246.136H61.2617ZM68.243 250H69.335V246.808C69.335 245.31 69.951 244.288 71.365 244.288C72.261 244.288 72.625 244.848 72.625 246.29V250H73.717V246.22C73.717 245.044 74.487 244.288 75.411 244.288C76.685 244.288 77.007 245.17 77.007 246.08V250H78.099V246.024C78.099 244.33 77.483 243.28 75.607 243.28C74.613 243.28 74.011 243.756 73.535 244.526C73.325 244.078 72.877 243.28 71.463 243.28C70.385 243.28 69.573 243.882 69.279 244.526H69.251C69.251 244.162 69.223 243.798 69.223 243.448H68.187C68.187 243.882 68.243 244.4 68.243 245.002V250Z" fill="#333333"/>
</g>
</g>
<g clip-path="url(#clip3_31_7600)">
<path d="M440.512 8.16C439.552 6.912 438.048 6.384 436.512 6.384C433.152 6.384 430.752 9.008 430.752 12.336C430.752 15.776 433.264 18.288 436.512 18.288C438.32 18.288 439.792 17.664 440.8 16.304L439.792 15.456C438.992 16.48 437.888 17.04 436.512 17.04C433.968 17.04 432.192 14.96 432.192 12.336C432.192 9.856 433.984 7.632 436.512 7.632C437.6 7.632 438.672 8.096 439.344 9.008L440.512 8.16ZM442.018 14.256C442.018 16.592 443.714 18.192 446.018 18.192C448.322 18.192 450.018 16.592 450.018 14.256C450.018 11.92 448.322 10.32 446.018 10.32C443.714 10.32 442.018 11.92 442.018 14.256ZM443.362 14.256C443.362 12.688 444.402 11.472 446.018 11.472C447.634 11.472 448.674 12.688 448.674 14.256C448.674 15.824 447.634 17.04 446.018 17.04C444.402 17.04 443.362 15.824 443.362 14.256ZM458.318 10.512H456.974L454.75 16.384H454.718L452.382 10.512H450.926L453.982 18H455.358L458.318 10.512ZM465.412 15.904C464.82 16.656 464.1 17.04 463.028 17.04C461.668 17.04 460.676 15.936 460.58 14.64H466.628V14.24C466.628 11.76 465.188 10.32 463.076 10.32C460.868 10.32 459.236 11.936 459.236 14.256C459.236 16.432 460.676 18.192 463.028 18.192C464.42 18.192 465.476 17.776 466.356 16.64L465.412 15.904ZM460.58 13.584C460.74 12.32 461.652 11.472 463.028 11.472C464.404 11.472 465.236 12.32 465.284 13.584H460.58ZM468.559 18H469.807V14.352C469.807 12.64 470.479 11.568 471.999 11.568C472.223 11.568 472.463 11.6 472.671 11.664L472.751 10.4C472.575 10.336 472.399 10.32 472.239 10.32C471.007 10.32 470.079 11.008 469.743 11.744H469.711C469.711 11.328 469.679 10.912 469.679 10.512H468.495C468.495 11.008 468.559 11.6 468.559 12.288V18ZM474.872 12.288C475.464 11.744 476.296 11.472 477.096 11.472C478.264 11.472 478.952 12.032 478.952 13.12V13.344H478.472C476.632 13.344 473.752 13.488 473.752 15.968C473.752 17.424 475.016 18.192 476.536 18.192C477.672 18.192 478.504 17.648 479 16.88H479.032C479.032 17.2 479.032 17.664 479.112 18H480.312C480.248 17.616 480.2 17.136 480.2 16.704V13.488C480.2 11.376 479.272 10.32 477.064 10.32C475.976 10.32 474.856 10.688 474.088 11.472L474.872 12.288ZM478.952 14.4V14.88C478.92 16.096 478.184 17.136 476.744 17.136C475.8 17.136 475.096 16.784 475.096 15.84C475.096 14.832 476.12 14.4 477.704 14.4H478.952ZM489.953 10.512H488.705V11.792H488.673C488.177 10.8 487.041 10.32 486.033 10.32C483.649 10.32 482.049 11.808 482.049 14.256C482.049 16.464 483.681 18.096 486.033 18.096C487.025 18.096 488.081 17.664 488.673 16.704H488.705V17.664C488.705 19.248 488.113 20.688 485.873 20.688C484.721 20.688 483.873 20.24 483.089 19.392L482.193 20.416C483.249 21.456 484.417 21.84 485.873 21.84C488.497 21.84 489.953 20.368 489.953 17.664V10.512ZM483.393 14.256C483.393 12.688 484.465 11.472 486.033 11.472C487.617 11.472 488.705 12.608 488.705 14.224C488.705 15.664 487.745 16.944 486.033 16.944C484.577 16.944 483.393 15.776 483.393 14.256ZM498.006 15.904C497.414 16.656 496.694 17.04 495.622 17.04C494.262 17.04 493.27 15.936 493.174 14.64H499.222V14.24C499.222 11.76 497.782 10.32 495.67 10.32C493.462 10.32 491.83 11.936 491.83 14.256C491.83 16.432 493.27 18.192 495.622 18.192C497.014 18.192 498.07 17.776 498.95 16.64L498.006 15.904ZM493.174 13.584C493.334 12.32 494.246 11.472 495.622 11.472C496.998 11.472 497.83 12.32 497.878 13.584H493.174Z" fill="#333333"/>
<path opacity="0.8" d="M508.384 4.672H507.04V6.944L504.864 6.192L504.448 7.472L506.64 8.224L505.264 10.032L506.336 10.848L507.68 9.008L509.056 10.896L510.16 10.096L508.784 8.224L510.96 7.52L510.544 6.24L508.384 6.944V4.672Z" fill="#DB3259"/>
</g>
<rect x="430.5" y="28.5" width="319" height="35" rx="3.5" fill="white"/>
<path d="M728.999 47.6667C728.933 47.667 728.868 47.6542 728.808 47.629C728.747 47.6038 728.692 47.5667 728.646 47.52L725.312 44.1867C725.246 44.0894 725.216 43.9718 725.228 43.8546C725.239 43.7373 725.292 43.628 725.377 43.5459C725.461 43.4638 725.572 43.4142 725.689 43.4058C725.807 43.3974 725.924 43.4307 726.019 43.5L728.999 46.46L731.979 43.5C732.073 43.4391 732.185 43.4115 732.296 43.4216C732.408 43.4317 732.513 43.479 732.594 43.5558C732.676 43.6327 732.729 43.7347 732.745 43.8454C732.762 43.9562 732.741 44.0693 732.686 44.1667L729.352 47.5C729.308 47.5504 729.254 47.5911 729.193 47.6198C729.132 47.6485 729.066 47.6644 728.999 47.6667V47.6667Z" fill="#6B778C"/>
<rect x="442" y="33" width="70" height="25" rx="12.5" fill="#E6E6E6"/>
<path d="M459.419 40.39C458.579 39.298 457.263 38.836 455.919 38.836C452.979 38.836 450.879 41.132 450.879 44.044C450.879 47.054 453.077 49.252 455.919 49.252C457.501 49.252 458.789 48.706 459.671 47.516L458.789 46.774C458.089 47.67 457.123 48.16 455.919 48.16C453.693 48.16 452.139 46.34 452.139 44.044C452.139 41.874 453.707 39.928 455.919 39.928C456.871 39.928 457.809 40.334 458.397 41.132L459.419 40.39ZM461.114 49H462.206V45.808C462.206 44.31 462.822 43.288 464.236 43.288C465.258 43.288 465.734 43.974 465.734 45.066V49H466.826V44.954C466.826 43.372 466.056 42.28 464.334 42.28C463.312 42.28 462.528 42.84 462.234 43.358H462.206V38.416H461.114V49ZM468.991 49H470.083V42.448H468.991V49ZM468.739 39.886C468.739 40.348 469.075 40.684 469.537 40.684C469.999 40.684 470.335 40.348 470.335 39.886C470.335 39.452 469.985 39.088 469.537 39.088C469.089 39.088 468.739 39.452 468.739 39.886ZM472.201 52.192H473.293V47.838H473.321C473.727 48.58 474.665 49.168 475.841 49.168C477.675 49.168 479.117 47.684 479.117 45.724C479.117 43.736 477.731 42.28 475.673 42.28C474.721 42.28 473.923 42.7 473.321 43.4H473.293V42.448H472.201V52.192ZM473.293 45.724C473.293 44.352 474.203 43.288 475.617 43.288C477.031 43.288 477.941 44.352 477.941 45.724C477.941 47.096 477.031 48.16 475.617 48.16C474.203 48.16 473.293 47.096 473.293 45.724Z" fill="#333333"/>
<path d="M496 51.5C494.813 51.5 493.653 51.1481 492.667 50.4888C491.68 49.8295 490.911 48.8925 490.457 47.7961C490.003 46.6997 489.884 45.4933 490.115 44.3295C490.347 43.1656 490.918 42.0965 491.757 41.2574C492.596 40.4182 493.666 39.8468 494.829 39.6153C495.993 39.3838 497.2 39.5026 498.296 39.9567C499.392 40.4109 500.33 41.1799 500.989 42.1666C501.648 43.1533 502 44.3133 502 45.5C502 47.0913 501.368 48.6174 500.243 49.7426C499.117 50.8679 497.591 51.5 496 51.5V51.5ZM496 40.5C495.011 40.5 494.044 40.7932 493.222 41.3427C492.4 41.8921 491.759 42.673 491.381 43.5866C491.002 44.5002 490.903 45.5055 491.096 46.4755C491.289 47.4454 491.765 48.3363 492.464 49.0355C493.164 49.7348 494.055 50.211 495.025 50.4039C495.994 50.5969 497 50.4978 497.913 50.1194C498.827 49.741 499.608 49.1001 500.157 48.2779C500.707 47.4556 501 46.4889 501 45.5C501 44.1739 500.473 42.9022 499.536 41.9645C498.598 41.0268 497.326 40.5 496 40.5Z" fill="#333333"/>
<path d="M494 48C493.934 48.0003 493.869 47.9875 493.809 47.9623C493.748 47.9371 493.693 47.9001 493.647 47.8533C493.553 47.7596 493.5 47.6325 493.5 47.5C493.5 47.3675 493.553 47.2404 493.647 47.1467L497.647 43.1467C497.741 43.0583 497.867 43.0103 497.996 43.0125C498.126 43.0148 498.249 43.0673 498.341 43.1589C498.433 43.2505 498.485 43.3741 498.487 43.5036C498.49 43.6332 498.442 43.7585 498.353 43.8533L494.353 47.8533C494.307 47.9001 494.252 47.9371 494.191 47.9623C494.131 47.9875 494.066 48.0003 494 48Z" fill="#333333"/>
<path d="M498 48C497.934 48.0003 497.869 47.9875 497.809 47.9623C497.748 47.9371 497.693 47.9001 497.647 47.8533L493.647 43.8533C493.558 43.7585 493.51 43.6332 493.513 43.5036C493.515 43.3741 493.567 43.2505 493.659 43.1589C493.751 43.0673 493.874 43.0148 494.004 43.0125C494.133 43.0103 494.259 43.0583 494.353 43.1467L498.353 47.1467C498.447 47.2404 498.5 47.3675 498.5 47.5C498.5 47.6325 498.447 47.7596 498.353 47.8533C498.307 47.9001 498.252 47.9371 498.191 47.9623C498.131 47.9875 498.066 48.0003 498 48V48Z" fill="#333333"/>
<rect x="516" y="33" width="70" height="25" rx="12.5" fill="#E6E6E6"/>
<path d="M533.419 40.39C532.579 39.298 531.263 38.836 529.919 38.836C526.979 38.836 524.879 41.132 524.879 44.044C524.879 47.054 527.077 49.252 529.919 49.252C531.501 49.252 532.789 48.706 533.671 47.516L532.789 46.774C532.089 47.67 531.123 48.16 529.919 48.16C527.693 48.16 526.139 46.34 526.139 44.044C526.139 41.874 527.707 39.928 529.919 39.928C530.871 39.928 531.809 40.334 532.397 41.132L533.419 40.39ZM535.114 49H536.206V45.808C536.206 44.31 536.822 43.288 538.236 43.288C539.258 43.288 539.734 43.974 539.734 45.066V49H540.826V44.954C540.826 43.372 540.056 42.28 538.334 42.28C537.312 42.28 536.528 42.84 536.234 43.358H536.206V38.416H535.114V49ZM542.991 49H544.083V42.448H542.991V49ZM542.739 39.886C542.739 40.348 543.075 40.684 543.537 40.684C543.999 40.684 544.335 40.348 544.335 39.886C544.335 39.452 543.985 39.088 543.537 39.088C543.089 39.088 542.739 39.452 542.739 39.886ZM546.201 52.192H547.293V47.838H547.321C547.727 48.58 548.665 49.168 549.841 49.168C551.675 49.168 553.117 47.684 553.117 45.724C553.117 43.736 551.731 42.28 549.673 42.28C548.721 42.28 547.923 42.7 547.321 43.4H547.293V42.448H546.201V52.192ZM547.293 45.724C547.293 44.352 548.203 43.288 549.617 43.288C551.031 43.288 551.941 44.352 551.941 45.724C551.941 47.096 551.031 48.16 549.617 48.16C548.203 48.16 547.293 47.096 547.293 45.724Z" fill="#333333"/>
<path d="M570 51.5C568.813 51.5 567.653 51.1481 566.667 50.4888C565.68 49.8295 564.911 48.8925 564.457 47.7961C564.003 46.6997 563.884 45.4933 564.115 44.3295C564.347 43.1656 564.918 42.0965 565.757 41.2574C566.596 40.4182 567.666 39.8468 568.829 39.6153C569.993 39.3838 571.2 39.5026 572.296 39.9567C573.392 40.4109 574.33 41.1799 574.989 42.1666C575.648 43.1533 576 44.3133 576 45.5C576 47.0913 575.368 48.6174 574.243 49.7426C573.117 50.8679 571.591 51.5 570 51.5V51.5ZM570 40.5C569.011 40.5 568.044 40.7932 567.222 41.3427C566.4 41.8921 565.759 42.673 565.381 43.5866C565.002 44.5002 564.903 45.5055 565.096 46.4755C565.289 47.4454 565.765 48.3363 566.464 49.0355C567.164 49.7348 568.055 50.211 569.025 50.4039C569.994 50.5969 571 50.4978 571.913 50.1194C572.827 49.741 573.608 49.1001 574.157 48.2779C574.707 47.4556 575 46.4889 575 45.5C575 44.1739 574.473 42.9022 573.536 41.9645C572.598 41.0268 571.326 40.5 570 40.5Z" fill="#333333"/>
<path d="M568 48C567.934 48.0003 567.869 47.9875 567.809 47.9623C567.748 47.9371 567.693 47.9001 567.647 47.8533C567.553 47.7596 567.5 47.6325 567.5 47.5C567.5 47.3675 567.553 47.2404 567.647 47.1467L571.647 43.1467C571.741 43.0583 571.867 43.0103 571.996 43.0125C572.126 43.0148 572.249 43.0673 572.341 43.1589C572.433 43.2505 572.485 43.3741 572.487 43.5036C572.49 43.6332 572.442 43.7585 572.353 43.8533L568.353 47.8533C568.307 47.9001 568.252 47.9371 568.191 47.9623C568.131 47.9875 568.066 48.0003 568 48Z" fill="#333333"/>
<path d="M572 48C571.934 48.0003 571.869 47.9875 571.809 47.9623C571.748 47.9371 571.693 47.9001 571.647 47.8533L567.647 43.8533C567.558 43.7585 567.51 43.6332 567.513 43.5036C567.515 43.3741 567.567 43.2505 567.659 43.1589C567.751 43.0673 567.874 43.0148 568.004 43.0125C568.133 43.0103 568.259 43.0583 568.353 43.1467L572.353 47.1467C572.447 47.2404 572.5 47.3675 572.5 47.5C572.5 47.6325 572.447 47.7596 572.353 47.8533C572.307 47.9001 572.252 47.9371 572.191 47.9623C572.131 47.9875 572.066 48.0003 572 48V48Z" fill="#333333"/>
<path d="M592.544 48.176C592.016 48.176 591.584 48.608 591.584 49.136C591.584 49.664 592.048 50.096 592.544 50.096C593.04 50.096 593.504 49.664 593.504 49.136C593.504 48.608 593.072 48.176 592.544 48.176ZM596.997 48.176C596.469 48.176 596.037 48.608 596.037 49.136C596.037 49.664 596.501 50.096 596.997 50.096C597.493 50.096 597.957 49.664 597.957 49.136C597.957 48.608 597.525 48.176 596.997 48.176ZM601.451 48.176C600.923 48.176 600.491 48.608 600.491 49.136C600.491 49.664 600.955 50.096 601.451 50.096C601.947 50.096 602.411 49.664 602.411 49.136C602.411 48.608 601.979 48.176 601.451 48.176Z" fill="#502252"/>
<rect x="430.5" y="28.5" width="319" height="35" rx="3.5" stroke="#9EA6B5"/>
<g clip-path="url(#clip4_31_7600)">
<path d="M430.084 79H431.414L432.436 76.564H437.392L438.4 79H439.772L435.558 69.088H434.452L430.084 79ZM436.944 75.472H432.898L434.956 70.6H434.984L436.944 75.472ZM440.893 79H441.985V75.808C441.985 74.31 442.573 73.372 443.903 73.372C444.099 73.372 444.309 73.4 444.491 73.456L444.561 72.35C444.407 72.294 444.253 72.28 444.113 72.28C443.035 72.28 442.223 72.882 441.929 73.526H441.901C441.901 73.162 441.873 72.798 441.873 72.448H440.837C440.837 72.882 440.893 73.4 440.893 74.002V79ZM450.595 77.166C450.077 77.824 449.447 78.16 448.509 78.16C447.319 78.16 446.451 77.194 446.367 76.06H451.659V75.71C451.659 73.54 450.399 72.28 448.551 72.28C446.619 72.28 445.191 73.694 445.191 75.724C445.191 77.628 446.451 79.168 448.509 79.168C449.727 79.168 450.651 78.804 451.421 77.81L450.595 77.166ZM446.367 75.136C446.507 74.03 447.305 73.288 448.509 73.288C449.713 73.288 450.441 74.03 450.483 75.136H446.367ZM453.951 74.002C454.469 73.526 455.197 73.288 455.897 73.288C456.919 73.288 457.521 73.778 457.521 74.73V74.926H457.101C455.491 74.926 452.971 75.052 452.971 77.222C452.971 78.496 454.077 79.168 455.407 79.168C456.401 79.168 457.129 78.692 457.563 78.02H457.591C457.591 78.3 457.591 78.706 457.661 79H458.711C458.655 78.664 458.613 78.244 458.613 77.866V75.052C458.613 73.204 457.801 72.28 455.869 72.28C454.917 72.28 453.937 72.602 453.265 73.288L453.951 74.002ZM457.521 75.85V76.27C457.493 77.334 456.849 78.244 455.589 78.244C454.763 78.244 454.147 77.936 454.147 77.11C454.147 76.228 455.043 75.85 456.428 75.85H457.521ZM459.88 77.95C460.524 78.874 461.322 79.168 462.428 79.168C463.73 79.168 465.046 78.594 465.046 77.11C465.046 75.794 464.066 75.374 462.904 75.15C462.036 74.982 461.252 74.744 461.252 74.198C461.252 73.582 461.938 73.288 462.54 73.288C463.184 73.288 463.646 73.61 463.926 74.072L464.836 73.47C464.388 72.63 463.534 72.28 462.61 72.28C461.392 72.28 460.16 72.938 460.16 74.212C460.16 75.57 461.224 75.836 462.47 76.116C463.17 76.27 463.87 76.452 463.87 77.152C463.87 77.866 463.114 78.16 462.428 78.16C461.658 78.16 461.182 77.81 460.748 77.278L459.88 77.95ZM475.996 73.316C475.338 72.602 474.442 72.28 473.476 72.28C471.46 72.28 470.088 73.736 470.088 75.724C470.088 77.74 471.446 79.168 473.476 79.168C474.428 79.168 475.324 78.846 475.954 78.118L475.142 77.348C474.736 77.908 474.19 78.16 473.476 78.16C472.146 78.16 471.264 77.068 471.264 75.724C471.264 74.38 472.006 73.288 473.476 73.288C474.134 73.288 474.666 73.526 475.128 74.086L475.996 73.316ZM476.842 75.724C476.842 77.768 478.326 79.168 480.342 79.168C482.358 79.168 483.842 77.768 483.842 75.724C483.842 73.68 482.358 72.28 480.342 72.28C478.326 72.28 476.842 73.68 476.842 75.724ZM478.018 75.724C478.018 74.352 478.928 73.288 480.342 73.288C481.756 73.288 482.666 74.352 482.666 75.724C482.666 77.096 481.756 78.16 480.342 78.16C478.928 78.16 478.018 77.096 478.018 75.724ZM491.104 72.448H489.928L487.982 77.586H487.954L485.91 72.448H484.636L487.31 79H488.514L491.104 72.448ZM497.312 77.166C496.794 77.824 496.164 78.16 495.226 78.16C494.036 78.16 493.168 77.194 493.084 76.06H498.376V75.71C498.376 73.54 497.116 72.28 495.268 72.28C493.336 72.28 491.908 73.694 491.908 75.724C491.908 77.628 493.168 79.168 495.226 79.168C496.444 79.168 497.368 78.804 498.138 77.81L497.312 77.166ZM493.084 75.136C493.224 74.03 494.022 73.288 495.226 73.288C496.43 73.288 497.158 74.03 497.2 75.136H493.084ZM500.065 79H501.157V75.808C501.157 74.31 501.745 73.372 503.075 73.372C503.271 73.372 503.481 73.4 503.663 73.456L503.733 72.35C503.579 72.294 503.425 72.28 503.285 72.28C502.207 72.28 501.395 72.882 501.101 73.526H501.073C501.073 73.162 501.045 72.798 501.045 72.448H500.009C500.009 72.882 500.065 73.4 500.065 74.002V79ZM509.767 77.166C509.249 77.824 508.619 78.16 507.681 78.16C506.491 78.16 505.623 77.194 505.539 76.06H510.831V75.71C510.831 73.54 509.571 72.28 507.723 72.28C505.791 72.28 504.363 73.694 504.363 75.724C504.363 77.628 505.623 79.168 507.681 79.168C508.899 79.168 509.823 78.804 510.593 77.81L509.767 77.166ZM505.539 75.136C505.679 74.03 506.477 73.288 507.681 73.288C508.885 73.288 509.613 74.03 509.655 75.136H505.539ZM517.966 79H519.058V68.416H517.966V73.4H517.938C517.336 72.7 516.538 72.28 515.586 72.28C513.528 72.28 512.142 73.736 512.142 75.724C512.142 77.684 513.584 79.168 515.418 79.168C516.594 79.168 517.532 78.58 517.938 77.838H517.966V79ZM517.966 75.724C517.966 77.096 517.056 78.16 515.642 78.16C514.228 78.16 513.318 77.096 513.318 75.724C513.318 74.352 514.228 73.288 515.642 73.288C517.056 73.288 517.966 74.352 517.966 75.724ZM524.919 79H526.011V77.838H526.039C526.445 78.58 527.383 79.168 528.559 79.168C530.393 79.168 531.835 77.684 531.835 75.724C531.835 73.736 530.449 72.28 528.391 72.28C527.439 72.28 526.641 72.7 526.039 73.4H526.011V68.416H524.919V79ZM526.011 75.724C526.011 74.352 526.921 73.288 528.335 73.288C529.749 73.288 530.659 74.352 530.659 75.724C530.659 77.096 529.749 78.16 528.335 78.16C526.921 78.16 526.011 77.096 526.011 75.724ZM539.106 72.448H537.916L535.97 77.586H535.942L533.912 72.448H532.638L535.354 79.042L534.906 80.274C534.668 80.918 534.402 81.352 533.688 81.352C533.38 81.352 533.142 81.324 532.918 81.24L532.778 82.192C533.072 82.332 533.45 82.36 533.758 82.36C535.074 82.36 535.508 81.604 535.942 80.498L539.106 72.448ZM547.768 72.448H545.836V70.586H544.744V72.448H543.316V73.372H544.744V76.97C544.744 78.328 544.996 79.168 546.55 79.168C546.956 79.168 547.446 79.098 547.824 78.93L547.782 77.936C547.488 78.09 547.138 78.16 546.816 78.16C545.85 78.16 545.836 77.488 545.836 76.648V73.372H547.768V72.448ZM549.106 79H550.198V75.808C550.198 74.31 550.814 73.288 552.228 73.288C553.25 73.288 553.726 73.974 553.726 75.066V79H554.818V74.954C554.818 73.372 554.048 72.28 552.326 72.28C551.304 72.28 550.52 72.84 550.226 73.358H550.198V68.416H549.106V79ZM556.984 79H558.076V72.448H556.984V79ZM556.732 69.886C556.732 70.348 557.068 70.684 557.53 70.684C557.992 70.684 558.328 70.348 558.328 69.886C558.328 69.452 557.978 69.088 557.53 69.088C557.082 69.088 556.732 69.452 556.732 69.886ZM559.521 77.95C560.165 78.874 560.963 79.168 562.069 79.168C563.371 79.168 564.687 78.594 564.687 77.11C564.687 75.794 563.707 75.374 562.545 75.15C561.677 74.982 560.893 74.744 560.893 74.198C560.893 73.582 561.579 73.288 562.181 73.288C562.825 73.288 563.287 73.61 563.567 74.072L564.477 73.47C564.029 72.63 563.175 72.28 562.251 72.28C561.033 72.28 559.801 72.938 559.801 74.212C559.801 75.57 560.865 75.836 562.111 76.116C562.811 76.27 563.511 76.452 563.511 77.152C563.511 77.866 562.755 78.16 562.069 78.16C561.299 78.16 560.823 77.81 560.389 77.278L559.521 77.95ZM570.05 82.192H571.142V77.838H571.17C571.576 78.58 572.514 79.168 573.69 79.168C575.524 79.168 576.966 77.684 576.966 75.724C576.966 73.736 575.58 72.28 573.522 72.28C572.57 72.28 571.772 72.7 571.17 73.4H571.142V72.448H570.05V82.192ZM571.142 75.724C571.142 74.352 572.052 73.288 573.466 73.288C574.88 73.288 575.79 74.352 575.79 75.724C575.79 77.096 574.88 78.16 573.466 78.16C572.052 78.16 571.142 77.096 571.142 75.724ZM578.763 79H579.855V68.416H578.763V79ZM582.63 74.002C583.148 73.526 583.876 73.288 584.576 73.288C585.598 73.288 586.2 73.778 586.2 74.73V74.926H585.78C584.17 74.926 581.65 75.052 581.65 77.222C581.65 78.496 582.756 79.168 584.086 79.168C585.08 79.168 585.808 78.692 586.242 78.02H586.27C586.27 78.3 586.27 78.706 586.34 79H587.39C587.334 78.664 587.292 78.244 587.292 77.866V75.052C587.292 73.204 586.48 72.28 584.548 72.28C583.596 72.28 582.616 72.602 581.944 73.288L582.63 74.002ZM586.2 75.85V76.27C586.172 77.334 585.528 78.244 584.268 78.244C583.442 78.244 582.826 77.936 582.826 77.11C582.826 76.228 583.722 75.85 585.108 75.85H586.2ZM589.288 79H590.38V75.808C590.38 74.31 590.996 73.288 592.41 73.288C593.432 73.288 593.908 73.974 593.908 75.066V79H595V74.954C595 73.372 594.23 72.28 592.508 72.28C591.43 72.28 590.618 72.882 590.324 73.526H590.296C590.296 73.162 590.268 72.798 590.268 72.448H589.232C589.232 72.882 589.288 73.4 589.288 74.002V79ZM600.651 72.448H598.719V70.586H597.627V72.448H596.199V73.372H597.627V76.97C597.627 78.328 597.879 79.168 599.433 79.168C599.839 79.168 600.329 79.098 600.707 78.93L600.665 77.936C600.371 78.09 600.021 78.16 599.699 78.16C598.733 78.16 598.719 77.488 598.719 76.648V73.372H600.651V72.448Z" fill="#333333"/>
</g>
<g filter="url(#filter1_dd_31_7600)">
<g clip-path="url(#clip5_31_7600)">
<rect width="320" height="36" transform="translate(430 66)" fill="#E6E6E6"/>
<rect x="446" y="74" width="20" height="20" rx="6" fill="#EDE9ED"/>
<path d="M450 74.5H462C463.933 74.5 465.5 76.067 465.5 78V90C465.5 91.933 463.933 93.5 462 93.5H450C448.067 93.5 446.5 91.933 446.5 90V78C446.5 76.067 448.067 74.5 450 74.5Z" stroke="#6C3078"/>
<path d="M454.076 88.7728L450.176 84.8728C449.941 84.6385 449.941 84.2586 450.176 84.0243L451.024 83.1757C451.259 82.9414 451.638 82.9414 451.873 83.1757L454.5 85.8029L460.127 80.1757C460.362 79.9414 460.741 79.9414 460.976 80.1757L461.824 81.0243C462.059 81.2586 462.059 81.6385 461.824 81.8728L454.924 88.7728C454.69 89.0071 454.31 89.0071 454.076 88.7728Z" fill="#6C3078"/>
<path d="M476.982 87.5H478.27L480.734 79.1H480.762L483.212 87.5H484.486L487.398 77.588H486.166L483.87 85.82H483.842L481.42 77.588H480.104L477.668 85.82H477.64L475.386 77.588H474.084L476.982 87.5ZM492.886 85.666C492.368 86.324 491.738 86.66 490.8 86.66C489.61 86.66 488.742 85.694 488.658 84.56H493.95V84.21C493.95 82.04 492.69 80.78 490.842 80.78C488.91 80.78 487.482 82.194 487.482 84.224C487.482 86.128 488.742 87.668 490.8 87.668C492.018 87.668 492.942 87.304 493.712 86.31L492.886 85.666ZM488.658 83.636C488.798 82.53 489.596 81.788 490.8 81.788C492.004 81.788 492.732 82.53 492.774 83.636H488.658ZM494.912 86.45C495.556 87.374 496.354 87.668 497.46 87.668C498.762 87.668 500.078 87.094 500.078 85.61C500.078 84.294 499.098 83.874 497.936 83.65C497.068 83.482 496.284 83.244 496.284 82.698C496.284 82.082 496.97 81.788 497.572 81.788C498.216 81.788 498.678 82.11 498.958 82.572L499.868 81.97C499.42 81.13 498.566 80.78 497.642 80.78C496.424 80.78 495.192 81.438 495.192 82.712C495.192 84.07 496.256 84.336 497.502 84.616C498.202 84.77 498.902 84.952 498.902 85.652C498.902 86.366 498.146 86.66 497.46 86.66C496.69 86.66 496.214 86.31 495.78 85.778L494.912 86.45ZM505.184 80.948H503.252V79.086H502.16V80.948H500.732V81.872H502.16V85.47C502.16 86.828 502.412 87.668 503.966 87.668C504.372 87.668 504.862 87.598 505.24 87.43L505.198 86.436C504.904 86.59 504.554 86.66 504.232 86.66C503.266 86.66 503.252 85.988 503.252 85.148V81.872H505.184V80.948ZM510.615 87.5H511.791V79.184H511.819L515.375 87.5H516.089L519.645 79.184H519.673V87.5H520.849V77.588H519.141L515.753 85.358H515.725L512.365 77.588H510.615V87.5ZM528.146 85.666C527.628 86.324 526.998 86.66 526.06 86.66C524.87 86.66 524.002 85.694 523.918 84.56H529.21V84.21C529.21 82.04 527.95 80.78 526.102 80.78C524.17 80.78 522.742 82.194 522.742 84.224C522.742 86.128 524.002 87.668 526.06 87.668C527.278 87.668 528.202 87.304 528.972 86.31L528.146 85.666ZM523.918 83.636C524.058 82.53 524.856 81.788 526.06 81.788C527.264 81.788 527.992 82.53 528.034 83.636H523.918ZM530.997 87.5H532.089V76.916H530.997V87.5ZM534.207 87.5H535.299V86.338H535.327C535.733 87.08 536.671 87.668 537.847 87.668C539.681 87.668 541.123 86.184 541.123 84.224C541.123 82.236 539.737 80.78 537.679 80.78C536.727 80.78 535.929 81.2 535.327 81.9H535.299V76.916H534.207V87.5ZM535.299 84.224C535.299 82.852 536.209 81.788 537.623 81.788C539.037 81.788 539.947 82.852 539.947 84.224C539.947 85.596 539.037 86.66 537.623 86.66C536.209 86.66 535.299 85.596 535.299 84.224ZM542.443 84.224C542.443 86.268 543.927 87.668 545.943 87.668C547.959 87.668 549.443 86.268 549.443 84.224C549.443 82.18 547.959 80.78 545.943 80.78C543.927 80.78 542.443 82.18 542.443 84.224ZM543.619 84.224C543.619 82.852 544.529 81.788 545.943 81.788C547.357 81.788 548.267 82.852 548.267 84.224C548.267 85.596 547.357 86.66 545.943 86.66C544.529 86.66 543.619 85.596 543.619 84.224ZM556.846 80.948H555.754V84.14C555.754 85.638 555.138 86.66 553.724 86.66C552.702 86.66 552.226 85.974 552.226 84.882V80.948H551.134V84.994C551.134 86.576 551.904 87.668 553.626 87.668C554.704 87.668 555.516 87.066 555.81 86.422H555.838C555.838 86.786 555.866 87.15 555.866 87.5H556.902C556.902 87.066 556.846 86.548 556.846 85.946V80.948ZM558.913 87.5H560.005V84.308C560.005 82.81 560.593 81.872 561.923 81.872C562.119 81.872 562.329 81.9 562.511 81.956L562.581 80.85C562.427 80.794 562.273 80.78 562.133 80.78C561.055 80.78 560.243 81.382 559.949 82.026H559.921C559.921 81.662 559.893 81.298 559.893 80.948H558.857C558.857 81.382 558.913 81.9 558.913 82.502V87.5ZM563.835 87.5H564.927V84.308C564.927 82.81 565.543 81.788 566.957 81.788C567.979 81.788 568.455 82.474 568.455 83.566V87.5H569.547V83.454C569.547 81.872 568.777 80.78 567.055 80.78C565.977 80.78 565.165 81.382 564.871 82.026H564.843C564.843 81.662 564.815 81.298 564.815 80.948H563.779C563.779 81.382 563.835 81.9 563.835 82.502V87.5ZM576.64 85.666C576.122 86.324 575.492 86.66 574.554 86.66C573.364 86.66 572.496 85.694 572.412 84.56H577.704V84.21C577.704 82.04 576.444 80.78 574.596 80.78C572.664 80.78 571.236 82.194 571.236 84.224C571.236 86.128 572.496 87.668 574.554 87.668C575.772 87.668 576.696 87.304 577.466 86.31L576.64 85.666ZM572.412 83.636C572.552 82.53 573.35 81.788 574.554 81.788C575.758 81.788 576.486 82.53 576.528 83.636H572.412Z" fill="#333333"/>
<rect width="320" height="36" transform="translate(430 102)" fill="#E6E6E6"/>
<rect x="446" y="110" width="20" height="20" rx="6" fill="#EDE9ED"/>
<path d="M450 110.5H462C463.933 110.5 465.5 112.067 465.5 114V126C465.5 127.933 463.933 129.5 462 129.5H450C448.067 129.5 446.5 127.933 446.5 126V114C446.5 112.067 448.067 110.5 450 110.5Z" stroke="#6C3078"/>
<path d="M454.076 124.773L450.176 120.873C449.941 120.638 449.941 120.259 450.176 120.024L451.024 119.176C451.259 118.941 451.638 118.941 451.873 119.176L454.5 121.803L460.127 116.176C460.362 115.941 460.741 115.941 460.976 116.176L461.824 117.024C462.059 117.259 462.059 117.638 461.824 117.873L454.924 124.773C454.69 125.007 454.31 125.007 454.076 124.773Z" fill="#6C3078"/>
<path d="M475.232 123.5H481.714V122.408H476.408V118.88H481.126V117.788H476.408V114.68H481.462V113.588H475.232V123.5ZM483.937 118.502C484.455 118.026 485.183 117.788 485.883 117.788C486.905 117.788 487.507 118.278 487.507 119.23V119.426H487.087C485.477 119.426 482.957 119.552 482.957 121.722C482.957 122.996 484.063 123.668 485.393 123.668C486.387 123.668 487.115 123.192 487.549 122.52H487.577C487.577 122.8 487.577 123.206 487.647 123.5H488.697C488.641 123.164 488.599 122.744 488.599 122.366V119.552C488.599 117.704 487.787 116.78 485.855 116.78C484.903 116.78 483.923 117.102 483.251 117.788L483.937 118.502ZM487.507 120.35V120.77C487.479 121.834 486.835 122.744 485.575 122.744C484.749 122.744 484.133 122.436 484.133 121.61C484.133 120.728 485.029 120.35 486.415 120.35H487.507ZM489.867 122.45C490.511 123.374 491.309 123.668 492.415 123.668C493.717 123.668 495.033 123.094 495.033 121.61C495.033 120.294 494.053 119.874 492.891 119.65C492.023 119.482 491.239 119.244 491.239 118.698C491.239 118.082 491.925 117.788 492.527 117.788C493.171 117.788 493.633 118.11 493.913 118.572L494.823 117.97C494.375 117.13 493.521 116.78 492.597 116.78C491.379 116.78 490.147 117.438 490.147 118.712C490.147 120.07 491.211 120.336 492.457 120.616C493.157 120.77 493.857 120.952 493.857 121.652C493.857 122.366 493.101 122.66 492.415 122.66C491.645 122.66 491.169 122.31 490.735 121.778L489.867 122.45ZM500.14 116.948H498.208V115.086H497.116V116.948H495.688V117.872H497.116V121.47C497.116 122.828 497.368 123.668 498.922 123.668C499.328 123.668 499.818 123.598 500.196 123.43L500.154 122.436C499.86 122.59 499.51 122.66 499.188 122.66C498.222 122.66 498.208 121.988 498.208 121.148V117.872H500.14V116.948ZM505.57 123.5H506.746V115.184H506.774L510.33 123.5H511.044L514.6 115.184H514.628V123.5H515.804V113.588H514.096L510.708 121.358H510.68L507.32 113.588H505.57V123.5ZM523.101 121.666C522.583 122.324 521.953 122.66 521.015 122.66C519.825 122.66 518.957 121.694 518.873 120.56H524.165V120.21C524.165 118.04 522.905 116.78 521.057 116.78C519.125 116.78 517.697 118.194 517.697 120.224C517.697 122.128 518.957 123.668 521.015 123.668C522.233 123.668 523.157 123.304 523.927 122.31L523.101 121.666ZM518.873 119.636C519.013 118.53 519.811 117.788 521.015 117.788C522.219 117.788 522.947 118.53 522.989 119.636H518.873ZM525.952 123.5H527.044V112.916H525.952V123.5ZM529.162 123.5H530.254V122.338H530.282C530.688 123.08 531.626 123.668 532.802 123.668C534.636 123.668 536.078 122.184 536.078 120.224C536.078 118.236 534.692 116.78 532.634 116.78C531.682 116.78 530.884 117.2 530.282 117.9H530.254V112.916H529.162V123.5ZM530.254 120.224C530.254 118.852 531.164 117.788 532.578 117.788C533.992 117.788 534.902 118.852 534.902 120.224C534.902 121.596 533.992 122.66 532.578 122.66C531.164 122.66 530.254 121.596 530.254 120.224ZM537.398 120.224C537.398 122.268 538.882 123.668 540.898 123.668C542.914 123.668 544.398 122.268 544.398 120.224C544.398 118.18 542.914 116.78 540.898 116.78C538.882 116.78 537.398 118.18 537.398 120.224ZM538.574 120.224C538.574 118.852 539.484 117.788 540.898 117.788C542.312 117.788 543.222 118.852 543.222 120.224C543.222 121.596 542.312 122.66 540.898 122.66C539.484 122.66 538.574 121.596 538.574 120.224ZM551.801 116.948H550.709V120.14C550.709 121.638 550.093 122.66 548.679 122.66C547.657 122.66 547.181 121.974 547.181 120.882V116.948H546.089V120.994C546.089 122.576 546.859 123.668 548.581 123.668C549.659 123.668 550.471 123.066 550.765 122.422H550.793C550.793 122.786 550.821 123.15 550.821 123.5H551.857C551.857 123.066 551.801 122.548 551.801 121.946V116.948ZM553.868 123.5H554.96V120.308C554.96 118.81 555.548 117.872 556.878 117.872C557.074 117.872 557.284 117.9 557.466 117.956L557.536 116.85C557.382 116.794 557.228 116.78 557.088 116.78C556.01 116.78 555.198 117.382 554.904 118.026H554.876C554.876 117.662 554.848 117.298 554.848 116.948H553.812C553.812 117.382 553.868 117.9 553.868 118.502V123.5ZM558.79 123.5H559.882V120.308C559.882 118.81 560.498 117.788 561.912 117.788C562.934 117.788 563.41 118.474 563.41 119.566V123.5H564.502V119.454C564.502 117.872 563.732 116.78 562.01 116.78C560.932 116.78 560.12 117.382 559.826 118.026H559.798C559.798 117.662 559.77 117.298 559.77 116.948H558.734C558.734 117.382 558.79 117.9 558.79 118.502V123.5ZM571.595 121.666C571.077 122.324 570.447 122.66 569.509 122.66C568.319 122.66 567.451 121.694 567.367 120.56H572.659V120.21C572.659 118.04 571.399 116.78 569.551 116.78C567.619 116.78 566.191 118.194 566.191 120.224C566.191 122.128 567.451 123.668 569.509 123.668C570.727 123.668 571.651 123.304 572.421 122.31L571.595 121.666ZM567.367 119.636C567.507 118.53 568.305 117.788 569.509 117.788C570.713 117.788 571.441 118.53 571.483 119.636H567.367Z" fill="#333333"/>
<rect width="320" height="36" transform="translate(430 138)" fill="white"/>
<rect x="446.5" y="146.5" width="19" height="19" rx="3.5" fill="white" stroke="#9EA6B5"/>
<path d="M475.232 159.5H476.408V151.268H476.436L482.176 159.5H483.66V149.588H482.484V157.82H482.456L476.716 149.588H475.232V159.5ZM485.554 156.224C485.554 158.268 487.038 159.668 489.054 159.668C491.07 159.668 492.554 158.268 492.554 156.224C492.554 154.18 491.07 152.78 489.054 152.78C487.038 152.78 485.554 154.18 485.554 156.224ZM486.73 156.224C486.73 154.852 487.64 153.788 489.054 153.788C490.468 153.788 491.378 154.852 491.378 156.224C491.378 157.596 490.468 158.66 489.054 158.66C487.64 158.66 486.73 157.596 486.73 156.224ZM494.245 159.5H495.337V156.308C495.337 154.81 495.925 153.872 497.255 153.872C497.451 153.872 497.661 153.9 497.843 153.956L497.913 152.85C497.759 152.794 497.605 152.78 497.465 152.78C496.387 152.78 495.575 153.382 495.281 154.026H495.253C495.253 153.662 495.225 153.298 495.225 152.948H494.189C494.189 153.382 494.245 153.9 494.245 154.502V159.5ZM502.751 152.948H500.819V151.086H499.727V152.948H498.299V153.872H499.727V157.47C499.727 158.828 499.979 159.668 501.533 159.668C501.939 159.668 502.429 159.598 502.807 159.43L502.765 158.436C502.471 158.59 502.121 158.66 501.799 158.66C500.833 158.66 500.819 157.988 500.819 157.148V153.872H502.751V152.948ZM504.089 159.5H505.181V156.308C505.181 154.81 505.797 153.788 507.211 153.788C508.233 153.788 508.709 154.474 508.709 155.566V159.5H509.801V155.454C509.801 153.872 509.031 152.78 507.309 152.78C506.287 152.78 505.503 153.34 505.209 153.858H505.181V148.916H504.089V159.5ZM515.961 159.5H517.137V151.184H517.165L520.721 159.5H521.435L524.991 151.184H525.019V159.5H526.195V149.588H524.487L521.099 157.358H521.071L517.711 149.588H515.961V159.5ZM533.492 157.666C532.974 158.324 532.344 158.66 531.406 158.66C530.216 158.66 529.348 157.694 529.264 156.56H534.556V156.21C534.556 154.04 533.296 152.78 531.448 152.78C529.516 152.78 528.088 154.194 528.088 156.224C528.088 158.128 529.348 159.668 531.406 159.668C532.624 159.668 533.548 159.304 534.318 158.31L533.492 157.666ZM529.264 155.636C529.404 154.53 530.202 153.788 531.406 153.788C532.61 153.788 533.338 154.53 533.38 155.636H529.264ZM536.343 159.5H537.435V148.916H536.343V159.5ZM539.552 159.5H540.644V158.338H540.672C541.078 159.08 542.016 159.668 543.192 159.668C545.026 159.668 546.468 158.184 546.468 156.224C546.468 154.236 545.082 152.78 543.024 152.78C542.072 152.78 541.274 153.2 540.672 153.9H540.644V148.916H539.552V159.5ZM540.644 156.224C540.644 154.852 541.554 153.788 542.968 153.788C544.382 153.788 545.292 154.852 545.292 156.224C545.292 157.596 544.382 158.66 542.968 158.66C541.554 158.66 540.644 157.596 540.644 156.224ZM547.789 156.224C547.789 158.268 549.273 159.668 551.289 159.668C553.305 159.668 554.789 158.268 554.789 156.224C554.789 154.18 553.305 152.78 551.289 152.78C549.273 152.78 547.789 154.18 547.789 156.224ZM548.965 156.224C548.965 154.852 549.875 153.788 551.289 153.788C552.703 153.788 553.613 154.852 553.613 156.224C553.613 157.596 552.703 158.66 551.289 158.66C549.875 158.66 548.965 157.596 548.965 156.224ZM562.191 152.948H561.099V156.14C561.099 157.638 560.483 158.66 559.069 158.66C558.047 158.66 557.571 157.974 557.571 156.882V152.948H556.479V156.994C556.479 158.576 557.249 159.668 558.971 159.668C560.049 159.668 560.861 159.066 561.155 158.422H561.183C561.183 158.786 561.211 159.15 561.211 159.5H562.247C562.247 159.066 562.191 158.548 562.191 157.946V152.948ZM564.259 159.5H565.351V156.308C565.351 154.81 565.939 153.872 567.269 153.872C567.465 153.872 567.675 153.9 567.857 153.956L567.927 152.85C567.773 152.794 567.619 152.78 567.479 152.78C566.401 152.78 565.589 153.382 565.295 154.026H565.267C565.267 153.662 565.239 153.298 565.239 152.948H564.203C564.203 153.382 564.259 153.9 564.259 154.502V159.5ZM569.181 159.5H570.273V156.308C570.273 154.81 570.889 153.788 572.303 153.788C573.325 153.788 573.801 154.474 573.801 155.566V159.5H574.893V155.454C574.893 153.872 574.123 152.78 572.401 152.78C571.323 152.78 570.511 153.382 570.217 154.026H570.189C570.189 153.662 570.161 153.298 570.161 152.948H569.125C569.125 153.382 569.181 153.9 569.181 154.502V159.5ZM581.986 157.666C581.468 158.324 580.838 158.66 579.9 158.66C578.71 158.66 577.842 157.694 577.758 156.56H583.05V156.21C583.05 154.04 581.79 152.78 579.942 152.78C578.01 152.78 576.582 154.194 576.582 156.224C576.582 158.128 577.842 159.668 579.9 159.668C581.118 159.668 582.042 159.304 582.812 158.31L581.986 157.666ZM577.758 155.636C577.898 154.53 578.696 153.788 579.9 153.788C581.104 153.788 581.832 154.53 581.874 155.636H577.758Z" fill="#333333"/>
<rect width="320" height="36" transform="translate(430 174)" fill="white"/>
<rect x="446.5" y="182.5" width="19" height="19" rx="3.5" fill="white" stroke="#9EA6B5"/>
<path d="M475.232 195.5H476.408V185.588H475.232V195.5ZM478.673 195.5H479.765V192.308C479.765 190.81 480.381 189.788 481.795 189.788C482.817 189.788 483.293 190.474 483.293 191.566V195.5H484.385V191.454C484.385 189.872 483.615 188.78 481.893 188.78C480.815 188.78 480.003 189.382 479.709 190.026H479.681C479.681 189.662 479.653 189.298 479.653 188.948H478.617C478.617 189.382 478.673 189.9 478.673 190.502V195.5ZM486.452 195.5H487.544V192.308C487.544 190.81 488.16 189.788 489.574 189.788C490.596 189.788 491.072 190.474 491.072 191.566V195.5H492.164V191.454C492.164 189.872 491.394 188.78 489.672 188.78C488.594 188.78 487.782 189.382 487.488 190.026H487.46C487.46 189.662 487.432 189.298 487.432 188.948H486.396C486.396 189.382 486.452 189.9 486.452 190.502V195.5ZM499.257 193.666C498.739 194.324 498.109 194.66 497.171 194.66C495.981 194.66 495.113 193.694 495.029 192.56H500.321V192.21C500.321 190.04 499.061 188.78 497.213 188.78C495.281 188.78 493.853 190.194 493.853 192.224C493.853 194.128 495.113 195.668 497.171 195.668C498.389 195.668 499.313 195.304 500.083 194.31L499.257 193.666ZM495.029 191.636C495.169 190.53 495.967 189.788 497.171 189.788C498.375 189.788 499.103 190.53 499.145 191.636H495.029ZM502.011 195.5H503.103V192.308C503.103 190.81 503.691 189.872 505.021 189.872C505.217 189.872 505.427 189.9 505.609 189.956L505.679 188.85C505.525 188.794 505.371 188.78 505.231 188.78C504.153 188.78 503.341 189.382 503.047 190.026H503.019C503.019 189.662 502.991 189.298 502.991 188.948H501.955C501.955 189.382 502.011 189.9 502.011 190.502V195.5ZM511.025 195.5H512.201V187.184H512.229L515.785 195.5H516.499L520.055 187.184H520.083V195.5H521.259V185.588H519.551L516.163 193.358H516.135L512.775 185.588H511.025V195.5ZM528.556 193.666C528.038 194.324 527.408 194.66 526.47 194.66C525.28 194.66 524.412 193.694 524.328 192.56H529.62V192.21C529.62 190.04 528.36 188.78 526.512 188.78C524.58 188.78 523.152 190.194 523.152 192.224C523.152 194.128 524.412 195.668 526.47 195.668C527.688 195.668 528.612 195.304 529.382 194.31L528.556 193.666ZM524.328 191.636C524.468 190.53 525.266 189.788 526.47 189.788C527.674 189.788 528.402 190.53 528.444 191.636H524.328ZM531.407 195.5H532.499V184.916H531.407V195.5ZM534.617 195.5H535.709V194.338H535.737C536.143 195.08 537.081 195.668 538.257 195.668C540.091 195.668 541.533 194.184 541.533 192.224C541.533 190.236 540.147 188.78 538.089 188.78C537.137 188.78 536.339 189.2 535.737 189.9H535.709V184.916H534.617V195.5ZM535.709 192.224C535.709 190.852 536.619 189.788 538.033 189.788C539.447 189.788 540.357 190.852 540.357 192.224C540.357 193.596 539.447 194.66 538.033 194.66C536.619 194.66 535.709 193.596 535.709 192.224ZM542.853 192.224C542.853 194.268 544.337 195.668 546.353 195.668C548.369 195.668 549.853 194.268 549.853 192.224C549.853 190.18 548.369 188.78 546.353 188.78C544.337 188.78 542.853 190.18 542.853 192.224ZM544.029 192.224C544.029 190.852 544.939 189.788 546.353 189.788C547.767 189.788 548.677 190.852 548.677 192.224C548.677 193.596 547.767 194.66 546.353 194.66C544.939 194.66 544.029 193.596 544.029 192.224ZM557.256 188.948H556.164V192.14C556.164 193.638 555.548 194.66 554.134 194.66C553.112 194.66 552.636 193.974 552.636 192.882V188.948H551.544V192.994C551.544 194.576 552.314 195.668 554.036 195.668C555.114 195.668 555.926 195.066 556.22 194.422H556.248C556.248 194.786 556.276 195.15 556.276 195.5H557.312C557.312 195.066 557.256 194.548 557.256 193.946V188.948ZM559.323 195.5H560.415V192.308C560.415 190.81 561.003 189.872 562.333 189.872C562.529 189.872 562.739 189.9 562.921 189.956L562.991 188.85C562.837 188.794 562.683 188.78 562.543 188.78C561.465 188.78 560.653 189.382 560.359 190.026H560.331C560.331 189.662 560.303 189.298 560.303 188.948H559.267C559.267 189.382 559.323 189.9 559.323 190.502V195.5ZM564.245 195.5H565.337V192.308C565.337 190.81 565.953 189.788 567.367 189.788C568.389 189.788 568.865 190.474 568.865 191.566V195.5H569.957V191.454C569.957 189.872 569.187 188.78 567.465 188.78C566.387 188.78 565.575 189.382 565.281 190.026H565.253C565.253 189.662 565.225 189.298 565.225 188.948H564.189C564.189 189.382 564.245 189.9 564.245 190.502V195.5ZM577.05 193.666C576.532 194.324 575.902 194.66 574.964 194.66C573.774 194.66 572.906 193.694 572.822 192.56H578.114V192.21C578.114 190.04 576.854 188.78 575.006 188.78C573.074 188.78 571.646 190.194 571.646 192.224C571.646 194.128 572.906 195.668 574.964 195.668C576.182 195.668 577.106 195.304 577.876 194.31L577.05 193.666ZM572.822 191.636C572.962 190.53 573.76 189.788 574.964 189.788C576.168 189.788 576.896 190.53 576.938 191.636H572.822Z" fill="#333333"/>
<rect width="320" height="36" transform="translate(430 210)" fill="white"/>
<rect x="446.5" y="218.5" width="19" height="19" rx="3.5" fill="white" stroke="#9EA6B5"/>
<path d="M475.232 231.5H480.944V230.408H476.408V221.588H475.232V231.5ZM482.134 231.5H483.226V224.948H482.134V231.5ZM481.882 222.386C481.882 222.848 482.218 223.184 482.68 223.184C483.142 223.184 483.478 222.848 483.478 222.386C483.478 221.952 483.128 221.588 482.68 221.588C482.232 221.588 481.882 221.952 481.882 222.386ZM484.671 230.45C485.315 231.374 486.113 231.668 487.219 231.668C488.521 231.668 489.837 231.094 489.837 229.61C489.837 228.294 488.857 227.874 487.695 227.65C486.827 227.482 486.043 227.244 486.043 226.698C486.043 226.082 486.729 225.788 487.331 225.788C487.975 225.788 488.437 226.11 488.717 226.572L489.627 225.97C489.179 225.13 488.325 224.78 487.401 224.78C486.183 224.78 484.951 225.438 484.951 226.712C484.951 228.07 486.015 228.336 487.261 228.616C487.961 228.77 488.661 228.952 488.661 229.652C488.661 230.366 487.905 230.66 487.219 230.66C486.449 230.66 485.973 230.31 485.539 229.778L484.671 230.45ZM494.944 224.948H493.012V223.086H491.92V224.948H490.492V225.872H491.92V229.47C491.92 230.828 492.172 231.668 493.726 231.668C494.132 231.668 494.622 231.598 495 231.43L494.958 230.436C494.664 230.59 494.314 230.66 493.992 230.66C493.026 230.66 493.012 229.988 493.012 229.148V225.872H494.944V224.948ZM500.277 231.5H501.369V224.948H500.277V231.5ZM500.025 222.386C500.025 222.848 500.361 223.184 500.823 223.184C501.285 223.184 501.621 222.848 501.621 222.386C501.621 221.952 501.271 221.588 500.823 221.588C500.375 221.588 500.025 221.952 500.025 222.386ZM507.126 224.948H505.194V223.086H504.102V224.948H502.674V225.872H504.102V229.47C504.102 230.828 504.354 231.668 505.908 231.668C506.314 231.668 506.804 231.598 507.182 231.43L507.14 230.436C506.846 230.59 506.496 230.66 506.174 230.66C505.208 230.66 505.194 229.988 505.194 229.148V225.872H507.126V224.948ZM513.49 229.666C512.972 230.324 512.342 230.66 511.404 230.66C510.214 230.66 509.346 229.694 509.262 228.56H514.554V228.21C514.554 226.04 513.294 224.78 511.446 224.78C509.514 224.78 508.086 226.194 508.086 228.224C508.086 230.128 509.346 231.668 511.404 231.668C512.622 231.668 513.546 231.304 514.316 230.31L513.49 229.666ZM509.262 227.636C509.402 226.53 510.2 225.788 511.404 225.788C512.608 225.788 513.336 226.53 513.378 227.636H509.262ZM516.243 231.5H517.335V228.308C517.335 226.81 517.951 225.788 519.365 225.788C520.261 225.788 520.625 226.348 520.625 227.79V231.5H521.717V227.72C521.717 226.544 522.487 225.788 523.411 225.788C524.685 225.788 525.007 226.67 525.007 227.58V231.5H526.099V227.524C526.099 225.83 525.483 224.78 523.607 224.78C522.613 224.78 522.011 225.256 521.535 226.026C521.325 225.578 520.877 224.78 519.463 224.78C518.385 224.78 517.573 225.382 517.279 226.026H517.251C517.251 225.662 517.223 225.298 517.223 224.948H516.187C516.187 225.382 516.243 225.9 516.243 226.502V231.5Z" fill="#333333"/>
<rect width="320" height="36" transform="translate(430 246)" fill="white"/>
<rect x="446.5" y="254.5" width="19" height="19" rx="3.5" fill="white" stroke="#9EA6B5"/>
<path d="M475.232 267.5H480.944V266.408H476.408V257.588H475.232V267.5ZM482.134 267.5H483.226V260.948H482.134V267.5ZM481.882 258.386C481.882 258.848 482.218 259.184 482.68 259.184C483.142 259.184 483.478 258.848 483.478 258.386C483.478 257.952 483.128 257.588 482.68 257.588C482.232 257.588 481.882 257.952 481.882 258.386ZM484.671 266.45C485.315 267.374 486.113 267.668 487.219 267.668C488.521 267.668 489.837 267.094 489.837 265.61C489.837 264.294 488.857 263.874 487.695 263.65C486.827 263.482 486.043 263.244 486.043 262.698C486.043 262.082 486.729 261.788 487.331 261.788C487.975 261.788 488.437 262.11 488.717 262.572L489.627 261.97C489.179 261.13 488.325 260.78 487.401 260.78C486.183 260.78 484.951 261.438 484.951 262.712C484.951 264.07 486.015 264.336 487.261 264.616C487.961 264.77 488.661 264.952 488.661 265.652C488.661 266.366 487.905 266.66 487.219 266.66C486.449 266.66 485.973 266.31 485.539 265.778L484.671 266.45ZM494.944 260.948H493.012V259.086H491.92V260.948H490.492V261.872H491.92V265.47C491.92 266.828 492.172 267.668 493.726 267.668C494.132 267.668 494.622 267.598 495 267.43L494.958 266.436C494.664 266.59 494.314 266.66 493.992 266.66C493.026 266.66 493.012 265.988 493.012 265.148V261.872H494.944V260.948ZM500.277 267.5H501.369V260.948H500.277V267.5ZM500.025 258.386C500.025 258.848 500.361 259.184 500.823 259.184C501.285 259.184 501.621 258.848 501.621 258.386C501.621 257.952 501.271 257.588 500.823 257.588C500.375 257.588 500.025 257.952 500.025 258.386ZM507.126 260.948H505.194V259.086H504.102V260.948H502.674V261.872H504.102V265.47C504.102 266.828 504.354 267.668 505.908 267.668C506.314 267.668 506.804 267.598 507.182 267.43L507.14 266.436C506.846 266.59 506.496 266.66 506.174 266.66C505.208 266.66 505.194 265.988 505.194 265.148V261.872H507.126V260.948ZM513.49 265.666C512.972 266.324 512.342 266.66 511.404 266.66C510.214 266.66 509.346 265.694 509.262 264.56H514.554V264.21C514.554 262.04 513.294 260.78 511.446 260.78C509.514 260.78 508.086 262.194 508.086 264.224C508.086 266.128 509.346 267.668 511.404 267.668C512.622 267.668 513.546 267.304 514.316 266.31L513.49 265.666ZM509.262 263.636C509.402 262.53 510.2 261.788 511.404 261.788C512.608 261.788 513.336 262.53 513.378 263.636H509.262ZM516.243 267.5H517.335V264.308C517.335 262.81 517.951 261.788 519.365 261.788C520.261 261.788 520.625 262.348 520.625 263.79V267.5H521.717V263.72C521.717 262.544 522.487 261.788 523.411 261.788C524.685 261.788 525.007 262.67 525.007 263.58V267.5H526.099V263.524C526.099 261.83 525.483 260.78 523.607 260.78C522.613 260.78 522.011 261.256 521.535 262.026C521.325 261.578 520.877 260.78 519.463 260.78C518.385 260.78 517.573 261.382 517.279 262.026H517.251C517.251 261.662 517.223 261.298 517.223 260.948H516.187C516.187 261.382 516.243 261.9 516.243 262.502V267.5Z" fill="#333333"/>
</g>
</g>
<defs>
<filter id="filter0_dd_31_7600" x="0" y="56" width="340" height="218" filterUnits="userSpaceOnUse" color-interpolation-filters="sRGB">
<feFlood flood-opacity="0" result="BackgroundImageFix"/>
<feColorMatrix in="SourceAlpha" type="matrix" values="0 0 0 0 0 0 0 0 0 0 0 0 0 0 0 0 0 0 127 0" result="hardAlpha"/>
<feOffset dy="2"/>
<feGaussianBlur stdDeviation="2"/>
<feColorMatrix type="matrix" values="0 0 0 0 0 0 0 0 0 0 0 0 0 0 0 0 0 0 0.1 0"/>
<feBlend mode="normal" in2="BackgroundImageFix" result="effect1_dropShadow_31_7600"/>
<feColorMatrix in="SourceAlpha" type="matrix" values="0 0 0 0 0 0 0 0 0 0 0 0 0 0 0 0 0 0 127 0" result="hardAlpha"/>
<feOffset dy="1"/>
<feGaussianBlur stdDeviation="5"/>
<feComposite in2="hardAlpha" operator="out"/>
<feColorMatrix type="matrix" values="0 0 0 0 0 0 0 0 0 0 0 0 0 0 0 0 0 0 0.12 0"/>
<feBlend mode="normal" in2="effect1_dropShadow_31_7600" result="effect2_dropShadow_31_7600"/>
<feBlend mode="normal" in="SourceGraphic" in2="effect2_dropShadow_31_7600" result="shape"/>
</filter>
<filter id="filter1_dd_31_7600" x="420" y="57" width="340" height="236" filterUnits="userSpaceOnUse" color-interpolation-filters="sRGB">
<feFlood flood-opacity="0" result="BackgroundImageFix"/>
<feColorMatrix in="SourceAlpha" type="matrix" values="0 0 0 0 0 0 0 0 0 0 0 0 0 0 0 0 0 0 127 0" result="hardAlpha"/>
<feOffset dy="2"/>
<feGaussianBlur stdDeviation="2"/>
<feColorMatrix type="matrix" values="0 0 0 0 0 0 0 0 0 0 0 0 0 0 0 0 0 0 0.1 0"/>
<feBlend mode="normal" in2="BackgroundImageFix" result="effect1_dropShadow_31_7600"/>
<feColorMatrix in="SourceAlpha" type="matrix" values="0 0 0 0 0 0 0 0 0 0 0 0 0 0 0 0 0 0 127 0" result="hardAlpha"/>
<feOffset dy="1"/>
<feGaussianBlur stdDeviation="5"/>
<feComposite in2="hardAlpha" operator="out"/>
<feColorMatrix type="matrix" values="0 0 0 0 0 0 0 0 0 0 0 0 0 0 0 0 0 0 0.12 0"/>
<feBlend mode="normal" in2="effect1_dropShadow_31_7600" result="effect2_dropShadow_31_7600"/>
<feBlend mode="normal" in="SourceGraphic" in2="effect2_dropShadow_31_7600" result="shape"/>
</filter>
<clipPath id="clip0_31_7600">
<rect width="49" height="24" fill="white" transform="translate(10)"/>
</clipPath>
<clipPath id="clip1_31_7600">
<rect width="320" height="17" fill="white" transform="translate(10 68)"/>
</clipPath>
<clipPath id="clip2_31_7600">
<rect x="10" y="65" width="320" height="198" rx="4" fill="white"/>
</clipPath>
<clipPath id="clip3_31_7600">
<rect width="82" height="24" fill="white" transform="translate(430)"/>
</clipPath>
<clipPath id="clip4_31_7600">
<rect width="320" height="17" fill="white" transform="translate(430 68)"/>
</clipPath>
<clipPath id="clip5_31_7600">
<rect x="430" y="66" width="320" height="216" rx="4" fill="white"/>
</clipPath>
</defs>
</svg>
