<svg width="320" height="191" viewBox="0 0 320 191" fill="none" xmlns="http://www.w3.org/2000/svg">
<g clip-path="url(#clip0_23_5993)">
<path d="M1.408 18H2.752V12.912H5.024C6.624 12.912 8.736 12.256 8.736 9.776C8.736 7.408 6.848 6.672 4.768 6.672H1.408V18ZM2.752 7.92H5.024C6.368 7.92 7.296 8.528 7.296 9.792C7.296 11.056 6.368 11.664 5.024 11.664H2.752V7.92ZM10.7804 18H12.0284V5.904H10.7804V18ZM15.2001 12.288C15.7921 11.744 16.6241 11.472 17.4241 11.472C18.5921 11.472 19.2801 12.032 19.2801 13.12V13.344H18.8001C16.9601 13.344 14.0801 13.488 14.0801 15.968C14.0801 17.424 15.3441 18.192 16.8641 18.192C18.0001 18.192 18.8321 17.648 19.3281 16.88H19.3601C19.3601 17.2 19.3601 17.664 19.4401 18H20.6401C20.5761 17.616 20.5281 17.136 20.5281 16.704V13.488C20.5281 11.376 19.6001 10.32 17.3921 10.32C16.3041 10.32 15.1841 10.688 14.4161 11.472L15.2001 12.288ZM19.2801 14.4V14.88C19.2481 16.096 18.5121 17.136 17.0721 17.136C16.1281 17.136 15.4241 16.784 15.4241 15.84C15.4241 14.832 16.4481 14.4 18.0321 14.4H19.2801ZM22.809 18H24.057V14.352C24.057 12.64 24.761 11.472 26.377 11.472C27.545 11.472 28.089 12.256 28.089 13.504V18H29.337V13.376C29.337 11.568 28.457 10.32 26.489 10.32C25.257 10.32 24.329 11.008 23.993 11.744H23.961C23.961 11.328 23.929 10.912 23.929 10.512H22.745C22.745 11.008 22.809 11.6 22.809 12.288V18ZM35.7956 10.512H33.5876V8.384H32.3396V10.512H30.7076V11.568H32.3396V15.68C32.3396 17.232 32.6276 18.192 34.4036 18.192C34.8676 18.192 35.4276 18.112 35.8596 17.92L35.8116 16.784C35.4756 16.96 35.0756 17.04 34.7076 17.04C33.6036 17.04 33.5876 16.272 33.5876 15.312V11.568H35.7956V10.512ZM36.1406 20H44.1406V19.2H36.1406V20ZM45.5486 18H46.8926V6.672H45.5486V18ZM49.4969 18H53.8489C56.0729 18 59.4009 16.512 59.4009 12.336C59.4009 8.16 56.0729 6.672 53.8489 6.672H49.4969V18ZM50.8409 7.92H53.4009C55.9929 7.92 57.9609 9.232 57.9609 12.336C57.9609 15.44 55.9929 16.752 53.4009 16.752H50.8409V7.92Z" fill="#333333"/>
<path opacity="0.8" d="M69.384 4.672H68.04V6.944L65.864 6.192L65.448 7.472L67.64 8.224L66.264 10.032L67.336 10.848L68.68 9.008L70.056 10.896L71.16 10.096L69.784 8.224L71.96 7.52L71.544 6.24L69.384 6.944V4.672Z" fill="#DB3259"/>
</g>
<rect x="0.5" y="28.5" width="319" height="35" rx="3.5" fill="white"/>
<path opacity="0.5" d="M13.408 50H14.752V44.912H17.024C18.624 44.912 20.736 44.256 20.736 41.776C20.736 39.408 18.848 38.672 16.768 38.672H13.408V50ZM14.752 39.92H17.024C18.368 39.92 19.296 40.528 19.296 41.792C19.296 43.056 18.368 43.664 17.024 43.664H14.752V39.92ZM22.7804 50H24.0284V37.904H22.7804V50ZM27.2001 44.288C27.7921 43.744 28.6241 43.472 29.4241 43.472C30.5921 43.472 31.2801 44.032 31.2801 45.12V45.344H30.8001C28.9601 45.344 26.0801 45.488 26.0801 47.968C26.0801 49.424 27.3441 50.192 28.8641 50.192C30.0001 50.192 30.8321 49.648 31.3281 48.88H31.3601C31.3601 49.2 31.3601 49.664 31.4401 50H32.6401C32.5761 49.616 32.5281 49.136 32.5281 48.704V45.488C32.5281 43.376 31.6001 42.32 29.3921 42.32C28.3041 42.32 27.1841 42.688 26.4161 43.472L27.2001 44.288ZM31.2801 46.4V46.88C31.2481 48.096 30.5121 49.136 29.0721 49.136C28.1281 49.136 27.4241 48.784 27.4241 47.84C27.4241 46.832 28.4481 46.4 30.0321 46.4H31.2801ZM41.129 43.504C40.377 42.688 39.353 42.32 38.249 42.32C35.945 42.32 34.377 43.984 34.377 46.256C34.377 48.56 35.929 50.192 38.249 50.192C39.337 50.192 40.361 49.824 41.081 48.992L40.153 48.112C39.689 48.752 39.065 49.04 38.249 49.04C36.729 49.04 35.721 47.792 35.721 46.256C35.721 44.72 36.569 43.472 38.249 43.472C39.001 43.472 39.609 43.744 40.137 44.384L41.129 43.504ZM48.2718 47.904C47.6798 48.656 46.9598 49.04 45.8878 49.04C44.5278 49.04 43.5358 47.936 43.4398 46.64H49.4878V46.24C49.4878 43.76 48.0478 42.32 45.9358 42.32C43.7278 42.32 42.0958 43.936 42.0958 46.256C42.0958 48.432 43.5358 50.192 45.8878 50.192C47.2798 50.192 48.3358 49.776 49.2158 48.64L48.2718 47.904ZM43.4398 45.584C43.5998 44.32 44.5118 43.472 45.8878 43.472C47.2638 43.472 48.0958 44.32 48.1438 45.584H43.4398ZM51.4184 50H52.6664V46.352C52.6664 44.64 53.3704 43.472 54.9864 43.472C56.1544 43.472 56.6984 44.256 56.6984 45.504V50H57.9464V45.376C57.9464 43.568 57.0664 42.32 55.0984 42.32C53.9304 42.32 53.0344 42.96 52.6984 43.552H52.6664V37.904H51.4184V50ZM59.877 46.256C59.877 48.592 61.573 50.192 63.877 50.192C66.181 50.192 67.877 48.592 67.877 46.256C67.877 43.92 66.181 42.32 63.877 42.32C61.573 42.32 59.877 43.92 59.877 46.256ZM61.221 46.256C61.221 44.688 62.261 43.472 63.877 43.472C65.493 43.472 66.533 44.688 66.533 46.256C66.533 47.824 65.493 49.04 63.877 49.04C62.261 49.04 61.221 47.824 61.221 46.256ZM69.921 50H71.169V37.904H69.921V50ZM79.8768 50H81.1248V37.904H79.8768V43.6H79.8448C79.1568 42.8 78.2448 42.32 77.1568 42.32C74.8048 42.32 73.2208 43.984 73.2208 46.256C73.2208 48.496 74.8688 50.192 76.9648 50.192C78.3088 50.192 79.3808 49.52 79.8448 48.672H79.8768V50ZM79.8768 46.256C79.8768 47.824 78.8368 49.04 77.2208 49.04C75.6048 49.04 74.5648 47.824 74.5648 46.256C74.5648 44.688 75.6048 43.472 77.2208 43.472C78.8368 43.472 79.8768 44.688 79.8768 46.256ZM89.178 47.904C88.586 48.656 87.866 49.04 86.794 49.04C85.434 49.04 84.442 47.936 84.346 46.64H90.394V46.24C90.394 43.76 88.954 42.32 86.842 42.32C84.634 42.32 83.002 43.936 83.002 46.256C83.002 48.432 84.442 50.192 86.794 50.192C88.186 50.192 89.242 49.776 90.122 48.64L89.178 47.904ZM84.346 45.584C84.506 44.32 85.418 43.472 86.794 43.472C88.17 43.472 89.002 44.32 89.05 45.584H84.346ZM92.3246 50H93.5726V46.352C93.5726 44.64 94.2446 43.568 95.7646 43.568C95.9886 43.568 96.2286 43.6 96.4366 43.664L96.5166 42.4C96.3406 42.336 96.1646 42.32 96.0046 42.32C94.7726 42.32 93.8446 43.008 93.5086 43.744H93.4766C93.4766 43.328 93.4446 42.912 93.4446 42.512H92.2606C92.2606 43.008 92.3246 43.6 92.3246 44.288V50Z" fill="#9EA6B5"/>
<rect x="0.5" y="28.5" width="319" height="35" rx="3.5" stroke="#9EA6B5"/>
<path d="M9.008 84.672H0.176V85.92H3.92V96H5.264V85.92H9.008V84.672ZM10.3715 96H11.6195V92.352C11.6195 90.64 12.3235 89.472 13.9395 89.472C15.1075 89.472 15.6515 90.256 15.6515 91.504V96H16.8995V91.376C16.8995 89.568 16.0195 88.32 14.0515 88.32C12.8835 88.32 11.9875 88.96 11.6515 89.552H11.6195V83.904H10.3715V96ZM19.2621 96H20.5101V92.352C20.5101 90.64 21.1821 89.568 22.7021 89.568C22.9261 89.568 23.1661 89.6 23.3741 89.664L23.4541 88.4C23.2781 88.336 23.1021 88.32 22.9421 88.32C21.7101 88.32 20.7821 89.008 20.4461 89.744H20.4141C20.4141 89.328 20.3821 88.912 20.3821 88.512H19.1981C19.1981 89.008 19.2621 89.6 19.2621 90.288V96ZM30.3499 93.904C29.7579 94.656 29.0379 95.04 27.9659 95.04C26.6059 95.04 25.6139 93.936 25.5179 92.64H31.5659V92.24C31.5659 89.76 30.1259 88.32 28.0139 88.32C25.8059 88.32 24.1739 89.936 24.1739 92.256C24.1739 94.432 25.6139 96.192 27.9659 96.192C29.3579 96.192 30.4139 95.776 31.2939 94.64L30.3499 93.904ZM25.5179 91.584C25.6779 90.32 26.5899 89.472 27.9659 89.472C29.3419 89.472 30.1739 90.32 30.2219 91.584H25.5179ZM32.6645 94.8C33.4005 95.856 34.3125 96.192 35.5765 96.192C37.0645 96.192 38.5685 95.536 38.5685 93.84C38.5685 92.336 37.4485 91.856 36.1205 91.6C35.1285 91.408 34.2325 91.136 34.2325 90.512C34.2325 89.808 35.0165 89.472 35.7045 89.472C36.4405 89.472 36.9685 89.84 37.2885 90.368L38.3285 89.68C37.8165 88.72 36.8405 88.32 35.7845 88.32C34.3925 88.32 32.9845 89.072 32.9845 90.528C32.9845 92.08 34.2005 92.384 35.6245 92.704C36.4245 92.88 37.2245 93.088 37.2245 93.888C37.2245 94.704 36.3605 95.04 35.5765 95.04C34.6965 95.04 34.1525 94.64 33.6565 94.032L32.6645 94.8ZM40.309 96H41.557V92.352C41.557 90.64 42.261 89.472 43.877 89.472C45.045 89.472 45.589 90.256 45.589 91.504V96H46.837V91.376C46.837 89.568 45.957 88.32 43.989 88.32C42.821 88.32 41.925 88.96 41.589 89.552H41.557V83.904H40.309V96ZM48.7676 92.256C48.7676 94.592 50.4636 96.192 52.7676 96.192C55.0716 96.192 56.7676 94.592 56.7676 92.256C56.7676 89.92 55.0716 88.32 52.7676 88.32C50.4636 88.32 48.7676 89.92 48.7676 92.256ZM50.1116 92.256C50.1116 90.688 51.1516 89.472 52.7676 89.472C54.3836 89.472 55.4236 90.688 55.4236 92.256C55.4236 93.824 54.3836 95.04 52.7676 95.04C51.1516 95.04 50.1116 93.824 50.1116 92.256ZM58.8116 96H60.0596V83.904H58.8116V96ZM68.7674 96H70.0154V83.904H68.7674V89.6H68.7354C68.0474 88.8 67.1354 88.32 66.0474 88.32C63.6954 88.32 62.1114 89.984 62.1114 92.256C62.1114 94.496 63.7594 96.192 65.8554 96.192C67.1994 96.192 68.2714 95.52 68.7354 94.672H68.7674V96ZM68.7674 92.256C68.7674 93.824 67.7274 95.04 66.1114 95.04C64.4954 95.04 63.4554 93.824 63.4554 92.256C63.4554 90.688 64.4954 89.472 66.1114 89.472C67.7274 89.472 68.7674 90.688 68.7674 92.256ZM73.3646 88.32C72.8366 88.32 72.4046 88.752 72.4046 89.28C72.4046 89.808 72.8686 90.24 73.3646 90.24C73.8606 90.24 74.3246 89.808 74.3246 89.28C74.3246 88.752 73.8926 88.32 73.3646 88.32ZM73.3646 94.176C72.8366 94.176 72.4046 94.608 72.4046 95.136C72.4046 95.664 72.8686 96.096 73.3646 96.096C73.8606 96.096 74.3246 95.664 74.3246 95.136C74.3246 94.608 73.8926 94.176 73.3646 94.176ZM87.7269 84.672H80.8149V85.92H86.2869L81.6789 96H83.1989L87.7269 85.92V84.672ZM89.5455 90.336C89.5455 92.912 90.2655 96.192 93.3855 96.192C96.5055 96.192 97.2255 92.912 97.2255 90.336C97.2255 87.76 96.5055 84.48 93.3855 84.48C90.2655 84.48 89.5455 87.76 89.5455 90.336ZM90.8895 90.336C90.8895 88.672 91.1455 85.632 93.3855 85.632C95.6255 85.632 95.8815 88.672 95.8815 90.336C95.8815 92 95.6255 95.04 93.3855 95.04C91.1455 95.04 90.8895 92 90.8895 90.336Z" fill="#333333"/>
<rect y="118" width="320" height="4" rx="2" fill="#D2D6DD"/>
<rect y="118" width="224" height="4" rx="2" fill="#9EA6B5"/>
<circle cx="216" cy="120" r="7" fill="white" stroke="#9EA6B5" stroke-width="2"/>
<rect x="0.5" y="148.5" width="319" height="42" rx="7.5" fill="#6C3078"/>
<path d="M142.764 173.5H144.78V164.812H144.812L150.412 173.5H152.972V162.172H150.956V170.588H150.924L145.436 162.172H142.764V173.5ZM162.714 170.332V169.804C162.714 167.132 161.258 165.628 159.114 165.628C156.794 165.628 154.938 167.244 154.938 169.66C154.938 172.076 156.794 173.692 159.114 173.692C160.33 173.692 161.466 173.26 162.362 172.156L160.986 171.116C160.506 171.708 159.882 172.156 158.922 172.156C157.85 172.156 156.986 171.468 156.858 170.332H162.714ZM156.858 168.892C157.002 167.788 157.706 167.068 158.842 167.068C160.042 167.068 160.778 167.772 160.794 168.892H156.858ZM163.406 173.5H165.678L167.694 170.748L169.694 173.5H172.03L168.942 169.372L171.566 165.82H169.374L167.71 168.124L166.174 165.82H163.838L166.494 169.372L163.406 173.5ZM173.792 167.452V170.972C173.792 172.78 174.272 173.692 176.304 173.692C176.752 173.692 177.424 173.628 177.824 173.436V171.82C177.584 171.996 177.12 172.06 176.784 172.06C175.936 172.06 175.712 171.58 175.712 170.812V167.452H177.824V165.82H175.712V163.596H173.792V165.82H172.208V167.452H173.792Z" fill="white"/>
<rect x="0.5" y="148.5" width="319" height="42" rx="7.5" stroke="#6C3078"/>
<defs>
<clipPath id="clip0_23_5993">
<rect width="73" height="24" fill="white"/>
</clipPath>
</defs>
</svg>
