<svg width="656" height="295" viewBox="0 0 656 295" fill="none" xmlns="http://www.w3.org/2000/svg">
<path d="M1.106 12H4.802C7.182 12 10.052 10.432 10.052 7.044C10.052 3.684 7.616 2.088 5.012 2.088H1.106V12ZM2.87 10.404V3.684H4.48C6.636 3.684 8.204 4.636 8.204 7.044C8.204 9.452 6.398 10.404 4.186 10.404H2.87ZM18.043 9.228V8.766C18.043 6.428 16.769 5.112 14.893 5.112C12.863 5.112 11.239 6.526 11.239 8.64C11.239 10.754 12.863 12.168 14.893 12.168C15.957 12.168 16.951 11.79 17.735 10.824L16.531 9.914C16.111 10.432 15.565 10.824 14.725 10.824C13.787 10.824 13.031 10.222 12.919 9.228H18.043ZM12.919 7.968C13.045 7.002 13.661 6.372 14.655 6.372C15.705 6.372 16.349 6.988 16.363 7.968H12.919ZM20.2161 12H21.8961V6.708H23.4501V5.28H21.8961V4.062C21.8961 3.32 22.0361 2.676 22.9741 2.676C23.2121 2.676 23.4361 2.718 23.6741 2.774L23.7861 1.346C23.4361 1.276 23.0861 1.248 22.7221 1.248C20.6361 1.248 20.2161 2.466 20.2161 4.328V5.28H18.8301V6.708H20.2161V12ZM28.736 12H30.248V8.136C30.248 7.184 30.248 5.112 27.378 5.112C26.314 5.112 25.264 5.434 24.522 6.19L25.404 7.072C25.852 6.652 26.496 6.372 27.196 6.372C28.092 6.372 28.736 6.806 28.736 7.632V7.814H28.316C26.636 7.814 24.088 7.968 24.088 10.152C24.088 11.482 25.292 12.168 26.538 12.168C27.434 12.168 28.218 11.832 28.694 11.076H28.736V12ZM28.638 9.368C28.638 10.306 28.092 10.908 26.944 10.908C26.398 10.908 25.768 10.642 25.768 10.026C25.768 9.06 27.364 8.99 28.288 8.99H28.638V9.368ZM38.1875 5.28H36.5075V8.948C36.5075 9.844 36.0735 10.656 34.9675 10.656C33.7915 10.656 33.7355 9.424 33.7355 8.682V5.28H32.0555V9.522C32.0555 10.894 32.6995 12.168 34.5055 12.168C35.6255 12.168 36.2555 11.594 36.5635 10.922H36.5915V12H38.1875V5.28ZM40.1226 12H41.8026V1.416H40.1226V12ZM44.3333 6.708V9.788C44.3333 11.37 44.7533 12.168 46.5313 12.168C46.9233 12.168 47.5113 12.112 47.8613 11.944V10.53C47.6513 10.684 47.2453 10.74 46.9513 10.74C46.2093 10.74 46.0133 10.32 46.0133 9.648V6.708H47.8613V5.28H46.0133V3.334H44.3333V5.28H42.9473V6.708H44.3333Z" fill="black"/>
<path d="M1.408 43H4.784C6.88 43 9.2 42.328 9.2 39.832C9.2 38.344 8.096 37.176 6.64 37.048V37.016C7.856 36.648 8.624 35.768 8.624 34.456C8.624 32.376 6.736 31.672 4.864 31.672H1.408V43ZM2.752 32.92H4.752C5.968 32.92 7.184 33.24 7.184 34.632C7.184 36.2 5.872 36.472 4.608 36.472H2.752V32.92ZM2.752 37.72H5.056C6.416 37.72 7.76 38.2 7.76 39.784C7.76 41.224 6.336 41.752 5.024 41.752H2.752V37.72ZM11.9501 37.288C12.5421 36.744 13.3741 36.472 14.1741 36.472C15.3421 36.472 16.0301 37.032 16.0301 38.12V38.344H15.5501C13.7101 38.344 10.8301 38.488 10.8301 40.968C10.8301 42.424 12.0941 43.192 13.6141 43.192C14.7501 43.192 15.5821 42.648 16.0781 41.88H16.1101C16.1101 42.2 16.1101 42.664 16.1901 43H17.3901C17.3261 42.616 17.2781 42.136 17.2781 41.704V38.488C17.2781 36.376 16.3501 35.32 14.1421 35.32C13.0541 35.32 11.9341 35.688 11.1661 36.472L11.9501 37.288ZM16.0301 39.4V39.88C15.9981 41.096 15.2621 42.136 13.8221 42.136C12.8781 42.136 12.1741 41.784 12.1741 40.84C12.1741 39.832 13.1981 39.4 14.7821 39.4H16.0301ZM18.727 41.8C19.463 42.856 20.375 43.192 21.639 43.192C23.127 43.192 24.631 42.536 24.631 40.84C24.631 39.336 23.511 38.856 22.183 38.6C21.191 38.408 20.295 38.136 20.295 37.512C20.295 36.808 21.079 36.472 21.767 36.472C22.503 36.472 23.031 36.84 23.351 37.368L24.391 36.68C23.879 35.72 22.903 35.32 21.847 35.32C20.455 35.32 19.047 36.072 19.047 37.528C19.047 39.08 20.263 39.384 21.687 39.704C22.487 39.88 23.287 40.088 23.287 40.888C23.287 41.704 22.423 42.04 21.639 42.04C20.759 42.04 20.215 41.64 19.719 41.032L18.727 41.8ZM26.4835 43H27.7315V35.512H26.4835V43ZM26.1955 32.584C26.1955 33.112 26.5795 33.496 27.1075 33.496C27.6355 33.496 28.0195 33.112 28.0195 32.584C28.0195 32.088 27.6195 31.672 27.1075 31.672C26.5955 31.672 26.1955 32.088 26.1955 32.584ZM36.5353 36.504C35.7833 35.688 34.7593 35.32 33.6553 35.32C31.3513 35.32 29.7833 36.984 29.7833 39.256C29.7833 41.56 31.3353 43.192 33.6553 43.192C34.7433 43.192 35.7673 42.824 36.4873 41.992L35.5593 41.112C35.0953 41.752 34.4713 42.04 33.6553 42.04C32.1353 42.04 31.1273 40.792 31.1273 39.256C31.1273 37.72 31.9753 36.472 33.6553 36.472C34.4073 36.472 35.0153 36.744 35.5433 37.384L36.5353 36.504ZM38.974 35.32C38.446 35.32 38.014 35.752 38.014 36.28C38.014 36.808 38.478 37.24 38.974 37.24C39.47 37.24 39.934 36.808 39.934 36.28C39.934 35.752 39.502 35.32 38.974 35.32ZM38.974 41.176C38.446 41.176 38.014 41.608 38.014 42.136C38.014 42.664 38.478 43.096 38.974 43.096C39.47 43.096 39.934 42.664 39.934 42.136C39.934 41.608 39.502 41.176 38.974 41.176ZM53.3363 31.672H46.4243V32.92H51.8963L47.2883 43H48.8083L53.3363 32.92V31.672ZM55.1549 37.336C55.1549 39.912 55.8749 43.192 58.9949 43.192C62.1149 43.192 62.8349 39.912 62.8349 37.336C62.8349 34.76 62.1149 31.48 58.9949 31.48C55.8749 31.48 55.1549 34.76 55.1549 37.336ZM56.4989 37.336C56.4989 35.672 56.7549 32.632 58.9949 32.632C61.2349 32.632 61.4909 35.672 61.4909 37.336C61.4909 39 61.2349 42.04 58.9949 42.04C56.7549 42.04 56.4989 39 56.4989 37.336Z" fill="#333333"/>
<rect y="65" width="320" height="4" rx="2" fill="#D2D6DD"/>
<rect y="65" width="224" height="4" rx="2" fill="#9EA6B5"/>
<circle cx="216" cy="67" r="6" fill="white" stroke="#9EA6B5" stroke-width="4"/>
<path d="M1.106 107H2.87V102.8H4.158L6.454 107H8.582L5.95 102.618C7.42 102.408 8.246 101.358 8.246 99.93C8.246 97.704 6.454 97.088 4.55 97.088H1.106V107ZM2.87 101.288V98.6H4.396C5.306 98.6 6.398 98.74 6.398 99.916C6.398 101.204 5.236 101.288 4.242 101.288H2.87ZM13.9704 107H15.4824V103.136C15.4824 102.184 15.4824 100.112 12.6124 100.112C11.5484 100.112 10.4984 100.434 9.75636 101.19L10.6384 102.072C11.0864 101.652 11.7304 101.372 12.4304 101.372C13.3264 101.372 13.9704 101.806 13.9704 102.632V102.814H13.5504C11.8704 102.814 9.32236 102.968 9.32236 105.152C9.32236 106.482 10.5264 107.168 11.7724 107.168C12.6684 107.168 13.4524 106.832 13.9284 106.076H13.9704V107ZM13.8724 104.368C13.8724 105.306 13.3264 105.908 12.1784 105.908C11.6324 105.908 11.0024 105.642 11.0024 105.026C11.0024 104.06 12.5984 103.99 13.5224 103.99H13.8724V104.368ZM17.2899 107H18.9699V103.332C18.9699 102.436 19.4039 101.624 20.5099 101.624C21.6859 101.624 21.7419 102.856 21.7419 103.598V107H23.4219V102.758C23.4219 101.386 22.7779 100.112 20.9719 100.112C19.8519 100.112 19.2219 100.686 18.9139 101.358H18.8859V100.28H17.2899V107ZM30.649 100.28V101.288H30.621C30.131 100.476 29.249 100.112 28.311 100.112C26.239 100.112 24.993 101.652 24.993 103.64C24.993 105.544 26.323 107.084 28.339 107.084C29.179 107.084 30.047 106.762 30.537 106.104H30.565V106.594C30.565 107.924 30.061 108.848 28.437 108.848C27.499 108.848 26.799 108.498 26.127 107.882L25.119 109.254C26.071 110.094 27.205 110.36 28.451 110.36C31.069 110.36 32.245 108.82 32.245 106.398V100.28H30.649ZM28.661 101.624C29.879 101.624 30.649 102.436 30.649 103.598C30.649 104.718 29.893 105.572 28.647 105.572C27.513 105.572 26.673 104.69 26.673 103.626C26.673 102.436 27.485 101.624 28.661 101.624ZM40.6153 104.228V103.766C40.6153 101.428 39.3413 100.112 37.4653 100.112C35.4353 100.112 33.8113 101.526 33.8113 103.64C33.8113 105.754 35.4353 107.168 37.4653 107.168C38.5293 107.168 39.5233 106.79 40.3073 105.824L39.1033 104.914C38.6833 105.432 38.1373 105.824 37.2973 105.824C36.3593 105.824 35.6033 105.222 35.4913 104.228H40.6153ZM35.4913 102.968C35.6173 102.002 36.2333 101.372 37.2273 101.372C38.2773 101.372 38.9213 101.988 38.9353 102.968H35.4913Z" fill="black"/>
<path d="M1.408 138H2.752V132.912H4.48L7.552 138H9.2L5.984 132.784C7.744 132.512 8.816 131.44 8.816 129.792C8.816 126.992 6.496 126.672 4.304 126.672H1.408V138ZM2.752 127.92H4.64C5.952 127.92 7.376 128.16 7.376 129.792C7.376 131.664 5.44 131.664 3.952 131.664H2.752V127.92ZM11.6533 132.288C12.2453 131.744 13.0773 131.472 13.8773 131.472C15.0453 131.472 15.7333 132.032 15.7333 133.12V133.344H15.2533C13.4133 133.344 10.5333 133.488 10.5333 135.968C10.5333 137.424 11.7973 138.192 13.3173 138.192C14.4533 138.192 15.2853 137.648 15.7813 136.88H15.8133C15.8133 137.2 15.8133 137.664 15.8933 138H17.0933C17.0293 137.616 16.9813 137.136 16.9813 136.704V133.488C16.9813 131.376 16.0533 130.32 13.8453 130.32C12.7573 130.32 11.6373 130.688 10.8693 131.472L11.6533 132.288ZM15.7333 134.4V134.88C15.7013 136.096 14.9653 137.136 13.5253 137.136C12.5813 137.136 11.8773 136.784 11.8773 135.84C11.8773 134.832 12.9013 134.4 14.4852 134.4H15.7333ZM19.2621 138H20.5101V134.352C20.5101 132.64 21.2141 131.472 22.8301 131.472C23.9981 131.472 24.5421 132.256 24.5421 133.504V138H25.7901V133.376C25.7901 131.568 24.9101 130.32 22.9421 130.32C21.7101 130.32 20.7821 131.008 20.4461 131.744H20.4141C20.4141 131.328 20.3821 130.912 20.3821 130.512H19.1981C19.1981 131.008 19.2621 131.6 19.2621 132.288V138ZM35.6248 130.512H34.3768V131.792H34.3448C33.8488 130.8 32.7128 130.32 31.7048 130.32C29.3207 130.32 27.7208 131.808 27.7208 134.256C27.7208 136.464 29.3528 138.096 31.7048 138.096C32.6968 138.096 33.7528 137.664 34.3448 136.704H34.3768V137.664C34.3768 139.248 33.7848 140.688 31.5448 140.688C30.3928 140.688 29.5448 140.24 28.7608 139.392L27.8648 140.416C28.9208 141.456 30.0888 141.84 31.5448 141.84C34.1688 141.84 35.6248 140.368 35.6248 137.664V130.512ZM29.0648 134.256C29.0648 132.688 30.1368 131.472 31.7048 131.472C33.2888 131.472 34.3768 132.608 34.3768 134.224C34.3768 135.664 33.4168 136.944 31.7048 136.944C30.2488 136.944 29.0648 135.776 29.0648 134.256ZM43.678 135.904C43.086 136.656 42.366 137.04 41.294 137.04C39.934 137.04 38.942 135.936 38.846 134.64H44.894V134.24C44.894 131.76 43.454 130.32 41.342 130.32C39.134 130.32 37.502 131.936 37.502 134.256C37.502 136.432 38.942 138.192 41.294 138.192C42.686 138.192 43.742 137.776 44.622 136.64L43.678 135.904ZM38.846 133.584C39.006 132.32 39.918 131.472 41.294 131.472C42.67 131.472 43.502 132.32 43.55 133.584H38.846ZM47.8646 130.32C47.3366 130.32 46.9046 130.752 46.9046 131.28C46.9046 131.808 47.3686 132.24 47.8646 132.24C48.3606 132.24 48.8246 131.808 48.8246 131.28C48.8246 130.752 48.3926 130.32 47.8646 130.32ZM47.8646 136.176C47.3366 136.176 46.9046 136.608 46.9046 137.136C46.9046 137.664 47.3686 138.096 47.8646 138.096C48.3606 138.096 48.8246 137.664 48.8246 137.136C48.8246 136.608 48.3926 136.176 47.8646 136.176ZM57.6349 126.288H54.9949V140.496H57.6349V139.536H56.1469V127.248H57.6349V126.288ZM59.2955 132.336C59.2955 134.912 60.0155 138.192 63.1355 138.192C66.2555 138.192 66.9755 134.912 66.9755 132.336C66.9755 129.76 66.2555 126.48 63.1355 126.48C60.0155 126.48 59.2955 129.76 59.2955 132.336ZM60.6395 132.336C60.6395 130.672 60.8955 127.632 63.1355 127.632C65.3755 127.632 65.6315 130.672 65.6315 132.336C65.6315 134 65.3755 137.04 63.1355 137.04C60.8955 137.04 60.6395 134 60.6395 132.336ZM70.9541 136.368H69.4981L68.4101 140.208H69.6421L70.9541 136.368ZM79.7484 132.624H80.1644C81.5564 132.624 83.0284 133.152 83.0284 134.816C83.0284 136.128 82.0044 137.04 80.7244 137.04C79.4764 137.04 78.8204 136.576 78.4364 135.36L77.0764 135.808C77.6524 137.488 79.0124 138.192 80.7244 138.192C82.7404 138.192 84.4684 137.072 84.4684 134.912C84.4684 133.488 83.5884 132.304 82.1484 132.064V132.032C83.2844 131.68 84.0844 130.624 84.0844 129.44C84.0844 127.488 82.5164 126.48 80.7084 126.48C79.2684 126.48 77.9724 127.12 77.4284 128.4L78.7244 128.896C79.1244 128.064 79.8604 127.632 80.8044 127.632C81.9404 127.632 82.7404 128.352 82.7404 129.504C82.7404 131.216 81.2844 131.472 80.1644 131.472H79.7484V132.624ZM85.983 132.336C85.983 134.912 86.703 138.192 89.823 138.192C92.943 138.192 93.663 134.912 93.663 132.336C93.663 129.76 92.943 126.48 89.823 126.48C86.703 126.48 85.983 129.76 85.983 132.336ZM87.327 132.336C87.327 130.672 87.583 127.632 89.823 127.632C92.063 127.632 92.319 130.672 92.319 132.336C92.319 134 92.063 137.04 89.823 137.04C87.583 137.04 87.327 134 87.327 132.336ZM95.3216 127.248H96.8096V139.536H95.3216V140.496H97.9616V126.288H95.3216V127.248Z" fill="#333333"/>
<rect y="160" width="320" height="4" rx="2" fill="#D2D6DD"/>
<circle cx="8" cy="162" r="6" fill="white" stroke="#9EA6B5" stroke-width="4"/>
<rect x="12" y="160" width="72" height="4" rx="2" fill="#9EA6B5"/>
<circle cx="88" cy="162" r="6" fill="white" stroke="#9EA6B5" stroke-width="4"/>
<path d="M1.064 202H2.828V192.088H1.064V202ZM4.84848 202H6.52848V198.332C6.52848 197.436 6.96248 196.624 8.06848 196.624C9.24448 196.624 9.30048 197.856 9.30048 198.598V202H10.9805V197.758C10.9805 196.386 10.3365 195.112 8.53048 195.112C7.41048 195.112 6.78048 195.686 6.47248 196.358H6.44448V195.28H4.84848V202ZM12.8875 205.192H14.5675V201.146H14.6095C14.9595 201.58 15.6315 202.168 16.8915 202.168C18.8095 202.168 20.1395 200.628 20.1395 198.64C20.1395 196.652 18.8935 195.112 16.8215 195.112C15.8835 195.112 15.0015 195.476 14.5115 196.288H14.4835V195.28H12.8875V205.192ZM18.4595 198.64C18.4595 199.69 17.7175 200.656 16.4855 200.656C15.2535 200.656 14.5115 199.69 14.5115 198.64C14.5115 197.59 15.2535 196.624 16.4855 196.624C17.7175 196.624 18.4595 197.59 18.4595 198.64ZM27.8379 195.28H26.1579V198.948C26.1579 199.844 25.7239 200.656 24.6179 200.656C23.4419 200.656 23.3859 199.424 23.3859 198.682V195.28H21.7059V199.522C21.7059 200.894 22.3499 202.168 24.1559 202.168C25.2759 202.168 25.9059 201.594 26.2139 200.922H26.2419V202H27.8379V195.28ZM30.347 196.708V199.788C30.347 201.37 30.767 202.168 32.545 202.168C32.937 202.168 33.525 202.112 33.875 201.944V200.53C33.665 200.684 33.259 200.74 32.965 200.74C32.223 200.74 32.027 200.32 32.027 199.648V196.708H33.875V195.28H32.027V193.334H30.347V195.28H28.961V196.708H30.347Z" fill="black"/>
<path d="M1.408 233H2.752V221.672H1.408V233ZM5.34025 233H6.58825V229.352C6.58825 227.64 7.29225 226.472 8.90825 226.472C10.0763 226.472 10.6203 227.256 10.6203 228.504V233H11.8683V228.376C11.8683 226.568 10.9883 225.32 9.02025 225.32C7.78825 225.32 6.86025 226.008 6.52425 226.744H6.49225C6.49225 226.328 6.46025 225.912 6.46025 225.512H5.27625C5.27625 226.008 5.34025 226.6 5.34025 227.288V233ZM14.1669 236.648H15.4149V231.672H15.4469C15.9109 232.52 16.9829 233.192 18.3269 233.192C20.4229 233.192 22.0709 231.496 22.0709 229.256C22.0709 226.984 20.4869 225.32 18.1349 225.32C17.0469 225.32 16.1349 225.8 15.4469 226.6H15.4149V225.512H14.1669V236.648ZM15.4149 229.256C15.4149 227.688 16.4549 226.472 18.0709 226.472C19.6869 226.472 20.7269 227.688 20.7269 229.256C20.7269 230.824 19.6869 232.04 18.0709 232.04C16.4549 232.04 15.4149 230.824 15.4149 229.256ZM30.5401 225.512H29.2921V229.16C29.2921 230.872 28.5881 232.04 26.9721 232.04C25.8041 232.04 25.2601 231.256 25.2601 230.008V225.512H24.0121V230.136C24.0121 231.944 24.8921 233.192 26.8601 233.192C28.0921 233.192 29.0201 232.504 29.3561 231.768H29.3881C29.3881 232.184 29.4201 232.6 29.4201 233H30.6041C30.6041 232.504 30.5401 231.912 30.5401 231.224V225.512ZM36.9988 225.512H34.7908V223.384H33.5428V225.512H31.9108V226.568H33.5428V230.68C33.5428 232.232 33.8307 233.192 35.6068 233.192C36.0708 233.192 36.6308 233.112 37.0628 232.92L37.0148 231.784C36.6788 231.96 36.2788 232.04 35.9108 232.04C34.8068 232.04 34.7908 231.272 34.7908 230.312V226.568H36.9988V225.512ZM39.5678 225.32C39.0398 225.32 38.6078 225.752 38.6078 226.28C38.6078 226.808 39.0718 227.24 39.5678 227.24C40.0638 227.24 40.5278 226.808 40.5278 226.28C40.5278 225.752 40.0958 225.32 39.5678 225.32ZM39.5678 231.176C39.0398 231.176 38.6078 231.608 38.6078 232.136C38.6078 232.664 39.0718 233.096 39.5678 233.096C40.0638 233.096 40.5278 232.664 40.5278 232.136C40.5278 231.608 40.0958 231.176 39.5678 231.176ZM49.514 227.624H49.93C51.322 227.624 52.794 228.152 52.794 229.816C52.794 231.128 51.77 232.04 50.49 232.04C49.242 232.04 48.586 231.576 48.202 230.36L46.842 230.808C47.418 232.488 48.778 233.192 50.49 233.192C52.506 233.192 54.234 232.072 54.234 229.912C54.234 228.488 53.354 227.304 51.914 227.064V227.032C53.05 226.68 53.85 225.624 53.85 224.44C53.85 222.488 52.282 221.48 50.474 221.48C49.034 221.48 47.738 222.12 47.194 223.4L48.49 223.896C48.89 223.064 49.626 222.632 50.57 222.632C51.706 222.632 52.506 223.352 52.506 224.504C52.506 226.216 51.05 226.472 49.93 226.472H49.514V227.624ZM55.7486 227.336C55.7486 229.912 56.4686 233.192 59.5886 233.192C62.7086 233.192 63.4286 229.912 63.4286 227.336C63.4286 224.76 62.7086 221.48 59.5886 221.48C56.4686 221.48 55.7486 224.76 55.7486 227.336ZM57.0926 227.336C57.0926 225.672 57.3486 222.632 59.5886 222.632C61.8286 222.632 62.0846 225.672 62.0846 227.336C62.0846 229 61.8286 232.04 59.5886 232.04C57.3486 232.04 57.0926 229 57.0926 227.336Z" fill="#333333"/>
<rect x="0.5" y="245.5" width="319" height="35" rx="3.5" fill="white"/>
<path opacity="0.5" d="M15.264 261.624H15.68C17.072 261.624 18.544 262.152 18.544 263.816C18.544 265.128 17.52 266.04 16.24 266.04C14.992 266.04 14.336 265.576 13.952 264.36L12.592 264.808C13.168 266.488 14.528 267.192 16.24 267.192C18.256 267.192 19.984 266.072 19.984 263.912C19.984 262.488 19.104 261.304 17.664 261.064V261.032C18.8 260.68 19.6 259.624 19.6 258.44C19.6 256.488 18.032 255.48 16.224 255.48C14.784 255.48 13.488 256.12 12.944 257.4L14.24 257.896C14.64 257.064 15.376 256.632 16.32 256.632C17.456 256.632 18.256 257.352 18.256 258.504C18.256 260.216 16.8 260.472 15.68 260.472H15.264V261.624ZM21.4986 261.336C21.4986 263.912 22.2186 267.192 25.3386 267.192C28.4586 267.192 29.1786 263.912 29.1786 261.336C29.1786 258.76 28.4586 255.48 25.3386 255.48C22.2186 255.48 21.4986 258.76 21.4986 261.336ZM22.8426 261.336C22.8426 259.672 23.0986 256.632 25.3386 256.632C27.5786 256.632 27.8346 259.672 27.8346 261.336C27.8346 263 27.5786 266.04 25.3386 266.04C23.0986 266.04 22.8426 263 22.8426 261.336Z" fill="#9EA6B5"/>
<rect x="0.5" y="245.5" width="319" height="35" rx="3.5" stroke="#9EA6B5"/>
<rect y="281" width="320" height="4" rx="2" fill="#D2D6DD"/>
<rect y="281" width="134" height="4" rx="2" fill="#9EA6B5"/>
<circle cx="138" cy="283" r="6" fill="white" stroke="#9EA6B5" stroke-width="4"/>
<path d="M337.106 12H340.802C343.182 12 346.052 10.432 346.052 7.044C346.052 3.684 343.616 2.088 341.012 2.088H337.106V12ZM338.87 10.404V3.684H340.48C342.636 3.684 344.204 4.636 344.204 7.044C344.204 9.452 342.398 10.404 340.186 10.404H338.87ZM354.043 9.228V8.766C354.043 6.428 352.769 5.112 350.893 5.112C348.863 5.112 347.239 6.526 347.239 8.64C347.239 10.754 348.863 12.168 350.893 12.168C351.957 12.168 352.951 11.79 353.735 10.824L352.531 9.914C352.111 10.432 351.565 10.824 350.725 10.824C349.787 10.824 349.031 10.222 348.919 9.228H354.043ZM348.919 7.968C349.045 7.002 349.661 6.372 350.655 6.372C351.705 6.372 352.349 6.988 352.363 7.968H348.919ZM356.216 12H357.896V6.708H359.45V5.28H357.896V4.062C357.896 3.32 358.036 2.676 358.974 2.676C359.212 2.676 359.436 2.718 359.674 2.774L359.786 1.346C359.436 1.276 359.086 1.248 358.722 1.248C356.636 1.248 356.216 2.466 356.216 4.328V5.28H354.83V6.708H356.216V12ZM364.736 12H366.248V8.136C366.248 7.184 366.248 5.112 363.378 5.112C362.314 5.112 361.264 5.434 360.522 6.19L361.404 7.072C361.852 6.652 362.496 6.372 363.196 6.372C364.092 6.372 364.736 6.806 364.736 7.632V7.814H364.316C362.636 7.814 360.088 7.968 360.088 10.152C360.088 11.482 361.292 12.168 362.538 12.168C363.434 12.168 364.218 11.832 364.694 11.076H364.736V12ZM364.638 9.368C364.638 10.306 364.092 10.908 362.944 10.908C362.398 10.908 361.768 10.642 361.768 10.026C361.768 9.06 363.364 8.99 364.288 8.99H364.638V9.368ZM374.188 5.28H372.508V8.948C372.508 9.844 372.074 10.656 370.968 10.656C369.792 10.656 369.736 9.424 369.736 8.682V5.28H368.056V9.522C368.056 10.894 368.7 12.168 370.506 12.168C371.626 12.168 372.256 11.594 372.564 10.922H372.592V12H374.188V5.28ZM376.123 12H377.803V1.416H376.123V12ZM380.333 6.708V9.788C380.333 11.37 380.753 12.168 382.531 12.168C382.923 12.168 383.511 12.112 383.861 11.944V10.53C383.651 10.684 383.245 10.74 382.951 10.74C382.209 10.74 382.013 10.32 382.013 9.648V6.708H383.861V5.28H382.013V3.334H380.333V5.28H378.947V6.708H380.333ZM389.625 1.836L388.463 1.388L384.095 12.252L385.257 12.672L389.625 1.836ZM389.662 12H391.636L392.532 9.732H396.83L397.754 12H399.77L395.5 2.088H393.974L389.662 12ZM393.134 8.22L394.688 4.188L396.214 8.22H393.134ZM406.472 6.134C405.828 5.42 404.89 5.112 404.036 5.112C402.006 5.112 400.382 6.526 400.382 8.64C400.382 10.754 402.006 12.168 404.036 12.168C404.624 12.168 405.772 11.916 406.458 11.23L405.338 10.026C405.03 10.432 404.554 10.656 404.036 10.656C402.804 10.656 402.062 9.69 402.062 8.64C402.062 7.59 402.804 6.624 404.036 6.624C404.484 6.624 404.918 6.89 405.31 7.296L406.472 6.134ZM408.074 6.708V9.788C408.074 11.37 408.494 12.168 410.272 12.168C410.664 12.168 411.252 12.112 411.602 11.944V10.53C411.392 10.684 410.986 10.74 410.692 10.74C409.95 10.74 409.754 10.32 409.754 9.648V6.708H411.602V5.28H409.754V3.334H408.074V5.28H406.688V6.708H408.074ZM412.941 12H414.621V5.28H412.941V12ZM412.703 2.998C412.703 3.53 413.151 4.006 413.767 4.006C414.383 4.006 414.859 3.572 414.859 2.998C414.859 2.424 414.383 1.99 413.767 1.99C413.151 1.99 412.703 2.466 412.703 2.998ZM418.384 12H420.176L422.822 5.28H421.1L419.294 9.984H419.266L417.474 5.28H415.64L418.384 12ZM430.277 9.228V8.766C430.277 6.428 429.003 5.112 427.127 5.112C425.097 5.112 423.473 6.526 423.473 8.64C423.473 10.754 425.097 12.168 427.127 12.168C428.191 12.168 429.185 11.79 429.969 10.824L428.765 9.914C428.345 10.432 427.799 10.824 426.959 10.824C426.021 10.824 425.265 10.222 425.153 9.228H430.277ZM425.153 7.968C425.279 7.002 425.895 6.372 426.889 6.372C427.939 6.372 428.583 6.988 428.597 7.968H425.153Z" fill="black"/>
<path d="M337.408 43H340.784C342.88 43 345.2 42.328 345.2 39.832C345.2 38.344 344.096 37.176 342.64 37.048V37.016C343.856 36.648 344.624 35.768 344.624 34.456C344.624 32.376 342.736 31.672 340.864 31.672H337.408V43ZM338.752 32.92H340.752C341.968 32.92 343.184 33.24 343.184 34.632C343.184 36.2 341.872 36.472 340.608 36.472H338.752V32.92ZM338.752 37.72H341.056C342.416 37.72 343.76 38.2 343.76 39.784C343.76 41.224 342.336 41.752 341.024 41.752H338.752V37.72ZM347.95 37.288C348.542 36.744 349.374 36.472 350.174 36.472C351.342 36.472 352.03 37.032 352.03 38.12V38.344H351.55C349.71 38.344 346.83 38.488 346.83 40.968C346.83 42.424 348.094 43.192 349.614 43.192C350.75 43.192 351.582 42.648 352.078 41.88H352.11C352.11 42.2 352.11 42.664 352.19 43H353.39C353.326 42.616 353.278 42.136 353.278 41.704V38.488C353.278 36.376 352.35 35.32 350.142 35.32C349.054 35.32 347.934 35.688 347.166 36.472L347.95 37.288ZM352.03 39.4V39.88C351.998 41.096 351.262 42.136 349.822 42.136C348.878 42.136 348.174 41.784 348.174 40.84C348.174 39.832 349.198 39.4 350.782 39.4H352.03ZM354.727 41.8C355.463 42.856 356.375 43.192 357.639 43.192C359.127 43.192 360.631 42.536 360.631 40.84C360.631 39.336 359.511 38.856 358.183 38.6C357.191 38.408 356.295 38.136 356.295 37.512C356.295 36.808 357.079 36.472 357.767 36.472C358.503 36.472 359.031 36.84 359.351 37.368L360.391 36.68C359.879 35.72 358.903 35.32 357.847 35.32C356.455 35.32 355.047 36.072 355.047 37.528C355.047 39.08 356.263 39.384 357.687 39.704C358.487 39.88 359.287 40.088 359.287 40.888C359.287 41.704 358.423 42.04 357.639 42.04C356.759 42.04 356.215 41.64 355.719 41.032L354.727 41.8ZM362.484 43H363.732V35.512H362.484V43ZM362.196 32.584C362.196 33.112 362.58 33.496 363.108 33.496C363.636 33.496 364.02 33.112 364.02 32.584C364.02 32.088 363.62 31.672 363.108 31.672C362.596 31.672 362.196 32.088 362.196 32.584ZM372.535 36.504C371.783 35.688 370.759 35.32 369.655 35.32C367.351 35.32 365.783 36.984 365.783 39.256C365.783 41.56 367.335 43.192 369.655 43.192C370.743 43.192 371.767 42.824 372.487 41.992L371.559 41.112C371.095 41.752 370.471 42.04 369.655 42.04C368.135 42.04 367.127 40.792 367.127 39.256C367.127 37.72 367.975 36.472 369.655 36.472C370.407 36.472 371.015 36.744 371.543 37.384L372.535 36.504ZM374.974 35.32C374.446 35.32 374.014 35.752 374.014 36.28C374.014 36.808 374.478 37.24 374.974 37.24C375.47 37.24 375.934 36.808 375.934 36.28C375.934 35.752 375.502 35.32 374.974 35.32ZM374.974 41.176C374.446 41.176 374.014 41.608 374.014 42.136C374.014 42.664 374.478 43.096 374.974 43.096C375.47 43.096 375.934 42.664 375.934 42.136C375.934 41.608 375.502 41.176 374.974 41.176ZM389.336 31.672H382.424V32.92H387.896L383.288 43H384.808L389.336 32.92V31.672ZM391.155 37.336C391.155 39.912 391.875 43.192 394.995 43.192C398.115 43.192 398.835 39.912 398.835 37.336C398.835 34.76 398.115 31.48 394.995 31.48C391.875 31.48 391.155 34.76 391.155 37.336ZM392.499 37.336C392.499 35.672 392.755 32.632 394.995 32.632C397.235 32.632 397.491 35.672 397.491 37.336C397.491 39 397.235 42.04 394.995 42.04C392.755 42.04 392.499 39 392.499 37.336Z" fill="#333333"/>
<rect x="336" y="65" width="320" height="4" rx="2" fill="#EDE9ED"/>
<rect x="336" y="65" width="224" height="4" rx="2" fill="#6C3078"/>
<circle cx="552" cy="67" r="6" fill="white" stroke="#6C3078" stroke-width="4"/>
<path d="M337.106 107H338.87V102.8H340.158L342.454 107H344.582L341.95 102.618C343.42 102.408 344.246 101.358 344.246 99.93C344.246 97.704 342.454 97.088 340.55 97.088H337.106V107ZM338.87 101.288V98.6H340.396C341.306 98.6 342.398 98.74 342.398 99.916C342.398 101.204 341.236 101.288 340.242 101.288H338.87ZM349.97 107H351.482V103.136C351.482 102.184 351.482 100.112 348.612 100.112C347.548 100.112 346.498 100.434 345.756 101.19L346.638 102.072C347.086 101.652 347.73 101.372 348.43 101.372C349.326 101.372 349.97 101.806 349.97 102.632V102.814H349.55C347.87 102.814 345.322 102.968 345.322 105.152C345.322 106.482 346.526 107.168 347.772 107.168C348.668 107.168 349.452 106.832 349.928 106.076H349.97V107ZM349.872 104.368C349.872 105.306 349.326 105.908 348.178 105.908C347.632 105.908 347.002 105.642 347.002 105.026C347.002 104.06 348.598 103.99 349.522 103.99H349.872V104.368ZM353.29 107H354.97V103.332C354.97 102.436 355.404 101.624 356.51 101.624C357.686 101.624 357.742 102.856 357.742 103.598V107H359.422V102.758C359.422 101.386 358.778 100.112 356.972 100.112C355.852 100.112 355.222 100.686 354.914 101.358H354.886V100.28H353.29V107ZM366.649 100.28V101.288H366.621C366.131 100.476 365.249 100.112 364.311 100.112C362.239 100.112 360.993 101.652 360.993 103.64C360.993 105.544 362.323 107.084 364.339 107.084C365.179 107.084 366.047 106.762 366.537 106.104H366.565V106.594C366.565 107.924 366.061 108.848 364.437 108.848C363.499 108.848 362.799 108.498 362.127 107.882L361.119 109.254C362.071 110.094 363.205 110.36 364.451 110.36C367.069 110.36 368.245 108.82 368.245 106.398V100.28H366.649ZM364.661 101.624C365.879 101.624 366.649 102.436 366.649 103.598C366.649 104.718 365.893 105.572 364.647 105.572C363.513 105.572 362.673 104.69 362.673 103.626C362.673 102.436 363.485 101.624 364.661 101.624ZM376.615 104.228V103.766C376.615 101.428 375.341 100.112 373.465 100.112C371.435 100.112 369.811 101.526 369.811 103.64C369.811 105.754 371.435 107.168 373.465 107.168C374.529 107.168 375.523 106.79 376.307 105.824L375.103 104.914C374.683 105.432 374.137 105.824 373.297 105.824C372.359 105.824 371.603 105.222 371.491 104.228H376.615ZM371.491 102.968C371.617 102.002 372.233 101.372 373.227 101.372C374.277 101.372 374.921 101.988 374.935 102.968H371.491ZM382.638 96.836L381.476 96.388L377.108 107.252L378.27 107.672L382.638 96.836ZM382.676 107H384.65L385.546 104.732H389.844L390.768 107H392.784L388.514 97.088H386.988L382.676 107ZM386.148 103.22L387.702 99.188L389.228 103.22H386.148ZM399.485 101.134C398.841 100.42 397.903 100.112 397.049 100.112C395.019 100.112 393.395 101.526 393.395 103.64C393.395 105.754 395.019 107.168 397.049 107.168C397.637 107.168 398.785 106.916 399.471 106.23L398.351 105.026C398.043 105.432 397.567 105.656 397.049 105.656C395.817 105.656 395.075 104.69 395.075 103.64C395.075 102.59 395.817 101.624 397.049 101.624C397.497 101.624 397.931 101.89 398.323 102.296L399.485 101.134ZM401.087 101.708V104.788C401.087 106.37 401.507 107.168 403.285 107.168C403.677 107.168 404.265 107.112 404.615 106.944V105.53C404.405 105.684 403.999 105.74 403.705 105.74C402.963 105.74 402.767 105.32 402.767 104.648V101.708H404.615V100.28H402.767V98.334H401.087V100.28H399.701V101.708H401.087ZM405.955 107H407.635V100.28H405.955V107ZM405.717 97.998C405.717 98.53 406.165 99.006 406.781 99.006C407.397 99.006 407.873 98.572 407.873 97.998C407.873 97.424 407.397 96.99 406.781 96.99C406.165 96.99 405.717 97.466 405.717 97.998ZM411.397 107H413.189L415.835 100.28H414.113L412.307 104.984H412.279L410.487 100.28H408.653L411.397 107ZM423.291 104.228V103.766C423.291 101.428 422.017 100.112 420.141 100.112C418.111 100.112 416.487 101.526 416.487 103.64C416.487 105.754 418.111 107.168 420.141 107.168C421.205 107.168 422.199 106.79 422.983 105.824L421.779 104.914C421.359 105.432 420.813 105.824 419.973 105.824C419.035 105.824 418.279 105.222 418.167 104.228H423.291ZM418.167 102.968C418.293 102.002 418.909 101.372 419.903 101.372C420.953 101.372 421.597 101.988 421.611 102.968H418.167Z" fill="black"/>
<path d="M337.408 138H338.752V132.912H340.48L343.552 138H345.2L341.984 132.784C343.744 132.512 344.816 131.44 344.816 129.792C344.816 126.992 342.496 126.672 340.304 126.672H337.408V138ZM338.752 127.92H340.64C341.952 127.92 343.376 128.16 343.376 129.792C343.376 131.664 341.44 131.664 339.952 131.664H338.752V127.92ZM347.653 132.288C348.245 131.744 349.077 131.472 349.877 131.472C351.045 131.472 351.733 132.032 351.733 133.12V133.344H351.253C349.413 133.344 346.533 133.488 346.533 135.968C346.533 137.424 347.797 138.192 349.317 138.192C350.453 138.192 351.285 137.648 351.781 136.88H351.813C351.813 137.2 351.813 137.664 351.893 138H353.093C353.029 137.616 352.981 137.136 352.981 136.704V133.488C352.981 131.376 352.053 130.32 349.845 130.32C348.757 130.32 347.637 130.688 346.869 131.472L347.653 132.288ZM351.733 134.4V134.88C351.701 136.096 350.965 137.136 349.525 137.136C348.581 137.136 347.877 136.784 347.877 135.84C347.877 134.832 348.901 134.4 350.485 134.4H351.733ZM355.262 138H356.51V134.352C356.51 132.64 357.214 131.472 358.83 131.472C359.998 131.472 360.542 132.256 360.542 133.504V138H361.79V133.376C361.79 131.568 360.91 130.32 358.942 130.32C357.71 130.32 356.782 131.008 356.446 131.744H356.414C356.414 131.328 356.382 130.912 356.382 130.512H355.198C355.198 131.008 355.262 131.6 355.262 132.288V138ZM371.625 130.512H370.377V131.792H370.345C369.849 130.8 368.713 130.32 367.705 130.32C365.321 130.32 363.721 131.808 363.721 134.256C363.721 136.464 365.353 138.096 367.705 138.096C368.697 138.096 369.753 137.664 370.345 136.704H370.377V137.664C370.377 139.248 369.785 140.688 367.545 140.688C366.393 140.688 365.545 140.24 364.761 139.392L363.865 140.416C364.921 141.456 366.089 141.84 367.545 141.84C370.169 141.84 371.625 140.368 371.625 137.664V130.512ZM365.065 134.256C365.065 132.688 366.137 131.472 367.705 131.472C369.289 131.472 370.377 132.608 370.377 134.224C370.377 135.664 369.417 136.944 367.705 136.944C366.249 136.944 365.065 135.776 365.065 134.256ZM379.678 135.904C379.086 136.656 378.366 137.04 377.294 137.04C375.934 137.04 374.942 135.936 374.846 134.64H380.894V134.24C380.894 131.76 379.454 130.32 377.342 130.32C375.134 130.32 373.502 131.936 373.502 134.256C373.502 136.432 374.942 138.192 377.294 138.192C378.686 138.192 379.742 137.776 380.622 136.64L379.678 135.904ZM374.846 133.584C375.006 132.32 375.918 131.472 377.294 131.472C378.67 131.472 379.502 132.32 379.55 133.584H374.846ZM383.865 130.32C383.337 130.32 382.905 130.752 382.905 131.28C382.905 131.808 383.369 132.24 383.865 132.24C384.361 132.24 384.825 131.808 384.825 131.28C384.825 130.752 384.393 130.32 383.865 130.32ZM383.865 136.176C383.337 136.176 382.905 136.608 382.905 137.136C382.905 137.664 383.369 138.096 383.865 138.096C384.361 138.096 384.825 137.664 384.825 137.136C384.825 136.608 384.393 136.176 383.865 136.176ZM393.635 126.288H390.995V140.496H393.635V139.536H392.147V127.248H393.635V126.288ZM395.296 132.336C395.296 134.912 396.016 138.192 399.136 138.192C402.256 138.192 402.976 134.912 402.976 132.336C402.976 129.76 402.256 126.48 399.136 126.48C396.016 126.48 395.296 129.76 395.296 132.336ZM396.64 132.336C396.64 130.672 396.896 127.632 399.136 127.632C401.376 127.632 401.632 130.672 401.632 132.336C401.632 134 401.376 137.04 399.136 137.04C396.896 137.04 396.64 134 396.64 132.336ZM406.954 136.368H405.498L404.41 140.208H405.642L406.954 136.368ZM415.748 132.624H416.164C417.556 132.624 419.028 133.152 419.028 134.816C419.028 136.128 418.004 137.04 416.724 137.04C415.476 137.04 414.82 136.576 414.436 135.36L413.076 135.808C413.652 137.488 415.012 138.192 416.724 138.192C418.74 138.192 420.468 137.072 420.468 134.912C420.468 133.488 419.588 132.304 418.148 132.064V132.032C419.284 131.68 420.084 130.624 420.084 129.44C420.084 127.488 418.516 126.48 416.708 126.48C415.268 126.48 413.972 127.12 413.428 128.4L414.724 128.896C415.124 128.064 415.86 127.632 416.804 127.632C417.94 127.632 418.74 128.352 418.74 129.504C418.74 131.216 417.284 131.472 416.164 131.472H415.748V132.624ZM421.983 132.336C421.983 134.912 422.703 138.192 425.823 138.192C428.943 138.192 429.663 134.912 429.663 132.336C429.663 129.76 428.943 126.48 425.823 126.48C422.703 126.48 421.983 129.76 421.983 132.336ZM423.327 132.336C423.327 130.672 423.583 127.632 425.823 127.632C428.063 127.632 428.319 130.672 428.319 132.336C428.319 134 428.063 137.04 425.823 137.04C423.583 137.04 423.327 134 423.327 132.336ZM431.322 127.248H432.81V139.536H431.322V140.496H433.962V126.288H431.322V127.248Z" fill="#333333"/>
<rect x="336" y="160" width="320" height="4" rx="2" fill="#EDE9ED"/>
<circle cx="344" cy="162" r="6" fill="white" stroke="#6C3078" stroke-width="4"/>
<rect x="348" y="160" width="72" height="4" rx="2" fill="#6C3078"/>
<circle cx="424" cy="162" r="6" fill="white" stroke="#6C3078" stroke-width="4"/>
<path d="M337.064 202H338.828V192.088H337.064V202ZM340.848 202H342.528V198.332C342.528 197.436 342.962 196.624 344.068 196.624C345.244 196.624 345.3 197.856 345.3 198.598V202H346.98V197.758C346.98 196.386 346.336 195.112 344.53 195.112C343.41 195.112 342.78 195.686 342.472 196.358H342.444V195.28H340.848V202ZM348.888 205.192H350.568V201.146H350.61C350.96 201.58 351.632 202.168 352.892 202.168C354.81 202.168 356.14 200.628 356.14 198.64C356.14 196.652 354.894 195.112 352.822 195.112C351.884 195.112 351.002 195.476 350.512 196.288H350.484V195.28H348.888V205.192ZM354.46 198.64C354.46 199.69 353.718 200.656 352.486 200.656C351.254 200.656 350.512 199.69 350.512 198.64C350.512 197.59 351.254 196.624 352.486 196.624C353.718 196.624 354.46 197.59 354.46 198.64ZM363.838 195.28H362.158V198.948C362.158 199.844 361.724 200.656 360.618 200.656C359.442 200.656 359.386 199.424 359.386 198.682V195.28H357.706V199.522C357.706 200.894 358.35 202.168 360.156 202.168C361.276 202.168 361.906 201.594 362.214 200.922H362.242V202H363.838V195.28ZM366.347 196.708V199.788C366.347 201.37 366.767 202.168 368.545 202.168C368.937 202.168 369.525 202.112 369.875 201.944V200.53C369.665 200.684 369.259 200.74 368.965 200.74C368.223 200.74 368.027 200.32 368.027 199.648V196.708H369.875V195.28H368.027V193.334H366.347V195.28H364.961V196.708H366.347ZM375.638 191.836L374.476 191.388L370.108 202.252L371.27 202.672L375.638 191.836ZM375.676 202H377.65L378.546 199.732H382.844L383.768 202H385.784L381.514 192.088H379.988L375.676 202ZM379.148 198.22L380.702 194.188L382.228 198.22H379.148ZM392.485 196.134C391.841 195.42 390.903 195.112 390.049 195.112C388.019 195.112 386.395 196.526 386.395 198.64C386.395 200.754 388.019 202.168 390.049 202.168C390.637 202.168 391.785 201.916 392.471 201.23L391.351 200.026C391.043 200.432 390.567 200.656 390.049 200.656C388.817 200.656 388.075 199.69 388.075 198.64C388.075 197.59 388.817 196.624 390.049 196.624C390.497 196.624 390.931 196.89 391.323 197.296L392.485 196.134ZM394.087 196.708V199.788C394.087 201.37 394.507 202.168 396.285 202.168C396.677 202.168 397.265 202.112 397.615 201.944V200.53C397.405 200.684 396.999 200.74 396.705 200.74C395.963 200.74 395.767 200.32 395.767 199.648V196.708H397.615V195.28H395.767V193.334H394.087V195.28H392.701V196.708H394.087ZM398.955 202H400.635V195.28H398.955V202ZM398.717 192.998C398.717 193.53 399.165 194.006 399.781 194.006C400.397 194.006 400.873 193.572 400.873 192.998C400.873 192.424 400.397 191.99 399.781 191.99C399.165 191.99 398.717 192.466 398.717 192.998ZM404.397 202H406.189L408.835 195.28H407.113L405.307 199.984H405.279L403.487 195.28H401.653L404.397 202ZM416.291 199.228V198.766C416.291 196.428 415.017 195.112 413.141 195.112C411.111 195.112 409.487 196.526 409.487 198.64C409.487 200.754 411.111 202.168 413.141 202.168C414.205 202.168 415.199 201.79 415.983 200.824L414.779 199.914C414.359 200.432 413.813 200.824 412.973 200.824C412.035 200.824 411.279 200.222 411.167 199.228H416.291ZM411.167 197.968C411.293 197.002 411.909 196.372 412.903 196.372C413.953 196.372 414.597 196.988 414.611 197.968H411.167Z" fill="black"/>
<path d="M337.408 233H338.752V221.672H337.408V233ZM341.34 233H342.588V229.352C342.588 227.64 343.292 226.472 344.908 226.472C346.076 226.472 346.62 227.256 346.62 228.504V233H347.868V228.376C347.868 226.568 346.988 225.32 345.02 225.32C343.788 225.32 342.86 226.008 342.524 226.744H342.492C342.492 226.328 342.46 225.912 342.46 225.512H341.276C341.276 226.008 341.34 226.6 341.34 227.288V233ZM350.167 236.648H351.415V231.672H351.447C351.911 232.52 352.983 233.192 354.327 233.192C356.423 233.192 358.071 231.496 358.071 229.256C358.071 226.984 356.487 225.32 354.135 225.32C353.047 225.32 352.135 225.8 351.447 226.6H351.415V225.512H350.167V236.648ZM351.415 229.256C351.415 227.688 352.455 226.472 354.071 226.472C355.687 226.472 356.727 227.688 356.727 229.256C356.727 230.824 355.687 232.04 354.071 232.04C352.455 232.04 351.415 230.824 351.415 229.256ZM366.54 225.512H365.292V229.16C365.292 230.872 364.588 232.04 362.972 232.04C361.804 232.04 361.26 231.256 361.26 230.008V225.512H360.012V230.136C360.012 231.944 360.892 233.192 362.86 233.192C364.092 233.192 365.02 232.504 365.356 231.768H365.388C365.388 232.184 365.42 232.6 365.42 233H366.604C366.604 232.504 366.54 231.912 366.54 231.224V225.512ZM372.999 225.512H370.791V223.384H369.543V225.512H367.911V226.568H369.543V230.68C369.543 232.232 369.831 233.192 371.607 233.192C372.071 233.192 372.631 233.112 373.063 232.92L373.015 231.784C372.679 231.96 372.279 232.04 371.911 232.04C370.807 232.04 370.791 231.272 370.791 230.312V226.568H372.999V225.512ZM375.568 225.32C375.04 225.32 374.608 225.752 374.608 226.28C374.608 226.808 375.072 227.24 375.568 227.24C376.064 227.24 376.528 226.808 376.528 226.28C376.528 225.752 376.096 225.32 375.568 225.32ZM375.568 231.176C375.04 231.176 374.608 231.608 374.608 232.136C374.608 232.664 375.072 233.096 375.568 233.096C376.064 233.096 376.528 232.664 376.528 232.136C376.528 231.608 376.096 231.176 375.568 231.176ZM385.514 227.624H385.93C387.322 227.624 388.794 228.152 388.794 229.816C388.794 231.128 387.77 232.04 386.49 232.04C385.242 232.04 384.586 231.576 384.202 230.36L382.842 230.808C383.418 232.488 384.778 233.192 386.49 233.192C388.506 233.192 390.234 232.072 390.234 229.912C390.234 228.488 389.354 227.304 387.914 227.064V227.032C389.05 226.68 389.85 225.624 389.85 224.44C389.85 222.488 388.282 221.48 386.474 221.48C385.034 221.48 383.738 222.12 383.194 223.4L384.49 223.896C384.89 223.064 385.626 222.632 386.57 222.632C387.706 222.632 388.506 223.352 388.506 224.504C388.506 226.216 387.05 226.472 385.93 226.472H385.514V227.624ZM391.749 227.336C391.749 229.912 392.469 233.192 395.589 233.192C398.709 233.192 399.429 229.912 399.429 227.336C399.429 224.76 398.709 221.48 395.589 221.48C392.469 221.48 391.749 224.76 391.749 227.336ZM393.093 227.336C393.093 225.672 393.349 222.632 395.589 222.632C397.829 222.632 398.085 225.672 398.085 227.336C398.085 229 397.829 232.04 395.589 232.04C393.349 232.04 393.093 229 393.093 227.336Z" fill="#333333"/>
<rect x="337" y="246" width="318" height="34" rx="3" fill="white"/>
<path opacity="0.8" d="M351.264 261.624H351.68C353.072 261.624 354.544 262.152 354.544 263.816C354.544 265.128 353.52 266.04 352.24 266.04C350.992 266.04 350.336 265.576 349.952 264.36L348.592 264.808C349.168 266.488 350.528 267.192 352.24 267.192C354.256 267.192 355.984 266.072 355.984 263.912C355.984 262.488 355.104 261.304 353.664 261.064V261.032C354.8 260.68 355.6 259.624 355.6 258.44C355.6 256.488 354.032 255.48 352.224 255.48C350.784 255.48 349.488 256.12 348.944 257.4L350.24 257.896C350.64 257.064 351.376 256.632 352.32 256.632C353.456 256.632 354.256 257.352 354.256 258.504C354.256 260.216 352.8 260.472 351.68 260.472H351.264V261.624ZM357.499 261.336C357.499 263.912 358.219 267.192 361.339 267.192C364.459 267.192 365.179 263.912 365.179 261.336C365.179 258.76 364.459 255.48 361.339 255.48C358.219 255.48 357.499 258.76 357.499 261.336ZM358.843 261.336C358.843 259.672 359.099 256.632 361.339 256.632C363.579 256.632 363.835 259.672 363.835 261.336C363.835 263 363.579 266.04 361.339 266.04C359.099 266.04 358.843 263 358.843 261.336Z" fill="#9EA6B5"/>
<rect x="337" y="246" width="318" height="34" rx="3" stroke="#6C3078" stroke-width="2"/>
<rect x="336" y="281" width="320" height="4" rx="2" fill="#EDE9ED"/>
<rect x="336" y="281" width="134" height="4" rx="2" fill="#6C3078"/>
<circle cx="474" cy="283" r="6" fill="white" stroke="#6C3078" stroke-width="4"/>
</svg>
