<svg width="179" height="24" viewBox="0 0 179 24" fill="none" xmlns="http://www.w3.org/2000/svg">
<rect x="0.5" y="0.5" width="47" height="23" rx="11.5" fill="#EDE9ED"/>
<g filter="url(#filter0_dd_26_8004)">
<path fill-rule="evenodd" clip-rule="evenodd" d="M36 21C40.9706 21 45 16.9706 45 12C45 7.02944 40.9706 3 36 3C31.0294 3 27 7.02944 27 12C27 16.9706 31.0294 21 36 21Z" fill="#6C3078"/>
</g>
<rect x="0.5" y="0.5" width="47" height="23" rx="11.5" stroke="#6C3078"/>
<path d="M57.2 16H61.552C63.776 16 67.104 14.512 67.104 10.336C67.104 6.16 63.776 4.672 61.552 4.672H57.2V16ZM58.544 5.92H61.104C63.696 5.92 65.664 7.232 65.664 10.336C65.664 13.44 63.696 14.752 61.104 14.752H58.544V5.92ZM69.1554 16H70.4034V8.512H69.1554V16ZM68.8674 5.584C68.8674 6.112 69.2514 6.496 69.7794 6.496C70.3074 6.496 70.6914 6.112 70.6914 5.584C70.6914 5.088 70.2914 4.672 69.7794 4.672C69.2674 4.672 68.8674 5.088 68.8674 5.584ZM72.0551 14.8C72.7911 15.856 73.7031 16.192 74.9671 16.192C76.4551 16.192 77.9591 15.536 77.9591 13.84C77.9591 12.336 76.8391 11.856 75.5111 11.6C74.5191 11.408 73.6231 11.136 73.6231 10.512C73.6231 9.808 74.4071 9.472 75.0951 9.472C75.8311 9.472 76.3591 9.84 76.6791 10.368L77.7191 9.68C77.2071 8.72 76.2311 8.32 75.1751 8.32C73.7831 8.32 72.3751 9.072 72.3751 10.528C72.3751 12.08 73.5911 12.384 75.0151 12.704C75.8151 12.88 76.6151 13.088 76.6151 13.888C76.6151 14.704 75.7511 15.04 74.9671 15.04C74.0871 15.04 73.5431 14.64 73.0471 14.032L72.0551 14.8ZM79.6356 19.648H80.8836V14.672H80.9156C81.3796 15.52 82.4516 16.192 83.7956 16.192C85.8916 16.192 87.5396 14.496 87.5396 12.256C87.5396 9.984 85.9556 8.32 83.6036 8.32C82.5156 8.32 81.6036 8.8 80.9156 9.6H80.8836V8.512H79.6356V19.648ZM80.8836 12.256C80.8836 10.688 81.9236 9.472 83.5396 9.472C85.1556 9.472 86.1956 10.688 86.1956 12.256C86.1956 13.824 85.1556 15.04 83.5396 15.04C81.9236 15.04 80.8836 13.824 80.8836 12.256ZM89.5929 16H90.8409V3.904H89.5929V16ZM94.0126 10.288C94.6046 9.744 95.4366 9.472 96.2366 9.472C97.4046 9.472 98.0926 10.032 98.0926 11.12V11.344H97.6126C95.7726 11.344 92.8926 11.488 92.8926 13.968C92.8926 15.424 94.1566 16.192 95.6766 16.192C96.8126 16.192 97.6446 15.648 98.1406 14.88H98.1726C98.1726 15.2 98.1726 15.664 98.2526 16H99.4526C99.3886 15.616 99.3406 15.136 99.3406 14.704V11.488C99.3406 9.376 98.4126 8.32 96.2046 8.32C95.1166 8.32 93.9966 8.688 93.2286 9.472L94.0126 10.288ZM98.0926 12.4V12.88C98.0606 14.096 97.3246 15.136 95.8846 15.136C94.9406 15.136 94.2366 14.784 94.2366 13.84C94.2366 12.832 95.2606 12.4 96.8446 12.4H98.0926ZM107.99 8.512H106.63L104.406 14.384H104.374L102.054 8.512H100.598L103.702 16.048L103.19 17.456C102.918 18.192 102.614 18.688 101.798 18.688C101.446 18.688 101.174 18.656 100.918 18.56L100.758 19.648C101.094 19.808 101.526 19.84 101.878 19.84C103.382 19.84 103.878 18.976 104.374 17.712L107.99 8.512ZM121.265 8.512H120.017V9.792H119.985C119.489 8.8 118.353 8.32 117.345 8.32C114.961 8.32 113.361 9.808 113.361 12.256C113.361 14.464 114.993 16.096 117.345 16.096C118.337 16.096 119.393 15.664 119.985 14.704H120.017V15.664C120.017 17.248 119.425 18.688 117.185 18.688C116.033 18.688 115.185 18.24 114.401 17.392L113.505 18.416C114.561 19.456 115.729 19.84 117.185 19.84C119.809 19.84 121.265 18.368 121.265 15.664V8.512ZM114.705 12.256C114.705 10.688 115.777 9.472 117.345 9.472C118.929 9.472 120.017 10.608 120.017 12.224C120.017 13.664 119.057 14.944 117.345 14.944C115.889 14.944 114.705 13.776 114.705 12.256ZM123.575 16H124.823V12.352C124.823 10.64 125.495 9.568 127.015 9.568C127.239 9.568 127.479 9.6 127.687 9.664L127.767 8.4C127.591 8.336 127.415 8.32 127.255 8.32C126.023 8.32 125.095 9.008 124.759 9.744H124.727C124.727 9.328 124.695 8.912 124.695 8.512H123.511C123.511 9.008 123.575 9.6 123.575 10.288V16ZM128.486 12.256C128.486 14.592 130.182 16.192 132.486 16.192C134.79 16.192 136.486 14.592 136.486 12.256C136.486 9.92 134.79 8.32 132.486 8.32C130.182 8.32 128.486 9.92 128.486 12.256ZM129.83 12.256C129.83 10.688 130.87 9.472 132.486 9.472C134.102 9.472 135.142 10.688 135.142 12.256C135.142 13.824 134.102 15.04 132.486 15.04C130.87 15.04 129.83 13.824 129.83 12.256ZM144.946 8.512H143.698V12.16C143.698 13.872 142.994 15.04 141.378 15.04C140.21 15.04 139.666 14.256 139.666 13.008V8.512H138.418V13.136C138.418 14.944 139.298 16.192 141.266 16.192C142.498 16.192 143.426 15.504 143.762 14.768H143.794C143.794 15.184 143.826 15.6 143.826 16H145.01C145.01 15.504 144.946 14.912 144.946 14.224V8.512ZM147.245 19.648H148.493V14.672H148.525C148.989 15.52 150.061 16.192 151.405 16.192C153.501 16.192 155.149 14.496 155.149 12.256C155.149 9.984 153.565 8.32 151.213 8.32C150.125 8.32 149.213 8.8 148.525 9.6H148.493V8.512H147.245V19.648ZM148.493 12.256C148.493 10.688 149.533 9.472 151.149 9.472C152.765 9.472 153.805 10.688 153.805 12.256C153.805 13.824 152.765 15.04 151.149 15.04C149.533 15.04 148.493 13.824 148.493 12.256ZM157.202 16H158.45V8.512H157.202V16ZM156.914 5.584C156.914 6.112 157.298 6.496 157.826 6.496C158.354 6.496 158.738 6.112 158.738 5.584C158.738 5.088 158.338 4.672 157.826 4.672C157.314 4.672 156.914 5.088 156.914 5.584ZM160.934 16H162.182V12.352C162.182 10.64 162.886 9.472 164.502 9.472C165.67 9.472 166.214 10.256 166.214 11.504V16H167.462V11.376C167.462 9.568 166.582 8.32 164.614 8.32C163.382 8.32 162.454 9.008 162.118 9.744H162.086C162.086 9.328 162.054 8.912 162.054 8.512H160.87C160.87 9.008 160.934 9.6 160.934 10.288V16ZM177.297 8.512H176.049V9.792H176.017C175.521 8.8 174.385 8.32 173.377 8.32C170.993 8.32 169.393 9.808 169.393 12.256C169.393 14.464 171.025 16.096 173.377 16.096C174.369 16.096 175.425 15.664 176.017 14.704H176.049V15.664C176.049 17.248 175.457 18.688 173.217 18.688C172.065 18.688 171.217 18.24 170.433 17.392L169.537 18.416C170.593 19.456 171.761 19.84 173.217 19.84C175.841 19.84 177.297 18.368 177.297 15.664V8.512ZM170.737 12.256C170.737 10.688 171.809 9.472 173.377 9.472C174.961 9.472 176.049 10.608 176.049 12.224C176.049 13.664 175.089 14.944 173.377 14.944C171.921 14.944 170.737 13.776 170.737 12.256Z" fill="#333333"/>
<defs>
<filter id="filter0_dd_26_8004" x="25" y="2" width="22" height="22" filterUnits="userSpaceOnUse" color-interpolation-filters="sRGB">
<feFlood flood-opacity="0" result="BackgroundImageFix"/>
<feColorMatrix in="SourceAlpha" type="matrix" values="0 0 0 0 0 0 0 0 0 0 0 0 0 0 0 0 0 0 127 0" result="hardAlpha"/>
<feOffset dy="1"/>
<feGaussianBlur stdDeviation="1"/>
<feColorMatrix type="matrix" values="0 0 0 0 0 0 0 0 0 0 0 0 0 0 0 0 0 0 0.2 0"/>
<feBlend mode="normal" in2="BackgroundImageFix" result="effect1_dropShadow_26_8004"/>
<feColorMatrix in="SourceAlpha" type="matrix" values="0 0 0 0 0 0 0 0 0 0 0 0 0 0 0 0 0 0 127 0" result="hardAlpha"/>
<feOffset dy="0.1"/>
<feGaussianBlur stdDeviation="0.15"/>
<feColorMatrix type="matrix" values="0 0 0 0 0 0 0 0 0 0 0 0 0 0 0 0 0 0 0.1 0"/>
<feBlend mode="normal" in2="effect1_dropShadow_26_8004" result="effect2_dropShadow_26_8004"/>
<feBlend mode="normal" in="SourceGraphic" in2="effect2_dropShadow_26_8004" result="shape"/>
</filter>
</defs>
</svg>
