<svg width="311" height="224" viewBox="0 0 311 224" fill="none" xmlns="http://www.w3.org/2000/svg">
<path d="M7.252 6.358C6.482 5.63 5.446 5.336 4.41 5.336C2.576 5.336 0.756 6.288 0.756 8.332C0.756 11.874 5.46 10.628 5.46 12.798C5.46 13.708 4.536 14.156 3.724 14.156C2.94 14.156 2.198 13.778 1.764 13.12L0.434 14.408C1.246 15.374 2.45 15.752 3.682 15.752C5.628 15.752 7.308 14.716 7.308 12.588C7.308 9.06 2.604 10.194 2.604 8.206C2.604 7.296 3.416 6.932 4.228 6.932C4.914 6.932 5.586 7.184 5.964 7.716L7.252 6.358ZM10.4191 15.5H12.1551L13.5691 10.908H13.5971L15.1931 15.5H16.8591L19.1411 8.78H17.4471L16.0471 13.484H16.0191L14.5631 8.78H12.7431L11.3851 13.484H11.3571L9.90106 8.78H8.08106L10.4191 15.5ZM20.1616 15.5H21.8416V8.78H20.1616V15.5ZM19.9236 6.498C19.9236 7.03 20.3716 7.506 20.9876 7.506C21.6036 7.506 22.0796 7.072 22.0796 6.498C22.0796 5.924 21.6036 5.49 20.9876 5.49C20.3716 5.49 19.9236 5.966 19.9236 6.498ZM24.3724 10.208V13.288C24.3724 14.87 24.7924 15.668 26.5704 15.668C26.9624 15.668 27.5504 15.612 27.9004 15.444V14.03C27.6904 14.184 27.2844 14.24 26.9904 14.24C26.2484 14.24 26.0524 13.82 26.0524 13.148V10.208H27.9004V8.78H26.0524V6.834H24.3724V8.78H22.9864V10.208H24.3724ZM34.9658 9.634C34.3218 8.92 33.3838 8.612 32.5298 8.612C30.4998 8.612 28.8758 10.026 28.8758 12.14C28.8758 14.254 30.4998 15.668 32.5298 15.668C33.1178 15.668 34.2658 15.416 34.9518 14.73L33.8318 13.526C33.5238 13.932 33.0478 14.156 32.5298 14.156C31.2978 14.156 30.5558 13.19 30.5558 12.14C30.5558 11.09 31.2978 10.124 32.5298 10.124C32.9778 10.124 33.4118 10.39 33.8038 10.796L34.9658 9.634ZM37.6457 4.916H35.9657V15.5H37.6457V11.832C37.6457 10.936 38.0797 10.124 39.1857 10.124C40.3617 10.124 40.4177 11.356 40.4177 12.098V15.5H42.0977V11.258C42.0977 9.886 41.4537 8.612 39.6477 8.612C38.6117 8.612 37.9397 9.158 37.6737 9.718H37.6457V4.916ZM49.5753 15.5H51.3113L52.7253 10.908H52.7533L54.3493 15.5H56.0153L58.2973 8.78H56.6033L55.2033 13.484H55.1753L53.7193 8.78H51.8993L50.5413 13.484H50.5133L49.0573 8.78H47.2373L49.5753 15.5ZM59.3179 15.5H60.9979V8.78H59.3179V15.5ZM59.0799 6.498C59.0799 7.03 59.5279 7.506 60.1439 7.506C60.7599 7.506 61.2359 7.072 61.2359 6.498C61.2359 5.924 60.7599 5.49 60.1439 5.49C59.5279 5.49 59.0799 5.966 59.0799 6.498ZM63.5286 10.208V13.288C63.5286 14.87 63.9486 15.668 65.7266 15.668C66.1186 15.668 66.7066 15.612 67.0566 15.444V14.03C66.8466 14.184 66.4406 14.24 66.1466 14.24C65.4046 14.24 65.2086 13.82 65.2086 13.148V10.208H67.0566V8.78H65.2086V6.834H63.5286V8.78H62.1426V10.208H63.5286ZM70.048 4.916H68.368V15.5H70.048V11.832C70.048 10.936 70.482 10.124 71.588 10.124C72.764 10.124 72.82 11.356 72.82 12.098V15.5H74.5V11.258C74.5 9.886 73.856 8.612 72.05 8.612C71.014 8.612 70.342 9.158 70.076 9.718H70.048V4.916ZM80.5777 15.5H82.2577V4.916H80.5777V15.5ZM88.3864 15.5H89.8984V11.636C89.8984 10.684 89.8984 8.612 87.0284 8.612C85.9644 8.612 84.9144 8.934 84.1724 9.69L85.0544 10.572C85.5024 10.152 86.1464 9.872 86.8464 9.872C87.7424 9.872 88.3864 10.306 88.3864 11.132V11.314H87.9664C86.2864 11.314 83.7384 11.468 83.7384 13.652C83.7384 14.982 84.9424 15.668 86.1884 15.668C87.0844 15.668 87.8684 15.332 88.3444 14.576H88.3864V15.5ZM88.2884 12.868C88.2884 13.806 87.7424 14.408 86.5944 14.408C86.0484 14.408 85.4184 14.142 85.4184 13.526C85.4184 12.56 87.0144 12.49 87.9384 12.49H88.2884V12.868ZM91.7059 15.5H93.3019V14.492H93.3299C93.8199 15.304 94.7019 15.668 95.6399 15.668C97.7119 15.668 98.9579 14.128 98.9579 12.14C98.9579 10.152 97.6279 8.612 95.7099 8.612C94.4499 8.612 93.7779 9.2 93.4279 9.634H93.3859V4.916H91.7059V15.5ZM97.2779 12.14C97.2779 13.19 96.5359 14.156 95.3039 14.156C94.0719 14.156 93.3299 13.19 93.3299 12.14C93.3299 11.09 94.0719 10.124 95.3039 10.124C96.5359 10.124 97.2779 11.09 97.2779 12.14ZM106.992 12.728V12.266C106.992 9.928 105.718 8.612 103.842 8.612C101.812 8.612 100.188 10.026 100.188 12.14C100.188 14.254 101.812 15.668 103.842 15.668C104.906 15.668 105.9 15.29 106.684 14.324L105.48 13.414C105.06 13.932 104.514 14.324 103.674 14.324C102.736 14.324 101.98 13.722 101.868 12.728H106.992ZM101.868 11.468C101.994 10.502 102.61 9.872 103.604 9.872C104.654 9.872 105.298 10.488 105.312 11.468H101.868ZM108.591 15.5H110.271V4.916H108.591V15.5Z" fill="black"/>
<rect x="216.5" y="0.5" width="47" height="23" rx="11.5" fill="#EDE9ED"/>
<g filter="url(#filter0_dd_26_7984)">
<path fill-rule="evenodd" clip-rule="evenodd" d="M252 21C256.971 21 261 16.9706 261 12C261 7.02944 256.971 3 252 3C247.029 3 243 7.02944 243 12C243 16.9706 247.029 21 252 21Z" fill="#6C3078"/>
</g>
<rect x="216.5" y="0.5" width="47" height="23" rx="11.5" stroke="#6C3078"/>
<path d="M273.408 16H279.936V14.752H274.752V4.672H273.408V16ZM281.872 10.288C282.464 9.744 283.296 9.472 284.096 9.472C285.264 9.472 285.952 10.032 285.952 11.12V11.344H285.472C283.632 11.344 280.752 11.488 280.752 13.968C280.752 15.424 282.016 16.192 283.536 16.192C284.672 16.192 285.504 15.648 286 14.88H286.032C286.032 15.2 286.032 15.664 286.112 16H287.312C287.248 15.616 287.2 15.136 287.2 14.704V11.488C287.2 9.376 286.272 8.32 284.064 8.32C282.976 8.32 281.856 8.688 281.088 9.472L281.872 10.288ZM285.952 12.4V12.88C285.92 14.096 285.184 15.136 283.744 15.136C282.8 15.136 282.096 14.784 282.096 13.84C282.096 12.832 283.12 12.4 284.704 12.4H285.952ZM289.417 16H290.665V14.672H290.697C291.161 15.52 292.233 16.192 293.577 16.192C295.673 16.192 297.321 14.496 297.321 12.256C297.321 9.984 295.737 8.32 293.385 8.32C292.297 8.32 291.385 8.8 290.697 9.6H290.665V3.904H289.417V16ZM290.665 12.256C290.665 10.688 291.705 9.472 293.321 9.472C294.937 9.472 295.977 10.688 295.977 12.256C295.977 13.824 294.937 15.04 293.321 15.04C291.705 15.04 290.665 13.824 290.665 12.256ZM305.006 13.904C304.414 14.656 303.694 15.04 302.622 15.04C301.262 15.04 300.27 13.936 300.174 12.64H306.222V12.24C306.222 9.76 304.782 8.32 302.67 8.32C300.462 8.32 298.83 9.936 298.83 12.256C298.83 14.432 300.27 16.192 302.622 16.192C304.014 16.192 305.07 15.776 305.95 14.64L305.006 13.904ZM300.174 11.584C300.334 10.32 301.246 9.472 302.622 9.472C303.998 9.472 304.83 10.32 304.878 11.584H300.174ZM308.265 16H309.513V3.904H308.265V16Z" fill="#333333"/>
<path d="M9.282 43.404C8.302 42.27 7.154 41.836 5.81 41.836C2.758 41.836 0.574 43.908 0.574 47.086C0.574 50.18 2.758 52.252 5.81 52.252C7.266 52.252 8.61 51.72 9.506 50.488L8.05 49.452C7.392 50.292 6.622 50.656 5.824 50.656C3.78 50.656 2.422 49.088 2.422 46.974C2.422 45 3.78 43.432 5.824 43.432C6.51 43.432 7.182 43.642 7.91 44.412L9.282 43.404ZM12.216 41.416H10.536V52H12.216V48.332C12.216 47.436 12.65 46.624 13.756 46.624C14.932 46.624 14.988 47.856 14.988 48.598V52H16.668V47.758C16.668 46.386 16.024 45.112 14.218 45.112C13.182 45.112 12.51 45.658 12.244 46.218H12.216V41.416ZM25.043 49.228V48.766C25.043 46.428 23.769 45.112 21.893 45.112C19.863 45.112 18.239 46.526 18.239 48.64C18.239 50.754 19.863 52.168 21.893 52.168C22.957 52.168 23.951 51.79 24.735 50.824L23.531 49.914C23.111 50.432 22.565 50.824 21.725 50.824C20.787 50.824 20.031 50.222 19.919 49.228H25.043ZM19.919 47.968C20.045 47.002 20.661 46.372 21.655 46.372C22.705 46.372 23.349 46.988 23.363 47.968H19.919ZM32.3681 46.134C31.7241 45.42 30.7861 45.112 29.9321 45.112C27.9021 45.112 26.2781 46.526 26.2781 48.64C26.2781 50.754 27.9021 52.168 29.9321 52.168C30.5201 52.168 31.6681 51.916 32.3541 51.23L31.2341 50.026C30.9261 50.432 30.4501 50.656 29.9321 50.656C28.7001 50.656 27.9581 49.69 27.9581 48.64C27.9581 47.59 28.7001 46.624 29.9321 46.624C30.3801 46.624 30.8141 46.89 31.2061 47.296L32.3681 46.134ZM33.368 52H35.048V48.57H35.076L37.75 52H39.976L36.91 48.332L39.794 45.28H37.638L35.048 48.066V41.416H33.368V52ZM47.3555 49.228V48.766C47.3555 46.428 46.0815 45.112 44.2055 45.112C42.1755 45.112 40.5515 46.526 40.5515 48.64C40.5515 50.754 42.1755 52.168 44.2055 52.168C45.2695 52.168 46.2635 51.79 47.0475 50.824L45.8435 49.914C45.4235 50.432 44.8775 50.824 44.0375 50.824C43.0995 50.824 42.3435 50.222 42.2315 49.228H47.3555ZM42.2315 47.968C42.3575 47.002 42.9735 46.372 43.9675 46.372C45.0175 46.372 45.6615 46.988 45.6755 47.968H42.2315ZM54.2466 52H55.8426V41.416H54.1626V46.134H54.1206C53.7706 45.7 53.0986 45.112 51.8386 45.112C49.9206 45.112 48.5906 46.652 48.5906 48.64C48.5906 50.628 49.8366 52.168 51.9086 52.168C52.8466 52.168 53.7286 51.804 54.2186 50.992H54.2466V52ZM50.2706 48.64C50.2706 47.59 51.0126 46.624 52.2446 46.624C53.4766 46.624 54.2186 47.59 54.2186 48.64C54.2186 49.69 53.4766 50.656 52.2446 50.656C51.0126 50.656 50.2706 49.69 50.2706 48.64ZM57.745 51.02C57.745 51.622 58.277 52.084 58.865 52.084C59.481 52.084 59.985 51.594 59.985 50.992C59.985 50.39 59.467 49.928 58.865 49.928C58.249 49.928 57.745 50.418 57.745 51.02ZM57.745 46.274C57.745 46.876 58.277 47.338 58.865 47.338C59.481 47.338 59.985 46.848 59.985 46.246C59.985 45.644 59.467 45.182 58.865 45.182C58.249 45.182 57.745 45.672 57.745 46.274ZM66.1841 52H67.9481V47.884H72.3161V46.288H67.9481V43.684H72.5821V42.088H66.1841V52ZM78.2692 52H79.7812V48.136C79.7812 47.184 79.7812 45.112 76.9112 45.112C75.8472 45.112 74.7972 45.434 74.0552 46.19L74.9372 47.072C75.3852 46.652 76.0292 46.372 76.7292 46.372C77.6252 46.372 78.2692 46.806 78.2692 47.632V47.814H77.8492C76.1692 47.814 73.6212 47.968 73.6212 50.152C73.6212 51.482 74.8252 52.168 76.0712 52.168C76.9672 52.168 77.7512 51.832 78.2272 51.076H78.2692V52ZM78.1712 49.368C78.1712 50.306 77.6252 50.908 76.4772 50.908C75.9312 50.908 75.3012 50.642 75.3012 50.026C75.3012 49.06 76.8972 48.99 77.8212 48.99H78.1712V49.368ZM81.6167 52H83.2967V41.416H81.6167V52ZM89.9294 46.134C89.3834 45.392 88.4314 45.112 87.5354 45.112C86.1774 45.112 84.8334 45.784 84.8334 47.282C84.8334 49.844 88.4594 48.752 88.4594 50.138C88.4594 50.67 87.8294 50.908 87.3394 50.908C86.6254 50.908 86.1774 50.558 85.7434 50.082L84.6234 51.132C85.3094 51.902 86.2054 52.168 87.2414 52.168C88.6134 52.168 90.1394 51.608 90.1394 50.012C90.1394 47.394 86.5134 48.374 86.5134 47.17C86.5134 46.666 87.0454 46.456 87.4934 46.456C88.0674 46.456 88.4874 46.694 88.8094 47.142L89.9294 46.134ZM97.9141 49.228V48.766C97.9141 46.428 96.6401 45.112 94.7641 45.112C92.7341 45.112 91.1101 46.526 91.1101 48.64C91.1101 50.754 92.7341 52.168 94.7641 52.168C95.8281 52.168 96.8221 51.79 97.6061 50.824L96.4021 49.914C95.9821 50.432 95.4361 50.824 94.5961 50.824C93.6581 50.824 92.9021 50.222 92.7901 49.228H97.9141ZM92.7901 47.968C92.9161 47.002 93.5321 46.372 94.5261 46.372C95.5761 46.372 96.2201 46.988 96.2341 47.968H92.7901ZM1.106 69H4.802C7.182 69 10.052 67.432 10.052 64.044C10.052 60.684 7.616 59.088 5.012 59.088H1.106V69ZM2.87 67.404V60.684H4.48C6.636 60.684 8.204 61.636 8.204 64.044C8.204 66.452 6.398 67.404 4.186 67.404H2.87ZM11.603 69H13.283V62.28H11.603V69ZM11.365 59.998C11.365 60.53 11.813 61.006 12.429 61.006C13.045 61.006 13.521 60.572 13.521 59.998C13.521 59.424 13.045 58.99 12.429 58.99C11.813 58.99 11.365 59.466 11.365 59.998ZM19.9158 63.134C19.3698 62.392 18.4178 62.112 17.5218 62.112C16.1638 62.112 14.8198 62.784 14.8198 64.282C14.8198 66.844 18.4458 65.752 18.4458 67.138C18.4458 67.67 17.8158 67.908 17.3258 67.908C16.6118 67.908 16.1638 67.558 15.7298 67.082L14.6098 68.132C15.2958 68.902 16.1918 69.168 17.2278 69.168C18.5998 69.168 20.1258 68.608 20.1258 67.012C20.1258 64.394 16.4998 65.374 16.4998 64.17C16.4998 63.666 17.0318 63.456 17.4798 63.456C18.0538 63.456 18.4738 63.694 18.7958 64.142L19.9158 63.134ZM25.6325 69H27.1445V65.136C27.1445 64.184 27.1445 62.112 24.2745 62.112C23.2105 62.112 22.1605 62.434 21.4185 63.19L22.3005 64.072C22.7485 63.652 23.3925 63.372 24.0925 63.372C24.9885 63.372 25.6325 63.806 25.6325 64.632V64.814H25.2125C23.5325 64.814 20.9845 64.968 20.9845 67.152C20.9845 68.482 22.1885 69.168 23.4345 69.168C24.3305 69.168 25.1145 68.832 25.5905 68.076H25.6325V69ZM25.5345 66.368C25.5345 67.306 24.9885 67.908 23.8405 67.908C23.2945 67.908 22.6645 67.642 22.6645 67.026C22.6645 66.06 24.2605 65.99 25.1845 65.99H25.5345V66.368ZM28.952 69H30.548V67.992H30.576C31.066 68.804 31.948 69.168 32.886 69.168C34.958 69.168 36.204 67.628 36.204 65.64C36.204 63.652 34.874 62.112 32.956 62.112C31.696 62.112 31.024 62.7 30.674 63.134H30.632V58.416H28.952V69ZM34.524 65.64C34.524 66.69 33.782 67.656 32.55 67.656C31.318 67.656 30.576 66.69 30.576 65.64C30.576 64.59 31.318 63.624 32.55 63.624C33.782 63.624 34.524 64.59 34.524 65.64ZM37.7984 69H39.4784V58.416H37.7984V69ZM47.8751 66.228V65.766C47.8751 63.428 46.6011 62.112 44.7251 62.112C42.6951 62.112 41.0711 63.526 41.0711 65.64C41.0711 67.754 42.6951 69.168 44.7251 69.168C45.7891 69.168 46.7831 68.79 47.5671 67.824L46.3631 66.914C45.9431 67.432 45.3971 67.824 44.5571 67.824C43.6191 67.824 42.8631 67.222 42.7511 66.228H47.8751ZM42.7511 64.968C42.8771 64.002 43.4931 63.372 44.4871 63.372C45.5371 63.372 46.1811 63.988 46.1951 64.968H42.7511ZM54.7661 69H56.3621V58.416H54.6821V63.134H54.6401C54.2901 62.7 53.6181 62.112 52.3581 62.112C50.4401 62.112 49.1101 63.652 49.1101 65.64C49.1101 67.628 50.3561 69.168 52.4281 69.168C53.3661 69.168 54.2481 68.804 54.7381 67.992H54.7661V69ZM50.7901 65.64C50.7901 64.59 51.5321 63.624 52.7641 63.624C53.9961 63.624 54.7381 64.59 54.7381 65.64C54.7381 66.69 53.9961 67.656 52.7641 67.656C51.5321 67.656 50.7901 66.69 50.7901 65.64ZM58.2645 68.02C58.2645 68.622 58.7965 69.084 59.3845 69.084C60.0005 69.084 60.5045 68.594 60.5045 67.992C60.5045 67.39 59.9865 66.928 59.3845 66.928C58.7685 66.928 58.2645 67.418 58.2645 68.02ZM58.2645 63.274C58.2645 63.876 58.7965 64.338 59.3845 64.338C60.0005 64.338 60.5045 63.848 60.5045 63.246C60.5045 62.644 59.9865 62.182 59.3845 62.182C58.7685 62.182 58.2645 62.672 58.2645 63.274ZM66.7037 69H68.4677V64.884H72.8357V63.288H68.4677V60.684H73.1017V59.088H66.7037V69ZM78.7887 69H80.3007V65.136C80.3007 64.184 80.3007 62.112 77.4307 62.112C76.3667 62.112 75.3167 62.434 74.5747 63.19L75.4567 64.072C75.9047 63.652 76.5487 63.372 77.2487 63.372C78.1447 63.372 78.7887 63.806 78.7887 64.632V64.814H78.3687C76.6887 64.814 74.1407 64.968 74.1407 67.152C74.1407 68.482 75.3447 69.168 76.5907 69.168C77.4867 69.168 78.2707 68.832 78.7467 68.076H78.7887V69ZM78.6907 66.368C78.6907 67.306 78.1447 67.908 76.9967 67.908C76.4507 67.908 75.8207 67.642 75.8207 67.026C75.8207 66.06 77.4167 65.99 78.3407 65.99H78.6907V66.368ZM82.1363 69H83.8163V58.416H82.1363V69ZM90.449 63.134C89.903 62.392 88.951 62.112 88.055 62.112C86.697 62.112 85.353 62.784 85.353 64.282C85.353 66.844 88.979 65.752 88.979 67.138C88.979 67.67 88.349 67.908 87.859 67.908C87.145 67.908 86.697 67.558 86.263 67.082L85.143 68.132C85.829 68.902 86.725 69.168 87.761 69.168C89.133 69.168 90.659 68.608 90.659 67.012C90.659 64.394 87.033 65.374 87.033 64.17C87.033 63.666 87.565 63.456 88.013 63.456C88.587 63.456 89.007 63.694 89.329 64.142L90.449 63.134ZM98.4337 66.228V65.766C98.4337 63.428 97.1597 62.112 95.2837 62.112C93.2537 62.112 91.6297 63.526 91.6297 65.64C91.6297 67.754 93.2537 69.168 95.2837 69.168C96.3477 69.168 97.3417 68.79 98.1257 67.824L96.9217 66.914C96.5017 67.432 95.9557 67.824 95.1157 67.824C94.1777 67.824 93.4217 67.222 93.3097 66.228H98.4337ZM93.3097 64.968C93.4357 64.002 94.0517 63.372 95.0457 63.372C96.0957 63.372 96.7397 63.988 96.7537 64.968H93.3097Z" fill="black"/>
<rect x="216.5" y="45.5" width="47" height="23" rx="11.5" fill="white"/>
<path fill-rule="evenodd" clip-rule="evenodd" d="M228 66C232.971 66 237 61.9706 237 57C237 52.0294 232.971 48 228 48C223.029 48 219 52.0294 219 57C219 61.9706 223.029 66 228 66Z" fill="#9EA6B5"/>
<rect x="216.5" y="45.5" width="47" height="23" rx="11.5" stroke="#9EA6B5"/>
<path d="M9.282 93.404C8.302 92.27 7.154 91.836 5.81 91.836C2.758 91.836 0.574 93.908 0.574 97.086C0.574 100.18 2.758 102.252 5.81 102.252C7.266 102.252 8.61 101.72 9.506 100.488L8.05 99.452C7.392 100.292 6.622 100.656 5.824 100.656C3.78 100.656 2.422 99.088 2.422 96.974C2.422 95 3.78 93.432 5.824 93.432C6.51 93.432 7.182 93.642 7.91 94.412L9.282 93.404ZM12.216 91.416H10.536V102H12.216V98.332C12.216 97.436 12.65 96.624 13.756 96.624C14.932 96.624 14.988 97.856 14.988 98.598V102H16.668V97.758C16.668 96.386 16.024 95.112 14.218 95.112C13.182 95.112 12.51 95.658 12.244 96.218H12.216V91.416ZM25.043 99.228V98.766C25.043 96.428 23.769 95.112 21.893 95.112C19.863 95.112 18.239 96.526 18.239 98.64C18.239 100.754 19.863 102.168 21.893 102.168C22.957 102.168 23.951 101.79 24.735 100.824L23.531 99.914C23.111 100.432 22.565 100.824 21.725 100.824C20.787 100.824 20.031 100.222 19.919 99.228H25.043ZM19.919 97.968C20.045 97.002 20.661 96.372 21.655 96.372C22.705 96.372 23.349 96.988 23.363 97.968H19.919ZM32.3681 96.134C31.7241 95.42 30.7861 95.112 29.9321 95.112C27.9021 95.112 26.2781 96.526 26.2781 98.64C26.2781 100.754 27.9021 102.168 29.9321 102.168C30.5201 102.168 31.6681 101.916 32.3541 101.23L31.2341 100.026C30.9261 100.432 30.4501 100.656 29.9321 100.656C28.7001 100.656 27.9581 99.69 27.9581 98.64C27.9581 97.59 28.7001 96.624 29.9321 96.624C30.3801 96.624 30.8141 96.89 31.2061 97.296L32.3681 96.134ZM33.368 102H35.048V98.57H35.076L37.75 102H39.976L36.91 98.332L39.794 95.28H37.638L35.048 98.066V91.416H33.368V102ZM47.3555 99.228V98.766C47.3555 96.428 46.0815 95.112 44.2055 95.112C42.1755 95.112 40.5515 96.526 40.5515 98.64C40.5515 100.754 42.1755 102.168 44.2055 102.168C45.2695 102.168 46.2635 101.79 47.0475 100.824L45.8435 99.914C45.4235 100.432 44.8775 100.824 44.0375 100.824C43.0995 100.824 42.3435 100.222 42.2315 99.228H47.3555ZM42.2315 97.968C42.3575 97.002 42.9735 96.372 43.9675 96.372C45.0175 96.372 45.6615 96.988 45.6755 97.968H42.2315ZM54.2466 102H55.8426V91.416H54.1626V96.134H54.1206C53.7706 95.7 53.0986 95.112 51.8386 95.112C49.9206 95.112 48.5906 96.652 48.5906 98.64C48.5906 100.628 49.8366 102.168 51.9086 102.168C52.8466 102.168 53.7286 101.804 54.2186 100.992H54.2466V102ZM50.2706 98.64C50.2706 97.59 51.0126 96.624 52.2446 96.624C53.4766 96.624 54.2186 97.59 54.2186 98.64C54.2186 99.69 53.4766 100.656 52.2446 100.656C51.0126 100.656 50.2706 99.69 50.2706 98.64ZM57.745 101.02C57.745 101.622 58.277 102.084 58.865 102.084C59.481 102.084 59.985 101.594 59.985 100.992C59.985 100.39 59.467 99.928 58.865 99.928C58.249 99.928 57.745 100.418 57.745 101.02ZM57.745 96.274C57.745 96.876 58.277 97.338 58.865 97.338C59.481 97.338 59.985 96.848 59.985 96.246C59.985 95.644 59.467 95.182 58.865 95.182C58.249 95.182 57.745 95.672 57.745 96.274ZM68.2141 102H69.9781V93.684H73.0161V92.088H65.1761V93.684H68.2141V102ZM72.784 102H74.464V98.402C74.464 98.038 74.688 96.708 76.27 96.708C76.536 96.708 76.802 96.764 77.082 96.834V95.21C76.886 95.154 76.69 95.112 76.48 95.112C75.598 95.112 74.856 95.574 74.492 96.344H74.464V95.28H72.784V102ZM84.3574 95.28H82.6774V98.948C82.6774 99.844 82.2434 100.656 81.1374 100.656C79.9614 100.656 79.9054 99.424 79.9054 98.682V95.28H78.2254V99.522C78.2254 100.894 78.8694 102.168 80.6754 102.168C81.7954 102.168 82.4254 101.594 82.7334 100.922H82.7614V102H84.3574V95.28ZM92.7325 99.228V98.766C92.7325 96.428 91.4585 95.112 89.5825 95.112C87.5525 95.112 85.9285 96.526 85.9285 98.64C85.9285 100.754 87.5525 102.168 89.5825 102.168C90.6465 102.168 91.6405 101.79 92.4245 100.824L91.2205 99.914C90.8005 100.432 90.2545 100.824 89.4145 100.824C88.4765 100.824 87.7205 100.222 87.6085 99.228H92.7325ZM87.6085 97.968C87.7345 97.002 88.3505 96.372 89.3445 96.372C90.3945 96.372 91.0385 96.988 91.0525 97.968H87.6085ZM1.106 119H4.802C7.182 119 10.052 117.432 10.052 114.044C10.052 110.684 7.616 109.088 5.012 109.088H1.106V119ZM2.87 117.404V110.684H4.48C6.636 110.684 8.204 111.636 8.204 114.044C8.204 116.452 6.398 117.404 4.186 117.404H2.87ZM11.603 119H13.283V112.28H11.603V119ZM11.365 109.998C11.365 110.53 11.813 111.006 12.429 111.006C13.045 111.006 13.521 110.572 13.521 109.998C13.521 109.424 13.045 108.99 12.429 108.99C11.813 108.99 11.365 109.466 11.365 109.998ZM19.9158 113.134C19.3698 112.392 18.4178 112.112 17.5218 112.112C16.1638 112.112 14.8198 112.784 14.8198 114.282C14.8198 116.844 18.4458 115.752 18.4458 117.138C18.4458 117.67 17.8158 117.908 17.3258 117.908C16.6118 117.908 16.1638 117.558 15.7298 117.082L14.6098 118.132C15.2958 118.902 16.1918 119.168 17.2278 119.168C18.5998 119.168 20.1258 118.608 20.1258 117.012C20.1258 114.394 16.4998 115.374 16.4998 114.17C16.4998 113.666 17.0318 113.456 17.4798 113.456C18.0538 113.456 18.4738 113.694 18.7958 114.142L19.9158 113.134ZM25.6325 119H27.1445V115.136C27.1445 114.184 27.1445 112.112 24.2745 112.112C23.2105 112.112 22.1605 112.434 21.4185 113.19L22.3005 114.072C22.7485 113.652 23.3925 113.372 24.0925 113.372C24.9885 113.372 25.6325 113.806 25.6325 114.632V114.814H25.2125C23.5325 114.814 20.9845 114.968 20.9845 117.152C20.9845 118.482 22.1885 119.168 23.4345 119.168C24.3305 119.168 25.1145 118.832 25.5905 118.076H25.6325V119ZM25.5345 116.368C25.5345 117.306 24.9885 117.908 23.8405 117.908C23.2945 117.908 22.6645 117.642 22.6645 117.026C22.6645 116.06 24.2605 115.99 25.1845 115.99H25.5345V116.368ZM28.952 119H30.548V117.992H30.576C31.066 118.804 31.948 119.168 32.886 119.168C34.958 119.168 36.204 117.628 36.204 115.64C36.204 113.652 34.874 112.112 32.956 112.112C31.696 112.112 31.024 112.7 30.674 113.134H30.632V108.416H28.952V119ZM34.524 115.64C34.524 116.69 33.782 117.656 32.55 117.656C31.318 117.656 30.576 116.69 30.576 115.64C30.576 114.59 31.318 113.624 32.55 113.624C33.782 113.624 34.524 114.59 34.524 115.64ZM37.7984 119H39.4784V108.416H37.7984V119ZM47.8751 116.228V115.766C47.8751 113.428 46.6011 112.112 44.7251 112.112C42.6951 112.112 41.0711 113.526 41.0711 115.64C41.0711 117.754 42.6951 119.168 44.7251 119.168C45.7891 119.168 46.7831 118.79 47.5671 117.824L46.3631 116.914C45.9431 117.432 45.3971 117.824 44.5571 117.824C43.6191 117.824 42.8631 117.222 42.7511 116.228H47.8751ZM42.7511 114.968C42.8771 114.002 43.4931 113.372 44.4871 113.372C45.5371 113.372 46.1811 113.988 46.1951 114.968H42.7511ZM54.7661 119H56.3621V108.416H54.6821V113.134H54.6401C54.2901 112.7 53.6181 112.112 52.3581 112.112C50.4401 112.112 49.1101 113.652 49.1101 115.64C49.1101 117.628 50.3561 119.168 52.4281 119.168C53.3661 119.168 54.2481 118.804 54.7381 117.992H54.7661V119ZM50.7901 115.64C50.7901 114.59 51.5321 113.624 52.7641 113.624C53.9961 113.624 54.7381 114.59 54.7381 115.64C54.7381 116.69 53.9961 117.656 52.7641 117.656C51.5321 117.656 50.7901 116.69 50.7901 115.64ZM58.2645 118.02C58.2645 118.622 58.7965 119.084 59.3845 119.084C60.0005 119.084 60.5045 118.594 60.5045 117.992C60.5045 117.39 59.9865 116.928 59.3845 116.928C58.7685 116.928 58.2645 117.418 58.2645 118.02ZM58.2645 113.274C58.2645 113.876 58.7965 114.338 59.3845 114.338C60.0005 114.338 60.5045 113.848 60.5045 113.246C60.5045 112.644 59.9865 112.182 59.3845 112.182C58.7685 112.182 58.2645 112.672 58.2645 113.274ZM66.7037 119H68.4677V114.884H72.8357V113.288H68.4677V110.684H73.1017V109.088H66.7037V119ZM78.7887 119H80.3007V115.136C80.3007 114.184 80.3007 112.112 77.4307 112.112C76.3667 112.112 75.3167 112.434 74.5747 113.19L75.4567 114.072C75.9047 113.652 76.5487 113.372 77.2487 113.372C78.1447 113.372 78.7887 113.806 78.7887 114.632V114.814H78.3687C76.6887 114.814 74.1407 114.968 74.1407 117.152C74.1407 118.482 75.3447 119.168 76.5907 119.168C77.4867 119.168 78.2707 118.832 78.7467 118.076H78.7887V119ZM78.6907 116.368C78.6907 117.306 78.1447 117.908 76.9967 117.908C76.4507 117.908 75.8207 117.642 75.8207 117.026C75.8207 116.06 77.4167 115.99 78.3407 115.99H78.6907V116.368ZM82.1363 119H83.8163V108.416H82.1363V119ZM90.449 113.134C89.903 112.392 88.951 112.112 88.055 112.112C86.697 112.112 85.353 112.784 85.353 114.282C85.353 116.844 88.979 115.752 88.979 117.138C88.979 117.67 88.349 117.908 87.859 117.908C87.145 117.908 86.697 117.558 86.263 117.082L85.143 118.132C85.829 118.902 86.725 119.168 87.761 119.168C89.133 119.168 90.659 118.608 90.659 117.012C90.659 114.394 87.033 115.374 87.033 114.17C87.033 113.666 87.565 113.456 88.013 113.456C88.587 113.456 89.007 113.694 89.329 114.142L90.449 113.134ZM98.4337 116.228V115.766C98.4337 113.428 97.1597 112.112 95.2837 112.112C93.2537 112.112 91.6297 113.526 91.6297 115.64C91.6297 117.754 93.2537 119.168 95.2837 119.168C96.3477 119.168 97.3417 118.79 98.1257 117.824L96.9217 116.914C96.5017 117.432 95.9557 117.824 95.1157 117.824C94.1777 117.824 93.4217 117.222 93.3097 116.228H98.4337ZM93.3097 114.968C93.4357 114.002 94.0517 113.372 95.0457 113.372C96.0957 113.372 96.7397 113.988 96.7537 114.968H93.3097Z" fill="black"/>
<rect x="216.5" y="95.5" width="47" height="23" rx="11.5" fill="#EDE9ED"/>
<g filter="url(#filter1_dd_26_7984)">
<path fill-rule="evenodd" clip-rule="evenodd" d="M252 116C256.971 116 261 111.971 261 107C261 102.029 256.971 98 252 98C247.029 98 243 102.029 243 107C243 111.971 247.029 116 252 116Z" fill="#6C3078"/>
</g>
<rect x="216.5" y="95.5" width="47" height="23" rx="11.5" stroke="#6C3078"/>
<path d="M9.282 143.404C8.302 142.27 7.154 141.836 5.81 141.836C2.758 141.836 0.574 143.908 0.574 147.086C0.574 150.18 2.758 152.252 5.81 152.252C7.266 152.252 8.61 151.72 9.506 150.488L8.05 149.452C7.392 150.292 6.622 150.656 5.824 150.656C3.78 150.656 2.422 149.088 2.422 146.974C2.422 145 3.78 143.432 5.824 143.432C6.51 143.432 7.182 143.642 7.91 144.412L9.282 143.404ZM12.216 141.416H10.536V152H12.216V148.332C12.216 147.436 12.65 146.624 13.756 146.624C14.932 146.624 14.988 147.856 14.988 148.598V152H16.668V147.758C16.668 146.386 16.024 145.112 14.218 145.112C13.182 145.112 12.51 145.658 12.244 146.218H12.216V141.416ZM25.043 149.228V148.766C25.043 146.428 23.769 145.112 21.893 145.112C19.863 145.112 18.239 146.526 18.239 148.64C18.239 150.754 19.863 152.168 21.893 152.168C22.957 152.168 23.951 151.79 24.735 150.824L23.531 149.914C23.111 150.432 22.565 150.824 21.725 150.824C20.787 150.824 20.031 150.222 19.919 149.228H25.043ZM19.919 147.968C20.045 147.002 20.661 146.372 21.655 146.372C22.705 146.372 23.349 146.988 23.363 147.968H19.919ZM32.3681 146.134C31.7241 145.42 30.7861 145.112 29.9321 145.112C27.9021 145.112 26.2781 146.526 26.2781 148.64C26.2781 150.754 27.9021 152.168 29.9321 152.168C30.5201 152.168 31.6681 151.916 32.3541 151.23L31.2341 150.026C30.9261 150.432 30.4501 150.656 29.9321 150.656C28.7001 150.656 27.9581 149.69 27.9581 148.64C27.9581 147.59 28.7001 146.624 29.9321 146.624C30.3801 146.624 30.8141 146.89 31.2061 147.296L32.3681 146.134ZM33.368 152H35.048V148.57H35.076L37.75 152H39.976L36.91 148.332L39.794 145.28H37.638L35.048 148.066V141.416H33.368V152ZM47.3555 149.228V148.766C47.3555 146.428 46.0815 145.112 44.2055 145.112C42.1755 145.112 40.5515 146.526 40.5515 148.64C40.5515 150.754 42.1755 152.168 44.2055 152.168C45.2695 152.168 46.2635 151.79 47.0475 150.824L45.8435 149.914C45.4235 150.432 44.8775 150.824 44.0375 150.824C43.0995 150.824 42.3435 150.222 42.2315 149.228H47.3555ZM42.2315 147.968C42.3575 147.002 42.9735 146.372 43.9675 146.372C45.0175 146.372 45.6615 146.988 45.6755 147.968H42.2315ZM54.2466 152H55.8426V141.416H54.1626V146.134H54.1206C53.7706 145.7 53.0986 145.112 51.8386 145.112C49.9206 145.112 48.5906 146.652 48.5906 148.64C48.5906 150.628 49.8366 152.168 51.9086 152.168C52.8466 152.168 53.7286 151.804 54.2186 150.992H54.2466V152ZM50.2706 148.64C50.2706 147.59 51.0126 146.624 52.2446 146.624C53.4766 146.624 54.2186 147.59 54.2186 148.64C54.2186 149.69 53.4766 150.656 52.2446 150.656C51.0126 150.656 50.2706 149.69 50.2706 148.64ZM57.745 151.02C57.745 151.622 58.277 152.084 58.865 152.084C59.481 152.084 59.985 151.594 59.985 150.992C59.985 150.39 59.467 149.928 58.865 149.928C58.249 149.928 57.745 150.418 57.745 151.02ZM57.745 146.274C57.745 146.876 58.277 147.338 58.865 147.338C59.481 147.338 59.985 146.848 59.985 146.246C59.985 145.644 59.467 145.182 58.865 145.182C58.249 145.182 57.745 145.672 57.745 146.274ZM66.1841 152H67.9481V147.884H72.3161V146.288H67.9481V143.684H72.5821V142.088H66.1841V152ZM78.2692 152H79.7812V148.136C79.7812 147.184 79.7812 145.112 76.9112 145.112C75.8472 145.112 74.7972 145.434 74.0552 146.19L74.9372 147.072C75.3852 146.652 76.0292 146.372 76.7292 146.372C77.6252 146.372 78.2692 146.806 78.2692 147.632V147.814H77.8492C76.1692 147.814 73.6212 147.968 73.6212 150.152C73.6212 151.482 74.8252 152.168 76.0712 152.168C76.9672 152.168 77.7512 151.832 78.2272 151.076H78.2692V152ZM78.1712 149.368C78.1712 150.306 77.6252 150.908 76.4772 150.908C75.9312 150.908 75.3012 150.642 75.3012 150.026C75.3012 149.06 76.8972 148.99 77.8212 148.99H78.1712V149.368ZM81.6167 152H83.2967V141.416H81.6167V152ZM89.9294 146.134C89.3834 145.392 88.4314 145.112 87.5354 145.112C86.1774 145.112 84.8334 145.784 84.8334 147.282C84.8334 149.844 88.4594 148.752 88.4594 150.138C88.4594 150.67 87.8294 150.908 87.3394 150.908C86.6254 150.908 86.1774 150.558 85.7434 150.082L84.6234 151.132C85.3094 151.902 86.2054 152.168 87.2414 152.168C88.6134 152.168 90.1394 151.608 90.1394 150.012C90.1394 147.394 86.5134 148.374 86.5134 147.17C86.5134 146.666 87.0454 146.456 87.4934 146.456C88.0674 146.456 88.4874 146.694 88.8094 147.142L89.9294 146.134ZM97.9141 149.228V148.766C97.9141 146.428 96.6401 145.112 94.7641 145.112C92.7341 145.112 91.1101 146.526 91.1101 148.64C91.1101 150.754 92.7341 152.168 94.7641 152.168C95.8281 152.168 96.8221 151.79 97.6061 150.824L96.4021 149.914C95.9821 150.432 95.4361 150.824 94.5961 150.824C93.6581 150.824 92.9021 150.222 92.7901 149.228H97.9141ZM92.7901 147.968C92.9161 147.002 93.5321 146.372 94.5261 146.372C95.5761 146.372 96.2201 146.988 96.2341 147.968H92.7901ZM1.106 169H4.802C7.182 169 10.052 167.432 10.052 164.044C10.052 160.684 7.616 159.088 5.012 159.088H1.106V169ZM2.87 167.404V160.684H4.48C6.636 160.684 8.204 161.636 8.204 164.044C8.204 166.452 6.398 167.404 4.186 167.404H2.87ZM11.603 169H13.283V162.28H11.603V169ZM11.365 159.998C11.365 160.53 11.813 161.006 12.429 161.006C13.045 161.006 13.521 160.572 13.521 159.998C13.521 159.424 13.045 158.99 12.429 158.99C11.813 158.99 11.365 159.466 11.365 159.998ZM19.9158 163.134C19.3698 162.392 18.4178 162.112 17.5218 162.112C16.1638 162.112 14.8198 162.784 14.8198 164.282C14.8198 166.844 18.4458 165.752 18.4458 167.138C18.4458 167.67 17.8158 167.908 17.3258 167.908C16.6118 167.908 16.1638 167.558 15.7298 167.082L14.6098 168.132C15.2958 168.902 16.1918 169.168 17.2278 169.168C18.5998 169.168 20.1258 168.608 20.1258 167.012C20.1258 164.394 16.4998 165.374 16.4998 164.17C16.4998 163.666 17.0318 163.456 17.4798 163.456C18.0538 163.456 18.4738 163.694 18.7958 164.142L19.9158 163.134ZM25.6325 169H27.1445V165.136C27.1445 164.184 27.1445 162.112 24.2745 162.112C23.2105 162.112 22.1605 162.434 21.4185 163.19L22.3005 164.072C22.7485 163.652 23.3925 163.372 24.0925 163.372C24.9885 163.372 25.6325 163.806 25.6325 164.632V164.814H25.2125C23.5325 164.814 20.9845 164.968 20.9845 167.152C20.9845 168.482 22.1885 169.168 23.4345 169.168C24.3305 169.168 25.1145 168.832 25.5905 168.076H25.6325V169ZM25.5345 166.368C25.5345 167.306 24.9885 167.908 23.8405 167.908C23.2945 167.908 22.6645 167.642 22.6645 167.026C22.6645 166.06 24.2605 165.99 25.1845 165.99H25.5345V166.368ZM28.952 169H30.548V167.992H30.576C31.066 168.804 31.948 169.168 32.886 169.168C34.958 169.168 36.204 167.628 36.204 165.64C36.204 163.652 34.874 162.112 32.956 162.112C31.696 162.112 31.024 162.7 30.674 163.134H30.632V158.416H28.952V169ZM34.524 165.64C34.524 166.69 33.782 167.656 32.55 167.656C31.318 167.656 30.576 166.69 30.576 165.64C30.576 164.59 31.318 163.624 32.55 163.624C33.782 163.624 34.524 164.59 34.524 165.64ZM37.7984 169H39.4784V158.416H37.7984V169ZM47.8751 166.228V165.766C47.8751 163.428 46.6011 162.112 44.7251 162.112C42.6951 162.112 41.0711 163.526 41.0711 165.64C41.0711 167.754 42.6951 169.168 44.7251 169.168C45.7891 169.168 46.7831 168.79 47.5671 167.824L46.3631 166.914C45.9431 167.432 45.3971 167.824 44.5571 167.824C43.6191 167.824 42.8631 167.222 42.7511 166.228H47.8751ZM42.7511 164.968C42.8771 164.002 43.4931 163.372 44.4871 163.372C45.5371 163.372 46.1811 163.988 46.1951 164.968H42.7511ZM54.7661 169H56.3621V158.416H54.6821V163.134H54.6401C54.2901 162.7 53.6181 162.112 52.3581 162.112C50.4401 162.112 49.1101 163.652 49.1101 165.64C49.1101 167.628 50.3561 169.168 52.4281 169.168C53.3661 169.168 54.2481 168.804 54.7381 167.992H54.7661V169ZM50.7901 165.64C50.7901 164.59 51.5321 163.624 52.7641 163.624C53.9961 163.624 54.7381 164.59 54.7381 165.64C54.7381 166.69 53.9961 167.656 52.7641 167.656C51.5321 167.656 50.7901 166.69 50.7901 165.64ZM58.2645 168.02C58.2645 168.622 58.7965 169.084 59.3845 169.084C60.0005 169.084 60.5045 168.594 60.5045 167.992C60.5045 167.39 59.9865 166.928 59.3845 166.928C58.7685 166.928 58.2645 167.418 58.2645 168.02ZM58.2645 163.274C58.2645 163.876 58.7965 164.338 59.3845 164.338C60.0005 164.338 60.5045 163.848 60.5045 163.246C60.5045 162.644 59.9865 162.182 59.3845 162.182C58.7685 162.182 58.2645 162.672 58.2645 163.274ZM68.7337 169H70.4977V160.684H73.5357V159.088H65.6957V160.684H68.7337V169ZM73.3036 169H74.9836V165.402C74.9836 165.038 75.2076 163.708 76.7896 163.708C77.0556 163.708 77.3216 163.764 77.6016 163.834V162.21C77.4056 162.154 77.2096 162.112 76.9996 162.112C76.1176 162.112 75.3756 162.574 75.0116 163.344H74.9836V162.28H73.3036V169ZM84.877 162.28H83.197V165.948C83.197 166.844 82.763 167.656 81.657 167.656C80.481 167.656 80.425 166.424 80.425 165.682V162.28H78.745V166.522C78.745 167.894 79.389 169.168 81.195 169.168C82.315 169.168 82.945 168.594 83.253 167.922H83.281V169H84.877V162.28ZM93.252 166.228V165.766C93.252 163.428 91.978 162.112 90.102 162.112C88.072 162.112 86.448 163.526 86.448 165.64C86.448 167.754 88.072 169.168 90.102 169.168C91.166 169.168 92.16 168.79 92.944 167.824L91.74 166.914C91.32 167.432 90.774 167.824 89.934 167.824C88.996 167.824 88.24 167.222 88.128 166.228H93.252ZM88.128 164.968C88.254 164.002 88.87 163.372 89.864 163.372C90.914 163.372 91.558 163.988 91.572 164.968H88.128Z" fill="black"/>
<g opacity="0.5">
<rect x="216.5" y="145.5" width="47" height="23" rx="11.5" fill="white"/>
<path fill-rule="evenodd" clip-rule="evenodd" d="M228 166C232.971 166 237 161.971 237 157C237 152.029 232.971 148 228 148C223.029 148 219 152.029 219 157C219 161.971 223.029 166 228 166Z" fill="#9EA6B5"/>
<rect x="216.5" y="145.5" width="47" height="23" rx="11.5" stroke="#9EA6B5"/>
</g>
<path d="M9.282 193.404C8.302 192.27 7.154 191.836 5.81 191.836C2.758 191.836 0.574 193.908 0.574 197.086C0.574 200.18 2.758 202.252 5.81 202.252C7.266 202.252 8.61 201.72 9.506 200.488L8.05 199.452C7.392 200.292 6.622 200.656 5.824 200.656C3.78 200.656 2.422 199.088 2.422 196.974C2.422 195 3.78 193.432 5.824 193.432C6.51 193.432 7.182 193.642 7.91 194.412L9.282 193.404ZM12.216 191.416H10.536V202H12.216V198.332C12.216 197.436 12.65 196.624 13.756 196.624C14.932 196.624 14.988 197.856 14.988 198.598V202H16.668V197.758C16.668 196.386 16.024 195.112 14.218 195.112C13.182 195.112 12.51 195.658 12.244 196.218H12.216V191.416ZM25.043 199.228V198.766C25.043 196.428 23.769 195.112 21.893 195.112C19.863 195.112 18.239 196.526 18.239 198.64C18.239 200.754 19.863 202.168 21.893 202.168C22.957 202.168 23.951 201.79 24.735 200.824L23.531 199.914C23.111 200.432 22.565 200.824 21.725 200.824C20.787 200.824 20.031 200.222 19.919 199.228H25.043ZM19.919 197.968C20.045 197.002 20.661 196.372 21.655 196.372C22.705 196.372 23.349 196.988 23.363 197.968H19.919ZM32.3681 196.134C31.7241 195.42 30.7861 195.112 29.9321 195.112C27.9021 195.112 26.2781 196.526 26.2781 198.64C26.2781 200.754 27.9021 202.168 29.9321 202.168C30.5201 202.168 31.6681 201.916 32.3541 201.23L31.2341 200.026C30.9261 200.432 30.4501 200.656 29.9321 200.656C28.7001 200.656 27.9581 199.69 27.9581 198.64C27.9581 197.59 28.7001 196.624 29.9321 196.624C30.3801 196.624 30.8141 196.89 31.2061 197.296L32.3681 196.134ZM33.368 202H35.048V198.57H35.076L37.75 202H39.976L36.91 198.332L39.794 195.28H37.638L35.048 198.066V191.416H33.368V202ZM47.3555 199.228V198.766C47.3555 196.428 46.0815 195.112 44.2055 195.112C42.1755 195.112 40.5515 196.526 40.5515 198.64C40.5515 200.754 42.1755 202.168 44.2055 202.168C45.2695 202.168 46.2635 201.79 47.0475 200.824L45.8435 199.914C45.4235 200.432 44.8775 200.824 44.0375 200.824C43.0995 200.824 42.3435 200.222 42.2315 199.228H47.3555ZM42.2315 197.968C42.3575 197.002 42.9735 196.372 43.9675 196.372C45.0175 196.372 45.6615 196.988 45.6755 197.968H42.2315ZM54.2466 202H55.8426V191.416H54.1626V196.134H54.1206C53.7706 195.7 53.0986 195.112 51.8386 195.112C49.9206 195.112 48.5906 196.652 48.5906 198.64C48.5906 200.628 49.8366 202.168 51.9086 202.168C52.8466 202.168 53.7286 201.804 54.2186 200.992H54.2466V202ZM50.2706 198.64C50.2706 197.59 51.0126 196.624 52.2446 196.624C53.4766 196.624 54.2186 197.59 54.2186 198.64C54.2186 199.69 53.4766 200.656 52.2446 200.656C51.0126 200.656 50.2706 199.69 50.2706 198.64ZM57.745 201.02C57.745 201.622 58.277 202.084 58.865 202.084C59.481 202.084 59.985 201.594 59.985 200.992C59.985 200.39 59.467 199.928 58.865 199.928C58.249 199.928 57.745 200.418 57.745 201.02ZM57.745 196.274C57.745 196.876 58.277 197.338 58.865 197.338C59.481 197.338 59.985 196.848 59.985 196.246C59.985 195.644 59.467 195.182 58.865 195.182C58.249 195.182 57.745 195.672 57.745 196.274ZM68.2141 202H69.9781V193.684H73.0161V192.088H65.1761V193.684H68.2141V202ZM72.784 202H74.464V198.402C74.464 198.038 74.688 196.708 76.27 196.708C76.536 196.708 76.802 196.764 77.082 196.834V195.21C76.886 195.154 76.69 195.112 76.48 195.112C75.598 195.112 74.856 195.574 74.492 196.344H74.464V195.28H72.784V202ZM84.3574 195.28H82.6774V198.948C82.6774 199.844 82.2434 200.656 81.1374 200.656C79.9614 200.656 79.9054 199.424 79.9054 198.682V195.28H78.2254V199.522C78.2254 200.894 78.8694 202.168 80.6754 202.168C81.7954 202.168 82.4254 201.594 82.7334 200.922H82.7614V202H84.3574V195.28ZM92.7325 199.228V198.766C92.7325 196.428 91.4585 195.112 89.5825 195.112C87.5525 195.112 85.9285 196.526 85.9285 198.64C85.9285 200.754 87.5525 202.168 89.5825 202.168C90.6465 202.168 91.6405 201.79 92.4245 200.824L91.2205 199.914C90.8005 200.432 90.2545 200.824 89.4145 200.824C88.4765 200.824 87.7205 200.222 87.6085 199.228H92.7325ZM87.6085 197.968C87.7345 197.002 88.3505 196.372 89.3445 196.372C90.3945 196.372 91.0385 196.988 91.0525 197.968H87.6085ZM1.106 219H4.802C7.182 219 10.052 217.432 10.052 214.044C10.052 210.684 7.616 209.088 5.012 209.088H1.106V219ZM2.87 217.404V210.684H4.48C6.636 210.684 8.204 211.636 8.204 214.044C8.204 216.452 6.398 217.404 4.186 217.404H2.87ZM11.603 219H13.283V212.28H11.603V219ZM11.365 209.998C11.365 210.53 11.813 211.006 12.429 211.006C13.045 211.006 13.521 210.572 13.521 209.998C13.521 209.424 13.045 208.99 12.429 208.99C11.813 208.99 11.365 209.466 11.365 209.998ZM19.9158 213.134C19.3698 212.392 18.4178 212.112 17.5218 212.112C16.1638 212.112 14.8198 212.784 14.8198 214.282C14.8198 216.844 18.4458 215.752 18.4458 217.138C18.4458 217.67 17.8158 217.908 17.3258 217.908C16.6118 217.908 16.1638 217.558 15.7298 217.082L14.6098 218.132C15.2958 218.902 16.1918 219.168 17.2278 219.168C18.5998 219.168 20.1258 218.608 20.1258 217.012C20.1258 214.394 16.4998 215.374 16.4998 214.17C16.4998 213.666 17.0318 213.456 17.4798 213.456C18.0538 213.456 18.4738 213.694 18.7958 214.142L19.9158 213.134ZM25.6325 219H27.1445V215.136C27.1445 214.184 27.1445 212.112 24.2745 212.112C23.2105 212.112 22.1605 212.434 21.4185 213.19L22.3005 214.072C22.7485 213.652 23.3925 213.372 24.0925 213.372C24.9885 213.372 25.6325 213.806 25.6325 214.632V214.814H25.2125C23.5325 214.814 20.9845 214.968 20.9845 217.152C20.9845 218.482 22.1885 219.168 23.4345 219.168C24.3305 219.168 25.1145 218.832 25.5905 218.076H25.6325V219ZM25.5345 216.368C25.5345 217.306 24.9885 217.908 23.8405 217.908C23.2945 217.908 22.6645 217.642 22.6645 217.026C22.6645 216.06 24.2605 215.99 25.1845 215.99H25.5345V216.368ZM28.952 219H30.548V217.992H30.576C31.066 218.804 31.948 219.168 32.886 219.168C34.958 219.168 36.204 217.628 36.204 215.64C36.204 213.652 34.874 212.112 32.956 212.112C31.696 212.112 31.024 212.7 30.674 213.134H30.632V208.416H28.952V219ZM34.524 215.64C34.524 216.69 33.782 217.656 32.55 217.656C31.318 217.656 30.576 216.69 30.576 215.64C30.576 214.59 31.318 213.624 32.55 213.624C33.782 213.624 34.524 214.59 34.524 215.64ZM37.7984 219H39.4784V208.416H37.7984V219ZM47.8751 216.228V215.766C47.8751 213.428 46.6011 212.112 44.7251 212.112C42.6951 212.112 41.0711 213.526 41.0711 215.64C41.0711 217.754 42.6951 219.168 44.7251 219.168C45.7891 219.168 46.7831 218.79 47.5671 217.824L46.3631 216.914C45.9431 217.432 45.3971 217.824 44.5571 217.824C43.6191 217.824 42.8631 217.222 42.7511 216.228H47.8751ZM42.7511 214.968C42.8771 214.002 43.4931 213.372 44.4871 213.372C45.5371 213.372 46.1811 213.988 46.1951 214.968H42.7511ZM54.7661 219H56.3621V208.416H54.6821V213.134H54.6401C54.2901 212.7 53.6181 212.112 52.3581 212.112C50.4401 212.112 49.1101 213.652 49.1101 215.64C49.1101 217.628 50.3561 219.168 52.4281 219.168C53.3661 219.168 54.2481 218.804 54.7381 217.992H54.7661V219ZM50.7901 215.64C50.7901 214.59 51.5321 213.624 52.7641 213.624C53.9961 213.624 54.7381 214.59 54.7381 215.64C54.7381 216.69 53.9961 217.656 52.7641 217.656C51.5321 217.656 50.7901 216.69 50.7901 215.64ZM58.2645 218.02C58.2645 218.622 58.7965 219.084 59.3845 219.084C60.0005 219.084 60.5045 218.594 60.5045 217.992C60.5045 217.39 59.9865 216.928 59.3845 216.928C58.7685 216.928 58.2645 217.418 58.2645 218.02ZM58.2645 213.274C58.2645 213.876 58.7965 214.338 59.3845 214.338C60.0005 214.338 60.5045 213.848 60.5045 213.246C60.5045 212.644 59.9865 212.182 59.3845 212.182C58.7685 212.182 58.2645 212.672 58.2645 213.274ZM68.7337 219H70.4977V210.684H73.5357V209.088H65.6957V210.684H68.7337V219ZM73.3036 219H74.9836V215.402C74.9836 215.038 75.2076 213.708 76.7896 213.708C77.0556 213.708 77.3216 213.764 77.6016 213.834V212.21C77.4056 212.154 77.2096 212.112 76.9996 212.112C76.1176 212.112 75.3756 212.574 75.0116 213.344H74.9836V212.28H73.3036V219ZM84.877 212.28H83.197V215.948C83.197 216.844 82.763 217.656 81.657 217.656C80.481 217.656 80.425 216.424 80.425 215.682V212.28H78.745V216.522C78.745 217.894 79.389 219.168 81.195 219.168C82.315 219.168 82.945 218.594 83.253 217.922H83.281V219H84.877V212.28ZM93.252 216.228V215.766C93.252 213.428 91.978 212.112 90.102 212.112C88.072 212.112 86.448 213.526 86.448 215.64C86.448 217.754 88.072 219.168 90.102 219.168C91.166 219.168 92.16 218.79 92.944 217.824L91.74 216.914C91.32 217.432 90.774 217.824 89.934 217.824C88.996 217.824 88.24 217.222 88.128 216.228H93.252ZM88.128 214.968C88.254 214.002 88.87 213.372 89.864 213.372C90.914 213.372 91.558 213.988 91.572 214.968H88.128Z" fill="black"/>
<g opacity="0.5">
<rect x="216.5" y="195.5" width="47" height="23" rx="11.5" fill="#EDE9ED"/>
<g filter="url(#filter2_dd_26_7984)">
<path fill-rule="evenodd" clip-rule="evenodd" d="M252 216C256.971 216 261 211.971 261 207C261 202.029 256.971 198 252 198C247.029 198 243 202.029 243 207C243 211.971 247.029 216 252 216Z" fill="#6C3078"/>
</g>
<rect x="216.5" y="195.5" width="47" height="23" rx="11.5" stroke="#6C3078"/>
</g>
<defs>
<filter id="filter0_dd_26_7984" x="241" y="2" width="22" height="22" filterUnits="userSpaceOnUse" color-interpolation-filters="sRGB">
<feFlood flood-opacity="0" result="BackgroundImageFix"/>
<feColorMatrix in="SourceAlpha" type="matrix" values="0 0 0 0 0 0 0 0 0 0 0 0 0 0 0 0 0 0 127 0" result="hardAlpha"/>
<feOffset dy="1"/>
<feGaussianBlur stdDeviation="1"/>
<feColorMatrix type="matrix" values="0 0 0 0 0 0 0 0 0 0 0 0 0 0 0 0 0 0 0.2 0"/>
<feBlend mode="normal" in2="BackgroundImageFix" result="effect1_dropShadow_26_7984"/>
<feColorMatrix in="SourceAlpha" type="matrix" values="0 0 0 0 0 0 0 0 0 0 0 0 0 0 0 0 0 0 127 0" result="hardAlpha"/>
<feOffset dy="0.1"/>
<feGaussianBlur stdDeviation="0.15"/>
<feColorMatrix type="matrix" values="0 0 0 0 0 0 0 0 0 0 0 0 0 0 0 0 0 0 0.1 0"/>
<feBlend mode="normal" in2="effect1_dropShadow_26_7984" result="effect2_dropShadow_26_7984"/>
<feBlend mode="normal" in="SourceGraphic" in2="effect2_dropShadow_26_7984" result="shape"/>
</filter>
<filter id="filter1_dd_26_7984" x="241" y="97" width="22" height="22" filterUnits="userSpaceOnUse" color-interpolation-filters="sRGB">
<feFlood flood-opacity="0" result="BackgroundImageFix"/>
<feColorMatrix in="SourceAlpha" type="matrix" values="0 0 0 0 0 0 0 0 0 0 0 0 0 0 0 0 0 0 127 0" result="hardAlpha"/>
<feOffset dy="1"/>
<feGaussianBlur stdDeviation="1"/>
<feColorMatrix type="matrix" values="0 0 0 0 0 0 0 0 0 0 0 0 0 0 0 0 0 0 0.2 0"/>
<feBlend mode="normal" in2="BackgroundImageFix" result="effect1_dropShadow_26_7984"/>
<feColorMatrix in="SourceAlpha" type="matrix" values="0 0 0 0 0 0 0 0 0 0 0 0 0 0 0 0 0 0 127 0" result="hardAlpha"/>
<feOffset dy="0.1"/>
<feGaussianBlur stdDeviation="0.15"/>
<feColorMatrix type="matrix" values="0 0 0 0 0 0 0 0 0 0 0 0 0 0 0 0 0 0 0.1 0"/>
<feBlend mode="normal" in2="effect1_dropShadow_26_7984" result="effect2_dropShadow_26_7984"/>
<feBlend mode="normal" in="SourceGraphic" in2="effect2_dropShadow_26_7984" result="shape"/>
</filter>
<filter id="filter2_dd_26_7984" x="241" y="197" width="22" height="22" filterUnits="userSpaceOnUse" color-interpolation-filters="sRGB">
<feFlood flood-opacity="0" result="BackgroundImageFix"/>
<feColorMatrix in="SourceAlpha" type="matrix" values="0 0 0 0 0 0 0 0 0 0 0 0 0 0 0 0 0 0 127 0" result="hardAlpha"/>
<feOffset dy="1"/>
<feGaussianBlur stdDeviation="1"/>
<feColorMatrix type="matrix" values="0 0 0 0 0 0 0 0 0 0 0 0 0 0 0 0 0 0 0.2 0"/>
<feBlend mode="normal" in2="BackgroundImageFix" result="effect1_dropShadow_26_7984"/>
<feColorMatrix in="SourceAlpha" type="matrix" values="0 0 0 0 0 0 0 0 0 0 0 0 0 0 0 0 0 0 127 0" result="hardAlpha"/>
<feOffset dy="0.1"/>
<feGaussianBlur stdDeviation="0.15"/>
<feColorMatrix type="matrix" values="0 0 0 0 0 0 0 0 0 0 0 0 0 0 0 0 0 0 0.1 0"/>
<feBlend mode="normal" in2="effect1_dropShadow_26_7984" result="effect2_dropShadow_26_7984"/>
<feBlend mode="normal" in="SourceGraphic" in2="effect2_dropShadow_26_7984" result="shape"/>
</filter>
</defs>
</svg>
