<svg width="452" height="514" viewBox="0 0 452 514" fill="none" xmlns="http://www.w3.org/2000/svg">
<path d="M1.408 60H2.752V54.912H4.48L7.552 60H9.2L5.984 54.784C7.744 54.512 8.816 53.44 8.816 51.792C8.816 48.992 6.496 48.672 4.304 48.672H1.408V60ZM2.752 49.92H4.64C5.952 49.92 7.376 50.16 7.376 51.792C7.376 53.664 5.44 53.664 3.952 53.664H2.752V49.92ZM16.7093 57.904C16.1173 58.656 15.3973 59.04 14.3253 59.04C12.9653 59.04 11.9733 57.936 11.8773 56.64H17.9253V56.24C17.9253 53.76 16.4853 52.32 14.3733 52.32C12.1653 52.32 10.5333 53.936 10.5333 56.256C10.5333 58.432 11.9733 60.192 14.3253 60.192C15.7173 60.192 16.7733 59.776 17.6533 58.64L16.7093 57.904ZM11.8773 55.584C12.0373 54.32 12.9493 53.472 14.3253 53.472C15.7013 53.472 16.5333 54.32 16.5813 55.584H11.8773ZM27.3279 52.512H26.0799V53.84H26.0479C25.5839 52.992 24.5119 52.32 23.1679 52.32C21.0719 52.32 19.4239 54.016 19.4239 56.256C19.4239 58.528 21.0079 60.192 23.3599 60.192C24.4479 60.192 25.3599 59.712 26.0479 58.912H26.0799V63.648H27.3279V52.512ZM26.0799 56.256C26.0799 57.824 25.0399 59.04 23.4239 59.04C21.8079 59.04 20.7679 57.824 20.7679 56.256C20.7679 54.688 21.8079 53.472 23.4239 53.472C25.0399 53.472 26.0799 54.688 26.0799 56.256ZM36.1651 52.512H34.9171V56.16C34.9171 57.872 34.2131 59.04 32.5971 59.04C31.4291 59.04 30.8851 58.256 30.8851 57.008V52.512H29.6371V57.136C29.6371 58.944 30.5171 60.192 32.4851 60.192C33.7171 60.192 34.6451 59.504 34.9811 58.768H35.0131C35.0131 59.184 35.0451 59.6 35.0451 60H36.2291C36.2291 59.504 36.1651 58.912 36.1651 58.224V52.512ZM38.6398 60H39.8878V52.512H38.6398V60ZM38.3518 49.584C38.3518 50.112 38.7358 50.496 39.2638 50.496C39.7918 50.496 40.1758 50.112 40.1758 49.584C40.1758 49.088 39.7758 48.672 39.2638 48.672C38.7518 48.672 38.3518 49.088 38.3518 49.584ZM42.3715 60H43.6195V56.352C43.6195 54.64 44.2915 53.568 45.8115 53.568C46.0355 53.568 46.2755 53.6 46.4835 53.664L46.5635 52.4C46.3875 52.336 46.2115 52.32 46.0515 52.32C44.8195 52.32 43.8915 53.008 43.5555 53.744H43.5235C43.5235 53.328 43.4915 52.912 43.4915 52.512H42.3075C42.3075 53.008 42.3715 53.6 42.3715 54.288V60ZM53.4593 57.904C52.8673 58.656 52.1473 59.04 51.0753 59.04C49.7153 59.04 48.7233 57.936 48.6273 56.64H54.6753V56.24C54.6753 53.76 53.2353 52.32 51.1233 52.32C48.9153 52.32 47.2833 53.936 47.2833 56.256C47.2833 58.432 48.7233 60.192 51.0753 60.192C52.4673 60.192 53.5233 59.776 54.4033 58.64L53.4593 57.904ZM48.6273 55.584C48.7873 54.32 49.6993 53.472 51.0753 53.472C52.4513 53.472 53.2833 54.32 53.3313 55.584H48.6273ZM62.8299 60H64.0779V47.904H62.8299V53.6H62.7979C62.1099 52.8 61.1979 52.32 60.1099 52.32C57.7579 52.32 56.1739 53.984 56.1739 56.256C56.1739 58.496 57.8219 60.192 59.9179 60.192C61.2619 60.192 62.3339 59.52 62.7979 58.672H62.8299V60ZM62.8299 56.256C62.8299 57.824 61.7899 59.04 60.1739 59.04C58.5579 59.04 57.5179 57.824 57.5179 56.256C57.5179 54.688 58.5579 53.472 60.1739 53.472C61.7899 53.472 62.8299 54.688 62.8299 56.256Z" fill="black"/>
<g clip-path="url(#clip0_22_4803)">
<path d="M133.408 18H134.752V12.912H140.032V11.664H134.752V7.92H140.432V6.672H133.408V18ZM142.187 18H143.435V10.512H142.187V18ZM141.899 7.584C141.899 8.112 142.283 8.496 142.811 8.496C143.339 8.496 143.723 8.112 143.723 7.584C143.723 7.088 143.323 6.672 142.811 6.672C142.299 6.672 141.899 7.088 141.899 7.584ZM151.662 15.904C151.07 16.656 150.35 17.04 149.278 17.04C147.918 17.04 146.926 15.936 146.83 14.64H152.878V14.24C152.878 11.76 151.438 10.32 149.326 10.32C147.118 10.32 145.486 11.936 145.486 14.256C145.486 16.432 146.926 18.192 149.278 18.192C150.67 18.192 151.726 17.776 152.606 16.64L151.662 15.904ZM146.83 13.584C146.99 12.32 147.902 11.472 149.278 11.472C150.654 11.472 151.486 12.32 151.534 13.584H146.83ZM154.921 18H156.169V5.904H154.921V18ZM164.877 18H166.125V5.904H164.877V11.6H164.845C164.157 10.8 163.245 10.32 162.157 10.32C159.805 10.32 158.221 11.984 158.221 14.256C158.221 16.496 159.869 18.192 161.965 18.192C163.309 18.192 164.381 17.52 164.845 16.672H164.877V18ZM164.877 14.256C164.877 15.824 163.837 17.04 162.221 17.04C160.605 17.04 159.565 15.824 159.565 14.256C159.565 12.688 160.605 11.472 162.221 11.472C163.837 11.472 164.877 12.688 164.877 14.256ZM173.111 18H179.639V16.752H174.455V6.672H173.111V18ZM181.575 12.288C182.167 11.744 182.999 11.472 183.799 11.472C184.967 11.472 185.655 12.032 185.655 13.12V13.344H185.175C183.335 13.344 180.455 13.488 180.455 15.968C180.455 17.424 181.719 18.192 183.239 18.192C184.375 18.192 185.207 17.648 185.703 16.88H185.735C185.735 17.2 185.735 17.664 185.815 18H187.015C186.951 17.616 186.903 17.136 186.903 16.704V13.488C186.903 11.376 185.975 10.32 183.767 10.32C182.679 10.32 181.559 10.688 180.791 11.472L181.575 12.288ZM185.655 14.4V14.88C185.623 16.096 184.887 17.136 183.447 17.136C182.503 17.136 181.799 16.784 181.799 15.84C181.799 14.832 182.823 14.4 184.407 14.4H185.655ZM189.12 18H190.368V16.672H190.4C190.864 17.52 191.936 18.192 193.28 18.192C195.376 18.192 197.024 16.496 197.024 14.256C197.024 11.984 195.44 10.32 193.088 10.32C192 10.32 191.088 10.8 190.4 11.6H190.368V5.904H189.12V18ZM190.368 14.256C190.368 12.688 191.408 11.472 193.024 11.472C194.64 11.472 195.68 12.688 195.68 14.256C195.68 15.824 194.64 17.04 193.024 17.04C191.408 17.04 190.368 15.824 190.368 14.256ZM204.709 15.904C204.117 16.656 203.397 17.04 202.325 17.04C200.965 17.04 199.973 15.936 199.877 14.64H205.925V14.24C205.925 11.76 204.485 10.32 202.373 10.32C200.165 10.32 198.533 11.936 198.533 14.256C198.533 16.432 199.973 18.192 202.325 18.192C203.717 18.192 204.773 17.776 205.653 16.64L204.709 15.904ZM199.877 13.584C200.037 12.32 200.949 11.472 202.325 11.472C203.701 11.472 204.533 12.32 204.581 13.584H199.877ZM207.968 18H209.216V5.904H207.968V18Z" fill="#333333"/>
<path opacity="0.8" d="M219.384 4.672H218.04V6.944L215.864 6.192L215.448 7.472L217.64 8.224L216.264 10.032L217.336 10.848L218.68 9.008L220.056 10.896L221.16 10.096L219.784 8.224L221.96 7.52L221.544 6.24L219.384 6.944V4.672Z" fill="#DB3259"/>
</g>
<rect x="132.5" y="28.5" width="319" height="83" rx="3.5" fill="white"/>
<path opacity="0.5" d="M145.408 50H146.752V38.672H145.408V50ZM149.34 50H150.588V46.352C150.588 44.64 151.292 43.472 152.908 43.472C154.076 43.472 154.62 44.256 154.62 45.504V50H155.868V45.376C155.868 43.568 154.988 42.32 153.02 42.32C151.788 42.32 150.86 43.008 150.524 43.744H150.492C150.492 43.328 150.46 42.912 150.46 42.512H149.276C149.276 43.008 149.34 43.6 149.34 44.288V50ZM158.167 53.648H159.415V48.672H159.447C159.911 49.52 160.983 50.192 162.327 50.192C164.423 50.192 166.071 48.496 166.071 46.256C166.071 43.984 164.487 42.32 162.135 42.32C161.047 42.32 160.135 42.8 159.447 43.6H159.415V42.512H158.167V53.648ZM159.415 46.256C159.415 44.688 160.455 43.472 162.071 43.472C163.687 43.472 164.727 44.688 164.727 46.256C164.727 47.824 163.687 49.04 162.071 49.04C160.455 49.04 159.415 47.824 159.415 46.256ZM174.54 42.512H173.292V46.16C173.292 47.872 172.588 49.04 170.972 49.04C169.804 49.04 169.26 48.256 169.26 47.008V42.512H168.012V47.136C168.012 48.944 168.892 50.192 170.86 50.192C172.092 50.192 173.02 49.504 173.356 48.768H173.388C173.388 49.184 173.42 49.6 173.42 50H174.604C174.604 49.504 174.54 48.912 174.54 48.224V42.512ZM180.999 42.512H178.791V40.384H177.543V42.512H175.911V43.568H177.543V47.68C177.543 49.232 177.831 50.192 179.607 50.192C180.071 50.192 180.631 50.112 181.063 49.92L181.015 48.784C180.679 48.96 180.279 49.04 179.911 49.04C178.807 49.04 178.791 48.272 178.791 47.312V43.568H180.999V42.512Z" fill="#9EA6B5"/>
<rect x="132.5" y="28.5" width="319" height="83" rx="3.5" stroke="#9EA6B5"/>
<path d="M1.408 180H2.752V170.592H2.784L9.344 180H11.04V168.672H9.696V178.08H9.664L3.104 168.672H1.408V180ZM13.2051 176.256C13.2051 178.592 14.9011 180.192 17.2051 180.192C19.5091 180.192 21.2051 178.592 21.2051 176.256C21.2051 173.92 19.5091 172.32 17.2051 172.32C14.9011 172.32 13.2051 173.92 13.2051 176.256ZM14.5491 176.256C14.5491 174.688 15.5891 173.472 17.2051 173.472C18.8211 173.472 19.8611 174.688 19.8611 176.256C19.8611 177.824 18.8211 179.04 17.2051 179.04C15.5891 179.04 14.5491 177.824 14.5491 176.256ZM27.2331 172.512H25.0251V170.384H23.7771V172.512H22.1451V173.568H23.7771V177.68C23.7771 179.232 24.0651 180.192 25.8411 180.192C26.3051 180.192 26.8651 180.112 27.2971 179.92L27.2491 178.784C26.9131 178.96 26.5131 179.04 26.1451 179.04C25.0411 179.04 25.0251 178.272 25.0251 177.312V173.568H27.2331V172.512ZM33.4393 180H34.7833V174.912H36.5113L39.5833 180H41.2313L38.0153 174.784C39.7753 174.512 40.8472 173.44 40.8472 171.792C40.8472 168.992 38.5273 168.672 36.3353 168.672H33.4393V180ZM34.7833 169.92H36.6713C37.9833 169.92 39.4073 170.16 39.4073 171.792C39.4073 173.664 37.4713 173.664 35.9833 173.664H34.7833V169.92ZM48.7405 177.904C48.1485 178.656 47.4285 179.04 46.3565 179.04C44.9965 179.04 44.0045 177.936 43.9085 176.64H49.9565V176.24C49.9565 173.76 48.5165 172.32 46.4045 172.32C44.1965 172.32 42.5645 173.936 42.5645 176.256C42.5645 178.432 44.0045 180.192 46.3565 180.192C47.7485 180.192 48.8045 179.776 49.6845 178.64L48.7405 177.904ZM43.9085 175.584C44.0685 174.32 44.9805 173.472 46.3565 173.472C47.7325 173.472 48.5645 174.32 48.6125 175.584H43.9085ZM59.3591 172.512H58.1111V173.84H58.0791C57.6151 172.992 56.5431 172.32 55.1991 172.32C53.1031 172.32 51.4551 174.016 51.4551 176.256C51.4551 178.528 53.0391 180.192 55.3911 180.192C56.4791 180.192 57.3911 179.712 58.0791 178.912H58.1111V183.648H59.3591V172.512ZM58.1111 176.256C58.1111 177.824 57.0711 179.04 55.4551 179.04C53.8391 179.04 52.7991 177.824 52.7991 176.256C52.7991 174.688 53.8391 173.472 55.4551 173.472C57.0711 173.472 58.1111 174.688 58.1111 176.256ZM68.1964 172.512H66.9484V176.16C66.9484 177.872 66.2444 179.04 64.6284 179.04C63.4604 179.04 62.9164 178.256 62.9164 177.008V172.512H61.6684V177.136C61.6684 178.944 62.5484 180.192 64.5164 180.192C65.7484 180.192 66.6764 179.504 67.0124 178.768H67.0444C67.0444 179.184 67.0764 179.6 67.0764 180H68.2604C68.2604 179.504 68.1964 178.912 68.1964 178.224V172.512ZM70.671 180H71.919V172.512H70.671V180ZM70.383 169.584C70.383 170.112 70.767 170.496 71.295 170.496C71.823 170.496 72.207 170.112 72.207 169.584C72.207 169.088 71.807 168.672 71.295 168.672C70.783 168.672 70.383 169.088 70.383 169.584ZM74.4028 180H75.6508V176.352C75.6508 174.64 76.3228 173.568 77.8428 173.568C78.0668 173.568 78.3068 173.6 78.5148 173.664L78.5948 172.4C78.4188 172.336 78.2428 172.32 78.0828 172.32C76.8508 172.32 75.9228 173.008 75.5868 173.744H75.5548C75.5548 173.328 75.5228 172.912 75.5228 172.512H74.3388C74.3388 173.008 74.4028 173.6 74.4028 174.288V180ZM85.4905 177.904C84.8985 178.656 84.1785 179.04 83.1065 179.04C81.7465 179.04 80.7545 177.936 80.6585 176.64H86.7065V176.24C86.7065 173.76 85.2665 172.32 83.1545 172.32C80.9465 172.32 79.3145 173.936 79.3145 176.256C79.3145 178.432 80.7545 180.192 83.1065 180.192C84.4985 180.192 85.5545 179.776 86.4345 178.64L85.4905 177.904ZM80.6585 175.584C80.8185 174.32 81.7305 173.472 83.1065 173.472C84.4825 173.472 85.3145 174.32 85.3625 175.584H80.6585ZM94.8611 180H96.1091V167.904H94.8611V173.6H94.8291C94.1411 172.8 93.2291 172.32 92.1411 172.32C89.7891 172.32 88.2051 173.984 88.2051 176.256C88.2051 178.496 89.8531 180.192 91.9491 180.192C93.2931 180.192 94.3651 179.52 94.8291 178.672H94.8611V180ZM94.8611 176.256C94.8611 177.824 93.8211 179.04 92.2051 179.04C90.5891 179.04 89.5491 177.824 89.5491 176.256C89.5491 174.688 90.5891 173.472 92.2051 173.472C93.8211 173.472 94.8611 174.688 94.8611 176.256Z" fill="black"/>
<g clip-path="url(#clip1_22_4803)">
<path d="M133.408 138H134.752V132.912H140.032V131.664H134.752V127.92H140.432V126.672H133.408V138ZM142.187 138H143.435V130.512H142.187V138ZM141.899 127.584C141.899 128.112 142.283 128.496 142.811 128.496C143.339 128.496 143.723 128.112 143.723 127.584C143.723 127.088 143.323 126.672 142.811 126.672C142.299 126.672 141.899 127.088 141.899 127.584ZM151.662 135.904C151.07 136.656 150.35 137.04 149.278 137.04C147.918 137.04 146.926 135.936 146.83 134.64H152.878V134.24C152.878 131.76 151.438 130.32 149.326 130.32C147.118 130.32 145.486 131.936 145.486 134.256C145.486 136.432 146.926 138.192 149.278 138.192C150.67 138.192 151.726 137.776 152.606 136.64L151.662 135.904ZM146.83 133.584C146.99 132.32 147.902 131.472 149.278 131.472C150.654 131.472 151.486 132.32 151.534 133.584H146.83ZM154.921 138H156.169V125.904H154.921V138ZM164.877 138H166.125V125.904H164.877V131.6H164.845C164.157 130.8 163.245 130.32 162.157 130.32C159.805 130.32 158.221 131.984 158.221 134.256C158.221 136.496 159.869 138.192 161.965 138.192C163.309 138.192 164.381 137.52 164.845 136.672H164.877V138ZM164.877 134.256C164.877 135.824 163.837 137.04 162.221 137.04C160.605 137.04 159.565 135.824 159.565 134.256C159.565 132.688 160.605 131.472 162.221 131.472C163.837 131.472 164.877 132.688 164.877 134.256ZM173.111 138H179.639V136.752H174.455V126.672H173.111V138ZM181.575 132.288C182.167 131.744 182.999 131.472 183.799 131.472C184.967 131.472 185.655 132.032 185.655 133.12V133.344H185.175C183.335 133.344 180.455 133.488 180.455 135.968C180.455 137.424 181.719 138.192 183.239 138.192C184.375 138.192 185.207 137.648 185.703 136.88H185.735C185.735 137.2 185.735 137.664 185.815 138H187.015C186.951 137.616 186.903 137.136 186.903 136.704V133.488C186.903 131.376 185.975 130.32 183.767 130.32C182.679 130.32 181.559 130.688 180.791 131.472L181.575 132.288ZM185.655 134.4V134.88C185.623 136.096 184.887 137.136 183.447 137.136C182.503 137.136 181.799 136.784 181.799 135.84C181.799 134.832 182.823 134.4 184.407 134.4H185.655ZM189.12 138H190.368V136.672H190.4C190.864 137.52 191.936 138.192 193.28 138.192C195.376 138.192 197.024 136.496 197.024 134.256C197.024 131.984 195.44 130.32 193.088 130.32C192 130.32 191.088 130.8 190.4 131.6H190.368V125.904H189.12V138ZM190.368 134.256C190.368 132.688 191.408 131.472 193.024 131.472C194.64 131.472 195.68 132.688 195.68 134.256C195.68 135.824 194.64 137.04 193.024 137.04C191.408 137.04 190.368 135.824 190.368 134.256ZM204.709 135.904C204.117 136.656 203.397 137.04 202.325 137.04C200.965 137.04 199.973 135.936 199.877 134.64H205.925V134.24C205.925 131.76 204.485 130.32 202.373 130.32C200.165 130.32 198.533 131.936 198.533 134.256C198.533 136.432 199.973 138.192 202.325 138.192C203.717 138.192 204.773 137.776 205.653 136.64L204.709 135.904ZM199.877 133.584C200.037 132.32 200.949 131.472 202.325 131.472C203.701 131.472 204.533 132.32 204.581 133.584H199.877ZM207.968 138H209.216V125.904H207.968V138Z" fill="#333333"/>
</g>
<rect x="132.5" y="148.5" width="319" height="83" rx="3.5" fill="white"/>
<path opacity="0.5" d="M145.408 170H146.752V158.672H145.408V170ZM149.34 170H150.588V166.352C150.588 164.64 151.292 163.472 152.908 163.472C154.076 163.472 154.62 164.256 154.62 165.504V170H155.868V165.376C155.868 163.568 154.988 162.32 153.02 162.32C151.788 162.32 150.86 163.008 150.524 163.744H150.492C150.492 163.328 150.46 162.912 150.46 162.512H149.276C149.276 163.008 149.34 163.6 149.34 164.288V170ZM158.167 173.648H159.415V168.672H159.447C159.911 169.52 160.983 170.192 162.327 170.192C164.423 170.192 166.071 168.496 166.071 166.256C166.071 163.984 164.487 162.32 162.135 162.32C161.047 162.32 160.135 162.8 159.447 163.6H159.415V162.512H158.167V173.648ZM159.415 166.256C159.415 164.688 160.455 163.472 162.071 163.472C163.687 163.472 164.727 164.688 164.727 166.256C164.727 167.824 163.687 169.04 162.071 169.04C160.455 169.04 159.415 167.824 159.415 166.256ZM174.54 162.512H173.292V166.16C173.292 167.872 172.588 169.04 170.972 169.04C169.804 169.04 169.26 168.256 169.26 167.008V162.512H168.012V167.136C168.012 168.944 168.892 170.192 170.86 170.192C172.092 170.192 173.02 169.504 173.356 168.768H173.388C173.388 169.184 173.42 169.6 173.42 170H174.604C174.604 169.504 174.54 168.912 174.54 168.224V162.512ZM180.999 162.512H178.791V160.384H177.543V162.512H175.911V163.568H177.543V167.68C177.543 169.232 177.831 170.192 179.607 170.192C180.071 170.192 180.631 170.112 181.063 169.92L181.015 168.784C180.679 168.96 180.279 169.04 179.911 169.04C178.807 169.04 178.791 168.272 178.791 167.312V163.568H180.999V162.512Z" fill="#9EA6B5"/>
<rect x="132.5" y="148.5" width="319" height="83" rx="3.5" stroke="#9EA6B5"/>
<path d="M1.408 298.5H2.752V293.412H4.48L7.552 298.5H9.2L5.984 293.284C7.744 293.012 8.816 291.94 8.816 290.292C8.816 287.492 6.496 287.172 4.304 287.172H1.408V298.5ZM2.752 288.42H4.64C5.952 288.42 7.376 288.66 7.376 290.292C7.376 292.164 5.44 292.164 3.952 292.164H2.752V288.42ZM16.7093 296.404C16.1173 297.156 15.3973 297.54 14.3253 297.54C12.9653 297.54 11.9733 296.436 11.8773 295.14H17.9253V294.74C17.9253 292.26 16.4853 290.82 14.3733 290.82C12.1653 290.82 10.5333 292.436 10.5333 294.756C10.5333 296.932 11.9733 298.692 14.3253 298.692C15.7173 298.692 16.7733 298.276 17.6533 297.14L16.7093 296.404ZM11.8773 294.084C12.0373 292.82 12.9493 291.972 14.3253 291.972C15.7013 291.972 16.5333 292.82 16.5813 294.084H11.8773ZM27.3279 291.012H26.0799V292.34H26.0479C25.5839 291.492 24.5119 290.82 23.1679 290.82C21.0719 290.82 19.4239 292.516 19.4239 294.756C19.4239 297.028 21.0079 298.692 23.3599 298.692C24.4479 298.692 25.3599 298.212 26.0479 297.412H26.0799V302.148H27.3279V291.012ZM26.0799 294.756C26.0799 296.324 25.0399 297.54 23.4239 297.54C21.8079 297.54 20.7679 296.324 20.7679 294.756C20.7679 293.188 21.8079 291.972 23.4239 291.972C25.0399 291.972 26.0799 293.188 26.0799 294.756ZM36.1651 291.012H34.9171V294.66C34.9171 296.372 34.2131 297.54 32.5971 297.54C31.4291 297.54 30.8851 296.756 30.8851 295.508V291.012H29.6371V295.636C29.6371 297.444 30.5171 298.692 32.4851 298.692C33.7171 298.692 34.6451 298.004 34.9811 297.268H35.0131C35.0131 297.684 35.0451 298.1 35.0451 298.5H36.2291C36.2291 298.004 36.1651 297.412 36.1651 296.724V291.012ZM38.6398 298.5H39.8878V291.012H38.6398V298.5ZM38.3518 288.084C38.3518 288.612 38.7358 288.996 39.2638 288.996C39.7918 288.996 40.1758 288.612 40.1758 288.084C40.1758 287.588 39.7758 287.172 39.2638 287.172C38.7518 287.172 38.3518 287.588 38.3518 288.084ZM42.3715 298.5H43.6195V294.852C43.6195 293.14 44.2915 292.068 45.8115 292.068C46.0355 292.068 46.2755 292.1 46.4835 292.164L46.5635 290.9C46.3875 290.836 46.2115 290.82 46.0515 290.82C44.8195 290.82 43.8915 291.508 43.5555 292.244H43.5235C43.5235 291.828 43.4915 291.412 43.4915 291.012H42.3075C42.3075 291.508 42.3715 292.1 42.3715 292.788V298.5ZM53.4593 296.404C52.8673 297.156 52.1473 297.54 51.0753 297.54C49.7153 297.54 48.7233 296.436 48.6273 295.14H54.6753V294.74C54.6753 292.26 53.2353 290.82 51.1233 290.82C48.9153 290.82 47.2833 292.436 47.2833 294.756C47.2833 296.932 48.7233 298.692 51.0753 298.692C52.4673 298.692 53.5233 298.276 54.4033 297.14L53.4593 296.404ZM48.6273 294.084C48.7873 292.82 49.6993 291.972 51.0753 291.972C52.4513 291.972 53.2833 292.82 53.3313 294.084H48.6273ZM62.8299 298.5H64.0779V286.404H62.8299V292.1H62.7979C62.1099 291.3 61.1979 290.82 60.1099 290.82C57.7579 290.82 56.1739 292.484 56.1739 294.756C56.1739 296.996 57.8219 298.692 59.9179 298.692C61.2619 298.692 62.3339 298.02 62.7979 297.172H62.8299V298.5ZM62.8299 294.756C62.8299 296.324 61.7899 297.54 60.1739 297.54C58.5579 297.54 57.5179 296.324 57.5179 294.756C57.5179 293.188 58.5579 291.972 60.1739 291.972C61.7899 291.972 62.8299 293.188 62.8299 294.756ZM81.2883 291.012H79.9443L78.2483 296.772H78.2163L76.2483 291.012H74.9363L73.0003 296.772H72.9683L71.2563 291.012H69.8803L72.3123 298.5H73.5923L75.4803 292.74H75.5123L77.6403 298.5H78.8723L81.2883 291.012ZM87.3876 286.884L86.3796 286.5L81.5636 298.788L82.5716 299.188L87.3876 286.884ZM1.184 322.5H2.432V318.852C2.432 317.14 3.136 315.972 4.752 315.972C5.92 315.972 6.464 316.756 6.464 318.004V322.5H7.712V317.876C7.712 316.068 6.832 314.82 4.864 314.82C3.696 314.82 2.8 315.46 2.464 316.052H2.432V310.404H1.184V322.5ZM15.8186 320.404C15.2266 321.156 14.5066 321.54 13.4346 321.54C12.0746 321.54 11.0826 320.436 10.9866 319.14H17.0346V318.74C17.0346 316.26 15.5946 314.82 13.4826 314.82C11.2746 314.82 9.64263 316.436 9.64263 318.756C9.64263 320.932 11.0826 322.692 13.4346 322.692C14.8266 322.692 15.8826 322.276 16.7626 321.14L15.8186 320.404ZM10.9866 318.084C11.1466 316.82 12.0586 315.972 13.4346 315.972C14.8106 315.972 15.6426 316.82 15.6906 318.084H10.9866ZM19.0773 322.5H20.3253V310.404H19.0773V322.5ZM22.745 326.148H23.993V321.172H24.025C24.489 322.02 25.561 322.692 26.905 322.692C29.001 322.692 30.649 320.996 30.649 318.756C30.649 316.484 29.065 314.82 26.713 314.82C25.625 314.82 24.713 315.3 24.025 316.1H23.993V315.012H22.745V326.148ZM23.993 318.756C23.993 317.188 25.033 315.972 26.649 315.972C28.265 315.972 29.305 317.188 29.305 318.756C29.305 320.324 28.265 321.54 26.649 321.54C25.033 321.54 23.993 320.324 23.993 318.756ZM41.1394 315.012H38.9314V312.884H37.6834V315.012H36.0514V316.068H37.6834V320.18C37.6834 321.732 37.9714 322.692 39.7474 322.692C40.2114 322.692 40.7714 322.612 41.2034 322.42L41.1554 321.284C40.8194 321.46 40.4194 321.54 40.0514 321.54C38.9474 321.54 38.9314 320.772 38.9314 319.812V316.068H41.1394V315.012ZM48.4124 320.404C47.8204 321.156 47.1004 321.54 46.0284 321.54C44.6684 321.54 43.6764 320.436 43.5804 319.14H49.6284V318.74C49.6284 316.26 48.1884 314.82 46.0764 314.82C43.8684 314.82 42.2364 316.436 42.2364 318.756C42.2364 320.932 43.6764 322.692 46.0284 322.692C47.4204 322.692 48.4764 322.276 49.3564 321.14L48.4124 320.404ZM43.5804 318.084C43.7404 316.82 44.6524 315.972 46.0284 315.972C47.4044 315.972 48.2364 316.82 48.2844 318.084H43.5804ZM50.423 322.5H51.975L54.311 319.268L56.679 322.5H58.327L55.239 318.468L57.815 315.012H56.295L54.423 317.7L52.439 315.012H50.807L53.495 318.468L50.423 322.5ZM63.655 315.012H61.447V312.884H60.199V315.012H58.567V316.068H60.199V320.18C60.199 321.732 60.487 322.692 62.263 322.692C62.727 322.692 63.287 322.612 63.719 322.42L63.671 321.284C63.335 321.46 62.935 321.54 62.567 321.54C61.463 321.54 61.447 320.772 61.447 319.812V316.068H63.655V315.012Z" fill="black"/>
<g clip-path="url(#clip2_22_4803)">
<path d="M133.408 258H134.752V252.912H140.032V251.664H134.752V247.92H140.432V246.672H133.408V258ZM142.187 258H143.435V250.512H142.187V258ZM141.899 247.584C141.899 248.112 142.283 248.496 142.811 248.496C143.339 248.496 143.723 248.112 143.723 247.584C143.723 247.088 143.323 246.672 142.811 246.672C142.299 246.672 141.899 247.088 141.899 247.584ZM151.662 255.904C151.07 256.656 150.35 257.04 149.278 257.04C147.918 257.04 146.926 255.936 146.83 254.64H152.878V254.24C152.878 251.76 151.438 250.32 149.326 250.32C147.118 250.32 145.486 251.936 145.486 254.256C145.486 256.432 146.926 258.192 149.278 258.192C150.67 258.192 151.726 257.776 152.606 256.64L151.662 255.904ZM146.83 253.584C146.99 252.32 147.902 251.472 149.278 251.472C150.654 251.472 151.486 252.32 151.534 253.584H146.83ZM154.921 258H156.169V245.904H154.921V258ZM164.877 258H166.125V245.904H164.877V251.6H164.845C164.157 250.8 163.245 250.32 162.157 250.32C159.805 250.32 158.221 251.984 158.221 254.256C158.221 256.496 159.869 258.192 161.965 258.192C163.309 258.192 164.381 257.52 164.845 256.672H164.877V258ZM164.877 254.256C164.877 255.824 163.837 257.04 162.221 257.04C160.605 257.04 159.565 255.824 159.565 254.256C159.565 252.688 160.605 251.472 162.221 251.472C163.837 251.472 164.877 252.688 164.877 254.256ZM173.111 258H179.639V256.752H174.455V246.672H173.111V258ZM181.575 252.288C182.167 251.744 182.999 251.472 183.799 251.472C184.967 251.472 185.655 252.032 185.655 253.12V253.344H185.175C183.335 253.344 180.455 253.488 180.455 255.968C180.455 257.424 181.719 258.192 183.239 258.192C184.375 258.192 185.207 257.648 185.703 256.88H185.735C185.735 257.2 185.735 257.664 185.815 258H187.015C186.951 257.616 186.903 257.136 186.903 256.704V253.488C186.903 251.376 185.975 250.32 183.767 250.32C182.679 250.32 181.559 250.688 180.791 251.472L181.575 252.288ZM185.655 254.4V254.88C185.623 256.096 184.887 257.136 183.447 257.136C182.503 257.136 181.799 256.784 181.799 255.84C181.799 254.832 182.823 254.4 184.407 254.4H185.655ZM189.12 258H190.368V256.672H190.4C190.864 257.52 191.936 258.192 193.28 258.192C195.376 258.192 197.024 256.496 197.024 254.256C197.024 251.984 195.44 250.32 193.088 250.32C192 250.32 191.088 250.8 190.4 251.6H190.368V245.904H189.12V258ZM190.368 254.256C190.368 252.688 191.408 251.472 193.024 251.472C194.64 251.472 195.68 252.688 195.68 254.256C195.68 255.824 194.64 257.04 193.024 257.04C191.408 257.04 190.368 255.824 190.368 254.256ZM204.709 255.904C204.117 256.656 203.397 257.04 202.325 257.04C200.965 257.04 199.973 255.936 199.877 254.64H205.925V254.24C205.925 251.76 204.485 250.32 202.373 250.32C200.165 250.32 198.533 251.936 198.533 254.256C198.533 256.432 199.973 258.192 202.325 258.192C203.717 258.192 204.773 257.776 205.653 256.64L204.709 255.904ZM199.877 253.584C200.037 252.32 200.949 251.472 202.325 251.472C203.701 251.472 204.533 252.32 204.581 253.584H199.877ZM207.968 258H209.216V245.904H207.968V258Z" fill="#333333"/>
<path opacity="0.8" d="M219.384 244.672H218.04V246.944L215.864 246.192L215.448 247.472L217.64 248.224L216.264 250.032L217.336 250.848L218.68 249.008L220.056 250.896L221.16 250.096L219.784 248.224L221.96 247.52L221.544 246.24L219.384 246.944V244.672Z" fill="#DB3259"/>
</g>
<rect x="132.5" y="268.5" width="319" height="83" rx="3.5" fill="white"/>
<path opacity="0.5" d="M145.408 290H146.752V278.672H145.408V290ZM149.34 290H150.588V286.352C150.588 284.64 151.292 283.472 152.908 283.472C154.076 283.472 154.62 284.256 154.62 285.504V290H155.868V285.376C155.868 283.568 154.988 282.32 153.02 282.32C151.788 282.32 150.86 283.008 150.524 283.744H150.492C150.492 283.328 150.46 282.912 150.46 282.512H149.276C149.276 283.008 149.34 283.6 149.34 284.288V290ZM158.167 293.648H159.415V288.672H159.447C159.911 289.52 160.983 290.192 162.327 290.192C164.423 290.192 166.071 288.496 166.071 286.256C166.071 283.984 164.487 282.32 162.135 282.32C161.047 282.32 160.135 282.8 159.447 283.6H159.415V282.512H158.167V293.648ZM159.415 286.256C159.415 284.688 160.455 283.472 162.071 283.472C163.687 283.472 164.727 284.688 164.727 286.256C164.727 287.824 163.687 289.04 162.071 289.04C160.455 289.04 159.415 287.824 159.415 286.256ZM174.54 282.512H173.292V286.16C173.292 287.872 172.588 289.04 170.972 289.04C169.804 289.04 169.26 288.256 169.26 287.008V282.512H168.012V287.136C168.012 288.944 168.892 290.192 170.86 290.192C172.092 290.192 173.02 289.504 173.356 288.768H173.388C173.388 289.184 173.42 289.6 173.42 290H174.604C174.604 289.504 174.54 288.912 174.54 288.224V282.512ZM180.999 282.512H178.791V280.384H177.543V282.512H175.911V283.568H177.543V287.68C177.543 289.232 177.831 290.192 179.607 290.192C180.071 290.192 180.631 290.112 181.063 289.92L181.015 288.784C180.679 288.96 180.279 289.04 179.911 289.04C178.807 289.04 178.791 288.272 178.791 287.312V283.568H180.999V282.512Z" fill="#9EA6B5"/>
<rect x="132.5" y="268.5" width="319" height="83" rx="3.5" stroke="#9EA6B5"/>
<g clip-path="url(#clip3_22_4803)">
<path d="M139.882 357.088H132.154V358.18H135.43V367H136.606V358.18H139.882V357.088ZM141.075 367H142.167V363.808C142.167 362.31 142.783 361.288 144.197 361.288C145.219 361.288 145.695 361.974 145.695 363.066V367H146.787V362.954C146.787 361.372 146.017 360.28 144.295 360.28C143.273 360.28 142.489 360.84 142.195 361.358H142.167V356.416H141.075V367ZM148.952 367H150.044V360.448H148.952V367ZM148.7 357.886C148.7 358.348 149.036 358.684 149.498 358.684C149.96 358.684 150.296 358.348 150.296 357.886C150.296 357.452 149.946 357.088 149.498 357.088C149.05 357.088 148.7 357.452 148.7 357.886ZM151.49 365.95C152.134 366.874 152.932 367.168 154.038 367.168C155.34 367.168 156.656 366.594 156.656 365.11C156.656 363.794 155.676 363.374 154.514 363.15C153.646 362.982 152.862 362.744 152.862 362.198C152.862 361.582 153.548 361.288 154.15 361.288C154.794 361.288 155.256 361.61 155.536 362.072L156.446 361.47C155.998 360.63 155.144 360.28 154.22 360.28C153.002 360.28 151.77 360.938 151.77 362.212C151.77 363.57 152.834 363.836 154.08 364.116C154.78 364.27 155.48 364.452 155.48 365.152C155.48 365.866 154.724 366.16 154.038 366.16C153.268 366.16 152.792 365.81 152.358 365.278L151.49 365.95ZM162.173 367H163.265V360.448H162.173V367ZM161.921 357.886C161.921 358.348 162.257 358.684 162.719 358.684C163.181 358.684 163.517 358.348 163.517 357.886C163.517 357.452 163.167 357.088 162.719 357.088C162.271 357.088 161.921 357.452 161.921 357.886ZM164.71 365.95C165.354 366.874 166.152 367.168 167.258 367.168C168.56 367.168 169.876 366.594 169.876 365.11C169.876 363.794 168.896 363.374 167.734 363.15C166.866 362.982 166.082 362.744 166.082 362.198C166.082 361.582 166.768 361.288 167.37 361.288C168.014 361.288 168.476 361.61 168.756 362.072L169.666 361.47C169.218 360.63 168.364 360.28 167.44 360.28C166.222 360.28 164.99 360.938 164.99 362.212C164.99 363.57 166.054 363.836 167.3 364.116C168 364.27 168.7 364.452 168.7 365.152C168.7 365.866 167.944 366.16 167.258 366.16C166.488 366.16 166.012 365.81 165.578 365.278L164.71 365.95ZM178.88 360.448H176.948V358.586H175.856V360.448H174.428V361.372H175.856V364.97C175.856 366.328 176.108 367.168 177.662 367.168C178.068 367.168 178.558 367.098 178.936 366.93L178.894 365.936C178.6 366.09 178.25 366.16 177.928 366.16C176.962 366.16 176.948 365.488 176.948 364.648V361.372H178.88V360.448ZM180.218 367H181.31V363.808C181.31 362.31 181.926 361.288 183.34 361.288C184.362 361.288 184.838 361.974 184.838 363.066V367H185.93V362.954C185.93 361.372 185.16 360.28 183.438 360.28C182.416 360.28 181.632 360.84 181.338 361.358H181.31V356.416H180.218V367ZM193.023 365.166C192.505 365.824 191.875 366.16 190.937 366.16C189.747 366.16 188.879 365.194 188.795 364.06H194.087V363.71C194.087 361.54 192.827 360.28 190.979 360.28C189.047 360.28 187.619 361.694 187.619 363.724C187.619 365.628 188.879 367.168 190.937 367.168C192.155 367.168 193.079 366.804 193.849 365.81L193.023 365.166ZM188.795 363.136C188.935 362.03 189.733 361.288 190.937 361.288C192.141 361.288 192.869 362.03 192.911 363.136H188.795ZM205.119 367H206.211V356.416H205.119V361.4H205.091C204.489 360.7 203.691 360.28 202.739 360.28C200.681 360.28 199.295 361.736 199.295 363.724C199.295 365.684 200.737 367.168 202.571 367.168C203.747 367.168 204.685 366.58 205.091 365.838H205.119V367ZM205.119 363.724C205.119 365.096 204.209 366.16 202.795 366.16C201.381 366.16 200.471 365.096 200.471 363.724C200.471 362.352 201.381 361.288 202.795 361.288C204.209 361.288 205.119 362.352 205.119 363.724ZM213.257 365.166C212.739 365.824 212.109 366.16 211.171 366.16C209.981 366.16 209.113 365.194 209.029 364.06H214.321V363.71C214.321 361.54 213.061 360.28 211.213 360.28C209.281 360.28 207.853 361.694 207.853 363.724C207.853 365.628 209.113 367.168 211.171 367.168C212.389 367.168 213.313 366.804 214.083 365.81L213.257 365.166ZM209.029 363.136C209.169 362.03 209.967 361.288 211.171 361.288C212.375 361.288 213.103 362.03 213.145 363.136H209.029ZM215.283 365.95C215.927 366.874 216.725 367.168 217.831 367.168C219.133 367.168 220.449 366.594 220.449 365.11C220.449 363.794 219.469 363.374 218.307 363.15C217.439 362.982 216.655 362.744 216.655 362.198C216.655 361.582 217.341 361.288 217.943 361.288C218.587 361.288 219.049 361.61 219.329 362.072L220.239 361.47C219.791 360.63 218.937 360.28 218.013 360.28C216.795 360.28 215.563 360.938 215.563 362.212C215.563 363.57 216.627 363.836 217.873 364.116C218.573 364.27 219.273 364.452 219.273 365.152C219.273 365.866 218.517 366.16 217.831 366.16C217.061 366.16 216.585 365.81 216.151 365.278L215.283 365.95ZM227.502 361.316C226.844 360.602 225.948 360.28 224.982 360.28C222.966 360.28 221.594 361.736 221.594 363.724C221.594 365.74 222.952 367.168 224.982 367.168C225.934 367.168 226.83 366.846 227.46 366.118L226.648 365.348C226.242 365.908 225.696 366.16 224.982 366.16C223.652 366.16 222.77 365.068 222.77 363.724C222.77 362.38 223.512 361.288 224.982 361.288C225.64 361.288 226.172 361.526 226.634 362.086L227.502 361.316ZM228.725 367H229.817V363.808C229.817 362.31 230.405 361.372 231.735 361.372C231.931 361.372 232.141 361.4 232.323 361.456L232.393 360.35C232.239 360.294 232.085 360.28 231.945 360.28C230.867 360.28 230.055 360.882 229.761 361.526H229.733C229.733 361.162 229.705 360.798 229.705 360.448H228.669C228.669 360.882 228.725 361.4 228.725 362.002V367ZM233.745 367H234.837V360.448H233.745V367ZM233.493 357.886C233.493 358.348 233.829 358.684 234.291 358.684C234.753 358.684 235.089 358.348 235.089 357.886C235.089 357.452 234.739 357.088 234.291 357.088C233.843 357.088 233.493 357.452 233.493 357.886ZM236.955 370.192H238.047V365.838H238.075C238.481 366.58 239.419 367.168 240.595 367.168C242.429 367.168 243.871 365.684 243.871 363.724C243.871 361.736 242.485 360.28 240.427 360.28C239.475 360.28 238.677 360.7 238.075 361.4H238.047V360.448H236.955V370.192ZM238.047 363.724C238.047 362.352 238.957 361.288 240.371 361.288C241.785 361.288 242.695 362.352 242.695 363.724C242.695 365.096 241.785 366.16 240.371 366.16C238.957 366.16 238.047 365.096 238.047 363.724ZM249.153 360.448H247.221V358.586H246.129V360.448H244.701V361.372H246.129V364.97C246.129 366.328 246.381 367.168 247.935 367.168C248.341 367.168 248.831 367.098 249.209 366.93L249.167 365.936C248.873 366.09 248.523 366.16 248.201 366.16C247.235 366.16 247.221 365.488 247.221 364.648V361.372H249.153V360.448ZM250.589 367H251.681V360.448H250.589V367ZM250.337 357.886C250.337 358.348 250.673 358.684 251.135 358.684C251.597 358.684 251.933 358.348 251.933 357.886C251.933 357.452 251.583 357.088 251.135 357.088C250.687 357.088 250.337 357.452 250.337 357.886ZM253.476 363.724C253.476 365.768 254.96 367.168 256.976 367.168C258.992 367.168 260.476 365.768 260.476 363.724C260.476 361.68 258.992 360.28 256.976 360.28C254.96 360.28 253.476 361.68 253.476 363.724ZM254.652 363.724C254.652 362.352 255.562 361.288 256.976 361.288C258.39 361.288 259.3 362.352 259.3 363.724C259.3 365.096 258.39 366.16 256.976 366.16C255.562 366.16 254.652 365.096 254.652 363.724ZM262.167 367H263.259V363.808C263.259 362.31 263.875 361.288 265.289 361.288C266.311 361.288 266.787 361.974 266.787 363.066V367H267.879V362.954C267.879 361.372 267.109 360.28 265.387 360.28C264.309 360.28 263.497 360.882 263.203 361.526H263.175C263.175 361.162 263.147 360.798 263.147 360.448H262.111C262.111 360.882 262.167 361.4 262.167 362.002V367ZM274.445 362.002C274.963 361.526 275.691 361.288 276.391 361.288C277.413 361.288 278.015 361.778 278.015 362.73V362.926H277.595C275.985 362.926 273.465 363.052 273.465 365.222C273.465 366.496 274.571 367.168 275.901 367.168C276.895 367.168 277.623 366.692 278.057 366.02H278.085C278.085 366.3 278.085 366.706 278.155 367H279.205C279.149 366.664 279.107 366.244 279.107 365.866V363.052C279.107 361.204 278.295 360.28 276.363 360.28C275.411 360.28 274.431 360.602 273.759 361.288L274.445 362.002ZM278.015 363.85V364.27C277.987 365.334 277.343 366.244 276.083 366.244C275.257 366.244 274.641 365.936 274.641 365.11C274.641 364.228 275.537 363.85 276.923 363.85H278.015ZM281.102 367H282.194V363.808C282.194 362.31 282.782 361.372 284.112 361.372C284.308 361.372 284.518 361.4 284.7 361.456L284.77 360.35C284.616 360.294 284.462 360.28 284.322 360.28C283.244 360.28 282.432 360.882 282.138 361.526H282.11C282.11 361.162 282.082 360.798 282.082 360.448H281.046C281.046 360.882 281.102 361.4 281.102 362.002V367ZM290.804 365.166C290.286 365.824 289.656 366.16 288.718 366.16C287.528 366.16 286.66 365.194 286.576 364.06H291.868V363.71C291.868 361.54 290.608 360.28 288.76 360.28C286.828 360.28 285.4 361.694 285.4 363.724C285.4 365.628 286.66 367.168 288.718 367.168C289.936 367.168 290.86 366.804 291.63 365.81L290.804 365.166ZM286.576 363.136C286.716 362.03 287.514 361.288 288.718 361.288C289.922 361.288 290.65 362.03 290.692 363.136H286.576ZM294.159 362.002C294.677 361.526 295.405 361.288 296.105 361.288C297.127 361.288 297.729 361.778 297.729 362.73V362.926H297.309C295.699 362.926 293.179 363.052 293.179 365.222C293.179 366.496 294.285 367.168 295.615 367.168C296.609 367.168 297.337 366.692 297.771 366.02H297.799C297.799 366.3 297.799 366.706 297.869 367H298.919C298.863 366.664 298.821 366.244 298.821 365.866V363.052C298.821 361.204 298.009 360.28 296.077 360.28C295.125 360.28 294.145 360.602 293.473 361.288L294.159 362.002ZM297.729 363.85V364.27C297.701 365.334 297.057 366.244 295.797 366.244C294.971 366.244 294.355 365.936 294.355 365.11C294.355 364.228 295.251 363.85 296.637 363.85H297.729Z" fill="#333333"/>
</g>
<path d="M1.408 439.5H2.752V430.092H2.784L9.344 439.5H11.04V428.172H9.696V437.58H9.664L3.104 428.172H1.408V439.5ZM13.2051 435.756C13.2051 438.092 14.9011 439.692 17.2051 439.692C19.5091 439.692 21.2051 438.092 21.2051 435.756C21.2051 433.42 19.5091 431.82 17.2051 431.82C14.9011 431.82 13.2051 433.42 13.2051 435.756ZM14.5491 435.756C14.5491 434.188 15.5891 432.972 17.2051 432.972C18.8211 432.972 19.8611 434.188 19.8611 435.756C19.8611 437.324 18.8211 438.54 17.2051 438.54C15.5891 438.54 14.5491 437.324 14.5491 435.756ZM27.2331 432.012H25.0251V429.884H23.7771V432.012H22.1451V433.068H23.7771V437.18C23.7771 438.732 24.0651 439.692 25.8411 439.692C26.3051 439.692 26.8651 439.612 27.2971 439.42L27.2491 438.284C26.9131 438.46 26.5131 438.54 26.1451 438.54C25.0411 438.54 25.0251 437.772 25.0251 436.812V433.068H27.2331V432.012ZM33.2153 439.5H34.4633V435.852C34.4633 434.14 35.1353 433.068 36.6553 433.068C36.8793 433.068 37.1193 433.1 37.3273 433.164L37.4073 431.9C37.2313 431.836 37.0553 431.82 36.8953 431.82C35.6633 431.82 34.7353 432.508 34.3993 433.244H34.3673C34.3673 432.828 34.3353 432.412 34.3353 432.012H33.1513C33.1513 432.508 33.2153 433.1 33.2153 433.788V439.5ZM44.303 437.404C43.711 438.156 42.991 438.54 41.919 438.54C40.559 438.54 39.567 437.436 39.471 436.14H45.519V435.74C45.519 433.26 44.079 431.82 41.967 431.82C39.759 431.82 38.127 433.436 38.127 435.756C38.127 437.932 39.567 439.692 41.919 439.692C43.311 439.692 44.367 439.276 45.247 438.14L44.303 437.404ZM39.471 435.084C39.631 433.82 40.543 432.972 41.919 432.972C43.295 432.972 44.127 433.82 44.175 435.084H39.471ZM54.9216 432.012H53.6736V433.34H53.6416C53.1776 432.492 52.1056 431.82 50.7616 431.82C48.6656 431.82 47.0176 433.516 47.0176 435.756C47.0176 438.028 48.6016 439.692 50.9536 439.692C52.0416 439.692 52.9536 439.212 53.6416 438.412H53.6736V443.148H54.9216V432.012ZM53.6736 435.756C53.6736 437.324 52.6336 438.54 51.0176 438.54C49.4016 438.54 48.3616 437.324 48.3616 435.756C48.3616 434.188 49.4016 432.972 51.0176 432.972C52.6336 432.972 53.6736 434.188 53.6736 435.756ZM63.7589 432.012H62.5109V435.66C62.5109 437.372 61.8069 438.54 60.1909 438.54C59.0229 438.54 58.4789 437.756 58.4789 436.508V432.012H57.2309V436.636C57.2309 438.444 58.1109 439.692 60.0789 439.692C61.3109 439.692 62.2389 439.004 62.5749 438.268H62.6069C62.6069 438.684 62.6389 439.1 62.6389 439.5H63.8229C63.8229 439.004 63.7589 438.412 63.7589 437.724V432.012ZM66.2335 439.5H67.4815V432.012H66.2335V439.5ZM65.9455 429.084C65.9455 429.612 66.3295 429.996 66.8575 429.996C67.3855 429.996 67.7695 429.612 67.7695 429.084C67.7695 428.588 67.3695 428.172 66.8575 428.172C66.3455 428.172 65.9455 428.588 65.9455 429.084ZM69.9653 439.5H71.2133V435.852C71.2133 434.14 71.8853 433.068 73.4053 433.068C73.6293 433.068 73.8693 433.1 74.0773 433.164L74.1573 431.9C73.9813 431.836 73.8053 431.82 73.6453 431.82C72.4133 431.82 71.4853 432.508 71.1493 433.244H71.1173C71.1173 432.828 71.0853 432.412 71.0853 432.012H69.9013C69.9013 432.508 69.9653 433.1 69.9653 433.788V439.5ZM81.053 437.404C80.461 438.156 79.741 438.54 78.669 438.54C77.309 438.54 76.317 437.436 76.221 436.14H82.269V435.74C82.269 433.26 80.829 431.82 78.717 431.82C76.509 431.82 74.877 433.436 74.877 435.756C74.877 437.932 76.317 439.692 78.669 439.692C80.061 439.692 81.117 439.276 81.997 438.14L81.053 437.404ZM76.221 435.084C76.381 433.82 77.293 432.972 78.669 432.972C80.045 432.972 80.877 433.82 80.925 435.084H76.221ZM90.4236 439.5H91.6716V427.404H90.4236V433.1H90.3916C89.7036 432.3 88.7916 431.82 87.7036 431.82C85.3516 431.82 83.7676 433.484 83.7676 435.756C83.7676 437.996 85.4156 439.692 87.5116 439.692C88.8556 439.692 89.9276 439.02 90.3916 438.172H90.4236V439.5ZM90.4236 435.756C90.4236 437.324 89.3836 438.54 87.7676 438.54C86.1516 438.54 85.1116 437.324 85.1116 435.756C85.1116 434.188 86.1516 432.972 87.7676 432.972C89.3836 432.972 90.4236 434.188 90.4236 435.756ZM108.882 432.012H107.538L105.842 437.772H105.81L103.842 432.012H102.53L100.594 437.772H100.562L98.85 432.012H97.474L99.906 439.5H101.186L103.074 433.74H103.106L105.234 439.5H106.466L108.882 432.012ZM114.981 427.884L113.973 427.5L109.157 439.788L110.165 440.188L114.981 427.884ZM1.184 463.5H2.432V459.852C2.432 458.14 3.136 456.972 4.752 456.972C5.92 456.972 6.464 457.756 6.464 459.004V463.5H7.712V458.876C7.712 457.068 6.832 455.82 4.864 455.82C3.696 455.82 2.8 456.46 2.464 457.052H2.432V451.404H1.184V463.5ZM15.8186 461.404C15.2266 462.156 14.5066 462.54 13.4346 462.54C12.0746 462.54 11.0826 461.436 10.9866 460.14H17.0346V459.74C17.0346 457.26 15.5946 455.82 13.4826 455.82C11.2746 455.82 9.64263 457.436 9.64263 459.756C9.64263 461.932 11.0826 463.692 13.4346 463.692C14.8266 463.692 15.8826 463.276 16.7626 462.14L15.8186 461.404ZM10.9866 459.084C11.1466 457.82 12.0586 456.972 13.4346 456.972C14.8106 456.972 15.6426 457.82 15.6906 459.084H10.9866ZM19.0773 463.5H20.3253V451.404H19.0773V463.5ZM22.745 467.148H23.993V462.172H24.025C24.489 463.02 25.561 463.692 26.905 463.692C29.001 463.692 30.649 461.996 30.649 459.756C30.649 457.484 29.065 455.82 26.713 455.82C25.625 455.82 24.713 456.3 24.025 457.1H23.993V456.012H22.745V467.148ZM23.993 459.756C23.993 458.188 25.033 456.972 26.649 456.972C28.265 456.972 29.305 458.188 29.305 459.756C29.305 461.324 28.265 462.54 26.649 462.54C25.033 462.54 23.993 461.324 23.993 459.756ZM41.1394 456.012H38.9314V453.884H37.6834V456.012H36.0514V457.068H37.6834V461.18C37.6834 462.732 37.9714 463.692 39.7474 463.692C40.2114 463.692 40.7714 463.612 41.2034 463.42L41.1554 462.284C40.8194 462.46 40.4194 462.54 40.0514 462.54C38.9474 462.54 38.9314 461.772 38.9314 460.812V457.068H41.1394V456.012ZM48.4124 461.404C47.8204 462.156 47.1004 462.54 46.0284 462.54C44.6684 462.54 43.6764 461.436 43.5804 460.14H49.6284V459.74C49.6284 457.26 48.1884 455.82 46.0764 455.82C43.8684 455.82 42.2364 457.436 42.2364 459.756C42.2364 461.932 43.6764 463.692 46.0284 463.692C47.4204 463.692 48.4764 463.276 49.3564 462.14L48.4124 461.404ZM43.5804 459.084C43.7404 457.82 44.6524 456.972 46.0284 456.972C47.4044 456.972 48.2364 457.82 48.2844 459.084H43.5804ZM50.423 463.5H51.975L54.311 460.268L56.679 463.5H58.327L55.239 459.468L57.815 456.012H56.295L54.423 458.7L52.439 456.012H50.807L53.495 459.468L50.423 463.5ZM63.655 456.012H61.447V453.884H60.199V456.012H58.567V457.068H60.199V461.18C60.199 462.732 60.487 463.692 62.263 463.692C62.727 463.692 63.287 463.612 63.719 463.42L63.671 462.284C63.335 462.46 62.935 462.54 62.567 462.54C61.463 462.54 61.447 461.772 61.447 460.812V457.068H63.655V456.012Z" fill="black"/>
<g clip-path="url(#clip4_22_4803)">
<path d="M133.408 399H134.752V393.912H140.032V392.664H134.752V388.92H140.432V387.672H133.408V399ZM142.187 399H143.435V391.512H142.187V399ZM141.899 388.584C141.899 389.112 142.283 389.496 142.811 389.496C143.339 389.496 143.723 389.112 143.723 388.584C143.723 388.088 143.323 387.672 142.811 387.672C142.299 387.672 141.899 388.088 141.899 388.584ZM151.662 396.904C151.07 397.656 150.35 398.04 149.278 398.04C147.918 398.04 146.926 396.936 146.83 395.64H152.878V395.24C152.878 392.76 151.438 391.32 149.326 391.32C147.118 391.32 145.486 392.936 145.486 395.256C145.486 397.432 146.926 399.192 149.278 399.192C150.67 399.192 151.726 398.776 152.606 397.64L151.662 396.904ZM146.83 394.584C146.99 393.32 147.902 392.472 149.278 392.472C150.654 392.472 151.486 393.32 151.534 394.584H146.83ZM154.921 399H156.169V386.904H154.921V399ZM164.877 399H166.125V386.904H164.877V392.6H164.845C164.157 391.8 163.245 391.32 162.157 391.32C159.805 391.32 158.221 392.984 158.221 395.256C158.221 397.496 159.869 399.192 161.965 399.192C163.309 399.192 164.381 398.52 164.845 397.672H164.877V399ZM164.877 395.256C164.877 396.824 163.837 398.04 162.221 398.04C160.605 398.04 159.565 396.824 159.565 395.256C159.565 393.688 160.605 392.472 162.221 392.472C163.837 392.472 164.877 393.688 164.877 395.256ZM173.111 399H179.639V397.752H174.455V387.672H173.111V399ZM181.575 393.288C182.167 392.744 182.999 392.472 183.799 392.472C184.967 392.472 185.655 393.032 185.655 394.12V394.344H185.175C183.335 394.344 180.455 394.488 180.455 396.968C180.455 398.424 181.719 399.192 183.239 399.192C184.375 399.192 185.207 398.648 185.703 397.88H185.735C185.735 398.2 185.735 398.664 185.815 399H187.015C186.951 398.616 186.903 398.136 186.903 397.704V394.488C186.903 392.376 185.975 391.32 183.767 391.32C182.679 391.32 181.559 391.688 180.791 392.472L181.575 393.288ZM185.655 395.4V395.88C185.623 397.096 184.887 398.136 183.447 398.136C182.503 398.136 181.799 397.784 181.799 396.84C181.799 395.832 182.823 395.4 184.407 395.4H185.655ZM189.12 399H190.368V397.672H190.4C190.864 398.52 191.936 399.192 193.28 399.192C195.376 399.192 197.024 397.496 197.024 395.256C197.024 392.984 195.44 391.32 193.088 391.32C192 391.32 191.088 391.8 190.4 392.6H190.368V386.904H189.12V399ZM190.368 395.256C190.368 393.688 191.408 392.472 193.024 392.472C194.64 392.472 195.68 393.688 195.68 395.256C195.68 396.824 194.64 398.04 193.024 398.04C191.408 398.04 190.368 396.824 190.368 395.256ZM204.709 396.904C204.117 397.656 203.397 398.04 202.325 398.04C200.965 398.04 199.973 396.936 199.877 395.64H205.925V395.24C205.925 392.76 204.485 391.32 202.373 391.32C200.165 391.32 198.533 392.936 198.533 395.256C198.533 397.432 199.973 399.192 202.325 399.192C203.717 399.192 204.773 398.776 205.653 397.64L204.709 396.904ZM199.877 394.584C200.037 393.32 200.949 392.472 202.325 392.472C203.701 392.472 204.533 393.32 204.581 394.584H199.877ZM207.968 399H209.216V386.904H207.968V399Z" fill="#333333"/>
</g>
<rect x="132.5" y="409.5" width="319" height="83" rx="3.5" fill="white"/>
<path opacity="0.5" d="M145.408 431H146.752V419.672H145.408V431ZM149.34 431H150.588V427.352C150.588 425.64 151.292 424.472 152.908 424.472C154.076 424.472 154.62 425.256 154.62 426.504V431H155.868V426.376C155.868 424.568 154.988 423.32 153.02 423.32C151.788 423.32 150.86 424.008 150.524 424.744H150.492C150.492 424.328 150.46 423.912 150.46 423.512H149.276C149.276 424.008 149.34 424.6 149.34 425.288V431ZM158.167 434.648H159.415V429.672H159.447C159.911 430.52 160.983 431.192 162.327 431.192C164.423 431.192 166.071 429.496 166.071 427.256C166.071 424.984 164.487 423.32 162.135 423.32C161.047 423.32 160.135 423.8 159.447 424.6H159.415V423.512H158.167V434.648ZM159.415 427.256C159.415 425.688 160.455 424.472 162.071 424.472C163.687 424.472 164.727 425.688 164.727 427.256C164.727 428.824 163.687 430.04 162.071 430.04C160.455 430.04 159.415 428.824 159.415 427.256ZM174.54 423.512H173.292V427.16C173.292 428.872 172.588 430.04 170.972 430.04C169.804 430.04 169.26 429.256 169.26 428.008V423.512H168.012V428.136C168.012 429.944 168.892 431.192 170.86 431.192C172.092 431.192 173.02 430.504 173.356 429.768H173.388C173.388 430.184 173.42 430.6 173.42 431H174.604C174.604 430.504 174.54 429.912 174.54 429.224V423.512ZM180.999 423.512H178.791V421.384H177.543V423.512H175.911V424.568H177.543V428.68C177.543 430.232 177.831 431.192 179.607 431.192C180.071 431.192 180.631 431.112 181.063 430.92L181.015 429.784C180.679 429.96 180.279 430.04 179.911 430.04C178.807 430.04 178.791 429.272 178.791 428.312V424.568H180.999V423.512Z" fill="#9EA6B5"/>
<rect x="132.5" y="409.5" width="319" height="83" rx="3.5" stroke="#9EA6B5"/>
<g clip-path="url(#clip5_22_4803)">
<path d="M139.882 498.088H132.154V499.18H135.43V508H136.606V499.18H139.882V498.088ZM141.075 508H142.167V504.808C142.167 503.31 142.783 502.288 144.197 502.288C145.219 502.288 145.695 502.974 145.695 504.066V508H146.787V503.954C146.787 502.372 146.017 501.28 144.295 501.28C143.273 501.28 142.489 501.84 142.195 502.358H142.167V497.416H141.075V508ZM148.952 508H150.044V501.448H148.952V508ZM148.7 498.886C148.7 499.348 149.036 499.684 149.498 499.684C149.96 499.684 150.296 499.348 150.296 498.886C150.296 498.452 149.946 498.088 149.498 498.088C149.05 498.088 148.7 498.452 148.7 498.886ZM151.49 506.95C152.134 507.874 152.932 508.168 154.038 508.168C155.34 508.168 156.656 507.594 156.656 506.11C156.656 504.794 155.676 504.374 154.514 504.15C153.646 503.982 152.862 503.744 152.862 503.198C152.862 502.582 153.548 502.288 154.15 502.288C154.794 502.288 155.256 502.61 155.536 503.072L156.446 502.47C155.998 501.63 155.144 501.28 154.22 501.28C153.002 501.28 151.77 501.938 151.77 503.212C151.77 504.57 152.834 504.836 154.08 505.116C154.78 505.27 155.48 505.452 155.48 506.152C155.48 506.866 154.724 507.16 154.038 507.16C153.268 507.16 152.792 506.81 152.358 506.278L151.49 506.95ZM162.173 508H163.265V501.448H162.173V508ZM161.921 498.886C161.921 499.348 162.257 499.684 162.719 499.684C163.181 499.684 163.517 499.348 163.517 498.886C163.517 498.452 163.167 498.088 162.719 498.088C162.271 498.088 161.921 498.452 161.921 498.886ZM164.71 506.95C165.354 507.874 166.152 508.168 167.258 508.168C168.56 508.168 169.876 507.594 169.876 506.11C169.876 504.794 168.896 504.374 167.734 504.15C166.866 503.982 166.082 503.744 166.082 503.198C166.082 502.582 166.768 502.288 167.37 502.288C168.014 502.288 168.476 502.61 168.756 503.072L169.666 502.47C169.218 501.63 168.364 501.28 167.44 501.28C166.222 501.28 164.99 501.938 164.99 503.212C164.99 504.57 166.054 504.836 167.3 505.116C168 505.27 168.7 505.452 168.7 506.152C168.7 506.866 167.944 507.16 167.258 507.16C166.488 507.16 166.012 506.81 165.578 506.278L164.71 506.95ZM178.88 501.448H176.948V499.586H175.856V501.448H174.428V502.372H175.856V505.97C175.856 507.328 176.108 508.168 177.662 508.168C178.068 508.168 178.558 508.098 178.936 507.93L178.894 506.936C178.6 507.09 178.25 507.16 177.928 507.16C176.962 507.16 176.948 506.488 176.948 505.648V502.372H178.88V501.448ZM180.218 508H181.31V504.808C181.31 503.31 181.926 502.288 183.34 502.288C184.362 502.288 184.838 502.974 184.838 504.066V508H185.93V503.954C185.93 502.372 185.16 501.28 183.438 501.28C182.416 501.28 181.632 501.84 181.338 502.358H181.31V497.416H180.218V508ZM193.023 506.166C192.505 506.824 191.875 507.16 190.937 507.16C189.747 507.16 188.879 506.194 188.795 505.06H194.087V504.71C194.087 502.54 192.827 501.28 190.979 501.28C189.047 501.28 187.619 502.694 187.619 504.724C187.619 506.628 188.879 508.168 190.937 508.168C192.155 508.168 193.079 507.804 193.849 506.81L193.023 506.166ZM188.795 504.136C188.935 503.03 189.733 502.288 190.937 502.288C192.141 502.288 192.869 503.03 192.911 504.136H188.795ZM205.119 508H206.211V497.416H205.119V502.4H205.091C204.489 501.7 203.691 501.28 202.739 501.28C200.681 501.28 199.295 502.736 199.295 504.724C199.295 506.684 200.737 508.168 202.571 508.168C203.747 508.168 204.685 507.58 205.091 506.838H205.119V508ZM205.119 504.724C205.119 506.096 204.209 507.16 202.795 507.16C201.381 507.16 200.471 506.096 200.471 504.724C200.471 503.352 201.381 502.288 202.795 502.288C204.209 502.288 205.119 503.352 205.119 504.724ZM213.257 506.166C212.739 506.824 212.109 507.16 211.171 507.16C209.981 507.16 209.113 506.194 209.029 505.06H214.321V504.71C214.321 502.54 213.061 501.28 211.213 501.28C209.281 501.28 207.853 502.694 207.853 504.724C207.853 506.628 209.113 508.168 211.171 508.168C212.389 508.168 213.313 507.804 214.083 506.81L213.257 506.166ZM209.029 504.136C209.169 503.03 209.967 502.288 211.171 502.288C212.375 502.288 213.103 503.03 213.145 504.136H209.029ZM215.283 506.95C215.927 507.874 216.725 508.168 217.831 508.168C219.133 508.168 220.449 507.594 220.449 506.11C220.449 504.794 219.469 504.374 218.307 504.15C217.439 503.982 216.655 503.744 216.655 503.198C216.655 502.582 217.341 502.288 217.943 502.288C218.587 502.288 219.049 502.61 219.329 503.072L220.239 502.47C219.791 501.63 218.937 501.28 218.013 501.28C216.795 501.28 215.563 501.938 215.563 503.212C215.563 504.57 216.627 504.836 217.873 505.116C218.573 505.27 219.273 505.452 219.273 506.152C219.273 506.866 218.517 507.16 217.831 507.16C217.061 507.16 216.585 506.81 216.151 506.278L215.283 506.95ZM227.502 502.316C226.844 501.602 225.948 501.28 224.982 501.28C222.966 501.28 221.594 502.736 221.594 504.724C221.594 506.74 222.952 508.168 224.982 508.168C225.934 508.168 226.83 507.846 227.46 507.118L226.648 506.348C226.242 506.908 225.696 507.16 224.982 507.16C223.652 507.16 222.77 506.068 222.77 504.724C222.77 503.38 223.512 502.288 224.982 502.288C225.64 502.288 226.172 502.526 226.634 503.086L227.502 502.316ZM228.725 508H229.817V504.808C229.817 503.31 230.405 502.372 231.735 502.372C231.931 502.372 232.141 502.4 232.323 502.456L232.393 501.35C232.239 501.294 232.085 501.28 231.945 501.28C230.867 501.28 230.055 501.882 229.761 502.526H229.733C229.733 502.162 229.705 501.798 229.705 501.448H228.669C228.669 501.882 228.725 502.4 228.725 503.002V508ZM233.745 508H234.837V501.448H233.745V508ZM233.493 498.886C233.493 499.348 233.829 499.684 234.291 499.684C234.753 499.684 235.089 499.348 235.089 498.886C235.089 498.452 234.739 498.088 234.291 498.088C233.843 498.088 233.493 498.452 233.493 498.886ZM236.955 511.192H238.047V506.838H238.075C238.481 507.58 239.419 508.168 240.595 508.168C242.429 508.168 243.871 506.684 243.871 504.724C243.871 502.736 242.485 501.28 240.427 501.28C239.475 501.28 238.677 501.7 238.075 502.4H238.047V501.448H236.955V511.192ZM238.047 504.724C238.047 503.352 238.957 502.288 240.371 502.288C241.785 502.288 242.695 503.352 242.695 504.724C242.695 506.096 241.785 507.16 240.371 507.16C238.957 507.16 238.047 506.096 238.047 504.724ZM249.153 501.448H247.221V499.586H246.129V501.448H244.701V502.372H246.129V505.97C246.129 507.328 246.381 508.168 247.935 508.168C248.341 508.168 248.831 508.098 249.209 507.93L249.167 506.936C248.873 507.09 248.523 507.16 248.201 507.16C247.235 507.16 247.221 506.488 247.221 505.648V502.372H249.153V501.448ZM250.589 508H251.681V501.448H250.589V508ZM250.337 498.886C250.337 499.348 250.673 499.684 251.135 499.684C251.597 499.684 251.933 499.348 251.933 498.886C251.933 498.452 251.583 498.088 251.135 498.088C250.687 498.088 250.337 498.452 250.337 498.886ZM253.476 504.724C253.476 506.768 254.96 508.168 256.976 508.168C258.992 508.168 260.476 506.768 260.476 504.724C260.476 502.68 258.992 501.28 256.976 501.28C254.96 501.28 253.476 502.68 253.476 504.724ZM254.652 504.724C254.652 503.352 255.562 502.288 256.976 502.288C258.39 502.288 259.3 503.352 259.3 504.724C259.3 506.096 258.39 507.16 256.976 507.16C255.562 507.16 254.652 506.096 254.652 504.724ZM262.167 508H263.259V504.808C263.259 503.31 263.875 502.288 265.289 502.288C266.311 502.288 266.787 502.974 266.787 504.066V508H267.879V503.954C267.879 502.372 267.109 501.28 265.387 501.28C264.309 501.28 263.497 501.882 263.203 502.526H263.175C263.175 502.162 263.147 501.798 263.147 501.448H262.111C262.111 501.882 262.167 502.4 262.167 503.002V508ZM274.445 503.002C274.963 502.526 275.691 502.288 276.391 502.288C277.413 502.288 278.015 502.778 278.015 503.73V503.926H277.595C275.985 503.926 273.465 504.052 273.465 506.222C273.465 507.496 274.571 508.168 275.901 508.168C276.895 508.168 277.623 507.692 278.057 507.02H278.085C278.085 507.3 278.085 507.706 278.155 508H279.205C279.149 507.664 279.107 507.244 279.107 506.866V504.052C279.107 502.204 278.295 501.28 276.363 501.28C275.411 501.28 274.431 501.602 273.759 502.288L274.445 503.002ZM278.015 504.85V505.27C277.987 506.334 277.343 507.244 276.083 507.244C275.257 507.244 274.641 506.936 274.641 506.11C274.641 505.228 275.537 504.85 276.923 504.85H278.015ZM281.102 508H282.194V504.808C282.194 503.31 282.782 502.372 284.112 502.372C284.308 502.372 284.518 502.4 284.7 502.456L284.77 501.35C284.616 501.294 284.462 501.28 284.322 501.28C283.244 501.28 282.432 501.882 282.138 502.526H282.11C282.11 502.162 282.082 501.798 282.082 501.448H281.046C281.046 501.882 281.102 502.4 281.102 503.002V508ZM290.804 506.166C290.286 506.824 289.656 507.16 288.718 507.16C287.528 507.16 286.66 506.194 286.576 505.06H291.868V504.71C291.868 502.54 290.608 501.28 288.76 501.28C286.828 501.28 285.4 502.694 285.4 504.724C285.4 506.628 286.66 508.168 288.718 508.168C289.936 508.168 290.86 507.804 291.63 506.81L290.804 506.166ZM286.576 504.136C286.716 503.03 287.514 502.288 288.718 502.288C289.922 502.288 290.65 503.03 290.692 504.136H286.576ZM294.159 503.002C294.677 502.526 295.405 502.288 296.105 502.288C297.127 502.288 297.729 502.778 297.729 503.73V503.926H297.309C295.699 503.926 293.179 504.052 293.179 506.222C293.179 507.496 294.285 508.168 295.615 508.168C296.609 508.168 297.337 507.692 297.771 507.02H297.799C297.799 507.3 297.799 507.706 297.869 508H298.919C298.863 507.664 298.821 507.244 298.821 506.866V504.052C298.821 502.204 298.009 501.28 296.077 501.28C295.125 501.28 294.145 501.602 293.473 502.288L294.159 503.002ZM297.729 504.85V505.27C297.701 506.334 297.057 507.244 295.797 507.244C294.971 507.244 294.355 506.936 294.355 506.11C294.355 505.228 295.251 504.85 296.637 504.85H297.729Z" fill="#333333"/>
</g>
<defs>
<clipPath id="clip0_22_4803">
<rect width="91" height="24" fill="white" transform="translate(132)"/>
</clipPath>
<clipPath id="clip1_22_4803">
<rect width="79" height="24" fill="white" transform="translate(132 120)"/>
</clipPath>
<clipPath id="clip2_22_4803">
<rect width="91" height="24" fill="white" transform="translate(132 240)"/>
</clipPath>
<clipPath id="clip3_22_4803">
<rect width="320" height="17" fill="white" transform="translate(132 356)"/>
</clipPath>
<clipPath id="clip4_22_4803">
<rect width="79" height="24" fill="white" transform="translate(132 381)"/>
</clipPath>
<clipPath id="clip5_22_4803">
<rect width="320" height="17" fill="white" transform="translate(132 497)"/>
</clipPath>
</defs>
</svg>
