<svg width="400" height="620" viewBox="0 0 400 620" fill="none" xmlns="http://www.w3.org/2000/svg">
<path d="M1.2 60H5.552C7.776 60 11.104 58.512 11.104 54.336C11.104 50.16 7.776 48.672 5.552 48.672H1.2V60ZM2.544 49.92H5.104C7.696 49.92 9.664 51.232 9.664 54.336C9.664 57.44 7.696 58.752 5.104 58.752H2.544V49.92ZM18.7874 57.904C18.1954 58.656 17.4754 59.04 16.4034 59.04C15.0434 59.04 14.0514 57.936 13.9554 56.64H20.0034V56.24C20.0034 53.76 18.5634 52.32 16.4514 52.32C14.2434 52.32 12.6114 53.936 12.6114 56.256C12.6114 58.432 14.0514 60.192 16.4034 60.192C17.7954 60.192 18.8514 59.776 19.7314 58.64L18.7874 57.904ZM13.9554 55.584C14.1154 54.32 15.0274 53.472 16.4034 53.472C17.7794 53.472 18.6114 54.32 18.6594 55.584H13.9554ZM22.574 60H23.822V53.568H25.646V52.512H23.822V51.104C23.822 49.808 23.87 48.864 25.166 48.864C25.454 48.864 25.742 48.928 26.014 49.024L26.19 47.904C25.95 47.776 25.55 47.712 25.23 47.712C23.214 47.712 22.574 49.008 22.574 50.832V52.512H20.942V53.568H22.574V60ZM27.6689 54.288C28.2609 53.744 29.0929 53.472 29.8929 53.472C31.0609 53.472 31.7489 54.032 31.7489 55.12V55.344H31.2689C29.4289 55.344 26.5489 55.488 26.5489 57.968C26.5489 59.424 27.8129 60.192 29.3329 60.192C30.4689 60.192 31.3009 59.648 31.7969 58.88H31.8289C31.8289 59.2 31.8289 59.664 31.9089 60H33.1089C33.0449 59.616 32.9969 59.136 32.9969 58.704V55.488C32.9969 53.376 32.0689 52.32 29.8609 52.32C28.7729 52.32 27.6529 52.688 26.8849 53.472L27.6689 54.288ZM31.7489 56.4V56.88C31.7169 58.096 30.9809 59.136 29.5409 59.136C28.5969 59.136 27.8929 58.784 27.8929 57.84C27.8929 56.832 28.9169 56.4 30.5009 56.4H31.7489ZM41.8058 52.512H40.5578V56.16C40.5578 57.872 39.8538 59.04 38.2378 59.04C37.0698 59.04 36.5258 58.256 36.5258 57.008V52.512H35.2778V57.136C35.2778 58.944 36.1578 60.192 38.1258 60.192C39.3578 60.192 40.2858 59.504 40.6218 58.768H40.6538C40.6538 59.184 40.6858 59.6 40.6858 60H41.8698C41.8698 59.504 41.8058 58.912 41.8058 58.224V52.512ZM44.2804 60H45.5284V47.904H44.2804V60ZM52.1081 52.512H49.9001V50.384H48.6521V52.512H47.0201V53.568H48.6521V57.68C48.6521 59.232 48.9401 60.192 50.7161 60.192C51.1801 60.192 51.7401 60.112 52.1721 59.92L52.1241 58.784C51.7881 58.96 51.3881 59.04 51.0201 59.04C49.9161 59.04 49.9001 58.272 49.9001 57.312V53.568H52.1081V52.512Z" fill="black"/>
<g clip-path="url(#clip0_22_4790)">
<path d="M81.408 18H82.752V12.912H88.032V11.664H82.752V7.92H88.432V6.672H81.408V18ZM90.1866 18H91.4346V10.512H90.1866V18ZM89.8986 7.584C89.8986 8.112 90.2826 8.496 90.8106 8.496C91.3386 8.496 91.7226 8.112 91.7226 7.584C91.7226 7.088 91.3226 6.672 90.8106 6.672C90.2986 6.672 89.8986 7.088 89.8986 7.584ZM99.6624 15.904C99.0704 16.656 98.3504 17.04 97.2784 17.04C95.9184 17.04 94.9264 15.936 94.8304 14.64H100.878V14.24C100.878 11.76 99.4384 10.32 97.3264 10.32C95.1184 10.32 93.4864 11.936 93.4864 14.256C93.4864 16.432 94.9264 18.192 97.2784 18.192C98.6704 18.192 99.7264 17.776 100.606 16.64L99.6624 15.904ZM94.8304 13.584C94.9904 12.32 95.9024 11.472 97.2784 11.472C98.6544 11.472 99.4864 12.32 99.5344 13.584H94.8304ZM102.921 18H104.169V5.904H102.921V18ZM112.877 18H114.125V5.904H112.877V11.6H112.845C112.157 10.8 111.245 10.32 110.157 10.32C107.805 10.32 106.221 11.984 106.221 14.256C106.221 16.496 107.869 18.192 109.965 18.192C111.309 18.192 112.381 17.52 112.845 16.672H112.877V18ZM112.877 14.256C112.877 15.824 111.837 17.04 110.221 17.04C108.605 17.04 107.565 15.824 107.565 14.256C107.565 12.688 108.605 11.472 110.221 11.472C111.837 11.472 112.877 12.688 112.877 14.256ZM121.111 18H127.639V16.752H122.455V6.672H121.111V18ZM129.575 12.288C130.167 11.744 130.999 11.472 131.799 11.472C132.967 11.472 133.655 12.032 133.655 13.12V13.344H133.175C131.335 13.344 128.455 13.488 128.455 15.968C128.455 17.424 129.719 18.192 131.239 18.192C132.375 18.192 133.207 17.648 133.703 16.88H133.735C133.735 17.2 133.735 17.664 133.815 18H135.015C134.951 17.616 134.903 17.136 134.903 16.704V13.488C134.903 11.376 133.975 10.32 131.767 10.32C130.679 10.32 129.559 10.688 128.791 11.472L129.575 12.288ZM133.655 14.4V14.88C133.623 16.096 132.887 17.136 131.447 17.136C130.503 17.136 129.799 16.784 129.799 15.84C129.799 14.832 130.823 14.4 132.407 14.4H133.655ZM137.12 18H138.368V16.672H138.4C138.864 17.52 139.936 18.192 141.28 18.192C143.376 18.192 145.024 16.496 145.024 14.256C145.024 11.984 143.44 10.32 141.088 10.32C140 10.32 139.088 10.8 138.4 11.6H138.368V5.904H137.12V18ZM138.368 14.256C138.368 12.688 139.408 11.472 141.024 11.472C142.64 11.472 143.68 12.688 143.68 14.256C143.68 15.824 142.64 17.04 141.024 17.04C139.408 17.04 138.368 15.824 138.368 14.256ZM152.709 15.904C152.117 16.656 151.397 17.04 150.325 17.04C148.965 17.04 147.973 15.936 147.877 14.64H153.925V14.24C153.925 11.76 152.485 10.32 150.373 10.32C148.165 10.32 146.533 11.936 146.533 14.256C146.533 16.432 147.973 18.192 150.325 18.192C151.717 18.192 152.773 17.776 153.653 16.64L152.709 15.904ZM147.877 13.584C148.037 12.32 148.949 11.472 150.325 11.472C151.701 11.472 152.533 12.32 152.581 13.584H147.877ZM155.968 18H157.216V5.904H155.968V18Z" fill="#333333"/>
<path opacity="0.8" d="M167.384 4.672H166.04V6.944L163.864 6.192L163.448 7.472L165.64 8.224L164.264 10.032L165.336 10.848L166.68 9.008L168.056 10.896L169.16 10.096L167.784 8.224L169.96 7.52L169.544 6.24L167.384 6.944V4.672Z" fill="#DB3259"/>
</g>
<rect x="80.5" y="28.5" width="319" height="83" rx="3.5" fill="white"/>
<path opacity="0.5" d="M93.408 50H94.752V38.672H93.408V50ZM97.3403 50H98.5883V46.352C98.5883 44.64 99.2923 43.472 100.908 43.472C102.076 43.472 102.62 44.256 102.62 45.504V50H103.868V45.376C103.868 43.568 102.988 42.32 101.02 42.32C99.7883 42.32 98.8603 43.008 98.5243 43.744H98.4923C98.4923 43.328 98.4603 42.912 98.4603 42.512H97.2763C97.2763 43.008 97.3403 43.6 97.3403 44.288V50ZM106.167 53.648H107.415V48.672H107.447C107.911 49.52 108.983 50.192 110.327 50.192C112.423 50.192 114.071 48.496 114.071 46.256C114.071 43.984 112.487 42.32 110.135 42.32C109.047 42.32 108.135 42.8 107.447 43.6H107.415V42.512H106.167V53.648ZM107.415 46.256C107.415 44.688 108.455 43.472 110.071 43.472C111.687 43.472 112.727 44.688 112.727 46.256C112.727 47.824 111.687 49.04 110.071 49.04C108.455 49.04 107.415 47.824 107.415 46.256ZM122.54 42.512H121.292V46.16C121.292 47.872 120.588 49.04 118.972 49.04C117.804 49.04 117.26 48.256 117.26 47.008V42.512H116.012V47.136C116.012 48.944 116.892 50.192 118.86 50.192C120.092 50.192 121.02 49.504 121.356 48.768H121.388C121.388 49.184 121.42 49.6 121.42 50H122.604C122.604 49.504 122.54 48.912 122.54 48.224V42.512ZM128.999 42.512H126.791V40.384H125.543V42.512H123.911V43.568H125.543V47.68C125.543 49.232 125.831 50.192 127.607 50.192C128.071 50.192 128.631 50.112 129.063 49.92L129.015 48.784C128.679 48.96 128.279 49.04 127.911 49.04C126.807 49.04 126.791 48.272 126.791 47.312V43.568H128.999V42.512Z" fill="#9EA6B5"/>
<rect x="80.5" y="28.5" width="319" height="83" rx="3.5" stroke="#9EA6B5"/>
<path d="M0.096 180H1.616L2.784 177.216H8.448L9.6 180H11.168L6.352 168.672H5.088L0.096 180ZM7.936 175.968H3.312L5.664 170.4H5.696L7.936 175.968ZM18.7696 173.504C18.0176 172.688 16.9936 172.32 15.8896 172.32C13.5856 172.32 12.0176 173.984 12.0176 176.256C12.0176 178.56 13.5696 180.192 15.8896 180.192C16.9776 180.192 18.0016 179.824 18.7216 178.992L17.7936 178.112C17.3296 178.752 16.7056 179.04 15.8896 179.04C14.3696 179.04 13.3616 177.792 13.3616 176.256C13.3616 174.72 14.2096 173.472 15.8896 173.472C16.6416 173.472 17.2496 173.744 17.7776 174.384L18.7696 173.504ZM24.2644 172.512H22.0564V170.384H20.8084V172.512H19.1764V173.568H20.8084V177.68C20.8084 179.232 21.0964 180.192 22.8724 180.192C23.3364 180.192 23.8964 180.112 24.3284 179.92L24.2804 178.784C23.9444 178.96 23.5444 179.04 23.1764 179.04C22.0724 179.04 22.0564 178.272 22.0564 177.312V173.568H24.2644V172.512ZM25.9054 180H27.1534V172.512H25.9054V180ZM25.6174 169.584C25.6174 170.112 26.0014 170.496 26.5294 170.496C27.0574 170.496 27.4414 170.112 27.4414 169.584C27.4414 169.088 27.0414 168.672 26.5294 168.672C26.0174 168.672 25.6174 169.088 25.6174 169.584ZM36.0051 172.512H34.6611L32.4371 178.384H32.4051L30.0691 172.512H28.6131L31.6691 180H33.0451L36.0051 172.512ZM43.0999 177.904C42.5079 178.656 41.7879 179.04 40.7159 179.04C39.3559 179.04 38.3639 177.936 38.2679 176.64H44.3159V176.24C44.3159 173.76 42.8759 172.32 40.7639 172.32C38.5559 172.32 36.9239 173.936 36.9239 176.256C36.9239 178.432 38.3639 180.192 40.7159 180.192C42.1079 180.192 43.1639 179.776 44.0439 178.64L43.0999 177.904ZM38.2679 175.584C38.4279 174.32 39.3399 173.472 40.7159 173.472C42.0919 173.472 42.9239 174.32 42.9719 175.584H38.2679Z" fill="black"/>
<g clip-path="url(#clip1_22_4790)">
<path d="M81.408 138H82.752V132.912H88.032V131.664H82.752V127.92H88.432V126.672H81.408V138ZM90.1866 138H91.4346V130.512H90.1866V138ZM89.8986 127.584C89.8986 128.112 90.2826 128.496 90.8106 128.496C91.3386 128.496 91.7226 128.112 91.7226 127.584C91.7226 127.088 91.3226 126.672 90.8106 126.672C90.2986 126.672 89.8986 127.088 89.8986 127.584ZM99.6624 135.904C99.0704 136.656 98.3504 137.04 97.2784 137.04C95.9184 137.04 94.9264 135.936 94.8304 134.64H100.878V134.24C100.878 131.76 99.4384 130.32 97.3264 130.32C95.1184 130.32 93.4864 131.936 93.4864 134.256C93.4864 136.432 94.9264 138.192 97.2784 138.192C98.6704 138.192 99.7264 137.776 100.606 136.64L99.6624 135.904ZM94.8304 133.584C94.9904 132.32 95.9024 131.472 97.2784 131.472C98.6544 131.472 99.4864 132.32 99.5344 133.584H94.8304ZM102.921 138H104.169V125.904H102.921V138ZM112.877 138H114.125V125.904H112.877V131.6H112.845C112.157 130.8 111.245 130.32 110.157 130.32C107.805 130.32 106.221 131.984 106.221 134.256C106.221 136.496 107.869 138.192 109.965 138.192C111.309 138.192 112.381 137.52 112.845 136.672H112.877V138ZM112.877 134.256C112.877 135.824 111.837 137.04 110.221 137.04C108.605 137.04 107.565 135.824 107.565 134.256C107.565 132.688 108.605 131.472 110.221 131.472C111.837 131.472 112.877 132.688 112.877 134.256ZM121.111 138H127.639V136.752H122.455V126.672H121.111V138ZM129.575 132.288C130.167 131.744 130.999 131.472 131.799 131.472C132.967 131.472 133.655 132.032 133.655 133.12V133.344H133.175C131.335 133.344 128.455 133.488 128.455 135.968C128.455 137.424 129.719 138.192 131.239 138.192C132.375 138.192 133.207 137.648 133.703 136.88H133.735C133.735 137.2 133.735 137.664 133.815 138H135.015C134.951 137.616 134.903 137.136 134.903 136.704V133.488C134.903 131.376 133.975 130.32 131.767 130.32C130.679 130.32 129.559 130.688 128.791 131.472L129.575 132.288ZM133.655 134.4V134.88C133.623 136.096 132.887 137.136 131.447 137.136C130.503 137.136 129.799 136.784 129.799 135.84C129.799 134.832 130.823 134.4 132.407 134.4H133.655ZM137.12 138H138.368V136.672H138.4C138.864 137.52 139.936 138.192 141.28 138.192C143.376 138.192 145.024 136.496 145.024 134.256C145.024 131.984 143.44 130.32 141.088 130.32C140 130.32 139.088 130.8 138.4 131.6H138.368V125.904H137.12V138ZM138.368 134.256C138.368 132.688 139.408 131.472 141.024 131.472C142.64 131.472 143.68 132.688 143.68 134.256C143.68 135.824 142.64 137.04 141.024 137.04C139.408 137.04 138.368 135.824 138.368 134.256ZM152.709 135.904C152.117 136.656 151.397 137.04 150.325 137.04C148.965 137.04 147.973 135.936 147.877 134.64H153.925V134.24C153.925 131.76 152.485 130.32 150.373 130.32C148.165 130.32 146.533 131.936 146.533 134.256C146.533 136.432 147.973 138.192 150.325 138.192C151.717 138.192 152.773 137.776 153.653 136.64L152.709 135.904ZM147.877 133.584C148.037 132.32 148.949 131.472 150.325 131.472C151.701 131.472 152.533 132.32 152.581 133.584H147.877ZM155.968 138H157.216V125.904H155.968V138Z" fill="#333333"/>
<path opacity="0.8" d="M167.384 124.672H166.04V126.944L163.864 126.192L163.448 127.472L165.64 128.224L164.264 130.032L165.336 130.848L166.68 129.008L168.056 130.896L169.16 130.096L167.784 128.224L169.96 127.52L169.544 126.24L167.384 126.944V124.672Z" fill="#DB3259"/>
</g>
<rect x="81" y="149" width="318" height="82" rx="3" fill="white"/>
<path opacity="0.8" d="M93.408 170H94.752V158.672H93.408V170ZM97.3403 170H98.5883V166.352C98.5883 164.64 99.2923 163.472 100.908 163.472C102.076 163.472 102.62 164.256 102.62 165.504V170H103.868V165.376C103.868 163.568 102.988 162.32 101.02 162.32C99.7883 162.32 98.8603 163.008 98.5243 163.744H98.4923C98.4923 163.328 98.4603 162.912 98.4603 162.512H97.2763C97.2763 163.008 97.3403 163.6 97.3403 164.288V170ZM106.167 173.648H107.415V168.672H107.447C107.911 169.52 108.983 170.192 110.327 170.192C112.423 170.192 114.071 168.496 114.071 166.256C114.071 163.984 112.487 162.32 110.135 162.32C109.047 162.32 108.135 162.8 107.447 163.6H107.415V162.512H106.167V173.648ZM107.415 166.256C107.415 164.688 108.455 163.472 110.071 163.472C111.687 163.472 112.727 164.688 112.727 166.256C112.727 167.824 111.687 169.04 110.071 169.04C108.455 169.04 107.415 167.824 107.415 166.256ZM122.54 162.512H121.292V166.16C121.292 167.872 120.588 169.04 118.972 169.04C117.804 169.04 117.26 168.256 117.26 167.008V162.512H116.012V167.136C116.012 168.944 116.892 170.192 118.86 170.192C120.092 170.192 121.02 169.504 121.356 168.768H121.388C121.388 169.184 121.42 169.6 121.42 170H122.604C122.604 169.504 122.54 168.912 122.54 168.224V162.512ZM128.999 162.512H126.791V160.384H125.543V162.512H123.911V163.568H125.543V167.68C125.543 169.232 125.831 170.192 127.607 170.192C128.071 170.192 128.631 170.112 129.063 169.92L129.015 168.784C128.679 168.96 128.279 169.04 127.911 169.04C126.807 169.04 126.791 168.272 126.791 167.312V163.568H128.999V162.512Z" fill="#9EA6B5"/>
<rect x="81" y="149" width="318" height="82" rx="3" stroke="#6C3078" stroke-width="2"/>
<path d="M1.408 300H2.752V294.912H8.032V293.664H2.752V289.92H8.432V288.672H1.408V300ZM10.1866 300H11.4346V292.512H10.1866V300ZM9.89863 289.584C9.89863 290.112 10.2826 290.496 10.8106 290.496C11.3386 290.496 11.7226 290.112 11.7226 289.584C11.7226 289.088 11.3226 288.672 10.8106 288.672C10.2986 288.672 9.89863 289.088 9.89863 289.584ZM14.0304 300H15.2784V287.904H14.0304V300ZM17.8741 300H19.1221V287.904H17.8741V300ZM27.3499 297.904C26.7579 298.656 26.0379 299.04 24.9659 299.04C23.6059 299.04 22.6139 297.936 22.5179 296.64H28.5659V296.24C28.5659 293.76 27.1259 292.32 25.0139 292.32C22.8059 292.32 21.1739 293.936 21.1739 296.256C21.1739 298.432 22.6139 300.192 24.9659 300.192C26.3579 300.192 27.4139 299.776 28.2939 298.64L27.3499 297.904ZM22.5179 295.584C22.6779 294.32 23.5899 293.472 24.9659 293.472C26.3419 293.472 27.1739 294.32 27.2219 295.584H22.5179ZM36.7205 300H37.9685V287.904H36.7205V293.6H36.6885C36.0005 292.8 35.0885 292.32 34.0005 292.32C31.6485 292.32 30.0645 293.984 30.0645 296.256C30.0645 298.496 31.7125 300.192 33.8085 300.192C35.1525 300.192 36.2245 299.52 36.6885 298.672H36.7205V300ZM36.7205 296.256C36.7205 297.824 35.6805 299.04 34.0645 299.04C32.4485 299.04 31.4085 297.824 31.4085 296.256C31.4085 294.688 32.4485 293.472 34.0645 293.472C35.6805 293.472 36.7205 294.688 36.7205 296.256Z" fill="black"/>
<g clip-path="url(#clip2_22_4790)">
<path d="M81.408 258H82.752V252.912H88.032V251.664H82.752V247.92H88.432V246.672H81.408V258ZM90.1866 258H91.4346V250.512H90.1866V258ZM89.8986 247.584C89.8986 248.112 90.2826 248.496 90.8106 248.496C91.3386 248.496 91.7226 248.112 91.7226 247.584C91.7226 247.088 91.3226 246.672 90.8106 246.672C90.2986 246.672 89.8986 247.088 89.8986 247.584ZM99.6624 255.904C99.0704 256.656 98.3504 257.04 97.2784 257.04C95.9184 257.04 94.9264 255.936 94.8304 254.64H100.878V254.24C100.878 251.76 99.4384 250.32 97.3264 250.32C95.1184 250.32 93.4864 251.936 93.4864 254.256C93.4864 256.432 94.9264 258.192 97.2784 258.192C98.6704 258.192 99.7264 257.776 100.606 256.64L99.6624 255.904ZM94.8304 253.584C94.9904 252.32 95.9024 251.472 97.2784 251.472C98.6544 251.472 99.4864 252.32 99.5344 253.584H94.8304ZM102.921 258H104.169V245.904H102.921V258ZM112.877 258H114.125V245.904H112.877V251.6H112.845C112.157 250.8 111.245 250.32 110.157 250.32C107.805 250.32 106.221 251.984 106.221 254.256C106.221 256.496 107.869 258.192 109.965 258.192C111.309 258.192 112.381 257.52 112.845 256.672H112.877V258ZM112.877 254.256C112.877 255.824 111.837 257.04 110.221 257.04C108.605 257.04 107.565 255.824 107.565 254.256C107.565 252.688 108.605 251.472 110.221 251.472C111.837 251.472 112.877 252.688 112.877 254.256ZM121.111 258H127.639V256.752H122.455V246.672H121.111V258ZM129.575 252.288C130.167 251.744 130.999 251.472 131.799 251.472C132.967 251.472 133.655 252.032 133.655 253.12V253.344H133.175C131.335 253.344 128.455 253.488 128.455 255.968C128.455 257.424 129.719 258.192 131.239 258.192C132.375 258.192 133.207 257.648 133.703 256.88H133.735C133.735 257.2 133.735 257.664 133.815 258H135.015C134.951 257.616 134.903 257.136 134.903 256.704V253.488C134.903 251.376 133.975 250.32 131.767 250.32C130.679 250.32 129.559 250.688 128.791 251.472L129.575 252.288ZM133.655 254.4V254.88C133.623 256.096 132.887 257.136 131.447 257.136C130.503 257.136 129.799 256.784 129.799 255.84C129.799 254.832 130.823 254.4 132.407 254.4H133.655ZM137.12 258H138.368V256.672H138.4C138.864 257.52 139.936 258.192 141.28 258.192C143.376 258.192 145.024 256.496 145.024 254.256C145.024 251.984 143.44 250.32 141.088 250.32C140 250.32 139.088 250.8 138.4 251.6H138.368V245.904H137.12V258ZM138.368 254.256C138.368 252.688 139.408 251.472 141.024 251.472C142.64 251.472 143.68 252.688 143.68 254.256C143.68 255.824 142.64 257.04 141.024 257.04C139.408 257.04 138.368 255.824 138.368 254.256ZM152.709 255.904C152.117 256.656 151.397 257.04 150.325 257.04C148.965 257.04 147.973 255.936 147.877 254.64H153.925V254.24C153.925 251.76 152.485 250.32 150.373 250.32C148.165 250.32 146.533 251.936 146.533 254.256C146.533 256.432 147.973 258.192 150.325 258.192C151.717 258.192 152.773 257.776 153.653 256.64L152.709 255.904ZM147.877 253.584C148.037 252.32 148.949 251.472 150.325 251.472C151.701 251.472 152.533 252.32 152.581 253.584H147.877ZM155.968 258H157.216V245.904H155.968V258Z" fill="#333333"/>
<path opacity="0.8" d="M167.384 244.672H166.04V246.944L163.864 246.192L163.448 247.472L165.64 248.224L164.264 250.032L165.336 250.848L166.68 249.008L168.056 250.896L169.16 250.096L167.784 248.224L169.96 247.52L169.544 246.24L167.384 246.944V244.672Z" fill="#DB3259"/>
</g>
<rect x="80.5" y="268.5" width="319" height="83" rx="3.5" fill="white"/>
<path d="M93.408 290H94.752V278.672H93.408V290ZM97.3403 290H98.5883V286.352C98.5883 284.64 99.2923 283.472 100.908 283.472C102.076 283.472 102.62 284.256 102.62 285.504V290H103.868V285.376C103.868 283.568 102.988 282.32 101.02 282.32C99.7883 282.32 98.8603 283.008 98.5243 283.744H98.4923C98.4923 283.328 98.4603 282.912 98.4603 282.512H97.2763C97.2763 283.008 97.3403 283.6 97.3403 284.288V290ZM106.167 293.648H107.415V288.672H107.447C107.911 289.52 108.983 290.192 110.327 290.192C112.423 290.192 114.071 288.496 114.071 286.256C114.071 283.984 112.487 282.32 110.135 282.32C109.047 282.32 108.135 282.8 107.447 283.6H107.415V282.512H106.167V293.648ZM107.415 286.256C107.415 284.688 108.455 283.472 110.071 283.472C111.687 283.472 112.727 284.688 112.727 286.256C112.727 287.824 111.687 289.04 110.071 289.04C108.455 289.04 107.415 287.824 107.415 286.256ZM122.54 282.512H121.292V286.16C121.292 287.872 120.588 289.04 118.972 289.04C117.804 289.04 117.26 288.256 117.26 287.008V282.512H116.012V287.136C116.012 288.944 116.892 290.192 118.86 290.192C120.092 290.192 121.02 289.504 121.356 288.768H121.388C121.388 289.184 121.42 289.6 121.42 290H122.604C122.604 289.504 122.54 288.912 122.54 288.224V282.512ZM128.999 282.512H126.791V280.384H125.543V282.512H123.911V283.568H125.543V287.68C125.543 289.232 125.831 290.192 127.607 290.192C128.071 290.192 128.631 290.112 129.063 289.92L129.015 288.784C128.679 288.96 128.279 289.04 127.911 289.04C126.807 289.04 126.791 288.272 126.791 287.312V283.568H128.999V282.512Z" fill="#333333"/>
<rect x="80.5" y="268.5" width="319" height="83" rx="3.5" stroke="#9EA6B5"/>
<path d="M1.2 420H5.552C7.776 420 11.104 418.512 11.104 414.336C11.104 410.16 7.776 408.672 5.552 408.672H1.2V420ZM2.544 409.92H5.104C7.696 409.92 9.664 411.232 9.664 414.336C9.664 417.44 7.696 418.752 5.104 418.752H2.544V409.92ZM13.1554 420H14.4034V412.512H13.1554V420ZM12.8674 409.584C12.8674 410.112 13.2514 410.496 13.7794 410.496C14.3074 410.496 14.6914 410.112 14.6914 409.584C14.6914 409.088 14.2914 408.672 13.7794 408.672C13.2674 408.672 12.8674 409.088 12.8674 409.584ZM16.0551 418.8C16.7911 419.856 17.7031 420.192 18.9671 420.192C20.4551 420.192 21.9591 419.536 21.9591 417.84C21.9591 416.336 20.8391 415.856 19.5111 415.6C18.5191 415.408 17.6231 415.136 17.6231 414.512C17.6231 413.808 18.4071 413.472 19.0951 413.472C19.8311 413.472 20.3591 413.84 20.6791 414.368L21.7191 413.68C21.2071 412.72 20.2311 412.32 19.1751 412.32C17.7831 412.32 16.3751 413.072 16.3751 414.528C16.3751 416.08 17.5911 416.384 19.0151 416.704C19.8151 416.88 20.6151 417.088 20.6151 417.888C20.6151 418.704 19.7511 419.04 18.9671 419.04C18.0871 419.04 17.5431 418.64 17.0471 418.032L16.0551 418.8ZM24.3876 414.288C24.9796 413.744 25.8116 413.472 26.6116 413.472C27.7796 413.472 28.4676 414.032 28.4676 415.12V415.344H27.9876C26.1476 415.344 23.2676 415.488 23.2676 417.968C23.2676 419.424 24.5316 420.192 26.0516 420.192C27.1876 420.192 28.0196 419.648 28.5156 418.88H28.5476C28.5476 419.2 28.5476 419.664 28.6276 420H29.8276C29.7636 419.616 29.7156 419.136 29.7156 418.704V415.488C29.7156 413.376 28.7876 412.32 26.5796 412.32C25.4916 412.32 24.3716 412.688 23.6036 413.472L24.3876 414.288ZM28.4676 416.4V416.88C28.4356 418.096 27.6996 419.136 26.2596 419.136C25.3156 419.136 24.6116 418.784 24.6116 417.84C24.6116 416.832 25.6356 416.4 27.2196 416.4H28.4676ZM31.9325 420H33.1805V418.672H33.2125C33.6765 419.52 34.7485 420.192 36.0925 420.192C38.1885 420.192 39.8365 418.496 39.8365 416.256C39.8365 413.984 38.2525 412.32 35.9005 412.32C34.8125 412.32 33.9005 412.8 33.2125 413.6H33.1805V407.904H31.9325V420ZM33.1805 416.256C33.1805 414.688 34.2205 413.472 35.8365 413.472C37.4525 413.472 38.4925 414.688 38.4925 416.256C38.4925 417.824 37.4525 419.04 35.8365 419.04C34.2205 419.04 33.1805 417.824 33.1805 416.256ZM41.8898 420H43.1378V407.904H41.8898V420ZM51.3655 417.904C50.7735 418.656 50.0535 419.04 48.9815 419.04C47.6215 419.04 46.6295 417.936 46.5335 416.64H52.5815V416.24C52.5815 413.76 51.1415 412.32 49.0295 412.32C46.8215 412.32 45.1895 413.936 45.1895 416.256C45.1895 418.432 46.6295 420.192 48.9815 420.192C50.3735 420.192 51.4295 419.776 52.3095 418.64L51.3655 417.904ZM46.5335 415.584C46.6935 414.32 47.6055 413.472 48.9815 413.472C50.3575 413.472 51.1895 414.32 51.2375 415.584H46.5335ZM60.7361 420H61.9841V407.904H60.7361V413.6H60.7041C60.0161 412.8 59.1041 412.32 58.0161 412.32C55.6641 412.32 54.0801 413.984 54.0801 416.256C54.0801 418.496 55.7281 420.192 57.8241 420.192C59.1681 420.192 60.2401 419.52 60.7041 418.672H60.7361V420ZM60.7361 416.256C60.7361 417.824 59.6961 419.04 58.0801 419.04C56.4641 419.04 55.4241 417.824 55.4241 416.256C55.4241 414.688 56.4641 413.472 58.0801 413.472C59.6961 413.472 60.7361 414.688 60.7361 416.256Z" fill="black"/>
<g clip-path="url(#clip3_22_4790)">
<path d="M81.408 378H82.752V372.912H88.032V371.664H82.752V367.92H88.432V366.672H81.408V378ZM90.1866 378H91.4346V370.512H90.1866V378ZM89.8986 367.584C89.8986 368.112 90.2826 368.496 90.8106 368.496C91.3386 368.496 91.7226 368.112 91.7226 367.584C91.7226 367.088 91.3226 366.672 90.8106 366.672C90.2986 366.672 89.8986 367.088 89.8986 367.584ZM99.6624 375.904C99.0704 376.656 98.3504 377.04 97.2784 377.04C95.9184 377.04 94.9264 375.936 94.8304 374.64H100.878V374.24C100.878 371.76 99.4384 370.32 97.3264 370.32C95.1184 370.32 93.4864 371.936 93.4864 374.256C93.4864 376.432 94.9264 378.192 97.2784 378.192C98.6704 378.192 99.7264 377.776 100.606 376.64L99.6624 375.904ZM94.8304 373.584C94.9904 372.32 95.9024 371.472 97.2784 371.472C98.6544 371.472 99.4864 372.32 99.5344 373.584H94.8304ZM102.921 378H104.169V365.904H102.921V378ZM112.877 378H114.125V365.904H112.877V371.6H112.845C112.157 370.8 111.245 370.32 110.157 370.32C107.805 370.32 106.221 371.984 106.221 374.256C106.221 376.496 107.869 378.192 109.965 378.192C111.309 378.192 112.381 377.52 112.845 376.672H112.877V378ZM112.877 374.256C112.877 375.824 111.837 377.04 110.221 377.04C108.605 377.04 107.565 375.824 107.565 374.256C107.565 372.688 108.605 371.472 110.221 371.472C111.837 371.472 112.877 372.688 112.877 374.256ZM121.111 378H127.639V376.752H122.455V366.672H121.111V378ZM129.575 372.288C130.167 371.744 130.999 371.472 131.799 371.472C132.967 371.472 133.655 372.032 133.655 373.12V373.344H133.175C131.335 373.344 128.455 373.488 128.455 375.968C128.455 377.424 129.719 378.192 131.239 378.192C132.375 378.192 133.207 377.648 133.703 376.88H133.735C133.735 377.2 133.735 377.664 133.815 378H135.015C134.951 377.616 134.903 377.136 134.903 376.704V373.488C134.903 371.376 133.975 370.32 131.767 370.32C130.679 370.32 129.559 370.688 128.791 371.472L129.575 372.288ZM133.655 374.4V374.88C133.623 376.096 132.887 377.136 131.447 377.136C130.503 377.136 129.799 376.784 129.799 375.84C129.799 374.832 130.823 374.4 132.407 374.4H133.655ZM137.12 378H138.368V376.672H138.4C138.864 377.52 139.936 378.192 141.28 378.192C143.376 378.192 145.024 376.496 145.024 374.256C145.024 371.984 143.44 370.32 141.088 370.32C140 370.32 139.088 370.8 138.4 371.6H138.368V365.904H137.12V378ZM138.368 374.256C138.368 372.688 139.408 371.472 141.024 371.472C142.64 371.472 143.68 372.688 143.68 374.256C143.68 375.824 142.64 377.04 141.024 377.04C139.408 377.04 138.368 375.824 138.368 374.256ZM152.709 375.904C152.117 376.656 151.397 377.04 150.325 377.04C148.965 377.04 147.973 375.936 147.877 374.64H153.925V374.24C153.925 371.76 152.485 370.32 150.373 370.32C148.165 370.32 146.533 371.936 146.533 374.256C146.533 376.432 147.973 378.192 150.325 378.192C151.717 378.192 152.773 377.776 153.653 376.64L152.709 375.904ZM147.877 373.584C148.037 372.32 148.949 371.472 150.325 371.472C151.701 371.472 152.533 372.32 152.581 373.584H147.877ZM155.968 378H157.216V365.904H155.968V378Z" fill="#333333"/>
<path opacity="0.8" d="M167.384 364.672H166.04V366.944L163.864 366.192L163.448 367.472L165.64 368.224L164.264 370.032L165.336 370.848L166.68 369.008L168.056 370.896L169.16 370.096L167.784 368.224L169.96 367.52L169.544 366.24L167.384 366.944V364.672Z" fill="#DB3259"/>
</g>
<g opacity="0.5">
<rect x="80.5" y="388.5" width="319" height="83" rx="3.5" fill="#D2D6DD"/>
<path opacity="0.8" d="M93.408 410H94.752V398.672H93.408V410ZM97.3403 410H98.5883V406.352C98.5883 404.64 99.2923 403.472 100.908 403.472C102.076 403.472 102.62 404.256 102.62 405.504V410H103.868V405.376C103.868 403.568 102.988 402.32 101.02 402.32C99.7883 402.32 98.8603 403.008 98.5243 403.744H98.4923C98.4923 403.328 98.4603 402.912 98.4603 402.512H97.2763C97.2763 403.008 97.3403 403.6 97.3403 404.288V410ZM106.167 413.648H107.415V408.672H107.447C107.911 409.52 108.983 410.192 110.327 410.192C112.423 410.192 114.071 408.496 114.071 406.256C114.071 403.984 112.487 402.32 110.135 402.32C109.047 402.32 108.135 402.8 107.447 403.6H107.415V402.512H106.167V413.648ZM107.415 406.256C107.415 404.688 108.455 403.472 110.071 403.472C111.687 403.472 112.727 404.688 112.727 406.256C112.727 407.824 111.687 409.04 110.071 409.04C108.455 409.04 107.415 407.824 107.415 406.256ZM122.54 402.512H121.292V406.16C121.292 407.872 120.588 409.04 118.972 409.04C117.804 409.04 117.26 408.256 117.26 407.008V402.512H116.012V407.136C116.012 408.944 116.892 410.192 118.86 410.192C120.092 410.192 121.02 409.504 121.356 408.768H121.388C121.388 409.184 121.42 409.6 121.42 410H122.604C122.604 409.504 122.54 408.912 122.54 408.224V402.512ZM128.999 402.512H126.791V400.384H125.543V402.512H123.911V403.568H125.543V407.68C125.543 409.232 125.831 410.192 127.607 410.192C128.071 410.192 128.631 410.112 129.063 409.92L129.015 408.784C128.679 408.96 128.279 409.04 127.911 409.04C126.807 409.04 126.791 408.272 126.791 407.312V403.568H128.999V402.512Z" fill="#9EA6B5"/>
<rect x="80.5" y="388.5" width="319" height="83" rx="3.5" stroke="#9EA6B5"/>
</g>
<path d="M1.408 554H8.816V552.752H2.752V548.72H8.144V547.472H2.752V543.92H8.528V542.672H1.408V554ZM10.6684 554H11.9164V550.352C11.9164 548.64 12.5884 547.568 14.1084 547.568C14.3324 547.568 14.5724 547.6 14.7804 547.664L14.8604 546.4C14.6844 546.336 14.5084 546.32 14.3484 546.32C13.1164 546.32 12.1884 547.008 11.8524 547.744H11.8204C11.8204 547.328 11.7884 546.912 11.7884 546.512H10.6044C10.6044 547.008 10.6684 547.6 10.6684 548.288V554ZM16.2934 554H17.5414V550.352C17.5414 548.64 18.2134 547.568 19.7334 547.568C19.9574 547.568 20.1974 547.6 20.4054 547.664L20.4854 546.4C20.3094 546.336 20.1334 546.32 19.9734 546.32C18.7414 546.32 17.8134 547.008 17.4774 547.744H17.4454C17.4454 547.328 17.4134 546.912 17.4134 546.512H16.2294C16.2294 547.008 16.2934 547.6 16.2934 548.288V554ZM21.2051 550.256C21.2051 552.592 22.9011 554.192 25.2051 554.192C27.5091 554.192 29.2051 552.592 29.2051 550.256C29.2051 547.92 27.5091 546.32 25.2051 546.32C22.9011 546.32 21.2051 547.92 21.2051 550.256ZM22.5491 550.256C22.5491 548.688 23.5891 547.472 25.2051 547.472C26.8211 547.472 27.8611 548.688 27.8611 550.256C27.8611 551.824 26.8211 553.04 25.2051 553.04C23.5891 553.04 22.5491 551.824 22.5491 550.256ZM31.1371 554H32.3851V550.352C32.3851 548.64 33.0571 547.568 34.5771 547.568C34.8011 547.568 35.0411 547.6 35.2491 547.664L35.3291 546.4C35.1531 546.336 34.9771 546.32 34.8171 546.32C33.5851 546.32 32.6571 547.008 32.3211 547.744H32.2891C32.2891 547.328 32.2571 546.912 32.2571 546.512H31.0731C31.0731 547.008 31.1371 547.6 31.1371 548.288V554Z" fill="black"/>
<g clip-path="url(#clip4_22_4790)">
<path d="M81.408 498H82.752V492.912H88.032V491.664H82.752V487.92H88.432V486.672H81.408V498ZM90.1866 498H91.4346V490.512H90.1866V498ZM89.8986 487.584C89.8986 488.112 90.2826 488.496 90.8106 488.496C91.3386 488.496 91.7226 488.112 91.7226 487.584C91.7226 487.088 91.3226 486.672 90.8106 486.672C90.2986 486.672 89.8986 487.088 89.8986 487.584ZM99.6624 495.904C99.0704 496.656 98.3504 497.04 97.2784 497.04C95.9184 497.04 94.9264 495.936 94.8304 494.64H100.878V494.24C100.878 491.76 99.4384 490.32 97.3264 490.32C95.1184 490.32 93.4864 491.936 93.4864 494.256C93.4864 496.432 94.9264 498.192 97.2784 498.192C98.6704 498.192 99.7264 497.776 100.606 496.64L99.6624 495.904ZM94.8304 493.584C94.9904 492.32 95.9024 491.472 97.2784 491.472C98.6544 491.472 99.4864 492.32 99.5344 493.584H94.8304ZM102.921 498H104.169V485.904H102.921V498ZM112.877 498H114.125V485.904H112.877V491.6H112.845C112.157 490.8 111.245 490.32 110.157 490.32C107.805 490.32 106.221 491.984 106.221 494.256C106.221 496.496 107.869 498.192 109.965 498.192C111.309 498.192 112.381 497.52 112.845 496.672H112.877V498ZM112.877 494.256C112.877 495.824 111.837 497.04 110.221 497.04C108.605 497.04 107.565 495.824 107.565 494.256C107.565 492.688 108.605 491.472 110.221 491.472C111.837 491.472 112.877 492.688 112.877 494.256ZM121.111 498H127.639V496.752H122.455V486.672H121.111V498ZM129.575 492.288C130.167 491.744 130.999 491.472 131.799 491.472C132.967 491.472 133.655 492.032 133.655 493.12V493.344H133.175C131.335 493.344 128.455 493.488 128.455 495.968C128.455 497.424 129.719 498.192 131.239 498.192C132.375 498.192 133.207 497.648 133.703 496.88H133.735C133.735 497.2 133.735 497.664 133.815 498H135.015C134.951 497.616 134.903 497.136 134.903 496.704V493.488C134.903 491.376 133.975 490.32 131.767 490.32C130.679 490.32 129.559 490.688 128.791 491.472L129.575 492.288ZM133.655 494.4V494.88C133.623 496.096 132.887 497.136 131.447 497.136C130.503 497.136 129.799 496.784 129.799 495.84C129.799 494.832 130.823 494.4 132.407 494.4H133.655ZM137.12 498H138.368V496.672H138.4C138.864 497.52 139.936 498.192 141.28 498.192C143.376 498.192 145.024 496.496 145.024 494.256C145.024 491.984 143.44 490.32 141.088 490.32C140 490.32 139.088 490.8 138.4 491.6H138.368V485.904H137.12V498ZM138.368 494.256C138.368 492.688 139.408 491.472 141.024 491.472C142.64 491.472 143.68 492.688 143.68 494.256C143.68 495.824 142.64 497.04 141.024 497.04C139.408 497.04 138.368 495.824 138.368 494.256ZM152.709 495.904C152.117 496.656 151.397 497.04 150.325 497.04C148.965 497.04 147.973 495.936 147.877 494.64H153.925V494.24C153.925 491.76 152.485 490.32 150.373 490.32C148.165 490.32 146.533 491.936 146.533 494.256C146.533 496.432 147.973 498.192 150.325 498.192C151.717 498.192 152.773 497.776 153.653 496.64L152.709 495.904ZM147.877 493.584C148.037 492.32 148.949 491.472 150.325 491.472C151.701 491.472 152.533 492.32 152.581 493.584H147.877ZM155.968 498H157.216V485.904H155.968V498Z" fill="#333333"/>
<path opacity="0.8" d="M167.384 484.672H166.04V486.944L163.864 486.192L163.448 487.472L165.64 488.224L164.264 490.032L165.336 490.848L166.68 489.008L168.056 490.896L169.16 490.096L167.784 488.224L169.96 487.52L169.544 486.24L167.384 486.944V484.672Z" fill="#DB3259"/>
</g>
<path opacity="0.8" d="M93.408 530H94.752V518.672H93.408V530ZM97.3403 530H98.5883V526.352C98.5883 524.64 99.2923 523.472 100.908 523.472C102.076 523.472 102.62 524.256 102.62 525.504V530H103.868V525.376C103.868 523.568 102.988 522.32 101.02 522.32C99.7883 522.32 98.8603 523.008 98.5243 523.744H98.4923C98.4923 523.328 98.4603 522.912 98.4603 522.512H97.2763C97.2763 523.008 97.3403 523.6 97.3403 524.288V530ZM106.167 533.648H107.415V528.672H107.447C107.911 529.52 108.983 530.192 110.327 530.192C112.423 530.192 114.071 528.496 114.071 526.256C114.071 523.984 112.487 522.32 110.135 522.32C109.047 522.32 108.135 522.8 107.447 523.6H107.415V522.512H106.167V533.648ZM107.415 526.256C107.415 524.688 108.455 523.472 110.071 523.472C111.687 523.472 112.727 524.688 112.727 526.256C112.727 527.824 111.687 529.04 110.071 529.04C108.455 529.04 107.415 527.824 107.415 526.256ZM122.54 522.512H121.292V526.16C121.292 527.872 120.588 529.04 118.972 529.04C117.804 529.04 117.26 528.256 117.26 527.008V522.512H116.012V527.136C116.012 528.944 116.892 530.192 118.86 530.192C120.092 530.192 121.02 529.504 121.356 528.768H121.388C121.388 529.184 121.42 529.6 121.42 530H122.604C122.604 529.504 122.54 528.912 122.54 528.224V522.512ZM128.999 522.512H126.791V520.384H125.543V522.512H123.911V523.568H125.543V527.68C125.543 529.232 125.831 530.192 127.607 530.192C128.071 530.192 128.631 530.112 129.063 529.92L129.015 528.784C128.679 528.96 128.279 529.04 127.911 529.04C126.807 529.04 126.791 528.272 126.791 527.312V523.568H128.999V522.512Z" fill="#9EA6B5"/>
<rect x="80.5" y="508.5" width="319" height="83" rx="3.5" stroke="#DB3259"/>
<path d="M96.6662 611.625H83.3329C83.2237 611.625 83.1164 611.596 83.0215 611.542C82.9266 611.488 82.8472 611.41 82.7912 611.317C82.7379 611.221 82.71 611.114 82.71 611.004C82.71 610.895 82.7379 610.787 82.7912 610.692L89.4579 599.025C89.5172 598.936 89.5976 598.862 89.6922 598.812C89.7867 598.761 89.8923 598.734 89.9995 598.734C90.1068 598.734 90.2124 598.761 90.3069 598.812C90.4014 598.862 90.4819 598.936 90.5412 599.025L97.2079 610.692C97.2611 610.787 97.2891 610.895 97.2891 611.004C97.2891 611.114 97.2611 611.221 97.2079 611.317C97.1518 611.41 97.0725 611.488 96.9776 611.542C96.8827 611.596 96.7754 611.625 96.6662 611.625ZM84.4079 610.375H95.5912L89.9995 600.592L84.4079 610.375Z" fill="#DB3259"/>
<path d="M90 607.042C89.8349 607.04 89.6772 606.973 89.5604 606.856C89.4437 606.739 89.3772 606.582 89.375 606.417V603.5C89.375 603.334 89.4408 603.175 89.5581 603.058C89.6753 602.941 89.8342 602.875 90 602.875C90.1658 602.875 90.3247 602.941 90.4419 603.058C90.5592 603.175 90.625 603.334 90.625 603.5V606.417C90.6228 606.582 90.5563 606.739 90.4396 606.856C90.3228 606.973 90.1651 607.04 90 607.042Z" fill="#DB3259"/>
<path d="M90 609.542C89.8349 609.54 89.6772 609.473 89.5604 609.356C89.4437 609.239 89.3772 609.082 89.375 608.917V608.5C89.375 608.334 89.4408 608.175 89.5581 608.058C89.6753 607.941 89.8342 607.875 90 607.875C90.1658 607.875 90.3247 607.941 90.4419 608.058C90.5592 608.175 90.625 608.334 90.625 608.5V608.917C90.6228 609.082 90.5563 609.239 90.4396 609.356C90.3228 609.473 90.1651 609.54 90 609.542Z" fill="#DB3259"/>
<path d="M115.008 600.672H106.176V601.92H109.92V612H111.264V601.92H115.008V600.672ZM116.372 612H117.62V608.352C117.62 606.64 118.324 605.472 119.94 605.472C121.108 605.472 121.652 606.256 121.652 607.504V612H122.9V607.376C122.9 605.568 122.02 604.32 120.052 604.32C118.884 604.32 117.988 604.96 117.652 605.552H117.62V599.904H116.372V612ZM125.374 612H126.622V604.512H125.374V612ZM125.086 601.584C125.086 602.112 125.47 602.496 125.998 602.496C126.526 602.496 126.91 602.112 126.91 601.584C126.91 601.088 126.51 600.672 125.998 600.672C125.486 600.672 125.086 601.088 125.086 601.584ZM128.274 610.8C129.01 611.856 129.922 612.192 131.186 612.192C132.674 612.192 134.178 611.536 134.178 609.84C134.178 608.336 133.058 607.856 131.73 607.6C130.738 607.408 129.842 607.136 129.842 606.512C129.842 605.808 130.626 605.472 131.314 605.472C132.05 605.472 132.578 605.84 132.898 606.368L133.938 605.68C133.426 604.72 132.45 604.32 131.394 604.32C130.002 604.32 128.594 605.072 128.594 606.528C128.594 608.08 129.81 608.384 131.234 608.704C132.034 608.88 132.834 609.088 132.834 609.888C132.834 610.704 131.97 611.04 131.186 611.04C130.306 611.04 129.762 610.64 129.266 610.032L128.274 610.8ZM140.484 612H141.732V604.512H140.484V612ZM140.196 601.584C140.196 602.112 140.58 602.496 141.108 602.496C141.636 602.496 142.02 602.112 142.02 601.584C142.02 601.088 141.62 600.672 141.108 600.672C140.596 600.672 140.196 601.088 140.196 601.584ZM143.383 610.8C144.119 611.856 145.031 612.192 146.295 612.192C147.783 612.192 149.287 611.536 149.287 609.84C149.287 608.336 148.167 607.856 146.839 607.6C145.847 607.408 144.951 607.136 144.951 606.512C144.951 605.808 145.735 605.472 146.423 605.472C147.159 605.472 147.687 605.84 148.007 606.368L149.047 605.68C148.535 604.72 147.559 604.32 146.503 604.32C145.111 604.32 143.703 605.072 143.703 606.528C143.703 608.08 144.919 608.384 146.343 608.704C147.143 608.88 147.943 609.088 147.943 609.888C147.943 610.704 147.079 611.04 146.295 611.04C145.415 611.04 144.871 610.64 144.375 610.032L143.383 610.8ZM156.169 606.288C156.761 605.744 157.593 605.472 158.393 605.472C159.561 605.472 160.249 606.032 160.249 607.12V607.344H159.769C157.929 607.344 155.049 607.488 155.049 609.968C155.049 611.424 156.313 612.192 157.833 612.192C158.969 612.192 159.801 611.648 160.297 610.88H160.329C160.329 611.2 160.329 611.664 160.409 612H161.609C161.545 611.616 161.497 611.136 161.497 610.704V607.488C161.497 605.376 160.569 604.32 158.361 604.32C157.273 604.32 156.153 604.688 155.385 605.472L156.169 606.288ZM160.249 608.4V608.88C160.217 610.096 159.481 611.136 158.041 611.136C157.097 611.136 156.393 610.784 156.393 609.84C156.393 608.832 157.417 608.4 159.001 608.4H160.249ZM168.231 612H169.479V608.352C169.479 606.64 170.183 605.472 171.799 605.472C172.823 605.472 173.239 606.112 173.239 607.76V612H174.487V607.68C174.487 606.336 175.367 605.472 176.423 605.472C177.879 605.472 178.247 606.48 178.247 607.52V612H179.495V607.456C179.495 605.52 178.791 604.32 176.647 604.32C175.511 604.32 174.823 604.864 174.279 605.744C174.039 605.232 173.527 604.32 171.911 604.32C170.679 604.32 169.751 605.008 169.415 605.744H169.383C169.383 605.328 169.351 604.912 169.351 604.512H168.167C168.167 605.008 168.231 605.6 168.231 606.288V612ZM187.6 609.904C187.008 610.656 186.288 611.04 185.216 611.04C183.856 611.04 182.864 609.936 182.768 608.64H188.816V608.24C188.816 605.76 187.376 604.32 185.264 604.32C183.056 604.32 181.424 605.936 181.424 608.256C181.424 610.432 182.864 612.192 185.216 612.192C186.608 612.192 187.664 611.776 188.544 610.64L187.6 609.904ZM182.768 607.584C182.928 606.32 183.84 605.472 185.216 605.472C186.592 605.472 187.424 606.32 187.472 607.584H182.768ZM189.915 610.8C190.651 611.856 191.562 612.192 192.827 612.192C194.315 612.192 195.819 611.536 195.819 609.84C195.819 608.336 194.699 607.856 193.371 607.6C192.379 607.408 191.483 607.136 191.483 606.512C191.483 605.808 192.267 605.472 192.955 605.472C193.691 605.472 194.219 605.84 194.539 606.368L195.579 605.68C195.067 604.72 194.091 604.32 193.035 604.32C191.643 604.32 190.235 605.072 190.235 606.528C190.235 608.08 191.451 608.384 192.875 608.704C193.674 608.88 194.475 609.088 194.475 609.888C194.475 610.704 193.611 611.04 192.827 611.04C191.947 611.04 191.403 610.64 190.907 610.032L189.915 610.8ZM196.727 610.8C197.463 611.856 198.375 612.192 199.639 612.192C201.127 612.192 202.631 611.536 202.631 609.84C202.631 608.336 201.511 607.856 200.183 607.6C199.191 607.408 198.295 607.136 198.295 606.512C198.295 605.808 199.079 605.472 199.767 605.472C200.503 605.472 201.031 605.84 201.351 606.368L202.391 605.68C201.879 604.72 200.903 604.32 199.847 604.32C198.455 604.32 197.047 605.072 197.047 606.528C197.047 608.08 198.263 608.384 199.687 608.704C200.487 608.88 201.287 609.088 201.287 609.888C201.287 610.704 200.423 611.04 199.639 611.04C198.759 611.04 198.215 610.64 197.719 610.032L196.727 610.8ZM205.06 606.288C205.652 605.744 206.484 605.472 207.284 605.472C208.452 605.472 209.14 606.032 209.14 607.12V607.344H208.66C206.82 607.344 203.94 607.488 203.94 609.968C203.94 611.424 205.204 612.192 206.724 612.192C207.86 612.192 208.692 611.648 209.188 610.88H209.22C209.22 611.2 209.22 611.664 209.3 612H210.5C210.436 611.616 210.388 611.136 210.388 610.704V607.488C210.388 605.376 209.46 604.32 207.252 604.32C206.164 604.32 205.044 604.688 204.276 605.472L205.06 606.288ZM209.14 608.4V608.88C209.108 610.096 208.372 611.136 206.932 611.136C205.988 611.136 205.284 610.784 205.284 609.84C205.284 608.832 206.308 608.4 207.891 608.4H209.14ZM220.14 604.512H218.892V605.792H218.86C218.364 604.8 217.228 604.32 216.22 604.32C213.836 604.32 212.236 605.808 212.236 608.256C212.236 610.464 213.868 612.096 216.22 612.096C217.212 612.096 218.268 611.664 218.86 610.704H218.892V611.664C218.892 613.248 218.3 614.688 216.06 614.688C214.908 614.688 214.06 614.24 213.276 613.392L212.38 614.416C213.436 615.456 214.604 615.84 216.06 615.84C218.684 615.84 220.14 614.368 220.14 611.664V604.512ZM213.58 608.256C213.58 606.688 214.652 605.472 216.22 605.472C217.804 605.472 218.892 606.608 218.892 608.224C218.892 609.664 217.932 610.944 216.22 610.944C214.764 610.944 213.58 609.776 213.58 608.256ZM228.194 609.904C227.602 610.656 226.882 611.04 225.81 611.04C224.45 611.04 223.458 609.936 223.362 608.64H229.41V608.24C229.41 605.76 227.97 604.32 225.858 604.32C223.65 604.32 222.018 605.936 222.018 608.256C222.018 610.432 223.458 612.192 225.81 612.192C227.202 612.192 228.258 611.776 229.138 610.64L228.194 609.904ZM223.362 607.584C223.522 606.32 224.434 605.472 225.81 605.472C227.186 605.472 228.018 606.32 228.066 607.584H223.362Z" fill="#DB3259"/>
<defs>
<clipPath id="clip0_22_4790">
<rect width="91" height="24" fill="white" transform="translate(80)"/>
</clipPath>
<clipPath id="clip1_22_4790">
<rect width="91" height="24" fill="white" transform="translate(80 120)"/>
</clipPath>
<clipPath id="clip2_22_4790">
<rect width="91" height="24" fill="white" transform="translate(80 240)"/>
</clipPath>
<clipPath id="clip3_22_4790">
<rect width="91" height="24" fill="white" transform="translate(80 360)"/>
</clipPath>
<clipPath id="clip4_22_4790">
<rect width="91" height="24" fill="white" transform="translate(80 480)"/>
</clipPath>
</defs>
</svg>
