<svg width="640" height="352" viewBox="0 0 640 352" fill="none" xmlns="http://www.w3.org/2000/svg">
<g clip-path="url(#clip0_22_6178)">
<path d="M9.904 6.672H8.56V13.488C8.56 15.312 7.888 17.04 5.632 17.04C3.376 17.04 2.704 15.312 2.704 13.488V6.672H1.36V13.68C1.36 16.144 2.512 18.288 5.632 18.288C8.752 18.288 9.904 16.144 9.904 13.68V6.672ZM11.6176 16.8C12.3536 17.856 13.2656 18.192 14.5296 18.192C16.0176 18.192 17.5216 17.536 17.5216 15.84C17.5216 14.336 16.4016 13.856 15.0736 13.6C14.0816 13.408 13.1856 13.136 13.1856 12.512C13.1856 11.808 13.9696 11.472 14.6576 11.472C15.3936 11.472 15.9216 11.84 16.2416 12.368L17.2816 11.68C16.7696 10.72 15.7936 10.32 14.7376 10.32C13.3456 10.32 11.9376 11.072 11.9376 12.528C11.9376 14.08 13.1536 14.384 14.5776 14.704C15.3776 14.88 16.1776 15.088 16.1776 15.888C16.1776 16.704 15.3136 17.04 14.5296 17.04C13.6496 17.04 13.1056 16.64 12.6096 16.032L11.6176 16.8ZM25.0061 15.904C24.4141 16.656 23.6941 17.04 22.6221 17.04C21.2621 17.04 20.2701 15.936 20.1741 14.64H26.2221V14.24C26.2221 11.76 24.7821 10.32 22.6701 10.32C20.4621 10.32 18.8301 11.936 18.8301 14.256C18.8301 16.432 20.2701 18.192 22.6221 18.192C24.0141 18.192 25.0701 17.776 25.9501 16.64L25.0061 15.904ZM20.1741 13.584C20.3341 12.32 21.2461 11.472 22.6221 11.472C23.9981 11.472 24.8301 12.32 24.8781 13.584H20.1741ZM28.1528 18H29.4008V14.352C29.4008 12.64 30.0728 11.568 31.5928 11.568C31.8168 11.568 32.0568 11.6 32.2648 11.664L32.3448 10.4C32.1688 10.336 31.9928 10.32 31.8328 10.32C30.6008 10.32 29.6728 11.008 29.3368 11.744H29.3048C29.3048 11.328 29.2728 10.912 29.2728 10.512H28.0888C28.0888 11.008 28.1528 11.6 28.1528 12.288V18ZM33.7778 18H35.0258V14.352C35.0258 12.64 35.7298 11.472 37.3458 11.472C38.5138 11.472 39.0578 12.256 39.0578 13.504V18H40.3058V13.376C40.3058 11.568 39.4258 10.32 37.4578 10.32C36.2258 10.32 35.2978 11.008 34.9618 11.744H34.9298C34.9298 11.328 34.8978 10.912 34.8978 10.512H33.7138C33.7138 11.008 33.7778 11.6 33.7778 12.288V18ZM43.3564 12.288C43.9484 11.744 44.7804 11.472 45.5804 11.472C46.7484 11.472 47.4364 12.032 47.4364 13.12V13.344H46.9564C45.1164 13.344 42.2364 13.488 42.2364 15.968C42.2364 17.424 43.5004 18.192 45.0204 18.192C46.1564 18.192 46.9884 17.648 47.4844 16.88H47.5164C47.5164 17.2 47.5164 17.664 47.5964 18H48.7964C48.7324 17.616 48.6844 17.136 48.6844 16.704V13.488C48.6844 11.376 47.7564 10.32 45.5484 10.32C44.4604 10.32 43.3404 10.688 42.5724 11.472L43.3564 12.288ZM47.4364 14.4V14.88C47.4044 16.096 46.6684 17.136 45.2284 17.136C44.2844 17.136 43.5804 16.784 43.5804 15.84C43.5804 14.832 44.6044 14.4 46.1884 14.4H47.4364ZM50.9653 18H52.2133V14.352C52.2133 12.64 52.9173 11.472 54.5333 11.472C55.5573 11.472 55.9733 12.112 55.9733 13.76V18H57.2213V13.68C57.2213 12.336 58.1013 11.472 59.1573 11.472C60.6133 11.472 60.9813 12.48 60.9813 13.52V18H62.2293V13.456C62.2293 11.52 61.5253 10.32 59.3813 10.32C58.2453 10.32 57.5573 10.864 57.0133 11.744C56.7733 11.232 56.2613 10.32 54.6453 10.32C53.4133 10.32 52.4853 11.008 52.1493 11.744H52.1173C52.1173 11.328 52.0853 10.912 52.0853 10.512H50.9013C50.9013 11.008 50.9653 11.6 50.9653 12.288V18ZM70.3343 15.904C69.7423 16.656 69.0223 17.04 67.9503 17.04C66.5903 17.04 65.5983 15.936 65.5023 14.64H71.5503V14.24C71.5503 11.76 70.1103 10.32 67.9983 10.32C65.7903 10.32 64.1583 11.936 64.1583 14.256C64.1583 16.432 65.5983 18.192 67.9503 18.192C69.3423 18.192 70.3983 17.776 71.2783 16.64L70.3343 15.904ZM65.5023 13.584C65.6623 12.32 66.5743 11.472 67.9503 11.472C69.3263 11.472 70.1583 12.32 70.2063 13.584H65.5023Z" fill="#333333"/>
<path opacity="0.8" d="M81.384 4.672H80.04V6.944L77.864 6.192L77.448 7.472L79.64 8.224L78.264 10.032L79.336 10.848L80.68 9.008L82.056 10.896L83.16 10.096L81.784 8.224L83.96 7.52L83.544 6.24L81.384 6.944V4.672Z" fill="#DB3259"/>
</g>
<rect x="0.5" y="28.5" width="319" height="35" rx="3.5" fill="white"/>
<path opacity="0.5" d="M13.408 50H14.752V44.912H17.024C18.624 44.912 20.736 44.256 20.736 41.776C20.736 39.408 18.848 38.672 16.768 38.672H13.408V50ZM14.752 39.92H17.024C18.368 39.92 19.296 40.528 19.296 41.792C19.296 43.056 18.368 43.664 17.024 43.664H14.752V39.92ZM22.7804 50H24.0284V37.904H22.7804V50ZM27.2001 44.288C27.7921 43.744 28.6241 43.472 29.4241 43.472C30.5921 43.472 31.2801 44.032 31.2801 45.12V45.344H30.8001C28.9601 45.344 26.0801 45.488 26.0801 47.968C26.0801 49.424 27.3441 50.192 28.8641 50.192C30.0001 50.192 30.8321 49.648 31.3281 48.88H31.3601C31.3601 49.2 31.3601 49.664 31.4401 50H32.6401C32.5761 49.616 32.5281 49.136 32.5281 48.704V45.488C32.5281 43.376 31.6001 42.32 29.3921 42.32C28.3041 42.32 27.1841 42.688 26.4161 43.472L27.2001 44.288ZM31.2801 46.4V46.88C31.2481 48.096 30.5121 49.136 29.0721 49.136C28.1281 49.136 27.4241 48.784 27.4241 47.84C27.4241 46.832 28.4481 46.4 30.0321 46.4H31.2801ZM41.129 43.504C40.377 42.688 39.353 42.32 38.249 42.32C35.945 42.32 34.377 43.984 34.377 46.256C34.377 48.56 35.929 50.192 38.249 50.192C39.337 50.192 40.361 49.824 41.081 48.992L40.153 48.112C39.689 48.752 39.065 49.04 38.249 49.04C36.729 49.04 35.721 47.792 35.721 46.256C35.721 44.72 36.569 43.472 38.249 43.472C39.001 43.472 39.609 43.744 40.137 44.384L41.129 43.504ZM48.2718 47.904C47.6798 48.656 46.9598 49.04 45.8878 49.04C44.5278 49.04 43.5358 47.936 43.4398 46.64H49.4878V46.24C49.4878 43.76 48.0478 42.32 45.9358 42.32C43.7278 42.32 42.0958 43.936 42.0958 46.256C42.0958 48.432 43.5358 50.192 45.8878 50.192C47.2798 50.192 48.3358 49.776 49.2158 48.64L48.2718 47.904ZM43.4398 45.584C43.5998 44.32 44.5118 43.472 45.8878 43.472C47.2638 43.472 48.0958 44.32 48.1438 45.584H43.4398ZM51.4184 50H52.6664V46.352C52.6664 44.64 53.3704 43.472 54.9864 43.472C56.1544 43.472 56.6984 44.256 56.6984 45.504V50H57.9464V45.376C57.9464 43.568 57.0664 42.32 55.0984 42.32C53.9304 42.32 53.0344 42.96 52.6984 43.552H52.6664V37.904H51.4184V50ZM59.877 46.256C59.877 48.592 61.573 50.192 63.877 50.192C66.181 50.192 67.877 48.592 67.877 46.256C67.877 43.92 66.181 42.32 63.877 42.32C61.573 42.32 59.877 43.92 59.877 46.256ZM61.221 46.256C61.221 44.688 62.261 43.472 63.877 43.472C65.493 43.472 66.533 44.688 66.533 46.256C66.533 47.824 65.493 49.04 63.877 49.04C62.261 49.04 61.221 47.824 61.221 46.256ZM69.921 50H71.169V37.904H69.921V50ZM79.8768 50H81.1248V37.904H79.8768V43.6H79.8448C79.1568 42.8 78.2448 42.32 77.1568 42.32C74.8048 42.32 73.2208 43.984 73.2208 46.256C73.2208 48.496 74.8688 50.192 76.9648 50.192C78.3088 50.192 79.3808 49.52 79.8448 48.672H79.8768V50ZM79.8768 46.256C79.8768 47.824 78.8368 49.04 77.2208 49.04C75.6048 49.04 74.5648 47.824 74.5648 46.256C74.5648 44.688 75.6048 43.472 77.2208 43.472C78.8368 43.472 79.8768 44.688 79.8768 46.256ZM89.178 47.904C88.586 48.656 87.866 49.04 86.794 49.04C85.434 49.04 84.442 47.936 84.346 46.64H90.394V46.24C90.394 43.76 88.954 42.32 86.842 42.32C84.634 42.32 83.002 43.936 83.002 46.256C83.002 48.432 84.442 50.192 86.794 50.192C88.186 50.192 89.242 49.776 90.122 48.64L89.178 47.904ZM84.346 45.584C84.506 44.32 85.418 43.472 86.794 43.472C88.17 43.472 89.002 44.32 89.05 45.584H84.346ZM92.3246 50H93.5726V46.352C93.5726 44.64 94.2446 43.568 95.7646 43.568C95.9886 43.568 96.2286 43.6 96.4366 43.664L96.5166 42.4C96.3406 42.336 96.1646 42.32 96.0046 42.32C94.7726 42.32 93.8446 43.008 93.5086 43.744H93.4766C93.4766 43.328 93.4446 42.912 93.4446 42.512H92.2606C92.2606 43.008 92.3246 43.6 92.3246 44.288V50Z" fill="#9EA6B5"/>
<rect x="0.5" y="28.5" width="319" height="35" rx="3.5" stroke="#9EA6B5"/>
<g clip-path="url(#clip1_22_6178)">
<path d="M1.408 98H8.816V96.752H2.752V92.72H8.144V91.472H2.752V87.92H8.528V86.672H1.408V98ZM10.6684 98H11.9164V94.352C11.9164 92.64 12.6204 91.472 14.2364 91.472C15.2604 91.472 15.6764 92.112 15.6764 93.76V98H16.9244V93.68C16.9244 92.336 17.8044 91.472 18.8604 91.472C20.3164 91.472 20.6844 92.48 20.6844 93.52V98H21.9324V93.456C21.9324 91.52 21.2284 90.32 19.0844 90.32C17.9484 90.32 17.2604 90.864 16.7164 91.744C16.4764 91.232 15.9644 90.32 14.3484 90.32C13.1164 90.32 12.1884 91.008 11.8524 91.744H11.8204C11.8204 91.328 11.7884 90.912 11.7884 90.512H10.6044C10.6044 91.008 10.6684 91.6 10.6684 92.288V98ZM24.9814 92.288C25.5734 91.744 26.4054 91.472 27.2054 91.472C28.3734 91.472 29.0614 92.032 29.0614 93.12V93.344H28.5814C26.7414 93.344 23.8614 93.488 23.8614 95.968C23.8614 97.424 25.1254 98.192 26.6454 98.192C27.7814 98.192 28.6134 97.648 29.1094 96.88H29.1414C29.1414 97.2 29.1414 97.664 29.2214 98H30.4214C30.3574 97.616 30.3094 97.136 30.3094 96.704V93.488C30.3094 91.376 29.3814 90.32 27.1734 90.32C26.0854 90.32 24.9654 90.688 24.1974 91.472L24.9814 92.288ZM29.0614 94.4V94.88C29.0294 96.096 28.2934 97.136 26.8534 97.136C25.9094 97.136 25.2054 96.784 25.2054 95.84C25.2054 94.832 26.2294 94.4 27.8134 94.4H29.0614ZM32.7023 98H33.9503V90.512H32.7023V98ZM32.4143 87.584C32.4143 88.112 32.7983 88.496 33.3263 88.496C33.8543 88.496 34.2383 88.112 34.2383 87.584C34.2383 87.088 33.8383 86.672 33.3263 86.672C32.8143 86.672 32.4143 87.088 32.4143 87.584ZM36.546 98H37.794V85.904H36.546V98Z" fill="#333333"/>
<path opacity="0.8" d="M48.384 84.672H47.04V86.944L44.864 86.192L44.448 87.472L46.64 88.224L45.264 90.032L46.336 90.848L47.68 89.008L49.056 90.896L50.16 90.096L48.784 88.224L50.96 87.52L50.544 86.24L48.384 86.944V84.672Z" fill="#DB3259"/>
</g>
<rect x="0.5" y="108.5" width="319" height="35" rx="3.5" fill="white"/>
<path opacity="0.5" d="M13.408 130H14.752V124.912H17.024C18.624 124.912 20.736 124.256 20.736 121.776C20.736 119.408 18.848 118.672 16.768 118.672H13.408V130ZM14.752 119.92H17.024C18.368 119.92 19.296 120.528 19.296 121.792C19.296 123.056 18.368 123.664 17.024 123.664H14.752V119.92ZM22.7804 130H24.0284V117.904H22.7804V130ZM27.2001 124.288C27.7921 123.744 28.6241 123.472 29.4241 123.472C30.5921 123.472 31.2801 124.032 31.2801 125.12V125.344H30.8001C28.9601 125.344 26.0801 125.488 26.0801 127.968C26.0801 129.424 27.3441 130.192 28.8641 130.192C30.0001 130.192 30.8321 129.648 31.3281 128.88H31.3601C31.3601 129.2 31.3601 129.664 31.4401 130H32.6401C32.5761 129.616 32.5281 129.136 32.5281 128.704V125.488C32.5281 123.376 31.6001 122.32 29.3921 122.32C28.3041 122.32 27.1841 122.688 26.4161 123.472L27.2001 124.288ZM31.2801 126.4V126.88C31.2481 128.096 30.5121 129.136 29.0721 129.136C28.1281 129.136 27.4241 128.784 27.4241 127.84C27.4241 126.832 28.4481 126.4 30.0321 126.4H31.2801ZM41.129 123.504C40.377 122.688 39.353 122.32 38.249 122.32C35.945 122.32 34.377 123.984 34.377 126.256C34.377 128.56 35.929 130.192 38.249 130.192C39.337 130.192 40.361 129.824 41.081 128.992L40.153 128.112C39.689 128.752 39.065 129.04 38.249 129.04C36.729 129.04 35.721 127.792 35.721 126.256C35.721 124.72 36.569 123.472 38.249 123.472C39.001 123.472 39.609 123.744 40.137 124.384L41.129 123.504ZM48.2718 127.904C47.6798 128.656 46.9598 129.04 45.8878 129.04C44.5278 129.04 43.5358 127.936 43.4398 126.64H49.4878V126.24C49.4878 123.76 48.0478 122.32 45.9358 122.32C43.7278 122.32 42.0958 123.936 42.0958 126.256C42.0958 128.432 43.5358 130.192 45.8878 130.192C47.2798 130.192 48.3358 129.776 49.2158 128.64L48.2718 127.904ZM43.4398 125.584C43.5998 124.32 44.5118 123.472 45.8878 123.472C47.2638 123.472 48.0958 124.32 48.1438 125.584H43.4398ZM51.4184 130H52.6664V126.352C52.6664 124.64 53.3704 123.472 54.9864 123.472C56.1544 123.472 56.6984 124.256 56.6984 125.504V130H57.9464V125.376C57.9464 123.568 57.0664 122.32 55.0984 122.32C53.9304 122.32 53.0344 122.96 52.6984 123.552H52.6664V117.904H51.4184V130ZM59.877 126.256C59.877 128.592 61.573 130.192 63.877 130.192C66.181 130.192 67.877 128.592 67.877 126.256C67.877 123.92 66.181 122.32 63.877 122.32C61.573 122.32 59.877 123.92 59.877 126.256ZM61.221 126.256C61.221 124.688 62.261 123.472 63.877 123.472C65.493 123.472 66.533 124.688 66.533 126.256C66.533 127.824 65.493 129.04 63.877 129.04C62.261 129.04 61.221 127.824 61.221 126.256ZM69.921 130H71.169V117.904H69.921V130ZM79.8768 130H81.1248V117.904H79.8768V123.6H79.8448C79.1568 122.8 78.2448 122.32 77.1568 122.32C74.8048 122.32 73.2208 123.984 73.2208 126.256C73.2208 128.496 74.8688 130.192 76.9648 130.192C78.3088 130.192 79.3808 129.52 79.8448 128.672H79.8768V130ZM79.8768 126.256C79.8768 127.824 78.8368 129.04 77.2208 129.04C75.6048 129.04 74.5648 127.824 74.5648 126.256C74.5648 124.688 75.6048 123.472 77.2208 123.472C78.8368 123.472 79.8768 124.688 79.8768 126.256ZM89.178 127.904C88.586 128.656 87.866 129.04 86.794 129.04C85.434 129.04 84.442 127.936 84.346 126.64H90.394V126.24C90.394 123.76 88.954 122.32 86.842 122.32C84.634 122.32 83.002 123.936 83.002 126.256C83.002 128.432 84.442 130.192 86.794 130.192C88.186 130.192 89.242 129.776 90.122 128.64L89.178 127.904ZM84.346 125.584C84.506 124.32 85.418 123.472 86.794 123.472C88.17 123.472 89.002 124.32 89.05 125.584H84.346ZM92.3246 130H93.5726V126.352C93.5726 124.64 94.2446 123.568 95.7646 123.568C95.9886 123.568 96.2286 123.6 96.4366 123.664L96.5166 122.4C96.3406 122.336 96.1646 122.32 96.0046 122.32C94.7726 122.32 93.8446 123.008 93.5086 123.744H93.4766C93.4766 123.328 93.4446 122.912 93.4446 122.512H92.2606C92.2606 123.008 92.3246 123.6 92.3246 124.288V130Z" fill="#9EA6B5"/>
<rect x="0.5" y="108.5" width="319" height="35" rx="3.5" stroke="#9EA6B5"/>
<g clip-path="url(#clip2_22_6178)">
<path d="M1.408 178H2.752V168.496H2.784L6.848 178H7.664L11.728 168.496H11.76V178H13.104V166.672H11.152L7.28 175.552H7.248L3.408 166.672H1.408V178ZM21.4436 175.904C20.8516 176.656 20.1316 177.04 19.0596 177.04C17.6996 177.04 16.7076 175.936 16.6116 174.64H22.6596V174.24C22.6596 171.76 21.2196 170.32 19.1076 170.32C16.8996 170.32 15.2676 171.936 15.2676 174.256C15.2676 176.432 16.7076 178.192 19.0596 178.192C20.4516 178.192 21.5076 177.776 22.3876 176.64L21.4436 175.904ZM16.6116 173.584C16.7716 172.32 17.6836 171.472 19.0596 171.472C20.4356 171.472 21.2676 172.32 21.3156 173.584H16.6116ZM23.7583 176.8C24.4943 177.856 25.4062 178.192 26.6703 178.192C28.1583 178.192 29.6623 177.536 29.6623 175.84C29.6623 174.336 28.5423 173.856 27.2143 173.6C26.2223 173.408 25.3263 173.136 25.3263 172.512C25.3263 171.808 26.1103 171.472 26.7983 171.472C27.5343 171.472 28.0623 171.84 28.3823 172.368L29.4223 171.68C28.9103 170.72 27.9343 170.32 26.8783 170.32C25.4863 170.32 24.0783 171.072 24.0783 172.528C24.0783 174.08 25.2943 174.384 26.7183 174.704C27.5182 174.88 28.3183 175.088 28.3183 175.888C28.3183 176.704 27.4543 177.04 26.6703 177.04C25.7903 177.04 25.2463 176.64 24.7503 176.032L23.7583 176.8ZM30.5708 176.8C31.3068 177.856 32.2188 178.192 33.4828 178.192C34.9708 178.192 36.4748 177.536 36.4748 175.84C36.4748 174.336 35.3548 173.856 34.0268 173.6C33.0348 173.408 32.1388 173.136 32.1388 172.512C32.1388 171.808 32.9228 171.472 33.6108 171.472C34.3468 171.472 34.8748 171.84 35.1948 172.368L36.2348 171.68C35.7228 170.72 34.7468 170.32 33.6908 170.32C32.2988 170.32 30.8908 171.072 30.8908 172.528C30.8908 174.08 32.1068 174.384 33.5308 174.704C34.3307 174.88 35.1308 175.088 35.1308 175.888C35.1308 176.704 34.2668 177.04 33.4828 177.04C32.6028 177.04 32.0588 176.64 31.5628 176.032L30.5708 176.8ZM38.9033 172.288C39.4953 171.744 40.3273 171.472 41.1273 171.472C42.2953 171.472 42.9833 172.032 42.9833 173.12V173.344H42.5033C40.6633 173.344 37.7833 173.488 37.7833 175.968C37.7833 177.424 39.0473 178.192 40.5673 178.192C41.7033 178.192 42.5353 177.648 43.0313 176.88H43.0633C43.0633 177.2 43.0633 177.664 43.1433 178H44.3433C44.2793 177.616 44.2313 177.136 44.2313 176.704V173.488C44.2313 171.376 43.3033 170.32 41.0953 170.32C40.0073 170.32 38.8873 170.688 38.1193 171.472L38.9033 172.288ZM42.9833 174.4V174.88C42.9513 176.096 42.2153 177.136 40.7753 177.136C39.8313 177.136 39.1273 176.784 39.1273 175.84C39.1273 174.832 40.1513 174.4 41.7352 174.4H42.9833ZM53.9841 170.512H52.7361V171.792H52.7041C52.2081 170.8 51.0721 170.32 50.0641 170.32C47.6801 170.32 46.0801 171.808 46.0801 174.256C46.0801 176.464 47.7121 178.096 50.0641 178.096C51.0561 178.096 52.1121 177.664 52.7041 176.704H52.7361V177.664C52.7361 179.248 52.1441 180.688 49.9041 180.688C48.7521 180.688 47.9041 180.24 47.1201 179.392L46.2241 180.416C47.2801 181.456 48.4481 181.84 49.9041 181.84C52.5281 181.84 53.9841 180.368 53.9841 177.664V170.512ZM47.4241 174.256C47.4241 172.688 48.4961 171.472 50.0641 171.472C51.6481 171.472 52.7361 172.608 52.7361 174.224C52.7361 175.664 51.7761 176.944 50.0641 176.944C48.6081 176.944 47.4241 175.776 47.4241 174.256ZM62.0374 175.904C61.4454 176.656 60.7254 177.04 59.6534 177.04C58.2934 177.04 57.3014 175.936 57.2054 174.64H63.2534V174.24C63.2534 171.76 61.8134 170.32 59.7014 170.32C57.4934 170.32 55.8614 171.936 55.8614 174.256C55.8614 176.432 57.3014 178.192 59.6534 178.192C61.0454 178.192 62.1014 177.776 62.9814 176.64L62.0374 175.904ZM57.2054 173.584C57.3654 172.32 58.2774 171.472 59.6534 171.472C61.0294 171.472 61.8614 172.32 61.9094 173.584H57.2054Z" fill="#333333"/>
</g>
<rect x="0.5" y="188.5" width="639" height="83" rx="3.5" fill="white"/>
<path opacity="0.5" d="M13.408 210H14.752V198.672H13.408V210ZM17.3403 210H18.5883V206.352C18.5883 204.64 19.2923 203.472 20.9083 203.472C22.0763 203.472 22.6203 204.256 22.6203 205.504V210H23.8683V205.376C23.8683 203.568 22.9883 202.32 21.0203 202.32C19.7883 202.32 18.8603 203.008 18.5243 203.744H18.4923C18.4923 203.328 18.4603 202.912 18.4603 202.512H17.2763C17.2763 203.008 17.3403 203.6 17.3403 204.288V210ZM26.1669 213.648H27.4149V208.672H27.4469C27.9109 209.52 28.9829 210.192 30.3269 210.192C32.4229 210.192 34.0709 208.496 34.0709 206.256C34.0709 203.984 32.4869 202.32 30.1349 202.32C29.0469 202.32 28.1349 202.8 27.4469 203.6H27.4149V202.512H26.1669V213.648ZM27.4149 206.256C27.4149 204.688 28.4549 203.472 30.0709 203.472C31.6869 203.472 32.7269 204.688 32.7269 206.256C32.7269 207.824 31.6869 209.04 30.0709 209.04C28.4549 209.04 27.4149 207.824 27.4149 206.256ZM42.5401 202.512H41.2921V206.16C41.2921 207.872 40.5881 209.04 38.9721 209.04C37.8041 209.04 37.2601 208.256 37.2601 207.008V202.512H36.0121V207.136C36.0121 208.944 36.8921 210.192 38.8601 210.192C40.0921 210.192 41.0201 209.504 41.3561 208.768H41.3881C41.3881 209.184 41.4201 209.6 41.4201 210H42.6041C42.6041 209.504 42.5401 208.912 42.5401 208.224V202.512ZM48.9988 202.512H46.7908V200.384H45.5428V202.512H43.9108V203.568H45.5428V207.68C45.5428 209.232 45.8307 210.192 47.6068 210.192C48.0708 210.192 48.6308 210.112 49.0628 209.92L49.0148 208.784C48.6788 208.96 48.2788 209.04 47.9108 209.04C46.8068 209.04 46.7908 208.272 46.7908 207.312V203.568H48.9988V202.512Z" fill="#9EA6B5"/>
<rect x="0.5" y="188.5" width="639" height="83" rx="3.5" stroke="#9EA6B5"/>
<g clip-path="url(#clip3_22_6178)">
<path d="M7.882 277.088H0.154V278.18H3.43V287H4.606V278.18H7.882V277.088ZM9.07506 287H10.1671V283.808C10.1671 282.31 10.7831 281.288 12.1971 281.288C13.2191 281.288 13.6951 281.974 13.6951 283.066V287H14.7871V282.954C14.7871 281.372 14.0171 280.28 12.2951 280.28C11.2731 280.28 10.4891 280.84 10.1951 281.358H10.1671V276.416H9.07506V287ZM16.9524 287H18.0444V280.448H16.9524V287ZM16.7004 277.886C16.7004 278.348 17.0364 278.684 17.4984 278.684C17.9604 278.684 18.2964 278.348 18.2964 277.886C18.2964 277.452 17.9464 277.088 17.4984 277.088C17.0504 277.088 16.7004 277.452 16.7004 277.886ZM19.4896 285.95C20.1336 286.874 20.9316 287.168 22.0376 287.168C23.3396 287.168 24.6556 286.594 24.6556 285.11C24.6556 283.794 23.6756 283.374 22.5136 283.15C21.6456 282.982 20.8616 282.744 20.8616 282.198C20.8616 281.582 21.5476 281.288 22.1496 281.288C22.7936 281.288 23.2556 281.61 23.5356 282.072L24.4456 281.47C23.9976 280.63 23.1436 280.28 22.2196 280.28C21.0016 280.28 19.7696 280.938 19.7696 282.212C19.7696 283.57 20.8336 283.836 22.0796 284.116C22.7796 284.27 23.4796 284.452 23.4796 285.152C23.4796 285.866 22.7236 286.16 22.0376 286.16C21.2676 286.16 20.7916 285.81 20.3576 285.278L19.4896 285.95ZM30.1731 287H31.2651V280.448H30.1731V287ZM29.9211 277.886C29.9211 278.348 30.2571 278.684 30.7191 278.684C31.1811 278.684 31.5171 278.348 31.5171 277.886C31.5171 277.452 31.1671 277.088 30.7191 277.088C30.2711 277.088 29.9211 277.452 29.9211 277.886ZM32.7103 285.95C33.3543 286.874 34.1523 287.168 35.2583 287.168C36.5603 287.168 37.8763 286.594 37.8763 285.11C37.8763 283.794 36.8963 283.374 35.7343 283.15C34.8663 282.982 34.0823 282.744 34.0823 282.198C34.0823 281.582 34.7683 281.288 35.3703 281.288C36.0143 281.288 36.4763 281.61 36.7563 282.072L37.6663 281.47C37.2183 280.63 36.3643 280.28 35.4403 280.28C34.2223 280.28 32.9903 280.938 32.9903 282.212C32.9903 283.57 34.0543 283.836 35.3003 284.116C36.0003 284.27 36.7003 284.452 36.7003 285.152C36.7003 285.866 35.9443 286.16 35.2583 286.16C34.4883 286.16 34.0123 285.81 33.5783 285.278L32.7103 285.95ZM46.8798 280.448H44.9478V278.586H43.8558V280.448H42.4278V281.372H43.8558V284.97C43.8558 286.328 44.1078 287.168 45.6618 287.168C46.0678 287.168 46.5578 287.098 46.9358 286.93L46.8938 285.936C46.5998 286.09 46.2498 286.16 45.9278 286.16C44.9618 286.16 44.9478 285.488 44.9478 284.648V281.372H46.8798V280.448ZM48.2176 287H49.3096V283.808C49.3096 282.31 49.9256 281.288 51.3396 281.288C52.3616 281.288 52.8376 281.974 52.8376 283.066V287H53.9296V282.954C53.9296 281.372 53.1596 280.28 51.4376 280.28C50.4156 280.28 49.6316 280.84 49.3376 281.358H49.3096V276.416H48.2176V287ZM61.0229 285.166C60.5049 285.824 59.8749 286.16 58.9369 286.16C57.7469 286.16 56.8789 285.194 56.7949 284.06H62.0869V283.71C62.0869 281.54 60.8269 280.28 58.9789 280.28C57.0469 280.28 55.6189 281.694 55.6189 283.724C55.6189 285.628 56.8789 287.168 58.9369 287.168C60.1549 287.168 61.0789 286.804 61.8489 285.81L61.0229 285.166ZM56.7949 283.136C56.9349 282.03 57.7329 281.288 58.9369 281.288C60.1409 281.288 60.8689 282.03 60.9109 283.136H56.7949ZM73.1187 287H74.2107V276.416H73.1187V281.4H73.0907C72.4887 280.7 71.6907 280.28 70.7387 280.28C68.6807 280.28 67.2947 281.736 67.2947 283.724C67.2947 285.684 68.7367 287.168 70.5707 287.168C71.7467 287.168 72.6847 286.58 73.0907 285.838H73.1187V287ZM73.1187 283.724C73.1187 285.096 72.2087 286.16 70.7947 286.16C69.3807 286.16 68.4707 285.096 68.4707 283.724C68.4707 282.352 69.3807 281.288 70.7947 281.288C72.2087 281.288 73.1187 282.352 73.1187 283.724ZM81.2573 285.166C80.7393 285.824 80.1093 286.16 79.1713 286.16C77.9813 286.16 77.1133 285.194 77.0293 284.06H82.3213V283.71C82.3213 281.54 81.0613 280.28 79.2133 280.28C77.2813 280.28 75.8533 281.694 75.8533 283.724C75.8533 285.628 77.1133 287.168 79.1713 287.168C80.3893 287.168 81.3133 286.804 82.0833 285.81L81.2573 285.166ZM77.0293 283.136C77.1693 282.03 77.9673 281.288 79.1713 281.288C80.3753 281.288 81.1033 282.03 81.1453 283.136H77.0293ZM83.2826 285.95C83.9266 286.874 84.7246 287.168 85.8306 287.168C87.1326 287.168 88.4486 286.594 88.4486 285.11C88.4486 283.794 87.4686 283.374 86.3066 283.15C85.4386 282.982 84.6546 282.744 84.6546 282.198C84.6546 281.582 85.3406 281.288 85.9426 281.288C86.5866 281.288 87.0486 281.61 87.3286 282.072L88.2386 281.47C87.7906 280.63 86.9366 280.28 86.0126 280.28C84.7946 280.28 83.5626 280.938 83.5626 282.212C83.5626 283.57 84.6266 283.836 85.8726 284.116C86.5726 284.27 87.2726 284.452 87.2726 285.152C87.2726 285.866 86.5166 286.16 85.8306 286.16C85.0606 286.16 84.5846 285.81 84.1506 285.278L83.2826 285.95ZM95.5015 281.316C94.8435 280.602 93.9475 280.28 92.9815 280.28C90.9655 280.28 89.5935 281.736 89.5935 283.724C89.5935 285.74 90.9515 287.168 92.9815 287.168C93.9335 287.168 94.8295 286.846 95.4595 286.118L94.6475 285.348C94.2415 285.908 93.6955 286.16 92.9815 286.16C91.6515 286.16 90.7695 285.068 90.7695 283.724C90.7695 282.38 91.5115 281.288 92.9815 281.288C93.6395 281.288 94.1715 281.526 94.6335 282.086L95.5015 281.316ZM96.7255 287H97.8175V283.808C97.8175 282.31 98.4055 281.372 99.7355 281.372C99.9315 281.372 100.141 281.4 100.323 281.456L100.393 280.35C100.239 280.294 100.085 280.28 99.9455 280.28C98.8675 280.28 98.0555 280.882 97.7615 281.526H97.7335C97.7335 281.162 97.7055 280.798 97.7055 280.448H96.6695C96.6695 280.882 96.7255 281.4 96.7255 282.002V287ZM101.745 287H102.837V280.448H101.745V287ZM101.493 277.886C101.493 278.348 101.829 278.684 102.291 278.684C102.753 278.684 103.089 278.348 103.089 277.886C103.089 277.452 102.739 277.088 102.291 277.088C101.843 277.088 101.493 277.452 101.493 277.886ZM104.955 290.192H106.047V285.838H106.075C106.481 286.58 107.419 287.168 108.595 287.168C110.429 287.168 111.871 285.684 111.871 283.724C111.871 281.736 110.485 280.28 108.427 280.28C107.475 280.28 106.677 280.7 106.075 281.4H106.047V280.448H104.955V290.192ZM106.047 283.724C106.047 282.352 106.957 281.288 108.371 281.288C109.785 281.288 110.695 282.352 110.695 283.724C110.695 285.096 109.785 286.16 108.371 286.16C106.957 286.16 106.047 285.096 106.047 283.724ZM117.153 280.448H115.221V278.586H114.129V280.448H112.701V281.372H114.129V284.97C114.129 286.328 114.381 287.168 115.935 287.168C116.341 287.168 116.831 287.098 117.209 286.93L117.167 285.936C116.873 286.09 116.523 286.16 116.201 286.16C115.235 286.16 115.221 285.488 115.221 284.648V281.372H117.153V280.448ZM118.589 287H119.681V280.448H118.589V287ZM118.337 277.886C118.337 278.348 118.673 278.684 119.135 278.684C119.597 278.684 119.933 278.348 119.933 277.886C119.933 277.452 119.583 277.088 119.135 277.088C118.687 277.088 118.337 277.452 118.337 277.886ZM121.476 283.724C121.476 285.768 122.96 287.168 124.976 287.168C126.992 287.168 128.476 285.768 128.476 283.724C128.476 281.68 126.992 280.28 124.976 280.28C122.96 280.28 121.476 281.68 121.476 283.724ZM122.652 283.724C122.652 282.352 123.562 281.288 124.976 281.288C126.39 281.288 127.3 282.352 127.3 283.724C127.3 285.096 126.39 286.16 124.976 286.16C123.562 286.16 122.652 285.096 122.652 283.724ZM130.167 287H131.259V283.808C131.259 282.31 131.875 281.288 133.289 281.288C134.311 281.288 134.787 281.974 134.787 283.066V287H135.879V282.954C135.879 281.372 135.109 280.28 133.387 280.28C132.309 280.28 131.497 280.882 131.203 281.526H131.175C131.175 281.162 131.147 280.798 131.147 280.448H130.111C130.111 280.882 130.167 281.4 130.167 282.002V287ZM142.445 282.002C142.963 281.526 143.691 281.288 144.391 281.288C145.413 281.288 146.015 281.778 146.015 282.73V282.926H145.595C143.985 282.926 141.465 283.052 141.465 285.222C141.465 286.496 142.571 287.168 143.901 287.168C144.895 287.168 145.623 286.692 146.057 286.02H146.085C146.085 286.3 146.085 286.706 146.155 287H147.205C147.149 286.664 147.107 286.244 147.107 285.866V283.052C147.107 281.204 146.295 280.28 144.363 280.28C143.411 280.28 142.431 280.602 141.759 281.288L142.445 282.002ZM146.015 283.85V284.27C145.987 285.334 145.343 286.244 144.083 286.244C143.257 286.244 142.641 285.936 142.641 285.11C142.641 284.228 143.537 283.85 144.923 283.85H146.015ZM149.102 287H150.194V283.808C150.194 282.31 150.782 281.372 152.112 281.372C152.308 281.372 152.518 281.4 152.7 281.456L152.77 280.35C152.616 280.294 152.462 280.28 152.322 280.28C151.244 280.28 150.432 280.882 150.138 281.526H150.11C150.11 281.162 150.082 280.798 150.082 280.448H149.046C149.046 280.882 149.102 281.4 149.102 282.002V287ZM158.804 285.166C158.286 285.824 157.656 286.16 156.718 286.16C155.528 286.16 154.66 285.194 154.576 284.06H159.868V283.71C159.868 281.54 158.608 280.28 156.76 280.28C154.828 280.28 153.4 281.694 153.4 283.724C153.4 285.628 154.66 287.168 156.718 287.168C157.936 287.168 158.86 286.804 159.63 285.81L158.804 285.166ZM154.576 283.136C154.716 282.03 155.514 281.288 156.718 281.288C157.922 281.288 158.65 282.03 158.692 283.136H154.576ZM162.159 282.002C162.677 281.526 163.405 281.288 164.105 281.288C165.127 281.288 165.729 281.778 165.729 282.73V282.926H165.309C163.699 282.926 161.179 283.052 161.179 285.222C161.179 286.496 162.285 287.168 163.615 287.168C164.609 287.168 165.337 286.692 165.771 286.02H165.799C165.799 286.3 165.799 286.706 165.869 287H166.919C166.863 286.664 166.821 286.244 166.821 285.866V283.052C166.821 281.204 166.009 280.28 164.077 280.28C163.125 280.28 162.145 280.602 161.473 281.288L162.159 282.002ZM165.729 283.85V284.27C165.701 285.334 165.057 286.244 163.797 286.244C162.971 286.244 162.355 285.936 162.355 285.11C162.355 284.228 163.251 283.85 164.637 283.85H165.729Z" fill="#333333"/>
</g>
<rect x="0.5" y="309.5" width="319" height="42" rx="7.5" fill="#6C3078"/>
<path d="M142.764 334.5H144.78V325.812H144.812L150.412 334.5H152.972V323.172H150.956V331.588H150.924L145.436 323.172H142.764V334.5ZM162.714 331.332V330.804C162.714 328.132 161.258 326.628 159.114 326.628C156.794 326.628 154.938 328.244 154.938 330.66C154.938 333.076 156.794 334.692 159.114 334.692C160.33 334.692 161.466 334.26 162.362 333.156L160.986 332.116C160.506 332.708 159.882 333.156 158.922 333.156C157.85 333.156 156.986 332.468 156.858 331.332H162.714ZM156.858 329.892C157.002 328.788 157.706 328.068 158.842 328.068C160.042 328.068 160.778 328.772 160.794 329.892H156.858ZM163.406 334.5H165.678L167.694 331.748L169.694 334.5H172.03L168.942 330.372L171.566 326.82H169.374L167.71 329.124L166.174 326.82H163.838L166.494 330.372L163.406 334.5ZM173.792 328.452V331.972C173.792 333.78 174.272 334.692 176.304 334.692C176.752 334.692 177.424 334.628 177.824 334.436V332.82C177.584 332.996 177.12 333.06 176.784 333.06C175.936 333.06 175.712 332.58 175.712 331.812V328.452H177.824V326.82H175.712V324.596H173.792V326.82H172.208V328.452H173.792Z" fill="white"/>
<rect x="0.5" y="309.5" width="319" height="42" rx="7.5" stroke="#6C3078"/>
<defs>
<clipPath id="clip0_22_6178">
<rect width="85" height="24" fill="white"/>
</clipPath>
<clipPath id="clip1_22_6178">
<rect width="52" height="24" fill="white" transform="translate(0 80)"/>
</clipPath>
<clipPath id="clip2_22_6178">
<rect width="64" height="24" fill="white" transform="translate(0 160)"/>
</clipPath>
<clipPath id="clip3_22_6178">
<rect width="640" height="17" fill="white" transform="translate(0 276)"/>
</clipPath>
</defs>
</svg>
