<svg width="2580" height="1198" viewBox="0 0 2580 1198" fill="none" xmlns="http://www.w3.org/2000/svg">
<g filter="url(#filter0_dd_91_24727)">
<g clip-path="url(#clip0_91_24727)" filter="url(#filter1_dd_91_24727)">
<rect width="2560" height="1178" transform="translate(10 9)" fill="white"/>
<g clip-path="url(#clip1_91_24727)" filter="url(#filter2_dd_91_24727)">
<rect width="2560" height="1178" transform="translate(10 9)" fill="white"/>
<line x1="10" y1="186.5" x2="2578" y2="186.5" stroke="#D2D6DD"/>
<mask id="path-2-inside-1_91_24727" fill="white">
<path d="M283 73H2297V187H283V73Z"/>
</mask>
<path d="M283 73H2297V187H283V73Z" fill="white"/>
<path d="M348.056 109H352.952V108.064H349.064V100.504H348.056V109ZM354.056 109H359.612V108.064H355.064V105.04H359.108V104.104H355.064V101.44H359.396V100.504H354.056V109ZM363.257 109H364.229L367.553 100.504H366.485L363.785 107.488H363.761L361.145 100.504H360.005L363.257 109ZM368.505 109H374.061V108.064H369.513V105.04H373.557V104.104H369.513V101.44H373.845V100.504H368.505V109ZM375.619 109H380.515V108.064H376.627V100.504H375.619V109ZM388.222 100.504H387.346L385.066 102.352L385.666 103.084L387.19 101.8H387.214V109H388.222V100.504Z" fill="#9EA6B5"/>
<circle cx="411" cy="106" r="4" fill="#D2D6DD"/>
<path d="M432.056 109H436.952V108.064H433.064V100.504H432.056V109ZM438.056 109H443.612V108.064H439.064V105.04H443.108V104.104H439.064V101.44H443.396V100.504H438.056V109ZM447.257 109H448.229L451.553 100.504H450.485L447.785 107.488H447.761L445.145 100.504H444.005L447.257 109ZM452.505 109H458.061V108.064H453.513V105.04H457.557V104.104H453.513V101.44H457.845V100.504H452.505V109ZM459.619 109H464.515V108.064H460.627V100.504H459.619V109ZM468.502 109H473.974V108.064H469.642V108.04L472.258 105.58C473.11 104.776 473.914 104.02 473.914 102.664C473.914 101.152 472.726 100.36 471.322 100.36C469.954 100.36 468.886 101.092 468.658 102.484L469.75 102.58C469.906 101.764 470.506 101.224 471.358 101.224C472.21 101.224 472.906 101.776 472.906 102.664C472.906 103.492 472.51 103.948 471.706 104.728L468.502 107.848V109Z" fill="#9EA6B5"/>
<circle cx="495" cy="106" r="4" fill="#D2D6DD"/>
<path d="M516.056 109H520.952V108.064H517.064V100.504H516.056V109ZM522.056 109H527.612V108.064H523.064V105.04H527.108V104.104H523.064V101.44H527.396V100.504H522.056V109ZM531.257 109H532.229L535.553 100.504H534.485L531.785 107.488H531.761L529.145 100.504H528.005L531.257 109ZM536.505 109H542.061V108.064H537.513V105.04H541.557V104.104H537.513V101.44H541.845V100.504H536.505V109ZM543.619 109H548.515V108.064H544.627V100.504H543.619V109ZM554.35 104.968H554.662C555.706 104.968 556.81 105.364 556.81 106.612C556.81 107.596 556.042 108.28 555.082 108.28C554.146 108.28 553.654 107.932 553.366 107.02L552.346 107.356C552.778 108.616 553.798 109.144 555.082 109.144C556.594 109.144 557.89 108.304 557.89 106.684C557.89 105.616 557.23 104.728 556.15 104.548V104.524C557.002 104.26 557.602 103.468 557.602 102.58C557.602 101.116 556.426 100.36 555.07 100.36C553.99 100.36 553.018 100.84 552.61 101.8L553.582 102.172C553.882 101.548 554.434 101.224 555.142 101.224C555.994 101.224 556.594 101.764 556.594 102.628C556.594 103.912 555.502 104.104 554.662 104.104H554.35V104.968Z" fill="#9EA6B5"/>
<path d="M349.304 151H354.296V142.168H357.944C362.712 142.168 366.328 140.536 366.328 135.224C366.328 129.848 362.424 128.344 357.72 128.344H349.304V151ZM354.296 132.568H356.856C358.776 132.568 361.144 132.888 361.144 135.224C361.144 137.336 359.384 137.944 357.624 137.944H354.296V132.568ZM378.612 151H383.028V143.096C383.028 137.912 381.524 135.064 375.924 135.064C373.396 135.064 370.836 135.896 369.076 137.56L371.636 140.184C372.66 139.032 373.972 138.328 375.54 138.328C377.204 138.328 378.612 139.416 378.612 141.112C374.612 141.112 368.084 141.208 368.084 146.584C368.084 149.72 370.708 151.384 373.62 151.384C375.572 151.384 377.492 150.712 378.548 149.048H378.612V151ZM378.612 144.184V145.208C378.612 147.128 376.852 148.12 374.964 148.12C373.908 148.12 372.692 147.576 372.692 146.424C372.692 144.312 375.956 144.184 377.428 144.184H378.612ZM402.36 135.448H397.944V137.496H397.88C397.144 136.376 395.288 135.064 392.568 135.064C388.152 135.064 385.464 139.032 385.464 143.16C385.464 147.864 388.504 151.192 393.112 151.192C394.552 151.192 396.408 150.648 397.496 149.144H397.56V150.648C397.56 152.856 396.184 154.456 393.272 154.456C391.32 154.456 389.688 153.688 388.216 152.44L385.56 156.408C387.8 158.2 390.616 158.68 393.368 158.68C399.384 158.68 402.36 155.544 402.36 149.688V135.448ZM390.264 143.128C390.264 141.112 391.928 139.288 394.104 139.288C396.28 139.288 397.944 141.112 397.944 143.128C397.944 145.144 396.28 146.968 394.104 146.968C391.928 146.968 390.264 145.144 390.264 143.128ZM417.556 145.848C416.756 146.936 415.7 147.736 414.132 147.736C412.276 147.736 410.9 146.552 410.516 144.728H421.652V143.224C421.652 138.264 418.836 135.064 414.356 135.064C409.556 135.064 405.716 138.264 405.716 143.224C405.716 148.184 409.556 151.384 414.356 151.384C416.852 151.384 419.38 150.264 420.916 148.312L417.556 145.848ZM410.516 141.464C410.644 139.96 411.796 138.52 413.908 138.52C415.636 138.52 416.884 139.864 416.852 141.464H410.516ZM434.04 126.808V151H438.84V143.256C438.84 141.24 439.224 139.288 441.72 139.288C444.184 139.288 444.216 141.592 444.216 143.384V151H449.016V142.424C449.016 138.264 448.12 135.064 443.256 135.064C440.92 135.064 439.352 136.344 438.904 137.56H438.84V126.808H434.04ZM463.775 145.848C462.975 146.936 461.919 147.736 460.351 147.736C458.495 147.736 457.119 146.552 456.735 144.728H467.871V143.224C467.871 138.264 465.055 135.064 460.575 135.064C455.775 135.064 451.935 138.264 451.935 143.224C451.935 148.184 455.775 151.384 460.575 151.384C463.071 151.384 465.599 150.264 467.135 148.312L463.775 145.848ZM456.735 141.464C456.863 139.96 458.015 138.52 460.127 138.52C461.855 138.52 463.103 139.864 463.071 141.464H456.735ZM480.55 151H484.966V143.096C484.966 137.912 483.462 135.064 477.862 135.064C475.334 135.064 472.774 135.896 471.014 137.56L473.574 140.184C474.598 139.032 475.91 138.328 477.478 138.328C479.142 138.328 480.55 139.416 480.55 141.112C476.55 141.112 470.022 141.208 470.022 146.584C470.022 149.72 472.646 151.384 475.558 151.384C477.51 151.384 479.43 150.712 480.486 149.048H480.55V151ZM480.55 144.184V145.208C480.55 147.128 478.79 148.12 476.902 148.12C475.846 148.12 474.63 147.576 474.63 146.424C474.63 144.312 477.894 144.184 479.366 144.184H480.55ZM504.297 126.808H499.497V137.112H499.433C498.345 135.608 496.489 135.064 494.505 135.064C490.089 135.064 487.401 139.032 487.401 143.352C487.401 148.056 490.441 151.384 495.049 151.384C497.225 151.384 499.081 150.072 499.817 148.952H499.881V151H504.297V126.808ZM499.881 143.224C499.881 145.56 498.441 147.16 496.041 147.16C493.641 147.16 492.201 145.56 492.201 143.224C492.201 140.888 493.641 139.288 496.041 139.288C498.441 139.288 499.881 140.888 499.881 143.224ZM508.198 151H512.998V135.448H508.198V151ZM507.814 130.552C507.814 132.088 509.062 133.336 510.598 133.336C512.134 133.336 513.382 132.088 513.382 130.552C513.382 129.016 512.134 127.768 510.598 127.768C509.062 127.768 507.814 129.016 507.814 130.552ZM516.446 151H521.246V143.256C521.246 141.24 521.63 139.288 524.126 139.288C526.59 139.288 526.622 141.592 526.622 143.384V151H531.422V142.424C531.422 138.264 530.526 135.064 525.662 135.064C523.326 135.064 521.758 136.344 521.118 137.56H521.054V135.448H516.446V151ZM551.141 135.448H546.725V137.496H546.661C545.925 136.376 544.069 135.064 541.349 135.064C536.933 135.064 534.245 139.032 534.245 143.16C534.245 147.864 537.285 151.192 541.893 151.192C543.333 151.192 545.189 150.648 546.277 149.144H546.341V150.648C546.341 152.856 544.965 154.456 542.053 154.456C540.101 154.456 538.469 153.688 536.997 152.44L534.341 156.408C536.581 158.2 539.397 158.68 542.149 158.68C548.165 158.68 551.141 155.544 551.141 149.688V135.448ZM539.045 143.128C539.045 141.112 540.709 139.288 542.885 139.288C545.061 139.288 546.725 141.112 546.725 143.128C546.725 145.144 545.061 146.968 542.885 146.968C540.709 146.968 539.045 145.144 539.045 143.128Z" fill="#502252"/>
<path d="M2297 186H283V188H2297V186Z" fill="#D2D6DD" mask="url(#path-2-inside-1_91_24727)"/>
<rect width="2560" height="50" transform="translate(10 1137)" fill="#D8D8D8"/>
<rect x="10" y="1137" width="2560" height="50" fill="white"/>
<path d="M2446.66 1165.49C2446.49 1166.26 2446.14 1166.86 2445.61 1167.31C2445.07 1167.76 2444.44 1167.98 2443.7 1167.98C2443.16 1167.98 2442.67 1167.89 2442.23 1167.71C2441.79 1167.52 2441.42 1167.26 2441.11 1166.94C2440.8 1166.61 2440.56 1166.23 2440.39 1165.79C2440.23 1165.34 2440.15 1164.86 2440.15 1164.34C2440.15 1163.81 2440.23 1163.33 2440.39 1162.88C2440.55 1162.43 2440.78 1162.05 2441.08 1161.73C2441.38 1161.41 2441.75 1161.16 2442.18 1160.98C2442.62 1160.79 2443.11 1160.7 2443.65 1160.7C2444.03 1160.7 2444.38 1160.76 2444.71 1160.86C2445.05 1160.96 2445.36 1161.11 2445.62 1161.31C2445.89 1161.51 2446.11 1161.77 2446.28 1162.08C2446.46 1162.38 2446.58 1162.73 2446.65 1163.12H2445.67C2445.59 1162.67 2445.36 1162.3 2445 1162.02C2444.65 1161.72 2444.2 1161.57 2443.67 1161.57C2443.28 1161.57 2442.92 1161.64 2442.61 1161.79C2442.31 1161.93 2442.04 1162.12 2441.83 1162.37C2441.63 1162.61 2441.47 1162.91 2441.37 1163.25C2441.26 1163.58 2441.21 1163.94 2441.21 1164.34C2441.21 1164.71 2441.27 1165.07 2441.38 1165.41C2441.5 1165.74 2441.67 1166.03 2441.88 1166.29C2442.1 1166.54 2442.36 1166.75 2442.66 1166.9C2442.97 1167.05 2443.32 1167.12 2443.7 1167.12C2444.24 1167.12 2444.68 1166.97 2445.03 1166.66C2445.38 1166.35 2445.6 1165.96 2445.67 1165.49H2446.66ZM2437.51 1164.34C2437.51 1163.49 2437.67 1162.71 2437.97 1161.98C2438.29 1161.25 2438.73 1160.62 2439.27 1160.1C2439.81 1159.56 2440.44 1159.15 2441.16 1158.85C2441.88 1158.54 2442.65 1158.38 2443.46 1158.38C2444.27 1158.38 2445.04 1158.54 2445.75 1158.85C2446.48 1159.15 2447.11 1159.56 2447.65 1160.1C2448.2 1160.62 2448.63 1161.25 2448.93 1161.98C2449.25 1162.71 2449.41 1163.49 2449.41 1164.34C2449.41 1165.19 2449.25 1165.98 2448.93 1166.7C2448.63 1167.43 2448.2 1168.06 2447.65 1168.59C2447.11 1169.11 2446.48 1169.53 2445.75 1169.84C2445.04 1170.14 2444.27 1170.29 2443.46 1170.29C2442.65 1170.29 2441.88 1170.14 2441.16 1169.84C2440.44 1169.53 2439.81 1169.11 2439.27 1168.59C2438.73 1168.06 2438.29 1167.43 2437.97 1166.7C2437.67 1165.98 2437.51 1165.19 2437.51 1164.34ZM2438.57 1164.34C2438.57 1165.06 2438.69 1165.73 2438.95 1166.35C2439.21 1166.97 2439.55 1167.51 2439.99 1167.97C2440.43 1168.42 2440.95 1168.77 2441.54 1169.04C2442.14 1169.3 2442.78 1169.42 2443.46 1169.42C2444.15 1169.42 2444.78 1169.3 2445.37 1169.04C2445.96 1168.77 2446.48 1168.42 2446.92 1167.97C2447.37 1167.51 2447.72 1166.97 2447.97 1166.35C2448.23 1165.73 2448.36 1165.06 2448.36 1164.34C2448.36 1163.62 2448.23 1162.95 2447.97 1162.34C2447.72 1161.71 2447.37 1161.17 2446.92 1160.72C2446.48 1160.26 2445.96 1159.9 2445.37 1159.65C2444.78 1159.38 2444.15 1159.25 2443.46 1159.25C2442.78 1159.25 2442.14 1159.38 2441.54 1159.65C2440.95 1159.9 2440.43 1160.26 2439.99 1160.72C2439.55 1161.17 2439.21 1161.71 2438.95 1162.34C2438.69 1162.95 2438.57 1163.62 2438.57 1164.34ZM2455.11 1168.46L2459.38 1164.3C2459.65 1164.05 2459.89 1163.81 2460.09 1163.6C2460.29 1163.38 2460.46 1163.16 2460.58 1162.96C2460.72 1162.75 2460.82 1162.53 2460.89 1162.3C2460.95 1162.08 2460.98 1161.83 2460.98 1161.55C2460.98 1161.25 2460.93 1160.99 2460.82 1160.75C2460.72 1160.52 2460.57 1160.32 2460.38 1160.16C2460.2 1159.99 2459.98 1159.86 2459.72 1159.78C2459.48 1159.68 2459.21 1159.63 2458.92 1159.63C2458.34 1159.63 2457.87 1159.8 2457.5 1160.13C2457.12 1160.46 2456.88 1160.9 2456.78 1161.44L2455.32 1161.31C2455.4 1160.85 2455.53 1160.45 2455.74 1160.1C2455.95 1159.73 2456.21 1159.43 2456.52 1159.2C2456.84 1158.97 2457.2 1158.79 2457.59 1158.67C2457.99 1158.54 2458.41 1158.48 2458.87 1158.48C2459.34 1158.48 2459.78 1158.55 2460.2 1158.69C2460.62 1158.82 2460.98 1159.01 2461.29 1159.26C2461.61 1159.52 2461.86 1159.84 2462.04 1160.22C2462.23 1160.61 2462.33 1161.05 2462.33 1161.55C2462.33 1162 2462.26 1162.41 2462.14 1162.77C2462.02 1163.13 2461.85 1163.47 2461.64 1163.78C2461.44 1164.07 2461.2 1164.36 2460.94 1164.64C2460.68 1164.91 2460.41 1165.17 2460.12 1165.44L2456.63 1168.72V1168.75H2462.41V1170H2455.11V1168.46ZM2463.81 1164.34C2463.81 1163.7 2463.86 1163.03 2463.97 1162.34C2464.08 1161.64 2464.28 1161.01 2464.56 1160.45C2464.85 1159.87 2465.24 1159.4 2465.73 1159.04C2466.23 1158.67 2466.87 1158.48 2467.65 1158.48C2468.43 1158.48 2469.06 1158.67 2469.56 1159.04C2470.06 1159.4 2470.45 1159.87 2470.74 1160.45C2471.03 1161.01 2471.22 1161.64 2471.33 1162.34C2471.44 1163.03 2471.49 1163.7 2471.49 1164.34C2471.49 1164.98 2471.44 1165.64 2471.33 1166.34C2471.22 1167.03 2471.03 1167.66 2470.74 1168.24C2470.45 1168.81 2470.06 1169.27 2469.56 1169.65C2469.06 1170.01 2468.43 1170.19 2467.65 1170.19C2466.87 1170.19 2466.23 1170.01 2465.73 1169.65C2465.24 1169.27 2464.85 1168.81 2464.56 1168.24C2464.28 1167.66 2464.08 1167.03 2463.97 1166.34C2463.86 1165.64 2463.81 1164.98 2463.81 1164.34ZM2465.16 1164.34C2465.16 1164.61 2465.17 1164.92 2465.19 1165.26C2465.21 1165.61 2465.25 1165.95 2465.3 1166.3C2465.36 1166.65 2465.45 1166.98 2465.56 1167.31C2465.67 1167.64 2465.82 1167.94 2466 1168.19C2466.2 1168.45 2466.42 1168.66 2466.69 1168.82C2466.96 1168.97 2467.28 1169.04 2467.65 1169.04C2468.02 1169.04 2468.34 1168.97 2468.61 1168.82C2468.88 1168.66 2469.1 1168.45 2469.28 1168.19C2469.48 1167.94 2469.62 1167.64 2469.73 1167.31C2469.85 1166.98 2469.93 1166.65 2469.99 1166.3C2470.05 1165.95 2470.09 1165.61 2470.12 1165.26C2470.14 1164.92 2470.15 1164.61 2470.15 1164.34C2470.15 1164.06 2470.14 1163.75 2470.12 1163.41C2470.09 1163.07 2470.05 1162.73 2469.99 1162.38C2469.93 1162.03 2469.85 1161.69 2469.73 1161.36C2469.62 1161.03 2469.48 1160.74 2469.28 1160.48C2469.1 1160.22 2468.88 1160.02 2468.61 1159.87C2468.34 1159.71 2468.02 1159.63 2467.65 1159.63C2467.28 1159.63 2466.96 1159.71 2466.69 1159.87C2466.42 1160.02 2466.2 1160.22 2466 1160.48C2465.82 1160.74 2465.67 1161.03 2465.56 1161.36C2465.45 1161.69 2465.36 1162.03 2465.3 1162.38C2465.25 1162.73 2465.21 1163.07 2465.19 1163.41C2465.17 1163.75 2465.16 1164.06 2465.16 1164.34ZM2472.89 1168.46L2477.17 1164.3C2477.43 1164.05 2477.67 1163.81 2477.87 1163.6C2478.07 1163.38 2478.24 1163.16 2478.37 1162.96C2478.5 1162.75 2478.61 1162.53 2478.67 1162.3C2478.73 1162.08 2478.77 1161.83 2478.77 1161.55C2478.77 1161.25 2478.71 1160.99 2478.61 1160.75C2478.5 1160.52 2478.35 1160.32 2478.16 1160.16C2477.98 1159.99 2477.76 1159.86 2477.5 1159.78C2477.26 1159.68 2476.99 1159.63 2476.7 1159.63C2476.13 1159.63 2475.65 1159.8 2475.28 1160.13C2474.9 1160.46 2474.66 1160.9 2474.56 1161.44L2473.1 1161.31C2473.18 1160.85 2473.32 1160.45 2473.52 1160.1C2473.73 1159.73 2473.99 1159.43 2474.3 1159.2C2474.62 1158.97 2474.98 1158.79 2475.37 1158.67C2475.77 1158.54 2476.2 1158.48 2476.65 1158.48C2477.12 1158.48 2477.57 1158.55 2477.98 1158.69C2478.4 1158.82 2478.76 1159.01 2479.07 1159.26C2479.39 1159.52 2479.64 1159.84 2479.82 1160.22C2480.01 1160.61 2480.11 1161.05 2480.11 1161.55C2480.11 1162 2480.05 1162.41 2479.92 1162.77C2479.8 1163.13 2479.64 1163.47 2479.42 1163.78C2479.22 1164.07 2478.98 1164.36 2478.72 1164.64C2478.46 1164.91 2478.19 1165.17 2477.9 1165.44L2474.41 1168.72V1168.75H2480.19V1170H2472.89V1168.46ZM2481.78 1168.46L2486.06 1164.3C2486.32 1164.05 2486.56 1163.81 2486.76 1163.6C2486.96 1163.38 2487.13 1163.16 2487.26 1162.96C2487.4 1162.75 2487.5 1162.53 2487.56 1162.3C2487.62 1162.08 2487.66 1161.83 2487.66 1161.55C2487.66 1161.25 2487.6 1160.99 2487.5 1160.75C2487.39 1160.52 2487.24 1160.32 2487.05 1160.16C2486.87 1159.99 2486.65 1159.86 2486.39 1159.78C2486.15 1159.68 2485.88 1159.63 2485.59 1159.63C2485.02 1159.63 2484.54 1159.8 2484.17 1160.13C2483.8 1160.46 2483.56 1160.9 2483.45 1161.44L2481.99 1161.31C2482.07 1160.85 2482.21 1160.45 2482.41 1160.1C2482.62 1159.73 2482.88 1159.43 2483.19 1159.2C2483.51 1158.97 2483.87 1158.79 2484.26 1158.67C2484.66 1158.54 2485.09 1158.48 2485.54 1158.48C2486.01 1158.48 2486.46 1158.55 2486.87 1158.69C2487.29 1158.82 2487.65 1159.01 2487.96 1159.26C2488.28 1159.52 2488.53 1159.84 2488.71 1160.22C2488.9 1160.61 2489 1161.05 2489 1161.55C2489 1162 2488.94 1162.41 2488.81 1162.77C2488.69 1163.13 2488.53 1163.47 2488.31 1163.78C2488.11 1164.07 2487.88 1164.36 2487.61 1164.64C2487.35 1164.91 2487.08 1165.17 2486.79 1165.44L2483.3 1168.72V1168.75H2489.08V1170H2481.78V1168.46ZM2499.42 1158.67H2500.68L2505.5 1170H2503.93L2502.78 1167.22H2497.11L2495.94 1170H2494.42L2499.42 1158.67ZM2500.02 1160.4H2499.99L2497.64 1165.97H2502.26L2500.02 1160.4ZM2507 1158.67H2514.12V1159.92H2508.35V1163.47H2513.74V1164.72H2508.35V1168.75H2514.41V1170H2507V1158.67ZM2516.49 1158.67H2518.49L2522.33 1167.55H2522.36L2526.23 1158.67H2528.18V1170H2526.84V1160.5H2526.81L2522.74 1170H2521.93L2517.86 1160.5H2517.83V1170H2516.49V1158.67ZM2536.27 1170.29C2535.4 1170.29 2534.61 1170.14 2533.88 1169.84C2533.17 1169.54 2532.54 1169.13 2532.01 1168.61C2531.49 1168.07 2531.08 1167.45 2530.78 1166.72C2530.49 1165.98 2530.35 1165.19 2530.35 1164.34C2530.35 1163.48 2530.49 1162.69 2530.78 1161.97C2531.08 1161.23 2531.49 1160.6 2532.01 1160.08C2532.54 1159.55 2533.17 1159.13 2533.88 1158.83C2534.61 1158.53 2535.4 1158.38 2536.27 1158.38C2537.13 1158.38 2537.92 1158.53 2538.63 1158.83C2539.36 1159.13 2539.98 1159.55 2540.51 1160.08C2541.04 1160.6 2541.45 1161.23 2541.74 1161.97C2542.04 1162.69 2542.19 1163.48 2542.19 1164.34C2542.19 1165.19 2542.04 1165.98 2541.74 1166.72C2541.45 1167.45 2541.04 1168.07 2540.51 1168.61C2539.98 1169.13 2539.36 1169.54 2538.63 1169.84C2537.92 1170.14 2537.13 1170.29 2536.27 1170.29ZM2536.27 1169.04C2536.93 1169.04 2537.53 1168.92 2538.07 1168.67C2538.63 1168.43 2539.1 1168.09 2539.5 1167.66C2539.89 1167.24 2540.2 1166.74 2540.41 1166.18C2540.63 1165.6 2540.75 1164.99 2540.75 1164.34C2540.75 1163.69 2540.63 1163.08 2540.41 1162.51C2540.2 1161.94 2539.89 1161.43 2539.5 1161.01C2539.1 1160.58 2538.63 1160.25 2538.07 1160C2537.53 1159.75 2536.93 1159.63 2536.27 1159.63C2535.6 1159.63 2535 1159.75 2534.44 1160C2533.9 1160.25 2533.43 1160.58 2533.03 1161.01C2532.64 1161.43 2532.33 1161.94 2532.11 1162.51C2531.89 1163.08 2531.79 1163.69 2531.79 1164.34C2531.79 1164.99 2531.89 1165.6 2532.11 1166.18C2532.33 1166.74 2532.64 1167.24 2533.03 1167.66C2533.43 1168.09 2533.9 1168.43 2534.44 1168.67C2535 1168.92 2535.6 1169.04 2536.27 1169.04Z" fill="#6B778C"/>
<path fill-rule="evenodd" clip-rule="evenodd" d="M2416.07 1158.35C2415.2 1158.47 2414.32 1158.61 2413.44 1158.77C2407.96 1159.8 2403.52 1161.68 2400.78 1163.86C2399.4 1164.84 2398.39 1166.22 2397.88 1167.79C2398.12 1166.23 2399.2 1164.68 2401 1163.25C2403.87 1160.95 2408.56 1158.99 2414.32 1157.9L2415.05 1157.78L2414.75 1157.62L2414.21 1157.72C2408.33 1158.82 2403.6 1160.82 2400.67 1163.16C2399.2 1164.21 2398.12 1165.68 2397.58 1167.36C2397.83 1165.7 2399 1164.03 2400.94 1162.54C2403.75 1160.3 2408.17 1158.35 2413.62 1157.15L2413.26 1157.01C2407.82 1158.24 2403.42 1160.23 2400.6 1162.45C2399.01 1163.55 2397.84 1165.1 2397.24 1166.88C2397.51 1165.1 2398.76 1163.32 2400.81 1161.69C2404.11 1159.28 2407.9 1157.53 2411.93 1156.55L2411.48 1156.43C2407.48 1157.44 2403.73 1159.2 2400.45 1161.61C2398.77 1162.81 2397.52 1164.5 2396.91 1166.43C2397.19 1164.52 2398.54 1162.63 2400.72 1160.88C2403.51 1158.79 2406.65 1157.18 2410.01 1156.14L2409.45 1156.06C2406.15 1157.11 2403.06 1158.7 2400.33 1160.76C2398.53 1162.04 2397.2 1163.84 2396.54 1165.9C2396.85 1163.86 2398.28 1161.83 2400.62 1159.96C2402.81 1158.3 2405.24 1156.95 2407.83 1155.94H2407.11C2404.62 1156.95 2402.3 1158.27 2400.19 1159.89C2398.03 1161.62 2396.61 1163.5 2396.14 1165.39C2396.47 1163.22 2398 1161.05 2400.51 1159.04C2402 1157.88 2403.61 1156.87 2405.32 1156.02L2404.68 1156.1L2404.38 1156.14C2402.85 1156.91 2401.39 1157.81 2400.04 1158.84C2397.73 1160.72 2396.23 1162.73 2395.72 1164.76C2396.08 1162.43 2397.72 1160.11 2400.4 1157.96C2401.01 1157.47 2401.72 1156.98 2402.42 1156.51C2401.96 1156.63 2401.5 1156.79 2401.06 1156.96C2400.64 1157.2 2400.25 1157.49 2399.91 1157.82C2393.25 1162.81 2393.32 1169.95 2400.38 1172.65L2400.23 1172.5C2400.05 1172.32 2399.88 1172.14 2399.73 1171.96L2399.57 1171.77C2399.41 1171.57 2399.27 1171.37 2399.14 1171.17L2399 1170.95C2398.88 1170.74 2398.77 1170.52 2398.67 1170.3L2398.56 1170.03C2398.48 1169.79 2398.41 1169.54 2398.36 1169.29C2398.37 1169.18 2398.35 1169.07 2398.31 1168.96C2398.29 1168.72 2398.29 1168.47 2398.31 1168.23C2398.29 1168.1 2398.29 1167.96 2398.31 1167.83C2398.35 1167.58 2398.42 1167.33 2398.5 1167.09C2398.55 1166.94 2398.61 1166.79 2398.68 1166.64C2398.82 1166.37 2398.97 1166.1 2399.13 1165.84C2399.65 1165.1 2400.3 1164.44 2401.04 1163.9C2404.74 1161.34 2409 1159.64 2413.5 1158.9C2414.42 1158.72 2415.35 1158.59 2416.27 1158.47L2416.03 1158.31" fill="#6B778C"/>
<path fill-rule="evenodd" clip-rule="evenodd" d="M2399.8 1165.4C2404 1164.27 2413.43 1164.14 2414.97 1169.17C2412.57 1167.91 2409.73 1167.64 2407.12 1168.41C2404.49 1169.17 2402.16 1170.64 2400.4 1172.64L2400.23 1172.5C2402 1170.45 2404.38 1168.96 2407.05 1168.2C2408.74 1167.73 2410.52 1167.65 2412.25 1167.95C2410.28 1167.51 2408.22 1167.57 2406.28 1168.11C2403.77 1168.82 2401.52 1170.14 2399.73 1171.96L2399.57 1171.77C2401.38 1169.93 2403.67 1168.59 2406.2 1167.88C2408.02 1167.37 2409.94 1167.27 2411.8 1167.6C2409.69 1167.13 2407.5 1167.19 2405.42 1167.78C2403.1 1168.43 2400.97 1169.59 2399.2 1171.17L2399.06 1170.95C2400.85 1169.36 2403.01 1168.19 2405.36 1167.54C2407.29 1167 2409.33 1166.9 2411.31 1167.24C2409.05 1166.74 2406.7 1166.81 2404.48 1167.43C2402.38 1168.01 2400.42 1168.99 2398.72 1170.31L2398.61 1170.04C2400.32 1168.73 2402.29 1167.76 2404.39 1167.17C2406.45 1166.61 2408.61 1166.51 2410.71 1166.88C2408.3 1166.34 2405.78 1166.41 2403.4 1167.08C2401.61 1167.55 2399.91 1168.29 2398.36 1169.29C2398.37 1169.18 2398.35 1169.07 2398.31 1168.96C2399.86 1167.97 2401.56 1167.21 2403.35 1166.72C2405.56 1166.11 2407.89 1165.99 2410.16 1166.39C2407.58 1165.82 2404.89 1165.89 2402.34 1166.6C2400.95 1166.99 2399.6 1167.53 2398.34 1168.21C2398.32 1168.08 2398.33 1167.95 2398.36 1167.82C2399.59 1167.18 2400.89 1166.66 2402.23 1166.29C2404.6 1165.63 2407.09 1165.51 2409.51 1165.93C2406.75 1165.32 2403.87 1165.4 2401.15 1166.16C2400.26 1166.41 2399.39 1166.71 2398.55 1167.08C2398.6 1166.93 2398.66 1166.78 2398.72 1166.64C2399.48 1166.32 2400.26 1166.05 2401.06 1165.83C2403.59 1165.13 2406.25 1165 2408.85 1165.45C2405.89 1164.79 2402.82 1164.88 2399.91 1165.7L2399.12 1165.93L2399.2 1165.89C2399.29 1165.75 2399.38 1165.63 2399.49 1165.5L2399.8 1165.4Z" fill="#6B778C"/>
<path fill-rule="evenodd" clip-rule="evenodd" d="M2419.93 1154.18C2416.57 1150.76 2414.05 1150.11 2413.21 1150C2417.68 1152.52 2419.35 1157.91 2417.04 1162.35C2416.28 1163.75 2415.31 1165.03 2414.15 1166.15L2414.37 1166.42C2415.61 1165.24 2416.65 1163.89 2417.45 1162.4C2418.5 1160.52 2418.85 1158.36 2418.45 1156.27C2419.1 1158.64 2418.78 1161.16 2417.56 1163.31C2416.84 1164.66 2415.92 1165.9 2414.84 1167.01L2415.05 1167.33C2416.23 1166.16 2417.23 1164.83 2418 1163.38C2419.12 1161.38 2419.5 1159.07 2419.07 1156.84C2419.76 1159.37 2419.42 1162.06 2418.11 1164.36C2417.4 1165.7 2416.51 1166.93 2415.46 1168.04C2415.52 1168.17 2415.59 1168.3 2415.64 1168.44C2416.81 1167.23 2417.8 1165.88 2418.58 1164.42C2419.78 1162.27 2420.19 1159.79 2419.72 1157.4C2420.46 1160.1 2420.09 1162.97 2418.7 1165.43C2417.98 1166.82 2417.07 1168.12 2416 1169.29C2416 1169.46 2416.09 1169.62 2416.12 1169.8C2417.37 1168.53 2418.42 1167.09 2419.25 1165.54C2420.52 1163.24 2420.94 1160.59 2420.43 1158.04C2421.24 1160.94 2420.85 1164.03 2419.36 1166.68C2418.51 1168.27 2417.44 1169.74 2416.17 1171.05C2416.16 1171.3 2416.13 1171.55 2416.09 1171.79C2417.61 1170.31 2418.9 1168.62 2419.89 1166.77C2421.27 1164.32 2421.73 1161.48 2421.2 1158.74C2422.05 1161.84 2421.63 1165.13 2420.03 1167.95C2418.82 1170.18 2417.22 1172.21 2415.29 1173.93C2415.29 1173.99 2415.5 1174.02 2415.93 1173.99C2417.82 1172.27 2419.4 1170.25 2420.61 1168.03C2422.08 1165.41 2422.57 1162.38 2422.01 1159.45C2422.91 1162.76 2422.45 1166.28 2420.74 1169.29C2419.91 1170.86 2418.88 1172.33 2417.68 1173.66C2417.99 1173.58 2418.33 1173.47 2418.67 1173.35C2419.7 1172.14 2420.6 1170.82 2421.35 1169.42C2422.92 1166.61 2423.45 1163.37 2422.84 1160.23C2423.81 1163.78 2423.33 1167.55 2421.51 1170.77C2421.2 1171.34 2420.87 1171.92 2420.51 1172.5C2420.96 1172.24 2421.39 1171.94 2421.78 1171.61C2421.92 1171.38 2422.05 1171.13 2422.18 1170.89C2425.19 1165.12 2424.7 1159.09 2419.93 1154.2" fill="#6B778C"/>
<rect width="2561.65" height="64" transform="translate(10 9)" fill="#3C1053"/>
<path d="M53 41.75H39C38.8011 41.75 38.6103 41.671 38.4697 41.5303C38.329 41.3897 38.25 41.1989 38.25 41C38.25 40.8011 38.329 40.6103 38.4697 40.4697C38.6103 40.329 38.8011 40.25 39 40.25H53C53.1989 40.25 53.3897 40.329 53.5303 40.4697C53.671 40.6103 53.75 40.8011 53.75 41C53.75 41.1989 53.671 41.3897 53.5303 41.5303C53.3897 41.671 53.1989 41.75 53 41.75Z" fill="white"/>
<path d="M53 37.25H39C38.8011 37.25 38.6103 37.171 38.4697 37.0303C38.329 36.8897 38.25 36.6989 38.25 36.5C38.25 36.3011 38.329 36.1103 38.4697 35.9697C38.6103 35.829 38.8011 35.75 39 35.75H53C53.1989 35.75 53.3897 35.829 53.5303 35.9697C53.671 36.1103 53.75 36.3011 53.75 36.5C53.75 36.6989 53.671 36.8897 53.5303 37.0303C53.3897 37.171 53.1989 37.25 53 37.25Z" fill="white"/>
<path d="M53 46.25H39C38.8011 46.25 38.6103 46.171 38.4697 46.0303C38.329 45.8897 38.25 45.6989 38.25 45.5C38.25 45.3011 38.329 45.1103 38.4697 44.9697C38.6103 44.829 38.8011 44.75 39 44.75H53C53.1989 44.75 53.3897 44.829 53.5303 44.9697C53.671 45.1103 53.75 45.3011 53.75 45.5C53.75 45.6989 53.671 45.8897 53.5303 46.0303C53.3897 46.171 53.1989 46.25 53 46.25Z" fill="white"/>
<path fill-rule="evenodd" clip-rule="evenodd" d="M108.622 35.0296C107.186 35.2142 105.747 35.4424 104.301 35.7154C95.2879 37.4037 87.9998 40.49 83.4999 44.0644C81.2375 45.6841 79.5701 47.9447 78.7378 50.5272C79.1243 47.9685 80.9049 45.4097 83.8588 43.062C88.5795 39.2898 96.2817 36.0716 105.751 34.291L106.938 34.08L106.455 33.8294L105.571 33.9876C95.9091 35.7946 88.1378 39.0788 83.3205 42.9169C80.9049 44.6447 79.1256 47.0597 78.2409 49.8137C78.655 47.0848 80.5736 44.3546 83.7622 41.9013C88.3725 38.2214 95.633 35.0296 104.591 33.0512L103.998 32.827C95.0671 34.8449 87.8341 38.1027 83.1962 41.7562C80.5971 43.5592 78.6646 46.1035 77.6749 49.0236C78.1166 46.1088 80.1733 43.1807 83.5413 40.5032C88.9757 36.5437 95.1927 33.6777 101.817 32.0752L101.085 31.8773C94.5122 33.5286 88.3504 36.4158 82.9616 40.3713C80.1885 42.3498 78.1484 45.1222 77.1366 48.285C77.6059 45.1591 79.8144 42.0464 83.4033 39.1711C87.9763 35.7445 93.1443 33.1092 98.6697 31.3893L97.7449 31.2574C92.3216 32.9905 87.2516 35.5994 82.7545 38.9732C79.7951 41.0849 77.6142 44.042 76.5292 47.4145C77.04 44.0776 79.3865 40.7406 83.2376 37.6675C86.8348 34.9399 90.8225 32.7188 95.0809 31.0728H93.8938C89.8121 32.7201 85.99 34.899 82.5337 37.5488C78.9724 40.3977 76.6535 43.484 75.8805 46.5836C76.4188 43.0224 78.931 39.4481 83.0582 36.1639C85.5014 34.2527 88.1475 32.5909 90.9537 31.2046L89.9046 31.3234L89.4077 31.3893C86.8914 32.6529 84.5075 34.1406 82.2852 35.8342C78.4893 38.9205 76.0185 42.2179 75.1903 45.5416C75.7701 41.7298 78.4617 37.9049 82.865 34.3833C83.8726 33.5788 85.0459 32.7742 86.1915 31.996C85.431 32.2044 84.6842 32.4563 83.9554 32.7478C83.2625 33.1369 82.6275 33.6117 82.0644 34.1591C71.1322 42.3498 71.2426 54.0752 82.8373 58.5069L82.5889 58.2563C82.2949 57.9569 82.023 57.6627 81.7745 57.3726L81.5122 57.056C81.25 56.7263 81.0153 56.3965 80.8083 56.0787L80.5736 55.7107C80.3707 55.3651 80.1913 55.009 80.0353 54.6423L79.8558 54.2071C79.7109 53.8074 79.6005 53.3973 79.5246 52.9805C79.5384 52.8011 79.5094 52.6204 79.4417 52.4516C79.4045 52.0493 79.4045 51.6431 79.4417 51.2395C79.4072 51.0245 79.4072 50.8068 79.4417 50.5932C79.5108 50.1764 79.617 49.7662 79.7592 49.3666C79.8407 49.1199 79.9387 48.8785 80.0491 48.6411C80.2713 48.1887 80.5212 47.7482 80.7945 47.3222C81.6489 46.1008 82.7076 45.0233 83.9278 44.1303C90.0068 39.94 97.0092 37.1333 104.398 35.9265C105.916 35.6363 107.435 35.4121 108.953 35.2142L108.553 34.9636" fill="white"/>
<path fill-rule="evenodd" clip-rule="evenodd" d="M81.8851 46.597C88.7867 44.7372 104.288 44.5262 106.814 52.7815C102.863 50.7239 98.2088 50.2768 93.9077 51.543C89.6011 52.7907 85.7666 55.2057 82.8651 58.4939L82.589 58.2564C85.5098 54.8945 89.412 52.4386 93.7973 51.2001C96.5732 50.4298 99.4981 50.2861 102.342 50.778C99.1005 50.0618 95.7187 50.1568 92.5274 51.055C88.4168 52.2064 84.7051 54.388 81.7746 57.3728L81.5124 57.0562C84.4856 54.0424 88.2442 51.8385 92.4032 50.6725C95.393 49.8337 98.5456 49.6754 101.61 50.2109C98.1453 49.4446 94.533 49.5448 91.1195 50.501C87.3042 51.5707 83.8065 53.4819 80.905 56.0789L80.6704 55.7109C83.6174 53.0994 87.1635 51.1803 91.0229 50.1054C94.1962 49.2217 97.5421 49.0555 100.796 49.6173C97.088 48.8022 93.2245 48.9104 89.5735 49.9339C86.1227 50.8875 82.9079 52.494 80.1183 54.6557L79.9388 54.2205C82.7478 52.0679 85.9764 50.4681 89.4355 49.5118C92.8104 48.5886 96.362 48.4224 99.8155 49.0238C95.8499 48.1454 91.713 48.2588 87.8067 49.3536C84.8597 50.1278 82.0618 51.3518 79.5247 52.9807C79.5385 52.8013 79.5095 52.6206 79.4419 52.4518C81.9803 50.8136 84.7755 49.5712 87.7239 48.7719C91.3555 47.7642 95.1832 47.5743 98.9045 48.2179C94.6642 47.2828 90.2443 47.4055 86.0675 48.5754C83.7747 49.2124 81.5662 50.0974 79.4833 51.2133C79.4626 50.997 79.4764 50.7793 79.5247 50.567C81.5441 49.5131 83.6781 48.673 85.888 48.061C89.7709 46.9808 93.8622 46.7777 97.8417 47.4675C93.3045 46.4651 88.5755 46.597 84.1074 47.85C82.6443 48.2509 81.2142 48.7548 79.8284 49.3536C79.9112 49.1056 80.0078 48.8642 80.1183 48.6281C81.3675 48.1098 82.6484 47.6693 83.9556 47.3092C88.1117 46.1525 92.4929 45.9362 96.7512 46.6761C91.8994 45.6051 86.8418 45.7449 82.0645 47.085L80.767 47.4675L80.905 47.4015C81.0472 47.1813 81.2046 46.9689 81.3744 46.7684L81.8851 46.597Z" fill="white"/>
<path fill-rule="evenodd" clip-rule="evenodd" d="M114.971 28.171C109.45 22.5523 105.309 21.4972 103.929 21.3125C111.269 25.4448 114.013 34.3002 110.209 41.5847C108.971 43.8889 107.37 45.9979 105.461 47.8365L105.834 48.2718C107.871 46.3422 109.577 44.1158 110.886 41.6771C112.614 38.5934 113.192 35.0401 112.528 31.6003C113.597 35.4938 113.073 39.63 111.065 43.1675C109.879 45.3807 108.375 47.4224 106.593 49.2346L106.952 49.7622C108.89 47.8431 110.523 45.6603 111.797 43.2862C113.635 39.9954 114.254 36.2061 113.55 32.5367C114.683 36.698 114.121 41.1152 111.976 44.8953C110.806 47.0834 109.34 49.1146 107.614 50.9361C107.725 51.1471 107.825 51.3621 107.918 51.5823C109.843 49.6105 111.469 47.3921 112.749 44.9876C114.726 41.4607 115.387 37.3944 114.626 33.46C115.831 37.9022 115.229 42.6148 112.942 46.6495C111.757 48.9339 110.267 51.0614 108.511 52.9804C108.511 53.2574 108.649 53.5344 108.705 53.8246C110.753 51.7314 112.487 49.3744 113.853 46.8209C115.936 43.0461 116.617 38.7081 115.786 34.5152C117.109 39.2818 116.483 44.3532 114.033 48.6939C112.636 51.308 110.87 53.7256 108.787 55.8821C108.768 56.2897 108.723 56.6933 108.649 57.0956C111.16 54.6674 113.268 51.8883 114.902 48.8521C117.165 44.8175 117.924 40.1655 117.056 35.6627C118.446 40.7512 117.76 46.1536 115.137 50.7778C113.141 54.4537 110.505 57.7774 107.338 60.604C107.338 60.7095 107.683 60.749 108.387 60.6963C111.501 57.8711 114.1 54.5671 116.076 50.9229C118.494 46.6086 119.307 41.6375 118.381 36.8233C119.854 42.2679 119.108 48.0423 116.296 52.9804C114.931 55.5616 113.245 57.9753 111.272 60.1687C111.783 60.0236 112.335 59.8522 112.887 59.6543C114.593 57.6574 116.069 55.4904 117.29 53.1915C119.874 48.5778 120.741 43.2624 119.747 38.1159C121.339 43.9417 120.553 50.1276 117.553 55.4205C117.046 56.353 116.503 57.2973 115.924 58.2562C116.659 57.8236 117.357 57.3343 118.008 56.7922C118.229 56.4097 118.45 56.014 118.657 55.6183C123.612 46.1351 122.798 36.243 114.971 28.2106" fill="white"/>
<path fill-rule="evenodd" clip-rule="evenodd" d="M159.169 52.0441L161.515 39.646L167.451 52.7036L173.386 39.646L175.871 52.0441H178.079L174.214 33.0513L167.451 48.2192L160.825 33.0513L156.96 52.0441H159.169ZM154.752 33.8426H144.676V52.0441H154.752V50.0657H147.022V43.0753H154.752V40.965H147.022V35.8211H154.752V33.8426ZM134.075 37.8922L131.038 44.6056H137.111L134.075 37.8922ZM125.434 52.0695L134.075 33.0912L142.743 52.0695H140.259L137.76 46.4785H130.32L127.836 52.0695H125.434ZM181.6 49.7099C185.613 53.4597 192.026 53.4597 196.038 49.7099L196.121 49.6308C199.992 45.885 199.954 39.8521 196.038 36.1512C192.01 32.4357 185.628 32.4357 181.6 36.1512L181.448 36.2962C181.448 36.2976 181.447 36.2976 181.445 36.2989C177.612 40.0434 177.683 46.0472 181.6 49.7099ZM196.59 43.0097C196.6 44.9908 195.773 46.8914 194.299 48.2855L194.188 48.391C192.738 49.7086 190.811 50.4459 188.808 50.4459C184.493 50.4472 180.994 47.1064 180.993 42.9833C180.977 40.9733 181.803 39.041 183.284 37.6152C184.769 36.2105 186.78 35.4337 188.869 35.4574C193.184 35.5062 196.641 38.8867 196.59 43.0097Z" fill="white"/>
<path d="M214.976 47H219.104L220.52 43.4H227.12L228.584 47H232.808L225.416 30.008H222.32L214.976 47ZM225.848 40.232H221.696L223.76 34.952L225.848 40.232ZM234.397 52.472H237.997V45.752H238.045C238.861 46.88 240.253 47.288 241.741 47.288C245.053 47.288 247.069 44.312 247.069 41.072C247.069 37.544 244.789 35.048 241.333 35.048C239.701 35.048 238.309 36.032 237.757 36.872H237.709V35.336H234.397V52.472ZM237.709 41.168C237.709 39.416 238.789 38.216 240.589 38.216C242.389 38.216 243.469 39.416 243.469 41.168C243.469 42.92 242.389 44.12 240.589 44.12C238.789 44.12 237.709 42.92 237.709 41.168ZM249.514 52.472H253.114V45.752H253.162C253.978 46.88 255.37 47.288 256.858 47.288C260.17 47.288 262.186 44.312 262.186 41.072C262.186 37.544 259.906 35.048 256.45 35.048C254.818 35.048 253.426 36.032 252.874 36.872H252.826V35.336H249.514V52.472ZM252.826 41.168C252.826 39.416 253.906 38.216 255.706 38.216C257.506 38.216 258.586 39.416 258.586 41.168C258.586 42.92 257.506 44.12 255.706 44.12C253.906 44.12 252.826 42.92 252.826 41.168ZM271.853 47H275.597V34.904H275.645L283.061 47H287.957V30.008H284.213V41.816H284.165L276.941 30.008H271.853V47ZM298.287 47H301.599V41.072C301.599 37.184 300.471 35.048 296.271 35.048C294.375 35.048 292.455 35.672 291.135 36.92L293.055 38.888C293.823 38.024 294.807 37.496 295.983 37.496C297.231 37.496 298.287 38.312 298.287 39.584C295.287 39.584 290.391 39.656 290.391 43.688C290.391 46.04 292.359 47.288 294.543 47.288C296.007 47.288 297.447 46.784 298.239 45.536H298.287V47ZM298.287 41.888V42.656C298.287 44.096 296.967 44.84 295.551 44.84C294.759 44.84 293.847 44.432 293.847 43.568C293.847 41.984 296.295 41.888 297.399 41.888H298.287ZM303.858 47H307.458V41.192C307.458 39.68 307.746 38.216 309.618 38.216C311.274 38.216 311.226 39.968 311.226 40.832V47H314.826V40.832C314.826 39.392 315.354 38.216 317.01 38.216C318.186 38.216 318.594 39.128 318.594 40.208V47H322.194V40.112C322.194 37.28 321.234 35.048 318.066 35.048C316.338 35.048 315.21 35.648 314.37 37.136C313.746 35.72 312.402 35.048 310.77 35.048C309.018 35.048 307.842 36.008 307.362 36.92H307.314V35.336H303.858V47ZM333.261 43.136C332.661 43.952 331.869 44.552 330.693 44.552C329.301 44.552 328.269 43.664 327.981 42.296H336.333V41.168C336.333 37.448 334.221 35.048 330.861 35.048C327.261 35.048 324.381 37.448 324.381 41.168C324.381 44.888 327.261 47.288 330.861 47.288C332.733 47.288 334.629 46.448 335.781 44.984L333.261 43.136ZM327.981 39.848C328.077 38.72 328.941 37.64 330.525 37.64C331.821 37.64 332.757 38.648 332.733 39.848H327.981Z" fill="white"/>
<rect x="2195.65" y="28.5" width="158" height="25" rx="8" fill="#FE7355"/>
<path d="M2205.22 44.5H2206.39V40.048H2208.38C2209.78 40.048 2211.63 39.474 2211.63 37.304C2211.63 35.232 2209.98 34.588 2208.16 34.588H2205.22V44.5ZM2206.39 35.68H2208.38C2209.56 35.68 2210.37 36.212 2210.37 37.318C2210.37 38.424 2209.56 38.956 2208.38 38.956H2206.39V35.68ZM2213.92 39.502C2214.44 39.026 2215.17 38.788 2215.87 38.788C2216.89 38.788 2217.49 39.278 2217.49 40.23V40.426H2217.07C2215.46 40.426 2212.94 40.552 2212.94 42.722C2212.94 43.996 2214.05 44.668 2215.38 44.668C2216.37 44.668 2217.1 44.192 2217.54 43.52H2217.56C2217.56 43.8 2217.56 44.206 2217.63 44.5H2218.68C2218.63 44.164 2218.59 43.744 2218.59 43.366V40.552C2218.59 38.704 2217.77 37.78 2215.84 37.78C2214.89 37.78 2213.91 38.102 2213.24 38.788L2213.92 39.502ZM2217.49 41.35V41.77C2217.47 42.834 2216.82 43.744 2215.56 43.744C2214.74 43.744 2214.12 43.436 2214.12 42.61C2214.12 41.728 2215.02 41.35 2216.4 41.35H2217.49ZM2220.58 44.5H2221.67V41.308C2221.67 39.81 2222.26 38.872 2223.59 38.872C2223.79 38.872 2224 38.9 2224.18 38.956L2224.25 37.85C2224.09 37.794 2223.94 37.78 2223.8 37.78C2222.72 37.78 2221.91 38.382 2221.62 39.026H2221.59C2221.59 38.662 2221.56 38.298 2221.56 37.948H2220.52C2220.52 38.382 2220.58 38.9 2220.58 39.502V44.5ZM2229.09 37.948H2227.15V36.086H2226.06V37.948H2224.63V38.872H2226.06V42.47C2226.06 43.828 2226.31 44.668 2227.87 44.668C2228.27 44.668 2228.76 44.598 2229.14 44.43L2229.1 43.436C2228.81 43.59 2228.46 43.66 2228.13 43.66C2227.17 43.66 2227.15 42.988 2227.15 42.148V38.872H2229.09V37.948ZM2230.52 44.5H2231.61V37.948H2230.52V44.5ZM2230.27 35.386C2230.27 35.848 2230.61 36.184 2231.07 36.184C2231.53 36.184 2231.87 35.848 2231.87 35.386C2231.87 34.952 2231.52 34.588 2231.07 34.588C2230.62 34.588 2230.27 34.952 2230.27 35.386ZM2239.32 38.816C2238.66 38.102 2237.76 37.78 2236.8 37.78C2234.78 37.78 2233.41 39.236 2233.41 41.224C2233.41 43.24 2234.77 44.668 2236.8 44.668C2237.75 44.668 2238.65 44.346 2239.28 43.618L2238.46 42.848C2238.06 43.408 2237.51 43.66 2236.8 43.66C2235.47 43.66 2234.59 42.568 2234.59 41.224C2234.59 39.88 2235.33 38.788 2236.8 38.788C2237.46 38.788 2237.99 39.026 2238.45 39.586L2239.32 38.816ZM2240.64 44.5H2241.73V37.948H2240.64V44.5ZM2240.39 35.386C2240.39 35.848 2240.72 36.184 2241.19 36.184C2241.65 36.184 2241.98 35.848 2241.98 35.386C2241.98 34.952 2241.63 34.588 2241.19 34.588C2240.74 34.588 2240.39 34.952 2240.39 35.386ZM2243.85 47.692H2244.94V43.338H2244.97C2245.38 44.08 2246.31 44.668 2247.49 44.668C2249.32 44.668 2250.77 43.184 2250.77 41.224C2250.77 39.236 2249.38 37.78 2247.32 37.78C2246.37 37.78 2245.57 38.2 2244.97 38.9H2244.94V37.948H2243.85V47.692ZM2244.94 41.224C2244.94 39.852 2245.85 38.788 2247.27 38.788C2248.68 38.788 2249.59 39.852 2249.59 41.224C2249.59 42.596 2248.68 43.66 2247.27 43.66C2245.85 43.66 2244.94 42.596 2244.94 41.224ZM2253.07 39.502C2253.58 39.026 2254.31 38.788 2255.01 38.788C2256.03 38.788 2256.64 39.278 2256.64 40.23V40.426H2256.22C2254.61 40.426 2252.09 40.552 2252.09 42.722C2252.09 43.996 2253.19 44.668 2254.52 44.668C2255.52 44.668 2256.24 44.192 2256.68 43.52H2256.71C2256.71 43.8 2256.71 44.206 2256.78 44.5H2257.83C2257.77 44.164 2257.73 43.744 2257.73 43.366V40.552C2257.73 38.704 2256.92 37.78 2254.98 37.78C2254.03 37.78 2253.05 38.102 2252.38 38.788L2253.07 39.502ZM2256.64 41.35V41.77C2256.61 42.834 2255.96 43.744 2254.7 43.744C2253.88 43.744 2253.26 43.436 2253.26 42.61C2253.26 41.728 2254.16 41.35 2255.54 41.35H2256.64ZM2259.72 44.5H2260.82V41.308C2260.82 39.81 2261.43 38.788 2262.85 38.788C2263.87 38.788 2264.34 39.474 2264.34 40.566V44.5H2265.44V40.454C2265.44 38.872 2264.67 37.78 2262.94 37.78C2261.87 37.78 2261.05 38.382 2260.76 39.026H2260.73C2260.73 38.662 2260.7 38.298 2260.7 37.948H2259.67C2259.67 38.382 2259.72 38.9 2259.72 39.502V44.5ZM2271.09 37.948H2269.15V36.086H2268.06V37.948H2266.63V38.872H2268.06V42.47C2268.06 43.828 2268.31 44.668 2269.87 44.668C2270.27 44.668 2270.76 44.598 2271.14 44.43L2271.1 43.436C2270.81 43.59 2270.46 43.66 2270.13 43.66C2269.17 43.66 2269.15 42.988 2269.15 42.148V38.872H2271.09V37.948ZM2273.33 37.78C2272.87 37.78 2272.49 38.158 2272.49 38.62C2272.49 39.082 2272.9 39.46 2273.33 39.46C2273.77 39.46 2274.17 39.082 2274.17 38.62C2274.17 38.158 2273.8 37.78 2273.33 37.78ZM2273.33 42.904C2272.87 42.904 2272.49 43.282 2272.49 43.744C2272.49 44.206 2272.9 44.584 2273.33 44.584C2273.77 44.584 2274.17 44.206 2274.17 43.744C2274.17 43.282 2273.8 42.904 2273.33 42.904ZM2280.41 44.5H2281.59V36.268H2281.62L2287.36 44.5H2288.84V34.588H2287.67V42.82H2287.64L2281.9 34.588H2280.41V44.5ZM2291.31 44.5H2297.79V43.408H2292.49V39.88H2297.2V38.788H2292.49V35.68H2297.54V34.588H2291.31V44.5ZM2299.61 44.5H2300.78V36.184H2300.81L2304.37 44.5H2305.08L2308.64 36.184H2308.67V44.5H2309.84V34.588H2308.13L2304.75 42.358H2304.72L2301.36 34.588H2299.61V44.5ZM2312.31 44.5H2313.49V36.184H2313.51L2317.07 44.5H2317.78L2321.34 36.184H2321.37V44.5H2322.54V34.588H2320.84L2317.45 42.358H2317.42L2314.06 34.588H2312.31V44.5ZM2332.98 35.89C2332.14 34.798 2330.82 34.336 2329.48 34.336C2326.54 34.336 2324.44 36.632 2324.44 39.544C2324.44 42.554 2326.64 44.752 2329.48 44.752C2331.06 44.752 2332.35 44.206 2333.23 43.016L2332.35 42.274C2331.65 43.17 2330.68 43.66 2329.48 43.66C2327.25 43.66 2325.7 41.84 2325.7 39.544C2325.7 37.374 2327.27 35.428 2329.48 35.428C2330.43 35.428 2331.37 35.834 2331.96 36.632L2332.98 35.89ZM2339.47 44.752C2342.48 44.752 2344.65 42.54 2344.65 39.544C2344.65 36.548 2342.48 34.336 2339.47 34.336C2336.46 34.336 2334.29 36.548 2334.29 39.544C2334.29 42.54 2336.46 44.752 2339.47 44.752ZM2339.47 43.66C2337.15 43.66 2335.55 41.826 2335.55 39.544C2335.55 37.262 2337.15 35.428 2339.47 35.428C2341.8 35.428 2343.39 37.262 2343.39 39.544C2343.39 41.826 2341.8 43.66 2339.47 43.66Z" fill="white"/>
<path d="M2379.55 33.672H2378.21V40.488C2378.21 42.312 2377.54 44.04 2375.28 44.04C2373.03 44.04 2372.35 42.312 2372.35 40.488V33.672H2371.01V40.68C2371.01 43.144 2372.16 45.288 2375.28 45.288C2378.4 45.288 2379.55 43.144 2379.55 40.68V33.672ZM2381.27 43.8C2382 44.856 2382.92 45.192 2384.18 45.192C2385.67 45.192 2387.17 44.536 2387.17 42.84C2387.17 41.336 2386.05 40.856 2384.72 40.6C2383.73 40.408 2382.84 40.136 2382.84 39.512C2382.84 38.808 2383.62 38.472 2384.31 38.472C2385.04 38.472 2385.57 38.84 2385.89 39.368L2386.93 38.68C2386.42 37.72 2385.44 37.32 2384.39 37.32C2383 37.32 2381.59 38.072 2381.59 39.528C2381.59 41.08 2382.8 41.384 2384.23 41.704C2385.03 41.88 2385.83 42.088 2385.83 42.888C2385.83 43.704 2384.96 44.04 2384.18 44.04C2383.3 44.04 2382.76 43.64 2382.26 43.032L2381.27 43.8ZM2394.66 42.904C2394.06 43.656 2393.34 44.04 2392.27 44.04C2390.91 44.04 2389.92 42.936 2389.82 41.64H2395.87V41.24C2395.87 38.76 2394.43 37.32 2392.32 37.32C2390.11 37.32 2388.48 38.936 2388.48 41.256C2388.48 43.432 2389.92 45.192 2392.27 45.192C2393.66 45.192 2394.72 44.776 2395.6 43.64L2394.66 42.904ZM2389.82 40.584C2389.98 39.32 2390.9 38.472 2392.27 38.472C2393.65 38.472 2394.48 39.32 2394.53 40.584H2389.82ZM2397.8 45H2399.05V41.352C2399.05 39.64 2399.72 38.568 2401.24 38.568C2401.47 38.568 2401.71 38.6 2401.91 38.664L2401.99 37.4C2401.82 37.336 2401.64 37.32 2401.48 37.32C2400.25 37.32 2399.32 38.008 2398.99 38.744H2398.95C2398.95 38.328 2398.92 37.912 2398.92 37.512H2397.74C2397.74 38.008 2397.8 38.6 2397.8 39.288V45ZM2403.43 45H2404.68V41.352C2404.68 39.64 2405.38 38.472 2407 38.472C2408.16 38.472 2408.71 39.256 2408.71 40.504V45H2409.96V40.376C2409.96 38.568 2409.08 37.32 2407.11 37.32C2405.88 37.32 2404.95 38.008 2404.61 38.744H2404.58C2404.58 38.328 2404.55 37.912 2404.55 37.512H2403.36C2403.36 38.008 2403.43 38.6 2403.43 39.288V45ZM2413.01 39.288C2413.6 38.744 2414.43 38.472 2415.23 38.472C2416.4 38.472 2417.09 39.032 2417.09 40.12V40.344H2416.61C2414.77 40.344 2411.89 40.488 2411.89 42.968C2411.89 44.424 2413.15 45.192 2414.67 45.192C2415.81 45.192 2416.64 44.648 2417.13 43.88H2417.17C2417.17 44.2 2417.17 44.664 2417.25 45H2418.45C2418.38 44.616 2418.33 44.136 2418.33 43.704V40.488C2418.33 38.376 2417.41 37.32 2415.2 37.32C2414.11 37.32 2412.99 37.688 2412.22 38.472L2413.01 39.288ZM2417.09 41.4V41.88C2417.05 43.096 2416.32 44.136 2414.88 44.136C2413.93 44.136 2413.23 43.784 2413.23 42.84C2413.23 41.832 2414.25 41.4 2415.84 41.4H2417.09ZM2420.61 45H2421.86V41.352C2421.86 39.64 2422.57 38.472 2424.18 38.472C2425.21 38.472 2425.62 39.112 2425.62 40.76V45H2426.87V40.68C2426.87 39.336 2427.75 38.472 2428.81 38.472C2430.26 38.472 2430.63 39.48 2430.63 40.52V45H2431.88V40.456C2431.88 38.52 2431.17 37.32 2429.03 37.32C2427.89 37.32 2427.21 37.864 2426.66 38.744C2426.42 38.232 2425.91 37.32 2424.29 37.32C2423.06 37.32 2422.13 38.008 2421.8 38.744H2421.77C2421.77 38.328 2421.73 37.912 2421.73 37.512H2420.55C2420.55 38.008 2420.61 38.6 2420.61 39.288V45ZM2439.98 42.904C2439.39 43.656 2438.67 44.04 2437.6 44.04C2436.24 44.04 2435.25 42.936 2435.15 41.64H2441.2V41.24C2441.2 38.76 2439.76 37.32 2437.65 37.32C2435.44 37.32 2433.81 38.936 2433.81 41.256C2433.81 43.432 2435.25 45.192 2437.6 45.192C2438.99 45.192 2440.05 44.776 2440.93 43.64L2439.98 42.904ZM2435.15 40.584C2435.31 39.32 2436.22 38.472 2437.6 38.472C2438.98 38.472 2439.81 39.32 2439.86 40.584H2435.15Z" fill="white"/>
<path d="M2459.65 43.1667C2459.58 43.167 2459.52 43.1542 2459.46 43.129C2459.4 43.1038 2459.34 43.0668 2459.3 43.02L2455.96 39.6867C2455.9 39.5894 2455.87 39.4718 2455.88 39.3546C2455.89 39.2374 2455.94 39.1281 2456.03 39.046C2456.11 38.9638 2456.22 38.9142 2456.34 38.9058C2456.46 38.8974 2456.57 38.9308 2456.67 39L2459.65 41.96L2462.63 39C2462.72 38.9391 2462.84 38.9115 2462.95 38.9216C2463.06 38.9317 2463.16 38.979 2463.24 39.0559C2463.33 39.1327 2463.38 39.2347 2463.4 39.3455C2463.41 39.4562 2463.39 39.5693 2463.34 39.6667L2460 43C2459.96 43.0504 2459.9 43.0912 2459.84 43.1198C2459.78 43.1485 2459.72 43.1644 2459.65 43.1667V43.1667Z" fill="white"/>
<path d="M2504.18 45.25C2504.09 45.25 2502.07 44.89 2502.07 39C2502.07 34.84 2499.65 32.25 2495.65 32.25C2491.65 32.25 2489.23 34.84 2489.23 39C2489.23 45 2487.14 45.25 2487.15 45.25C2486.95 45.25 2486.76 45.329 2486.62 45.4697C2486.48 45.6103 2486.4 45.8011 2486.4 46C2486.4 46.1989 2486.48 46.3897 2486.62 46.5303C2486.76 46.671 2486.95 46.75 2487.15 46.75H2491.98C2492.15 47.6007 2492.6 48.367 2493.27 48.9178C2493.94 49.4686 2494.78 49.7698 2495.65 49.7698C2496.52 49.7698 2497.36 49.4686 2498.03 48.9178C2498.7 48.367 2499.15 47.6007 2499.32 46.75H2504.16C2504.36 46.75 2504.55 46.671 2504.69 46.5303C2504.83 46.3897 2504.91 46.1989 2504.91 46C2504.91 45.8011 2504.83 45.6103 2504.69 45.4697C2504.55 45.329 2504.36 45.25 2504.16 45.25H2504.18ZM2495.65 48.25C2495.19 48.2491 2494.73 48.1044 2494.36 47.8357C2493.98 47.567 2493.69 47.1877 2493.54 46.75H2497.76C2497.61 47.1877 2497.32 47.567 2496.94 47.8357C2496.57 48.1044 2496.11 48.2491 2495.65 48.25V48.25ZM2489.41 45.25C2490.13 44.16 2490.73 42.25 2490.73 39C2490.73 35.75 2492.53 33.75 2495.65 33.75C2498.77 33.75 2500.57 35.66 2500.57 39C2500.57 42.34 2501.17 44.16 2501.89 45.25H2489.41Z" fill="white"/>
<path d="M2535.65 32C2533.87 32 2532.13 32.5278 2530.65 33.5168C2529.17 34.5057 2528.02 35.9113 2527.33 37.5558C2526.65 39.2004 2526.48 41.01 2526.82 42.7558C2527.17 44.5016 2528.03 46.1053 2529.29 47.364C2530.54 48.6226 2532.15 49.4798 2533.89 49.8271C2535.64 50.1743 2537.45 49.9961 2539.09 49.3149C2540.74 48.6337 2542.14 47.4802 2543.13 46.0001C2544.12 44.5201 2544.65 42.78 2544.65 41C2544.65 38.6131 2543.7 36.3239 2542.01 34.636C2540.33 32.9482 2538.04 32 2535.65 32V32ZM2535.65 48.5C2534.17 48.5 2532.72 48.0601 2531.48 47.236C2530.25 46.4119 2529.29 45.2406 2528.72 43.8701C2528.15 42.4997 2528 40.9917 2528.29 39.5368C2528.58 38.082 2529.3 36.7456 2530.35 35.6967C2531.4 34.6478 2532.73 33.9335 2534.19 33.6441C2535.64 33.3547 2537.15 33.5032 2538.52 34.0709C2539.89 34.6386 2541.06 35.5999 2541.89 36.8332C2542.71 38.0666 2543.15 39.5166 2543.15 41C2543.15 42.9891 2542.36 44.8968 2540.95 46.3033C2539.55 47.7098 2537.64 48.5 2535.65 48.5Z" fill="white"/>
<path d="M2533.35 36.7C2533.05 37.0021 2532.81 37.3608 2532.65 37.7555C2532.48 38.1501 2532.4 38.573 2532.4 39C2532.4 39.1989 2532.48 39.3897 2532.62 39.5303C2532.76 39.671 2532.95 39.75 2533.15 39.75C2533.35 39.75 2533.54 39.671 2533.68 39.5303C2533.82 39.3897 2533.9 39.1989 2533.9 39C2533.9 38.7698 2533.94 38.5417 2534.03 38.3289C2534.12 38.116 2534.25 37.9227 2534.41 37.76C2534.74 37.442 2535.19 37.2647 2535.65 37.2647C2536.11 37.2647 2536.55 37.442 2536.89 37.76C2537.14 38.0042 2537.31 38.3173 2537.38 38.6592C2537.45 39.0011 2537.42 39.356 2537.28 39.6785C2537.15 40.001 2536.92 40.2763 2536.63 40.469C2536.34 40.6617 2536 40.763 2535.65 40.76C2535.45 40.7626 2535.26 40.8424 2535.12 40.9825C2534.98 41.1226 2534.9 41.3119 2534.9 41.51V42.51C2534.9 42.7089 2534.98 42.8997 2535.12 43.0403C2535.26 43.181 2535.45 43.26 2535.65 43.26C2535.85 43.26 2536.04 43.181 2536.18 43.0403C2536.32 42.8997 2536.4 42.7089 2536.4 42.51V42.17C2536.99 42.0355 2537.52 41.7373 2537.95 41.31C2538.56 40.699 2538.9 39.8721 2538.9 39.01C2538.9 38.1479 2538.56 37.3209 2537.95 36.71C2537.33 36.1192 2536.51 35.7887 2535.65 35.7869C2534.8 35.785 2533.97 36.1119 2533.35 36.7V36.7Z" fill="white"/>
<path d="M2535.65 46.5C2536.34 46.5 2536.9 45.9404 2536.9 45.25C2536.9 44.5596 2536.34 44 2535.65 44C2534.96 44 2534.4 44.5596 2534.4 45.25C2534.4 45.9404 2534.96 46.5 2535.65 46.5Z" fill="white"/>
<g clip-path="url(#clip2_91_24727)">
<g clip-path="url(#clip3_91_24727)">
<rect x="345" y="73" width="130" height="1115" fill="#FFBDBD" fill-opacity="0.3"/>
</g>
<g clip-path="url(#clip4_91_24727)">
<rect x="505.219" y="73" width="130" height="1115" fill="#FFBDBD" fill-opacity="0.3"/>
</g>
<g clip-path="url(#clip5_91_24727)">
<rect x="665.438" y="73" width="130" height="1115" fill="#FFBDBD" fill-opacity="0.3"/>
</g>
<g clip-path="url(#clip6_91_24727)">
<rect x="825.657" y="73" width="130" height="1115" fill="#FFBDBD" fill-opacity="0.3"/>
</g>
<g clip-path="url(#clip7_91_24727)">
<rect x="985.875" y="73" width="130" height="1115" fill="#FFBDBD" fill-opacity="0.3"/>
</g>
<g clip-path="url(#clip8_91_24727)">
<rect x="1146.09" y="73" width="130" height="1115" fill="#FFBDBD" fill-opacity="0.3"/>
</g>
<g clip-path="url(#clip9_91_24727)">
<rect x="1303.69" y="73" width="130" height="1115" fill="#FFBDBD" fill-opacity="0.3"/>
</g>
<g clip-path="url(#clip10_91_24727)">
<rect x="1463.91" y="73" width="130" height="1115" fill="#FFBDBD" fill-opacity="0.3"/>
</g>
<g clip-path="url(#clip11_91_24727)">
<rect x="1624.12" y="73" width="130" height="1115" fill="#FFBDBD" fill-opacity="0.3"/>
</g>
<g clip-path="url(#clip12_91_24727)">
<rect x="1784.34" y="73" width="130" height="1115" fill="#FFBDBD" fill-opacity="0.3"/>
</g>
<g clip-path="url(#clip13_91_24727)">
<rect x="1944.56" y="73" width="130" height="1115" fill="#FFBDBD" fill-opacity="0.3"/>
</g>
<g clip-path="url(#clip14_91_24727)">
<rect x="2104.78" y="73" width="130" height="1115" fill="#FFBDBD" fill-opacity="0.3"/>
</g>
</g>
</g>
</g>
</g>
<defs>
<filter id="filter0_dd_91_24727" x="0" y="0" width="2580" height="1198" filterUnits="userSpaceOnUse" color-interpolation-filters="sRGB">
<feFlood flood-opacity="0" result="BackgroundImageFix"/>
<feColorMatrix in="SourceAlpha" type="matrix" values="0 0 0 0 0 0 0 0 0 0 0 0 0 0 0 0 0 0 127 0" result="hardAlpha"/>
<feOffset dy="2"/>
<feGaussianBlur stdDeviation="2"/>
<feColorMatrix type="matrix" values="0 0 0 0 0 0 0 0 0 0 0 0 0 0 0 0 0 0 0.1 0"/>
<feBlend mode="normal" in2="BackgroundImageFix" result="effect1_dropShadow_91_24727"/>
<feColorMatrix in="SourceAlpha" type="matrix" values="0 0 0 0 0 0 0 0 0 0 0 0 0 0 0 0 0 0 127 0" result="hardAlpha"/>
<feOffset dy="1"/>
<feGaussianBlur stdDeviation="5"/>
<feComposite in2="hardAlpha" operator="out"/>
<feColorMatrix type="matrix" values="0 0 0 0 0 0 0 0 0 0 0 0 0 0 0 0 0 0 0.12 0"/>
<feBlend mode="normal" in2="effect1_dropShadow_91_24727" result="effect2_dropShadow_91_24727"/>
<feBlend mode="normal" in="SourceGraphic" in2="effect2_dropShadow_91_24727" result="shape"/>
</filter>
<filter id="filter1_dd_91_24727" x="0" y="0" width="2580" height="1198" filterUnits="userSpaceOnUse" color-interpolation-filters="sRGB">
<feFlood flood-opacity="0" result="BackgroundImageFix"/>
<feColorMatrix in="SourceAlpha" type="matrix" values="0 0 0 0 0 0 0 0 0 0 0 0 0 0 0 0 0 0 127 0" result="hardAlpha"/>
<feOffset dy="2"/>
<feGaussianBlur stdDeviation="2"/>
<feColorMatrix type="matrix" values="0 0 0 0 0 0 0 0 0 0 0 0 0 0 0 0 0 0 0.1 0"/>
<feBlend mode="normal" in2="BackgroundImageFix" result="effect1_dropShadow_91_24727"/>
<feColorMatrix in="SourceAlpha" type="matrix" values="0 0 0 0 0 0 0 0 0 0 0 0 0 0 0 0 0 0 127 0" result="hardAlpha"/>
<feOffset dy="1"/>
<feGaussianBlur stdDeviation="5"/>
<feComposite in2="hardAlpha" operator="out"/>
<feColorMatrix type="matrix" values="0 0 0 0 0 0 0 0 0 0 0 0 0 0 0 0 0 0 0.12 0"/>
<feBlend mode="normal" in2="effect1_dropShadow_91_24727" result="effect2_dropShadow_91_24727"/>
<feBlend mode="normal" in="SourceGraphic" in2="effect2_dropShadow_91_24727" result="shape"/>
</filter>
<filter id="filter2_dd_91_24727" x="0" y="0" width="2580" height="1198" filterUnits="userSpaceOnUse" color-interpolation-filters="sRGB">
<feFlood flood-opacity="0" result="BackgroundImageFix"/>
<feColorMatrix in="SourceAlpha" type="matrix" values="0 0 0 0 0 0 0 0 0 0 0 0 0 0 0 0 0 0 127 0" result="hardAlpha"/>
<feOffset dy="2"/>
<feGaussianBlur stdDeviation="2"/>
<feColorMatrix type="matrix" values="0 0 0 0 0 0 0 0 0 0 0 0 0 0 0 0 0 0 0.1 0"/>
<feBlend mode="normal" in2="BackgroundImageFix" result="effect1_dropShadow_91_24727"/>
<feColorMatrix in="SourceAlpha" type="matrix" values="0 0 0 0 0 0 0 0 0 0 0 0 0 0 0 0 0 0 127 0" result="hardAlpha"/>
<feOffset dy="1"/>
<feGaussianBlur stdDeviation="5"/>
<feComposite in2="hardAlpha" operator="out"/>
<feColorMatrix type="matrix" values="0 0 0 0 0 0 0 0 0 0 0 0 0 0 0 0 0 0 0.12 0"/>
<feBlend mode="normal" in2="effect1_dropShadow_91_24727" result="effect2_dropShadow_91_24727"/>
<feBlend mode="normal" in="SourceGraphic" in2="effect2_dropShadow_91_24727" result="shape"/>
</filter>
<clipPath id="clip0_91_24727">
<rect width="2560" height="1178" fill="white" transform="translate(10 9)"/>
</clipPath>
<clipPath id="clip1_91_24727">
<rect width="2560" height="1178" fill="white" transform="translate(10 9)"/>
</clipPath>
<clipPath id="clip2_91_24727">
<rect width="1920" height="1115" fill="white" transform="translate(330 73)"/>
</clipPath>
<clipPath id="clip3_91_24727">
<rect width="160.212" height="1115" fill="white" transform="translate(330 73)"/>
</clipPath>
<clipPath id="clip4_91_24727">
<rect width="160.219" height="1115" fill="white" transform="translate(490.219 73)"/>
</clipPath>
<clipPath id="clip5_91_24727">
<rect width="160.219" height="1115" fill="white" transform="translate(650.438 73)"/>
</clipPath>
<clipPath id="clip6_91_24727">
<rect width="160.219" height="1115" fill="white" transform="translate(810.657 73)"/>
</clipPath>
<clipPath id="clip7_91_24727">
<rect width="160.219" height="1115" fill="white" transform="translate(970.875 73)"/>
</clipPath>
<clipPath id="clip8_91_24727">
<rect width="160.219" height="1115" fill="white" transform="translate(1131.09 73)"/>
</clipPath>
<clipPath id="clip9_91_24727">
<rect width="160.219" height="1115" fill="white" transform="translate(1288.69 73)"/>
</clipPath>
<clipPath id="clip10_91_24727">
<rect width="160.219" height="1115" fill="white" transform="translate(1448.91 73)"/>
</clipPath>
<clipPath id="clip11_91_24727">
<rect width="160.219" height="1115" fill="white" transform="translate(1609.12 73)"/>
</clipPath>
<clipPath id="clip12_91_24727">
<rect width="160.219" height="1115" fill="white" transform="translate(1769.34 73)"/>
</clipPath>
<clipPath id="clip13_91_24727">
<rect width="160.219" height="1115" fill="white" transform="translate(1929.56 73)"/>
</clipPath>
<clipPath id="clip14_91_24727">
<rect width="160.219" height="1115" fill="white" transform="translate(2089.78 73)"/>
</clipPath>
</defs>
</svg>
