<svg width="1940" height="1198" viewBox="0 0 1940 1198" fill="none" xmlns="http://www.w3.org/2000/svg">
<g filter="url(#filter0_dd_91_23262)">
<g clip-path="url(#clip0_91_23262)" filter="url(#filter1_dd_91_23262)">
<rect width="1920" height="1178" transform="translate(10 9)" fill="white"/>
<g clip-path="url(#clip1_91_23262)" filter="url(#filter2_dd_91_23262)">
<rect width="1920" height="1178" transform="translate(10 9)" fill="white"/>
<line x1="10" y1="160.5" x2="1936" y2="160.5" stroke="#D2D6DD"/>
<mask id="path-2-inside-1_91_23262" fill="white">
<path d="M10 73H1930V161H10V73Z"/>
</mask>
<path d="M10 73H1930V161H10V73Z" fill="white"/>
<path d="M76.304 125H81.296V116.168H84.944C89.712 116.168 93.328 114.536 93.328 109.224C93.328 103.848 89.424 102.344 84.72 102.344H76.304V125ZM81.296 106.568H83.856C85.776 106.568 88.144 106.888 88.144 109.224C88.144 111.336 86.384 111.944 84.624 111.944H81.296V106.568ZM105.612 125H110.028V117.096C110.028 111.912 108.524 109.064 102.924 109.064C100.396 109.064 97.8363 109.896 96.0763 111.56L98.6363 114.184C99.6603 113.032 100.972 112.328 102.54 112.328C104.204 112.328 105.612 113.416 105.612 115.112C101.612 115.112 95.0843 115.208 95.0843 120.584C95.0843 123.72 97.7083 125.384 100.62 125.384C102.572 125.384 104.492 124.712 105.548 123.048H105.612V125ZM105.612 118.184V119.208C105.612 121.128 103.852 122.12 101.964 122.12C100.908 122.12 99.6923 121.576 99.6923 120.424C99.6923 118.312 102.956 118.184 104.428 118.184H105.612ZM129.36 109.448H124.944V111.496H124.88C124.144 110.376 122.288 109.064 119.568 109.064C115.152 109.064 112.464 113.032 112.464 117.16C112.464 121.864 115.504 125.192 120.112 125.192C121.552 125.192 123.408 124.648 124.496 123.144H124.56V124.648C124.56 126.856 123.184 128.456 120.272 128.456C118.32 128.456 116.688 127.688 115.216 126.44L112.56 130.408C114.8 132.2 117.616 132.68 120.368 132.68C126.384 132.68 129.36 129.544 129.36 123.688V109.448ZM117.264 117.128C117.264 115.112 118.928 113.288 121.104 113.288C123.28 113.288 124.944 115.112 124.944 117.128C124.944 119.144 123.28 120.968 121.104 120.968C118.928 120.968 117.264 119.144 117.264 117.128ZM144.556 119.848C143.756 120.936 142.7 121.736 141.132 121.736C139.276 121.736 137.9 120.552 137.516 118.728H148.652V117.224C148.652 112.264 145.836 109.064 141.356 109.064C136.556 109.064 132.716 112.264 132.716 117.224C132.716 122.184 136.556 125.384 141.356 125.384C143.852 125.384 146.38 124.264 147.916 122.312L144.556 119.848ZM137.516 115.464C137.644 113.96 138.796 112.52 140.908 112.52C142.636 112.52 143.884 113.864 143.852 115.464H137.516ZM161.04 100.808V125H165.84V117.256C165.84 115.24 166.224 113.288 168.72 113.288C171.184 113.288 171.216 115.592 171.216 117.384V125H176.016V116.424C176.016 112.264 175.12 109.064 170.256 109.064C167.92 109.064 166.352 110.344 165.904 111.56H165.84V100.808H161.04ZM190.775 119.848C189.975 120.936 188.919 121.736 187.351 121.736C185.495 121.736 184.119 120.552 183.735 118.728H194.871V117.224C194.871 112.264 192.055 109.064 187.575 109.064C182.775 109.064 178.935 112.264 178.935 117.224C178.935 122.184 182.775 125.384 187.575 125.384C190.071 125.384 192.599 124.264 194.135 122.312L190.775 119.848ZM183.735 115.464C183.863 113.96 185.015 112.52 187.127 112.52C188.855 112.52 190.103 113.864 190.071 115.464H183.735ZM207.55 125H211.966V117.096C211.966 111.912 210.462 109.064 204.862 109.064C202.334 109.064 199.774 109.896 198.014 111.56L200.574 114.184C201.598 113.032 202.91 112.328 204.478 112.328C206.142 112.328 207.55 113.416 207.55 115.112C203.55 115.112 197.022 115.208 197.022 120.584C197.022 123.72 199.646 125.384 202.558 125.384C204.51 125.384 206.43 124.712 207.486 123.048H207.55V125ZM207.55 118.184V119.208C207.55 121.128 205.79 122.12 203.902 122.12C202.846 122.12 201.63 121.576 201.63 120.424C201.63 118.312 204.894 118.184 206.366 118.184H207.55ZM231.297 100.808H226.497V111.112H226.433C225.345 109.608 223.489 109.064 221.505 109.064C217.089 109.064 214.401 113.032 214.401 117.352C214.401 122.056 217.441 125.384 222.049 125.384C224.225 125.384 226.081 124.072 226.817 122.952H226.881V125H231.297V100.808ZM226.881 117.224C226.881 119.56 225.441 121.16 223.041 121.16C220.641 121.16 219.201 119.56 219.201 117.224C219.201 114.888 220.641 113.288 223.041 113.288C225.441 113.288 226.881 114.888 226.881 117.224ZM235.198 125H239.998V109.448H235.198V125ZM234.814 104.552C234.814 106.088 236.062 107.336 237.598 107.336C239.134 107.336 240.382 106.088 240.382 104.552C240.382 103.016 239.134 101.768 237.598 101.768C236.062 101.768 234.814 103.016 234.814 104.552ZM243.446 125H248.246V117.256C248.246 115.24 248.63 113.288 251.126 113.288C253.59 113.288 253.622 115.592 253.622 117.384V125H258.422V116.424C258.422 112.264 257.526 109.064 252.662 109.064C250.326 109.064 248.758 110.344 248.118 111.56H248.054V109.448H243.446V125ZM278.141 109.448H273.725V111.496H273.661C272.925 110.376 271.069 109.064 268.349 109.064C263.933 109.064 261.245 113.032 261.245 117.16C261.245 121.864 264.285 125.192 268.893 125.192C270.333 125.192 272.189 124.648 273.277 123.144H273.341V124.648C273.341 126.856 271.965 128.456 269.053 128.456C267.101 128.456 265.469 127.688 263.997 126.44L261.341 130.408C263.581 132.2 266.397 132.68 269.149 132.68C275.165 132.68 278.141 129.544 278.141 123.688V109.448ZM266.045 117.128C266.045 115.112 267.709 113.288 269.885 113.288C272.061 113.288 273.725 115.112 273.725 117.128C273.725 119.144 272.061 120.968 269.885 120.968C267.709 120.968 266.045 119.144 266.045 117.128Z" fill="#502252"/>
<path d="M1930 160H10V162H1930V160Z" fill="#D2D6DD" mask="url(#path-2-inside-1_91_23262)"/>
<rect width="1920" height="50" transform="translate(10 1137)" fill="#D8D8D8"/>
<rect x="10" y="1137" width="1920" height="50" fill="white"/>
<path d="M1806.66 1165.49C1806.49 1166.26 1806.14 1166.86 1805.61 1167.31C1805.07 1167.76 1804.44 1167.98 1803.7 1167.98C1803.16 1167.98 1802.67 1167.89 1802.23 1167.71C1801.79 1167.52 1801.42 1167.26 1801.11 1166.94C1800.8 1166.61 1800.56 1166.23 1800.39 1165.79C1800.23 1165.34 1800.15 1164.86 1800.15 1164.34C1800.15 1163.81 1800.23 1163.33 1800.39 1162.88C1800.55 1162.43 1800.78 1162.05 1801.08 1161.73C1801.38 1161.41 1801.75 1161.16 1802.18 1160.98C1802.62 1160.79 1803.11 1160.7 1803.65 1160.7C1804.03 1160.7 1804.38 1160.76 1804.71 1160.86C1805.05 1160.96 1805.36 1161.11 1805.62 1161.31C1805.89 1161.51 1806.11 1161.77 1806.28 1162.08C1806.46 1162.38 1806.58 1162.73 1806.65 1163.12H1805.67C1805.59 1162.67 1805.36 1162.3 1805 1162.02C1804.65 1161.72 1804.2 1161.57 1803.67 1161.57C1803.28 1161.57 1802.92 1161.64 1802.61 1161.79C1802.31 1161.93 1802.04 1162.12 1801.83 1162.37C1801.63 1162.61 1801.47 1162.91 1801.37 1163.25C1801.26 1163.58 1801.21 1163.94 1801.21 1164.34C1801.21 1164.71 1801.27 1165.07 1801.38 1165.41C1801.5 1165.74 1801.67 1166.03 1801.88 1166.29C1802.1 1166.54 1802.36 1166.75 1802.66 1166.9C1802.97 1167.05 1803.32 1167.12 1803.7 1167.12C1804.24 1167.12 1804.68 1166.97 1805.03 1166.66C1805.38 1166.35 1805.6 1165.96 1805.67 1165.49H1806.66ZM1797.51 1164.34C1797.51 1163.49 1797.67 1162.71 1797.97 1161.98C1798.29 1161.25 1798.73 1160.62 1799.27 1160.1C1799.81 1159.56 1800.44 1159.15 1801.16 1158.85C1801.88 1158.54 1802.65 1158.38 1803.46 1158.38C1804.27 1158.38 1805.04 1158.54 1805.75 1158.85C1806.48 1159.15 1807.11 1159.56 1807.65 1160.1C1808.2 1160.62 1808.63 1161.25 1808.93 1161.98C1809.25 1162.71 1809.41 1163.49 1809.41 1164.34C1809.41 1165.19 1809.25 1165.98 1808.93 1166.7C1808.63 1167.43 1808.2 1168.06 1807.65 1168.59C1807.11 1169.11 1806.48 1169.53 1805.75 1169.84C1805.04 1170.14 1804.27 1170.29 1803.46 1170.29C1802.65 1170.29 1801.88 1170.14 1801.16 1169.84C1800.44 1169.53 1799.81 1169.11 1799.27 1168.59C1798.73 1168.06 1798.29 1167.43 1797.97 1166.7C1797.67 1165.98 1797.51 1165.19 1797.51 1164.34ZM1798.57 1164.34C1798.57 1165.06 1798.69 1165.73 1798.95 1166.35C1799.21 1166.97 1799.55 1167.51 1799.99 1167.97C1800.43 1168.42 1800.95 1168.77 1801.54 1169.04C1802.14 1169.3 1802.78 1169.42 1803.46 1169.42C1804.15 1169.42 1804.78 1169.3 1805.37 1169.04C1805.96 1168.77 1806.48 1168.42 1806.92 1167.97C1807.37 1167.51 1807.72 1166.97 1807.97 1166.35C1808.23 1165.73 1808.36 1165.06 1808.36 1164.34C1808.36 1163.62 1808.23 1162.95 1807.97 1162.34C1807.72 1161.71 1807.37 1161.17 1806.92 1160.72C1806.48 1160.26 1805.96 1159.9 1805.37 1159.65C1804.78 1159.38 1804.15 1159.25 1803.46 1159.25C1802.78 1159.25 1802.14 1159.38 1801.54 1159.65C1800.95 1159.9 1800.43 1160.26 1799.99 1160.72C1799.55 1161.17 1799.21 1161.71 1798.95 1162.34C1798.69 1162.95 1798.57 1163.62 1798.57 1164.34ZM1815.11 1168.46L1819.38 1164.3C1819.65 1164.05 1819.89 1163.81 1820.09 1163.6C1820.29 1163.38 1820.46 1163.16 1820.58 1162.96C1820.72 1162.75 1820.82 1162.53 1820.89 1162.3C1820.95 1162.08 1820.98 1161.83 1820.98 1161.55C1820.98 1161.25 1820.93 1160.99 1820.82 1160.75C1820.72 1160.52 1820.57 1160.32 1820.38 1160.16C1820.2 1159.99 1819.98 1159.86 1819.72 1159.78C1819.48 1159.68 1819.21 1159.63 1818.92 1159.63C1818.34 1159.63 1817.87 1159.8 1817.5 1160.13C1817.12 1160.46 1816.88 1160.9 1816.78 1161.44L1815.32 1161.31C1815.4 1160.85 1815.53 1160.45 1815.74 1160.1C1815.95 1159.73 1816.21 1159.43 1816.52 1159.2C1816.84 1158.97 1817.2 1158.79 1817.59 1158.67C1817.99 1158.54 1818.41 1158.48 1818.87 1158.48C1819.34 1158.48 1819.78 1158.55 1820.2 1158.69C1820.62 1158.82 1820.98 1159.01 1821.29 1159.26C1821.61 1159.52 1821.86 1159.84 1822.04 1160.22C1822.23 1160.61 1822.33 1161.05 1822.33 1161.55C1822.33 1162 1822.26 1162.41 1822.14 1162.77C1822.02 1163.13 1821.85 1163.47 1821.64 1163.78C1821.44 1164.07 1821.2 1164.36 1820.94 1164.64C1820.68 1164.91 1820.41 1165.17 1820.12 1165.44L1816.63 1168.72V1168.75H1822.41V1170H1815.11V1168.46ZM1823.81 1164.34C1823.81 1163.7 1823.86 1163.03 1823.97 1162.34C1824.08 1161.64 1824.28 1161.01 1824.56 1160.45C1824.85 1159.87 1825.24 1159.4 1825.73 1159.04C1826.23 1158.67 1826.87 1158.48 1827.65 1158.48C1828.43 1158.48 1829.06 1158.67 1829.56 1159.04C1830.06 1159.4 1830.45 1159.87 1830.74 1160.45C1831.03 1161.01 1831.22 1161.64 1831.33 1162.34C1831.44 1163.03 1831.49 1163.7 1831.49 1164.34C1831.49 1164.98 1831.44 1165.64 1831.33 1166.34C1831.22 1167.03 1831.03 1167.66 1830.74 1168.24C1830.45 1168.81 1830.06 1169.27 1829.56 1169.65C1829.06 1170.01 1828.43 1170.19 1827.65 1170.19C1826.87 1170.19 1826.23 1170.01 1825.73 1169.65C1825.24 1169.27 1824.85 1168.81 1824.56 1168.24C1824.28 1167.66 1824.08 1167.03 1823.97 1166.34C1823.86 1165.64 1823.81 1164.98 1823.81 1164.34ZM1825.16 1164.34C1825.16 1164.61 1825.17 1164.92 1825.19 1165.26C1825.21 1165.61 1825.25 1165.95 1825.3 1166.3C1825.36 1166.65 1825.45 1166.98 1825.56 1167.31C1825.67 1167.64 1825.82 1167.94 1826 1168.19C1826.2 1168.45 1826.42 1168.66 1826.69 1168.82C1826.96 1168.97 1827.28 1169.04 1827.65 1169.04C1828.02 1169.04 1828.34 1168.97 1828.61 1168.82C1828.88 1168.66 1829.1 1168.45 1829.28 1168.19C1829.48 1167.94 1829.62 1167.64 1829.73 1167.31C1829.85 1166.98 1829.93 1166.65 1829.99 1166.3C1830.05 1165.95 1830.09 1165.61 1830.12 1165.26C1830.14 1164.92 1830.15 1164.61 1830.15 1164.34C1830.15 1164.06 1830.14 1163.75 1830.12 1163.41C1830.09 1163.07 1830.05 1162.73 1829.99 1162.38C1829.93 1162.03 1829.85 1161.69 1829.73 1161.36C1829.62 1161.03 1829.48 1160.74 1829.28 1160.48C1829.1 1160.22 1828.88 1160.02 1828.61 1159.87C1828.34 1159.71 1828.02 1159.63 1827.65 1159.63C1827.28 1159.63 1826.96 1159.71 1826.69 1159.87C1826.42 1160.02 1826.2 1160.22 1826 1160.48C1825.82 1160.74 1825.67 1161.03 1825.56 1161.36C1825.45 1161.69 1825.36 1162.03 1825.3 1162.38C1825.25 1162.73 1825.21 1163.07 1825.19 1163.41C1825.17 1163.75 1825.16 1164.06 1825.16 1164.34ZM1832.89 1168.46L1837.17 1164.3C1837.43 1164.05 1837.67 1163.81 1837.87 1163.6C1838.07 1163.38 1838.24 1163.16 1838.37 1162.96C1838.5 1162.75 1838.61 1162.53 1838.67 1162.3C1838.73 1162.08 1838.77 1161.83 1838.77 1161.55C1838.77 1161.25 1838.71 1160.99 1838.61 1160.75C1838.5 1160.52 1838.35 1160.32 1838.16 1160.16C1837.98 1159.99 1837.76 1159.86 1837.5 1159.78C1837.26 1159.68 1836.99 1159.63 1836.7 1159.63C1836.13 1159.63 1835.65 1159.8 1835.28 1160.13C1834.9 1160.46 1834.66 1160.9 1834.56 1161.44L1833.1 1161.31C1833.18 1160.85 1833.32 1160.45 1833.52 1160.1C1833.73 1159.73 1833.99 1159.43 1834.3 1159.2C1834.62 1158.97 1834.98 1158.79 1835.37 1158.67C1835.77 1158.54 1836.2 1158.48 1836.65 1158.48C1837.12 1158.48 1837.57 1158.55 1837.98 1158.69C1838.4 1158.82 1838.76 1159.01 1839.07 1159.26C1839.39 1159.52 1839.64 1159.84 1839.82 1160.22C1840.01 1160.61 1840.11 1161.05 1840.11 1161.55C1840.11 1162 1840.05 1162.41 1839.92 1162.77C1839.8 1163.13 1839.64 1163.47 1839.42 1163.78C1839.22 1164.07 1838.98 1164.36 1838.72 1164.64C1838.46 1164.91 1838.19 1165.17 1837.9 1165.44L1834.41 1168.72V1168.75H1840.19V1170H1832.89V1168.46ZM1841.78 1168.46L1846.06 1164.3C1846.32 1164.05 1846.56 1163.81 1846.76 1163.6C1846.96 1163.38 1847.13 1163.16 1847.26 1162.96C1847.4 1162.75 1847.5 1162.53 1847.56 1162.3C1847.62 1162.08 1847.66 1161.83 1847.66 1161.55C1847.66 1161.25 1847.6 1160.99 1847.5 1160.75C1847.39 1160.52 1847.24 1160.32 1847.05 1160.16C1846.87 1159.99 1846.65 1159.86 1846.39 1159.78C1846.15 1159.68 1845.88 1159.63 1845.59 1159.63C1845.02 1159.63 1844.54 1159.8 1844.17 1160.13C1843.8 1160.46 1843.56 1160.9 1843.45 1161.44L1841.99 1161.31C1842.07 1160.85 1842.21 1160.45 1842.41 1160.1C1842.62 1159.73 1842.88 1159.43 1843.19 1159.2C1843.51 1158.97 1843.87 1158.79 1844.26 1158.67C1844.66 1158.54 1845.09 1158.48 1845.54 1158.48C1846.01 1158.48 1846.46 1158.55 1846.87 1158.69C1847.29 1158.82 1847.65 1159.01 1847.96 1159.26C1848.28 1159.52 1848.53 1159.84 1848.71 1160.22C1848.9 1160.61 1849 1161.05 1849 1161.55C1849 1162 1848.94 1162.41 1848.81 1162.77C1848.69 1163.13 1848.53 1163.47 1848.31 1163.78C1848.11 1164.07 1847.88 1164.36 1847.61 1164.64C1847.35 1164.91 1847.08 1165.17 1846.79 1165.44L1843.3 1168.72V1168.75H1849.08V1170H1841.78V1168.46ZM1859.42 1158.67H1860.68L1865.5 1170H1863.93L1862.78 1167.22H1857.11L1855.94 1170H1854.42L1859.42 1158.67ZM1860.02 1160.4H1859.99L1857.64 1165.97H1862.26L1860.02 1160.4ZM1867 1158.67H1874.12V1159.92H1868.35V1163.47H1873.74V1164.72H1868.35V1168.75H1874.41V1170H1867V1158.67ZM1876.49 1158.67H1878.49L1882.33 1167.55H1882.36L1886.23 1158.67H1888.18V1170H1886.84V1160.5H1886.81L1882.74 1170H1881.93L1877.86 1160.5H1877.83V1170H1876.49V1158.67ZM1896.27 1170.29C1895.4 1170.29 1894.61 1170.14 1893.88 1169.84C1893.17 1169.54 1892.54 1169.13 1892.01 1168.61C1891.49 1168.07 1891.08 1167.45 1890.78 1166.72C1890.49 1165.98 1890.35 1165.19 1890.35 1164.34C1890.35 1163.48 1890.49 1162.69 1890.78 1161.97C1891.08 1161.23 1891.49 1160.6 1892.01 1160.08C1892.54 1159.55 1893.17 1159.13 1893.88 1158.83C1894.61 1158.53 1895.4 1158.38 1896.27 1158.38C1897.13 1158.38 1897.92 1158.53 1898.63 1158.83C1899.36 1159.13 1899.98 1159.55 1900.51 1160.08C1901.04 1160.6 1901.45 1161.23 1901.74 1161.97C1902.04 1162.69 1902.19 1163.48 1902.19 1164.34C1902.19 1165.19 1902.04 1165.98 1901.74 1166.72C1901.45 1167.45 1901.04 1168.07 1900.51 1168.61C1899.98 1169.13 1899.36 1169.54 1898.63 1169.84C1897.92 1170.14 1897.13 1170.29 1896.27 1170.29ZM1896.27 1169.04C1896.93 1169.04 1897.53 1168.92 1898.07 1168.67C1898.63 1168.43 1899.1 1168.09 1899.5 1167.66C1899.89 1167.24 1900.2 1166.74 1900.41 1166.18C1900.63 1165.6 1900.75 1164.99 1900.75 1164.34C1900.75 1163.69 1900.63 1163.08 1900.41 1162.51C1900.2 1161.94 1899.89 1161.43 1899.5 1161.01C1899.1 1160.58 1898.63 1160.25 1898.07 1160C1897.53 1159.75 1896.93 1159.63 1896.27 1159.63C1895.6 1159.63 1895 1159.75 1894.44 1160C1893.9 1160.25 1893.43 1160.58 1893.03 1161.01C1892.64 1161.43 1892.33 1161.94 1892.11 1162.51C1891.89 1163.08 1891.79 1163.69 1891.79 1164.34C1891.79 1164.99 1891.89 1165.6 1892.11 1166.18C1892.33 1166.74 1892.64 1167.24 1893.03 1167.66C1893.43 1168.09 1893.9 1168.43 1894.44 1168.67C1895 1168.92 1895.6 1169.04 1896.27 1169.04Z" fill="#6B778C"/>
<path fill-rule="evenodd" clip-rule="evenodd" d="M1776.07 1158.35C1775.2 1158.47 1774.32 1158.61 1773.44 1158.77C1767.96 1159.8 1763.52 1161.68 1760.78 1163.86C1759.4 1164.84 1758.39 1166.22 1757.88 1167.79C1758.12 1166.23 1759.2 1164.68 1761 1163.25C1763.87 1160.95 1768.56 1158.99 1774.32 1157.9L1775.05 1157.78L1774.75 1157.62L1774.21 1157.72C1768.33 1158.82 1763.6 1160.82 1760.67 1163.16C1759.2 1164.21 1758.12 1165.68 1757.58 1167.36C1757.83 1165.7 1759 1164.03 1760.94 1162.54C1763.75 1160.3 1768.17 1158.35 1773.62 1157.15L1773.26 1157.01C1767.82 1158.24 1763.42 1160.23 1760.6 1162.45C1759.01 1163.55 1757.84 1165.1 1757.24 1166.88C1757.51 1165.1 1758.76 1163.32 1760.81 1161.69C1764.11 1159.28 1767.9 1157.53 1771.93 1156.55L1771.48 1156.43C1767.48 1157.44 1763.73 1159.2 1760.45 1161.61C1758.77 1162.81 1757.52 1164.5 1756.91 1166.43C1757.19 1164.52 1758.54 1162.63 1760.72 1160.88C1763.51 1158.79 1766.65 1157.18 1770.01 1156.14L1769.45 1156.06C1766.15 1157.11 1763.06 1158.7 1760.33 1160.76C1758.53 1162.04 1757.2 1163.84 1756.54 1165.9C1756.85 1163.86 1758.28 1161.83 1760.62 1159.96C1762.81 1158.3 1765.24 1156.95 1767.83 1155.94H1767.11C1764.62 1156.95 1762.3 1158.27 1760.19 1159.89C1758.03 1161.62 1756.61 1163.5 1756.14 1165.39C1756.47 1163.22 1758 1161.05 1760.51 1159.04C1762 1157.88 1763.61 1156.87 1765.32 1156.02L1764.68 1156.1L1764.38 1156.14C1762.85 1156.91 1761.39 1157.81 1760.04 1158.84C1757.73 1160.72 1756.23 1162.73 1755.72 1164.76C1756.08 1162.43 1757.72 1160.11 1760.4 1157.96C1761.01 1157.47 1761.72 1156.98 1762.42 1156.51C1761.96 1156.63 1761.5 1156.79 1761.06 1156.96C1760.64 1157.2 1760.25 1157.49 1759.91 1157.82C1753.25 1162.81 1753.32 1169.95 1760.38 1172.65L1760.23 1172.5C1760.05 1172.32 1759.88 1172.14 1759.73 1171.96L1759.57 1171.77C1759.41 1171.57 1759.27 1171.37 1759.14 1171.17L1759 1170.95C1758.88 1170.74 1758.77 1170.52 1758.67 1170.3L1758.56 1170.03C1758.48 1169.79 1758.41 1169.54 1758.36 1169.29C1758.37 1169.18 1758.35 1169.07 1758.31 1168.96C1758.29 1168.72 1758.29 1168.47 1758.31 1168.23C1758.29 1168.1 1758.29 1167.96 1758.31 1167.83C1758.35 1167.58 1758.42 1167.33 1758.5 1167.09C1758.55 1166.94 1758.61 1166.79 1758.68 1166.64C1758.82 1166.37 1758.97 1166.1 1759.13 1165.84C1759.65 1165.1 1760.3 1164.44 1761.04 1163.9C1764.74 1161.34 1769 1159.64 1773.5 1158.9C1774.42 1158.72 1775.35 1158.59 1776.27 1158.47L1776.03 1158.31" fill="#6B778C"/>
<path fill-rule="evenodd" clip-rule="evenodd" d="M1759.8 1165.4C1764 1164.27 1773.43 1164.14 1774.97 1169.17C1772.57 1167.91 1769.73 1167.64 1767.12 1168.41C1764.49 1169.17 1762.16 1170.64 1760.4 1172.64L1760.23 1172.5C1762 1170.45 1764.38 1168.96 1767.05 1168.2C1768.74 1167.73 1770.52 1167.65 1772.25 1167.95C1770.28 1167.51 1768.22 1167.57 1766.28 1168.11C1763.77 1168.82 1761.52 1170.14 1759.73 1171.96L1759.57 1171.77C1761.38 1169.93 1763.67 1168.59 1766.2 1167.88C1768.02 1167.37 1769.94 1167.27 1771.8 1167.6C1769.69 1167.13 1767.5 1167.19 1765.42 1167.78C1763.1 1168.43 1760.97 1169.59 1759.2 1171.17L1759.06 1170.95C1760.85 1169.36 1763.01 1168.19 1765.36 1167.54C1767.29 1167 1769.33 1166.9 1771.31 1167.24C1769.05 1166.74 1766.7 1166.81 1764.48 1167.43C1762.38 1168.01 1760.42 1168.99 1758.72 1170.31L1758.61 1170.04C1760.32 1168.73 1762.29 1167.76 1764.39 1167.17C1766.45 1166.61 1768.61 1166.51 1770.71 1166.88C1768.3 1166.34 1765.78 1166.41 1763.4 1167.08C1761.61 1167.55 1759.91 1168.29 1758.36 1169.29C1758.37 1169.18 1758.35 1169.07 1758.31 1168.96C1759.86 1167.97 1761.56 1167.21 1763.35 1166.72C1765.56 1166.11 1767.89 1165.99 1770.16 1166.39C1767.58 1165.82 1764.89 1165.89 1762.34 1166.6C1760.95 1166.99 1759.6 1167.53 1758.34 1168.21C1758.32 1168.08 1758.33 1167.95 1758.36 1167.82C1759.59 1167.18 1760.89 1166.66 1762.23 1166.29C1764.6 1165.63 1767.09 1165.51 1769.51 1165.93C1766.75 1165.32 1763.87 1165.4 1761.15 1166.16C1760.26 1166.41 1759.39 1166.71 1758.55 1167.08C1758.6 1166.93 1758.66 1166.78 1758.72 1166.64C1759.48 1166.32 1760.26 1166.05 1761.06 1165.83C1763.59 1165.13 1766.25 1165 1768.85 1165.45C1765.89 1164.79 1762.82 1164.88 1759.91 1165.7L1759.12 1165.93L1759.2 1165.89C1759.29 1165.75 1759.38 1165.63 1759.49 1165.5L1759.8 1165.4Z" fill="#6B778C"/>
<path fill-rule="evenodd" clip-rule="evenodd" d="M1779.93 1154.18C1776.57 1150.76 1774.05 1150.11 1773.21 1150C1777.68 1152.52 1779.35 1157.91 1777.04 1162.35C1776.28 1163.75 1775.31 1165.03 1774.15 1166.15L1774.37 1166.42C1775.61 1165.24 1776.65 1163.89 1777.45 1162.4C1778.5 1160.52 1778.85 1158.36 1778.45 1156.27C1779.1 1158.64 1778.78 1161.16 1777.56 1163.31C1776.84 1164.66 1775.92 1165.9 1774.84 1167.01L1775.05 1167.33C1776.23 1166.16 1777.23 1164.83 1778 1163.38C1779.12 1161.38 1779.5 1159.07 1779.07 1156.84C1779.76 1159.37 1779.42 1162.06 1778.11 1164.36C1777.4 1165.7 1776.51 1166.93 1775.46 1168.04C1775.52 1168.17 1775.59 1168.3 1775.64 1168.44C1776.81 1167.23 1777.8 1165.88 1778.58 1164.42C1779.78 1162.27 1780.19 1159.79 1779.72 1157.4C1780.46 1160.1 1780.09 1162.97 1778.7 1165.43C1777.98 1166.82 1777.07 1168.12 1776 1169.29C1776 1169.46 1776.09 1169.62 1776.12 1169.8C1777.37 1168.53 1778.42 1167.09 1779.25 1165.54C1780.52 1163.24 1780.94 1160.59 1780.43 1158.04C1781.24 1160.94 1780.85 1164.03 1779.36 1166.68C1778.51 1168.27 1777.44 1169.74 1776.17 1171.05C1776.16 1171.3 1776.13 1171.55 1776.09 1171.79C1777.61 1170.31 1778.9 1168.62 1779.89 1166.77C1781.27 1164.32 1781.73 1161.48 1781.2 1158.74C1782.05 1161.84 1781.63 1165.13 1780.03 1167.95C1778.82 1170.18 1777.22 1172.21 1775.29 1173.93C1775.29 1173.99 1775.5 1174.02 1775.93 1173.99C1777.82 1172.27 1779.4 1170.25 1780.61 1168.03C1782.08 1165.41 1782.57 1162.38 1782.01 1159.45C1782.91 1162.76 1782.45 1166.28 1780.74 1169.29C1779.91 1170.86 1778.88 1172.33 1777.68 1173.66C1777.99 1173.58 1778.33 1173.47 1778.67 1173.35C1779.7 1172.14 1780.6 1170.82 1781.35 1169.42C1782.92 1166.61 1783.45 1163.37 1782.84 1160.23C1783.81 1163.78 1783.33 1167.55 1781.51 1170.77C1781.2 1171.34 1780.87 1171.92 1780.51 1172.5C1780.96 1172.24 1781.39 1171.94 1781.78 1171.61C1781.92 1171.38 1782.05 1171.13 1782.18 1170.89C1785.19 1165.12 1784.7 1159.09 1779.93 1154.2" fill="#6B778C"/>
<rect width="1921.24" height="64" transform="translate(10 9)" fill="#3C1053"/>
<path d="M53 41.75H39C38.8011 41.75 38.6103 41.671 38.4697 41.5303C38.329 41.3897 38.25 41.1989 38.25 41C38.25 40.8011 38.329 40.6103 38.4697 40.4697C38.6103 40.329 38.8011 40.25 39 40.25H53C53.1989 40.25 53.3897 40.329 53.5303 40.4697C53.671 40.6103 53.75 40.8011 53.75 41C53.75 41.1989 53.671 41.3897 53.5303 41.5303C53.3897 41.671 53.1989 41.75 53 41.75Z" fill="white"/>
<path d="M53 37.25H39C38.8011 37.25 38.6103 37.171 38.4697 37.0303C38.329 36.8897 38.25 36.6989 38.25 36.5C38.25 36.3011 38.329 36.1103 38.4697 35.9697C38.6103 35.829 38.8011 35.75 39 35.75H53C53.1989 35.75 53.3897 35.829 53.5303 35.9697C53.671 36.1103 53.75 36.3011 53.75 36.5C53.75 36.6989 53.671 36.8897 53.5303 37.0303C53.3897 37.171 53.1989 37.25 53 37.25Z" fill="white"/>
<path d="M53 46.25H39C38.8011 46.25 38.6103 46.171 38.4697 46.0303C38.329 45.8897 38.25 45.6989 38.25 45.5C38.25 45.3011 38.329 45.1103 38.4697 44.9697C38.6103 44.829 38.8011 44.75 39 44.75H53C53.1989 44.75 53.3897 44.829 53.5303 44.9697C53.671 45.1103 53.75 45.3011 53.75 45.5C53.75 45.6989 53.671 45.8897 53.5303 46.0303C53.3897 46.171 53.1989 46.25 53 46.25Z" fill="white"/>
<path fill-rule="evenodd" clip-rule="evenodd" d="M108.622 35.0296C107.186 35.2142 105.747 35.4424 104.301 35.7154C95.2879 37.4037 87.9998 40.49 83.4999 44.0644C81.2375 45.6841 79.5701 47.9447 78.7378 50.5272C79.1243 47.9685 80.9049 45.4097 83.8588 43.062C88.5795 39.2898 96.2817 36.0716 105.751 34.291L106.938 34.08L106.455 33.8294L105.571 33.9876C95.9091 35.7946 88.1378 39.0788 83.3205 42.9169C80.9049 44.6447 79.1256 47.0597 78.2409 49.8137C78.655 47.0848 80.5736 44.3546 83.7622 41.9013C88.3725 38.2214 95.633 35.0296 104.591 33.0512L103.998 32.827C95.0671 34.8449 87.8341 38.1027 83.1962 41.7562C80.5971 43.5592 78.6646 46.1035 77.6749 49.0236C78.1166 46.1088 80.1733 43.1807 83.5413 40.5032C88.9757 36.5437 95.1927 33.6777 101.817 32.0752L101.085 31.8773C94.5122 33.5286 88.3504 36.4158 82.9616 40.3713C80.1885 42.3498 78.1484 45.1222 77.1366 48.285C77.6059 45.1591 79.8144 42.0464 83.4033 39.1711C87.9763 35.7445 93.1443 33.1092 98.6697 31.3893L97.7449 31.2574C92.3216 32.9905 87.2516 35.5994 82.7545 38.9732C79.7951 41.0849 77.6142 44.042 76.5292 47.4145C77.04 44.0776 79.3865 40.7406 83.2376 37.6675C86.8348 34.9399 90.8225 32.7188 95.0809 31.0728H93.8938C89.8121 32.7201 85.99 34.899 82.5337 37.5488C78.9724 40.3977 76.6535 43.484 75.8805 46.5836C76.4188 43.0224 78.931 39.4481 83.0582 36.1639C85.5014 34.2527 88.1475 32.5909 90.9537 31.2046L89.9046 31.3234L89.4077 31.3893C86.8914 32.6529 84.5075 34.1406 82.2852 35.8342C78.4893 38.9205 76.0185 42.2179 75.1903 45.5416C75.7701 41.7298 78.4617 37.9049 82.865 34.3833C83.8726 33.5788 85.0459 32.7742 86.1915 31.996C85.431 32.2044 84.6842 32.4563 83.9554 32.7478C83.2625 33.1369 82.6275 33.6117 82.0644 34.1591C71.1322 42.3498 71.2426 54.0752 82.8373 58.5069L82.5889 58.2563C82.2949 57.9569 82.023 57.6627 81.7745 57.3726L81.5122 57.056C81.25 56.7263 81.0153 56.3965 80.8083 56.0787L80.5736 55.7107C80.3707 55.3651 80.1913 55.009 80.0353 54.6423L79.8558 54.2071C79.7109 53.8074 79.6005 53.3973 79.5246 52.9805C79.5384 52.8011 79.5094 52.6204 79.4417 52.4516C79.4045 52.0493 79.4045 51.6431 79.4417 51.2395C79.4072 51.0245 79.4072 50.8068 79.4417 50.5932C79.5108 50.1764 79.617 49.7662 79.7592 49.3666C79.8407 49.1199 79.9387 48.8785 80.0491 48.6411C80.2713 48.1887 80.5212 47.7482 80.7945 47.3222C81.6489 46.1008 82.7076 45.0233 83.9278 44.1303C90.0068 39.94 97.0092 37.1333 104.398 35.9265C105.916 35.6363 107.435 35.4121 108.953 35.2142L108.553 34.9636" fill="white"/>
<path fill-rule="evenodd" clip-rule="evenodd" d="M81.8851 46.5972C88.7867 44.7375 104.288 44.5265 106.814 52.7817C102.863 50.7242 98.2088 50.2771 93.9077 51.5433C89.6011 52.791 85.7666 55.206 82.8651 58.4941L82.589 58.2567C85.5098 54.8947 89.412 52.4388 93.7973 51.2003C96.5732 50.4301 99.4981 50.2863 102.342 50.7783C99.1005 50.0621 95.7187 50.157 92.5274 51.0552C88.4168 52.2067 84.7051 54.3882 81.7746 57.373L81.5124 57.0565C84.4856 54.0427 88.2442 51.8387 92.4032 50.6727C95.393 49.8339 98.5456 49.6756 101.61 50.2111C98.1453 49.4448 94.533 49.545 91.1195 50.5013C87.3042 51.571 83.8065 53.4821 80.905 56.0791L80.6704 55.7111C83.6174 53.0996 87.1635 51.1805 91.0229 50.1056C94.1962 49.2219 97.5421 49.0557 100.796 49.6176C97.088 48.8025 93.2245 48.9106 89.5735 49.9341C86.1227 50.8877 82.9079 52.4942 80.1183 54.656L79.9388 54.2207C82.7478 52.0682 85.9764 50.4683 89.4355 49.5121C92.8104 48.5888 96.362 48.4226 99.8155 49.0241C95.8499 48.1456 91.713 48.2591 87.8067 49.3538C84.8597 50.128 82.0618 51.352 79.5247 52.9809C79.5385 52.8015 79.5095 52.6208 79.4419 52.452C81.9803 50.8139 84.7755 49.5714 87.7239 48.7721C91.3555 47.7645 95.1832 47.5745 98.9045 48.2182C94.6642 47.2831 90.2443 47.4057 86.0675 48.5756C83.7747 49.2127 81.5662 50.0977 79.4833 51.2135C79.4626 50.9972 79.4764 50.7796 79.5247 50.5672C81.5441 49.5134 83.6781 48.6732 85.888 48.0612C89.7709 46.981 93.8622 46.7779 97.8417 47.4677C93.3045 46.4653 88.5755 46.5972 84.1074 47.8502C82.6443 48.2512 81.2142 48.755 79.8284 49.3538C79.9112 49.1058 80.0078 48.8645 80.1183 48.6284C81.3675 48.11 82.6484 47.6695 83.9556 47.3094C88.1117 46.1527 92.4929 45.9364 96.7512 46.6763C91.8994 45.6054 86.8418 45.7452 82.0645 47.0852L80.767 47.4677L80.905 47.4018C81.0472 47.1815 81.2046 46.9691 81.3744 46.7687L81.8851 46.5972Z" fill="white"/>
<path fill-rule="evenodd" clip-rule="evenodd" d="M114.971 28.171C109.45 22.5523 105.309 21.4972 103.929 21.3125C111.269 25.4448 114.013 34.3002 110.209 41.5847C108.971 43.8889 107.37 45.9979 105.461 47.8365L105.834 48.2718C107.871 46.3422 109.577 44.1158 110.886 41.6771C112.614 38.5934 113.192 35.0401 112.528 31.6003C113.597 35.4938 113.073 39.63 111.065 43.1675C109.879 45.3807 108.375 47.4224 106.593 49.2346L106.952 49.7622C108.89 47.8431 110.523 45.6603 111.797 43.2862C113.635 39.9954 114.254 36.2061 113.55 32.5367C114.683 36.698 114.121 41.1152 111.976 44.8953C110.806 47.0834 109.34 49.1146 107.614 50.9361C107.725 51.1471 107.825 51.3621 107.918 51.5823C109.843 49.6105 111.469 47.3921 112.749 44.9876C114.726 41.4607 115.387 37.3944 114.626 33.46C115.831 37.9022 115.229 42.6148 112.942 46.6495C111.757 48.9339 110.267 51.0614 108.511 52.9804C108.511 53.2574 108.649 53.5344 108.705 53.8246C110.753 51.7314 112.487 49.3744 113.853 46.8209C115.936 43.0461 116.617 38.7081 115.786 34.5152C117.109 39.2818 116.483 44.3532 114.033 48.6939C112.636 51.308 110.87 53.7256 108.787 55.8821C108.768 56.2897 108.723 56.6933 108.649 57.0956C111.16 54.6674 113.268 51.8883 114.902 48.8521C117.165 44.8175 117.924 40.1655 117.056 35.6627C118.446 40.7512 117.76 46.1536 115.137 50.7778C113.141 54.4537 110.505 57.7774 107.338 60.604C107.338 60.7095 107.683 60.749 108.387 60.6963C111.501 57.8711 114.1 54.5671 116.076 50.9229C118.494 46.6086 119.307 41.6375 118.381 36.8233C119.854 42.2679 119.108 48.0423 116.296 52.9804C114.931 55.5616 113.245 57.9753 111.272 60.1687C111.783 60.0236 112.335 59.8522 112.887 59.6543C114.593 57.6574 116.069 55.4904 117.29 53.1915C119.874 48.5778 120.741 43.2624 119.747 38.1159C121.339 43.9417 120.553 50.1276 117.553 55.4205C117.046 56.353 116.503 57.2973 115.924 58.2562C116.659 57.8236 117.357 57.3343 118.008 56.7922C118.229 56.4097 118.45 56.014 118.657 55.6183C123.612 46.1351 122.798 36.243 114.971 28.2106" fill="white"/>
<path fill-rule="evenodd" clip-rule="evenodd" d="M159.169 52.0441L161.515 39.646L167.451 52.7036L173.386 39.646L175.871 52.0441H178.079L174.214 33.0513L167.451 48.2192L160.825 33.0513L156.96 52.0441H159.169ZM154.752 33.8426H144.676V52.0441H154.752V50.0657H147.022V43.0753H154.752V40.965H147.022V35.8211H154.752V33.8426ZM134.075 37.8922L131.038 44.6056H137.111L134.075 37.8922ZM125.434 52.0695L134.075 33.0912L142.743 52.0695H140.259L137.76 46.4785H130.32L127.836 52.0695H125.434ZM181.6 49.7099C185.613 53.4597 192.026 53.4597 196.038 49.7099L196.121 49.6308C199.992 45.885 199.954 39.8521 196.038 36.1512C192.01 32.4357 185.628 32.4357 181.6 36.1512L181.448 36.2962C181.448 36.2976 181.447 36.2976 181.445 36.2989C177.612 40.0434 177.683 46.0472 181.6 49.7099ZM196.59 43.0097C196.6 44.9908 195.773 46.8914 194.299 48.2855L194.188 48.391C192.738 49.7086 190.811 50.4459 188.808 50.4459C184.493 50.4472 180.994 47.1064 180.993 42.9833C180.977 40.9733 181.803 39.041 183.284 37.6152C184.769 36.2105 186.78 35.4337 188.869 35.4574C193.184 35.5062 196.641 38.8867 196.59 43.0097Z" fill="white"/>
<path d="M214.976 47H219.104L220.52 43.4H227.12L228.584 47H232.808L225.416 30.008H222.32L214.976 47ZM225.848 40.232H221.696L223.76 34.952L225.848 40.232ZM234.397 52.472H237.997V45.752H238.045C238.861 46.88 240.253 47.288 241.741 47.288C245.053 47.288 247.069 44.312 247.069 41.072C247.069 37.544 244.789 35.048 241.333 35.048C239.701 35.048 238.309 36.032 237.757 36.872H237.709V35.336H234.397V52.472ZM237.709 41.168C237.709 39.416 238.789 38.216 240.589 38.216C242.389 38.216 243.469 39.416 243.469 41.168C243.469 42.92 242.389 44.12 240.589 44.12C238.789 44.12 237.709 42.92 237.709 41.168ZM249.514 52.472H253.114V45.752H253.162C253.978 46.88 255.37 47.288 256.858 47.288C260.17 47.288 262.186 44.312 262.186 41.072C262.186 37.544 259.906 35.048 256.45 35.048C254.818 35.048 253.426 36.032 252.874 36.872H252.826V35.336H249.514V52.472ZM252.826 41.168C252.826 39.416 253.906 38.216 255.706 38.216C257.506 38.216 258.586 39.416 258.586 41.168C258.586 42.92 257.506 44.12 255.706 44.12C253.906 44.12 252.826 42.92 252.826 41.168ZM271.853 47H275.597V34.904H275.645L283.061 47H287.957V30.008H284.213V41.816H284.165L276.941 30.008H271.853V47ZM298.287 47H301.599V41.072C301.599 37.184 300.471 35.048 296.271 35.048C294.375 35.048 292.455 35.672 291.135 36.92L293.055 38.888C293.823 38.024 294.807 37.496 295.983 37.496C297.231 37.496 298.287 38.312 298.287 39.584C295.287 39.584 290.391 39.656 290.391 43.688C290.391 46.04 292.359 47.288 294.543 47.288C296.007 47.288 297.447 46.784 298.239 45.536H298.287V47ZM298.287 41.888V42.656C298.287 44.096 296.967 44.84 295.551 44.84C294.759 44.84 293.847 44.432 293.847 43.568C293.847 41.984 296.295 41.888 297.399 41.888H298.287ZM303.858 47H307.458V41.192C307.458 39.68 307.746 38.216 309.618 38.216C311.274 38.216 311.226 39.968 311.226 40.832V47H314.826V40.832C314.826 39.392 315.354 38.216 317.01 38.216C318.186 38.216 318.594 39.128 318.594 40.208V47H322.194V40.112C322.194 37.28 321.234 35.048 318.066 35.048C316.338 35.048 315.21 35.648 314.37 37.136C313.746 35.72 312.402 35.048 310.77 35.048C309.018 35.048 307.842 36.008 307.362 36.92H307.314V35.336H303.858V47ZM333.261 43.136C332.661 43.952 331.869 44.552 330.693 44.552C329.301 44.552 328.269 43.664 327.981 42.296H336.333V41.168C336.333 37.448 334.221 35.048 330.861 35.048C327.261 35.048 324.381 37.448 324.381 41.168C324.381 44.888 327.261 47.288 330.861 47.288C332.733 47.288 334.629 46.448 335.781 44.984L333.261 43.136ZM327.981 39.848C328.077 38.72 328.941 37.64 330.525 37.64C331.821 37.64 332.757 38.648 332.733 39.848H327.981Z" fill="white"/>
<rect x="1555.24" y="28.5" width="158" height="25" rx="8" fill="#FE7355"/>
<path d="M1564.81 44.5H1565.98V40.048H1567.97C1569.37 40.048 1571.22 39.474 1571.22 37.304C1571.22 35.232 1569.57 34.588 1567.75 34.588H1564.81V44.5ZM1565.98 35.68H1567.97C1569.15 35.68 1569.96 36.212 1569.96 37.318C1569.96 38.424 1569.15 38.956 1567.97 38.956H1565.98V35.68ZM1573.51 39.502C1574.03 39.026 1574.76 38.788 1575.46 38.788C1576.48 38.788 1577.08 39.278 1577.08 40.23V40.426H1576.66C1575.05 40.426 1572.53 40.552 1572.53 42.722C1572.53 43.996 1573.64 44.668 1574.97 44.668C1575.96 44.668 1576.69 44.192 1577.12 43.52H1577.15C1577.15 43.8 1577.15 44.206 1577.22 44.5H1578.27C1578.22 44.164 1578.17 43.744 1578.17 43.366V40.552C1578.17 38.704 1577.36 37.78 1575.43 37.78C1574.48 37.78 1573.5 38.102 1572.83 38.788L1573.51 39.502ZM1577.08 41.35V41.77C1577.05 42.834 1576.41 43.744 1575.15 43.744C1574.32 43.744 1573.71 43.436 1573.71 42.61C1573.71 41.728 1574.6 41.35 1575.99 41.35H1577.08ZM1580.17 44.5H1581.26V41.308C1581.26 39.81 1581.85 38.872 1583.18 38.872C1583.37 38.872 1583.58 38.9 1583.77 38.956L1583.84 37.85C1583.68 37.794 1583.53 37.78 1583.39 37.78C1582.31 37.78 1581.5 38.382 1581.2 39.026H1581.18C1581.18 38.662 1581.15 38.298 1581.15 37.948H1580.11C1580.11 38.382 1580.17 38.9 1580.17 39.502V44.5ZM1588.67 37.948H1586.74V36.086H1585.65V37.948H1584.22V38.872H1585.65V42.47C1585.65 43.828 1585.9 44.668 1587.46 44.668C1587.86 44.668 1588.35 44.598 1588.73 44.43L1588.69 43.436C1588.39 43.59 1588.04 43.66 1587.72 43.66C1586.76 43.66 1586.74 42.988 1586.74 42.148V38.872H1588.67V37.948ZM1590.11 44.5H1591.2V37.948H1590.11V44.5ZM1589.86 35.386C1589.86 35.848 1590.19 36.184 1590.66 36.184C1591.12 36.184 1591.45 35.848 1591.45 35.386C1591.45 34.952 1591.1 34.588 1590.66 34.588C1590.21 34.588 1589.86 34.952 1589.86 35.386ZM1598.91 38.816C1598.25 38.102 1597.35 37.78 1596.39 37.78C1594.37 37.78 1593 39.236 1593 41.224C1593 43.24 1594.36 44.668 1596.39 44.668C1597.34 44.668 1598.23 44.346 1598.86 43.618L1598.05 42.848C1597.65 43.408 1597.1 43.66 1596.39 43.66C1595.06 43.66 1594.17 42.568 1594.17 41.224C1594.17 39.88 1594.92 38.788 1596.39 38.788C1597.04 38.788 1597.58 39.026 1598.04 39.586L1598.91 38.816ZM1600.23 44.5H1601.32V37.948H1600.23V44.5ZM1599.98 35.386C1599.98 35.848 1600.31 36.184 1600.77 36.184C1601.24 36.184 1601.57 35.848 1601.57 35.386C1601.57 34.952 1601.22 34.588 1600.77 34.588C1600.33 34.588 1599.98 34.952 1599.98 35.386ZM1603.44 47.692H1604.53V43.338H1604.56C1604.96 44.08 1605.9 44.668 1607.08 44.668C1608.91 44.668 1610.35 43.184 1610.35 41.224C1610.35 39.236 1608.97 37.78 1606.91 37.78C1605.96 37.78 1605.16 38.2 1604.56 38.9H1604.53V37.948H1603.44V47.692ZM1604.53 41.224C1604.53 39.852 1605.44 38.788 1606.85 38.788C1608.27 38.788 1609.18 39.852 1609.18 41.224C1609.18 42.596 1608.27 43.66 1606.85 43.66C1605.44 43.66 1604.53 42.596 1604.53 41.224ZM1612.65 39.502C1613.17 39.026 1613.9 38.788 1614.6 38.788C1615.62 38.788 1616.22 39.278 1616.22 40.23V40.426H1615.8C1614.19 40.426 1611.67 40.552 1611.67 42.722C1611.67 43.996 1612.78 44.668 1614.11 44.668C1615.1 44.668 1615.83 44.192 1616.27 43.52H1616.29C1616.29 43.8 1616.29 44.206 1616.36 44.5H1617.41C1617.36 44.164 1617.32 43.744 1617.32 43.366V40.552C1617.32 38.704 1616.5 37.78 1614.57 37.78C1613.62 37.78 1612.64 38.102 1611.97 38.788L1612.65 39.502ZM1616.22 41.35V41.77C1616.2 42.834 1615.55 43.744 1614.29 43.744C1613.47 43.744 1612.85 43.436 1612.85 42.61C1612.85 41.728 1613.75 41.35 1615.13 41.35H1616.22ZM1619.31 44.5H1620.4V41.308C1620.4 39.81 1621.02 38.788 1622.43 38.788C1623.46 38.788 1623.93 39.474 1623.93 40.566V44.5H1625.02V40.454C1625.02 38.872 1624.25 37.78 1622.53 37.78C1621.45 37.78 1620.64 38.382 1620.35 39.026H1620.32C1620.32 38.662 1620.29 38.298 1620.29 37.948H1619.26C1619.26 38.382 1619.31 38.9 1619.31 39.502V44.5ZM1630.67 37.948H1628.74V36.086H1627.65V37.948H1626.22V38.872H1627.65V42.47C1627.65 43.828 1627.9 44.668 1629.46 44.668C1629.86 44.668 1630.35 44.598 1630.73 44.43L1630.69 43.436C1630.39 43.59 1630.04 43.66 1629.72 43.66C1628.76 43.66 1628.74 42.988 1628.74 42.148V38.872H1630.67V37.948ZM1632.92 37.78C1632.46 37.78 1632.08 38.158 1632.08 38.62C1632.08 39.082 1632.49 39.46 1632.92 39.46C1633.36 39.46 1633.76 39.082 1633.76 38.62C1633.76 38.158 1633.38 37.78 1632.92 37.78ZM1632.92 42.904C1632.46 42.904 1632.08 43.282 1632.08 43.744C1632.08 44.206 1632.49 44.584 1632.92 44.584C1633.36 44.584 1633.76 44.206 1633.76 43.744C1633.76 43.282 1633.38 42.904 1632.92 42.904ZM1640 44.5H1641.18V36.268H1641.21L1646.95 44.5H1648.43V34.588H1647.25V42.82H1647.23L1641.49 34.588H1640V44.5ZM1650.9 44.5H1657.38V43.408H1652.07V39.88H1656.79V38.788H1652.07V35.68H1657.13V34.588H1650.9V44.5ZM1659.2 44.5H1660.37V36.184H1660.4L1663.96 44.5H1664.67L1668.23 36.184H1668.25V44.5H1669.43V34.588H1667.72L1664.33 42.358H1664.31L1660.95 34.588H1659.2V44.5ZM1671.9 44.5H1673.07V36.184H1673.1L1676.66 44.5H1677.37L1680.93 36.184H1680.96V44.5H1682.13V34.588H1680.42L1677.04 42.358H1677.01L1673.65 34.588H1671.9V44.5ZM1692.57 35.89C1691.73 34.798 1690.41 34.336 1689.07 34.336C1686.13 34.336 1684.03 36.632 1684.03 39.544C1684.03 42.554 1686.22 44.752 1689.07 44.752C1690.65 44.752 1691.94 44.206 1692.82 43.016L1691.94 42.274C1691.24 43.17 1690.27 43.66 1689.07 43.66C1686.84 43.66 1685.29 41.84 1685.29 39.544C1685.29 37.374 1686.85 35.428 1689.07 35.428C1690.02 35.428 1690.96 35.834 1691.54 36.632L1692.57 35.89ZM1699.06 44.752C1702.07 44.752 1704.24 42.54 1704.24 39.544C1704.24 36.548 1702.07 34.336 1699.06 34.336C1696.05 34.336 1693.88 36.548 1693.88 39.544C1693.88 42.54 1696.05 44.752 1699.06 44.752ZM1699.06 43.66C1696.74 43.66 1695.14 41.826 1695.14 39.544C1695.14 37.262 1696.74 35.428 1699.06 35.428C1701.39 35.428 1702.98 37.262 1702.98 39.544C1702.98 41.826 1701.39 43.66 1699.06 43.66Z" fill="white"/>
<path d="M1739.14 33.672H1737.8V40.488C1737.8 42.312 1737.13 44.04 1734.87 44.04C1732.61 44.04 1731.94 42.312 1731.94 40.488V33.672H1730.6V40.68C1730.6 43.144 1731.75 45.288 1734.87 45.288C1737.99 45.288 1739.14 43.144 1739.14 40.68V33.672ZM1740.85 43.8C1741.59 44.856 1742.5 45.192 1743.77 45.192C1745.25 45.192 1746.76 44.536 1746.76 42.84C1746.76 41.336 1745.64 40.856 1744.31 40.6C1743.32 40.408 1742.42 40.136 1742.42 39.512C1742.42 38.808 1743.21 38.472 1743.89 38.472C1744.63 38.472 1745.16 38.84 1745.48 39.368L1746.52 38.68C1746.01 37.72 1745.03 37.32 1743.97 37.32C1742.58 37.32 1741.17 38.072 1741.17 39.528C1741.17 41.08 1742.39 41.384 1743.81 41.704C1744.61 41.88 1745.41 42.088 1745.41 42.888C1745.41 43.704 1744.55 44.04 1743.77 44.04C1742.89 44.04 1742.34 43.64 1741.85 43.032L1740.85 43.8ZM1754.24 42.904C1753.65 43.656 1752.93 44.04 1751.86 44.04C1750.5 44.04 1749.51 42.936 1749.41 41.64H1755.46V41.24C1755.46 38.76 1754.02 37.32 1751.91 37.32C1749.7 37.32 1748.07 38.936 1748.07 41.256C1748.07 43.432 1749.51 45.192 1751.86 45.192C1753.25 45.192 1754.31 44.776 1755.19 43.64L1754.24 42.904ZM1749.41 40.584C1749.57 39.32 1750.48 38.472 1751.86 38.472C1753.24 38.472 1754.07 39.32 1754.12 40.584H1749.41ZM1757.39 45H1758.64V41.352C1758.64 39.64 1759.31 38.568 1760.83 38.568C1761.05 38.568 1761.29 38.6 1761.5 38.664L1761.58 37.4C1761.41 37.336 1761.23 37.32 1761.07 37.32C1759.84 37.32 1758.91 38.008 1758.57 38.744H1758.54C1758.54 38.328 1758.51 37.912 1758.51 37.512H1757.33C1757.33 38.008 1757.39 38.6 1757.39 39.288V45ZM1763.02 45H1764.26V41.352C1764.26 39.64 1764.97 38.472 1766.58 38.472C1767.75 38.472 1768.3 39.256 1768.3 40.504V45H1769.54V40.376C1769.54 38.568 1768.66 37.32 1766.7 37.32C1765.46 37.32 1764.54 38.008 1764.2 38.744H1764.17C1764.17 38.328 1764.14 37.912 1764.14 37.512H1762.95C1762.95 38.008 1763.02 38.6 1763.02 39.288V45ZM1772.59 39.288C1773.19 38.744 1774.02 38.472 1774.82 38.472C1775.99 38.472 1776.67 39.032 1776.67 40.12V40.344H1776.19C1774.35 40.344 1771.47 40.488 1771.47 42.968C1771.47 44.424 1772.74 45.192 1774.26 45.192C1775.39 45.192 1776.23 44.648 1776.72 43.88H1776.75C1776.75 44.2 1776.75 44.664 1776.83 45H1778.03C1777.97 44.616 1777.92 44.136 1777.92 43.704V40.488C1777.92 38.376 1776.99 37.32 1774.79 37.32C1773.7 37.32 1772.58 37.688 1771.81 38.472L1772.59 39.288ZM1776.67 41.4V41.88C1776.64 43.096 1775.91 44.136 1774.47 44.136C1773.52 44.136 1772.82 43.784 1772.82 42.84C1772.82 41.832 1773.84 41.4 1775.43 41.4H1776.67ZM1780.2 45H1781.45V41.352C1781.45 39.64 1782.15 38.472 1783.77 38.472C1784.79 38.472 1785.21 39.112 1785.21 40.76V45H1786.46V40.68C1786.46 39.336 1787.34 38.472 1788.39 38.472C1789.85 38.472 1790.22 39.48 1790.22 40.52V45H1791.47V40.456C1791.47 38.52 1790.76 37.32 1788.62 37.32C1787.48 37.32 1786.79 37.864 1786.25 38.744C1786.01 38.232 1785.5 37.32 1783.88 37.32C1782.65 37.32 1781.72 38.008 1781.39 38.744H1781.35C1781.35 38.328 1781.32 37.912 1781.32 37.512H1780.14C1780.14 38.008 1780.2 38.6 1780.2 39.288V45ZM1799.57 42.904C1798.98 43.656 1798.26 44.04 1797.19 44.04C1795.83 44.04 1794.84 42.936 1794.74 41.64H1800.79V41.24C1800.79 38.76 1799.35 37.32 1797.24 37.32C1795.03 37.32 1793.4 38.936 1793.4 41.256C1793.4 43.432 1794.84 45.192 1797.19 45.192C1798.58 45.192 1799.64 44.776 1800.52 43.64L1799.57 42.904ZM1794.74 40.584C1794.9 39.32 1795.81 38.472 1797.19 38.472C1798.56 38.472 1799.4 39.32 1799.44 40.584H1794.74Z" fill="white"/>
<path d="M1819.24 43.1664C1819.17 43.1668 1819.11 43.1539 1819.05 43.1288C1818.99 43.1036 1818.93 43.0665 1818.88 43.0198L1815.55 39.6864C1815.48 39.5892 1815.45 39.4716 1815.47 39.3543C1815.48 39.2371 1815.53 39.1278 1815.61 39.0457C1815.7 38.9636 1815.81 38.914 1815.93 38.9056C1816.05 38.8972 1816.16 38.9305 1816.26 38.9998L1819.24 41.9598L1822.22 38.9998C1822.31 38.9389 1822.42 38.9112 1822.53 38.9214C1822.65 38.9315 1822.75 38.9788 1822.83 39.0556C1822.91 39.1325 1822.97 39.2345 1822.98 39.3452C1823 39.456 1822.98 39.5691 1822.92 39.6664L1819.59 42.9998C1819.55 43.0502 1819.49 43.0909 1819.43 43.1196C1819.37 43.1482 1819.3 43.1642 1819.24 43.1664V43.1664Z" fill="white"/>
<path d="M1863.77 45.25C1863.68 45.25 1861.66 44.89 1861.66 39C1861.66 34.84 1859.24 32.25 1855.24 32.25C1851.24 32.25 1848.82 34.84 1848.82 39C1848.82 45 1846.73 45.25 1846.74 45.25C1846.54 45.25 1846.35 45.329 1846.21 45.4697C1846.07 45.6103 1845.99 45.8011 1845.99 46C1845.99 46.1989 1846.07 46.3897 1846.21 46.5303C1846.35 46.671 1846.54 46.75 1846.74 46.75H1851.57C1851.73 47.6007 1852.19 48.367 1852.86 48.9178C1853.53 49.4686 1854.37 49.7698 1855.24 49.7698C1856.1 49.7698 1856.94 49.4686 1857.61 48.9178C1858.28 48.367 1858.74 47.6007 1858.91 46.75H1863.75C1863.95 46.75 1864.14 46.671 1864.28 46.5303C1864.42 46.3897 1864.5 46.1989 1864.5 46C1864.5 45.8011 1864.42 45.6103 1864.28 45.4697C1864.14 45.329 1863.95 45.25 1863.75 45.25H1863.77ZM1855.24 48.25C1854.77 48.2491 1854.32 48.1044 1853.94 47.8357C1853.57 47.567 1853.28 47.1877 1853.13 46.75H1857.35C1857.19 47.1877 1856.91 47.567 1856.53 47.8357C1856.15 48.1044 1855.7 48.2491 1855.24 48.25V48.25ZM1849 45.25C1849.72 44.16 1850.32 42.25 1850.32 39C1850.32 35.75 1852.12 33.75 1855.24 33.75C1858.36 33.75 1860.16 35.66 1860.16 39C1860.16 42.34 1860.76 44.16 1861.48 45.25H1849Z" fill="white"/>
<path d="M1895.24 32C1893.46 32 1891.72 32.5278 1890.24 33.5168C1888.76 34.5057 1887.6 35.9113 1886.92 37.5558C1886.24 39.2004 1886.06 41.01 1886.41 42.7558C1886.76 44.5016 1887.61 46.1053 1888.87 47.364C1890.13 48.6226 1891.74 49.4798 1893.48 49.8271C1895.23 50.1743 1897.04 49.9961 1898.68 49.3149C1900.33 48.6337 1901.73 47.4802 1902.72 46.0001C1903.71 44.5201 1904.24 42.78 1904.24 41C1904.24 38.6131 1903.29 36.3239 1901.6 34.636C1899.91 32.9482 1897.62 32 1895.24 32V32ZM1895.24 48.5C1893.75 48.5 1892.3 48.0601 1891.07 47.236C1889.84 46.4119 1888.88 45.2406 1888.31 43.8701C1887.74 42.4997 1887.59 40.9917 1887.88 39.5368C1888.17 38.082 1888.89 36.7456 1889.93 35.6967C1890.98 34.6478 1892.32 33.9335 1893.77 33.6441C1895.23 33.3547 1896.74 33.5032 1898.11 34.0709C1899.48 34.6386 1900.65 35.5999 1901.47 36.8332C1902.3 38.0666 1902.74 39.5166 1902.74 41C1902.74 42.9891 1901.95 44.8968 1900.54 46.3033C1899.13 47.7098 1897.23 48.5 1895.24 48.5Z" fill="white"/>
<path d="M1892.94 36.7002C1892.64 37.0024 1892.4 37.361 1892.23 37.7557C1892.07 38.1503 1891.99 38.5732 1891.99 39.0002C1891.99 39.1991 1892.07 39.3899 1892.21 39.5305C1892.35 39.6712 1892.54 39.7502 1892.74 39.7502C1892.94 39.7502 1893.13 39.6712 1893.27 39.5305C1893.41 39.3899 1893.49 39.1991 1893.49 39.0002C1893.49 38.7701 1893.53 38.542 1893.62 38.3291C1893.71 38.1163 1893.83 37.9229 1894 37.7602C1894.33 37.4423 1894.78 37.265 1895.24 37.265C1895.7 37.265 1896.14 37.4423 1896.48 37.7602C1896.73 38.0044 1896.9 38.3176 1896.97 38.6594C1897.04 39.0013 1897 39.3563 1896.87 39.6788C1896.74 40.0013 1896.51 40.2765 1896.22 40.4692C1895.93 40.6619 1895.59 40.7633 1895.24 40.7602C1895.04 40.7628 1894.85 40.8427 1894.71 40.9828C1894.57 41.1228 1894.49 41.3121 1894.49 41.5102V42.5102C1894.49 42.7091 1894.57 42.8999 1894.71 43.0406C1894.85 43.1812 1895.04 43.2602 1895.24 43.2602C1895.44 43.2602 1895.63 43.1812 1895.77 43.0406C1895.91 42.8999 1895.99 42.7091 1895.99 42.5102V42.1702C1896.57 42.0357 1897.11 41.7376 1897.54 41.3102C1898.15 40.6993 1898.49 39.8723 1898.49 39.0102C1898.49 38.1481 1898.15 37.3212 1897.54 36.7102C1896.92 36.1194 1896.1 35.789 1895.24 35.7871C1894.38 35.7853 1893.56 36.1121 1892.94 36.7002V36.7002Z" fill="white"/>
<path d="M1895.24 46.5C1895.93 46.5 1896.49 45.9404 1896.49 45.25C1896.49 44.5596 1895.93 44 1895.24 44C1894.55 44 1893.99 44.5596 1893.99 45.25C1893.99 45.9404 1894.55 46.5 1895.24 46.5Z" fill="white"/>
<g clip-path="url(#clip2_91_23262)">
<rect x="72.9966" y="73" width="122" height="1115" fill="#FFBDBD" fill-opacity="0.3"/>
<g clip-path="url(#clip3_91_23262)">
<rect x="225.208" y="73" width="122" height="1115" fill="#FFBDBD" fill-opacity="0.3"/>
</g>
<g clip-path="url(#clip4_91_23262)">
<rect x="377.416" y="73" width="122" height="1115" fill="#FFBDBD" fill-opacity="0.3"/>
</g>
<g clip-path="url(#clip5_91_23262)">
<rect x="529.624" y="73" width="122" height="1115" fill="#FFBDBD" fill-opacity="0.3"/>
</g>
<g clip-path="url(#clip6_91_23262)">
<rect x="681.832" y="73" width="122" height="1115" fill="#FFBDBD" fill-opacity="0.3"/>
</g>
<g clip-path="url(#clip7_91_23262)">
<rect x="834.04" y="73" width="122" height="1115" fill="#FFBDBD" fill-opacity="0.3"/>
</g>
<g clip-path="url(#clip8_91_23262)">
<rect x="983.752" y="73" width="122" height="1115" fill="#FFBDBD" fill-opacity="0.3"/>
</g>
<g clip-path="url(#clip9_91_23262)">
<rect x="1135.96" y="73" width="122" height="1115" fill="#FFBDBD" fill-opacity="0.3"/>
</g>
<g clip-path="url(#clip10_91_23262)">
<rect x="1288.17" y="73" width="122" height="1115" fill="#FFBDBD" fill-opacity="0.3"/>
</g>
<g clip-path="url(#clip11_91_23262)">
<rect x="1440.38" y="73" width="122" height="1115" fill="#FFBDBD" fill-opacity="0.3"/>
</g>
<g clip-path="url(#clip12_91_23262)">
<rect x="1592.58" y="73" width="122" height="1115" fill="#FFBDBD" fill-opacity="0.3"/>
</g>
<g clip-path="url(#clip13_91_23262)">
<rect x="1744.79" y="73" width="122" height="1115" fill="#FFBDBD" fill-opacity="0.3"/>
</g>
</g>
</g>
</g>
</g>
<defs>
<filter id="filter0_dd_91_23262" x="0" y="0" width="1940" height="1198" filterUnits="userSpaceOnUse" color-interpolation-filters="sRGB">
<feFlood flood-opacity="0" result="BackgroundImageFix"/>
<feColorMatrix in="SourceAlpha" type="matrix" values="0 0 0 0 0 0 0 0 0 0 0 0 0 0 0 0 0 0 127 0" result="hardAlpha"/>
<feOffset dy="2"/>
<feGaussianBlur stdDeviation="2"/>
<feColorMatrix type="matrix" values="0 0 0 0 0 0 0 0 0 0 0 0 0 0 0 0 0 0 0.1 0"/>
<feBlend mode="normal" in2="BackgroundImageFix" result="effect1_dropShadow_91_23262"/>
<feColorMatrix in="SourceAlpha" type="matrix" values="0 0 0 0 0 0 0 0 0 0 0 0 0 0 0 0 0 0 127 0" result="hardAlpha"/>
<feOffset dy="1"/>
<feGaussianBlur stdDeviation="5"/>
<feComposite in2="hardAlpha" operator="out"/>
<feColorMatrix type="matrix" values="0 0 0 0 0 0 0 0 0 0 0 0 0 0 0 0 0 0 0.12 0"/>
<feBlend mode="normal" in2="effect1_dropShadow_91_23262" result="effect2_dropShadow_91_23262"/>
<feBlend mode="normal" in="SourceGraphic" in2="effect2_dropShadow_91_23262" result="shape"/>
</filter>
<filter id="filter1_dd_91_23262" x="0" y="0" width="1940" height="1198" filterUnits="userSpaceOnUse" color-interpolation-filters="sRGB">
<feFlood flood-opacity="0" result="BackgroundImageFix"/>
<feColorMatrix in="SourceAlpha" type="matrix" values="0 0 0 0 0 0 0 0 0 0 0 0 0 0 0 0 0 0 127 0" result="hardAlpha"/>
<feOffset dy="2"/>
<feGaussianBlur stdDeviation="2"/>
<feColorMatrix type="matrix" values="0 0 0 0 0 0 0 0 0 0 0 0 0 0 0 0 0 0 0.1 0"/>
<feBlend mode="normal" in2="BackgroundImageFix" result="effect1_dropShadow_91_23262"/>
<feColorMatrix in="SourceAlpha" type="matrix" values="0 0 0 0 0 0 0 0 0 0 0 0 0 0 0 0 0 0 127 0" result="hardAlpha"/>
<feOffset dy="1"/>
<feGaussianBlur stdDeviation="5"/>
<feComposite in2="hardAlpha" operator="out"/>
<feColorMatrix type="matrix" values="0 0 0 0 0 0 0 0 0 0 0 0 0 0 0 0 0 0 0.12 0"/>
<feBlend mode="normal" in2="effect1_dropShadow_91_23262" result="effect2_dropShadow_91_23262"/>
<feBlend mode="normal" in="SourceGraphic" in2="effect2_dropShadow_91_23262" result="shape"/>
</filter>
<filter id="filter2_dd_91_23262" x="0" y="0" width="1940" height="1198" filterUnits="userSpaceOnUse" color-interpolation-filters="sRGB">
<feFlood flood-opacity="0" result="BackgroundImageFix"/>
<feColorMatrix in="SourceAlpha" type="matrix" values="0 0 0 0 0 0 0 0 0 0 0 0 0 0 0 0 0 0 127 0" result="hardAlpha"/>
<feOffset dy="2"/>
<feGaussianBlur stdDeviation="2"/>
<feColorMatrix type="matrix" values="0 0 0 0 0 0 0 0 0 0 0 0 0 0 0 0 0 0 0.1 0"/>
<feBlend mode="normal" in2="BackgroundImageFix" result="effect1_dropShadow_91_23262"/>
<feColorMatrix in="SourceAlpha" type="matrix" values="0 0 0 0 0 0 0 0 0 0 0 0 0 0 0 0 0 0 127 0" result="hardAlpha"/>
<feOffset dy="1"/>
<feGaussianBlur stdDeviation="5"/>
<feComposite in2="hardAlpha" operator="out"/>
<feColorMatrix type="matrix" values="0 0 0 0 0 0 0 0 0 0 0 0 0 0 0 0 0 0 0.12 0"/>
<feBlend mode="normal" in2="effect1_dropShadow_91_23262" result="effect2_dropShadow_91_23262"/>
<feBlend mode="normal" in="SourceGraphic" in2="effect2_dropShadow_91_23262" result="shape"/>
</filter>
<clipPath id="clip0_91_23262">
<rect width="1920" height="1178" fill="white" transform="translate(10 9)"/>
</clipPath>
<clipPath id="clip1_91_23262">
<rect width="1920" height="1178" fill="white" transform="translate(10 9)"/>
</clipPath>
<clipPath id="clip2_91_23262">
<rect width="1824" height="1115" fill="white" transform="translate(58 73)"/>
</clipPath>
<clipPath id="clip3_91_23262">
<rect width="152.208" height="1115" fill="white" transform="translate(210.208 73)"/>
</clipPath>
<clipPath id="clip4_91_23262">
<rect width="152.208" height="1115" fill="white" transform="translate(362.416 73)"/>
</clipPath>
<clipPath id="clip5_91_23262">
<rect width="152.208" height="1115" fill="white" transform="translate(514.624 73)"/>
</clipPath>
<clipPath id="clip6_91_23262">
<rect width="152.208" height="1115" fill="white" transform="translate(666.832 73)"/>
</clipPath>
<clipPath id="clip7_91_23262">
<rect width="152.208" height="1115" fill="white" transform="translate(819.04 73)"/>
</clipPath>
<clipPath id="clip8_91_23262">
<rect width="152.208" height="1115" fill="white" transform="translate(968.752 73)"/>
</clipPath>
<clipPath id="clip9_91_23262">
<rect width="152.208" height="1115" fill="white" transform="translate(1120.96 73)"/>
</clipPath>
<clipPath id="clip10_91_23262">
<rect width="152.208" height="1115" fill="white" transform="translate(1273.17 73)"/>
</clipPath>
<clipPath id="clip11_91_23262">
<rect width="152.208" height="1115" fill="white" transform="translate(1425.38 73)"/>
</clipPath>
<clipPath id="clip12_91_23262">
<rect width="152.208" height="1115" fill="white" transform="translate(1577.58 73)"/>
</clipPath>
<clipPath id="clip13_91_23262">
<rect width="152.208" height="1115" fill="white" transform="translate(1729.79 73)"/>
</clipPath>
</defs>
</svg>
